<?xml version="1.0" encoding="utf-8" standalone="no"?>
<!DOCTYPE svg PUBLIC "-//W3C//DTD SVG 1.1//EN"
  "http://www.w3.org/Graphics/SVG/1.1/DTD/svg11.dtd">
<!-- Created with matplotlib (http://matplotlib.org/) -->
<svg height="345.6pt" version="1.1" viewBox="0 0 460.8 345.6" width="460.8pt" xmlns="http://www.w3.org/2000/svg" xmlns:xlink="http://www.w3.org/1999/xlink">
 <defs>
  <style type="text/css">
*{stroke-linecap:butt;stroke-linejoin:round;}
  </style>
 </defs>
 <g id="figure_1">
  <g id="patch_1">
   <path d="M 0 345.6 
L 460.8 345.6 
L 460.8 0 
L 0 0 
z
" style="fill:#ffffff;"/>
  </g>
  <g id="axes_1">
   <g id="patch_2">
    <path d="M 56.12 294.88 
L 399.984 294.88 
L 399.984 6.845228 
L 56.12 6.845228 
z
" style="fill:#ffffff;"/>
   </g>
   <g id="matplotlib.axis_1">
    <g id="xtick_1">
     <g id="line2d_1">
      <path clip-path="url(#p61f11b2ef8)" d="M 56.12 294.88 
L 56.12 6.845228 
" style="fill:none;stroke:#b0b0b0;stroke-linecap:square;stroke-width:0.8;"/>
     </g>
     <g id="line2d_2">
      <defs>
       <path d="M 0 0 
L 0 3.5 
" id="mb2ad901b97" style="stroke:#000000;stroke-width:0.8;"/>
      </defs>
      <g>
       <use style="stroke:#000000;stroke-width:0.8;" x="56.12" xlink:href="#mb2ad901b97" y="294.88"/>
      </g>
     </g>
     <g id="text_1">
      <!-- 0 -->
      <defs>
       <path d="M 31.78125 66.40625 
Q 24.171875 66.40625 20.328125 58.90625 
Q 16.5 51.421875 16.5 36.375 
Q 16.5 21.390625 20.328125 13.890625 
Q 24.171875 6.390625 31.78125 6.390625 
Q 39.453125 6.390625 43.28125 13.890625 
Q 47.125 21.390625 47.125 36.375 
Q 47.125 51.421875 43.28125 58.90625 
Q 39.453125 66.40625 31.78125 66.40625 
z
M 31.78125 74.21875 
Q 44.046875 74.21875 50.515625 64.515625 
Q 56.984375 54.828125 56.984375 36.375 
Q 56.984375 17.96875 50.515625 8.265625 
Q 44.046875 -1.421875 31.78125 -1.421875 
Q 19.53125 -1.421875 13.0625 8.265625 
Q 6.59375 17.96875 6.59375 36.375 
Q 6.59375 54.828125 13.0625 64.515625 
Q 19.53125 74.21875 31.78125 74.21875 
z
" id="DejaVuSans-30"/>
      </defs>
      <g transform="translate(49.7575 317.076875)scale(0.2 -0.2)">
       <use xlink:href="#DejaVuSans-30"/>
      </g>
     </g>
    </g>
    <g id="xtick_2">
     <g id="line2d_3">
      <path clip-path="url(#p61f11b2ef8)" d="M 135.351336 294.88 
L 135.351336 6.845228 
" style="fill:none;stroke:#b0b0b0;stroke-linecap:square;stroke-width:0.8;"/>
     </g>
     <g id="line2d_4">
      <g>
       <use style="stroke:#000000;stroke-width:0.8;" x="135.351336" xlink:href="#mb2ad901b97" y="294.88"/>
      </g>
     </g>
     <g id="text_2">
      <!-- 2 -->
      <defs>
       <path d="M 19.1875 8.296875 
L 53.609375 8.296875 
L 53.609375 0 
L 7.328125 0 
L 7.328125 8.296875 
Q 12.9375 14.109375 22.625 23.890625 
Q 32.328125 33.6875 34.8125 36.53125 
Q 39.546875 41.84375 41.421875 45.53125 
Q 43.3125 49.21875 43.3125 52.78125 
Q 43.3125 58.59375 39.234375 62.25 
Q 35.15625 65.921875 28.609375 65.921875 
Q 23.96875 65.921875 18.8125 64.3125 
Q 13.671875 62.703125 7.8125 59.421875 
L 7.8125 69.390625 
Q 13.765625 71.78125 18.9375 73 
Q 24.125 74.21875 28.421875 74.21875 
Q 39.75 74.21875 46.484375 68.546875 
Q 53.21875 62.890625 53.21875 53.421875 
Q 53.21875 48.921875 51.53125 44.890625 
Q 49.859375 40.875 45.40625 35.40625 
Q 44.1875 33.984375 37.640625 27.21875 
Q 31.109375 20.453125 19.1875 8.296875 
z
" id="DejaVuSans-32"/>
      </defs>
      <g transform="translate(128.988836 317.076875)scale(0.2 -0.2)">
       <use xlink:href="#DejaVuSans-32"/>
      </g>
     </g>
    </g>
    <g id="xtick_3">
     <g id="line2d_5">
      <path clip-path="url(#p61f11b2ef8)" d="M 214.582673 294.88 
L 214.582673 6.845228 
" style="fill:none;stroke:#b0b0b0;stroke-linecap:square;stroke-width:0.8;"/>
     </g>
     <g id="line2d_6">
      <g>
       <use style="stroke:#000000;stroke-width:0.8;" x="214.582673" xlink:href="#mb2ad901b97" y="294.88"/>
      </g>
     </g>
     <g id="text_3">
      <!-- 4 -->
      <defs>
       <path d="M 37.796875 64.3125 
L 12.890625 25.390625 
L 37.796875 25.390625 
z
M 35.203125 72.90625 
L 47.609375 72.90625 
L 47.609375 25.390625 
L 58.015625 25.390625 
L 58.015625 17.1875 
L 47.609375 17.1875 
L 47.609375 0 
L 37.796875 0 
L 37.796875 17.1875 
L 4.890625 17.1875 
L 4.890625 26.703125 
z
" id="DejaVuSans-34"/>
      </defs>
      <g transform="translate(208.220173 317.076875)scale(0.2 -0.2)">
       <use xlink:href="#DejaVuSans-34"/>
      </g>
     </g>
    </g>
    <g id="xtick_4">
     <g id="line2d_7">
      <path clip-path="url(#p61f11b2ef8)" d="M 293.814009 294.88 
L 293.814009 6.845228 
" style="fill:none;stroke:#b0b0b0;stroke-linecap:square;stroke-width:0.8;"/>
     </g>
     <g id="line2d_8">
      <g>
       <use style="stroke:#000000;stroke-width:0.8;" x="293.814009" xlink:href="#mb2ad901b97" y="294.88"/>
      </g>
     </g>
     <g id="text_4">
      <!-- 6 -->
      <defs>
       <path d="M 33.015625 40.375 
Q 26.375 40.375 22.484375 35.828125 
Q 18.609375 31.296875 18.609375 23.390625 
Q 18.609375 15.53125 22.484375 10.953125 
Q 26.375 6.390625 33.015625 6.390625 
Q 39.65625 6.390625 43.53125 10.953125 
Q 47.40625 15.53125 47.40625 23.390625 
Q 47.40625 31.296875 43.53125 35.828125 
Q 39.65625 40.375 33.015625 40.375 
z
M 52.59375 71.296875 
L 52.59375 62.3125 
Q 48.875 64.0625 45.09375 64.984375 
Q 41.3125 65.921875 37.59375 65.921875 
Q 27.828125 65.921875 22.671875 59.328125 
Q 17.53125 52.734375 16.796875 39.40625 
Q 19.671875 43.65625 24.015625 45.921875 
Q 28.375 48.1875 33.59375 48.1875 
Q 44.578125 48.1875 50.953125 41.515625 
Q 57.328125 34.859375 57.328125 23.390625 
Q 57.328125 12.15625 50.6875 5.359375 
Q 44.046875 -1.421875 33.015625 -1.421875 
Q 20.359375 -1.421875 13.671875 8.265625 
Q 6.984375 17.96875 6.984375 36.375 
Q 6.984375 53.65625 15.1875 63.9375 
Q 23.390625 74.21875 37.203125 74.21875 
Q 40.921875 74.21875 44.703125 73.484375 
Q 48.484375 72.75 52.59375 71.296875 
z
" id="DejaVuSans-36"/>
      </defs>
      <g transform="translate(287.451509 317.076875)scale(0.2 -0.2)">
       <use xlink:href="#DejaVuSans-36"/>
      </g>
     </g>
    </g>
    <g id="xtick_5">
     <g id="line2d_9">
      <path clip-path="url(#p61f11b2ef8)" d="M 373.045346 294.88 
L 373.045346 6.845228 
" style="fill:none;stroke:#b0b0b0;stroke-linecap:square;stroke-width:0.8;"/>
     </g>
     <g id="line2d_10">
      <g>
       <use style="stroke:#000000;stroke-width:0.8;" x="373.045346" xlink:href="#mb2ad901b97" y="294.88"/>
      </g>
     </g>
     <g id="text_5">
      <!-- 8 -->
      <defs>
       <path d="M 31.78125 34.625 
Q 24.75 34.625 20.71875 30.859375 
Q 16.703125 27.09375 16.703125 20.515625 
Q 16.703125 13.921875 20.71875 10.15625 
Q 24.75 6.390625 31.78125 6.390625 
Q 38.8125 6.390625 42.859375 10.171875 
Q 46.921875 13.96875 46.921875 20.515625 
Q 46.921875 27.09375 42.890625 30.859375 
Q 38.875 34.625 31.78125 34.625 
z
M 21.921875 38.8125 
Q 15.578125 40.375 12.03125 44.71875 
Q 8.5 49.078125 8.5 55.328125 
Q 8.5 64.0625 14.71875 69.140625 
Q 20.953125 74.21875 31.78125 74.21875 
Q 42.671875 74.21875 48.875 69.140625 
Q 55.078125 64.0625 55.078125 55.328125 
Q 55.078125 49.078125 51.53125 44.71875 
Q 48 40.375 41.703125 38.8125 
Q 48.828125 37.15625 52.796875 32.3125 
Q 56.78125 27.484375 56.78125 20.515625 
Q 56.78125 9.90625 50.3125 4.234375 
Q 43.84375 -1.421875 31.78125 -1.421875 
Q 19.734375 -1.421875 13.25 4.234375 
Q 6.78125 9.90625 6.78125 20.515625 
Q 6.78125 27.484375 10.78125 32.3125 
Q 14.796875 37.15625 21.921875 38.8125 
z
M 18.3125 54.390625 
Q 18.3125 48.734375 21.84375 45.5625 
Q 25.390625 42.390625 31.78125 42.390625 
Q 38.140625 42.390625 41.71875 45.5625 
Q 45.3125 48.734375 45.3125 54.390625 
Q 45.3125 60.0625 41.71875 63.234375 
Q 38.140625 66.40625 31.78125 66.40625 
Q 25.390625 66.40625 21.84375 63.234375 
Q 18.3125 60.0625 18.3125 54.390625 
z
" id="DejaVuSans-38"/>
      </defs>
      <g transform="translate(366.682846 317.076875)scale(0.2 -0.2)">
       <use xlink:href="#DejaVuSans-38"/>
      </g>
     </g>
    </g>
    <g id="text_6">
     <!-- log10(# f-evals / dimension) -->
     <defs>
      <path d="M 9.421875 75.984375 
L 18.40625 75.984375 
L 18.40625 0 
L 9.421875 0 
z
" id="DejaVuSans-6c"/>
      <path d="M 30.609375 48.390625 
Q 23.390625 48.390625 19.1875 42.75 
Q 14.984375 37.109375 14.984375 27.296875 
Q 14.984375 17.484375 19.15625 11.84375 
Q 23.34375 6.203125 30.609375 6.203125 
Q 37.796875 6.203125 41.984375 11.859375 
Q 46.1875 17.53125 46.1875 27.296875 
Q 46.1875 37.015625 41.984375 42.703125 
Q 37.796875 48.390625 30.609375 48.390625 
z
M 30.609375 56 
Q 42.328125 56 49.015625 48.375 
Q 55.71875 40.765625 55.71875 27.296875 
Q 55.71875 13.875 49.015625 6.21875 
Q 42.328125 -1.421875 30.609375 -1.421875 
Q 18.84375 -1.421875 12.171875 6.21875 
Q 5.515625 13.875 5.515625 27.296875 
Q 5.515625 40.765625 12.171875 48.375 
Q 18.84375 56 30.609375 56 
z
" id="DejaVuSans-6f"/>
      <path d="M 45.40625 27.984375 
Q 45.40625 37.75 41.375 43.109375 
Q 37.359375 48.484375 30.078125 48.484375 
Q 22.859375 48.484375 18.828125 43.109375 
Q 14.796875 37.75 14.796875 27.984375 
Q 14.796875 18.265625 18.828125 12.890625 
Q 22.859375 7.515625 30.078125 7.515625 
Q 37.359375 7.515625 41.375 12.890625 
Q 45.40625 18.265625 45.40625 27.984375 
z
M 54.390625 6.78125 
Q 54.390625 -7.171875 48.1875 -13.984375 
Q 42 -20.796875 29.203125 -20.796875 
Q 24.46875 -20.796875 20.265625 -20.09375 
Q 16.0625 -19.390625 12.109375 -17.921875 
L 12.109375 -9.1875 
Q 16.0625 -11.328125 19.921875 -12.34375 
Q 23.78125 -13.375 27.78125 -13.375 
Q 36.625 -13.375 41.015625 -8.765625 
Q 45.40625 -4.15625 45.40625 5.171875 
L 45.40625 9.625 
Q 42.625 4.78125 38.28125 2.390625 
Q 33.9375 0 27.875 0 
Q 17.828125 0 11.671875 7.65625 
Q 5.515625 15.328125 5.515625 27.984375 
Q 5.515625 40.671875 11.671875 48.328125 
Q 17.828125 56 27.875 56 
Q 33.9375 56 38.28125 53.609375 
Q 42.625 51.21875 45.40625 46.390625 
L 45.40625 54.6875 
L 54.390625 54.6875 
z
" id="DejaVuSans-67"/>
      <path d="M 12.40625 8.296875 
L 28.515625 8.296875 
L 28.515625 63.921875 
L 10.984375 60.40625 
L 10.984375 69.390625 
L 28.421875 72.90625 
L 38.28125 72.90625 
L 38.28125 8.296875 
L 54.390625 8.296875 
L 54.390625 0 
L 12.40625 0 
z
" id="DejaVuSans-31"/>
      <path d="M 31 75.875 
Q 24.46875 64.65625 21.28125 53.65625 
Q 18.109375 42.671875 18.109375 31.390625 
Q 18.109375 20.125 21.3125 9.0625 
Q 24.515625 -2 31 -13.1875 
L 23.1875 -13.1875 
Q 15.875 -1.703125 12.234375 9.375 
Q 8.59375 20.453125 8.59375 31.390625 
Q 8.59375 42.28125 12.203125 53.3125 
Q 15.828125 64.359375 23.1875 75.875 
z
" id="DejaVuSans-28"/>
      <path d="M 51.125 44 
L 36.921875 44 
L 32.8125 27.6875 
L 47.125 27.6875 
z
M 43.796875 71.78125 
L 38.71875 51.515625 
L 52.984375 51.515625 
L 58.109375 71.78125 
L 65.921875 71.78125 
L 60.890625 51.515625 
L 76.125 51.515625 
L 76.125 44 
L 58.984375 44 
L 54.984375 27.6875 
L 70.515625 27.6875 
L 70.515625 20.21875 
L 53.078125 20.21875 
L 48 0 
L 40.1875 0 
L 45.21875 20.21875 
L 30.90625 20.21875 
L 25.875 0 
L 18.015625 0 
L 23.09375 20.21875 
L 7.71875 20.21875 
L 7.71875 27.6875 
L 24.90625 27.6875 
L 29 44 
L 13.28125 44 
L 13.28125 51.515625 
L 30.90625 51.515625 
L 35.890625 71.78125 
z
" id="DejaVuSans-23"/>
      <path id="DejaVuSans-20"/>
      <path d="M 37.109375 75.984375 
L 37.109375 68.5 
L 28.515625 68.5 
Q 23.6875 68.5 21.796875 66.546875 
Q 19.921875 64.59375 19.921875 59.515625 
L 19.921875 54.6875 
L 34.71875 54.6875 
L 34.71875 47.703125 
L 19.921875 47.703125 
L 19.921875 0 
L 10.890625 0 
L 10.890625 47.703125 
L 2.296875 47.703125 
L 2.296875 54.6875 
L 10.890625 54.6875 
L 10.890625 58.5 
Q 10.890625 67.625 15.140625 71.796875 
Q 19.390625 75.984375 28.609375 75.984375 
z
" id="DejaVuSans-66"/>
      <path d="M 4.890625 31.390625 
L 31.203125 31.390625 
L 31.203125 23.390625 
L 4.890625 23.390625 
z
" id="DejaVuSans-2d"/>
      <path d="M 56.203125 29.59375 
L 56.203125 25.203125 
L 14.890625 25.203125 
Q 15.484375 15.921875 20.484375 11.0625 
Q 25.484375 6.203125 34.421875 6.203125 
Q 39.59375 6.203125 44.453125 7.46875 
Q 49.3125 8.734375 54.109375 11.28125 
L 54.109375 2.78125 
Q 49.265625 0.734375 44.1875 -0.34375 
Q 39.109375 -1.421875 33.890625 -1.421875 
Q 20.796875 -1.421875 13.15625 6.1875 
Q 5.515625 13.8125 5.515625 26.8125 
Q 5.515625 40.234375 12.765625 48.109375 
Q 20.015625 56 32.328125 56 
Q 43.359375 56 49.78125 48.890625 
Q 56.203125 41.796875 56.203125 29.59375 
z
M 47.21875 32.234375 
Q 47.125 39.59375 43.09375 43.984375 
Q 39.0625 48.390625 32.421875 48.390625 
Q 24.90625 48.390625 20.390625 44.140625 
Q 15.875 39.890625 15.1875 32.171875 
z
" id="DejaVuSans-65"/>
      <path d="M 2.984375 54.6875 
L 12.5 54.6875 
L 29.59375 8.796875 
L 46.6875 54.6875 
L 56.203125 54.6875 
L 35.6875 0 
L 23.484375 0 
z
" id="DejaVuSans-76"/>
      <path d="M 34.28125 27.484375 
Q 23.390625 27.484375 19.1875 25 
Q 14.984375 22.515625 14.984375 16.5 
Q 14.984375 11.71875 18.140625 8.90625 
Q 21.296875 6.109375 26.703125 6.109375 
Q 34.1875 6.109375 38.703125 11.40625 
Q 43.21875 16.703125 43.21875 25.484375 
L 43.21875 27.484375 
z
M 52.203125 31.203125 
L 52.203125 0 
L 43.21875 0 
L 43.21875 8.296875 
Q 40.140625 3.328125 35.546875 0.953125 
Q 30.953125 -1.421875 24.3125 -1.421875 
Q 15.921875 -1.421875 10.953125 3.296875 
Q 6 8.015625 6 15.921875 
Q 6 25.140625 12.171875 29.828125 
Q 18.359375 34.515625 30.609375 34.515625 
L 43.21875 34.515625 
L 43.21875 35.40625 
Q 43.21875 41.609375 39.140625 45 
Q 35.0625 48.390625 27.6875 48.390625 
Q 23 48.390625 18.546875 47.265625 
Q 14.109375 46.140625 10.015625 43.890625 
L 10.015625 52.203125 
Q 14.9375 54.109375 19.578125 55.046875 
Q 24.21875 56 28.609375 56 
Q 40.484375 56 46.34375 49.84375 
Q 52.203125 43.703125 52.203125 31.203125 
z
" id="DejaVuSans-61"/>
      <path d="M 44.28125 53.078125 
L 44.28125 44.578125 
Q 40.484375 46.53125 36.375 47.5 
Q 32.28125 48.484375 27.875 48.484375 
Q 21.1875 48.484375 17.84375 46.4375 
Q 14.5 44.390625 14.5 40.28125 
Q 14.5 37.15625 16.890625 35.375 
Q 19.28125 33.59375 26.515625 31.984375 
L 29.59375 31.296875 
Q 39.15625 29.25 43.1875 25.515625 
Q 47.21875 21.78125 47.21875 15.09375 
Q 47.21875 7.46875 41.1875 3.015625 
Q 35.15625 -1.421875 24.609375 -1.421875 
Q 20.21875 -1.421875 15.453125 -0.5625 
Q 10.6875 0.296875 5.421875 2 
L 5.421875 11.28125 
Q 10.40625 8.6875 15.234375 7.390625 
Q 20.0625 6.109375 24.8125 6.109375 
Q 31.15625 6.109375 34.5625 8.28125 
Q 37.984375 10.453125 37.984375 14.40625 
Q 37.984375 18.0625 35.515625 20.015625 
Q 33.0625 21.96875 24.703125 23.78125 
L 21.578125 24.515625 
Q 13.234375 26.265625 9.515625 29.90625 
Q 5.8125 33.546875 5.8125 39.890625 
Q 5.8125 47.609375 11.28125 51.796875 
Q 16.75 56 26.8125 56 
Q 31.78125 56 36.171875 55.265625 
Q 40.578125 54.546875 44.28125 53.078125 
z
" id="DejaVuSans-73"/>
      <path d="M 25.390625 72.90625 
L 33.6875 72.90625 
L 8.296875 -9.28125 
L 0 -9.28125 
z
" id="DejaVuSans-2f"/>
      <path d="M 45.40625 46.390625 
L 45.40625 75.984375 
L 54.390625 75.984375 
L 54.390625 0 
L 45.40625 0 
L 45.40625 8.203125 
Q 42.578125 3.328125 38.25 0.953125 
Q 33.9375 -1.421875 27.875 -1.421875 
Q 17.96875 -1.421875 11.734375 6.484375 
Q 5.515625 14.40625 5.515625 27.296875 
Q 5.515625 40.1875 11.734375 48.09375 
Q 17.96875 56 27.875 56 
Q 33.9375 56 38.25 53.625 
Q 42.578125 51.265625 45.40625 46.390625 
z
M 14.796875 27.296875 
Q 14.796875 17.390625 18.875 11.75 
Q 22.953125 6.109375 30.078125 6.109375 
Q 37.203125 6.109375 41.296875 11.75 
Q 45.40625 17.390625 45.40625 27.296875 
Q 45.40625 37.203125 41.296875 42.84375 
Q 37.203125 48.484375 30.078125 48.484375 
Q 22.953125 48.484375 18.875 42.84375 
Q 14.796875 37.203125 14.796875 27.296875 
z
" id="DejaVuSans-64"/>
      <path d="M 9.421875 54.6875 
L 18.40625 54.6875 
L 18.40625 0 
L 9.421875 0 
z
M 9.421875 75.984375 
L 18.40625 75.984375 
L 18.40625 64.59375 
L 9.421875 64.59375 
z
" id="DejaVuSans-69"/>
      <path d="M 52 44.1875 
Q 55.375 50.25 60.0625 53.125 
Q 64.75 56 71.09375 56 
Q 79.640625 56 84.28125 50.015625 
Q 88.921875 44.046875 88.921875 33.015625 
L 88.921875 0 
L 79.890625 0 
L 79.890625 32.71875 
Q 79.890625 40.578125 77.09375 44.375 
Q 74.3125 48.1875 68.609375 48.1875 
Q 61.625 48.1875 57.5625 43.546875 
Q 53.515625 38.921875 53.515625 30.90625 
L 53.515625 0 
L 44.484375 0 
L 44.484375 32.71875 
Q 44.484375 40.625 41.703125 44.40625 
Q 38.921875 48.1875 33.109375 48.1875 
Q 26.21875 48.1875 22.15625 43.53125 
Q 18.109375 38.875 18.109375 30.90625 
L 18.109375 0 
L 9.078125 0 
L 9.078125 54.6875 
L 18.109375 54.6875 
L 18.109375 46.1875 
Q 21.1875 51.21875 25.484375 53.609375 
Q 29.78125 56 35.6875 56 
Q 41.65625 56 45.828125 52.96875 
Q 50 49.953125 52 44.1875 
z
" id="DejaVuSans-6d"/>
      <path d="M 54.890625 33.015625 
L 54.890625 0 
L 45.90625 0 
L 45.90625 32.71875 
Q 45.90625 40.484375 42.875 44.328125 
Q 39.84375 48.1875 33.796875 48.1875 
Q 26.515625 48.1875 22.3125 43.546875 
Q 18.109375 38.921875 18.109375 30.90625 
L 18.109375 0 
L 9.078125 0 
L 9.078125 54.6875 
L 18.109375 54.6875 
L 18.109375 46.1875 
Q 21.34375 51.125 25.703125 53.5625 
Q 30.078125 56 35.796875 56 
Q 45.21875 56 50.046875 50.171875 
Q 54.890625 44.34375 54.890625 33.015625 
z
" id="DejaVuSans-6e"/>
      <path d="M 8.015625 75.875 
L 15.828125 75.875 
Q 23.140625 64.359375 26.78125 53.3125 
Q 30.421875 42.28125 30.421875 31.390625 
Q 30.421875 20.453125 26.78125 9.375 
Q 23.140625 -1.703125 15.828125 -13.1875 
L 8.015625 -13.1875 
Q 14.5 -2 17.703125 9.0625 
Q 20.90625 20.125 20.90625 31.390625 
Q 20.90625 42.671875 17.703125 53.65625 
Q 14.5 64.65625 8.015625 75.875 
z
" id="DejaVuSans-29"/>
     </defs>
     <g transform="translate(107.211219 338.153594)scale(0.17 -0.17)">
      <use xlink:href="#DejaVuSans-6c"/>
      <use x="27.783203" xlink:href="#DejaVuSans-6f"/>
      <use x="88.964844" xlink:href="#DejaVuSans-67"/>
      <use x="152.441406" xlink:href="#DejaVuSans-31"/>
      <use x="216.064453" xlink:href="#DejaVuSans-30"/>
      <use x="279.6875" xlink:href="#DejaVuSans-28"/>
      <use x="318.701172" xlink:href="#DejaVuSans-23"/>
      <use x="402.490234" xlink:href="#DejaVuSans-20"/>
      <use x="434.277344" xlink:href="#DejaVuSans-66"/>
      <use x="469.404297" xlink:href="#DejaVuSans-2d"/>
      <use x="505.488281" xlink:href="#DejaVuSans-65"/>
      <use x="567.011719" xlink:href="#DejaVuSans-76"/>
      <use x="626.191406" xlink:href="#DejaVuSans-61"/>
      <use x="687.470703" xlink:href="#DejaVuSans-6c"/>
      <use x="715.253906" xlink:href="#DejaVuSans-73"/>
      <use x="767.353516" xlink:href="#DejaVuSans-20"/>
      <use x="799.140625" xlink:href="#DejaVuSans-2f"/>
      <use x="832.832031" xlink:href="#DejaVuSans-20"/>
      <use x="864.619141" xlink:href="#DejaVuSans-64"/>
      <use x="928.095703" xlink:href="#DejaVuSans-69"/>
      <use x="955.878906" xlink:href="#DejaVuSans-6d"/>
      <use x="1053.291016" xlink:href="#DejaVuSans-65"/>
      <use x="1114.814453" xlink:href="#DejaVuSans-6e"/>
      <use x="1178.193359" xlink:href="#DejaVuSans-73"/>
      <use x="1230.292969" xlink:href="#DejaVuSans-69"/>
      <use x="1258.076172" xlink:href="#DejaVuSans-6f"/>
      <use x="1319.257812" xlink:href="#DejaVuSans-6e"/>
      <use x="1382.636719" xlink:href="#DejaVuSans-29"/>
     </g>
    </g>
   </g>
   <g id="matplotlib.axis_2">
    <g id="ytick_1">
     <g id="line2d_11">
      <path clip-path="url(#p61f11b2ef8)" d="M 56.12 294.88 
L 399.984 294.88 
" style="fill:none;stroke:#b0b0b0;stroke-linecap:square;stroke-width:0.8;"/>
     </g>
     <g id="line2d_12">
      <defs>
       <path d="M 0 0 
L -3.5 0 
" id="mf6a40a512d" style="stroke:#000000;stroke-width:0.8;"/>
      </defs>
      <g>
       <use style="stroke:#000000;stroke-width:0.8;" x="56.12" xlink:href="#mf6a40a512d" y="294.88"/>
      </g>
     </g>
     <g id="text_7">
      <!-- 0.0 -->
      <defs>
       <path d="M 10.6875 12.40625 
L 21 12.40625 
L 21 0 
L 10.6875 0 
z
" id="DejaVuSans-2e"/>
      </defs>
      <g transform="translate(23.675 300.95875)scale(0.16 -0.16)">
       <use xlink:href="#DejaVuSans-30"/>
       <use x="63.623047" xlink:href="#DejaVuSans-2e"/>
       <use x="95.410156" xlink:href="#DejaVuSans-30"/>
      </g>
     </g>
    </g>
    <g id="ytick_2">
     <g id="line2d_13">
      <path clip-path="url(#p61f11b2ef8)" d="M 56.12 237.843411 
L 399.984 237.843411 
" style="fill:none;stroke:#b0b0b0;stroke-linecap:square;stroke-width:0.8;"/>
     </g>
     <g id="line2d_14">
      <g>
       <use style="stroke:#000000;stroke-width:0.8;" x="56.12" xlink:href="#mf6a40a512d" y="237.843411"/>
      </g>
     </g>
     <g id="text_8">
      <!-- 0.2 -->
      <g transform="translate(23.675 243.922161)scale(0.16 -0.16)">
       <use xlink:href="#DejaVuSans-30"/>
       <use x="63.623047" xlink:href="#DejaVuSans-2e"/>
       <use x="95.410156" xlink:href="#DejaVuSans-32"/>
      </g>
     </g>
    </g>
    <g id="ytick_3">
     <g id="line2d_15">
      <path clip-path="url(#p61f11b2ef8)" d="M 56.12 180.806823 
L 399.984 180.806823 
" style="fill:none;stroke:#b0b0b0;stroke-linecap:square;stroke-width:0.8;"/>
     </g>
     <g id="line2d_16">
      <g>
       <use style="stroke:#000000;stroke-width:0.8;" x="56.12" xlink:href="#mf6a40a512d" y="180.806823"/>
      </g>
     </g>
     <g id="text_9">
      <!-- 0.4 -->
      <g transform="translate(23.675 186.885573)scale(0.16 -0.16)">
       <use xlink:href="#DejaVuSans-30"/>
       <use x="63.623047" xlink:href="#DejaVuSans-2e"/>
       <use x="95.410156" xlink:href="#DejaVuSans-34"/>
      </g>
     </g>
    </g>
    <g id="ytick_4">
     <g id="line2d_17">
      <path clip-path="url(#p61f11b2ef8)" d="M 56.12 123.770234 
L 399.984 123.770234 
" style="fill:none;stroke:#b0b0b0;stroke-linecap:square;stroke-width:0.8;"/>
     </g>
     <g id="line2d_18">
      <g>
       <use style="stroke:#000000;stroke-width:0.8;" x="56.12" xlink:href="#mf6a40a512d" y="123.770234"/>
      </g>
     </g>
     <g id="text_10">
      <!-- 0.6 -->
      <g transform="translate(23.675 129.848984)scale(0.16 -0.16)">
       <use xlink:href="#DejaVuSans-30"/>
       <use x="63.623047" xlink:href="#DejaVuSans-2e"/>
       <use x="95.410156" xlink:href="#DejaVuSans-36"/>
      </g>
     </g>
    </g>
    <g id="ytick_5">
     <g id="line2d_19">
      <path clip-path="url(#p61f11b2ef8)" d="M 56.12 66.733646 
L 399.984 66.733646 
" style="fill:none;stroke:#b0b0b0;stroke-linecap:square;stroke-width:0.8;"/>
     </g>
     <g id="line2d_20">
      <g>
       <use style="stroke:#000000;stroke-width:0.8;" x="56.12" xlink:href="#mf6a40a512d" y="66.733646"/>
      </g>
     </g>
     <g id="text_11">
      <!-- 0.8 -->
      <g transform="translate(23.675 72.812396)scale(0.16 -0.16)">
       <use xlink:href="#DejaVuSans-30"/>
       <use x="63.623047" xlink:href="#DejaVuSans-2e"/>
       <use x="95.410156" xlink:href="#DejaVuSans-38"/>
      </g>
     </g>
    </g>
    <g id="ytick_6">
     <g id="line2d_21">
      <path clip-path="url(#p61f11b2ef8)" d="M 56.12 9.697057 
L 399.984 9.697057 
" style="fill:none;stroke:#b0b0b0;stroke-linecap:square;stroke-width:0.8;"/>
     </g>
     <g id="line2d_22">
      <g>
       <use style="stroke:#000000;stroke-width:0.8;" x="56.12" xlink:href="#mf6a40a512d" y="9.697057"/>
      </g>
     </g>
     <g id="text_12">
      <!-- 1.0 -->
      <g transform="translate(23.675 15.775807)scale(0.16 -0.16)">
       <use xlink:href="#DejaVuSans-31"/>
       <use x="63.623047" xlink:href="#DejaVuSans-2e"/>
       <use x="95.410156" xlink:href="#DejaVuSans-30"/>
      </g>
     </g>
    </g>
    <g id="text_13">
     <!-- Fraction of function,target pairs -->
     <defs>
      <path d="M 9.8125 72.90625 
L 51.703125 72.90625 
L 51.703125 64.59375 
L 19.671875 64.59375 
L 19.671875 43.109375 
L 48.578125 43.109375 
L 48.578125 34.8125 
L 19.671875 34.8125 
L 19.671875 0 
L 9.8125 0 
z
" id="DejaVuSans-46"/>
      <path d="M 41.109375 46.296875 
Q 39.59375 47.171875 37.8125 47.578125 
Q 36.03125 48 33.890625 48 
Q 26.265625 48 22.1875 43.046875 
Q 18.109375 38.09375 18.109375 28.8125 
L 18.109375 0 
L 9.078125 0 
L 9.078125 54.6875 
L 18.109375 54.6875 
L 18.109375 46.1875 
Q 20.953125 51.171875 25.484375 53.578125 
Q 30.03125 56 36.53125 56 
Q 37.453125 56 38.578125 55.875 
Q 39.703125 55.765625 41.0625 55.515625 
z
" id="DejaVuSans-72"/>
      <path d="M 48.78125 52.59375 
L 48.78125 44.1875 
Q 44.96875 46.296875 41.140625 47.34375 
Q 37.3125 48.390625 33.40625 48.390625 
Q 24.65625 48.390625 19.8125 42.84375 
Q 14.984375 37.3125 14.984375 27.296875 
Q 14.984375 17.28125 19.8125 11.734375 
Q 24.65625 6.203125 33.40625 6.203125 
Q 37.3125 6.203125 41.140625 7.25 
Q 44.96875 8.296875 48.78125 10.40625 
L 48.78125 2.09375 
Q 45.015625 0.34375 40.984375 -0.53125 
Q 36.96875 -1.421875 32.421875 -1.421875 
Q 20.0625 -1.421875 12.78125 6.34375 
Q 5.515625 14.109375 5.515625 27.296875 
Q 5.515625 40.671875 12.859375 48.328125 
Q 20.21875 56 33.015625 56 
Q 37.15625 56 41.109375 55.140625 
Q 45.0625 54.296875 48.78125 52.59375 
z
" id="DejaVuSans-63"/>
      <path d="M 18.3125 70.21875 
L 18.3125 54.6875 
L 36.8125 54.6875 
L 36.8125 47.703125 
L 18.3125 47.703125 
L 18.3125 18.015625 
Q 18.3125 11.328125 20.140625 9.421875 
Q 21.96875 7.515625 27.59375 7.515625 
L 36.8125 7.515625 
L 36.8125 0 
L 27.59375 0 
Q 17.1875 0 13.234375 3.875 
Q 9.28125 7.765625 9.28125 18.015625 
L 9.28125 47.703125 
L 2.6875 47.703125 
L 2.6875 54.6875 
L 9.28125 54.6875 
L 9.28125 70.21875 
z
" id="DejaVuSans-74"/>
      <path d="M 8.5 21.578125 
L 8.5 54.6875 
L 17.484375 54.6875 
L 17.484375 21.921875 
Q 17.484375 14.15625 20.5 10.265625 
Q 23.53125 6.390625 29.59375 6.390625 
Q 36.859375 6.390625 41.078125 11.03125 
Q 45.3125 15.671875 45.3125 23.6875 
L 45.3125 54.6875 
L 54.296875 54.6875 
L 54.296875 0 
L 45.3125 0 
L 45.3125 8.40625 
Q 42.046875 3.421875 37.71875 1 
Q 33.40625 -1.421875 27.6875 -1.421875 
Q 18.265625 -1.421875 13.375 4.4375 
Q 8.5 10.296875 8.5 21.578125 
z
M 31.109375 56 
z
" id="DejaVuSans-75"/>
      <path d="M 11.71875 12.40625 
L 22.015625 12.40625 
L 22.015625 4 
L 14.015625 -11.625 
L 7.71875 -11.625 
L 11.71875 4 
z
" id="DejaVuSans-2c"/>
      <path d="M 18.109375 8.203125 
L 18.109375 -20.796875 
L 9.078125 -20.796875 
L 9.078125 54.6875 
L 18.109375 54.6875 
L 18.109375 46.390625 
Q 20.953125 51.265625 25.265625 53.625 
Q 29.59375 56 35.59375 56 
Q 45.5625 56 51.78125 48.09375 
Q 58.015625 40.1875 58.015625 27.296875 
Q 58.015625 14.40625 51.78125 6.484375 
Q 45.5625 -1.421875 35.59375 -1.421875 
Q 29.59375 -1.421875 25.265625 0.953125 
Q 20.953125 3.328125 18.109375 8.203125 
z
M 48.6875 27.296875 
Q 48.6875 37.203125 44.609375 42.84375 
Q 40.53125 48.484375 33.40625 48.484375 
Q 26.265625 48.484375 22.1875 42.84375 
Q 18.109375 37.203125 18.109375 27.296875 
Q 18.109375 17.390625 22.1875 11.75 
Q 26.265625 6.109375 33.40625 6.109375 
Q 40.53125 6.109375 44.609375 11.75 
Q 48.6875 17.390625 48.6875 27.296875 
z
" id="DejaVuSans-70"/>
     </defs>
     <g transform="translate(16.139531 286.001989)rotate(-90)scale(0.17 -0.17)">
      <use xlink:href="#DejaVuSans-46"/>
      <use x="57.410156" xlink:href="#DejaVuSans-72"/>
      <use x="98.523438" xlink:href="#DejaVuSans-61"/>
      <use x="159.802734" xlink:href="#DejaVuSans-63"/>
      <use x="214.783203" xlink:href="#DejaVuSans-74"/>
      <use x="253.992188" xlink:href="#DejaVuSans-69"/>
      <use x="281.775391" xlink:href="#DejaVuSans-6f"/>
      <use x="342.957031" xlink:href="#DejaVuSans-6e"/>
      <use x="406.335938" xlink:href="#DejaVuSans-20"/>
      <use x="438.123047" xlink:href="#DejaVuSans-6f"/>
      <use x="499.304688" xlink:href="#DejaVuSans-66"/>
      <use x="534.509766" xlink:href="#DejaVuSans-20"/>
      <use x="566.296875" xlink:href="#DejaVuSans-66"/>
      <use x="601.501953" xlink:href="#DejaVuSans-75"/>
      <use x="664.880859" xlink:href="#DejaVuSans-6e"/>
      <use x="728.259766" xlink:href="#DejaVuSans-63"/>
      <use x="783.240234" xlink:href="#DejaVuSans-74"/>
      <use x="822.449219" xlink:href="#DejaVuSans-69"/>
      <use x="850.232422" xlink:href="#DejaVuSans-6f"/>
      <use x="911.414062" xlink:href="#DejaVuSans-6e"/>
      <use x="974.792969" xlink:href="#DejaVuSans-2c"/>
      <use x="1006.580078" xlink:href="#DejaVuSans-74"/>
      <use x="1045.789062" xlink:href="#DejaVuSans-61"/>
      <use x="1107.068359" xlink:href="#DejaVuSans-72"/>
      <use x="1148.166016" xlink:href="#DejaVuSans-67"/>
      <use x="1211.642578" xlink:href="#DejaVuSans-65"/>
      <use x="1273.166016" xlink:href="#DejaVuSans-74"/>
      <use x="1312.375" xlink:href="#DejaVuSans-20"/>
      <use x="1344.162109" xlink:href="#DejaVuSans-70"/>
      <use x="1407.638672" xlink:href="#DejaVuSans-61"/>
      <use x="1468.917969" xlink:href="#DejaVuSans-69"/>
      <use x="1496.701172" xlink:href="#DejaVuSans-72"/>
      <use x="1537.814453" xlink:href="#DejaVuSans-73"/>
     </g>
    </g>
   </g>
   <g id="line2d_23">
    <defs>
     <path d="M 0 1.5 
C 0.397805 1.5 0.77937 1.341951 1.06066 1.06066 
C 1.341951 0.77937 1.5 0.397805 1.5 0 
C 1.5 -0.397805 1.341951 -0.77937 1.06066 -1.06066 
C 0.77937 -1.341951 0.397805 -1.5 0 -1.5 
C -0.397805 -1.5 -0.77937 -1.341951 -1.06066 -1.06066 
C -1.341951 -0.77937 -1.5 -0.397805 -1.5 0 
C -1.5 0.397805 -1.341951 0.77937 -1.06066 1.06066 
C -0.77937 1.341951 -0.397805 1.5 0 1.5 
z
" id="ma83e0f890e" style="stroke:#000080;"/>
    </defs>
    <g>
     <use style="fill:#000080;stroke:#000080;" x="202.260356" xlink:href="#ma83e0f890e" y="9.697057"/>
     <use style="fill:#000080;stroke:#000080;" x="202.260356" xlink:href="#ma83e0f890e" y="9.697057"/>
    </g>
   </g>
   <g id="line2d_24">
    <path d="M 40.355341 294.88 
L 40.355341 276.426986 
L 106.958836 276.426986 
L 106.958836 275.867804 
L 108.985277 275.867804 
L 108.985277 274.749439 
L 110.797991 274.749439 
L 110.797991 274.190257 
L 111.082375 274.190257 
L 111.082375 273.631075 
L 111.362135 273.631075 
L 111.362135 273.071893 
L 112.437789 273.071893 
L 112.437789 271.953528 
L 112.696514 271.953528 
L 112.696514 270.835164 
L 112.951406 270.835164 
L 112.951406 270.275981 
L 113.202576 270.275981 
L 113.202576 268.598435 
L 113.694177 268.598435 
L 113.694177 267.48007 
L 113.934809 267.48007 
L 113.934809 265.802523 
L 114.406204 265.802523 
L 114.406204 261.888248 
L 114.637146 261.888248 
L 114.637146 260.769883 
L 115.089931 260.769883 
L 115.089931 260.210701 
L 125.860313 260.210701 
L 125.860313 259.092337 
L 125.979378 259.092337 
L 125.979378 258.533154 
L 126.447567 258.533154 
L 126.447567 257.973972 
L 127.347373 257.973972 
L 127.347373 257.41479 
L 128.306406 257.41479 
L 128.306406 256.855608 
L 128.816974 256.855608 
L 128.816974 256.296425 
L 129.214792 256.296425 
L 129.214792 255.737243 
L 130.809845 255.737243 
L 130.809845 255.178061 
L 131.768338 255.178061 
L 131.768338 254.618879 
L 133.916767 254.618879 
L 133.916767 253.500514 
L 135.959823 253.500514 
L 135.959823 252.941332 
L 136.802415 252.941332 
L 136.802415 252.38215 
L 137.239585 252.38215 
L 137.239585 251.822967 
L 137.845453 251.822967 
L 137.845453 251.263785 
L 138.02313 251.263785 
L 138.02313 250.704603 
L 138.430709 250.704603 
L 138.430709 250.145421 
L 138.545409 250.145421 
L 138.545409 249.586238 
L 141.335808 249.586238 
L 141.335808 249.027056 
L 141.909357 249.027056 
L 141.909357 248.467874 
L 144.480724 248.467874 
L 144.480724 247.908692 
L 145.502318 247.908692 
L 145.502318 247.34951 
L 145.954113 247.34951 
L 145.954113 246.790327 
L 146.102113 246.790327 
L 146.212283 245.671963 
L 146.430529 245.671963 
L 146.430529 245.112781 
L 146.894108 245.112781 
L 146.894108 243.994416 
L 147.276841 243.994416 
L 147.276841 243.435234 
L 147.516038 243.435234 
L 147.516038 241.757687 
L 148.311781 241.757687 
L 148.311781 241.198505 
L 148.947893 241.198505 
L 148.947893 240.08014 
L 149.287982 240.08014 
L 149.379579 238.961776 
L 149.410003 238.961776 
L 149.410003 237.843411 
L 149.681426 237.843411 
L 149.681426 237.284229 
L 149.860025 237.284229 
L 149.860025 236.165865 
L 150.007454 236.165865 
L 150.007454 235.606682 
L 150.182718 235.606682 
L 150.211755 233.929136 
L 150.298576 233.929136 
L 150.298576 232.810771 
L 151.170963 232.810771 
L 151.170963 232.251589 
L 151.657926 232.251589 
L 151.657926 231.692407 
L 154.206873 231.692407 
L 154.206873 230.01486 
L 155.341671 230.01486 
L 155.341671 229.455678 
L 155.788023 229.455678 
L 155.788023 228.337313 
L 156.099903 228.337313 
L 156.099903 227.778131 
L 156.243534 227.778131 
L 156.243534 226.659767 
L 156.406229 226.659767 
L 156.466845 223.863855 
L 156.547336 223.863855 
L 156.5674 219.390397 
L 156.74693 219.390397 
L 156.74693 218.272033 
L 156.904956 218.272033 
L 156.983427 217.153669 
L 157.197397 217.153669 
L 157.293783 213.798575 
L 157.341774 213.798575 
L 157.427822 212.121028 
L 157.465928 212.121028 
L 157.50395 209.325117 
L 157.579743 209.325117 
L 157.674016 205.410841 
L 157.749065 205.410841 
L 157.842417 200.378201 
L 157.861027 200.378201 
L 157.963024 198.141472 
L 157.990736 198.141472 
L 158.08279 194.227197 
L 158.119474 194.227197 
L 158.22906 189.194556 
L 158.247257 189.194556 
L 158.283592 186.957828 
L 158.374097 186.957828 
L 158.482077 182.48437 
L 158.500008 182.48437 
L 158.589384 179.129276 
L 158.625005 179.129276 
L 158.713736 174.655818 
L 158.802012 174.655818 
L 158.872307 171.300725 
L 158.924841 171.300725 
L 159.029431 165.708902 
L 159.0468 165.708902 
L 159.150653 159.557898 
L 159.185132 159.557898 
L 159.185132 158.439533 
L 160.131659 158.439533 
L 160.131659 157.880351 
L 160.310033 157.880351 
L 160.310033 157.321169 
L 160.732309 157.321169 
L 160.732309 156.761987 
L 160.951283 156.761987 
L 160.951283 156.202804 
L 161.837274 156.202804 
L 161.874139 155.08444 
L 162.093685 155.08444 
L 162.093685 154.525258 
L 162.260126 154.525258 
L 162.260126 153.966075 
L 162.581189 153.966075 
L 162.630597 152.288529 
L 162.707954 152.288529 
L 162.743002 150.610982 
L 162.889427 150.610982 
L 162.979451 149.492617 
L 163.144421 149.492617 
L 163.192241 148.374253 
L 163.294266 148.374253 
L 163.402431 147.255888 
L 163.462976 147.255888 
L 163.556736 145.578342 
L 163.616741 145.578342 
L 163.722903 143.900795 
L 163.736128 143.900795 
L 163.782333 141.664066 
L 163.894032 141.664066 
L 164.00501 139.427337 
L 164.024521 139.427337 
L 164.024521 138.868155 
L 164.14112 138.868155 
L 164.173369 137.74979 
L 164.263347 137.74979 
L 164.263347 137.190608 
L 164.378344 137.190608 
L 164.467258 136.072244 
L 164.580906 136.072244 
L 164.631176 134.953879 
L 164.693807 134.953879 
L 164.78111 131.039603 
L 164.935915 131.039603 
L 165.046518 129.362057 
L 165.11376 129.362057 
L 165.223229 126.566145 
L 165.229291 126.566145 
L 165.30186 125.447781 
L 165.368113 125.447781 
L 165.368113 124.888599 
L 165.487925 124.888599 
L 165.547519 122.65187 
L 165.677905 122.65187 
L 165.772114 119.296776 
L 165.795585 119.296776 
L 165.865809 117.61923 
L 165.924111 117.61923 
L 166.016985 115.382501 
L 166.040126 115.382501 
L 166.149619 111.468225 
L 166.269834 111.468225 
L 166.269834 110.909043 
L 166.636689 110.909043 
L 166.636689 110.349861 
L 166.77573 110.349861 
L 166.77573 109.790678 
L 167.03958 109.790678 
L 167.110348 107.553949 
L 167.385201 107.553949 
L 167.491799 105.876403 
L 167.989311 105.876403 
L 167.989311 105.31722 
L 168.209856 105.31722 
L 168.209856 104.758038 
L 168.597858 104.758038 
L 168.657545 103.080491 
L 168.781233 103.080491 
L 168.840289 101.962127 
L 168.899142 101.962127 
L 168.938266 100.843762 
L 169.035689 100.843762 
L 169.035689 100.28458 
L 169.16152 100.28458 
L 169.233698 98.047851 
L 169.28165 98.047851 
L 169.377153 94.692758 
L 169.405701 94.692758 
L 169.514698 93.015211 
L 169.60892 93.015211 
L 169.60892 92.456029 
L 169.860771 92.456029 
L 169.962329 91.337664 
L 170.02206 91.337664 
L 170.063292 90.2193 
L 170.163665 90.2193 
L 170.163665 89.660118 
L 170.429993 89.660118 
L 170.429993 89.100935 
L 170.630388 89.100935 
L 170.652511 87.982571 
L 170.753911 87.982571 
L 170.850346 85.18666 
L 170.894002 85.18666 
L 170.959279 83.509113 
L 171.011323 83.509113 
L 171.119245 81.831566 
L 172.049011 81.831566 
L 172.073456 80.713202 
L 172.360109 80.713202 
L 172.376118 79.594837 
L 172.927224 79.594837 
L 172.954322 78.476473 
L 173.261012 78.476473 
L 173.26861 77.358108 
L 173.461224 77.358108 
L 173.558597 75.680562 
L 173.573528 75.680562 
L 173.573528 75.121379 
L 174.160406 75.121379 
L 174.160406 74.562197 
L 174.275417 74.562197 
L 174.275417 74.003015 
L 174.467772 74.003015 
L 174.556102 72.325468 
L 174.672007 72.325468 
L 174.745361 69.529557 
L 174.860002 69.529557 
L 174.925663 67.85201 
L 175.172234 67.85201 
L 175.172234 67.292828 
L 175.535589 67.292828 
L 175.578813 66.174463 
L 176.050478 66.174463 
L 176.105316 64.496917 
L 176.421245 64.496917 
L 176.528421 62.81937 
L 176.625562 62.81937 
L 176.656781 61.701006 
L 176.7749 61.701006 
L 176.818214 60.023459 
L 176.89529 60.023459 
L 176.993446 58.345912 
L 177.051462 58.345912 
L 177.145702 56.109183 
L 177.245459 56.109183 
L 177.266545 54.990819 
L 178.05213 54.990819 
L 178.161077 53.872454 
L 178.292043 53.872454 
L 178.292043 53.313272 
L 178.486641 53.313272 
L 178.564985 52.194907 
L 178.742729 52.194907 
L 178.742729 51.635725 
L 178.880324 51.635725 
L 178.880324 51.076543 
L 179.27324 51.076543 
L 179.27324 50.517361 
L 179.457108 50.517361 
L 179.557536 49.398996 
L 179.607531 49.398996 
L 179.652141 48.280632 
L 179.798277 48.280632 
L 179.907071 46.043903 
L 180.183707 46.043903 
L 180.183707 45.484721 
L 180.550745 45.484721 
L 180.550745 44.925538 
L 180.773161 44.925538 
L 180.84422 43.807174 
L 181.132773 43.807174 
L 181.132773 43.247992 
L 181.250196 43.247992 
L 181.352585 42.129627 
L 181.364451 42.129627 
L 181.364451 41.570445 
L 181.607093 41.570445 
L 181.637475 40.45208 
L 182.016229 40.45208 
L 182.016229 39.892898 
L 182.143673 39.892898 
L 182.143673 39.333716 
L 182.491575 39.333716 
L 182.491575 38.774534 
L 182.828224 38.774534 
L 182.828224 38.215351 
L 182.982237 38.215351 
L 182.982237 37.656169 
L 183.147722 37.656169 
L 183.147722 37.096987 
L 183.440379 37.096987 
L 183.471892 35.978622 
L 183.634834 35.978622 
L 183.715729 34.860258 
L 184.037593 34.860258 
L 184.1146 33.741894 
L 184.209371 33.741894 
L 184.209371 33.182711 
L 184.604948 33.182711 
L 184.640284 32.064347 
L 185.235841 32.064347 
L 185.309564 30.945982 
L 185.431738 30.945982 
L 185.541889 29.268436 
L 185.844416 29.268436 
L 185.844416 28.709253 
L 186.209875 28.709253 
L 186.209875 28.150071 
L 186.778581 28.150071 
L 186.778581 27.590889 
L 187.085834 27.590889 
L 187.085834 27.031707 
L 187.273645 27.031707 
L 187.273645 26.472524 
L 187.771218 26.472524 
L 187.771218 25.913342 
L 187.975982 25.913342 
L 187.975982 25.35416 
L 188.288151 25.35416 
L 188.297667 24.235795 
L 189.471251 24.235795 
L 189.471251 23.676613 
L 189.89258 23.676613 
L 189.89258 23.117431 
L 190.096581 23.117431 
L 190.096581 22.558249 
L 191.393211 22.558249 
L 191.393211 21.999066 
L 191.696476 21.999066 
L 191.696476 21.439884 
L 192.530884 21.439884 
L 192.640867 20.32152 
L 192.746479 20.32152 
L 192.746479 19.762337 
L 192.953358 19.762337 
L 192.953358 19.203155 
L 193.622422 19.203155 
L 193.622422 18.643973 
L 194.20131 18.643973 
L 194.20131 18.084791 
L 194.375924 18.084791 
L 194.375924 17.525609 
L 194.698076 17.525609 
L 194.698076 16.966426 
L 196.175045 16.966426 
L 196.248115 15.848062 
L 196.309931 15.848062 
L 196.373509 14.729697 
L 198.486222 14.729697 
L 198.486222 14.170515 
L 198.75251 14.170515 
L 198.75251 13.611333 
L 199.047028 13.611333 
L 199.047028 13.052151 
L 199.724492 13.052151 
L 199.724492 12.492968 
L 200.687753 12.492968 
L 200.687753 11.933786 
L 201.513359 11.933786 
L 201.513359 11.374604 
L 201.83614 11.374604 
L 201.918951 10.256239 
L 202.260356 10.256239 
L 202.260356 9.697057 
L 333.429677 9.697057 
L 333.429677 9.697057 
" style="fill:none;stroke:#000080;stroke-linecap:square;stroke-width:1.5;"/>
   </g>
   <g id="line2d_25">
    <defs>
     <path d="M 0 6 
C 1.591219 6 3.117479 5.367802 4.242641 4.242641 
C 5.367802 3.117479 6 1.591219 6 0 
C 6 -1.591219 5.367802 -3.117479 4.242641 -4.242641 
C 3.117479 -5.367802 1.591219 -6 0 -6 
C -1.591219 -6 -3.117479 -5.367802 -4.242641 -4.242641 
C -5.367802 -3.117479 -6 -1.591219 -6 0 
C -6 1.591219 -5.367802 3.117479 -4.242641 4.242641 
C -3.117479 5.367802 -1.591219 6 0 6 
z
" id="mbb7545e78c" style="stroke:#000080;stroke-width:1.5;"/>
    </defs>
    <g>
     <use style="fill-opacity:0;stroke:#000080;stroke-width:1.5;" x="115.089931" xlink:href="#mbb7545e78c" y="260.210701"/>
     <use style="fill-opacity:0;stroke:#000080;stroke-width:1.5;" x="157.953776" xlink:href="#mbb7545e78c" y="198.700655"/>
     <use style="fill-opacity:0;stroke:#000080;stroke-width:1.5;" x="176.818214" xlink:href="#mbb7545e78c" y="60.582641"/>
     <use style="fill-opacity:0;stroke:#000080;stroke-width:1.5;" x="202.260356" xlink:href="#mbb7545e78c" y="10.256239"/>
     <use style="fill-opacity:0;stroke:#000080;stroke-width:1.5;" x="202.260356" xlink:href="#mbb7545e78c" y="9.697057"/>
     <use style="fill-opacity:0;stroke:#000080;stroke-width:1.5;" x="333.429677" xlink:href="#mbb7545e78c" y="9.697057"/>
    </g>
   </g>
   <g id="line2d_26">
    <path style="fill:none;stroke:#000080;stroke-linecap:square;stroke-width:1.5;"/>
    <g/>
   </g>
   <g id="line2d_27">
    <path clip-path="url(#p61f11b2ef8)" d="M 147.276841 243.435234 
" style="fill:none;stroke:#000080;stroke-linecap:square;stroke-width:1.5;"/>
    <defs>
     <path d="M -12 12 
L 12 -12 
M -12 -12 
L 12 12 
" id="ma65e66054e" style="stroke:#000080;stroke-width:3;"/>
    </defs>
    <g clip-path="url(#p61f11b2ef8)">
     <use style="fill:#000080;stroke:#000080;stroke-width:3;" x="147.276841" xlink:href="#ma65e66054e" y="243.435234"/>
    </g>
   </g>
   <g id="line2d_28">
    <defs>
     <path d="M 0 1.5 
C 0.397805 1.5 0.77937 1.341951 1.06066 1.06066 
C 1.341951 0.77937 1.5 0.397805 1.5 0 
C 1.5 -0.397805 1.341951 -0.77937 1.06066 -1.06066 
C 0.77937 -1.341951 0.397805 -1.5 0 -1.5 
C -0.397805 -1.5 -0.77937 -1.341951 -1.06066 -1.06066 
C -1.341951 -0.77937 -1.5 -0.397805 -1.5 0 
C -1.5 0.397805 -1.341951 0.77937 -1.06066 1.06066 
C -0.77937 1.341951 -0.397805 1.5 0 1.5 
z
" id="m17a2add6dc" style="stroke:#ff00ff;"/>
    </defs>
    <g>
     <use style="fill:#ff00ff;stroke:#ff00ff;" x="202.542547" xlink:href="#m17a2add6dc" y="266.920888"/>
     <use style="fill:#ff00ff;stroke:#ff00ff;" x="202.542547" xlink:href="#m17a2add6dc" y="266.920888"/>
    </g>
   </g>
   <g id="line2d_29">
    <path d="M 140.18001 294.88 
L 140.18001 294.320818 
L 149.041313 294.320818 
L 149.041313 293.761636 
L 150.153631 293.761636 
L 150.153631 293.202453 
L 150.669815 293.202453 
L 150.669815 292.643271 
L 153.716938 292.643271 
L 153.716938 292.084089 
L 157.636369 292.084089 
L 157.636369 291.524907 
L 157.879617 291.524907 
L 157.879617 289.84736 
L 161.228787 289.84736 
L 161.228787 289.288178 
L 161.418898 289.288178 
L 161.418898 288.728995 
L 162.32482 288.728995 
L 162.32482 287.610631 
L 163.907125 287.610631 
L 163.907125 287.051449 
L 164.211989 287.051449 
L 164.211989 286.492266 
L 164.89271 286.492266 
L 164.89271 285.933084 
L 164.935915 285.933084 
L 164.935915 285.373902 
L 169.28165 285.373902 
L 169.28165 284.81472 
L 169.362861 284.81472 
L 169.362861 284.255537 
L 169.911625 284.255537 
L 169.911625 283.696355 
L 170.470259 283.696355 
L 170.470259 283.137173 
L 171.097715 283.137173 
L 171.097715 282.577991 
L 171.256405 282.577991 
L 171.256405 282.018808 
L 171.777804 282.018808 
L 171.777804 281.459626 
L 171.798501 281.459626 
L 171.798501 280.900444 
L 175.304332 280.900444 
L 175.304332 280.341262 
L 177.951171 280.341262 
L 177.951171 279.782079 
L 178.551021 279.782079 
L 178.551021 279.222897 
L 178.759299 279.222897 
L 178.759299 278.663715 
L 179.044 278.663715 
L 179.044 278.104533 
L 179.599647 278.104533 
L 179.599647 277.545351 
L 179.767067 277.545351 
L 179.767067 276.986168 
L 181.281215 276.986168 
L 181.281215 276.426986 
L 181.578999 276.426986 
L 181.578999 275.867804 
L 181.593052 275.867804 
L 181.593052 275.308622 
L 182.882612 275.308622 
L 182.882612 274.749439 
L 183.04475 274.749439 
L 183.04475 274.190257 
L 183.429862 274.190257 
L 183.429862 273.631075 
L 183.913252 273.631075 
L 183.913252 273.071893 
L 185.010838 273.071893 
L 185.010838 272.51271 
L 185.489702 272.51271 
L 185.489702 271.953528 
L 185.901008 271.953528 
L 185.901008 271.394346 
L 186.766453 271.394346 
L 186.766453 270.835164 
L 187.087535 270.835164 
L 187.087535 270.275981 
L 187.337473 270.275981 
L 187.337473 269.716799 
L 192.157422 269.716799 
L 192.157422 269.157617 
L 195.949891 269.157617 
L 195.949891 268.598435 
L 197.191629 268.598435 
L 197.191629 268.039252 
L 201.645243 268.039252 
L 201.645243 267.48007 
L 202.542547 267.48007 
L 202.542547 266.920888 
L 333.429677 266.920888 
" style="fill:none;stroke:#ff00ff;stroke-linecap:square;stroke-width:1.5;"/>
   </g>
   <g id="line2d_30">
    <defs>
     <path d="M -0 8.485281 
L 5.091169 0 
L 0 -8.485281 
L -5.091169 -0 
z
" id="m419f411383" style="stroke:#ff00ff;stroke-linejoin:miter;stroke-width:1.5;"/>
    </defs>
    <g>
     <use style="fill-opacity:0;stroke:#ff00ff;stroke-linejoin:miter;stroke-width:1.5;" x="202.542547" xlink:href="#m419f411383" y="267.48007"/>
     <use style="fill-opacity:0;stroke:#ff00ff;stroke-linejoin:miter;stroke-width:1.5;" x="202.542547" xlink:href="#m419f411383" y="267.48007"/>
     <use style="fill-opacity:0;stroke:#ff00ff;stroke-linejoin:miter;stroke-width:1.5;" x="202.542547" xlink:href="#m419f411383" y="266.920888"/>
     <use style="fill-opacity:0;stroke:#ff00ff;stroke-linejoin:miter;stroke-width:1.5;" x="202.542547" xlink:href="#m419f411383" y="266.920888"/>
     <use style="fill-opacity:0;stroke:#ff00ff;stroke-linejoin:miter;stroke-width:1.5;" x="333.429677" xlink:href="#m419f411383" y="266.920888"/>
    </g>
   </g>
   <g id="line2d_31">
    <path style="fill:none;stroke:#ff00ff;stroke-linecap:square;stroke-width:1.5;"/>
    <g/>
   </g>
   <g id="line2d_32">
    <path clip-path="url(#p61f11b2ef8)" d="M 140.717306 294.320818 
" style="fill:none;stroke:#ff00ff;stroke-linecap:square;stroke-width:1.5;"/>
    <defs>
     <path d="M -12 12 
L 12 -12 
M -12 -12 
L 12 12 
" id="mb3cf25876a" style="stroke:#ff00ff;stroke-width:3;"/>
    </defs>
    <g clip-path="url(#p61f11b2ef8)">
     <use style="fill:#ff00ff;stroke:#ff00ff;stroke-width:3;" x="140.717306" xlink:href="#mb3cf25876a" y="294.320818"/>
    </g>
   </g>
   <g id="line2d_33">
    <defs>
     <path d="M 0 1.5 
C 0.397805 1.5 0.77937 1.341951 1.06066 1.06066 
C 1.341951 0.77937 1.5 0.397805 1.5 0 
C 1.5 -0.397805 1.341951 -0.77937 1.06066 -1.06066 
C 0.77937 -1.341951 0.397805 -1.5 0 -1.5 
C -0.397805 -1.5 -0.77937 -1.341951 -1.06066 -1.06066 
C -1.341951 -0.77937 -1.5 -0.397805 -1.5 0 
C -1.5 0.397805 -1.341951 0.77937 -1.06066 1.06066 
C -0.77937 1.341951 -0.397805 1.5 0 1.5 
z
" id="m17fe38b9ae" style="stroke:#ffa500;"/>
    </defs>
    <g>
     <use style="fill:#ffa500;stroke:#ffa500;" x="178.581727" xlink:href="#m17fe38b9ae" y="283.696355"/>
     <use style="fill:#ffa500;stroke:#ffa500;" x="178.581727" xlink:href="#m17fe38b9ae" y="283.696355"/>
    </g>
   </g>
   <g id="line2d_34">
    <path d="M 40.355341 294.88 
L 40.355341 294.320818 
L 120.095232 294.320818 
L 120.095232 293.202453 
L 120.261464 293.202453 
L 120.261464 292.643271 
L 137.904883 292.643271 
L 137.904883 292.084089 
L 138.488154 292.084089 
L 138.488154 291.524907 
L 140.412338 291.524907 
L 140.412338 290.965724 
L 142.555192 290.965724 
L 142.555192 290.406542 
L 151.604495 290.406542 
L 151.604495 289.84736 
L 155.756522 289.84736 
L 155.756522 289.288178 
L 161.644292 289.288178 
L 161.644292 288.728995 
L 162.453482 288.728995 
L 162.453482 288.169813 
L 163.80868 288.169813 
L 163.80868 287.610631 
L 165.475981 287.610631 
L 165.475981 287.051449 
L 165.777985 287.051449 
L 165.777985 286.492266 
L 170.643665 286.492266 
L 170.643665 285.933084 
L 174.891136 285.933084 
L 174.891136 285.373902 
L 177.837971 285.373902 
L 177.837971 284.81472 
L 178.0435 284.81472 
L 178.0435 284.255537 
L 178.581727 284.255537 
L 178.581727 283.696355 
L 333.429677 283.696355 
" style="fill:none;stroke:#ffa500;stroke-linecap:square;stroke-width:1.5;"/>
   </g>
   <g id="line2d_35">
    <defs>
     <path d="M 0 -6 
L -1.347084 -1.854102 
L -5.706339 -1.854102 
L -2.179628 0.708204 
L -3.526712 4.854102 
L -0 2.291796 
L 3.526712 4.854102 
L 2.179628 0.708204 
L 5.706339 -1.854102 
L 1.347084 -1.854102 
z
" id="md544d3eca4" style="stroke:#ffa500;stroke-linejoin:bevel;stroke-width:1.5;"/>
    </defs>
    <g>
     <use style="fill-opacity:0;stroke:#ffa500;stroke-linejoin:bevel;stroke-width:1.5;" x="170.643665" xlink:href="#md544d3eca4" y="285.933084"/>
     <use style="fill-opacity:0;stroke:#ffa500;stroke-linejoin:bevel;stroke-width:1.5;" x="178.581727" xlink:href="#md544d3eca4" y="284.255537"/>
     <use style="fill-opacity:0;stroke:#ffa500;stroke-linejoin:bevel;stroke-width:1.5;" x="178.581727" xlink:href="#md544d3eca4" y="283.696355"/>
     <use style="fill-opacity:0;stroke:#ffa500;stroke-linejoin:bevel;stroke-width:1.5;" x="178.581727" xlink:href="#md544d3eca4" y="283.696355"/>
     <use style="fill-opacity:0;stroke:#ffa500;stroke-linejoin:bevel;stroke-width:1.5;" x="333.429677" xlink:href="#md544d3eca4" y="283.696355"/>
    </g>
   </g>
   <g id="line2d_36">
    <path style="fill:none;stroke:#ffa500;stroke-linecap:square;stroke-width:1.5;"/>
    <g/>
   </g>
   <g id="line2d_37">
    <path clip-path="url(#p61f11b2ef8)" d="M 138.430709 292.084089 
" style="fill:none;stroke:#ffa500;stroke-linecap:square;stroke-width:1.5;"/>
    <defs>
     <path d="M -12 12 
L 12 -12 
M -12 -12 
L 12 12 
" id="m695de02f20" style="stroke:#ffa500;stroke-width:3;"/>
    </defs>
    <g clip-path="url(#p61f11b2ef8)">
     <use style="fill:#ffa500;stroke:#ffa500;stroke-width:3;" x="138.430709" xlink:href="#m695de02f20" y="292.084089"/>
    </g>
   </g>
   <g id="line2d_38">
    <defs>
     <path d="M 0 1.5 
C 0.397805 1.5 0.77937 1.341951 1.06066 1.06066 
C 1.341951 0.77937 1.5 0.397805 1.5 0 
C 1.5 -0.397805 1.341951 -0.77937 1.06066 -1.06066 
C 0.77937 -1.341951 0.397805 -1.5 0 -1.5 
C -0.397805 -1.5 -0.77937 -1.341951 -1.06066 -1.06066 
C -1.341951 -0.77937 -1.5 -0.397805 -1.5 0 
C -1.5 0.397805 -1.341951 0.77937 -1.06066 1.06066 
C -0.77937 1.341951 -0.397805 1.5 0 1.5 
z
" id="ma8f11a88d1" style="stroke:#6495ed;"/>
    </defs>
    <g>
     <use style="fill:#6495ed;stroke:#6495ed;" x="200.917706" xlink:href="#ma8f11a88d1" y="283.696355"/>
     <use style="fill:#6495ed;stroke:#6495ed;" x="200.917706" xlink:href="#ma8f11a88d1" y="283.696355"/>
    </g>
   </g>
   <g id="line2d_39">
    <path d="M 40.355341 294.88 
L 40.355341 293.202453 
L 119.586677 293.202453 
L 119.586677 292.084089 
L 120.095232 292.084089 
L 120.095232 291.524907 
L 120.261464 291.524907 
L 120.261464 290.965724 
L 139.490663 290.965724 
L 139.490663 290.406542 
L 150.584853 290.406542 
L 150.584853 289.84736 
L 154.861301 289.84736 
L 154.861301 289.288178 
L 161.411333 289.288178 
L 161.411333 288.728995 
L 164.237687 288.728995 
L 164.237687 288.169813 
L 173.046904 288.169813 
L 173.046904 287.610631 
L 176.484371 287.610631 
L 176.484371 287.051449 
L 178.601238 287.051449 
L 178.601238 286.492266 
L 179.005948 286.492266 
L 179.005948 285.933084 
L 189.011987 285.933084 
L 189.011987 285.373902 
L 191.313559 285.373902 
L 191.313559 284.81472 
L 200.636748 284.81472 
L 200.636748 284.255537 
L 200.917706 284.255537 
L 200.917706 283.696355 
L 333.429677 283.696355 
" style="fill:none;stroke:#6495ed;stroke-linecap:square;stroke-width:1.5;"/>
   </g>
   <g id="line2d_40">
    <defs>
     <path d="M -0 6 
L 6 -6 
L -6 -6 
z
" id="m868900ec9b" style="stroke:#6495ed;stroke-linejoin:miter;stroke-width:1.5;"/>
    </defs>
    <g>
     <use style="fill-opacity:0;stroke:#6495ed;stroke-linejoin:miter;stroke-width:1.5;" x="120.261464" xlink:href="#m868900ec9b" y="290.965724"/>
     <use style="fill-opacity:0;stroke:#6495ed;stroke-linejoin:miter;stroke-width:1.5;" x="191.313559" xlink:href="#m868900ec9b" y="284.81472"/>
     <use style="fill-opacity:0;stroke:#6495ed;stroke-linejoin:miter;stroke-width:1.5;" x="200.917706" xlink:href="#m868900ec9b" y="283.696355"/>
     <use style="fill-opacity:0;stroke:#6495ed;stroke-linejoin:miter;stroke-width:1.5;" x="200.917706" xlink:href="#m868900ec9b" y="283.696355"/>
     <use style="fill-opacity:0;stroke:#6495ed;stroke-linejoin:miter;stroke-width:1.5;" x="333.429677" xlink:href="#m868900ec9b" y="283.696355"/>
    </g>
   </g>
   <g id="line2d_41">
    <path style="fill:none;stroke:#6495ed;stroke-linecap:square;stroke-width:1.5;"/>
    <g/>
   </g>
   <g id="line2d_42">
    <path clip-path="url(#p61f11b2ef8)" d="M 137.362478 290.965724 
" style="fill:none;stroke:#6495ed;stroke-linecap:square;stroke-width:1.5;"/>
    <defs>
     <path d="M -12 12 
L 12 -12 
M -12 -12 
L 12 12 
" id="mca0305dc5d" style="stroke:#6495ed;stroke-width:3;"/>
    </defs>
    <g clip-path="url(#p61f11b2ef8)">
     <use style="fill:#6495ed;stroke:#6495ed;stroke-width:3;" x="137.362478" xlink:href="#mca0305dc5d" y="290.965724"/>
    </g>
   </g>
   <g id="line2d_43">
    <defs>
     <path d="M 0 1.5 
C 0.397805 1.5 0.77937 1.341951 1.06066 1.06066 
C 1.341951 0.77937 1.5 0.397805 1.5 0 
C 1.5 -0.397805 1.341951 -0.77937 1.06066 -1.06066 
C 0.77937 -1.341951 0.397805 -1.5 0 -1.5 
C -0.397805 -1.5 -0.77937 -1.341951 -1.06066 -1.06066 
C -1.341951 -0.77937 -1.5 -0.397805 -1.5 0 
C -1.5 0.397805 -1.341951 0.77937 -1.06066 1.06066 
C -0.77937 1.341951 -0.397805 1.5 0 1.5 
z
" id="m18b03cbf66" style="stroke:#ff0000;"/>
    </defs>
    <g>
     <use style="fill:#ff0000;stroke:#ff0000;" x="174.549052" xlink:href="#m18b03cbf66" y="9.697057"/>
     <use style="fill:#ff0000;stroke:#ff0000;" x="174.549052" xlink:href="#m18b03cbf66" y="9.697057"/>
    </g>
   </g>
   <g id="line2d_44">
    <path d="M 111.637419 294.88 
L 111.637419 292.084089 
L 111.908367 292.084089 
L 111.908367 289.288178 
L 114.637146 289.288178 
L 114.637146 288.169813 
L 114.865028 288.169813 
L 114.865028 286.492266 
L 115.089931 286.492266 
L 115.089931 284.81472 
L 115.311933 284.81472 
L 115.311933 283.137173 
L 115.531106 283.137173 
L 115.531106 281.459626 
L 115.747522 281.459626 
L 115.747522 279.222897 
L 115.96125 279.222897 
L 115.96125 278.663715 
L 116.172355 278.663715 
L 116.172355 278.104533 
L 116.380902 278.104533 
L 116.380902 276.986168 
L 116.58695 276.986168 
L 116.58695 276.426986 
L 116.790561 276.426986 
L 116.790561 273.631075 
L 116.991789 273.631075 
L 116.991789 273.071893 
L 117.190692 273.071893 
L 117.190692 271.394346 
L 117.387321 271.394346 
L 117.387321 269.716799 
L 117.581728 269.716799 
L 117.581728 269.157617 
L 118.338108 269.157617 
L 118.338108 268.039252 
L 118.704183 268.039252 
L 118.704183 267.48007 
L 119.239092 267.48007 
L 119.239092 261.888248 
L 119.586677 261.888248 
L 119.586677 236.725047 
L 120.095232 236.725047 
L 120.095232 235.606682 
L 120.261464 235.606682 
L 120.261464 233.929136 
L 120.426105 233.929136 
L 120.426105 218.831215 
L 120.589186 218.831215 
L 120.589186 218.272033 
L 120.750735 218.272033 
L 120.750735 180.806823 
L 129.603619 180.806823 
L 129.603619 180.247641 
L 130.355864 180.247641 
L 130.447623 179.129276 
L 130.809845 179.129276 
L 130.809845 178.010912 
L 130.988135 178.010912 
L 130.988135 163.472173 
L 133.15198 163.472173 
L 133.15198 162.912991 
L 134.139727 162.912991 
L 134.139727 160.676262 
L 134.505025 160.676262 
L 134.577163 158.998715 
L 134.648999 158.998715 
L 134.648999 158.439533 
L 135.282379 158.439533 
L 135.282379 157.880351 
L 136.026124 157.880351 
L 136.026124 157.321169 
L 138.19899 157.321169 
L 138.19899 156.761987 
L 139.705727 156.761987 
L 139.812259 155.643622 
L 139.97083 155.643622 
L 140.023364 153.406893 
L 140.101866 153.406893 
L 140.18001 147.255888 
L 140.386678 147.255888 
L 140.463543 118.737594 
L 140.89274 118.737594 
L 140.89274 118.178412 
L 141.384341 118.178412 
L 141.384341 101.962127 
L 143.15581 101.962127 
L 143.15581 98.607033 
L 143.373046 98.607033 
L 143.459179 94.692758 
L 144.419894 94.692758 
L 144.419894 94.133576 
L 145.310511 94.133576 
L 145.310511 90.2193 
L 145.578446 90.2193 
L 145.578446 87.423389 
L 145.954113 87.423389 
L 145.954113 86.864206 
L 146.175638 86.864206 
L 146.175638 84.068295 
L 146.303556 84.068295 
L 146.303556 83.509113 
L 146.628185 83.509113 
L 146.628185 82.949931 
L 146.858888 82.949931 
L 146.858888 81.272384 
L 148.537105 81.272384 
L 148.600945 80.15402 
L 148.91664 80.15402 
L 148.947893 77.917291 
L 149.072341 77.917291 
L 149.149666 72.88465 
L 149.195895 72.88465 
L 149.195895 72.325468 
L 149.394798 72.325468 
L 149.394798 68.411192 
L 149.904387 68.411192 
L 150.007454 65.615281 
L 150.38496 65.615281 
L 150.413659 62.260188 
L 150.499469 62.260188 
L 150.556439 61.141823 
L 150.61322 61.141823 
L 150.61322 57.78673 
L 151.239427 57.78673 
L 151.239427 56.668365 
L 151.577717 56.668365 
L 151.577717 56.109183 
L 151.751033 56.109183 
L 151.751033 54.990819 
L 151.870007 54.990819 
L 151.870007 54.431636 
L 152.066487 54.431636 
L 152.170365 53.313272 
L 152.389047 53.313272 
L 152.389047 52.75409 
L 152.541754 52.75409 
L 152.630211 49.958178 
L 152.768303 49.958178 
L 152.768303 48.839814 
L 152.917695 48.839814 
L 152.917695 47.162267 
L 153.028893 47.162267 
L 153.090361 44.925538 
L 154.12618 44.925538 
L 154.12618 44.366356 
L 154.389905 44.366356 
L 154.389905 43.247992 
L 154.503319 43.247992 
L 154.503319 42.688809 
L 154.927601 42.688809 
L 155.026574 41.011263 
L 155.05944 41.011263 
L 155.05944 40.45208 
L 155.470386 40.45208 
L 155.470386 39.892898 
L 155.94467 39.892898 
L 155.986202 38.215351 
L 156.068968 38.215351 
L 156.130782 35.978622 
L 156.274157 35.978622 
L 156.274157 35.41944 
L 156.507137 35.41944 
L 156.58744 33.741894 
L 157.061542 33.741894 
L 157.061542 33.182711 
L 157.312995 33.182711 
L 157.408738 31.505165 
L 157.446886 31.505165 
L 157.446886 30.945982 
L 157.608079 30.945982 
L 157.608079 30.3868 
L 157.767776 30.3868 
L 157.823787 28.709253 
L 158.091969 28.709253 
L 158.101142 27.590889 
L 158.994638 27.590889 
L 158.994638 27.031707 
L 159.202345 27.031707 
L 159.288155 25.35416 
L 159.390565 25.35416 
L 159.390565 24.794978 
L 159.877132 24.794978 
L 159.877132 24.235795 
L 160.041774 24.235795 
L 160.041774 23.676613 
L 160.293894 23.676613 
L 160.293894 23.117431 
L 160.518483 23.117431 
L 160.518483 22.558249 
L 160.97458 22.558249 
L 160.97458 21.999066 
L 161.343105 21.999066 
L 161.343105 21.439884 
L 161.584475 21.439884 
L 161.584475 20.880702 
L 162.159006 20.880702 
L 162.159006 20.32152 
L 162.353495 20.32152 
L 162.353495 19.203155 
L 163.027731 19.203155 
L 163.027731 18.643973 
L 163.260325 18.643973 
L 163.260325 18.084791 
L 163.489817 18.084791 
L 163.529999 16.966426 
L 164.429209 16.966426 
L 164.429209 16.407244 
L 164.562017 16.407244 
L 164.574612 15.28888 
L 166.258421 15.28888 
L 166.258421 14.729697 
L 166.552722 14.729697 
L 166.552722 14.170515 
L 166.995885 14.170515 
L 167.045034 13.052151 
L 167.12121 13.052151 
L 167.12121 12.492968 
L 167.744971 12.492968 
L 167.75544 11.374604 
L 168.194561 11.374604 
L 168.194561 10.815422 
L 169.200053 10.815422 
L 169.200053 10.256239 
L 174.549052 10.256239 
L 174.549052 9.697057 
L 333.429677 9.697057 
L 333.429677 9.697057 
" style="fill:none;stroke:#ff0000;stroke-linecap:square;stroke-width:1.5;"/>
   </g>
   <g id="line2d_45">
    <defs>
     <path d="M 0 -6 
L -5.196152 -3 
L -5.196152 3 
L -0 6 
L 5.196152 3 
L 5.196152 -3 
z
" id="m5ae4f2fb1d" style="stroke:#ff0000;stroke-linejoin:miter;stroke-width:1.5;"/>
    </defs>
    <g>
     <use style="fill-opacity:0;stroke:#ff0000;stroke-linejoin:miter;stroke-width:1.5;" x="120.750735" xlink:href="#m5ae4f2fb1d" y="218.272033"/>
     <use style="fill-opacity:0;stroke:#ff0000;stroke-linejoin:miter;stroke-width:1.5;" x="159.202345" xlink:href="#m5ae4f2fb1d" y="27.031707"/>
     <use style="fill-opacity:0;stroke:#ff0000;stroke-linejoin:miter;stroke-width:1.5;" x="174.549052" xlink:href="#m5ae4f2fb1d" y="10.256239"/>
     <use style="fill-opacity:0;stroke:#ff0000;stroke-linejoin:miter;stroke-width:1.5;" x="174.549052" xlink:href="#m5ae4f2fb1d" y="9.697057"/>
     <use style="fill-opacity:0;stroke:#ff0000;stroke-linejoin:miter;stroke-width:1.5;" x="333.429677" xlink:href="#m5ae4f2fb1d" y="9.697057"/>
    </g>
   </g>
   <g id="line2d_46">
    <path style="fill:none;stroke:#ff0000;stroke-linecap:square;stroke-width:1.5;"/>
    <g/>
   </g>
   <g id="line2d_47">
    <path clip-path="url(#p61f11b2ef8)" d="M 138.111285 157.321169 
" style="fill:none;stroke:#ff0000;stroke-linecap:square;stroke-width:1.5;"/>
    <defs>
     <path d="M -12 12 
L 12 -12 
M -12 -12 
L 12 12 
" id="mdd5d186869" style="stroke:#ff0000;stroke-width:3;"/>
    </defs>
    <g clip-path="url(#p61f11b2ef8)">
     <use style="fill:#ff0000;stroke:#ff0000;stroke-width:3;" x="138.111285" xlink:href="#mdd5d186869" y="157.321169"/>
    </g>
   </g>
   <g id="line2d_48">
    <path d="M 333.429677 283.696355 
L 363.933742 289.176341 
" style="fill:none;stroke:#6495ed;stroke-linecap:square;stroke-width:1.5;"/>
    <g>
     <use style="fill-opacity:0;stroke:#6495ed;stroke-linejoin:miter;stroke-width:1.5;" x="333.429677" xlink:href="#m868900ec9b" y="283.696355"/>
     <use style="fill-opacity:0;stroke:#6495ed;stroke-linejoin:miter;stroke-width:1.5;" x="363.933742" xlink:href="#m868900ec9b" y="289.176341"/>
    </g>
   </g>
   <g id="line2d_49">
    <path d="M 333.429677 283.696355 
L 363.933742 220.732435 
" style="fill:none;stroke:#ffa500;stroke-linecap:square;stroke-width:1.5;"/>
    <g>
     <use style="fill-opacity:0;stroke:#ffa500;stroke-linejoin:bevel;stroke-width:1.5;" x="333.429677" xlink:href="#md544d3eca4" y="283.696355"/>
     <use style="fill-opacity:0;stroke:#ffa500;stroke-linejoin:bevel;stroke-width:1.5;" x="363.933742" xlink:href="#md544d3eca4" y="220.732435"/>
    </g>
   </g>
   <g id="line2d_50">
    <path d="M 333.429677 266.920888 
L 363.933742 152.288529 
" style="fill:none;stroke:#ff00ff;stroke-linecap:square;stroke-width:1.5;"/>
    <g>
     <use style="fill-opacity:0;stroke:#ff00ff;stroke-linejoin:miter;stroke-width:1.5;" x="333.429677" xlink:href="#m419f411383" y="266.920888"/>
     <use style="fill-opacity:0;stroke:#ff00ff;stroke-linejoin:miter;stroke-width:1.5;" x="363.933742" xlink:href="#m419f411383" y="152.288529"/>
    </g>
   </g>
   <g id="line2d_51">
    <path d="M 333.429677 9.697057 
L 363.933742 83.844622 
" style="fill:none;stroke:#000080;stroke-linecap:square;stroke-width:1.5;"/>
    <g>
     <use style="fill-opacity:0;stroke:#000080;stroke-width:1.5;" x="333.429677" xlink:href="#mbb7545e78c" y="9.697057"/>
     <use style="fill-opacity:0;stroke:#000080;stroke-width:1.5;" x="363.933742" xlink:href="#mbb7545e78c" y="83.844622"/>
    </g>
   </g>
   <g id="line2d_52">
    <path d="M 333.429677 9.697057 
L 363.933742 15.400716 
" style="fill:none;stroke:#ff0000;stroke-linecap:square;stroke-width:1.5;"/>
    <g>
     <use style="fill-opacity:0;stroke:#ff0000;stroke-linejoin:miter;stroke-width:1.5;" x="333.429677" xlink:href="#m5ae4f2fb1d" y="9.697057"/>
     <use style="fill-opacity:0;stroke:#ff0000;stroke-linejoin:miter;stroke-width:1.5;" x="363.933742" xlink:href="#m5ae4f2fb1d" y="15.400716"/>
    </g>
   </g>
   <g id="line2d_53">
    <path d="M 333.429677 294.88 
L 333.429677 9.697057 
" style="fill:none;stroke:#000000;stroke-linecap:square;stroke-width:1.5;"/>
   </g>
   <g id="patch_3">
    <path d="M 56.12 294.88 
L 56.12 6.845228 
" style="fill:none;stroke:#000000;stroke-linecap:square;stroke-linejoin:miter;stroke-width:0.8;"/>
   </g>
   <g id="patch_4">
    <path d="M 399.984 294.88 
L 399.984 6.845228 
" style="fill:none;stroke:#000000;stroke-linecap:square;stroke-linejoin:miter;stroke-width:0.8;"/>
   </g>
   <g id="patch_5">
    <path d="M 56.12 294.88 
L 399.984 294.88 
" style="fill:none;stroke:#000000;stroke-linecap:square;stroke-linejoin:miter;stroke-width:0.8;"/>
   </g>
   <g id="patch_6">
    <path d="M 56.12 6.845228 
L 399.984 6.845228 
" style="fill:none;stroke:#000000;stroke-linecap:square;stroke-linejoin:miter;stroke-width:0.8;"/>
   </g>
   <g id="text_14">
    <!-- f4 -->
    <g transform="translate(369.479935 293.867279)scale(0.17 -0.17)">
     <use xlink:href="#DejaVuSans-66"/>
     <use x="35.205078" xlink:href="#DejaVuSans-34"/>
    </g>
   </g>
   <g id="text_15">
    <!-- f3 -->
    <defs>
     <path d="M 40.578125 39.3125 
Q 47.65625 37.796875 51.625 33 
Q 55.609375 28.21875 55.609375 21.1875 
Q 55.609375 10.40625 48.1875 4.484375 
Q 40.765625 -1.421875 27.09375 -1.421875 
Q 22.515625 -1.421875 17.65625 -0.515625 
Q 12.796875 0.390625 7.625 2.203125 
L 7.625 11.71875 
Q 11.71875 9.328125 16.59375 8.109375 
Q 21.484375 6.890625 26.8125 6.890625 
Q 36.078125 6.890625 40.9375 10.546875 
Q 45.796875 14.203125 45.796875 21.1875 
Q 45.796875 27.640625 41.28125 31.265625 
Q 36.765625 34.90625 28.71875 34.90625 
L 20.21875 34.90625 
L 20.21875 43.015625 
L 29.109375 43.015625 
Q 36.375 43.015625 40.234375 45.921875 
Q 44.09375 48.828125 44.09375 54.296875 
Q 44.09375 59.90625 40.109375 62.90625 
Q 36.140625 65.921875 28.71875 65.921875 
Q 24.65625 65.921875 20.015625 65.03125 
Q 15.375 64.15625 9.8125 62.3125 
L 9.8125 71.09375 
Q 15.4375 72.65625 20.34375 73.4375 
Q 25.25 74.21875 29.59375 74.21875 
Q 40.828125 74.21875 47.359375 69.109375 
Q 53.90625 64.015625 53.90625 55.328125 
Q 53.90625 49.265625 50.4375 45.09375 
Q 46.96875 40.921875 40.578125 39.3125 
z
" id="DejaVuSans-33"/>
    </defs>
    <g transform="translate(369.479935 225.423372)scale(0.17 -0.17)">
     <use xlink:href="#DejaVuSans-66"/>
     <use x="35.205078" xlink:href="#DejaVuSans-33"/>
    </g>
   </g>
   <g id="text_16">
    <!-- f2 -->
    <g transform="translate(369.479935 156.979466)scale(0.17 -0.17)">
     <use xlink:href="#DejaVuSans-66"/>
     <use x="35.205078" xlink:href="#DejaVuSans-32"/>
    </g>
   </g>
   <g id="text_17">
    <!-- f1 -->
    <g transform="translate(369.479935 88.53556)scale(0.17 -0.17)">
     <use xlink:href="#DejaVuSans-66"/>
     <use x="35.205078" xlink:href="#DejaVuSans-31"/>
    </g>
   </g>
   <g id="text_18">
    <!-- f5 -->
    <defs>
     <path d="M 10.796875 72.90625 
L 49.515625 72.90625 
L 49.515625 64.59375 
L 19.828125 64.59375 
L 19.828125 46.734375 
Q 21.96875 47.46875 24.109375 47.828125 
Q 26.265625 48.1875 28.421875 48.1875 
Q 40.625 48.1875 47.75 41.5 
Q 54.890625 34.8125 54.890625 23.390625 
Q 54.890625 11.625 47.5625 5.09375 
Q 40.234375 -1.421875 26.90625 -1.421875 
Q 22.3125 -1.421875 17.546875 -0.640625 
Q 12.796875 0.140625 7.71875 1.703125 
L 7.71875 11.625 
Q 12.109375 9.234375 16.796875 8.0625 
Q 21.484375 6.890625 26.703125 6.890625 
Q 35.15625 6.890625 40.078125 11.328125 
Q 45.015625 15.765625 45.015625 23.390625 
Q 45.015625 31 40.078125 35.4375 
Q 35.15625 39.890625 26.703125 39.890625 
Q 22.75 39.890625 18.8125 39.015625 
Q 14.890625 38.140625 10.796875 36.28125 
z
" id="DejaVuSans-35"/>
    </defs>
    <g transform="translate(369.479935 20.091654)scale(0.17 -0.17)">
     <use xlink:href="#DejaVuSans-66"/>
     <use x="35.205078" xlink:href="#DejaVuSans-35"/>
    </g>
   </g>
   <g id="text_19">
    <!-- bbob -->
    <defs>
     <path d="M 48.6875 27.296875 
Q 48.6875 37.203125 44.609375 42.84375 
Q 40.53125 48.484375 33.40625 48.484375 
Q 26.265625 48.484375 22.1875 42.84375 
Q 18.109375 37.203125 18.109375 27.296875 
Q 18.109375 17.390625 22.1875 11.75 
Q 26.265625 6.109375 33.40625 6.109375 
Q 40.53125 6.109375 44.609375 11.75 
Q 48.6875 17.390625 48.6875 27.296875 
z
M 18.109375 46.390625 
Q 20.953125 51.265625 25.265625 53.625 
Q 29.59375 56 35.59375 56 
Q 45.5625 56 51.78125 48.09375 
Q 58.015625 40.1875 58.015625 27.296875 
Q 58.015625 14.40625 51.78125 6.484375 
Q 45.5625 -1.421875 35.59375 -1.421875 
Q 29.59375 -1.421875 25.265625 0.953125 
Q 20.953125 3.328125 18.109375 8.203125 
L 18.109375 0 
L 9.078125 0 
L 9.078125 75.984375 
L 18.109375 75.984375 
z
" id="DejaVuSans-62"/>
    </defs>
    <g transform="translate(59.55864 17.475982)scale(0.102 -0.102)">
     <use xlink:href="#DejaVuSans-62"/>
     <use x="63.476562" xlink:href="#DejaVuSans-62"/>
     <use x="126.953125" xlink:href="#DejaVuSans-6f"/>
     <use x="188.134766" xlink:href="#DejaVuSans-62"/>
    </g>
    <!-- Separable functions, 5-D -->
    <defs>
     <path d="M 53.515625 70.515625 
L 53.515625 60.890625 
Q 47.90625 63.578125 42.921875 64.890625 
Q 37.9375 66.21875 33.296875 66.21875 
Q 25.25 66.21875 20.875 63.09375 
Q 16.5 59.96875 16.5 54.203125 
Q 16.5 49.359375 19.40625 46.890625 
Q 22.3125 44.4375 30.421875 42.921875 
L 36.375 41.703125 
Q 47.40625 39.59375 52.65625 34.296875 
Q 57.90625 29 57.90625 20.125 
Q 57.90625 9.515625 50.796875 4.046875 
Q 43.703125 -1.421875 29.984375 -1.421875 
Q 24.8125 -1.421875 18.96875 -0.25 
Q 13.140625 0.921875 6.890625 3.21875 
L 6.890625 13.375 
Q 12.890625 10.015625 18.65625 8.296875 
Q 24.421875 6.59375 29.984375 6.59375 
Q 38.421875 6.59375 43.015625 9.90625 
Q 47.609375 13.234375 47.609375 19.390625 
Q 47.609375 24.75 44.3125 27.78125 
Q 41.015625 30.8125 33.5 32.328125 
L 27.484375 33.5 
Q 16.453125 35.6875 11.515625 40.375 
Q 6.59375 45.0625 6.59375 53.421875 
Q 6.59375 63.09375 13.40625 68.65625 
Q 20.21875 74.21875 32.171875 74.21875 
Q 37.3125 74.21875 42.625 73.28125 
Q 47.953125 72.359375 53.515625 70.515625 
z
" id="DejaVuSans-53"/>
     <path d="M 19.671875 64.796875 
L 19.671875 8.109375 
L 31.59375 8.109375 
Q 46.6875 8.109375 53.6875 14.9375 
Q 60.6875 21.78125 60.6875 36.53125 
Q 60.6875 51.171875 53.6875 57.984375 
Q 46.6875 64.796875 31.59375 64.796875 
z
M 9.8125 72.90625 
L 30.078125 72.90625 
Q 51.265625 72.90625 61.171875 64.09375 
Q 71.09375 55.28125 71.09375 36.53125 
Q 71.09375 17.671875 61.125 8.828125 
Q 51.171875 0 30.078125 0 
L 9.8125 0 
z
" id="DejaVuSans-44"/>
    </defs>
    <g transform="translate(59.55864 28.89775)scale(0.102 -0.102)">
     <use xlink:href="#DejaVuSans-53"/>
     <use x="63.476562" xlink:href="#DejaVuSans-65"/>
     <use x="125" xlink:href="#DejaVuSans-70"/>
     <use x="188.476562" xlink:href="#DejaVuSans-61"/>
     <use x="249.755859" xlink:href="#DejaVuSans-72"/>
     <use x="290.869141" xlink:href="#DejaVuSans-61"/>
     <use x="352.148438" xlink:href="#DejaVuSans-62"/>
     <use x="415.625" xlink:href="#DejaVuSans-6c"/>
     <use x="443.408203" xlink:href="#DejaVuSans-65"/>
     <use x="504.931641" xlink:href="#DejaVuSans-20"/>
     <use x="536.71875" xlink:href="#DejaVuSans-66"/>
     <use x="571.923828" xlink:href="#DejaVuSans-75"/>
     <use x="635.302734" xlink:href="#DejaVuSans-6e"/>
     <use x="698.681641" xlink:href="#DejaVuSans-63"/>
     <use x="753.662109" xlink:href="#DejaVuSans-74"/>
     <use x="792.871094" xlink:href="#DejaVuSans-69"/>
     <use x="820.654297" xlink:href="#DejaVuSans-6f"/>
     <use x="881.835938" xlink:href="#DejaVuSans-6e"/>
     <use x="945.214844" xlink:href="#DejaVuSans-73"/>
     <use x="997.314453" xlink:href="#DejaVuSans-2c"/>
     <use x="1029.101562" xlink:href="#DejaVuSans-20"/>
     <use x="1060.888672" xlink:href="#DejaVuSans-35"/>
     <use x="1124.511719" xlink:href="#DejaVuSans-2d"/>
     <use x="1160.595703" xlink:href="#DejaVuSans-44"/>
    </g>
    <!-- 51 targets: 100..1e-08 -->
    <defs>
     <path d="M 11.71875 12.40625 
L 22.015625 12.40625 
L 22.015625 0 
L 11.71875 0 
z
M 11.71875 51.703125 
L 22.015625 51.703125 
L 22.015625 39.3125 
L 11.71875 39.3125 
z
" id="DejaVuSans-3a"/>
    </defs>
    <g transform="translate(59.55864 40.319519)scale(0.102 -0.102)">
     <use xlink:href="#DejaVuSans-35"/>
     <use x="63.623047" xlink:href="#DejaVuSans-31"/>
     <use x="127.246094" xlink:href="#DejaVuSans-20"/>
     <use x="159.033203" xlink:href="#DejaVuSans-74"/>
     <use x="198.242188" xlink:href="#DejaVuSans-61"/>
     <use x="259.521484" xlink:href="#DejaVuSans-72"/>
     <use x="300.619141" xlink:href="#DejaVuSans-67"/>
     <use x="364.095703" xlink:href="#DejaVuSans-65"/>
     <use x="425.619141" xlink:href="#DejaVuSans-74"/>
     <use x="464.828125" xlink:href="#DejaVuSans-73"/>
     <use x="516.927734" xlink:href="#DejaVuSans-3a"/>
     <use x="550.619141" xlink:href="#DejaVuSans-20"/>
     <use x="582.40625" xlink:href="#DejaVuSans-31"/>
     <use x="646.029297" xlink:href="#DejaVuSans-30"/>
     <use x="709.652344" xlink:href="#DejaVuSans-30"/>
     <use x="773.275391" xlink:href="#DejaVuSans-2e"/>
     <use x="805.0625" xlink:href="#DejaVuSans-2e"/>
     <use x="836.849609" xlink:href="#DejaVuSans-31"/>
     <use x="900.472656" xlink:href="#DejaVuSans-65"/>
     <use x="961.996094" xlink:href="#DejaVuSans-2d"/>
     <use x="998.080078" xlink:href="#DejaVuSans-30"/>
     <use x="1061.703125" xlink:href="#DejaVuSans-38"/>
    </g>
    <!-- 15 instances -->
    <g transform="translate(59.55864 51.741288)scale(0.102 -0.102)">
     <use xlink:href="#DejaVuSans-31"/>
     <use x="63.623047" xlink:href="#DejaVuSans-35"/>
     <use x="127.246094" xlink:href="#DejaVuSans-20"/>
     <use x="159.033203" xlink:href="#DejaVuSans-69"/>
     <use x="186.816406" xlink:href="#DejaVuSans-6e"/>
     <use x="250.195312" xlink:href="#DejaVuSans-73"/>
     <use x="302.294922" xlink:href="#DejaVuSans-74"/>
     <use x="341.503906" xlink:href="#DejaVuSans-61"/>
     <use x="402.783203" xlink:href="#DejaVuSans-6e"/>
     <use x="466.162109" xlink:href="#DejaVuSans-63"/>
     <use x="521.142578" xlink:href="#DejaVuSans-65"/>
     <use x="582.666016" xlink:href="#DejaVuSans-73"/>
    </g>
   </g>
   <g id="text_20">
    <!-- v2.2.1.10 -->
    <g style="fill:#808080;" transform="translate(204.419188 289.919965)scale(0.1 -0.1)">
     <use xlink:href="#DejaVuSans-76"/>
     <use x="59.179688" xlink:href="#DejaVuSans-32"/>
     <use x="122.802734" xlink:href="#DejaVuSans-2e"/>
     <use x="154.589844" xlink:href="#DejaVuSans-32"/>
     <use x="218.212891" xlink:href="#DejaVuSans-2e"/>
     <use x="250" xlink:href="#DejaVuSans-31"/>
     <use x="313.623047" xlink:href="#DejaVuSans-2e"/>
     <use x="345.410156" xlink:href="#DejaVuSans-31"/>
     <use x="409.033203" xlink:href="#DejaVuSans-30"/>
    </g>
   </g>
  </g>
 </g>
 <defs>
  <clipPath id="p61f11b2ef8">
   <rect height="288.034772" width="343.864" x="56.12" y="6.845228"/>
  </clipPath>
 </defs>
</svg>
