<?xml version="1.0" encoding="utf-8" standalone="no"?>
<!DOCTYPE svg PUBLIC "-//W3C//DTD SVG 1.1//EN"
  "http://www.w3.org/Graphics/SVG/1.1/DTD/svg11.dtd">
<!-- Created with matplotlib (http://matplotlib.org/) -->
<svg height="345.6pt" version="1.1" viewBox="0 0 460.8 345.6" width="460.8pt" xmlns="http://www.w3.org/2000/svg" xmlns:xlink="http://www.w3.org/1999/xlink">
 <defs>
  <style type="text/css">
*{stroke-linecap:butt;stroke-linejoin:round;}
  </style>
 </defs>
 <g id="figure_1">
  <g id="patch_1">
   <path d="M 0 345.6 
L 460.8 345.6 
L 460.8 0 
L 0 0 
z
" style="fill:#ffffff;"/>
  </g>
  <g id="axes_1">
   <g id="patch_2">
    <path d="M 56.12 294.88 
L 399.984 294.88 
L 399.984 24.84 
L 56.12 24.84 
z
" style="fill:#ffffff;"/>
   </g>
   <g id="matplotlib.axis_1">
    <g id="xtick_1">
     <g id="line2d_1">
      <path clip-path="url(#p8eb7add94f)" d="M 56.12 294.88 
L 56.12 24.84 
" style="fill:none;stroke:#b0b0b0;stroke-linecap:square;stroke-width:0.8;"/>
     </g>
     <g id="line2d_2">
      <defs>
       <path d="M 0 0 
L 0 3.5 
" id="m5a54f4dfde" style="stroke:#000000;stroke-width:0.8;"/>
      </defs>
      <g>
       <use style="stroke:#000000;stroke-width:0.8;" x="56.12" xlink:href="#m5a54f4dfde" y="294.88"/>
      </g>
     </g>
     <g id="text_1">
      <!-- 0 -->
      <defs>
       <path d="M 31.78125 66.40625 
Q 24.171875 66.40625 20.328125 58.90625 
Q 16.5 51.421875 16.5 36.375 
Q 16.5 21.390625 20.328125 13.890625 
Q 24.171875 6.390625 31.78125 6.390625 
Q 39.453125 6.390625 43.28125 13.890625 
Q 47.125 21.390625 47.125 36.375 
Q 47.125 51.421875 43.28125 58.90625 
Q 39.453125 66.40625 31.78125 66.40625 
z
M 31.78125 74.21875 
Q 44.046875 74.21875 50.515625 64.515625 
Q 56.984375 54.828125 56.984375 36.375 
Q 56.984375 17.96875 50.515625 8.265625 
Q 44.046875 -1.421875 31.78125 -1.421875 
Q 19.53125 -1.421875 13.0625 8.265625 
Q 6.59375 17.96875 6.59375 36.375 
Q 6.59375 54.828125 13.0625 64.515625 
Q 19.53125 74.21875 31.78125 74.21875 
z
" id="DejaVuSans-30"/>
      </defs>
      <g transform="translate(49.7575 317.076875)scale(0.2 -0.2)">
       <use xlink:href="#DejaVuSans-30"/>
      </g>
     </g>
    </g>
    <g id="xtick_2">
     <g id="line2d_3">
      <path clip-path="url(#p8eb7add94f)" d="M 135.351336 294.88 
L 135.351336 24.84 
" style="fill:none;stroke:#b0b0b0;stroke-linecap:square;stroke-width:0.8;"/>
     </g>
     <g id="line2d_4">
      <g>
       <use style="stroke:#000000;stroke-width:0.8;" x="135.351336" xlink:href="#m5a54f4dfde" y="294.88"/>
      </g>
     </g>
     <g id="text_2">
      <!-- 2 -->
      <defs>
       <path d="M 19.1875 8.296875 
L 53.609375 8.296875 
L 53.609375 0 
L 7.328125 0 
L 7.328125 8.296875 
Q 12.9375 14.109375 22.625 23.890625 
Q 32.328125 33.6875 34.8125 36.53125 
Q 39.546875 41.84375 41.421875 45.53125 
Q 43.3125 49.21875 43.3125 52.78125 
Q 43.3125 58.59375 39.234375 62.25 
Q 35.15625 65.921875 28.609375 65.921875 
Q 23.96875 65.921875 18.8125 64.3125 
Q 13.671875 62.703125 7.8125 59.421875 
L 7.8125 69.390625 
Q 13.765625 71.78125 18.9375 73 
Q 24.125 74.21875 28.421875 74.21875 
Q 39.75 74.21875 46.484375 68.546875 
Q 53.21875 62.890625 53.21875 53.421875 
Q 53.21875 48.921875 51.53125 44.890625 
Q 49.859375 40.875 45.40625 35.40625 
Q 44.1875 33.984375 37.640625 27.21875 
Q 31.109375 20.453125 19.1875 8.296875 
z
" id="DejaVuSans-32"/>
      </defs>
      <g transform="translate(128.988836 317.076875)scale(0.2 -0.2)">
       <use xlink:href="#DejaVuSans-32"/>
      </g>
     </g>
    </g>
    <g id="xtick_3">
     <g id="line2d_5">
      <path clip-path="url(#p8eb7add94f)" d="M 214.582673 294.88 
L 214.582673 24.84 
" style="fill:none;stroke:#b0b0b0;stroke-linecap:square;stroke-width:0.8;"/>
     </g>
     <g id="line2d_6">
      <g>
       <use style="stroke:#000000;stroke-width:0.8;" x="214.582673" xlink:href="#m5a54f4dfde" y="294.88"/>
      </g>
     </g>
     <g id="text_3">
      <!-- 4 -->
      <defs>
       <path d="M 37.796875 64.3125 
L 12.890625 25.390625 
L 37.796875 25.390625 
z
M 35.203125 72.90625 
L 47.609375 72.90625 
L 47.609375 25.390625 
L 58.015625 25.390625 
L 58.015625 17.1875 
L 47.609375 17.1875 
L 47.609375 0 
L 37.796875 0 
L 37.796875 17.1875 
L 4.890625 17.1875 
L 4.890625 26.703125 
z
" id="DejaVuSans-34"/>
      </defs>
      <g transform="translate(208.220173 317.076875)scale(0.2 -0.2)">
       <use xlink:href="#DejaVuSans-34"/>
      </g>
     </g>
    </g>
    <g id="xtick_4">
     <g id="line2d_7">
      <path clip-path="url(#p8eb7add94f)" d="M 293.814009 294.88 
L 293.814009 24.84 
" style="fill:none;stroke:#b0b0b0;stroke-linecap:square;stroke-width:0.8;"/>
     </g>
     <g id="line2d_8">
      <g>
       <use style="stroke:#000000;stroke-width:0.8;" x="293.814009" xlink:href="#m5a54f4dfde" y="294.88"/>
      </g>
     </g>
     <g id="text_4">
      <!-- 6 -->
      <defs>
       <path d="M 33.015625 40.375 
Q 26.375 40.375 22.484375 35.828125 
Q 18.609375 31.296875 18.609375 23.390625 
Q 18.609375 15.53125 22.484375 10.953125 
Q 26.375 6.390625 33.015625 6.390625 
Q 39.65625 6.390625 43.53125 10.953125 
Q 47.40625 15.53125 47.40625 23.390625 
Q 47.40625 31.296875 43.53125 35.828125 
Q 39.65625 40.375 33.015625 40.375 
z
M 52.59375 71.296875 
L 52.59375 62.3125 
Q 48.875 64.0625 45.09375 64.984375 
Q 41.3125 65.921875 37.59375 65.921875 
Q 27.828125 65.921875 22.671875 59.328125 
Q 17.53125 52.734375 16.796875 39.40625 
Q 19.671875 43.65625 24.015625 45.921875 
Q 28.375 48.1875 33.59375 48.1875 
Q 44.578125 48.1875 50.953125 41.515625 
Q 57.328125 34.859375 57.328125 23.390625 
Q 57.328125 12.15625 50.6875 5.359375 
Q 44.046875 -1.421875 33.015625 -1.421875 
Q 20.359375 -1.421875 13.671875 8.265625 
Q 6.984375 17.96875 6.984375 36.375 
Q 6.984375 53.65625 15.1875 63.9375 
Q 23.390625 74.21875 37.203125 74.21875 
Q 40.921875 74.21875 44.703125 73.484375 
Q 48.484375 72.75 52.59375 71.296875 
z
" id="DejaVuSans-36"/>
      </defs>
      <g transform="translate(287.451509 317.076875)scale(0.2 -0.2)">
       <use xlink:href="#DejaVuSans-36"/>
      </g>
     </g>
    </g>
    <g id="xtick_5">
     <g id="line2d_9">
      <path clip-path="url(#p8eb7add94f)" d="M 373.045346 294.88 
L 373.045346 24.84 
" style="fill:none;stroke:#b0b0b0;stroke-linecap:square;stroke-width:0.8;"/>
     </g>
     <g id="line2d_10">
      <g>
       <use style="stroke:#000000;stroke-width:0.8;" x="373.045346" xlink:href="#m5a54f4dfde" y="294.88"/>
      </g>
     </g>
     <g id="text_5">
      <!-- 8 -->
      <defs>
       <path d="M 31.78125 34.625 
Q 24.75 34.625 20.71875 30.859375 
Q 16.703125 27.09375 16.703125 20.515625 
Q 16.703125 13.921875 20.71875 10.15625 
Q 24.75 6.390625 31.78125 6.390625 
Q 38.8125 6.390625 42.859375 10.171875 
Q 46.921875 13.96875 46.921875 20.515625 
Q 46.921875 27.09375 42.890625 30.859375 
Q 38.875 34.625 31.78125 34.625 
z
M 21.921875 38.8125 
Q 15.578125 40.375 12.03125 44.71875 
Q 8.5 49.078125 8.5 55.328125 
Q 8.5 64.0625 14.71875 69.140625 
Q 20.953125 74.21875 31.78125 74.21875 
Q 42.671875 74.21875 48.875 69.140625 
Q 55.078125 64.0625 55.078125 55.328125 
Q 55.078125 49.078125 51.53125 44.71875 
Q 48 40.375 41.703125 38.8125 
Q 48.828125 37.15625 52.796875 32.3125 
Q 56.78125 27.484375 56.78125 20.515625 
Q 56.78125 9.90625 50.3125 4.234375 
Q 43.84375 -1.421875 31.78125 -1.421875 
Q 19.734375 -1.421875 13.25 4.234375 
Q 6.78125 9.90625 6.78125 20.515625 
Q 6.78125 27.484375 10.78125 32.3125 
Q 14.796875 37.15625 21.921875 38.8125 
z
M 18.3125 54.390625 
Q 18.3125 48.734375 21.84375 45.5625 
Q 25.390625 42.390625 31.78125 42.390625 
Q 38.140625 42.390625 41.71875 45.5625 
Q 45.3125 48.734375 45.3125 54.390625 
Q 45.3125 60.0625 41.71875 63.234375 
Q 38.140625 66.40625 31.78125 66.40625 
Q 25.390625 66.40625 21.84375 63.234375 
Q 18.3125 60.0625 18.3125 54.390625 
z
" id="DejaVuSans-38"/>
      </defs>
      <g transform="translate(366.682846 317.076875)scale(0.2 -0.2)">
       <use xlink:href="#DejaVuSans-38"/>
      </g>
     </g>
    </g>
    <g id="text_6">
     <!-- log10(# f-evals / dimension) -->
     <defs>
      <path d="M 9.421875 75.984375 
L 18.40625 75.984375 
L 18.40625 0 
L 9.421875 0 
z
" id="DejaVuSans-6c"/>
      <path d="M 30.609375 48.390625 
Q 23.390625 48.390625 19.1875 42.75 
Q 14.984375 37.109375 14.984375 27.296875 
Q 14.984375 17.484375 19.15625 11.84375 
Q 23.34375 6.203125 30.609375 6.203125 
Q 37.796875 6.203125 41.984375 11.859375 
Q 46.1875 17.53125 46.1875 27.296875 
Q 46.1875 37.015625 41.984375 42.703125 
Q 37.796875 48.390625 30.609375 48.390625 
z
M 30.609375 56 
Q 42.328125 56 49.015625 48.375 
Q 55.71875 40.765625 55.71875 27.296875 
Q 55.71875 13.875 49.015625 6.21875 
Q 42.328125 -1.421875 30.609375 -1.421875 
Q 18.84375 -1.421875 12.171875 6.21875 
Q 5.515625 13.875 5.515625 27.296875 
Q 5.515625 40.765625 12.171875 48.375 
Q 18.84375 56 30.609375 56 
z
" id="DejaVuSans-6f"/>
      <path d="M 45.40625 27.984375 
Q 45.40625 37.75 41.375 43.109375 
Q 37.359375 48.484375 30.078125 48.484375 
Q 22.859375 48.484375 18.828125 43.109375 
Q 14.796875 37.75 14.796875 27.984375 
Q 14.796875 18.265625 18.828125 12.890625 
Q 22.859375 7.515625 30.078125 7.515625 
Q 37.359375 7.515625 41.375 12.890625 
Q 45.40625 18.265625 45.40625 27.984375 
z
M 54.390625 6.78125 
Q 54.390625 -7.171875 48.1875 -13.984375 
Q 42 -20.796875 29.203125 -20.796875 
Q 24.46875 -20.796875 20.265625 -20.09375 
Q 16.0625 -19.390625 12.109375 -17.921875 
L 12.109375 -9.1875 
Q 16.0625 -11.328125 19.921875 -12.34375 
Q 23.78125 -13.375 27.78125 -13.375 
Q 36.625 -13.375 41.015625 -8.765625 
Q 45.40625 -4.15625 45.40625 5.171875 
L 45.40625 9.625 
Q 42.625 4.78125 38.28125 2.390625 
Q 33.9375 0 27.875 0 
Q 17.828125 0 11.671875 7.65625 
Q 5.515625 15.328125 5.515625 27.984375 
Q 5.515625 40.671875 11.671875 48.328125 
Q 17.828125 56 27.875 56 
Q 33.9375 56 38.28125 53.609375 
Q 42.625 51.21875 45.40625 46.390625 
L 45.40625 54.6875 
L 54.390625 54.6875 
z
" id="DejaVuSans-67"/>
      <path d="M 12.40625 8.296875 
L 28.515625 8.296875 
L 28.515625 63.921875 
L 10.984375 60.40625 
L 10.984375 69.390625 
L 28.421875 72.90625 
L 38.28125 72.90625 
L 38.28125 8.296875 
L 54.390625 8.296875 
L 54.390625 0 
L 12.40625 0 
z
" id="DejaVuSans-31"/>
      <path d="M 31 75.875 
Q 24.46875 64.65625 21.28125 53.65625 
Q 18.109375 42.671875 18.109375 31.390625 
Q 18.109375 20.125 21.3125 9.0625 
Q 24.515625 -2 31 -13.1875 
L 23.1875 -13.1875 
Q 15.875 -1.703125 12.234375 9.375 
Q 8.59375 20.453125 8.59375 31.390625 
Q 8.59375 42.28125 12.203125 53.3125 
Q 15.828125 64.359375 23.1875 75.875 
z
" id="DejaVuSans-28"/>
      <path d="M 51.125 44 
L 36.921875 44 
L 32.8125 27.6875 
L 47.125 27.6875 
z
M 43.796875 71.78125 
L 38.71875 51.515625 
L 52.984375 51.515625 
L 58.109375 71.78125 
L 65.921875 71.78125 
L 60.890625 51.515625 
L 76.125 51.515625 
L 76.125 44 
L 58.984375 44 
L 54.984375 27.6875 
L 70.515625 27.6875 
L 70.515625 20.21875 
L 53.078125 20.21875 
L 48 0 
L 40.1875 0 
L 45.21875 20.21875 
L 30.90625 20.21875 
L 25.875 0 
L 18.015625 0 
L 23.09375 20.21875 
L 7.71875 20.21875 
L 7.71875 27.6875 
L 24.90625 27.6875 
L 29 44 
L 13.28125 44 
L 13.28125 51.515625 
L 30.90625 51.515625 
L 35.890625 71.78125 
z
" id="DejaVuSans-23"/>
      <path id="DejaVuSans-20"/>
      <path d="M 37.109375 75.984375 
L 37.109375 68.5 
L 28.515625 68.5 
Q 23.6875 68.5 21.796875 66.546875 
Q 19.921875 64.59375 19.921875 59.515625 
L 19.921875 54.6875 
L 34.71875 54.6875 
L 34.71875 47.703125 
L 19.921875 47.703125 
L 19.921875 0 
L 10.890625 0 
L 10.890625 47.703125 
L 2.296875 47.703125 
L 2.296875 54.6875 
L 10.890625 54.6875 
L 10.890625 58.5 
Q 10.890625 67.625 15.140625 71.796875 
Q 19.390625 75.984375 28.609375 75.984375 
z
" id="DejaVuSans-66"/>
      <path d="M 4.890625 31.390625 
L 31.203125 31.390625 
L 31.203125 23.390625 
L 4.890625 23.390625 
z
" id="DejaVuSans-2d"/>
      <path d="M 56.203125 29.59375 
L 56.203125 25.203125 
L 14.890625 25.203125 
Q 15.484375 15.921875 20.484375 11.0625 
Q 25.484375 6.203125 34.421875 6.203125 
Q 39.59375 6.203125 44.453125 7.46875 
Q 49.3125 8.734375 54.109375 11.28125 
L 54.109375 2.78125 
Q 49.265625 0.734375 44.1875 -0.34375 
Q 39.109375 -1.421875 33.890625 -1.421875 
Q 20.796875 -1.421875 13.15625 6.1875 
Q 5.515625 13.8125 5.515625 26.8125 
Q 5.515625 40.234375 12.765625 48.109375 
Q 20.015625 56 32.328125 56 
Q 43.359375 56 49.78125 48.890625 
Q 56.203125 41.796875 56.203125 29.59375 
z
M 47.21875 32.234375 
Q 47.125 39.59375 43.09375 43.984375 
Q 39.0625 48.390625 32.421875 48.390625 
Q 24.90625 48.390625 20.390625 44.140625 
Q 15.875 39.890625 15.1875 32.171875 
z
" id="DejaVuSans-65"/>
      <path d="M 2.984375 54.6875 
L 12.5 54.6875 
L 29.59375 8.796875 
L 46.6875 54.6875 
L 56.203125 54.6875 
L 35.6875 0 
L 23.484375 0 
z
" id="DejaVuSans-76"/>
      <path d="M 34.28125 27.484375 
Q 23.390625 27.484375 19.1875 25 
Q 14.984375 22.515625 14.984375 16.5 
Q 14.984375 11.71875 18.140625 8.90625 
Q 21.296875 6.109375 26.703125 6.109375 
Q 34.1875 6.109375 38.703125 11.40625 
Q 43.21875 16.703125 43.21875 25.484375 
L 43.21875 27.484375 
z
M 52.203125 31.203125 
L 52.203125 0 
L 43.21875 0 
L 43.21875 8.296875 
Q 40.140625 3.328125 35.546875 0.953125 
Q 30.953125 -1.421875 24.3125 -1.421875 
Q 15.921875 -1.421875 10.953125 3.296875 
Q 6 8.015625 6 15.921875 
Q 6 25.140625 12.171875 29.828125 
Q 18.359375 34.515625 30.609375 34.515625 
L 43.21875 34.515625 
L 43.21875 35.40625 
Q 43.21875 41.609375 39.140625 45 
Q 35.0625 48.390625 27.6875 48.390625 
Q 23 48.390625 18.546875 47.265625 
Q 14.109375 46.140625 10.015625 43.890625 
L 10.015625 52.203125 
Q 14.9375 54.109375 19.578125 55.046875 
Q 24.21875 56 28.609375 56 
Q 40.484375 56 46.34375 49.84375 
Q 52.203125 43.703125 52.203125 31.203125 
z
" id="DejaVuSans-61"/>
      <path d="M 44.28125 53.078125 
L 44.28125 44.578125 
Q 40.484375 46.53125 36.375 47.5 
Q 32.28125 48.484375 27.875 48.484375 
Q 21.1875 48.484375 17.84375 46.4375 
Q 14.5 44.390625 14.5 40.28125 
Q 14.5 37.15625 16.890625 35.375 
Q 19.28125 33.59375 26.515625 31.984375 
L 29.59375 31.296875 
Q 39.15625 29.25 43.1875 25.515625 
Q 47.21875 21.78125 47.21875 15.09375 
Q 47.21875 7.46875 41.1875 3.015625 
Q 35.15625 -1.421875 24.609375 -1.421875 
Q 20.21875 -1.421875 15.453125 -0.5625 
Q 10.6875 0.296875 5.421875 2 
L 5.421875 11.28125 
Q 10.40625 8.6875 15.234375 7.390625 
Q 20.0625 6.109375 24.8125 6.109375 
Q 31.15625 6.109375 34.5625 8.28125 
Q 37.984375 10.453125 37.984375 14.40625 
Q 37.984375 18.0625 35.515625 20.015625 
Q 33.0625 21.96875 24.703125 23.78125 
L 21.578125 24.515625 
Q 13.234375 26.265625 9.515625 29.90625 
Q 5.8125 33.546875 5.8125 39.890625 
Q 5.8125 47.609375 11.28125 51.796875 
Q 16.75 56 26.8125 56 
Q 31.78125 56 36.171875 55.265625 
Q 40.578125 54.546875 44.28125 53.078125 
z
" id="DejaVuSans-73"/>
      <path d="M 25.390625 72.90625 
L 33.6875 72.90625 
L 8.296875 -9.28125 
L 0 -9.28125 
z
" id="DejaVuSans-2f"/>
      <path d="M 45.40625 46.390625 
L 45.40625 75.984375 
L 54.390625 75.984375 
L 54.390625 0 
L 45.40625 0 
L 45.40625 8.203125 
Q 42.578125 3.328125 38.25 0.953125 
Q 33.9375 -1.421875 27.875 -1.421875 
Q 17.96875 -1.421875 11.734375 6.484375 
Q 5.515625 14.40625 5.515625 27.296875 
Q 5.515625 40.1875 11.734375 48.09375 
Q 17.96875 56 27.875 56 
Q 33.9375 56 38.25 53.625 
Q 42.578125 51.265625 45.40625 46.390625 
z
M 14.796875 27.296875 
Q 14.796875 17.390625 18.875 11.75 
Q 22.953125 6.109375 30.078125 6.109375 
Q 37.203125 6.109375 41.296875 11.75 
Q 45.40625 17.390625 45.40625 27.296875 
Q 45.40625 37.203125 41.296875 42.84375 
Q 37.203125 48.484375 30.078125 48.484375 
Q 22.953125 48.484375 18.875 42.84375 
Q 14.796875 37.203125 14.796875 27.296875 
z
" id="DejaVuSans-64"/>
      <path d="M 9.421875 54.6875 
L 18.40625 54.6875 
L 18.40625 0 
L 9.421875 0 
z
M 9.421875 75.984375 
L 18.40625 75.984375 
L 18.40625 64.59375 
L 9.421875 64.59375 
z
" id="DejaVuSans-69"/>
      <path d="M 52 44.1875 
Q 55.375 50.25 60.0625 53.125 
Q 64.75 56 71.09375 56 
Q 79.640625 56 84.28125 50.015625 
Q 88.921875 44.046875 88.921875 33.015625 
L 88.921875 0 
L 79.890625 0 
L 79.890625 32.71875 
Q 79.890625 40.578125 77.09375 44.375 
Q 74.3125 48.1875 68.609375 48.1875 
Q 61.625 48.1875 57.5625 43.546875 
Q 53.515625 38.921875 53.515625 30.90625 
L 53.515625 0 
L 44.484375 0 
L 44.484375 32.71875 
Q 44.484375 40.625 41.703125 44.40625 
Q 38.921875 48.1875 33.109375 48.1875 
Q 26.21875 48.1875 22.15625 43.53125 
Q 18.109375 38.875 18.109375 30.90625 
L 18.109375 0 
L 9.078125 0 
L 9.078125 54.6875 
L 18.109375 54.6875 
L 18.109375 46.1875 
Q 21.1875 51.21875 25.484375 53.609375 
Q 29.78125 56 35.6875 56 
Q 41.65625 56 45.828125 52.96875 
Q 50 49.953125 52 44.1875 
z
" id="DejaVuSans-6d"/>
      <path d="M 54.890625 33.015625 
L 54.890625 0 
L 45.90625 0 
L 45.90625 32.71875 
Q 45.90625 40.484375 42.875 44.328125 
Q 39.84375 48.1875 33.796875 48.1875 
Q 26.515625 48.1875 22.3125 43.546875 
Q 18.109375 38.921875 18.109375 30.90625 
L 18.109375 0 
L 9.078125 0 
L 9.078125 54.6875 
L 18.109375 54.6875 
L 18.109375 46.1875 
Q 21.34375 51.125 25.703125 53.5625 
Q 30.078125 56 35.796875 56 
Q 45.21875 56 50.046875 50.171875 
Q 54.890625 44.34375 54.890625 33.015625 
z
" id="DejaVuSans-6e"/>
      <path d="M 8.015625 75.875 
L 15.828125 75.875 
Q 23.140625 64.359375 26.78125 53.3125 
Q 30.421875 42.28125 30.421875 31.390625 
Q 30.421875 20.453125 26.78125 9.375 
Q 23.140625 -1.703125 15.828125 -13.1875 
L 8.015625 -13.1875 
Q 14.5 -2 17.703125 9.0625 
Q 20.90625 20.125 20.90625 31.390625 
Q 20.90625 42.671875 17.703125 53.65625 
Q 14.5 64.65625 8.015625 75.875 
z
" id="DejaVuSans-29"/>
     </defs>
     <g transform="translate(107.211219 338.153594)scale(0.17 -0.17)">
      <use xlink:href="#DejaVuSans-6c"/>
      <use x="27.783203" xlink:href="#DejaVuSans-6f"/>
      <use x="88.964844" xlink:href="#DejaVuSans-67"/>
      <use x="152.441406" xlink:href="#DejaVuSans-31"/>
      <use x="216.064453" xlink:href="#DejaVuSans-30"/>
      <use x="279.6875" xlink:href="#DejaVuSans-28"/>
      <use x="318.701172" xlink:href="#DejaVuSans-23"/>
      <use x="402.490234" xlink:href="#DejaVuSans-20"/>
      <use x="434.277344" xlink:href="#DejaVuSans-66"/>
      <use x="469.404297" xlink:href="#DejaVuSans-2d"/>
      <use x="505.488281" xlink:href="#DejaVuSans-65"/>
      <use x="567.011719" xlink:href="#DejaVuSans-76"/>
      <use x="626.191406" xlink:href="#DejaVuSans-61"/>
      <use x="687.470703" xlink:href="#DejaVuSans-6c"/>
      <use x="715.253906" xlink:href="#DejaVuSans-73"/>
      <use x="767.353516" xlink:href="#DejaVuSans-20"/>
      <use x="799.140625" xlink:href="#DejaVuSans-2f"/>
      <use x="832.832031" xlink:href="#DejaVuSans-20"/>
      <use x="864.619141" xlink:href="#DejaVuSans-64"/>
      <use x="928.095703" xlink:href="#DejaVuSans-69"/>
      <use x="955.878906" xlink:href="#DejaVuSans-6d"/>
      <use x="1053.291016" xlink:href="#DejaVuSans-65"/>
      <use x="1114.814453" xlink:href="#DejaVuSans-6e"/>
      <use x="1178.193359" xlink:href="#DejaVuSans-73"/>
      <use x="1230.292969" xlink:href="#DejaVuSans-69"/>
      <use x="1258.076172" xlink:href="#DejaVuSans-6f"/>
      <use x="1319.257812" xlink:href="#DejaVuSans-6e"/>
      <use x="1382.636719" xlink:href="#DejaVuSans-29"/>
     </g>
    </g>
   </g>
   <g id="matplotlib.axis_2">
    <g id="ytick_1">
     <g id="line2d_11">
      <path clip-path="url(#p8eb7add94f)" d="M 56.12 294.88 
L 399.984 294.88 
" style="fill:none;stroke:#b0b0b0;stroke-linecap:square;stroke-width:0.8;"/>
     </g>
     <g id="line2d_12">
      <defs>
       <path d="M 0 0 
L -3.5 0 
" id="m2910d345cc" style="stroke:#000000;stroke-width:0.8;"/>
      </defs>
      <g>
       <use style="stroke:#000000;stroke-width:0.8;" x="56.12" xlink:href="#m2910d345cc" y="294.88"/>
      </g>
     </g>
     <g id="text_7">
      <!-- 0.0 -->
      <defs>
       <path d="M 10.6875 12.40625 
L 21 12.40625 
L 21 0 
L 10.6875 0 
z
" id="DejaVuSans-2e"/>
      </defs>
      <g transform="translate(23.675 300.95875)scale(0.16 -0.16)">
       <use xlink:href="#DejaVuSans-30"/>
       <use x="63.623047" xlink:href="#DejaVuSans-2e"/>
       <use x="95.410156" xlink:href="#DejaVuSans-30"/>
      </g>
     </g>
    </g>
    <g id="ytick_2">
     <g id="line2d_13">
      <path clip-path="url(#p8eb7add94f)" d="M 56.12 241.406733 
L 399.984 241.406733 
" style="fill:none;stroke:#b0b0b0;stroke-linecap:square;stroke-width:0.8;"/>
     </g>
     <g id="line2d_14">
      <g>
       <use style="stroke:#000000;stroke-width:0.8;" x="56.12" xlink:href="#m2910d345cc" y="241.406733"/>
      </g>
     </g>
     <g id="text_8">
      <!-- 0.2 -->
      <g transform="translate(23.675 247.485483)scale(0.16 -0.16)">
       <use xlink:href="#DejaVuSans-30"/>
       <use x="63.623047" xlink:href="#DejaVuSans-2e"/>
       <use x="95.410156" xlink:href="#DejaVuSans-32"/>
      </g>
     </g>
    </g>
    <g id="ytick_3">
     <g id="line2d_15">
      <path clip-path="url(#p8eb7add94f)" d="M 56.12 187.933465 
L 399.984 187.933465 
" style="fill:none;stroke:#b0b0b0;stroke-linecap:square;stroke-width:0.8;"/>
     </g>
     <g id="line2d_16">
      <g>
       <use style="stroke:#000000;stroke-width:0.8;" x="56.12" xlink:href="#m2910d345cc" y="187.933465"/>
      </g>
     </g>
     <g id="text_9">
      <!-- 0.4 -->
      <g transform="translate(23.675 194.012215)scale(0.16 -0.16)">
       <use xlink:href="#DejaVuSans-30"/>
       <use x="63.623047" xlink:href="#DejaVuSans-2e"/>
       <use x="95.410156" xlink:href="#DejaVuSans-34"/>
      </g>
     </g>
    </g>
    <g id="ytick_4">
     <g id="line2d_17">
      <path clip-path="url(#p8eb7add94f)" d="M 56.12 134.460198 
L 399.984 134.460198 
" style="fill:none;stroke:#b0b0b0;stroke-linecap:square;stroke-width:0.8;"/>
     </g>
     <g id="line2d_18">
      <g>
       <use style="stroke:#000000;stroke-width:0.8;" x="56.12" xlink:href="#m2910d345cc" y="134.460198"/>
      </g>
     </g>
     <g id="text_10">
      <!-- 0.6 -->
      <g transform="translate(23.675 140.538948)scale(0.16 -0.16)">
       <use xlink:href="#DejaVuSans-30"/>
       <use x="63.623047" xlink:href="#DejaVuSans-2e"/>
       <use x="95.410156" xlink:href="#DejaVuSans-36"/>
      </g>
     </g>
    </g>
    <g id="ytick_5">
     <g id="line2d_19">
      <path clip-path="url(#p8eb7add94f)" d="M 56.12 80.986931 
L 399.984 80.986931 
" style="fill:none;stroke:#b0b0b0;stroke-linecap:square;stroke-width:0.8;"/>
     </g>
     <g id="line2d_20">
      <g>
       <use style="stroke:#000000;stroke-width:0.8;" x="56.12" xlink:href="#m2910d345cc" y="80.986931"/>
      </g>
     </g>
     <g id="text_11">
      <!-- 0.8 -->
      <g transform="translate(23.675 87.065681)scale(0.16 -0.16)">
       <use xlink:href="#DejaVuSans-30"/>
       <use x="63.623047" xlink:href="#DejaVuSans-2e"/>
       <use x="95.410156" xlink:href="#DejaVuSans-38"/>
      </g>
     </g>
    </g>
    <g id="ytick_6">
     <g id="line2d_21">
      <path clip-path="url(#p8eb7add94f)" d="M 56.12 27.513663 
L 399.984 27.513663 
" style="fill:none;stroke:#b0b0b0;stroke-linecap:square;stroke-width:0.8;"/>
     </g>
     <g id="line2d_22">
      <g>
       <use style="stroke:#000000;stroke-width:0.8;" x="56.12" xlink:href="#m2910d345cc" y="27.513663"/>
      </g>
     </g>
     <g id="text_12">
      <!-- 1.0 -->
      <g transform="translate(23.675 33.592413)scale(0.16 -0.16)">
       <use xlink:href="#DejaVuSans-31"/>
       <use x="63.623047" xlink:href="#DejaVuSans-2e"/>
       <use x="95.410156" xlink:href="#DejaVuSans-30"/>
      </g>
     </g>
    </g>
    <g id="text_13">
     <!-- Fraction of function,target pairs -->
     <defs>
      <path d="M 9.8125 72.90625 
L 51.703125 72.90625 
L 51.703125 64.59375 
L 19.671875 64.59375 
L 19.671875 43.109375 
L 48.578125 43.109375 
L 48.578125 34.8125 
L 19.671875 34.8125 
L 19.671875 0 
L 9.8125 0 
z
" id="DejaVuSans-46"/>
      <path d="M 41.109375 46.296875 
Q 39.59375 47.171875 37.8125 47.578125 
Q 36.03125 48 33.890625 48 
Q 26.265625 48 22.1875 43.046875 
Q 18.109375 38.09375 18.109375 28.8125 
L 18.109375 0 
L 9.078125 0 
L 9.078125 54.6875 
L 18.109375 54.6875 
L 18.109375 46.1875 
Q 20.953125 51.171875 25.484375 53.578125 
Q 30.03125 56 36.53125 56 
Q 37.453125 56 38.578125 55.875 
Q 39.703125 55.765625 41.0625 55.515625 
z
" id="DejaVuSans-72"/>
      <path d="M 48.78125 52.59375 
L 48.78125 44.1875 
Q 44.96875 46.296875 41.140625 47.34375 
Q 37.3125 48.390625 33.40625 48.390625 
Q 24.65625 48.390625 19.8125 42.84375 
Q 14.984375 37.3125 14.984375 27.296875 
Q 14.984375 17.28125 19.8125 11.734375 
Q 24.65625 6.203125 33.40625 6.203125 
Q 37.3125 6.203125 41.140625 7.25 
Q 44.96875 8.296875 48.78125 10.40625 
L 48.78125 2.09375 
Q 45.015625 0.34375 40.984375 -0.53125 
Q 36.96875 -1.421875 32.421875 -1.421875 
Q 20.0625 -1.421875 12.78125 6.34375 
Q 5.515625 14.109375 5.515625 27.296875 
Q 5.515625 40.671875 12.859375 48.328125 
Q 20.21875 56 33.015625 56 
Q 37.15625 56 41.109375 55.140625 
Q 45.0625 54.296875 48.78125 52.59375 
z
" id="DejaVuSans-63"/>
      <path d="M 18.3125 70.21875 
L 18.3125 54.6875 
L 36.8125 54.6875 
L 36.8125 47.703125 
L 18.3125 47.703125 
L 18.3125 18.015625 
Q 18.3125 11.328125 20.140625 9.421875 
Q 21.96875 7.515625 27.59375 7.515625 
L 36.8125 7.515625 
L 36.8125 0 
L 27.59375 0 
Q 17.1875 0 13.234375 3.875 
Q 9.28125 7.765625 9.28125 18.015625 
L 9.28125 47.703125 
L 2.6875 47.703125 
L 2.6875 54.6875 
L 9.28125 54.6875 
L 9.28125 70.21875 
z
" id="DejaVuSans-74"/>
      <path d="M 8.5 21.578125 
L 8.5 54.6875 
L 17.484375 54.6875 
L 17.484375 21.921875 
Q 17.484375 14.15625 20.5 10.265625 
Q 23.53125 6.390625 29.59375 6.390625 
Q 36.859375 6.390625 41.078125 11.03125 
Q 45.3125 15.671875 45.3125 23.6875 
L 45.3125 54.6875 
L 54.296875 54.6875 
L 54.296875 0 
L 45.3125 0 
L 45.3125 8.40625 
Q 42.046875 3.421875 37.71875 1 
Q 33.40625 -1.421875 27.6875 -1.421875 
Q 18.265625 -1.421875 13.375 4.4375 
Q 8.5 10.296875 8.5 21.578125 
z
M 31.109375 56 
z
" id="DejaVuSans-75"/>
      <path d="M 11.71875 12.40625 
L 22.015625 12.40625 
L 22.015625 4 
L 14.015625 -11.625 
L 7.71875 -11.625 
L 11.71875 4 
z
" id="DejaVuSans-2c"/>
      <path d="M 18.109375 8.203125 
L 18.109375 -20.796875 
L 9.078125 -20.796875 
L 9.078125 54.6875 
L 18.109375 54.6875 
L 18.109375 46.390625 
Q 20.953125 51.265625 25.265625 53.625 
Q 29.59375 56 35.59375 56 
Q 45.5625 56 51.78125 48.09375 
Q 58.015625 40.1875 58.015625 27.296875 
Q 58.015625 14.40625 51.78125 6.484375 
Q 45.5625 -1.421875 35.59375 -1.421875 
Q 29.59375 -1.421875 25.265625 0.953125 
Q 20.953125 3.328125 18.109375 8.203125 
z
M 48.6875 27.296875 
Q 48.6875 37.203125 44.609375 42.84375 
Q 40.53125 48.484375 33.40625 48.484375 
Q 26.265625 48.484375 22.1875 42.84375 
Q 18.109375 37.203125 18.109375 27.296875 
Q 18.109375 17.390625 22.1875 11.75 
Q 26.265625 6.109375 33.40625 6.109375 
Q 40.53125 6.109375 44.609375 11.75 
Q 48.6875 17.390625 48.6875 27.296875 
z
" id="DejaVuSans-70"/>
     </defs>
     <g transform="translate(16.139531 294.999375)rotate(-90)scale(0.17 -0.17)">
      <use xlink:href="#DejaVuSans-46"/>
      <use x="57.410156" xlink:href="#DejaVuSans-72"/>
      <use x="98.523438" xlink:href="#DejaVuSans-61"/>
      <use x="159.802734" xlink:href="#DejaVuSans-63"/>
      <use x="214.783203" xlink:href="#DejaVuSans-74"/>
      <use x="253.992188" xlink:href="#DejaVuSans-69"/>
      <use x="281.775391" xlink:href="#DejaVuSans-6f"/>
      <use x="342.957031" xlink:href="#DejaVuSans-6e"/>
      <use x="406.335938" xlink:href="#DejaVuSans-20"/>
      <use x="438.123047" xlink:href="#DejaVuSans-6f"/>
      <use x="499.304688" xlink:href="#DejaVuSans-66"/>
      <use x="534.509766" xlink:href="#DejaVuSans-20"/>
      <use x="566.296875" xlink:href="#DejaVuSans-66"/>
      <use x="601.501953" xlink:href="#DejaVuSans-75"/>
      <use x="664.880859" xlink:href="#DejaVuSans-6e"/>
      <use x="728.259766" xlink:href="#DejaVuSans-63"/>
      <use x="783.240234" xlink:href="#DejaVuSans-74"/>
      <use x="822.449219" xlink:href="#DejaVuSans-69"/>
      <use x="850.232422" xlink:href="#DejaVuSans-6f"/>
      <use x="911.414062" xlink:href="#DejaVuSans-6e"/>
      <use x="974.792969" xlink:href="#DejaVuSans-2c"/>
      <use x="1006.580078" xlink:href="#DejaVuSans-74"/>
      <use x="1045.789062" xlink:href="#DejaVuSans-61"/>
      <use x="1107.068359" xlink:href="#DejaVuSans-72"/>
      <use x="1148.166016" xlink:href="#DejaVuSans-67"/>
      <use x="1211.642578" xlink:href="#DejaVuSans-65"/>
      <use x="1273.166016" xlink:href="#DejaVuSans-74"/>
      <use x="1312.375" xlink:href="#DejaVuSans-20"/>
      <use x="1344.162109" xlink:href="#DejaVuSans-70"/>
      <use x="1407.638672" xlink:href="#DejaVuSans-61"/>
      <use x="1468.917969" xlink:href="#DejaVuSans-69"/>
      <use x="1496.701172" xlink:href="#DejaVuSans-72"/>
      <use x="1537.814453" xlink:href="#DejaVuSans-73"/>
     </g>
    </g>
   </g>
   <g id="line2d_23">
    <defs>
     <path d="M 0 1.5 
C 0.397805 1.5 0.77937 1.341951 1.06066 1.06066 
C 1.341951 0.77937 1.5 0.397805 1.5 0 
C 1.5 -0.397805 1.341951 -0.77937 1.06066 -1.06066 
C 0.77937 -1.341951 0.397805 -1.5 0 -1.5 
C -0.397805 -1.5 -0.77937 -1.341951 -1.06066 -1.06066 
C -1.341951 -0.77937 -1.5 -0.397805 -1.5 0 
C -1.5 0.397805 -1.341951 0.77937 -1.06066 1.06066 
C -0.77937 1.341951 -0.397805 1.5 0 1.5 
z
" id="mf548519236" style="stroke:#00bfbf;"/>
    </defs>
    <g>
     <use style="fill:#00bfbf;stroke:#00bfbf;" x="175.155225" xlink:href="#mf548519236" y="27.513663"/>
     <use style="fill:#00bfbf;stroke:#00bfbf;" x="175.155225" xlink:href="#mf548519236" y="27.513663"/>
    </g>
   </g>
   <g id="line2d_24">
    <path d="M 56.12 294.88 
L 56.12 266.046375 
L 104.865056 266.046375 
L 104.865056 264.99788 
L 107.661173 264.99788 
L 107.661173 263.949385 
L 109.300972 263.949385 
L 109.300972 262.900889 
L 110.065758 262.900889 
L 110.065758 260.279651 
L 112.175115 260.279651 
L 112.175115 258.706907 
L 112.824432 258.706907 
L 112.824432 257.658412 
L 113.450132 257.658412 
L 113.450132 256.609917 
L 114.053874 256.609917 
L 114.053874 255.037173 
L 114.637146 255.037173 
L 114.637146 254.512926 
L 115.20129 254.512926 
L 115.20129 253.988678 
L 123.078247 253.988678 
L 123.078247 252.940182 
L 123.425832 252.940182 
L 123.425832 252.415935 
L 127.939774 252.415935 
L 127.939774 251.891687 
L 128.716065 251.891687 
L 128.716065 250.843192 
L 128.967235 250.843192 
L 128.967235 250.318944 
L 129.458837 250.318944 
L 129.458837 248.221953 
L 129.93678 248.221953 
L 129.93678 247.173458 
L 130.170864 247.173458 
L 130.170864 245.600714 
L 130.965949 245.600714 
L 130.965949 245.076467 
L 131.295765 245.076467 
L 131.295765 244.552219 
L 131.512181 244.552219 
L 131.512181 241.93098 
L 131.937015 241.93098 
L 131.937015 238.785494 
L 132.453716 238.785494 
L 132.453716 238.261246 
L 132.756449 238.261246 
L 132.756449 236.688503 
L 133.15198 236.688503 
L 133.249459 231.446026 
L 133.346388 231.446026 
L 133.346388 229.349035 
L 133.538623 229.349035 
L 133.538623 226.727797 
L 133.728734 226.727797 
L 133.728734 219.912576 
L 133.916767 219.912576 
L 133.916767 219.388328 
L 134.286778 219.388328 
L 134.286778 217.291338 
L 134.648999 217.291338 
L 134.648999 214.145851 
L 135.003752 214.145851 
L 135.003752 213.621604 
L 135.178422 213.621604 
L 135.178422 209.427622 
L 135.522531 209.427622 
L 135.522531 208.379126 
L 135.859892 208.379126 
L 135.859892 205.757888 
L 136.353845 205.757888 
L 136.353845 204.185145 
L 136.675441 204.185145 
L 136.675441 200.515411 
L 136.991135 200.515411 
L 137.069162 197.369924 
L 137.60566 197.369924 
L 137.60566 193.175943 
L 137.755922 193.175943 
L 137.755922 191.603199 
L 138.125933 191.603199 
L 138.19899 190.554704 
L 138.559692 190.554704 
L 138.559692 189.506209 
L 138.912987 189.506209 
L 138.982784 187.409218 
L 139.46359 187.409218 
L 139.531193 185.312227 
L 139.665607 185.312227 
L 139.665607 184.263731 
L 139.931324 184.263731 
L 139.997117 182.690988 
L 140.193 182.690988 
L 140.193 181.642493 
L 140.322361 181.642493 
L 140.322361 181.118245 
L 140.450756 181.118245 
L 140.450756 180.593997 
L 140.5782 180.593997 
L 140.5782 179.021254 
L 140.704707 179.021254 
L 140.704707 177.972759 
L 140.954964 177.972759 
L 140.954964 177.448511 
L 141.201633 177.448511 
L 141.201633 176.924263 
L 141.323654 176.924263 
L 141.384341 174.303025 
L 141.444815 174.303025 
L 141.444815 173.254529 
L 141.565129 173.254529 
L 141.565129 171.681786 
L 141.684608 171.681786 
L 141.684608 169.060547 
L 141.803263 169.060547 
L 141.862285 167.487804 
L 141.921105 167.487804 
L 141.921105 166.439309 
L 142.038145 166.439309 
L 142.096368 162.245327 
L 142.154395 162.245327 
L 142.154395 161.721079 
L 142.269864 161.721079 
L 142.269864 161.196832 
L 142.384563 161.196832 
L 142.384563 160.148336 
L 142.498503 160.148336 
L 142.498503 158.051345 
L 142.724144 158.051345 
L 142.724144 157.527098 
L 142.835865 157.527098 
L 142.946864 154.905859 
L 143.383837 154.905859 
L 143.383837 153.857364 
L 143.704433 153.857364 
L 143.809985 152.808868 
L 144.019165 152.808868 
L 144.071065 151.760373 
L 144.225833 151.760373 
L 144.328243 149.663382 
L 144.531253 149.663382 
L 144.531253 149.139134 
L 145.028538 149.139134 
L 145.028538 148.614886 
L 145.223496 148.614886 
L 145.320153 147.566391 
L 145.416269 147.566391 
L 145.511852 145.993648 
L 145.559445 145.993648 
L 145.559445 145.4694 
L 145.748512 145.4694 
L 145.795455 144.420905 
L 145.935523 144.420905 
L 146.028272 142.323914 
L 146.074459 142.323914 
L 146.120523 140.751171 
L 146.349011 140.751171 
L 146.349011 140.226923 
L 146.484661 140.226923 
L 146.484661 139.702675 
L 146.66388 139.702675 
L 146.752794 138.129932 
L 146.841251 138.129932 
L 146.841251 136.557189 
L 146.97309 136.557189 
L 147.016813 135.508693 
L 147.147318 135.508693 
L 147.147318 134.984446 
L 147.362651 134.984446 
L 147.405396 133.93595 
L 147.617542 133.93595 
L 147.701674 131.314712 
L 147.743586 131.314712 
L 147.827105 129.741969 
L 147.868713 129.741969 
L 147.91022 128.693473 
L 147.992936 128.693473 
L 148.075256 127.644978 
L 148.116269 127.644978 
L 148.198003 123.975244 
L 148.238724 123.975244 
L 148.27935 122.926748 
L 148.440899 122.926748 
L 148.521108 121.354005 
L 148.640725 121.354005 
L 148.680414 119.781262 
L 148.759517 119.781262 
L 148.759517 119.257014 
L 148.877493 119.257014 
L 148.91664 117.684271 
L 149.303282 117.684271 
L 149.303282 116.635776 
L 149.417601 116.635776 
L 149.493393 115.063032 
L 149.531165 115.063032 
L 149.531165 114.538785 
L 149.681426 114.538785 
L 149.681426 114.014537 
L 149.830387 114.014537 
L 149.904387 112.441794 
L 150.124495 112.441794 
L 150.124495 111.917546 
L 150.449465 111.917546 
L 150.485197 110.869051 
L 150.627387 110.869051 
L 150.698043 109.820555 
L 150.768411 109.820555 
L 150.838492 108.77206 
L 150.943081 108.77206 
L 151.047038 107.199317 
L 151.355193 107.199317 
L 151.456697 105.626573 
L 151.557606 105.626573 
L 151.657926 104.05383 
L 151.691237 104.05383 
L 151.724483 103.005335 
L 151.856829 103.005335 
L 151.856829 102.481087 
L 152.020842 102.481087 
L 152.086012 100.908344 
L 152.150936 100.908344 
L 152.247865 99.335601 
L 152.280054 99.335601 
L 152.344251 97.23861 
L 152.471932 97.23861 
L 152.567074 95.665867 
L 152.661693 95.665867 
L 152.724485 94.093124 
L 152.787048 94.093124 
L 152.849384 93.044628 
L 152.942468 93.044628 
L 152.942468 92.520381 
L 153.157724 92.520381 
L 153.249158 91.471885 
L 153.430582 91.471885 
L 153.430582 90.947637 
L 153.550477 90.947637 
L 153.610112 88.850646 
L 153.69918 88.850646 
L 153.787789 87.277903 
L 153.846609 87.277903 
L 153.905229 86.229408 
L 153.992786 86.229408 
L 153.992786 85.70516 
L 154.108839 85.70516 
L 154.195368 83.608169 
L 154.480696 83.608169 
L 154.537198 82.559674 
L 154.705599 82.559674 
L 154.789186 79.938435 
L 154.982656 79.938435 
L 155.010118 78.88994 
L 155.146774 78.88994 
L 155.22825 77.317197 
L 155.416872 77.317197 
L 155.416872 76.792949 
L 155.603448 76.792949 
L 155.709162 75.744454 
L 155.788023 75.744454 
L 155.866525 73.647463 
L 155.918661 73.647463 
L 156.022461 71.550472 
L 156.125639 71.550472 
L 156.151337 70.501976 
L 156.330157 70.501976 
L 156.330157 69.977729 
L 156.682316 69.977729 
L 156.682316 69.453481 
L 156.88036 69.453481 
L 156.88036 67.880738 
L 157.173215 67.880738 
L 157.269737 66.307995 
L 157.341774 66.307995 
L 157.413511 65.259499 
L 157.603359 65.259499 
L 157.603359 64.211004 
L 157.861027 64.211004 
L 157.953776 63.162508 
L 158.023011 63.162508 
L 158.023011 62.638261 
L 158.22906 62.638261 
L 158.22906 61.589765 
L 158.342474 61.589765 
L 158.342474 61.065517 
L 158.477592 61.065517 
L 158.477592 60.54127 
L 158.589384 60.54127 
L 158.700456 58.444279 
L 158.788799 58.444279 
L 158.788799 57.920031 
L 159.137706 57.920031 
L 159.202345 56.871536 
L 159.373539 56.871536 
L 159.394819 55.82304 
L 159.731768 55.82304 
L 159.814983 54.774545 
L 160.041774 54.774545 
L 160.14388 53.201802 
L 160.285818 53.201802 
L 160.285818 52.677554 
L 160.486577 52.677554 
L 160.486577 52.153306 
L 160.645515 52.153306 
L 160.645515 51.629058 
L 160.997845 51.629058 
L 160.997845 51.104811 
L 161.15215 51.104811 
L 161.15215 50.580563 
L 161.266977 50.580563 
L 161.266977 50.056315 
L 161.381043 50.056315 
L 161.381043 49.532068 
L 161.494358 49.532068 
L 161.531964 47.959324 
L 162.159006 47.959324 
L 162.159006 47.435077 
L 162.285314 47.435077 
L 162.285314 46.910829 
L 162.623548 46.910829 
L 162.728991 45.862334 
L 162.763996 45.862334 
L 162.833793 44.813838 
L 163.466333 44.813838 
L 163.466333 44.28959 
L 163.583431 44.28959 
L 163.649987 42.716847 
L 164.285767 42.716847 
L 164.285767 42.192599 
L 164.460923 42.192599 
L 164.460923 41.668352 
L 164.728158 41.668352 
L 164.728158 40.619856 
L 165.431118 40.619856 
L 165.431118 40.095609 
L 165.786787 40.095609 
L 165.889154 39.047113 
L 166.335311 39.047113 
L 166.335311 38.522865 
L 166.935623 38.522865 
L 167.031396 37.47437 
L 167.248324 37.47437 
L 167.248324 36.950122 
L 167.765902 36.950122 
L 167.765902 36.425875 
L 167.909114 36.425875 
L 167.922074 35.377379 
L 168.989482 35.377379 
L 168.989482 34.853131 
L 169.159109 34.853131 
L 169.159109 34.328884 
L 169.279255 34.328884 
L 169.279255 33.804636 
L 169.65818 33.804636 
L 169.69328 32.756141 
L 169.798153 32.756141 
L 169.798153 32.231893 
L 170.120394 32.231893 
L 170.120394 31.707645 
L 170.659142 31.707645 
L 170.659142 31.183397 
L 170.845974 31.183397 
L 170.845974 30.65915 
L 171.531688 30.65915 
L 171.531688 30.134902 
L 171.667696 30.134902 
L 171.667696 29.610654 
L 172.79695 29.610654 
L 172.79695 29.086407 
L 173.783064 29.086407 
L 173.783064 28.562159 
L 173.948143 28.562159 
L 173.948143 28.037911 
L 175.155225 28.037911 
L 175.155225 27.513663 
L 333.429677 27.513663 
L 333.429677 27.513663 
" style="fill:none;stroke:#00bfbf;stroke-linecap:square;stroke-width:1.5;"/>
   </g>
   <g id="line2d_25">
    <defs>
     <path d="M -6 0 
L 6 0 
M 0 6 
L 0 -6 
" id="m9e688acc94" style="stroke:#00bfbf;stroke-width:1.5;"/>
    </defs>
    <g>
     <use style="fill-opacity:0;stroke:#00bfbf;stroke-width:1.5;" x="137.069162" xlink:href="#m9e688acc94" y="197.369924"/>
     <use style="fill-opacity:0;stroke:#00bfbf;stroke-width:1.5;" x="164.285767" xlink:href="#m9e688acc94" y="42.716847"/>
     <use style="fill-opacity:0;stroke:#00bfbf;stroke-width:1.5;" x="175.155225" xlink:href="#m9e688acc94" y="27.513663"/>
     <use style="fill-opacity:0;stroke:#00bfbf;stroke-width:1.5;" x="175.155225" xlink:href="#m9e688acc94" y="27.513663"/>
     <use style="fill-opacity:0;stroke:#00bfbf;stroke-width:1.5;" x="333.429677" xlink:href="#m9e688acc94" y="27.513663"/>
    </g>
   </g>
   <g id="line2d_26">
    <path style="fill:none;stroke:#00bfbf;stroke-linecap:square;stroke-width:1.5;"/>
    <g/>
   </g>
   <g id="line2d_27">
    <path clip-path="url(#p8eb7add94f)" d="M 125.830417 252.415935 
" style="fill:none;stroke:#00bfbf;stroke-linecap:square;stroke-width:1.5;"/>
    <defs>
     <path d="M -12 12 
L 12 -12 
M -12 -12 
L 12 12 
" id="m8389668ff1" style="stroke:#00bfbf;stroke-width:3;"/>
    </defs>
    <g clip-path="url(#p8eb7add94f)">
     <use style="fill:#00bfbf;stroke:#00bfbf;stroke-width:3;" x="125.830417" xlink:href="#m8389668ff1" y="252.415935"/>
    </g>
   </g>
   <g id="line2d_28">
    <defs>
     <path d="M 0 1.5 
C 0.397805 1.5 0.77937 1.341951 1.06066 1.06066 
C 1.341951 0.77937 1.5 0.397805 1.5 0 
C 1.5 -0.397805 1.341951 -0.77937 1.06066 -1.06066 
C 0.77937 -1.341951 0.397805 -1.5 0 -1.5 
C -0.397805 -1.5 -0.77937 -1.341951 -1.06066 -1.06066 
C -1.341951 -0.77937 -1.5 -0.397805 -1.5 0 
C -1.5 0.397805 -1.341951 0.77937 -1.06066 1.06066 
C -0.77937 1.341951 -0.397805 1.5 0 1.5 
z
" id="mebc1fb3732" style="stroke:#008000;"/>
    </defs>
    <g>
     <use style="fill:#008000;stroke:#008000;" x="199.832691" xlink:href="#mebc1fb3732" y="27.513663"/>
     <use style="fill:#008000;stroke:#008000;" x="199.832691" xlink:href="#mebc1fb3732" y="27.513663"/>
    </g>
   </g>
   <g id="line2d_29">
    <path d="M 49.144027 294.88 
L 49.144027 276.007082 
L 104.524355 276.007082 
L 104.524355 275.482834 
L 108.225317 275.482834 
L 108.225317 274.958587 
L 108.771549 274.958587 
L 108.771549 273.910091 
L 109.300972 273.910091 
L 109.300972 273.385844 
L 109.814588 273.385844 
L 109.814588 272.337348 
L 110.313314 272.337348 
L 110.313314 271.8131 
L 110.797991 271.8131 
L 110.797991 270.764605 
L 111.269386 270.764605 
L 111.269386 270.240357 
L 111.72821 270.240357 
L 111.72821 269.191862 
L 112.610704 269.191862 
L 112.610704 268.143366 
L 113.035537 268.143366 
L 113.035537 267.094871 
L 113.450132 267.094871 
L 113.450132 266.570623 
L 126.56265 266.570623 
L 126.56265 265.522128 
L 127.126794 265.522128 
L 127.126794 264.473632 
L 127.492869 264.473632 
L 127.492869 263.949385 
L 127.673027 263.949385 
L 127.673027 262.900889 
L 128.027779 262.900889 
L 128.027779 261.328146 
L 129.050151 261.328146 
L 129.050151 260.803898 
L 130.629687 260.803898 
L 130.629687 259.231155 
L 131.796566 259.231155 
L 131.796566 258.18266 
L 132.689634 258.18266 
L 132.689634 257.658412 
L 134.408368 257.658412 
L 134.408368 257.134164 
L 135.003752 257.134164 
L 135.003752 256.609917 
L 135.579219 256.609917 
L 135.579219 256.085669 
L 135.804122 256.085669 
L 135.804122 255.037173 
L 136.026124 255.037173 
L 136.026124 253.988678 
L 136.245297 253.988678 
L 136.353845 252.940182 
L 136.461713 252.940182 
L 136.461713 252.415935 
L 137.198425 252.415935 
L 137.301141 250.318944 
L 137.60566 250.318944 
L 137.60566 249.794696 
L 137.904883 249.794696 
L 138.003478 246.64921 
L 138.101512 246.64921 
L 138.101512 244.552219 
L 138.392305 244.552219 
L 138.488154 241.406733 
L 139.23631 241.406733 
L 139.23631 239.83399 
L 139.418374 239.83399 
L 139.508688 237.736999 
L 139.598531 237.736999 
L 139.598531 236.164255 
L 139.776821 236.164255 
L 139.776821 235.640008 
L 139.953283 235.640008 
L 139.953283 235.11576 
L 140.214628 235.11576 
L 140.214628 234.067265 
L 140.386678 234.067265 
L 140.386678 230.397531 
L 140.641569 230.397531 
L 140.725701 228.30054 
L 140.809423 228.30054 
L 140.809423 227.252044 
L 140.975655 227.252044 
L 140.975655 226.727797 
L 141.22203 226.727797 
L 141.22203 226.203549 
L 141.464926 226.203549 
L 141.464926 225.679301 
L 141.624972 225.679301 
L 141.624972 224.630806 
L 141.783544 224.630806 
L 141.783544 223.58231 
L 142.173693 223.58231 
L 142.250673 222.009567 
L 142.479566 222.009567 
L 142.479566 221.485319 
L 142.705453 221.485319 
L 142.705453 220.961072 
L 143.002096 220.961072 
L 143.002096 220.436824 
L 143.651414 220.436824 
L 143.651414 219.912576 
L 144.105579 219.912576 
L 144.208705 217.815585 
L 146.514661 217.815585 
L 146.514661 217.291338 
L 146.63414 217.291338 
L 146.63414 216.76709 
L 146.870636 216.76709 
L 146.870636 216.242842 
L 147.103926 216.242842 
L 147.103926 215.718594 
L 147.334095 215.718594 
L 147.334095 215.194347 
L 147.448035 215.194347 
L 147.476402 214.145851 
L 147.701674 214.145851 
L 147.729627 213.097356 
L 147.840985 213.097356 
L 147.840985 212.04886 
L 148.006684 212.04886 
L 148.116269 211.000365 
L 148.143557 211.000365 
L 148.252277 209.427622 
L 148.387217 209.427622 
L 148.494413 208.379126 
L 148.547762 208.379126 
L 148.653965 207.330631 
L 148.864425 207.330631 
L 148.864425 206.806383 
L 149.020597 206.806383 
L 149.020597 206.282136 
L 149.175364 206.282136 
L 149.175364 205.757888 
L 149.505993 205.757888 
L 149.581398 203.660897 
L 149.631485 203.660897 
L 149.681426 202.612401 
L 149.879756 202.612401 
L 149.879756 202.088154 
L 150.100177 202.088154 
L 150.100177 201.563906 
L 150.221424 201.563906 
L 150.221424 201.039658 
L 150.413659 201.039658 
L 150.508977 199.466915 
L 150.58012 199.466915 
L 150.58012 198.41842 
L 150.768411 198.41842 
L 150.861789 197.369924 
L 150.908289 197.369924 
L 150.908289 196.845677 
L 151.023991 196.845677 
L 151.023991 195.797181 
L 151.184678 195.797181 
L 151.184678 194.748686 
L 151.389095 194.748686 
L 151.389095 194.224438 
L 151.568782 194.224438 
L 151.568782 193.70019 
L 151.944497 193.70019 
L 151.944497 193.175943 
L 152.226372 193.175943 
L 152.312182 190.554704 
L 152.630211 190.554704 
L 152.630211 190.030456 
L 153.147534 190.030456 
L 153.147534 189.506209 
L 153.350185 189.506209 
L 153.350185 188.981961 
L 153.649755 188.981961 
L 153.649755 188.457713 
L 153.768138 188.457713 
L 153.866171 186.360722 
L 154.137731 186.360722 
L 154.214538 184.787979 
L 154.386112 184.787979 
L 154.480696 183.739484 
L 154.593515 183.739484 
L 154.593515 183.215236 
L 154.705599 183.215236 
L 154.761369 182.16674 
L 155.037536 182.16674 
L 155.146774 180.593997 
L 155.183033 180.593997 
L 155.291354 179.021254 
L 155.327309 179.021254 
L 155.416872 177.972759 
L 155.576918 177.972759 
L 155.647575 175.875768 
L 155.909982 175.875768 
L 155.94467 174.827272 
L 156.338626 174.827272 
L 156.389353 173.254529 
L 156.674014 173.254529 
L 156.723763 172.206034 
L 157.019274 172.206034 
L 157.019274 171.681786 
L 157.18128 171.681786 
L 157.213498 170.633291 
L 157.56398 170.633291 
L 157.56398 170.109043 
L 158.046028 170.109043 
L 158.153033 168.5363 
L 158.334936 168.5363 
L 158.334936 168.012052 
L 158.529852 168.012052 
L 158.633899 165.390813 
L 158.693073 165.390813 
L 158.752044 164.342318 
L 159.058371 164.342318 
L 159.10169 163.293823 
L 159.273883 163.293823 
L 159.273883 162.769575 
L 159.387729 162.769575 
L 159.387729 162.245327 
L 159.500826 162.245327 
L 159.543047 161.196832 
L 159.655131 161.196832 
L 159.655131 160.672584 
L 159.76649 160.672584 
L 159.877132 159.624089 
L 160.014442 159.624089 
L 160.123507 158.575593 
L 160.299275 158.575593 
L 160.299275 158.051345 
L 160.419918 158.051345 
L 160.419918 157.527098 
L 160.579469 157.527098 
L 160.579469 157.00285 
L 160.69817 157.00285 
L 160.789929 155.954354 
L 160.842144 155.954354 
L 160.946101 153.857364 
L 161.266977 153.857364 
L 161.35576 151.236125 
L 161.481804 151.236125 
L 161.481804 150.711877 
L 161.768247 150.711877 
L 161.879048 149.663382 
L 162.134842 149.663382 
L 162.183136 148.614886 
L 162.374969 148.614886 
L 162.458229 147.566391 
L 162.505625 147.566391 
L 162.576475 146.517896 
L 162.658767 146.517896 
L 162.658767 145.993648 
L 162.984055 145.993648 
L 163.052966 144.420905 
L 163.337163 144.420905 
L 163.438335 142.848162 
L 163.638912 142.848162 
L 163.638912 142.323914 
L 163.859067 142.323914 
L 163.924568 140.226923 
L 163.978962 140.226923 
L 164.000672 139.178427 
L 164.429209 139.178427 
L 164.524176 137.605684 
L 165.042434 137.605684 
L 165.042434 137.081437 
L 165.624685 137.081437 
L 165.624685 136.557189 
L 165.811216 136.557189 
L 165.811216 136.032941 
L 165.986083 136.032941 
L 166.005403 134.984446 
L 166.149619 134.984446 
L 166.254615 133.411703 
L 166.56581 133.411703 
L 166.56581 132.887455 
L 166.760953 132.887455 
L 166.862293 131.838959 
L 166.889829 131.838959 
L 166.963041 130.266216 
L 167.08135 130.266216 
L 167.09948 129.217721 
L 167.378071 129.217721 
L 167.484713 127.644978 
L 167.520114 127.644978 
L 167.520114 127.12073 
L 167.660994 127.12073 
L 167.660994 126.596482 
L 167.809426 126.596482 
L 167.818117 125.547987 
L 167.930709 125.547987 
L 168.025407 124.499491 
L 168.059714 124.499491 
L 168.059714 123.975244 
L 168.196261 123.975244 
L 168.196261 123.450996 
L 168.331733 123.450996 
L 168.331733 122.926748 
L 168.756566 122.926748 
L 168.773015 121.878253 
L 168.952915 121.878253 
L 169.03407 120.30551 
L 169.122901 120.30551 
L 169.171162 119.257014 
L 169.394604 119.257014 
L 169.457916 117.684271 
L 169.513123 117.684271 
L 169.591684 116.635776 
L 169.669888 116.635776 
L 169.669888 116.111528 
L 169.825238 116.111528 
L 169.825238 115.58728 
L 170.20002 115.58728 
L 170.305618 113.490289 
L 170.596411 113.490289 
L 170.655458 111.917546 
L 170.787578 111.917546 
L 170.867822 110.344803 
L 170.904172 110.344803 
L 170.904172 109.820555 
L 171.048813 109.820555 
L 171.099151 108.247812 
L 171.220791 108.247812 
L 171.220791 107.723564 
L 171.440416 107.723564 
L 171.524685 106.150821 
L 171.566665 106.150821 
L 171.671169 104.578078 
L 171.830187 104.578078 
L 171.830187 104.05383 
L 172.028614 104.05383 
L 172.082953 103.005335 
L 172.365447 103.005335 
L 172.412082 101.432592 
L 172.610525 101.432592 
L 172.715433 100.384096 
L 172.76113 100.384096 
L 172.76113 99.859849 
L 172.949164 99.859849 
L 172.949164 99.335601 
L 173.103238 99.335601 
L 173.205193 97.762858 
L 173.262278 97.762858 
L 173.350703 95.665867 
L 173.551126 95.665867 
L 173.625687 94.093124 
L 173.662846 94.093124 
L 173.767698 93.044628 
L 173.786135 93.044628 
L 173.786135 92.520381 
L 174.371863 92.520381 
L 174.371863 91.996133 
L 174.5608 91.996133 
L 174.5608 91.471885 
L 174.759297 91.471885 
L 174.79409 90.42339 
L 174.886527 90.42339 
L 174.955531 89.374894 
L 175.194887 89.374894 
L 175.194887 88.850646 
L 175.335796 88.850646 
L 175.335796 88.326399 
L 175.641792 88.326399 
L 175.641792 87.802151 
L 175.817353 87.802151 
L 175.904467 86.753656 
L 176.093503 86.753656 
L 176.093503 86.229408 
L 176.237925 86.229408 
L 176.243251 85.180912 
L 176.533658 85.180912 
L 176.64326 83.608169 
L 176.68483 83.608169 
L 176.68483 83.083922 
L 176.814094 83.083922 
L 176.824393 82.035426 
L 177.07989 82.035426 
L 177.181036 80.462683 
L 177.20623 80.462683 
L 177.311643 78.88994 
L 177.446232 78.88994 
L 177.446232 78.365692 
L 177.560057 78.365692 
L 177.668233 75.744454 
L 177.897083 75.744454 
L 177.955028 73.647463 
L 178.012779 73.647463 
L 178.012779 73.123215 
L 178.132473 73.123215 
L 178.175361 72.074719 
L 178.364687 72.074719 
L 178.453892 70.501976 
L 178.551953 70.501976 
L 178.635562 68.929233 
L 178.764818 68.929233 
L 178.8657 66.832242 
L 178.897675 66.832242 
L 178.897675 66.307995 
L 179.205236 66.307995 
L 179.290198 65.259499 
L 179.472121 65.259499 
L 179.57334 63.686756 
L 179.765331 63.686756 
L 179.84326 62.638261 
L 180.057894 62.638261 
L 180.057894 62.114013 
L 180.210789 62.114013 
L 180.210789 61.589765 
L 180.640881 61.589765 
L 180.739571 60.54127 
L 180.874352 60.54127 
L 180.874352 60.017022 
L 181.308212 60.017022 
L 181.37947 57.395783 
L 181.430752 57.395783 
L 181.430752 56.871536 
L 181.642145 56.871536 
L 181.746876 55.82304 
L 181.812492 55.82304 
L 181.812492 55.298792 
L 181.977353 55.298792 
L 181.977353 54.774545 
L 182.163312 54.774545 
L 182.242398 52.677554 
L 182.440393 52.677554 
L 182.440393 52.153306 
L 182.555155 52.153306 
L 182.555155 51.629058 
L 182.898533 51.629058 
L 182.898533 51.104811 
L 183.099888 51.104811 
L 183.189023 49.532068 
L 183.502648 49.532068 
L 183.502648 49.00782 
L 183.624435 49.00782 
L 183.624435 48.483572 
L 183.745365 48.483572 
L 183.776325 47.435077 
L 184.254221 47.435077 
L 184.317615 46.386581 
L 184.413927 46.386581 
L 184.499819 45.338086 
L 184.874668 45.338086 
L 184.916533 44.28959 
L 185.02235 44.28959 
L 185.02235 43.765343 
L 185.677823 43.765343 
L 185.677823 43.241095 
L 187.109069 43.241095 
L 187.109069 42.716847 
L 187.44555 42.716847 
L 187.46775 41.668352 
L 187.561781 41.668352 
L 187.561781 41.144104 
L 187.970596 41.144104 
L 187.970596 40.619856 
L 188.134109 40.619856 
L 188.237841 39.571361 
L 188.625898 39.571361 
L 188.685426 38.522865 
L 188.757618 38.522865 
L 188.82182 37.47437 
L 188.954598 37.47437 
L 188.954598 36.950122 
L 189.564302 36.950122 
L 189.64024 35.901627 
L 190.065133 35.901627 
L 190.146019 34.853131 
L 190.372371 34.853131 
L 190.482113 33.280388 
L 190.498398 33.280388 
L 190.498398 32.756141 
L 190.99121 32.756141 
L 190.99121 32.231893 
L 191.162091 32.231893 
L 191.162091 31.707645 
L 191.306905 31.707645 
L 191.306905 31.183397 
L 191.675642 31.183397 
L 191.770924 30.134902 
L 193.30695 30.134902 
L 193.30695 29.610654 
L 194.58366 29.610654 
L 194.58366 29.086407 
L 194.986026 29.086407 
L 194.986026 28.562159 
L 196.228127 28.562159 
L 196.228127 28.037911 
L 199.832691 28.037911 
L 199.832691 27.513663 
L 333.429677 27.513663 
L 333.429677 27.513663 
" style="fill:none;stroke:#008000;stroke-linecap:square;stroke-width:1.5;"/>
   </g>
   <g id="line2d_30">
    <defs>
     <path d="M -0 6 
L 6 -6 
L -6 -6 
z
" id="mce19aaafe0" style="stroke:#008000;stroke-linejoin:miter;stroke-width:1.5;"/>
    </defs>
    <g>
     <use style="fill-opacity:0;stroke:#008000;stroke-linejoin:miter;stroke-width:1.5;" x="154.761369" xlink:href="#mce19aaafe0" y="182.16674"/>
     <use style="fill-opacity:0;stroke:#008000;stroke-linejoin:miter;stroke-width:1.5;" x="182.193483" xlink:href="#mce19aaafe0" y="54.250297"/>
     <use style="fill-opacity:0;stroke:#008000;stroke-linejoin:miter;stroke-width:1.5;" x="199.832691" xlink:href="#mce19aaafe0" y="28.037911"/>
     <use style="fill-opacity:0;stroke:#008000;stroke-linejoin:miter;stroke-width:1.5;" x="199.832691" xlink:href="#mce19aaafe0" y="27.513663"/>
     <use style="fill-opacity:0;stroke:#008000;stroke-linejoin:miter;stroke-width:1.5;" x="333.429677" xlink:href="#mce19aaafe0" y="27.513663"/>
    </g>
   </g>
   <g id="line2d_31">
    <path style="fill:none;stroke:#008000;stroke-linecap:square;stroke-width:1.5;"/>
    <g/>
   </g>
   <g id="line2d_32">
    <path clip-path="url(#p8eb7add94f)" d="M 135.293891 256.609917 
" style="fill:none;stroke:#008000;stroke-linecap:square;stroke-width:1.5;"/>
    <defs>
     <path d="M -12 12 
L 12 -12 
M -12 -12 
L 12 12 
" id="md0d1b7829e" style="stroke:#008000;stroke-width:3;"/>
    </defs>
    <g clip-path="url(#p8eb7add94f)">
     <use style="fill:#008000;stroke:#008000;stroke-width:3;" x="135.293891" xlink:href="#md0d1b7829e" y="256.609917"/>
    </g>
   </g>
   <g id="line2d_33">
    <defs>
     <path d="M 0 1.5 
C 0.397805 1.5 0.77937 1.341951 1.06066 1.06066 
C 1.341951 0.77937 1.5 0.397805 1.5 0 
C 1.5 -0.397805 1.341951 -0.77937 1.06066 -1.06066 
C 0.77937 -1.341951 0.397805 -1.5 0 -1.5 
C -0.397805 -1.5 -0.77937 -1.341951 -1.06066 -1.06066 
C -1.341951 -0.77937 -1.5 -0.397805 -1.5 0 
C -1.5 0.397805 -1.341951 0.77937 -1.06066 1.06066 
C -0.77937 1.341951 -0.397805 1.5 0 1.5 
z
" id="me0e5c1e85c" style="stroke:#0000ff;"/>
    </defs>
    <g>
     <use style="fill:#0000ff;stroke:#0000ff;" x="209.241024" xlink:href="#me0e5c1e85c" y="27.513663"/>
     <use style="fill:#0000ff;stroke:#0000ff;" x="209.241024" xlink:href="#me0e5c1e85c" y="27.513663"/>
    </g>
   </g>
   <g id="line2d_34">
    <path d="M 40.355341 294.88 
L 40.355341 282.822302 
L 108.33596 282.822302 
L 108.33596 282.298055 
L 108.663681 282.298055 
L 108.663681 281.249559 
L 110.214719 281.249559 
L 110.214719 280.725312 
L 110.508826 280.725312 
L 110.508826 279.676816 
L 111.908367 279.676816 
L 111.908367 279.152568 
L 112.175115 279.152568 
L 112.175115 277.579825 
L 112.437789 277.579825 
L 112.437789 277.055578 
L 112.696514 277.055578 
L 112.696514 276.53133 
L 112.951406 276.53133 
L 112.951406 275.482834 
L 113.202576 275.482834 
L 113.202576 274.958587 
L 113.694177 274.958587 
L 113.694177 272.337348 
L 113.934809 272.337348 
L 113.934809 271.8131 
L 114.172121 271.8131 
L 114.172121 271.288853 
L 114.406204 271.288853 
L 114.406204 270.240357 
L 125.860313 270.240357 
L 125.860313 269.716109 
L 125.979378 269.716109 
L 125.979378 269.191862 
L 126.903352 269.191862 
L 126.903352 268.143366 
L 128.716065 268.143366 
L 128.716065 267.619119 
L 132.915754 267.619119 
L 132.915754 267.094871 
L 134.139727 267.094871 
L 134.139727 266.570623 
L 135.826452 266.570623 
L 135.826452 266.046375 
L 136.991135 266.046375 
L 136.991135 264.99788 
L 137.177808 264.99788 
L 137.177808 264.473632 
L 138.257213 264.473632 
L 138.257213 263.949385 
L 138.716037 263.949385 
L 138.716037 263.425137 
L 139.490663 263.425137 
L 139.490663 262.900889 
L 139.865278 262.900889 
L 139.865278 261.852394 
L 140.023364 261.852394 
L 140.075738 260.279651 
L 140.23191 260.279651 
L 140.23191 258.706907 
L 140.692098 258.706907 
L 140.692098 258.18266 
L 141.23833 258.18266 
L 141.23833 257.658412 
L 142.096368 257.658412 
L 142.096368 257.134164 
L 143.862519 257.134164 
L 143.862519 256.609917 
L 147.242397 256.609917 
L 147.242397 256.085669 
L 148.440899 256.085669 
L 148.440899 255.561421 
L 149.195895 255.561421 
L 149.195895 255.037173 
L 150.413659 255.037173 
L 150.413659 254.512926 
L 150.584853 254.512926 
L 150.584853 253.988678 
L 150.977803 253.988678 
L 150.977803 253.46443 
L 153.212642 253.46443 
L 153.212642 252.940182 
L 153.406502 252.940182 
L 153.502619 251.891687 
L 153.622015 251.891687 
L 153.622015 251.367439 
L 153.97531 251.367439 
L 153.97531 250.318944 
L 154.638437 250.318944 
L 154.727929 247.697705 
L 154.75023 247.697705 
L 154.839144 246.64921 
L 154.927601 246.64921 
L 154.971659 245.076467 
L 155.146774 245.076467 
L 155.255322 241.93098 
L 155.27695 241.93098 
L 155.384683 239.83399 
L 155.449 239.83399 
L 155.449 238.785494 
L 155.598146 238.785494 
L 155.661671 236.688503 
L 155.724963 236.688503 
L 155.788023 232.494521 
L 155.871746 232.494521 
L 155.965449 227.252044 
L 155.99657 227.252044 
L 156.079286 224.106558 
L 156.161606 224.106558 
L 156.161606 223.58231 
L 156.547336 223.58231 
L 156.547336 221.485319 
L 156.786573 221.485319 
L 156.786573 219.388328 
L 156.983427 219.388328 
L 156.983427 218.864081 
L 157.119897 218.864081 
L 157.139305 217.815585 
L 157.541888 217.815585 
L 157.598639 216.242842 
L 157.823787 216.242842 
L 157.823787 215.718594 
L 158.337952 215.718594 
L 158.374097 213.621604 
L 158.749101 213.621604 
L 158.749101 213.097356 
L 158.907348 213.097356 
L 159.012043 212.04886 
L 159.029431 212.04886 
L 159.029431 211.000365 
L 159.185132 211.000365 
L 159.202345 209.427622 
L 160.46261 209.427622 
L 160.46261 208.903374 
L 160.920171 208.903374 
L 160.951283 207.854879 
L 161.365878 207.854879 
L 161.365878 207.330631 
L 161.918272 207.330631 
L 161.918272 206.806383 
L 162.439233 206.806383 
L 162.481943 205.757888 
L 162.665803 205.757888 
L 162.763996 203.660897 
L 163.000159 203.660897 
L 163.082742 202.088154 
L 163.301047 202.088154 
L 163.409169 199.466915 
L 163.422636 199.466915 
L 163.503221 196.845677 
L 163.543373 196.845677 
L 163.623395 195.797181 
L 163.689798 195.797181 
L 163.689798 195.272933 
L 163.80868 195.272933 
L 163.90058 193.70019 
L 163.978962 193.70019 
L 164.082919 190.030456 
L 164.09587 190.030456 
L 164.14112 187.409218 
L 164.211989 187.409218 
L 164.301765 185.312227 
L 164.391074 185.312227 
L 164.416507 183.739484 
L 164.505224 183.739484 
L 164.505224 183.215236 
L 164.731277 183.215236 
L 164.737514 182.16674 
L 164.979011 182.16674 
L 165.077115 181.118245 
L 165.125958 181.118245 
L 165.198963 179.545502 
L 165.392142 179.545502 
L 165.392142 179.021254 
L 165.725074 179.021254 
L 165.725074 178.497006 
L 166.028559 178.497006 
L 166.028559 177.972759 
L 166.166844 177.972759 
L 166.178318 176.924263 
L 166.292637 176.924263 
L 166.292637 176.400016 
L 166.440124 176.400016 
L 166.440124 175.875768 
L 166.803404 175.875768 
L 166.803404 175.35152 
L 166.984944 175.35152 
L 166.984944 174.827272 
L 167.427919 174.827272 
L 167.459889 173.254529 
L 167.703034 173.254529 
L 167.776358 172.206034 
L 167.901333 172.206034 
L 167.901333 171.681786 
L 168.169038 171.681786 
L 168.250578 170.109043 
L 168.351962 170.109043 
L 168.351962 169.584795 
L 168.47284 169.584795 
L 168.532962 168.012052 
L 168.60284 168.012052 
L 168.66251 166.439309 
L 168.781233 166.439309 
L 168.86974 164.342318 
L 168.899142 164.342318 
L 168.987047 161.196832 
L 169.16152 161.196832 
L 169.219287 158.575593 
L 169.286437 158.575593 
L 169.353327 155.430107 
L 169.400946 155.430107 
L 169.48633 153.333116 
L 169.514698 153.333116 
L 169.561873 151.760373 
L 169.962329 151.760373 
L 169.989923 150.711877 
L 170.081585 150.711877 
L 170.172761 149.139134 
L 170.344675 149.139134 
L 170.398609 148.090639 
L 170.7627 148.090639 
L 170.854716 147.042143 
L 170.894002 147.042143 
L 170.980983 144.945152 
L 171.076158 144.945152 
L 171.076158 144.420905 
L 171.205098 144.420905 
L 171.205098 143.896657 
L 171.56946 143.896657 
L 171.648928 142.848162 
L 171.802637 142.848162 
L 171.802637 142.323914 
L 171.975469 142.323914 
L 171.975469 141.799666 
L 172.40809 141.799666 
L 172.40809 141.275418 
L 172.775467 141.275418 
L 172.841782 139.702675 
L 172.946584 139.702675 
L 173.039208 137.081437 
L 173.146643 137.081437 
L 173.146643 136.557189 
L 173.295175 136.557189 
L 173.389718 132.887455 
L 173.419862 132.887455 
L 173.509979 130.790464 
L 173.562331 130.790464 
L 173.592174 129.741969 
L 173.681396 129.741969 
L 173.788592 127.12073 
L 173.825402 127.12073 
L 173.825402 126.596482 
L 173.953619 126.596482 
L 174.033726 125.023739 
L 174.343343 125.023739 
L 174.343343 124.499491 
L 174.457142 124.499491 
L 174.556102 123.450996 
L 174.724435 123.450996 
L 174.741875 122.4025 
L 174.967005 122.4025 
L 174.967005 121.878253 
L 175.284075 121.878253 
L 175.368322 119.781262 
L 175.401906 119.781262 
L 175.448813 118.732766 
L 175.538917 118.732766 
L 175.538917 118.208519 
L 175.68145 118.208519 
L 175.68145 117.684271 
L 175.829357 117.684271 
L 175.829357 117.160023 
L 175.969513 117.160023 
L 175.969513 116.635776 
L 176.24964 116.635776 
L 176.24964 116.111528 
L 176.367406 116.111528 
L 176.474917 114.014537 
L 176.50641 114.014537 
L 176.588024 112.966042 
L 176.687944 112.966042 
L 176.793477 111.393298 
L 176.879902 111.393298 
L 176.965896 108.77206 
L 177.242444 108.77206 
L 177.263534 107.723564 
L 177.455167 107.723564 
L 177.461121 106.675069 
L 177.644689 106.675069 
L 177.644689 106.150821 
L 177.767938 106.150821 
L 177.767938 105.626573 
L 177.91352 105.626573 
L 177.977189 104.578078 
L 178.461383 104.578078 
L 178.500658 103.005335 
L 178.71231 103.005335 
L 178.759299 101.956839 
L 178.943251 101.956839 
L 179.052143 100.384096 
L 179.062994 100.384096 
L 179.16035 98.811353 
L 179.259839 98.811353 
L 179.259839 98.287105 
L 179.406673 98.287105 
L 179.427927 97.23861 
L 179.56544 97.23861 
L 179.652141 96.190115 
L 179.75144 96.190115 
L 179.75144 95.665867 
L 179.863118 95.665867 
L 179.94576 94.617371 
L 180.066424 94.617371 
L 180.066424 94.093124 
L 180.443456 94.093124 
L 180.535814 93.044628 
L 180.814852 93.044628 
L 180.814852 92.520381 
L 181.072553 92.520381 
L 181.168804 91.471885 
L 181.247808 91.471885 
L 181.247808 90.947637 
L 181.480309 90.947637 
L 181.576656 89.374894 
L 181.623459 89.374894 
L 181.730626 87.802151 
L 181.807097 87.802151 
L 181.867109 86.229408 
L 182.182175 86.229408 
L 182.182175 85.70516 
L 182.404699 85.70516 
L 182.404699 85.180912 
L 182.562532 85.180912 
L 182.562532 84.656665 
L 182.982237 84.656665 
L 182.982237 84.132417 
L 183.281944 84.132417 
L 183.281944 83.608169 
L 183.572346 83.608169 
L 183.620273 82.559674 
L 183.728141 82.559674 
L 183.788006 81.511178 
L 183.847663 81.511178 
L 183.878439 80.462683 
L 184.003031 80.462683 
L 184.110555 78.88994 
L 184.116622 78.88994 
L 184.116622 78.365692 
L 184.373475 78.365692 
L 184.373475 77.841444 
L 184.614771 77.841444 
L 184.70488 75.744454 
L 184.775072 75.744454 
L 184.821708 74.695958 
L 185.043436 74.695958 
L 185.043436 74.17171 
L 185.247204 74.17171 
L 185.356657 73.123215 
L 185.414874 73.123215 
L 185.519542 70.501976 
L 185.675361 70.501976 
L 185.675361 69.977729 
L 185.933783 69.977729 
L 186.020878 67.880738 
L 186.585256 67.880738 
L 186.585256 67.35649 
L 186.858065 67.35649 
L 186.952621 66.307995 
L 187.089236 66.307995 
L 187.140188 64.735251 
L 187.39271 64.735251 
L 187.466086 63.686756 
L 187.593745 63.686756 
L 187.593745 63.162508 
L 187.745041 63.162508 
L 187.854392 62.114013 
L 188.250035 62.114013 
L 188.342006 61.065517 
L 188.435061 61.065517 
L 188.435061 60.54127 
L 188.627453 60.54127 
L 188.627453 60.017022 
L 188.822332 60.017022 
L 188.822332 59.492774 
L 189.219122 59.492774 
L 189.219122 58.968526 
L 189.350869 58.968526 
L 189.350869 58.444279 
L 189.509714 58.444279 
L 189.509714 57.920031 
L 189.649526 57.920031 
L 189.649526 57.395783 
L 189.862204 57.395783 
L 189.970443 55.82304 
L 190.162151 55.82304 
L 190.173529 54.774545 
L 190.360186 54.774545 
L 190.360186 54.250297 
L 190.532313 54.250297 
L 190.532313 53.726049 
L 190.695841 53.726049 
L 190.748173 52.677554 
L 190.974933 52.677554 
L 190.974933 52.153306 
L 191.182662 52.153306 
L 191.204101 51.104811 
L 191.337494 51.104811 
L 191.337494 50.580563 
L 191.573714 50.580563 
L 191.671732 49.00782 
L 192.017493 49.00782 
L 192.017493 48.483572 
L 192.151086 48.483572 
L 192.151086 47.959324 
L 192.297479 47.959324 
L 192.297479 47.435077 
L 192.416449 47.435077 
L 192.438899 46.386581 
L 192.660564 46.386581 
L 192.660564 45.862334 
L 192.794159 45.862334 
L 192.87212 44.813838 
L 192.921878 44.813838 
L 192.921878 44.28959 
L 193.059479 44.28959 
L 193.059479 43.765343 
L 193.237683 43.765343 
L 193.237683 43.241095 
L 193.839783 43.241095 
L 193.914301 42.192599 
L 194.717739 42.192599 
L 194.717739 41.668352 
L 195.144729 41.668352 
L 195.144729 41.144104 
L 195.266768 41.144104 
L 195.279453 40.095609 
L 195.382697 40.095609 
L 195.42466 39.047113 
L 195.642268 39.047113 
L 195.642268 38.522865 
L 195.964113 38.522865 
L 195.964113 37.998618 
L 197.131009 37.998618 
L 197.131009 37.47437 
L 197.338503 37.47437 
L 197.338503 36.950122 
L 197.468324 36.950122 
L 197.499001 35.901627 
L 197.588858 35.901627 
L 197.588858 35.377379 
L 197.75986 35.377379 
L 197.75986 34.853131 
L 197.935519 34.853131 
L 197.935519 34.328884 
L 198.347096 34.328884 
L 198.4555 32.756141 
L 199.201674 32.756141 
L 199.201674 32.231893 
L 199.990109 32.231893 
L 199.990109 31.707645 
L 201.105508 31.707645 
L 201.105508 31.183397 
L 201.810857 31.183397 
L 201.810857 30.65915 
L 202.792894 30.65915 
L 202.808591 29.610654 
L 202.940425 29.610654 
L 202.940425 29.086407 
L 203.360386 29.086407 
L 203.360386 28.562159 
L 206.110494 28.562159 
L 206.110494 28.037911 
L 209.241024 28.037911 
L 209.241024 27.513663 
L 333.429677 27.513663 
L 333.429677 27.513663 
" style="fill:none;stroke:#0000ff;stroke-linecap:square;stroke-width:1.5;"/>
   </g>
   <g id="line2d_35">
    <defs>
     <path d="M 0 -6 
L -1.347084 -1.854102 
L -5.706339 -1.854102 
L -2.179628 0.708204 
L -3.526712 4.854102 
L -0 2.291796 
L 3.526712 4.854102 
L 2.179628 0.708204 
L 5.706339 -1.854102 
L 1.347084 -1.854102 
z
" id="ma74e37ea33" style="stroke:#0000ff;stroke-linejoin:bevel;stroke-width:1.5;"/>
    </defs>
    <g>
     <use style="fill-opacity:0;stroke:#0000ff;stroke-linejoin:bevel;stroke-width:1.5;" x="155.903037" xlink:href="#ma74e37ea33" y="230.921778"/>
     <use style="fill-opacity:0;stroke:#0000ff;stroke-linejoin:bevel;stroke-width:1.5;" x="179.427927" xlink:href="#ma74e37ea33" y="97.23861"/>
     <use style="fill-opacity:0;stroke:#0000ff;stroke-linejoin:bevel;stroke-width:1.5;" x="209.241024" xlink:href="#ma74e37ea33" y="28.037911"/>
     <use style="fill-opacity:0;stroke:#0000ff;stroke-linejoin:bevel;stroke-width:1.5;" x="209.241024" xlink:href="#ma74e37ea33" y="27.513663"/>
     <use style="fill-opacity:0;stroke:#0000ff;stroke-linejoin:bevel;stroke-width:1.5;" x="209.241024" xlink:href="#ma74e37ea33" y="27.513663"/>
     <use style="fill-opacity:0;stroke:#0000ff;stroke-linejoin:bevel;stroke-width:1.5;" x="333.429677" xlink:href="#ma74e37ea33" y="27.513663"/>
    </g>
   </g>
   <g id="line2d_36">
    <path style="fill:none;stroke:#0000ff;stroke-linecap:square;stroke-width:1.5;"/>
    <g/>
   </g>
   <g id="line2d_37">
    <path clip-path="url(#p8eb7add94f)" d="M 146.929256 256.609917 
" style="fill:none;stroke:#0000ff;stroke-linecap:square;stroke-width:1.5;"/>
    <defs>
     <path d="M -12 12 
L 12 -12 
M -12 -12 
L 12 12 
" id="m9499e4d0ac" style="stroke:#0000ff;stroke-width:3;"/>
    </defs>
    <g clip-path="url(#p8eb7add94f)">
     <use style="fill:#0000ff;stroke:#0000ff;stroke-width:3;" x="146.929256" xlink:href="#m9499e4d0ac" y="256.609917"/>
    </g>
   </g>
   <g id="line2d_38">
    <defs>
     <path d="M 0 1.5 
C 0.397805 1.5 0.77937 1.341951 1.06066 1.06066 
C 1.341951 0.77937 1.5 0.397805 1.5 0 
C 1.5 -0.397805 1.341951 -0.77937 1.06066 -1.06066 
C 0.77937 -1.341951 0.397805 -1.5 0 -1.5 
C -0.397805 -1.5 -0.77937 -1.341951 -1.06066 -1.06066 
C -1.341951 -0.77937 -1.5 -0.397805 -1.5 0 
C -1.5 0.397805 -1.341951 0.77937 -1.06066 1.06066 
C -0.77937 1.341951 -0.397805 1.5 0 1.5 
z
" id="m8fb547bc55" style="stroke:#000000;"/>
    </defs>
    <g>
     <use style="stroke:#000000;" x="214.883014" xlink:href="#m8fb547bc55" y="221.485319"/>
     <use style="stroke:#000000;" x="214.883014" xlink:href="#m8fb547bc55" y="221.485319"/>
    </g>
   </g>
   <g id="line2d_39">
    <path d="M 28.429836 294.88 
L 28.429836 287.540532 
L 113.3268 287.540532 
L 113.3268 287.016284 
L 114.172121 287.016284 
L 114.172121 286.492036 
L 115.639654 286.492036 
L 115.639654 285.443541 
L 115.96125 285.443541 
L 115.96125 284.395046 
L 116.58695 284.395046 
L 116.58695 283.870798 
L 116.991789 283.870798 
L 116.991789 282.822302 
L 117.581728 282.822302 
L 117.581728 280.725312 
L 126.619904 280.725312 
L 126.619904 280.201064 
L 133.191038 280.201064 
L 133.191038 279.152568 
L 134.468842 279.152568 
L 134.468842 278.628321 
L 134.968604 278.628321 
L 134.968604 278.104073 
L 136.125097 278.104073 
L 136.125097 277.055578 
L 136.834012 277.055578 
L 136.834012 275.482834 
L 137.454074 275.482834 
L 137.545186 273.385844 
L 137.725974 273.385844 
L 137.725974 272.337348 
L 138.19899 272.337348 
L 138.19899 271.8131 
L 138.31524 271.8131 
L 138.31524 271.288853 
L 140.61625 271.288853 
L 140.61625 270.764605 
L 144.419894 270.764605 
L 144.419894 270.240357 
L 149.948634 270.240357 
L 149.948634 269.716109 
L 150.838492 269.716109 
L 150.838492 268.667614 
L 151.483664 268.667614 
L 151.483664 268.143366 
L 151.737763 268.143366 
L 151.737763 267.619119 
L 154.816958 267.619119 
L 154.816958 267.094871 
L 154.982656 267.094871 
L 155.021091 265.522128 
L 155.255322 265.522128 
L 155.255322 264.99788 
L 156.192375 264.99788 
L 156.192375 264.473632 
L 157.70689 264.473632 
L 157.70689 263.949385 
L 157.939896 263.949385 
L 157.939896 263.425137 
L 160.514498 263.425137 
L 160.597988 262.376641 
L 161.434016 262.376641 
L 161.437794 261.328146 
L 162.031764 261.328146 
L 162.031764 260.803898 
L 163.409169 260.803898 
L 163.44954 259.755403 
L 163.864535 259.755403 
L 163.864535 258.706907 
L 165.00359 258.706907 
L 165.00359 257.658412 
L 165.422132 257.658412 
L 165.422132 257.134164 
L 165.600978 257.134164 
L 165.600978 256.609917 
L 165.783854 256.609917 
L 165.783854 256.085669 
L 167.09948 256.085669 
L 167.102198 255.037173 
L 167.700409 255.037173 
L 167.700409 253.988678 
L 168.117879 253.988678 
L 168.117879 253.46443 
L 168.945592 253.46443 
L 168.945592 252.940182 
L 169.250497 252.940182 
L 169.288831 251.891687 
L 169.419957 251.891687 
L 169.419957 251.367439 
L 170.459083 251.367439 
L 170.568293 249.794696 
L 170.630388 249.794696 
L 170.630388 249.270448 
L 172.279844 249.270448 
L 172.279844 248.746201 
L 172.600657 248.746201 
L 172.600657 247.697705 
L 172.960123 247.697705 
L 173.060364 246.64921 
L 173.325485 246.64921 
L 173.402912 245.600714 
L 173.483744 245.600714 
L 173.500614 244.552219 
L 173.618245 244.552219 
L 173.618245 244.027971 
L 174.273626 244.027971 
L 174.273626 243.503724 
L 174.517293 243.503724 
L 174.517293 242.979476 
L 174.733157 242.979476 
L 174.734901 241.93098 
L 176.83983 241.93098 
L 176.83983 241.406733 
L 177.775246 241.406733 
L 177.778169 240.358237 
L 178.573358 240.358237 
L 178.573358 239.83399 
L 178.93369 239.83399 
L 178.937788 238.785494 
L 179.344088 238.785494 
L 179.344088 238.261246 
L 179.680944 238.261246 
L 179.680944 237.736999 
L 180.264826 237.736999 
L 180.264826 236.688503 
L 180.377001 236.688503 
L 180.378257 235.640008 
L 180.591737 235.640008 
L 180.591737 235.11576 
L 181.615278 235.11576 
L 181.615278 234.591512 
L 182.093718 234.591512 
L 182.093718 234.067265 
L 183.680514 234.067265 
L 183.680514 233.543017 
L 183.810659 233.543017 
L 183.810659 233.018769 
L 184.343573 233.018769 
L 184.343573 232.494521 
L 185.605046 232.494521 
L 185.639314 231.446026 
L 186.184795 231.446026 
L 186.184795 230.921778 
L 187.368461 230.921778 
L 187.368461 230.397531 
L 188.331723 230.397531 
L 188.334097 229.349035 
L 188.792316 229.349035 
L 188.792316 228.824787 
L 188.992963 228.824787 
L 188.992963 228.30054 
L 189.866547 228.30054 
L 189.866547 227.776292 
L 190.822951 227.776292 
L 190.822951 227.252044 
L 192.599551 227.252044 
L 192.599551 226.727797 
L 193.396975 226.727797 
L 193.396975 226.203549 
L 194.208059 226.203549 
L 194.208059 225.679301 
L 195.893904 225.679301 
L 195.894923 224.630806 
L 198.962784 224.630806 
L 198.962784 224.106558 
L 199.885324 224.106558 
L 199.885324 223.58231 
L 204.172014 223.58231 
L 204.172014 223.058063 
L 208.089261 223.058063 
L 208.089261 222.533815 
L 213.103725 222.533815 
L 213.103725 222.009567 
L 214.883014 222.009567 
L 214.883014 221.485319 
L 333.429677 221.485319 
L 333.429677 221.485319 
" style="fill:none;stroke:#000000;stroke-linecap:square;stroke-width:1.5;"/>
   </g>
   <g id="line2d_40">
    <defs>
     <path d="M 0 6 
C 1.591219 6 3.117479 5.367802 4.242641 4.242641 
C 5.367802 3.117479 6 1.591219 6 0 
C 6 -1.591219 5.367802 -3.117479 4.242641 -4.242641 
C 3.117479 -5.367802 1.591219 -6 0 -6 
C -1.591219 -6 -3.117479 -5.367802 -4.242641 -4.242641 
C -5.367802 -3.117479 -6 -1.591219 -6 0 
C -6 1.591219 -5.367802 3.117479 -4.242641 4.242641 
C -3.117479 5.367802 -1.591219 6 0 6 
z
" id="mae59929547" style="stroke:#000000;stroke-width:1.5;"/>
    </defs>
    <g>
     <use style="fill-opacity:0;stroke:#000000;stroke-width:1.5;" x="155.015605" xlink:href="#mae59929547" y="266.570623"/>
     <use style="fill-opacity:0;stroke:#000000;stroke-width:1.5;" x="208.089261" xlink:href="#mae59929547" y="223.058063"/>
     <use style="fill-opacity:0;stroke:#000000;stroke-width:1.5;" x="214.883014" xlink:href="#mae59929547" y="221.485319"/>
     <use style="fill-opacity:0;stroke:#000000;stroke-width:1.5;" x="214.883014" xlink:href="#mae59929547" y="221.485319"/>
     <use style="fill-opacity:0;stroke:#000000;stroke-width:1.5;" x="333.429677" xlink:href="#mae59929547" y="221.485319"/>
    </g>
   </g>
   <g id="line2d_41">
    <path style="fill:none;stroke:#000000;stroke-linecap:square;stroke-width:1.5;"/>
    <g/>
   </g>
   <g id="line2d_42">
    <path clip-path="url(#p8eb7add94f)" d="M 147.276841 270.240357 
" style="fill:none;stroke:#000000;stroke-linecap:square;stroke-width:1.5;"/>
    <defs>
     <path d="M -12 12 
L 12 -12 
M -12 -12 
L 12 12 
" id="mc1ca519f21" style="stroke:#000000;stroke-width:3;"/>
    </defs>
    <g clip-path="url(#p8eb7add94f)">
     <use style="stroke:#000000;stroke-width:3;" x="147.276841" xlink:href="#mc1ca519f21" y="270.240357"/>
    </g>
   </g>
   <g id="line2d_43">
    <defs>
     <path d="M 0 1.5 
C 0.397805 1.5 0.77937 1.341951 1.06066 1.06066 
C 1.341951 0.77937 1.5 0.397805 1.5 0 
C 1.5 -0.397805 1.341951 -0.77937 1.06066 -1.06066 
C 0.77937 -1.341951 0.397805 -1.5 0 -1.5 
C -0.397805 -1.5 -0.77937 -1.341951 -1.06066 -1.06066 
C -1.341951 -0.77937 -1.5 -0.397805 -1.5 0 
C -1.5 0.397805 -1.341951 0.77937 -1.06066 1.06066 
C -0.77937 1.341951 -0.397805 1.5 0 1.5 
z
" id="mbd7fbfc058" style="stroke:#ff0000;"/>
    </defs>
    <g>
     <use style="fill:#ff0000;stroke:#ff0000;" x="209.495989" xlink:href="#mbd7fbfc058" y="273.910091"/>
     <use style="fill:#ff0000;stroke:#ff0000;" x="209.495989" xlink:href="#mbd7fbfc058" y="273.910091"/>
    </g>
   </g>
   <g id="line2d_44">
    <path d="M 16.504332 294.88 
L 16.504332 289.637523 
L 120.629716 289.637523 
L 120.629716 289.113275 
L 121.343384 289.113275 
L 121.343384 288.589027 
L 123.494514 288.589027 
L 123.494514 287.540532 
L 142.645506 287.540532 
L 142.645506 286.492036 
L 145.776693 286.492036 
L 145.776693 285.967789 
L 146.832426 285.967789 
L 146.832426 285.443541 
L 149.568853 285.443541 
L 149.568853 284.919293 
L 154.332916 284.919293 
L 154.332916 284.395046 
L 154.850226 284.395046 
L 154.850226 283.870798 
L 154.852995 283.870798 
L 154.852995 283.34655 
L 158.468617 283.34655 
L 158.468617 282.822302 
L 167.663624 282.822302 
L 167.663624 281.773807 
L 169.089038 281.773807 
L 169.089038 281.249559 
L 170.830664 281.249559 
L 170.830664 280.725312 
L 171.97035 280.725312 
L 171.97035 280.201064 
L 172.255691 280.201064 
L 172.255691 279.676816 
L 173.182942 279.676816 
L 173.182942 279.152568 
L 173.355742 279.152568 
L 173.355742 278.628321 
L 174.879035 278.628321 
L 174.879035 278.104073 
L 178.669355 278.104073 
L 178.669355 277.055578 
L 178.670742 277.055578 
L 178.670742 276.53133 
L 180.693792 276.53133 
L 180.693792 276.007082 
L 183.996925 276.007082 
L 183.996925 275.482834 
L 188.843466 275.482834 
L 188.843466 274.958587 
L 201.205011 274.958587 
L 201.205011 274.434339 
L 209.495989 274.434339 
L 209.495989 273.910091 
L 333.429677 273.910091 
" style="fill:none;stroke:#ff0000;stroke-linecap:square;stroke-width:1.5;"/>
   </g>
   <g id="line2d_45">
    <defs>
     <path d="M -6 6 
L 6 6 
L 6 -6 
L -6 -6 
z
" id="mb2894dc50f" style="stroke:#ff0000;stroke-linejoin:miter;stroke-width:1.5;"/>
    </defs>
    <g>
     <use style="fill-opacity:0;stroke:#ff0000;stroke-linejoin:miter;stroke-width:1.5;" x="154.852995" xlink:href="#mb2894dc50f" y="283.34655"/>
     <use style="fill-opacity:0;stroke:#ff0000;stroke-linejoin:miter;stroke-width:1.5;" x="201.205011" xlink:href="#mb2894dc50f" y="274.958587"/>
     <use style="fill-opacity:0;stroke:#ff0000;stroke-linejoin:miter;stroke-width:1.5;" x="209.495989" xlink:href="#mb2894dc50f" y="273.910091"/>
     <use style="fill-opacity:0;stroke:#ff0000;stroke-linejoin:miter;stroke-width:1.5;" x="209.495989" xlink:href="#mb2894dc50f" y="273.910091"/>
     <use style="fill-opacity:0;stroke:#ff0000;stroke-linejoin:miter;stroke-width:1.5;" x="333.429677" xlink:href="#mb2894dc50f" y="273.910091"/>
    </g>
   </g>
   <g id="line2d_46">
    <path style="fill:none;stroke:#ff0000;stroke-linecap:square;stroke-width:1.5;"/>
    <g/>
   </g>
   <g id="line2d_47">
    <path clip-path="url(#p8eb7add94f)" d="M 147.276841 285.443541 
" style="fill:none;stroke:#ff0000;stroke-linecap:square;stroke-width:1.5;"/>
    <defs>
     <path d="M -12 12 
L 12 -12 
M -12 -12 
L 12 12 
" id="m754c8eedcf" style="stroke:#ff0000;stroke-width:3;"/>
    </defs>
    <g clip-path="url(#p8eb7add94f)">
     <use style="fill:#ff0000;stroke:#ff0000;stroke-width:3;" x="147.276841" xlink:href="#m754c8eedcf" y="285.443541"/>
    </g>
   </g>
   <g id="line2d_48">
    <defs>
     <path d="M 0 1.5 
C 0.397805 1.5 0.77937 1.341951 1.06066 1.06066 
C 1.341951 0.77937 1.5 0.397805 1.5 0 
C 1.5 -0.397805 1.341951 -0.77937 1.06066 -1.06066 
C 0.77937 -1.341951 0.397805 -1.5 0 -1.5 
C -0.397805 -1.5 -0.77937 -1.341951 -1.06066 -1.06066 
C -1.341951 -0.77937 -1.5 -0.397805 -1.5 0 
C -1.5 0.397805 -1.341951 0.77937 -1.06066 1.06066 
C -0.77937 1.341951 -0.397805 1.5 0 1.5 
z
" id="med19a209d6" style="stroke:#bf00bf;"/>
    </defs>
    <g>
     <use style="fill:#bf00bf;stroke:#bf00bf;" x="219.448633" xlink:href="#med19a209d6" y="279.152568"/>
     <use style="fill:#bf00bf;stroke:#bf00bf;" x="219.448633" xlink:href="#med19a209d6" y="279.152568"/>
    </g>
   </g>
   <g id="line2d_49">
    <path d="M 4.578827 294.88 
L 4.578827 289.637523 
L 148.865732 289.637523 
L 148.865732 289.113275 
L 152.35386 289.113275 
L 152.35386 288.589027 
L 153.01041 288.589027 
L 153.01041 288.06478 
L 162.306874 288.06478 
L 162.306874 287.540532 
L 164.712552 287.540532 
L 164.712552 287.016284 
L 168.04214 287.016284 
L 168.04214 285.967789 
L 170.040398 285.967789 
L 170.040398 285.443541 
L 171.112789 285.443541 
L 171.112789 284.919293 
L 171.539039 284.919293 
L 171.539039 284.395046 
L 175.296739 284.395046 
L 175.296739 283.870798 
L 179.06096 283.870798 
L 179.06096 283.34655 
L 181.579878 283.34655 
L 181.579878 282.822302 
L 182.518218 282.822302 
L 182.518218 282.298055 
L 183.776153 282.298055 
L 183.776153 281.773807 
L 187.473157 281.773807 
L 187.473157 281.249559 
L 188.527419 281.249559 
L 188.527419 280.725312 
L 191.854993 280.725312 
L 191.854993 280.201064 
L 197.330298 280.201064 
L 197.330298 279.676816 
L 219.448633 279.676816 
L 219.448633 279.152568 
L 333.429677 279.152568 
" style="fill:none;stroke:#bf00bf;stroke-linecap:square;stroke-width:1.5;"/>
   </g>
   <g id="line2d_50">
    <defs>
     <path d="M -0 8.485281 
L 8.485281 0 
L 0 -8.485281 
L -8.485281 -0 
z
" id="m3c159505f2" style="stroke:#bf00bf;stroke-linejoin:miter;stroke-width:1.5;"/>
    </defs>
    <g>
     <use style="fill-opacity:0;stroke:#bf00bf;stroke-linejoin:miter;stroke-width:1.5;" x="197.330298" xlink:href="#m3c159505f2" y="280.201064"/>
     <use style="fill-opacity:0;stroke:#bf00bf;stroke-linejoin:miter;stroke-width:1.5;" x="219.448633" xlink:href="#m3c159505f2" y="279.152568"/>
     <use style="fill-opacity:0;stroke:#bf00bf;stroke-linejoin:miter;stroke-width:1.5;" x="219.448633" xlink:href="#m3c159505f2" y="279.152568"/>
     <use style="fill-opacity:0;stroke:#bf00bf;stroke-linejoin:miter;stroke-width:1.5;" x="333.429677" xlink:href="#m3c159505f2" y="279.152568"/>
    </g>
   </g>
   <g id="line2d_51">
    <path style="fill:none;stroke:#bf00bf;stroke-linecap:square;stroke-width:1.5;"/>
    <g/>
   </g>
   <g id="line2d_52">
    <path clip-path="url(#p8eb7add94f)" d="M 147.276841 289.637523 
" style="fill:none;stroke:#bf00bf;stroke-linecap:square;stroke-width:1.5;"/>
    <defs>
     <path d="M -12 12 
L 12 -12 
M -12 -12 
L 12 12 
" id="mb01e751cee" style="stroke:#bf00bf;stroke-width:3;"/>
    </defs>
    <g clip-path="url(#p8eb7add94f)">
     <use style="fill:#bf00bf;stroke:#bf00bf;stroke-width:3;" x="147.276841" xlink:href="#mb01e751cee" y="289.637523"/>
    </g>
   </g>
   <g id="line2d_53">
    <path d="M 333.429677 279.152568 
L 363.933742 289.532673 
" style="fill:none;stroke:#bf00bf;stroke-linecap:square;stroke-width:1.5;"/>
    <g>
     <use style="fill-opacity:0;stroke:#bf00bf;stroke-linejoin:miter;stroke-width:1.5;" x="333.429677" xlink:href="#m3c159505f2" y="279.152568"/>
     <use style="fill-opacity:0;stroke:#bf00bf;stroke-linejoin:miter;stroke-width:1.5;" x="363.933742" xlink:href="#m3c159505f2" y="289.532673"/>
    </g>
   </g>
   <g id="line2d_54">
    <path d="M 333.429677 273.910091 
L 363.933742 238.198337 
" style="fill:none;stroke:#ff0000;stroke-linecap:square;stroke-width:1.5;"/>
    <g>
     <use style="fill-opacity:0;stroke:#ff0000;stroke-linejoin:miter;stroke-width:1.5;" x="333.429677" xlink:href="#mb2894dc50f" y="273.910091"/>
     <use style="fill-opacity:0;stroke:#ff0000;stroke-linejoin:miter;stroke-width:1.5;" x="363.933742" xlink:href="#mb2894dc50f" y="238.198337"/>
    </g>
   </g>
   <g id="line2d_55">
    <path d="M 333.429677 221.485319 
L 363.933742 186.864 
" style="fill:none;stroke:#000000;stroke-linecap:square;stroke-width:1.5;"/>
    <g>
     <use style="fill-opacity:0;stroke:#000000;stroke-width:1.5;" x="333.429677" xlink:href="#mae59929547" y="221.485319"/>
     <use style="fill-opacity:0;stroke:#000000;stroke-width:1.5;" x="363.933742" xlink:href="#mae59929547" y="186.864"/>
    </g>
   </g>
   <g id="line2d_56">
    <path d="M 333.429677 27.513663 
L 363.933742 135.529663 
" style="fill:none;stroke:#0000ff;stroke-linecap:square;stroke-width:1.5;"/>
    <g>
     <use style="fill-opacity:0;stroke:#0000ff;stroke-linejoin:bevel;stroke-width:1.5;" x="333.429677" xlink:href="#ma74e37ea33" y="27.513663"/>
     <use style="fill-opacity:0;stroke:#0000ff;stroke-linejoin:bevel;stroke-width:1.5;" x="363.933742" xlink:href="#ma74e37ea33" y="135.529663"/>
    </g>
   </g>
   <g id="line2d_57">
    <path d="M 333.429677 27.513663 
L 363.933742 84.195327 
" style="fill:none;stroke:#008000;stroke-linecap:square;stroke-width:1.5;"/>
    <g>
     <use style="fill-opacity:0;stroke:#008000;stroke-linejoin:miter;stroke-width:1.5;" x="333.429677" xlink:href="#mce19aaafe0" y="27.513663"/>
     <use style="fill-opacity:0;stroke:#008000;stroke-linejoin:miter;stroke-width:1.5;" x="363.933742" xlink:href="#mce19aaafe0" y="84.195327"/>
    </g>
   </g>
   <g id="line2d_58">
    <path d="M 333.429677 27.513663 
L 363.933742 32.86099 
" style="fill:none;stroke:#00bfbf;stroke-linecap:square;stroke-width:1.5;"/>
    <g>
     <use style="fill-opacity:0;stroke:#00bfbf;stroke-width:1.5;" x="333.429677" xlink:href="#m9e688acc94" y="27.513663"/>
     <use style="fill-opacity:0;stroke:#00bfbf;stroke-width:1.5;" x="363.933742" xlink:href="#m9e688acc94" y="32.86099"/>
    </g>
   </g>
   <g id="line2d_59">
    <path d="M 333.429677 294.88 
L 333.429677 27.513663 
" style="fill:none;stroke:#000000;stroke-linecap:square;stroke-width:1.5;"/>
   </g>
   <g id="patch_3">
    <path d="M 56.12 294.88 
L 56.12 24.84 
" style="fill:none;stroke:#000000;stroke-linecap:square;stroke-linejoin:miter;stroke-width:0.8;"/>
   </g>
   <g id="patch_4">
    <path d="M 399.984 294.88 
L 399.984 24.84 
" style="fill:none;stroke:#000000;stroke-linecap:square;stroke-linejoin:miter;stroke-width:0.8;"/>
   </g>
   <g id="patch_5">
    <path d="M 56.12 294.88 
L 399.984 294.88 
" style="fill:none;stroke:#000000;stroke-linecap:square;stroke-linejoin:miter;stroke-width:0.8;"/>
   </g>
   <g id="patch_6">
    <path d="M 56.12 24.84 
L 399.984 24.84 
" style="fill:none;stroke:#000000;stroke-linecap:square;stroke-linejoin:miter;stroke-width:0.8;"/>
   </g>
   <g id="text_14">
    <!-- 40-D -->
    <defs>
     <path d="M 19.671875 64.796875 
L 19.671875 8.109375 
L 31.59375 8.109375 
Q 46.6875 8.109375 53.6875 14.9375 
Q 60.6875 21.78125 60.6875 36.53125 
Q 60.6875 51.171875 53.6875 57.984375 
Q 46.6875 64.796875 31.59375 64.796875 
z
M 9.8125 72.90625 
L 30.078125 72.90625 
Q 51.265625 72.90625 61.171875 64.09375 
Q 71.09375 55.28125 71.09375 36.53125 
Q 71.09375 17.671875 61.125 8.828125 
Q 51.171875 0 30.078125 0 
L 9.8125 0 
z
" id="DejaVuSans-44"/>
    </defs>
    <g transform="translate(369.479935 294.223611)scale(0.17 -0.17)">
     <use xlink:href="#DejaVuSans-34"/>
     <use x="63.623047" xlink:href="#DejaVuSans-30"/>
     <use x="127.246094" xlink:href="#DejaVuSans-2d"/>
     <use x="163.330078" xlink:href="#DejaVuSans-44"/>
    </g>
   </g>
   <g id="text_15">
    <!-- 20-D -->
    <g transform="translate(369.479935 242.889274)scale(0.17 -0.17)">
     <use xlink:href="#DejaVuSans-32"/>
     <use x="63.623047" xlink:href="#DejaVuSans-30"/>
     <use x="127.246094" xlink:href="#DejaVuSans-2d"/>
     <use x="163.330078" xlink:href="#DejaVuSans-44"/>
    </g>
   </g>
   <g id="text_16">
    <!-- 10-D -->
    <g transform="translate(369.479935 191.554937)scale(0.17 -0.17)">
     <use xlink:href="#DejaVuSans-31"/>
     <use x="63.623047" xlink:href="#DejaVuSans-30"/>
     <use x="127.246094" xlink:href="#DejaVuSans-2d"/>
     <use x="163.330078" xlink:href="#DejaVuSans-44"/>
    </g>
   </g>
   <g id="text_17">
    <!-- 5-D -->
    <defs>
     <path d="M 10.796875 72.90625 
L 49.515625 72.90625 
L 49.515625 64.59375 
L 19.828125 64.59375 
L 19.828125 46.734375 
Q 21.96875 47.46875 24.109375 47.828125 
Q 26.265625 48.1875 28.421875 48.1875 
Q 40.625 48.1875 47.75 41.5 
Q 54.890625 34.8125 54.890625 23.390625 
Q 54.890625 11.625 47.5625 5.09375 
Q 40.234375 -1.421875 26.90625 -1.421875 
Q 22.3125 -1.421875 17.546875 -0.640625 
Q 12.796875 0.140625 7.71875 1.703125 
L 7.71875 11.625 
Q 12.109375 9.234375 16.796875 8.0625 
Q 21.484375 6.890625 26.703125 6.890625 
Q 35.15625 6.890625 40.078125 11.328125 
Q 45.015625 15.765625 45.015625 23.390625 
Q 45.015625 31 40.078125 35.4375 
Q 35.15625 39.890625 26.703125 39.890625 
Q 22.75 39.890625 18.8125 39.015625 
Q 14.890625 38.140625 10.796875 36.28125 
z
" id="DejaVuSans-35"/>
    </defs>
    <g transform="translate(369.479935 140.220601)scale(0.17 -0.17)">
     <use xlink:href="#DejaVuSans-35"/>
     <use x="63.623047" xlink:href="#DejaVuSans-2d"/>
     <use x="99.707031" xlink:href="#DejaVuSans-44"/>
    </g>
   </g>
   <g id="text_18">
    <!-- 3-D -->
    <defs>
     <path d="M 40.578125 39.3125 
Q 47.65625 37.796875 51.625 33 
Q 55.609375 28.21875 55.609375 21.1875 
Q 55.609375 10.40625 48.1875 4.484375 
Q 40.765625 -1.421875 27.09375 -1.421875 
Q 22.515625 -1.421875 17.65625 -0.515625 
Q 12.796875 0.390625 7.625 2.203125 
L 7.625 11.71875 
Q 11.71875 9.328125 16.59375 8.109375 
Q 21.484375 6.890625 26.8125 6.890625 
Q 36.078125 6.890625 40.9375 10.546875 
Q 45.796875 14.203125 45.796875 21.1875 
Q 45.796875 27.640625 41.28125 31.265625 
Q 36.765625 34.90625 28.71875 34.90625 
L 20.21875 34.90625 
L 20.21875 43.015625 
L 29.109375 43.015625 
Q 36.375 43.015625 40.234375 45.921875 
Q 44.09375 48.828125 44.09375 54.296875 
Q 44.09375 59.90625 40.109375 62.90625 
Q 36.140625 65.921875 28.71875 65.921875 
Q 24.65625 65.921875 20.015625 65.03125 
Q 15.375 64.15625 9.8125 62.3125 
L 9.8125 71.09375 
Q 15.4375 72.65625 20.34375 73.4375 
Q 25.25 74.21875 29.59375 74.21875 
Q 40.828125 74.21875 47.359375 69.109375 
Q 53.90625 64.015625 53.90625 55.328125 
Q 53.90625 49.265625 50.4375 45.09375 
Q 46.96875 40.921875 40.578125 39.3125 
z
" id="DejaVuSans-33"/>
    </defs>
    <g transform="translate(369.479935 88.886264)scale(0.17 -0.17)">
     <use xlink:href="#DejaVuSans-33"/>
     <use x="63.623047" xlink:href="#DejaVuSans-2d"/>
     <use x="99.707031" xlink:href="#DejaVuSans-44"/>
    </g>
   </g>
   <g id="text_19">
    <!-- 2-D -->
    <g transform="translate(369.479935 37.551928)scale(0.17 -0.17)">
     <use xlink:href="#DejaVuSans-32"/>
     <use x="63.623047" xlink:href="#DejaVuSans-2d"/>
     <use x="99.707031" xlink:href="#DejaVuSans-44"/>
    </g>
   </g>
   <g id="text_20">
    <!-- bbob f21 -->
    <defs>
     <path d="M 48.6875 27.296875 
Q 48.6875 37.203125 44.609375 42.84375 
Q 40.53125 48.484375 33.40625 48.484375 
Q 26.265625 48.484375 22.1875 42.84375 
Q 18.109375 37.203125 18.109375 27.296875 
Q 18.109375 17.390625 22.1875 11.75 
Q 26.265625 6.109375 33.40625 6.109375 
Q 40.53125 6.109375 44.609375 11.75 
Q 48.6875 17.390625 48.6875 27.296875 
z
M 18.109375 46.390625 
Q 20.953125 51.265625 25.265625 53.625 
Q 29.59375 56 35.59375 56 
Q 45.5625 56 51.78125 48.09375 
Q 58.015625 40.1875 58.015625 27.296875 
Q 58.015625 14.40625 51.78125 6.484375 
Q 45.5625 -1.421875 35.59375 -1.421875 
Q 29.59375 -1.421875 25.265625 0.953125 
Q 20.953125 3.328125 18.109375 8.203125 
L 18.109375 0 
L 9.078125 0 
L 9.078125 75.984375 
L 18.109375 75.984375 
z
" id="DejaVuSans-62"/>
    </defs>
    <g transform="translate(59.55864 35.290806)scale(0.102 -0.102)">
     <use xlink:href="#DejaVuSans-62"/>
     <use x="63.476562" xlink:href="#DejaVuSans-62"/>
     <use x="126.953125" xlink:href="#DejaVuSans-6f"/>
     <use x="188.134766" xlink:href="#DejaVuSans-62"/>
     <use x="251.611328" xlink:href="#DejaVuSans-20"/>
     <use x="283.398438" xlink:href="#DejaVuSans-66"/>
     <use x="318.603516" xlink:href="#DejaVuSans-32"/>
     <use x="382.226562" xlink:href="#DejaVuSans-31"/>
    </g>
    <!-- 51 targets: 100..1e-08 -->
    <defs>
     <path d="M 11.71875 12.40625 
L 22.015625 12.40625 
L 22.015625 0 
L 11.71875 0 
z
M 11.71875 51.703125 
L 22.015625 51.703125 
L 22.015625 39.3125 
L 11.71875 39.3125 
z
" id="DejaVuSans-3a"/>
    </defs>
    <g transform="translate(59.55864 46.712575)scale(0.102 -0.102)">
     <use xlink:href="#DejaVuSans-35"/>
     <use x="63.623047" xlink:href="#DejaVuSans-31"/>
     <use x="127.246094" xlink:href="#DejaVuSans-20"/>
     <use x="159.033203" xlink:href="#DejaVuSans-74"/>
     <use x="198.242188" xlink:href="#DejaVuSans-61"/>
     <use x="259.521484" xlink:href="#DejaVuSans-72"/>
     <use x="300.619141" xlink:href="#DejaVuSans-67"/>
     <use x="364.095703" xlink:href="#DejaVuSans-65"/>
     <use x="425.619141" xlink:href="#DejaVuSans-74"/>
     <use x="464.828125" xlink:href="#DejaVuSans-73"/>
     <use x="516.927734" xlink:href="#DejaVuSans-3a"/>
     <use x="550.619141" xlink:href="#DejaVuSans-20"/>
     <use x="582.40625" xlink:href="#DejaVuSans-31"/>
     <use x="646.029297" xlink:href="#DejaVuSans-30"/>
     <use x="709.652344" xlink:href="#DejaVuSans-30"/>
     <use x="773.275391" xlink:href="#DejaVuSans-2e"/>
     <use x="805.0625" xlink:href="#DejaVuSans-2e"/>
     <use x="836.849609" xlink:href="#DejaVuSans-31"/>
     <use x="900.472656" xlink:href="#DejaVuSans-65"/>
     <use x="961.996094" xlink:href="#DejaVuSans-2d"/>
     <use x="998.080078" xlink:href="#DejaVuSans-30"/>
     <use x="1061.703125" xlink:href="#DejaVuSans-38"/>
    </g>
    <!-- 15 instances -->
    <g transform="translate(59.55864 58.134344)scale(0.102 -0.102)">
     <use xlink:href="#DejaVuSans-31"/>
     <use x="63.623047" xlink:href="#DejaVuSans-35"/>
     <use x="127.246094" xlink:href="#DejaVuSans-20"/>
     <use x="159.033203" xlink:href="#DejaVuSans-69"/>
     <use x="186.816406" xlink:href="#DejaVuSans-6e"/>
     <use x="250.195312" xlink:href="#DejaVuSans-73"/>
     <use x="302.294922" xlink:href="#DejaVuSans-74"/>
     <use x="341.503906" xlink:href="#DejaVuSans-61"/>
     <use x="402.783203" xlink:href="#DejaVuSans-6e"/>
     <use x="466.162109" xlink:href="#DejaVuSans-63"/>
     <use x="521.142578" xlink:href="#DejaVuSans-65"/>
     <use x="582.666016" xlink:href="#DejaVuSans-73"/>
    </g>
   </g>
   <g id="text_21">
    <!-- v2.2.1.10 -->
    <g style="fill:#808080;" transform="translate(204.419188 290.099912)scale(0.1 -0.1)">
     <use xlink:href="#DejaVuSans-76"/>
     <use x="59.179688" xlink:href="#DejaVuSans-32"/>
     <use x="122.802734" xlink:href="#DejaVuSans-2e"/>
     <use x="154.589844" xlink:href="#DejaVuSans-32"/>
     <use x="218.212891" xlink:href="#DejaVuSans-2e"/>
     <use x="250" xlink:href="#DejaVuSans-31"/>
     <use x="313.623047" xlink:href="#DejaVuSans-2e"/>
     <use x="345.410156" xlink:href="#DejaVuSans-31"/>
     <use x="409.033203" xlink:href="#DejaVuSans-30"/>
    </g>
   </g>
   <g id="text_22">
    <!-- 21 Gallagher 101 peaks -->
    <defs>
     <path d="M 59.515625 10.40625 
L 59.515625 29.984375 
L 43.40625 29.984375 
L 43.40625 38.09375 
L 69.28125 38.09375 
L 69.28125 6.78125 
Q 63.578125 2.734375 56.6875 0.65625 
Q 49.8125 -1.421875 42 -1.421875 
Q 24.90625 -1.421875 15.25 8.5625 
Q 5.609375 18.5625 5.609375 36.375 
Q 5.609375 54.25 15.25 64.234375 
Q 24.90625 74.21875 42 74.21875 
Q 49.125 74.21875 55.546875 72.453125 
Q 61.96875 70.703125 67.390625 67.28125 
L 67.390625 56.78125 
Q 61.921875 61.421875 55.765625 63.765625 
Q 49.609375 66.109375 42.828125 66.109375 
Q 29.4375 66.109375 22.71875 58.640625 
Q 16.015625 51.171875 16.015625 36.375 
Q 16.015625 21.625 22.71875 14.15625 
Q 29.4375 6.6875 42.828125 6.6875 
Q 48.046875 6.6875 52.140625 7.59375 
Q 56.25 8.5 59.515625 10.40625 
z
" id="DejaVuSans-47"/>
     <path d="M 54.890625 33.015625 
L 54.890625 0 
L 45.90625 0 
L 45.90625 32.71875 
Q 45.90625 40.484375 42.875 44.328125 
Q 39.84375 48.1875 33.796875 48.1875 
Q 26.515625 48.1875 22.3125 43.546875 
Q 18.109375 38.921875 18.109375 30.90625 
L 18.109375 0 
L 9.078125 0 
L 9.078125 75.984375 
L 18.109375 75.984375 
L 18.109375 46.1875 
Q 21.34375 51.125 25.703125 53.5625 
Q 30.078125 56 35.796875 56 
Q 45.21875 56 50.046875 50.171875 
Q 54.890625 44.34375 54.890625 33.015625 
z
" id="DejaVuSans-68"/>
     <path d="M 9.078125 75.984375 
L 18.109375 75.984375 
L 18.109375 31.109375 
L 44.921875 54.6875 
L 56.390625 54.6875 
L 27.390625 29.109375 
L 57.625 0 
L 45.90625 0 
L 18.109375 26.703125 
L 18.109375 0 
L 9.078125 0 
z
" id="DejaVuSans-6b"/>
    </defs>
    <g transform="translate(108.5645 18.84)scale(0.2 -0.2)">
     <use xlink:href="#DejaVuSans-32"/>
     <use x="63.623047" xlink:href="#DejaVuSans-31"/>
     <use x="127.246094" xlink:href="#DejaVuSans-20"/>
     <use x="159.033203" xlink:href="#DejaVuSans-47"/>
     <use x="236.523438" xlink:href="#DejaVuSans-61"/>
     <use x="297.802734" xlink:href="#DejaVuSans-6c"/>
     <use x="325.585938" xlink:href="#DejaVuSans-6c"/>
     <use x="353.369141" xlink:href="#DejaVuSans-61"/>
     <use x="414.648438" xlink:href="#DejaVuSans-67"/>
     <use x="478.125" xlink:href="#DejaVuSans-68"/>
     <use x="541.503906" xlink:href="#DejaVuSans-65"/>
     <use x="603.027344" xlink:href="#DejaVuSans-72"/>
     <use x="644.140625" xlink:href="#DejaVuSans-20"/>
     <use x="675.927734" xlink:href="#DejaVuSans-31"/>
     <use x="739.550781" xlink:href="#DejaVuSans-30"/>
     <use x="803.173828" xlink:href="#DejaVuSans-31"/>
     <use x="866.796875" xlink:href="#DejaVuSans-20"/>
     <use x="898.583984" xlink:href="#DejaVuSans-70"/>
     <use x="962.060547" xlink:href="#DejaVuSans-65"/>
     <use x="1023.583984" xlink:href="#DejaVuSans-61"/>
     <use x="1084.863281" xlink:href="#DejaVuSans-6b"/>
     <use x="1142.773438" xlink:href="#DejaVuSans-73"/>
    </g>
   </g>
  </g>
 </g>
 <defs>
  <clipPath id="p8eb7add94f">
   <rect height="270.04" width="343.864" x="56.12" y="24.84"/>
  </clipPath>
 </defs>
</svg>
