<?xml version="1.0" encoding="utf-8" standalone="no"?>
<!DOCTYPE svg PUBLIC "-//W3C//DTD SVG 1.1//EN"
  "http://www.w3.org/Graphics/SVG/1.1/DTD/svg11.dtd">
<!-- Created with matplotlib (http://matplotlib.org/) -->
<svg height="345.6pt" version="1.1" viewBox="0 0 460.8 345.6" width="460.8pt" xmlns="http://www.w3.org/2000/svg" xmlns:xlink="http://www.w3.org/1999/xlink">
 <defs>
  <style type="text/css">
*{stroke-linecap:butt;stroke-linejoin:round;}
  </style>
 </defs>
 <g id="figure_1">
  <g id="patch_1">
   <path d="M 0 345.6 
L 460.8 345.6 
L 460.8 0 
L 0 0 
z
" style="fill:#ffffff;"/>
  </g>
  <g id="axes_1">
   <g id="patch_2">
    <path d="M 56.12 294.88 
L 399.984 294.88 
L 399.984 6.845228 
L 56.12 6.845228 
z
" style="fill:#ffffff;"/>
   </g>
   <g id="matplotlib.axis_1">
    <g id="xtick_1">
     <g id="line2d_1">
      <path clip-path="url(#p98e1a75462)" d="M 56.12 294.88 
L 56.12 6.845228 
" style="fill:none;stroke:#b0b0b0;stroke-linecap:square;stroke-width:0.8;"/>
     </g>
     <g id="line2d_2">
      <defs>
       <path d="M 0 0 
L 0 3.5 
" id="mcb014d1cd2" style="stroke:#000000;stroke-width:0.8;"/>
      </defs>
      <g>
       <use style="stroke:#000000;stroke-width:0.8;" x="56.12" xlink:href="#mcb014d1cd2" y="294.88"/>
      </g>
     </g>
     <g id="text_1">
      <!-- 0 -->
      <defs>
       <path d="M 31.78125 66.40625 
Q 24.171875 66.40625 20.328125 58.90625 
Q 16.5 51.421875 16.5 36.375 
Q 16.5 21.390625 20.328125 13.890625 
Q 24.171875 6.390625 31.78125 6.390625 
Q 39.453125 6.390625 43.28125 13.890625 
Q 47.125 21.390625 47.125 36.375 
Q 47.125 51.421875 43.28125 58.90625 
Q 39.453125 66.40625 31.78125 66.40625 
z
M 31.78125 74.21875 
Q 44.046875 74.21875 50.515625 64.515625 
Q 56.984375 54.828125 56.984375 36.375 
Q 56.984375 17.96875 50.515625 8.265625 
Q 44.046875 -1.421875 31.78125 -1.421875 
Q 19.53125 -1.421875 13.0625 8.265625 
Q 6.59375 17.96875 6.59375 36.375 
Q 6.59375 54.828125 13.0625 64.515625 
Q 19.53125 74.21875 31.78125 74.21875 
z
" id="DejaVuSans-30"/>
      </defs>
      <g transform="translate(49.7575 317.076875)scale(0.2 -0.2)">
       <use xlink:href="#DejaVuSans-30"/>
      </g>
     </g>
    </g>
    <g id="xtick_2">
     <g id="line2d_3">
      <path clip-path="url(#p98e1a75462)" d="M 135.351336 294.88 
L 135.351336 6.845228 
" style="fill:none;stroke:#b0b0b0;stroke-linecap:square;stroke-width:0.8;"/>
     </g>
     <g id="line2d_4">
      <g>
       <use style="stroke:#000000;stroke-width:0.8;" x="135.351336" xlink:href="#mcb014d1cd2" y="294.88"/>
      </g>
     </g>
     <g id="text_2">
      <!-- 2 -->
      <defs>
       <path d="M 19.1875 8.296875 
L 53.609375 8.296875 
L 53.609375 0 
L 7.328125 0 
L 7.328125 8.296875 
Q 12.9375 14.109375 22.625 23.890625 
Q 32.328125 33.6875 34.8125 36.53125 
Q 39.546875 41.84375 41.421875 45.53125 
Q 43.3125 49.21875 43.3125 52.78125 
Q 43.3125 58.59375 39.234375 62.25 
Q 35.15625 65.921875 28.609375 65.921875 
Q 23.96875 65.921875 18.8125 64.3125 
Q 13.671875 62.703125 7.8125 59.421875 
L 7.8125 69.390625 
Q 13.765625 71.78125 18.9375 73 
Q 24.125 74.21875 28.421875 74.21875 
Q 39.75 74.21875 46.484375 68.546875 
Q 53.21875 62.890625 53.21875 53.421875 
Q 53.21875 48.921875 51.53125 44.890625 
Q 49.859375 40.875 45.40625 35.40625 
Q 44.1875 33.984375 37.640625 27.21875 
Q 31.109375 20.453125 19.1875 8.296875 
z
" id="DejaVuSans-32"/>
      </defs>
      <g transform="translate(128.988836 317.076875)scale(0.2 -0.2)">
       <use xlink:href="#DejaVuSans-32"/>
      </g>
     </g>
    </g>
    <g id="xtick_3">
     <g id="line2d_5">
      <path clip-path="url(#p98e1a75462)" d="M 214.582673 294.88 
L 214.582673 6.845228 
" style="fill:none;stroke:#b0b0b0;stroke-linecap:square;stroke-width:0.8;"/>
     </g>
     <g id="line2d_6">
      <g>
       <use style="stroke:#000000;stroke-width:0.8;" x="214.582673" xlink:href="#mcb014d1cd2" y="294.88"/>
      </g>
     </g>
     <g id="text_3">
      <!-- 4 -->
      <defs>
       <path d="M 37.796875 64.3125 
L 12.890625 25.390625 
L 37.796875 25.390625 
z
M 35.203125 72.90625 
L 47.609375 72.90625 
L 47.609375 25.390625 
L 58.015625 25.390625 
L 58.015625 17.1875 
L 47.609375 17.1875 
L 47.609375 0 
L 37.796875 0 
L 37.796875 17.1875 
L 4.890625 17.1875 
L 4.890625 26.703125 
z
" id="DejaVuSans-34"/>
      </defs>
      <g transform="translate(208.220173 317.076875)scale(0.2 -0.2)">
       <use xlink:href="#DejaVuSans-34"/>
      </g>
     </g>
    </g>
    <g id="xtick_4">
     <g id="line2d_7">
      <path clip-path="url(#p98e1a75462)" d="M 293.814009 294.88 
L 293.814009 6.845228 
" style="fill:none;stroke:#b0b0b0;stroke-linecap:square;stroke-width:0.8;"/>
     </g>
     <g id="line2d_8">
      <g>
       <use style="stroke:#000000;stroke-width:0.8;" x="293.814009" xlink:href="#mcb014d1cd2" y="294.88"/>
      </g>
     </g>
     <g id="text_4">
      <!-- 6 -->
      <defs>
       <path d="M 33.015625 40.375 
Q 26.375 40.375 22.484375 35.828125 
Q 18.609375 31.296875 18.609375 23.390625 
Q 18.609375 15.53125 22.484375 10.953125 
Q 26.375 6.390625 33.015625 6.390625 
Q 39.65625 6.390625 43.53125 10.953125 
Q 47.40625 15.53125 47.40625 23.390625 
Q 47.40625 31.296875 43.53125 35.828125 
Q 39.65625 40.375 33.015625 40.375 
z
M 52.59375 71.296875 
L 52.59375 62.3125 
Q 48.875 64.0625 45.09375 64.984375 
Q 41.3125 65.921875 37.59375 65.921875 
Q 27.828125 65.921875 22.671875 59.328125 
Q 17.53125 52.734375 16.796875 39.40625 
Q 19.671875 43.65625 24.015625 45.921875 
Q 28.375 48.1875 33.59375 48.1875 
Q 44.578125 48.1875 50.953125 41.515625 
Q 57.328125 34.859375 57.328125 23.390625 
Q 57.328125 12.15625 50.6875 5.359375 
Q 44.046875 -1.421875 33.015625 -1.421875 
Q 20.359375 -1.421875 13.671875 8.265625 
Q 6.984375 17.96875 6.984375 36.375 
Q 6.984375 53.65625 15.1875 63.9375 
Q 23.390625 74.21875 37.203125 74.21875 
Q 40.921875 74.21875 44.703125 73.484375 
Q 48.484375 72.75 52.59375 71.296875 
z
" id="DejaVuSans-36"/>
      </defs>
      <g transform="translate(287.451509 317.076875)scale(0.2 -0.2)">
       <use xlink:href="#DejaVuSans-36"/>
      </g>
     </g>
    </g>
    <g id="xtick_5">
     <g id="line2d_9">
      <path clip-path="url(#p98e1a75462)" d="M 373.045346 294.88 
L 373.045346 6.845228 
" style="fill:none;stroke:#b0b0b0;stroke-linecap:square;stroke-width:0.8;"/>
     </g>
     <g id="line2d_10">
      <g>
       <use style="stroke:#000000;stroke-width:0.8;" x="373.045346" xlink:href="#mcb014d1cd2" y="294.88"/>
      </g>
     </g>
     <g id="text_5">
      <!-- 8 -->
      <defs>
       <path d="M 31.78125 34.625 
Q 24.75 34.625 20.71875 30.859375 
Q 16.703125 27.09375 16.703125 20.515625 
Q 16.703125 13.921875 20.71875 10.15625 
Q 24.75 6.390625 31.78125 6.390625 
Q 38.8125 6.390625 42.859375 10.171875 
Q 46.921875 13.96875 46.921875 20.515625 
Q 46.921875 27.09375 42.890625 30.859375 
Q 38.875 34.625 31.78125 34.625 
z
M 21.921875 38.8125 
Q 15.578125 40.375 12.03125 44.71875 
Q 8.5 49.078125 8.5 55.328125 
Q 8.5 64.0625 14.71875 69.140625 
Q 20.953125 74.21875 31.78125 74.21875 
Q 42.671875 74.21875 48.875 69.140625 
Q 55.078125 64.0625 55.078125 55.328125 
Q 55.078125 49.078125 51.53125 44.71875 
Q 48 40.375 41.703125 38.8125 
Q 48.828125 37.15625 52.796875 32.3125 
Q 56.78125 27.484375 56.78125 20.515625 
Q 56.78125 9.90625 50.3125 4.234375 
Q 43.84375 -1.421875 31.78125 -1.421875 
Q 19.734375 -1.421875 13.25 4.234375 
Q 6.78125 9.90625 6.78125 20.515625 
Q 6.78125 27.484375 10.78125 32.3125 
Q 14.796875 37.15625 21.921875 38.8125 
z
M 18.3125 54.390625 
Q 18.3125 48.734375 21.84375 45.5625 
Q 25.390625 42.390625 31.78125 42.390625 
Q 38.140625 42.390625 41.71875 45.5625 
Q 45.3125 48.734375 45.3125 54.390625 
Q 45.3125 60.0625 41.71875 63.234375 
Q 38.140625 66.40625 31.78125 66.40625 
Q 25.390625 66.40625 21.84375 63.234375 
Q 18.3125 60.0625 18.3125 54.390625 
z
" id="DejaVuSans-38"/>
      </defs>
      <g transform="translate(366.682846 317.076875)scale(0.2 -0.2)">
       <use xlink:href="#DejaVuSans-38"/>
      </g>
     </g>
    </g>
    <g id="text_6">
     <!-- log10(# f-evals / dimension) -->
     <defs>
      <path d="M 9.421875 75.984375 
L 18.40625 75.984375 
L 18.40625 0 
L 9.421875 0 
z
" id="DejaVuSans-6c"/>
      <path d="M 30.609375 48.390625 
Q 23.390625 48.390625 19.1875 42.75 
Q 14.984375 37.109375 14.984375 27.296875 
Q 14.984375 17.484375 19.15625 11.84375 
Q 23.34375 6.203125 30.609375 6.203125 
Q 37.796875 6.203125 41.984375 11.859375 
Q 46.1875 17.53125 46.1875 27.296875 
Q 46.1875 37.015625 41.984375 42.703125 
Q 37.796875 48.390625 30.609375 48.390625 
z
M 30.609375 56 
Q 42.328125 56 49.015625 48.375 
Q 55.71875 40.765625 55.71875 27.296875 
Q 55.71875 13.875 49.015625 6.21875 
Q 42.328125 -1.421875 30.609375 -1.421875 
Q 18.84375 -1.421875 12.171875 6.21875 
Q 5.515625 13.875 5.515625 27.296875 
Q 5.515625 40.765625 12.171875 48.375 
Q 18.84375 56 30.609375 56 
z
" id="DejaVuSans-6f"/>
      <path d="M 45.40625 27.984375 
Q 45.40625 37.75 41.375 43.109375 
Q 37.359375 48.484375 30.078125 48.484375 
Q 22.859375 48.484375 18.828125 43.109375 
Q 14.796875 37.75 14.796875 27.984375 
Q 14.796875 18.265625 18.828125 12.890625 
Q 22.859375 7.515625 30.078125 7.515625 
Q 37.359375 7.515625 41.375 12.890625 
Q 45.40625 18.265625 45.40625 27.984375 
z
M 54.390625 6.78125 
Q 54.390625 -7.171875 48.1875 -13.984375 
Q 42 -20.796875 29.203125 -20.796875 
Q 24.46875 -20.796875 20.265625 -20.09375 
Q 16.0625 -19.390625 12.109375 -17.921875 
L 12.109375 -9.1875 
Q 16.0625 -11.328125 19.921875 -12.34375 
Q 23.78125 -13.375 27.78125 -13.375 
Q 36.625 -13.375 41.015625 -8.765625 
Q 45.40625 -4.15625 45.40625 5.171875 
L 45.40625 9.625 
Q 42.625 4.78125 38.28125 2.390625 
Q 33.9375 0 27.875 0 
Q 17.828125 0 11.671875 7.65625 
Q 5.515625 15.328125 5.515625 27.984375 
Q 5.515625 40.671875 11.671875 48.328125 
Q 17.828125 56 27.875 56 
Q 33.9375 56 38.28125 53.609375 
Q 42.625 51.21875 45.40625 46.390625 
L 45.40625 54.6875 
L 54.390625 54.6875 
z
" id="DejaVuSans-67"/>
      <path d="M 12.40625 8.296875 
L 28.515625 8.296875 
L 28.515625 63.921875 
L 10.984375 60.40625 
L 10.984375 69.390625 
L 28.421875 72.90625 
L 38.28125 72.90625 
L 38.28125 8.296875 
L 54.390625 8.296875 
L 54.390625 0 
L 12.40625 0 
z
" id="DejaVuSans-31"/>
      <path d="M 31 75.875 
Q 24.46875 64.65625 21.28125 53.65625 
Q 18.109375 42.671875 18.109375 31.390625 
Q 18.109375 20.125 21.3125 9.0625 
Q 24.515625 -2 31 -13.1875 
L 23.1875 -13.1875 
Q 15.875 -1.703125 12.234375 9.375 
Q 8.59375 20.453125 8.59375 31.390625 
Q 8.59375 42.28125 12.203125 53.3125 
Q 15.828125 64.359375 23.1875 75.875 
z
" id="DejaVuSans-28"/>
      <path d="M 51.125 44 
L 36.921875 44 
L 32.8125 27.6875 
L 47.125 27.6875 
z
M 43.796875 71.78125 
L 38.71875 51.515625 
L 52.984375 51.515625 
L 58.109375 71.78125 
L 65.921875 71.78125 
L 60.890625 51.515625 
L 76.125 51.515625 
L 76.125 44 
L 58.984375 44 
L 54.984375 27.6875 
L 70.515625 27.6875 
L 70.515625 20.21875 
L 53.078125 20.21875 
L 48 0 
L 40.1875 0 
L 45.21875 20.21875 
L 30.90625 20.21875 
L 25.875 0 
L 18.015625 0 
L 23.09375 20.21875 
L 7.71875 20.21875 
L 7.71875 27.6875 
L 24.90625 27.6875 
L 29 44 
L 13.28125 44 
L 13.28125 51.515625 
L 30.90625 51.515625 
L 35.890625 71.78125 
z
" id="DejaVuSans-23"/>
      <path id="DejaVuSans-20"/>
      <path d="M 37.109375 75.984375 
L 37.109375 68.5 
L 28.515625 68.5 
Q 23.6875 68.5 21.796875 66.546875 
Q 19.921875 64.59375 19.921875 59.515625 
L 19.921875 54.6875 
L 34.71875 54.6875 
L 34.71875 47.703125 
L 19.921875 47.703125 
L 19.921875 0 
L 10.890625 0 
L 10.890625 47.703125 
L 2.296875 47.703125 
L 2.296875 54.6875 
L 10.890625 54.6875 
L 10.890625 58.5 
Q 10.890625 67.625 15.140625 71.796875 
Q 19.390625 75.984375 28.609375 75.984375 
z
" id="DejaVuSans-66"/>
      <path d="M 4.890625 31.390625 
L 31.203125 31.390625 
L 31.203125 23.390625 
L 4.890625 23.390625 
z
" id="DejaVuSans-2d"/>
      <path d="M 56.203125 29.59375 
L 56.203125 25.203125 
L 14.890625 25.203125 
Q 15.484375 15.921875 20.484375 11.0625 
Q 25.484375 6.203125 34.421875 6.203125 
Q 39.59375 6.203125 44.453125 7.46875 
Q 49.3125 8.734375 54.109375 11.28125 
L 54.109375 2.78125 
Q 49.265625 0.734375 44.1875 -0.34375 
Q 39.109375 -1.421875 33.890625 -1.421875 
Q 20.796875 -1.421875 13.15625 6.1875 
Q 5.515625 13.8125 5.515625 26.8125 
Q 5.515625 40.234375 12.765625 48.109375 
Q 20.015625 56 32.328125 56 
Q 43.359375 56 49.78125 48.890625 
Q 56.203125 41.796875 56.203125 29.59375 
z
M 47.21875 32.234375 
Q 47.125 39.59375 43.09375 43.984375 
Q 39.0625 48.390625 32.421875 48.390625 
Q 24.90625 48.390625 20.390625 44.140625 
Q 15.875 39.890625 15.1875 32.171875 
z
" id="DejaVuSans-65"/>
      <path d="M 2.984375 54.6875 
L 12.5 54.6875 
L 29.59375 8.796875 
L 46.6875 54.6875 
L 56.203125 54.6875 
L 35.6875 0 
L 23.484375 0 
z
" id="DejaVuSans-76"/>
      <path d="M 34.28125 27.484375 
Q 23.390625 27.484375 19.1875 25 
Q 14.984375 22.515625 14.984375 16.5 
Q 14.984375 11.71875 18.140625 8.90625 
Q 21.296875 6.109375 26.703125 6.109375 
Q 34.1875 6.109375 38.703125 11.40625 
Q 43.21875 16.703125 43.21875 25.484375 
L 43.21875 27.484375 
z
M 52.203125 31.203125 
L 52.203125 0 
L 43.21875 0 
L 43.21875 8.296875 
Q 40.140625 3.328125 35.546875 0.953125 
Q 30.953125 -1.421875 24.3125 -1.421875 
Q 15.921875 -1.421875 10.953125 3.296875 
Q 6 8.015625 6 15.921875 
Q 6 25.140625 12.171875 29.828125 
Q 18.359375 34.515625 30.609375 34.515625 
L 43.21875 34.515625 
L 43.21875 35.40625 
Q 43.21875 41.609375 39.140625 45 
Q 35.0625 48.390625 27.6875 48.390625 
Q 23 48.390625 18.546875 47.265625 
Q 14.109375 46.140625 10.015625 43.890625 
L 10.015625 52.203125 
Q 14.9375 54.109375 19.578125 55.046875 
Q 24.21875 56 28.609375 56 
Q 40.484375 56 46.34375 49.84375 
Q 52.203125 43.703125 52.203125 31.203125 
z
" id="DejaVuSans-61"/>
      <path d="M 44.28125 53.078125 
L 44.28125 44.578125 
Q 40.484375 46.53125 36.375 47.5 
Q 32.28125 48.484375 27.875 48.484375 
Q 21.1875 48.484375 17.84375 46.4375 
Q 14.5 44.390625 14.5 40.28125 
Q 14.5 37.15625 16.890625 35.375 
Q 19.28125 33.59375 26.515625 31.984375 
L 29.59375 31.296875 
Q 39.15625 29.25 43.1875 25.515625 
Q 47.21875 21.78125 47.21875 15.09375 
Q 47.21875 7.46875 41.1875 3.015625 
Q 35.15625 -1.421875 24.609375 -1.421875 
Q 20.21875 -1.421875 15.453125 -0.5625 
Q 10.6875 0.296875 5.421875 2 
L 5.421875 11.28125 
Q 10.40625 8.6875 15.234375 7.390625 
Q 20.0625 6.109375 24.8125 6.109375 
Q 31.15625 6.109375 34.5625 8.28125 
Q 37.984375 10.453125 37.984375 14.40625 
Q 37.984375 18.0625 35.515625 20.015625 
Q 33.0625 21.96875 24.703125 23.78125 
L 21.578125 24.515625 
Q 13.234375 26.265625 9.515625 29.90625 
Q 5.8125 33.546875 5.8125 39.890625 
Q 5.8125 47.609375 11.28125 51.796875 
Q 16.75 56 26.8125 56 
Q 31.78125 56 36.171875 55.265625 
Q 40.578125 54.546875 44.28125 53.078125 
z
" id="DejaVuSans-73"/>
      <path d="M 25.390625 72.90625 
L 33.6875 72.90625 
L 8.296875 -9.28125 
L 0 -9.28125 
z
" id="DejaVuSans-2f"/>
      <path d="M 45.40625 46.390625 
L 45.40625 75.984375 
L 54.390625 75.984375 
L 54.390625 0 
L 45.40625 0 
L 45.40625 8.203125 
Q 42.578125 3.328125 38.25 0.953125 
Q 33.9375 -1.421875 27.875 -1.421875 
Q 17.96875 -1.421875 11.734375 6.484375 
Q 5.515625 14.40625 5.515625 27.296875 
Q 5.515625 40.1875 11.734375 48.09375 
Q 17.96875 56 27.875 56 
Q 33.9375 56 38.25 53.625 
Q 42.578125 51.265625 45.40625 46.390625 
z
M 14.796875 27.296875 
Q 14.796875 17.390625 18.875 11.75 
Q 22.953125 6.109375 30.078125 6.109375 
Q 37.203125 6.109375 41.296875 11.75 
Q 45.40625 17.390625 45.40625 27.296875 
Q 45.40625 37.203125 41.296875 42.84375 
Q 37.203125 48.484375 30.078125 48.484375 
Q 22.953125 48.484375 18.875 42.84375 
Q 14.796875 37.203125 14.796875 27.296875 
z
" id="DejaVuSans-64"/>
      <path d="M 9.421875 54.6875 
L 18.40625 54.6875 
L 18.40625 0 
L 9.421875 0 
z
M 9.421875 75.984375 
L 18.40625 75.984375 
L 18.40625 64.59375 
L 9.421875 64.59375 
z
" id="DejaVuSans-69"/>
      <path d="M 52 44.1875 
Q 55.375 50.25 60.0625 53.125 
Q 64.75 56 71.09375 56 
Q 79.640625 56 84.28125 50.015625 
Q 88.921875 44.046875 88.921875 33.015625 
L 88.921875 0 
L 79.890625 0 
L 79.890625 32.71875 
Q 79.890625 40.578125 77.09375 44.375 
Q 74.3125 48.1875 68.609375 48.1875 
Q 61.625 48.1875 57.5625 43.546875 
Q 53.515625 38.921875 53.515625 30.90625 
L 53.515625 0 
L 44.484375 0 
L 44.484375 32.71875 
Q 44.484375 40.625 41.703125 44.40625 
Q 38.921875 48.1875 33.109375 48.1875 
Q 26.21875 48.1875 22.15625 43.53125 
Q 18.109375 38.875 18.109375 30.90625 
L 18.109375 0 
L 9.078125 0 
L 9.078125 54.6875 
L 18.109375 54.6875 
L 18.109375 46.1875 
Q 21.1875 51.21875 25.484375 53.609375 
Q 29.78125 56 35.6875 56 
Q 41.65625 56 45.828125 52.96875 
Q 50 49.953125 52 44.1875 
z
" id="DejaVuSans-6d"/>
      <path d="M 54.890625 33.015625 
L 54.890625 0 
L 45.90625 0 
L 45.90625 32.71875 
Q 45.90625 40.484375 42.875 44.328125 
Q 39.84375 48.1875 33.796875 48.1875 
Q 26.515625 48.1875 22.3125 43.546875 
Q 18.109375 38.921875 18.109375 30.90625 
L 18.109375 0 
L 9.078125 0 
L 9.078125 54.6875 
L 18.109375 54.6875 
L 18.109375 46.1875 
Q 21.34375 51.125 25.703125 53.5625 
Q 30.078125 56 35.796875 56 
Q 45.21875 56 50.046875 50.171875 
Q 54.890625 44.34375 54.890625 33.015625 
z
" id="DejaVuSans-6e"/>
      <path d="M 8.015625 75.875 
L 15.828125 75.875 
Q 23.140625 64.359375 26.78125 53.3125 
Q 30.421875 42.28125 30.421875 31.390625 
Q 30.421875 20.453125 26.78125 9.375 
Q 23.140625 -1.703125 15.828125 -13.1875 
L 8.015625 -13.1875 
Q 14.5 -2 17.703125 9.0625 
Q 20.90625 20.125 20.90625 31.390625 
Q 20.90625 42.671875 17.703125 53.65625 
Q 14.5 64.65625 8.015625 75.875 
z
" id="DejaVuSans-29"/>
     </defs>
     <g transform="translate(107.211219 338.153594)scale(0.17 -0.17)">
      <use xlink:href="#DejaVuSans-6c"/>
      <use x="27.783203" xlink:href="#DejaVuSans-6f"/>
      <use x="88.964844" xlink:href="#DejaVuSans-67"/>
      <use x="152.441406" xlink:href="#DejaVuSans-31"/>
      <use x="216.064453" xlink:href="#DejaVuSans-30"/>
      <use x="279.6875" xlink:href="#DejaVuSans-28"/>
      <use x="318.701172" xlink:href="#DejaVuSans-23"/>
      <use x="402.490234" xlink:href="#DejaVuSans-20"/>
      <use x="434.277344" xlink:href="#DejaVuSans-66"/>
      <use x="469.404297" xlink:href="#DejaVuSans-2d"/>
      <use x="505.488281" xlink:href="#DejaVuSans-65"/>
      <use x="567.011719" xlink:href="#DejaVuSans-76"/>
      <use x="626.191406" xlink:href="#DejaVuSans-61"/>
      <use x="687.470703" xlink:href="#DejaVuSans-6c"/>
      <use x="715.253906" xlink:href="#DejaVuSans-73"/>
      <use x="767.353516" xlink:href="#DejaVuSans-20"/>
      <use x="799.140625" xlink:href="#DejaVuSans-2f"/>
      <use x="832.832031" xlink:href="#DejaVuSans-20"/>
      <use x="864.619141" xlink:href="#DejaVuSans-64"/>
      <use x="928.095703" xlink:href="#DejaVuSans-69"/>
      <use x="955.878906" xlink:href="#DejaVuSans-6d"/>
      <use x="1053.291016" xlink:href="#DejaVuSans-65"/>
      <use x="1114.814453" xlink:href="#DejaVuSans-6e"/>
      <use x="1178.193359" xlink:href="#DejaVuSans-73"/>
      <use x="1230.292969" xlink:href="#DejaVuSans-69"/>
      <use x="1258.076172" xlink:href="#DejaVuSans-6f"/>
      <use x="1319.257812" xlink:href="#DejaVuSans-6e"/>
      <use x="1382.636719" xlink:href="#DejaVuSans-29"/>
     </g>
    </g>
   </g>
   <g id="matplotlib.axis_2">
    <g id="ytick_1">
     <g id="line2d_11">
      <path clip-path="url(#p98e1a75462)" d="M 56.12 294.88 
L 399.984 294.88 
" style="fill:none;stroke:#b0b0b0;stroke-linecap:square;stroke-width:0.8;"/>
     </g>
     <g id="line2d_12">
      <defs>
       <path d="M 0 0 
L -3.5 0 
" id="m29d55d52e5" style="stroke:#000000;stroke-width:0.8;"/>
      </defs>
      <g>
       <use style="stroke:#000000;stroke-width:0.8;" x="56.12" xlink:href="#m29d55d52e5" y="294.88"/>
      </g>
     </g>
     <g id="text_7">
      <!-- 0.0 -->
      <defs>
       <path d="M 10.6875 12.40625 
L 21 12.40625 
L 21 0 
L 10.6875 0 
z
" id="DejaVuSans-2e"/>
      </defs>
      <g transform="translate(23.675 300.95875)scale(0.16 -0.16)">
       <use xlink:href="#DejaVuSans-30"/>
       <use x="63.623047" xlink:href="#DejaVuSans-2e"/>
       <use x="95.410156" xlink:href="#DejaVuSans-30"/>
      </g>
     </g>
    </g>
    <g id="ytick_2">
     <g id="line2d_13">
      <path clip-path="url(#p98e1a75462)" d="M 56.12 237.843411 
L 399.984 237.843411 
" style="fill:none;stroke:#b0b0b0;stroke-linecap:square;stroke-width:0.8;"/>
     </g>
     <g id="line2d_14">
      <g>
       <use style="stroke:#000000;stroke-width:0.8;" x="56.12" xlink:href="#m29d55d52e5" y="237.843411"/>
      </g>
     </g>
     <g id="text_8">
      <!-- 0.2 -->
      <g transform="translate(23.675 243.922161)scale(0.16 -0.16)">
       <use xlink:href="#DejaVuSans-30"/>
       <use x="63.623047" xlink:href="#DejaVuSans-2e"/>
       <use x="95.410156" xlink:href="#DejaVuSans-32"/>
      </g>
     </g>
    </g>
    <g id="ytick_3">
     <g id="line2d_15">
      <path clip-path="url(#p98e1a75462)" d="M 56.12 180.806823 
L 399.984 180.806823 
" style="fill:none;stroke:#b0b0b0;stroke-linecap:square;stroke-width:0.8;"/>
     </g>
     <g id="line2d_16">
      <g>
       <use style="stroke:#000000;stroke-width:0.8;" x="56.12" xlink:href="#m29d55d52e5" y="180.806823"/>
      </g>
     </g>
     <g id="text_9">
      <!-- 0.4 -->
      <g transform="translate(23.675 186.885573)scale(0.16 -0.16)">
       <use xlink:href="#DejaVuSans-30"/>
       <use x="63.623047" xlink:href="#DejaVuSans-2e"/>
       <use x="95.410156" xlink:href="#DejaVuSans-34"/>
      </g>
     </g>
    </g>
    <g id="ytick_4">
     <g id="line2d_17">
      <path clip-path="url(#p98e1a75462)" d="M 56.12 123.770234 
L 399.984 123.770234 
" style="fill:none;stroke:#b0b0b0;stroke-linecap:square;stroke-width:0.8;"/>
     </g>
     <g id="line2d_18">
      <g>
       <use style="stroke:#000000;stroke-width:0.8;" x="56.12" xlink:href="#m29d55d52e5" y="123.770234"/>
      </g>
     </g>
     <g id="text_10">
      <!-- 0.6 -->
      <g transform="translate(23.675 129.848984)scale(0.16 -0.16)">
       <use xlink:href="#DejaVuSans-30"/>
       <use x="63.623047" xlink:href="#DejaVuSans-2e"/>
       <use x="95.410156" xlink:href="#DejaVuSans-36"/>
      </g>
     </g>
    </g>
    <g id="ytick_5">
     <g id="line2d_19">
      <path clip-path="url(#p98e1a75462)" d="M 56.12 66.733646 
L 399.984 66.733646 
" style="fill:none;stroke:#b0b0b0;stroke-linecap:square;stroke-width:0.8;"/>
     </g>
     <g id="line2d_20">
      <g>
       <use style="stroke:#000000;stroke-width:0.8;" x="56.12" xlink:href="#m29d55d52e5" y="66.733646"/>
      </g>
     </g>
     <g id="text_11">
      <!-- 0.8 -->
      <g transform="translate(23.675 72.812396)scale(0.16 -0.16)">
       <use xlink:href="#DejaVuSans-30"/>
       <use x="63.623047" xlink:href="#DejaVuSans-2e"/>
       <use x="95.410156" xlink:href="#DejaVuSans-38"/>
      </g>
     </g>
    </g>
    <g id="ytick_6">
     <g id="line2d_21">
      <path clip-path="url(#p98e1a75462)" d="M 56.12 9.697057 
L 399.984 9.697057 
" style="fill:none;stroke:#b0b0b0;stroke-linecap:square;stroke-width:0.8;"/>
     </g>
     <g id="line2d_22">
      <g>
       <use style="stroke:#000000;stroke-width:0.8;" x="56.12" xlink:href="#m29d55d52e5" y="9.697057"/>
      </g>
     </g>
     <g id="text_12">
      <!-- 1.0 -->
      <g transform="translate(23.675 15.775807)scale(0.16 -0.16)">
       <use xlink:href="#DejaVuSans-31"/>
       <use x="63.623047" xlink:href="#DejaVuSans-2e"/>
       <use x="95.410156" xlink:href="#DejaVuSans-30"/>
      </g>
     </g>
    </g>
    <g id="text_13">
     <!-- Fraction of function,target pairs -->
     <defs>
      <path d="M 9.8125 72.90625 
L 51.703125 72.90625 
L 51.703125 64.59375 
L 19.671875 64.59375 
L 19.671875 43.109375 
L 48.578125 43.109375 
L 48.578125 34.8125 
L 19.671875 34.8125 
L 19.671875 0 
L 9.8125 0 
z
" id="DejaVuSans-46"/>
      <path d="M 41.109375 46.296875 
Q 39.59375 47.171875 37.8125 47.578125 
Q 36.03125 48 33.890625 48 
Q 26.265625 48 22.1875 43.046875 
Q 18.109375 38.09375 18.109375 28.8125 
L 18.109375 0 
L 9.078125 0 
L 9.078125 54.6875 
L 18.109375 54.6875 
L 18.109375 46.1875 
Q 20.953125 51.171875 25.484375 53.578125 
Q 30.03125 56 36.53125 56 
Q 37.453125 56 38.578125 55.875 
Q 39.703125 55.765625 41.0625 55.515625 
z
" id="DejaVuSans-72"/>
      <path d="M 48.78125 52.59375 
L 48.78125 44.1875 
Q 44.96875 46.296875 41.140625 47.34375 
Q 37.3125 48.390625 33.40625 48.390625 
Q 24.65625 48.390625 19.8125 42.84375 
Q 14.984375 37.3125 14.984375 27.296875 
Q 14.984375 17.28125 19.8125 11.734375 
Q 24.65625 6.203125 33.40625 6.203125 
Q 37.3125 6.203125 41.140625 7.25 
Q 44.96875 8.296875 48.78125 10.40625 
L 48.78125 2.09375 
Q 45.015625 0.34375 40.984375 -0.53125 
Q 36.96875 -1.421875 32.421875 -1.421875 
Q 20.0625 -1.421875 12.78125 6.34375 
Q 5.515625 14.109375 5.515625 27.296875 
Q 5.515625 40.671875 12.859375 48.328125 
Q 20.21875 56 33.015625 56 
Q 37.15625 56 41.109375 55.140625 
Q 45.0625 54.296875 48.78125 52.59375 
z
" id="DejaVuSans-63"/>
      <path d="M 18.3125 70.21875 
L 18.3125 54.6875 
L 36.8125 54.6875 
L 36.8125 47.703125 
L 18.3125 47.703125 
L 18.3125 18.015625 
Q 18.3125 11.328125 20.140625 9.421875 
Q 21.96875 7.515625 27.59375 7.515625 
L 36.8125 7.515625 
L 36.8125 0 
L 27.59375 0 
Q 17.1875 0 13.234375 3.875 
Q 9.28125 7.765625 9.28125 18.015625 
L 9.28125 47.703125 
L 2.6875 47.703125 
L 2.6875 54.6875 
L 9.28125 54.6875 
L 9.28125 70.21875 
z
" id="DejaVuSans-74"/>
      <path d="M 8.5 21.578125 
L 8.5 54.6875 
L 17.484375 54.6875 
L 17.484375 21.921875 
Q 17.484375 14.15625 20.5 10.265625 
Q 23.53125 6.390625 29.59375 6.390625 
Q 36.859375 6.390625 41.078125 11.03125 
Q 45.3125 15.671875 45.3125 23.6875 
L 45.3125 54.6875 
L 54.296875 54.6875 
L 54.296875 0 
L 45.3125 0 
L 45.3125 8.40625 
Q 42.046875 3.421875 37.71875 1 
Q 33.40625 -1.421875 27.6875 -1.421875 
Q 18.265625 -1.421875 13.375 4.4375 
Q 8.5 10.296875 8.5 21.578125 
z
M 31.109375 56 
z
" id="DejaVuSans-75"/>
      <path d="M 11.71875 12.40625 
L 22.015625 12.40625 
L 22.015625 4 
L 14.015625 -11.625 
L 7.71875 -11.625 
L 11.71875 4 
z
" id="DejaVuSans-2c"/>
      <path d="M 18.109375 8.203125 
L 18.109375 -20.796875 
L 9.078125 -20.796875 
L 9.078125 54.6875 
L 18.109375 54.6875 
L 18.109375 46.390625 
Q 20.953125 51.265625 25.265625 53.625 
Q 29.59375 56 35.59375 56 
Q 45.5625 56 51.78125 48.09375 
Q 58.015625 40.1875 58.015625 27.296875 
Q 58.015625 14.40625 51.78125 6.484375 
Q 45.5625 -1.421875 35.59375 -1.421875 
Q 29.59375 -1.421875 25.265625 0.953125 
Q 20.953125 3.328125 18.109375 8.203125 
z
M 48.6875 27.296875 
Q 48.6875 37.203125 44.609375 42.84375 
Q 40.53125 48.484375 33.40625 48.484375 
Q 26.265625 48.484375 22.1875 42.84375 
Q 18.109375 37.203125 18.109375 27.296875 
Q 18.109375 17.390625 22.1875 11.75 
Q 26.265625 6.109375 33.40625 6.109375 
Q 40.53125 6.109375 44.609375 11.75 
Q 48.6875 17.390625 48.6875 27.296875 
z
" id="DejaVuSans-70"/>
     </defs>
     <g transform="translate(16.139531 286.001989)rotate(-90)scale(0.17 -0.17)">
      <use xlink:href="#DejaVuSans-46"/>
      <use x="57.410156" xlink:href="#DejaVuSans-72"/>
      <use x="98.523438" xlink:href="#DejaVuSans-61"/>
      <use x="159.802734" xlink:href="#DejaVuSans-63"/>
      <use x="214.783203" xlink:href="#DejaVuSans-74"/>
      <use x="253.992188" xlink:href="#DejaVuSans-69"/>
      <use x="281.775391" xlink:href="#DejaVuSans-6f"/>
      <use x="342.957031" xlink:href="#DejaVuSans-6e"/>
      <use x="406.335938" xlink:href="#DejaVuSans-20"/>
      <use x="438.123047" xlink:href="#DejaVuSans-6f"/>
      <use x="499.304688" xlink:href="#DejaVuSans-66"/>
      <use x="534.509766" xlink:href="#DejaVuSans-20"/>
      <use x="566.296875" xlink:href="#DejaVuSans-66"/>
      <use x="601.501953" xlink:href="#DejaVuSans-75"/>
      <use x="664.880859" xlink:href="#DejaVuSans-6e"/>
      <use x="728.259766" xlink:href="#DejaVuSans-63"/>
      <use x="783.240234" xlink:href="#DejaVuSans-74"/>
      <use x="822.449219" xlink:href="#DejaVuSans-69"/>
      <use x="850.232422" xlink:href="#DejaVuSans-6f"/>
      <use x="911.414062" xlink:href="#DejaVuSans-6e"/>
      <use x="974.792969" xlink:href="#DejaVuSans-2c"/>
      <use x="1006.580078" xlink:href="#DejaVuSans-74"/>
      <use x="1045.789062" xlink:href="#DejaVuSans-61"/>
      <use x="1107.068359" xlink:href="#DejaVuSans-72"/>
      <use x="1148.166016" xlink:href="#DejaVuSans-67"/>
      <use x="1211.642578" xlink:href="#DejaVuSans-65"/>
      <use x="1273.166016" xlink:href="#DejaVuSans-74"/>
      <use x="1312.375" xlink:href="#DejaVuSans-20"/>
      <use x="1344.162109" xlink:href="#DejaVuSans-70"/>
      <use x="1407.638672" xlink:href="#DejaVuSans-61"/>
      <use x="1468.917969" xlink:href="#DejaVuSans-69"/>
      <use x="1496.701172" xlink:href="#DejaVuSans-72"/>
      <use x="1537.814453" xlink:href="#DejaVuSans-73"/>
     </g>
    </g>
   </g>
   <g id="line2d_23">
    <defs>
     <path d="M 0 1.5 
C 0.397805 1.5 0.77937 1.341951 1.06066 1.06066 
C 1.341951 0.77937 1.5 0.397805 1.5 0 
C 1.5 -0.397805 1.341951 -0.77937 1.06066 -1.06066 
C 0.77937 -1.341951 0.397805 -1.5 0 -1.5 
C -0.397805 -1.5 -0.77937 -1.341951 -1.06066 -1.06066 
C -1.341951 -0.77937 -1.5 -0.397805 -1.5 0 
C -1.5 0.397805 -1.341951 0.77937 -1.06066 1.06066 
C -0.77937 1.341951 -0.397805 1.5 0 1.5 
z
" id="mfe9424b086" style="stroke:#00bfbf;"/>
    </defs>
    <g>
     <use style="fill:#00bfbf;stroke:#00bfbf;" x="188.857669" xlink:href="#mfe9424b086" y="243.435234"/>
     <use style="fill:#00bfbf;stroke:#00bfbf;" x="188.857669" xlink:href="#mfe9424b086" y="243.435234"/>
    </g>
   </g>
   <g id="line2d_24">
    <path d="M 56.12 294.88 
L 56.12 270.387818 
L 83.810164 270.387818 
L 83.810164 270.164145 
L 86.946982 270.164145 
L 86.946982 269.940472 
L 89.599124 269.940472 
L 89.599124 269.157617 
L 91.896513 269.157617 
L 91.896513 268.822108 
L 93.922955 268.822108 
L 93.922955 267.032724 
L 95.735668 267.032724 
L 95.735668 266.249869 
L 97.375467 266.249869 
L 97.375467 264.460486 
L 98.872486 264.460486 
L 98.872486 264.34865 
L 102.711641 264.34865 
L 102.711641 264.236813 
L 103.822018 264.236813 
L 103.822018 264.124977 
L 104.865056 264.124977 
L 104.865056 263.565795 
L 105.848459 263.565795 
L 105.848459 263.453958 
L 106.778678 263.453958 
L 106.778678 262.894776 
L 107.661173 262.894776 
L 107.661173 262.782939 
L 108.500601 262.782939 
L 108.500601 262.44743 
L 109.300972 262.44743 
L 109.300972 262.000084 
L 110.065758 262.000084 
L 110.065758 261.552738 
L 110.797991 261.552738 
L 110.797991 261.440902 
L 111.841029 261.440902 
L 111.841029 261.329066 
L 112.175115 261.329066 
L 112.175115 261.105393 
L 113.140126 261.105393 
L 113.140126 260.88172 
L 113.450132 260.88172 
L 113.450132 260.769883 
L 114.637146 260.769883 
L 114.637146 260.658047 
L 115.20129 260.658047 
L 115.20129 260.54621 
L 115.476574 260.54621 
L 115.476574 260.322538 
L 115.747522 260.322538 
L 115.747522 260.210701 
L 116.276944 260.210701 
L 116.276944 260.098865 
L 116.535669 260.098865 
L 116.535669 259.987028 
L 117.533332 259.987028 
L 117.533332 259.763355 
L 117.773963 259.763355 
L 117.773963 259.651519 
L 118.929086 259.651519 
L 118.929086 259.539682 
L 119.370261 259.539682 
L 119.370261 259.427846 
L 119.800405 259.427846 
L 119.800405 259.316009 
L 120.629716 259.316009 
L 120.629716 259.204173 
L 120.830944 259.204173 
L 120.830944 258.9805 
L 121.803229 258.9805 
L 121.803229 258.868664 
L 121.991263 258.868664 
L 121.991263 258.756827 
L 122.361274 258.756827 
L 122.361274 258.644991 
L 122.543338 258.644991 
L 122.543338 258.421318 
L 122.723495 258.421318 
L 122.723495 258.309481 
L 122.901785 258.309481 
L 122.901785 257.973972 
L 123.934387 257.973972 
L 123.934387 257.862136 
L 124.26526 257.862136 
L 124.26526 257.526626 
L 124.428341 257.526626 
L 124.428341 257.079281 
L 124.749936 257.079281 
L 124.749936 256.743771 
L 125.065631 256.743771 
L 125.065631 256.520098 
L 125.375637 256.520098 
L 125.375637 256.408262 
L 125.979378 256.408262 
L 125.979378 256.184589 
L 126.12706 256.184589 
L 126.12706 256.072752 
L 126.987483 256.072752 
L 126.987483 255.84908 
L 127.126794 255.84908 
L 127.126794 255.737243 
L 127.806917 255.737243 
L 127.806917 255.625407 
L 127.939774 255.625407 
L 127.939774 255.401734 
L 128.461173 255.401734 
L 128.461173 255.289897 
L 128.716065 255.289897 
L 128.716065 255.178061 
L 128.967235 255.178061 
L 128.967235 254.954388 
L 129.091459 254.954388 
L 129.091459 254.842552 
L 129.214792 254.842552 
L 129.214792 254.730715 
L 129.337247 254.730715 
L 129.337247 254.618879 
L 129.458837 254.618879 
L 129.458837 254.507042 
L 129.579573 254.507042 
L 129.579573 254.395206 
L 129.699468 254.395206 
L 129.699468 254.283369 
L 131.186528 254.283369 
L 131.186528 254.171533 
L 131.404314 254.171533 
L 131.404314 254.059696 
L 133.15198 254.059696 
L 133.15198 253.94786 
L 134.102767 253.94786 
L 134.102767 253.836024 
L 134.378051 253.836024 
L 134.378051 253.724187 
L 134.648999 253.724187 
L 134.738376 253.500514 
L 134.915747 253.500514 
L 135.003752 253.165005 
L 135.178422 253.165005 
L 135.265096 252.941332 
L 135.351336 252.941332 
L 135.351336 252.829495 
L 135.776169 252.829495 
L 135.776169 252.717659 
L 136.026124 252.717659 
L 136.026124 252.605823 
L 136.675441 252.605823 
L 136.675441 252.493986 
L 137.146836 252.493986 
L 137.146836 252.270313 
L 137.60566 252.270313 
L 137.680955 251.822967 
L 137.904883 251.822967 
L 137.904883 251.711131 
L 138.052565 251.711131 
L 138.052565 251.599295 
L 138.271738 251.599295 
L 138.271738 251.487458 
L 138.559692 251.487458 
L 138.559692 251.375622 
L 138.982784 251.375622 
L 138.982784 251.263785 
L 139.46359 251.263785 
L 139.531193 251.040112 
L 140.450756 251.040112 
L 140.514596 250.816439 
L 142.555192 250.816439 
L 142.611694 250.592767 
L 142.780095 250.592767 
L 142.780095 250.48093 
L 142.891454 250.48093 
L 142.891454 250.369094 
L 143.166738 250.369094 
L 143.166738 250.257257 
L 144.174398 250.257257 
L 144.174398 250.145421 
L 144.430047 250.145421 
L 144.430047 250.033584 
L 145.174963 250.033584 
L 145.271892 249.809911 
L 145.654238 249.809911 
L 145.70144 249.474402 
L 146.841251 249.474402 
L 146.841251 249.362566 
L 147.992936 249.362566 
L 147.992936 249.250729 
L 148.116269 249.250729 
L 148.116269 249.138893 
L 148.400654 249.138893 
L 148.400654 249.027056 
L 149.111047 249.027056 
L 149.111047 248.91522 
L 150.768411 248.91522 
L 150.768411 248.803383 
L 151.081552 248.803383 
L 151.081552 248.691547 
L 151.691237 248.691547 
L 151.691237 248.467874 
L 151.823837 248.467874 
L 151.856829 248.244201 
L 152.280054 248.244201 
L 152.280054 248.132365 
L 153.340109 248.132365 
L 153.370319 247.796855 
L 153.58032 247.796855 
L 153.58032 247.685019 
L 154.982656 247.685019 
L 154.982656 247.573182 
L 155.840397 247.573182 
L 155.840397 247.461346 
L 157.051797 247.461346 
L 157.051797 247.34951 
L 157.245657 247.34951 
L 157.245657 247.237673 
L 158.365067 247.237673 
L 158.43267 247.014 
L 160.346292 247.014 
L 160.346292 246.902164 
L 160.645515 246.902164 
L 160.70474 246.678491 
L 162.46416 246.678491 
L 162.46416 246.566654 
L 162.79893 246.566654 
L 162.851198 246.342981 
L 163.093038 246.342981 
L 163.093038 246.231145 
L 163.466333 246.231145 
L 163.466333 246.119309 
L 164.524176 246.119309 
L 164.524176 246.007472 
L 164.883437 246.007472 
L 164.883437 245.895636 
L 167.409243 245.895636 
L 167.409243 245.783799 
L 167.5951 245.783799 
L 167.5951 245.671963 
L 169.207268 245.671963 
L 169.207268 245.560126 
L 169.681588 245.560126 
L 169.681588 245.44829 
L 170.69226 245.44829 
L 170.69226 245.336453 
L 171.030799 245.336453 
L 171.138599 245.112781 
L 171.320324 245.112781 
L 171.320324 245.000944 
L 171.584126 245.000944 
L 171.584126 244.889108 
L 174.380766 244.889108 
L 174.380766 244.777271 
L 175.993843 244.777271 
L 175.993843 244.665435 
L 176.762505 244.665435 
L 176.762505 244.553598 
L 178.591485 244.553598 
L 178.591485 244.441762 
L 178.74411 244.441762 
L 178.74411 244.329925 
L 180.607858 244.329925 
L 180.607858 244.218089 
L 184.010153 244.218089 
L 184.010153 244.106253 
L 184.37248 244.106253 
L 184.37248 243.994416 
L 184.863379 243.994416 
L 184.863379 243.88258 
L 185.69474 243.88258 
L 185.69474 243.770743 
L 186.87099 243.770743 
L 186.87099 243.658907 
L 187.401064 243.658907 
L 187.401064 243.54707 
L 188.857669 243.54707 
L 188.857669 243.435234 
L 333.429677 243.435234 
L 333.429677 243.435234 
" style="fill:none;stroke:#00bfbf;stroke-linecap:square;stroke-width:1.5;"/>
   </g>
   <g id="line2d_25">
    <defs>
     <path d="M -6 0 
L 6 0 
M 0 6 
L 0 -6 
" id="m2e2bd4dc7f" style="stroke:#00bfbf;stroke-width:1.5;"/>
    </defs>
    <g>
     <use style="fill-opacity:0;stroke:#00bfbf;stroke-width:1.5;" x="114.637146" xlink:href="#m2e2bd4dc7f" y="260.658047"/>
     <use style="fill-opacity:0;stroke:#00bfbf;stroke-width:1.5;" x="188.857669" xlink:href="#m2e2bd4dc7f" y="243.54707"/>
     <use style="fill-opacity:0;stroke:#00bfbf;stroke-width:1.5;" x="188.857669" xlink:href="#m2e2bd4dc7f" y="243.435234"/>
     <use style="fill-opacity:0;stroke:#00bfbf;stroke-width:1.5;" x="333.429677" xlink:href="#m2e2bd4dc7f" y="243.435234"/>
    </g>
   </g>
   <g id="line2d_26">
    <path style="fill:none;stroke:#00bfbf;stroke-linecap:square;stroke-width:1.5;"/>
    <g/>
   </g>
   <g id="line2d_27">
    <path clip-path="url(#p98e1a75462)" d="M 114.637146 260.658047 
" style="fill:none;stroke:#00bfbf;stroke-linecap:square;stroke-width:1.5;"/>
    <defs>
     <path d="M -12 12 
L 12 -12 
M -12 -12 
L 12 12 
" id="m8244c16c88" style="stroke:#00bfbf;stroke-width:3;"/>
    </defs>
    <g clip-path="url(#p98e1a75462)">
     <use style="fill:#00bfbf;stroke:#00bfbf;stroke-width:3;" x="114.637146" xlink:href="#m8244c16c88" y="260.658047"/>
    </g>
   </g>
   <g id="line2d_28">
    <defs>
     <path d="M 0 1.5 
C 0.397805 1.5 0.77937 1.341951 1.06066 1.06066 
C 1.341951 0.77937 1.5 0.397805 1.5 0 
C 1.5 -0.397805 1.341951 -0.77937 1.06066 -1.06066 
C 0.77937 -1.341951 0.397805 -1.5 0 -1.5 
C -0.397805 -1.5 -0.77937 -1.341951 -1.06066 -1.06066 
C -1.341951 -0.77937 -1.5 -0.397805 -1.5 0 
C -1.5 0.397805 -1.341951 0.77937 -1.06066 1.06066 
C -0.77937 1.341951 -0.397805 1.5 0 1.5 
z
" id="m4453f4c1c4" style="stroke:#008000;"/>
    </defs>
    <g>
     <use style="fill:#008000;stroke:#008000;" x="194.775142" xlink:href="#m4453f4c1c4" y="237.843411"/>
     <use style="fill:#008000;stroke:#008000;" x="194.775142" xlink:href="#m4453f4c1c4" y="237.843411"/>
    </g>
   </g>
   <g id="line2d_29">
    <path d="M 49.144027 294.88 
L 49.144027 267.927416 
L 79.971009 267.927416 
L 79.971009 267.591907 
L 88.759695 267.591907 
L 88.759695 267.368234 
L 90.399494 267.368234 
L 90.399494 266.809052 
L 91.896513 266.809052 
L 91.896513 266.585379 
L 93.273637 266.585379 
L 93.273637 266.138033 
L 94.548655 266.138033 
L 94.548655 265.578851 
L 95.735668 265.578851 
L 95.735668 264.907832 
L 96.846045 264.907832 
L 96.846045 264.236813 
L 97.889083 264.236813 
L 97.889083 264.01314 
L 98.872486 264.01314 
L 98.872486 263.453958 
L 100.6852 263.453958 
L 100.6852 263.342122 
L 101.524628 263.342122 
L 101.524628 263.118449 
L 102.324999 263.118449 
L 102.324999 262.782939 
L 103.089785 262.782939 
L 103.089785 262.44743 
L 103.822018 262.44743 
L 103.822018 261.888248 
L 104.524355 261.888248 
L 104.524355 261.664575 
L 105.199142 261.664575 
L 105.199142 261.440902 
L 105.848459 261.440902 
L 105.848459 261.329066 
L 106.47416 261.329066 
L 106.47416 260.769883 
L 107.077901 260.769883 
L 107.077901 260.658047 
L 107.661173 260.658047 
L 107.661173 260.54621 
L 108.771549 260.54621 
L 108.771549 260.322538 
L 109.814588 260.322538 
L 109.814588 260.098865 
L 110.797991 260.098865 
L 110.797991 259.763355 
L 111.72821 259.763355 
L 111.72821 259.316009 
L 113.035537 259.316009 
L 113.035537 258.868664 
L 113.450132 258.868664 
L 113.450132 258.756827 
L 115.01529 258.756827 
L 115.01529 258.309481 
L 115.385301 258.309481 
L 115.385301 258.197645 
L 115.747522 258.197645 
L 115.747522 257.638463 
L 116.449859 257.638463 
L 116.449859 257.41479 
L 117.124646 257.41479 
L 117.124646 257.302953 
L 117.452368 257.302953 
L 117.452368 257.079281 
L 119.003405 257.079281 
L 119.003405 256.855608 
L 119.297513 256.855608 
L 119.297513 256.743771 
L 119.729457 256.743771 
L 119.729457 256.631935 
L 119.871061 256.631935 
L 119.871061 256.520098 
L 120.426105 256.520098 
L 120.426105 256.296425 
L 121.485201 256.296425 
L 121.485201 256.072752 
L 121.740092 256.072752 
L 121.740092 255.960916 
L 121.991263 255.960916 
L 121.991263 255.737243 
L 122.238819 255.737243 
L 122.238819 255.51357 
L 122.723495 255.51357 
L 122.723495 255.401734 
L 122.960807 255.401734 
L 122.960807 255.289897 
L 123.194891 255.289897 
L 123.194891 255.178061 
L 123.653714 255.178061 
L 123.653714 254.954388 
L 124.319792 254.954388 
L 124.319792 254.842552 
L 126.56265 254.842552 
L 126.56265 254.730715 
L 127.310805 254.730715 
L 127.310805 254.618879 
L 127.673027 254.618879 
L 127.673027 254.507042 
L 127.851317 254.507042 
L 127.939774 254.171533 
L 129.132668 254.171533 
L 129.132668 253.94786 
L 129.296525 253.94786 
L 129.296525 253.836024 
L 129.458837 253.836024 
L 129.458837 253.724187 
L 129.858039 253.724187 
L 129.858039 253.612351 
L 130.015162 253.612351 
L 130.015162 253.500514 
L 130.325168 253.500514 
L 130.325168 253.276841 
L 131.14996 253.276841 
L 131.14996 253.165005 
L 131.368207 253.165005 
L 131.440345 252.941332 
L 131.725909 252.941332 
L 131.725909 252.829495 
L 131.937015 252.829495 
L 131.937015 252.717659 
L 132.214518 252.717659 
L 132.214518 252.493986 
L 132.823005 252.493986 
L 132.823005 252.38215 
L 133.217027 252.38215 
L 133.217027 252.270313 
L 133.602227 252.270313 
L 133.602227 252.158477 
L 133.728734 252.158477 
L 133.728734 252.04664 
L 133.978991 252.04664 
L 133.978991 251.934804 
L 134.648999 251.934804 
L 134.648999 251.822967 
L 134.886312 251.822967 
L 134.886312 251.711131 
L 135.293891 251.711131 
L 135.293891 251.599295 
L 135.465655 251.599295 
L 135.465655 251.487458 
L 136.515394 251.487458 
L 136.515394 251.263785 
L 136.72846 251.263785 
L 136.72846 251.151949 
L 136.93892 251.151949 
L 136.93892 251.040112 
L 137.095092 251.040112 
L 137.095092 250.928276 
L 137.301141 250.928276 
L 137.301141 250.816439 
L 137.504752 250.816439 
L 137.55528 250.592767 
L 137.904883 250.592767 
L 137.904883 250.48093 
L 138.19899 250.48093 
L 138.19899 250.369094 
L 138.392305 250.369094 
L 138.392305 250.257257 
L 138.725467 250.257257 
L 138.819483 250.033584 
L 139.46359 250.033584 
L 139.46359 249.809911 
L 140.214628 249.809911 
L 140.214628 249.698075 
L 140.767613 249.698075 
L 140.767613 249.586238 
L 142.018694 249.586238 
L 142.057575 249.362566 
L 143.112032 249.362566 
L 143.112032 249.250729 
L 143.615976 249.250729 
L 143.615976 249.138893 
L 143.792438 249.138893 
L 143.792438 249.027056 
L 144.105579 249.027056 
L 144.105579 248.91522 
L 144.345252 248.91522 
L 144.345252 248.803383 
L 146.181751 248.803383 
L 146.181751 248.691547 
L 147.0459 248.691547 
L 147.132866 248.467874 
L 147.362651 248.467874 
L 147.362651 248.356038 
L 147.701674 248.356038 
L 147.701674 248.244201 
L 147.813213 248.244201 
L 147.813213 248.132365 
L 148.061564 248.132365 
L 148.061564 248.020528 
L 148.198003 248.020528 
L 148.198003 247.908692 
L 148.387217 247.908692 
L 148.387217 247.796855 
L 148.521108 247.796855 
L 148.521108 247.685019 
L 148.838258 247.685019 
L 148.838258 247.573182 
L 149.928983 247.573182 
L 150.027016 247.34951 
L 150.075824 247.34951 
L 150.075824 247.237673 
L 150.293764 247.237673 
L 150.293764 247.014 
L 150.698043 247.014 
L 150.698043 246.902164 
L 151.161814 246.902164 
L 151.161814 246.790327 
L 151.343878 246.790327 
L 151.343878 246.678491 
L 152.161733 246.678491 
L 152.161733 246.566654 
L 152.524853 246.566654 
L 152.524853 246.454818 
L 152.734928 246.454818 
L 152.734928 246.342981 
L 154.27192 246.342981 
L 154.27192 246.231145 
L 154.649649 246.231145 
L 154.649649 246.119309 
L 155.291354 246.119309 
L 155.291354 246.007472 
L 155.488187 246.007472 
L 155.488187 245.895636 
L 155.612283 245.895636 
L 155.700377 245.671963 
L 155.822957 245.671963 
L 155.822957 245.560126 
L 156.082724 245.560126 
L 156.082724 245.44829 
L 156.219678 245.44829 
L 156.219678 245.336453 
L 157.149 245.336453 
L 157.149 245.224617 
L 157.405555 245.224617 
L 157.405555 245.112781 
L 158.046028 245.112781 
L 158.046028 245.000944 
L 158.440165 245.000944 
L 158.485067 244.777271 
L 159.918441 244.777271 
L 159.918441 244.665435 
L 160.619127 244.665435 
L 160.619127 244.553598 
L 160.894201 244.553598 
L 160.984924 244.329925 
L 161.177734 244.329925 
L 161.177734 244.218089 
L 161.444088 244.218089 
L 161.444088 244.106253 
L 161.631847 244.106253 
L 161.631847 243.994416 
L 162.001329 243.994416 
L 162.001329 243.88258 
L 162.600028 243.88258 
L 162.670491 243.54707 
L 163.235392 243.54707 
L 163.25806 243.323397 
L 163.62783 243.323397 
L 163.62783 243.211561 
L 164.450358 243.211561 
L 164.450358 242.987888 
L 164.816321 242.987888 
L 164.816321 242.876052 
L 164.940024 242.876052 
L 164.940024 242.764215 
L 165.255531 242.764215 
L 165.255531 242.652379 
L 165.585156 242.652379 
L 165.585156 242.540542 
L 166.015056 242.540542 
L 166.015056 242.428706 
L 166.91732 242.428706 
L 166.963041 242.093196 
L 167.09948 242.093196 
L 167.09948 241.98136 
L 167.378071 241.98136 
L 167.458114 241.757687 
L 167.564263 241.757687 
L 167.564263 241.645851 
L 169.058342 241.645851 
L 169.163127 241.310341 
L 169.346968 241.310341 
L 169.410454 241.086668 
L 169.552448 241.086668 
L 169.552448 240.974832 
L 170.101381 240.974832 
L 170.101381 240.862996 
L 170.62596 240.862996 
L 170.62596 240.751159 
L 170.918691 240.751159 
L 170.918691 240.639323 
L 171.440416 240.639323 
L 171.440416 240.527486 
L 172.451954 240.527486 
L 172.451954 240.41565 
L 173.357002 240.41565 
L 173.357002 240.303813 
L 173.792276 240.303813 
L 173.810687 240.08014 
L 173.926833 240.08014 
L 173.945101 239.856467 
L 174.192831 239.856467 
L 174.192831 239.744631 
L 174.478395 239.744631 
L 174.478395 239.632795 
L 175.80097 239.632795 
L 175.80097 239.520958 
L 176.248575 239.520958 
L 176.248575 239.409122 
L 177.256507 239.409122 
L 177.256507 239.297285 
L 177.73672 239.297285 
L 177.843794 238.961776 
L 178.397606 238.961776 
L 178.397606 238.849939 
L 178.709541 238.849939 
L 178.709541 238.738103 
L 179.726234 238.738103 
L 179.726234 238.626267 
L 181.224703 238.626267 
L 181.224703 238.51443 
L 181.704285 238.51443 
L 181.704285 238.402594 
L 182.201017 238.402594 
L 182.201017 238.290757 
L 185.279357 238.290757 
L 185.279357 238.178921 
L 186.258735 238.178921 
L 186.258735 238.067084 
L 187.356463 238.067084 
L 187.356463 237.955248 
L 194.775142 237.955248 
L 194.775142 237.843411 
L 333.429677 237.843411 
L 333.429677 237.843411 
" style="fill:none;stroke:#008000;stroke-linecap:square;stroke-width:1.5;"/>
   </g>
   <g id="line2d_30">
    <defs>
     <path d="M -0 6 
L 6 -6 
L -6 -6 
z
" id="ma87ba2cdac" style="stroke:#008000;stroke-linejoin:miter;stroke-width:1.5;"/>
    </defs>
    <g>
     <use style="fill-opacity:0;stroke:#008000;stroke-linejoin:miter;stroke-width:1.5;" x="105.848459" xlink:href="#ma87ba2cdac" y="261.329066"/>
     <use style="fill-opacity:0;stroke:#008000;stroke-linejoin:miter;stroke-width:1.5;" x="162.001329" xlink:href="#ma87ba2cdac" y="243.88258"/>
     <use style="fill-opacity:0;stroke:#008000;stroke-linejoin:miter;stroke-width:1.5;" x="194.775142" xlink:href="#ma87ba2cdac" y="237.955248"/>
     <use style="fill-opacity:0;stroke:#008000;stroke-linejoin:miter;stroke-width:1.5;" x="194.775142" xlink:href="#ma87ba2cdac" y="237.843411"/>
     <use style="fill-opacity:0;stroke:#008000;stroke-linejoin:miter;stroke-width:1.5;" x="194.775142" xlink:href="#ma87ba2cdac" y="237.843411"/>
     <use style="fill-opacity:0;stroke:#008000;stroke-linejoin:miter;stroke-width:1.5;" x="333.429677" xlink:href="#ma87ba2cdac" y="237.843411"/>
    </g>
   </g>
   <g id="line2d_31">
    <path style="fill:none;stroke:#008000;stroke-linecap:square;stroke-width:1.5;"/>
    <g/>
   </g>
   <g id="line2d_32">
    <path clip-path="url(#p98e1a75462)" d="M 119.151088 256.855608 
" style="fill:none;stroke:#008000;stroke-linecap:square;stroke-width:1.5;"/>
    <defs>
     <path d="M -12 12 
L 12 -12 
M -12 -12 
L 12 12 
" id="m8b4cda1db5" style="stroke:#008000;stroke-width:3;"/>
    </defs>
    <g clip-path="url(#p98e1a75462)">
     <use style="fill:#008000;stroke:#008000;stroke-width:3;" x="119.151088" xlink:href="#m8b4cda1db5" y="256.855608"/>
    </g>
   </g>
   <g id="line2d_33">
    <defs>
     <path d="M 0 1.5 
C 0.397805 1.5 0.77937 1.341951 1.06066 1.06066 
C 1.341951 0.77937 1.5 0.397805 1.5 0 
C 1.5 -0.397805 1.341951 -0.77937 1.06066 -1.06066 
C 0.77937 -1.341951 0.397805 -1.5 0 -1.5 
C -0.397805 -1.5 -0.77937 -1.341951 -1.06066 -1.06066 
C -1.341951 -0.77937 -1.5 -0.397805 -1.5 0 
C -1.5 0.397805 -1.341951 0.77937 -1.06066 1.06066 
C -0.77937 1.341951 -0.397805 1.5 0 1.5 
z
" id="mde3853657d" style="stroke:#0000ff;"/>
    </defs>
    <g>
     <use style="fill:#0000ff;stroke:#0000ff;" x="200.22555" xlink:href="#mde3853657d" y="251.263785"/>
     <use style="fill:#0000ff;stroke:#0000ff;" x="200.22555" xlink:href="#mde3853657d" y="251.263785"/>
    </g>
   </g>
   <g id="line2d_34">
    <path d="M 40.355341 294.88 
L 40.355341 272.84822 
L 52.280845 272.84822 
L 52.280845 272.736383 
L 73.834464 272.736383 
L 73.834464 272.624547 
L 76.131854 272.624547 
L 76.131854 272.51271 
L 91.896513 272.51271 
L 91.896513 272.400874 
L 92.735942 272.400874 
L 92.735942 272.289037 
L 94.301099 272.289037 
L 94.301099 272.065365 
L 95.033331 272.065365 
L 95.033331 271.729855 
L 95.735668 271.729855 
L 95.735668 271.506182 
L 99.436631 271.506182 
L 99.436631 271.170673 
L 102.009304 271.170673 
L 102.009304 270.499654 
L 102.4807 270.499654 
L 102.4807 270.275981 
L 102.939523 270.275981 
L 102.939523 270.052309 
L 103.386428 270.052309 
L 103.386428 269.716799 
L 105.066285 269.716799 
L 105.066285 269.493126 
L 105.848459 269.493126 
L 105.848459 269.38129 
L 106.226603 269.38129 
L 106.226603 269.157617 
L 106.596615 269.157617 
L 106.596615 268.822108 
L 106.958836 268.822108 
L 106.958836 268.710271 
L 107.313588 268.710271 
L 107.313588 268.486598 
L 107.661173 268.486598 
L 107.661173 268.262925 
L 108.33596 268.262925 
L 108.33596 267.81558 
L 108.985277 267.81558 
L 108.985277 267.256397 
L 109.300972 267.256397 
L 109.300972 267.144561 
L 109.915496 267.144561 
L 109.915496 266.809052 
L 110.214719 266.809052 
L 110.214719 266.249869 
L 111.082375 266.249869 
L 111.082375 266.026196 
L 111.362135 266.026196 
L 111.362135 265.578851 
L 112.175115 265.578851 
L 112.175115 265.467014 
L 112.437789 265.467014 
L 112.437789 265.131505 
L 112.696514 265.131505 
L 112.696514 264.907832 
L 113.934809 264.907832 
L 113.934809 264.684159 
L 114.172121 264.684159 
L 114.172121 264.572323 
L 115.089931 264.572323 
L 115.089931 264.34865 
L 115.96125 264.34865 
L 115.96125 264.124977 
L 118.152108 264.124977 
L 118.245359 263.677631 
L 118.338108 263.677631 
L 118.338108 263.565795 
L 119.757871 263.565795 
L 119.757871 263.453958 
L 120.095232 263.453958 
L 120.095232 263.342122 
L 120.261464 263.342122 
L 120.261464 263.118449 
L 120.750735 263.118449 
L 120.750735 263.006612 
L 120.910781 263.006612 
L 120.910781 262.671103 
L 121.226476 262.671103 
L 121.226476 262.559266 
L 121.382177 262.559266 
L 121.382177 262.44743 
L 121.689415 262.44743 
L 121.689415 262.335594 
L 122.57952 262.335594 
L 122.57952 262.223757 
L 123.562923 262.223757 
L 123.562923 262.000084 
L 125.252304 262.000084 
L 125.252304 261.776411 
L 125.498092 261.776411 
L 125.498092 261.664575 
L 127.45661 261.664575 
L 127.45661 261.440902 
L 127.673027 261.440902 
L 127.673027 261.329066 
L 128.563584 261.329066 
L 128.563584 261.217229 
L 128.716065 261.217229 
L 128.716065 261.105393 
L 129.507233 261.105393 
L 129.507233 260.993556 
L 130.355864 260.993556 
L 130.355864 260.88172 
L 133.230007 260.88172 
L 133.230007 260.769883 
L 133.766505 260.769883 
L 133.766505 260.658047 
L 133.879324 260.658047 
L 133.879324 260.54621 
L 134.862727 260.54621 
L 134.862727 260.434374 
L 136.288798 260.434374 
L 136.288798 260.322538 
L 136.675441 260.322538 
L 136.675441 259.987028 
L 136.802415 259.987028 
L 136.802415 259.875192 
L 137.115809 259.875192 
L 137.146836 259.651519 
L 137.301141 259.651519 
L 137.301141 259.539682 
L 137.845453 259.539682 
L 137.845453 259.427846 
L 137.993644 259.427846 
L 137.993644 259.316009 
L 139.024527 259.316009 
L 139.024527 259.204173 
L 139.327583 259.204173 
L 139.327583 259.092337 
L 139.865278 259.092337 
L 139.918135 258.868664 
L 140.36098 258.868664 
L 140.386678 258.644991 
L 140.742478 258.644991 
L 140.792711 258.421318 
L 141.456884 258.421318 
L 141.456884 258.309481 
L 144.358848 258.309481 
L 144.460471 257.973972 
L 144.521159 257.973972 
L 144.521159 257.862136 
L 145.174963 257.862136 
L 145.174963 257.750299 
L 145.425852 257.750299 
L 145.425852 257.638463 
L 145.860962 257.638463 
L 145.916913 257.41479 
L 146.212283 257.41479 
L 146.212283 257.302953 
L 146.628185 257.302953 
L 146.699501 257.079281 
L 147.54994 257.079281 
L 147.54994 256.967444 
L 148.311781 256.967444 
L 148.311781 256.855608 
L 148.947893 256.855608 
L 148.947893 256.743771 
L 149.576381 256.743771 
L 149.576381 256.631935 
L 150.977803 256.631935 
L 151.074654 256.408262 
L 151.280375 256.408262 
L 151.280375 256.296425 
L 152.312182 256.296425 
L 152.312182 256.184589 
L 152.642811 256.184589 
L 152.642811 256.072752 
L 153.622015 256.072752 
L 153.622015 255.960916 
L 155.703892 255.960916 
L 155.703892 255.84908 
L 157.012762 255.84908 
L 157.012762 255.737243 
L 157.465928 255.737243 
L 157.465928 255.625407 
L 159.176519 255.625407 
L 159.176519 255.51357 
L 160.229183 255.51357 
L 160.229183 255.401734 
L 160.959052 255.401734 
L 160.959052 255.289897 
L 161.569488 255.289897 
L 161.569488 255.178061 
L 161.689019 255.178061 
L 161.689019 255.066224 
L 162.59532 255.066224 
L 162.59532 254.954388 
L 162.993259 254.954388 
L 162.993259 254.842552 
L 163.267119 254.842552 
L 163.267119 254.730715 
L 163.703048 254.730715 
L 163.703048 254.618879 
L 164.422859 254.618879 
L 164.422859 254.507042 
L 164.731277 254.507042 
L 164.731277 254.395206 
L 165.077115 254.395206 
L 165.077115 254.283369 
L 165.398145 254.283369 
L 165.398145 254.171533 
L 166.097841 254.171533 
L 166.155363 253.94786 
L 166.552722 253.94786 
L 166.552722 253.836024 
L 167.164588 253.836024 
L 167.164588 253.724187 
L 167.337016 253.724187 
L 167.337016 253.612351 
L 168.74669 253.612351 
L 168.74669 253.500514 
L 169.055108 253.500514 
L 169.055108 253.388678 
L 169.267278 253.388678 
L 169.267278 253.276841 
L 169.528864 253.276841 
L 169.528864 253.165005 
L 169.669888 253.165005 
L 169.669888 253.053168 
L 172.263746 253.053168 
L 172.263746 252.941332 
L 172.689266 252.941332 
L 172.689266 252.829495 
L 175.418673 252.829495 
L 175.502265 252.605823 
L 175.737475 252.605823 
L 175.737475 252.493986 
L 179.691406 252.493986 
L 179.691406 252.38215 
L 182.395763 252.38215 
L 182.395763 252.270313 
L 182.869574 252.270313 
L 182.895639 252.04664 
L 186.029925 252.04664 
L 186.037159 251.822967 
L 186.935468 251.822967 
L 186.935468 251.711131 
L 188.270692 251.711131 
L 188.270692 251.599295 
L 190.407939 251.599295 
L 190.407939 251.487458 
L 193.600301 251.487458 
L 193.600301 251.375622 
L 200.22555 251.375622 
L 200.22555 251.263785 
L 333.429677 251.263785 
L 333.429677 251.263785 
" style="fill:none;stroke:#0000ff;stroke-linecap:square;stroke-width:1.5;"/>
   </g>
   <g id="line2d_35">
    <defs>
     <path d="M 0 -6 
L -1.347084 -1.854102 
L -5.706339 -1.854102 
L -2.179628 0.708204 
L -3.526712 4.854102 
L -0 2.291796 
L 3.526712 4.854102 
L 2.179628 0.708204 
L 5.706339 -1.854102 
L 1.347084 -1.854102 
z
" id="m3dbbb18229" style="stroke:#0000ff;stroke-linejoin:bevel;stroke-width:1.5;"/>
    </defs>
    <g>
     <use style="fill-opacity:0;stroke:#0000ff;stroke-linejoin:bevel;stroke-width:1.5;" x="95.735668" xlink:href="#m3dbbb18229" y="271.506182"/>
     <use style="fill-opacity:0;stroke:#0000ff;stroke-linejoin:bevel;stroke-width:1.5;" x="152.312182" xlink:href="#m3dbbb18229" y="256.296425"/>
     <use style="fill-opacity:0;stroke:#0000ff;stroke-linejoin:bevel;stroke-width:1.5;" x="200.22555" xlink:href="#m3dbbb18229" y="251.375622"/>
     <use style="fill-opacity:0;stroke:#0000ff;stroke-linejoin:bevel;stroke-width:1.5;" x="200.22555" xlink:href="#m3dbbb18229" y="251.263785"/>
     <use style="fill-opacity:0;stroke:#0000ff;stroke-linejoin:bevel;stroke-width:1.5;" x="200.22555" xlink:href="#m3dbbb18229" y="251.263785"/>
     <use style="fill-opacity:0;stroke:#0000ff;stroke-linejoin:bevel;stroke-width:1.5;" x="333.429677" xlink:href="#m3dbbb18229" y="251.263785"/>
    </g>
   </g>
   <g id="line2d_36">
    <path style="fill:none;stroke:#0000ff;stroke-linecap:square;stroke-width:1.5;"/>
    <g/>
   </g>
   <g id="line2d_37">
    <path clip-path="url(#p98e1a75462)" d="M 134.968604 260.434374 
" style="fill:none;stroke:#0000ff;stroke-linecap:square;stroke-width:1.5;"/>
    <defs>
     <path d="M -12 12 
L 12 -12 
M -12 -12 
L 12 12 
" id="m1ef1cc767f" style="stroke:#0000ff;stroke-width:3;"/>
    </defs>
    <g clip-path="url(#p98e1a75462)">
     <use style="fill:#0000ff;stroke:#0000ff;stroke-width:3;" x="134.968604" xlink:href="#m1ef1cc767f" y="260.434374"/>
    </g>
   </g>
   <g id="line2d_38">
    <defs>
     <path d="M 0 1.5 
C 0.397805 1.5 0.77937 1.341951 1.06066 1.06066 
C 1.341951 0.77937 1.5 0.397805 1.5 0 
C 1.5 -0.397805 1.341951 -0.77937 1.06066 -1.06066 
C 0.77937 -1.341951 0.397805 -1.5 0 -1.5 
C -0.397805 -1.5 -0.77937 -1.341951 -1.06066 -1.06066 
C -1.341951 -0.77937 -1.5 -0.397805 -1.5 0 
C -1.5 0.397805 -1.341951 0.77937 -1.06066 1.06066 
C -0.77937 1.341951 -0.397805 1.5 0 1.5 
z
" id="mf0876e079b" style="stroke:#000000;"/>
    </defs>
    <g>
     <use style="stroke:#000000;" x="211.993186" xlink:href="#mf0876e079b" y="254.618879"/>
     <use style="stroke:#000000;" x="211.993186" xlink:href="#mf0876e079b" y="254.618879"/>
    </g>
   </g>
   <g id="line2d_39">
    <path d="M 28.429836 294.88 
L 28.429836 272.289037 
L 100.77101 272.289037 
L 100.77101 272.177201 
L 103.164427 272.177201 
L 103.164427 272.065365 
L 105.066285 272.065365 
L 105.066285 271.729855 
L 106.412604 271.729855 
L 106.412604 271.506182 
L 106.958836 271.506182 
L 106.958836 271.394346 
L 109.915496 271.394346 
L 109.915496 271.282509 
L 110.508826 271.282509 
L 110.508826 270.947 
L 110.797991 270.947 
L 110.797991 270.835164 
L 111.222824 270.835164 
L 111.222824 270.611491 
L 111.500328 270.611491 
L 111.500328 270.499654 
L 112.696514 270.499654 
L 112.696514 270.387818 
L 113.3268 270.387818 
L 113.3268 270.275981 
L 113.934809 270.275981 
L 113.934809 270.164145 
L 114.406204 270.164145 
L 114.406204 270.052309 
L 115.20129 270.052309 
L 115.20129 269.940472 
L 117.091528 269.940472 
L 117.091528 269.828636 
L 118.973716 269.828636 
L 118.973716 269.493126 
L 119.672487 269.493126 
L 119.672487 269.38129 
L 120.830944 269.38129 
L 120.830944 269.269453 
L 121.459503 269.269453 
L 121.459503 269.04578 
L 122.434331 269.04578 
L 122.434331 268.933944 
L 122.57952 268.933944 
L 122.57952 268.710271 
L 122.866275 268.710271 
L 122.866275 268.486598 
L 123.900947 268.486598 
L 123.900947 268.151089 
L 124.034319 268.151089 
L 124.100619 267.927416 
L 124.493143 267.927416 
L 124.493143 267.81558 
L 124.622019 267.81558 
L 124.686096 267.591907 
L 124.749936 267.591907 
L 124.749936 267.368234 
L 125.065631 267.368234 
L 125.065631 267.256397 
L 125.740418 267.256397 
L 125.740418 267.144561 
L 126.038603 267.144561 
L 126.038603 267.032724 
L 126.331709 267.032724 
L 126.331709 266.809052 
L 126.847034 266.809052 
L 126.847034 266.585379 
L 127.292493 266.585379 
L 127.292493 266.473542 
L 128.045326 266.473542 
L 128.071613 266.026196 
L 128.461173 266.026196 
L 128.512455 265.690687 
L 128.917294 265.690687 
L 128.917294 265.578851 
L 129.603619 265.578851 
L 129.65161 265.243341 
L 130.170864 265.243341 
L 130.170864 265.019668 
L 130.674904 265.019668 
L 130.674904 264.907832 
L 131.076592 264.907832 
L 131.076592 264.795995 
L 132.474065 264.795995 
L 132.474065 264.684159 
L 132.676239 264.684159 
L 132.676239 264.572323 
L 133.652941 264.572323 
L 133.652941 264.460486 
L 134.613119 264.460486 
L 134.684806 264.01314 
L 135.385712 264.01314 
L 135.385712 263.901304 
L 136.321352 263.901304 
L 136.402469 263.677631 
L 136.675441 263.677631 
L 136.675441 263.565795 
L 136.897034 263.565795 
L 136.897034 263.453958 
L 138.94094 263.453958 
L 138.94094 263.342122 
L 139.490663 263.342122 
L 139.490663 263.230285 
L 139.652212 263.230285 
L 139.652212 263.118449 
L 139.97083 263.118449 
L 139.97083 263.006612 
L 140.088807 263.006612 
L 140.101866 262.671103 
L 140.666852 262.671103 
L 140.75505 262.335594 
L 141.815083 262.335594 
L 141.815083 262.223757 
L 142.487143 262.223757 
L 142.498503 262.000084 
L 143.405397 262.000084 
L 143.405397 261.888248 
L 143.587574 261.888248 
L 143.587574 261.776411 
L 145.397089 261.776411 
L 145.397089 261.664575 
L 145.916913 261.664575 
L 145.916913 261.329066 
L 147.294037 261.329066 
L 147.294037 261.105393 
L 147.926795 261.105393 
L 147.926795 260.993556 
L 148.608909 260.993556 
L 148.608909 260.88172 
L 148.924458 260.88172 
L 148.924458 260.769883 
L 149.628984 260.769883 
L 149.628984 260.658047 
L 149.874825 260.658047 
L 149.874825 260.54621 
L 151.644584 260.54621 
L 151.644584 260.434374 
L 152.183306 260.434374 
L 152.183306 260.322538 
L 153.764205 260.322538 
L 153.764205 260.210701 
L 156.089597 260.210701 
L 156.089597 260.098865 
L 156.238425 260.098865 
L 156.238425 259.987028 
L 156.577423 259.987028 
L 156.687295 259.763355 
L 157.999964 259.763355 
L 157.999964 259.651519 
L 160.550329 259.651519 
L 160.550329 259.539682 
L 160.962935 259.539682 
L 160.962935 259.427846 
L 161.365878 259.427846 
L 161.365878 259.316009 
L 162.306874 259.316009 
L 162.306874 259.204173 
L 163.952874 259.204173 
L 163.952874 259.092337 
L 165.383135 259.092337 
L 165.383135 258.9805 
L 166.169714 258.9805 
L 166.184052 258.756827 
L 166.628311 258.756827 
L 166.628311 258.644991 
L 166.745237 258.644991 
L 166.745237 258.533154 
L 166.921897 258.533154 
L 166.921897 258.421318 
L 167.12121 258.421318 
L 167.12121 258.309481 
L 169.48633 258.309481 
L 169.50052 258.085809 
L 171.455896 258.085809 
L 171.455896 257.973972 
L 173.727683 257.973972 
L 173.727683 257.862136 
L 175.179033 257.862136 
L 175.24349 257.638463 
L 176.113366 257.638463 
L 176.113366 257.526626 
L 176.307032 257.526626 
L 176.342011 257.302953 
L 178.511862 257.302953 
L 178.511862 257.191117 
L 180.398345 257.191117 
L 180.398345 257.079281 
L 182.072102 257.079281 
L 182.072102 256.967444 
L 183.305273 256.967444 
L 183.305273 256.855608 
L 183.978592 256.855608 
L 183.978592 256.743771 
L 185.210248 256.743771 
L 185.210248 256.631935 
L 185.897362 256.631935 
L 185.897362 256.520098 
L 186.141715 256.520098 
L 186.141715 256.408262 
L 186.68306 256.408262 
L 186.68306 256.296425 
L 194.562559 256.296425 
L 194.562559 256.184589 
L 194.902882 256.184589 
L 194.902882 256.072752 
L 195.77214 256.072752 
L 195.77214 255.960916 
L 196.07293 255.960916 
L 196.07293 255.84908 
L 196.313912 255.84908 
L 196.386395 255.625407 
L 198.257123 255.625407 
L 198.257123 255.51357 
L 198.55056 255.51357 
L 198.55056 255.401734 
L 199.963168 255.401734 
L 199.963168 255.289897 
L 201.271899 255.289897 
L 201.271899 255.178061 
L 202.466866 255.178061 
L 202.466866 255.066224 
L 209.644607 255.066224 
L 209.644607 254.954388 
L 211.645507 254.954388 
L 211.645507 254.842552 
L 211.915815 254.842552 
L 211.993186 254.618879 
L 333.429677 254.618879 
L 333.429677 254.618879 
" style="fill:none;stroke:#000000;stroke-linecap:square;stroke-width:1.5;"/>
   </g>
   <g id="line2d_40">
    <defs>
     <path d="M 0 6 
C 1.591219 6 3.117479 5.367802 4.242641 4.242641 
C 5.367802 3.117479 6 1.591219 6 0 
C 6 -1.591219 5.367802 -3.117479 4.242641 -4.242641 
C 3.117479 -5.367802 1.591219 -6 0 -6 
C -1.591219 -6 -3.117479 -5.367802 -4.242641 -4.242641 
C -5.367802 -3.117479 -6 -1.591219 -6 0 
C -6 1.591219 -5.367802 3.117479 -4.242641 4.242641 
C -3.117479 5.367802 -1.591219 6 0 6 
z
" id="m568edadf15" style="stroke:#000000;stroke-width:1.5;"/>
    </defs>
    <g>
     <use style="fill-opacity:0;stroke:#000000;stroke-width:1.5;" x="126.331709" xlink:href="#m568edadf15" y="267.032724"/>
     <use style="fill-opacity:0;stroke:#000000;stroke-width:1.5;" x="201.271899" xlink:href="#m568edadf15" y="255.178061"/>
     <use style="fill-opacity:0;stroke:#000000;stroke-width:1.5;" x="211.993186" xlink:href="#m568edadf15" y="254.618879"/>
     <use style="fill-opacity:0;stroke:#000000;stroke-width:1.5;" x="211.993186" xlink:href="#m568edadf15" y="254.618879"/>
     <use style="fill-opacity:0;stroke:#000000;stroke-width:1.5;" x="333.429677" xlink:href="#m568edadf15" y="254.618879"/>
    </g>
   </g>
   <g id="line2d_41">
    <path style="fill:none;stroke:#000000;stroke-linecap:square;stroke-width:1.5;"/>
    <g/>
   </g>
   <g id="line2d_42">
    <path clip-path="url(#p98e1a75462)" d="M 144.521159 261.776411 
" style="fill:none;stroke:#000000;stroke-linecap:square;stroke-width:1.5;"/>
    <defs>
     <path d="M -12 12 
L 12 -12 
M -12 -12 
L 12 12 
" id="mc2baf48527" style="stroke:#000000;stroke-width:3;"/>
    </defs>
    <g clip-path="url(#p98e1a75462)">
     <use style="stroke:#000000;stroke-width:3;" x="144.521159" xlink:href="#mc2baf48527" y="261.776411"/>
    </g>
   </g>
   <g id="line2d_43">
    <defs>
     <path d="M 0 1.5 
C 0.397805 1.5 0.77937 1.341951 1.06066 1.06066 
C 1.341951 0.77937 1.5 0.397805 1.5 0 
C 1.5 -0.397805 1.341951 -0.77937 1.06066 -1.06066 
C 0.77937 -1.341951 0.397805 -1.5 0 -1.5 
C -0.397805 -1.5 -0.77937 -1.341951 -1.06066 -1.06066 
C -1.341951 -0.77937 -1.5 -0.397805 -1.5 0 
C -1.5 0.397805 -1.341951 0.77937 -1.06066 1.06066 
C -0.77937 1.341951 -0.397805 1.5 0 1.5 
z
" id="md841f1fcd6" style="stroke:#ff0000;"/>
    </defs>
    <g>
     <use style="fill:#ff0000;stroke:#ff0000;" x="216.371041" xlink:href="#md841f1fcd6" y="257.973972"/>
     <use style="fill:#ff0000;stroke:#ff0000;" x="216.371041" xlink:href="#md841f1fcd6" y="257.973972"/>
    </g>
   </g>
   <g id="line2d_44">
    <path d="M 16.504332 294.88 
L 16.504332 271.841692 
L 103.052343 271.841692 
L 103.052343 271.729855 
L 104.763552 271.729855 
L 104.763552 271.618019 
L 109.064745 271.618019 
L 109.064745 271.282509 
L 116.891469 271.282509 
L 116.891469 271.170673 
L 117.289287 271.170673 
L 117.289287 271.058837 
L 120.870909 271.058837 
L 120.870909 270.947 
L 123.043099 270.947 
L 123.043099 270.835164 
L 124.199593 270.835164 
L 124.199593 270.723327 
L 125.190304 270.723327 
L 125.190304 270.611491 
L 125.52857 270.611491 
L 125.52857 270.387818 
L 125.860313 270.387818 
L 125.860313 270.052309 
L 128.150234 270.052309 
L 128.228497 269.828636 
L 129.603619 269.828636 
L 129.699468 269.493126 
L 129.960332 269.493126 
L 129.960332 269.269453 
L 130.100972 269.269453 
L 130.100972 269.04578 
L 130.240472 269.04578 
L 130.240472 268.933944 
L 131.03242 268.933944 
L 131.03242 268.822108 
L 131.425941 268.822108 
L 131.425941 268.710271 
L 131.683376 268.710271 
L 131.683376 268.486598 
L 132.915754 268.486598 
L 132.915754 268.374762 
L 133.317366 268.374762 
L 133.317366 268.262925 
L 133.595877 268.262925 
L 133.595877 268.151089 
L 133.860572 268.151089 
L 133.860572 268.039252 
L 135.20447 268.039252 
L 135.20447 267.927416 
L 135.385712 267.927416 
L 135.385712 267.81558 
L 135.556566 267.81558 
L 135.556566 267.703743 
L 135.742566 267.703743 
L 135.742566 267.48007 
L 137.123571 267.48007 
L 137.123571 267.368234 
L 137.301141 267.368234 
L 137.301141 267.256397 
L 137.964108 267.256397 
L 138.052565 266.809052 
L 139.490663 266.809052 
L 139.490663 266.585379 
L 139.705727 266.585379 
L 139.785688 266.138033 
L 140.805247 266.138033 
L 140.805247 266.026196 
L 141.323654 266.026196 
L 141.323654 265.802523 
L 142.246832 265.802523 
L 142.246832 265.690687 
L 142.43023 265.690687 
L 142.43023 265.578851 
L 142.622972 265.578851 
L 142.622972 265.467014 
L 143.02414 265.467014 
L 143.068142 265.243341 
L 143.491367 265.243341 
L 143.491367 265.131505 
L 143.998361 265.131505 
L 143.998361 265.019668 
L 144.419894 265.019668 
L 144.419894 264.907832 
L 145.097025 264.907832 
L 145.097025 264.795995 
L 146.574504 264.795995 
L 146.583462 264.34865 
L 146.779379 264.34865 
L 146.779379 264.124977 
L 147.138648 264.124977 
L 147.225149 263.789467 
L 147.285441 263.789467 
L 147.285441 263.342122 
L 147.91851 263.342122 
L 147.91851 263.230285 
L 148.497085 263.230285 
L 148.497085 263.118449 
L 148.735824 263.118449 
L 148.767407 262.782939 
L 149.455539 262.782939 
L 149.523617 262.559266 
L 150.577754 262.559266 
L 150.655684 262.335594 
L 150.894352 262.335594 
L 150.894352 262.223757 
L 152.079506 262.223757 
L 152.079506 262.111921 
L 152.617602 262.111921 
L 152.617602 262.000084 
L 153.044281 262.000084 
L 153.044281 261.888248 
L 153.96365 261.888248 
L 153.96365 261.664575 
L 154.900007 261.664575 
L 154.900007 261.552738 
L 155.239084 261.552738 
L 155.271546 261.329066 
L 155.587535 261.329066 
L 155.587535 261.217229 
L 156.674845 261.217229 
L 156.674845 261.105393 
L 158.085085 261.105393 
L 158.085085 260.993556 
L 158.802012 260.993556 
L 158.802012 260.88172 
L 159.206646 260.88172 
L 159.208796 260.658047 
L 162.868585 260.658047 
L 162.868585 260.54621 
L 163.546714 260.54621 
L 163.546714 260.434374 
L 163.752644 260.434374 
L 163.752644 260.322538 
L 168.033132 260.322538 
L 168.033132 260.210701 
L 170.739619 260.210701 
L 170.739619 260.098865 
L 175.218923 260.098865 
L 175.218923 259.987028 
L 176.529992 259.987028 
L 176.529992 259.875192 
L 176.771028 259.875192 
L 176.771028 259.763355 
L 180.269252 259.763355 
L 180.269252 259.651519 
L 181.396449 259.651519 
L 181.396449 259.539682 
L 181.709711 259.539682 
L 181.709711 259.427846 
L 184.119149 259.427846 
L 184.157513 259.204173 
L 184.505421 259.204173 
L 184.505421 259.092337 
L 190.103363 259.092337 
L 190.103363 258.9805 
L 190.42406 258.9805 
L 190.42406 258.868664 
L 192.024197 258.868664 
L 192.024197 258.756827 
L 194.09976 258.756827 
L 194.09976 258.644991 
L 196.496274 258.644991 
L 196.539048 258.421318 
L 204.281632 258.421318 
L 204.281946 258.197645 
L 210.947153 258.197645 
L 210.947153 258.085809 
L 216.371041 258.085809 
L 216.371041 257.973972 
L 333.429677 257.973972 
L 333.429677 257.973972 
" style="fill:none;stroke:#ff0000;stroke-linecap:square;stroke-width:1.5;"/>
   </g>
   <g id="line2d_45">
    <defs>
     <path d="M -6 6 
L 6 6 
L 6 -6 
L -6 -6 
z
" id="macde3337e6" style="stroke:#ff0000;stroke-linejoin:miter;stroke-width:1.5;"/>
    </defs>
    <g>
     <use style="fill-opacity:0;stroke:#ff0000;stroke-linejoin:miter;stroke-width:1.5;" x="140.805247" xlink:href="#macde3337e6" y="266.138033"/>
     <use style="fill-opacity:0;stroke:#ff0000;stroke-linejoin:miter;stroke-width:1.5;" x="216.371041" xlink:href="#macde3337e6" y="258.085809"/>
     <use style="fill-opacity:0;stroke:#ff0000;stroke-linejoin:miter;stroke-width:1.5;" x="216.371041" xlink:href="#macde3337e6" y="257.973972"/>
     <use style="fill-opacity:0;stroke:#ff0000;stroke-linejoin:miter;stroke-width:1.5;" x="216.371041" xlink:href="#macde3337e6" y="257.973972"/>
     <use style="fill-opacity:0;stroke:#ff0000;stroke-linejoin:miter;stroke-width:1.5;" x="333.429677" xlink:href="#macde3337e6" y="257.973972"/>
    </g>
   </g>
   <g id="line2d_46">
    <path style="fill:none;stroke:#ff0000;stroke-linecap:square;stroke-width:1.5;"/>
    <g/>
   </g>
   <g id="line2d_47">
    <path clip-path="url(#p98e1a75462)" d="M 147.276841 263.789467 
" style="fill:none;stroke:#ff0000;stroke-linecap:square;stroke-width:1.5;"/>
    <defs>
     <path d="M -12 12 
L 12 -12 
M -12 -12 
L 12 12 
" id="mc1f8b8841f" style="stroke:#ff0000;stroke-width:3;"/>
    </defs>
    <g clip-path="url(#p98e1a75462)">
     <use style="fill:#ff0000;stroke:#ff0000;stroke-width:3;" x="147.276841" xlink:href="#mc1f8b8841f" y="263.789467"/>
    </g>
   </g>
   <g id="line2d_48">
    <defs>
     <path d="M 0 1.5 
C 0.397805 1.5 0.77937 1.341951 1.06066 1.06066 
C 1.341951 0.77937 1.5 0.397805 1.5 0 
C 1.5 -0.397805 1.341951 -0.77937 1.06066 -1.06066 
C 0.77937 -1.341951 0.397805 -1.5 0 -1.5 
C -0.397805 -1.5 -0.77937 -1.341951 -1.06066 -1.06066 
C -1.341951 -0.77937 -1.5 -0.397805 -1.5 0 
C -1.5 0.397805 -1.341951 0.77937 -1.06066 1.06066 
C -0.77937 1.341951 -0.397805 1.5 0 1.5 
z
" id="mab0a8f3d80" style="stroke:#bf00bf;"/>
    </defs>
    <g>
     <use style="fill:#bf00bf;stroke:#bf00bf;" x="194.911251" xlink:href="#mab0a8f3d80" y="263.565795"/>
     <use style="fill:#bf00bf;stroke:#bf00bf;" x="194.911251" xlink:href="#mab0a8f3d80" y="263.565795"/>
    </g>
   </g>
   <g id="line2d_49">
    <path d="M 4.578827 294.88 
L 4.578827 271.506182 
L 115.908066 271.506182 
L 115.908066 271.170673 
L 116.966764 271.170673 
L 116.966764 271.058837 
L 123.356875 271.058837 
L 123.356875 270.947 
L 124.166665 270.947 
L 124.166665 270.723327 
L 124.781768 270.723327 
L 124.781768 270.611491 
L 125.375637 270.611491 
L 125.375637 270.499654 
L 133.404284 270.499654 
L 133.404284 270.387818 
L 139.725752 270.387818 
L 139.725752 270.275981 
L 141.213874 270.275981 
L 141.213874 270.052309 
L 142.946864 270.052309 
L 142.946864 269.940472 
L 144.741866 269.940472 
L 144.741866 269.828636 
L 145.389891 269.828636 
L 145.389891 269.493126 
L 146.36716 269.493126 
L 146.36716 269.269453 
L 146.916084 269.269453 
L 146.916084 269.157617 
L 147.125636 269.157617 
L 147.125636 269.04578 
L 147.281142 269.04578 
L 147.281142 268.933944 
L 148.517107 268.933944 
L 148.517107 268.710271 
L 151.134911 268.710271 
L 151.134911 268.598435 
L 151.399252 268.598435 
L 151.399252 268.486598 
L 152.35386 268.486598 
L 152.35386 268.374762 
L 153.460634 268.374762 
L 153.460634 268.262925 
L 153.490634 268.262925 
L 153.490634 268.151089 
L 153.928621 268.151089 
L 153.928621 267.927416 
L 154.883429 267.927416 
L 154.883429 267.591907 
L 155.727595 267.591907 
L 155.727595 267.256397 
L 156.813774 267.256397 
L 156.813774 267.032724 
L 157.446886 267.032724 
L 157.446886 266.920888 
L 157.45879 266.920888 
L 157.45879 266.809052 
L 157.556093 266.809052 
L 157.556093 266.697215 
L 158.468617 266.697215 
L 158.468617 266.585379 
L 158.651673 266.585379 
L 158.651673 266.473542 
L 159.022912 266.473542 
L 159.022912 266.361706 
L 159.142023 266.361706 
L 159.142023 266.249869 
L 160.14388 266.249869 
L 160.14388 266.138033 
L 161.087703 266.138033 
L 161.087703 266.026196 
L 162.20964 266.026196 
L 162.20964 265.91436 
L 164.14112 265.91436 
L 164.14112 265.802523 
L 165.098501 265.802523 
L 165.098501 265.578851 
L 166.058904 265.578851 
L 166.058904 265.467014 
L 169.937572 265.467014 
L 169.937572 265.355178 
L 170.32497 265.355178 
L 170.32497 265.243341 
L 172.197181 265.243341 
L 172.197181 265.131505 
L 173.046904 265.131505 
L 173.046904 265.019668 
L 174.021007 265.019668 
L 174.021007 264.907832 
L 174.3585 264.907832 
L 174.3585 264.795995 
L 174.748846 264.795995 
L 174.748846 264.684159 
L 177.572754 264.684159 
L 177.572754 264.572323 
L 178.104898 264.572323 
L 178.104898 264.460486 
L 179.69206 264.460486 
L 179.69206 264.34865 
L 180.08592 264.34865 
L 180.08592 264.236813 
L 180.272412 264.236813 
L 180.272412 264.124977 
L 182.634024 264.124977 
L 182.634024 264.01314 
L 183.054161 264.01314 
L 183.054161 263.901304 
L 188.108746 263.901304 
L 188.108746 263.789467 
L 189.748909 263.789467 
L 189.748909 263.677631 
L 194.911251 263.677631 
L 194.911251 263.565795 
L 333.429677 263.565795 
" style="fill:none;stroke:#bf00bf;stroke-linecap:square;stroke-width:1.5;"/>
   </g>
   <g id="line2d_50">
    <defs>
     <path d="M -0 8.485281 
L 8.485281 0 
L 0 -8.485281 
L -8.485281 -0 
z
" id="m6d8a0fc8d5" style="stroke:#bf00bf;stroke-linejoin:miter;stroke-width:1.5;"/>
    </defs>
    <g>
     <use style="fill-opacity:0;stroke:#bf00bf;stroke-linejoin:miter;stroke-width:1.5;" x="115.908066" xlink:href="#m6d8a0fc8d5" y="271.170673"/>
     <use style="fill-opacity:0;stroke:#bf00bf;stroke-linejoin:miter;stroke-width:1.5;" x="189.748909" xlink:href="#m6d8a0fc8d5" y="263.677631"/>
     <use style="fill-opacity:0;stroke:#bf00bf;stroke-linejoin:miter;stroke-width:1.5;" x="194.911251" xlink:href="#m6d8a0fc8d5" y="263.677631"/>
     <use style="fill-opacity:0;stroke:#bf00bf;stroke-linejoin:miter;stroke-width:1.5;" x="194.911251" xlink:href="#m6d8a0fc8d5" y="263.565795"/>
     <use style="fill-opacity:0;stroke:#bf00bf;stroke-linejoin:miter;stroke-width:1.5;" x="333.429677" xlink:href="#m6d8a0fc8d5" y="263.565795"/>
    </g>
   </g>
   <g id="line2d_51">
    <path style="fill:none;stroke:#bf00bf;stroke-linecap:square;stroke-width:1.5;"/>
    <g/>
   </g>
   <g id="line2d_52">
    <path clip-path="url(#p98e1a75462)" d="M 147.276841 269.04578 
" style="fill:none;stroke:#bf00bf;stroke-linecap:square;stroke-width:1.5;"/>
    <defs>
     <path d="M -12 12 
L 12 -12 
M -12 -12 
L 12 12 
" id="md6fb142540" style="stroke:#bf00bf;stroke-width:3;"/>
    </defs>
    <g clip-path="url(#p98e1a75462)">
     <use style="fill:#bf00bf;stroke:#bf00bf;stroke-width:3;" x="147.276841" xlink:href="#md6fb142540" y="269.04578"/>
    </g>
   </g>
   <g id="line2d_53">
    <path d="M 333.429677 263.565795 
L 363.933742 289.176341 
" style="fill:none;stroke:#bf00bf;stroke-linecap:square;stroke-width:1.5;"/>
    <g>
     <use style="fill-opacity:0;stroke:#bf00bf;stroke-linejoin:miter;stroke-width:1.5;" x="333.429677" xlink:href="#m6d8a0fc8d5" y="263.565795"/>
     <use style="fill-opacity:0;stroke:#bf00bf;stroke-linejoin:miter;stroke-width:1.5;" x="363.933742" xlink:href="#m6d8a0fc8d5" y="289.176341"/>
    </g>
   </g>
   <g id="line2d_54">
    <path d="M 333.429677 257.973972 
L 363.933742 234.421216 
" style="fill:none;stroke:#ff0000;stroke-linecap:square;stroke-width:1.5;"/>
    <g>
     <use style="fill-opacity:0;stroke:#ff0000;stroke-linejoin:miter;stroke-width:1.5;" x="333.429677" xlink:href="#macde3337e6" y="257.973972"/>
     <use style="fill-opacity:0;stroke:#ff0000;stroke-linejoin:miter;stroke-width:1.5;" x="363.933742" xlink:href="#macde3337e6" y="234.421216"/>
    </g>
   </g>
   <g id="line2d_55">
    <path d="M 333.429677 254.618879 
L 363.933742 179.666091 
" style="fill:none;stroke:#000000;stroke-linecap:square;stroke-width:1.5;"/>
    <g>
     <use style="fill-opacity:0;stroke:#000000;stroke-width:1.5;" x="333.429677" xlink:href="#m568edadf15" y="254.618879"/>
     <use style="fill-opacity:0;stroke:#000000;stroke-width:1.5;" x="363.933742" xlink:href="#m568edadf15" y="179.666091"/>
    </g>
   </g>
   <g id="line2d_56">
    <path d="M 333.429677 251.263785 
L 363.933742 124.910966 
" style="fill:none;stroke:#0000ff;stroke-linecap:square;stroke-width:1.5;"/>
    <g>
     <use style="fill-opacity:0;stroke:#0000ff;stroke-linejoin:bevel;stroke-width:1.5;" x="333.429677" xlink:href="#m3dbbb18229" y="251.263785"/>
     <use style="fill-opacity:0;stroke:#0000ff;stroke-linejoin:bevel;stroke-width:1.5;" x="363.933742" xlink:href="#m3dbbb18229" y="124.910966"/>
    </g>
   </g>
   <g id="line2d_57">
    <path d="M 333.429677 243.435234 
L 363.933742 70.155841 
" style="fill:none;stroke:#00bfbf;stroke-linecap:square;stroke-width:1.5;"/>
    <g>
     <use style="fill-opacity:0;stroke:#00bfbf;stroke-width:1.5;" x="333.429677" xlink:href="#m2e2bd4dc7f" y="243.435234"/>
     <use style="fill-opacity:0;stroke:#00bfbf;stroke-width:1.5;" x="363.933742" xlink:href="#m2e2bd4dc7f" y="70.155841"/>
    </g>
   </g>
   <g id="line2d_58">
    <path d="M 333.429677 237.843411 
L 363.933742 15.400716 
" style="fill:none;stroke:#008000;stroke-linecap:square;stroke-width:1.5;"/>
    <g>
     <use style="fill-opacity:0;stroke:#008000;stroke-linejoin:miter;stroke-width:1.5;" x="333.429677" xlink:href="#ma87ba2cdac" y="237.843411"/>
     <use style="fill-opacity:0;stroke:#008000;stroke-linejoin:miter;stroke-width:1.5;" x="363.933742" xlink:href="#ma87ba2cdac" y="15.400716"/>
    </g>
   </g>
   <g id="line2d_59">
    <path d="M 333.429677 294.88 
L 333.429677 9.697057 
" style="fill:none;stroke:#000000;stroke-linecap:square;stroke-width:1.5;"/>
   </g>
   <g id="patch_3">
    <path d="M 56.12 294.88 
L 56.12 6.845228 
" style="fill:none;stroke:#000000;stroke-linecap:square;stroke-linejoin:miter;stroke-width:0.8;"/>
   </g>
   <g id="patch_4">
    <path d="M 399.984 294.88 
L 399.984 6.845228 
" style="fill:none;stroke:#000000;stroke-linecap:square;stroke-linejoin:miter;stroke-width:0.8;"/>
   </g>
   <g id="patch_5">
    <path d="M 56.12 294.88 
L 399.984 294.88 
" style="fill:none;stroke:#000000;stroke-linecap:square;stroke-linejoin:miter;stroke-width:0.8;"/>
   </g>
   <g id="patch_6">
    <path d="M 56.12 6.845228 
L 399.984 6.845228 
" style="fill:none;stroke:#000000;stroke-linecap:square;stroke-linejoin:miter;stroke-width:0.8;"/>
   </g>
   <g id="text_14">
    <!-- 40-D -->
    <defs>
     <path d="M 19.671875 64.796875 
L 19.671875 8.109375 
L 31.59375 8.109375 
Q 46.6875 8.109375 53.6875 14.9375 
Q 60.6875 21.78125 60.6875 36.53125 
Q 60.6875 51.171875 53.6875 57.984375 
Q 46.6875 64.796875 31.59375 64.796875 
z
M 9.8125 72.90625 
L 30.078125 72.90625 
Q 51.265625 72.90625 61.171875 64.09375 
Q 71.09375 55.28125 71.09375 36.53125 
Q 71.09375 17.671875 61.125 8.828125 
Q 51.171875 0 30.078125 0 
L 9.8125 0 
z
" id="DejaVuSans-44"/>
    </defs>
    <g transform="translate(369.479935 293.867279)scale(0.17 -0.17)">
     <use xlink:href="#DejaVuSans-34"/>
     <use x="63.623047" xlink:href="#DejaVuSans-30"/>
     <use x="127.246094" xlink:href="#DejaVuSans-2d"/>
     <use x="163.330078" xlink:href="#DejaVuSans-44"/>
    </g>
   </g>
   <g id="text_15">
    <!-- 20-D -->
    <g transform="translate(369.479935 239.112154)scale(0.17 -0.17)">
     <use xlink:href="#DejaVuSans-32"/>
     <use x="63.623047" xlink:href="#DejaVuSans-30"/>
     <use x="127.246094" xlink:href="#DejaVuSans-2d"/>
     <use x="163.330078" xlink:href="#DejaVuSans-44"/>
    </g>
   </g>
   <g id="text_16">
    <!-- 10-D -->
    <g transform="translate(369.479935 184.357029)scale(0.17 -0.17)">
     <use xlink:href="#DejaVuSans-31"/>
     <use x="63.623047" xlink:href="#DejaVuSans-30"/>
     <use x="127.246094" xlink:href="#DejaVuSans-2d"/>
     <use x="163.330078" xlink:href="#DejaVuSans-44"/>
    </g>
   </g>
   <g id="text_17">
    <!-- 5-D -->
    <defs>
     <path d="M 10.796875 72.90625 
L 49.515625 72.90625 
L 49.515625 64.59375 
L 19.828125 64.59375 
L 19.828125 46.734375 
Q 21.96875 47.46875 24.109375 47.828125 
Q 26.265625 48.1875 28.421875 48.1875 
Q 40.625 48.1875 47.75 41.5 
Q 54.890625 34.8125 54.890625 23.390625 
Q 54.890625 11.625 47.5625 5.09375 
Q 40.234375 -1.421875 26.90625 -1.421875 
Q 22.3125 -1.421875 17.546875 -0.640625 
Q 12.796875 0.140625 7.71875 1.703125 
L 7.71875 11.625 
Q 12.109375 9.234375 16.796875 8.0625 
Q 21.484375 6.890625 26.703125 6.890625 
Q 35.15625 6.890625 40.078125 11.328125 
Q 45.015625 15.765625 45.015625 23.390625 
Q 45.015625 31 40.078125 35.4375 
Q 35.15625 39.890625 26.703125 39.890625 
Q 22.75 39.890625 18.8125 39.015625 
Q 14.890625 38.140625 10.796875 36.28125 
z
" id="DejaVuSans-35"/>
    </defs>
    <g transform="translate(369.479935 129.601904)scale(0.17 -0.17)">
     <use xlink:href="#DejaVuSans-35"/>
     <use x="63.623047" xlink:href="#DejaVuSans-2d"/>
     <use x="99.707031" xlink:href="#DejaVuSans-44"/>
    </g>
   </g>
   <g id="text_18">
    <!-- 2-D -->
    <g transform="translate(369.479935 74.846779)scale(0.17 -0.17)">
     <use xlink:href="#DejaVuSans-32"/>
     <use x="63.623047" xlink:href="#DejaVuSans-2d"/>
     <use x="99.707031" xlink:href="#DejaVuSans-44"/>
    </g>
   </g>
   <g id="text_19">
    <!-- 3-D -->
    <defs>
     <path d="M 40.578125 39.3125 
Q 47.65625 37.796875 51.625 33 
Q 55.609375 28.21875 55.609375 21.1875 
Q 55.609375 10.40625 48.1875 4.484375 
Q 40.765625 -1.421875 27.09375 -1.421875 
Q 22.515625 -1.421875 17.65625 -0.515625 
Q 12.796875 0.390625 7.625 2.203125 
L 7.625 11.71875 
Q 11.71875 9.328125 16.59375 8.109375 
Q 21.484375 6.890625 26.8125 6.890625 
Q 36.078125 6.890625 40.9375 10.546875 
Q 45.796875 14.203125 45.796875 21.1875 
Q 45.796875 27.640625 41.28125 31.265625 
Q 36.765625 34.90625 28.71875 34.90625 
L 20.21875 34.90625 
L 20.21875 43.015625 
L 29.109375 43.015625 
Q 36.375 43.015625 40.234375 45.921875 
Q 44.09375 48.828125 44.09375 54.296875 
Q 44.09375 59.90625 40.109375 62.90625 
Q 36.140625 65.921875 28.71875 65.921875 
Q 24.65625 65.921875 20.015625 65.03125 
Q 15.375 64.15625 9.8125 62.3125 
L 9.8125 71.09375 
Q 15.4375 72.65625 20.34375 73.4375 
Q 25.25 74.21875 29.59375 74.21875 
Q 40.828125 74.21875 47.359375 69.109375 
Q 53.90625 64.015625 53.90625 55.328125 
Q 53.90625 49.265625 50.4375 45.09375 
Q 46.96875 40.921875 40.578125 39.3125 
z
" id="DejaVuSans-33"/>
    </defs>
    <g transform="translate(369.479935 20.091654)scale(0.17 -0.17)">
     <use xlink:href="#DejaVuSans-33"/>
     <use x="63.623047" xlink:href="#DejaVuSans-2d"/>
     <use x="99.707031" xlink:href="#DejaVuSans-44"/>
    </g>
   </g>
   <g id="text_20">
    <!-- bbob f15-f19 -->
    <defs>
     <path d="M 48.6875 27.296875 
Q 48.6875 37.203125 44.609375 42.84375 
Q 40.53125 48.484375 33.40625 48.484375 
Q 26.265625 48.484375 22.1875 42.84375 
Q 18.109375 37.203125 18.109375 27.296875 
Q 18.109375 17.390625 22.1875 11.75 
Q 26.265625 6.109375 33.40625 6.109375 
Q 40.53125 6.109375 44.609375 11.75 
Q 48.6875 17.390625 48.6875 27.296875 
z
M 18.109375 46.390625 
Q 20.953125 51.265625 25.265625 53.625 
Q 29.59375 56 35.59375 56 
Q 45.5625 56 51.78125 48.09375 
Q 58.015625 40.1875 58.015625 27.296875 
Q 58.015625 14.40625 51.78125 6.484375 
Q 45.5625 -1.421875 35.59375 -1.421875 
Q 29.59375 -1.421875 25.265625 0.953125 
Q 20.953125 3.328125 18.109375 8.203125 
L 18.109375 0 
L 9.078125 0 
L 9.078125 75.984375 
L 18.109375 75.984375 
z
" id="DejaVuSans-62"/>
     <path d="M 10.984375 1.515625 
L 10.984375 10.5 
Q 14.703125 8.734375 18.5 7.8125 
Q 22.3125 6.890625 25.984375 6.890625 
Q 35.75 6.890625 40.890625 13.453125 
Q 46.046875 20.015625 46.78125 33.40625 
Q 43.953125 29.203125 39.59375 26.953125 
Q 35.25 24.703125 29.984375 24.703125 
Q 19.046875 24.703125 12.671875 31.3125 
Q 6.296875 37.9375 6.296875 49.421875 
Q 6.296875 60.640625 12.9375 67.421875 
Q 19.578125 74.21875 30.609375 74.21875 
Q 43.265625 74.21875 49.921875 64.515625 
Q 56.59375 54.828125 56.59375 36.375 
Q 56.59375 19.140625 48.40625 8.859375 
Q 40.234375 -1.421875 26.421875 -1.421875 
Q 22.703125 -1.421875 18.890625 -0.6875 
Q 15.09375 0.046875 10.984375 1.515625 
z
M 30.609375 32.421875 
Q 37.25 32.421875 41.125 36.953125 
Q 45.015625 41.5 45.015625 49.421875 
Q 45.015625 57.28125 41.125 61.84375 
Q 37.25 66.40625 30.609375 66.40625 
Q 23.96875 66.40625 20.09375 61.84375 
Q 16.21875 57.28125 16.21875 49.421875 
Q 16.21875 41.5 20.09375 36.953125 
Q 23.96875 32.421875 30.609375 32.421875 
z
" id="DejaVuSans-39"/>
    </defs>
    <g transform="translate(59.55864 17.475982)scale(0.102 -0.102)">
     <use xlink:href="#DejaVuSans-62"/>
     <use x="63.476562" xlink:href="#DejaVuSans-62"/>
     <use x="126.953125" xlink:href="#DejaVuSans-6f"/>
     <use x="188.134766" xlink:href="#DejaVuSans-62"/>
     <use x="251.611328" xlink:href="#DejaVuSans-20"/>
     <use x="283.398438" xlink:href="#DejaVuSans-66"/>
     <use x="318.603516" xlink:href="#DejaVuSans-31"/>
     <use x="382.226562" xlink:href="#DejaVuSans-35"/>
     <use x="445.849609" xlink:href="#DejaVuSans-2d"/>
     <use x="481.933594" xlink:href="#DejaVuSans-66"/>
     <use x="517.138672" xlink:href="#DejaVuSans-31"/>
     <use x="580.761719" xlink:href="#DejaVuSans-39"/>
    </g>
    <!-- 51 targets: 100..1e-08 -->
    <defs>
     <path d="M 11.71875 12.40625 
L 22.015625 12.40625 
L 22.015625 0 
L 11.71875 0 
z
M 11.71875 51.703125 
L 22.015625 51.703125 
L 22.015625 39.3125 
L 11.71875 39.3125 
z
" id="DejaVuSans-3a"/>
    </defs>
    <g transform="translate(59.55864 28.89775)scale(0.102 -0.102)">
     <use xlink:href="#DejaVuSans-35"/>
     <use x="63.623047" xlink:href="#DejaVuSans-31"/>
     <use x="127.246094" xlink:href="#DejaVuSans-20"/>
     <use x="159.033203" xlink:href="#DejaVuSans-74"/>
     <use x="198.242188" xlink:href="#DejaVuSans-61"/>
     <use x="259.521484" xlink:href="#DejaVuSans-72"/>
     <use x="300.619141" xlink:href="#DejaVuSans-67"/>
     <use x="364.095703" xlink:href="#DejaVuSans-65"/>
     <use x="425.619141" xlink:href="#DejaVuSans-74"/>
     <use x="464.828125" xlink:href="#DejaVuSans-73"/>
     <use x="516.927734" xlink:href="#DejaVuSans-3a"/>
     <use x="550.619141" xlink:href="#DejaVuSans-20"/>
     <use x="582.40625" xlink:href="#DejaVuSans-31"/>
     <use x="646.029297" xlink:href="#DejaVuSans-30"/>
     <use x="709.652344" xlink:href="#DejaVuSans-30"/>
     <use x="773.275391" xlink:href="#DejaVuSans-2e"/>
     <use x="805.0625" xlink:href="#DejaVuSans-2e"/>
     <use x="836.849609" xlink:href="#DejaVuSans-31"/>
     <use x="900.472656" xlink:href="#DejaVuSans-65"/>
     <use x="961.996094" xlink:href="#DejaVuSans-2d"/>
     <use x="998.080078" xlink:href="#DejaVuSans-30"/>
     <use x="1061.703125" xlink:href="#DejaVuSans-38"/>
    </g>
    <!-- 15 instances -->
    <g transform="translate(59.55864 40.319519)scale(0.102 -0.102)">
     <use xlink:href="#DejaVuSans-31"/>
     <use x="63.623047" xlink:href="#DejaVuSans-35"/>
     <use x="127.246094" xlink:href="#DejaVuSans-20"/>
     <use x="159.033203" xlink:href="#DejaVuSans-69"/>
     <use x="186.816406" xlink:href="#DejaVuSans-6e"/>
     <use x="250.195312" xlink:href="#DejaVuSans-73"/>
     <use x="302.294922" xlink:href="#DejaVuSans-74"/>
     <use x="341.503906" xlink:href="#DejaVuSans-61"/>
     <use x="402.783203" xlink:href="#DejaVuSans-6e"/>
     <use x="466.162109" xlink:href="#DejaVuSans-63"/>
     <use x="521.142578" xlink:href="#DejaVuSans-65"/>
     <use x="582.666016" xlink:href="#DejaVuSans-73"/>
    </g>
   </g>
   <g id="text_21">
    <!-- v2.2.1.10 -->
    <g style="fill:#808080;" transform="translate(204.419188 289.919965)scale(0.1 -0.1)">
     <use xlink:href="#DejaVuSans-76"/>
     <use x="59.179688" xlink:href="#DejaVuSans-32"/>
     <use x="122.802734" xlink:href="#DejaVuSans-2e"/>
     <use x="154.589844" xlink:href="#DejaVuSans-32"/>
     <use x="218.212891" xlink:href="#DejaVuSans-2e"/>
     <use x="250" xlink:href="#DejaVuSans-31"/>
     <use x="313.623047" xlink:href="#DejaVuSans-2e"/>
     <use x="345.410156" xlink:href="#DejaVuSans-31"/>
     <use x="409.033203" xlink:href="#DejaVuSans-30"/>
    </g>
   </g>
  </g>
 </g>
 <defs>
  <clipPath id="p98e1a75462">
   <rect height="288.034772" width="343.864" x="56.12" y="6.845228"/>
  </clipPath>
 </defs>
</svg>
