<?xml version="1.0" encoding="utf-8" standalone="no"?>
<!DOCTYPE svg PUBLIC "-//W3C//DTD SVG 1.1//EN"
  "http://www.w3.org/Graphics/SVG/1.1/DTD/svg11.dtd">
<!-- Created with matplotlib (http://matplotlib.org/) -->
<svg height="345.6pt" version="1.1" viewBox="0 0 460.8 345.6" width="460.8pt" xmlns="http://www.w3.org/2000/svg" xmlns:xlink="http://www.w3.org/1999/xlink">
 <defs>
  <style type="text/css">
*{stroke-linecap:butt;stroke-linejoin:round;}
  </style>
 </defs>
 <g id="figure_1">
  <g id="patch_1">
   <path d="M 0 345.6 
L 460.8 345.6 
L 460.8 0 
L 0 0 
z
" style="fill:#ffffff;"/>
  </g>
  <g id="axes_1">
   <g id="patch_2">
    <path d="M 56.12 294.88 
L 399.984 294.88 
L 399.984 24.84 
L 56.12 24.84 
z
" style="fill:#ffffff;"/>
   </g>
   <g id="matplotlib.axis_1">
    <g id="xtick_1">
     <g id="line2d_1">
      <path clip-path="url(#p555a41d470)" d="M 56.12 294.88 
L 56.12 24.84 
" style="fill:none;stroke:#b0b0b0;stroke-linecap:square;stroke-width:0.8;"/>
     </g>
     <g id="line2d_2">
      <defs>
       <path d="M 0 0 
L 0 3.5 
" id="m6fa5141a0b" style="stroke:#000000;stroke-width:0.8;"/>
      </defs>
      <g>
       <use style="stroke:#000000;stroke-width:0.8;" x="56.12" xlink:href="#m6fa5141a0b" y="294.88"/>
      </g>
     </g>
     <g id="text_1">
      <!-- 0 -->
      <defs>
       <path d="M 31.78125 66.40625 
Q 24.171875 66.40625 20.328125 58.90625 
Q 16.5 51.421875 16.5 36.375 
Q 16.5 21.390625 20.328125 13.890625 
Q 24.171875 6.390625 31.78125 6.390625 
Q 39.453125 6.390625 43.28125 13.890625 
Q 47.125 21.390625 47.125 36.375 
Q 47.125 51.421875 43.28125 58.90625 
Q 39.453125 66.40625 31.78125 66.40625 
z
M 31.78125 74.21875 
Q 44.046875 74.21875 50.515625 64.515625 
Q 56.984375 54.828125 56.984375 36.375 
Q 56.984375 17.96875 50.515625 8.265625 
Q 44.046875 -1.421875 31.78125 -1.421875 
Q 19.53125 -1.421875 13.0625 8.265625 
Q 6.59375 17.96875 6.59375 36.375 
Q 6.59375 54.828125 13.0625 64.515625 
Q 19.53125 74.21875 31.78125 74.21875 
z
" id="DejaVuSans-30"/>
      </defs>
      <g transform="translate(49.7575 317.076875)scale(0.2 -0.2)">
       <use xlink:href="#DejaVuSans-30"/>
      </g>
     </g>
    </g>
    <g id="xtick_2">
     <g id="line2d_3">
      <path clip-path="url(#p555a41d470)" d="M 135.351336 294.88 
L 135.351336 24.84 
" style="fill:none;stroke:#b0b0b0;stroke-linecap:square;stroke-width:0.8;"/>
     </g>
     <g id="line2d_4">
      <g>
       <use style="stroke:#000000;stroke-width:0.8;" x="135.351336" xlink:href="#m6fa5141a0b" y="294.88"/>
      </g>
     </g>
     <g id="text_2">
      <!-- 2 -->
      <defs>
       <path d="M 19.1875 8.296875 
L 53.609375 8.296875 
L 53.609375 0 
L 7.328125 0 
L 7.328125 8.296875 
Q 12.9375 14.109375 22.625 23.890625 
Q 32.328125 33.6875 34.8125 36.53125 
Q 39.546875 41.84375 41.421875 45.53125 
Q 43.3125 49.21875 43.3125 52.78125 
Q 43.3125 58.59375 39.234375 62.25 
Q 35.15625 65.921875 28.609375 65.921875 
Q 23.96875 65.921875 18.8125 64.3125 
Q 13.671875 62.703125 7.8125 59.421875 
L 7.8125 69.390625 
Q 13.765625 71.78125 18.9375 73 
Q 24.125 74.21875 28.421875 74.21875 
Q 39.75 74.21875 46.484375 68.546875 
Q 53.21875 62.890625 53.21875 53.421875 
Q 53.21875 48.921875 51.53125 44.890625 
Q 49.859375 40.875 45.40625 35.40625 
Q 44.1875 33.984375 37.640625 27.21875 
Q 31.109375 20.453125 19.1875 8.296875 
z
" id="DejaVuSans-32"/>
      </defs>
      <g transform="translate(128.988836 317.076875)scale(0.2 -0.2)">
       <use xlink:href="#DejaVuSans-32"/>
      </g>
     </g>
    </g>
    <g id="xtick_3">
     <g id="line2d_5">
      <path clip-path="url(#p555a41d470)" d="M 214.582673 294.88 
L 214.582673 24.84 
" style="fill:none;stroke:#b0b0b0;stroke-linecap:square;stroke-width:0.8;"/>
     </g>
     <g id="line2d_6">
      <g>
       <use style="stroke:#000000;stroke-width:0.8;" x="214.582673" xlink:href="#m6fa5141a0b" y="294.88"/>
      </g>
     </g>
     <g id="text_3">
      <!-- 4 -->
      <defs>
       <path d="M 37.796875 64.3125 
L 12.890625 25.390625 
L 37.796875 25.390625 
z
M 35.203125 72.90625 
L 47.609375 72.90625 
L 47.609375 25.390625 
L 58.015625 25.390625 
L 58.015625 17.1875 
L 47.609375 17.1875 
L 47.609375 0 
L 37.796875 0 
L 37.796875 17.1875 
L 4.890625 17.1875 
L 4.890625 26.703125 
z
" id="DejaVuSans-34"/>
      </defs>
      <g transform="translate(208.220173 317.076875)scale(0.2 -0.2)">
       <use xlink:href="#DejaVuSans-34"/>
      </g>
     </g>
    </g>
    <g id="xtick_4">
     <g id="line2d_7">
      <path clip-path="url(#p555a41d470)" d="M 293.814009 294.88 
L 293.814009 24.84 
" style="fill:none;stroke:#b0b0b0;stroke-linecap:square;stroke-width:0.8;"/>
     </g>
     <g id="line2d_8">
      <g>
       <use style="stroke:#000000;stroke-width:0.8;" x="293.814009" xlink:href="#m6fa5141a0b" y="294.88"/>
      </g>
     </g>
     <g id="text_4">
      <!-- 6 -->
      <defs>
       <path d="M 33.015625 40.375 
Q 26.375 40.375 22.484375 35.828125 
Q 18.609375 31.296875 18.609375 23.390625 
Q 18.609375 15.53125 22.484375 10.953125 
Q 26.375 6.390625 33.015625 6.390625 
Q 39.65625 6.390625 43.53125 10.953125 
Q 47.40625 15.53125 47.40625 23.390625 
Q 47.40625 31.296875 43.53125 35.828125 
Q 39.65625 40.375 33.015625 40.375 
z
M 52.59375 71.296875 
L 52.59375 62.3125 
Q 48.875 64.0625 45.09375 64.984375 
Q 41.3125 65.921875 37.59375 65.921875 
Q 27.828125 65.921875 22.671875 59.328125 
Q 17.53125 52.734375 16.796875 39.40625 
Q 19.671875 43.65625 24.015625 45.921875 
Q 28.375 48.1875 33.59375 48.1875 
Q 44.578125 48.1875 50.953125 41.515625 
Q 57.328125 34.859375 57.328125 23.390625 
Q 57.328125 12.15625 50.6875 5.359375 
Q 44.046875 -1.421875 33.015625 -1.421875 
Q 20.359375 -1.421875 13.671875 8.265625 
Q 6.984375 17.96875 6.984375 36.375 
Q 6.984375 53.65625 15.1875 63.9375 
Q 23.390625 74.21875 37.203125 74.21875 
Q 40.921875 74.21875 44.703125 73.484375 
Q 48.484375 72.75 52.59375 71.296875 
z
" id="DejaVuSans-36"/>
      </defs>
      <g transform="translate(287.451509 317.076875)scale(0.2 -0.2)">
       <use xlink:href="#DejaVuSans-36"/>
      </g>
     </g>
    </g>
    <g id="xtick_5">
     <g id="line2d_9">
      <path clip-path="url(#p555a41d470)" d="M 373.045346 294.88 
L 373.045346 24.84 
" style="fill:none;stroke:#b0b0b0;stroke-linecap:square;stroke-width:0.8;"/>
     </g>
     <g id="line2d_10">
      <g>
       <use style="stroke:#000000;stroke-width:0.8;" x="373.045346" xlink:href="#m6fa5141a0b" y="294.88"/>
      </g>
     </g>
     <g id="text_5">
      <!-- 8 -->
      <defs>
       <path d="M 31.78125 34.625 
Q 24.75 34.625 20.71875 30.859375 
Q 16.703125 27.09375 16.703125 20.515625 
Q 16.703125 13.921875 20.71875 10.15625 
Q 24.75 6.390625 31.78125 6.390625 
Q 38.8125 6.390625 42.859375 10.171875 
Q 46.921875 13.96875 46.921875 20.515625 
Q 46.921875 27.09375 42.890625 30.859375 
Q 38.875 34.625 31.78125 34.625 
z
M 21.921875 38.8125 
Q 15.578125 40.375 12.03125 44.71875 
Q 8.5 49.078125 8.5 55.328125 
Q 8.5 64.0625 14.71875 69.140625 
Q 20.953125 74.21875 31.78125 74.21875 
Q 42.671875 74.21875 48.875 69.140625 
Q 55.078125 64.0625 55.078125 55.328125 
Q 55.078125 49.078125 51.53125 44.71875 
Q 48 40.375 41.703125 38.8125 
Q 48.828125 37.15625 52.796875 32.3125 
Q 56.78125 27.484375 56.78125 20.515625 
Q 56.78125 9.90625 50.3125 4.234375 
Q 43.84375 -1.421875 31.78125 -1.421875 
Q 19.734375 -1.421875 13.25 4.234375 
Q 6.78125 9.90625 6.78125 20.515625 
Q 6.78125 27.484375 10.78125 32.3125 
Q 14.796875 37.15625 21.921875 38.8125 
z
M 18.3125 54.390625 
Q 18.3125 48.734375 21.84375 45.5625 
Q 25.390625 42.390625 31.78125 42.390625 
Q 38.140625 42.390625 41.71875 45.5625 
Q 45.3125 48.734375 45.3125 54.390625 
Q 45.3125 60.0625 41.71875 63.234375 
Q 38.140625 66.40625 31.78125 66.40625 
Q 25.390625 66.40625 21.84375 63.234375 
Q 18.3125 60.0625 18.3125 54.390625 
z
" id="DejaVuSans-38"/>
      </defs>
      <g transform="translate(366.682846 317.076875)scale(0.2 -0.2)">
       <use xlink:href="#DejaVuSans-38"/>
      </g>
     </g>
    </g>
    <g id="text_6">
     <!-- log10(# f-evals / dimension) -->
     <defs>
      <path d="M 9.421875 75.984375 
L 18.40625 75.984375 
L 18.40625 0 
L 9.421875 0 
z
" id="DejaVuSans-6c"/>
      <path d="M 30.609375 48.390625 
Q 23.390625 48.390625 19.1875 42.75 
Q 14.984375 37.109375 14.984375 27.296875 
Q 14.984375 17.484375 19.15625 11.84375 
Q 23.34375 6.203125 30.609375 6.203125 
Q 37.796875 6.203125 41.984375 11.859375 
Q 46.1875 17.53125 46.1875 27.296875 
Q 46.1875 37.015625 41.984375 42.703125 
Q 37.796875 48.390625 30.609375 48.390625 
z
M 30.609375 56 
Q 42.328125 56 49.015625 48.375 
Q 55.71875 40.765625 55.71875 27.296875 
Q 55.71875 13.875 49.015625 6.21875 
Q 42.328125 -1.421875 30.609375 -1.421875 
Q 18.84375 -1.421875 12.171875 6.21875 
Q 5.515625 13.875 5.515625 27.296875 
Q 5.515625 40.765625 12.171875 48.375 
Q 18.84375 56 30.609375 56 
z
" id="DejaVuSans-6f"/>
      <path d="M 45.40625 27.984375 
Q 45.40625 37.75 41.375 43.109375 
Q 37.359375 48.484375 30.078125 48.484375 
Q 22.859375 48.484375 18.828125 43.109375 
Q 14.796875 37.75 14.796875 27.984375 
Q 14.796875 18.265625 18.828125 12.890625 
Q 22.859375 7.515625 30.078125 7.515625 
Q 37.359375 7.515625 41.375 12.890625 
Q 45.40625 18.265625 45.40625 27.984375 
z
M 54.390625 6.78125 
Q 54.390625 -7.171875 48.1875 -13.984375 
Q 42 -20.796875 29.203125 -20.796875 
Q 24.46875 -20.796875 20.265625 -20.09375 
Q 16.0625 -19.390625 12.109375 -17.921875 
L 12.109375 -9.1875 
Q 16.0625 -11.328125 19.921875 -12.34375 
Q 23.78125 -13.375 27.78125 -13.375 
Q 36.625 -13.375 41.015625 -8.765625 
Q 45.40625 -4.15625 45.40625 5.171875 
L 45.40625 9.625 
Q 42.625 4.78125 38.28125 2.390625 
Q 33.9375 0 27.875 0 
Q 17.828125 0 11.671875 7.65625 
Q 5.515625 15.328125 5.515625 27.984375 
Q 5.515625 40.671875 11.671875 48.328125 
Q 17.828125 56 27.875 56 
Q 33.9375 56 38.28125 53.609375 
Q 42.625 51.21875 45.40625 46.390625 
L 45.40625 54.6875 
L 54.390625 54.6875 
z
" id="DejaVuSans-67"/>
      <path d="M 12.40625 8.296875 
L 28.515625 8.296875 
L 28.515625 63.921875 
L 10.984375 60.40625 
L 10.984375 69.390625 
L 28.421875 72.90625 
L 38.28125 72.90625 
L 38.28125 8.296875 
L 54.390625 8.296875 
L 54.390625 0 
L 12.40625 0 
z
" id="DejaVuSans-31"/>
      <path d="M 31 75.875 
Q 24.46875 64.65625 21.28125 53.65625 
Q 18.109375 42.671875 18.109375 31.390625 
Q 18.109375 20.125 21.3125 9.0625 
Q 24.515625 -2 31 -13.1875 
L 23.1875 -13.1875 
Q 15.875 -1.703125 12.234375 9.375 
Q 8.59375 20.453125 8.59375 31.390625 
Q 8.59375 42.28125 12.203125 53.3125 
Q 15.828125 64.359375 23.1875 75.875 
z
" id="DejaVuSans-28"/>
      <path d="M 51.125 44 
L 36.921875 44 
L 32.8125 27.6875 
L 47.125 27.6875 
z
M 43.796875 71.78125 
L 38.71875 51.515625 
L 52.984375 51.515625 
L 58.109375 71.78125 
L 65.921875 71.78125 
L 60.890625 51.515625 
L 76.125 51.515625 
L 76.125 44 
L 58.984375 44 
L 54.984375 27.6875 
L 70.515625 27.6875 
L 70.515625 20.21875 
L 53.078125 20.21875 
L 48 0 
L 40.1875 0 
L 45.21875 20.21875 
L 30.90625 20.21875 
L 25.875 0 
L 18.015625 0 
L 23.09375 20.21875 
L 7.71875 20.21875 
L 7.71875 27.6875 
L 24.90625 27.6875 
L 29 44 
L 13.28125 44 
L 13.28125 51.515625 
L 30.90625 51.515625 
L 35.890625 71.78125 
z
" id="DejaVuSans-23"/>
      <path id="DejaVuSans-20"/>
      <path d="M 37.109375 75.984375 
L 37.109375 68.5 
L 28.515625 68.5 
Q 23.6875 68.5 21.796875 66.546875 
Q 19.921875 64.59375 19.921875 59.515625 
L 19.921875 54.6875 
L 34.71875 54.6875 
L 34.71875 47.703125 
L 19.921875 47.703125 
L 19.921875 0 
L 10.890625 0 
L 10.890625 47.703125 
L 2.296875 47.703125 
L 2.296875 54.6875 
L 10.890625 54.6875 
L 10.890625 58.5 
Q 10.890625 67.625 15.140625 71.796875 
Q 19.390625 75.984375 28.609375 75.984375 
z
" id="DejaVuSans-66"/>
      <path d="M 4.890625 31.390625 
L 31.203125 31.390625 
L 31.203125 23.390625 
L 4.890625 23.390625 
z
" id="DejaVuSans-2d"/>
      <path d="M 56.203125 29.59375 
L 56.203125 25.203125 
L 14.890625 25.203125 
Q 15.484375 15.921875 20.484375 11.0625 
Q 25.484375 6.203125 34.421875 6.203125 
Q 39.59375 6.203125 44.453125 7.46875 
Q 49.3125 8.734375 54.109375 11.28125 
L 54.109375 2.78125 
Q 49.265625 0.734375 44.1875 -0.34375 
Q 39.109375 -1.421875 33.890625 -1.421875 
Q 20.796875 -1.421875 13.15625 6.1875 
Q 5.515625 13.8125 5.515625 26.8125 
Q 5.515625 40.234375 12.765625 48.109375 
Q 20.015625 56 32.328125 56 
Q 43.359375 56 49.78125 48.890625 
Q 56.203125 41.796875 56.203125 29.59375 
z
M 47.21875 32.234375 
Q 47.125 39.59375 43.09375 43.984375 
Q 39.0625 48.390625 32.421875 48.390625 
Q 24.90625 48.390625 20.390625 44.140625 
Q 15.875 39.890625 15.1875 32.171875 
z
" id="DejaVuSans-65"/>
      <path d="M 2.984375 54.6875 
L 12.5 54.6875 
L 29.59375 8.796875 
L 46.6875 54.6875 
L 56.203125 54.6875 
L 35.6875 0 
L 23.484375 0 
z
" id="DejaVuSans-76"/>
      <path d="M 34.28125 27.484375 
Q 23.390625 27.484375 19.1875 25 
Q 14.984375 22.515625 14.984375 16.5 
Q 14.984375 11.71875 18.140625 8.90625 
Q 21.296875 6.109375 26.703125 6.109375 
Q 34.1875 6.109375 38.703125 11.40625 
Q 43.21875 16.703125 43.21875 25.484375 
L 43.21875 27.484375 
z
M 52.203125 31.203125 
L 52.203125 0 
L 43.21875 0 
L 43.21875 8.296875 
Q 40.140625 3.328125 35.546875 0.953125 
Q 30.953125 -1.421875 24.3125 -1.421875 
Q 15.921875 -1.421875 10.953125 3.296875 
Q 6 8.015625 6 15.921875 
Q 6 25.140625 12.171875 29.828125 
Q 18.359375 34.515625 30.609375 34.515625 
L 43.21875 34.515625 
L 43.21875 35.40625 
Q 43.21875 41.609375 39.140625 45 
Q 35.0625 48.390625 27.6875 48.390625 
Q 23 48.390625 18.546875 47.265625 
Q 14.109375 46.140625 10.015625 43.890625 
L 10.015625 52.203125 
Q 14.9375 54.109375 19.578125 55.046875 
Q 24.21875 56 28.609375 56 
Q 40.484375 56 46.34375 49.84375 
Q 52.203125 43.703125 52.203125 31.203125 
z
" id="DejaVuSans-61"/>
      <path d="M 44.28125 53.078125 
L 44.28125 44.578125 
Q 40.484375 46.53125 36.375 47.5 
Q 32.28125 48.484375 27.875 48.484375 
Q 21.1875 48.484375 17.84375 46.4375 
Q 14.5 44.390625 14.5 40.28125 
Q 14.5 37.15625 16.890625 35.375 
Q 19.28125 33.59375 26.515625 31.984375 
L 29.59375 31.296875 
Q 39.15625 29.25 43.1875 25.515625 
Q 47.21875 21.78125 47.21875 15.09375 
Q 47.21875 7.46875 41.1875 3.015625 
Q 35.15625 -1.421875 24.609375 -1.421875 
Q 20.21875 -1.421875 15.453125 -0.5625 
Q 10.6875 0.296875 5.421875 2 
L 5.421875 11.28125 
Q 10.40625 8.6875 15.234375 7.390625 
Q 20.0625 6.109375 24.8125 6.109375 
Q 31.15625 6.109375 34.5625 8.28125 
Q 37.984375 10.453125 37.984375 14.40625 
Q 37.984375 18.0625 35.515625 20.015625 
Q 33.0625 21.96875 24.703125 23.78125 
L 21.578125 24.515625 
Q 13.234375 26.265625 9.515625 29.90625 
Q 5.8125 33.546875 5.8125 39.890625 
Q 5.8125 47.609375 11.28125 51.796875 
Q 16.75 56 26.8125 56 
Q 31.78125 56 36.171875 55.265625 
Q 40.578125 54.546875 44.28125 53.078125 
z
" id="DejaVuSans-73"/>
      <path d="M 25.390625 72.90625 
L 33.6875 72.90625 
L 8.296875 -9.28125 
L 0 -9.28125 
z
" id="DejaVuSans-2f"/>
      <path d="M 45.40625 46.390625 
L 45.40625 75.984375 
L 54.390625 75.984375 
L 54.390625 0 
L 45.40625 0 
L 45.40625 8.203125 
Q 42.578125 3.328125 38.25 0.953125 
Q 33.9375 -1.421875 27.875 -1.421875 
Q 17.96875 -1.421875 11.734375 6.484375 
Q 5.515625 14.40625 5.515625 27.296875 
Q 5.515625 40.1875 11.734375 48.09375 
Q 17.96875 56 27.875 56 
Q 33.9375 56 38.25 53.625 
Q 42.578125 51.265625 45.40625 46.390625 
z
M 14.796875 27.296875 
Q 14.796875 17.390625 18.875 11.75 
Q 22.953125 6.109375 30.078125 6.109375 
Q 37.203125 6.109375 41.296875 11.75 
Q 45.40625 17.390625 45.40625 27.296875 
Q 45.40625 37.203125 41.296875 42.84375 
Q 37.203125 48.484375 30.078125 48.484375 
Q 22.953125 48.484375 18.875 42.84375 
Q 14.796875 37.203125 14.796875 27.296875 
z
" id="DejaVuSans-64"/>
      <path d="M 9.421875 54.6875 
L 18.40625 54.6875 
L 18.40625 0 
L 9.421875 0 
z
M 9.421875 75.984375 
L 18.40625 75.984375 
L 18.40625 64.59375 
L 9.421875 64.59375 
z
" id="DejaVuSans-69"/>
      <path d="M 52 44.1875 
Q 55.375 50.25 60.0625 53.125 
Q 64.75 56 71.09375 56 
Q 79.640625 56 84.28125 50.015625 
Q 88.921875 44.046875 88.921875 33.015625 
L 88.921875 0 
L 79.890625 0 
L 79.890625 32.71875 
Q 79.890625 40.578125 77.09375 44.375 
Q 74.3125 48.1875 68.609375 48.1875 
Q 61.625 48.1875 57.5625 43.546875 
Q 53.515625 38.921875 53.515625 30.90625 
L 53.515625 0 
L 44.484375 0 
L 44.484375 32.71875 
Q 44.484375 40.625 41.703125 44.40625 
Q 38.921875 48.1875 33.109375 48.1875 
Q 26.21875 48.1875 22.15625 43.53125 
Q 18.109375 38.875 18.109375 30.90625 
L 18.109375 0 
L 9.078125 0 
L 9.078125 54.6875 
L 18.109375 54.6875 
L 18.109375 46.1875 
Q 21.1875 51.21875 25.484375 53.609375 
Q 29.78125 56 35.6875 56 
Q 41.65625 56 45.828125 52.96875 
Q 50 49.953125 52 44.1875 
z
" id="DejaVuSans-6d"/>
      <path d="M 54.890625 33.015625 
L 54.890625 0 
L 45.90625 0 
L 45.90625 32.71875 
Q 45.90625 40.484375 42.875 44.328125 
Q 39.84375 48.1875 33.796875 48.1875 
Q 26.515625 48.1875 22.3125 43.546875 
Q 18.109375 38.921875 18.109375 30.90625 
L 18.109375 0 
L 9.078125 0 
L 9.078125 54.6875 
L 18.109375 54.6875 
L 18.109375 46.1875 
Q 21.34375 51.125 25.703125 53.5625 
Q 30.078125 56 35.796875 56 
Q 45.21875 56 50.046875 50.171875 
Q 54.890625 44.34375 54.890625 33.015625 
z
" id="DejaVuSans-6e"/>
      <path d="M 8.015625 75.875 
L 15.828125 75.875 
Q 23.140625 64.359375 26.78125 53.3125 
Q 30.421875 42.28125 30.421875 31.390625 
Q 30.421875 20.453125 26.78125 9.375 
Q 23.140625 -1.703125 15.828125 -13.1875 
L 8.015625 -13.1875 
Q 14.5 -2 17.703125 9.0625 
Q 20.90625 20.125 20.90625 31.390625 
Q 20.90625 42.671875 17.703125 53.65625 
Q 14.5 64.65625 8.015625 75.875 
z
" id="DejaVuSans-29"/>
     </defs>
     <g transform="translate(107.211219 338.153594)scale(0.17 -0.17)">
      <use xlink:href="#DejaVuSans-6c"/>
      <use x="27.783203" xlink:href="#DejaVuSans-6f"/>
      <use x="88.964844" xlink:href="#DejaVuSans-67"/>
      <use x="152.441406" xlink:href="#DejaVuSans-31"/>
      <use x="216.064453" xlink:href="#DejaVuSans-30"/>
      <use x="279.6875" xlink:href="#DejaVuSans-28"/>
      <use x="318.701172" xlink:href="#DejaVuSans-23"/>
      <use x="402.490234" xlink:href="#DejaVuSans-20"/>
      <use x="434.277344" xlink:href="#DejaVuSans-66"/>
      <use x="469.404297" xlink:href="#DejaVuSans-2d"/>
      <use x="505.488281" xlink:href="#DejaVuSans-65"/>
      <use x="567.011719" xlink:href="#DejaVuSans-76"/>
      <use x="626.191406" xlink:href="#DejaVuSans-61"/>
      <use x="687.470703" xlink:href="#DejaVuSans-6c"/>
      <use x="715.253906" xlink:href="#DejaVuSans-73"/>
      <use x="767.353516" xlink:href="#DejaVuSans-20"/>
      <use x="799.140625" xlink:href="#DejaVuSans-2f"/>
      <use x="832.832031" xlink:href="#DejaVuSans-20"/>
      <use x="864.619141" xlink:href="#DejaVuSans-64"/>
      <use x="928.095703" xlink:href="#DejaVuSans-69"/>
      <use x="955.878906" xlink:href="#DejaVuSans-6d"/>
      <use x="1053.291016" xlink:href="#DejaVuSans-65"/>
      <use x="1114.814453" xlink:href="#DejaVuSans-6e"/>
      <use x="1178.193359" xlink:href="#DejaVuSans-73"/>
      <use x="1230.292969" xlink:href="#DejaVuSans-69"/>
      <use x="1258.076172" xlink:href="#DejaVuSans-6f"/>
      <use x="1319.257812" xlink:href="#DejaVuSans-6e"/>
      <use x="1382.636719" xlink:href="#DejaVuSans-29"/>
     </g>
    </g>
   </g>
   <g id="matplotlib.axis_2">
    <g id="ytick_1">
     <g id="line2d_11">
      <path clip-path="url(#p555a41d470)" d="M 56.12 294.88 
L 399.984 294.88 
" style="fill:none;stroke:#b0b0b0;stroke-linecap:square;stroke-width:0.8;"/>
     </g>
     <g id="line2d_12">
      <defs>
       <path d="M 0 0 
L -3.5 0 
" id="meabb2516b7" style="stroke:#000000;stroke-width:0.8;"/>
      </defs>
      <g>
       <use style="stroke:#000000;stroke-width:0.8;" x="56.12" xlink:href="#meabb2516b7" y="294.88"/>
      </g>
     </g>
     <g id="text_7">
      <!-- 0.0 -->
      <defs>
       <path d="M 10.6875 12.40625 
L 21 12.40625 
L 21 0 
L 10.6875 0 
z
" id="DejaVuSans-2e"/>
      </defs>
      <g transform="translate(23.675 300.95875)scale(0.16 -0.16)">
       <use xlink:href="#DejaVuSans-30"/>
       <use x="63.623047" xlink:href="#DejaVuSans-2e"/>
       <use x="95.410156" xlink:href="#DejaVuSans-30"/>
      </g>
     </g>
    </g>
    <g id="ytick_2">
     <g id="line2d_13">
      <path clip-path="url(#p555a41d470)" d="M 56.12 241.406733 
L 399.984 241.406733 
" style="fill:none;stroke:#b0b0b0;stroke-linecap:square;stroke-width:0.8;"/>
     </g>
     <g id="line2d_14">
      <g>
       <use style="stroke:#000000;stroke-width:0.8;" x="56.12" xlink:href="#meabb2516b7" y="241.406733"/>
      </g>
     </g>
     <g id="text_8">
      <!-- 0.2 -->
      <g transform="translate(23.675 247.485483)scale(0.16 -0.16)">
       <use xlink:href="#DejaVuSans-30"/>
       <use x="63.623047" xlink:href="#DejaVuSans-2e"/>
       <use x="95.410156" xlink:href="#DejaVuSans-32"/>
      </g>
     </g>
    </g>
    <g id="ytick_3">
     <g id="line2d_15">
      <path clip-path="url(#p555a41d470)" d="M 56.12 187.933465 
L 399.984 187.933465 
" style="fill:none;stroke:#b0b0b0;stroke-linecap:square;stroke-width:0.8;"/>
     </g>
     <g id="line2d_16">
      <g>
       <use style="stroke:#000000;stroke-width:0.8;" x="56.12" xlink:href="#meabb2516b7" y="187.933465"/>
      </g>
     </g>
     <g id="text_9">
      <!-- 0.4 -->
      <g transform="translate(23.675 194.012215)scale(0.16 -0.16)">
       <use xlink:href="#DejaVuSans-30"/>
       <use x="63.623047" xlink:href="#DejaVuSans-2e"/>
       <use x="95.410156" xlink:href="#DejaVuSans-34"/>
      </g>
     </g>
    </g>
    <g id="ytick_4">
     <g id="line2d_17">
      <path clip-path="url(#p555a41d470)" d="M 56.12 134.460198 
L 399.984 134.460198 
" style="fill:none;stroke:#b0b0b0;stroke-linecap:square;stroke-width:0.8;"/>
     </g>
     <g id="line2d_18">
      <g>
       <use style="stroke:#000000;stroke-width:0.8;" x="56.12" xlink:href="#meabb2516b7" y="134.460198"/>
      </g>
     </g>
     <g id="text_10">
      <!-- 0.6 -->
      <g transform="translate(23.675 140.538948)scale(0.16 -0.16)">
       <use xlink:href="#DejaVuSans-30"/>
       <use x="63.623047" xlink:href="#DejaVuSans-2e"/>
       <use x="95.410156" xlink:href="#DejaVuSans-36"/>
      </g>
     </g>
    </g>
    <g id="ytick_5">
     <g id="line2d_19">
      <path clip-path="url(#p555a41d470)" d="M 56.12 80.986931 
L 399.984 80.986931 
" style="fill:none;stroke:#b0b0b0;stroke-linecap:square;stroke-width:0.8;"/>
     </g>
     <g id="line2d_20">
      <g>
       <use style="stroke:#000000;stroke-width:0.8;" x="56.12" xlink:href="#meabb2516b7" y="80.986931"/>
      </g>
     </g>
     <g id="text_11">
      <!-- 0.8 -->
      <g transform="translate(23.675 87.065681)scale(0.16 -0.16)">
       <use xlink:href="#DejaVuSans-30"/>
       <use x="63.623047" xlink:href="#DejaVuSans-2e"/>
       <use x="95.410156" xlink:href="#DejaVuSans-38"/>
      </g>
     </g>
    </g>
    <g id="ytick_6">
     <g id="line2d_21">
      <path clip-path="url(#p555a41d470)" d="M 56.12 27.513663 
L 399.984 27.513663 
" style="fill:none;stroke:#b0b0b0;stroke-linecap:square;stroke-width:0.8;"/>
     </g>
     <g id="line2d_22">
      <g>
       <use style="stroke:#000000;stroke-width:0.8;" x="56.12" xlink:href="#meabb2516b7" y="27.513663"/>
      </g>
     </g>
     <g id="text_12">
      <!-- 1.0 -->
      <g transform="translate(23.675 33.592413)scale(0.16 -0.16)">
       <use xlink:href="#DejaVuSans-31"/>
       <use x="63.623047" xlink:href="#DejaVuSans-2e"/>
       <use x="95.410156" xlink:href="#DejaVuSans-30"/>
      </g>
     </g>
    </g>
    <g id="text_13">
     <!-- Fraction of function,target pairs -->
     <defs>
      <path d="M 9.8125 72.90625 
L 51.703125 72.90625 
L 51.703125 64.59375 
L 19.671875 64.59375 
L 19.671875 43.109375 
L 48.578125 43.109375 
L 48.578125 34.8125 
L 19.671875 34.8125 
L 19.671875 0 
L 9.8125 0 
z
" id="DejaVuSans-46"/>
      <path d="M 41.109375 46.296875 
Q 39.59375 47.171875 37.8125 47.578125 
Q 36.03125 48 33.890625 48 
Q 26.265625 48 22.1875 43.046875 
Q 18.109375 38.09375 18.109375 28.8125 
L 18.109375 0 
L 9.078125 0 
L 9.078125 54.6875 
L 18.109375 54.6875 
L 18.109375 46.1875 
Q 20.953125 51.171875 25.484375 53.578125 
Q 30.03125 56 36.53125 56 
Q 37.453125 56 38.578125 55.875 
Q 39.703125 55.765625 41.0625 55.515625 
z
" id="DejaVuSans-72"/>
      <path d="M 48.78125 52.59375 
L 48.78125 44.1875 
Q 44.96875 46.296875 41.140625 47.34375 
Q 37.3125 48.390625 33.40625 48.390625 
Q 24.65625 48.390625 19.8125 42.84375 
Q 14.984375 37.3125 14.984375 27.296875 
Q 14.984375 17.28125 19.8125 11.734375 
Q 24.65625 6.203125 33.40625 6.203125 
Q 37.3125 6.203125 41.140625 7.25 
Q 44.96875 8.296875 48.78125 10.40625 
L 48.78125 2.09375 
Q 45.015625 0.34375 40.984375 -0.53125 
Q 36.96875 -1.421875 32.421875 -1.421875 
Q 20.0625 -1.421875 12.78125 6.34375 
Q 5.515625 14.109375 5.515625 27.296875 
Q 5.515625 40.671875 12.859375 48.328125 
Q 20.21875 56 33.015625 56 
Q 37.15625 56 41.109375 55.140625 
Q 45.0625 54.296875 48.78125 52.59375 
z
" id="DejaVuSans-63"/>
      <path d="M 18.3125 70.21875 
L 18.3125 54.6875 
L 36.8125 54.6875 
L 36.8125 47.703125 
L 18.3125 47.703125 
L 18.3125 18.015625 
Q 18.3125 11.328125 20.140625 9.421875 
Q 21.96875 7.515625 27.59375 7.515625 
L 36.8125 7.515625 
L 36.8125 0 
L 27.59375 0 
Q 17.1875 0 13.234375 3.875 
Q 9.28125 7.765625 9.28125 18.015625 
L 9.28125 47.703125 
L 2.6875 47.703125 
L 2.6875 54.6875 
L 9.28125 54.6875 
L 9.28125 70.21875 
z
" id="DejaVuSans-74"/>
      <path d="M 8.5 21.578125 
L 8.5 54.6875 
L 17.484375 54.6875 
L 17.484375 21.921875 
Q 17.484375 14.15625 20.5 10.265625 
Q 23.53125 6.390625 29.59375 6.390625 
Q 36.859375 6.390625 41.078125 11.03125 
Q 45.3125 15.671875 45.3125 23.6875 
L 45.3125 54.6875 
L 54.296875 54.6875 
L 54.296875 0 
L 45.3125 0 
L 45.3125 8.40625 
Q 42.046875 3.421875 37.71875 1 
Q 33.40625 -1.421875 27.6875 -1.421875 
Q 18.265625 -1.421875 13.375 4.4375 
Q 8.5 10.296875 8.5 21.578125 
z
M 31.109375 56 
z
" id="DejaVuSans-75"/>
      <path d="M 11.71875 12.40625 
L 22.015625 12.40625 
L 22.015625 4 
L 14.015625 -11.625 
L 7.71875 -11.625 
L 11.71875 4 
z
" id="DejaVuSans-2c"/>
      <path d="M 18.109375 8.203125 
L 18.109375 -20.796875 
L 9.078125 -20.796875 
L 9.078125 54.6875 
L 18.109375 54.6875 
L 18.109375 46.390625 
Q 20.953125 51.265625 25.265625 53.625 
Q 29.59375 56 35.59375 56 
Q 45.5625 56 51.78125 48.09375 
Q 58.015625 40.1875 58.015625 27.296875 
Q 58.015625 14.40625 51.78125 6.484375 
Q 45.5625 -1.421875 35.59375 -1.421875 
Q 29.59375 -1.421875 25.265625 0.953125 
Q 20.953125 3.328125 18.109375 8.203125 
z
M 48.6875 27.296875 
Q 48.6875 37.203125 44.609375 42.84375 
Q 40.53125 48.484375 33.40625 48.484375 
Q 26.265625 48.484375 22.1875 42.84375 
Q 18.109375 37.203125 18.109375 27.296875 
Q 18.109375 17.390625 22.1875 11.75 
Q 26.265625 6.109375 33.40625 6.109375 
Q 40.53125 6.109375 44.609375 11.75 
Q 48.6875 17.390625 48.6875 27.296875 
z
" id="DejaVuSans-70"/>
     </defs>
     <g transform="translate(16.139531 294.999375)rotate(-90)scale(0.17 -0.17)">
      <use xlink:href="#DejaVuSans-46"/>
      <use x="57.410156" xlink:href="#DejaVuSans-72"/>
      <use x="98.523438" xlink:href="#DejaVuSans-61"/>
      <use x="159.802734" xlink:href="#DejaVuSans-63"/>
      <use x="214.783203" xlink:href="#DejaVuSans-74"/>
      <use x="253.992188" xlink:href="#DejaVuSans-69"/>
      <use x="281.775391" xlink:href="#DejaVuSans-6f"/>
      <use x="342.957031" xlink:href="#DejaVuSans-6e"/>
      <use x="406.335938" xlink:href="#DejaVuSans-20"/>
      <use x="438.123047" xlink:href="#DejaVuSans-6f"/>
      <use x="499.304688" xlink:href="#DejaVuSans-66"/>
      <use x="534.509766" xlink:href="#DejaVuSans-20"/>
      <use x="566.296875" xlink:href="#DejaVuSans-66"/>
      <use x="601.501953" xlink:href="#DejaVuSans-75"/>
      <use x="664.880859" xlink:href="#DejaVuSans-6e"/>
      <use x="728.259766" xlink:href="#DejaVuSans-63"/>
      <use x="783.240234" xlink:href="#DejaVuSans-74"/>
      <use x="822.449219" xlink:href="#DejaVuSans-69"/>
      <use x="850.232422" xlink:href="#DejaVuSans-6f"/>
      <use x="911.414062" xlink:href="#DejaVuSans-6e"/>
      <use x="974.792969" xlink:href="#DejaVuSans-2c"/>
      <use x="1006.580078" xlink:href="#DejaVuSans-74"/>
      <use x="1045.789062" xlink:href="#DejaVuSans-61"/>
      <use x="1107.068359" xlink:href="#DejaVuSans-72"/>
      <use x="1148.166016" xlink:href="#DejaVuSans-67"/>
      <use x="1211.642578" xlink:href="#DejaVuSans-65"/>
      <use x="1273.166016" xlink:href="#DejaVuSans-74"/>
      <use x="1312.375" xlink:href="#DejaVuSans-20"/>
      <use x="1344.162109" xlink:href="#DejaVuSans-70"/>
      <use x="1407.638672" xlink:href="#DejaVuSans-61"/>
      <use x="1468.917969" xlink:href="#DejaVuSans-69"/>
      <use x="1496.701172" xlink:href="#DejaVuSans-72"/>
      <use x="1537.814453" xlink:href="#DejaVuSans-73"/>
     </g>
    </g>
   </g>
   <g id="line2d_23">
    <defs>
     <path d="M 0 1.5 
C 0.397805 1.5 0.77937 1.341951 1.06066 1.06066 
C 1.341951 0.77937 1.5 0.397805 1.5 0 
C 1.5 -0.397805 1.341951 -0.77937 1.06066 -1.06066 
C 0.77937 -1.341951 0.397805 -1.5 0 -1.5 
C -0.397805 -1.5 -0.77937 -1.341951 -1.06066 -1.06066 
C -1.341951 -0.77937 -1.5 -0.397805 -1.5 0 
C -1.5 0.397805 -1.341951 0.77937 -1.06066 1.06066 
C -0.77937 1.341951 -0.397805 1.5 0 1.5 
z
" id="mc57ccc04e9" style="stroke:#00bfbf;"/>
    </defs>
    <g>
     <use style="fill:#00bfbf;stroke:#00bfbf;" x="179.553583" xlink:href="#mc57ccc04e9" y="27.513663"/>
     <use style="fill:#00bfbf;stroke:#00bfbf;" x="179.553583" xlink:href="#mc57ccc04e9" y="27.513663"/>
    </g>
   </g>
   <g id="line2d_24">
    <path d="M 56.12 294.88 
L 56.12 274.958587 
L 86.946982 274.958587 
L 86.946982 274.434339 
L 102.711641 274.434339 
L 102.711641 273.385844 
L 105.848459 273.385844 
L 105.848459 271.8131 
L 108.500601 271.8131 
L 108.500601 271.288853 
L 109.300972 271.288853 
L 109.300972 269.716109 
L 110.065758 269.716109 
L 110.065758 269.191862 
L 111.500328 269.191862 
L 111.500328 268.667614 
L 112.824432 268.667614 
L 112.824432 268.143366 
L 113.450132 268.143366 
L 113.450132 267.619119 
L 114.053874 267.619119 
L 114.053874 264.99788 
L 114.637146 264.99788 
L 114.637146 263.949385 
L 115.747522 263.949385 
L 115.747522 261.852394 
L 116.276944 261.852394 
L 116.276944 260.803898 
L 116.790561 260.803898 
L 116.790561 259.755403 
L 117.289287 259.755403 
L 117.289287 258.706907 
L 119.586677 258.706907 
L 119.586677 258.18266 
L 120.426105 258.18266 
L 120.426105 257.658412 
L 122.361274 257.658412 
L 122.361274 257.134164 
L 125.979378 257.134164 
L 125.979378 256.085669 
L 126.273486 256.085669 
L 126.273486 255.561421 
L 126.56265 255.561421 
L 126.56265 249.794696 
L 126.847034 249.794696 
L 126.847034 248.746201 
L 127.402078 248.746201 
L 127.402078 248.221953 
L 127.673027 248.221953 
L 127.673027 247.697705 
L 128.589091 247.697705 
L 128.589091 247.173458 
L 128.967235 247.173458 
L 128.967235 246.124962 
L 129.699468 246.124962 
L 129.699468 245.600714 
L 129.93678 245.600714 
L 129.93678 244.552219 
L 130.401805 244.552219 
L 130.401805 244.027971 
L 130.629687 244.027971 
L 130.629687 243.503724 
L 131.076592 243.503724 
L 131.076592 241.93098 
L 131.512181 241.93098 
L 131.512181 239.83399 
L 131.725909 239.83399 
L 131.725909 239.309742 
L 132.145561 239.309742 
L 132.145561 236.688503 
L 132.35161 236.688503 
L 132.35161 236.164255 
L 132.955351 236.164255 
L 132.955351 235.11576 
L 133.15198 235.11576 
L 133.15198 229.873283 
L 133.346388 229.873283 
L 133.346388 228.824787 
L 133.728734 228.824787 
L 133.823007 227.252044 
L 133.916767 227.252044 
L 133.916767 226.203549 
L 134.102767 226.203549 
L 134.102767 225.155053 
L 134.468842 225.155053 
L 134.468842 224.630806 
L 134.648999 224.630806 
L 134.648999 222.533815 
L 134.82729 222.533815 
L 134.82729 222.009567 
L 135.003752 222.009567 
L 135.003752 220.436824 
L 135.692038 220.436824 
L 135.692038 215.194347 
L 136.026124 215.194347 
L 136.026124 212.573108 
L 136.272498 212.573108 
L 136.272498 212.04886 
L 136.675441 212.04886 
L 136.675441 209.95187 
L 136.991135 209.95187 
L 136.991135 209.427622 
L 137.301141 209.427622 
L 137.301141 208.903374 
L 138.052565 208.903374 
L 138.052565 206.282136 
L 138.19899 206.282136 
L 138.19899 204.709392 
L 138.488154 204.709392 
L 138.488154 201.039658 
L 138.630934 201.039658 
L 138.630934 200.515411 
L 138.772539 200.515411 
L 138.772539 198.942667 
L 138.982784 198.942667 
L 139.052299 197.894172 
L 139.327583 197.894172 
L 139.327583 195.272933 
L 139.531193 195.272933 
L 139.531193 194.748686 
L 139.732422 194.748686 
L 139.798978 193.70019 
L 139.865278 193.70019 
L 139.865278 193.175943 
L 140.127953 193.175943 
L 140.127953 192.651695 
L 140.257802 192.651695 
L 140.257802 192.127447 
L 140.386678 192.127447 
L 140.386678 190.554704 
L 140.704707 190.554704 
L 140.704707 190.030456 
L 141.07874 190.030456 
L 141.07874 187.409218 
L 141.565129 187.409218 
L 141.565129 186.88497 
L 141.744038 186.88497 
L 141.744038 185.836474 
L 141.862285 185.836474 
L 141.921105 184.263731 
L 141.979724 184.263731 
L 142.038145 182.690988 
L 142.498503 182.690988 
L 142.498503 182.16674 
L 142.668011 182.16674 
L 142.668011 181.642493 
L 142.780095 181.642493 
L 142.835865 180.06975 
L 142.891454 180.06975 
L 142.891454 179.021254 
L 143.112032 179.021254 
L 143.112032 178.497006 
L 143.329818 178.497006 
L 143.383837 177.448511 
L 143.491367 177.448511 
L 143.491367 176.924263 
L 143.809985 176.924263 
L 143.914893 175.875768 
L 143.967108 175.875768 
L 144.019165 174.303025 
L 144.174398 174.303025 
L 144.225833 173.254529 
L 144.328243 173.254529 
L 144.37922 172.206034 
L 144.480724 172.206034 
L 144.531253 171.157538 
L 144.681953 171.157538 
L 144.781692 170.109043 
L 144.880856 170.109043 
L 144.979451 167.487804 
L 145.174963 167.487804 
L 145.174963 166.439309 
L 145.320153 166.439309 
L 145.416269 164.342318 
L 145.748512 164.342318 
L 145.795455 161.721079 
L 145.98196 161.721079 
L 146.074459 160.672584 
L 146.25798 160.672584 
L 146.25798 160.148336 
L 146.439563 160.148336 
L 146.484661 159.099841 
L 146.61925 159.099841 
L 146.708395 158.051345 
L 146.752794 158.051345 
L 146.752794 157.00285 
L 146.97309 157.00285 
L 147.060425 155.954354 
L 147.103926 155.954354 
L 147.147318 154.381611 
L 147.233775 154.381611 
L 147.233775 153.857364 
L 147.490569 153.857364 
L 147.490569 152.808868 
L 147.785396 152.808868 
L 147.868713 151.236125 
L 148.034145 151.236125 
L 148.075256 149.663382 
L 148.319879 149.663382 
L 148.400654 148.614886 
L 148.440899 148.614886 
L 148.440899 147.566391 
L 148.561073 147.566391 
L 148.640725 145.4694 
L 148.759517 145.4694 
L 148.838258 143.896657 
L 148.877493 143.896657 
L 148.955697 142.323914 
L 149.111047 142.323914 
L 149.111047 141.275418 
L 149.379579 141.275418 
L 149.379579 140.751171 
L 149.606459 140.751171 
L 149.643984 139.702675 
L 149.718788 139.702675 
L 149.718788 139.178427 
L 149.830387 139.178427 
L 149.941267 137.605684 
L 149.978069 137.605684 
L 150.088005 135.508693 
L 150.124495 135.508693 
L 150.233501 132.363207 
L 150.269684 132.363207 
L 150.341822 131.314712 
L 150.449465 131.314712 
L 150.449465 130.790464 
L 150.803487 130.790464 
L 150.873426 129.217721 
L 151.081552 129.217721 
L 151.115996 128.169225 
L 151.253087 128.169225 
L 151.355193 126.596482 
L 151.389095 126.596482 
L 151.389095 125.547987 
L 151.591111 125.547987 
L 151.657926 122.926748 
L 151.790783 122.926748 
L 151.856829 121.354005 
L 151.988164 121.354005 
L 152.086012 120.30551 
L 152.150936 120.30551 
L 152.183306 119.257014 
L 152.312182 119.257014 
L 152.37626 118.208519 
L 152.755795 118.208519 
L 152.818244 116.635776 
L 152.880468 116.635776 
L 152.880468 116.111528 
L 153.004245 116.111528 
L 153.065801 112.441794 
L 153.370319 112.441794 
L 153.370319 111.917546 
L 153.787789 111.917546 
L 153.846609 109.820555 
L 153.934464 109.820555 
L 153.934464 109.296308 
L 154.108839 109.296308 
L 154.108839 108.77206 
L 154.310068 108.77206 
L 154.310068 108.247812 
L 154.424008 108.247812 
L 154.50897 106.675069 
L 154.537198 106.675069 
L 154.537198 106.150821 
L 154.649649 106.150821 
L 154.733507 104.05383 
L 154.927601 104.05383 
L 155.010118 101.432592 
L 155.173975 101.432592 
L 155.22825 99.859849 
L 155.336287 99.859849 
L 155.416872 98.811353 
L 155.603448 98.811353 
L 155.682795 96.714362 
L 155.761776 96.714362 
L 155.866525 94.617371 
L 156.176997 94.617371 
L 156.228202 92.520381 
L 156.380909 92.520381 
L 156.380909 91.996133 
L 156.582432 91.996133 
L 156.657399 90.42339 
L 156.75685 90.42339 
L 156.75685 89.899142 
L 156.954042 89.899142 
L 156.954042 88.850646 
L 157.149 88.850646 
L 157.221544 87.802151 
L 157.269737 87.802151 
L 157.293783 86.753656 
L 157.413511 86.753656 
L 157.413511 86.229408 
L 157.744384 86.229408 
L 157.744384 85.70516 
L 157.861027 85.70516 
L 157.907464 84.656665 
L 157.976886 84.656665 
L 158.069014 82.035426 
L 158.137787 82.035426 
L 158.22906 80.462683 
L 158.274515 80.462683 
L 158.274515 79.938435 
L 158.477592 79.938435 
L 158.500008 78.88994 
L 158.744684 78.88994 
L 158.766756 77.317197 
L 158.876691 77.317197 
L 158.876691 76.792949 
L 159.116105 76.792949 
L 159.159279 75.744454 
L 159.309541 75.744454 
L 159.394819 74.17171 
L 159.752609 74.17171 
L 159.752609 73.647463 
L 160.000761 73.647463 
L 160.041774 72.598967 
L 160.245384 72.598967 
L 160.306 71.026224 
L 160.386491 71.026224 
L 160.426595 69.977729 
L 160.506525 69.977729 
L 160.546351 68.929233 
L 160.665279 68.929233 
L 160.763762 67.880738 
L 160.783391 67.880738 
L 160.783391 67.35649 
L 160.939622 67.35649 
L 161.036551 66.307995 
L 161.190511 66.307995 
L 161.190511 65.783747 
L 161.305083 65.783747 
L 161.343105 64.211004 
L 161.475524 64.211004 
L 161.550736 63.162508 
L 161.737342 63.162508 
L 161.737342 62.638261 
L 161.976942 62.638261 
L 162.086411 61.589765 
L 162.231295 61.589765 
L 162.267327 60.54127 
L 162.46416 60.54127 
L 162.46416 60.017022 
L 162.623548 60.017022 
L 162.623548 59.492774 
L 162.851198 59.492774 
L 162.851198 58.968526 
L 162.972543 58.968526 
L 162.972543 58.444279 
L 163.280698 58.444279 
L 163.365326 56.871536 
L 163.864535 56.871536 
L 163.864535 56.347288 
L 164.237687 56.347288 
L 164.237687 55.82304 
L 164.349667 55.82304 
L 164.397436 54.250297 
L 164.524176 54.250297 
L 164.539953 53.201802 
L 164.945159 53.201802 
L 165.037328 51.629058 
L 165.220198 51.629058 
L 165.220198 51.104811 
L 165.889154 51.104811 
L 165.976415 50.056315 
L 166.306873 50.056315 
L 166.306873 49.532068 
L 166.949337 49.532068 
L 166.949337 49.00782 
L 167.153754 49.00782 
L 167.153754 48.483572 
L 167.382528 48.483572 
L 167.46255 47.435077 
L 167.792029 47.435077 
L 167.883164 46.386581 
L 168.217499 46.386581 
L 168.293739 44.813838 
L 168.582904 44.813838 
L 168.582904 44.28959 
L 169.025972 44.28959 
L 169.025972 43.765343 
L 169.255293 43.765343 
L 169.255293 43.241095 
L 169.457916 43.241095 
L 169.457916 42.716847 
L 169.716641 42.716847 
L 169.821371 41.668352 
L 169.983029 41.668352 
L 170.017473 40.619856 
L 170.4479 40.619856 
L 170.4479 40.095609 
L 171.299044 40.095609 
L 171.299044 39.571361 
L 172.008193 39.571361 
L 172.008193 39.047113 
L 172.54133 39.047113 
L 172.54133 38.522865 
L 172.865127 38.522865 
L 172.865127 37.998618 
L 173.068051 37.998618 
L 173.125592 36.425875 
L 173.26861 36.425875 
L 173.26861 35.901627 
L 173.466857 35.901627 
L 173.532435 34.328884 
L 173.588447 34.328884 
L 173.588447 33.804636 
L 173.736925 33.804636 
L 173.736925 33.280388 
L 175.044253 33.280388 
L 175.044253 32.756141 
L 175.47556 32.756141 
L 175.533924 31.707645 
L 176.114976 31.707645 
L 176.114976 31.183397 
L 176.932164 31.183397 
L 176.932164 30.65915 
L 177.274069 30.65915 
L 177.289109 29.610654 
L 178.11099 29.610654 
L 178.218141 28.037911 
L 179.553583 28.037911 
L 179.553583 27.513663 
L 333.429677 27.513663 
L 333.429677 27.513663 
" style="fill:none;stroke:#00bfbf;stroke-linecap:square;stroke-width:1.5;"/>
   </g>
   <g id="line2d_25">
    <defs>
     <path d="M -6 0 
L 6 0 
M 0 6 
L 0 -6 
" id="m07e3cae5a7" style="stroke:#00bfbf;stroke-width:1.5;"/>
    </defs>
    <g>
     <use style="fill-opacity:0;stroke:#00bfbf;stroke-width:1.5;" x="122.361274" xlink:href="#m07e3cae5a7" y="257.134164"/>
     <use style="fill-opacity:0;stroke:#00bfbf;stroke-width:1.5;" x="151.823837" xlink:href="#m07e3cae5a7" y="121.878253"/>
     <use style="fill-opacity:0;stroke:#00bfbf;stroke-width:1.5;" x="179.553583" xlink:href="#m07e3cae5a7" y="28.037911"/>
     <use style="fill-opacity:0;stroke:#00bfbf;stroke-width:1.5;" x="179.553583" xlink:href="#m07e3cae5a7" y="27.513663"/>
     <use style="fill-opacity:0;stroke:#00bfbf;stroke-width:1.5;" x="333.429677" xlink:href="#m07e3cae5a7" y="27.513663"/>
    </g>
   </g>
   <g id="line2d_26">
    <path style="fill:none;stroke:#00bfbf;stroke-linecap:square;stroke-width:1.5;"/>
    <g/>
   </g>
   <g id="line2d_27">
    <path clip-path="url(#p555a41d470)" d="M 129.93678 244.552219 
" style="fill:none;stroke:#00bfbf;stroke-linecap:square;stroke-width:1.5;"/>
    <defs>
     <path d="M -12 12 
L 12 -12 
M -12 -12 
L 12 12 
" id="m7b587eff4d" style="stroke:#00bfbf;stroke-width:3;"/>
    </defs>
    <g clip-path="url(#p555a41d470)">
     <use style="fill:#00bfbf;stroke:#00bfbf;stroke-width:3;" x="129.93678" xlink:href="#m7b587eff4d" y="244.552219"/>
    </g>
   </g>
   <g id="line2d_28">
    <defs>
     <path d="M 0 1.5 
C 0.397805 1.5 0.77937 1.341951 1.06066 1.06066 
C 1.341951 0.77937 1.5 0.397805 1.5 0 
C 1.5 -0.397805 1.341951 -0.77937 1.06066 -1.06066 
C 0.77937 -1.341951 0.397805 -1.5 0 -1.5 
C -0.397805 -1.5 -0.77937 -1.341951 -1.06066 -1.06066 
C -1.341951 -0.77937 -1.5 -0.397805 -1.5 0 
C -1.5 0.397805 -1.341951 0.77937 -1.06066 1.06066 
C -0.77937 1.341951 -0.397805 1.5 0 1.5 
z
" id="m9f0f17e636" style="stroke:#008000;"/>
    </defs>
    <g>
     <use style="fill:#008000;stroke:#008000;" x="189.364287" xlink:href="#m9f0f17e636" y="27.513663"/>
     <use style="fill:#008000;stroke:#008000;" x="189.364287" xlink:href="#m9f0f17e636" y="27.513663"/>
    </g>
   </g>
   <g id="line2d_29">
    <path d="M 49.144027 294.88 
L 49.144027 285.967789 
L 88.759695 285.967789 
L 88.759695 284.919293 
L 107.661173 284.919293 
L 107.661173 284.395046 
L 108.225317 284.395046 
L 108.225317 283.870798 
L 109.300972 283.870798 
L 109.300972 282.822302 
L 109.814588 282.822302 
L 109.814588 282.298055 
L 110.797991 282.298055 
L 110.797991 281.773807 
L 111.72821 281.773807 
L 111.72821 279.676816 
L 112.175115 279.676816 
L 112.175115 279.152568 
L 112.610704 279.152568 
L 112.610704 277.579825 
L 113.035537 277.579825 
L 113.035537 277.055578 
L 113.450132 277.055578 
L 113.450132 274.958587 
L 113.854971 274.958587 
L 113.854971 274.434339 
L 114.250503 274.434339 
L 114.250503 272.337348 
L 114.637146 272.337348 
L 114.637146 271.8131 
L 115.01529 271.8131 
L 115.01529 270.240357 
L 116.449859 270.240357 
L 116.449859 269.191862 
L 123.878618 269.191862 
L 123.878618 268.667614 
L 124.100619 268.667614 
L 124.100619 268.143366 
L 124.961042 268.143366 
L 124.961042 266.570623 
L 125.579247 266.570623 
L 125.579247 266.046375 
L 125.780476 266.046375 
L 125.780476 260.803898 
L 127.492869 260.803898 
L 127.492869 257.658412 
L 128.027779 257.658412 
L 128.027779 257.134164 
L 128.883919 257.134164 
L 128.883919 256.609917 
L 129.539422 256.609917 
L 129.539422 255.561421 
L 129.699468 255.561421 
L 129.699468 253.988678 
L 130.015162 253.988678 
L 130.015162 253.46443 
L 131.076592 253.46443 
L 131.076592 252.940182 
L 131.654961 252.940182 
L 131.654961 252.415935 
L 131.796566 252.415935 
L 131.796566 251.367439 
L 131.937015 251.367439 
L 131.937015 250.843192 
L 132.214518 250.843192 
L 132.214518 248.746201 
L 132.35161 248.746201 
L 132.35161 248.221953 
L 132.487617 248.221953 
L 132.487617 247.173458 
L 132.756449 247.173458 
L 132.756449 246.64921 
L 133.021144 246.64921 
L 133.021144 245.600714 
L 133.538623 245.600714 
L 133.538623 244.552219 
L 133.79164 244.552219 
L 133.79164 244.027971 
L 133.916767 244.027971 
L 133.916767 243.503724 
L 134.529104 243.503724 
L 134.529104 242.979476 
L 136.136059 242.979476 
L 136.136059 242.455228 
L 136.568909 242.455228 
L 136.568909 241.93098 
L 136.991135 241.93098 
L 136.991135 241.406733 
L 139.553668 241.406733 
L 139.553668 240.882485 
L 140.04084 240.882485 
L 140.04084 240.358237 
L 141.384341 240.358237 
L 141.384341 239.83399 
L 141.862285 239.83399 
L 141.862285 239.309742 
L 142.441628 239.309742 
L 142.441628 238.785494 
L 143.72207 238.785494 
L 143.792438 237.212751 
L 144.071065 237.212751 
L 144.140023 236.164255 
L 144.208705 236.164255 
L 144.242944 234.591512 
L 144.345252 234.591512 
L 144.413122 233.543017 
L 144.514426 233.543017 
L 144.548063 230.921778 
L 144.681953 230.921778 
L 144.681953 229.873283 
L 145.044869 229.873283 
L 145.142532 227.776292 
L 145.207333 227.776292 
L 145.207333 225.155053 
L 145.336209 225.155053 
L 145.336209 224.630806 
L 145.527731 224.630806 
L 145.527731 224.106558 
L 145.654238 224.106558 
L 145.654238 223.58231 
L 145.904495 223.58231 
L 145.966495 220.436824 
L 146.212283 220.436824 
L 146.303556 216.242842 
L 146.333872 216.242842 
L 146.333872 215.718594 
L 146.454609 215.718594 
L 146.454609 215.194347 
L 146.574504 215.194347 
L 146.63414 214.145851 
L 146.752794 214.145851 
L 146.811816 209.427622 
L 146.929256 209.427622 
L 146.929256 205.757888 
L 147.190601 205.757888 
L 147.219395 200.515411 
L 147.561225 200.515411 
L 147.617542 194.224438 
L 147.673676 194.224438 
L 147.701674 193.175943 
L 147.896396 193.175943 
L 148.006684 188.981961 
L 148.116269 188.981961 
L 148.225161 184.263731 
L 148.440899 184.263731 
L 148.494413 182.690988 
L 148.600945 182.690988 
L 148.653965 180.593997 
L 148.812051 180.593997 
L 148.91664 177.972759 
L 149.12393 177.972759 
L 149.175364 176.924263 
L 149.328752 176.924263 
L 149.328752 174.303025 
L 149.731223 174.303025 
L 149.731223 173.778777 
L 150.148778 173.778777 
L 150.148778 173.254529 
L 150.698043 173.254529 
L 150.698043 172.730281 
L 150.885054 172.730281 
L 150.885054 172.206034 
L 151.321225 172.206034 
L 151.321225 171.681786 
L 151.546423 171.681786 
L 151.591111 170.633291 
L 151.702326 170.633291 
L 151.702326 170.109043 
L 152.053458 170.109043 
L 152.053458 169.584795 
L 152.37626 169.584795 
L 152.37626 169.060547 
L 152.651205 169.060547 
L 152.734928 168.012052 
L 152.859752 168.012052 
L 152.921826 166.963557 
L 153.004245 166.963557 
L 153.08627 165.390813 
L 153.228881 165.390813 
L 153.269411 164.342318 
L 153.350185 164.342318 
L 153.350185 163.293823 
L 153.47064 163.293823 
L 153.570378 160.672584 
L 153.590257 160.672584 
L 153.689306 158.051345 
L 153.748464 158.051345 
L 153.846609 157.00285 
L 153.924724 157.00285 
L 154.002487 154.381611 
L 154.060579 154.381611 
L 154.156965 150.711877 
L 154.32911 150.711877 
L 154.386112 148.614886 
L 154.480696 148.614886 
L 154.574763 146.517896 
L 154.593515 146.517896 
L 154.649649 143.896657 
L 154.705599 143.896657 
L 154.761369 142.848162 
L 154.872368 142.848162 
L 154.964324 140.751171 
L 155.000969 140.751171 
L 155.019263 139.702675 
L 155.164913 139.702675 
L 155.255322 138.65418 
L 155.327309 138.65418 
L 155.327309 138.129932 
L 155.470386 138.129932 
L 155.50597 137.081437 
L 155.629938 137.081437 
L 155.735489 136.032941 
L 155.927335 136.032941 
L 155.927335 135.508693 
L 156.270757 135.508693 
L 156.304725 133.93595 
L 156.423088 133.93595 
L 156.523898 132.887455 
L 156.740314 132.887455 
L 156.740314 132.363207 
L 157.068036 132.363207 
L 157.068036 131.838959 
L 157.197397 131.838959 
L 157.197397 131.314712 
L 157.373694 131.314712 
L 157.389632 130.266216 
L 157.500785 130.266216 
L 157.500785 128.693473 
L 157.736579 128.693473 
L 157.752185 127.644978 
L 158.500008 127.644978 
L 158.589384 126.072235 
L 158.619074 126.072235 
L 158.707835 123.975244 
L 158.810814 123.975244 
L 158.913181 121.878253 
L 158.927755 121.878253 
L 159.029431 120.30551 
L 159.116105 120.30551 
L 159.188002 118.732766 
L 159.245304 118.732766 
L 159.273883 117.160023 
L 159.387729 117.160023 
L 159.416073 116.111528 
L 159.528985 116.111528 
L 159.613185 112.441794 
L 159.696975 112.441794 
L 159.780359 109.820555 
L 159.95965 109.820555 
L 160.055423 108.247812 
L 160.150665 108.247812 
L 160.231884 106.150821 
L 160.272351 106.150821 
L 160.339583 104.578078 
L 160.419918 104.578078 
L 160.486577 103.529583 
L 160.829105 103.529583 
L 160.920171 102.481087 
L 161.023659 102.481087 
L 161.023659 101.956839 
L 161.190511 101.956839 
L 161.190511 100.908344 
L 161.33044 100.908344 
L 161.33044 99.859849 
L 161.644292 99.859849 
L 161.731154 97.762858 
L 161.842193 97.762858 
L 161.928065 96.714362 
L 161.964736 96.714362 
L 162.074283 95.665867 
L 162.243314 95.665867 
L 162.303282 94.617371 
L 162.541087 94.617371 
L 162.611792 93.044628 
L 162.717307 93.044628 
L 162.740668 91.996133 
L 162.880167 91.996133 
L 162.914866 90.42339 
L 163.064425 90.42339 
L 163.064425 89.899142 
L 163.370953 89.899142 
L 163.471927 88.850646 
L 163.48311 88.850646 
L 163.48311 88.326399 
L 163.638912 88.326399 
L 163.683169 87.277903 
L 163.760346 87.277903 
L 163.782333 86.229408 
L 163.913668 86.229408 
L 163.913668 85.70516 
L 164.07644 85.70516 
L 164.119587 84.132417 
L 164.248383 84.132417 
L 164.312421 83.083922 
L 164.608153 83.083922 
L 164.608153 82.559674 
L 164.733356 82.559674 
L 164.743749 81.511178 
L 165.011775 81.511178 
L 165.11376 79.938435 
L 165.144238 79.938435 
L 165.184792 77.841444 
L 165.275689 77.841444 
L 165.336022 76.792949 
L 165.545536 76.792949 
L 165.595046 75.744454 
L 165.840484 75.744454 
L 165.840484 75.220206 
L 166.063235 75.220206 
L 166.063235 74.695958 
L 166.226043 74.695958 
L 166.321098 73.647463 
L 166.358973 73.647463 
L 166.358973 73.123215 
L 166.472102 73.123215 
L 166.500268 71.026224 
L 166.696151 71.026224 
L 166.696151 70.501976 
L 166.862293 70.501976 
L 166.862293 69.977729 
L 167.05412 69.977729 
L 167.090418 68.929233 
L 167.351307 68.929233 
L 167.404793 67.35649 
L 167.643447 67.35649 
L 167.704783 65.259499 
L 167.783325 65.259499 
L 167.783325 64.735251 
L 167.965205 64.735251 
L 167.965205 64.211004 
L 168.179252 64.211004 
L 168.247188 63.162508 
L 168.441024 63.162508 
L 168.441024 62.638261 
L 168.665819 62.638261 
L 168.665819 62.114013 
L 168.789447 62.114013 
L 168.789447 61.589765 
L 168.928494 61.589765 
L 168.99354 60.017022 
L 169.147048 60.017022 
L 169.163127 58.968526 
L 169.354916 58.968526 
L 169.450015 56.871536 
L 169.513123 56.871536 
L 169.513123 56.347288 
L 169.630831 56.347288 
L 169.716641 54.250297 
L 169.771025 54.250297 
L 169.786532 52.677554 
L 170.063292 52.677554 
L 170.108989 51.629058 
L 170.184881 51.629058 
L 170.260441 50.580563 
L 170.4479 50.580563 
L 170.4479 50.056315 
L 170.640716 50.056315 
L 170.640716 49.532068 
L 170.780265 49.532068 
L 170.860542 47.959324 
L 170.896908 47.959324 
L 170.896908 47.435077 
L 171.362805 47.435077 
L 171.362805 46.910829 
L 171.657272 46.910829 
L 171.657272 46.386581 
L 171.857692 46.386581 
L 171.857692 45.862334 
L 172.055805 45.862334 
L 172.055805 45.338086 
L 172.285207 45.338086 
L 172.285207 44.813838 
L 172.451954 44.813838 
L 172.451954 44.28959 
L 172.623674 44.28959 
L 172.623674 43.765343 
L 172.910428 43.765343 
L 172.974939 42.716847 
L 173.281265 42.716847 
L 173.293911 41.668352 
L 173.613282 41.668352 
L 173.613282 41.144104 
L 174.0543 41.144104 
L 174.0543 40.619856 
L 174.342154 40.619856 
L 174.401522 39.571361 
L 174.613567 39.571361 
L 174.613567 39.047113 
L 174.880764 39.047113 
L 174.880764 38.522865 
L 174.995656 38.522865 
L 175.041398 36.950122 
L 175.183564 36.950122 
L 175.183564 36.425875 
L 175.768157 36.425875 
L 175.779102 35.377379 
L 176.942393 35.377379 
L 176.942393 34.853131 
L 177.998359 34.853131 
L 177.998359 34.328884 
L 179.652141 34.328884 
L 179.652141 33.804636 
L 179.972361 33.804636 
L 179.972361 33.280388 
L 180.134512 33.280388 
L 180.134512 32.756141 
L 180.31197 32.756141 
L 180.31197 32.231893 
L 180.545769 32.231893 
L 180.545769 31.707645 
L 180.665607 31.707645 
L 180.665607 31.183397 
L 180.894681 31.183397 
L 180.894681 30.65915 
L 181.13678 30.65915 
L 181.13678 30.134902 
L 181.568062 30.134902 
L 181.595393 28.562159 
L 181.897037 28.562159 
L 181.897037 28.037911 
L 189.364287 28.037911 
L 189.364287 27.513663 
L 333.429677 27.513663 
L 333.429677 27.513663 
" style="fill:none;stroke:#008000;stroke-linecap:square;stroke-width:1.5;"/>
   </g>
   <g id="line2d_30">
    <defs>
     <path d="M -0 6 
L 6 -6 
L -6 -6 
z
" id="mfa2e95993d" style="stroke:#008000;stroke-linejoin:miter;stroke-width:1.5;"/>
    </defs>
    <g>
     <use style="fill-opacity:0;stroke:#008000;stroke-linejoin:miter;stroke-width:1.5;" x="128.027779" xlink:href="#mfa2e95993d" y="257.134164"/>
     <use style="fill-opacity:0;stroke:#008000;stroke-linejoin:miter;stroke-width:1.5;" x="152.37626" xlink:href="#mfa2e95993d" y="169.584795"/>
     <use style="fill-opacity:0;stroke:#008000;stroke-linejoin:miter;stroke-width:1.5;" x="181.897037" xlink:href="#mfa2e95993d" y="28.562159"/>
     <use style="fill-opacity:0;stroke:#008000;stroke-linejoin:miter;stroke-width:1.5;" x="189.364287" xlink:href="#mfa2e95993d" y="28.037911"/>
     <use style="fill-opacity:0;stroke:#008000;stroke-linejoin:miter;stroke-width:1.5;" x="189.364287" xlink:href="#mfa2e95993d" y="27.513663"/>
     <use style="fill-opacity:0;stroke:#008000;stroke-linejoin:miter;stroke-width:1.5;" x="333.429677" xlink:href="#mfa2e95993d" y="27.513663"/>
    </g>
   </g>
   <g id="line2d_31">
    <path style="fill:none;stroke:#008000;stroke-linecap:square;stroke-width:1.5;"/>
    <g/>
   </g>
   <g id="line2d_32">
    <path clip-path="url(#p555a41d470)" d="M 135.465655 242.979476 
" style="fill:none;stroke:#008000;stroke-linecap:square;stroke-width:1.5;"/>
    <defs>
     <path d="M -12 12 
L 12 -12 
M -12 -12 
L 12 12 
" id="me62bcfec47" style="stroke:#008000;stroke-width:3;"/>
    </defs>
    <g clip-path="url(#p555a41d470)">
     <use style="fill:#008000;stroke:#008000;stroke-width:3;" x="135.465655" xlink:href="#me62bcfec47" y="242.979476"/>
    </g>
   </g>
   <g id="line2d_33">
    <defs>
     <path d="M 0 1.5 
C 0.397805 1.5 0.77937 1.341951 1.06066 1.06066 
C 1.341951 0.77937 1.5 0.397805 1.5 0 
C 1.5 -0.397805 1.341951 -0.77937 1.06066 -1.06066 
C 0.77937 -1.341951 0.397805 -1.5 0 -1.5 
C -0.397805 -1.5 -0.77937 -1.341951 -1.06066 -1.06066 
C -1.341951 -0.77937 -1.5 -0.397805 -1.5 0 
C -1.5 0.397805 -1.341951 0.77937 -1.06066 1.06066 
C -0.77937 1.341951 -0.397805 1.5 0 1.5 
z
" id="m5feb3a98d4" style="stroke:#0000ff;"/>
    </defs>
    <g>
     <use style="fill:#0000ff;stroke:#0000ff;" x="208.458904" xlink:href="#m5feb3a98d4" y="158.575593"/>
     <use style="fill:#0000ff;stroke:#0000ff;" x="208.458904" xlink:href="#m5feb3a98d4" y="158.575593"/>
    </g>
   </g>
   <g id="line2d_34">
    <path d="M 40.355341 294.88 
L 40.355341 287.016284 
L 99.982863 287.016284 
L 99.982863 286.492036 
L 106.958836 286.492036 
L 106.958836 285.967789 
L 107.313588 285.967789 
L 107.313588 285.443541 
L 108.001874 285.443541 
L 108.001874 284.919293 
L 109.915496 284.919293 
L 109.915496 284.395046 
L 110.508826 284.395046 
L 110.508826 283.870798 
L 110.797991 283.870798 
L 110.797991 282.822302 
L 111.362135 282.822302 
L 111.362135 280.725312 
L 111.637419 280.725312 
L 111.637419 279.676816 
L 112.175115 279.676816 
L 112.175115 279.152568 
L 113.694177 279.152568 
L 113.694177 277.579825 
L 126.56265 277.579825 
L 126.56265 277.055578 
L 133.073598 277.055578 
L 133.073598 276.53133 
L 133.614919 276.53133 
L 133.614919 276.007082 
L 137.725974 276.007082 
L 137.725974 275.482834 
L 140.283654 275.482834 
L 140.283654 274.434339 
L 140.792711 274.434339 
L 140.792711 273.910091 
L 141.23833 273.910091 
L 141.23833 272.861596 
L 141.624972 272.861596 
L 141.624972 272.337348 
L 141.815083 272.337348 
L 141.815083 271.8131 
L 144.029558 271.8131 
L 144.029558 271.288853 
L 144.153781 271.288853 
L 144.153781 270.764605 
L 144.440195 270.764605 
L 144.521159 269.716109 
L 144.80157 269.716109 
L 144.80157 269.191862 
L 145.116542 269.191862 
L 145.155512 267.619119 
L 145.954113 267.619119 
L 145.954113 267.094871 
L 146.065232 267.094871 
L 146.065232 266.570623 
L 146.212283 266.570623 
L 146.212283 264.473632 
L 146.574504 264.473632 
L 146.574504 263.949385 
L 146.752794 263.949385 
L 146.788232 262.376641 
L 147.328378 262.376641 
L 147.328378 261.328146 
L 147.516038 261.328146 
L 147.516038 260.803898 
L 147.68488 260.803898 
L 147.785396 257.658412 
L 147.885328 257.658412 
L 147.885328 256.609917 
L 148.083467 256.609917 
L 148.181687 252.940182 
L 148.900992 252.940182 
L 148.900992 252.415935 
L 149.195895 252.415935 
L 149.303282 250.318944 
L 149.318569 250.318944 
L 149.318569 249.794696 
L 149.561322 249.794696 
L 149.561322 249.270448 
L 149.741166 249.270448 
L 149.741166 248.746201 
L 150.182718 248.746201 
L 150.182718 248.221953 
L 150.499469 248.221953 
L 150.527977 246.64921 
L 150.726225 246.64921 
L 150.726225 245.600714 
L 151.115996 245.600714 
L 151.225756 244.027971 
L 152.053458 244.027971 
L 152.053458 243.503724 
L 152.693117 243.503724 
L 152.693117 242.979476 
L 154.905529 242.979476 
L 154.905529 242.455228 
L 155.36319 242.455228 
L 155.36319 241.93098 
L 155.955062 241.93098 
L 156.037977 240.882485 
L 156.314902 240.882485 
L 156.314902 240.358237 
L 156.517196 240.358237 
L 156.58744 238.785494 
L 156.677335 238.785494 
L 156.766763 237.736999 
L 157.312995 237.736999 
L 157.389632 236.688503 
L 157.50395 236.688503 
L 157.50395 236.164255 
L 157.617514 236.164255 
L 157.617514 235.640008 
L 158.265434 235.640008 
L 158.265434 235.11576 
L 158.616107 235.11576 
L 158.678299 234.067265 
L 159.029431 234.067265 
L 159.029431 233.543017 
L 159.424567 233.543017 
L 159.509279 231.970274 
L 159.610385 231.970274 
L 159.627178 230.921778 
L 159.744276 230.921778 
L 159.752609 229.873283 
L 160.779467 229.873283 
L 160.779467 229.349035 
L 160.8968 229.349035 
L 160.8968 228.30054 
L 161.013338 228.30054 
L 161.013338 227.776292 
L 161.335507 227.776292 
L 161.335507 227.252044 
L 161.859402 227.252044 
L 161.859402 226.727797 
L 162.020813 226.727797 
L 162.020813 226.203549 
L 162.339163 226.203549 
L 162.339163 225.679301 
L 162.757001 225.679301 
L 162.757001 225.155053 
L 162.875536 225.155053 
L 162.875536 224.630806 
L 163.164931 224.630806 
L 163.164931 224.106558 
L 163.802097 224.106558 
L 163.802097 223.58231 
L 164.0505 223.58231 
L 164.0505 223.058063 
L 164.211989 223.058063 
L 164.211989 222.009567 
L 164.340097 222.009567 
L 164.378344 220.961072 
L 164.568315 220.961072 
L 164.64372 219.912576 
L 164.706306 219.912576 
L 164.768665 218.864081 
L 164.923581 218.864081 
L 164.929749 217.815585 
L 165.404144 217.815585 
L 165.493894 216.242842 
L 165.600978 216.242842 
L 165.600978 215.718594 
L 166.343833 215.718594 
L 166.343833 215.194347 
L 166.473981 215.194347 
L 166.473981 214.670099 
L 167.401233 214.670099 
L 167.401233 214.145851 
L 167.560735 214.145851 
L 167.560735 213.621604 
L 168.061427 213.621604 
L 168.102501 212.573108 
L 168.220046 212.573108 
L 168.220046 212.04886 
L 168.42761 212.04886 
L 168.52796 211.000365 
L 168.933381 211.000365 
L 168.933381 210.476117 
L 169.069658 210.476117 
L 169.069658 209.95187 
L 169.286437 209.95187 
L 169.391433 207.854879 
L 169.448434 207.854879 
L 169.448434 207.330631 
L 170.099859 207.330631 
L 170.099859 206.806383 
L 170.340173 206.806383 
L 170.443425 205.23364 
L 170.854716 205.23364 
L 170.854716 204.709392 
L 171.011323 204.709392 
L 171.067527 203.136649 
L 171.13645 203.136649 
L 171.183675 202.088154 
L 171.294785 202.088154 
L 171.337329 201.039658 
L 171.422103 201.039658 
L 171.460115 199.991163 
L 171.590408 199.991163 
L 171.590408 199.466915 
L 172.065312 199.466915 
L 172.065312 198.942667 
L 172.203243 198.942667 
L 172.203243 198.41842 
L 172.586833 198.41842 
L 172.586833 197.894172 
L 173.123677 197.894172 
L 173.207734 196.845677 
L 173.242003 196.845677 
L 173.34062 195.797181 
L 173.449954 195.797181 
L 173.449954 195.272933 
L 173.592174 195.272933 
L 173.670269 194.224438 
L 173.807006 194.224438 
L 173.876803 192.651695 
L 174.131533 192.651695 
L 174.207222 191.603199 
L 174.460686 191.603199 
L 174.460686 191.078952 
L 176.105316 191.078952 
L 176.105316 190.554704 
L 177.612263 190.554704 
L 177.715225 189.506209 
L 177.933804 189.506209 
L 177.933804 188.981961 
L 178.483837 188.981961 
L 178.483837 188.457713 
L 179.111741 188.457713 
L 179.119852 187.409218 
L 179.278597 187.409218 
L 179.278597 186.88497 
L 179.417303 186.88497 
L 179.417303 186.360722 
L 179.968931 186.360722 
L 179.968931 185.836474 
L 180.120065 185.836474 
L 180.120065 185.312227 
L 180.249646 185.312227 
L 180.249646 184.787979 
L 180.378257 184.787979 
L 180.428432 183.215236 
L 180.719057 183.215236 
L 180.719057 182.690988 
L 180.831989 182.690988 
L 180.831989 182.16674 
L 180.956336 182.16674 
L 181.038737 181.118245 
L 181.357333 181.118245 
L 181.357333 180.593997 
L 181.681785 180.593997 
L 181.681785 180.06975 
L 181.894736 180.06975 
L 181.894736 179.545502 
L 182.449305 179.545502 
L 182.555892 177.972759 
L 183.732277 177.972759 
L 183.779761 176.924263 
L 184.096393 176.924263 
L 184.096393 176.400016 
L 184.211381 176.400016 
L 184.211381 175.875768 
L 184.677505 175.875768 
L 184.677505 175.35152 
L 184.831408 175.35152 
L 184.831408 174.827272 
L 185.528857 174.827272 
L 185.588351 173.778777 
L 185.723306 173.778777 
L 185.723306 173.254529 
L 186.186587 173.254529 
L 186.186587 172.730281 
L 186.726544 172.730281 
L 186.726544 172.206034 
L 186.889068 172.206034 
L 186.889068 171.681786 
L 187.280375 171.681786 
L 187.280375 171.157538 
L 187.484381 171.157538 
L 187.484381 170.633291 
L 188.529179 170.633291 
L 188.529179 170.109043 
L 188.863807 170.109043 
L 188.863807 169.584795 
L 189.068175 169.584795 
L 189.068175 169.060547 
L 189.500846 169.060547 
L 189.500846 168.5363 
L 190.234556 168.5363 
L 190.234556 168.012052 
L 190.482113 168.012052 
L 190.519777 166.963557 
L 191.142392 166.963557 
L 191.142392 166.439309 
L 191.525151 166.439309 
L 191.525151 165.915061 
L 193.076302 165.915061 
L 193.076302 165.390813 
L 193.532597 165.390813 
L 193.532597 164.866566 
L 194.544372 164.866566 
L 194.544372 164.342318 
L 195.804968 164.342318 
L 195.804968 163.81807 
L 196.405211 163.81807 
L 196.405211 163.293823 
L 196.618657 163.293823 
L 196.618657 162.769575 
L 196.779202 162.769575 
L 196.779202 162.245327 
L 198.858397 162.245327 
L 198.858397 161.721079 
L 200.035853 161.721079 
L 200.035853 161.196832 
L 201.505267 161.196832 
L 201.505267 160.672584 
L 202.786748 160.672584 
L 202.786748 160.148336 
L 203.806427 160.148336 
L 203.806427 159.624089 
L 204.149312 159.624089 
L 204.149312 159.099841 
L 208.458904 159.099841 
L 208.458904 158.575593 
L 333.429677 158.575593 
L 333.429677 158.575593 
" style="fill:none;stroke:#0000ff;stroke-linecap:square;stroke-width:1.5;"/>
   </g>
   <g id="line2d_35">
    <defs>
     <path d="M 0 -6 
L -1.347084 -1.854102 
L -5.706339 -1.854102 
L -2.179628 0.708204 
L -3.526712 4.854102 
L -0 2.291796 
L 3.526712 4.854102 
L 2.179628 0.708204 
L 5.706339 -1.854102 
L 1.347084 -1.854102 
z
" id="m011b37f897" style="stroke:#0000ff;stroke-linejoin:bevel;stroke-width:1.5;"/>
    </defs>
    <g>
     <use style="fill-opacity:0;stroke:#0000ff;stroke-linejoin:bevel;stroke-width:1.5;" x="113.694177" xlink:href="#m011b37f897" y="277.579825"/>
     <use style="fill-opacity:0;stroke:#0000ff;stroke-linejoin:bevel;stroke-width:1.5;" x="165.600978" xlink:href="#m011b37f897" y="215.718594"/>
     <use style="fill-opacity:0;stroke:#0000ff;stroke-linejoin:bevel;stroke-width:1.5;" x="208.458904" xlink:href="#m011b37f897" y="159.099841"/>
     <use style="fill-opacity:0;stroke:#0000ff;stroke-linejoin:bevel;stroke-width:1.5;" x="208.458904" xlink:href="#m011b37f897" y="158.575593"/>
     <use style="fill-opacity:0;stroke:#0000ff;stroke-linejoin:bevel;stroke-width:1.5;" x="208.458904" xlink:href="#m011b37f897" y="158.575593"/>
     <use style="fill-opacity:0;stroke:#0000ff;stroke-linejoin:bevel;stroke-width:1.5;" x="333.429677" xlink:href="#m011b37f897" y="158.575593"/>
    </g>
   </g>
   <g id="line2d_36">
    <path style="fill:none;stroke:#0000ff;stroke-linecap:square;stroke-width:1.5;"/>
    <g/>
   </g>
   <g id="line2d_37">
    <path clip-path="url(#p555a41d470)" d="M 144.521159 269.716109 
" style="fill:none;stroke:#0000ff;stroke-linecap:square;stroke-width:1.5;"/>
    <defs>
     <path d="M -12 12 
L 12 -12 
M -12 -12 
L 12 12 
" id="m7943ca4af0" style="stroke:#0000ff;stroke-width:3;"/>
    </defs>
    <g clip-path="url(#p555a41d470)">
     <use style="fill:#0000ff;stroke:#0000ff;stroke-width:3;" x="144.521159" xlink:href="#m7943ca4af0" y="269.716109"/>
    </g>
   </g>
   <g id="line2d_38">
    <defs>
     <path d="M 0 1.5 
C 0.397805 1.5 0.77937 1.341951 1.06066 1.06066 
C 1.341951 0.77937 1.5 0.397805 1.5 0 
C 1.5 -0.397805 1.341951 -0.77937 1.06066 -1.06066 
C 0.77937 -1.341951 0.397805 -1.5 0 -1.5 
C -0.397805 -1.5 -0.77937 -1.341951 -1.06066 -1.06066 
C -1.341951 -0.77937 -1.5 -0.397805 -1.5 0 
C -1.5 0.397805 -1.341951 0.77937 -1.06066 1.06066 
C -0.77937 1.341951 -0.397805 1.5 0 1.5 
z
" id="mb9b7120bb9" style="stroke:#000000;"/>
    </defs>
    <g>
     <use style="stroke:#000000;" x="206.888764" xlink:href="#mb9b7120bb9" y="263.425137"/>
     <use style="stroke:#000000;" x="206.888764" xlink:href="#mb9b7120bb9" y="263.425137"/>
    </g>
   </g>
   <g id="line2d_39">
    <path d="M 28.429836 294.88 
L 28.429836 289.637523 
L 116.484234 289.637523 
L 116.484234 288.589027 
L 116.58695 288.589027 
L 116.58695 287.540532 
L 117.484799 287.540532 
L 117.484799 285.967789 
L 131.852883 285.967789 
L 131.852883 285.443541 
L 136.256182 285.443541 
L 136.256182 284.395046 
L 138.257213 284.395046 
L 138.257213 282.822302 
L 143.75729 282.822302 
L 143.75729 282.298055 
L 144.500954 282.298055 
L 144.500954 281.773807 
L 148.680414 281.773807 
L 148.680414 281.249559 
L 149.394798 281.249559 
L 149.394798 280.725312 
L 150.080698 280.725312 
L 150.080698 280.201064 
L 150.153631 280.201064 
L 150.153631 279.676816 
L 150.485197 279.676816 
L 150.485197 279.152568 
L 151.361979 279.152568 
L 151.361979 278.628321 
L 152.805772 278.628321 
L 152.805772 277.579825 
L 153.56242 277.579825 
L 153.56242 277.055578 
L 154.275738 277.055578 
L 154.275738 276.53133 
L 154.559747 276.53133 
L 154.559747 276.007082 
L 158.39214 276.007082 
L 158.39214 275.482834 
L 158.898594 275.482834 
L 158.898594 274.958587 
L 161.365878 274.958587 
L 161.365878 274.434339 
L 161.554488 274.434339 
L 161.554488 273.910091 
L 163.055259 273.910091 
L 163.055259 273.385844 
L 164.590342 273.385844 
L 164.590342 272.861596 
L 164.593487 272.861596 
L 164.593487 272.337348 
L 167.191644 272.337348 
L 167.191644 271.8131 
L 168.540463 271.8131 
L 168.540463 271.288853 
L 172.931098 271.288853 
L 172.931098 270.764605 
L 174.846147 270.764605 
L 174.846147 270.240357 
L 175.950025 270.240357 
L 175.950025 269.716109 
L 182.007089 269.716109 
L 182.007089 269.191862 
L 182.977918 269.191862 
L 182.977918 268.667614 
L 183.978592 268.667614 
L 183.978592 268.143366 
L 185.014676 268.143366 
L 185.014676 267.619119 
L 185.632836 267.619119 
L 185.632836 267.094871 
L 187.390203 267.094871 
L 187.390203 266.570623 
L 188.478262 266.570623 
L 188.478262 266.046375 
L 188.479831 266.046375 
L 188.479831 265.522128 
L 189.980511 265.522128 
L 189.980511 264.99788 
L 200.433552 264.99788 
L 200.433552 264.473632 
L 201.197896 264.473632 
L 201.197896 263.949385 
L 206.888764 263.949385 
L 206.888764 263.425137 
L 333.429677 263.425137 
" style="fill:none;stroke:#000000;stroke-linecap:square;stroke-width:1.5;"/>
   </g>
   <g id="line2d_40">
    <defs>
     <path d="M 0 6 
C 1.591219 6 3.117479 5.367802 4.242641 4.242641 
C 5.367802 3.117479 6 1.591219 6 0 
C 6 -1.591219 5.367802 -3.117479 4.242641 -4.242641 
C 3.117479 -5.367802 1.591219 -6 0 -6 
C -1.591219 -6 -3.117479 -5.367802 -4.242641 -4.242641 
C -5.367802 -3.117479 -6 -1.591219 -6 0 
C -6 1.591219 -5.367802 3.117479 -4.242641 4.242641 
C -3.117479 5.367802 -1.591219 6 0 6 
z
" id="m69c7117c7c" style="stroke:#000000;stroke-width:1.5;"/>
    </defs>
    <g>
     <use style="fill-opacity:0;stroke:#000000;stroke-width:1.5;" x="117.484799" xlink:href="#m69c7117c7c" y="285.967789"/>
     <use style="fill-opacity:0;stroke:#000000;stroke-width:1.5;" x="189.980511" xlink:href="#m69c7117c7c" y="265.522128"/>
     <use style="fill-opacity:0;stroke:#000000;stroke-width:1.5;" x="206.888764" xlink:href="#m69c7117c7c" y="263.425137"/>
     <use style="fill-opacity:0;stroke:#000000;stroke-width:1.5;" x="206.888764" xlink:href="#m69c7117c7c" y="263.425137"/>
     <use style="fill-opacity:0;stroke:#000000;stroke-width:1.5;" x="333.429677" xlink:href="#m69c7117c7c" y="263.425137"/>
    </g>
   </g>
   <g id="line2d_41">
    <path style="fill:none;stroke:#000000;stroke-linecap:square;stroke-width:1.5;"/>
    <g/>
   </g>
   <g id="line2d_42">
    <path clip-path="url(#p555a41d470)" d="M 147.276841 281.773807 
" style="fill:none;stroke:#000000;stroke-linecap:square;stroke-width:1.5;"/>
    <defs>
     <path d="M -12 12 
L 12 -12 
M -12 -12 
L 12 12 
" id="m45c6d7ced9" style="stroke:#000000;stroke-width:3;"/>
    </defs>
    <g clip-path="url(#p555a41d470)">
     <use style="stroke:#000000;stroke-width:3;" x="147.276841" xlink:href="#m45c6d7ced9" y="281.773807"/>
    </g>
   </g>
   <g id="line2d_43">
    <defs>
     <path d="M 0 1.5 
C 0.397805 1.5 0.77937 1.341951 1.06066 1.06066 
C 1.341951 0.77937 1.5 0.397805 1.5 0 
C 1.5 -0.397805 1.341951 -0.77937 1.06066 -1.06066 
C 0.77937 -1.341951 0.397805 -1.5 0 -1.5 
C -0.397805 -1.5 -0.77937 -1.341951 -1.06066 -1.06066 
C -1.341951 -0.77937 -1.5 -0.397805 -1.5 0 
C -1.5 0.397805 -1.341951 0.77937 -1.06066 1.06066 
C -0.77937 1.341951 -0.397805 1.5 0 1.5 
z
" id="mbd1bcd1432" style="stroke:#ff0000;"/>
    </defs>
    <g>
     <use style="fill:#ff0000;stroke:#ff0000;" x="177.37159" xlink:href="#mbd1bcd1432" y="284.395046"/>
     <use style="fill:#ff0000;stroke:#ff0000;" x="177.37159" xlink:href="#mbd1bcd1432" y="284.395046"/>
    </g>
   </g>
   <g id="line2d_44">
    <path d="M 16.504332 294.88 
L 16.504332 289.637523 
L 124.166665 289.637523 
L 124.166665 288.589027 
L 142.327309 288.589027 
L 142.327309 288.06478 
L 150.291357 288.06478 
L 150.291357 287.540532 
L 150.901322 287.540532 
L 150.901322 287.016284 
L 151.266736 287.016284 
L 151.266736 286.492036 
L 156.904956 286.492036 
L 156.904956 285.967789 
L 161.316499 285.967789 
L 161.316499 285.443541 
L 167.242934 285.443541 
L 167.242934 284.919293 
L 177.37159 284.919293 
L 177.37159 284.395046 
L 333.429677 284.395046 
" style="fill:none;stroke:#ff0000;stroke-linecap:square;stroke-width:1.5;"/>
   </g>
   <g id="line2d_45">
    <defs>
     <path d="M -6 6 
L 6 6 
L 6 -6 
L -6 -6 
z
" id="mf1adc0c22b" style="stroke:#ff0000;stroke-linejoin:miter;stroke-width:1.5;"/>
    </defs>
    <g>
     <use style="fill-opacity:0;stroke:#ff0000;stroke-linejoin:miter;stroke-width:1.5;" x="167.242934" xlink:href="#mf1adc0c22b" y="285.443541"/>
     <use style="fill-opacity:0;stroke:#ff0000;stroke-linejoin:miter;stroke-width:1.5;" x="177.37159" xlink:href="#mf1adc0c22b" y="284.919293"/>
     <use style="fill-opacity:0;stroke:#ff0000;stroke-linejoin:miter;stroke-width:1.5;" x="177.37159" xlink:href="#mf1adc0c22b" y="284.395046"/>
     <use style="fill-opacity:0;stroke:#ff0000;stroke-linejoin:miter;stroke-width:1.5;" x="177.37159" xlink:href="#mf1adc0c22b" y="284.395046"/>
     <use style="fill-opacity:0;stroke:#ff0000;stroke-linejoin:miter;stroke-width:1.5;" x="333.429677" xlink:href="#mf1adc0c22b" y="284.395046"/>
    </g>
   </g>
   <g id="line2d_46">
    <path style="fill:none;stroke:#ff0000;stroke-linecap:square;stroke-width:1.5;"/>
    <g/>
   </g>
   <g id="line2d_47">
    <path clip-path="url(#p555a41d470)" d="M 147.276841 288.06478 
" style="fill:none;stroke:#ff0000;stroke-linecap:square;stroke-width:1.5;"/>
    <defs>
     <path d="M -12 12 
L 12 -12 
M -12 -12 
L 12 12 
" id="m8000fd1532" style="stroke:#ff0000;stroke-width:3;"/>
    </defs>
    <g clip-path="url(#p555a41d470)">
     <use style="fill:#ff0000;stroke:#ff0000;stroke-width:3;" x="147.276841" xlink:href="#m8000fd1532" y="288.06478"/>
    </g>
   </g>
   <g id="line2d_48">
    <defs>
     <path d="M 0 1.5 
C 0.397805 1.5 0.77937 1.341951 1.06066 1.06066 
C 1.341951 0.77937 1.5 0.397805 1.5 0 
C 1.5 -0.397805 1.341951 -0.77937 1.06066 -1.06066 
C 0.77937 -1.341951 0.397805 -1.5 0 -1.5 
C -0.397805 -1.5 -0.77937 -1.341951 -1.06066 -1.06066 
C -1.341951 -0.77937 -1.5 -0.397805 -1.5 0 
C -1.5 0.397805 -1.341951 0.77937 -1.06066 1.06066 
C -0.77937 1.341951 -0.397805 1.5 0 1.5 
z
" id="m2b860874f5" style="stroke:#bf00bf;"/>
    </defs>
    <g>
     <use style="fill:#bf00bf;stroke:#bf00bf;" x="207.050719" xlink:href="#m2b860874f5" y="284.395046"/>
     <use style="fill:#bf00bf;stroke:#bf00bf;" x="207.050719" xlink:href="#m2b860874f5" y="284.395046"/>
    </g>
   </g>
   <g id="line2d_49">
    <path d="M 4.578827 294.88 
L 4.578827 289.637523 
L 161.403766 289.637523 
L 161.403766 289.113275 
L 175.881642 289.113275 
L 175.881642 288.589027 
L 181.4142 288.589027 
L 181.4142 288.06478 
L 183.631195 288.06478 
L 183.631195 287.540532 
L 194.178795 287.540532 
L 194.178795 287.016284 
L 194.178936 287.016284 
L 194.178936 286.492036 
L 198.181078 286.492036 
L 198.181078 285.967789 
L 199.051484 285.967789 
L 199.051484 285.443541 
L 199.05159 285.443541 
L 199.05159 284.919293 
L 207.050719 284.919293 
L 207.050719 284.395046 
L 333.429677 284.395046 
" style="fill:none;stroke:#bf00bf;stroke-linecap:square;stroke-width:1.5;"/>
   </g>
   <g id="line2d_50">
    <defs>
     <path d="M -0 8.485281 
L 8.485281 0 
L 0 -8.485281 
L -8.485281 -0 
z
" id="m282d76c1da" style="stroke:#bf00bf;stroke-linejoin:miter;stroke-width:1.5;"/>
    </defs>
    <g>
     <use style="fill-opacity:0;stroke:#bf00bf;stroke-linejoin:miter;stroke-width:1.5;" x="161.403766" xlink:href="#m282d76c1da" y="289.637523"/>
     <use style="fill-opacity:0;stroke:#bf00bf;stroke-linejoin:miter;stroke-width:1.5;" x="207.050719" xlink:href="#m282d76c1da" y="284.919293"/>
     <use style="fill-opacity:0;stroke:#bf00bf;stroke-linejoin:miter;stroke-width:1.5;" x="207.050719" xlink:href="#m282d76c1da" y="284.395046"/>
     <use style="fill-opacity:0;stroke:#bf00bf;stroke-linejoin:miter;stroke-width:1.5;" x="207.050719" xlink:href="#m282d76c1da" y="284.395046"/>
     <use style="fill-opacity:0;stroke:#bf00bf;stroke-linejoin:miter;stroke-width:1.5;" x="333.429677" xlink:href="#m282d76c1da" y="284.395046"/>
    </g>
   </g>
   <g id="line2d_51">
    <path style="fill:none;stroke:#bf00bf;stroke-linecap:square;stroke-width:1.5;"/>
    <g/>
   </g>
   <g id="line2d_52">
    <path clip-path="url(#p555a41d470)" d="M 147.276841 289.637523 
" style="fill:none;stroke:#bf00bf;stroke-linecap:square;stroke-width:1.5;"/>
    <defs>
     <path d="M -12 12 
L 12 -12 
M -12 -12 
L 12 12 
" id="m039cb77b1b" style="stroke:#bf00bf;stroke-width:3;"/>
    </defs>
    <g clip-path="url(#p555a41d470)">
     <use style="fill:#bf00bf;stroke:#bf00bf;stroke-width:3;" x="147.276841" xlink:href="#m039cb77b1b" y="289.637523"/>
    </g>
   </g>
   <g id="line2d_53">
    <path d="M 333.429677 284.395046 
L 363.933742 289.532673 
" style="fill:none;stroke:#bf00bf;stroke-linecap:square;stroke-width:1.5;"/>
    <g>
     <use style="fill-opacity:0;stroke:#bf00bf;stroke-linejoin:miter;stroke-width:1.5;" x="333.429677" xlink:href="#m282d76c1da" y="284.395046"/>
     <use style="fill-opacity:0;stroke:#bf00bf;stroke-linejoin:miter;stroke-width:1.5;" x="363.933742" xlink:href="#m282d76c1da" y="289.532673"/>
    </g>
   </g>
   <g id="line2d_54">
    <path d="M 333.429677 284.395046 
L 363.933742 238.198337 
" style="fill:none;stroke:#ff0000;stroke-linecap:square;stroke-width:1.5;"/>
    <g>
     <use style="fill-opacity:0;stroke:#ff0000;stroke-linejoin:miter;stroke-width:1.5;" x="333.429677" xlink:href="#mf1adc0c22b" y="284.395046"/>
     <use style="fill-opacity:0;stroke:#ff0000;stroke-linejoin:miter;stroke-width:1.5;" x="363.933742" xlink:href="#mf1adc0c22b" y="238.198337"/>
    </g>
   </g>
   <g id="line2d_55">
    <path d="M 333.429677 263.425137 
L 363.933742 186.864 
" style="fill:none;stroke:#000000;stroke-linecap:square;stroke-width:1.5;"/>
    <g>
     <use style="fill-opacity:0;stroke:#000000;stroke-width:1.5;" x="333.429677" xlink:href="#m69c7117c7c" y="263.425137"/>
     <use style="fill-opacity:0;stroke:#000000;stroke-width:1.5;" x="363.933742" xlink:href="#m69c7117c7c" y="186.864"/>
    </g>
   </g>
   <g id="line2d_56">
    <path d="M 333.429677 158.575593 
L 363.933742 135.529663 
" style="fill:none;stroke:#0000ff;stroke-linecap:square;stroke-width:1.5;"/>
    <g>
     <use style="fill-opacity:0;stroke:#0000ff;stroke-linejoin:bevel;stroke-width:1.5;" x="333.429677" xlink:href="#m011b37f897" y="158.575593"/>
     <use style="fill-opacity:0;stroke:#0000ff;stroke-linejoin:bevel;stroke-width:1.5;" x="363.933742" xlink:href="#m011b37f897" y="135.529663"/>
    </g>
   </g>
   <g id="line2d_57">
    <path d="M 333.429677 27.513663 
L 363.933742 84.195327 
" style="fill:none;stroke:#008000;stroke-linecap:square;stroke-width:1.5;"/>
    <g>
     <use style="fill-opacity:0;stroke:#008000;stroke-linejoin:miter;stroke-width:1.5;" x="333.429677" xlink:href="#mfa2e95993d" y="27.513663"/>
     <use style="fill-opacity:0;stroke:#008000;stroke-linejoin:miter;stroke-width:1.5;" x="363.933742" xlink:href="#mfa2e95993d" y="84.195327"/>
    </g>
   </g>
   <g id="line2d_58">
    <path d="M 333.429677 27.513663 
L 363.933742 32.86099 
" style="fill:none;stroke:#00bfbf;stroke-linecap:square;stroke-width:1.5;"/>
    <g>
     <use style="fill-opacity:0;stroke:#00bfbf;stroke-width:1.5;" x="333.429677" xlink:href="#m07e3cae5a7" y="27.513663"/>
     <use style="fill-opacity:0;stroke:#00bfbf;stroke-width:1.5;" x="363.933742" xlink:href="#m07e3cae5a7" y="32.86099"/>
    </g>
   </g>
   <g id="line2d_59">
    <path d="M 333.429677 294.88 
L 333.429677 27.513663 
" style="fill:none;stroke:#000000;stroke-linecap:square;stroke-width:1.5;"/>
   </g>
   <g id="patch_3">
    <path d="M 56.12 294.88 
L 56.12 24.84 
" style="fill:none;stroke:#000000;stroke-linecap:square;stroke-linejoin:miter;stroke-width:0.8;"/>
   </g>
   <g id="patch_4">
    <path d="M 399.984 294.88 
L 399.984 24.84 
" style="fill:none;stroke:#000000;stroke-linecap:square;stroke-linejoin:miter;stroke-width:0.8;"/>
   </g>
   <g id="patch_5">
    <path d="M 56.12 294.88 
L 399.984 294.88 
" style="fill:none;stroke:#000000;stroke-linecap:square;stroke-linejoin:miter;stroke-width:0.8;"/>
   </g>
   <g id="patch_6">
    <path d="M 56.12 24.84 
L 399.984 24.84 
" style="fill:none;stroke:#000000;stroke-linecap:square;stroke-linejoin:miter;stroke-width:0.8;"/>
   </g>
   <g id="text_14">
    <!-- 40-D -->
    <defs>
     <path d="M 19.671875 64.796875 
L 19.671875 8.109375 
L 31.59375 8.109375 
Q 46.6875 8.109375 53.6875 14.9375 
Q 60.6875 21.78125 60.6875 36.53125 
Q 60.6875 51.171875 53.6875 57.984375 
Q 46.6875 64.796875 31.59375 64.796875 
z
M 9.8125 72.90625 
L 30.078125 72.90625 
Q 51.265625 72.90625 61.171875 64.09375 
Q 71.09375 55.28125 71.09375 36.53125 
Q 71.09375 17.671875 61.125 8.828125 
Q 51.171875 0 30.078125 0 
L 9.8125 0 
z
" id="DejaVuSans-44"/>
    </defs>
    <g transform="translate(369.479935 294.223611)scale(0.17 -0.17)">
     <use xlink:href="#DejaVuSans-34"/>
     <use x="63.623047" xlink:href="#DejaVuSans-30"/>
     <use x="127.246094" xlink:href="#DejaVuSans-2d"/>
     <use x="163.330078" xlink:href="#DejaVuSans-44"/>
    </g>
   </g>
   <g id="text_15">
    <!-- 20-D -->
    <g transform="translate(369.479935 242.889274)scale(0.17 -0.17)">
     <use xlink:href="#DejaVuSans-32"/>
     <use x="63.623047" xlink:href="#DejaVuSans-30"/>
     <use x="127.246094" xlink:href="#DejaVuSans-2d"/>
     <use x="163.330078" xlink:href="#DejaVuSans-44"/>
    </g>
   </g>
   <g id="text_16">
    <!-- 10-D -->
    <g transform="translate(369.479935 191.554937)scale(0.17 -0.17)">
     <use xlink:href="#DejaVuSans-31"/>
     <use x="63.623047" xlink:href="#DejaVuSans-30"/>
     <use x="127.246094" xlink:href="#DejaVuSans-2d"/>
     <use x="163.330078" xlink:href="#DejaVuSans-44"/>
    </g>
   </g>
   <g id="text_17">
    <!-- 5-D -->
    <defs>
     <path d="M 10.796875 72.90625 
L 49.515625 72.90625 
L 49.515625 64.59375 
L 19.828125 64.59375 
L 19.828125 46.734375 
Q 21.96875 47.46875 24.109375 47.828125 
Q 26.265625 48.1875 28.421875 48.1875 
Q 40.625 48.1875 47.75 41.5 
Q 54.890625 34.8125 54.890625 23.390625 
Q 54.890625 11.625 47.5625 5.09375 
Q 40.234375 -1.421875 26.90625 -1.421875 
Q 22.3125 -1.421875 17.546875 -0.640625 
Q 12.796875 0.140625 7.71875 1.703125 
L 7.71875 11.625 
Q 12.109375 9.234375 16.796875 8.0625 
Q 21.484375 6.890625 26.703125 6.890625 
Q 35.15625 6.890625 40.078125 11.328125 
Q 45.015625 15.765625 45.015625 23.390625 
Q 45.015625 31 40.078125 35.4375 
Q 35.15625 39.890625 26.703125 39.890625 
Q 22.75 39.890625 18.8125 39.015625 
Q 14.890625 38.140625 10.796875 36.28125 
z
" id="DejaVuSans-35"/>
    </defs>
    <g transform="translate(369.479935 140.220601)scale(0.17 -0.17)">
     <use xlink:href="#DejaVuSans-35"/>
     <use x="63.623047" xlink:href="#DejaVuSans-2d"/>
     <use x="99.707031" xlink:href="#DejaVuSans-44"/>
    </g>
   </g>
   <g id="text_18">
    <!-- 3-D -->
    <defs>
     <path d="M 40.578125 39.3125 
Q 47.65625 37.796875 51.625 33 
Q 55.609375 28.21875 55.609375 21.1875 
Q 55.609375 10.40625 48.1875 4.484375 
Q 40.765625 -1.421875 27.09375 -1.421875 
Q 22.515625 -1.421875 17.65625 -0.515625 
Q 12.796875 0.390625 7.625 2.203125 
L 7.625 11.71875 
Q 11.71875 9.328125 16.59375 8.109375 
Q 21.484375 6.890625 26.8125 6.890625 
Q 36.078125 6.890625 40.9375 10.546875 
Q 45.796875 14.203125 45.796875 21.1875 
Q 45.796875 27.640625 41.28125 31.265625 
Q 36.765625 34.90625 28.71875 34.90625 
L 20.21875 34.90625 
L 20.21875 43.015625 
L 29.109375 43.015625 
Q 36.375 43.015625 40.234375 45.921875 
Q 44.09375 48.828125 44.09375 54.296875 
Q 44.09375 59.90625 40.109375 62.90625 
Q 36.140625 65.921875 28.71875 65.921875 
Q 24.65625 65.921875 20.015625 65.03125 
Q 15.375 64.15625 9.8125 62.3125 
L 9.8125 71.09375 
Q 15.4375 72.65625 20.34375 73.4375 
Q 25.25 74.21875 29.59375 74.21875 
Q 40.828125 74.21875 47.359375 69.109375 
Q 53.90625 64.015625 53.90625 55.328125 
Q 53.90625 49.265625 50.4375 45.09375 
Q 46.96875 40.921875 40.578125 39.3125 
z
" id="DejaVuSans-33"/>
    </defs>
    <g transform="translate(369.479935 88.886264)scale(0.17 -0.17)">
     <use xlink:href="#DejaVuSans-33"/>
     <use x="63.623047" xlink:href="#DejaVuSans-2d"/>
     <use x="99.707031" xlink:href="#DejaVuSans-44"/>
    </g>
   </g>
   <g id="text_19">
    <!-- 2-D -->
    <g transform="translate(369.479935 37.551928)scale(0.17 -0.17)">
     <use xlink:href="#DejaVuSans-32"/>
     <use x="63.623047" xlink:href="#DejaVuSans-2d"/>
     <use x="99.707031" xlink:href="#DejaVuSans-44"/>
    </g>
   </g>
   <g id="text_20">
    <!-- bbob f22 -->
    <defs>
     <path d="M 48.6875 27.296875 
Q 48.6875 37.203125 44.609375 42.84375 
Q 40.53125 48.484375 33.40625 48.484375 
Q 26.265625 48.484375 22.1875 42.84375 
Q 18.109375 37.203125 18.109375 27.296875 
Q 18.109375 17.390625 22.1875 11.75 
Q 26.265625 6.109375 33.40625 6.109375 
Q 40.53125 6.109375 44.609375 11.75 
Q 48.6875 17.390625 48.6875 27.296875 
z
M 18.109375 46.390625 
Q 20.953125 51.265625 25.265625 53.625 
Q 29.59375 56 35.59375 56 
Q 45.5625 56 51.78125 48.09375 
Q 58.015625 40.1875 58.015625 27.296875 
Q 58.015625 14.40625 51.78125 6.484375 
Q 45.5625 -1.421875 35.59375 -1.421875 
Q 29.59375 -1.421875 25.265625 0.953125 
Q 20.953125 3.328125 18.109375 8.203125 
L 18.109375 0 
L 9.078125 0 
L 9.078125 75.984375 
L 18.109375 75.984375 
z
" id="DejaVuSans-62"/>
    </defs>
    <g transform="translate(59.55864 35.290806)scale(0.102 -0.102)">
     <use xlink:href="#DejaVuSans-62"/>
     <use x="63.476562" xlink:href="#DejaVuSans-62"/>
     <use x="126.953125" xlink:href="#DejaVuSans-6f"/>
     <use x="188.134766" xlink:href="#DejaVuSans-62"/>
     <use x="251.611328" xlink:href="#DejaVuSans-20"/>
     <use x="283.398438" xlink:href="#DejaVuSans-66"/>
     <use x="318.603516" xlink:href="#DejaVuSans-32"/>
     <use x="382.226562" xlink:href="#DejaVuSans-32"/>
    </g>
    <!-- 51 targets: 100..1e-08 -->
    <defs>
     <path d="M 11.71875 12.40625 
L 22.015625 12.40625 
L 22.015625 0 
L 11.71875 0 
z
M 11.71875 51.703125 
L 22.015625 51.703125 
L 22.015625 39.3125 
L 11.71875 39.3125 
z
" id="DejaVuSans-3a"/>
    </defs>
    <g transform="translate(59.55864 46.712575)scale(0.102 -0.102)">
     <use xlink:href="#DejaVuSans-35"/>
     <use x="63.623047" xlink:href="#DejaVuSans-31"/>
     <use x="127.246094" xlink:href="#DejaVuSans-20"/>
     <use x="159.033203" xlink:href="#DejaVuSans-74"/>
     <use x="198.242188" xlink:href="#DejaVuSans-61"/>
     <use x="259.521484" xlink:href="#DejaVuSans-72"/>
     <use x="300.619141" xlink:href="#DejaVuSans-67"/>
     <use x="364.095703" xlink:href="#DejaVuSans-65"/>
     <use x="425.619141" xlink:href="#DejaVuSans-74"/>
     <use x="464.828125" xlink:href="#DejaVuSans-73"/>
     <use x="516.927734" xlink:href="#DejaVuSans-3a"/>
     <use x="550.619141" xlink:href="#DejaVuSans-20"/>
     <use x="582.40625" xlink:href="#DejaVuSans-31"/>
     <use x="646.029297" xlink:href="#DejaVuSans-30"/>
     <use x="709.652344" xlink:href="#DejaVuSans-30"/>
     <use x="773.275391" xlink:href="#DejaVuSans-2e"/>
     <use x="805.0625" xlink:href="#DejaVuSans-2e"/>
     <use x="836.849609" xlink:href="#DejaVuSans-31"/>
     <use x="900.472656" xlink:href="#DejaVuSans-65"/>
     <use x="961.996094" xlink:href="#DejaVuSans-2d"/>
     <use x="998.080078" xlink:href="#DejaVuSans-30"/>
     <use x="1061.703125" xlink:href="#DejaVuSans-38"/>
    </g>
    <!-- 15 instances -->
    <g transform="translate(59.55864 58.134344)scale(0.102 -0.102)">
     <use xlink:href="#DejaVuSans-31"/>
     <use x="63.623047" xlink:href="#DejaVuSans-35"/>
     <use x="127.246094" xlink:href="#DejaVuSans-20"/>
     <use x="159.033203" xlink:href="#DejaVuSans-69"/>
     <use x="186.816406" xlink:href="#DejaVuSans-6e"/>
     <use x="250.195312" xlink:href="#DejaVuSans-73"/>
     <use x="302.294922" xlink:href="#DejaVuSans-74"/>
     <use x="341.503906" xlink:href="#DejaVuSans-61"/>
     <use x="402.783203" xlink:href="#DejaVuSans-6e"/>
     <use x="466.162109" xlink:href="#DejaVuSans-63"/>
     <use x="521.142578" xlink:href="#DejaVuSans-65"/>
     <use x="582.666016" xlink:href="#DejaVuSans-73"/>
    </g>
   </g>
   <g id="text_21">
    <!-- v2.2.1.10 -->
    <g style="fill:#808080;" transform="translate(204.419188 290.099912)scale(0.1 -0.1)">
     <use xlink:href="#DejaVuSans-76"/>
     <use x="59.179688" xlink:href="#DejaVuSans-32"/>
     <use x="122.802734" xlink:href="#DejaVuSans-2e"/>
     <use x="154.589844" xlink:href="#DejaVuSans-32"/>
     <use x="218.212891" xlink:href="#DejaVuSans-2e"/>
     <use x="250" xlink:href="#DejaVuSans-31"/>
     <use x="313.623047" xlink:href="#DejaVuSans-2e"/>
     <use x="345.410156" xlink:href="#DejaVuSans-31"/>
     <use x="409.033203" xlink:href="#DejaVuSans-30"/>
    </g>
   </g>
   <g id="text_22">
    <!-- 22 Gallagher 21 peaks -->
    <defs>
     <path d="M 59.515625 10.40625 
L 59.515625 29.984375 
L 43.40625 29.984375 
L 43.40625 38.09375 
L 69.28125 38.09375 
L 69.28125 6.78125 
Q 63.578125 2.734375 56.6875 0.65625 
Q 49.8125 -1.421875 42 -1.421875 
Q 24.90625 -1.421875 15.25 8.5625 
Q 5.609375 18.5625 5.609375 36.375 
Q 5.609375 54.25 15.25 64.234375 
Q 24.90625 74.21875 42 74.21875 
Q 49.125 74.21875 55.546875 72.453125 
Q 61.96875 70.703125 67.390625 67.28125 
L 67.390625 56.78125 
Q 61.921875 61.421875 55.765625 63.765625 
Q 49.609375 66.109375 42.828125 66.109375 
Q 29.4375 66.109375 22.71875 58.640625 
Q 16.015625 51.171875 16.015625 36.375 
Q 16.015625 21.625 22.71875 14.15625 
Q 29.4375 6.6875 42.828125 6.6875 
Q 48.046875 6.6875 52.140625 7.59375 
Q 56.25 8.5 59.515625 10.40625 
z
" id="DejaVuSans-47"/>
     <path d="M 54.890625 33.015625 
L 54.890625 0 
L 45.90625 0 
L 45.90625 32.71875 
Q 45.90625 40.484375 42.875 44.328125 
Q 39.84375 48.1875 33.796875 48.1875 
Q 26.515625 48.1875 22.3125 43.546875 
Q 18.109375 38.921875 18.109375 30.90625 
L 18.109375 0 
L 9.078125 0 
L 9.078125 75.984375 
L 18.109375 75.984375 
L 18.109375 46.1875 
Q 21.34375 51.125 25.703125 53.5625 
Q 30.078125 56 35.796875 56 
Q 45.21875 56 50.046875 50.171875 
Q 54.890625 44.34375 54.890625 33.015625 
z
" id="DejaVuSans-68"/>
     <path d="M 9.078125 75.984375 
L 18.109375 75.984375 
L 18.109375 31.109375 
L 44.921875 54.6875 
L 56.390625 54.6875 
L 27.390625 29.109375 
L 57.625 0 
L 45.90625 0 
L 18.109375 26.703125 
L 18.109375 0 
L 9.078125 0 
z
" id="DejaVuSans-6b"/>
    </defs>
    <g transform="translate(114.927 18.84)scale(0.2 -0.2)">
     <use xlink:href="#DejaVuSans-32"/>
     <use x="63.623047" xlink:href="#DejaVuSans-32"/>
     <use x="127.246094" xlink:href="#DejaVuSans-20"/>
     <use x="159.033203" xlink:href="#DejaVuSans-47"/>
     <use x="236.523438" xlink:href="#DejaVuSans-61"/>
     <use x="297.802734" xlink:href="#DejaVuSans-6c"/>
     <use x="325.585938" xlink:href="#DejaVuSans-6c"/>
     <use x="353.369141" xlink:href="#DejaVuSans-61"/>
     <use x="414.648438" xlink:href="#DejaVuSans-67"/>
     <use x="478.125" xlink:href="#DejaVuSans-68"/>
     <use x="541.503906" xlink:href="#DejaVuSans-65"/>
     <use x="603.027344" xlink:href="#DejaVuSans-72"/>
     <use x="644.140625" xlink:href="#DejaVuSans-20"/>
     <use x="675.927734" xlink:href="#DejaVuSans-32"/>
     <use x="739.550781" xlink:href="#DejaVuSans-31"/>
     <use x="803.173828" xlink:href="#DejaVuSans-20"/>
     <use x="834.960938" xlink:href="#DejaVuSans-70"/>
     <use x="898.4375" xlink:href="#DejaVuSans-65"/>
     <use x="959.960938" xlink:href="#DejaVuSans-61"/>
     <use x="1021.240234" xlink:href="#DejaVuSans-6b"/>
     <use x="1079.150391" xlink:href="#DejaVuSans-73"/>
    </g>
   </g>
  </g>
 </g>
 <defs>
  <clipPath id="p555a41d470">
   <rect height="270.04" width="343.864" x="56.12" y="24.84"/>
  </clipPath>
 </defs>
</svg>
