<?xml version="1.0" encoding="utf-8" standalone="no"?>
<!DOCTYPE svg PUBLIC "-//W3C//DTD SVG 1.1//EN"
  "http://www.w3.org/Graphics/SVG/1.1/DTD/svg11.dtd">
<!-- Created with matplotlib (http://matplotlib.org/) -->
<svg height="345.6pt" version="1.1" viewBox="0 0 460.8 345.6" width="460.8pt" xmlns="http://www.w3.org/2000/svg" xmlns:xlink="http://www.w3.org/1999/xlink">
 <defs>
  <style type="text/css">
*{stroke-linecap:butt;stroke-linejoin:round;}
  </style>
 </defs>
 <g id="figure_1">
  <g id="patch_1">
   <path d="M 0 345.6 
L 460.8 345.6 
L 460.8 0 
L 0 0 
z
" style="fill:#ffffff;"/>
  </g>
  <g id="axes_1">
   <g id="patch_2">
    <path d="M 56.12 294.88 
L 399.984 294.88 
L 399.984 6.845228 
L 56.12 6.845228 
z
" style="fill:#ffffff;"/>
   </g>
   <g id="matplotlib.axis_1">
    <g id="xtick_1">
     <g id="line2d_1">
      <path clip-path="url(#pc403cee50a)" d="M 56.12 294.88 
L 56.12 6.845228 
" style="fill:none;stroke:#b0b0b0;stroke-linecap:square;stroke-width:0.8;"/>
     </g>
     <g id="line2d_2">
      <defs>
       <path d="M 0 0 
L 0 3.5 
" id="m5e4d7bb1eb" style="stroke:#000000;stroke-width:0.8;"/>
      </defs>
      <g>
       <use style="stroke:#000000;stroke-width:0.8;" x="56.12" xlink:href="#m5e4d7bb1eb" y="294.88"/>
      </g>
     </g>
     <g id="text_1">
      <!-- 0 -->
      <defs>
       <path d="M 31.78125 66.40625 
Q 24.171875 66.40625 20.328125 58.90625 
Q 16.5 51.421875 16.5 36.375 
Q 16.5 21.390625 20.328125 13.890625 
Q 24.171875 6.390625 31.78125 6.390625 
Q 39.453125 6.390625 43.28125 13.890625 
Q 47.125 21.390625 47.125 36.375 
Q 47.125 51.421875 43.28125 58.90625 
Q 39.453125 66.40625 31.78125 66.40625 
z
M 31.78125 74.21875 
Q 44.046875 74.21875 50.515625 64.515625 
Q 56.984375 54.828125 56.984375 36.375 
Q 56.984375 17.96875 50.515625 8.265625 
Q 44.046875 -1.421875 31.78125 -1.421875 
Q 19.53125 -1.421875 13.0625 8.265625 
Q 6.59375 17.96875 6.59375 36.375 
Q 6.59375 54.828125 13.0625 64.515625 
Q 19.53125 74.21875 31.78125 74.21875 
z
" id="DejaVuSans-30"/>
      </defs>
      <g transform="translate(49.7575 317.076875)scale(0.2 -0.2)">
       <use xlink:href="#DejaVuSans-30"/>
      </g>
     </g>
    </g>
    <g id="xtick_2">
     <g id="line2d_3">
      <path clip-path="url(#pc403cee50a)" d="M 135.351336 294.88 
L 135.351336 6.845228 
" style="fill:none;stroke:#b0b0b0;stroke-linecap:square;stroke-width:0.8;"/>
     </g>
     <g id="line2d_4">
      <g>
       <use style="stroke:#000000;stroke-width:0.8;" x="135.351336" xlink:href="#m5e4d7bb1eb" y="294.88"/>
      </g>
     </g>
     <g id="text_2">
      <!-- 2 -->
      <defs>
       <path d="M 19.1875 8.296875 
L 53.609375 8.296875 
L 53.609375 0 
L 7.328125 0 
L 7.328125 8.296875 
Q 12.9375 14.109375 22.625 23.890625 
Q 32.328125 33.6875 34.8125 36.53125 
Q 39.546875 41.84375 41.421875 45.53125 
Q 43.3125 49.21875 43.3125 52.78125 
Q 43.3125 58.59375 39.234375 62.25 
Q 35.15625 65.921875 28.609375 65.921875 
Q 23.96875 65.921875 18.8125 64.3125 
Q 13.671875 62.703125 7.8125 59.421875 
L 7.8125 69.390625 
Q 13.765625 71.78125 18.9375 73 
Q 24.125 74.21875 28.421875 74.21875 
Q 39.75 74.21875 46.484375 68.546875 
Q 53.21875 62.890625 53.21875 53.421875 
Q 53.21875 48.921875 51.53125 44.890625 
Q 49.859375 40.875 45.40625 35.40625 
Q 44.1875 33.984375 37.640625 27.21875 
Q 31.109375 20.453125 19.1875 8.296875 
z
" id="DejaVuSans-32"/>
      </defs>
      <g transform="translate(128.988836 317.076875)scale(0.2 -0.2)">
       <use xlink:href="#DejaVuSans-32"/>
      </g>
     </g>
    </g>
    <g id="xtick_3">
     <g id="line2d_5">
      <path clip-path="url(#pc403cee50a)" d="M 214.582673 294.88 
L 214.582673 6.845228 
" style="fill:none;stroke:#b0b0b0;stroke-linecap:square;stroke-width:0.8;"/>
     </g>
     <g id="line2d_6">
      <g>
       <use style="stroke:#000000;stroke-width:0.8;" x="214.582673" xlink:href="#m5e4d7bb1eb" y="294.88"/>
      </g>
     </g>
     <g id="text_3">
      <!-- 4 -->
      <defs>
       <path d="M 37.796875 64.3125 
L 12.890625 25.390625 
L 37.796875 25.390625 
z
M 35.203125 72.90625 
L 47.609375 72.90625 
L 47.609375 25.390625 
L 58.015625 25.390625 
L 58.015625 17.1875 
L 47.609375 17.1875 
L 47.609375 0 
L 37.796875 0 
L 37.796875 17.1875 
L 4.890625 17.1875 
L 4.890625 26.703125 
z
" id="DejaVuSans-34"/>
      </defs>
      <g transform="translate(208.220173 317.076875)scale(0.2 -0.2)">
       <use xlink:href="#DejaVuSans-34"/>
      </g>
     </g>
    </g>
    <g id="xtick_4">
     <g id="line2d_7">
      <path clip-path="url(#pc403cee50a)" d="M 293.814009 294.88 
L 293.814009 6.845228 
" style="fill:none;stroke:#b0b0b0;stroke-linecap:square;stroke-width:0.8;"/>
     </g>
     <g id="line2d_8">
      <g>
       <use style="stroke:#000000;stroke-width:0.8;" x="293.814009" xlink:href="#m5e4d7bb1eb" y="294.88"/>
      </g>
     </g>
     <g id="text_4">
      <!-- 6 -->
      <defs>
       <path d="M 33.015625 40.375 
Q 26.375 40.375 22.484375 35.828125 
Q 18.609375 31.296875 18.609375 23.390625 
Q 18.609375 15.53125 22.484375 10.953125 
Q 26.375 6.390625 33.015625 6.390625 
Q 39.65625 6.390625 43.53125 10.953125 
Q 47.40625 15.53125 47.40625 23.390625 
Q 47.40625 31.296875 43.53125 35.828125 
Q 39.65625 40.375 33.015625 40.375 
z
M 52.59375 71.296875 
L 52.59375 62.3125 
Q 48.875 64.0625 45.09375 64.984375 
Q 41.3125 65.921875 37.59375 65.921875 
Q 27.828125 65.921875 22.671875 59.328125 
Q 17.53125 52.734375 16.796875 39.40625 
Q 19.671875 43.65625 24.015625 45.921875 
Q 28.375 48.1875 33.59375 48.1875 
Q 44.578125 48.1875 50.953125 41.515625 
Q 57.328125 34.859375 57.328125 23.390625 
Q 57.328125 12.15625 50.6875 5.359375 
Q 44.046875 -1.421875 33.015625 -1.421875 
Q 20.359375 -1.421875 13.671875 8.265625 
Q 6.984375 17.96875 6.984375 36.375 
Q 6.984375 53.65625 15.1875 63.9375 
Q 23.390625 74.21875 37.203125 74.21875 
Q 40.921875 74.21875 44.703125 73.484375 
Q 48.484375 72.75 52.59375 71.296875 
z
" id="DejaVuSans-36"/>
      </defs>
      <g transform="translate(287.451509 317.076875)scale(0.2 -0.2)">
       <use xlink:href="#DejaVuSans-36"/>
      </g>
     </g>
    </g>
    <g id="xtick_5">
     <g id="line2d_9">
      <path clip-path="url(#pc403cee50a)" d="M 373.045346 294.88 
L 373.045346 6.845228 
" style="fill:none;stroke:#b0b0b0;stroke-linecap:square;stroke-width:0.8;"/>
     </g>
     <g id="line2d_10">
      <g>
       <use style="stroke:#000000;stroke-width:0.8;" x="373.045346" xlink:href="#m5e4d7bb1eb" y="294.88"/>
      </g>
     </g>
     <g id="text_5">
      <!-- 8 -->
      <defs>
       <path d="M 31.78125 34.625 
Q 24.75 34.625 20.71875 30.859375 
Q 16.703125 27.09375 16.703125 20.515625 
Q 16.703125 13.921875 20.71875 10.15625 
Q 24.75 6.390625 31.78125 6.390625 
Q 38.8125 6.390625 42.859375 10.171875 
Q 46.921875 13.96875 46.921875 20.515625 
Q 46.921875 27.09375 42.890625 30.859375 
Q 38.875 34.625 31.78125 34.625 
z
M 21.921875 38.8125 
Q 15.578125 40.375 12.03125 44.71875 
Q 8.5 49.078125 8.5 55.328125 
Q 8.5 64.0625 14.71875 69.140625 
Q 20.953125 74.21875 31.78125 74.21875 
Q 42.671875 74.21875 48.875 69.140625 
Q 55.078125 64.0625 55.078125 55.328125 
Q 55.078125 49.078125 51.53125 44.71875 
Q 48 40.375 41.703125 38.8125 
Q 48.828125 37.15625 52.796875 32.3125 
Q 56.78125 27.484375 56.78125 20.515625 
Q 56.78125 9.90625 50.3125 4.234375 
Q 43.84375 -1.421875 31.78125 -1.421875 
Q 19.734375 -1.421875 13.25 4.234375 
Q 6.78125 9.90625 6.78125 20.515625 
Q 6.78125 27.484375 10.78125 32.3125 
Q 14.796875 37.15625 21.921875 38.8125 
z
M 18.3125 54.390625 
Q 18.3125 48.734375 21.84375 45.5625 
Q 25.390625 42.390625 31.78125 42.390625 
Q 38.140625 42.390625 41.71875 45.5625 
Q 45.3125 48.734375 45.3125 54.390625 
Q 45.3125 60.0625 41.71875 63.234375 
Q 38.140625 66.40625 31.78125 66.40625 
Q 25.390625 66.40625 21.84375 63.234375 
Q 18.3125 60.0625 18.3125 54.390625 
z
" id="DejaVuSans-38"/>
      </defs>
      <g transform="translate(366.682846 317.076875)scale(0.2 -0.2)">
       <use xlink:href="#DejaVuSans-38"/>
      </g>
     </g>
    </g>
    <g id="text_6">
     <!-- log10(# f-evals / dimension) -->
     <defs>
      <path d="M 9.421875 75.984375 
L 18.40625 75.984375 
L 18.40625 0 
L 9.421875 0 
z
" id="DejaVuSans-6c"/>
      <path d="M 30.609375 48.390625 
Q 23.390625 48.390625 19.1875 42.75 
Q 14.984375 37.109375 14.984375 27.296875 
Q 14.984375 17.484375 19.15625 11.84375 
Q 23.34375 6.203125 30.609375 6.203125 
Q 37.796875 6.203125 41.984375 11.859375 
Q 46.1875 17.53125 46.1875 27.296875 
Q 46.1875 37.015625 41.984375 42.703125 
Q 37.796875 48.390625 30.609375 48.390625 
z
M 30.609375 56 
Q 42.328125 56 49.015625 48.375 
Q 55.71875 40.765625 55.71875 27.296875 
Q 55.71875 13.875 49.015625 6.21875 
Q 42.328125 -1.421875 30.609375 -1.421875 
Q 18.84375 -1.421875 12.171875 6.21875 
Q 5.515625 13.875 5.515625 27.296875 
Q 5.515625 40.765625 12.171875 48.375 
Q 18.84375 56 30.609375 56 
z
" id="DejaVuSans-6f"/>
      <path d="M 45.40625 27.984375 
Q 45.40625 37.75 41.375 43.109375 
Q 37.359375 48.484375 30.078125 48.484375 
Q 22.859375 48.484375 18.828125 43.109375 
Q 14.796875 37.75 14.796875 27.984375 
Q 14.796875 18.265625 18.828125 12.890625 
Q 22.859375 7.515625 30.078125 7.515625 
Q 37.359375 7.515625 41.375 12.890625 
Q 45.40625 18.265625 45.40625 27.984375 
z
M 54.390625 6.78125 
Q 54.390625 -7.171875 48.1875 -13.984375 
Q 42 -20.796875 29.203125 -20.796875 
Q 24.46875 -20.796875 20.265625 -20.09375 
Q 16.0625 -19.390625 12.109375 -17.921875 
L 12.109375 -9.1875 
Q 16.0625 -11.328125 19.921875 -12.34375 
Q 23.78125 -13.375 27.78125 -13.375 
Q 36.625 -13.375 41.015625 -8.765625 
Q 45.40625 -4.15625 45.40625 5.171875 
L 45.40625 9.625 
Q 42.625 4.78125 38.28125 2.390625 
Q 33.9375 0 27.875 0 
Q 17.828125 0 11.671875 7.65625 
Q 5.515625 15.328125 5.515625 27.984375 
Q 5.515625 40.671875 11.671875 48.328125 
Q 17.828125 56 27.875 56 
Q 33.9375 56 38.28125 53.609375 
Q 42.625 51.21875 45.40625 46.390625 
L 45.40625 54.6875 
L 54.390625 54.6875 
z
" id="DejaVuSans-67"/>
      <path d="M 12.40625 8.296875 
L 28.515625 8.296875 
L 28.515625 63.921875 
L 10.984375 60.40625 
L 10.984375 69.390625 
L 28.421875 72.90625 
L 38.28125 72.90625 
L 38.28125 8.296875 
L 54.390625 8.296875 
L 54.390625 0 
L 12.40625 0 
z
" id="DejaVuSans-31"/>
      <path d="M 31 75.875 
Q 24.46875 64.65625 21.28125 53.65625 
Q 18.109375 42.671875 18.109375 31.390625 
Q 18.109375 20.125 21.3125 9.0625 
Q 24.515625 -2 31 -13.1875 
L 23.1875 -13.1875 
Q 15.875 -1.703125 12.234375 9.375 
Q 8.59375 20.453125 8.59375 31.390625 
Q 8.59375 42.28125 12.203125 53.3125 
Q 15.828125 64.359375 23.1875 75.875 
z
" id="DejaVuSans-28"/>
      <path d="M 51.125 44 
L 36.921875 44 
L 32.8125 27.6875 
L 47.125 27.6875 
z
M 43.796875 71.78125 
L 38.71875 51.515625 
L 52.984375 51.515625 
L 58.109375 71.78125 
L 65.921875 71.78125 
L 60.890625 51.515625 
L 76.125 51.515625 
L 76.125 44 
L 58.984375 44 
L 54.984375 27.6875 
L 70.515625 27.6875 
L 70.515625 20.21875 
L 53.078125 20.21875 
L 48 0 
L 40.1875 0 
L 45.21875 20.21875 
L 30.90625 20.21875 
L 25.875 0 
L 18.015625 0 
L 23.09375 20.21875 
L 7.71875 20.21875 
L 7.71875 27.6875 
L 24.90625 27.6875 
L 29 44 
L 13.28125 44 
L 13.28125 51.515625 
L 30.90625 51.515625 
L 35.890625 71.78125 
z
" id="DejaVuSans-23"/>
      <path id="DejaVuSans-20"/>
      <path d="M 37.109375 75.984375 
L 37.109375 68.5 
L 28.515625 68.5 
Q 23.6875 68.5 21.796875 66.546875 
Q 19.921875 64.59375 19.921875 59.515625 
L 19.921875 54.6875 
L 34.71875 54.6875 
L 34.71875 47.703125 
L 19.921875 47.703125 
L 19.921875 0 
L 10.890625 0 
L 10.890625 47.703125 
L 2.296875 47.703125 
L 2.296875 54.6875 
L 10.890625 54.6875 
L 10.890625 58.5 
Q 10.890625 67.625 15.140625 71.796875 
Q 19.390625 75.984375 28.609375 75.984375 
z
" id="DejaVuSans-66"/>
      <path d="M 4.890625 31.390625 
L 31.203125 31.390625 
L 31.203125 23.390625 
L 4.890625 23.390625 
z
" id="DejaVuSans-2d"/>
      <path d="M 56.203125 29.59375 
L 56.203125 25.203125 
L 14.890625 25.203125 
Q 15.484375 15.921875 20.484375 11.0625 
Q 25.484375 6.203125 34.421875 6.203125 
Q 39.59375 6.203125 44.453125 7.46875 
Q 49.3125 8.734375 54.109375 11.28125 
L 54.109375 2.78125 
Q 49.265625 0.734375 44.1875 -0.34375 
Q 39.109375 -1.421875 33.890625 -1.421875 
Q 20.796875 -1.421875 13.15625 6.1875 
Q 5.515625 13.8125 5.515625 26.8125 
Q 5.515625 40.234375 12.765625 48.109375 
Q 20.015625 56 32.328125 56 
Q 43.359375 56 49.78125 48.890625 
Q 56.203125 41.796875 56.203125 29.59375 
z
M 47.21875 32.234375 
Q 47.125 39.59375 43.09375 43.984375 
Q 39.0625 48.390625 32.421875 48.390625 
Q 24.90625 48.390625 20.390625 44.140625 
Q 15.875 39.890625 15.1875 32.171875 
z
" id="DejaVuSans-65"/>
      <path d="M 2.984375 54.6875 
L 12.5 54.6875 
L 29.59375 8.796875 
L 46.6875 54.6875 
L 56.203125 54.6875 
L 35.6875 0 
L 23.484375 0 
z
" id="DejaVuSans-76"/>
      <path d="M 34.28125 27.484375 
Q 23.390625 27.484375 19.1875 25 
Q 14.984375 22.515625 14.984375 16.5 
Q 14.984375 11.71875 18.140625 8.90625 
Q 21.296875 6.109375 26.703125 6.109375 
Q 34.1875 6.109375 38.703125 11.40625 
Q 43.21875 16.703125 43.21875 25.484375 
L 43.21875 27.484375 
z
M 52.203125 31.203125 
L 52.203125 0 
L 43.21875 0 
L 43.21875 8.296875 
Q 40.140625 3.328125 35.546875 0.953125 
Q 30.953125 -1.421875 24.3125 -1.421875 
Q 15.921875 -1.421875 10.953125 3.296875 
Q 6 8.015625 6 15.921875 
Q 6 25.140625 12.171875 29.828125 
Q 18.359375 34.515625 30.609375 34.515625 
L 43.21875 34.515625 
L 43.21875 35.40625 
Q 43.21875 41.609375 39.140625 45 
Q 35.0625 48.390625 27.6875 48.390625 
Q 23 48.390625 18.546875 47.265625 
Q 14.109375 46.140625 10.015625 43.890625 
L 10.015625 52.203125 
Q 14.9375 54.109375 19.578125 55.046875 
Q 24.21875 56 28.609375 56 
Q 40.484375 56 46.34375 49.84375 
Q 52.203125 43.703125 52.203125 31.203125 
z
" id="DejaVuSans-61"/>
      <path d="M 44.28125 53.078125 
L 44.28125 44.578125 
Q 40.484375 46.53125 36.375 47.5 
Q 32.28125 48.484375 27.875 48.484375 
Q 21.1875 48.484375 17.84375 46.4375 
Q 14.5 44.390625 14.5 40.28125 
Q 14.5 37.15625 16.890625 35.375 
Q 19.28125 33.59375 26.515625 31.984375 
L 29.59375 31.296875 
Q 39.15625 29.25 43.1875 25.515625 
Q 47.21875 21.78125 47.21875 15.09375 
Q 47.21875 7.46875 41.1875 3.015625 
Q 35.15625 -1.421875 24.609375 -1.421875 
Q 20.21875 -1.421875 15.453125 -0.5625 
Q 10.6875 0.296875 5.421875 2 
L 5.421875 11.28125 
Q 10.40625 8.6875 15.234375 7.390625 
Q 20.0625 6.109375 24.8125 6.109375 
Q 31.15625 6.109375 34.5625 8.28125 
Q 37.984375 10.453125 37.984375 14.40625 
Q 37.984375 18.0625 35.515625 20.015625 
Q 33.0625 21.96875 24.703125 23.78125 
L 21.578125 24.515625 
Q 13.234375 26.265625 9.515625 29.90625 
Q 5.8125 33.546875 5.8125 39.890625 
Q 5.8125 47.609375 11.28125 51.796875 
Q 16.75 56 26.8125 56 
Q 31.78125 56 36.171875 55.265625 
Q 40.578125 54.546875 44.28125 53.078125 
z
" id="DejaVuSans-73"/>
      <path d="M 25.390625 72.90625 
L 33.6875 72.90625 
L 8.296875 -9.28125 
L 0 -9.28125 
z
" id="DejaVuSans-2f"/>
      <path d="M 45.40625 46.390625 
L 45.40625 75.984375 
L 54.390625 75.984375 
L 54.390625 0 
L 45.40625 0 
L 45.40625 8.203125 
Q 42.578125 3.328125 38.25 0.953125 
Q 33.9375 -1.421875 27.875 -1.421875 
Q 17.96875 -1.421875 11.734375 6.484375 
Q 5.515625 14.40625 5.515625 27.296875 
Q 5.515625 40.1875 11.734375 48.09375 
Q 17.96875 56 27.875 56 
Q 33.9375 56 38.25 53.625 
Q 42.578125 51.265625 45.40625 46.390625 
z
M 14.796875 27.296875 
Q 14.796875 17.390625 18.875 11.75 
Q 22.953125 6.109375 30.078125 6.109375 
Q 37.203125 6.109375 41.296875 11.75 
Q 45.40625 17.390625 45.40625 27.296875 
Q 45.40625 37.203125 41.296875 42.84375 
Q 37.203125 48.484375 30.078125 48.484375 
Q 22.953125 48.484375 18.875 42.84375 
Q 14.796875 37.203125 14.796875 27.296875 
z
" id="DejaVuSans-64"/>
      <path d="M 9.421875 54.6875 
L 18.40625 54.6875 
L 18.40625 0 
L 9.421875 0 
z
M 9.421875 75.984375 
L 18.40625 75.984375 
L 18.40625 64.59375 
L 9.421875 64.59375 
z
" id="DejaVuSans-69"/>
      <path d="M 52 44.1875 
Q 55.375 50.25 60.0625 53.125 
Q 64.75 56 71.09375 56 
Q 79.640625 56 84.28125 50.015625 
Q 88.921875 44.046875 88.921875 33.015625 
L 88.921875 0 
L 79.890625 0 
L 79.890625 32.71875 
Q 79.890625 40.578125 77.09375 44.375 
Q 74.3125 48.1875 68.609375 48.1875 
Q 61.625 48.1875 57.5625 43.546875 
Q 53.515625 38.921875 53.515625 30.90625 
L 53.515625 0 
L 44.484375 0 
L 44.484375 32.71875 
Q 44.484375 40.625 41.703125 44.40625 
Q 38.921875 48.1875 33.109375 48.1875 
Q 26.21875 48.1875 22.15625 43.53125 
Q 18.109375 38.875 18.109375 30.90625 
L 18.109375 0 
L 9.078125 0 
L 9.078125 54.6875 
L 18.109375 54.6875 
L 18.109375 46.1875 
Q 21.1875 51.21875 25.484375 53.609375 
Q 29.78125 56 35.6875 56 
Q 41.65625 56 45.828125 52.96875 
Q 50 49.953125 52 44.1875 
z
" id="DejaVuSans-6d"/>
      <path d="M 54.890625 33.015625 
L 54.890625 0 
L 45.90625 0 
L 45.90625 32.71875 
Q 45.90625 40.484375 42.875 44.328125 
Q 39.84375 48.1875 33.796875 48.1875 
Q 26.515625 48.1875 22.3125 43.546875 
Q 18.109375 38.921875 18.109375 30.90625 
L 18.109375 0 
L 9.078125 0 
L 9.078125 54.6875 
L 18.109375 54.6875 
L 18.109375 46.1875 
Q 21.34375 51.125 25.703125 53.5625 
Q 30.078125 56 35.796875 56 
Q 45.21875 56 50.046875 50.171875 
Q 54.890625 44.34375 54.890625 33.015625 
z
" id="DejaVuSans-6e"/>
      <path d="M 8.015625 75.875 
L 15.828125 75.875 
Q 23.140625 64.359375 26.78125 53.3125 
Q 30.421875 42.28125 30.421875 31.390625 
Q 30.421875 20.453125 26.78125 9.375 
Q 23.140625 -1.703125 15.828125 -13.1875 
L 8.015625 -13.1875 
Q 14.5 -2 17.703125 9.0625 
Q 20.90625 20.125 20.90625 31.390625 
Q 20.90625 42.671875 17.703125 53.65625 
Q 14.5 64.65625 8.015625 75.875 
z
" id="DejaVuSans-29"/>
     </defs>
     <g transform="translate(107.211219 338.153594)scale(0.17 -0.17)">
      <use xlink:href="#DejaVuSans-6c"/>
      <use x="27.783203" xlink:href="#DejaVuSans-6f"/>
      <use x="88.964844" xlink:href="#DejaVuSans-67"/>
      <use x="152.441406" xlink:href="#DejaVuSans-31"/>
      <use x="216.064453" xlink:href="#DejaVuSans-30"/>
      <use x="279.6875" xlink:href="#DejaVuSans-28"/>
      <use x="318.701172" xlink:href="#DejaVuSans-23"/>
      <use x="402.490234" xlink:href="#DejaVuSans-20"/>
      <use x="434.277344" xlink:href="#DejaVuSans-66"/>
      <use x="469.404297" xlink:href="#DejaVuSans-2d"/>
      <use x="505.488281" xlink:href="#DejaVuSans-65"/>
      <use x="567.011719" xlink:href="#DejaVuSans-76"/>
      <use x="626.191406" xlink:href="#DejaVuSans-61"/>
      <use x="687.470703" xlink:href="#DejaVuSans-6c"/>
      <use x="715.253906" xlink:href="#DejaVuSans-73"/>
      <use x="767.353516" xlink:href="#DejaVuSans-20"/>
      <use x="799.140625" xlink:href="#DejaVuSans-2f"/>
      <use x="832.832031" xlink:href="#DejaVuSans-20"/>
      <use x="864.619141" xlink:href="#DejaVuSans-64"/>
      <use x="928.095703" xlink:href="#DejaVuSans-69"/>
      <use x="955.878906" xlink:href="#DejaVuSans-6d"/>
      <use x="1053.291016" xlink:href="#DejaVuSans-65"/>
      <use x="1114.814453" xlink:href="#DejaVuSans-6e"/>
      <use x="1178.193359" xlink:href="#DejaVuSans-73"/>
      <use x="1230.292969" xlink:href="#DejaVuSans-69"/>
      <use x="1258.076172" xlink:href="#DejaVuSans-6f"/>
      <use x="1319.257812" xlink:href="#DejaVuSans-6e"/>
      <use x="1382.636719" xlink:href="#DejaVuSans-29"/>
     </g>
    </g>
   </g>
   <g id="matplotlib.axis_2">
    <g id="ytick_1">
     <g id="line2d_11">
      <path clip-path="url(#pc403cee50a)" d="M 56.12 294.88 
L 399.984 294.88 
" style="fill:none;stroke:#b0b0b0;stroke-linecap:square;stroke-width:0.8;"/>
     </g>
     <g id="line2d_12">
      <defs>
       <path d="M 0 0 
L -3.5 0 
" id="m838c173ee9" style="stroke:#000000;stroke-width:0.8;"/>
      </defs>
      <g>
       <use style="stroke:#000000;stroke-width:0.8;" x="56.12" xlink:href="#m838c173ee9" y="294.88"/>
      </g>
     </g>
     <g id="text_7">
      <!-- 0.0 -->
      <defs>
       <path d="M 10.6875 12.40625 
L 21 12.40625 
L 21 0 
L 10.6875 0 
z
" id="DejaVuSans-2e"/>
      </defs>
      <g transform="translate(23.675 300.95875)scale(0.16 -0.16)">
       <use xlink:href="#DejaVuSans-30"/>
       <use x="63.623047" xlink:href="#DejaVuSans-2e"/>
       <use x="95.410156" xlink:href="#DejaVuSans-30"/>
      </g>
     </g>
    </g>
    <g id="ytick_2">
     <g id="line2d_13">
      <path clip-path="url(#pc403cee50a)" d="M 56.12 237.843411 
L 399.984 237.843411 
" style="fill:none;stroke:#b0b0b0;stroke-linecap:square;stroke-width:0.8;"/>
     </g>
     <g id="line2d_14">
      <g>
       <use style="stroke:#000000;stroke-width:0.8;" x="56.12" xlink:href="#m838c173ee9" y="237.843411"/>
      </g>
     </g>
     <g id="text_8">
      <!-- 0.2 -->
      <g transform="translate(23.675 243.922161)scale(0.16 -0.16)">
       <use xlink:href="#DejaVuSans-30"/>
       <use x="63.623047" xlink:href="#DejaVuSans-2e"/>
       <use x="95.410156" xlink:href="#DejaVuSans-32"/>
      </g>
     </g>
    </g>
    <g id="ytick_3">
     <g id="line2d_15">
      <path clip-path="url(#pc403cee50a)" d="M 56.12 180.806823 
L 399.984 180.806823 
" style="fill:none;stroke:#b0b0b0;stroke-linecap:square;stroke-width:0.8;"/>
     </g>
     <g id="line2d_16">
      <g>
       <use style="stroke:#000000;stroke-width:0.8;" x="56.12" xlink:href="#m838c173ee9" y="180.806823"/>
      </g>
     </g>
     <g id="text_9">
      <!-- 0.4 -->
      <g transform="translate(23.675 186.885573)scale(0.16 -0.16)">
       <use xlink:href="#DejaVuSans-30"/>
       <use x="63.623047" xlink:href="#DejaVuSans-2e"/>
       <use x="95.410156" xlink:href="#DejaVuSans-34"/>
      </g>
     </g>
    </g>
    <g id="ytick_4">
     <g id="line2d_17">
      <path clip-path="url(#pc403cee50a)" d="M 56.12 123.770234 
L 399.984 123.770234 
" style="fill:none;stroke:#b0b0b0;stroke-linecap:square;stroke-width:0.8;"/>
     </g>
     <g id="line2d_18">
      <g>
       <use style="stroke:#000000;stroke-width:0.8;" x="56.12" xlink:href="#m838c173ee9" y="123.770234"/>
      </g>
     </g>
     <g id="text_10">
      <!-- 0.6 -->
      <g transform="translate(23.675 129.848984)scale(0.16 -0.16)">
       <use xlink:href="#DejaVuSans-30"/>
       <use x="63.623047" xlink:href="#DejaVuSans-2e"/>
       <use x="95.410156" xlink:href="#DejaVuSans-36"/>
      </g>
     </g>
    </g>
    <g id="ytick_5">
     <g id="line2d_19">
      <path clip-path="url(#pc403cee50a)" d="M 56.12 66.733646 
L 399.984 66.733646 
" style="fill:none;stroke:#b0b0b0;stroke-linecap:square;stroke-width:0.8;"/>
     </g>
     <g id="line2d_20">
      <g>
       <use style="stroke:#000000;stroke-width:0.8;" x="56.12" xlink:href="#m838c173ee9" y="66.733646"/>
      </g>
     </g>
     <g id="text_11">
      <!-- 0.8 -->
      <g transform="translate(23.675 72.812396)scale(0.16 -0.16)">
       <use xlink:href="#DejaVuSans-30"/>
       <use x="63.623047" xlink:href="#DejaVuSans-2e"/>
       <use x="95.410156" xlink:href="#DejaVuSans-38"/>
      </g>
     </g>
    </g>
    <g id="ytick_6">
     <g id="line2d_21">
      <path clip-path="url(#pc403cee50a)" d="M 56.12 9.697057 
L 399.984 9.697057 
" style="fill:none;stroke:#b0b0b0;stroke-linecap:square;stroke-width:0.8;"/>
     </g>
     <g id="line2d_22">
      <g>
       <use style="stroke:#000000;stroke-width:0.8;" x="56.12" xlink:href="#m838c173ee9" y="9.697057"/>
      </g>
     </g>
     <g id="text_12">
      <!-- 1.0 -->
      <g transform="translate(23.675 15.775807)scale(0.16 -0.16)">
       <use xlink:href="#DejaVuSans-31"/>
       <use x="63.623047" xlink:href="#DejaVuSans-2e"/>
       <use x="95.410156" xlink:href="#DejaVuSans-30"/>
      </g>
     </g>
    </g>
    <g id="text_13">
     <!-- Fraction of function,target pairs -->
     <defs>
      <path d="M 9.8125 72.90625 
L 51.703125 72.90625 
L 51.703125 64.59375 
L 19.671875 64.59375 
L 19.671875 43.109375 
L 48.578125 43.109375 
L 48.578125 34.8125 
L 19.671875 34.8125 
L 19.671875 0 
L 9.8125 0 
z
" id="DejaVuSans-46"/>
      <path d="M 41.109375 46.296875 
Q 39.59375 47.171875 37.8125 47.578125 
Q 36.03125 48 33.890625 48 
Q 26.265625 48 22.1875 43.046875 
Q 18.109375 38.09375 18.109375 28.8125 
L 18.109375 0 
L 9.078125 0 
L 9.078125 54.6875 
L 18.109375 54.6875 
L 18.109375 46.1875 
Q 20.953125 51.171875 25.484375 53.578125 
Q 30.03125 56 36.53125 56 
Q 37.453125 56 38.578125 55.875 
Q 39.703125 55.765625 41.0625 55.515625 
z
" id="DejaVuSans-72"/>
      <path d="M 48.78125 52.59375 
L 48.78125 44.1875 
Q 44.96875 46.296875 41.140625 47.34375 
Q 37.3125 48.390625 33.40625 48.390625 
Q 24.65625 48.390625 19.8125 42.84375 
Q 14.984375 37.3125 14.984375 27.296875 
Q 14.984375 17.28125 19.8125 11.734375 
Q 24.65625 6.203125 33.40625 6.203125 
Q 37.3125 6.203125 41.140625 7.25 
Q 44.96875 8.296875 48.78125 10.40625 
L 48.78125 2.09375 
Q 45.015625 0.34375 40.984375 -0.53125 
Q 36.96875 -1.421875 32.421875 -1.421875 
Q 20.0625 -1.421875 12.78125 6.34375 
Q 5.515625 14.109375 5.515625 27.296875 
Q 5.515625 40.671875 12.859375 48.328125 
Q 20.21875 56 33.015625 56 
Q 37.15625 56 41.109375 55.140625 
Q 45.0625 54.296875 48.78125 52.59375 
z
" id="DejaVuSans-63"/>
      <path d="M 18.3125 70.21875 
L 18.3125 54.6875 
L 36.8125 54.6875 
L 36.8125 47.703125 
L 18.3125 47.703125 
L 18.3125 18.015625 
Q 18.3125 11.328125 20.140625 9.421875 
Q 21.96875 7.515625 27.59375 7.515625 
L 36.8125 7.515625 
L 36.8125 0 
L 27.59375 0 
Q 17.1875 0 13.234375 3.875 
Q 9.28125 7.765625 9.28125 18.015625 
L 9.28125 47.703125 
L 2.6875 47.703125 
L 2.6875 54.6875 
L 9.28125 54.6875 
L 9.28125 70.21875 
z
" id="DejaVuSans-74"/>
      <path d="M 8.5 21.578125 
L 8.5 54.6875 
L 17.484375 54.6875 
L 17.484375 21.921875 
Q 17.484375 14.15625 20.5 10.265625 
Q 23.53125 6.390625 29.59375 6.390625 
Q 36.859375 6.390625 41.078125 11.03125 
Q 45.3125 15.671875 45.3125 23.6875 
L 45.3125 54.6875 
L 54.296875 54.6875 
L 54.296875 0 
L 45.3125 0 
L 45.3125 8.40625 
Q 42.046875 3.421875 37.71875 1 
Q 33.40625 -1.421875 27.6875 -1.421875 
Q 18.265625 -1.421875 13.375 4.4375 
Q 8.5 10.296875 8.5 21.578125 
z
M 31.109375 56 
z
" id="DejaVuSans-75"/>
      <path d="M 11.71875 12.40625 
L 22.015625 12.40625 
L 22.015625 4 
L 14.015625 -11.625 
L 7.71875 -11.625 
L 11.71875 4 
z
" id="DejaVuSans-2c"/>
      <path d="M 18.109375 8.203125 
L 18.109375 -20.796875 
L 9.078125 -20.796875 
L 9.078125 54.6875 
L 18.109375 54.6875 
L 18.109375 46.390625 
Q 20.953125 51.265625 25.265625 53.625 
Q 29.59375 56 35.59375 56 
Q 45.5625 56 51.78125 48.09375 
Q 58.015625 40.1875 58.015625 27.296875 
Q 58.015625 14.40625 51.78125 6.484375 
Q 45.5625 -1.421875 35.59375 -1.421875 
Q 29.59375 -1.421875 25.265625 0.953125 
Q 20.953125 3.328125 18.109375 8.203125 
z
M 48.6875 27.296875 
Q 48.6875 37.203125 44.609375 42.84375 
Q 40.53125 48.484375 33.40625 48.484375 
Q 26.265625 48.484375 22.1875 42.84375 
Q 18.109375 37.203125 18.109375 27.296875 
Q 18.109375 17.390625 22.1875 11.75 
Q 26.265625 6.109375 33.40625 6.109375 
Q 40.53125 6.109375 44.609375 11.75 
Q 48.6875 17.390625 48.6875 27.296875 
z
" id="DejaVuSans-70"/>
     </defs>
     <g transform="translate(16.139531 286.001989)rotate(-90)scale(0.17 -0.17)">
      <use xlink:href="#DejaVuSans-46"/>
      <use x="57.410156" xlink:href="#DejaVuSans-72"/>
      <use x="98.523438" xlink:href="#DejaVuSans-61"/>
      <use x="159.802734" xlink:href="#DejaVuSans-63"/>
      <use x="214.783203" xlink:href="#DejaVuSans-74"/>
      <use x="253.992188" xlink:href="#DejaVuSans-69"/>
      <use x="281.775391" xlink:href="#DejaVuSans-6f"/>
      <use x="342.957031" xlink:href="#DejaVuSans-6e"/>
      <use x="406.335938" xlink:href="#DejaVuSans-20"/>
      <use x="438.123047" xlink:href="#DejaVuSans-6f"/>
      <use x="499.304688" xlink:href="#DejaVuSans-66"/>
      <use x="534.509766" xlink:href="#DejaVuSans-20"/>
      <use x="566.296875" xlink:href="#DejaVuSans-66"/>
      <use x="601.501953" xlink:href="#DejaVuSans-75"/>
      <use x="664.880859" xlink:href="#DejaVuSans-6e"/>
      <use x="728.259766" xlink:href="#DejaVuSans-63"/>
      <use x="783.240234" xlink:href="#DejaVuSans-74"/>
      <use x="822.449219" xlink:href="#DejaVuSans-69"/>
      <use x="850.232422" xlink:href="#DejaVuSans-6f"/>
      <use x="911.414062" xlink:href="#DejaVuSans-6e"/>
      <use x="974.792969" xlink:href="#DejaVuSans-2c"/>
      <use x="1006.580078" xlink:href="#DejaVuSans-74"/>
      <use x="1045.789062" xlink:href="#DejaVuSans-61"/>
      <use x="1107.068359" xlink:href="#DejaVuSans-72"/>
      <use x="1148.166016" xlink:href="#DejaVuSans-67"/>
      <use x="1211.642578" xlink:href="#DejaVuSans-65"/>
      <use x="1273.166016" xlink:href="#DejaVuSans-74"/>
      <use x="1312.375" xlink:href="#DejaVuSans-20"/>
      <use x="1344.162109" xlink:href="#DejaVuSans-70"/>
      <use x="1407.638672" xlink:href="#DejaVuSans-61"/>
      <use x="1468.917969" xlink:href="#DejaVuSans-69"/>
      <use x="1496.701172" xlink:href="#DejaVuSans-72"/>
      <use x="1537.814453" xlink:href="#DejaVuSans-73"/>
     </g>
    </g>
   </g>
   <g id="line2d_23">
    <defs>
     <path d="M 0 1.5 
C 0.397805 1.5 0.77937 1.341951 1.06066 1.06066 
C 1.341951 0.77937 1.5 0.397805 1.5 0 
C 1.5 -0.397805 1.341951 -0.77937 1.06066 -1.06066 
C 0.77937 -1.341951 0.397805 -1.5 0 -1.5 
C -0.397805 -1.5 -0.77937 -1.341951 -1.06066 -1.06066 
C -1.341951 -0.77937 -1.5 -0.397805 -1.5 0 
C -1.5 0.397805 -1.341951 0.77937 -1.06066 1.06066 
C -0.77937 1.341951 -0.397805 1.5 0 1.5 
z
" id="m8dbec64ab1" style="stroke:#000080;"/>
    </defs>
    <g>
     <use style="fill:#000080;stroke:#000080;" x="201.809652" xlink:href="#m8dbec64ab1" y="37.656169"/>
     <use style="fill:#000080;stroke:#000080;" x="201.809652" xlink:href="#m8dbec64ab1" y="37.656169"/>
    </g>
   </g>
   <g id="line2d_24">
    <path d="M 96.846045 294.88 
L 96.846045 294.320818 
L 104.524355 294.320818 
L 104.524355 293.761636 
L 108.225317 293.761636 
L 108.225317 293.202453 
L 110.797991 293.202453 
L 110.797991 292.643271 
L 112.610704 292.643271 
L 112.610704 289.84736 
L 113.035537 289.84736 
L 113.035537 289.288178 
L 114.250503 289.288178 
L 114.250503 288.728995 
L 114.637146 288.728995 
L 114.637146 288.169813 
L 115.01529 288.169813 
L 115.01529 287.610631 
L 116.102274 287.610631 
L 116.102274 285.373902 
L 122.482864 285.373902 
L 122.482864 283.696355 
L 127.126794 283.696355 
L 127.126794 283.137173 
L 128.375364 283.137173 
L 128.375364 282.577991 
L 128.716065 282.577991 
L 128.716065 281.459626 
L 130.629687 281.459626 
L 130.629687 278.663715 
L 131.368207 278.663715 
L 131.368207 276.986168 
L 131.937015 276.986168 
L 131.937015 276.426986 
L 132.756449 276.426986 
L 132.756449 275.867804 
L 133.15198 275.867804 
L 133.15198 275.308622 
L 133.281829 275.308622 
L 133.281829 271.953528 
L 134.04099 271.953528 
L 134.04099 270.835164 
L 134.286778 270.835164 
L 134.286778 269.716799 
L 134.648999 269.716799 
L 134.648999 269.157617 
L 135.236253 269.157617 
L 135.236253 268.598435 
L 135.465655 268.598435 
L 135.465655 264.684159 
L 135.579219 264.684159 
L 135.579219 264.124977 
L 135.692038 264.124977 
L 135.692038 263.006612 
L 136.026124 263.006612 
L 136.136059 261.888248 
L 136.781317 261.888248 
L 136.781317 260.210701 
L 137.301141 260.210701 
L 137.301141 259.651519 
L 138.003478 259.651519 
L 138.003478 258.533154 
L 139.052299 258.533154 
L 139.052299 256.855608 
L 139.23631 256.855608 
L 139.23631 256.296425 
L 140.127953 256.296425 
L 140.127953 255.178061 
L 140.557025 255.178061 
L 140.557025 254.618879 
L 141.058173 254.618879 
L 141.058173 253.500514 
L 141.783544 253.500514 
L 141.783544 252.38215 
L 141.940667 252.38215 
L 141.940667 251.822967 
L 142.327309 251.822967 
L 142.327309 251.263785 
L 142.51742 251.263785 
L 142.51742 250.704603 
L 142.780095 250.704603 
L 142.780095 246.790327 
L 142.891454 246.790327 
L 142.891454 246.231145 
L 143.075465 246.231145 
L 143.075465 245.671963 
L 143.437686 245.671963 
L 143.473492 244.553598 
L 143.72207 244.553598 
L 143.72207 243.994416 
L 144.140023 243.994416 
L 144.208705 238.961776 
L 144.446956 238.961776 
L 144.548063 237.284229 
L 144.681953 237.284229 
L 144.681953 236.725047 
L 145.207333 236.725047 
L 145.207333 236.165865 
L 145.336209 236.165865 
L 145.336209 235.606682 
L 145.464127 235.606682 
L 145.464127 233.929136 
L 146.120523 233.929136 
L 146.120523 233.369954 
L 146.333872 233.369954 
L 146.364136 231.133225 
L 146.899971 231.133225 
L 146.899971 230.574042 
L 147.103926 230.574042 
L 147.161758 227.778131 
L 147.617542 227.778131 
L 147.617542 227.218949 
L 147.729627 227.218949 
L 147.729627 225.541402 
L 148.116269 225.541402 
L 148.225161 223.304673 
L 148.30638 223.304673 
L 148.333368 221.067944 
L 148.653965 221.067944 
L 148.653965 219.94958 
L 149.098155 219.94958 
L 149.098155 219.390397 
L 149.328752 219.390397 
L 149.430256 217.153669 
L 149.531165 217.153669 
L 149.631485 215.476122 
L 149.80565 215.476122 
L 149.830387 214.357757 
L 150.027016 214.357757 
L 150.027016 213.798575 
L 150.197243 213.798575 
L 150.269684 211.002664 
L 150.31781 211.002664 
L 150.389747 209.884299 
L 150.508977 209.884299 
L 150.556439 208.765935 
L 150.650971 208.765935 
L 150.650971 207.088388 
L 150.768411 207.088388 
L 150.838492 205.410841 
L 150.954663 205.410841 
L 151.023991 203.733295 
L 151.115996 203.733295 
L 151.207511 200.378201 
L 151.343878 200.378201 
L 151.411658 198.141472 
L 151.812826 198.141472 
L 151.900718 196.463926 
L 152.075167 196.463926 
L 152.118505 195.345561 
L 152.354927 195.345561 
L 152.461328 194.227197 
L 152.503704 194.227197 
L 152.503704 193.668014 
L 152.797453 193.668014 
L 152.797453 193.108832 
L 152.942468 193.108832 
L 152.942468 192.54965 
L 153.147534 192.54965 
L 153.147534 191.990468 
L 153.28964 191.990468 
L 153.350185 190.872103 
L 153.410518 190.872103 
L 153.490634 189.753739 
L 153.570378 189.753739 
L 153.590257 188.635374 
L 153.709048 188.635374 
L 153.728767 187.51701 
L 153.885711 187.51701 
L 153.944198 186.398645 
L 154.233687 186.398645 
L 154.233687 185.839463 
L 154.40507 185.839463 
L 154.40507 185.280281 
L 154.555991 185.280281 
L 154.555991 184.721099 
L 154.686969 184.721099 
L 154.779919 181.925187 
L 154.816958 181.925187 
L 154.927601 179.688458 
L 154.964324 179.688458 
L 154.964324 178.010912 
L 155.164913 178.010912 
L 155.164913 177.451729 
L 155.541481 177.451729 
L 155.576918 176.333365 
L 155.682795 176.333365 
L 155.735489 174.655818 
L 155.805499 174.655818 
L 155.85782 173.537454 
L 155.99657 173.537454 
L 156.099903 172.419089 
L 156.134209 172.419089 
L 156.236721 169.063996 
L 156.270757 169.063996 
L 156.372461 161.794627 
L 156.389353 161.794627 
L 156.473567 160.676262 
L 156.507137 160.676262 
L 156.507137 159.557898 
L 156.740314 159.557898 
L 156.839288 157.321169 
L 156.855728 157.321169 
L 156.937696 155.643622 
L 157.084259 155.643622 
L 157.132838 152.847711 
L 157.389632 152.847711 
L 157.48495 149.492617 
L 157.516605 149.492617 
L 157.579743 147.815071 
L 157.705326 147.815071 
L 157.783353 146.696706 
L 157.83 146.696706 
L 157.922915 144.459977 
L 157.984582 144.459977 
L 157.984582 143.900795 
L 158.168265 143.900795 
L 158.168265 142.78243 
L 158.319851 142.78243 
L 158.425172 140.545702 
L 158.455146 140.545702 
L 158.455146 139.986519 
L 158.693073 139.986519 
L 158.781454 137.74979 
L 158.869384 137.74979 
L 158.971404 135.513061 
L 159.000442 135.513061 
L 159.072822 133.835515 
L 159.130509 133.835515 
L 159.159279 131.039603 
L 159.245304 131.039603 
L 159.3309 128.802874 
L 159.416073 128.802874 
L 159.416073 128.243692 
L 159.557097 128.243692 
L 159.571136 127.125328 
L 159.696975 127.125328 
L 159.724815 126.006963 
L 159.877132 126.006963 
L 159.973364 124.329417 
L 160.055423 124.329417 
L 160.164229 122.65187 
L 160.218375 122.65187 
L 160.245384 121.533505 
L 160.632326 121.533505 
L 160.632326 120.974323 
L 160.802998 120.974323 
L 160.829105 119.855959 
L 161.036551 119.855959 
L 161.139344 117.060047 
L 161.241526 117.060047 
L 161.33044 115.382501 
L 161.431497 115.382501 
L 161.469241 113.704954 
L 161.619394 113.704954 
L 161.644292 112.586589 
L 161.829891 112.586589 
L 161.915824 110.349861 
L 162.013509 110.349861 
L 162.062145 108.113132 
L 162.219268 108.113132 
L 162.243314 106.994767 
L 162.446359 106.994767 
L 162.446359 106.435585 
L 162.576475 106.435585 
L 162.658767 104.198856 
L 162.787293 104.198856 
L 162.787293 103.639674 
L 162.949495 103.639674 
L 162.949495 103.080491 
L 163.292006 103.080491 
L 163.393443 100.843762 
L 163.404677 100.843762 
L 163.427123 99.725398 
L 163.683169 99.725398 
L 163.738331 98.607033 
L 163.848126 98.607033 
L 163.848126 98.047851 
L 164.130357 98.047851 
L 164.130357 97.488669 
L 164.376222 97.488669 
L 164.376222 96.929487 
L 164.618622 96.929487 
L 164.722957 95.25194 
L 164.878284 95.25194 
L 164.878284 94.692758 
L 165.052642 94.692758 
L 165.11376 93.574393 
L 165.184792 93.574393 
L 165.28576 91.896847 
L 165.426126 91.896847 
L 165.426126 91.337664 
L 165.850229 91.337664 
L 165.937687 89.660118 
L 166.092078 89.660118 
L 166.197424 87.982571 
L 166.311616 87.982571 
L 166.340046 86.305024 
L 166.696151 86.305024 
L 166.760953 85.18666 
L 166.880655 85.18666 
L 166.972171 82.949931 
L 167.063202 82.949931 
L 167.14472 81.831566 
L 167.252814 81.831566 
L 167.270764 80.713202 
L 167.395891 80.713202 
L 167.395891 80.15402 
L 167.713528 80.15402 
L 167.757184 79.035655 
L 167.947966 79.035655 
L 167.947966 78.476473 
L 168.102501 78.476473 
L 168.20476 76.239744 
L 168.348593 76.239744 
L 168.415865 75.121379 
L 168.466147 75.121379 
L 168.466147 74.562197 
L 168.657545 74.562197 
L 168.715377 72.88465 
L 169.01787 72.88465 
L 169.01787 72.325468 
L 169.402531 72.325468 
L 169.410454 71.207104 
L 169.739969 71.207104 
L 169.763266 70.088739 
L 169.90239 70.088739 
L 169.948516 68.970375 
L 170.177307 68.970375 
L 170.260441 67.85201 
L 170.611192 67.85201 
L 170.611192 67.292828 
L 170.8095 67.292828 
L 170.8095 66.733646 
L 171.156501 66.733646 
L 171.177958 65.615281 
L 171.277737 65.615281 
L 171.277737 65.056099 
L 171.726647 65.056099 
L 171.761229 63.378552 
L 172.184377 63.378552 
L 172.184377 62.81937 
L 172.338742 62.81937 
L 172.385449 61.701006 
L 172.800203 61.701006 
L 172.884556 59.464277 
L 172.936261 59.464277 
L 172.936261 58.905094 
L 173.551126 58.905094 
L 173.551126 58.345912 
L 173.718436 58.345912 
L 173.798415 57.227548 
L 174.09658 57.227548 
L 174.09658 56.668365 
L 174.496087 56.668365 
L 174.496087 56.109183 
L 174.770903 56.109183 
L 174.770903 55.550001 
L 175.052815 55.550001 
L 175.052815 54.990819 
L 175.268304 54.990819 
L 175.375044 53.313272 
L 175.391838 53.313272 
L 175.391838 52.75409 
L 176.104243 52.75409 
L 176.104243 52.194907 
L 176.280485 52.194907 
L 176.280485 51.635725 
L 176.549358 51.635725 
L 176.549358 51.076543 
L 176.767671 51.076543 
L 176.767671 50.517361 
L 176.906565 50.517361 
L 176.916809 49.398996 
L 177.687829 49.398996 
L 177.687829 48.839814 
L 178.26555 48.839814 
L 178.31283 47.72145 
L 178.709541 47.72145 
L 178.77861 46.603085 
L 179.056665 46.603085 
L 179.056665 46.043903 
L 180.358146 46.043903 
L 180.358146 45.484721 
L 180.874352 45.484721 
L 180.874352 44.925538 
L 181.228689 44.925538 
L 181.256564 43.807174 
L 181.37947 43.807174 
L 181.37947 43.247992 
L 182.44782 43.247992 
L 182.44782 42.688809 
L 182.855077 42.688809 
L 182.855077 42.129627 
L 183.724694 42.129627 
L 183.724694 41.570445 
L 185.140225 41.570445 
L 185.140225 41.011263 
L 187.470523 41.011263 
L 187.470523 40.45208 
L 188.09137 40.45208 
L 188.09137 39.892898 
L 188.721559 39.892898 
L 188.721559 39.333716 
L 191.242446 39.333716 
L 191.242446 38.774534 
L 192.015364 38.774534 
L 192.015364 38.215351 
L 201.809652 38.215351 
L 201.809652 37.656169 
L 333.429677 37.656169 
L 333.429677 37.656169 
" style="fill:none;stroke:#000080;stroke-linecap:square;stroke-width:1.5;"/>
   </g>
   <g id="line2d_25">
    <defs>
     <path d="M 0 6 
C 1.591219 6 3.117479 5.367802 4.242641 4.242641 
C 5.367802 3.117479 6 1.591219 6 0 
C 6 -1.591219 5.367802 -3.117479 4.242641 -4.242641 
C 3.117479 -5.367802 1.591219 -6 0 -6 
C -1.591219 -6 -3.117479 -5.367802 -4.242641 -4.242641 
C -5.367802 -3.117479 -6 -1.591219 -6 0 
C -6 1.591219 -5.367802 3.117479 -4.242641 4.242641 
C -3.117479 5.367802 -1.591219 6 0 6 
z
" id="ma9e053c25e" style="stroke:#000080;stroke-width:1.5;"/>
    </defs>
    <g>
     <use style="fill-opacity:0;stroke:#000080;stroke-width:1.5;" x="142.51742" xlink:href="#ma9e053c25e" y="250.704603"/>
     <use style="fill-opacity:0;stroke:#000080;stroke-width:1.5;" x="158.693073" xlink:href="#ma9e053c25e" y="139.427337"/>
     <use style="fill-opacity:0;stroke:#000080;stroke-width:1.5;" x="201.809652" xlink:href="#ma9e053c25e" y="38.215351"/>
     <use style="fill-opacity:0;stroke:#000080;stroke-width:1.5;" x="201.809652" xlink:href="#ma9e053c25e" y="37.656169"/>
     <use style="fill-opacity:0;stroke:#000080;stroke-width:1.5;" x="333.429677" xlink:href="#ma9e053c25e" y="37.656169"/>
    </g>
   </g>
   <g id="line2d_26">
    <path style="fill:none;stroke:#000080;stroke-linecap:square;stroke-width:1.5;"/>
    <g/>
   </g>
   <g id="line2d_27">
    <path clip-path="url(#pc403cee50a)" d="M 132.55522 276.426986 
" style="fill:none;stroke:#000080;stroke-linecap:square;stroke-width:1.5;"/>
    <defs>
     <path d="M -12 12 
L 12 -12 
M -12 -12 
L 12 12 
" id="m9cbb8b37f6" style="stroke:#000080;stroke-width:3;"/>
    </defs>
    <g clip-path="url(#pc403cee50a)">
     <use style="fill:#000080;stroke:#000080;stroke-width:3;" x="132.55522" xlink:href="#m9cbb8b37f6" y="276.426986"/>
    </g>
   </g>
   <g id="line2d_28">
    <defs>
     <path d="M 0 1.5 
C 0.397805 1.5 0.77937 1.341951 1.06066 1.06066 
C 1.341951 0.77937 1.5 0.397805 1.5 0 
C 1.5 -0.397805 1.341951 -0.77937 1.06066 -1.06066 
C 0.77937 -1.341951 0.397805 -1.5 0 -1.5 
C -0.397805 -1.5 -0.77937 -1.341951 -1.06066 -1.06066 
C -1.341951 -0.77937 -1.5 -0.397805 -1.5 0 
C -1.5 0.397805 -1.341951 0.77937 -1.06066 1.06066 
C -0.77937 1.341951 -0.397805 1.5 0 1.5 
z
" id="mfec6bfde77" style="stroke:#ff00ff;"/>
    </defs>
    <g>
     <use style="fill:#ff00ff;stroke:#ff00ff;" x="155.99657" xlink:href="#mfec6bfde77" y="233.369954"/>
     <use style="fill:#ff00ff;stroke:#ff00ff;" x="155.99657" xlink:href="#mfec6bfde77" y="233.369954"/>
    </g>
   </g>
   <g id="line2d_29">
    <path d="M 49.144027 294.88 
L 49.144027 284.81472 
L 84.92054 284.81472 
L 84.92054 278.104533 
L 95.735668 278.104533 
L 95.735668 273.631075 
L 102.324999 273.631075 
L 102.324999 269.716799 
L 107.077901 269.716799 
L 107.077901 265.802523 
L 110.797991 265.802523 
L 110.797991 263.006612 
L 113.854971 263.006612 
L 113.854971 259.651519 
L 116.449859 259.651519 
L 116.449859 258.533154 
L 118.704183 258.533154 
L 118.704183 255.178061 
L 120.697054 255.178061 
L 120.697054 254.059696 
L 122.482864 254.059696 
L 122.482864 252.941332 
L 124.100619 252.941332 
L 124.100619 249.027056 
L 125.579247 249.027056 
L 125.579247 247.908692 
L 128.202449 247.908692 
L 128.202449 247.34951 
L 129.377872 247.34951 
L 129.377872 246.231145 
L 131.512181 246.231145 
L 131.512181 245.112781 
L 133.410705 245.112781 
L 133.410705 243.435234 
L 135.915481 243.435234 
L 135.915481 242.876052 
L 136.675441 242.876052 
L 136.675441 242.316869 
L 138.101512 242.316869 
L 138.101512 240.639323 
L 138.772539 240.639323 
L 138.772539 240.08014 
L 139.418374 240.08014 
L 139.418374 239.520958 
L 140.04084 239.520958 
L 140.04084 238.961776 
L 140.641569 238.961776 
L 140.641569 237.843411 
L 141.783544 237.843411 
L 141.783544 236.725047 
L 143.365849 236.725047 
L 143.365849 236.165865 
L 145.717145 236.165865 
L 145.717145 235.606682 
L 151.922622 235.606682 
L 151.922622 235.0475 
L 152.818244 235.0475 
L 152.818244 234.488318 
L 153.39043 234.488318 
L 153.39043 233.929136 
L 155.99657 233.929136 
L 155.99657 233.369954 
L 333.429677 233.369954 
" style="fill:none;stroke:#ff00ff;stroke-linecap:square;stroke-width:1.5;"/>
   </g>
   <g id="line2d_30">
    <defs>
     <path d="M -0 8.485281 
L 5.091169 0 
L 0 -8.485281 
L -5.091169 -0 
z
" id="ma5281a5c87" style="stroke:#ff00ff;stroke-linejoin:miter;stroke-width:1.5;"/>
    </defs>
    <g>
     <use style="fill-opacity:0;stroke:#ff00ff;stroke-linejoin:miter;stroke-width:1.5;" x="95.735668" xlink:href="#ma5281a5c87" y="273.631075"/>
     <use style="fill-opacity:0;stroke:#ff00ff;stroke-linejoin:miter;stroke-width:1.5;" x="153.39043" xlink:href="#ma5281a5c87" y="233.929136"/>
     <use style="fill-opacity:0;stroke:#ff00ff;stroke-linejoin:miter;stroke-width:1.5;" x="155.99657" xlink:href="#ma5281a5c87" y="233.929136"/>
     <use style="fill-opacity:0;stroke:#ff00ff;stroke-linejoin:miter;stroke-width:1.5;" x="155.99657" xlink:href="#ma5281a5c87" y="233.369954"/>
     <use style="fill-opacity:0;stroke:#ff00ff;stroke-linejoin:miter;stroke-width:1.5;" x="155.99657" xlink:href="#ma5281a5c87" y="233.369954"/>
     <use style="fill-opacity:0;stroke:#ff00ff;stroke-linejoin:miter;stroke-width:1.5;" x="333.429677" xlink:href="#ma5281a5c87" y="233.369954"/>
    </g>
   </g>
   <g id="line2d_31">
    <path style="fill:none;stroke:#ff00ff;stroke-linecap:square;stroke-width:1.5;"/>
    <g/>
   </g>
   <g id="line2d_32">
    <path clip-path="url(#pc403cee50a)" d="M 82.623151 284.81472 
" style="fill:none;stroke:#ff00ff;stroke-linecap:square;stroke-width:1.5;"/>
    <defs>
     <path d="M -12 12 
L 12 -12 
M -12 -12 
L 12 12 
" id="mc38cc69356" style="stroke:#ff00ff;stroke-width:3;"/>
    </defs>
    <g clip-path="url(#pc403cee50a)">
     <use style="fill:#ff00ff;stroke:#ff00ff;stroke-width:3;" x="82.623151" xlink:href="#mc38cc69356" y="284.81472"/>
    </g>
   </g>
   <g id="line2d_33">
    <defs>
     <path d="M 0 1.5 
C 0.397805 1.5 0.77937 1.341951 1.06066 1.06066 
C 1.341951 0.77937 1.5 0.397805 1.5 0 
C 1.5 -0.397805 1.341951 -0.77937 1.06066 -1.06066 
C 0.77937 -1.341951 0.397805 -1.5 0 -1.5 
C -0.397805 -1.5 -0.77937 -1.341951 -1.06066 -1.06066 
C -1.341951 -0.77937 -1.5 -0.397805 -1.5 0 
C -1.5 0.397805 -1.341951 0.77937 -1.06066 1.06066 
C -0.77937 1.341951 -0.397805 1.5 0 1.5 
z
" id="mb8bd1a4650" style="stroke:#ffa500;"/>
    </defs>
    <g>
     <use style="fill:#ffa500;stroke:#ffa500;" x="183.488675" xlink:href="#mb8bd1a4650" y="9.697057"/>
     <use style="fill:#ffa500;stroke:#ffa500;" x="183.488675" xlink:href="#mb8bd1a4650" y="9.697057"/>
    </g>
   </g>
   <g id="line2d_34">
    <path d="M 102.324999 294.88 
L 102.324999 294.320818 
L 108.225317 294.320818 
L 108.225317 293.761636 
L 108.771549 293.761636 
L 108.771549 293.202453 
L 109.300972 293.202453 
L 109.300972 292.643271 
L 109.814588 292.643271 
L 109.814588 292.084089 
L 110.313314 292.084089 
L 110.313314 291.524907 
L 113.854971 291.524907 
L 113.854971 290.965724 
L 114.250503 290.965724 
L 114.250503 289.84736 
L 114.637146 289.84736 
L 114.637146 287.610631 
L 118.089658 287.610631 
L 118.089658 287.051449 
L 119.871061 287.051449 
L 119.871061 286.492266 
L 127.673027 286.492266 
L 127.673027 283.137173 
L 128.027779 283.137173 
L 128.027779 282.577991 
L 128.202449 282.577991 
L 128.202449 282.018808 
L 128.375364 282.018808 
L 128.375364 281.459626 
L 128.546558 281.459626 
L 128.546558 280.341262 
L 129.050151 280.341262 
L 129.050151 279.222897 
L 129.377872 279.222897 
L 129.377872 278.104533 
L 129.539422 278.104533 
L 129.539422 276.986168 
L 129.699468 276.986168 
L 129.699468 274.749439 
L 130.015162 274.749439 
L 130.015162 273.631075 
L 130.170864 273.631075 
L 130.170864 271.953528 
L 130.325168 271.953528 
L 130.325168 269.157617 
L 130.779949 269.157617 
L 130.779949 268.039252 
L 131.076592 268.039252 
L 131.076592 267.48007 
L 131.223017 267.48007 
L 131.223017 265.802523 
L 131.368207 265.802523 
L 131.368207 265.243341 
L 131.512181 265.243341 
L 131.512181 261.329066 
L 131.796566 261.329066 
L 131.796566 260.769883 
L 131.937015 260.769883 
L 131.937015 258.533154 
L 132.076326 258.533154 
L 132.076326 257.973972 
L 132.214518 257.973972 
L 132.214518 257.41479 
L 132.35161 257.41479 
L 132.35161 255.178061 
L 132.756449 255.178061 
L 132.756449 254.618879 
L 132.889306 254.618879 
L 132.889306 251.822967 
L 133.021144 251.822967 
L 133.021144 250.704603 
L 133.281829 250.704603 
L 133.281829 249.586238 
L 133.410705 249.586238 
L 133.410705 249.027056 
L 133.538623 249.027056 
L 133.538623 248.467874 
L 133.665597 248.467874 
L 133.665597 243.994416 
L 133.79164 243.994416 
L 133.79164 241.757687 
L 134.04099 241.757687 
L 134.04099 241.198505 
L 134.164323 241.198505 
L 134.164323 240.639323 
L 134.286778 240.639323 
L 134.286778 238.402594 
L 134.529104 238.402594 
L 134.529104 236.165865 
L 134.648999 236.165865 
L 134.648999 233.929136 
L 134.768065 233.929136 
L 134.768065 232.251589 
L 135.692038 232.251589 
L 135.692038 231.692407 
L 135.804122 231.692407 
L 135.804122 231.133225 
L 136.136059 231.133225 
L 136.136059 230.01486 
L 136.675441 230.01486 
L 136.675441 228.337313 
L 137.095092 228.337313 
L 137.198425 227.218949 
L 137.70598 227.218949 
L 137.805719 225.541402 
L 138.003478 225.541402 
L 138.003478 224.423038 
L 138.295919 224.423038 
L 138.295919 222.745491 
L 138.488154 222.745491 
L 138.488154 222.186309 
L 138.678265 222.186309 
L 138.678265 221.067944 
L 138.866299 221.067944 
L 138.866299 220.508762 
L 139.23631 220.508762 
L 139.23631 219.94958 
L 139.418374 219.94958 
L 139.418374 219.390397 
L 139.643277 219.390397 
L 139.643277 218.831215 
L 139.821107 218.831215 
L 139.821107 217.712851 
L 140.04084 217.712851 
L 140.04084 217.153669 
L 140.809423 217.153669 
L 140.809423 216.594486 
L 141.016963 216.594486 
L 141.099283 214.91694 
L 141.22203 214.91694 
L 141.22203 214.357757 
L 141.424681 214.357757 
L 141.424681 213.798575 
L 141.704441 213.798575 
L 141.704441 212.680211 
L 142.018694 212.680211 
L 142.018694 212.121028 
L 142.212226 212.121028 
L 142.289034 211.002664 
L 142.403606 211.002664 
L 142.403606 210.443482 
L 142.555192 210.443482 
L 142.555192 209.884299 
L 142.854414 209.884299 
L 142.854414 209.325117 
L 143.03882 209.325117 
L 143.03882 208.765935 
L 143.22127 208.765935 
L 143.293711 207.088388 
L 143.365849 207.088388 
L 143.365849 206.529206 
L 143.651414 206.529206 
L 143.651414 204.851659 
L 143.792438 204.851659 
L 143.792438 203.733295 
L 144.277114 203.733295 
L 144.277114 202.61493 
L 144.480724 202.61493 
L 144.548063 200.937384 
L 144.74851 200.937384 
L 144.81481 198.700655 
L 144.946649 198.700655 
L 144.946649 196.463926 
L 145.174963 196.463926 
L 145.271892 194.786379 
L 145.336209 194.786379 
L 145.336209 194.227197 
L 145.464127 194.227197 
L 145.464127 192.54965 
L 145.717145 192.54965 
L 145.717145 191.431285 
L 145.904495 191.431285 
L 145.904495 190.872103 
L 146.212283 190.872103 
L 146.212283 190.312921 
L 146.514661 190.312921 
L 146.574504 189.194556 
L 146.63414 189.194556 
L 146.693569 186.957828 
L 146.870636 186.957828 
L 146.929256 185.839463 
L 147.016813 185.839463 
L 147.0459 184.721099 
L 147.276841 184.721099 
L 147.276841 182.48437 
L 147.448035 182.48437 
L 147.504723 178.570094 
L 147.729627 178.570094 
L 147.729627 177.451729 
L 147.951628 177.451729 
L 148.061564 175.215 
L 148.088938 175.215 
L 148.170801 172.419089 
L 148.333368 172.419089 
L 148.387217 170.741543 
L 148.547762 170.741543 
L 148.653965 169.623178 
L 148.759517 169.623178 
L 148.864425 167.945631 
L 148.91664 167.945631 
L 149.020597 165.708902 
L 149.072341 165.708902 
L 149.175364 163.472173 
L 149.277775 163.472173 
L 149.379579 159.557898 
L 149.480784 159.557898 
L 149.480784 158.998715 
L 149.780877 158.998715 
L 149.80565 157.880351 
L 149.928983 157.880351 
L 149.978069 156.202804 
L 150.100177 156.202804 
L 150.100177 155.643622 
L 150.245571 155.643622 
L 150.341822 153.966075 
L 150.365801 153.966075 
L 150.437538 152.288529 
L 150.58012 152.288529 
L 150.674523 151.170164 
L 150.721531 151.170164 
L 150.721531 150.0518 
L 150.885054 150.0518 
L 150.977803 145.019159 
L 151.000913 145.019159 
L 151.047038 143.900795 
L 151.207511 143.900795 
L 151.207511 143.341613 
L 151.389095 143.341613 
L 151.479173 141.664066 
L 151.546423 141.664066 
L 151.613412 138.868155 
L 151.68014 138.868155 
L 151.768711 137.190608 
L 151.834841 137.190608 
L 151.944497 135.513061 
L 151.966344 135.513061 
L 152.075167 134.394697 
L 152.09685 134.394697 
L 152.204853 131.598786 
L 152.247865 131.598786 
L 152.354927 127.68451 
L 152.397566 127.68451 
L 152.482529 126.006963 
L 152.524853 126.006963 
L 152.630211 124.888599 
L 152.693117 124.888599 
L 152.734928 123.211052 
L 152.818244 123.211052 
L 152.859752 120.974323 
L 152.963085 120.974323 
L 153.045306 118.178412 
L 153.147534 118.178412 
L 153.20858 115.941683 
L 153.330027 115.941683 
L 153.430582 114.264136 
L 153.490634 114.264136 
L 153.570378 112.586589 
L 153.610112 112.586589 
L 153.610112 112.027407 
L 153.787789 112.027407 
L 153.885711 109.790678 
L 153.905229 109.790678 
L 153.905229 108.113132 
L 154.118475 108.113132 
L 154.156965 106.994767 
L 154.252814 106.994767 
L 154.348132 105.876403 
L 154.367132 105.876403 
L 154.424008 104.758038 
L 154.499551 104.758038 
L 154.593515 103.080491 
L 154.724209 103.080491 
L 154.779919 101.402945 
L 154.835448 101.402945 
L 154.853918 100.28458 
L 155.037536 100.28458 
L 155.128616 98.047851 
L 155.183033 98.047851 
L 155.291354 95.811122 
L 155.345259 95.811122 
L 155.416872 94.692758 
L 155.576918 94.692758 
L 155.647575 91.337664 
L 155.77053 91.337664 
L 155.77053 89.660118 
L 155.94467 89.660118 
L 156.031083 87.982571 
L 156.151337 87.982571 
L 156.253747 83.509113 
L 156.338626 83.509113 
L 156.423088 81.272384 
L 156.574083 81.272384 
L 156.657399 78.476473 
L 156.773369 78.476473 
L 156.855728 75.121379 
L 156.921333 75.121379 
L 157.002989 72.325468 
L 157.11666 72.325468 
L 157.213498 70.647921 
L 157.389632 70.647921 
L 157.48495 68.411192 
L 157.56398 68.411192 
L 157.642649 67.292828 
L 157.798916 67.292828 
L 157.798916 66.733646 
L 157.938353 66.733646 
L 158.030687 64.496917 
L 158.107255 64.496917 
L 158.107255 63.937735 
L 158.244225 63.937735 
L 158.319851 61.701006 
L 158.395146 61.701006 
L 158.470113 60.023459 
L 158.752044 60.023459 
L 158.766756 58.905094 
L 158.913181 58.905094 
L 158.971404 56.109183 
L 159.173647 56.109183 
L 159.259599 54.431636 
L 159.345125 54.431636 
L 159.345125 53.872454 
L 159.458502 53.872454 
L 159.48673 51.635725 
L 159.613185 51.635725 
L 159.7109 48.839814 
L 159.835725 48.839814 
L 159.904682 47.162267 
L 160.123507 47.162267 
L 160.218375 43.807174 
L 160.312722 43.807174 
L 160.326158 42.688809 
L 160.446613 42.688809 
L 160.52645 41.570445 
L 160.829105 41.570445 
L 160.933141 39.892898 
L 161.164947 39.892898 
L 161.164947 39.333716 
L 161.292391 39.333716 
L 161.292391 38.774534 
L 161.693981 38.774534 
L 161.693981 38.215351 
L 161.829891 38.215351 
L 161.915824 36.537805 
L 162.025681 36.537805 
L 162.025681 35.978622 
L 162.159006 35.978622 
L 162.231295 34.301076 
L 162.339163 34.301076 
L 162.374969 33.182711 
L 162.481943 33.182711 
L 162.564687 32.064347 
L 162.856996 32.064347 
L 162.856996 31.505165 
L 163.24673 31.505165 
L 163.25806 30.3868 
L 163.505454 30.3868 
L 163.594541 29.268436 
L 163.62783 29.268436 
L 163.62783 28.709253 
L 163.859067 28.709253 
L 163.935461 27.031707 
L 164.098027 27.031707 
L 164.119587 25.35416 
L 164.376222 25.35416 
L 164.471481 23.676613 
L 164.722957 23.676613 
L 164.816321 22.558249 
L 165.683808 22.558249 
L 165.683808 21.999066 
L 165.995746 21.999066 
L 165.995746 21.439884 
L 166.245096 21.439884 
L 166.245096 20.880702 
L 166.696151 20.880702 
L 166.696151 20.32152 
L 166.880655 20.32152 
L 166.880655 19.762337 
L 167.045034 19.762337 
L 167.14472 18.643973 
L 167.634667 18.643973 
L 167.634667 18.084791 
L 167.870174 18.084791 
L 167.913435 16.966426 
L 168.306413 16.966426 
L 168.306413 16.407244 
L 168.912193 16.407244 
L 168.912193 15.848062 
L 169.591684 15.848062 
L 169.591684 15.28888 
L 169.72442 15.28888 
L 169.72442 14.729697 
L 169.863857 14.729697 
L 169.863857 14.170515 
L 169.994518 14.170515 
L 169.994518 13.611333 
L 170.485148 13.611333 
L 170.485148 13.052151 
L 170.618578 13.052151 
L 170.618578 12.492968 
L 172.238226 12.492968 
L 172.238226 11.933786 
L 174.330256 11.933786 
L 174.330256 11.374604 
L 175.035687 11.374604 
L 175.035687 10.815422 
L 176.850114 10.815422 
L 176.850114 10.256239 
L 183.488675 10.256239 
L 183.488675 9.697057 
L 333.429677 9.697057 
L 333.429677 9.697057 
" style="fill:none;stroke:#ffa500;stroke-linecap:square;stroke-width:1.5;"/>
   </g>
   <g id="line2d_35">
    <defs>
     <path d="M 0 -6 
L -1.347084 -1.854102 
L -5.706339 -1.854102 
L -2.179628 0.708204 
L -3.526712 4.854102 
L -0 2.291796 
L 3.526712 4.854102 
L 2.179628 0.708204 
L 5.706339 -1.854102 
L 1.347084 -1.854102 
z
" id="m2eef9f5430" style="stroke:#ffa500;stroke-linejoin:bevel;stroke-width:1.5;"/>
    </defs>
    <g>
     <use style="fill-opacity:0;stroke:#ffa500;stroke-linejoin:bevel;stroke-width:1.5;" x="145.464127" xlink:href="#m2eef9f5430" y="194.227197"/>
     <use style="fill-opacity:0;stroke:#ffa500;stroke-linejoin:bevel;stroke-width:1.5;" x="160.842144" xlink:href="#m2eef9f5430" y="41.011263"/>
     <use style="fill-opacity:0;stroke:#ffa500;stroke-linejoin:bevel;stroke-width:1.5;" x="183.488675" xlink:href="#m2eef9f5430" y="9.697057"/>
     <use style="fill-opacity:0;stroke:#ffa500;stroke-linejoin:bevel;stroke-width:1.5;" x="183.488675" xlink:href="#m2eef9f5430" y="9.697057"/>
     <use style="fill-opacity:0;stroke:#ffa500;stroke-linejoin:bevel;stroke-width:1.5;" x="333.429677" xlink:href="#m2eef9f5430" y="9.697057"/>
    </g>
   </g>
   <g id="line2d_36">
    <path style="fill:none;stroke:#ffa500;stroke-linecap:square;stroke-width:1.5;"/>
    <g/>
   </g>
   <g id="line2d_37">
    <path clip-path="url(#pc403cee50a)" d="M 128.716065 280.341262 
" style="fill:none;stroke:#ffa500;stroke-linecap:square;stroke-width:1.5;"/>
    <defs>
     <path d="M -12 12 
L 12 -12 
M -12 -12 
L 12 12 
" id="m53f286b475" style="stroke:#ffa500;stroke-width:3;"/>
    </defs>
    <g clip-path="url(#pc403cee50a)">
     <use style="fill:#ffa500;stroke:#ffa500;stroke-width:3;" x="128.716065" xlink:href="#m53f286b475" y="280.341262"/>
    </g>
   </g>
   <g id="line2d_38">
    <defs>
     <path d="M 0 1.5 
C 0.397805 1.5 0.77937 1.341951 1.06066 1.06066 
C 1.341951 0.77937 1.5 0.397805 1.5 0 
C 1.5 -0.397805 1.341951 -0.77937 1.06066 -1.06066 
C 0.77937 -1.341951 0.397805 -1.5 0 -1.5 
C -0.397805 -1.5 -0.77937 -1.341951 -1.06066 -1.06066 
C -1.341951 -0.77937 -1.5 -0.397805 -1.5 0 
C -1.5 0.397805 -1.341951 0.77937 -1.06066 1.06066 
C -0.77937 1.341951 -0.397805 1.5 0 1.5 
z
" id="mf484e91d08" style="stroke:#6495ed;"/>
    </defs>
    <g>
     <use style="fill:#6495ed;stroke:#6495ed;" x="148.968697" xlink:href="#mf484e91d08" y="9.697057"/>
     <use style="fill:#6495ed;stroke:#6495ed;" x="148.968697" xlink:href="#mf484e91d08" y="9.697057"/>
    </g>
   </g>
   <g id="line2d_39">
    <path d="M 49.144027 294.88 
L 49.144027 266.920888 
L 105.199142 266.920888 
L 105.199142 265.802523 
L 105.848459 265.802523 
L 105.848459 263.006612 
L 106.47416 263.006612 
L 106.47416 262.44743 
L 107.077901 262.44743 
L 107.077901 261.329066 
L 108.225317 261.329066 
L 108.225317 260.769883 
L 108.771549 260.769883 
L 108.771549 258.533154 
L 109.300972 258.533154 
L 109.300972 252.941332 
L 109.814588 252.941332 
L 109.814588 245.671963 
L 110.313314 245.671963 
L 110.313314 244.553598 
L 110.797991 244.553598 
L 110.797991 243.994416 
L 113.035537 243.994416 
L 113.035537 242.316869 
L 117.773963 242.316869 
L 117.773963 241.757687 
L 118.704183 241.757687 
L 118.704183 240.639323 
L 119.871061 240.639323 
L 119.871061 240.08014 
L 120.963801 240.08014 
L 120.963801 239.520958 
L 121.485201 239.520958 
L 121.485201 238.961776 
L 121.740092 238.961776 
L 121.740092 238.402594 
L 122.238819 238.402594 
L 122.238819 237.843411 
L 122.482864 237.843411 
L 122.482864 237.284229 
L 122.960807 237.284229 
L 122.960807 236.725047 
L 123.425832 236.725047 
L 123.425832 235.606682 
L 124.319792 235.606682 
L 124.319792 233.369954 
L 124.536209 233.369954 
L 124.536209 232.810771 
L 124.749936 232.810771 
L 124.749936 231.133225 
L 124.961042 231.133225 
L 124.961042 230.01486 
L 125.979378 230.01486 
L 125.979378 228.337313 
L 126.370415 228.337313 
L 126.370415 227.778131 
L 126.56265 227.778131 
L 126.56265 227.218949 
L 127.310805 227.218949 
L 127.310805 226.659767 
L 127.492869 226.659767 
L 127.492869 226.100584 
L 127.851317 226.100584 
L 127.851317 225.541402 
L 128.202449 225.541402 
L 128.202449 224.98222 
L 128.375364 224.98222 
L 128.375364 223.863855 
L 128.716065 223.863855 
L 128.716065 223.304673 
L 129.050151 223.304673 
L 129.050151 222.186309 
L 129.858039 222.186309 
L 129.858039 221.627126 
L 133.538623 221.627126 
L 133.538623 221.067944 
L 133.665597 221.067944 
L 133.665597 219.94958 
L 136.353845 219.94958 
L 136.353845 219.390397 
L 137.095092 219.390397 
L 137.095092 218.831215 
L 137.301141 218.831215 
L 137.403248 217.712851 
L 137.60566 217.712851 
L 137.70598 216.594486 
L 137.904883 216.594486 
L 138.003478 213.239393 
L 138.295919 213.239393 
L 138.392305 210.443482 
L 139.14455 210.443482 
L 139.14455 208.765935 
L 139.418374 208.765935 
L 139.508688 205.970024 
L 139.598531 205.970024 
L 139.598531 204.851659 
L 139.776821 204.851659 
L 139.776821 203.733295 
L 139.953283 203.733295 
L 140.04084 201.496566 
L 140.214628 201.496566 
L 140.300868 198.141472 
L 140.472062 198.141472 
L 140.472062 197.023108 
L 140.641569 197.023108 
L 140.725701 195.904743 
L 140.809423 195.904743 
L 140.89274 192.54965 
L 140.975655 192.54965 
L 141.058173 190.312921 
L 141.140296 190.312921 
L 141.22203 189.194556 
L 141.303377 189.194556 
L 141.303377 187.51701 
L 141.464926 187.51701 
L 141.464926 186.957828 
L 141.624972 186.957828 
L 141.704441 181.925187 
L 141.783544 181.925187 
L 141.783544 178.570094 
L 141.940667 178.570094 
L 141.940667 178.010912 
L 142.096368 178.010912 
L 142.173693 173.537454 
L 142.250673 173.537454 
L 142.250673 172.419089 
L 142.403606 172.419089 
L 142.479566 166.268085 
L 142.555192 166.268085 
L 142.555192 165.14972 
L 142.854414 165.14972 
L 142.928414 156.202804 
L 143.002096 156.202804 
L 143.075465 153.406893 
L 143.148522 153.406893 
L 143.22127 149.492617 
L 143.293711 149.492617 
L 143.365849 146.137524 
L 143.437686 146.137524 
L 143.509224 141.104884 
L 143.651414 141.104884 
L 143.72207 137.74979 
L 143.862519 137.74979 
L 143.932316 131.598786 
L 144.00183 131.598786 
L 144.071065 126.566145 
L 144.140023 126.566145 
L 144.208705 122.65187 
L 144.277114 122.65187 
L 144.345252 117.060047 
L 144.413122 117.060047 
L 144.480724 112.586589 
L 144.548063 112.586589 
L 144.615138 106.994767 
L 144.681953 106.994767 
L 144.74851 101.962127 
L 144.81481 101.962127 
L 144.880856 97.488669 
L 144.946649 97.488669 
L 145.012191 91.896847 
L 145.077485 91.896847 
L 145.142532 90.2193 
L 145.207333 90.2193 
L 145.271892 86.864206 
L 145.336209 86.864206 
L 145.400287 84.068295 
L 145.464127 84.068295 
L 145.527731 81.831566 
L 145.654238 81.831566 
L 145.717145 77.917291 
L 145.779822 77.917291 
L 145.842271 72.325468 
L 145.904495 72.325468 
L 145.904495 67.85201 
L 146.028272 67.85201 
L 146.028272 65.056099 
L 146.212283 65.056099 
L 146.212283 63.378552 
L 146.333872 63.378552 
L 146.333872 62.81937 
L 146.454609 62.81937 
L 146.514661 59.464277 
L 146.574504 59.464277 
L 146.63414 53.872454 
L 146.693569 53.872454 
L 146.752794 51.076543 
L 146.811816 51.076543 
L 146.870636 49.398996 
L 146.987677 49.398996 
L 147.0459 41.011263 
L 147.103926 41.011263 
L 147.161758 36.537805 
L 147.219395 36.537805 
L 147.276841 32.623529 
L 147.334095 32.623529 
L 147.334095 30.945982 
L 147.448035 30.945982 
L 147.504723 27.031707 
L 147.561225 27.031707 
L 147.617542 24.794978 
L 147.673676 24.794978 
L 147.729627 20.880702 
L 147.840985 20.880702 
L 147.896396 18.643973 
L 148.006684 18.643973 
L 148.006684 16.966426 
L 148.170801 16.966426 
L 148.27935 13.611333 
L 148.333368 13.611333 
L 148.387217 12.492968 
L 148.547762 12.492968 
L 148.653965 11.374604 
L 148.706822 11.374604 
L 148.706822 10.815422 
L 148.968697 10.815422 
L 148.968697 9.697057 
L 333.429677 9.697057 
L 333.429677 9.697057 
" style="fill:none;stroke:#6495ed;stroke-linecap:square;stroke-width:1.5;"/>
   </g>
   <g id="line2d_40">
    <defs>
     <path d="M -0 6 
L 6 -6 
L -6 -6 
z
" id="ma54ee60197" style="stroke:#6495ed;stroke-linejoin:miter;stroke-width:1.5;"/>
    </defs>
    <g>
     <use style="fill-opacity:0;stroke:#6495ed;stroke-linejoin:miter;stroke-width:1.5;" x="129.050151" xlink:href="#ma54ee60197" y="222.186309"/>
     <use style="fill-opacity:0;stroke:#6495ed;stroke-linejoin:miter;stroke-width:1.5;" x="148.968697" xlink:href="#ma54ee60197" y="10.815422"/>
     <use style="fill-opacity:0;stroke:#6495ed;stroke-linejoin:miter;stroke-width:1.5;" x="148.968697" xlink:href="#ma54ee60197" y="9.697057"/>
     <use style="fill-opacity:0;stroke:#6495ed;stroke-linejoin:miter;stroke-width:1.5;" x="148.968697" xlink:href="#ma54ee60197" y="9.697057"/>
     <use style="fill-opacity:0;stroke:#6495ed;stroke-linejoin:miter;stroke-width:1.5;" x="148.968697" xlink:href="#ma54ee60197" y="9.697057"/>
     <use style="fill-opacity:0;stroke:#6495ed;stroke-linejoin:miter;stroke-width:1.5;" x="333.429677" xlink:href="#ma54ee60197" y="9.697057"/>
    </g>
   </g>
   <g id="line2d_41">
    <path style="fill:none;stroke:#6495ed;stroke-linecap:square;stroke-width:1.5;"/>
    <g/>
   </g>
   <g id="line2d_42">
    <path d="M 333.429677 233.369954 
L 363.933742 289.176341 
" style="fill:none;stroke:#ff00ff;stroke-linecap:square;stroke-width:1.5;"/>
    <g>
     <use style="fill-opacity:0;stroke:#ff00ff;stroke-linejoin:miter;stroke-width:1.5;" x="333.429677" xlink:href="#ma5281a5c87" y="233.369954"/>
     <use style="fill-opacity:0;stroke:#ff00ff;stroke-linejoin:miter;stroke-width:1.5;" x="363.933742" xlink:href="#ma5281a5c87" y="289.176341"/>
    </g>
   </g>
   <g id="line2d_43">
    <path d="M 333.429677 37.656169 
L 363.933742 197.917799 
" style="fill:none;stroke:#000080;stroke-linecap:square;stroke-width:1.5;"/>
    <g>
     <use style="fill-opacity:0;stroke:#000080;stroke-width:1.5;" x="333.429677" xlink:href="#ma9e053c25e" y="37.656169"/>
     <use style="fill-opacity:0;stroke:#000080;stroke-width:1.5;" x="363.933742" xlink:href="#ma9e053c25e" y="197.917799"/>
    </g>
   </g>
   <g id="line2d_44">
    <path d="M 333.429677 9.697057 
L 363.933742 106.659258 
" style="fill:none;stroke:#ffa500;stroke-linecap:square;stroke-width:1.5;"/>
    <g>
     <use style="fill-opacity:0;stroke:#ffa500;stroke-linejoin:bevel;stroke-width:1.5;" x="333.429677" xlink:href="#m2eef9f5430" y="9.697057"/>
     <use style="fill-opacity:0;stroke:#ffa500;stroke-linejoin:bevel;stroke-width:1.5;" x="363.933742" xlink:href="#m2eef9f5430" y="106.659258"/>
    </g>
   </g>
   <g id="line2d_45">
    <path d="M 333.429677 9.697057 
L 363.933742 15.400716 
" style="fill:none;stroke:#6495ed;stroke-linecap:square;stroke-width:1.5;"/>
    <g>
     <use style="fill-opacity:0;stroke:#6495ed;stroke-linejoin:miter;stroke-width:1.5;" x="333.429677" xlink:href="#ma54ee60197" y="9.697057"/>
     <use style="fill-opacity:0;stroke:#6495ed;stroke-linejoin:miter;stroke-width:1.5;" x="363.933742" xlink:href="#ma54ee60197" y="15.400716"/>
    </g>
   </g>
   <g id="line2d_46">
    <path d="M 333.429677 294.88 
L 333.429677 9.697057 
" style="fill:none;stroke:#000000;stroke-linecap:square;stroke-width:1.5;"/>
   </g>
   <g id="patch_3">
    <path d="M 56.12 294.88 
L 56.12 6.845228 
" style="fill:none;stroke:#000000;stroke-linecap:square;stroke-linejoin:miter;stroke-width:0.8;"/>
   </g>
   <g id="patch_4">
    <path d="M 399.984 294.88 
L 399.984 6.845228 
" style="fill:none;stroke:#000000;stroke-linecap:square;stroke-linejoin:miter;stroke-width:0.8;"/>
   </g>
   <g id="patch_5">
    <path d="M 56.12 294.88 
L 399.984 294.88 
" style="fill:none;stroke:#000000;stroke-linecap:square;stroke-linejoin:miter;stroke-width:0.8;"/>
   </g>
   <g id="patch_6">
    <path d="M 56.12 6.845228 
L 399.984 6.845228 
" style="fill:none;stroke:#000000;stroke-linecap:square;stroke-linejoin:miter;stroke-width:0.8;"/>
   </g>
   <g id="text_14">
    <!-- f7 -->
    <defs>
     <path d="M 8.203125 72.90625 
L 55.078125 72.90625 
L 55.078125 68.703125 
L 28.609375 0 
L 18.3125 0 
L 43.21875 64.59375 
L 8.203125 64.59375 
z
" id="DejaVuSans-37"/>
    </defs>
    <g transform="translate(369.479935 293.867279)scale(0.17 -0.17)">
     <use xlink:href="#DejaVuSans-66"/>
     <use x="35.205078" xlink:href="#DejaVuSans-37"/>
    </g>
   </g>
   <g id="text_15">
    <!-- f6 -->
    <g transform="translate(369.479935 202.608737)scale(0.17 -0.17)">
     <use xlink:href="#DejaVuSans-66"/>
     <use x="35.205078" xlink:href="#DejaVuSans-36"/>
    </g>
   </g>
   <g id="text_16">
    <!-- f8 -->
    <g transform="translate(369.479935 111.350195)scale(0.17 -0.17)">
     <use xlink:href="#DejaVuSans-66"/>
     <use x="35.205078" xlink:href="#DejaVuSans-38"/>
    </g>
   </g>
   <g id="text_17">
    <!-- f9 -->
    <defs>
     <path d="M 10.984375 1.515625 
L 10.984375 10.5 
Q 14.703125 8.734375 18.5 7.8125 
Q 22.3125 6.890625 25.984375 6.890625 
Q 35.75 6.890625 40.890625 13.453125 
Q 46.046875 20.015625 46.78125 33.40625 
Q 43.953125 29.203125 39.59375 26.953125 
Q 35.25 24.703125 29.984375 24.703125 
Q 19.046875 24.703125 12.671875 31.3125 
Q 6.296875 37.9375 6.296875 49.421875 
Q 6.296875 60.640625 12.9375 67.421875 
Q 19.578125 74.21875 30.609375 74.21875 
Q 43.265625 74.21875 49.921875 64.515625 
Q 56.59375 54.828125 56.59375 36.375 
Q 56.59375 19.140625 48.40625 8.859375 
Q 40.234375 -1.421875 26.421875 -1.421875 
Q 22.703125 -1.421875 18.890625 -0.6875 
Q 15.09375 0.046875 10.984375 1.515625 
z
M 30.609375 32.421875 
Q 37.25 32.421875 41.125 36.953125 
Q 45.015625 41.5 45.015625 49.421875 
Q 45.015625 57.28125 41.125 61.84375 
Q 37.25 66.40625 30.609375 66.40625 
Q 23.96875 66.40625 20.09375 61.84375 
Q 16.21875 57.28125 16.21875 49.421875 
Q 16.21875 41.5 20.09375 36.953125 
Q 23.96875 32.421875 30.609375 32.421875 
z
" id="DejaVuSans-39"/>
    </defs>
    <g transform="translate(369.479935 20.091654)scale(0.17 -0.17)">
     <use xlink:href="#DejaVuSans-66"/>
     <use x="35.205078" xlink:href="#DejaVuSans-39"/>
    </g>
   </g>
   <g id="text_18">
    <!-- bbob -->
    <defs>
     <path d="M 48.6875 27.296875 
Q 48.6875 37.203125 44.609375 42.84375 
Q 40.53125 48.484375 33.40625 48.484375 
Q 26.265625 48.484375 22.1875 42.84375 
Q 18.109375 37.203125 18.109375 27.296875 
Q 18.109375 17.390625 22.1875 11.75 
Q 26.265625 6.109375 33.40625 6.109375 
Q 40.53125 6.109375 44.609375 11.75 
Q 48.6875 17.390625 48.6875 27.296875 
z
M 18.109375 46.390625 
Q 20.953125 51.265625 25.265625 53.625 
Q 29.59375 56 35.59375 56 
Q 45.5625 56 51.78125 48.09375 
Q 58.015625 40.1875 58.015625 27.296875 
Q 58.015625 14.40625 51.78125 6.484375 
Q 45.5625 -1.421875 35.59375 -1.421875 
Q 29.59375 -1.421875 25.265625 0.953125 
Q 20.953125 3.328125 18.109375 8.203125 
L 18.109375 0 
L 9.078125 0 
L 9.078125 75.984375 
L 18.109375 75.984375 
z
" id="DejaVuSans-62"/>
    </defs>
    <g transform="translate(59.55864 17.475982)scale(0.102 -0.102)">
     <use xlink:href="#DejaVuSans-62"/>
     <use x="63.476562" xlink:href="#DejaVuSans-62"/>
     <use x="126.953125" xlink:href="#DejaVuSans-6f"/>
     <use x="188.134766" xlink:href="#DejaVuSans-62"/>
    </g>
    <!-- Misc. moderate functions, 3-D -->
    <defs>
     <path d="M 9.8125 72.90625 
L 24.515625 72.90625 
L 43.109375 23.296875 
L 61.8125 72.90625 
L 76.515625 72.90625 
L 76.515625 0 
L 66.890625 0 
L 66.890625 64.015625 
L 48.09375 14.015625 
L 38.1875 14.015625 
L 19.390625 64.015625 
L 19.390625 0 
L 9.8125 0 
z
" id="DejaVuSans-4d"/>
     <path d="M 40.578125 39.3125 
Q 47.65625 37.796875 51.625 33 
Q 55.609375 28.21875 55.609375 21.1875 
Q 55.609375 10.40625 48.1875 4.484375 
Q 40.765625 -1.421875 27.09375 -1.421875 
Q 22.515625 -1.421875 17.65625 -0.515625 
Q 12.796875 0.390625 7.625 2.203125 
L 7.625 11.71875 
Q 11.71875 9.328125 16.59375 8.109375 
Q 21.484375 6.890625 26.8125 6.890625 
Q 36.078125 6.890625 40.9375 10.546875 
Q 45.796875 14.203125 45.796875 21.1875 
Q 45.796875 27.640625 41.28125 31.265625 
Q 36.765625 34.90625 28.71875 34.90625 
L 20.21875 34.90625 
L 20.21875 43.015625 
L 29.109375 43.015625 
Q 36.375 43.015625 40.234375 45.921875 
Q 44.09375 48.828125 44.09375 54.296875 
Q 44.09375 59.90625 40.109375 62.90625 
Q 36.140625 65.921875 28.71875 65.921875 
Q 24.65625 65.921875 20.015625 65.03125 
Q 15.375 64.15625 9.8125 62.3125 
L 9.8125 71.09375 
Q 15.4375 72.65625 20.34375 73.4375 
Q 25.25 74.21875 29.59375 74.21875 
Q 40.828125 74.21875 47.359375 69.109375 
Q 53.90625 64.015625 53.90625 55.328125 
Q 53.90625 49.265625 50.4375 45.09375 
Q 46.96875 40.921875 40.578125 39.3125 
z
" id="DejaVuSans-33"/>
     <path d="M 19.671875 64.796875 
L 19.671875 8.109375 
L 31.59375 8.109375 
Q 46.6875 8.109375 53.6875 14.9375 
Q 60.6875 21.78125 60.6875 36.53125 
Q 60.6875 51.171875 53.6875 57.984375 
Q 46.6875 64.796875 31.59375 64.796875 
z
M 9.8125 72.90625 
L 30.078125 72.90625 
Q 51.265625 72.90625 61.171875 64.09375 
Q 71.09375 55.28125 71.09375 36.53125 
Q 71.09375 17.671875 61.125 8.828125 
Q 51.171875 0 30.078125 0 
L 9.8125 0 
z
" id="DejaVuSans-44"/>
    </defs>
    <g transform="translate(59.55864 28.89775)scale(0.102 -0.102)">
     <use xlink:href="#DejaVuSans-4d"/>
     <use x="86.279297" xlink:href="#DejaVuSans-69"/>
     <use x="114.0625" xlink:href="#DejaVuSans-73"/>
     <use x="166.162109" xlink:href="#DejaVuSans-63"/>
     <use x="221.142578" xlink:href="#DejaVuSans-2e"/>
     <use x="252.929688" xlink:href="#DejaVuSans-20"/>
     <use x="284.716797" xlink:href="#DejaVuSans-6d"/>
     <use x="382.128906" xlink:href="#DejaVuSans-6f"/>
     <use x="443.310547" xlink:href="#DejaVuSans-64"/>
     <use x="506.787109" xlink:href="#DejaVuSans-65"/>
     <use x="568.310547" xlink:href="#DejaVuSans-72"/>
     <use x="609.423828" xlink:href="#DejaVuSans-61"/>
     <use x="670.703125" xlink:href="#DejaVuSans-74"/>
     <use x="709.912109" xlink:href="#DejaVuSans-65"/>
     <use x="771.435547" xlink:href="#DejaVuSans-20"/>
     <use x="803.222656" xlink:href="#DejaVuSans-66"/>
     <use x="838.427734" xlink:href="#DejaVuSans-75"/>
     <use x="901.806641" xlink:href="#DejaVuSans-6e"/>
     <use x="965.185547" xlink:href="#DejaVuSans-63"/>
     <use x="1020.166016" xlink:href="#DejaVuSans-74"/>
     <use x="1059.375" xlink:href="#DejaVuSans-69"/>
     <use x="1087.158203" xlink:href="#DejaVuSans-6f"/>
     <use x="1148.339844" xlink:href="#DejaVuSans-6e"/>
     <use x="1211.71875" xlink:href="#DejaVuSans-73"/>
     <use x="1263.818359" xlink:href="#DejaVuSans-2c"/>
     <use x="1295.605469" xlink:href="#DejaVuSans-20"/>
     <use x="1327.392578" xlink:href="#DejaVuSans-33"/>
     <use x="1391.015625" xlink:href="#DejaVuSans-2d"/>
     <use x="1427.099609" xlink:href="#DejaVuSans-44"/>
    </g>
    <!-- 51 targets: 100..1e-08 -->
    <defs>
     <path d="M 10.796875 72.90625 
L 49.515625 72.90625 
L 49.515625 64.59375 
L 19.828125 64.59375 
L 19.828125 46.734375 
Q 21.96875 47.46875 24.109375 47.828125 
Q 26.265625 48.1875 28.421875 48.1875 
Q 40.625 48.1875 47.75 41.5 
Q 54.890625 34.8125 54.890625 23.390625 
Q 54.890625 11.625 47.5625 5.09375 
Q 40.234375 -1.421875 26.90625 -1.421875 
Q 22.3125 -1.421875 17.546875 -0.640625 
Q 12.796875 0.140625 7.71875 1.703125 
L 7.71875 11.625 
Q 12.109375 9.234375 16.796875 8.0625 
Q 21.484375 6.890625 26.703125 6.890625 
Q 35.15625 6.890625 40.078125 11.328125 
Q 45.015625 15.765625 45.015625 23.390625 
Q 45.015625 31 40.078125 35.4375 
Q 35.15625 39.890625 26.703125 39.890625 
Q 22.75 39.890625 18.8125 39.015625 
Q 14.890625 38.140625 10.796875 36.28125 
z
" id="DejaVuSans-35"/>
     <path d="M 11.71875 12.40625 
L 22.015625 12.40625 
L 22.015625 0 
L 11.71875 0 
z
M 11.71875 51.703125 
L 22.015625 51.703125 
L 22.015625 39.3125 
L 11.71875 39.3125 
z
" id="DejaVuSans-3a"/>
    </defs>
    <g transform="translate(59.55864 40.319519)scale(0.102 -0.102)">
     <use xlink:href="#DejaVuSans-35"/>
     <use x="63.623047" xlink:href="#DejaVuSans-31"/>
     <use x="127.246094" xlink:href="#DejaVuSans-20"/>
     <use x="159.033203" xlink:href="#DejaVuSans-74"/>
     <use x="198.242188" xlink:href="#DejaVuSans-61"/>
     <use x="259.521484" xlink:href="#DejaVuSans-72"/>
     <use x="300.619141" xlink:href="#DejaVuSans-67"/>
     <use x="364.095703" xlink:href="#DejaVuSans-65"/>
     <use x="425.619141" xlink:href="#DejaVuSans-74"/>
     <use x="464.828125" xlink:href="#DejaVuSans-73"/>
     <use x="516.927734" xlink:href="#DejaVuSans-3a"/>
     <use x="550.619141" xlink:href="#DejaVuSans-20"/>
     <use x="582.40625" xlink:href="#DejaVuSans-31"/>
     <use x="646.029297" xlink:href="#DejaVuSans-30"/>
     <use x="709.652344" xlink:href="#DejaVuSans-30"/>
     <use x="773.275391" xlink:href="#DejaVuSans-2e"/>
     <use x="805.0625" xlink:href="#DejaVuSans-2e"/>
     <use x="836.849609" xlink:href="#DejaVuSans-31"/>
     <use x="900.472656" xlink:href="#DejaVuSans-65"/>
     <use x="961.996094" xlink:href="#DejaVuSans-2d"/>
     <use x="998.080078" xlink:href="#DejaVuSans-30"/>
     <use x="1061.703125" xlink:href="#DejaVuSans-38"/>
    </g>
    <!-- 15 instances -->
    <g transform="translate(59.55864 51.741288)scale(0.102 -0.102)">
     <use xlink:href="#DejaVuSans-31"/>
     <use x="63.623047" xlink:href="#DejaVuSans-35"/>
     <use x="127.246094" xlink:href="#DejaVuSans-20"/>
     <use x="159.033203" xlink:href="#DejaVuSans-69"/>
     <use x="186.816406" xlink:href="#DejaVuSans-6e"/>
     <use x="250.195312" xlink:href="#DejaVuSans-73"/>
     <use x="302.294922" xlink:href="#DejaVuSans-74"/>
     <use x="341.503906" xlink:href="#DejaVuSans-61"/>
     <use x="402.783203" xlink:href="#DejaVuSans-6e"/>
     <use x="466.162109" xlink:href="#DejaVuSans-63"/>
     <use x="521.142578" xlink:href="#DejaVuSans-65"/>
     <use x="582.666016" xlink:href="#DejaVuSans-73"/>
    </g>
   </g>
   <g id="text_19">
    <!-- v2.2.1.10 -->
    <g style="fill:#808080;" transform="translate(204.419188 289.919965)scale(0.1 -0.1)">
     <use xlink:href="#DejaVuSans-76"/>
     <use x="59.179688" xlink:href="#DejaVuSans-32"/>
     <use x="122.802734" xlink:href="#DejaVuSans-2e"/>
     <use x="154.589844" xlink:href="#DejaVuSans-32"/>
     <use x="218.212891" xlink:href="#DejaVuSans-2e"/>
     <use x="250" xlink:href="#DejaVuSans-31"/>
     <use x="313.623047" xlink:href="#DejaVuSans-2e"/>
     <use x="345.410156" xlink:href="#DejaVuSans-31"/>
     <use x="409.033203" xlink:href="#DejaVuSans-30"/>
    </g>
   </g>
  </g>
 </g>
 <defs>
  <clipPath id="pc403cee50a">
   <rect height="288.034772" width="343.864" x="56.12" y="6.845228"/>
  </clipPath>
 </defs>
</svg>
