<?xml version="1.0" encoding="utf-8" standalone="no"?>
<!DOCTYPE svg PUBLIC "-//W3C//DTD SVG 1.1//EN"
  "http://www.w3.org/Graphics/SVG/1.1/DTD/svg11.dtd">
<!-- Created with matplotlib (http://matplotlib.org/) -->
<svg height="345.6pt" version="1.1" viewBox="0 0 460.8 345.6" width="460.8pt" xmlns="http://www.w3.org/2000/svg" xmlns:xlink="http://www.w3.org/1999/xlink">
 <defs>
  <style type="text/css">
*{stroke-linecap:butt;stroke-linejoin:round;}
  </style>
 </defs>
 <g id="figure_1">
  <g id="patch_1">
   <path d="M 0 345.6 
L 460.8 345.6 
L 460.8 0 
L 0 0 
z
" style="fill:#ffffff;"/>
  </g>
  <g id="axes_1">
   <g id="patch_2">
    <path d="M 56.12 294.88 
L 399.984 294.88 
L 399.984 6.845228 
L 56.12 6.845228 
z
" style="fill:#ffffff;"/>
   </g>
   <g id="matplotlib.axis_1">
    <g id="xtick_1">
     <g id="line2d_1">
      <path clip-path="url(#p64d87c3594)" d="M 56.12 294.88 
L 56.12 6.845228 
" style="fill:none;stroke:#b0b0b0;stroke-linecap:square;stroke-width:0.8;"/>
     </g>
     <g id="line2d_2">
      <defs>
       <path d="M 0 0 
L 0 3.5 
" id="m53dfd0130c" style="stroke:#000000;stroke-width:0.8;"/>
      </defs>
      <g>
       <use style="stroke:#000000;stroke-width:0.8;" x="56.12" xlink:href="#m53dfd0130c" y="294.88"/>
      </g>
     </g>
     <g id="text_1">
      <!-- 0 -->
      <defs>
       <path d="M 31.78125 66.40625 
Q 24.171875 66.40625 20.328125 58.90625 
Q 16.5 51.421875 16.5 36.375 
Q 16.5 21.390625 20.328125 13.890625 
Q 24.171875 6.390625 31.78125 6.390625 
Q 39.453125 6.390625 43.28125 13.890625 
Q 47.125 21.390625 47.125 36.375 
Q 47.125 51.421875 43.28125 58.90625 
Q 39.453125 66.40625 31.78125 66.40625 
z
M 31.78125 74.21875 
Q 44.046875 74.21875 50.515625 64.515625 
Q 56.984375 54.828125 56.984375 36.375 
Q 56.984375 17.96875 50.515625 8.265625 
Q 44.046875 -1.421875 31.78125 -1.421875 
Q 19.53125 -1.421875 13.0625 8.265625 
Q 6.59375 17.96875 6.59375 36.375 
Q 6.59375 54.828125 13.0625 64.515625 
Q 19.53125 74.21875 31.78125 74.21875 
z
" id="DejaVuSans-30"/>
      </defs>
      <g transform="translate(49.7575 317.076875)scale(0.2 -0.2)">
       <use xlink:href="#DejaVuSans-30"/>
      </g>
     </g>
    </g>
    <g id="xtick_2">
     <g id="line2d_3">
      <path clip-path="url(#p64d87c3594)" d="M 135.351336 294.88 
L 135.351336 6.845228 
" style="fill:none;stroke:#b0b0b0;stroke-linecap:square;stroke-width:0.8;"/>
     </g>
     <g id="line2d_4">
      <g>
       <use style="stroke:#000000;stroke-width:0.8;" x="135.351336" xlink:href="#m53dfd0130c" y="294.88"/>
      </g>
     </g>
     <g id="text_2">
      <!-- 2 -->
      <defs>
       <path d="M 19.1875 8.296875 
L 53.609375 8.296875 
L 53.609375 0 
L 7.328125 0 
L 7.328125 8.296875 
Q 12.9375 14.109375 22.625 23.890625 
Q 32.328125 33.6875 34.8125 36.53125 
Q 39.546875 41.84375 41.421875 45.53125 
Q 43.3125 49.21875 43.3125 52.78125 
Q 43.3125 58.59375 39.234375 62.25 
Q 35.15625 65.921875 28.609375 65.921875 
Q 23.96875 65.921875 18.8125 64.3125 
Q 13.671875 62.703125 7.8125 59.421875 
L 7.8125 69.390625 
Q 13.765625 71.78125 18.9375 73 
Q 24.125 74.21875 28.421875 74.21875 
Q 39.75 74.21875 46.484375 68.546875 
Q 53.21875 62.890625 53.21875 53.421875 
Q 53.21875 48.921875 51.53125 44.890625 
Q 49.859375 40.875 45.40625 35.40625 
Q 44.1875 33.984375 37.640625 27.21875 
Q 31.109375 20.453125 19.1875 8.296875 
z
" id="DejaVuSans-32"/>
      </defs>
      <g transform="translate(128.988836 317.076875)scale(0.2 -0.2)">
       <use xlink:href="#DejaVuSans-32"/>
      </g>
     </g>
    </g>
    <g id="xtick_3">
     <g id="line2d_5">
      <path clip-path="url(#p64d87c3594)" d="M 214.582673 294.88 
L 214.582673 6.845228 
" style="fill:none;stroke:#b0b0b0;stroke-linecap:square;stroke-width:0.8;"/>
     </g>
     <g id="line2d_6">
      <g>
       <use style="stroke:#000000;stroke-width:0.8;" x="214.582673" xlink:href="#m53dfd0130c" y="294.88"/>
      </g>
     </g>
     <g id="text_3">
      <!-- 4 -->
      <defs>
       <path d="M 37.796875 64.3125 
L 12.890625 25.390625 
L 37.796875 25.390625 
z
M 35.203125 72.90625 
L 47.609375 72.90625 
L 47.609375 25.390625 
L 58.015625 25.390625 
L 58.015625 17.1875 
L 47.609375 17.1875 
L 47.609375 0 
L 37.796875 0 
L 37.796875 17.1875 
L 4.890625 17.1875 
L 4.890625 26.703125 
z
" id="DejaVuSans-34"/>
      </defs>
      <g transform="translate(208.220173 317.076875)scale(0.2 -0.2)">
       <use xlink:href="#DejaVuSans-34"/>
      </g>
     </g>
    </g>
    <g id="xtick_4">
     <g id="line2d_7">
      <path clip-path="url(#p64d87c3594)" d="M 293.814009 294.88 
L 293.814009 6.845228 
" style="fill:none;stroke:#b0b0b0;stroke-linecap:square;stroke-width:0.8;"/>
     </g>
     <g id="line2d_8">
      <g>
       <use style="stroke:#000000;stroke-width:0.8;" x="293.814009" xlink:href="#m53dfd0130c" y="294.88"/>
      </g>
     </g>
     <g id="text_4">
      <!-- 6 -->
      <defs>
       <path d="M 33.015625 40.375 
Q 26.375 40.375 22.484375 35.828125 
Q 18.609375 31.296875 18.609375 23.390625 
Q 18.609375 15.53125 22.484375 10.953125 
Q 26.375 6.390625 33.015625 6.390625 
Q 39.65625 6.390625 43.53125 10.953125 
Q 47.40625 15.53125 47.40625 23.390625 
Q 47.40625 31.296875 43.53125 35.828125 
Q 39.65625 40.375 33.015625 40.375 
z
M 52.59375 71.296875 
L 52.59375 62.3125 
Q 48.875 64.0625 45.09375 64.984375 
Q 41.3125 65.921875 37.59375 65.921875 
Q 27.828125 65.921875 22.671875 59.328125 
Q 17.53125 52.734375 16.796875 39.40625 
Q 19.671875 43.65625 24.015625 45.921875 
Q 28.375 48.1875 33.59375 48.1875 
Q 44.578125 48.1875 50.953125 41.515625 
Q 57.328125 34.859375 57.328125 23.390625 
Q 57.328125 12.15625 50.6875 5.359375 
Q 44.046875 -1.421875 33.015625 -1.421875 
Q 20.359375 -1.421875 13.671875 8.265625 
Q 6.984375 17.96875 6.984375 36.375 
Q 6.984375 53.65625 15.1875 63.9375 
Q 23.390625 74.21875 37.203125 74.21875 
Q 40.921875 74.21875 44.703125 73.484375 
Q 48.484375 72.75 52.59375 71.296875 
z
" id="DejaVuSans-36"/>
      </defs>
      <g transform="translate(287.451509 317.076875)scale(0.2 -0.2)">
       <use xlink:href="#DejaVuSans-36"/>
      </g>
     </g>
    </g>
    <g id="xtick_5">
     <g id="line2d_9">
      <path clip-path="url(#p64d87c3594)" d="M 373.045346 294.88 
L 373.045346 6.845228 
" style="fill:none;stroke:#b0b0b0;stroke-linecap:square;stroke-width:0.8;"/>
     </g>
     <g id="line2d_10">
      <g>
       <use style="stroke:#000000;stroke-width:0.8;" x="373.045346" xlink:href="#m53dfd0130c" y="294.88"/>
      </g>
     </g>
     <g id="text_5">
      <!-- 8 -->
      <defs>
       <path d="M 31.78125 34.625 
Q 24.75 34.625 20.71875 30.859375 
Q 16.703125 27.09375 16.703125 20.515625 
Q 16.703125 13.921875 20.71875 10.15625 
Q 24.75 6.390625 31.78125 6.390625 
Q 38.8125 6.390625 42.859375 10.171875 
Q 46.921875 13.96875 46.921875 20.515625 
Q 46.921875 27.09375 42.890625 30.859375 
Q 38.875 34.625 31.78125 34.625 
z
M 21.921875 38.8125 
Q 15.578125 40.375 12.03125 44.71875 
Q 8.5 49.078125 8.5 55.328125 
Q 8.5 64.0625 14.71875 69.140625 
Q 20.953125 74.21875 31.78125 74.21875 
Q 42.671875 74.21875 48.875 69.140625 
Q 55.078125 64.0625 55.078125 55.328125 
Q 55.078125 49.078125 51.53125 44.71875 
Q 48 40.375 41.703125 38.8125 
Q 48.828125 37.15625 52.796875 32.3125 
Q 56.78125 27.484375 56.78125 20.515625 
Q 56.78125 9.90625 50.3125 4.234375 
Q 43.84375 -1.421875 31.78125 -1.421875 
Q 19.734375 -1.421875 13.25 4.234375 
Q 6.78125 9.90625 6.78125 20.515625 
Q 6.78125 27.484375 10.78125 32.3125 
Q 14.796875 37.15625 21.921875 38.8125 
z
M 18.3125 54.390625 
Q 18.3125 48.734375 21.84375 45.5625 
Q 25.390625 42.390625 31.78125 42.390625 
Q 38.140625 42.390625 41.71875 45.5625 
Q 45.3125 48.734375 45.3125 54.390625 
Q 45.3125 60.0625 41.71875 63.234375 
Q 38.140625 66.40625 31.78125 66.40625 
Q 25.390625 66.40625 21.84375 63.234375 
Q 18.3125 60.0625 18.3125 54.390625 
z
" id="DejaVuSans-38"/>
      </defs>
      <g transform="translate(366.682846 317.076875)scale(0.2 -0.2)">
       <use xlink:href="#DejaVuSans-38"/>
      </g>
     </g>
    </g>
    <g id="text_6">
     <!-- log10(# f-evals / dimension) -->
     <defs>
      <path d="M 9.421875 75.984375 
L 18.40625 75.984375 
L 18.40625 0 
L 9.421875 0 
z
" id="DejaVuSans-6c"/>
      <path d="M 30.609375 48.390625 
Q 23.390625 48.390625 19.1875 42.75 
Q 14.984375 37.109375 14.984375 27.296875 
Q 14.984375 17.484375 19.15625 11.84375 
Q 23.34375 6.203125 30.609375 6.203125 
Q 37.796875 6.203125 41.984375 11.859375 
Q 46.1875 17.53125 46.1875 27.296875 
Q 46.1875 37.015625 41.984375 42.703125 
Q 37.796875 48.390625 30.609375 48.390625 
z
M 30.609375 56 
Q 42.328125 56 49.015625 48.375 
Q 55.71875 40.765625 55.71875 27.296875 
Q 55.71875 13.875 49.015625 6.21875 
Q 42.328125 -1.421875 30.609375 -1.421875 
Q 18.84375 -1.421875 12.171875 6.21875 
Q 5.515625 13.875 5.515625 27.296875 
Q 5.515625 40.765625 12.171875 48.375 
Q 18.84375 56 30.609375 56 
z
" id="DejaVuSans-6f"/>
      <path d="M 45.40625 27.984375 
Q 45.40625 37.75 41.375 43.109375 
Q 37.359375 48.484375 30.078125 48.484375 
Q 22.859375 48.484375 18.828125 43.109375 
Q 14.796875 37.75 14.796875 27.984375 
Q 14.796875 18.265625 18.828125 12.890625 
Q 22.859375 7.515625 30.078125 7.515625 
Q 37.359375 7.515625 41.375 12.890625 
Q 45.40625 18.265625 45.40625 27.984375 
z
M 54.390625 6.78125 
Q 54.390625 -7.171875 48.1875 -13.984375 
Q 42 -20.796875 29.203125 -20.796875 
Q 24.46875 -20.796875 20.265625 -20.09375 
Q 16.0625 -19.390625 12.109375 -17.921875 
L 12.109375 -9.1875 
Q 16.0625 -11.328125 19.921875 -12.34375 
Q 23.78125 -13.375 27.78125 -13.375 
Q 36.625 -13.375 41.015625 -8.765625 
Q 45.40625 -4.15625 45.40625 5.171875 
L 45.40625 9.625 
Q 42.625 4.78125 38.28125 2.390625 
Q 33.9375 0 27.875 0 
Q 17.828125 0 11.671875 7.65625 
Q 5.515625 15.328125 5.515625 27.984375 
Q 5.515625 40.671875 11.671875 48.328125 
Q 17.828125 56 27.875 56 
Q 33.9375 56 38.28125 53.609375 
Q 42.625 51.21875 45.40625 46.390625 
L 45.40625 54.6875 
L 54.390625 54.6875 
z
" id="DejaVuSans-67"/>
      <path d="M 12.40625 8.296875 
L 28.515625 8.296875 
L 28.515625 63.921875 
L 10.984375 60.40625 
L 10.984375 69.390625 
L 28.421875 72.90625 
L 38.28125 72.90625 
L 38.28125 8.296875 
L 54.390625 8.296875 
L 54.390625 0 
L 12.40625 0 
z
" id="DejaVuSans-31"/>
      <path d="M 31 75.875 
Q 24.46875 64.65625 21.28125 53.65625 
Q 18.109375 42.671875 18.109375 31.390625 
Q 18.109375 20.125 21.3125 9.0625 
Q 24.515625 -2 31 -13.1875 
L 23.1875 -13.1875 
Q 15.875 -1.703125 12.234375 9.375 
Q 8.59375 20.453125 8.59375 31.390625 
Q 8.59375 42.28125 12.203125 53.3125 
Q 15.828125 64.359375 23.1875 75.875 
z
" id="DejaVuSans-28"/>
      <path d="M 51.125 44 
L 36.921875 44 
L 32.8125 27.6875 
L 47.125 27.6875 
z
M 43.796875 71.78125 
L 38.71875 51.515625 
L 52.984375 51.515625 
L 58.109375 71.78125 
L 65.921875 71.78125 
L 60.890625 51.515625 
L 76.125 51.515625 
L 76.125 44 
L 58.984375 44 
L 54.984375 27.6875 
L 70.515625 27.6875 
L 70.515625 20.21875 
L 53.078125 20.21875 
L 48 0 
L 40.1875 0 
L 45.21875 20.21875 
L 30.90625 20.21875 
L 25.875 0 
L 18.015625 0 
L 23.09375 20.21875 
L 7.71875 20.21875 
L 7.71875 27.6875 
L 24.90625 27.6875 
L 29 44 
L 13.28125 44 
L 13.28125 51.515625 
L 30.90625 51.515625 
L 35.890625 71.78125 
z
" id="DejaVuSans-23"/>
      <path id="DejaVuSans-20"/>
      <path d="M 37.109375 75.984375 
L 37.109375 68.5 
L 28.515625 68.5 
Q 23.6875 68.5 21.796875 66.546875 
Q 19.921875 64.59375 19.921875 59.515625 
L 19.921875 54.6875 
L 34.71875 54.6875 
L 34.71875 47.703125 
L 19.921875 47.703125 
L 19.921875 0 
L 10.890625 0 
L 10.890625 47.703125 
L 2.296875 47.703125 
L 2.296875 54.6875 
L 10.890625 54.6875 
L 10.890625 58.5 
Q 10.890625 67.625 15.140625 71.796875 
Q 19.390625 75.984375 28.609375 75.984375 
z
" id="DejaVuSans-66"/>
      <path d="M 4.890625 31.390625 
L 31.203125 31.390625 
L 31.203125 23.390625 
L 4.890625 23.390625 
z
" id="DejaVuSans-2d"/>
      <path d="M 56.203125 29.59375 
L 56.203125 25.203125 
L 14.890625 25.203125 
Q 15.484375 15.921875 20.484375 11.0625 
Q 25.484375 6.203125 34.421875 6.203125 
Q 39.59375 6.203125 44.453125 7.46875 
Q 49.3125 8.734375 54.109375 11.28125 
L 54.109375 2.78125 
Q 49.265625 0.734375 44.1875 -0.34375 
Q 39.109375 -1.421875 33.890625 -1.421875 
Q 20.796875 -1.421875 13.15625 6.1875 
Q 5.515625 13.8125 5.515625 26.8125 
Q 5.515625 40.234375 12.765625 48.109375 
Q 20.015625 56 32.328125 56 
Q 43.359375 56 49.78125 48.890625 
Q 56.203125 41.796875 56.203125 29.59375 
z
M 47.21875 32.234375 
Q 47.125 39.59375 43.09375 43.984375 
Q 39.0625 48.390625 32.421875 48.390625 
Q 24.90625 48.390625 20.390625 44.140625 
Q 15.875 39.890625 15.1875 32.171875 
z
" id="DejaVuSans-65"/>
      <path d="M 2.984375 54.6875 
L 12.5 54.6875 
L 29.59375 8.796875 
L 46.6875 54.6875 
L 56.203125 54.6875 
L 35.6875 0 
L 23.484375 0 
z
" id="DejaVuSans-76"/>
      <path d="M 34.28125 27.484375 
Q 23.390625 27.484375 19.1875 25 
Q 14.984375 22.515625 14.984375 16.5 
Q 14.984375 11.71875 18.140625 8.90625 
Q 21.296875 6.109375 26.703125 6.109375 
Q 34.1875 6.109375 38.703125 11.40625 
Q 43.21875 16.703125 43.21875 25.484375 
L 43.21875 27.484375 
z
M 52.203125 31.203125 
L 52.203125 0 
L 43.21875 0 
L 43.21875 8.296875 
Q 40.140625 3.328125 35.546875 0.953125 
Q 30.953125 -1.421875 24.3125 -1.421875 
Q 15.921875 -1.421875 10.953125 3.296875 
Q 6 8.015625 6 15.921875 
Q 6 25.140625 12.171875 29.828125 
Q 18.359375 34.515625 30.609375 34.515625 
L 43.21875 34.515625 
L 43.21875 35.40625 
Q 43.21875 41.609375 39.140625 45 
Q 35.0625 48.390625 27.6875 48.390625 
Q 23 48.390625 18.546875 47.265625 
Q 14.109375 46.140625 10.015625 43.890625 
L 10.015625 52.203125 
Q 14.9375 54.109375 19.578125 55.046875 
Q 24.21875 56 28.609375 56 
Q 40.484375 56 46.34375 49.84375 
Q 52.203125 43.703125 52.203125 31.203125 
z
" id="DejaVuSans-61"/>
      <path d="M 44.28125 53.078125 
L 44.28125 44.578125 
Q 40.484375 46.53125 36.375 47.5 
Q 32.28125 48.484375 27.875 48.484375 
Q 21.1875 48.484375 17.84375 46.4375 
Q 14.5 44.390625 14.5 40.28125 
Q 14.5 37.15625 16.890625 35.375 
Q 19.28125 33.59375 26.515625 31.984375 
L 29.59375 31.296875 
Q 39.15625 29.25 43.1875 25.515625 
Q 47.21875 21.78125 47.21875 15.09375 
Q 47.21875 7.46875 41.1875 3.015625 
Q 35.15625 -1.421875 24.609375 -1.421875 
Q 20.21875 -1.421875 15.453125 -0.5625 
Q 10.6875 0.296875 5.421875 2 
L 5.421875 11.28125 
Q 10.40625 8.6875 15.234375 7.390625 
Q 20.0625 6.109375 24.8125 6.109375 
Q 31.15625 6.109375 34.5625 8.28125 
Q 37.984375 10.453125 37.984375 14.40625 
Q 37.984375 18.0625 35.515625 20.015625 
Q 33.0625 21.96875 24.703125 23.78125 
L 21.578125 24.515625 
Q 13.234375 26.265625 9.515625 29.90625 
Q 5.8125 33.546875 5.8125 39.890625 
Q 5.8125 47.609375 11.28125 51.796875 
Q 16.75 56 26.8125 56 
Q 31.78125 56 36.171875 55.265625 
Q 40.578125 54.546875 44.28125 53.078125 
z
" id="DejaVuSans-73"/>
      <path d="M 25.390625 72.90625 
L 33.6875 72.90625 
L 8.296875 -9.28125 
L 0 -9.28125 
z
" id="DejaVuSans-2f"/>
      <path d="M 45.40625 46.390625 
L 45.40625 75.984375 
L 54.390625 75.984375 
L 54.390625 0 
L 45.40625 0 
L 45.40625 8.203125 
Q 42.578125 3.328125 38.25 0.953125 
Q 33.9375 -1.421875 27.875 -1.421875 
Q 17.96875 -1.421875 11.734375 6.484375 
Q 5.515625 14.40625 5.515625 27.296875 
Q 5.515625 40.1875 11.734375 48.09375 
Q 17.96875 56 27.875 56 
Q 33.9375 56 38.25 53.625 
Q 42.578125 51.265625 45.40625 46.390625 
z
M 14.796875 27.296875 
Q 14.796875 17.390625 18.875 11.75 
Q 22.953125 6.109375 30.078125 6.109375 
Q 37.203125 6.109375 41.296875 11.75 
Q 45.40625 17.390625 45.40625 27.296875 
Q 45.40625 37.203125 41.296875 42.84375 
Q 37.203125 48.484375 30.078125 48.484375 
Q 22.953125 48.484375 18.875 42.84375 
Q 14.796875 37.203125 14.796875 27.296875 
z
" id="DejaVuSans-64"/>
      <path d="M 9.421875 54.6875 
L 18.40625 54.6875 
L 18.40625 0 
L 9.421875 0 
z
M 9.421875 75.984375 
L 18.40625 75.984375 
L 18.40625 64.59375 
L 9.421875 64.59375 
z
" id="DejaVuSans-69"/>
      <path d="M 52 44.1875 
Q 55.375 50.25 60.0625 53.125 
Q 64.75 56 71.09375 56 
Q 79.640625 56 84.28125 50.015625 
Q 88.921875 44.046875 88.921875 33.015625 
L 88.921875 0 
L 79.890625 0 
L 79.890625 32.71875 
Q 79.890625 40.578125 77.09375 44.375 
Q 74.3125 48.1875 68.609375 48.1875 
Q 61.625 48.1875 57.5625 43.546875 
Q 53.515625 38.921875 53.515625 30.90625 
L 53.515625 0 
L 44.484375 0 
L 44.484375 32.71875 
Q 44.484375 40.625 41.703125 44.40625 
Q 38.921875 48.1875 33.109375 48.1875 
Q 26.21875 48.1875 22.15625 43.53125 
Q 18.109375 38.875 18.109375 30.90625 
L 18.109375 0 
L 9.078125 0 
L 9.078125 54.6875 
L 18.109375 54.6875 
L 18.109375 46.1875 
Q 21.1875 51.21875 25.484375 53.609375 
Q 29.78125 56 35.6875 56 
Q 41.65625 56 45.828125 52.96875 
Q 50 49.953125 52 44.1875 
z
" id="DejaVuSans-6d"/>
      <path d="M 54.890625 33.015625 
L 54.890625 0 
L 45.90625 0 
L 45.90625 32.71875 
Q 45.90625 40.484375 42.875 44.328125 
Q 39.84375 48.1875 33.796875 48.1875 
Q 26.515625 48.1875 22.3125 43.546875 
Q 18.109375 38.921875 18.109375 30.90625 
L 18.109375 0 
L 9.078125 0 
L 9.078125 54.6875 
L 18.109375 54.6875 
L 18.109375 46.1875 
Q 21.34375 51.125 25.703125 53.5625 
Q 30.078125 56 35.796875 56 
Q 45.21875 56 50.046875 50.171875 
Q 54.890625 44.34375 54.890625 33.015625 
z
" id="DejaVuSans-6e"/>
      <path d="M 8.015625 75.875 
L 15.828125 75.875 
Q 23.140625 64.359375 26.78125 53.3125 
Q 30.421875 42.28125 30.421875 31.390625 
Q 30.421875 20.453125 26.78125 9.375 
Q 23.140625 -1.703125 15.828125 -13.1875 
L 8.015625 -13.1875 
Q 14.5 -2 17.703125 9.0625 
Q 20.90625 20.125 20.90625 31.390625 
Q 20.90625 42.671875 17.703125 53.65625 
Q 14.5 64.65625 8.015625 75.875 
z
" id="DejaVuSans-29"/>
     </defs>
     <g transform="translate(107.211219 338.153594)scale(0.17 -0.17)">
      <use xlink:href="#DejaVuSans-6c"/>
      <use x="27.783203" xlink:href="#DejaVuSans-6f"/>
      <use x="88.964844" xlink:href="#DejaVuSans-67"/>
      <use x="152.441406" xlink:href="#DejaVuSans-31"/>
      <use x="216.064453" xlink:href="#DejaVuSans-30"/>
      <use x="279.6875" xlink:href="#DejaVuSans-28"/>
      <use x="318.701172" xlink:href="#DejaVuSans-23"/>
      <use x="402.490234" xlink:href="#DejaVuSans-20"/>
      <use x="434.277344" xlink:href="#DejaVuSans-66"/>
      <use x="469.404297" xlink:href="#DejaVuSans-2d"/>
      <use x="505.488281" xlink:href="#DejaVuSans-65"/>
      <use x="567.011719" xlink:href="#DejaVuSans-76"/>
      <use x="626.191406" xlink:href="#DejaVuSans-61"/>
      <use x="687.470703" xlink:href="#DejaVuSans-6c"/>
      <use x="715.253906" xlink:href="#DejaVuSans-73"/>
      <use x="767.353516" xlink:href="#DejaVuSans-20"/>
      <use x="799.140625" xlink:href="#DejaVuSans-2f"/>
      <use x="832.832031" xlink:href="#DejaVuSans-20"/>
      <use x="864.619141" xlink:href="#DejaVuSans-64"/>
      <use x="928.095703" xlink:href="#DejaVuSans-69"/>
      <use x="955.878906" xlink:href="#DejaVuSans-6d"/>
      <use x="1053.291016" xlink:href="#DejaVuSans-65"/>
      <use x="1114.814453" xlink:href="#DejaVuSans-6e"/>
      <use x="1178.193359" xlink:href="#DejaVuSans-73"/>
      <use x="1230.292969" xlink:href="#DejaVuSans-69"/>
      <use x="1258.076172" xlink:href="#DejaVuSans-6f"/>
      <use x="1319.257812" xlink:href="#DejaVuSans-6e"/>
      <use x="1382.636719" xlink:href="#DejaVuSans-29"/>
     </g>
    </g>
   </g>
   <g id="matplotlib.axis_2">
    <g id="ytick_1">
     <g id="line2d_11">
      <path clip-path="url(#p64d87c3594)" d="M 56.12 294.88 
L 399.984 294.88 
" style="fill:none;stroke:#b0b0b0;stroke-linecap:square;stroke-width:0.8;"/>
     </g>
     <g id="line2d_12">
      <defs>
       <path d="M 0 0 
L -3.5 0 
" id="m7112f725bf" style="stroke:#000000;stroke-width:0.8;"/>
      </defs>
      <g>
       <use style="stroke:#000000;stroke-width:0.8;" x="56.12" xlink:href="#m7112f725bf" y="294.88"/>
      </g>
     </g>
     <g id="text_7">
      <!-- 0.0 -->
      <defs>
       <path d="M 10.6875 12.40625 
L 21 12.40625 
L 21 0 
L 10.6875 0 
z
" id="DejaVuSans-2e"/>
      </defs>
      <g transform="translate(23.675 300.95875)scale(0.16 -0.16)">
       <use xlink:href="#DejaVuSans-30"/>
       <use x="63.623047" xlink:href="#DejaVuSans-2e"/>
       <use x="95.410156" xlink:href="#DejaVuSans-30"/>
      </g>
     </g>
    </g>
    <g id="ytick_2">
     <g id="line2d_13">
      <path clip-path="url(#p64d87c3594)" d="M 56.12 237.843411 
L 399.984 237.843411 
" style="fill:none;stroke:#b0b0b0;stroke-linecap:square;stroke-width:0.8;"/>
     </g>
     <g id="line2d_14">
      <g>
       <use style="stroke:#000000;stroke-width:0.8;" x="56.12" xlink:href="#m7112f725bf" y="237.843411"/>
      </g>
     </g>
     <g id="text_8">
      <!-- 0.2 -->
      <g transform="translate(23.675 243.922161)scale(0.16 -0.16)">
       <use xlink:href="#DejaVuSans-30"/>
       <use x="63.623047" xlink:href="#DejaVuSans-2e"/>
       <use x="95.410156" xlink:href="#DejaVuSans-32"/>
      </g>
     </g>
    </g>
    <g id="ytick_3">
     <g id="line2d_15">
      <path clip-path="url(#p64d87c3594)" d="M 56.12 180.806823 
L 399.984 180.806823 
" style="fill:none;stroke:#b0b0b0;stroke-linecap:square;stroke-width:0.8;"/>
     </g>
     <g id="line2d_16">
      <g>
       <use style="stroke:#000000;stroke-width:0.8;" x="56.12" xlink:href="#m7112f725bf" y="180.806823"/>
      </g>
     </g>
     <g id="text_9">
      <!-- 0.4 -->
      <g transform="translate(23.675 186.885573)scale(0.16 -0.16)">
       <use xlink:href="#DejaVuSans-30"/>
       <use x="63.623047" xlink:href="#DejaVuSans-2e"/>
       <use x="95.410156" xlink:href="#DejaVuSans-34"/>
      </g>
     </g>
    </g>
    <g id="ytick_4">
     <g id="line2d_17">
      <path clip-path="url(#p64d87c3594)" d="M 56.12 123.770234 
L 399.984 123.770234 
" style="fill:none;stroke:#b0b0b0;stroke-linecap:square;stroke-width:0.8;"/>
     </g>
     <g id="line2d_18">
      <g>
       <use style="stroke:#000000;stroke-width:0.8;" x="56.12" xlink:href="#m7112f725bf" y="123.770234"/>
      </g>
     </g>
     <g id="text_10">
      <!-- 0.6 -->
      <g transform="translate(23.675 129.848984)scale(0.16 -0.16)">
       <use xlink:href="#DejaVuSans-30"/>
       <use x="63.623047" xlink:href="#DejaVuSans-2e"/>
       <use x="95.410156" xlink:href="#DejaVuSans-36"/>
      </g>
     </g>
    </g>
    <g id="ytick_5">
     <g id="line2d_19">
      <path clip-path="url(#p64d87c3594)" d="M 56.12 66.733646 
L 399.984 66.733646 
" style="fill:none;stroke:#b0b0b0;stroke-linecap:square;stroke-width:0.8;"/>
     </g>
     <g id="line2d_20">
      <g>
       <use style="stroke:#000000;stroke-width:0.8;" x="56.12" xlink:href="#m7112f725bf" y="66.733646"/>
      </g>
     </g>
     <g id="text_11">
      <!-- 0.8 -->
      <g transform="translate(23.675 72.812396)scale(0.16 -0.16)">
       <use xlink:href="#DejaVuSans-30"/>
       <use x="63.623047" xlink:href="#DejaVuSans-2e"/>
       <use x="95.410156" xlink:href="#DejaVuSans-38"/>
      </g>
     </g>
    </g>
    <g id="ytick_6">
     <g id="line2d_21">
      <path clip-path="url(#p64d87c3594)" d="M 56.12 9.697057 
L 399.984 9.697057 
" style="fill:none;stroke:#b0b0b0;stroke-linecap:square;stroke-width:0.8;"/>
     </g>
     <g id="line2d_22">
      <g>
       <use style="stroke:#000000;stroke-width:0.8;" x="56.12" xlink:href="#m7112f725bf" y="9.697057"/>
      </g>
     </g>
     <g id="text_12">
      <!-- 1.0 -->
      <g transform="translate(23.675 15.775807)scale(0.16 -0.16)">
       <use xlink:href="#DejaVuSans-31"/>
       <use x="63.623047" xlink:href="#DejaVuSans-2e"/>
       <use x="95.410156" xlink:href="#DejaVuSans-30"/>
      </g>
     </g>
    </g>
    <g id="text_13">
     <!-- Fraction of function,target pairs -->
     <defs>
      <path d="M 9.8125 72.90625 
L 51.703125 72.90625 
L 51.703125 64.59375 
L 19.671875 64.59375 
L 19.671875 43.109375 
L 48.578125 43.109375 
L 48.578125 34.8125 
L 19.671875 34.8125 
L 19.671875 0 
L 9.8125 0 
z
" id="DejaVuSans-46"/>
      <path d="M 41.109375 46.296875 
Q 39.59375 47.171875 37.8125 47.578125 
Q 36.03125 48 33.890625 48 
Q 26.265625 48 22.1875 43.046875 
Q 18.109375 38.09375 18.109375 28.8125 
L 18.109375 0 
L 9.078125 0 
L 9.078125 54.6875 
L 18.109375 54.6875 
L 18.109375 46.1875 
Q 20.953125 51.171875 25.484375 53.578125 
Q 30.03125 56 36.53125 56 
Q 37.453125 56 38.578125 55.875 
Q 39.703125 55.765625 41.0625 55.515625 
z
" id="DejaVuSans-72"/>
      <path d="M 48.78125 52.59375 
L 48.78125 44.1875 
Q 44.96875 46.296875 41.140625 47.34375 
Q 37.3125 48.390625 33.40625 48.390625 
Q 24.65625 48.390625 19.8125 42.84375 
Q 14.984375 37.3125 14.984375 27.296875 
Q 14.984375 17.28125 19.8125 11.734375 
Q 24.65625 6.203125 33.40625 6.203125 
Q 37.3125 6.203125 41.140625 7.25 
Q 44.96875 8.296875 48.78125 10.40625 
L 48.78125 2.09375 
Q 45.015625 0.34375 40.984375 -0.53125 
Q 36.96875 -1.421875 32.421875 -1.421875 
Q 20.0625 -1.421875 12.78125 6.34375 
Q 5.515625 14.109375 5.515625 27.296875 
Q 5.515625 40.671875 12.859375 48.328125 
Q 20.21875 56 33.015625 56 
Q 37.15625 56 41.109375 55.140625 
Q 45.0625 54.296875 48.78125 52.59375 
z
" id="DejaVuSans-63"/>
      <path d="M 18.3125 70.21875 
L 18.3125 54.6875 
L 36.8125 54.6875 
L 36.8125 47.703125 
L 18.3125 47.703125 
L 18.3125 18.015625 
Q 18.3125 11.328125 20.140625 9.421875 
Q 21.96875 7.515625 27.59375 7.515625 
L 36.8125 7.515625 
L 36.8125 0 
L 27.59375 0 
Q 17.1875 0 13.234375 3.875 
Q 9.28125 7.765625 9.28125 18.015625 
L 9.28125 47.703125 
L 2.6875 47.703125 
L 2.6875 54.6875 
L 9.28125 54.6875 
L 9.28125 70.21875 
z
" id="DejaVuSans-74"/>
      <path d="M 8.5 21.578125 
L 8.5 54.6875 
L 17.484375 54.6875 
L 17.484375 21.921875 
Q 17.484375 14.15625 20.5 10.265625 
Q 23.53125 6.390625 29.59375 6.390625 
Q 36.859375 6.390625 41.078125 11.03125 
Q 45.3125 15.671875 45.3125 23.6875 
L 45.3125 54.6875 
L 54.296875 54.6875 
L 54.296875 0 
L 45.3125 0 
L 45.3125 8.40625 
Q 42.046875 3.421875 37.71875 1 
Q 33.40625 -1.421875 27.6875 -1.421875 
Q 18.265625 -1.421875 13.375 4.4375 
Q 8.5 10.296875 8.5 21.578125 
z
M 31.109375 56 
z
" id="DejaVuSans-75"/>
      <path d="M 11.71875 12.40625 
L 22.015625 12.40625 
L 22.015625 4 
L 14.015625 -11.625 
L 7.71875 -11.625 
L 11.71875 4 
z
" id="DejaVuSans-2c"/>
      <path d="M 18.109375 8.203125 
L 18.109375 -20.796875 
L 9.078125 -20.796875 
L 9.078125 54.6875 
L 18.109375 54.6875 
L 18.109375 46.390625 
Q 20.953125 51.265625 25.265625 53.625 
Q 29.59375 56 35.59375 56 
Q 45.5625 56 51.78125 48.09375 
Q 58.015625 40.1875 58.015625 27.296875 
Q 58.015625 14.40625 51.78125 6.484375 
Q 45.5625 -1.421875 35.59375 -1.421875 
Q 29.59375 -1.421875 25.265625 0.953125 
Q 20.953125 3.328125 18.109375 8.203125 
z
M 48.6875 27.296875 
Q 48.6875 37.203125 44.609375 42.84375 
Q 40.53125 48.484375 33.40625 48.484375 
Q 26.265625 48.484375 22.1875 42.84375 
Q 18.109375 37.203125 18.109375 27.296875 
Q 18.109375 17.390625 22.1875 11.75 
Q 26.265625 6.109375 33.40625 6.109375 
Q 40.53125 6.109375 44.609375 11.75 
Q 48.6875 17.390625 48.6875 27.296875 
z
" id="DejaVuSans-70"/>
     </defs>
     <g transform="translate(16.139531 286.001989)rotate(-90)scale(0.17 -0.17)">
      <use xlink:href="#DejaVuSans-46"/>
      <use x="57.410156" xlink:href="#DejaVuSans-72"/>
      <use x="98.523438" xlink:href="#DejaVuSans-61"/>
      <use x="159.802734" xlink:href="#DejaVuSans-63"/>
      <use x="214.783203" xlink:href="#DejaVuSans-74"/>
      <use x="253.992188" xlink:href="#DejaVuSans-69"/>
      <use x="281.775391" xlink:href="#DejaVuSans-6f"/>
      <use x="342.957031" xlink:href="#DejaVuSans-6e"/>
      <use x="406.335938" xlink:href="#DejaVuSans-20"/>
      <use x="438.123047" xlink:href="#DejaVuSans-6f"/>
      <use x="499.304688" xlink:href="#DejaVuSans-66"/>
      <use x="534.509766" xlink:href="#DejaVuSans-20"/>
      <use x="566.296875" xlink:href="#DejaVuSans-66"/>
      <use x="601.501953" xlink:href="#DejaVuSans-75"/>
      <use x="664.880859" xlink:href="#DejaVuSans-6e"/>
      <use x="728.259766" xlink:href="#DejaVuSans-63"/>
      <use x="783.240234" xlink:href="#DejaVuSans-74"/>
      <use x="822.449219" xlink:href="#DejaVuSans-69"/>
      <use x="850.232422" xlink:href="#DejaVuSans-6f"/>
      <use x="911.414062" xlink:href="#DejaVuSans-6e"/>
      <use x="974.792969" xlink:href="#DejaVuSans-2c"/>
      <use x="1006.580078" xlink:href="#DejaVuSans-74"/>
      <use x="1045.789062" xlink:href="#DejaVuSans-61"/>
      <use x="1107.068359" xlink:href="#DejaVuSans-72"/>
      <use x="1148.166016" xlink:href="#DejaVuSans-67"/>
      <use x="1211.642578" xlink:href="#DejaVuSans-65"/>
      <use x="1273.166016" xlink:href="#DejaVuSans-74"/>
      <use x="1312.375" xlink:href="#DejaVuSans-20"/>
      <use x="1344.162109" xlink:href="#DejaVuSans-70"/>
      <use x="1407.638672" xlink:href="#DejaVuSans-61"/>
      <use x="1468.917969" xlink:href="#DejaVuSans-69"/>
      <use x="1496.701172" xlink:href="#DejaVuSans-72"/>
      <use x="1537.814453" xlink:href="#DejaVuSans-73"/>
     </g>
    </g>
   </g>
   <g id="line2d_23">
    <defs>
     <path d="M 0 1.5 
C 0.397805 1.5 0.77937 1.341951 1.06066 1.06066 
C 1.341951 0.77937 1.5 0.397805 1.5 0 
C 1.5 -0.397805 1.341951 -0.77937 1.06066 -1.06066 
C 0.77937 -1.341951 0.397805 -1.5 0 -1.5 
C -0.397805 -1.5 -0.77937 -1.341951 -1.06066 -1.06066 
C -1.341951 -0.77937 -1.5 -0.397805 -1.5 0 
C -1.5 0.397805 -1.341951 0.77937 -1.06066 1.06066 
C -0.77937 1.341951 -0.397805 1.5 0 1.5 
z
" id="mf6f79e89fa" style="stroke:#000080;"/>
    </defs>
    <g>
     <use style="fill:#000080;stroke:#000080;" x="184.291619" xlink:href="#mf6f79e89fa" y="238.961776"/>
     <use style="fill:#000080;stroke:#000080;" x="184.291619" xlink:href="#mf6f79e89fa" y="238.961776"/>
    </g>
   </g>
   <g id="line2d_24">
    <path d="M 112.696514 294.88 
L 112.696514 284.81472 
L 113.202576 284.81472 
L 113.202576 284.255537 
L 113.450132 284.255537 
L 113.450132 283.696355 
L 114.172121 283.696355 
L 114.172121 282.577991 
L 125.619682 282.577991 
L 125.619682 282.018808 
L 125.860313 282.018808 
L 125.860313 280.900444 
L 125.979378 280.900444 
L 125.979378 276.986168 
L 126.215065 276.986168 
L 126.215065 275.308622 
L 127.347373 275.308622 
L 127.347373 274.190257 
L 127.673027 274.190257 
L 127.673027 273.631075 
L 127.780222 273.631075 
L 127.780222 273.071893 
L 127.992631 273.071893 
L 127.992631 272.51271 
L 128.202449 272.51271 
L 128.202449 269.157617 
L 128.614561 269.157617 
L 128.614561 268.039252 
L 128.917294 268.039252 
L 128.917294 266.920888 
L 129.410304 266.920888 
L 129.410304 264.684159 
L 130.170864 264.684159 
L 130.170864 264.124977 
L 130.809845 264.124977 
L 130.809845 262.44743 
L 130.899221 262.44743 
L 130.899221 261.329066 
L 131.076592 261.329066 
L 131.076592 259.092337 
L 131.339267 259.092337 
L 131.339267 256.296425 
L 132.104053 256.296425 
L 132.104053 254.618879 
L 137.423596 254.618879 
L 137.423596 254.059696 
L 143.60888 254.059696 
L 143.60888 253.500514 
L 143.820505 253.500514 
L 143.820505 252.38215 
L 144.029558 252.38215 
L 144.029558 251.822967 
L 144.112473 251.822967 
L 144.112473 249.586238 
L 144.440195 249.586238 
L 144.440195 249.027056 
L 146.717284 249.027056 
L 146.717284 248.467874 
L 150.44231 248.467874 
L 150.44231 247.908692 
L 151.909483 247.908692 
L 151.909483 247.34951 
L 153.065801 247.34951 
L 153.065801 246.790327 
L 155.598146 246.790327 
L 155.598146 246.231145 
L 156.617458 246.231145 
L 156.617458 245.671963 
L 156.924607 245.671963 
L 156.924607 245.112781 
L 158.598297 245.112781 
L 158.598297 244.553598 
L 159.526171 244.553598 
L 159.526171 243.994416 
L 160.318098 243.994416 
L 160.318098 242.876052 
L 160.542373 242.876052 
L 160.542373 242.316869 
L 161.15215 242.316869 
L 161.15215 241.757687 
L 161.763306 241.757687 
L 161.763306 241.198505 
L 170.136349 241.198505 
L 170.136349 240.639323 
L 175.240103 240.639323 
L 175.240103 240.08014 
L 176.69417 240.08014 
L 176.69417 239.520958 
L 184.291619 239.520958 
L 184.291619 238.961776 
L 333.429677 238.961776 
" style="fill:none;stroke:#000080;stroke-linecap:square;stroke-width:1.5;"/>
   </g>
   <g id="line2d_25">
    <defs>
     <path d="M 0 6 
C 1.591219 6 3.117479 5.367802 4.242641 4.242641 
C 5.367802 3.117479 6 1.591219 6 0 
C 6 -1.591219 5.367802 -3.117479 4.242641 -4.242641 
C 3.117479 -5.367802 1.591219 -6 0 -6 
C -1.591219 -6 -3.117479 -5.367802 -4.242641 -4.242641 
C -5.367802 -3.117479 -6 -1.591219 -6 0 
C -6 1.591219 -5.367802 3.117479 -4.242641 4.242641 
C -3.117479 5.367802 -1.591219 6 0 6 
z
" id="m01b15fbc47" style="stroke:#000080;stroke-width:1.5;"/>
    </defs>
    <g>
     <use style="fill-opacity:0;stroke:#000080;stroke-width:1.5;" x="125.979378" xlink:href="#m01b15fbc47" y="280.900444"/>
     <use style="fill-opacity:0;stroke:#000080;stroke-width:1.5;" x="144.029558" xlink:href="#m01b15fbc47" y="251.822967"/>
     <use style="fill-opacity:0;stroke:#000080;stroke-width:1.5;" x="184.291619" xlink:href="#m01b15fbc47" y="239.520958"/>
     <use style="fill-opacity:0;stroke:#000080;stroke-width:1.5;" x="184.291619" xlink:href="#m01b15fbc47" y="238.961776"/>
     <use style="fill-opacity:0;stroke:#000080;stroke-width:1.5;" x="333.429677" xlink:href="#m01b15fbc47" y="238.961776"/>
    </g>
   </g>
   <g id="line2d_26">
    <path style="fill:none;stroke:#000080;stroke-linecap:square;stroke-width:1.5;"/>
    <g/>
   </g>
   <g id="line2d_27">
    <path clip-path="url(#p64d87c3594)" d="M 136.991135 254.618879 
" style="fill:none;stroke:#000080;stroke-linecap:square;stroke-width:1.5;"/>
    <defs>
     <path d="M -12 12 
L 12 -12 
M -12 -12 
L 12 12 
" id="ma2c7ec398e" style="stroke:#000080;stroke-width:3;"/>
    </defs>
    <g clip-path="url(#p64d87c3594)">
     <use style="fill:#000080;stroke:#000080;stroke-width:3;" x="136.991135" xlink:href="#ma2c7ec398e" y="254.618879"/>
    </g>
   </g>
   <g id="line2d_28">
    <defs>
     <path d="M 0 1.5 
C 0.397805 1.5 0.77937 1.341951 1.06066 1.06066 
C 1.341951 0.77937 1.5 0.397805 1.5 0 
C 1.5 -0.397805 1.341951 -0.77937 1.06066 -1.06066 
C 0.77937 -1.341951 0.397805 -1.5 0 -1.5 
C -0.397805 -1.5 -0.77937 -1.341951 -1.06066 -1.06066 
C -1.341951 -0.77937 -1.5 -0.397805 -1.5 0 
C -1.5 0.397805 -1.341951 0.77937 -1.06066 1.06066 
C -0.77937 1.341951 -0.397805 1.5 0 1.5 
z
" id="mf87414abe9" style="stroke:#ff00ff;"/>
    </defs>
    <g>
     <use style="fill:#ff00ff;stroke:#ff00ff;" x="201.899544" xlink:href="#mf87414abe9" y="9.697057"/>
     <use style="fill:#ff00ff;stroke:#ff00ff;" x="201.899544" xlink:href="#mf87414abe9" y="9.697057"/>
    </g>
   </g>
   <g id="line2d_29">
    <path d="M 40.355341 294.88 
L 40.355341 281.459626 
L 107.313588 281.459626 
L 107.313588 279.782079 
L 108.33596 279.782079 
L 108.33596 279.222897 
L 109.300972 279.222897 
L 109.300972 278.104533 
L 110.214719 278.104533 
L 110.214719 276.986168 
L 110.508826 276.986168 
L 110.508826 276.426986 
L 111.908367 276.426986 
L 111.908367 275.308622 
L 112.175115 275.308622 
L 112.175115 274.749439 
L 112.437789 274.749439 
L 112.437789 273.071893 
L 112.696514 273.071893 
L 112.696514 271.953528 
L 113.694177 271.953528 
L 113.694177 270.275981 
L 113.934809 270.275981 
L 113.934809 269.716799 
L 114.172121 269.716799 
L 114.172121 269.157617 
L 114.406204 269.157617 
L 114.406204 268.039252 
L 125.375637 268.039252 
L 125.375637 267.48007 
L 125.860313 267.48007 
L 125.860313 266.920888 
L 125.979378 266.920888 
L 125.979378 266.361706 
L 127.015436 266.361706 
L 127.015436 265.802523 
L 134.139727 265.802523 
L 134.139727 265.243341 
L 135.420019 265.243341 
L 135.420019 264.684159 
L 135.826452 264.684159 
L 135.826452 264.124977 
L 136.547523 264.124977 
L 136.547523 263.006612 
L 137.115809 263.006612 
L 137.115809 262.44743 
L 138.257213 262.44743 
L 138.257213 261.888248 
L 138.716037 261.888248 
L 138.716037 261.329066 
L 139.490663 261.329066 
L 139.544682 259.651519 
L 139.812259 259.651519 
L 139.812259 258.533154 
L 139.97083 258.533154 
L 140.075738 256.855608 
L 140.23191 256.855608 
L 140.23191 255.178061 
L 140.692098 255.178061 
L 140.692098 254.618879 
L 141.432737 254.618879 
L 141.432737 253.500514 
L 143.177658 253.500514 
L 143.177658 252.941332 
L 143.904431 252.941332 
L 143.904431 252.38215 
L 149.440373 252.38215 
L 149.440373 251.263785 
L 149.711322 251.263785 
L 149.711322 250.704603 
L 150.269684 250.704603 
L 150.269684 250.145421 
L 151.737763 250.145421 
L 151.737763 249.586238 
L 151.896335 249.586238 
L 151.896335 249.027056 
L 153.97531 249.027056 
L 153.97531 247.908692 
L 154.206873 247.908692 
L 154.206873 247.34951 
L 154.321496 247.34951 
L 154.321496 245.671963 
L 154.458043 245.671963 
L 154.503319 244.553598 
L 154.683241 244.553598 
L 154.75023 241.198505 
L 154.816958 241.198505 
L 154.927601 238.961776 
L 154.971659 238.961776 
L 154.993646 237.843411 
L 155.124982 237.843411 
L 155.233668 232.810771 
L 155.27695 232.810771 
L 155.384683 230.574042 
L 155.427588 230.574042 
L 155.449 226.659767 
L 155.661671 226.659767 
L 155.746009 224.423038 
L 155.788023 224.423038 
L 155.892613 223.304673 
L 155.913454 223.304673 
L 155.913454 222.186309 
L 156.037977 222.186309 
L 156.079286 217.153669 
L 156.161606 217.153669 
L 156.161606 216.594486 
L 156.325074 216.594486 
L 156.325074 216.035304 
L 156.446663 216.035304 
L 156.547336 213.798575 
L 156.786573 213.798575 
L 156.786573 212.680211 
L 157.541888 212.680211 
L 157.541888 212.121028 
L 158.009186 212.121028 
L 158.046028 210.443482 
L 158.265434 210.443482 
L 158.265434 209.884299 
L 158.517921 209.884299 
L 158.517921 208.765935 
L 158.713736 208.765935 
L 158.713736 208.206753 
L 158.907348 208.206753 
L 158.907348 207.088388 
L 159.185132 207.088388 
L 159.185132 206.529206 
L 160.700798 206.529206 
L 160.795158 205.410841 
L 161.501885 205.410841 
L 161.576983 204.292477 
L 161.66667 204.292477 
L 161.696462 203.174112 
L 162.296097 203.174112 
L 162.296097 202.61493 
L 162.481943 202.61493 
L 162.496156 201.496566 
L 162.770989 201.496566 
L 162.805908 198.700655 
L 163.027731 198.700655 
L 163.123886 197.58229 
L 163.164931 197.58229 
L 163.260325 195.345561 
L 163.301047 195.345561 
L 163.39569 193.108832 
L 163.44954 193.108832 
L 163.503221 190.872103 
L 163.570088 190.872103 
L 163.570088 189.753739 
L 163.689798 189.753739 
L 163.729517 186.398645 
L 163.80868 186.398645 
L 163.90058 184.721099 
L 163.978962 184.721099 
L 164.082919 180.806823 
L 164.134663 180.806823 
L 164.211989 178.010912 
L 164.391074 178.010912 
L 164.391074 177.451729 
L 164.606059 177.451729 
L 164.706306 176.333365 
L 164.830799 176.333365 
L 164.830799 175.774183 
L 165.125958 175.774183 
L 165.125958 174.655818 
L 165.404144 174.655818 
L 165.404144 174.096636 
L 165.583177 174.096636 
L 165.630606 171.859907 
L 165.725074 171.859907 
L 165.730961 170.741543 
L 166.069007 170.741543 
L 166.166844 169.063996 
L 166.94111 169.063996 
L 167.017746 167.945631 
L 167.126638 167.945631 
L 167.229451 166.268085 
L 167.245629 166.268085 
L 167.353092 165.14972 
L 167.491799 165.14972 
L 167.587176 163.472173 
L 167.650468 163.472173 
L 167.739735 161.794627 
L 167.953139 161.794627 
L 167.953139 161.235444 
L 168.240407 161.235444 
L 168.260743 160.11708 
L 168.362068 160.11708 
L 168.412507 157.880351 
L 168.502927 157.880351 
L 168.512945 156.202804 
L 168.652579 156.202804 
L 168.761502 153.966075 
L 168.810786 153.966075 
L 168.908932 152.288529 
L 168.928494 152.288529 
L 169.030831 151.170164 
L 169.074505 151.170164 
L 169.180797 149.492617 
L 169.209673 149.492617 
L 169.305575 145.019159 
L 169.362861 145.019159 
L 169.467393 142.223248 
L 169.48633 142.223248 
L 169.571293 141.104884 
L 169.623008 141.104884 
L 169.623008 140.545702 
L 169.758609 140.545702 
L 169.814409 139.427337 
L 169.962329 139.427337 
L 169.962329 138.868155 
L 170.290572 138.868155 
L 170.38065 137.74979 
L 170.470259 137.74979 
L 170.541611 136.072244 
L 170.683435 136.072244 
L 170.683435 134.394697 
L 170.980983 134.394697 
L 170.980983 133.835515 
L 171.102023 133.835515 
L 171.187962 132.157968 
L 171.426331 132.157968 
L 171.426331 131.598786 
L 171.577842 131.598786 
L 171.577842 131.039603 
L 171.761229 131.039603 
L 171.761229 130.480421 
L 171.942682 130.480421 
L 171.942682 129.921239 
L 172.356105 129.921239 
L 172.451954 128.243692 
L 172.642065 128.243692 
L 172.681408 126.566145 
L 172.806706 126.566145 
L 172.915598 125.447781 
L 172.938843 125.447781 
L 173.046904 123.211052 
L 173.10835 123.211052 
L 173.123677 121.533505 
L 173.370851 121.533505 
L 173.472488 119.296776 
L 173.532435 119.296776 
L 173.64056 116.500865 
L 173.703629 116.500865 
L 173.770157 113.704954 
L 174.171221 113.704954 
L 174.171221 113.145772 
L 174.325494 113.145772 
L 174.325494 112.586589 
L 174.450051 112.586589 
L 174.450051 112.027407 
L 174.821873 112.027407 
L 174.821873 111.468225 
L 175.206202 111.468225 
L 175.206202 110.909043 
L 175.395194 110.909043 
L 175.488918 109.231496 
L 175.538917 109.231496 
L 175.598726 108.113132 
L 175.674846 108.113132 
L 175.707837 106.994767 
L 175.943524 106.994767 
L 175.966267 105.876403 
L 176.073079 105.876403 
L 176.111757 104.758038 
L 176.201667 104.758038 
L 176.310215 101.962127 
L 176.32294 101.962127 
L 176.32294 101.402945 
L 176.55668 101.402945 
L 176.631811 99.166216 
L 176.781095 99.166216 
L 176.858337 96.929487 
L 176.898366 96.929487 
L 176.981207 95.811122 
L 177.020952 95.811122 
L 177.060605 94.133576 
L 177.266545 94.133576 
L 177.377573 92.456029 
L 177.74453 92.456029 
L 177.74453 91.896847 
L 177.89031 91.896847 
L 177.951171 90.778482 
L 178.226684 90.778482 
L 178.283532 89.100935 
L 178.365628 89.100935 
L 178.365628 88.541753 
L 178.478226 88.541753 
L 178.570568 86.864206 
L 178.734438 86.864206 
L 178.800653 85.18666 
L 178.937788 85.18666 
L 179.041285 83.509113 
L 179.065706 83.509113 
L 179.138763 81.272384 
L 179.243745 81.272384 
L 179.350757 79.035655 
L 179.358756 79.035655 
L 179.380069 77.917291 
L 179.531164 77.917291 
L 179.610158 76.798926 
L 179.670476 76.798926 
L 179.76967 75.680562 
L 179.816457 75.680562 
L 179.816457 75.121379 
L 180.002346 75.121379 
L 180.089434 73.443833 
L 180.153188 73.443833 
L 180.231918 72.325468 
L 180.380769 72.325468 
L 180.380769 71.766286 
L 180.607858 71.766286 
L 180.694408 70.088739 
L 180.831989 70.088739 
L 180.831989 69.529557 
L 180.980612 69.529557 
L 181.019384 68.411192 
L 181.168804 68.411192 
L 181.221513 67.292828 
L 181.600074 67.292828 
L 181.600074 66.733646 
L 181.721334 66.733646 
L 181.802472 63.937735 
L 181.922319 63.937735 
L 181.933799 62.81937 
L 182.041337 62.81937 
L 182.041337 62.260188 
L 182.17765 62.260188 
L 182.17765 61.701006 
L 182.382352 61.701006 
L 182.382352 61.141823 
L 182.504902 61.141823 
L 182.504902 60.582641 
L 182.626585 60.582641 
L 182.626585 60.023459 
L 182.817326 60.023459 
L 182.845647 58.905094 
L 183.049052 58.905094 
L 183.049052 58.345912 
L 183.345493 58.345912 
L 183.345493 57.78673 
L 183.584862 57.78673 
L 183.692951 56.109183 
L 183.719868 56.109183 
L 183.719868 55.550001 
L 183.880489 55.550001 
L 183.98063 53.313272 
L 184.05992 53.313272 
L 184.102464 52.194907 
L 184.253553 52.194907 
L 184.253553 51.635725 
L 184.391392 51.635725 
L 184.470796 50.517361 
L 184.659884 50.517361 
L 184.659884 49.958178 
L 184.941603 49.958178 
L 184.980101 48.839814 
L 185.114171 48.839814 
L 185.114171 48.280632 
L 185.3717 48.280632 
L 185.3717 47.72145 
L 185.6069 47.72145 
L 185.688282 45.484721 
L 185.816966 45.484721 
L 185.866345 44.366356 
L 186.062455 44.366356 
L 186.062455 43.807174 
L 186.31339 43.807174 
L 186.410979 42.688809 
L 186.481606 42.688809 
L 186.522086 41.570445 
L 186.87874 41.570445 
L 186.978319 39.892898 
L 187.466086 39.892898 
L 187.56895 38.215351 
L 188.050134 38.215351 
L 188.050134 37.656169 
L 188.296082 37.656169 
L 188.296082 37.096987 
L 188.455497 37.096987 
L 188.505698 35.978622 
L 188.769963 35.978622 
L 188.851528 34.301076 
L 188.882207 34.301076 
L 188.882207 33.741894 
L 188.995247 33.741894 
L 188.995247 33.182711 
L 189.199574 33.182711 
L 189.199574 32.623529 
L 189.344902 32.623529 
L 189.371736 31.505165 
L 189.760563 31.505165 
L 189.794026 29.827618 
L 189.875229 29.827618 
L 189.945969 28.150071 
L 190.63643 28.150071 
L 190.727534 27.031707 
L 190.993922 27.031707 
L 190.993922 26.472524 
L 191.354759 26.472524 
L 191.354759 25.913342 
L 192.586581 25.913342 
L 192.586581 25.35416 
L 192.946099 25.35416 
L 192.946099 24.794978 
L 193.076302 24.794978 
L 193.130264 23.676613 
L 194.10768 23.676613 
L 194.193433 22.558249 
L 194.484717 22.558249 
L 194.484717 21.999066 
L 194.762442 21.999066 
L 194.847169 20.880702 
L 195.266768 20.880702 
L 195.266768 20.32152 
L 195.412082 20.32152 
L 195.487414 19.203155 
L 195.607055 19.203155 
L 195.673279 18.084791 
L 195.868395 18.084791 
L 195.899001 16.966426 
L 195.997591 16.966426 
L 195.997591 16.407244 
L 196.549111 16.407244 
L 196.549111 15.848062 
L 196.885405 15.848062 
L 196.885405 15.28888 
L 197.227522 15.28888 
L 197.227522 14.729697 
L 197.461809 14.729697 
L 197.461809 14.170515 
L 197.757116 14.170515 
L 197.757116 13.611333 
L 197.951811 13.611333 
L 197.951811 13.052151 
L 198.465161 13.052151 
L 198.559732 11.933786 
L 200.688524 11.933786 
L 200.688524 11.374604 
L 201.418956 11.374604 
L 201.436696 10.256239 
L 201.899544 10.256239 
L 201.899544 9.697057 
L 333.429677 9.697057 
L 333.429677 9.697057 
" style="fill:none;stroke:#ff00ff;stroke-linecap:square;stroke-width:1.5;"/>
   </g>
   <g id="line2d_30">
    <defs>
     <path d="M -0 8.485281 
L 5.091169 0 
L 0 -8.485281 
L -5.091169 -0 
z
" id="m3cf99b46b7" style="stroke:#ff00ff;stroke-linejoin:miter;stroke-width:1.5;"/>
    </defs>
    <g>
     <use style="fill-opacity:0;stroke:#ff00ff;stroke-linejoin:miter;stroke-width:1.5;" x="155.427588" xlink:href="#m3cf99b46b7" y="230.574042"/>
     <use style="fill-opacity:0;stroke:#ff00ff;stroke-linejoin:miter;stroke-width:1.5;" x="177.74453" xlink:href="#m3cf99b46b7" y="91.896847"/>
     <use style="fill-opacity:0;stroke:#ff00ff;stroke-linejoin:miter;stroke-width:1.5;" x="201.899544" xlink:href="#m3cf99b46b7" y="10.256239"/>
     <use style="fill-opacity:0;stroke:#ff00ff;stroke-linejoin:miter;stroke-width:1.5;" x="201.899544" xlink:href="#m3cf99b46b7" y="9.697057"/>
     <use style="fill-opacity:0;stroke:#ff00ff;stroke-linejoin:miter;stroke-width:1.5;" x="201.899544" xlink:href="#m3cf99b46b7" y="9.697057"/>
     <use style="fill-opacity:0;stroke:#ff00ff;stroke-linejoin:miter;stroke-width:1.5;" x="333.429677" xlink:href="#m3cf99b46b7" y="9.697057"/>
    </g>
   </g>
   <g id="line2d_31">
    <path style="fill:none;stroke:#ff00ff;stroke-linecap:square;stroke-width:1.5;"/>
    <g/>
   </g>
   <g id="line2d_32">
    <path clip-path="url(#p64d87c3594)" d="M 146.929256 252.38215 
" style="fill:none;stroke:#ff00ff;stroke-linecap:square;stroke-width:1.5;"/>
    <defs>
     <path d="M -12 12 
L 12 -12 
M -12 -12 
L 12 12 
" id="m209d47cef8" style="stroke:#ff00ff;stroke-width:3;"/>
    </defs>
    <g clip-path="url(#p64d87c3594)">
     <use style="fill:#ff00ff;stroke:#ff00ff;stroke-width:3;" x="146.929256" xlink:href="#m209d47cef8" y="252.38215"/>
    </g>
   </g>
   <g id="line2d_33">
    <defs>
     <path d="M 0 1.5 
C 0.397805 1.5 0.77937 1.341951 1.06066 1.06066 
C 1.341951 0.77937 1.5 0.397805 1.5 0 
C 1.5 -0.397805 1.341951 -0.77937 1.06066 -1.06066 
C 0.77937 -1.341951 0.397805 -1.5 0 -1.5 
C -0.397805 -1.5 -0.77937 -1.341951 -1.06066 -1.06066 
C -1.341951 -0.77937 -1.5 -0.397805 -1.5 0 
C -1.5 0.397805 -1.341951 0.77937 -1.06066 1.06066 
C -0.77937 1.341951 -0.397805 1.5 0 1.5 
z
" id="mcb7037088a" style="stroke:#ffa500;"/>
    </defs>
    <g>
     <use style="fill:#ffa500;stroke:#ffa500;" x="199.69427" xlink:href="#mcb7037088a" y="149.492617"/>
     <use style="fill:#ffa500;stroke:#ffa500;" x="199.69427" xlink:href="#mcb7037088a" y="149.492617"/>
    </g>
   </g>
   <g id="line2d_34">
    <path d="M 40.355341 294.88 
L 40.355341 286.492266 
L 99.982863 286.492266 
L 99.982863 285.933084 
L 107.313588 285.933084 
L 107.313588 285.373902 
L 108.001874 285.373902 
L 108.001874 284.81472 
L 110.508826 284.81472 
L 110.508826 283.696355 
L 110.797991 283.696355 
L 110.797991 280.900444 
L 111.362135 280.900444 
L 111.362135 279.782079 
L 111.908367 279.782079 
L 111.908367 278.663715 
L 112.175115 278.663715 
L 112.175115 278.104533 
L 112.696514 278.104533 
L 112.696514 277.545351 
L 112.951406 277.545351 
L 112.951406 276.426986 
L 113.202576 276.426986 
L 113.202576 275.867804 
L 113.694177 275.867804 
L 113.694177 275.308622 
L 128.306406 275.308622 
L 128.306406 274.190257 
L 129.603619 274.190257 
L 129.603619 271.953528 
L 133.073598 271.953528 
L 133.073598 270.275981 
L 135.959823 270.275981 
L 135.959823 269.716799 
L 136.288798 269.716799 
L 136.288798 269.157617 
L 138.14057 269.157617 
L 138.14057 268.598435 
L 140.283654 268.598435 
L 140.283654 268.039252 
L 140.641569 268.039252 
L 140.641569 267.48007 
L 140.792711 267.48007 
L 140.792711 266.920888 
L 141.189383 266.920888 
L 141.23833 265.802523 
L 141.624972 265.802523 
L 141.624972 265.243341 
L 141.862285 265.243341 
L 141.862285 264.684159 
L 142.957925 264.684159 
L 142.957925 264.124977 
L 144.80157 264.124977 
L 144.80157 263.006612 
L 145.116542 263.006612 
L 145.155512 261.888248 
L 145.310511 261.888248 
L 145.349044 259.651519 
L 145.954113 259.651519 
L 145.954113 259.092337 
L 146.065232 259.092337 
L 146.065232 258.533154 
L 146.574504 258.533154 
L 146.574504 257.973972 
L 146.788232 257.973972 
L 146.788232 257.41479 
L 147.276841 257.41479 
L 147.328378 256.296425 
L 147.516038 256.296425 
L 147.54994 254.059696 
L 147.68488 254.059696 
L 147.785396 251.263785 
L 148.116269 251.263785 
L 148.116269 250.145421 
L 148.360314 250.145421 
L 148.360314 249.586238 
L 148.900992 249.586238 
L 148.900992 249.027056 
L 149.149666 249.027056 
L 149.242 247.908692 
L 149.440373 247.908692 
L 149.440373 247.34951 
L 149.741166 247.34951 
L 149.741166 246.790327 
L 150.182718 246.790327 
L 150.182718 245.671963 
L 150.499469 245.671963 
L 150.527977 243.435234 
L 154.183856 243.435234 
L 154.183856 242.876052 
L 154.75023 242.876052 
L 154.75023 242.316869 
L 155.015605 242.316869 
L 155.015605 241.757687 
L 155.146774 241.757687 
L 155.146774 241.198505 
L 155.36319 241.198505 
L 155.36319 240.08014 
L 155.788023 240.08014 
L 155.871746 238.961776 
L 156.068968 238.961776 
L 156.068968 238.402594 
L 156.385976 238.402594 
L 156.385976 237.843411 
L 156.5674 237.843411 
L 156.5674 236.725047 
L 156.707196 236.725047 
L 156.707196 236.165865 
L 157.022529 236.165865 
L 157.022529 235.606682 
L 157.139305 235.606682 
L 157.139305 235.0475 
L 157.888905 235.0475 
L 157.888905 234.488318 
L 158.265434 234.488318 
L 158.356034 230.574042 
L 158.455146 230.574042 
L 158.491045 229.455678 
L 158.607204 229.455678 
L 158.607204 228.896496 
L 158.84598 228.896496 
L 158.84598 228.337313 
L 158.968498 228.337313 
L 158.968498 227.778131 
L 159.228133 227.778131 
L 159.253883 226.659767 
L 159.339437 226.659767 
L 159.339437 226.100584 
L 159.610385 226.100584 
L 159.610385 225.541402 
L 159.827431 225.541402 
L 159.827431 224.98222 
L 160.188615 224.98222 
L 160.188615 224.423038 
L 160.661328 224.423038 
L 160.771616 223.304673 
L 160.779467 223.304673 
L 160.779467 222.745491 
L 160.982338 222.745491 
L 161.021079 221.627126 
L 161.396195 221.627126 
L 161.396195 221.067944 
L 161.962293 221.067944 
L 161.962293 220.508762 
L 162.410701 220.508762 
L 162.410701 219.94958 
L 163.000159 219.94958 
L 163.000159 219.390397 
L 163.199061 219.390397 
L 163.199061 218.831215 
L 163.489817 218.831215 
L 163.596762 217.153669 
L 163.880928 217.153669 
L 163.880928 216.594486 
L 164.19269 216.594486 
L 164.263347 215.476122 
L 164.555716 215.476122 
L 164.599774 214.357757 
L 165.058763 214.357757 
L 165.168582 212.121028 
L 165.289786 212.121028 
L 165.289786 211.561846 
L 165.541569 211.561846 
L 165.541569 211.002664 
L 165.713293 211.002664 
L 165.713293 210.443482 
L 166.389214 210.443482 
L 166.457061 209.325117 
L 166.619928 209.325117 
L 166.619928 208.765935 
L 166.875149 208.765935 
L 166.88616 207.64757 
L 167.310187 207.64757 
L 167.310187 207.088388 
L 167.671514 207.088388 
L 167.671514 206.529206 
L 167.937614 206.529206 
L 167.937614 205.970024 
L 168.522956 205.970024 
L 168.522956 205.410841 
L 168.697222 205.410841 
L 168.697222 204.851659 
L 168.825544 204.851659 
L 168.825544 204.292477 
L 169.00652 204.292477 
L 169.00652 203.733295 
L 169.315136 203.733295 
L 169.410454 202.61493 
L 169.683927 202.61493 
L 169.711971 201.496566 
L 169.814409 201.496566 
L 169.814409 200.937384 
L 170.353676 200.937384 
L 170.429993 199.819019 
L 170.714304 199.819019 
L 170.714304 199.259837 
L 171.392479 199.259837 
L 171.392479 198.700655 
L 171.636405 198.700655 
L 171.636405 198.141472 
L 172.178983 198.141472 
L 172.178983 197.58229 
L 172.360109 197.58229 
L 172.360109 197.023108 
L 172.555192 197.023108 
L 172.555192 196.463926 
L 172.744171 196.463926 
L 172.744171 195.904743 
L 173.317913 195.904743 
L 173.393489 194.786379 
L 173.524953 194.786379 
L 173.607077 193.668014 
L 173.644277 193.668014 
L 173.644277 193.108832 
L 173.777533 193.108832 
L 173.777533 192.54965 
L 174.095373 192.54965 
L 174.135145 191.431285 
L 174.329065 191.431285 
L 174.42166 189.753739 
L 175.219771 189.753739 
L 175.219771 189.194556 
L 175.358234 189.194556 
L 175.358234 188.635374 
L 175.780196 188.635374 
L 175.85552 186.957828 
L 176.224071 186.957828 
L 176.224071 186.398645 
L 176.399096 186.398645 
L 176.399096 185.839463 
L 176.861419 185.839463 
L 176.938302 184.721099 
L 177.091045 184.721099 
L 177.091045 184.161916 
L 177.269555 184.161916 
L 177.269555 183.602734 
L 177.425365 183.602734 
L 177.425365 183.043552 
L 177.53834 183.043552 
L 177.53834 182.48437 
L 177.884502 182.48437 
L 177.884502 181.925187 
L 178.503459 181.925187 
L 178.503459 181.366005 
L 178.706773 181.366005 
L 178.706773 180.806823 
L 179.138763 180.806823 
L 179.219575 179.688458 
L 179.390716 179.688458 
L 179.483593 178.570094 
L 179.64952 178.570094 
L 179.678328 177.451729 
L 179.976648 177.451729 
L 179.976648 176.892547 
L 180.112413 176.892547 
L 180.112413 176.333365 
L 180.420915 176.333365 
L 180.420915 175.774183 
L 180.548257 175.774183 
L 180.548257 175.215 
L 180.687007 175.215 
L 180.687007 174.655818 
L 180.953906 174.655818 
L 180.953906 174.096636 
L 181.142388 174.096636 
L 181.23108 172.978271 
L 181.390528 172.978271 
L 181.390528 172.419089 
L 182.1119 172.419089 
L 182.1119 171.859907 
L 182.646416 171.859907 
L 182.703575 170.741543 
L 182.960629 170.741543 
L 182.960629 170.18236 
L 183.087729 170.18236 
L 183.162687 169.063996 
L 183.513819 169.063996 
L 183.513819 168.504814 
L 183.947995 168.504814 
L 183.947995 167.945631 
L 184.90495 167.945631 
L 184.90495 167.386449 
L 185.037688 167.386449 
L 185.037688 166.827267 
L 185.296355 166.827267 
L 185.296355 166.268085 
L 185.412999 166.268085 
L 185.412999 165.708902 
L 185.719623 165.708902 
L 185.719623 165.14972 
L 186.008204 165.14972 
L 186.008204 164.590538 
L 186.286678 164.590538 
L 186.286678 164.031356 
L 186.46574 164.031356 
L 186.46574 163.472173 
L 186.768186 163.472173 
L 186.768186 162.912991 
L 187.104537 162.912991 
L 187.104537 162.353809 
L 187.224775 162.353809 
L 187.224775 161.794627 
L 187.933928 161.794627 
L 187.933928 161.235444 
L 188.593199 161.235444 
L 188.593199 160.676262 
L 188.76842 160.676262 
L 188.76842 160.11708 
L 189.037826 160.11708 
L 189.037826 159.557898 
L 189.15136 159.557898 
L 189.211606 158.439533 
L 190.252964 158.439533 
L 190.252964 157.880351 
L 190.533706 157.880351 
L 190.533706 157.321169 
L 191.048059 157.321169 
L 191.048059 156.761987 
L 191.163881 156.761987 
L 191.163881 156.202804 
L 192.571746 156.202804 
L 192.571746 155.643622 
L 192.710938 155.643622 
L 192.710938 155.08444 
L 193.37043 155.08444 
L 193.37043 154.525258 
L 193.67238 154.525258 
L 193.67238 153.966075 
L 193.921163 153.966075 
L 193.921163 153.406893 
L 194.217053 153.406893 
L 194.275401 152.288529 
L 194.575223 152.288529 
L 194.575223 151.729346 
L 195.266768 151.729346 
L 195.266768 151.170164 
L 197.701212 151.170164 
L 197.701212 150.610982 
L 199.210084 150.610982 
L 199.210084 150.0518 
L 199.69427 150.0518 
L 199.69427 149.492617 
L 333.429677 149.492617 
L 333.429677 149.492617 
" style="fill:none;stroke:#ffa500;stroke-linecap:square;stroke-width:1.5;"/>
   </g>
   <g id="line2d_35">
    <defs>
     <path d="M 0 -6 
L -1.347084 -1.854102 
L -5.706339 -1.854102 
L -2.179628 0.708204 
L -3.526712 4.854102 
L -0 2.291796 
L 3.526712 4.854102 
L 2.179628 0.708204 
L 5.706339 -1.854102 
L 1.347084 -1.854102 
z
" id="m517b21b063" style="stroke:#ffa500;stroke-linejoin:bevel;stroke-width:1.5;"/>
    </defs>
    <g>
     <use style="fill-opacity:0;stroke:#ffa500;stroke-linejoin:bevel;stroke-width:1.5;" x="113.694177" xlink:href="#m517b21b063" y="275.308622"/>
     <use style="fill-opacity:0;stroke:#ffa500;stroke-linejoin:bevel;stroke-width:1.5;" x="170.714304" xlink:href="#m517b21b063" y="199.259837"/>
     <use style="fill-opacity:0;stroke:#ffa500;stroke-linejoin:bevel;stroke-width:1.5;" x="199.69427" xlink:href="#m517b21b063" y="150.0518"/>
     <use style="fill-opacity:0;stroke:#ffa500;stroke-linejoin:bevel;stroke-width:1.5;" x="199.69427" xlink:href="#m517b21b063" y="149.492617"/>
     <use style="fill-opacity:0;stroke:#ffa500;stroke-linejoin:bevel;stroke-width:1.5;" x="199.69427" xlink:href="#m517b21b063" y="149.492617"/>
     <use style="fill-opacity:0;stroke:#ffa500;stroke-linejoin:bevel;stroke-width:1.5;" x="333.429677" xlink:href="#m517b21b063" y="149.492617"/>
    </g>
   </g>
   <g id="line2d_36">
    <path style="fill:none;stroke:#ffa500;stroke-linecap:square;stroke-width:1.5;"/>
    <g/>
   </g>
   <g id="line2d_37">
    <path clip-path="url(#p64d87c3594)" d="M 144.521159 264.124977 
" style="fill:none;stroke:#ffa500;stroke-linecap:square;stroke-width:1.5;"/>
    <defs>
     <path d="M -12 12 
L 12 -12 
M -12 -12 
L 12 12 
" id="m55ffe68c8d" style="stroke:#ffa500;stroke-width:3;"/>
    </defs>
    <g clip-path="url(#p64d87c3594)">
     <use style="fill:#ffa500;stroke:#ffa500;stroke-width:3;" x="144.521159" xlink:href="#m55ffe68c8d" y="264.124977"/>
    </g>
   </g>
   <g id="line2d_38">
    <defs>
     <path d="M 0 1.5 
C 0.397805 1.5 0.77937 1.341951 1.06066 1.06066 
C 1.341951 0.77937 1.5 0.397805 1.5 0 
C 1.5 -0.397805 1.341951 -0.77937 1.06066 -1.06066 
C 0.77937 -1.341951 0.397805 -1.5 0 -1.5 
C -0.397805 -1.5 -0.77937 -1.341951 -1.06066 -1.06066 
C -1.341951 -0.77937 -1.5 -0.397805 -1.5 0 
C -1.5 0.397805 -1.341951 0.77937 -1.06066 1.06066 
C -0.77937 1.341951 -0.397805 1.5 0 1.5 
z
" id="m7383ed3dd0" style="stroke:#6495ed;"/>
    </defs>
    <g>
     <use style="fill:#6495ed;stroke:#6495ed;" x="189.581969" xlink:href="#m7383ed3dd0" y="250.145421"/>
     <use style="fill:#6495ed;stroke:#6495ed;" x="189.581969" xlink:href="#m7383ed3dd0" y="250.145421"/>
    </g>
   </g>
   <g id="line2d_39">
    <path d="M 40.355341 294.88 
L 40.355341 270.835164 
L 83.107827 270.835164 
L 83.107827 270.275981 
L 88.057358 270.275981 
L 88.057358 269.716799 
L 93.536312 269.716799 
L 93.536312 268.598435 
L 94.301099 268.598435 
L 94.301099 268.039252 
L 97.685473 268.039252 
L 97.685473 267.48007 
L 98.872486 267.48007 
L 98.872486 266.920888 
L 120.750735 266.920888 
L 120.750735 265.802523 
L 128.35815 265.802523 
L 128.35815 265.243341 
L 131.252153 265.243341 
L 131.252153 264.684159 
L 132.104053 264.684159 
L 132.104053 264.124977 
L 132.756449 264.124977 
L 132.756449 263.565795 
L 137.964108 263.565795 
L 137.964108 263.006612 
L 138.630934 263.006612 
L 138.630934 262.44743 
L 139.382115 262.44743 
L 139.382115 261.888248 
L 139.732422 261.888248 
L 139.732422 261.329066 
L 141.213874 261.329066 
L 141.213874 260.769883 
L 143.799459 260.769883 
L 143.799459 260.210701 
L 145.155512 260.210701 
L 145.155512 259.651519 
L 154.424008 259.651519 
L 154.424008 259.092337 
L 155.491745 259.092337 
L 155.491745 258.533154 
L 165.332007 258.533154 
L 165.332007 257.973972 
L 166.326785 257.973972 
L 166.326785 257.41479 
L 167.859775 257.41479 
L 167.859775 256.855608 
L 169.89315 256.855608 
L 169.89315 256.296425 
L 169.989923 256.296425 
L 169.989923 255.737243 
L 173.039208 255.737243 
L 173.039208 255.178061 
L 175.206202 255.178061 
L 175.206202 254.618879 
L 176.740791 254.618879 
L 176.740791 254.059696 
L 178.828168 254.059696 
L 178.828168 253.500514 
L 179.326737 253.500514 
L 179.326737 252.941332 
L 179.494176 252.941332 
L 179.494176 252.38215 
L 180.297672 252.38215 
L 180.297672 251.822967 
L 180.335493 251.822967 
L 180.335493 251.263785 
L 180.378257 251.263785 
L 180.378257 250.704603 
L 189.581969 250.704603 
L 189.581969 250.145421 
L 333.429677 250.145421 
" style="fill:none;stroke:#6495ed;stroke-linecap:square;stroke-width:1.5;"/>
   </g>
   <g id="line2d_40">
    <defs>
     <path d="M -0 6 
L 6 -6 
L -6 -6 
z
" id="m189a7cc11a" style="stroke:#6495ed;stroke-linejoin:miter;stroke-width:1.5;"/>
    </defs>
    <g>
     <use style="fill-opacity:0;stroke:#6495ed;stroke-linejoin:miter;stroke-width:1.5;" x="145.155512" xlink:href="#m189a7cc11a" y="260.210701"/>
     <use style="fill-opacity:0;stroke:#6495ed;stroke-linejoin:miter;stroke-width:1.5;" x="189.581969" xlink:href="#m189a7cc11a" y="250.704603"/>
     <use style="fill-opacity:0;stroke:#6495ed;stroke-linejoin:miter;stroke-width:1.5;" x="189.581969" xlink:href="#m189a7cc11a" y="250.145421"/>
     <use style="fill-opacity:0;stroke:#6495ed;stroke-linejoin:miter;stroke-width:1.5;" x="189.581969" xlink:href="#m189a7cc11a" y="250.145421"/>
     <use style="fill-opacity:0;stroke:#6495ed;stroke-linejoin:miter;stroke-width:1.5;" x="333.429677" xlink:href="#m189a7cc11a" y="250.145421"/>
    </g>
   </g>
   <g id="line2d_41">
    <path style="fill:none;stroke:#6495ed;stroke-linecap:square;stroke-width:1.5;"/>
    <g/>
   </g>
   <g id="line2d_42">
    <path clip-path="url(#p64d87c3594)" d="M 122.287906 265.802523 
" style="fill:none;stroke:#6495ed;stroke-linecap:square;stroke-width:1.5;"/>
    <defs>
     <path d="M -12 12 
L 12 -12 
M -12 -12 
L 12 12 
" id="madfcb84e3c" style="stroke:#6495ed;stroke-width:3;"/>
    </defs>
    <g clip-path="url(#p64d87c3594)">
     <use style="fill:#6495ed;stroke:#6495ed;stroke-width:3;" x="122.287906" xlink:href="#madfcb84e3c" y="265.802523"/>
    </g>
   </g>
   <g id="line2d_43">
    <defs>
     <path d="M 0 1.5 
C 0.397805 1.5 0.77937 1.341951 1.06066 1.06066 
C 1.341951 0.77937 1.5 0.397805 1.5 0 
C 1.5 -0.397805 1.341951 -0.77937 1.06066 -1.06066 
C 0.77937 -1.341951 0.397805 -1.5 0 -1.5 
C -0.397805 -1.5 -0.77937 -1.341951 -1.06066 -1.06066 
C -1.341951 -0.77937 -1.5 -0.397805 -1.5 0 
C -1.5 0.397805 -1.341951 0.77937 -1.06066 1.06066 
C -0.77937 1.341951 -0.397805 1.5 0 1.5 
z
" id="m032f124ae7" style="stroke:#ff0000;"/>
    </defs>
    <g>
     <use style="fill:#ff0000;stroke:#ff0000;" x="145.578446" xlink:href="#m032f124ae7" y="278.104533"/>
     <use style="fill:#ff0000;stroke:#ff0000;" x="145.578446" xlink:href="#m032f124ae7" y="278.104533"/>
    </g>
   </g>
   <g id="line2d_44">
    <path d="M 40.355341 294.88 
L 40.355341 288.728995 
L 95.735668 288.728995 
L 95.735668 288.169813 
L 97.059773 288.169813 
L 97.059773 287.610631 
L 102.009304 287.610631 
L 102.009304 285.373902 
L 115.089931 285.373902 
L 115.089931 284.81472 
L 116.380902 284.81472 
L 116.380902 283.137173 
L 125.002954 283.137173 
L 125.002954 282.577991 
L 126.56265 282.577991 
L 126.56265 281.459626 
L 137.177808 281.459626 
L 137.177808 280.341262 
L 139.652212 280.341262 
L 139.652212 279.782079 
L 140.792711 279.782079 
L 140.792711 279.222897 
L 144.153781 279.222897 
L 144.153781 278.663715 
L 145.578446 278.663715 
L 145.578446 278.104533 
L 333.429677 278.104533 
" style="fill:none;stroke:#ff0000;stroke-linecap:square;stroke-width:1.5;"/>
   </g>
   <g id="line2d_45">
    <defs>
     <path d="M 0 -6 
L -5.196152 -3 
L -5.196152 3 
L -0 6 
L 5.196152 3 
L 5.196152 -3 
z
" id="mb356499dc8" style="stroke:#ff0000;stroke-linejoin:miter;stroke-width:1.5;"/>
    </defs>
    <g>
     <use style="fill-opacity:0;stroke:#ff0000;stroke-linejoin:miter;stroke-width:1.5;" x="145.578446" xlink:href="#mb356499dc8" y="278.663715"/>
     <use style="fill-opacity:0;stroke:#ff0000;stroke-linejoin:miter;stroke-width:1.5;" x="145.578446" xlink:href="#mb356499dc8" y="278.104533"/>
     <use style="fill-opacity:0;stroke:#ff0000;stroke-linejoin:miter;stroke-width:1.5;" x="145.578446" xlink:href="#mb356499dc8" y="278.104533"/>
     <use style="fill-opacity:0;stroke:#ff0000;stroke-linejoin:miter;stroke-width:1.5;" x="145.578446" xlink:href="#mb356499dc8" y="278.104533"/>
     <use style="fill-opacity:0;stroke:#ff0000;stroke-linejoin:miter;stroke-width:1.5;" x="333.429677" xlink:href="#mb356499dc8" y="278.104533"/>
    </g>
   </g>
   <g id="line2d_46">
    <path style="fill:none;stroke:#ff0000;stroke-linecap:square;stroke-width:1.5;"/>
    <g/>
   </g>
   <g id="line2d_47">
    <path clip-path="url(#p64d87c3594)" d="M 135.003752 281.459626 
" style="fill:none;stroke:#ff0000;stroke-linecap:square;stroke-width:1.5;"/>
    <defs>
     <path d="M -12 12 
L 12 -12 
M -12 -12 
L 12 12 
" id="mec87001201" style="stroke:#ff0000;stroke-width:3;"/>
    </defs>
    <g clip-path="url(#p64d87c3594)">
     <use style="fill:#ff0000;stroke:#ff0000;stroke-width:3;" x="135.003752" xlink:href="#mec87001201" y="281.459626"/>
    </g>
   </g>
   <g id="line2d_48">
    <path d="M 333.429677 278.104533 
L 363.933742 289.176341 
" style="fill:none;stroke:#ff0000;stroke-linecap:square;stroke-width:1.5;"/>
    <g>
     <use style="fill-opacity:0;stroke:#ff0000;stroke-linejoin:miter;stroke-width:1.5;" x="333.429677" xlink:href="#mb356499dc8" y="278.104533"/>
     <use style="fill-opacity:0;stroke:#ff0000;stroke-linejoin:miter;stroke-width:1.5;" x="363.933742" xlink:href="#mb356499dc8" y="289.176341"/>
    </g>
   </g>
   <g id="line2d_49">
    <path d="M 333.429677 250.145421 
L 363.933742 220.732435 
" style="fill:none;stroke:#6495ed;stroke-linecap:square;stroke-width:1.5;"/>
    <g>
     <use style="fill-opacity:0;stroke:#6495ed;stroke-linejoin:miter;stroke-width:1.5;" x="333.429677" xlink:href="#m189a7cc11a" y="250.145421"/>
     <use style="fill-opacity:0;stroke:#6495ed;stroke-linejoin:miter;stroke-width:1.5;" x="363.933742" xlink:href="#m189a7cc11a" y="220.732435"/>
    </g>
   </g>
   <g id="line2d_50">
    <path d="M 333.429677 238.961776 
L 363.933742 152.288529 
" style="fill:none;stroke:#000080;stroke-linecap:square;stroke-width:1.5;"/>
    <g>
     <use style="fill-opacity:0;stroke:#000080;stroke-width:1.5;" x="333.429677" xlink:href="#m01b15fbc47" y="238.961776"/>
     <use style="fill-opacity:0;stroke:#000080;stroke-width:1.5;" x="363.933742" xlink:href="#m01b15fbc47" y="152.288529"/>
    </g>
   </g>
   <g id="line2d_51">
    <path d="M 333.429677 149.492617 
L 363.933742 83.844622 
" style="fill:none;stroke:#ffa500;stroke-linecap:square;stroke-width:1.5;"/>
    <g>
     <use style="fill-opacity:0;stroke:#ffa500;stroke-linejoin:bevel;stroke-width:1.5;" x="333.429677" xlink:href="#m517b21b063" y="149.492617"/>
     <use style="fill-opacity:0;stroke:#ffa500;stroke-linejoin:bevel;stroke-width:1.5;" x="363.933742" xlink:href="#m517b21b063" y="83.844622"/>
    </g>
   </g>
   <g id="line2d_52">
    <path d="M 333.429677 9.697057 
L 363.933742 15.400716 
" style="fill:none;stroke:#ff00ff;stroke-linecap:square;stroke-width:1.5;"/>
    <g>
     <use style="fill-opacity:0;stroke:#ff00ff;stroke-linejoin:miter;stroke-width:1.5;" x="333.429677" xlink:href="#m3cf99b46b7" y="9.697057"/>
     <use style="fill-opacity:0;stroke:#ff00ff;stroke-linejoin:miter;stroke-width:1.5;" x="363.933742" xlink:href="#m3cf99b46b7" y="15.400716"/>
    </g>
   </g>
   <g id="line2d_53">
    <path d="M 333.429677 294.88 
L 333.429677 9.697057 
" style="fill:none;stroke:#000000;stroke-linecap:square;stroke-width:1.5;"/>
   </g>
   <g id="patch_3">
    <path d="M 56.12 294.88 
L 56.12 6.845228 
" style="fill:none;stroke:#000000;stroke-linecap:square;stroke-linejoin:miter;stroke-width:0.8;"/>
   </g>
   <g id="patch_4">
    <path d="M 399.984 294.88 
L 399.984 6.845228 
" style="fill:none;stroke:#000000;stroke-linecap:square;stroke-linejoin:miter;stroke-width:0.8;"/>
   </g>
   <g id="patch_5">
    <path d="M 56.12 294.88 
L 399.984 294.88 
" style="fill:none;stroke:#000000;stroke-linecap:square;stroke-linejoin:miter;stroke-width:0.8;"/>
   </g>
   <g id="patch_6">
    <path d="M 56.12 6.845228 
L 399.984 6.845228 
" style="fill:none;stroke:#000000;stroke-linecap:square;stroke-linejoin:miter;stroke-width:0.8;"/>
   </g>
   <g id="text_14">
    <!-- f24 -->
    <g transform="translate(369.479935 293.867279)scale(0.17 -0.17)">
     <use xlink:href="#DejaVuSans-66"/>
     <use x="35.205078" xlink:href="#DejaVuSans-32"/>
     <use x="98.828125" xlink:href="#DejaVuSans-34"/>
    </g>
   </g>
   <g id="text_15">
    <!-- f23 -->
    <defs>
     <path d="M 40.578125 39.3125 
Q 47.65625 37.796875 51.625 33 
Q 55.609375 28.21875 55.609375 21.1875 
Q 55.609375 10.40625 48.1875 4.484375 
Q 40.765625 -1.421875 27.09375 -1.421875 
Q 22.515625 -1.421875 17.65625 -0.515625 
Q 12.796875 0.390625 7.625 2.203125 
L 7.625 11.71875 
Q 11.71875 9.328125 16.59375 8.109375 
Q 21.484375 6.890625 26.8125 6.890625 
Q 36.078125 6.890625 40.9375 10.546875 
Q 45.796875 14.203125 45.796875 21.1875 
Q 45.796875 27.640625 41.28125 31.265625 
Q 36.765625 34.90625 28.71875 34.90625 
L 20.21875 34.90625 
L 20.21875 43.015625 
L 29.109375 43.015625 
Q 36.375 43.015625 40.234375 45.921875 
Q 44.09375 48.828125 44.09375 54.296875 
Q 44.09375 59.90625 40.109375 62.90625 
Q 36.140625 65.921875 28.71875 65.921875 
Q 24.65625 65.921875 20.015625 65.03125 
Q 15.375 64.15625 9.8125 62.3125 
L 9.8125 71.09375 
Q 15.4375 72.65625 20.34375 73.4375 
Q 25.25 74.21875 29.59375 74.21875 
Q 40.828125 74.21875 47.359375 69.109375 
Q 53.90625 64.015625 53.90625 55.328125 
Q 53.90625 49.265625 50.4375 45.09375 
Q 46.96875 40.921875 40.578125 39.3125 
z
" id="DejaVuSans-33"/>
    </defs>
    <g transform="translate(369.479935 225.423372)scale(0.17 -0.17)">
     <use xlink:href="#DejaVuSans-66"/>
     <use x="35.205078" xlink:href="#DejaVuSans-32"/>
     <use x="98.828125" xlink:href="#DejaVuSans-33"/>
    </g>
   </g>
   <g id="text_16">
    <!-- f20 -->
    <g transform="translate(369.479935 156.979466)scale(0.17 -0.17)">
     <use xlink:href="#DejaVuSans-66"/>
     <use x="35.205078" xlink:href="#DejaVuSans-32"/>
     <use x="98.828125" xlink:href="#DejaVuSans-30"/>
    </g>
   </g>
   <g id="text_17">
    <!-- f22 -->
    <g transform="translate(369.479935 88.53556)scale(0.17 -0.17)">
     <use xlink:href="#DejaVuSans-66"/>
     <use x="35.205078" xlink:href="#DejaVuSans-32"/>
     <use x="98.828125" xlink:href="#DejaVuSans-32"/>
    </g>
   </g>
   <g id="text_18">
    <!-- f21 -->
    <g transform="translate(369.479935 20.091654)scale(0.17 -0.17)">
     <use xlink:href="#DejaVuSans-66"/>
     <use x="35.205078" xlink:href="#DejaVuSans-32"/>
     <use x="98.828125" xlink:href="#DejaVuSans-31"/>
    </g>
   </g>
   <g id="text_19">
    <!-- bbob -->
    <defs>
     <path d="M 48.6875 27.296875 
Q 48.6875 37.203125 44.609375 42.84375 
Q 40.53125 48.484375 33.40625 48.484375 
Q 26.265625 48.484375 22.1875 42.84375 
Q 18.109375 37.203125 18.109375 27.296875 
Q 18.109375 17.390625 22.1875 11.75 
Q 26.265625 6.109375 33.40625 6.109375 
Q 40.53125 6.109375 44.609375 11.75 
Q 48.6875 17.390625 48.6875 27.296875 
z
M 18.109375 46.390625 
Q 20.953125 51.265625 25.265625 53.625 
Q 29.59375 56 35.59375 56 
Q 45.5625 56 51.78125 48.09375 
Q 58.015625 40.1875 58.015625 27.296875 
Q 58.015625 14.40625 51.78125 6.484375 
Q 45.5625 -1.421875 35.59375 -1.421875 
Q 29.59375 -1.421875 25.265625 0.953125 
Q 20.953125 3.328125 18.109375 8.203125 
L 18.109375 0 
L 9.078125 0 
L 9.078125 75.984375 
L 18.109375 75.984375 
z
" id="DejaVuSans-62"/>
    </defs>
    <g transform="translate(59.55864 17.475982)scale(0.102 -0.102)">
     <use xlink:href="#DejaVuSans-62"/>
     <use x="63.476562" xlink:href="#DejaVuSans-62"/>
     <use x="126.953125" xlink:href="#DejaVuSans-6f"/>
     <use x="188.134766" xlink:href="#DejaVuSans-62"/>
    </g>
    <!-- Weak structure functions, 5-D -->
    <defs>
     <path d="M 3.328125 72.90625 
L 13.28125 72.90625 
L 28.609375 11.28125 
L 43.890625 72.90625 
L 54.984375 72.90625 
L 70.3125 11.28125 
L 85.59375 72.90625 
L 95.609375 72.90625 
L 77.296875 0 
L 64.890625 0 
L 49.515625 63.28125 
L 33.984375 0 
L 21.578125 0 
z
" id="DejaVuSans-57"/>
     <path d="M 9.078125 75.984375 
L 18.109375 75.984375 
L 18.109375 31.109375 
L 44.921875 54.6875 
L 56.390625 54.6875 
L 27.390625 29.109375 
L 57.625 0 
L 45.90625 0 
L 18.109375 26.703125 
L 18.109375 0 
L 9.078125 0 
z
" id="DejaVuSans-6b"/>
     <path d="M 10.796875 72.90625 
L 49.515625 72.90625 
L 49.515625 64.59375 
L 19.828125 64.59375 
L 19.828125 46.734375 
Q 21.96875 47.46875 24.109375 47.828125 
Q 26.265625 48.1875 28.421875 48.1875 
Q 40.625 48.1875 47.75 41.5 
Q 54.890625 34.8125 54.890625 23.390625 
Q 54.890625 11.625 47.5625 5.09375 
Q 40.234375 -1.421875 26.90625 -1.421875 
Q 22.3125 -1.421875 17.546875 -0.640625 
Q 12.796875 0.140625 7.71875 1.703125 
L 7.71875 11.625 
Q 12.109375 9.234375 16.796875 8.0625 
Q 21.484375 6.890625 26.703125 6.890625 
Q 35.15625 6.890625 40.078125 11.328125 
Q 45.015625 15.765625 45.015625 23.390625 
Q 45.015625 31 40.078125 35.4375 
Q 35.15625 39.890625 26.703125 39.890625 
Q 22.75 39.890625 18.8125 39.015625 
Q 14.890625 38.140625 10.796875 36.28125 
z
" id="DejaVuSans-35"/>
     <path d="M 19.671875 64.796875 
L 19.671875 8.109375 
L 31.59375 8.109375 
Q 46.6875 8.109375 53.6875 14.9375 
Q 60.6875 21.78125 60.6875 36.53125 
Q 60.6875 51.171875 53.6875 57.984375 
Q 46.6875 64.796875 31.59375 64.796875 
z
M 9.8125 72.90625 
L 30.078125 72.90625 
Q 51.265625 72.90625 61.171875 64.09375 
Q 71.09375 55.28125 71.09375 36.53125 
Q 71.09375 17.671875 61.125 8.828125 
Q 51.171875 0 30.078125 0 
L 9.8125 0 
z
" id="DejaVuSans-44"/>
    </defs>
    <g transform="translate(59.55864 28.89775)scale(0.102 -0.102)">
     <use xlink:href="#DejaVuSans-57"/>
     <use x="98.798828" xlink:href="#DejaVuSans-65"/>
     <use x="160.322266" xlink:href="#DejaVuSans-61"/>
     <use x="221.601562" xlink:href="#DejaVuSans-6b"/>
     <use x="279.511719" xlink:href="#DejaVuSans-20"/>
     <use x="311.298828" xlink:href="#DejaVuSans-73"/>
     <use x="363.398438" xlink:href="#DejaVuSans-74"/>
     <use x="402.607422" xlink:href="#DejaVuSans-72"/>
     <use x="443.720703" xlink:href="#DejaVuSans-75"/>
     <use x="507.099609" xlink:href="#DejaVuSans-63"/>
     <use x="562.080078" xlink:href="#DejaVuSans-74"/>
     <use x="601.289062" xlink:href="#DejaVuSans-75"/>
     <use x="664.667969" xlink:href="#DejaVuSans-72"/>
     <use x="705.75" xlink:href="#DejaVuSans-65"/>
     <use x="767.273438" xlink:href="#DejaVuSans-20"/>
     <use x="799.060547" xlink:href="#DejaVuSans-66"/>
     <use x="834.265625" xlink:href="#DejaVuSans-75"/>
     <use x="897.644531" xlink:href="#DejaVuSans-6e"/>
     <use x="961.023438" xlink:href="#DejaVuSans-63"/>
     <use x="1016.003906" xlink:href="#DejaVuSans-74"/>
     <use x="1055.212891" xlink:href="#DejaVuSans-69"/>
     <use x="1082.996094" xlink:href="#DejaVuSans-6f"/>
     <use x="1144.177734" xlink:href="#DejaVuSans-6e"/>
     <use x="1207.556641" xlink:href="#DejaVuSans-73"/>
     <use x="1259.65625" xlink:href="#DejaVuSans-2c"/>
     <use x="1291.443359" xlink:href="#DejaVuSans-20"/>
     <use x="1323.230469" xlink:href="#DejaVuSans-35"/>
     <use x="1386.853516" xlink:href="#DejaVuSans-2d"/>
     <use x="1422.9375" xlink:href="#DejaVuSans-44"/>
    </g>
    <!-- 51 targets: 100..1e-08 -->
    <defs>
     <path d="M 11.71875 12.40625 
L 22.015625 12.40625 
L 22.015625 0 
L 11.71875 0 
z
M 11.71875 51.703125 
L 22.015625 51.703125 
L 22.015625 39.3125 
L 11.71875 39.3125 
z
" id="DejaVuSans-3a"/>
    </defs>
    <g transform="translate(59.55864 40.319519)scale(0.102 -0.102)">
     <use xlink:href="#DejaVuSans-35"/>
     <use x="63.623047" xlink:href="#DejaVuSans-31"/>
     <use x="127.246094" xlink:href="#DejaVuSans-20"/>
     <use x="159.033203" xlink:href="#DejaVuSans-74"/>
     <use x="198.242188" xlink:href="#DejaVuSans-61"/>
     <use x="259.521484" xlink:href="#DejaVuSans-72"/>
     <use x="300.619141" xlink:href="#DejaVuSans-67"/>
     <use x="364.095703" xlink:href="#DejaVuSans-65"/>
     <use x="425.619141" xlink:href="#DejaVuSans-74"/>
     <use x="464.828125" xlink:href="#DejaVuSans-73"/>
     <use x="516.927734" xlink:href="#DejaVuSans-3a"/>
     <use x="550.619141" xlink:href="#DejaVuSans-20"/>
     <use x="582.40625" xlink:href="#DejaVuSans-31"/>
     <use x="646.029297" xlink:href="#DejaVuSans-30"/>
     <use x="709.652344" xlink:href="#DejaVuSans-30"/>
     <use x="773.275391" xlink:href="#DejaVuSans-2e"/>
     <use x="805.0625" xlink:href="#DejaVuSans-2e"/>
     <use x="836.849609" xlink:href="#DejaVuSans-31"/>
     <use x="900.472656" xlink:href="#DejaVuSans-65"/>
     <use x="961.996094" xlink:href="#DejaVuSans-2d"/>
     <use x="998.080078" xlink:href="#DejaVuSans-30"/>
     <use x="1061.703125" xlink:href="#DejaVuSans-38"/>
    </g>
    <!-- 15 instances -->
    <g transform="translate(59.55864 51.741288)scale(0.102 -0.102)">
     <use xlink:href="#DejaVuSans-31"/>
     <use x="63.623047" xlink:href="#DejaVuSans-35"/>
     <use x="127.246094" xlink:href="#DejaVuSans-20"/>
     <use x="159.033203" xlink:href="#DejaVuSans-69"/>
     <use x="186.816406" xlink:href="#DejaVuSans-6e"/>
     <use x="250.195312" xlink:href="#DejaVuSans-73"/>
     <use x="302.294922" xlink:href="#DejaVuSans-74"/>
     <use x="341.503906" xlink:href="#DejaVuSans-61"/>
     <use x="402.783203" xlink:href="#DejaVuSans-6e"/>
     <use x="466.162109" xlink:href="#DejaVuSans-63"/>
     <use x="521.142578" xlink:href="#DejaVuSans-65"/>
     <use x="582.666016" xlink:href="#DejaVuSans-73"/>
    </g>
   </g>
   <g id="text_20">
    <!-- v2.2.1.10 -->
    <g style="fill:#808080;" transform="translate(204.419188 289.919965)scale(0.1 -0.1)">
     <use xlink:href="#DejaVuSans-76"/>
     <use x="59.179688" xlink:href="#DejaVuSans-32"/>
     <use x="122.802734" xlink:href="#DejaVuSans-2e"/>
     <use x="154.589844" xlink:href="#DejaVuSans-32"/>
     <use x="218.212891" xlink:href="#DejaVuSans-2e"/>
     <use x="250" xlink:href="#DejaVuSans-31"/>
     <use x="313.623047" xlink:href="#DejaVuSans-2e"/>
     <use x="345.410156" xlink:href="#DejaVuSans-31"/>
     <use x="409.033203" xlink:href="#DejaVuSans-30"/>
    </g>
   </g>
  </g>
 </g>
 <defs>
  <clipPath id="p64d87c3594">
   <rect height="288.034772" width="343.864" x="56.12" y="6.845228"/>
  </clipPath>
 </defs>
</svg>
