<?xml version="1.0" encoding="utf-8" standalone="no"?>
<!DOCTYPE svg PUBLIC "-//W3C//DTD SVG 1.1//EN"
  "http://www.w3.org/Graphics/SVG/1.1/DTD/svg11.dtd">
<!-- Created with matplotlib (http://matplotlib.org/) -->
<svg height="345.6pt" version="1.1" viewBox="0 0 460.8 345.6" width="460.8pt" xmlns="http://www.w3.org/2000/svg" xmlns:xlink="http://www.w3.org/1999/xlink">
 <defs>
  <style type="text/css">
*{stroke-linecap:butt;stroke-linejoin:round;}
  </style>
 </defs>
 <g id="figure_1">
  <g id="patch_1">
   <path d="M 0 345.6 
L 460.8 345.6 
L 460.8 0 
L 0 0 
z
" style="fill:#ffffff;"/>
  </g>
  <g id="axes_1">
   <g id="patch_2">
    <path d="M 56.12 294.88 
L 399.984 294.88 
L 399.984 6.845228 
L 56.12 6.845228 
z
" style="fill:#ffffff;"/>
   </g>
   <g id="matplotlib.axis_1">
    <g id="xtick_1">
     <g id="line2d_1">
      <path clip-path="url(#p963c597d84)" d="M 56.12 294.88 
L 56.12 6.845228 
" style="fill:none;stroke:#b0b0b0;stroke-linecap:square;stroke-width:0.8;"/>
     </g>
     <g id="line2d_2">
      <defs>
       <path d="M 0 0 
L 0 3.5 
" id="md95a612f50" style="stroke:#000000;stroke-width:0.8;"/>
      </defs>
      <g>
       <use style="stroke:#000000;stroke-width:0.8;" x="56.12" xlink:href="#md95a612f50" y="294.88"/>
      </g>
     </g>
     <g id="text_1">
      <!-- 0 -->
      <defs>
       <path d="M 31.78125 66.40625 
Q 24.171875 66.40625 20.328125 58.90625 
Q 16.5 51.421875 16.5 36.375 
Q 16.5 21.390625 20.328125 13.890625 
Q 24.171875 6.390625 31.78125 6.390625 
Q 39.453125 6.390625 43.28125 13.890625 
Q 47.125 21.390625 47.125 36.375 
Q 47.125 51.421875 43.28125 58.90625 
Q 39.453125 66.40625 31.78125 66.40625 
z
M 31.78125 74.21875 
Q 44.046875 74.21875 50.515625 64.515625 
Q 56.984375 54.828125 56.984375 36.375 
Q 56.984375 17.96875 50.515625 8.265625 
Q 44.046875 -1.421875 31.78125 -1.421875 
Q 19.53125 -1.421875 13.0625 8.265625 
Q 6.59375 17.96875 6.59375 36.375 
Q 6.59375 54.828125 13.0625 64.515625 
Q 19.53125 74.21875 31.78125 74.21875 
z
" id="DejaVuSans-30"/>
      </defs>
      <g transform="translate(49.7575 317.076875)scale(0.2 -0.2)">
       <use xlink:href="#DejaVuSans-30"/>
      </g>
     </g>
    </g>
    <g id="xtick_2">
     <g id="line2d_3">
      <path clip-path="url(#p963c597d84)" d="M 135.351336 294.88 
L 135.351336 6.845228 
" style="fill:none;stroke:#b0b0b0;stroke-linecap:square;stroke-width:0.8;"/>
     </g>
     <g id="line2d_4">
      <g>
       <use style="stroke:#000000;stroke-width:0.8;" x="135.351336" xlink:href="#md95a612f50" y="294.88"/>
      </g>
     </g>
     <g id="text_2">
      <!-- 2 -->
      <defs>
       <path d="M 19.1875 8.296875 
L 53.609375 8.296875 
L 53.609375 0 
L 7.328125 0 
L 7.328125 8.296875 
Q 12.9375 14.109375 22.625 23.890625 
Q 32.328125 33.6875 34.8125 36.53125 
Q 39.546875 41.84375 41.421875 45.53125 
Q 43.3125 49.21875 43.3125 52.78125 
Q 43.3125 58.59375 39.234375 62.25 
Q 35.15625 65.921875 28.609375 65.921875 
Q 23.96875 65.921875 18.8125 64.3125 
Q 13.671875 62.703125 7.8125 59.421875 
L 7.8125 69.390625 
Q 13.765625 71.78125 18.9375 73 
Q 24.125 74.21875 28.421875 74.21875 
Q 39.75 74.21875 46.484375 68.546875 
Q 53.21875 62.890625 53.21875 53.421875 
Q 53.21875 48.921875 51.53125 44.890625 
Q 49.859375 40.875 45.40625 35.40625 
Q 44.1875 33.984375 37.640625 27.21875 
Q 31.109375 20.453125 19.1875 8.296875 
z
" id="DejaVuSans-32"/>
      </defs>
      <g transform="translate(128.988836 317.076875)scale(0.2 -0.2)">
       <use xlink:href="#DejaVuSans-32"/>
      </g>
     </g>
    </g>
    <g id="xtick_3">
     <g id="line2d_5">
      <path clip-path="url(#p963c597d84)" d="M 214.582673 294.88 
L 214.582673 6.845228 
" style="fill:none;stroke:#b0b0b0;stroke-linecap:square;stroke-width:0.8;"/>
     </g>
     <g id="line2d_6">
      <g>
       <use style="stroke:#000000;stroke-width:0.8;" x="214.582673" xlink:href="#md95a612f50" y="294.88"/>
      </g>
     </g>
     <g id="text_3">
      <!-- 4 -->
      <defs>
       <path d="M 37.796875 64.3125 
L 12.890625 25.390625 
L 37.796875 25.390625 
z
M 35.203125 72.90625 
L 47.609375 72.90625 
L 47.609375 25.390625 
L 58.015625 25.390625 
L 58.015625 17.1875 
L 47.609375 17.1875 
L 47.609375 0 
L 37.796875 0 
L 37.796875 17.1875 
L 4.890625 17.1875 
L 4.890625 26.703125 
z
" id="DejaVuSans-34"/>
      </defs>
      <g transform="translate(208.220173 317.076875)scale(0.2 -0.2)">
       <use xlink:href="#DejaVuSans-34"/>
      </g>
     </g>
    </g>
    <g id="xtick_4">
     <g id="line2d_7">
      <path clip-path="url(#p963c597d84)" d="M 293.814009 294.88 
L 293.814009 6.845228 
" style="fill:none;stroke:#b0b0b0;stroke-linecap:square;stroke-width:0.8;"/>
     </g>
     <g id="line2d_8">
      <g>
       <use style="stroke:#000000;stroke-width:0.8;" x="293.814009" xlink:href="#md95a612f50" y="294.88"/>
      </g>
     </g>
     <g id="text_4">
      <!-- 6 -->
      <defs>
       <path d="M 33.015625 40.375 
Q 26.375 40.375 22.484375 35.828125 
Q 18.609375 31.296875 18.609375 23.390625 
Q 18.609375 15.53125 22.484375 10.953125 
Q 26.375 6.390625 33.015625 6.390625 
Q 39.65625 6.390625 43.53125 10.953125 
Q 47.40625 15.53125 47.40625 23.390625 
Q 47.40625 31.296875 43.53125 35.828125 
Q 39.65625 40.375 33.015625 40.375 
z
M 52.59375 71.296875 
L 52.59375 62.3125 
Q 48.875 64.0625 45.09375 64.984375 
Q 41.3125 65.921875 37.59375 65.921875 
Q 27.828125 65.921875 22.671875 59.328125 
Q 17.53125 52.734375 16.796875 39.40625 
Q 19.671875 43.65625 24.015625 45.921875 
Q 28.375 48.1875 33.59375 48.1875 
Q 44.578125 48.1875 50.953125 41.515625 
Q 57.328125 34.859375 57.328125 23.390625 
Q 57.328125 12.15625 50.6875 5.359375 
Q 44.046875 -1.421875 33.015625 -1.421875 
Q 20.359375 -1.421875 13.671875 8.265625 
Q 6.984375 17.96875 6.984375 36.375 
Q 6.984375 53.65625 15.1875 63.9375 
Q 23.390625 74.21875 37.203125 74.21875 
Q 40.921875 74.21875 44.703125 73.484375 
Q 48.484375 72.75 52.59375 71.296875 
z
" id="DejaVuSans-36"/>
      </defs>
      <g transform="translate(287.451509 317.076875)scale(0.2 -0.2)">
       <use xlink:href="#DejaVuSans-36"/>
      </g>
     </g>
    </g>
    <g id="xtick_5">
     <g id="line2d_9">
      <path clip-path="url(#p963c597d84)" d="M 373.045346 294.88 
L 373.045346 6.845228 
" style="fill:none;stroke:#b0b0b0;stroke-linecap:square;stroke-width:0.8;"/>
     </g>
     <g id="line2d_10">
      <g>
       <use style="stroke:#000000;stroke-width:0.8;" x="373.045346" xlink:href="#md95a612f50" y="294.88"/>
      </g>
     </g>
     <g id="text_5">
      <!-- 8 -->
      <defs>
       <path d="M 31.78125 34.625 
Q 24.75 34.625 20.71875 30.859375 
Q 16.703125 27.09375 16.703125 20.515625 
Q 16.703125 13.921875 20.71875 10.15625 
Q 24.75 6.390625 31.78125 6.390625 
Q 38.8125 6.390625 42.859375 10.171875 
Q 46.921875 13.96875 46.921875 20.515625 
Q 46.921875 27.09375 42.890625 30.859375 
Q 38.875 34.625 31.78125 34.625 
z
M 21.921875 38.8125 
Q 15.578125 40.375 12.03125 44.71875 
Q 8.5 49.078125 8.5 55.328125 
Q 8.5 64.0625 14.71875 69.140625 
Q 20.953125 74.21875 31.78125 74.21875 
Q 42.671875 74.21875 48.875 69.140625 
Q 55.078125 64.0625 55.078125 55.328125 
Q 55.078125 49.078125 51.53125 44.71875 
Q 48 40.375 41.703125 38.8125 
Q 48.828125 37.15625 52.796875 32.3125 
Q 56.78125 27.484375 56.78125 20.515625 
Q 56.78125 9.90625 50.3125 4.234375 
Q 43.84375 -1.421875 31.78125 -1.421875 
Q 19.734375 -1.421875 13.25 4.234375 
Q 6.78125 9.90625 6.78125 20.515625 
Q 6.78125 27.484375 10.78125 32.3125 
Q 14.796875 37.15625 21.921875 38.8125 
z
M 18.3125 54.390625 
Q 18.3125 48.734375 21.84375 45.5625 
Q 25.390625 42.390625 31.78125 42.390625 
Q 38.140625 42.390625 41.71875 45.5625 
Q 45.3125 48.734375 45.3125 54.390625 
Q 45.3125 60.0625 41.71875 63.234375 
Q 38.140625 66.40625 31.78125 66.40625 
Q 25.390625 66.40625 21.84375 63.234375 
Q 18.3125 60.0625 18.3125 54.390625 
z
" id="DejaVuSans-38"/>
      </defs>
      <g transform="translate(366.682846 317.076875)scale(0.2 -0.2)">
       <use xlink:href="#DejaVuSans-38"/>
      </g>
     </g>
    </g>
    <g id="text_6">
     <!-- log10(# f-evals / dimension) -->
     <defs>
      <path d="M 9.421875 75.984375 
L 18.40625 75.984375 
L 18.40625 0 
L 9.421875 0 
z
" id="DejaVuSans-6c"/>
      <path d="M 30.609375 48.390625 
Q 23.390625 48.390625 19.1875 42.75 
Q 14.984375 37.109375 14.984375 27.296875 
Q 14.984375 17.484375 19.15625 11.84375 
Q 23.34375 6.203125 30.609375 6.203125 
Q 37.796875 6.203125 41.984375 11.859375 
Q 46.1875 17.53125 46.1875 27.296875 
Q 46.1875 37.015625 41.984375 42.703125 
Q 37.796875 48.390625 30.609375 48.390625 
z
M 30.609375 56 
Q 42.328125 56 49.015625 48.375 
Q 55.71875 40.765625 55.71875 27.296875 
Q 55.71875 13.875 49.015625 6.21875 
Q 42.328125 -1.421875 30.609375 -1.421875 
Q 18.84375 -1.421875 12.171875 6.21875 
Q 5.515625 13.875 5.515625 27.296875 
Q 5.515625 40.765625 12.171875 48.375 
Q 18.84375 56 30.609375 56 
z
" id="DejaVuSans-6f"/>
      <path d="M 45.40625 27.984375 
Q 45.40625 37.75 41.375 43.109375 
Q 37.359375 48.484375 30.078125 48.484375 
Q 22.859375 48.484375 18.828125 43.109375 
Q 14.796875 37.75 14.796875 27.984375 
Q 14.796875 18.265625 18.828125 12.890625 
Q 22.859375 7.515625 30.078125 7.515625 
Q 37.359375 7.515625 41.375 12.890625 
Q 45.40625 18.265625 45.40625 27.984375 
z
M 54.390625 6.78125 
Q 54.390625 -7.171875 48.1875 -13.984375 
Q 42 -20.796875 29.203125 -20.796875 
Q 24.46875 -20.796875 20.265625 -20.09375 
Q 16.0625 -19.390625 12.109375 -17.921875 
L 12.109375 -9.1875 
Q 16.0625 -11.328125 19.921875 -12.34375 
Q 23.78125 -13.375 27.78125 -13.375 
Q 36.625 -13.375 41.015625 -8.765625 
Q 45.40625 -4.15625 45.40625 5.171875 
L 45.40625 9.625 
Q 42.625 4.78125 38.28125 2.390625 
Q 33.9375 0 27.875 0 
Q 17.828125 0 11.671875 7.65625 
Q 5.515625 15.328125 5.515625 27.984375 
Q 5.515625 40.671875 11.671875 48.328125 
Q 17.828125 56 27.875 56 
Q 33.9375 56 38.28125 53.609375 
Q 42.625 51.21875 45.40625 46.390625 
L 45.40625 54.6875 
L 54.390625 54.6875 
z
" id="DejaVuSans-67"/>
      <path d="M 12.40625 8.296875 
L 28.515625 8.296875 
L 28.515625 63.921875 
L 10.984375 60.40625 
L 10.984375 69.390625 
L 28.421875 72.90625 
L 38.28125 72.90625 
L 38.28125 8.296875 
L 54.390625 8.296875 
L 54.390625 0 
L 12.40625 0 
z
" id="DejaVuSans-31"/>
      <path d="M 31 75.875 
Q 24.46875 64.65625 21.28125 53.65625 
Q 18.109375 42.671875 18.109375 31.390625 
Q 18.109375 20.125 21.3125 9.0625 
Q 24.515625 -2 31 -13.1875 
L 23.1875 -13.1875 
Q 15.875 -1.703125 12.234375 9.375 
Q 8.59375 20.453125 8.59375 31.390625 
Q 8.59375 42.28125 12.203125 53.3125 
Q 15.828125 64.359375 23.1875 75.875 
z
" id="DejaVuSans-28"/>
      <path d="M 51.125 44 
L 36.921875 44 
L 32.8125 27.6875 
L 47.125 27.6875 
z
M 43.796875 71.78125 
L 38.71875 51.515625 
L 52.984375 51.515625 
L 58.109375 71.78125 
L 65.921875 71.78125 
L 60.890625 51.515625 
L 76.125 51.515625 
L 76.125 44 
L 58.984375 44 
L 54.984375 27.6875 
L 70.515625 27.6875 
L 70.515625 20.21875 
L 53.078125 20.21875 
L 48 0 
L 40.1875 0 
L 45.21875 20.21875 
L 30.90625 20.21875 
L 25.875 0 
L 18.015625 0 
L 23.09375 20.21875 
L 7.71875 20.21875 
L 7.71875 27.6875 
L 24.90625 27.6875 
L 29 44 
L 13.28125 44 
L 13.28125 51.515625 
L 30.90625 51.515625 
L 35.890625 71.78125 
z
" id="DejaVuSans-23"/>
      <path id="DejaVuSans-20"/>
      <path d="M 37.109375 75.984375 
L 37.109375 68.5 
L 28.515625 68.5 
Q 23.6875 68.5 21.796875 66.546875 
Q 19.921875 64.59375 19.921875 59.515625 
L 19.921875 54.6875 
L 34.71875 54.6875 
L 34.71875 47.703125 
L 19.921875 47.703125 
L 19.921875 0 
L 10.890625 0 
L 10.890625 47.703125 
L 2.296875 47.703125 
L 2.296875 54.6875 
L 10.890625 54.6875 
L 10.890625 58.5 
Q 10.890625 67.625 15.140625 71.796875 
Q 19.390625 75.984375 28.609375 75.984375 
z
" id="DejaVuSans-66"/>
      <path d="M 4.890625 31.390625 
L 31.203125 31.390625 
L 31.203125 23.390625 
L 4.890625 23.390625 
z
" id="DejaVuSans-2d"/>
      <path d="M 56.203125 29.59375 
L 56.203125 25.203125 
L 14.890625 25.203125 
Q 15.484375 15.921875 20.484375 11.0625 
Q 25.484375 6.203125 34.421875 6.203125 
Q 39.59375 6.203125 44.453125 7.46875 
Q 49.3125 8.734375 54.109375 11.28125 
L 54.109375 2.78125 
Q 49.265625 0.734375 44.1875 -0.34375 
Q 39.109375 -1.421875 33.890625 -1.421875 
Q 20.796875 -1.421875 13.15625 6.1875 
Q 5.515625 13.8125 5.515625 26.8125 
Q 5.515625 40.234375 12.765625 48.109375 
Q 20.015625 56 32.328125 56 
Q 43.359375 56 49.78125 48.890625 
Q 56.203125 41.796875 56.203125 29.59375 
z
M 47.21875 32.234375 
Q 47.125 39.59375 43.09375 43.984375 
Q 39.0625 48.390625 32.421875 48.390625 
Q 24.90625 48.390625 20.390625 44.140625 
Q 15.875 39.890625 15.1875 32.171875 
z
" id="DejaVuSans-65"/>
      <path d="M 2.984375 54.6875 
L 12.5 54.6875 
L 29.59375 8.796875 
L 46.6875 54.6875 
L 56.203125 54.6875 
L 35.6875 0 
L 23.484375 0 
z
" id="DejaVuSans-76"/>
      <path d="M 34.28125 27.484375 
Q 23.390625 27.484375 19.1875 25 
Q 14.984375 22.515625 14.984375 16.5 
Q 14.984375 11.71875 18.140625 8.90625 
Q 21.296875 6.109375 26.703125 6.109375 
Q 34.1875 6.109375 38.703125 11.40625 
Q 43.21875 16.703125 43.21875 25.484375 
L 43.21875 27.484375 
z
M 52.203125 31.203125 
L 52.203125 0 
L 43.21875 0 
L 43.21875 8.296875 
Q 40.140625 3.328125 35.546875 0.953125 
Q 30.953125 -1.421875 24.3125 -1.421875 
Q 15.921875 -1.421875 10.953125 3.296875 
Q 6 8.015625 6 15.921875 
Q 6 25.140625 12.171875 29.828125 
Q 18.359375 34.515625 30.609375 34.515625 
L 43.21875 34.515625 
L 43.21875 35.40625 
Q 43.21875 41.609375 39.140625 45 
Q 35.0625 48.390625 27.6875 48.390625 
Q 23 48.390625 18.546875 47.265625 
Q 14.109375 46.140625 10.015625 43.890625 
L 10.015625 52.203125 
Q 14.9375 54.109375 19.578125 55.046875 
Q 24.21875 56 28.609375 56 
Q 40.484375 56 46.34375 49.84375 
Q 52.203125 43.703125 52.203125 31.203125 
z
" id="DejaVuSans-61"/>
      <path d="M 44.28125 53.078125 
L 44.28125 44.578125 
Q 40.484375 46.53125 36.375 47.5 
Q 32.28125 48.484375 27.875 48.484375 
Q 21.1875 48.484375 17.84375 46.4375 
Q 14.5 44.390625 14.5 40.28125 
Q 14.5 37.15625 16.890625 35.375 
Q 19.28125 33.59375 26.515625 31.984375 
L 29.59375 31.296875 
Q 39.15625 29.25 43.1875 25.515625 
Q 47.21875 21.78125 47.21875 15.09375 
Q 47.21875 7.46875 41.1875 3.015625 
Q 35.15625 -1.421875 24.609375 -1.421875 
Q 20.21875 -1.421875 15.453125 -0.5625 
Q 10.6875 0.296875 5.421875 2 
L 5.421875 11.28125 
Q 10.40625 8.6875 15.234375 7.390625 
Q 20.0625 6.109375 24.8125 6.109375 
Q 31.15625 6.109375 34.5625 8.28125 
Q 37.984375 10.453125 37.984375 14.40625 
Q 37.984375 18.0625 35.515625 20.015625 
Q 33.0625 21.96875 24.703125 23.78125 
L 21.578125 24.515625 
Q 13.234375 26.265625 9.515625 29.90625 
Q 5.8125 33.546875 5.8125 39.890625 
Q 5.8125 47.609375 11.28125 51.796875 
Q 16.75 56 26.8125 56 
Q 31.78125 56 36.171875 55.265625 
Q 40.578125 54.546875 44.28125 53.078125 
z
" id="DejaVuSans-73"/>
      <path d="M 25.390625 72.90625 
L 33.6875 72.90625 
L 8.296875 -9.28125 
L 0 -9.28125 
z
" id="DejaVuSans-2f"/>
      <path d="M 45.40625 46.390625 
L 45.40625 75.984375 
L 54.390625 75.984375 
L 54.390625 0 
L 45.40625 0 
L 45.40625 8.203125 
Q 42.578125 3.328125 38.25 0.953125 
Q 33.9375 -1.421875 27.875 -1.421875 
Q 17.96875 -1.421875 11.734375 6.484375 
Q 5.515625 14.40625 5.515625 27.296875 
Q 5.515625 40.1875 11.734375 48.09375 
Q 17.96875 56 27.875 56 
Q 33.9375 56 38.25 53.625 
Q 42.578125 51.265625 45.40625 46.390625 
z
M 14.796875 27.296875 
Q 14.796875 17.390625 18.875 11.75 
Q 22.953125 6.109375 30.078125 6.109375 
Q 37.203125 6.109375 41.296875 11.75 
Q 45.40625 17.390625 45.40625 27.296875 
Q 45.40625 37.203125 41.296875 42.84375 
Q 37.203125 48.484375 30.078125 48.484375 
Q 22.953125 48.484375 18.875 42.84375 
Q 14.796875 37.203125 14.796875 27.296875 
z
" id="DejaVuSans-64"/>
      <path d="M 9.421875 54.6875 
L 18.40625 54.6875 
L 18.40625 0 
L 9.421875 0 
z
M 9.421875 75.984375 
L 18.40625 75.984375 
L 18.40625 64.59375 
L 9.421875 64.59375 
z
" id="DejaVuSans-69"/>
      <path d="M 52 44.1875 
Q 55.375 50.25 60.0625 53.125 
Q 64.75 56 71.09375 56 
Q 79.640625 56 84.28125 50.015625 
Q 88.921875 44.046875 88.921875 33.015625 
L 88.921875 0 
L 79.890625 0 
L 79.890625 32.71875 
Q 79.890625 40.578125 77.09375 44.375 
Q 74.3125 48.1875 68.609375 48.1875 
Q 61.625 48.1875 57.5625 43.546875 
Q 53.515625 38.921875 53.515625 30.90625 
L 53.515625 0 
L 44.484375 0 
L 44.484375 32.71875 
Q 44.484375 40.625 41.703125 44.40625 
Q 38.921875 48.1875 33.109375 48.1875 
Q 26.21875 48.1875 22.15625 43.53125 
Q 18.109375 38.875 18.109375 30.90625 
L 18.109375 0 
L 9.078125 0 
L 9.078125 54.6875 
L 18.109375 54.6875 
L 18.109375 46.1875 
Q 21.1875 51.21875 25.484375 53.609375 
Q 29.78125 56 35.6875 56 
Q 41.65625 56 45.828125 52.96875 
Q 50 49.953125 52 44.1875 
z
" id="DejaVuSans-6d"/>
      <path d="M 54.890625 33.015625 
L 54.890625 0 
L 45.90625 0 
L 45.90625 32.71875 
Q 45.90625 40.484375 42.875 44.328125 
Q 39.84375 48.1875 33.796875 48.1875 
Q 26.515625 48.1875 22.3125 43.546875 
Q 18.109375 38.921875 18.109375 30.90625 
L 18.109375 0 
L 9.078125 0 
L 9.078125 54.6875 
L 18.109375 54.6875 
L 18.109375 46.1875 
Q 21.34375 51.125 25.703125 53.5625 
Q 30.078125 56 35.796875 56 
Q 45.21875 56 50.046875 50.171875 
Q 54.890625 44.34375 54.890625 33.015625 
z
" id="DejaVuSans-6e"/>
      <path d="M 8.015625 75.875 
L 15.828125 75.875 
Q 23.140625 64.359375 26.78125 53.3125 
Q 30.421875 42.28125 30.421875 31.390625 
Q 30.421875 20.453125 26.78125 9.375 
Q 23.140625 -1.703125 15.828125 -13.1875 
L 8.015625 -13.1875 
Q 14.5 -2 17.703125 9.0625 
Q 20.90625 20.125 20.90625 31.390625 
Q 20.90625 42.671875 17.703125 53.65625 
Q 14.5 64.65625 8.015625 75.875 
z
" id="DejaVuSans-29"/>
     </defs>
     <g transform="translate(107.211219 338.153594)scale(0.17 -0.17)">
      <use xlink:href="#DejaVuSans-6c"/>
      <use x="27.783203" xlink:href="#DejaVuSans-6f"/>
      <use x="88.964844" xlink:href="#DejaVuSans-67"/>
      <use x="152.441406" xlink:href="#DejaVuSans-31"/>
      <use x="216.064453" xlink:href="#DejaVuSans-30"/>
      <use x="279.6875" xlink:href="#DejaVuSans-28"/>
      <use x="318.701172" xlink:href="#DejaVuSans-23"/>
      <use x="402.490234" xlink:href="#DejaVuSans-20"/>
      <use x="434.277344" xlink:href="#DejaVuSans-66"/>
      <use x="469.404297" xlink:href="#DejaVuSans-2d"/>
      <use x="505.488281" xlink:href="#DejaVuSans-65"/>
      <use x="567.011719" xlink:href="#DejaVuSans-76"/>
      <use x="626.191406" xlink:href="#DejaVuSans-61"/>
      <use x="687.470703" xlink:href="#DejaVuSans-6c"/>
      <use x="715.253906" xlink:href="#DejaVuSans-73"/>
      <use x="767.353516" xlink:href="#DejaVuSans-20"/>
      <use x="799.140625" xlink:href="#DejaVuSans-2f"/>
      <use x="832.832031" xlink:href="#DejaVuSans-20"/>
      <use x="864.619141" xlink:href="#DejaVuSans-64"/>
      <use x="928.095703" xlink:href="#DejaVuSans-69"/>
      <use x="955.878906" xlink:href="#DejaVuSans-6d"/>
      <use x="1053.291016" xlink:href="#DejaVuSans-65"/>
      <use x="1114.814453" xlink:href="#DejaVuSans-6e"/>
      <use x="1178.193359" xlink:href="#DejaVuSans-73"/>
      <use x="1230.292969" xlink:href="#DejaVuSans-69"/>
      <use x="1258.076172" xlink:href="#DejaVuSans-6f"/>
      <use x="1319.257812" xlink:href="#DejaVuSans-6e"/>
      <use x="1382.636719" xlink:href="#DejaVuSans-29"/>
     </g>
    </g>
   </g>
   <g id="matplotlib.axis_2">
    <g id="ytick_1">
     <g id="line2d_11">
      <path clip-path="url(#p963c597d84)" d="M 56.12 294.88 
L 399.984 294.88 
" style="fill:none;stroke:#b0b0b0;stroke-linecap:square;stroke-width:0.8;"/>
     </g>
     <g id="line2d_12">
      <defs>
       <path d="M 0 0 
L -3.5 0 
" id="m219f3e565b" style="stroke:#000000;stroke-width:0.8;"/>
      </defs>
      <g>
       <use style="stroke:#000000;stroke-width:0.8;" x="56.12" xlink:href="#m219f3e565b" y="294.88"/>
      </g>
     </g>
     <g id="text_7">
      <!-- 0.0 -->
      <defs>
       <path d="M 10.6875 12.40625 
L 21 12.40625 
L 21 0 
L 10.6875 0 
z
" id="DejaVuSans-2e"/>
      </defs>
      <g transform="translate(23.675 300.95875)scale(0.16 -0.16)">
       <use xlink:href="#DejaVuSans-30"/>
       <use x="63.623047" xlink:href="#DejaVuSans-2e"/>
       <use x="95.410156" xlink:href="#DejaVuSans-30"/>
      </g>
     </g>
    </g>
    <g id="ytick_2">
     <g id="line2d_13">
      <path clip-path="url(#p963c597d84)" d="M 56.12 237.843411 
L 399.984 237.843411 
" style="fill:none;stroke:#b0b0b0;stroke-linecap:square;stroke-width:0.8;"/>
     </g>
     <g id="line2d_14">
      <g>
       <use style="stroke:#000000;stroke-width:0.8;" x="56.12" xlink:href="#m219f3e565b" y="237.843411"/>
      </g>
     </g>
     <g id="text_8">
      <!-- 0.2 -->
      <g transform="translate(23.675 243.922161)scale(0.16 -0.16)">
       <use xlink:href="#DejaVuSans-30"/>
       <use x="63.623047" xlink:href="#DejaVuSans-2e"/>
       <use x="95.410156" xlink:href="#DejaVuSans-32"/>
      </g>
     </g>
    </g>
    <g id="ytick_3">
     <g id="line2d_15">
      <path clip-path="url(#p963c597d84)" d="M 56.12 180.806823 
L 399.984 180.806823 
" style="fill:none;stroke:#b0b0b0;stroke-linecap:square;stroke-width:0.8;"/>
     </g>
     <g id="line2d_16">
      <g>
       <use style="stroke:#000000;stroke-width:0.8;" x="56.12" xlink:href="#m219f3e565b" y="180.806823"/>
      </g>
     </g>
     <g id="text_9">
      <!-- 0.4 -->
      <g transform="translate(23.675 186.885573)scale(0.16 -0.16)">
       <use xlink:href="#DejaVuSans-30"/>
       <use x="63.623047" xlink:href="#DejaVuSans-2e"/>
       <use x="95.410156" xlink:href="#DejaVuSans-34"/>
      </g>
     </g>
    </g>
    <g id="ytick_4">
     <g id="line2d_17">
      <path clip-path="url(#p963c597d84)" d="M 56.12 123.770234 
L 399.984 123.770234 
" style="fill:none;stroke:#b0b0b0;stroke-linecap:square;stroke-width:0.8;"/>
     </g>
     <g id="line2d_18">
      <g>
       <use style="stroke:#000000;stroke-width:0.8;" x="56.12" xlink:href="#m219f3e565b" y="123.770234"/>
      </g>
     </g>
     <g id="text_10">
      <!-- 0.6 -->
      <g transform="translate(23.675 129.848984)scale(0.16 -0.16)">
       <use xlink:href="#DejaVuSans-30"/>
       <use x="63.623047" xlink:href="#DejaVuSans-2e"/>
       <use x="95.410156" xlink:href="#DejaVuSans-36"/>
      </g>
     </g>
    </g>
    <g id="ytick_5">
     <g id="line2d_19">
      <path clip-path="url(#p963c597d84)" d="M 56.12 66.733646 
L 399.984 66.733646 
" style="fill:none;stroke:#b0b0b0;stroke-linecap:square;stroke-width:0.8;"/>
     </g>
     <g id="line2d_20">
      <g>
       <use style="stroke:#000000;stroke-width:0.8;" x="56.12" xlink:href="#m219f3e565b" y="66.733646"/>
      </g>
     </g>
     <g id="text_11">
      <!-- 0.8 -->
      <g transform="translate(23.675 72.812396)scale(0.16 -0.16)">
       <use xlink:href="#DejaVuSans-30"/>
       <use x="63.623047" xlink:href="#DejaVuSans-2e"/>
       <use x="95.410156" xlink:href="#DejaVuSans-38"/>
      </g>
     </g>
    </g>
    <g id="ytick_6">
     <g id="line2d_21">
      <path clip-path="url(#p963c597d84)" d="M 56.12 9.697057 
L 399.984 9.697057 
" style="fill:none;stroke:#b0b0b0;stroke-linecap:square;stroke-width:0.8;"/>
     </g>
     <g id="line2d_22">
      <g>
       <use style="stroke:#000000;stroke-width:0.8;" x="56.12" xlink:href="#m219f3e565b" y="9.697057"/>
      </g>
     </g>
     <g id="text_12">
      <!-- 1.0 -->
      <g transform="translate(23.675 15.775807)scale(0.16 -0.16)">
       <use xlink:href="#DejaVuSans-31"/>
       <use x="63.623047" xlink:href="#DejaVuSans-2e"/>
       <use x="95.410156" xlink:href="#DejaVuSans-30"/>
      </g>
     </g>
    </g>
    <g id="text_13">
     <!-- Fraction of function,target pairs -->
     <defs>
      <path d="M 9.8125 72.90625 
L 51.703125 72.90625 
L 51.703125 64.59375 
L 19.671875 64.59375 
L 19.671875 43.109375 
L 48.578125 43.109375 
L 48.578125 34.8125 
L 19.671875 34.8125 
L 19.671875 0 
L 9.8125 0 
z
" id="DejaVuSans-46"/>
      <path d="M 41.109375 46.296875 
Q 39.59375 47.171875 37.8125 47.578125 
Q 36.03125 48 33.890625 48 
Q 26.265625 48 22.1875 43.046875 
Q 18.109375 38.09375 18.109375 28.8125 
L 18.109375 0 
L 9.078125 0 
L 9.078125 54.6875 
L 18.109375 54.6875 
L 18.109375 46.1875 
Q 20.953125 51.171875 25.484375 53.578125 
Q 30.03125 56 36.53125 56 
Q 37.453125 56 38.578125 55.875 
Q 39.703125 55.765625 41.0625 55.515625 
z
" id="DejaVuSans-72"/>
      <path d="M 48.78125 52.59375 
L 48.78125 44.1875 
Q 44.96875 46.296875 41.140625 47.34375 
Q 37.3125 48.390625 33.40625 48.390625 
Q 24.65625 48.390625 19.8125 42.84375 
Q 14.984375 37.3125 14.984375 27.296875 
Q 14.984375 17.28125 19.8125 11.734375 
Q 24.65625 6.203125 33.40625 6.203125 
Q 37.3125 6.203125 41.140625 7.25 
Q 44.96875 8.296875 48.78125 10.40625 
L 48.78125 2.09375 
Q 45.015625 0.34375 40.984375 -0.53125 
Q 36.96875 -1.421875 32.421875 -1.421875 
Q 20.0625 -1.421875 12.78125 6.34375 
Q 5.515625 14.109375 5.515625 27.296875 
Q 5.515625 40.671875 12.859375 48.328125 
Q 20.21875 56 33.015625 56 
Q 37.15625 56 41.109375 55.140625 
Q 45.0625 54.296875 48.78125 52.59375 
z
" id="DejaVuSans-63"/>
      <path d="M 18.3125 70.21875 
L 18.3125 54.6875 
L 36.8125 54.6875 
L 36.8125 47.703125 
L 18.3125 47.703125 
L 18.3125 18.015625 
Q 18.3125 11.328125 20.140625 9.421875 
Q 21.96875 7.515625 27.59375 7.515625 
L 36.8125 7.515625 
L 36.8125 0 
L 27.59375 0 
Q 17.1875 0 13.234375 3.875 
Q 9.28125 7.765625 9.28125 18.015625 
L 9.28125 47.703125 
L 2.6875 47.703125 
L 2.6875 54.6875 
L 9.28125 54.6875 
L 9.28125 70.21875 
z
" id="DejaVuSans-74"/>
      <path d="M 8.5 21.578125 
L 8.5 54.6875 
L 17.484375 54.6875 
L 17.484375 21.921875 
Q 17.484375 14.15625 20.5 10.265625 
Q 23.53125 6.390625 29.59375 6.390625 
Q 36.859375 6.390625 41.078125 11.03125 
Q 45.3125 15.671875 45.3125 23.6875 
L 45.3125 54.6875 
L 54.296875 54.6875 
L 54.296875 0 
L 45.3125 0 
L 45.3125 8.40625 
Q 42.046875 3.421875 37.71875 1 
Q 33.40625 -1.421875 27.6875 -1.421875 
Q 18.265625 -1.421875 13.375 4.4375 
Q 8.5 10.296875 8.5 21.578125 
z
M 31.109375 56 
z
" id="DejaVuSans-75"/>
      <path d="M 11.71875 12.40625 
L 22.015625 12.40625 
L 22.015625 4 
L 14.015625 -11.625 
L 7.71875 -11.625 
L 11.71875 4 
z
" id="DejaVuSans-2c"/>
      <path d="M 18.109375 8.203125 
L 18.109375 -20.796875 
L 9.078125 -20.796875 
L 9.078125 54.6875 
L 18.109375 54.6875 
L 18.109375 46.390625 
Q 20.953125 51.265625 25.265625 53.625 
Q 29.59375 56 35.59375 56 
Q 45.5625 56 51.78125 48.09375 
Q 58.015625 40.1875 58.015625 27.296875 
Q 58.015625 14.40625 51.78125 6.484375 
Q 45.5625 -1.421875 35.59375 -1.421875 
Q 29.59375 -1.421875 25.265625 0.953125 
Q 20.953125 3.328125 18.109375 8.203125 
z
M 48.6875 27.296875 
Q 48.6875 37.203125 44.609375 42.84375 
Q 40.53125 48.484375 33.40625 48.484375 
Q 26.265625 48.484375 22.1875 42.84375 
Q 18.109375 37.203125 18.109375 27.296875 
Q 18.109375 17.390625 22.1875 11.75 
Q 26.265625 6.109375 33.40625 6.109375 
Q 40.53125 6.109375 44.609375 11.75 
Q 48.6875 17.390625 48.6875 27.296875 
z
" id="DejaVuSans-70"/>
     </defs>
     <g transform="translate(16.139531 286.001989)rotate(-90)scale(0.17 -0.17)">
      <use xlink:href="#DejaVuSans-46"/>
      <use x="57.410156" xlink:href="#DejaVuSans-72"/>
      <use x="98.523438" xlink:href="#DejaVuSans-61"/>
      <use x="159.802734" xlink:href="#DejaVuSans-63"/>
      <use x="214.783203" xlink:href="#DejaVuSans-74"/>
      <use x="253.992188" xlink:href="#DejaVuSans-69"/>
      <use x="281.775391" xlink:href="#DejaVuSans-6f"/>
      <use x="342.957031" xlink:href="#DejaVuSans-6e"/>
      <use x="406.335938" xlink:href="#DejaVuSans-20"/>
      <use x="438.123047" xlink:href="#DejaVuSans-6f"/>
      <use x="499.304688" xlink:href="#DejaVuSans-66"/>
      <use x="534.509766" xlink:href="#DejaVuSans-20"/>
      <use x="566.296875" xlink:href="#DejaVuSans-66"/>
      <use x="601.501953" xlink:href="#DejaVuSans-75"/>
      <use x="664.880859" xlink:href="#DejaVuSans-6e"/>
      <use x="728.259766" xlink:href="#DejaVuSans-63"/>
      <use x="783.240234" xlink:href="#DejaVuSans-74"/>
      <use x="822.449219" xlink:href="#DejaVuSans-69"/>
      <use x="850.232422" xlink:href="#DejaVuSans-6f"/>
      <use x="911.414062" xlink:href="#DejaVuSans-6e"/>
      <use x="974.792969" xlink:href="#DejaVuSans-2c"/>
      <use x="1006.580078" xlink:href="#DejaVuSans-74"/>
      <use x="1045.789062" xlink:href="#DejaVuSans-61"/>
      <use x="1107.068359" xlink:href="#DejaVuSans-72"/>
      <use x="1148.166016" xlink:href="#DejaVuSans-67"/>
      <use x="1211.642578" xlink:href="#DejaVuSans-65"/>
      <use x="1273.166016" xlink:href="#DejaVuSans-74"/>
      <use x="1312.375" xlink:href="#DejaVuSans-20"/>
      <use x="1344.162109" xlink:href="#DejaVuSans-70"/>
      <use x="1407.638672" xlink:href="#DejaVuSans-61"/>
      <use x="1468.917969" xlink:href="#DejaVuSans-69"/>
      <use x="1496.701172" xlink:href="#DejaVuSans-72"/>
      <use x="1537.814453" xlink:href="#DejaVuSans-73"/>
     </g>
    </g>
   </g>
   <g id="line2d_23">
    <defs>
     <path d="M 0 1.5 
C 0.397805 1.5 0.77937 1.341951 1.06066 1.06066 
C 1.341951 0.77937 1.5 0.397805 1.5 0 
C 1.5 -0.397805 1.341951 -0.77937 1.06066 -1.06066 
C 0.77937 -1.341951 0.397805 -1.5 0 -1.5 
C -0.397805 -1.5 -0.77937 -1.341951 -1.06066 -1.06066 
C -1.341951 -0.77937 -1.5 -0.397805 -1.5 0 
C -1.5 0.397805 -1.341951 0.77937 -1.06066 1.06066 
C -0.77937 1.341951 -0.397805 1.5 0 1.5 
z
" id="m1dbacffb77" style="stroke:#000080;"/>
    </defs>
    <g>
     <use style="fill:#000080;stroke:#000080;" x="150.556439" xlink:href="#m1dbacffb77" y="9.697057"/>
     <use style="fill:#000080;stroke:#000080;" x="150.556439" xlink:href="#m1dbacffb77" y="9.697057"/>
    </g>
   </g>
   <g id="line2d_24">
    <path d="M 49.144027 294.88 
L 49.144027 271.394346 
L 103.089785 271.394346 
L 103.089785 270.835164 
L 108.771549 270.835164 
L 108.771549 270.275981 
L 110.313314 270.275981 
L 110.313314 269.716799 
L 111.269386 269.716799 
L 111.269386 268.598435 
L 111.72821 268.598435 
L 111.72821 268.039252 
L 112.175115 268.039252 
L 112.175115 267.48007 
L 112.610704 267.48007 
L 112.610704 265.802523 
L 113.035537 265.802523 
L 113.035537 264.124977 
L 113.450132 264.124977 
L 113.450132 261.329066 
L 114.250503 261.329066 
L 114.250503 259.092337 
L 114.637146 259.092337 
L 114.637146 256.855608 
L 115.01529 256.855608 
L 115.01529 254.618879 
L 115.385301 254.618879 
L 115.385301 249.586238 
L 115.747522 249.586238 
L 115.747522 247.908692 
L 128.202449 247.908692 
L 128.202449 247.34951 
L 128.546558 247.34951 
L 128.546558 246.790327 
L 128.883919 246.790327 
L 128.883919 245.671963 
L 129.050151 245.671963 
L 129.050151 245.112781 
L 129.539422 245.112781 
L 129.539422 244.553598 
L 129.699468 244.553598 
L 129.699468 243.435234 
L 129.858039 243.435234 
L 129.858039 242.876052 
L 130.015162 242.876052 
L 130.015162 241.757687 
L 130.170864 241.757687 
L 130.170864 240.639323 
L 130.478102 240.639323 
L 130.478102 239.520958 
L 130.629687 239.520958 
L 130.629687 236.725047 
L 130.92891 236.725047 
L 130.92891 236.165865 
L 131.076592 236.165865 
L 131.076592 235.606682 
L 131.368207 235.606682 
L 131.368207 235.0475 
L 131.796566 235.0475 
L 131.796566 234.488318 
L 132.35161 234.488318 
L 132.35161 233.369954 
L 133.021144 233.369954 
L 133.021144 232.251589 
L 133.281829 232.251589 
L 133.281829 231.692407 
L 133.538623 231.692407 
L 133.538623 230.574042 
L 133.665597 230.574042 
L 133.665597 230.01486 
L 133.79164 230.01486 
L 133.79164 229.455678 
L 134.164323 229.455678 
L 134.164323 228.896496 
L 135.579219 228.896496 
L 135.579219 228.337313 
L 136.245297 228.337313 
L 136.245297 227.218949 
L 137.095092 227.218949 
L 137.095092 224.98222 
L 137.504752 224.98222 
L 137.504752 223.863855 
L 137.70598 223.863855 
L 137.70598 223.304673 
L 137.904883 223.304673 
L 138.003478 219.390397 
L 138.101512 219.390397 
L 138.101512 218.831215 
L 138.488154 218.831215 
L 138.583472 217.153669 
L 138.772539 217.153669 
L 138.866299 213.798575 
L 138.95955 213.798575 
L 139.052299 212.121028 
L 139.23631 212.121028 
L 139.327583 209.325117 
L 139.508688 209.325117 
L 139.598531 207.64757 
L 139.687907 207.64757 
L 139.776821 203.733295 
L 139.865278 203.733295 
L 139.865278 201.496566 
L 140.04084 201.496566 
L 140.04084 199.819019 
L 140.214628 199.819019 
L 140.300868 197.023108 
L 140.386678 197.023108 
L 140.386678 192.54965 
L 140.557025 192.54965 
L 140.641569 190.872103 
L 140.725701 190.872103 
L 140.809423 188.076192 
L 140.975655 188.076192 
L 141.058173 183.043552 
L 141.140296 183.043552 
L 141.140296 181.925187 
L 141.464926 181.925187 
L 141.545135 179.129276 
L 141.624972 179.129276 
L 141.704441 176.892547 
L 141.783544 176.892547 
L 141.862285 172.419089 
L 142.018694 172.419089 
L 142.096368 170.18236 
L 142.173693 170.18236 
L 142.250673 167.945631 
L 142.327309 167.945631 
L 142.403606 161.235444 
L 142.479566 161.235444 
L 142.479566 158.439533 
L 142.630487 158.439533 
L 142.705453 155.08444 
L 142.780095 155.08444 
L 142.854414 152.847711 
L 142.928414 152.847711 
L 143.002096 148.933435 
L 143.075465 148.933435 
L 143.148522 141.664066 
L 143.22127 141.664066 
L 143.293711 133.835515 
L 143.437686 133.835515 
L 143.509224 129.921239 
L 143.580466 129.921239 
L 143.651414 124.329417 
L 143.72207 124.329417 
L 143.792438 120.974323 
L 143.862519 120.974323 
L 143.932316 117.060047 
L 144.00183 117.060047 
L 144.071065 115.382501 
L 144.140023 115.382501 
L 144.140023 109.790678 
L 144.277114 109.790678 
L 144.277114 108.113132 
L 144.413122 108.113132 
L 144.480724 106.435585 
L 144.548063 106.435585 
L 144.615138 103.080491 
L 144.681953 103.080491 
L 144.74851 96.370304 
L 144.880856 96.370304 
L 144.946649 90.2193 
L 145.012191 90.2193 
L 145.077485 86.305024 
L 145.142532 86.305024 
L 145.142532 84.627477 
L 145.271892 84.627477 
L 145.271892 83.509113 
L 145.400287 83.509113 
L 145.464127 80.713202 
L 145.527731 80.713202 
L 145.591101 77.358108 
L 145.654238 77.358108 
L 145.717145 75.680562 
L 145.779822 75.680562 
L 145.842271 71.207104 
L 145.904495 71.207104 
L 145.904495 68.411192 
L 146.028272 68.411192 
L 146.089828 67.292828 
L 146.151164 67.292828 
L 146.212283 63.378552 
L 146.273185 63.378552 
L 146.333872 57.78673 
L 146.394347 57.78673 
L 146.454609 56.668365 
L 146.574504 56.668365 
L 146.63414 54.990819 
L 146.693569 54.990819 
L 146.693569 53.872454 
L 146.811816 53.872454 
L 146.870636 50.517361 
L 146.929256 50.517361 
L 146.929256 49.398996 
L 147.219395 49.398996 
L 147.276841 48.280632 
L 147.391159 48.280632 
L 147.448035 42.129627 
L 147.504723 42.129627 
L 147.504723 40.45208 
L 147.617542 40.45208 
L 147.673676 37.656169 
L 147.785396 37.656169 
L 147.840985 36.537805 
L 148.27935 36.537805 
L 148.387217 33.741894 
L 148.494413 33.741894 
L 148.600945 28.150071 
L 148.653965 28.150071 
L 148.653965 27.590889 
L 148.812051 27.590889 
L 148.864425 25.35416 
L 149.020597 25.35416 
L 149.072341 24.235795 
L 149.175364 24.235795 
L 149.175364 22.558249 
L 149.430256 22.558249 
L 149.531165 18.643973 
L 149.581398 18.643973 
L 149.631485 15.848062 
L 149.731223 15.848062 
L 149.731223 14.729697 
L 149.879756 14.729697 
L 149.978069 12.492968 
L 150.173027 12.492968 
L 150.221424 11.374604 
L 150.556439 11.374604 
L 150.556439 9.697057 
L 333.429677 9.697057 
L 333.429677 9.697057 
" style="fill:none;stroke:#000080;stroke-linecap:square;stroke-width:1.5;"/>
   </g>
   <g id="line2d_25">
    <defs>
     <path d="M 0 6 
C 1.591219 6 3.117479 5.367802 4.242641 4.242641 
C 5.367802 3.117479 6 1.591219 6 0 
C 6 -1.591219 5.367802 -3.117479 4.242641 -4.242641 
C 3.117479 -5.367802 1.591219 -6 0 -6 
C -1.591219 -6 -3.117479 -5.367802 -4.242641 -4.242641 
C -5.367802 -3.117479 -6 -1.591219 -6 0 
C -6 1.591219 -5.367802 3.117479 -4.242641 4.242641 
C -3.117479 5.367802 -1.591219 6 0 6 
z
" id="mf4a0b77c90" style="stroke:#000080;stroke-width:1.5;"/>
    </defs>
    <g>
     <use style="fill-opacity:0;stroke:#000080;stroke-width:1.5;" x="139.052299" xlink:href="#mf4a0b77c90" y="213.239393"/>
     <use style="fill-opacity:0;stroke:#000080;stroke-width:1.5;" x="144.946649" xlink:href="#mf4a0b77c90" y="92.456029"/>
     <use style="fill-opacity:0;stroke:#000080;stroke-width:1.5;" x="150.556439" xlink:href="#mf4a0b77c90" y="11.374604"/>
     <use style="fill-opacity:0;stroke:#000080;stroke-width:1.5;" x="150.556439" xlink:href="#mf4a0b77c90" y="9.697057"/>
     <use style="fill-opacity:0;stroke:#000080;stroke-width:1.5;" x="150.556439" xlink:href="#mf4a0b77c90" y="9.697057"/>
     <use style="fill-opacity:0;stroke:#000080;stroke-width:1.5;" x="333.429677" xlink:href="#mf4a0b77c90" y="9.697057"/>
    </g>
   </g>
   <g id="line2d_26">
    <path style="fill:none;stroke:#000080;stroke-linecap:square;stroke-width:1.5;"/>
    <g/>
   </g>
   <g id="line2d_27">
    <defs>
     <path d="M 0 1.5 
C 0.397805 1.5 0.77937 1.341951 1.06066 1.06066 
C 1.341951 0.77937 1.5 0.397805 1.5 0 
C 1.5 -0.397805 1.341951 -0.77937 1.06066 -1.06066 
C 0.77937 -1.341951 0.397805 -1.5 0 -1.5 
C -0.397805 -1.5 -0.77937 -1.341951 -1.06066 -1.06066 
C -1.341951 -0.77937 -1.5 -0.397805 -1.5 0 
C -1.5 0.397805 -1.341951 0.77937 -1.06066 1.06066 
C -0.77937 1.341951 -0.397805 1.5 0 1.5 
z
" id="m612fcfadfb" style="stroke:#ff00ff;"/>
    </defs>
    <g>
     <use style="fill:#ff00ff;stroke:#ff00ff;" x="202.916715" xlink:href="#m612fcfadfb" y="9.697057"/>
     <use style="fill:#ff00ff;stroke:#ff00ff;" x="202.916715" xlink:href="#m612fcfadfb" y="9.697057"/>
    </g>
   </g>
   <g id="line2d_28">
    <path d="M 123.425832 294.88 
L 123.425832 294.320818 
L 123.878618 294.320818 
L 123.878618 293.761636 
L 124.100619 293.761636 
L 124.100619 293.202453 
L 124.749936 293.202453 
L 124.749936 292.084089 
L 125.579247 292.084089 
L 125.579247 291.524907 
L 126.940794 291.524907 
L 126.940794 290.406542 
L 135.804122 290.406542 
L 135.804122 289.84736 
L 136.781317 289.84736 
L 136.886546 285.933084 
L 137.095092 285.933084 
L 137.095092 285.373902 
L 138.003478 285.373902 
L 138.003478 282.577991 
L 139.953283 282.577991 
L 139.953283 281.459626 
L 140.557025 281.459626 
L 140.557025 280.341262 
L 141.303377 280.341262 
L 141.303377 279.782079 
L 141.704441 279.782079 
L 141.704441 278.663715 
L 142.250673 278.663715 
L 142.327309 276.426986 
L 142.479566 276.426986 
L 142.479566 275.867804 
L 142.928414 275.867804 
L 143.03882 274.749439 
L 143.112032 274.749439 
L 143.22127 273.631075 
L 144.681953 273.631075 
L 144.681953 272.51271 
L 145.077485 272.51271 
L 145.077485 270.275981 
L 145.400287 270.275981 
L 145.400287 266.920888 
L 145.842271 266.920888 
L 145.842271 265.802523 
L 146.151164 265.802523 
L 146.151164 265.243341 
L 146.273185 265.243341 
L 146.273185 264.684159 
L 146.454609 264.684159 
L 146.454609 264.124977 
L 146.929256 264.124977 
L 146.929256 263.565795 
L 147.0459 263.565795 
L 147.074937 262.44743 
L 147.391159 262.44743 
L 147.391159 261.329066 
L 147.504723 261.329066 
L 147.504723 260.210701 
L 147.840985 260.210701 
L 147.840985 259.651519 
L 148.360314 259.651519 
L 148.360314 259.092337 
L 149.328752 259.092337 
L 149.328752 258.533154 
L 149.606459 258.533154 
L 149.606459 257.973972 
L 150.173027 257.973972 
L 150.197243 256.855608 
L 151.389095 256.855608 
L 151.389095 256.296425 
L 151.966344 256.296425 
L 152.031721 255.178061 
L 152.461328 255.178061 
L 152.461328 254.059696 
L 152.693117 254.059696 
L 152.776636 252.38215 
L 152.818244 252.38215 
L 152.901159 249.027056 
L 152.942468 249.027056 
L 152.942468 245.671963 
L 153.08627 245.671963 
L 153.08627 245.112781 
L 153.410518 245.112781 
L 153.510605 242.316869 
L 153.748464 242.316869 
L 153.748464 241.198505 
L 153.866171 241.198505 
L 153.885711 238.961776 
L 154.291004 238.961776 
L 154.291004 237.284229 
L 154.593515 237.284229 
L 154.593515 236.725047 
L 154.705599 236.725047 
L 154.705599 235.0475 
L 155.110439 235.0475 
L 155.110439 232.810771 
L 155.273347 232.810771 
L 155.273347 232.251589 
L 155.541481 232.251589 
L 155.576918 230.574042 
L 155.753019 230.574042 
L 155.77053 228.896496 
L 155.875225 228.896496 
L 155.927335 227.218949 
L 156.134209 227.218949 
L 156.134209 225.541402 
L 156.304725 225.541402 
L 156.355552 223.863855 
L 156.439931 223.863855 
L 156.439931 223.304673 
L 156.574083 223.304673 
L 156.574083 222.745491 
L 156.707196 222.745491 
L 156.80636 220.508762 
L 156.839288 220.508762 
L 156.839288 219.94958 
L 157.132838 219.94958 
L 157.132838 219.390397 
L 157.277756 219.390397 
L 157.277756 218.831215 
L 157.437357 218.831215 
L 157.437357 218.272033 
L 157.626944 218.272033 
L 157.626944 217.153669 
L 157.861027 217.153669 
L 157.861027 216.594486 
L 158.259377 216.594486 
L 158.304752 215.476122 
L 158.425172 215.476122 
L 158.470113 214.357757 
L 158.619074 214.357757 
L 158.678299 213.239393 
L 158.869384 213.239393 
L 158.883996 212.121028 
L 159.173647 212.121028 
L 159.173647 211.561846 
L 159.302415 211.561846 
L 159.3309 210.443482 
L 159.430228 210.443482 
L 159.48673 208.765935 
L 159.59918 208.765935 
L 159.59918 207.64757 
L 159.76649 207.64757 
L 159.808064 206.529206 
L 160.055423 206.529206 
L 160.150665 205.410841 
L 160.218375 205.410841 
L 160.218375 204.851659 
L 160.352999 204.851659 
L 160.352999 204.292477 
L 160.473266 204.292477 
L 160.55298 201.496566 
L 160.619127 201.496566 
L 160.69817 200.378201 
L 160.77685 200.378201 
L 160.829105 198.700655 
L 160.946101 198.700655 
L 160.946101 198.141472 
L 161.164947 198.141472 
L 161.216038 197.023108 
L 161.368406 197.023108 
L 161.444088 195.345561 
L 161.494358 195.345561 
L 161.494358 194.227197 
L 161.644292 194.227197 
L 161.644292 193.668014 
L 161.792931 193.668014 
L 161.842193 192.54965 
L 161.928065 192.54965 
L 161.928065 191.431285 
L 162.062145 191.431285 
L 162.062145 190.872103 
L 162.231295 190.872103 
L 162.243314 189.753739 
L 162.351107 189.753739 
L 162.351107 189.194556 
L 162.576475 189.194556 
L 162.576475 188.635374 
L 162.705615 188.635374 
L 162.787293 187.51701 
L 163.018545 187.51701 
L 163.121603 185.839463 
L 163.189967 185.839463 
L 163.189967 185.280281 
L 163.572313 185.280281 
L 163.572313 184.721099 
L 163.771343 184.721099 
L 163.859067 183.043552 
L 163.902762 183.043552 
L 164.011516 181.925187 
L 164.087237 181.925187 
L 164.14112 180.247641 
L 164.259073 180.247641 
L 164.344351 178.570094 
L 164.460923 178.570094 
L 164.566216 177.451729 
L 164.867972 177.451729 
L 164.970811 176.333365 
L 164.991305 176.333365 
L 164.991305 175.774183 
L 165.144238 175.774183 
L 165.22525 174.096636 
L 165.295824 174.096636 
L 165.406144 171.859907 
L 165.614811 171.859907 
L 165.673968 170.741543 
L 165.772114 170.741543 
L 165.879431 167.386449 
L 165.927991 167.386449 
L 165.976415 165.14972 
L 166.425055 165.14972 
L 166.425055 164.590538 
L 166.537751 164.590538 
L 166.575153 163.472173 
L 166.871477 163.472173 
L 166.981295 162.353809 
L 166.990415 162.353809 
L 166.990415 161.794627 
L 167.189842 161.794627 
L 167.288695 160.11708 
L 167.369154 160.11708 
L 167.440359 158.439533 
L 167.484713 158.439533 
L 167.564263 156.761987 
L 167.599501 156.761987 
L 167.625882 155.643622 
L 167.713528 155.643622 
L 167.713528 155.08444 
L 167.878835 155.08444 
L 167.93934 153.966075 
L 168.01682 153.966075 
L 168.111046 152.288529 
L 168.187759 152.288529 
L 168.187759 151.729346 
L 168.466147 151.729346 
L 168.507937 150.610982 
L 168.591213 150.610982 
L 168.665819 148.933435 
L 168.740102 148.933435 
L 168.781233 147.815071 
L 168.895878 147.815071 
L 168.985423 145.019159 
L 169.08258 145.019159 
L 169.08258 144.459977 
L 169.20326 144.459977 
L 169.211275 143.341613 
L 169.560303 143.341613 
L 169.654276 141.664066 
L 169.716641 141.664066 
L 169.817504 140.545702 
L 169.933154 140.545702 
L 170.017473 139.427337 
L 170.2529 139.427337 
L 170.2529 138.868155 
L 170.514889 138.868155 
L 170.589016 137.74979 
L 170.889641 137.74979 
L 170.896908 136.631426 
L 171.048813 136.631426 
L 171.048813 136.072244 
L 171.192247 136.072244 
L 171.220791 134.953879 
L 171.376942 134.953879 
L 171.376942 134.394697 
L 171.531688 134.394697 
L 171.615513 132.71715 
L 171.643363 132.71715 
L 171.712794 131.598786 
L 171.761229 131.598786 
L 171.857692 129.362057 
L 171.994566 129.362057 
L 172.082953 128.243692 
L 172.13712 128.243692 
L 172.13712 127.68451 
L 172.305302 127.68451 
L 172.305302 127.125328 
L 172.557831 127.125328 
L 172.557831 126.566145 
L 172.682718 126.566145 
L 172.780678 125.447781 
L 172.878082 125.447781 
L 172.955611 124.329417 
L 173.186122 124.329417 
L 173.186122 123.211052 
L 173.513724 123.211052 
L 173.519963 122.092688 
L 173.767698 122.092688 
L 173.804552 120.974323 
L 173.884134 120.974323 
L 173.945101 118.737594 
L 174.08451 118.737594 
L 174.132737 116.500865 
L 174.198829 116.500865 
L 174.276611 115.382501 
L 174.472494 115.382501 
L 174.507871 113.704954 
L 174.601855 113.704954 
L 174.648655 111.468225 
L 174.724435 111.468225 
L 174.724435 110.909043 
L 174.886527 110.909043 
L 174.989929 108.672314 
L 175.160896 108.672314 
L 175.257029 106.994767 
L 175.313328 106.994767 
L 175.41979 104.758038 
L 175.43654 104.758038 
L 175.47556 103.639674 
L 175.663835 103.639674 
L 175.663835 103.080491 
L 176.066625 103.080491 
L 176.173887 101.402945 
L 176.184577 101.402945 
L 176.184577 100.843762 
L 176.333538 100.843762 
L 176.439154 98.607033 
L 176.528421 98.607033 
L 176.554588 96.929487 
L 176.68483 96.929487 
L 176.68483 96.370304 
L 177.05451 96.370304 
L 177.05451 95.811122 
L 177.186078 95.811122 
L 177.256507 94.692758 
L 177.316646 94.692758 
L 177.316646 94.133576 
L 177.624061 94.133576 
L 177.648615 93.015211 
L 177.809798 93.015211 
L 177.887406 90.778482 
L 178.222888 90.778482 
L 178.256079 89.100935 
L 178.388207 89.100935 
L 178.425772 87.982571 
L 178.640195 87.982571 
L 178.714155 86.305024 
L 178.838245 86.305024 
L 178.920478 84.627477 
L 179.024984 84.627477 
L 179.065706 83.509113 
L 179.821648 83.509113 
L 179.916536 81.831566 
L 180.104756 81.831566 
L 180.159975 79.594837 
L 180.286731 79.594837 
L 180.286731 78.476473 
L 180.620249 78.476473 
L 180.620249 77.917291 
L 180.971715 77.917291 
L 181.052432 75.680562 
L 181.128765 75.680562 
L 181.188789 74.003015 
L 181.304245 74.003015 
L 181.38737 72.325468 
L 181.4465 72.325468 
L 181.497582 70.647921 
L 181.746876 70.647921 
L 181.746876 70.088739 
L 181.858659 70.088739 
L 181.858659 69.529557 
L 182.253666 69.529557 
L 182.317381 68.411192 
L 182.392039 68.411192 
L 182.392039 67.85201 
L 182.51452 67.85201 
L 182.51452 67.292828 
L 182.702111 67.292828 
L 182.796965 65.056099 
L 182.815146 65.056099 
L 182.891298 62.81937 
L 183.049769 62.81937 
L 183.049769 62.260188 
L 183.220999 62.260188 
L 183.220999 61.701006 
L 183.408106 61.701006 
L 183.408106 61.141823 
L 183.523587 61.141823 
L 183.547984 60.023459 
L 183.95752 60.023459 
L 183.95752 59.464277 
L 184.099766 59.464277 
L 184.197301 57.78673 
L 184.39736 57.78673 
L 184.480036 56.668365 
L 184.601672 56.668365 
L 184.706182 55.550001 
L 184.79711 55.550001 
L 184.848854 54.431636 
L 185.156092 54.431636 
L 185.156092 53.872454 
L 185.279357 53.872454 
L 185.310822 52.194907 
L 185.404872 52.194907 
L 185.461056 51.076543 
L 185.569781 51.076543 
L 185.628517 49.398996 
L 185.8249 49.398996 
L 185.834051 48.280632 
L 185.970731 48.280632 
L 186.028116 47.162267 
L 186.097326 47.162267 
L 186.097326 46.603085 
L 186.220016 46.603085 
L 186.300336 45.484721 
L 186.500978 45.484721 
L 186.500978 44.925538 
L 187.035289 44.925538 
L 187.109069 43.807174 
L 187.247261 43.807174 
L 187.320139 42.129627 
L 187.495459 42.129627 
L 187.545224 41.011263 
L 187.761951 41.011263 
L 187.761951 40.45208 
L 188.000197 40.45208 
L 188.083345 38.774534 
L 188.216613 38.774534 
L 188.216613 38.215351 
L 188.448688 38.215351 
L 188.519269 37.096987 
L 188.811563 37.096987 
L 188.811563 35.978622 
L 188.982554 35.978622 
L 188.982554 35.41944 
L 189.334456 35.41944 
L 189.334456 34.860258 
L 189.564302 34.860258 
L 189.618228 33.741894 
L 189.732871 33.741894 
L 189.81775 32.623529 
L 189.909432 32.623529 
L 189.945488 31.505165 
L 190.268996 31.505165 
L 190.268996 30.945982 
L 190.852817 30.945982 
L 190.861927 29.827618 
L 191.004763 29.827618 
L 191.038597 28.150071 
L 191.262476 28.150071 
L 191.300248 27.031707 
L 191.7385 27.031707 
L 191.7385 26.472524 
L 191.940685 26.472524 
L 191.940685 25.913342 
L 192.404798 25.913342 
L 192.51476 24.794978 
L 192.525097 24.794978 
L 192.605518 23.676613 
L 192.703984 23.676613 
L 192.703984 23.117431 
L 193.026186 23.117431 
L 193.026186 22.558249 
L 193.297072 22.558249 
L 193.297072 21.999066 
L 193.757247 21.999066 
L 193.757247 21.439884 
L 194.117103 21.439884 
L 194.117103 20.880702 
L 194.265317 20.880702 
L 194.265317 20.32152 
L 195.148278 20.32152 
L 195.148278 19.762337 
L 195.328343 19.762337 
L 195.328343 19.203155 
L 195.770429 19.203155 
L 195.780695 18.084791 
L 196.011774 18.084791 
L 196.011774 17.525609 
L 196.767899 17.525609 
L 196.859719 16.407244 
L 197.121201 16.407244 
L 197.179648 14.729697 
L 198.386835 14.729697 
L 198.386835 14.170515 
L 198.936604 14.170515 
L 199.028909 12.492968 
L 199.052969 12.492968 
L 199.052969 11.933786 
L 199.80293 11.933786 
L 199.80293 11.374604 
L 200.090266 11.374604 
L 200.090266 10.815422 
L 200.928363 10.815422 
L 200.928363 10.256239 
L 202.916715 10.256239 
L 202.916715 9.697057 
L 333.429677 9.697057 
L 333.429677 9.697057 
" style="fill:none;stroke:#ff00ff;stroke-linecap:square;stroke-width:1.5;"/>
   </g>
   <g id="line2d_29">
    <defs>
     <path d="M -0 8.485281 
L 5.091169 0 
L 0 -8.485281 
L -5.091169 -0 
z
" id="m6c89527726" style="stroke:#ff00ff;stroke-linejoin:miter;stroke-width:1.5;"/>
    </defs>
    <g>
     <use style="fill-opacity:0;stroke:#ff00ff;stroke-linejoin:miter;stroke-width:1.5;" x="166.425055" xlink:href="#m6c89527726" y="165.14972"/>
     <use style="fill-opacity:0;stroke:#ff00ff;stroke-linejoin:miter;stroke-width:1.5;" x="191.7385" xlink:href="#m6c89527726" y="27.031707"/>
     <use style="fill-opacity:0;stroke:#ff00ff;stroke-linejoin:miter;stroke-width:1.5;" x="202.916715" xlink:href="#m6c89527726" y="9.697057"/>
     <use style="fill-opacity:0;stroke:#ff00ff;stroke-linejoin:miter;stroke-width:1.5;" x="202.916715" xlink:href="#m6c89527726" y="9.697057"/>
     <use style="fill-opacity:0;stroke:#ff00ff;stroke-linejoin:miter;stroke-width:1.5;" x="333.429677" xlink:href="#m6c89527726" y="9.697057"/>
    </g>
   </g>
   <g id="line2d_30">
    <path style="fill:none;stroke:#ff00ff;stroke-linecap:square;stroke-width:1.5;"/>
    <g/>
   </g>
   <g id="line2d_31">
    <path clip-path="url(#p963c597d84)" d="M 131.440345 290.406542 
" style="fill:none;stroke:#ff00ff;stroke-linecap:square;stroke-width:1.5;"/>
    <defs>
     <path d="M -12 12 
L 12 -12 
M -12 -12 
L 12 12 
" id="m17ab15057d" style="stroke:#ff00ff;stroke-width:3;"/>
    </defs>
    <g clip-path="url(#p963c597d84)">
     <use style="fill:#ff00ff;stroke:#ff00ff;stroke-width:3;" x="131.440345" xlink:href="#m17ab15057d" y="290.406542"/>
    </g>
   </g>
   <g id="line2d_32">
    <defs>
     <path d="M 0 1.5 
C 0.397805 1.5 0.77937 1.341951 1.06066 1.06066 
C 1.341951 0.77937 1.5 0.397805 1.5 0 
C 1.5 -0.397805 1.341951 -0.77937 1.06066 -1.06066 
C 0.77937 -1.341951 0.397805 -1.5 0 -1.5 
C -0.397805 -1.5 -0.77937 -1.341951 -1.06066 -1.06066 
C -1.341951 -0.77937 -1.5 -0.397805 -1.5 0 
C -1.5 0.397805 -1.341951 0.77937 -1.06066 1.06066 
C -0.77937 1.341951 -0.397805 1.5 0 1.5 
z
" id="ma8c58ec38f" style="stroke:#ffa500;"/>
    </defs>
    <g>
     <use style="fill:#ffa500;stroke:#ffa500;" x="165.11376" xlink:href="#ma8c58ec38f" y="261.329066"/>
     <use style="fill:#ffa500;stroke:#ffa500;" x="165.11376" xlink:href="#ma8c58ec38f" y="261.329066"/>
    </g>
   </g>
   <g id="line2d_33">
    <path d="M 49.144027 294.88 
L 49.144027 290.965724 
L 103.822018 290.965724 
L 103.822018 289.84736 
L 106.47416 289.84736 
L 106.47416 289.288178 
L 107.077901 289.288178 
L 107.077901 288.169813 
L 107.661173 288.169813 
L 107.661173 286.492266 
L 110.313314 286.492266 
L 110.313314 285.933084 
L 110.797991 285.933084 
L 110.797991 285.373902 
L 120.963801 285.373902 
L 120.963801 284.81472 
L 121.740092 284.81472 
L 121.740092 283.137173 
L 123.878618 283.137173 
L 123.878618 282.577991 
L 126.273486 282.577991 
L 126.273486 282.018808 
L 128.027779 282.018808 
L 128.027779 280.900444 
L 128.289123 280.900444 
L 128.289123 280.341262 
L 129.539422 280.341262 
L 129.539422 279.222897 
L 131.512181 279.222897 
L 131.512181 276.986168 
L 132.622558 276.986168 
L 132.622558 276.426986 
L 133.281829 276.426986 
L 133.281829 275.308622 
L 133.728734 275.308622 
L 133.728734 274.749439 
L 136.026124 274.749439 
L 136.026124 274.190257 
L 137.095092 274.190257 
L 137.095092 273.631075 
L 139.23631 273.631075 
L 139.23631 273.071893 
L 139.508688 273.071893 
L 139.508688 272.51271 
L 140.127953 272.51271 
L 140.127953 271.953528 
L 140.557025 271.953528 
L 140.557025 270.835164 
L 142.327309 270.835164 
L 142.327309 270.275981 
L 142.555192 270.275981 
L 142.555192 269.716799 
L 146.394347 269.716799 
L 146.394347 269.157617 
L 147.924034 269.157617 
L 147.924034 268.598435 
L 148.494413 268.598435 
L 148.494413 268.039252 
L 148.547762 268.039252 
L 148.547762 267.48007 
L 150.124495 267.48007 
L 150.124495 266.920888 
L 150.861789 266.920888 
L 150.861789 266.361706 
L 150.931491 266.361706 
L 150.931491 265.802523 
L 151.68014 265.802523 
L 151.68014 265.243341 
L 151.702326 265.243341 
L 151.702326 264.684159 
L 156.134209 264.684159 
L 156.134209 264.124977 
L 156.723763 264.124977 
L 156.723763 263.565795 
L 159.458502 263.565795 
L 159.458502 263.006612 
L 161.406289 263.006612 
L 161.406289 262.44743 
L 164.826664 262.44743 
L 164.826664 261.888248 
L 165.11376 261.888248 
L 165.11376 261.329066 
L 333.429677 261.329066 
" style="fill:none;stroke:#ffa500;stroke-linecap:square;stroke-width:1.5;"/>
   </g>
   <g id="line2d_34">
    <defs>
     <path d="M 0 -6 
L -1.347084 -1.854102 
L -5.706339 -1.854102 
L -2.179628 0.708204 
L -3.526712 4.854102 
L -0 2.291796 
L 3.526712 4.854102 
L 2.179628 0.708204 
L 5.706339 -1.854102 
L 1.347084 -1.854102 
z
" id="mcecd2dd373" style="stroke:#ffa500;stroke-linejoin:bevel;stroke-width:1.5;"/>
    </defs>
    <g>
     <use style="fill-opacity:0;stroke:#ffa500;stroke-linejoin:bevel;stroke-width:1.5;" x="110.797991" xlink:href="#mcecd2dd373" y="285.933084"/>
     <use style="fill-opacity:0;stroke:#ffa500;stroke-linejoin:bevel;stroke-width:1.5;" x="165.11376" xlink:href="#mcecd2dd373" y="261.888248"/>
     <use style="fill-opacity:0;stroke:#ffa500;stroke-linejoin:bevel;stroke-width:1.5;" x="165.11376" xlink:href="#mcecd2dd373" y="261.888248"/>
     <use style="fill-opacity:0;stroke:#ffa500;stroke-linejoin:bevel;stroke-width:1.5;" x="165.11376" xlink:href="#mcecd2dd373" y="261.329066"/>
     <use style="fill-opacity:0;stroke:#ffa500;stroke-linejoin:bevel;stroke-width:1.5;" x="165.11376" xlink:href="#mcecd2dd373" y="261.329066"/>
     <use style="fill-opacity:0;stroke:#ffa500;stroke-linejoin:bevel;stroke-width:1.5;" x="333.429677" xlink:href="#mcecd2dd373" y="261.329066"/>
    </g>
   </g>
   <g id="line2d_35">
    <path style="fill:none;stroke:#ffa500;stroke-linecap:square;stroke-width:1.5;"/>
    <g/>
   </g>
   <g id="line2d_36">
    <path clip-path="url(#p963c597d84)" d="M 128.115335 280.900444 
" style="fill:none;stroke:#ffa500;stroke-linecap:square;stroke-width:1.5;"/>
    <defs>
     <path d="M -12 12 
L 12 -12 
M -12 -12 
L 12 12 
" id="ma5c3676638" style="stroke:#ffa500;stroke-width:3;"/>
    </defs>
    <g clip-path="url(#p963c597d84)">
     <use style="fill:#ffa500;stroke:#ffa500;stroke-width:3;" x="128.115335" xlink:href="#ma5c3676638" y="280.900444"/>
    </g>
   </g>
   <g id="line2d_37">
    <defs>
     <path d="M 0 1.5 
C 0.397805 1.5 0.77937 1.341951 1.06066 1.06066 
C 1.341951 0.77937 1.5 0.397805 1.5 0 
C 1.5 -0.397805 1.341951 -0.77937 1.06066 -1.06066 
C 0.77937 -1.341951 0.397805 -1.5 0 -1.5 
C -0.397805 -1.5 -0.77937 -1.341951 -1.06066 -1.06066 
C -1.341951 -0.77937 -1.5 -0.397805 -1.5 0 
C -1.5 0.397805 -1.341951 0.77937 -1.06066 1.06066 
C -0.77937 1.341951 -0.397805 1.5 0 1.5 
z
" id="m612a5480dd" style="stroke:#6495ed;"/>
    </defs>
    <g>
     <use style="fill:#6495ed;stroke:#6495ed;" x="165.664123" xlink:href="#m612a5480dd" y="261.329066"/>
     <use style="fill:#6495ed;stroke:#6495ed;" x="165.664123" xlink:href="#m612a5480dd" y="261.329066"/>
    </g>
   </g>
   <g id="line2d_38">
    <path d="M 49.144027 294.88 
L 49.144027 286.492266 
L 105.848459 286.492266 
L 105.848459 285.933084 
L 106.47416 285.933084 
L 106.47416 285.373902 
L 108.225317 285.373902 
L 108.225317 284.81472 
L 109.814588 284.81472 
L 109.814588 284.255537 
L 110.797991 284.255537 
L 110.797991 283.696355 
L 117.773963 283.696355 
L 117.773963 282.577991 
L 119.003405 282.577991 
L 119.003405 282.018808 
L 124.100619 282.018808 
L 124.100619 280.900444 
L 126.273486 280.900444 
L 126.273486 280.341262 
L 131.14996 280.341262 
L 131.14996 279.782079 
L 131.295765 279.782079 
L 131.295765 279.222897 
L 131.654961 279.222897 
L 131.654961 278.663715 
L 132.283201 278.663715 
L 132.283201 278.104533 
L 132.622558 278.104533 
L 132.622558 277.545351 
L 133.281829 277.545351 
L 133.281829 276.986168 
L 134.04099 276.986168 
L 134.04099 276.426986 
L 134.347681 276.426986 
L 134.347681 275.867804 
L 135.465655 275.867804 
L 135.465655 275.308622 
L 135.915481 275.308622 
L 135.915481 274.749439 
L 136.834012 274.749439 
L 136.834012 274.190257 
L 137.954251 274.190257 
L 137.954251 273.631075 
L 140.257802 273.631075 
L 140.257802 273.071893 
L 140.641569 273.071893 
L 140.641569 272.51271 
L 141.664752 272.51271 
L 141.664752 271.953528 
L 141.940667 271.953528 
L 141.940667 271.394346 
L 142.59288 271.394346 
L 142.59288 270.835164 
L 143.075465 270.835164 
L 143.075465 270.275981 
L 143.112032 270.275981 
L 143.112032 269.716799 
L 143.686778 269.716799 
L 143.686778 269.157617 
L 143.72207 269.157617 
L 143.72207 268.598435 
L 146.242761 268.598435 
L 146.242761 268.039252 
L 147.248142 268.039252 
L 147.248142 267.48007 
L 148.994666 267.48007 
L 148.994666 266.920888 
L 151.207511 266.920888 
L 151.207511 266.361706 
L 152.37626 266.361706 
L 152.37626 265.802523 
L 152.714035 265.802523 
L 152.714035 265.243341 
L 154.835448 265.243341 
L 154.835448 264.684159 
L 155.037536 264.684159 
L 155.037536 264.124977 
L 156.048314 264.124977 
L 156.048314 263.565795 
L 157.48495 263.565795 
L 157.48495 263.006612 
L 158.927755 263.006612 
L 158.927755 262.44743 
L 158.985929 262.44743 
L 158.985929 261.888248 
L 165.664123 261.888248 
L 165.664123 261.329066 
L 333.429677 261.329066 
" style="fill:none;stroke:#6495ed;stroke-linecap:square;stroke-width:1.5;"/>
   </g>
   <g id="line2d_39">
    <defs>
     <path d="M -0 6 
L 6 -6 
L -6 -6 
z
" id="mc68cb462a6" style="stroke:#6495ed;stroke-linejoin:miter;stroke-width:1.5;"/>
    </defs>
    <g>
     <use style="fill-opacity:0;stroke:#6495ed;stroke-linejoin:miter;stroke-width:1.5;" x="106.47416" xlink:href="#mc68cb462a6" y="285.373902"/>
     <use style="fill-opacity:0;stroke:#6495ed;stroke-linejoin:miter;stroke-width:1.5;" x="165.664123" xlink:href="#mc68cb462a6" y="261.888248"/>
     <use style="fill-opacity:0;stroke:#6495ed;stroke-linejoin:miter;stroke-width:1.5;" x="165.664123" xlink:href="#mc68cb462a6" y="261.888248"/>
     <use style="fill-opacity:0;stroke:#6495ed;stroke-linejoin:miter;stroke-width:1.5;" x="165.664123" xlink:href="#mc68cb462a6" y="261.329066"/>
     <use style="fill-opacity:0;stroke:#6495ed;stroke-linejoin:miter;stroke-width:1.5;" x="165.664123" xlink:href="#mc68cb462a6" y="261.329066"/>
     <use style="fill-opacity:0;stroke:#6495ed;stroke-linejoin:miter;stroke-width:1.5;" x="333.429677" xlink:href="#mc68cb462a6" y="261.329066"/>
    </g>
   </g>
   <g id="line2d_40">
    <path style="fill:none;stroke:#6495ed;stroke-linecap:square;stroke-width:1.5;"/>
    <g/>
   </g>
   <g id="line2d_41">
    <path clip-path="url(#p963c597d84)" d="M 129.458837 280.341262 
" style="fill:none;stroke:#6495ed;stroke-linecap:square;stroke-width:1.5;"/>
    <defs>
     <path d="M -12 12 
L 12 -12 
M -12 -12 
L 12 12 
" id="m65e7fcc15c" style="stroke:#6495ed;stroke-width:3;"/>
    </defs>
    <g clip-path="url(#p963c597d84)">
     <use style="fill:#6495ed;stroke:#6495ed;stroke-width:3;" x="129.458837" xlink:href="#m65e7fcc15c" y="280.341262"/>
    </g>
   </g>
   <g id="line2d_42">
    <defs>
     <path d="M 0 1.5 
C 0.397805 1.5 0.77937 1.341951 1.06066 1.06066 
C 1.341951 0.77937 1.5 0.397805 1.5 0 
C 1.5 -0.397805 1.341951 -0.77937 1.06066 -1.06066 
C 0.77937 -1.341951 0.397805 -1.5 0 -1.5 
C -0.397805 -1.5 -0.77937 -1.341951 -1.06066 -1.06066 
C -1.341951 -0.77937 -1.5 -0.397805 -1.5 0 
C -1.5 0.397805 -1.341951 0.77937 -1.06066 1.06066 
C -0.77937 1.341951 -0.397805 1.5 0 1.5 
z
" id="m5090d05e7c" style="stroke:#ff0000;"/>
    </defs>
    <g>
     <use style="fill:#ff0000;stroke:#ff0000;" x="176.559817" xlink:href="#m5090d05e7c" y="9.697057"/>
     <use style="fill:#ff0000;stroke:#ff0000;" x="176.559817" xlink:href="#m5090d05e7c" y="9.697057"/>
    </g>
   </g>
   <g id="line2d_43">
    <path d="M 49.144027 294.88 
L 49.144027 289.288178 
L 112.610704 289.288178 
L 112.610704 288.728995 
L 113.035537 288.728995 
L 113.035537 287.051449 
L 113.450132 287.051449 
L 113.450132 283.696355 
L 115.385301 283.696355 
L 115.385301 282.577991 
L 115.747522 282.577991 
L 115.747522 280.341262 
L 116.102274 280.341262 
L 116.102274 279.222897 
L 116.449859 279.222897 
L 116.449859 274.190257 
L 116.790561 274.190257 
L 116.790561 271.953528 
L 117.124646 271.953528 
L 117.124646 270.275981 
L 117.452368 270.275981 
L 117.452368 268.598435 
L 117.773963 268.598435 
L 117.773963 267.48007 
L 118.089658 267.48007 
L 118.089658 266.361706 
L 118.399664 266.361706 
L 118.399664 255.178061 
L 118.704183 255.178061 
L 118.704183 253.500514 
L 119.297513 253.500514 
L 119.297513 252.941332 
L 119.871061 252.941332 
L 119.871061 221.067944 
L 130.325168 221.067944 
L 130.325168 219.94958 
L 132.076326 219.94958 
L 132.076326 219.390397 
L 136.245297 219.390397 
L 136.245297 218.272033 
L 136.461713 218.272033 
L 136.568909 216.594486 
L 136.991135 216.594486 
L 136.991135 215.476122 
L 137.301141 215.476122 
L 137.403248 171.859907 
L 139.327583 171.859907 
L 139.327583 171.300725 
L 139.46359 171.300725 
L 139.46359 170.741543 
L 139.643277 170.741543 
L 139.732422 165.14972 
L 140.084452 165.14972 
L 140.171345 144.459977 
L 140.934247 144.459977 
L 141.016963 142.78243 
L 141.262751 142.78243 
L 141.262751 142.223248 
L 141.424681 142.223248 
L 141.424681 135.513061 
L 147.532997 135.513061 
L 147.589407 125.447781 
L 147.645632 125.447781 
L 147.645632 111.468225 
L 148.30638 111.468225 
L 148.414079 110.349861 
L 148.467677 110.349861 
L 148.467677 101.962127 
L 148.627475 101.962127 
L 148.627475 101.402945 
L 148.864425 101.402945 
L 148.968697 98.607033 
L 149.12393 98.607033 
L 149.226646 94.692758 
L 149.681426 94.692758 
L 149.731223 93.574393 
L 149.879756 93.574393 
L 149.978069 89.100935 
L 150.461384 89.100935 
L 150.461384 88.541753 
L 150.698043 88.541753 
L 150.698043 86.864206 
L 153.866171 86.864206 
L 153.944198 82.390748 
L 153.983079 82.390748 
L 154.021872 75.121379 
L 154.555991 75.121379 
L 154.593515 65.615281 
L 155.055791 65.615281 
L 155.146774 61.701006 
L 155.255322 61.701006 
L 155.255322 61.141823 
L 155.416872 61.141823 
L 155.488187 57.78673 
L 155.665194 57.78673 
L 155.665194 56.109183 
L 155.979287 56.109183 
L 156.013835 54.431636 
L 156.151337 54.431636 
L 156.185542 52.194907 
L 156.690613 52.194907 
L 156.690613 51.635725 
L 158.574521 51.635725 
L 158.604235 49.958178 
L 158.985929 49.958178 
L 159.072822 44.925538 
L 159.10169 44.925538 
L 159.10169 43.247992 
L 159.373539 43.247992 
L 159.373539 42.688809 
L 159.500826 42.688809 
L 159.528985 41.011263 
L 159.904682 41.011263 
L 159.932188 38.774534 
L 160.177781 38.774534 
L 160.285818 37.656169 
L 160.312722 37.656169 
L 160.339583 36.537805 
L 162.267327 36.537805 
L 162.315251 34.860258 
L 162.576475 34.860258 
L 162.670491 31.505165 
L 162.926417 31.505165 
L 163.018545 29.268436 
L 163.189967 29.268436 
L 163.280698 26.472524 
L 163.348434 26.472524 
L 163.348434 25.913342 
L 163.550055 25.913342 
L 163.661055 24.235795 
L 165.585156 24.235795 
L 165.624685 22.558249 
L 165.898871 22.558249 
L 165.898871 21.999066 
L 166.187874 21.999066 
L 166.187874 21.439884 
L 166.490884 21.439884 
L 166.490884 20.880702 
L 166.742463 20.880702 
L 166.742463 20.32152 
L 168.093952 20.32152 
L 168.093952 19.762337 
L 168.365435 19.762337 
L 168.382262 18.643973 
L 168.756566 18.643973 
L 168.756566 18.084791 
L 168.887714 18.084791 
L 168.887714 17.525609 
L 169.050255 17.525609 
L 169.050255 16.966426 
L 169.354916 16.966426 
L 169.354916 16.407244 
L 170.706959 16.407244 
L 170.787578 14.729697 
L 170.954935 14.729697 
L 170.991102 13.052151 
L 171.199388 13.052151 
L 171.199388 12.492968 
L 172.649941 12.492968 
L 172.649941 11.933786 
L 173.255945 11.933786 
L 173.262278 10.815422 
L 176.10961 10.815422 
L 176.10961 10.256239 
L 176.559817 10.256239 
L 176.559817 9.697057 
L 333.429677 9.697057 
L 333.429677 9.697057 
" style="fill:none;stroke:#ff0000;stroke-linecap:square;stroke-width:1.5;"/>
   </g>
   <g id="line2d_44">
    <defs>
     <path d="M 0 -6 
L -5.196152 -3 
L -5.196152 3 
L -0 6 
L 5.196152 3 
L 5.196152 -3 
z
" id="md70a0f2775" style="stroke:#ff0000;stroke-linejoin:miter;stroke-width:1.5;"/>
    </defs>
    <g>
     <use style="fill-opacity:0;stroke:#ff0000;stroke-linejoin:miter;stroke-width:1.5;" x="132.076326" xlink:href="#md70a0f2775" y="219.390397"/>
     <use style="fill-opacity:0;stroke:#ff0000;stroke-linejoin:miter;stroke-width:1.5;" x="156.185542" xlink:href="#md70a0f2775" y="53.872454"/>
     <use style="fill-opacity:0;stroke:#ff0000;stroke-linejoin:miter;stroke-width:1.5;" x="176.559817" xlink:href="#md70a0f2775" y="10.256239"/>
     <use style="fill-opacity:0;stroke:#ff0000;stroke-linejoin:miter;stroke-width:1.5;" x="176.559817" xlink:href="#md70a0f2775" y="9.697057"/>
     <use style="fill-opacity:0;stroke:#ff0000;stroke-linejoin:miter;stroke-width:1.5;" x="176.559817" xlink:href="#md70a0f2775" y="9.697057"/>
     <use style="fill-opacity:0;stroke:#ff0000;stroke-linejoin:miter;stroke-width:1.5;" x="333.429677" xlink:href="#md70a0f2775" y="9.697057"/>
    </g>
   </g>
   <g id="line2d_45">
    <path style="fill:none;stroke:#ff0000;stroke-linecap:square;stroke-width:1.5;"/>
    <g/>
   </g>
   <g id="line2d_46">
    <path clip-path="url(#p963c597d84)" d="M 133.854317 219.390397 
" style="fill:none;stroke:#ff0000;stroke-linecap:square;stroke-width:1.5;"/>
    <defs>
     <path d="M -12 12 
L 12 -12 
M -12 -12 
L 12 12 
" id="m77c1dbccb6" style="stroke:#ff0000;stroke-width:3;"/>
    </defs>
    <g clip-path="url(#p963c597d84)">
     <use style="fill:#ff0000;stroke:#ff0000;stroke-width:3;" x="133.854317" xlink:href="#m77c1dbccb6" y="219.390397"/>
    </g>
   </g>
   <g id="line2d_47">
    <path d="M 333.429677 261.329066 
L 363.933742 289.176341 
" style="fill:none;stroke:#6495ed;stroke-linecap:square;stroke-width:1.5;"/>
    <g>
     <use style="fill-opacity:0;stroke:#6495ed;stroke-linejoin:miter;stroke-width:1.5;" x="333.429677" xlink:href="#mc68cb462a6" y="261.329066"/>
     <use style="fill-opacity:0;stroke:#6495ed;stroke-linejoin:miter;stroke-width:1.5;" x="363.933742" xlink:href="#mc68cb462a6" y="289.176341"/>
    </g>
   </g>
   <g id="line2d_48">
    <path d="M 333.429677 261.329066 
L 363.933742 220.732435 
" style="fill:none;stroke:#ffa500;stroke-linecap:square;stroke-width:1.5;"/>
    <g>
     <use style="fill-opacity:0;stroke:#ffa500;stroke-linejoin:bevel;stroke-width:1.5;" x="333.429677" xlink:href="#mcecd2dd373" y="261.329066"/>
     <use style="fill-opacity:0;stroke:#ffa500;stroke-linejoin:bevel;stroke-width:1.5;" x="363.933742" xlink:href="#mcecd2dd373" y="220.732435"/>
    </g>
   </g>
   <g id="line2d_49">
    <path d="M 333.429677 9.697057 
L 363.933742 152.288529 
" style="fill:none;stroke:#ff00ff;stroke-linecap:square;stroke-width:1.5;"/>
    <g>
     <use style="fill-opacity:0;stroke:#ff00ff;stroke-linejoin:miter;stroke-width:1.5;" x="333.429677" xlink:href="#m6c89527726" y="9.697057"/>
     <use style="fill-opacity:0;stroke:#ff00ff;stroke-linejoin:miter;stroke-width:1.5;" x="363.933742" xlink:href="#m6c89527726" y="152.288529"/>
    </g>
   </g>
   <g id="line2d_50">
    <path d="M 333.429677 9.697057 
L 363.933742 83.844622 
" style="fill:none;stroke:#ff0000;stroke-linecap:square;stroke-width:1.5;"/>
    <g>
     <use style="fill-opacity:0;stroke:#ff0000;stroke-linejoin:miter;stroke-width:1.5;" x="333.429677" xlink:href="#md70a0f2775" y="9.697057"/>
     <use style="fill-opacity:0;stroke:#ff0000;stroke-linejoin:miter;stroke-width:1.5;" x="363.933742" xlink:href="#md70a0f2775" y="83.844622"/>
    </g>
   </g>
   <g id="line2d_51">
    <path d="M 333.429677 9.697057 
L 363.933742 15.400716 
" style="fill:none;stroke:#000080;stroke-linecap:square;stroke-width:1.5;"/>
    <g>
     <use style="fill-opacity:0;stroke:#000080;stroke-width:1.5;" x="333.429677" xlink:href="#mf4a0b77c90" y="9.697057"/>
     <use style="fill-opacity:0;stroke:#000080;stroke-width:1.5;" x="363.933742" xlink:href="#mf4a0b77c90" y="15.400716"/>
    </g>
   </g>
   <g id="line2d_52">
    <path d="M 333.429677 294.88 
L 333.429677 9.697057 
" style="fill:none;stroke:#000000;stroke-linecap:square;stroke-width:1.5;"/>
   </g>
   <g id="patch_3">
    <path d="M 56.12 294.88 
L 56.12 6.845228 
" style="fill:none;stroke:#000000;stroke-linecap:square;stroke-linejoin:miter;stroke-width:0.8;"/>
   </g>
   <g id="patch_4">
    <path d="M 399.984 294.88 
L 399.984 6.845228 
" style="fill:none;stroke:#000000;stroke-linecap:square;stroke-linejoin:miter;stroke-width:0.8;"/>
   </g>
   <g id="patch_5">
    <path d="M 56.12 294.88 
L 399.984 294.88 
" style="fill:none;stroke:#000000;stroke-linecap:square;stroke-linejoin:miter;stroke-width:0.8;"/>
   </g>
   <g id="patch_6">
    <path d="M 56.12 6.845228 
L 399.984 6.845228 
" style="fill:none;stroke:#000000;stroke-linecap:square;stroke-linejoin:miter;stroke-width:0.8;"/>
   </g>
   <g id="text_14">
    <!-- f4 -->
    <g transform="translate(369.479935 293.867279)scale(0.17 -0.17)">
     <use xlink:href="#DejaVuSans-66"/>
     <use x="35.205078" xlink:href="#DejaVuSans-34"/>
    </g>
   </g>
   <g id="text_15">
    <!-- f3 -->
    <defs>
     <path d="M 40.578125 39.3125 
Q 47.65625 37.796875 51.625 33 
Q 55.609375 28.21875 55.609375 21.1875 
Q 55.609375 10.40625 48.1875 4.484375 
Q 40.765625 -1.421875 27.09375 -1.421875 
Q 22.515625 -1.421875 17.65625 -0.515625 
Q 12.796875 0.390625 7.625 2.203125 
L 7.625 11.71875 
Q 11.71875 9.328125 16.59375 8.109375 
Q 21.484375 6.890625 26.8125 6.890625 
Q 36.078125 6.890625 40.9375 10.546875 
Q 45.796875 14.203125 45.796875 21.1875 
Q 45.796875 27.640625 41.28125 31.265625 
Q 36.765625 34.90625 28.71875 34.90625 
L 20.21875 34.90625 
L 20.21875 43.015625 
L 29.109375 43.015625 
Q 36.375 43.015625 40.234375 45.921875 
Q 44.09375 48.828125 44.09375 54.296875 
Q 44.09375 59.90625 40.109375 62.90625 
Q 36.140625 65.921875 28.71875 65.921875 
Q 24.65625 65.921875 20.015625 65.03125 
Q 15.375 64.15625 9.8125 62.3125 
L 9.8125 71.09375 
Q 15.4375 72.65625 20.34375 73.4375 
Q 25.25 74.21875 29.59375 74.21875 
Q 40.828125 74.21875 47.359375 69.109375 
Q 53.90625 64.015625 53.90625 55.328125 
Q 53.90625 49.265625 50.4375 45.09375 
Q 46.96875 40.921875 40.578125 39.3125 
z
" id="DejaVuSans-33"/>
    </defs>
    <g transform="translate(369.479935 225.423372)scale(0.17 -0.17)">
     <use xlink:href="#DejaVuSans-66"/>
     <use x="35.205078" xlink:href="#DejaVuSans-33"/>
    </g>
   </g>
   <g id="text_16">
    <!-- f2 -->
    <g transform="translate(369.479935 156.979466)scale(0.17 -0.17)">
     <use xlink:href="#DejaVuSans-66"/>
     <use x="35.205078" xlink:href="#DejaVuSans-32"/>
    </g>
   </g>
   <g id="text_17">
    <!-- f5 -->
    <defs>
     <path d="M 10.796875 72.90625 
L 49.515625 72.90625 
L 49.515625 64.59375 
L 19.828125 64.59375 
L 19.828125 46.734375 
Q 21.96875 47.46875 24.109375 47.828125 
Q 26.265625 48.1875 28.421875 48.1875 
Q 40.625 48.1875 47.75 41.5 
Q 54.890625 34.8125 54.890625 23.390625 
Q 54.890625 11.625 47.5625 5.09375 
Q 40.234375 -1.421875 26.90625 -1.421875 
Q 22.3125 -1.421875 17.546875 -0.640625 
Q 12.796875 0.140625 7.71875 1.703125 
L 7.71875 11.625 
Q 12.109375 9.234375 16.796875 8.0625 
Q 21.484375 6.890625 26.703125 6.890625 
Q 35.15625 6.890625 40.078125 11.328125 
Q 45.015625 15.765625 45.015625 23.390625 
Q 45.015625 31 40.078125 35.4375 
Q 35.15625 39.890625 26.703125 39.890625 
Q 22.75 39.890625 18.8125 39.015625 
Q 14.890625 38.140625 10.796875 36.28125 
z
" id="DejaVuSans-35"/>
    </defs>
    <g transform="translate(369.479935 88.53556)scale(0.17 -0.17)">
     <use xlink:href="#DejaVuSans-66"/>
     <use x="35.205078" xlink:href="#DejaVuSans-35"/>
    </g>
   </g>
   <g id="text_18">
    <!-- f1 -->
    <g transform="translate(369.479935 20.091654)scale(0.17 -0.17)">
     <use xlink:href="#DejaVuSans-66"/>
     <use x="35.205078" xlink:href="#DejaVuSans-31"/>
    </g>
   </g>
   <g id="text_19">
    <!-- bbob -->
    <defs>
     <path d="M 48.6875 27.296875 
Q 48.6875 37.203125 44.609375 42.84375 
Q 40.53125 48.484375 33.40625 48.484375 
Q 26.265625 48.484375 22.1875 42.84375 
Q 18.109375 37.203125 18.109375 27.296875 
Q 18.109375 17.390625 22.1875 11.75 
Q 26.265625 6.109375 33.40625 6.109375 
Q 40.53125 6.109375 44.609375 11.75 
Q 48.6875 17.390625 48.6875 27.296875 
z
M 18.109375 46.390625 
Q 20.953125 51.265625 25.265625 53.625 
Q 29.59375 56 35.59375 56 
Q 45.5625 56 51.78125 48.09375 
Q 58.015625 40.1875 58.015625 27.296875 
Q 58.015625 14.40625 51.78125 6.484375 
Q 45.5625 -1.421875 35.59375 -1.421875 
Q 29.59375 -1.421875 25.265625 0.953125 
Q 20.953125 3.328125 18.109375 8.203125 
L 18.109375 0 
L 9.078125 0 
L 9.078125 75.984375 
L 18.109375 75.984375 
z
" id="DejaVuSans-62"/>
    </defs>
    <g transform="translate(59.55864 17.475982)scale(0.102 -0.102)">
     <use xlink:href="#DejaVuSans-62"/>
     <use x="63.476562" xlink:href="#DejaVuSans-62"/>
     <use x="126.953125" xlink:href="#DejaVuSans-6f"/>
     <use x="188.134766" xlink:href="#DejaVuSans-62"/>
    </g>
    <!-- Separable functions, 3-D -->
    <defs>
     <path d="M 53.515625 70.515625 
L 53.515625 60.890625 
Q 47.90625 63.578125 42.921875 64.890625 
Q 37.9375 66.21875 33.296875 66.21875 
Q 25.25 66.21875 20.875 63.09375 
Q 16.5 59.96875 16.5 54.203125 
Q 16.5 49.359375 19.40625 46.890625 
Q 22.3125 44.4375 30.421875 42.921875 
L 36.375 41.703125 
Q 47.40625 39.59375 52.65625 34.296875 
Q 57.90625 29 57.90625 20.125 
Q 57.90625 9.515625 50.796875 4.046875 
Q 43.703125 -1.421875 29.984375 -1.421875 
Q 24.8125 -1.421875 18.96875 -0.25 
Q 13.140625 0.921875 6.890625 3.21875 
L 6.890625 13.375 
Q 12.890625 10.015625 18.65625 8.296875 
Q 24.421875 6.59375 29.984375 6.59375 
Q 38.421875 6.59375 43.015625 9.90625 
Q 47.609375 13.234375 47.609375 19.390625 
Q 47.609375 24.75 44.3125 27.78125 
Q 41.015625 30.8125 33.5 32.328125 
L 27.484375 33.5 
Q 16.453125 35.6875 11.515625 40.375 
Q 6.59375 45.0625 6.59375 53.421875 
Q 6.59375 63.09375 13.40625 68.65625 
Q 20.21875 74.21875 32.171875 74.21875 
Q 37.3125 74.21875 42.625 73.28125 
Q 47.953125 72.359375 53.515625 70.515625 
z
" id="DejaVuSans-53"/>
     <path d="M 19.671875 64.796875 
L 19.671875 8.109375 
L 31.59375 8.109375 
Q 46.6875 8.109375 53.6875 14.9375 
Q 60.6875 21.78125 60.6875 36.53125 
Q 60.6875 51.171875 53.6875 57.984375 
Q 46.6875 64.796875 31.59375 64.796875 
z
M 9.8125 72.90625 
L 30.078125 72.90625 
Q 51.265625 72.90625 61.171875 64.09375 
Q 71.09375 55.28125 71.09375 36.53125 
Q 71.09375 17.671875 61.125 8.828125 
Q 51.171875 0 30.078125 0 
L 9.8125 0 
z
" id="DejaVuSans-44"/>
    </defs>
    <g transform="translate(59.55864 28.89775)scale(0.102 -0.102)">
     <use xlink:href="#DejaVuSans-53"/>
     <use x="63.476562" xlink:href="#DejaVuSans-65"/>
     <use x="125" xlink:href="#DejaVuSans-70"/>
     <use x="188.476562" xlink:href="#DejaVuSans-61"/>
     <use x="249.755859" xlink:href="#DejaVuSans-72"/>
     <use x="290.869141" xlink:href="#DejaVuSans-61"/>
     <use x="352.148438" xlink:href="#DejaVuSans-62"/>
     <use x="415.625" xlink:href="#DejaVuSans-6c"/>
     <use x="443.408203" xlink:href="#DejaVuSans-65"/>
     <use x="504.931641" xlink:href="#DejaVuSans-20"/>
     <use x="536.71875" xlink:href="#DejaVuSans-66"/>
     <use x="571.923828" xlink:href="#DejaVuSans-75"/>
     <use x="635.302734" xlink:href="#DejaVuSans-6e"/>
     <use x="698.681641" xlink:href="#DejaVuSans-63"/>
     <use x="753.662109" xlink:href="#DejaVuSans-74"/>
     <use x="792.871094" xlink:href="#DejaVuSans-69"/>
     <use x="820.654297" xlink:href="#DejaVuSans-6f"/>
     <use x="881.835938" xlink:href="#DejaVuSans-6e"/>
     <use x="945.214844" xlink:href="#DejaVuSans-73"/>
     <use x="997.314453" xlink:href="#DejaVuSans-2c"/>
     <use x="1029.101562" xlink:href="#DejaVuSans-20"/>
     <use x="1060.888672" xlink:href="#DejaVuSans-33"/>
     <use x="1124.511719" xlink:href="#DejaVuSans-2d"/>
     <use x="1160.595703" xlink:href="#DejaVuSans-44"/>
    </g>
    <!-- 51 targets: 100..1e-08 -->
    <defs>
     <path d="M 11.71875 12.40625 
L 22.015625 12.40625 
L 22.015625 0 
L 11.71875 0 
z
M 11.71875 51.703125 
L 22.015625 51.703125 
L 22.015625 39.3125 
L 11.71875 39.3125 
z
" id="DejaVuSans-3a"/>
    </defs>
    <g transform="translate(59.55864 40.319519)scale(0.102 -0.102)">
     <use xlink:href="#DejaVuSans-35"/>
     <use x="63.623047" xlink:href="#DejaVuSans-31"/>
     <use x="127.246094" xlink:href="#DejaVuSans-20"/>
     <use x="159.033203" xlink:href="#DejaVuSans-74"/>
     <use x="198.242188" xlink:href="#DejaVuSans-61"/>
     <use x="259.521484" xlink:href="#DejaVuSans-72"/>
     <use x="300.619141" xlink:href="#DejaVuSans-67"/>
     <use x="364.095703" xlink:href="#DejaVuSans-65"/>
     <use x="425.619141" xlink:href="#DejaVuSans-74"/>
     <use x="464.828125" xlink:href="#DejaVuSans-73"/>
     <use x="516.927734" xlink:href="#DejaVuSans-3a"/>
     <use x="550.619141" xlink:href="#DejaVuSans-20"/>
     <use x="582.40625" xlink:href="#DejaVuSans-31"/>
     <use x="646.029297" xlink:href="#DejaVuSans-30"/>
     <use x="709.652344" xlink:href="#DejaVuSans-30"/>
     <use x="773.275391" xlink:href="#DejaVuSans-2e"/>
     <use x="805.0625" xlink:href="#DejaVuSans-2e"/>
     <use x="836.849609" xlink:href="#DejaVuSans-31"/>
     <use x="900.472656" xlink:href="#DejaVuSans-65"/>
     <use x="961.996094" xlink:href="#DejaVuSans-2d"/>
     <use x="998.080078" xlink:href="#DejaVuSans-30"/>
     <use x="1061.703125" xlink:href="#DejaVuSans-38"/>
    </g>
    <!-- 15 instances -->
    <g transform="translate(59.55864 51.741288)scale(0.102 -0.102)">
     <use xlink:href="#DejaVuSans-31"/>
     <use x="63.623047" xlink:href="#DejaVuSans-35"/>
     <use x="127.246094" xlink:href="#DejaVuSans-20"/>
     <use x="159.033203" xlink:href="#DejaVuSans-69"/>
     <use x="186.816406" xlink:href="#DejaVuSans-6e"/>
     <use x="250.195312" xlink:href="#DejaVuSans-73"/>
     <use x="302.294922" xlink:href="#DejaVuSans-74"/>
     <use x="341.503906" xlink:href="#DejaVuSans-61"/>
     <use x="402.783203" xlink:href="#DejaVuSans-6e"/>
     <use x="466.162109" xlink:href="#DejaVuSans-63"/>
     <use x="521.142578" xlink:href="#DejaVuSans-65"/>
     <use x="582.666016" xlink:href="#DejaVuSans-73"/>
    </g>
   </g>
   <g id="text_20">
    <!-- v2.2.1.10 -->
    <g style="fill:#808080;" transform="translate(204.419188 289.919965)scale(0.1 -0.1)">
     <use xlink:href="#DejaVuSans-76"/>
     <use x="59.179688" xlink:href="#DejaVuSans-32"/>
     <use x="122.802734" xlink:href="#DejaVuSans-2e"/>
     <use x="154.589844" xlink:href="#DejaVuSans-32"/>
     <use x="218.212891" xlink:href="#DejaVuSans-2e"/>
     <use x="250" xlink:href="#DejaVuSans-31"/>
     <use x="313.623047" xlink:href="#DejaVuSans-2e"/>
     <use x="345.410156" xlink:href="#DejaVuSans-31"/>
     <use x="409.033203" xlink:href="#DejaVuSans-30"/>
    </g>
   </g>
  </g>
 </g>
 <defs>
  <clipPath id="p963c597d84">
   <rect height="288.034772" width="343.864" x="56.12" y="6.845228"/>
  </clipPath>
 </defs>
</svg>
