<?xml version="1.0" encoding="utf-8" standalone="no"?>
<!DOCTYPE svg PUBLIC "-//W3C//DTD SVG 1.1//EN"
  "http://www.w3.org/Graphics/SVG/1.1/DTD/svg11.dtd">
<!-- Created with matplotlib (http://matplotlib.org/) -->
<svg height="345.6pt" version="1.1" viewBox="0 0 460.8 345.6" width="460.8pt" xmlns="http://www.w3.org/2000/svg" xmlns:xlink="http://www.w3.org/1999/xlink">
 <defs>
  <style type="text/css">
*{stroke-linecap:butt;stroke-linejoin:round;}
  </style>
 </defs>
 <g id="figure_1">
  <g id="patch_1">
   <path d="M 0 345.6 
L 460.8 345.6 
L 460.8 0 
L 0 0 
z
" style="fill:#ffffff;"/>
  </g>
  <g id="axes_1">
   <g id="patch_2">
    <path d="M 56.12 294.88 
L 399.984 294.88 
L 399.984 6.845228 
L 56.12 6.845228 
z
" style="fill:#ffffff;"/>
   </g>
   <g id="matplotlib.axis_1">
    <g id="xtick_1">
     <g id="line2d_1">
      <path clip-path="url(#p8e294b4455)" d="M 56.12 294.88 
L 56.12 6.845228 
" style="fill:none;stroke:#b0b0b0;stroke-linecap:square;stroke-width:0.8;"/>
     </g>
     <g id="line2d_2">
      <defs>
       <path d="M 0 0 
L 0 3.5 
" id="me97ae70dfc" style="stroke:#000000;stroke-width:0.8;"/>
      </defs>
      <g>
       <use style="stroke:#000000;stroke-width:0.8;" x="56.12" xlink:href="#me97ae70dfc" y="294.88"/>
      </g>
     </g>
     <g id="text_1">
      <!-- 0 -->
      <defs>
       <path d="M 31.78125 66.40625 
Q 24.171875 66.40625 20.328125 58.90625 
Q 16.5 51.421875 16.5 36.375 
Q 16.5 21.390625 20.328125 13.890625 
Q 24.171875 6.390625 31.78125 6.390625 
Q 39.453125 6.390625 43.28125 13.890625 
Q 47.125 21.390625 47.125 36.375 
Q 47.125 51.421875 43.28125 58.90625 
Q 39.453125 66.40625 31.78125 66.40625 
z
M 31.78125 74.21875 
Q 44.046875 74.21875 50.515625 64.515625 
Q 56.984375 54.828125 56.984375 36.375 
Q 56.984375 17.96875 50.515625 8.265625 
Q 44.046875 -1.421875 31.78125 -1.421875 
Q 19.53125 -1.421875 13.0625 8.265625 
Q 6.59375 17.96875 6.59375 36.375 
Q 6.59375 54.828125 13.0625 64.515625 
Q 19.53125 74.21875 31.78125 74.21875 
z
" id="DejaVuSans-30"/>
      </defs>
      <g transform="translate(49.7575 317.076875)scale(0.2 -0.2)">
       <use xlink:href="#DejaVuSans-30"/>
      </g>
     </g>
    </g>
    <g id="xtick_2">
     <g id="line2d_3">
      <path clip-path="url(#p8e294b4455)" d="M 135.351336 294.88 
L 135.351336 6.845228 
" style="fill:none;stroke:#b0b0b0;stroke-linecap:square;stroke-width:0.8;"/>
     </g>
     <g id="line2d_4">
      <g>
       <use style="stroke:#000000;stroke-width:0.8;" x="135.351336" xlink:href="#me97ae70dfc" y="294.88"/>
      </g>
     </g>
     <g id="text_2">
      <!-- 2 -->
      <defs>
       <path d="M 19.1875 8.296875 
L 53.609375 8.296875 
L 53.609375 0 
L 7.328125 0 
L 7.328125 8.296875 
Q 12.9375 14.109375 22.625 23.890625 
Q 32.328125 33.6875 34.8125 36.53125 
Q 39.546875 41.84375 41.421875 45.53125 
Q 43.3125 49.21875 43.3125 52.78125 
Q 43.3125 58.59375 39.234375 62.25 
Q 35.15625 65.921875 28.609375 65.921875 
Q 23.96875 65.921875 18.8125 64.3125 
Q 13.671875 62.703125 7.8125 59.421875 
L 7.8125 69.390625 
Q 13.765625 71.78125 18.9375 73 
Q 24.125 74.21875 28.421875 74.21875 
Q 39.75 74.21875 46.484375 68.546875 
Q 53.21875 62.890625 53.21875 53.421875 
Q 53.21875 48.921875 51.53125 44.890625 
Q 49.859375 40.875 45.40625 35.40625 
Q 44.1875 33.984375 37.640625 27.21875 
Q 31.109375 20.453125 19.1875 8.296875 
z
" id="DejaVuSans-32"/>
      </defs>
      <g transform="translate(128.988836 317.076875)scale(0.2 -0.2)">
       <use xlink:href="#DejaVuSans-32"/>
      </g>
     </g>
    </g>
    <g id="xtick_3">
     <g id="line2d_5">
      <path clip-path="url(#p8e294b4455)" d="M 214.582673 294.88 
L 214.582673 6.845228 
" style="fill:none;stroke:#b0b0b0;stroke-linecap:square;stroke-width:0.8;"/>
     </g>
     <g id="line2d_6">
      <g>
       <use style="stroke:#000000;stroke-width:0.8;" x="214.582673" xlink:href="#me97ae70dfc" y="294.88"/>
      </g>
     </g>
     <g id="text_3">
      <!-- 4 -->
      <defs>
       <path d="M 37.796875 64.3125 
L 12.890625 25.390625 
L 37.796875 25.390625 
z
M 35.203125 72.90625 
L 47.609375 72.90625 
L 47.609375 25.390625 
L 58.015625 25.390625 
L 58.015625 17.1875 
L 47.609375 17.1875 
L 47.609375 0 
L 37.796875 0 
L 37.796875 17.1875 
L 4.890625 17.1875 
L 4.890625 26.703125 
z
" id="DejaVuSans-34"/>
      </defs>
      <g transform="translate(208.220173 317.076875)scale(0.2 -0.2)">
       <use xlink:href="#DejaVuSans-34"/>
      </g>
     </g>
    </g>
    <g id="xtick_4">
     <g id="line2d_7">
      <path clip-path="url(#p8e294b4455)" d="M 293.814009 294.88 
L 293.814009 6.845228 
" style="fill:none;stroke:#b0b0b0;stroke-linecap:square;stroke-width:0.8;"/>
     </g>
     <g id="line2d_8">
      <g>
       <use style="stroke:#000000;stroke-width:0.8;" x="293.814009" xlink:href="#me97ae70dfc" y="294.88"/>
      </g>
     </g>
     <g id="text_4">
      <!-- 6 -->
      <defs>
       <path d="M 33.015625 40.375 
Q 26.375 40.375 22.484375 35.828125 
Q 18.609375 31.296875 18.609375 23.390625 
Q 18.609375 15.53125 22.484375 10.953125 
Q 26.375 6.390625 33.015625 6.390625 
Q 39.65625 6.390625 43.53125 10.953125 
Q 47.40625 15.53125 47.40625 23.390625 
Q 47.40625 31.296875 43.53125 35.828125 
Q 39.65625 40.375 33.015625 40.375 
z
M 52.59375 71.296875 
L 52.59375 62.3125 
Q 48.875 64.0625 45.09375 64.984375 
Q 41.3125 65.921875 37.59375 65.921875 
Q 27.828125 65.921875 22.671875 59.328125 
Q 17.53125 52.734375 16.796875 39.40625 
Q 19.671875 43.65625 24.015625 45.921875 
Q 28.375 48.1875 33.59375 48.1875 
Q 44.578125 48.1875 50.953125 41.515625 
Q 57.328125 34.859375 57.328125 23.390625 
Q 57.328125 12.15625 50.6875 5.359375 
Q 44.046875 -1.421875 33.015625 -1.421875 
Q 20.359375 -1.421875 13.671875 8.265625 
Q 6.984375 17.96875 6.984375 36.375 
Q 6.984375 53.65625 15.1875 63.9375 
Q 23.390625 74.21875 37.203125 74.21875 
Q 40.921875 74.21875 44.703125 73.484375 
Q 48.484375 72.75 52.59375 71.296875 
z
" id="DejaVuSans-36"/>
      </defs>
      <g transform="translate(287.451509 317.076875)scale(0.2 -0.2)">
       <use xlink:href="#DejaVuSans-36"/>
      </g>
     </g>
    </g>
    <g id="xtick_5">
     <g id="line2d_9">
      <path clip-path="url(#p8e294b4455)" d="M 373.045346 294.88 
L 373.045346 6.845228 
" style="fill:none;stroke:#b0b0b0;stroke-linecap:square;stroke-width:0.8;"/>
     </g>
     <g id="line2d_10">
      <g>
       <use style="stroke:#000000;stroke-width:0.8;" x="373.045346" xlink:href="#me97ae70dfc" y="294.88"/>
      </g>
     </g>
     <g id="text_5">
      <!-- 8 -->
      <defs>
       <path d="M 31.78125 34.625 
Q 24.75 34.625 20.71875 30.859375 
Q 16.703125 27.09375 16.703125 20.515625 
Q 16.703125 13.921875 20.71875 10.15625 
Q 24.75 6.390625 31.78125 6.390625 
Q 38.8125 6.390625 42.859375 10.171875 
Q 46.921875 13.96875 46.921875 20.515625 
Q 46.921875 27.09375 42.890625 30.859375 
Q 38.875 34.625 31.78125 34.625 
z
M 21.921875 38.8125 
Q 15.578125 40.375 12.03125 44.71875 
Q 8.5 49.078125 8.5 55.328125 
Q 8.5 64.0625 14.71875 69.140625 
Q 20.953125 74.21875 31.78125 74.21875 
Q 42.671875 74.21875 48.875 69.140625 
Q 55.078125 64.0625 55.078125 55.328125 
Q 55.078125 49.078125 51.53125 44.71875 
Q 48 40.375 41.703125 38.8125 
Q 48.828125 37.15625 52.796875 32.3125 
Q 56.78125 27.484375 56.78125 20.515625 
Q 56.78125 9.90625 50.3125 4.234375 
Q 43.84375 -1.421875 31.78125 -1.421875 
Q 19.734375 -1.421875 13.25 4.234375 
Q 6.78125 9.90625 6.78125 20.515625 
Q 6.78125 27.484375 10.78125 32.3125 
Q 14.796875 37.15625 21.921875 38.8125 
z
M 18.3125 54.390625 
Q 18.3125 48.734375 21.84375 45.5625 
Q 25.390625 42.390625 31.78125 42.390625 
Q 38.140625 42.390625 41.71875 45.5625 
Q 45.3125 48.734375 45.3125 54.390625 
Q 45.3125 60.0625 41.71875 63.234375 
Q 38.140625 66.40625 31.78125 66.40625 
Q 25.390625 66.40625 21.84375 63.234375 
Q 18.3125 60.0625 18.3125 54.390625 
z
" id="DejaVuSans-38"/>
      </defs>
      <g transform="translate(366.682846 317.076875)scale(0.2 -0.2)">
       <use xlink:href="#DejaVuSans-38"/>
      </g>
     </g>
    </g>
    <g id="text_6">
     <!-- log10(# f-evals / dimension) -->
     <defs>
      <path d="M 9.421875 75.984375 
L 18.40625 75.984375 
L 18.40625 0 
L 9.421875 0 
z
" id="DejaVuSans-6c"/>
      <path d="M 30.609375 48.390625 
Q 23.390625 48.390625 19.1875 42.75 
Q 14.984375 37.109375 14.984375 27.296875 
Q 14.984375 17.484375 19.15625 11.84375 
Q 23.34375 6.203125 30.609375 6.203125 
Q 37.796875 6.203125 41.984375 11.859375 
Q 46.1875 17.53125 46.1875 27.296875 
Q 46.1875 37.015625 41.984375 42.703125 
Q 37.796875 48.390625 30.609375 48.390625 
z
M 30.609375 56 
Q 42.328125 56 49.015625 48.375 
Q 55.71875 40.765625 55.71875 27.296875 
Q 55.71875 13.875 49.015625 6.21875 
Q 42.328125 -1.421875 30.609375 -1.421875 
Q 18.84375 -1.421875 12.171875 6.21875 
Q 5.515625 13.875 5.515625 27.296875 
Q 5.515625 40.765625 12.171875 48.375 
Q 18.84375 56 30.609375 56 
z
" id="DejaVuSans-6f"/>
      <path d="M 45.40625 27.984375 
Q 45.40625 37.75 41.375 43.109375 
Q 37.359375 48.484375 30.078125 48.484375 
Q 22.859375 48.484375 18.828125 43.109375 
Q 14.796875 37.75 14.796875 27.984375 
Q 14.796875 18.265625 18.828125 12.890625 
Q 22.859375 7.515625 30.078125 7.515625 
Q 37.359375 7.515625 41.375 12.890625 
Q 45.40625 18.265625 45.40625 27.984375 
z
M 54.390625 6.78125 
Q 54.390625 -7.171875 48.1875 -13.984375 
Q 42 -20.796875 29.203125 -20.796875 
Q 24.46875 -20.796875 20.265625 -20.09375 
Q 16.0625 -19.390625 12.109375 -17.921875 
L 12.109375 -9.1875 
Q 16.0625 -11.328125 19.921875 -12.34375 
Q 23.78125 -13.375 27.78125 -13.375 
Q 36.625 -13.375 41.015625 -8.765625 
Q 45.40625 -4.15625 45.40625 5.171875 
L 45.40625 9.625 
Q 42.625 4.78125 38.28125 2.390625 
Q 33.9375 0 27.875 0 
Q 17.828125 0 11.671875 7.65625 
Q 5.515625 15.328125 5.515625 27.984375 
Q 5.515625 40.671875 11.671875 48.328125 
Q 17.828125 56 27.875 56 
Q 33.9375 56 38.28125 53.609375 
Q 42.625 51.21875 45.40625 46.390625 
L 45.40625 54.6875 
L 54.390625 54.6875 
z
" id="DejaVuSans-67"/>
      <path d="M 12.40625 8.296875 
L 28.515625 8.296875 
L 28.515625 63.921875 
L 10.984375 60.40625 
L 10.984375 69.390625 
L 28.421875 72.90625 
L 38.28125 72.90625 
L 38.28125 8.296875 
L 54.390625 8.296875 
L 54.390625 0 
L 12.40625 0 
z
" id="DejaVuSans-31"/>
      <path d="M 31 75.875 
Q 24.46875 64.65625 21.28125 53.65625 
Q 18.109375 42.671875 18.109375 31.390625 
Q 18.109375 20.125 21.3125 9.0625 
Q 24.515625 -2 31 -13.1875 
L 23.1875 -13.1875 
Q 15.875 -1.703125 12.234375 9.375 
Q 8.59375 20.453125 8.59375 31.390625 
Q 8.59375 42.28125 12.203125 53.3125 
Q 15.828125 64.359375 23.1875 75.875 
z
" id="DejaVuSans-28"/>
      <path d="M 51.125 44 
L 36.921875 44 
L 32.8125 27.6875 
L 47.125 27.6875 
z
M 43.796875 71.78125 
L 38.71875 51.515625 
L 52.984375 51.515625 
L 58.109375 71.78125 
L 65.921875 71.78125 
L 60.890625 51.515625 
L 76.125 51.515625 
L 76.125 44 
L 58.984375 44 
L 54.984375 27.6875 
L 70.515625 27.6875 
L 70.515625 20.21875 
L 53.078125 20.21875 
L 48 0 
L 40.1875 0 
L 45.21875 20.21875 
L 30.90625 20.21875 
L 25.875 0 
L 18.015625 0 
L 23.09375 20.21875 
L 7.71875 20.21875 
L 7.71875 27.6875 
L 24.90625 27.6875 
L 29 44 
L 13.28125 44 
L 13.28125 51.515625 
L 30.90625 51.515625 
L 35.890625 71.78125 
z
" id="DejaVuSans-23"/>
      <path id="DejaVuSans-20"/>
      <path d="M 37.109375 75.984375 
L 37.109375 68.5 
L 28.515625 68.5 
Q 23.6875 68.5 21.796875 66.546875 
Q 19.921875 64.59375 19.921875 59.515625 
L 19.921875 54.6875 
L 34.71875 54.6875 
L 34.71875 47.703125 
L 19.921875 47.703125 
L 19.921875 0 
L 10.890625 0 
L 10.890625 47.703125 
L 2.296875 47.703125 
L 2.296875 54.6875 
L 10.890625 54.6875 
L 10.890625 58.5 
Q 10.890625 67.625 15.140625 71.796875 
Q 19.390625 75.984375 28.609375 75.984375 
z
" id="DejaVuSans-66"/>
      <path d="M 4.890625 31.390625 
L 31.203125 31.390625 
L 31.203125 23.390625 
L 4.890625 23.390625 
z
" id="DejaVuSans-2d"/>
      <path d="M 56.203125 29.59375 
L 56.203125 25.203125 
L 14.890625 25.203125 
Q 15.484375 15.921875 20.484375 11.0625 
Q 25.484375 6.203125 34.421875 6.203125 
Q 39.59375 6.203125 44.453125 7.46875 
Q 49.3125 8.734375 54.109375 11.28125 
L 54.109375 2.78125 
Q 49.265625 0.734375 44.1875 -0.34375 
Q 39.109375 -1.421875 33.890625 -1.421875 
Q 20.796875 -1.421875 13.15625 6.1875 
Q 5.515625 13.8125 5.515625 26.8125 
Q 5.515625 40.234375 12.765625 48.109375 
Q 20.015625 56 32.328125 56 
Q 43.359375 56 49.78125 48.890625 
Q 56.203125 41.796875 56.203125 29.59375 
z
M 47.21875 32.234375 
Q 47.125 39.59375 43.09375 43.984375 
Q 39.0625 48.390625 32.421875 48.390625 
Q 24.90625 48.390625 20.390625 44.140625 
Q 15.875 39.890625 15.1875 32.171875 
z
" id="DejaVuSans-65"/>
      <path d="M 2.984375 54.6875 
L 12.5 54.6875 
L 29.59375 8.796875 
L 46.6875 54.6875 
L 56.203125 54.6875 
L 35.6875 0 
L 23.484375 0 
z
" id="DejaVuSans-76"/>
      <path d="M 34.28125 27.484375 
Q 23.390625 27.484375 19.1875 25 
Q 14.984375 22.515625 14.984375 16.5 
Q 14.984375 11.71875 18.140625 8.90625 
Q 21.296875 6.109375 26.703125 6.109375 
Q 34.1875 6.109375 38.703125 11.40625 
Q 43.21875 16.703125 43.21875 25.484375 
L 43.21875 27.484375 
z
M 52.203125 31.203125 
L 52.203125 0 
L 43.21875 0 
L 43.21875 8.296875 
Q 40.140625 3.328125 35.546875 0.953125 
Q 30.953125 -1.421875 24.3125 -1.421875 
Q 15.921875 -1.421875 10.953125 3.296875 
Q 6 8.015625 6 15.921875 
Q 6 25.140625 12.171875 29.828125 
Q 18.359375 34.515625 30.609375 34.515625 
L 43.21875 34.515625 
L 43.21875 35.40625 
Q 43.21875 41.609375 39.140625 45 
Q 35.0625 48.390625 27.6875 48.390625 
Q 23 48.390625 18.546875 47.265625 
Q 14.109375 46.140625 10.015625 43.890625 
L 10.015625 52.203125 
Q 14.9375 54.109375 19.578125 55.046875 
Q 24.21875 56 28.609375 56 
Q 40.484375 56 46.34375 49.84375 
Q 52.203125 43.703125 52.203125 31.203125 
z
" id="DejaVuSans-61"/>
      <path d="M 44.28125 53.078125 
L 44.28125 44.578125 
Q 40.484375 46.53125 36.375 47.5 
Q 32.28125 48.484375 27.875 48.484375 
Q 21.1875 48.484375 17.84375 46.4375 
Q 14.5 44.390625 14.5 40.28125 
Q 14.5 37.15625 16.890625 35.375 
Q 19.28125 33.59375 26.515625 31.984375 
L 29.59375 31.296875 
Q 39.15625 29.25 43.1875 25.515625 
Q 47.21875 21.78125 47.21875 15.09375 
Q 47.21875 7.46875 41.1875 3.015625 
Q 35.15625 -1.421875 24.609375 -1.421875 
Q 20.21875 -1.421875 15.453125 -0.5625 
Q 10.6875 0.296875 5.421875 2 
L 5.421875 11.28125 
Q 10.40625 8.6875 15.234375 7.390625 
Q 20.0625 6.109375 24.8125 6.109375 
Q 31.15625 6.109375 34.5625 8.28125 
Q 37.984375 10.453125 37.984375 14.40625 
Q 37.984375 18.0625 35.515625 20.015625 
Q 33.0625 21.96875 24.703125 23.78125 
L 21.578125 24.515625 
Q 13.234375 26.265625 9.515625 29.90625 
Q 5.8125 33.546875 5.8125 39.890625 
Q 5.8125 47.609375 11.28125 51.796875 
Q 16.75 56 26.8125 56 
Q 31.78125 56 36.171875 55.265625 
Q 40.578125 54.546875 44.28125 53.078125 
z
" id="DejaVuSans-73"/>
      <path d="M 25.390625 72.90625 
L 33.6875 72.90625 
L 8.296875 -9.28125 
L 0 -9.28125 
z
" id="DejaVuSans-2f"/>
      <path d="M 45.40625 46.390625 
L 45.40625 75.984375 
L 54.390625 75.984375 
L 54.390625 0 
L 45.40625 0 
L 45.40625 8.203125 
Q 42.578125 3.328125 38.25 0.953125 
Q 33.9375 -1.421875 27.875 -1.421875 
Q 17.96875 -1.421875 11.734375 6.484375 
Q 5.515625 14.40625 5.515625 27.296875 
Q 5.515625 40.1875 11.734375 48.09375 
Q 17.96875 56 27.875 56 
Q 33.9375 56 38.25 53.625 
Q 42.578125 51.265625 45.40625 46.390625 
z
M 14.796875 27.296875 
Q 14.796875 17.390625 18.875 11.75 
Q 22.953125 6.109375 30.078125 6.109375 
Q 37.203125 6.109375 41.296875 11.75 
Q 45.40625 17.390625 45.40625 27.296875 
Q 45.40625 37.203125 41.296875 42.84375 
Q 37.203125 48.484375 30.078125 48.484375 
Q 22.953125 48.484375 18.875 42.84375 
Q 14.796875 37.203125 14.796875 27.296875 
z
" id="DejaVuSans-64"/>
      <path d="M 9.421875 54.6875 
L 18.40625 54.6875 
L 18.40625 0 
L 9.421875 0 
z
M 9.421875 75.984375 
L 18.40625 75.984375 
L 18.40625 64.59375 
L 9.421875 64.59375 
z
" id="DejaVuSans-69"/>
      <path d="M 52 44.1875 
Q 55.375 50.25 60.0625 53.125 
Q 64.75 56 71.09375 56 
Q 79.640625 56 84.28125 50.015625 
Q 88.921875 44.046875 88.921875 33.015625 
L 88.921875 0 
L 79.890625 0 
L 79.890625 32.71875 
Q 79.890625 40.578125 77.09375 44.375 
Q 74.3125 48.1875 68.609375 48.1875 
Q 61.625 48.1875 57.5625 43.546875 
Q 53.515625 38.921875 53.515625 30.90625 
L 53.515625 0 
L 44.484375 0 
L 44.484375 32.71875 
Q 44.484375 40.625 41.703125 44.40625 
Q 38.921875 48.1875 33.109375 48.1875 
Q 26.21875 48.1875 22.15625 43.53125 
Q 18.109375 38.875 18.109375 30.90625 
L 18.109375 0 
L 9.078125 0 
L 9.078125 54.6875 
L 18.109375 54.6875 
L 18.109375 46.1875 
Q 21.1875 51.21875 25.484375 53.609375 
Q 29.78125 56 35.6875 56 
Q 41.65625 56 45.828125 52.96875 
Q 50 49.953125 52 44.1875 
z
" id="DejaVuSans-6d"/>
      <path d="M 54.890625 33.015625 
L 54.890625 0 
L 45.90625 0 
L 45.90625 32.71875 
Q 45.90625 40.484375 42.875 44.328125 
Q 39.84375 48.1875 33.796875 48.1875 
Q 26.515625 48.1875 22.3125 43.546875 
Q 18.109375 38.921875 18.109375 30.90625 
L 18.109375 0 
L 9.078125 0 
L 9.078125 54.6875 
L 18.109375 54.6875 
L 18.109375 46.1875 
Q 21.34375 51.125 25.703125 53.5625 
Q 30.078125 56 35.796875 56 
Q 45.21875 56 50.046875 50.171875 
Q 54.890625 44.34375 54.890625 33.015625 
z
" id="DejaVuSans-6e"/>
      <path d="M 8.015625 75.875 
L 15.828125 75.875 
Q 23.140625 64.359375 26.78125 53.3125 
Q 30.421875 42.28125 30.421875 31.390625 
Q 30.421875 20.453125 26.78125 9.375 
Q 23.140625 -1.703125 15.828125 -13.1875 
L 8.015625 -13.1875 
Q 14.5 -2 17.703125 9.0625 
Q 20.90625 20.125 20.90625 31.390625 
Q 20.90625 42.671875 17.703125 53.65625 
Q 14.5 64.65625 8.015625 75.875 
z
" id="DejaVuSans-29"/>
     </defs>
     <g transform="translate(107.211219 338.153594)scale(0.17 -0.17)">
      <use xlink:href="#DejaVuSans-6c"/>
      <use x="27.783203" xlink:href="#DejaVuSans-6f"/>
      <use x="88.964844" xlink:href="#DejaVuSans-67"/>
      <use x="152.441406" xlink:href="#DejaVuSans-31"/>
      <use x="216.064453" xlink:href="#DejaVuSans-30"/>
      <use x="279.6875" xlink:href="#DejaVuSans-28"/>
      <use x="318.701172" xlink:href="#DejaVuSans-23"/>
      <use x="402.490234" xlink:href="#DejaVuSans-20"/>
      <use x="434.277344" xlink:href="#DejaVuSans-66"/>
      <use x="469.404297" xlink:href="#DejaVuSans-2d"/>
      <use x="505.488281" xlink:href="#DejaVuSans-65"/>
      <use x="567.011719" xlink:href="#DejaVuSans-76"/>
      <use x="626.191406" xlink:href="#DejaVuSans-61"/>
      <use x="687.470703" xlink:href="#DejaVuSans-6c"/>
      <use x="715.253906" xlink:href="#DejaVuSans-73"/>
      <use x="767.353516" xlink:href="#DejaVuSans-20"/>
      <use x="799.140625" xlink:href="#DejaVuSans-2f"/>
      <use x="832.832031" xlink:href="#DejaVuSans-20"/>
      <use x="864.619141" xlink:href="#DejaVuSans-64"/>
      <use x="928.095703" xlink:href="#DejaVuSans-69"/>
      <use x="955.878906" xlink:href="#DejaVuSans-6d"/>
      <use x="1053.291016" xlink:href="#DejaVuSans-65"/>
      <use x="1114.814453" xlink:href="#DejaVuSans-6e"/>
      <use x="1178.193359" xlink:href="#DejaVuSans-73"/>
      <use x="1230.292969" xlink:href="#DejaVuSans-69"/>
      <use x="1258.076172" xlink:href="#DejaVuSans-6f"/>
      <use x="1319.257812" xlink:href="#DejaVuSans-6e"/>
      <use x="1382.636719" xlink:href="#DejaVuSans-29"/>
     </g>
    </g>
   </g>
   <g id="matplotlib.axis_2">
    <g id="ytick_1">
     <g id="line2d_11">
      <path clip-path="url(#p8e294b4455)" d="M 56.12 294.88 
L 399.984 294.88 
" style="fill:none;stroke:#b0b0b0;stroke-linecap:square;stroke-width:0.8;"/>
     </g>
     <g id="line2d_12">
      <defs>
       <path d="M 0 0 
L -3.5 0 
" id="m6fa7ddb9a9" style="stroke:#000000;stroke-width:0.8;"/>
      </defs>
      <g>
       <use style="stroke:#000000;stroke-width:0.8;" x="56.12" xlink:href="#m6fa7ddb9a9" y="294.88"/>
      </g>
     </g>
     <g id="text_7">
      <!-- 0.0 -->
      <defs>
       <path d="M 10.6875 12.40625 
L 21 12.40625 
L 21 0 
L 10.6875 0 
z
" id="DejaVuSans-2e"/>
      </defs>
      <g transform="translate(23.675 300.95875)scale(0.16 -0.16)">
       <use xlink:href="#DejaVuSans-30"/>
       <use x="63.623047" xlink:href="#DejaVuSans-2e"/>
       <use x="95.410156" xlink:href="#DejaVuSans-30"/>
      </g>
     </g>
    </g>
    <g id="ytick_2">
     <g id="line2d_13">
      <path clip-path="url(#p8e294b4455)" d="M 56.12 237.843411 
L 399.984 237.843411 
" style="fill:none;stroke:#b0b0b0;stroke-linecap:square;stroke-width:0.8;"/>
     </g>
     <g id="line2d_14">
      <g>
       <use style="stroke:#000000;stroke-width:0.8;" x="56.12" xlink:href="#m6fa7ddb9a9" y="237.843411"/>
      </g>
     </g>
     <g id="text_8">
      <!-- 0.2 -->
      <g transform="translate(23.675 243.922161)scale(0.16 -0.16)">
       <use xlink:href="#DejaVuSans-30"/>
       <use x="63.623047" xlink:href="#DejaVuSans-2e"/>
       <use x="95.410156" xlink:href="#DejaVuSans-32"/>
      </g>
     </g>
    </g>
    <g id="ytick_3">
     <g id="line2d_15">
      <path clip-path="url(#p8e294b4455)" d="M 56.12 180.806823 
L 399.984 180.806823 
" style="fill:none;stroke:#b0b0b0;stroke-linecap:square;stroke-width:0.8;"/>
     </g>
     <g id="line2d_16">
      <g>
       <use style="stroke:#000000;stroke-width:0.8;" x="56.12" xlink:href="#m6fa7ddb9a9" y="180.806823"/>
      </g>
     </g>
     <g id="text_9">
      <!-- 0.4 -->
      <g transform="translate(23.675 186.885573)scale(0.16 -0.16)">
       <use xlink:href="#DejaVuSans-30"/>
       <use x="63.623047" xlink:href="#DejaVuSans-2e"/>
       <use x="95.410156" xlink:href="#DejaVuSans-34"/>
      </g>
     </g>
    </g>
    <g id="ytick_4">
     <g id="line2d_17">
      <path clip-path="url(#p8e294b4455)" d="M 56.12 123.770234 
L 399.984 123.770234 
" style="fill:none;stroke:#b0b0b0;stroke-linecap:square;stroke-width:0.8;"/>
     </g>
     <g id="line2d_18">
      <g>
       <use style="stroke:#000000;stroke-width:0.8;" x="56.12" xlink:href="#m6fa7ddb9a9" y="123.770234"/>
      </g>
     </g>
     <g id="text_10">
      <!-- 0.6 -->
      <g transform="translate(23.675 129.848984)scale(0.16 -0.16)">
       <use xlink:href="#DejaVuSans-30"/>
       <use x="63.623047" xlink:href="#DejaVuSans-2e"/>
       <use x="95.410156" xlink:href="#DejaVuSans-36"/>
      </g>
     </g>
    </g>
    <g id="ytick_5">
     <g id="line2d_19">
      <path clip-path="url(#p8e294b4455)" d="M 56.12 66.733646 
L 399.984 66.733646 
" style="fill:none;stroke:#b0b0b0;stroke-linecap:square;stroke-width:0.8;"/>
     </g>
     <g id="line2d_20">
      <g>
       <use style="stroke:#000000;stroke-width:0.8;" x="56.12" xlink:href="#m6fa7ddb9a9" y="66.733646"/>
      </g>
     </g>
     <g id="text_11">
      <!-- 0.8 -->
      <g transform="translate(23.675 72.812396)scale(0.16 -0.16)">
       <use xlink:href="#DejaVuSans-30"/>
       <use x="63.623047" xlink:href="#DejaVuSans-2e"/>
       <use x="95.410156" xlink:href="#DejaVuSans-38"/>
      </g>
     </g>
    </g>
    <g id="ytick_6">
     <g id="line2d_21">
      <path clip-path="url(#p8e294b4455)" d="M 56.12 9.697057 
L 399.984 9.697057 
" style="fill:none;stroke:#b0b0b0;stroke-linecap:square;stroke-width:0.8;"/>
     </g>
     <g id="line2d_22">
      <g>
       <use style="stroke:#000000;stroke-width:0.8;" x="56.12" xlink:href="#m6fa7ddb9a9" y="9.697057"/>
      </g>
     </g>
     <g id="text_12">
      <!-- 1.0 -->
      <g transform="translate(23.675 15.775807)scale(0.16 -0.16)">
       <use xlink:href="#DejaVuSans-31"/>
       <use x="63.623047" xlink:href="#DejaVuSans-2e"/>
       <use x="95.410156" xlink:href="#DejaVuSans-30"/>
      </g>
     </g>
    </g>
    <g id="text_13">
     <!-- Fraction of function,target pairs -->
     <defs>
      <path d="M 9.8125 72.90625 
L 51.703125 72.90625 
L 51.703125 64.59375 
L 19.671875 64.59375 
L 19.671875 43.109375 
L 48.578125 43.109375 
L 48.578125 34.8125 
L 19.671875 34.8125 
L 19.671875 0 
L 9.8125 0 
z
" id="DejaVuSans-46"/>
      <path d="M 41.109375 46.296875 
Q 39.59375 47.171875 37.8125 47.578125 
Q 36.03125 48 33.890625 48 
Q 26.265625 48 22.1875 43.046875 
Q 18.109375 38.09375 18.109375 28.8125 
L 18.109375 0 
L 9.078125 0 
L 9.078125 54.6875 
L 18.109375 54.6875 
L 18.109375 46.1875 
Q 20.953125 51.171875 25.484375 53.578125 
Q 30.03125 56 36.53125 56 
Q 37.453125 56 38.578125 55.875 
Q 39.703125 55.765625 41.0625 55.515625 
z
" id="DejaVuSans-72"/>
      <path d="M 48.78125 52.59375 
L 48.78125 44.1875 
Q 44.96875 46.296875 41.140625 47.34375 
Q 37.3125 48.390625 33.40625 48.390625 
Q 24.65625 48.390625 19.8125 42.84375 
Q 14.984375 37.3125 14.984375 27.296875 
Q 14.984375 17.28125 19.8125 11.734375 
Q 24.65625 6.203125 33.40625 6.203125 
Q 37.3125 6.203125 41.140625 7.25 
Q 44.96875 8.296875 48.78125 10.40625 
L 48.78125 2.09375 
Q 45.015625 0.34375 40.984375 -0.53125 
Q 36.96875 -1.421875 32.421875 -1.421875 
Q 20.0625 -1.421875 12.78125 6.34375 
Q 5.515625 14.109375 5.515625 27.296875 
Q 5.515625 40.671875 12.859375 48.328125 
Q 20.21875 56 33.015625 56 
Q 37.15625 56 41.109375 55.140625 
Q 45.0625 54.296875 48.78125 52.59375 
z
" id="DejaVuSans-63"/>
      <path d="M 18.3125 70.21875 
L 18.3125 54.6875 
L 36.8125 54.6875 
L 36.8125 47.703125 
L 18.3125 47.703125 
L 18.3125 18.015625 
Q 18.3125 11.328125 20.140625 9.421875 
Q 21.96875 7.515625 27.59375 7.515625 
L 36.8125 7.515625 
L 36.8125 0 
L 27.59375 0 
Q 17.1875 0 13.234375 3.875 
Q 9.28125 7.765625 9.28125 18.015625 
L 9.28125 47.703125 
L 2.6875 47.703125 
L 2.6875 54.6875 
L 9.28125 54.6875 
L 9.28125 70.21875 
z
" id="DejaVuSans-74"/>
      <path d="M 8.5 21.578125 
L 8.5 54.6875 
L 17.484375 54.6875 
L 17.484375 21.921875 
Q 17.484375 14.15625 20.5 10.265625 
Q 23.53125 6.390625 29.59375 6.390625 
Q 36.859375 6.390625 41.078125 11.03125 
Q 45.3125 15.671875 45.3125 23.6875 
L 45.3125 54.6875 
L 54.296875 54.6875 
L 54.296875 0 
L 45.3125 0 
L 45.3125 8.40625 
Q 42.046875 3.421875 37.71875 1 
Q 33.40625 -1.421875 27.6875 -1.421875 
Q 18.265625 -1.421875 13.375 4.4375 
Q 8.5 10.296875 8.5 21.578125 
z
M 31.109375 56 
z
" id="DejaVuSans-75"/>
      <path d="M 11.71875 12.40625 
L 22.015625 12.40625 
L 22.015625 4 
L 14.015625 -11.625 
L 7.71875 -11.625 
L 11.71875 4 
z
" id="DejaVuSans-2c"/>
      <path d="M 18.109375 8.203125 
L 18.109375 -20.796875 
L 9.078125 -20.796875 
L 9.078125 54.6875 
L 18.109375 54.6875 
L 18.109375 46.390625 
Q 20.953125 51.265625 25.265625 53.625 
Q 29.59375 56 35.59375 56 
Q 45.5625 56 51.78125 48.09375 
Q 58.015625 40.1875 58.015625 27.296875 
Q 58.015625 14.40625 51.78125 6.484375 
Q 45.5625 -1.421875 35.59375 -1.421875 
Q 29.59375 -1.421875 25.265625 0.953125 
Q 20.953125 3.328125 18.109375 8.203125 
z
M 48.6875 27.296875 
Q 48.6875 37.203125 44.609375 42.84375 
Q 40.53125 48.484375 33.40625 48.484375 
Q 26.265625 48.484375 22.1875 42.84375 
Q 18.109375 37.203125 18.109375 27.296875 
Q 18.109375 17.390625 22.1875 11.75 
Q 26.265625 6.109375 33.40625 6.109375 
Q 40.53125 6.109375 44.609375 11.75 
Q 48.6875 17.390625 48.6875 27.296875 
z
" id="DejaVuSans-70"/>
     </defs>
     <g transform="translate(16.139531 286.001989)rotate(-90)scale(0.17 -0.17)">
      <use xlink:href="#DejaVuSans-46"/>
      <use x="57.410156" xlink:href="#DejaVuSans-72"/>
      <use x="98.523438" xlink:href="#DejaVuSans-61"/>
      <use x="159.802734" xlink:href="#DejaVuSans-63"/>
      <use x="214.783203" xlink:href="#DejaVuSans-74"/>
      <use x="253.992188" xlink:href="#DejaVuSans-69"/>
      <use x="281.775391" xlink:href="#DejaVuSans-6f"/>
      <use x="342.957031" xlink:href="#DejaVuSans-6e"/>
      <use x="406.335938" xlink:href="#DejaVuSans-20"/>
      <use x="438.123047" xlink:href="#DejaVuSans-6f"/>
      <use x="499.304688" xlink:href="#DejaVuSans-66"/>
      <use x="534.509766" xlink:href="#DejaVuSans-20"/>
      <use x="566.296875" xlink:href="#DejaVuSans-66"/>
      <use x="601.501953" xlink:href="#DejaVuSans-75"/>
      <use x="664.880859" xlink:href="#DejaVuSans-6e"/>
      <use x="728.259766" xlink:href="#DejaVuSans-63"/>
      <use x="783.240234" xlink:href="#DejaVuSans-74"/>
      <use x="822.449219" xlink:href="#DejaVuSans-69"/>
      <use x="850.232422" xlink:href="#DejaVuSans-6f"/>
      <use x="911.414062" xlink:href="#DejaVuSans-6e"/>
      <use x="974.792969" xlink:href="#DejaVuSans-2c"/>
      <use x="1006.580078" xlink:href="#DejaVuSans-74"/>
      <use x="1045.789062" xlink:href="#DejaVuSans-61"/>
      <use x="1107.068359" xlink:href="#DejaVuSans-72"/>
      <use x="1148.166016" xlink:href="#DejaVuSans-67"/>
      <use x="1211.642578" xlink:href="#DejaVuSans-65"/>
      <use x="1273.166016" xlink:href="#DejaVuSans-74"/>
      <use x="1312.375" xlink:href="#DejaVuSans-20"/>
      <use x="1344.162109" xlink:href="#DejaVuSans-70"/>
      <use x="1407.638672" xlink:href="#DejaVuSans-61"/>
      <use x="1468.917969" xlink:href="#DejaVuSans-69"/>
      <use x="1496.701172" xlink:href="#DejaVuSans-72"/>
      <use x="1537.814453" xlink:href="#DejaVuSans-73"/>
     </g>
    </g>
   </g>
   <g id="line2d_23">
    <defs>
     <path d="M 0 1.5 
C 0.397805 1.5 0.77937 1.341951 1.06066 1.06066 
C 1.341951 0.77937 1.5 0.397805 1.5 0 
C 1.5 -0.397805 1.341951 -0.77937 1.06066 -1.06066 
C 0.77937 -1.341951 0.397805 -1.5 0 -1.5 
C -0.397805 -1.5 -0.77937 -1.341951 -1.06066 -1.06066 
C -1.341951 -0.77937 -1.5 -0.397805 -1.5 0 
C -1.5 0.397805 -1.341951 0.77937 -1.06066 1.06066 
C -0.77937 1.341951 -0.397805 1.5 0 1.5 
z
" id="m0ce8103c5a" style="stroke:#000080;"/>
    </defs>
    <g>
     <use style="fill:#000080;stroke:#000080;" x="124.428341" xlink:href="#m0ce8103c5a" y="244.553598"/>
     <use style="fill:#000080;stroke:#000080;" x="124.428341" xlink:href="#m0ce8103c5a" y="244.553598"/>
    </g>
   </g>
   <g id="line2d_24">
    <path d="M 116.276944 294.88 
L 116.276944 264.684159 
L 116.790561 264.684159 
L 116.790561 252.941332 
L 117.289287 252.941332 
L 117.289287 251.822967 
L 119.151088 251.822967 
L 119.151088 248.467874 
L 120.830944 248.467874 
L 120.830944 247.908692 
L 124.428341 247.908692 
L 124.428341 244.553598 
L 333.429677 244.553598 
" style="fill:none;stroke:#000080;stroke-linecap:square;stroke-width:1.5;"/>
   </g>
   <g id="line2d_25">
    <defs>
     <path d="M 0 6 
C 1.591219 6 3.117479 5.367802 4.242641 4.242641 
C 5.367802 3.117479 6 1.591219 6 0 
C 6 -1.591219 5.367802 -3.117479 4.242641 -4.242641 
C 3.117479 -5.367802 1.591219 -6 0 -6 
C -1.591219 -6 -3.117479 -5.367802 -4.242641 -4.242641 
C -5.367802 -3.117479 -6 -1.591219 -6 0 
C -6 1.591219 -5.367802 3.117479 -4.242641 4.242641 
C -3.117479 5.367802 -1.591219 6 0 6 
z
" id="mcfdad4b99f" style="stroke:#000080;stroke-width:1.5;"/>
    </defs>
    <g>
     <use style="fill-opacity:0;stroke:#000080;stroke-width:1.5;" x="116.276944" xlink:href="#mcfdad4b99f" y="294.88"/>
     <use style="fill-opacity:0;stroke:#000080;stroke-width:1.5;" x="119.151088" xlink:href="#mcfdad4b99f" y="248.467874"/>
     <use style="fill-opacity:0;stroke:#000080;stroke-width:1.5;" x="124.428341" xlink:href="#mcfdad4b99f" y="244.553598"/>
     <use style="fill-opacity:0;stroke:#000080;stroke-width:1.5;" x="124.428341" xlink:href="#mcfdad4b99f" y="244.553598"/>
     <use style="fill-opacity:0;stroke:#000080;stroke-width:1.5;" x="333.429677" xlink:href="#mcfdad4b99f" y="244.553598"/>
    </g>
   </g>
   <g id="line2d_26">
    <path style="fill:none;stroke:#000080;stroke-linecap:square;stroke-width:1.5;"/>
    <g/>
   </g>
   <g id="line2d_27">
    <path clip-path="url(#p8e294b4455)" d="M 128.589091 244.553598 
" style="fill:none;stroke:#000080;stroke-linecap:square;stroke-width:1.5;"/>
    <defs>
     <path d="M -12 12 
L 12 -12 
M -12 -12 
L 12 12 
" id="m12df37e04e" style="stroke:#000080;stroke-width:3;"/>
    </defs>
    <g clip-path="url(#p8e294b4455)">
     <use style="fill:#000080;stroke:#000080;stroke-width:3;" x="128.589091" xlink:href="#m12df37e04e" y="244.553598"/>
    </g>
   </g>
   <g id="line2d_28">
    <defs>
     <path d="M 0 1.5 
C 0.397805 1.5 0.77937 1.341951 1.06066 1.06066 
C 1.341951 0.77937 1.5 0.397805 1.5 0 
C 1.5 -0.397805 1.341951 -0.77937 1.06066 -1.06066 
C 0.77937 -1.341951 0.397805 -1.5 0 -1.5 
C -0.397805 -1.5 -0.77937 -1.341951 -1.06066 -1.06066 
C -1.341951 -0.77937 -1.5 -0.397805 -1.5 0 
C -1.5 0.397805 -1.341951 0.77937 -1.06066 1.06066 
C -0.77937 1.341951 -0.397805 1.5 0 1.5 
z
" id="m4ecc9427d0" style="stroke:#ff00ff;"/>
    </defs>
    <g>
     <use style="fill:#ff00ff;stroke:#ff00ff;" x="180.489697" xlink:href="#m4ecc9427d0" y="9.697057"/>
     <use style="fill:#ff00ff;stroke:#ff00ff;" x="180.489697" xlink:href="#m4ecc9427d0" y="9.697057"/>
    </g>
   </g>
   <g id="line2d_29">
    <path d="M 56.12 294.88 
L 56.12 265.243341 
L 104.865056 265.243341 
L 104.865056 264.684159 
L 107.661173 264.684159 
L 107.661173 263.565795 
L 109.300972 263.565795 
L 109.300972 261.888248 
L 110.065758 261.888248 
L 110.065758 260.210701 
L 111.500328 260.210701 
L 111.500328 259.092337 
L 112.175115 259.092337 
L 112.175115 258.533154 
L 112.824432 258.533154 
L 112.824432 257.41479 
L 113.450132 257.41479 
L 113.450132 256.296425 
L 114.053874 256.296425 
L 114.053874 253.500514 
L 114.637146 253.500514 
L 114.637146 251.822967 
L 115.20129 251.822967 
L 115.20129 251.263785 
L 124.100619 251.263785 
L 124.100619 249.586238 
L 127.939774 249.586238 
L 127.939774 248.467874 
L 128.202449 248.467874 
L 128.202449 247.34951 
L 128.461173 247.34951 
L 128.461173 246.790327 
L 128.716065 246.790327 
L 128.716065 245.112781 
L 128.967235 245.112781 
L 128.967235 242.876052 
L 129.214792 242.876052 
L 129.214792 242.316869 
L 129.458837 242.316869 
L 129.458837 241.757687 
L 129.699468 241.757687 
L 129.699468 241.198505 
L 129.93678 241.198505 
L 129.93678 238.961776 
L 130.170864 238.961776 
L 130.170864 237.843411 
L 130.401805 237.843411 
L 130.401805 237.284229 
L 130.742506 237.284229 
L 130.742506 236.725047 
L 130.854591 236.725047 
L 130.854591 235.0475 
L 131.512181 235.0475 
L 131.619377 228.896496 
L 131.937015 228.896496 
L 131.937015 226.100584 
L 132.35161 226.100584 
L 132.35161 224.98222 
L 132.55522 224.98222 
L 132.55522 223.863855 
L 133.15198 223.863855 
L 133.15198 220.508762 
L 133.346388 220.508762 
L 133.346388 219.94958 
L 133.538623 219.94958 
L 133.538623 217.712851 
L 133.728734 217.712851 
L 133.728734 214.91694 
L 133.916767 214.91694 
L 133.916767 213.239393 
L 134.102767 213.239393 
L 134.102767 212.680211 
L 134.286778 212.680211 
L 134.286778 209.884299 
L 134.648999 209.884299 
L 134.648999 207.088388 
L 135.003752 207.088388 
L 135.003752 206.529206 
L 135.178422 206.529206 
L 135.178422 202.61493 
L 135.522531 202.61493 
L 135.522531 202.055748 
L 135.859892 202.055748 
L 135.859892 197.58229 
L 136.353845 197.58229 
L 136.353845 195.345561 
L 136.675441 195.345561 
L 136.675441 193.668014 
L 136.991135 193.668014 
L 136.991135 191.990468 
L 137.60566 191.990468 
L 137.60566 189.194556 
L 137.755922 189.194556 
L 137.755922 188.635374 
L 137.978882 188.635374 
L 137.978882 188.076192 
L 138.19899 188.076192 
L 138.19899 186.957828 
L 138.559692 186.957828 
L 138.630934 185.839463 
L 138.842906 185.839463 
L 138.842906 184.721099 
L 138.982784 184.721099 
L 138.982784 183.602734 
L 139.190491 183.602734 
L 139.259174 182.48437 
L 139.395721 182.48437 
L 139.395721 181.925187 
L 139.531193 181.925187 
L 139.531193 181.366005 
L 139.665607 181.366005 
L 139.665607 180.806823 
L 139.798978 180.806823 
L 139.798978 180.247641 
L 139.931324 180.247641 
L 139.931324 179.129276 
L 140.193 179.129276 
L 140.193 178.570094 
L 140.322361 178.570094 
L 140.322361 176.892547 
L 140.450756 176.892547 
L 140.450756 176.333365 
L 140.5782 176.333365 
L 140.5782 174.096636 
L 140.704707 174.096636 
L 140.704707 173.537454 
L 140.83029 173.537454 
L 140.83029 172.978271 
L 140.954964 172.978271 
L 140.954964 171.300725 
L 141.07874 171.300725 
L 141.07874 170.741543 
L 141.201633 170.741543 
L 141.201633 169.623178 
L 141.323654 169.623178 
L 141.323654 168.504814 
L 141.444815 168.504814 
L 141.505077 167.386449 
L 141.684608 167.386449 
L 141.684608 165.708902 
L 141.803263 165.708902 
L 141.803263 164.031356 
L 141.921105 164.031356 
L 141.979724 158.998715 
L 142.096368 158.998715 
L 142.154395 156.202804 
L 142.269864 156.202804 
L 142.269864 154.525258 
L 142.384563 154.525258 
L 142.384563 151.729346 
L 142.555192 151.729346 
L 142.555192 151.170164 
L 142.724144 151.170164 
L 142.724144 149.492617 
L 143.166738 149.492617 
L 143.275629 146.137524 
L 143.437686 146.137524 
L 143.544882 143.341613 
L 144.019165 143.341613 
L 144.019165 142.223248 
L 144.174398 142.223248 
L 144.277114 139.427337 
L 144.328243 139.427337 
L 144.430047 136.072244 
L 144.531253 136.072244 
L 144.581633 134.953879 
L 144.681953 134.953879 
L 144.781692 133.835515 
L 144.880856 133.835515 
L 144.930224 132.157968 
L 145.320153 132.157968 
L 145.416269 131.039603 
L 145.70144 131.039603 
L 145.748512 129.921239 
L 145.842271 129.921239 
L 145.842271 129.362057 
L 146.028272 129.362057 
L 146.120523 127.68451 
L 146.166464 127.68451 
L 146.212283 126.566145 
L 146.303556 126.566145 
L 146.349011 125.447781 
L 146.529641 125.447781 
L 146.574504 124.329417 
L 146.708395 124.329417 
L 146.708395 123.770234 
L 146.841251 123.770234 
L 146.841251 123.211052 
L 146.97309 123.211052 
L 147.016813 121.533505 
L 147.103926 121.533505 
L 147.190601 120.415141 
L 147.319799 120.415141 
L 147.362651 119.296776 
L 147.532997 119.296776 
L 147.617542 117.060047 
L 147.65966 117.060047 
L 147.701674 114.823318 
L 147.785396 114.823318 
L 147.785396 114.264136 
L 147.91022 114.264136 
L 147.992936 113.145772 
L 148.198003 113.145772 
L 148.27935 111.468225 
L 148.319879 111.468225 
L 148.360314 110.349861 
L 148.48105 110.349861 
L 148.48105 109.790678 
L 148.600945 109.790678 
L 148.680414 108.672314 
L 148.759517 108.672314 
L 148.759517 108.113132 
L 148.91664 108.113132 
L 148.994666 105.876403 
L 149.072341 105.876403 
L 149.072341 105.31722 
L 149.188199 105.31722 
L 149.188199 104.758038 
L 149.341473 104.758038 
L 149.379579 103.639674 
L 149.531165 103.639674 
L 149.531165 103.080491 
L 149.718788 103.080491 
L 149.718788 102.521309 
L 149.867427 102.521309 
L 149.867427 101.962127 
L 150.160907 101.962127 
L 150.269684 100.843762 
L 150.305791 100.843762 
L 150.413659 99.725398 
L 150.591949 99.725398 
L 150.591949 99.166216 
L 150.768411 99.166216 
L 150.803487 98.047851 
L 150.908289 98.047851 
L 150.943081 96.929487 
L 151.253087 96.929487 
L 151.355193 95.811122 
L 151.422929 95.811122 
L 151.524035 94.692758 
L 151.624551 94.692758 
L 151.657926 92.456029 
L 151.922622 92.456029 
L 151.988164 90.778482 
L 152.40821 90.778482 
L 152.40821 89.660118 
L 152.535418 89.660118 
L 152.598671 87.423389 
L 152.724485 87.423389 
L 152.724485 86.864206 
L 152.942468 86.864206 
L 152.973384 85.745842 
L 153.096496 85.745842 
L 153.188256 83.509113 
L 153.249158 83.509113 
L 153.279528 82.390748 
L 153.400477 82.390748 
L 153.430582 81.272384 
L 153.520581 81.272384 
L 153.520581 80.713202 
L 153.817224 80.713202 
L 153.817224 80.15402 
L 153.992786 80.15402 
L 154.079899 79.035655 
L 154.108839 79.035655 
L 154.195368 77.358108 
L 154.338624 77.358108 
L 154.338624 76.798926 
L 154.452375 76.798926 
L 154.452375 76.239744 
L 155.037536 76.239744 
L 155.11953 75.121379 
L 155.336287 75.121379 
L 155.416872 74.003015 
L 155.523735 74.003015 
L 155.629938 72.325468 
L 155.761776 72.325468 
L 155.761776 71.766286 
L 155.892613 71.766286 
L 155.892613 71.207104 
L 156.202619 71.207104 
L 156.304725 70.088739 
L 156.380909 70.088739 
L 156.431512 68.970375 
L 156.781623 68.970375 
L 156.781623 67.85201 
L 157.051797 67.85201 
L 157.100467 66.733646 
L 157.197397 66.733646 
L 157.197397 66.174463 
L 157.603359 66.174463 
L 157.674016 65.056099 
L 157.767776 65.056099 
L 157.861027 63.378552 
L 157.953776 63.378552 
L 157.976886 61.701006 
L 158.137787 61.701006 
L 158.22906 60.582641 
L 158.342474 60.582641 
L 158.43267 58.905094 
L 158.500008 58.905094 
L 158.500008 57.78673 
L 158.633899 57.78673 
L 158.722584 56.668365 
L 158.810814 56.668365 
L 158.832801 55.550001 
L 159.007694 55.550001 
L 159.007694 54.990819 
L 159.159279 54.990819 
L 159.159279 54.431636 
L 159.7109 54.431636 
L 159.794217 52.75409 
L 159.835725 52.75409 
L 159.897799 51.635725 
L 159.980218 51.635725 
L 160.062243 50.517361 
L 160.123507 50.517361 
L 160.123507 49.958178 
L 160.245384 49.958178 
L 160.265613 48.280632 
L 160.406555 48.280632 
L 160.426595 47.162267 
L 160.645515 47.162267 
L 160.645515 46.603085 
L 160.763762 46.603085 
L 160.842144 45.484721 
L 160.920171 45.484721 
L 160.939622 44.366356 
L 161.055872 44.366356 
L 161.055872 43.247992 
L 161.228787 43.247992 
L 161.247893 42.129627 
L 161.362085 42.129627 
L 161.362085 41.011263 
L 161.475524 41.011263 
L 161.494358 39.892898 
L 161.700182 39.892898 
L 161.718772 38.774534 
L 161.866772 38.774534 
L 161.866772 38.215351 
L 162.285314 38.215351 
L 162.285314 37.656169 
L 162.535181 37.656169 
L 162.535181 37.096987 
L 162.885955 37.096987 
L 162.885955 36.537805 
L 164.157252 36.537805 
L 164.173369 35.41944 
L 164.476758 35.41944 
L 164.476758 34.860258 
L 164.618622 34.860258 
L 164.728158 33.182711 
L 164.743749 33.182711 
L 164.743749 32.623529 
L 165.250488 32.623529 
L 165.250488 32.064347 
L 165.535617 32.064347 
L 165.609872 30.3868 
L 165.728017 30.3868 
L 165.728017 29.827618 
L 166.106481 29.827618 
L 166.149619 28.709253 
L 166.235572 28.709253 
L 166.235572 28.150071 
L 166.392046 28.150071 
L 166.434475 27.031707 
L 166.631104 27.031707 
L 166.631104 26.472524 
L 167.09948 26.472524 
L 167.09948 25.913342 
L 167.315556 25.913342 
L 167.315556 25.35416 
L 167.687281 25.35416 
L 167.778971 24.235795 
L 167.947966 24.235795 
L 167.947966 23.676613 
L 168.102501 23.676613 
L 168.102501 23.117431 
L 168.331733 23.117431 
L 168.331733 22.558249 
L 169.086617 22.558249 
L 169.086617 21.999066 
L 169.279255 21.999066 
L 169.279255 21.439884 
L 169.457916 21.439884 
L 169.457916 20.880702 
L 170.290572 20.880702 
L 170.290572 20.32152 
L 170.403096 20.32152 
L 170.403096 19.762337 
L 170.592714 19.762337 
L 170.62596 18.643973 
L 171.288394 18.643973 
L 171.288394 18.084791 
L 171.584126 18.084791 
L 171.584126 17.525609 
L 172.038816 17.525609 
L 172.038816 16.966426 
L 172.231504 16.966426 
L 172.231504 16.407244 
L 173.14473 16.407244 
L 173.182942 15.28888 
L 173.699926 15.28888 
L 173.699926 14.729697 
L 173.929879 14.729697 
L 173.929879 14.170515 
L 174.663254 14.170515 
L 174.663254 13.611333 
L 175.391838 13.611333 
L 175.391838 13.052151 
L 175.85552 13.052151 
L 175.888166 11.933786 
L 176.050478 11.933786 
L 176.155165 10.815422 
L 178.895393 10.815422 
L 178.895393 10.256239 
L 180.489697 10.256239 
L 180.489697 9.697057 
L 333.429677 9.697057 
L 333.429677 9.697057 
" style="fill:none;stroke:#ff00ff;stroke-linecap:square;stroke-width:1.5;"/>
   </g>
   <g id="line2d_30">
    <defs>
     <path d="M -0 8.485281 
L 5.091169 0 
L 0 -8.485281 
L -5.091169 -0 
z
" id="m2099580551" style="stroke:#ff00ff;stroke-linejoin:miter;stroke-width:1.5;"/>
    </defs>
    <g>
     <use style="fill-opacity:0;stroke:#ff00ff;stroke-linejoin:miter;stroke-width:1.5;" x="130.854591" xlink:href="#m2099580551" y="236.725047"/>
     <use style="fill-opacity:0;stroke:#ff00ff;stroke-linejoin:miter;stroke-width:1.5;" x="158.342474" xlink:href="#m2099580551" y="60.023459"/>
     <use style="fill-opacity:0;stroke:#ff00ff;stroke-linejoin:miter;stroke-width:1.5;" x="180.489697" xlink:href="#m2099580551" y="9.697057"/>
     <use style="fill-opacity:0;stroke:#ff00ff;stroke-linejoin:miter;stroke-width:1.5;" x="180.489697" xlink:href="#m2099580551" y="9.697057"/>
     <use style="fill-opacity:0;stroke:#ff00ff;stroke-linejoin:miter;stroke-width:1.5;" x="333.429677" xlink:href="#m2099580551" y="9.697057"/>
    </g>
   </g>
   <g id="line2d_31">
    <path style="fill:none;stroke:#ff00ff;stroke-linecap:square;stroke-width:1.5;"/>
    <g/>
   </g>
   <g id="line2d_32">
    <path clip-path="url(#p8e294b4455)" d="M 125.830417 249.586238 
" style="fill:none;stroke:#ff00ff;stroke-linecap:square;stroke-width:1.5;"/>
    <defs>
     <path d="M -12 12 
L 12 -12 
M -12 -12 
L 12 12 
" id="mb3260924f2" style="stroke:#ff00ff;stroke-width:3;"/>
    </defs>
    <g clip-path="url(#p8e294b4455)">
     <use style="fill:#ff00ff;stroke:#ff00ff;stroke-width:3;" x="125.830417" xlink:href="#mb3260924f2" y="249.586238"/>
    </g>
   </g>
   <g id="line2d_33">
    <defs>
     <path d="M 0 1.5 
C 0.397805 1.5 0.77937 1.341951 1.06066 1.06066 
C 1.341951 0.77937 1.5 0.397805 1.5 0 
C 1.5 -0.397805 1.341951 -0.77937 1.06066 -1.06066 
C 0.77937 -1.341951 0.397805 -1.5 0 -1.5 
C -0.397805 -1.5 -0.77937 -1.341951 -1.06066 -1.06066 
C -1.341951 -0.77937 -1.5 -0.397805 -1.5 0 
C -1.5 0.397805 -1.341951 0.77937 -1.06066 1.06066 
C -0.77937 1.341951 -0.397805 1.5 0 1.5 
z
" id="m2ff52b624f" style="stroke:#ffa500;"/>
    </defs>
    <g>
     <use style="fill:#ffa500;stroke:#ffa500;" x="183.918366" xlink:href="#m2ff52b624f" y="9.697057"/>
     <use style="fill:#ffa500;stroke:#ffa500;" x="183.918366" xlink:href="#m2ff52b624f" y="9.697057"/>
    </g>
   </g>
   <g id="line2d_34">
    <path d="M 56.12 294.88 
L 56.12 273.071893 
L 109.300972 273.071893 
L 109.300972 272.51271 
L 110.065758 272.51271 
L 110.065758 270.835164 
L 110.797991 270.835164 
L 110.797991 270.275981 
L 111.500328 270.275981 
L 111.500328 269.157617 
L 112.824432 269.157617 
L 112.824432 266.361706 
L 113.450132 266.361706 
L 113.450132 264.124977 
L 114.053874 264.124977 
L 114.053874 263.565795 
L 115.20129 263.565795 
L 115.20129 262.44743 
L 115.747522 262.44743 
L 115.747522 260.210701 
L 116.276944 260.210701 
L 116.276944 259.651519 
L 117.289287 259.651519 
L 117.289287 258.533154 
L 118.245359 258.533154 
L 118.245359 257.973972 
L 119.151088 257.973972 
L 119.151088 257.41479 
L 119.586677 257.41479 
L 119.586677 256.855608 
L 120.426105 256.855608 
L 120.426105 256.296425 
L 124.749936 256.296425 
L 124.749936 255.737243 
L 125.375637 255.737243 
L 125.375637 255.178061 
L 125.979378 255.178061 
L 125.979378 254.618879 
L 126.273486 254.618879 
L 126.273486 251.822967 
L 126.56265 251.822967 
L 126.56265 249.586238 
L 127.402078 249.586238 
L 127.402078 246.231145 
L 128.202449 246.231145 
L 128.202449 245.112781 
L 128.967235 245.112781 
L 128.967235 243.994416 
L 129.699468 243.994416 
L 129.699468 242.876052 
L 129.93678 242.876052 
L 129.93678 240.08014 
L 130.170864 240.08014 
L 130.170864 239.520958 
L 130.401805 239.520958 
L 130.401805 238.961776 
L 130.629687 238.961776 
L 130.629687 238.402594 
L 131.076592 238.402594 
L 131.076592 237.843411 
L 131.512181 237.843411 
L 131.512181 233.369954 
L 131.725909 233.369954 
L 131.725909 232.810771 
L 131.937015 232.810771 
L 131.937015 232.251589 
L 132.145561 232.251589 
L 132.145561 226.659767 
L 132.955351 226.659767 
L 132.955351 226.100584 
L 133.15198 226.100584 
L 133.15198 221.627126 
L 133.346388 221.627126 
L 133.346388 219.390397 
L 133.538623 219.390397 
L 133.538623 218.831215 
L 133.916767 218.831215 
L 133.916767 218.272033 
L 134.559157 218.272033 
L 134.648999 214.91694 
L 135.003752 214.91694 
L 135.003752 214.357757 
L 135.351336 214.357757 
L 135.351336 213.798575 
L 135.607493 213.798575 
L 135.692038 209.325117 
L 136.026124 209.325117 
L 136.026124 207.088388 
L 136.675441 207.088388 
L 136.675441 205.970024 
L 136.834012 205.970024 
L 136.834012 204.851659 
L 136.991135 204.851659 
L 136.991135 203.174112 
L 137.146836 203.174112 
L 137.146836 202.61493 
L 137.60566 202.61493 
L 137.60566 201.496566 
L 138.052565 201.496566 
L 138.125933 200.378201 
L 138.19899 200.378201 
L 138.19899 199.819019 
L 138.34418 199.819019 
L 138.34418 199.259837 
L 138.488154 199.259837 
L 138.488154 192.54965 
L 138.630934 192.54965 
L 138.630934 191.431285 
L 138.772539 191.431285 
L 138.772539 190.312921 
L 139.327583 190.312921 
L 139.395721 184.161916 
L 139.732422 184.161916 
L 139.798978 183.043552 
L 139.865278 183.043552 
L 139.865278 182.48437 
L 140.257802 182.48437 
L 140.257802 181.925187 
L 140.386678 181.925187 
L 140.386678 179.688458 
L 140.641569 179.688458 
L 140.704707 178.010912 
L 140.83029 178.010912 
L 140.83029 177.451729 
L 141.140296 177.451729 
L 141.140296 176.333365 
L 141.323654 176.333365 
L 141.323654 175.774183 
L 141.444815 175.774183 
L 141.505077 174.096636 
L 141.744038 174.096636 
L 141.744038 173.537454 
L 141.862285 173.537454 
L 141.921105 171.859907 
L 142.096368 171.859907 
L 142.096368 170.741543 
L 142.269864 170.741543 
L 142.269864 170.18236 
L 142.498503 170.18236 
L 142.555192 169.063996 
L 142.611694 169.063996 
L 142.668011 167.386449 
L 142.835865 167.386449 
L 142.946864 165.14972 
L 143.002096 165.14972 
L 143.112032 163.472173 
L 143.275629 163.472173 
L 143.383837 161.794627 
L 143.704433 161.794627 
L 143.809985 160.11708 
L 143.862519 160.11708 
L 143.967108 158.998715 
L 144.019165 158.998715 
L 144.071065 157.321169 
L 144.225833 157.321169 
L 144.225833 156.761987 
L 144.531253 156.761987 
L 144.581633 155.643622 
L 144.731895 155.643622 
L 144.731895 155.08444 
L 144.979451 155.08444 
L 144.979451 153.966075 
L 145.174963 153.966075 
L 145.271892 150.610982 
L 145.320153 150.610982 
L 145.320153 150.0518 
L 145.511852 150.0518 
L 145.606907 148.933435 
L 145.70144 148.933435 
L 145.795455 145.019159 
L 145.842271 145.019159 
L 145.842271 144.459977 
L 145.98196 144.459977 
L 146.074459 143.341613 
L 146.120523 143.341613 
L 146.166464 142.223248 
L 146.25798 142.223248 
L 146.349011 141.104884 
L 146.394347 141.104884 
L 146.394347 140.545702 
L 146.66388 140.545702 
L 146.708395 138.868155 
L 147.016813 138.868155 
L 147.060425 137.74979 
L 147.147318 137.74979 
L 147.233775 135.513061 
L 147.405396 135.513061 
L 147.490569 133.276332 
L 147.743586 133.276332 
L 147.743586 132.71715 
L 147.951628 132.71715 
L 147.992936 131.039603 
L 148.157184 131.039603 
L 148.157184 130.480421 
L 148.360314 130.480421 
L 148.440899 128.802874 
L 148.759517 128.802874 
L 148.759517 127.68451 
L 148.877493 127.68451 
L 148.955697 125.447781 
L 149.033548 125.447781 
L 149.072341 124.329417 
L 149.226646 124.329417 
L 149.303282 123.211052 
L 149.493393 123.211052 
L 149.568853 122.092688 
L 149.643984 122.092688 
L 149.643984 121.533505 
L 149.830387 121.533505 
L 149.941267 119.855959 
L 150.014793 119.855959 
L 150.051438 117.61923 
L 150.160907 117.61923 
L 150.160907 117.060047 
L 150.341822 117.060047 
L 150.341822 115.941683 
L 150.485197 115.941683 
L 150.485197 115.382501 
L 150.698043 115.382501 
L 150.733263 114.264136 
L 150.838492 114.264136 
L 150.908289 113.145772 
L 150.977803 113.145772 
L 150.977803 112.586589 
L 151.115996 112.586589 
L 151.115996 112.027407 
L 151.355193 112.027407 
L 151.456697 110.909043 
L 151.490399 110.909043 
L 151.591111 108.672314 
L 151.624551 108.672314 
L 151.624551 108.113132 
L 151.757665 108.113132 
L 151.790783 106.994767 
L 151.922622 106.994767 
L 152.020842 105.876403 
L 152.40821 105.876403 
L 152.471932 104.198856 
L 152.630211 104.198856 
L 152.630211 103.639674 
L 152.911496 103.639674 
L 152.911496 103.080491 
L 153.065801 103.080491 
L 153.096496 100.843762 
L 153.309845 100.843762 
L 153.400477 99.725398 
L 153.460634 99.725398 
L 153.490634 98.607033 
L 153.639853 98.607033 
L 153.639853 98.047851 
L 153.817224 98.047851 
L 153.905229 96.370304 
L 153.934464 96.370304 
L 153.934464 95.25194 
L 154.05091 95.25194 
L 154.108839 92.456029 
L 154.166574 92.456029 
L 154.252814 91.337664 
L 154.281465 91.337664 
L 154.281465 90.778482 
L 154.395594 90.778482 
L 154.395594 89.660118 
L 154.677647 89.660118 
L 154.761369 88.541753 
L 154.789186 88.541753 
L 154.816958 87.423389 
L 155.146774 87.423389 
L 155.173975 86.305024 
L 155.282353 86.305024 
L 155.282353 85.745842 
L 155.44365 85.745842 
L 155.44365 85.18666 
L 155.603448 85.18666 
L 155.709162 84.068295 
L 155.761776 84.068295 
L 155.788023 82.390748 
L 155.892613 82.390748 
L 155.892613 80.713202 
L 156.022461 80.713202 
L 156.074128 79.594837 
L 156.151337 79.594837 
L 156.151337 79.035655 
L 156.279255 79.035655 
L 156.279255 78.476473 
L 156.456757 78.476473 
L 156.532272 77.358108 
L 156.682316 77.358108 
L 156.781623 75.680562 
L 156.80636 75.680562 
L 156.80636 75.121379 
L 157.027411 75.121379 
L 157.051797 74.003015 
L 157.197397 74.003015 
L 157.221544 72.88465 
L 157.317795 72.88465 
L 157.365719 70.647921 
L 157.556093 70.647921 
L 157.650496 68.970375 
L 157.674016 68.970375 
L 157.744384 67.292828 
L 157.861027 67.292828 
L 157.861027 66.733646 
L 157.999964 66.733646 
L 158.046028 65.615281 
L 158.137787 65.615281 
L 158.22906 64.496917 
L 158.365067 64.496917 
L 158.387631 63.378552 
L 158.544754 63.378552 
L 158.567084 62.260188 
L 158.766756 62.260188 
L 158.85476 60.582641 
L 158.898594 60.582641 
L 158.898594 60.023459 
L 159.159279 60.023459 
L 159.180826 58.905094 
L 159.309541 58.905094 
L 159.416073 56.668365 
L 159.437301 56.668365 
L 159.543047 55.550001 
L 159.690008 55.550001 
L 159.731768 53.313272 
L 160.000761 53.313272 
L 160.10311 52.194907 
L 160.285818 52.194907 
L 160.306 51.076543 
L 160.645515 51.076543 
L 160.645515 50.517361 
L 160.959052 50.517361 
L 160.997845 48.839814 
L 161.209659 48.839814 
L 161.266977 47.72145 
L 161.418898 47.72145 
L 161.418898 47.162267 
L 161.531964 47.162267 
L 161.531964 46.603085 
L 161.958629 46.603085 
L 161.958629 46.043903 
L 162.231295 46.043903 
L 162.231295 45.484721 
L 162.392845 45.484721 
L 162.392845 44.925538 
L 163.178591 44.925538 
L 163.263722 43.247992 
L 163.930015 43.247992 
L 164.011516 42.129627 
L 164.301765 42.129627 
L 164.301765 41.570445 
L 164.696933 41.570445 
L 164.696933 41.011263 
L 164.975937 41.011263 
L 164.975937 40.45208 
L 165.129006 40.45208 
L 165.23535 39.333716 
L 165.280725 39.333716 
L 165.325981 38.215351 
L 165.520727 38.215351 
L 165.520727 37.656169 
L 165.713293 37.656169 
L 165.713293 37.096987 
L 165.859968 37.096987 
L 165.947377 35.978622 
L 166.048795 35.978622 
L 166.048795 35.41944 
L 166.221277 35.41944 
L 166.278388 33.741894 
L 166.434475 33.741894 
L 166.51902 32.623529 
L 166.728582 32.623529 
L 166.784037 31.505165 
L 166.880655 31.505165 
L 166.963041 29.827618 
L 167.315556 29.827618 
L 167.315556 29.268436 
L 167.621488 29.268436 
L 167.634667 28.150071 
L 167.960897 28.150071 
L 167.960897 27.590889 
L 168.217499 27.590889 
L 168.217499 27.031707 
L 168.40747 27.031707 
L 168.495411 25.35416 
L 168.91627 25.35416 
L 168.91627 24.794978 
L 169.110815 24.794978 
L 169.110815 24.235795 
L 169.339015 24.235795 
L 169.339015 23.676613 
L 169.774903 23.676613 
L 169.879281 22.558249 
L 169.994518 22.558249 
L 169.994518 21.439884 
L 170.245355 21.439884 
L 170.33567 20.32152 
L 170.459083 20.32152 
L 170.503742 18.643973 
L 170.648088 18.643973 
L 170.648088 18.084791 
L 170.900541 18.084791 
L 170.900541 17.525609 
L 171.309687 17.525609 
L 171.309687 16.966426 
L 171.792294 16.966426 
L 171.792294 16.407244 
L 172.170888 16.407244 
L 172.170888 15.848062 
L 172.441995 15.848062 
L 172.551232 14.729697 
L 174.398558 14.729697 
L 174.398558 14.170515 
L 174.540236 14.170515 
L 174.540236 13.611333 
L 174.846147 13.611333 
L 174.846147 13.052151 
L 175.307706 13.052151 
L 175.307706 12.492968 
L 180.104756 12.492968 
L 180.181166 11.374604 
L 180.514641 11.374604 
L 180.514641 10.815422 
L 183.176572 10.815422 
L 183.176572 10.256239 
L 183.918366 10.256239 
L 183.918366 9.697057 
L 333.429677 9.697057 
L 333.429677 9.697057 
" style="fill:none;stroke:#ffa500;stroke-linecap:square;stroke-width:1.5;"/>
   </g>
   <g id="line2d_35">
    <defs>
     <path d="M 0 -6 
L -1.347084 -1.854102 
L -5.706339 -1.854102 
L -2.179628 0.708204 
L -3.526712 4.854102 
L -0 2.291796 
L 3.526712 4.854102 
L 2.179628 0.708204 
L 5.706339 -1.854102 
L 1.347084 -1.854102 
z
" id="maed0f50c81" style="stroke:#ffa500;stroke-linejoin:bevel;stroke-width:1.5;"/>
    </defs>
    <g>
     <use style="fill-opacity:0;stroke:#ffa500;stroke-linejoin:bevel;stroke-width:1.5;" x="127.402078" xlink:href="#maed0f50c81" y="249.586238"/>
     <use style="fill-opacity:0;stroke:#ffa500;stroke-linejoin:bevel;stroke-width:1.5;" x="163.930015" xlink:href="#maed0f50c81" y="43.247992"/>
     <use style="fill-opacity:0;stroke:#ffa500;stroke-linejoin:bevel;stroke-width:1.5;" x="183.918366" xlink:href="#maed0f50c81" y="10.256239"/>
     <use style="fill-opacity:0;stroke:#ffa500;stroke-linejoin:bevel;stroke-width:1.5;" x="183.918366" xlink:href="#maed0f50c81" y="9.697057"/>
     <use style="fill-opacity:0;stroke:#ffa500;stroke-linejoin:bevel;stroke-width:1.5;" x="333.429677" xlink:href="#maed0f50c81" y="9.697057"/>
    </g>
   </g>
   <g id="line2d_36">
    <path style="fill:none;stroke:#ffa500;stroke-linecap:square;stroke-width:1.5;"/>
    <g/>
   </g>
   <g id="line2d_37">
    <path clip-path="url(#p8e294b4455)" d="M 129.93678 240.08014 
" style="fill:none;stroke:#ffa500;stroke-linecap:square;stroke-width:1.5;"/>
    <defs>
     <path d="M -12 12 
L 12 -12 
M -12 -12 
L 12 12 
" id="m2e4a46fdd8" style="stroke:#ffa500;stroke-width:3;"/>
    </defs>
    <g clip-path="url(#p8e294b4455)">
     <use style="fill:#ffa500;stroke:#ffa500;stroke-width:3;" x="129.93678" xlink:href="#m2e4a46fdd8" y="240.08014"/>
    </g>
   </g>
   <g id="line2d_38">
    <defs>
     <path d="M 0 1.5 
C 0.397805 1.5 0.77937 1.341951 1.06066 1.06066 
C 1.341951 0.77937 1.5 0.397805 1.5 0 
C 1.5 -0.397805 1.341951 -0.77937 1.06066 -1.06066 
C 0.77937 -1.341951 0.397805 -1.5 0 -1.5 
C -0.397805 -1.5 -0.77937 -1.341951 -1.06066 -1.06066 
C -1.341951 -0.77937 -1.5 -0.397805 -1.5 0 
C -1.5 0.397805 -1.341951 0.77937 -1.06066 1.06066 
C -0.77937 1.341951 -0.397805 1.5 0 1.5 
z
" id="m48fc32e64b" style="stroke:#6495ed;"/>
    </defs>
    <g>
     <use style="fill:#6495ed;stroke:#6495ed;" x="189.615781" xlink:href="#m48fc32e64b" y="255.737243"/>
     <use style="fill:#6495ed;stroke:#6495ed;" x="189.615781" xlink:href="#m48fc32e64b" y="255.737243"/>
    </g>
   </g>
   <g id="line2d_39">
    <path d="M 56.12 294.88 
L 56.12 278.663715 
L 86.946982 278.663715 
L 86.946982 278.104533 
L 93.922955 278.104533 
L 93.922955 277.545351 
L 98.872486 277.545351 
L 98.872486 276.986168 
L 101.524628 276.986168 
L 101.524628 276.426986 
L 102.711641 276.426986 
L 102.711641 275.308622 
L 117.041731 275.308622 
L 117.041731 274.749439 
L 120.01151 274.749439 
L 120.01151 272.51271 
L 124.428341 272.51271 
L 124.428341 271.953528 
L 125.979378 271.953528 
L 125.979378 271.394346 
L 131.076592 271.394346 
L 131.076592 270.835164 
L 136.026124 270.835164 
L 136.026124 270.275981 
L 136.190765 270.275981 
L 136.190765 269.716799 
L 138.488154 269.716799 
L 138.488154 269.157617 
L 138.630934 269.157617 
L 138.630934 268.598435 
L 145.271892 268.598435 
L 145.271892 268.039252 
L 145.70144 268.039252 
L 145.70144 267.48007 
L 145.795455 267.48007 
L 145.795455 266.920888 
L 145.935523 266.920888 
L 145.935523 266.361706 
L 146.212283 266.361706 
L 146.212283 265.802523 
L 146.349011 265.802523 
L 146.349011 265.243341 
L 147.868713 265.243341 
L 147.868713 264.684159 
L 148.955697 264.684159 
L 148.955697 264.124977 
L 149.867427 264.124977 
L 149.867427 263.565795 
L 151.422929 263.565795 
L 151.422929 263.006612 
L 155.918661 263.006612 
L 155.918661 262.44743 
L 158.069014 262.44743 
L 158.069014 261.888248 
L 159.352233 261.888248 
L 159.352233 261.329066 
L 159.835725 261.329066 
L 159.835725 260.769883 
L 159.856441 260.769883 
L 159.856441 260.210701 
L 165.505825 260.210701 
L 165.505825 259.651519 
L 167.422585 259.651519 
L 167.422585 259.092337 
L 168.051144 259.092337 
L 168.051144 258.533154 
L 170.987489 258.533154 
L 170.987489 257.973972 
L 171.977516 257.973972 
L 171.977516 257.41479 
L 178.888545 257.41479 
L 178.888545 256.855608 
L 188.292117 256.855608 
L 188.292117 256.296425 
L 189.615781 256.296425 
L 189.615781 255.737243 
L 333.429677 255.737243 
" style="fill:none;stroke:#6495ed;stroke-linecap:square;stroke-width:1.5;"/>
   </g>
   <g id="line2d_40">
    <defs>
     <path d="M -0 6 
L 6 -6 
L -6 -6 
z
" id="m070f272839" style="stroke:#6495ed;stroke-linejoin:miter;stroke-width:1.5;"/>
    </defs>
    <g>
     <use style="fill-opacity:0;stroke:#6495ed;stroke-linejoin:miter;stroke-width:1.5;" x="86.946982" xlink:href="#m070f272839" y="278.104533"/>
     <use style="fill-opacity:0;stroke:#6495ed;stroke-linejoin:miter;stroke-width:1.5;" x="178.888545" xlink:href="#m070f272839" y="257.41479"/>
     <use style="fill-opacity:0;stroke:#6495ed;stroke-linejoin:miter;stroke-width:1.5;" x="189.615781" xlink:href="#m070f272839" y="255.737243"/>
     <use style="fill-opacity:0;stroke:#6495ed;stroke-linejoin:miter;stroke-width:1.5;" x="189.615781" xlink:href="#m070f272839" y="255.737243"/>
     <use style="fill-opacity:0;stroke:#6495ed;stroke-linejoin:miter;stroke-width:1.5;" x="333.429677" xlink:href="#m070f272839" y="255.737243"/>
    </g>
   </g>
   <g id="line2d_41">
    <path style="fill:none;stroke:#6495ed;stroke-linecap:square;stroke-width:1.5;"/>
    <g/>
   </g>
   <g id="line2d_42">
    <path clip-path="url(#p8e294b4455)" d="M 123.078247 272.51271 
" style="fill:none;stroke:#6495ed;stroke-linecap:square;stroke-width:1.5;"/>
    <defs>
     <path d="M -12 12 
L 12 -12 
M -12 -12 
L 12 12 
" id="mc0939f4dd0" style="stroke:#6495ed;stroke-width:3;"/>
    </defs>
    <g clip-path="url(#p8e294b4455)">
     <use style="fill:#6495ed;stroke:#6495ed;stroke-width:3;" x="123.078247" xlink:href="#mc0939f4dd0" y="272.51271"/>
    </g>
   </g>
   <g id="line2d_43">
    <defs>
     <path d="M 0 1.5 
C 0.397805 1.5 0.77937 1.341951 1.06066 1.06066 
C 1.341951 0.77937 1.5 0.397805 1.5 0 
C 1.5 -0.397805 1.341951 -0.77937 1.06066 -1.06066 
C 0.77937 -1.341951 0.397805 -1.5 0 -1.5 
C -0.397805 -1.5 -0.77937 -1.341951 -1.06066 -1.06066 
C -1.341951 -0.77937 -1.5 -0.397805 -1.5 0 
C -1.5 0.397805 -1.341951 0.77937 -1.06066 1.06066 
C -0.77937 1.341951 -0.397805 1.5 0 1.5 
z
" id="m6fd95a7c44" style="stroke:#ff0000;"/>
    </defs>
    <g>
     <use style="fill:#ff0000;stroke:#ff0000;" x="177.800072" xlink:href="#m6fd95a7c44" y="261.329066"/>
     <use style="fill:#ff0000;stroke:#ff0000;" x="177.800072" xlink:href="#m6fd95a7c44" y="261.329066"/>
    </g>
   </g>
   <g id="line2d_44">
    <path d="M 56.12 294.88 
L 56.12 278.104533 
L 86.946982 278.104533 
L 86.946982 277.545351 
L 97.375467 277.545351 
L 97.375467 276.986168 
L 98.872486 276.986168 
L 98.872486 276.426986 
L 101.524628 276.426986 
L 101.524628 275.867804 
L 104.865056 275.867804 
L 104.865056 274.749439 
L 105.848459 274.749439 
L 105.848459 274.190257 
L 106.778678 274.190257 
L 106.778678 273.631075 
L 115.20129 273.631075 
L 115.20129 272.51271 
L 117.289287 272.51271 
L 117.289287 271.394346 
L 123.078247 271.394346 
L 123.078247 270.275981 
L 124.100619 270.275981 
L 124.100619 268.598435 
L 127.126794 268.598435 
L 127.126794 266.920888 
L 131.076592 266.920888 
L 131.076592 266.361706 
L 138.912987 266.361706 
L 138.912987 265.802523 
L 143.967108 265.802523 
L 143.967108 265.243341 
L 147.743586 265.243341 
L 147.743586 264.684159 
L 147.91022 264.684159 
L 147.91022 264.124977 
L 151.012456 264.124977 
L 151.012456 263.565795 
L 156.481966 263.565795 
L 156.481966 263.006612 
L 165.083228 263.006612 
L 165.083228 262.44743 
L 176.528421 262.44743 
L 176.528421 261.888248 
L 177.800072 261.888248 
L 177.800072 261.329066 
L 333.429677 261.329066 
" style="fill:none;stroke:#ff0000;stroke-linecap:square;stroke-width:1.5;"/>
   </g>
   <g id="line2d_45">
    <defs>
     <path d="M 0 -6 
L -5.196152 -3 
L -5.196152 3 
L -0 6 
L 5.196152 3 
L 5.196152 -3 
z
" id="m1c384a926c" style="stroke:#ff0000;stroke-linejoin:miter;stroke-width:1.5;"/>
    </defs>
    <g>
     <use style="fill-opacity:0;stroke:#ff0000;stroke-linejoin:miter;stroke-width:1.5;" x="106.778678" xlink:href="#m1c384a926c" y="274.190257"/>
     <use style="fill-opacity:0;stroke:#ff0000;stroke-linejoin:miter;stroke-width:1.5;" x="177.800072" xlink:href="#m1c384a926c" y="261.888248"/>
     <use style="fill-opacity:0;stroke:#ff0000;stroke-linejoin:miter;stroke-width:1.5;" x="177.800072" xlink:href="#m1c384a926c" y="261.329066"/>
     <use style="fill-opacity:0;stroke:#ff0000;stroke-linejoin:miter;stroke-width:1.5;" x="177.800072" xlink:href="#m1c384a926c" y="261.329066"/>
     <use style="fill-opacity:0;stroke:#ff0000;stroke-linejoin:miter;stroke-width:1.5;" x="333.429677" xlink:href="#m1c384a926c" y="261.329066"/>
    </g>
   </g>
   <g id="line2d_46">
    <path style="fill:none;stroke:#ff0000;stroke-linecap:square;stroke-width:1.5;"/>
    <g/>
   </g>
   <g id="line2d_47">
    <path clip-path="url(#p8e294b4455)" d="M 121.613118 271.394346 
" style="fill:none;stroke:#ff0000;stroke-linecap:square;stroke-width:1.5;"/>
    <defs>
     <path d="M -12 12 
L 12 -12 
M -12 -12 
L 12 12 
" id="m0753ad7d11" style="stroke:#ff0000;stroke-width:3;"/>
    </defs>
    <g clip-path="url(#p8e294b4455)">
     <use style="fill:#ff0000;stroke:#ff0000;stroke-width:3;" x="121.613118" xlink:href="#m0753ad7d11" y="271.394346"/>
    </g>
   </g>
   <g id="line2d_48">
    <path d="M 333.429677 261.329066 
L 363.933742 289.176341 
" style="fill:none;stroke:#ff0000;stroke-linecap:square;stroke-width:1.5;"/>
    <g>
     <use style="fill-opacity:0;stroke:#ff0000;stroke-linejoin:miter;stroke-width:1.5;" x="333.429677" xlink:href="#m1c384a926c" y="261.329066"/>
     <use style="fill-opacity:0;stroke:#ff0000;stroke-linejoin:miter;stroke-width:1.5;" x="363.933742" xlink:href="#m1c384a926c" y="289.176341"/>
    </g>
   </g>
   <g id="line2d_49">
    <path d="M 333.429677 255.737243 
L 363.933742 220.732435 
" style="fill:none;stroke:#6495ed;stroke-linecap:square;stroke-width:1.5;"/>
    <g>
     <use style="fill-opacity:0;stroke:#6495ed;stroke-linejoin:miter;stroke-width:1.5;" x="333.429677" xlink:href="#m070f272839" y="255.737243"/>
     <use style="fill-opacity:0;stroke:#6495ed;stroke-linejoin:miter;stroke-width:1.5;" x="363.933742" xlink:href="#m070f272839" y="220.732435"/>
    </g>
   </g>
   <g id="line2d_50">
    <path d="M 333.429677 244.553598 
L 363.933742 152.288529 
" style="fill:none;stroke:#000080;stroke-linecap:square;stroke-width:1.5;"/>
    <g>
     <use style="fill-opacity:0;stroke:#000080;stroke-width:1.5;" x="333.429677" xlink:href="#mcfdad4b99f" y="244.553598"/>
     <use style="fill-opacity:0;stroke:#000080;stroke-width:1.5;" x="363.933742" xlink:href="#mcfdad4b99f" y="152.288529"/>
    </g>
   </g>
   <g id="line2d_51">
    <path d="M 333.429677 9.697057 
L 363.933742 83.844622 
" style="fill:none;stroke:#ffa500;stroke-linecap:square;stroke-width:1.5;"/>
    <g>
     <use style="fill-opacity:0;stroke:#ffa500;stroke-linejoin:bevel;stroke-width:1.5;" x="333.429677" xlink:href="#maed0f50c81" y="9.697057"/>
     <use style="fill-opacity:0;stroke:#ffa500;stroke-linejoin:bevel;stroke-width:1.5;" x="363.933742" xlink:href="#maed0f50c81" y="83.844622"/>
    </g>
   </g>
   <g id="line2d_52">
    <path d="M 333.429677 9.697057 
L 363.933742 15.400716 
" style="fill:none;stroke:#ff00ff;stroke-linecap:square;stroke-width:1.5;"/>
    <g>
     <use style="fill-opacity:0;stroke:#ff00ff;stroke-linejoin:miter;stroke-width:1.5;" x="333.429677" xlink:href="#m2099580551" y="9.697057"/>
     <use style="fill-opacity:0;stroke:#ff00ff;stroke-linejoin:miter;stroke-width:1.5;" x="363.933742" xlink:href="#m2099580551" y="15.400716"/>
    </g>
   </g>
   <g id="line2d_53">
    <path d="M 333.429677 294.88 
L 333.429677 9.697057 
" style="fill:none;stroke:#000000;stroke-linecap:square;stroke-width:1.5;"/>
   </g>
   <g id="patch_3">
    <path d="M 56.12 294.88 
L 56.12 6.845228 
" style="fill:none;stroke:#000000;stroke-linecap:square;stroke-linejoin:miter;stroke-width:0.8;"/>
   </g>
   <g id="patch_4">
    <path d="M 399.984 294.88 
L 399.984 6.845228 
" style="fill:none;stroke:#000000;stroke-linecap:square;stroke-linejoin:miter;stroke-width:0.8;"/>
   </g>
   <g id="patch_5">
    <path d="M 56.12 294.88 
L 399.984 294.88 
" style="fill:none;stroke:#000000;stroke-linecap:square;stroke-linejoin:miter;stroke-width:0.8;"/>
   </g>
   <g id="patch_6">
    <path d="M 56.12 6.845228 
L 399.984 6.845228 
" style="fill:none;stroke:#000000;stroke-linecap:square;stroke-linejoin:miter;stroke-width:0.8;"/>
   </g>
   <g id="text_14">
    <!-- f24 -->
    <g transform="translate(369.479935 293.867279)scale(0.17 -0.17)">
     <use xlink:href="#DejaVuSans-66"/>
     <use x="35.205078" xlink:href="#DejaVuSans-32"/>
     <use x="98.828125" xlink:href="#DejaVuSans-34"/>
    </g>
   </g>
   <g id="text_15">
    <!-- f23 -->
    <defs>
     <path d="M 40.578125 39.3125 
Q 47.65625 37.796875 51.625 33 
Q 55.609375 28.21875 55.609375 21.1875 
Q 55.609375 10.40625 48.1875 4.484375 
Q 40.765625 -1.421875 27.09375 -1.421875 
Q 22.515625 -1.421875 17.65625 -0.515625 
Q 12.796875 0.390625 7.625 2.203125 
L 7.625 11.71875 
Q 11.71875 9.328125 16.59375 8.109375 
Q 21.484375 6.890625 26.8125 6.890625 
Q 36.078125 6.890625 40.9375 10.546875 
Q 45.796875 14.203125 45.796875 21.1875 
Q 45.796875 27.640625 41.28125 31.265625 
Q 36.765625 34.90625 28.71875 34.90625 
L 20.21875 34.90625 
L 20.21875 43.015625 
L 29.109375 43.015625 
Q 36.375 43.015625 40.234375 45.921875 
Q 44.09375 48.828125 44.09375 54.296875 
Q 44.09375 59.90625 40.109375 62.90625 
Q 36.140625 65.921875 28.71875 65.921875 
Q 24.65625 65.921875 20.015625 65.03125 
Q 15.375 64.15625 9.8125 62.3125 
L 9.8125 71.09375 
Q 15.4375 72.65625 20.34375 73.4375 
Q 25.25 74.21875 29.59375 74.21875 
Q 40.828125 74.21875 47.359375 69.109375 
Q 53.90625 64.015625 53.90625 55.328125 
Q 53.90625 49.265625 50.4375 45.09375 
Q 46.96875 40.921875 40.578125 39.3125 
z
" id="DejaVuSans-33"/>
    </defs>
    <g transform="translate(369.479935 225.423372)scale(0.17 -0.17)">
     <use xlink:href="#DejaVuSans-66"/>
     <use x="35.205078" xlink:href="#DejaVuSans-32"/>
     <use x="98.828125" xlink:href="#DejaVuSans-33"/>
    </g>
   </g>
   <g id="text_16">
    <!-- f20 -->
    <g transform="translate(369.479935 156.979466)scale(0.17 -0.17)">
     <use xlink:href="#DejaVuSans-66"/>
     <use x="35.205078" xlink:href="#DejaVuSans-32"/>
     <use x="98.828125" xlink:href="#DejaVuSans-30"/>
    </g>
   </g>
   <g id="text_17">
    <!-- f22 -->
    <g transform="translate(369.479935 88.53556)scale(0.17 -0.17)">
     <use xlink:href="#DejaVuSans-66"/>
     <use x="35.205078" xlink:href="#DejaVuSans-32"/>
     <use x="98.828125" xlink:href="#DejaVuSans-32"/>
    </g>
   </g>
   <g id="text_18">
    <!-- f21 -->
    <g transform="translate(369.479935 20.091654)scale(0.17 -0.17)">
     <use xlink:href="#DejaVuSans-66"/>
     <use x="35.205078" xlink:href="#DejaVuSans-32"/>
     <use x="98.828125" xlink:href="#DejaVuSans-31"/>
    </g>
   </g>
   <g id="text_19">
    <!-- bbob -->
    <defs>
     <path d="M 48.6875 27.296875 
Q 48.6875 37.203125 44.609375 42.84375 
Q 40.53125 48.484375 33.40625 48.484375 
Q 26.265625 48.484375 22.1875 42.84375 
Q 18.109375 37.203125 18.109375 27.296875 
Q 18.109375 17.390625 22.1875 11.75 
Q 26.265625 6.109375 33.40625 6.109375 
Q 40.53125 6.109375 44.609375 11.75 
Q 48.6875 17.390625 48.6875 27.296875 
z
M 18.109375 46.390625 
Q 20.953125 51.265625 25.265625 53.625 
Q 29.59375 56 35.59375 56 
Q 45.5625 56 51.78125 48.09375 
Q 58.015625 40.1875 58.015625 27.296875 
Q 58.015625 14.40625 51.78125 6.484375 
Q 45.5625 -1.421875 35.59375 -1.421875 
Q 29.59375 -1.421875 25.265625 0.953125 
Q 20.953125 3.328125 18.109375 8.203125 
L 18.109375 0 
L 9.078125 0 
L 9.078125 75.984375 
L 18.109375 75.984375 
z
" id="DejaVuSans-62"/>
    </defs>
    <g transform="translate(59.55864 17.475982)scale(0.102 -0.102)">
     <use xlink:href="#DejaVuSans-62"/>
     <use x="63.476562" xlink:href="#DejaVuSans-62"/>
     <use x="126.953125" xlink:href="#DejaVuSans-6f"/>
     <use x="188.134766" xlink:href="#DejaVuSans-62"/>
    </g>
    <!-- Weak structure functions, 2-D -->
    <defs>
     <path d="M 3.328125 72.90625 
L 13.28125 72.90625 
L 28.609375 11.28125 
L 43.890625 72.90625 
L 54.984375 72.90625 
L 70.3125 11.28125 
L 85.59375 72.90625 
L 95.609375 72.90625 
L 77.296875 0 
L 64.890625 0 
L 49.515625 63.28125 
L 33.984375 0 
L 21.578125 0 
z
" id="DejaVuSans-57"/>
     <path d="M 9.078125 75.984375 
L 18.109375 75.984375 
L 18.109375 31.109375 
L 44.921875 54.6875 
L 56.390625 54.6875 
L 27.390625 29.109375 
L 57.625 0 
L 45.90625 0 
L 18.109375 26.703125 
L 18.109375 0 
L 9.078125 0 
z
" id="DejaVuSans-6b"/>
     <path d="M 19.671875 64.796875 
L 19.671875 8.109375 
L 31.59375 8.109375 
Q 46.6875 8.109375 53.6875 14.9375 
Q 60.6875 21.78125 60.6875 36.53125 
Q 60.6875 51.171875 53.6875 57.984375 
Q 46.6875 64.796875 31.59375 64.796875 
z
M 9.8125 72.90625 
L 30.078125 72.90625 
Q 51.265625 72.90625 61.171875 64.09375 
Q 71.09375 55.28125 71.09375 36.53125 
Q 71.09375 17.671875 61.125 8.828125 
Q 51.171875 0 30.078125 0 
L 9.8125 0 
z
" id="DejaVuSans-44"/>
    </defs>
    <g transform="translate(59.55864 28.89775)scale(0.102 -0.102)">
     <use xlink:href="#DejaVuSans-57"/>
     <use x="98.798828" xlink:href="#DejaVuSans-65"/>
     <use x="160.322266" xlink:href="#DejaVuSans-61"/>
     <use x="221.601562" xlink:href="#DejaVuSans-6b"/>
     <use x="279.511719" xlink:href="#DejaVuSans-20"/>
     <use x="311.298828" xlink:href="#DejaVuSans-73"/>
     <use x="363.398438" xlink:href="#DejaVuSans-74"/>
     <use x="402.607422" xlink:href="#DejaVuSans-72"/>
     <use x="443.720703" xlink:href="#DejaVuSans-75"/>
     <use x="507.099609" xlink:href="#DejaVuSans-63"/>
     <use x="562.080078" xlink:href="#DejaVuSans-74"/>
     <use x="601.289062" xlink:href="#DejaVuSans-75"/>
     <use x="664.667969" xlink:href="#DejaVuSans-72"/>
     <use x="705.75" xlink:href="#DejaVuSans-65"/>
     <use x="767.273438" xlink:href="#DejaVuSans-20"/>
     <use x="799.060547" xlink:href="#DejaVuSans-66"/>
     <use x="834.265625" xlink:href="#DejaVuSans-75"/>
     <use x="897.644531" xlink:href="#DejaVuSans-6e"/>
     <use x="961.023438" xlink:href="#DejaVuSans-63"/>
     <use x="1016.003906" xlink:href="#DejaVuSans-74"/>
     <use x="1055.212891" xlink:href="#DejaVuSans-69"/>
     <use x="1082.996094" xlink:href="#DejaVuSans-6f"/>
     <use x="1144.177734" xlink:href="#DejaVuSans-6e"/>
     <use x="1207.556641" xlink:href="#DejaVuSans-73"/>
     <use x="1259.65625" xlink:href="#DejaVuSans-2c"/>
     <use x="1291.443359" xlink:href="#DejaVuSans-20"/>
     <use x="1323.230469" xlink:href="#DejaVuSans-32"/>
     <use x="1386.853516" xlink:href="#DejaVuSans-2d"/>
     <use x="1422.9375" xlink:href="#DejaVuSans-44"/>
    </g>
    <!-- 51 targets: 100..1e-08 -->
    <defs>
     <path d="M 10.796875 72.90625 
L 49.515625 72.90625 
L 49.515625 64.59375 
L 19.828125 64.59375 
L 19.828125 46.734375 
Q 21.96875 47.46875 24.109375 47.828125 
Q 26.265625 48.1875 28.421875 48.1875 
Q 40.625 48.1875 47.75 41.5 
Q 54.890625 34.8125 54.890625 23.390625 
Q 54.890625 11.625 47.5625 5.09375 
Q 40.234375 -1.421875 26.90625 -1.421875 
Q 22.3125 -1.421875 17.546875 -0.640625 
Q 12.796875 0.140625 7.71875 1.703125 
L 7.71875 11.625 
Q 12.109375 9.234375 16.796875 8.0625 
Q 21.484375 6.890625 26.703125 6.890625 
Q 35.15625 6.890625 40.078125 11.328125 
Q 45.015625 15.765625 45.015625 23.390625 
Q 45.015625 31 40.078125 35.4375 
Q 35.15625 39.890625 26.703125 39.890625 
Q 22.75 39.890625 18.8125 39.015625 
Q 14.890625 38.140625 10.796875 36.28125 
z
" id="DejaVuSans-35"/>
     <path d="M 11.71875 12.40625 
L 22.015625 12.40625 
L 22.015625 0 
L 11.71875 0 
z
M 11.71875 51.703125 
L 22.015625 51.703125 
L 22.015625 39.3125 
L 11.71875 39.3125 
z
" id="DejaVuSans-3a"/>
    </defs>
    <g transform="translate(59.55864 40.319519)scale(0.102 -0.102)">
     <use xlink:href="#DejaVuSans-35"/>
     <use x="63.623047" xlink:href="#DejaVuSans-31"/>
     <use x="127.246094" xlink:href="#DejaVuSans-20"/>
     <use x="159.033203" xlink:href="#DejaVuSans-74"/>
     <use x="198.242188" xlink:href="#DejaVuSans-61"/>
     <use x="259.521484" xlink:href="#DejaVuSans-72"/>
     <use x="300.619141" xlink:href="#DejaVuSans-67"/>
     <use x="364.095703" xlink:href="#DejaVuSans-65"/>
     <use x="425.619141" xlink:href="#DejaVuSans-74"/>
     <use x="464.828125" xlink:href="#DejaVuSans-73"/>
     <use x="516.927734" xlink:href="#DejaVuSans-3a"/>
     <use x="550.619141" xlink:href="#DejaVuSans-20"/>
     <use x="582.40625" xlink:href="#DejaVuSans-31"/>
     <use x="646.029297" xlink:href="#DejaVuSans-30"/>
     <use x="709.652344" xlink:href="#DejaVuSans-30"/>
     <use x="773.275391" xlink:href="#DejaVuSans-2e"/>
     <use x="805.0625" xlink:href="#DejaVuSans-2e"/>
     <use x="836.849609" xlink:href="#DejaVuSans-31"/>
     <use x="900.472656" xlink:href="#DejaVuSans-65"/>
     <use x="961.996094" xlink:href="#DejaVuSans-2d"/>
     <use x="998.080078" xlink:href="#DejaVuSans-30"/>
     <use x="1061.703125" xlink:href="#DejaVuSans-38"/>
    </g>
    <!-- 15 instances -->
    <g transform="translate(59.55864 51.741288)scale(0.102 -0.102)">
     <use xlink:href="#DejaVuSans-31"/>
     <use x="63.623047" xlink:href="#DejaVuSans-35"/>
     <use x="127.246094" xlink:href="#DejaVuSans-20"/>
     <use x="159.033203" xlink:href="#DejaVuSans-69"/>
     <use x="186.816406" xlink:href="#DejaVuSans-6e"/>
     <use x="250.195312" xlink:href="#DejaVuSans-73"/>
     <use x="302.294922" xlink:href="#DejaVuSans-74"/>
     <use x="341.503906" xlink:href="#DejaVuSans-61"/>
     <use x="402.783203" xlink:href="#DejaVuSans-6e"/>
     <use x="466.162109" xlink:href="#DejaVuSans-63"/>
     <use x="521.142578" xlink:href="#DejaVuSans-65"/>
     <use x="582.666016" xlink:href="#DejaVuSans-73"/>
    </g>
   </g>
   <g id="text_20">
    <!-- v2.2.1.10 -->
    <g style="fill:#808080;" transform="translate(204.419188 289.919965)scale(0.1 -0.1)">
     <use xlink:href="#DejaVuSans-76"/>
     <use x="59.179688" xlink:href="#DejaVuSans-32"/>
     <use x="122.802734" xlink:href="#DejaVuSans-2e"/>
     <use x="154.589844" xlink:href="#DejaVuSans-32"/>
     <use x="218.212891" xlink:href="#DejaVuSans-2e"/>
     <use x="250" xlink:href="#DejaVuSans-31"/>
     <use x="313.623047" xlink:href="#DejaVuSans-2e"/>
     <use x="345.410156" xlink:href="#DejaVuSans-31"/>
     <use x="409.033203" xlink:href="#DejaVuSans-30"/>
    </g>
   </g>
  </g>
 </g>
 <defs>
  <clipPath id="p8e294b4455">
   <rect height="288.034772" width="343.864" x="56.12" y="6.845228"/>
  </clipPath>
 </defs>
</svg>
