<?xml version="1.0" encoding="utf-8" standalone="no"?>
<!DOCTYPE svg PUBLIC "-//W3C//DTD SVG 1.1//EN"
  "http://www.w3.org/Graphics/SVG/1.1/DTD/svg11.dtd">
<!-- Created with matplotlib (http://matplotlib.org/) -->
<svg height="345.6pt" version="1.1" viewBox="0 0 460.8 345.6" width="460.8pt" xmlns="http://www.w3.org/2000/svg" xmlns:xlink="http://www.w3.org/1999/xlink">
 <defs>
  <style type="text/css">
*{stroke-linecap:butt;stroke-linejoin:round;}
  </style>
 </defs>
 <g id="figure_1">
  <g id="patch_1">
   <path d="M 0 345.6 
L 460.8 345.6 
L 460.8 0 
L 0 0 
z
" style="fill:#ffffff;"/>
  </g>
  <g id="axes_1">
   <g id="patch_2">
    <path d="M 56.12 294.88 
L 399.984 294.88 
L 399.984 24.84 
L 56.12 24.84 
z
" style="fill:#ffffff;"/>
   </g>
   <g id="matplotlib.axis_1">
    <g id="xtick_1">
     <g id="line2d_1">
      <path clip-path="url(#pcc99a475da)" d="M 56.12 294.88 
L 56.12 24.84 
" style="fill:none;stroke:#b0b0b0;stroke-linecap:square;stroke-width:0.8;"/>
     </g>
     <g id="line2d_2">
      <defs>
       <path d="M 0 0 
L 0 3.5 
" id="ma71e6f3377" style="stroke:#000000;stroke-width:0.8;"/>
      </defs>
      <g>
       <use style="stroke:#000000;stroke-width:0.8;" x="56.12" xlink:href="#ma71e6f3377" y="294.88"/>
      </g>
     </g>
     <g id="text_1">
      <!-- 0 -->
      <defs>
       <path d="M 31.78125 66.40625 
Q 24.171875 66.40625 20.328125 58.90625 
Q 16.5 51.421875 16.5 36.375 
Q 16.5 21.390625 20.328125 13.890625 
Q 24.171875 6.390625 31.78125 6.390625 
Q 39.453125 6.390625 43.28125 13.890625 
Q 47.125 21.390625 47.125 36.375 
Q 47.125 51.421875 43.28125 58.90625 
Q 39.453125 66.40625 31.78125 66.40625 
z
M 31.78125 74.21875 
Q 44.046875 74.21875 50.515625 64.515625 
Q 56.984375 54.828125 56.984375 36.375 
Q 56.984375 17.96875 50.515625 8.265625 
Q 44.046875 -1.421875 31.78125 -1.421875 
Q 19.53125 -1.421875 13.0625 8.265625 
Q 6.59375 17.96875 6.59375 36.375 
Q 6.59375 54.828125 13.0625 64.515625 
Q 19.53125 74.21875 31.78125 74.21875 
z
" id="DejaVuSans-30"/>
      </defs>
      <g transform="translate(49.7575 317.076875)scale(0.2 -0.2)">
       <use xlink:href="#DejaVuSans-30"/>
      </g>
     </g>
    </g>
    <g id="xtick_2">
     <g id="line2d_3">
      <path clip-path="url(#pcc99a475da)" d="M 135.351336 294.88 
L 135.351336 24.84 
" style="fill:none;stroke:#b0b0b0;stroke-linecap:square;stroke-width:0.8;"/>
     </g>
     <g id="line2d_4">
      <g>
       <use style="stroke:#000000;stroke-width:0.8;" x="135.351336" xlink:href="#ma71e6f3377" y="294.88"/>
      </g>
     </g>
     <g id="text_2">
      <!-- 2 -->
      <defs>
       <path d="M 19.1875 8.296875 
L 53.609375 8.296875 
L 53.609375 0 
L 7.328125 0 
L 7.328125 8.296875 
Q 12.9375 14.109375 22.625 23.890625 
Q 32.328125 33.6875 34.8125 36.53125 
Q 39.546875 41.84375 41.421875 45.53125 
Q 43.3125 49.21875 43.3125 52.78125 
Q 43.3125 58.59375 39.234375 62.25 
Q 35.15625 65.921875 28.609375 65.921875 
Q 23.96875 65.921875 18.8125 64.3125 
Q 13.671875 62.703125 7.8125 59.421875 
L 7.8125 69.390625 
Q 13.765625 71.78125 18.9375 73 
Q 24.125 74.21875 28.421875 74.21875 
Q 39.75 74.21875 46.484375 68.546875 
Q 53.21875 62.890625 53.21875 53.421875 
Q 53.21875 48.921875 51.53125 44.890625 
Q 49.859375 40.875 45.40625 35.40625 
Q 44.1875 33.984375 37.640625 27.21875 
Q 31.109375 20.453125 19.1875 8.296875 
z
" id="DejaVuSans-32"/>
      </defs>
      <g transform="translate(128.988836 317.076875)scale(0.2 -0.2)">
       <use xlink:href="#DejaVuSans-32"/>
      </g>
     </g>
    </g>
    <g id="xtick_3">
     <g id="line2d_5">
      <path clip-path="url(#pcc99a475da)" d="M 214.582673 294.88 
L 214.582673 24.84 
" style="fill:none;stroke:#b0b0b0;stroke-linecap:square;stroke-width:0.8;"/>
     </g>
     <g id="line2d_6">
      <g>
       <use style="stroke:#000000;stroke-width:0.8;" x="214.582673" xlink:href="#ma71e6f3377" y="294.88"/>
      </g>
     </g>
     <g id="text_3">
      <!-- 4 -->
      <defs>
       <path d="M 37.796875 64.3125 
L 12.890625 25.390625 
L 37.796875 25.390625 
z
M 35.203125 72.90625 
L 47.609375 72.90625 
L 47.609375 25.390625 
L 58.015625 25.390625 
L 58.015625 17.1875 
L 47.609375 17.1875 
L 47.609375 0 
L 37.796875 0 
L 37.796875 17.1875 
L 4.890625 17.1875 
L 4.890625 26.703125 
z
" id="DejaVuSans-34"/>
      </defs>
      <g transform="translate(208.220173 317.076875)scale(0.2 -0.2)">
       <use xlink:href="#DejaVuSans-34"/>
      </g>
     </g>
    </g>
    <g id="xtick_4">
     <g id="line2d_7">
      <path clip-path="url(#pcc99a475da)" d="M 293.814009 294.88 
L 293.814009 24.84 
" style="fill:none;stroke:#b0b0b0;stroke-linecap:square;stroke-width:0.8;"/>
     </g>
     <g id="line2d_8">
      <g>
       <use style="stroke:#000000;stroke-width:0.8;" x="293.814009" xlink:href="#ma71e6f3377" y="294.88"/>
      </g>
     </g>
     <g id="text_4">
      <!-- 6 -->
      <defs>
       <path d="M 33.015625 40.375 
Q 26.375 40.375 22.484375 35.828125 
Q 18.609375 31.296875 18.609375 23.390625 
Q 18.609375 15.53125 22.484375 10.953125 
Q 26.375 6.390625 33.015625 6.390625 
Q 39.65625 6.390625 43.53125 10.953125 
Q 47.40625 15.53125 47.40625 23.390625 
Q 47.40625 31.296875 43.53125 35.828125 
Q 39.65625 40.375 33.015625 40.375 
z
M 52.59375 71.296875 
L 52.59375 62.3125 
Q 48.875 64.0625 45.09375 64.984375 
Q 41.3125 65.921875 37.59375 65.921875 
Q 27.828125 65.921875 22.671875 59.328125 
Q 17.53125 52.734375 16.796875 39.40625 
Q 19.671875 43.65625 24.015625 45.921875 
Q 28.375 48.1875 33.59375 48.1875 
Q 44.578125 48.1875 50.953125 41.515625 
Q 57.328125 34.859375 57.328125 23.390625 
Q 57.328125 12.15625 50.6875 5.359375 
Q 44.046875 -1.421875 33.015625 -1.421875 
Q 20.359375 -1.421875 13.671875 8.265625 
Q 6.984375 17.96875 6.984375 36.375 
Q 6.984375 53.65625 15.1875 63.9375 
Q 23.390625 74.21875 37.203125 74.21875 
Q 40.921875 74.21875 44.703125 73.484375 
Q 48.484375 72.75 52.59375 71.296875 
z
" id="DejaVuSans-36"/>
      </defs>
      <g transform="translate(287.451509 317.076875)scale(0.2 -0.2)">
       <use xlink:href="#DejaVuSans-36"/>
      </g>
     </g>
    </g>
    <g id="xtick_5">
     <g id="line2d_9">
      <path clip-path="url(#pcc99a475da)" d="M 373.045346 294.88 
L 373.045346 24.84 
" style="fill:none;stroke:#b0b0b0;stroke-linecap:square;stroke-width:0.8;"/>
     </g>
     <g id="line2d_10">
      <g>
       <use style="stroke:#000000;stroke-width:0.8;" x="373.045346" xlink:href="#ma71e6f3377" y="294.88"/>
      </g>
     </g>
     <g id="text_5">
      <!-- 8 -->
      <defs>
       <path d="M 31.78125 34.625 
Q 24.75 34.625 20.71875 30.859375 
Q 16.703125 27.09375 16.703125 20.515625 
Q 16.703125 13.921875 20.71875 10.15625 
Q 24.75 6.390625 31.78125 6.390625 
Q 38.8125 6.390625 42.859375 10.171875 
Q 46.921875 13.96875 46.921875 20.515625 
Q 46.921875 27.09375 42.890625 30.859375 
Q 38.875 34.625 31.78125 34.625 
z
M 21.921875 38.8125 
Q 15.578125 40.375 12.03125 44.71875 
Q 8.5 49.078125 8.5 55.328125 
Q 8.5 64.0625 14.71875 69.140625 
Q 20.953125 74.21875 31.78125 74.21875 
Q 42.671875 74.21875 48.875 69.140625 
Q 55.078125 64.0625 55.078125 55.328125 
Q 55.078125 49.078125 51.53125 44.71875 
Q 48 40.375 41.703125 38.8125 
Q 48.828125 37.15625 52.796875 32.3125 
Q 56.78125 27.484375 56.78125 20.515625 
Q 56.78125 9.90625 50.3125 4.234375 
Q 43.84375 -1.421875 31.78125 -1.421875 
Q 19.734375 -1.421875 13.25 4.234375 
Q 6.78125 9.90625 6.78125 20.515625 
Q 6.78125 27.484375 10.78125 32.3125 
Q 14.796875 37.15625 21.921875 38.8125 
z
M 18.3125 54.390625 
Q 18.3125 48.734375 21.84375 45.5625 
Q 25.390625 42.390625 31.78125 42.390625 
Q 38.140625 42.390625 41.71875 45.5625 
Q 45.3125 48.734375 45.3125 54.390625 
Q 45.3125 60.0625 41.71875 63.234375 
Q 38.140625 66.40625 31.78125 66.40625 
Q 25.390625 66.40625 21.84375 63.234375 
Q 18.3125 60.0625 18.3125 54.390625 
z
" id="DejaVuSans-38"/>
      </defs>
      <g transform="translate(366.682846 317.076875)scale(0.2 -0.2)">
       <use xlink:href="#DejaVuSans-38"/>
      </g>
     </g>
    </g>
    <g id="text_6">
     <!-- log10(# f-evals / dimension) -->
     <defs>
      <path d="M 9.421875 75.984375 
L 18.40625 75.984375 
L 18.40625 0 
L 9.421875 0 
z
" id="DejaVuSans-6c"/>
      <path d="M 30.609375 48.390625 
Q 23.390625 48.390625 19.1875 42.75 
Q 14.984375 37.109375 14.984375 27.296875 
Q 14.984375 17.484375 19.15625 11.84375 
Q 23.34375 6.203125 30.609375 6.203125 
Q 37.796875 6.203125 41.984375 11.859375 
Q 46.1875 17.53125 46.1875 27.296875 
Q 46.1875 37.015625 41.984375 42.703125 
Q 37.796875 48.390625 30.609375 48.390625 
z
M 30.609375 56 
Q 42.328125 56 49.015625 48.375 
Q 55.71875 40.765625 55.71875 27.296875 
Q 55.71875 13.875 49.015625 6.21875 
Q 42.328125 -1.421875 30.609375 -1.421875 
Q 18.84375 -1.421875 12.171875 6.21875 
Q 5.515625 13.875 5.515625 27.296875 
Q 5.515625 40.765625 12.171875 48.375 
Q 18.84375 56 30.609375 56 
z
" id="DejaVuSans-6f"/>
      <path d="M 45.40625 27.984375 
Q 45.40625 37.75 41.375 43.109375 
Q 37.359375 48.484375 30.078125 48.484375 
Q 22.859375 48.484375 18.828125 43.109375 
Q 14.796875 37.75 14.796875 27.984375 
Q 14.796875 18.265625 18.828125 12.890625 
Q 22.859375 7.515625 30.078125 7.515625 
Q 37.359375 7.515625 41.375 12.890625 
Q 45.40625 18.265625 45.40625 27.984375 
z
M 54.390625 6.78125 
Q 54.390625 -7.171875 48.1875 -13.984375 
Q 42 -20.796875 29.203125 -20.796875 
Q 24.46875 -20.796875 20.265625 -20.09375 
Q 16.0625 -19.390625 12.109375 -17.921875 
L 12.109375 -9.1875 
Q 16.0625 -11.328125 19.921875 -12.34375 
Q 23.78125 -13.375 27.78125 -13.375 
Q 36.625 -13.375 41.015625 -8.765625 
Q 45.40625 -4.15625 45.40625 5.171875 
L 45.40625 9.625 
Q 42.625 4.78125 38.28125 2.390625 
Q 33.9375 0 27.875 0 
Q 17.828125 0 11.671875 7.65625 
Q 5.515625 15.328125 5.515625 27.984375 
Q 5.515625 40.671875 11.671875 48.328125 
Q 17.828125 56 27.875 56 
Q 33.9375 56 38.28125 53.609375 
Q 42.625 51.21875 45.40625 46.390625 
L 45.40625 54.6875 
L 54.390625 54.6875 
z
" id="DejaVuSans-67"/>
      <path d="M 12.40625 8.296875 
L 28.515625 8.296875 
L 28.515625 63.921875 
L 10.984375 60.40625 
L 10.984375 69.390625 
L 28.421875 72.90625 
L 38.28125 72.90625 
L 38.28125 8.296875 
L 54.390625 8.296875 
L 54.390625 0 
L 12.40625 0 
z
" id="DejaVuSans-31"/>
      <path d="M 31 75.875 
Q 24.46875 64.65625 21.28125 53.65625 
Q 18.109375 42.671875 18.109375 31.390625 
Q 18.109375 20.125 21.3125 9.0625 
Q 24.515625 -2 31 -13.1875 
L 23.1875 -13.1875 
Q 15.875 -1.703125 12.234375 9.375 
Q 8.59375 20.453125 8.59375 31.390625 
Q 8.59375 42.28125 12.203125 53.3125 
Q 15.828125 64.359375 23.1875 75.875 
z
" id="DejaVuSans-28"/>
      <path d="M 51.125 44 
L 36.921875 44 
L 32.8125 27.6875 
L 47.125 27.6875 
z
M 43.796875 71.78125 
L 38.71875 51.515625 
L 52.984375 51.515625 
L 58.109375 71.78125 
L 65.921875 71.78125 
L 60.890625 51.515625 
L 76.125 51.515625 
L 76.125 44 
L 58.984375 44 
L 54.984375 27.6875 
L 70.515625 27.6875 
L 70.515625 20.21875 
L 53.078125 20.21875 
L 48 0 
L 40.1875 0 
L 45.21875 20.21875 
L 30.90625 20.21875 
L 25.875 0 
L 18.015625 0 
L 23.09375 20.21875 
L 7.71875 20.21875 
L 7.71875 27.6875 
L 24.90625 27.6875 
L 29 44 
L 13.28125 44 
L 13.28125 51.515625 
L 30.90625 51.515625 
L 35.890625 71.78125 
z
" id="DejaVuSans-23"/>
      <path id="DejaVuSans-20"/>
      <path d="M 37.109375 75.984375 
L 37.109375 68.5 
L 28.515625 68.5 
Q 23.6875 68.5 21.796875 66.546875 
Q 19.921875 64.59375 19.921875 59.515625 
L 19.921875 54.6875 
L 34.71875 54.6875 
L 34.71875 47.703125 
L 19.921875 47.703125 
L 19.921875 0 
L 10.890625 0 
L 10.890625 47.703125 
L 2.296875 47.703125 
L 2.296875 54.6875 
L 10.890625 54.6875 
L 10.890625 58.5 
Q 10.890625 67.625 15.140625 71.796875 
Q 19.390625 75.984375 28.609375 75.984375 
z
" id="DejaVuSans-66"/>
      <path d="M 4.890625 31.390625 
L 31.203125 31.390625 
L 31.203125 23.390625 
L 4.890625 23.390625 
z
" id="DejaVuSans-2d"/>
      <path d="M 56.203125 29.59375 
L 56.203125 25.203125 
L 14.890625 25.203125 
Q 15.484375 15.921875 20.484375 11.0625 
Q 25.484375 6.203125 34.421875 6.203125 
Q 39.59375 6.203125 44.453125 7.46875 
Q 49.3125 8.734375 54.109375 11.28125 
L 54.109375 2.78125 
Q 49.265625 0.734375 44.1875 -0.34375 
Q 39.109375 -1.421875 33.890625 -1.421875 
Q 20.796875 -1.421875 13.15625 6.1875 
Q 5.515625 13.8125 5.515625 26.8125 
Q 5.515625 40.234375 12.765625 48.109375 
Q 20.015625 56 32.328125 56 
Q 43.359375 56 49.78125 48.890625 
Q 56.203125 41.796875 56.203125 29.59375 
z
M 47.21875 32.234375 
Q 47.125 39.59375 43.09375 43.984375 
Q 39.0625 48.390625 32.421875 48.390625 
Q 24.90625 48.390625 20.390625 44.140625 
Q 15.875 39.890625 15.1875 32.171875 
z
" id="DejaVuSans-65"/>
      <path d="M 2.984375 54.6875 
L 12.5 54.6875 
L 29.59375 8.796875 
L 46.6875 54.6875 
L 56.203125 54.6875 
L 35.6875 0 
L 23.484375 0 
z
" id="DejaVuSans-76"/>
      <path d="M 34.28125 27.484375 
Q 23.390625 27.484375 19.1875 25 
Q 14.984375 22.515625 14.984375 16.5 
Q 14.984375 11.71875 18.140625 8.90625 
Q 21.296875 6.109375 26.703125 6.109375 
Q 34.1875 6.109375 38.703125 11.40625 
Q 43.21875 16.703125 43.21875 25.484375 
L 43.21875 27.484375 
z
M 52.203125 31.203125 
L 52.203125 0 
L 43.21875 0 
L 43.21875 8.296875 
Q 40.140625 3.328125 35.546875 0.953125 
Q 30.953125 -1.421875 24.3125 -1.421875 
Q 15.921875 -1.421875 10.953125 3.296875 
Q 6 8.015625 6 15.921875 
Q 6 25.140625 12.171875 29.828125 
Q 18.359375 34.515625 30.609375 34.515625 
L 43.21875 34.515625 
L 43.21875 35.40625 
Q 43.21875 41.609375 39.140625 45 
Q 35.0625 48.390625 27.6875 48.390625 
Q 23 48.390625 18.546875 47.265625 
Q 14.109375 46.140625 10.015625 43.890625 
L 10.015625 52.203125 
Q 14.9375 54.109375 19.578125 55.046875 
Q 24.21875 56 28.609375 56 
Q 40.484375 56 46.34375 49.84375 
Q 52.203125 43.703125 52.203125 31.203125 
z
" id="DejaVuSans-61"/>
      <path d="M 44.28125 53.078125 
L 44.28125 44.578125 
Q 40.484375 46.53125 36.375 47.5 
Q 32.28125 48.484375 27.875 48.484375 
Q 21.1875 48.484375 17.84375 46.4375 
Q 14.5 44.390625 14.5 40.28125 
Q 14.5 37.15625 16.890625 35.375 
Q 19.28125 33.59375 26.515625 31.984375 
L 29.59375 31.296875 
Q 39.15625 29.25 43.1875 25.515625 
Q 47.21875 21.78125 47.21875 15.09375 
Q 47.21875 7.46875 41.1875 3.015625 
Q 35.15625 -1.421875 24.609375 -1.421875 
Q 20.21875 -1.421875 15.453125 -0.5625 
Q 10.6875 0.296875 5.421875 2 
L 5.421875 11.28125 
Q 10.40625 8.6875 15.234375 7.390625 
Q 20.0625 6.109375 24.8125 6.109375 
Q 31.15625 6.109375 34.5625 8.28125 
Q 37.984375 10.453125 37.984375 14.40625 
Q 37.984375 18.0625 35.515625 20.015625 
Q 33.0625 21.96875 24.703125 23.78125 
L 21.578125 24.515625 
Q 13.234375 26.265625 9.515625 29.90625 
Q 5.8125 33.546875 5.8125 39.890625 
Q 5.8125 47.609375 11.28125 51.796875 
Q 16.75 56 26.8125 56 
Q 31.78125 56 36.171875 55.265625 
Q 40.578125 54.546875 44.28125 53.078125 
z
" id="DejaVuSans-73"/>
      <path d="M 25.390625 72.90625 
L 33.6875 72.90625 
L 8.296875 -9.28125 
L 0 -9.28125 
z
" id="DejaVuSans-2f"/>
      <path d="M 45.40625 46.390625 
L 45.40625 75.984375 
L 54.390625 75.984375 
L 54.390625 0 
L 45.40625 0 
L 45.40625 8.203125 
Q 42.578125 3.328125 38.25 0.953125 
Q 33.9375 -1.421875 27.875 -1.421875 
Q 17.96875 -1.421875 11.734375 6.484375 
Q 5.515625 14.40625 5.515625 27.296875 
Q 5.515625 40.1875 11.734375 48.09375 
Q 17.96875 56 27.875 56 
Q 33.9375 56 38.25 53.625 
Q 42.578125 51.265625 45.40625 46.390625 
z
M 14.796875 27.296875 
Q 14.796875 17.390625 18.875 11.75 
Q 22.953125 6.109375 30.078125 6.109375 
Q 37.203125 6.109375 41.296875 11.75 
Q 45.40625 17.390625 45.40625 27.296875 
Q 45.40625 37.203125 41.296875 42.84375 
Q 37.203125 48.484375 30.078125 48.484375 
Q 22.953125 48.484375 18.875 42.84375 
Q 14.796875 37.203125 14.796875 27.296875 
z
" id="DejaVuSans-64"/>
      <path d="M 9.421875 54.6875 
L 18.40625 54.6875 
L 18.40625 0 
L 9.421875 0 
z
M 9.421875 75.984375 
L 18.40625 75.984375 
L 18.40625 64.59375 
L 9.421875 64.59375 
z
" id="DejaVuSans-69"/>
      <path d="M 52 44.1875 
Q 55.375 50.25 60.0625 53.125 
Q 64.75 56 71.09375 56 
Q 79.640625 56 84.28125 50.015625 
Q 88.921875 44.046875 88.921875 33.015625 
L 88.921875 0 
L 79.890625 0 
L 79.890625 32.71875 
Q 79.890625 40.578125 77.09375 44.375 
Q 74.3125 48.1875 68.609375 48.1875 
Q 61.625 48.1875 57.5625 43.546875 
Q 53.515625 38.921875 53.515625 30.90625 
L 53.515625 0 
L 44.484375 0 
L 44.484375 32.71875 
Q 44.484375 40.625 41.703125 44.40625 
Q 38.921875 48.1875 33.109375 48.1875 
Q 26.21875 48.1875 22.15625 43.53125 
Q 18.109375 38.875 18.109375 30.90625 
L 18.109375 0 
L 9.078125 0 
L 9.078125 54.6875 
L 18.109375 54.6875 
L 18.109375 46.1875 
Q 21.1875 51.21875 25.484375 53.609375 
Q 29.78125 56 35.6875 56 
Q 41.65625 56 45.828125 52.96875 
Q 50 49.953125 52 44.1875 
z
" id="DejaVuSans-6d"/>
      <path d="M 54.890625 33.015625 
L 54.890625 0 
L 45.90625 0 
L 45.90625 32.71875 
Q 45.90625 40.484375 42.875 44.328125 
Q 39.84375 48.1875 33.796875 48.1875 
Q 26.515625 48.1875 22.3125 43.546875 
Q 18.109375 38.921875 18.109375 30.90625 
L 18.109375 0 
L 9.078125 0 
L 9.078125 54.6875 
L 18.109375 54.6875 
L 18.109375 46.1875 
Q 21.34375 51.125 25.703125 53.5625 
Q 30.078125 56 35.796875 56 
Q 45.21875 56 50.046875 50.171875 
Q 54.890625 44.34375 54.890625 33.015625 
z
" id="DejaVuSans-6e"/>
      <path d="M 8.015625 75.875 
L 15.828125 75.875 
Q 23.140625 64.359375 26.78125 53.3125 
Q 30.421875 42.28125 30.421875 31.390625 
Q 30.421875 20.453125 26.78125 9.375 
Q 23.140625 -1.703125 15.828125 -13.1875 
L 8.015625 -13.1875 
Q 14.5 -2 17.703125 9.0625 
Q 20.90625 20.125 20.90625 31.390625 
Q 20.90625 42.671875 17.703125 53.65625 
Q 14.5 64.65625 8.015625 75.875 
z
" id="DejaVuSans-29"/>
     </defs>
     <g transform="translate(107.211219 338.153594)scale(0.17 -0.17)">
      <use xlink:href="#DejaVuSans-6c"/>
      <use x="27.783203" xlink:href="#DejaVuSans-6f"/>
      <use x="88.964844" xlink:href="#DejaVuSans-67"/>
      <use x="152.441406" xlink:href="#DejaVuSans-31"/>
      <use x="216.064453" xlink:href="#DejaVuSans-30"/>
      <use x="279.6875" xlink:href="#DejaVuSans-28"/>
      <use x="318.701172" xlink:href="#DejaVuSans-23"/>
      <use x="402.490234" xlink:href="#DejaVuSans-20"/>
      <use x="434.277344" xlink:href="#DejaVuSans-66"/>
      <use x="469.404297" xlink:href="#DejaVuSans-2d"/>
      <use x="505.488281" xlink:href="#DejaVuSans-65"/>
      <use x="567.011719" xlink:href="#DejaVuSans-76"/>
      <use x="626.191406" xlink:href="#DejaVuSans-61"/>
      <use x="687.470703" xlink:href="#DejaVuSans-6c"/>
      <use x="715.253906" xlink:href="#DejaVuSans-73"/>
      <use x="767.353516" xlink:href="#DejaVuSans-20"/>
      <use x="799.140625" xlink:href="#DejaVuSans-2f"/>
      <use x="832.832031" xlink:href="#DejaVuSans-20"/>
      <use x="864.619141" xlink:href="#DejaVuSans-64"/>
      <use x="928.095703" xlink:href="#DejaVuSans-69"/>
      <use x="955.878906" xlink:href="#DejaVuSans-6d"/>
      <use x="1053.291016" xlink:href="#DejaVuSans-65"/>
      <use x="1114.814453" xlink:href="#DejaVuSans-6e"/>
      <use x="1178.193359" xlink:href="#DejaVuSans-73"/>
      <use x="1230.292969" xlink:href="#DejaVuSans-69"/>
      <use x="1258.076172" xlink:href="#DejaVuSans-6f"/>
      <use x="1319.257812" xlink:href="#DejaVuSans-6e"/>
      <use x="1382.636719" xlink:href="#DejaVuSans-29"/>
     </g>
    </g>
   </g>
   <g id="matplotlib.axis_2">
    <g id="ytick_1">
     <g id="line2d_11">
      <path clip-path="url(#pcc99a475da)" d="M 56.12 294.88 
L 399.984 294.88 
" style="fill:none;stroke:#b0b0b0;stroke-linecap:square;stroke-width:0.8;"/>
     </g>
     <g id="line2d_12">
      <defs>
       <path d="M 0 0 
L -3.5 0 
" id="m2202dcce53" style="stroke:#000000;stroke-width:0.8;"/>
      </defs>
      <g>
       <use style="stroke:#000000;stroke-width:0.8;" x="56.12" xlink:href="#m2202dcce53" y="294.88"/>
      </g>
     </g>
     <g id="text_7">
      <!-- 0.0 -->
      <defs>
       <path d="M 10.6875 12.40625 
L 21 12.40625 
L 21 0 
L 10.6875 0 
z
" id="DejaVuSans-2e"/>
      </defs>
      <g transform="translate(23.675 300.95875)scale(0.16 -0.16)">
       <use xlink:href="#DejaVuSans-30"/>
       <use x="63.623047" xlink:href="#DejaVuSans-2e"/>
       <use x="95.410156" xlink:href="#DejaVuSans-30"/>
      </g>
     </g>
    </g>
    <g id="ytick_2">
     <g id="line2d_13">
      <path clip-path="url(#pcc99a475da)" d="M 56.12 241.406733 
L 399.984 241.406733 
" style="fill:none;stroke:#b0b0b0;stroke-linecap:square;stroke-width:0.8;"/>
     </g>
     <g id="line2d_14">
      <g>
       <use style="stroke:#000000;stroke-width:0.8;" x="56.12" xlink:href="#m2202dcce53" y="241.406733"/>
      </g>
     </g>
     <g id="text_8">
      <!-- 0.2 -->
      <g transform="translate(23.675 247.485483)scale(0.16 -0.16)">
       <use xlink:href="#DejaVuSans-30"/>
       <use x="63.623047" xlink:href="#DejaVuSans-2e"/>
       <use x="95.410156" xlink:href="#DejaVuSans-32"/>
      </g>
     </g>
    </g>
    <g id="ytick_3">
     <g id="line2d_15">
      <path clip-path="url(#pcc99a475da)" d="M 56.12 187.933465 
L 399.984 187.933465 
" style="fill:none;stroke:#b0b0b0;stroke-linecap:square;stroke-width:0.8;"/>
     </g>
     <g id="line2d_16">
      <g>
       <use style="stroke:#000000;stroke-width:0.8;" x="56.12" xlink:href="#m2202dcce53" y="187.933465"/>
      </g>
     </g>
     <g id="text_9">
      <!-- 0.4 -->
      <g transform="translate(23.675 194.012215)scale(0.16 -0.16)">
       <use xlink:href="#DejaVuSans-30"/>
       <use x="63.623047" xlink:href="#DejaVuSans-2e"/>
       <use x="95.410156" xlink:href="#DejaVuSans-34"/>
      </g>
     </g>
    </g>
    <g id="ytick_4">
     <g id="line2d_17">
      <path clip-path="url(#pcc99a475da)" d="M 56.12 134.460198 
L 399.984 134.460198 
" style="fill:none;stroke:#b0b0b0;stroke-linecap:square;stroke-width:0.8;"/>
     </g>
     <g id="line2d_18">
      <g>
       <use style="stroke:#000000;stroke-width:0.8;" x="56.12" xlink:href="#m2202dcce53" y="134.460198"/>
      </g>
     </g>
     <g id="text_10">
      <!-- 0.6 -->
      <g transform="translate(23.675 140.538948)scale(0.16 -0.16)">
       <use xlink:href="#DejaVuSans-30"/>
       <use x="63.623047" xlink:href="#DejaVuSans-2e"/>
       <use x="95.410156" xlink:href="#DejaVuSans-36"/>
      </g>
     </g>
    </g>
    <g id="ytick_5">
     <g id="line2d_19">
      <path clip-path="url(#pcc99a475da)" d="M 56.12 80.986931 
L 399.984 80.986931 
" style="fill:none;stroke:#b0b0b0;stroke-linecap:square;stroke-width:0.8;"/>
     </g>
     <g id="line2d_20">
      <g>
       <use style="stroke:#000000;stroke-width:0.8;" x="56.12" xlink:href="#m2202dcce53" y="80.986931"/>
      </g>
     </g>
     <g id="text_11">
      <!-- 0.8 -->
      <g transform="translate(23.675 87.065681)scale(0.16 -0.16)">
       <use xlink:href="#DejaVuSans-30"/>
       <use x="63.623047" xlink:href="#DejaVuSans-2e"/>
       <use x="95.410156" xlink:href="#DejaVuSans-38"/>
      </g>
     </g>
    </g>
    <g id="ytick_6">
     <g id="line2d_21">
      <path clip-path="url(#pcc99a475da)" d="M 56.12 27.513663 
L 399.984 27.513663 
" style="fill:none;stroke:#b0b0b0;stroke-linecap:square;stroke-width:0.8;"/>
     </g>
     <g id="line2d_22">
      <g>
       <use style="stroke:#000000;stroke-width:0.8;" x="56.12" xlink:href="#m2202dcce53" y="27.513663"/>
      </g>
     </g>
     <g id="text_12">
      <!-- 1.0 -->
      <g transform="translate(23.675 33.592413)scale(0.16 -0.16)">
       <use xlink:href="#DejaVuSans-31"/>
       <use x="63.623047" xlink:href="#DejaVuSans-2e"/>
       <use x="95.410156" xlink:href="#DejaVuSans-30"/>
      </g>
     </g>
    </g>
    <g id="text_13">
     <!-- Fraction of function,target pairs -->
     <defs>
      <path d="M 9.8125 72.90625 
L 51.703125 72.90625 
L 51.703125 64.59375 
L 19.671875 64.59375 
L 19.671875 43.109375 
L 48.578125 43.109375 
L 48.578125 34.8125 
L 19.671875 34.8125 
L 19.671875 0 
L 9.8125 0 
z
" id="DejaVuSans-46"/>
      <path d="M 41.109375 46.296875 
Q 39.59375 47.171875 37.8125 47.578125 
Q 36.03125 48 33.890625 48 
Q 26.265625 48 22.1875 43.046875 
Q 18.109375 38.09375 18.109375 28.8125 
L 18.109375 0 
L 9.078125 0 
L 9.078125 54.6875 
L 18.109375 54.6875 
L 18.109375 46.1875 
Q 20.953125 51.171875 25.484375 53.578125 
Q 30.03125 56 36.53125 56 
Q 37.453125 56 38.578125 55.875 
Q 39.703125 55.765625 41.0625 55.515625 
z
" id="DejaVuSans-72"/>
      <path d="M 48.78125 52.59375 
L 48.78125 44.1875 
Q 44.96875 46.296875 41.140625 47.34375 
Q 37.3125 48.390625 33.40625 48.390625 
Q 24.65625 48.390625 19.8125 42.84375 
Q 14.984375 37.3125 14.984375 27.296875 
Q 14.984375 17.28125 19.8125 11.734375 
Q 24.65625 6.203125 33.40625 6.203125 
Q 37.3125 6.203125 41.140625 7.25 
Q 44.96875 8.296875 48.78125 10.40625 
L 48.78125 2.09375 
Q 45.015625 0.34375 40.984375 -0.53125 
Q 36.96875 -1.421875 32.421875 -1.421875 
Q 20.0625 -1.421875 12.78125 6.34375 
Q 5.515625 14.109375 5.515625 27.296875 
Q 5.515625 40.671875 12.859375 48.328125 
Q 20.21875 56 33.015625 56 
Q 37.15625 56 41.109375 55.140625 
Q 45.0625 54.296875 48.78125 52.59375 
z
" id="DejaVuSans-63"/>
      <path d="M 18.3125 70.21875 
L 18.3125 54.6875 
L 36.8125 54.6875 
L 36.8125 47.703125 
L 18.3125 47.703125 
L 18.3125 18.015625 
Q 18.3125 11.328125 20.140625 9.421875 
Q 21.96875 7.515625 27.59375 7.515625 
L 36.8125 7.515625 
L 36.8125 0 
L 27.59375 0 
Q 17.1875 0 13.234375 3.875 
Q 9.28125 7.765625 9.28125 18.015625 
L 9.28125 47.703125 
L 2.6875 47.703125 
L 2.6875 54.6875 
L 9.28125 54.6875 
L 9.28125 70.21875 
z
" id="DejaVuSans-74"/>
      <path d="M 8.5 21.578125 
L 8.5 54.6875 
L 17.484375 54.6875 
L 17.484375 21.921875 
Q 17.484375 14.15625 20.5 10.265625 
Q 23.53125 6.390625 29.59375 6.390625 
Q 36.859375 6.390625 41.078125 11.03125 
Q 45.3125 15.671875 45.3125 23.6875 
L 45.3125 54.6875 
L 54.296875 54.6875 
L 54.296875 0 
L 45.3125 0 
L 45.3125 8.40625 
Q 42.046875 3.421875 37.71875 1 
Q 33.40625 -1.421875 27.6875 -1.421875 
Q 18.265625 -1.421875 13.375 4.4375 
Q 8.5 10.296875 8.5 21.578125 
z
M 31.109375 56 
z
" id="DejaVuSans-75"/>
      <path d="M 11.71875 12.40625 
L 22.015625 12.40625 
L 22.015625 4 
L 14.015625 -11.625 
L 7.71875 -11.625 
L 11.71875 4 
z
" id="DejaVuSans-2c"/>
      <path d="M 18.109375 8.203125 
L 18.109375 -20.796875 
L 9.078125 -20.796875 
L 9.078125 54.6875 
L 18.109375 54.6875 
L 18.109375 46.390625 
Q 20.953125 51.265625 25.265625 53.625 
Q 29.59375 56 35.59375 56 
Q 45.5625 56 51.78125 48.09375 
Q 58.015625 40.1875 58.015625 27.296875 
Q 58.015625 14.40625 51.78125 6.484375 
Q 45.5625 -1.421875 35.59375 -1.421875 
Q 29.59375 -1.421875 25.265625 0.953125 
Q 20.953125 3.328125 18.109375 8.203125 
z
M 48.6875 27.296875 
Q 48.6875 37.203125 44.609375 42.84375 
Q 40.53125 48.484375 33.40625 48.484375 
Q 26.265625 48.484375 22.1875 42.84375 
Q 18.109375 37.203125 18.109375 27.296875 
Q 18.109375 17.390625 22.1875 11.75 
Q 26.265625 6.109375 33.40625 6.109375 
Q 40.53125 6.109375 44.609375 11.75 
Q 48.6875 17.390625 48.6875 27.296875 
z
" id="DejaVuSans-70"/>
     </defs>
     <g transform="translate(16.139531 294.999375)rotate(-90)scale(0.17 -0.17)">
      <use xlink:href="#DejaVuSans-46"/>
      <use x="57.410156" xlink:href="#DejaVuSans-72"/>
      <use x="98.523438" xlink:href="#DejaVuSans-61"/>
      <use x="159.802734" xlink:href="#DejaVuSans-63"/>
      <use x="214.783203" xlink:href="#DejaVuSans-74"/>
      <use x="253.992188" xlink:href="#DejaVuSans-69"/>
      <use x="281.775391" xlink:href="#DejaVuSans-6f"/>
      <use x="342.957031" xlink:href="#DejaVuSans-6e"/>
      <use x="406.335938" xlink:href="#DejaVuSans-20"/>
      <use x="438.123047" xlink:href="#DejaVuSans-6f"/>
      <use x="499.304688" xlink:href="#DejaVuSans-66"/>
      <use x="534.509766" xlink:href="#DejaVuSans-20"/>
      <use x="566.296875" xlink:href="#DejaVuSans-66"/>
      <use x="601.501953" xlink:href="#DejaVuSans-75"/>
      <use x="664.880859" xlink:href="#DejaVuSans-6e"/>
      <use x="728.259766" xlink:href="#DejaVuSans-63"/>
      <use x="783.240234" xlink:href="#DejaVuSans-74"/>
      <use x="822.449219" xlink:href="#DejaVuSans-69"/>
      <use x="850.232422" xlink:href="#DejaVuSans-6f"/>
      <use x="911.414062" xlink:href="#DejaVuSans-6e"/>
      <use x="974.792969" xlink:href="#DejaVuSans-2c"/>
      <use x="1006.580078" xlink:href="#DejaVuSans-74"/>
      <use x="1045.789062" xlink:href="#DejaVuSans-61"/>
      <use x="1107.068359" xlink:href="#DejaVuSans-72"/>
      <use x="1148.166016" xlink:href="#DejaVuSans-67"/>
      <use x="1211.642578" xlink:href="#DejaVuSans-65"/>
      <use x="1273.166016" xlink:href="#DejaVuSans-74"/>
      <use x="1312.375" xlink:href="#DejaVuSans-20"/>
      <use x="1344.162109" xlink:href="#DejaVuSans-70"/>
      <use x="1407.638672" xlink:href="#DejaVuSans-61"/>
      <use x="1468.917969" xlink:href="#DejaVuSans-69"/>
      <use x="1496.701172" xlink:href="#DejaVuSans-72"/>
      <use x="1537.814453" xlink:href="#DejaVuSans-73"/>
     </g>
    </g>
   </g>
   <g id="line2d_23">
    <defs>
     <path d="M 0 1.5 
C 0.397805 1.5 0.77937 1.341951 1.06066 1.06066 
C 1.341951 0.77937 1.5 0.397805 1.5 0 
C 1.5 -0.397805 1.341951 -0.77937 1.06066 -1.06066 
C 0.77937 -1.341951 0.397805 -1.5 0 -1.5 
C -0.397805 -1.5 -0.77937 -1.341951 -1.06066 -1.06066 
C -1.341951 -0.77937 -1.5 -0.397805 -1.5 0 
C -1.5 0.397805 -1.341951 0.77937 -1.06066 1.06066 
C -0.77937 1.341951 -0.397805 1.5 0 1.5 
z
" id="mffc421f48c" style="stroke:#00bfbf;"/>
    </defs>
    <g>
     <use style="fill:#00bfbf;stroke:#00bfbf;" x="142.555192" xlink:href="#mffc421f48c" y="27.513663"/>
     <use style="fill:#00bfbf;stroke:#00bfbf;" x="142.555192" xlink:href="#mffc421f48c" y="27.513663"/>
    </g>
   </g>
   <g id="line2d_24">
    <path d="M 56.12 294.88 
L 56.12 263.425137 
L 95.735668 263.425137 
L 95.735668 262.900889 
L 97.375467 262.900889 
L 97.375467 259.231155 
L 98.872486 259.231155 
L 98.872486 258.18266 
L 107.661173 258.18266 
L 107.661173 257.658412 
L 108.500601 257.658412 
L 108.500601 255.561421 
L 109.300972 255.561421 
L 109.300972 251.367439 
L 110.065758 251.367439 
L 110.065758 247.697705 
L 110.797991 247.697705 
L 110.797991 241.406733 
L 111.500328 241.406733 
L 111.500328 227.252044 
L 112.175115 227.252044 
L 112.175115 222.009567 
L 112.824432 222.009567 
L 112.824432 217.291338 
L 116.276944 217.291338 
L 116.276944 216.242842 
L 117.289287 216.242842 
L 117.289287 215.718594 
L 120.426105 215.718594 
L 120.426105 215.194347 
L 120.830944 215.194347 
L 120.830944 214.670099 
L 127.402078 214.670099 
L 127.402078 214.145851 
L 128.716065 214.145851 
L 128.716065 213.097356 
L 128.967235 213.097356 
L 128.967235 212.573108 
L 129.214792 212.573108 
L 129.214792 211.000365 
L 129.93678 211.000365 
L 129.93678 209.95187 
L 130.401805 209.95187 
L 130.401805 209.427622 
L 130.629687 209.427622 
L 130.629687 208.903374 
L 130.854591 208.903374 
L 130.854591 207.854879 
L 131.076592 207.854879 
L 131.076592 206.806383 
L 131.295765 206.806383 
L 131.295765 205.757888 
L 131.512181 205.757888 
L 131.512181 203.136649 
L 131.937015 203.136649 
L 131.937015 202.612401 
L 132.145561 202.612401 
L 132.145561 202.088154 
L 132.35161 202.088154 
L 132.35161 199.466915 
L 132.55522 199.466915 
L 132.55522 198.41842 
L 132.756449 198.41842 
L 132.756449 196.845677 
L 132.955351 196.845677 
L 132.955351 195.272933 
L 133.15198 195.272933 
L 133.15198 193.175943 
L 133.346388 193.175943 
L 133.346388 188.981961 
L 133.538623 188.981961 
L 133.538623 185.836474 
L 133.728734 185.836474 
L 133.728734 182.16674 
L 133.916767 182.16674 
L 133.916767 179.545502 
L 134.102767 179.545502 
L 134.102767 176.400016 
L 134.286778 176.400016 
L 134.286778 172.730281 
L 134.468842 172.730281 
L 134.468842 170.109043 
L 134.648999 170.109043 
L 134.648999 167.487804 
L 134.82729 167.487804 
L 134.82729 165.390813 
L 135.003752 165.390813 
L 135.003752 162.769575 
L 135.178422 162.769575 
L 135.178422 160.148336 
L 135.351336 160.148336 
L 135.351336 154.905859 
L 135.522531 154.905859 
L 135.522531 150.711877 
L 135.692038 150.711877 
L 135.692038 148.090639 
L 135.859892 148.090639 
L 135.859892 143.372409 
L 136.026124 143.372409 
L 136.026124 141.275418 
L 136.190765 141.275418 
L 136.190765 136.557189 
L 136.353845 136.557189 
L 136.353845 133.93595 
L 136.515394 133.93595 
L 136.515394 129.741969 
L 136.675441 129.741969 
L 136.675441 128.169225 
L 136.834012 128.169225 
L 136.834012 120.829757 
L 136.991135 120.829757 
L 136.991135 116.111528 
L 137.146836 116.111528 
L 137.146836 110.344803 
L 137.301141 110.344803 
L 137.301141 108.247812 
L 137.454074 108.247812 
L 137.454074 99.335601 
L 137.755922 99.335601 
L 137.755922 97.762858 
L 138.052565 97.762858 
L 138.052565 92.520381 
L 138.19899 92.520381 
L 138.19899 90.42339 
L 138.34418 90.42339 
L 138.34418 87.277903 
L 138.488154 87.277903 
L 138.488154 83.608169 
L 138.630934 83.608169 
L 138.630934 81.511178 
L 138.772539 81.511178 
L 138.772539 76.268701 
L 138.912987 76.268701 
L 138.912987 74.695958 
L 139.052299 74.695958 
L 139.052299 68.929233 
L 139.190491 68.929233 
L 139.190491 63.162508 
L 139.327583 63.162508 
L 139.327583 60.017022 
L 139.598531 60.017022 
L 139.598531 57.395783 
L 139.732422 57.395783 
L 139.732422 55.82304 
L 139.865278 55.82304 
L 139.865278 54.774545 
L 139.997117 54.774545 
L 139.997117 50.056315 
L 140.127953 50.056315 
L 140.127953 49.532068 
L 140.257802 49.532068 
L 140.257802 42.716847 
L 140.386678 42.716847 
L 140.386678 39.571361 
L 140.514596 39.571361 
L 140.514596 39.047113 
L 140.89274 39.047113 
L 140.89274 37.47437 
L 141.140296 37.47437 
L 141.140296 36.425875 
L 141.262751 36.425875 
L 141.262751 32.756141 
L 141.505077 32.756141 
L 141.505077 31.183397 
L 141.624972 31.183397 
L 141.624972 28.562159 
L 141.862285 28.562159 
L 141.862285 28.037911 
L 142.555192 28.037911 
L 142.555192 27.513663 
L 333.429677 27.513663 
L 333.429677 27.513663 
" style="fill:none;stroke:#00bfbf;stroke-linecap:square;stroke-width:1.5;"/>
   </g>
   <g id="line2d_25">
    <defs>
     <path d="M -6 0 
L 6 0 
M 0 6 
L 0 -6 
" id="mbcd5c7a5b1" style="stroke:#00bfbf;stroke-width:1.5;"/>
    </defs>
    <g>
     <use style="fill-opacity:0;stroke:#00bfbf;stroke-width:1.5;" x="131.295765" xlink:href="#mbcd5c7a5b1" y="205.757888"/>
     <use style="fill-opacity:0;stroke:#00bfbf;stroke-width:1.5;" x="139.327583" xlink:href="#mbcd5c7a5b1" y="60.017022"/>
     <use style="fill-opacity:0;stroke:#00bfbf;stroke-width:1.5;" x="142.555192" xlink:href="#mbcd5c7a5b1" y="27.513663"/>
     <use style="fill-opacity:0;stroke:#00bfbf;stroke-width:1.5;" x="142.555192" xlink:href="#mbcd5c7a5b1" y="27.513663"/>
     <use style="fill-opacity:0;stroke:#00bfbf;stroke-width:1.5;" x="333.429677" xlink:href="#mbcd5c7a5b1" y="27.513663"/>
    </g>
   </g>
   <g id="line2d_26">
    <path style="fill:none;stroke:#00bfbf;stroke-linecap:square;stroke-width:1.5;"/>
    <g/>
   </g>
   <g id="line2d_27">
    <defs>
     <path d="M 0 1.5 
C 0.397805 1.5 0.77937 1.341951 1.06066 1.06066 
C 1.341951 0.77937 1.5 0.397805 1.5 0 
C 1.5 -0.397805 1.341951 -0.77937 1.06066 -1.06066 
C 0.77937 -1.341951 0.397805 -1.5 0 -1.5 
C -0.397805 -1.5 -0.77937 -1.341951 -1.06066 -1.06066 
C -1.341951 -0.77937 -1.5 -0.397805 -1.5 0 
C -1.5 0.397805 -1.341951 0.77937 -1.06066 1.06066 
C -0.77937 1.341951 -0.397805 1.5 0 1.5 
z
" id="m0a389b54fa" style="stroke:#008000;"/>
    </defs>
    <g>
     <use style="fill:#008000;stroke:#008000;" x="149.175364" xlink:href="#m0a389b54fa" y="27.513663"/>
     <use style="fill:#008000;stroke:#008000;" x="149.175364" xlink:href="#m0a389b54fa" y="27.513663"/>
    </g>
   </g>
   <g id="line2d_28">
    <path d="M 49.144027 294.88 
L 49.144027 268.667614 
L 105.848459 268.667614 
L 105.848459 267.619119 
L 106.47416 267.619119 
L 106.47416 264.473632 
L 107.077901 264.473632 
L 107.077901 263.949385 
L 107.661173 263.949385 
L 107.661173 263.425137 
L 108.225317 263.425137 
L 108.225317 260.279651 
L 108.771549 260.279651 
L 108.771549 259.231155 
L 109.300972 259.231155 
L 109.300972 256.609917 
L 109.814588 256.609917 
L 109.814588 251.367439 
L 110.313314 251.367439 
L 110.313314 248.221953 
L 113.035537 248.221953 
L 113.035537 247.173458 
L 117.773963 247.173458 
L 117.773963 246.64921 
L 119.003405 246.64921 
L 119.003405 246.124962 
L 120.697054 246.124962 
L 120.697054 245.600714 
L 121.485201 245.600714 
L 121.485201 245.076467 
L 121.991263 245.076467 
L 121.991263 244.552219 
L 122.238819 244.552219 
L 122.238819 241.93098 
L 122.482864 241.93098 
L 122.482864 241.406733 
L 122.960807 241.406733 
L 122.960807 240.882485 
L 123.194891 240.882485 
L 123.194891 239.83399 
L 123.653714 239.83399 
L 123.653714 239.309742 
L 123.878618 239.309742 
L 123.878618 238.785494 
L 124.100619 238.785494 
L 124.100619 237.736999 
L 124.319792 237.736999 
L 124.319792 237.212751 
L 124.536209 237.212751 
L 124.536209 236.688503 
L 124.749936 236.688503 
L 124.749936 235.640008 
L 124.961042 235.640008 
L 124.961042 234.067265 
L 125.579247 234.067265 
L 125.579247 233.543017 
L 125.979378 233.543017 
L 125.979378 231.970274 
L 126.56265 231.970274 
L 126.56265 231.446026 
L 126.940794 231.446026 
L 126.940794 230.397531 
L 127.492869 230.397531 
L 127.492869 229.873283 
L 128.202449 229.873283 
L 128.202449 229.349035 
L 128.375364 229.349035 
L 128.375364 227.776292 
L 128.716065 227.776292 
L 128.716065 227.252044 
L 129.050151 227.252044 
L 129.050151 226.203549 
L 133.665597 226.203549 
L 133.665597 225.679301 
L 134.886312 225.679301 
L 134.886312 224.630806 
L 136.568909 224.630806 
L 136.568909 224.106558 
L 137.095092 224.106558 
L 137.095092 222.533815 
L 137.403248 222.533815 
L 137.403248 222.009567 
L 137.904883 222.009567 
L 138.003478 219.912576 
L 138.295919 219.912576 
L 138.392305 216.76709 
L 138.488154 216.76709 
L 138.488154 216.242842 
L 138.772539 216.242842 
L 138.866299 215.194347 
L 138.95955 215.194347 
L 138.95955 214.145851 
L 139.23631 214.145851 
L 139.23631 213.097356 
L 139.418374 213.097356 
L 139.418374 212.04886 
L 139.598531 212.04886 
L 139.598531 211.524613 
L 139.776821 211.524613 
L 139.776821 211.000365 
L 139.953283 211.000365 
L 140.04084 208.379126 
L 140.127953 208.379126 
L 140.127953 206.806383 
L 140.300868 206.806383 
L 140.300868 204.185145 
L 140.557025 204.185145 
L 140.641569 202.612401 
L 140.725701 202.612401 
L 140.809423 201.563906 
L 140.89274 201.563906 
L 140.975655 196.845677 
L 141.058173 196.845677 
L 141.140296 194.748686 
L 141.303377 194.748686 
L 141.384341 192.651695 
L 141.464926 192.651695 
L 141.545135 190.554704 
L 141.624972 190.554704 
L 141.704441 187.933465 
L 141.783544 187.933465 
L 141.862285 186.88497 
L 141.940667 186.88497 
L 142.018694 184.787979 
L 142.096368 184.787979 
L 142.173693 180.06975 
L 142.250673 180.06975 
L 142.250673 179.545502 
L 142.403606 179.545502 
L 142.479566 174.303025 
L 142.555192 174.303025 
L 142.555192 173.254529 
L 142.705453 173.254529 
L 142.780095 171.157538 
L 142.854414 171.157538 
L 142.854414 169.584795 
L 143.002096 169.584795 
L 143.075465 168.012052 
L 143.148522 168.012052 
L 143.22127 165.915061 
L 143.293711 165.915061 
L 143.365849 162.245327 
L 143.437686 162.245327 
L 143.509224 158.575593 
L 143.580466 158.575593 
L 143.580466 157.00285 
L 143.72207 157.00285 
L 143.72207 154.381611 
L 143.862519 154.381611 
L 143.932316 149.663382 
L 144.00183 149.663382 
L 144.00183 147.566391 
L 144.140023 147.566391 
L 144.140023 142.848162 
L 144.277114 142.848162 
L 144.345252 137.081437 
L 144.413122 137.081437 
L 144.480724 133.93595 
L 144.548063 133.93595 
L 144.615138 130.790464 
L 144.681953 130.790464 
L 144.74851 124.499491 
L 144.81481 124.499491 
L 144.880856 118.208519 
L 144.946649 118.208519 
L 145.012191 114.538785 
L 145.142532 114.538785 
L 145.142532 113.490289 
L 145.271892 113.490289 
L 145.336209 108.247812 
L 145.400287 108.247812 
L 145.464127 106.675069 
L 145.527731 106.675069 
L 145.527731 100.384096 
L 145.654238 100.384096 
L 145.717145 97.23861 
L 145.779822 97.23861 
L 145.842271 90.947637 
L 145.904495 90.947637 
L 145.904495 86.753656 
L 146.028272 86.753656 
L 146.028272 82.035426 
L 146.212283 82.035426 
L 146.273185 76.268701 
L 146.333872 76.268701 
L 146.394347 74.17171 
L 146.454609 74.17171 
L 146.514661 69.453481 
L 146.574504 69.453481 
L 146.63414 63.686756 
L 146.752794 63.686756 
L 146.811816 60.017022 
L 146.870636 60.017022 
L 146.870636 59.492774 
L 146.987677 59.492774 
L 147.0459 57.395783 
L 147.161758 57.395783 
L 147.219395 53.726049 
L 147.276841 53.726049 
L 147.334095 49.532068 
L 147.391159 49.532068 
L 147.448035 47.435077 
L 147.504723 47.435077 
L 147.504723 46.910829 
L 147.617542 46.910829 
L 147.673676 44.28959 
L 147.729627 44.28959 
L 147.785396 40.095609 
L 147.840985 40.095609 
L 147.840985 37.47437 
L 148.006684 37.47437 
L 148.116269 34.328884 
L 148.170801 34.328884 
L 148.27935 31.707645 
L 148.333368 31.707645 
L 148.440899 29.086407 
L 148.494413 29.086407 
L 148.494413 28.562159 
L 148.653965 28.562159 
L 148.653965 28.037911 
L 149.175364 28.037911 
L 149.175364 27.513663 
L 333.429677 27.513663 
L 333.429677 27.513663 
" style="fill:none;stroke:#008000;stroke-linecap:square;stroke-width:1.5;"/>
   </g>
   <g id="line2d_29">
    <defs>
     <path d="M -0 6 
L 6 -6 
L -6 -6 
z
" id="m4e2f29406a" style="stroke:#008000;stroke-linejoin:miter;stroke-width:1.5;"/>
    </defs>
    <g>
     <use style="fill-opacity:0;stroke:#008000;stroke-linejoin:miter;stroke-width:1.5;" x="142.403606" xlink:href="#m4e2f29406a" y="174.827272"/>
     <use style="fill-opacity:0;stroke:#008000;stroke-linejoin:miter;stroke-width:1.5;" x="147.504723" xlink:href="#m4e2f29406a" y="46.910829"/>
     <use style="fill-opacity:0;stroke:#008000;stroke-linejoin:miter;stroke-width:1.5;" x="149.175364" xlink:href="#m4e2f29406a" y="28.037911"/>
     <use style="fill-opacity:0;stroke:#008000;stroke-linejoin:miter;stroke-width:1.5;" x="149.175364" xlink:href="#m4e2f29406a" y="27.513663"/>
     <use style="fill-opacity:0;stroke:#008000;stroke-linejoin:miter;stroke-width:1.5;" x="149.175364" xlink:href="#m4e2f29406a" y="27.513663"/>
     <use style="fill-opacity:0;stroke:#008000;stroke-linejoin:miter;stroke-width:1.5;" x="333.429677" xlink:href="#m4e2f29406a" y="27.513663"/>
    </g>
   </g>
   <g id="line2d_30">
    <path style="fill:none;stroke:#008000;stroke-linecap:square;stroke-width:1.5;"/>
    <g/>
   </g>
   <g id="line2d_31">
    <defs>
     <path d="M 0 1.5 
C 0.397805 1.5 0.77937 1.341951 1.06066 1.06066 
C 1.341951 0.77937 1.5 0.397805 1.5 0 
C 1.5 -0.397805 1.341951 -0.77937 1.06066 -1.06066 
C 0.77937 -1.341951 0.397805 -1.5 0 -1.5 
C -0.397805 -1.5 -0.77937 -1.341951 -1.06066 -1.06066 
C -1.341951 -0.77937 -1.5 -0.397805 -1.5 0 
C -1.5 0.397805 -1.341951 0.77937 -1.06066 1.06066 
C -0.77937 1.341951 -0.397805 1.5 0 1.5 
z
" id="med712bf5a6" style="stroke:#0000ff;"/>
    </defs>
    <g>
     <use style="fill:#0000ff;stroke:#0000ff;" x="198.998574" xlink:href="#med712bf5a6" y="27.513663"/>
     <use style="fill:#0000ff;stroke:#0000ff;" x="198.998574" xlink:href="#med712bf5a6" y="27.513663"/>
    </g>
   </g>
   <g id="line2d_32">
    <path d="M 40.355341 294.88 
L 40.355341 279.152568 
L 99.982863 279.152568 
L 99.982863 278.104073 
L 100.512285 278.104073 
L 100.512285 275.482834 
L 101.025901 275.482834 
L 101.025901 274.434339 
L 102.4807 274.434339 
L 102.4807 273.910091 
L 108.663681 273.910091 
L 108.663681 272.861596 
L 109.610977 272.861596 
L 109.610977 271.8131 
L 110.508826 271.8131 
L 110.508826 270.764605 
L 120.261464 270.764605 
L 120.261464 270.240357 
L 120.426105 270.240357 
L 120.426105 269.191862 
L 121.226476 269.191862 
L 121.226476 268.143366 
L 121.841001 268.143366 
L 121.841001 267.619119 
L 123.562923 267.619119 
L 123.562923 267.094871 
L 123.833872 267.094871 
L 123.833872 266.570623 
L 124.493143 266.570623 
L 124.493143 266.046375 
L 125.252304 266.046375 
L 125.252304 264.99788 
L 127.886754 264.99788 
L 127.886754 264.473632 
L 129.017032 264.473632 
L 129.017032 263.949385 
L 129.312825 263.949385 
L 129.410304 262.376641 
L 129.699468 262.376641 
L 129.699468 261.852394 
L 130.629687 261.852394 
L 130.629687 260.803898 
L 130.899221 260.803898 
L 130.899221 260.279651 
L 131.164597 260.279651 
L 131.164597 259.755403 
L 131.339267 259.755403 
L 131.339267 259.231155 
L 131.937015 259.231155 
L 131.937015 258.706907 
L 132.269486 258.706907 
L 132.269486 258.18266 
L 132.51469 258.18266 
L 132.595654 256.609917 
L 133.15198 256.609917 
L 133.15198 256.085669 
L 133.307682 256.085669 
L 133.307682 255.561421 
L 134.065728 255.561421 
L 134.065728 254.512926 
L 135.759376 254.512926 
L 135.759376 253.988678 
L 136.611601 253.988678 
L 136.611601 253.46443 
L 137.177808 253.46443 
L 137.177808 252.940182 
L 137.725974 252.940182 
L 137.725974 252.415935 
L 137.964108 252.415935 
L 137.964108 251.891687 
L 138.31524 251.891687 
L 138.31524 251.367439 
L 138.430709 251.367439 
L 138.430709 250.318944 
L 138.772539 250.318944 
L 138.772539 249.794696 
L 139.598531 249.794696 
L 139.598531 248.221953 
L 140.742478 248.221953 
L 140.742478 247.173458 
L 141.956301 247.173458 
L 141.956301 245.600714 
L 142.600408 245.600714 
L 142.600408 245.076467 
L 143.002096 245.076467 
L 143.090101 242.979476 
L 143.351446 242.979476 
L 143.351446 241.93098 
L 143.651414 241.93098 
L 143.651414 241.406733 
L 145.578446 241.406733 
L 145.578446 240.882485 
L 148.424812 240.882485 
L 148.424812 240.358237 
L 148.680414 240.358237 
L 148.680414 239.83399 
L 149.333841 239.83399 
L 149.333841 239.309742 
L 149.741166 239.309742 
L 149.830387 237.736999 
L 149.919148 237.736999 
L 149.919148 236.688503 
L 150.61322 236.688503 
L 150.61322 236.164255 
L 150.75436 236.164255 
L 150.75436 235.640008 
L 151.870007 235.640008 
L 151.975075 234.591512 
L 152.183306 234.591512 
L 152.209159 233.543017 
L 152.617602 233.543017 
L 152.617602 233.018769 
L 152.818244 233.018769 
L 152.892886 231.970274 
L 153.090361 231.970274 
L 153.090361 231.446026 
L 153.309845 231.446026 
L 153.406502 228.30054 
L 153.669542 228.30054 
L 153.764205 226.203549 
L 153.928621 226.203549 
L 153.97531 225.155053 
L 154.389905 225.155053 
L 154.389905 224.630806 
L 154.571011 224.630806 
L 154.593515 223.58231 
L 154.683241 223.58231 
L 154.683241 223.058063 
L 154.794744 223.058063 
L 154.905529 220.961072 
L 155.015605 220.961072 
L 155.081315 219.912576 
L 155.190276 219.912576 
L 155.27695 218.864081 
L 155.341671 218.864081 
L 155.341671 218.339833 
L 155.470386 218.339833 
L 155.513078 215.718594 
L 156.017286 215.718594 
L 156.120495 214.145851 
L 156.202619 214.145851 
L 156.263955 212.04886 
L 156.365699 212.04886 
L 156.406229 209.95187 
L 156.487003 209.95187 
L 156.487003 209.427622 
L 156.607458 209.427622 
L 156.607458 208.379126 
L 156.727075 208.379126 
L 156.776671 206.806383 
L 156.865585 206.806383 
L 156.904956 199.466915 
L 157.012762 199.466915 
L 157.012762 198.942667 
L 157.15869 198.942667 
L 157.15869 198.41842 
L 157.370505 198.41842 
L 157.370505 197.894172 
L 157.541888 197.894172 
L 157.541888 197.369924 
L 157.655203 197.369924 
L 157.702198 196.321429 
L 157.916737 196.321429 
L 158.009186 193.70019 
L 158.174354 193.70019 
L 158.256348 191.603199 
L 158.301731 191.603199 
L 158.346995 190.554704 
L 158.589384 190.554704 
L 158.589384 187.409218 
L 158.784393 187.409218 
L 158.837195 185.312227 
L 158.907348 185.312227 
L 158.942317 183.215236 
L 159.029431 183.215236 
L 159.029431 182.690988 
L 159.150653 182.690988 
L 159.253883 180.06975 
L 159.475444 180.06975 
L 159.534611 179.021254 
L 159.794217 179.021254 
L 159.794217 178.497006 
L 160.09086 178.497006 
L 160.156092 176.400016 
L 160.261569 176.400016 
L 160.334215 173.254529 
L 160.374441 173.254529 
L 160.478592 171.681786 
L 160.494559 171.681786 
L 160.518483 170.633291 
L 160.653423 170.633291 
L 160.653423 170.109043 
L 160.826496 170.109043 
L 160.920171 168.012052 
L 160.982338 168.012052 
L 161.021079 166.439309 
L 161.144468 166.439309 
L 161.190511 164.866566 
L 161.327906 164.866566 
L 161.411333 162.769575 
L 161.449121 162.769575 
L 161.546983 161.196832 
L 161.569488 161.196832 
L 161.674123 159.624089 
L 161.800329 159.624089 
L 161.89622 157.527098 
L 161.932959 157.527098 
L 162.028115 155.430107 
L 162.108222 155.430107 
L 162.166249 154.381611 
L 162.32482 154.381611 
L 162.32482 153.857364 
L 162.467718 153.857364 
L 162.545809 151.236125 
L 162.71497 151.236125 
L 162.805908 149.663382 
L 162.868585 149.663382 
L 162.868585 149.139134 
L 162.986356 149.139134 
L 163.062134 147.566391 
L 163.233124 147.566391 
L 163.287483 146.517896 
L 163.382202 146.517896 
L 163.48311 144.420905 
L 163.529999 144.420905 
L 163.529999 143.896657 
L 163.782333 143.896657 
L 163.834987 142.848162 
L 164.024521 142.848162 
L 164.134663 140.751171 
L 164.179812 140.751171 
L 164.282566 138.65418 
L 164.38471 138.65418 
L 164.422859 136.557189 
L 164.517861 136.557189 
L 164.580906 134.984446 
L 164.668782 134.984446 
L 164.712552 133.411703 
L 164.81839 133.411703 
L 164.81839 132.887455 
L 164.954398 132.887455 
L 165.022001 131.314712 
L 165.089339 131.314712 
L 165.192891 129.217721 
L 165.223229 129.217721 
L 165.332007 127.12073 
L 165.362101 127.12073 
L 165.410142 126.072235 
L 165.493894 126.072235 
L 165.493894 125.547987 
L 165.677905 125.547987 
L 165.677905 124.499491 
L 165.865809 124.499491 
L 165.964805 123.450996 
L 166.224137 123.450996 
L 166.292637 122.4025 
L 166.366538 122.4025 
L 166.417516 120.829757 
L 166.586358 120.829757 
L 166.619928 118.732766 
L 166.825511 118.732766 
L 166.913657 117.684271 
L 166.957561 117.684271 
L 167.045034 116.111528 
L 167.088604 116.111528 
L 167.088604 115.58728 
L 167.406573 115.58728 
L 167.41725 114.014537 
L 167.608299 114.014537 
L 167.697785 112.966042 
L 167.864976 112.966042 
L 167.901333 111.917546 
L 168.061427 111.917546 
L 168.061427 111.393298 
L 168.184356 111.393298 
L 168.184356 110.869051 
L 168.331733 110.869051 
L 168.412507 109.820555 
L 168.452753 109.820555 
L 168.557951 108.247812 
L 168.66251 108.247812 
L 168.736808 106.675069 
L 168.884448 106.675069 
L 168.889347 105.626573 
L 169.035689 105.626573 
L 169.055108 104.578078 
L 169.16152 104.578078 
L 169.219287 103.005335 
L 169.300793 103.005335 
L 169.353327 101.432592 
L 169.528864 101.432592 
L 169.632395 100.384096 
L 169.916241 100.384096 
L 169.971532 98.811353 
L 170.049559 98.811353 
L 170.049559 97.762858 
L 170.190938 97.762858 
L 170.249882 96.190115 
L 170.679021 96.190115 
L 170.70549 95.141619 
L 170.81096 95.141619 
L 170.824099 93.568876 
L 171.028636 93.568876 
L 171.028636 93.044628 
L 171.294785 93.044628 
L 171.362805 91.471885 
L 171.51908 91.471885 
L 171.577842 90.42339 
L 171.665612 90.42339 
L 171.715565 89.374894 
L 171.81504 89.374894 
L 171.860441 88.326399 
L 171.926265 88.326399 
L 172.020449 86.229408 
L 172.040856 86.229408 
L 172.040856 85.70516 
L 172.187073 85.70516 
L 172.247633 84.656665 
L 172.43203 84.656665 
L 172.475833 83.608169 
L 172.598683 83.608169 
L 172.697121 82.559674 
L 172.791094 82.559674 
L 172.791094 82.035426 
L 172.931098 82.035426 
L 172.973651 80.986931 
L 173.245807 80.986931 
L 173.321699 78.88994 
L 173.453711 78.88994 
L 173.453711 78.365692 
L 173.836429 78.365692 
L 173.836429 77.841444 
L 173.99736 77.841444 
L 174.051881 76.792949 
L 174.117078 76.792949 
L 174.19643 75.220206 
L 174.336206 75.220206 
L 174.39678 73.647463 
L 174.496087 73.647463 
L 174.524355 72.598967 
L 174.682505 72.598967 
L 174.78366 71.550472 
L 174.884222 71.550472 
L 174.884222 71.026224 
L 175.015111 71.026224 
L 175.114334 68.404985 
L 175.196019 68.404985 
L 175.196019 67.880738 
L 175.368322 67.880738 
L 175.401906 66.832242 
L 175.525598 66.832242 
L 175.592091 65.783747 
L 175.985737 65.783747 
L 176.011662 64.735251 
L 176.259219 64.735251 
L 176.259219 64.211004 
L 176.455993 64.211004 
L 176.455993 63.686756 
L 176.578627 63.686756 
L 176.578627 63.162508 
L 177.133571 63.162508 
L 177.175993 62.114013 
L 177.299628 62.114013 
L 177.356623 60.54127 
L 177.535376 60.54127 
L 177.535376 60.017022 
L 177.791314 60.017022 
L 177.791314 59.492774 
L 178.15536 59.492774 
L 178.15536 58.968526 
L 178.283532 58.968526 
L 178.283532 58.444279 
L 178.67629 58.444279 
L 178.784123 56.871536 
L 178.869357 56.871536 
L 178.943251 55.298792 
L 179.046714 55.298792 
L 179.046714 54.774545 
L 179.326737 54.774545 
L 179.353424 53.726049 
L 179.528525 53.726049 
L 179.528525 53.201802 
L 179.821648 53.201802 
L 179.907071 52.153306 
L 180.015181 52.153306 
L 180.114964 50.580563 
L 180.158279 50.580563 
L 180.158279 50.056315 
L 180.310288 50.056315 
L 180.310288 49.532068 
L 180.706737 49.532068 
L 180.726445 48.483572 
L 180.875979 48.483572 
L 180.953906 47.435077 
L 181.343086 47.435077 
L 181.359706 46.386581 
L 181.628133 46.386581 
L 181.628133 45.862334 
L 181.880928 45.862334 
L 181.880928 45.338086 
L 182.522655 45.338086 
L 182.547035 44.28959 
L 182.869574 44.28959 
L 182.869574 43.765343 
L 183.057655 43.765343 
L 183.137024 42.716847 
L 183.275576 42.716847 
L 183.368736 41.668352 
L 183.455092 41.668352 
L 183.467693 40.095609 
L 184.01117 40.095609 
L 184.01117 39.571361 
L 184.146921 39.571361 
L 184.22545 38.522865 
L 184.421212 38.522865 
L 184.421212 37.998618 
L 184.775072 37.998618 
L 184.775072 37.47437 
L 185.053012 37.47437 
L 185.053012 36.950122 
L 185.349131 36.950122 
L 185.349131 36.425875 
L 187.167301 36.425875 
L 187.167301 35.901627 
L 187.37599 35.901627 
L 187.396052 34.853131 
L 187.515936 34.853131 
L 187.515936 34.328884 
L 187.7057 34.328884 
L 187.7057 33.804636 
L 188.167158 33.804636 
L 188.219799 32.756141 
L 188.354653 32.756141 
L 188.354653 32.231893 
L 188.574486 32.231893 
L 188.574486 31.707645 
L 188.849993 31.707645 
L 188.849993 31.183397 
L 189.400015 31.183397 
L 189.400015 30.65915 
L 191.362722 30.65915 
L 191.362722 30.134902 
L 191.792505 30.134902 
L 191.792505 29.610654 
L 192.390222 29.610654 
L 192.390222 29.086407 
L 196.79856 29.086407 
L 196.79856 28.562159 
L 198.785293 28.562159 
L 198.785293 28.037911 
L 198.998574 28.037911 
L 198.998574 27.513663 
L 333.429677 27.513663 
L 333.429677 27.513663 
" style="fill:none;stroke:#0000ff;stroke-linecap:square;stroke-width:1.5;"/>
   </g>
   <g id="line2d_33">
    <defs>
     <path d="M 0 -6 
L -1.347084 -1.854102 
L -5.706339 -1.854102 
L -2.179628 0.708204 
L -3.526712 4.854102 
L -0 2.291796 
L 3.526712 4.854102 
L 2.179628 0.708204 
L 5.706339 -1.854102 
L 1.347084 -1.854102 
z
" id="m1ab045ba44" style="stroke:#0000ff;stroke-linejoin:bevel;stroke-width:1.5;"/>
    </defs>
    <g>
     <use style="fill-opacity:0;stroke:#0000ff;stroke-linejoin:bevel;stroke-width:1.5;" x="110.508826" xlink:href="#m1ab045ba44" y="270.764605"/>
     <use style="fill-opacity:0;stroke:#0000ff;stroke-linejoin:bevel;stroke-width:1.5;" x="164.81839" xlink:href="#m1ab045ba44" y="132.887455"/>
     <use style="fill-opacity:0;stroke:#0000ff;stroke-linejoin:bevel;stroke-width:1.5;" x="198.998574" xlink:href="#m1ab045ba44" y="28.037911"/>
     <use style="fill-opacity:0;stroke:#0000ff;stroke-linejoin:bevel;stroke-width:1.5;" x="198.998574" xlink:href="#m1ab045ba44" y="27.513663"/>
     <use style="fill-opacity:0;stroke:#0000ff;stroke-linejoin:bevel;stroke-width:1.5;" x="198.998574" xlink:href="#m1ab045ba44" y="27.513663"/>
     <use style="fill-opacity:0;stroke:#0000ff;stroke-linejoin:bevel;stroke-width:1.5;" x="333.429677" xlink:href="#m1ab045ba44" y="27.513663"/>
    </g>
   </g>
   <g id="line2d_34">
    <path style="fill:none;stroke:#0000ff;stroke-linecap:square;stroke-width:1.5;"/>
    <g/>
   </g>
   <g id="line2d_35">
    <path clip-path="url(#pcc99a475da)" d="M 134.915747 254.512926 
" style="fill:none;stroke:#0000ff;stroke-linecap:square;stroke-width:1.5;"/>
    <defs>
     <path d="M -12 12 
L 12 -12 
M -12 -12 
L 12 12 
" id="mf88e0704d9" style="stroke:#0000ff;stroke-width:3;"/>
    </defs>
    <g clip-path="url(#pcc99a475da)">
     <use style="fill:#0000ff;stroke:#0000ff;stroke-width:3;" x="134.915747" xlink:href="#mf88e0704d9" y="254.512926"/>
    </g>
   </g>
   <g id="line2d_36">
    <defs>
     <path d="M 0 1.5 
C 0.397805 1.5 0.77937 1.341951 1.06066 1.06066 
C 1.341951 0.77937 1.5 0.397805 1.5 0 
C 1.5 -0.397805 1.341951 -0.77937 1.06066 -1.06066 
C 0.77937 -1.341951 0.397805 -1.5 0 -1.5 
C -0.397805 -1.5 -0.77937 -1.341951 -1.06066 -1.06066 
C -1.341951 -0.77937 -1.5 -0.397805 -1.5 0 
C -1.5 0.397805 -1.341951 0.77937 -1.06066 1.06066 
C -0.77937 1.341951 -0.397805 1.5 0 1.5 
z
" id="m36b0ebcd59" style="stroke:#000000;"/>
    </defs>
    <g>
     <use style="stroke:#000000;" x="210.012258" xlink:href="#m36b0ebcd59" y="258.18266"/>
     <use style="stroke:#000000;" x="210.012258" xlink:href="#m36b0ebcd59" y="258.18266"/>
    </g>
   </g>
   <g id="line2d_37">
    <path d="M 28.429836 294.88 
L 28.429836 284.395046 
L 123.007879 284.395046 
L 123.007879 283.870798 
L 126.733844 283.870798 
L 126.733844 283.34655 
L 132.145561 283.34655 
L 132.145561 282.822302 
L 132.433343 282.822302 
L 132.433343 281.773807 
L 134.250133 281.773807 
L 134.250133 280.725312 
L 135.247796 280.725312 
L 135.247796 280.201064 
L 137.362478 280.201064 
L 137.362478 279.676816 
L 139.997117 279.676816 
L 139.997117 279.152568 
L 143.068142 279.152568 
L 143.068142 278.628321 
L 143.799459 278.628321 
L 143.799459 277.579825 
L 143.98795 277.579825 
L 143.98795 276.53133 
L 146.083682 276.53133 
L 146.083682 276.007082 
L 148.165356 276.007082 
L 148.165356 275.482834 
L 151.088446 275.482834 
L 151.088446 274.958587 
L 152.363464 274.958587 
L 152.363464 274.434339 
L 153.127137 274.434339 
L 153.127137 273.910091 
L 153.716938 273.910091 
L 153.716938 273.385844 
L 154.660853 273.385844 
L 154.660853 272.861596 
L 155.255322 272.861596 
L 155.255322 272.337348 
L 156.826124 272.337348 
L 156.826124 271.8131 
L 157.293783 271.8131 
L 157.293783 270.764605 
L 157.556093 270.764605 
L 157.556093 270.240357 
L 157.626944 270.240357 
L 157.626944 269.716109 
L 158.256348 269.716109 
L 158.256348 269.191862 
L 159.610385 269.191862 
L 159.610385 268.143366 
L 163.243329 268.143366 
L 163.243329 267.619119 
L 164.634313 267.619119 
L 164.634313 267.094871 
L 164.89271 267.094871 
L 164.89271 266.570623 
L 164.929749 266.570623 
L 164.929749 266.046375 
L 165.144238 266.046375 
L 165.144238 265.522128 
L 165.147283 265.522128 
L 165.147283 264.99788 
L 165.419135 264.99788 
L 165.419135 264.473632 
L 165.556441 264.473632 
L 165.556441 263.949385 
L 166.355189 263.949385 
L 166.355189 263.425137 
L 168.955355 263.425137 
L 168.955355 262.900889 
L 170.202289 262.900889 
L 170.202289 262.376641 
L 173.26671 262.376641 
L 173.26671 261.852394 
L 177.449211 261.852394 
L 177.449211 261.328146 
L 177.59455 261.328146 
L 177.59455 260.279651 
L 180.176083 260.279651 
L 180.176083 259.755403 
L 184.146921 259.755403 
L 184.146921 259.231155 
L 203.769373 259.231155 
L 203.769373 258.706907 
L 210.012258 258.706907 
L 210.012258 258.18266 
L 333.429677 258.18266 
" style="fill:none;stroke:#000000;stroke-linecap:square;stroke-width:1.5;"/>
   </g>
   <g id="line2d_38">
    <defs>
     <path d="M 0 6 
C 1.591219 6 3.117479 5.367802 4.242641 4.242641 
C 5.367802 3.117479 6 1.591219 6 0 
C 6 -1.591219 5.367802 -3.117479 4.242641 -4.242641 
C 3.117479 -5.367802 1.591219 -6 0 -6 
C -1.591219 -6 -3.117479 -5.367802 -4.242641 -4.242641 
C -5.367802 -3.117479 -6 -1.591219 -6 0 
C -6 1.591219 -5.367802 3.117479 -4.242641 4.242641 
C -3.117479 5.367802 -1.591219 6 0 6 
z
" id="m980ae253a8" style="stroke:#000000;stroke-width:1.5;"/>
    </defs>
    <g>
     <use style="fill-opacity:0;stroke:#000000;stroke-width:1.5;" x="166.355189" xlink:href="#m980ae253a8" y="263.425137"/>
     <use style="fill-opacity:0;stroke:#000000;stroke-width:1.5;" x="210.012258" xlink:href="#m980ae253a8" y="258.706907"/>
     <use style="fill-opacity:0;stroke:#000000;stroke-width:1.5;" x="210.012258" xlink:href="#m980ae253a8" y="258.18266"/>
     <use style="fill-opacity:0;stroke:#000000;stroke-width:1.5;" x="210.012258" xlink:href="#m980ae253a8" y="258.18266"/>
     <use style="fill-opacity:0;stroke:#000000;stroke-width:1.5;" x="333.429677" xlink:href="#m980ae253a8" y="258.18266"/>
    </g>
   </g>
   <g id="line2d_39">
    <path style="fill:none;stroke:#000000;stroke-linecap:square;stroke-width:1.5;"/>
    <g/>
   </g>
   <g id="line2d_40">
    <path clip-path="url(#pcc99a475da)" d="M 147.276841 276.007082 
" style="fill:none;stroke:#000000;stroke-linecap:square;stroke-width:1.5;"/>
    <defs>
     <path d="M -12 12 
L 12 -12 
M -12 -12 
L 12 12 
" id="m6b0091857a" style="stroke:#000000;stroke-width:3;"/>
    </defs>
    <g clip-path="url(#pcc99a475da)">
     <use style="stroke:#000000;stroke-width:3;" x="147.276841" xlink:href="#m6b0091857a" y="276.007082"/>
    </g>
   </g>
   <g id="line2d_41">
    <defs>
     <path d="M 0 1.5 
C 0.397805 1.5 0.77937 1.341951 1.06066 1.06066 
C 1.341951 0.77937 1.5 0.397805 1.5 0 
C 1.5 -0.397805 1.341951 -0.77937 1.06066 -1.06066 
C 0.77937 -1.341951 0.397805 -1.5 0 -1.5 
C -0.397805 -1.5 -0.77937 -1.341951 -1.06066 -1.06066 
C -1.341951 -0.77937 -1.5 -0.397805 -1.5 0 
C -1.5 0.397805 -1.341951 0.77937 -1.06066 1.06066 
C -0.77937 1.341951 -0.397805 1.5 0 1.5 
z
" id="m7749e3d64e" style="stroke:#ff0000;"/>
    </defs>
    <g>
     <use style="fill:#ff0000;stroke:#ff0000;" x="203.775984" xlink:href="#m7749e3d64e" y="284.395046"/>
     <use style="fill:#ff0000;stroke:#ff0000;" x="203.775984" xlink:href="#m7749e3d64e" y="284.395046"/>
    </g>
   </g>
   <g id="line2d_42">
    <path d="M 143.405397 294.88 
L 143.405397 294.355752 
L 144.831345 294.355752 
L 144.831345 293.307257 
L 145.155512 293.307257 
L 145.155512 291.734514 
L 146.138914 291.734514 
L 146.138914 291.210266 
L 150.606133 291.210266 
L 150.606133 290.686018 
L 154.644044 290.686018 
L 154.644044 290.161771 
L 158.828406 290.161771 
L 158.828406 289.637523 
L 164.215203 289.637523 
L 164.215203 289.113275 
L 173.816206 289.113275 
L 173.816206 288.589027 
L 177.151007 288.589027 
L 177.151007 288.06478 
L 179.943183 288.06478 
L 179.943183 287.540532 
L 189.560251 287.540532 
L 189.560251 287.016284 
L 189.560619 287.016284 
L 189.560619 286.492036 
L 190.974594 286.492036 
L 190.974594 285.967789 
L 194.627982 285.967789 
L 194.627982 285.443541 
L 198.538761 285.443541 
L 198.538761 284.919293 
L 203.775984 284.919293 
L 203.775984 284.395046 
L 333.429677 284.395046 
" style="fill:none;stroke:#ff0000;stroke-linecap:square;stroke-width:1.5;"/>
   </g>
   <g id="line2d_43">
    <defs>
     <path d="M -6 6 
L 6 6 
L 6 -6 
L -6 -6 
z
" id="m8f2749dac6" style="stroke:#ff0000;stroke-linejoin:miter;stroke-width:1.5;"/>
    </defs>
    <g>
     <use style="fill-opacity:0;stroke:#ff0000;stroke-linejoin:miter;stroke-width:1.5;" x="203.775984" xlink:href="#m8f2749dac6" y="284.919293"/>
     <use style="fill-opacity:0;stroke:#ff0000;stroke-linejoin:miter;stroke-width:1.5;" x="203.775984" xlink:href="#m8f2749dac6" y="284.395046"/>
     <use style="fill-opacity:0;stroke:#ff0000;stroke-linejoin:miter;stroke-width:1.5;" x="203.775984" xlink:href="#m8f2749dac6" y="284.395046"/>
     <use style="fill-opacity:0;stroke:#ff0000;stroke-linejoin:miter;stroke-width:1.5;" x="203.775984" xlink:href="#m8f2749dac6" y="284.395046"/>
     <use style="fill-opacity:0;stroke:#ff0000;stroke-linejoin:miter;stroke-width:1.5;" x="333.429677" xlink:href="#m8f2749dac6" y="284.395046"/>
    </g>
   </g>
   <g id="line2d_44">
    <path style="fill:none;stroke:#ff0000;stroke-linecap:square;stroke-width:1.5;"/>
    <g/>
   </g>
   <g id="line2d_45">
    <path clip-path="url(#pcc99a475da)" d="M 147.276841 291.210266 
" style="fill:none;stroke:#ff0000;stroke-linecap:square;stroke-width:1.5;"/>
    <defs>
     <path d="M -12 12 
L 12 -12 
M -12 -12 
L 12 12 
" id="m84bb2d4437" style="stroke:#ff0000;stroke-width:3;"/>
    </defs>
    <g clip-path="url(#pcc99a475da)">
     <use style="fill:#ff0000;stroke:#ff0000;stroke-width:3;" x="147.276841" xlink:href="#m84bb2d4437" y="291.210266"/>
    </g>
   </g>
   <g id="line2d_46">
    <path clip-path="url(#pcc99a475da)" d="M 56.12 294.88 
L 56.12 294.88 
L 56.12 294.88 
L 56.12 294.88 
L 399.984 294.88 
" style="fill:none;stroke:#bf00bf;stroke-linecap:square;stroke-width:1.5;"/>
   </g>
   <g id="line2d_47">
    <defs>
     <path d="M -0 8.485281 
L 8.485281 0 
L 0 -8.485281 
L -8.485281 -0 
z
" id="me9ba7f4f26" style="stroke:#bf00bf;stroke-linejoin:miter;stroke-width:1.5;"/>
    </defs>
    <g clip-path="url(#pcc99a475da)">
     <use style="fill-opacity:0;stroke:#bf00bf;stroke-linejoin:miter;stroke-width:1.5;" x="56.12" xlink:href="#me9ba7f4f26" y="294.88"/>
    </g>
   </g>
   <g id="line2d_48">
    <path clip-path="url(#pcc99a475da)" style="fill:none;stroke:#bf00bf;stroke-linecap:square;stroke-width:1.5;"/>
    <g clip-path="url(#pcc99a475da)">
     <use style="fill-opacity:0;stroke:#bf00bf;stroke-linejoin:miter;stroke-width:1.5;" x="-1" xlink:href="#me9ba7f4f26" y="562.246337"/>
     <use style="fill-opacity:0;stroke:#bf00bf;stroke-linejoin:miter;stroke-width:1.5;" x="399.984" xlink:href="#me9ba7f4f26" y="562.246337"/>
    </g>
   </g>
   <g id="line2d_49">
    <path d="M 333.429677 294.88 
L 363.933742 289.532673 
" style="fill:none;stroke:#bf00bf;stroke-linecap:square;stroke-width:1.5;"/>
    <g>
     <use style="fill-opacity:0;stroke:#bf00bf;stroke-linejoin:miter;stroke-width:1.5;" x="333.429677" xlink:href="#me9ba7f4f26" y="294.88"/>
     <use style="fill-opacity:0;stroke:#bf00bf;stroke-linejoin:miter;stroke-width:1.5;" x="363.933742" xlink:href="#me9ba7f4f26" y="289.532673"/>
    </g>
   </g>
   <g id="line2d_50">
    <path d="M 333.429677 284.395046 
L 363.933742 238.198337 
" style="fill:none;stroke:#ff0000;stroke-linecap:square;stroke-width:1.5;"/>
    <g>
     <use style="fill-opacity:0;stroke:#ff0000;stroke-linejoin:miter;stroke-width:1.5;" x="333.429677" xlink:href="#m8f2749dac6" y="284.395046"/>
     <use style="fill-opacity:0;stroke:#ff0000;stroke-linejoin:miter;stroke-width:1.5;" x="363.933742" xlink:href="#m8f2749dac6" y="238.198337"/>
    </g>
   </g>
   <g id="line2d_51">
    <path d="M 333.429677 258.18266 
L 363.933742 186.864 
" style="fill:none;stroke:#000000;stroke-linecap:square;stroke-width:1.5;"/>
    <g>
     <use style="fill-opacity:0;stroke:#000000;stroke-width:1.5;" x="333.429677" xlink:href="#m980ae253a8" y="258.18266"/>
     <use style="fill-opacity:0;stroke:#000000;stroke-width:1.5;" x="363.933742" xlink:href="#m980ae253a8" y="186.864"/>
    </g>
   </g>
   <g id="line2d_52">
    <path d="M 333.429677 27.513663 
L 363.933742 135.529663 
" style="fill:none;stroke:#0000ff;stroke-linecap:square;stroke-width:1.5;"/>
    <g>
     <use style="fill-opacity:0;stroke:#0000ff;stroke-linejoin:bevel;stroke-width:1.5;" x="333.429677" xlink:href="#m1ab045ba44" y="27.513663"/>
     <use style="fill-opacity:0;stroke:#0000ff;stroke-linejoin:bevel;stroke-width:1.5;" x="363.933742" xlink:href="#m1ab045ba44" y="135.529663"/>
    </g>
   </g>
   <g id="line2d_53">
    <path d="M 333.429677 27.513663 
L 363.933742 84.195327 
" style="fill:none;stroke:#008000;stroke-linecap:square;stroke-width:1.5;"/>
    <g>
     <use style="fill-opacity:0;stroke:#008000;stroke-linejoin:miter;stroke-width:1.5;" x="333.429677" xlink:href="#m4e2f29406a" y="27.513663"/>
     <use style="fill-opacity:0;stroke:#008000;stroke-linejoin:miter;stroke-width:1.5;" x="363.933742" xlink:href="#m4e2f29406a" y="84.195327"/>
    </g>
   </g>
   <g id="line2d_54">
    <path d="M 333.429677 27.513663 
L 363.933742 32.86099 
" style="fill:none;stroke:#00bfbf;stroke-linecap:square;stroke-width:1.5;"/>
    <g>
     <use style="fill-opacity:0;stroke:#00bfbf;stroke-width:1.5;" x="333.429677" xlink:href="#mbcd5c7a5b1" y="27.513663"/>
     <use style="fill-opacity:0;stroke:#00bfbf;stroke-width:1.5;" x="363.933742" xlink:href="#mbcd5c7a5b1" y="32.86099"/>
    </g>
   </g>
   <g id="line2d_55">
    <path d="M 333.429677 294.88 
L 333.429677 27.513663 
" style="fill:none;stroke:#000000;stroke-linecap:square;stroke-width:1.5;"/>
   </g>
   <g id="patch_3">
    <path d="M 56.12 294.88 
L 56.12 24.84 
" style="fill:none;stroke:#000000;stroke-linecap:square;stroke-linejoin:miter;stroke-width:0.8;"/>
   </g>
   <g id="patch_4">
    <path d="M 399.984 294.88 
L 399.984 24.84 
" style="fill:none;stroke:#000000;stroke-linecap:square;stroke-linejoin:miter;stroke-width:0.8;"/>
   </g>
   <g id="patch_5">
    <path d="M 56.12 294.88 
L 399.984 294.88 
" style="fill:none;stroke:#000000;stroke-linecap:square;stroke-linejoin:miter;stroke-width:0.8;"/>
   </g>
   <g id="patch_6">
    <path d="M 56.12 24.84 
L 399.984 24.84 
" style="fill:none;stroke:#000000;stroke-linecap:square;stroke-linejoin:miter;stroke-width:0.8;"/>
   </g>
   <g id="text_14">
    <!-- 40-D -->
    <defs>
     <path d="M 19.671875 64.796875 
L 19.671875 8.109375 
L 31.59375 8.109375 
Q 46.6875 8.109375 53.6875 14.9375 
Q 60.6875 21.78125 60.6875 36.53125 
Q 60.6875 51.171875 53.6875 57.984375 
Q 46.6875 64.796875 31.59375 64.796875 
z
M 9.8125 72.90625 
L 30.078125 72.90625 
Q 51.265625 72.90625 61.171875 64.09375 
Q 71.09375 55.28125 71.09375 36.53125 
Q 71.09375 17.671875 61.125 8.828125 
Q 51.171875 0 30.078125 0 
L 9.8125 0 
z
" id="DejaVuSans-44"/>
    </defs>
    <g transform="translate(369.479935 294.223611)scale(0.17 -0.17)">
     <use xlink:href="#DejaVuSans-34"/>
     <use x="63.623047" xlink:href="#DejaVuSans-30"/>
     <use x="127.246094" xlink:href="#DejaVuSans-2d"/>
     <use x="163.330078" xlink:href="#DejaVuSans-44"/>
    </g>
   </g>
   <g id="text_15">
    <!-- 20-D -->
    <g transform="translate(369.479935 242.889274)scale(0.17 -0.17)">
     <use xlink:href="#DejaVuSans-32"/>
     <use x="63.623047" xlink:href="#DejaVuSans-30"/>
     <use x="127.246094" xlink:href="#DejaVuSans-2d"/>
     <use x="163.330078" xlink:href="#DejaVuSans-44"/>
    </g>
   </g>
   <g id="text_16">
    <!-- 10-D -->
    <g transform="translate(369.479935 191.554937)scale(0.17 -0.17)">
     <use xlink:href="#DejaVuSans-31"/>
     <use x="63.623047" xlink:href="#DejaVuSans-30"/>
     <use x="127.246094" xlink:href="#DejaVuSans-2d"/>
     <use x="163.330078" xlink:href="#DejaVuSans-44"/>
    </g>
   </g>
   <g id="text_17">
    <!-- 5-D -->
    <defs>
     <path d="M 10.796875 72.90625 
L 49.515625 72.90625 
L 49.515625 64.59375 
L 19.828125 64.59375 
L 19.828125 46.734375 
Q 21.96875 47.46875 24.109375 47.828125 
Q 26.265625 48.1875 28.421875 48.1875 
Q 40.625 48.1875 47.75 41.5 
Q 54.890625 34.8125 54.890625 23.390625 
Q 54.890625 11.625 47.5625 5.09375 
Q 40.234375 -1.421875 26.90625 -1.421875 
Q 22.3125 -1.421875 17.546875 -0.640625 
Q 12.796875 0.140625 7.71875 1.703125 
L 7.71875 11.625 
Q 12.109375 9.234375 16.796875 8.0625 
Q 21.484375 6.890625 26.703125 6.890625 
Q 35.15625 6.890625 40.078125 11.328125 
Q 45.015625 15.765625 45.015625 23.390625 
Q 45.015625 31 40.078125 35.4375 
Q 35.15625 39.890625 26.703125 39.890625 
Q 22.75 39.890625 18.8125 39.015625 
Q 14.890625 38.140625 10.796875 36.28125 
z
" id="DejaVuSans-35"/>
    </defs>
    <g transform="translate(369.479935 140.220601)scale(0.17 -0.17)">
     <use xlink:href="#DejaVuSans-35"/>
     <use x="63.623047" xlink:href="#DejaVuSans-2d"/>
     <use x="99.707031" xlink:href="#DejaVuSans-44"/>
    </g>
   </g>
   <g id="text_18">
    <!-- 3-D -->
    <defs>
     <path d="M 40.578125 39.3125 
Q 47.65625 37.796875 51.625 33 
Q 55.609375 28.21875 55.609375 21.1875 
Q 55.609375 10.40625 48.1875 4.484375 
Q 40.765625 -1.421875 27.09375 -1.421875 
Q 22.515625 -1.421875 17.65625 -0.515625 
Q 12.796875 0.390625 7.625 2.203125 
L 7.625 11.71875 
Q 11.71875 9.328125 16.59375 8.109375 
Q 21.484375 6.890625 26.8125 6.890625 
Q 36.078125 6.890625 40.9375 10.546875 
Q 45.796875 14.203125 45.796875 21.1875 
Q 45.796875 27.640625 41.28125 31.265625 
Q 36.765625 34.90625 28.71875 34.90625 
L 20.21875 34.90625 
L 20.21875 43.015625 
L 29.109375 43.015625 
Q 36.375 43.015625 40.234375 45.921875 
Q 44.09375 48.828125 44.09375 54.296875 
Q 44.09375 59.90625 40.109375 62.90625 
Q 36.140625 65.921875 28.71875 65.921875 
Q 24.65625 65.921875 20.015625 65.03125 
Q 15.375 64.15625 9.8125 62.3125 
L 9.8125 71.09375 
Q 15.4375 72.65625 20.34375 73.4375 
Q 25.25 74.21875 29.59375 74.21875 
Q 40.828125 74.21875 47.359375 69.109375 
Q 53.90625 64.015625 53.90625 55.328125 
Q 53.90625 49.265625 50.4375 45.09375 
Q 46.96875 40.921875 40.578125 39.3125 
z
" id="DejaVuSans-33"/>
    </defs>
    <g transform="translate(369.479935 88.886264)scale(0.17 -0.17)">
     <use xlink:href="#DejaVuSans-33"/>
     <use x="63.623047" xlink:href="#DejaVuSans-2d"/>
     <use x="99.707031" xlink:href="#DejaVuSans-44"/>
    </g>
   </g>
   <g id="text_19">
    <!-- 2-D -->
    <g transform="translate(369.479935 37.551928)scale(0.17 -0.17)">
     <use xlink:href="#DejaVuSans-32"/>
     <use x="63.623047" xlink:href="#DejaVuSans-2d"/>
     <use x="99.707031" xlink:href="#DejaVuSans-44"/>
    </g>
   </g>
   <g id="text_20">
    <!-- bbob f9 -->
    <defs>
     <path d="M 48.6875 27.296875 
Q 48.6875 37.203125 44.609375 42.84375 
Q 40.53125 48.484375 33.40625 48.484375 
Q 26.265625 48.484375 22.1875 42.84375 
Q 18.109375 37.203125 18.109375 27.296875 
Q 18.109375 17.390625 22.1875 11.75 
Q 26.265625 6.109375 33.40625 6.109375 
Q 40.53125 6.109375 44.609375 11.75 
Q 48.6875 17.390625 48.6875 27.296875 
z
M 18.109375 46.390625 
Q 20.953125 51.265625 25.265625 53.625 
Q 29.59375 56 35.59375 56 
Q 45.5625 56 51.78125 48.09375 
Q 58.015625 40.1875 58.015625 27.296875 
Q 58.015625 14.40625 51.78125 6.484375 
Q 45.5625 -1.421875 35.59375 -1.421875 
Q 29.59375 -1.421875 25.265625 0.953125 
Q 20.953125 3.328125 18.109375 8.203125 
L 18.109375 0 
L 9.078125 0 
L 9.078125 75.984375 
L 18.109375 75.984375 
z
" id="DejaVuSans-62"/>
     <path d="M 10.984375 1.515625 
L 10.984375 10.5 
Q 14.703125 8.734375 18.5 7.8125 
Q 22.3125 6.890625 25.984375 6.890625 
Q 35.75 6.890625 40.890625 13.453125 
Q 46.046875 20.015625 46.78125 33.40625 
Q 43.953125 29.203125 39.59375 26.953125 
Q 35.25 24.703125 29.984375 24.703125 
Q 19.046875 24.703125 12.671875 31.3125 
Q 6.296875 37.9375 6.296875 49.421875 
Q 6.296875 60.640625 12.9375 67.421875 
Q 19.578125 74.21875 30.609375 74.21875 
Q 43.265625 74.21875 49.921875 64.515625 
Q 56.59375 54.828125 56.59375 36.375 
Q 56.59375 19.140625 48.40625 8.859375 
Q 40.234375 -1.421875 26.421875 -1.421875 
Q 22.703125 -1.421875 18.890625 -0.6875 
Q 15.09375 0.046875 10.984375 1.515625 
z
M 30.609375 32.421875 
Q 37.25 32.421875 41.125 36.953125 
Q 45.015625 41.5 45.015625 49.421875 
Q 45.015625 57.28125 41.125 61.84375 
Q 37.25 66.40625 30.609375 66.40625 
Q 23.96875 66.40625 20.09375 61.84375 
Q 16.21875 57.28125 16.21875 49.421875 
Q 16.21875 41.5 20.09375 36.953125 
Q 23.96875 32.421875 30.609375 32.421875 
z
" id="DejaVuSans-39"/>
    </defs>
    <g transform="translate(59.55864 35.290806)scale(0.102 -0.102)">
     <use xlink:href="#DejaVuSans-62"/>
     <use x="63.476562" xlink:href="#DejaVuSans-62"/>
     <use x="126.953125" xlink:href="#DejaVuSans-6f"/>
     <use x="188.134766" xlink:href="#DejaVuSans-62"/>
     <use x="251.611328" xlink:href="#DejaVuSans-20"/>
     <use x="283.398438" xlink:href="#DejaVuSans-66"/>
     <use x="318.603516" xlink:href="#DejaVuSans-39"/>
    </g>
    <!-- 51 targets: 100..1e-08 -->
    <defs>
     <path d="M 11.71875 12.40625 
L 22.015625 12.40625 
L 22.015625 0 
L 11.71875 0 
z
M 11.71875 51.703125 
L 22.015625 51.703125 
L 22.015625 39.3125 
L 11.71875 39.3125 
z
" id="DejaVuSans-3a"/>
    </defs>
    <g transform="translate(59.55864 46.712575)scale(0.102 -0.102)">
     <use xlink:href="#DejaVuSans-35"/>
     <use x="63.623047" xlink:href="#DejaVuSans-31"/>
     <use x="127.246094" xlink:href="#DejaVuSans-20"/>
     <use x="159.033203" xlink:href="#DejaVuSans-74"/>
     <use x="198.242188" xlink:href="#DejaVuSans-61"/>
     <use x="259.521484" xlink:href="#DejaVuSans-72"/>
     <use x="300.619141" xlink:href="#DejaVuSans-67"/>
     <use x="364.095703" xlink:href="#DejaVuSans-65"/>
     <use x="425.619141" xlink:href="#DejaVuSans-74"/>
     <use x="464.828125" xlink:href="#DejaVuSans-73"/>
     <use x="516.927734" xlink:href="#DejaVuSans-3a"/>
     <use x="550.619141" xlink:href="#DejaVuSans-20"/>
     <use x="582.40625" xlink:href="#DejaVuSans-31"/>
     <use x="646.029297" xlink:href="#DejaVuSans-30"/>
     <use x="709.652344" xlink:href="#DejaVuSans-30"/>
     <use x="773.275391" xlink:href="#DejaVuSans-2e"/>
     <use x="805.0625" xlink:href="#DejaVuSans-2e"/>
     <use x="836.849609" xlink:href="#DejaVuSans-31"/>
     <use x="900.472656" xlink:href="#DejaVuSans-65"/>
     <use x="961.996094" xlink:href="#DejaVuSans-2d"/>
     <use x="998.080078" xlink:href="#DejaVuSans-30"/>
     <use x="1061.703125" xlink:href="#DejaVuSans-38"/>
    </g>
    <!-- 15 instances -->
    <g transform="translate(59.55864 58.134344)scale(0.102 -0.102)">
     <use xlink:href="#DejaVuSans-31"/>
     <use x="63.623047" xlink:href="#DejaVuSans-35"/>
     <use x="127.246094" xlink:href="#DejaVuSans-20"/>
     <use x="159.033203" xlink:href="#DejaVuSans-69"/>
     <use x="186.816406" xlink:href="#DejaVuSans-6e"/>
     <use x="250.195312" xlink:href="#DejaVuSans-73"/>
     <use x="302.294922" xlink:href="#DejaVuSans-74"/>
     <use x="341.503906" xlink:href="#DejaVuSans-61"/>
     <use x="402.783203" xlink:href="#DejaVuSans-6e"/>
     <use x="466.162109" xlink:href="#DejaVuSans-63"/>
     <use x="521.142578" xlink:href="#DejaVuSans-65"/>
     <use x="582.666016" xlink:href="#DejaVuSans-73"/>
    </g>
   </g>
   <g id="text_21">
    <!-- v2.2.1.10 -->
    <g style="fill:#808080;" transform="translate(204.419188 290.099912)scale(0.1 -0.1)">
     <use xlink:href="#DejaVuSans-76"/>
     <use x="59.179688" xlink:href="#DejaVuSans-32"/>
     <use x="122.802734" xlink:href="#DejaVuSans-2e"/>
     <use x="154.589844" xlink:href="#DejaVuSans-32"/>
     <use x="218.212891" xlink:href="#DejaVuSans-2e"/>
     <use x="250" xlink:href="#DejaVuSans-31"/>
     <use x="313.623047" xlink:href="#DejaVuSans-2e"/>
     <use x="345.410156" xlink:href="#DejaVuSans-31"/>
     <use x="409.033203" xlink:href="#DejaVuSans-30"/>
    </g>
   </g>
   <g id="text_22">
    <!-- 9 Rosenbrock rotated -->
    <defs>
     <path d="M 44.390625 34.1875 
Q 47.5625 33.109375 50.5625 29.59375 
Q 53.5625 26.078125 56.59375 19.921875 
L 66.609375 0 
L 56 0 
L 46.6875 18.703125 
Q 43.0625 26.03125 39.671875 28.421875 
Q 36.28125 30.8125 30.421875 30.8125 
L 19.671875 30.8125 
L 19.671875 0 
L 9.8125 0 
L 9.8125 72.90625 
L 32.078125 72.90625 
Q 44.578125 72.90625 50.734375 67.671875 
Q 56.890625 62.453125 56.890625 51.90625 
Q 56.890625 45.015625 53.6875 40.46875 
Q 50.484375 35.9375 44.390625 34.1875 
z
M 19.671875 64.796875 
L 19.671875 38.921875 
L 32.078125 38.921875 
Q 39.203125 38.921875 42.84375 42.21875 
Q 46.484375 45.515625 46.484375 51.90625 
Q 46.484375 58.296875 42.84375 61.546875 
Q 39.203125 64.796875 32.078125 64.796875 
z
" id="DejaVuSans-52"/>
     <path d="M 9.078125 75.984375 
L 18.109375 75.984375 
L 18.109375 31.109375 
L 44.921875 54.6875 
L 56.390625 54.6875 
L 27.390625 29.109375 
L 57.625 0 
L 45.90625 0 
L 18.109375 26.703125 
L 18.109375 0 
L 9.078125 0 
z
" id="DejaVuSans-6b"/>
    </defs>
    <g transform="translate(120.011375 18.84)scale(0.2 -0.2)">
     <use xlink:href="#DejaVuSans-39"/>
     <use x="63.623047" xlink:href="#DejaVuSans-20"/>
     <use x="95.410156" xlink:href="#DejaVuSans-52"/>
     <use x="164.830078" xlink:href="#DejaVuSans-6f"/>
     <use x="226.011719" xlink:href="#DejaVuSans-73"/>
     <use x="278.111328" xlink:href="#DejaVuSans-65"/>
     <use x="339.634766" xlink:href="#DejaVuSans-6e"/>
     <use x="403.013672" xlink:href="#DejaVuSans-62"/>
     <use x="466.490234" xlink:href="#DejaVuSans-72"/>
     <use x="507.572266" xlink:href="#DejaVuSans-6f"/>
     <use x="568.753906" xlink:href="#DejaVuSans-63"/>
     <use x="623.734375" xlink:href="#DejaVuSans-6b"/>
     <use x="681.644531" xlink:href="#DejaVuSans-20"/>
     <use x="713.431641" xlink:href="#DejaVuSans-72"/>
     <use x="754.513672" xlink:href="#DejaVuSans-6f"/>
     <use x="815.695312" xlink:href="#DejaVuSans-74"/>
     <use x="854.904297" xlink:href="#DejaVuSans-61"/>
     <use x="916.183594" xlink:href="#DejaVuSans-74"/>
     <use x="955.392578" xlink:href="#DejaVuSans-65"/>
     <use x="1016.916016" xlink:href="#DejaVuSans-64"/>
    </g>
   </g>
  </g>
 </g>
 <defs>
  <clipPath id="pcc99a475da">
   <rect height="270.04" width="343.864" x="56.12" y="24.84"/>
  </clipPath>
 </defs>
</svg>
