<?xml version="1.0" encoding="utf-8" standalone="no"?>
<!DOCTYPE svg PUBLIC "-//W3C//DTD SVG 1.1//EN"
  "http://www.w3.org/Graphics/SVG/1.1/DTD/svg11.dtd">
<!-- Created with matplotlib (http://matplotlib.org/) -->
<svg height="345.6pt" version="1.1" viewBox="0 0 460.8 345.6" width="460.8pt" xmlns="http://www.w3.org/2000/svg" xmlns:xlink="http://www.w3.org/1999/xlink">
 <defs>
  <style type="text/css">
*{stroke-linecap:butt;stroke-linejoin:round;}
  </style>
 </defs>
 <g id="figure_1">
  <g id="patch_1">
   <path d="M 0 345.6 
L 460.8 345.6 
L 460.8 0 
L 0 0 
z
" style="fill:#ffffff;"/>
  </g>
  <g id="axes_1">
   <g id="patch_2">
    <path d="M 56.12 294.88 
L 399.984 294.88 
L 399.984 6.845228 
L 56.12 6.845228 
z
" style="fill:#ffffff;"/>
   </g>
   <g id="matplotlib.axis_1">
    <g id="xtick_1">
     <g id="line2d_1">
      <path clip-path="url(#pfaf56a23ff)" d="M 56.12 294.88 
L 56.12 6.845228 
" style="fill:none;stroke:#b0b0b0;stroke-linecap:square;stroke-width:0.8;"/>
     </g>
     <g id="line2d_2">
      <defs>
       <path d="M 0 0 
L 0 3.5 
" id="med41f064c7" style="stroke:#000000;stroke-width:0.8;"/>
      </defs>
      <g>
       <use style="stroke:#000000;stroke-width:0.8;" x="56.12" xlink:href="#med41f064c7" y="294.88"/>
      </g>
     </g>
     <g id="text_1">
      <!-- 0 -->
      <defs>
       <path d="M 31.78125 66.40625 
Q 24.171875 66.40625 20.328125 58.90625 
Q 16.5 51.421875 16.5 36.375 
Q 16.5 21.390625 20.328125 13.890625 
Q 24.171875 6.390625 31.78125 6.390625 
Q 39.453125 6.390625 43.28125 13.890625 
Q 47.125 21.390625 47.125 36.375 
Q 47.125 51.421875 43.28125 58.90625 
Q 39.453125 66.40625 31.78125 66.40625 
z
M 31.78125 74.21875 
Q 44.046875 74.21875 50.515625 64.515625 
Q 56.984375 54.828125 56.984375 36.375 
Q 56.984375 17.96875 50.515625 8.265625 
Q 44.046875 -1.421875 31.78125 -1.421875 
Q 19.53125 -1.421875 13.0625 8.265625 
Q 6.59375 17.96875 6.59375 36.375 
Q 6.59375 54.828125 13.0625 64.515625 
Q 19.53125 74.21875 31.78125 74.21875 
z
" id="DejaVuSans-30"/>
      </defs>
      <g transform="translate(49.7575 317.076875)scale(0.2 -0.2)">
       <use xlink:href="#DejaVuSans-30"/>
      </g>
     </g>
    </g>
    <g id="xtick_2">
     <g id="line2d_3">
      <path clip-path="url(#pfaf56a23ff)" d="M 135.351336 294.88 
L 135.351336 6.845228 
" style="fill:none;stroke:#b0b0b0;stroke-linecap:square;stroke-width:0.8;"/>
     </g>
     <g id="line2d_4">
      <g>
       <use style="stroke:#000000;stroke-width:0.8;" x="135.351336" xlink:href="#med41f064c7" y="294.88"/>
      </g>
     </g>
     <g id="text_2">
      <!-- 2 -->
      <defs>
       <path d="M 19.1875 8.296875 
L 53.609375 8.296875 
L 53.609375 0 
L 7.328125 0 
L 7.328125 8.296875 
Q 12.9375 14.109375 22.625 23.890625 
Q 32.328125 33.6875 34.8125 36.53125 
Q 39.546875 41.84375 41.421875 45.53125 
Q 43.3125 49.21875 43.3125 52.78125 
Q 43.3125 58.59375 39.234375 62.25 
Q 35.15625 65.921875 28.609375 65.921875 
Q 23.96875 65.921875 18.8125 64.3125 
Q 13.671875 62.703125 7.8125 59.421875 
L 7.8125 69.390625 
Q 13.765625 71.78125 18.9375 73 
Q 24.125 74.21875 28.421875 74.21875 
Q 39.75 74.21875 46.484375 68.546875 
Q 53.21875 62.890625 53.21875 53.421875 
Q 53.21875 48.921875 51.53125 44.890625 
Q 49.859375 40.875 45.40625 35.40625 
Q 44.1875 33.984375 37.640625 27.21875 
Q 31.109375 20.453125 19.1875 8.296875 
z
" id="DejaVuSans-32"/>
      </defs>
      <g transform="translate(128.988836 317.076875)scale(0.2 -0.2)">
       <use xlink:href="#DejaVuSans-32"/>
      </g>
     </g>
    </g>
    <g id="xtick_3">
     <g id="line2d_5">
      <path clip-path="url(#pfaf56a23ff)" d="M 214.582673 294.88 
L 214.582673 6.845228 
" style="fill:none;stroke:#b0b0b0;stroke-linecap:square;stroke-width:0.8;"/>
     </g>
     <g id="line2d_6">
      <g>
       <use style="stroke:#000000;stroke-width:0.8;" x="214.582673" xlink:href="#med41f064c7" y="294.88"/>
      </g>
     </g>
     <g id="text_3">
      <!-- 4 -->
      <defs>
       <path d="M 37.796875 64.3125 
L 12.890625 25.390625 
L 37.796875 25.390625 
z
M 35.203125 72.90625 
L 47.609375 72.90625 
L 47.609375 25.390625 
L 58.015625 25.390625 
L 58.015625 17.1875 
L 47.609375 17.1875 
L 47.609375 0 
L 37.796875 0 
L 37.796875 17.1875 
L 4.890625 17.1875 
L 4.890625 26.703125 
z
" id="DejaVuSans-34"/>
      </defs>
      <g transform="translate(208.220173 317.076875)scale(0.2 -0.2)">
       <use xlink:href="#DejaVuSans-34"/>
      </g>
     </g>
    </g>
    <g id="xtick_4">
     <g id="line2d_7">
      <path clip-path="url(#pfaf56a23ff)" d="M 293.814009 294.88 
L 293.814009 6.845228 
" style="fill:none;stroke:#b0b0b0;stroke-linecap:square;stroke-width:0.8;"/>
     </g>
     <g id="line2d_8">
      <g>
       <use style="stroke:#000000;stroke-width:0.8;" x="293.814009" xlink:href="#med41f064c7" y="294.88"/>
      </g>
     </g>
     <g id="text_4">
      <!-- 6 -->
      <defs>
       <path d="M 33.015625 40.375 
Q 26.375 40.375 22.484375 35.828125 
Q 18.609375 31.296875 18.609375 23.390625 
Q 18.609375 15.53125 22.484375 10.953125 
Q 26.375 6.390625 33.015625 6.390625 
Q 39.65625 6.390625 43.53125 10.953125 
Q 47.40625 15.53125 47.40625 23.390625 
Q 47.40625 31.296875 43.53125 35.828125 
Q 39.65625 40.375 33.015625 40.375 
z
M 52.59375 71.296875 
L 52.59375 62.3125 
Q 48.875 64.0625 45.09375 64.984375 
Q 41.3125 65.921875 37.59375 65.921875 
Q 27.828125 65.921875 22.671875 59.328125 
Q 17.53125 52.734375 16.796875 39.40625 
Q 19.671875 43.65625 24.015625 45.921875 
Q 28.375 48.1875 33.59375 48.1875 
Q 44.578125 48.1875 50.953125 41.515625 
Q 57.328125 34.859375 57.328125 23.390625 
Q 57.328125 12.15625 50.6875 5.359375 
Q 44.046875 -1.421875 33.015625 -1.421875 
Q 20.359375 -1.421875 13.671875 8.265625 
Q 6.984375 17.96875 6.984375 36.375 
Q 6.984375 53.65625 15.1875 63.9375 
Q 23.390625 74.21875 37.203125 74.21875 
Q 40.921875 74.21875 44.703125 73.484375 
Q 48.484375 72.75 52.59375 71.296875 
z
" id="DejaVuSans-36"/>
      </defs>
      <g transform="translate(287.451509 317.076875)scale(0.2 -0.2)">
       <use xlink:href="#DejaVuSans-36"/>
      </g>
     </g>
    </g>
    <g id="xtick_5">
     <g id="line2d_9">
      <path clip-path="url(#pfaf56a23ff)" d="M 373.045346 294.88 
L 373.045346 6.845228 
" style="fill:none;stroke:#b0b0b0;stroke-linecap:square;stroke-width:0.8;"/>
     </g>
     <g id="line2d_10">
      <g>
       <use style="stroke:#000000;stroke-width:0.8;" x="373.045346" xlink:href="#med41f064c7" y="294.88"/>
      </g>
     </g>
     <g id="text_5">
      <!-- 8 -->
      <defs>
       <path d="M 31.78125 34.625 
Q 24.75 34.625 20.71875 30.859375 
Q 16.703125 27.09375 16.703125 20.515625 
Q 16.703125 13.921875 20.71875 10.15625 
Q 24.75 6.390625 31.78125 6.390625 
Q 38.8125 6.390625 42.859375 10.171875 
Q 46.921875 13.96875 46.921875 20.515625 
Q 46.921875 27.09375 42.890625 30.859375 
Q 38.875 34.625 31.78125 34.625 
z
M 21.921875 38.8125 
Q 15.578125 40.375 12.03125 44.71875 
Q 8.5 49.078125 8.5 55.328125 
Q 8.5 64.0625 14.71875 69.140625 
Q 20.953125 74.21875 31.78125 74.21875 
Q 42.671875 74.21875 48.875 69.140625 
Q 55.078125 64.0625 55.078125 55.328125 
Q 55.078125 49.078125 51.53125 44.71875 
Q 48 40.375 41.703125 38.8125 
Q 48.828125 37.15625 52.796875 32.3125 
Q 56.78125 27.484375 56.78125 20.515625 
Q 56.78125 9.90625 50.3125 4.234375 
Q 43.84375 -1.421875 31.78125 -1.421875 
Q 19.734375 -1.421875 13.25 4.234375 
Q 6.78125 9.90625 6.78125 20.515625 
Q 6.78125 27.484375 10.78125 32.3125 
Q 14.796875 37.15625 21.921875 38.8125 
z
M 18.3125 54.390625 
Q 18.3125 48.734375 21.84375 45.5625 
Q 25.390625 42.390625 31.78125 42.390625 
Q 38.140625 42.390625 41.71875 45.5625 
Q 45.3125 48.734375 45.3125 54.390625 
Q 45.3125 60.0625 41.71875 63.234375 
Q 38.140625 66.40625 31.78125 66.40625 
Q 25.390625 66.40625 21.84375 63.234375 
Q 18.3125 60.0625 18.3125 54.390625 
z
" id="DejaVuSans-38"/>
      </defs>
      <g transform="translate(366.682846 317.076875)scale(0.2 -0.2)">
       <use xlink:href="#DejaVuSans-38"/>
      </g>
     </g>
    </g>
    <g id="text_6">
     <!-- log10(# f-evals / dimension) -->
     <defs>
      <path d="M 9.421875 75.984375 
L 18.40625 75.984375 
L 18.40625 0 
L 9.421875 0 
z
" id="DejaVuSans-6c"/>
      <path d="M 30.609375 48.390625 
Q 23.390625 48.390625 19.1875 42.75 
Q 14.984375 37.109375 14.984375 27.296875 
Q 14.984375 17.484375 19.15625 11.84375 
Q 23.34375 6.203125 30.609375 6.203125 
Q 37.796875 6.203125 41.984375 11.859375 
Q 46.1875 17.53125 46.1875 27.296875 
Q 46.1875 37.015625 41.984375 42.703125 
Q 37.796875 48.390625 30.609375 48.390625 
z
M 30.609375 56 
Q 42.328125 56 49.015625 48.375 
Q 55.71875 40.765625 55.71875 27.296875 
Q 55.71875 13.875 49.015625 6.21875 
Q 42.328125 -1.421875 30.609375 -1.421875 
Q 18.84375 -1.421875 12.171875 6.21875 
Q 5.515625 13.875 5.515625 27.296875 
Q 5.515625 40.765625 12.171875 48.375 
Q 18.84375 56 30.609375 56 
z
" id="DejaVuSans-6f"/>
      <path d="M 45.40625 27.984375 
Q 45.40625 37.75 41.375 43.109375 
Q 37.359375 48.484375 30.078125 48.484375 
Q 22.859375 48.484375 18.828125 43.109375 
Q 14.796875 37.75 14.796875 27.984375 
Q 14.796875 18.265625 18.828125 12.890625 
Q 22.859375 7.515625 30.078125 7.515625 
Q 37.359375 7.515625 41.375 12.890625 
Q 45.40625 18.265625 45.40625 27.984375 
z
M 54.390625 6.78125 
Q 54.390625 -7.171875 48.1875 -13.984375 
Q 42 -20.796875 29.203125 -20.796875 
Q 24.46875 -20.796875 20.265625 -20.09375 
Q 16.0625 -19.390625 12.109375 -17.921875 
L 12.109375 -9.1875 
Q 16.0625 -11.328125 19.921875 -12.34375 
Q 23.78125 -13.375 27.78125 -13.375 
Q 36.625 -13.375 41.015625 -8.765625 
Q 45.40625 -4.15625 45.40625 5.171875 
L 45.40625 9.625 
Q 42.625 4.78125 38.28125 2.390625 
Q 33.9375 0 27.875 0 
Q 17.828125 0 11.671875 7.65625 
Q 5.515625 15.328125 5.515625 27.984375 
Q 5.515625 40.671875 11.671875 48.328125 
Q 17.828125 56 27.875 56 
Q 33.9375 56 38.28125 53.609375 
Q 42.625 51.21875 45.40625 46.390625 
L 45.40625 54.6875 
L 54.390625 54.6875 
z
" id="DejaVuSans-67"/>
      <path d="M 12.40625 8.296875 
L 28.515625 8.296875 
L 28.515625 63.921875 
L 10.984375 60.40625 
L 10.984375 69.390625 
L 28.421875 72.90625 
L 38.28125 72.90625 
L 38.28125 8.296875 
L 54.390625 8.296875 
L 54.390625 0 
L 12.40625 0 
z
" id="DejaVuSans-31"/>
      <path d="M 31 75.875 
Q 24.46875 64.65625 21.28125 53.65625 
Q 18.109375 42.671875 18.109375 31.390625 
Q 18.109375 20.125 21.3125 9.0625 
Q 24.515625 -2 31 -13.1875 
L 23.1875 -13.1875 
Q 15.875 -1.703125 12.234375 9.375 
Q 8.59375 20.453125 8.59375 31.390625 
Q 8.59375 42.28125 12.203125 53.3125 
Q 15.828125 64.359375 23.1875 75.875 
z
" id="DejaVuSans-28"/>
      <path d="M 51.125 44 
L 36.921875 44 
L 32.8125 27.6875 
L 47.125 27.6875 
z
M 43.796875 71.78125 
L 38.71875 51.515625 
L 52.984375 51.515625 
L 58.109375 71.78125 
L 65.921875 71.78125 
L 60.890625 51.515625 
L 76.125 51.515625 
L 76.125 44 
L 58.984375 44 
L 54.984375 27.6875 
L 70.515625 27.6875 
L 70.515625 20.21875 
L 53.078125 20.21875 
L 48 0 
L 40.1875 0 
L 45.21875 20.21875 
L 30.90625 20.21875 
L 25.875 0 
L 18.015625 0 
L 23.09375 20.21875 
L 7.71875 20.21875 
L 7.71875 27.6875 
L 24.90625 27.6875 
L 29 44 
L 13.28125 44 
L 13.28125 51.515625 
L 30.90625 51.515625 
L 35.890625 71.78125 
z
" id="DejaVuSans-23"/>
      <path id="DejaVuSans-20"/>
      <path d="M 37.109375 75.984375 
L 37.109375 68.5 
L 28.515625 68.5 
Q 23.6875 68.5 21.796875 66.546875 
Q 19.921875 64.59375 19.921875 59.515625 
L 19.921875 54.6875 
L 34.71875 54.6875 
L 34.71875 47.703125 
L 19.921875 47.703125 
L 19.921875 0 
L 10.890625 0 
L 10.890625 47.703125 
L 2.296875 47.703125 
L 2.296875 54.6875 
L 10.890625 54.6875 
L 10.890625 58.5 
Q 10.890625 67.625 15.140625 71.796875 
Q 19.390625 75.984375 28.609375 75.984375 
z
" id="DejaVuSans-66"/>
      <path d="M 4.890625 31.390625 
L 31.203125 31.390625 
L 31.203125 23.390625 
L 4.890625 23.390625 
z
" id="DejaVuSans-2d"/>
      <path d="M 56.203125 29.59375 
L 56.203125 25.203125 
L 14.890625 25.203125 
Q 15.484375 15.921875 20.484375 11.0625 
Q 25.484375 6.203125 34.421875 6.203125 
Q 39.59375 6.203125 44.453125 7.46875 
Q 49.3125 8.734375 54.109375 11.28125 
L 54.109375 2.78125 
Q 49.265625 0.734375 44.1875 -0.34375 
Q 39.109375 -1.421875 33.890625 -1.421875 
Q 20.796875 -1.421875 13.15625 6.1875 
Q 5.515625 13.8125 5.515625 26.8125 
Q 5.515625 40.234375 12.765625 48.109375 
Q 20.015625 56 32.328125 56 
Q 43.359375 56 49.78125 48.890625 
Q 56.203125 41.796875 56.203125 29.59375 
z
M 47.21875 32.234375 
Q 47.125 39.59375 43.09375 43.984375 
Q 39.0625 48.390625 32.421875 48.390625 
Q 24.90625 48.390625 20.390625 44.140625 
Q 15.875 39.890625 15.1875 32.171875 
z
" id="DejaVuSans-65"/>
      <path d="M 2.984375 54.6875 
L 12.5 54.6875 
L 29.59375 8.796875 
L 46.6875 54.6875 
L 56.203125 54.6875 
L 35.6875 0 
L 23.484375 0 
z
" id="DejaVuSans-76"/>
      <path d="M 34.28125 27.484375 
Q 23.390625 27.484375 19.1875 25 
Q 14.984375 22.515625 14.984375 16.5 
Q 14.984375 11.71875 18.140625 8.90625 
Q 21.296875 6.109375 26.703125 6.109375 
Q 34.1875 6.109375 38.703125 11.40625 
Q 43.21875 16.703125 43.21875 25.484375 
L 43.21875 27.484375 
z
M 52.203125 31.203125 
L 52.203125 0 
L 43.21875 0 
L 43.21875 8.296875 
Q 40.140625 3.328125 35.546875 0.953125 
Q 30.953125 -1.421875 24.3125 -1.421875 
Q 15.921875 -1.421875 10.953125 3.296875 
Q 6 8.015625 6 15.921875 
Q 6 25.140625 12.171875 29.828125 
Q 18.359375 34.515625 30.609375 34.515625 
L 43.21875 34.515625 
L 43.21875 35.40625 
Q 43.21875 41.609375 39.140625 45 
Q 35.0625 48.390625 27.6875 48.390625 
Q 23 48.390625 18.546875 47.265625 
Q 14.109375 46.140625 10.015625 43.890625 
L 10.015625 52.203125 
Q 14.9375 54.109375 19.578125 55.046875 
Q 24.21875 56 28.609375 56 
Q 40.484375 56 46.34375 49.84375 
Q 52.203125 43.703125 52.203125 31.203125 
z
" id="DejaVuSans-61"/>
      <path d="M 44.28125 53.078125 
L 44.28125 44.578125 
Q 40.484375 46.53125 36.375 47.5 
Q 32.28125 48.484375 27.875 48.484375 
Q 21.1875 48.484375 17.84375 46.4375 
Q 14.5 44.390625 14.5 40.28125 
Q 14.5 37.15625 16.890625 35.375 
Q 19.28125 33.59375 26.515625 31.984375 
L 29.59375 31.296875 
Q 39.15625 29.25 43.1875 25.515625 
Q 47.21875 21.78125 47.21875 15.09375 
Q 47.21875 7.46875 41.1875 3.015625 
Q 35.15625 -1.421875 24.609375 -1.421875 
Q 20.21875 -1.421875 15.453125 -0.5625 
Q 10.6875 0.296875 5.421875 2 
L 5.421875 11.28125 
Q 10.40625 8.6875 15.234375 7.390625 
Q 20.0625 6.109375 24.8125 6.109375 
Q 31.15625 6.109375 34.5625 8.28125 
Q 37.984375 10.453125 37.984375 14.40625 
Q 37.984375 18.0625 35.515625 20.015625 
Q 33.0625 21.96875 24.703125 23.78125 
L 21.578125 24.515625 
Q 13.234375 26.265625 9.515625 29.90625 
Q 5.8125 33.546875 5.8125 39.890625 
Q 5.8125 47.609375 11.28125 51.796875 
Q 16.75 56 26.8125 56 
Q 31.78125 56 36.171875 55.265625 
Q 40.578125 54.546875 44.28125 53.078125 
z
" id="DejaVuSans-73"/>
      <path d="M 25.390625 72.90625 
L 33.6875 72.90625 
L 8.296875 -9.28125 
L 0 -9.28125 
z
" id="DejaVuSans-2f"/>
      <path d="M 45.40625 46.390625 
L 45.40625 75.984375 
L 54.390625 75.984375 
L 54.390625 0 
L 45.40625 0 
L 45.40625 8.203125 
Q 42.578125 3.328125 38.25 0.953125 
Q 33.9375 -1.421875 27.875 -1.421875 
Q 17.96875 -1.421875 11.734375 6.484375 
Q 5.515625 14.40625 5.515625 27.296875 
Q 5.515625 40.1875 11.734375 48.09375 
Q 17.96875 56 27.875 56 
Q 33.9375 56 38.25 53.625 
Q 42.578125 51.265625 45.40625 46.390625 
z
M 14.796875 27.296875 
Q 14.796875 17.390625 18.875 11.75 
Q 22.953125 6.109375 30.078125 6.109375 
Q 37.203125 6.109375 41.296875 11.75 
Q 45.40625 17.390625 45.40625 27.296875 
Q 45.40625 37.203125 41.296875 42.84375 
Q 37.203125 48.484375 30.078125 48.484375 
Q 22.953125 48.484375 18.875 42.84375 
Q 14.796875 37.203125 14.796875 27.296875 
z
" id="DejaVuSans-64"/>
      <path d="M 9.421875 54.6875 
L 18.40625 54.6875 
L 18.40625 0 
L 9.421875 0 
z
M 9.421875 75.984375 
L 18.40625 75.984375 
L 18.40625 64.59375 
L 9.421875 64.59375 
z
" id="DejaVuSans-69"/>
      <path d="M 52 44.1875 
Q 55.375 50.25 60.0625 53.125 
Q 64.75 56 71.09375 56 
Q 79.640625 56 84.28125 50.015625 
Q 88.921875 44.046875 88.921875 33.015625 
L 88.921875 0 
L 79.890625 0 
L 79.890625 32.71875 
Q 79.890625 40.578125 77.09375 44.375 
Q 74.3125 48.1875 68.609375 48.1875 
Q 61.625 48.1875 57.5625 43.546875 
Q 53.515625 38.921875 53.515625 30.90625 
L 53.515625 0 
L 44.484375 0 
L 44.484375 32.71875 
Q 44.484375 40.625 41.703125 44.40625 
Q 38.921875 48.1875 33.109375 48.1875 
Q 26.21875 48.1875 22.15625 43.53125 
Q 18.109375 38.875 18.109375 30.90625 
L 18.109375 0 
L 9.078125 0 
L 9.078125 54.6875 
L 18.109375 54.6875 
L 18.109375 46.1875 
Q 21.1875 51.21875 25.484375 53.609375 
Q 29.78125 56 35.6875 56 
Q 41.65625 56 45.828125 52.96875 
Q 50 49.953125 52 44.1875 
z
" id="DejaVuSans-6d"/>
      <path d="M 54.890625 33.015625 
L 54.890625 0 
L 45.90625 0 
L 45.90625 32.71875 
Q 45.90625 40.484375 42.875 44.328125 
Q 39.84375 48.1875 33.796875 48.1875 
Q 26.515625 48.1875 22.3125 43.546875 
Q 18.109375 38.921875 18.109375 30.90625 
L 18.109375 0 
L 9.078125 0 
L 9.078125 54.6875 
L 18.109375 54.6875 
L 18.109375 46.1875 
Q 21.34375 51.125 25.703125 53.5625 
Q 30.078125 56 35.796875 56 
Q 45.21875 56 50.046875 50.171875 
Q 54.890625 44.34375 54.890625 33.015625 
z
" id="DejaVuSans-6e"/>
      <path d="M 8.015625 75.875 
L 15.828125 75.875 
Q 23.140625 64.359375 26.78125 53.3125 
Q 30.421875 42.28125 30.421875 31.390625 
Q 30.421875 20.453125 26.78125 9.375 
Q 23.140625 -1.703125 15.828125 -13.1875 
L 8.015625 -13.1875 
Q 14.5 -2 17.703125 9.0625 
Q 20.90625 20.125 20.90625 31.390625 
Q 20.90625 42.671875 17.703125 53.65625 
Q 14.5 64.65625 8.015625 75.875 
z
" id="DejaVuSans-29"/>
     </defs>
     <g transform="translate(107.211219 338.153594)scale(0.17 -0.17)">
      <use xlink:href="#DejaVuSans-6c"/>
      <use x="27.783203" xlink:href="#DejaVuSans-6f"/>
      <use x="88.964844" xlink:href="#DejaVuSans-67"/>
      <use x="152.441406" xlink:href="#DejaVuSans-31"/>
      <use x="216.064453" xlink:href="#DejaVuSans-30"/>
      <use x="279.6875" xlink:href="#DejaVuSans-28"/>
      <use x="318.701172" xlink:href="#DejaVuSans-23"/>
      <use x="402.490234" xlink:href="#DejaVuSans-20"/>
      <use x="434.277344" xlink:href="#DejaVuSans-66"/>
      <use x="469.404297" xlink:href="#DejaVuSans-2d"/>
      <use x="505.488281" xlink:href="#DejaVuSans-65"/>
      <use x="567.011719" xlink:href="#DejaVuSans-76"/>
      <use x="626.191406" xlink:href="#DejaVuSans-61"/>
      <use x="687.470703" xlink:href="#DejaVuSans-6c"/>
      <use x="715.253906" xlink:href="#DejaVuSans-73"/>
      <use x="767.353516" xlink:href="#DejaVuSans-20"/>
      <use x="799.140625" xlink:href="#DejaVuSans-2f"/>
      <use x="832.832031" xlink:href="#DejaVuSans-20"/>
      <use x="864.619141" xlink:href="#DejaVuSans-64"/>
      <use x="928.095703" xlink:href="#DejaVuSans-69"/>
      <use x="955.878906" xlink:href="#DejaVuSans-6d"/>
      <use x="1053.291016" xlink:href="#DejaVuSans-65"/>
      <use x="1114.814453" xlink:href="#DejaVuSans-6e"/>
      <use x="1178.193359" xlink:href="#DejaVuSans-73"/>
      <use x="1230.292969" xlink:href="#DejaVuSans-69"/>
      <use x="1258.076172" xlink:href="#DejaVuSans-6f"/>
      <use x="1319.257812" xlink:href="#DejaVuSans-6e"/>
      <use x="1382.636719" xlink:href="#DejaVuSans-29"/>
     </g>
    </g>
   </g>
   <g id="matplotlib.axis_2">
    <g id="ytick_1">
     <g id="line2d_11">
      <path clip-path="url(#pfaf56a23ff)" d="M 56.12 294.88 
L 399.984 294.88 
" style="fill:none;stroke:#b0b0b0;stroke-linecap:square;stroke-width:0.8;"/>
     </g>
     <g id="line2d_12">
      <defs>
       <path d="M 0 0 
L -3.5 0 
" id="m2b570f5af7" style="stroke:#000000;stroke-width:0.8;"/>
      </defs>
      <g>
       <use style="stroke:#000000;stroke-width:0.8;" x="56.12" xlink:href="#m2b570f5af7" y="294.88"/>
      </g>
     </g>
     <g id="text_7">
      <!-- 0.0 -->
      <defs>
       <path d="M 10.6875 12.40625 
L 21 12.40625 
L 21 0 
L 10.6875 0 
z
" id="DejaVuSans-2e"/>
      </defs>
      <g transform="translate(23.675 300.95875)scale(0.16 -0.16)">
       <use xlink:href="#DejaVuSans-30"/>
       <use x="63.623047" xlink:href="#DejaVuSans-2e"/>
       <use x="95.410156" xlink:href="#DejaVuSans-30"/>
      </g>
     </g>
    </g>
    <g id="ytick_2">
     <g id="line2d_13">
      <path clip-path="url(#pfaf56a23ff)" d="M 56.12 237.843411 
L 399.984 237.843411 
" style="fill:none;stroke:#b0b0b0;stroke-linecap:square;stroke-width:0.8;"/>
     </g>
     <g id="line2d_14">
      <g>
       <use style="stroke:#000000;stroke-width:0.8;" x="56.12" xlink:href="#m2b570f5af7" y="237.843411"/>
      </g>
     </g>
     <g id="text_8">
      <!-- 0.2 -->
      <g transform="translate(23.675 243.922161)scale(0.16 -0.16)">
       <use xlink:href="#DejaVuSans-30"/>
       <use x="63.623047" xlink:href="#DejaVuSans-2e"/>
       <use x="95.410156" xlink:href="#DejaVuSans-32"/>
      </g>
     </g>
    </g>
    <g id="ytick_3">
     <g id="line2d_15">
      <path clip-path="url(#pfaf56a23ff)" d="M 56.12 180.806823 
L 399.984 180.806823 
" style="fill:none;stroke:#b0b0b0;stroke-linecap:square;stroke-width:0.8;"/>
     </g>
     <g id="line2d_16">
      <g>
       <use style="stroke:#000000;stroke-width:0.8;" x="56.12" xlink:href="#m2b570f5af7" y="180.806823"/>
      </g>
     </g>
     <g id="text_9">
      <!-- 0.4 -->
      <g transform="translate(23.675 186.885573)scale(0.16 -0.16)">
       <use xlink:href="#DejaVuSans-30"/>
       <use x="63.623047" xlink:href="#DejaVuSans-2e"/>
       <use x="95.410156" xlink:href="#DejaVuSans-34"/>
      </g>
     </g>
    </g>
    <g id="ytick_4">
     <g id="line2d_17">
      <path clip-path="url(#pfaf56a23ff)" d="M 56.12 123.770234 
L 399.984 123.770234 
" style="fill:none;stroke:#b0b0b0;stroke-linecap:square;stroke-width:0.8;"/>
     </g>
     <g id="line2d_18">
      <g>
       <use style="stroke:#000000;stroke-width:0.8;" x="56.12" xlink:href="#m2b570f5af7" y="123.770234"/>
      </g>
     </g>
     <g id="text_10">
      <!-- 0.6 -->
      <g transform="translate(23.675 129.848984)scale(0.16 -0.16)">
       <use xlink:href="#DejaVuSans-30"/>
       <use x="63.623047" xlink:href="#DejaVuSans-2e"/>
       <use x="95.410156" xlink:href="#DejaVuSans-36"/>
      </g>
     </g>
    </g>
    <g id="ytick_5">
     <g id="line2d_19">
      <path clip-path="url(#pfaf56a23ff)" d="M 56.12 66.733646 
L 399.984 66.733646 
" style="fill:none;stroke:#b0b0b0;stroke-linecap:square;stroke-width:0.8;"/>
     </g>
     <g id="line2d_20">
      <g>
       <use style="stroke:#000000;stroke-width:0.8;" x="56.12" xlink:href="#m2b570f5af7" y="66.733646"/>
      </g>
     </g>
     <g id="text_11">
      <!-- 0.8 -->
      <g transform="translate(23.675 72.812396)scale(0.16 -0.16)">
       <use xlink:href="#DejaVuSans-30"/>
       <use x="63.623047" xlink:href="#DejaVuSans-2e"/>
       <use x="95.410156" xlink:href="#DejaVuSans-38"/>
      </g>
     </g>
    </g>
    <g id="ytick_6">
     <g id="line2d_21">
      <path clip-path="url(#pfaf56a23ff)" d="M 56.12 9.697057 
L 399.984 9.697057 
" style="fill:none;stroke:#b0b0b0;stroke-linecap:square;stroke-width:0.8;"/>
     </g>
     <g id="line2d_22">
      <g>
       <use style="stroke:#000000;stroke-width:0.8;" x="56.12" xlink:href="#m2b570f5af7" y="9.697057"/>
      </g>
     </g>
     <g id="text_12">
      <!-- 1.0 -->
      <g transform="translate(23.675 15.775807)scale(0.16 -0.16)">
       <use xlink:href="#DejaVuSans-31"/>
       <use x="63.623047" xlink:href="#DejaVuSans-2e"/>
       <use x="95.410156" xlink:href="#DejaVuSans-30"/>
      </g>
     </g>
    </g>
    <g id="text_13">
     <!-- Fraction of function,target pairs -->
     <defs>
      <path d="M 9.8125 72.90625 
L 51.703125 72.90625 
L 51.703125 64.59375 
L 19.671875 64.59375 
L 19.671875 43.109375 
L 48.578125 43.109375 
L 48.578125 34.8125 
L 19.671875 34.8125 
L 19.671875 0 
L 9.8125 0 
z
" id="DejaVuSans-46"/>
      <path d="M 41.109375 46.296875 
Q 39.59375 47.171875 37.8125 47.578125 
Q 36.03125 48 33.890625 48 
Q 26.265625 48 22.1875 43.046875 
Q 18.109375 38.09375 18.109375 28.8125 
L 18.109375 0 
L 9.078125 0 
L 9.078125 54.6875 
L 18.109375 54.6875 
L 18.109375 46.1875 
Q 20.953125 51.171875 25.484375 53.578125 
Q 30.03125 56 36.53125 56 
Q 37.453125 56 38.578125 55.875 
Q 39.703125 55.765625 41.0625 55.515625 
z
" id="DejaVuSans-72"/>
      <path d="M 48.78125 52.59375 
L 48.78125 44.1875 
Q 44.96875 46.296875 41.140625 47.34375 
Q 37.3125 48.390625 33.40625 48.390625 
Q 24.65625 48.390625 19.8125 42.84375 
Q 14.984375 37.3125 14.984375 27.296875 
Q 14.984375 17.28125 19.8125 11.734375 
Q 24.65625 6.203125 33.40625 6.203125 
Q 37.3125 6.203125 41.140625 7.25 
Q 44.96875 8.296875 48.78125 10.40625 
L 48.78125 2.09375 
Q 45.015625 0.34375 40.984375 -0.53125 
Q 36.96875 -1.421875 32.421875 -1.421875 
Q 20.0625 -1.421875 12.78125 6.34375 
Q 5.515625 14.109375 5.515625 27.296875 
Q 5.515625 40.671875 12.859375 48.328125 
Q 20.21875 56 33.015625 56 
Q 37.15625 56 41.109375 55.140625 
Q 45.0625 54.296875 48.78125 52.59375 
z
" id="DejaVuSans-63"/>
      <path d="M 18.3125 70.21875 
L 18.3125 54.6875 
L 36.8125 54.6875 
L 36.8125 47.703125 
L 18.3125 47.703125 
L 18.3125 18.015625 
Q 18.3125 11.328125 20.140625 9.421875 
Q 21.96875 7.515625 27.59375 7.515625 
L 36.8125 7.515625 
L 36.8125 0 
L 27.59375 0 
Q 17.1875 0 13.234375 3.875 
Q 9.28125 7.765625 9.28125 18.015625 
L 9.28125 47.703125 
L 2.6875 47.703125 
L 2.6875 54.6875 
L 9.28125 54.6875 
L 9.28125 70.21875 
z
" id="DejaVuSans-74"/>
      <path d="M 8.5 21.578125 
L 8.5 54.6875 
L 17.484375 54.6875 
L 17.484375 21.921875 
Q 17.484375 14.15625 20.5 10.265625 
Q 23.53125 6.390625 29.59375 6.390625 
Q 36.859375 6.390625 41.078125 11.03125 
Q 45.3125 15.671875 45.3125 23.6875 
L 45.3125 54.6875 
L 54.296875 54.6875 
L 54.296875 0 
L 45.3125 0 
L 45.3125 8.40625 
Q 42.046875 3.421875 37.71875 1 
Q 33.40625 -1.421875 27.6875 -1.421875 
Q 18.265625 -1.421875 13.375 4.4375 
Q 8.5 10.296875 8.5 21.578125 
z
M 31.109375 56 
z
" id="DejaVuSans-75"/>
      <path d="M 11.71875 12.40625 
L 22.015625 12.40625 
L 22.015625 4 
L 14.015625 -11.625 
L 7.71875 -11.625 
L 11.71875 4 
z
" id="DejaVuSans-2c"/>
      <path d="M 18.109375 8.203125 
L 18.109375 -20.796875 
L 9.078125 -20.796875 
L 9.078125 54.6875 
L 18.109375 54.6875 
L 18.109375 46.390625 
Q 20.953125 51.265625 25.265625 53.625 
Q 29.59375 56 35.59375 56 
Q 45.5625 56 51.78125 48.09375 
Q 58.015625 40.1875 58.015625 27.296875 
Q 58.015625 14.40625 51.78125 6.484375 
Q 45.5625 -1.421875 35.59375 -1.421875 
Q 29.59375 -1.421875 25.265625 0.953125 
Q 20.953125 3.328125 18.109375 8.203125 
z
M 48.6875 27.296875 
Q 48.6875 37.203125 44.609375 42.84375 
Q 40.53125 48.484375 33.40625 48.484375 
Q 26.265625 48.484375 22.1875 42.84375 
Q 18.109375 37.203125 18.109375 27.296875 
Q 18.109375 17.390625 22.1875 11.75 
Q 26.265625 6.109375 33.40625 6.109375 
Q 40.53125 6.109375 44.609375 11.75 
Q 48.6875 17.390625 48.6875 27.296875 
z
" id="DejaVuSans-70"/>
     </defs>
     <g transform="translate(16.139531 286.001989)rotate(-90)scale(0.17 -0.17)">
      <use xlink:href="#DejaVuSans-46"/>
      <use x="57.410156" xlink:href="#DejaVuSans-72"/>
      <use x="98.523438" xlink:href="#DejaVuSans-61"/>
      <use x="159.802734" xlink:href="#DejaVuSans-63"/>
      <use x="214.783203" xlink:href="#DejaVuSans-74"/>
      <use x="253.992188" xlink:href="#DejaVuSans-69"/>
      <use x="281.775391" xlink:href="#DejaVuSans-6f"/>
      <use x="342.957031" xlink:href="#DejaVuSans-6e"/>
      <use x="406.335938" xlink:href="#DejaVuSans-20"/>
      <use x="438.123047" xlink:href="#DejaVuSans-6f"/>
      <use x="499.304688" xlink:href="#DejaVuSans-66"/>
      <use x="534.509766" xlink:href="#DejaVuSans-20"/>
      <use x="566.296875" xlink:href="#DejaVuSans-66"/>
      <use x="601.501953" xlink:href="#DejaVuSans-75"/>
      <use x="664.880859" xlink:href="#DejaVuSans-6e"/>
      <use x="728.259766" xlink:href="#DejaVuSans-63"/>
      <use x="783.240234" xlink:href="#DejaVuSans-74"/>
      <use x="822.449219" xlink:href="#DejaVuSans-69"/>
      <use x="850.232422" xlink:href="#DejaVuSans-6f"/>
      <use x="911.414062" xlink:href="#DejaVuSans-6e"/>
      <use x="974.792969" xlink:href="#DejaVuSans-2c"/>
      <use x="1006.580078" xlink:href="#DejaVuSans-74"/>
      <use x="1045.789062" xlink:href="#DejaVuSans-61"/>
      <use x="1107.068359" xlink:href="#DejaVuSans-72"/>
      <use x="1148.166016" xlink:href="#DejaVuSans-67"/>
      <use x="1211.642578" xlink:href="#DejaVuSans-65"/>
      <use x="1273.166016" xlink:href="#DejaVuSans-74"/>
      <use x="1312.375" xlink:href="#DejaVuSans-20"/>
      <use x="1344.162109" xlink:href="#DejaVuSans-70"/>
      <use x="1407.638672" xlink:href="#DejaVuSans-61"/>
      <use x="1468.917969" xlink:href="#DejaVuSans-69"/>
      <use x="1496.701172" xlink:href="#DejaVuSans-72"/>
      <use x="1537.814453" xlink:href="#DejaVuSans-73"/>
     </g>
    </g>
   </g>
   <g id="line2d_23">
    <defs>
     <path d="M 0 1.5 
C 0.397805 1.5 0.77937 1.341951 1.06066 1.06066 
C 1.341951 0.77937 1.5 0.397805 1.5 0 
C 1.5 -0.397805 1.341951 -0.77937 1.06066 -1.06066 
C 0.77937 -1.341951 0.397805 -1.5 0 -1.5 
C -0.397805 -1.5 -0.77937 -1.341951 -1.06066 -1.06066 
C -1.341951 -0.77937 -1.5 -0.397805 -1.5 0 
C -1.5 0.397805 -1.341951 0.77937 -1.06066 1.06066 
C -0.77937 1.341951 -0.397805 1.5 0 1.5 
z
" id="m4b06148687" style="stroke:#000080;"/>
    </defs>
    <g>
     <use style="fill:#000080;stroke:#000080;" x="275.224332" xlink:href="#m4b06148687" y="71.207104"/>
     <use style="fill:#000080;stroke:#000080;" x="275.224332" xlink:href="#m4b06148687" y="71.207104"/>
    </g>
   </g>
   <g id="line2d_24">
    <path d="M 68.045504 294.88 
L 68.045504 294.320818 
L 72.995036 294.320818 
L 72.995036 293.202453 
L 82.623151 293.202453 
L 82.623151 290.406542 
L 86.946982 290.406542 
L 86.946982 286.492266 
L 91.896513 286.492266 
L 91.896513 285.933084 
L 94.548655 285.933084 
L 94.548655 284.255537 
L 99.802705 284.255537 
L 99.802705 283.137173 
L 102.324999 283.137173 
L 102.324999 282.018808 
L 106.47416 282.018808 
L 106.47416 279.222897 
L 111.269386 279.222897 
L 111.269386 275.867804 
L 111.72821 275.867804 
L 111.72821 275.308622 
L 117.452368 275.308622 
L 117.452368 274.190257 
L 118.089658 274.190257 
L 118.089658 272.51271 
L 119.003405 272.51271 
L 119.003405 271.394346 
L 119.297513 271.394346 
L 119.297513 266.920888 
L 119.586677 266.920888 
L 119.586677 266.361706 
L 120.150822 266.361706 
L 120.150822 265.802523 
L 120.963801 265.802523 
L 120.963801 263.565795 
L 121.740092 263.565795 
L 121.740092 263.006612 
L 122.482864 263.006612 
L 122.482864 261.888248 
L 124.100619 261.888248 
L 124.100619 260.769883 
L 124.319792 260.769883 
L 124.319792 260.210701 
L 125.169588 260.210701 
L 125.169588 259.651519 
L 126.370415 259.651519 
L 126.370415 257.973972 
L 128.883919 257.973972 
L 128.883919 256.855608 
L 129.050151 256.855608 
L 129.050151 256.296425 
L 129.214792 256.296425 
L 129.214792 250.704603 
L 129.377872 250.704603 
L 129.377872 250.145421 
L 129.539422 250.145421 
L 129.539422 248.467874 
L 129.699468 248.467874 
L 129.699468 247.908692 
L 129.858039 247.908692 
L 129.858039 246.231145 
L 130.478102 246.231145 
L 130.478102 245.112781 
L 130.629687 245.112781 
L 130.629687 244.553598 
L 132.622558 244.553598 
L 132.622558 243.435234 
L 134.768065 243.435234 
L 134.768065 240.08014 
L 135.579219 240.08014 
L 135.579219 239.520958 
L 135.915481 239.520958 
L 136.026124 235.0475 
L 136.353845 235.0475 
L 136.461713 233.369954 
L 136.568909 233.369954 
L 136.568909 232.810771 
L 136.991135 232.810771 
L 136.991135 232.251589 
L 137.403248 232.251589 
L 137.403248 231.133225 
L 139.508688 231.133225 
L 139.508688 230.574042 
L 140.975655 230.574042 
L 141.058173 229.455678 
L 141.140296 229.455678 
L 141.22203 226.659767 
L 141.624972 226.659767 
L 141.624972 225.541402 
L 142.096368 225.541402 
L 142.096368 224.423038 
L 143.002096 224.423038 
L 143.002096 223.863855 
L 143.792438 223.863855 
L 143.792438 223.304673 
L 144.548063 223.304673 
L 144.548063 222.745491 
L 145.077485 222.745491 
L 145.077485 222.186309 
L 145.336209 222.186309 
L 145.336209 219.94958 
L 145.842271 219.94958 
L 145.842271 218.272033 
L 146.028272 218.272033 
L 146.028272 217.153669 
L 147.276841 217.153669 
L 147.276841 216.594486 
L 147.617542 216.594486 
L 147.617542 216.035304 
L 147.896396 216.035304 
L 147.951628 214.357757 
L 148.116269 214.357757 
L 148.225161 212.680211 
L 148.494413 212.680211 
L 148.547762 211.561846 
L 148.653965 211.561846 
L 148.706822 208.765935 
L 150.556439 208.765935 
L 150.556439 208.206753 
L 150.698043 208.206753 
L 150.698043 207.088388 
L 151.115996 207.088388 
L 151.161814 205.970024 
L 153.228881 205.970024 
L 153.228881 205.410841 
L 154.964324 205.410841 
L 154.964324 204.851659 
L 155.291354 204.851659 
L 155.398997 203.174112 
L 156.970373 203.174112 
L 156.970373 202.61493 
L 157.389632 202.61493 
L 157.389632 202.055748 
L 157.736579 202.055748 
L 157.736579 201.496566 
L 158.500008 201.496566 
L 158.589384 199.259837 
L 159.683038 199.259837 
L 159.683038 198.700655 
L 159.877132 198.700655 
L 159.877132 197.58229 
L 164.805973 197.58229 
L 164.805973 197.023108 
L 176.752168 197.023108 
L 176.752168 196.463926 
L 202.882787 196.463926 
L 202.882787 195.345561 
L 203.334161 195.345561 
L 203.334161 194.786379 
L 203.618509 194.786379 
L 203.724479 192.54965 
L 203.733101 192.54965 
L 203.806212 190.312921 
L 203.851215 190.312921 
L 203.940868 188.076192 
L 203.964272 188.076192 
L 204.059684 184.161916 
L 204.082927 184.161916 
L 204.173484 182.48437 
L 204.194476 182.48437 
L 204.194476 180.806823 
L 204.388483 180.806823 
L 204.388483 179.129276 
L 204.609021 179.129276 
L 204.707043 176.333365 
L 205.101603 176.333365 
L 205.123481 174.655818 
L 206.704273 174.655818 
L 206.704273 174.096636 
L 206.997305 174.096636 
L 206.997305 173.537454 
L 212.537726 173.537454 
L 212.537726 172.419089 
L 215.434113 172.419089 
L 215.542929 170.741543 
L 215.554857 170.741543 
L 215.663992 167.386449 
L 215.672607 167.386449 
L 215.772438 161.235444 
L 215.788486 161.235444 
L 215.882333 155.643622 
L 215.934368 155.643622 
L 215.985188 152.847711 
L 217.212188 152.847711 
L 217.212188 152.288529 
L 217.858478 152.288529 
L 217.858478 151.729346 
L 222.12205 151.729346 
L 222.12205 151.170164 
L 222.450428 151.170164 
L 222.553939 147.815071 
L 222.561876 147.815071 
L 222.665438 141.664066 
L 222.70769 141.664066 
L 222.70769 141.104884 
L 222.87921 141.104884 
L 222.87921 139.986519 
L 223.577949 139.986519 
L 223.577949 138.868155 
L 225.906504 138.868155 
L 225.906504 138.308973 
L 227.326291 138.308973 
L 227.410303 134.953879 
L 227.437491 134.953879 
L 227.521503 128.243692 
L 227.553375 128.243692 
L 227.577644 126.566145 
L 230.020334 126.566145 
L 230.020334 126.006963 
L 231.066618 126.006963 
L 231.066618 125.447781 
L 231.198991 125.447781 
L 231.3039 121.533505 
L 231.329919 121.533505 
L 231.438773 118.737594 
L 233.479179 118.737594 
L 233.479179 118.178412 
L 234.403137 118.178412 
L 234.43862 114.823318 
L 234.51585 114.823318 
L 234.51585 113.704954 
L 234.8708 113.704954 
L 234.8708 113.145772 
L 236.963544 113.145772 
L 237.058851 109.790678 
L 239.263549 109.790678 
L 239.321107 102.521309 
L 241.257991 102.521309 
L 241.330111 98.607033 
L 241.630612 98.607033 
L 241.630612 98.047851 
L 243.051421 98.047851 
L 243.070924 96.929487 
L 244.712096 96.929487 
L 244.758815 93.015211 
L 245.707008 93.015211 
L 245.707008 92.456029 
L 246.197117 92.456029 
L 246.24617 88.541753 
L 247.656598 88.541753 
L 247.656598 87.982571 
L 249.076204 87.982571 
L 249.076204 87.423389 
L 250.032217 87.423389 
L 250.063314 85.18666 
L 251.174565 85.18666 
L 251.174565 84.627477 
L 252.200093 84.627477 
L 252.239211 82.949931 
L 253.154148 82.949931 
L 253.185685 80.713202 
L 253.817016 80.713202 
L 253.817016 80.15402 
L 254.087876 80.15402 
L 254.087876 79.594837 
L 254.985146 79.594837 
L 254.99139 78.476473 
L 255.82197 78.476473 
L 255.82197 77.917291 
L 256.650834 77.917291 
L 256.650834 77.358108 
L 257.368676 77.358108 
L 257.412027 76.239744 
L 258.822131 76.239744 
L 258.822131 75.680562 
L 259.490767 75.680562 
L 259.49102 74.562197 
L 261.949829 74.562197 
L 261.949829 74.003015 
L 263.050705 74.003015 
L 263.050705 72.88465 
L 263.565063 72.88465 
L 263.565063 72.325468 
L 265.549411 72.325468 
L 265.549411 71.766286 
L 275.224332 71.766286 
L 275.224332 71.207104 
L 333.429677 71.207104 
L 333.429677 71.207104 
" style="fill:none;stroke:#000080;stroke-linecap:square;stroke-width:1.5;"/>
   </g>
   <g id="line2d_25">
    <defs>
     <path d="M 0 6 
C 1.591219 6 3.117479 5.367802 4.242641 4.242641 
C 5.367802 3.117479 6 1.591219 6 0 
C 6 -1.591219 5.367802 -3.117479 4.242641 -4.242641 
C 3.117479 -5.367802 1.591219 -6 0 -6 
C -1.591219 -6 -3.117479 -5.367802 -4.242641 -4.242641 
C -5.367802 -3.117479 -6 -1.591219 -6 0 
C -6 1.591219 -5.367802 3.117479 -4.242641 4.242641 
C -3.117479 5.367802 -1.591219 6 0 6 
z
" id="mf1d3823adf" style="stroke:#000080;stroke-width:1.5;"/>
    </defs>
    <g>
     <use style="fill-opacity:0;stroke:#000080;stroke-width:1.5;" x="136.026124" xlink:href="#mf1d3823adf" y="237.843411"/>
     <use style="fill-opacity:0;stroke:#000080;stroke-width:1.5;" x="206.704273" xlink:href="#mf1d3823adf" y="174.655818"/>
     <use style="fill-opacity:0;stroke:#000080;stroke-width:1.5;" x="241.630612" xlink:href="#mf1d3823adf" y="98.607033"/>
     <use style="fill-opacity:0;stroke:#000080;stroke-width:1.5;" x="275.224332" xlink:href="#mf1d3823adf" y="71.207104"/>
     <use style="fill-opacity:0;stroke:#000080;stroke-width:1.5;" x="333.429677" xlink:href="#mf1d3823adf" y="71.207104"/>
    </g>
   </g>
   <g id="line2d_26">
    <path style="fill:none;stroke:#000080;stroke-linecap:square;stroke-width:1.5;"/>
    <g/>
   </g>
   <g id="line2d_27">
    <path clip-path="url(#pfaf56a23ff)" d="M 203.387011 194.786379 
" style="fill:none;stroke:#000080;stroke-linecap:square;stroke-width:1.5;"/>
    <defs>
     <path d="M -12 12 
L 12 -12 
M -12 -12 
L 12 12 
" id="m631aa41b18" style="stroke:#000080;stroke-width:3;"/>
    </defs>
    <g clip-path="url(#pfaf56a23ff)">
     <use style="fill:#000080;stroke:#000080;stroke-width:3;" x="203.387011" xlink:href="#m631aa41b18" y="194.786379"/>
    </g>
   </g>
   <g id="line2d_28">
    <defs>
     <path d="M 0 1.5 
C 0.397805 1.5 0.77937 1.341951 1.06066 1.06066 
C 1.341951 0.77937 1.5 0.397805 1.5 0 
C 1.5 -0.397805 1.341951 -0.77937 1.06066 -1.06066 
C 0.77937 -1.341951 0.397805 -1.5 0 -1.5 
C -0.397805 -1.5 -0.77937 -1.341951 -1.06066 -1.06066 
C -1.341951 -0.77937 -1.5 -0.397805 -1.5 0 
C -1.5 0.397805 -1.341951 0.77937 -1.06066 1.06066 
C -0.77937 1.341951 -0.397805 1.5 0 1.5 
z
" id="m2f05059056" style="stroke:#ff00ff;"/>
    </defs>
    <g>
     <use style="fill:#ff00ff;stroke:#ff00ff;" x="282.62281" xlink:href="#m2f05059056" y="9.697057"/>
     <use style="fill:#ff00ff;stroke:#ff00ff;" x="282.62281" xlink:href="#m2f05059056" y="9.697057"/>
    </g>
   </g>
   <g id="line2d_29">
    <path d="M 49.144027 294.88 
L 49.144027 289.84736 
L 61.069532 289.84736 
L 61.069532 286.492266 
L 68.045504 286.492266 
L 68.045504 284.255537 
L 72.995036 284.255537 
L 72.995036 280.341262 
L 82.623151 280.341262 
L 82.623151 279.222897 
L 84.92054 279.222897 
L 84.92054 278.104533 
L 86.946982 278.104533 
L 86.946982 275.308622 
L 88.759695 275.308622 
L 88.759695 274.749439 
L 95.735668 274.749439 
L 95.735668 273.631075 
L 96.846045 273.631075 
L 96.846045 273.071893 
L 99.802705 273.071893 
L 99.802705 268.598435 
L 104.524355 268.598435 
L 104.524355 265.802523 
L 106.47416 265.802523 
L 106.47416 263.565795 
L 110.313314 263.565795 
L 110.313314 259.651519 
L 113.035537 259.651519 
L 113.035537 257.973972 
L 116.790561 257.973972 
L 116.790561 256.855608 
L 117.773963 256.855608 
L 117.773963 255.178061 
L 118.089658 255.178061 
L 118.089658 254.618879 
L 119.871061 254.618879 
L 119.871061 253.500514 
L 123.194891 253.500514 
L 123.194891 252.38215 
L 124.100619 252.38215 
L 124.100619 250.704603 
L 124.319792 250.704603 
L 124.319792 249.027056 
L 125.579247 249.027056 
L 125.579247 248.467874 
L 127.851317 248.467874 
L 127.851317 245.671963 
L 128.027779 245.671963 
L 128.027779 245.112781 
L 128.202449 245.112781 
L 128.202449 243.994416 
L 129.214792 243.994416 
L 129.214792 242.876052 
L 129.539422 242.876052 
L 129.539422 242.316869 
L 130.629687 242.316869 
L 130.629687 241.757687 
L 130.92891 241.757687 
L 130.92891 240.08014 
L 132.35161 240.08014 
L 132.35161 239.520958 
L 132.622558 239.520958 
L 132.622558 238.961776 
L 133.665597 238.961776 
L 133.665597 238.402594 
L 133.916767 238.402594 
L 133.916767 237.843411 
L 134.886312 237.843411 
L 134.886312 237.284229 
L 135.351336 237.284229 
L 135.351336 236.165865 
L 140.557025 236.165865 
L 140.557025 234.488318 
L 143.651414 234.488318 
L 143.651414 233.929136 
L 144.880856 233.929136 
L 144.880856 226.100584 
L 145.966495 226.100584 
L 145.966495 225.541402 
L 148.061564 225.541402 
L 148.061564 224.98222 
L 148.600945 224.98222 
L 148.600945 223.863855 
L 149.12393 223.863855 
L 149.12393 223.304673 
L 150.977803 223.304673 
L 150.977803 222.186309 
L 203.41996 222.186309 
L 203.516248 219.94958 
L 203.546773 219.94958 
L 203.644522 213.239393 
L 203.666168 213.239393 
L 203.735256 211.002664 
L 203.827657 211.002664 
L 203.921696 205.970024 
L 203.947254 205.970024 
L 203.987644 195.904743 
L 204.063912 195.904743 
L 204.063912 193.668014 
L 215.45266 193.668014 
L 215.534249 188.635374 
L 215.581935 188.635374 
L 215.665069 178.570094 
L 215.71669 178.570094 
L 215.71669 178.010912 
L 222.341907 178.010912 
L 222.436628 174.655818 
L 222.468569 174.655818 
L 222.55899 163.472173 
L 227.295639 163.472173 
L 227.390155 155.643622 
L 227.4152 155.643622 
L 227.441294 152.847711 
L 231.123286 152.847711 
L 231.223425 141.104884 
L 231.239986 141.104884 
L 231.239986 140.545702 
L 234.241089 140.545702 
L 234.349775 129.362057 
L 236.899711 129.362057 
L 236.982585 123.211052 
L 239.219226 123.211052 
L 239.249608 115.941683 
L 241.22901 115.941683 
L 241.280606 105.31722 
L 243.047255 105.31722 
L 243.084277 99.725398 
L 244.691778 99.725398 
L 244.716674 94.692758 
L 246.176652 94.692758 
L 246.187253 90.778482 
L 247.550921 90.778482 
L 247.579423 82.390748 
L 248.83258 82.390748 
L 248.83258 78.476473 
L 250.008382 78.476473 
L 250.016867 76.239744 
L 251.116902 76.239744 
L 251.140073 70.647921 
L 252.158302 70.647921 
L 252.180113 65.056099 
L 253.140249 65.056099 
L 253.16085 60.023459 
L 254.069165 60.023459 
L 254.075866 54.431636 
L 254.956853 54.431636 
L 254.963766 51.076543 
L 255.794917 51.076543 
L 255.800456 48.839814 
L 256.594048 48.839814 
L 256.605121 46.043903 
L 257.357702 46.043903 
L 257.363714 44.925538 
L 258.088896 44.925538 
L 258.088896 43.247992 
L 258.790278 43.247992 
L 258.79581 40.45208 
L 259.459284 40.45208 
L 259.459284 39.333716 
L 260.107966 39.333716 
L 260.112684 37.656169 
L 260.737626 37.656169 
L 260.737626 36.537805 
L 261.340662 36.537805 
L 261.345432 34.860258 
L 262.486803 34.860258 
L 262.486803 33.182711 
L 263.031222 33.182711 
L 263.032457 30.3868 
L 263.561336 30.3868 
L 263.561336 29.827618 
L 264.070694 29.827618 
L 264.074442 27.590889 
L 264.572687 27.590889 
L 264.57664 25.913342 
L 265.056908 25.913342 
L 265.056908 24.235795 
L 265.531019 24.235795 
L 265.531019 23.676613 
L 265.98548 23.676613 
L 265.986289 22.558249 
L 266.432807 22.558249 
L 266.432807 21.999066 
L 266.868029 21.999066 
L 266.868029 21.439884 
L 267.292512 21.439884 
L 267.292512 20.32152 
L 267.706774 20.32152 
L 267.706774 19.203155 
L 268.506524 19.203155 
L 268.50967 18.084791 
L 269.269885 18.084791 
L 269.270744 16.966426 
L 270.002457 16.966426 
L 270.002457 15.848062 
L 270.356966 15.848062 
L 270.356966 15.28888 
L 270.704317 15.28888 
L 270.704317 14.170515 
L 271.378662 14.170515 
L 271.378662 13.611333 
L 272.026839 13.611333 
L 272.027571 12.492968 
L 272.652892 12.492968 
L 272.652892 11.933786 
L 275.215612 11.933786 
L 275.215612 11.374604 
L 277.209904 11.374604 
L 277.209904 10.815422 
L 279.000004 10.815422 
L 279.000004 10.256239 
L 282.62281 10.256239 
L 282.62281 9.697057 
L 333.429677 9.697057 
L 333.429677 9.697057 
" style="fill:none;stroke:#ff00ff;stroke-linecap:square;stroke-width:1.5;"/>
   </g>
   <g id="line2d_30">
    <defs>
     <path d="M -0 8.485281 
L 5.091169 0 
L 0 -8.485281 
L -5.091169 -0 
z
" id="m5dfd851b08" style="stroke:#ff00ff;stroke-linejoin:miter;stroke-width:1.5;"/>
    </defs>
    <g>
     <use style="fill-opacity:0;stroke:#ff00ff;stroke-linejoin:miter;stroke-width:1.5;" x="135.351336" xlink:href="#m5dfd851b08" y="237.284229"/>
     <use style="fill-opacity:0;stroke:#ff00ff;stroke-linejoin:miter;stroke-width:1.5;" x="222.468569" xlink:href="#m5dfd851b08" y="172.419089"/>
     <use style="fill-opacity:0;stroke:#ff00ff;stroke-linejoin:miter;stroke-width:1.5;" x="253.16085" xlink:href="#m5dfd851b08" y="60.023459"/>
     <use style="fill-opacity:0;stroke:#ff00ff;stroke-linejoin:miter;stroke-width:1.5;" x="282.62281" xlink:href="#m5dfd851b08" y="9.697057"/>
     <use style="fill-opacity:0;stroke:#ff00ff;stroke-linejoin:miter;stroke-width:1.5;" x="282.62281" xlink:href="#m5dfd851b08" y="9.697057"/>
     <use style="fill-opacity:0;stroke:#ff00ff;stroke-linejoin:miter;stroke-width:1.5;" x="333.429677" xlink:href="#m5dfd851b08" y="9.697057"/>
    </g>
   </g>
   <g id="line2d_31">
    <path style="fill:none;stroke:#ff00ff;stroke-linecap:square;stroke-width:1.5;"/>
    <g/>
   </g>
   <g id="line2d_32">
    <path clip-path="url(#pfaf56a23ff)" d="M 203.387011 222.186309 
" style="fill:none;stroke:#ff00ff;stroke-linecap:square;stroke-width:1.5;"/>
    <defs>
     <path d="M -12 12 
L 12 -12 
M -12 -12 
L 12 12 
" id="m6683cc1898" style="stroke:#ff00ff;stroke-width:3;"/>
    </defs>
    <g clip-path="url(#pfaf56a23ff)">
     <use style="fill:#ff00ff;stroke:#ff00ff;stroke-width:3;" x="203.387011" xlink:href="#m6683cc1898" y="222.186309"/>
    </g>
   </g>
   <g id="line2d_33">
    <defs>
     <path d="M 0 1.5 
C 0.397805 1.5 0.77937 1.341951 1.06066 1.06066 
C 1.341951 0.77937 1.5 0.397805 1.5 0 
C 1.5 -0.397805 1.341951 -0.77937 1.06066 -1.06066 
C 0.77937 -1.341951 0.397805 -1.5 0 -1.5 
C -0.397805 -1.5 -0.77937 -1.341951 -1.06066 -1.06066 
C -1.341951 -0.77937 -1.5 -0.397805 -1.5 0 
C -1.5 0.397805 -1.341951 0.77937 -1.06066 1.06066 
C -0.77937 1.341951 -0.397805 1.5 0 1.5 
z
" id="mf86281096e" style="stroke:#ffa500;"/>
    </defs>
    <g>
     <use style="fill:#ffa500;stroke:#ffa500;" x="277.211079" xlink:href="#mf86281096e" y="188.635374"/>
     <use style="fill:#ffa500;stroke:#ffa500;" x="277.211079" xlink:href="#mf86281096e" y="188.635374"/>
    </g>
   </g>
   <g id="line2d_34">
    <path d="M 72.995036 294.88 
L 72.995036 294.320818 
L 91.896513 294.320818 
L 91.896513 293.202453 
L 99.802705 293.202453 
L 99.802705 291.524907 
L 116.790561 291.524907 
L 116.790561 290.965724 
L 117.452368 290.965724 
L 117.452368 290.406542 
L 117.773963 290.406542 
L 117.773963 289.288178 
L 118.089658 289.288178 
L 118.089658 288.728995 
L 119.003405 288.728995 
L 119.003405 287.051449 
L 119.871061 287.051449 
L 119.871061 285.933084 
L 121.226476 285.933084 
L 121.226476 285.373902 
L 121.485201 285.373902 
L 121.485201 284.81472 
L 122.238819 284.81472 
L 122.238819 284.255537 
L 122.482864 284.255537 
L 122.482864 283.137173 
L 123.425832 283.137173 
L 123.425832 282.018808 
L 125.780476 282.018808 
L 125.780476 280.900444 
L 126.370415 280.900444 
L 126.370415 279.782079 
L 127.126794 279.782079 
L 127.126794 279.222897 
L 128.883919 279.222897 
L 128.883919 278.663715 
L 129.050151 278.663715 
L 129.050151 276.986168 
L 129.214792 276.986168 
L 129.214792 275.308622 
L 129.377872 275.308622 
L 129.377872 273.071893 
L 129.539422 273.071893 
L 129.539422 266.361706 
L 129.858039 266.361706 
L 129.858039 264.684159 
L 130.325168 264.684159 
L 130.325168 260.769883 
L 131.368207 260.769883 
L 131.368207 259.651519 
L 131.654961 259.651519 
L 131.654961 259.092337 
L 133.410705 259.092337 
L 133.410705 257.41479 
L 134.768065 257.41479 
L 134.768065 256.855608 
L 135.120395 256.855608 
L 135.120395 256.296425 
L 135.236253 256.296425 
L 135.236253 254.059696 
L 136.136059 254.059696 
L 136.245297 252.38215 
L 136.353845 252.38215 
L 136.353845 250.145421 
L 136.675441 250.145421 
L 136.675441 247.908692 
L 136.991135 247.908692 
L 136.991135 247.34951 
L 137.60566 247.34951 
L 137.60566 246.790327 
L 138.19899 246.790327 
L 138.19899 246.231145 
L 138.392305 246.231145 
L 138.392305 245.671963 
L 138.678265 245.671963 
L 138.678265 245.112781 
L 138.95955 245.112781 
L 138.95955 243.994416 
L 140.300868 243.994416 
L 140.300868 243.435234 
L 140.89274 243.435234 
L 140.975655 242.316869 
L 141.058173 242.316869 
L 141.058173 240.639323 
L 142.327309 240.639323 
L 142.327309 240.08014 
L 143.148522 240.08014 
L 143.148522 239.520958 
L 143.580466 239.520958 
L 143.580466 238.961776 
L 144.946649 238.961776 
L 144.946649 238.402594 
L 145.142532 238.402594 
L 145.142532 237.843411 
L 148.333368 237.843411 
L 148.440899 236.165865 
L 203.724479 236.165865 
L 203.773996 232.251589 
L 203.844793 232.251589 
L 203.911036 228.337313 
L 203.960019 228.337313 
L 203.972774 226.659767 
L 204.078703 226.659767 
L 204.131424 224.98222 
L 215.484254 224.98222 
L 215.576523 221.067944 
L 215.60789 221.067944 
L 215.688748 219.390397 
L 222.417725 219.390397 
L 222.52071 216.035304 
L 227.324103 216.035304 
L 227.427164 209.884299 
L 231.146076 209.884299 
L 231.228656 206.529206 
L 234.302446 206.529206 
L 234.302446 205.970024 
L 236.936663 205.970024 
L 236.974472 203.733295 
L 239.225252 203.733295 
L 239.249608 202.055748 
L 241.248985 202.055748 
L 241.266506 200.378201 
L 243.037164 200.378201 
L 243.071581 198.700655 
L 244.690782 198.700655 
L 244.690782 198.141472 
L 246.183781 198.141472 
L 246.183781 197.58229 
L 247.575041 197.58229 
L 247.575041 197.023108 
L 248.83634 197.023108 
L 248.83634 196.463926 
L 250.014088 196.463926 
L 250.024617 195.345561 
L 251.122252 195.345561 
L 251.122252 194.786379 
L 252.172631 194.786379 
L 252.172631 194.227197 
L 253.145005 194.227197 
L 253.145005 193.668014 
L 254.073671 193.668014 
L 254.073671 193.108832 
L 254.962669 193.108832 
L 254.962669 192.54965 
L 255.792931 192.54965 
L 255.800456 191.431285 
L 257.365814 191.431285 
L 257.365814 190.872103 
L 261.344675 190.872103 
L 261.344675 190.312921 
L 265.991202 190.312921 
L 265.991202 189.753739 
L 269.642968 189.753739 
L 269.642968 189.194556 
L 277.211079 189.194556 
L 277.211079 188.635374 
L 333.429677 188.635374 
L 333.429677 188.635374 
" style="fill:none;stroke:#ffa500;stroke-linecap:square;stroke-width:1.5;"/>
   </g>
   <g id="line2d_35">
    <defs>
     <path d="M 0 -6 
L -1.347084 -1.854102 
L -5.706339 -1.854102 
L -2.179628 0.708204 
L -3.526712 4.854102 
L -0 2.291796 
L 3.526712 4.854102 
L 2.179628 0.708204 
L 5.706339 -1.854102 
L 1.347084 -1.854102 
z
" id="md59c4d6286" style="stroke:#ffa500;stroke-linejoin:bevel;stroke-width:1.5;"/>
    </defs>
    <g>
     <use style="fill-opacity:0;stroke:#ffa500;stroke-linejoin:bevel;stroke-width:1.5;" x="138.678265" xlink:href="#md59c4d6286" y="245.671963"/>
     <use style="fill-opacity:0;stroke:#ffa500;stroke-linejoin:bevel;stroke-width:1.5;" x="203.773996" xlink:href="#md59c4d6286" y="232.251589"/>
     <use style="fill-opacity:0;stroke:#ffa500;stroke-linejoin:bevel;stroke-width:1.5;" x="277.211079" xlink:href="#md59c4d6286" y="189.194556"/>
     <use style="fill-opacity:0;stroke:#ffa500;stroke-linejoin:bevel;stroke-width:1.5;" x="277.211079" xlink:href="#md59c4d6286" y="188.635374"/>
     <use style="fill-opacity:0;stroke:#ffa500;stroke-linejoin:bevel;stroke-width:1.5;" x="333.429677" xlink:href="#md59c4d6286" y="188.635374"/>
    </g>
   </g>
   <g id="line2d_36">
    <path style="fill:none;stroke:#ffa500;stroke-linecap:square;stroke-width:1.5;"/>
    <g/>
   </g>
   <g id="line2d_37">
    <path clip-path="url(#pfaf56a23ff)" d="M 203.387011 236.165865 
" style="fill:none;stroke:#ffa500;stroke-linecap:square;stroke-width:1.5;"/>
    <defs>
     <path d="M -12 12 
L 12 -12 
M -12 -12 
L 12 12 
" id="m74efaccf35" style="stroke:#ffa500;stroke-width:3;"/>
    </defs>
    <g clip-path="url(#pfaf56a23ff)">
     <use style="fill:#ffa500;stroke:#ffa500;stroke-width:3;" x="203.387011" xlink:href="#m74efaccf35" y="236.165865"/>
    </g>
   </g>
   <g id="line2d_38">
    <defs>
     <path d="M 0 1.5 
C 0.397805 1.5 0.77937 1.341951 1.06066 1.06066 
C 1.341951 0.77937 1.5 0.397805 1.5 0 
C 1.5 -0.397805 1.341951 -0.77937 1.06066 -1.06066 
C 0.77937 -1.341951 0.397805 -1.5 0 -1.5 
C -0.397805 -1.5 -0.77937 -1.341951 -1.06066 -1.06066 
C -1.341951 -0.77937 -1.5 -0.397805 -1.5 0 
C -1.5 0.397805 -1.341951 0.77937 -1.06066 1.06066 
C -0.77937 1.341951 -0.397805 1.5 0 1.5 
z
" id="m77f6d49852" style="stroke:#6495ed;"/>
    </defs>
    <g>
     <use style="fill:#6495ed;stroke:#6495ed;" x="280.04602" xlink:href="#m77f6d49852" y="99.166216"/>
     <use style="fill:#6495ed;stroke:#6495ed;" x="280.04602" xlink:href="#m77f6d49852" y="99.166216"/>
    </g>
   </g>
   <g id="line2d_39">
    <path d="M 91.896513 294.88 
L 91.896513 294.320818 
L 116.790561 294.320818 
L 116.790561 290.965724 
L 117.124646 290.965724 
L 117.124646 289.84736 
L 117.452368 289.84736 
L 117.452368 289.288178 
L 118.399664 289.288178 
L 118.399664 287.051449 
L 119.003405 287.051449 
L 119.003405 286.492266 
L 119.297513 286.492266 
L 119.297513 280.900444 
L 119.586677 280.900444 
L 119.586677 279.782079 
L 120.426105 279.782079 
L 120.426105 279.222897 
L 120.963801 279.222897 
L 120.963801 276.986168 
L 121.485201 276.986168 
L 121.485201 276.426986 
L 121.991263 276.426986 
L 121.991263 275.308622 
L 122.482864 275.308622 
L 122.482864 274.190257 
L 122.960807 274.190257 
L 122.960807 273.631075 
L 123.653714 273.631075 
L 123.653714 273.071893 
L 124.961042 273.071893 
L 124.961042 270.275981 
L 126.940794 270.275981 
L 126.940794 268.598435 
L 127.126794 268.598435 
L 127.126794 268.039252 
L 127.851317 268.039252 
L 127.851317 267.48007 
L 128.883919 267.48007 
L 128.883919 266.920888 
L 129.214792 266.920888 
L 129.214792 265.243341 
L 129.377872 265.243341 
L 129.377872 264.684159 
L 129.539422 264.684159 
L 129.539422 263.006612 
L 130.325168 263.006612 
L 130.325168 262.44743 
L 130.629687 262.44743 
L 130.629687 261.888248 
L 130.92891 261.888248 
L 130.92891 261.329066 
L 131.223017 261.329066 
L 131.223017 260.210701 
L 132.487617 260.210701 
L 132.487617 259.651519 
L 132.889306 259.651519 
L 132.889306 258.533154 
L 133.410705 258.533154 
L 133.410705 256.855608 
L 134.04099 256.855608 
L 134.04099 255.737243 
L 134.529104 255.737243 
L 134.529104 252.38215 
L 134.648999 252.38215 
L 134.648999 251.263785 
L 134.768065 251.263785 
L 134.768065 250.145421 
L 134.886312 250.145421 
L 134.886312 249.586238 
L 135.236253 249.586238 
L 135.236253 248.467874 
L 136.026124 248.467874 
L 136.136059 247.34951 
L 136.245297 247.34951 
L 136.245297 246.231145 
L 136.461713 246.231145 
L 136.461713 243.994416 
L 137.095092 243.994416 
L 137.095092 240.08014 
L 137.301141 240.08014 
L 137.403248 238.402594 
L 137.70598 238.402594 
L 137.70598 237.284229 
L 139.418374 237.284229 
L 139.418374 236.725047 
L 140.89274 236.725047 
L 140.975655 235.0475 
L 141.140296 235.0475 
L 141.140296 232.810771 
L 141.545135 232.810771 
L 141.545135 232.251589 
L 142.018694 232.251589 
L 142.096368 229.455678 
L 142.173693 229.455678 
L 142.173693 228.337313 
L 142.705453 228.337313 
L 142.705453 227.778131 
L 143.72207 227.778131 
L 143.72207 226.659767 
L 144.74851 226.659767 
L 144.81481 224.423038 
L 144.880856 224.423038 
L 144.880856 223.304673 
L 145.271892 223.304673 
L 145.271892 222.745491 
L 147.334095 222.745491 
L 147.334095 221.627126 
L 148.225161 221.627126 
L 148.225161 220.508762 
L 148.600945 220.508762 
L 148.600945 219.390397 
L 150.124495 219.390397 
L 150.124495 218.831215 
L 150.698043 218.831215 
L 150.791803 214.91694 
L 153.748464 214.91694 
L 153.748464 214.357757 
L 157.100467 214.357757 
L 157.100467 213.798575 
L 192.844549 213.798575 
L 192.844549 213.239393 
L 203.698588 213.239393 
L 203.748179 211.002664 
L 203.842652 211.002664 
L 203.949382 208.765935 
L 203.957892 208.765935 
L 204.03641 207.088388 
L 204.070253 207.088388 
L 204.177685 204.292477 
L 204.321974 204.292477 
L 204.321974 202.61493 
L 215.487519 202.61493 
L 215.554857 198.700655 
L 215.654295 198.700655 
L 215.710246 191.431285 
L 215.886587 191.431285 
L 215.886587 190.872103 
L 222.390061 190.872103 
L 222.480895 188.076192 
L 222.50769 188.076192 
L 222.605822 181.925187 
L 222.673323 181.925187 
L 222.739846 180.806823 
L 222.923766 180.806823 
L 222.923766 180.247641 
L 227.359617 180.247641 
L 227.439121 174.655818 
L 227.476567 174.655818 
L 227.476567 174.096636 
L 231.169274 174.096636 
L 231.268276 167.945631 
L 231.349408 167.945631 
L 231.349408 167.386449 
L 234.295153 167.386449 
L 234.373391 161.235444 
L 236.936037 161.235444 
L 237.032119 153.406893 
L 239.221144 153.406893 
L 239.308848 149.492617 
L 241.244359 149.492617 
L 241.319203 144.459977 
L 243.04879 144.459977 
L 243.119036 141.104884 
L 243.195738 141.104884 
L 243.195738 140.545702 
L 244.694369 140.545702 
L 244.766755 138.308973 
L 244.818075 138.308973 
L 244.818075 137.74979 
L 246.180125 137.74979 
L 246.253452 134.953879 
L 246.300529 134.953879 
L 246.300529 134.394697 
L 247.570153 134.394697 
L 247.66532 132.71715 
L 248.841352 132.71715 
L 248.88936 130.480421 
L 250.022716 130.480421 
L 250.107598 127.68451 
L 251.130342 127.68451 
L 251.148976 124.329417 
L 252.167469 124.329417 
L 252.245893 122.092688 
L 253.160363 122.092688 
L 253.168767 119.855959 
L 254.088222 119.855959 
L 254.117748 117.61923 
L 254.968592 117.61923 
L 254.996647 115.941683 
L 255.796276 115.941683 
L 255.806099 114.823318 
L 256.604522 114.823318 
L 256.630233 111.468225 
L 257.358943 111.468225 
L 257.367913 109.790678 
L 258.098499 109.790678 
L 258.098682 108.672314 
L 258.805729 108.672314 
L 258.805729 108.113132 
L 259.486972 108.113132 
L 259.516636 106.994767 
L 260.746017 106.994767 
L 260.751425 105.876403 
L 262.530815 105.876403 
L 262.530815 105.31722 
L 263.057355 105.31722 
L 263.057355 104.758038 
L 264.085808 104.758038 
L 264.085808 104.198856 
L 265.063436 104.198856 
L 265.063436 103.639674 
L 265.538319 103.639674 
L 265.538319 103.080491 
L 266.442718 103.080491 
L 266.442718 102.521309 
L 268.116762 102.521309 
L 268.116762 101.962127 
L 270.007355 101.962127 
L 270.007355 101.402945 
L 270.361763 101.402945 
L 270.361763 100.28458 
L 277.450854 100.28458 
L 277.450854 99.725398 
L 280.04602 99.725398 
L 280.04602 99.166216 
L 333.429677 99.166216 
L 333.429677 99.166216 
" style="fill:none;stroke:#6495ed;stroke-linecap:square;stroke-width:1.5;"/>
   </g>
   <g id="line2d_40">
    <defs>
     <path d="M -0 6 
L 6 -6 
L -6 -6 
z
" id="mbbf1051183" style="stroke:#6495ed;stroke-linejoin:miter;stroke-width:1.5;"/>
    </defs>
    <g>
     <use style="fill-opacity:0;stroke:#6495ed;stroke-linejoin:miter;stroke-width:1.5;" x="139.418374" xlink:href="#mbbf1051183" y="237.284229"/>
     <use style="fill-opacity:0;stroke:#6495ed;stroke-linejoin:miter;stroke-width:1.5;" x="215.657528" xlink:href="#mbbf1051183" y="198.141472"/>
     <use style="fill-opacity:0;stroke:#6495ed;stroke-linejoin:miter;stroke-width:1.5;" x="270.361763" xlink:href="#mbbf1051183" y="100.28458"/>
     <use style="fill-opacity:0;stroke:#6495ed;stroke-linejoin:miter;stroke-width:1.5;" x="280.04602" xlink:href="#mbbf1051183" y="99.166216"/>
     <use style="fill-opacity:0;stroke:#6495ed;stroke-linejoin:miter;stroke-width:1.5;" x="333.429677" xlink:href="#mbbf1051183" y="99.166216"/>
    </g>
   </g>
   <g id="line2d_41">
    <path style="fill:none;stroke:#6495ed;stroke-linecap:square;stroke-width:1.5;"/>
    <g/>
   </g>
   <g id="line2d_42">
    <path clip-path="url(#pfaf56a23ff)" d="M 203.387011 213.239393 
" style="fill:none;stroke:#6495ed;stroke-linecap:square;stroke-width:1.5;"/>
    <defs>
     <path d="M -12 12 
L 12 -12 
M -12 -12 
L 12 12 
" id="m41f75d14f5" style="stroke:#6495ed;stroke-width:3;"/>
    </defs>
    <g clip-path="url(#pfaf56a23ff)">
     <use style="fill:#6495ed;stroke:#6495ed;stroke-width:3;" x="203.387011" xlink:href="#m41f75d14f5" y="213.239393"/>
    </g>
   </g>
   <g id="line2d_43">
    <path d="M 333.429677 188.635374 
L 363.933742 289.176341 
" style="fill:none;stroke:#ffa500;stroke-linecap:square;stroke-width:1.5;"/>
    <g>
     <use style="fill-opacity:0;stroke:#ffa500;stroke-linejoin:bevel;stroke-width:1.5;" x="333.429677" xlink:href="#md59c4d6286" y="188.635374"/>
     <use style="fill-opacity:0;stroke:#ffa500;stroke-linejoin:bevel;stroke-width:1.5;" x="363.933742" xlink:href="#md59c4d6286" y="289.176341"/>
    </g>
   </g>
   <g id="line2d_44">
    <path d="M 333.429677 99.166216 
L 363.933742 197.917799 
" style="fill:none;stroke:#6495ed;stroke-linecap:square;stroke-width:1.5;"/>
    <g>
     <use style="fill-opacity:0;stroke:#6495ed;stroke-linejoin:miter;stroke-width:1.5;" x="333.429677" xlink:href="#mbbf1051183" y="99.166216"/>
     <use style="fill-opacity:0;stroke:#6495ed;stroke-linejoin:miter;stroke-width:1.5;" x="363.933742" xlink:href="#mbbf1051183" y="197.917799"/>
    </g>
   </g>
   <g id="line2d_45">
    <path d="M 333.429677 71.207104 
L 363.933742 106.659258 
" style="fill:none;stroke:#000080;stroke-linecap:square;stroke-width:1.5;"/>
    <g>
     <use style="fill-opacity:0;stroke:#000080;stroke-width:1.5;" x="333.429677" xlink:href="#mf1d3823adf" y="71.207104"/>
     <use style="fill-opacity:0;stroke:#000080;stroke-width:1.5;" x="363.933742" xlink:href="#mf1d3823adf" y="106.659258"/>
    </g>
   </g>
   <g id="line2d_46">
    <path d="M 333.429677 9.697057 
L 363.933742 15.400716 
" style="fill:none;stroke:#ff00ff;stroke-linecap:square;stroke-width:1.5;"/>
    <g>
     <use style="fill-opacity:0;stroke:#ff00ff;stroke-linejoin:miter;stroke-width:1.5;" x="333.429677" xlink:href="#m5dfd851b08" y="9.697057"/>
     <use style="fill-opacity:0;stroke:#ff00ff;stroke-linejoin:miter;stroke-width:1.5;" x="363.933742" xlink:href="#m5dfd851b08" y="15.400716"/>
    </g>
   </g>
   <g id="line2d_47">
    <path d="M 333.429677 294.88 
L 333.429677 9.697057 
" style="fill:none;stroke:#000000;stroke-linecap:square;stroke-width:1.5;"/>
   </g>
   <g id="patch_3">
    <path d="M 56.12 294.88 
L 56.12 6.845228 
" style="fill:none;stroke:#000000;stroke-linecap:square;stroke-linejoin:miter;stroke-width:0.8;"/>
   </g>
   <g id="patch_4">
    <path d="M 399.984 294.88 
L 399.984 6.845228 
" style="fill:none;stroke:#000000;stroke-linecap:square;stroke-linejoin:miter;stroke-width:0.8;"/>
   </g>
   <g id="patch_5">
    <path d="M 56.12 294.88 
L 399.984 294.88 
" style="fill:none;stroke:#000000;stroke-linecap:square;stroke-linejoin:miter;stroke-width:0.8;"/>
   </g>
   <g id="patch_6">
    <path d="M 56.12 6.845228 
L 399.984 6.845228 
" style="fill:none;stroke:#000000;stroke-linecap:square;stroke-linejoin:miter;stroke-width:0.8;"/>
   </g>
   <g id="text_14">
    <!-- f8 -->
    <g transform="translate(369.479935 293.867279)scale(0.17 -0.17)">
     <use xlink:href="#DejaVuSans-66"/>
     <use x="35.205078" xlink:href="#DejaVuSans-38"/>
    </g>
   </g>
   <g id="text_15">
    <!-- f9 -->
    <defs>
     <path d="M 10.984375 1.515625 
L 10.984375 10.5 
Q 14.703125 8.734375 18.5 7.8125 
Q 22.3125 6.890625 25.984375 6.890625 
Q 35.75 6.890625 40.890625 13.453125 
Q 46.046875 20.015625 46.78125 33.40625 
Q 43.953125 29.203125 39.59375 26.953125 
Q 35.25 24.703125 29.984375 24.703125 
Q 19.046875 24.703125 12.671875 31.3125 
Q 6.296875 37.9375 6.296875 49.421875 
Q 6.296875 60.640625 12.9375 67.421875 
Q 19.578125 74.21875 30.609375 74.21875 
Q 43.265625 74.21875 49.921875 64.515625 
Q 56.59375 54.828125 56.59375 36.375 
Q 56.59375 19.140625 48.40625 8.859375 
Q 40.234375 -1.421875 26.421875 -1.421875 
Q 22.703125 -1.421875 18.890625 -0.6875 
Q 15.09375 0.046875 10.984375 1.515625 
z
M 30.609375 32.421875 
Q 37.25 32.421875 41.125 36.953125 
Q 45.015625 41.5 45.015625 49.421875 
Q 45.015625 57.28125 41.125 61.84375 
Q 37.25 66.40625 30.609375 66.40625 
Q 23.96875 66.40625 20.09375 61.84375 
Q 16.21875 57.28125 16.21875 49.421875 
Q 16.21875 41.5 20.09375 36.953125 
Q 23.96875 32.421875 30.609375 32.421875 
z
" id="DejaVuSans-39"/>
    </defs>
    <g transform="translate(369.479935 202.608737)scale(0.17 -0.17)">
     <use xlink:href="#DejaVuSans-66"/>
     <use x="35.205078" xlink:href="#DejaVuSans-39"/>
    </g>
   </g>
   <g id="text_16">
    <!-- f6 -->
    <g transform="translate(369.479935 111.350195)scale(0.17 -0.17)">
     <use xlink:href="#DejaVuSans-66"/>
     <use x="35.205078" xlink:href="#DejaVuSans-36"/>
    </g>
   </g>
   <g id="text_17">
    <!-- f7 -->
    <defs>
     <path d="M 8.203125 72.90625 
L 55.078125 72.90625 
L 55.078125 68.703125 
L 28.609375 0 
L 18.3125 0 
L 43.21875 64.59375 
L 8.203125 64.59375 
z
" id="DejaVuSans-37"/>
    </defs>
    <g transform="translate(369.479935 20.091654)scale(0.17 -0.17)">
     <use xlink:href="#DejaVuSans-66"/>
     <use x="35.205078" xlink:href="#DejaVuSans-37"/>
    </g>
   </g>
   <g id="text_18">
    <!-- bbob -->
    <defs>
     <path d="M 48.6875 27.296875 
Q 48.6875 37.203125 44.609375 42.84375 
Q 40.53125 48.484375 33.40625 48.484375 
Q 26.265625 48.484375 22.1875 42.84375 
Q 18.109375 37.203125 18.109375 27.296875 
Q 18.109375 17.390625 22.1875 11.75 
Q 26.265625 6.109375 33.40625 6.109375 
Q 40.53125 6.109375 44.609375 11.75 
Q 48.6875 17.390625 48.6875 27.296875 
z
M 18.109375 46.390625 
Q 20.953125 51.265625 25.265625 53.625 
Q 29.59375 56 35.59375 56 
Q 45.5625 56 51.78125 48.09375 
Q 58.015625 40.1875 58.015625 27.296875 
Q 58.015625 14.40625 51.78125 6.484375 
Q 45.5625 -1.421875 35.59375 -1.421875 
Q 29.59375 -1.421875 25.265625 0.953125 
Q 20.953125 3.328125 18.109375 8.203125 
L 18.109375 0 
L 9.078125 0 
L 9.078125 75.984375 
L 18.109375 75.984375 
z
" id="DejaVuSans-62"/>
    </defs>
    <g transform="translate(59.55864 17.475982)scale(0.102 -0.102)">
     <use xlink:href="#DejaVuSans-62"/>
     <use x="63.476562" xlink:href="#DejaVuSans-62"/>
     <use x="126.953125" xlink:href="#DejaVuSans-6f"/>
     <use x="188.134766" xlink:href="#DejaVuSans-62"/>
    </g>
    <!-- Misc. moderate functions, 3-D -->
    <defs>
     <path d="M 9.8125 72.90625 
L 24.515625 72.90625 
L 43.109375 23.296875 
L 61.8125 72.90625 
L 76.515625 72.90625 
L 76.515625 0 
L 66.890625 0 
L 66.890625 64.015625 
L 48.09375 14.015625 
L 38.1875 14.015625 
L 19.390625 64.015625 
L 19.390625 0 
L 9.8125 0 
z
" id="DejaVuSans-4d"/>
     <path d="M 40.578125 39.3125 
Q 47.65625 37.796875 51.625 33 
Q 55.609375 28.21875 55.609375 21.1875 
Q 55.609375 10.40625 48.1875 4.484375 
Q 40.765625 -1.421875 27.09375 -1.421875 
Q 22.515625 -1.421875 17.65625 -0.515625 
Q 12.796875 0.390625 7.625 2.203125 
L 7.625 11.71875 
Q 11.71875 9.328125 16.59375 8.109375 
Q 21.484375 6.890625 26.8125 6.890625 
Q 36.078125 6.890625 40.9375 10.546875 
Q 45.796875 14.203125 45.796875 21.1875 
Q 45.796875 27.640625 41.28125 31.265625 
Q 36.765625 34.90625 28.71875 34.90625 
L 20.21875 34.90625 
L 20.21875 43.015625 
L 29.109375 43.015625 
Q 36.375 43.015625 40.234375 45.921875 
Q 44.09375 48.828125 44.09375 54.296875 
Q 44.09375 59.90625 40.109375 62.90625 
Q 36.140625 65.921875 28.71875 65.921875 
Q 24.65625 65.921875 20.015625 65.03125 
Q 15.375 64.15625 9.8125 62.3125 
L 9.8125 71.09375 
Q 15.4375 72.65625 20.34375 73.4375 
Q 25.25 74.21875 29.59375 74.21875 
Q 40.828125 74.21875 47.359375 69.109375 
Q 53.90625 64.015625 53.90625 55.328125 
Q 53.90625 49.265625 50.4375 45.09375 
Q 46.96875 40.921875 40.578125 39.3125 
z
" id="DejaVuSans-33"/>
     <path d="M 19.671875 64.796875 
L 19.671875 8.109375 
L 31.59375 8.109375 
Q 46.6875 8.109375 53.6875 14.9375 
Q 60.6875 21.78125 60.6875 36.53125 
Q 60.6875 51.171875 53.6875 57.984375 
Q 46.6875 64.796875 31.59375 64.796875 
z
M 9.8125 72.90625 
L 30.078125 72.90625 
Q 51.265625 72.90625 61.171875 64.09375 
Q 71.09375 55.28125 71.09375 36.53125 
Q 71.09375 17.671875 61.125 8.828125 
Q 51.171875 0 30.078125 0 
L 9.8125 0 
z
" id="DejaVuSans-44"/>
    </defs>
    <g transform="translate(59.55864 28.89775)scale(0.102 -0.102)">
     <use xlink:href="#DejaVuSans-4d"/>
     <use x="86.279297" xlink:href="#DejaVuSans-69"/>
     <use x="114.0625" xlink:href="#DejaVuSans-73"/>
     <use x="166.162109" xlink:href="#DejaVuSans-63"/>
     <use x="221.142578" xlink:href="#DejaVuSans-2e"/>
     <use x="252.929688" xlink:href="#DejaVuSans-20"/>
     <use x="284.716797" xlink:href="#DejaVuSans-6d"/>
     <use x="382.128906" xlink:href="#DejaVuSans-6f"/>
     <use x="443.310547" xlink:href="#DejaVuSans-64"/>
     <use x="506.787109" xlink:href="#DejaVuSans-65"/>
     <use x="568.310547" xlink:href="#DejaVuSans-72"/>
     <use x="609.423828" xlink:href="#DejaVuSans-61"/>
     <use x="670.703125" xlink:href="#DejaVuSans-74"/>
     <use x="709.912109" xlink:href="#DejaVuSans-65"/>
     <use x="771.435547" xlink:href="#DejaVuSans-20"/>
     <use x="803.222656" xlink:href="#DejaVuSans-66"/>
     <use x="838.427734" xlink:href="#DejaVuSans-75"/>
     <use x="901.806641" xlink:href="#DejaVuSans-6e"/>
     <use x="965.185547" xlink:href="#DejaVuSans-63"/>
     <use x="1020.166016" xlink:href="#DejaVuSans-74"/>
     <use x="1059.375" xlink:href="#DejaVuSans-69"/>
     <use x="1087.158203" xlink:href="#DejaVuSans-6f"/>
     <use x="1148.339844" xlink:href="#DejaVuSans-6e"/>
     <use x="1211.71875" xlink:href="#DejaVuSans-73"/>
     <use x="1263.818359" xlink:href="#DejaVuSans-2c"/>
     <use x="1295.605469" xlink:href="#DejaVuSans-20"/>
     <use x="1327.392578" xlink:href="#DejaVuSans-33"/>
     <use x="1391.015625" xlink:href="#DejaVuSans-2d"/>
     <use x="1427.099609" xlink:href="#DejaVuSans-44"/>
    </g>
    <!-- 51 targets: 100..1e-08 -->
    <defs>
     <path d="M 10.796875 72.90625 
L 49.515625 72.90625 
L 49.515625 64.59375 
L 19.828125 64.59375 
L 19.828125 46.734375 
Q 21.96875 47.46875 24.109375 47.828125 
Q 26.265625 48.1875 28.421875 48.1875 
Q 40.625 48.1875 47.75 41.5 
Q 54.890625 34.8125 54.890625 23.390625 
Q 54.890625 11.625 47.5625 5.09375 
Q 40.234375 -1.421875 26.90625 -1.421875 
Q 22.3125 -1.421875 17.546875 -0.640625 
Q 12.796875 0.140625 7.71875 1.703125 
L 7.71875 11.625 
Q 12.109375 9.234375 16.796875 8.0625 
Q 21.484375 6.890625 26.703125 6.890625 
Q 35.15625 6.890625 40.078125 11.328125 
Q 45.015625 15.765625 45.015625 23.390625 
Q 45.015625 31 40.078125 35.4375 
Q 35.15625 39.890625 26.703125 39.890625 
Q 22.75 39.890625 18.8125 39.015625 
Q 14.890625 38.140625 10.796875 36.28125 
z
" id="DejaVuSans-35"/>
     <path d="M 11.71875 12.40625 
L 22.015625 12.40625 
L 22.015625 0 
L 11.71875 0 
z
M 11.71875 51.703125 
L 22.015625 51.703125 
L 22.015625 39.3125 
L 11.71875 39.3125 
z
" id="DejaVuSans-3a"/>
    </defs>
    <g transform="translate(59.55864 40.319519)scale(0.102 -0.102)">
     <use xlink:href="#DejaVuSans-35"/>
     <use x="63.623047" xlink:href="#DejaVuSans-31"/>
     <use x="127.246094" xlink:href="#DejaVuSans-20"/>
     <use x="159.033203" xlink:href="#DejaVuSans-74"/>
     <use x="198.242188" xlink:href="#DejaVuSans-61"/>
     <use x="259.521484" xlink:href="#DejaVuSans-72"/>
     <use x="300.619141" xlink:href="#DejaVuSans-67"/>
     <use x="364.095703" xlink:href="#DejaVuSans-65"/>
     <use x="425.619141" xlink:href="#DejaVuSans-74"/>
     <use x="464.828125" xlink:href="#DejaVuSans-73"/>
     <use x="516.927734" xlink:href="#DejaVuSans-3a"/>
     <use x="550.619141" xlink:href="#DejaVuSans-20"/>
     <use x="582.40625" xlink:href="#DejaVuSans-31"/>
     <use x="646.029297" xlink:href="#DejaVuSans-30"/>
     <use x="709.652344" xlink:href="#DejaVuSans-30"/>
     <use x="773.275391" xlink:href="#DejaVuSans-2e"/>
     <use x="805.0625" xlink:href="#DejaVuSans-2e"/>
     <use x="836.849609" xlink:href="#DejaVuSans-31"/>
     <use x="900.472656" xlink:href="#DejaVuSans-65"/>
     <use x="961.996094" xlink:href="#DejaVuSans-2d"/>
     <use x="998.080078" xlink:href="#DejaVuSans-30"/>
     <use x="1061.703125" xlink:href="#DejaVuSans-38"/>
    </g>
    <!-- 15 instances -->
    <g transform="translate(59.55864 51.741288)scale(0.102 -0.102)">
     <use xlink:href="#DejaVuSans-31"/>
     <use x="63.623047" xlink:href="#DejaVuSans-35"/>
     <use x="127.246094" xlink:href="#DejaVuSans-20"/>
     <use x="159.033203" xlink:href="#DejaVuSans-69"/>
     <use x="186.816406" xlink:href="#DejaVuSans-6e"/>
     <use x="250.195312" xlink:href="#DejaVuSans-73"/>
     <use x="302.294922" xlink:href="#DejaVuSans-74"/>
     <use x="341.503906" xlink:href="#DejaVuSans-61"/>
     <use x="402.783203" xlink:href="#DejaVuSans-6e"/>
     <use x="466.162109" xlink:href="#DejaVuSans-63"/>
     <use x="521.142578" xlink:href="#DejaVuSans-65"/>
     <use x="582.666016" xlink:href="#DejaVuSans-73"/>
    </g>
   </g>
   <g id="text_19">
    <!-- v2.2.1.10 -->
    <g style="fill:#808080;" transform="translate(204.419188 289.919965)scale(0.1 -0.1)">
     <use xlink:href="#DejaVuSans-76"/>
     <use x="59.179688" xlink:href="#DejaVuSans-32"/>
     <use x="122.802734" xlink:href="#DejaVuSans-2e"/>
     <use x="154.589844" xlink:href="#DejaVuSans-32"/>
     <use x="218.212891" xlink:href="#DejaVuSans-2e"/>
     <use x="250" xlink:href="#DejaVuSans-31"/>
     <use x="313.623047" xlink:href="#DejaVuSans-2e"/>
     <use x="345.410156" xlink:href="#DejaVuSans-31"/>
     <use x="409.033203" xlink:href="#DejaVuSans-30"/>
    </g>
   </g>
  </g>
 </g>
 <defs>
  <clipPath id="pfaf56a23ff">
   <rect height="288.034772" width="343.864" x="56.12" y="6.845228"/>
  </clipPath>
 </defs>
</svg>
