<?xml version="1.0" encoding="utf-8" standalone="no"?>
<!DOCTYPE svg PUBLIC "-//W3C//DTD SVG 1.1//EN"
  "http://www.w3.org/Graphics/SVG/1.1/DTD/svg11.dtd">
<!-- Created with matplotlib (http://matplotlib.org/) -->
<svg height="345.6pt" version="1.1" viewBox="0 0 460.8 345.6" width="460.8pt" xmlns="http://www.w3.org/2000/svg" xmlns:xlink="http://www.w3.org/1999/xlink">
 <defs>
  <style type="text/css">
*{stroke-linecap:butt;stroke-linejoin:round;}
  </style>
 </defs>
 <g id="figure_1">
  <g id="patch_1">
   <path d="M 0 345.6 
L 460.8 345.6 
L 460.8 0 
L 0 0 
z
" style="fill:#ffffff;"/>
  </g>
  <g id="axes_1">
   <g id="patch_2">
    <path d="M 56.12 294.88 
L 399.984 294.88 
L 399.984 6.845228 
L 56.12 6.845228 
z
" style="fill:#ffffff;"/>
   </g>
   <g id="matplotlib.axis_1">
    <g id="xtick_1">
     <g id="line2d_1">
      <path clip-path="url(#pe7453096ef)" d="M 56.12 294.88 
L 56.12 6.845228 
" style="fill:none;stroke:#b0b0b0;stroke-linecap:square;stroke-width:0.8;"/>
     </g>
     <g id="line2d_2">
      <defs>
       <path d="M 0 0 
L 0 3.5 
" id="m086fd40139" style="stroke:#000000;stroke-width:0.8;"/>
      </defs>
      <g>
       <use style="stroke:#000000;stroke-width:0.8;" x="56.12" xlink:href="#m086fd40139" y="294.88"/>
      </g>
     </g>
     <g id="text_1">
      <!-- 0 -->
      <defs>
       <path d="M 31.78125 66.40625 
Q 24.171875 66.40625 20.328125 58.90625 
Q 16.5 51.421875 16.5 36.375 
Q 16.5 21.390625 20.328125 13.890625 
Q 24.171875 6.390625 31.78125 6.390625 
Q 39.453125 6.390625 43.28125 13.890625 
Q 47.125 21.390625 47.125 36.375 
Q 47.125 51.421875 43.28125 58.90625 
Q 39.453125 66.40625 31.78125 66.40625 
z
M 31.78125 74.21875 
Q 44.046875 74.21875 50.515625 64.515625 
Q 56.984375 54.828125 56.984375 36.375 
Q 56.984375 17.96875 50.515625 8.265625 
Q 44.046875 -1.421875 31.78125 -1.421875 
Q 19.53125 -1.421875 13.0625 8.265625 
Q 6.59375 17.96875 6.59375 36.375 
Q 6.59375 54.828125 13.0625 64.515625 
Q 19.53125 74.21875 31.78125 74.21875 
z
" id="DejaVuSans-30"/>
      </defs>
      <g transform="translate(49.7575 317.076875)scale(0.2 -0.2)">
       <use xlink:href="#DejaVuSans-30"/>
      </g>
     </g>
    </g>
    <g id="xtick_2">
     <g id="line2d_3">
      <path clip-path="url(#pe7453096ef)" d="M 135.351336 294.88 
L 135.351336 6.845228 
" style="fill:none;stroke:#b0b0b0;stroke-linecap:square;stroke-width:0.8;"/>
     </g>
     <g id="line2d_4">
      <g>
       <use style="stroke:#000000;stroke-width:0.8;" x="135.351336" xlink:href="#m086fd40139" y="294.88"/>
      </g>
     </g>
     <g id="text_2">
      <!-- 2 -->
      <defs>
       <path d="M 19.1875 8.296875 
L 53.609375 8.296875 
L 53.609375 0 
L 7.328125 0 
L 7.328125 8.296875 
Q 12.9375 14.109375 22.625 23.890625 
Q 32.328125 33.6875 34.8125 36.53125 
Q 39.546875 41.84375 41.421875 45.53125 
Q 43.3125 49.21875 43.3125 52.78125 
Q 43.3125 58.59375 39.234375 62.25 
Q 35.15625 65.921875 28.609375 65.921875 
Q 23.96875 65.921875 18.8125 64.3125 
Q 13.671875 62.703125 7.8125 59.421875 
L 7.8125 69.390625 
Q 13.765625 71.78125 18.9375 73 
Q 24.125 74.21875 28.421875 74.21875 
Q 39.75 74.21875 46.484375 68.546875 
Q 53.21875 62.890625 53.21875 53.421875 
Q 53.21875 48.921875 51.53125 44.890625 
Q 49.859375 40.875 45.40625 35.40625 
Q 44.1875 33.984375 37.640625 27.21875 
Q 31.109375 20.453125 19.1875 8.296875 
z
" id="DejaVuSans-32"/>
      </defs>
      <g transform="translate(128.988836 317.076875)scale(0.2 -0.2)">
       <use xlink:href="#DejaVuSans-32"/>
      </g>
     </g>
    </g>
    <g id="xtick_3">
     <g id="line2d_5">
      <path clip-path="url(#pe7453096ef)" d="M 214.582673 294.88 
L 214.582673 6.845228 
" style="fill:none;stroke:#b0b0b0;stroke-linecap:square;stroke-width:0.8;"/>
     </g>
     <g id="line2d_6">
      <g>
       <use style="stroke:#000000;stroke-width:0.8;" x="214.582673" xlink:href="#m086fd40139" y="294.88"/>
      </g>
     </g>
     <g id="text_3">
      <!-- 4 -->
      <defs>
       <path d="M 37.796875 64.3125 
L 12.890625 25.390625 
L 37.796875 25.390625 
z
M 35.203125 72.90625 
L 47.609375 72.90625 
L 47.609375 25.390625 
L 58.015625 25.390625 
L 58.015625 17.1875 
L 47.609375 17.1875 
L 47.609375 0 
L 37.796875 0 
L 37.796875 17.1875 
L 4.890625 17.1875 
L 4.890625 26.703125 
z
" id="DejaVuSans-34"/>
      </defs>
      <g transform="translate(208.220173 317.076875)scale(0.2 -0.2)">
       <use xlink:href="#DejaVuSans-34"/>
      </g>
     </g>
    </g>
    <g id="xtick_4">
     <g id="line2d_7">
      <path clip-path="url(#pe7453096ef)" d="M 293.814009 294.88 
L 293.814009 6.845228 
" style="fill:none;stroke:#b0b0b0;stroke-linecap:square;stroke-width:0.8;"/>
     </g>
     <g id="line2d_8">
      <g>
       <use style="stroke:#000000;stroke-width:0.8;" x="293.814009" xlink:href="#m086fd40139" y="294.88"/>
      </g>
     </g>
     <g id="text_4">
      <!-- 6 -->
      <defs>
       <path d="M 33.015625 40.375 
Q 26.375 40.375 22.484375 35.828125 
Q 18.609375 31.296875 18.609375 23.390625 
Q 18.609375 15.53125 22.484375 10.953125 
Q 26.375 6.390625 33.015625 6.390625 
Q 39.65625 6.390625 43.53125 10.953125 
Q 47.40625 15.53125 47.40625 23.390625 
Q 47.40625 31.296875 43.53125 35.828125 
Q 39.65625 40.375 33.015625 40.375 
z
M 52.59375 71.296875 
L 52.59375 62.3125 
Q 48.875 64.0625 45.09375 64.984375 
Q 41.3125 65.921875 37.59375 65.921875 
Q 27.828125 65.921875 22.671875 59.328125 
Q 17.53125 52.734375 16.796875 39.40625 
Q 19.671875 43.65625 24.015625 45.921875 
Q 28.375 48.1875 33.59375 48.1875 
Q 44.578125 48.1875 50.953125 41.515625 
Q 57.328125 34.859375 57.328125 23.390625 
Q 57.328125 12.15625 50.6875 5.359375 
Q 44.046875 -1.421875 33.015625 -1.421875 
Q 20.359375 -1.421875 13.671875 8.265625 
Q 6.984375 17.96875 6.984375 36.375 
Q 6.984375 53.65625 15.1875 63.9375 
Q 23.390625 74.21875 37.203125 74.21875 
Q 40.921875 74.21875 44.703125 73.484375 
Q 48.484375 72.75 52.59375 71.296875 
z
" id="DejaVuSans-36"/>
      </defs>
      <g transform="translate(287.451509 317.076875)scale(0.2 -0.2)">
       <use xlink:href="#DejaVuSans-36"/>
      </g>
     </g>
    </g>
    <g id="xtick_5">
     <g id="line2d_9">
      <path clip-path="url(#pe7453096ef)" d="M 373.045346 294.88 
L 373.045346 6.845228 
" style="fill:none;stroke:#b0b0b0;stroke-linecap:square;stroke-width:0.8;"/>
     </g>
     <g id="line2d_10">
      <g>
       <use style="stroke:#000000;stroke-width:0.8;" x="373.045346" xlink:href="#m086fd40139" y="294.88"/>
      </g>
     </g>
     <g id="text_5">
      <!-- 8 -->
      <defs>
       <path d="M 31.78125 34.625 
Q 24.75 34.625 20.71875 30.859375 
Q 16.703125 27.09375 16.703125 20.515625 
Q 16.703125 13.921875 20.71875 10.15625 
Q 24.75 6.390625 31.78125 6.390625 
Q 38.8125 6.390625 42.859375 10.171875 
Q 46.921875 13.96875 46.921875 20.515625 
Q 46.921875 27.09375 42.890625 30.859375 
Q 38.875 34.625 31.78125 34.625 
z
M 21.921875 38.8125 
Q 15.578125 40.375 12.03125 44.71875 
Q 8.5 49.078125 8.5 55.328125 
Q 8.5 64.0625 14.71875 69.140625 
Q 20.953125 74.21875 31.78125 74.21875 
Q 42.671875 74.21875 48.875 69.140625 
Q 55.078125 64.0625 55.078125 55.328125 
Q 55.078125 49.078125 51.53125 44.71875 
Q 48 40.375 41.703125 38.8125 
Q 48.828125 37.15625 52.796875 32.3125 
Q 56.78125 27.484375 56.78125 20.515625 
Q 56.78125 9.90625 50.3125 4.234375 
Q 43.84375 -1.421875 31.78125 -1.421875 
Q 19.734375 -1.421875 13.25 4.234375 
Q 6.78125 9.90625 6.78125 20.515625 
Q 6.78125 27.484375 10.78125 32.3125 
Q 14.796875 37.15625 21.921875 38.8125 
z
M 18.3125 54.390625 
Q 18.3125 48.734375 21.84375 45.5625 
Q 25.390625 42.390625 31.78125 42.390625 
Q 38.140625 42.390625 41.71875 45.5625 
Q 45.3125 48.734375 45.3125 54.390625 
Q 45.3125 60.0625 41.71875 63.234375 
Q 38.140625 66.40625 31.78125 66.40625 
Q 25.390625 66.40625 21.84375 63.234375 
Q 18.3125 60.0625 18.3125 54.390625 
z
" id="DejaVuSans-38"/>
      </defs>
      <g transform="translate(366.682846 317.076875)scale(0.2 -0.2)">
       <use xlink:href="#DejaVuSans-38"/>
      </g>
     </g>
    </g>
    <g id="text_6">
     <!-- log10(# f-evals / dimension) -->
     <defs>
      <path d="M 9.421875 75.984375 
L 18.40625 75.984375 
L 18.40625 0 
L 9.421875 0 
z
" id="DejaVuSans-6c"/>
      <path d="M 30.609375 48.390625 
Q 23.390625 48.390625 19.1875 42.75 
Q 14.984375 37.109375 14.984375 27.296875 
Q 14.984375 17.484375 19.15625 11.84375 
Q 23.34375 6.203125 30.609375 6.203125 
Q 37.796875 6.203125 41.984375 11.859375 
Q 46.1875 17.53125 46.1875 27.296875 
Q 46.1875 37.015625 41.984375 42.703125 
Q 37.796875 48.390625 30.609375 48.390625 
z
M 30.609375 56 
Q 42.328125 56 49.015625 48.375 
Q 55.71875 40.765625 55.71875 27.296875 
Q 55.71875 13.875 49.015625 6.21875 
Q 42.328125 -1.421875 30.609375 -1.421875 
Q 18.84375 -1.421875 12.171875 6.21875 
Q 5.515625 13.875 5.515625 27.296875 
Q 5.515625 40.765625 12.171875 48.375 
Q 18.84375 56 30.609375 56 
z
" id="DejaVuSans-6f"/>
      <path d="M 45.40625 27.984375 
Q 45.40625 37.75 41.375 43.109375 
Q 37.359375 48.484375 30.078125 48.484375 
Q 22.859375 48.484375 18.828125 43.109375 
Q 14.796875 37.75 14.796875 27.984375 
Q 14.796875 18.265625 18.828125 12.890625 
Q 22.859375 7.515625 30.078125 7.515625 
Q 37.359375 7.515625 41.375 12.890625 
Q 45.40625 18.265625 45.40625 27.984375 
z
M 54.390625 6.78125 
Q 54.390625 -7.171875 48.1875 -13.984375 
Q 42 -20.796875 29.203125 -20.796875 
Q 24.46875 -20.796875 20.265625 -20.09375 
Q 16.0625 -19.390625 12.109375 -17.921875 
L 12.109375 -9.1875 
Q 16.0625 -11.328125 19.921875 -12.34375 
Q 23.78125 -13.375 27.78125 -13.375 
Q 36.625 -13.375 41.015625 -8.765625 
Q 45.40625 -4.15625 45.40625 5.171875 
L 45.40625 9.625 
Q 42.625 4.78125 38.28125 2.390625 
Q 33.9375 0 27.875 0 
Q 17.828125 0 11.671875 7.65625 
Q 5.515625 15.328125 5.515625 27.984375 
Q 5.515625 40.671875 11.671875 48.328125 
Q 17.828125 56 27.875 56 
Q 33.9375 56 38.28125 53.609375 
Q 42.625 51.21875 45.40625 46.390625 
L 45.40625 54.6875 
L 54.390625 54.6875 
z
" id="DejaVuSans-67"/>
      <path d="M 12.40625 8.296875 
L 28.515625 8.296875 
L 28.515625 63.921875 
L 10.984375 60.40625 
L 10.984375 69.390625 
L 28.421875 72.90625 
L 38.28125 72.90625 
L 38.28125 8.296875 
L 54.390625 8.296875 
L 54.390625 0 
L 12.40625 0 
z
" id="DejaVuSans-31"/>
      <path d="M 31 75.875 
Q 24.46875 64.65625 21.28125 53.65625 
Q 18.109375 42.671875 18.109375 31.390625 
Q 18.109375 20.125 21.3125 9.0625 
Q 24.515625 -2 31 -13.1875 
L 23.1875 -13.1875 
Q 15.875 -1.703125 12.234375 9.375 
Q 8.59375 20.453125 8.59375 31.390625 
Q 8.59375 42.28125 12.203125 53.3125 
Q 15.828125 64.359375 23.1875 75.875 
z
" id="DejaVuSans-28"/>
      <path d="M 51.125 44 
L 36.921875 44 
L 32.8125 27.6875 
L 47.125 27.6875 
z
M 43.796875 71.78125 
L 38.71875 51.515625 
L 52.984375 51.515625 
L 58.109375 71.78125 
L 65.921875 71.78125 
L 60.890625 51.515625 
L 76.125 51.515625 
L 76.125 44 
L 58.984375 44 
L 54.984375 27.6875 
L 70.515625 27.6875 
L 70.515625 20.21875 
L 53.078125 20.21875 
L 48 0 
L 40.1875 0 
L 45.21875 20.21875 
L 30.90625 20.21875 
L 25.875 0 
L 18.015625 0 
L 23.09375 20.21875 
L 7.71875 20.21875 
L 7.71875 27.6875 
L 24.90625 27.6875 
L 29 44 
L 13.28125 44 
L 13.28125 51.515625 
L 30.90625 51.515625 
L 35.890625 71.78125 
z
" id="DejaVuSans-23"/>
      <path id="DejaVuSans-20"/>
      <path d="M 37.109375 75.984375 
L 37.109375 68.5 
L 28.515625 68.5 
Q 23.6875 68.5 21.796875 66.546875 
Q 19.921875 64.59375 19.921875 59.515625 
L 19.921875 54.6875 
L 34.71875 54.6875 
L 34.71875 47.703125 
L 19.921875 47.703125 
L 19.921875 0 
L 10.890625 0 
L 10.890625 47.703125 
L 2.296875 47.703125 
L 2.296875 54.6875 
L 10.890625 54.6875 
L 10.890625 58.5 
Q 10.890625 67.625 15.140625 71.796875 
Q 19.390625 75.984375 28.609375 75.984375 
z
" id="DejaVuSans-66"/>
      <path d="M 4.890625 31.390625 
L 31.203125 31.390625 
L 31.203125 23.390625 
L 4.890625 23.390625 
z
" id="DejaVuSans-2d"/>
      <path d="M 56.203125 29.59375 
L 56.203125 25.203125 
L 14.890625 25.203125 
Q 15.484375 15.921875 20.484375 11.0625 
Q 25.484375 6.203125 34.421875 6.203125 
Q 39.59375 6.203125 44.453125 7.46875 
Q 49.3125 8.734375 54.109375 11.28125 
L 54.109375 2.78125 
Q 49.265625 0.734375 44.1875 -0.34375 
Q 39.109375 -1.421875 33.890625 -1.421875 
Q 20.796875 -1.421875 13.15625 6.1875 
Q 5.515625 13.8125 5.515625 26.8125 
Q 5.515625 40.234375 12.765625 48.109375 
Q 20.015625 56 32.328125 56 
Q 43.359375 56 49.78125 48.890625 
Q 56.203125 41.796875 56.203125 29.59375 
z
M 47.21875 32.234375 
Q 47.125 39.59375 43.09375 43.984375 
Q 39.0625 48.390625 32.421875 48.390625 
Q 24.90625 48.390625 20.390625 44.140625 
Q 15.875 39.890625 15.1875 32.171875 
z
" id="DejaVuSans-65"/>
      <path d="M 2.984375 54.6875 
L 12.5 54.6875 
L 29.59375 8.796875 
L 46.6875 54.6875 
L 56.203125 54.6875 
L 35.6875 0 
L 23.484375 0 
z
" id="DejaVuSans-76"/>
      <path d="M 34.28125 27.484375 
Q 23.390625 27.484375 19.1875 25 
Q 14.984375 22.515625 14.984375 16.5 
Q 14.984375 11.71875 18.140625 8.90625 
Q 21.296875 6.109375 26.703125 6.109375 
Q 34.1875 6.109375 38.703125 11.40625 
Q 43.21875 16.703125 43.21875 25.484375 
L 43.21875 27.484375 
z
M 52.203125 31.203125 
L 52.203125 0 
L 43.21875 0 
L 43.21875 8.296875 
Q 40.140625 3.328125 35.546875 0.953125 
Q 30.953125 -1.421875 24.3125 -1.421875 
Q 15.921875 -1.421875 10.953125 3.296875 
Q 6 8.015625 6 15.921875 
Q 6 25.140625 12.171875 29.828125 
Q 18.359375 34.515625 30.609375 34.515625 
L 43.21875 34.515625 
L 43.21875 35.40625 
Q 43.21875 41.609375 39.140625 45 
Q 35.0625 48.390625 27.6875 48.390625 
Q 23 48.390625 18.546875 47.265625 
Q 14.109375 46.140625 10.015625 43.890625 
L 10.015625 52.203125 
Q 14.9375 54.109375 19.578125 55.046875 
Q 24.21875 56 28.609375 56 
Q 40.484375 56 46.34375 49.84375 
Q 52.203125 43.703125 52.203125 31.203125 
z
" id="DejaVuSans-61"/>
      <path d="M 44.28125 53.078125 
L 44.28125 44.578125 
Q 40.484375 46.53125 36.375 47.5 
Q 32.28125 48.484375 27.875 48.484375 
Q 21.1875 48.484375 17.84375 46.4375 
Q 14.5 44.390625 14.5 40.28125 
Q 14.5 37.15625 16.890625 35.375 
Q 19.28125 33.59375 26.515625 31.984375 
L 29.59375 31.296875 
Q 39.15625 29.25 43.1875 25.515625 
Q 47.21875 21.78125 47.21875 15.09375 
Q 47.21875 7.46875 41.1875 3.015625 
Q 35.15625 -1.421875 24.609375 -1.421875 
Q 20.21875 -1.421875 15.453125 -0.5625 
Q 10.6875 0.296875 5.421875 2 
L 5.421875 11.28125 
Q 10.40625 8.6875 15.234375 7.390625 
Q 20.0625 6.109375 24.8125 6.109375 
Q 31.15625 6.109375 34.5625 8.28125 
Q 37.984375 10.453125 37.984375 14.40625 
Q 37.984375 18.0625 35.515625 20.015625 
Q 33.0625 21.96875 24.703125 23.78125 
L 21.578125 24.515625 
Q 13.234375 26.265625 9.515625 29.90625 
Q 5.8125 33.546875 5.8125 39.890625 
Q 5.8125 47.609375 11.28125 51.796875 
Q 16.75 56 26.8125 56 
Q 31.78125 56 36.171875 55.265625 
Q 40.578125 54.546875 44.28125 53.078125 
z
" id="DejaVuSans-73"/>
      <path d="M 25.390625 72.90625 
L 33.6875 72.90625 
L 8.296875 -9.28125 
L 0 -9.28125 
z
" id="DejaVuSans-2f"/>
      <path d="M 45.40625 46.390625 
L 45.40625 75.984375 
L 54.390625 75.984375 
L 54.390625 0 
L 45.40625 0 
L 45.40625 8.203125 
Q 42.578125 3.328125 38.25 0.953125 
Q 33.9375 -1.421875 27.875 -1.421875 
Q 17.96875 -1.421875 11.734375 6.484375 
Q 5.515625 14.40625 5.515625 27.296875 
Q 5.515625 40.1875 11.734375 48.09375 
Q 17.96875 56 27.875 56 
Q 33.9375 56 38.25 53.625 
Q 42.578125 51.265625 45.40625 46.390625 
z
M 14.796875 27.296875 
Q 14.796875 17.390625 18.875 11.75 
Q 22.953125 6.109375 30.078125 6.109375 
Q 37.203125 6.109375 41.296875 11.75 
Q 45.40625 17.390625 45.40625 27.296875 
Q 45.40625 37.203125 41.296875 42.84375 
Q 37.203125 48.484375 30.078125 48.484375 
Q 22.953125 48.484375 18.875 42.84375 
Q 14.796875 37.203125 14.796875 27.296875 
z
" id="DejaVuSans-64"/>
      <path d="M 9.421875 54.6875 
L 18.40625 54.6875 
L 18.40625 0 
L 9.421875 0 
z
M 9.421875 75.984375 
L 18.40625 75.984375 
L 18.40625 64.59375 
L 9.421875 64.59375 
z
" id="DejaVuSans-69"/>
      <path d="M 52 44.1875 
Q 55.375 50.25 60.0625 53.125 
Q 64.75 56 71.09375 56 
Q 79.640625 56 84.28125 50.015625 
Q 88.921875 44.046875 88.921875 33.015625 
L 88.921875 0 
L 79.890625 0 
L 79.890625 32.71875 
Q 79.890625 40.578125 77.09375 44.375 
Q 74.3125 48.1875 68.609375 48.1875 
Q 61.625 48.1875 57.5625 43.546875 
Q 53.515625 38.921875 53.515625 30.90625 
L 53.515625 0 
L 44.484375 0 
L 44.484375 32.71875 
Q 44.484375 40.625 41.703125 44.40625 
Q 38.921875 48.1875 33.109375 48.1875 
Q 26.21875 48.1875 22.15625 43.53125 
Q 18.109375 38.875 18.109375 30.90625 
L 18.109375 0 
L 9.078125 0 
L 9.078125 54.6875 
L 18.109375 54.6875 
L 18.109375 46.1875 
Q 21.1875 51.21875 25.484375 53.609375 
Q 29.78125 56 35.6875 56 
Q 41.65625 56 45.828125 52.96875 
Q 50 49.953125 52 44.1875 
z
" id="DejaVuSans-6d"/>
      <path d="M 54.890625 33.015625 
L 54.890625 0 
L 45.90625 0 
L 45.90625 32.71875 
Q 45.90625 40.484375 42.875 44.328125 
Q 39.84375 48.1875 33.796875 48.1875 
Q 26.515625 48.1875 22.3125 43.546875 
Q 18.109375 38.921875 18.109375 30.90625 
L 18.109375 0 
L 9.078125 0 
L 9.078125 54.6875 
L 18.109375 54.6875 
L 18.109375 46.1875 
Q 21.34375 51.125 25.703125 53.5625 
Q 30.078125 56 35.796875 56 
Q 45.21875 56 50.046875 50.171875 
Q 54.890625 44.34375 54.890625 33.015625 
z
" id="DejaVuSans-6e"/>
      <path d="M 8.015625 75.875 
L 15.828125 75.875 
Q 23.140625 64.359375 26.78125 53.3125 
Q 30.421875 42.28125 30.421875 31.390625 
Q 30.421875 20.453125 26.78125 9.375 
Q 23.140625 -1.703125 15.828125 -13.1875 
L 8.015625 -13.1875 
Q 14.5 -2 17.703125 9.0625 
Q 20.90625 20.125 20.90625 31.390625 
Q 20.90625 42.671875 17.703125 53.65625 
Q 14.5 64.65625 8.015625 75.875 
z
" id="DejaVuSans-29"/>
     </defs>
     <g transform="translate(107.211219 338.153594)scale(0.17 -0.17)">
      <use xlink:href="#DejaVuSans-6c"/>
      <use x="27.783203" xlink:href="#DejaVuSans-6f"/>
      <use x="88.964844" xlink:href="#DejaVuSans-67"/>
      <use x="152.441406" xlink:href="#DejaVuSans-31"/>
      <use x="216.064453" xlink:href="#DejaVuSans-30"/>
      <use x="279.6875" xlink:href="#DejaVuSans-28"/>
      <use x="318.701172" xlink:href="#DejaVuSans-23"/>
      <use x="402.490234" xlink:href="#DejaVuSans-20"/>
      <use x="434.277344" xlink:href="#DejaVuSans-66"/>
      <use x="469.404297" xlink:href="#DejaVuSans-2d"/>
      <use x="505.488281" xlink:href="#DejaVuSans-65"/>
      <use x="567.011719" xlink:href="#DejaVuSans-76"/>
      <use x="626.191406" xlink:href="#DejaVuSans-61"/>
      <use x="687.470703" xlink:href="#DejaVuSans-6c"/>
      <use x="715.253906" xlink:href="#DejaVuSans-73"/>
      <use x="767.353516" xlink:href="#DejaVuSans-20"/>
      <use x="799.140625" xlink:href="#DejaVuSans-2f"/>
      <use x="832.832031" xlink:href="#DejaVuSans-20"/>
      <use x="864.619141" xlink:href="#DejaVuSans-64"/>
      <use x="928.095703" xlink:href="#DejaVuSans-69"/>
      <use x="955.878906" xlink:href="#DejaVuSans-6d"/>
      <use x="1053.291016" xlink:href="#DejaVuSans-65"/>
      <use x="1114.814453" xlink:href="#DejaVuSans-6e"/>
      <use x="1178.193359" xlink:href="#DejaVuSans-73"/>
      <use x="1230.292969" xlink:href="#DejaVuSans-69"/>
      <use x="1258.076172" xlink:href="#DejaVuSans-6f"/>
      <use x="1319.257812" xlink:href="#DejaVuSans-6e"/>
      <use x="1382.636719" xlink:href="#DejaVuSans-29"/>
     </g>
    </g>
   </g>
   <g id="matplotlib.axis_2">
    <g id="ytick_1">
     <g id="line2d_11">
      <path clip-path="url(#pe7453096ef)" d="M 56.12 294.88 
L 399.984 294.88 
" style="fill:none;stroke:#b0b0b0;stroke-linecap:square;stroke-width:0.8;"/>
     </g>
     <g id="line2d_12">
      <defs>
       <path d="M 0 0 
L -3.5 0 
" id="m723113b83e" style="stroke:#000000;stroke-width:0.8;"/>
      </defs>
      <g>
       <use style="stroke:#000000;stroke-width:0.8;" x="56.12" xlink:href="#m723113b83e" y="294.88"/>
      </g>
     </g>
     <g id="text_7">
      <!-- 0.0 -->
      <defs>
       <path d="M 10.6875 12.40625 
L 21 12.40625 
L 21 0 
L 10.6875 0 
z
" id="DejaVuSans-2e"/>
      </defs>
      <g transform="translate(23.675 300.95875)scale(0.16 -0.16)">
       <use xlink:href="#DejaVuSans-30"/>
       <use x="63.623047" xlink:href="#DejaVuSans-2e"/>
       <use x="95.410156" xlink:href="#DejaVuSans-30"/>
      </g>
     </g>
    </g>
    <g id="ytick_2">
     <g id="line2d_13">
      <path clip-path="url(#pe7453096ef)" d="M 56.12 237.843411 
L 399.984 237.843411 
" style="fill:none;stroke:#b0b0b0;stroke-linecap:square;stroke-width:0.8;"/>
     </g>
     <g id="line2d_14">
      <g>
       <use style="stroke:#000000;stroke-width:0.8;" x="56.12" xlink:href="#m723113b83e" y="237.843411"/>
      </g>
     </g>
     <g id="text_8">
      <!-- 0.2 -->
      <g transform="translate(23.675 243.922161)scale(0.16 -0.16)">
       <use xlink:href="#DejaVuSans-30"/>
       <use x="63.623047" xlink:href="#DejaVuSans-2e"/>
       <use x="95.410156" xlink:href="#DejaVuSans-32"/>
      </g>
     </g>
    </g>
    <g id="ytick_3">
     <g id="line2d_15">
      <path clip-path="url(#pe7453096ef)" d="M 56.12 180.806823 
L 399.984 180.806823 
" style="fill:none;stroke:#b0b0b0;stroke-linecap:square;stroke-width:0.8;"/>
     </g>
     <g id="line2d_16">
      <g>
       <use style="stroke:#000000;stroke-width:0.8;" x="56.12" xlink:href="#m723113b83e" y="180.806823"/>
      </g>
     </g>
     <g id="text_9">
      <!-- 0.4 -->
      <g transform="translate(23.675 186.885573)scale(0.16 -0.16)">
       <use xlink:href="#DejaVuSans-30"/>
       <use x="63.623047" xlink:href="#DejaVuSans-2e"/>
       <use x="95.410156" xlink:href="#DejaVuSans-34"/>
      </g>
     </g>
    </g>
    <g id="ytick_4">
     <g id="line2d_17">
      <path clip-path="url(#pe7453096ef)" d="M 56.12 123.770234 
L 399.984 123.770234 
" style="fill:none;stroke:#b0b0b0;stroke-linecap:square;stroke-width:0.8;"/>
     </g>
     <g id="line2d_18">
      <g>
       <use style="stroke:#000000;stroke-width:0.8;" x="56.12" xlink:href="#m723113b83e" y="123.770234"/>
      </g>
     </g>
     <g id="text_10">
      <!-- 0.6 -->
      <g transform="translate(23.675 129.848984)scale(0.16 -0.16)">
       <use xlink:href="#DejaVuSans-30"/>
       <use x="63.623047" xlink:href="#DejaVuSans-2e"/>
       <use x="95.410156" xlink:href="#DejaVuSans-36"/>
      </g>
     </g>
    </g>
    <g id="ytick_5">
     <g id="line2d_19">
      <path clip-path="url(#pe7453096ef)" d="M 56.12 66.733646 
L 399.984 66.733646 
" style="fill:none;stroke:#b0b0b0;stroke-linecap:square;stroke-width:0.8;"/>
     </g>
     <g id="line2d_20">
      <g>
       <use style="stroke:#000000;stroke-width:0.8;" x="56.12" xlink:href="#m723113b83e" y="66.733646"/>
      </g>
     </g>
     <g id="text_11">
      <!-- 0.8 -->
      <g transform="translate(23.675 72.812396)scale(0.16 -0.16)">
       <use xlink:href="#DejaVuSans-30"/>
       <use x="63.623047" xlink:href="#DejaVuSans-2e"/>
       <use x="95.410156" xlink:href="#DejaVuSans-38"/>
      </g>
     </g>
    </g>
    <g id="ytick_6">
     <g id="line2d_21">
      <path clip-path="url(#pe7453096ef)" d="M 56.12 9.697057 
L 399.984 9.697057 
" style="fill:none;stroke:#b0b0b0;stroke-linecap:square;stroke-width:0.8;"/>
     </g>
     <g id="line2d_22">
      <g>
       <use style="stroke:#000000;stroke-width:0.8;" x="56.12" xlink:href="#m723113b83e" y="9.697057"/>
      </g>
     </g>
     <g id="text_12">
      <!-- 1.0 -->
      <g transform="translate(23.675 15.775807)scale(0.16 -0.16)">
       <use xlink:href="#DejaVuSans-31"/>
       <use x="63.623047" xlink:href="#DejaVuSans-2e"/>
       <use x="95.410156" xlink:href="#DejaVuSans-30"/>
      </g>
     </g>
    </g>
    <g id="text_13">
     <!-- Fraction of function,target pairs -->
     <defs>
      <path d="M 9.8125 72.90625 
L 51.703125 72.90625 
L 51.703125 64.59375 
L 19.671875 64.59375 
L 19.671875 43.109375 
L 48.578125 43.109375 
L 48.578125 34.8125 
L 19.671875 34.8125 
L 19.671875 0 
L 9.8125 0 
z
" id="DejaVuSans-46"/>
      <path d="M 41.109375 46.296875 
Q 39.59375 47.171875 37.8125 47.578125 
Q 36.03125 48 33.890625 48 
Q 26.265625 48 22.1875 43.046875 
Q 18.109375 38.09375 18.109375 28.8125 
L 18.109375 0 
L 9.078125 0 
L 9.078125 54.6875 
L 18.109375 54.6875 
L 18.109375 46.1875 
Q 20.953125 51.171875 25.484375 53.578125 
Q 30.03125 56 36.53125 56 
Q 37.453125 56 38.578125 55.875 
Q 39.703125 55.765625 41.0625 55.515625 
z
" id="DejaVuSans-72"/>
      <path d="M 48.78125 52.59375 
L 48.78125 44.1875 
Q 44.96875 46.296875 41.140625 47.34375 
Q 37.3125 48.390625 33.40625 48.390625 
Q 24.65625 48.390625 19.8125 42.84375 
Q 14.984375 37.3125 14.984375 27.296875 
Q 14.984375 17.28125 19.8125 11.734375 
Q 24.65625 6.203125 33.40625 6.203125 
Q 37.3125 6.203125 41.140625 7.25 
Q 44.96875 8.296875 48.78125 10.40625 
L 48.78125 2.09375 
Q 45.015625 0.34375 40.984375 -0.53125 
Q 36.96875 -1.421875 32.421875 -1.421875 
Q 20.0625 -1.421875 12.78125 6.34375 
Q 5.515625 14.109375 5.515625 27.296875 
Q 5.515625 40.671875 12.859375 48.328125 
Q 20.21875 56 33.015625 56 
Q 37.15625 56 41.109375 55.140625 
Q 45.0625 54.296875 48.78125 52.59375 
z
" id="DejaVuSans-63"/>
      <path d="M 18.3125 70.21875 
L 18.3125 54.6875 
L 36.8125 54.6875 
L 36.8125 47.703125 
L 18.3125 47.703125 
L 18.3125 18.015625 
Q 18.3125 11.328125 20.140625 9.421875 
Q 21.96875 7.515625 27.59375 7.515625 
L 36.8125 7.515625 
L 36.8125 0 
L 27.59375 0 
Q 17.1875 0 13.234375 3.875 
Q 9.28125 7.765625 9.28125 18.015625 
L 9.28125 47.703125 
L 2.6875 47.703125 
L 2.6875 54.6875 
L 9.28125 54.6875 
L 9.28125 70.21875 
z
" id="DejaVuSans-74"/>
      <path d="M 8.5 21.578125 
L 8.5 54.6875 
L 17.484375 54.6875 
L 17.484375 21.921875 
Q 17.484375 14.15625 20.5 10.265625 
Q 23.53125 6.390625 29.59375 6.390625 
Q 36.859375 6.390625 41.078125 11.03125 
Q 45.3125 15.671875 45.3125 23.6875 
L 45.3125 54.6875 
L 54.296875 54.6875 
L 54.296875 0 
L 45.3125 0 
L 45.3125 8.40625 
Q 42.046875 3.421875 37.71875 1 
Q 33.40625 -1.421875 27.6875 -1.421875 
Q 18.265625 -1.421875 13.375 4.4375 
Q 8.5 10.296875 8.5 21.578125 
z
M 31.109375 56 
z
" id="DejaVuSans-75"/>
      <path d="M 11.71875 12.40625 
L 22.015625 12.40625 
L 22.015625 4 
L 14.015625 -11.625 
L 7.71875 -11.625 
L 11.71875 4 
z
" id="DejaVuSans-2c"/>
      <path d="M 18.109375 8.203125 
L 18.109375 -20.796875 
L 9.078125 -20.796875 
L 9.078125 54.6875 
L 18.109375 54.6875 
L 18.109375 46.390625 
Q 20.953125 51.265625 25.265625 53.625 
Q 29.59375 56 35.59375 56 
Q 45.5625 56 51.78125 48.09375 
Q 58.015625 40.1875 58.015625 27.296875 
Q 58.015625 14.40625 51.78125 6.484375 
Q 45.5625 -1.421875 35.59375 -1.421875 
Q 29.59375 -1.421875 25.265625 0.953125 
Q 20.953125 3.328125 18.109375 8.203125 
z
M 48.6875 27.296875 
Q 48.6875 37.203125 44.609375 42.84375 
Q 40.53125 48.484375 33.40625 48.484375 
Q 26.265625 48.484375 22.1875 42.84375 
Q 18.109375 37.203125 18.109375 27.296875 
Q 18.109375 17.390625 22.1875 11.75 
Q 26.265625 6.109375 33.40625 6.109375 
Q 40.53125 6.109375 44.609375 11.75 
Q 48.6875 17.390625 48.6875 27.296875 
z
" id="DejaVuSans-70"/>
     </defs>
     <g transform="translate(16.139531 286.001989)rotate(-90)scale(0.17 -0.17)">
      <use xlink:href="#DejaVuSans-46"/>
      <use x="57.410156" xlink:href="#DejaVuSans-72"/>
      <use x="98.523438" xlink:href="#DejaVuSans-61"/>
      <use x="159.802734" xlink:href="#DejaVuSans-63"/>
      <use x="214.783203" xlink:href="#DejaVuSans-74"/>
      <use x="253.992188" xlink:href="#DejaVuSans-69"/>
      <use x="281.775391" xlink:href="#DejaVuSans-6f"/>
      <use x="342.957031" xlink:href="#DejaVuSans-6e"/>
      <use x="406.335938" xlink:href="#DejaVuSans-20"/>
      <use x="438.123047" xlink:href="#DejaVuSans-6f"/>
      <use x="499.304688" xlink:href="#DejaVuSans-66"/>
      <use x="534.509766" xlink:href="#DejaVuSans-20"/>
      <use x="566.296875" xlink:href="#DejaVuSans-66"/>
      <use x="601.501953" xlink:href="#DejaVuSans-75"/>
      <use x="664.880859" xlink:href="#DejaVuSans-6e"/>
      <use x="728.259766" xlink:href="#DejaVuSans-63"/>
      <use x="783.240234" xlink:href="#DejaVuSans-74"/>
      <use x="822.449219" xlink:href="#DejaVuSans-69"/>
      <use x="850.232422" xlink:href="#DejaVuSans-6f"/>
      <use x="911.414062" xlink:href="#DejaVuSans-6e"/>
      <use x="974.792969" xlink:href="#DejaVuSans-2c"/>
      <use x="1006.580078" xlink:href="#DejaVuSans-74"/>
      <use x="1045.789062" xlink:href="#DejaVuSans-61"/>
      <use x="1107.068359" xlink:href="#DejaVuSans-72"/>
      <use x="1148.166016" xlink:href="#DejaVuSans-67"/>
      <use x="1211.642578" xlink:href="#DejaVuSans-65"/>
      <use x="1273.166016" xlink:href="#DejaVuSans-74"/>
      <use x="1312.375" xlink:href="#DejaVuSans-20"/>
      <use x="1344.162109" xlink:href="#DejaVuSans-70"/>
      <use x="1407.638672" xlink:href="#DejaVuSans-61"/>
      <use x="1468.917969" xlink:href="#DejaVuSans-69"/>
      <use x="1496.701172" xlink:href="#DejaVuSans-72"/>
      <use x="1537.814453" xlink:href="#DejaVuSans-73"/>
     </g>
    </g>
   </g>
   <g id="line2d_23">
    <defs>
     <path d="M 0 1.5 
C 0.397805 1.5 0.77937 1.341951 1.06066 1.06066 
C 1.341951 0.77937 1.5 0.397805 1.5 0 
C 1.5 -0.397805 1.341951 -0.77937 1.06066 -1.06066 
C 0.77937 -1.341951 0.397805 -1.5 0 -1.5 
C -0.397805 -1.5 -0.77937 -1.341951 -1.06066 -1.06066 
C -1.341951 -0.77937 -1.5 -0.397805 -1.5 0 
C -1.5 0.397805 -1.341951 0.77937 -1.06066 1.06066 
C -0.77937 1.341951 -0.397805 1.5 0 1.5 
z
" id="mad638d27d1" style="stroke:#00bfbf;"/>
    </defs>
    <g>
     <use style="fill:#00bfbf;stroke:#00bfbf;" x="278.600239" xlink:href="#mad638d27d1" y="74.003015"/>
     <use style="fill:#00bfbf;stroke:#00bfbf;" x="278.600239" xlink:href="#mad638d27d1" y="74.003015"/>
    </g>
   </g>
   <g id="line2d_24">
    <path d="M 56.12 294.88 
L 56.12 290.126951 
L 68.045504 290.126951 
L 68.045504 288.309609 
L 75.021477 288.309609 
L 75.021477 287.890222 
L 79.971009 287.890222 
L 79.971009 286.352471 
L 83.810164 286.352471 
L 83.810164 283.276969 
L 86.946982 283.276969 
L 86.946982 282.857582 
L 89.599124 282.857582 
L 89.599124 279.083102 
L 91.896513 279.083102 
L 91.896513 277.125964 
L 93.922955 277.125964 
L 93.922955 274.330053 
L 95.735668 274.330053 
L 95.735668 273.351484 
L 97.375467 273.351484 
L 97.375467 272.093324 
L 98.872486 272.093324 
L 98.872486 271.25455 
L 100.24961 271.25455 
L 100.24961 269.856595 
L 101.524628 269.856595 
L 101.524628 267.200479 
L 102.711641 267.200479 
L 102.711641 265.662728 
L 103.822018 265.662728 
L 103.822018 264.264772 
L 104.865056 264.264772 
L 104.865056 263.845386 
L 106.778678 263.845386 
L 106.778678 263.70559 
L 107.661173 263.70559 
L 107.661173 263.425999 
L 108.500601 263.425999 
L 108.500601 261.329066 
L 109.300972 261.329066 
L 109.300972 261.18927 
L 111.500328 261.18927 
L 111.500328 259.93111 
L 112.175115 259.93111 
L 112.175115 259.511723 
L 112.824432 259.511723 
L 112.824432 258.812745 
L 114.053874 258.812745 
L 114.053874 257.973972 
L 115.20129 257.973972 
L 115.20129 257.834177 
L 115.747522 257.834177 
L 115.747522 256.715812 
L 116.276944 256.715812 
L 116.276944 255.457652 
L 116.790561 255.457652 
L 116.790561 255.038265 
L 117.289287 255.038265 
L 117.289287 254.89847 
L 117.773963 254.89847 
L 117.773963 254.618879 
L 118.704183 254.618879 
L 118.704183 253.500514 
L 120.01151 253.500514 
L 120.01151 253.220923 
L 120.426105 253.220923 
L 120.426105 252.661741 
L 120.830944 252.661741 
L 120.830944 251.962763 
L 121.226476 251.962763 
L 121.226476 250.844399 
L 121.991263 250.844399 
L 121.991263 250.564807 
L 122.361274 250.564807 
L 122.361274 250.145421 
L 123.766534 250.145421 
L 123.766534 248.887261 
L 124.100619 248.887261 
L 124.100619 248.467874 
L 124.428341 248.467874 
L 124.428341 247.768896 
L 124.749936 247.768896 
L 124.749936 247.629101 
L 125.065631 247.629101 
L 125.065631 246.231145 
L 125.375637 246.231145 
L 125.375637 245.671963 
L 125.680156 245.671963 
L 125.680156 244.693394 
L 125.979378 244.693394 
L 125.979378 243.714825 
L 126.273486 243.714825 
L 126.273486 242.59646 
L 126.56265 242.59646 
L 126.56265 242.177074 
L 126.847034 242.177074 
L 126.847034 241.617892 
L 127.673027 241.617892 
L 127.673027 241.3383 
L 127.939774 241.3383 
L 127.939774 241.198505 
L 128.202449 241.198505 
L 128.202449 240.918914 
L 128.461173 240.918914 
L 128.461173 240.639323 
L 128.967235 240.639323 
L 128.967235 239.940345 
L 129.214792 239.940345 
L 129.214792 239.800549 
L 129.699468 239.800549 
L 129.699468 239.520958 
L 129.93678 239.520958 
L 129.93678 239.241367 
L 130.170864 239.241367 
L 130.170864 239.101571 
L 130.401805 239.101571 
L 130.401805 238.682185 
L 130.854591 238.682185 
L 130.854591 238.402594 
L 131.076592 238.402594 
L 131.076592 237.56382 
L 131.295765 237.56382 
L 131.295765 237.284229 
L 131.512181 237.284229 
L 131.512181 236.864843 
L 131.725909 236.864843 
L 131.725909 236.445456 
L 131.937015 236.445456 
L 131.937015 236.30566 
L 132.955351 236.30566 
L 132.955351 236.026069 
L 133.728734 236.026069 
L 133.728734 235.327091 
L 134.468842 235.327091 
L 134.468842 233.78934 
L 135.178422 233.78934 
L 135.178422 233.369954 
L 135.859892 233.369954 
L 135.859892 232.53118 
L 136.026124 232.53118 
L 136.026124 229.176087 
L 136.190765 229.176087 
L 136.190765 229.036291 
L 136.353845 229.036291 
L 136.353845 228.7567 
L 136.515394 228.7567 
L 136.515394 228.477109 
L 136.675441 228.477109 
L 136.675441 228.197518 
L 136.834012 228.197518 
L 136.834012 227.917927 
L 136.991135 227.917927 
L 136.991135 225.122015 
L 137.146836 225.122015 
L 137.146836 224.423038 
L 137.301141 224.423038 
L 137.301141 224.143447 
L 137.454074 224.143447 
L 137.454074 223.863855 
L 137.60566 223.863855 
L 137.60566 223.72406 
L 137.755922 223.72406 
L 137.755922 223.025082 
L 137.904883 223.025082 
L 137.904883 222.745491 
L 138.488154 222.745491 
L 138.488154 222.4659 
L 138.630934 222.4659 
L 138.630934 222.186309 
L 138.912987 222.186309 
L 138.912987 222.046513 
L 139.052299 222.046513 
L 139.052299 221.347535 
L 139.997117 221.347535 
L 139.997117 221.067944 
L 140.257802 221.067944 
L 140.257802 220.508762 
L 140.514596 220.508762 
L 140.514596 219.530193 
L 140.767613 219.530193 
L 140.767613 218.272033 
L 141.140296 218.272033 
L 141.140296 217.852646 
L 141.384341 217.852646 
L 141.384341 217.573055 
L 141.505077 217.573055 
L 141.505077 217.153669 
L 141.744038 217.153669 
L 141.744038 217.013873 
L 143.002096 217.013873 
L 143.112032 215.196531 
L 143.22127 215.196531 
L 143.329818 212.260824 
L 143.437686 212.260824 
L 143.544882 211.841437 
L 143.651414 211.841437 
L 143.651414 211.561846 
L 143.862519 211.561846 
L 143.967108 210.024095 
L 144.37922 210.024095 
L 144.37922 209.744504 
L 144.581633 209.744504 
L 144.581633 208.765935 
L 144.781692 208.765935 
L 144.880856 208.066957 
L 145.077485 208.066957 
L 145.077485 207.787366 
L 145.271892 207.787366 
L 145.271892 207.64757 
L 145.464127 207.64757 
L 145.464127 207.367979 
L 145.654238 207.367979 
L 145.654238 207.228184 
L 146.028272 207.228184 
L 146.028272 206.808797 
L 146.394347 206.808797 
L 146.484661 205.970024 
L 147.103926 205.970024 
L 147.190601 205.410841 
L 147.617542 205.410841 
L 147.617542 205.13125 
L 147.951628 205.13125 
L 148.034145 203.034317 
L 148.116269 203.034317 
L 148.116269 202.894521 
L 148.27935 202.894521 
L 148.360314 200.797588 
L 148.440899 200.797588 
L 148.521108 198.700655 
L 148.600945 198.700655 
L 148.600945 198.560859 
L 148.759517 198.560859 
L 148.759517 198.141472 
L 148.91664 198.141472 
L 148.91664 197.861881 
L 149.379579 197.861881 
L 149.455539 196.463926 
L 149.756068 196.463926 
L 149.830387 195.904743 
L 149.904387 195.904743 
L 149.904387 195.764948 
L 150.413659 195.764948 
L 150.413659 195.625152 
L 150.556439 195.625152 
L 150.556439 195.345561 
L 150.698043 195.345561 
L 150.768411 195.06597 
L 151.047038 195.06597 
L 151.047038 194.926174 
L 151.184678 194.926174 
L 151.184678 194.786379 
L 151.456697 194.786379 
L 151.456697 194.227197 
L 151.724483 194.227197 
L 151.790783 193.947606 
L 151.922622 193.947606 
L 151.988164 192.689445 
L 152.118505 192.689445 
L 152.183306 192.409854 
L 152.247865 192.409854 
L 152.312182 191.431285 
L 152.37626 191.431285 
L 152.37626 191.29149 
L 152.503704 191.29149 
L 152.567074 187.51701 
L 152.693117 187.51701 
L 152.755795 185.559872 
L 152.880468 185.559872 
L 152.880468 185.00069 
L 153.065801 185.00069 
L 153.127137 184.161916 
L 153.188256 184.161916 
L 153.188256 183.74253 
L 153.787789 183.74253 
L 153.787789 183.043552 
L 154.137731 183.043552 
L 154.195368 182.344574 
L 154.593515 182.344574 
L 154.593515 182.204778 
L 154.872368 182.204778 
L 154.982656 180.806823 
L 155.092242 180.806823 
L 155.201134 178.849685 
L 155.36319 178.849685 
L 155.470386 178.430298 
L 155.629938 178.430298 
L 155.629938 178.290503 
L 155.892613 178.290503 
L 155.892613 177.731321 
L 156.048314 177.731321 
L 156.151337 176.612956 
L 157.051797 176.612956 
L 157.100467 175.913978 
L 157.341774 175.913978 
L 157.341774 175.354796 
L 157.579743 175.354796 
L 157.674016 174.655818 
L 157.72096 174.655818 
L 157.72096 174.516023 
L 157.907464 174.516023 
L 157.907464 174.236432 
L 158.22906 174.236432 
L 158.274515 173.677249 
L 158.455146 173.677249 
L 158.544754 172.838476 
L 158.678299 172.838476 
L 158.766756 171.999703 
L 158.898594 171.999703 
L 158.898594 171.580316 
L 159.627178 171.580316 
L 159.627178 171.44052 
L 159.877132 171.44052 
L 159.877132 171.160929 
L 160.041774 171.160929 
L 160.041774 171.021134 
L 160.164229 171.021134 
L 160.245384 170.042565 
L 160.285818 170.042565 
L 160.285818 169.623178 
L 160.406555 169.623178 
L 160.486577 169.343587 
L 160.645515 169.343587 
L 160.724437 167.805836 
L 160.881202 167.805836 
L 160.881202 167.66604 
L 160.997845 167.66604 
L 160.997845 167.526245 
L 161.305083 167.526245 
L 161.305083 167.246654 
L 161.569488 167.246654 
L 161.569488 167.106858 
L 161.940297 167.106858 
L 162.013509 166.687471 
L 162.159006 166.687471 
L 162.195189 166.268085 
L 162.339163 166.268085 
L 162.410701 165.988493 
L 162.517454 165.988493 
L 162.552891 165.569107 
L 162.658767 165.569107 
L 162.658767 164.730333 
L 162.972543 164.730333 
L 162.972543 164.450742 
L 163.24673 164.450742 
L 163.24673 163.611969 
L 163.550055 163.611969 
L 163.550055 163.332378 
L 163.716287 163.332378 
L 163.782333 162.6334 
L 164.011516 162.6334 
L 164.011516 162.214013 
L 164.14112 162.214013 
L 164.14112 162.074218 
L 164.365605 162.074218 
L 164.397436 161.794627 
L 164.587197 161.794627 
L 164.649989 161.235444 
L 164.960555 161.235444 
L 164.960555 160.955853 
L 165.083228 160.955853 
L 165.11376 160.11708 
L 165.325981 160.11708 
L 165.386138 159.837489 
L 165.535617 159.837489 
L 165.595046 159.278307 
L 165.654272 159.278307 
L 165.683808 158.579329 
L 166.034344 158.579329 
L 166.034344 158.439533 
L 166.264128 158.439533 
L 166.264128 158.299738 
L 166.37788 158.299738 
L 166.37788 158.159942 
L 166.547109 158.159942 
L 166.547109 157.60076 
L 166.659011 157.60076 
L 166.659011 156.901782 
L 166.825511 156.901782 
L 166.908161 156.202804 
L 167.072279 156.202804 
L 167.072279 155.783418 
L 167.342376 155.783418 
L 167.342376 155.503826 
L 167.634667 155.503826 
L 167.634667 155.224235 
L 167.765902 155.224235 
L 167.765902 154.944644 
L 168.306413 154.944644 
L 168.40747 154.245666 
L 168.507937 154.245666 
L 168.507937 154.105871 
L 168.879547 154.105871 
L 168.879547 153.82628 
L 169.171162 153.82628 
L 169.195241 153.406893 
L 169.410454 153.406893 
L 169.505247 152.707915 
L 169.599521 152.707915 
L 169.623008 152.148733 
L 169.832969 152.148733 
L 169.832969 152.008937 
L 169.994518 152.008937 
L 169.994518 151.869142 
L 170.670189 151.869142 
L 170.670189 151.449755 
L 170.911433 151.449755 
L 170.911433 151.30996 
L 171.10633 151.30996 
L 171.10633 151.170164 
L 171.823303 151.170164 
L 171.823303 151.030369 
L 172.981376 151.030369 
L 172.981376 150.890573 
L 177.296623 150.890573 
L 177.296623 150.610982 
L 178.472614 150.610982 
L 178.472614 150.331391 
L 180.841774 150.331391 
L 180.841774 150.191595 
L 183.769449 150.191595 
L 183.769449 150.0518 
L 195.408936 150.0518 
L 195.408936 149.912004 
L 203.427639 149.912004 
L 203.526065 148.933435 
L 203.565279 148.933435 
L 203.669413 146.836502 
L 203.721245 146.836502 
L 203.81801 141.104884 
L 203.859774 141.104884 
L 203.968524 137.190608 
L 203.981273 137.190608 
L 204.08926 135.652857 
L 204.098756 135.652857 
L 204.161928 132.437559 
L 204.215442 132.437559 
L 204.31885 129.501852 
L 204.350064 129.501852 
L 204.427851 128.663079 
L 204.47745 128.663079 
L 204.582377 127.964101 
L 204.790331 127.964101 
L 204.817666 127.544714 
L 204.953698 127.544714 
L 205.055769 126.985532 
L 205.175082 126.985532 
L 205.175082 126.705941 
L 205.323069 126.705941 
L 205.378972 125.587577 
L 205.504822 125.587577 
L 205.583377 124.888599 
L 205.618175 124.888599 
L 205.670241 124.189621 
L 205.785382 124.189621 
L 205.836945 123.770234 
L 207.040921 123.770234 
L 207.040921 123.490643 
L 211.063122 123.490643 
L 211.063122 123.350848 
L 214.147083 123.350848 
L 214.147083 123.211052 
L 215.381088 123.211052 
L 215.489151 122.092688 
L 215.495679 122.092688 
L 215.599783 117.759025 
L 215.609511 117.759025 
L 215.688748 113.704954 
L 215.735472 113.704954 
L 215.846135 110.909043 
L 215.849332 110.909043 
L 215.932247 110.070269 
L 216.041656 110.070269 
L 216.041656 109.790678 
L 216.336272 109.790678 
L 216.336272 109.371292 
L 216.504805 109.371292 
L 216.504805 108.951905 
L 222.401351 108.951905 
L 222.504795 105.736607 
L 222.542749 105.736607 
L 222.622722 102.661105 
L 222.713053 102.661105 
L 222.713053 102.521309 
L 222.876377 102.521309 
L 222.876377 102.381514 
L 223.101197 102.381514 
L 223.101197 102.241718 
L 227.355796 102.241718 
L 227.455412 99.306011 
L 227.469247 99.306011 
L 227.562547 98.047851 
L 227.687504 98.047851 
L 227.687504 97.628465 
L 227.85457 97.628465 
L 227.857751 97.348873 
L 229.519083 97.348873 
L 229.519083 97.209078 
L 231.172991 97.209078 
L 231.282839 94.273371 
L 231.284794 94.273371 
L 231.336201 93.574393 
L 234.316476 93.574393 
L 234.391717 90.498891 
L 236.942449 90.498891 
L 237.039739 88.122366 
L 237.059317 88.122366 
L 237.059317 87.982571 
L 239.216076 87.982571 
L 239.278844 87.143798 
L 239.327506 87.143798 
L 239.336079 86.864206 
L 239.488051 86.864206 
L 239.488051 86.724411 
L 241.255436 86.724411 
L 241.331201 85.606046 
L 243.067967 85.606046 
L 243.122748 84.347886 
L 244.71747 84.347886 
L 244.752064 83.509113 
L 246.198486 83.509113 
L 246.233783 82.390748 
L 246.365571 82.390748 
L 246.365571 82.250953 
L 247.58431 82.250953 
L 247.607038 81.551975 
L 248.851293 81.551975 
L 248.875457 80.573406 
L 250.040982 80.573406 
L 250.053027 80.15402 
L 251.149182 80.15402 
L 251.149182 79.734633 
L 252.190299 79.734633 
L 252.20093 78.895859 
L 253.182035 78.895859 
L 253.18678 78.616268 
L 254.09307 78.616268 
L 254.114694 78.196882 
L 254.981803 78.196882 
L 254.984598 77.497904 
L 255.819987 77.497904 
L 255.819987 77.358108 
L 257.382979 77.358108 
L 257.390841 76.938722 
L 258.121799 76.938722 
L 258.121799 76.798926 
L 258.822306 76.798926 
L 258.822306 76.65913 
L 259.489713 76.65913 
L 259.489713 76.519335 
L 260.138285 76.519335 
L 260.138285 76.239744 
L 261.949062 76.239744 
L 261.949062 76.099948 
L 262.512644 76.099948 
L 262.512644 75.960153 
L 263.058348 75.960153 
L 263.058348 75.820357 
L 263.595348 75.820357 
L 263.595348 75.680562 
L 264.100425 75.680562 
L 264.100425 75.540766 
L 266.898758 75.540766 
L 266.898758 75.40097 
L 267.318748 75.40097 
L 267.325247 74.981584 
L 267.733039 74.981584 
L 267.733039 74.701993 
L 268.137589 74.701993 
L 268.137589 74.562197 
L 268.532844 74.562197 
L 268.532844 74.422402 
L 269.297113 74.422402 
L 269.297113 74.282606 
L 274.975678 74.282606 
L 274.975678 74.14281 
L 278.600239 74.14281 
L 278.600239 74.003015 
L 333.429677 74.003015 
L 333.429677 74.003015 
" style="fill:none;stroke:#00bfbf;stroke-linecap:square;stroke-width:1.5;"/>
   </g>
   <g id="line2d_25">
    <defs>
     <path d="M -6 0 
L 6 0 
M 0 6 
L 0 -6 
" id="mf405279163" style="stroke:#00bfbf;stroke-width:1.5;"/>
    </defs>
    <g>
     <use style="fill-opacity:0;stroke:#00bfbf;stroke-width:1.5;" x="138.488154" xlink:href="#mf405279163" y="222.4659"/>
     <use style="fill-opacity:0;stroke:#00bfbf;stroke-width:1.5;" x="195.408936" xlink:href="#mf405279163" y="150.0518"/>
     <use style="fill-opacity:0;stroke:#00bfbf;stroke-width:1.5;" x="269.297113" xlink:href="#mf405279163" y="74.422402"/>
     <use style="fill-opacity:0;stroke:#00bfbf;stroke-width:1.5;" x="278.600239" xlink:href="#mf405279163" y="74.003015"/>
     <use style="fill-opacity:0;stroke:#00bfbf;stroke-width:1.5;" x="333.429677" xlink:href="#mf405279163" y="74.003015"/>
    </g>
   </g>
   <g id="line2d_26">
    <path style="fill:none;stroke:#00bfbf;stroke-linecap:square;stroke-width:1.5;"/>
    <g/>
   </g>
   <g id="line2d_27">
    <path clip-path="url(#pe7453096ef)" d="M 203.414473 149.912004 
" style="fill:none;stroke:#00bfbf;stroke-linecap:square;stroke-width:1.5;"/>
    <defs>
     <path d="M -12 12 
L 12 -12 
M -12 -12 
L 12 12 
" id="m41b4047ff5" style="stroke:#00bfbf;stroke-width:3;"/>
    </defs>
    <g clip-path="url(#pe7453096ef)">
     <use style="fill:#00bfbf;stroke:#00bfbf;stroke-width:3;" x="203.414473" xlink:href="#m41b4047ff5" y="149.912004"/>
    </g>
   </g>
   <g id="line2d_28">
    <defs>
     <path d="M 0 1.5 
C 0.397805 1.5 0.77937 1.341951 1.06066 1.06066 
C 1.341951 0.77937 1.5 0.397805 1.5 0 
C 1.5 -0.397805 1.341951 -0.77937 1.06066 -1.06066 
C 0.77937 -1.341951 0.397805 -1.5 0 -1.5 
C -0.397805 -1.5 -0.77937 -1.341951 -1.06066 -1.06066 
C -1.341951 -0.77937 -1.5 -0.397805 -1.5 0 
C -1.5 0.397805 -1.341951 0.77937 -1.06066 1.06066 
C -0.77937 1.341951 -0.397805 1.5 0 1.5 
z
" id="m78781d6b10" style="stroke:#008000;"/>
    </defs>
    <g>
     <use style="fill:#008000;stroke:#008000;" x="280.228957" xlink:href="#m78781d6b10" y="92.176438"/>
     <use style="fill:#008000;stroke:#008000;" x="280.228957" xlink:href="#m78781d6b10" y="92.176438"/>
    </g>
   </g>
   <g id="line2d_29">
    <path d="M 49.144027 294.88 
L 49.144027 294.181022 
L 61.069532 294.181022 
L 61.069532 293.202453 
L 68.045504 293.202453 
L 68.045504 292.783067 
L 72.995036 292.783067 
L 72.995036 291.524907 
L 79.971009 291.524907 
L 79.971009 290.825929 
L 82.623151 290.825929 
L 82.623151 290.126951 
L 84.92054 290.126951 
L 84.92054 289.84736 
L 86.946982 289.84736 
L 86.946982 288.309609 
L 88.759695 288.309609 
L 88.759695 288.030018 
L 90.399494 288.030018 
L 90.399494 287.890222 
L 91.896513 287.890222 
L 91.896513 287.470835 
L 94.548655 287.470835 
L 94.548655 287.33104 
L 95.735668 287.33104 
L 95.735668 286.771858 
L 98.872486 286.771858 
L 98.872486 286.632062 
L 99.802705 286.632062 
L 99.802705 285.234106 
L 100.6852 285.234106 
L 100.6852 284.954515 
L 102.324999 284.954515 
L 102.324999 284.115742 
L 104.524355 284.115742 
L 104.524355 283.137173 
L 106.47416 283.137173 
L 106.47416 281.459626 
L 110.313314 281.459626 
L 110.313314 281.180035 
L 110.797991 281.180035 
L 110.797991 280.900444 
L 111.269386 280.900444 
L 111.269386 280.061671 
L 111.72821 280.061671 
L 111.72821 279.642284 
L 112.610704 279.642284 
L 112.610704 279.502488 
L 113.035537 279.502488 
L 113.035537 278.803511 
L 114.250503 278.803511 
L 114.250503 278.663715 
L 116.790561 278.663715 
L 116.790561 277.125964 
L 117.124646 277.125964 
L 117.124646 276.986168 
L 117.452368 276.986168 
L 117.452368 276.566782 
L 117.773963 276.566782 
L 117.773963 274.609644 
L 118.089658 274.609644 
L 118.089658 274.330053 
L 118.399664 274.330053 
L 118.399664 273.491279 
L 119.003405 273.491279 
L 119.003405 272.652506 
L 119.297513 272.652506 
L 119.297513 270.695368 
L 119.586677 270.695368 
L 119.586677 270.415777 
L 119.871061 270.415777 
L 119.871061 270.275981 
L 120.150822 270.275981 
L 120.150822 270.136186 
L 120.963801 270.136186 
L 120.963801 268.878026 
L 121.226476 268.878026 
L 121.226476 268.179048 
L 121.485201 268.179048 
L 121.485201 267.200479 
L 121.740092 267.200479 
L 121.740092 266.920888 
L 121.991263 266.920888 
L 121.991263 266.641297 
L 122.238819 266.641297 
L 122.238819 266.361706 
L 122.482864 266.361706 
L 122.482864 265.522932 
L 122.960807 265.522932 
L 122.960807 265.103546 
L 123.194891 265.103546 
L 123.194891 264.684159 
L 123.425832 264.684159 
L 123.425832 264.404568 
L 123.653714 264.404568 
L 123.653714 264.264772 
L 123.878618 264.264772 
L 123.878618 264.124977 
L 124.100619 264.124977 
L 124.100619 263.70559 
L 124.319792 263.70559 
L 124.319792 263.425999 
L 124.961042 263.425999 
L 124.961042 262.587226 
L 125.579247 262.587226 
L 125.579247 262.44743 
L 125.780476 262.44743 
L 125.780476 262.307634 
L 126.370415 262.307634 
L 126.370415 262.167839 
L 126.752761 262.167839 
L 126.752761 262.028043 
L 126.940794 262.028043 
L 126.940794 261.468861 
L 127.126794 261.468861 
L 127.126794 261.18927 
L 127.492869 261.18927 
L 127.492869 261.049474 
L 127.851317 261.049474 
L 127.851317 260.769883 
L 128.883919 260.769883 
L 128.883919 260.210701 
L 129.050151 260.210701 
L 129.050151 259.511723 
L 129.214792 259.511723 
L 129.214792 257.834177 
L 129.377872 257.834177 
L 129.377872 257.554585 
L 129.539422 257.554585 
L 129.539422 255.737243 
L 129.699468 255.737243 
L 129.699468 255.038265 
L 129.858039 255.038265 
L 129.858039 254.339288 
L 130.015162 254.339288 
L 130.015162 254.199492 
L 130.170864 254.199492 
L 130.170864 253.64031 
L 130.325168 253.64031 
L 130.325168 253.220923 
L 130.478102 253.220923 
L 130.478102 253.081127 
L 130.629687 253.081127 
L 130.629687 252.102559 
L 131.223017 252.102559 
L 131.223017 251.683172 
L 131.654961 251.683172 
L 131.654961 251.403581 
L 132.35161 251.403581 
L 132.35161 251.263785 
L 132.487617 251.263785 
L 132.487617 250.844399 
L 132.622558 250.844399 
L 132.622558 250.564807 
L 132.889306 250.564807 
L 132.889306 249.86583 
L 133.021144 249.86583 
L 133.021144 249.726034 
L 133.281829 249.726034 
L 133.281829 249.306647 
L 133.410705 249.306647 
L 133.410705 248.747465 
L 133.538623 248.747465 
L 133.538623 248.467874 
L 133.665597 248.467874 
L 133.665597 248.188283 
L 133.916767 248.188283 
L 133.916767 248.048487 
L 134.04099 248.048487 
L 134.04099 247.34951 
L 134.529104 247.34951 
L 134.529104 246.790327 
L 134.648999 246.790327 
L 134.648999 246.370941 
L 134.768065 246.370941 
L 134.768065 246.091349 
L 134.886312 246.091349 
L 134.886312 245.951554 
L 135.120395 245.951554 
L 135.120395 245.811758 
L 135.236253 245.811758 
L 135.236253 245.392372 
L 135.351336 245.392372 
L 135.351336 245.112781 
L 135.915481 245.112781 
L 136.026124 243.435234 
L 136.136059 243.435234 
L 136.245297 242.59646 
L 136.353845 242.59646 
L 136.461713 241.198505 
L 136.568909 241.198505 
L 136.675441 240.639323 
L 136.991135 240.639323 
L 137.095092 239.940345 
L 137.301141 239.940345 
L 137.403248 239.101571 
L 137.60566 239.101571 
L 137.70598 238.682185 
L 138.19899 238.682185 
L 138.19899 238.542389 
L 138.392305 238.542389 
L 138.392305 237.703616 
L 138.866299 237.703616 
L 138.95955 237.144434 
L 139.418374 237.144434 
L 139.508688 236.445456 
L 139.687907 236.445456 
L 139.687907 236.026069 
L 140.300868 236.026069 
L 140.300868 235.746478 
L 140.557025 235.746478 
L 140.557025 235.466887 
L 140.975655 235.466887 
L 141.058173 234.767909 
L 141.140296 234.767909 
L 141.22203 233.369954 
L 141.545135 233.369954 
L 141.624972 233.090362 
L 142.018694 233.090362 
L 142.096368 232.391385 
L 142.173693 232.391385 
L 142.173693 231.971998 
L 142.327309 231.971998 
L 142.327309 231.832202 
L 143.148522 231.832202 
L 143.148522 231.552611 
L 143.580466 231.552611 
L 143.651414 231.133225 
L 143.72207 231.133225 
L 143.792438 230.154656 
L 144.548063 230.154656 
L 144.548063 230.01486 
L 144.81481 230.01486 
L 144.880856 227.218949 
L 144.946649 227.218949 
L 144.946649 226.939358 
L 145.077485 226.939358 
L 145.077485 226.519971 
L 145.271892 226.519971 
L 145.336209 225.820993 
L 145.400287 225.820993 
L 145.400287 225.681198 
L 145.527731 225.681198 
L 145.527731 225.541402 
L 145.842271 225.541402 
L 145.842271 225.401607 
L 146.333872 225.401607 
L 146.394347 224.98222 
L 147.276841 224.98222 
L 147.334095 224.702629 
L 147.617542 224.702629 
L 147.617542 224.562833 
L 147.896396 224.562833 
L 148.006684 224.143447 
L 148.225161 224.143447 
L 148.333368 223.72406 
L 148.494413 223.72406 
L 148.600945 222.745491 
L 148.653965 222.745491 
L 148.653965 222.4659 
L 148.968697 222.4659 
L 148.968697 222.326104 
L 149.12393 222.326104 
L 149.12393 222.046513 
L 149.379579 222.046513 
L 149.379579 221.906718 
L 150.173027 221.906718 
L 150.173027 221.766922 
L 150.556439 221.766922 
L 150.650971 221.487331 
L 150.698043 221.487331 
L 150.791803 220.648558 
L 150.977803 220.648558 
L 150.977803 220.508762 
L 151.161814 220.508762 
L 151.161814 219.809784 
L 152.183306 219.809784 
L 152.183306 219.669989 
L 153.748464 219.669989 
L 153.827025 219.110806 
L 154.964324 219.110806 
L 154.964324 218.69142 
L 155.291354 218.69142 
L 155.291354 218.551624 
L 156.372461 218.551624 
L 156.372461 218.411829 
L 156.707196 218.411829 
L 156.740314 217.43326 
L 158.500008 217.43326 
L 158.589384 216.874077 
L 159.877132 216.874077 
L 159.877132 216.734282 
L 164.57671 216.734282 
L 164.57671 216.594486 
L 164.888589 216.594486 
L 164.888589 216.454691 
L 165.850229 216.454691 
L 165.850229 216.1751 
L 176.752168 216.1751 
L 176.752168 216.035304 
L 192.844549 216.035304 
L 192.844549 215.895508 
L 203.334161 215.895508 
L 203.41996 215.615917 
L 203.448465 215.615917 
L 203.548951 215.056735 
L 203.559838 215.056735 
L 203.633688 212.959802 
L 203.698588 212.959802 
L 203.773996 211.282255 
L 203.827657 211.282255 
L 203.911036 208.90573 
L 203.940868 208.90573 
L 204.03641 205.271046 
L 204.063912 205.271046 
L 204.173484 202.475135 
L 204.177685 202.475135 
L 204.221727 201.216975 
L 204.294882 201.216975 
L 204.321974 200.937384 
L 204.407142 200.937384 
L 204.516616 199.679223 
L 204.557746 199.679223 
L 204.609021 199.259837 
L 205.123481 199.259837 
L 205.131429 198.84045 
L 206.704273 198.84045 
L 206.704273 198.700655 
L 210.836459 198.700655 
L 210.836459 198.421063 
L 213.006643 198.421063 
L 213.006643 198.281268 
L 215.286111 198.281268 
L 215.393676 198.001677 
L 215.421009 198.001677 
L 215.49731 196.184334 
L 215.534249 196.184334 
L 215.640279 191.151694 
L 215.654295 191.151694 
L 215.720985 187.936396 
L 215.820537 187.936396 
L 215.886587 187.097623 
L 215.934368 187.097623 
L 215.985188 186.398645 
L 216.256847 186.398645 
L 216.256847 186.119054 
L 217.050973 186.119054 
L 217.050973 185.979259 
L 220.489206 185.979259 
L 220.489206 185.839463 
L 222.365272 185.839463 
L 222.467119 183.183347 
L 222.47727 183.183347 
L 222.561876 178.709889 
L 222.597186 178.709889 
L 222.705544 177.451729 
L 222.711266 177.451729 
L 222.711266 177.311934 
L 222.87921 177.311934 
L 222.886998 177.032343 
L 227.320274 177.032343 
L 227.423358 170.461951 
L 227.438034 170.461951 
L 227.52745 167.805836 
L 227.553375 167.805836 
L 227.573871 167.526245 
L 227.682951 167.526245 
L 227.682951 167.386449 
L 230.020334 167.386449 
L 230.020334 167.246654 
L 230.191556 167.246654 
L 230.191556 167.106858 
L 230.977505 167.106858 
L 230.977505 166.967062 
L 231.114512 166.967062 
L 231.222117 161.515036 
L 231.237372 161.515036 
L 231.328619 160.536467 
L 231.349408 160.536467 
L 231.349408 160.396671 
L 231.461149 160.396671 
L 231.461149 160.256876 
L 234.252427 160.256876 
L 234.35123 155.643622 
L 234.373391 155.643622 
L 234.441152 154.665053 
L 234.51585 154.665053 
L 234.51585 154.525258 
L 234.8708 154.525258 
L 234.8708 154.385462 
L 236.238235 154.385462 
L 236.238235 154.245666 
L 236.858595 154.245666 
L 236.967603 150.890573 
L 236.974472 150.890573 
L 237.061026 148.094662 
L 237.125192 148.094662 
L 237.125192 147.954866 
L 238.615377 147.954866 
L 238.615377 147.815071 
L 239.219226 147.815071 
L 239.308848 144.180386 
L 239.334174 144.180386 
L 239.404511 143.621204 
L 239.658466 143.621204 
L 239.658466 143.481408 
L 241.239487 143.481408 
L 241.341738 138.728359 
L 243.051641 138.728359 
L 243.139334 135.093675 
L 243.184428 135.093675 
L 243.195738 134.674288 
L 244.683007 134.674288 
L 244.766755 131.179399 
L 244.807784 131.179399 
L 244.807784 131.039603 
L 246.180125 131.039603 
L 246.253452 128.243692 
L 247.550921 128.243692 
L 247.656598 124.189621 
L 248.421604 124.189621 
L 248.421604 124.049825 
L 248.823491 124.049825 
L 248.919941 121.114119 
L 250.014088 121.114119 
L 250.069876 119.855959 
L 251.116902 119.855959 
L 251.160339 118.038616 
L 252.158302 118.038616 
L 252.212584 115.941683 
L 252.828355 115.941683 
L 252.828355 115.801887 
L 253.145005 115.801887 
L 253.179723 114.124341 
L 254.069165 114.124341 
L 254.147569 111.747816 
L 254.954768 111.747816 
L 254.991719 110.210065 
L 255.794917 110.210065 
L 255.813305 109.371292 
L 256.594048 109.371292 
L 256.619774 108.392723 
L 257.352164 108.392723 
L 257.416974 106.715176 
L 258.088896 106.715176 
L 258.122073 105.596811 
L 258.790278 105.596811 
L 258.813625 104.897834 
L 259.459284 104.897834 
L 259.479041 104.05906 
L 260.108536 104.05906 
L 260.126993 102.661105 
L 260.736136 102.661105 
L 260.746644 101.682536 
L 261.339223 101.682536 
L 261.360794 100.004989 
L 261.923275 100.004989 
L 261.942152 99.306011 
L 262.485457 99.306011 
L 262.486803 98.467238 
L 263.032457 98.467238 
L 263.040074 97.628465 
L 263.557476 97.628465 
L 263.578567 97.209078 
L 264.073537 97.209078 
L 264.074442 96.929487 
L 264.571557 96.929487 
L 264.572687 96.5101 
L 265.067644 96.5101 
L 265.067644 96.370304 
L 265.527873 96.370304 
L 265.527873 96.090713 
L 266.431737 96.090713 
L 266.432807 95.811122 
L 266.868029 95.811122 
L 266.885485 95.25194 
L 267.70374 95.25194 
L 267.70374 95.112144 
L 268.506524 95.112144 
L 268.52464 94.832553 
L 268.892877 94.832553 
L 268.892877 94.692758 
L 269.270744 94.692758 
L 269.270744 94.552962 
L 269.640491 94.552962 
L 269.640491 94.413167 
L 270.002457 94.413167 
L 270.028529 93.99378 
L 270.704317 93.99378 
L 270.731628 93.714189 
L 271.042294 93.714189 
L 271.042294 93.574393 
L 272.026839 93.574393 
L 272.026839 93.434598 
L 272.343073 93.434598 
L 272.343073 93.294802 
L 272.652343 93.294802 
L 272.652343 93.155007 
L 272.959275 93.155007 
L 272.959275 93.015211 
L 273.837098 93.015211 
L 273.837098 92.875415 
L 274.403059 92.875415 
L 274.404937 92.595824 
L 277.213246 92.595824 
L 277.213246 92.456029 
L 279.000004 92.456029 
L 279.000004 92.316233 
L 280.228957 92.316233 
L 280.228957 92.176438 
L 333.429677 92.176438 
L 333.429677 92.176438 
" style="fill:none;stroke:#008000;stroke-linecap:square;stroke-width:1.5;"/>
   </g>
   <g id="line2d_30">
    <defs>
     <path d="M -0 6 
L 6 -6 
L -6 -6 
z
" id="m648c0b7aa9" style="stroke:#008000;stroke-linejoin:miter;stroke-width:1.5;"/>
    </defs>
    <g>
     <use style="fill-opacity:0;stroke:#008000;stroke-linejoin:miter;stroke-width:1.5;" x="145.842271" xlink:href="#m648c0b7aa9" y="225.541402"/>
     <use style="fill-opacity:0;stroke:#008000;stroke-linejoin:miter;stroke-width:1.5;" x="213.006643" xlink:href="#m648c0b7aa9" y="198.421063"/>
     <use style="fill-opacity:0;stroke:#008000;stroke-linejoin:miter;stroke-width:1.5;" x="244.694569" xlink:href="#m648c0b7aa9" y="132.856946"/>
     <use style="fill-opacity:0;stroke:#008000;stroke-linejoin:miter;stroke-width:1.5;" x="280.228957" xlink:href="#m648c0b7aa9" y="92.176438"/>
     <use style="fill-opacity:0;stroke:#008000;stroke-linejoin:miter;stroke-width:1.5;" x="280.228957" xlink:href="#m648c0b7aa9" y="92.176438"/>
     <use style="fill-opacity:0;stroke:#008000;stroke-linejoin:miter;stroke-width:1.5;" x="333.429677" xlink:href="#m648c0b7aa9" y="92.176438"/>
    </g>
   </g>
   <g id="line2d_31">
    <path style="fill:none;stroke:#008000;stroke-linecap:square;stroke-width:1.5;"/>
    <g/>
   </g>
   <g id="line2d_32">
    <path clip-path="url(#pe7453096ef)" d="M 203.387011 215.755713 
" style="fill:none;stroke:#008000;stroke-linecap:square;stroke-width:1.5;"/>
    <defs>
     <path d="M -12 12 
L 12 -12 
M -12 -12 
L 12 12 
" id="m6fa0b3df04" style="stroke:#008000;stroke-width:3;"/>
    </defs>
    <g clip-path="url(#pe7453096ef)">
     <use style="fill:#008000;stroke:#008000;stroke-width:3;" x="203.387011" xlink:href="#m6fa0b3df04" y="215.755713"/>
    </g>
   </g>
   <g id="line2d_33">
    <defs>
     <path d="M 0 1.5 
C 0.397805 1.5 0.77937 1.341951 1.06066 1.06066 
C 1.341951 0.77937 1.5 0.397805 1.5 0 
C 1.5 -0.397805 1.341951 -0.77937 1.06066 -1.06066 
C 0.77937 -1.341951 0.397805 -1.5 0 -1.5 
C -0.397805 -1.5 -0.77937 -1.341951 -1.06066 -1.06066 
C -1.341951 -0.77937 -1.5 -0.397805 -1.5 0 
C -1.5 0.397805 -1.341951 0.77937 -1.06066 1.06066 
C -0.77937 1.341951 -0.397805 1.5 0 1.5 
z
" id="mb8ed5eee18" style="stroke:#0000ff;"/>
    </defs>
    <g>
     <use style="fill:#0000ff;stroke:#0000ff;" x="282.255756" xlink:href="#mb8ed5eee18" y="234.767909"/>
     <use style="fill:#0000ff;stroke:#0000ff;" x="282.255756" xlink:href="#mb8ed5eee18" y="234.767909"/>
    </g>
   </g>
   <g id="line2d_34">
    <path d="M 40.355341 294.88 
L 40.355341 294.600409 
L 59.256818 294.600409 
L 59.256818 294.460613 
L 64.20635 294.460613 
L 64.20635 294.320818 
L 68.045504 294.320818 
L 68.045504 294.181022 
L 73.834464 294.181022 
L 73.834464 293.901431 
L 76.131854 293.901431 
L 76.131854 293.761636 
L 78.158295 293.761636 
L 78.158295 293.342249 
L 84.484951 293.342249 
L 84.484951 293.202453 
L 90.0838 293.202453 
L 90.0838 293.062658 
L 91.014019 293.062658 
L 91.014019 292.922862 
L 95.735668 292.922862 
L 95.735668 292.783067 
L 96.410455 292.783067 
L 96.410455 292.643271 
L 102.4807 292.643271 
L 102.4807 292.36368 
L 106.226603 292.36368 
L 106.226603 292.223884 
L 107.661173 292.223884 
L 107.661173 291.804498 
L 108.33596 291.804498 
L 108.33596 291.524907 
L 109.610977 291.524907 
L 109.610977 291.385111 
L 109.915496 291.385111 
L 109.915496 290.825929 
L 110.508826 290.825929 
L 110.508826 290.406542 
L 111.082375 290.406542 
L 111.082375 290.266747 
L 111.362135 290.266747 
L 111.362135 290.126951 
L 111.637419 290.126951 
L 111.637419 289.987155 
L 112.175115 289.987155 
L 112.175115 289.707564 
L 112.437789 289.707564 
L 112.437789 289.148382 
L 113.450132 289.148382 
L 113.450132 289.008586 
L 114.172121 289.008586 
L 114.172121 288.868791 
L 114.406204 288.868791 
L 114.406204 288.728995 
L 114.637146 288.728995 
L 114.637146 288.449404 
L 115.531106 288.449404 
L 115.531106 288.169813 
L 115.96125 288.169813 
L 115.96125 287.890222 
L 116.790561 287.890222 
L 116.790561 287.750426 
L 116.991789 287.750426 
L 116.991789 287.33104 
L 117.387321 287.33104 
L 117.387321 287.051449 
L 117.581728 287.051449 
L 117.581728 286.911653 
L 119.413762 286.911653 
L 119.413762 286.632062 
L 120.095232 286.632062 
L 120.095232 285.793289 
L 120.426105 285.793289 
L 120.426105 285.234106 
L 120.589186 285.234106 
L 120.589186 284.954515 
L 120.750735 284.954515 
L 120.750735 284.535129 
L 121.069353 284.535129 
L 121.069353 283.696355 
L 121.226476 283.696355 
L 121.226476 283.276969 
L 121.382177 283.276969 
L 121.382177 282.997377 
L 121.536482 282.997377 
L 121.536482 282.857582 
L 121.991263 282.857582 
L 121.991263 282.717786 
L 122.140223 282.717786 
L 122.140223 282.577991 
L 122.866275 282.577991 
L 122.866275 282.438195 
L 123.007879 282.438195 
L 123.007879 282.2984 
L 123.148328 282.2984 
L 123.148328 282.158604 
L 123.425832 282.158604 
L 123.425832 281.879013 
L 123.833872 281.879013 
L 123.833872 281.599422 
L 124.100619 281.599422 
L 124.100619 281.459626 
L 124.232458 281.459626 
L 124.232458 281.319831 
L 124.749936 281.319831 
L 124.749936 281.180035 
L 124.87691 281.180035 
L 124.87691 280.900444 
L 125.498092 280.900444 
L 125.498092 280.481057 
L 125.740418 280.481057 
L 125.740418 280.201466 
L 125.860313 280.201466 
L 125.860313 279.921875 
L 127.126794 279.921875 
L 127.237437 279.502488 
L 127.347373 279.502488 
L 127.45661 278.384124 
L 127.673027 278.384124 
L 127.780222 277.405555 
L 127.886754 277.405555 
L 127.886754 277.265759 
L 128.09786 277.265759 
L 128.202449 276.986168 
L 128.306406 276.986168 
L 128.409739 276.28719 
L 128.512455 276.28719 
L 128.512455 276.147395 
L 128.716065 276.147395 
L 128.816974 275.867804 
L 129.116196 275.867804 
L 129.116196 275.728008 
L 129.410304 275.728008 
L 129.410304 275.588213 
L 129.603619 275.588213 
L 129.603619 275.448417 
L 130.629687 275.448417 
L 130.720002 274.889235 
L 131.339267 274.889235 
L 131.339267 274.749439 
L 131.768338 274.749439 
L 131.852883 274.330053 
L 132.104053 274.330053 
L 132.186969 273.77087 
L 132.35161 273.77087 
L 132.35161 273.071893 
L 132.595654 273.071893 
L 132.676239 271.953528 
L 133.073598 271.953528 
L 133.15198 271.394346 
L 133.307682 271.394346 
L 133.385007 271.114755 
L 133.538623 271.114755 
L 133.538623 270.974959 
L 133.690879 270.974959 
L 133.766505 270.695368 
L 135.073833 270.695368 
L 135.073833 270.555573 
L 135.556566 270.555573 
L 135.556566 270.136186 
L 135.959823 270.136186 
L 136.026124 269.856595 
L 136.157962 269.856595 
L 136.157962 269.577004 
L 136.288798 269.577004 
L 136.353845 269.297412 
L 136.418647 269.297412 
L 136.483206 269.017821 
L 136.611601 269.017821 
L 136.611601 268.73823 
L 137.665922 268.73823 
L 137.665922 268.598435 
L 139.217997 268.598435 
L 139.327583 268.179048 
L 141.767752 268.179048 
L 141.862285 267.759661 
L 141.909357 267.759661 
L 141.956301 267.340275 
L 142.327309 267.340275 
L 142.418825 267.060684 
L 142.645506 267.060684 
L 142.645506 266.920888 
L 143.651414 266.920888 
L 143.651414 266.781092 
L 144.880856 266.781092 
L 144.880856 266.641297 
L 146.175638 266.641297 
L 146.175638 266.501501 
L 146.358088 266.501501 
L 146.358088 266.361706 
L 147.984682 266.361706 
L 147.984682 266.082115 
L 148.632777 266.082115 
L 148.632777 265.802523 
L 151.115996 265.802523 
L 151.115996 265.662728 
L 151.550897 265.662728 
L 151.550897 265.522932 
L 152.718216 265.522932 
L 152.718216 265.383137 
L 152.892886 265.383137 
L 152.892886 265.243341 
L 153.787789 265.243341 
L 153.787789 265.103546 
L 154.949644 265.103546 
L 154.949644 264.96375 
L 158.192609 264.96375 
L 158.192609 264.823955 
L 158.731427 264.823955 
L 158.731427 264.544363 
L 163.703048 264.544363 
L 163.703048 264.264772 
L 165.74861 264.264772 
L 165.74861 264.124977 
L 202.009227 264.124977 
L 202.009227 263.845386 
L 203.442768 263.845386 
L 203.520176 262.307634 
L 203.569848 262.307634 
L 203.659677 259.651519 
L 203.710244 259.651519 
L 203.777435 258.533154 
L 203.837941 258.533154 
L 203.93022 257.135199 
L 203.971074 257.135199 
L 204.057569 256.296425 
L 204.171384 256.296425 
L 204.171384 256.15663 
L 204.366896 256.15663 
L 204.366896 256.016834 
L 204.604515 256.016834 
L 204.604515 255.877039 
L 205.000605 255.877039 
L 205.000605 255.737243 
L 208.470689 255.737243 
L 208.470689 255.597448 
L 214.625975 255.597448 
L 214.625975 255.317856 
L 215.049083 255.317856 
L 215.049083 255.038265 
L 215.310976 255.038265 
L 215.416201 253.081127 
L 215.426688 253.081127 
L 215.51818 250.844399 
L 215.555941 250.844399 
L 215.635748 249.726034 
L 215.722917 249.726034 
L 215.722917 249.586238 
L 216.127741 249.586238 
L 216.127741 249.446443 
L 216.459818 249.446443 
L 216.459818 249.306647 
L 216.613396 249.306647 
L 216.613396 249.166852 
L 218.032057 249.166852 
L 218.032057 248.747465 
L 221.826325 248.747465 
L 221.826325 248.60767 
L 222.312657 248.60767 
L 222.383211 247.629101 
L 222.434739 247.629101 
L 222.47089 247.069918 
L 222.55596 247.069918 
L 222.629837 246.650532 
L 227.095727 246.650532 
L 227.095727 246.510736 
L 227.312176 246.510736 
L 227.389502 245.252576 
L 227.489248 245.252576 
L 227.489248 245.112781 
L 228.641339 245.112781 
L 228.641339 244.972985 
L 231.096337 244.972985 
L 231.1941 243.435234 
L 231.229441 243.435234 
L 231.229441 243.155643 
L 232.20472 243.155643 
L 232.20472 243.015847 
L 234.252647 243.015847 
L 234.294497 242.59646 
L 236.775498 242.59646 
L 236.877878 242.177074 
L 236.903096 242.177074 
L 236.96879 241.478096 
L 237.087527 241.478096 
L 237.087527 241.3383 
L 239.170888 241.3383 
L 239.25442 240.639323 
L 241.200223 240.639323 
L 241.242069 240.219936 
L 243.011824 240.219936 
L 243.030141 239.940345 
L 243.565051 239.940345 
L 243.565051 239.800549 
L 244.641839 239.800549 
L 244.699908 239.241367 
L 246.141696 239.241367 
L 246.149608 238.961776 
L 247.457697 238.961776 
L 247.561855 238.682185 
L 248.676261 238.682185 
L 248.676261 238.542389 
L 248.807808 238.542389 
L 248.807808 238.402594 
L 250.002294 238.402594 
L 250.002294 238.262798 
L 250.34843 238.262798 
L 250.34843 238.123003 
L 251.085181 238.123003 
L 251.123569 237.703616 
L 251.43458 237.703616 
L 251.43458 237.56382 
L 252.139179 237.56382 
L 252.139179 237.424025 
L 253.123603 237.424025 
L 253.123603 237.284229 
L 254.056124 237.284229 
L 254.056124 237.144434 
L 254.920707 237.144434 
L 254.920707 237.004638 
L 257.334012 237.004638 
L 257.334012 236.864843 
L 258.055105 236.864843 
L 258.114347 236.445456 
L 259.453775 236.445456 
L 259.453775 236.165865 
L 260.712824 236.165865 
L 260.712824 236.026069 
L 264.055722 236.026069 
L 264.055722 235.886274 
L 266.84202 235.886274 
L 266.844066 235.606682 
L 268.096309 235.606682 
L 268.096309 235.466887 
L 268.989715 235.466887 
L 268.989715 235.327091 
L 269.978822 235.327091 
L 269.978822 235.187296 
L 273.232927 235.187296 
L 273.232927 235.0475 
L 275.451861 235.0475 
L 275.451861 234.907705 
L 282.255756 234.907705 
L 282.255756 234.767909 
L 333.429677 234.767909 
L 333.429677 234.767909 
" style="fill:none;stroke:#0000ff;stroke-linecap:square;stroke-width:1.5;"/>
   </g>
   <g id="line2d_35">
    <defs>
     <path d="M 0 -6 
L -1.347084 -1.854102 
L -5.706339 -1.854102 
L -2.179628 0.708204 
L -3.526712 4.854102 
L -0 2.291796 
L 3.526712 4.854102 
L 2.179628 0.708204 
L 5.706339 -1.854102 
L 1.347084 -1.854102 
z
" id="m08d756abcb" style="stroke:#0000ff;stroke-linejoin:bevel;stroke-width:1.5;"/>
    </defs>
    <g>
     <use style="fill-opacity:0;stroke:#0000ff;stroke-linejoin:bevel;stroke-width:1.5;" x="142.645506" xlink:href="#m08d756abcb" y="266.920888"/>
     <use style="fill-opacity:0;stroke:#0000ff;stroke-linejoin:bevel;stroke-width:1.5;" x="205.000605" xlink:href="#m08d756abcb" y="255.877039"/>
     <use style="fill-opacity:0;stroke:#0000ff;stroke-linejoin:bevel;stroke-width:1.5;" x="266.844066" xlink:href="#m08d756abcb" y="235.746478"/>
     <use style="fill-opacity:0;stroke:#0000ff;stroke-linejoin:bevel;stroke-width:1.5;" x="282.255756" xlink:href="#m08d756abcb" y="234.767909"/>
     <use style="fill-opacity:0;stroke:#0000ff;stroke-linejoin:bevel;stroke-width:1.5;" x="282.255756" xlink:href="#m08d756abcb" y="234.767909"/>
     <use style="fill-opacity:0;stroke:#0000ff;stroke-linejoin:bevel;stroke-width:1.5;" x="333.429677" xlink:href="#m08d756abcb" y="234.767909"/>
    </g>
   </g>
   <g id="line2d_36">
    <path style="fill:none;stroke:#0000ff;stroke-linecap:square;stroke-width:1.5;"/>
    <g/>
   </g>
   <g id="line2d_37">
    <path clip-path="url(#pe7453096ef)" d="M 203.36501 263.845386 
" style="fill:none;stroke:#0000ff;stroke-linecap:square;stroke-width:1.5;"/>
    <defs>
     <path d="M -12 12 
L 12 -12 
M -12 -12 
L 12 12 
" id="m905e2ae2b9" style="stroke:#0000ff;stroke-width:3;"/>
    </defs>
    <g clip-path="url(#pe7453096ef)">
     <use style="fill:#0000ff;stroke:#0000ff;stroke-width:3;" x="203.36501" xlink:href="#m905e2ae2b9" y="263.845386"/>
    </g>
   </g>
   <g id="line2d_38">
    <defs>
     <path d="M 0 1.5 
C 0.397805 1.5 0.77937 1.341951 1.06066 1.06066 
C 1.341951 0.77937 1.5 0.397805 1.5 0 
C 1.5 -0.397805 1.341951 -0.77937 1.06066 -1.06066 
C 0.77937 -1.341951 0.397805 -1.5 0 -1.5 
C -0.397805 -1.5 -0.77937 -1.341951 -1.06066 -1.06066 
C -1.341951 -0.77937 -1.5 -0.397805 -1.5 0 
C -1.5 0.397805 -1.341951 0.77937 -1.06066 1.06066 
C -0.77937 1.341951 -0.397805 1.5 0 1.5 
z
" id="mb1fc3a045a" style="stroke:#000000;"/>
    </defs>
    <g>
     <use style="stroke:#000000;" x="270.658328" xlink:href="#mb1fc3a045a" y="282.2984"/>
     <use style="stroke:#000000;" x="270.658328" xlink:href="#mb1fc3a045a" y="282.2984"/>
    </g>
   </g>
   <g id="line2d_39">
    <path d="M 47.331314 294.88 
L 47.331314 294.740204 
L 61.90896 294.740204 
L 61.90896 294.460613 
L 98.289215 294.460613 
L 98.289215 293.901431 
L 100.512285 293.901431 
L 100.512285 293.761636 
L 102.009304 293.761636 
L 102.009304 293.62184 
L 103.386428 293.62184 
L 103.386428 293.482044 
L 106.226603 293.482044 
L 106.226603 293.202453 
L 110.214719 293.202453 
L 110.214719 292.922862 
L 110.508826 292.922862 
L 110.508826 292.783067 
L 111.082375 292.783067 
L 111.082375 292.503475 
L 111.222824 292.503475 
L 111.222824 292.36368 
L 115.20129 292.36368 
L 115.20129 292.084089 
L 115.421868 292.084089 
L 115.531106 291.804498 
L 117.190692 291.804498 
L 117.190692 291.385111 
L 117.773963 291.385111 
L 117.773963 291.245315 
L 120.261464 291.245315 
L 120.261464 291.10552 
L 120.750735 291.10552 
L 120.750735 290.825929 
L 123.766534 290.825929 
L 123.766534 290.546338 
L 124.100619 290.546338 
L 124.100619 290.406542 
L 124.298 290.406542 
L 124.298 290.266747 
L 124.81354 290.266747 
L 124.81354 290.126951 
L 125.740418 290.126951 
L 125.740418 289.987155 
L 126.273486 289.987155 
L 126.273486 289.84736 
L 126.733844 289.84736 
L 126.733844 289.567769 
L 136.026124 289.567769 
L 136.026124 289.427973 
L 145.155512 289.427973 
L 145.155512 289.288178 
L 203.423032 289.288178 
L 203.519521 288.309609 
L 203.688868 288.309609 
L 203.688868 288.169813 
L 215.299758 288.169813 
L 215.36334 287.051449 
L 222.307167 287.051449 
L 222.307167 286.911653 
L 227.218991 286.911653 
L 227.285227 286.07288 
L 231.059532 286.07288 
L 231.15514 285.234106 
L 234.204426 285.234106 
L 234.232672 284.81472 
L 236.847813 284.81472 
L 236.847813 284.674924 
L 239.139377 284.674924 
L 239.150025 284.255537 
L 241.173688 284.255537 
L 241.173688 284.115742 
L 244.635181 284.115742 
L 244.635181 283.975946 
L 246.112762 283.975946 
L 246.112762 283.836151 
L 247.48898 283.836151 
L 247.504524 283.55656 
L 249.953128 283.55656 
L 249.953128 283.416764 
L 251.063023 283.416764 
L 251.063023 283.276969 
L 254.01743 283.276969 
L 254.017708 282.997377 
L 254.906843 282.997377 
L 254.906843 282.857582 
L 258.034826 282.857582 
L 258.034826 282.717786 
L 259.416822 282.717786 
L 259.416822 282.577991 
L 266.820175 282.577991 
L 266.820175 282.438195 
L 270.658328 282.438195 
L 270.658328 282.2984 
L 333.429677 282.2984 
L 333.429677 282.2984 
" style="fill:none;stroke:#000000;stroke-linecap:square;stroke-width:1.5;"/>
   </g>
   <g id="line2d_40">
    <defs>
     <path d="M 0 6 
C 1.591219 6 3.117479 5.367802 4.242641 4.242641 
C 5.367802 3.117479 6 1.591219 6 0 
C 6 -1.591219 5.367802 -3.117479 4.242641 -4.242641 
C 3.117479 -5.367802 1.591219 -6 0 -6 
C -1.591219 -6 -3.117479 -5.367802 -4.242641 -4.242641 
C -5.367802 -3.117479 -6 -1.591219 -6 0 
C -6 1.591219 -5.367802 3.117479 -4.242641 4.242641 
C -3.117479 5.367802 -1.591219 6 0 6 
z
" id="m352f04eb1f" style="stroke:#000000;stroke-width:1.5;"/>
    </defs>
    <g>
     <use style="fill-opacity:0;stroke:#000000;stroke-width:1.5;" x="61.90896" xlink:href="#m352f04eb1f" y="294.460613"/>
     <use style="fill-opacity:0;stroke:#000000;stroke-width:1.5;" x="145.155512" xlink:href="#m352f04eb1f" y="289.427973"/>
     <use style="fill-opacity:0;stroke:#000000;stroke-width:1.5;" x="227.285227" xlink:href="#m352f04eb1f" y="286.212675"/>
     <use style="fill-opacity:0;stroke:#000000;stroke-width:1.5;" x="270.658328" xlink:href="#m352f04eb1f" y="282.438195"/>
     <use style="fill-opacity:0;stroke:#000000;stroke-width:1.5;" x="270.658328" xlink:href="#m352f04eb1f" y="282.2984"/>
     <use style="fill-opacity:0;stroke:#000000;stroke-width:1.5;" x="333.429677" xlink:href="#m352f04eb1f" y="282.2984"/>
    </g>
   </g>
   <g id="line2d_41">
    <path style="fill:none;stroke:#000000;stroke-linecap:square;stroke-width:1.5;"/>
    <g/>
   </g>
   <g id="line2d_42">
    <path clip-path="url(#pe7453096ef)" d="M 203.348491 289.288178 
" style="fill:none;stroke:#000000;stroke-linecap:square;stroke-width:1.5;"/>
    <defs>
     <path d="M -12 12 
L 12 -12 
M -12 -12 
L 12 12 
" id="m1f432facbe" style="stroke:#000000;stroke-width:3;"/>
    </defs>
    <g clip-path="url(#pe7453096ef)">
     <use style="stroke:#000000;stroke-width:3;" x="203.348491" xlink:href="#m1f432facbe" y="289.288178"/>
    </g>
   </g>
   <g id="line2d_43">
    <defs>
     <path d="M 0 1.5 
C 0.397805 1.5 0.77937 1.341951 1.06066 1.06066 
C 1.341951 0.77937 1.5 0.397805 1.5 0 
C 1.5 -0.397805 1.341951 -0.77937 1.06066 -1.06066 
C 0.77937 -1.341951 0.397805 -1.5 0 -1.5 
C -0.397805 -1.5 -0.77937 -1.341951 -1.06066 -1.06066 
C -1.341951 -0.77937 -1.5 -0.397805 -1.5 0 
C -1.5 0.397805 -1.341951 0.77937 -1.06066 1.06066 
C -0.77937 1.341951 -0.397805 1.5 0 1.5 
z
" id="m133ec88f8a" style="stroke:#ff0000;"/>
    </defs>
    <g>
     <use style="fill:#ff0000;stroke:#ff0000;" x="270.648187" xlink:href="#m133ec88f8a" y="293.482044"/>
     <use style="fill:#ff0000;stroke:#ff0000;" x="270.648187" xlink:href="#m133ec88f8a" y="293.482044"/>
    </g>
   </g>
   <g id="line2d_44">
    <path d="M 203.446384 294.88 
L 203.446384 294.740204 
L 231.051673 294.740204 
L 231.051673 294.600409 
L 242.966539 294.600409 
L 242.966539 294.460613 
L 247.478025 294.460613 
L 247.478025 294.320818 
L 254.886721 294.320818 
L 254.886721 294.181022 
L 255.725896 294.181022 
L 255.725896 294.041227 
L 257.290612 294.041227 
L 257.290612 293.901431 
L 258.022652 293.901431 
L 258.022652 293.761636 
L 263.500396 293.761636 
L 263.500396 293.62184 
L 270.648187 293.62184 
L 270.648187 293.482044 
L 333.429677 293.482044 
" style="fill:none;stroke:#ff0000;stroke-linecap:square;stroke-width:1.5;"/>
   </g>
   <g id="line2d_45">
    <defs>
     <path d="M -6 6 
L 6 6 
L 6 -6 
L -6 -6 
z
" id="m3081baecef" style="stroke:#ff0000;stroke-linejoin:miter;stroke-width:1.5;"/>
    </defs>
    <g>
     <use style="fill-opacity:0;stroke:#ff0000;stroke-linejoin:miter;stroke-width:1.5;" x="231.051673" xlink:href="#m3081baecef" y="294.600409"/>
     <use style="fill-opacity:0;stroke:#ff0000;stroke-linejoin:miter;stroke-width:1.5;" x="270.648187" xlink:href="#m3081baecef" y="293.482044"/>
     <use style="fill-opacity:0;stroke:#ff0000;stroke-linejoin:miter;stroke-width:1.5;" x="270.648187" xlink:href="#m3081baecef" y="293.482044"/>
     <use style="fill-opacity:0;stroke:#ff0000;stroke-linejoin:miter;stroke-width:1.5;" x="333.429677" xlink:href="#m3081baecef" y="293.482044"/>
    </g>
   </g>
   <g id="line2d_46">
    <path style="fill:none;stroke:#ff0000;stroke-linecap:square;stroke-width:1.5;"/>
    <g/>
   </g>
   <g id="line2d_47">
    <path clip-path="url(#pe7453096ef)" d="M 203.340225 294.88 
" style="fill:none;stroke:#ff0000;stroke-linecap:square;stroke-width:1.5;"/>
    <defs>
     <path d="M -12 12 
L 12 -12 
M -12 -12 
L 12 12 
" id="m26850592d4" style="stroke:#ff0000;stroke-width:3;"/>
    </defs>
    <g clip-path="url(#pe7453096ef)">
     <use style="fill:#ff0000;stroke:#ff0000;stroke-width:3;" x="203.340225" xlink:href="#m26850592d4" y="294.88"/>
    </g>
   </g>
   <g id="line2d_48">
    <path clip-path="url(#pe7453096ef)" d="M 56.12 294.88 
L 56.12 294.88 
L 56.12 294.88 
L 56.12 294.88 
L 399.984 294.88 
" style="fill:none;stroke:#bf00bf;stroke-linecap:square;stroke-width:1.5;"/>
   </g>
   <g id="line2d_49">
    <defs>
     <path d="M -0 8.485281 
L 8.485281 0 
L 0 -8.485281 
L -8.485281 -0 
z
" id="mf819f85879" style="stroke:#bf00bf;stroke-linejoin:miter;stroke-width:1.5;"/>
    </defs>
    <g clip-path="url(#pe7453096ef)">
     <use style="fill-opacity:0;stroke:#bf00bf;stroke-linejoin:miter;stroke-width:1.5;" x="56.12" xlink:href="#mf819f85879" y="294.88"/>
    </g>
   </g>
   <g id="line2d_50">
    <path clip-path="url(#pe7453096ef)" style="fill:none;stroke:#bf00bf;stroke-linecap:square;stroke-width:1.5;"/>
    <g clip-path="url(#pe7453096ef)">
     <use style="fill-opacity:0;stroke:#bf00bf;stroke-linejoin:miter;stroke-width:1.5;" x="-1" xlink:href="#mf819f85879" y="580.062943"/>
     <use style="fill-opacity:0;stroke:#bf00bf;stroke-linejoin:miter;stroke-width:1.5;" x="399.984" xlink:href="#mf819f85879" y="580.062943"/>
    </g>
   </g>
   <g id="line2d_51">
    <path d="M 333.429677 294.88 
L 363.933742 289.176341 
" style="fill:none;stroke:#bf00bf;stroke-linecap:square;stroke-width:1.5;"/>
    <g>
     <use style="fill-opacity:0;stroke:#bf00bf;stroke-linejoin:miter;stroke-width:1.5;" x="333.429677" xlink:href="#mf819f85879" y="294.88"/>
     <use style="fill-opacity:0;stroke:#bf00bf;stroke-linejoin:miter;stroke-width:1.5;" x="363.933742" xlink:href="#mf819f85879" y="289.176341"/>
    </g>
   </g>
   <g id="line2d_52">
    <path d="M 333.429677 293.482044 
L 363.933742 234.421216 
" style="fill:none;stroke:#ff0000;stroke-linecap:square;stroke-width:1.5;"/>
    <g>
     <use style="fill-opacity:0;stroke:#ff0000;stroke-linejoin:miter;stroke-width:1.5;" x="333.429677" xlink:href="#m3081baecef" y="293.482044"/>
     <use style="fill-opacity:0;stroke:#ff0000;stroke-linejoin:miter;stroke-width:1.5;" x="363.933742" xlink:href="#m3081baecef" y="234.421216"/>
    </g>
   </g>
   <g id="line2d_53">
    <path d="M 333.429677 282.2984 
L 363.933742 179.666091 
" style="fill:none;stroke:#000000;stroke-linecap:square;stroke-width:1.5;"/>
    <g>
     <use style="fill-opacity:0;stroke:#000000;stroke-width:1.5;" x="333.429677" xlink:href="#m352f04eb1f" y="282.2984"/>
     <use style="fill-opacity:0;stroke:#000000;stroke-width:1.5;" x="363.933742" xlink:href="#m352f04eb1f" y="179.666091"/>
    </g>
   </g>
   <g id="line2d_54">
    <path d="M 333.429677 234.767909 
L 363.933742 124.910966 
" style="fill:none;stroke:#0000ff;stroke-linecap:square;stroke-width:1.5;"/>
    <g>
     <use style="fill-opacity:0;stroke:#0000ff;stroke-linejoin:bevel;stroke-width:1.5;" x="333.429677" xlink:href="#m08d756abcb" y="234.767909"/>
     <use style="fill-opacity:0;stroke:#0000ff;stroke-linejoin:bevel;stroke-width:1.5;" x="363.933742" xlink:href="#m08d756abcb" y="124.910966"/>
    </g>
   </g>
   <g id="line2d_55">
    <path d="M 333.429677 92.176438 
L 363.933742 70.155841 
" style="fill:none;stroke:#008000;stroke-linecap:square;stroke-width:1.5;"/>
    <g>
     <use style="fill-opacity:0;stroke:#008000;stroke-linejoin:miter;stroke-width:1.5;" x="333.429677" xlink:href="#m648c0b7aa9" y="92.176438"/>
     <use style="fill-opacity:0;stroke:#008000;stroke-linejoin:miter;stroke-width:1.5;" x="363.933742" xlink:href="#m648c0b7aa9" y="70.155841"/>
    </g>
   </g>
   <g id="line2d_56">
    <path d="M 333.429677 74.003015 
L 363.933742 15.400716 
" style="fill:none;stroke:#00bfbf;stroke-linecap:square;stroke-width:1.5;"/>
    <g>
     <use style="fill-opacity:0;stroke:#00bfbf;stroke-width:1.5;" x="333.429677" xlink:href="#mf405279163" y="74.003015"/>
     <use style="fill-opacity:0;stroke:#00bfbf;stroke-width:1.5;" x="363.933742" xlink:href="#mf405279163" y="15.400716"/>
    </g>
   </g>
   <g id="line2d_57">
    <path d="M 333.429677 294.88 
L 333.429677 9.697057 
" style="fill:none;stroke:#000000;stroke-linecap:square;stroke-width:1.5;"/>
   </g>
   <g id="patch_3">
    <path d="M 56.12 294.88 
L 56.12 6.845228 
" style="fill:none;stroke:#000000;stroke-linecap:square;stroke-linejoin:miter;stroke-width:0.8;"/>
   </g>
   <g id="patch_4">
    <path d="M 399.984 294.88 
L 399.984 6.845228 
" style="fill:none;stroke:#000000;stroke-linecap:square;stroke-linejoin:miter;stroke-width:0.8;"/>
   </g>
   <g id="patch_5">
    <path d="M 56.12 294.88 
L 399.984 294.88 
" style="fill:none;stroke:#000000;stroke-linecap:square;stroke-linejoin:miter;stroke-width:0.8;"/>
   </g>
   <g id="patch_6">
    <path d="M 56.12 6.845228 
L 399.984 6.845228 
" style="fill:none;stroke:#000000;stroke-linecap:square;stroke-linejoin:miter;stroke-width:0.8;"/>
   </g>
   <g id="text_14">
    <!-- 40-D -->
    <defs>
     <path d="M 19.671875 64.796875 
L 19.671875 8.109375 
L 31.59375 8.109375 
Q 46.6875 8.109375 53.6875 14.9375 
Q 60.6875 21.78125 60.6875 36.53125 
Q 60.6875 51.171875 53.6875 57.984375 
Q 46.6875 64.796875 31.59375 64.796875 
z
M 9.8125 72.90625 
L 30.078125 72.90625 
Q 51.265625 72.90625 61.171875 64.09375 
Q 71.09375 55.28125 71.09375 36.53125 
Q 71.09375 17.671875 61.125 8.828125 
Q 51.171875 0 30.078125 0 
L 9.8125 0 
z
" id="DejaVuSans-44"/>
    </defs>
    <g transform="translate(369.479935 293.867279)scale(0.17 -0.17)">
     <use xlink:href="#DejaVuSans-34"/>
     <use x="63.623047" xlink:href="#DejaVuSans-30"/>
     <use x="127.246094" xlink:href="#DejaVuSans-2d"/>
     <use x="163.330078" xlink:href="#DejaVuSans-44"/>
    </g>
   </g>
   <g id="text_15">
    <!-- 20-D -->
    <g transform="translate(369.479935 239.112154)scale(0.17 -0.17)">
     <use xlink:href="#DejaVuSans-32"/>
     <use x="63.623047" xlink:href="#DejaVuSans-30"/>
     <use x="127.246094" xlink:href="#DejaVuSans-2d"/>
     <use x="163.330078" xlink:href="#DejaVuSans-44"/>
    </g>
   </g>
   <g id="text_16">
    <!-- 10-D -->
    <g transform="translate(369.479935 184.357029)scale(0.17 -0.17)">
     <use xlink:href="#DejaVuSans-31"/>
     <use x="63.623047" xlink:href="#DejaVuSans-30"/>
     <use x="127.246094" xlink:href="#DejaVuSans-2d"/>
     <use x="163.330078" xlink:href="#DejaVuSans-44"/>
    </g>
   </g>
   <g id="text_17">
    <!-- 5-D -->
    <defs>
     <path d="M 10.796875 72.90625 
L 49.515625 72.90625 
L 49.515625 64.59375 
L 19.828125 64.59375 
L 19.828125 46.734375 
Q 21.96875 47.46875 24.109375 47.828125 
Q 26.265625 48.1875 28.421875 48.1875 
Q 40.625 48.1875 47.75 41.5 
Q 54.890625 34.8125 54.890625 23.390625 
Q 54.890625 11.625 47.5625 5.09375 
Q 40.234375 -1.421875 26.90625 -1.421875 
Q 22.3125 -1.421875 17.546875 -0.640625 
Q 12.796875 0.140625 7.71875 1.703125 
L 7.71875 11.625 
Q 12.109375 9.234375 16.796875 8.0625 
Q 21.484375 6.890625 26.703125 6.890625 
Q 35.15625 6.890625 40.078125 11.328125 
Q 45.015625 15.765625 45.015625 23.390625 
Q 45.015625 31 40.078125 35.4375 
Q 35.15625 39.890625 26.703125 39.890625 
Q 22.75 39.890625 18.8125 39.015625 
Q 14.890625 38.140625 10.796875 36.28125 
z
" id="DejaVuSans-35"/>
    </defs>
    <g transform="translate(369.479935 129.601904)scale(0.17 -0.17)">
     <use xlink:href="#DejaVuSans-35"/>
     <use x="63.623047" xlink:href="#DejaVuSans-2d"/>
     <use x="99.707031" xlink:href="#DejaVuSans-44"/>
    </g>
   </g>
   <g id="text_18">
    <!-- 3-D -->
    <defs>
     <path d="M 40.578125 39.3125 
Q 47.65625 37.796875 51.625 33 
Q 55.609375 28.21875 55.609375 21.1875 
Q 55.609375 10.40625 48.1875 4.484375 
Q 40.765625 -1.421875 27.09375 -1.421875 
Q 22.515625 -1.421875 17.65625 -0.515625 
Q 12.796875 0.390625 7.625 2.203125 
L 7.625 11.71875 
Q 11.71875 9.328125 16.59375 8.109375 
Q 21.484375 6.890625 26.8125 6.890625 
Q 36.078125 6.890625 40.9375 10.546875 
Q 45.796875 14.203125 45.796875 21.1875 
Q 45.796875 27.640625 41.28125 31.265625 
Q 36.765625 34.90625 28.71875 34.90625 
L 20.21875 34.90625 
L 20.21875 43.015625 
L 29.109375 43.015625 
Q 36.375 43.015625 40.234375 45.921875 
Q 44.09375 48.828125 44.09375 54.296875 
Q 44.09375 59.90625 40.109375 62.90625 
Q 36.140625 65.921875 28.71875 65.921875 
Q 24.65625 65.921875 20.015625 65.03125 
Q 15.375 64.15625 9.8125 62.3125 
L 9.8125 71.09375 
Q 15.4375 72.65625 20.34375 73.4375 
Q 25.25 74.21875 29.59375 74.21875 
Q 40.828125 74.21875 47.359375 69.109375 
Q 53.90625 64.015625 53.90625 55.328125 
Q 53.90625 49.265625 50.4375 45.09375 
Q 46.96875 40.921875 40.578125 39.3125 
z
" id="DejaVuSans-33"/>
    </defs>
    <g transform="translate(369.479935 74.846779)scale(0.17 -0.17)">
     <use xlink:href="#DejaVuSans-33"/>
     <use x="63.623047" xlink:href="#DejaVuSans-2d"/>
     <use x="99.707031" xlink:href="#DejaVuSans-44"/>
    </g>
   </g>
   <g id="text_19">
    <!-- 2-D -->
    <g transform="translate(369.479935 20.091654)scale(0.17 -0.17)">
     <use xlink:href="#DejaVuSans-32"/>
     <use x="63.623047" xlink:href="#DejaVuSans-2d"/>
     <use x="99.707031" xlink:href="#DejaVuSans-44"/>
    </g>
   </g>
   <g id="text_20">
    <!-- bbob f6-f9 -->
    <defs>
     <path d="M 48.6875 27.296875 
Q 48.6875 37.203125 44.609375 42.84375 
Q 40.53125 48.484375 33.40625 48.484375 
Q 26.265625 48.484375 22.1875 42.84375 
Q 18.109375 37.203125 18.109375 27.296875 
Q 18.109375 17.390625 22.1875 11.75 
Q 26.265625 6.109375 33.40625 6.109375 
Q 40.53125 6.109375 44.609375 11.75 
Q 48.6875 17.390625 48.6875 27.296875 
z
M 18.109375 46.390625 
Q 20.953125 51.265625 25.265625 53.625 
Q 29.59375 56 35.59375 56 
Q 45.5625 56 51.78125 48.09375 
Q 58.015625 40.1875 58.015625 27.296875 
Q 58.015625 14.40625 51.78125 6.484375 
Q 45.5625 -1.421875 35.59375 -1.421875 
Q 29.59375 -1.421875 25.265625 0.953125 
Q 20.953125 3.328125 18.109375 8.203125 
L 18.109375 0 
L 9.078125 0 
L 9.078125 75.984375 
L 18.109375 75.984375 
z
" id="DejaVuSans-62"/>
     <path d="M 10.984375 1.515625 
L 10.984375 10.5 
Q 14.703125 8.734375 18.5 7.8125 
Q 22.3125 6.890625 25.984375 6.890625 
Q 35.75 6.890625 40.890625 13.453125 
Q 46.046875 20.015625 46.78125 33.40625 
Q 43.953125 29.203125 39.59375 26.953125 
Q 35.25 24.703125 29.984375 24.703125 
Q 19.046875 24.703125 12.671875 31.3125 
Q 6.296875 37.9375 6.296875 49.421875 
Q 6.296875 60.640625 12.9375 67.421875 
Q 19.578125 74.21875 30.609375 74.21875 
Q 43.265625 74.21875 49.921875 64.515625 
Q 56.59375 54.828125 56.59375 36.375 
Q 56.59375 19.140625 48.40625 8.859375 
Q 40.234375 -1.421875 26.421875 -1.421875 
Q 22.703125 -1.421875 18.890625 -0.6875 
Q 15.09375 0.046875 10.984375 1.515625 
z
M 30.609375 32.421875 
Q 37.25 32.421875 41.125 36.953125 
Q 45.015625 41.5 45.015625 49.421875 
Q 45.015625 57.28125 41.125 61.84375 
Q 37.25 66.40625 30.609375 66.40625 
Q 23.96875 66.40625 20.09375 61.84375 
Q 16.21875 57.28125 16.21875 49.421875 
Q 16.21875 41.5 20.09375 36.953125 
Q 23.96875 32.421875 30.609375 32.421875 
z
" id="DejaVuSans-39"/>
    </defs>
    <g transform="translate(59.55864 17.475982)scale(0.102 -0.102)">
     <use xlink:href="#DejaVuSans-62"/>
     <use x="63.476562" xlink:href="#DejaVuSans-62"/>
     <use x="126.953125" xlink:href="#DejaVuSans-6f"/>
     <use x="188.134766" xlink:href="#DejaVuSans-62"/>
     <use x="251.611328" xlink:href="#DejaVuSans-20"/>
     <use x="283.398438" xlink:href="#DejaVuSans-66"/>
     <use x="318.603516" xlink:href="#DejaVuSans-36"/>
     <use x="382.226562" xlink:href="#DejaVuSans-2d"/>
     <use x="418.310547" xlink:href="#DejaVuSans-66"/>
     <use x="453.515625" xlink:href="#DejaVuSans-39"/>
    </g>
    <!-- 51 targets: 100..1e-08 -->
    <defs>
     <path d="M 11.71875 12.40625 
L 22.015625 12.40625 
L 22.015625 0 
L 11.71875 0 
z
M 11.71875 51.703125 
L 22.015625 51.703125 
L 22.015625 39.3125 
L 11.71875 39.3125 
z
" id="DejaVuSans-3a"/>
    </defs>
    <g transform="translate(59.55864 28.89775)scale(0.102 -0.102)">
     <use xlink:href="#DejaVuSans-35"/>
     <use x="63.623047" xlink:href="#DejaVuSans-31"/>
     <use x="127.246094" xlink:href="#DejaVuSans-20"/>
     <use x="159.033203" xlink:href="#DejaVuSans-74"/>
     <use x="198.242188" xlink:href="#DejaVuSans-61"/>
     <use x="259.521484" xlink:href="#DejaVuSans-72"/>
     <use x="300.619141" xlink:href="#DejaVuSans-67"/>
     <use x="364.095703" xlink:href="#DejaVuSans-65"/>
     <use x="425.619141" xlink:href="#DejaVuSans-74"/>
     <use x="464.828125" xlink:href="#DejaVuSans-73"/>
     <use x="516.927734" xlink:href="#DejaVuSans-3a"/>
     <use x="550.619141" xlink:href="#DejaVuSans-20"/>
     <use x="582.40625" xlink:href="#DejaVuSans-31"/>
     <use x="646.029297" xlink:href="#DejaVuSans-30"/>
     <use x="709.652344" xlink:href="#DejaVuSans-30"/>
     <use x="773.275391" xlink:href="#DejaVuSans-2e"/>
     <use x="805.0625" xlink:href="#DejaVuSans-2e"/>
     <use x="836.849609" xlink:href="#DejaVuSans-31"/>
     <use x="900.472656" xlink:href="#DejaVuSans-65"/>
     <use x="961.996094" xlink:href="#DejaVuSans-2d"/>
     <use x="998.080078" xlink:href="#DejaVuSans-30"/>
     <use x="1061.703125" xlink:href="#DejaVuSans-38"/>
    </g>
    <!-- 15 instances -->
    <g transform="translate(59.55864 40.319519)scale(0.102 -0.102)">
     <use xlink:href="#DejaVuSans-31"/>
     <use x="63.623047" xlink:href="#DejaVuSans-35"/>
     <use x="127.246094" xlink:href="#DejaVuSans-20"/>
     <use x="159.033203" xlink:href="#DejaVuSans-69"/>
     <use x="186.816406" xlink:href="#DejaVuSans-6e"/>
     <use x="250.195312" xlink:href="#DejaVuSans-73"/>
     <use x="302.294922" xlink:href="#DejaVuSans-74"/>
     <use x="341.503906" xlink:href="#DejaVuSans-61"/>
     <use x="402.783203" xlink:href="#DejaVuSans-6e"/>
     <use x="466.162109" xlink:href="#DejaVuSans-63"/>
     <use x="521.142578" xlink:href="#DejaVuSans-65"/>
     <use x="582.666016" xlink:href="#DejaVuSans-73"/>
    </g>
   </g>
   <g id="text_21">
    <!-- v2.2.1.10 -->
    <g style="fill:#808080;" transform="translate(204.419188 289.919965)scale(0.1 -0.1)">
     <use xlink:href="#DejaVuSans-76"/>
     <use x="59.179688" xlink:href="#DejaVuSans-32"/>
     <use x="122.802734" xlink:href="#DejaVuSans-2e"/>
     <use x="154.589844" xlink:href="#DejaVuSans-32"/>
     <use x="218.212891" xlink:href="#DejaVuSans-2e"/>
     <use x="250" xlink:href="#DejaVuSans-31"/>
     <use x="313.623047" xlink:href="#DejaVuSans-2e"/>
     <use x="345.410156" xlink:href="#DejaVuSans-31"/>
     <use x="409.033203" xlink:href="#DejaVuSans-30"/>
    </g>
   </g>
  </g>
 </g>
 <defs>
  <clipPath id="pe7453096ef">
   <rect height="288.034772" width="343.864" x="56.12" y="6.845228"/>
  </clipPath>
 </defs>
</svg>
