<?xml version="1.0" encoding="utf-8" standalone="no"?>
<!DOCTYPE svg PUBLIC "-//W3C//DTD SVG 1.1//EN"
  "http://www.w3.org/Graphics/SVG/1.1/DTD/svg11.dtd">
<!-- Created with matplotlib (http://matplotlib.org/) -->
<svg height="345.6pt" version="1.1" viewBox="0 0 460.8 345.6" width="460.8pt" xmlns="http://www.w3.org/2000/svg" xmlns:xlink="http://www.w3.org/1999/xlink">
 <defs>
  <style type="text/css">
*{stroke-linecap:butt;stroke-linejoin:round;}
  </style>
 </defs>
 <g id="figure_1">
  <g id="patch_1">
   <path d="M 0 345.6 
L 460.8 345.6 
L 460.8 0 
L 0 0 
z
" style="fill:#ffffff;"/>
  </g>
  <g id="axes_1">
   <g id="patch_2">
    <path d="M 56.12 294.88 
L 399.984 294.88 
L 399.984 6.845228 
L 56.12 6.845228 
z
" style="fill:#ffffff;"/>
   </g>
   <g id="matplotlib.axis_1">
    <g id="xtick_1">
     <g id="line2d_1">
      <path clip-path="url(#p80c1461087)" d="M 56.12 294.88 
L 56.12 6.845228 
" style="fill:none;stroke:#b0b0b0;stroke-linecap:square;stroke-width:0.8;"/>
     </g>
     <g id="line2d_2">
      <defs>
       <path d="M 0 0 
L 0 3.5 
" id="m04519c7f29" style="stroke:#000000;stroke-width:0.8;"/>
      </defs>
      <g>
       <use style="stroke:#000000;stroke-width:0.8;" x="56.12" xlink:href="#m04519c7f29" y="294.88"/>
      </g>
     </g>
     <g id="text_1">
      <!-- 0 -->
      <defs>
       <path d="M 31.78125 66.40625 
Q 24.171875 66.40625 20.328125 58.90625 
Q 16.5 51.421875 16.5 36.375 
Q 16.5 21.390625 20.328125 13.890625 
Q 24.171875 6.390625 31.78125 6.390625 
Q 39.453125 6.390625 43.28125 13.890625 
Q 47.125 21.390625 47.125 36.375 
Q 47.125 51.421875 43.28125 58.90625 
Q 39.453125 66.40625 31.78125 66.40625 
z
M 31.78125 74.21875 
Q 44.046875 74.21875 50.515625 64.515625 
Q 56.984375 54.828125 56.984375 36.375 
Q 56.984375 17.96875 50.515625 8.265625 
Q 44.046875 -1.421875 31.78125 -1.421875 
Q 19.53125 -1.421875 13.0625 8.265625 
Q 6.59375 17.96875 6.59375 36.375 
Q 6.59375 54.828125 13.0625 64.515625 
Q 19.53125 74.21875 31.78125 74.21875 
z
" id="DejaVuSans-30"/>
      </defs>
      <g transform="translate(49.7575 317.076875)scale(0.2 -0.2)">
       <use xlink:href="#DejaVuSans-30"/>
      </g>
     </g>
    </g>
    <g id="xtick_2">
     <g id="line2d_3">
      <path clip-path="url(#p80c1461087)" d="M 135.351336 294.88 
L 135.351336 6.845228 
" style="fill:none;stroke:#b0b0b0;stroke-linecap:square;stroke-width:0.8;"/>
     </g>
     <g id="line2d_4">
      <g>
       <use style="stroke:#000000;stroke-width:0.8;" x="135.351336" xlink:href="#m04519c7f29" y="294.88"/>
      </g>
     </g>
     <g id="text_2">
      <!-- 2 -->
      <defs>
       <path d="M 19.1875 8.296875 
L 53.609375 8.296875 
L 53.609375 0 
L 7.328125 0 
L 7.328125 8.296875 
Q 12.9375 14.109375 22.625 23.890625 
Q 32.328125 33.6875 34.8125 36.53125 
Q 39.546875 41.84375 41.421875 45.53125 
Q 43.3125 49.21875 43.3125 52.78125 
Q 43.3125 58.59375 39.234375 62.25 
Q 35.15625 65.921875 28.609375 65.921875 
Q 23.96875 65.921875 18.8125 64.3125 
Q 13.671875 62.703125 7.8125 59.421875 
L 7.8125 69.390625 
Q 13.765625 71.78125 18.9375 73 
Q 24.125 74.21875 28.421875 74.21875 
Q 39.75 74.21875 46.484375 68.546875 
Q 53.21875 62.890625 53.21875 53.421875 
Q 53.21875 48.921875 51.53125 44.890625 
Q 49.859375 40.875 45.40625 35.40625 
Q 44.1875 33.984375 37.640625 27.21875 
Q 31.109375 20.453125 19.1875 8.296875 
z
" id="DejaVuSans-32"/>
      </defs>
      <g transform="translate(128.988836 317.076875)scale(0.2 -0.2)">
       <use xlink:href="#DejaVuSans-32"/>
      </g>
     </g>
    </g>
    <g id="xtick_3">
     <g id="line2d_5">
      <path clip-path="url(#p80c1461087)" d="M 214.582673 294.88 
L 214.582673 6.845228 
" style="fill:none;stroke:#b0b0b0;stroke-linecap:square;stroke-width:0.8;"/>
     </g>
     <g id="line2d_6">
      <g>
       <use style="stroke:#000000;stroke-width:0.8;" x="214.582673" xlink:href="#m04519c7f29" y="294.88"/>
      </g>
     </g>
     <g id="text_3">
      <!-- 4 -->
      <defs>
       <path d="M 37.796875 64.3125 
L 12.890625 25.390625 
L 37.796875 25.390625 
z
M 35.203125 72.90625 
L 47.609375 72.90625 
L 47.609375 25.390625 
L 58.015625 25.390625 
L 58.015625 17.1875 
L 47.609375 17.1875 
L 47.609375 0 
L 37.796875 0 
L 37.796875 17.1875 
L 4.890625 17.1875 
L 4.890625 26.703125 
z
" id="DejaVuSans-34"/>
      </defs>
      <g transform="translate(208.220173 317.076875)scale(0.2 -0.2)">
       <use xlink:href="#DejaVuSans-34"/>
      </g>
     </g>
    </g>
    <g id="xtick_4">
     <g id="line2d_7">
      <path clip-path="url(#p80c1461087)" d="M 293.814009 294.88 
L 293.814009 6.845228 
" style="fill:none;stroke:#b0b0b0;stroke-linecap:square;stroke-width:0.8;"/>
     </g>
     <g id="line2d_8">
      <g>
       <use style="stroke:#000000;stroke-width:0.8;" x="293.814009" xlink:href="#m04519c7f29" y="294.88"/>
      </g>
     </g>
     <g id="text_4">
      <!-- 6 -->
      <defs>
       <path d="M 33.015625 40.375 
Q 26.375 40.375 22.484375 35.828125 
Q 18.609375 31.296875 18.609375 23.390625 
Q 18.609375 15.53125 22.484375 10.953125 
Q 26.375 6.390625 33.015625 6.390625 
Q 39.65625 6.390625 43.53125 10.953125 
Q 47.40625 15.53125 47.40625 23.390625 
Q 47.40625 31.296875 43.53125 35.828125 
Q 39.65625 40.375 33.015625 40.375 
z
M 52.59375 71.296875 
L 52.59375 62.3125 
Q 48.875 64.0625 45.09375 64.984375 
Q 41.3125 65.921875 37.59375 65.921875 
Q 27.828125 65.921875 22.671875 59.328125 
Q 17.53125 52.734375 16.796875 39.40625 
Q 19.671875 43.65625 24.015625 45.921875 
Q 28.375 48.1875 33.59375 48.1875 
Q 44.578125 48.1875 50.953125 41.515625 
Q 57.328125 34.859375 57.328125 23.390625 
Q 57.328125 12.15625 50.6875 5.359375 
Q 44.046875 -1.421875 33.015625 -1.421875 
Q 20.359375 -1.421875 13.671875 8.265625 
Q 6.984375 17.96875 6.984375 36.375 
Q 6.984375 53.65625 15.1875 63.9375 
Q 23.390625 74.21875 37.203125 74.21875 
Q 40.921875 74.21875 44.703125 73.484375 
Q 48.484375 72.75 52.59375 71.296875 
z
" id="DejaVuSans-36"/>
      </defs>
      <g transform="translate(287.451509 317.076875)scale(0.2 -0.2)">
       <use xlink:href="#DejaVuSans-36"/>
      </g>
     </g>
    </g>
    <g id="xtick_5">
     <g id="line2d_9">
      <path clip-path="url(#p80c1461087)" d="M 373.045346 294.88 
L 373.045346 6.845228 
" style="fill:none;stroke:#b0b0b0;stroke-linecap:square;stroke-width:0.8;"/>
     </g>
     <g id="line2d_10">
      <g>
       <use style="stroke:#000000;stroke-width:0.8;" x="373.045346" xlink:href="#m04519c7f29" y="294.88"/>
      </g>
     </g>
     <g id="text_5">
      <!-- 8 -->
      <defs>
       <path d="M 31.78125 34.625 
Q 24.75 34.625 20.71875 30.859375 
Q 16.703125 27.09375 16.703125 20.515625 
Q 16.703125 13.921875 20.71875 10.15625 
Q 24.75 6.390625 31.78125 6.390625 
Q 38.8125 6.390625 42.859375 10.171875 
Q 46.921875 13.96875 46.921875 20.515625 
Q 46.921875 27.09375 42.890625 30.859375 
Q 38.875 34.625 31.78125 34.625 
z
M 21.921875 38.8125 
Q 15.578125 40.375 12.03125 44.71875 
Q 8.5 49.078125 8.5 55.328125 
Q 8.5 64.0625 14.71875 69.140625 
Q 20.953125 74.21875 31.78125 74.21875 
Q 42.671875 74.21875 48.875 69.140625 
Q 55.078125 64.0625 55.078125 55.328125 
Q 55.078125 49.078125 51.53125 44.71875 
Q 48 40.375 41.703125 38.8125 
Q 48.828125 37.15625 52.796875 32.3125 
Q 56.78125 27.484375 56.78125 20.515625 
Q 56.78125 9.90625 50.3125 4.234375 
Q 43.84375 -1.421875 31.78125 -1.421875 
Q 19.734375 -1.421875 13.25 4.234375 
Q 6.78125 9.90625 6.78125 20.515625 
Q 6.78125 27.484375 10.78125 32.3125 
Q 14.796875 37.15625 21.921875 38.8125 
z
M 18.3125 54.390625 
Q 18.3125 48.734375 21.84375 45.5625 
Q 25.390625 42.390625 31.78125 42.390625 
Q 38.140625 42.390625 41.71875 45.5625 
Q 45.3125 48.734375 45.3125 54.390625 
Q 45.3125 60.0625 41.71875 63.234375 
Q 38.140625 66.40625 31.78125 66.40625 
Q 25.390625 66.40625 21.84375 63.234375 
Q 18.3125 60.0625 18.3125 54.390625 
z
" id="DejaVuSans-38"/>
      </defs>
      <g transform="translate(366.682846 317.076875)scale(0.2 -0.2)">
       <use xlink:href="#DejaVuSans-38"/>
      </g>
     </g>
    </g>
    <g id="text_6">
     <!-- log10(# f-evals / dimension) -->
     <defs>
      <path d="M 9.421875 75.984375 
L 18.40625 75.984375 
L 18.40625 0 
L 9.421875 0 
z
" id="DejaVuSans-6c"/>
      <path d="M 30.609375 48.390625 
Q 23.390625 48.390625 19.1875 42.75 
Q 14.984375 37.109375 14.984375 27.296875 
Q 14.984375 17.484375 19.15625 11.84375 
Q 23.34375 6.203125 30.609375 6.203125 
Q 37.796875 6.203125 41.984375 11.859375 
Q 46.1875 17.53125 46.1875 27.296875 
Q 46.1875 37.015625 41.984375 42.703125 
Q 37.796875 48.390625 30.609375 48.390625 
z
M 30.609375 56 
Q 42.328125 56 49.015625 48.375 
Q 55.71875 40.765625 55.71875 27.296875 
Q 55.71875 13.875 49.015625 6.21875 
Q 42.328125 -1.421875 30.609375 -1.421875 
Q 18.84375 -1.421875 12.171875 6.21875 
Q 5.515625 13.875 5.515625 27.296875 
Q 5.515625 40.765625 12.171875 48.375 
Q 18.84375 56 30.609375 56 
z
" id="DejaVuSans-6f"/>
      <path d="M 45.40625 27.984375 
Q 45.40625 37.75 41.375 43.109375 
Q 37.359375 48.484375 30.078125 48.484375 
Q 22.859375 48.484375 18.828125 43.109375 
Q 14.796875 37.75 14.796875 27.984375 
Q 14.796875 18.265625 18.828125 12.890625 
Q 22.859375 7.515625 30.078125 7.515625 
Q 37.359375 7.515625 41.375 12.890625 
Q 45.40625 18.265625 45.40625 27.984375 
z
M 54.390625 6.78125 
Q 54.390625 -7.171875 48.1875 -13.984375 
Q 42 -20.796875 29.203125 -20.796875 
Q 24.46875 -20.796875 20.265625 -20.09375 
Q 16.0625 -19.390625 12.109375 -17.921875 
L 12.109375 -9.1875 
Q 16.0625 -11.328125 19.921875 -12.34375 
Q 23.78125 -13.375 27.78125 -13.375 
Q 36.625 -13.375 41.015625 -8.765625 
Q 45.40625 -4.15625 45.40625 5.171875 
L 45.40625 9.625 
Q 42.625 4.78125 38.28125 2.390625 
Q 33.9375 0 27.875 0 
Q 17.828125 0 11.671875 7.65625 
Q 5.515625 15.328125 5.515625 27.984375 
Q 5.515625 40.671875 11.671875 48.328125 
Q 17.828125 56 27.875 56 
Q 33.9375 56 38.28125 53.609375 
Q 42.625 51.21875 45.40625 46.390625 
L 45.40625 54.6875 
L 54.390625 54.6875 
z
" id="DejaVuSans-67"/>
      <path d="M 12.40625 8.296875 
L 28.515625 8.296875 
L 28.515625 63.921875 
L 10.984375 60.40625 
L 10.984375 69.390625 
L 28.421875 72.90625 
L 38.28125 72.90625 
L 38.28125 8.296875 
L 54.390625 8.296875 
L 54.390625 0 
L 12.40625 0 
z
" id="DejaVuSans-31"/>
      <path d="M 31 75.875 
Q 24.46875 64.65625 21.28125 53.65625 
Q 18.109375 42.671875 18.109375 31.390625 
Q 18.109375 20.125 21.3125 9.0625 
Q 24.515625 -2 31 -13.1875 
L 23.1875 -13.1875 
Q 15.875 -1.703125 12.234375 9.375 
Q 8.59375 20.453125 8.59375 31.390625 
Q 8.59375 42.28125 12.203125 53.3125 
Q 15.828125 64.359375 23.1875 75.875 
z
" id="DejaVuSans-28"/>
      <path d="M 51.125 44 
L 36.921875 44 
L 32.8125 27.6875 
L 47.125 27.6875 
z
M 43.796875 71.78125 
L 38.71875 51.515625 
L 52.984375 51.515625 
L 58.109375 71.78125 
L 65.921875 71.78125 
L 60.890625 51.515625 
L 76.125 51.515625 
L 76.125 44 
L 58.984375 44 
L 54.984375 27.6875 
L 70.515625 27.6875 
L 70.515625 20.21875 
L 53.078125 20.21875 
L 48 0 
L 40.1875 0 
L 45.21875 20.21875 
L 30.90625 20.21875 
L 25.875 0 
L 18.015625 0 
L 23.09375 20.21875 
L 7.71875 20.21875 
L 7.71875 27.6875 
L 24.90625 27.6875 
L 29 44 
L 13.28125 44 
L 13.28125 51.515625 
L 30.90625 51.515625 
L 35.890625 71.78125 
z
" id="DejaVuSans-23"/>
      <path id="DejaVuSans-20"/>
      <path d="M 37.109375 75.984375 
L 37.109375 68.5 
L 28.515625 68.5 
Q 23.6875 68.5 21.796875 66.546875 
Q 19.921875 64.59375 19.921875 59.515625 
L 19.921875 54.6875 
L 34.71875 54.6875 
L 34.71875 47.703125 
L 19.921875 47.703125 
L 19.921875 0 
L 10.890625 0 
L 10.890625 47.703125 
L 2.296875 47.703125 
L 2.296875 54.6875 
L 10.890625 54.6875 
L 10.890625 58.5 
Q 10.890625 67.625 15.140625 71.796875 
Q 19.390625 75.984375 28.609375 75.984375 
z
" id="DejaVuSans-66"/>
      <path d="M 4.890625 31.390625 
L 31.203125 31.390625 
L 31.203125 23.390625 
L 4.890625 23.390625 
z
" id="DejaVuSans-2d"/>
      <path d="M 56.203125 29.59375 
L 56.203125 25.203125 
L 14.890625 25.203125 
Q 15.484375 15.921875 20.484375 11.0625 
Q 25.484375 6.203125 34.421875 6.203125 
Q 39.59375 6.203125 44.453125 7.46875 
Q 49.3125 8.734375 54.109375 11.28125 
L 54.109375 2.78125 
Q 49.265625 0.734375 44.1875 -0.34375 
Q 39.109375 -1.421875 33.890625 -1.421875 
Q 20.796875 -1.421875 13.15625 6.1875 
Q 5.515625 13.8125 5.515625 26.8125 
Q 5.515625 40.234375 12.765625 48.109375 
Q 20.015625 56 32.328125 56 
Q 43.359375 56 49.78125 48.890625 
Q 56.203125 41.796875 56.203125 29.59375 
z
M 47.21875 32.234375 
Q 47.125 39.59375 43.09375 43.984375 
Q 39.0625 48.390625 32.421875 48.390625 
Q 24.90625 48.390625 20.390625 44.140625 
Q 15.875 39.890625 15.1875 32.171875 
z
" id="DejaVuSans-65"/>
      <path d="M 2.984375 54.6875 
L 12.5 54.6875 
L 29.59375 8.796875 
L 46.6875 54.6875 
L 56.203125 54.6875 
L 35.6875 0 
L 23.484375 0 
z
" id="DejaVuSans-76"/>
      <path d="M 34.28125 27.484375 
Q 23.390625 27.484375 19.1875 25 
Q 14.984375 22.515625 14.984375 16.5 
Q 14.984375 11.71875 18.140625 8.90625 
Q 21.296875 6.109375 26.703125 6.109375 
Q 34.1875 6.109375 38.703125 11.40625 
Q 43.21875 16.703125 43.21875 25.484375 
L 43.21875 27.484375 
z
M 52.203125 31.203125 
L 52.203125 0 
L 43.21875 0 
L 43.21875 8.296875 
Q 40.140625 3.328125 35.546875 0.953125 
Q 30.953125 -1.421875 24.3125 -1.421875 
Q 15.921875 -1.421875 10.953125 3.296875 
Q 6 8.015625 6 15.921875 
Q 6 25.140625 12.171875 29.828125 
Q 18.359375 34.515625 30.609375 34.515625 
L 43.21875 34.515625 
L 43.21875 35.40625 
Q 43.21875 41.609375 39.140625 45 
Q 35.0625 48.390625 27.6875 48.390625 
Q 23 48.390625 18.546875 47.265625 
Q 14.109375 46.140625 10.015625 43.890625 
L 10.015625 52.203125 
Q 14.9375 54.109375 19.578125 55.046875 
Q 24.21875 56 28.609375 56 
Q 40.484375 56 46.34375 49.84375 
Q 52.203125 43.703125 52.203125 31.203125 
z
" id="DejaVuSans-61"/>
      <path d="M 44.28125 53.078125 
L 44.28125 44.578125 
Q 40.484375 46.53125 36.375 47.5 
Q 32.28125 48.484375 27.875 48.484375 
Q 21.1875 48.484375 17.84375 46.4375 
Q 14.5 44.390625 14.5 40.28125 
Q 14.5 37.15625 16.890625 35.375 
Q 19.28125 33.59375 26.515625 31.984375 
L 29.59375 31.296875 
Q 39.15625 29.25 43.1875 25.515625 
Q 47.21875 21.78125 47.21875 15.09375 
Q 47.21875 7.46875 41.1875 3.015625 
Q 35.15625 -1.421875 24.609375 -1.421875 
Q 20.21875 -1.421875 15.453125 -0.5625 
Q 10.6875 0.296875 5.421875 2 
L 5.421875 11.28125 
Q 10.40625 8.6875 15.234375 7.390625 
Q 20.0625 6.109375 24.8125 6.109375 
Q 31.15625 6.109375 34.5625 8.28125 
Q 37.984375 10.453125 37.984375 14.40625 
Q 37.984375 18.0625 35.515625 20.015625 
Q 33.0625 21.96875 24.703125 23.78125 
L 21.578125 24.515625 
Q 13.234375 26.265625 9.515625 29.90625 
Q 5.8125 33.546875 5.8125 39.890625 
Q 5.8125 47.609375 11.28125 51.796875 
Q 16.75 56 26.8125 56 
Q 31.78125 56 36.171875 55.265625 
Q 40.578125 54.546875 44.28125 53.078125 
z
" id="DejaVuSans-73"/>
      <path d="M 25.390625 72.90625 
L 33.6875 72.90625 
L 8.296875 -9.28125 
L 0 -9.28125 
z
" id="DejaVuSans-2f"/>
      <path d="M 45.40625 46.390625 
L 45.40625 75.984375 
L 54.390625 75.984375 
L 54.390625 0 
L 45.40625 0 
L 45.40625 8.203125 
Q 42.578125 3.328125 38.25 0.953125 
Q 33.9375 -1.421875 27.875 -1.421875 
Q 17.96875 -1.421875 11.734375 6.484375 
Q 5.515625 14.40625 5.515625 27.296875 
Q 5.515625 40.1875 11.734375 48.09375 
Q 17.96875 56 27.875 56 
Q 33.9375 56 38.25 53.625 
Q 42.578125 51.265625 45.40625 46.390625 
z
M 14.796875 27.296875 
Q 14.796875 17.390625 18.875 11.75 
Q 22.953125 6.109375 30.078125 6.109375 
Q 37.203125 6.109375 41.296875 11.75 
Q 45.40625 17.390625 45.40625 27.296875 
Q 45.40625 37.203125 41.296875 42.84375 
Q 37.203125 48.484375 30.078125 48.484375 
Q 22.953125 48.484375 18.875 42.84375 
Q 14.796875 37.203125 14.796875 27.296875 
z
" id="DejaVuSans-64"/>
      <path d="M 9.421875 54.6875 
L 18.40625 54.6875 
L 18.40625 0 
L 9.421875 0 
z
M 9.421875 75.984375 
L 18.40625 75.984375 
L 18.40625 64.59375 
L 9.421875 64.59375 
z
" id="DejaVuSans-69"/>
      <path d="M 52 44.1875 
Q 55.375 50.25 60.0625 53.125 
Q 64.75 56 71.09375 56 
Q 79.640625 56 84.28125 50.015625 
Q 88.921875 44.046875 88.921875 33.015625 
L 88.921875 0 
L 79.890625 0 
L 79.890625 32.71875 
Q 79.890625 40.578125 77.09375 44.375 
Q 74.3125 48.1875 68.609375 48.1875 
Q 61.625 48.1875 57.5625 43.546875 
Q 53.515625 38.921875 53.515625 30.90625 
L 53.515625 0 
L 44.484375 0 
L 44.484375 32.71875 
Q 44.484375 40.625 41.703125 44.40625 
Q 38.921875 48.1875 33.109375 48.1875 
Q 26.21875 48.1875 22.15625 43.53125 
Q 18.109375 38.875 18.109375 30.90625 
L 18.109375 0 
L 9.078125 0 
L 9.078125 54.6875 
L 18.109375 54.6875 
L 18.109375 46.1875 
Q 21.1875 51.21875 25.484375 53.609375 
Q 29.78125 56 35.6875 56 
Q 41.65625 56 45.828125 52.96875 
Q 50 49.953125 52 44.1875 
z
" id="DejaVuSans-6d"/>
      <path d="M 54.890625 33.015625 
L 54.890625 0 
L 45.90625 0 
L 45.90625 32.71875 
Q 45.90625 40.484375 42.875 44.328125 
Q 39.84375 48.1875 33.796875 48.1875 
Q 26.515625 48.1875 22.3125 43.546875 
Q 18.109375 38.921875 18.109375 30.90625 
L 18.109375 0 
L 9.078125 0 
L 9.078125 54.6875 
L 18.109375 54.6875 
L 18.109375 46.1875 
Q 21.34375 51.125 25.703125 53.5625 
Q 30.078125 56 35.796875 56 
Q 45.21875 56 50.046875 50.171875 
Q 54.890625 44.34375 54.890625 33.015625 
z
" id="DejaVuSans-6e"/>
      <path d="M 8.015625 75.875 
L 15.828125 75.875 
Q 23.140625 64.359375 26.78125 53.3125 
Q 30.421875 42.28125 30.421875 31.390625 
Q 30.421875 20.453125 26.78125 9.375 
Q 23.140625 -1.703125 15.828125 -13.1875 
L 8.015625 -13.1875 
Q 14.5 -2 17.703125 9.0625 
Q 20.90625 20.125 20.90625 31.390625 
Q 20.90625 42.671875 17.703125 53.65625 
Q 14.5 64.65625 8.015625 75.875 
z
" id="DejaVuSans-29"/>
     </defs>
     <g transform="translate(107.211219 338.153594)scale(0.17 -0.17)">
      <use xlink:href="#DejaVuSans-6c"/>
      <use x="27.783203" xlink:href="#DejaVuSans-6f"/>
      <use x="88.964844" xlink:href="#DejaVuSans-67"/>
      <use x="152.441406" xlink:href="#DejaVuSans-31"/>
      <use x="216.064453" xlink:href="#DejaVuSans-30"/>
      <use x="279.6875" xlink:href="#DejaVuSans-28"/>
      <use x="318.701172" xlink:href="#DejaVuSans-23"/>
      <use x="402.490234" xlink:href="#DejaVuSans-20"/>
      <use x="434.277344" xlink:href="#DejaVuSans-66"/>
      <use x="469.404297" xlink:href="#DejaVuSans-2d"/>
      <use x="505.488281" xlink:href="#DejaVuSans-65"/>
      <use x="567.011719" xlink:href="#DejaVuSans-76"/>
      <use x="626.191406" xlink:href="#DejaVuSans-61"/>
      <use x="687.470703" xlink:href="#DejaVuSans-6c"/>
      <use x="715.253906" xlink:href="#DejaVuSans-73"/>
      <use x="767.353516" xlink:href="#DejaVuSans-20"/>
      <use x="799.140625" xlink:href="#DejaVuSans-2f"/>
      <use x="832.832031" xlink:href="#DejaVuSans-20"/>
      <use x="864.619141" xlink:href="#DejaVuSans-64"/>
      <use x="928.095703" xlink:href="#DejaVuSans-69"/>
      <use x="955.878906" xlink:href="#DejaVuSans-6d"/>
      <use x="1053.291016" xlink:href="#DejaVuSans-65"/>
      <use x="1114.814453" xlink:href="#DejaVuSans-6e"/>
      <use x="1178.193359" xlink:href="#DejaVuSans-73"/>
      <use x="1230.292969" xlink:href="#DejaVuSans-69"/>
      <use x="1258.076172" xlink:href="#DejaVuSans-6f"/>
      <use x="1319.257812" xlink:href="#DejaVuSans-6e"/>
      <use x="1382.636719" xlink:href="#DejaVuSans-29"/>
     </g>
    </g>
   </g>
   <g id="matplotlib.axis_2">
    <g id="ytick_1">
     <g id="line2d_11">
      <path clip-path="url(#p80c1461087)" d="M 56.12 294.88 
L 399.984 294.88 
" style="fill:none;stroke:#b0b0b0;stroke-linecap:square;stroke-width:0.8;"/>
     </g>
     <g id="line2d_12">
      <defs>
       <path d="M 0 0 
L -3.5 0 
" id="m1f291c5bc6" style="stroke:#000000;stroke-width:0.8;"/>
      </defs>
      <g>
       <use style="stroke:#000000;stroke-width:0.8;" x="56.12" xlink:href="#m1f291c5bc6" y="294.88"/>
      </g>
     </g>
     <g id="text_7">
      <!-- 0.0 -->
      <defs>
       <path d="M 10.6875 12.40625 
L 21 12.40625 
L 21 0 
L 10.6875 0 
z
" id="DejaVuSans-2e"/>
      </defs>
      <g transform="translate(23.675 300.95875)scale(0.16 -0.16)">
       <use xlink:href="#DejaVuSans-30"/>
       <use x="63.623047" xlink:href="#DejaVuSans-2e"/>
       <use x="95.410156" xlink:href="#DejaVuSans-30"/>
      </g>
     </g>
    </g>
    <g id="ytick_2">
     <g id="line2d_13">
      <path clip-path="url(#p80c1461087)" d="M 56.12 237.843411 
L 399.984 237.843411 
" style="fill:none;stroke:#b0b0b0;stroke-linecap:square;stroke-width:0.8;"/>
     </g>
     <g id="line2d_14">
      <g>
       <use style="stroke:#000000;stroke-width:0.8;" x="56.12" xlink:href="#m1f291c5bc6" y="237.843411"/>
      </g>
     </g>
     <g id="text_8">
      <!-- 0.2 -->
      <g transform="translate(23.675 243.922161)scale(0.16 -0.16)">
       <use xlink:href="#DejaVuSans-30"/>
       <use x="63.623047" xlink:href="#DejaVuSans-2e"/>
       <use x="95.410156" xlink:href="#DejaVuSans-32"/>
      </g>
     </g>
    </g>
    <g id="ytick_3">
     <g id="line2d_15">
      <path clip-path="url(#p80c1461087)" d="M 56.12 180.806823 
L 399.984 180.806823 
" style="fill:none;stroke:#b0b0b0;stroke-linecap:square;stroke-width:0.8;"/>
     </g>
     <g id="line2d_16">
      <g>
       <use style="stroke:#000000;stroke-width:0.8;" x="56.12" xlink:href="#m1f291c5bc6" y="180.806823"/>
      </g>
     </g>
     <g id="text_9">
      <!-- 0.4 -->
      <g transform="translate(23.675 186.885573)scale(0.16 -0.16)">
       <use xlink:href="#DejaVuSans-30"/>
       <use x="63.623047" xlink:href="#DejaVuSans-2e"/>
       <use x="95.410156" xlink:href="#DejaVuSans-34"/>
      </g>
     </g>
    </g>
    <g id="ytick_4">
     <g id="line2d_17">
      <path clip-path="url(#p80c1461087)" d="M 56.12 123.770234 
L 399.984 123.770234 
" style="fill:none;stroke:#b0b0b0;stroke-linecap:square;stroke-width:0.8;"/>
     </g>
     <g id="line2d_18">
      <g>
       <use style="stroke:#000000;stroke-width:0.8;" x="56.12" xlink:href="#m1f291c5bc6" y="123.770234"/>
      </g>
     </g>
     <g id="text_10">
      <!-- 0.6 -->
      <g transform="translate(23.675 129.848984)scale(0.16 -0.16)">
       <use xlink:href="#DejaVuSans-30"/>
       <use x="63.623047" xlink:href="#DejaVuSans-2e"/>
       <use x="95.410156" xlink:href="#DejaVuSans-36"/>
      </g>
     </g>
    </g>
    <g id="ytick_5">
     <g id="line2d_19">
      <path clip-path="url(#p80c1461087)" d="M 56.12 66.733646 
L 399.984 66.733646 
" style="fill:none;stroke:#b0b0b0;stroke-linecap:square;stroke-width:0.8;"/>
     </g>
     <g id="line2d_20">
      <g>
       <use style="stroke:#000000;stroke-width:0.8;" x="56.12" xlink:href="#m1f291c5bc6" y="66.733646"/>
      </g>
     </g>
     <g id="text_11">
      <!-- 0.8 -->
      <g transform="translate(23.675 72.812396)scale(0.16 -0.16)">
       <use xlink:href="#DejaVuSans-30"/>
       <use x="63.623047" xlink:href="#DejaVuSans-2e"/>
       <use x="95.410156" xlink:href="#DejaVuSans-38"/>
      </g>
     </g>
    </g>
    <g id="ytick_6">
     <g id="line2d_21">
      <path clip-path="url(#p80c1461087)" d="M 56.12 9.697057 
L 399.984 9.697057 
" style="fill:none;stroke:#b0b0b0;stroke-linecap:square;stroke-width:0.8;"/>
     </g>
     <g id="line2d_22">
      <g>
       <use style="stroke:#000000;stroke-width:0.8;" x="56.12" xlink:href="#m1f291c5bc6" y="9.697057"/>
      </g>
     </g>
     <g id="text_12">
      <!-- 1.0 -->
      <g transform="translate(23.675 15.775807)scale(0.16 -0.16)">
       <use xlink:href="#DejaVuSans-31"/>
       <use x="63.623047" xlink:href="#DejaVuSans-2e"/>
       <use x="95.410156" xlink:href="#DejaVuSans-30"/>
      </g>
     </g>
    </g>
    <g id="text_13">
     <!-- Fraction of function,target pairs -->
     <defs>
      <path d="M 9.8125 72.90625 
L 51.703125 72.90625 
L 51.703125 64.59375 
L 19.671875 64.59375 
L 19.671875 43.109375 
L 48.578125 43.109375 
L 48.578125 34.8125 
L 19.671875 34.8125 
L 19.671875 0 
L 9.8125 0 
z
" id="DejaVuSans-46"/>
      <path d="M 41.109375 46.296875 
Q 39.59375 47.171875 37.8125 47.578125 
Q 36.03125 48 33.890625 48 
Q 26.265625 48 22.1875 43.046875 
Q 18.109375 38.09375 18.109375 28.8125 
L 18.109375 0 
L 9.078125 0 
L 9.078125 54.6875 
L 18.109375 54.6875 
L 18.109375 46.1875 
Q 20.953125 51.171875 25.484375 53.578125 
Q 30.03125 56 36.53125 56 
Q 37.453125 56 38.578125 55.875 
Q 39.703125 55.765625 41.0625 55.515625 
z
" id="DejaVuSans-72"/>
      <path d="M 48.78125 52.59375 
L 48.78125 44.1875 
Q 44.96875 46.296875 41.140625 47.34375 
Q 37.3125 48.390625 33.40625 48.390625 
Q 24.65625 48.390625 19.8125 42.84375 
Q 14.984375 37.3125 14.984375 27.296875 
Q 14.984375 17.28125 19.8125 11.734375 
Q 24.65625 6.203125 33.40625 6.203125 
Q 37.3125 6.203125 41.140625 7.25 
Q 44.96875 8.296875 48.78125 10.40625 
L 48.78125 2.09375 
Q 45.015625 0.34375 40.984375 -0.53125 
Q 36.96875 -1.421875 32.421875 -1.421875 
Q 20.0625 -1.421875 12.78125 6.34375 
Q 5.515625 14.109375 5.515625 27.296875 
Q 5.515625 40.671875 12.859375 48.328125 
Q 20.21875 56 33.015625 56 
Q 37.15625 56 41.109375 55.140625 
Q 45.0625 54.296875 48.78125 52.59375 
z
" id="DejaVuSans-63"/>
      <path d="M 18.3125 70.21875 
L 18.3125 54.6875 
L 36.8125 54.6875 
L 36.8125 47.703125 
L 18.3125 47.703125 
L 18.3125 18.015625 
Q 18.3125 11.328125 20.140625 9.421875 
Q 21.96875 7.515625 27.59375 7.515625 
L 36.8125 7.515625 
L 36.8125 0 
L 27.59375 0 
Q 17.1875 0 13.234375 3.875 
Q 9.28125 7.765625 9.28125 18.015625 
L 9.28125 47.703125 
L 2.6875 47.703125 
L 2.6875 54.6875 
L 9.28125 54.6875 
L 9.28125 70.21875 
z
" id="DejaVuSans-74"/>
      <path d="M 8.5 21.578125 
L 8.5 54.6875 
L 17.484375 54.6875 
L 17.484375 21.921875 
Q 17.484375 14.15625 20.5 10.265625 
Q 23.53125 6.390625 29.59375 6.390625 
Q 36.859375 6.390625 41.078125 11.03125 
Q 45.3125 15.671875 45.3125 23.6875 
L 45.3125 54.6875 
L 54.296875 54.6875 
L 54.296875 0 
L 45.3125 0 
L 45.3125 8.40625 
Q 42.046875 3.421875 37.71875 1 
Q 33.40625 -1.421875 27.6875 -1.421875 
Q 18.265625 -1.421875 13.375 4.4375 
Q 8.5 10.296875 8.5 21.578125 
z
M 31.109375 56 
z
" id="DejaVuSans-75"/>
      <path d="M 11.71875 12.40625 
L 22.015625 12.40625 
L 22.015625 4 
L 14.015625 -11.625 
L 7.71875 -11.625 
L 11.71875 4 
z
" id="DejaVuSans-2c"/>
      <path d="M 18.109375 8.203125 
L 18.109375 -20.796875 
L 9.078125 -20.796875 
L 9.078125 54.6875 
L 18.109375 54.6875 
L 18.109375 46.390625 
Q 20.953125 51.265625 25.265625 53.625 
Q 29.59375 56 35.59375 56 
Q 45.5625 56 51.78125 48.09375 
Q 58.015625 40.1875 58.015625 27.296875 
Q 58.015625 14.40625 51.78125 6.484375 
Q 45.5625 -1.421875 35.59375 -1.421875 
Q 29.59375 -1.421875 25.265625 0.953125 
Q 20.953125 3.328125 18.109375 8.203125 
z
M 48.6875 27.296875 
Q 48.6875 37.203125 44.609375 42.84375 
Q 40.53125 48.484375 33.40625 48.484375 
Q 26.265625 48.484375 22.1875 42.84375 
Q 18.109375 37.203125 18.109375 27.296875 
Q 18.109375 17.390625 22.1875 11.75 
Q 26.265625 6.109375 33.40625 6.109375 
Q 40.53125 6.109375 44.609375 11.75 
Q 48.6875 17.390625 48.6875 27.296875 
z
" id="DejaVuSans-70"/>
     </defs>
     <g transform="translate(16.139531 286.001989)rotate(-90)scale(0.17 -0.17)">
      <use xlink:href="#DejaVuSans-46"/>
      <use x="57.410156" xlink:href="#DejaVuSans-72"/>
      <use x="98.523438" xlink:href="#DejaVuSans-61"/>
      <use x="159.802734" xlink:href="#DejaVuSans-63"/>
      <use x="214.783203" xlink:href="#DejaVuSans-74"/>
      <use x="253.992188" xlink:href="#DejaVuSans-69"/>
      <use x="281.775391" xlink:href="#DejaVuSans-6f"/>
      <use x="342.957031" xlink:href="#DejaVuSans-6e"/>
      <use x="406.335938" xlink:href="#DejaVuSans-20"/>
      <use x="438.123047" xlink:href="#DejaVuSans-6f"/>
      <use x="499.304688" xlink:href="#DejaVuSans-66"/>
      <use x="534.509766" xlink:href="#DejaVuSans-20"/>
      <use x="566.296875" xlink:href="#DejaVuSans-66"/>
      <use x="601.501953" xlink:href="#DejaVuSans-75"/>
      <use x="664.880859" xlink:href="#DejaVuSans-6e"/>
      <use x="728.259766" xlink:href="#DejaVuSans-63"/>
      <use x="783.240234" xlink:href="#DejaVuSans-74"/>
      <use x="822.449219" xlink:href="#DejaVuSans-69"/>
      <use x="850.232422" xlink:href="#DejaVuSans-6f"/>
      <use x="911.414062" xlink:href="#DejaVuSans-6e"/>
      <use x="974.792969" xlink:href="#DejaVuSans-2c"/>
      <use x="1006.580078" xlink:href="#DejaVuSans-74"/>
      <use x="1045.789062" xlink:href="#DejaVuSans-61"/>
      <use x="1107.068359" xlink:href="#DejaVuSans-72"/>
      <use x="1148.166016" xlink:href="#DejaVuSans-67"/>
      <use x="1211.642578" xlink:href="#DejaVuSans-65"/>
      <use x="1273.166016" xlink:href="#DejaVuSans-74"/>
      <use x="1312.375" xlink:href="#DejaVuSans-20"/>
      <use x="1344.162109" xlink:href="#DejaVuSans-70"/>
      <use x="1407.638672" xlink:href="#DejaVuSans-61"/>
      <use x="1468.917969" xlink:href="#DejaVuSans-69"/>
      <use x="1496.701172" xlink:href="#DejaVuSans-72"/>
      <use x="1537.814453" xlink:href="#DejaVuSans-73"/>
     </g>
    </g>
   </g>
   <g id="line2d_23">
    <defs>
     <path d="M 0 1.5 
C 0.397805 1.5 0.77937 1.341951 1.06066 1.06066 
C 1.341951 0.77937 1.5 0.397805 1.5 0 
C 1.5 -0.397805 1.341951 -0.77937 1.06066 -1.06066 
C 0.77937 -1.341951 0.397805 -1.5 0 -1.5 
C -0.397805 -1.5 -0.77937 -1.341951 -1.06066 -1.06066 
C -1.341951 -0.77937 -1.5 -0.397805 -1.5 0 
C -1.5 0.397805 -1.341951 0.77937 -1.06066 1.06066 
C -0.77937 1.341951 -0.397805 1.5 0 1.5 
z
" id="m88758f6a8c" style="stroke:#000080;"/>
    </defs>
    <g>
     <use style="fill:#000080;stroke:#000080;" x="275.766062" xlink:href="#m88758f6a8c" y="211.002664"/>
     <use style="fill:#000080;stroke:#000080;" x="275.766062" xlink:href="#m88758f6a8c" y="211.002664"/>
    </g>
   </g>
   <g id="line2d_24">
    <path d="M 114.637146 294.88 
L 114.637146 293.761636 
L 126.273486 293.761636 
L 126.273486 293.202453 
L 128.716065 293.202453 
L 128.716065 292.643271 
L 132.145561 292.643271 
L 132.145561 290.965724 
L 134.468842 290.965724 
L 134.468842 289.84736 
L 136.834012 289.84736 
L 136.834012 289.288178 
L 137.301141 289.288178 
L 137.301141 288.728995 
L 137.60566 288.728995 
L 137.60566 287.610631 
L 138.772539 287.610631 
L 138.772539 285.933084 
L 139.598531 285.933084 
L 139.598531 285.373902 
L 139.865278 285.373902 
L 139.865278 284.81472 
L 140.514596 284.81472 
L 140.514596 284.255537 
L 141.262751 284.255537 
L 141.262751 283.137173 
L 143.002096 283.137173 
L 143.002096 281.459626 
L 143.651414 281.459626 
L 143.75729 278.104533 
L 144.277114 278.104533 
L 144.37922 274.749439 
L 144.581633 274.749439 
L 144.681953 272.51271 
L 147.532997 272.51271 
L 147.532997 270.835164 
L 148.034145 270.835164 
L 148.034145 269.157617 
L 148.27935 269.157617 
L 148.27935 268.039252 
L 148.440899 268.039252 
L 148.521108 266.920888 
L 148.91664 266.920888 
L 148.91664 265.243341 
L 149.904387 265.243341 
L 149.904387 264.684159 
L 150.124495 264.684159 
L 150.124495 263.006612 
L 152.693117 263.006612 
L 152.693117 261.888248 
L 203.872603 261.888248 
L 203.962146 256.855608 
L 204.108247 256.855608 
L 204.174535 254.618879 
L 204.293839 254.618879 
L 204.293839 254.059696 
L 215.614373 254.059696 
L 215.724205 246.231145 
L 222.500452 246.231145 
L 222.573053 241.198505 
L 222.614094 241.198505 
L 222.614094 240.08014 
L 227.404043 240.08014 
L 227.458668 235.0475 
L 231.215575 235.0475 
L 231.259359 231.692407 
L 234.333953 231.692407 
L 234.370486 228.337313 
L 236.968696 228.337313 
L 237.022006 226.659767 
L 239.303397 226.659767 
L 239.303397 226.100584 
L 241.303556 226.100584 
L 241.303556 225.541402 
L 243.099807 225.541402 
L 243.107676 224.423038 
L 244.720455 224.423038 
L 244.740441 221.627126 
L 246.225034 221.627126 
L 246.225034 221.067944 
L 247.586836 221.067944 
L 247.586836 220.508762 
L 248.874519 220.508762 
L 248.874519 219.94958 
L 250.052589 219.94958 
L 250.052589 219.390397 
L 251.160065 219.390397 
L 251.164991 218.272033 
L 252.200543 218.272033 
L 252.200543 217.153669 
L 253.17382 217.153669 
L 253.17382 216.035304 
L 254.990514 216.035304 
L 254.990514 215.476122 
L 255.821553 215.476122 
L 255.821553 214.91694 
L 257.390555 214.91694 
L 257.390555 214.357757 
L 258.121525 214.357757 
L 258.121525 213.798575 
L 258.822701 213.798575 
L 258.822701 213.239393 
L 259.496416 213.239393 
L 259.496416 212.680211 
L 263.059376 212.680211 
L 263.059376 212.121028 
L 273.579786 212.121028 
L 273.579786 211.561846 
L 275.766062 211.561846 
L 275.766062 211.002664 
L 333.429677 211.002664 
L 333.429677 211.002664 
" style="fill:none;stroke:#000080;stroke-linecap:square;stroke-width:1.5;"/>
   </g>
   <g id="line2d_25">
    <defs>
     <path d="M 0 6 
C 1.591219 6 3.117479 5.367802 4.242641 4.242641 
C 5.367802 3.117479 6 1.591219 6 0 
C 6 -1.591219 5.367802 -3.117479 4.242641 -4.242641 
C 3.117479 -5.367802 1.591219 -6 0 -6 
C -1.591219 -6 -3.117479 -5.367802 -4.242641 -4.242641 
C -5.367802 -3.117479 -6 -1.591219 -6 0 
C -6 1.591219 -5.367802 3.117479 -4.242641 4.242641 
C -3.117479 5.367802 -1.591219 6 0 6 
z
" id="m341eff17f6" style="stroke:#000080;stroke-width:1.5;"/>
    </defs>
    <g>
     <use style="fill-opacity:0;stroke:#000080;stroke-width:1.5;" x="152.693117" xlink:href="#m341eff17f6" y="263.006612"/>
     <use style="fill-opacity:0;stroke:#000080;stroke-width:1.5;" x="244.720455" xlink:href="#m341eff17f6" y="223.863855"/>
     <use style="fill-opacity:0;stroke:#000080;stroke-width:1.5;" x="275.766062" xlink:href="#m341eff17f6" y="211.002664"/>
     <use style="fill-opacity:0;stroke:#000080;stroke-width:1.5;" x="275.766062" xlink:href="#m341eff17f6" y="211.002664"/>
     <use style="fill-opacity:0;stroke:#000080;stroke-width:1.5;" x="333.429677" xlink:href="#m341eff17f6" y="211.002664"/>
    </g>
   </g>
   <g id="line2d_26">
    <path style="fill:none;stroke:#000080;stroke-linecap:square;stroke-width:1.5;"/>
    <g/>
   </g>
   <g id="line2d_27">
    <path clip-path="url(#p80c1461087)" d="M 203.414473 261.888248 
" style="fill:none;stroke:#000080;stroke-linecap:square;stroke-width:1.5;"/>
    <defs>
     <path d="M -12 12 
L 12 -12 
M -12 -12 
L 12 12 
" id="m0c6ca4d9d3" style="stroke:#000080;stroke-width:3;"/>
    </defs>
    <g clip-path="url(#p80c1461087)">
     <use style="fill:#000080;stroke:#000080;stroke-width:3;" x="203.414473" xlink:href="#m0c6ca4d9d3" y="261.888248"/>
    </g>
   </g>
   <g id="line2d_28">
    <defs>
     <path d="M 0 1.5 
C 0.397805 1.5 0.77937 1.341951 1.06066 1.06066 
C 1.341951 0.77937 1.5 0.397805 1.5 0 
C 1.5 -0.397805 1.341951 -0.77937 1.06066 -1.06066 
C 0.77937 -1.341951 0.397805 -1.5 0 -1.5 
C -0.397805 -1.5 -0.77937 -1.341951 -1.06066 -1.06066 
C -1.341951 -0.77937 -1.5 -0.397805 -1.5 0 
C -1.5 0.397805 -1.341951 0.77937 -1.06066 1.06066 
C -0.77937 1.341951 -0.397805 1.5 0 1.5 
z
" id="m8f5de2c503" style="stroke:#ff00ff;"/>
    </defs>
    <g>
     <use style="fill:#ff00ff;stroke:#ff00ff;" x="270.735314" xlink:href="#m8f5de2c503" y="244.553598"/>
     <use style="fill:#ff00ff;stroke:#ff00ff;" x="270.735314" xlink:href="#m8f5de2c503" y="244.553598"/>
    </g>
   </g>
   <g id="line2d_29">
    <path d="M 123.766534 294.88 
L 123.766534 293.761636 
L 131.076592 293.761636 
L 131.076592 293.202453 
L 135.859892 293.202453 
L 135.859892 292.643271 
L 136.515394 292.643271 
L 136.515394 291.524907 
L 137.146836 291.524907 
L 137.146836 287.051449 
L 138.19899 287.051449 
L 138.19899 285.933084 
L 139.190491 285.933084 
L 139.190491 284.81472 
L 139.997117 284.81472 
L 139.997117 283.696355 
L 140.641569 283.696355 
L 140.641569 283.137173 
L 140.89274 283.137173 
L 140.89274 282.577991 
L 141.016963 282.577991 
L 141.016963 281.459626 
L 141.262751 281.459626 
L 141.262751 280.341262 
L 141.384341 280.341262 
L 141.384341 275.867804 
L 141.979724 275.867804 
L 141.979724 274.749439 
L 143.002096 274.749439 
L 143.002096 271.394346 
L 143.22127 271.394346 
L 143.22127 269.157617 
L 145.174963 269.157617 
L 145.174963 268.039252 
L 145.271892 268.039252 
L 145.271892 265.802523 
L 145.842271 265.802523 
L 145.842271 265.243341 
L 146.394347 265.243341 
L 146.394347 264.684159 
L 149.531165 264.684159 
L 149.531165 264.124977 
L 153.127137 264.124977 
L 153.127137 263.565795 
L 154.079899 263.565795 
L 154.079899 263.006612 
L 203.581591 263.006612 
L 203.581591 262.44743 
L 203.763243 262.44743 
L 203.763243 261.888248 
L 203.776145 261.888248 
L 203.776145 261.329066 
L 203.86619 261.329066 
L 203.86619 260.769883 
L 203.92063 260.769883 
L 203.92063 260.210701 
L 203.971712 260.210701 
L 203.971712 259.092337 
L 203.978086 259.092337 
L 203.978086 258.533154 
L 204.006743 258.533154 
L 204.006743 257.973972 
L 204.028998 257.973972 
L 204.028998 257.41479 
L 204.149312 257.41479 
L 204.149312 256.855608 
L 215.572192 256.855608 
L 215.572192 256.296425 
L 215.624092 256.296425 
L 215.624092 255.737243 
L 215.638661 255.737243 
L 215.638661 255.178061 
L 215.640279 255.178061 
L 215.640279 254.618879 
L 215.71132 254.618879 
L 215.71132 252.941332 
L 222.477633 252.941332 
L 222.477633 252.38215 
L 222.50588 252.38215 
L 222.50588 251.822967 
L 222.5644 251.822967 
L 222.5644 251.263785 
L 227.379528 251.263785 
L 227.379528 250.704603 
L 227.381981 250.704603 
L 227.381981 250.145421 
L 227.406493 250.145421 
L 227.406493 249.586238 
L 227.408126 249.586238 
L 227.408126 249.027056 
L 231.197899 249.027056 
L 231.197899 247.908692 
L 231.299126 247.908692 
L 231.299126 247.34951 
L 234.345412 247.34951 
L 234.345412 246.790327 
L 241.300644 246.790327 
L 241.300644 246.231145 
L 243.105054 246.231145 
L 243.105054 245.671963 
L 255.841581 245.671963 
L 255.841581 245.112781 
L 270.735314 245.112781 
L 270.735314 244.553598 
L 333.429677 244.553598 
" style="fill:none;stroke:#ff00ff;stroke-linecap:square;stroke-width:1.5;"/>
   </g>
   <g id="line2d_30">
    <defs>
     <path d="M -0 8.485281 
L 5.091169 0 
L 0 -8.485281 
L -5.091169 -0 
z
" id="m07e9e77a6b" style="stroke:#ff00ff;stroke-linejoin:miter;stroke-width:1.5;"/>
    </defs>
    <g>
     <use style="fill-opacity:0;stroke:#ff00ff;stroke-linejoin:miter;stroke-width:1.5;" x="154.079899" xlink:href="#m07e9e77a6b" y="263.565795"/>
     <use style="fill-opacity:0;stroke:#ff00ff;stroke-linejoin:miter;stroke-width:1.5;" x="215.71132" xlink:href="#m07e9e77a6b" y="254.618879"/>
     <use style="fill-opacity:0;stroke:#ff00ff;stroke-linejoin:miter;stroke-width:1.5;" x="270.735314" xlink:href="#m07e9e77a6b" y="245.112781"/>
     <use style="fill-opacity:0;stroke:#ff00ff;stroke-linejoin:miter;stroke-width:1.5;" x="270.735314" xlink:href="#m07e9e77a6b" y="244.553598"/>
     <use style="fill-opacity:0;stroke:#ff00ff;stroke-linejoin:miter;stroke-width:1.5;" x="333.429677" xlink:href="#m07e9e77a6b" y="244.553598"/>
    </g>
   </g>
   <g id="line2d_31">
    <path style="fill:none;stroke:#ff00ff;stroke-linecap:square;stroke-width:1.5;"/>
    <g/>
   </g>
   <g id="line2d_32">
    <path clip-path="url(#p80c1461087)" d="M 203.414473 263.006612 
" style="fill:none;stroke:#ff00ff;stroke-linecap:square;stroke-width:1.5;"/>
    <defs>
     <path d="M -12 12 
L 12 -12 
M -12 -12 
L 12 12 
" id="mfa14500ec6" style="stroke:#ff00ff;stroke-width:3;"/>
    </defs>
    <g clip-path="url(#p80c1461087)">
     <use style="fill:#ff00ff;stroke:#ff00ff;stroke-width:3;" x="203.414473" xlink:href="#mfa14500ec6" y="263.006612"/>
    </g>
   </g>
   <g id="line2d_33">
    <defs>
     <path d="M 0 1.5 
C 0.397805 1.5 0.77937 1.341951 1.06066 1.06066 
C 1.341951 0.77937 1.5 0.397805 1.5 0 
C 1.5 -0.397805 1.341951 -0.77937 1.06066 -1.06066 
C 0.77937 -1.341951 0.397805 -1.5 0 -1.5 
C -0.397805 -1.5 -0.77937 -1.341951 -1.06066 -1.06066 
C -1.341951 -0.77937 -1.5 -0.397805 -1.5 0 
C -1.5 0.397805 -1.341951 0.77937 -1.06066 1.06066 
C -0.77937 1.341951 -0.397805 1.5 0 1.5 
z
" id="m00a6da1c39" style="stroke:#ffa500;"/>
    </defs>
    <g>
     <use style="fill:#ffa500;stroke:#ffa500;" x="279.481521" xlink:href="#m00a6da1c39" y="99.166216"/>
     <use style="fill:#ffa500;stroke:#ffa500;" x="279.481521" xlink:href="#m00a6da1c39" y="99.166216"/>
    </g>
   </g>
   <g id="line2d_34">
    <path d="M 106.778678 294.88 
L 106.778678 293.202453 
L 119.586677 293.202453 
L 119.586677 292.084089 
L 126.56265 292.084089 
L 126.56265 288.169813 
L 127.673027 288.169813 
L 127.673027 284.81472 
L 135.859892 284.81472 
L 135.859892 283.696355 
L 136.353845 283.696355 
L 136.353845 282.577991 
L 136.675441 282.577991 
L 136.675441 282.018808 
L 136.991135 282.018808 
L 136.991135 280.341262 
L 138.772539 280.341262 
L 138.772539 278.663715 
L 139.190491 278.663715 
L 139.190491 277.545351 
L 139.46359 277.545351 
L 139.46359 276.426986 
L 139.865278 276.426986 
L 139.865278 271.394346 
L 139.997117 271.394346 
L 139.997117 270.275981 
L 140.257802 270.275981 
L 140.257802 269.716799 
L 141.505077 269.716799 
L 141.505077 266.920888 
L 142.096368 266.920888 
L 142.096368 265.802523 
L 143.112032 265.802523 
L 143.112032 262.44743 
L 145.559445 262.44743 
L 145.559445 261.888248 
L 146.394347 261.888248 
L 146.394347 261.329066 
L 146.66388 261.329066 
L 146.66388 258.533154 
L 148.198003 258.533154 
L 148.198003 257.41479 
L 150.413659 257.41479 
L 150.413659 255.737243 
L 155.201134 255.737243 
L 155.201134 255.178061 
L 158.274515 255.178061 
L 158.274515 254.059696 
L 164.011516 254.059696 
L 164.011516 253.500514 
L 164.14112 253.500514 
L 164.14112 252.38215 
L 164.269756 252.38215 
L 164.269756 251.263785 
L 166.825511 251.263785 
L 166.825511 250.704603 
L 167.288695 250.704603 
L 167.288695 250.145421 
L 167.502423 250.145421 
L 167.502423 249.586238 
L 169.552448 249.586238 
L 169.552448 249.027056 
L 170.998327 249.027056 
L 170.998327 247.908692 
L 171.299044 247.908692 
L 171.299044 247.34951 
L 172.531422 247.34951 
L 172.531422 246.790327 
L 172.92335 246.790327 
L 172.92335 245.671963 
L 173.457468 245.671963 
L 173.457468 244.553598 
L 174.300474 244.553598 
L 174.300474 243.994416 
L 174.496087 243.994416 
L 174.496087 243.435234 
L 175.757206 243.435234 
L 175.757206 236.725047 
L 176.512702 236.725047 
L 176.512702 235.606682 
L 176.916809 235.606682 
L 176.916809 233.929136 
L 177.770861 233.929136 
L 177.770861 233.369954 
L 178.146781 233.369954 
L 178.146781 232.810771 
L 178.764818 232.810771 
L 178.874842 231.133225 
L 179.467707 231.133225 
L 179.467707 230.574042 
L 180.193868 230.574042 
L 180.193868 229.455678 
L 180.320375 229.455678 
L 180.320375 228.337313 
L 180.483455 228.337313 
L 180.508408 227.218949 
L 203.476923 227.218949 
L 203.476923 226.659767 
L 203.610915 226.659767 
L 203.610915 226.100584 
L 203.760016 226.100584 
L 203.837298 224.423038 
L 203.923827 224.423038 
L 203.955765 221.067944 
L 204.038527 221.067944 
L 204.086094 218.831215 
L 204.187132 218.831215 
L 204.187132 218.272033 
L 204.449568 218.272033 
L 204.449568 217.712851 
L 204.741626 217.712851 
L 204.741626 216.594486 
L 204.899414 216.594486 
L 204.899414 216.035304 
L 205.073718 216.035304 
L 205.097622 213.798575 
L 205.425907 213.798575 
L 205.425907 213.239393 
L 205.888354 213.239393 
L 205.888354 212.680211 
L 206.058616 212.680211 
L 206.058616 212.121028 
L 206.35258 212.121028 
L 206.35258 211.561846 
L 206.556778 211.561846 
L 206.556778 203.733295 
L 206.75587 203.733295 
L 206.75587 202.055748 
L 207.118091 202.055748 
L 207.118091 201.496566 
L 207.234519 201.496566 
L 207.234519 200.937384 
L 207.38157 200.937384 
L 207.441604 199.819019 
L 215.59654 199.819019 
L 215.654834 197.023108 
L 215.865308 197.023108 
L 215.865308 196.463926 
L 216.115784 196.463926 
L 216.115784 195.904743 
L 216.375073 195.904743 
L 216.423064 193.668014 
L 216.501727 193.668014 
L 216.501727 193.108832 
L 216.712795 193.108832 
L 216.785607 191.431285 
L 216.98277 191.431285 
L 217.091666 185.280281 
L 217.176218 185.280281 
L 217.279489 184.161916 
L 217.291252 184.161916 
L 217.366053 183.043552 
L 217.471103 183.043552 
L 217.471103 182.48437 
L 222.381681 182.48437 
L 222.381681 181.925187 
L 222.49828 181.925187 
L 222.526493 179.688458 
L 222.667947 179.688458 
L 222.667947 179.129276 
L 222.825305 179.129276 
L 222.825305 178.570094 
L 223.04553 178.570094 
L 223.108536 177.451729 
L 223.16609 177.451729 
L 223.273357 175.774183 
L 223.293071 175.774183 
L 223.293071 175.215 
L 223.428385 175.215 
L 223.503329 171.300725 
L 223.685727 171.300725 
L 223.692821 169.063996 
L 227.42363 169.063996 
L 227.42363 168.504814 
L 227.695534 168.504814 
L 227.790813 167.386449 
L 227.856161 167.386449 
L 227.856161 166.827267 
L 228.003476 166.827267 
L 228.106478 162.353809 
L 228.16361 162.353809 
L 228.16361 161.794627 
L 228.302902 161.794627 
L 228.356296 160.11708 
L 231.231272 160.11708 
L 231.316698 158.998715 
L 231.578791 158.998715 
L 231.578791 158.439533 
L 231.726785 158.439533 
L 231.826851 154.525258 
L 231.906863 154.525258 
L 231.990259 152.847711 
L 234.503963 152.847711 
L 234.593451 151.170164 
L 234.806661 151.170164 
L 234.845385 148.374253 
L 236.967291 148.374253 
L 236.973847 147.255888 
L 237.233606 147.255888 
L 237.233606 146.696706 
L 237.412539 146.696706 
L 237.45038 145.019159 
L 239.48886 145.019159 
L 239.586883 143.341613 
L 239.616622 143.341613 
L 239.64591 139.427337 
L 239.749819 139.427337 
L 239.749819 138.868155 
L 241.40989 138.868155 
L 241.40989 138.308973 
L 241.596288 138.308973 
L 241.67057 136.072244 
L 243.204758 136.072244 
L 243.204758 135.513061 
L 243.371488 135.513061 
L 243.438502 131.039603 
L 244.980534 131.039603 
L 245.001982 127.68451 
L 246.451883 127.68451 
L 246.451883 124.888599 
L 247.807257 124.888599 
L 247.859064 122.65187 
L 249.063609 122.65187 
L 249.080528 120.415141 
L 250.111599 120.415141 
L 250.111599 119.855959 
L 250.290229 119.855959 
L 250.290229 119.296776 
L 251.330625 119.296776 
L 251.37285 116.500865 
L 252.361141 116.500865 
L 252.399386 114.823318 
L 253.333405 114.823318 
L 253.346607 113.145772 
L 254.266166 113.145772 
L 254.266166 112.586589 
L 255.139061 112.586589 
L 255.139061 111.468225 
L 255.868769 111.468225 
L 255.958465 108.113132 
L 257.509476 108.113132 
L 257.509476 107.553949 
L 258.235516 107.553949 
L 258.235516 106.435585 
L 258.941689 106.435585 
L 258.941689 105.876403 
L 259.601678 105.876403 
L 259.601678 105.31722 
L 261.475049 105.31722 
L 261.475049 104.198856 
L 262.606617 104.198856 
L 262.606617 103.639674 
L 264.193162 103.639674 
L 264.193162 103.080491 
L 266.089143 103.080491 
L 266.089143 102.521309 
L 266.533733 102.521309 
L 266.533733 101.962127 
L 267.395698 101.962127 
L 267.395698 101.402945 
L 270.094629 101.402945 
L 270.094629 100.843762 
L 270.44782 100.843762 
L 270.44782 100.28458 
L 271.128473 100.28458 
L 271.128473 99.725398 
L 279.481521 99.725398 
L 279.481521 99.166216 
L 333.429677 99.166216 
L 333.429677 99.166216 
" style="fill:none;stroke:#ffa500;stroke-linecap:square;stroke-width:1.5;"/>
   </g>
   <g id="line2d_35">
    <defs>
     <path d="M 0 -6 
L -1.347084 -1.854102 
L -5.706339 -1.854102 
L -2.179628 0.708204 
L -3.526712 4.854102 
L -0 2.291796 
L 3.526712 4.854102 
L 2.179628 0.708204 
L 5.706339 -1.854102 
L 1.347084 -1.854102 
z
" id="mebb5e6c5f8" style="stroke:#ffa500;stroke-linejoin:bevel;stroke-width:1.5;"/>
    </defs>
    <g>
     <use style="fill-opacity:0;stroke:#ffa500;stroke-linejoin:bevel;stroke-width:1.5;" x="203.955765" xlink:href="#mebb5e6c5f8" y="221.067944"/>
     <use style="fill-opacity:0;stroke:#ffa500;stroke-linejoin:bevel;stroke-width:1.5;" x="247.859064" xlink:href="#mebb5e6c5f8" y="122.65187"/>
     <use style="fill-opacity:0;stroke:#ffa500;stroke-linejoin:bevel;stroke-width:1.5;" x="279.481521" xlink:href="#mebb5e6c5f8" y="99.166216"/>
     <use style="fill-opacity:0;stroke:#ffa500;stroke-linejoin:bevel;stroke-width:1.5;" x="279.481521" xlink:href="#mebb5e6c5f8" y="99.166216"/>
     <use style="fill-opacity:0;stroke:#ffa500;stroke-linejoin:bevel;stroke-width:1.5;" x="333.429677" xlink:href="#mebb5e6c5f8" y="99.166216"/>
    </g>
   </g>
   <g id="line2d_36">
    <path style="fill:none;stroke:#ffa500;stroke-linecap:square;stroke-width:1.5;"/>
    <g/>
   </g>
   <g id="line2d_37">
    <path clip-path="url(#p80c1461087)" d="M 203.414473 227.218949 
" style="fill:none;stroke:#ffa500;stroke-linecap:square;stroke-width:1.5;"/>
    <defs>
     <path d="M -12 12 
L 12 -12 
M -12 -12 
L 12 12 
" id="m860d2f1a7b" style="stroke:#ffa500;stroke-width:3;"/>
    </defs>
    <g clip-path="url(#p80c1461087)">
     <use style="fill:#ffa500;stroke:#ffa500;stroke-width:3;" x="203.414473" xlink:href="#m860d2f1a7b" y="227.218949"/>
    </g>
   </g>
   <g id="line2d_38">
    <defs>
     <path d="M 0 1.5 
C 0.397805 1.5 0.77937 1.341951 1.06066 1.06066 
C 1.341951 0.77937 1.5 0.397805 1.5 0 
C 1.5 -0.397805 1.341951 -0.77937 1.06066 -1.06066 
C 0.77937 -1.341951 0.397805 -1.5 0 -1.5 
C -0.397805 -1.5 -0.77937 -1.341951 -1.06066 -1.06066 
C -1.341951 -0.77937 -1.5 -0.397805 -1.5 0 
C -1.5 0.397805 -1.341951 0.77937 -1.06066 1.06066 
C -0.77937 1.341951 -0.397805 1.5 0 1.5 
z
" id="ma0752cb641" style="stroke:#6495ed;"/>
    </defs>
    <g>
     <use style="fill:#6495ed;stroke:#6495ed;" x="263.608297" xlink:href="#ma0752cb641" y="183.043552"/>
     <use style="fill:#6495ed;stroke:#6495ed;" x="263.608297" xlink:href="#ma0752cb641" y="183.043552"/>
    </g>
   </g>
   <g id="line2d_39">
    <path d="M 56.12 294.88 
L 56.12 292.643271 
L 79.971009 292.643271 
L 79.971009 291.524907 
L 89.599124 291.524907 
L 89.599124 288.728995 
L 93.922955 288.728995 
L 93.922955 287.051449 
L 105.848459 287.051449 
L 105.848459 286.492266 
L 109.300972 286.492266 
L 109.300972 285.933084 
L 112.824432 285.933084 
L 112.824432 280.900444 
L 114.053874 280.900444 
L 114.053874 279.222897 
L 115.747522 279.222897 
L 115.747522 278.104533 
L 118.704183 278.104533 
L 118.704183 276.986168 
L 120.830944 276.986168 
L 120.830944 276.426986 
L 121.991263 276.426986 
L 121.991263 274.749439 
L 124.428341 274.749439 
L 124.428341 274.190257 
L 124.749936 274.190257 
L 124.749936 273.071893 
L 125.065631 273.071893 
L 125.065631 271.394346 
L 125.375637 271.394346 
L 125.375637 270.835164 
L 125.680156 270.835164 
L 125.680156 270.275981 
L 125.979378 270.275981 
L 125.979378 269.157617 
L 126.273486 269.157617 
L 126.273486 268.039252 
L 127.673027 268.039252 
L 127.673027 267.48007 
L 131.076592 267.48007 
L 131.076592 266.920888 
L 131.512181 266.920888 
L 131.512181 265.802523 
L 132.955351 265.802523 
L 132.955351 264.124977 
L 133.346388 264.124977 
L 133.346388 262.44743 
L 136.353845 262.44743 
L 136.353845 257.973972 
L 136.834012 257.973972 
L 136.834012 256.296425 
L 137.454074 256.296425 
L 137.454074 254.059696 
L 139.052299 254.059696 
L 139.052299 253.500514 
L 140.89274 253.500514 
L 140.89274 252.941332 
L 141.262751 252.941332 
L 141.262751 251.822967 
L 143.329818 251.822967 
L 143.329818 251.263785 
L 143.862519 251.263785 
L 143.862519 250.704603 
L 144.174398 250.704603 
L 144.174398 250.145421 
L 145.654238 250.145421 
L 145.654238 249.586238 
L 146.028272 249.586238 
L 146.028272 247.908692 
L 146.752794 247.908692 
L 146.752794 247.34951 
L 146.929256 247.34951 
L 146.929256 245.671963 
L 147.448035 245.671963 
L 147.448035 245.112781 
L 147.868713 245.112781 
L 147.868713 244.553598 
L 148.440899 244.553598 
L 148.440899 243.994416 
L 149.978069 243.994416 
L 149.978069 243.435234 
L 150.768411 243.435234 
L 150.768411 242.876052 
L 154.537198 242.876052 
L 154.537198 242.316869 
L 156.253747 242.316869 
L 156.253747 241.757687 
L 157.861027 241.757687 
L 157.861027 240.639323 
L 162.517454 240.639323 
L 162.517454 240.08014 
L 203.50315 240.08014 
L 203.565279 238.961776 
L 203.705064 238.961776 
L 203.80192 236.165865 
L 203.93022 236.165865 
L 204.019463 233.929136 
L 204.041702 233.929136 
L 204.127212 231.692407 
L 204.202866 231.692407 
L 204.300095 230.574042 
L 204.489828 230.574042 
L 204.502197 229.455678 
L 204.94165 229.455678 
L 204.94165 228.896496 
L 215.415546 228.896496 
L 215.513617 226.659767 
L 215.534792 226.659767 
L 215.643514 224.423038 
L 215.700037 224.423038 
L 215.788486 221.067944 
L 215.892434 221.067944 
L 215.938609 218.831215 
L 222.425362 218.831215 
L 222.536249 216.594486 
L 222.549248 216.594486 
L 222.616252 213.798575 
L 222.681921 213.798575 
L 222.717343 212.121028 
L 227.35252 212.121028 
L 227.440751 208.765935 
L 227.491198 208.765935 
L 227.567401 206.529206 
L 231.174303 206.529206 
L 231.174303 205.410841 
L 231.346594 205.410841 
L 231.42111 203.174112 
L 234.299529 203.174112 
L 234.375388 202.055748 
L 234.425413 202.055748 
L 234.505585 200.937384 
L 236.985549 200.937384 
L 237.06677 198.141472 
L 239.304214 198.141472 
L 239.389463 195.345561 
L 241.288988 195.345561 
L 241.352268 194.227197 
L 243.06501 194.227197 
L 243.06501 193.668014 
L 244.752362 193.668014 
L 244.814513 192.54965 
L 246.242527 192.54965 
L 246.268189 191.431285 
L 247.570911 191.431285 
L 247.666493 188.076192 
L 248.862793 188.076192 
L 248.932796 186.957828 
L 251.192469 186.957828 
L 251.192469 186.398645 
L 253.20447 186.398645 
L 253.20447 185.839463 
L 254.120917 185.839463 
L 254.120917 185.280281 
L 255.016455 185.280281 
L 255.016455 184.721099 
L 259.516383 184.721099 
L 259.516383 183.602734 
L 263.608297 183.602734 
L 263.608297 183.043552 
L 333.429677 183.043552 
L 333.429677 183.043552 
" style="fill:none;stroke:#6495ed;stroke-linecap:square;stroke-width:1.5;"/>
   </g>
   <g id="line2d_40">
    <defs>
     <path d="M -0 6 
L 6 -6 
L -6 -6 
z
" id="m8a0d4aece2" style="stroke:#6495ed;stroke-linejoin:miter;stroke-width:1.5;"/>
    </defs>
    <g>
     <use style="fill-opacity:0;stroke:#6495ed;stroke-linejoin:miter;stroke-width:1.5;" x="147.868713" xlink:href="#m8a0d4aece2" y="245.112781"/>
     <use style="fill-opacity:0;stroke:#6495ed;stroke-linejoin:miter;stroke-width:1.5;" x="222.717343" xlink:href="#m8a0d4aece2" y="212.121028"/>
     <use style="fill-opacity:0;stroke:#6495ed;stroke-linejoin:miter;stroke-width:1.5;" x="263.608297" xlink:href="#m8a0d4aece2" y="183.043552"/>
     <use style="fill-opacity:0;stroke:#6495ed;stroke-linejoin:miter;stroke-width:1.5;" x="263.608297" xlink:href="#m8a0d4aece2" y="183.043552"/>
     <use style="fill-opacity:0;stroke:#6495ed;stroke-linejoin:miter;stroke-width:1.5;" x="333.429677" xlink:href="#m8a0d4aece2" y="183.043552"/>
    </g>
   </g>
   <g id="line2d_41">
    <path style="fill:none;stroke:#6495ed;stroke-linecap:square;stroke-width:1.5;"/>
    <g/>
   </g>
   <g id="line2d_42">
    <path clip-path="url(#p80c1461087)" d="M 203.414473 240.08014 
" style="fill:none;stroke:#6495ed;stroke-linecap:square;stroke-width:1.5;"/>
    <defs>
     <path d="M -12 12 
L 12 -12 
M -12 -12 
L 12 12 
" id="m8bf1825720" style="stroke:#6495ed;stroke-width:3;"/>
    </defs>
    <g clip-path="url(#p80c1461087)">
     <use style="fill:#6495ed;stroke:#6495ed;stroke-width:3;" x="203.414473" xlink:href="#m8bf1825720" y="240.08014"/>
    </g>
   </g>
   <g id="line2d_43">
    <defs>
     <path d="M 0 1.5 
C 0.397805 1.5 0.77937 1.341951 1.06066 1.06066 
C 1.341951 0.77937 1.5 0.397805 1.5 0 
C 1.5 -0.397805 1.341951 -0.77937 1.06066 -1.06066 
C 0.77937 -1.341951 0.397805 -1.5 0 -1.5 
C -0.397805 -1.5 -0.77937 -1.341951 -1.06066 -1.06066 
C -1.341951 -0.77937 -1.5 -0.397805 -1.5 0 
C -1.5 0.397805 -1.341951 0.77937 -1.06066 1.06066 
C -0.77937 1.341951 -0.397805 1.5 0 1.5 
z
" id="m2a8530621b" style="stroke:#ff0000;"/>
    </defs>
    <g>
     <use style="fill:#ff0000;stroke:#ff0000;" x="289.517436" xlink:href="#m2a8530621b" y="60.023459"/>
     <use style="fill:#ff0000;stroke:#ff0000;" x="289.517436" xlink:href="#m2a8530621b" y="60.023459"/>
    </g>
   </g>
   <g id="line2d_44">
    <path d="M 56.12 294.88 
L 56.12 268.598435 
L 68.045504 268.598435 
L 68.045504 259.651519 
L 75.021477 259.651519 
L 75.021477 254.618879 
L 79.971009 254.618879 
L 79.971009 246.231145 
L 86.946982 246.231145 
L 86.946982 245.112781 
L 89.599124 245.112781 
L 89.599124 243.994416 
L 95.735668 243.994416 
L 95.735668 242.316869 
L 98.872486 242.316869 
L 98.872486 241.757687 
L 100.24961 241.757687 
L 100.24961 238.402594 
L 101.524628 238.402594 
L 101.524628 237.284229 
L 102.711641 237.284229 
L 102.711641 236.165865 
L 104.865056 236.165865 
L 104.865056 235.0475 
L 118.245359 235.0475 
L 118.245359 233.369954 
L 118.704183 233.369954 
L 118.704183 232.810771 
L 120.01151 232.810771 
L 120.01151 230.574042 
L 123.425832 230.574042 
L 123.425832 229.455678 
L 123.766534 229.455678 
L 123.766534 227.218949 
L 124.100619 227.218949 
L 124.100619 222.745491 
L 125.065631 222.745491 
L 125.065631 220.508762 
L 125.375637 220.508762 
L 125.375637 218.831215 
L 125.680156 218.831215 
L 125.680156 217.153669 
L 126.847034 217.153669 
L 126.847034 216.594486 
L 127.673027 216.594486 
L 127.673027 215.476122 
L 127.939774 215.476122 
L 127.939774 214.91694 
L 128.461173 214.91694 
L 128.461173 212.680211 
L 129.93678 212.680211 
L 129.93678 212.121028 
L 131.076592 212.121028 
L 131.076592 209.884299 
L 135.003752 209.884299 
L 135.003752 208.206753 
L 135.859892 208.206753 
L 135.859892 206.529206 
L 136.026124 206.529206 
L 136.026124 205.970024 
L 136.353845 205.970024 
L 136.353845 204.292477 
L 136.515394 204.292477 
L 136.515394 203.174112 
L 136.834012 203.174112 
L 136.834012 199.259837 
L 136.991135 199.259837 
L 136.991135 197.58229 
L 138.19899 197.58229 
L 138.19899 195.904743 
L 138.488154 195.904743 
L 138.488154 194.227197 
L 138.772539 194.227197 
L 138.772539 193.668014 
L 139.327583 193.668014 
L 139.327583 190.872103 
L 139.865278 190.872103 
L 139.865278 188.635374 
L 140.386678 188.635374 
L 140.386678 188.076192 
L 140.89274 188.076192 
L 140.89274 187.51701 
L 141.140296 187.51701 
L 141.140296 186.957828 
L 141.979724 186.957828 
L 141.979724 185.839463 
L 143.112032 185.839463 
L 143.22127 183.602734 
L 143.437686 183.602734 
L 143.437686 182.48437 
L 143.862519 182.48437 
L 143.862519 179.129276 
L 144.277114 179.129276 
L 144.37922 176.333365 
L 144.781692 176.333365 
L 144.781692 175.215 
L 144.979451 175.215 
L 144.979451 174.655818 
L 145.174963 174.655818 
L 145.271892 171.300725 
L 145.368278 171.300725 
L 145.368278 170.741543 
L 145.654238 170.741543 
L 145.654238 170.18236 
L 145.842271 170.18236 
L 145.842271 166.827267 
L 146.303556 166.827267 
L 146.303556 166.268085 
L 147.868713 166.268085 
L 147.868713 165.14972 
L 148.034145 165.14972 
L 148.116269 160.11708 
L 148.27935 160.11708 
L 148.360314 157.880351 
L 150.413659 157.880351 
L 150.413659 156.761987 
L 150.627387 156.761987 
L 150.627387 155.643622 
L 151.790783 155.643622 
L 151.790783 155.08444 
L 151.988164 155.08444 
L 152.053458 153.406893 
L 152.183306 153.406893 
L 152.183306 152.288529 
L 152.312182 152.288529 
L 152.37626 150.0518 
L 152.503704 150.0518 
L 152.503704 149.492617 
L 152.755795 149.492617 
L 152.755795 148.374253 
L 153.188256 148.374253 
L 153.188256 147.815071 
L 154.310068 147.815071 
L 154.310068 147.255888 
L 154.872368 147.255888 
L 154.872368 146.696706 
L 155.201134 146.696706 
L 155.309341 142.223248 
L 155.523735 142.223248 
L 155.523735 141.664066 
L 155.682795 141.664066 
L 155.682795 139.986519 
L 156.904956 139.986519 
L 156.904956 138.868155 
L 157.626944 138.868155 
L 157.626944 137.74979 
L 157.907464 137.74979 
L 157.907464 137.190608 
L 159.202345 137.190608 
L 159.202345 136.072244 
L 159.877132 136.072244 
L 159.877132 135.513061 
L 160.285818 135.513061 
L 160.326158 133.276332 
L 161.866772 133.276332 
L 161.866772 131.598786 
L 162.013509 131.598786 
L 162.013509 130.480421 
L 162.552891 130.480421 
L 162.552891 129.921239 
L 163.716287 129.921239 
L 163.716287 129.362057 
L 163.880928 129.362057 
L 163.946346 127.125328 
L 184.790631 127.125328 
L 184.790631 125.447781 
L 203.94619 125.447781 
L 203.958956 124.329417 
L 204.10192 124.329417 
L 204.10192 123.770234 
L 204.278188 123.770234 
L 204.343826 121.533505 
L 204.409214 121.533505 
L 204.455768 115.941683 
L 204.529994 115.941683 
L 204.59468 113.704954 
L 204.887328 113.704954 
L 204.91451 110.909043 
L 205.061754 110.909043 
L 205.067737 109.231496 
L 215.614373 109.231496 
L 215.687134 107.553949 
L 215.777254 107.553949 
L 215.857322 103.080491 
L 215.935428 103.080491 
L 215.986246 100.28458 
L 216.106339 100.28458 
L 216.183325 98.607033 
L 222.548165 98.607033 
L 222.65719 96.370304 
L 222.662569 96.370304 
L 222.744129 94.692758 
L 222.785833 94.692758 
L 222.88275 91.896847 
L 227.403226 91.896847 
L 227.48551 90.778482 
L 227.59165 90.778482 
L 227.692323 88.541753 
L 227.713991 88.541753 
L 227.713991 87.982571 
L 231.244341 87.982571 
L 231.316047 86.864206 
L 231.366064 86.864206 
L 231.446952 85.18666 
L 234.357954 85.18666 
L 234.357954 84.627477 
L 234.474211 84.627477 
L 234.541756 81.272384 
L 237.046267 81.272384 
L 237.120705 77.358108 
L 239.385801 77.358108 
L 239.385801 76.239744 
L 241.331201 76.239744 
L 241.408443 74.562197 
L 243.189431 74.562197 
L 243.21095 72.88465 
L 244.83439 72.88465 
L 244.83439 72.325468 
L 246.310419 72.325468 
L 246.317765 70.647921 
L 247.66423 70.647921 
L 247.66423 70.088739 
L 251.21622 70.088739 
L 251.21622 69.529557 
L 252.266117 69.529557 
L 252.266117 68.970375 
L 253.238705 68.970375 
L 253.243616 67.85201 
L 254.163897 67.85201 
L 254.163897 67.292828 
L 255.041865 67.292828 
L 255.041865 66.733646 
L 257.428243 66.733646 
L 257.429669 65.615281 
L 259.531028 65.615281 
L 259.531028 65.056099 
L 260.178073 65.056099 
L 260.182813 63.937735 
L 261.402309 63.937735 
L 261.402309 63.378552 
L 261.984879 63.378552 
L 261.984879 62.81937 
L 262.554296 62.81937 
L 262.554296 61.701006 
L 263.091932 61.701006 
L 263.091932 61.141823 
L 271.09487 61.141823 
L 271.09487 60.582641 
L 289.517436 60.582641 
L 289.517436 60.023459 
L 333.429677 60.023459 
L 333.429677 60.023459 
" style="fill:none;stroke:#ff0000;stroke-linecap:square;stroke-width:1.5;"/>
   </g>
   <g id="line2d_45">
    <defs>
     <path d="M 0 -6 
L -5.196152 -3 
L -5.196152 3 
L -0 6 
L 5.196152 3 
L 5.196152 -3 
z
" id="mae03d9bf06" style="stroke:#ff0000;stroke-linejoin:miter;stroke-width:1.5;"/>
    </defs>
    <g>
     <use style="fill-opacity:0;stroke:#ff0000;stroke-linejoin:miter;stroke-width:1.5;" x="151.790783" xlink:href="#mae03d9bf06" y="155.08444"/>
     <use style="fill-opacity:0;stroke:#ff0000;stroke-linejoin:miter;stroke-width:1.5;" x="243.21095" xlink:href="#mae03d9bf06" y="72.88465"/>
     <use style="fill-opacity:0;stroke:#ff0000;stroke-linejoin:miter;stroke-width:1.5;" x="289.517436" xlink:href="#mae03d9bf06" y="60.582641"/>
     <use style="fill-opacity:0;stroke:#ff0000;stroke-linejoin:miter;stroke-width:1.5;" x="289.517436" xlink:href="#mae03d9bf06" y="60.023459"/>
     <use style="fill-opacity:0;stroke:#ff0000;stroke-linejoin:miter;stroke-width:1.5;" x="333.429677" xlink:href="#mae03d9bf06" y="60.023459"/>
    </g>
   </g>
   <g id="line2d_46">
    <path style="fill:none;stroke:#ff0000;stroke-linecap:square;stroke-width:1.5;"/>
    <g/>
   </g>
   <g id="line2d_47">
    <path clip-path="url(#p80c1461087)" d="M 203.414473 125.447781 
" style="fill:none;stroke:#ff0000;stroke-linecap:square;stroke-width:1.5;"/>
    <defs>
     <path d="M -12 12 
L 12 -12 
M -12 -12 
L 12 12 
" id="m0bcf057212" style="stroke:#ff0000;stroke-width:3;"/>
    </defs>
    <g clip-path="url(#p80c1461087)">
     <use style="fill:#ff0000;stroke:#ff0000;stroke-width:3;" x="203.414473" xlink:href="#m0bcf057212" y="125.447781"/>
    </g>
   </g>
   <g id="line2d_48">
    <path d="M 333.429677 244.553598 
L 363.933742 289.176341 
" style="fill:none;stroke:#ff00ff;stroke-linecap:square;stroke-width:1.5;"/>
    <g>
     <use style="fill-opacity:0;stroke:#ff00ff;stroke-linejoin:miter;stroke-width:1.5;" x="333.429677" xlink:href="#m07e9e77a6b" y="244.553598"/>
     <use style="fill-opacity:0;stroke:#ff00ff;stroke-linejoin:miter;stroke-width:1.5;" x="363.933742" xlink:href="#m07e9e77a6b" y="289.176341"/>
    </g>
   </g>
   <g id="line2d_49">
    <path d="M 333.429677 211.002664 
L 363.933742 220.732435 
" style="fill:none;stroke:#000080;stroke-linecap:square;stroke-width:1.5;"/>
    <g>
     <use style="fill-opacity:0;stroke:#000080;stroke-width:1.5;" x="333.429677" xlink:href="#m341eff17f6" y="211.002664"/>
     <use style="fill-opacity:0;stroke:#000080;stroke-width:1.5;" x="363.933742" xlink:href="#m341eff17f6" y="220.732435"/>
    </g>
   </g>
   <g id="line2d_50">
    <path d="M 333.429677 183.043552 
L 363.933742 152.288529 
" style="fill:none;stroke:#6495ed;stroke-linecap:square;stroke-width:1.5;"/>
    <g>
     <use style="fill-opacity:0;stroke:#6495ed;stroke-linejoin:miter;stroke-width:1.5;" x="333.429677" xlink:href="#m8a0d4aece2" y="183.043552"/>
     <use style="fill-opacity:0;stroke:#6495ed;stroke-linejoin:miter;stroke-width:1.5;" x="363.933742" xlink:href="#m8a0d4aece2" y="152.288529"/>
    </g>
   </g>
   <g id="line2d_51">
    <path d="M 333.429677 99.166216 
L 363.933742 83.844622 
" style="fill:none;stroke:#ffa500;stroke-linecap:square;stroke-width:1.5;"/>
    <g>
     <use style="fill-opacity:0;stroke:#ffa500;stroke-linejoin:bevel;stroke-width:1.5;" x="333.429677" xlink:href="#mebb5e6c5f8" y="99.166216"/>
     <use style="fill-opacity:0;stroke:#ffa500;stroke-linejoin:bevel;stroke-width:1.5;" x="363.933742" xlink:href="#mebb5e6c5f8" y="83.844622"/>
    </g>
   </g>
   <g id="line2d_52">
    <path d="M 333.429677 60.023459 
L 363.933742 15.400716 
" style="fill:none;stroke:#ff0000;stroke-linecap:square;stroke-width:1.5;"/>
    <g>
     <use style="fill-opacity:0;stroke:#ff0000;stroke-linejoin:miter;stroke-width:1.5;" x="333.429677" xlink:href="#mae03d9bf06" y="60.023459"/>
     <use style="fill-opacity:0;stroke:#ff0000;stroke-linejoin:miter;stroke-width:1.5;" x="363.933742" xlink:href="#mae03d9bf06" y="15.400716"/>
    </g>
   </g>
   <g id="line2d_53">
    <path d="M 333.429677 294.88 
L 333.429677 9.697057 
" style="fill:none;stroke:#000000;stroke-linecap:square;stroke-width:1.5;"/>
   </g>
   <g id="patch_3">
    <path d="M 56.12 294.88 
L 56.12 6.845228 
" style="fill:none;stroke:#000000;stroke-linecap:square;stroke-linejoin:miter;stroke-width:0.8;"/>
   </g>
   <g id="patch_4">
    <path d="M 399.984 294.88 
L 399.984 6.845228 
" style="fill:none;stroke:#000000;stroke-linecap:square;stroke-linejoin:miter;stroke-width:0.8;"/>
   </g>
   <g id="patch_5">
    <path d="M 56.12 294.88 
L 399.984 294.88 
" style="fill:none;stroke:#000000;stroke-linecap:square;stroke-linejoin:miter;stroke-width:0.8;"/>
   </g>
   <g id="patch_6">
    <path d="M 56.12 6.845228 
L 399.984 6.845228 
" style="fill:none;stroke:#000000;stroke-linecap:square;stroke-linejoin:miter;stroke-width:0.8;"/>
   </g>
   <g id="text_14">
    <!-- f11 -->
    <g transform="translate(369.479935 293.867279)scale(0.17 -0.17)">
     <use xlink:href="#DejaVuSans-66"/>
     <use x="35.205078" xlink:href="#DejaVuSans-31"/>
     <use x="98.828125" xlink:href="#DejaVuSans-31"/>
    </g>
   </g>
   <g id="text_15">
    <!-- f10 -->
    <g transform="translate(369.479935 225.423372)scale(0.17 -0.17)">
     <use xlink:href="#DejaVuSans-66"/>
     <use x="35.205078" xlink:href="#DejaVuSans-31"/>
     <use x="98.828125" xlink:href="#DejaVuSans-30"/>
    </g>
   </g>
   <g id="text_16">
    <!-- f13 -->
    <defs>
     <path d="M 40.578125 39.3125 
Q 47.65625 37.796875 51.625 33 
Q 55.609375 28.21875 55.609375 21.1875 
Q 55.609375 10.40625 48.1875 4.484375 
Q 40.765625 -1.421875 27.09375 -1.421875 
Q 22.515625 -1.421875 17.65625 -0.515625 
Q 12.796875 0.390625 7.625 2.203125 
L 7.625 11.71875 
Q 11.71875 9.328125 16.59375 8.109375 
Q 21.484375 6.890625 26.8125 6.890625 
Q 36.078125 6.890625 40.9375 10.546875 
Q 45.796875 14.203125 45.796875 21.1875 
Q 45.796875 27.640625 41.28125 31.265625 
Q 36.765625 34.90625 28.71875 34.90625 
L 20.21875 34.90625 
L 20.21875 43.015625 
L 29.109375 43.015625 
Q 36.375 43.015625 40.234375 45.921875 
Q 44.09375 48.828125 44.09375 54.296875 
Q 44.09375 59.90625 40.109375 62.90625 
Q 36.140625 65.921875 28.71875 65.921875 
Q 24.65625 65.921875 20.015625 65.03125 
Q 15.375 64.15625 9.8125 62.3125 
L 9.8125 71.09375 
Q 15.4375 72.65625 20.34375 73.4375 
Q 25.25 74.21875 29.59375 74.21875 
Q 40.828125 74.21875 47.359375 69.109375 
Q 53.90625 64.015625 53.90625 55.328125 
Q 53.90625 49.265625 50.4375 45.09375 
Q 46.96875 40.921875 40.578125 39.3125 
z
" id="DejaVuSans-33"/>
    </defs>
    <g transform="translate(369.479935 156.979466)scale(0.17 -0.17)">
     <use xlink:href="#DejaVuSans-66"/>
     <use x="35.205078" xlink:href="#DejaVuSans-31"/>
     <use x="98.828125" xlink:href="#DejaVuSans-33"/>
    </g>
   </g>
   <g id="text_17">
    <!-- f12 -->
    <g transform="translate(369.479935 88.53556)scale(0.17 -0.17)">
     <use xlink:href="#DejaVuSans-66"/>
     <use x="35.205078" xlink:href="#DejaVuSans-31"/>
     <use x="98.828125" xlink:href="#DejaVuSans-32"/>
    </g>
   </g>
   <g id="text_18">
    <!-- f14 -->
    <g transform="translate(369.479935 20.091654)scale(0.17 -0.17)">
     <use xlink:href="#DejaVuSans-66"/>
     <use x="35.205078" xlink:href="#DejaVuSans-31"/>
     <use x="98.828125" xlink:href="#DejaVuSans-34"/>
    </g>
   </g>
   <g id="text_19">
    <!-- bbob -->
    <defs>
     <path d="M 48.6875 27.296875 
Q 48.6875 37.203125 44.609375 42.84375 
Q 40.53125 48.484375 33.40625 48.484375 
Q 26.265625 48.484375 22.1875 42.84375 
Q 18.109375 37.203125 18.109375 27.296875 
Q 18.109375 17.390625 22.1875 11.75 
Q 26.265625 6.109375 33.40625 6.109375 
Q 40.53125 6.109375 44.609375 11.75 
Q 48.6875 17.390625 48.6875 27.296875 
z
M 18.109375 46.390625 
Q 20.953125 51.265625 25.265625 53.625 
Q 29.59375 56 35.59375 56 
Q 45.5625 56 51.78125 48.09375 
Q 58.015625 40.1875 58.015625 27.296875 
Q 58.015625 14.40625 51.78125 6.484375 
Q 45.5625 -1.421875 35.59375 -1.421875 
Q 29.59375 -1.421875 25.265625 0.953125 
Q 20.953125 3.328125 18.109375 8.203125 
L 18.109375 0 
L 9.078125 0 
L 9.078125 75.984375 
L 18.109375 75.984375 
z
" id="DejaVuSans-62"/>
    </defs>
    <g transform="translate(59.55864 17.475982)scale(0.102 -0.102)">
     <use xlink:href="#DejaVuSans-62"/>
     <use x="63.476562" xlink:href="#DejaVuSans-62"/>
     <use x="126.953125" xlink:href="#DejaVuSans-6f"/>
     <use x="188.134766" xlink:href="#DejaVuSans-62"/>
    </g>
    <!-- Ill-conditioned functions, 2-D -->
    <defs>
     <path d="M 9.8125 72.90625 
L 19.671875 72.90625 
L 19.671875 0 
L 9.8125 0 
z
" id="DejaVuSans-49"/>
     <path d="M 19.671875 64.796875 
L 19.671875 8.109375 
L 31.59375 8.109375 
Q 46.6875 8.109375 53.6875 14.9375 
Q 60.6875 21.78125 60.6875 36.53125 
Q 60.6875 51.171875 53.6875 57.984375 
Q 46.6875 64.796875 31.59375 64.796875 
z
M 9.8125 72.90625 
L 30.078125 72.90625 
Q 51.265625 72.90625 61.171875 64.09375 
Q 71.09375 55.28125 71.09375 36.53125 
Q 71.09375 17.671875 61.125 8.828125 
Q 51.171875 0 30.078125 0 
L 9.8125 0 
z
" id="DejaVuSans-44"/>
    </defs>
    <g transform="translate(59.55864 28.89775)scale(0.102 -0.102)">
     <use xlink:href="#DejaVuSans-49"/>
     <use x="29.492188" xlink:href="#DejaVuSans-6c"/>
     <use x="57.275391" xlink:href="#DejaVuSans-6c"/>
     <use x="85.058594" xlink:href="#DejaVuSans-2d"/>
     <use x="121.142578" xlink:href="#DejaVuSans-63"/>
     <use x="176.123047" xlink:href="#DejaVuSans-6f"/>
     <use x="237.304688" xlink:href="#DejaVuSans-6e"/>
     <use x="300.683594" xlink:href="#DejaVuSans-64"/>
     <use x="364.160156" xlink:href="#DejaVuSans-69"/>
     <use x="391.943359" xlink:href="#DejaVuSans-74"/>
     <use x="431.152344" xlink:href="#DejaVuSans-69"/>
     <use x="458.935547" xlink:href="#DejaVuSans-6f"/>
     <use x="520.117188" xlink:href="#DejaVuSans-6e"/>
     <use x="583.496094" xlink:href="#DejaVuSans-65"/>
     <use x="645.019531" xlink:href="#DejaVuSans-64"/>
     <use x="708.496094" xlink:href="#DejaVuSans-20"/>
     <use x="740.283203" xlink:href="#DejaVuSans-66"/>
     <use x="775.488281" xlink:href="#DejaVuSans-75"/>
     <use x="838.867188" xlink:href="#DejaVuSans-6e"/>
     <use x="902.246094" xlink:href="#DejaVuSans-63"/>
     <use x="957.226562" xlink:href="#DejaVuSans-74"/>
     <use x="996.435547" xlink:href="#DejaVuSans-69"/>
     <use x="1024.21875" xlink:href="#DejaVuSans-6f"/>
     <use x="1085.400391" xlink:href="#DejaVuSans-6e"/>
     <use x="1148.779297" xlink:href="#DejaVuSans-73"/>
     <use x="1200.878906" xlink:href="#DejaVuSans-2c"/>
     <use x="1232.666016" xlink:href="#DejaVuSans-20"/>
     <use x="1264.453125" xlink:href="#DejaVuSans-32"/>
     <use x="1328.076172" xlink:href="#DejaVuSans-2d"/>
     <use x="1364.160156" xlink:href="#DejaVuSans-44"/>
    </g>
    <!-- 51 targets: 100..1e-08 -->
    <defs>
     <path d="M 10.796875 72.90625 
L 49.515625 72.90625 
L 49.515625 64.59375 
L 19.828125 64.59375 
L 19.828125 46.734375 
Q 21.96875 47.46875 24.109375 47.828125 
Q 26.265625 48.1875 28.421875 48.1875 
Q 40.625 48.1875 47.75 41.5 
Q 54.890625 34.8125 54.890625 23.390625 
Q 54.890625 11.625 47.5625 5.09375 
Q 40.234375 -1.421875 26.90625 -1.421875 
Q 22.3125 -1.421875 17.546875 -0.640625 
Q 12.796875 0.140625 7.71875 1.703125 
L 7.71875 11.625 
Q 12.109375 9.234375 16.796875 8.0625 
Q 21.484375 6.890625 26.703125 6.890625 
Q 35.15625 6.890625 40.078125 11.328125 
Q 45.015625 15.765625 45.015625 23.390625 
Q 45.015625 31 40.078125 35.4375 
Q 35.15625 39.890625 26.703125 39.890625 
Q 22.75 39.890625 18.8125 39.015625 
Q 14.890625 38.140625 10.796875 36.28125 
z
" id="DejaVuSans-35"/>
     <path d="M 11.71875 12.40625 
L 22.015625 12.40625 
L 22.015625 0 
L 11.71875 0 
z
M 11.71875 51.703125 
L 22.015625 51.703125 
L 22.015625 39.3125 
L 11.71875 39.3125 
z
" id="DejaVuSans-3a"/>
    </defs>
    <g transform="translate(59.55864 40.319519)scale(0.102 -0.102)">
     <use xlink:href="#DejaVuSans-35"/>
     <use x="63.623047" xlink:href="#DejaVuSans-31"/>
     <use x="127.246094" xlink:href="#DejaVuSans-20"/>
     <use x="159.033203" xlink:href="#DejaVuSans-74"/>
     <use x="198.242188" xlink:href="#DejaVuSans-61"/>
     <use x="259.521484" xlink:href="#DejaVuSans-72"/>
     <use x="300.619141" xlink:href="#DejaVuSans-67"/>
     <use x="364.095703" xlink:href="#DejaVuSans-65"/>
     <use x="425.619141" xlink:href="#DejaVuSans-74"/>
     <use x="464.828125" xlink:href="#DejaVuSans-73"/>
     <use x="516.927734" xlink:href="#DejaVuSans-3a"/>
     <use x="550.619141" xlink:href="#DejaVuSans-20"/>
     <use x="582.40625" xlink:href="#DejaVuSans-31"/>
     <use x="646.029297" xlink:href="#DejaVuSans-30"/>
     <use x="709.652344" xlink:href="#DejaVuSans-30"/>
     <use x="773.275391" xlink:href="#DejaVuSans-2e"/>
     <use x="805.0625" xlink:href="#DejaVuSans-2e"/>
     <use x="836.849609" xlink:href="#DejaVuSans-31"/>
     <use x="900.472656" xlink:href="#DejaVuSans-65"/>
     <use x="961.996094" xlink:href="#DejaVuSans-2d"/>
     <use x="998.080078" xlink:href="#DejaVuSans-30"/>
     <use x="1061.703125" xlink:href="#DejaVuSans-38"/>
    </g>
    <!-- 15 instances -->
    <g transform="translate(59.55864 51.741288)scale(0.102 -0.102)">
     <use xlink:href="#DejaVuSans-31"/>
     <use x="63.623047" xlink:href="#DejaVuSans-35"/>
     <use x="127.246094" xlink:href="#DejaVuSans-20"/>
     <use x="159.033203" xlink:href="#DejaVuSans-69"/>
     <use x="186.816406" xlink:href="#DejaVuSans-6e"/>
     <use x="250.195312" xlink:href="#DejaVuSans-73"/>
     <use x="302.294922" xlink:href="#DejaVuSans-74"/>
     <use x="341.503906" xlink:href="#DejaVuSans-61"/>
     <use x="402.783203" xlink:href="#DejaVuSans-6e"/>
     <use x="466.162109" xlink:href="#DejaVuSans-63"/>
     <use x="521.142578" xlink:href="#DejaVuSans-65"/>
     <use x="582.666016" xlink:href="#DejaVuSans-73"/>
    </g>
   </g>
   <g id="text_20">
    <!-- v2.2.1.10 -->
    <g style="fill:#808080;" transform="translate(204.419188 289.919965)scale(0.1 -0.1)">
     <use xlink:href="#DejaVuSans-76"/>
     <use x="59.179688" xlink:href="#DejaVuSans-32"/>
     <use x="122.802734" xlink:href="#DejaVuSans-2e"/>
     <use x="154.589844" xlink:href="#DejaVuSans-32"/>
     <use x="218.212891" xlink:href="#DejaVuSans-2e"/>
     <use x="250" xlink:href="#DejaVuSans-31"/>
     <use x="313.623047" xlink:href="#DejaVuSans-2e"/>
     <use x="345.410156" xlink:href="#DejaVuSans-31"/>
     <use x="409.033203" xlink:href="#DejaVuSans-30"/>
    </g>
   </g>
  </g>
 </g>
 <defs>
  <clipPath id="p80c1461087">
   <rect height="288.034772" width="343.864" x="56.12" y="6.845228"/>
  </clipPath>
 </defs>
</svg>
