<?xml version="1.0" encoding="utf-8" standalone="no"?>
<!DOCTYPE svg PUBLIC "-//W3C//DTD SVG 1.1//EN"
  "http://www.w3.org/Graphics/SVG/1.1/DTD/svg11.dtd">
<!-- Created with matplotlib (http://matplotlib.org/) -->
<svg height="345.6pt" version="1.1" viewBox="0 0 460.8 345.6" width="460.8pt" xmlns="http://www.w3.org/2000/svg" xmlns:xlink="http://www.w3.org/1999/xlink">
 <defs>
  <style type="text/css">
*{stroke-linecap:butt;stroke-linejoin:round;}
  </style>
 </defs>
 <g id="figure_1">
  <g id="patch_1">
   <path d="M 0 345.6 
L 460.8 345.6 
L 460.8 0 
L 0 0 
z
" style="fill:#ffffff;"/>
  </g>
  <g id="axes_1">
   <g id="patch_2">
    <path d="M 56.12 294.88 
L 399.984 294.88 
L 399.984 6.845228 
L 56.12 6.845228 
z
" style="fill:#ffffff;"/>
   </g>
   <g id="matplotlib.axis_1">
    <g id="xtick_1">
     <g id="line2d_1">
      <path clip-path="url(#peba0b5f6ed)" d="M 56.12 294.88 
L 56.12 6.845228 
" style="fill:none;stroke:#b0b0b0;stroke-linecap:square;stroke-width:0.8;"/>
     </g>
     <g id="line2d_2">
      <defs>
       <path d="M 0 0 
L 0 3.5 
" id="m0eec21626f" style="stroke:#000000;stroke-width:0.8;"/>
      </defs>
      <g>
       <use style="stroke:#000000;stroke-width:0.8;" x="56.12" xlink:href="#m0eec21626f" y="294.88"/>
      </g>
     </g>
     <g id="text_1">
      <!-- 0 -->
      <defs>
       <path d="M 31.78125 66.40625 
Q 24.171875 66.40625 20.328125 58.90625 
Q 16.5 51.421875 16.5 36.375 
Q 16.5 21.390625 20.328125 13.890625 
Q 24.171875 6.390625 31.78125 6.390625 
Q 39.453125 6.390625 43.28125 13.890625 
Q 47.125 21.390625 47.125 36.375 
Q 47.125 51.421875 43.28125 58.90625 
Q 39.453125 66.40625 31.78125 66.40625 
z
M 31.78125 74.21875 
Q 44.046875 74.21875 50.515625 64.515625 
Q 56.984375 54.828125 56.984375 36.375 
Q 56.984375 17.96875 50.515625 8.265625 
Q 44.046875 -1.421875 31.78125 -1.421875 
Q 19.53125 -1.421875 13.0625 8.265625 
Q 6.59375 17.96875 6.59375 36.375 
Q 6.59375 54.828125 13.0625 64.515625 
Q 19.53125 74.21875 31.78125 74.21875 
z
" id="DejaVuSans-30"/>
      </defs>
      <g transform="translate(49.7575 317.076875)scale(0.2 -0.2)">
       <use xlink:href="#DejaVuSans-30"/>
      </g>
     </g>
    </g>
    <g id="xtick_2">
     <g id="line2d_3">
      <path clip-path="url(#peba0b5f6ed)" d="M 135.351336 294.88 
L 135.351336 6.845228 
" style="fill:none;stroke:#b0b0b0;stroke-linecap:square;stroke-width:0.8;"/>
     </g>
     <g id="line2d_4">
      <g>
       <use style="stroke:#000000;stroke-width:0.8;" x="135.351336" xlink:href="#m0eec21626f" y="294.88"/>
      </g>
     </g>
     <g id="text_2">
      <!-- 2 -->
      <defs>
       <path d="M 19.1875 8.296875 
L 53.609375 8.296875 
L 53.609375 0 
L 7.328125 0 
L 7.328125 8.296875 
Q 12.9375 14.109375 22.625 23.890625 
Q 32.328125 33.6875 34.8125 36.53125 
Q 39.546875 41.84375 41.421875 45.53125 
Q 43.3125 49.21875 43.3125 52.78125 
Q 43.3125 58.59375 39.234375 62.25 
Q 35.15625 65.921875 28.609375 65.921875 
Q 23.96875 65.921875 18.8125 64.3125 
Q 13.671875 62.703125 7.8125 59.421875 
L 7.8125 69.390625 
Q 13.765625 71.78125 18.9375 73 
Q 24.125 74.21875 28.421875 74.21875 
Q 39.75 74.21875 46.484375 68.546875 
Q 53.21875 62.890625 53.21875 53.421875 
Q 53.21875 48.921875 51.53125 44.890625 
Q 49.859375 40.875 45.40625 35.40625 
Q 44.1875 33.984375 37.640625 27.21875 
Q 31.109375 20.453125 19.1875 8.296875 
z
" id="DejaVuSans-32"/>
      </defs>
      <g transform="translate(128.988836 317.076875)scale(0.2 -0.2)">
       <use xlink:href="#DejaVuSans-32"/>
      </g>
     </g>
    </g>
    <g id="xtick_3">
     <g id="line2d_5">
      <path clip-path="url(#peba0b5f6ed)" d="M 214.582673 294.88 
L 214.582673 6.845228 
" style="fill:none;stroke:#b0b0b0;stroke-linecap:square;stroke-width:0.8;"/>
     </g>
     <g id="line2d_6">
      <g>
       <use style="stroke:#000000;stroke-width:0.8;" x="214.582673" xlink:href="#m0eec21626f" y="294.88"/>
      </g>
     </g>
     <g id="text_3">
      <!-- 4 -->
      <defs>
       <path d="M 37.796875 64.3125 
L 12.890625 25.390625 
L 37.796875 25.390625 
z
M 35.203125 72.90625 
L 47.609375 72.90625 
L 47.609375 25.390625 
L 58.015625 25.390625 
L 58.015625 17.1875 
L 47.609375 17.1875 
L 47.609375 0 
L 37.796875 0 
L 37.796875 17.1875 
L 4.890625 17.1875 
L 4.890625 26.703125 
z
" id="DejaVuSans-34"/>
      </defs>
      <g transform="translate(208.220173 317.076875)scale(0.2 -0.2)">
       <use xlink:href="#DejaVuSans-34"/>
      </g>
     </g>
    </g>
    <g id="xtick_4">
     <g id="line2d_7">
      <path clip-path="url(#peba0b5f6ed)" d="M 293.814009 294.88 
L 293.814009 6.845228 
" style="fill:none;stroke:#b0b0b0;stroke-linecap:square;stroke-width:0.8;"/>
     </g>
     <g id="line2d_8">
      <g>
       <use style="stroke:#000000;stroke-width:0.8;" x="293.814009" xlink:href="#m0eec21626f" y="294.88"/>
      </g>
     </g>
     <g id="text_4">
      <!-- 6 -->
      <defs>
       <path d="M 33.015625 40.375 
Q 26.375 40.375 22.484375 35.828125 
Q 18.609375 31.296875 18.609375 23.390625 
Q 18.609375 15.53125 22.484375 10.953125 
Q 26.375 6.390625 33.015625 6.390625 
Q 39.65625 6.390625 43.53125 10.953125 
Q 47.40625 15.53125 47.40625 23.390625 
Q 47.40625 31.296875 43.53125 35.828125 
Q 39.65625 40.375 33.015625 40.375 
z
M 52.59375 71.296875 
L 52.59375 62.3125 
Q 48.875 64.0625 45.09375 64.984375 
Q 41.3125 65.921875 37.59375 65.921875 
Q 27.828125 65.921875 22.671875 59.328125 
Q 17.53125 52.734375 16.796875 39.40625 
Q 19.671875 43.65625 24.015625 45.921875 
Q 28.375 48.1875 33.59375 48.1875 
Q 44.578125 48.1875 50.953125 41.515625 
Q 57.328125 34.859375 57.328125 23.390625 
Q 57.328125 12.15625 50.6875 5.359375 
Q 44.046875 -1.421875 33.015625 -1.421875 
Q 20.359375 -1.421875 13.671875 8.265625 
Q 6.984375 17.96875 6.984375 36.375 
Q 6.984375 53.65625 15.1875 63.9375 
Q 23.390625 74.21875 37.203125 74.21875 
Q 40.921875 74.21875 44.703125 73.484375 
Q 48.484375 72.75 52.59375 71.296875 
z
" id="DejaVuSans-36"/>
      </defs>
      <g transform="translate(287.451509 317.076875)scale(0.2 -0.2)">
       <use xlink:href="#DejaVuSans-36"/>
      </g>
     </g>
    </g>
    <g id="xtick_5">
     <g id="line2d_9">
      <path clip-path="url(#peba0b5f6ed)" d="M 373.045346 294.88 
L 373.045346 6.845228 
" style="fill:none;stroke:#b0b0b0;stroke-linecap:square;stroke-width:0.8;"/>
     </g>
     <g id="line2d_10">
      <g>
       <use style="stroke:#000000;stroke-width:0.8;" x="373.045346" xlink:href="#m0eec21626f" y="294.88"/>
      </g>
     </g>
     <g id="text_5">
      <!-- 8 -->
      <defs>
       <path d="M 31.78125 34.625 
Q 24.75 34.625 20.71875 30.859375 
Q 16.703125 27.09375 16.703125 20.515625 
Q 16.703125 13.921875 20.71875 10.15625 
Q 24.75 6.390625 31.78125 6.390625 
Q 38.8125 6.390625 42.859375 10.171875 
Q 46.921875 13.96875 46.921875 20.515625 
Q 46.921875 27.09375 42.890625 30.859375 
Q 38.875 34.625 31.78125 34.625 
z
M 21.921875 38.8125 
Q 15.578125 40.375 12.03125 44.71875 
Q 8.5 49.078125 8.5 55.328125 
Q 8.5 64.0625 14.71875 69.140625 
Q 20.953125 74.21875 31.78125 74.21875 
Q 42.671875 74.21875 48.875 69.140625 
Q 55.078125 64.0625 55.078125 55.328125 
Q 55.078125 49.078125 51.53125 44.71875 
Q 48 40.375 41.703125 38.8125 
Q 48.828125 37.15625 52.796875 32.3125 
Q 56.78125 27.484375 56.78125 20.515625 
Q 56.78125 9.90625 50.3125 4.234375 
Q 43.84375 -1.421875 31.78125 -1.421875 
Q 19.734375 -1.421875 13.25 4.234375 
Q 6.78125 9.90625 6.78125 20.515625 
Q 6.78125 27.484375 10.78125 32.3125 
Q 14.796875 37.15625 21.921875 38.8125 
z
M 18.3125 54.390625 
Q 18.3125 48.734375 21.84375 45.5625 
Q 25.390625 42.390625 31.78125 42.390625 
Q 38.140625 42.390625 41.71875 45.5625 
Q 45.3125 48.734375 45.3125 54.390625 
Q 45.3125 60.0625 41.71875 63.234375 
Q 38.140625 66.40625 31.78125 66.40625 
Q 25.390625 66.40625 21.84375 63.234375 
Q 18.3125 60.0625 18.3125 54.390625 
z
" id="DejaVuSans-38"/>
      </defs>
      <g transform="translate(366.682846 317.076875)scale(0.2 -0.2)">
       <use xlink:href="#DejaVuSans-38"/>
      </g>
     </g>
    </g>
    <g id="text_6">
     <!-- log10(# f-evals / dimension) -->
     <defs>
      <path d="M 9.421875 75.984375 
L 18.40625 75.984375 
L 18.40625 0 
L 9.421875 0 
z
" id="DejaVuSans-6c"/>
      <path d="M 30.609375 48.390625 
Q 23.390625 48.390625 19.1875 42.75 
Q 14.984375 37.109375 14.984375 27.296875 
Q 14.984375 17.484375 19.15625 11.84375 
Q 23.34375 6.203125 30.609375 6.203125 
Q 37.796875 6.203125 41.984375 11.859375 
Q 46.1875 17.53125 46.1875 27.296875 
Q 46.1875 37.015625 41.984375 42.703125 
Q 37.796875 48.390625 30.609375 48.390625 
z
M 30.609375 56 
Q 42.328125 56 49.015625 48.375 
Q 55.71875 40.765625 55.71875 27.296875 
Q 55.71875 13.875 49.015625 6.21875 
Q 42.328125 -1.421875 30.609375 -1.421875 
Q 18.84375 -1.421875 12.171875 6.21875 
Q 5.515625 13.875 5.515625 27.296875 
Q 5.515625 40.765625 12.171875 48.375 
Q 18.84375 56 30.609375 56 
z
" id="DejaVuSans-6f"/>
      <path d="M 45.40625 27.984375 
Q 45.40625 37.75 41.375 43.109375 
Q 37.359375 48.484375 30.078125 48.484375 
Q 22.859375 48.484375 18.828125 43.109375 
Q 14.796875 37.75 14.796875 27.984375 
Q 14.796875 18.265625 18.828125 12.890625 
Q 22.859375 7.515625 30.078125 7.515625 
Q 37.359375 7.515625 41.375 12.890625 
Q 45.40625 18.265625 45.40625 27.984375 
z
M 54.390625 6.78125 
Q 54.390625 -7.171875 48.1875 -13.984375 
Q 42 -20.796875 29.203125 -20.796875 
Q 24.46875 -20.796875 20.265625 -20.09375 
Q 16.0625 -19.390625 12.109375 -17.921875 
L 12.109375 -9.1875 
Q 16.0625 -11.328125 19.921875 -12.34375 
Q 23.78125 -13.375 27.78125 -13.375 
Q 36.625 -13.375 41.015625 -8.765625 
Q 45.40625 -4.15625 45.40625 5.171875 
L 45.40625 9.625 
Q 42.625 4.78125 38.28125 2.390625 
Q 33.9375 0 27.875 0 
Q 17.828125 0 11.671875 7.65625 
Q 5.515625 15.328125 5.515625 27.984375 
Q 5.515625 40.671875 11.671875 48.328125 
Q 17.828125 56 27.875 56 
Q 33.9375 56 38.28125 53.609375 
Q 42.625 51.21875 45.40625 46.390625 
L 45.40625 54.6875 
L 54.390625 54.6875 
z
" id="DejaVuSans-67"/>
      <path d="M 12.40625 8.296875 
L 28.515625 8.296875 
L 28.515625 63.921875 
L 10.984375 60.40625 
L 10.984375 69.390625 
L 28.421875 72.90625 
L 38.28125 72.90625 
L 38.28125 8.296875 
L 54.390625 8.296875 
L 54.390625 0 
L 12.40625 0 
z
" id="DejaVuSans-31"/>
      <path d="M 31 75.875 
Q 24.46875 64.65625 21.28125 53.65625 
Q 18.109375 42.671875 18.109375 31.390625 
Q 18.109375 20.125 21.3125 9.0625 
Q 24.515625 -2 31 -13.1875 
L 23.1875 -13.1875 
Q 15.875 -1.703125 12.234375 9.375 
Q 8.59375 20.453125 8.59375 31.390625 
Q 8.59375 42.28125 12.203125 53.3125 
Q 15.828125 64.359375 23.1875 75.875 
z
" id="DejaVuSans-28"/>
      <path d="M 51.125 44 
L 36.921875 44 
L 32.8125 27.6875 
L 47.125 27.6875 
z
M 43.796875 71.78125 
L 38.71875 51.515625 
L 52.984375 51.515625 
L 58.109375 71.78125 
L 65.921875 71.78125 
L 60.890625 51.515625 
L 76.125 51.515625 
L 76.125 44 
L 58.984375 44 
L 54.984375 27.6875 
L 70.515625 27.6875 
L 70.515625 20.21875 
L 53.078125 20.21875 
L 48 0 
L 40.1875 0 
L 45.21875 20.21875 
L 30.90625 20.21875 
L 25.875 0 
L 18.015625 0 
L 23.09375 20.21875 
L 7.71875 20.21875 
L 7.71875 27.6875 
L 24.90625 27.6875 
L 29 44 
L 13.28125 44 
L 13.28125 51.515625 
L 30.90625 51.515625 
L 35.890625 71.78125 
z
" id="DejaVuSans-23"/>
      <path id="DejaVuSans-20"/>
      <path d="M 37.109375 75.984375 
L 37.109375 68.5 
L 28.515625 68.5 
Q 23.6875 68.5 21.796875 66.546875 
Q 19.921875 64.59375 19.921875 59.515625 
L 19.921875 54.6875 
L 34.71875 54.6875 
L 34.71875 47.703125 
L 19.921875 47.703125 
L 19.921875 0 
L 10.890625 0 
L 10.890625 47.703125 
L 2.296875 47.703125 
L 2.296875 54.6875 
L 10.890625 54.6875 
L 10.890625 58.5 
Q 10.890625 67.625 15.140625 71.796875 
Q 19.390625 75.984375 28.609375 75.984375 
z
" id="DejaVuSans-66"/>
      <path d="M 4.890625 31.390625 
L 31.203125 31.390625 
L 31.203125 23.390625 
L 4.890625 23.390625 
z
" id="DejaVuSans-2d"/>
      <path d="M 56.203125 29.59375 
L 56.203125 25.203125 
L 14.890625 25.203125 
Q 15.484375 15.921875 20.484375 11.0625 
Q 25.484375 6.203125 34.421875 6.203125 
Q 39.59375 6.203125 44.453125 7.46875 
Q 49.3125 8.734375 54.109375 11.28125 
L 54.109375 2.78125 
Q 49.265625 0.734375 44.1875 -0.34375 
Q 39.109375 -1.421875 33.890625 -1.421875 
Q 20.796875 -1.421875 13.15625 6.1875 
Q 5.515625 13.8125 5.515625 26.8125 
Q 5.515625 40.234375 12.765625 48.109375 
Q 20.015625 56 32.328125 56 
Q 43.359375 56 49.78125 48.890625 
Q 56.203125 41.796875 56.203125 29.59375 
z
M 47.21875 32.234375 
Q 47.125 39.59375 43.09375 43.984375 
Q 39.0625 48.390625 32.421875 48.390625 
Q 24.90625 48.390625 20.390625 44.140625 
Q 15.875 39.890625 15.1875 32.171875 
z
" id="DejaVuSans-65"/>
      <path d="M 2.984375 54.6875 
L 12.5 54.6875 
L 29.59375 8.796875 
L 46.6875 54.6875 
L 56.203125 54.6875 
L 35.6875 0 
L 23.484375 0 
z
" id="DejaVuSans-76"/>
      <path d="M 34.28125 27.484375 
Q 23.390625 27.484375 19.1875 25 
Q 14.984375 22.515625 14.984375 16.5 
Q 14.984375 11.71875 18.140625 8.90625 
Q 21.296875 6.109375 26.703125 6.109375 
Q 34.1875 6.109375 38.703125 11.40625 
Q 43.21875 16.703125 43.21875 25.484375 
L 43.21875 27.484375 
z
M 52.203125 31.203125 
L 52.203125 0 
L 43.21875 0 
L 43.21875 8.296875 
Q 40.140625 3.328125 35.546875 0.953125 
Q 30.953125 -1.421875 24.3125 -1.421875 
Q 15.921875 -1.421875 10.953125 3.296875 
Q 6 8.015625 6 15.921875 
Q 6 25.140625 12.171875 29.828125 
Q 18.359375 34.515625 30.609375 34.515625 
L 43.21875 34.515625 
L 43.21875 35.40625 
Q 43.21875 41.609375 39.140625 45 
Q 35.0625 48.390625 27.6875 48.390625 
Q 23 48.390625 18.546875 47.265625 
Q 14.109375 46.140625 10.015625 43.890625 
L 10.015625 52.203125 
Q 14.9375 54.109375 19.578125 55.046875 
Q 24.21875 56 28.609375 56 
Q 40.484375 56 46.34375 49.84375 
Q 52.203125 43.703125 52.203125 31.203125 
z
" id="DejaVuSans-61"/>
      <path d="M 44.28125 53.078125 
L 44.28125 44.578125 
Q 40.484375 46.53125 36.375 47.5 
Q 32.28125 48.484375 27.875 48.484375 
Q 21.1875 48.484375 17.84375 46.4375 
Q 14.5 44.390625 14.5 40.28125 
Q 14.5 37.15625 16.890625 35.375 
Q 19.28125 33.59375 26.515625 31.984375 
L 29.59375 31.296875 
Q 39.15625 29.25 43.1875 25.515625 
Q 47.21875 21.78125 47.21875 15.09375 
Q 47.21875 7.46875 41.1875 3.015625 
Q 35.15625 -1.421875 24.609375 -1.421875 
Q 20.21875 -1.421875 15.453125 -0.5625 
Q 10.6875 0.296875 5.421875 2 
L 5.421875 11.28125 
Q 10.40625 8.6875 15.234375 7.390625 
Q 20.0625 6.109375 24.8125 6.109375 
Q 31.15625 6.109375 34.5625 8.28125 
Q 37.984375 10.453125 37.984375 14.40625 
Q 37.984375 18.0625 35.515625 20.015625 
Q 33.0625 21.96875 24.703125 23.78125 
L 21.578125 24.515625 
Q 13.234375 26.265625 9.515625 29.90625 
Q 5.8125 33.546875 5.8125 39.890625 
Q 5.8125 47.609375 11.28125 51.796875 
Q 16.75 56 26.8125 56 
Q 31.78125 56 36.171875 55.265625 
Q 40.578125 54.546875 44.28125 53.078125 
z
" id="DejaVuSans-73"/>
      <path d="M 25.390625 72.90625 
L 33.6875 72.90625 
L 8.296875 -9.28125 
L 0 -9.28125 
z
" id="DejaVuSans-2f"/>
      <path d="M 45.40625 46.390625 
L 45.40625 75.984375 
L 54.390625 75.984375 
L 54.390625 0 
L 45.40625 0 
L 45.40625 8.203125 
Q 42.578125 3.328125 38.25 0.953125 
Q 33.9375 -1.421875 27.875 -1.421875 
Q 17.96875 -1.421875 11.734375 6.484375 
Q 5.515625 14.40625 5.515625 27.296875 
Q 5.515625 40.1875 11.734375 48.09375 
Q 17.96875 56 27.875 56 
Q 33.9375 56 38.25 53.625 
Q 42.578125 51.265625 45.40625 46.390625 
z
M 14.796875 27.296875 
Q 14.796875 17.390625 18.875 11.75 
Q 22.953125 6.109375 30.078125 6.109375 
Q 37.203125 6.109375 41.296875 11.75 
Q 45.40625 17.390625 45.40625 27.296875 
Q 45.40625 37.203125 41.296875 42.84375 
Q 37.203125 48.484375 30.078125 48.484375 
Q 22.953125 48.484375 18.875 42.84375 
Q 14.796875 37.203125 14.796875 27.296875 
z
" id="DejaVuSans-64"/>
      <path d="M 9.421875 54.6875 
L 18.40625 54.6875 
L 18.40625 0 
L 9.421875 0 
z
M 9.421875 75.984375 
L 18.40625 75.984375 
L 18.40625 64.59375 
L 9.421875 64.59375 
z
" id="DejaVuSans-69"/>
      <path d="M 52 44.1875 
Q 55.375 50.25 60.0625 53.125 
Q 64.75 56 71.09375 56 
Q 79.640625 56 84.28125 50.015625 
Q 88.921875 44.046875 88.921875 33.015625 
L 88.921875 0 
L 79.890625 0 
L 79.890625 32.71875 
Q 79.890625 40.578125 77.09375 44.375 
Q 74.3125 48.1875 68.609375 48.1875 
Q 61.625 48.1875 57.5625 43.546875 
Q 53.515625 38.921875 53.515625 30.90625 
L 53.515625 0 
L 44.484375 0 
L 44.484375 32.71875 
Q 44.484375 40.625 41.703125 44.40625 
Q 38.921875 48.1875 33.109375 48.1875 
Q 26.21875 48.1875 22.15625 43.53125 
Q 18.109375 38.875 18.109375 30.90625 
L 18.109375 0 
L 9.078125 0 
L 9.078125 54.6875 
L 18.109375 54.6875 
L 18.109375 46.1875 
Q 21.1875 51.21875 25.484375 53.609375 
Q 29.78125 56 35.6875 56 
Q 41.65625 56 45.828125 52.96875 
Q 50 49.953125 52 44.1875 
z
" id="DejaVuSans-6d"/>
      <path d="M 54.890625 33.015625 
L 54.890625 0 
L 45.90625 0 
L 45.90625 32.71875 
Q 45.90625 40.484375 42.875 44.328125 
Q 39.84375 48.1875 33.796875 48.1875 
Q 26.515625 48.1875 22.3125 43.546875 
Q 18.109375 38.921875 18.109375 30.90625 
L 18.109375 0 
L 9.078125 0 
L 9.078125 54.6875 
L 18.109375 54.6875 
L 18.109375 46.1875 
Q 21.34375 51.125 25.703125 53.5625 
Q 30.078125 56 35.796875 56 
Q 45.21875 56 50.046875 50.171875 
Q 54.890625 44.34375 54.890625 33.015625 
z
" id="DejaVuSans-6e"/>
      <path d="M 8.015625 75.875 
L 15.828125 75.875 
Q 23.140625 64.359375 26.78125 53.3125 
Q 30.421875 42.28125 30.421875 31.390625 
Q 30.421875 20.453125 26.78125 9.375 
Q 23.140625 -1.703125 15.828125 -13.1875 
L 8.015625 -13.1875 
Q 14.5 -2 17.703125 9.0625 
Q 20.90625 20.125 20.90625 31.390625 
Q 20.90625 42.671875 17.703125 53.65625 
Q 14.5 64.65625 8.015625 75.875 
z
" id="DejaVuSans-29"/>
     </defs>
     <g transform="translate(107.211219 338.153594)scale(0.17 -0.17)">
      <use xlink:href="#DejaVuSans-6c"/>
      <use x="27.783203" xlink:href="#DejaVuSans-6f"/>
      <use x="88.964844" xlink:href="#DejaVuSans-67"/>
      <use x="152.441406" xlink:href="#DejaVuSans-31"/>
      <use x="216.064453" xlink:href="#DejaVuSans-30"/>
      <use x="279.6875" xlink:href="#DejaVuSans-28"/>
      <use x="318.701172" xlink:href="#DejaVuSans-23"/>
      <use x="402.490234" xlink:href="#DejaVuSans-20"/>
      <use x="434.277344" xlink:href="#DejaVuSans-66"/>
      <use x="469.404297" xlink:href="#DejaVuSans-2d"/>
      <use x="505.488281" xlink:href="#DejaVuSans-65"/>
      <use x="567.011719" xlink:href="#DejaVuSans-76"/>
      <use x="626.191406" xlink:href="#DejaVuSans-61"/>
      <use x="687.470703" xlink:href="#DejaVuSans-6c"/>
      <use x="715.253906" xlink:href="#DejaVuSans-73"/>
      <use x="767.353516" xlink:href="#DejaVuSans-20"/>
      <use x="799.140625" xlink:href="#DejaVuSans-2f"/>
      <use x="832.832031" xlink:href="#DejaVuSans-20"/>
      <use x="864.619141" xlink:href="#DejaVuSans-64"/>
      <use x="928.095703" xlink:href="#DejaVuSans-69"/>
      <use x="955.878906" xlink:href="#DejaVuSans-6d"/>
      <use x="1053.291016" xlink:href="#DejaVuSans-65"/>
      <use x="1114.814453" xlink:href="#DejaVuSans-6e"/>
      <use x="1178.193359" xlink:href="#DejaVuSans-73"/>
      <use x="1230.292969" xlink:href="#DejaVuSans-69"/>
      <use x="1258.076172" xlink:href="#DejaVuSans-6f"/>
      <use x="1319.257812" xlink:href="#DejaVuSans-6e"/>
      <use x="1382.636719" xlink:href="#DejaVuSans-29"/>
     </g>
    </g>
   </g>
   <g id="matplotlib.axis_2">
    <g id="ytick_1">
     <g id="line2d_11">
      <path clip-path="url(#peba0b5f6ed)" d="M 56.12 294.88 
L 399.984 294.88 
" style="fill:none;stroke:#b0b0b0;stroke-linecap:square;stroke-width:0.8;"/>
     </g>
     <g id="line2d_12">
      <defs>
       <path d="M 0 0 
L -3.5 0 
" id="m38facf8ba0" style="stroke:#000000;stroke-width:0.8;"/>
      </defs>
      <g>
       <use style="stroke:#000000;stroke-width:0.8;" x="56.12" xlink:href="#m38facf8ba0" y="294.88"/>
      </g>
     </g>
     <g id="text_7">
      <!-- 0.0 -->
      <defs>
       <path d="M 10.6875 12.40625 
L 21 12.40625 
L 21 0 
L 10.6875 0 
z
" id="DejaVuSans-2e"/>
      </defs>
      <g transform="translate(23.675 300.95875)scale(0.16 -0.16)">
       <use xlink:href="#DejaVuSans-30"/>
       <use x="63.623047" xlink:href="#DejaVuSans-2e"/>
       <use x="95.410156" xlink:href="#DejaVuSans-30"/>
      </g>
     </g>
    </g>
    <g id="ytick_2">
     <g id="line2d_13">
      <path clip-path="url(#peba0b5f6ed)" d="M 56.12 237.843411 
L 399.984 237.843411 
" style="fill:none;stroke:#b0b0b0;stroke-linecap:square;stroke-width:0.8;"/>
     </g>
     <g id="line2d_14">
      <g>
       <use style="stroke:#000000;stroke-width:0.8;" x="56.12" xlink:href="#m38facf8ba0" y="237.843411"/>
      </g>
     </g>
     <g id="text_8">
      <!-- 0.2 -->
      <g transform="translate(23.675 243.922161)scale(0.16 -0.16)">
       <use xlink:href="#DejaVuSans-30"/>
       <use x="63.623047" xlink:href="#DejaVuSans-2e"/>
       <use x="95.410156" xlink:href="#DejaVuSans-32"/>
      </g>
     </g>
    </g>
    <g id="ytick_3">
     <g id="line2d_15">
      <path clip-path="url(#peba0b5f6ed)" d="M 56.12 180.806823 
L 399.984 180.806823 
" style="fill:none;stroke:#b0b0b0;stroke-linecap:square;stroke-width:0.8;"/>
     </g>
     <g id="line2d_16">
      <g>
       <use style="stroke:#000000;stroke-width:0.8;" x="56.12" xlink:href="#m38facf8ba0" y="180.806823"/>
      </g>
     </g>
     <g id="text_9">
      <!-- 0.4 -->
      <g transform="translate(23.675 186.885573)scale(0.16 -0.16)">
       <use xlink:href="#DejaVuSans-30"/>
       <use x="63.623047" xlink:href="#DejaVuSans-2e"/>
       <use x="95.410156" xlink:href="#DejaVuSans-34"/>
      </g>
     </g>
    </g>
    <g id="ytick_4">
     <g id="line2d_17">
      <path clip-path="url(#peba0b5f6ed)" d="M 56.12 123.770234 
L 399.984 123.770234 
" style="fill:none;stroke:#b0b0b0;stroke-linecap:square;stroke-width:0.8;"/>
     </g>
     <g id="line2d_18">
      <g>
       <use style="stroke:#000000;stroke-width:0.8;" x="56.12" xlink:href="#m38facf8ba0" y="123.770234"/>
      </g>
     </g>
     <g id="text_10">
      <!-- 0.6 -->
      <g transform="translate(23.675 129.848984)scale(0.16 -0.16)">
       <use xlink:href="#DejaVuSans-30"/>
       <use x="63.623047" xlink:href="#DejaVuSans-2e"/>
       <use x="95.410156" xlink:href="#DejaVuSans-36"/>
      </g>
     </g>
    </g>
    <g id="ytick_5">
     <g id="line2d_19">
      <path clip-path="url(#peba0b5f6ed)" d="M 56.12 66.733646 
L 399.984 66.733646 
" style="fill:none;stroke:#b0b0b0;stroke-linecap:square;stroke-width:0.8;"/>
     </g>
     <g id="line2d_20">
      <g>
       <use style="stroke:#000000;stroke-width:0.8;" x="56.12" xlink:href="#m38facf8ba0" y="66.733646"/>
      </g>
     </g>
     <g id="text_11">
      <!-- 0.8 -->
      <g transform="translate(23.675 72.812396)scale(0.16 -0.16)">
       <use xlink:href="#DejaVuSans-30"/>
       <use x="63.623047" xlink:href="#DejaVuSans-2e"/>
       <use x="95.410156" xlink:href="#DejaVuSans-38"/>
      </g>
     </g>
    </g>
    <g id="ytick_6">
     <g id="line2d_21">
      <path clip-path="url(#peba0b5f6ed)" d="M 56.12 9.697057 
L 399.984 9.697057 
" style="fill:none;stroke:#b0b0b0;stroke-linecap:square;stroke-width:0.8;"/>
     </g>
     <g id="line2d_22">
      <g>
       <use style="stroke:#000000;stroke-width:0.8;" x="56.12" xlink:href="#m38facf8ba0" y="9.697057"/>
      </g>
     </g>
     <g id="text_12">
      <!-- 1.0 -->
      <g transform="translate(23.675 15.775807)scale(0.16 -0.16)">
       <use xlink:href="#DejaVuSans-31"/>
       <use x="63.623047" xlink:href="#DejaVuSans-2e"/>
       <use x="95.410156" xlink:href="#DejaVuSans-30"/>
      </g>
     </g>
    </g>
    <g id="text_13">
     <!-- Fraction of function,target pairs -->
     <defs>
      <path d="M 9.8125 72.90625 
L 51.703125 72.90625 
L 51.703125 64.59375 
L 19.671875 64.59375 
L 19.671875 43.109375 
L 48.578125 43.109375 
L 48.578125 34.8125 
L 19.671875 34.8125 
L 19.671875 0 
L 9.8125 0 
z
" id="DejaVuSans-46"/>
      <path d="M 41.109375 46.296875 
Q 39.59375 47.171875 37.8125 47.578125 
Q 36.03125 48 33.890625 48 
Q 26.265625 48 22.1875 43.046875 
Q 18.109375 38.09375 18.109375 28.8125 
L 18.109375 0 
L 9.078125 0 
L 9.078125 54.6875 
L 18.109375 54.6875 
L 18.109375 46.1875 
Q 20.953125 51.171875 25.484375 53.578125 
Q 30.03125 56 36.53125 56 
Q 37.453125 56 38.578125 55.875 
Q 39.703125 55.765625 41.0625 55.515625 
z
" id="DejaVuSans-72"/>
      <path d="M 48.78125 52.59375 
L 48.78125 44.1875 
Q 44.96875 46.296875 41.140625 47.34375 
Q 37.3125 48.390625 33.40625 48.390625 
Q 24.65625 48.390625 19.8125 42.84375 
Q 14.984375 37.3125 14.984375 27.296875 
Q 14.984375 17.28125 19.8125 11.734375 
Q 24.65625 6.203125 33.40625 6.203125 
Q 37.3125 6.203125 41.140625 7.25 
Q 44.96875 8.296875 48.78125 10.40625 
L 48.78125 2.09375 
Q 45.015625 0.34375 40.984375 -0.53125 
Q 36.96875 -1.421875 32.421875 -1.421875 
Q 20.0625 -1.421875 12.78125 6.34375 
Q 5.515625 14.109375 5.515625 27.296875 
Q 5.515625 40.671875 12.859375 48.328125 
Q 20.21875 56 33.015625 56 
Q 37.15625 56 41.109375 55.140625 
Q 45.0625 54.296875 48.78125 52.59375 
z
" id="DejaVuSans-63"/>
      <path d="M 18.3125 70.21875 
L 18.3125 54.6875 
L 36.8125 54.6875 
L 36.8125 47.703125 
L 18.3125 47.703125 
L 18.3125 18.015625 
Q 18.3125 11.328125 20.140625 9.421875 
Q 21.96875 7.515625 27.59375 7.515625 
L 36.8125 7.515625 
L 36.8125 0 
L 27.59375 0 
Q 17.1875 0 13.234375 3.875 
Q 9.28125 7.765625 9.28125 18.015625 
L 9.28125 47.703125 
L 2.6875 47.703125 
L 2.6875 54.6875 
L 9.28125 54.6875 
L 9.28125 70.21875 
z
" id="DejaVuSans-74"/>
      <path d="M 8.5 21.578125 
L 8.5 54.6875 
L 17.484375 54.6875 
L 17.484375 21.921875 
Q 17.484375 14.15625 20.5 10.265625 
Q 23.53125 6.390625 29.59375 6.390625 
Q 36.859375 6.390625 41.078125 11.03125 
Q 45.3125 15.671875 45.3125 23.6875 
L 45.3125 54.6875 
L 54.296875 54.6875 
L 54.296875 0 
L 45.3125 0 
L 45.3125 8.40625 
Q 42.046875 3.421875 37.71875 1 
Q 33.40625 -1.421875 27.6875 -1.421875 
Q 18.265625 -1.421875 13.375 4.4375 
Q 8.5 10.296875 8.5 21.578125 
z
M 31.109375 56 
z
" id="DejaVuSans-75"/>
      <path d="M 11.71875 12.40625 
L 22.015625 12.40625 
L 22.015625 4 
L 14.015625 -11.625 
L 7.71875 -11.625 
L 11.71875 4 
z
" id="DejaVuSans-2c"/>
      <path d="M 18.109375 8.203125 
L 18.109375 -20.796875 
L 9.078125 -20.796875 
L 9.078125 54.6875 
L 18.109375 54.6875 
L 18.109375 46.390625 
Q 20.953125 51.265625 25.265625 53.625 
Q 29.59375 56 35.59375 56 
Q 45.5625 56 51.78125 48.09375 
Q 58.015625 40.1875 58.015625 27.296875 
Q 58.015625 14.40625 51.78125 6.484375 
Q 45.5625 -1.421875 35.59375 -1.421875 
Q 29.59375 -1.421875 25.265625 0.953125 
Q 20.953125 3.328125 18.109375 8.203125 
z
M 48.6875 27.296875 
Q 48.6875 37.203125 44.609375 42.84375 
Q 40.53125 48.484375 33.40625 48.484375 
Q 26.265625 48.484375 22.1875 42.84375 
Q 18.109375 37.203125 18.109375 27.296875 
Q 18.109375 17.390625 22.1875 11.75 
Q 26.265625 6.109375 33.40625 6.109375 
Q 40.53125 6.109375 44.609375 11.75 
Q 48.6875 17.390625 48.6875 27.296875 
z
" id="DejaVuSans-70"/>
     </defs>
     <g transform="translate(16.139531 286.001989)rotate(-90)scale(0.17 -0.17)">
      <use xlink:href="#DejaVuSans-46"/>
      <use x="57.410156" xlink:href="#DejaVuSans-72"/>
      <use x="98.523438" xlink:href="#DejaVuSans-61"/>
      <use x="159.802734" xlink:href="#DejaVuSans-63"/>
      <use x="214.783203" xlink:href="#DejaVuSans-74"/>
      <use x="253.992188" xlink:href="#DejaVuSans-69"/>
      <use x="281.775391" xlink:href="#DejaVuSans-6f"/>
      <use x="342.957031" xlink:href="#DejaVuSans-6e"/>
      <use x="406.335938" xlink:href="#DejaVuSans-20"/>
      <use x="438.123047" xlink:href="#DejaVuSans-6f"/>
      <use x="499.304688" xlink:href="#DejaVuSans-66"/>
      <use x="534.509766" xlink:href="#DejaVuSans-20"/>
      <use x="566.296875" xlink:href="#DejaVuSans-66"/>
      <use x="601.501953" xlink:href="#DejaVuSans-75"/>
      <use x="664.880859" xlink:href="#DejaVuSans-6e"/>
      <use x="728.259766" xlink:href="#DejaVuSans-63"/>
      <use x="783.240234" xlink:href="#DejaVuSans-74"/>
      <use x="822.449219" xlink:href="#DejaVuSans-69"/>
      <use x="850.232422" xlink:href="#DejaVuSans-6f"/>
      <use x="911.414062" xlink:href="#DejaVuSans-6e"/>
      <use x="974.792969" xlink:href="#DejaVuSans-2c"/>
      <use x="1006.580078" xlink:href="#DejaVuSans-74"/>
      <use x="1045.789062" xlink:href="#DejaVuSans-61"/>
      <use x="1107.068359" xlink:href="#DejaVuSans-72"/>
      <use x="1148.166016" xlink:href="#DejaVuSans-67"/>
      <use x="1211.642578" xlink:href="#DejaVuSans-65"/>
      <use x="1273.166016" xlink:href="#DejaVuSans-74"/>
      <use x="1312.375" xlink:href="#DejaVuSans-20"/>
      <use x="1344.162109" xlink:href="#DejaVuSans-70"/>
      <use x="1407.638672" xlink:href="#DejaVuSans-61"/>
      <use x="1468.917969" xlink:href="#DejaVuSans-69"/>
      <use x="1496.701172" xlink:href="#DejaVuSans-72"/>
      <use x="1537.814453" xlink:href="#DejaVuSans-73"/>
     </g>
    </g>
   </g>
   <g id="line2d_23">
    <defs>
     <path d="M 0 1.5 
C 0.397805 1.5 0.77937 1.341951 1.06066 1.06066 
C 1.341951 0.77937 1.5 0.397805 1.5 0 
C 1.5 -0.397805 1.341951 -0.77937 1.06066 -1.06066 
C 0.77937 -1.341951 0.397805 -1.5 0 -1.5 
C -0.397805 -1.5 -0.77937 -1.341951 -1.06066 -1.06066 
C -1.341951 -0.77937 -1.5 -0.397805 -1.5 0 
C -1.5 0.397805 -1.341951 0.77937 -1.06066 1.06066 
C -0.77937 1.341951 -0.397805 1.5 0 1.5 
z
" id="m20b64164be" style="stroke:#000080;"/>
    </defs>
    <g>
     <use style="fill:#000080;stroke:#000080;" x="237.211917" xlink:href="#m20b64164be" y="9.697057"/>
     <use style="fill:#000080;stroke:#000080;" x="237.211917" xlink:href="#m20b64164be" y="9.697057"/>
    </g>
   </g>
   <g id="line2d_24">
    <path d="M 56.12 294.88 
L 56.12 293.202453 
L 68.045504 293.202453 
L 68.045504 290.406542 
L 75.021477 290.406542 
L 75.021477 287.051449 
L 79.971009 287.051449 
L 79.971009 286.492266 
L 83.810164 286.492266 
L 83.810164 280.341262 
L 89.599124 280.341262 
L 89.599124 278.663715 
L 91.896513 278.663715 
L 91.896513 276.986168 
L 95.735668 276.986168 
L 95.735668 275.308622 
L 97.375467 275.308622 
L 97.375467 273.631075 
L 98.872486 273.631075 
L 98.872486 270.275981 
L 100.24961 270.275981 
L 100.24961 269.157617 
L 101.524628 269.157617 
L 101.524628 265.802523 
L 103.822018 265.802523 
L 103.822018 264.124977 
L 108.500601 264.124977 
L 108.500601 263.006612 
L 113.450132 263.006612 
L 113.450132 261.329066 
L 114.053874 261.329066 
L 114.053874 260.769883 
L 117.773963 260.769883 
L 117.773963 256.296425 
L 118.704183 256.296425 
L 118.704183 252.38215 
L 120.01151 252.38215 
L 120.01151 251.822967 
L 120.830944 251.822967 
L 120.830944 250.704603 
L 121.226476 250.704603 
L 121.226476 249.586238 
L 123.766534 249.586238 
L 123.766534 246.790327 
L 124.100619 246.790327 
L 124.100619 245.671963 
L 124.428341 245.671963 
L 124.428341 243.994416 
L 125.065631 243.994416 
L 125.065631 240.639323 
L 125.979378 240.639323 
L 125.979378 239.520958 
L 126.56265 239.520958 
L 126.56265 238.961776 
L 128.202449 238.961776 
L 128.202449 236.725047 
L 128.967235 236.725047 
L 128.967235 236.165865 
L 129.214792 236.165865 
L 129.214792 235.606682 
L 130.170864 235.606682 
L 130.170864 234.488318 
L 131.725909 234.488318 
L 131.725909 232.251589 
L 135.859892 232.251589 
L 135.859892 231.133225 
L 136.026124 231.133225 
L 136.026124 230.574042 
L 136.190765 230.574042 
L 136.190765 228.896496 
L 136.991135 228.896496 
L 136.991135 228.337313 
L 137.146836 228.337313 
L 137.146836 226.100584 
L 137.904883 226.100584 
L 137.904883 225.541402 
L 138.052565 225.541402 
L 138.052565 224.98222 
L 138.488154 224.98222 
L 138.488154 223.304673 
L 140.257802 223.304673 
L 140.257802 221.067944 
L 140.514596 221.067944 
L 140.514596 220.508762 
L 140.767613 220.508762 
L 140.767613 216.035304 
L 142.441628 216.035304 
L 142.441628 214.91694 
L 143.002096 214.91694 
L 143.112032 208.765935 
L 143.651414 208.765935 
L 143.651414 207.64757 
L 143.862519 207.64757 
L 143.967108 203.733295 
L 144.071065 203.733295 
L 144.071065 203.174112 
L 144.277114 203.174112 
L 144.277114 202.055748 
L 144.880856 202.055748 
L 144.880856 201.496566 
L 145.654238 201.496566 
L 145.654238 198.700655 
L 146.394347 198.700655 
L 146.394347 198.141472 
L 147.103926 198.141472 
L 147.103926 197.023108 
L 147.951628 197.023108 
L 148.034145 192.54965 
L 148.360314 192.54965 
L 148.360314 191.990468 
L 148.521108 191.990468 
L 148.521108 191.431285 
L 148.91664 191.431285 
L 148.91664 190.872103 
L 149.379579 190.872103 
L 149.455539 189.194556 
L 149.756068 189.194556 
L 149.756068 188.635374 
L 149.978069 188.635374 
L 149.978069 186.957828 
L 150.556439 186.957828 
L 150.556439 184.721099 
L 151.184678 184.721099 
L 151.184678 184.161916 
L 151.456697 184.161916 
L 151.456697 183.043552 
L 151.724483 183.043552 
L 151.724483 182.48437 
L 151.922622 182.48437 
L 151.988164 179.688458 
L 152.118505 179.688458 
L 152.118505 178.010912 
L 152.247865 178.010912 
L 152.312182 172.419089 
L 152.567074 172.419089 
L 152.567074 170.741543 
L 152.693117 170.741543 
L 152.755795 169.063996 
L 152.880468 169.063996 
L 152.880468 166.268085 
L 153.127137 166.268085 
L 153.127137 165.708902 
L 153.610112 165.708902 
L 153.610112 165.14972 
L 153.728767 165.14972 
L 153.787789 161.235444 
L 154.195368 161.235444 
L 154.195368 158.998715 
L 154.927601 158.998715 
L 154.927601 157.880351 
L 155.092242 157.880351 
L 155.201134 152.847711 
L 155.523735 152.847711 
L 155.629938 150.0518 
L 155.892613 150.0518 
L 155.892613 148.933435 
L 156.099903 148.933435 
L 156.151337 143.900795 
L 157.051797 143.900795 
L 157.051797 142.78243 
L 157.341774 142.78243 
L 157.341774 141.104884 
L 157.626944 141.104884 
L 157.626944 140.545702 
L 157.907464 140.545702 
L 157.999964 138.868155 
L 158.183484 138.868155 
L 158.274515 136.072244 
L 158.319851 136.072244 
L 158.319851 135.513061 
L 158.455146 135.513061 
L 158.544754 132.157968 
L 158.589384 132.157968 
L 158.678299 129.921239 
L 158.766756 129.921239 
L 158.766756 128.802874 
L 158.898594 128.802874 
L 158.898594 128.243692 
L 159.627178 128.243692 
L 159.66909 127.125328 
L 159.835725 127.125328 
L 159.877132 124.888599 
L 160.000761 124.888599 
L 160.041774 123.211052 
L 160.164229 123.211052 
L 160.245384 120.974323 
L 160.285818 120.974323 
L 160.285818 120.415141 
L 160.406555 120.415141 
L 160.486577 118.737594 
L 160.645515 118.737594 
L 160.685021 113.145772 
L 160.802998 113.145772 
L 160.881202 112.027407 
L 160.997845 112.027407 
L 160.997845 110.909043 
L 161.305083 110.909043 
L 161.305083 110.349861 
L 161.569488 110.349861 
L 161.569488 108.113132 
L 161.681572 108.113132 
L 161.681572 107.553949 
L 161.940297 107.553949 
L 162.049999 104.198856 
L 162.086411 104.198856 
L 162.195189 100.843762 
L 162.552891 100.843762 
L 162.658767 97.488669 
L 162.903308 97.488669 
L 162.972543 96.370304 
L 163.24673 96.370304 
L 163.24673 95.25194 
L 163.550055 95.25194 
L 163.550055 93.574393 
L 163.716287 93.574393 
L 163.815261 87.423389 
L 164.011516 87.423389 
L 164.011516 86.864206 
L 164.205558 86.864206 
L 164.205558 86.305024 
L 164.397436 86.305024 
L 164.397436 85.745842 
L 164.649989 85.745842 
L 164.681299 82.949931 
L 164.929749 82.949931 
L 164.929749 82.390748 
L 165.083228 82.390748 
L 165.083228 80.15402 
L 165.325981 80.15402 
L 165.356086 78.476473 
L 165.535617 78.476473 
L 165.624685 76.239744 
L 165.683808 76.239744 
L 165.683808 74.562197 
L 166.264128 74.562197 
L 166.292637 72.325468 
L 166.547109 72.325468 
L 166.547109 70.088739 
L 166.659011 70.088739 
L 166.659011 66.733646 
L 167.072279 66.733646 
L 167.09948 63.378552 
L 167.502423 63.378552 
L 167.502423 62.260188 
L 167.765902 62.260188 
L 167.765902 60.023459 
L 168.20476 60.023459 
L 168.306413 55.550001 
L 168.331733 55.550001 
L 168.331733 54.990819 
L 168.507937 54.990819 
L 168.507937 53.872454 
L 168.632701 53.872454 
L 168.632701 53.313272 
L 168.879547 53.313272 
L 168.879547 51.635725 
L 169.410454 51.635725 
L 169.505247 47.162267 
L 169.599521 47.162267 
L 169.669888 44.925538 
L 169.832969 44.925538 
L 169.832969 44.366356 
L 169.994518 44.366356 
L 169.994518 43.807174 
L 170.514889 43.807174 
L 170.514889 42.688809 
L 170.670189 42.688809 
L 170.670189 42.129627 
L 170.911433 42.129627 
L 170.911433 41.570445 
L 171.823303 41.570445 
L 171.864562 40.45208 
L 171.987748 40.45208 
L 171.987748 39.892898 
L 172.571019 39.892898 
L 172.571019 39.333716 
L 172.92335 39.333716 
L 172.981376 38.215351 
L 174.1568 38.215351 
L 174.1568 37.096987 
L 177.296623 37.096987 
L 177.296623 35.41944 
L 178.472614 35.41944 
L 178.472614 34.301076 
L 180.853998 34.301076 
L 180.853998 33.741894 
L 186.527359 33.741894 
L 186.527359 33.182711 
L 195.408936 33.182711 
L 195.408936 32.623529 
L 204.53925 32.623529 
L 204.53925 32.064347 
L 204.753815 32.064347 
L 204.86313 29.827618 
L 204.974762 29.827618 
L 205.055769 27.590889 
L 205.133416 27.590889 
L 205.175082 26.472524 
L 205.296525 26.472524 
L 205.378972 22.558249 
L 205.408321 22.558249 
L 205.516482 21.439884 
L 205.583377 21.439884 
L 205.583377 19.203155 
L 205.982207 19.203155 
L 206.064263 18.084791 
L 206.123439 18.084791 
L 206.123439 17.525609 
L 211.063122 17.525609 
L 211.063122 16.407244 
L 214.147083 16.407244 
L 214.147083 15.848062 
L 216.242793 15.848062 
L 216.35025 13.611333 
L 216.429247 13.611333 
L 216.504805 12.492968 
L 219.585886 12.492968 
L 219.585886 11.933786 
L 222.975956 11.933786 
L 222.975956 11.374604 
L 223.092806 11.374604 
L 223.092806 10.815422 
L 233.852941 10.815422 
L 233.852941 10.256239 
L 237.211917 10.256239 
L 237.211917 9.697057 
L 333.429677 9.697057 
L 333.429677 9.697057 
" style="fill:none;stroke:#000080;stroke-linecap:square;stroke-width:1.5;"/>
   </g>
   <g id="line2d_25">
    <defs>
     <path d="M 0 6 
C 1.591219 6 3.117479 5.367802 4.242641 4.242641 
C 5.367802 3.117479 6 1.591219 6 0 
C 6 -1.591219 5.367802 -3.117479 4.242641 -4.242641 
C 3.117479 -5.367802 1.591219 -6 0 -6 
C -1.591219 -6 -3.117479 -5.367802 -4.242641 -4.242641 
C -5.367802 -3.117479 -6 -1.591219 -6 0 
C -6 1.591219 -5.367802 3.117479 -4.242641 4.242641 
C -3.117479 5.367802 -1.591219 6 0 6 
z
" id="meee8b3affa" style="stroke:#000080;stroke-width:1.5;"/>
    </defs>
    <g>
     <use style="fill-opacity:0;stroke:#000080;stroke-width:1.5;" x="145.654238" xlink:href="#meee8b3affa" y="201.496566"/>
     <use style="fill-opacity:0;stroke:#000080;stroke-width:1.5;" x="169.623008" xlink:href="#meee8b3affa" y="45.484721"/>
     <use style="fill-opacity:0;stroke:#000080;stroke-width:1.5;" x="237.211917" xlink:href="#meee8b3affa" y="9.697057"/>
     <use style="fill-opacity:0;stroke:#000080;stroke-width:1.5;" x="237.211917" xlink:href="#meee8b3affa" y="9.697057"/>
     <use style="fill-opacity:0;stroke:#000080;stroke-width:1.5;" x="333.429677" xlink:href="#meee8b3affa" y="9.697057"/>
    </g>
   </g>
   <g id="line2d_26">
    <path style="fill:none;stroke:#000080;stroke-linecap:square;stroke-width:1.5;"/>
    <g/>
   </g>
   <g id="line2d_27">
    <path clip-path="url(#peba0b5f6ed)" d="M 203.414473 32.623529 
" style="fill:none;stroke:#000080;stroke-linecap:square;stroke-width:1.5;"/>
    <defs>
     <path d="M -12 12 
L 12 -12 
M -12 -12 
L 12 12 
" id="m010a5064c1" style="stroke:#000080;stroke-width:3;"/>
    </defs>
    <g clip-path="url(#peba0b5f6ed)">
     <use style="fill:#000080;stroke:#000080;stroke-width:3;" x="203.414473" xlink:href="#m010a5064c1" y="32.623529"/>
    </g>
   </g>
   <g id="line2d_28">
    <defs>
     <path d="M 0 1.5 
C 0.397805 1.5 0.77937 1.341951 1.06066 1.06066 
C 1.341951 0.77937 1.5 0.397805 1.5 0 
C 1.5 -0.397805 1.341951 -0.77937 1.06066 -1.06066 
C 0.77937 -1.341951 0.397805 -1.5 0 -1.5 
C -0.397805 -1.5 -0.77937 -1.341951 -1.06066 -1.06066 
C -1.341951 -0.77937 -1.5 -0.397805 -1.5 0 
C -1.5 0.397805 -1.341951 0.77937 -1.06066 1.06066 
C -0.77937 1.341951 -0.397805 1.5 0 1.5 
z
" id="m685e6db54a" style="stroke:#ff00ff;"/>
    </defs>
    <g>
     <use style="fill:#ff00ff;stroke:#ff00ff;" x="246.25236" xlink:href="#m685e6db54a" y="9.697057"/>
     <use style="fill:#ff00ff;stroke:#ff00ff;" x="246.25236" xlink:href="#m685e6db54a" y="9.697057"/>
    </g>
   </g>
   <g id="line2d_29">
    <path d="M 56.12 294.88 
L 56.12 290.965724 
L 68.045504 290.965724 
L 68.045504 282.577991 
L 79.971009 282.577991 
L 79.971009 279.782079 
L 83.810164 279.782079 
L 83.810164 276.986168 
L 86.946982 276.986168 
L 86.946982 276.426986 
L 89.599124 276.426986 
L 89.599124 273.631075 
L 91.896513 273.631075 
L 91.896513 273.071893 
L 93.922955 273.071893 
L 93.922955 267.48007 
L 100.24961 267.48007 
L 100.24961 266.920888 
L 101.524628 266.920888 
L 101.524628 260.769883 
L 110.797991 260.769883 
L 110.797991 260.210701 
L 111.500328 260.210701 
L 111.500328 259.092337 
L 116.276944 259.092337 
L 116.276944 257.973972 
L 116.790561 257.973972 
L 116.790561 256.296425 
L 117.773963 256.296425 
L 117.773963 254.618879 
L 120.426105 254.618879 
L 120.426105 251.822967 
L 121.226476 251.822967 
L 121.226476 249.586238 
L 123.766534 249.586238 
L 123.766534 249.027056 
L 124.100619 249.027056 
L 124.100619 246.790327 
L 125.065631 246.790327 
L 125.065631 245.671963 
L 126.273486 245.671963 
L 126.273486 241.757687 
L 127.402078 241.757687 
L 127.402078 240.639323 
L 127.939774 240.639323 
L 127.939774 238.961776 
L 128.967235 238.961776 
L 128.967235 237.843411 
L 129.699468 237.843411 
L 129.699468 236.725047 
L 130.170864 236.725047 
L 130.170864 236.165865 
L 130.854591 236.165865 
L 130.854591 235.0475 
L 131.076592 235.0475 
L 131.076592 233.369954 
L 131.512181 233.369954 
L 131.512181 231.692407 
L 133.728734 231.692407 
L 133.728734 230.01486 
L 134.468842 230.01486 
L 134.468842 228.896496 
L 136.026124 228.896496 
L 136.026124 217.153669 
L 136.190765 217.153669 
L 136.190765 216.035304 
L 136.515394 216.035304 
L 136.515394 215.476122 
L 136.991135 215.476122 
L 136.991135 195.904743 
L 137.755922 195.904743 
L 137.755922 195.345561 
L 137.904883 195.345561 
L 137.904883 194.227197 
L 139.052299 194.227197 
L 139.052299 193.668014 
L 140.514596 193.668014 
L 140.514596 191.990468 
L 141.140296 191.990468 
L 141.140296 191.431285 
L 141.744038 191.431285 
L 141.744038 190.872103 
L 143.002096 190.872103 
L 143.002096 189.753739 
L 143.329818 189.753739 
L 143.437686 185.839463 
L 143.967108 185.839463 
L 143.967108 184.721099 
L 144.277114 184.721099 
L 144.37922 179.688458 
L 145.464127 179.688458 
L 145.464127 178.570094 
L 146.028272 178.570094 
L 146.028272 177.451729 
L 147.951628 177.451729 
L 147.951628 176.892547 
L 148.116269 176.892547 
L 148.116269 175.774183 
L 148.27935 175.774183 
L 148.360314 162.353809 
L 148.440899 162.353809 
L 148.440899 156.761987 
L 149.379579 156.761987 
L 149.455539 155.08444 
L 149.830387 155.08444 
L 149.830387 151.170164 
L 151.790783 151.170164 
L 151.790783 150.610982 
L 151.922622 150.610982 
L 151.922622 150.0518 
L 152.567074 150.0518 
L 152.567074 145.019159 
L 152.755795 145.019159 
L 152.755795 135.513061 
L 153.188256 135.513061 
L 153.188256 134.394697 
L 154.137731 134.394697 
L 154.137731 132.157968 
L 154.927601 132.157968 
L 154.927601 129.921239 
L 155.470386 129.921239 
L 155.470386 128.802874 
L 156.099903 128.802874 
L 156.099903 128.243692 
L 157.579743 128.243692 
L 157.674016 127.125328 
L 203.607659 127.125328 
L 203.711538 124.888599 
L 203.724479 124.888599 
L 203.81801 112.586589 
L 203.853355 112.586589 
L 203.949382 108.113132 
L 204.016284 108.113132 
L 204.105084 98.047851 
L 204.143001 98.047851 
L 204.196574 94.692758 
L 204.28758 94.692758 
L 204.31885 87.423389 
L 204.443366 87.423389 
L 204.443366 86.864206 
L 204.582377 86.864206 
L 204.582377 86.305024 
L 215.408988 86.305024 
L 215.510356 81.831566 
L 215.520135 81.831566 
L 215.614373 68.411192 
L 215.643514 68.411192 
L 215.735472 62.260188 
L 215.762803 62.260188 
L 215.862114 49.958178 
L 215.933838 49.958178 
L 215.933838 49.398996 
L 222.429724 49.398996 
L 222.518902 45.484721 
L 222.548165 45.484721 
L 222.655038 36.537805 
L 227.350882 36.537805 
L 227.440751 29.268436 
L 227.478193 29.268436 
L 227.564974 22.558249 
L 231.176926 22.558249 
L 231.282839 19.203155 
L 231.344646 19.203155 
L 231.344646 18.643973 
L 234.298435 18.643973 
L 234.391717 15.848062 
L 236.942449 15.848062 
L 236.993969 11.933786 
L 239.233739 11.933786 
L 239.306668 10.256239 
L 246.25236 10.256239 
L 246.25236 9.697057 
L 333.429677 9.697057 
L 333.429677 9.697057 
" style="fill:none;stroke:#ff00ff;stroke-linecap:square;stroke-width:1.5;"/>
   </g>
   <g id="line2d_30">
    <defs>
     <path d="M -0 8.485281 
L 5.091169 0 
L 0 -8.485281 
L -5.091169 -0 
z
" id="m93f59e1859" style="stroke:#ff00ff;stroke-linejoin:miter;stroke-width:1.5;"/>
    </defs>
    <g>
     <use style="fill-opacity:0;stroke:#ff00ff;stroke-linejoin:miter;stroke-width:1.5;" x="148.440899" xlink:href="#m93f59e1859" y="162.353809"/>
     <use style="fill-opacity:0;stroke:#ff00ff;stroke-linejoin:miter;stroke-width:1.5;" x="215.933838" xlink:href="#m93f59e1859" y="49.398996"/>
     <use style="fill-opacity:0;stroke:#ff00ff;stroke-linejoin:miter;stroke-width:1.5;" x="246.25236" xlink:href="#m93f59e1859" y="9.697057"/>
     <use style="fill-opacity:0;stroke:#ff00ff;stroke-linejoin:miter;stroke-width:1.5;" x="246.25236" xlink:href="#m93f59e1859" y="9.697057"/>
     <use style="fill-opacity:0;stroke:#ff00ff;stroke-linejoin:miter;stroke-width:1.5;" x="333.429677" xlink:href="#m93f59e1859" y="9.697057"/>
    </g>
   </g>
   <g id="line2d_31">
    <path style="fill:none;stroke:#ff00ff;stroke-linecap:square;stroke-width:1.5;"/>
    <g/>
   </g>
   <g id="line2d_32">
    <path clip-path="url(#peba0b5f6ed)" d="M 203.414473 127.125328 
" style="fill:none;stroke:#ff00ff;stroke-linecap:square;stroke-width:1.5;"/>
    <defs>
     <path d="M -12 12 
L 12 -12 
M -12 -12 
L 12 12 
" id="m2103faf88f" style="stroke:#ff00ff;stroke-width:3;"/>
    </defs>
    <g clip-path="url(#peba0b5f6ed)">
     <use style="fill:#ff00ff;stroke:#ff00ff;stroke-width:3;" x="203.414473" xlink:href="#m2103faf88f" y="127.125328"/>
    </g>
   </g>
   <g id="line2d_33">
    <defs>
     <path d="M 0 1.5 
C 0.397805 1.5 0.77937 1.341951 1.06066 1.06066 
C 1.341951 0.77937 1.5 0.397805 1.5 0 
C 1.5 -0.397805 1.341951 -0.77937 1.06066 -1.06066 
C 0.77937 -1.341951 0.397805 -1.5 0 -1.5 
C -0.397805 -1.5 -0.77937 -1.341951 -1.06066 -1.06066 
C -1.341951 -0.77937 -1.5 -0.397805 -1.5 0 
C -1.5 0.397805 -1.341951 0.77937 -1.06066 1.06066 
C -0.77937 1.341951 -0.397805 1.5 0 1.5 
z
" id="m8662ade505" style="stroke:#ffa500;"/>
    </defs>
    <g>
     <use style="fill:#ffa500;stroke:#ffa500;" x="280.255841" xlink:href="#m8662ade505" y="110.349861"/>
     <use style="fill:#ffa500;stroke:#ffa500;" x="280.255841" xlink:href="#m8662ade505" y="110.349861"/>
    </g>
   </g>
   <g id="line2d_34">
    <path d="M 56.12 294.88 
L 56.12 292.084089 
L 68.045504 292.084089 
L 68.045504 291.524907 
L 75.021477 291.524907 
L 75.021477 290.965724 
L 79.971009 290.965724 
L 79.971009 288.728995 
L 89.599124 288.728995 
L 89.599124 280.341262 
L 93.922955 280.341262 
L 93.922955 273.631075 
L 97.375467 273.631075 
L 97.375467 270.275981 
L 100.24961 270.275981 
L 100.24961 266.361706 
L 101.524628 266.361706 
L 101.524628 262.44743 
L 103.822018 262.44743 
L 103.822018 261.329066 
L 104.865056 261.329066 
L 104.865056 260.210701 
L 108.500601 260.210701 
L 108.500601 256.855608 
L 111.500328 256.855608 
L 111.500328 254.059696 
L 112.824432 254.059696 
L 112.824432 252.941332 
L 114.053874 252.941332 
L 114.053874 246.790327 
L 120.830944 246.790327 
L 120.830944 246.231145 
L 121.226476 246.231145 
L 121.226476 245.671963 
L 124.749936 245.671963 
L 124.749936 245.112781 
L 125.065631 245.112781 
L 125.065631 243.994416 
L 125.375637 243.994416 
L 125.375637 243.435234 
L 125.680156 243.435234 
L 125.680156 241.198505 
L 129.93678 241.198505 
L 129.93678 238.961776 
L 130.401805 238.961776 
L 130.401805 237.843411 
L 131.295765 237.843411 
L 131.295765 237.284229 
L 131.937015 237.284229 
L 131.937015 236.165865 
L 134.468842 236.165865 
L 134.468842 234.488318 
L 135.178422 234.488318 
L 135.178422 233.369954 
L 136.353845 233.369954 
L 136.353845 230.574042 
L 136.515394 230.574042 
L 136.515394 230.01486 
L 136.675441 230.01486 
L 136.675441 229.455678 
L 136.834012 229.455678 
L 136.834012 228.896496 
L 137.755922 228.896496 
L 137.755922 227.218949 
L 141.140296 227.218949 
L 141.140296 226.659767 
L 143.329818 226.659767 
L 143.329818 221.627126 
L 143.967108 221.627126 
L 143.967108 221.067944 
L 144.581633 221.067944 
L 144.581633 219.94958 
L 144.781692 219.94958 
L 144.781692 219.390397 
L 145.077485 219.390397 
L 145.077485 218.831215 
L 145.748512 218.831215 
L 145.748512 218.272033 
L 148.27935 218.272033 
L 148.27935 216.594486 
L 148.521108 216.594486 
L 148.521108 214.91694 
L 148.759517 214.91694 
L 148.759517 213.239393 
L 151.047038 213.239393 
L 151.047038 212.121028 
L 155.201134 212.121028 
L 155.201134 211.561846 
L 203.427639 211.561846 
L 203.496597 208.765935 
L 203.558749 208.765935 
L 203.669413 206.529206 
L 203.672657 206.529206 
L 203.760016 203.174112 
L 203.789038 203.174112 
L 203.789038 201.496566 
L 203.93022 201.496566 
L 204.022642 191.431285 
L 204.086094 191.431285 
L 204.187132 190.312921 
L 204.19972 190.312921 
L 204.215442 188.076192 
L 204.350064 188.076192 
L 204.350064 187.51701 
L 204.542334 187.51701 
L 204.542334 186.398645 
L 215.346562 186.398645 
L 215.381088 184.161916 
L 215.528279 184.161916 
L 215.627331 179.129276 
L 215.685521 179.129276 
L 215.745123 175.774183 
L 215.879674 175.774183 
L 215.879674 175.215 
L 222.441713 175.215 
L 222.547082 169.623178 
L 222.577378 169.623178 
L 222.660418 166.827267 
L 222.700178 166.827267 
L 222.700178 166.268085 
L 227.395875 166.268085 
L 227.469247 160.11708 
L 227.524477 160.11708 
L 227.554454 158.439533 
L 231.180861 158.439533 
L 231.267842 154.525258 
L 234.328493 154.525258 
L 234.328493 153.406893 
L 236.968228 153.406893 
L 237.042071 150.0518 
L 239.256306 150.0518 
L 239.320971 146.137524 
L 241.275502 146.137524 
L 241.308288 142.223248 
L 243.082417 142.223248 
L 243.111937 138.868155 
L 244.71747 138.868155 
L 244.744316 136.072244 
L 246.210534 136.072244 
L 246.210534 133.276332 
L 247.58431 133.276332 
L 247.58431 131.039603 
L 248.856457 131.039603 
L 248.902161 129.362057 
L 250.040982 129.362057 
L 250.040982 127.68451 
L 251.149182 127.68451 
L 251.149182 127.125328 
L 252.190299 127.125328 
L 252.190299 126.566145 
L 253.171994 126.566145 
L 253.171994 125.447781 
L 254.134392 125.447781 
L 254.134392 124.888599 
L 254.981803 124.888599 
L 254.981803 123.770234 
L 255.819987 123.770234 
L 255.819987 123.211052 
L 256.619226 123.211052 
L 256.619226 122.65187 
L 258.114265 122.65187 
L 258.114265 122.092688 
L 258.81573 122.092688 
L 258.81573 121.533505 
L 259.489713 121.533505 
L 259.499956 120.415141 
L 260.138285 120.415141 
L 260.148149 118.737594 
L 260.763294 118.737594 
L 260.763294 116.500865 
L 261.949062 116.500865 
L 261.949062 115.941683 
L 262.512644 115.941683 
L 262.512644 115.382501 
L 263.058348 115.382501 
L 263.058348 114.823318 
L 264.100425 114.823318 
L 264.100425 114.264136 
L 264.598713 114.264136 
L 264.598713 113.704954 
L 266.45898 113.704954 
L 266.45898 113.145772 
L 267.739384 113.145772 
L 267.739384 112.586589 
L 271.076495 112.586589 
L 271.076495 112.027407 
L 272.054102 112.027407 
L 272.054102 111.468225 
L 273.282876 111.468225 
L 273.282876 110.909043 
L 280.255841 110.909043 
L 280.255841 110.349861 
L 333.429677 110.349861 
L 333.429677 110.349861 
" style="fill:none;stroke:#ffa500;stroke-linecap:square;stroke-width:1.5;"/>
   </g>
   <g id="line2d_35">
    <defs>
     <path d="M 0 -6 
L -1.347084 -1.854102 
L -5.706339 -1.854102 
L -2.179628 0.708204 
L -3.526712 4.854102 
L -0 2.291796 
L 3.526712 4.854102 
L 2.179628 0.708204 
L 5.706339 -1.854102 
L 1.347084 -1.854102 
z
" id="m559e6b650a" style="stroke:#ffa500;stroke-linejoin:bevel;stroke-width:1.5;"/>
    </defs>
    <g>
     <use style="fill-opacity:0;stroke:#ffa500;stroke-linejoin:bevel;stroke-width:1.5;" x="155.201134" xlink:href="#m559e6b650a" y="211.561846"/>
     <use style="fill-opacity:0;stroke:#ffa500;stroke-linejoin:bevel;stroke-width:1.5;" x="231.267842" xlink:href="#m559e6b650a" y="154.525258"/>
     <use style="fill-opacity:0;stroke:#ffa500;stroke-linejoin:bevel;stroke-width:1.5;" x="280.255841" xlink:href="#m559e6b650a" y="110.349861"/>
     <use style="fill-opacity:0;stroke:#ffa500;stroke-linejoin:bevel;stroke-width:1.5;" x="280.255841" xlink:href="#m559e6b650a" y="110.349861"/>
     <use style="fill-opacity:0;stroke:#ffa500;stroke-linejoin:bevel;stroke-width:1.5;" x="333.429677" xlink:href="#m559e6b650a" y="110.349861"/>
    </g>
   </g>
   <g id="line2d_36">
    <path style="fill:none;stroke:#ffa500;stroke-linecap:square;stroke-width:1.5;"/>
    <g/>
   </g>
   <g id="line2d_37">
    <path clip-path="url(#peba0b5f6ed)" d="M 203.414473 211.561846 
" style="fill:none;stroke:#ffa500;stroke-linecap:square;stroke-width:1.5;"/>
    <defs>
     <path d="M -12 12 
L 12 -12 
M -12 -12 
L 12 12 
" id="mabba4175eb" style="stroke:#ffa500;stroke-width:3;"/>
    </defs>
    <g clip-path="url(#peba0b5f6ed)">
     <use style="fill:#ffa500;stroke:#ffa500;stroke-width:3;" x="203.414473" xlink:href="#mabba4175eb" y="211.561846"/>
    </g>
   </g>
   <g id="line2d_38">
    <defs>
     <path d="M 0 1.5 
C 0.397805 1.5 0.77937 1.341951 1.06066 1.06066 
C 1.341951 0.77937 1.5 0.397805 1.5 0 
C 1.5 -0.397805 1.341951 -0.77937 1.06066 -1.06066 
C 0.77937 -1.341951 0.397805 -1.5 0 -1.5 
C -0.397805 -1.5 -0.77937 -1.341951 -1.06066 -1.06066 
C -1.341951 -0.77937 -1.5 -0.397805 -1.5 0 
C -1.5 0.397805 -1.341951 0.77937 -1.06066 1.06066 
C -0.77937 1.341951 -0.397805 1.5 0 1.5 
z
" id="ma887626352" style="stroke:#6495ed;"/>
    </defs>
    <g>
     <use style="fill:#6495ed;stroke:#6495ed;" x="270.027364" xlink:href="#ma887626352" y="166.268085"/>
     <use style="fill:#6495ed;stroke:#6495ed;" x="270.027364" xlink:href="#ma887626352" y="166.268085"/>
    </g>
   </g>
   <g id="line2d_39">
    <path d="M 56.12 294.88 
L 56.12 287.610631 
L 75.021477 287.610631 
L 75.021477 287.051449 
L 79.971009 287.051449 
L 79.971009 285.373902 
L 83.810164 285.373902 
L 83.810164 282.577991 
L 91.896513 282.577991 
L 91.896513 278.663715 
L 95.735668 278.663715 
L 95.735668 277.545351 
L 97.375467 277.545351 
L 97.375467 275.308622 
L 102.711641 275.308622 
L 102.711641 270.835164 
L 103.822018 270.835164 
L 103.822018 268.039252 
L 106.778678 268.039252 
L 106.778678 265.802523 
L 107.661173 265.802523 
L 107.661173 263.565795 
L 108.500601 263.565795 
L 108.500601 259.651519 
L 112.175115 259.651519 
L 112.175115 256.855608 
L 114.053874 256.855608 
L 114.053874 256.296425 
L 115.747522 256.296425 
L 115.747522 255.178061 
L 116.276944 255.178061 
L 116.276944 254.059696 
L 117.289287 254.059696 
L 117.289287 253.500514 
L 120.01151 253.500514 
L 120.01151 251.822967 
L 121.991263 251.822967 
L 121.991263 250.145421 
L 123.766534 250.145421 
L 123.766534 249.586238 
L 124.749936 249.586238 
L 124.749936 247.908692 
L 125.375637 247.908692 
L 125.375637 246.790327 
L 125.680156 246.790327 
L 125.680156 246.231145 
L 126.56265 246.231145 
L 126.56265 245.671963 
L 126.847034 245.671963 
L 126.847034 243.994416 
L 127.673027 243.994416 
L 127.673027 242.876052 
L 128.202449 242.876052 
L 128.202449 241.757687 
L 129.214792 241.757687 
L 129.214792 240.639323 
L 130.401805 240.639323 
L 130.401805 238.961776 
L 131.512181 238.961776 
L 131.512181 237.843411 
L 133.346388 237.843411 
L 133.346388 237.284229 
L 135.859892 237.284229 
L 135.859892 236.725047 
L 136.675441 236.725047 
L 136.675441 234.488318 
L 137.146836 234.488318 
L 137.146836 232.810771 
L 137.301141 232.810771 
L 137.301141 231.692407 
L 137.454074 231.692407 
L 137.454074 231.133225 
L 138.630934 231.133225 
L 138.630934 230.01486 
L 138.912987 230.01486 
L 138.912987 229.455678 
L 139.997117 229.455678 
L 139.997117 228.896496 
L 140.767613 228.896496 
L 140.767613 226.659767 
L 141.505077 226.659767 
L 141.505077 225.541402 
L 141.744038 225.541402 
L 141.744038 224.423038 
L 142.441628 224.423038 
L 142.441628 223.863855 
L 143.329818 223.863855 
L 143.437686 222.186309 
L 143.544882 222.186309 
L 143.544882 221.627126 
L 144.979451 221.627126 
L 145.077485 220.508762 
L 145.271892 220.508762 
L 145.271892 219.94958 
L 146.484661 219.94958 
L 146.484661 218.831215 
L 148.034145 218.831215 
L 148.034145 218.272033 
L 148.440899 218.272033 
L 148.440899 217.153669 
L 148.759517 217.153669 
L 148.759517 216.594486 
L 151.922622 216.594486 
L 151.922622 215.476122 
L 152.053458 215.476122 
L 152.053458 214.91694 
L 169.505247 214.91694 
L 169.505247 214.357757 
L 203.581591 214.357757 
L 203.581591 213.798575 
L 203.782593 213.798575 
L 203.814793 210.443482 
L 203.93022 210.443482 
L 204.032175 207.64757 
L 204.086094 207.64757 
L 204.105084 204.292477 
L 204.256253 204.292477 
L 204.256253 203.174112 
L 205.658684 203.174112 
L 205.658684 202.61493 
L 215.382731 202.61493 
L 215.382731 202.055748 
L 215.521764 202.055748 
L 215.573816 197.58229 
L 215.6516 197.58229 
L 215.680679 196.463926 
L 222.344464 196.463926 
L 222.371837 195.345561 
L 222.465668 195.345561 
L 222.549248 192.54965 
L 222.876377 192.54965 
L 222.876377 191.990468 
L 227.377892 191.990468 
L 227.440751 188.076192 
L 231.121751 188.076192 
L 231.220155 186.398645 
L 231.241075 186.398645 
L 231.247607 184.721099 
L 234.308825 184.721099 
L 234.358499 180.806823 
L 236.957921 180.806823 
L 236.995839 178.570094 
L 237.136018 178.570094 
L 237.136018 178.010912 
L 239.263276 178.010912 
L 239.278844 175.774183 
L 241.29336 175.774183 
L 241.29336 174.655818 
L 243.100463 174.655818 
L 243.100463 174.096636 
L 244.733881 174.096636 
L 244.733881 173.537454 
L 251.144662 173.537454 
L 251.159449 172.419089 
L 253.167976 172.419089 
L 253.18094 170.741543 
L 255.828596 170.741543 
L 255.828596 170.18236 
L 256.627445 170.18236 
L 256.627445 169.623178 
L 257.390841 169.623178 
L 257.390841 169.063996 
L 259.496669 169.063996 
L 259.496669 168.504814 
L 263.060096 168.504814 
L 263.060096 167.945631 
L 263.592259 167.945631 
L 263.592259 167.386449 
L 264.603882 167.386449 
L 264.603882 166.827267 
L 270.027364 166.827267 
L 270.027364 166.268085 
L 333.429677 166.268085 
L 333.429677 166.268085 
" style="fill:none;stroke:#6495ed;stroke-linecap:square;stroke-width:1.5;"/>
   </g>
   <g id="line2d_40">
    <defs>
     <path d="M -0 6 
L 6 -6 
L -6 -6 
z
" id="me69d447fde" style="stroke:#6495ed;stroke-linejoin:miter;stroke-width:1.5;"/>
    </defs>
    <g>
     <use style="fill-opacity:0;stroke:#6495ed;stroke-linejoin:miter;stroke-width:1.5;" x="108.500601" xlink:href="#me69d447fde" y="263.565795"/>
     <use style="fill-opacity:0;stroke:#6495ed;stroke-linejoin:miter;stroke-width:1.5;" x="169.505247" xlink:href="#me69d447fde" y="214.91694"/>
     <use style="fill-opacity:0;stroke:#6495ed;stroke-linejoin:miter;stroke-width:1.5;" x="241.29336" xlink:href="#me69d447fde" y="174.655818"/>
     <use style="fill-opacity:0;stroke:#6495ed;stroke-linejoin:miter;stroke-width:1.5;" x="270.027364" xlink:href="#me69d447fde" y="166.268085"/>
     <use style="fill-opacity:0;stroke:#6495ed;stroke-linejoin:miter;stroke-width:1.5;" x="333.429677" xlink:href="#me69d447fde" y="166.268085"/>
    </g>
   </g>
   <g id="line2d_41">
    <path style="fill:none;stroke:#6495ed;stroke-linecap:square;stroke-width:1.5;"/>
    <g/>
   </g>
   <g id="line2d_42">
    <path clip-path="url(#peba0b5f6ed)" d="M 203.414473 214.357757 
" style="fill:none;stroke:#6495ed;stroke-linecap:square;stroke-width:1.5;"/>
    <defs>
     <path d="M -12 12 
L 12 -12 
M -12 -12 
L 12 12 
" id="mc61a115dc0" style="stroke:#6495ed;stroke-width:3;"/>
    </defs>
    <g clip-path="url(#peba0b5f6ed)">
     <use style="fill:#6495ed;stroke:#6495ed;stroke-width:3;" x="203.414473" xlink:href="#mc61a115dc0" y="214.357757"/>
    </g>
   </g>
   <g id="line2d_43">
    <path d="M 333.429677 166.268085 
L 363.933742 289.176341 
" style="fill:none;stroke:#6495ed;stroke-linecap:square;stroke-width:1.5;"/>
    <g>
     <use style="fill-opacity:0;stroke:#6495ed;stroke-linejoin:miter;stroke-width:1.5;" x="333.429677" xlink:href="#me69d447fde" y="166.268085"/>
     <use style="fill-opacity:0;stroke:#6495ed;stroke-linejoin:miter;stroke-width:1.5;" x="363.933742" xlink:href="#me69d447fde" y="289.176341"/>
    </g>
   </g>
   <g id="line2d_44">
    <path d="M 333.429677 110.349861 
L 363.933742 197.917799 
" style="fill:none;stroke:#ffa500;stroke-linecap:square;stroke-width:1.5;"/>
    <g>
     <use style="fill-opacity:0;stroke:#ffa500;stroke-linejoin:bevel;stroke-width:1.5;" x="333.429677" xlink:href="#m559e6b650a" y="110.349861"/>
     <use style="fill-opacity:0;stroke:#ffa500;stroke-linejoin:bevel;stroke-width:1.5;" x="363.933742" xlink:href="#m559e6b650a" y="197.917799"/>
    </g>
   </g>
   <g id="line2d_45">
    <path d="M 333.429677 9.697057 
L 363.933742 106.659258 
" style="fill:none;stroke:#ff00ff;stroke-linecap:square;stroke-width:1.5;"/>
    <g>
     <use style="fill-opacity:0;stroke:#ff00ff;stroke-linejoin:miter;stroke-width:1.5;" x="333.429677" xlink:href="#m93f59e1859" y="9.697057"/>
     <use style="fill-opacity:0;stroke:#ff00ff;stroke-linejoin:miter;stroke-width:1.5;" x="363.933742" xlink:href="#m93f59e1859" y="106.659258"/>
    </g>
   </g>
   <g id="line2d_46">
    <path d="M 333.429677 9.697057 
L 363.933742 15.400716 
" style="fill:none;stroke:#000080;stroke-linecap:square;stroke-width:1.5;"/>
    <g>
     <use style="fill-opacity:0;stroke:#000080;stroke-width:1.5;" x="333.429677" xlink:href="#meee8b3affa" y="9.697057"/>
     <use style="fill-opacity:0;stroke:#000080;stroke-width:1.5;" x="363.933742" xlink:href="#meee8b3affa" y="15.400716"/>
    </g>
   </g>
   <g id="line2d_47">
    <path d="M 333.429677 294.88 
L 333.429677 9.697057 
" style="fill:none;stroke:#000000;stroke-linecap:square;stroke-width:1.5;"/>
   </g>
   <g id="patch_3">
    <path d="M 56.12 294.88 
L 56.12 6.845228 
" style="fill:none;stroke:#000000;stroke-linecap:square;stroke-linejoin:miter;stroke-width:0.8;"/>
   </g>
   <g id="patch_4">
    <path d="M 399.984 294.88 
L 399.984 6.845228 
" style="fill:none;stroke:#000000;stroke-linecap:square;stroke-linejoin:miter;stroke-width:0.8;"/>
   </g>
   <g id="patch_5">
    <path d="M 56.12 294.88 
L 399.984 294.88 
" style="fill:none;stroke:#000000;stroke-linecap:square;stroke-linejoin:miter;stroke-width:0.8;"/>
   </g>
   <g id="patch_6">
    <path d="M 56.12 6.845228 
L 399.984 6.845228 
" style="fill:none;stroke:#000000;stroke-linecap:square;stroke-linejoin:miter;stroke-width:0.8;"/>
   </g>
   <g id="text_14">
    <!-- f9 -->
    <defs>
     <path d="M 10.984375 1.515625 
L 10.984375 10.5 
Q 14.703125 8.734375 18.5 7.8125 
Q 22.3125 6.890625 25.984375 6.890625 
Q 35.75 6.890625 40.890625 13.453125 
Q 46.046875 20.015625 46.78125 33.40625 
Q 43.953125 29.203125 39.59375 26.953125 
Q 35.25 24.703125 29.984375 24.703125 
Q 19.046875 24.703125 12.671875 31.3125 
Q 6.296875 37.9375 6.296875 49.421875 
Q 6.296875 60.640625 12.9375 67.421875 
Q 19.578125 74.21875 30.609375 74.21875 
Q 43.265625 74.21875 49.921875 64.515625 
Q 56.59375 54.828125 56.59375 36.375 
Q 56.59375 19.140625 48.40625 8.859375 
Q 40.234375 -1.421875 26.421875 -1.421875 
Q 22.703125 -1.421875 18.890625 -0.6875 
Q 15.09375 0.046875 10.984375 1.515625 
z
M 30.609375 32.421875 
Q 37.25 32.421875 41.125 36.953125 
Q 45.015625 41.5 45.015625 49.421875 
Q 45.015625 57.28125 41.125 61.84375 
Q 37.25 66.40625 30.609375 66.40625 
Q 23.96875 66.40625 20.09375 61.84375 
Q 16.21875 57.28125 16.21875 49.421875 
Q 16.21875 41.5 20.09375 36.953125 
Q 23.96875 32.421875 30.609375 32.421875 
z
" id="DejaVuSans-39"/>
    </defs>
    <g transform="translate(369.479935 293.867279)scale(0.17 -0.17)">
     <use xlink:href="#DejaVuSans-66"/>
     <use x="35.205078" xlink:href="#DejaVuSans-39"/>
    </g>
   </g>
   <g id="text_15">
    <!-- f8 -->
    <g transform="translate(369.479935 202.608737)scale(0.17 -0.17)">
     <use xlink:href="#DejaVuSans-66"/>
     <use x="35.205078" xlink:href="#DejaVuSans-38"/>
    </g>
   </g>
   <g id="text_16">
    <!-- f7 -->
    <defs>
     <path d="M 8.203125 72.90625 
L 55.078125 72.90625 
L 55.078125 68.703125 
L 28.609375 0 
L 18.3125 0 
L 43.21875 64.59375 
L 8.203125 64.59375 
z
" id="DejaVuSans-37"/>
    </defs>
    <g transform="translate(369.479935 111.350195)scale(0.17 -0.17)">
     <use xlink:href="#DejaVuSans-66"/>
     <use x="35.205078" xlink:href="#DejaVuSans-37"/>
    </g>
   </g>
   <g id="text_17">
    <!-- f6 -->
    <g transform="translate(369.479935 20.091654)scale(0.17 -0.17)">
     <use xlink:href="#DejaVuSans-66"/>
     <use x="35.205078" xlink:href="#DejaVuSans-36"/>
    </g>
   </g>
   <g id="text_18">
    <!-- bbob -->
    <defs>
     <path d="M 48.6875 27.296875 
Q 48.6875 37.203125 44.609375 42.84375 
Q 40.53125 48.484375 33.40625 48.484375 
Q 26.265625 48.484375 22.1875 42.84375 
Q 18.109375 37.203125 18.109375 27.296875 
Q 18.109375 17.390625 22.1875 11.75 
Q 26.265625 6.109375 33.40625 6.109375 
Q 40.53125 6.109375 44.609375 11.75 
Q 48.6875 17.390625 48.6875 27.296875 
z
M 18.109375 46.390625 
Q 20.953125 51.265625 25.265625 53.625 
Q 29.59375 56 35.59375 56 
Q 45.5625 56 51.78125 48.09375 
Q 58.015625 40.1875 58.015625 27.296875 
Q 58.015625 14.40625 51.78125 6.484375 
Q 45.5625 -1.421875 35.59375 -1.421875 
Q 29.59375 -1.421875 25.265625 0.953125 
Q 20.953125 3.328125 18.109375 8.203125 
L 18.109375 0 
L 9.078125 0 
L 9.078125 75.984375 
L 18.109375 75.984375 
z
" id="DejaVuSans-62"/>
    </defs>
    <g transform="translate(59.55864 17.475982)scale(0.102 -0.102)">
     <use xlink:href="#DejaVuSans-62"/>
     <use x="63.476562" xlink:href="#DejaVuSans-62"/>
     <use x="126.953125" xlink:href="#DejaVuSans-6f"/>
     <use x="188.134766" xlink:href="#DejaVuSans-62"/>
    </g>
    <!-- Misc. moderate functions, 2-D -->
    <defs>
     <path d="M 9.8125 72.90625 
L 24.515625 72.90625 
L 43.109375 23.296875 
L 61.8125 72.90625 
L 76.515625 72.90625 
L 76.515625 0 
L 66.890625 0 
L 66.890625 64.015625 
L 48.09375 14.015625 
L 38.1875 14.015625 
L 19.390625 64.015625 
L 19.390625 0 
L 9.8125 0 
z
" id="DejaVuSans-4d"/>
     <path d="M 19.671875 64.796875 
L 19.671875 8.109375 
L 31.59375 8.109375 
Q 46.6875 8.109375 53.6875 14.9375 
Q 60.6875 21.78125 60.6875 36.53125 
Q 60.6875 51.171875 53.6875 57.984375 
Q 46.6875 64.796875 31.59375 64.796875 
z
M 9.8125 72.90625 
L 30.078125 72.90625 
Q 51.265625 72.90625 61.171875 64.09375 
Q 71.09375 55.28125 71.09375 36.53125 
Q 71.09375 17.671875 61.125 8.828125 
Q 51.171875 0 30.078125 0 
L 9.8125 0 
z
" id="DejaVuSans-44"/>
    </defs>
    <g transform="translate(59.55864 28.89775)scale(0.102 -0.102)">
     <use xlink:href="#DejaVuSans-4d"/>
     <use x="86.279297" xlink:href="#DejaVuSans-69"/>
     <use x="114.0625" xlink:href="#DejaVuSans-73"/>
     <use x="166.162109" xlink:href="#DejaVuSans-63"/>
     <use x="221.142578" xlink:href="#DejaVuSans-2e"/>
     <use x="252.929688" xlink:href="#DejaVuSans-20"/>
     <use x="284.716797" xlink:href="#DejaVuSans-6d"/>
     <use x="382.128906" xlink:href="#DejaVuSans-6f"/>
     <use x="443.310547" xlink:href="#DejaVuSans-64"/>
     <use x="506.787109" xlink:href="#DejaVuSans-65"/>
     <use x="568.310547" xlink:href="#DejaVuSans-72"/>
     <use x="609.423828" xlink:href="#DejaVuSans-61"/>
     <use x="670.703125" xlink:href="#DejaVuSans-74"/>
     <use x="709.912109" xlink:href="#DejaVuSans-65"/>
     <use x="771.435547" xlink:href="#DejaVuSans-20"/>
     <use x="803.222656" xlink:href="#DejaVuSans-66"/>
     <use x="838.427734" xlink:href="#DejaVuSans-75"/>
     <use x="901.806641" xlink:href="#DejaVuSans-6e"/>
     <use x="965.185547" xlink:href="#DejaVuSans-63"/>
     <use x="1020.166016" xlink:href="#DejaVuSans-74"/>
     <use x="1059.375" xlink:href="#DejaVuSans-69"/>
     <use x="1087.158203" xlink:href="#DejaVuSans-6f"/>
     <use x="1148.339844" xlink:href="#DejaVuSans-6e"/>
     <use x="1211.71875" xlink:href="#DejaVuSans-73"/>
     <use x="1263.818359" xlink:href="#DejaVuSans-2c"/>
     <use x="1295.605469" xlink:href="#DejaVuSans-20"/>
     <use x="1327.392578" xlink:href="#DejaVuSans-32"/>
     <use x="1391.015625" xlink:href="#DejaVuSans-2d"/>
     <use x="1427.099609" xlink:href="#DejaVuSans-44"/>
    </g>
    <!-- 51 targets: 100..1e-08 -->
    <defs>
     <path d="M 10.796875 72.90625 
L 49.515625 72.90625 
L 49.515625 64.59375 
L 19.828125 64.59375 
L 19.828125 46.734375 
Q 21.96875 47.46875 24.109375 47.828125 
Q 26.265625 48.1875 28.421875 48.1875 
Q 40.625 48.1875 47.75 41.5 
Q 54.890625 34.8125 54.890625 23.390625 
Q 54.890625 11.625 47.5625 5.09375 
Q 40.234375 -1.421875 26.90625 -1.421875 
Q 22.3125 -1.421875 17.546875 -0.640625 
Q 12.796875 0.140625 7.71875 1.703125 
L 7.71875 11.625 
Q 12.109375 9.234375 16.796875 8.0625 
Q 21.484375 6.890625 26.703125 6.890625 
Q 35.15625 6.890625 40.078125 11.328125 
Q 45.015625 15.765625 45.015625 23.390625 
Q 45.015625 31 40.078125 35.4375 
Q 35.15625 39.890625 26.703125 39.890625 
Q 22.75 39.890625 18.8125 39.015625 
Q 14.890625 38.140625 10.796875 36.28125 
z
" id="DejaVuSans-35"/>
     <path d="M 11.71875 12.40625 
L 22.015625 12.40625 
L 22.015625 0 
L 11.71875 0 
z
M 11.71875 51.703125 
L 22.015625 51.703125 
L 22.015625 39.3125 
L 11.71875 39.3125 
z
" id="DejaVuSans-3a"/>
    </defs>
    <g transform="translate(59.55864 40.319519)scale(0.102 -0.102)">
     <use xlink:href="#DejaVuSans-35"/>
     <use x="63.623047" xlink:href="#DejaVuSans-31"/>
     <use x="127.246094" xlink:href="#DejaVuSans-20"/>
     <use x="159.033203" xlink:href="#DejaVuSans-74"/>
     <use x="198.242188" xlink:href="#DejaVuSans-61"/>
     <use x="259.521484" xlink:href="#DejaVuSans-72"/>
     <use x="300.619141" xlink:href="#DejaVuSans-67"/>
     <use x="364.095703" xlink:href="#DejaVuSans-65"/>
     <use x="425.619141" xlink:href="#DejaVuSans-74"/>
     <use x="464.828125" xlink:href="#DejaVuSans-73"/>
     <use x="516.927734" xlink:href="#DejaVuSans-3a"/>
     <use x="550.619141" xlink:href="#DejaVuSans-20"/>
     <use x="582.40625" xlink:href="#DejaVuSans-31"/>
     <use x="646.029297" xlink:href="#DejaVuSans-30"/>
     <use x="709.652344" xlink:href="#DejaVuSans-30"/>
     <use x="773.275391" xlink:href="#DejaVuSans-2e"/>
     <use x="805.0625" xlink:href="#DejaVuSans-2e"/>
     <use x="836.849609" xlink:href="#DejaVuSans-31"/>
     <use x="900.472656" xlink:href="#DejaVuSans-65"/>
     <use x="961.996094" xlink:href="#DejaVuSans-2d"/>
     <use x="998.080078" xlink:href="#DejaVuSans-30"/>
     <use x="1061.703125" xlink:href="#DejaVuSans-38"/>
    </g>
    <!-- 15 instances -->
    <g transform="translate(59.55864 51.741288)scale(0.102 -0.102)">
     <use xlink:href="#DejaVuSans-31"/>
     <use x="63.623047" xlink:href="#DejaVuSans-35"/>
     <use x="127.246094" xlink:href="#DejaVuSans-20"/>
     <use x="159.033203" xlink:href="#DejaVuSans-69"/>
     <use x="186.816406" xlink:href="#DejaVuSans-6e"/>
     <use x="250.195312" xlink:href="#DejaVuSans-73"/>
     <use x="302.294922" xlink:href="#DejaVuSans-74"/>
     <use x="341.503906" xlink:href="#DejaVuSans-61"/>
     <use x="402.783203" xlink:href="#DejaVuSans-6e"/>
     <use x="466.162109" xlink:href="#DejaVuSans-63"/>
     <use x="521.142578" xlink:href="#DejaVuSans-65"/>
     <use x="582.666016" xlink:href="#DejaVuSans-73"/>
    </g>
   </g>
   <g id="text_19">
    <!-- v2.2.1.10 -->
    <g style="fill:#808080;" transform="translate(204.419188 289.919965)scale(0.1 -0.1)">
     <use xlink:href="#DejaVuSans-76"/>
     <use x="59.179688" xlink:href="#DejaVuSans-32"/>
     <use x="122.802734" xlink:href="#DejaVuSans-2e"/>
     <use x="154.589844" xlink:href="#DejaVuSans-32"/>
     <use x="218.212891" xlink:href="#DejaVuSans-2e"/>
     <use x="250" xlink:href="#DejaVuSans-31"/>
     <use x="313.623047" xlink:href="#DejaVuSans-2e"/>
     <use x="345.410156" xlink:href="#DejaVuSans-31"/>
     <use x="409.033203" xlink:href="#DejaVuSans-30"/>
    </g>
   </g>
  </g>
 </g>
 <defs>
  <clipPath id="peba0b5f6ed">
   <rect height="288.034772" width="343.864" x="56.12" y="6.845228"/>
  </clipPath>
 </defs>
</svg>
