<?xml version="1.0" encoding="utf-8" standalone="no"?>
<!DOCTYPE svg PUBLIC "-//W3C//DTD SVG 1.1//EN"
  "http://www.w3.org/Graphics/SVG/1.1/DTD/svg11.dtd">
<!-- Created with matplotlib (http://matplotlib.org/) -->
<svg height="345.6pt" version="1.1" viewBox="0 0 460.8 345.6" width="460.8pt" xmlns="http://www.w3.org/2000/svg" xmlns:xlink="http://www.w3.org/1999/xlink">
 <defs>
  <style type="text/css">
*{stroke-linecap:butt;stroke-linejoin:round;}
  </style>
 </defs>
 <g id="figure_1">
  <g id="patch_1">
   <path d="M 0 345.6 
L 460.8 345.6 
L 460.8 0 
L 0 0 
z
" style="fill:#ffffff;"/>
  </g>
  <g id="axes_1">
   <g id="patch_2">
    <path d="M 56.12 294.88 
L 399.984 294.88 
L 399.984 24.84 
L 56.12 24.84 
z
" style="fill:#ffffff;"/>
   </g>
   <g id="matplotlib.axis_1">
    <g id="xtick_1">
     <g id="line2d_1">
      <path clip-path="url(#p168c4011e6)" d="M 56.12 294.88 
L 56.12 24.84 
" style="fill:none;stroke:#b0b0b0;stroke-linecap:square;stroke-width:0.8;"/>
     </g>
     <g id="line2d_2">
      <defs>
       <path d="M 0 0 
L 0 3.5 
" id="m5f4645ad6e" style="stroke:#000000;stroke-width:0.8;"/>
      </defs>
      <g>
       <use style="stroke:#000000;stroke-width:0.8;" x="56.12" xlink:href="#m5f4645ad6e" y="294.88"/>
      </g>
     </g>
     <g id="text_1">
      <!-- 0 -->
      <defs>
       <path d="M 31.78125 66.40625 
Q 24.171875 66.40625 20.328125 58.90625 
Q 16.5 51.421875 16.5 36.375 
Q 16.5 21.390625 20.328125 13.890625 
Q 24.171875 6.390625 31.78125 6.390625 
Q 39.453125 6.390625 43.28125 13.890625 
Q 47.125 21.390625 47.125 36.375 
Q 47.125 51.421875 43.28125 58.90625 
Q 39.453125 66.40625 31.78125 66.40625 
z
M 31.78125 74.21875 
Q 44.046875 74.21875 50.515625 64.515625 
Q 56.984375 54.828125 56.984375 36.375 
Q 56.984375 17.96875 50.515625 8.265625 
Q 44.046875 -1.421875 31.78125 -1.421875 
Q 19.53125 -1.421875 13.0625 8.265625 
Q 6.59375 17.96875 6.59375 36.375 
Q 6.59375 54.828125 13.0625 64.515625 
Q 19.53125 74.21875 31.78125 74.21875 
z
" id="DejaVuSans-30"/>
      </defs>
      <g transform="translate(49.7575 317.076875)scale(0.2 -0.2)">
       <use xlink:href="#DejaVuSans-30"/>
      </g>
     </g>
    </g>
    <g id="xtick_2">
     <g id="line2d_3">
      <path clip-path="url(#p168c4011e6)" d="M 135.351336 294.88 
L 135.351336 24.84 
" style="fill:none;stroke:#b0b0b0;stroke-linecap:square;stroke-width:0.8;"/>
     </g>
     <g id="line2d_4">
      <g>
       <use style="stroke:#000000;stroke-width:0.8;" x="135.351336" xlink:href="#m5f4645ad6e" y="294.88"/>
      </g>
     </g>
     <g id="text_2">
      <!-- 2 -->
      <defs>
       <path d="M 19.1875 8.296875 
L 53.609375 8.296875 
L 53.609375 0 
L 7.328125 0 
L 7.328125 8.296875 
Q 12.9375 14.109375 22.625 23.890625 
Q 32.328125 33.6875 34.8125 36.53125 
Q 39.546875 41.84375 41.421875 45.53125 
Q 43.3125 49.21875 43.3125 52.78125 
Q 43.3125 58.59375 39.234375 62.25 
Q 35.15625 65.921875 28.609375 65.921875 
Q 23.96875 65.921875 18.8125 64.3125 
Q 13.671875 62.703125 7.8125 59.421875 
L 7.8125 69.390625 
Q 13.765625 71.78125 18.9375 73 
Q 24.125 74.21875 28.421875 74.21875 
Q 39.75 74.21875 46.484375 68.546875 
Q 53.21875 62.890625 53.21875 53.421875 
Q 53.21875 48.921875 51.53125 44.890625 
Q 49.859375 40.875 45.40625 35.40625 
Q 44.1875 33.984375 37.640625 27.21875 
Q 31.109375 20.453125 19.1875 8.296875 
z
" id="DejaVuSans-32"/>
      </defs>
      <g transform="translate(128.988836 317.076875)scale(0.2 -0.2)">
       <use xlink:href="#DejaVuSans-32"/>
      </g>
     </g>
    </g>
    <g id="xtick_3">
     <g id="line2d_5">
      <path clip-path="url(#p168c4011e6)" d="M 214.582673 294.88 
L 214.582673 24.84 
" style="fill:none;stroke:#b0b0b0;stroke-linecap:square;stroke-width:0.8;"/>
     </g>
     <g id="line2d_6">
      <g>
       <use style="stroke:#000000;stroke-width:0.8;" x="214.582673" xlink:href="#m5f4645ad6e" y="294.88"/>
      </g>
     </g>
     <g id="text_3">
      <!-- 4 -->
      <defs>
       <path d="M 37.796875 64.3125 
L 12.890625 25.390625 
L 37.796875 25.390625 
z
M 35.203125 72.90625 
L 47.609375 72.90625 
L 47.609375 25.390625 
L 58.015625 25.390625 
L 58.015625 17.1875 
L 47.609375 17.1875 
L 47.609375 0 
L 37.796875 0 
L 37.796875 17.1875 
L 4.890625 17.1875 
L 4.890625 26.703125 
z
" id="DejaVuSans-34"/>
      </defs>
      <g transform="translate(208.220173 317.076875)scale(0.2 -0.2)">
       <use xlink:href="#DejaVuSans-34"/>
      </g>
     </g>
    </g>
    <g id="xtick_4">
     <g id="line2d_7">
      <path clip-path="url(#p168c4011e6)" d="M 293.814009 294.88 
L 293.814009 24.84 
" style="fill:none;stroke:#b0b0b0;stroke-linecap:square;stroke-width:0.8;"/>
     </g>
     <g id="line2d_8">
      <g>
       <use style="stroke:#000000;stroke-width:0.8;" x="293.814009" xlink:href="#m5f4645ad6e" y="294.88"/>
      </g>
     </g>
     <g id="text_4">
      <!-- 6 -->
      <defs>
       <path d="M 33.015625 40.375 
Q 26.375 40.375 22.484375 35.828125 
Q 18.609375 31.296875 18.609375 23.390625 
Q 18.609375 15.53125 22.484375 10.953125 
Q 26.375 6.390625 33.015625 6.390625 
Q 39.65625 6.390625 43.53125 10.953125 
Q 47.40625 15.53125 47.40625 23.390625 
Q 47.40625 31.296875 43.53125 35.828125 
Q 39.65625 40.375 33.015625 40.375 
z
M 52.59375 71.296875 
L 52.59375 62.3125 
Q 48.875 64.0625 45.09375 64.984375 
Q 41.3125 65.921875 37.59375 65.921875 
Q 27.828125 65.921875 22.671875 59.328125 
Q 17.53125 52.734375 16.796875 39.40625 
Q 19.671875 43.65625 24.015625 45.921875 
Q 28.375 48.1875 33.59375 48.1875 
Q 44.578125 48.1875 50.953125 41.515625 
Q 57.328125 34.859375 57.328125 23.390625 
Q 57.328125 12.15625 50.6875 5.359375 
Q 44.046875 -1.421875 33.015625 -1.421875 
Q 20.359375 -1.421875 13.671875 8.265625 
Q 6.984375 17.96875 6.984375 36.375 
Q 6.984375 53.65625 15.1875 63.9375 
Q 23.390625 74.21875 37.203125 74.21875 
Q 40.921875 74.21875 44.703125 73.484375 
Q 48.484375 72.75 52.59375 71.296875 
z
" id="DejaVuSans-36"/>
      </defs>
      <g transform="translate(287.451509 317.076875)scale(0.2 -0.2)">
       <use xlink:href="#DejaVuSans-36"/>
      </g>
     </g>
    </g>
    <g id="xtick_5">
     <g id="line2d_9">
      <path clip-path="url(#p168c4011e6)" d="M 373.045346 294.88 
L 373.045346 24.84 
" style="fill:none;stroke:#b0b0b0;stroke-linecap:square;stroke-width:0.8;"/>
     </g>
     <g id="line2d_10">
      <g>
       <use style="stroke:#000000;stroke-width:0.8;" x="373.045346" xlink:href="#m5f4645ad6e" y="294.88"/>
      </g>
     </g>
     <g id="text_5">
      <!-- 8 -->
      <defs>
       <path d="M 31.78125 34.625 
Q 24.75 34.625 20.71875 30.859375 
Q 16.703125 27.09375 16.703125 20.515625 
Q 16.703125 13.921875 20.71875 10.15625 
Q 24.75 6.390625 31.78125 6.390625 
Q 38.8125 6.390625 42.859375 10.171875 
Q 46.921875 13.96875 46.921875 20.515625 
Q 46.921875 27.09375 42.890625 30.859375 
Q 38.875 34.625 31.78125 34.625 
z
M 21.921875 38.8125 
Q 15.578125 40.375 12.03125 44.71875 
Q 8.5 49.078125 8.5 55.328125 
Q 8.5 64.0625 14.71875 69.140625 
Q 20.953125 74.21875 31.78125 74.21875 
Q 42.671875 74.21875 48.875 69.140625 
Q 55.078125 64.0625 55.078125 55.328125 
Q 55.078125 49.078125 51.53125 44.71875 
Q 48 40.375 41.703125 38.8125 
Q 48.828125 37.15625 52.796875 32.3125 
Q 56.78125 27.484375 56.78125 20.515625 
Q 56.78125 9.90625 50.3125 4.234375 
Q 43.84375 -1.421875 31.78125 -1.421875 
Q 19.734375 -1.421875 13.25 4.234375 
Q 6.78125 9.90625 6.78125 20.515625 
Q 6.78125 27.484375 10.78125 32.3125 
Q 14.796875 37.15625 21.921875 38.8125 
z
M 18.3125 54.390625 
Q 18.3125 48.734375 21.84375 45.5625 
Q 25.390625 42.390625 31.78125 42.390625 
Q 38.140625 42.390625 41.71875 45.5625 
Q 45.3125 48.734375 45.3125 54.390625 
Q 45.3125 60.0625 41.71875 63.234375 
Q 38.140625 66.40625 31.78125 66.40625 
Q 25.390625 66.40625 21.84375 63.234375 
Q 18.3125 60.0625 18.3125 54.390625 
z
" id="DejaVuSans-38"/>
      </defs>
      <g transform="translate(366.682846 317.076875)scale(0.2 -0.2)">
       <use xlink:href="#DejaVuSans-38"/>
      </g>
     </g>
    </g>
    <g id="text_6">
     <!-- log10(# f-evals / dimension) -->
     <defs>
      <path d="M 9.421875 75.984375 
L 18.40625 75.984375 
L 18.40625 0 
L 9.421875 0 
z
" id="DejaVuSans-6c"/>
      <path d="M 30.609375 48.390625 
Q 23.390625 48.390625 19.1875 42.75 
Q 14.984375 37.109375 14.984375 27.296875 
Q 14.984375 17.484375 19.15625 11.84375 
Q 23.34375 6.203125 30.609375 6.203125 
Q 37.796875 6.203125 41.984375 11.859375 
Q 46.1875 17.53125 46.1875 27.296875 
Q 46.1875 37.015625 41.984375 42.703125 
Q 37.796875 48.390625 30.609375 48.390625 
z
M 30.609375 56 
Q 42.328125 56 49.015625 48.375 
Q 55.71875 40.765625 55.71875 27.296875 
Q 55.71875 13.875 49.015625 6.21875 
Q 42.328125 -1.421875 30.609375 -1.421875 
Q 18.84375 -1.421875 12.171875 6.21875 
Q 5.515625 13.875 5.515625 27.296875 
Q 5.515625 40.765625 12.171875 48.375 
Q 18.84375 56 30.609375 56 
z
" id="DejaVuSans-6f"/>
      <path d="M 45.40625 27.984375 
Q 45.40625 37.75 41.375 43.109375 
Q 37.359375 48.484375 30.078125 48.484375 
Q 22.859375 48.484375 18.828125 43.109375 
Q 14.796875 37.75 14.796875 27.984375 
Q 14.796875 18.265625 18.828125 12.890625 
Q 22.859375 7.515625 30.078125 7.515625 
Q 37.359375 7.515625 41.375 12.890625 
Q 45.40625 18.265625 45.40625 27.984375 
z
M 54.390625 6.78125 
Q 54.390625 -7.171875 48.1875 -13.984375 
Q 42 -20.796875 29.203125 -20.796875 
Q 24.46875 -20.796875 20.265625 -20.09375 
Q 16.0625 -19.390625 12.109375 -17.921875 
L 12.109375 -9.1875 
Q 16.0625 -11.328125 19.921875 -12.34375 
Q 23.78125 -13.375 27.78125 -13.375 
Q 36.625 -13.375 41.015625 -8.765625 
Q 45.40625 -4.15625 45.40625 5.171875 
L 45.40625 9.625 
Q 42.625 4.78125 38.28125 2.390625 
Q 33.9375 0 27.875 0 
Q 17.828125 0 11.671875 7.65625 
Q 5.515625 15.328125 5.515625 27.984375 
Q 5.515625 40.671875 11.671875 48.328125 
Q 17.828125 56 27.875 56 
Q 33.9375 56 38.28125 53.609375 
Q 42.625 51.21875 45.40625 46.390625 
L 45.40625 54.6875 
L 54.390625 54.6875 
z
" id="DejaVuSans-67"/>
      <path d="M 12.40625 8.296875 
L 28.515625 8.296875 
L 28.515625 63.921875 
L 10.984375 60.40625 
L 10.984375 69.390625 
L 28.421875 72.90625 
L 38.28125 72.90625 
L 38.28125 8.296875 
L 54.390625 8.296875 
L 54.390625 0 
L 12.40625 0 
z
" id="DejaVuSans-31"/>
      <path d="M 31 75.875 
Q 24.46875 64.65625 21.28125 53.65625 
Q 18.109375 42.671875 18.109375 31.390625 
Q 18.109375 20.125 21.3125 9.0625 
Q 24.515625 -2 31 -13.1875 
L 23.1875 -13.1875 
Q 15.875 -1.703125 12.234375 9.375 
Q 8.59375 20.453125 8.59375 31.390625 
Q 8.59375 42.28125 12.203125 53.3125 
Q 15.828125 64.359375 23.1875 75.875 
z
" id="DejaVuSans-28"/>
      <path d="M 51.125 44 
L 36.921875 44 
L 32.8125 27.6875 
L 47.125 27.6875 
z
M 43.796875 71.78125 
L 38.71875 51.515625 
L 52.984375 51.515625 
L 58.109375 71.78125 
L 65.921875 71.78125 
L 60.890625 51.515625 
L 76.125 51.515625 
L 76.125 44 
L 58.984375 44 
L 54.984375 27.6875 
L 70.515625 27.6875 
L 70.515625 20.21875 
L 53.078125 20.21875 
L 48 0 
L 40.1875 0 
L 45.21875 20.21875 
L 30.90625 20.21875 
L 25.875 0 
L 18.015625 0 
L 23.09375 20.21875 
L 7.71875 20.21875 
L 7.71875 27.6875 
L 24.90625 27.6875 
L 29 44 
L 13.28125 44 
L 13.28125 51.515625 
L 30.90625 51.515625 
L 35.890625 71.78125 
z
" id="DejaVuSans-23"/>
      <path id="DejaVuSans-20"/>
      <path d="M 37.109375 75.984375 
L 37.109375 68.5 
L 28.515625 68.5 
Q 23.6875 68.5 21.796875 66.546875 
Q 19.921875 64.59375 19.921875 59.515625 
L 19.921875 54.6875 
L 34.71875 54.6875 
L 34.71875 47.703125 
L 19.921875 47.703125 
L 19.921875 0 
L 10.890625 0 
L 10.890625 47.703125 
L 2.296875 47.703125 
L 2.296875 54.6875 
L 10.890625 54.6875 
L 10.890625 58.5 
Q 10.890625 67.625 15.140625 71.796875 
Q 19.390625 75.984375 28.609375 75.984375 
z
" id="DejaVuSans-66"/>
      <path d="M 4.890625 31.390625 
L 31.203125 31.390625 
L 31.203125 23.390625 
L 4.890625 23.390625 
z
" id="DejaVuSans-2d"/>
      <path d="M 56.203125 29.59375 
L 56.203125 25.203125 
L 14.890625 25.203125 
Q 15.484375 15.921875 20.484375 11.0625 
Q 25.484375 6.203125 34.421875 6.203125 
Q 39.59375 6.203125 44.453125 7.46875 
Q 49.3125 8.734375 54.109375 11.28125 
L 54.109375 2.78125 
Q 49.265625 0.734375 44.1875 -0.34375 
Q 39.109375 -1.421875 33.890625 -1.421875 
Q 20.796875 -1.421875 13.15625 6.1875 
Q 5.515625 13.8125 5.515625 26.8125 
Q 5.515625 40.234375 12.765625 48.109375 
Q 20.015625 56 32.328125 56 
Q 43.359375 56 49.78125 48.890625 
Q 56.203125 41.796875 56.203125 29.59375 
z
M 47.21875 32.234375 
Q 47.125 39.59375 43.09375 43.984375 
Q 39.0625 48.390625 32.421875 48.390625 
Q 24.90625 48.390625 20.390625 44.140625 
Q 15.875 39.890625 15.1875 32.171875 
z
" id="DejaVuSans-65"/>
      <path d="M 2.984375 54.6875 
L 12.5 54.6875 
L 29.59375 8.796875 
L 46.6875 54.6875 
L 56.203125 54.6875 
L 35.6875 0 
L 23.484375 0 
z
" id="DejaVuSans-76"/>
      <path d="M 34.28125 27.484375 
Q 23.390625 27.484375 19.1875 25 
Q 14.984375 22.515625 14.984375 16.5 
Q 14.984375 11.71875 18.140625 8.90625 
Q 21.296875 6.109375 26.703125 6.109375 
Q 34.1875 6.109375 38.703125 11.40625 
Q 43.21875 16.703125 43.21875 25.484375 
L 43.21875 27.484375 
z
M 52.203125 31.203125 
L 52.203125 0 
L 43.21875 0 
L 43.21875 8.296875 
Q 40.140625 3.328125 35.546875 0.953125 
Q 30.953125 -1.421875 24.3125 -1.421875 
Q 15.921875 -1.421875 10.953125 3.296875 
Q 6 8.015625 6 15.921875 
Q 6 25.140625 12.171875 29.828125 
Q 18.359375 34.515625 30.609375 34.515625 
L 43.21875 34.515625 
L 43.21875 35.40625 
Q 43.21875 41.609375 39.140625 45 
Q 35.0625 48.390625 27.6875 48.390625 
Q 23 48.390625 18.546875 47.265625 
Q 14.109375 46.140625 10.015625 43.890625 
L 10.015625 52.203125 
Q 14.9375 54.109375 19.578125 55.046875 
Q 24.21875 56 28.609375 56 
Q 40.484375 56 46.34375 49.84375 
Q 52.203125 43.703125 52.203125 31.203125 
z
" id="DejaVuSans-61"/>
      <path d="M 44.28125 53.078125 
L 44.28125 44.578125 
Q 40.484375 46.53125 36.375 47.5 
Q 32.28125 48.484375 27.875 48.484375 
Q 21.1875 48.484375 17.84375 46.4375 
Q 14.5 44.390625 14.5 40.28125 
Q 14.5 37.15625 16.890625 35.375 
Q 19.28125 33.59375 26.515625 31.984375 
L 29.59375 31.296875 
Q 39.15625 29.25 43.1875 25.515625 
Q 47.21875 21.78125 47.21875 15.09375 
Q 47.21875 7.46875 41.1875 3.015625 
Q 35.15625 -1.421875 24.609375 -1.421875 
Q 20.21875 -1.421875 15.453125 -0.5625 
Q 10.6875 0.296875 5.421875 2 
L 5.421875 11.28125 
Q 10.40625 8.6875 15.234375 7.390625 
Q 20.0625 6.109375 24.8125 6.109375 
Q 31.15625 6.109375 34.5625 8.28125 
Q 37.984375 10.453125 37.984375 14.40625 
Q 37.984375 18.0625 35.515625 20.015625 
Q 33.0625 21.96875 24.703125 23.78125 
L 21.578125 24.515625 
Q 13.234375 26.265625 9.515625 29.90625 
Q 5.8125 33.546875 5.8125 39.890625 
Q 5.8125 47.609375 11.28125 51.796875 
Q 16.75 56 26.8125 56 
Q 31.78125 56 36.171875 55.265625 
Q 40.578125 54.546875 44.28125 53.078125 
z
" id="DejaVuSans-73"/>
      <path d="M 25.390625 72.90625 
L 33.6875 72.90625 
L 8.296875 -9.28125 
L 0 -9.28125 
z
" id="DejaVuSans-2f"/>
      <path d="M 45.40625 46.390625 
L 45.40625 75.984375 
L 54.390625 75.984375 
L 54.390625 0 
L 45.40625 0 
L 45.40625 8.203125 
Q 42.578125 3.328125 38.25 0.953125 
Q 33.9375 -1.421875 27.875 -1.421875 
Q 17.96875 -1.421875 11.734375 6.484375 
Q 5.515625 14.40625 5.515625 27.296875 
Q 5.515625 40.1875 11.734375 48.09375 
Q 17.96875 56 27.875 56 
Q 33.9375 56 38.25 53.625 
Q 42.578125 51.265625 45.40625 46.390625 
z
M 14.796875 27.296875 
Q 14.796875 17.390625 18.875 11.75 
Q 22.953125 6.109375 30.078125 6.109375 
Q 37.203125 6.109375 41.296875 11.75 
Q 45.40625 17.390625 45.40625 27.296875 
Q 45.40625 37.203125 41.296875 42.84375 
Q 37.203125 48.484375 30.078125 48.484375 
Q 22.953125 48.484375 18.875 42.84375 
Q 14.796875 37.203125 14.796875 27.296875 
z
" id="DejaVuSans-64"/>
      <path d="M 9.421875 54.6875 
L 18.40625 54.6875 
L 18.40625 0 
L 9.421875 0 
z
M 9.421875 75.984375 
L 18.40625 75.984375 
L 18.40625 64.59375 
L 9.421875 64.59375 
z
" id="DejaVuSans-69"/>
      <path d="M 52 44.1875 
Q 55.375 50.25 60.0625 53.125 
Q 64.75 56 71.09375 56 
Q 79.640625 56 84.28125 50.015625 
Q 88.921875 44.046875 88.921875 33.015625 
L 88.921875 0 
L 79.890625 0 
L 79.890625 32.71875 
Q 79.890625 40.578125 77.09375 44.375 
Q 74.3125 48.1875 68.609375 48.1875 
Q 61.625 48.1875 57.5625 43.546875 
Q 53.515625 38.921875 53.515625 30.90625 
L 53.515625 0 
L 44.484375 0 
L 44.484375 32.71875 
Q 44.484375 40.625 41.703125 44.40625 
Q 38.921875 48.1875 33.109375 48.1875 
Q 26.21875 48.1875 22.15625 43.53125 
Q 18.109375 38.875 18.109375 30.90625 
L 18.109375 0 
L 9.078125 0 
L 9.078125 54.6875 
L 18.109375 54.6875 
L 18.109375 46.1875 
Q 21.1875 51.21875 25.484375 53.609375 
Q 29.78125 56 35.6875 56 
Q 41.65625 56 45.828125 52.96875 
Q 50 49.953125 52 44.1875 
z
" id="DejaVuSans-6d"/>
      <path d="M 54.890625 33.015625 
L 54.890625 0 
L 45.90625 0 
L 45.90625 32.71875 
Q 45.90625 40.484375 42.875 44.328125 
Q 39.84375 48.1875 33.796875 48.1875 
Q 26.515625 48.1875 22.3125 43.546875 
Q 18.109375 38.921875 18.109375 30.90625 
L 18.109375 0 
L 9.078125 0 
L 9.078125 54.6875 
L 18.109375 54.6875 
L 18.109375 46.1875 
Q 21.34375 51.125 25.703125 53.5625 
Q 30.078125 56 35.796875 56 
Q 45.21875 56 50.046875 50.171875 
Q 54.890625 44.34375 54.890625 33.015625 
z
" id="DejaVuSans-6e"/>
      <path d="M 8.015625 75.875 
L 15.828125 75.875 
Q 23.140625 64.359375 26.78125 53.3125 
Q 30.421875 42.28125 30.421875 31.390625 
Q 30.421875 20.453125 26.78125 9.375 
Q 23.140625 -1.703125 15.828125 -13.1875 
L 8.015625 -13.1875 
Q 14.5 -2 17.703125 9.0625 
Q 20.90625 20.125 20.90625 31.390625 
Q 20.90625 42.671875 17.703125 53.65625 
Q 14.5 64.65625 8.015625 75.875 
z
" id="DejaVuSans-29"/>
     </defs>
     <g transform="translate(107.211219 338.153594)scale(0.17 -0.17)">
      <use xlink:href="#DejaVuSans-6c"/>
      <use x="27.783203" xlink:href="#DejaVuSans-6f"/>
      <use x="88.964844" xlink:href="#DejaVuSans-67"/>
      <use x="152.441406" xlink:href="#DejaVuSans-31"/>
      <use x="216.064453" xlink:href="#DejaVuSans-30"/>
      <use x="279.6875" xlink:href="#DejaVuSans-28"/>
      <use x="318.701172" xlink:href="#DejaVuSans-23"/>
      <use x="402.490234" xlink:href="#DejaVuSans-20"/>
      <use x="434.277344" xlink:href="#DejaVuSans-66"/>
      <use x="469.404297" xlink:href="#DejaVuSans-2d"/>
      <use x="505.488281" xlink:href="#DejaVuSans-65"/>
      <use x="567.011719" xlink:href="#DejaVuSans-76"/>
      <use x="626.191406" xlink:href="#DejaVuSans-61"/>
      <use x="687.470703" xlink:href="#DejaVuSans-6c"/>
      <use x="715.253906" xlink:href="#DejaVuSans-73"/>
      <use x="767.353516" xlink:href="#DejaVuSans-20"/>
      <use x="799.140625" xlink:href="#DejaVuSans-2f"/>
      <use x="832.832031" xlink:href="#DejaVuSans-20"/>
      <use x="864.619141" xlink:href="#DejaVuSans-64"/>
      <use x="928.095703" xlink:href="#DejaVuSans-69"/>
      <use x="955.878906" xlink:href="#DejaVuSans-6d"/>
      <use x="1053.291016" xlink:href="#DejaVuSans-65"/>
      <use x="1114.814453" xlink:href="#DejaVuSans-6e"/>
      <use x="1178.193359" xlink:href="#DejaVuSans-73"/>
      <use x="1230.292969" xlink:href="#DejaVuSans-69"/>
      <use x="1258.076172" xlink:href="#DejaVuSans-6f"/>
      <use x="1319.257812" xlink:href="#DejaVuSans-6e"/>
      <use x="1382.636719" xlink:href="#DejaVuSans-29"/>
     </g>
    </g>
   </g>
   <g id="matplotlib.axis_2">
    <g id="ytick_1">
     <g id="line2d_11">
      <path clip-path="url(#p168c4011e6)" d="M 56.12 294.88 
L 399.984 294.88 
" style="fill:none;stroke:#b0b0b0;stroke-linecap:square;stroke-width:0.8;"/>
     </g>
     <g id="line2d_12">
      <defs>
       <path d="M 0 0 
L -3.5 0 
" id="m180ae07c14" style="stroke:#000000;stroke-width:0.8;"/>
      </defs>
      <g>
       <use style="stroke:#000000;stroke-width:0.8;" x="56.12" xlink:href="#m180ae07c14" y="294.88"/>
      </g>
     </g>
     <g id="text_7">
      <!-- 0.0 -->
      <defs>
       <path d="M 10.6875 12.40625 
L 21 12.40625 
L 21 0 
L 10.6875 0 
z
" id="DejaVuSans-2e"/>
      </defs>
      <g transform="translate(23.675 300.95875)scale(0.16 -0.16)">
       <use xlink:href="#DejaVuSans-30"/>
       <use x="63.623047" xlink:href="#DejaVuSans-2e"/>
       <use x="95.410156" xlink:href="#DejaVuSans-30"/>
      </g>
     </g>
    </g>
    <g id="ytick_2">
     <g id="line2d_13">
      <path clip-path="url(#p168c4011e6)" d="M 56.12 241.406733 
L 399.984 241.406733 
" style="fill:none;stroke:#b0b0b0;stroke-linecap:square;stroke-width:0.8;"/>
     </g>
     <g id="line2d_14">
      <g>
       <use style="stroke:#000000;stroke-width:0.8;" x="56.12" xlink:href="#m180ae07c14" y="241.406733"/>
      </g>
     </g>
     <g id="text_8">
      <!-- 0.2 -->
      <g transform="translate(23.675 247.485483)scale(0.16 -0.16)">
       <use xlink:href="#DejaVuSans-30"/>
       <use x="63.623047" xlink:href="#DejaVuSans-2e"/>
       <use x="95.410156" xlink:href="#DejaVuSans-32"/>
      </g>
     </g>
    </g>
    <g id="ytick_3">
     <g id="line2d_15">
      <path clip-path="url(#p168c4011e6)" d="M 56.12 187.933465 
L 399.984 187.933465 
" style="fill:none;stroke:#b0b0b0;stroke-linecap:square;stroke-width:0.8;"/>
     </g>
     <g id="line2d_16">
      <g>
       <use style="stroke:#000000;stroke-width:0.8;" x="56.12" xlink:href="#m180ae07c14" y="187.933465"/>
      </g>
     </g>
     <g id="text_9">
      <!-- 0.4 -->
      <g transform="translate(23.675 194.012215)scale(0.16 -0.16)">
       <use xlink:href="#DejaVuSans-30"/>
       <use x="63.623047" xlink:href="#DejaVuSans-2e"/>
       <use x="95.410156" xlink:href="#DejaVuSans-34"/>
      </g>
     </g>
    </g>
    <g id="ytick_4">
     <g id="line2d_17">
      <path clip-path="url(#p168c4011e6)" d="M 56.12 134.460198 
L 399.984 134.460198 
" style="fill:none;stroke:#b0b0b0;stroke-linecap:square;stroke-width:0.8;"/>
     </g>
     <g id="line2d_18">
      <g>
       <use style="stroke:#000000;stroke-width:0.8;" x="56.12" xlink:href="#m180ae07c14" y="134.460198"/>
      </g>
     </g>
     <g id="text_10">
      <!-- 0.6 -->
      <g transform="translate(23.675 140.538948)scale(0.16 -0.16)">
       <use xlink:href="#DejaVuSans-30"/>
       <use x="63.623047" xlink:href="#DejaVuSans-2e"/>
       <use x="95.410156" xlink:href="#DejaVuSans-36"/>
      </g>
     </g>
    </g>
    <g id="ytick_5">
     <g id="line2d_19">
      <path clip-path="url(#p168c4011e6)" d="M 56.12 80.986931 
L 399.984 80.986931 
" style="fill:none;stroke:#b0b0b0;stroke-linecap:square;stroke-width:0.8;"/>
     </g>
     <g id="line2d_20">
      <g>
       <use style="stroke:#000000;stroke-width:0.8;" x="56.12" xlink:href="#m180ae07c14" y="80.986931"/>
      </g>
     </g>
     <g id="text_11">
      <!-- 0.8 -->
      <g transform="translate(23.675 87.065681)scale(0.16 -0.16)">
       <use xlink:href="#DejaVuSans-30"/>
       <use x="63.623047" xlink:href="#DejaVuSans-2e"/>
       <use x="95.410156" xlink:href="#DejaVuSans-38"/>
      </g>
     </g>
    </g>
    <g id="ytick_6">
     <g id="line2d_21">
      <path clip-path="url(#p168c4011e6)" d="M 56.12 27.513663 
L 399.984 27.513663 
" style="fill:none;stroke:#b0b0b0;stroke-linecap:square;stroke-width:0.8;"/>
     </g>
     <g id="line2d_22">
      <g>
       <use style="stroke:#000000;stroke-width:0.8;" x="56.12" xlink:href="#m180ae07c14" y="27.513663"/>
      </g>
     </g>
     <g id="text_12">
      <!-- 1.0 -->
      <g transform="translate(23.675 33.592413)scale(0.16 -0.16)">
       <use xlink:href="#DejaVuSans-31"/>
       <use x="63.623047" xlink:href="#DejaVuSans-2e"/>
       <use x="95.410156" xlink:href="#DejaVuSans-30"/>
      </g>
     </g>
    </g>
    <g id="text_13">
     <!-- Fraction of function,target pairs -->
     <defs>
      <path d="M 9.8125 72.90625 
L 51.703125 72.90625 
L 51.703125 64.59375 
L 19.671875 64.59375 
L 19.671875 43.109375 
L 48.578125 43.109375 
L 48.578125 34.8125 
L 19.671875 34.8125 
L 19.671875 0 
L 9.8125 0 
z
" id="DejaVuSans-46"/>
      <path d="M 41.109375 46.296875 
Q 39.59375 47.171875 37.8125 47.578125 
Q 36.03125 48 33.890625 48 
Q 26.265625 48 22.1875 43.046875 
Q 18.109375 38.09375 18.109375 28.8125 
L 18.109375 0 
L 9.078125 0 
L 9.078125 54.6875 
L 18.109375 54.6875 
L 18.109375 46.1875 
Q 20.953125 51.171875 25.484375 53.578125 
Q 30.03125 56 36.53125 56 
Q 37.453125 56 38.578125 55.875 
Q 39.703125 55.765625 41.0625 55.515625 
z
" id="DejaVuSans-72"/>
      <path d="M 48.78125 52.59375 
L 48.78125 44.1875 
Q 44.96875 46.296875 41.140625 47.34375 
Q 37.3125 48.390625 33.40625 48.390625 
Q 24.65625 48.390625 19.8125 42.84375 
Q 14.984375 37.3125 14.984375 27.296875 
Q 14.984375 17.28125 19.8125 11.734375 
Q 24.65625 6.203125 33.40625 6.203125 
Q 37.3125 6.203125 41.140625 7.25 
Q 44.96875 8.296875 48.78125 10.40625 
L 48.78125 2.09375 
Q 45.015625 0.34375 40.984375 -0.53125 
Q 36.96875 -1.421875 32.421875 -1.421875 
Q 20.0625 -1.421875 12.78125 6.34375 
Q 5.515625 14.109375 5.515625 27.296875 
Q 5.515625 40.671875 12.859375 48.328125 
Q 20.21875 56 33.015625 56 
Q 37.15625 56 41.109375 55.140625 
Q 45.0625 54.296875 48.78125 52.59375 
z
" id="DejaVuSans-63"/>
      <path d="M 18.3125 70.21875 
L 18.3125 54.6875 
L 36.8125 54.6875 
L 36.8125 47.703125 
L 18.3125 47.703125 
L 18.3125 18.015625 
Q 18.3125 11.328125 20.140625 9.421875 
Q 21.96875 7.515625 27.59375 7.515625 
L 36.8125 7.515625 
L 36.8125 0 
L 27.59375 0 
Q 17.1875 0 13.234375 3.875 
Q 9.28125 7.765625 9.28125 18.015625 
L 9.28125 47.703125 
L 2.6875 47.703125 
L 2.6875 54.6875 
L 9.28125 54.6875 
L 9.28125 70.21875 
z
" id="DejaVuSans-74"/>
      <path d="M 8.5 21.578125 
L 8.5 54.6875 
L 17.484375 54.6875 
L 17.484375 21.921875 
Q 17.484375 14.15625 20.5 10.265625 
Q 23.53125 6.390625 29.59375 6.390625 
Q 36.859375 6.390625 41.078125 11.03125 
Q 45.3125 15.671875 45.3125 23.6875 
L 45.3125 54.6875 
L 54.296875 54.6875 
L 54.296875 0 
L 45.3125 0 
L 45.3125 8.40625 
Q 42.046875 3.421875 37.71875 1 
Q 33.40625 -1.421875 27.6875 -1.421875 
Q 18.265625 -1.421875 13.375 4.4375 
Q 8.5 10.296875 8.5 21.578125 
z
M 31.109375 56 
z
" id="DejaVuSans-75"/>
      <path d="M 11.71875 12.40625 
L 22.015625 12.40625 
L 22.015625 4 
L 14.015625 -11.625 
L 7.71875 -11.625 
L 11.71875 4 
z
" id="DejaVuSans-2c"/>
      <path d="M 18.109375 8.203125 
L 18.109375 -20.796875 
L 9.078125 -20.796875 
L 9.078125 54.6875 
L 18.109375 54.6875 
L 18.109375 46.390625 
Q 20.953125 51.265625 25.265625 53.625 
Q 29.59375 56 35.59375 56 
Q 45.5625 56 51.78125 48.09375 
Q 58.015625 40.1875 58.015625 27.296875 
Q 58.015625 14.40625 51.78125 6.484375 
Q 45.5625 -1.421875 35.59375 -1.421875 
Q 29.59375 -1.421875 25.265625 0.953125 
Q 20.953125 3.328125 18.109375 8.203125 
z
M 48.6875 27.296875 
Q 48.6875 37.203125 44.609375 42.84375 
Q 40.53125 48.484375 33.40625 48.484375 
Q 26.265625 48.484375 22.1875 42.84375 
Q 18.109375 37.203125 18.109375 27.296875 
Q 18.109375 17.390625 22.1875 11.75 
Q 26.265625 6.109375 33.40625 6.109375 
Q 40.53125 6.109375 44.609375 11.75 
Q 48.6875 17.390625 48.6875 27.296875 
z
" id="DejaVuSans-70"/>
     </defs>
     <g transform="translate(16.139531 294.999375)rotate(-90)scale(0.17 -0.17)">
      <use xlink:href="#DejaVuSans-46"/>
      <use x="57.410156" xlink:href="#DejaVuSans-72"/>
      <use x="98.523438" xlink:href="#DejaVuSans-61"/>
      <use x="159.802734" xlink:href="#DejaVuSans-63"/>
      <use x="214.783203" xlink:href="#DejaVuSans-74"/>
      <use x="253.992188" xlink:href="#DejaVuSans-69"/>
      <use x="281.775391" xlink:href="#DejaVuSans-6f"/>
      <use x="342.957031" xlink:href="#DejaVuSans-6e"/>
      <use x="406.335938" xlink:href="#DejaVuSans-20"/>
      <use x="438.123047" xlink:href="#DejaVuSans-6f"/>
      <use x="499.304688" xlink:href="#DejaVuSans-66"/>
      <use x="534.509766" xlink:href="#DejaVuSans-20"/>
      <use x="566.296875" xlink:href="#DejaVuSans-66"/>
      <use x="601.501953" xlink:href="#DejaVuSans-75"/>
      <use x="664.880859" xlink:href="#DejaVuSans-6e"/>
      <use x="728.259766" xlink:href="#DejaVuSans-63"/>
      <use x="783.240234" xlink:href="#DejaVuSans-74"/>
      <use x="822.449219" xlink:href="#DejaVuSans-69"/>
      <use x="850.232422" xlink:href="#DejaVuSans-6f"/>
      <use x="911.414062" xlink:href="#DejaVuSans-6e"/>
      <use x="974.792969" xlink:href="#DejaVuSans-2c"/>
      <use x="1006.580078" xlink:href="#DejaVuSans-74"/>
      <use x="1045.789062" xlink:href="#DejaVuSans-61"/>
      <use x="1107.068359" xlink:href="#DejaVuSans-72"/>
      <use x="1148.166016" xlink:href="#DejaVuSans-67"/>
      <use x="1211.642578" xlink:href="#DejaVuSans-65"/>
      <use x="1273.166016" xlink:href="#DejaVuSans-74"/>
      <use x="1312.375" xlink:href="#DejaVuSans-20"/>
      <use x="1344.162109" xlink:href="#DejaVuSans-70"/>
      <use x="1407.638672" xlink:href="#DejaVuSans-61"/>
      <use x="1468.917969" xlink:href="#DejaVuSans-69"/>
      <use x="1496.701172" xlink:href="#DejaVuSans-72"/>
      <use x="1537.814453" xlink:href="#DejaVuSans-73"/>
     </g>
    </g>
   </g>
   <g id="line2d_23">
    <defs>
     <path d="M 0 1.5 
C 0.397805 1.5 0.77937 1.341951 1.06066 1.06066 
C 1.341951 0.77937 1.5 0.397805 1.5 0 
C 1.5 -0.397805 1.341951 -0.77937 1.06066 -1.06066 
C 0.77937 -1.341951 0.397805 -1.5 0 -1.5 
C -0.397805 -1.5 -0.77937 -1.341951 -1.06066 -1.06066 
C -1.341951 -0.77937 -1.5 -0.397805 -1.5 0 
C -1.5 0.397805 -1.341951 0.77937 -1.06066 1.06066 
C -0.77937 1.341951 -0.397805 1.5 0 1.5 
z
" id="m30dd676d9e" style="stroke:#00bfbf;"/>
    </defs>
    <g>
     <use style="fill:#00bfbf;stroke:#00bfbf;" x="162.231295" xlink:href="#m30dd676d9e" y="27.513663"/>
     <use style="fill:#00bfbf;stroke:#00bfbf;" x="162.231295" xlink:href="#m30dd676d9e" y="27.513663"/>
    </g>
   </g>
   <g id="line2d_24">
    <path d="M 56.12 294.88 
L 56.12 275.482834 
L 68.045504 275.482834 
L 68.045504 271.8131 
L 75.021477 271.8131 
L 75.021477 270.240357 
L 79.971009 270.240357 
L 79.971009 269.191862 
L 83.810164 269.191862 
L 83.810164 265.522128 
L 86.946982 265.522128 
L 86.946982 261.328146 
L 89.599124 261.328146 
L 89.599124 258.18266 
L 91.896513 258.18266 
L 91.896513 256.609917 
L 93.922955 256.609917 
L 93.922955 256.085669 
L 95.735668 256.085669 
L 95.735668 253.46443 
L 98.872486 253.46443 
L 98.872486 252.940182 
L 102.711641 252.940182 
L 102.711641 251.891687 
L 103.822018 251.891687 
L 103.822018 248.221953 
L 104.865056 248.221953 
L 104.865056 246.124962 
L 105.848459 246.124962 
L 105.848459 245.600714 
L 107.661173 245.600714 
L 107.661173 244.552219 
L 108.500601 244.552219 
L 108.500601 244.027971 
L 109.300972 244.027971 
L 109.300972 243.503724 
L 110.065758 243.503724 
L 110.065758 242.455228 
L 112.175115 242.455228 
L 112.175115 241.93098 
L 114.053874 241.93098 
L 114.053874 241.406733 
L 114.637146 241.406733 
L 114.637146 240.358237 
L 115.747522 240.358237 
L 115.747522 239.309742 
L 118.245359 239.309742 
L 118.245359 237.736999 
L 120.830944 237.736999 
L 120.830944 236.688503 
L 121.991263 236.688503 
L 121.991263 235.11576 
L 123.425832 235.11576 
L 123.425832 234.591512 
L 123.766534 234.591512 
L 123.766534 234.067265 
L 124.100619 234.067265 
L 124.100619 233.543017 
L 124.428341 233.543017 
L 124.428341 225.679301 
L 125.065631 225.679301 
L 125.065631 223.58231 
L 125.979378 223.58231 
L 125.979378 219.912576 
L 127.126794 219.912576 
L 127.126794 217.291338 
L 128.202449 217.291338 
L 128.202449 216.76709 
L 128.716065 216.76709 
L 128.716065 216.242842 
L 129.699468 216.242842 
L 129.699468 215.194347 
L 130.629687 215.194347 
L 130.629687 214.670099 
L 130.854591 214.670099 
L 130.854591 213.621604 
L 131.295765 213.621604 
L 131.295765 213.097356 
L 131.937015 213.097356 
L 131.937015 212.573108 
L 132.145561 212.573108 
L 132.145561 211.524613 
L 133.15198 211.524613 
L 133.15198 210.476117 
L 134.286778 210.476117 
L 134.286778 205.23364 
L 134.648999 205.23364 
L 134.648999 204.709392 
L 135.859892 204.709392 
L 135.859892 202.612401 
L 136.026124 202.612401 
L 136.026124 202.088154 
L 136.190765 202.088154 
L 136.190765 201.563906 
L 136.515394 201.563906 
L 136.515394 197.894172 
L 136.675441 197.894172 
L 136.675441 197.369924 
L 136.834012 197.369924 
L 136.834012 193.70019 
L 137.146836 193.70019 
L 137.146836 192.127447 
L 137.454074 192.127447 
L 137.454074 191.603199 
L 137.755922 191.603199 
L 137.755922 191.078952 
L 137.904883 191.078952 
L 137.904883 190.030456 
L 138.19899 190.030456 
L 138.19899 186.360722 
L 138.34418 186.360722 
L 138.34418 185.836474 
L 138.912987 185.836474 
L 138.912987 182.16674 
L 139.052299 182.16674 
L 139.052299 181.118245 
L 139.190491 181.118245 
L 139.190491 179.021254 
L 139.46359 179.021254 
L 139.46359 176.924263 
L 141.016963 176.924263 
L 141.016963 175.875768 
L 141.262751 175.875768 
L 141.262751 172.730281 
L 141.979724 172.730281 
L 141.979724 172.206034 
L 142.441628 172.206034 
L 142.441628 171.157538 
L 142.891454 171.157538 
L 142.891454 170.633291 
L 143.329818 170.633291 
L 143.437686 166.963557 
L 144.071065 166.963557 
L 144.174398 165.390813 
L 144.277114 165.390813 
L 144.37922 162.769575 
L 144.581633 162.769575 
L 144.581633 160.672584 
L 144.979451 160.672584 
L 145.077485 159.099841 
L 146.120523 159.099841 
L 146.212283 157.00285 
L 146.66388 157.00285 
L 146.752794 151.236125 
L 147.276841 151.236125 
L 147.276841 150.711877 
L 147.448035 150.711877 
L 147.448035 150.18763 
L 147.868713 150.18763 
L 147.951628 144.945152 
L 148.034145 144.945152 
L 148.034145 143.372409 
L 148.198003 143.372409 
L 148.198003 142.323914 
L 148.360314 142.323914 
L 148.360314 141.275418 
L 148.838258 141.275418 
L 148.91664 140.226923 
L 149.072341 140.226923 
L 149.072341 139.178427 
L 149.226646 139.178427 
L 149.226646 138.129932 
L 149.379579 138.129932 
L 149.379579 137.081437 
L 149.904387 137.081437 
L 149.904387 132.363207 
L 150.485197 132.363207 
L 150.485197 126.596482 
L 150.838492 126.596482 
L 150.838492 124.499491 
L 151.184678 124.499491 
L 151.184678 123.975244 
L 151.524035 123.975244 
L 151.524035 121.354005 
L 151.724483 121.354005 
L 151.790783 118.732766 
L 151.856829 118.732766 
L 151.856829 115.58728 
L 152.183306 115.58728 
L 152.247865 113.490289 
L 152.312182 113.490289 
L 152.37626 111.917546 
L 152.503704 111.917546 
L 152.503704 109.820555 
L 152.693117 109.820555 
L 152.693117 105.626573 
L 152.942468 105.626573 
L 152.942468 105.102326 
L 153.430582 105.102326 
L 153.490634 103.005335 
L 153.669542 103.005335 
L 153.669542 101.956839 
L 154.079899 101.956839 
L 154.137731 99.335601 
L 154.593515 99.335601 
L 154.593515 98.287105 
L 154.872368 98.287105 
L 154.982656 94.617371 
L 155.037536 94.617371 
L 155.037536 91.996133 
L 155.255322 91.996133 
L 155.309341 87.802151 
L 155.416872 87.802151 
L 155.416872 86.753656 
L 155.629938 86.753656 
L 155.629938 85.70516 
L 155.840397 85.70516 
L 155.840397 83.608169 
L 155.99657 83.608169 
L 156.048314 78.88994 
L 156.151337 78.88994 
L 156.151337 77.841444 
L 156.904956 77.841444 
L 156.904956 73.647463 
L 157.532411 73.647463 
L 157.532411 71.026224 
L 157.674016 71.026224 
L 157.767776 67.880738 
L 157.814465 67.880738 
L 157.907464 59.492774 
L 157.999964 59.492774 
L 157.999964 58.968526 
L 158.137787 58.968526 
L 158.137787 57.920031 
L 158.274515 57.920031 
L 158.319851 56.871536 
L 158.722584 56.871536 
L 158.722584 54.774545 
L 158.942317 54.774545 
L 158.942317 53.726049 
L 159.458502 53.726049 
L 159.543047 49.532068 
L 159.835725 49.532068 
L 159.918441 41.144104 
L 160.082689 41.144104 
L 160.082689 39.047113 
L 160.204854 39.047113 
L 160.285818 37.998618 
L 160.56623 37.998618 
L 160.56623 36.950122 
L 160.920171 36.950122 
L 160.959052 35.901627 
L 161.266977 35.901627 
L 161.266977 34.328884 
L 161.494358 34.328884 
L 161.494358 33.280388 
L 161.976942 33.280388 
L 161.976942 31.183397 
L 162.122747 31.183397 
L 162.231295 27.513663 
L 333.429677 27.513663 
L 333.429677 27.513663 
" style="fill:none;stroke:#00bfbf;stroke-linecap:square;stroke-width:1.5;"/>
   </g>
   <g id="line2d_25">
    <defs>
     <path d="M -6 0 
L 6 0 
M 0 6 
L 0 -6 
" id="mbb85bd66fb" style="stroke:#00bfbf;stroke-width:1.5;"/>
    </defs>
    <g>
     <use style="fill-opacity:0;stroke:#00bfbf;stroke-width:1.5;" x="130.854591" xlink:href="#mbb85bd66fb" y="214.670099"/>
     <use style="fill-opacity:0;stroke:#00bfbf;stroke-width:1.5;" x="159.543047" xlink:href="#mbb85bd66fb" y="49.532068"/>
     <use style="fill-opacity:0;stroke:#00bfbf;stroke-width:1.5;" x="162.231295" xlink:href="#mbb85bd66fb" y="27.513663"/>
     <use style="fill-opacity:0;stroke:#00bfbf;stroke-width:1.5;" x="162.231295" xlink:href="#mbb85bd66fb" y="27.513663"/>
     <use style="fill-opacity:0;stroke:#00bfbf;stroke-width:1.5;" x="333.429677" xlink:href="#mbb85bd66fb" y="27.513663"/>
    </g>
   </g>
   <g id="line2d_26">
    <path style="fill:none;stroke:#00bfbf;stroke-linecap:square;stroke-width:1.5;"/>
    <g/>
   </g>
   <g id="line2d_27">
    <defs>
     <path d="M 0 1.5 
C 0.397805 1.5 0.77937 1.341951 1.06066 1.06066 
C 1.341951 0.77937 1.5 0.397805 1.5 0 
C 1.5 -0.397805 1.341951 -0.77937 1.06066 -1.06066 
C 0.77937 -1.341951 0.397805 -1.5 0 -1.5 
C -0.397805 -1.5 -0.77937 -1.341951 -1.06066 -1.06066 
C -1.341951 -0.77937 -1.5 -0.397805 -1.5 0 
C -1.5 0.397805 -1.341951 0.77937 -1.06066 1.06066 
C -0.77937 1.341951 -0.397805 1.5 0 1.5 
z
" id="maccf38f856" style="stroke:#008000;"/>
    </defs>
    <g>
     <use style="fill:#008000;stroke:#008000;" x="215.880206" xlink:href="#maccf38f856" y="27.513663"/>
     <use style="fill:#008000;stroke:#008000;" x="215.880206" xlink:href="#maccf38f856" y="27.513663"/>
    </g>
   </g>
   <g id="line2d_28">
    <path d="M 49.144027 294.88 
L 49.144027 280.201064 
L 61.069532 280.201064 
L 61.069532 276.007082 
L 68.045504 276.007082 
L 68.045504 272.861596 
L 72.995036 272.861596 
L 72.995036 267.619119 
L 76.834191 267.619119 
L 76.834191 266.046375 
L 79.971009 266.046375 
L 79.971009 262.900889 
L 84.92054 262.900889 
L 84.92054 261.852394 
L 88.759695 261.852394 
L 88.759695 259.755403 
L 91.896513 259.755403 
L 91.896513 259.231155 
L 94.548655 259.231155 
L 94.548655 255.561421 
L 95.735668 255.561421 
L 95.735668 253.988678 
L 97.889083 253.988678 
L 97.889083 253.46443 
L 107.077901 253.46443 
L 107.077901 252.940182 
L 107.661173 252.940182 
L 107.661173 249.794696 
L 109.814588 249.794696 
L 109.814588 248.746201 
L 112.610704 248.746201 
L 112.610704 247.173458 
L 116.790561 247.173458 
L 116.790561 244.552219 
L 117.773963 244.552219 
L 117.773963 241.406733 
L 118.089658 241.406733 
L 118.089658 238.261246 
L 119.297513 238.261246 
L 119.297513 237.736999 
L 120.150822 237.736999 
L 120.150822 236.688503 
L 120.426105 236.688503 
L 120.426105 236.164255 
L 120.963801 236.164255 
L 120.963801 235.640008 
L 121.226476 235.640008 
L 121.226476 233.543017 
L 123.194891 233.543017 
L 123.194891 233.018769 
L 125.375637 233.018769 
L 125.375637 231.970274 
L 125.579247 231.970274 
L 125.579247 229.349035 
L 126.370415 229.349035 
L 126.370415 228.824787 
L 129.050151 228.824787 
L 129.050151 225.155053 
L 129.214792 225.155053 
L 129.214792 223.58231 
L 129.377872 223.58231 
L 129.377872 222.533815 
L 129.699468 222.533815 
L 129.699468 221.485319 
L 129.858039 221.485319 
L 129.858039 219.912576 
L 130.015162 219.912576 
L 130.015162 218.339833 
L 130.325168 218.339833 
L 130.325168 217.291338 
L 131.076592 217.291338 
L 131.076592 215.194347 
L 131.368207 215.194347 
L 131.368207 214.670099 
L 131.654961 214.670099 
L 131.654961 214.145851 
L 132.622558 214.145851 
L 132.622558 209.427622 
L 132.756449 209.427622 
L 132.756449 207.854879 
L 134.286778 207.854879 
L 134.286778 207.330631 
L 136.136059 207.330631 
L 136.136059 206.282136 
L 136.461713 206.282136 
L 136.461713 205.23364 
L 136.781317 205.23364 
L 136.781317 203.136649 
L 137.095092 203.136649 
L 137.095092 200.515411 
L 137.60566 200.515411 
L 137.70598 198.942667 
L 138.003478 198.942667 
L 138.003478 197.894172 
L 138.488154 197.894172 
L 138.488154 197.369924 
L 139.418374 197.369924 
L 139.418374 196.845677 
L 139.598531 196.845677 
L 139.598531 195.272933 
L 139.776821 195.272933 
L 139.776821 194.748686 
L 140.127953 194.748686 
L 140.127953 193.70019 
L 140.386678 193.70019 
L 140.386678 193.175943 
L 140.89274 193.175943 
L 140.975655 192.127447 
L 141.22203 192.127447 
L 141.303377 187.933465 
L 141.464926 187.933465 
L 141.464926 187.409218 
L 141.624972 187.409218 
L 141.624972 185.312227 
L 141.783544 185.312227 
L 141.862285 183.215236 
L 141.940667 183.215236 
L 141.940667 182.690988 
L 142.780095 182.690988 
L 142.780095 181.642493 
L 143.075465 181.642493 
L 143.075465 181.118245 
L 143.293711 181.118245 
L 143.365849 177.972759 
L 143.509224 177.972759 
L 143.509224 177.448511 
L 143.792438 177.448511 
L 143.792438 175.875768 
L 144.00183 175.875768 
L 144.00183 175.35152 
L 144.140023 175.35152 
L 144.208705 174.303025 
L 144.74851 174.303025 
L 144.81481 172.730281 
L 144.946649 172.730281 
L 145.012191 168.5363 
L 145.077485 168.5363 
L 145.077485 167.487804 
L 145.271892 167.487804 
L 145.336209 165.390813 
L 145.591101 165.390813 
L 145.654238 164.342318 
L 145.842271 164.342318 
L 145.842271 163.293823 
L 146.028272 163.293823 
L 146.028272 162.245327 
L 146.212283 162.245327 
L 146.212283 161.721079 
L 147.103926 161.721079 
L 147.103926 161.196832 
L 147.561225 161.196832 
L 147.617542 159.624089 
L 147.896396 159.624089 
L 148.006684 153.857364 
L 148.061564 153.857364 
L 148.170801 150.18763 
L 148.333368 150.18763 
L 148.440899 145.993648 
L 148.494413 145.993648 
L 148.547762 144.945152 
L 148.759517 144.945152 
L 148.759517 142.848162 
L 149.175364 142.848162 
L 149.175364 142.323914 
L 149.681426 142.323914 
L 149.681426 141.799666 
L 149.928983 141.799666 
L 149.928983 141.275418 
L 150.31781 141.275418 
L 150.31781 140.226923 
L 150.556439 140.226923 
L 150.650971 132.363207 
L 151.070055 132.363207 
L 151.070055 131.838959 
L 151.253087 131.838959 
L 151.343878 129.217721 
L 151.389095 129.217721 
L 151.389095 128.693473 
L 151.568782 128.693473 
L 151.613412 127.12073 
L 151.702326 127.12073 
L 151.702326 126.596482 
L 151.878787 126.596482 
L 151.922622 125.023739 
L 152.09685 125.023739 
L 152.09685 123.975244 
L 152.859752 123.975244 
L 152.859752 122.4025 
L 153.024788 122.4025 
L 153.106716 117.160023 
L 153.147534 117.160023 
L 153.188256 113.490289 
L 153.269411 113.490289 
L 153.269411 112.966042 
L 153.39043 112.966042 
L 153.430582 111.393298 
L 153.550477 111.393298 
L 153.629945 108.77206 
L 153.944198 108.77206 
L 153.944198 107.199317 
L 154.32911 107.199317 
L 154.367132 104.05383 
L 154.890799 104.05383 
L 154.964324 98.811353 
L 155.037536 98.811353 
L 155.110439 96.714362 
L 155.219216 96.714362 
L 155.327309 92.520381 
L 155.398997 92.520381 
L 155.50597 90.947637 
L 156.134209 90.947637 
L 156.202619 89.899142 
L 156.406229 89.899142 
L 156.439931 87.277903 
L 156.839288 87.277903 
L 156.937696 78.365692 
L 157.002989 78.365692 
L 157.035543 76.268701 
L 157.261714 76.268701 
L 157.325792 73.647463 
L 157.516605 73.647463 
L 157.516605 71.550472 
L 157.674016 71.550472 
L 157.767776 70.501976 
L 157.798916 70.501976 
L 157.891999 68.929233 
L 158.350009 68.929233 
L 158.410165 66.307995 
L 158.470113 66.307995 
L 158.470113 65.259499 
L 158.619074 65.259499 
L 158.648712 64.211004 
L 158.85476 64.211004 
L 158.883996 63.162508 
L 159.1449 63.162508 
L 159.1449 61.589765 
L 159.288155 61.589765 
L 159.288155 61.065517 
L 159.627178 61.065517 
L 159.627178 60.017022 
L 159.904682 60.017022 
L 159.904682 58.444279 
L 160.150665 58.444279 
L 160.258872 55.82304 
L 160.446613 55.82304 
L 160.499878 53.726049 
L 160.711308 53.726049 
L 160.737555 52.153306 
L 161.228787 52.153306 
L 161.279689 49.00782 
L 161.481804 49.00782 
L 161.481804 47.435077 
L 161.731154 47.435077 
L 161.829891 45.862334 
L 162.315251 45.862334 
L 162.339163 44.28959 
L 162.576475 44.28959 
L 162.576475 43.241095 
L 163.0415 43.241095 
L 163.0415 41.668352 
L 163.694216 41.668352 
L 163.738331 39.571361 
L 163.891849 39.571361 
L 163.891849 39.047113 
L 164.805973 39.047113 
L 164.84733 37.998618 
L 169.568153 37.998618 
L 169.568153 37.47437 
L 174.537296 37.47437 
L 174.537296 36.425875 
L 176.205936 36.425875 
L 176.205936 35.901627 
L 177.281591 35.901627 
L 177.281591 35.377379 
L 177.795207 35.377379 
L 177.795207 34.853131 
L 178.284478 34.853131 
L 178.284478 34.328884 
L 178.556608 34.328884 
L 178.556608 33.804636 
L 178.91592 33.804636 
L 178.91592 32.756141 
L 179.708829 32.756141 
L 179.708829 32.231893 
L 179.899323 32.231893 
L 179.899323 31.707645 
L 181.485807 31.707645 
L 181.485807 31.183397 
L 181.827894 31.183397 
L 181.881696 30.134902 
L 182.231122 30.134902 
L 182.261174 28.562159 
L 204.70908 28.562159 
L 204.70908 28.037911 
L 215.880206 28.037911 
L 215.880206 27.513663 
L 333.429677 27.513663 
L 333.429677 27.513663 
" style="fill:none;stroke:#008000;stroke-linecap:square;stroke-width:1.5;"/>
   </g>
   <g id="line2d_29">
    <defs>
     <path d="M -0 6 
L 6 -6 
L -6 -6 
z
" id="md7c7435b6f" style="stroke:#008000;stroke-linejoin:miter;stroke-width:1.5;"/>
    </defs>
    <g>
     <use style="fill-opacity:0;stroke:#008000;stroke-linejoin:miter;stroke-width:1.5;" x="116.790561" xlink:href="#md7c7435b6f" y="244.552219"/>
     <use style="fill-opacity:0;stroke:#008000;stroke-linejoin:miter;stroke-width:1.5;" x="148.170801" xlink:href="#md7c7435b6f" y="150.18763"/>
     <use style="fill-opacity:0;stroke:#008000;stroke-linejoin:miter;stroke-width:1.5;" x="182.261174" xlink:href="#md7c7435b6f" y="29.610654"/>
     <use style="fill-opacity:0;stroke:#008000;stroke-linejoin:miter;stroke-width:1.5;" x="215.880206" xlink:href="#md7c7435b6f" y="27.513663"/>
     <use style="fill-opacity:0;stroke:#008000;stroke-linejoin:miter;stroke-width:1.5;" x="215.880206" xlink:href="#md7c7435b6f" y="27.513663"/>
     <use style="fill-opacity:0;stroke:#008000;stroke-linejoin:miter;stroke-width:1.5;" x="333.429677" xlink:href="#md7c7435b6f" y="27.513663"/>
    </g>
   </g>
   <g id="line2d_30">
    <path style="fill:none;stroke:#008000;stroke-linecap:square;stroke-width:1.5;"/>
    <g/>
   </g>
   <g id="line2d_31">
    <path clip-path="url(#p168c4011e6)" d="M 203.387011 28.562159 
" style="fill:none;stroke:#008000;stroke-linecap:square;stroke-width:1.5;"/>
    <defs>
     <path d="M -12 12 
L 12 -12 
M -12 -12 
L 12 12 
" id="m139f5e823d" style="stroke:#008000;stroke-width:3;"/>
    </defs>
    <g clip-path="url(#p168c4011e6)">
     <use style="fill:#008000;stroke:#008000;stroke-width:3;" x="203.387011" xlink:href="#m139f5e823d" y="28.562159"/>
    </g>
   </g>
   <g id="line2d_32">
    <defs>
     <path d="M 0 1.5 
C 0.397805 1.5 0.77937 1.341951 1.06066 1.06066 
C 1.341951 0.77937 1.5 0.397805 1.5 0 
C 1.5 -0.397805 1.341951 -0.77937 1.06066 -1.06066 
C 0.77937 -1.341951 0.397805 -1.5 0 -1.5 
C -0.397805 -1.5 -0.77937 -1.341951 -1.06066 -1.06066 
C -1.341951 -0.77937 -1.5 -0.397805 -1.5 0 
C -1.5 0.397805 -1.341951 0.77937 -1.06066 1.06066 
C -0.77937 1.341951 -0.397805 1.5 0 1.5 
z
" id="m42154295aa" style="stroke:#0000ff;"/>
    </defs>
    <g>
     <use style="fill:#0000ff;stroke:#0000ff;" x="274.936251" xlink:href="#m42154295aa" y="79.938435"/>
     <use style="fill:#0000ff;stroke:#0000ff;" x="274.936251" xlink:href="#m42154295aa" y="79.938435"/>
    </g>
   </g>
   <g id="line2d_33">
    <path d="M 40.355341 294.88 
L 40.355341 284.919293 
L 52.280845 284.919293 
L 52.280845 281.249559 
L 59.256818 281.249559 
L 59.256818 280.725312 
L 64.20635 280.725312 
L 64.20635 276.007082 
L 68.045504 276.007082 
L 68.045504 274.958587 
L 71.182322 274.958587 
L 71.182322 273.385844 
L 73.834464 273.385844 
L 73.834464 272.861596 
L 83.107827 272.861596 
L 83.107827 272.337348 
L 85.759969 272.337348 
L 85.759969 271.8131 
L 86.946982 271.8131 
L 86.946982 271.288853 
L 93.536312 271.288853 
L 93.536312 270.240357 
L 95.735668 270.240357 
L 95.735668 268.667614 
L 99.982863 268.667614 
L 99.982863 268.143366 
L 102.009304 268.143366 
L 102.009304 267.619119 
L 105.066285 267.619119 
L 105.066285 266.570623 
L 108.001874 266.570623 
L 108.001874 265.522128 
L 108.33596 265.522128 
L 108.33596 264.99788 
L 108.663681 264.99788 
L 108.663681 264.473632 
L 109.300972 264.473632 
L 109.300972 263.949385 
L 109.610977 263.949385 
L 109.610977 262.900889 
L 109.915496 262.900889 
L 109.915496 261.852394 
L 110.214719 261.852394 
L 110.214719 260.279651 
L 110.508826 260.279651 
L 110.508826 259.755403 
L 112.175115 259.755403 
L 112.175115 257.658412 
L 113.202576 257.658412 
L 113.202576 257.134164 
L 114.865028 257.134164 
L 114.865028 256.609917 
L 119.06263 256.609917 
L 119.06263 255.561421 
L 120.095232 255.561421 
L 120.095232 252.940182 
L 120.261464 252.940182 
L 120.261464 252.415935 
L 120.426105 252.415935 
L 120.426105 251.367439 
L 120.750735 251.367439 
L 120.750735 250.843192 
L 121.069353 250.843192 
L 121.069353 248.746201 
L 122.434331 248.746201 
L 122.434331 247.173458 
L 123.28764 247.173458 
L 123.28764 244.552219 
L 123.833872 244.552219 
L 123.833872 244.027971 
L 125.002954 244.027971 
L 125.002954 243.503724 
L 125.740418 243.503724 
L 125.740418 242.979476 
L 126.215065 242.979476 
L 126.215065 241.93098 
L 127.126794 241.93098 
L 127.237437 238.261246 
L 127.347373 238.261246 
L 127.45661 236.164255 
L 127.565159 236.164255 
L 127.565159 234.591512 
L 128.512455 234.591512 
L 128.512455 233.018769 
L 128.816974 233.018769 
L 128.816974 230.921778 
L 130.809845 230.921778 
L 130.809845 229.349035 
L 131.683376 229.349035 
L 131.683376 228.824787 
L 132.269486 228.824787 
L 132.35161 227.776292 
L 132.51469 227.776292 
L 132.51469 227.252044 
L 132.676239 227.252044 
L 132.676239 226.727797 
L 133.073598 226.727797 
L 133.073598 226.203549 
L 133.230007 226.203549 
L 133.230007 224.630806 
L 133.766505 224.630806 
L 133.766505 224.106558 
L 133.991409 224.106558 
L 133.991409 223.58231 
L 134.21341 223.58231 
L 134.21341 223.058063 
L 134.359835 223.058063 
L 134.359835 221.485319 
L 135.959823 221.485319 
L 135.959823 220.961072 
L 136.739045 220.961072 
L 136.739045 220.436824 
L 137.484499 220.436824 
L 137.484499 219.912576 
L 137.665922 219.912576 
L 137.665922 218.339833 
L 137.785817 218.339833 
L 137.785817 217.815585 
L 137.904883 217.815585 
L 137.904883 217.291338 
L 139.107709 217.291338 
L 139.217997 212.04886 
L 139.327583 212.04886 
L 139.327583 211.524613 
L 139.705727 211.524613 
L 139.705727 211.000365 
L 139.97083 211.000365 
L 139.97083 209.95187 
L 140.89274 209.95187 
L 140.89274 208.903374 
L 141.23833 208.903374 
L 141.23833 208.379126 
L 141.862285 208.379126 
L 141.909357 206.806383 
L 142.555192 206.806383 
L 142.555192 206.282136 
L 142.780095 206.282136 
L 142.824725 205.23364 
L 143.133935 205.23364 
L 143.133935 204.709392 
L 144.112473 204.709392 
L 144.112473 204.185145 
L 144.236101 204.185145 
L 144.236101 203.660897 
L 144.358848 203.660897 
L 144.358848 201.563906 
L 146.102113 201.563906 
L 146.212283 200.515411 
L 146.394347 200.515411 
L 146.394347 199.466915 
L 146.858888 199.466915 
L 146.858888 198.41842 
L 148.214303 198.41842 
L 148.311781 196.321429 
L 148.344151 196.321429 
L 148.344151 195.797181 
L 148.664549 195.797181 
L 148.664549 194.224438 
L 148.853963 194.224438 
L 148.853963 193.70019 
L 149.591427 193.70019 
L 149.591427 192.651695 
L 149.711322 192.651695 
L 149.711322 191.603199 
L 150.240744 191.603199 
L 150.240744 188.981961 
L 150.556439 188.981961 
L 150.556439 188.457713 
L 151.088446 188.457713 
L 151.088446 187.933465 
L 152.001243 187.933465 
L 152.001243 186.88497 
L 152.4401 186.88497 
L 152.516397 184.263731 
L 152.843161 184.263731 
L 152.942468 183.215236 
L 153.740588 183.215236 
L 153.740588 182.690988 
L 154.068309 182.690988 
L 154.068309 181.642493 
L 154.905529 181.642493 
L 154.905529 180.593997 
L 155.146774 180.593997 
L 155.146774 179.545502 
L 157.061542 179.545502 
L 157.139305 176.924263 
L 158.046028 176.924263 
L 158.046028 176.400016 
L 159.288155 176.400016 
L 159.288155 175.35152 
L 159.877132 175.35152 
L 159.877132 174.827272 
L 160.716561 174.827272 
L 160.716561 174.303025 
L 161.531964 174.303025 
L 161.531964 173.778777 
L 163.110182 173.778777 
L 163.110182 172.730281 
L 164.479923 172.730281 
L 164.479923 172.206034 
L 168.502927 172.206034 
L 168.502927 171.157538 
L 169.09388 171.157538 
L 169.09388 170.633291 
L 169.543018 170.633291 
L 169.543018 170.109043 
L 170.127233 170.109043 
L 170.127233 169.584795 
L 170.461319 169.584795 
L 170.461319 169.060547 
L 171.067527 169.060547 
L 171.067527 168.5363 
L 171.358562 168.5363 
L 171.358562 168.012052 
L 172.22747 168.012052 
L 172.22747 167.487804 
L 174.980763 167.487804 
L 174.980763 166.963557 
L 185.190316 166.963557 
L 185.190316 165.915061 
L 203.589416 165.915061 
L 203.67136 164.866566 
L 203.780014 164.866566 
L 203.867473 161.196832 
L 203.909756 161.196832 
L 203.997832 158.051345 
L 204.109512 158.051345 
L 204.212928 153.333116 
L 204.235546 153.333116 
L 204.304473 150.711877 
L 204.364403 150.711877 
L 204.443986 149.663382 
L 204.504669 149.663382 
L 204.521968 148.614886 
L 204.686668 148.614886 
L 204.756252 146.517896 
L 204.814631 146.517896 
L 204.814631 145.4694 
L 204.938034 145.4694 
L 204.938034 144.945152 
L 205.12984 144.945152 
L 205.161998 143.896657 
L 205.73539 143.896657 
L 205.81462 142.323914 
L 207.73867 142.323914 
L 207.73867 141.799666 
L 208.499136 141.799666 
L 208.499136 141.275418 
L 215.444371 141.275418 
L 215.49992 139.178427 
L 215.565043 139.178427 
L 215.674544 135.508693 
L 215.683584 135.508693 
L 215.738368 131.314712 
L 215.804519 131.314712 
L 215.907414 126.596482 
L 216.050189 126.596482 
L 216.050189 126.072235 
L 216.38871 126.072235 
L 216.38871 125.547987 
L 217.1196 125.547987 
L 217.1196 125.023739 
L 217.615951 125.023739 
L 217.615951 124.499491 
L 222.47263 124.499491 
L 222.568078 120.30551 
L 222.6087 120.30551 
L 222.610858 118.732766 
L 222.742416 118.732766 
L 222.76339 117.684271 
L 223.122367 117.684271 
L 223.122367 117.160023 
L 227.413676 117.160023 
L 227.522044 113.490289 
L 227.574194 113.490289 
L 227.574194 112.966042 
L 231.170498 112.966042 
L 231.27332 110.869051 
L 231.289225 110.869051 
L 231.318649 109.296308 
L 234.342575 109.296308 
L 234.431819 107.723564 
L 236.973286 107.723564 
L 237.022659 106.150821 
L 237.541224 106.150821 
L 237.541224 105.626573 
L 239.270652 105.626573 
L 239.321706 102.481087 
L 241.24733 102.481087 
L 241.339704 98.287105 
L 241.712568 98.287105 
L 241.712568 97.762858 
L 243.092722 97.762858 
L 243.13532 96.190115 
L 244.701462 96.190115 
L 244.761118 94.093124 
L 246.189774 94.093124 
L 246.237718 91.471885 
L 247.55487 91.471885 
L 247.561349 90.42339 
L 247.873482 90.42339 
L 247.873482 89.899142 
L 248.872737 89.899142 
L 248.872737 89.374894 
L 250.0599 89.374894 
L 250.0599 88.850646 
L 251.144046 88.850646 
L 251.163842 87.802151 
L 252.152129 87.802151 
L 252.152129 87.277903 
L 253.151345 87.277903 
L 253.154343 86.229408 
L 254.283809 86.229408 
L 254.283809 85.70516 
L 254.964402 85.70516 
L 254.974733 84.132417 
L 256.616446 84.132417 
L 256.616446 83.608169 
L 257.378175 83.608169 
L 257.378175 83.083922 
L 258.100145 83.083922 
L 258.100145 82.559674 
L 260.126879 82.559674 
L 260.126879 82.035426 
L 261.339465 82.035426 
L 261.339465 81.511178 
L 264.078098 81.511178 
L 264.078098 80.986931 
L 267.294366 80.986931 
L 267.294366 80.462683 
L 274.936251 80.462683 
L 274.936251 79.938435 
L 333.429677 79.938435 
L 333.429677 79.938435 
" style="fill:none;stroke:#0000ff;stroke-linecap:square;stroke-width:1.5;"/>
   </g>
   <g id="line2d_34">
    <defs>
     <path d="M 0 -6 
L -1.347084 -1.854102 
L -5.706339 -1.854102 
L -2.179628 0.708204 
L -3.526712 4.854102 
L -0 2.291796 
L 3.526712 4.854102 
L 2.179628 0.708204 
L 5.706339 -1.854102 
L 1.347084 -1.854102 
z
" id="mdbb77bdf71" style="stroke:#0000ff;stroke-linejoin:bevel;stroke-width:1.5;"/>
    </defs>
    <g>
     <use style="fill-opacity:0;stroke:#0000ff;stroke-linejoin:bevel;stroke-width:1.5;" x="123.28764" xlink:href="#mdbb77bdf71" y="244.552219"/>
     <use style="fill-opacity:0;stroke:#0000ff;stroke-linejoin:bevel;stroke-width:1.5;" x="185.190316" xlink:href="#mdbb77bdf71" y="166.963557"/>
     <use style="fill-opacity:0;stroke:#0000ff;stroke-linejoin:bevel;stroke-width:1.5;" x="237.541224" xlink:href="#mdbb77bdf71" y="105.626573"/>
     <use style="fill-opacity:0;stroke:#0000ff;stroke-linejoin:bevel;stroke-width:1.5;" x="274.936251" xlink:href="#mdbb77bdf71" y="79.938435"/>
     <use style="fill-opacity:0;stroke:#0000ff;stroke-linejoin:bevel;stroke-width:1.5;" x="274.936251" xlink:href="#mdbb77bdf71" y="79.938435"/>
     <use style="fill-opacity:0;stroke:#0000ff;stroke-linejoin:bevel;stroke-width:1.5;" x="333.429677" xlink:href="#mdbb77bdf71" y="79.938435"/>
    </g>
   </g>
   <g id="line2d_35">
    <path style="fill:none;stroke:#0000ff;stroke-linecap:square;stroke-width:1.5;"/>
    <g/>
   </g>
   <g id="line2d_36">
    <path clip-path="url(#p168c4011e6)" d="M 203.36501 165.915061 
" style="fill:none;stroke:#0000ff;stroke-linecap:square;stroke-width:1.5;"/>
    <defs>
     <path d="M -12 12 
L 12 -12 
M -12 -12 
L 12 12 
" id="m178b726313" style="stroke:#0000ff;stroke-width:3;"/>
    </defs>
    <g clip-path="url(#p168c4011e6)">
     <use style="fill:#0000ff;stroke:#0000ff;stroke-width:3;" x="203.36501" xlink:href="#m178b726313" y="165.915061"/>
    </g>
   </g>
   <g id="line2d_37">
    <defs>
     <path d="M 0 1.5 
C 0.397805 1.5 0.77937 1.341951 1.06066 1.06066 
C 1.341951 0.77937 1.5 0.397805 1.5 0 
C 1.5 -0.397805 1.341951 -0.77937 1.06066 -1.06066 
C 0.77937 -1.341951 0.397805 -1.5 0 -1.5 
C -0.397805 -1.5 -0.77937 -1.341951 -1.06066 -1.06066 
C -1.341951 -0.77937 -1.5 -0.397805 -1.5 0 
C -1.5 0.397805 -1.341951 0.77937 -1.06066 1.06066 
C -0.77937 1.341951 -0.397805 1.5 0 1.5 
z
" id="m833fbc7ce3" style="stroke:#000000;"/>
    </defs>
    <g>
     <use style="stroke:#000000;" x="281.36526" xlink:href="#m833fbc7ce3" y="237.212751"/>
     <use style="stroke:#000000;" x="281.36526" xlink:href="#m833fbc7ce3" y="237.212751"/>
    </g>
   </g>
   <g id="line2d_38">
    <path d="M 28.429836 294.88 
L 28.429836 291.734514 
L 61.90896 291.734514 
L 61.90896 291.210266 
L 64.20635 291.210266 
L 64.20635 289.637523 
L 66.232791 289.637523 
L 66.232791 289.113275 
L 72.559446 289.113275 
L 72.559446 288.06478 
L 73.834464 288.06478 
L 73.834464 287.540532 
L 77.174892 287.540532 
L 77.174892 286.492036 
L 83.810164 286.492036 
L 83.810164 284.919293 
L 92.735942 284.919293 
L 92.735942 283.870798 
L 95.388083 283.870798 
L 95.388083 282.822302 
L 96.07637 282.822302 
L 96.07637 282.298055 
L 96.410455 282.298055 
L 96.410455 281.773807 
L 96.738177 281.773807 
L 96.738177 281.249559 
L 97.375467 281.249559 
L 97.375467 279.676816 
L 101.768673 279.676816 
L 101.768673 279.152568 
L 102.711641 279.152568 
L 102.711641 278.104073 
L 103.386428 278.104073 
L 103.386428 277.579825 
L 103.822018 277.579825 
L 103.822018 277.055578 
L 105.656224 277.055578 
L 105.656224 276.53133 
L 106.226603 276.53133 
L 106.226603 275.482834 
L 108.169728 275.482834 
L 108.169728 274.958587 
L 108.33596 274.958587 
L 108.33596 274.434339 
L 109.300972 274.434339 
L 109.300972 273.910091 
L 109.763911 273.910091 
L 109.763911 273.385844 
L 110.214719 273.385844 
L 110.214719 272.861596 
L 111.222824 272.861596 
L 111.222824 271.8131 
L 111.908367 271.8131 
L 111.908367 271.288853 
L 112.951406 271.288853 
L 112.951406 270.764605 
L 113.572587 270.764605 
L 113.572587 269.716109 
L 115.854718 269.716109 
L 115.854718 268.667614 
L 116.484234 268.667614 
L 116.484234 268.143366 
L 118.704183 268.143366 
L 118.704183 267.619119 
L 120.261464 267.619119 
L 120.343982 264.99788 
L 121.069353 264.99788 
L 121.069353 263.949385 
L 122.866275 263.949385 
L 122.866275 263.425137 
L 124.034319 263.425137 
L 124.034319 262.376641 
L 126.56265 262.376641 
L 126.56265 261.328146 
L 127.619177 261.328146 
L 127.619177 260.803898 
L 128.766593 260.803898 
L 128.766593 260.279651 
L 134.21341 260.279651 
L 134.323346 259.231155 
L 136.059178 259.231155 
L 136.059178 258.706907 
L 136.739045 258.706907 
L 136.739045 258.18266 
L 139.217997 258.18266 
L 139.217997 257.134164 
L 182.168596 257.134164 
L 182.168596 256.609917 
L 203.451313 256.609917 
L 203.558096 255.037173 
L 203.654482 255.037173 
L 203.68822 253.46443 
L 203.822513 253.46443 
L 203.822513 252.940182 
L 203.958956 252.940182 
L 203.958956 252.415935 
L 204.830408 252.415935 
L 204.830408 251.891687 
L 205.05936 251.891687 
L 205.05936 251.367439 
L 210.436702 251.367439 
L 210.436702 249.794696 
L 215.445353 249.794696 
L 215.445353 249.270448 
L 216.788029 249.270448 
L 216.788029 248.746201 
L 222.353447 248.746201 
L 222.409431 247.697705 
L 222.724847 247.697705 
L 222.724847 246.64921 
L 223.27398 246.64921 
L 223.27398 246.124962 
L 231.100817 246.124962 
L 231.100817 245.600714 
L 231.660345 245.600714 
L 231.660345 245.076467 
L 234.414551 245.076467 
L 234.414551 244.552219 
L 234.695096 244.552219 
L 234.695096 244.027971 
L 243.277812 244.027971 
L 243.277812 243.503724 
L 246.220931 243.503724 
L 246.220931 242.455228 
L 251.140552 242.455228 
L 251.140552 241.93098 
L 254.083027 241.93098 
L 254.083027 240.882485 
L 255.879164 240.882485 
L 255.879164 240.358237 
L 256.594995 240.358237 
L 256.594995 239.83399 
L 257.356938 239.83399 
L 257.356938 239.309742 
L 260.7913 239.309742 
L 260.7913 238.785494 
L 265.090155 238.785494 
L 265.090155 238.261246 
L 270.371215 238.261246 
L 270.371215 237.736999 
L 281.36526 237.736999 
L 281.36526 237.212751 
L 333.429677 237.212751 
L 333.429677 237.212751 
" style="fill:none;stroke:#000000;stroke-linecap:square;stroke-width:1.5;"/>
   </g>
   <g id="line2d_39">
    <defs>
     <path d="M 0 6 
C 1.591219 6 3.117479 5.367802 4.242641 4.242641 
C 5.367802 3.117479 6 1.591219 6 0 
C 6 -1.591219 5.367802 -3.117479 4.242641 -4.242641 
C 3.117479 -5.367802 1.591219 -6 0 -6 
C -1.591219 -6 -3.117479 -5.367802 -4.242641 -4.242641 
C -5.367802 -3.117479 -6 -1.591219 -6 0 
C -6 1.591219 -5.367802 3.117479 -4.242641 4.242641 
C -3.117479 5.367802 -1.591219 6 0 6 
z
" id="m381ae65314" style="stroke:#000000;stroke-width:1.5;"/>
    </defs>
    <g>
     <use style="fill-opacity:0;stroke:#000000;stroke-width:1.5;" x="103.386428" xlink:href="#m381ae65314" y="278.104073"/>
     <use style="fill-opacity:0;stroke:#000000;stroke-width:1.5;" x="139.217997" xlink:href="#m381ae65314" y="257.134164"/>
     <use style="fill-opacity:0;stroke:#000000;stroke-width:1.5;" x="234.695096" xlink:href="#m381ae65314" y="244.027971"/>
     <use style="fill-opacity:0;stroke:#000000;stroke-width:1.5;" x="281.36526" xlink:href="#m381ae65314" y="237.736999"/>
     <use style="fill-opacity:0;stroke:#000000;stroke-width:1.5;" x="281.36526" xlink:href="#m381ae65314" y="237.212751"/>
     <use style="fill-opacity:0;stroke:#000000;stroke-width:1.5;" x="333.429677" xlink:href="#m381ae65314" y="237.212751"/>
    </g>
   </g>
   <g id="line2d_40">
    <path style="fill:none;stroke:#000000;stroke-linecap:square;stroke-width:1.5;"/>
    <g/>
   </g>
   <g id="line2d_41">
    <path clip-path="url(#p168c4011e6)" d="M 203.348491 256.609917 
" style="fill:none;stroke:#000000;stroke-linecap:square;stroke-width:1.5;"/>
    <defs>
     <path d="M -12 12 
L 12 -12 
M -12 -12 
L 12 12 
" id="m2cacf1a3ef" style="stroke:#000000;stroke-width:3;"/>
    </defs>
    <g clip-path="url(#p168c4011e6)">
     <use style="stroke:#000000;stroke-width:3;" x="203.348491" xlink:href="#m2cacf1a3ef" y="256.609917"/>
    </g>
   </g>
   <g id="line2d_42">
    <defs>
     <path d="M 0 1.5 
C 0.397805 1.5 0.77937 1.341951 1.06066 1.06066 
C 1.341951 0.77937 1.5 0.397805 1.5 0 
C 1.5 -0.397805 1.341951 -0.77937 1.06066 -1.06066 
C 0.77937 -1.341951 0.397805 -1.5 0 -1.5 
C -0.397805 -1.5 -0.77937 -1.341951 -1.06066 -1.06066 
C -1.341951 -0.77937 -1.5 -0.397805 -1.5 0 
C -1.5 0.397805 -1.341951 0.77937 -1.06066 1.06066 
C -0.77937 1.341951 -0.397805 1.5 0 1.5 
z
" id="me9786f2cf7" style="stroke:#ff0000;"/>
    </defs>
    <g>
     <use style="fill:#ff0000;stroke:#ff0000;" x="246.099903" xlink:href="#me9786f2cf7" y="279.152568"/>
     <use style="fill:#ff0000;stroke:#ff0000;" x="246.099903" xlink:href="#me9786f2cf7" y="279.152568"/>
    </g>
   </g>
   <g id="line2d_43">
    <path d="M 35.405809 294.88 
L 35.405809 294.355752 
L 82.745606 294.355752 
L 82.745606 293.307257 
L 87.511126 293.307257 
L 87.511126 291.734514 
L 90.555195 291.734514 
L 90.555195 291.210266 
L 91.896513 291.210266 
L 91.896513 290.686018 
L 94.301099 290.686018 
L 94.301099 290.161771 
L 96.410455 290.161771 
L 96.410455 289.637523 
L 101.524628 289.637523 
L 101.524628 289.113275 
L 102.82596 289.113275 
L 102.82596 288.589027 
L 106.687887 288.589027 
L 106.687887 288.06478 
L 106.868993 288.06478 
L 106.868993 287.540532 
L 109.064745 287.540532 
L 109.064745 287.016284 
L 111.56901 287.016284 
L 111.56901 286.492036 
L 112.24116 286.492036 
L 112.24116 285.443541 
L 113.014543 285.443541 
L 113.014543 284.919293 
L 118.105292 284.919293 
L 118.105292 284.395046 
L 122.397841 284.395046 
L 122.397841 283.870798 
L 123.043099 283.870798 
L 123.043099 283.34655 
L 123.900947 283.34655 
L 123.900947 282.822302 
L 135.265096 282.822302 
L 135.265096 281.773807 
L 203.509373 281.773807 
L 203.509373 281.249559 
L 203.608636 281.249559 
L 203.608636 280.725312 
L 227.2733 280.725312 
L 227.2733 280.201064 
L 234.212234 280.201064 
L 234.212234 279.676816 
L 246.099903 279.676816 
L 246.099903 279.152568 
L 333.429677 279.152568 
" style="fill:none;stroke:#ff0000;stroke-linecap:square;stroke-width:1.5;"/>
   </g>
   <g id="line2d_44">
    <defs>
     <path d="M -6 6 
L 6 6 
L 6 -6 
L -6 -6 
z
" id="m7eef1c5798" style="stroke:#ff0000;stroke-linejoin:miter;stroke-width:1.5;"/>
    </defs>
    <g>
     <use style="fill-opacity:0;stroke:#ff0000;stroke-linejoin:miter;stroke-width:1.5;" x="94.301099" xlink:href="#m7eef1c5798" y="290.161771"/>
     <use style="fill-opacity:0;stroke:#ff0000;stroke-linejoin:miter;stroke-width:1.5;" x="135.265096" xlink:href="#m7eef1c5798" y="282.822302"/>
     <use style="fill-opacity:0;stroke:#ff0000;stroke-linejoin:miter;stroke-width:1.5;" x="203.608636" xlink:href="#m7eef1c5798" y="281.249559"/>
     <use style="fill-opacity:0;stroke:#ff0000;stroke-linejoin:miter;stroke-width:1.5;" x="246.099903" xlink:href="#m7eef1c5798" y="279.676816"/>
     <use style="fill-opacity:0;stroke:#ff0000;stroke-linejoin:miter;stroke-width:1.5;" x="246.099903" xlink:href="#m7eef1c5798" y="279.152568"/>
     <use style="fill-opacity:0;stroke:#ff0000;stroke-linejoin:miter;stroke-width:1.5;" x="333.429677" xlink:href="#m7eef1c5798" y="279.152568"/>
    </g>
   </g>
   <g id="line2d_45">
    <path style="fill:none;stroke:#ff0000;stroke-linecap:square;stroke-width:1.5;"/>
    <g/>
   </g>
   <g id="line2d_46">
    <path clip-path="url(#p168c4011e6)" d="M 203.340225 281.773807 
" style="fill:none;stroke:#ff0000;stroke-linecap:square;stroke-width:1.5;"/>
    <defs>
     <path d="M -12 12 
L 12 -12 
M -12 -12 
L 12 12 
" id="m30868dcd31" style="stroke:#ff0000;stroke-width:3;"/>
    </defs>
    <g clip-path="url(#p168c4011e6)">
     <use style="fill:#ff0000;stroke:#ff0000;stroke-width:3;" x="203.340225" xlink:href="#m30868dcd31" y="281.773807"/>
    </g>
   </g>
   <g id="line2d_47">
    <path clip-path="url(#p168c4011e6)" d="M 56.12 294.88 
L 56.12 294.88 
L 56.12 294.88 
L 56.12 294.88 
L 399.984 294.88 
" style="fill:none;stroke:#bf00bf;stroke-linecap:square;stroke-width:1.5;"/>
   </g>
   <g id="line2d_48">
    <defs>
     <path d="M -0 8.485281 
L 8.485281 0 
L 0 -8.485281 
L -8.485281 -0 
z
" id="m07da4f0d1f" style="stroke:#bf00bf;stroke-linejoin:miter;stroke-width:1.5;"/>
    </defs>
    <g clip-path="url(#p168c4011e6)">
     <use style="fill-opacity:0;stroke:#bf00bf;stroke-linejoin:miter;stroke-width:1.5;" x="56.12" xlink:href="#m07da4f0d1f" y="294.88"/>
    </g>
   </g>
   <g id="line2d_49">
    <path clip-path="url(#p168c4011e6)" style="fill:none;stroke:#bf00bf;stroke-linecap:square;stroke-width:1.5;"/>
    <g clip-path="url(#p168c4011e6)">
     <use style="fill-opacity:0;stroke:#bf00bf;stroke-linejoin:miter;stroke-width:1.5;" x="-1" xlink:href="#m07da4f0d1f" y="562.246337"/>
     <use style="fill-opacity:0;stroke:#bf00bf;stroke-linejoin:miter;stroke-width:1.5;" x="399.984" xlink:href="#m07da4f0d1f" y="562.246337"/>
    </g>
   </g>
   <g id="line2d_50">
    <path d="M 333.429677 294.88 
L 363.933742 289.532673 
" style="fill:none;stroke:#bf00bf;stroke-linecap:square;stroke-width:1.5;"/>
    <g>
     <use style="fill-opacity:0;stroke:#bf00bf;stroke-linejoin:miter;stroke-width:1.5;" x="333.429677" xlink:href="#m07da4f0d1f" y="294.88"/>
     <use style="fill-opacity:0;stroke:#bf00bf;stroke-linejoin:miter;stroke-width:1.5;" x="363.933742" xlink:href="#m07da4f0d1f" y="289.532673"/>
    </g>
   </g>
   <g id="line2d_51">
    <path d="M 333.429677 279.152568 
L 363.933742 238.198337 
" style="fill:none;stroke:#ff0000;stroke-linecap:square;stroke-width:1.5;"/>
    <g>
     <use style="fill-opacity:0;stroke:#ff0000;stroke-linejoin:miter;stroke-width:1.5;" x="333.429677" xlink:href="#m7eef1c5798" y="279.152568"/>
     <use style="fill-opacity:0;stroke:#ff0000;stroke-linejoin:miter;stroke-width:1.5;" x="363.933742" xlink:href="#m7eef1c5798" y="238.198337"/>
    </g>
   </g>
   <g id="line2d_52">
    <path d="M 333.429677 237.212751 
L 363.933742 186.864 
" style="fill:none;stroke:#000000;stroke-linecap:square;stroke-width:1.5;"/>
    <g>
     <use style="fill-opacity:0;stroke:#000000;stroke-width:1.5;" x="333.429677" xlink:href="#m381ae65314" y="237.212751"/>
     <use style="fill-opacity:0;stroke:#000000;stroke-width:1.5;" x="363.933742" xlink:href="#m381ae65314" y="186.864"/>
    </g>
   </g>
   <g id="line2d_53">
    <path d="M 333.429677 79.938435 
L 363.933742 135.529663 
" style="fill:none;stroke:#0000ff;stroke-linecap:square;stroke-width:1.5;"/>
    <g>
     <use style="fill-opacity:0;stroke:#0000ff;stroke-linejoin:bevel;stroke-width:1.5;" x="333.429677" xlink:href="#mdbb77bdf71" y="79.938435"/>
     <use style="fill-opacity:0;stroke:#0000ff;stroke-linejoin:bevel;stroke-width:1.5;" x="363.933742" xlink:href="#mdbb77bdf71" y="135.529663"/>
    </g>
   </g>
   <g id="line2d_54">
    <path d="M 333.429677 27.513663 
L 363.933742 84.195327 
" style="fill:none;stroke:#008000;stroke-linecap:square;stroke-width:1.5;"/>
    <g>
     <use style="fill-opacity:0;stroke:#008000;stroke-linejoin:miter;stroke-width:1.5;" x="333.429677" xlink:href="#md7c7435b6f" y="27.513663"/>
     <use style="fill-opacity:0;stroke:#008000;stroke-linejoin:miter;stroke-width:1.5;" x="363.933742" xlink:href="#md7c7435b6f" y="84.195327"/>
    </g>
   </g>
   <g id="line2d_55">
    <path d="M 333.429677 27.513663 
L 363.933742 32.86099 
" style="fill:none;stroke:#00bfbf;stroke-linecap:square;stroke-width:1.5;"/>
    <g>
     <use style="fill-opacity:0;stroke:#00bfbf;stroke-width:1.5;" x="333.429677" xlink:href="#mbb85bd66fb" y="27.513663"/>
     <use style="fill-opacity:0;stroke:#00bfbf;stroke-width:1.5;" x="363.933742" xlink:href="#mbb85bd66fb" y="32.86099"/>
    </g>
   </g>
   <g id="line2d_56">
    <path d="M 333.429677 294.88 
L 333.429677 27.513663 
" style="fill:none;stroke:#000000;stroke-linecap:square;stroke-width:1.5;"/>
   </g>
   <g id="patch_3">
    <path d="M 56.12 294.88 
L 56.12 24.84 
" style="fill:none;stroke:#000000;stroke-linecap:square;stroke-linejoin:miter;stroke-width:0.8;"/>
   </g>
   <g id="patch_4">
    <path d="M 399.984 294.88 
L 399.984 24.84 
" style="fill:none;stroke:#000000;stroke-linecap:square;stroke-linejoin:miter;stroke-width:0.8;"/>
   </g>
   <g id="patch_5">
    <path d="M 56.12 294.88 
L 399.984 294.88 
" style="fill:none;stroke:#000000;stroke-linecap:square;stroke-linejoin:miter;stroke-width:0.8;"/>
   </g>
   <g id="patch_6">
    <path d="M 56.12 24.84 
L 399.984 24.84 
" style="fill:none;stroke:#000000;stroke-linecap:square;stroke-linejoin:miter;stroke-width:0.8;"/>
   </g>
   <g id="text_14">
    <!-- 40-D -->
    <defs>
     <path d="M 19.671875 64.796875 
L 19.671875 8.109375 
L 31.59375 8.109375 
Q 46.6875 8.109375 53.6875 14.9375 
Q 60.6875 21.78125 60.6875 36.53125 
Q 60.6875 51.171875 53.6875 57.984375 
Q 46.6875 64.796875 31.59375 64.796875 
z
M 9.8125 72.90625 
L 30.078125 72.90625 
Q 51.265625 72.90625 61.171875 64.09375 
Q 71.09375 55.28125 71.09375 36.53125 
Q 71.09375 17.671875 61.125 8.828125 
Q 51.171875 0 30.078125 0 
L 9.8125 0 
z
" id="DejaVuSans-44"/>
    </defs>
    <g transform="translate(369.479935 294.223611)scale(0.17 -0.17)">
     <use xlink:href="#DejaVuSans-34"/>
     <use x="63.623047" xlink:href="#DejaVuSans-30"/>
     <use x="127.246094" xlink:href="#DejaVuSans-2d"/>
     <use x="163.330078" xlink:href="#DejaVuSans-44"/>
    </g>
   </g>
   <g id="text_15">
    <!-- 20-D -->
    <g transform="translate(369.479935 242.889274)scale(0.17 -0.17)">
     <use xlink:href="#DejaVuSans-32"/>
     <use x="63.623047" xlink:href="#DejaVuSans-30"/>
     <use x="127.246094" xlink:href="#DejaVuSans-2d"/>
     <use x="163.330078" xlink:href="#DejaVuSans-44"/>
    </g>
   </g>
   <g id="text_16">
    <!-- 10-D -->
    <g transform="translate(369.479935 191.554937)scale(0.17 -0.17)">
     <use xlink:href="#DejaVuSans-31"/>
     <use x="63.623047" xlink:href="#DejaVuSans-30"/>
     <use x="127.246094" xlink:href="#DejaVuSans-2d"/>
     <use x="163.330078" xlink:href="#DejaVuSans-44"/>
    </g>
   </g>
   <g id="text_17">
    <!-- 5-D -->
    <defs>
     <path d="M 10.796875 72.90625 
L 49.515625 72.90625 
L 49.515625 64.59375 
L 19.828125 64.59375 
L 19.828125 46.734375 
Q 21.96875 47.46875 24.109375 47.828125 
Q 26.265625 48.1875 28.421875 48.1875 
Q 40.625 48.1875 47.75 41.5 
Q 54.890625 34.8125 54.890625 23.390625 
Q 54.890625 11.625 47.5625 5.09375 
Q 40.234375 -1.421875 26.90625 -1.421875 
Q 22.3125 -1.421875 17.546875 -0.640625 
Q 12.796875 0.140625 7.71875 1.703125 
L 7.71875 11.625 
Q 12.109375 9.234375 16.796875 8.0625 
Q 21.484375 6.890625 26.703125 6.890625 
Q 35.15625 6.890625 40.078125 11.328125 
Q 45.015625 15.765625 45.015625 23.390625 
Q 45.015625 31 40.078125 35.4375 
Q 35.15625 39.890625 26.703125 39.890625 
Q 22.75 39.890625 18.8125 39.015625 
Q 14.890625 38.140625 10.796875 36.28125 
z
" id="DejaVuSans-35"/>
    </defs>
    <g transform="translate(369.479935 140.220601)scale(0.17 -0.17)">
     <use xlink:href="#DejaVuSans-35"/>
     <use x="63.623047" xlink:href="#DejaVuSans-2d"/>
     <use x="99.707031" xlink:href="#DejaVuSans-44"/>
    </g>
   </g>
   <g id="text_18">
    <!-- 3-D -->
    <defs>
     <path d="M 40.578125 39.3125 
Q 47.65625 37.796875 51.625 33 
Q 55.609375 28.21875 55.609375 21.1875 
Q 55.609375 10.40625 48.1875 4.484375 
Q 40.765625 -1.421875 27.09375 -1.421875 
Q 22.515625 -1.421875 17.65625 -0.515625 
Q 12.796875 0.390625 7.625 2.203125 
L 7.625 11.71875 
Q 11.71875 9.328125 16.59375 8.109375 
Q 21.484375 6.890625 26.8125 6.890625 
Q 36.078125 6.890625 40.9375 10.546875 
Q 45.796875 14.203125 45.796875 21.1875 
Q 45.796875 27.640625 41.28125 31.265625 
Q 36.765625 34.90625 28.71875 34.90625 
L 20.21875 34.90625 
L 20.21875 43.015625 
L 29.109375 43.015625 
Q 36.375 43.015625 40.234375 45.921875 
Q 44.09375 48.828125 44.09375 54.296875 
Q 44.09375 59.90625 40.109375 62.90625 
Q 36.140625 65.921875 28.71875 65.921875 
Q 24.65625 65.921875 20.015625 65.03125 
Q 15.375 64.15625 9.8125 62.3125 
L 9.8125 71.09375 
Q 15.4375 72.65625 20.34375 73.4375 
Q 25.25 74.21875 29.59375 74.21875 
Q 40.828125 74.21875 47.359375 69.109375 
Q 53.90625 64.015625 53.90625 55.328125 
Q 53.90625 49.265625 50.4375 45.09375 
Q 46.96875 40.921875 40.578125 39.3125 
z
" id="DejaVuSans-33"/>
    </defs>
    <g transform="translate(369.479935 88.886264)scale(0.17 -0.17)">
     <use xlink:href="#DejaVuSans-33"/>
     <use x="63.623047" xlink:href="#DejaVuSans-2d"/>
     <use x="99.707031" xlink:href="#DejaVuSans-44"/>
    </g>
   </g>
   <g id="text_19">
    <!-- 2-D -->
    <g transform="translate(369.479935 37.551928)scale(0.17 -0.17)">
     <use xlink:href="#DejaVuSans-32"/>
     <use x="63.623047" xlink:href="#DejaVuSans-2d"/>
     <use x="99.707031" xlink:href="#DejaVuSans-44"/>
    </g>
   </g>
   <g id="text_20">
    <!-- bbob f1 -->
    <defs>
     <path d="M 48.6875 27.296875 
Q 48.6875 37.203125 44.609375 42.84375 
Q 40.53125 48.484375 33.40625 48.484375 
Q 26.265625 48.484375 22.1875 42.84375 
Q 18.109375 37.203125 18.109375 27.296875 
Q 18.109375 17.390625 22.1875 11.75 
Q 26.265625 6.109375 33.40625 6.109375 
Q 40.53125 6.109375 44.609375 11.75 
Q 48.6875 17.390625 48.6875 27.296875 
z
M 18.109375 46.390625 
Q 20.953125 51.265625 25.265625 53.625 
Q 29.59375 56 35.59375 56 
Q 45.5625 56 51.78125 48.09375 
Q 58.015625 40.1875 58.015625 27.296875 
Q 58.015625 14.40625 51.78125 6.484375 
Q 45.5625 -1.421875 35.59375 -1.421875 
Q 29.59375 -1.421875 25.265625 0.953125 
Q 20.953125 3.328125 18.109375 8.203125 
L 18.109375 0 
L 9.078125 0 
L 9.078125 75.984375 
L 18.109375 75.984375 
z
" id="DejaVuSans-62"/>
    </defs>
    <g transform="translate(59.55864 35.290806)scale(0.102 -0.102)">
     <use xlink:href="#DejaVuSans-62"/>
     <use x="63.476562" xlink:href="#DejaVuSans-62"/>
     <use x="126.953125" xlink:href="#DejaVuSans-6f"/>
     <use x="188.134766" xlink:href="#DejaVuSans-62"/>
     <use x="251.611328" xlink:href="#DejaVuSans-20"/>
     <use x="283.398438" xlink:href="#DejaVuSans-66"/>
     <use x="318.603516" xlink:href="#DejaVuSans-31"/>
    </g>
    <!-- 51 targets: 100..1e-08 -->
    <defs>
     <path d="M 11.71875 12.40625 
L 22.015625 12.40625 
L 22.015625 0 
L 11.71875 0 
z
M 11.71875 51.703125 
L 22.015625 51.703125 
L 22.015625 39.3125 
L 11.71875 39.3125 
z
" id="DejaVuSans-3a"/>
    </defs>
    <g transform="translate(59.55864 46.712575)scale(0.102 -0.102)">
     <use xlink:href="#DejaVuSans-35"/>
     <use x="63.623047" xlink:href="#DejaVuSans-31"/>
     <use x="127.246094" xlink:href="#DejaVuSans-20"/>
     <use x="159.033203" xlink:href="#DejaVuSans-74"/>
     <use x="198.242188" xlink:href="#DejaVuSans-61"/>
     <use x="259.521484" xlink:href="#DejaVuSans-72"/>
     <use x="300.619141" xlink:href="#DejaVuSans-67"/>
     <use x="364.095703" xlink:href="#DejaVuSans-65"/>
     <use x="425.619141" xlink:href="#DejaVuSans-74"/>
     <use x="464.828125" xlink:href="#DejaVuSans-73"/>
     <use x="516.927734" xlink:href="#DejaVuSans-3a"/>
     <use x="550.619141" xlink:href="#DejaVuSans-20"/>
     <use x="582.40625" xlink:href="#DejaVuSans-31"/>
     <use x="646.029297" xlink:href="#DejaVuSans-30"/>
     <use x="709.652344" xlink:href="#DejaVuSans-30"/>
     <use x="773.275391" xlink:href="#DejaVuSans-2e"/>
     <use x="805.0625" xlink:href="#DejaVuSans-2e"/>
     <use x="836.849609" xlink:href="#DejaVuSans-31"/>
     <use x="900.472656" xlink:href="#DejaVuSans-65"/>
     <use x="961.996094" xlink:href="#DejaVuSans-2d"/>
     <use x="998.080078" xlink:href="#DejaVuSans-30"/>
     <use x="1061.703125" xlink:href="#DejaVuSans-38"/>
    </g>
    <!-- 15 instances -->
    <g transform="translate(59.55864 58.134344)scale(0.102 -0.102)">
     <use xlink:href="#DejaVuSans-31"/>
     <use x="63.623047" xlink:href="#DejaVuSans-35"/>
     <use x="127.246094" xlink:href="#DejaVuSans-20"/>
     <use x="159.033203" xlink:href="#DejaVuSans-69"/>
     <use x="186.816406" xlink:href="#DejaVuSans-6e"/>
     <use x="250.195312" xlink:href="#DejaVuSans-73"/>
     <use x="302.294922" xlink:href="#DejaVuSans-74"/>
     <use x="341.503906" xlink:href="#DejaVuSans-61"/>
     <use x="402.783203" xlink:href="#DejaVuSans-6e"/>
     <use x="466.162109" xlink:href="#DejaVuSans-63"/>
     <use x="521.142578" xlink:href="#DejaVuSans-65"/>
     <use x="582.666016" xlink:href="#DejaVuSans-73"/>
    </g>
   </g>
   <g id="text_21">
    <!-- v2.2.1.10 -->
    <g style="fill:#808080;" transform="translate(204.419188 290.099912)scale(0.1 -0.1)">
     <use xlink:href="#DejaVuSans-76"/>
     <use x="59.179688" xlink:href="#DejaVuSans-32"/>
     <use x="122.802734" xlink:href="#DejaVuSans-2e"/>
     <use x="154.589844" xlink:href="#DejaVuSans-32"/>
     <use x="218.212891" xlink:href="#DejaVuSans-2e"/>
     <use x="250" xlink:href="#DejaVuSans-31"/>
     <use x="313.623047" xlink:href="#DejaVuSans-2e"/>
     <use x="345.410156" xlink:href="#DejaVuSans-31"/>
     <use x="409.033203" xlink:href="#DejaVuSans-30"/>
    </g>
   </g>
   <g id="text_22">
    <!-- 1 Sphere -->
    <defs>
     <path d="M 53.515625 70.515625 
L 53.515625 60.890625 
Q 47.90625 63.578125 42.921875 64.890625 
Q 37.9375 66.21875 33.296875 66.21875 
Q 25.25 66.21875 20.875 63.09375 
Q 16.5 59.96875 16.5 54.203125 
Q 16.5 49.359375 19.40625 46.890625 
Q 22.3125 44.4375 30.421875 42.921875 
L 36.375 41.703125 
Q 47.40625 39.59375 52.65625 34.296875 
Q 57.90625 29 57.90625 20.125 
Q 57.90625 9.515625 50.796875 4.046875 
Q 43.703125 -1.421875 29.984375 -1.421875 
Q 24.8125 -1.421875 18.96875 -0.25 
Q 13.140625 0.921875 6.890625 3.21875 
L 6.890625 13.375 
Q 12.890625 10.015625 18.65625 8.296875 
Q 24.421875 6.59375 29.984375 6.59375 
Q 38.421875 6.59375 43.015625 9.90625 
Q 47.609375 13.234375 47.609375 19.390625 
Q 47.609375 24.75 44.3125 27.78125 
Q 41.015625 30.8125 33.5 32.328125 
L 27.484375 33.5 
Q 16.453125 35.6875 11.515625 40.375 
Q 6.59375 45.0625 6.59375 53.421875 
Q 6.59375 63.09375 13.40625 68.65625 
Q 20.21875 74.21875 32.171875 74.21875 
Q 37.3125 74.21875 42.625 73.28125 
Q 47.953125 72.359375 53.515625 70.515625 
z
" id="DejaVuSans-53"/>
     <path d="M 54.890625 33.015625 
L 54.890625 0 
L 45.90625 0 
L 45.90625 32.71875 
Q 45.90625 40.484375 42.875 44.328125 
Q 39.84375 48.1875 33.796875 48.1875 
Q 26.515625 48.1875 22.3125 43.546875 
Q 18.109375 38.921875 18.109375 30.90625 
L 18.109375 0 
L 9.078125 0 
L 9.078125 75.984375 
L 18.109375 75.984375 
L 18.109375 46.1875 
Q 21.34375 51.125 25.703125 53.5625 
Q 30.078125 56 35.796875 56 
Q 45.21875 56 50.046875 50.171875 
Q 54.890625 44.34375 54.890625 33.015625 
z
" id="DejaVuSans-68"/>
    </defs>
    <g transform="translate(183.062938 18.84)scale(0.2 -0.2)">
     <use xlink:href="#DejaVuSans-31"/>
     <use x="63.623047" xlink:href="#DejaVuSans-20"/>
     <use x="95.410156" xlink:href="#DejaVuSans-53"/>
     <use x="158.886719" xlink:href="#DejaVuSans-70"/>
     <use x="222.363281" xlink:href="#DejaVuSans-68"/>
     <use x="285.742188" xlink:href="#DejaVuSans-65"/>
     <use x="347.265625" xlink:href="#DejaVuSans-72"/>
     <use x="388.347656" xlink:href="#DejaVuSans-65"/>
    </g>
   </g>
  </g>
 </g>
 <defs>
  <clipPath id="p168c4011e6">
   <rect height="270.04" width="343.864" x="56.12" y="24.84"/>
  </clipPath>
 </defs>
</svg>
