<?xml version="1.0" encoding="utf-8" standalone="no"?>
<!DOCTYPE svg PUBLIC "-//W3C//DTD SVG 1.1//EN"
  "http://www.w3.org/Graphics/SVG/1.1/DTD/svg11.dtd">
<!-- Created with matplotlib (http://matplotlib.org/) -->
<svg height="345.6pt" version="1.1" viewBox="0 0 460.8 345.6" width="460.8pt" xmlns="http://www.w3.org/2000/svg" xmlns:xlink="http://www.w3.org/1999/xlink">
 <defs>
  <style type="text/css">
*{stroke-linecap:butt;stroke-linejoin:round;}
  </style>
 </defs>
 <g id="figure_1">
  <g id="patch_1">
   <path d="M 0 345.6 
L 460.8 345.6 
L 460.8 0 
L 0 0 
z
" style="fill:#ffffff;"/>
  </g>
  <g id="axes_1">
   <g id="patch_2">
    <path d="M 56.12 294.88 
L 399.984 294.88 
L 399.984 6.845228 
L 56.12 6.845228 
z
" style="fill:#ffffff;"/>
   </g>
   <g id="matplotlib.axis_1">
    <g id="xtick_1">
     <g id="line2d_1">
      <path clip-path="url(#p6e971cc3ab)" d="M 56.12 294.88 
L 56.12 6.845228 
" style="fill:none;stroke:#b0b0b0;stroke-linecap:square;stroke-width:0.8;"/>
     </g>
     <g id="line2d_2">
      <defs>
       <path d="M 0 0 
L 0 3.5 
" id="m0236aa8445" style="stroke:#000000;stroke-width:0.8;"/>
      </defs>
      <g>
       <use style="stroke:#000000;stroke-width:0.8;" x="56.12" xlink:href="#m0236aa8445" y="294.88"/>
      </g>
     </g>
     <g id="text_1">
      <!-- 0 -->
      <defs>
       <path d="M 31.78125 66.40625 
Q 24.171875 66.40625 20.328125 58.90625 
Q 16.5 51.421875 16.5 36.375 
Q 16.5 21.390625 20.328125 13.890625 
Q 24.171875 6.390625 31.78125 6.390625 
Q 39.453125 6.390625 43.28125 13.890625 
Q 47.125 21.390625 47.125 36.375 
Q 47.125 51.421875 43.28125 58.90625 
Q 39.453125 66.40625 31.78125 66.40625 
z
M 31.78125 74.21875 
Q 44.046875 74.21875 50.515625 64.515625 
Q 56.984375 54.828125 56.984375 36.375 
Q 56.984375 17.96875 50.515625 8.265625 
Q 44.046875 -1.421875 31.78125 -1.421875 
Q 19.53125 -1.421875 13.0625 8.265625 
Q 6.59375 17.96875 6.59375 36.375 
Q 6.59375 54.828125 13.0625 64.515625 
Q 19.53125 74.21875 31.78125 74.21875 
z
" id="DejaVuSans-30"/>
      </defs>
      <g transform="translate(49.7575 317.076875)scale(0.2 -0.2)">
       <use xlink:href="#DejaVuSans-30"/>
      </g>
     </g>
    </g>
    <g id="xtick_2">
     <g id="line2d_3">
      <path clip-path="url(#p6e971cc3ab)" d="M 135.351336 294.88 
L 135.351336 6.845228 
" style="fill:none;stroke:#b0b0b0;stroke-linecap:square;stroke-width:0.8;"/>
     </g>
     <g id="line2d_4">
      <g>
       <use style="stroke:#000000;stroke-width:0.8;" x="135.351336" xlink:href="#m0236aa8445" y="294.88"/>
      </g>
     </g>
     <g id="text_2">
      <!-- 2 -->
      <defs>
       <path d="M 19.1875 8.296875 
L 53.609375 8.296875 
L 53.609375 0 
L 7.328125 0 
L 7.328125 8.296875 
Q 12.9375 14.109375 22.625 23.890625 
Q 32.328125 33.6875 34.8125 36.53125 
Q 39.546875 41.84375 41.421875 45.53125 
Q 43.3125 49.21875 43.3125 52.78125 
Q 43.3125 58.59375 39.234375 62.25 
Q 35.15625 65.921875 28.609375 65.921875 
Q 23.96875 65.921875 18.8125 64.3125 
Q 13.671875 62.703125 7.8125 59.421875 
L 7.8125 69.390625 
Q 13.765625 71.78125 18.9375 73 
Q 24.125 74.21875 28.421875 74.21875 
Q 39.75 74.21875 46.484375 68.546875 
Q 53.21875 62.890625 53.21875 53.421875 
Q 53.21875 48.921875 51.53125 44.890625 
Q 49.859375 40.875 45.40625 35.40625 
Q 44.1875 33.984375 37.640625 27.21875 
Q 31.109375 20.453125 19.1875 8.296875 
z
" id="DejaVuSans-32"/>
      </defs>
      <g transform="translate(128.988836 317.076875)scale(0.2 -0.2)">
       <use xlink:href="#DejaVuSans-32"/>
      </g>
     </g>
    </g>
    <g id="xtick_3">
     <g id="line2d_5">
      <path clip-path="url(#p6e971cc3ab)" d="M 214.582673 294.88 
L 214.582673 6.845228 
" style="fill:none;stroke:#b0b0b0;stroke-linecap:square;stroke-width:0.8;"/>
     </g>
     <g id="line2d_6">
      <g>
       <use style="stroke:#000000;stroke-width:0.8;" x="214.582673" xlink:href="#m0236aa8445" y="294.88"/>
      </g>
     </g>
     <g id="text_3">
      <!-- 4 -->
      <defs>
       <path d="M 37.796875 64.3125 
L 12.890625 25.390625 
L 37.796875 25.390625 
z
M 35.203125 72.90625 
L 47.609375 72.90625 
L 47.609375 25.390625 
L 58.015625 25.390625 
L 58.015625 17.1875 
L 47.609375 17.1875 
L 47.609375 0 
L 37.796875 0 
L 37.796875 17.1875 
L 4.890625 17.1875 
L 4.890625 26.703125 
z
" id="DejaVuSans-34"/>
      </defs>
      <g transform="translate(208.220173 317.076875)scale(0.2 -0.2)">
       <use xlink:href="#DejaVuSans-34"/>
      </g>
     </g>
    </g>
    <g id="xtick_4">
     <g id="line2d_7">
      <path clip-path="url(#p6e971cc3ab)" d="M 293.814009 294.88 
L 293.814009 6.845228 
" style="fill:none;stroke:#b0b0b0;stroke-linecap:square;stroke-width:0.8;"/>
     </g>
     <g id="line2d_8">
      <g>
       <use style="stroke:#000000;stroke-width:0.8;" x="293.814009" xlink:href="#m0236aa8445" y="294.88"/>
      </g>
     </g>
     <g id="text_4">
      <!-- 6 -->
      <defs>
       <path d="M 33.015625 40.375 
Q 26.375 40.375 22.484375 35.828125 
Q 18.609375 31.296875 18.609375 23.390625 
Q 18.609375 15.53125 22.484375 10.953125 
Q 26.375 6.390625 33.015625 6.390625 
Q 39.65625 6.390625 43.53125 10.953125 
Q 47.40625 15.53125 47.40625 23.390625 
Q 47.40625 31.296875 43.53125 35.828125 
Q 39.65625 40.375 33.015625 40.375 
z
M 52.59375 71.296875 
L 52.59375 62.3125 
Q 48.875 64.0625 45.09375 64.984375 
Q 41.3125 65.921875 37.59375 65.921875 
Q 27.828125 65.921875 22.671875 59.328125 
Q 17.53125 52.734375 16.796875 39.40625 
Q 19.671875 43.65625 24.015625 45.921875 
Q 28.375 48.1875 33.59375 48.1875 
Q 44.578125 48.1875 50.953125 41.515625 
Q 57.328125 34.859375 57.328125 23.390625 
Q 57.328125 12.15625 50.6875 5.359375 
Q 44.046875 -1.421875 33.015625 -1.421875 
Q 20.359375 -1.421875 13.671875 8.265625 
Q 6.984375 17.96875 6.984375 36.375 
Q 6.984375 53.65625 15.1875 63.9375 
Q 23.390625 74.21875 37.203125 74.21875 
Q 40.921875 74.21875 44.703125 73.484375 
Q 48.484375 72.75 52.59375 71.296875 
z
" id="DejaVuSans-36"/>
      </defs>
      <g transform="translate(287.451509 317.076875)scale(0.2 -0.2)">
       <use xlink:href="#DejaVuSans-36"/>
      </g>
     </g>
    </g>
    <g id="xtick_5">
     <g id="line2d_9">
      <path clip-path="url(#p6e971cc3ab)" d="M 373.045346 294.88 
L 373.045346 6.845228 
" style="fill:none;stroke:#b0b0b0;stroke-linecap:square;stroke-width:0.8;"/>
     </g>
     <g id="line2d_10">
      <g>
       <use style="stroke:#000000;stroke-width:0.8;" x="373.045346" xlink:href="#m0236aa8445" y="294.88"/>
      </g>
     </g>
     <g id="text_5">
      <!-- 8 -->
      <defs>
       <path d="M 31.78125 34.625 
Q 24.75 34.625 20.71875 30.859375 
Q 16.703125 27.09375 16.703125 20.515625 
Q 16.703125 13.921875 20.71875 10.15625 
Q 24.75 6.390625 31.78125 6.390625 
Q 38.8125 6.390625 42.859375 10.171875 
Q 46.921875 13.96875 46.921875 20.515625 
Q 46.921875 27.09375 42.890625 30.859375 
Q 38.875 34.625 31.78125 34.625 
z
M 21.921875 38.8125 
Q 15.578125 40.375 12.03125 44.71875 
Q 8.5 49.078125 8.5 55.328125 
Q 8.5 64.0625 14.71875 69.140625 
Q 20.953125 74.21875 31.78125 74.21875 
Q 42.671875 74.21875 48.875 69.140625 
Q 55.078125 64.0625 55.078125 55.328125 
Q 55.078125 49.078125 51.53125 44.71875 
Q 48 40.375 41.703125 38.8125 
Q 48.828125 37.15625 52.796875 32.3125 
Q 56.78125 27.484375 56.78125 20.515625 
Q 56.78125 9.90625 50.3125 4.234375 
Q 43.84375 -1.421875 31.78125 -1.421875 
Q 19.734375 -1.421875 13.25 4.234375 
Q 6.78125 9.90625 6.78125 20.515625 
Q 6.78125 27.484375 10.78125 32.3125 
Q 14.796875 37.15625 21.921875 38.8125 
z
M 18.3125 54.390625 
Q 18.3125 48.734375 21.84375 45.5625 
Q 25.390625 42.390625 31.78125 42.390625 
Q 38.140625 42.390625 41.71875 45.5625 
Q 45.3125 48.734375 45.3125 54.390625 
Q 45.3125 60.0625 41.71875 63.234375 
Q 38.140625 66.40625 31.78125 66.40625 
Q 25.390625 66.40625 21.84375 63.234375 
Q 18.3125 60.0625 18.3125 54.390625 
z
" id="DejaVuSans-38"/>
      </defs>
      <g transform="translate(366.682846 317.076875)scale(0.2 -0.2)">
       <use xlink:href="#DejaVuSans-38"/>
      </g>
     </g>
    </g>
    <g id="text_6">
     <!-- log10(# f-evals / dimension) -->
     <defs>
      <path d="M 9.421875 75.984375 
L 18.40625 75.984375 
L 18.40625 0 
L 9.421875 0 
z
" id="DejaVuSans-6c"/>
      <path d="M 30.609375 48.390625 
Q 23.390625 48.390625 19.1875 42.75 
Q 14.984375 37.109375 14.984375 27.296875 
Q 14.984375 17.484375 19.15625 11.84375 
Q 23.34375 6.203125 30.609375 6.203125 
Q 37.796875 6.203125 41.984375 11.859375 
Q 46.1875 17.53125 46.1875 27.296875 
Q 46.1875 37.015625 41.984375 42.703125 
Q 37.796875 48.390625 30.609375 48.390625 
z
M 30.609375 56 
Q 42.328125 56 49.015625 48.375 
Q 55.71875 40.765625 55.71875 27.296875 
Q 55.71875 13.875 49.015625 6.21875 
Q 42.328125 -1.421875 30.609375 -1.421875 
Q 18.84375 -1.421875 12.171875 6.21875 
Q 5.515625 13.875 5.515625 27.296875 
Q 5.515625 40.765625 12.171875 48.375 
Q 18.84375 56 30.609375 56 
z
" id="DejaVuSans-6f"/>
      <path d="M 45.40625 27.984375 
Q 45.40625 37.75 41.375 43.109375 
Q 37.359375 48.484375 30.078125 48.484375 
Q 22.859375 48.484375 18.828125 43.109375 
Q 14.796875 37.75 14.796875 27.984375 
Q 14.796875 18.265625 18.828125 12.890625 
Q 22.859375 7.515625 30.078125 7.515625 
Q 37.359375 7.515625 41.375 12.890625 
Q 45.40625 18.265625 45.40625 27.984375 
z
M 54.390625 6.78125 
Q 54.390625 -7.171875 48.1875 -13.984375 
Q 42 -20.796875 29.203125 -20.796875 
Q 24.46875 -20.796875 20.265625 -20.09375 
Q 16.0625 -19.390625 12.109375 -17.921875 
L 12.109375 -9.1875 
Q 16.0625 -11.328125 19.921875 -12.34375 
Q 23.78125 -13.375 27.78125 -13.375 
Q 36.625 -13.375 41.015625 -8.765625 
Q 45.40625 -4.15625 45.40625 5.171875 
L 45.40625 9.625 
Q 42.625 4.78125 38.28125 2.390625 
Q 33.9375 0 27.875 0 
Q 17.828125 0 11.671875 7.65625 
Q 5.515625 15.328125 5.515625 27.984375 
Q 5.515625 40.671875 11.671875 48.328125 
Q 17.828125 56 27.875 56 
Q 33.9375 56 38.28125 53.609375 
Q 42.625 51.21875 45.40625 46.390625 
L 45.40625 54.6875 
L 54.390625 54.6875 
z
" id="DejaVuSans-67"/>
      <path d="M 12.40625 8.296875 
L 28.515625 8.296875 
L 28.515625 63.921875 
L 10.984375 60.40625 
L 10.984375 69.390625 
L 28.421875 72.90625 
L 38.28125 72.90625 
L 38.28125 8.296875 
L 54.390625 8.296875 
L 54.390625 0 
L 12.40625 0 
z
" id="DejaVuSans-31"/>
      <path d="M 31 75.875 
Q 24.46875 64.65625 21.28125 53.65625 
Q 18.109375 42.671875 18.109375 31.390625 
Q 18.109375 20.125 21.3125 9.0625 
Q 24.515625 -2 31 -13.1875 
L 23.1875 -13.1875 
Q 15.875 -1.703125 12.234375 9.375 
Q 8.59375 20.453125 8.59375 31.390625 
Q 8.59375 42.28125 12.203125 53.3125 
Q 15.828125 64.359375 23.1875 75.875 
z
" id="DejaVuSans-28"/>
      <path d="M 51.125 44 
L 36.921875 44 
L 32.8125 27.6875 
L 47.125 27.6875 
z
M 43.796875 71.78125 
L 38.71875 51.515625 
L 52.984375 51.515625 
L 58.109375 71.78125 
L 65.921875 71.78125 
L 60.890625 51.515625 
L 76.125 51.515625 
L 76.125 44 
L 58.984375 44 
L 54.984375 27.6875 
L 70.515625 27.6875 
L 70.515625 20.21875 
L 53.078125 20.21875 
L 48 0 
L 40.1875 0 
L 45.21875 20.21875 
L 30.90625 20.21875 
L 25.875 0 
L 18.015625 0 
L 23.09375 20.21875 
L 7.71875 20.21875 
L 7.71875 27.6875 
L 24.90625 27.6875 
L 29 44 
L 13.28125 44 
L 13.28125 51.515625 
L 30.90625 51.515625 
L 35.890625 71.78125 
z
" id="DejaVuSans-23"/>
      <path id="DejaVuSans-20"/>
      <path d="M 37.109375 75.984375 
L 37.109375 68.5 
L 28.515625 68.5 
Q 23.6875 68.5 21.796875 66.546875 
Q 19.921875 64.59375 19.921875 59.515625 
L 19.921875 54.6875 
L 34.71875 54.6875 
L 34.71875 47.703125 
L 19.921875 47.703125 
L 19.921875 0 
L 10.890625 0 
L 10.890625 47.703125 
L 2.296875 47.703125 
L 2.296875 54.6875 
L 10.890625 54.6875 
L 10.890625 58.5 
Q 10.890625 67.625 15.140625 71.796875 
Q 19.390625 75.984375 28.609375 75.984375 
z
" id="DejaVuSans-66"/>
      <path d="M 4.890625 31.390625 
L 31.203125 31.390625 
L 31.203125 23.390625 
L 4.890625 23.390625 
z
" id="DejaVuSans-2d"/>
      <path d="M 56.203125 29.59375 
L 56.203125 25.203125 
L 14.890625 25.203125 
Q 15.484375 15.921875 20.484375 11.0625 
Q 25.484375 6.203125 34.421875 6.203125 
Q 39.59375 6.203125 44.453125 7.46875 
Q 49.3125 8.734375 54.109375 11.28125 
L 54.109375 2.78125 
Q 49.265625 0.734375 44.1875 -0.34375 
Q 39.109375 -1.421875 33.890625 -1.421875 
Q 20.796875 -1.421875 13.15625 6.1875 
Q 5.515625 13.8125 5.515625 26.8125 
Q 5.515625 40.234375 12.765625 48.109375 
Q 20.015625 56 32.328125 56 
Q 43.359375 56 49.78125 48.890625 
Q 56.203125 41.796875 56.203125 29.59375 
z
M 47.21875 32.234375 
Q 47.125 39.59375 43.09375 43.984375 
Q 39.0625 48.390625 32.421875 48.390625 
Q 24.90625 48.390625 20.390625 44.140625 
Q 15.875 39.890625 15.1875 32.171875 
z
" id="DejaVuSans-65"/>
      <path d="M 2.984375 54.6875 
L 12.5 54.6875 
L 29.59375 8.796875 
L 46.6875 54.6875 
L 56.203125 54.6875 
L 35.6875 0 
L 23.484375 0 
z
" id="DejaVuSans-76"/>
      <path d="M 34.28125 27.484375 
Q 23.390625 27.484375 19.1875 25 
Q 14.984375 22.515625 14.984375 16.5 
Q 14.984375 11.71875 18.140625 8.90625 
Q 21.296875 6.109375 26.703125 6.109375 
Q 34.1875 6.109375 38.703125 11.40625 
Q 43.21875 16.703125 43.21875 25.484375 
L 43.21875 27.484375 
z
M 52.203125 31.203125 
L 52.203125 0 
L 43.21875 0 
L 43.21875 8.296875 
Q 40.140625 3.328125 35.546875 0.953125 
Q 30.953125 -1.421875 24.3125 -1.421875 
Q 15.921875 -1.421875 10.953125 3.296875 
Q 6 8.015625 6 15.921875 
Q 6 25.140625 12.171875 29.828125 
Q 18.359375 34.515625 30.609375 34.515625 
L 43.21875 34.515625 
L 43.21875 35.40625 
Q 43.21875 41.609375 39.140625 45 
Q 35.0625 48.390625 27.6875 48.390625 
Q 23 48.390625 18.546875 47.265625 
Q 14.109375 46.140625 10.015625 43.890625 
L 10.015625 52.203125 
Q 14.9375 54.109375 19.578125 55.046875 
Q 24.21875 56 28.609375 56 
Q 40.484375 56 46.34375 49.84375 
Q 52.203125 43.703125 52.203125 31.203125 
z
" id="DejaVuSans-61"/>
      <path d="M 44.28125 53.078125 
L 44.28125 44.578125 
Q 40.484375 46.53125 36.375 47.5 
Q 32.28125 48.484375 27.875 48.484375 
Q 21.1875 48.484375 17.84375 46.4375 
Q 14.5 44.390625 14.5 40.28125 
Q 14.5 37.15625 16.890625 35.375 
Q 19.28125 33.59375 26.515625 31.984375 
L 29.59375 31.296875 
Q 39.15625 29.25 43.1875 25.515625 
Q 47.21875 21.78125 47.21875 15.09375 
Q 47.21875 7.46875 41.1875 3.015625 
Q 35.15625 -1.421875 24.609375 -1.421875 
Q 20.21875 -1.421875 15.453125 -0.5625 
Q 10.6875 0.296875 5.421875 2 
L 5.421875 11.28125 
Q 10.40625 8.6875 15.234375 7.390625 
Q 20.0625 6.109375 24.8125 6.109375 
Q 31.15625 6.109375 34.5625 8.28125 
Q 37.984375 10.453125 37.984375 14.40625 
Q 37.984375 18.0625 35.515625 20.015625 
Q 33.0625 21.96875 24.703125 23.78125 
L 21.578125 24.515625 
Q 13.234375 26.265625 9.515625 29.90625 
Q 5.8125 33.546875 5.8125 39.890625 
Q 5.8125 47.609375 11.28125 51.796875 
Q 16.75 56 26.8125 56 
Q 31.78125 56 36.171875 55.265625 
Q 40.578125 54.546875 44.28125 53.078125 
z
" id="DejaVuSans-73"/>
      <path d="M 25.390625 72.90625 
L 33.6875 72.90625 
L 8.296875 -9.28125 
L 0 -9.28125 
z
" id="DejaVuSans-2f"/>
      <path d="M 45.40625 46.390625 
L 45.40625 75.984375 
L 54.390625 75.984375 
L 54.390625 0 
L 45.40625 0 
L 45.40625 8.203125 
Q 42.578125 3.328125 38.25 0.953125 
Q 33.9375 -1.421875 27.875 -1.421875 
Q 17.96875 -1.421875 11.734375 6.484375 
Q 5.515625 14.40625 5.515625 27.296875 
Q 5.515625 40.1875 11.734375 48.09375 
Q 17.96875 56 27.875 56 
Q 33.9375 56 38.25 53.625 
Q 42.578125 51.265625 45.40625 46.390625 
z
M 14.796875 27.296875 
Q 14.796875 17.390625 18.875 11.75 
Q 22.953125 6.109375 30.078125 6.109375 
Q 37.203125 6.109375 41.296875 11.75 
Q 45.40625 17.390625 45.40625 27.296875 
Q 45.40625 37.203125 41.296875 42.84375 
Q 37.203125 48.484375 30.078125 48.484375 
Q 22.953125 48.484375 18.875 42.84375 
Q 14.796875 37.203125 14.796875 27.296875 
z
" id="DejaVuSans-64"/>
      <path d="M 9.421875 54.6875 
L 18.40625 54.6875 
L 18.40625 0 
L 9.421875 0 
z
M 9.421875 75.984375 
L 18.40625 75.984375 
L 18.40625 64.59375 
L 9.421875 64.59375 
z
" id="DejaVuSans-69"/>
      <path d="M 52 44.1875 
Q 55.375 50.25 60.0625 53.125 
Q 64.75 56 71.09375 56 
Q 79.640625 56 84.28125 50.015625 
Q 88.921875 44.046875 88.921875 33.015625 
L 88.921875 0 
L 79.890625 0 
L 79.890625 32.71875 
Q 79.890625 40.578125 77.09375 44.375 
Q 74.3125 48.1875 68.609375 48.1875 
Q 61.625 48.1875 57.5625 43.546875 
Q 53.515625 38.921875 53.515625 30.90625 
L 53.515625 0 
L 44.484375 0 
L 44.484375 32.71875 
Q 44.484375 40.625 41.703125 44.40625 
Q 38.921875 48.1875 33.109375 48.1875 
Q 26.21875 48.1875 22.15625 43.53125 
Q 18.109375 38.875 18.109375 30.90625 
L 18.109375 0 
L 9.078125 0 
L 9.078125 54.6875 
L 18.109375 54.6875 
L 18.109375 46.1875 
Q 21.1875 51.21875 25.484375 53.609375 
Q 29.78125 56 35.6875 56 
Q 41.65625 56 45.828125 52.96875 
Q 50 49.953125 52 44.1875 
z
" id="DejaVuSans-6d"/>
      <path d="M 54.890625 33.015625 
L 54.890625 0 
L 45.90625 0 
L 45.90625 32.71875 
Q 45.90625 40.484375 42.875 44.328125 
Q 39.84375 48.1875 33.796875 48.1875 
Q 26.515625 48.1875 22.3125 43.546875 
Q 18.109375 38.921875 18.109375 30.90625 
L 18.109375 0 
L 9.078125 0 
L 9.078125 54.6875 
L 18.109375 54.6875 
L 18.109375 46.1875 
Q 21.34375 51.125 25.703125 53.5625 
Q 30.078125 56 35.796875 56 
Q 45.21875 56 50.046875 50.171875 
Q 54.890625 44.34375 54.890625 33.015625 
z
" id="DejaVuSans-6e"/>
      <path d="M 8.015625 75.875 
L 15.828125 75.875 
Q 23.140625 64.359375 26.78125 53.3125 
Q 30.421875 42.28125 30.421875 31.390625 
Q 30.421875 20.453125 26.78125 9.375 
Q 23.140625 -1.703125 15.828125 -13.1875 
L 8.015625 -13.1875 
Q 14.5 -2 17.703125 9.0625 
Q 20.90625 20.125 20.90625 31.390625 
Q 20.90625 42.671875 17.703125 53.65625 
Q 14.5 64.65625 8.015625 75.875 
z
" id="DejaVuSans-29"/>
     </defs>
     <g transform="translate(107.211219 338.153594)scale(0.17 -0.17)">
      <use xlink:href="#DejaVuSans-6c"/>
      <use x="27.783203" xlink:href="#DejaVuSans-6f"/>
      <use x="88.964844" xlink:href="#DejaVuSans-67"/>
      <use x="152.441406" xlink:href="#DejaVuSans-31"/>
      <use x="216.064453" xlink:href="#DejaVuSans-30"/>
      <use x="279.6875" xlink:href="#DejaVuSans-28"/>
      <use x="318.701172" xlink:href="#DejaVuSans-23"/>
      <use x="402.490234" xlink:href="#DejaVuSans-20"/>
      <use x="434.277344" xlink:href="#DejaVuSans-66"/>
      <use x="469.404297" xlink:href="#DejaVuSans-2d"/>
      <use x="505.488281" xlink:href="#DejaVuSans-65"/>
      <use x="567.011719" xlink:href="#DejaVuSans-76"/>
      <use x="626.191406" xlink:href="#DejaVuSans-61"/>
      <use x="687.470703" xlink:href="#DejaVuSans-6c"/>
      <use x="715.253906" xlink:href="#DejaVuSans-73"/>
      <use x="767.353516" xlink:href="#DejaVuSans-20"/>
      <use x="799.140625" xlink:href="#DejaVuSans-2f"/>
      <use x="832.832031" xlink:href="#DejaVuSans-20"/>
      <use x="864.619141" xlink:href="#DejaVuSans-64"/>
      <use x="928.095703" xlink:href="#DejaVuSans-69"/>
      <use x="955.878906" xlink:href="#DejaVuSans-6d"/>
      <use x="1053.291016" xlink:href="#DejaVuSans-65"/>
      <use x="1114.814453" xlink:href="#DejaVuSans-6e"/>
      <use x="1178.193359" xlink:href="#DejaVuSans-73"/>
      <use x="1230.292969" xlink:href="#DejaVuSans-69"/>
      <use x="1258.076172" xlink:href="#DejaVuSans-6f"/>
      <use x="1319.257812" xlink:href="#DejaVuSans-6e"/>
      <use x="1382.636719" xlink:href="#DejaVuSans-29"/>
     </g>
    </g>
   </g>
   <g id="matplotlib.axis_2">
    <g id="ytick_1">
     <g id="line2d_11">
      <path clip-path="url(#p6e971cc3ab)" d="M 56.12 294.88 
L 399.984 294.88 
" style="fill:none;stroke:#b0b0b0;stroke-linecap:square;stroke-width:0.8;"/>
     </g>
     <g id="line2d_12">
      <defs>
       <path d="M 0 0 
L -3.5 0 
" id="mf2be3546ac" style="stroke:#000000;stroke-width:0.8;"/>
      </defs>
      <g>
       <use style="stroke:#000000;stroke-width:0.8;" x="56.12" xlink:href="#mf2be3546ac" y="294.88"/>
      </g>
     </g>
     <g id="text_7">
      <!-- 0.0 -->
      <defs>
       <path d="M 10.6875 12.40625 
L 21 12.40625 
L 21 0 
L 10.6875 0 
z
" id="DejaVuSans-2e"/>
      </defs>
      <g transform="translate(23.675 300.95875)scale(0.16 -0.16)">
       <use xlink:href="#DejaVuSans-30"/>
       <use x="63.623047" xlink:href="#DejaVuSans-2e"/>
       <use x="95.410156" xlink:href="#DejaVuSans-30"/>
      </g>
     </g>
    </g>
    <g id="ytick_2">
     <g id="line2d_13">
      <path clip-path="url(#p6e971cc3ab)" d="M 56.12 237.843411 
L 399.984 237.843411 
" style="fill:none;stroke:#b0b0b0;stroke-linecap:square;stroke-width:0.8;"/>
     </g>
     <g id="line2d_14">
      <g>
       <use style="stroke:#000000;stroke-width:0.8;" x="56.12" xlink:href="#mf2be3546ac" y="237.843411"/>
      </g>
     </g>
     <g id="text_8">
      <!-- 0.2 -->
      <g transform="translate(23.675 243.922161)scale(0.16 -0.16)">
       <use xlink:href="#DejaVuSans-30"/>
       <use x="63.623047" xlink:href="#DejaVuSans-2e"/>
       <use x="95.410156" xlink:href="#DejaVuSans-32"/>
      </g>
     </g>
    </g>
    <g id="ytick_3">
     <g id="line2d_15">
      <path clip-path="url(#p6e971cc3ab)" d="M 56.12 180.806823 
L 399.984 180.806823 
" style="fill:none;stroke:#b0b0b0;stroke-linecap:square;stroke-width:0.8;"/>
     </g>
     <g id="line2d_16">
      <g>
       <use style="stroke:#000000;stroke-width:0.8;" x="56.12" xlink:href="#mf2be3546ac" y="180.806823"/>
      </g>
     </g>
     <g id="text_9">
      <!-- 0.4 -->
      <g transform="translate(23.675 186.885573)scale(0.16 -0.16)">
       <use xlink:href="#DejaVuSans-30"/>
       <use x="63.623047" xlink:href="#DejaVuSans-2e"/>
       <use x="95.410156" xlink:href="#DejaVuSans-34"/>
      </g>
     </g>
    </g>
    <g id="ytick_4">
     <g id="line2d_17">
      <path clip-path="url(#p6e971cc3ab)" d="M 56.12 123.770234 
L 399.984 123.770234 
" style="fill:none;stroke:#b0b0b0;stroke-linecap:square;stroke-width:0.8;"/>
     </g>
     <g id="line2d_18">
      <g>
       <use style="stroke:#000000;stroke-width:0.8;" x="56.12" xlink:href="#mf2be3546ac" y="123.770234"/>
      </g>
     </g>
     <g id="text_10">
      <!-- 0.6 -->
      <g transform="translate(23.675 129.848984)scale(0.16 -0.16)">
       <use xlink:href="#DejaVuSans-30"/>
       <use x="63.623047" xlink:href="#DejaVuSans-2e"/>
       <use x="95.410156" xlink:href="#DejaVuSans-36"/>
      </g>
     </g>
    </g>
    <g id="ytick_5">
     <g id="line2d_19">
      <path clip-path="url(#p6e971cc3ab)" d="M 56.12 66.733646 
L 399.984 66.733646 
" style="fill:none;stroke:#b0b0b0;stroke-linecap:square;stroke-width:0.8;"/>
     </g>
     <g id="line2d_20">
      <g>
       <use style="stroke:#000000;stroke-width:0.8;" x="56.12" xlink:href="#mf2be3546ac" y="66.733646"/>
      </g>
     </g>
     <g id="text_11">
      <!-- 0.8 -->
      <g transform="translate(23.675 72.812396)scale(0.16 -0.16)">
       <use xlink:href="#DejaVuSans-30"/>
       <use x="63.623047" xlink:href="#DejaVuSans-2e"/>
       <use x="95.410156" xlink:href="#DejaVuSans-38"/>
      </g>
     </g>
    </g>
    <g id="ytick_6">
     <g id="line2d_21">
      <path clip-path="url(#p6e971cc3ab)" d="M 56.12 9.697057 
L 399.984 9.697057 
" style="fill:none;stroke:#b0b0b0;stroke-linecap:square;stroke-width:0.8;"/>
     </g>
     <g id="line2d_22">
      <g>
       <use style="stroke:#000000;stroke-width:0.8;" x="56.12" xlink:href="#mf2be3546ac" y="9.697057"/>
      </g>
     </g>
     <g id="text_12">
      <!-- 1.0 -->
      <g transform="translate(23.675 15.775807)scale(0.16 -0.16)">
       <use xlink:href="#DejaVuSans-31"/>
       <use x="63.623047" xlink:href="#DejaVuSans-2e"/>
       <use x="95.410156" xlink:href="#DejaVuSans-30"/>
      </g>
     </g>
    </g>
    <g id="text_13">
     <!-- Fraction of function,target pairs -->
     <defs>
      <path d="M 9.8125 72.90625 
L 51.703125 72.90625 
L 51.703125 64.59375 
L 19.671875 64.59375 
L 19.671875 43.109375 
L 48.578125 43.109375 
L 48.578125 34.8125 
L 19.671875 34.8125 
L 19.671875 0 
L 9.8125 0 
z
" id="DejaVuSans-46"/>
      <path d="M 41.109375 46.296875 
Q 39.59375 47.171875 37.8125 47.578125 
Q 36.03125 48 33.890625 48 
Q 26.265625 48 22.1875 43.046875 
Q 18.109375 38.09375 18.109375 28.8125 
L 18.109375 0 
L 9.078125 0 
L 9.078125 54.6875 
L 18.109375 54.6875 
L 18.109375 46.1875 
Q 20.953125 51.171875 25.484375 53.578125 
Q 30.03125 56 36.53125 56 
Q 37.453125 56 38.578125 55.875 
Q 39.703125 55.765625 41.0625 55.515625 
z
" id="DejaVuSans-72"/>
      <path d="M 48.78125 52.59375 
L 48.78125 44.1875 
Q 44.96875 46.296875 41.140625 47.34375 
Q 37.3125 48.390625 33.40625 48.390625 
Q 24.65625 48.390625 19.8125 42.84375 
Q 14.984375 37.3125 14.984375 27.296875 
Q 14.984375 17.28125 19.8125 11.734375 
Q 24.65625 6.203125 33.40625 6.203125 
Q 37.3125 6.203125 41.140625 7.25 
Q 44.96875 8.296875 48.78125 10.40625 
L 48.78125 2.09375 
Q 45.015625 0.34375 40.984375 -0.53125 
Q 36.96875 -1.421875 32.421875 -1.421875 
Q 20.0625 -1.421875 12.78125 6.34375 
Q 5.515625 14.109375 5.515625 27.296875 
Q 5.515625 40.671875 12.859375 48.328125 
Q 20.21875 56 33.015625 56 
Q 37.15625 56 41.109375 55.140625 
Q 45.0625 54.296875 48.78125 52.59375 
z
" id="DejaVuSans-63"/>
      <path d="M 18.3125 70.21875 
L 18.3125 54.6875 
L 36.8125 54.6875 
L 36.8125 47.703125 
L 18.3125 47.703125 
L 18.3125 18.015625 
Q 18.3125 11.328125 20.140625 9.421875 
Q 21.96875 7.515625 27.59375 7.515625 
L 36.8125 7.515625 
L 36.8125 0 
L 27.59375 0 
Q 17.1875 0 13.234375 3.875 
Q 9.28125 7.765625 9.28125 18.015625 
L 9.28125 47.703125 
L 2.6875 47.703125 
L 2.6875 54.6875 
L 9.28125 54.6875 
L 9.28125 70.21875 
z
" id="DejaVuSans-74"/>
      <path d="M 8.5 21.578125 
L 8.5 54.6875 
L 17.484375 54.6875 
L 17.484375 21.921875 
Q 17.484375 14.15625 20.5 10.265625 
Q 23.53125 6.390625 29.59375 6.390625 
Q 36.859375 6.390625 41.078125 11.03125 
Q 45.3125 15.671875 45.3125 23.6875 
L 45.3125 54.6875 
L 54.296875 54.6875 
L 54.296875 0 
L 45.3125 0 
L 45.3125 8.40625 
Q 42.046875 3.421875 37.71875 1 
Q 33.40625 -1.421875 27.6875 -1.421875 
Q 18.265625 -1.421875 13.375 4.4375 
Q 8.5 10.296875 8.5 21.578125 
z
M 31.109375 56 
z
" id="DejaVuSans-75"/>
      <path d="M 11.71875 12.40625 
L 22.015625 12.40625 
L 22.015625 4 
L 14.015625 -11.625 
L 7.71875 -11.625 
L 11.71875 4 
z
" id="DejaVuSans-2c"/>
      <path d="M 18.109375 8.203125 
L 18.109375 -20.796875 
L 9.078125 -20.796875 
L 9.078125 54.6875 
L 18.109375 54.6875 
L 18.109375 46.390625 
Q 20.953125 51.265625 25.265625 53.625 
Q 29.59375 56 35.59375 56 
Q 45.5625 56 51.78125 48.09375 
Q 58.015625 40.1875 58.015625 27.296875 
Q 58.015625 14.40625 51.78125 6.484375 
Q 45.5625 -1.421875 35.59375 -1.421875 
Q 29.59375 -1.421875 25.265625 0.953125 
Q 20.953125 3.328125 18.109375 8.203125 
z
M 48.6875 27.296875 
Q 48.6875 37.203125 44.609375 42.84375 
Q 40.53125 48.484375 33.40625 48.484375 
Q 26.265625 48.484375 22.1875 42.84375 
Q 18.109375 37.203125 18.109375 27.296875 
Q 18.109375 17.390625 22.1875 11.75 
Q 26.265625 6.109375 33.40625 6.109375 
Q 40.53125 6.109375 44.609375 11.75 
Q 48.6875 17.390625 48.6875 27.296875 
z
" id="DejaVuSans-70"/>
     </defs>
     <g transform="translate(16.139531 286.001989)rotate(-90)scale(0.17 -0.17)">
      <use xlink:href="#DejaVuSans-46"/>
      <use x="57.410156" xlink:href="#DejaVuSans-72"/>
      <use x="98.523438" xlink:href="#DejaVuSans-61"/>
      <use x="159.802734" xlink:href="#DejaVuSans-63"/>
      <use x="214.783203" xlink:href="#DejaVuSans-74"/>
      <use x="253.992188" xlink:href="#DejaVuSans-69"/>
      <use x="281.775391" xlink:href="#DejaVuSans-6f"/>
      <use x="342.957031" xlink:href="#DejaVuSans-6e"/>
      <use x="406.335938" xlink:href="#DejaVuSans-20"/>
      <use x="438.123047" xlink:href="#DejaVuSans-6f"/>
      <use x="499.304688" xlink:href="#DejaVuSans-66"/>
      <use x="534.509766" xlink:href="#DejaVuSans-20"/>
      <use x="566.296875" xlink:href="#DejaVuSans-66"/>
      <use x="601.501953" xlink:href="#DejaVuSans-75"/>
      <use x="664.880859" xlink:href="#DejaVuSans-6e"/>
      <use x="728.259766" xlink:href="#DejaVuSans-63"/>
      <use x="783.240234" xlink:href="#DejaVuSans-74"/>
      <use x="822.449219" xlink:href="#DejaVuSans-69"/>
      <use x="850.232422" xlink:href="#DejaVuSans-6f"/>
      <use x="911.414062" xlink:href="#DejaVuSans-6e"/>
      <use x="974.792969" xlink:href="#DejaVuSans-2c"/>
      <use x="1006.580078" xlink:href="#DejaVuSans-74"/>
      <use x="1045.789062" xlink:href="#DejaVuSans-61"/>
      <use x="1107.068359" xlink:href="#DejaVuSans-72"/>
      <use x="1148.166016" xlink:href="#DejaVuSans-67"/>
      <use x="1211.642578" xlink:href="#DejaVuSans-65"/>
      <use x="1273.166016" xlink:href="#DejaVuSans-74"/>
      <use x="1312.375" xlink:href="#DejaVuSans-20"/>
      <use x="1344.162109" xlink:href="#DejaVuSans-70"/>
      <use x="1407.638672" xlink:href="#DejaVuSans-61"/>
      <use x="1468.917969" xlink:href="#DejaVuSans-69"/>
      <use x="1496.701172" xlink:href="#DejaVuSans-72"/>
      <use x="1537.814453" xlink:href="#DejaVuSans-73"/>
     </g>
    </g>
   </g>
   <g id="line2d_23">
    <defs>
     <path d="M 0 1.5 
C 0.397805 1.5 0.77937 1.341951 1.06066 1.06066 
C 1.341951 0.77937 1.5 0.397805 1.5 0 
C 1.5 -0.397805 1.341951 -0.77937 1.06066 -1.06066 
C 0.77937 -1.341951 0.397805 -1.5 0 -1.5 
C -0.397805 -1.5 -0.77937 -1.341951 -1.06066 -1.06066 
C -1.341951 -0.77937 -1.5 -0.397805 -1.5 0 
C -1.5 0.397805 -1.341951 0.77937 -1.06066 1.06066 
C -0.77937 1.341951 -0.397805 1.5 0 1.5 
z
" id="m75451728b8" style="stroke:#000080;"/>
    </defs>
    <g>
     <use style="fill:#000080;stroke:#000080;" x="266.871983" xlink:href="#m75451728b8" y="9.697057"/>
     <use style="fill:#000080;stroke:#000080;" x="266.871983" xlink:href="#m75451728b8" y="9.697057"/>
    </g>
   </g>
   <g id="line2d_24">
    <path d="M 49.144027 294.88 
L 49.144027 294.320818 
L 61.069532 294.320818 
L 61.069532 293.202453 
L 68.045504 293.202453 
L 68.045504 291.524907 
L 72.995036 291.524907 
L 72.995036 289.84736 
L 76.834191 289.84736 
L 76.834191 288.728995 
L 82.623151 288.728995 
L 82.623151 287.610631 
L 84.92054 287.610631 
L 84.92054 287.051449 
L 86.946982 287.051449 
L 86.946982 285.933084 
L 90.399494 285.933084 
L 90.399494 285.373902 
L 91.896513 285.373902 
L 91.896513 283.137173 
L 94.548655 283.137173 
L 94.548655 282.018808 
L 100.6852 282.018808 
L 100.6852 281.459626 
L 107.077901 281.459626 
L 107.077901 280.900444 
L 107.661173 280.900444 
L 107.661173 279.782079 
L 108.771549 279.782079 
L 108.771549 278.663715 
L 111.72821 278.663715 
L 111.72821 278.104533 
L 116.102274 278.104533 
L 116.102274 276.986168 
L 116.790561 276.986168 
L 116.790561 275.867804 
L 118.704183 275.867804 
L 118.704183 275.308622 
L 119.297513 275.308622 
L 119.297513 274.749439 
L 119.586677 274.749439 
L 119.586677 274.190257 
L 119.871061 274.190257 
L 119.871061 273.071893 
L 120.426105 273.071893 
L 120.426105 271.394346 
L 120.963801 271.394346 
L 120.963801 270.835164 
L 121.485201 270.835164 
L 121.485201 270.275981 
L 123.425832 270.275981 
L 123.425832 269.716799 
L 124.961042 269.716799 
L 124.961042 268.598435 
L 131.223017 268.598435 
L 131.223017 267.48007 
L 131.512181 267.48007 
L 131.512181 266.920888 
L 132.214518 266.920888 
L 132.214518 265.243341 
L 132.622558 265.243341 
L 132.622558 264.684159 
L 133.15198 264.684159 
L 133.15198 264.124977 
L 134.164323 264.124977 
L 134.164323 263.565795 
L 134.286778 263.565795 
L 134.286778 263.006612 
L 135.465655 263.006612 
L 135.465655 261.888248 
L 136.675441 261.888248 
L 136.781317 260.769883 
L 137.403248 260.769883 
L 137.403248 260.210701 
L 137.70598 260.210701 
L 137.70598 259.651519 
L 138.392305 259.651519 
L 138.392305 259.092337 
L 139.598531 259.092337 
L 139.598531 257.973972 
L 140.472062 257.973972 
L 140.472062 257.41479 
L 141.704441 257.41479 
L 141.704441 254.618879 
L 142.173693 254.618879 
L 142.173693 254.059696 
L 144.74851 254.059696 
L 144.74851 253.500514 
L 144.946649 253.500514 
L 144.946649 252.941332 
L 146.089828 252.941332 
L 146.089828 251.822967 
L 146.987677 251.822967 
L 146.987677 250.704603 
L 148.116269 250.704603 
L 148.116269 249.586238 
L 148.759517 249.586238 
L 148.759517 248.467874 
L 149.072341 248.467874 
L 149.072341 246.231145 
L 150.027016 246.231145 
L 150.027016 245.112781 
L 150.221424 245.112781 
L 150.221424 244.553598 
L 150.931491 244.553598 
L 150.931491 243.994416 
L 152.901159 243.994416 
L 152.901159 242.316869 
L 153.188256 242.316869 
L 153.228881 240.639323 
L 154.927601 240.639323 
L 154.927601 240.08014 
L 155.576918 240.08014 
L 155.576918 239.520958 
L 156.607458 239.520958 
L 156.707196 237.843411 
L 156.773369 237.843411 
L 156.773369 236.725047 
L 158.380113 236.725047 
L 158.440165 235.0475 
L 159.087262 235.0475 
L 159.087262 234.488318 
L 159.904682 234.488318 
L 159.904682 233.929136 
L 160.763762 233.929136 
L 160.763762 233.369954 
L 161.33044 233.369954 
L 161.35576 230.574042 
L 161.854487 230.574042 
L 161.854487 230.01486 
L 162.552891 230.01486 
L 162.552891 229.455678 
L 162.717307 229.455678 
L 162.717307 227.218949 
L 163.716287 227.218949 
L 163.716287 226.659767 
L 165.011775 226.659767 
L 165.011775 226.100584 
L 165.436109 226.100584 
L 165.436109 225.541402 
L 166.963041 225.541402 
L 166.963041 224.98222 
L 167.765902 224.98222 
L 167.765902 224.423038 
L 167.991032 224.423038 
L 167.991032 222.745491 
L 203.520612 222.745491 
L 203.520612 222.186309 
L 203.692109 222.186309 
L 203.799774 219.390397 
L 203.804067 219.390397 
L 203.870466 216.035304 
L 203.953638 216.035304 
L 203.99189 214.357757 
L 204.066026 214.357757 
L 204.152467 209.884299 
L 204.183983 209.884299 
L 204.294882 205.410841 
L 204.317809 205.410841 
L 204.425781 203.733295 
L 204.436127 203.733295 
L 204.49189 200.378201 
L 204.617211 200.378201 
L 204.70908 198.141472 
L 204.774111 198.141472 
L 204.820701 193.668014 
L 204.917528 193.668014 
L 205.025811 188.076192 
L 205.143346 188.076192 
L 205.184987 186.957828 
L 205.307344 186.957828 
L 205.342704 185.839463 
L 205.430789 185.839463 
L 205.430789 185.280281 
L 205.568857 185.280281 
L 205.594017 184.161916 
L 215.379446 184.161916 
L 215.489695 182.48437 
L 215.508183 182.48437 
L 215.598161 174.096636 
L 215.621933 174.096636 
L 215.67476 168.504814 
L 215.742442 168.504814 
L 215.839739 161.794627 
L 215.873823 161.794627 
L 215.938609 158.439533 
L 215.987303 158.439533 
L 216.094787 152.847711 
L 216.149326 152.847711 
L 216.149326 152.288529 
L 216.29946 152.288529 
L 216.378173 150.0518 
L 216.451383 150.0518 
L 216.451383 149.492617 
L 222.39079 149.492617 
L 222.479445 141.664066 
L 222.53083 141.664066 
L 222.604383 137.190608 
L 222.664721 137.190608 
L 222.76339 131.598786 
L 222.778355 131.598786 
L 222.819621 127.125328 
L 222.908927 127.125328 
L 223.006209 124.888599 
L 227.343235 124.888599 
L 227.440751 120.415141 
L 227.465179 120.415141 
L 227.553914 110.349861 
L 227.578183 110.349861 
L 227.662585 104.198856 
L 227.705434 104.198856 
L 227.772172 102.521309 
L 227.816875 102.521309 
L 227.816875 101.962127 
L 231.172335 101.962127 
L 231.281753 94.133576 
L 231.3039 94.133576 
L 231.397818 86.305024 
L 234.309372 86.305024 
L 234.393349 80.15402 
L 234.42306 80.15402 
L 234.51945 77.917291 
L 234.576596 77.917291 
L 234.597394 76.798926 
L 236.947295 76.798926 
L 237.047355 68.970375 
L 237.061336 68.970375 
L 237.128286 65.056099 
L 237.177403 65.056099 
L 237.177403 64.496917 
L 239.224704 64.496917 
L 239.334446 57.78673 
L 239.343152 57.78673 
L 239.415619 53.872454 
L 241.244359 53.872454 
L 241.355293 48.280632 
L 241.366904 48.280632 
L 241.446513 46.043903 
L 243.073332 46.043903 
L 243.163748 41.570445 
L 243.186604 41.570445 
L 243.186604 41.011263 
L 244.705326 41.011263 
L 244.787381 35.41944 
L 246.206245 35.41944 
L 246.30797 29.268436 
L 246.334621 29.268436 
L 246.334621 28.709253 
L 247.588016 28.709253 
L 247.617129 24.235795 
L 248.832267 24.235795 
L 248.923214 22.558249 
L 250.04069 22.558249 
L 250.085033 20.880702 
L 251.168548 20.880702 
L 251.168548 20.32152 
L 252.175082 20.32152 
L 252.225967 16.966426 
L 253.167062 16.966426 
L 253.197846 15.28888 
L 254.111986 15.28888 
L 254.111986 14.729697 
L 255.00234 14.729697 
L 255.008906 13.611333 
L 255.843665 13.611333 
L 255.843665 13.052151 
L 257.392413 13.052151 
L 257.428101 11.933786 
L 258.136494 11.933786 
L 258.136494 11.374604 
L 260.763881 11.374604 
L 260.763881 10.815422 
L 262.510521 10.815422 
L 262.510521 10.256239 
L 266.871983 10.256239 
L 266.871983 9.697057 
L 333.429677 9.697057 
L 333.429677 9.697057 
" style="fill:none;stroke:#000080;stroke-linecap:square;stroke-width:1.5;"/>
   </g>
   <g id="line2d_25">
    <defs>
     <path d="M 0 6 
C 1.591219 6 3.117479 5.367802 4.242641 4.242641 
C 5.367802 3.117479 6 1.591219 6 0 
C 6 -1.591219 5.367802 -3.117479 4.242641 -4.242641 
C 3.117479 -5.367802 1.591219 -6 0 -6 
C -1.591219 -6 -3.117479 -5.367802 -4.242641 -4.242641 
C -5.367802 -3.117479 -6 -1.591219 -6 0 
C -6 1.591219 -5.367802 3.117479 -4.242641 4.242641 
C -3.117479 5.367802 -1.591219 6 0 6 
z
" id="mdc1b1849f8" style="stroke:#000080;stroke-width:1.5;"/>
    </defs>
    <g>
     <use style="fill-opacity:0;stroke:#000080;stroke-width:1.5;" x="100.6852" xlink:href="#mdc1b1849f8" y="281.459626"/>
     <use style="fill-opacity:0;stroke:#000080;stroke-width:1.5;" x="203.79548" xlink:href="#mdc1b1849f8" y="219.94958"/>
     <use style="fill-opacity:0;stroke:#000080;stroke-width:1.5;" x="227.816875" xlink:href="#mdc1b1849f8" y="101.962127"/>
     <use style="fill-opacity:0;stroke:#000080;stroke-width:1.5;" x="247.613093" xlink:href="#mdc1b1849f8" y="25.913342"/>
     <use style="fill-opacity:0;stroke:#000080;stroke-width:1.5;" x="266.871983" xlink:href="#mdc1b1849f8" y="9.697057"/>
     <use style="fill-opacity:0;stroke:#000080;stroke-width:1.5;" x="333.429677" xlink:href="#mdc1b1849f8" y="9.697057"/>
    </g>
   </g>
   <g id="line2d_26">
    <path style="fill:none;stroke:#000080;stroke-linecap:square;stroke-width:1.5;"/>
    <g/>
   </g>
   <g id="line2d_27">
    <path clip-path="url(#p6e971cc3ab)" d="M 203.387011 222.745491 
" style="fill:none;stroke:#000080;stroke-linecap:square;stroke-width:1.5;"/>
    <defs>
     <path d="M -12 12 
L 12 -12 
M -12 -12 
L 12 12 
" id="mcc0bd05bbd" style="stroke:#000080;stroke-width:3;"/>
    </defs>
    <g clip-path="url(#p6e971cc3ab)">
     <use style="fill:#000080;stroke:#000080;stroke-width:3;" x="203.387011" xlink:href="#mcc0bd05bbd" y="222.745491"/>
    </g>
   </g>
   <g id="line2d_28">
    <defs>
     <path d="M 0 1.5 
C 0.397805 1.5 0.77937 1.341951 1.06066 1.06066 
C 1.341951 0.77937 1.5 0.397805 1.5 0 
C 1.5 -0.397805 1.341951 -0.77937 1.06066 -1.06066 
C 0.77937 -1.341951 0.397805 -1.5 0 -1.5 
C -0.397805 -1.5 -0.77937 -1.341951 -1.06066 -1.06066 
C -1.341951 -0.77937 -1.5 -0.397805 -1.5 0 
C -1.5 0.397805 -1.341951 0.77937 -1.06066 1.06066 
C -0.77937 1.341951 -0.397805 1.5 0 1.5 
z
" id="md91d25dfaa" style="stroke:#ff00ff;"/>
    </defs>
    <g>
     <use style="fill:#ff00ff;stroke:#ff00ff;" x="272.659013" xlink:href="#md91d25dfaa" y="177.451729"/>
     <use style="fill:#ff00ff;stroke:#ff00ff;" x="272.659013" xlink:href="#md91d25dfaa" y="177.451729"/>
    </g>
   </g>
   <g id="line2d_29">
    <path d="M 49.144027 294.88 
L 49.144027 284.81472 
L 61.069532 284.81472 
L 61.069532 282.577991 
L 68.045504 282.577991 
L 68.045504 281.459626 
L 72.995036 281.459626 
L 72.995036 278.104533 
L 79.971009 278.104533 
L 79.971009 276.986168 
L 84.92054 276.986168 
L 84.92054 273.071893 
L 90.399494 273.071893 
L 90.399494 271.394346 
L 94.548655 271.394346 
L 94.548655 269.716799 
L 96.846045 269.716799 
L 96.846045 269.157617 
L 98.872486 269.157617 
L 98.872486 268.039252 
L 100.6852 268.039252 
L 100.6852 266.920888 
L 101.524628 266.920888 
L 101.524628 266.361706 
L 113.450132 266.361706 
L 113.450132 265.243341 
L 117.452368 265.243341 
L 117.452368 263.565795 
L 120.426105 263.565795 
L 120.426105 263.006612 
L 123.194891 263.006612 
L 123.194891 261.329066 
L 124.319792 261.329066 
L 124.319792 260.769883 
L 126.176007 260.769883 
L 126.176007 260.210701 
L 127.851317 260.210701 
L 127.851317 259.651519 
L 129.377872 259.651519 
L 129.377872 259.092337 
L 129.858039 259.092337 
L 129.858039 258.533154 
L 130.170864 258.533154 
L 130.170864 257.973972 
L 130.478102 257.973972 
L 130.478102 257.41479 
L 133.021144 257.41479 
L 133.021144 256.855608 
L 136.026124 256.855608 
L 136.026124 254.618879 
L 136.461713 254.618879 
L 136.461713 254.059696 
L 136.991135 254.059696 
L 136.991135 252.941332 
L 137.301141 252.941332 
L 137.301141 247.908692 
L 137.504752 247.908692 
L 137.504752 246.790327 
L 137.805719 246.790327 
L 137.805719 245.671963 
L 138.101512 245.671963 
L 138.101512 244.553598 
L 138.866299 244.553598 
L 138.866299 243.994416 
L 140.300868 243.994416 
L 140.300868 243.435234 
L 140.89274 243.435234 
L 140.89274 240.639323 
L 141.303377 240.639323 
L 141.303377 240.08014 
L 141.464926 240.08014 
L 141.464926 238.961776 
L 141.704441 238.961776 
L 141.704441 238.402594 
L 141.862285 238.402594 
L 141.862285 237.284229 
L 142.018694 237.284229 
L 142.018694 236.165865 
L 142.327309 236.165865 
L 142.327309 235.606682 
L 142.479566 235.606682 
L 142.479566 235.0475 
L 145.012191 235.0475 
L 145.012191 234.488318 
L 145.464127 234.488318 
L 145.464127 233.929136 
L 145.654238 233.929136 
L 145.654238 232.251589 
L 145.842271 232.251589 
L 145.842271 231.133225 
L 146.028272 231.133225 
L 146.028272 230.01486 
L 146.574504 230.01486 
L 146.574504 229.455678 
L 148.006684 229.455678 
L 148.006684 228.896496 
L 148.170801 228.896496 
L 148.170801 228.337313 
L 148.333368 228.337313 
L 148.333368 227.778131 
L 148.91664 227.778131 
L 148.91664 227.218949 
L 149.072341 227.218949 
L 149.072341 226.659767 
L 150.027016 226.659767 
L 150.027016 226.100584 
L 150.269684 226.100584 
L 150.269684 224.423038 
L 153.590257 224.423038 
L 153.590257 223.863855 
L 158.046028 223.863855 
L 158.046028 223.304673 
L 203.726635 223.304673 
L 203.836227 216.594486 
L 203.86619 216.594486 
L 203.977024 214.357757 
L 204.008863 214.357757 
L 204.068139 212.680211 
L 204.137739 212.680211 
L 204.146157 210.443482 
L 204.280276 210.443482 
L 204.313643 209.325117 
L 204.49189 209.325117 
L 204.578275 207.088388 
L 215.483165 207.088388 
L 215.53859 205.970024 
L 215.606809 205.970024 
L 215.700575 202.61493 
L 215.764944 202.61493 
L 215.764944 201.496566 
L 215.918456 201.496566 
L 215.918456 200.937384 
L 222.402443 200.937384 
L 222.449702 198.141472 
L 222.51854 198.141472 
L 222.53083 195.904743 
L 227.323556 195.904743 
L 227.430426 193.668014 
L 227.465722 193.668014 
L 227.474399 191.990468 
L 231.192877 191.990468 
L 231.231707 190.312921 
L 234.271064 190.312921 
L 234.313744 188.076192 
L 236.976344 188.076192 
L 236.976656 186.398645 
L 239.25945 186.398645 
L 239.317022 185.280281 
L 241.244846 185.280281 
L 241.275745 184.161916 
L 243.080119 184.161916 
L 243.094122 183.043552 
L 246.189445 183.043552 
L 246.189445 182.48437 
L 247.587005 182.48437 
L 247.587005 181.925187 
L 250.030317 181.925187 
L 250.030317 181.366005 
L 251.13747 181.366005 
L 251.13747 180.806823 
L 254.086491 180.806823 
L 254.086491 180.247641 
L 257.366482 180.247641 
L 257.366482 179.688458 
L 258.103162 179.688458 
L 258.103162 179.129276 
L 261.347628 179.129276 
L 261.347628 178.570094 
L 270.711171 178.570094 
L 270.711171 178.010912 
L 272.659013 178.010912 
L 272.659013 177.451729 
L 333.429677 177.451729 
L 333.429677 177.451729 
" style="fill:none;stroke:#ff00ff;stroke-linecap:square;stroke-width:1.5;"/>
   </g>
   <g id="line2d_30">
    <defs>
     <path d="M -0 8.485281 
L 5.091169 0 
L 0 -8.485281 
L -5.091169 -0 
z
" id="m6494cfaa95" style="stroke:#ff00ff;stroke-linejoin:miter;stroke-width:1.5;"/>
    </defs>
    <g>
     <use style="fill-opacity:0;stroke:#ff00ff;stroke-linejoin:miter;stroke-width:1.5;" x="101.524628" xlink:href="#m6494cfaa95" y="266.361706"/>
     <use style="fill-opacity:0;stroke:#ff00ff;stroke-linejoin:miter;stroke-width:1.5;" x="145.654238" xlink:href="#m6494cfaa95" y="233.929136"/>
     <use style="fill-opacity:0;stroke:#ff00ff;stroke-linejoin:miter;stroke-width:1.5;" x="204.578275" xlink:href="#m6494cfaa95" y="207.088388"/>
     <use style="fill-opacity:0;stroke:#ff00ff;stroke-linejoin:miter;stroke-width:1.5;" x="272.659013" xlink:href="#m6494cfaa95" y="178.010912"/>
     <use style="fill-opacity:0;stroke:#ff00ff;stroke-linejoin:miter;stroke-width:1.5;" x="272.659013" xlink:href="#m6494cfaa95" y="177.451729"/>
     <use style="fill-opacity:0;stroke:#ff00ff;stroke-linejoin:miter;stroke-width:1.5;" x="333.429677" xlink:href="#m6494cfaa95" y="177.451729"/>
    </g>
   </g>
   <g id="line2d_31">
    <path style="fill:none;stroke:#ff00ff;stroke-linecap:square;stroke-width:1.5;"/>
    <g/>
   </g>
   <g id="line2d_32">
    <path clip-path="url(#p6e971cc3ab)" d="M 203.387011 223.304673 
" style="fill:none;stroke:#ff00ff;stroke-linecap:square;stroke-width:1.5;"/>
    <defs>
     <path d="M -12 12 
L 12 -12 
M -12 -12 
L 12 12 
" id="md3cb68d86f" style="stroke:#ff00ff;stroke-width:3;"/>
    </defs>
    <g clip-path="url(#p6e971cc3ab)">
     <use style="fill:#ff00ff;stroke:#ff00ff;stroke-width:3;" x="203.387011" xlink:href="#md3cb68d86f" y="223.304673"/>
    </g>
   </g>
   <g id="line2d_33">
    <defs>
     <path d="M 0 1.5 
C 0.397805 1.5 0.77937 1.341951 1.06066 1.06066 
C 1.341951 0.77937 1.5 0.397805 1.5 0 
C 1.5 -0.397805 1.341951 -0.77937 1.06066 -1.06066 
C 0.77937 -1.341951 0.397805 -1.5 0 -1.5 
C -0.397805 -1.5 -0.77937 -1.341951 -1.06066 -1.06066 
C -1.341951 -0.77937 -1.5 -0.397805 -1.5 0 
C -1.5 0.397805 -1.341951 0.77937 -1.06066 1.06066 
C -0.77937 1.341951 -0.397805 1.5 0 1.5 
z
" id="m0fad5295b4" style="stroke:#ffa500;"/>
    </defs>
    <g>
     <use style="fill:#ffa500;stroke:#ffa500;" x="277.21752" xlink:href="#m0fad5295b4" y="155.08444"/>
     <use style="fill:#ffa500;stroke:#ffa500;" x="277.21752" xlink:href="#m0fad5295b4" y="155.08444"/>
    </g>
   </g>
   <g id="line2d_34">
    <path d="M 49.144027 294.88 
L 49.144027 272.51271 
L 61.069532 272.51271 
L 61.069532 266.361706 
L 72.995036 266.361706 
L 72.995036 265.802523 
L 76.834191 265.802523 
L 76.834191 263.565795 
L 79.971009 263.565795 
L 79.971009 261.329066 
L 88.759695 261.329066 
L 88.759695 259.651519 
L 90.399494 259.651519 
L 90.399494 258.533154 
L 94.548655 258.533154 
L 94.548655 256.855608 
L 95.735668 256.855608 
L 95.735668 256.296425 
L 107.661173 256.296425 
L 107.661173 255.737243 
L 108.225317 255.737243 
L 108.225317 255.178061 
L 110.313314 255.178061 
L 110.313314 254.059696 
L 111.269386 254.059696 
L 111.269386 252.941332 
L 113.450132 252.941332 
L 113.450132 251.822967 
L 114.637146 251.822967 
L 114.637146 251.263785 
L 116.102274 251.263785 
L 116.102274 250.145421 
L 116.790561 250.145421 
L 116.790561 249.586238 
L 117.452368 249.586238 
L 117.452368 249.027056 
L 119.297513 249.027056 
L 119.297513 248.467874 
L 119.871061 248.467874 
L 119.871061 247.908692 
L 120.426105 247.908692 
L 120.426105 247.34951 
L 124.319792 247.34951 
L 124.319792 246.790327 
L 124.961042 246.790327 
L 124.961042 246.231145 
L 126.752761 246.231145 
L 126.752761 243.994416 
L 127.492869 243.994416 
L 127.492869 242.876052 
L 128.202449 242.876052 
L 128.202449 242.316869 
L 129.214792 242.316869 
L 129.214792 241.757687 
L 129.377872 241.757687 
L 129.377872 241.198505 
L 129.858039 241.198505 
L 129.858039 240.08014 
L 131.223017 240.08014 
L 131.223017 239.520958 
L 131.368207 239.520958 
L 131.368207 238.961776 
L 131.654961 238.961776 
L 131.654961 238.402594 
L 132.756449 238.402594 
L 132.756449 237.284229 
L 136.026124 237.284229 
L 136.136059 235.606682 
L 136.245297 235.606682 
L 136.245297 234.488318 
L 137.198425 234.488318 
L 137.198425 233.929136 
L 137.60566 233.929136 
L 137.70598 232.810771 
L 137.904883 232.810771 
L 137.904883 232.251589 
L 138.295919 232.251589 
L 138.295919 231.692407 
L 138.583472 231.692407 
L 138.583472 231.133225 
L 140.214628 231.133225 
L 140.214628 230.574042 
L 140.89274 230.574042 
L 140.89274 230.01486 
L 141.058173 230.01486 
L 141.058173 228.896496 
L 141.22203 228.896496 
L 141.22203 228.337313 
L 142.250673 228.337313 
L 142.250673 227.778131 
L 142.403606 227.778131 
L 142.403606 227.218949 
L 143.365849 227.218949 
L 143.365849 226.100584 
L 144.81481 226.100584 
L 144.81481 225.541402 
L 145.779822 225.541402 
L 145.779822 223.863855 
L 147.103926 223.863855 
L 147.103926 223.304673 
L 147.951628 223.304673 
L 147.951628 222.186309 
L 148.225161 222.186309 
L 148.225161 221.627126 
L 149.12393 221.627126 
L 149.12393 220.508762 
L 153.269411 220.508762 
L 153.269411 219.94958 
L 155.36319 219.94958 
L 155.36319 218.272033 
L 161.656728 218.272033 
L 161.656728 217.712851 
L 170.514889 217.712851 
L 170.514889 217.153669 
L 203.494412 217.153669 
L 203.494412 216.594486 
L 203.61634 216.594486 
L 203.726635 213.239393 
L 203.773996 213.239393 
L 203.876878 209.884299 
L 203.923827 209.884299 
L 203.981273 208.206753 
L 204.059684 208.206753 
L 204.106138 206.529206 
L 204.29071 206.529206 
L 204.29071 205.970024 
L 204.411286 205.970024 
L 204.411286 205.410841 
L 204.832834 205.410841 
L 204.844959 204.292477 
L 205.761458 204.292477 
L 205.761458 203.733295 
L 215.393676 203.733295 
L 215.429746 202.61493 
L 215.573275 202.61493 
L 215.675836 199.819019 
L 215.729571 199.819019 
L 215.833341 198.141472 
L 216.05061 198.141472 
L 216.05061 197.58229 
L 222.402443 197.58229 
L 222.488865 193.108832 
L 222.531553 193.108832 
L 222.619487 189.753739 
L 222.788325 189.753739 
L 222.788325 189.194556 
L 223.11692 189.194556 
L 223.11692 188.635374 
L 227.324103 188.635374 
L 227.40867 185.839463 
L 227.447811 185.839463 
L 227.447811 185.280281 
L 227.611025 185.280281 
L 227.611025 184.721099 
L 227.863053 184.721099 
L 227.863053 184.161916 
L 231.167961 184.161916 
L 231.276537 181.366005 
L 231.287401 181.366005 
L 231.376223 180.247641 
L 234.289681 180.247641 
L 234.389359 176.892547 
L 234.633194 176.892547 
L 234.633194 176.333365 
L 236.936975 176.333365 
L 236.988512 174.655818 
L 239.279117 174.655818 
L 239.288396 173.537454 
L 239.478879 173.537454 
L 239.478879 172.978271 
L 241.292753 172.978271 
L 241.301008 171.859907 
L 243.063038 171.859907 
L 243.07596 170.741543 
L 243.255424 170.741543 
L 243.255424 170.18236 
L 244.70911 170.18236 
L 244.779054 169.063996 
L 246.193829 169.063996 
L 246.222846 167.386449 
L 246.350375 167.386449 
L 246.350375 166.827267 
L 247.593573 166.827267 
L 247.593573 166.268085 
L 248.857787 166.268085 
L 248.857787 165.708902 
L 250.040398 165.708902 
L 250.078914 164.031356 
L 252.182563 164.031356 
L 252.182563 163.472173 
L 253.174124 163.472173 
L 253.174124 162.912991 
L 254.974514 162.912991 
L 254.978241 161.794627 
L 255.817899 161.794627 
L 255.88843 160.676262 
L 258.109011 160.676262 
L 258.109011 160.11708 
L 259.482754 160.11708 
L 259.482754 159.557898 
L 260.128537 159.557898 
L 260.128537 158.998715 
L 260.754873 158.998715 
L 260.754873 158.439533 
L 261.35285 158.439533 
L 261.35285 157.880351 
L 263.045836 157.880351 
L 263.045836 157.321169 
L 265.581047 157.321169 
L 265.581047 156.761987 
L 271.051728 156.761987 
L 271.051728 156.202804 
L 276.981161 156.202804 
L 276.981161 155.643622 
L 277.21752 155.643622 
L 277.21752 155.08444 
L 333.429677 155.08444 
L 333.429677 155.08444 
" style="fill:none;stroke:#ffa500;stroke-linecap:square;stroke-width:1.5;"/>
   </g>
   <g id="line2d_35">
    <defs>
     <path d="M 0 -6 
L -1.347084 -1.854102 
L -5.706339 -1.854102 
L -2.179628 0.708204 
L -3.526712 4.854102 
L -0 2.291796 
L 3.526712 4.854102 
L 2.179628 0.708204 
L 5.706339 -1.854102 
L 1.347084 -1.854102 
z
" id="mebdc0bfb94" style="stroke:#ffa500;stroke-linejoin:bevel;stroke-width:1.5;"/>
    </defs>
    <g>
     <use style="fill-opacity:0;stroke:#ffa500;stroke-linejoin:bevel;stroke-width:1.5;" x="95.735668" xlink:href="#mebdc0bfb94" y="256.296425"/>
     <use style="fill-opacity:0;stroke:#ffa500;stroke-linejoin:bevel;stroke-width:1.5;" x="170.514889" xlink:href="#mebdc0bfb94" y="217.712851"/>
     <use style="fill-opacity:0;stroke:#ffa500;stroke-linejoin:bevel;stroke-width:1.5;" x="231.376223" xlink:href="#mebdc0bfb94" y="180.247641"/>
     <use style="fill-opacity:0;stroke:#ffa500;stroke-linejoin:bevel;stroke-width:1.5;" x="277.21752" xlink:href="#mebdc0bfb94" y="155.643622"/>
     <use style="fill-opacity:0;stroke:#ffa500;stroke-linejoin:bevel;stroke-width:1.5;" x="277.21752" xlink:href="#mebdc0bfb94" y="155.08444"/>
     <use style="fill-opacity:0;stroke:#ffa500;stroke-linejoin:bevel;stroke-width:1.5;" x="333.429677" xlink:href="#mebdc0bfb94" y="155.08444"/>
    </g>
   </g>
   <g id="line2d_36">
    <path style="fill:none;stroke:#ffa500;stroke-linecap:square;stroke-width:1.5;"/>
    <g/>
   </g>
   <g id="line2d_37">
    <path clip-path="url(#p6e971cc3ab)" d="M 203.387011 217.153669 
" style="fill:none;stroke:#ffa500;stroke-linecap:square;stroke-width:1.5;"/>
    <defs>
     <path d="M -12 12 
L 12 -12 
M -12 -12 
L 12 12 
" id="ma4aa2687ea" style="stroke:#ffa500;stroke-width:3;"/>
    </defs>
    <g clip-path="url(#p6e971cc3ab)">
     <use style="fill:#ffa500;stroke:#ffa500;stroke-width:3;" x="203.387011" xlink:href="#ma4aa2687ea" y="217.153669"/>
    </g>
   </g>
   <g id="line2d_38">
    <defs>
     <path d="M 0 1.5 
C 0.397805 1.5 0.77937 1.341951 1.06066 1.06066 
C 1.341951 0.77937 1.5 0.397805 1.5 0 
C 1.5 -0.397805 1.341951 -0.77937 1.06066 -1.06066 
C 0.77937 -1.341951 0.397805 -1.5 0 -1.5 
C -0.397805 -1.5 -0.77937 -1.341951 -1.06066 -1.06066 
C -1.341951 -0.77937 -1.5 -0.397805 -1.5 0 
C -1.5 0.397805 -1.341951 0.77937 -1.06066 1.06066 
C -0.77937 1.341951 -0.397805 1.5 0 1.5 
z
" id="m6e51aa7774" style="stroke:#6495ed;"/>
    </defs>
    <g>
     <use style="fill:#6495ed;stroke:#6495ed;" x="252.178952" xlink:href="#m6e51aa7774" y="205.410841"/>
     <use style="fill:#6495ed;stroke:#6495ed;" x="252.178952" xlink:href="#m6e51aa7774" y="205.410841"/>
    </g>
   </g>
   <g id="line2d_39">
    <path d="M 49.144027 294.88 
L 49.144027 284.81472 
L 61.069532 284.81472 
L 61.069532 284.255537 
L 68.045504 284.255537 
L 68.045504 282.577991 
L 72.995036 282.577991 
L 72.995036 281.459626 
L 76.834191 281.459626 
L 76.834191 280.900444 
L 82.623151 280.900444 
L 82.623151 277.545351 
L 86.946982 277.545351 
L 86.946982 275.308622 
L 93.273637 275.308622 
L 93.273637 274.190257 
L 98.872486 274.190257 
L 98.872486 273.631075 
L 101.524628 273.631075 
L 101.524628 272.51271 
L 102.324999 272.51271 
L 102.324999 271.953528 
L 108.771549 271.953528 
L 108.771549 270.835164 
L 111.72821 270.835164 
L 111.72821 269.716799 
L 113.854971 269.716799 
L 113.854971 269.157617 
L 117.452368 269.157617 
L 117.452368 266.361706 
L 118.089658 266.361706 
L 118.089658 265.243341 
L 120.697054 265.243341 
L 120.697054 264.684159 
L 121.740092 264.684159 
L 121.740092 264.124977 
L 121.991263 264.124977 
L 121.991263 263.565795 
L 122.960807 263.565795 
L 122.960807 260.769883 
L 123.653714 260.769883 
L 123.653714 259.651519 
L 125.169588 259.651519 
L 125.169588 258.533154 
L 125.579247 258.533154 
L 125.579247 257.973972 
L 125.979378 257.973972 
L 125.979378 257.41479 
L 128.375364 257.41479 
L 128.375364 256.855608 
L 128.883919 256.855608 
L 128.883919 255.737243 
L 129.214792 255.737243 
L 129.214792 255.178061 
L 129.539422 255.178061 
L 129.539422 254.618879 
L 132.214518 254.618879 
L 132.214518 252.941332 
L 132.622558 252.941332 
L 132.622558 252.38215 
L 133.15198 252.38215 
L 133.15198 251.263785 
L 136.136059 251.263785 
L 136.136059 250.704603 
L 136.675441 250.704603 
L 136.675441 249.027056 
L 137.095092 249.027056 
L 137.095092 248.467874 
L 137.301141 248.467874 
L 137.301141 247.908692 
L 137.504752 247.908692 
L 137.504752 246.231145 
L 137.805719 246.231145 
L 137.805719 245.112781 
L 138.772539 245.112781 
L 138.772539 244.553598 
L 139.23631 244.553598 
L 139.23631 243.994416 
L 139.508688 243.994416 
L 139.508688 242.876052 
L 140.89274 242.876052 
L 140.89274 240.639323 
L 141.545135 240.639323 
L 141.624972 239.520958 
L 141.783544 239.520958 
L 141.783544 238.961776 
L 141.940667 238.961776 
L 141.940667 237.284229 
L 142.250673 237.284229 
L 142.250673 236.165865 
L 143.365849 236.165865 
L 143.365849 235.606682 
L 145.842271 235.606682 
L 145.842271 235.0475 
L 146.028272 235.0475 
L 146.028272 233.929136 
L 147.276841 233.929136 
L 147.276841 232.810771 
L 147.673676 232.810771 
L 147.673676 232.251589 
L 148.706822 232.251589 
L 148.706822 231.692407 
L 150.556439 231.692407 
L 150.556439 230.574042 
L 151.298542 230.574042 
L 151.298542 229.455678 
L 152.983677 229.455678 
L 152.983677 228.896496 
L 153.944198 228.896496 
L 153.944198 228.337313 
L 155.398997 228.337313 
L 155.398997 227.778131 
L 157.548203 227.778131 
L 157.548203 226.659767 
L 203.581591 226.659767 
L 203.581591 226.100584 
L 203.700747 226.100584 
L 203.756789 224.423038 
L 203.836227 224.423038 
L 203.947254 222.186309 
L 203.949382 222.186309 
L 204.034292 221.067944 
L 204.076591 221.067944 
L 204.076591 220.508762 
L 204.257298 220.508762 
L 204.257298 219.390397 
L 204.413357 219.390397 
L 204.413357 218.831215 
L 215.53859 218.831215 
L 215.56461 217.153669 
L 215.766015 217.153669 
L 215.766015 216.594486 
L 215.901466 216.594486 
L 215.901466 216.035304 
L 222.485967 216.035304 
L 222.552496 213.798575 
L 222.609419 213.798575 
L 222.609419 212.680211 
L 227.389066 212.680211 
L 227.459754 211.002664 
L 231.151769 211.002664 
L 231.260012 208.206753 
L 234.346503 208.206753 
L 234.346503 207.64757 
L 236.99693 207.64757 
L 236.99693 207.088388 
L 241.265776 207.088388 
L 241.265776 206.529206 
L 246.189993 206.529206 
L 246.189993 205.970024 
L 252.178952 205.970024 
L 252.178952 205.410841 
L 333.429677 205.410841 
L 333.429677 205.410841 
" style="fill:none;stroke:#6495ed;stroke-linecap:square;stroke-width:1.5;"/>
   </g>
   <g id="line2d_40">
    <defs>
     <path d="M -0 6 
L 6 -6 
L -6 -6 
z
" id="mf50e344a88" style="stroke:#6495ed;stroke-linejoin:miter;stroke-width:1.5;"/>
    </defs>
    <g>
     <use style="fill-opacity:0;stroke:#6495ed;stroke-linejoin:miter;stroke-width:1.5;" x="111.72821" xlink:href="#mf50e344a88" y="269.716799"/>
     <use style="fill-opacity:0;stroke:#6495ed;stroke-linejoin:miter;stroke-width:1.5;" x="157.548203" xlink:href="#mf50e344a88" y="227.778131"/>
     <use style="fill-opacity:0;stroke:#6495ed;stroke-linejoin:miter;stroke-width:1.5;" x="231.260012" xlink:href="#mf50e344a88" y="208.206753"/>
     <use style="fill-opacity:0;stroke:#6495ed;stroke-linejoin:miter;stroke-width:1.5;" x="252.178952" xlink:href="#mf50e344a88" y="205.410841"/>
     <use style="fill-opacity:0;stroke:#6495ed;stroke-linejoin:miter;stroke-width:1.5;" x="252.178952" xlink:href="#mf50e344a88" y="205.410841"/>
     <use style="fill-opacity:0;stroke:#6495ed;stroke-linejoin:miter;stroke-width:1.5;" x="333.429677" xlink:href="#mf50e344a88" y="205.410841"/>
    </g>
   </g>
   <g id="line2d_41">
    <path style="fill:none;stroke:#6495ed;stroke-linecap:square;stroke-width:1.5;"/>
    <g/>
   </g>
   <g id="line2d_42">
    <path clip-path="url(#p6e971cc3ab)" d="M 203.387011 226.659767 
" style="fill:none;stroke:#6495ed;stroke-linecap:square;stroke-width:1.5;"/>
    <defs>
     <path d="M -12 12 
L 12 -12 
M -12 -12 
L 12 12 
" id="m4efa728dc2" style="stroke:#6495ed;stroke-width:3;"/>
    </defs>
    <g clip-path="url(#p6e971cc3ab)">
     <use style="fill:#6495ed;stroke:#6495ed;stroke-width:3;" x="203.387011" xlink:href="#m4efa728dc2" y="226.659767"/>
    </g>
   </g>
   <g id="line2d_43">
    <defs>
     <path d="M 0 1.5 
C 0.397805 1.5 0.77937 1.341951 1.06066 1.06066 
C 1.341951 0.77937 1.5 0.397805 1.5 0 
C 1.5 -0.397805 1.341951 -0.77937 1.06066 -1.06066 
C 0.77937 -1.341951 0.397805 -1.5 0 -1.5 
C -0.397805 -1.5 -0.77937 -1.341951 -1.06066 -1.06066 
C -1.341951 -0.77937 -1.5 -0.397805 -1.5 0 
C -1.5 0.397805 -1.341951 0.77937 -1.06066 1.06066 
C -0.77937 1.341951 -0.397805 1.5 0 1.5 
z
" id="m5f3632a9d2" style="stroke:#ff0000;"/>
    </defs>
    <g>
     <use style="fill:#ff0000;stroke:#ff0000;" x="274.400613" xlink:href="#m5f3632a9d2" y="194.227197"/>
     <use style="fill:#ff0000;stroke:#ff0000;" x="274.400613" xlink:href="#m5f3632a9d2" y="194.227197"/>
    </g>
   </g>
   <g id="line2d_44">
    <path d="M 49.144027 294.88 
L 49.144027 276.426986 
L 61.069532 276.426986 
L 61.069532 269.157617 
L 68.045504 269.157617 
L 68.045504 267.48007 
L 72.995036 267.48007 
L 72.995036 264.124977 
L 76.834191 264.124977 
L 76.834191 263.006612 
L 79.971009 263.006612 
L 79.971009 260.210701 
L 86.946982 260.210701 
L 86.946982 259.651519 
L 88.759695 259.651519 
L 88.759695 259.092337 
L 90.399494 259.092337 
L 90.399494 256.855608 
L 91.896513 256.855608 
L 91.896513 256.296425 
L 93.273637 256.296425 
L 93.273637 255.737243 
L 102.324999 255.737243 
L 102.324999 255.178061 
L 103.089785 255.178061 
L 103.089785 254.059696 
L 104.524355 254.059696 
L 104.524355 252.941332 
L 105.848459 252.941332 
L 105.848459 252.38215 
L 107.661173 252.38215 
L 107.661173 247.908692 
L 109.814588 247.908692 
L 109.814588 247.34951 
L 111.72821 247.34951 
L 111.72821 246.790327 
L 116.449859 246.790327 
L 116.449859 246.231145 
L 118.704183 246.231145 
L 118.704183 245.671963 
L 119.297513 245.671963 
L 119.297513 245.112781 
L 123.194891 245.112781 
L 123.194891 242.316869 
L 124.749936 242.316869 
L 124.749936 241.757687 
L 127.492869 241.757687 
L 127.492869 240.08014 
L 129.699468 240.08014 
L 129.699468 239.520958 
L 130.170864 239.520958 
L 130.170864 238.402594 
L 130.92891 238.402594 
L 130.92891 237.843411 
L 131.368207 237.843411 
L 131.368207 236.725047 
L 132.214518 236.725047 
L 132.214518 236.165865 
L 132.622558 236.165865 
L 132.622558 235.606682 
L 134.408368 235.606682 
L 134.408368 235.0475 
L 136.781317 235.0475 
L 136.781317 234.488318 
L 136.991135 234.488318 
L 136.991135 233.929136 
L 137.198425 233.929136 
L 137.198425 232.810771 
L 139.14455 232.810771 
L 139.14455 232.251589 
L 139.598531 232.251589 
L 139.598531 230.01486 
L 141.140296 230.01486 
L 141.140296 229.455678 
L 142.018694 229.455678 
L 142.018694 228.337313 
L 144.00183 228.337313 
L 144.00183 226.659767 
L 146.394347 226.659767 
L 146.394347 226.100584 
L 151.253087 226.100584 
L 151.298542 224.98222 
L 152.901159 224.98222 
L 152.901159 223.304673 
L 153.106716 223.304673 
L 153.106716 221.627126 
L 155.219216 221.627126 
L 155.219216 221.067944 
L 156.740314 221.067944 
L 156.740314 220.508762 
L 203.726635 220.508762 
L 203.804067 219.390397 
L 203.86619 219.390397 
L 203.86619 218.831215 
L 204.200769 218.831215 
L 204.200769 218.272033 
L 204.402997 218.272033 
L 204.493952 215.476122 
L 215.45266 215.476122 
L 215.522307 214.357757 
L 215.723132 214.357757 
L 215.763874 213.239393 
L 222.407539 213.239393 
L 222.51854 210.443482 
L 227.343235 210.443482 
L 227.373802 209.325117 
L 231.161399 209.325117 
L 231.161399 208.206753 
L 234.284208 208.206753 
L 234.329403 206.529206 
L 236.917257 206.529206 
L 236.926337 204.851659 
L 243.044843 204.851659 
L 243.044843 203.733295 
L 244.705525 203.733295 
L 244.705525 202.61493 
L 246.174641 202.61493 
L 246.174641 202.055748 
L 247.569984 202.055748 
L 247.569984 201.496566 
L 248.821766 201.496566 
L 248.841196 200.378201 
L 252.156882 200.378201 
L 252.172889 199.259837 
L 254.949278 199.259837 
L 254.962888 197.023108 
L 266.864239 197.023108 
L 266.864239 196.463926 
L 267.703165 196.463926 
L 267.703165 195.904743 
L 269.267448 195.904743 
L 269.267448 195.345561 
L 269.999299 195.345561 
L 269.999299 194.786379 
L 274.400613 194.786379 
L 274.400613 194.227197 
L 333.429677 194.227197 
L 333.429677 194.227197 
" style="fill:none;stroke:#ff0000;stroke-linecap:square;stroke-width:1.5;"/>
   </g>
   <g id="line2d_45">
    <defs>
     <path d="M 0 -6 
L -5.196152 -3 
L -5.196152 3 
L -0 6 
L 5.196152 3 
L 5.196152 -3 
z
" id="mf4c166fdf0" style="stroke:#ff0000;stroke-linejoin:miter;stroke-width:1.5;"/>
    </defs>
    <g>
     <use style="fill-opacity:0;stroke:#ff0000;stroke-linejoin:miter;stroke-width:1.5;" x="107.661173" xlink:href="#mf4c166fdf0" y="247.908692"/>
     <use style="fill-opacity:0;stroke:#ff0000;stroke-linejoin:miter;stroke-width:1.5;" x="156.740314" xlink:href="#mf4c166fdf0" y="221.067944"/>
     <use style="fill-opacity:0;stroke:#ff0000;stroke-linejoin:miter;stroke-width:1.5;" x="254.962888" xlink:href="#mf4c166fdf0" y="198.141472"/>
     <use style="fill-opacity:0;stroke:#ff0000;stroke-linejoin:miter;stroke-width:1.5;" x="274.400613" xlink:href="#mf4c166fdf0" y="194.227197"/>
     <use style="fill-opacity:0;stroke:#ff0000;stroke-linejoin:miter;stroke-width:1.5;" x="274.400613" xlink:href="#mf4c166fdf0" y="194.227197"/>
     <use style="fill-opacity:0;stroke:#ff0000;stroke-linejoin:miter;stroke-width:1.5;" x="333.429677" xlink:href="#mf4c166fdf0" y="194.227197"/>
    </g>
   </g>
   <g id="line2d_46">
    <path style="fill:none;stroke:#ff0000;stroke-linecap:square;stroke-width:1.5;"/>
    <g/>
   </g>
   <g id="line2d_47">
    <path clip-path="url(#p6e971cc3ab)" d="M 203.387011 220.508762 
" style="fill:none;stroke:#ff0000;stroke-linecap:square;stroke-width:1.5;"/>
    <defs>
     <path d="M -12 12 
L 12 -12 
M -12 -12 
L 12 12 
" id="m5461e94f0c" style="stroke:#ff0000;stroke-width:3;"/>
    </defs>
    <g clip-path="url(#p6e971cc3ab)">
     <use style="fill:#ff0000;stroke:#ff0000;stroke-width:3;" x="203.387011" xlink:href="#m5461e94f0c" y="220.508762"/>
    </g>
   </g>
   <g id="line2d_48">
    <path d="M 333.429677 205.410841 
L 363.933742 289.176341 
" style="fill:none;stroke:#6495ed;stroke-linecap:square;stroke-width:1.5;"/>
    <g>
     <use style="fill-opacity:0;stroke:#6495ed;stroke-linejoin:miter;stroke-width:1.5;" x="333.429677" xlink:href="#mf50e344a88" y="205.410841"/>
     <use style="fill-opacity:0;stroke:#6495ed;stroke-linejoin:miter;stroke-width:1.5;" x="363.933742" xlink:href="#mf50e344a88" y="289.176341"/>
    </g>
   </g>
   <g id="line2d_49">
    <path d="M 333.429677 194.227197 
L 363.933742 220.732435 
" style="fill:none;stroke:#ff0000;stroke-linecap:square;stroke-width:1.5;"/>
    <g>
     <use style="fill-opacity:0;stroke:#ff0000;stroke-linejoin:miter;stroke-width:1.5;" x="333.429677" xlink:href="#mf4c166fdf0" y="194.227197"/>
     <use style="fill-opacity:0;stroke:#ff0000;stroke-linejoin:miter;stroke-width:1.5;" x="363.933742" xlink:href="#mf4c166fdf0" y="220.732435"/>
    </g>
   </g>
   <g id="line2d_50">
    <path d="M 333.429677 177.451729 
L 363.933742 152.288529 
" style="fill:none;stroke:#ff00ff;stroke-linecap:square;stroke-width:1.5;"/>
    <g>
     <use style="fill-opacity:0;stroke:#ff00ff;stroke-linejoin:miter;stroke-width:1.5;" x="333.429677" xlink:href="#m6494cfaa95" y="177.451729"/>
     <use style="fill-opacity:0;stroke:#ff00ff;stroke-linejoin:miter;stroke-width:1.5;" x="363.933742" xlink:href="#m6494cfaa95" y="152.288529"/>
    </g>
   </g>
   <g id="line2d_51">
    <path d="M 333.429677 155.08444 
L 363.933742 83.844622 
" style="fill:none;stroke:#ffa500;stroke-linecap:square;stroke-width:1.5;"/>
    <g>
     <use style="fill-opacity:0;stroke:#ffa500;stroke-linejoin:bevel;stroke-width:1.5;" x="333.429677" xlink:href="#mebdc0bfb94" y="155.08444"/>
     <use style="fill-opacity:0;stroke:#ffa500;stroke-linejoin:bevel;stroke-width:1.5;" x="363.933742" xlink:href="#mebdc0bfb94" y="83.844622"/>
    </g>
   </g>
   <g id="line2d_52">
    <path d="M 333.429677 9.697057 
L 363.933742 15.400716 
" style="fill:none;stroke:#000080;stroke-linecap:square;stroke-width:1.5;"/>
    <g>
     <use style="fill-opacity:0;stroke:#000080;stroke-width:1.5;" x="333.429677" xlink:href="#mdc1b1849f8" y="9.697057"/>
     <use style="fill-opacity:0;stroke:#000080;stroke-width:1.5;" x="363.933742" xlink:href="#mdc1b1849f8" y="15.400716"/>
    </g>
   </g>
   <g id="line2d_53">
    <path d="M 333.429677 294.88 
L 333.429677 9.697057 
" style="fill:none;stroke:#000000;stroke-linecap:square;stroke-width:1.5;"/>
   </g>
   <g id="patch_3">
    <path d="M 56.12 294.88 
L 56.12 6.845228 
" style="fill:none;stroke:#000000;stroke-linecap:square;stroke-linejoin:miter;stroke-width:0.8;"/>
   </g>
   <g id="patch_4">
    <path d="M 399.984 294.88 
L 399.984 6.845228 
" style="fill:none;stroke:#000000;stroke-linecap:square;stroke-linejoin:miter;stroke-width:0.8;"/>
   </g>
   <g id="patch_5">
    <path d="M 56.12 294.88 
L 399.984 294.88 
" style="fill:none;stroke:#000000;stroke-linecap:square;stroke-linejoin:miter;stroke-width:0.8;"/>
   </g>
   <g id="patch_6">
    <path d="M 56.12 6.845228 
L 399.984 6.845228 
" style="fill:none;stroke:#000000;stroke-linecap:square;stroke-linejoin:miter;stroke-width:0.8;"/>
   </g>
   <g id="text_14">
    <!-- f18 -->
    <g transform="translate(369.479935 293.867279)scale(0.17 -0.17)">
     <use xlink:href="#DejaVuSans-66"/>
     <use x="35.205078" xlink:href="#DejaVuSans-31"/>
     <use x="98.828125" xlink:href="#DejaVuSans-38"/>
    </g>
   </g>
   <g id="text_15">
    <!-- f19 -->
    <defs>
     <path d="M 10.984375 1.515625 
L 10.984375 10.5 
Q 14.703125 8.734375 18.5 7.8125 
Q 22.3125 6.890625 25.984375 6.890625 
Q 35.75 6.890625 40.890625 13.453125 
Q 46.046875 20.015625 46.78125 33.40625 
Q 43.953125 29.203125 39.59375 26.953125 
Q 35.25 24.703125 29.984375 24.703125 
Q 19.046875 24.703125 12.671875 31.3125 
Q 6.296875 37.9375 6.296875 49.421875 
Q 6.296875 60.640625 12.9375 67.421875 
Q 19.578125 74.21875 30.609375 74.21875 
Q 43.265625 74.21875 49.921875 64.515625 
Q 56.59375 54.828125 56.59375 36.375 
Q 56.59375 19.140625 48.40625 8.859375 
Q 40.234375 -1.421875 26.421875 -1.421875 
Q 22.703125 -1.421875 18.890625 -0.6875 
Q 15.09375 0.046875 10.984375 1.515625 
z
M 30.609375 32.421875 
Q 37.25 32.421875 41.125 36.953125 
Q 45.015625 41.5 45.015625 49.421875 
Q 45.015625 57.28125 41.125 61.84375 
Q 37.25 66.40625 30.609375 66.40625 
Q 23.96875 66.40625 20.09375 61.84375 
Q 16.21875 57.28125 16.21875 49.421875 
Q 16.21875 41.5 20.09375 36.953125 
Q 23.96875 32.421875 30.609375 32.421875 
z
" id="DejaVuSans-39"/>
    </defs>
    <g transform="translate(369.479935 225.423372)scale(0.17 -0.17)">
     <use xlink:href="#DejaVuSans-66"/>
     <use x="35.205078" xlink:href="#DejaVuSans-31"/>
     <use x="98.828125" xlink:href="#DejaVuSans-39"/>
    </g>
   </g>
   <g id="text_16">
    <!-- f16 -->
    <g transform="translate(369.479935 156.979466)scale(0.17 -0.17)">
     <use xlink:href="#DejaVuSans-66"/>
     <use x="35.205078" xlink:href="#DejaVuSans-31"/>
     <use x="98.828125" xlink:href="#DejaVuSans-36"/>
    </g>
   </g>
   <g id="text_17">
    <!-- f17 -->
    <defs>
     <path d="M 8.203125 72.90625 
L 55.078125 72.90625 
L 55.078125 68.703125 
L 28.609375 0 
L 18.3125 0 
L 43.21875 64.59375 
L 8.203125 64.59375 
z
" id="DejaVuSans-37"/>
    </defs>
    <g transform="translate(369.479935 88.53556)scale(0.17 -0.17)">
     <use xlink:href="#DejaVuSans-66"/>
     <use x="35.205078" xlink:href="#DejaVuSans-31"/>
     <use x="98.828125" xlink:href="#DejaVuSans-37"/>
    </g>
   </g>
   <g id="text_18">
    <!-- f15 -->
    <defs>
     <path d="M 10.796875 72.90625 
L 49.515625 72.90625 
L 49.515625 64.59375 
L 19.828125 64.59375 
L 19.828125 46.734375 
Q 21.96875 47.46875 24.109375 47.828125 
Q 26.265625 48.1875 28.421875 48.1875 
Q 40.625 48.1875 47.75 41.5 
Q 54.890625 34.8125 54.890625 23.390625 
Q 54.890625 11.625 47.5625 5.09375 
Q 40.234375 -1.421875 26.90625 -1.421875 
Q 22.3125 -1.421875 17.546875 -0.640625 
Q 12.796875 0.140625 7.71875 1.703125 
L 7.71875 11.625 
Q 12.109375 9.234375 16.796875 8.0625 
Q 21.484375 6.890625 26.703125 6.890625 
Q 35.15625 6.890625 40.078125 11.328125 
Q 45.015625 15.765625 45.015625 23.390625 
Q 45.015625 31 40.078125 35.4375 
Q 35.15625 39.890625 26.703125 39.890625 
Q 22.75 39.890625 18.8125 39.015625 
Q 14.890625 38.140625 10.796875 36.28125 
z
" id="DejaVuSans-35"/>
    </defs>
    <g transform="translate(369.479935 20.091654)scale(0.17 -0.17)">
     <use xlink:href="#DejaVuSans-66"/>
     <use x="35.205078" xlink:href="#DejaVuSans-31"/>
     <use x="98.828125" xlink:href="#DejaVuSans-35"/>
    </g>
   </g>
   <g id="text_19">
    <!-- bbob -->
    <defs>
     <path d="M 48.6875 27.296875 
Q 48.6875 37.203125 44.609375 42.84375 
Q 40.53125 48.484375 33.40625 48.484375 
Q 26.265625 48.484375 22.1875 42.84375 
Q 18.109375 37.203125 18.109375 27.296875 
Q 18.109375 17.390625 22.1875 11.75 
Q 26.265625 6.109375 33.40625 6.109375 
Q 40.53125 6.109375 44.609375 11.75 
Q 48.6875 17.390625 48.6875 27.296875 
z
M 18.109375 46.390625 
Q 20.953125 51.265625 25.265625 53.625 
Q 29.59375 56 35.59375 56 
Q 45.5625 56 51.78125 48.09375 
Q 58.015625 40.1875 58.015625 27.296875 
Q 58.015625 14.40625 51.78125 6.484375 
Q 45.5625 -1.421875 35.59375 -1.421875 
Q 29.59375 -1.421875 25.265625 0.953125 
Q 20.953125 3.328125 18.109375 8.203125 
L 18.109375 0 
L 9.078125 0 
L 9.078125 75.984375 
L 18.109375 75.984375 
z
" id="DejaVuSans-62"/>
    </defs>
    <g transform="translate(59.55864 17.475982)scale(0.102 -0.102)">
     <use xlink:href="#DejaVuSans-62"/>
     <use x="63.476562" xlink:href="#DejaVuSans-62"/>
     <use x="126.953125" xlink:href="#DejaVuSans-6f"/>
     <use x="188.134766" xlink:href="#DejaVuSans-62"/>
    </g>
    <!-- Multi-modal functions, 3-D -->
    <defs>
     <path d="M 9.8125 72.90625 
L 24.515625 72.90625 
L 43.109375 23.296875 
L 61.8125 72.90625 
L 76.515625 72.90625 
L 76.515625 0 
L 66.890625 0 
L 66.890625 64.015625 
L 48.09375 14.015625 
L 38.1875 14.015625 
L 19.390625 64.015625 
L 19.390625 0 
L 9.8125 0 
z
" id="DejaVuSans-4d"/>
     <path d="M 40.578125 39.3125 
Q 47.65625 37.796875 51.625 33 
Q 55.609375 28.21875 55.609375 21.1875 
Q 55.609375 10.40625 48.1875 4.484375 
Q 40.765625 -1.421875 27.09375 -1.421875 
Q 22.515625 -1.421875 17.65625 -0.515625 
Q 12.796875 0.390625 7.625 2.203125 
L 7.625 11.71875 
Q 11.71875 9.328125 16.59375 8.109375 
Q 21.484375 6.890625 26.8125 6.890625 
Q 36.078125 6.890625 40.9375 10.546875 
Q 45.796875 14.203125 45.796875 21.1875 
Q 45.796875 27.640625 41.28125 31.265625 
Q 36.765625 34.90625 28.71875 34.90625 
L 20.21875 34.90625 
L 20.21875 43.015625 
L 29.109375 43.015625 
Q 36.375 43.015625 40.234375 45.921875 
Q 44.09375 48.828125 44.09375 54.296875 
Q 44.09375 59.90625 40.109375 62.90625 
Q 36.140625 65.921875 28.71875 65.921875 
Q 24.65625 65.921875 20.015625 65.03125 
Q 15.375 64.15625 9.8125 62.3125 
L 9.8125 71.09375 
Q 15.4375 72.65625 20.34375 73.4375 
Q 25.25 74.21875 29.59375 74.21875 
Q 40.828125 74.21875 47.359375 69.109375 
Q 53.90625 64.015625 53.90625 55.328125 
Q 53.90625 49.265625 50.4375 45.09375 
Q 46.96875 40.921875 40.578125 39.3125 
z
" id="DejaVuSans-33"/>
     <path d="M 19.671875 64.796875 
L 19.671875 8.109375 
L 31.59375 8.109375 
Q 46.6875 8.109375 53.6875 14.9375 
Q 60.6875 21.78125 60.6875 36.53125 
Q 60.6875 51.171875 53.6875 57.984375 
Q 46.6875 64.796875 31.59375 64.796875 
z
M 9.8125 72.90625 
L 30.078125 72.90625 
Q 51.265625 72.90625 61.171875 64.09375 
Q 71.09375 55.28125 71.09375 36.53125 
Q 71.09375 17.671875 61.125 8.828125 
Q 51.171875 0 30.078125 0 
L 9.8125 0 
z
" id="DejaVuSans-44"/>
    </defs>
    <g transform="translate(59.55864 28.89775)scale(0.102 -0.102)">
     <use xlink:href="#DejaVuSans-4d"/>
     <use x="86.279297" xlink:href="#DejaVuSans-75"/>
     <use x="149.658203" xlink:href="#DejaVuSans-6c"/>
     <use x="177.441406" xlink:href="#DejaVuSans-74"/>
     <use x="216.650391" xlink:href="#DejaVuSans-69"/>
     <use x="244.433594" xlink:href="#DejaVuSans-2d"/>
     <use x="280.517578" xlink:href="#DejaVuSans-6d"/>
     <use x="377.929688" xlink:href="#DejaVuSans-6f"/>
     <use x="439.111328" xlink:href="#DejaVuSans-64"/>
     <use x="502.587891" xlink:href="#DejaVuSans-61"/>
     <use x="563.867188" xlink:href="#DejaVuSans-6c"/>
     <use x="591.650391" xlink:href="#DejaVuSans-20"/>
     <use x="623.4375" xlink:href="#DejaVuSans-66"/>
     <use x="658.642578" xlink:href="#DejaVuSans-75"/>
     <use x="722.021484" xlink:href="#DejaVuSans-6e"/>
     <use x="785.400391" xlink:href="#DejaVuSans-63"/>
     <use x="840.380859" xlink:href="#DejaVuSans-74"/>
     <use x="879.589844" xlink:href="#DejaVuSans-69"/>
     <use x="907.373047" xlink:href="#DejaVuSans-6f"/>
     <use x="968.554688" xlink:href="#DejaVuSans-6e"/>
     <use x="1031.933594" xlink:href="#DejaVuSans-73"/>
     <use x="1084.033203" xlink:href="#DejaVuSans-2c"/>
     <use x="1115.820312" xlink:href="#DejaVuSans-20"/>
     <use x="1147.607422" xlink:href="#DejaVuSans-33"/>
     <use x="1211.230469" xlink:href="#DejaVuSans-2d"/>
     <use x="1247.314453" xlink:href="#DejaVuSans-44"/>
    </g>
    <!-- 51 targets: 100..1e-08 -->
    <defs>
     <path d="M 11.71875 12.40625 
L 22.015625 12.40625 
L 22.015625 0 
L 11.71875 0 
z
M 11.71875 51.703125 
L 22.015625 51.703125 
L 22.015625 39.3125 
L 11.71875 39.3125 
z
" id="DejaVuSans-3a"/>
    </defs>
    <g transform="translate(59.55864 40.319519)scale(0.102 -0.102)">
     <use xlink:href="#DejaVuSans-35"/>
     <use x="63.623047" xlink:href="#DejaVuSans-31"/>
     <use x="127.246094" xlink:href="#DejaVuSans-20"/>
     <use x="159.033203" xlink:href="#DejaVuSans-74"/>
     <use x="198.242188" xlink:href="#DejaVuSans-61"/>
     <use x="259.521484" xlink:href="#DejaVuSans-72"/>
     <use x="300.619141" xlink:href="#DejaVuSans-67"/>
     <use x="364.095703" xlink:href="#DejaVuSans-65"/>
     <use x="425.619141" xlink:href="#DejaVuSans-74"/>
     <use x="464.828125" xlink:href="#DejaVuSans-73"/>
     <use x="516.927734" xlink:href="#DejaVuSans-3a"/>
     <use x="550.619141" xlink:href="#DejaVuSans-20"/>
     <use x="582.40625" xlink:href="#DejaVuSans-31"/>
     <use x="646.029297" xlink:href="#DejaVuSans-30"/>
     <use x="709.652344" xlink:href="#DejaVuSans-30"/>
     <use x="773.275391" xlink:href="#DejaVuSans-2e"/>
     <use x="805.0625" xlink:href="#DejaVuSans-2e"/>
     <use x="836.849609" xlink:href="#DejaVuSans-31"/>
     <use x="900.472656" xlink:href="#DejaVuSans-65"/>
     <use x="961.996094" xlink:href="#DejaVuSans-2d"/>
     <use x="998.080078" xlink:href="#DejaVuSans-30"/>
     <use x="1061.703125" xlink:href="#DejaVuSans-38"/>
    </g>
    <!-- 15 instances -->
    <g transform="translate(59.55864 51.741288)scale(0.102 -0.102)">
     <use xlink:href="#DejaVuSans-31"/>
     <use x="63.623047" xlink:href="#DejaVuSans-35"/>
     <use x="127.246094" xlink:href="#DejaVuSans-20"/>
     <use x="159.033203" xlink:href="#DejaVuSans-69"/>
     <use x="186.816406" xlink:href="#DejaVuSans-6e"/>
     <use x="250.195312" xlink:href="#DejaVuSans-73"/>
     <use x="302.294922" xlink:href="#DejaVuSans-74"/>
     <use x="341.503906" xlink:href="#DejaVuSans-61"/>
     <use x="402.783203" xlink:href="#DejaVuSans-6e"/>
     <use x="466.162109" xlink:href="#DejaVuSans-63"/>
     <use x="521.142578" xlink:href="#DejaVuSans-65"/>
     <use x="582.666016" xlink:href="#DejaVuSans-73"/>
    </g>
   </g>
   <g id="text_20">
    <!-- v2.2.1.10 -->
    <g style="fill:#808080;" transform="translate(204.419188 289.919965)scale(0.1 -0.1)">
     <use xlink:href="#DejaVuSans-76"/>
     <use x="59.179688" xlink:href="#DejaVuSans-32"/>
     <use x="122.802734" xlink:href="#DejaVuSans-2e"/>
     <use x="154.589844" xlink:href="#DejaVuSans-32"/>
     <use x="218.212891" xlink:href="#DejaVuSans-2e"/>
     <use x="250" xlink:href="#DejaVuSans-31"/>
     <use x="313.623047" xlink:href="#DejaVuSans-2e"/>
     <use x="345.410156" xlink:href="#DejaVuSans-31"/>
     <use x="409.033203" xlink:href="#DejaVuSans-30"/>
    </g>
   </g>
  </g>
 </g>
 <defs>
  <clipPath id="p6e971cc3ab">
   <rect height="288.034772" width="343.864" x="56.12" y="6.845228"/>
  </clipPath>
 </defs>
</svg>
