<?xml version="1.0" encoding="utf-8" standalone="no"?>
<!DOCTYPE svg PUBLIC "-//W3C//DTD SVG 1.1//EN"
  "http://www.w3.org/Graphics/SVG/1.1/DTD/svg11.dtd">
<!-- Created with matplotlib (http://matplotlib.org/) -->
<svg height="345.6pt" version="1.1" viewBox="0 0 460.8 345.6" width="460.8pt" xmlns="http://www.w3.org/2000/svg" xmlns:xlink="http://www.w3.org/1999/xlink">
 <defs>
  <style type="text/css">
*{stroke-linecap:butt;stroke-linejoin:round;}
  </style>
 </defs>
 <g id="figure_1">
  <g id="patch_1">
   <path d="M 0 345.6 
L 460.8 345.6 
L 460.8 0 
L 0 0 
z
" style="fill:#ffffff;"/>
  </g>
  <g id="axes_1">
   <g id="patch_2">
    <path d="M 56.12 294.88 
L 399.984 294.88 
L 399.984 6.845228 
L 56.12 6.845228 
z
" style="fill:#ffffff;"/>
   </g>
   <g id="matplotlib.axis_1">
    <g id="xtick_1">
     <g id="line2d_1">
      <path clip-path="url(#pb48a66f238)" d="M 56.12 294.88 
L 56.12 6.845228 
" style="fill:none;stroke:#b0b0b0;stroke-linecap:square;stroke-width:0.8;"/>
     </g>
     <g id="line2d_2">
      <defs>
       <path d="M 0 0 
L 0 3.5 
" id="mfa4ac35da5" style="stroke:#000000;stroke-width:0.8;"/>
      </defs>
      <g>
       <use style="stroke:#000000;stroke-width:0.8;" x="56.12" xlink:href="#mfa4ac35da5" y="294.88"/>
      </g>
     </g>
     <g id="text_1">
      <!-- 0 -->
      <defs>
       <path d="M 31.78125 66.40625 
Q 24.171875 66.40625 20.328125 58.90625 
Q 16.5 51.421875 16.5 36.375 
Q 16.5 21.390625 20.328125 13.890625 
Q 24.171875 6.390625 31.78125 6.390625 
Q 39.453125 6.390625 43.28125 13.890625 
Q 47.125 21.390625 47.125 36.375 
Q 47.125 51.421875 43.28125 58.90625 
Q 39.453125 66.40625 31.78125 66.40625 
z
M 31.78125 74.21875 
Q 44.046875 74.21875 50.515625 64.515625 
Q 56.984375 54.828125 56.984375 36.375 
Q 56.984375 17.96875 50.515625 8.265625 
Q 44.046875 -1.421875 31.78125 -1.421875 
Q 19.53125 -1.421875 13.0625 8.265625 
Q 6.59375 17.96875 6.59375 36.375 
Q 6.59375 54.828125 13.0625 64.515625 
Q 19.53125 74.21875 31.78125 74.21875 
z
" id="DejaVuSans-30"/>
      </defs>
      <g transform="translate(49.7575 317.076875)scale(0.2 -0.2)">
       <use xlink:href="#DejaVuSans-30"/>
      </g>
     </g>
    </g>
    <g id="xtick_2">
     <g id="line2d_3">
      <path clip-path="url(#pb48a66f238)" d="M 135.351336 294.88 
L 135.351336 6.845228 
" style="fill:none;stroke:#b0b0b0;stroke-linecap:square;stroke-width:0.8;"/>
     </g>
     <g id="line2d_4">
      <g>
       <use style="stroke:#000000;stroke-width:0.8;" x="135.351336" xlink:href="#mfa4ac35da5" y="294.88"/>
      </g>
     </g>
     <g id="text_2">
      <!-- 2 -->
      <defs>
       <path d="M 19.1875 8.296875 
L 53.609375 8.296875 
L 53.609375 0 
L 7.328125 0 
L 7.328125 8.296875 
Q 12.9375 14.109375 22.625 23.890625 
Q 32.328125 33.6875 34.8125 36.53125 
Q 39.546875 41.84375 41.421875 45.53125 
Q 43.3125 49.21875 43.3125 52.78125 
Q 43.3125 58.59375 39.234375 62.25 
Q 35.15625 65.921875 28.609375 65.921875 
Q 23.96875 65.921875 18.8125 64.3125 
Q 13.671875 62.703125 7.8125 59.421875 
L 7.8125 69.390625 
Q 13.765625 71.78125 18.9375 73 
Q 24.125 74.21875 28.421875 74.21875 
Q 39.75 74.21875 46.484375 68.546875 
Q 53.21875 62.890625 53.21875 53.421875 
Q 53.21875 48.921875 51.53125 44.890625 
Q 49.859375 40.875 45.40625 35.40625 
Q 44.1875 33.984375 37.640625 27.21875 
Q 31.109375 20.453125 19.1875 8.296875 
z
" id="DejaVuSans-32"/>
      </defs>
      <g transform="translate(128.988836 317.076875)scale(0.2 -0.2)">
       <use xlink:href="#DejaVuSans-32"/>
      </g>
     </g>
    </g>
    <g id="xtick_3">
     <g id="line2d_5">
      <path clip-path="url(#pb48a66f238)" d="M 214.582673 294.88 
L 214.582673 6.845228 
" style="fill:none;stroke:#b0b0b0;stroke-linecap:square;stroke-width:0.8;"/>
     </g>
     <g id="line2d_6">
      <g>
       <use style="stroke:#000000;stroke-width:0.8;" x="214.582673" xlink:href="#mfa4ac35da5" y="294.88"/>
      </g>
     </g>
     <g id="text_3">
      <!-- 4 -->
      <defs>
       <path d="M 37.796875 64.3125 
L 12.890625 25.390625 
L 37.796875 25.390625 
z
M 35.203125 72.90625 
L 47.609375 72.90625 
L 47.609375 25.390625 
L 58.015625 25.390625 
L 58.015625 17.1875 
L 47.609375 17.1875 
L 47.609375 0 
L 37.796875 0 
L 37.796875 17.1875 
L 4.890625 17.1875 
L 4.890625 26.703125 
z
" id="DejaVuSans-34"/>
      </defs>
      <g transform="translate(208.220173 317.076875)scale(0.2 -0.2)">
       <use xlink:href="#DejaVuSans-34"/>
      </g>
     </g>
    </g>
    <g id="xtick_4">
     <g id="line2d_7">
      <path clip-path="url(#pb48a66f238)" d="M 293.814009 294.88 
L 293.814009 6.845228 
" style="fill:none;stroke:#b0b0b0;stroke-linecap:square;stroke-width:0.8;"/>
     </g>
     <g id="line2d_8">
      <g>
       <use style="stroke:#000000;stroke-width:0.8;" x="293.814009" xlink:href="#mfa4ac35da5" y="294.88"/>
      </g>
     </g>
     <g id="text_4">
      <!-- 6 -->
      <defs>
       <path d="M 33.015625 40.375 
Q 26.375 40.375 22.484375 35.828125 
Q 18.609375 31.296875 18.609375 23.390625 
Q 18.609375 15.53125 22.484375 10.953125 
Q 26.375 6.390625 33.015625 6.390625 
Q 39.65625 6.390625 43.53125 10.953125 
Q 47.40625 15.53125 47.40625 23.390625 
Q 47.40625 31.296875 43.53125 35.828125 
Q 39.65625 40.375 33.015625 40.375 
z
M 52.59375 71.296875 
L 52.59375 62.3125 
Q 48.875 64.0625 45.09375 64.984375 
Q 41.3125 65.921875 37.59375 65.921875 
Q 27.828125 65.921875 22.671875 59.328125 
Q 17.53125 52.734375 16.796875 39.40625 
Q 19.671875 43.65625 24.015625 45.921875 
Q 28.375 48.1875 33.59375 48.1875 
Q 44.578125 48.1875 50.953125 41.515625 
Q 57.328125 34.859375 57.328125 23.390625 
Q 57.328125 12.15625 50.6875 5.359375 
Q 44.046875 -1.421875 33.015625 -1.421875 
Q 20.359375 -1.421875 13.671875 8.265625 
Q 6.984375 17.96875 6.984375 36.375 
Q 6.984375 53.65625 15.1875 63.9375 
Q 23.390625 74.21875 37.203125 74.21875 
Q 40.921875 74.21875 44.703125 73.484375 
Q 48.484375 72.75 52.59375 71.296875 
z
" id="DejaVuSans-36"/>
      </defs>
      <g transform="translate(287.451509 317.076875)scale(0.2 -0.2)">
       <use xlink:href="#DejaVuSans-36"/>
      </g>
     </g>
    </g>
    <g id="xtick_5">
     <g id="line2d_9">
      <path clip-path="url(#pb48a66f238)" d="M 373.045346 294.88 
L 373.045346 6.845228 
" style="fill:none;stroke:#b0b0b0;stroke-linecap:square;stroke-width:0.8;"/>
     </g>
     <g id="line2d_10">
      <g>
       <use style="stroke:#000000;stroke-width:0.8;" x="373.045346" xlink:href="#mfa4ac35da5" y="294.88"/>
      </g>
     </g>
     <g id="text_5">
      <!-- 8 -->
      <defs>
       <path d="M 31.78125 34.625 
Q 24.75 34.625 20.71875 30.859375 
Q 16.703125 27.09375 16.703125 20.515625 
Q 16.703125 13.921875 20.71875 10.15625 
Q 24.75 6.390625 31.78125 6.390625 
Q 38.8125 6.390625 42.859375 10.171875 
Q 46.921875 13.96875 46.921875 20.515625 
Q 46.921875 27.09375 42.890625 30.859375 
Q 38.875 34.625 31.78125 34.625 
z
M 21.921875 38.8125 
Q 15.578125 40.375 12.03125 44.71875 
Q 8.5 49.078125 8.5 55.328125 
Q 8.5 64.0625 14.71875 69.140625 
Q 20.953125 74.21875 31.78125 74.21875 
Q 42.671875 74.21875 48.875 69.140625 
Q 55.078125 64.0625 55.078125 55.328125 
Q 55.078125 49.078125 51.53125 44.71875 
Q 48 40.375 41.703125 38.8125 
Q 48.828125 37.15625 52.796875 32.3125 
Q 56.78125 27.484375 56.78125 20.515625 
Q 56.78125 9.90625 50.3125 4.234375 
Q 43.84375 -1.421875 31.78125 -1.421875 
Q 19.734375 -1.421875 13.25 4.234375 
Q 6.78125 9.90625 6.78125 20.515625 
Q 6.78125 27.484375 10.78125 32.3125 
Q 14.796875 37.15625 21.921875 38.8125 
z
M 18.3125 54.390625 
Q 18.3125 48.734375 21.84375 45.5625 
Q 25.390625 42.390625 31.78125 42.390625 
Q 38.140625 42.390625 41.71875 45.5625 
Q 45.3125 48.734375 45.3125 54.390625 
Q 45.3125 60.0625 41.71875 63.234375 
Q 38.140625 66.40625 31.78125 66.40625 
Q 25.390625 66.40625 21.84375 63.234375 
Q 18.3125 60.0625 18.3125 54.390625 
z
" id="DejaVuSans-38"/>
      </defs>
      <g transform="translate(366.682846 317.076875)scale(0.2 -0.2)">
       <use xlink:href="#DejaVuSans-38"/>
      </g>
     </g>
    </g>
    <g id="text_6">
     <!-- log10(# f-evals / dimension) -->
     <defs>
      <path d="M 9.421875 75.984375 
L 18.40625 75.984375 
L 18.40625 0 
L 9.421875 0 
z
" id="DejaVuSans-6c"/>
      <path d="M 30.609375 48.390625 
Q 23.390625 48.390625 19.1875 42.75 
Q 14.984375 37.109375 14.984375 27.296875 
Q 14.984375 17.484375 19.15625 11.84375 
Q 23.34375 6.203125 30.609375 6.203125 
Q 37.796875 6.203125 41.984375 11.859375 
Q 46.1875 17.53125 46.1875 27.296875 
Q 46.1875 37.015625 41.984375 42.703125 
Q 37.796875 48.390625 30.609375 48.390625 
z
M 30.609375 56 
Q 42.328125 56 49.015625 48.375 
Q 55.71875 40.765625 55.71875 27.296875 
Q 55.71875 13.875 49.015625 6.21875 
Q 42.328125 -1.421875 30.609375 -1.421875 
Q 18.84375 -1.421875 12.171875 6.21875 
Q 5.515625 13.875 5.515625 27.296875 
Q 5.515625 40.765625 12.171875 48.375 
Q 18.84375 56 30.609375 56 
z
" id="DejaVuSans-6f"/>
      <path d="M 45.40625 27.984375 
Q 45.40625 37.75 41.375 43.109375 
Q 37.359375 48.484375 30.078125 48.484375 
Q 22.859375 48.484375 18.828125 43.109375 
Q 14.796875 37.75 14.796875 27.984375 
Q 14.796875 18.265625 18.828125 12.890625 
Q 22.859375 7.515625 30.078125 7.515625 
Q 37.359375 7.515625 41.375 12.890625 
Q 45.40625 18.265625 45.40625 27.984375 
z
M 54.390625 6.78125 
Q 54.390625 -7.171875 48.1875 -13.984375 
Q 42 -20.796875 29.203125 -20.796875 
Q 24.46875 -20.796875 20.265625 -20.09375 
Q 16.0625 -19.390625 12.109375 -17.921875 
L 12.109375 -9.1875 
Q 16.0625 -11.328125 19.921875 -12.34375 
Q 23.78125 -13.375 27.78125 -13.375 
Q 36.625 -13.375 41.015625 -8.765625 
Q 45.40625 -4.15625 45.40625 5.171875 
L 45.40625 9.625 
Q 42.625 4.78125 38.28125 2.390625 
Q 33.9375 0 27.875 0 
Q 17.828125 0 11.671875 7.65625 
Q 5.515625 15.328125 5.515625 27.984375 
Q 5.515625 40.671875 11.671875 48.328125 
Q 17.828125 56 27.875 56 
Q 33.9375 56 38.28125 53.609375 
Q 42.625 51.21875 45.40625 46.390625 
L 45.40625 54.6875 
L 54.390625 54.6875 
z
" id="DejaVuSans-67"/>
      <path d="M 12.40625 8.296875 
L 28.515625 8.296875 
L 28.515625 63.921875 
L 10.984375 60.40625 
L 10.984375 69.390625 
L 28.421875 72.90625 
L 38.28125 72.90625 
L 38.28125 8.296875 
L 54.390625 8.296875 
L 54.390625 0 
L 12.40625 0 
z
" id="DejaVuSans-31"/>
      <path d="M 31 75.875 
Q 24.46875 64.65625 21.28125 53.65625 
Q 18.109375 42.671875 18.109375 31.390625 
Q 18.109375 20.125 21.3125 9.0625 
Q 24.515625 -2 31 -13.1875 
L 23.1875 -13.1875 
Q 15.875 -1.703125 12.234375 9.375 
Q 8.59375 20.453125 8.59375 31.390625 
Q 8.59375 42.28125 12.203125 53.3125 
Q 15.828125 64.359375 23.1875 75.875 
z
" id="DejaVuSans-28"/>
      <path d="M 51.125 44 
L 36.921875 44 
L 32.8125 27.6875 
L 47.125 27.6875 
z
M 43.796875 71.78125 
L 38.71875 51.515625 
L 52.984375 51.515625 
L 58.109375 71.78125 
L 65.921875 71.78125 
L 60.890625 51.515625 
L 76.125 51.515625 
L 76.125 44 
L 58.984375 44 
L 54.984375 27.6875 
L 70.515625 27.6875 
L 70.515625 20.21875 
L 53.078125 20.21875 
L 48 0 
L 40.1875 0 
L 45.21875 20.21875 
L 30.90625 20.21875 
L 25.875 0 
L 18.015625 0 
L 23.09375 20.21875 
L 7.71875 20.21875 
L 7.71875 27.6875 
L 24.90625 27.6875 
L 29 44 
L 13.28125 44 
L 13.28125 51.515625 
L 30.90625 51.515625 
L 35.890625 71.78125 
z
" id="DejaVuSans-23"/>
      <path id="DejaVuSans-20"/>
      <path d="M 37.109375 75.984375 
L 37.109375 68.5 
L 28.515625 68.5 
Q 23.6875 68.5 21.796875 66.546875 
Q 19.921875 64.59375 19.921875 59.515625 
L 19.921875 54.6875 
L 34.71875 54.6875 
L 34.71875 47.703125 
L 19.921875 47.703125 
L 19.921875 0 
L 10.890625 0 
L 10.890625 47.703125 
L 2.296875 47.703125 
L 2.296875 54.6875 
L 10.890625 54.6875 
L 10.890625 58.5 
Q 10.890625 67.625 15.140625 71.796875 
Q 19.390625 75.984375 28.609375 75.984375 
z
" id="DejaVuSans-66"/>
      <path d="M 4.890625 31.390625 
L 31.203125 31.390625 
L 31.203125 23.390625 
L 4.890625 23.390625 
z
" id="DejaVuSans-2d"/>
      <path d="M 56.203125 29.59375 
L 56.203125 25.203125 
L 14.890625 25.203125 
Q 15.484375 15.921875 20.484375 11.0625 
Q 25.484375 6.203125 34.421875 6.203125 
Q 39.59375 6.203125 44.453125 7.46875 
Q 49.3125 8.734375 54.109375 11.28125 
L 54.109375 2.78125 
Q 49.265625 0.734375 44.1875 -0.34375 
Q 39.109375 -1.421875 33.890625 -1.421875 
Q 20.796875 -1.421875 13.15625 6.1875 
Q 5.515625 13.8125 5.515625 26.8125 
Q 5.515625 40.234375 12.765625 48.109375 
Q 20.015625 56 32.328125 56 
Q 43.359375 56 49.78125 48.890625 
Q 56.203125 41.796875 56.203125 29.59375 
z
M 47.21875 32.234375 
Q 47.125 39.59375 43.09375 43.984375 
Q 39.0625 48.390625 32.421875 48.390625 
Q 24.90625 48.390625 20.390625 44.140625 
Q 15.875 39.890625 15.1875 32.171875 
z
" id="DejaVuSans-65"/>
      <path d="M 2.984375 54.6875 
L 12.5 54.6875 
L 29.59375 8.796875 
L 46.6875 54.6875 
L 56.203125 54.6875 
L 35.6875 0 
L 23.484375 0 
z
" id="DejaVuSans-76"/>
      <path d="M 34.28125 27.484375 
Q 23.390625 27.484375 19.1875 25 
Q 14.984375 22.515625 14.984375 16.5 
Q 14.984375 11.71875 18.140625 8.90625 
Q 21.296875 6.109375 26.703125 6.109375 
Q 34.1875 6.109375 38.703125 11.40625 
Q 43.21875 16.703125 43.21875 25.484375 
L 43.21875 27.484375 
z
M 52.203125 31.203125 
L 52.203125 0 
L 43.21875 0 
L 43.21875 8.296875 
Q 40.140625 3.328125 35.546875 0.953125 
Q 30.953125 -1.421875 24.3125 -1.421875 
Q 15.921875 -1.421875 10.953125 3.296875 
Q 6 8.015625 6 15.921875 
Q 6 25.140625 12.171875 29.828125 
Q 18.359375 34.515625 30.609375 34.515625 
L 43.21875 34.515625 
L 43.21875 35.40625 
Q 43.21875 41.609375 39.140625 45 
Q 35.0625 48.390625 27.6875 48.390625 
Q 23 48.390625 18.546875 47.265625 
Q 14.109375 46.140625 10.015625 43.890625 
L 10.015625 52.203125 
Q 14.9375 54.109375 19.578125 55.046875 
Q 24.21875 56 28.609375 56 
Q 40.484375 56 46.34375 49.84375 
Q 52.203125 43.703125 52.203125 31.203125 
z
" id="DejaVuSans-61"/>
      <path d="M 44.28125 53.078125 
L 44.28125 44.578125 
Q 40.484375 46.53125 36.375 47.5 
Q 32.28125 48.484375 27.875 48.484375 
Q 21.1875 48.484375 17.84375 46.4375 
Q 14.5 44.390625 14.5 40.28125 
Q 14.5 37.15625 16.890625 35.375 
Q 19.28125 33.59375 26.515625 31.984375 
L 29.59375 31.296875 
Q 39.15625 29.25 43.1875 25.515625 
Q 47.21875 21.78125 47.21875 15.09375 
Q 47.21875 7.46875 41.1875 3.015625 
Q 35.15625 -1.421875 24.609375 -1.421875 
Q 20.21875 -1.421875 15.453125 -0.5625 
Q 10.6875 0.296875 5.421875 2 
L 5.421875 11.28125 
Q 10.40625 8.6875 15.234375 7.390625 
Q 20.0625 6.109375 24.8125 6.109375 
Q 31.15625 6.109375 34.5625 8.28125 
Q 37.984375 10.453125 37.984375 14.40625 
Q 37.984375 18.0625 35.515625 20.015625 
Q 33.0625 21.96875 24.703125 23.78125 
L 21.578125 24.515625 
Q 13.234375 26.265625 9.515625 29.90625 
Q 5.8125 33.546875 5.8125 39.890625 
Q 5.8125 47.609375 11.28125 51.796875 
Q 16.75 56 26.8125 56 
Q 31.78125 56 36.171875 55.265625 
Q 40.578125 54.546875 44.28125 53.078125 
z
" id="DejaVuSans-73"/>
      <path d="M 25.390625 72.90625 
L 33.6875 72.90625 
L 8.296875 -9.28125 
L 0 -9.28125 
z
" id="DejaVuSans-2f"/>
      <path d="M 45.40625 46.390625 
L 45.40625 75.984375 
L 54.390625 75.984375 
L 54.390625 0 
L 45.40625 0 
L 45.40625 8.203125 
Q 42.578125 3.328125 38.25 0.953125 
Q 33.9375 -1.421875 27.875 -1.421875 
Q 17.96875 -1.421875 11.734375 6.484375 
Q 5.515625 14.40625 5.515625 27.296875 
Q 5.515625 40.1875 11.734375 48.09375 
Q 17.96875 56 27.875 56 
Q 33.9375 56 38.25 53.625 
Q 42.578125 51.265625 45.40625 46.390625 
z
M 14.796875 27.296875 
Q 14.796875 17.390625 18.875 11.75 
Q 22.953125 6.109375 30.078125 6.109375 
Q 37.203125 6.109375 41.296875 11.75 
Q 45.40625 17.390625 45.40625 27.296875 
Q 45.40625 37.203125 41.296875 42.84375 
Q 37.203125 48.484375 30.078125 48.484375 
Q 22.953125 48.484375 18.875 42.84375 
Q 14.796875 37.203125 14.796875 27.296875 
z
" id="DejaVuSans-64"/>
      <path d="M 9.421875 54.6875 
L 18.40625 54.6875 
L 18.40625 0 
L 9.421875 0 
z
M 9.421875 75.984375 
L 18.40625 75.984375 
L 18.40625 64.59375 
L 9.421875 64.59375 
z
" id="DejaVuSans-69"/>
      <path d="M 52 44.1875 
Q 55.375 50.25 60.0625 53.125 
Q 64.75 56 71.09375 56 
Q 79.640625 56 84.28125 50.015625 
Q 88.921875 44.046875 88.921875 33.015625 
L 88.921875 0 
L 79.890625 0 
L 79.890625 32.71875 
Q 79.890625 40.578125 77.09375 44.375 
Q 74.3125 48.1875 68.609375 48.1875 
Q 61.625 48.1875 57.5625 43.546875 
Q 53.515625 38.921875 53.515625 30.90625 
L 53.515625 0 
L 44.484375 0 
L 44.484375 32.71875 
Q 44.484375 40.625 41.703125 44.40625 
Q 38.921875 48.1875 33.109375 48.1875 
Q 26.21875 48.1875 22.15625 43.53125 
Q 18.109375 38.875 18.109375 30.90625 
L 18.109375 0 
L 9.078125 0 
L 9.078125 54.6875 
L 18.109375 54.6875 
L 18.109375 46.1875 
Q 21.1875 51.21875 25.484375 53.609375 
Q 29.78125 56 35.6875 56 
Q 41.65625 56 45.828125 52.96875 
Q 50 49.953125 52 44.1875 
z
" id="DejaVuSans-6d"/>
      <path d="M 54.890625 33.015625 
L 54.890625 0 
L 45.90625 0 
L 45.90625 32.71875 
Q 45.90625 40.484375 42.875 44.328125 
Q 39.84375 48.1875 33.796875 48.1875 
Q 26.515625 48.1875 22.3125 43.546875 
Q 18.109375 38.921875 18.109375 30.90625 
L 18.109375 0 
L 9.078125 0 
L 9.078125 54.6875 
L 18.109375 54.6875 
L 18.109375 46.1875 
Q 21.34375 51.125 25.703125 53.5625 
Q 30.078125 56 35.796875 56 
Q 45.21875 56 50.046875 50.171875 
Q 54.890625 44.34375 54.890625 33.015625 
z
" id="DejaVuSans-6e"/>
      <path d="M 8.015625 75.875 
L 15.828125 75.875 
Q 23.140625 64.359375 26.78125 53.3125 
Q 30.421875 42.28125 30.421875 31.390625 
Q 30.421875 20.453125 26.78125 9.375 
Q 23.140625 -1.703125 15.828125 -13.1875 
L 8.015625 -13.1875 
Q 14.5 -2 17.703125 9.0625 
Q 20.90625 20.125 20.90625 31.390625 
Q 20.90625 42.671875 17.703125 53.65625 
Q 14.5 64.65625 8.015625 75.875 
z
" id="DejaVuSans-29"/>
     </defs>
     <g transform="translate(107.211219 338.153594)scale(0.17 -0.17)">
      <use xlink:href="#DejaVuSans-6c"/>
      <use x="27.783203" xlink:href="#DejaVuSans-6f"/>
      <use x="88.964844" xlink:href="#DejaVuSans-67"/>
      <use x="152.441406" xlink:href="#DejaVuSans-31"/>
      <use x="216.064453" xlink:href="#DejaVuSans-30"/>
      <use x="279.6875" xlink:href="#DejaVuSans-28"/>
      <use x="318.701172" xlink:href="#DejaVuSans-23"/>
      <use x="402.490234" xlink:href="#DejaVuSans-20"/>
      <use x="434.277344" xlink:href="#DejaVuSans-66"/>
      <use x="469.404297" xlink:href="#DejaVuSans-2d"/>
      <use x="505.488281" xlink:href="#DejaVuSans-65"/>
      <use x="567.011719" xlink:href="#DejaVuSans-76"/>
      <use x="626.191406" xlink:href="#DejaVuSans-61"/>
      <use x="687.470703" xlink:href="#DejaVuSans-6c"/>
      <use x="715.253906" xlink:href="#DejaVuSans-73"/>
      <use x="767.353516" xlink:href="#DejaVuSans-20"/>
      <use x="799.140625" xlink:href="#DejaVuSans-2f"/>
      <use x="832.832031" xlink:href="#DejaVuSans-20"/>
      <use x="864.619141" xlink:href="#DejaVuSans-64"/>
      <use x="928.095703" xlink:href="#DejaVuSans-69"/>
      <use x="955.878906" xlink:href="#DejaVuSans-6d"/>
      <use x="1053.291016" xlink:href="#DejaVuSans-65"/>
      <use x="1114.814453" xlink:href="#DejaVuSans-6e"/>
      <use x="1178.193359" xlink:href="#DejaVuSans-73"/>
      <use x="1230.292969" xlink:href="#DejaVuSans-69"/>
      <use x="1258.076172" xlink:href="#DejaVuSans-6f"/>
      <use x="1319.257812" xlink:href="#DejaVuSans-6e"/>
      <use x="1382.636719" xlink:href="#DejaVuSans-29"/>
     </g>
    </g>
   </g>
   <g id="matplotlib.axis_2">
    <g id="ytick_1">
     <g id="line2d_11">
      <path clip-path="url(#pb48a66f238)" d="M 56.12 294.88 
L 399.984 294.88 
" style="fill:none;stroke:#b0b0b0;stroke-linecap:square;stroke-width:0.8;"/>
     </g>
     <g id="line2d_12">
      <defs>
       <path d="M 0 0 
L -3.5 0 
" id="m73d326e1c0" style="stroke:#000000;stroke-width:0.8;"/>
      </defs>
      <g>
       <use style="stroke:#000000;stroke-width:0.8;" x="56.12" xlink:href="#m73d326e1c0" y="294.88"/>
      </g>
     </g>
     <g id="text_7">
      <!-- 0.0 -->
      <defs>
       <path d="M 10.6875 12.40625 
L 21 12.40625 
L 21 0 
L 10.6875 0 
z
" id="DejaVuSans-2e"/>
      </defs>
      <g transform="translate(23.675 300.95875)scale(0.16 -0.16)">
       <use xlink:href="#DejaVuSans-30"/>
       <use x="63.623047" xlink:href="#DejaVuSans-2e"/>
       <use x="95.410156" xlink:href="#DejaVuSans-30"/>
      </g>
     </g>
    </g>
    <g id="ytick_2">
     <g id="line2d_13">
      <path clip-path="url(#pb48a66f238)" d="M 56.12 237.843411 
L 399.984 237.843411 
" style="fill:none;stroke:#b0b0b0;stroke-linecap:square;stroke-width:0.8;"/>
     </g>
     <g id="line2d_14">
      <g>
       <use style="stroke:#000000;stroke-width:0.8;" x="56.12" xlink:href="#m73d326e1c0" y="237.843411"/>
      </g>
     </g>
     <g id="text_8">
      <!-- 0.2 -->
      <g transform="translate(23.675 243.922161)scale(0.16 -0.16)">
       <use xlink:href="#DejaVuSans-30"/>
       <use x="63.623047" xlink:href="#DejaVuSans-2e"/>
       <use x="95.410156" xlink:href="#DejaVuSans-32"/>
      </g>
     </g>
    </g>
    <g id="ytick_3">
     <g id="line2d_15">
      <path clip-path="url(#pb48a66f238)" d="M 56.12 180.806823 
L 399.984 180.806823 
" style="fill:none;stroke:#b0b0b0;stroke-linecap:square;stroke-width:0.8;"/>
     </g>
     <g id="line2d_16">
      <g>
       <use style="stroke:#000000;stroke-width:0.8;" x="56.12" xlink:href="#m73d326e1c0" y="180.806823"/>
      </g>
     </g>
     <g id="text_9">
      <!-- 0.4 -->
      <g transform="translate(23.675 186.885573)scale(0.16 -0.16)">
       <use xlink:href="#DejaVuSans-30"/>
       <use x="63.623047" xlink:href="#DejaVuSans-2e"/>
       <use x="95.410156" xlink:href="#DejaVuSans-34"/>
      </g>
     </g>
    </g>
    <g id="ytick_4">
     <g id="line2d_17">
      <path clip-path="url(#pb48a66f238)" d="M 56.12 123.770234 
L 399.984 123.770234 
" style="fill:none;stroke:#b0b0b0;stroke-linecap:square;stroke-width:0.8;"/>
     </g>
     <g id="line2d_18">
      <g>
       <use style="stroke:#000000;stroke-width:0.8;" x="56.12" xlink:href="#m73d326e1c0" y="123.770234"/>
      </g>
     </g>
     <g id="text_10">
      <!-- 0.6 -->
      <g transform="translate(23.675 129.848984)scale(0.16 -0.16)">
       <use xlink:href="#DejaVuSans-30"/>
       <use x="63.623047" xlink:href="#DejaVuSans-2e"/>
       <use x="95.410156" xlink:href="#DejaVuSans-36"/>
      </g>
     </g>
    </g>
    <g id="ytick_5">
     <g id="line2d_19">
      <path clip-path="url(#pb48a66f238)" d="M 56.12 66.733646 
L 399.984 66.733646 
" style="fill:none;stroke:#b0b0b0;stroke-linecap:square;stroke-width:0.8;"/>
     </g>
     <g id="line2d_20">
      <g>
       <use style="stroke:#000000;stroke-width:0.8;" x="56.12" xlink:href="#m73d326e1c0" y="66.733646"/>
      </g>
     </g>
     <g id="text_11">
      <!-- 0.8 -->
      <g transform="translate(23.675 72.812396)scale(0.16 -0.16)">
       <use xlink:href="#DejaVuSans-30"/>
       <use x="63.623047" xlink:href="#DejaVuSans-2e"/>
       <use x="95.410156" xlink:href="#DejaVuSans-38"/>
      </g>
     </g>
    </g>
    <g id="ytick_6">
     <g id="line2d_21">
      <path clip-path="url(#pb48a66f238)" d="M 56.12 9.697057 
L 399.984 9.697057 
" style="fill:none;stroke:#b0b0b0;stroke-linecap:square;stroke-width:0.8;"/>
     </g>
     <g id="line2d_22">
      <g>
       <use style="stroke:#000000;stroke-width:0.8;" x="56.12" xlink:href="#m73d326e1c0" y="9.697057"/>
      </g>
     </g>
     <g id="text_12">
      <!-- 1.0 -->
      <g transform="translate(23.675 15.775807)scale(0.16 -0.16)">
       <use xlink:href="#DejaVuSans-31"/>
       <use x="63.623047" xlink:href="#DejaVuSans-2e"/>
       <use x="95.410156" xlink:href="#DejaVuSans-30"/>
      </g>
     </g>
    </g>
    <g id="text_13">
     <!-- Fraction of function,target pairs -->
     <defs>
      <path d="M 9.8125 72.90625 
L 51.703125 72.90625 
L 51.703125 64.59375 
L 19.671875 64.59375 
L 19.671875 43.109375 
L 48.578125 43.109375 
L 48.578125 34.8125 
L 19.671875 34.8125 
L 19.671875 0 
L 9.8125 0 
z
" id="DejaVuSans-46"/>
      <path d="M 41.109375 46.296875 
Q 39.59375 47.171875 37.8125 47.578125 
Q 36.03125 48 33.890625 48 
Q 26.265625 48 22.1875 43.046875 
Q 18.109375 38.09375 18.109375 28.8125 
L 18.109375 0 
L 9.078125 0 
L 9.078125 54.6875 
L 18.109375 54.6875 
L 18.109375 46.1875 
Q 20.953125 51.171875 25.484375 53.578125 
Q 30.03125 56 36.53125 56 
Q 37.453125 56 38.578125 55.875 
Q 39.703125 55.765625 41.0625 55.515625 
z
" id="DejaVuSans-72"/>
      <path d="M 48.78125 52.59375 
L 48.78125 44.1875 
Q 44.96875 46.296875 41.140625 47.34375 
Q 37.3125 48.390625 33.40625 48.390625 
Q 24.65625 48.390625 19.8125 42.84375 
Q 14.984375 37.3125 14.984375 27.296875 
Q 14.984375 17.28125 19.8125 11.734375 
Q 24.65625 6.203125 33.40625 6.203125 
Q 37.3125 6.203125 41.140625 7.25 
Q 44.96875 8.296875 48.78125 10.40625 
L 48.78125 2.09375 
Q 45.015625 0.34375 40.984375 -0.53125 
Q 36.96875 -1.421875 32.421875 -1.421875 
Q 20.0625 -1.421875 12.78125 6.34375 
Q 5.515625 14.109375 5.515625 27.296875 
Q 5.515625 40.671875 12.859375 48.328125 
Q 20.21875 56 33.015625 56 
Q 37.15625 56 41.109375 55.140625 
Q 45.0625 54.296875 48.78125 52.59375 
z
" id="DejaVuSans-63"/>
      <path d="M 18.3125 70.21875 
L 18.3125 54.6875 
L 36.8125 54.6875 
L 36.8125 47.703125 
L 18.3125 47.703125 
L 18.3125 18.015625 
Q 18.3125 11.328125 20.140625 9.421875 
Q 21.96875 7.515625 27.59375 7.515625 
L 36.8125 7.515625 
L 36.8125 0 
L 27.59375 0 
Q 17.1875 0 13.234375 3.875 
Q 9.28125 7.765625 9.28125 18.015625 
L 9.28125 47.703125 
L 2.6875 47.703125 
L 2.6875 54.6875 
L 9.28125 54.6875 
L 9.28125 70.21875 
z
" id="DejaVuSans-74"/>
      <path d="M 8.5 21.578125 
L 8.5 54.6875 
L 17.484375 54.6875 
L 17.484375 21.921875 
Q 17.484375 14.15625 20.5 10.265625 
Q 23.53125 6.390625 29.59375 6.390625 
Q 36.859375 6.390625 41.078125 11.03125 
Q 45.3125 15.671875 45.3125 23.6875 
L 45.3125 54.6875 
L 54.296875 54.6875 
L 54.296875 0 
L 45.3125 0 
L 45.3125 8.40625 
Q 42.046875 3.421875 37.71875 1 
Q 33.40625 -1.421875 27.6875 -1.421875 
Q 18.265625 -1.421875 13.375 4.4375 
Q 8.5 10.296875 8.5 21.578125 
z
M 31.109375 56 
z
" id="DejaVuSans-75"/>
      <path d="M 11.71875 12.40625 
L 22.015625 12.40625 
L 22.015625 4 
L 14.015625 -11.625 
L 7.71875 -11.625 
L 11.71875 4 
z
" id="DejaVuSans-2c"/>
      <path d="M 18.109375 8.203125 
L 18.109375 -20.796875 
L 9.078125 -20.796875 
L 9.078125 54.6875 
L 18.109375 54.6875 
L 18.109375 46.390625 
Q 20.953125 51.265625 25.265625 53.625 
Q 29.59375 56 35.59375 56 
Q 45.5625 56 51.78125 48.09375 
Q 58.015625 40.1875 58.015625 27.296875 
Q 58.015625 14.40625 51.78125 6.484375 
Q 45.5625 -1.421875 35.59375 -1.421875 
Q 29.59375 -1.421875 25.265625 0.953125 
Q 20.953125 3.328125 18.109375 8.203125 
z
M 48.6875 27.296875 
Q 48.6875 37.203125 44.609375 42.84375 
Q 40.53125 48.484375 33.40625 48.484375 
Q 26.265625 48.484375 22.1875 42.84375 
Q 18.109375 37.203125 18.109375 27.296875 
Q 18.109375 17.390625 22.1875 11.75 
Q 26.265625 6.109375 33.40625 6.109375 
Q 40.53125 6.109375 44.609375 11.75 
Q 48.6875 17.390625 48.6875 27.296875 
z
" id="DejaVuSans-70"/>
     </defs>
     <g transform="translate(16.139531 286.001989)rotate(-90)scale(0.17 -0.17)">
      <use xlink:href="#DejaVuSans-46"/>
      <use x="57.410156" xlink:href="#DejaVuSans-72"/>
      <use x="98.523438" xlink:href="#DejaVuSans-61"/>
      <use x="159.802734" xlink:href="#DejaVuSans-63"/>
      <use x="214.783203" xlink:href="#DejaVuSans-74"/>
      <use x="253.992188" xlink:href="#DejaVuSans-69"/>
      <use x="281.775391" xlink:href="#DejaVuSans-6f"/>
      <use x="342.957031" xlink:href="#DejaVuSans-6e"/>
      <use x="406.335938" xlink:href="#DejaVuSans-20"/>
      <use x="438.123047" xlink:href="#DejaVuSans-6f"/>
      <use x="499.304688" xlink:href="#DejaVuSans-66"/>
      <use x="534.509766" xlink:href="#DejaVuSans-20"/>
      <use x="566.296875" xlink:href="#DejaVuSans-66"/>
      <use x="601.501953" xlink:href="#DejaVuSans-75"/>
      <use x="664.880859" xlink:href="#DejaVuSans-6e"/>
      <use x="728.259766" xlink:href="#DejaVuSans-63"/>
      <use x="783.240234" xlink:href="#DejaVuSans-74"/>
      <use x="822.449219" xlink:href="#DejaVuSans-69"/>
      <use x="850.232422" xlink:href="#DejaVuSans-6f"/>
      <use x="911.414062" xlink:href="#DejaVuSans-6e"/>
      <use x="974.792969" xlink:href="#DejaVuSans-2c"/>
      <use x="1006.580078" xlink:href="#DejaVuSans-74"/>
      <use x="1045.789062" xlink:href="#DejaVuSans-61"/>
      <use x="1107.068359" xlink:href="#DejaVuSans-72"/>
      <use x="1148.166016" xlink:href="#DejaVuSans-67"/>
      <use x="1211.642578" xlink:href="#DejaVuSans-65"/>
      <use x="1273.166016" xlink:href="#DejaVuSans-74"/>
      <use x="1312.375" xlink:href="#DejaVuSans-20"/>
      <use x="1344.162109" xlink:href="#DejaVuSans-70"/>
      <use x="1407.638672" xlink:href="#DejaVuSans-61"/>
      <use x="1468.917969" xlink:href="#DejaVuSans-69"/>
      <use x="1496.701172" xlink:href="#DejaVuSans-72"/>
      <use x="1537.814453" xlink:href="#DejaVuSans-73"/>
     </g>
    </g>
   </g>
   <g id="line2d_23">
    <defs>
     <path d="M 0 1.5 
C 0.397805 1.5 0.77937 1.341951 1.06066 1.06066 
C 1.341951 0.77937 1.5 0.397805 1.5 0 
C 1.5 -0.397805 1.341951 -0.77937 1.06066 -1.06066 
C 0.77937 -1.341951 0.397805 -1.5 0 -1.5 
C -0.397805 -1.5 -0.77937 -1.341951 -1.06066 -1.06066 
C -1.341951 -0.77937 -1.5 -0.397805 -1.5 0 
C -1.5 0.397805 -1.341951 0.77937 -1.06066 1.06066 
C -0.77937 1.341951 -0.397805 1.5 0 1.5 
z
" id="md120931a9b" style="stroke:#000080;"/>
    </defs>
    <g>
     <use style="fill:#000080;stroke:#000080;" x="272.648364" xlink:href="#md120931a9b" y="65.615281"/>
     <use style="fill:#000080;stroke:#000080;" x="272.648364" xlink:href="#md120931a9b" y="65.615281"/>
    </g>
   </g>
   <g id="line2d_24">
    <path d="M 40.355341 294.88 
L 40.355341 284.255537 
L 52.280845 284.255537 
L 52.280845 282.577991 
L 59.256818 282.577991 
L 59.256818 282.018808 
L 64.20635 282.018808 
L 64.20635 276.986168 
L 68.045504 276.986168 
L 68.045504 274.190257 
L 71.182322 274.190257 
L 71.182322 272.51271 
L 73.834464 272.51271 
L 73.834464 271.394346 
L 76.131854 271.394346 
L 76.131854 270.835164 
L 78.158295 270.835164 
L 78.158295 269.716799 
L 83.107827 269.716799 
L 83.107827 269.157617 
L 85.759969 269.157617 
L 85.759969 268.598435 
L 86.946982 268.598435 
L 86.946982 268.039252 
L 95.735668 268.039252 
L 95.735668 265.802523 
L 99.982863 265.802523 
L 99.982863 265.243341 
L 102.009304 265.243341 
L 102.009304 264.684159 
L 108.001874 264.684159 
L 108.001874 264.124977 
L 108.33596 264.124977 
L 108.33596 263.565795 
L 108.663681 263.565795 
L 108.663681 262.44743 
L 109.300972 262.44743 
L 109.300972 261.888248 
L 109.610977 261.888248 
L 109.610977 261.329066 
L 110.214719 261.329066 
L 110.214719 260.210701 
L 110.508826 260.210701 
L 110.508826 259.651519 
L 111.362135 259.651519 
L 111.362135 259.092337 
L 112.175115 259.092337 
L 112.175115 256.855608 
L 113.202576 256.855608 
L 113.202576 256.296425 
L 114.865028 256.296425 
L 114.865028 255.178061 
L 119.06263 255.178061 
L 119.06263 253.500514 
L 120.095232 253.500514 
L 120.095232 250.704603 
L 120.261464 250.704603 
L 120.261464 249.586238 
L 120.426105 249.586238 
L 120.426105 247.34951 
L 120.750735 247.34951 
L 120.750735 246.790327 
L 121.069353 246.790327 
L 121.069353 246.231145 
L 121.991263 246.231145 
L 121.991263 245.671963 
L 122.434331 245.671963 
L 122.434331 243.435234 
L 123.28764 243.435234 
L 123.28764 240.639323 
L 123.562923 240.639323 
L 123.562923 240.08014 
L 123.833872 240.08014 
L 123.833872 239.520958 
L 123.967762 239.520958 
L 123.967762 238.961776 
L 124.100619 238.961776 
L 124.100619 237.843411 
L 125.002954 237.843411 
L 125.002954 236.725047 
L 125.740418 236.725047 
L 125.740418 236.165865 
L 126.215065 236.165865 
L 126.215065 235.606682 
L 127.347373 235.606682 
L 127.45661 232.251589 
L 128.512455 232.251589 
L 128.512455 230.574042 
L 128.816974 230.574042 
L 128.816974 229.455678 
L 130.355864 229.455678 
L 130.355864 228.896496 
L 130.809845 228.896496 
L 130.809845 228.337313 
L 131.683376 228.337313 
L 131.683376 227.778131 
L 132.269486 227.778131 
L 132.269486 226.100584 
L 132.51469 226.100584 
L 132.51469 224.98222 
L 133.073598 224.98222 
L 133.073598 224.423038 
L 133.230007 224.423038 
L 133.230007 223.863855 
L 133.766505 223.863855 
L 133.8418 221.627126 
L 133.991409 221.627126 
L 133.991409 219.94958 
L 134.21341 219.94958 
L 134.21341 217.712851 
L 134.359835 217.712851 
L 134.359835 216.594486 
L 134.577163 216.594486 
L 134.577163 215.476122 
L 135.624435 215.476122 
L 135.624435 214.91694 
L 136.026124 214.91694 
L 136.026124 213.798575 
L 136.547523 213.798575 
L 136.547523 213.239393 
L 136.739045 213.239393 
L 136.739045 212.680211 
L 137.545186 212.680211 
L 137.545186 212.121028 
L 137.665922 212.121028 
L 137.665922 208.765935 
L 137.785817 208.765935 
L 137.785817 208.206753 
L 137.904883 208.206753 
L 137.904883 207.64757 
L 138.373071 207.64757 
L 138.373071 207.088388 
L 139.162941 207.088388 
L 139.217997 203.174112 
L 140.89274 203.174112 
L 140.89274 202.61493 
L 141.862285 202.61493 
L 141.909357 200.378201 
L 142.003116 200.378201 
L 142.003116 199.259837 
L 142.418825 199.259837 
L 142.418825 198.141472 
L 142.555192 198.141472 
L 142.555192 197.58229 
L 142.824725 197.58229 
L 142.824725 197.023108 
L 143.133935 197.023108 
L 143.133935 195.345561 
L 144.112473 195.345561 
L 144.112473 194.227197 
L 144.236101 194.227197 
L 144.318029 191.990468 
L 144.358848 191.990468 
L 144.358848 191.431285 
L 144.999103 191.431285 
L 144.999103 190.872103 
L 145.387491 190.872103 
L 145.387491 190.312921 
L 145.804829 190.312921 
L 145.804829 189.753739 
L 146.102113 189.753739 
L 146.212283 187.51701 
L 146.24885 187.51701 
L 146.24885 186.957828 
L 146.430529 186.957828 
L 146.430529 186.398645 
L 146.858888 186.398645 
L 146.858888 185.839463 
L 147.91851 185.839463 
L 147.91851 184.721099 
L 148.214303 184.721099 
L 148.311781 183.602734 
L 148.344151 183.602734 
L 148.344151 182.48437 
L 148.664549 182.48437 
L 148.696263 180.806823 
L 149.591427 180.806823 
L 149.591427 180.247641 
L 149.711322 180.247641 
L 149.711322 179.688458 
L 150.066074 179.688458 
L 150.066074 178.570094 
L 150.240744 178.570094 
L 150.240744 176.892547 
L 150.556439 176.892547 
L 150.556439 176.333365 
L 151.253087 176.333365 
L 151.253087 175.774183 
L 151.657926 175.774183 
L 151.657926 174.655818 
L 152.001243 174.655818 
L 152.001243 172.978271 
L 152.843161 172.978271 
L 152.843161 171.859907 
L 153.811341 171.859907 
L 153.905229 169.623178 
L 154.905529 169.623178 
L 154.905529 168.504814 
L 155.037536 168.504814 
L 155.037536 167.945631 
L 155.36319 167.945631 
L 155.36319 167.386449 
L 155.534384 167.386449 
L 155.534384 166.268085 
L 156.017286 166.268085 
L 156.017286 165.708902 
L 156.263955 165.708902 
L 156.263955 165.14972 
L 156.426458 165.14972 
L 156.426458 164.590538 
L 157.061542 164.590538 
L 157.061542 164.031356 
L 157.50395 164.031356 
L 157.50395 163.472173 
L 158.046028 163.472173 
L 158.046028 162.912991 
L 158.283592 162.912991 
L 158.283592 162.353809 
L 159.288155 162.353809 
L 159.288155 161.235444 
L 159.877132 161.235444 
L 159.877132 160.676262 
L 160.716561 160.676262 
L 160.795158 158.439533 
L 161.531964 158.439533 
L 161.531964 157.880351 
L 163.000159 157.880351 
L 163.110182 156.761987 
L 165.077115 156.761987 
L 165.077115 156.202804 
L 165.404144 156.202804 
L 165.404144 155.643622 
L 166.842073 155.643622 
L 166.842073 155.08444 
L 168.502927 155.08444 
L 168.502927 154.525258 
L 170.127233 154.525258 
L 170.127233 153.966075 
L 171.358562 153.966075 
L 171.358562 153.406893 
L 172.22747 153.406893 
L 172.22747 152.847711 
L 174.980763 152.847711 
L 174.980763 152.288529 
L 175.641792 152.288529 
L 175.641792 151.729346 
L 177.650578 151.729346 
L 177.650578 151.170164 
L 182.034493 151.170164 
L 182.034493 150.610982 
L 183.292552 150.610982 
L 183.292552 148.933435 
L 201.519242 148.933435 
L 201.519242 148.374253 
L 203.654482 148.374253 
L 203.714127 146.696706 
L 203.773566 146.696706 
L 203.814793 145.019159 
L 203.912315 145.019159 
L 203.997832 142.78243 
L 204.066449 142.78243 
L 204.170123 138.308973 
L 204.177685 138.308973 
L 204.238057 135.513061 
L 204.364403 135.513061 
L 204.390557 133.276332 
L 204.521968 133.276332 
L 204.557746 132.157968 
L 204.85223 132.157968 
L 204.85223 131.598786 
L 205.495488 131.598786 
L 205.495488 131.039603 
L 205.853527 131.039603 
L 205.853527 130.480421 
L 214.392371 130.480421 
L 214.392371 129.921239 
L 215.49992 129.921239 
L 215.577389 127.125328 
L 215.644808 127.125328 
L 215.740941 121.533505 
L 215.766658 121.533505 
L 215.869779 117.060047 
L 215.964031 117.060047 
L 215.99956 115.382501 
L 216.100039 115.382501 
L 216.165445 114.264136 
L 222.370086 114.264136 
L 222.370086 113.704954 
L 222.503492 113.704954 
L 222.568078 108.672314 
L 222.615173 108.672314 
L 222.650948 107.553949 
L 227.373475 107.553949 
L 227.474941 104.198856 
L 227.505167 104.198856 
L 227.574194 101.962127 
L 227.773877 101.962127 
L 227.773877 101.402945 
L 228.417996 101.402945 
L 228.417996 100.843762 
L 231.235716 100.843762 
L 231.342308 98.047851 
L 231.36308 98.047851 
L 231.36308 96.929487 
L 234.322267 96.929487 
L 234.431602 93.574393 
L 236.967853 93.574393 
L 237.049717 91.896847 
L 237.541224 91.896847 
L 237.541224 91.337664 
L 239.244247 91.337664 
L 239.321706 89.100935 
L 241.259305 89.100935 
L 241.314838 87.982571 
L 241.712568 87.982571 
L 241.712568 87.423389 
L 243.052123 87.423389 
L 243.124844 83.509113 
L 244.685439 83.509113 
L 244.761118 81.272384 
L 246.527557 81.272384 
L 246.527557 80.15402 
L 247.574199 80.15402 
L 247.574199 79.594837 
L 248.853594 79.594837 
L 248.853594 79.035655 
L 250.00888 79.035655 
L 250.052896 76.239744 
L 251.139771 76.239744 
L 251.152673 74.562197 
L 252.152129 74.562197 
L 252.152129 74.003015 
L 253.158145 74.003015 
L 253.179553 72.325468 
L 254.978417 72.325468 
L 254.978417 71.766286 
L 256.616446 71.766286 
L 256.616446 71.207104 
L 257.358427 71.207104 
L 257.358427 70.647921 
L 258.091531 70.647921 
L 258.091531 70.088739 
L 261.352366 70.088739 
L 261.352366 69.529557 
L 261.927886 69.529557 
L 261.927886 68.970375 
L 263.041007 68.970375 
L 263.041007 68.411192 
L 263.563533 68.411192 
L 263.563533 67.85201 
L 266.42422 67.85201 
L 266.42422 67.292828 
L 268.892614 67.292828 
L 268.892614 66.733646 
L 271.368045 66.733646 
L 271.368045 66.174463 
L 272.648364 66.174463 
L 272.648364 65.615281 
L 333.429677 65.615281 
L 333.429677 65.615281 
" style="fill:none;stroke:#000080;stroke-linecap:square;stroke-width:1.5;"/>
   </g>
   <g id="line2d_25">
    <defs>
     <path d="M 0 6 
C 1.591219 6 3.117479 5.367802 4.242641 4.242641 
C 5.367802 3.117479 6 1.591219 6 0 
C 6 -1.591219 5.367802 -3.117479 4.242641 -4.242641 
C 3.117479 -5.367802 1.591219 -6 0 -6 
C -1.591219 -6 -3.117479 -5.367802 -4.242641 -4.242641 
C -5.367802 -3.117479 -6 -1.591219 -6 0 
C -6 1.591219 -5.367802 3.117479 -4.242641 4.242641 
C -3.117479 5.367802 -1.591219 6 0 6 
z
" id="m8bb7799b3a" style="stroke:#000080;stroke-width:1.5;"/>
    </defs>
    <g>
     <use style="fill-opacity:0;stroke:#000080;stroke-width:1.5;" x="121.991263" xlink:href="#m8bb7799b3a" y="245.671963"/>
     <use style="fill-opacity:0;stroke:#000080;stroke-width:1.5;" x="157.061542" xlink:href="#m8bb7799b3a" y="164.031356"/>
     <use style="fill-opacity:0;stroke:#000080;stroke-width:1.5;" x="215.577389" xlink:href="#m8bb7799b3a" y="127.68451"/>
     <use style="fill-opacity:0;stroke:#000080;stroke-width:1.5;" x="263.041007" xlink:href="#m8bb7799b3a" y="68.411192"/>
     <use style="fill-opacity:0;stroke:#000080;stroke-width:1.5;" x="272.648364" xlink:href="#m8bb7799b3a" y="65.615281"/>
     <use style="fill-opacity:0;stroke:#000080;stroke-width:1.5;" x="333.429677" xlink:href="#m8bb7799b3a" y="65.615281"/>
    </g>
   </g>
   <g id="line2d_26">
    <path style="fill:none;stroke:#000080;stroke-linecap:square;stroke-width:1.5;"/>
    <g/>
   </g>
   <g id="line2d_27">
    <path clip-path="url(#pb48a66f238)" d="M 203.36501 148.374253 
" style="fill:none;stroke:#000080;stroke-linecap:square;stroke-width:1.5;"/>
    <defs>
     <path d="M -12 12 
L 12 -12 
M -12 -12 
L 12 12 
" id="mf80ebde2e7" style="stroke:#000080;stroke-width:3;"/>
    </defs>
    <g clip-path="url(#pb48a66f238)">
     <use style="fill:#000080;stroke:#000080;stroke-width:3;" x="203.36501" xlink:href="#mf80ebde2e7" y="148.374253"/>
    </g>
   </g>
   <g id="line2d_28">
    <defs>
     <path d="M 0 1.5 
C 0.397805 1.5 0.77937 1.341951 1.06066 1.06066 
C 1.341951 0.77937 1.5 0.397805 1.5 0 
C 1.5 -0.397805 1.341951 -0.77937 1.06066 -1.06066 
C 0.77937 -1.341951 0.397805 -1.5 0 -1.5 
C -0.397805 -1.5 -0.77937 -1.341951 -1.06066 -1.06066 
C -1.341951 -0.77937 -1.5 -0.397805 -1.5 0 
C -1.5 0.397805 -1.341951 0.77937 -1.06066 1.06066 
C -0.77937 1.341951 -0.397805 1.5 0 1.5 
z
" id="m8a2f7bd9ea" style="stroke:#ff00ff;"/>
    </defs>
    <g>
     <use style="fill:#ff00ff;stroke:#ff00ff;" x="256.732358" xlink:href="#m8a2f7bd9ea" y="244.553598"/>
     <use style="fill:#ff00ff;stroke:#ff00ff;" x="256.732358" xlink:href="#m8a2f7bd9ea" y="244.553598"/>
    </g>
   </g>
   <g id="line2d_29">
    <path d="M 141.909357 294.88 
L 141.909357 294.320818 
L 142.189117 294.320818 
L 142.189117 293.761636 
L 144.318029 293.761636 
L 144.318029 293.202453 
L 146.321752 293.202453 
L 146.394347 290.965724 
L 149.010229 290.965724 
L 149.010229 290.406542 
L 149.770957 290.406542 
L 149.770957 289.84736 
L 151.524035 289.84736 
L 151.524035 289.288178 
L 163.742736 289.288178 
L 163.742736 288.728995 
L 164.81839 288.728995 
L 164.81839 288.169813 
L 165.74861 288.169813 
L 165.74861 287.610631 
L 166.269834 287.610631 
L 166.269834 286.492266 
L 178.795145 286.492266 
L 178.795145 285.373902 
L 179.062994 285.373902 
L 179.154956 284.255537 
L 179.449154 284.255537 
L 179.449154 283.137173 
L 185.3717 283.137173 
L 185.3717 282.577991 
L 187.35088 282.577991 
L 187.35088 281.459626 
L 187.583831 281.459626 
L 187.583831 280.900444 
L 188.222984 280.900444 
L 188.222984 280.341262 
L 197.227522 280.341262 
L 197.227522 279.782079 
L 203.817367 279.782079 
L 203.904636 278.663715 
L 203.981273 278.663715 
L 203.981273 278.104533 
L 207.060645 278.104533 
L 207.17111 275.867804 
L 208.91072 275.867804 
L 208.91072 274.749439 
L 213.444011 274.749439 
L 213.444011 274.190257 
L 215.51818 274.190257 
L 215.51818 273.631075 
L 215.668084 273.631075 
L 215.737724 271.953528 
L 215.864031 271.953528 
L 215.864031 271.394346 
L 216.230603 271.394346 
L 216.230603 270.835164 
L 217.2986 270.835164 
L 217.2986 269.716799 
L 217.600943 269.716799 
L 217.600943 268.598435 
L 218.637391 268.598435 
L 218.637391 268.039252 
L 222.429506 268.039252 
L 222.473501 266.920888 
L 222.545999 266.920888 
L 222.545999 265.802523 
L 222.695669 265.802523 
L 222.695669 264.684159 
L 222.897612 264.684159 
L 222.897612 264.124977 
L 223.588553 264.124977 
L 223.630906 263.006612 
L 224.51521 263.006612 
L 224.51521 262.44743 
L 225.782526 262.44743 
L 225.782526 261.888248 
L 225.90591 261.888248 
L 225.90591 261.329066 
L 226.317527 261.329066 
L 226.317527 260.769883 
L 227.724574 260.769883 
L 227.724574 260.210701 
L 228.21697 260.210701 
L 228.21697 259.092337 
L 228.409987 259.092337 
L 228.409987 258.533154 
L 228.833287 258.533154 
L 228.929511 256.855608 
L 232.016885 256.855608 
L 232.016885 256.296425 
L 233.094849 256.296425 
L 233.094849 255.737243 
L 234.29581 255.737243 
L 234.342357 254.618879 
L 234.997105 254.618879 
L 234.997105 254.059696 
L 236.933159 254.059696 
L 236.973098 252.941332 
L 237.536512 252.941332 
L 237.536512 252.38215 
L 237.799313 252.38215 
L 237.868614 251.263785 
L 239.303724 251.263785 
L 239.303724 250.704603 
L 239.649277 250.704603 
L 239.649277 250.145421 
L 240.04123 250.145421 
L 240.04123 249.586238 
L 241.708871 249.586238 
L 241.708871 249.027056 
L 243.043044 249.027056 
L 243.043044 248.467874 
L 243.388073 248.467874 
L 243.388073 247.908692 
L 244.991232 247.908692 
L 244.991232 247.34951 
L 249.061615 247.34951 
L 249.11931 246.231145 
L 253.366048 246.231145 
L 253.366048 245.112781 
L 256.732358 245.112781 
L 256.732358 244.553598 
L 333.429677 244.553598 
L 333.429677 244.553598 
" style="fill:none;stroke:#ff00ff;stroke-linecap:square;stroke-width:1.5;"/>
   </g>
   <g id="line2d_30">
    <defs>
     <path d="M -0 8.485281 
L 5.091169 0 
L 0 -8.485281 
L -5.091169 -0 
z
" id="m6608303df0" style="stroke:#ff00ff;stroke-linejoin:miter;stroke-width:1.5;"/>
    </defs>
    <g>
     <use style="fill-opacity:0;stroke:#ff00ff;stroke-linejoin:miter;stroke-width:1.5;" x="215.737724" xlink:href="#m6608303df0" y="273.071893"/>
     <use style="fill-opacity:0;stroke:#ff00ff;stroke-linejoin:miter;stroke-width:1.5;" x="256.732358" xlink:href="#m6608303df0" y="245.112781"/>
     <use style="fill-opacity:0;stroke:#ff00ff;stroke-linejoin:miter;stroke-width:1.5;" x="256.732358" xlink:href="#m6608303df0" y="244.553598"/>
     <use style="fill-opacity:0;stroke:#ff00ff;stroke-linejoin:miter;stroke-width:1.5;" x="256.732358" xlink:href="#m6608303df0" y="244.553598"/>
     <use style="fill-opacity:0;stroke:#ff00ff;stroke-linejoin:miter;stroke-width:1.5;" x="333.429677" xlink:href="#m6608303df0" y="244.553598"/>
    </g>
   </g>
   <g id="line2d_31">
    <path style="fill:none;stroke:#ff00ff;stroke-linecap:square;stroke-width:1.5;"/>
    <g/>
   </g>
   <g id="line2d_32">
    <path clip-path="url(#pb48a66f238)" d="M 203.36501 279.782079 
" style="fill:none;stroke:#ff00ff;stroke-linecap:square;stroke-width:1.5;"/>
    <defs>
     <path d="M -12 12 
L 12 -12 
M -12 -12 
L 12 12 
" id="m1f6617f461" style="stroke:#ff00ff;stroke-width:3;"/>
    </defs>
    <g clip-path="url(#pb48a66f238)">
     <use style="fill:#ff00ff;stroke:#ff00ff;stroke-width:3;" x="203.36501" xlink:href="#m1f6617f461" y="279.782079"/>
    </g>
   </g>
   <g id="line2d_33">
    <defs>
     <path d="M 0 1.5 
C 0.397805 1.5 0.77937 1.341951 1.06066 1.06066 
C 1.341951 0.77937 1.5 0.397805 1.5 0 
C 1.5 -0.397805 1.341951 -0.77937 1.06066 -1.06066 
C 0.77937 -1.341951 0.397805 -1.5 0 -1.5 
C -0.397805 -1.5 -0.77937 -1.341951 -1.06066 -1.06066 
C -1.341951 -0.77937 -1.5 -0.397805 -1.5 0 
C -1.5 0.397805 -1.341951 0.77937 -1.06066 1.06066 
C -0.77937 1.341951 -0.397805 1.5 0 1.5 
z
" id="m8675923af1" style="stroke:#ffa500;"/>
    </defs>
    <g>
     <use style="fill:#ffa500;stroke:#ffa500;" x="254.926183" xlink:href="#m8675923af1" y="255.737243"/>
     <use style="fill:#ffa500;stroke:#ffa500;" x="254.926183" xlink:href="#m8675923af1" y="255.737243"/>
    </g>
   </g>
   <g id="line2d_34">
    <path d="M 76.131854 294.88 
L 76.131854 294.320818 
L 79.971009 294.320818 
L 79.971009 293.761636 
L 88.057358 293.761636 
L 88.057358 292.084089 
L 90.0838 292.084089 
L 90.0838 291.524907 
L 91.014019 291.524907 
L 91.014019 290.406542 
L 93.536312 290.406542 
L 93.536312 289.84736 
L 100.512285 289.84736 
L 100.512285 289.288178 
L 105.461817 289.288178 
L 105.461817 288.728995 
L 108.001874 288.728995 
L 108.001874 288.169813 
L 108.663681 288.169813 
L 108.663681 287.610631 
L 109.300972 287.610631 
L 109.300972 285.933084 
L 109.610977 285.933084 
L 109.610977 284.81472 
L 111.637419 284.81472 
L 111.637419 284.255537 
L 112.951406 284.255537 
L 112.951406 283.137173 
L 113.202576 283.137173 
L 113.202576 282.577991 
L 114.172121 282.577991 
L 114.172121 282.018808 
L 122.287906 282.018808 
L 122.287906 281.459626 
L 124.363294 281.459626 
L 124.363294 279.782079 
L 124.622019 279.782079 
L 124.622019 279.222897 
L 126.331709 279.222897 
L 126.331709 278.663715 
L 130.170864 278.663715 
L 130.170864 277.545351 
L 132.756449 277.545351 
L 132.756449 276.426986 
L 133.766505 276.426986 
L 133.766505 275.867804 
L 136.547523 275.867804 
L 136.547523 275.308622 
L 138.659348 275.308622 
L 138.659348 274.749439 
L 144.153781 274.749439 
L 144.153781 274.190257 
L 146.102113 274.190257 
L 146.102113 273.071893 
L 203.448027 273.071893 
L 203.448027 272.51271 
L 203.461167 272.51271 
L 203.461167 271.953528 
L 203.537185 271.953528 
L 203.537185 271.394346 
L 203.568543 271.394346 
L 203.568543 270.275981 
L 203.59463 270.275981 
L 203.59463 269.716799 
L 203.607659 269.716799 
L 203.607659 269.157617 
L 203.663572 269.157617 
L 203.663572 268.598435 
L 203.715421 268.598435 
L 203.715421 268.039252 
L 203.732239 268.039252 
L 203.732239 266.920888 
L 203.776145 266.920888 
L 203.776145 266.361706 
L 215.377474 266.361706 
L 215.377474 265.802523 
L 215.412267 265.802523 
L 215.412267 265.243341 
L 215.440443 265.243341 
L 215.440443 264.684159 
L 215.477069 264.684159 
L 215.477069 264.124977 
L 215.596215 264.124977 
L 215.596215 263.565795 
L 222.360893 263.565795 
L 222.360893 263.006612 
L 222.426016 263.006612 
L 222.426016 261.888248 
L 227.315788 261.888248 
L 227.315788 261.329066 
L 227.369548 261.329066 
L 227.369548 260.769883 
L 227.371512 260.769883 
L 227.371512 260.210701 
L 231.111879 260.210701 
L 231.111879 259.651519 
L 236.884092 259.651519 
L 236.884092 259.092337 
L 239.219445 259.092337 
L 239.219445 258.533154 
L 241.221305 258.533154 
L 241.221305 257.973972 
L 244.654187 257.973972 
L 244.654187 257.41479 
L 248.789911 257.41479 
L 248.789911 256.855608 
L 253.109239 256.855608 
L 253.109239 256.296425 
L 254.926183 256.296425 
L 254.926183 255.737243 
L 333.429677 255.737243 
" style="fill:none;stroke:#ffa500;stroke-linecap:square;stroke-width:1.5;"/>
   </g>
   <g id="line2d_35">
    <defs>
     <path d="M 0 -6 
L -1.347084 -1.854102 
L -5.706339 -1.854102 
L -2.179628 0.708204 
L -3.526712 4.854102 
L -0 2.291796 
L 3.526712 4.854102 
L 2.179628 0.708204 
L 5.706339 -1.854102 
L 1.347084 -1.854102 
z
" id="mfed7b2f3d8" style="stroke:#ffa500;stroke-linejoin:bevel;stroke-width:1.5;"/>
    </defs>
    <g>
     <use style="fill-opacity:0;stroke:#ffa500;stroke-linejoin:bevel;stroke-width:1.5;" x="114.172121" xlink:href="#mfed7b2f3d8" y="282.018808"/>
     <use style="fill-opacity:0;stroke:#ffa500;stroke-linejoin:bevel;stroke-width:1.5;" x="215.596215" xlink:href="#mfed7b2f3d8" y="264.124977"/>
     <use style="fill-opacity:0;stroke:#ffa500;stroke-linejoin:bevel;stroke-width:1.5;" x="254.926183" xlink:href="#mfed7b2f3d8" y="256.296425"/>
     <use style="fill-opacity:0;stroke:#ffa500;stroke-linejoin:bevel;stroke-width:1.5;" x="254.926183" xlink:href="#mfed7b2f3d8" y="255.737243"/>
     <use style="fill-opacity:0;stroke:#ffa500;stroke-linejoin:bevel;stroke-width:1.5;" x="333.429677" xlink:href="#mfed7b2f3d8" y="255.737243"/>
    </g>
   </g>
   <g id="line2d_36">
    <path style="fill:none;stroke:#ffa500;stroke-linecap:square;stroke-width:1.5;"/>
    <g/>
   </g>
   <g id="line2d_37">
    <path clip-path="url(#pb48a66f238)" d="M 203.36501 273.071893 
" style="fill:none;stroke:#ffa500;stroke-linecap:square;stroke-width:1.5;"/>
    <defs>
     <path d="M -12 12 
L 12 -12 
M -12 -12 
L 12 12 
" id="m2bc50c2418" style="stroke:#ffa500;stroke-width:3;"/>
    </defs>
    <g clip-path="url(#pb48a66f238)">
     <use style="fill:#ffa500;stroke:#ffa500;stroke-width:3;" x="203.36501" xlink:href="#m2bc50c2418" y="273.071893"/>
    </g>
   </g>
   <g id="line2d_38">
    <defs>
     <path d="M 0 1.5 
C 0.397805 1.5 0.77937 1.341951 1.06066 1.06066 
C 1.341951 0.77937 1.5 0.397805 1.5 0 
C 1.5 -0.397805 1.341951 -0.77937 1.06066 -1.06066 
C 0.77937 -1.341951 0.397805 -1.5 0 -1.5 
C -0.397805 -1.5 -0.77937 -1.341951 -1.06066 -1.06066 
C -1.341951 -0.77937 -1.5 -0.397805 -1.5 0 
C -1.5 0.397805 -1.341951 0.77937 -1.06066 1.06066 
C -0.77937 1.341951 -0.397805 1.5 0 1.5 
z
" id="m415d5b7d59" style="stroke:#6495ed;"/>
    </defs>
    <g>
     <use style="fill:#6495ed;stroke:#6495ed;" x="277.206237" xlink:href="#m415d5b7d59" y="238.961776"/>
     <use style="fill:#6495ed;stroke:#6495ed;" x="277.206237" xlink:href="#m415d5b7d59" y="238.961776"/>
    </g>
   </g>
   <g id="line2d_39">
    <path d="M 108.33596 294.88 
L 108.33596 294.320818 
L 108.985277 294.320818 
L 108.985277 292.643271 
L 109.300972 292.643271 
L 109.300972 289.84736 
L 109.915496 289.84736 
L 109.915496 289.288178 
L 110.214719 289.288178 
L 110.214719 288.728995 
L 111.082375 288.728995 
L 111.082375 288.169813 
L 113.202576 288.169813 
L 113.202576 287.610631 
L 115.531106 287.610631 
L 115.531106 285.933084 
L 117.964074 285.933084 
L 117.964074 285.373902 
L 120.589186 285.373902 
L 120.589186 284.255537 
L 120.910781 284.255537 
L 120.910781 283.696355 
L 121.226476 283.696355 
L 121.226476 283.137173 
L 121.689415 283.137173 
L 121.689415 282.577991 
L 123.562923 282.577991 
L 123.562923 282.018808 
L 125.252304 282.018808 
L 125.252304 281.459626 
L 127.565159 281.459626 
L 127.565159 280.900444 
L 129.603619 280.900444 
L 129.603619 280.341262 
L 133.766505 280.341262 
L 133.766505 279.782079 
L 134.065728 279.782079 
L 134.065728 279.222897 
L 134.862727 279.222897 
L 134.862727 278.663715 
L 136.288798 278.663715 
L 136.288798 278.104533 
L 137.665922 278.104533 
L 137.665922 277.545351 
L 137.785817 277.545351 
L 137.785817 276.986168 
L 138.94094 276.986168 
L 138.94094 276.426986 
L 139.652212 276.426986 
L 139.652212 275.867804 
L 157.408738 275.867804 
L 157.408738 274.749439 
L 160.558281 274.749439 
L 160.558281 273.631075 
L 165.028133 273.631075 
L 165.028133 273.071893 
L 166.440124 273.071893 
L 166.440124 272.51271 
L 203.611566 272.51271 
L 203.683034 269.157617 
L 203.741288 269.157617 
L 203.767115 267.48007 
L 204.515792 267.48007 
L 204.515792 266.920888 
L 205.064147 266.920888 
L 205.064147 266.361706 
L 205.267575 266.361706 
L 205.267575 265.802523 
L 207.470242 265.802523 
L 207.470242 265.243341 
L 215.478375 265.243341 
L 215.541627 263.565795 
L 215.875525 263.565795 
L 215.875525 262.44743 
L 216.268082 262.44743 
L 216.268082 261.888248 
L 222.358704 261.888248 
L 222.37315 260.769883 
L 222.736419 260.769883 
L 222.736419 260.210701 
L 227.291147 260.210701 
L 227.310206 259.092337 
L 227.569666 259.092337 
L 227.6732 257.41479 
L 231.129249 257.41479 
L 231.129249 256.855608 
L 231.408691 256.855608 
L 231.421885 255.178061 
L 234.235307 255.178061 
L 234.235307 254.618879 
L 237.013319 254.618879 
L 237.106866 253.500514 
L 237.129152 253.500514 
L 237.129152 252.941332 
L 239.319255 252.941332 
L 239.371632 251.263785 
L 241.365259 251.263785 
L 241.372658 250.145421 
L 243.031195 250.145421 
L 243.031195 249.586238 
L 243.180686 249.586238 
L 243.180686 249.027056 
L 244.664491 249.027056 
L 244.749919 247.908692 
L 244.802398 247.908692 
L 244.802398 246.790327 
L 246.271244 246.790327 
L 246.271244 246.231145 
L 247.523149 246.231145 
L 247.523149 245.671963 
L 250.05167 245.671963 
L 250.090248 244.553598 
L 253.19612 244.553598 
L 253.19612 243.994416 
L 254.120952 243.994416 
L 254.120952 243.435234 
L 254.998596 243.435234 
L 254.998596 242.876052 
L 255.813535 242.876052 
L 255.813535 242.316869 
L 257.38824 242.316869 
L 257.38824 241.757687 
L 265.074765 241.757687 
L 265.074765 241.198505 
L 267.713584 241.198505 
L 267.713584 240.639323 
L 269.644239 240.639323 
L 269.644239 240.08014 
L 273.552559 240.08014 
L 273.552559 239.520958 
L 277.206237 239.520958 
L 277.206237 238.961776 
L 333.429677 238.961776 
L 333.429677 238.961776 
" style="fill:none;stroke:#6495ed;stroke-linecap:square;stroke-width:1.5;"/>
   </g>
   <g id="line2d_40">
    <defs>
     <path d="M -0 6 
L 6 -6 
L -6 -6 
z
" id="m4f391440a9" style="stroke:#6495ed;stroke-linejoin:miter;stroke-width:1.5;"/>
    </defs>
    <g>
     <use style="fill-opacity:0;stroke:#6495ed;stroke-linejoin:miter;stroke-width:1.5;" x="166.440124" xlink:href="#m4f391440a9" y="272.51271"/>
     <use style="fill-opacity:0;stroke:#6495ed;stroke-linejoin:miter;stroke-width:1.5;" x="269.644239" xlink:href="#m4f391440a9" y="240.08014"/>
     <use style="fill-opacity:0;stroke:#6495ed;stroke-linejoin:miter;stroke-width:1.5;" x="277.206237" xlink:href="#m4f391440a9" y="238.961776"/>
     <use style="fill-opacity:0;stroke:#6495ed;stroke-linejoin:miter;stroke-width:1.5;" x="277.206237" xlink:href="#m4f391440a9" y="238.961776"/>
     <use style="fill-opacity:0;stroke:#6495ed;stroke-linejoin:miter;stroke-width:1.5;" x="333.429677" xlink:href="#m4f391440a9" y="238.961776"/>
    </g>
   </g>
   <g id="line2d_41">
    <path style="fill:none;stroke:#6495ed;stroke-linecap:square;stroke-width:1.5;"/>
    <g/>
   </g>
   <g id="line2d_42">
    <path clip-path="url(#pb48a66f238)" d="M 203.36501 272.51271 
" style="fill:none;stroke:#6495ed;stroke-linecap:square;stroke-width:1.5;"/>
    <defs>
     <path d="M -12 12 
L 12 -12 
M -12 -12 
L 12 12 
" id="mf4c22c32d1" style="stroke:#6495ed;stroke-width:3;"/>
    </defs>
    <g clip-path="url(#pb48a66f238)">
     <use style="fill:#6495ed;stroke:#6495ed;stroke-width:3;" x="203.36501" xlink:href="#mf4c22c32d1" y="272.51271"/>
    </g>
   </g>
   <g id="line2d_43">
    <defs>
     <path d="M 0 1.5 
C 0.397805 1.5 0.77937 1.341951 1.06066 1.06066 
C 1.341951 0.77937 1.5 0.397805 1.5 0 
C 1.5 -0.397805 1.341951 -0.77937 1.06066 -1.06066 
C 0.77937 -1.341951 0.397805 -1.5 0 -1.5 
C -0.397805 -1.5 -0.77937 -1.341951 -1.06066 -1.06066 
C -1.341951 -0.77937 -1.5 -0.397805 -1.5 0 
C -1.5 0.397805 -1.341951 0.77937 -1.06066 1.06066 
C -0.77937 1.341951 -0.397805 1.5 0 1.5 
z
" id="m99aa210f06" style="stroke:#ff0000;"/>
    </defs>
    <g>
     <use style="fill:#ff0000;stroke:#ff0000;" x="234.221687" xlink:href="#m99aa210f06" y="9.697057"/>
     <use style="fill:#ff0000;stroke:#ff0000;" x="234.221687" xlink:href="#m99aa210f06" y="9.697057"/>
    </g>
   </g>
   <g id="line2d_44">
    <path d="M 40.355341 294.88 
L 40.355341 292.643271 
L 52.280845 292.643271 
L 52.280845 290.965724 
L 59.256818 290.965724 
L 59.256818 289.288178 
L 64.20635 289.288178 
L 64.20635 287.610631 
L 68.045504 287.610631 
L 68.045504 286.492266 
L 71.182322 286.492266 
L 71.182322 284.255537 
L 76.131854 284.255537 
L 76.131854 283.696355 
L 78.158295 283.696355 
L 78.158295 283.137173 
L 79.971009 283.137173 
L 79.971009 282.018808 
L 85.759969 282.018808 
L 85.759969 281.459626 
L 90.0838 281.459626 
L 90.0838 280.341262 
L 99.982863 280.341262 
L 99.982863 279.782079 
L 108.001874 279.782079 
L 108.001874 276.986168 
L 108.33596 276.986168 
L 108.33596 274.190257 
L 108.985277 274.190257 
L 108.985277 273.071893 
L 110.214719 273.071893 
L 110.214719 272.51271 
L 110.508826 272.51271 
L 110.508826 271.953528 
L 111.082375 271.953528 
L 111.082375 271.394346 
L 115.747522 271.394346 
L 115.747522 270.835164 
L 116.380902 270.835164 
L 116.380902 269.157617 
L 117.190692 269.157617 
L 117.190692 268.598435 
L 120.426105 268.598435 
L 120.426105 268.039252 
L 121.226476 268.039252 
L 121.226476 266.920888 
L 122.434331 266.920888 
L 122.434331 266.361706 
L 123.967762 266.361706 
L 123.967762 265.243341 
L 127.126794 265.243341 
L 127.126794 264.124977 
L 127.565159 264.124977 
L 127.565159 263.006612 
L 128.917294 263.006612 
L 128.917294 262.44743 
L 132.186969 262.44743 
L 132.186969 261.888248 
L 133.307682 261.888248 
L 133.385007 247.908692 
L 133.614919 247.908692 
L 133.614919 247.34951 
L 135.959823 247.34951 
L 135.959823 245.671963 
L 136.223505 245.671963 
L 136.223505 243.994416 
L 136.928458 243.994416 
L 136.928458 243.435234 
L 138.772539 243.435234 
L 138.772539 242.316869 
L 139.107709 242.316869 
L 139.107709 240.639323 
L 139.918135 240.639323 
L 139.918135 240.08014 
L 141.815083 240.08014 
L 141.815083 239.520958 
L 142.555192 239.520958 
L 142.600408 237.843411 
L 144.071065 237.843411 
L 144.071065 237.284229 
L 144.480724 237.284229 
L 144.480724 236.725047 
L 146.138914 236.725047 
L 146.212283 223.863855 
L 146.28534 223.863855 
L 146.28534 222.186309 
L 146.430529 222.186309 
L 146.430529 221.627126 
L 148.017674 221.627126 
L 148.017674 220.508762 
L 149.561322 220.508762 
L 149.561322 219.94958 
L 149.711322 219.94958 
L 149.711322 219.390397 
L 150.124495 219.390397 
L 150.124495 218.831215 
L 151.088446 218.831215 
L 151.088446 218.272033 
L 151.443198 218.272033 
L 151.443198 217.153669 
L 152.4401 217.153669 
L 152.516397 214.357757 
L 152.693117 214.357757 
L 152.718216 212.680211 
L 152.868041 212.680211 
L 152.868041 212.121028 
L 153.139378 212.121028 
L 153.139378 211.561846 
L 153.811341 211.561846 
L 153.858349 209.884299 
L 155.081315 209.884299 
L 155.081315 209.325117 
L 156.983427 209.325117 
L 157.081016 208.206753 
L 159.92669 208.206753 
L 159.92669 207.64757 
L 163.123886 207.64757 
L 163.123886 207.088388 
L 163.755945 207.088388 
L 163.755945 206.529206 
L 164.880345 206.529206 
L 164.880345 205.970024 
L 165.666092 205.970024 
L 165.666092 204.851659 
L 166.326785 204.851659 
L 166.338152 203.733295 
L 166.530261 203.733295 
L 166.530261 202.055748 
L 166.675734 202.055748 
L 166.675734 190.872103 
L 167.491799 190.872103 
L 167.566027 188.635374 
L 167.818117 188.635374 
L 167.818117 179.688458 
L 169.074505 179.688458 
L 169.074505 178.570094 
L 170.108989 178.570094 
L 170.108989 178.010912 
L 170.568293 178.010912 
L 170.568293 177.451729 
L 171.04161 177.451729 
L 171.04161 176.892547 
L 171.794363 176.892547 
L 171.893384 173.537454 
L 172.649941 173.537454 
L 172.649941 172.978271 
L 173.039208 172.978271 
L 173.039208 172.419089 
L 173.434914 172.419089 
L 173.472488 154.525258 
L 173.829078 154.525258 
L 173.829078 153.966075 
L 175.982493 153.966075 
L 175.982493 153.406893 
L 176.32294 153.406893 
L 176.32294 152.847711 
L 177.245459 152.847711 
L 177.245459 152.288529 
L 178.495052 152.288529 
L 178.495052 151.729346 
L 179.251794 151.729346 
L 179.251794 150.610982 
L 179.64952 150.610982 
L 179.64952 150.0518 
L 180.226849 150.0518 
L 180.226849 149.492617 
L 180.672194 149.492617 
L 180.672194 147.815071 
L 181.426024 147.815071 
L 181.426024 147.255888 
L 182.148207 147.255888 
L 182.148207 146.696706 
L 182.346536 146.696706 
L 182.386823 145.578342 
L 182.617765 145.578342 
L 182.635402 143.341613 
L 182.845647 143.341613 
L 182.858702 137.74979 
L 183.156275 137.74979 
L 183.156275 137.190608 
L 183.296793 137.190608 
L 183.296793 133.835515 
L 183.595284 133.835515 
L 183.595284 133.276332 
L 186.712641 133.276332 
L 186.712641 132.71715 
L 186.87874 132.71715 
L 186.87874 132.157968 
L 187.06711 132.157968 
L 187.06711 131.598786 
L 187.236584 131.598786 
L 187.236584 118.737594 
L 190.41495 118.737594 
L 190.41495 118.178412 
L 190.99121 118.178412 
L 191.099332 115.941683 
L 191.26559 115.941683 
L 191.364048 103.639674 
L 191.721183 103.639674 
L 191.721183 103.080491 
L 197.906518 103.080491 
L 197.906518 102.521309 
L 198.063625 102.521309 
L 198.151483 100.28458 
L 198.183645 100.28458 
L 198.183645 88.541753 
L 200.087869 88.541753 
L 200.087869 87.982571 
L 203.195097 87.982571 
L 203.195097 86.864206 
L 203.459854 86.864206 
L 203.534569 84.627477 
L 203.655781 84.627477 
L 203.723185 80.15402 
L 203.913595 80.15402 
L 203.972349 76.239744 
L 204.041067 76.239744 
L 204.041067 75.680562 
L 204.186502 75.680562 
L 204.23429 74.562197 
L 204.304473 74.562197 
L 204.374371 73.443833 
L 205.003008 73.443833 
L 205.030607 72.325468 
L 205.207155 72.325468 
L 205.292392 68.411192 
L 205.388956 68.411192 
L 205.417117 63.378552 
L 205.866095 63.378552 
L 205.866095 62.81937 
L 206.148177 62.81937 
L 206.151547 56.668365 
L 206.611553 56.668365 
L 206.611553 56.109183 
L 207.335489 56.109183 
L 207.442125 54.990819 
L 207.875395 54.990819 
L 207.927149 53.313272 
L 207.996921 53.313272 
L 207.996921 52.194907 
L 209.050819 52.194907 
L 209.050819 46.043903 
L 209.389175 46.043903 
L 209.389175 45.484721 
L 210.104686 45.484721 
L 210.192845 44.366356 
L 210.315867 44.366356 
L 210.315867 39.892898 
L 212.832547 39.892898 
L 212.89415 35.978622 
L 215.383388 35.978622 
L 215.436514 34.301076 
L 215.531861 34.301076 
L 215.596864 32.623529 
L 215.702295 32.623529 
L 215.737081 31.505165 
L 216.281181 31.505165 
L 216.281181 30.945982 
L 216.740136 30.945982 
L 216.740136 29.827618 
L 217.660895 29.827618 
L 217.722358 27.031707 
L 218.367236 27.031707 
L 218.367236 22.558249 
L 219.114604 22.558249 
L 219.114604 19.762337 
L 220.70655 19.762337 
L 220.70655 18.084791 
L 222.471325 18.084791 
L 222.471325 17.525609 
L 222.933229 17.525609 
L 222.933229 16.966426 
L 223.246343 16.966426 
L 223.246343 16.407244 
L 223.925289 16.407244 
L 223.925289 15.28888 
L 224.377503 15.28888 
L 224.377503 14.729697 
L 224.90787 14.729697 
L 224.90787 13.611333 
L 226.059525 13.611333 
L 226.059525 12.492968 
L 227.289174 12.492968 
L 227.289174 11.933786 
L 227.718481 11.933786 
L 227.718481 11.374604 
L 229.234092 11.374604 
L 229.234092 10.815422 
L 231.113723 10.815422 
L 231.113723 10.256239 
L 234.221687 10.256239 
L 234.221687 9.697057 
L 333.429677 9.697057 
L 333.429677 9.697057 
" style="fill:none;stroke:#ff0000;stroke-linecap:square;stroke-width:1.5;"/>
   </g>
   <g id="line2d_45">
    <defs>
     <path d="M 0 -6 
L -5.196152 -3 
L -5.196152 3 
L -0 6 
L 5.196152 3 
L 5.196152 -3 
z
" id="m6b286624a0" style="stroke:#ff0000;stroke-linejoin:miter;stroke-width:1.5;"/>
    </defs>
    <g>
     <use style="fill-opacity:0;stroke:#ff0000;stroke-linejoin:miter;stroke-width:1.5;" x="99.982863" xlink:href="#m6b286624a0" y="280.341262"/>
     <use style="fill-opacity:0;stroke:#ff0000;stroke-linejoin:miter;stroke-width:1.5;" x="173.039208" xlink:href="#m6b286624a0" y="172.978271"/>
     <use style="fill-opacity:0;stroke:#ff0000;stroke-linejoin:miter;stroke-width:1.5;" x="203.534569" xlink:href="#m6b286624a0" y="84.627477"/>
     <use style="fill-opacity:0;stroke:#ff0000;stroke-linejoin:miter;stroke-width:1.5;" x="234.221687" xlink:href="#m6b286624a0" y="9.697057"/>
     <use style="fill-opacity:0;stroke:#ff0000;stroke-linejoin:miter;stroke-width:1.5;" x="234.221687" xlink:href="#m6b286624a0" y="9.697057"/>
     <use style="fill-opacity:0;stroke:#ff0000;stroke-linejoin:miter;stroke-width:1.5;" x="333.429677" xlink:href="#m6b286624a0" y="9.697057"/>
    </g>
   </g>
   <g id="line2d_46">
    <path style="fill:none;stroke:#ff0000;stroke-linecap:square;stroke-width:1.5;"/>
    <g/>
   </g>
   <g id="line2d_47">
    <path clip-path="url(#pb48a66f238)" d="M 203.36501 86.864206 
" style="fill:none;stroke:#ff0000;stroke-linecap:square;stroke-width:1.5;"/>
    <defs>
     <path d="M -12 12 
L 12 -12 
M -12 -12 
L 12 12 
" id="m8ff1aa385b" style="stroke:#ff0000;stroke-width:3;"/>
    </defs>
    <g clip-path="url(#pb48a66f238)">
     <use style="fill:#ff0000;stroke:#ff0000;stroke-width:3;" x="203.36501" xlink:href="#m8ff1aa385b" y="86.864206"/>
    </g>
   </g>
   <g id="line2d_48">
    <path d="M 333.429677 255.737243 
L 363.933742 289.176341 
" style="fill:none;stroke:#ffa500;stroke-linecap:square;stroke-width:1.5;"/>
    <g>
     <use style="fill-opacity:0;stroke:#ffa500;stroke-linejoin:bevel;stroke-width:1.5;" x="333.429677" xlink:href="#mfed7b2f3d8" y="255.737243"/>
     <use style="fill-opacity:0;stroke:#ffa500;stroke-linejoin:bevel;stroke-width:1.5;" x="363.933742" xlink:href="#mfed7b2f3d8" y="289.176341"/>
    </g>
   </g>
   <g id="line2d_49">
    <path d="M 333.429677 244.553598 
L 363.933742 220.732435 
" style="fill:none;stroke:#ff00ff;stroke-linecap:square;stroke-width:1.5;"/>
    <g>
     <use style="fill-opacity:0;stroke:#ff00ff;stroke-linejoin:miter;stroke-width:1.5;" x="333.429677" xlink:href="#m6608303df0" y="244.553598"/>
     <use style="fill-opacity:0;stroke:#ff00ff;stroke-linejoin:miter;stroke-width:1.5;" x="363.933742" xlink:href="#m6608303df0" y="220.732435"/>
    </g>
   </g>
   <g id="line2d_50">
    <path d="M 333.429677 238.961776 
L 363.933742 152.288529 
" style="fill:none;stroke:#6495ed;stroke-linecap:square;stroke-width:1.5;"/>
    <g>
     <use style="fill-opacity:0;stroke:#6495ed;stroke-linejoin:miter;stroke-width:1.5;" x="333.429677" xlink:href="#m4f391440a9" y="238.961776"/>
     <use style="fill-opacity:0;stroke:#6495ed;stroke-linejoin:miter;stroke-width:1.5;" x="363.933742" xlink:href="#m4f391440a9" y="152.288529"/>
    </g>
   </g>
   <g id="line2d_51">
    <path d="M 333.429677 65.615281 
L 363.933742 83.844622 
" style="fill:none;stroke:#000080;stroke-linecap:square;stroke-width:1.5;"/>
    <g>
     <use style="fill-opacity:0;stroke:#000080;stroke-width:1.5;" x="333.429677" xlink:href="#m8bb7799b3a" y="65.615281"/>
     <use style="fill-opacity:0;stroke:#000080;stroke-width:1.5;" x="363.933742" xlink:href="#m8bb7799b3a" y="83.844622"/>
    </g>
   </g>
   <g id="line2d_52">
    <path d="M 333.429677 9.697057 
L 363.933742 15.400716 
" style="fill:none;stroke:#ff0000;stroke-linecap:square;stroke-width:1.5;"/>
    <g>
     <use style="fill-opacity:0;stroke:#ff0000;stroke-linejoin:miter;stroke-width:1.5;" x="333.429677" xlink:href="#m6b286624a0" y="9.697057"/>
     <use style="fill-opacity:0;stroke:#ff0000;stroke-linejoin:miter;stroke-width:1.5;" x="363.933742" xlink:href="#m6b286624a0" y="15.400716"/>
    </g>
   </g>
   <g id="line2d_53">
    <path d="M 333.429677 294.88 
L 333.429677 9.697057 
" style="fill:none;stroke:#000000;stroke-linecap:square;stroke-width:1.5;"/>
   </g>
   <g id="patch_3">
    <path d="M 56.12 294.88 
L 56.12 6.845228 
" style="fill:none;stroke:#000000;stroke-linecap:square;stroke-linejoin:miter;stroke-width:0.8;"/>
   </g>
   <g id="patch_4">
    <path d="M 399.984 294.88 
L 399.984 6.845228 
" style="fill:none;stroke:#000000;stroke-linecap:square;stroke-linejoin:miter;stroke-width:0.8;"/>
   </g>
   <g id="patch_5">
    <path d="M 56.12 294.88 
L 399.984 294.88 
" style="fill:none;stroke:#000000;stroke-linecap:square;stroke-linejoin:miter;stroke-width:0.8;"/>
   </g>
   <g id="patch_6">
    <path d="M 56.12 6.845228 
L 399.984 6.845228 
" style="fill:none;stroke:#000000;stroke-linecap:square;stroke-linejoin:miter;stroke-width:0.8;"/>
   </g>
   <g id="text_14">
    <!-- f3 -->
    <defs>
     <path d="M 40.578125 39.3125 
Q 47.65625 37.796875 51.625 33 
Q 55.609375 28.21875 55.609375 21.1875 
Q 55.609375 10.40625 48.1875 4.484375 
Q 40.765625 -1.421875 27.09375 -1.421875 
Q 22.515625 -1.421875 17.65625 -0.515625 
Q 12.796875 0.390625 7.625 2.203125 
L 7.625 11.71875 
Q 11.71875 9.328125 16.59375 8.109375 
Q 21.484375 6.890625 26.8125 6.890625 
Q 36.078125 6.890625 40.9375 10.546875 
Q 45.796875 14.203125 45.796875 21.1875 
Q 45.796875 27.640625 41.28125 31.265625 
Q 36.765625 34.90625 28.71875 34.90625 
L 20.21875 34.90625 
L 20.21875 43.015625 
L 29.109375 43.015625 
Q 36.375 43.015625 40.234375 45.921875 
Q 44.09375 48.828125 44.09375 54.296875 
Q 44.09375 59.90625 40.109375 62.90625 
Q 36.140625 65.921875 28.71875 65.921875 
Q 24.65625 65.921875 20.015625 65.03125 
Q 15.375 64.15625 9.8125 62.3125 
L 9.8125 71.09375 
Q 15.4375 72.65625 20.34375 73.4375 
Q 25.25 74.21875 29.59375 74.21875 
Q 40.828125 74.21875 47.359375 69.109375 
Q 53.90625 64.015625 53.90625 55.328125 
Q 53.90625 49.265625 50.4375 45.09375 
Q 46.96875 40.921875 40.578125 39.3125 
z
" id="DejaVuSans-33"/>
    </defs>
    <g transform="translate(369.479935 293.867279)scale(0.17 -0.17)">
     <use xlink:href="#DejaVuSans-66"/>
     <use x="35.205078" xlink:href="#DejaVuSans-33"/>
    </g>
   </g>
   <g id="text_15">
    <!-- f2 -->
    <g transform="translate(369.479935 225.423372)scale(0.17 -0.17)">
     <use xlink:href="#DejaVuSans-66"/>
     <use x="35.205078" xlink:href="#DejaVuSans-32"/>
    </g>
   </g>
   <g id="text_16">
    <!-- f4 -->
    <g transform="translate(369.479935 156.979466)scale(0.17 -0.17)">
     <use xlink:href="#DejaVuSans-66"/>
     <use x="35.205078" xlink:href="#DejaVuSans-34"/>
    </g>
   </g>
   <g id="text_17">
    <!-- f1 -->
    <g transform="translate(369.479935 88.53556)scale(0.17 -0.17)">
     <use xlink:href="#DejaVuSans-66"/>
     <use x="35.205078" xlink:href="#DejaVuSans-31"/>
    </g>
   </g>
   <g id="text_18">
    <!-- f5 -->
    <defs>
     <path d="M 10.796875 72.90625 
L 49.515625 72.90625 
L 49.515625 64.59375 
L 19.828125 64.59375 
L 19.828125 46.734375 
Q 21.96875 47.46875 24.109375 47.828125 
Q 26.265625 48.1875 28.421875 48.1875 
Q 40.625 48.1875 47.75 41.5 
Q 54.890625 34.8125 54.890625 23.390625 
Q 54.890625 11.625 47.5625 5.09375 
Q 40.234375 -1.421875 26.90625 -1.421875 
Q 22.3125 -1.421875 17.546875 -0.640625 
Q 12.796875 0.140625 7.71875 1.703125 
L 7.71875 11.625 
Q 12.109375 9.234375 16.796875 8.0625 
Q 21.484375 6.890625 26.703125 6.890625 
Q 35.15625 6.890625 40.078125 11.328125 
Q 45.015625 15.765625 45.015625 23.390625 
Q 45.015625 31 40.078125 35.4375 
Q 35.15625 39.890625 26.703125 39.890625 
Q 22.75 39.890625 18.8125 39.015625 
Q 14.890625 38.140625 10.796875 36.28125 
z
" id="DejaVuSans-35"/>
    </defs>
    <g transform="translate(369.479935 20.091654)scale(0.17 -0.17)">
     <use xlink:href="#DejaVuSans-66"/>
     <use x="35.205078" xlink:href="#DejaVuSans-35"/>
    </g>
   </g>
   <g id="text_19">
    <!-- bbob -->
    <defs>
     <path d="M 48.6875 27.296875 
Q 48.6875 37.203125 44.609375 42.84375 
Q 40.53125 48.484375 33.40625 48.484375 
Q 26.265625 48.484375 22.1875 42.84375 
Q 18.109375 37.203125 18.109375 27.296875 
Q 18.109375 17.390625 22.1875 11.75 
Q 26.265625 6.109375 33.40625 6.109375 
Q 40.53125 6.109375 44.609375 11.75 
Q 48.6875 17.390625 48.6875 27.296875 
z
M 18.109375 46.390625 
Q 20.953125 51.265625 25.265625 53.625 
Q 29.59375 56 35.59375 56 
Q 45.5625 56 51.78125 48.09375 
Q 58.015625 40.1875 58.015625 27.296875 
Q 58.015625 14.40625 51.78125 6.484375 
Q 45.5625 -1.421875 35.59375 -1.421875 
Q 29.59375 -1.421875 25.265625 0.953125 
Q 20.953125 3.328125 18.109375 8.203125 
L 18.109375 0 
L 9.078125 0 
L 9.078125 75.984375 
L 18.109375 75.984375 
z
" id="DejaVuSans-62"/>
    </defs>
    <g transform="translate(59.55864 17.475982)scale(0.102 -0.102)">
     <use xlink:href="#DejaVuSans-62"/>
     <use x="63.476562" xlink:href="#DejaVuSans-62"/>
     <use x="126.953125" xlink:href="#DejaVuSans-6f"/>
     <use x="188.134766" xlink:href="#DejaVuSans-62"/>
    </g>
    <!-- Separable functions, 5-D -->
    <defs>
     <path d="M 53.515625 70.515625 
L 53.515625 60.890625 
Q 47.90625 63.578125 42.921875 64.890625 
Q 37.9375 66.21875 33.296875 66.21875 
Q 25.25 66.21875 20.875 63.09375 
Q 16.5 59.96875 16.5 54.203125 
Q 16.5 49.359375 19.40625 46.890625 
Q 22.3125 44.4375 30.421875 42.921875 
L 36.375 41.703125 
Q 47.40625 39.59375 52.65625 34.296875 
Q 57.90625 29 57.90625 20.125 
Q 57.90625 9.515625 50.796875 4.046875 
Q 43.703125 -1.421875 29.984375 -1.421875 
Q 24.8125 -1.421875 18.96875 -0.25 
Q 13.140625 0.921875 6.890625 3.21875 
L 6.890625 13.375 
Q 12.890625 10.015625 18.65625 8.296875 
Q 24.421875 6.59375 29.984375 6.59375 
Q 38.421875 6.59375 43.015625 9.90625 
Q 47.609375 13.234375 47.609375 19.390625 
Q 47.609375 24.75 44.3125 27.78125 
Q 41.015625 30.8125 33.5 32.328125 
L 27.484375 33.5 
Q 16.453125 35.6875 11.515625 40.375 
Q 6.59375 45.0625 6.59375 53.421875 
Q 6.59375 63.09375 13.40625 68.65625 
Q 20.21875 74.21875 32.171875 74.21875 
Q 37.3125 74.21875 42.625 73.28125 
Q 47.953125 72.359375 53.515625 70.515625 
z
" id="DejaVuSans-53"/>
     <path d="M 19.671875 64.796875 
L 19.671875 8.109375 
L 31.59375 8.109375 
Q 46.6875 8.109375 53.6875 14.9375 
Q 60.6875 21.78125 60.6875 36.53125 
Q 60.6875 51.171875 53.6875 57.984375 
Q 46.6875 64.796875 31.59375 64.796875 
z
M 9.8125 72.90625 
L 30.078125 72.90625 
Q 51.265625 72.90625 61.171875 64.09375 
Q 71.09375 55.28125 71.09375 36.53125 
Q 71.09375 17.671875 61.125 8.828125 
Q 51.171875 0 30.078125 0 
L 9.8125 0 
z
" id="DejaVuSans-44"/>
    </defs>
    <g transform="translate(59.55864 28.89775)scale(0.102 -0.102)">
     <use xlink:href="#DejaVuSans-53"/>
     <use x="63.476562" xlink:href="#DejaVuSans-65"/>
     <use x="125" xlink:href="#DejaVuSans-70"/>
     <use x="188.476562" xlink:href="#DejaVuSans-61"/>
     <use x="249.755859" xlink:href="#DejaVuSans-72"/>
     <use x="290.869141" xlink:href="#DejaVuSans-61"/>
     <use x="352.148438" xlink:href="#DejaVuSans-62"/>
     <use x="415.625" xlink:href="#DejaVuSans-6c"/>
     <use x="443.408203" xlink:href="#DejaVuSans-65"/>
     <use x="504.931641" xlink:href="#DejaVuSans-20"/>
     <use x="536.71875" xlink:href="#DejaVuSans-66"/>
     <use x="571.923828" xlink:href="#DejaVuSans-75"/>
     <use x="635.302734" xlink:href="#DejaVuSans-6e"/>
     <use x="698.681641" xlink:href="#DejaVuSans-63"/>
     <use x="753.662109" xlink:href="#DejaVuSans-74"/>
     <use x="792.871094" xlink:href="#DejaVuSans-69"/>
     <use x="820.654297" xlink:href="#DejaVuSans-6f"/>
     <use x="881.835938" xlink:href="#DejaVuSans-6e"/>
     <use x="945.214844" xlink:href="#DejaVuSans-73"/>
     <use x="997.314453" xlink:href="#DejaVuSans-2c"/>
     <use x="1029.101562" xlink:href="#DejaVuSans-20"/>
     <use x="1060.888672" xlink:href="#DejaVuSans-35"/>
     <use x="1124.511719" xlink:href="#DejaVuSans-2d"/>
     <use x="1160.595703" xlink:href="#DejaVuSans-44"/>
    </g>
    <!-- 51 targets: 100..1e-08 -->
    <defs>
     <path d="M 11.71875 12.40625 
L 22.015625 12.40625 
L 22.015625 0 
L 11.71875 0 
z
M 11.71875 51.703125 
L 22.015625 51.703125 
L 22.015625 39.3125 
L 11.71875 39.3125 
z
" id="DejaVuSans-3a"/>
    </defs>
    <g transform="translate(59.55864 40.319519)scale(0.102 -0.102)">
     <use xlink:href="#DejaVuSans-35"/>
     <use x="63.623047" xlink:href="#DejaVuSans-31"/>
     <use x="127.246094" xlink:href="#DejaVuSans-20"/>
     <use x="159.033203" xlink:href="#DejaVuSans-74"/>
     <use x="198.242188" xlink:href="#DejaVuSans-61"/>
     <use x="259.521484" xlink:href="#DejaVuSans-72"/>
     <use x="300.619141" xlink:href="#DejaVuSans-67"/>
     <use x="364.095703" xlink:href="#DejaVuSans-65"/>
     <use x="425.619141" xlink:href="#DejaVuSans-74"/>
     <use x="464.828125" xlink:href="#DejaVuSans-73"/>
     <use x="516.927734" xlink:href="#DejaVuSans-3a"/>
     <use x="550.619141" xlink:href="#DejaVuSans-20"/>
     <use x="582.40625" xlink:href="#DejaVuSans-31"/>
     <use x="646.029297" xlink:href="#DejaVuSans-30"/>
     <use x="709.652344" xlink:href="#DejaVuSans-30"/>
     <use x="773.275391" xlink:href="#DejaVuSans-2e"/>
     <use x="805.0625" xlink:href="#DejaVuSans-2e"/>
     <use x="836.849609" xlink:href="#DejaVuSans-31"/>
     <use x="900.472656" xlink:href="#DejaVuSans-65"/>
     <use x="961.996094" xlink:href="#DejaVuSans-2d"/>
     <use x="998.080078" xlink:href="#DejaVuSans-30"/>
     <use x="1061.703125" xlink:href="#DejaVuSans-38"/>
    </g>
    <!-- 15 instances -->
    <g transform="translate(59.55864 51.741288)scale(0.102 -0.102)">
     <use xlink:href="#DejaVuSans-31"/>
     <use x="63.623047" xlink:href="#DejaVuSans-35"/>
     <use x="127.246094" xlink:href="#DejaVuSans-20"/>
     <use x="159.033203" xlink:href="#DejaVuSans-69"/>
     <use x="186.816406" xlink:href="#DejaVuSans-6e"/>
     <use x="250.195312" xlink:href="#DejaVuSans-73"/>
     <use x="302.294922" xlink:href="#DejaVuSans-74"/>
     <use x="341.503906" xlink:href="#DejaVuSans-61"/>
     <use x="402.783203" xlink:href="#DejaVuSans-6e"/>
     <use x="466.162109" xlink:href="#DejaVuSans-63"/>
     <use x="521.142578" xlink:href="#DejaVuSans-65"/>
     <use x="582.666016" xlink:href="#DejaVuSans-73"/>
    </g>
   </g>
   <g id="text_20">
    <!-- v2.2.1.10 -->
    <g style="fill:#808080;" transform="translate(204.419188 289.919965)scale(0.1 -0.1)">
     <use xlink:href="#DejaVuSans-76"/>
     <use x="59.179688" xlink:href="#DejaVuSans-32"/>
     <use x="122.802734" xlink:href="#DejaVuSans-2e"/>
     <use x="154.589844" xlink:href="#DejaVuSans-32"/>
     <use x="218.212891" xlink:href="#DejaVuSans-2e"/>
     <use x="250" xlink:href="#DejaVuSans-31"/>
     <use x="313.623047" xlink:href="#DejaVuSans-2e"/>
     <use x="345.410156" xlink:href="#DejaVuSans-31"/>
     <use x="409.033203" xlink:href="#DejaVuSans-30"/>
    </g>
   </g>
  </g>
 </g>
 <defs>
  <clipPath id="pb48a66f238">
   <rect height="288.034772" width="343.864" x="56.12" y="6.845228"/>
  </clipPath>
 </defs>
</svg>
