<?xml version="1.0" encoding="utf-8" standalone="no"?>
<!DOCTYPE svg PUBLIC "-//W3C//DTD SVG 1.1//EN"
  "http://www.w3.org/Graphics/SVG/1.1/DTD/svg11.dtd">
<!-- Created with matplotlib (http://matplotlib.org/) -->
<svg height="345.6pt" version="1.1" viewBox="0 0 460.8 345.6" width="460.8pt" xmlns="http://www.w3.org/2000/svg" xmlns:xlink="http://www.w3.org/1999/xlink">
 <defs>
  <style type="text/css">
*{stroke-linecap:butt;stroke-linejoin:round;}
  </style>
 </defs>
 <g id="figure_1">
  <g id="patch_1">
   <path d="M 0 345.6 
L 460.8 345.6 
L 460.8 0 
L 0 0 
z
" style="fill:#ffffff;"/>
  </g>
  <g id="axes_1">
   <g id="patch_2">
    <path d="M 56.12 294.88 
L 399.984 294.88 
L 399.984 6.845228 
L 56.12 6.845228 
z
" style="fill:#ffffff;"/>
   </g>
   <g id="matplotlib.axis_1">
    <g id="xtick_1">
     <g id="line2d_1">
      <path clip-path="url(#p49a9676e67)" d="M 56.12 294.88 
L 56.12 6.845228 
" style="fill:none;stroke:#b0b0b0;stroke-linecap:square;stroke-width:0.8;"/>
     </g>
     <g id="line2d_2">
      <defs>
       <path d="M 0 0 
L 0 3.5 
" id="m95db91ab72" style="stroke:#000000;stroke-width:0.8;"/>
      </defs>
      <g>
       <use style="stroke:#000000;stroke-width:0.8;" x="56.12" xlink:href="#m95db91ab72" y="294.88"/>
      </g>
     </g>
     <g id="text_1">
      <!-- 0 -->
      <defs>
       <path d="M 31.78125 66.40625 
Q 24.171875 66.40625 20.328125 58.90625 
Q 16.5 51.421875 16.5 36.375 
Q 16.5 21.390625 20.328125 13.890625 
Q 24.171875 6.390625 31.78125 6.390625 
Q 39.453125 6.390625 43.28125 13.890625 
Q 47.125 21.390625 47.125 36.375 
Q 47.125 51.421875 43.28125 58.90625 
Q 39.453125 66.40625 31.78125 66.40625 
z
M 31.78125 74.21875 
Q 44.046875 74.21875 50.515625 64.515625 
Q 56.984375 54.828125 56.984375 36.375 
Q 56.984375 17.96875 50.515625 8.265625 
Q 44.046875 -1.421875 31.78125 -1.421875 
Q 19.53125 -1.421875 13.0625 8.265625 
Q 6.59375 17.96875 6.59375 36.375 
Q 6.59375 54.828125 13.0625 64.515625 
Q 19.53125 74.21875 31.78125 74.21875 
z
" id="DejaVuSans-30"/>
      </defs>
      <g transform="translate(49.7575 317.076875)scale(0.2 -0.2)">
       <use xlink:href="#DejaVuSans-30"/>
      </g>
     </g>
    </g>
    <g id="xtick_2">
     <g id="line2d_3">
      <path clip-path="url(#p49a9676e67)" d="M 135.351336 294.88 
L 135.351336 6.845228 
" style="fill:none;stroke:#b0b0b0;stroke-linecap:square;stroke-width:0.8;"/>
     </g>
     <g id="line2d_4">
      <g>
       <use style="stroke:#000000;stroke-width:0.8;" x="135.351336" xlink:href="#m95db91ab72" y="294.88"/>
      </g>
     </g>
     <g id="text_2">
      <!-- 2 -->
      <defs>
       <path d="M 19.1875 8.296875 
L 53.609375 8.296875 
L 53.609375 0 
L 7.328125 0 
L 7.328125 8.296875 
Q 12.9375 14.109375 22.625 23.890625 
Q 32.328125 33.6875 34.8125 36.53125 
Q 39.546875 41.84375 41.421875 45.53125 
Q 43.3125 49.21875 43.3125 52.78125 
Q 43.3125 58.59375 39.234375 62.25 
Q 35.15625 65.921875 28.609375 65.921875 
Q 23.96875 65.921875 18.8125 64.3125 
Q 13.671875 62.703125 7.8125 59.421875 
L 7.8125 69.390625 
Q 13.765625 71.78125 18.9375 73 
Q 24.125 74.21875 28.421875 74.21875 
Q 39.75 74.21875 46.484375 68.546875 
Q 53.21875 62.890625 53.21875 53.421875 
Q 53.21875 48.921875 51.53125 44.890625 
Q 49.859375 40.875 45.40625 35.40625 
Q 44.1875 33.984375 37.640625 27.21875 
Q 31.109375 20.453125 19.1875 8.296875 
z
" id="DejaVuSans-32"/>
      </defs>
      <g transform="translate(128.988836 317.076875)scale(0.2 -0.2)">
       <use xlink:href="#DejaVuSans-32"/>
      </g>
     </g>
    </g>
    <g id="xtick_3">
     <g id="line2d_5">
      <path clip-path="url(#p49a9676e67)" d="M 214.582673 294.88 
L 214.582673 6.845228 
" style="fill:none;stroke:#b0b0b0;stroke-linecap:square;stroke-width:0.8;"/>
     </g>
     <g id="line2d_6">
      <g>
       <use style="stroke:#000000;stroke-width:0.8;" x="214.582673" xlink:href="#m95db91ab72" y="294.88"/>
      </g>
     </g>
     <g id="text_3">
      <!-- 4 -->
      <defs>
       <path d="M 37.796875 64.3125 
L 12.890625 25.390625 
L 37.796875 25.390625 
z
M 35.203125 72.90625 
L 47.609375 72.90625 
L 47.609375 25.390625 
L 58.015625 25.390625 
L 58.015625 17.1875 
L 47.609375 17.1875 
L 47.609375 0 
L 37.796875 0 
L 37.796875 17.1875 
L 4.890625 17.1875 
L 4.890625 26.703125 
z
" id="DejaVuSans-34"/>
      </defs>
      <g transform="translate(208.220173 317.076875)scale(0.2 -0.2)">
       <use xlink:href="#DejaVuSans-34"/>
      </g>
     </g>
    </g>
    <g id="xtick_4">
     <g id="line2d_7">
      <path clip-path="url(#p49a9676e67)" d="M 293.814009 294.88 
L 293.814009 6.845228 
" style="fill:none;stroke:#b0b0b0;stroke-linecap:square;stroke-width:0.8;"/>
     </g>
     <g id="line2d_8">
      <g>
       <use style="stroke:#000000;stroke-width:0.8;" x="293.814009" xlink:href="#m95db91ab72" y="294.88"/>
      </g>
     </g>
     <g id="text_4">
      <!-- 6 -->
      <defs>
       <path d="M 33.015625 40.375 
Q 26.375 40.375 22.484375 35.828125 
Q 18.609375 31.296875 18.609375 23.390625 
Q 18.609375 15.53125 22.484375 10.953125 
Q 26.375 6.390625 33.015625 6.390625 
Q 39.65625 6.390625 43.53125 10.953125 
Q 47.40625 15.53125 47.40625 23.390625 
Q 47.40625 31.296875 43.53125 35.828125 
Q 39.65625 40.375 33.015625 40.375 
z
M 52.59375 71.296875 
L 52.59375 62.3125 
Q 48.875 64.0625 45.09375 64.984375 
Q 41.3125 65.921875 37.59375 65.921875 
Q 27.828125 65.921875 22.671875 59.328125 
Q 17.53125 52.734375 16.796875 39.40625 
Q 19.671875 43.65625 24.015625 45.921875 
Q 28.375 48.1875 33.59375 48.1875 
Q 44.578125 48.1875 50.953125 41.515625 
Q 57.328125 34.859375 57.328125 23.390625 
Q 57.328125 12.15625 50.6875 5.359375 
Q 44.046875 -1.421875 33.015625 -1.421875 
Q 20.359375 -1.421875 13.671875 8.265625 
Q 6.984375 17.96875 6.984375 36.375 
Q 6.984375 53.65625 15.1875 63.9375 
Q 23.390625 74.21875 37.203125 74.21875 
Q 40.921875 74.21875 44.703125 73.484375 
Q 48.484375 72.75 52.59375 71.296875 
z
" id="DejaVuSans-36"/>
      </defs>
      <g transform="translate(287.451509 317.076875)scale(0.2 -0.2)">
       <use xlink:href="#DejaVuSans-36"/>
      </g>
     </g>
    </g>
    <g id="xtick_5">
     <g id="line2d_9">
      <path clip-path="url(#p49a9676e67)" d="M 373.045346 294.88 
L 373.045346 6.845228 
" style="fill:none;stroke:#b0b0b0;stroke-linecap:square;stroke-width:0.8;"/>
     </g>
     <g id="line2d_10">
      <g>
       <use style="stroke:#000000;stroke-width:0.8;" x="373.045346" xlink:href="#m95db91ab72" y="294.88"/>
      </g>
     </g>
     <g id="text_5">
      <!-- 8 -->
      <defs>
       <path d="M 31.78125 34.625 
Q 24.75 34.625 20.71875 30.859375 
Q 16.703125 27.09375 16.703125 20.515625 
Q 16.703125 13.921875 20.71875 10.15625 
Q 24.75 6.390625 31.78125 6.390625 
Q 38.8125 6.390625 42.859375 10.171875 
Q 46.921875 13.96875 46.921875 20.515625 
Q 46.921875 27.09375 42.890625 30.859375 
Q 38.875 34.625 31.78125 34.625 
z
M 21.921875 38.8125 
Q 15.578125 40.375 12.03125 44.71875 
Q 8.5 49.078125 8.5 55.328125 
Q 8.5 64.0625 14.71875 69.140625 
Q 20.953125 74.21875 31.78125 74.21875 
Q 42.671875 74.21875 48.875 69.140625 
Q 55.078125 64.0625 55.078125 55.328125 
Q 55.078125 49.078125 51.53125 44.71875 
Q 48 40.375 41.703125 38.8125 
Q 48.828125 37.15625 52.796875 32.3125 
Q 56.78125 27.484375 56.78125 20.515625 
Q 56.78125 9.90625 50.3125 4.234375 
Q 43.84375 -1.421875 31.78125 -1.421875 
Q 19.734375 -1.421875 13.25 4.234375 
Q 6.78125 9.90625 6.78125 20.515625 
Q 6.78125 27.484375 10.78125 32.3125 
Q 14.796875 37.15625 21.921875 38.8125 
z
M 18.3125 54.390625 
Q 18.3125 48.734375 21.84375 45.5625 
Q 25.390625 42.390625 31.78125 42.390625 
Q 38.140625 42.390625 41.71875 45.5625 
Q 45.3125 48.734375 45.3125 54.390625 
Q 45.3125 60.0625 41.71875 63.234375 
Q 38.140625 66.40625 31.78125 66.40625 
Q 25.390625 66.40625 21.84375 63.234375 
Q 18.3125 60.0625 18.3125 54.390625 
z
" id="DejaVuSans-38"/>
      </defs>
      <g transform="translate(366.682846 317.076875)scale(0.2 -0.2)">
       <use xlink:href="#DejaVuSans-38"/>
      </g>
     </g>
    </g>
    <g id="text_6">
     <!-- log10(# f-evals / dimension) -->
     <defs>
      <path d="M 9.421875 75.984375 
L 18.40625 75.984375 
L 18.40625 0 
L 9.421875 0 
z
" id="DejaVuSans-6c"/>
      <path d="M 30.609375 48.390625 
Q 23.390625 48.390625 19.1875 42.75 
Q 14.984375 37.109375 14.984375 27.296875 
Q 14.984375 17.484375 19.15625 11.84375 
Q 23.34375 6.203125 30.609375 6.203125 
Q 37.796875 6.203125 41.984375 11.859375 
Q 46.1875 17.53125 46.1875 27.296875 
Q 46.1875 37.015625 41.984375 42.703125 
Q 37.796875 48.390625 30.609375 48.390625 
z
M 30.609375 56 
Q 42.328125 56 49.015625 48.375 
Q 55.71875 40.765625 55.71875 27.296875 
Q 55.71875 13.875 49.015625 6.21875 
Q 42.328125 -1.421875 30.609375 -1.421875 
Q 18.84375 -1.421875 12.171875 6.21875 
Q 5.515625 13.875 5.515625 27.296875 
Q 5.515625 40.765625 12.171875 48.375 
Q 18.84375 56 30.609375 56 
z
" id="DejaVuSans-6f"/>
      <path d="M 45.40625 27.984375 
Q 45.40625 37.75 41.375 43.109375 
Q 37.359375 48.484375 30.078125 48.484375 
Q 22.859375 48.484375 18.828125 43.109375 
Q 14.796875 37.75 14.796875 27.984375 
Q 14.796875 18.265625 18.828125 12.890625 
Q 22.859375 7.515625 30.078125 7.515625 
Q 37.359375 7.515625 41.375 12.890625 
Q 45.40625 18.265625 45.40625 27.984375 
z
M 54.390625 6.78125 
Q 54.390625 -7.171875 48.1875 -13.984375 
Q 42 -20.796875 29.203125 -20.796875 
Q 24.46875 -20.796875 20.265625 -20.09375 
Q 16.0625 -19.390625 12.109375 -17.921875 
L 12.109375 -9.1875 
Q 16.0625 -11.328125 19.921875 -12.34375 
Q 23.78125 -13.375 27.78125 -13.375 
Q 36.625 -13.375 41.015625 -8.765625 
Q 45.40625 -4.15625 45.40625 5.171875 
L 45.40625 9.625 
Q 42.625 4.78125 38.28125 2.390625 
Q 33.9375 0 27.875 0 
Q 17.828125 0 11.671875 7.65625 
Q 5.515625 15.328125 5.515625 27.984375 
Q 5.515625 40.671875 11.671875 48.328125 
Q 17.828125 56 27.875 56 
Q 33.9375 56 38.28125 53.609375 
Q 42.625 51.21875 45.40625 46.390625 
L 45.40625 54.6875 
L 54.390625 54.6875 
z
" id="DejaVuSans-67"/>
      <path d="M 12.40625 8.296875 
L 28.515625 8.296875 
L 28.515625 63.921875 
L 10.984375 60.40625 
L 10.984375 69.390625 
L 28.421875 72.90625 
L 38.28125 72.90625 
L 38.28125 8.296875 
L 54.390625 8.296875 
L 54.390625 0 
L 12.40625 0 
z
" id="DejaVuSans-31"/>
      <path d="M 31 75.875 
Q 24.46875 64.65625 21.28125 53.65625 
Q 18.109375 42.671875 18.109375 31.390625 
Q 18.109375 20.125 21.3125 9.0625 
Q 24.515625 -2 31 -13.1875 
L 23.1875 -13.1875 
Q 15.875 -1.703125 12.234375 9.375 
Q 8.59375 20.453125 8.59375 31.390625 
Q 8.59375 42.28125 12.203125 53.3125 
Q 15.828125 64.359375 23.1875 75.875 
z
" id="DejaVuSans-28"/>
      <path d="M 51.125 44 
L 36.921875 44 
L 32.8125 27.6875 
L 47.125 27.6875 
z
M 43.796875 71.78125 
L 38.71875 51.515625 
L 52.984375 51.515625 
L 58.109375 71.78125 
L 65.921875 71.78125 
L 60.890625 51.515625 
L 76.125 51.515625 
L 76.125 44 
L 58.984375 44 
L 54.984375 27.6875 
L 70.515625 27.6875 
L 70.515625 20.21875 
L 53.078125 20.21875 
L 48 0 
L 40.1875 0 
L 45.21875 20.21875 
L 30.90625 20.21875 
L 25.875 0 
L 18.015625 0 
L 23.09375 20.21875 
L 7.71875 20.21875 
L 7.71875 27.6875 
L 24.90625 27.6875 
L 29 44 
L 13.28125 44 
L 13.28125 51.515625 
L 30.90625 51.515625 
L 35.890625 71.78125 
z
" id="DejaVuSans-23"/>
      <path id="DejaVuSans-20"/>
      <path d="M 37.109375 75.984375 
L 37.109375 68.5 
L 28.515625 68.5 
Q 23.6875 68.5 21.796875 66.546875 
Q 19.921875 64.59375 19.921875 59.515625 
L 19.921875 54.6875 
L 34.71875 54.6875 
L 34.71875 47.703125 
L 19.921875 47.703125 
L 19.921875 0 
L 10.890625 0 
L 10.890625 47.703125 
L 2.296875 47.703125 
L 2.296875 54.6875 
L 10.890625 54.6875 
L 10.890625 58.5 
Q 10.890625 67.625 15.140625 71.796875 
Q 19.390625 75.984375 28.609375 75.984375 
z
" id="DejaVuSans-66"/>
      <path d="M 4.890625 31.390625 
L 31.203125 31.390625 
L 31.203125 23.390625 
L 4.890625 23.390625 
z
" id="DejaVuSans-2d"/>
      <path d="M 56.203125 29.59375 
L 56.203125 25.203125 
L 14.890625 25.203125 
Q 15.484375 15.921875 20.484375 11.0625 
Q 25.484375 6.203125 34.421875 6.203125 
Q 39.59375 6.203125 44.453125 7.46875 
Q 49.3125 8.734375 54.109375 11.28125 
L 54.109375 2.78125 
Q 49.265625 0.734375 44.1875 -0.34375 
Q 39.109375 -1.421875 33.890625 -1.421875 
Q 20.796875 -1.421875 13.15625 6.1875 
Q 5.515625 13.8125 5.515625 26.8125 
Q 5.515625 40.234375 12.765625 48.109375 
Q 20.015625 56 32.328125 56 
Q 43.359375 56 49.78125 48.890625 
Q 56.203125 41.796875 56.203125 29.59375 
z
M 47.21875 32.234375 
Q 47.125 39.59375 43.09375 43.984375 
Q 39.0625 48.390625 32.421875 48.390625 
Q 24.90625 48.390625 20.390625 44.140625 
Q 15.875 39.890625 15.1875 32.171875 
z
" id="DejaVuSans-65"/>
      <path d="M 2.984375 54.6875 
L 12.5 54.6875 
L 29.59375 8.796875 
L 46.6875 54.6875 
L 56.203125 54.6875 
L 35.6875 0 
L 23.484375 0 
z
" id="DejaVuSans-76"/>
      <path d="M 34.28125 27.484375 
Q 23.390625 27.484375 19.1875 25 
Q 14.984375 22.515625 14.984375 16.5 
Q 14.984375 11.71875 18.140625 8.90625 
Q 21.296875 6.109375 26.703125 6.109375 
Q 34.1875 6.109375 38.703125 11.40625 
Q 43.21875 16.703125 43.21875 25.484375 
L 43.21875 27.484375 
z
M 52.203125 31.203125 
L 52.203125 0 
L 43.21875 0 
L 43.21875 8.296875 
Q 40.140625 3.328125 35.546875 0.953125 
Q 30.953125 -1.421875 24.3125 -1.421875 
Q 15.921875 -1.421875 10.953125 3.296875 
Q 6 8.015625 6 15.921875 
Q 6 25.140625 12.171875 29.828125 
Q 18.359375 34.515625 30.609375 34.515625 
L 43.21875 34.515625 
L 43.21875 35.40625 
Q 43.21875 41.609375 39.140625 45 
Q 35.0625 48.390625 27.6875 48.390625 
Q 23 48.390625 18.546875 47.265625 
Q 14.109375 46.140625 10.015625 43.890625 
L 10.015625 52.203125 
Q 14.9375 54.109375 19.578125 55.046875 
Q 24.21875 56 28.609375 56 
Q 40.484375 56 46.34375 49.84375 
Q 52.203125 43.703125 52.203125 31.203125 
z
" id="DejaVuSans-61"/>
      <path d="M 44.28125 53.078125 
L 44.28125 44.578125 
Q 40.484375 46.53125 36.375 47.5 
Q 32.28125 48.484375 27.875 48.484375 
Q 21.1875 48.484375 17.84375 46.4375 
Q 14.5 44.390625 14.5 40.28125 
Q 14.5 37.15625 16.890625 35.375 
Q 19.28125 33.59375 26.515625 31.984375 
L 29.59375 31.296875 
Q 39.15625 29.25 43.1875 25.515625 
Q 47.21875 21.78125 47.21875 15.09375 
Q 47.21875 7.46875 41.1875 3.015625 
Q 35.15625 -1.421875 24.609375 -1.421875 
Q 20.21875 -1.421875 15.453125 -0.5625 
Q 10.6875 0.296875 5.421875 2 
L 5.421875 11.28125 
Q 10.40625 8.6875 15.234375 7.390625 
Q 20.0625 6.109375 24.8125 6.109375 
Q 31.15625 6.109375 34.5625 8.28125 
Q 37.984375 10.453125 37.984375 14.40625 
Q 37.984375 18.0625 35.515625 20.015625 
Q 33.0625 21.96875 24.703125 23.78125 
L 21.578125 24.515625 
Q 13.234375 26.265625 9.515625 29.90625 
Q 5.8125 33.546875 5.8125 39.890625 
Q 5.8125 47.609375 11.28125 51.796875 
Q 16.75 56 26.8125 56 
Q 31.78125 56 36.171875 55.265625 
Q 40.578125 54.546875 44.28125 53.078125 
z
" id="DejaVuSans-73"/>
      <path d="M 25.390625 72.90625 
L 33.6875 72.90625 
L 8.296875 -9.28125 
L 0 -9.28125 
z
" id="DejaVuSans-2f"/>
      <path d="M 45.40625 46.390625 
L 45.40625 75.984375 
L 54.390625 75.984375 
L 54.390625 0 
L 45.40625 0 
L 45.40625 8.203125 
Q 42.578125 3.328125 38.25 0.953125 
Q 33.9375 -1.421875 27.875 -1.421875 
Q 17.96875 -1.421875 11.734375 6.484375 
Q 5.515625 14.40625 5.515625 27.296875 
Q 5.515625 40.1875 11.734375 48.09375 
Q 17.96875 56 27.875 56 
Q 33.9375 56 38.25 53.625 
Q 42.578125 51.265625 45.40625 46.390625 
z
M 14.796875 27.296875 
Q 14.796875 17.390625 18.875 11.75 
Q 22.953125 6.109375 30.078125 6.109375 
Q 37.203125 6.109375 41.296875 11.75 
Q 45.40625 17.390625 45.40625 27.296875 
Q 45.40625 37.203125 41.296875 42.84375 
Q 37.203125 48.484375 30.078125 48.484375 
Q 22.953125 48.484375 18.875 42.84375 
Q 14.796875 37.203125 14.796875 27.296875 
z
" id="DejaVuSans-64"/>
      <path d="M 9.421875 54.6875 
L 18.40625 54.6875 
L 18.40625 0 
L 9.421875 0 
z
M 9.421875 75.984375 
L 18.40625 75.984375 
L 18.40625 64.59375 
L 9.421875 64.59375 
z
" id="DejaVuSans-69"/>
      <path d="M 52 44.1875 
Q 55.375 50.25 60.0625 53.125 
Q 64.75 56 71.09375 56 
Q 79.640625 56 84.28125 50.015625 
Q 88.921875 44.046875 88.921875 33.015625 
L 88.921875 0 
L 79.890625 0 
L 79.890625 32.71875 
Q 79.890625 40.578125 77.09375 44.375 
Q 74.3125 48.1875 68.609375 48.1875 
Q 61.625 48.1875 57.5625 43.546875 
Q 53.515625 38.921875 53.515625 30.90625 
L 53.515625 0 
L 44.484375 0 
L 44.484375 32.71875 
Q 44.484375 40.625 41.703125 44.40625 
Q 38.921875 48.1875 33.109375 48.1875 
Q 26.21875 48.1875 22.15625 43.53125 
Q 18.109375 38.875 18.109375 30.90625 
L 18.109375 0 
L 9.078125 0 
L 9.078125 54.6875 
L 18.109375 54.6875 
L 18.109375 46.1875 
Q 21.1875 51.21875 25.484375 53.609375 
Q 29.78125 56 35.6875 56 
Q 41.65625 56 45.828125 52.96875 
Q 50 49.953125 52 44.1875 
z
" id="DejaVuSans-6d"/>
      <path d="M 54.890625 33.015625 
L 54.890625 0 
L 45.90625 0 
L 45.90625 32.71875 
Q 45.90625 40.484375 42.875 44.328125 
Q 39.84375 48.1875 33.796875 48.1875 
Q 26.515625 48.1875 22.3125 43.546875 
Q 18.109375 38.921875 18.109375 30.90625 
L 18.109375 0 
L 9.078125 0 
L 9.078125 54.6875 
L 18.109375 54.6875 
L 18.109375 46.1875 
Q 21.34375 51.125 25.703125 53.5625 
Q 30.078125 56 35.796875 56 
Q 45.21875 56 50.046875 50.171875 
Q 54.890625 44.34375 54.890625 33.015625 
z
" id="DejaVuSans-6e"/>
      <path d="M 8.015625 75.875 
L 15.828125 75.875 
Q 23.140625 64.359375 26.78125 53.3125 
Q 30.421875 42.28125 30.421875 31.390625 
Q 30.421875 20.453125 26.78125 9.375 
Q 23.140625 -1.703125 15.828125 -13.1875 
L 8.015625 -13.1875 
Q 14.5 -2 17.703125 9.0625 
Q 20.90625 20.125 20.90625 31.390625 
Q 20.90625 42.671875 17.703125 53.65625 
Q 14.5 64.65625 8.015625 75.875 
z
" id="DejaVuSans-29"/>
     </defs>
     <g transform="translate(107.211219 338.153594)scale(0.17 -0.17)">
      <use xlink:href="#DejaVuSans-6c"/>
      <use x="27.783203" xlink:href="#DejaVuSans-6f"/>
      <use x="88.964844" xlink:href="#DejaVuSans-67"/>
      <use x="152.441406" xlink:href="#DejaVuSans-31"/>
      <use x="216.064453" xlink:href="#DejaVuSans-30"/>
      <use x="279.6875" xlink:href="#DejaVuSans-28"/>
      <use x="318.701172" xlink:href="#DejaVuSans-23"/>
      <use x="402.490234" xlink:href="#DejaVuSans-20"/>
      <use x="434.277344" xlink:href="#DejaVuSans-66"/>
      <use x="469.404297" xlink:href="#DejaVuSans-2d"/>
      <use x="505.488281" xlink:href="#DejaVuSans-65"/>
      <use x="567.011719" xlink:href="#DejaVuSans-76"/>
      <use x="626.191406" xlink:href="#DejaVuSans-61"/>
      <use x="687.470703" xlink:href="#DejaVuSans-6c"/>
      <use x="715.253906" xlink:href="#DejaVuSans-73"/>
      <use x="767.353516" xlink:href="#DejaVuSans-20"/>
      <use x="799.140625" xlink:href="#DejaVuSans-2f"/>
      <use x="832.832031" xlink:href="#DejaVuSans-20"/>
      <use x="864.619141" xlink:href="#DejaVuSans-64"/>
      <use x="928.095703" xlink:href="#DejaVuSans-69"/>
      <use x="955.878906" xlink:href="#DejaVuSans-6d"/>
      <use x="1053.291016" xlink:href="#DejaVuSans-65"/>
      <use x="1114.814453" xlink:href="#DejaVuSans-6e"/>
      <use x="1178.193359" xlink:href="#DejaVuSans-73"/>
      <use x="1230.292969" xlink:href="#DejaVuSans-69"/>
      <use x="1258.076172" xlink:href="#DejaVuSans-6f"/>
      <use x="1319.257812" xlink:href="#DejaVuSans-6e"/>
      <use x="1382.636719" xlink:href="#DejaVuSans-29"/>
     </g>
    </g>
   </g>
   <g id="matplotlib.axis_2">
    <g id="ytick_1">
     <g id="line2d_11">
      <path clip-path="url(#p49a9676e67)" d="M 56.12 294.88 
L 399.984 294.88 
" style="fill:none;stroke:#b0b0b0;stroke-linecap:square;stroke-width:0.8;"/>
     </g>
     <g id="line2d_12">
      <defs>
       <path d="M 0 0 
L -3.5 0 
" id="m369c4aaed4" style="stroke:#000000;stroke-width:0.8;"/>
      </defs>
      <g>
       <use style="stroke:#000000;stroke-width:0.8;" x="56.12" xlink:href="#m369c4aaed4" y="294.88"/>
      </g>
     </g>
     <g id="text_7">
      <!-- 0.0 -->
      <defs>
       <path d="M 10.6875 12.40625 
L 21 12.40625 
L 21 0 
L 10.6875 0 
z
" id="DejaVuSans-2e"/>
      </defs>
      <g transform="translate(23.675 300.95875)scale(0.16 -0.16)">
       <use xlink:href="#DejaVuSans-30"/>
       <use x="63.623047" xlink:href="#DejaVuSans-2e"/>
       <use x="95.410156" xlink:href="#DejaVuSans-30"/>
      </g>
     </g>
    </g>
    <g id="ytick_2">
     <g id="line2d_13">
      <path clip-path="url(#p49a9676e67)" d="M 56.12 237.843411 
L 399.984 237.843411 
" style="fill:none;stroke:#b0b0b0;stroke-linecap:square;stroke-width:0.8;"/>
     </g>
     <g id="line2d_14">
      <g>
       <use style="stroke:#000000;stroke-width:0.8;" x="56.12" xlink:href="#m369c4aaed4" y="237.843411"/>
      </g>
     </g>
     <g id="text_8">
      <!-- 0.2 -->
      <g transform="translate(23.675 243.922161)scale(0.16 -0.16)">
       <use xlink:href="#DejaVuSans-30"/>
       <use x="63.623047" xlink:href="#DejaVuSans-2e"/>
       <use x="95.410156" xlink:href="#DejaVuSans-32"/>
      </g>
     </g>
    </g>
    <g id="ytick_3">
     <g id="line2d_15">
      <path clip-path="url(#p49a9676e67)" d="M 56.12 180.806823 
L 399.984 180.806823 
" style="fill:none;stroke:#b0b0b0;stroke-linecap:square;stroke-width:0.8;"/>
     </g>
     <g id="line2d_16">
      <g>
       <use style="stroke:#000000;stroke-width:0.8;" x="56.12" xlink:href="#m369c4aaed4" y="180.806823"/>
      </g>
     </g>
     <g id="text_9">
      <!-- 0.4 -->
      <g transform="translate(23.675 186.885573)scale(0.16 -0.16)">
       <use xlink:href="#DejaVuSans-30"/>
       <use x="63.623047" xlink:href="#DejaVuSans-2e"/>
       <use x="95.410156" xlink:href="#DejaVuSans-34"/>
      </g>
     </g>
    </g>
    <g id="ytick_4">
     <g id="line2d_17">
      <path clip-path="url(#p49a9676e67)" d="M 56.12 123.770234 
L 399.984 123.770234 
" style="fill:none;stroke:#b0b0b0;stroke-linecap:square;stroke-width:0.8;"/>
     </g>
     <g id="line2d_18">
      <g>
       <use style="stroke:#000000;stroke-width:0.8;" x="56.12" xlink:href="#m369c4aaed4" y="123.770234"/>
      </g>
     </g>
     <g id="text_10">
      <!-- 0.6 -->
      <g transform="translate(23.675 129.848984)scale(0.16 -0.16)">
       <use xlink:href="#DejaVuSans-30"/>
       <use x="63.623047" xlink:href="#DejaVuSans-2e"/>
       <use x="95.410156" xlink:href="#DejaVuSans-36"/>
      </g>
     </g>
    </g>
    <g id="ytick_5">
     <g id="line2d_19">
      <path clip-path="url(#p49a9676e67)" d="M 56.12 66.733646 
L 399.984 66.733646 
" style="fill:none;stroke:#b0b0b0;stroke-linecap:square;stroke-width:0.8;"/>
     </g>
     <g id="line2d_20">
      <g>
       <use style="stroke:#000000;stroke-width:0.8;" x="56.12" xlink:href="#m369c4aaed4" y="66.733646"/>
      </g>
     </g>
     <g id="text_11">
      <!-- 0.8 -->
      <g transform="translate(23.675 72.812396)scale(0.16 -0.16)">
       <use xlink:href="#DejaVuSans-30"/>
       <use x="63.623047" xlink:href="#DejaVuSans-2e"/>
       <use x="95.410156" xlink:href="#DejaVuSans-38"/>
      </g>
     </g>
    </g>
    <g id="ytick_6">
     <g id="line2d_21">
      <path clip-path="url(#p49a9676e67)" d="M 56.12 9.697057 
L 399.984 9.697057 
" style="fill:none;stroke:#b0b0b0;stroke-linecap:square;stroke-width:0.8;"/>
     </g>
     <g id="line2d_22">
      <g>
       <use style="stroke:#000000;stroke-width:0.8;" x="56.12" xlink:href="#m369c4aaed4" y="9.697057"/>
      </g>
     </g>
     <g id="text_12">
      <!-- 1.0 -->
      <g transform="translate(23.675 15.775807)scale(0.16 -0.16)">
       <use xlink:href="#DejaVuSans-31"/>
       <use x="63.623047" xlink:href="#DejaVuSans-2e"/>
       <use x="95.410156" xlink:href="#DejaVuSans-30"/>
      </g>
     </g>
    </g>
    <g id="text_13">
     <!-- Fraction of function,target pairs -->
     <defs>
      <path d="M 9.8125 72.90625 
L 51.703125 72.90625 
L 51.703125 64.59375 
L 19.671875 64.59375 
L 19.671875 43.109375 
L 48.578125 43.109375 
L 48.578125 34.8125 
L 19.671875 34.8125 
L 19.671875 0 
L 9.8125 0 
z
" id="DejaVuSans-46"/>
      <path d="M 41.109375 46.296875 
Q 39.59375 47.171875 37.8125 47.578125 
Q 36.03125 48 33.890625 48 
Q 26.265625 48 22.1875 43.046875 
Q 18.109375 38.09375 18.109375 28.8125 
L 18.109375 0 
L 9.078125 0 
L 9.078125 54.6875 
L 18.109375 54.6875 
L 18.109375 46.1875 
Q 20.953125 51.171875 25.484375 53.578125 
Q 30.03125 56 36.53125 56 
Q 37.453125 56 38.578125 55.875 
Q 39.703125 55.765625 41.0625 55.515625 
z
" id="DejaVuSans-72"/>
      <path d="M 48.78125 52.59375 
L 48.78125 44.1875 
Q 44.96875 46.296875 41.140625 47.34375 
Q 37.3125 48.390625 33.40625 48.390625 
Q 24.65625 48.390625 19.8125 42.84375 
Q 14.984375 37.3125 14.984375 27.296875 
Q 14.984375 17.28125 19.8125 11.734375 
Q 24.65625 6.203125 33.40625 6.203125 
Q 37.3125 6.203125 41.140625 7.25 
Q 44.96875 8.296875 48.78125 10.40625 
L 48.78125 2.09375 
Q 45.015625 0.34375 40.984375 -0.53125 
Q 36.96875 -1.421875 32.421875 -1.421875 
Q 20.0625 -1.421875 12.78125 6.34375 
Q 5.515625 14.109375 5.515625 27.296875 
Q 5.515625 40.671875 12.859375 48.328125 
Q 20.21875 56 33.015625 56 
Q 37.15625 56 41.109375 55.140625 
Q 45.0625 54.296875 48.78125 52.59375 
z
" id="DejaVuSans-63"/>
      <path d="M 18.3125 70.21875 
L 18.3125 54.6875 
L 36.8125 54.6875 
L 36.8125 47.703125 
L 18.3125 47.703125 
L 18.3125 18.015625 
Q 18.3125 11.328125 20.140625 9.421875 
Q 21.96875 7.515625 27.59375 7.515625 
L 36.8125 7.515625 
L 36.8125 0 
L 27.59375 0 
Q 17.1875 0 13.234375 3.875 
Q 9.28125 7.765625 9.28125 18.015625 
L 9.28125 47.703125 
L 2.6875 47.703125 
L 2.6875 54.6875 
L 9.28125 54.6875 
L 9.28125 70.21875 
z
" id="DejaVuSans-74"/>
      <path d="M 8.5 21.578125 
L 8.5 54.6875 
L 17.484375 54.6875 
L 17.484375 21.921875 
Q 17.484375 14.15625 20.5 10.265625 
Q 23.53125 6.390625 29.59375 6.390625 
Q 36.859375 6.390625 41.078125 11.03125 
Q 45.3125 15.671875 45.3125 23.6875 
L 45.3125 54.6875 
L 54.296875 54.6875 
L 54.296875 0 
L 45.3125 0 
L 45.3125 8.40625 
Q 42.046875 3.421875 37.71875 1 
Q 33.40625 -1.421875 27.6875 -1.421875 
Q 18.265625 -1.421875 13.375 4.4375 
Q 8.5 10.296875 8.5 21.578125 
z
M 31.109375 56 
z
" id="DejaVuSans-75"/>
      <path d="M 11.71875 12.40625 
L 22.015625 12.40625 
L 22.015625 4 
L 14.015625 -11.625 
L 7.71875 -11.625 
L 11.71875 4 
z
" id="DejaVuSans-2c"/>
      <path d="M 18.109375 8.203125 
L 18.109375 -20.796875 
L 9.078125 -20.796875 
L 9.078125 54.6875 
L 18.109375 54.6875 
L 18.109375 46.390625 
Q 20.953125 51.265625 25.265625 53.625 
Q 29.59375 56 35.59375 56 
Q 45.5625 56 51.78125 48.09375 
Q 58.015625 40.1875 58.015625 27.296875 
Q 58.015625 14.40625 51.78125 6.484375 
Q 45.5625 -1.421875 35.59375 -1.421875 
Q 29.59375 -1.421875 25.265625 0.953125 
Q 20.953125 3.328125 18.109375 8.203125 
z
M 48.6875 27.296875 
Q 48.6875 37.203125 44.609375 42.84375 
Q 40.53125 48.484375 33.40625 48.484375 
Q 26.265625 48.484375 22.1875 42.84375 
Q 18.109375 37.203125 18.109375 27.296875 
Q 18.109375 17.390625 22.1875 11.75 
Q 26.265625 6.109375 33.40625 6.109375 
Q 40.53125 6.109375 44.609375 11.75 
Q 48.6875 17.390625 48.6875 27.296875 
z
" id="DejaVuSans-70"/>
     </defs>
     <g transform="translate(16.139531 286.001989)rotate(-90)scale(0.17 -0.17)">
      <use xlink:href="#DejaVuSans-46"/>
      <use x="57.410156" xlink:href="#DejaVuSans-72"/>
      <use x="98.523438" xlink:href="#DejaVuSans-61"/>
      <use x="159.802734" xlink:href="#DejaVuSans-63"/>
      <use x="214.783203" xlink:href="#DejaVuSans-74"/>
      <use x="253.992188" xlink:href="#DejaVuSans-69"/>
      <use x="281.775391" xlink:href="#DejaVuSans-6f"/>
      <use x="342.957031" xlink:href="#DejaVuSans-6e"/>
      <use x="406.335938" xlink:href="#DejaVuSans-20"/>
      <use x="438.123047" xlink:href="#DejaVuSans-6f"/>
      <use x="499.304688" xlink:href="#DejaVuSans-66"/>
      <use x="534.509766" xlink:href="#DejaVuSans-20"/>
      <use x="566.296875" xlink:href="#DejaVuSans-66"/>
      <use x="601.501953" xlink:href="#DejaVuSans-75"/>
      <use x="664.880859" xlink:href="#DejaVuSans-6e"/>
      <use x="728.259766" xlink:href="#DejaVuSans-63"/>
      <use x="783.240234" xlink:href="#DejaVuSans-74"/>
      <use x="822.449219" xlink:href="#DejaVuSans-69"/>
      <use x="850.232422" xlink:href="#DejaVuSans-6f"/>
      <use x="911.414062" xlink:href="#DejaVuSans-6e"/>
      <use x="974.792969" xlink:href="#DejaVuSans-2c"/>
      <use x="1006.580078" xlink:href="#DejaVuSans-74"/>
      <use x="1045.789062" xlink:href="#DejaVuSans-61"/>
      <use x="1107.068359" xlink:href="#DejaVuSans-72"/>
      <use x="1148.166016" xlink:href="#DejaVuSans-67"/>
      <use x="1211.642578" xlink:href="#DejaVuSans-65"/>
      <use x="1273.166016" xlink:href="#DejaVuSans-74"/>
      <use x="1312.375" xlink:href="#DejaVuSans-20"/>
      <use x="1344.162109" xlink:href="#DejaVuSans-70"/>
      <use x="1407.638672" xlink:href="#DejaVuSans-61"/>
      <use x="1468.917969" xlink:href="#DejaVuSans-69"/>
      <use x="1496.701172" xlink:href="#DejaVuSans-72"/>
      <use x="1537.814453" xlink:href="#DejaVuSans-73"/>
     </g>
    </g>
   </g>
   <g id="line2d_23">
    <defs>
     <path d="M 0 1.5 
C 0.397805 1.5 0.77937 1.341951 1.06066 1.06066 
C 1.341951 0.77937 1.5 0.397805 1.5 0 
C 1.5 -0.397805 1.341951 -0.77937 1.06066 -1.06066 
C 0.77937 -1.341951 0.397805 -1.5 0 -1.5 
C -0.397805 -1.5 -0.77937 -1.341951 -1.06066 -1.06066 
C -1.341951 -0.77937 -1.5 -0.397805 -1.5 0 
C -1.5 0.397805 -1.341951 0.77937 -1.06066 1.06066 
C -0.77937 1.341951 -0.397805 1.5 0 1.5 
z
" id="m3a5180819a" style="stroke:#00bfbf;"/>
    </defs>
    <g>
     <use style="fill:#00bfbf;stroke:#00bfbf;" x="264.110872" xlink:href="#m3a5180819a" y="9.697057"/>
     <use style="fill:#00bfbf;stroke:#00bfbf;" x="264.110872" xlink:href="#m3a5180819a" y="9.697057"/>
    </g>
   </g>
   <g id="line2d_24">
    <path d="M 56.12 294.88 
L 56.12 286.492266 
L 68.045504 286.492266 
L 68.045504 282.466154 
L 75.021477 282.466154 
L 75.021477 278.440042 
L 79.971009 278.440042 
L 79.971009 276.762495 
L 83.810164 276.762495 
L 83.810164 275.755967 
L 86.946982 275.755967 
L 86.946982 273.854748 
L 89.599124 273.854748 
L 89.599124 272.624547 
L 91.896513 272.624547 
L 91.896513 272.177201 
L 93.922955 272.177201 
L 93.922955 272.065365 
L 95.735668 272.065365 
L 95.735668 271.058837 
L 97.375467 271.058837 
L 97.375467 270.835164 
L 98.872486 270.835164 
L 98.872486 270.164145 
L 100.24961 270.164145 
L 100.24961 269.38129 
L 102.711641 269.38129 
L 102.711641 269.269453 
L 103.822018 269.269453 
L 103.822018 268.486598 
L 104.865056 268.486598 
L 104.865056 268.262925 
L 105.848459 268.262925 
L 105.848459 267.256397 
L 106.778678 267.256397 
L 106.778678 266.920888 
L 108.500601 266.920888 
L 108.500601 266.697215 
L 109.300972 266.697215 
L 109.300972 266.249869 
L 110.797991 266.249869 
L 110.797991 266.138033 
L 113.450132 266.138033 
L 113.450132 265.91436 
L 114.053874 265.91436 
L 114.053874 265.578851 
L 114.637146 265.578851 
L 114.637146 265.243341 
L 115.20129 265.243341 
L 115.20129 265.131505 
L 115.747522 265.131505 
L 115.747522 264.684159 
L 116.276944 264.684159 
L 116.276944 264.34865 
L 116.790561 264.34865 
L 116.790561 263.677631 
L 117.289287 263.677631 
L 117.289287 263.565795 
L 118.245359 263.565795 
L 118.245359 263.453958 
L 118.704183 263.453958 
L 118.704183 263.342122 
L 119.586677 263.342122 
L 119.586677 263.230285 
L 122.723495 263.230285 
L 122.723495 263.006612 
L 123.078247 263.006612 
L 123.078247 262.894776 
L 123.766534 262.894776 
L 123.766534 255.066224 
L 124.100619 255.066224 
L 124.100619 254.283369 
L 124.428341 254.283369 
L 124.428341 250.704603 
L 124.749936 250.704603 
L 124.749936 246.119309 
L 125.065631 246.119309 
L 125.065631 245.336453 
L 125.680156 245.336453 
L 125.680156 241.98136 
L 125.979378 241.98136 
L 125.979378 240.751159 
L 126.273486 240.751159 
L 126.273486 240.639323 
L 126.56265 240.639323 
L 126.56265 240.527486 
L 126.847034 240.527486 
L 126.847034 240.41565 
L 127.402078 240.41565 
L 127.402078 236.836883 
L 127.673027 236.836883 
L 127.673027 236.613211 
L 127.939774 236.613211 
L 127.939774 235.38301 
L 128.461173 235.38301 
L 128.461173 235.159337 
L 128.716065 235.159337 
L 128.716065 235.0475 
L 128.967235 235.0475 
L 128.967235 234.711991 
L 129.214792 234.711991 
L 129.214792 234.600154 
L 129.458837 234.600154 
L 129.458837 234.264645 
L 129.699468 234.264645 
L 129.699468 230.01486 
L 129.93678 230.01486 
L 129.93678 229.903024 
L 130.170864 229.903024 
L 130.170864 229.791187 
L 130.401805 229.791187 
L 130.401805 229.567514 
L 130.854591 229.567514 
L 130.854591 229.120168 
L 131.076592 229.120168 
L 131.076592 229.008332 
L 131.295765 229.008332 
L 131.295765 228.784659 
L 131.512181 228.784659 
L 131.512181 228.44915 
L 131.937015 228.44915 
L 131.937015 227.218949 
L 132.145561 227.218949 
L 132.145561 226.771603 
L 132.756449 226.771603 
L 132.756449 226.436094 
L 132.955351 226.436094 
L 132.955351 225.765075 
L 133.538623 225.765075 
L 133.538623 225.541402 
L 133.728734 225.541402 
L 133.728734 225.205893 
L 133.916767 225.205893 
L 133.916767 225.094056 
L 134.102767 225.094056 
L 134.102767 224.311201 
L 134.82729 224.311201 
L 134.82729 223.975692 
L 135.003752 223.975692 
L 135.003752 223.863855 
L 135.351336 223.863855 
L 135.351336 223.528346 
L 135.859892 223.528346 
L 135.859892 222.074472 
L 136.026124 222.074472 
L 136.026124 214.805103 
L 136.190765 214.805103 
L 136.190765 214.58143 
L 136.353845 214.58143 
L 136.353845 214.245921 
L 136.675441 214.245921 
L 136.675441 214.134084 
L 136.834012 214.134084 
L 136.834012 213.910412 
L 136.991135 213.910412 
L 136.991135 212.792047 
L 137.146836 212.792047 
L 137.146836 212.568374 
L 137.301141 212.568374 
L 137.301141 212.344701 
L 137.60566 212.344701 
L 137.60566 210.219809 
L 137.755922 210.219809 
L 137.755922 209.325117 
L 137.904883 209.325117 
L 137.904883 208.318589 
L 138.052565 208.318589 
L 138.052565 208.206753 
L 138.19899 208.206753 
L 138.19899 207.535734 
L 138.488154 207.535734 
L 138.488154 206.864715 
L 138.630934 206.864715 
L 138.630934 206.193697 
L 139.052299 206.193697 
L 139.052299 205.634514 
L 139.327583 205.634514 
L 139.327583 205.299005 
L 139.598531 205.299005 
L 139.598531 204.963496 
L 139.732422 204.963496 
L 139.732422 204.739823 
L 140.127953 204.739823 
L 140.127953 201.943912 
L 140.257802 201.943912 
L 140.257802 201.720239 
L 140.641569 201.720239 
L 140.641569 201.496566 
L 141.016963 201.496566 
L 141.016963 201.384729 
L 141.140296 201.384729 
L 141.140296 201.272893 
L 141.624972 201.272893 
L 141.624972 200.601874 
L 141.744038 200.601874 
L 141.744038 200.378201 
L 141.862285 200.378201 
L 141.862285 200.042692 
L 141.979724 200.042692 
L 141.979724 197.805963 
L 142.096368 197.805963 
L 142.096368 197.58229 
L 142.327309 197.58229 
L 142.327309 197.134944 
L 142.555192 197.134944 
L 142.555192 196.911271 
L 142.891454 196.911271 
L 142.891454 196.575762 
L 143.112032 196.575762 
L 143.22127 193.332505 
L 143.329818 193.332505 
L 143.437686 190.98394 
L 143.544882 190.98394 
L 143.651414 189.194556 
L 143.75729 189.194556 
L 143.862519 187.852519 
L 144.071065 187.852519 
L 144.071065 187.628846 
L 144.37922 187.628846 
L 144.37922 187.405173 
L 144.581633 187.405173 
L 144.681953 186.398645 
L 144.781692 186.398645 
L 144.781692 186.286809 
L 145.174963 186.286809 
L 145.174963 186.063136 
L 145.654238 186.063136 
L 145.748512 185.727627 
L 146.028272 185.727627 
L 146.120523 184.721099 
L 146.212283 184.721099 
L 146.303556 184.05008 
L 146.484661 184.05008 
L 146.574504 183.826407 
L 147.016813 183.826407 
L 147.103926 183.043552 
L 147.276841 183.043552 
L 147.362651 182.037024 
L 147.448035 182.037024 
L 147.448035 181.925187 
L 147.868713 181.925187 
L 147.951628 181.589678 
L 148.034145 181.589678 
L 148.116269 176.333365 
L 148.198003 176.333365 
L 148.27935 175.215 
L 148.360314 175.215 
L 148.360314 175.103164 
L 148.521108 175.103164 
L 148.600945 174.096636 
L 148.91664 174.096636 
L 148.91664 173.201944 
L 149.149666 173.201944 
L 149.226646 172.866435 
L 149.303282 172.866435 
L 149.379579 172.642762 
L 149.681426 172.642762 
L 149.756068 171.859907 
L 149.978069 171.859907 
L 149.978069 171.748071 
L 150.124495 171.748071 
L 150.124495 171.636234 
L 150.485197 171.636234 
L 150.485197 171.412561 
L 150.627387 171.412561 
L 150.627387 170.853379 
L 150.768411 170.853379 
L 150.838492 170.070524 
L 151.184678 170.070524 
L 151.253087 169.399505 
L 151.724483 169.399505 
L 151.790783 166.939103 
L 151.856829 166.939103 
L 151.922622 165.932575 
L 152.118505 165.932575 
L 152.183306 165.037884 
L 152.247865 165.037884 
L 152.312182 164.143192 
L 152.37626 164.143192 
L 152.37626 162.912991 
L 152.503704 162.912991 
L 152.503704 162.353809 
L 152.693117 162.353809 
L 152.755795 161.794627 
L 153.309845 161.794627 
L 153.370319 160.676262 
L 153.430582 160.676262 
L 153.430582 160.564426 
L 153.550477 160.564426 
L 153.610112 160.11708 
L 153.669542 160.11708 
L 153.728767 158.775043 
L 153.905229 158.775043 
L 153.96365 158.439533 
L 154.872368 158.439533 
L 154.927601 157.321169 
L 155.037536 157.321169 
L 155.146774 156.314641 
L 155.201134 156.314641 
L 155.309341 155.531786 
L 155.36319 155.531786 
L 155.470386 154.860767 
L 155.629938 154.860767 
L 155.629938 154.525258 
L 155.840397 154.525258 
L 155.94467 153.742402 
L 156.099903 153.742402 
L 156.202619 152.847711 
L 156.253747 152.847711 
L 156.304725 152.512201 
L 156.507137 152.512201 
L 156.557371 151.953019 
L 156.707196 151.953019 
L 156.75685 151.61751 
L 156.904956 151.61751 
L 156.904956 151.393837 
L 157.197397 151.393837 
L 157.197397 151.170164 
L 157.389632 151.170164 
L 157.389632 150.834655 
L 157.532411 150.834655 
L 157.626944 149.492617 
L 157.674016 149.492617 
L 157.767776 148.486089 
L 157.861027 148.486089 
L 157.861027 148.038744 
L 158.046028 148.038744 
L 158.137787 146.696706 
L 158.274515 146.696706 
L 158.319851 145.690178 
L 158.410165 145.690178 
L 158.455146 144.795487 
L 158.633899 144.795487 
L 158.722584 144.124468 
L 158.766756 144.124468 
L 158.85476 142.78243 
L 159.072822 142.78243 
L 159.159279 142.446921 
L 159.202345 142.446921 
L 159.202345 142.111412 
L 159.458502 142.111412 
L 159.500826 141.775902 
L 159.7109 141.775902 
L 159.7109 141.664066 
L 159.835725 141.664066 
L 159.918441 139.762846 
L 159.95965 139.762846 
L 160.041774 137.526117 
L 160.082689 137.526117 
L 160.164229 136.519589 
L 160.245384 136.519589 
L 160.326158 135.513061 
L 160.446613 135.513061 
L 160.52645 134.842043 
L 160.685021 134.842043 
L 160.685021 134.394697 
L 160.842144 134.394697 
L 160.842144 134.059188 
L 161.266977 134.059188 
L 161.305083 132.381641 
L 161.456669 132.381641 
L 161.494358 132.157968 
L 161.903574 132.157968 
L 162.013509 130.704094 
L 162.086411 130.704094 
L 162.195189 130.144912 
L 162.303282 130.144912 
L 162.410701 129.58573 
L 162.446359 129.58573 
L 162.481943 129.362057 
L 162.693915 129.362057 
L 162.693915 128.691038 
L 162.93796 128.691038 
L 163.0415 128.020019 
L 163.075876 128.020019 
L 163.075876 127.68451 
L 163.212694 127.68451 
L 163.212694 127.460837 
L 163.348434 127.460837 
L 163.415904 127.125328 
L 163.716287 127.125328 
L 163.815261 126.454309 
L 163.978962 126.454309 
L 164.07644 126.006963 
L 164.205558 126.006963 
L 164.301765 125.559617 
L 164.333714 125.559617 
L 164.429209 125.335945 
L 164.587197 125.335945 
L 164.618622 124.664926 
L 164.712552 124.664926 
L 164.743749 124.329417 
L 164.898888 124.329417 
L 164.898888 124.21758 
L 165.356086 124.21758 
L 165.446086 123.322888 
L 165.475981 123.322888 
L 165.535617 122.875543 
L 165.624685 122.875543 
L 165.624685 122.65187 
L 165.742729 122.65187 
L 165.801448 121.869015 
L 165.859968 121.869015 
L 165.859968 121.757178 
L 165.976415 121.757178 
L 166.063235 119.408613 
L 166.603151 119.408613 
L 166.603151 118.961267 
L 166.853105 118.961267 
L 166.935623 117.842903 
L 167.072279 117.842903 
L 167.072279 117.731066 
L 167.261791 117.731066 
L 167.288695 116.724538 
L 167.475851 116.724538 
L 167.475851 116.612702 
L 168.20476 116.612702 
L 168.306413 114.823318 
L 168.357016 114.823318 
L 168.357016 114.599646 
L 168.731864 114.599646 
L 168.756566 114.040463 
L 168.977302 114.040463 
L 169.074505 113.145772 
L 169.505247 113.145772 
L 169.599521 112.139244 
L 169.69328 112.139244 
L 169.69328 112.027407 
L 170.267979 112.027407 
L 170.267979 111.691898 
L 170.425513 111.691898 
L 170.492588 111.132716 
L 170.581618 111.132716 
L 170.670189 110.573533 
L 170.824099 110.573533 
L 170.824099 110.126188 
L 171.06321 110.126188 
L 171.170808 109.455169 
L 171.341577 109.455169 
L 171.341577 109.343332 
L 171.781945 109.343332 
L 171.843945 108.560477 
L 172.981376 108.560477 
L 173.000675 108.336804 
L 173.625687 108.336804 
L 173.625687 108.113132 
L 173.810687 108.113132 
L 173.829078 107.889459 
L 174.048251 107.889459 
L 174.048251 107.777622 
L 174.442958 107.777622 
L 174.442958 107.665786 
L 174.759297 107.665786 
L 174.81146 106.211912 
L 175.018542 106.211912 
L 175.018542 105.988239 
L 175.658327 105.988239 
L 175.658327 105.65273 
L 176.338834 105.65273 
L 176.338834 105.540893 
L 176.465457 105.540893 
L 176.512702 104.422529 
L 176.746998 104.422529 
L 176.746998 104.310692 
L 177.281591 104.310692 
L 177.281591 104.198856 
L 177.490862 104.198856 
L 177.490862 104.087019 
L 178.046377 104.087019 
L 178.089479 103.863347 
L 178.833665 103.863347 
L 178.833665 103.75151 
L 179.467707 103.75151 
L 179.467707 103.639674 
L 180.143004 103.639674 
L 180.143004 103.416001 
L 180.58305 103.416001 
L 180.58305 102.856818 
L 180.792793 102.856818 
L 180.817301 102.409473 
L 180.939322 102.409473 
L 180.939322 102.1858 
L 181.144791 102.1858 
L 181.144791 102.073963 
L 181.665474 102.073963 
L 181.665474 101.962127 
L 181.87402 101.962127 
L 181.87402 101.85029 
L 182.091444 101.85029 
L 182.091444 101.067435 
L 182.249911 101.067435 
L 182.249911 100.396417 
L 182.782406 100.396417 
L 182.782406 100.172744 
L 183.288309 100.172744 
L 183.288309 100.060907 
L 187.174073 100.060907 
L 187.174073 99.725398 
L 187.559023 99.725398 
L 187.559023 99.501725 
L 187.699135 99.501725 
L 187.699135 99.389889 
L 187.911241 99.389889 
L 188.000197 99.054379 
L 188.232537 99.054379 
L 188.232537 98.942543 
L 188.524486 98.942543 
L 188.524486 98.830706 
L 189.207095 98.830706 
L 189.207095 98.71887 
L 189.964687 98.71887 
L 189.986261 98.383361 
L 190.355967 98.383361 
L 190.355967 98.159688 
L 190.69722 98.159688 
L 190.752297 97.824178 
L 191.413067 97.824178 
L 191.413067 97.600505 
L 191.616911 97.600505 
L 191.616911 97.376833 
L 191.747153 97.376833 
L 191.747153 97.264996 
L 192.093959 97.264996 
L 192.093959 97.15316 
L 192.724427 97.15316 
L 192.724427 97.041323 
L 192.895197 97.041323 
L 192.895197 96.929487 
L 193.070296 96.929487 
L 193.070296 96.81765 
L 193.356256 96.81765 
L 193.356256 96.146632 
L 193.67818 96.146632 
L 193.701359 95.363776 
L 193.897133 95.363776 
L 193.971403 94.804594 
L 194.537754 94.804594 
L 194.537754 94.692758 
L 195.387948 94.692758 
L 195.387948 94.580921 
L 197.735143 94.580921 
L 197.735143 94.357248 
L 200.022223 94.357248 
L 200.022223 94.133576 
L 200.535839 94.133576 
L 200.535839 94.021739 
L 201.327007 94.021739 
L 201.327007 93.909903 
L 202.207456 93.909903 
L 202.207456 93.798066 
L 202.355169 93.798066 
L 202.355169 93.574393 
L 202.980994 93.574393 
L 202.980994 93.35072 
L 203.172404 93.35072 
L 203.172404 93.238884 
L 203.292206 93.238884 
L 203.292206 93.127047 
L 203.473641 93.127047 
L 203.581591 92.679702 
L 203.591372 92.679702 
L 203.591372 92.567865 
L 203.71801 92.567865 
L 203.769695 91.896847 
L 203.88222 91.896847 
L 203.965335 91.113991 
L 204.032175 91.113991 
L 204.139844 89.660118 
L 204.146157 89.660118 
L 204.253117 88.65359 
L 204.271924 88.65359 
L 204.321974 86.976043 
L 204.427851 86.976043 
L 204.529994 85.074823 
L 204.570066 85.074823 
L 204.674431 83.732786 
L 204.68361 83.732786 
L 204.765996 82.390748 
L 204.857075 82.390748 
L 204.935622 80.377692 
L 205.004809 80.377692 
L 205.073718 78.476473 
L 205.130436 78.476473 
L 205.240353 76.35158 
L 205.246274 76.35158 
L 205.355456 73.891178 
L 205.358397 73.891178 
L 205.422978 72.325468 
L 205.487317 72.325468 
L 205.594984 70.759758 
L 205.658684 70.759758 
L 205.670241 70.536085 
L 205.773902 70.536085 
L 205.805452 69.976903 
L 205.894056 69.976903 
L 205.95382 69.529557 
L 206.069907 69.529557 
L 206.069907 69.41772 
L 206.246772 69.41772 
L 206.34425 68.858538 
L 206.394168 68.858538 
L 206.435655 68.299356 
L 206.685224 68.299356 
L 206.685224 68.18752 
L 206.820824 68.18752 
L 206.820824 67.963847 
L 207.03025 67.963847 
L 207.03025 67.85201 
L 207.542924 67.85201 
L 207.542924 67.740174 
L 207.679666 67.740174 
L 207.679666 67.516501 
L 207.929681 67.516501 
L 207.929681 67.404664 
L 208.163628 67.404664 
L 208.163628 67.292828 
L 208.369766 67.292828 
L 208.436294 67.069155 
L 208.622189 67.069155 
L 208.622189 66.957319 
L 209.278533 66.957319 
L 209.278533 66.845482 
L 210.021007 66.845482 
L 210.021007 66.733646 
L 210.148377 66.733646 
L 210.148377 66.509973 
L 210.8122 66.509973 
L 210.8122 66.398136 
L 211.159956 66.398136 
L 211.258336 66.062627 
L 213.727323 66.062627 
L 213.727323 65.950791 
L 214.157668 65.950791 
L 214.157668 65.838954 
L 214.390631 65.838954 
L 214.390631 65.727118 
L 214.913251 65.727118 
L 214.999111 65.391608 
L 215.059462 65.391608 
L 215.082874 65.056099 
L 215.237597 65.056099 
L 215.310317 64.832426 
L 215.395864 64.832426 
L 215.463016 64.496917 
L 215.528279 64.496917 
L 215.594917 63.825898 
L 215.66453 63.825898 
L 215.774044 62.036515 
L 215.777254 62.036515 
L 215.88765 60.247132 
L 215.948147 60.247132 
L 216.029006 57.78673 
L 216.076394 57.78673 
L 216.184893 55.550001 
L 216.188028 55.550001 
L 216.294269 52.865926 
L 216.340933 52.865926 
L 216.449325 51.300216 
L 216.464754 51.300216 
L 216.560106 50.85287 
L 216.576968 50.85287 
L 216.661033 50.629197 
L 216.818877 50.629197 
L 216.898763 50.405524 
L 216.972291 50.405524 
L 216.972291 50.293688 
L 217.242678 50.293688 
L 217.242678 50.181851 
L 217.686483 50.181851 
L 217.686483 50.070015 
L 217.877904 50.070015 
L 217.877904 49.846342 
L 218.089685 49.846342 
L 218.140127 49.622669 
L 218.228046 49.622669 
L 218.228046 49.510833 
L 219.023671 49.510833 
L 219.0343 49.175323 
L 219.705102 49.175323 
L 219.705102 49.063487 
L 221.937538 49.063487 
L 221.986836 48.839814 
L 222.144976 48.839814 
L 222.172667 48.616141 
L 222.473283 48.616141 
L 222.561154 47.609613 
L 222.597905 47.609613 
L 222.695884 45.708393 
L 222.714126 45.708393 
L 222.823173 43.91901 
L 222.825305 43.91901 
L 222.932593 41.905954 
L 222.938946 41.905954 
L 223.042374 40.228408 
L 223.05815 40.228408 
L 223.169224 39.781062 
L 223.260894 39.781062 
L 223.260894 39.669225 
L 223.924289 39.669225 
L 223.924289 39.557389 
L 224.197018 39.557389 
L 224.197018 39.445552 
L 226.925455 39.445552 
L 226.925455 39.333716 
L 227.09423 39.333716 
L 227.09423 39.110043 
L 227.293448 39.110043 
L 227.383616 38.774534 
L 227.428524 38.774534 
L 227.530963 36.314132 
L 227.564974 36.314132 
L 227.669823 34.301076 
L 227.681077 34.301076 
L 227.78682 32.176183 
L 227.807572 32.176183 
L 227.918092 31.393328 
L 227.925223 31.393328 
L 227.98138 31.169655 
L 228.060164 31.169655 
L 228.062522 30.945982 
L 228.433386 30.945982 
L 228.433386 30.834146 
L 228.61396 30.834146 
L 228.722461 30.610473 
L 230.907924 30.610473 
L 231.01881 30.274964 
L 231.182172 30.274964 
L 231.280883 29.156599 
L 231.308239 29.156599 
L 231.41723 28.038235 
L 231.431451 28.038235 
L 231.521035 25.913342 
L 231.563408 25.913342 
L 231.624857 25.577833 
L 232.279924 25.577833 
L 232.279924 25.465996 
L 234.127477 25.465996 
L 234.127477 25.35416 
L 234.306092 25.35416 
L 234.41129 24.123959 
L 234.43247 24.123959 
L 234.539599 23.005594 
L 234.557389 23.005594 
L 234.654103 21.775394 
L 234.747079 21.775394 
L 234.783279 21.551721 
L 235.028799 21.551721 
L 235.028799 21.439884 
L 236.813915 21.439884 
L 236.813915 21.328048 
L 236.949014 21.328048 
L 237.057454 19.98601 
L 237.086318 19.98601 
L 237.184188 18.308464 
L 237.208684 18.308464 
L 237.21838 18.084791 
L 239.12707 18.084791 
L 239.12707 17.972954 
L 239.300534 17.972954 
L 239.40695 16.742753 
L 239.467002 16.742753 
L 239.467002 16.630917 
L 241.29081 16.630917 
L 241.395775 15.512552 
L 241.406272 15.512552 
L 241.409529 15.065207 
L 243.068952 15.065207 
L 243.145005 14.617861 
L 243.183558 14.617861 
L 243.234069 14.170515 
L 244.705227 14.170515 
L 244.810951 13.163987 
L 244.842986 13.163987 
L 244.871117 12.828478 
L 246.226128 12.828478 
L 246.312596 12.157459 
L 247.573946 12.157459 
L 247.677304 11.598277 
L 248.869829 11.598277 
L 248.941673 11.262767 
L 250.075562 11.262767 
L 250.136017 10.703585 
L 251.201686 10.703585 
L 251.224811 10.479912 
L 252.261882 10.479912 
L 252.261882 10.368076 
L 253.164505 10.368076 
L 253.239251 10.144403 
L 255.042357 10.144403 
L 255.052019 9.92073 
L 256.643124 9.92073 
L 256.643124 9.808894 
L 264.110872 9.808894 
L 264.110872 9.697057 
L 333.429677 9.697057 
L 333.429677 9.697057 
" style="fill:none;stroke:#00bfbf;stroke-linecap:square;stroke-width:1.5;"/>
   </g>
   <g id="line2d_25">
    <defs>
     <path d="M -6 0 
L 6 0 
M 0 6 
L 0 -6 
" id="m4925fc2244" style="stroke:#00bfbf;stroke-width:1.5;"/>
    </defs>
    <g>
     <use style="fill-opacity:0;stroke:#00bfbf;stroke-width:1.5;" x="125.680156" xlink:href="#m4925fc2244" y="241.98136"/>
     <use style="fill-opacity:0;stroke:#00bfbf;stroke-width:1.5;" x="151.790783" xlink:href="#m4925fc2244" y="167.833795"/>
     <use style="fill-opacity:0;stroke:#00bfbf;stroke-width:1.5;" x="223.260894" xlink:href="#m4925fc2244" y="39.781062"/>
     <use style="fill-opacity:0;stroke:#00bfbf;stroke-width:1.5;" x="264.110872" xlink:href="#m4925fc2244" y="9.697057"/>
     <use style="fill-opacity:0;stroke:#00bfbf;stroke-width:1.5;" x="333.429677" xlink:href="#m4925fc2244" y="9.697057"/>
    </g>
   </g>
   <g id="line2d_26">
    <path style="fill:none;stroke:#00bfbf;stroke-linecap:square;stroke-width:1.5;"/>
    <g/>
   </g>
   <g id="line2d_27">
    <path clip-path="url(#p49a9676e67)" d="M 203.414473 93.127047 
" style="fill:none;stroke:#00bfbf;stroke-linecap:square;stroke-width:1.5;"/>
    <defs>
     <path d="M -12 12 
L 12 -12 
M -12 -12 
L 12 12 
" id="mce8e41f6fd" style="stroke:#00bfbf;stroke-width:3;"/>
    </defs>
    <g clip-path="url(#p49a9676e67)">
     <use style="fill:#00bfbf;stroke:#00bfbf;stroke-width:3;" x="203.414473" xlink:href="#mce8e41f6fd" y="93.127047"/>
    </g>
   </g>
   <g id="line2d_28">
    <path d="M 333.429677 9.697057 
L 363.933742 289.176341 
" style="fill:none;stroke:#00bfbf;stroke-linecap:square;stroke-width:1.5;"/>
    <g>
     <use style="fill-opacity:0;stroke:#00bfbf;stroke-width:1.5;" x="333.429677" xlink:href="#m4925fc2244" y="9.697057"/>
     <use style="fill-opacity:0;stroke:#00bfbf;stroke-width:1.5;" x="363.933742" xlink:href="#m4925fc2244" y="289.176341"/>
    </g>
   </g>
   <g id="line2d_29">
    <path d="M 333.429677 294.88 
L 333.429677 9.697057 
" style="fill:none;stroke:#000000;stroke-linecap:square;stroke-width:1.5;"/>
   </g>
   <g id="patch_3">
    <path d="M 56.12 294.88 
L 56.12 6.845228 
" style="fill:none;stroke:#000000;stroke-linecap:square;stroke-linejoin:miter;stroke-width:0.8;"/>
   </g>
   <g id="patch_4">
    <path d="M 399.984 294.88 
L 399.984 6.845228 
" style="fill:none;stroke:#000000;stroke-linecap:square;stroke-linejoin:miter;stroke-width:0.8;"/>
   </g>
   <g id="patch_5">
    <path d="M 56.12 294.88 
L 399.984 294.88 
" style="fill:none;stroke:#000000;stroke-linecap:square;stroke-linejoin:miter;stroke-width:0.8;"/>
   </g>
   <g id="patch_6">
    <path d="M 56.12 6.845228 
L 399.984 6.845228 
" style="fill:none;stroke:#000000;stroke-linecap:square;stroke-linejoin:miter;stroke-width:0.8;"/>
   </g>
   <g id="text_14">
    <!-- 2-D -->
    <defs>
     <path d="M 19.671875 64.796875 
L 19.671875 8.109375 
L 31.59375 8.109375 
Q 46.6875 8.109375 53.6875 14.9375 
Q 60.6875 21.78125 60.6875 36.53125 
Q 60.6875 51.171875 53.6875 57.984375 
Q 46.6875 64.796875 31.59375 64.796875 
z
M 9.8125 72.90625 
L 30.078125 72.90625 
Q 51.265625 72.90625 61.171875 64.09375 
Q 71.09375 55.28125 71.09375 36.53125 
Q 71.09375 17.671875 61.125 8.828125 
Q 51.171875 0 30.078125 0 
L 9.8125 0 
z
" id="DejaVuSans-44"/>
    </defs>
    <g transform="translate(369.479935 293.867279)scale(0.17 -0.17)">
     <use xlink:href="#DejaVuSans-32"/>
     <use x="63.623047" xlink:href="#DejaVuSans-2d"/>
     <use x="99.707031" xlink:href="#DejaVuSans-44"/>
    </g>
   </g>
   <g id="text_15">
    <!-- bbob f1-f5 -->
    <defs>
     <path d="M 48.6875 27.296875 
Q 48.6875 37.203125 44.609375 42.84375 
Q 40.53125 48.484375 33.40625 48.484375 
Q 26.265625 48.484375 22.1875 42.84375 
Q 18.109375 37.203125 18.109375 27.296875 
Q 18.109375 17.390625 22.1875 11.75 
Q 26.265625 6.109375 33.40625 6.109375 
Q 40.53125 6.109375 44.609375 11.75 
Q 48.6875 17.390625 48.6875 27.296875 
z
M 18.109375 46.390625 
Q 20.953125 51.265625 25.265625 53.625 
Q 29.59375 56 35.59375 56 
Q 45.5625 56 51.78125 48.09375 
Q 58.015625 40.1875 58.015625 27.296875 
Q 58.015625 14.40625 51.78125 6.484375 
Q 45.5625 -1.421875 35.59375 -1.421875 
Q 29.59375 -1.421875 25.265625 0.953125 
Q 20.953125 3.328125 18.109375 8.203125 
L 18.109375 0 
L 9.078125 0 
L 9.078125 75.984375 
L 18.109375 75.984375 
z
" id="DejaVuSans-62"/>
     <path d="M 10.796875 72.90625 
L 49.515625 72.90625 
L 49.515625 64.59375 
L 19.828125 64.59375 
L 19.828125 46.734375 
Q 21.96875 47.46875 24.109375 47.828125 
Q 26.265625 48.1875 28.421875 48.1875 
Q 40.625 48.1875 47.75 41.5 
Q 54.890625 34.8125 54.890625 23.390625 
Q 54.890625 11.625 47.5625 5.09375 
Q 40.234375 -1.421875 26.90625 -1.421875 
Q 22.3125 -1.421875 17.546875 -0.640625 
Q 12.796875 0.140625 7.71875 1.703125 
L 7.71875 11.625 
Q 12.109375 9.234375 16.796875 8.0625 
Q 21.484375 6.890625 26.703125 6.890625 
Q 35.15625 6.890625 40.078125 11.328125 
Q 45.015625 15.765625 45.015625 23.390625 
Q 45.015625 31 40.078125 35.4375 
Q 35.15625 39.890625 26.703125 39.890625 
Q 22.75 39.890625 18.8125 39.015625 
Q 14.890625 38.140625 10.796875 36.28125 
z
" id="DejaVuSans-35"/>
    </defs>
    <g transform="translate(59.55864 17.475982)scale(0.102 -0.102)">
     <use xlink:href="#DejaVuSans-62"/>
     <use x="63.476562" xlink:href="#DejaVuSans-62"/>
     <use x="126.953125" xlink:href="#DejaVuSans-6f"/>
     <use x="188.134766" xlink:href="#DejaVuSans-62"/>
     <use x="251.611328" xlink:href="#DejaVuSans-20"/>
     <use x="283.398438" xlink:href="#DejaVuSans-66"/>
     <use x="318.603516" xlink:href="#DejaVuSans-31"/>
     <use x="382.226562" xlink:href="#DejaVuSans-2d"/>
     <use x="418.310547" xlink:href="#DejaVuSans-66"/>
     <use x="453.515625" xlink:href="#DejaVuSans-35"/>
    </g>
    <!-- 51 targets: 100..1e-08 -->
    <defs>
     <path d="M 11.71875 12.40625 
L 22.015625 12.40625 
L 22.015625 0 
L 11.71875 0 
z
M 11.71875 51.703125 
L 22.015625 51.703125 
L 22.015625 39.3125 
L 11.71875 39.3125 
z
" id="DejaVuSans-3a"/>
    </defs>
    <g transform="translate(59.55864 28.89775)scale(0.102 -0.102)">
     <use xlink:href="#DejaVuSans-35"/>
     <use x="63.623047" xlink:href="#DejaVuSans-31"/>
     <use x="127.246094" xlink:href="#DejaVuSans-20"/>
     <use x="159.033203" xlink:href="#DejaVuSans-74"/>
     <use x="198.242188" xlink:href="#DejaVuSans-61"/>
     <use x="259.521484" xlink:href="#DejaVuSans-72"/>
     <use x="300.619141" xlink:href="#DejaVuSans-67"/>
     <use x="364.095703" xlink:href="#DejaVuSans-65"/>
     <use x="425.619141" xlink:href="#DejaVuSans-74"/>
     <use x="464.828125" xlink:href="#DejaVuSans-73"/>
     <use x="516.927734" xlink:href="#DejaVuSans-3a"/>
     <use x="550.619141" xlink:href="#DejaVuSans-20"/>
     <use x="582.40625" xlink:href="#DejaVuSans-31"/>
     <use x="646.029297" xlink:href="#DejaVuSans-30"/>
     <use x="709.652344" xlink:href="#DejaVuSans-30"/>
     <use x="773.275391" xlink:href="#DejaVuSans-2e"/>
     <use x="805.0625" xlink:href="#DejaVuSans-2e"/>
     <use x="836.849609" xlink:href="#DejaVuSans-31"/>
     <use x="900.472656" xlink:href="#DejaVuSans-65"/>
     <use x="961.996094" xlink:href="#DejaVuSans-2d"/>
     <use x="998.080078" xlink:href="#DejaVuSans-30"/>
     <use x="1061.703125" xlink:href="#DejaVuSans-38"/>
    </g>
    <!-- 15 instances -->
    <g transform="translate(59.55864 40.319519)scale(0.102 -0.102)">
     <use xlink:href="#DejaVuSans-31"/>
     <use x="63.623047" xlink:href="#DejaVuSans-35"/>
     <use x="127.246094" xlink:href="#DejaVuSans-20"/>
     <use x="159.033203" xlink:href="#DejaVuSans-69"/>
     <use x="186.816406" xlink:href="#DejaVuSans-6e"/>
     <use x="250.195312" xlink:href="#DejaVuSans-73"/>
     <use x="302.294922" xlink:href="#DejaVuSans-74"/>
     <use x="341.503906" xlink:href="#DejaVuSans-61"/>
     <use x="402.783203" xlink:href="#DejaVuSans-6e"/>
     <use x="466.162109" xlink:href="#DejaVuSans-63"/>
     <use x="521.142578" xlink:href="#DejaVuSans-65"/>
     <use x="582.666016" xlink:href="#DejaVuSans-73"/>
    </g>
   </g>
   <g id="text_16">
    <!-- v2.2.1.10 -->
    <g style="fill:#808080;" transform="translate(204.419188 289.919965)scale(0.1 -0.1)">
     <use xlink:href="#DejaVuSans-76"/>
     <use x="59.179688" xlink:href="#DejaVuSans-32"/>
     <use x="122.802734" xlink:href="#DejaVuSans-2e"/>
     <use x="154.589844" xlink:href="#DejaVuSans-32"/>
     <use x="218.212891" xlink:href="#DejaVuSans-2e"/>
     <use x="250" xlink:href="#DejaVuSans-31"/>
     <use x="313.623047" xlink:href="#DejaVuSans-2e"/>
     <use x="345.410156" xlink:href="#DejaVuSans-31"/>
     <use x="409.033203" xlink:href="#DejaVuSans-30"/>
    </g>
   </g>
  </g>
 </g>
 <defs>
  <clipPath id="p49a9676e67">
   <rect height="288.034772" width="343.864" x="56.12" y="6.845228"/>
  </clipPath>
 </defs>
</svg>
