<?xml version="1.0" encoding="utf-8" standalone="no"?>
<!DOCTYPE svg PUBLIC "-//W3C//DTD SVG 1.1//EN"
  "http://www.w3.org/Graphics/SVG/1.1/DTD/svg11.dtd">
<!-- Created with matplotlib (http://matplotlib.org/) -->
<svg height="345.6pt" version="1.1" viewBox="0 0 460.8 345.6" width="460.8pt" xmlns="http://www.w3.org/2000/svg" xmlns:xlink="http://www.w3.org/1999/xlink">
 <defs>
  <style type="text/css">
*{stroke-linecap:butt;stroke-linejoin:round;}
  </style>
 </defs>
 <g id="figure_1">
  <g id="patch_1">
   <path d="M 0 345.6 
L 460.8 345.6 
L 460.8 0 
L 0 0 
z
" style="fill:#ffffff;"/>
  </g>
  <g id="axes_1">
   <g id="patch_2">
    <path d="M 56.12 294.88 
L 399.984 294.88 
L 399.984 6.845228 
L 56.12 6.845228 
z
" style="fill:#ffffff;"/>
   </g>
   <g id="matplotlib.axis_1">
    <g id="xtick_1">
     <g id="line2d_1">
      <path clip-path="url(#pe2f409a685)" d="M 56.12 294.88 
L 56.12 6.845228 
" style="fill:none;stroke:#b0b0b0;stroke-linecap:square;stroke-width:0.8;"/>
     </g>
     <g id="line2d_2">
      <defs>
       <path d="M 0 0 
L 0 3.5 
" id="m9465baba55" style="stroke:#000000;stroke-width:0.8;"/>
      </defs>
      <g>
       <use style="stroke:#000000;stroke-width:0.8;" x="56.12" xlink:href="#m9465baba55" y="294.88"/>
      </g>
     </g>
     <g id="text_1">
      <!-- 0 -->
      <defs>
       <path d="M 31.78125 66.40625 
Q 24.171875 66.40625 20.328125 58.90625 
Q 16.5 51.421875 16.5 36.375 
Q 16.5 21.390625 20.328125 13.890625 
Q 24.171875 6.390625 31.78125 6.390625 
Q 39.453125 6.390625 43.28125 13.890625 
Q 47.125 21.390625 47.125 36.375 
Q 47.125 51.421875 43.28125 58.90625 
Q 39.453125 66.40625 31.78125 66.40625 
z
M 31.78125 74.21875 
Q 44.046875 74.21875 50.515625 64.515625 
Q 56.984375 54.828125 56.984375 36.375 
Q 56.984375 17.96875 50.515625 8.265625 
Q 44.046875 -1.421875 31.78125 -1.421875 
Q 19.53125 -1.421875 13.0625 8.265625 
Q 6.59375 17.96875 6.59375 36.375 
Q 6.59375 54.828125 13.0625 64.515625 
Q 19.53125 74.21875 31.78125 74.21875 
z
" id="DejaVuSans-30"/>
      </defs>
      <g transform="translate(49.7575 317.076875)scale(0.2 -0.2)">
       <use xlink:href="#DejaVuSans-30"/>
      </g>
     </g>
    </g>
    <g id="xtick_2">
     <g id="line2d_3">
      <path clip-path="url(#pe2f409a685)" d="M 135.351336 294.88 
L 135.351336 6.845228 
" style="fill:none;stroke:#b0b0b0;stroke-linecap:square;stroke-width:0.8;"/>
     </g>
     <g id="line2d_4">
      <g>
       <use style="stroke:#000000;stroke-width:0.8;" x="135.351336" xlink:href="#m9465baba55" y="294.88"/>
      </g>
     </g>
     <g id="text_2">
      <!-- 2 -->
      <defs>
       <path d="M 19.1875 8.296875 
L 53.609375 8.296875 
L 53.609375 0 
L 7.328125 0 
L 7.328125 8.296875 
Q 12.9375 14.109375 22.625 23.890625 
Q 32.328125 33.6875 34.8125 36.53125 
Q 39.546875 41.84375 41.421875 45.53125 
Q 43.3125 49.21875 43.3125 52.78125 
Q 43.3125 58.59375 39.234375 62.25 
Q 35.15625 65.921875 28.609375 65.921875 
Q 23.96875 65.921875 18.8125 64.3125 
Q 13.671875 62.703125 7.8125 59.421875 
L 7.8125 69.390625 
Q 13.765625 71.78125 18.9375 73 
Q 24.125 74.21875 28.421875 74.21875 
Q 39.75 74.21875 46.484375 68.546875 
Q 53.21875 62.890625 53.21875 53.421875 
Q 53.21875 48.921875 51.53125 44.890625 
Q 49.859375 40.875 45.40625 35.40625 
Q 44.1875 33.984375 37.640625 27.21875 
Q 31.109375 20.453125 19.1875 8.296875 
z
" id="DejaVuSans-32"/>
      </defs>
      <g transform="translate(128.988836 317.076875)scale(0.2 -0.2)">
       <use xlink:href="#DejaVuSans-32"/>
      </g>
     </g>
    </g>
    <g id="xtick_3">
     <g id="line2d_5">
      <path clip-path="url(#pe2f409a685)" d="M 214.582673 294.88 
L 214.582673 6.845228 
" style="fill:none;stroke:#b0b0b0;stroke-linecap:square;stroke-width:0.8;"/>
     </g>
     <g id="line2d_6">
      <g>
       <use style="stroke:#000000;stroke-width:0.8;" x="214.582673" xlink:href="#m9465baba55" y="294.88"/>
      </g>
     </g>
     <g id="text_3">
      <!-- 4 -->
      <defs>
       <path d="M 37.796875 64.3125 
L 12.890625 25.390625 
L 37.796875 25.390625 
z
M 35.203125 72.90625 
L 47.609375 72.90625 
L 47.609375 25.390625 
L 58.015625 25.390625 
L 58.015625 17.1875 
L 47.609375 17.1875 
L 47.609375 0 
L 37.796875 0 
L 37.796875 17.1875 
L 4.890625 17.1875 
L 4.890625 26.703125 
z
" id="DejaVuSans-34"/>
      </defs>
      <g transform="translate(208.220173 317.076875)scale(0.2 -0.2)">
       <use xlink:href="#DejaVuSans-34"/>
      </g>
     </g>
    </g>
    <g id="xtick_4">
     <g id="line2d_7">
      <path clip-path="url(#pe2f409a685)" d="M 293.814009 294.88 
L 293.814009 6.845228 
" style="fill:none;stroke:#b0b0b0;stroke-linecap:square;stroke-width:0.8;"/>
     </g>
     <g id="line2d_8">
      <g>
       <use style="stroke:#000000;stroke-width:0.8;" x="293.814009" xlink:href="#m9465baba55" y="294.88"/>
      </g>
     </g>
     <g id="text_4">
      <!-- 6 -->
      <defs>
       <path d="M 33.015625 40.375 
Q 26.375 40.375 22.484375 35.828125 
Q 18.609375 31.296875 18.609375 23.390625 
Q 18.609375 15.53125 22.484375 10.953125 
Q 26.375 6.390625 33.015625 6.390625 
Q 39.65625 6.390625 43.53125 10.953125 
Q 47.40625 15.53125 47.40625 23.390625 
Q 47.40625 31.296875 43.53125 35.828125 
Q 39.65625 40.375 33.015625 40.375 
z
M 52.59375 71.296875 
L 52.59375 62.3125 
Q 48.875 64.0625 45.09375 64.984375 
Q 41.3125 65.921875 37.59375 65.921875 
Q 27.828125 65.921875 22.671875 59.328125 
Q 17.53125 52.734375 16.796875 39.40625 
Q 19.671875 43.65625 24.015625 45.921875 
Q 28.375 48.1875 33.59375 48.1875 
Q 44.578125 48.1875 50.953125 41.515625 
Q 57.328125 34.859375 57.328125 23.390625 
Q 57.328125 12.15625 50.6875 5.359375 
Q 44.046875 -1.421875 33.015625 -1.421875 
Q 20.359375 -1.421875 13.671875 8.265625 
Q 6.984375 17.96875 6.984375 36.375 
Q 6.984375 53.65625 15.1875 63.9375 
Q 23.390625 74.21875 37.203125 74.21875 
Q 40.921875 74.21875 44.703125 73.484375 
Q 48.484375 72.75 52.59375 71.296875 
z
" id="DejaVuSans-36"/>
      </defs>
      <g transform="translate(287.451509 317.076875)scale(0.2 -0.2)">
       <use xlink:href="#DejaVuSans-36"/>
      </g>
     </g>
    </g>
    <g id="xtick_5">
     <g id="line2d_9">
      <path clip-path="url(#pe2f409a685)" d="M 373.045346 294.88 
L 373.045346 6.845228 
" style="fill:none;stroke:#b0b0b0;stroke-linecap:square;stroke-width:0.8;"/>
     </g>
     <g id="line2d_10">
      <g>
       <use style="stroke:#000000;stroke-width:0.8;" x="373.045346" xlink:href="#m9465baba55" y="294.88"/>
      </g>
     </g>
     <g id="text_5">
      <!-- 8 -->
      <defs>
       <path d="M 31.78125 34.625 
Q 24.75 34.625 20.71875 30.859375 
Q 16.703125 27.09375 16.703125 20.515625 
Q 16.703125 13.921875 20.71875 10.15625 
Q 24.75 6.390625 31.78125 6.390625 
Q 38.8125 6.390625 42.859375 10.171875 
Q 46.921875 13.96875 46.921875 20.515625 
Q 46.921875 27.09375 42.890625 30.859375 
Q 38.875 34.625 31.78125 34.625 
z
M 21.921875 38.8125 
Q 15.578125 40.375 12.03125 44.71875 
Q 8.5 49.078125 8.5 55.328125 
Q 8.5 64.0625 14.71875 69.140625 
Q 20.953125 74.21875 31.78125 74.21875 
Q 42.671875 74.21875 48.875 69.140625 
Q 55.078125 64.0625 55.078125 55.328125 
Q 55.078125 49.078125 51.53125 44.71875 
Q 48 40.375 41.703125 38.8125 
Q 48.828125 37.15625 52.796875 32.3125 
Q 56.78125 27.484375 56.78125 20.515625 
Q 56.78125 9.90625 50.3125 4.234375 
Q 43.84375 -1.421875 31.78125 -1.421875 
Q 19.734375 -1.421875 13.25 4.234375 
Q 6.78125 9.90625 6.78125 20.515625 
Q 6.78125 27.484375 10.78125 32.3125 
Q 14.796875 37.15625 21.921875 38.8125 
z
M 18.3125 54.390625 
Q 18.3125 48.734375 21.84375 45.5625 
Q 25.390625 42.390625 31.78125 42.390625 
Q 38.140625 42.390625 41.71875 45.5625 
Q 45.3125 48.734375 45.3125 54.390625 
Q 45.3125 60.0625 41.71875 63.234375 
Q 38.140625 66.40625 31.78125 66.40625 
Q 25.390625 66.40625 21.84375 63.234375 
Q 18.3125 60.0625 18.3125 54.390625 
z
" id="DejaVuSans-38"/>
      </defs>
      <g transform="translate(366.682846 317.076875)scale(0.2 -0.2)">
       <use xlink:href="#DejaVuSans-38"/>
      </g>
     </g>
    </g>
    <g id="text_6">
     <!-- log10(# f-evals / dimension) -->
     <defs>
      <path d="M 9.421875 75.984375 
L 18.40625 75.984375 
L 18.40625 0 
L 9.421875 0 
z
" id="DejaVuSans-6c"/>
      <path d="M 30.609375 48.390625 
Q 23.390625 48.390625 19.1875 42.75 
Q 14.984375 37.109375 14.984375 27.296875 
Q 14.984375 17.484375 19.15625 11.84375 
Q 23.34375 6.203125 30.609375 6.203125 
Q 37.796875 6.203125 41.984375 11.859375 
Q 46.1875 17.53125 46.1875 27.296875 
Q 46.1875 37.015625 41.984375 42.703125 
Q 37.796875 48.390625 30.609375 48.390625 
z
M 30.609375 56 
Q 42.328125 56 49.015625 48.375 
Q 55.71875 40.765625 55.71875 27.296875 
Q 55.71875 13.875 49.015625 6.21875 
Q 42.328125 -1.421875 30.609375 -1.421875 
Q 18.84375 -1.421875 12.171875 6.21875 
Q 5.515625 13.875 5.515625 27.296875 
Q 5.515625 40.765625 12.171875 48.375 
Q 18.84375 56 30.609375 56 
z
" id="DejaVuSans-6f"/>
      <path d="M 45.40625 27.984375 
Q 45.40625 37.75 41.375 43.109375 
Q 37.359375 48.484375 30.078125 48.484375 
Q 22.859375 48.484375 18.828125 43.109375 
Q 14.796875 37.75 14.796875 27.984375 
Q 14.796875 18.265625 18.828125 12.890625 
Q 22.859375 7.515625 30.078125 7.515625 
Q 37.359375 7.515625 41.375 12.890625 
Q 45.40625 18.265625 45.40625 27.984375 
z
M 54.390625 6.78125 
Q 54.390625 -7.171875 48.1875 -13.984375 
Q 42 -20.796875 29.203125 -20.796875 
Q 24.46875 -20.796875 20.265625 -20.09375 
Q 16.0625 -19.390625 12.109375 -17.921875 
L 12.109375 -9.1875 
Q 16.0625 -11.328125 19.921875 -12.34375 
Q 23.78125 -13.375 27.78125 -13.375 
Q 36.625 -13.375 41.015625 -8.765625 
Q 45.40625 -4.15625 45.40625 5.171875 
L 45.40625 9.625 
Q 42.625 4.78125 38.28125 2.390625 
Q 33.9375 0 27.875 0 
Q 17.828125 0 11.671875 7.65625 
Q 5.515625 15.328125 5.515625 27.984375 
Q 5.515625 40.671875 11.671875 48.328125 
Q 17.828125 56 27.875 56 
Q 33.9375 56 38.28125 53.609375 
Q 42.625 51.21875 45.40625 46.390625 
L 45.40625 54.6875 
L 54.390625 54.6875 
z
" id="DejaVuSans-67"/>
      <path d="M 12.40625 8.296875 
L 28.515625 8.296875 
L 28.515625 63.921875 
L 10.984375 60.40625 
L 10.984375 69.390625 
L 28.421875 72.90625 
L 38.28125 72.90625 
L 38.28125 8.296875 
L 54.390625 8.296875 
L 54.390625 0 
L 12.40625 0 
z
" id="DejaVuSans-31"/>
      <path d="M 31 75.875 
Q 24.46875 64.65625 21.28125 53.65625 
Q 18.109375 42.671875 18.109375 31.390625 
Q 18.109375 20.125 21.3125 9.0625 
Q 24.515625 -2 31 -13.1875 
L 23.1875 -13.1875 
Q 15.875 -1.703125 12.234375 9.375 
Q 8.59375 20.453125 8.59375 31.390625 
Q 8.59375 42.28125 12.203125 53.3125 
Q 15.828125 64.359375 23.1875 75.875 
z
" id="DejaVuSans-28"/>
      <path d="M 51.125 44 
L 36.921875 44 
L 32.8125 27.6875 
L 47.125 27.6875 
z
M 43.796875 71.78125 
L 38.71875 51.515625 
L 52.984375 51.515625 
L 58.109375 71.78125 
L 65.921875 71.78125 
L 60.890625 51.515625 
L 76.125 51.515625 
L 76.125 44 
L 58.984375 44 
L 54.984375 27.6875 
L 70.515625 27.6875 
L 70.515625 20.21875 
L 53.078125 20.21875 
L 48 0 
L 40.1875 0 
L 45.21875 20.21875 
L 30.90625 20.21875 
L 25.875 0 
L 18.015625 0 
L 23.09375 20.21875 
L 7.71875 20.21875 
L 7.71875 27.6875 
L 24.90625 27.6875 
L 29 44 
L 13.28125 44 
L 13.28125 51.515625 
L 30.90625 51.515625 
L 35.890625 71.78125 
z
" id="DejaVuSans-23"/>
      <path id="DejaVuSans-20"/>
      <path d="M 37.109375 75.984375 
L 37.109375 68.5 
L 28.515625 68.5 
Q 23.6875 68.5 21.796875 66.546875 
Q 19.921875 64.59375 19.921875 59.515625 
L 19.921875 54.6875 
L 34.71875 54.6875 
L 34.71875 47.703125 
L 19.921875 47.703125 
L 19.921875 0 
L 10.890625 0 
L 10.890625 47.703125 
L 2.296875 47.703125 
L 2.296875 54.6875 
L 10.890625 54.6875 
L 10.890625 58.5 
Q 10.890625 67.625 15.140625 71.796875 
Q 19.390625 75.984375 28.609375 75.984375 
z
" id="DejaVuSans-66"/>
      <path d="M 4.890625 31.390625 
L 31.203125 31.390625 
L 31.203125 23.390625 
L 4.890625 23.390625 
z
" id="DejaVuSans-2d"/>
      <path d="M 56.203125 29.59375 
L 56.203125 25.203125 
L 14.890625 25.203125 
Q 15.484375 15.921875 20.484375 11.0625 
Q 25.484375 6.203125 34.421875 6.203125 
Q 39.59375 6.203125 44.453125 7.46875 
Q 49.3125 8.734375 54.109375 11.28125 
L 54.109375 2.78125 
Q 49.265625 0.734375 44.1875 -0.34375 
Q 39.109375 -1.421875 33.890625 -1.421875 
Q 20.796875 -1.421875 13.15625 6.1875 
Q 5.515625 13.8125 5.515625 26.8125 
Q 5.515625 40.234375 12.765625 48.109375 
Q 20.015625 56 32.328125 56 
Q 43.359375 56 49.78125 48.890625 
Q 56.203125 41.796875 56.203125 29.59375 
z
M 47.21875 32.234375 
Q 47.125 39.59375 43.09375 43.984375 
Q 39.0625 48.390625 32.421875 48.390625 
Q 24.90625 48.390625 20.390625 44.140625 
Q 15.875 39.890625 15.1875 32.171875 
z
" id="DejaVuSans-65"/>
      <path d="M 2.984375 54.6875 
L 12.5 54.6875 
L 29.59375 8.796875 
L 46.6875 54.6875 
L 56.203125 54.6875 
L 35.6875 0 
L 23.484375 0 
z
" id="DejaVuSans-76"/>
      <path d="M 34.28125 27.484375 
Q 23.390625 27.484375 19.1875 25 
Q 14.984375 22.515625 14.984375 16.5 
Q 14.984375 11.71875 18.140625 8.90625 
Q 21.296875 6.109375 26.703125 6.109375 
Q 34.1875 6.109375 38.703125 11.40625 
Q 43.21875 16.703125 43.21875 25.484375 
L 43.21875 27.484375 
z
M 52.203125 31.203125 
L 52.203125 0 
L 43.21875 0 
L 43.21875 8.296875 
Q 40.140625 3.328125 35.546875 0.953125 
Q 30.953125 -1.421875 24.3125 -1.421875 
Q 15.921875 -1.421875 10.953125 3.296875 
Q 6 8.015625 6 15.921875 
Q 6 25.140625 12.171875 29.828125 
Q 18.359375 34.515625 30.609375 34.515625 
L 43.21875 34.515625 
L 43.21875 35.40625 
Q 43.21875 41.609375 39.140625 45 
Q 35.0625 48.390625 27.6875 48.390625 
Q 23 48.390625 18.546875 47.265625 
Q 14.109375 46.140625 10.015625 43.890625 
L 10.015625 52.203125 
Q 14.9375 54.109375 19.578125 55.046875 
Q 24.21875 56 28.609375 56 
Q 40.484375 56 46.34375 49.84375 
Q 52.203125 43.703125 52.203125 31.203125 
z
" id="DejaVuSans-61"/>
      <path d="M 44.28125 53.078125 
L 44.28125 44.578125 
Q 40.484375 46.53125 36.375 47.5 
Q 32.28125 48.484375 27.875 48.484375 
Q 21.1875 48.484375 17.84375 46.4375 
Q 14.5 44.390625 14.5 40.28125 
Q 14.5 37.15625 16.890625 35.375 
Q 19.28125 33.59375 26.515625 31.984375 
L 29.59375 31.296875 
Q 39.15625 29.25 43.1875 25.515625 
Q 47.21875 21.78125 47.21875 15.09375 
Q 47.21875 7.46875 41.1875 3.015625 
Q 35.15625 -1.421875 24.609375 -1.421875 
Q 20.21875 -1.421875 15.453125 -0.5625 
Q 10.6875 0.296875 5.421875 2 
L 5.421875 11.28125 
Q 10.40625 8.6875 15.234375 7.390625 
Q 20.0625 6.109375 24.8125 6.109375 
Q 31.15625 6.109375 34.5625 8.28125 
Q 37.984375 10.453125 37.984375 14.40625 
Q 37.984375 18.0625 35.515625 20.015625 
Q 33.0625 21.96875 24.703125 23.78125 
L 21.578125 24.515625 
Q 13.234375 26.265625 9.515625 29.90625 
Q 5.8125 33.546875 5.8125 39.890625 
Q 5.8125 47.609375 11.28125 51.796875 
Q 16.75 56 26.8125 56 
Q 31.78125 56 36.171875 55.265625 
Q 40.578125 54.546875 44.28125 53.078125 
z
" id="DejaVuSans-73"/>
      <path d="M 25.390625 72.90625 
L 33.6875 72.90625 
L 8.296875 -9.28125 
L 0 -9.28125 
z
" id="DejaVuSans-2f"/>
      <path d="M 45.40625 46.390625 
L 45.40625 75.984375 
L 54.390625 75.984375 
L 54.390625 0 
L 45.40625 0 
L 45.40625 8.203125 
Q 42.578125 3.328125 38.25 0.953125 
Q 33.9375 -1.421875 27.875 -1.421875 
Q 17.96875 -1.421875 11.734375 6.484375 
Q 5.515625 14.40625 5.515625 27.296875 
Q 5.515625 40.1875 11.734375 48.09375 
Q 17.96875 56 27.875 56 
Q 33.9375 56 38.25 53.625 
Q 42.578125 51.265625 45.40625 46.390625 
z
M 14.796875 27.296875 
Q 14.796875 17.390625 18.875 11.75 
Q 22.953125 6.109375 30.078125 6.109375 
Q 37.203125 6.109375 41.296875 11.75 
Q 45.40625 17.390625 45.40625 27.296875 
Q 45.40625 37.203125 41.296875 42.84375 
Q 37.203125 48.484375 30.078125 48.484375 
Q 22.953125 48.484375 18.875 42.84375 
Q 14.796875 37.203125 14.796875 27.296875 
z
" id="DejaVuSans-64"/>
      <path d="M 9.421875 54.6875 
L 18.40625 54.6875 
L 18.40625 0 
L 9.421875 0 
z
M 9.421875 75.984375 
L 18.40625 75.984375 
L 18.40625 64.59375 
L 9.421875 64.59375 
z
" id="DejaVuSans-69"/>
      <path d="M 52 44.1875 
Q 55.375 50.25 60.0625 53.125 
Q 64.75 56 71.09375 56 
Q 79.640625 56 84.28125 50.015625 
Q 88.921875 44.046875 88.921875 33.015625 
L 88.921875 0 
L 79.890625 0 
L 79.890625 32.71875 
Q 79.890625 40.578125 77.09375 44.375 
Q 74.3125 48.1875 68.609375 48.1875 
Q 61.625 48.1875 57.5625 43.546875 
Q 53.515625 38.921875 53.515625 30.90625 
L 53.515625 0 
L 44.484375 0 
L 44.484375 32.71875 
Q 44.484375 40.625 41.703125 44.40625 
Q 38.921875 48.1875 33.109375 48.1875 
Q 26.21875 48.1875 22.15625 43.53125 
Q 18.109375 38.875 18.109375 30.90625 
L 18.109375 0 
L 9.078125 0 
L 9.078125 54.6875 
L 18.109375 54.6875 
L 18.109375 46.1875 
Q 21.1875 51.21875 25.484375 53.609375 
Q 29.78125 56 35.6875 56 
Q 41.65625 56 45.828125 52.96875 
Q 50 49.953125 52 44.1875 
z
" id="DejaVuSans-6d"/>
      <path d="M 54.890625 33.015625 
L 54.890625 0 
L 45.90625 0 
L 45.90625 32.71875 
Q 45.90625 40.484375 42.875 44.328125 
Q 39.84375 48.1875 33.796875 48.1875 
Q 26.515625 48.1875 22.3125 43.546875 
Q 18.109375 38.921875 18.109375 30.90625 
L 18.109375 0 
L 9.078125 0 
L 9.078125 54.6875 
L 18.109375 54.6875 
L 18.109375 46.1875 
Q 21.34375 51.125 25.703125 53.5625 
Q 30.078125 56 35.796875 56 
Q 45.21875 56 50.046875 50.171875 
Q 54.890625 44.34375 54.890625 33.015625 
z
" id="DejaVuSans-6e"/>
      <path d="M 8.015625 75.875 
L 15.828125 75.875 
Q 23.140625 64.359375 26.78125 53.3125 
Q 30.421875 42.28125 30.421875 31.390625 
Q 30.421875 20.453125 26.78125 9.375 
Q 23.140625 -1.703125 15.828125 -13.1875 
L 8.015625 -13.1875 
Q 14.5 -2 17.703125 9.0625 
Q 20.90625 20.125 20.90625 31.390625 
Q 20.90625 42.671875 17.703125 53.65625 
Q 14.5 64.65625 8.015625 75.875 
z
" id="DejaVuSans-29"/>
     </defs>
     <g transform="translate(107.211219 338.153594)scale(0.17 -0.17)">
      <use xlink:href="#DejaVuSans-6c"/>
      <use x="27.783203" xlink:href="#DejaVuSans-6f"/>
      <use x="88.964844" xlink:href="#DejaVuSans-67"/>
      <use x="152.441406" xlink:href="#DejaVuSans-31"/>
      <use x="216.064453" xlink:href="#DejaVuSans-30"/>
      <use x="279.6875" xlink:href="#DejaVuSans-28"/>
      <use x="318.701172" xlink:href="#DejaVuSans-23"/>
      <use x="402.490234" xlink:href="#DejaVuSans-20"/>
      <use x="434.277344" xlink:href="#DejaVuSans-66"/>
      <use x="469.404297" xlink:href="#DejaVuSans-2d"/>
      <use x="505.488281" xlink:href="#DejaVuSans-65"/>
      <use x="567.011719" xlink:href="#DejaVuSans-76"/>
      <use x="626.191406" xlink:href="#DejaVuSans-61"/>
      <use x="687.470703" xlink:href="#DejaVuSans-6c"/>
      <use x="715.253906" xlink:href="#DejaVuSans-73"/>
      <use x="767.353516" xlink:href="#DejaVuSans-20"/>
      <use x="799.140625" xlink:href="#DejaVuSans-2f"/>
      <use x="832.832031" xlink:href="#DejaVuSans-20"/>
      <use x="864.619141" xlink:href="#DejaVuSans-64"/>
      <use x="928.095703" xlink:href="#DejaVuSans-69"/>
      <use x="955.878906" xlink:href="#DejaVuSans-6d"/>
      <use x="1053.291016" xlink:href="#DejaVuSans-65"/>
      <use x="1114.814453" xlink:href="#DejaVuSans-6e"/>
      <use x="1178.193359" xlink:href="#DejaVuSans-73"/>
      <use x="1230.292969" xlink:href="#DejaVuSans-69"/>
      <use x="1258.076172" xlink:href="#DejaVuSans-6f"/>
      <use x="1319.257812" xlink:href="#DejaVuSans-6e"/>
      <use x="1382.636719" xlink:href="#DejaVuSans-29"/>
     </g>
    </g>
   </g>
   <g id="matplotlib.axis_2">
    <g id="ytick_1">
     <g id="line2d_11">
      <path clip-path="url(#pe2f409a685)" d="M 56.12 294.88 
L 399.984 294.88 
" style="fill:none;stroke:#b0b0b0;stroke-linecap:square;stroke-width:0.8;"/>
     </g>
     <g id="line2d_12">
      <defs>
       <path d="M 0 0 
L -3.5 0 
" id="me8c2cc8d01" style="stroke:#000000;stroke-width:0.8;"/>
      </defs>
      <g>
       <use style="stroke:#000000;stroke-width:0.8;" x="56.12" xlink:href="#me8c2cc8d01" y="294.88"/>
      </g>
     </g>
     <g id="text_7">
      <!-- 0.0 -->
      <defs>
       <path d="M 10.6875 12.40625 
L 21 12.40625 
L 21 0 
L 10.6875 0 
z
" id="DejaVuSans-2e"/>
      </defs>
      <g transform="translate(23.675 300.95875)scale(0.16 -0.16)">
       <use xlink:href="#DejaVuSans-30"/>
       <use x="63.623047" xlink:href="#DejaVuSans-2e"/>
       <use x="95.410156" xlink:href="#DejaVuSans-30"/>
      </g>
     </g>
    </g>
    <g id="ytick_2">
     <g id="line2d_13">
      <path clip-path="url(#pe2f409a685)" d="M 56.12 237.843411 
L 399.984 237.843411 
" style="fill:none;stroke:#b0b0b0;stroke-linecap:square;stroke-width:0.8;"/>
     </g>
     <g id="line2d_14">
      <g>
       <use style="stroke:#000000;stroke-width:0.8;" x="56.12" xlink:href="#me8c2cc8d01" y="237.843411"/>
      </g>
     </g>
     <g id="text_8">
      <!-- 0.2 -->
      <g transform="translate(23.675 243.922161)scale(0.16 -0.16)">
       <use xlink:href="#DejaVuSans-30"/>
       <use x="63.623047" xlink:href="#DejaVuSans-2e"/>
       <use x="95.410156" xlink:href="#DejaVuSans-32"/>
      </g>
     </g>
    </g>
    <g id="ytick_3">
     <g id="line2d_15">
      <path clip-path="url(#pe2f409a685)" d="M 56.12 180.806823 
L 399.984 180.806823 
" style="fill:none;stroke:#b0b0b0;stroke-linecap:square;stroke-width:0.8;"/>
     </g>
     <g id="line2d_16">
      <g>
       <use style="stroke:#000000;stroke-width:0.8;" x="56.12" xlink:href="#me8c2cc8d01" y="180.806823"/>
      </g>
     </g>
     <g id="text_9">
      <!-- 0.4 -->
      <g transform="translate(23.675 186.885573)scale(0.16 -0.16)">
       <use xlink:href="#DejaVuSans-30"/>
       <use x="63.623047" xlink:href="#DejaVuSans-2e"/>
       <use x="95.410156" xlink:href="#DejaVuSans-34"/>
      </g>
     </g>
    </g>
    <g id="ytick_4">
     <g id="line2d_17">
      <path clip-path="url(#pe2f409a685)" d="M 56.12 123.770234 
L 399.984 123.770234 
" style="fill:none;stroke:#b0b0b0;stroke-linecap:square;stroke-width:0.8;"/>
     </g>
     <g id="line2d_18">
      <g>
       <use style="stroke:#000000;stroke-width:0.8;" x="56.12" xlink:href="#me8c2cc8d01" y="123.770234"/>
      </g>
     </g>
     <g id="text_10">
      <!-- 0.6 -->
      <g transform="translate(23.675 129.848984)scale(0.16 -0.16)">
       <use xlink:href="#DejaVuSans-30"/>
       <use x="63.623047" xlink:href="#DejaVuSans-2e"/>
       <use x="95.410156" xlink:href="#DejaVuSans-36"/>
      </g>
     </g>
    </g>
    <g id="ytick_5">
     <g id="line2d_19">
      <path clip-path="url(#pe2f409a685)" d="M 56.12 66.733646 
L 399.984 66.733646 
" style="fill:none;stroke:#b0b0b0;stroke-linecap:square;stroke-width:0.8;"/>
     </g>
     <g id="line2d_20">
      <g>
       <use style="stroke:#000000;stroke-width:0.8;" x="56.12" xlink:href="#me8c2cc8d01" y="66.733646"/>
      </g>
     </g>
     <g id="text_11">
      <!-- 0.8 -->
      <g transform="translate(23.675 72.812396)scale(0.16 -0.16)">
       <use xlink:href="#DejaVuSans-30"/>
       <use x="63.623047" xlink:href="#DejaVuSans-2e"/>
       <use x="95.410156" xlink:href="#DejaVuSans-38"/>
      </g>
     </g>
    </g>
    <g id="ytick_6">
     <g id="line2d_21">
      <path clip-path="url(#pe2f409a685)" d="M 56.12 9.697057 
L 399.984 9.697057 
" style="fill:none;stroke:#b0b0b0;stroke-linecap:square;stroke-width:0.8;"/>
     </g>
     <g id="line2d_22">
      <g>
       <use style="stroke:#000000;stroke-width:0.8;" x="56.12" xlink:href="#me8c2cc8d01" y="9.697057"/>
      </g>
     </g>
     <g id="text_12">
      <!-- 1.0 -->
      <g transform="translate(23.675 15.775807)scale(0.16 -0.16)">
       <use xlink:href="#DejaVuSans-31"/>
       <use x="63.623047" xlink:href="#DejaVuSans-2e"/>
       <use x="95.410156" xlink:href="#DejaVuSans-30"/>
      </g>
     </g>
    </g>
    <g id="text_13">
     <!-- Fraction of function,target pairs -->
     <defs>
      <path d="M 9.8125 72.90625 
L 51.703125 72.90625 
L 51.703125 64.59375 
L 19.671875 64.59375 
L 19.671875 43.109375 
L 48.578125 43.109375 
L 48.578125 34.8125 
L 19.671875 34.8125 
L 19.671875 0 
L 9.8125 0 
z
" id="DejaVuSans-46"/>
      <path d="M 41.109375 46.296875 
Q 39.59375 47.171875 37.8125 47.578125 
Q 36.03125 48 33.890625 48 
Q 26.265625 48 22.1875 43.046875 
Q 18.109375 38.09375 18.109375 28.8125 
L 18.109375 0 
L 9.078125 0 
L 9.078125 54.6875 
L 18.109375 54.6875 
L 18.109375 46.1875 
Q 20.953125 51.171875 25.484375 53.578125 
Q 30.03125 56 36.53125 56 
Q 37.453125 56 38.578125 55.875 
Q 39.703125 55.765625 41.0625 55.515625 
z
" id="DejaVuSans-72"/>
      <path d="M 48.78125 52.59375 
L 48.78125 44.1875 
Q 44.96875 46.296875 41.140625 47.34375 
Q 37.3125 48.390625 33.40625 48.390625 
Q 24.65625 48.390625 19.8125 42.84375 
Q 14.984375 37.3125 14.984375 27.296875 
Q 14.984375 17.28125 19.8125 11.734375 
Q 24.65625 6.203125 33.40625 6.203125 
Q 37.3125 6.203125 41.140625 7.25 
Q 44.96875 8.296875 48.78125 10.40625 
L 48.78125 2.09375 
Q 45.015625 0.34375 40.984375 -0.53125 
Q 36.96875 -1.421875 32.421875 -1.421875 
Q 20.0625 -1.421875 12.78125 6.34375 
Q 5.515625 14.109375 5.515625 27.296875 
Q 5.515625 40.671875 12.859375 48.328125 
Q 20.21875 56 33.015625 56 
Q 37.15625 56 41.109375 55.140625 
Q 45.0625 54.296875 48.78125 52.59375 
z
" id="DejaVuSans-63"/>
      <path d="M 18.3125 70.21875 
L 18.3125 54.6875 
L 36.8125 54.6875 
L 36.8125 47.703125 
L 18.3125 47.703125 
L 18.3125 18.015625 
Q 18.3125 11.328125 20.140625 9.421875 
Q 21.96875 7.515625 27.59375 7.515625 
L 36.8125 7.515625 
L 36.8125 0 
L 27.59375 0 
Q 17.1875 0 13.234375 3.875 
Q 9.28125 7.765625 9.28125 18.015625 
L 9.28125 47.703125 
L 2.6875 47.703125 
L 2.6875 54.6875 
L 9.28125 54.6875 
L 9.28125 70.21875 
z
" id="DejaVuSans-74"/>
      <path d="M 8.5 21.578125 
L 8.5 54.6875 
L 17.484375 54.6875 
L 17.484375 21.921875 
Q 17.484375 14.15625 20.5 10.265625 
Q 23.53125 6.390625 29.59375 6.390625 
Q 36.859375 6.390625 41.078125 11.03125 
Q 45.3125 15.671875 45.3125 23.6875 
L 45.3125 54.6875 
L 54.296875 54.6875 
L 54.296875 0 
L 45.3125 0 
L 45.3125 8.40625 
Q 42.046875 3.421875 37.71875 1 
Q 33.40625 -1.421875 27.6875 -1.421875 
Q 18.265625 -1.421875 13.375 4.4375 
Q 8.5 10.296875 8.5 21.578125 
z
M 31.109375 56 
z
" id="DejaVuSans-75"/>
      <path d="M 11.71875 12.40625 
L 22.015625 12.40625 
L 22.015625 4 
L 14.015625 -11.625 
L 7.71875 -11.625 
L 11.71875 4 
z
" id="DejaVuSans-2c"/>
      <path d="M 18.109375 8.203125 
L 18.109375 -20.796875 
L 9.078125 -20.796875 
L 9.078125 54.6875 
L 18.109375 54.6875 
L 18.109375 46.390625 
Q 20.953125 51.265625 25.265625 53.625 
Q 29.59375 56 35.59375 56 
Q 45.5625 56 51.78125 48.09375 
Q 58.015625 40.1875 58.015625 27.296875 
Q 58.015625 14.40625 51.78125 6.484375 
Q 45.5625 -1.421875 35.59375 -1.421875 
Q 29.59375 -1.421875 25.265625 0.953125 
Q 20.953125 3.328125 18.109375 8.203125 
z
M 48.6875 27.296875 
Q 48.6875 37.203125 44.609375 42.84375 
Q 40.53125 48.484375 33.40625 48.484375 
Q 26.265625 48.484375 22.1875 42.84375 
Q 18.109375 37.203125 18.109375 27.296875 
Q 18.109375 17.390625 22.1875 11.75 
Q 26.265625 6.109375 33.40625 6.109375 
Q 40.53125 6.109375 44.609375 11.75 
Q 48.6875 17.390625 48.6875 27.296875 
z
" id="DejaVuSans-70"/>
     </defs>
     <g transform="translate(16.139531 286.001989)rotate(-90)scale(0.17 -0.17)">
      <use xlink:href="#DejaVuSans-46"/>
      <use x="57.410156" xlink:href="#DejaVuSans-72"/>
      <use x="98.523438" xlink:href="#DejaVuSans-61"/>
      <use x="159.802734" xlink:href="#DejaVuSans-63"/>
      <use x="214.783203" xlink:href="#DejaVuSans-74"/>
      <use x="253.992188" xlink:href="#DejaVuSans-69"/>
      <use x="281.775391" xlink:href="#DejaVuSans-6f"/>
      <use x="342.957031" xlink:href="#DejaVuSans-6e"/>
      <use x="406.335938" xlink:href="#DejaVuSans-20"/>
      <use x="438.123047" xlink:href="#DejaVuSans-6f"/>
      <use x="499.304688" xlink:href="#DejaVuSans-66"/>
      <use x="534.509766" xlink:href="#DejaVuSans-20"/>
      <use x="566.296875" xlink:href="#DejaVuSans-66"/>
      <use x="601.501953" xlink:href="#DejaVuSans-75"/>
      <use x="664.880859" xlink:href="#DejaVuSans-6e"/>
      <use x="728.259766" xlink:href="#DejaVuSans-63"/>
      <use x="783.240234" xlink:href="#DejaVuSans-74"/>
      <use x="822.449219" xlink:href="#DejaVuSans-69"/>
      <use x="850.232422" xlink:href="#DejaVuSans-6f"/>
      <use x="911.414062" xlink:href="#DejaVuSans-6e"/>
      <use x="974.792969" xlink:href="#DejaVuSans-2c"/>
      <use x="1006.580078" xlink:href="#DejaVuSans-74"/>
      <use x="1045.789062" xlink:href="#DejaVuSans-61"/>
      <use x="1107.068359" xlink:href="#DejaVuSans-72"/>
      <use x="1148.166016" xlink:href="#DejaVuSans-67"/>
      <use x="1211.642578" xlink:href="#DejaVuSans-65"/>
      <use x="1273.166016" xlink:href="#DejaVuSans-74"/>
      <use x="1312.375" xlink:href="#DejaVuSans-20"/>
      <use x="1344.162109" xlink:href="#DejaVuSans-70"/>
      <use x="1407.638672" xlink:href="#DejaVuSans-61"/>
      <use x="1468.917969" xlink:href="#DejaVuSans-69"/>
      <use x="1496.701172" xlink:href="#DejaVuSans-72"/>
      <use x="1537.814453" xlink:href="#DejaVuSans-73"/>
     </g>
    </g>
   </g>
   <g id="line2d_23">
    <defs>
     <path d="M 0 1.5 
C 0.397805 1.5 0.77937 1.341951 1.06066 1.06066 
C 1.341951 0.77937 1.5 0.397805 1.5 0 
C 1.5 -0.397805 1.341951 -0.77937 1.06066 -1.06066 
C 0.77937 -1.341951 0.397805 -1.5 0 -1.5 
C -0.397805 -1.5 -0.77937 -1.341951 -1.06066 -1.06066 
C -1.341951 -0.77937 -1.5 -0.397805 -1.5 0 
C -1.5 0.397805 -1.341951 0.77937 -1.06066 1.06066 
C -0.77937 1.341951 -0.397805 1.5 0 1.5 
z
" id="m093143fa6f" style="stroke:#000080;"/>
    </defs>
    <g>
     <use style="fill:#000080;stroke:#000080;" x="241.370772" xlink:href="#m093143fa6f" y="9.697057"/>
     <use style="fill:#000080;stroke:#000080;" x="241.370772" xlink:href="#m093143fa6f" y="9.697057"/>
    </g>
   </g>
   <g id="line2d_24">
    <path d="M 56.12 294.88 
L 56.12 294.320818 
L 75.021477 294.320818 
L 75.021477 285.373902 
L 79.971009 285.373902 
L 79.971009 282.018808 
L 83.810164 282.018808 
L 83.810164 281.459626 
L 86.946982 281.459626 
L 86.946982 279.222897 
L 89.599124 279.222897 
L 89.599124 278.663715 
L 91.896513 278.663715 
L 91.896513 278.104533 
L 93.922955 278.104533 
L 93.922955 277.545351 
L 100.24961 277.545351 
L 100.24961 276.426986 
L 101.524628 276.426986 
L 101.524628 270.275981 
L 104.865056 270.275981 
L 104.865056 267.48007 
L 105.848459 267.48007 
L 105.848459 265.802523 
L 107.661173 265.802523 
L 107.661173 258.533154 
L 112.175115 258.533154 
L 112.175115 255.178061 
L 115.20129 255.178061 
L 115.20129 254.618879 
L 115.747522 254.618879 
L 115.747522 254.059696 
L 120.01151 254.059696 
L 120.01151 250.704603 
L 121.226476 250.704603 
L 121.226476 250.145421 
L 126.273486 250.145421 
L 126.273486 247.908692 
L 126.56265 247.908692 
L 126.56265 246.790327 
L 128.202449 246.790327 
L 128.202449 246.231145 
L 129.458837 246.231145 
L 129.458837 245.671963 
L 130.629687 245.671963 
L 130.629687 243.994416 
L 131.295765 243.994416 
L 131.295765 243.435234 
L 131.937015 243.435234 
L 131.937015 242.316869 
L 132.55522 242.316869 
L 132.55522 241.757687 
L 132.756449 241.757687 
L 132.756449 241.198505 
L 134.82729 241.198505 
L 134.82729 237.843411 
L 135.178422 237.843411 
L 135.178422 237.284229 
L 136.675441 237.284229 
L 136.675441 236.165865 
L 136.834012 236.165865 
L 136.834012 235.606682 
L 137.755922 235.606682 
L 137.755922 233.929136 
L 138.772539 233.929136 
L 138.772539 233.369954 
L 138.912987 233.369954 
L 138.912987 232.810771 
L 139.190491 232.810771 
L 139.190491 232.251589 
L 139.46359 232.251589 
L 139.46359 229.455678 
L 139.598531 229.455678 
L 139.598531 228.337313 
L 140.641569 228.337313 
L 140.641569 226.100584 
L 143.22127 226.100584 
L 143.329818 223.863855 
L 144.277114 223.863855 
L 144.277114 223.304673 
L 144.581633 223.304673 
L 144.581633 221.067944 
L 145.174963 221.067944 
L 145.174963 220.508762 
L 145.559445 220.508762 
L 145.559445 219.94958 
L 145.842271 219.94958 
L 145.842271 218.272033 
L 146.574504 218.272033 
L 146.574504 217.712851 
L 147.951628 217.712851 
L 148.034145 213.239393 
L 148.27935 213.239393 
L 148.360314 207.64757 
L 148.600945 207.64757 
L 148.600945 207.088388 
L 148.838258 207.088388 
L 148.838258 206.529206 
L 149.149666 206.529206 
L 149.149666 205.970024 
L 149.681426 205.970024 
L 149.756068 204.851659 
L 151.724483 204.851659 
L 151.724483 204.292477 
L 151.988164 204.292477 
L 151.988164 203.733295 
L 152.247865 203.733295 
L 152.312182 201.496566 
L 152.880468 201.496566 
L 152.880468 200.378201 
L 153.490634 200.378201 
L 153.490634 199.259837 
L 154.137731 199.259837 
L 154.137731 198.700655 
L 155.037536 198.700655 
L 155.092242 196.463926 
L 155.36319 196.463926 
L 155.36319 193.668014 
L 155.523735 193.668014 
L 155.576918 189.753739 
L 155.94467 189.753739 
L 155.94467 186.957828 
L 157.626944 186.957828 
L 157.72096 185.839463 
L 158.091969 185.839463 
L 158.183484 184.161916 
L 159.029431 184.161916 
L 159.116105 183.043552 
L 159.245304 183.043552 
L 159.245304 182.48437 
L 159.627178 182.48437 
L 159.627178 180.247641 
L 159.877132 180.247641 
L 159.95965 177.451729 
L 160.041774 177.451729 
L 160.041774 172.419089 
L 160.204854 172.419089 
L 160.204854 171.300725 
L 160.685021 171.300725 
L 160.685021 170.18236 
L 161.036551 170.18236 
L 161.036551 166.827267 
L 161.569488 166.827267 
L 161.569488 165.708902 
L 161.681572 165.708902 
L 161.681572 165.14972 
L 161.866772 165.14972 
L 161.903574 161.794627 
L 162.086411 161.794627 
L 162.195189 159.557898 
L 163.550055 159.557898 
L 163.550055 157.880351 
L 163.683169 157.880351 
L 163.782333 152.288529 
L 164.14112 152.288529 
L 164.14112 151.170164 
L 164.460923 151.170164 
L 164.460923 149.492617 
L 164.898888 149.492617 
L 164.898888 148.933435 
L 165.083228 148.933435 
L 165.083228 146.696706 
L 165.23535 146.696706 
L 165.23535 145.578342 
L 166.963041 145.578342 
L 167.017746 144.459977 
L 167.288695 144.459977 
L 167.288695 143.341613 
L 169.832969 143.341613 
L 169.832969 142.223248 
L 171.594595 142.223248 
L 171.594595 141.664066 
L 176.978146 141.664066 
L 176.978146 140.545702 
L 203.662923 140.545702 
L 203.76647 138.868155 
L 203.789038 138.868155 
L 203.856565 134.953879 
L 203.92063 134.953879 
L 204.000379 131.039603 
L 204.086094 131.039603 
L 204.155621 120.974323 
L 204.206011 120.974323 
L 204.303222 115.941683 
L 204.353182 115.941683 
L 204.446467 111.468225 
L 204.48364 111.468225 
L 204.591605 109.231496 
L 204.597754 109.231496 
L 204.671371 106.435585 
L 204.714169 106.435585 
L 204.820701 98.607033 
L 204.86313 98.607033 
L 204.89035 94.692758 
L 205.031806 94.692758 
L 205.115528 90.2193 
L 205.189938 90.2193 
L 205.204781 87.982571 
L 205.364278 87.982571 
L 205.402455 85.745842 
L 205.928233 85.745842 
L 206.024698 84.068295 
L 206.766713 84.068295 
L 206.766713 83.509113 
L 209.935567 83.509113 
L 209.935567 82.390748 
L 215.562443 82.390748 
L 215.640279 75.680562 
L 215.679065 75.680562 
L 215.79009 72.325468 
L 215.823739 72.325468 
L 215.882865 68.411192 
L 215.946557 68.411192 
L 216.057455 61.141823 
L 216.079549 61.141823 
L 216.178622 53.313272 
L 216.233417 53.313272 
L 216.342486 49.958178 
L 216.694544 49.958178 
L 216.694544 49.398996 
L 218.907651 49.398996 
L 218.907651 48.839814 
L 222.399166 48.839814 
L 222.488503 47.162267 
L 222.513478 47.162267 
L 222.545999 45.484721 
L 222.639965 45.484721 
L 222.750552 41.570445 
L 222.770874 41.570445 
L 222.881688 36.537805 
L 222.891244 36.537805 
L 222.990737 34.860258 
L 223.230739 34.860258 
L 223.230739 34.301076 
L 227.345147 34.301076 
L 227.395875 32.623529 
L 227.569019 32.623529 
L 227.652929 29.268436 
L 227.688307 29.268436 
L 227.784424 25.35416 
L 231.188071 25.35416 
L 231.265884 23.676613 
L 231.299777 23.676613 
L 231.314096 22.558249 
L 231.416583 22.558249 
L 231.47469 20.32152 
L 234.357954 20.32152 
L 234.458502 18.643973 
L 234.47042 18.643973 
L 234.550383 15.28888 
L 236.976656 15.28888 
L 237.048599 13.611333 
L 237.111883 13.611333 
L 237.160583 12.492968 
L 237.23914 12.492968 
L 237.23914 11.933786 
L 239.256306 11.933786 
L 239.256306 11.374604 
L 241.275502 11.374604 
L 241.370772 9.697057 
L 333.429677 9.697057 
L 333.429677 9.697057 
" style="fill:none;stroke:#000080;stroke-linecap:square;stroke-width:1.5;"/>
   </g>
   <g id="line2d_25">
    <defs>
     <path d="M 0 6 
C 1.591219 6 3.117479 5.367802 4.242641 4.242641 
C 5.367802 3.117479 6 1.591219 6 0 
C 6 -1.591219 5.367802 -3.117479 4.242641 -4.242641 
C 3.117479 -5.367802 1.591219 -6 0 -6 
C -1.591219 -6 -3.117479 -5.367802 -4.242641 -4.242641 
C -5.367802 -3.117479 -6 -1.591219 -6 0 
C -6 1.591219 -5.367802 3.117479 -4.242641 4.242641 
C -3.117479 5.367802 -1.591219 6 0 6 
z
" id="m674a8c7b5f" style="stroke:#000080;stroke-width:1.5;"/>
    </defs>
    <g>
     <use style="fill-opacity:0;stroke:#000080;stroke-width:1.5;" x="159.877132" xlink:href="#m674a8c7b5f" y="180.247641"/>
     <use style="fill-opacity:0;stroke:#000080;stroke-width:1.5;" x="215.62895" xlink:href="#m674a8c7b5f" y="78.476473"/>
     <use style="fill-opacity:0;stroke:#000080;stroke-width:1.5;" x="241.370772" xlink:href="#m674a8c7b5f" y="9.697057"/>
     <use style="fill-opacity:0;stroke:#000080;stroke-width:1.5;" x="241.370772" xlink:href="#m674a8c7b5f" y="9.697057"/>
     <use style="fill-opacity:0;stroke:#000080;stroke-width:1.5;" x="333.429677" xlink:href="#m674a8c7b5f" y="9.697057"/>
    </g>
   </g>
   <g id="line2d_26">
    <path style="fill:none;stroke:#000080;stroke-linecap:square;stroke-width:1.5;"/>
    <g/>
   </g>
   <g id="line2d_27">
    <path clip-path="url(#pe2f409a685)" d="M 203.414473 140.545702 
" style="fill:none;stroke:#000080;stroke-linecap:square;stroke-width:1.5;"/>
    <defs>
     <path d="M -12 12 
L 12 -12 
M -12 -12 
L 12 12 
" id="mc3f823deb1" style="stroke:#000080;stroke-width:3;"/>
    </defs>
    <g clip-path="url(#pe2f409a685)">
     <use style="fill:#000080;stroke:#000080;stroke-width:3;" x="203.414473" xlink:href="#mc3f823deb1" y="140.545702"/>
    </g>
   </g>
   <g id="line2d_28">
    <defs>
     <path d="M 0 1.5 
C 0.397805 1.5 0.77937 1.341951 1.06066 1.06066 
C 1.341951 0.77937 1.5 0.397805 1.5 0 
C 1.5 -0.397805 1.341951 -0.77937 1.06066 -1.06066 
C 0.77937 -1.341951 0.397805 -1.5 0 -1.5 
C -0.397805 -1.5 -0.77937 -1.341951 -1.06066 -1.06066 
C -1.341951 -0.77937 -1.5 -0.397805 -1.5 0 
C -1.5 0.397805 -1.341951 0.77937 -1.06066 1.06066 
C -0.77937 1.341951 -0.397805 1.5 0 1.5 
z
" id="m94a86afbe2" style="stroke:#ff00ff;"/>
    </defs>
    <g>
     <use style="fill:#ff00ff;stroke:#ff00ff;" x="237.031341" xlink:href="#m94a86afbe2" y="9.697057"/>
     <use style="fill:#ff00ff;stroke:#ff00ff;" x="237.031341" xlink:href="#m94a86afbe2" y="9.697057"/>
    </g>
   </g>
   <g id="line2d_29">
    <path d="M 56.12 294.88 
L 56.12 257.973972 
L 68.045504 257.973972 
L 68.045504 254.059696 
L 75.021477 254.059696 
L 75.021477 250.145421 
L 79.971009 250.145421 
L 79.971009 249.586238 
L 83.810164 249.586238 
L 83.810164 247.908692 
L 86.946982 247.908692 
L 86.946982 247.34951 
L 89.599124 247.34951 
L 89.599124 240.639323 
L 93.922955 240.639323 
L 93.922955 238.961776 
L 97.375467 238.961776 
L 97.375467 236.165865 
L 103.822018 236.165865 
L 103.822018 235.606682 
L 112.824432 235.606682 
L 112.824432 233.929136 
L 114.053874 233.929136 
L 114.053874 231.133225 
L 115.20129 231.133225 
L 115.20129 229.455678 
L 118.704183 229.455678 
L 118.704183 224.98222 
L 122.361274 224.98222 
L 122.361274 217.153669 
L 123.425832 217.153669 
L 123.425832 214.91694 
L 123.766534 214.91694 
L 123.766534 213.239393 
L 126.273486 213.239393 
L 126.273486 212.121028 
L 127.126794 212.121028 
L 127.126794 210.443482 
L 128.202449 210.443482 
L 128.202449 208.206753 
L 131.295765 208.206753 
L 131.295765 207.088388 
L 132.145561 207.088388 
L 132.145561 205.970024 
L 132.35161 205.970024 
L 132.35161 202.61493 
L 132.55522 202.61493 
L 132.55522 201.496566 
L 133.346388 201.496566 
L 133.346388 200.937384 
L 133.916767 200.937384 
L 133.916767 200.378201 
L 134.82729 200.378201 
L 134.82729 198.700655 
L 135.178422 198.700655 
L 135.178422 197.023108 
L 135.859892 197.023108 
L 135.859892 196.463926 
L 136.353845 196.463926 
L 136.353845 194.786379 
L 136.515394 194.786379 
L 136.515394 193.668014 
L 136.834012 193.668014 
L 136.834012 190.312921 
L 137.146836 190.312921 
L 137.146836 189.753739 
L 137.60566 189.753739 
L 137.60566 186.398645 
L 138.052565 186.398645 
L 138.052565 185.839463 
L 138.772539 185.839463 
L 138.772539 184.721099 
L 138.912987 184.721099 
L 138.912987 182.48437 
L 139.598531 182.48437 
L 139.598531 181.925187 
L 139.732422 181.925187 
L 139.732422 180.806823 
L 139.997117 180.806823 
L 139.997117 177.451729 
L 140.386678 177.451729 
L 140.386678 176.333365 
L 142.891454 176.333365 
L 142.891454 175.215 
L 143.112032 175.215 
L 143.112032 166.827267 
L 143.437686 166.827267 
L 143.544882 165.14972 
L 143.75729 165.14972 
L 143.862519 157.321169 
L 144.071065 157.321169 
L 144.174398 153.406893 
L 145.077485 153.406893 
L 145.077485 152.288529 
L 145.368278 152.288529 
L 145.368278 147.815071 
L 145.748512 147.815071 
L 145.748512 146.137524 
L 146.212283 146.137524 
L 146.212283 145.019159 
L 146.394347 145.019159 
L 146.394347 143.900795 
L 146.752794 143.900795 
L 146.752794 142.223248 
L 147.951628 142.223248 
L 147.951628 139.427337 
L 148.116269 139.427337 
L 148.116269 134.394697 
L 149.072341 134.394697 
L 149.072341 133.276332 
L 149.455539 133.276332 
L 149.455539 131.039603 
L 149.681426 131.039603 
L 149.681426 129.921239 
L 150.051438 129.921239 
L 150.051438 128.802874 
L 150.627387 128.802874 
L 150.627387 126.006963 
L 150.908289 126.006963 
L 150.977803 121.533505 
L 151.724483 121.533505 
L 151.724483 120.415141 
L 151.988164 120.415141 
L 152.053458 114.823318 
L 152.247865 114.823318 
L 152.312182 112.586589 
L 152.503704 112.586589 
L 152.503704 110.349861 
L 152.880468 110.349861 
L 152.880468 109.790678 
L 153.249158 109.790678 
L 153.249158 108.672314 
L 153.787789 108.672314 
L 153.787789 107.553949 
L 153.905229 107.553949 
L 153.905229 106.994767 
L 154.593515 106.994767 
L 154.593515 105.876403 
L 154.872368 105.876403 
L 154.982656 102.521309 
L 155.037536 102.521309 
L 155.037536 99.166216 
L 155.36319 99.166216 
L 155.470386 96.929487 
L 155.682795 96.929487 
L 155.682795 95.811122 
L 156.048314 95.811122 
L 156.048314 93.574393 
L 156.202619 93.574393 
L 156.202619 93.015211 
L 157.532411 93.015211 
L 157.579743 90.2193 
L 157.72096 90.2193 
L 157.814465 88.541753 
L 157.861027 88.541753 
L 157.861027 87.982571 
L 158.678299 87.982571 
L 158.678299 86.305024 
L 159.95965 86.305024 
L 159.95965 85.745842 
L 160.164229 85.745842 
L 160.164229 85.18666 
L 160.446613 85.18666 
L 160.52645 83.509113 
L 162.446359 83.509113 
L 162.446359 82.949931 
L 163.913668 82.949931 
L 163.913668 81.831566 
L 166.005403 81.831566 
L 166.005403 80.713202 
L 180.143004 80.713202 
L 180.143004 80.15402 
L 203.5097 80.15402 
L 203.57833 75.680562 
L 203.633688 75.680562 
L 203.730946 70.088739 
L 203.750332 70.088739 
L 203.850145 63.378552 
L 203.917433 63.378552 
L 204.006743 49.398996 
L 204.041702 49.398996 
L 204.092426 45.484721 
L 204.19972 45.484721 
L 204.28445 42.129627 
L 204.393668 42.129627 
L 204.47745 36.537805 
L 204.570066 36.537805 
L 204.625397 35.41944 
L 204.738577 35.41944 
L 204.775125 34.301076 
L 204.851018 34.301076 
L 204.851018 33.741894 
L 204.9958 33.741894 
L 205.064746 32.623529 
L 205.216646 32.623529 
L 205.216646 32.064347 
L 215.351498 32.064347 
L 215.441753 26.472524 
L 215.477722 26.472524 
L 215.508726 24.235795 
L 215.59654 24.235795 
L 215.70165 19.762337 
L 215.709709 19.762337 
L 215.769227 17.525609 
L 215.844536 17.525609 
L 215.88446 15.848062 
L 216.011598 15.848062 
L 216.011598 15.28888 
L 222.370743 15.28888 
L 222.456961 13.611333 
L 222.487416 13.611333 
L 222.586024 10.815422 
L 227.290982 10.815422 
L 227.290982 10.256239 
L 237.031341 10.256239 
L 237.031341 9.697057 
L 333.429677 9.697057 
L 333.429677 9.697057 
" style="fill:none;stroke:#ff00ff;stroke-linecap:square;stroke-width:1.5;"/>
   </g>
   <g id="line2d_30">
    <defs>
     <path d="M -0 8.485281 
L 5.091169 0 
L 0 -8.485281 
L -5.091169 -0 
z
" id="m4086a301ff" style="stroke:#ff00ff;stroke-linejoin:miter;stroke-width:1.5;"/>
    </defs>
    <g>
     <use style="fill-opacity:0;stroke:#ff00ff;stroke-linejoin:miter;stroke-width:1.5;" x="103.822018" xlink:href="#m4086a301ff" y="235.606682"/>
     <use style="fill-opacity:0;stroke:#ff00ff;stroke-linejoin:miter;stroke-width:1.5;" x="156.202619" xlink:href="#m4086a301ff" y="93.015211"/>
     <use style="fill-opacity:0;stroke:#ff00ff;stroke-linejoin:miter;stroke-width:1.5;" x="237.031341" xlink:href="#m4086a301ff" y="10.256239"/>
     <use style="fill-opacity:0;stroke:#ff00ff;stroke-linejoin:miter;stroke-width:1.5;" x="237.031341" xlink:href="#m4086a301ff" y="9.697057"/>
     <use style="fill-opacity:0;stroke:#ff00ff;stroke-linejoin:miter;stroke-width:1.5;" x="333.429677" xlink:href="#m4086a301ff" y="9.697057"/>
    </g>
   </g>
   <g id="line2d_31">
    <path style="fill:none;stroke:#ff00ff;stroke-linecap:square;stroke-width:1.5;"/>
    <g/>
   </g>
   <g id="line2d_32">
    <path clip-path="url(#pe2f409a685)" d="M 203.414473 80.15402 
" style="fill:none;stroke:#ff00ff;stroke-linecap:square;stroke-width:1.5;"/>
    <defs>
     <path d="M -12 12 
L 12 -12 
M -12 -12 
L 12 12 
" id="m290f7201bf" style="stroke:#ff00ff;stroke-width:3;"/>
    </defs>
    <g clip-path="url(#pe2f409a685)">
     <use style="fill:#ff00ff;stroke:#ff00ff;stroke-width:3;" x="203.414473" xlink:href="#m290f7201bf" y="80.15402"/>
    </g>
   </g>
   <g id="line2d_33">
    <defs>
     <path d="M 0 1.5 
C 0.397805 1.5 0.77937 1.341951 1.06066 1.06066 
C 1.341951 0.77937 1.5 0.397805 1.5 0 
C 1.5 -0.397805 1.341951 -0.77937 1.06066 -1.06066 
C 0.77937 -1.341951 0.397805 -1.5 0 -1.5 
C -0.397805 -1.5 -0.77937 -1.341951 -1.06066 -1.06066 
C -1.341951 -0.77937 -1.5 -0.397805 -1.5 0 
C -1.5 0.397805 -1.341951 0.77937 -1.06066 1.06066 
C -0.77937 1.341951 -0.397805 1.5 0 1.5 
z
" id="maf2332a215" style="stroke:#ffa500;"/>
    </defs>
    <g>
     <use style="fill:#ffa500;stroke:#ffa500;" x="268.537704" xlink:href="#maf2332a215" y="9.697057"/>
     <use style="fill:#ffa500;stroke:#ffa500;" x="268.537704" xlink:href="#maf2332a215" y="9.697057"/>
    </g>
   </g>
   <g id="line2d_34">
    <path d="M 56.12 294.88 
L 56.12 278.104533 
L 68.045504 278.104533 
L 68.045504 270.835164 
L 75.021477 270.835164 
L 75.021477 270.275981 
L 79.971009 270.275981 
L 79.971009 266.361706 
L 83.810164 266.361706 
L 83.810164 264.124977 
L 89.599124 264.124977 
L 89.599124 259.092337 
L 93.922955 259.092337 
L 93.922955 257.973972 
L 95.735668 257.973972 
L 95.735668 256.296425 
L 97.375467 256.296425 
L 97.375467 255.178061 
L 98.872486 255.178061 
L 98.872486 253.500514 
L 100.24961 253.500514 
L 100.24961 251.822967 
L 102.711641 251.822967 
L 102.711641 251.263785 
L 106.778678 251.263785 
L 106.778678 250.704603 
L 109.300972 250.704603 
L 109.300972 250.145421 
L 110.797991 250.145421 
L 110.797991 249.027056 
L 112.824432 249.027056 
L 112.824432 248.467874 
L 114.637146 248.467874 
L 114.637146 246.790327 
L 115.747522 246.790327 
L 115.747522 246.231145 
L 117.289287 246.231145 
L 117.289287 245.112781 
L 117.773963 245.112781 
L 117.773963 242.876052 
L 122.723495 242.876052 
L 122.723495 240.08014 
L 123.078247 240.08014 
L 123.078247 238.961776 
L 123.425832 238.961776 
L 123.425832 228.896496 
L 123.766534 228.896496 
L 123.766534 226.659767 
L 124.100619 226.659767 
L 124.100619 224.98222 
L 124.749936 224.98222 
L 124.749936 224.423038 
L 125.680156 224.423038 
L 125.680156 223.304673 
L 125.979378 223.304673 
L 125.979378 221.067944 
L 127.402078 221.067944 
L 127.402078 215.476122 
L 128.202449 215.476122 
L 128.202449 214.91694 
L 130.170864 214.91694 
L 130.170864 213.239393 
L 130.854591 213.239393 
L 130.854591 212.680211 
L 134.82729 212.680211 
L 134.82729 209.884299 
L 136.026124 209.884299 
L 136.026124 205.970024 
L 136.834012 205.970024 
L 136.834012 204.292477 
L 136.991135 204.292477 
L 136.991135 202.61493 
L 138.34418 202.61493 
L 138.34418 198.700655 
L 139.598531 198.700655 
L 139.598531 198.141472 
L 140.257802 198.141472 
L 140.257802 197.023108 
L 142.555192 197.023108 
L 142.555192 196.463926 
L 143.329818 196.463926 
L 143.329818 194.786379 
L 144.880856 194.786379 
L 144.880856 193.668014 
L 145.368278 193.668014 
L 145.368278 192.54965 
L 145.935523 192.54965 
L 145.935523 186.398645 
L 146.120523 186.398645 
L 146.120523 185.839463 
L 147.951628 185.839463 
L 147.951628 185.280281 
L 149.606459 185.280281 
L 149.606459 183.043552 
L 150.051438 183.043552 
L 150.051438 176.892547 
L 151.790783 176.892547 
L 151.790783 174.655818 
L 152.183306 174.655818 
L 152.183306 174.096636 
L 155.309341 174.096636 
L 155.309341 171.300725 
L 157.72096 171.300725 
L 157.72096 169.623178 
L 161.418898 169.623178 
L 161.418898 169.063996 
L 164.14112 169.063996 
L 164.14112 168.504814 
L 203.427639 168.504814 
L 203.532607 164.031356 
L 203.575068 164.031356 
L 203.620679 155.08444 
L 203.730946 155.08444 
L 203.830871 146.137524 
L 203.846934 146.137524 
L 203.955765 144.459977 
L 203.978086 144.459977 
L 204.086094 138.868155 
L 204.136687 138.868155 
L 204.196574 131.039603 
L 204.249981 131.039603 
L 204.249981 129.921239 
L 204.434059 129.921239 
L 204.434059 127.68451 
L 204.582377 127.68451 
L 204.582377 126.006963 
L 204.851018 126.006963 
L 204.851018 125.447781 
L 212.958179 125.447781 
L 212.958179 124.888599 
L 215.392582 124.888599 
L 215.498941 115.382501 
L 215.518505 115.382501 
L 215.534792 110.909043 
L 215.632187 110.909043 
L 215.735472 101.402945 
L 215.762803 101.402945 
L 215.857322 99.166216 
L 215.933838 99.166216 
L 215.970381 96.929487 
L 222.355419 96.929487 
L 222.446071 86.864206 
L 222.50588 86.864206 
L 222.615173 74.562197 
L 222.662569 74.562197 
L 222.714126 72.88465 
L 222.891244 72.88465 
L 222.993903 71.766286 
L 226.115766 71.766286 
L 226.115766 70.647921 
L 227.291804 70.647921 
L 227.37462 66.174463 
L 227.408126 66.174463 
L 227.457854 59.464277 
L 227.564974 59.464277 
L 227.564974 58.905094 
L 231.137533 58.905094 
L 231.241075 51.635725 
L 231.251525 51.635725 
L 231.313445 48.280632 
L 234.268873 48.280632 
L 234.369942 42.129627 
L 234.391717 42.129627 
L 234.454166 38.774534 
L 236.9171 38.774534 
L 237.003787 33.741894 
L 237.043003 33.741894 
L 237.076081 32.623529 
L 239.239897 32.623529 
L 239.287441 28.709253 
L 241.235711 28.709253 
L 241.303192 24.235795 
L 241.351179 24.235795 
L 241.351179 23.676613 
L 243.069281 23.676613 
L 243.150564 22.558249 
L 243.236347 22.558249 
L 243.236347 21.999066 
L 244.705525 21.999066 
L 244.783019 20.32152 
L 246.231323 20.32152 
L 246.231323 18.643973 
L 247.574199 18.643973 
L 247.603504 16.407244 
L 248.910585 16.407244 
L 248.910585 15.848062 
L 250.08649 15.848062 
L 250.089112 14.729697 
L 251.162528 14.729697 
L 251.164786 13.611333 
L 252.202862 13.611333 
L 252.247435 12.492968 
L 254.992485 12.492968 
L 254.992485 11.933786 
L 259.484652 11.933786 
L 259.484652 11.374604 
L 263.06616 11.374604 
L 263.06616 10.815422 
L 264.107778 10.815422 
L 264.107778 10.256239 
L 268.537704 10.256239 
L 268.537704 9.697057 
L 333.429677 9.697057 
L 333.429677 9.697057 
" style="fill:none;stroke:#ffa500;stroke-linecap:square;stroke-width:1.5;"/>
   </g>
   <g id="line2d_35">
    <defs>
     <path d="M 0 -6 
L -1.347084 -1.854102 
L -5.706339 -1.854102 
L -2.179628 0.708204 
L -3.526712 4.854102 
L -0 2.291796 
L 3.526712 4.854102 
L 2.179628 0.708204 
L 5.706339 -1.854102 
L 1.347084 -1.854102 
z
" id="m2894259517" style="stroke:#ffa500;stroke-linejoin:bevel;stroke-width:1.5;"/>
    </defs>
    <g>
     <use style="fill-opacity:0;stroke:#ffa500;stroke-linejoin:bevel;stroke-width:1.5;" x="102.711641" xlink:href="#m2894259517" y="251.822967"/>
     <use style="fill-opacity:0;stroke:#ffa500;stroke-linejoin:bevel;stroke-width:1.5;" x="164.14112" xlink:href="#m2894259517" y="168.504814"/>
     <use style="fill-opacity:0;stroke:#ffa500;stroke-linejoin:bevel;stroke-width:1.5;" x="247.603504" xlink:href="#m2894259517" y="17.525609"/>
     <use style="fill-opacity:0;stroke:#ffa500;stroke-linejoin:bevel;stroke-width:1.5;" x="268.537704" xlink:href="#m2894259517" y="9.697057"/>
     <use style="fill-opacity:0;stroke:#ffa500;stroke-linejoin:bevel;stroke-width:1.5;" x="333.429677" xlink:href="#m2894259517" y="9.697057"/>
    </g>
   </g>
   <g id="line2d_36">
    <path style="fill:none;stroke:#ffa500;stroke-linecap:square;stroke-width:1.5;"/>
    <g/>
   </g>
   <g id="line2d_37">
    <path clip-path="url(#pe2f409a685)" d="M 203.414473 168.504814 
" style="fill:none;stroke:#ffa500;stroke-linecap:square;stroke-width:1.5;"/>
    <defs>
     <path d="M -12 12 
L 12 -12 
M -12 -12 
L 12 12 
" id="m634f205a92" style="stroke:#ffa500;stroke-width:3;"/>
    </defs>
    <g clip-path="url(#pe2f409a685)">
     <use style="fill:#ffa500;stroke:#ffa500;stroke-width:3;" x="203.414473" xlink:href="#m634f205a92" y="168.504814"/>
    </g>
   </g>
   <g id="line2d_38">
    <defs>
     <path d="M 0 1.5 
C 0.397805 1.5 0.77937 1.341951 1.06066 1.06066 
C 1.341951 0.77937 1.5 0.397805 1.5 0 
C 1.5 -0.397805 1.341951 -0.77937 1.06066 -1.06066 
C 0.77937 -1.341951 0.397805 -1.5 0 -1.5 
C -0.397805 -1.5 -0.77937 -1.341951 -1.06066 -1.06066 
C -1.341951 -0.77937 -1.5 -0.397805 -1.5 0 
C -1.5 0.397805 -1.341951 0.77937 -1.06066 1.06066 
C -0.77937 1.341951 -0.397805 1.5 0 1.5 
z
" id="m1164047823" style="stroke:#6495ed;"/>
    </defs>
    <g>
     <use style="fill:#6495ed;stroke:#6495ed;" x="252.381421" xlink:href="#m1164047823" y="9.697057"/>
     <use style="fill:#6495ed;stroke:#6495ed;" x="252.381421" xlink:href="#m1164047823" y="9.697057"/>
    </g>
   </g>
   <g id="line2d_39">
    <path d="M 56.12 294.88 
L 56.12 274.749439 
L 75.021477 274.749439 
L 75.021477 272.51271 
L 79.971009 272.51271 
L 79.971009 265.802523 
L 86.946982 265.802523 
L 86.946982 265.243341 
L 89.599124 265.243341 
L 89.599124 264.124977 
L 95.735668 264.124977 
L 95.735668 263.565795 
L 101.524628 263.565795 
L 101.524628 261.888248 
L 102.711641 261.888248 
L 102.711641 259.651519 
L 103.822018 259.651519 
L 103.822018 259.092337 
L 108.500601 259.092337 
L 108.500601 257.973972 
L 110.065758 257.973972 
L 110.065758 257.41479 
L 114.637146 257.41479 
L 114.637146 256.855608 
L 116.276944 256.855608 
L 116.276944 256.296425 
L 117.773963 256.296425 
L 117.773963 255.737243 
L 120.426105 255.737243 
L 120.426105 255.178061 
L 121.613118 255.178061 
L 121.613118 254.618879 
L 125.680156 254.618879 
L 125.680156 254.059696 
L 127.126794 254.059696 
L 127.126794 253.500514 
L 128.716065 253.500514 
L 128.716065 252.38215 
L 132.955351 252.38215 
L 132.955351 251.822967 
L 137.60566 251.822967 
L 137.60566 251.263785 
L 139.052299 251.263785 
L 139.052299 250.704603 
L 141.016963 250.704603 
L 141.016963 249.027056 
L 142.327309 249.027056 
L 142.327309 247.908692 
L 144.071065 247.908692 
L 144.174398 246.790327 
L 145.935523 246.790327 
L 145.935523 245.671963 
L 147.103926 245.671963 
L 147.103926 245.112781 
L 147.951628 245.112781 
L 147.951628 244.553598 
L 148.440899 244.553598 
L 148.440899 243.994416 
L 149.149666 243.994416 
L 149.149666 242.316869 
L 151.047038 242.316869 
L 151.047038 241.198505 
L 151.184678 241.198505 
L 151.184678 240.08014 
L 154.137731 240.08014 
L 154.137731 239.520958 
L 154.593515 239.520958 
L 154.593515 238.961776 
L 154.982656 238.961776 
L 155.037536 237.843411 
L 156.607458 237.843411 
L 156.607458 236.165865 
L 157.197397 236.165865 
L 157.197397 235.0475 
L 157.532411 235.0475 
L 157.626944 231.692407 
L 157.907464 231.692407 
L 157.999964 229.455678 
L 158.274515 229.455678 
L 158.274515 228.896496 
L 158.410165 228.896496 
L 158.410165 228.337313 
L 159.458502 228.337313 
L 159.458502 227.778131 
L 159.835725 227.778131 
L 159.918441 224.98222 
L 160.123507 224.98222 
L 160.123507 224.423038 
L 160.486577 224.423038 
L 160.486577 222.745491 
L 160.645515 222.745491 
L 160.645515 221.627126 
L 160.763762 221.627126 
L 160.842144 219.94958 
L 161.866772 219.94958 
L 161.866772 218.272033 
L 162.049999 218.272033 
L 162.049999 216.035304 
L 162.231295 216.035304 
L 162.231295 214.91694 
L 162.93796 214.91694 
L 162.93796 214.357757 
L 163.212694 214.357757 
L 163.212694 213.239393 
L 163.683169 213.239393 
L 163.683169 212.680211 
L 164.044009 212.680211 
L 164.044009 212.121028 
L 164.991305 212.121028 
L 164.991305 211.002664 
L 165.205033 211.002664 
L 165.205033 209.884299 
L 165.325981 209.884299 
L 165.325981 208.765935 
L 165.565357 208.765935 
L 165.565357 207.088388 
L 165.91829 207.088388 
L 165.91829 206.529206 
L 166.063235 206.529206 
L 166.120873 204.292477 
L 166.935623 204.292477 
L 166.990415 203.174112 
L 167.180827 203.174112 
L 167.180827 200.378201 
L 167.475851 200.378201 
L 167.475851 199.819019 
L 168.255662 199.819019 
L 168.255662 198.141472 
L 168.382262 198.141472 
L 168.382262 197.58229 
L 168.731864 197.58229 
L 168.731864 197.023108 
L 169.386674 197.023108 
L 169.386674 196.463926 
L 169.599521 196.463926 
L 169.623008 195.345561 
L 170.425513 195.345561 
L 170.514889 193.668014 
L 170.670189 193.668014 
L 170.670189 193.108832 
L 170.911433 193.108832 
L 170.933198 191.990468 
L 171.192247 191.990468 
L 171.192247 191.431285 
L 171.405181 191.431285 
L 171.405181 190.312921 
L 171.69893 190.312921 
L 171.69893 189.194556 
L 172.311995 189.194556 
L 172.311995 188.076192 
L 172.551232 188.076192 
L 172.551232 187.51701 
L 172.884556 187.51701 
L 172.884556 186.398645 
L 173.039208 186.398645 
L 173.039208 185.839463 
L 173.810687 185.839463 
L 173.902447 184.721099 
L 174.264668 184.721099 
L 174.264668 184.161916 
L 174.531415 184.161916 
L 174.531415 182.48437 
L 174.741875 182.48437 
L 174.741875 181.366005 
L 174.93256 181.366005 
L 174.93256 180.806823 
L 175.69135 180.806823 
L 175.69135 180.247641 
L 175.822811 180.247641 
L 175.822811 179.688458 
L 176.559817 179.688458 
L 176.622437 178.010912 
L 176.700393 178.010912 
L 176.700393 176.892547 
L 176.916809 176.892547 
L 176.916809 176.333365 
L 177.296623 176.333365 
L 177.341643 174.096636 
L 177.535376 174.096636 
L 177.535376 171.859907 
L 178.060757 171.859907 
L 178.132473 170.741543 
L 178.246602 170.741543 
L 178.246602 170.18236 
L 178.819918 170.18236 
L 178.819918 169.623178 
L 179.899323 169.623178 
L 179.899323 168.504814 
L 180.168455 168.504814 
L 180.168455 167.945631 
L 181.060483 167.945631 
L 181.060483 167.386449 
L 181.988796 167.386449 
L 182.080069 165.708902 
L 182.148207 165.708902 
L 182.148207 165.14972 
L 183.042598 165.14972 
L 183.042598 164.590538 
L 203.427639 164.590538 
L 203.427639 164.031356 
L 203.617425 164.031356 
L 203.617425 163.472173 
L 204.054397 163.472173 
L 204.120893 161.235444 
L 204.187132 161.235444 
L 204.246844 159.557898 
L 204.47745 159.557898 
L 204.576223 156.761987 
L 204.619258 156.761987 
L 204.701952 155.08444 
L 204.778167 155.08444 
L 204.778167 154.525258 
L 204.902435 154.525258 
L 204.938636 153.406893 
L 205.043792 153.406893 
L 205.076708 152.288529 
L 205.198845 152.288529 
L 205.278806 149.492617 
L 205.390718 149.492617 
L 205.422978 148.374253 
L 205.565951 148.374253 
L 205.658684 146.137524 
L 205.733664 146.137524 
L 205.836945 145.019159 
L 205.874089 145.019159 
L 205.976533 142.223248 
L 206.06144 142.223248 
L 206.126252 139.427337 
L 206.188019 139.427337 
L 206.246772 136.072244 
L 206.308109 136.072244 
L 206.408008 132.71715 
L 206.545802 132.71715 
L 206.545802 132.157968 
L 206.704273 132.157968 
L 206.75587 130.480421 
L 206.820824 130.480421 
L 206.845119 127.125328 
L 206.963403 127.125328 
L 207.046254 125.447781 
L 207.115435 125.447781 
L 207.115435 124.888599 
L 207.563634 124.888599 
L 207.563634 124.329417 
L 207.766818 124.329417 
L 207.78726 122.65187 
L 215.611132 122.65187 
L 215.611132 122.092688 
L 215.806122 122.092688 
L 215.806122 121.533505 
L 215.940199 121.533505 
L 216.046397 118.178412 
L 216.100039 118.178412 
L 216.173917 115.382501 
L 216.23029 115.382501 
L 216.294269 113.145772 
L 216.342486 113.145772 
L 216.449325 109.790678 
L 216.498649 109.790678 
L 216.595345 105.876403 
L 216.610643 105.876403 
L 216.696065 102.521309 
L 216.740136 102.521309 
L 216.814344 100.28458 
L 216.852082 100.28458 
L 216.852082 99.725398 
L 216.976783 99.725398 
L 217.070835 97.488669 
L 217.127318 97.488669 
L 217.179178 90.778482 
L 217.25152 90.778482 
L 217.289782 89.660118 
L 217.4347 89.660118 
L 217.539333 88.541753 
L 217.589968 88.541753 
L 217.664922 86.305024 
L 217.789601 86.305024 
L 217.789601 85.745842 
L 222.32034 85.745842 
L 222.32034 85.18666 
L 222.554661 85.18666 
L 222.554661 84.627477 
L 222.709835 84.627477 
L 222.709835 84.068295 
L 222.831697 84.068295 
L 222.941063 80.713202 
L 222.990737 80.713202 
L 223.097002 78.476473 
L 223.124252 78.476473 
L 223.211995 74.562197 
L 223.244263 74.562197 
L 223.335536 70.088739 
L 223.366541 70.088739 
L 223.425298 68.970375 
L 223.483855 68.970375 
L 223.563663 62.81937 
L 223.637006 62.81937 
L 223.740375 61.701006 
L 227.515555 61.701006 
L 227.56821 60.582641 
L 227.764444 60.582641 
L 227.857751 58.905094 
L 227.88636 58.905094 
L 227.88636 58.345912 
L 228.000321 58.345912 
L 228.079804 54.431636 
L 228.148758 54.431636 
L 228.22756 51.635725 
L 228.267991 51.635725 
L 228.361704 50.517361 
L 228.40028 50.517361 
L 228.427232 48.839814 
L 231.342048 48.839814 
L 231.415936 47.162267 
L 231.474046 47.162267 
L 231.548012 44.366356 
L 231.645929 44.366356 
L 231.742657 42.129627 
L 231.759149 42.129627 
L 231.864068 38.215351 
L 231.883591 38.215351 
L 231.894917 37.096987 
L 232.07263 37.096987 
L 232.07263 36.537805 
L 234.586998 36.537805 
L 234.586998 35.41944 
L 234.837966 35.41944 
L 234.939972 32.064347 
L 235.024604 32.064347 
L 235.054992 30.3868 
L 237.210531 30.3868 
L 237.309076 28.150071 
L 237.403864 28.150071 
L 237.439446 26.472524 
L 237.528535 26.472524 
L 237.528535 25.913342 
L 239.384173 25.913342 
L 239.435379 24.235795 
L 239.508671 24.235795 
L 239.576824 23.117431 
L 239.638292 23.117431 
L 239.669545 20.32152 
L 241.389256 20.32152 
L 241.389256 19.762337 
L 241.63704 19.762337 
L 241.686242 17.525609 
L 243.395037 17.525609 
L 243.464529 15.848062 
L 243.522865 15.848062 
L 243.522865 15.28888 
L 244.793722 15.28888 
L 244.856613 14.170515 
L 245.014016 14.170515 
L 245.041283 12.492968 
L 246.487472 12.492968 
L 246.493666 11.374604 
L 247.769049 11.374604 
L 247.776797 10.256239 
L 252.381421 10.256239 
L 252.381421 9.697057 
L 333.429677 9.697057 
L 333.429677 9.697057 
" style="fill:none;stroke:#6495ed;stroke-linecap:square;stroke-width:1.5;"/>
   </g>
   <g id="line2d_40">
    <defs>
     <path d="M -0 6 
L 6 -6 
L -6 -6 
z
" id="m6cb6a480d6" style="stroke:#6495ed;stroke-linejoin:miter;stroke-width:1.5;"/>
    </defs>
    <g>
     <use style="fill-opacity:0;stroke:#6495ed;stroke-linejoin:miter;stroke-width:1.5;" x="162.049999" xlink:href="#m6cb6a480d6" y="218.272033"/>
     <use style="fill-opacity:0;stroke:#6495ed;stroke-linejoin:miter;stroke-width:1.5;" x="227.857751" xlink:href="#m6cb6a480d6" y="58.905094"/>
     <use style="fill-opacity:0;stroke:#6495ed;stroke-linejoin:miter;stroke-width:1.5;" x="252.381421" xlink:href="#m6cb6a480d6" y="9.697057"/>
     <use style="fill-opacity:0;stroke:#6495ed;stroke-linejoin:miter;stroke-width:1.5;" x="252.381421" xlink:href="#m6cb6a480d6" y="9.697057"/>
     <use style="fill-opacity:0;stroke:#6495ed;stroke-linejoin:miter;stroke-width:1.5;" x="333.429677" xlink:href="#m6cb6a480d6" y="9.697057"/>
    </g>
   </g>
   <g id="line2d_41">
    <path style="fill:none;stroke:#6495ed;stroke-linecap:square;stroke-width:1.5;"/>
    <g/>
   </g>
   <g id="line2d_42">
    <path clip-path="url(#pe2f409a685)" d="M 203.414473 164.590538 
" style="fill:none;stroke:#6495ed;stroke-linecap:square;stroke-width:1.5;"/>
    <defs>
     <path d="M -12 12 
L 12 -12 
M -12 -12 
L 12 12 
" id="mee40a4fb29" style="stroke:#6495ed;stroke-width:3;"/>
    </defs>
    <g clip-path="url(#pe2f409a685)">
     <use style="fill:#6495ed;stroke:#6495ed;stroke-width:3;" x="203.414473" xlink:href="#mee40a4fb29" y="164.590538"/>
    </g>
   </g>
   <g id="line2d_43">
    <defs>
     <path d="M 0 1.5 
C 0.397805 1.5 0.77937 1.341951 1.06066 1.06066 
C 1.341951 0.77937 1.5 0.397805 1.5 0 
C 1.5 -0.397805 1.341951 -0.77937 1.06066 -1.06066 
C 0.77937 -1.341951 0.397805 -1.5 0 -1.5 
C -0.397805 -1.5 -0.77937 -1.341951 -1.06066 -1.06066 
C -1.341951 -0.77937 -1.5 -0.397805 -1.5 0 
C -1.5 0.397805 -1.341951 0.77937 -1.06066 1.06066 
C -0.77937 1.341951 -0.397805 1.5 0 1.5 
z
" id="m5838574547" style="stroke:#ff0000;"/>
    </defs>
    <g>
     <use style="fill:#ff0000;stroke:#ff0000;" x="268.931429" xlink:href="#m5838574547" y="211.002664"/>
     <use style="fill:#ff0000;stroke:#ff0000;" x="268.931429" xlink:href="#m5838574547" y="211.002664"/>
    </g>
   </g>
   <g id="line2d_44">
    <path d="M 56.12 294.88 
L 56.12 278.663715 
L 68.045504 278.663715 
L 68.045504 274.749439 
L 79.971009 274.749439 
L 79.971009 272.51271 
L 83.810164 272.51271 
L 83.810164 270.835164 
L 97.375467 270.835164 
L 97.375467 269.716799 
L 98.872486 269.716799 
L 98.872486 268.039252 
L 101.524628 268.039252 
L 101.524628 266.361706 
L 106.778678 266.361706 
L 106.778678 265.243341 
L 110.065758 265.243341 
L 110.065758 264.684159 
L 111.500328 264.684159 
L 111.500328 264.124977 
L 118.245359 264.124977 
L 118.245359 263.565795 
L 121.226476 263.565795 
L 121.226476 261.329066 
L 123.425832 261.329066 
L 123.425832 260.769883 
L 123.766534 260.769883 
L 123.766534 260.210701 
L 125.680156 260.210701 
L 125.680156 259.092337 
L 126.273486 259.092337 
L 126.273486 258.533154 
L 127.402078 258.533154 
L 127.402078 257.41479 
L 132.145561 257.41479 
L 132.145561 256.855608 
L 132.955351 256.855608 
L 132.955351 254.618879 
L 134.102767 254.618879 
L 134.102767 254.059696 
L 136.515394 254.059696 
L 136.515394 253.500514 
L 138.630934 253.500514 
L 138.630934 252.941332 
L 140.386678 252.941332 
L 140.386678 252.38215 
L 140.641569 252.38215 
L 140.641569 251.263785 
L 142.441628 251.263785 
L 142.441628 249.586238 
L 143.862519 249.586238 
L 143.862519 249.027056 
L 144.581633 249.027056 
L 144.581633 248.467874 
L 148.27935 248.467874 
L 148.27935 247.908692 
L 148.759517 247.908692 
L 148.759517 246.790327 
L 151.790783 246.790327 
L 151.790783 246.231145 
L 155.092242 246.231145 
L 155.092242 245.112781 
L 203.808358 245.112781 
L 203.904636 243.994416 
L 203.942997 243.994416 
L 203.968524 241.198505 
L 204.105084 241.198505 
L 204.136687 239.520958 
L 204.421641 239.520958 
L 204.520733 237.284229 
L 215.482621 237.284229 
L 215.482621 236.725047 
L 215.685521 236.725047 
L 215.775649 235.606682 
L 215.868502 235.606682 
L 215.868502 234.488318 
L 222.44825 234.488318 
L 222.553578 231.692407 
L 222.670098 231.692407 
L 222.692663 230.01486 
L 227.34187 230.01486 
L 227.34187 229.455678 
L 234.330677 229.455678 
L 234.360679 227.778131 
L 236.995839 227.778131 
L 237.056056 226.100584 
L 239.333222 226.100584 
L 239.333222 225.541402 
L 241.294817 225.541402 
L 241.336289 223.863855 
L 243.101775 223.863855 
L 243.144024 221.627126 
L 244.735074 221.627126 
L 244.735074 221.067944 
L 246.256182 221.067944 
L 246.256182 220.508762 
L 247.599213 220.508762 
L 247.631752 218.831215 
L 248.870298 218.831215 
L 248.870298 218.272033 
L 250.053903 218.272033 
L 250.053903 217.712851 
L 251.150003 217.712851 
L 251.181196 216.594486 
L 254.9915 216.594486 
L 255.012681 215.476122 
L 258.837685 215.476122 
L 258.840444 214.357757 
L 260.138772 214.357757 
L 260.138772 213.798575 
L 260.78161 213.798575 
L 260.78161 213.239393 
L 263.064413 213.239393 
L 263.064413 212.680211 
L 264.614403 212.680211 
L 264.614403 212.121028 
L 267.332145 212.121028 
L 267.332145 211.561846 
L 268.931429 211.561846 
L 268.931429 211.002664 
L 333.429677 211.002664 
L 333.429677 211.002664 
" style="fill:none;stroke:#ff0000;stroke-linecap:square;stroke-width:1.5;"/>
   </g>
   <g id="line2d_45">
    <defs>
     <path d="M 0 -6 
L -5.196152 -3 
L -5.196152 3 
L -0 6 
L 5.196152 3 
L 5.196152 -3 
z
" id="mfa4e11c9db" style="stroke:#ff0000;stroke-linejoin:miter;stroke-width:1.5;"/>
    </defs>
    <g>
     <use style="fill-opacity:0;stroke:#ff0000;stroke-linejoin:miter;stroke-width:1.5;" x="143.862519" xlink:href="#mfa4e11c9db" y="249.027056"/>
     <use style="fill-opacity:0;stroke:#ff0000;stroke-linejoin:miter;stroke-width:1.5;" x="222.692663" xlink:href="#mfa4e11c9db" y="230.01486"/>
     <use style="fill-opacity:0;stroke:#ff0000;stroke-linejoin:miter;stroke-width:1.5;" x="268.931429" xlink:href="#mfa4e11c9db" y="211.002664"/>
     <use style="fill-opacity:0;stroke:#ff0000;stroke-linejoin:miter;stroke-width:1.5;" x="268.931429" xlink:href="#mfa4e11c9db" y="211.002664"/>
     <use style="fill-opacity:0;stroke:#ff0000;stroke-linejoin:miter;stroke-width:1.5;" x="333.429677" xlink:href="#mfa4e11c9db" y="211.002664"/>
    </g>
   </g>
   <g id="line2d_46">
    <path style="fill:none;stroke:#ff0000;stroke-linecap:square;stroke-width:1.5;"/>
    <g/>
   </g>
   <g id="line2d_47">
    <path clip-path="url(#pe2f409a685)" d="M 203.414473 245.112781 
" style="fill:none;stroke:#ff0000;stroke-linecap:square;stroke-width:1.5;"/>
    <defs>
     <path d="M -12 12 
L 12 -12 
M -12 -12 
L 12 12 
" id="m80ec3159fb" style="stroke:#ff0000;stroke-width:3;"/>
    </defs>
    <g clip-path="url(#pe2f409a685)">
     <use style="fill:#ff0000;stroke:#ff0000;stroke-width:3;" x="203.414473" xlink:href="#m80ec3159fb" y="245.112781"/>
    </g>
   </g>
   <g id="line2d_48">
    <path d="M 333.429677 211.002664 
L 363.933742 289.176341 
" style="fill:none;stroke:#ff0000;stroke-linecap:square;stroke-width:1.5;"/>
    <g>
     <use style="fill-opacity:0;stroke:#ff0000;stroke-linejoin:miter;stroke-width:1.5;" x="333.429677" xlink:href="#mfa4e11c9db" y="211.002664"/>
     <use style="fill-opacity:0;stroke:#ff0000;stroke-linejoin:miter;stroke-width:1.5;" x="363.933742" xlink:href="#mfa4e11c9db" y="289.176341"/>
    </g>
   </g>
   <g id="line2d_49">
    <path d="M 333.429677 9.697057 
L 363.933742 220.732435 
" style="fill:none;stroke:#ffa500;stroke-linecap:square;stroke-width:1.5;"/>
    <g>
     <use style="fill-opacity:0;stroke:#ffa500;stroke-linejoin:bevel;stroke-width:1.5;" x="333.429677" xlink:href="#m2894259517" y="9.697057"/>
     <use style="fill-opacity:0;stroke:#ffa500;stroke-linejoin:bevel;stroke-width:1.5;" x="363.933742" xlink:href="#m2894259517" y="220.732435"/>
    </g>
   </g>
   <g id="line2d_50">
    <path d="M 333.429677 9.697057 
L 363.933742 152.288529 
" style="fill:none;stroke:#6495ed;stroke-linecap:square;stroke-width:1.5;"/>
    <g>
     <use style="fill-opacity:0;stroke:#6495ed;stroke-linejoin:miter;stroke-width:1.5;" x="333.429677" xlink:href="#m6cb6a480d6" y="9.697057"/>
     <use style="fill-opacity:0;stroke:#6495ed;stroke-linejoin:miter;stroke-width:1.5;" x="363.933742" xlink:href="#m6cb6a480d6" y="152.288529"/>
    </g>
   </g>
   <g id="line2d_51">
    <path d="M 333.429677 9.697057 
L 363.933742 83.844622 
" style="fill:none;stroke:#000080;stroke-linecap:square;stroke-width:1.5;"/>
    <g>
     <use style="fill-opacity:0;stroke:#000080;stroke-width:1.5;" x="333.429677" xlink:href="#m674a8c7b5f" y="9.697057"/>
     <use style="fill-opacity:0;stroke:#000080;stroke-width:1.5;" x="363.933742" xlink:href="#m674a8c7b5f" y="83.844622"/>
    </g>
   </g>
   <g id="line2d_52">
    <path d="M 333.429677 9.697057 
L 363.933742 15.400716 
" style="fill:none;stroke:#ff00ff;stroke-linecap:square;stroke-width:1.5;"/>
    <g>
     <use style="fill-opacity:0;stroke:#ff00ff;stroke-linejoin:miter;stroke-width:1.5;" x="333.429677" xlink:href="#m4086a301ff" y="9.697057"/>
     <use style="fill-opacity:0;stroke:#ff00ff;stroke-linejoin:miter;stroke-width:1.5;" x="363.933742" xlink:href="#m4086a301ff" y="15.400716"/>
    </g>
   </g>
   <g id="line2d_53">
    <path d="M 333.429677 294.88 
L 333.429677 9.697057 
" style="fill:none;stroke:#000000;stroke-linecap:square;stroke-width:1.5;"/>
   </g>
   <g id="patch_3">
    <path d="M 56.12 294.88 
L 56.12 6.845228 
" style="fill:none;stroke:#000000;stroke-linecap:square;stroke-linejoin:miter;stroke-width:0.8;"/>
   </g>
   <g id="patch_4">
    <path d="M 399.984 294.88 
L 399.984 6.845228 
" style="fill:none;stroke:#000000;stroke-linecap:square;stroke-linejoin:miter;stroke-width:0.8;"/>
   </g>
   <g id="patch_5">
    <path d="M 56.12 294.88 
L 399.984 294.88 
" style="fill:none;stroke:#000000;stroke-linecap:square;stroke-linejoin:miter;stroke-width:0.8;"/>
   </g>
   <g id="patch_6">
    <path d="M 56.12 6.845228 
L 399.984 6.845228 
" style="fill:none;stroke:#000000;stroke-linecap:square;stroke-linejoin:miter;stroke-width:0.8;"/>
   </g>
   <g id="text_14">
    <!-- f24 -->
    <g transform="translate(369.479935 293.867279)scale(0.17 -0.17)">
     <use xlink:href="#DejaVuSans-66"/>
     <use x="35.205078" xlink:href="#DejaVuSans-32"/>
     <use x="98.828125" xlink:href="#DejaVuSans-34"/>
    </g>
   </g>
   <g id="text_15">
    <!-- f22 -->
    <g transform="translate(369.479935 225.423372)scale(0.17 -0.17)">
     <use xlink:href="#DejaVuSans-66"/>
     <use x="35.205078" xlink:href="#DejaVuSans-32"/>
     <use x="98.828125" xlink:href="#DejaVuSans-32"/>
    </g>
   </g>
   <g id="text_16">
    <!-- f23 -->
    <defs>
     <path d="M 40.578125 39.3125 
Q 47.65625 37.796875 51.625 33 
Q 55.609375 28.21875 55.609375 21.1875 
Q 55.609375 10.40625 48.1875 4.484375 
Q 40.765625 -1.421875 27.09375 -1.421875 
Q 22.515625 -1.421875 17.65625 -0.515625 
Q 12.796875 0.390625 7.625 2.203125 
L 7.625 11.71875 
Q 11.71875 9.328125 16.59375 8.109375 
Q 21.484375 6.890625 26.8125 6.890625 
Q 36.078125 6.890625 40.9375 10.546875 
Q 45.796875 14.203125 45.796875 21.1875 
Q 45.796875 27.640625 41.28125 31.265625 
Q 36.765625 34.90625 28.71875 34.90625 
L 20.21875 34.90625 
L 20.21875 43.015625 
L 29.109375 43.015625 
Q 36.375 43.015625 40.234375 45.921875 
Q 44.09375 48.828125 44.09375 54.296875 
Q 44.09375 59.90625 40.109375 62.90625 
Q 36.140625 65.921875 28.71875 65.921875 
Q 24.65625 65.921875 20.015625 65.03125 
Q 15.375 64.15625 9.8125 62.3125 
L 9.8125 71.09375 
Q 15.4375 72.65625 20.34375 73.4375 
Q 25.25 74.21875 29.59375 74.21875 
Q 40.828125 74.21875 47.359375 69.109375 
Q 53.90625 64.015625 53.90625 55.328125 
Q 53.90625 49.265625 50.4375 45.09375 
Q 46.96875 40.921875 40.578125 39.3125 
z
" id="DejaVuSans-33"/>
    </defs>
    <g transform="translate(369.479935 156.979466)scale(0.17 -0.17)">
     <use xlink:href="#DejaVuSans-66"/>
     <use x="35.205078" xlink:href="#DejaVuSans-32"/>
     <use x="98.828125" xlink:href="#DejaVuSans-33"/>
    </g>
   </g>
   <g id="text_17">
    <!-- f20 -->
    <g transform="translate(369.479935 88.53556)scale(0.17 -0.17)">
     <use xlink:href="#DejaVuSans-66"/>
     <use x="35.205078" xlink:href="#DejaVuSans-32"/>
     <use x="98.828125" xlink:href="#DejaVuSans-30"/>
    </g>
   </g>
   <g id="text_18">
    <!-- f21 -->
    <g transform="translate(369.479935 20.091654)scale(0.17 -0.17)">
     <use xlink:href="#DejaVuSans-66"/>
     <use x="35.205078" xlink:href="#DejaVuSans-32"/>
     <use x="98.828125" xlink:href="#DejaVuSans-31"/>
    </g>
   </g>
   <g id="text_19">
    <!-- bbob -->
    <defs>
     <path d="M 48.6875 27.296875 
Q 48.6875 37.203125 44.609375 42.84375 
Q 40.53125 48.484375 33.40625 48.484375 
Q 26.265625 48.484375 22.1875 42.84375 
Q 18.109375 37.203125 18.109375 27.296875 
Q 18.109375 17.390625 22.1875 11.75 
Q 26.265625 6.109375 33.40625 6.109375 
Q 40.53125 6.109375 44.609375 11.75 
Q 48.6875 17.390625 48.6875 27.296875 
z
M 18.109375 46.390625 
Q 20.953125 51.265625 25.265625 53.625 
Q 29.59375 56 35.59375 56 
Q 45.5625 56 51.78125 48.09375 
Q 58.015625 40.1875 58.015625 27.296875 
Q 58.015625 14.40625 51.78125 6.484375 
Q 45.5625 -1.421875 35.59375 -1.421875 
Q 29.59375 -1.421875 25.265625 0.953125 
Q 20.953125 3.328125 18.109375 8.203125 
L 18.109375 0 
L 9.078125 0 
L 9.078125 75.984375 
L 18.109375 75.984375 
z
" id="DejaVuSans-62"/>
    </defs>
    <g transform="translate(59.55864 17.475982)scale(0.102 -0.102)">
     <use xlink:href="#DejaVuSans-62"/>
     <use x="63.476562" xlink:href="#DejaVuSans-62"/>
     <use x="126.953125" xlink:href="#DejaVuSans-6f"/>
     <use x="188.134766" xlink:href="#DejaVuSans-62"/>
    </g>
    <!-- Weak structure functions, 2-D -->
    <defs>
     <path d="M 3.328125 72.90625 
L 13.28125 72.90625 
L 28.609375 11.28125 
L 43.890625 72.90625 
L 54.984375 72.90625 
L 70.3125 11.28125 
L 85.59375 72.90625 
L 95.609375 72.90625 
L 77.296875 0 
L 64.890625 0 
L 49.515625 63.28125 
L 33.984375 0 
L 21.578125 0 
z
" id="DejaVuSans-57"/>
     <path d="M 9.078125 75.984375 
L 18.109375 75.984375 
L 18.109375 31.109375 
L 44.921875 54.6875 
L 56.390625 54.6875 
L 27.390625 29.109375 
L 57.625 0 
L 45.90625 0 
L 18.109375 26.703125 
L 18.109375 0 
L 9.078125 0 
z
" id="DejaVuSans-6b"/>
     <path d="M 19.671875 64.796875 
L 19.671875 8.109375 
L 31.59375 8.109375 
Q 46.6875 8.109375 53.6875 14.9375 
Q 60.6875 21.78125 60.6875 36.53125 
Q 60.6875 51.171875 53.6875 57.984375 
Q 46.6875 64.796875 31.59375 64.796875 
z
M 9.8125 72.90625 
L 30.078125 72.90625 
Q 51.265625 72.90625 61.171875 64.09375 
Q 71.09375 55.28125 71.09375 36.53125 
Q 71.09375 17.671875 61.125 8.828125 
Q 51.171875 0 30.078125 0 
L 9.8125 0 
z
" id="DejaVuSans-44"/>
    </defs>
    <g transform="translate(59.55864 28.89775)scale(0.102 -0.102)">
     <use xlink:href="#DejaVuSans-57"/>
     <use x="98.798828" xlink:href="#DejaVuSans-65"/>
     <use x="160.322266" xlink:href="#DejaVuSans-61"/>
     <use x="221.601562" xlink:href="#DejaVuSans-6b"/>
     <use x="279.511719" xlink:href="#DejaVuSans-20"/>
     <use x="311.298828" xlink:href="#DejaVuSans-73"/>
     <use x="363.398438" xlink:href="#DejaVuSans-74"/>
     <use x="402.607422" xlink:href="#DejaVuSans-72"/>
     <use x="443.720703" xlink:href="#DejaVuSans-75"/>
     <use x="507.099609" xlink:href="#DejaVuSans-63"/>
     <use x="562.080078" xlink:href="#DejaVuSans-74"/>
     <use x="601.289062" xlink:href="#DejaVuSans-75"/>
     <use x="664.667969" xlink:href="#DejaVuSans-72"/>
     <use x="705.75" xlink:href="#DejaVuSans-65"/>
     <use x="767.273438" xlink:href="#DejaVuSans-20"/>
     <use x="799.060547" xlink:href="#DejaVuSans-66"/>
     <use x="834.265625" xlink:href="#DejaVuSans-75"/>
     <use x="897.644531" xlink:href="#DejaVuSans-6e"/>
     <use x="961.023438" xlink:href="#DejaVuSans-63"/>
     <use x="1016.003906" xlink:href="#DejaVuSans-74"/>
     <use x="1055.212891" xlink:href="#DejaVuSans-69"/>
     <use x="1082.996094" xlink:href="#DejaVuSans-6f"/>
     <use x="1144.177734" xlink:href="#DejaVuSans-6e"/>
     <use x="1207.556641" xlink:href="#DejaVuSans-73"/>
     <use x="1259.65625" xlink:href="#DejaVuSans-2c"/>
     <use x="1291.443359" xlink:href="#DejaVuSans-20"/>
     <use x="1323.230469" xlink:href="#DejaVuSans-32"/>
     <use x="1386.853516" xlink:href="#DejaVuSans-2d"/>
     <use x="1422.9375" xlink:href="#DejaVuSans-44"/>
    </g>
    <!-- 51 targets: 100..1e-08 -->
    <defs>
     <path d="M 10.796875 72.90625 
L 49.515625 72.90625 
L 49.515625 64.59375 
L 19.828125 64.59375 
L 19.828125 46.734375 
Q 21.96875 47.46875 24.109375 47.828125 
Q 26.265625 48.1875 28.421875 48.1875 
Q 40.625 48.1875 47.75 41.5 
Q 54.890625 34.8125 54.890625 23.390625 
Q 54.890625 11.625 47.5625 5.09375 
Q 40.234375 -1.421875 26.90625 -1.421875 
Q 22.3125 -1.421875 17.546875 -0.640625 
Q 12.796875 0.140625 7.71875 1.703125 
L 7.71875 11.625 
Q 12.109375 9.234375 16.796875 8.0625 
Q 21.484375 6.890625 26.703125 6.890625 
Q 35.15625 6.890625 40.078125 11.328125 
Q 45.015625 15.765625 45.015625 23.390625 
Q 45.015625 31 40.078125 35.4375 
Q 35.15625 39.890625 26.703125 39.890625 
Q 22.75 39.890625 18.8125 39.015625 
Q 14.890625 38.140625 10.796875 36.28125 
z
" id="DejaVuSans-35"/>
     <path d="M 11.71875 12.40625 
L 22.015625 12.40625 
L 22.015625 0 
L 11.71875 0 
z
M 11.71875 51.703125 
L 22.015625 51.703125 
L 22.015625 39.3125 
L 11.71875 39.3125 
z
" id="DejaVuSans-3a"/>
    </defs>
    <g transform="translate(59.55864 40.319519)scale(0.102 -0.102)">
     <use xlink:href="#DejaVuSans-35"/>
     <use x="63.623047" xlink:href="#DejaVuSans-31"/>
     <use x="127.246094" xlink:href="#DejaVuSans-20"/>
     <use x="159.033203" xlink:href="#DejaVuSans-74"/>
     <use x="198.242188" xlink:href="#DejaVuSans-61"/>
     <use x="259.521484" xlink:href="#DejaVuSans-72"/>
     <use x="300.619141" xlink:href="#DejaVuSans-67"/>
     <use x="364.095703" xlink:href="#DejaVuSans-65"/>
     <use x="425.619141" xlink:href="#DejaVuSans-74"/>
     <use x="464.828125" xlink:href="#DejaVuSans-73"/>
     <use x="516.927734" xlink:href="#DejaVuSans-3a"/>
     <use x="550.619141" xlink:href="#DejaVuSans-20"/>
     <use x="582.40625" xlink:href="#DejaVuSans-31"/>
     <use x="646.029297" xlink:href="#DejaVuSans-30"/>
     <use x="709.652344" xlink:href="#DejaVuSans-30"/>
     <use x="773.275391" xlink:href="#DejaVuSans-2e"/>
     <use x="805.0625" xlink:href="#DejaVuSans-2e"/>
     <use x="836.849609" xlink:href="#DejaVuSans-31"/>
     <use x="900.472656" xlink:href="#DejaVuSans-65"/>
     <use x="961.996094" xlink:href="#DejaVuSans-2d"/>
     <use x="998.080078" xlink:href="#DejaVuSans-30"/>
     <use x="1061.703125" xlink:href="#DejaVuSans-38"/>
    </g>
    <!-- 15 instances -->
    <g transform="translate(59.55864 51.741288)scale(0.102 -0.102)">
     <use xlink:href="#DejaVuSans-31"/>
     <use x="63.623047" xlink:href="#DejaVuSans-35"/>
     <use x="127.246094" xlink:href="#DejaVuSans-20"/>
     <use x="159.033203" xlink:href="#DejaVuSans-69"/>
     <use x="186.816406" xlink:href="#DejaVuSans-6e"/>
     <use x="250.195312" xlink:href="#DejaVuSans-73"/>
     <use x="302.294922" xlink:href="#DejaVuSans-74"/>
     <use x="341.503906" xlink:href="#DejaVuSans-61"/>
     <use x="402.783203" xlink:href="#DejaVuSans-6e"/>
     <use x="466.162109" xlink:href="#DejaVuSans-63"/>
     <use x="521.142578" xlink:href="#DejaVuSans-65"/>
     <use x="582.666016" xlink:href="#DejaVuSans-73"/>
    </g>
   </g>
   <g id="text_20">
    <!-- v2.2.1.10 -->
    <g style="fill:#808080;" transform="translate(204.419188 289.919965)scale(0.1 -0.1)">
     <use xlink:href="#DejaVuSans-76"/>
     <use x="59.179688" xlink:href="#DejaVuSans-32"/>
     <use x="122.802734" xlink:href="#DejaVuSans-2e"/>
     <use x="154.589844" xlink:href="#DejaVuSans-32"/>
     <use x="218.212891" xlink:href="#DejaVuSans-2e"/>
     <use x="250" xlink:href="#DejaVuSans-31"/>
     <use x="313.623047" xlink:href="#DejaVuSans-2e"/>
     <use x="345.410156" xlink:href="#DejaVuSans-31"/>
     <use x="409.033203" xlink:href="#DejaVuSans-30"/>
    </g>
   </g>
  </g>
 </g>
 <defs>
  <clipPath id="pe2f409a685">
   <rect height="288.034772" width="343.864" x="56.12" y="6.845228"/>
  </clipPath>
 </defs>
</svg>
