<?xml version="1.0" encoding="utf-8" standalone="no"?>
<!DOCTYPE svg PUBLIC "-//W3C//DTD SVG 1.1//EN"
  "http://www.w3.org/Graphics/SVG/1.1/DTD/svg11.dtd">
<!-- Created with matplotlib (http://matplotlib.org/) -->
<svg height="345.6pt" version="1.1" viewBox="0 0 460.8 345.6" width="460.8pt" xmlns="http://www.w3.org/2000/svg" xmlns:xlink="http://www.w3.org/1999/xlink">
 <defs>
  <style type="text/css">
*{stroke-linecap:butt;stroke-linejoin:round;}
  </style>
 </defs>
 <g id="figure_1">
  <g id="patch_1">
   <path d="M 0 345.6 
L 460.8 345.6 
L 460.8 0 
L 0 0 
z
" style="fill:#ffffff;"/>
  </g>
  <g id="axes_1">
   <g id="patch_2">
    <path d="M 56.12 294.88 
L 399.984 294.88 
L 399.984 6.845228 
L 56.12 6.845228 
z
" style="fill:#ffffff;"/>
   </g>
   <g id="matplotlib.axis_1">
    <g id="xtick_1">
     <g id="line2d_1">
      <path clip-path="url(#pac48f68f08)" d="M 56.12 294.88 
L 56.12 6.845228 
" style="fill:none;stroke:#b0b0b0;stroke-linecap:square;stroke-width:0.8;"/>
     </g>
     <g id="line2d_2">
      <defs>
       <path d="M 0 0 
L 0 3.5 
" id="m0131e12c79" style="stroke:#000000;stroke-width:0.8;"/>
      </defs>
      <g>
       <use style="stroke:#000000;stroke-width:0.8;" x="56.12" xlink:href="#m0131e12c79" y="294.88"/>
      </g>
     </g>
     <g id="text_1">
      <!-- 0 -->
      <defs>
       <path d="M 31.78125 66.40625 
Q 24.171875 66.40625 20.328125 58.90625 
Q 16.5 51.421875 16.5 36.375 
Q 16.5 21.390625 20.328125 13.890625 
Q 24.171875 6.390625 31.78125 6.390625 
Q 39.453125 6.390625 43.28125 13.890625 
Q 47.125 21.390625 47.125 36.375 
Q 47.125 51.421875 43.28125 58.90625 
Q 39.453125 66.40625 31.78125 66.40625 
z
M 31.78125 74.21875 
Q 44.046875 74.21875 50.515625 64.515625 
Q 56.984375 54.828125 56.984375 36.375 
Q 56.984375 17.96875 50.515625 8.265625 
Q 44.046875 -1.421875 31.78125 -1.421875 
Q 19.53125 -1.421875 13.0625 8.265625 
Q 6.59375 17.96875 6.59375 36.375 
Q 6.59375 54.828125 13.0625 64.515625 
Q 19.53125 74.21875 31.78125 74.21875 
z
" id="DejaVuSans-30"/>
      </defs>
      <g transform="translate(49.7575 317.076875)scale(0.2 -0.2)">
       <use xlink:href="#DejaVuSans-30"/>
      </g>
     </g>
    </g>
    <g id="xtick_2">
     <g id="line2d_3">
      <path clip-path="url(#pac48f68f08)" d="M 135.351336 294.88 
L 135.351336 6.845228 
" style="fill:none;stroke:#b0b0b0;stroke-linecap:square;stroke-width:0.8;"/>
     </g>
     <g id="line2d_4">
      <g>
       <use style="stroke:#000000;stroke-width:0.8;" x="135.351336" xlink:href="#m0131e12c79" y="294.88"/>
      </g>
     </g>
     <g id="text_2">
      <!-- 2 -->
      <defs>
       <path d="M 19.1875 8.296875 
L 53.609375 8.296875 
L 53.609375 0 
L 7.328125 0 
L 7.328125 8.296875 
Q 12.9375 14.109375 22.625 23.890625 
Q 32.328125 33.6875 34.8125 36.53125 
Q 39.546875 41.84375 41.421875 45.53125 
Q 43.3125 49.21875 43.3125 52.78125 
Q 43.3125 58.59375 39.234375 62.25 
Q 35.15625 65.921875 28.609375 65.921875 
Q 23.96875 65.921875 18.8125 64.3125 
Q 13.671875 62.703125 7.8125 59.421875 
L 7.8125 69.390625 
Q 13.765625 71.78125 18.9375 73 
Q 24.125 74.21875 28.421875 74.21875 
Q 39.75 74.21875 46.484375 68.546875 
Q 53.21875 62.890625 53.21875 53.421875 
Q 53.21875 48.921875 51.53125 44.890625 
Q 49.859375 40.875 45.40625 35.40625 
Q 44.1875 33.984375 37.640625 27.21875 
Q 31.109375 20.453125 19.1875 8.296875 
z
" id="DejaVuSans-32"/>
      </defs>
      <g transform="translate(128.988836 317.076875)scale(0.2 -0.2)">
       <use xlink:href="#DejaVuSans-32"/>
      </g>
     </g>
    </g>
    <g id="xtick_3">
     <g id="line2d_5">
      <path clip-path="url(#pac48f68f08)" d="M 214.582673 294.88 
L 214.582673 6.845228 
" style="fill:none;stroke:#b0b0b0;stroke-linecap:square;stroke-width:0.8;"/>
     </g>
     <g id="line2d_6">
      <g>
       <use style="stroke:#000000;stroke-width:0.8;" x="214.582673" xlink:href="#m0131e12c79" y="294.88"/>
      </g>
     </g>
     <g id="text_3">
      <!-- 4 -->
      <defs>
       <path d="M 37.796875 64.3125 
L 12.890625 25.390625 
L 37.796875 25.390625 
z
M 35.203125 72.90625 
L 47.609375 72.90625 
L 47.609375 25.390625 
L 58.015625 25.390625 
L 58.015625 17.1875 
L 47.609375 17.1875 
L 47.609375 0 
L 37.796875 0 
L 37.796875 17.1875 
L 4.890625 17.1875 
L 4.890625 26.703125 
z
" id="DejaVuSans-34"/>
      </defs>
      <g transform="translate(208.220173 317.076875)scale(0.2 -0.2)">
       <use xlink:href="#DejaVuSans-34"/>
      </g>
     </g>
    </g>
    <g id="xtick_4">
     <g id="line2d_7">
      <path clip-path="url(#pac48f68f08)" d="M 293.814009 294.88 
L 293.814009 6.845228 
" style="fill:none;stroke:#b0b0b0;stroke-linecap:square;stroke-width:0.8;"/>
     </g>
     <g id="line2d_8">
      <g>
       <use style="stroke:#000000;stroke-width:0.8;" x="293.814009" xlink:href="#m0131e12c79" y="294.88"/>
      </g>
     </g>
     <g id="text_4">
      <!-- 6 -->
      <defs>
       <path d="M 33.015625 40.375 
Q 26.375 40.375 22.484375 35.828125 
Q 18.609375 31.296875 18.609375 23.390625 
Q 18.609375 15.53125 22.484375 10.953125 
Q 26.375 6.390625 33.015625 6.390625 
Q 39.65625 6.390625 43.53125 10.953125 
Q 47.40625 15.53125 47.40625 23.390625 
Q 47.40625 31.296875 43.53125 35.828125 
Q 39.65625 40.375 33.015625 40.375 
z
M 52.59375 71.296875 
L 52.59375 62.3125 
Q 48.875 64.0625 45.09375 64.984375 
Q 41.3125 65.921875 37.59375 65.921875 
Q 27.828125 65.921875 22.671875 59.328125 
Q 17.53125 52.734375 16.796875 39.40625 
Q 19.671875 43.65625 24.015625 45.921875 
Q 28.375 48.1875 33.59375 48.1875 
Q 44.578125 48.1875 50.953125 41.515625 
Q 57.328125 34.859375 57.328125 23.390625 
Q 57.328125 12.15625 50.6875 5.359375 
Q 44.046875 -1.421875 33.015625 -1.421875 
Q 20.359375 -1.421875 13.671875 8.265625 
Q 6.984375 17.96875 6.984375 36.375 
Q 6.984375 53.65625 15.1875 63.9375 
Q 23.390625 74.21875 37.203125 74.21875 
Q 40.921875 74.21875 44.703125 73.484375 
Q 48.484375 72.75 52.59375 71.296875 
z
" id="DejaVuSans-36"/>
      </defs>
      <g transform="translate(287.451509 317.076875)scale(0.2 -0.2)">
       <use xlink:href="#DejaVuSans-36"/>
      </g>
     </g>
    </g>
    <g id="xtick_5">
     <g id="line2d_9">
      <path clip-path="url(#pac48f68f08)" d="M 373.045346 294.88 
L 373.045346 6.845228 
" style="fill:none;stroke:#b0b0b0;stroke-linecap:square;stroke-width:0.8;"/>
     </g>
     <g id="line2d_10">
      <g>
       <use style="stroke:#000000;stroke-width:0.8;" x="373.045346" xlink:href="#m0131e12c79" y="294.88"/>
      </g>
     </g>
     <g id="text_5">
      <!-- 8 -->
      <defs>
       <path d="M 31.78125 34.625 
Q 24.75 34.625 20.71875 30.859375 
Q 16.703125 27.09375 16.703125 20.515625 
Q 16.703125 13.921875 20.71875 10.15625 
Q 24.75 6.390625 31.78125 6.390625 
Q 38.8125 6.390625 42.859375 10.171875 
Q 46.921875 13.96875 46.921875 20.515625 
Q 46.921875 27.09375 42.890625 30.859375 
Q 38.875 34.625 31.78125 34.625 
z
M 21.921875 38.8125 
Q 15.578125 40.375 12.03125 44.71875 
Q 8.5 49.078125 8.5 55.328125 
Q 8.5 64.0625 14.71875 69.140625 
Q 20.953125 74.21875 31.78125 74.21875 
Q 42.671875 74.21875 48.875 69.140625 
Q 55.078125 64.0625 55.078125 55.328125 
Q 55.078125 49.078125 51.53125 44.71875 
Q 48 40.375 41.703125 38.8125 
Q 48.828125 37.15625 52.796875 32.3125 
Q 56.78125 27.484375 56.78125 20.515625 
Q 56.78125 9.90625 50.3125 4.234375 
Q 43.84375 -1.421875 31.78125 -1.421875 
Q 19.734375 -1.421875 13.25 4.234375 
Q 6.78125 9.90625 6.78125 20.515625 
Q 6.78125 27.484375 10.78125 32.3125 
Q 14.796875 37.15625 21.921875 38.8125 
z
M 18.3125 54.390625 
Q 18.3125 48.734375 21.84375 45.5625 
Q 25.390625 42.390625 31.78125 42.390625 
Q 38.140625 42.390625 41.71875 45.5625 
Q 45.3125 48.734375 45.3125 54.390625 
Q 45.3125 60.0625 41.71875 63.234375 
Q 38.140625 66.40625 31.78125 66.40625 
Q 25.390625 66.40625 21.84375 63.234375 
Q 18.3125 60.0625 18.3125 54.390625 
z
" id="DejaVuSans-38"/>
      </defs>
      <g transform="translate(366.682846 317.076875)scale(0.2 -0.2)">
       <use xlink:href="#DejaVuSans-38"/>
      </g>
     </g>
    </g>
    <g id="text_6">
     <!-- log10(# f-evals / dimension) -->
     <defs>
      <path d="M 9.421875 75.984375 
L 18.40625 75.984375 
L 18.40625 0 
L 9.421875 0 
z
" id="DejaVuSans-6c"/>
      <path d="M 30.609375 48.390625 
Q 23.390625 48.390625 19.1875 42.75 
Q 14.984375 37.109375 14.984375 27.296875 
Q 14.984375 17.484375 19.15625 11.84375 
Q 23.34375 6.203125 30.609375 6.203125 
Q 37.796875 6.203125 41.984375 11.859375 
Q 46.1875 17.53125 46.1875 27.296875 
Q 46.1875 37.015625 41.984375 42.703125 
Q 37.796875 48.390625 30.609375 48.390625 
z
M 30.609375 56 
Q 42.328125 56 49.015625 48.375 
Q 55.71875 40.765625 55.71875 27.296875 
Q 55.71875 13.875 49.015625 6.21875 
Q 42.328125 -1.421875 30.609375 -1.421875 
Q 18.84375 -1.421875 12.171875 6.21875 
Q 5.515625 13.875 5.515625 27.296875 
Q 5.515625 40.765625 12.171875 48.375 
Q 18.84375 56 30.609375 56 
z
" id="DejaVuSans-6f"/>
      <path d="M 45.40625 27.984375 
Q 45.40625 37.75 41.375 43.109375 
Q 37.359375 48.484375 30.078125 48.484375 
Q 22.859375 48.484375 18.828125 43.109375 
Q 14.796875 37.75 14.796875 27.984375 
Q 14.796875 18.265625 18.828125 12.890625 
Q 22.859375 7.515625 30.078125 7.515625 
Q 37.359375 7.515625 41.375 12.890625 
Q 45.40625 18.265625 45.40625 27.984375 
z
M 54.390625 6.78125 
Q 54.390625 -7.171875 48.1875 -13.984375 
Q 42 -20.796875 29.203125 -20.796875 
Q 24.46875 -20.796875 20.265625 -20.09375 
Q 16.0625 -19.390625 12.109375 -17.921875 
L 12.109375 -9.1875 
Q 16.0625 -11.328125 19.921875 -12.34375 
Q 23.78125 -13.375 27.78125 -13.375 
Q 36.625 -13.375 41.015625 -8.765625 
Q 45.40625 -4.15625 45.40625 5.171875 
L 45.40625 9.625 
Q 42.625 4.78125 38.28125 2.390625 
Q 33.9375 0 27.875 0 
Q 17.828125 0 11.671875 7.65625 
Q 5.515625 15.328125 5.515625 27.984375 
Q 5.515625 40.671875 11.671875 48.328125 
Q 17.828125 56 27.875 56 
Q 33.9375 56 38.28125 53.609375 
Q 42.625 51.21875 45.40625 46.390625 
L 45.40625 54.6875 
L 54.390625 54.6875 
z
" id="DejaVuSans-67"/>
      <path d="M 12.40625 8.296875 
L 28.515625 8.296875 
L 28.515625 63.921875 
L 10.984375 60.40625 
L 10.984375 69.390625 
L 28.421875 72.90625 
L 38.28125 72.90625 
L 38.28125 8.296875 
L 54.390625 8.296875 
L 54.390625 0 
L 12.40625 0 
z
" id="DejaVuSans-31"/>
      <path d="M 31 75.875 
Q 24.46875 64.65625 21.28125 53.65625 
Q 18.109375 42.671875 18.109375 31.390625 
Q 18.109375 20.125 21.3125 9.0625 
Q 24.515625 -2 31 -13.1875 
L 23.1875 -13.1875 
Q 15.875 -1.703125 12.234375 9.375 
Q 8.59375 20.453125 8.59375 31.390625 
Q 8.59375 42.28125 12.203125 53.3125 
Q 15.828125 64.359375 23.1875 75.875 
z
" id="DejaVuSans-28"/>
      <path d="M 51.125 44 
L 36.921875 44 
L 32.8125 27.6875 
L 47.125 27.6875 
z
M 43.796875 71.78125 
L 38.71875 51.515625 
L 52.984375 51.515625 
L 58.109375 71.78125 
L 65.921875 71.78125 
L 60.890625 51.515625 
L 76.125 51.515625 
L 76.125 44 
L 58.984375 44 
L 54.984375 27.6875 
L 70.515625 27.6875 
L 70.515625 20.21875 
L 53.078125 20.21875 
L 48 0 
L 40.1875 0 
L 45.21875 20.21875 
L 30.90625 20.21875 
L 25.875 0 
L 18.015625 0 
L 23.09375 20.21875 
L 7.71875 20.21875 
L 7.71875 27.6875 
L 24.90625 27.6875 
L 29 44 
L 13.28125 44 
L 13.28125 51.515625 
L 30.90625 51.515625 
L 35.890625 71.78125 
z
" id="DejaVuSans-23"/>
      <path id="DejaVuSans-20"/>
      <path d="M 37.109375 75.984375 
L 37.109375 68.5 
L 28.515625 68.5 
Q 23.6875 68.5 21.796875 66.546875 
Q 19.921875 64.59375 19.921875 59.515625 
L 19.921875 54.6875 
L 34.71875 54.6875 
L 34.71875 47.703125 
L 19.921875 47.703125 
L 19.921875 0 
L 10.890625 0 
L 10.890625 47.703125 
L 2.296875 47.703125 
L 2.296875 54.6875 
L 10.890625 54.6875 
L 10.890625 58.5 
Q 10.890625 67.625 15.140625 71.796875 
Q 19.390625 75.984375 28.609375 75.984375 
z
" id="DejaVuSans-66"/>
      <path d="M 4.890625 31.390625 
L 31.203125 31.390625 
L 31.203125 23.390625 
L 4.890625 23.390625 
z
" id="DejaVuSans-2d"/>
      <path d="M 56.203125 29.59375 
L 56.203125 25.203125 
L 14.890625 25.203125 
Q 15.484375 15.921875 20.484375 11.0625 
Q 25.484375 6.203125 34.421875 6.203125 
Q 39.59375 6.203125 44.453125 7.46875 
Q 49.3125 8.734375 54.109375 11.28125 
L 54.109375 2.78125 
Q 49.265625 0.734375 44.1875 -0.34375 
Q 39.109375 -1.421875 33.890625 -1.421875 
Q 20.796875 -1.421875 13.15625 6.1875 
Q 5.515625 13.8125 5.515625 26.8125 
Q 5.515625 40.234375 12.765625 48.109375 
Q 20.015625 56 32.328125 56 
Q 43.359375 56 49.78125 48.890625 
Q 56.203125 41.796875 56.203125 29.59375 
z
M 47.21875 32.234375 
Q 47.125 39.59375 43.09375 43.984375 
Q 39.0625 48.390625 32.421875 48.390625 
Q 24.90625 48.390625 20.390625 44.140625 
Q 15.875 39.890625 15.1875 32.171875 
z
" id="DejaVuSans-65"/>
      <path d="M 2.984375 54.6875 
L 12.5 54.6875 
L 29.59375 8.796875 
L 46.6875 54.6875 
L 56.203125 54.6875 
L 35.6875 0 
L 23.484375 0 
z
" id="DejaVuSans-76"/>
      <path d="M 34.28125 27.484375 
Q 23.390625 27.484375 19.1875 25 
Q 14.984375 22.515625 14.984375 16.5 
Q 14.984375 11.71875 18.140625 8.90625 
Q 21.296875 6.109375 26.703125 6.109375 
Q 34.1875 6.109375 38.703125 11.40625 
Q 43.21875 16.703125 43.21875 25.484375 
L 43.21875 27.484375 
z
M 52.203125 31.203125 
L 52.203125 0 
L 43.21875 0 
L 43.21875 8.296875 
Q 40.140625 3.328125 35.546875 0.953125 
Q 30.953125 -1.421875 24.3125 -1.421875 
Q 15.921875 -1.421875 10.953125 3.296875 
Q 6 8.015625 6 15.921875 
Q 6 25.140625 12.171875 29.828125 
Q 18.359375 34.515625 30.609375 34.515625 
L 43.21875 34.515625 
L 43.21875 35.40625 
Q 43.21875 41.609375 39.140625 45 
Q 35.0625 48.390625 27.6875 48.390625 
Q 23 48.390625 18.546875 47.265625 
Q 14.109375 46.140625 10.015625 43.890625 
L 10.015625 52.203125 
Q 14.9375 54.109375 19.578125 55.046875 
Q 24.21875 56 28.609375 56 
Q 40.484375 56 46.34375 49.84375 
Q 52.203125 43.703125 52.203125 31.203125 
z
" id="DejaVuSans-61"/>
      <path d="M 44.28125 53.078125 
L 44.28125 44.578125 
Q 40.484375 46.53125 36.375 47.5 
Q 32.28125 48.484375 27.875 48.484375 
Q 21.1875 48.484375 17.84375 46.4375 
Q 14.5 44.390625 14.5 40.28125 
Q 14.5 37.15625 16.890625 35.375 
Q 19.28125 33.59375 26.515625 31.984375 
L 29.59375 31.296875 
Q 39.15625 29.25 43.1875 25.515625 
Q 47.21875 21.78125 47.21875 15.09375 
Q 47.21875 7.46875 41.1875 3.015625 
Q 35.15625 -1.421875 24.609375 -1.421875 
Q 20.21875 -1.421875 15.453125 -0.5625 
Q 10.6875 0.296875 5.421875 2 
L 5.421875 11.28125 
Q 10.40625 8.6875 15.234375 7.390625 
Q 20.0625 6.109375 24.8125 6.109375 
Q 31.15625 6.109375 34.5625 8.28125 
Q 37.984375 10.453125 37.984375 14.40625 
Q 37.984375 18.0625 35.515625 20.015625 
Q 33.0625 21.96875 24.703125 23.78125 
L 21.578125 24.515625 
Q 13.234375 26.265625 9.515625 29.90625 
Q 5.8125 33.546875 5.8125 39.890625 
Q 5.8125 47.609375 11.28125 51.796875 
Q 16.75 56 26.8125 56 
Q 31.78125 56 36.171875 55.265625 
Q 40.578125 54.546875 44.28125 53.078125 
z
" id="DejaVuSans-73"/>
      <path d="M 25.390625 72.90625 
L 33.6875 72.90625 
L 8.296875 -9.28125 
L 0 -9.28125 
z
" id="DejaVuSans-2f"/>
      <path d="M 45.40625 46.390625 
L 45.40625 75.984375 
L 54.390625 75.984375 
L 54.390625 0 
L 45.40625 0 
L 45.40625 8.203125 
Q 42.578125 3.328125 38.25 0.953125 
Q 33.9375 -1.421875 27.875 -1.421875 
Q 17.96875 -1.421875 11.734375 6.484375 
Q 5.515625 14.40625 5.515625 27.296875 
Q 5.515625 40.1875 11.734375 48.09375 
Q 17.96875 56 27.875 56 
Q 33.9375 56 38.25 53.625 
Q 42.578125 51.265625 45.40625 46.390625 
z
M 14.796875 27.296875 
Q 14.796875 17.390625 18.875 11.75 
Q 22.953125 6.109375 30.078125 6.109375 
Q 37.203125 6.109375 41.296875 11.75 
Q 45.40625 17.390625 45.40625 27.296875 
Q 45.40625 37.203125 41.296875 42.84375 
Q 37.203125 48.484375 30.078125 48.484375 
Q 22.953125 48.484375 18.875 42.84375 
Q 14.796875 37.203125 14.796875 27.296875 
z
" id="DejaVuSans-64"/>
      <path d="M 9.421875 54.6875 
L 18.40625 54.6875 
L 18.40625 0 
L 9.421875 0 
z
M 9.421875 75.984375 
L 18.40625 75.984375 
L 18.40625 64.59375 
L 9.421875 64.59375 
z
" id="DejaVuSans-69"/>
      <path d="M 52 44.1875 
Q 55.375 50.25 60.0625 53.125 
Q 64.75 56 71.09375 56 
Q 79.640625 56 84.28125 50.015625 
Q 88.921875 44.046875 88.921875 33.015625 
L 88.921875 0 
L 79.890625 0 
L 79.890625 32.71875 
Q 79.890625 40.578125 77.09375 44.375 
Q 74.3125 48.1875 68.609375 48.1875 
Q 61.625 48.1875 57.5625 43.546875 
Q 53.515625 38.921875 53.515625 30.90625 
L 53.515625 0 
L 44.484375 0 
L 44.484375 32.71875 
Q 44.484375 40.625 41.703125 44.40625 
Q 38.921875 48.1875 33.109375 48.1875 
Q 26.21875 48.1875 22.15625 43.53125 
Q 18.109375 38.875 18.109375 30.90625 
L 18.109375 0 
L 9.078125 0 
L 9.078125 54.6875 
L 18.109375 54.6875 
L 18.109375 46.1875 
Q 21.1875 51.21875 25.484375 53.609375 
Q 29.78125 56 35.6875 56 
Q 41.65625 56 45.828125 52.96875 
Q 50 49.953125 52 44.1875 
z
" id="DejaVuSans-6d"/>
      <path d="M 54.890625 33.015625 
L 54.890625 0 
L 45.90625 0 
L 45.90625 32.71875 
Q 45.90625 40.484375 42.875 44.328125 
Q 39.84375 48.1875 33.796875 48.1875 
Q 26.515625 48.1875 22.3125 43.546875 
Q 18.109375 38.921875 18.109375 30.90625 
L 18.109375 0 
L 9.078125 0 
L 9.078125 54.6875 
L 18.109375 54.6875 
L 18.109375 46.1875 
Q 21.34375 51.125 25.703125 53.5625 
Q 30.078125 56 35.796875 56 
Q 45.21875 56 50.046875 50.171875 
Q 54.890625 44.34375 54.890625 33.015625 
z
" id="DejaVuSans-6e"/>
      <path d="M 8.015625 75.875 
L 15.828125 75.875 
Q 23.140625 64.359375 26.78125 53.3125 
Q 30.421875 42.28125 30.421875 31.390625 
Q 30.421875 20.453125 26.78125 9.375 
Q 23.140625 -1.703125 15.828125 -13.1875 
L 8.015625 -13.1875 
Q 14.5 -2 17.703125 9.0625 
Q 20.90625 20.125 20.90625 31.390625 
Q 20.90625 42.671875 17.703125 53.65625 
Q 14.5 64.65625 8.015625 75.875 
z
" id="DejaVuSans-29"/>
     </defs>
     <g transform="translate(107.211219 338.153594)scale(0.17 -0.17)">
      <use xlink:href="#DejaVuSans-6c"/>
      <use x="27.783203" xlink:href="#DejaVuSans-6f"/>
      <use x="88.964844" xlink:href="#DejaVuSans-67"/>
      <use x="152.441406" xlink:href="#DejaVuSans-31"/>
      <use x="216.064453" xlink:href="#DejaVuSans-30"/>
      <use x="279.6875" xlink:href="#DejaVuSans-28"/>
      <use x="318.701172" xlink:href="#DejaVuSans-23"/>
      <use x="402.490234" xlink:href="#DejaVuSans-20"/>
      <use x="434.277344" xlink:href="#DejaVuSans-66"/>
      <use x="469.404297" xlink:href="#DejaVuSans-2d"/>
      <use x="505.488281" xlink:href="#DejaVuSans-65"/>
      <use x="567.011719" xlink:href="#DejaVuSans-76"/>
      <use x="626.191406" xlink:href="#DejaVuSans-61"/>
      <use x="687.470703" xlink:href="#DejaVuSans-6c"/>
      <use x="715.253906" xlink:href="#DejaVuSans-73"/>
      <use x="767.353516" xlink:href="#DejaVuSans-20"/>
      <use x="799.140625" xlink:href="#DejaVuSans-2f"/>
      <use x="832.832031" xlink:href="#DejaVuSans-20"/>
      <use x="864.619141" xlink:href="#DejaVuSans-64"/>
      <use x="928.095703" xlink:href="#DejaVuSans-69"/>
      <use x="955.878906" xlink:href="#DejaVuSans-6d"/>
      <use x="1053.291016" xlink:href="#DejaVuSans-65"/>
      <use x="1114.814453" xlink:href="#DejaVuSans-6e"/>
      <use x="1178.193359" xlink:href="#DejaVuSans-73"/>
      <use x="1230.292969" xlink:href="#DejaVuSans-69"/>
      <use x="1258.076172" xlink:href="#DejaVuSans-6f"/>
      <use x="1319.257812" xlink:href="#DejaVuSans-6e"/>
      <use x="1382.636719" xlink:href="#DejaVuSans-29"/>
     </g>
    </g>
   </g>
   <g id="matplotlib.axis_2">
    <g id="ytick_1">
     <g id="line2d_11">
      <path clip-path="url(#pac48f68f08)" d="M 56.12 294.88 
L 399.984 294.88 
" style="fill:none;stroke:#b0b0b0;stroke-linecap:square;stroke-width:0.8;"/>
     </g>
     <g id="line2d_12">
      <defs>
       <path d="M 0 0 
L -3.5 0 
" id="ma0f4857b6a" style="stroke:#000000;stroke-width:0.8;"/>
      </defs>
      <g>
       <use style="stroke:#000000;stroke-width:0.8;" x="56.12" xlink:href="#ma0f4857b6a" y="294.88"/>
      </g>
     </g>
     <g id="text_7">
      <!-- 0.0 -->
      <defs>
       <path d="M 10.6875 12.40625 
L 21 12.40625 
L 21 0 
L 10.6875 0 
z
" id="DejaVuSans-2e"/>
      </defs>
      <g transform="translate(23.675 300.95875)scale(0.16 -0.16)">
       <use xlink:href="#DejaVuSans-30"/>
       <use x="63.623047" xlink:href="#DejaVuSans-2e"/>
       <use x="95.410156" xlink:href="#DejaVuSans-30"/>
      </g>
     </g>
    </g>
    <g id="ytick_2">
     <g id="line2d_13">
      <path clip-path="url(#pac48f68f08)" d="M 56.12 237.843411 
L 399.984 237.843411 
" style="fill:none;stroke:#b0b0b0;stroke-linecap:square;stroke-width:0.8;"/>
     </g>
     <g id="line2d_14">
      <g>
       <use style="stroke:#000000;stroke-width:0.8;" x="56.12" xlink:href="#ma0f4857b6a" y="237.843411"/>
      </g>
     </g>
     <g id="text_8">
      <!-- 0.2 -->
      <g transform="translate(23.675 243.922161)scale(0.16 -0.16)">
       <use xlink:href="#DejaVuSans-30"/>
       <use x="63.623047" xlink:href="#DejaVuSans-2e"/>
       <use x="95.410156" xlink:href="#DejaVuSans-32"/>
      </g>
     </g>
    </g>
    <g id="ytick_3">
     <g id="line2d_15">
      <path clip-path="url(#pac48f68f08)" d="M 56.12 180.806823 
L 399.984 180.806823 
" style="fill:none;stroke:#b0b0b0;stroke-linecap:square;stroke-width:0.8;"/>
     </g>
     <g id="line2d_16">
      <g>
       <use style="stroke:#000000;stroke-width:0.8;" x="56.12" xlink:href="#ma0f4857b6a" y="180.806823"/>
      </g>
     </g>
     <g id="text_9">
      <!-- 0.4 -->
      <g transform="translate(23.675 186.885573)scale(0.16 -0.16)">
       <use xlink:href="#DejaVuSans-30"/>
       <use x="63.623047" xlink:href="#DejaVuSans-2e"/>
       <use x="95.410156" xlink:href="#DejaVuSans-34"/>
      </g>
     </g>
    </g>
    <g id="ytick_4">
     <g id="line2d_17">
      <path clip-path="url(#pac48f68f08)" d="M 56.12 123.770234 
L 399.984 123.770234 
" style="fill:none;stroke:#b0b0b0;stroke-linecap:square;stroke-width:0.8;"/>
     </g>
     <g id="line2d_18">
      <g>
       <use style="stroke:#000000;stroke-width:0.8;" x="56.12" xlink:href="#ma0f4857b6a" y="123.770234"/>
      </g>
     </g>
     <g id="text_10">
      <!-- 0.6 -->
      <g transform="translate(23.675 129.848984)scale(0.16 -0.16)">
       <use xlink:href="#DejaVuSans-30"/>
       <use x="63.623047" xlink:href="#DejaVuSans-2e"/>
       <use x="95.410156" xlink:href="#DejaVuSans-36"/>
      </g>
     </g>
    </g>
    <g id="ytick_5">
     <g id="line2d_19">
      <path clip-path="url(#pac48f68f08)" d="M 56.12 66.733646 
L 399.984 66.733646 
" style="fill:none;stroke:#b0b0b0;stroke-linecap:square;stroke-width:0.8;"/>
     </g>
     <g id="line2d_20">
      <g>
       <use style="stroke:#000000;stroke-width:0.8;" x="56.12" xlink:href="#ma0f4857b6a" y="66.733646"/>
      </g>
     </g>
     <g id="text_11">
      <!-- 0.8 -->
      <g transform="translate(23.675 72.812396)scale(0.16 -0.16)">
       <use xlink:href="#DejaVuSans-30"/>
       <use x="63.623047" xlink:href="#DejaVuSans-2e"/>
       <use x="95.410156" xlink:href="#DejaVuSans-38"/>
      </g>
     </g>
    </g>
    <g id="ytick_6">
     <g id="line2d_21">
      <path clip-path="url(#pac48f68f08)" d="M 56.12 9.697057 
L 399.984 9.697057 
" style="fill:none;stroke:#b0b0b0;stroke-linecap:square;stroke-width:0.8;"/>
     </g>
     <g id="line2d_22">
      <g>
       <use style="stroke:#000000;stroke-width:0.8;" x="56.12" xlink:href="#ma0f4857b6a" y="9.697057"/>
      </g>
     </g>
     <g id="text_12">
      <!-- 1.0 -->
      <g transform="translate(23.675 15.775807)scale(0.16 -0.16)">
       <use xlink:href="#DejaVuSans-31"/>
       <use x="63.623047" xlink:href="#DejaVuSans-2e"/>
       <use x="95.410156" xlink:href="#DejaVuSans-30"/>
      </g>
     </g>
    </g>
    <g id="text_13">
     <!-- Fraction of function,target pairs -->
     <defs>
      <path d="M 9.8125 72.90625 
L 51.703125 72.90625 
L 51.703125 64.59375 
L 19.671875 64.59375 
L 19.671875 43.109375 
L 48.578125 43.109375 
L 48.578125 34.8125 
L 19.671875 34.8125 
L 19.671875 0 
L 9.8125 0 
z
" id="DejaVuSans-46"/>
      <path d="M 41.109375 46.296875 
Q 39.59375 47.171875 37.8125 47.578125 
Q 36.03125 48 33.890625 48 
Q 26.265625 48 22.1875 43.046875 
Q 18.109375 38.09375 18.109375 28.8125 
L 18.109375 0 
L 9.078125 0 
L 9.078125 54.6875 
L 18.109375 54.6875 
L 18.109375 46.1875 
Q 20.953125 51.171875 25.484375 53.578125 
Q 30.03125 56 36.53125 56 
Q 37.453125 56 38.578125 55.875 
Q 39.703125 55.765625 41.0625 55.515625 
z
" id="DejaVuSans-72"/>
      <path d="M 48.78125 52.59375 
L 48.78125 44.1875 
Q 44.96875 46.296875 41.140625 47.34375 
Q 37.3125 48.390625 33.40625 48.390625 
Q 24.65625 48.390625 19.8125 42.84375 
Q 14.984375 37.3125 14.984375 27.296875 
Q 14.984375 17.28125 19.8125 11.734375 
Q 24.65625 6.203125 33.40625 6.203125 
Q 37.3125 6.203125 41.140625 7.25 
Q 44.96875 8.296875 48.78125 10.40625 
L 48.78125 2.09375 
Q 45.015625 0.34375 40.984375 -0.53125 
Q 36.96875 -1.421875 32.421875 -1.421875 
Q 20.0625 -1.421875 12.78125 6.34375 
Q 5.515625 14.109375 5.515625 27.296875 
Q 5.515625 40.671875 12.859375 48.328125 
Q 20.21875 56 33.015625 56 
Q 37.15625 56 41.109375 55.140625 
Q 45.0625 54.296875 48.78125 52.59375 
z
" id="DejaVuSans-63"/>
      <path d="M 18.3125 70.21875 
L 18.3125 54.6875 
L 36.8125 54.6875 
L 36.8125 47.703125 
L 18.3125 47.703125 
L 18.3125 18.015625 
Q 18.3125 11.328125 20.140625 9.421875 
Q 21.96875 7.515625 27.59375 7.515625 
L 36.8125 7.515625 
L 36.8125 0 
L 27.59375 0 
Q 17.1875 0 13.234375 3.875 
Q 9.28125 7.765625 9.28125 18.015625 
L 9.28125 47.703125 
L 2.6875 47.703125 
L 2.6875 54.6875 
L 9.28125 54.6875 
L 9.28125 70.21875 
z
" id="DejaVuSans-74"/>
      <path d="M 8.5 21.578125 
L 8.5 54.6875 
L 17.484375 54.6875 
L 17.484375 21.921875 
Q 17.484375 14.15625 20.5 10.265625 
Q 23.53125 6.390625 29.59375 6.390625 
Q 36.859375 6.390625 41.078125 11.03125 
Q 45.3125 15.671875 45.3125 23.6875 
L 45.3125 54.6875 
L 54.296875 54.6875 
L 54.296875 0 
L 45.3125 0 
L 45.3125 8.40625 
Q 42.046875 3.421875 37.71875 1 
Q 33.40625 -1.421875 27.6875 -1.421875 
Q 18.265625 -1.421875 13.375 4.4375 
Q 8.5 10.296875 8.5 21.578125 
z
M 31.109375 56 
z
" id="DejaVuSans-75"/>
      <path d="M 11.71875 12.40625 
L 22.015625 12.40625 
L 22.015625 4 
L 14.015625 -11.625 
L 7.71875 -11.625 
L 11.71875 4 
z
" id="DejaVuSans-2c"/>
      <path d="M 18.109375 8.203125 
L 18.109375 -20.796875 
L 9.078125 -20.796875 
L 9.078125 54.6875 
L 18.109375 54.6875 
L 18.109375 46.390625 
Q 20.953125 51.265625 25.265625 53.625 
Q 29.59375 56 35.59375 56 
Q 45.5625 56 51.78125 48.09375 
Q 58.015625 40.1875 58.015625 27.296875 
Q 58.015625 14.40625 51.78125 6.484375 
Q 45.5625 -1.421875 35.59375 -1.421875 
Q 29.59375 -1.421875 25.265625 0.953125 
Q 20.953125 3.328125 18.109375 8.203125 
z
M 48.6875 27.296875 
Q 48.6875 37.203125 44.609375 42.84375 
Q 40.53125 48.484375 33.40625 48.484375 
Q 26.265625 48.484375 22.1875 42.84375 
Q 18.109375 37.203125 18.109375 27.296875 
Q 18.109375 17.390625 22.1875 11.75 
Q 26.265625 6.109375 33.40625 6.109375 
Q 40.53125 6.109375 44.609375 11.75 
Q 48.6875 17.390625 48.6875 27.296875 
z
" id="DejaVuSans-70"/>
     </defs>
     <g transform="translate(16.139531 286.001989)rotate(-90)scale(0.17 -0.17)">
      <use xlink:href="#DejaVuSans-46"/>
      <use x="57.410156" xlink:href="#DejaVuSans-72"/>
      <use x="98.523438" xlink:href="#DejaVuSans-61"/>
      <use x="159.802734" xlink:href="#DejaVuSans-63"/>
      <use x="214.783203" xlink:href="#DejaVuSans-74"/>
      <use x="253.992188" xlink:href="#DejaVuSans-69"/>
      <use x="281.775391" xlink:href="#DejaVuSans-6f"/>
      <use x="342.957031" xlink:href="#DejaVuSans-6e"/>
      <use x="406.335938" xlink:href="#DejaVuSans-20"/>
      <use x="438.123047" xlink:href="#DejaVuSans-6f"/>
      <use x="499.304688" xlink:href="#DejaVuSans-66"/>
      <use x="534.509766" xlink:href="#DejaVuSans-20"/>
      <use x="566.296875" xlink:href="#DejaVuSans-66"/>
      <use x="601.501953" xlink:href="#DejaVuSans-75"/>
      <use x="664.880859" xlink:href="#DejaVuSans-6e"/>
      <use x="728.259766" xlink:href="#DejaVuSans-63"/>
      <use x="783.240234" xlink:href="#DejaVuSans-74"/>
      <use x="822.449219" xlink:href="#DejaVuSans-69"/>
      <use x="850.232422" xlink:href="#DejaVuSans-6f"/>
      <use x="911.414062" xlink:href="#DejaVuSans-6e"/>
      <use x="974.792969" xlink:href="#DejaVuSans-2c"/>
      <use x="1006.580078" xlink:href="#DejaVuSans-74"/>
      <use x="1045.789062" xlink:href="#DejaVuSans-61"/>
      <use x="1107.068359" xlink:href="#DejaVuSans-72"/>
      <use x="1148.166016" xlink:href="#DejaVuSans-67"/>
      <use x="1211.642578" xlink:href="#DejaVuSans-65"/>
      <use x="1273.166016" xlink:href="#DejaVuSans-74"/>
      <use x="1312.375" xlink:href="#DejaVuSans-20"/>
      <use x="1344.162109" xlink:href="#DejaVuSans-70"/>
      <use x="1407.638672" xlink:href="#DejaVuSans-61"/>
      <use x="1468.917969" xlink:href="#DejaVuSans-69"/>
      <use x="1496.701172" xlink:href="#DejaVuSans-72"/>
      <use x="1537.814453" xlink:href="#DejaVuSans-73"/>
     </g>
    </g>
   </g>
   <g id="line2d_23">
    <defs>
     <path d="M 0 1.5 
C 0.397805 1.5 0.77937 1.341951 1.06066 1.06066 
C 1.341951 0.77937 1.5 0.397805 1.5 0 
C 1.5 -0.397805 1.341951 -0.77937 1.06066 -1.06066 
C 0.77937 -1.341951 0.397805 -1.5 0 -1.5 
C -0.397805 -1.5 -0.77937 -1.341951 -1.06066 -1.06066 
C -1.341951 -0.77937 -1.5 -0.397805 -1.5 0 
C -1.5 0.397805 -1.341951 0.77937 -1.06066 1.06066 
C -0.77937 1.341951 -0.397805 1.5 0 1.5 
z
" id="ma2a1e6bbb4" style="stroke:#00bfbf;"/>
    </defs>
    <g>
     <use style="fill:#00bfbf;stroke:#00bfbf;" x="265.560733" xlink:href="#ma2a1e6bbb4" y="49.958178"/>
     <use style="fill:#00bfbf;stroke:#00bfbf;" x="265.560733" xlink:href="#ma2a1e6bbb4" y="49.958178"/>
    </g>
   </g>
   <g id="line2d_24">
    <path d="M 56.12 294.88 
L 56.12 277.769023 
L 68.045504 277.769023 
L 68.045504 273.631075 
L 75.021477 273.631075 
L 75.021477 271.506182 
L 79.971009 271.506182 
L 79.971009 267.703743 
L 83.810164 267.703743 
L 83.810164 265.91436 
L 86.946982 265.91436 
L 86.946982 264.460486 
L 89.599124 264.460486 
L 89.599124 263.006612 
L 91.896513 263.006612 
L 91.896513 262.223757 
L 93.922955 262.223757 
L 93.922955 261.664575 
L 95.735668 261.664575 
L 95.735668 261.440902 
L 97.375467 261.440902 
L 97.375467 260.322538 
L 98.872486 260.322538 
L 98.872486 258.9805 
L 100.24961 258.9805 
L 100.24961 257.973972 
L 101.524628 257.973972 
L 101.524628 256.408262 
L 103.822018 256.408262 
L 103.822018 256.184589 
L 104.865056 256.184589 
L 104.865056 255.737243 
L 105.848459 255.737243 
L 105.848459 255.178061 
L 106.778678 255.178061 
L 106.778678 254.954388 
L 107.661173 254.954388 
L 107.661173 253.612351 
L 109.300972 253.612351 
L 109.300972 253.500514 
L 110.065758 253.500514 
L 110.065758 253.388678 
L 110.797991 253.388678 
L 110.797991 253.165005 
L 112.175115 253.165005 
L 112.175115 252.38215 
L 112.824432 252.38215 
L 112.824432 251.934804 
L 114.053874 251.934804 
L 114.053874 250.704603 
L 114.637146 250.704603 
L 114.637146 250.48093 
L 115.20129 250.48093 
L 115.20129 249.250729 
L 115.747522 249.250729 
L 115.747522 248.803383 
L 117.289287 248.803383 
L 117.289287 248.356038 
L 117.773963 248.356038 
L 117.773963 246.566654 
L 118.704183 246.566654 
L 118.704183 245.783799 
L 120.01151 245.783799 
L 120.01151 245.44829 
L 120.426105 245.44829 
L 120.426105 245.224617 
L 121.226476 245.224617 
L 121.226476 244.777271 
L 121.613118 244.777271 
L 121.613118 244.553598 
L 122.361274 244.553598 
L 122.361274 243.435234 
L 122.723495 243.435234 
L 122.723495 243.211561 
L 123.078247 243.211561 
L 123.078247 243.099724 
L 123.425832 243.099724 
L 123.425832 240.527486 
L 123.766534 240.527486 
L 123.766534 239.968304 
L 124.100619 239.968304 
L 124.100619 239.185449 
L 125.065631 239.185449 
L 125.065631 239.073612 
L 125.680156 239.073612 
L 125.680156 238.961776 
L 125.979378 238.961776 
L 125.979378 238.626267 
L 126.273486 238.626267 
L 126.273486 237.731575 
L 126.56265 237.731575 
L 126.56265 237.619739 
L 127.126794 237.619739 
L 127.126794 237.172393 
L 127.402078 237.172393 
L 127.402078 235.942192 
L 128.202449 235.942192 
L 128.202449 234.711991 
L 128.716065 234.711991 
L 128.716065 234.376482 
L 129.458837 234.376482 
L 129.458837 234.264645 
L 129.699468 234.264645 
L 129.699468 234.152809 
L 130.170864 234.152809 
L 130.170864 233.48179 
L 130.629687 233.48179 
L 130.629687 233.034444 
L 131.295765 233.034444 
L 131.295765 232.587098 
L 131.725909 232.587098 
L 131.725909 232.475262 
L 131.937015 232.475262 
L 131.937015 232.363425 
L 132.145561 232.363425 
L 132.145561 232.027916 
L 132.35161 232.027916 
L 132.35161 231.58057 
L 132.55522 231.58057 
L 132.55522 230.574042 
L 132.756449 230.574042 
L 132.756449 230.350369 
L 132.955351 230.350369 
L 132.955351 229.903024 
L 133.346388 229.903024 
L 133.346388 229.679351 
L 134.102767 229.679351 
L 134.102767 229.567514 
L 134.82729 229.567514 
L 134.82729 228.11364 
L 135.178422 228.11364 
L 135.178422 227.778131 
L 136.026124 227.778131 
L 136.026124 227.666295 
L 136.353845 227.666295 
L 136.353845 227.554458 
L 136.515394 227.554458 
L 136.515394 226.771603 
L 136.675441 226.771603 
L 136.675441 226.54793 
L 136.834012 226.54793 
L 136.834012 225.541402 
L 136.991135 225.541402 
L 136.991135 225.094056 
L 137.60566 225.094056 
L 137.60566 224.646711 
L 137.755922 224.646711 
L 137.755922 224.423038 
L 138.052565 224.423038 
L 138.052565 224.311201 
L 138.19899 224.311201 
L 138.19899 224.199365 
L 138.34418 224.199365 
L 138.34418 222.745491 
L 138.772539 222.745491 
L 138.772539 222.409982 
L 138.912987 222.409982 
L 138.912987 222.186309 
L 139.46359 222.186309 
L 139.46359 221.51529 
L 139.598531 221.51529 
L 139.598531 220.844271 
L 139.732422 220.844271 
L 139.732422 220.173253 
L 139.997117 220.173253 
L 139.997117 219.837743 
L 140.257802 219.837743 
L 140.257802 219.502234 
L 140.386678 219.502234 
L 140.386678 219.166725 
L 140.641569 219.166725 
L 140.641569 218.943052 
L 141.016963 218.943052 
L 141.016963 218.831215 
L 142.327309 218.831215 
L 142.327309 218.719379 
L 142.555192 218.719379 
L 142.555192 218.607542 
L 142.891454 218.607542 
L 143.002096 218.272033 
L 143.112032 218.272033 
L 143.22127 216.14714 
L 143.329818 216.14714 
L 143.329818 215.476122 
L 143.544882 215.476122 
L 143.544882 215.252449 
L 143.75729 215.252449 
L 143.862519 213.686739 
L 144.071065 213.686739 
L 144.174398 211.673683 
L 144.277114 211.673683 
L 144.277114 211.561846 
L 144.581633 211.561846 
L 144.581633 211.45001 
L 144.880856 211.45001 
L 144.979451 210.778991 
L 145.077485 210.778991 
L 145.174963 210.555318 
L 145.368278 210.555318 
L 145.368278 209.54879 
L 145.559445 209.54879 
L 145.559445 209.213281 
L 145.748512 209.213281 
L 145.842271 208.654098 
L 145.935523 208.654098 
L 145.935523 207.759407 
L 146.120523 207.759407 
L 146.120523 207.64757 
L 146.752794 207.64757 
L 146.752794 207.535734 
L 147.103926 207.535734 
L 147.103926 207.423898 
L 147.868713 207.423898 
L 147.951628 206.752879 
L 148.034145 206.752879 
L 148.116269 204.404313 
L 148.198003 204.404313 
L 148.27935 204.180641 
L 148.360314 204.180641 
L 148.440899 203.174112 
L 148.600945 203.174112 
L 148.600945 202.838603 
L 148.759517 202.838603 
L 148.759517 202.503094 
L 149.072341 202.503094 
L 149.149666 202.055748 
L 149.226646 202.055748 
L 149.226646 201.720239 
L 149.455539 201.720239 
L 149.455539 201.608402 
L 149.606459 201.608402 
L 149.681426 200.490038 
L 150.051438 200.490038 
L 150.051438 198.588818 
L 150.269684 198.588818 
L 150.269684 198.365145 
L 150.556439 198.365145 
L 150.627387 197.917799 
L 150.698043 197.917799 
L 150.698043 197.470454 
L 150.838492 197.470454 
L 150.908289 197.134944 
L 150.977803 197.134944 
L 151.047038 196.575762 
L 151.184678 196.575762 
L 151.184678 196.352089 
L 151.724483 196.352089 
L 151.790783 195.010052 
L 151.988164 195.010052 
L 152.053458 193.332505 
L 152.247865 193.332505 
L 152.312182 192.773323 
L 152.503704 192.773323 
L 152.503704 192.437813 
L 152.880468 192.437813 
L 152.880468 192.214141 
L 153.249158 192.214141 
L 153.249158 191.990468 
L 153.490634 191.990468 
L 153.490634 191.766795 
L 153.787789 191.766795 
L 153.846609 191.319449 
L 153.905229 191.319449 
L 153.905229 191.207613 
L 154.137731 191.207613 
L 154.137731 190.872103 
L 154.593515 190.872103 
L 154.593515 190.760267 
L 154.872368 190.760267 
L 154.982656 189.753739 
L 155.037536 189.753739 
L 155.092242 188.523538 
L 155.309341 188.523538 
L 155.36319 187.964356 
L 155.470386 187.964356 
L 155.523735 187.1815 
L 155.682795 187.1815 
L 155.788023 186.845991 
L 155.94467 186.845991 
L 156.048314 185.951299 
L 156.151337 185.951299 
L 156.202619 185.61579 
L 156.607458 185.61579 
L 156.607458 185.280281 
L 157.149 185.280281 
L 157.197397 184.944771 
L 157.532411 184.944771 
L 157.626944 183.267225 
L 157.72096 183.267225 
L 157.814465 182.708042 
L 157.861027 182.708042 
L 157.861027 182.372533 
L 157.999964 182.372533 
L 158.091969 181.813351 
L 158.183484 181.813351 
L 158.274515 181.254169 
L 158.410165 181.254169 
L 158.410165 180.58315 
L 159.029431 180.58315 
L 159.116105 180.247641 
L 159.245304 180.247641 
L 159.245304 179.912131 
L 159.627178 179.912131 
L 159.627178 179.800295 
L 159.835725 179.800295 
L 159.918441 178.458257 
L 159.95965 178.458257 
L 160.041774 177.563566 
L 160.082689 177.563566 
L 160.164229 177.228057 
L 160.204854 177.228057 
L 160.204854 176.780711 
L 160.52645 176.780711 
L 160.52645 176.668874 
L 160.645515 176.668874 
L 160.645515 176.445201 
L 160.842144 176.445201 
L 160.842144 176.333365 
L 161.036551 176.333365 
L 161.036551 176.109692 
L 161.418898 176.109692 
L 161.418898 175.774183 
L 161.569488 175.774183 
L 161.569488 175.438673 
L 161.681572 175.438673 
L 161.681572 175.326837 
L 161.866772 175.326837 
L 161.903574 173.64929 
L 162.049999 173.64929 
L 162.086411 173.313781 
L 162.195189 173.313781 
L 162.231295 172.978271 
L 162.481943 172.978271 
L 162.481943 172.866435 
L 163.550055 172.866435 
L 163.550055 172.08358 
L 163.683169 172.08358 
L 163.782333 171.636234 
L 163.848126 171.636234 
L 163.848126 171.412561 
L 164.044009 171.412561 
L 164.14112 171.077052 
L 164.837 171.077052 
L 164.898888 170.406033 
L 164.991305 170.406033 
L 165.083228 169.846851 
L 165.205033 169.846851 
L 165.23535 169.063996 
L 165.325981 169.063996 
L 165.325981 168.952159 
L 165.446086 168.952159 
L 165.505825 168.728486 
L 165.565357 168.728486 
L 165.595046 168.281141 
L 165.801448 168.281141 
L 165.801448 168.169304 
L 165.91829 168.169304 
L 166.005403 167.833795 
L 166.063235 167.833795 
L 166.120873 167.386449 
L 166.880655 167.386449 
L 166.990415 166.939103 
L 167.017746 166.939103 
L 167.017746 166.827267 
L 168.255662 166.827267 
L 168.331733 166.603594 
L 168.382262 166.603594 
L 168.382262 166.379921 
L 168.731864 166.379921 
L 168.731864 166.044412 
L 169.505247 166.044412 
L 169.599521 165.485229 
L 169.623008 165.485229 
L 169.623008 165.373393 
L 170.425513 165.373393 
L 170.514889 164.926047 
L 170.911433 164.926047 
L 170.911433 164.590538 
L 171.192247 164.590538 
L 171.192247 164.478701 
L 171.405181 164.478701 
L 171.405181 164.255029 
L 171.946784 164.255029 
L 171.946784 164.143192 
L 172.551232 164.143192 
L 172.551232 163.919519 
L 172.884556 163.919519 
L 172.884556 163.807683 
L 173.039208 163.807683 
L 173.039208 163.695846 
L 173.382173 163.695846 
L 173.382173 163.58401 
L 173.810687 163.58401 
L 173.810687 163.472173 
L 174.210818 163.472173 
L 174.264668 163.024828 
L 174.846147 163.024828 
L 174.93256 162.577482 
L 175.189227 162.577482 
L 175.189227 162.465645 
L 175.69135 162.465645 
L 175.69135 162.353809 
L 175.806433 162.353809 
L 175.806433 162.241972 
L 176.622437 162.241972 
L 176.700393 161.906463 
L 176.978146 161.906463 
L 176.978146 161.794627 
L 177.281591 161.794627 
L 177.341643 161.123608 
L 177.416414 161.123608 
L 177.416414 161.011772 
L 177.535376 161.011772 
L 177.535376 160.676262 
L 177.800072 160.676262 
L 177.800072 160.452589 
L 178.246602 160.452589 
L 178.246602 160.340753 
L 178.500658 160.340753 
L 178.500658 160.228916 
L 178.819918 160.228916 
L 178.819918 159.893407 
L 179.467707 159.893407 
L 179.467707 159.781571 
L 179.899323 159.781571 
L 179.950912 159.557898 
L 180.244582 159.557898 
L 180.244582 159.446061 
L 180.445958 159.446061 
L 180.445958 159.334225 
L 181.060483 159.334225 
L 181.060483 159.110552 
L 203.417765 159.110552 
L 203.519521 157.656678 
L 203.532607 157.656678 
L 203.636939 153.854239 
L 203.662923 153.854239 
L 203.772921 150.946491 
L 203.789038 150.946491 
L 203.840511 149.157108 
L 203.904636 149.157108 
L 204.013104 144.795487 
L 204.054397 144.795487 
L 204.152467 140.545702 
L 204.171384 140.545702 
L 204.268791 136.966935 
L 204.321974 136.966935 
L 204.427851 135.624898 
L 204.434059 135.624898 
L 204.520733 134.171024 
L 204.5485 134.171024 
L 204.652996 131.15144 
L 204.671371 131.15144 
L 204.781209 128.802874 
L 204.790331 128.802874 
L 204.899414 127.349001 
L 204.902435 127.349001 
L 204.9958 125.895127 
L 205.031806 125.895127 
L 205.076708 125.224108 
L 205.151285 125.224108 
L 205.237391 123.322888 
L 205.266983 123.322888 
L 205.370157 122.875543 
L 205.378972 122.875543 
L 205.422978 122.204524 
L 205.510653 122.204524 
L 205.525223 121.980851 
L 205.670241 121.980851 
L 205.733664 121.421669 
L 205.785382 121.421669 
L 205.805452 121.197996 
L 205.96518 121.197996 
L 205.973696 120.974323 
L 206.109368 120.974323 
L 206.188019 120.526977 
L 206.246772 120.526977 
L 206.308109 120.303304 
L 206.358131 120.303304 
L 206.468773 119.967795 
L 206.545802 119.967795 
L 206.567747 119.632286 
L 206.704273 119.632286 
L 206.717866 119.296776 
L 206.820824 119.296776 
L 206.866686 118.625758 
L 206.976793 118.625758 
L 206.976793 118.513921 
L 207.107467 118.513921 
L 207.115435 118.290248 
L 207.234519 118.290248 
L 207.331819 117.61923 
L 207.37634 117.61923 
L 207.37634 117.395557 
L 207.766818 117.395557 
L 207.78726 116.948211 
L 208.008018 116.948211 
L 208.008018 116.836375 
L 215.351498 116.836375 
L 215.461382 115.606174 
L 215.464651 115.606174 
L 215.562443 112.922099 
L 215.594917 112.922099 
L 215.704874 109.343332 
L 215.712931 109.343332 
L 215.806122 107.106604 
L 215.844536 107.106604 
L 215.949736 105.764566 
L 215.970381 105.764566 
L 216.046397 103.75151 
L 216.084279 103.75151 
L 216.178622 102.633146 
L 216.195862 102.633146 
L 216.26933 101.626618 
L 216.323838 101.626618 
L 216.42461 100.955599 
L 216.449325 100.955599 
L 216.560106 100.28458 
L 216.593814 100.28458 
L 216.668655 99.949071 
L 216.743171 99.949071 
L 216.814344 99.166216 
L 216.892746 99.166216 
L 216.987258 98.607033 
L 217.057431 98.607033 
L 217.140668 97.712342 
L 217.179178 97.712342 
L 217.289782 97.041323 
L 217.4347 97.041323 
L 217.466739 96.705814 
L 217.653412 96.705814 
L 217.653412 96.593977 
L 218.907651 96.593977 
L 218.907651 96.482141 
L 220.993163 96.482141 
L 220.993163 96.370304 
L 222.323632 96.370304 
L 222.422089 94.692758 
L 222.446071 94.692758 
L 222.50588 93.238884 
L 222.560072 93.238884 
L 222.670098 90.666646 
L 222.679772 90.666646 
L 222.790105 89.660118 
L 222.797577 89.660118 
L 222.888059 87.982571 
L 222.92306 87.982571 
L 223.004452 86.976043 
L 223.049738 86.976043 
L 223.091757 86.640533 
L 223.185927 86.640533 
L 223.270242 85.857678 
L 223.302402 85.857678 
L 223.366541 85.522169 
L 223.424269 85.522169 
L 223.531989 85.074823 
L 223.537101 85.074823 
L 223.545279 84.739314 
L 223.719144 84.739314 
L 223.738354 84.403805 
L 223.845136 84.403805 
L 223.848148 84.180132 
L 227.291804 84.180132 
L 227.399143 82.167076 
L 227.408126 82.167076 
L 227.509063 79.706674 
L 227.522044 79.706674 
L 227.62796 78.476473 
L 227.639241 78.476473 
L 227.742038 77.246272 
L 227.772439 77.246272 
L 227.87524 76.575253 
L 227.889536 76.575253 
L 227.929184 76.35158 
L 228.028694 76.35158 
L 228.104126 75.904234 
L 228.152668 75.904234 
L 228.195615 75.233216 
L 228.302902 75.233216 
L 228.361704 74.674034 
L 228.427232 74.674034 
L 228.427232 74.562197 
L 231.137533 74.562197 
L 231.247607 73.22016 
L 231.251525 73.22016 
L 231.344646 71.878122 
L 231.41529 71.878122 
L 231.518464 70.647921 
L 231.617188 70.647921 
L 231.683539 70.312412 
L 231.852722 70.312412 
L 231.939517 69.529557 
L 232.126705 69.529557 
L 232.126705 69.41772 
L 234.268873 69.41772 
L 234.369942 67.180992 
L 234.415637 67.180992 
L 234.501261 66.509973 
L 234.529887 66.509973 
L 234.639094 65.727118 
L 234.657853 65.727118 
L 234.725216 65.503445 
L 234.788596 65.503445 
L 234.876619 64.944263 
L 234.979974 64.944263 
L 235.023031 64.608753 
L 236.9171 64.608753 
L 237.015468 63.490389 
L 237.041138 63.490389 
L 237.088178 62.595697 
L 237.187425 62.595697 
L 237.187425 62.483861 
L 237.323305 62.483861 
L 237.412539 62.036515 
L 237.439446 62.036515 
L 237.518558 61.589169 
L 237.593243 61.589169 
L 237.593243 61.477333 
L 239.239897 61.477333 
L 239.350766 59.687949 
L 239.377252 59.687949 
L 239.450792 59.128767 
L 239.531284 59.128767 
L 239.638292 58.681421 
L 239.689148 58.681421 
L 239.689148 58.569585 
L 241.235711 58.569585 
L 241.343917 57.227548 
L 241.465156 57.227548 
L 241.556156 56.780202 
L 241.57695 56.780202 
L 241.654526 56.22102 
L 241.705457 56.22102 
L 241.705457 56.109183 
L 243.069281 56.109183 
L 243.150564 55.326328 
L 243.303888 55.326328 
L 243.40825 54.878982 
L 243.452645 54.878982 
L 243.452645 54.767146 
L 244.705525 54.767146 
L 244.78183 54.207964 
L 244.858094 54.207964 
L 244.947576 53.872454 
L 246.231323 53.872454 
L 246.231323 53.760618 
L 246.421629 53.760618 
L 246.479121 53.313272 
L 246.578536 53.313272 
L 246.578536 53.201435 
L 247.603504 53.201435 
L 247.603504 52.865926 
L 247.728501 52.865926 
L 247.728501 52.75409 
L 248.89303 52.75409 
L 248.905204 52.530417 
L 250.032217 52.530417 
L 250.082119 51.971235 
L 250.23378 51.971235 
L 250.263001 51.747562 
L 252.201703 51.747562 
L 252.247435 51.412052 
L 253.351668 51.412052 
L 253.354017 51.188379 
L 254.111928 51.188379 
L 254.111928 51.076543 
L 255.012681 51.076543 
L 255.012681 50.964707 
L 255.829222 50.964707 
L 255.829222 50.85287 
L 257.377259 50.85287 
L 257.391413 50.629197 
L 258.824279 50.629197 
L 258.824279 50.517361 
L 260.147541 50.517361 
L 260.147541 50.405524 
L 260.770223 50.405524 
L 260.770223 50.293688 
L 261.957393 50.293688 
L 261.957393 50.181851 
L 264.604258 50.181851 
L 264.604258 50.070015 
L 265.560733 50.070015 
L 265.560733 49.958178 
L 333.429677 49.958178 
L 333.429677 49.958178 
" style="fill:none;stroke:#00bfbf;stroke-linecap:square;stroke-width:1.5;"/>
   </g>
   <g id="line2d_25">
    <defs>
     <path d="M -6 0 
L 6 0 
M 0 6 
L 0 -6 
" id="mbfc63922e3" style="stroke:#00bfbf;stroke-width:1.5;"/>
    </defs>
    <g>
     <use style="fill-opacity:0;stroke:#00bfbf;stroke-width:1.5;" x="123.425832" xlink:href="#mbfc63922e3" y="243.099724"/>
     <use style="fill-opacity:0;stroke:#00bfbf;stroke-width:1.5;" x="181.060483" xlink:href="#mbfc63922e3" y="159.334225"/>
     <use style="fill-opacity:0;stroke:#00bfbf;stroke-width:1.5;" x="253.354017" xlink:href="#mbfc63922e3" y="51.300216"/>
     <use style="fill-opacity:0;stroke:#00bfbf;stroke-width:1.5;" x="265.560733" xlink:href="#mbfc63922e3" y="49.958178"/>
     <use style="fill-opacity:0;stroke:#00bfbf;stroke-width:1.5;" x="333.429677" xlink:href="#mbfc63922e3" y="49.958178"/>
    </g>
   </g>
   <g id="line2d_26">
    <path style="fill:none;stroke:#00bfbf;stroke-linecap:square;stroke-width:1.5;"/>
    <g/>
   </g>
   <g id="line2d_27">
    <path clip-path="url(#pac48f68f08)" d="M 203.414473 159.110552 
" style="fill:none;stroke:#00bfbf;stroke-linecap:square;stroke-width:1.5;"/>
    <defs>
     <path d="M -12 12 
L 12 -12 
M -12 -12 
L 12 12 
" id="m4fba8b7354" style="stroke:#00bfbf;stroke-width:3;"/>
    </defs>
    <g clip-path="url(#pac48f68f08)">
     <use style="fill:#00bfbf;stroke:#00bfbf;stroke-width:3;" x="203.414473" xlink:href="#m4fba8b7354" y="159.110552"/>
    </g>
   </g>
   <g id="line2d_28">
    <path d="M 333.429677 49.958178 
L 363.933742 289.176341 
" style="fill:none;stroke:#00bfbf;stroke-linecap:square;stroke-width:1.5;"/>
    <g>
     <use style="fill-opacity:0;stroke:#00bfbf;stroke-width:1.5;" x="333.429677" xlink:href="#mbfc63922e3" y="49.958178"/>
     <use style="fill-opacity:0;stroke:#00bfbf;stroke-width:1.5;" x="363.933742" xlink:href="#mbfc63922e3" y="289.176341"/>
    </g>
   </g>
   <g id="line2d_29">
    <path d="M 333.429677 294.88 
L 333.429677 9.697057 
" style="fill:none;stroke:#000000;stroke-linecap:square;stroke-width:1.5;"/>
   </g>
   <g id="patch_3">
    <path d="M 56.12 294.88 
L 56.12 6.845228 
" style="fill:none;stroke:#000000;stroke-linecap:square;stroke-linejoin:miter;stroke-width:0.8;"/>
   </g>
   <g id="patch_4">
    <path d="M 399.984 294.88 
L 399.984 6.845228 
" style="fill:none;stroke:#000000;stroke-linecap:square;stroke-linejoin:miter;stroke-width:0.8;"/>
   </g>
   <g id="patch_5">
    <path d="M 56.12 294.88 
L 399.984 294.88 
" style="fill:none;stroke:#000000;stroke-linecap:square;stroke-linejoin:miter;stroke-width:0.8;"/>
   </g>
   <g id="patch_6">
    <path d="M 56.12 6.845228 
L 399.984 6.845228 
" style="fill:none;stroke:#000000;stroke-linecap:square;stroke-linejoin:miter;stroke-width:0.8;"/>
   </g>
   <g id="text_14">
    <!-- 2-D -->
    <defs>
     <path d="M 19.671875 64.796875 
L 19.671875 8.109375 
L 31.59375 8.109375 
Q 46.6875 8.109375 53.6875 14.9375 
Q 60.6875 21.78125 60.6875 36.53125 
Q 60.6875 51.171875 53.6875 57.984375 
Q 46.6875 64.796875 31.59375 64.796875 
z
M 9.8125 72.90625 
L 30.078125 72.90625 
Q 51.265625 72.90625 61.171875 64.09375 
Q 71.09375 55.28125 71.09375 36.53125 
Q 71.09375 17.671875 61.125 8.828125 
Q 51.171875 0 30.078125 0 
L 9.8125 0 
z
" id="DejaVuSans-44"/>
    </defs>
    <g transform="translate(369.479935 293.867279)scale(0.17 -0.17)">
     <use xlink:href="#DejaVuSans-32"/>
     <use x="63.623047" xlink:href="#DejaVuSans-2d"/>
     <use x="99.707031" xlink:href="#DejaVuSans-44"/>
    </g>
   </g>
   <g id="text_15">
    <!-- bbob f20-f24 -->
    <defs>
     <path d="M 48.6875 27.296875 
Q 48.6875 37.203125 44.609375 42.84375 
Q 40.53125 48.484375 33.40625 48.484375 
Q 26.265625 48.484375 22.1875 42.84375 
Q 18.109375 37.203125 18.109375 27.296875 
Q 18.109375 17.390625 22.1875 11.75 
Q 26.265625 6.109375 33.40625 6.109375 
Q 40.53125 6.109375 44.609375 11.75 
Q 48.6875 17.390625 48.6875 27.296875 
z
M 18.109375 46.390625 
Q 20.953125 51.265625 25.265625 53.625 
Q 29.59375 56 35.59375 56 
Q 45.5625 56 51.78125 48.09375 
Q 58.015625 40.1875 58.015625 27.296875 
Q 58.015625 14.40625 51.78125 6.484375 
Q 45.5625 -1.421875 35.59375 -1.421875 
Q 29.59375 -1.421875 25.265625 0.953125 
Q 20.953125 3.328125 18.109375 8.203125 
L 18.109375 0 
L 9.078125 0 
L 9.078125 75.984375 
L 18.109375 75.984375 
z
" id="DejaVuSans-62"/>
    </defs>
    <g transform="translate(59.55864 17.475982)scale(0.102 -0.102)">
     <use xlink:href="#DejaVuSans-62"/>
     <use x="63.476562" xlink:href="#DejaVuSans-62"/>
     <use x="126.953125" xlink:href="#DejaVuSans-6f"/>
     <use x="188.134766" xlink:href="#DejaVuSans-62"/>
     <use x="251.611328" xlink:href="#DejaVuSans-20"/>
     <use x="283.398438" xlink:href="#DejaVuSans-66"/>
     <use x="318.603516" xlink:href="#DejaVuSans-32"/>
     <use x="382.226562" xlink:href="#DejaVuSans-30"/>
     <use x="445.849609" xlink:href="#DejaVuSans-2d"/>
     <use x="481.933594" xlink:href="#DejaVuSans-66"/>
     <use x="517.138672" xlink:href="#DejaVuSans-32"/>
     <use x="580.761719" xlink:href="#DejaVuSans-34"/>
    </g>
    <!-- 51 targets: 100..1e-08 -->
    <defs>
     <path d="M 10.796875 72.90625 
L 49.515625 72.90625 
L 49.515625 64.59375 
L 19.828125 64.59375 
L 19.828125 46.734375 
Q 21.96875 47.46875 24.109375 47.828125 
Q 26.265625 48.1875 28.421875 48.1875 
Q 40.625 48.1875 47.75 41.5 
Q 54.890625 34.8125 54.890625 23.390625 
Q 54.890625 11.625 47.5625 5.09375 
Q 40.234375 -1.421875 26.90625 -1.421875 
Q 22.3125 -1.421875 17.546875 -0.640625 
Q 12.796875 0.140625 7.71875 1.703125 
L 7.71875 11.625 
Q 12.109375 9.234375 16.796875 8.0625 
Q 21.484375 6.890625 26.703125 6.890625 
Q 35.15625 6.890625 40.078125 11.328125 
Q 45.015625 15.765625 45.015625 23.390625 
Q 45.015625 31 40.078125 35.4375 
Q 35.15625 39.890625 26.703125 39.890625 
Q 22.75 39.890625 18.8125 39.015625 
Q 14.890625 38.140625 10.796875 36.28125 
z
" id="DejaVuSans-35"/>
     <path d="M 11.71875 12.40625 
L 22.015625 12.40625 
L 22.015625 0 
L 11.71875 0 
z
M 11.71875 51.703125 
L 22.015625 51.703125 
L 22.015625 39.3125 
L 11.71875 39.3125 
z
" id="DejaVuSans-3a"/>
    </defs>
    <g transform="translate(59.55864 28.89775)scale(0.102 -0.102)">
     <use xlink:href="#DejaVuSans-35"/>
     <use x="63.623047" xlink:href="#DejaVuSans-31"/>
     <use x="127.246094" xlink:href="#DejaVuSans-20"/>
     <use x="159.033203" xlink:href="#DejaVuSans-74"/>
     <use x="198.242188" xlink:href="#DejaVuSans-61"/>
     <use x="259.521484" xlink:href="#DejaVuSans-72"/>
     <use x="300.619141" xlink:href="#DejaVuSans-67"/>
     <use x="364.095703" xlink:href="#DejaVuSans-65"/>
     <use x="425.619141" xlink:href="#DejaVuSans-74"/>
     <use x="464.828125" xlink:href="#DejaVuSans-73"/>
     <use x="516.927734" xlink:href="#DejaVuSans-3a"/>
     <use x="550.619141" xlink:href="#DejaVuSans-20"/>
     <use x="582.40625" xlink:href="#DejaVuSans-31"/>
     <use x="646.029297" xlink:href="#DejaVuSans-30"/>
     <use x="709.652344" xlink:href="#DejaVuSans-30"/>
     <use x="773.275391" xlink:href="#DejaVuSans-2e"/>
     <use x="805.0625" xlink:href="#DejaVuSans-2e"/>
     <use x="836.849609" xlink:href="#DejaVuSans-31"/>
     <use x="900.472656" xlink:href="#DejaVuSans-65"/>
     <use x="961.996094" xlink:href="#DejaVuSans-2d"/>
     <use x="998.080078" xlink:href="#DejaVuSans-30"/>
     <use x="1061.703125" xlink:href="#DejaVuSans-38"/>
    </g>
    <!-- 15 instances -->
    <g transform="translate(59.55864 40.319519)scale(0.102 -0.102)">
     <use xlink:href="#DejaVuSans-31"/>
     <use x="63.623047" xlink:href="#DejaVuSans-35"/>
     <use x="127.246094" xlink:href="#DejaVuSans-20"/>
     <use x="159.033203" xlink:href="#DejaVuSans-69"/>
     <use x="186.816406" xlink:href="#DejaVuSans-6e"/>
     <use x="250.195312" xlink:href="#DejaVuSans-73"/>
     <use x="302.294922" xlink:href="#DejaVuSans-74"/>
     <use x="341.503906" xlink:href="#DejaVuSans-61"/>
     <use x="402.783203" xlink:href="#DejaVuSans-6e"/>
     <use x="466.162109" xlink:href="#DejaVuSans-63"/>
     <use x="521.142578" xlink:href="#DejaVuSans-65"/>
     <use x="582.666016" xlink:href="#DejaVuSans-73"/>
    </g>
   </g>
   <g id="text_16">
    <!-- v2.2.1.10 -->
    <g style="fill:#808080;" transform="translate(204.419188 289.919965)scale(0.1 -0.1)">
     <use xlink:href="#DejaVuSans-76"/>
     <use x="59.179688" xlink:href="#DejaVuSans-32"/>
     <use x="122.802734" xlink:href="#DejaVuSans-2e"/>
     <use x="154.589844" xlink:href="#DejaVuSans-32"/>
     <use x="218.212891" xlink:href="#DejaVuSans-2e"/>
     <use x="250" xlink:href="#DejaVuSans-31"/>
     <use x="313.623047" xlink:href="#DejaVuSans-2e"/>
     <use x="345.410156" xlink:href="#DejaVuSans-31"/>
     <use x="409.033203" xlink:href="#DejaVuSans-30"/>
    </g>
   </g>
  </g>
 </g>
 <defs>
  <clipPath id="pac48f68f08">
   <rect height="288.034772" width="343.864" x="56.12" y="6.845228"/>
  </clipPath>
 </defs>
</svg>
