<?xml version="1.0" encoding="utf-8" standalone="no"?>
<!DOCTYPE svg PUBLIC "-//W3C//DTD SVG 1.1//EN"
  "http://www.w3.org/Graphics/SVG/1.1/DTD/svg11.dtd">
<!-- Created with matplotlib (http://matplotlib.org/) -->
<svg height="345.6pt" version="1.1" viewBox="0 0 460.8 345.6" width="460.8pt" xmlns="http://www.w3.org/2000/svg" xmlns:xlink="http://www.w3.org/1999/xlink">
 <defs>
  <style type="text/css">
*{stroke-linecap:butt;stroke-linejoin:round;}
  </style>
 </defs>
 <g id="figure_1">
  <g id="patch_1">
   <path d="M 0 345.6 
L 460.8 345.6 
L 460.8 0 
L 0 0 
z
" style="fill:#ffffff;"/>
  </g>
  <g id="axes_1">
   <g id="patch_2">
    <path d="M 56.12 294.88 
L 399.984 294.88 
L 399.984 6.845228 
L 56.12 6.845228 
z
" style="fill:#ffffff;"/>
   </g>
   <g id="matplotlib.axis_1">
    <g id="xtick_1">
     <g id="line2d_1">
      <path clip-path="url(#pb99d4dcce9)" d="M 56.12 294.88 
L 56.12 6.845228 
" style="fill:none;stroke:#b0b0b0;stroke-linecap:square;stroke-width:0.8;"/>
     </g>
     <g id="line2d_2">
      <defs>
       <path d="M 0 0 
L 0 3.5 
" id="m46fedc0c28" style="stroke:#000000;stroke-width:0.8;"/>
      </defs>
      <g>
       <use style="stroke:#000000;stroke-width:0.8;" x="56.12" xlink:href="#m46fedc0c28" y="294.88"/>
      </g>
     </g>
     <g id="text_1">
      <!-- 0 -->
      <defs>
       <path d="M 31.78125 66.40625 
Q 24.171875 66.40625 20.328125 58.90625 
Q 16.5 51.421875 16.5 36.375 
Q 16.5 21.390625 20.328125 13.890625 
Q 24.171875 6.390625 31.78125 6.390625 
Q 39.453125 6.390625 43.28125 13.890625 
Q 47.125 21.390625 47.125 36.375 
Q 47.125 51.421875 43.28125 58.90625 
Q 39.453125 66.40625 31.78125 66.40625 
z
M 31.78125 74.21875 
Q 44.046875 74.21875 50.515625 64.515625 
Q 56.984375 54.828125 56.984375 36.375 
Q 56.984375 17.96875 50.515625 8.265625 
Q 44.046875 -1.421875 31.78125 -1.421875 
Q 19.53125 -1.421875 13.0625 8.265625 
Q 6.59375 17.96875 6.59375 36.375 
Q 6.59375 54.828125 13.0625 64.515625 
Q 19.53125 74.21875 31.78125 74.21875 
z
" id="DejaVuSans-30"/>
      </defs>
      <g transform="translate(49.7575 317.076875)scale(0.2 -0.2)">
       <use xlink:href="#DejaVuSans-30"/>
      </g>
     </g>
    </g>
    <g id="xtick_2">
     <g id="line2d_3">
      <path clip-path="url(#pb99d4dcce9)" d="M 135.351336 294.88 
L 135.351336 6.845228 
" style="fill:none;stroke:#b0b0b0;stroke-linecap:square;stroke-width:0.8;"/>
     </g>
     <g id="line2d_4">
      <g>
       <use style="stroke:#000000;stroke-width:0.8;" x="135.351336" xlink:href="#m46fedc0c28" y="294.88"/>
      </g>
     </g>
     <g id="text_2">
      <!-- 2 -->
      <defs>
       <path d="M 19.1875 8.296875 
L 53.609375 8.296875 
L 53.609375 0 
L 7.328125 0 
L 7.328125 8.296875 
Q 12.9375 14.109375 22.625 23.890625 
Q 32.328125 33.6875 34.8125 36.53125 
Q 39.546875 41.84375 41.421875 45.53125 
Q 43.3125 49.21875 43.3125 52.78125 
Q 43.3125 58.59375 39.234375 62.25 
Q 35.15625 65.921875 28.609375 65.921875 
Q 23.96875 65.921875 18.8125 64.3125 
Q 13.671875 62.703125 7.8125 59.421875 
L 7.8125 69.390625 
Q 13.765625 71.78125 18.9375 73 
Q 24.125 74.21875 28.421875 74.21875 
Q 39.75 74.21875 46.484375 68.546875 
Q 53.21875 62.890625 53.21875 53.421875 
Q 53.21875 48.921875 51.53125 44.890625 
Q 49.859375 40.875 45.40625 35.40625 
Q 44.1875 33.984375 37.640625 27.21875 
Q 31.109375 20.453125 19.1875 8.296875 
z
" id="DejaVuSans-32"/>
      </defs>
      <g transform="translate(128.988836 317.076875)scale(0.2 -0.2)">
       <use xlink:href="#DejaVuSans-32"/>
      </g>
     </g>
    </g>
    <g id="xtick_3">
     <g id="line2d_5">
      <path clip-path="url(#pb99d4dcce9)" d="M 214.582673 294.88 
L 214.582673 6.845228 
" style="fill:none;stroke:#b0b0b0;stroke-linecap:square;stroke-width:0.8;"/>
     </g>
     <g id="line2d_6">
      <g>
       <use style="stroke:#000000;stroke-width:0.8;" x="214.582673" xlink:href="#m46fedc0c28" y="294.88"/>
      </g>
     </g>
     <g id="text_3">
      <!-- 4 -->
      <defs>
       <path d="M 37.796875 64.3125 
L 12.890625 25.390625 
L 37.796875 25.390625 
z
M 35.203125 72.90625 
L 47.609375 72.90625 
L 47.609375 25.390625 
L 58.015625 25.390625 
L 58.015625 17.1875 
L 47.609375 17.1875 
L 47.609375 0 
L 37.796875 0 
L 37.796875 17.1875 
L 4.890625 17.1875 
L 4.890625 26.703125 
z
" id="DejaVuSans-34"/>
      </defs>
      <g transform="translate(208.220173 317.076875)scale(0.2 -0.2)">
       <use xlink:href="#DejaVuSans-34"/>
      </g>
     </g>
    </g>
    <g id="xtick_4">
     <g id="line2d_7">
      <path clip-path="url(#pb99d4dcce9)" d="M 293.814009 294.88 
L 293.814009 6.845228 
" style="fill:none;stroke:#b0b0b0;stroke-linecap:square;stroke-width:0.8;"/>
     </g>
     <g id="line2d_8">
      <g>
       <use style="stroke:#000000;stroke-width:0.8;" x="293.814009" xlink:href="#m46fedc0c28" y="294.88"/>
      </g>
     </g>
     <g id="text_4">
      <!-- 6 -->
      <defs>
       <path d="M 33.015625 40.375 
Q 26.375 40.375 22.484375 35.828125 
Q 18.609375 31.296875 18.609375 23.390625 
Q 18.609375 15.53125 22.484375 10.953125 
Q 26.375 6.390625 33.015625 6.390625 
Q 39.65625 6.390625 43.53125 10.953125 
Q 47.40625 15.53125 47.40625 23.390625 
Q 47.40625 31.296875 43.53125 35.828125 
Q 39.65625 40.375 33.015625 40.375 
z
M 52.59375 71.296875 
L 52.59375 62.3125 
Q 48.875 64.0625 45.09375 64.984375 
Q 41.3125 65.921875 37.59375 65.921875 
Q 27.828125 65.921875 22.671875 59.328125 
Q 17.53125 52.734375 16.796875 39.40625 
Q 19.671875 43.65625 24.015625 45.921875 
Q 28.375 48.1875 33.59375 48.1875 
Q 44.578125 48.1875 50.953125 41.515625 
Q 57.328125 34.859375 57.328125 23.390625 
Q 57.328125 12.15625 50.6875 5.359375 
Q 44.046875 -1.421875 33.015625 -1.421875 
Q 20.359375 -1.421875 13.671875 8.265625 
Q 6.984375 17.96875 6.984375 36.375 
Q 6.984375 53.65625 15.1875 63.9375 
Q 23.390625 74.21875 37.203125 74.21875 
Q 40.921875 74.21875 44.703125 73.484375 
Q 48.484375 72.75 52.59375 71.296875 
z
" id="DejaVuSans-36"/>
      </defs>
      <g transform="translate(287.451509 317.076875)scale(0.2 -0.2)">
       <use xlink:href="#DejaVuSans-36"/>
      </g>
     </g>
    </g>
    <g id="xtick_5">
     <g id="line2d_9">
      <path clip-path="url(#pb99d4dcce9)" d="M 373.045346 294.88 
L 373.045346 6.845228 
" style="fill:none;stroke:#b0b0b0;stroke-linecap:square;stroke-width:0.8;"/>
     </g>
     <g id="line2d_10">
      <g>
       <use style="stroke:#000000;stroke-width:0.8;" x="373.045346" xlink:href="#m46fedc0c28" y="294.88"/>
      </g>
     </g>
     <g id="text_5">
      <!-- 8 -->
      <defs>
       <path d="M 31.78125 34.625 
Q 24.75 34.625 20.71875 30.859375 
Q 16.703125 27.09375 16.703125 20.515625 
Q 16.703125 13.921875 20.71875 10.15625 
Q 24.75 6.390625 31.78125 6.390625 
Q 38.8125 6.390625 42.859375 10.171875 
Q 46.921875 13.96875 46.921875 20.515625 
Q 46.921875 27.09375 42.890625 30.859375 
Q 38.875 34.625 31.78125 34.625 
z
M 21.921875 38.8125 
Q 15.578125 40.375 12.03125 44.71875 
Q 8.5 49.078125 8.5 55.328125 
Q 8.5 64.0625 14.71875 69.140625 
Q 20.953125 74.21875 31.78125 74.21875 
Q 42.671875 74.21875 48.875 69.140625 
Q 55.078125 64.0625 55.078125 55.328125 
Q 55.078125 49.078125 51.53125 44.71875 
Q 48 40.375 41.703125 38.8125 
Q 48.828125 37.15625 52.796875 32.3125 
Q 56.78125 27.484375 56.78125 20.515625 
Q 56.78125 9.90625 50.3125 4.234375 
Q 43.84375 -1.421875 31.78125 -1.421875 
Q 19.734375 -1.421875 13.25 4.234375 
Q 6.78125 9.90625 6.78125 20.515625 
Q 6.78125 27.484375 10.78125 32.3125 
Q 14.796875 37.15625 21.921875 38.8125 
z
M 18.3125 54.390625 
Q 18.3125 48.734375 21.84375 45.5625 
Q 25.390625 42.390625 31.78125 42.390625 
Q 38.140625 42.390625 41.71875 45.5625 
Q 45.3125 48.734375 45.3125 54.390625 
Q 45.3125 60.0625 41.71875 63.234375 
Q 38.140625 66.40625 31.78125 66.40625 
Q 25.390625 66.40625 21.84375 63.234375 
Q 18.3125 60.0625 18.3125 54.390625 
z
" id="DejaVuSans-38"/>
      </defs>
      <g transform="translate(366.682846 317.076875)scale(0.2 -0.2)">
       <use xlink:href="#DejaVuSans-38"/>
      </g>
     </g>
    </g>
    <g id="text_6">
     <!-- log10(# f-evals / dimension) -->
     <defs>
      <path d="M 9.421875 75.984375 
L 18.40625 75.984375 
L 18.40625 0 
L 9.421875 0 
z
" id="DejaVuSans-6c"/>
      <path d="M 30.609375 48.390625 
Q 23.390625 48.390625 19.1875 42.75 
Q 14.984375 37.109375 14.984375 27.296875 
Q 14.984375 17.484375 19.15625 11.84375 
Q 23.34375 6.203125 30.609375 6.203125 
Q 37.796875 6.203125 41.984375 11.859375 
Q 46.1875 17.53125 46.1875 27.296875 
Q 46.1875 37.015625 41.984375 42.703125 
Q 37.796875 48.390625 30.609375 48.390625 
z
M 30.609375 56 
Q 42.328125 56 49.015625 48.375 
Q 55.71875 40.765625 55.71875 27.296875 
Q 55.71875 13.875 49.015625 6.21875 
Q 42.328125 -1.421875 30.609375 -1.421875 
Q 18.84375 -1.421875 12.171875 6.21875 
Q 5.515625 13.875 5.515625 27.296875 
Q 5.515625 40.765625 12.171875 48.375 
Q 18.84375 56 30.609375 56 
z
" id="DejaVuSans-6f"/>
      <path d="M 45.40625 27.984375 
Q 45.40625 37.75 41.375 43.109375 
Q 37.359375 48.484375 30.078125 48.484375 
Q 22.859375 48.484375 18.828125 43.109375 
Q 14.796875 37.75 14.796875 27.984375 
Q 14.796875 18.265625 18.828125 12.890625 
Q 22.859375 7.515625 30.078125 7.515625 
Q 37.359375 7.515625 41.375 12.890625 
Q 45.40625 18.265625 45.40625 27.984375 
z
M 54.390625 6.78125 
Q 54.390625 -7.171875 48.1875 -13.984375 
Q 42 -20.796875 29.203125 -20.796875 
Q 24.46875 -20.796875 20.265625 -20.09375 
Q 16.0625 -19.390625 12.109375 -17.921875 
L 12.109375 -9.1875 
Q 16.0625 -11.328125 19.921875 -12.34375 
Q 23.78125 -13.375 27.78125 -13.375 
Q 36.625 -13.375 41.015625 -8.765625 
Q 45.40625 -4.15625 45.40625 5.171875 
L 45.40625 9.625 
Q 42.625 4.78125 38.28125 2.390625 
Q 33.9375 0 27.875 0 
Q 17.828125 0 11.671875 7.65625 
Q 5.515625 15.328125 5.515625 27.984375 
Q 5.515625 40.671875 11.671875 48.328125 
Q 17.828125 56 27.875 56 
Q 33.9375 56 38.28125 53.609375 
Q 42.625 51.21875 45.40625 46.390625 
L 45.40625 54.6875 
L 54.390625 54.6875 
z
" id="DejaVuSans-67"/>
      <path d="M 12.40625 8.296875 
L 28.515625 8.296875 
L 28.515625 63.921875 
L 10.984375 60.40625 
L 10.984375 69.390625 
L 28.421875 72.90625 
L 38.28125 72.90625 
L 38.28125 8.296875 
L 54.390625 8.296875 
L 54.390625 0 
L 12.40625 0 
z
" id="DejaVuSans-31"/>
      <path d="M 31 75.875 
Q 24.46875 64.65625 21.28125 53.65625 
Q 18.109375 42.671875 18.109375 31.390625 
Q 18.109375 20.125 21.3125 9.0625 
Q 24.515625 -2 31 -13.1875 
L 23.1875 -13.1875 
Q 15.875 -1.703125 12.234375 9.375 
Q 8.59375 20.453125 8.59375 31.390625 
Q 8.59375 42.28125 12.203125 53.3125 
Q 15.828125 64.359375 23.1875 75.875 
z
" id="DejaVuSans-28"/>
      <path d="M 51.125 44 
L 36.921875 44 
L 32.8125 27.6875 
L 47.125 27.6875 
z
M 43.796875 71.78125 
L 38.71875 51.515625 
L 52.984375 51.515625 
L 58.109375 71.78125 
L 65.921875 71.78125 
L 60.890625 51.515625 
L 76.125 51.515625 
L 76.125 44 
L 58.984375 44 
L 54.984375 27.6875 
L 70.515625 27.6875 
L 70.515625 20.21875 
L 53.078125 20.21875 
L 48 0 
L 40.1875 0 
L 45.21875 20.21875 
L 30.90625 20.21875 
L 25.875 0 
L 18.015625 0 
L 23.09375 20.21875 
L 7.71875 20.21875 
L 7.71875 27.6875 
L 24.90625 27.6875 
L 29 44 
L 13.28125 44 
L 13.28125 51.515625 
L 30.90625 51.515625 
L 35.890625 71.78125 
z
" id="DejaVuSans-23"/>
      <path id="DejaVuSans-20"/>
      <path d="M 37.109375 75.984375 
L 37.109375 68.5 
L 28.515625 68.5 
Q 23.6875 68.5 21.796875 66.546875 
Q 19.921875 64.59375 19.921875 59.515625 
L 19.921875 54.6875 
L 34.71875 54.6875 
L 34.71875 47.703125 
L 19.921875 47.703125 
L 19.921875 0 
L 10.890625 0 
L 10.890625 47.703125 
L 2.296875 47.703125 
L 2.296875 54.6875 
L 10.890625 54.6875 
L 10.890625 58.5 
Q 10.890625 67.625 15.140625 71.796875 
Q 19.390625 75.984375 28.609375 75.984375 
z
" id="DejaVuSans-66"/>
      <path d="M 4.890625 31.390625 
L 31.203125 31.390625 
L 31.203125 23.390625 
L 4.890625 23.390625 
z
" id="DejaVuSans-2d"/>
      <path d="M 56.203125 29.59375 
L 56.203125 25.203125 
L 14.890625 25.203125 
Q 15.484375 15.921875 20.484375 11.0625 
Q 25.484375 6.203125 34.421875 6.203125 
Q 39.59375 6.203125 44.453125 7.46875 
Q 49.3125 8.734375 54.109375 11.28125 
L 54.109375 2.78125 
Q 49.265625 0.734375 44.1875 -0.34375 
Q 39.109375 -1.421875 33.890625 -1.421875 
Q 20.796875 -1.421875 13.15625 6.1875 
Q 5.515625 13.8125 5.515625 26.8125 
Q 5.515625 40.234375 12.765625 48.109375 
Q 20.015625 56 32.328125 56 
Q 43.359375 56 49.78125 48.890625 
Q 56.203125 41.796875 56.203125 29.59375 
z
M 47.21875 32.234375 
Q 47.125 39.59375 43.09375 43.984375 
Q 39.0625 48.390625 32.421875 48.390625 
Q 24.90625 48.390625 20.390625 44.140625 
Q 15.875 39.890625 15.1875 32.171875 
z
" id="DejaVuSans-65"/>
      <path d="M 2.984375 54.6875 
L 12.5 54.6875 
L 29.59375 8.796875 
L 46.6875 54.6875 
L 56.203125 54.6875 
L 35.6875 0 
L 23.484375 0 
z
" id="DejaVuSans-76"/>
      <path d="M 34.28125 27.484375 
Q 23.390625 27.484375 19.1875 25 
Q 14.984375 22.515625 14.984375 16.5 
Q 14.984375 11.71875 18.140625 8.90625 
Q 21.296875 6.109375 26.703125 6.109375 
Q 34.1875 6.109375 38.703125 11.40625 
Q 43.21875 16.703125 43.21875 25.484375 
L 43.21875 27.484375 
z
M 52.203125 31.203125 
L 52.203125 0 
L 43.21875 0 
L 43.21875 8.296875 
Q 40.140625 3.328125 35.546875 0.953125 
Q 30.953125 -1.421875 24.3125 -1.421875 
Q 15.921875 -1.421875 10.953125 3.296875 
Q 6 8.015625 6 15.921875 
Q 6 25.140625 12.171875 29.828125 
Q 18.359375 34.515625 30.609375 34.515625 
L 43.21875 34.515625 
L 43.21875 35.40625 
Q 43.21875 41.609375 39.140625 45 
Q 35.0625 48.390625 27.6875 48.390625 
Q 23 48.390625 18.546875 47.265625 
Q 14.109375 46.140625 10.015625 43.890625 
L 10.015625 52.203125 
Q 14.9375 54.109375 19.578125 55.046875 
Q 24.21875 56 28.609375 56 
Q 40.484375 56 46.34375 49.84375 
Q 52.203125 43.703125 52.203125 31.203125 
z
" id="DejaVuSans-61"/>
      <path d="M 44.28125 53.078125 
L 44.28125 44.578125 
Q 40.484375 46.53125 36.375 47.5 
Q 32.28125 48.484375 27.875 48.484375 
Q 21.1875 48.484375 17.84375 46.4375 
Q 14.5 44.390625 14.5 40.28125 
Q 14.5 37.15625 16.890625 35.375 
Q 19.28125 33.59375 26.515625 31.984375 
L 29.59375 31.296875 
Q 39.15625 29.25 43.1875 25.515625 
Q 47.21875 21.78125 47.21875 15.09375 
Q 47.21875 7.46875 41.1875 3.015625 
Q 35.15625 -1.421875 24.609375 -1.421875 
Q 20.21875 -1.421875 15.453125 -0.5625 
Q 10.6875 0.296875 5.421875 2 
L 5.421875 11.28125 
Q 10.40625 8.6875 15.234375 7.390625 
Q 20.0625 6.109375 24.8125 6.109375 
Q 31.15625 6.109375 34.5625 8.28125 
Q 37.984375 10.453125 37.984375 14.40625 
Q 37.984375 18.0625 35.515625 20.015625 
Q 33.0625 21.96875 24.703125 23.78125 
L 21.578125 24.515625 
Q 13.234375 26.265625 9.515625 29.90625 
Q 5.8125 33.546875 5.8125 39.890625 
Q 5.8125 47.609375 11.28125 51.796875 
Q 16.75 56 26.8125 56 
Q 31.78125 56 36.171875 55.265625 
Q 40.578125 54.546875 44.28125 53.078125 
z
" id="DejaVuSans-73"/>
      <path d="M 25.390625 72.90625 
L 33.6875 72.90625 
L 8.296875 -9.28125 
L 0 -9.28125 
z
" id="DejaVuSans-2f"/>
      <path d="M 45.40625 46.390625 
L 45.40625 75.984375 
L 54.390625 75.984375 
L 54.390625 0 
L 45.40625 0 
L 45.40625 8.203125 
Q 42.578125 3.328125 38.25 0.953125 
Q 33.9375 -1.421875 27.875 -1.421875 
Q 17.96875 -1.421875 11.734375 6.484375 
Q 5.515625 14.40625 5.515625 27.296875 
Q 5.515625 40.1875 11.734375 48.09375 
Q 17.96875 56 27.875 56 
Q 33.9375 56 38.25 53.625 
Q 42.578125 51.265625 45.40625 46.390625 
z
M 14.796875 27.296875 
Q 14.796875 17.390625 18.875 11.75 
Q 22.953125 6.109375 30.078125 6.109375 
Q 37.203125 6.109375 41.296875 11.75 
Q 45.40625 17.390625 45.40625 27.296875 
Q 45.40625 37.203125 41.296875 42.84375 
Q 37.203125 48.484375 30.078125 48.484375 
Q 22.953125 48.484375 18.875 42.84375 
Q 14.796875 37.203125 14.796875 27.296875 
z
" id="DejaVuSans-64"/>
      <path d="M 9.421875 54.6875 
L 18.40625 54.6875 
L 18.40625 0 
L 9.421875 0 
z
M 9.421875 75.984375 
L 18.40625 75.984375 
L 18.40625 64.59375 
L 9.421875 64.59375 
z
" id="DejaVuSans-69"/>
      <path d="M 52 44.1875 
Q 55.375 50.25 60.0625 53.125 
Q 64.75 56 71.09375 56 
Q 79.640625 56 84.28125 50.015625 
Q 88.921875 44.046875 88.921875 33.015625 
L 88.921875 0 
L 79.890625 0 
L 79.890625 32.71875 
Q 79.890625 40.578125 77.09375 44.375 
Q 74.3125 48.1875 68.609375 48.1875 
Q 61.625 48.1875 57.5625 43.546875 
Q 53.515625 38.921875 53.515625 30.90625 
L 53.515625 0 
L 44.484375 0 
L 44.484375 32.71875 
Q 44.484375 40.625 41.703125 44.40625 
Q 38.921875 48.1875 33.109375 48.1875 
Q 26.21875 48.1875 22.15625 43.53125 
Q 18.109375 38.875 18.109375 30.90625 
L 18.109375 0 
L 9.078125 0 
L 9.078125 54.6875 
L 18.109375 54.6875 
L 18.109375 46.1875 
Q 21.1875 51.21875 25.484375 53.609375 
Q 29.78125 56 35.6875 56 
Q 41.65625 56 45.828125 52.96875 
Q 50 49.953125 52 44.1875 
z
" id="DejaVuSans-6d"/>
      <path d="M 54.890625 33.015625 
L 54.890625 0 
L 45.90625 0 
L 45.90625 32.71875 
Q 45.90625 40.484375 42.875 44.328125 
Q 39.84375 48.1875 33.796875 48.1875 
Q 26.515625 48.1875 22.3125 43.546875 
Q 18.109375 38.921875 18.109375 30.90625 
L 18.109375 0 
L 9.078125 0 
L 9.078125 54.6875 
L 18.109375 54.6875 
L 18.109375 46.1875 
Q 21.34375 51.125 25.703125 53.5625 
Q 30.078125 56 35.796875 56 
Q 45.21875 56 50.046875 50.171875 
Q 54.890625 44.34375 54.890625 33.015625 
z
" id="DejaVuSans-6e"/>
      <path d="M 8.015625 75.875 
L 15.828125 75.875 
Q 23.140625 64.359375 26.78125 53.3125 
Q 30.421875 42.28125 30.421875 31.390625 
Q 30.421875 20.453125 26.78125 9.375 
Q 23.140625 -1.703125 15.828125 -13.1875 
L 8.015625 -13.1875 
Q 14.5 -2 17.703125 9.0625 
Q 20.90625 20.125 20.90625 31.390625 
Q 20.90625 42.671875 17.703125 53.65625 
Q 14.5 64.65625 8.015625 75.875 
z
" id="DejaVuSans-29"/>
     </defs>
     <g transform="translate(107.211219 338.153594)scale(0.17 -0.17)">
      <use xlink:href="#DejaVuSans-6c"/>
      <use x="27.783203" xlink:href="#DejaVuSans-6f"/>
      <use x="88.964844" xlink:href="#DejaVuSans-67"/>
      <use x="152.441406" xlink:href="#DejaVuSans-31"/>
      <use x="216.064453" xlink:href="#DejaVuSans-30"/>
      <use x="279.6875" xlink:href="#DejaVuSans-28"/>
      <use x="318.701172" xlink:href="#DejaVuSans-23"/>
      <use x="402.490234" xlink:href="#DejaVuSans-20"/>
      <use x="434.277344" xlink:href="#DejaVuSans-66"/>
      <use x="469.404297" xlink:href="#DejaVuSans-2d"/>
      <use x="505.488281" xlink:href="#DejaVuSans-65"/>
      <use x="567.011719" xlink:href="#DejaVuSans-76"/>
      <use x="626.191406" xlink:href="#DejaVuSans-61"/>
      <use x="687.470703" xlink:href="#DejaVuSans-6c"/>
      <use x="715.253906" xlink:href="#DejaVuSans-73"/>
      <use x="767.353516" xlink:href="#DejaVuSans-20"/>
      <use x="799.140625" xlink:href="#DejaVuSans-2f"/>
      <use x="832.832031" xlink:href="#DejaVuSans-20"/>
      <use x="864.619141" xlink:href="#DejaVuSans-64"/>
      <use x="928.095703" xlink:href="#DejaVuSans-69"/>
      <use x="955.878906" xlink:href="#DejaVuSans-6d"/>
      <use x="1053.291016" xlink:href="#DejaVuSans-65"/>
      <use x="1114.814453" xlink:href="#DejaVuSans-6e"/>
      <use x="1178.193359" xlink:href="#DejaVuSans-73"/>
      <use x="1230.292969" xlink:href="#DejaVuSans-69"/>
      <use x="1258.076172" xlink:href="#DejaVuSans-6f"/>
      <use x="1319.257812" xlink:href="#DejaVuSans-6e"/>
      <use x="1382.636719" xlink:href="#DejaVuSans-29"/>
     </g>
    </g>
   </g>
   <g id="matplotlib.axis_2">
    <g id="ytick_1">
     <g id="line2d_11">
      <path clip-path="url(#pb99d4dcce9)" d="M 56.12 294.88 
L 399.984 294.88 
" style="fill:none;stroke:#b0b0b0;stroke-linecap:square;stroke-width:0.8;"/>
     </g>
     <g id="line2d_12">
      <defs>
       <path d="M 0 0 
L -3.5 0 
" id="ma0c8fc51b5" style="stroke:#000000;stroke-width:0.8;"/>
      </defs>
      <g>
       <use style="stroke:#000000;stroke-width:0.8;" x="56.12" xlink:href="#ma0c8fc51b5" y="294.88"/>
      </g>
     </g>
     <g id="text_7">
      <!-- 0.0 -->
      <defs>
       <path d="M 10.6875 12.40625 
L 21 12.40625 
L 21 0 
L 10.6875 0 
z
" id="DejaVuSans-2e"/>
      </defs>
      <g transform="translate(23.675 300.95875)scale(0.16 -0.16)">
       <use xlink:href="#DejaVuSans-30"/>
       <use x="63.623047" xlink:href="#DejaVuSans-2e"/>
       <use x="95.410156" xlink:href="#DejaVuSans-30"/>
      </g>
     </g>
    </g>
    <g id="ytick_2">
     <g id="line2d_13">
      <path clip-path="url(#pb99d4dcce9)" d="M 56.12 237.843411 
L 399.984 237.843411 
" style="fill:none;stroke:#b0b0b0;stroke-linecap:square;stroke-width:0.8;"/>
     </g>
     <g id="line2d_14">
      <g>
       <use style="stroke:#000000;stroke-width:0.8;" x="56.12" xlink:href="#ma0c8fc51b5" y="237.843411"/>
      </g>
     </g>
     <g id="text_8">
      <!-- 0.2 -->
      <g transform="translate(23.675 243.922161)scale(0.16 -0.16)">
       <use xlink:href="#DejaVuSans-30"/>
       <use x="63.623047" xlink:href="#DejaVuSans-2e"/>
       <use x="95.410156" xlink:href="#DejaVuSans-32"/>
      </g>
     </g>
    </g>
    <g id="ytick_3">
     <g id="line2d_15">
      <path clip-path="url(#pb99d4dcce9)" d="M 56.12 180.806823 
L 399.984 180.806823 
" style="fill:none;stroke:#b0b0b0;stroke-linecap:square;stroke-width:0.8;"/>
     </g>
     <g id="line2d_16">
      <g>
       <use style="stroke:#000000;stroke-width:0.8;" x="56.12" xlink:href="#ma0c8fc51b5" y="180.806823"/>
      </g>
     </g>
     <g id="text_9">
      <!-- 0.4 -->
      <g transform="translate(23.675 186.885573)scale(0.16 -0.16)">
       <use xlink:href="#DejaVuSans-30"/>
       <use x="63.623047" xlink:href="#DejaVuSans-2e"/>
       <use x="95.410156" xlink:href="#DejaVuSans-34"/>
      </g>
     </g>
    </g>
    <g id="ytick_4">
     <g id="line2d_17">
      <path clip-path="url(#pb99d4dcce9)" d="M 56.12 123.770234 
L 399.984 123.770234 
" style="fill:none;stroke:#b0b0b0;stroke-linecap:square;stroke-width:0.8;"/>
     </g>
     <g id="line2d_18">
      <g>
       <use style="stroke:#000000;stroke-width:0.8;" x="56.12" xlink:href="#ma0c8fc51b5" y="123.770234"/>
      </g>
     </g>
     <g id="text_10">
      <!-- 0.6 -->
      <g transform="translate(23.675 129.848984)scale(0.16 -0.16)">
       <use xlink:href="#DejaVuSans-30"/>
       <use x="63.623047" xlink:href="#DejaVuSans-2e"/>
       <use x="95.410156" xlink:href="#DejaVuSans-36"/>
      </g>
     </g>
    </g>
    <g id="ytick_5">
     <g id="line2d_19">
      <path clip-path="url(#pb99d4dcce9)" d="M 56.12 66.733646 
L 399.984 66.733646 
" style="fill:none;stroke:#b0b0b0;stroke-linecap:square;stroke-width:0.8;"/>
     </g>
     <g id="line2d_20">
      <g>
       <use style="stroke:#000000;stroke-width:0.8;" x="56.12" xlink:href="#ma0c8fc51b5" y="66.733646"/>
      </g>
     </g>
     <g id="text_11">
      <!-- 0.8 -->
      <g transform="translate(23.675 72.812396)scale(0.16 -0.16)">
       <use xlink:href="#DejaVuSans-30"/>
       <use x="63.623047" xlink:href="#DejaVuSans-2e"/>
       <use x="95.410156" xlink:href="#DejaVuSans-38"/>
      </g>
     </g>
    </g>
    <g id="ytick_6">
     <g id="line2d_21">
      <path clip-path="url(#pb99d4dcce9)" d="M 56.12 9.697057 
L 399.984 9.697057 
" style="fill:none;stroke:#b0b0b0;stroke-linecap:square;stroke-width:0.8;"/>
     </g>
     <g id="line2d_22">
      <g>
       <use style="stroke:#000000;stroke-width:0.8;" x="56.12" xlink:href="#ma0c8fc51b5" y="9.697057"/>
      </g>
     </g>
     <g id="text_12">
      <!-- 1.0 -->
      <g transform="translate(23.675 15.775807)scale(0.16 -0.16)">
       <use xlink:href="#DejaVuSans-31"/>
       <use x="63.623047" xlink:href="#DejaVuSans-2e"/>
       <use x="95.410156" xlink:href="#DejaVuSans-30"/>
      </g>
     </g>
    </g>
    <g id="text_13">
     <!-- Fraction of function,target pairs -->
     <defs>
      <path d="M 9.8125 72.90625 
L 51.703125 72.90625 
L 51.703125 64.59375 
L 19.671875 64.59375 
L 19.671875 43.109375 
L 48.578125 43.109375 
L 48.578125 34.8125 
L 19.671875 34.8125 
L 19.671875 0 
L 9.8125 0 
z
" id="DejaVuSans-46"/>
      <path d="M 41.109375 46.296875 
Q 39.59375 47.171875 37.8125 47.578125 
Q 36.03125 48 33.890625 48 
Q 26.265625 48 22.1875 43.046875 
Q 18.109375 38.09375 18.109375 28.8125 
L 18.109375 0 
L 9.078125 0 
L 9.078125 54.6875 
L 18.109375 54.6875 
L 18.109375 46.1875 
Q 20.953125 51.171875 25.484375 53.578125 
Q 30.03125 56 36.53125 56 
Q 37.453125 56 38.578125 55.875 
Q 39.703125 55.765625 41.0625 55.515625 
z
" id="DejaVuSans-72"/>
      <path d="M 48.78125 52.59375 
L 48.78125 44.1875 
Q 44.96875 46.296875 41.140625 47.34375 
Q 37.3125 48.390625 33.40625 48.390625 
Q 24.65625 48.390625 19.8125 42.84375 
Q 14.984375 37.3125 14.984375 27.296875 
Q 14.984375 17.28125 19.8125 11.734375 
Q 24.65625 6.203125 33.40625 6.203125 
Q 37.3125 6.203125 41.140625 7.25 
Q 44.96875 8.296875 48.78125 10.40625 
L 48.78125 2.09375 
Q 45.015625 0.34375 40.984375 -0.53125 
Q 36.96875 -1.421875 32.421875 -1.421875 
Q 20.0625 -1.421875 12.78125 6.34375 
Q 5.515625 14.109375 5.515625 27.296875 
Q 5.515625 40.671875 12.859375 48.328125 
Q 20.21875 56 33.015625 56 
Q 37.15625 56 41.109375 55.140625 
Q 45.0625 54.296875 48.78125 52.59375 
z
" id="DejaVuSans-63"/>
      <path d="M 18.3125 70.21875 
L 18.3125 54.6875 
L 36.8125 54.6875 
L 36.8125 47.703125 
L 18.3125 47.703125 
L 18.3125 18.015625 
Q 18.3125 11.328125 20.140625 9.421875 
Q 21.96875 7.515625 27.59375 7.515625 
L 36.8125 7.515625 
L 36.8125 0 
L 27.59375 0 
Q 17.1875 0 13.234375 3.875 
Q 9.28125 7.765625 9.28125 18.015625 
L 9.28125 47.703125 
L 2.6875 47.703125 
L 2.6875 54.6875 
L 9.28125 54.6875 
L 9.28125 70.21875 
z
" id="DejaVuSans-74"/>
      <path d="M 8.5 21.578125 
L 8.5 54.6875 
L 17.484375 54.6875 
L 17.484375 21.921875 
Q 17.484375 14.15625 20.5 10.265625 
Q 23.53125 6.390625 29.59375 6.390625 
Q 36.859375 6.390625 41.078125 11.03125 
Q 45.3125 15.671875 45.3125 23.6875 
L 45.3125 54.6875 
L 54.296875 54.6875 
L 54.296875 0 
L 45.3125 0 
L 45.3125 8.40625 
Q 42.046875 3.421875 37.71875 1 
Q 33.40625 -1.421875 27.6875 -1.421875 
Q 18.265625 -1.421875 13.375 4.4375 
Q 8.5 10.296875 8.5 21.578125 
z
M 31.109375 56 
z
" id="DejaVuSans-75"/>
      <path d="M 11.71875 12.40625 
L 22.015625 12.40625 
L 22.015625 4 
L 14.015625 -11.625 
L 7.71875 -11.625 
L 11.71875 4 
z
" id="DejaVuSans-2c"/>
      <path d="M 18.109375 8.203125 
L 18.109375 -20.796875 
L 9.078125 -20.796875 
L 9.078125 54.6875 
L 18.109375 54.6875 
L 18.109375 46.390625 
Q 20.953125 51.265625 25.265625 53.625 
Q 29.59375 56 35.59375 56 
Q 45.5625 56 51.78125 48.09375 
Q 58.015625 40.1875 58.015625 27.296875 
Q 58.015625 14.40625 51.78125 6.484375 
Q 45.5625 -1.421875 35.59375 -1.421875 
Q 29.59375 -1.421875 25.265625 0.953125 
Q 20.953125 3.328125 18.109375 8.203125 
z
M 48.6875 27.296875 
Q 48.6875 37.203125 44.609375 42.84375 
Q 40.53125 48.484375 33.40625 48.484375 
Q 26.265625 48.484375 22.1875 42.84375 
Q 18.109375 37.203125 18.109375 27.296875 
Q 18.109375 17.390625 22.1875 11.75 
Q 26.265625 6.109375 33.40625 6.109375 
Q 40.53125 6.109375 44.609375 11.75 
Q 48.6875 17.390625 48.6875 27.296875 
z
" id="DejaVuSans-70"/>
     </defs>
     <g transform="translate(16.139531 286.001989)rotate(-90)scale(0.17 -0.17)">
      <use xlink:href="#DejaVuSans-46"/>
      <use x="57.410156" xlink:href="#DejaVuSans-72"/>
      <use x="98.523438" xlink:href="#DejaVuSans-61"/>
      <use x="159.802734" xlink:href="#DejaVuSans-63"/>
      <use x="214.783203" xlink:href="#DejaVuSans-74"/>
      <use x="253.992188" xlink:href="#DejaVuSans-69"/>
      <use x="281.775391" xlink:href="#DejaVuSans-6f"/>
      <use x="342.957031" xlink:href="#DejaVuSans-6e"/>
      <use x="406.335938" xlink:href="#DejaVuSans-20"/>
      <use x="438.123047" xlink:href="#DejaVuSans-6f"/>
      <use x="499.304688" xlink:href="#DejaVuSans-66"/>
      <use x="534.509766" xlink:href="#DejaVuSans-20"/>
      <use x="566.296875" xlink:href="#DejaVuSans-66"/>
      <use x="601.501953" xlink:href="#DejaVuSans-75"/>
      <use x="664.880859" xlink:href="#DejaVuSans-6e"/>
      <use x="728.259766" xlink:href="#DejaVuSans-63"/>
      <use x="783.240234" xlink:href="#DejaVuSans-74"/>
      <use x="822.449219" xlink:href="#DejaVuSans-69"/>
      <use x="850.232422" xlink:href="#DejaVuSans-6f"/>
      <use x="911.414062" xlink:href="#DejaVuSans-6e"/>
      <use x="974.792969" xlink:href="#DejaVuSans-2c"/>
      <use x="1006.580078" xlink:href="#DejaVuSans-74"/>
      <use x="1045.789062" xlink:href="#DejaVuSans-61"/>
      <use x="1107.068359" xlink:href="#DejaVuSans-72"/>
      <use x="1148.166016" xlink:href="#DejaVuSans-67"/>
      <use x="1211.642578" xlink:href="#DejaVuSans-65"/>
      <use x="1273.166016" xlink:href="#DejaVuSans-74"/>
      <use x="1312.375" xlink:href="#DejaVuSans-20"/>
      <use x="1344.162109" xlink:href="#DejaVuSans-70"/>
      <use x="1407.638672" xlink:href="#DejaVuSans-61"/>
      <use x="1468.917969" xlink:href="#DejaVuSans-69"/>
      <use x="1496.701172" xlink:href="#DejaVuSans-72"/>
      <use x="1537.814453" xlink:href="#DejaVuSans-73"/>
     </g>
    </g>
   </g>
   <g id="line2d_23">
    <defs>
     <path d="M 0 1.5 
C 0.397805 1.5 0.77937 1.341951 1.06066 1.06066 
C 1.341951 0.77937 1.5 0.397805 1.5 0 
C 1.5 -0.397805 1.341951 -0.77937 1.06066 -1.06066 
C 0.77937 -1.341951 0.397805 -1.5 0 -1.5 
C -0.397805 -1.5 -0.77937 -1.341951 -1.06066 -1.06066 
C -1.341951 -0.77937 -1.5 -0.397805 -1.5 0 
C -1.5 0.397805 -1.341951 0.77937 -1.06066 1.06066 
C -0.77937 1.341951 -0.397805 1.5 0 1.5 
z
" id="ma3941ebf3d" style="stroke:#00bfbf;"/>
    </defs>
    <g>
     <use style="fill:#00bfbf;stroke:#00bfbf;" x="283.335503" xlink:href="#ma3941ebf3d" y="113.704954"/>
     <use style="fill:#00bfbf;stroke:#00bfbf;" x="283.335503" xlink:href="#ma3941ebf3d" y="113.704954"/>
    </g>
   </g>
   <g id="line2d_24">
    <path d="M 56.12 294.88 
L 56.12 289.959196 
L 68.045504 289.959196 
L 68.045504 288.057977 
L 75.021477 288.057977 
L 75.021477 285.821248 
L 79.971009 285.821248 
L 79.971009 283.696355 
L 83.810164 283.696355 
L 83.810164 283.025336 
L 89.599124 283.025336 
L 89.599124 282.801664 
L 91.896513 282.801664 
L 91.896513 282.354318 
L 95.735668 282.354318 
L 95.735668 281.571463 
L 97.375467 281.571463 
L 97.375467 280.676771 
L 98.872486 280.676771 
L 98.872486 280.341262 
L 100.24961 280.341262 
L 100.24961 279.334734 
L 103.822018 279.334734 
L 103.822018 278.775551 
L 105.848459 278.775551 
L 105.848459 278.551879 
L 106.778678 278.551879 
L 106.778678 278.104533 
L 108.500601 278.104533 
L 108.500601 277.545351 
L 109.300972 277.545351 
L 109.300972 277.098005 
L 113.450132 277.098005 
L 113.450132 276.874332 
L 114.637146 276.874332 
L 114.637146 276.762495 
L 115.747522 276.762495 
L 115.747522 276.426986 
L 116.276944 276.426986 
L 116.276944 276.203313 
L 117.289287 276.203313 
L 117.289287 275.97964 
L 119.151088 275.97964 
L 119.151088 275.532294 
L 121.991263 275.532294 
L 121.991263 275.420458 
L 122.361274 275.420458 
L 122.361274 275.196785 
L 124.100619 275.196785 
L 124.100619 274.861276 
L 124.428341 274.861276 
L 124.428341 274.749439 
L 124.749936 274.749439 
L 124.749936 274.41393 
L 125.065631 274.41393 
L 125.065631 273.183729 
L 125.375637 273.183729 
L 125.375637 272.736383 
L 125.680156 272.736383 
L 125.680156 272.177201 
L 125.979378 272.177201 
L 125.979378 271.729855 
L 126.273486 271.729855 
L 126.273486 270.611491 
L 126.56265 270.611491 
L 126.56265 270.275981 
L 127.126794 270.275981 
L 127.126794 269.716799 
L 127.402078 269.716799 
L 127.402078 269.38129 
L 127.939774 269.38129 
L 127.939774 268.710271 
L 128.202449 268.710271 
L 128.202449 268.262925 
L 128.716065 268.262925 
L 128.716065 268.151089 
L 128.967235 268.151089 
L 128.967235 268.039252 
L 129.458837 268.039252 
L 129.458837 267.927416 
L 129.699468 267.927416 
L 129.699468 267.256397 
L 130.629687 267.256397 
L 130.629687 266.697215 
L 130.854591 266.697215 
L 130.854591 266.026196 
L 131.295765 266.026196 
L 131.295765 265.91436 
L 131.512181 265.91436 
L 131.512181 265.802523 
L 131.937015 265.802523 
L 131.937015 265.690687 
L 132.756449 265.690687 
L 132.756449 265.243341 
L 132.955351 265.243341 
L 132.955351 265.019668 
L 133.346388 265.019668 
L 133.346388 264.907832 
L 133.538623 264.907832 
L 133.538623 264.684159 
L 134.286778 264.684159 
L 134.286778 264.34865 
L 135.178422 264.34865 
L 135.178422 264.236813 
L 136.026124 264.236813 
L 136.026124 263.342122 
L 136.190765 263.342122 
L 136.190765 263.006612 
L 136.353845 263.006612 
L 136.353845 262.559266 
L 136.515394 262.559266 
L 136.515394 261.888248 
L 136.834012 261.888248 
L 136.834012 260.434374 
L 136.991135 260.434374 
L 136.991135 260.098865 
L 137.146836 260.098865 
L 137.146836 259.427846 
L 137.301141 259.427846 
L 137.301141 259.316009 
L 137.454074 259.316009 
L 137.454074 258.756827 
L 137.60566 258.756827 
L 137.60566 258.421318 
L 137.755922 258.421318 
L 137.755922 257.973972 
L 138.19899 257.973972 
L 138.19899 257.862136 
L 138.34418 257.862136 
L 138.34418 257.302953 
L 138.488154 257.302953 
L 138.488154 257.079281 
L 138.630934 257.079281 
L 138.630934 256.296425 
L 138.772539 256.296425 
L 138.772539 256.184589 
L 138.912987 256.184589 
L 138.912987 255.51357 
L 139.052299 255.51357 
L 139.052299 254.954388 
L 139.190491 254.954388 
L 139.190491 254.842552 
L 139.46359 254.842552 
L 139.46359 254.507042 
L 139.598531 254.507042 
L 139.598531 253.836024 
L 139.732422 253.836024 
L 139.732422 253.724187 
L 139.997117 253.724187 
L 139.997117 253.053168 
L 140.127953 253.053168 
L 140.127953 252.605823 
L 140.257802 252.605823 
L 140.257802 252.04664 
L 140.386678 252.04664 
L 140.386678 251.934804 
L 140.641569 251.934804 
L 140.641569 251.263785 
L 140.767613 251.263785 
L 140.767613 250.816439 
L 141.262751 250.816439 
L 141.262751 250.48093 
L 141.624972 250.48093 
L 141.624972 250.145421 
L 141.744038 250.145421 
L 141.744038 249.474402 
L 141.862285 249.474402 
L 141.862285 249.362566 
L 142.212226 249.362566 
L 142.212226 249.250729 
L 142.555192 249.250729 
L 142.555192 249.027056 
L 142.891454 249.027056 
L 143.002096 248.244201 
L 143.112032 248.244201 
L 143.22127 246.678491 
L 143.329818 246.678491 
L 143.437686 246.007472 
L 143.544882 246.007472 
L 143.651414 244.218089 
L 143.75729 244.218089 
L 143.862519 242.876052 
L 143.967108 242.876052 
L 143.967108 241.869524 
L 144.174398 241.869524 
L 144.174398 241.198505 
L 144.480724 241.198505 
L 144.581633 240.41565 
L 144.681953 240.41565 
L 144.781692 239.744631 
L 144.979451 239.744631 
L 145.077485 238.178921 
L 145.271892 238.178921 
L 145.368278 237.731575 
L 145.559445 237.731575 
L 145.559445 237.507902 
L 145.842271 237.507902 
L 145.935523 236.836883 
L 146.394347 236.836883 
L 146.484661 236.389538 
L 146.574504 236.389538 
L 146.574504 236.165865 
L 146.841251 236.165865 
L 146.841251 235.830355 
L 147.103926 235.830355 
L 147.190601 235.606682 
L 147.276841 235.606682 
L 147.276841 234.935664 
L 147.448035 234.935664 
L 147.448035 234.823827 
L 147.951628 234.823827 
L 148.034145 232.810771 
L 148.116269 232.810771 
L 148.198003 232.363425 
L 148.27935 232.363425 
L 148.360314 231.245061 
L 148.440899 231.245061 
L 148.521108 230.685879 
L 148.994666 230.685879 
L 149.072341 228.672823 
L 149.303282 228.672823 
L 149.303282 228.337313 
L 149.455539 228.337313 
L 149.531165 228.11364 
L 149.681426 228.11364 
L 149.681426 228.001804 
L 149.904387 228.001804 
L 149.904387 227.666295 
L 150.124495 227.666295 
L 150.124495 227.554458 
L 150.269684 227.554458 
L 150.341822 227.107112 
L 150.413659 227.107112 
L 150.413659 226.54793 
L 150.768411 226.54793 
L 150.838492 226.324257 
L 150.977803 226.324257 
L 150.977803 225.988748 
L 151.115996 225.988748 
L 151.115996 225.876911 
L 151.456697 225.876911 
L 151.456697 225.765075 
L 151.724483 225.765075 
L 151.790783 225.205893 
L 151.922622 225.205893 
L 151.922622 224.870383 
L 152.053458 224.870383 
L 152.053458 224.758547 
L 152.183306 224.758547 
L 152.183306 224.534874 
L 152.503704 224.534874 
L 152.567074 224.087528 
L 152.630211 224.087528 
L 152.630211 223.752019 
L 152.880468 223.752019 
L 152.880468 223.528346 
L 153.065801 223.528346 
L 153.127137 222.745491 
L 153.490634 222.745491 
L 153.490634 222.409982 
L 153.610112 222.409982 
L 153.610112 222.186309 
L 153.846609 222.186309 
L 153.905229 221.627126 
L 154.137731 221.627126 
L 154.195368 221.291617 
L 154.252814 221.291617 
L 154.252814 220.956108 
L 154.537198 220.956108 
L 154.537198 220.732435 
L 154.927601 220.732435 
L 154.927601 220.508762 
L 155.255322 220.508762 
L 155.309341 220.173253 
L 155.416872 220.173253 
L 155.523735 219.166725 
L 156.406229 219.166725 
L 156.406229 218.943052 
L 156.607458 218.943052 
L 156.607458 218.831215 
L 156.954042 218.831215 
L 156.954042 218.719379 
L 157.197397 218.719379 
L 157.197397 218.383869 
L 157.674016 218.383869 
L 157.674016 218.04836 
L 158.319851 218.04836 
L 158.319851 217.824687 
L 158.85476 217.824687 
L 158.898594 217.489178 
L 159.416073 217.489178 
L 159.458502 217.153669 
L 160.041774 217.153669 
L 160.123507 216.594486 
L 160.204854 216.594486 
L 160.285818 216.035304 
L 161.343105 216.035304 
L 161.343105 215.923468 
L 161.494358 215.923468 
L 161.494358 215.699795 
L 161.866772 215.699795 
L 161.866772 215.252449 
L 162.195189 215.252449 
L 162.195189 215.140612 
L 163.44954 215.140612 
L 163.44954 214.91694 
L 166.120873 214.91694 
L 166.120873 214.693267 
L 166.547109 214.693267 
L 166.547109 214.58143 
L 166.825511 214.58143 
L 166.935623 214.245921 
L 167.180827 214.245921 
L 167.234845 213.798575 
L 168.306413 213.798575 
L 168.306413 213.686739 
L 168.457777 213.686739 
L 168.457777 213.574902 
L 168.855021 213.574902 
L 168.855021 213.463066 
L 169.505247 213.463066 
L 169.505247 213.239393 
L 169.786532 213.239393 
L 169.786532 213.127556 
L 169.925468 213.127556 
L 169.925468 213.01572 
L 171.04161 213.01572 
L 171.04161 212.792047 
L 171.320324 212.792047 
L 171.320324 212.568374 
L 171.843945 212.568374 
L 171.843945 212.456538 
L 172.291908 212.456538 
L 172.291908 212.232865 
L 172.845675 212.232865 
L 172.845675 212.009192 
L 173.058442 212.009192 
L 173.058442 211.897355 
L 173.211545 211.897355 
L 173.211545 211.673683 
L 173.810687 211.673683 
L 173.810687 211.561846 
L 175.018542 211.561846 
L 175.018542 209.772463 
L 176.559817 209.772463 
L 176.559817 209.660626 
L 177.564989 209.660626 
L 177.564989 209.436954 
L 178.374099 209.436954 
L 178.374099 209.325117 
L 179.011389 209.325117 
L 179.011389 209.101444 
L 179.494176 209.101444 
L 179.494176 208.989608 
L 180.181166 208.989608 
L 180.181166 208.877771 
L 180.632631 208.877771 
L 180.632631 208.765935 
L 181.347836 208.765935 
L 181.347836 208.654098 
L 181.688771 208.654098 
L 181.700407 208.430426 
L 181.87402 208.430426 
L 181.87402 208.094916 
L 182.182175 208.094916 
L 182.182175 207.98308 
L 182.351017 207.98308 
L 182.351017 207.64757 
L 182.771479 207.64757 
L 182.771479 207.535734 
L 184.761446 207.535734 
L 184.761446 207.200225 
L 185.146574 207.200225 
L 185.146574 207.088388 
L 186.028116 207.088388 
L 186.028116 206.417369 
L 187.199442 206.417369 
L 187.199442 206.305533 
L 187.359254 206.305533 
L 187.359254 206.08186 
L 202.225108 206.08186 
L 202.225108 205.858187 
L 202.804498 205.858187 
L 202.804498 205.746351 
L 203.202433 205.746351 
L 203.202433 205.522678 
L 203.427639 205.522678 
L 203.427639 205.410841 
L 203.59463 205.410841 
L 203.688868 204.963496 
L 203.721245 204.963496 
L 203.830871 204.180641 
L 203.834085 204.180641 
L 203.942997 201.272893 
L 203.965335 201.272893 
L 204.057569 199.930855 
L 204.086094 199.930855 
L 204.183983 197.134944 
L 204.202866 197.134944 
L 204.303222 195.345561 
L 204.315726 195.345561 
L 204.374994 194.45087 
L 204.434059 194.45087 
L 204.53308 193.444342 
L 204.5485 193.444342 
L 204.622328 192.661486 
L 204.662186 192.661486 
L 204.756861 191.990468 
L 204.844959 191.990468 
L 204.91451 191.207613 
L 204.962728 191.207613 
L 205.046787 190.872103 
L 205.118511 190.872103 
L 205.118511 190.760267 
L 205.237391 190.760267 
L 205.237391 190.64843 
L 205.390718 190.64843 
L 205.396587 190.424757 
L 205.504822 190.424757 
L 205.551416 189.977412 
L 205.655794 189.977412 
L 205.655794 189.865575 
L 205.891205 189.865575 
L 205.962341 189.306393 
L 206.024698 189.306393 
L 206.030356 189.08272 
L 206.179609 189.08272 
L 206.246772 188.859047 
L 206.435655 188.859047 
L 206.435655 187.628846 
L 206.69339 187.628846 
L 206.69339 187.405173 
L 206.845119 187.405173 
L 206.939275 186.957828 
L 207.03025 186.957828 
L 207.03025 186.734155 
L 207.17111 186.734155 
L 207.186985 185.839463 
L 207.378955 185.839463 
L 207.472843 185.61579 
L 207.581735 185.61579 
L 207.581735 185.503954 
L 207.700212 185.503954 
L 207.741231 185.168444 
L 207.848442 185.168444 
L 207.932214 184.609262 
L 208.372235 184.609262 
L 208.372235 184.273753 
L 208.5246 184.273753 
L 208.634348 184.05008 
L 208.748232 184.05008 
L 208.755476 183.379061 
L 208.875756 183.379061 
L 208.911677 182.596206 
L 208.995202 182.596206 
L 209.075954 181.813351 
L 209.120915 181.813351 
L 209.120915 181.701514 
L 211.723695 181.701514 
L 211.723695 181.589678 
L 214.75557 181.589678 
L 214.75557 181.477842 
L 215.430292 181.477842 
L 215.525022 180.918659 
L 215.542929 180.918659 
L 215.641897 179.129276 
L 215.658066 179.129276 
L 215.766015 176.445201 
L 215.782069 176.445201 
L 215.890839 174.432145 
L 215.90837 174.432145 
L 215.994172 173.090108 
L 216.019513 173.090108 
L 216.106339 171.971743 
L 216.148802 171.971743 
L 216.175485 171.300725 
L 216.26621 171.300725 
L 216.356459 170.965215 
L 216.423064 170.965215 
L 216.49711 170.406033 
L 216.580032 170.406033 
L 216.656458 170.18236 
L 216.694544 170.18236 
L 216.779551 169.623178 
L 216.814344 169.623178 
L 216.916799 168.952159 
L 217.192488 168.952159 
L 217.242678 168.728486 
L 217.320625 168.728486 
L 217.329427 168.169304 
L 217.48855 168.169304 
L 217.549472 167.721958 
L 217.615951 167.721958 
L 217.713755 167.05094 
L 218.027833 167.05094 
L 218.116326 166.71543 
L 218.147121 166.71543 
L 218.216907 166.491757 
L 218.28641 166.491757 
L 218.307206 165.820739 
L 218.402547 165.820739 
L 218.402547 165.708902 
L 219.991413 165.708902 
L 219.991413 165.597066 
L 221.928559 165.597066 
L 221.928559 165.485229 
L 222.38496 165.485229 
L 222.492849 164.590538 
L 222.506966 164.590538 
L 222.61733 162.0183 
L 222.628112 162.0183 
L 222.730206 160.899935 
L 222.741988 160.899935 
L 222.830632 159.110552 
L 222.878501 159.110552 
L 222.945296 158.439533 
L 223.04553 158.439533 
L 223.097002 158.104024 
L 223.2047 158.104024 
L 223.288923 157.544842 
L 223.383055 157.544842 
L 223.451005 157.321169 
L 223.607502 157.321169 
L 223.687754 156.090968 
L 223.820011 156.090968 
L 223.882253 155.867295 
L 223.934283 155.867295 
L 224.014023 155.643622 
L 224.193082 155.643622 
L 224.237312 155.419949 
L 224.335195 155.419949 
L 224.416988 154.637094 
L 227.398326 154.637094 
L 227.501757 152.959547 
L 227.546357 152.959547 
L 227.645684 151.729346 
L 227.762844 151.729346 
L 227.868883 151.282001 
L 227.918884 151.282001 
L 227.956092 151.058328 
L 228.071951 151.058328 
L 228.071951 150.946491 
L 228.243121 150.946491 
L 228.288946 150.387309 
L 228.441076 150.387309 
L 228.474104 149.939963 
L 228.726242 149.939963 
L 228.812985 149.045272 
L 228.839298 149.045272 
L 228.879068 148.597926 
L 231.190692 148.597926 
L 231.275668 147.255888 
L 231.337501 147.255888 
L 231.432744 145.802015 
L 231.459214 145.802015 
L 231.459214 145.690178 
L 231.752808 145.690178 
L 231.847677 145.242832 
L 231.891142 145.242832 
L 231.997138 144.795487 
L 232.051451 144.795487 
L 232.061421 144.236304 
L 232.255303 144.236304 
L 232.353575 144.012631 
L 232.374997 144.012631 
L 232.378055 143.453449 
L 234.206296 143.453449 
L 234.30117 143.229776 
L 234.332861 143.229776 
L 234.40803 142.223248 
L 234.455792 142.223248 
L 234.529887 141.104884 
L 234.574622 141.104884 
L 234.636413 140.881211 
L 234.704928 140.881211 
L 234.766785 140.657538 
L 234.862862 140.657538 
L 234.930484 140.098356 
L 235.217539 140.098356 
L 235.288431 139.539173 
L 236.951827 139.539173 
L 237.060249 137.74979 
L 237.111883 137.74979 
L 237.21284 136.295916 
L 237.270002 136.295916 
L 237.381017 135.960407 
L 237.459031 135.960407 
L 237.485866 135.401225 
L 237.582399 135.401225 
L 237.582399 135.289388 
L 237.79485 135.289388 
L 237.79485 135.177552 
L 239.28212 135.177552 
L 239.383766 134.28286 
L 239.403698 134.28286 
L 239.488051 133.388169 
L 239.598946 133.388169 
L 239.686749 133.164496 
L 239.710328 133.164496 
L 239.815834 132.71715 
L 239.936865 132.71715 
L 239.976233 132.381641 
L 241.298095 132.381641 
L 241.388893 131.375113 
L 241.634183 131.375113 
L 241.679833 131.15144 
L 241.899601 131.15144 
L 241.922443 130.704094 
L 243.124386 130.704094 
L 243.205084 129.697566 
L 243.515183 129.697566 
L 243.515183 129.58573 
L 243.66118 129.58573 
L 243.677044 129.25022 
L 244.772608 129.25022 
L 244.843876 128.579202 
L 245.047433 128.579202 
L 245.111448 128.243692 
L 246.220384 128.243692 
L 246.326467 127.013491 
L 246.440004 127.013491 
L 246.514923 126.789818 
L 246.69841 126.789818 
L 246.70772 126.454309 
L 247.63402 126.454309 
L 247.716719 125.000435 
L 247.865529 125.000435 
L 247.865529 124.776762 
L 248.035231 124.776762 
L 248.035231 124.664926 
L 248.858335 124.664926 
L 248.955912 123.658398 
L 249.117784 123.658398 
L 249.117784 123.546561 
L 250.048867 123.546561 
L 250.133838 122.65187 
L 250.43258 122.65187 
L 250.43258 122.540033 
L 251.175864 122.540033 
L 251.256889 121.645342 
L 251.506956 121.645342 
L 251.51661 121.421669 
L 252.207498 121.421669 
L 252.262652 120.862487 
L 252.405879 120.862487 
L 252.405879 120.75065 
L 253.214675 120.75065 
L 253.267787 119.855959 
L 254.122818 119.855959 
L 254.191458 119.632286 
L 255.043339 119.632286 
L 255.043339 119.520449 
L 255.165267 119.520449 
L 255.274058 119.296776 
L 255.856586 119.296776 
L 255.861429 118.961267 
L 255.994771 118.961267 
L 255.994771 118.849431 
L 256.648646 118.849431 
L 256.665796 118.625758 
L 257.417117 118.625758 
L 257.443637 118.290248 
L 257.639557 118.290248 
L 257.639557 118.066575 
L 258.146983 118.066575 
L 258.157647 117.731066 
L 258.856725 117.731066 
L 258.871549 117.395557 
L 259.045717 117.395557 
L 259.045717 117.28372 
L 260.165429 117.28372 
L 260.165429 117.171884 
L 261.394384 117.171884 
L 261.394384 117.060047 
L 261.983238 117.060047 
L 262.00664 116.724538 
L 262.537457 116.724538 
L 262.546249 116.500865 
L 263.088854 116.500865 
L 263.09542 116.277192 
L 263.613673 116.277192 
L 263.613673 116.165356 
L 264.136672 116.165356 
L 264.136672 116.053519 
L 264.628015 116.053519 
L 264.628015 115.941683 
L 265.130977 115.941683 
L 265.130977 115.829846 
L 265.591727 115.829846 
L 265.591727 115.606174 
L 266.043656 115.606174 
L 266.043656 115.494337 
L 267.321637 115.494337 
L 267.321637 115.270664 
L 268.161829 115.270664 
L 268.166261 115.046991 
L 268.942387 115.046991 
L 268.942387 114.935155 
L 269.687664 114.935155 
L 269.687664 114.823318 
L 270.403336 114.823318 
L 270.41192 114.487809 
L 271.098671 114.487809 
L 271.098671 114.375973 
L 271.518257 114.375973 
L 271.518257 114.264136 
L 273.296432 114.264136 
L 273.296432 114.1523 
L 274.170309 114.1523 
L 274.170309 114.040463 
L 277.491303 114.040463 
L 277.491303 113.928627 
L 282.486127 113.928627 
L 282.486127 113.81679 
L 283.335503 113.81679 
L 283.335503 113.704954 
L 333.429677 113.704954 
L 333.429677 113.704954 
" style="fill:none;stroke:#00bfbf;stroke-linecap:square;stroke-width:1.5;"/>
   </g>
   <g id="line2d_25">
    <defs>
     <path d="M -6 0 
L 6 0 
M 0 6 
L 0 -6 
" id="m691cfe6eca" style="stroke:#00bfbf;stroke-width:1.5;"/>
    </defs>
    <g>
     <use style="fill-opacity:0;stroke:#00bfbf;stroke-width:1.5;" x="143.22127" xlink:href="#m691cfe6eca" y="247.34951"/>
     <use style="fill-opacity:0;stroke:#00bfbf;stroke-width:1.5;" x="204.221727" xlink:href="#m691cfe6eca" y="196.575762"/>
     <use style="fill-opacity:0;stroke:#00bfbf;stroke-width:1.5;" x="263.09542" xlink:href="#m691cfe6eca" y="116.389029"/>
     <use style="fill-opacity:0;stroke:#00bfbf;stroke-width:1.5;" x="283.335503" xlink:href="#m691cfe6eca" y="113.704954"/>
     <use style="fill-opacity:0;stroke:#00bfbf;stroke-width:1.5;" x="333.429677" xlink:href="#m691cfe6eca" y="113.704954"/>
    </g>
   </g>
   <g id="line2d_26">
    <path style="fill:none;stroke:#00bfbf;stroke-linecap:square;stroke-width:1.5;"/>
    <g/>
   </g>
   <g id="line2d_27">
    <path clip-path="url(#pb99d4dcce9)" d="M 203.414473 205.522678 
" style="fill:none;stroke:#00bfbf;stroke-linecap:square;stroke-width:1.5;"/>
    <defs>
     <path d="M -12 12 
L 12 -12 
M -12 -12 
L 12 12 
" id="m49398847a5" style="stroke:#00bfbf;stroke-width:3;"/>
    </defs>
    <g clip-path="url(#pb99d4dcce9)">
     <use style="fill:#00bfbf;stroke:#00bfbf;stroke-width:3;" x="203.414473" xlink:href="#m49398847a5" y="205.522678"/>
    </g>
   </g>
   <g id="line2d_28">
    <path d="M 333.429677 113.704954 
L 363.933742 289.176341 
" style="fill:none;stroke:#00bfbf;stroke-linecap:square;stroke-width:1.5;"/>
    <g>
     <use style="fill-opacity:0;stroke:#00bfbf;stroke-width:1.5;" x="333.429677" xlink:href="#m691cfe6eca" y="113.704954"/>
     <use style="fill-opacity:0;stroke:#00bfbf;stroke-width:1.5;" x="363.933742" xlink:href="#m691cfe6eca" y="289.176341"/>
    </g>
   </g>
   <g id="line2d_29">
    <path d="M 333.429677 294.88 
L 333.429677 9.697057 
" style="fill:none;stroke:#000000;stroke-linecap:square;stroke-width:1.5;"/>
   </g>
   <g id="patch_3">
    <path d="M 56.12 294.88 
L 56.12 6.845228 
" style="fill:none;stroke:#000000;stroke-linecap:square;stroke-linejoin:miter;stroke-width:0.8;"/>
   </g>
   <g id="patch_4">
    <path d="M 399.984 294.88 
L 399.984 6.845228 
" style="fill:none;stroke:#000000;stroke-linecap:square;stroke-linejoin:miter;stroke-width:0.8;"/>
   </g>
   <g id="patch_5">
    <path d="M 56.12 294.88 
L 399.984 294.88 
" style="fill:none;stroke:#000000;stroke-linecap:square;stroke-linejoin:miter;stroke-width:0.8;"/>
   </g>
   <g id="patch_6">
    <path d="M 56.12 6.845228 
L 399.984 6.845228 
" style="fill:none;stroke:#000000;stroke-linecap:square;stroke-linejoin:miter;stroke-width:0.8;"/>
   </g>
   <g id="text_14">
    <!-- 2-D -->
    <defs>
     <path d="M 19.671875 64.796875 
L 19.671875 8.109375 
L 31.59375 8.109375 
Q 46.6875 8.109375 53.6875 14.9375 
Q 60.6875 21.78125 60.6875 36.53125 
Q 60.6875 51.171875 53.6875 57.984375 
Q 46.6875 64.796875 31.59375 64.796875 
z
M 9.8125 72.90625 
L 30.078125 72.90625 
Q 51.265625 72.90625 61.171875 64.09375 
Q 71.09375 55.28125 71.09375 36.53125 
Q 71.09375 17.671875 61.125 8.828125 
Q 51.171875 0 30.078125 0 
L 9.8125 0 
z
" id="DejaVuSans-44"/>
    </defs>
    <g transform="translate(369.479935 293.867279)scale(0.17 -0.17)">
     <use xlink:href="#DejaVuSans-32"/>
     <use x="63.623047" xlink:href="#DejaVuSans-2d"/>
     <use x="99.707031" xlink:href="#DejaVuSans-44"/>
    </g>
   </g>
   <g id="text_15">
    <!-- bbob f10-f14 -->
    <defs>
     <path d="M 48.6875 27.296875 
Q 48.6875 37.203125 44.609375 42.84375 
Q 40.53125 48.484375 33.40625 48.484375 
Q 26.265625 48.484375 22.1875 42.84375 
Q 18.109375 37.203125 18.109375 27.296875 
Q 18.109375 17.390625 22.1875 11.75 
Q 26.265625 6.109375 33.40625 6.109375 
Q 40.53125 6.109375 44.609375 11.75 
Q 48.6875 17.390625 48.6875 27.296875 
z
M 18.109375 46.390625 
Q 20.953125 51.265625 25.265625 53.625 
Q 29.59375 56 35.59375 56 
Q 45.5625 56 51.78125 48.09375 
Q 58.015625 40.1875 58.015625 27.296875 
Q 58.015625 14.40625 51.78125 6.484375 
Q 45.5625 -1.421875 35.59375 -1.421875 
Q 29.59375 -1.421875 25.265625 0.953125 
Q 20.953125 3.328125 18.109375 8.203125 
L 18.109375 0 
L 9.078125 0 
L 9.078125 75.984375 
L 18.109375 75.984375 
z
" id="DejaVuSans-62"/>
    </defs>
    <g transform="translate(59.55864 17.475982)scale(0.102 -0.102)">
     <use xlink:href="#DejaVuSans-62"/>
     <use x="63.476562" xlink:href="#DejaVuSans-62"/>
     <use x="126.953125" xlink:href="#DejaVuSans-6f"/>
     <use x="188.134766" xlink:href="#DejaVuSans-62"/>
     <use x="251.611328" xlink:href="#DejaVuSans-20"/>
     <use x="283.398438" xlink:href="#DejaVuSans-66"/>
     <use x="318.603516" xlink:href="#DejaVuSans-31"/>
     <use x="382.226562" xlink:href="#DejaVuSans-30"/>
     <use x="445.849609" xlink:href="#DejaVuSans-2d"/>
     <use x="481.933594" xlink:href="#DejaVuSans-66"/>
     <use x="517.138672" xlink:href="#DejaVuSans-31"/>
     <use x="580.761719" xlink:href="#DejaVuSans-34"/>
    </g>
    <!-- 51 targets: 100..1e-08 -->
    <defs>
     <path d="M 10.796875 72.90625 
L 49.515625 72.90625 
L 49.515625 64.59375 
L 19.828125 64.59375 
L 19.828125 46.734375 
Q 21.96875 47.46875 24.109375 47.828125 
Q 26.265625 48.1875 28.421875 48.1875 
Q 40.625 48.1875 47.75 41.5 
Q 54.890625 34.8125 54.890625 23.390625 
Q 54.890625 11.625 47.5625 5.09375 
Q 40.234375 -1.421875 26.90625 -1.421875 
Q 22.3125 -1.421875 17.546875 -0.640625 
Q 12.796875 0.140625 7.71875 1.703125 
L 7.71875 11.625 
Q 12.109375 9.234375 16.796875 8.0625 
Q 21.484375 6.890625 26.703125 6.890625 
Q 35.15625 6.890625 40.078125 11.328125 
Q 45.015625 15.765625 45.015625 23.390625 
Q 45.015625 31 40.078125 35.4375 
Q 35.15625 39.890625 26.703125 39.890625 
Q 22.75 39.890625 18.8125 39.015625 
Q 14.890625 38.140625 10.796875 36.28125 
z
" id="DejaVuSans-35"/>
     <path d="M 11.71875 12.40625 
L 22.015625 12.40625 
L 22.015625 0 
L 11.71875 0 
z
M 11.71875 51.703125 
L 22.015625 51.703125 
L 22.015625 39.3125 
L 11.71875 39.3125 
z
" id="DejaVuSans-3a"/>
    </defs>
    <g transform="translate(59.55864 28.89775)scale(0.102 -0.102)">
     <use xlink:href="#DejaVuSans-35"/>
     <use x="63.623047" xlink:href="#DejaVuSans-31"/>
     <use x="127.246094" xlink:href="#DejaVuSans-20"/>
     <use x="159.033203" xlink:href="#DejaVuSans-74"/>
     <use x="198.242188" xlink:href="#DejaVuSans-61"/>
     <use x="259.521484" xlink:href="#DejaVuSans-72"/>
     <use x="300.619141" xlink:href="#DejaVuSans-67"/>
     <use x="364.095703" xlink:href="#DejaVuSans-65"/>
     <use x="425.619141" xlink:href="#DejaVuSans-74"/>
     <use x="464.828125" xlink:href="#DejaVuSans-73"/>
     <use x="516.927734" xlink:href="#DejaVuSans-3a"/>
     <use x="550.619141" xlink:href="#DejaVuSans-20"/>
     <use x="582.40625" xlink:href="#DejaVuSans-31"/>
     <use x="646.029297" xlink:href="#DejaVuSans-30"/>
     <use x="709.652344" xlink:href="#DejaVuSans-30"/>
     <use x="773.275391" xlink:href="#DejaVuSans-2e"/>
     <use x="805.0625" xlink:href="#DejaVuSans-2e"/>
     <use x="836.849609" xlink:href="#DejaVuSans-31"/>
     <use x="900.472656" xlink:href="#DejaVuSans-65"/>
     <use x="961.996094" xlink:href="#DejaVuSans-2d"/>
     <use x="998.080078" xlink:href="#DejaVuSans-30"/>
     <use x="1061.703125" xlink:href="#DejaVuSans-38"/>
    </g>
    <!-- 15 instances -->
    <g transform="translate(59.55864 40.319519)scale(0.102 -0.102)">
     <use xlink:href="#DejaVuSans-31"/>
     <use x="63.623047" xlink:href="#DejaVuSans-35"/>
     <use x="127.246094" xlink:href="#DejaVuSans-20"/>
     <use x="159.033203" xlink:href="#DejaVuSans-69"/>
     <use x="186.816406" xlink:href="#DejaVuSans-6e"/>
     <use x="250.195312" xlink:href="#DejaVuSans-73"/>
     <use x="302.294922" xlink:href="#DejaVuSans-74"/>
     <use x="341.503906" xlink:href="#DejaVuSans-61"/>
     <use x="402.783203" xlink:href="#DejaVuSans-6e"/>
     <use x="466.162109" xlink:href="#DejaVuSans-63"/>
     <use x="521.142578" xlink:href="#DejaVuSans-65"/>
     <use x="582.666016" xlink:href="#DejaVuSans-73"/>
    </g>
   </g>
   <g id="text_16">
    <!-- v2.2.1.10 -->
    <g style="fill:#808080;" transform="translate(204.419188 289.919965)scale(0.1 -0.1)">
     <use xlink:href="#DejaVuSans-76"/>
     <use x="59.179688" xlink:href="#DejaVuSans-32"/>
     <use x="122.802734" xlink:href="#DejaVuSans-2e"/>
     <use x="154.589844" xlink:href="#DejaVuSans-32"/>
     <use x="218.212891" xlink:href="#DejaVuSans-2e"/>
     <use x="250" xlink:href="#DejaVuSans-31"/>
     <use x="313.623047" xlink:href="#DejaVuSans-2e"/>
     <use x="345.410156" xlink:href="#DejaVuSans-31"/>
     <use x="409.033203" xlink:href="#DejaVuSans-30"/>
    </g>
   </g>
  </g>
 </g>
 <defs>
  <clipPath id="pb99d4dcce9">
   <rect height="288.034772" width="343.864" x="56.12" y="6.845228"/>
  </clipPath>
 </defs>
</svg>
