<?xml version="1.0" encoding="utf-8" standalone="no"?>
<!DOCTYPE svg PUBLIC "-//W3C//DTD SVG 1.1//EN"
  "http://www.w3.org/Graphics/SVG/1.1/DTD/svg11.dtd">
<!-- Created with matplotlib (http://matplotlib.org/) -->
<svg height="345.6pt" version="1.1" viewBox="0 0 460.8 345.6" width="460.8pt" xmlns="http://www.w3.org/2000/svg" xmlns:xlink="http://www.w3.org/1999/xlink">
 <defs>
  <style type="text/css">
*{stroke-linecap:butt;stroke-linejoin:round;}
  </style>
 </defs>
 <g id="figure_1">
  <g id="patch_1">
   <path d="M 0 345.6 
L 460.8 345.6 
L 460.8 0 
L 0 0 
z
" style="fill:#ffffff;"/>
  </g>
  <g id="axes_1">
   <g id="patch_2">
    <path d="M 56.12 294.88 
L 399.984 294.88 
L 399.984 6.845228 
L 56.12 6.845228 
z
" style="fill:#ffffff;"/>
   </g>
   <g id="matplotlib.axis_1">
    <g id="xtick_1">
     <g id="line2d_1">
      <path clip-path="url(#pfe9292fc92)" d="M 56.12 294.88 
L 56.12 6.845228 
" style="fill:none;stroke:#b0b0b0;stroke-linecap:square;stroke-width:0.8;"/>
     </g>
     <g id="line2d_2">
      <defs>
       <path d="M 0 0 
L 0 3.5 
" id="m0d731d8a26" style="stroke:#000000;stroke-width:0.8;"/>
      </defs>
      <g>
       <use style="stroke:#000000;stroke-width:0.8;" x="56.12" xlink:href="#m0d731d8a26" y="294.88"/>
      </g>
     </g>
     <g id="text_1">
      <!-- 0 -->
      <defs>
       <path d="M 31.78125 66.40625 
Q 24.171875 66.40625 20.328125 58.90625 
Q 16.5 51.421875 16.5 36.375 
Q 16.5 21.390625 20.328125 13.890625 
Q 24.171875 6.390625 31.78125 6.390625 
Q 39.453125 6.390625 43.28125 13.890625 
Q 47.125 21.390625 47.125 36.375 
Q 47.125 51.421875 43.28125 58.90625 
Q 39.453125 66.40625 31.78125 66.40625 
z
M 31.78125 74.21875 
Q 44.046875 74.21875 50.515625 64.515625 
Q 56.984375 54.828125 56.984375 36.375 
Q 56.984375 17.96875 50.515625 8.265625 
Q 44.046875 -1.421875 31.78125 -1.421875 
Q 19.53125 -1.421875 13.0625 8.265625 
Q 6.59375 17.96875 6.59375 36.375 
Q 6.59375 54.828125 13.0625 64.515625 
Q 19.53125 74.21875 31.78125 74.21875 
z
" id="DejaVuSans-30"/>
      </defs>
      <g transform="translate(49.7575 317.076875)scale(0.2 -0.2)">
       <use xlink:href="#DejaVuSans-30"/>
      </g>
     </g>
    </g>
    <g id="xtick_2">
     <g id="line2d_3">
      <path clip-path="url(#pfe9292fc92)" d="M 135.351336 294.88 
L 135.351336 6.845228 
" style="fill:none;stroke:#b0b0b0;stroke-linecap:square;stroke-width:0.8;"/>
     </g>
     <g id="line2d_4">
      <g>
       <use style="stroke:#000000;stroke-width:0.8;" x="135.351336" xlink:href="#m0d731d8a26" y="294.88"/>
      </g>
     </g>
     <g id="text_2">
      <!-- 2 -->
      <defs>
       <path d="M 19.1875 8.296875 
L 53.609375 8.296875 
L 53.609375 0 
L 7.328125 0 
L 7.328125 8.296875 
Q 12.9375 14.109375 22.625 23.890625 
Q 32.328125 33.6875 34.8125 36.53125 
Q 39.546875 41.84375 41.421875 45.53125 
Q 43.3125 49.21875 43.3125 52.78125 
Q 43.3125 58.59375 39.234375 62.25 
Q 35.15625 65.921875 28.609375 65.921875 
Q 23.96875 65.921875 18.8125 64.3125 
Q 13.671875 62.703125 7.8125 59.421875 
L 7.8125 69.390625 
Q 13.765625 71.78125 18.9375 73 
Q 24.125 74.21875 28.421875 74.21875 
Q 39.75 74.21875 46.484375 68.546875 
Q 53.21875 62.890625 53.21875 53.421875 
Q 53.21875 48.921875 51.53125 44.890625 
Q 49.859375 40.875 45.40625 35.40625 
Q 44.1875 33.984375 37.640625 27.21875 
Q 31.109375 20.453125 19.1875 8.296875 
z
" id="DejaVuSans-32"/>
      </defs>
      <g transform="translate(128.988836 317.076875)scale(0.2 -0.2)">
       <use xlink:href="#DejaVuSans-32"/>
      </g>
     </g>
    </g>
    <g id="xtick_3">
     <g id="line2d_5">
      <path clip-path="url(#pfe9292fc92)" d="M 214.582673 294.88 
L 214.582673 6.845228 
" style="fill:none;stroke:#b0b0b0;stroke-linecap:square;stroke-width:0.8;"/>
     </g>
     <g id="line2d_6">
      <g>
       <use style="stroke:#000000;stroke-width:0.8;" x="214.582673" xlink:href="#m0d731d8a26" y="294.88"/>
      </g>
     </g>
     <g id="text_3">
      <!-- 4 -->
      <defs>
       <path d="M 37.796875 64.3125 
L 12.890625 25.390625 
L 37.796875 25.390625 
z
M 35.203125 72.90625 
L 47.609375 72.90625 
L 47.609375 25.390625 
L 58.015625 25.390625 
L 58.015625 17.1875 
L 47.609375 17.1875 
L 47.609375 0 
L 37.796875 0 
L 37.796875 17.1875 
L 4.890625 17.1875 
L 4.890625 26.703125 
z
" id="DejaVuSans-34"/>
      </defs>
      <g transform="translate(208.220173 317.076875)scale(0.2 -0.2)">
       <use xlink:href="#DejaVuSans-34"/>
      </g>
     </g>
    </g>
    <g id="xtick_4">
     <g id="line2d_7">
      <path clip-path="url(#pfe9292fc92)" d="M 293.814009 294.88 
L 293.814009 6.845228 
" style="fill:none;stroke:#b0b0b0;stroke-linecap:square;stroke-width:0.8;"/>
     </g>
     <g id="line2d_8">
      <g>
       <use style="stroke:#000000;stroke-width:0.8;" x="293.814009" xlink:href="#m0d731d8a26" y="294.88"/>
      </g>
     </g>
     <g id="text_4">
      <!-- 6 -->
      <defs>
       <path d="M 33.015625 40.375 
Q 26.375 40.375 22.484375 35.828125 
Q 18.609375 31.296875 18.609375 23.390625 
Q 18.609375 15.53125 22.484375 10.953125 
Q 26.375 6.390625 33.015625 6.390625 
Q 39.65625 6.390625 43.53125 10.953125 
Q 47.40625 15.53125 47.40625 23.390625 
Q 47.40625 31.296875 43.53125 35.828125 
Q 39.65625 40.375 33.015625 40.375 
z
M 52.59375 71.296875 
L 52.59375 62.3125 
Q 48.875 64.0625 45.09375 64.984375 
Q 41.3125 65.921875 37.59375 65.921875 
Q 27.828125 65.921875 22.671875 59.328125 
Q 17.53125 52.734375 16.796875 39.40625 
Q 19.671875 43.65625 24.015625 45.921875 
Q 28.375 48.1875 33.59375 48.1875 
Q 44.578125 48.1875 50.953125 41.515625 
Q 57.328125 34.859375 57.328125 23.390625 
Q 57.328125 12.15625 50.6875 5.359375 
Q 44.046875 -1.421875 33.015625 -1.421875 
Q 20.359375 -1.421875 13.671875 8.265625 
Q 6.984375 17.96875 6.984375 36.375 
Q 6.984375 53.65625 15.1875 63.9375 
Q 23.390625 74.21875 37.203125 74.21875 
Q 40.921875 74.21875 44.703125 73.484375 
Q 48.484375 72.75 52.59375 71.296875 
z
" id="DejaVuSans-36"/>
      </defs>
      <g transform="translate(287.451509 317.076875)scale(0.2 -0.2)">
       <use xlink:href="#DejaVuSans-36"/>
      </g>
     </g>
    </g>
    <g id="xtick_5">
     <g id="line2d_9">
      <path clip-path="url(#pfe9292fc92)" d="M 373.045346 294.88 
L 373.045346 6.845228 
" style="fill:none;stroke:#b0b0b0;stroke-linecap:square;stroke-width:0.8;"/>
     </g>
     <g id="line2d_10">
      <g>
       <use style="stroke:#000000;stroke-width:0.8;" x="373.045346" xlink:href="#m0d731d8a26" y="294.88"/>
      </g>
     </g>
     <g id="text_5">
      <!-- 8 -->
      <defs>
       <path d="M 31.78125 34.625 
Q 24.75 34.625 20.71875 30.859375 
Q 16.703125 27.09375 16.703125 20.515625 
Q 16.703125 13.921875 20.71875 10.15625 
Q 24.75 6.390625 31.78125 6.390625 
Q 38.8125 6.390625 42.859375 10.171875 
Q 46.921875 13.96875 46.921875 20.515625 
Q 46.921875 27.09375 42.890625 30.859375 
Q 38.875 34.625 31.78125 34.625 
z
M 21.921875 38.8125 
Q 15.578125 40.375 12.03125 44.71875 
Q 8.5 49.078125 8.5 55.328125 
Q 8.5 64.0625 14.71875 69.140625 
Q 20.953125 74.21875 31.78125 74.21875 
Q 42.671875 74.21875 48.875 69.140625 
Q 55.078125 64.0625 55.078125 55.328125 
Q 55.078125 49.078125 51.53125 44.71875 
Q 48 40.375 41.703125 38.8125 
Q 48.828125 37.15625 52.796875 32.3125 
Q 56.78125 27.484375 56.78125 20.515625 
Q 56.78125 9.90625 50.3125 4.234375 
Q 43.84375 -1.421875 31.78125 -1.421875 
Q 19.734375 -1.421875 13.25 4.234375 
Q 6.78125 9.90625 6.78125 20.515625 
Q 6.78125 27.484375 10.78125 32.3125 
Q 14.796875 37.15625 21.921875 38.8125 
z
M 18.3125 54.390625 
Q 18.3125 48.734375 21.84375 45.5625 
Q 25.390625 42.390625 31.78125 42.390625 
Q 38.140625 42.390625 41.71875 45.5625 
Q 45.3125 48.734375 45.3125 54.390625 
Q 45.3125 60.0625 41.71875 63.234375 
Q 38.140625 66.40625 31.78125 66.40625 
Q 25.390625 66.40625 21.84375 63.234375 
Q 18.3125 60.0625 18.3125 54.390625 
z
" id="DejaVuSans-38"/>
      </defs>
      <g transform="translate(366.682846 317.076875)scale(0.2 -0.2)">
       <use xlink:href="#DejaVuSans-38"/>
      </g>
     </g>
    </g>
    <g id="text_6">
     <!-- log10(# f-evals / dimension) -->
     <defs>
      <path d="M 9.421875 75.984375 
L 18.40625 75.984375 
L 18.40625 0 
L 9.421875 0 
z
" id="DejaVuSans-6c"/>
      <path d="M 30.609375 48.390625 
Q 23.390625 48.390625 19.1875 42.75 
Q 14.984375 37.109375 14.984375 27.296875 
Q 14.984375 17.484375 19.15625 11.84375 
Q 23.34375 6.203125 30.609375 6.203125 
Q 37.796875 6.203125 41.984375 11.859375 
Q 46.1875 17.53125 46.1875 27.296875 
Q 46.1875 37.015625 41.984375 42.703125 
Q 37.796875 48.390625 30.609375 48.390625 
z
M 30.609375 56 
Q 42.328125 56 49.015625 48.375 
Q 55.71875 40.765625 55.71875 27.296875 
Q 55.71875 13.875 49.015625 6.21875 
Q 42.328125 -1.421875 30.609375 -1.421875 
Q 18.84375 -1.421875 12.171875 6.21875 
Q 5.515625 13.875 5.515625 27.296875 
Q 5.515625 40.765625 12.171875 48.375 
Q 18.84375 56 30.609375 56 
z
" id="DejaVuSans-6f"/>
      <path d="M 45.40625 27.984375 
Q 45.40625 37.75 41.375 43.109375 
Q 37.359375 48.484375 30.078125 48.484375 
Q 22.859375 48.484375 18.828125 43.109375 
Q 14.796875 37.75 14.796875 27.984375 
Q 14.796875 18.265625 18.828125 12.890625 
Q 22.859375 7.515625 30.078125 7.515625 
Q 37.359375 7.515625 41.375 12.890625 
Q 45.40625 18.265625 45.40625 27.984375 
z
M 54.390625 6.78125 
Q 54.390625 -7.171875 48.1875 -13.984375 
Q 42 -20.796875 29.203125 -20.796875 
Q 24.46875 -20.796875 20.265625 -20.09375 
Q 16.0625 -19.390625 12.109375 -17.921875 
L 12.109375 -9.1875 
Q 16.0625 -11.328125 19.921875 -12.34375 
Q 23.78125 -13.375 27.78125 -13.375 
Q 36.625 -13.375 41.015625 -8.765625 
Q 45.40625 -4.15625 45.40625 5.171875 
L 45.40625 9.625 
Q 42.625 4.78125 38.28125 2.390625 
Q 33.9375 0 27.875 0 
Q 17.828125 0 11.671875 7.65625 
Q 5.515625 15.328125 5.515625 27.984375 
Q 5.515625 40.671875 11.671875 48.328125 
Q 17.828125 56 27.875 56 
Q 33.9375 56 38.28125 53.609375 
Q 42.625 51.21875 45.40625 46.390625 
L 45.40625 54.6875 
L 54.390625 54.6875 
z
" id="DejaVuSans-67"/>
      <path d="M 12.40625 8.296875 
L 28.515625 8.296875 
L 28.515625 63.921875 
L 10.984375 60.40625 
L 10.984375 69.390625 
L 28.421875 72.90625 
L 38.28125 72.90625 
L 38.28125 8.296875 
L 54.390625 8.296875 
L 54.390625 0 
L 12.40625 0 
z
" id="DejaVuSans-31"/>
      <path d="M 31 75.875 
Q 24.46875 64.65625 21.28125 53.65625 
Q 18.109375 42.671875 18.109375 31.390625 
Q 18.109375 20.125 21.3125 9.0625 
Q 24.515625 -2 31 -13.1875 
L 23.1875 -13.1875 
Q 15.875 -1.703125 12.234375 9.375 
Q 8.59375 20.453125 8.59375 31.390625 
Q 8.59375 42.28125 12.203125 53.3125 
Q 15.828125 64.359375 23.1875 75.875 
z
" id="DejaVuSans-28"/>
      <path d="M 51.125 44 
L 36.921875 44 
L 32.8125 27.6875 
L 47.125 27.6875 
z
M 43.796875 71.78125 
L 38.71875 51.515625 
L 52.984375 51.515625 
L 58.109375 71.78125 
L 65.921875 71.78125 
L 60.890625 51.515625 
L 76.125 51.515625 
L 76.125 44 
L 58.984375 44 
L 54.984375 27.6875 
L 70.515625 27.6875 
L 70.515625 20.21875 
L 53.078125 20.21875 
L 48 0 
L 40.1875 0 
L 45.21875 20.21875 
L 30.90625 20.21875 
L 25.875 0 
L 18.015625 0 
L 23.09375 20.21875 
L 7.71875 20.21875 
L 7.71875 27.6875 
L 24.90625 27.6875 
L 29 44 
L 13.28125 44 
L 13.28125 51.515625 
L 30.90625 51.515625 
L 35.890625 71.78125 
z
" id="DejaVuSans-23"/>
      <path id="DejaVuSans-20"/>
      <path d="M 37.109375 75.984375 
L 37.109375 68.5 
L 28.515625 68.5 
Q 23.6875 68.5 21.796875 66.546875 
Q 19.921875 64.59375 19.921875 59.515625 
L 19.921875 54.6875 
L 34.71875 54.6875 
L 34.71875 47.703125 
L 19.921875 47.703125 
L 19.921875 0 
L 10.890625 0 
L 10.890625 47.703125 
L 2.296875 47.703125 
L 2.296875 54.6875 
L 10.890625 54.6875 
L 10.890625 58.5 
Q 10.890625 67.625 15.140625 71.796875 
Q 19.390625 75.984375 28.609375 75.984375 
z
" id="DejaVuSans-66"/>
      <path d="M 4.890625 31.390625 
L 31.203125 31.390625 
L 31.203125 23.390625 
L 4.890625 23.390625 
z
" id="DejaVuSans-2d"/>
      <path d="M 56.203125 29.59375 
L 56.203125 25.203125 
L 14.890625 25.203125 
Q 15.484375 15.921875 20.484375 11.0625 
Q 25.484375 6.203125 34.421875 6.203125 
Q 39.59375 6.203125 44.453125 7.46875 
Q 49.3125 8.734375 54.109375 11.28125 
L 54.109375 2.78125 
Q 49.265625 0.734375 44.1875 -0.34375 
Q 39.109375 -1.421875 33.890625 -1.421875 
Q 20.796875 -1.421875 13.15625 6.1875 
Q 5.515625 13.8125 5.515625 26.8125 
Q 5.515625 40.234375 12.765625 48.109375 
Q 20.015625 56 32.328125 56 
Q 43.359375 56 49.78125 48.890625 
Q 56.203125 41.796875 56.203125 29.59375 
z
M 47.21875 32.234375 
Q 47.125 39.59375 43.09375 43.984375 
Q 39.0625 48.390625 32.421875 48.390625 
Q 24.90625 48.390625 20.390625 44.140625 
Q 15.875 39.890625 15.1875 32.171875 
z
" id="DejaVuSans-65"/>
      <path d="M 2.984375 54.6875 
L 12.5 54.6875 
L 29.59375 8.796875 
L 46.6875 54.6875 
L 56.203125 54.6875 
L 35.6875 0 
L 23.484375 0 
z
" id="DejaVuSans-76"/>
      <path d="M 34.28125 27.484375 
Q 23.390625 27.484375 19.1875 25 
Q 14.984375 22.515625 14.984375 16.5 
Q 14.984375 11.71875 18.140625 8.90625 
Q 21.296875 6.109375 26.703125 6.109375 
Q 34.1875 6.109375 38.703125 11.40625 
Q 43.21875 16.703125 43.21875 25.484375 
L 43.21875 27.484375 
z
M 52.203125 31.203125 
L 52.203125 0 
L 43.21875 0 
L 43.21875 8.296875 
Q 40.140625 3.328125 35.546875 0.953125 
Q 30.953125 -1.421875 24.3125 -1.421875 
Q 15.921875 -1.421875 10.953125 3.296875 
Q 6 8.015625 6 15.921875 
Q 6 25.140625 12.171875 29.828125 
Q 18.359375 34.515625 30.609375 34.515625 
L 43.21875 34.515625 
L 43.21875 35.40625 
Q 43.21875 41.609375 39.140625 45 
Q 35.0625 48.390625 27.6875 48.390625 
Q 23 48.390625 18.546875 47.265625 
Q 14.109375 46.140625 10.015625 43.890625 
L 10.015625 52.203125 
Q 14.9375 54.109375 19.578125 55.046875 
Q 24.21875 56 28.609375 56 
Q 40.484375 56 46.34375 49.84375 
Q 52.203125 43.703125 52.203125 31.203125 
z
" id="DejaVuSans-61"/>
      <path d="M 44.28125 53.078125 
L 44.28125 44.578125 
Q 40.484375 46.53125 36.375 47.5 
Q 32.28125 48.484375 27.875 48.484375 
Q 21.1875 48.484375 17.84375 46.4375 
Q 14.5 44.390625 14.5 40.28125 
Q 14.5 37.15625 16.890625 35.375 
Q 19.28125 33.59375 26.515625 31.984375 
L 29.59375 31.296875 
Q 39.15625 29.25 43.1875 25.515625 
Q 47.21875 21.78125 47.21875 15.09375 
Q 47.21875 7.46875 41.1875 3.015625 
Q 35.15625 -1.421875 24.609375 -1.421875 
Q 20.21875 -1.421875 15.453125 -0.5625 
Q 10.6875 0.296875 5.421875 2 
L 5.421875 11.28125 
Q 10.40625 8.6875 15.234375 7.390625 
Q 20.0625 6.109375 24.8125 6.109375 
Q 31.15625 6.109375 34.5625 8.28125 
Q 37.984375 10.453125 37.984375 14.40625 
Q 37.984375 18.0625 35.515625 20.015625 
Q 33.0625 21.96875 24.703125 23.78125 
L 21.578125 24.515625 
Q 13.234375 26.265625 9.515625 29.90625 
Q 5.8125 33.546875 5.8125 39.890625 
Q 5.8125 47.609375 11.28125 51.796875 
Q 16.75 56 26.8125 56 
Q 31.78125 56 36.171875 55.265625 
Q 40.578125 54.546875 44.28125 53.078125 
z
" id="DejaVuSans-73"/>
      <path d="M 25.390625 72.90625 
L 33.6875 72.90625 
L 8.296875 -9.28125 
L 0 -9.28125 
z
" id="DejaVuSans-2f"/>
      <path d="M 45.40625 46.390625 
L 45.40625 75.984375 
L 54.390625 75.984375 
L 54.390625 0 
L 45.40625 0 
L 45.40625 8.203125 
Q 42.578125 3.328125 38.25 0.953125 
Q 33.9375 -1.421875 27.875 -1.421875 
Q 17.96875 -1.421875 11.734375 6.484375 
Q 5.515625 14.40625 5.515625 27.296875 
Q 5.515625 40.1875 11.734375 48.09375 
Q 17.96875 56 27.875 56 
Q 33.9375 56 38.25 53.625 
Q 42.578125 51.265625 45.40625 46.390625 
z
M 14.796875 27.296875 
Q 14.796875 17.390625 18.875 11.75 
Q 22.953125 6.109375 30.078125 6.109375 
Q 37.203125 6.109375 41.296875 11.75 
Q 45.40625 17.390625 45.40625 27.296875 
Q 45.40625 37.203125 41.296875 42.84375 
Q 37.203125 48.484375 30.078125 48.484375 
Q 22.953125 48.484375 18.875 42.84375 
Q 14.796875 37.203125 14.796875 27.296875 
z
" id="DejaVuSans-64"/>
      <path d="M 9.421875 54.6875 
L 18.40625 54.6875 
L 18.40625 0 
L 9.421875 0 
z
M 9.421875 75.984375 
L 18.40625 75.984375 
L 18.40625 64.59375 
L 9.421875 64.59375 
z
" id="DejaVuSans-69"/>
      <path d="M 52 44.1875 
Q 55.375 50.25 60.0625 53.125 
Q 64.75 56 71.09375 56 
Q 79.640625 56 84.28125 50.015625 
Q 88.921875 44.046875 88.921875 33.015625 
L 88.921875 0 
L 79.890625 0 
L 79.890625 32.71875 
Q 79.890625 40.578125 77.09375 44.375 
Q 74.3125 48.1875 68.609375 48.1875 
Q 61.625 48.1875 57.5625 43.546875 
Q 53.515625 38.921875 53.515625 30.90625 
L 53.515625 0 
L 44.484375 0 
L 44.484375 32.71875 
Q 44.484375 40.625 41.703125 44.40625 
Q 38.921875 48.1875 33.109375 48.1875 
Q 26.21875 48.1875 22.15625 43.53125 
Q 18.109375 38.875 18.109375 30.90625 
L 18.109375 0 
L 9.078125 0 
L 9.078125 54.6875 
L 18.109375 54.6875 
L 18.109375 46.1875 
Q 21.1875 51.21875 25.484375 53.609375 
Q 29.78125 56 35.6875 56 
Q 41.65625 56 45.828125 52.96875 
Q 50 49.953125 52 44.1875 
z
" id="DejaVuSans-6d"/>
      <path d="M 54.890625 33.015625 
L 54.890625 0 
L 45.90625 0 
L 45.90625 32.71875 
Q 45.90625 40.484375 42.875 44.328125 
Q 39.84375 48.1875 33.796875 48.1875 
Q 26.515625 48.1875 22.3125 43.546875 
Q 18.109375 38.921875 18.109375 30.90625 
L 18.109375 0 
L 9.078125 0 
L 9.078125 54.6875 
L 18.109375 54.6875 
L 18.109375 46.1875 
Q 21.34375 51.125 25.703125 53.5625 
Q 30.078125 56 35.796875 56 
Q 45.21875 56 50.046875 50.171875 
Q 54.890625 44.34375 54.890625 33.015625 
z
" id="DejaVuSans-6e"/>
      <path d="M 8.015625 75.875 
L 15.828125 75.875 
Q 23.140625 64.359375 26.78125 53.3125 
Q 30.421875 42.28125 30.421875 31.390625 
Q 30.421875 20.453125 26.78125 9.375 
Q 23.140625 -1.703125 15.828125 -13.1875 
L 8.015625 -13.1875 
Q 14.5 -2 17.703125 9.0625 
Q 20.90625 20.125 20.90625 31.390625 
Q 20.90625 42.671875 17.703125 53.65625 
Q 14.5 64.65625 8.015625 75.875 
z
" id="DejaVuSans-29"/>
     </defs>
     <g transform="translate(107.211219 338.153594)scale(0.17 -0.17)">
      <use xlink:href="#DejaVuSans-6c"/>
      <use x="27.783203" xlink:href="#DejaVuSans-6f"/>
      <use x="88.964844" xlink:href="#DejaVuSans-67"/>
      <use x="152.441406" xlink:href="#DejaVuSans-31"/>
      <use x="216.064453" xlink:href="#DejaVuSans-30"/>
      <use x="279.6875" xlink:href="#DejaVuSans-28"/>
      <use x="318.701172" xlink:href="#DejaVuSans-23"/>
      <use x="402.490234" xlink:href="#DejaVuSans-20"/>
      <use x="434.277344" xlink:href="#DejaVuSans-66"/>
      <use x="469.404297" xlink:href="#DejaVuSans-2d"/>
      <use x="505.488281" xlink:href="#DejaVuSans-65"/>
      <use x="567.011719" xlink:href="#DejaVuSans-76"/>
      <use x="626.191406" xlink:href="#DejaVuSans-61"/>
      <use x="687.470703" xlink:href="#DejaVuSans-6c"/>
      <use x="715.253906" xlink:href="#DejaVuSans-73"/>
      <use x="767.353516" xlink:href="#DejaVuSans-20"/>
      <use x="799.140625" xlink:href="#DejaVuSans-2f"/>
      <use x="832.832031" xlink:href="#DejaVuSans-20"/>
      <use x="864.619141" xlink:href="#DejaVuSans-64"/>
      <use x="928.095703" xlink:href="#DejaVuSans-69"/>
      <use x="955.878906" xlink:href="#DejaVuSans-6d"/>
      <use x="1053.291016" xlink:href="#DejaVuSans-65"/>
      <use x="1114.814453" xlink:href="#DejaVuSans-6e"/>
      <use x="1178.193359" xlink:href="#DejaVuSans-73"/>
      <use x="1230.292969" xlink:href="#DejaVuSans-69"/>
      <use x="1258.076172" xlink:href="#DejaVuSans-6f"/>
      <use x="1319.257812" xlink:href="#DejaVuSans-6e"/>
      <use x="1382.636719" xlink:href="#DejaVuSans-29"/>
     </g>
    </g>
   </g>
   <g id="matplotlib.axis_2">
    <g id="ytick_1">
     <g id="line2d_11">
      <path clip-path="url(#pfe9292fc92)" d="M 56.12 294.88 
L 399.984 294.88 
" style="fill:none;stroke:#b0b0b0;stroke-linecap:square;stroke-width:0.8;"/>
     </g>
     <g id="line2d_12">
      <defs>
       <path d="M 0 0 
L -3.5 0 
" id="mef56d40a38" style="stroke:#000000;stroke-width:0.8;"/>
      </defs>
      <g>
       <use style="stroke:#000000;stroke-width:0.8;" x="56.12" xlink:href="#mef56d40a38" y="294.88"/>
      </g>
     </g>
     <g id="text_7">
      <!-- 0.0 -->
      <defs>
       <path d="M 10.6875 12.40625 
L 21 12.40625 
L 21 0 
L 10.6875 0 
z
" id="DejaVuSans-2e"/>
      </defs>
      <g transform="translate(23.675 300.95875)scale(0.16 -0.16)">
       <use xlink:href="#DejaVuSans-30"/>
       <use x="63.623047" xlink:href="#DejaVuSans-2e"/>
       <use x="95.410156" xlink:href="#DejaVuSans-30"/>
      </g>
     </g>
    </g>
    <g id="ytick_2">
     <g id="line2d_13">
      <path clip-path="url(#pfe9292fc92)" d="M 56.12 237.843411 
L 399.984 237.843411 
" style="fill:none;stroke:#b0b0b0;stroke-linecap:square;stroke-width:0.8;"/>
     </g>
     <g id="line2d_14">
      <g>
       <use style="stroke:#000000;stroke-width:0.8;" x="56.12" xlink:href="#mef56d40a38" y="237.843411"/>
      </g>
     </g>
     <g id="text_8">
      <!-- 0.2 -->
      <g transform="translate(23.675 243.922161)scale(0.16 -0.16)">
       <use xlink:href="#DejaVuSans-30"/>
       <use x="63.623047" xlink:href="#DejaVuSans-2e"/>
       <use x="95.410156" xlink:href="#DejaVuSans-32"/>
      </g>
     </g>
    </g>
    <g id="ytick_3">
     <g id="line2d_15">
      <path clip-path="url(#pfe9292fc92)" d="M 56.12 180.806823 
L 399.984 180.806823 
" style="fill:none;stroke:#b0b0b0;stroke-linecap:square;stroke-width:0.8;"/>
     </g>
     <g id="line2d_16">
      <g>
       <use style="stroke:#000000;stroke-width:0.8;" x="56.12" xlink:href="#mef56d40a38" y="180.806823"/>
      </g>
     </g>
     <g id="text_9">
      <!-- 0.4 -->
      <g transform="translate(23.675 186.885573)scale(0.16 -0.16)">
       <use xlink:href="#DejaVuSans-30"/>
       <use x="63.623047" xlink:href="#DejaVuSans-2e"/>
       <use x="95.410156" xlink:href="#DejaVuSans-34"/>
      </g>
     </g>
    </g>
    <g id="ytick_4">
     <g id="line2d_17">
      <path clip-path="url(#pfe9292fc92)" d="M 56.12 123.770234 
L 399.984 123.770234 
" style="fill:none;stroke:#b0b0b0;stroke-linecap:square;stroke-width:0.8;"/>
     </g>
     <g id="line2d_18">
      <g>
       <use style="stroke:#000000;stroke-width:0.8;" x="56.12" xlink:href="#mef56d40a38" y="123.770234"/>
      </g>
     </g>
     <g id="text_10">
      <!-- 0.6 -->
      <g transform="translate(23.675 129.848984)scale(0.16 -0.16)">
       <use xlink:href="#DejaVuSans-30"/>
       <use x="63.623047" xlink:href="#DejaVuSans-2e"/>
       <use x="95.410156" xlink:href="#DejaVuSans-36"/>
      </g>
     </g>
    </g>
    <g id="ytick_5">
     <g id="line2d_19">
      <path clip-path="url(#pfe9292fc92)" d="M 56.12 66.733646 
L 399.984 66.733646 
" style="fill:none;stroke:#b0b0b0;stroke-linecap:square;stroke-width:0.8;"/>
     </g>
     <g id="line2d_20">
      <g>
       <use style="stroke:#000000;stroke-width:0.8;" x="56.12" xlink:href="#mef56d40a38" y="66.733646"/>
      </g>
     </g>
     <g id="text_11">
      <!-- 0.8 -->
      <g transform="translate(23.675 72.812396)scale(0.16 -0.16)">
       <use xlink:href="#DejaVuSans-30"/>
       <use x="63.623047" xlink:href="#DejaVuSans-2e"/>
       <use x="95.410156" xlink:href="#DejaVuSans-38"/>
      </g>
     </g>
    </g>
    <g id="ytick_6">
     <g id="line2d_21">
      <path clip-path="url(#pfe9292fc92)" d="M 56.12 9.697057 
L 399.984 9.697057 
" style="fill:none;stroke:#b0b0b0;stroke-linecap:square;stroke-width:0.8;"/>
     </g>
     <g id="line2d_22">
      <g>
       <use style="stroke:#000000;stroke-width:0.8;" x="56.12" xlink:href="#mef56d40a38" y="9.697057"/>
      </g>
     </g>
     <g id="text_12">
      <!-- 1.0 -->
      <g transform="translate(23.675 15.775807)scale(0.16 -0.16)">
       <use xlink:href="#DejaVuSans-31"/>
       <use x="63.623047" xlink:href="#DejaVuSans-2e"/>
       <use x="95.410156" xlink:href="#DejaVuSans-30"/>
      </g>
     </g>
    </g>
    <g id="text_13">
     <!-- Fraction of function,target pairs -->
     <defs>
      <path d="M 9.8125 72.90625 
L 51.703125 72.90625 
L 51.703125 64.59375 
L 19.671875 64.59375 
L 19.671875 43.109375 
L 48.578125 43.109375 
L 48.578125 34.8125 
L 19.671875 34.8125 
L 19.671875 0 
L 9.8125 0 
z
" id="DejaVuSans-46"/>
      <path d="M 41.109375 46.296875 
Q 39.59375 47.171875 37.8125 47.578125 
Q 36.03125 48 33.890625 48 
Q 26.265625 48 22.1875 43.046875 
Q 18.109375 38.09375 18.109375 28.8125 
L 18.109375 0 
L 9.078125 0 
L 9.078125 54.6875 
L 18.109375 54.6875 
L 18.109375 46.1875 
Q 20.953125 51.171875 25.484375 53.578125 
Q 30.03125 56 36.53125 56 
Q 37.453125 56 38.578125 55.875 
Q 39.703125 55.765625 41.0625 55.515625 
z
" id="DejaVuSans-72"/>
      <path d="M 48.78125 52.59375 
L 48.78125 44.1875 
Q 44.96875 46.296875 41.140625 47.34375 
Q 37.3125 48.390625 33.40625 48.390625 
Q 24.65625 48.390625 19.8125 42.84375 
Q 14.984375 37.3125 14.984375 27.296875 
Q 14.984375 17.28125 19.8125 11.734375 
Q 24.65625 6.203125 33.40625 6.203125 
Q 37.3125 6.203125 41.140625 7.25 
Q 44.96875 8.296875 48.78125 10.40625 
L 48.78125 2.09375 
Q 45.015625 0.34375 40.984375 -0.53125 
Q 36.96875 -1.421875 32.421875 -1.421875 
Q 20.0625 -1.421875 12.78125 6.34375 
Q 5.515625 14.109375 5.515625 27.296875 
Q 5.515625 40.671875 12.859375 48.328125 
Q 20.21875 56 33.015625 56 
Q 37.15625 56 41.109375 55.140625 
Q 45.0625 54.296875 48.78125 52.59375 
z
" id="DejaVuSans-63"/>
      <path d="M 18.3125 70.21875 
L 18.3125 54.6875 
L 36.8125 54.6875 
L 36.8125 47.703125 
L 18.3125 47.703125 
L 18.3125 18.015625 
Q 18.3125 11.328125 20.140625 9.421875 
Q 21.96875 7.515625 27.59375 7.515625 
L 36.8125 7.515625 
L 36.8125 0 
L 27.59375 0 
Q 17.1875 0 13.234375 3.875 
Q 9.28125 7.765625 9.28125 18.015625 
L 9.28125 47.703125 
L 2.6875 47.703125 
L 2.6875 54.6875 
L 9.28125 54.6875 
L 9.28125 70.21875 
z
" id="DejaVuSans-74"/>
      <path d="M 8.5 21.578125 
L 8.5 54.6875 
L 17.484375 54.6875 
L 17.484375 21.921875 
Q 17.484375 14.15625 20.5 10.265625 
Q 23.53125 6.390625 29.59375 6.390625 
Q 36.859375 6.390625 41.078125 11.03125 
Q 45.3125 15.671875 45.3125 23.6875 
L 45.3125 54.6875 
L 54.296875 54.6875 
L 54.296875 0 
L 45.3125 0 
L 45.3125 8.40625 
Q 42.046875 3.421875 37.71875 1 
Q 33.40625 -1.421875 27.6875 -1.421875 
Q 18.265625 -1.421875 13.375 4.4375 
Q 8.5 10.296875 8.5 21.578125 
z
M 31.109375 56 
z
" id="DejaVuSans-75"/>
      <path d="M 11.71875 12.40625 
L 22.015625 12.40625 
L 22.015625 4 
L 14.015625 -11.625 
L 7.71875 -11.625 
L 11.71875 4 
z
" id="DejaVuSans-2c"/>
      <path d="M 18.109375 8.203125 
L 18.109375 -20.796875 
L 9.078125 -20.796875 
L 9.078125 54.6875 
L 18.109375 54.6875 
L 18.109375 46.390625 
Q 20.953125 51.265625 25.265625 53.625 
Q 29.59375 56 35.59375 56 
Q 45.5625 56 51.78125 48.09375 
Q 58.015625 40.1875 58.015625 27.296875 
Q 58.015625 14.40625 51.78125 6.484375 
Q 45.5625 -1.421875 35.59375 -1.421875 
Q 29.59375 -1.421875 25.265625 0.953125 
Q 20.953125 3.328125 18.109375 8.203125 
z
M 48.6875 27.296875 
Q 48.6875 37.203125 44.609375 42.84375 
Q 40.53125 48.484375 33.40625 48.484375 
Q 26.265625 48.484375 22.1875 42.84375 
Q 18.109375 37.203125 18.109375 27.296875 
Q 18.109375 17.390625 22.1875 11.75 
Q 26.265625 6.109375 33.40625 6.109375 
Q 40.53125 6.109375 44.609375 11.75 
Q 48.6875 17.390625 48.6875 27.296875 
z
" id="DejaVuSans-70"/>
     </defs>
     <g transform="translate(16.139531 286.001989)rotate(-90)scale(0.17 -0.17)">
      <use xlink:href="#DejaVuSans-46"/>
      <use x="57.410156" xlink:href="#DejaVuSans-72"/>
      <use x="98.523438" xlink:href="#DejaVuSans-61"/>
      <use x="159.802734" xlink:href="#DejaVuSans-63"/>
      <use x="214.783203" xlink:href="#DejaVuSans-74"/>
      <use x="253.992188" xlink:href="#DejaVuSans-69"/>
      <use x="281.775391" xlink:href="#DejaVuSans-6f"/>
      <use x="342.957031" xlink:href="#DejaVuSans-6e"/>
      <use x="406.335938" xlink:href="#DejaVuSans-20"/>
      <use x="438.123047" xlink:href="#DejaVuSans-6f"/>
      <use x="499.304688" xlink:href="#DejaVuSans-66"/>
      <use x="534.509766" xlink:href="#DejaVuSans-20"/>
      <use x="566.296875" xlink:href="#DejaVuSans-66"/>
      <use x="601.501953" xlink:href="#DejaVuSans-75"/>
      <use x="664.880859" xlink:href="#DejaVuSans-6e"/>
      <use x="728.259766" xlink:href="#DejaVuSans-63"/>
      <use x="783.240234" xlink:href="#DejaVuSans-74"/>
      <use x="822.449219" xlink:href="#DejaVuSans-69"/>
      <use x="850.232422" xlink:href="#DejaVuSans-6f"/>
      <use x="911.414062" xlink:href="#DejaVuSans-6e"/>
      <use x="974.792969" xlink:href="#DejaVuSans-2c"/>
      <use x="1006.580078" xlink:href="#DejaVuSans-74"/>
      <use x="1045.789062" xlink:href="#DejaVuSans-61"/>
      <use x="1107.068359" xlink:href="#DejaVuSans-72"/>
      <use x="1148.166016" xlink:href="#DejaVuSans-67"/>
      <use x="1211.642578" xlink:href="#DejaVuSans-65"/>
      <use x="1273.166016" xlink:href="#DejaVuSans-74"/>
      <use x="1312.375" xlink:href="#DejaVuSans-20"/>
      <use x="1344.162109" xlink:href="#DejaVuSans-70"/>
      <use x="1407.638672" xlink:href="#DejaVuSans-61"/>
      <use x="1468.917969" xlink:href="#DejaVuSans-69"/>
      <use x="1496.701172" xlink:href="#DejaVuSans-72"/>
      <use x="1537.814453" xlink:href="#DejaVuSans-73"/>
     </g>
    </g>
   </g>
   <g id="line2d_23">
    <defs>
     <path d="M 0 1.5 
C 0.397805 1.5 0.77937 1.341951 1.06066 1.06066 
C 1.341951 0.77937 1.5 0.397805 1.5 0 
C 1.5 -0.397805 1.341951 -0.77937 1.06066 -1.06066 
C 0.77937 -1.341951 0.397805 -1.5 0 -1.5 
C -0.397805 -1.5 -0.77937 -1.341951 -1.06066 -1.06066 
C -1.341951 -0.77937 -1.5 -0.397805 -1.5 0 
C -1.5 0.397805 -1.341951 0.77937 -1.06066 1.06066 
C -0.77937 1.341951 -0.397805 1.5 0 1.5 
z
" id="m1ab1e9b67c" style="stroke:#00bfbf;"/>
    </defs>
    <g>
     <use style="fill:#00bfbf;stroke:#00bfbf;" x="274.978404" xlink:href="#m1ab1e9b67c" y="57.78673"/>
     <use style="fill:#00bfbf;stroke:#00bfbf;" x="274.978404" xlink:href="#m1ab1e9b67c" y="57.78673"/>
    </g>
   </g>
   <g id="line2d_24">
    <path d="M 56.12 294.88 
L 56.12 285.485738 
L 68.045504 285.485738 
L 68.045504 278.663715 
L 75.021477 278.663715 
L 75.021477 274.973112 
L 79.971009 274.973112 
L 79.971009 273.295566 
L 83.810164 273.295566 
L 83.810164 272.177201 
L 86.946982 272.177201 
L 86.946982 270.275981 
L 89.599124 270.275981 
L 89.599124 269.04578 
L 91.896513 269.04578 
L 91.896513 267.591907 
L 93.922955 267.591907 
L 93.922955 266.473542 
L 95.735668 266.473542 
L 95.735668 265.467014 
L 97.375467 265.467014 
L 97.375467 264.684159 
L 98.872486 264.684159 
L 98.872486 263.789467 
L 100.24961 263.789467 
L 100.24961 262.894776 
L 101.524628 262.894776 
L 101.524628 262.559266 
L 102.711641 262.559266 
L 102.711641 261.440902 
L 103.822018 261.440902 
L 103.822018 261.217229 
L 104.865056 261.217229 
L 104.865056 261.105393 
L 105.848459 261.105393 
L 105.848459 260.993556 
L 106.778678 260.993556 
L 106.778678 260.658047 
L 108.500601 260.658047 
L 108.500601 260.098865 
L 109.300972 260.098865 
L 109.300972 259.204173 
L 110.065758 259.204173 
L 110.065758 259.092337 
L 110.797991 259.092337 
L 110.797991 258.421318 
L 111.500328 258.421318 
L 111.500328 257.750299 
L 112.175115 257.750299 
L 112.175115 257.526626 
L 112.824432 257.526626 
L 112.824432 257.302953 
L 113.450132 257.302953 
L 113.450132 256.855608 
L 115.20129 256.855608 
L 115.20129 256.743771 
L 115.747522 256.743771 
L 115.747522 256.520098 
L 116.276944 256.520098 
L 116.276944 256.184589 
L 116.790561 256.184589 
L 116.790561 255.960916 
L 117.289287 255.960916 
L 117.289287 255.84908 
L 117.773963 255.84908 
L 117.773963 255.737243 
L 118.245359 255.737243 
L 118.245359 255.066224 
L 118.704183 255.066224 
L 118.704183 254.618879 
L 119.586677 254.618879 
L 119.586677 254.395206 
L 120.426105 254.395206 
L 120.426105 253.836024 
L 120.830944 253.836024 
L 120.830944 253.165005 
L 121.226476 253.165005 
L 121.226476 252.829495 
L 121.613118 252.829495 
L 121.613118 252.605823 
L 122.723495 252.605823 
L 122.723495 252.493986 
L 123.078247 252.493986 
L 123.078247 251.934804 
L 123.425832 251.934804 
L 123.425832 249.921748 
L 123.766534 249.921748 
L 123.766534 249.362566 
L 124.100619 249.362566 
L 124.100619 249.138893 
L 124.428341 249.138893 
L 124.428341 247.908692 
L 124.749936 247.908692 
L 124.749936 246.678491 
L 125.065631 246.678491 
L 125.065631 246.566654 
L 125.680156 246.566654 
L 125.680156 246.007472 
L 125.979378 246.007472 
L 125.979378 244.777271 
L 126.273486 244.777271 
L 126.273486 244.441762 
L 126.56265 244.441762 
L 126.56265 243.88258 
L 127.402078 243.88258 
L 127.402078 243.658907 
L 128.202449 243.658907 
L 128.202449 243.211561 
L 128.461173 243.211561 
L 128.461173 242.987888 
L 128.716065 242.987888 
L 128.716065 242.876052 
L 128.967235 242.876052 
L 128.967235 242.316869 
L 129.214792 242.316869 
L 129.214792 242.093196 
L 129.458837 242.093196 
L 129.458837 241.645851 
L 129.699468 241.645851 
L 129.699468 241.534014 
L 130.401805 241.534014 
L 130.401805 241.422178 
L 131.295765 241.422178 
L 131.295765 241.310341 
L 132.35161 241.310341 
L 132.35161 241.086668 
L 133.916767 241.086668 
L 133.916767 240.751159 
L 134.82729 240.751159 
L 134.82729 240.41565 
L 135.003752 240.41565 
L 135.003752 240.303813 
L 135.859892 240.303813 
L 135.859892 239.297285 
L 136.026124 239.297285 
L 136.026124 238.738103 
L 136.190765 238.738103 
L 136.190765 237.396066 
L 136.353845 237.396066 
L 136.353845 236.165865 
L 136.515394 236.165865 
L 136.515394 235.606682 
L 136.675441 235.606682 
L 136.675441 234.711991 
L 136.834012 234.711991 
L 136.834012 234.488318 
L 136.991135 234.488318 
L 136.991135 234.152809 
L 137.146836 234.152809 
L 137.146836 233.48179 
L 137.301141 233.48179 
L 137.301141 233.034444 
L 137.454074 233.034444 
L 137.454074 232.698935 
L 137.904883 232.698935 
L 137.904883 231.692407 
L 138.19899 231.692407 
L 138.19899 231.468734 
L 138.34418 231.468734 
L 138.34418 231.021388 
L 138.630934 231.021388 
L 138.630934 230.685879 
L 139.190491 230.685879 
L 139.190491 230.574042 
L 139.327583 230.574042 
L 139.327583 230.462206 
L 139.997117 230.462206 
L 139.997117 230.350369 
L 140.127953 230.350369 
L 140.127953 230.238533 
L 140.257802 230.238533 
L 140.257802 230.01486 
L 140.386678 230.01486 
L 140.386678 229.791187 
L 140.514596 229.791187 
L 140.514596 229.455678 
L 141.140296 229.455678 
L 141.140296 229.343841 
L 141.262751 229.343841 
L 141.262751 229.008332 
L 141.384341 229.008332 
L 141.384341 228.560986 
L 141.862285 228.560986 
L 141.862285 228.225477 
L 141.979724 228.225477 
L 141.979724 228.11364 
L 142.096368 228.11364 
L 142.096368 228.001804 
L 142.891454 228.001804 
L 142.891454 227.554458 
L 143.22127 227.554458 
L 143.329818 225.765075 
L 143.437686 225.765075 
L 143.544882 225.541402 
L 143.651414 225.541402 
L 143.651414 225.429566 
L 143.967108 225.429566 
L 144.071065 224.646711 
L 144.174398 224.646711 
L 144.277114 224.311201 
L 144.37922 224.311201 
L 144.37922 224.087528 
L 144.581633 224.087528 
L 144.681953 223.752019 
L 144.979451 223.752019 
L 144.979451 223.304673 
L 145.464127 223.304673 
L 145.464127 223.081 
L 145.654238 223.081 
L 145.654238 222.521818 
L 146.212283 222.521818 
L 146.212283 222.409982 
L 146.574504 222.409982 
L 146.574504 222.298145 
L 146.752794 222.298145 
L 146.752794 221.403454 
L 147.016813 221.403454 
L 147.103926 220.956108 
L 147.190601 220.956108 
L 147.190601 220.732435 
L 147.362651 220.732435 
L 147.362651 220.396926 
L 147.617542 220.396926 
L 147.617542 220.061416 
L 147.868713 220.061416 
L 147.868713 219.61407 
L 148.034145 219.61407 
L 148.116269 218.383869 
L 148.27935 218.383869 
L 148.360314 217.601014 
L 148.521108 217.601014 
L 148.521108 217.377341 
L 148.91664 217.377341 
L 148.91664 217.265505 
L 149.072341 217.265505 
L 149.149666 216.594486 
L 149.830387 216.594486 
L 149.904387 216.14714 
L 150.051438 216.14714 
L 150.051438 215.811631 
L 150.197243 215.811631 
L 150.197243 215.587958 
L 150.413659 215.587958 
L 150.413659 215.476122 
L 150.556439 215.476122 
L 150.556439 215.364285 
L 150.768411 215.364285 
L 150.838492 214.58143 
L 151.047038 214.58143 
L 151.047038 214.357757 
L 151.389095 214.357757 
L 151.456697 213.686739 
L 151.724483 213.686739 
L 151.790783 212.903883 
L 151.856829 212.903883 
L 151.922622 211.673683 
L 151.988164 211.673683 
L 151.988164 211.561846 
L 152.118505 211.561846 
L 152.183306 211.338173 
L 152.247865 211.338173 
L 152.247865 211.002664 
L 152.503704 211.002664 
L 152.503704 210.890827 
L 152.755795 210.890827 
L 152.818244 209.996136 
L 152.880468 209.996136 
L 152.942468 209.772463 
L 153.004245 209.772463 
L 153.004245 209.660626 
L 153.127137 209.660626 
L 153.188256 209.213281 
L 153.309845 209.213281 
L 153.309845 208.654098 
L 154.195368 208.654098 
L 154.252814 208.206753 
L 154.367132 208.206753 
L 154.367132 207.64757 
L 154.872368 207.64757 
L 154.872368 207.088388 
L 155.037536 207.088388 
L 155.146774 206.864715 
L 155.201134 206.864715 
L 155.255322 205.746351 
L 155.36319 205.746351 
L 155.416872 205.522678 
L 155.576918 205.522678 
L 155.629938 205.075332 
L 155.788023 205.075332 
L 155.840397 204.404313 
L 155.99657 204.404313 
L 156.048314 203.733295 
L 156.151337 203.733295 
L 156.151337 203.621458 
L 156.304725 203.621458 
L 156.304725 203.509622 
L 156.456757 203.509622 
L 156.557371 202.95044 
L 156.707196 202.95044 
L 156.707196 202.391257 
L 157.051797 202.391257 
L 157.051797 202.279421 
L 157.532411 202.279421 
L 157.626944 201.943912 
L 157.674016 201.943912 
L 157.767776 201.384729 
L 157.814465 201.384729 
L 157.861027 200.937384 
L 157.953776 200.937384 
L 157.999964 200.378201 
L 158.091969 200.378201 
L 158.091969 200.042692 
L 158.22906 200.042692 
L 158.274515 199.259837 
L 158.410165 199.259837 
L 158.410165 198.924327 
L 158.766756 198.924327 
L 158.810814 198.365145 
L 158.985929 198.365145 
L 158.985929 198.253309 
L 159.159279 198.253309 
L 159.159279 198.141472 
L 159.835725 198.141472 
L 159.918441 197.805963 
L 160.000761 197.805963 
L 160.041774 196.128416 
L 160.123507 196.128416 
L 160.123507 196.01658 
L 160.245384 196.01658 
L 160.326158 195.345561 
L 160.406555 195.345561 
L 160.446613 195.121888 
L 160.842144 195.121888 
L 160.842144 195.010052 
L 161.036551 195.010052 
L 161.036551 194.898215 
L 161.190511 194.898215 
L 161.190511 194.674542 
L 161.456669 194.674542 
L 161.456669 194.562706 
L 161.718772 194.562706 
L 161.718772 194.227197 
L 161.976942 194.227197 
L 162.013509 193.332505 
L 162.122747 193.332505 
L 162.231295 192.54965 
L 162.517454 192.54965 
L 162.588256 192.325977 
L 162.903308 192.325977 
L 162.972543 191.431285 
L 163.280698 191.431285 
L 163.280698 190.760267 
L 163.44954 190.760267 
L 163.516615 190.536594 
L 163.583431 190.536594 
L 163.683169 189.753739 
L 163.716287 189.753739 
L 163.815261 189.08272 
L 163.880928 189.08272 
L 163.913668 188.523538 
L 164.011516 188.523538 
L 164.011516 188.299865 
L 164.205558 188.299865 
L 164.205558 187.628846 
L 164.333714 187.628846 
L 164.397436 187.1815 
L 164.867972 187.1815 
L 164.960555 186.845991 
L 165.205033 186.845991 
L 165.205033 186.622318 
L 165.356086 186.622318 
L 165.446086 185.839463 
L 165.565357 185.839463 
L 165.595046 185.392117 
L 165.947377 185.392117 
L 165.947377 185.168444 
L 166.178318 185.168444 
L 166.178318 184.944771 
L 166.292637 184.944771 
L 166.292637 184.832935 
L 166.880655 184.832935 
L 166.990415 184.609262 
L 167.017746 184.609262 
L 167.126638 184.273753 
L 167.234845 184.273753 
L 167.234845 183.826407 
L 167.896144 183.826407 
L 167.896144 183.714571 
L 168.40747 183.714571 
L 168.457777 183.490898 
L 168.731864 183.490898 
L 168.731864 183.267225 
L 168.904038 183.267225 
L 168.952915 182.819879 
L 169.623008 182.819879 
L 169.623008 182.596206 
L 170.845974 182.596206 
L 170.845974 182.372533 
L 171.426331 182.372533 
L 171.426331 182.14886 
L 171.967278 182.14886 
L 171.967278 181.925187 
L 172.130358 181.925187 
L 172.170888 181.701514 
L 172.845675 181.701514 
L 172.845675 181.254169 
L 173.039208 181.254169 
L 173.039208 180.806823 
L 173.939014 180.806823 
L 173.939014 180.694986 
L 174.442958 180.694986 
L 174.442958 180.58315 
L 175.871851 180.58315 
L 175.871851 180.471314 
L 176.622437 180.471314 
L 176.622437 180.247641 
L 176.855254 180.247641 
L 176.855254 179.912131 
L 177.564989 179.912131 
L 177.564989 179.800295 
L 177.785473 179.800295 
L 177.785473 179.464785 
L 181.288366 179.464785 
L 181.288366 179.352949 
L 182.451533 179.352949 
L 182.451533 179.241113 
L 182.606732 179.241113 
L 182.606732 179.129276 
L 183.748808 179.129276 
L 183.748808 179.01744 
L 203.588112 179.01744 
L 203.659677 178.122748 
L 203.750332 178.122748 
L 203.853355 175.997856 
L 203.862982 175.997856 
L 203.958956 173.64929 
L 203.981273 173.64929 
L 204.063912 171.859907 
L 204.092426 171.859907 
L 204.193427 169.958687 
L 204.23115 169.958687 
L 204.325098 169.175832 
L 204.381221 169.175832 
L 204.47745 166.044412 
L 204.508378 166.044412 
L 204.619258 163.136664 
L 204.628466 163.136664 
L 204.735528 162.0183 
L 204.744674 162.0183 
L 204.820701 160.564426 
L 204.875233 160.564426 
L 204.977769 159.557898 
L 204.989792 159.557898 
L 205.094636 157.992187 
L 205.103593 157.992187 
L 205.210715 156.090968 
L 205.216646 156.090968 
L 205.296525 154.413421 
L 205.331907 154.413421 
L 205.396587 153.742402 
L 205.469794 153.742402 
L 205.565951 152.959547 
L 205.586279 152.959547 
L 205.673129 152.512201 
L 205.828362 152.512201 
L 205.905456 152.064856 
L 206.002049 152.064856 
L 206.103736 151.393837 
L 206.266312 151.393837 
L 206.266312 151.170164 
L 206.540311 151.170164 
L 206.556778 150.946491 
L 206.704273 150.946491 
L 206.74502 150.387309 
L 206.912426 150.387309 
L 206.912426 150.163636 
L 207.612721 150.163636 
L 207.612721 150.0518 
L 208.040762 150.0518 
L 208.040762 149.939963 
L 208.30298 149.939963 
L 208.30298 149.828127 
L 215.394223 149.828127 
L 215.498941 148.933435 
L 215.508726 148.933435 
L 215.611132 148.262416 
L 215.625711 148.262416 
L 215.730644 145.242832 
L 215.753161 145.242832 
L 215.855724 142.894267 
L 215.866905 142.894267 
L 215.965619 140.657538 
L 215.98466 140.657538 
L 216.085856 138.756318 
L 216.098464 138.756318 
L 216.208389 136.18408 
L 216.231854 136.18408 
L 216.306725 134.059188 
L 216.359563 134.059188 
L 216.460127 133.052659 
L 216.49711 133.052659 
L 216.589221 132.269804 
L 216.630511 132.269804 
L 216.7371 131.710622 
L 216.752273 131.710622 
L 216.824919 131.263276 
L 216.870167 131.263276 
L 216.870167 131.039603 
L 217.063389 131.039603 
L 217.085717 130.704094 
L 217.431785 130.704094 
L 217.431785 130.368585 
L 217.566839 130.368585 
L 217.566839 130.256748 
L 217.885006 130.256748 
L 217.957274 129.921239 
L 222.428633 129.921239 
L 222.531914 128.467365 
L 222.547082 128.467365 
L 222.65719 126.006963 
L 222.663645 126.006963 
L 222.773012 124.441253 
L 222.777287 124.441253 
L 222.886998 121.869015 
L 222.893367 121.869015 
L 223.002343 119.18494 
L 223.028689 119.18494 
L 223.07076 118.290248 
L 223.158776 118.290248 
L 223.243223 117.395557 
L 223.320012 117.395557 
L 223.320012 117.28372 
L 223.499231 117.28372 
L 223.547322 117.060047 
L 223.639038 117.060047 
L 223.639038 116.948211 
L 223.947266 116.948211 
L 224.000095 116.389029 
L 227.309056 116.389029 
L 227.412207 115.158828 
L 227.424446 115.158828 
L 227.530152 113.257608 
L 227.537446 113.257608 
L 227.624736 111.691898 
L 227.655344 111.691898 
L 227.752445 109.567005 
L 227.772439 109.567005 
L 227.834671 108.448641 
L 227.90144 108.448641 
L 227.978221 107.889459 
L 228.047583 107.889459 
L 228.106478 107.21844 
L 228.160484 107.21844 
L 228.208867 106.659258 
L 228.343157 106.659258 
L 228.343157 106.547421 
L 228.503239 106.547421 
L 228.585012 106.211912 
L 231.177582 106.211912 
L 231.286749 103.416001 
L 231.302381 103.416001 
L 231.397818 101.738454 
L 231.414643 101.738454 
L 231.519749 99.613561 
L 231.548654 99.613561 
L 231.632522 98.607033 
L 231.731866 98.607033 
L 231.824325 98.159688 
L 231.853983 98.159688 
L 231.863438 97.936015 
L 232.093161 97.936015 
L 232.101864 97.712342 
L 234.330131 97.712342 
L 234.439524 95.587449 
L 234.441694 95.587449 
L 234.552539 93.238884 
L 234.555233 93.238884 
L 234.622999 92.120519 
L 234.668028 92.120519 
L 234.77796 91.225828 
L 234.803475 91.225828 
L 234.843266 90.890319 
L 236.91851 90.890319 
L 237.012665 89.324608 
L 237.035074 89.324608 
L 237.145292 87.311552 
L 237.160583 87.311552 
L 237.23499 86.640533 
L 237.288861 86.640533 
L 237.288861 86.528697 
L 237.635646 86.528697 
L 237.635646 86.416861 
L 239.266145 86.416861 
L 239.360958 84.739314 
L 239.387021 84.739314 
L 239.487647 83.732786 
L 239.511904 83.732786 
L 239.555077 83.397276 
L 239.820993 83.397276 
L 239.820993 83.28544 
L 241.236808 83.28544 
L 241.294817 81.607893 
L 241.356624 81.607893 
L 241.465156 80.265856 
L 241.472728 80.265856 
L 241.512695 79.930347 
L 241.669857 79.930347 
L 241.669857 79.81851 
L 241.834423 79.81851 
L 241.834423 79.706674 
L 243.090294 79.706674 
L 243.19302 78.029127 
L 243.226583 78.029127 
L 243.253257 77.693618 
L 243.552917 77.693618 
L 243.552917 77.581781 
L 244.72344 77.581781 
L 244.831128 76.463417 
L 244.835873 76.463417 
L 244.879103 76.016071 
L 244.97877 76.016071 
L 244.996402 75.792398 
L 245.176388 75.792398 
L 245.176388 75.680562 
L 246.217101 75.680562 
L 246.326467 74.003015 
L 246.353089 74.003015 
L 246.41054 73.22016 
L 246.487203 73.22016 
L 246.487203 73.108323 
L 247.597698 73.108323 
L 247.691374 71.654449 
L 247.715967 71.654449 
L 247.793782 71.207104 
L 247.858566 71.207104 
L 247.960976 70.983431 
L 248.860212 70.983431 
L 248.968508 69.194048 
L 250.052589 69.194048 
L 250.145601 68.299356 
L 251.127395 68.299356 
L 251.222357 67.628337 
L 251.23953 67.628337 
L 251.260563 67.292828 
L 252.200543 67.292828 
L 252.269967 66.398136 
L 253.18167 66.398136 
L 253.241615 66.062627 
L 254.104837 66.062627 
L 254.194556 65.279772 
L 254.964369 65.279772 
L 255.054147 64.944263 
L 255.084732 64.944263 
L 255.084732 64.832426 
L 255.825466 64.832426 
L 255.922238 63.602225 
L 256.03564 63.602225 
L 256.03564 63.490389 
L 256.627146 63.490389 
L 256.627146 63.378552 
L 257.390555 63.378552 
L 257.390555 63.154879 
L 258.121525 63.154879 
L 258.188646 62.483861 
L 258.825199 62.483861 
L 258.825199 62.372024 
L 259.494139 62.372024 
L 259.545408 62.036515 
L 260.14474 62.036515 
L 260.182691 61.701006 
L 260.769519 61.701006 
L 260.80518 61.365496 
L 260.891331 61.365496 
L 260.891331 61.25366 
L 261.37036 61.25366 
L 261.392233 60.91815 
L 261.954872 60.91815 
L 262.053677 60.694478 
L 262.518267 60.694478 
L 262.55726 60.135295 
L 263.063796 60.135295 
L 263.114182 59.576113 
L 263.639334 59.576113 
L 263.639334 59.464277 
L 264.105553 59.464277 
L 264.105553 59.35244 
L 265.558689 59.35244 
L 265.558689 59.240604 
L 266.017016 59.240604 
L 266.017016 59.016931 
L 266.496145 59.016931 
L 266.496145 58.905094 
L 266.898593 58.905094 
L 266.898593 58.681421 
L 267.328135 58.681421 
L 267.354103 58.457749 
L 267.737191 58.457749 
L 267.761611 58.234076 
L 268.143097 58.234076 
L 268.143097 58.122239 
L 271.084685 58.122239 
L 271.084685 58.010403 
L 273.289513 58.010403 
L 273.289513 57.898566 
L 274.978404 57.898566 
L 274.978404 57.78673 
L 333.429677 57.78673 
L 333.429677 57.78673 
" style="fill:none;stroke:#00bfbf;stroke-linecap:square;stroke-width:1.5;"/>
   </g>
   <g id="line2d_25">
    <defs>
     <path d="M -6 0 
L 6 0 
M 0 6 
L 0 -6 
" id="m48c7810eb4" style="stroke:#00bfbf;stroke-width:1.5;"/>
    </defs>
    <g>
     <use style="fill-opacity:0;stroke:#00bfbf;stroke-width:1.5;" x="112.824432" xlink:href="#m48c7810eb4" y="257.302953"/>
     <use style="fill-opacity:0;stroke:#00bfbf;stroke-width:1.5;" x="203.763243" xlink:href="#m48c7810eb4" y="176.780711"/>
     <use style="fill-opacity:0;stroke:#00bfbf;stroke-width:1.5;" x="239.278025" xlink:href="#m48c7810eb4" y="85.857678"/>
     <use style="fill-opacity:0;stroke:#00bfbf;stroke-width:1.5;" x="274.978404" xlink:href="#m48c7810eb4" y="57.78673"/>
     <use style="fill-opacity:0;stroke:#00bfbf;stroke-width:1.5;" x="333.429677" xlink:href="#m48c7810eb4" y="57.78673"/>
    </g>
   </g>
   <g id="line2d_26">
    <path style="fill:none;stroke:#00bfbf;stroke-linecap:square;stroke-width:1.5;"/>
    <g/>
   </g>
   <g id="line2d_27">
    <path clip-path="url(#pfe9292fc92)" d="M 203.414473 179.01744 
" style="fill:none;stroke:#00bfbf;stroke-linecap:square;stroke-width:1.5;"/>
    <defs>
     <path d="M -12 12 
L 12 -12 
M -12 -12 
L 12 12 
" id="mcad2ab0fd5" style="stroke:#00bfbf;stroke-width:3;"/>
    </defs>
    <g clip-path="url(#pfe9292fc92)">
     <use style="fill:#00bfbf;stroke:#00bfbf;stroke-width:3;" x="203.414473" xlink:href="#mcad2ab0fd5" y="179.01744"/>
    </g>
   </g>
   <g id="line2d_28">
    <path d="M 333.429677 57.78673 
L 363.933742 289.176341 
" style="fill:none;stroke:#00bfbf;stroke-linecap:square;stroke-width:1.5;"/>
    <g>
     <use style="fill-opacity:0;stroke:#00bfbf;stroke-width:1.5;" x="333.429677" xlink:href="#m48c7810eb4" y="57.78673"/>
     <use style="fill-opacity:0;stroke:#00bfbf;stroke-width:1.5;" x="363.933742" xlink:href="#m48c7810eb4" y="289.176341"/>
    </g>
   </g>
   <g id="line2d_29">
    <path d="M 333.429677 294.88 
L 333.429677 9.697057 
" style="fill:none;stroke:#000000;stroke-linecap:square;stroke-width:1.5;"/>
   </g>
   <g id="patch_3">
    <path d="M 56.12 294.88 
L 56.12 6.845228 
" style="fill:none;stroke:#000000;stroke-linecap:square;stroke-linejoin:miter;stroke-width:0.8;"/>
   </g>
   <g id="patch_4">
    <path d="M 399.984 294.88 
L 399.984 6.845228 
" style="fill:none;stroke:#000000;stroke-linecap:square;stroke-linejoin:miter;stroke-width:0.8;"/>
   </g>
   <g id="patch_5">
    <path d="M 56.12 294.88 
L 399.984 294.88 
" style="fill:none;stroke:#000000;stroke-linecap:square;stroke-linejoin:miter;stroke-width:0.8;"/>
   </g>
   <g id="patch_6">
    <path d="M 56.12 6.845228 
L 399.984 6.845228 
" style="fill:none;stroke:#000000;stroke-linecap:square;stroke-linejoin:miter;stroke-width:0.8;"/>
   </g>
   <g id="text_14">
    <!-- 2-D -->
    <defs>
     <path d="M 19.671875 64.796875 
L 19.671875 8.109375 
L 31.59375 8.109375 
Q 46.6875 8.109375 53.6875 14.9375 
Q 60.6875 21.78125 60.6875 36.53125 
Q 60.6875 51.171875 53.6875 57.984375 
Q 46.6875 64.796875 31.59375 64.796875 
z
M 9.8125 72.90625 
L 30.078125 72.90625 
Q 51.265625 72.90625 61.171875 64.09375 
Q 71.09375 55.28125 71.09375 36.53125 
Q 71.09375 17.671875 61.125 8.828125 
Q 51.171875 0 30.078125 0 
L 9.8125 0 
z
" id="DejaVuSans-44"/>
    </defs>
    <g transform="translate(369.479935 293.867279)scale(0.17 -0.17)">
     <use xlink:href="#DejaVuSans-32"/>
     <use x="63.623047" xlink:href="#DejaVuSans-2d"/>
     <use x="99.707031" xlink:href="#DejaVuSans-44"/>
    </g>
   </g>
   <g id="text_15">
    <!-- bbob f15-f19 -->
    <defs>
     <path d="M 48.6875 27.296875 
Q 48.6875 37.203125 44.609375 42.84375 
Q 40.53125 48.484375 33.40625 48.484375 
Q 26.265625 48.484375 22.1875 42.84375 
Q 18.109375 37.203125 18.109375 27.296875 
Q 18.109375 17.390625 22.1875 11.75 
Q 26.265625 6.109375 33.40625 6.109375 
Q 40.53125 6.109375 44.609375 11.75 
Q 48.6875 17.390625 48.6875 27.296875 
z
M 18.109375 46.390625 
Q 20.953125 51.265625 25.265625 53.625 
Q 29.59375 56 35.59375 56 
Q 45.5625 56 51.78125 48.09375 
Q 58.015625 40.1875 58.015625 27.296875 
Q 58.015625 14.40625 51.78125 6.484375 
Q 45.5625 -1.421875 35.59375 -1.421875 
Q 29.59375 -1.421875 25.265625 0.953125 
Q 20.953125 3.328125 18.109375 8.203125 
L 18.109375 0 
L 9.078125 0 
L 9.078125 75.984375 
L 18.109375 75.984375 
z
" id="DejaVuSans-62"/>
     <path d="M 10.796875 72.90625 
L 49.515625 72.90625 
L 49.515625 64.59375 
L 19.828125 64.59375 
L 19.828125 46.734375 
Q 21.96875 47.46875 24.109375 47.828125 
Q 26.265625 48.1875 28.421875 48.1875 
Q 40.625 48.1875 47.75 41.5 
Q 54.890625 34.8125 54.890625 23.390625 
Q 54.890625 11.625 47.5625 5.09375 
Q 40.234375 -1.421875 26.90625 -1.421875 
Q 22.3125 -1.421875 17.546875 -0.640625 
Q 12.796875 0.140625 7.71875 1.703125 
L 7.71875 11.625 
Q 12.109375 9.234375 16.796875 8.0625 
Q 21.484375 6.890625 26.703125 6.890625 
Q 35.15625 6.890625 40.078125 11.328125 
Q 45.015625 15.765625 45.015625 23.390625 
Q 45.015625 31 40.078125 35.4375 
Q 35.15625 39.890625 26.703125 39.890625 
Q 22.75 39.890625 18.8125 39.015625 
Q 14.890625 38.140625 10.796875 36.28125 
z
" id="DejaVuSans-35"/>
     <path d="M 10.984375 1.515625 
L 10.984375 10.5 
Q 14.703125 8.734375 18.5 7.8125 
Q 22.3125 6.890625 25.984375 6.890625 
Q 35.75 6.890625 40.890625 13.453125 
Q 46.046875 20.015625 46.78125 33.40625 
Q 43.953125 29.203125 39.59375 26.953125 
Q 35.25 24.703125 29.984375 24.703125 
Q 19.046875 24.703125 12.671875 31.3125 
Q 6.296875 37.9375 6.296875 49.421875 
Q 6.296875 60.640625 12.9375 67.421875 
Q 19.578125 74.21875 30.609375 74.21875 
Q 43.265625 74.21875 49.921875 64.515625 
Q 56.59375 54.828125 56.59375 36.375 
Q 56.59375 19.140625 48.40625 8.859375 
Q 40.234375 -1.421875 26.421875 -1.421875 
Q 22.703125 -1.421875 18.890625 -0.6875 
Q 15.09375 0.046875 10.984375 1.515625 
z
M 30.609375 32.421875 
Q 37.25 32.421875 41.125 36.953125 
Q 45.015625 41.5 45.015625 49.421875 
Q 45.015625 57.28125 41.125 61.84375 
Q 37.25 66.40625 30.609375 66.40625 
Q 23.96875 66.40625 20.09375 61.84375 
Q 16.21875 57.28125 16.21875 49.421875 
Q 16.21875 41.5 20.09375 36.953125 
Q 23.96875 32.421875 30.609375 32.421875 
z
" id="DejaVuSans-39"/>
    </defs>
    <g transform="translate(59.55864 17.475982)scale(0.102 -0.102)">
     <use xlink:href="#DejaVuSans-62"/>
     <use x="63.476562" xlink:href="#DejaVuSans-62"/>
     <use x="126.953125" xlink:href="#DejaVuSans-6f"/>
     <use x="188.134766" xlink:href="#DejaVuSans-62"/>
     <use x="251.611328" xlink:href="#DejaVuSans-20"/>
     <use x="283.398438" xlink:href="#DejaVuSans-66"/>
     <use x="318.603516" xlink:href="#DejaVuSans-31"/>
     <use x="382.226562" xlink:href="#DejaVuSans-35"/>
     <use x="445.849609" xlink:href="#DejaVuSans-2d"/>
     <use x="481.933594" xlink:href="#DejaVuSans-66"/>
     <use x="517.138672" xlink:href="#DejaVuSans-31"/>
     <use x="580.761719" xlink:href="#DejaVuSans-39"/>
    </g>
    <!-- 51 targets: 100..1e-08 -->
    <defs>
     <path d="M 11.71875 12.40625 
L 22.015625 12.40625 
L 22.015625 0 
L 11.71875 0 
z
M 11.71875 51.703125 
L 22.015625 51.703125 
L 22.015625 39.3125 
L 11.71875 39.3125 
z
" id="DejaVuSans-3a"/>
    </defs>
    <g transform="translate(59.55864 28.89775)scale(0.102 -0.102)">
     <use xlink:href="#DejaVuSans-35"/>
     <use x="63.623047" xlink:href="#DejaVuSans-31"/>
     <use x="127.246094" xlink:href="#DejaVuSans-20"/>
     <use x="159.033203" xlink:href="#DejaVuSans-74"/>
     <use x="198.242188" xlink:href="#DejaVuSans-61"/>
     <use x="259.521484" xlink:href="#DejaVuSans-72"/>
     <use x="300.619141" xlink:href="#DejaVuSans-67"/>
     <use x="364.095703" xlink:href="#DejaVuSans-65"/>
     <use x="425.619141" xlink:href="#DejaVuSans-74"/>
     <use x="464.828125" xlink:href="#DejaVuSans-73"/>
     <use x="516.927734" xlink:href="#DejaVuSans-3a"/>
     <use x="550.619141" xlink:href="#DejaVuSans-20"/>
     <use x="582.40625" xlink:href="#DejaVuSans-31"/>
     <use x="646.029297" xlink:href="#DejaVuSans-30"/>
     <use x="709.652344" xlink:href="#DejaVuSans-30"/>
     <use x="773.275391" xlink:href="#DejaVuSans-2e"/>
     <use x="805.0625" xlink:href="#DejaVuSans-2e"/>
     <use x="836.849609" xlink:href="#DejaVuSans-31"/>
     <use x="900.472656" xlink:href="#DejaVuSans-65"/>
     <use x="961.996094" xlink:href="#DejaVuSans-2d"/>
     <use x="998.080078" xlink:href="#DejaVuSans-30"/>
     <use x="1061.703125" xlink:href="#DejaVuSans-38"/>
    </g>
    <!-- 15 instances -->
    <g transform="translate(59.55864 40.319519)scale(0.102 -0.102)">
     <use xlink:href="#DejaVuSans-31"/>
     <use x="63.623047" xlink:href="#DejaVuSans-35"/>
     <use x="127.246094" xlink:href="#DejaVuSans-20"/>
     <use x="159.033203" xlink:href="#DejaVuSans-69"/>
     <use x="186.816406" xlink:href="#DejaVuSans-6e"/>
     <use x="250.195312" xlink:href="#DejaVuSans-73"/>
     <use x="302.294922" xlink:href="#DejaVuSans-74"/>
     <use x="341.503906" xlink:href="#DejaVuSans-61"/>
     <use x="402.783203" xlink:href="#DejaVuSans-6e"/>
     <use x="466.162109" xlink:href="#DejaVuSans-63"/>
     <use x="521.142578" xlink:href="#DejaVuSans-65"/>
     <use x="582.666016" xlink:href="#DejaVuSans-73"/>
    </g>
   </g>
   <g id="text_16">
    <!-- v2.2.1.10 -->
    <g style="fill:#808080;" transform="translate(204.419188 289.919965)scale(0.1 -0.1)">
     <use xlink:href="#DejaVuSans-76"/>
     <use x="59.179688" xlink:href="#DejaVuSans-32"/>
     <use x="122.802734" xlink:href="#DejaVuSans-2e"/>
     <use x="154.589844" xlink:href="#DejaVuSans-32"/>
     <use x="218.212891" xlink:href="#DejaVuSans-2e"/>
     <use x="250" xlink:href="#DejaVuSans-31"/>
     <use x="313.623047" xlink:href="#DejaVuSans-2e"/>
     <use x="345.410156" xlink:href="#DejaVuSans-31"/>
     <use x="409.033203" xlink:href="#DejaVuSans-30"/>
    </g>
   </g>
  </g>
 </g>
 <defs>
  <clipPath id="pfe9292fc92">
   <rect height="288.034772" width="343.864" x="56.12" y="6.845228"/>
  </clipPath>
 </defs>
</svg>
