<?xml version="1.0" encoding="utf-8" standalone="no"?>
<!DOCTYPE svg PUBLIC "-//W3C//DTD SVG 1.1//EN"
  "http://www.w3.org/Graphics/SVG/1.1/DTD/svg11.dtd">
<!-- Created with matplotlib (http://matplotlib.org/) -->
<svg height="345.6pt" version="1.1" viewBox="0 0 460.8 345.6" width="460.8pt" xmlns="http://www.w3.org/2000/svg" xmlns:xlink="http://www.w3.org/1999/xlink">
 <defs>
  <style type="text/css">
*{stroke-linecap:butt;stroke-linejoin:round;}
  </style>
 </defs>
 <g id="figure_1">
  <g id="patch_1">
   <path d="M 0 345.6 
L 460.8 345.6 
L 460.8 0 
L 0 0 
z
" style="fill:#ffffff;"/>
  </g>
  <g id="axes_1">
   <g id="patch_2">
    <path d="M 56.12 294.88 
L 399.984 294.88 
L 399.984 6.845228 
L 56.12 6.845228 
z
" style="fill:#ffffff;"/>
   </g>
   <g id="matplotlib.axis_1">
    <g id="xtick_1">
     <g id="line2d_1">
      <path clip-path="url(#pc1b0cac48b)" d="M 56.12 294.88 
L 56.12 6.845228 
" style="fill:none;stroke:#b0b0b0;stroke-linecap:square;stroke-width:0.8;"/>
     </g>
     <g id="line2d_2">
      <defs>
       <path d="M 0 0 
L 0 3.5 
" id="ma79cbea2e3" style="stroke:#000000;stroke-width:0.8;"/>
      </defs>
      <g>
       <use style="stroke:#000000;stroke-width:0.8;" x="56.12" xlink:href="#ma79cbea2e3" y="294.88"/>
      </g>
     </g>
     <g id="text_1">
      <!-- 0 -->
      <defs>
       <path d="M 31.78125 66.40625 
Q 24.171875 66.40625 20.328125 58.90625 
Q 16.5 51.421875 16.5 36.375 
Q 16.5 21.390625 20.328125 13.890625 
Q 24.171875 6.390625 31.78125 6.390625 
Q 39.453125 6.390625 43.28125 13.890625 
Q 47.125 21.390625 47.125 36.375 
Q 47.125 51.421875 43.28125 58.90625 
Q 39.453125 66.40625 31.78125 66.40625 
z
M 31.78125 74.21875 
Q 44.046875 74.21875 50.515625 64.515625 
Q 56.984375 54.828125 56.984375 36.375 
Q 56.984375 17.96875 50.515625 8.265625 
Q 44.046875 -1.421875 31.78125 -1.421875 
Q 19.53125 -1.421875 13.0625 8.265625 
Q 6.59375 17.96875 6.59375 36.375 
Q 6.59375 54.828125 13.0625 64.515625 
Q 19.53125 74.21875 31.78125 74.21875 
z
" id="DejaVuSans-30"/>
      </defs>
      <g transform="translate(49.7575 317.076875)scale(0.2 -0.2)">
       <use xlink:href="#DejaVuSans-30"/>
      </g>
     </g>
    </g>
    <g id="xtick_2">
     <g id="line2d_3">
      <path clip-path="url(#pc1b0cac48b)" d="M 135.351336 294.88 
L 135.351336 6.845228 
" style="fill:none;stroke:#b0b0b0;stroke-linecap:square;stroke-width:0.8;"/>
     </g>
     <g id="line2d_4">
      <g>
       <use style="stroke:#000000;stroke-width:0.8;" x="135.351336" xlink:href="#ma79cbea2e3" y="294.88"/>
      </g>
     </g>
     <g id="text_2">
      <!-- 2 -->
      <defs>
       <path d="M 19.1875 8.296875 
L 53.609375 8.296875 
L 53.609375 0 
L 7.328125 0 
L 7.328125 8.296875 
Q 12.9375 14.109375 22.625 23.890625 
Q 32.328125 33.6875 34.8125 36.53125 
Q 39.546875 41.84375 41.421875 45.53125 
Q 43.3125 49.21875 43.3125 52.78125 
Q 43.3125 58.59375 39.234375 62.25 
Q 35.15625 65.921875 28.609375 65.921875 
Q 23.96875 65.921875 18.8125 64.3125 
Q 13.671875 62.703125 7.8125 59.421875 
L 7.8125 69.390625 
Q 13.765625 71.78125 18.9375 73 
Q 24.125 74.21875 28.421875 74.21875 
Q 39.75 74.21875 46.484375 68.546875 
Q 53.21875 62.890625 53.21875 53.421875 
Q 53.21875 48.921875 51.53125 44.890625 
Q 49.859375 40.875 45.40625 35.40625 
Q 44.1875 33.984375 37.640625 27.21875 
Q 31.109375 20.453125 19.1875 8.296875 
z
" id="DejaVuSans-32"/>
      </defs>
      <g transform="translate(128.988836 317.076875)scale(0.2 -0.2)">
       <use xlink:href="#DejaVuSans-32"/>
      </g>
     </g>
    </g>
    <g id="xtick_3">
     <g id="line2d_5">
      <path clip-path="url(#pc1b0cac48b)" d="M 214.582673 294.88 
L 214.582673 6.845228 
" style="fill:none;stroke:#b0b0b0;stroke-linecap:square;stroke-width:0.8;"/>
     </g>
     <g id="line2d_6">
      <g>
       <use style="stroke:#000000;stroke-width:0.8;" x="214.582673" xlink:href="#ma79cbea2e3" y="294.88"/>
      </g>
     </g>
     <g id="text_3">
      <!-- 4 -->
      <defs>
       <path d="M 37.796875 64.3125 
L 12.890625 25.390625 
L 37.796875 25.390625 
z
M 35.203125 72.90625 
L 47.609375 72.90625 
L 47.609375 25.390625 
L 58.015625 25.390625 
L 58.015625 17.1875 
L 47.609375 17.1875 
L 47.609375 0 
L 37.796875 0 
L 37.796875 17.1875 
L 4.890625 17.1875 
L 4.890625 26.703125 
z
" id="DejaVuSans-34"/>
      </defs>
      <g transform="translate(208.220173 317.076875)scale(0.2 -0.2)">
       <use xlink:href="#DejaVuSans-34"/>
      </g>
     </g>
    </g>
    <g id="xtick_4">
     <g id="line2d_7">
      <path clip-path="url(#pc1b0cac48b)" d="M 293.814009 294.88 
L 293.814009 6.845228 
" style="fill:none;stroke:#b0b0b0;stroke-linecap:square;stroke-width:0.8;"/>
     </g>
     <g id="line2d_8">
      <g>
       <use style="stroke:#000000;stroke-width:0.8;" x="293.814009" xlink:href="#ma79cbea2e3" y="294.88"/>
      </g>
     </g>
     <g id="text_4">
      <!-- 6 -->
      <defs>
       <path d="M 33.015625 40.375 
Q 26.375 40.375 22.484375 35.828125 
Q 18.609375 31.296875 18.609375 23.390625 
Q 18.609375 15.53125 22.484375 10.953125 
Q 26.375 6.390625 33.015625 6.390625 
Q 39.65625 6.390625 43.53125 10.953125 
Q 47.40625 15.53125 47.40625 23.390625 
Q 47.40625 31.296875 43.53125 35.828125 
Q 39.65625 40.375 33.015625 40.375 
z
M 52.59375 71.296875 
L 52.59375 62.3125 
Q 48.875 64.0625 45.09375 64.984375 
Q 41.3125 65.921875 37.59375 65.921875 
Q 27.828125 65.921875 22.671875 59.328125 
Q 17.53125 52.734375 16.796875 39.40625 
Q 19.671875 43.65625 24.015625 45.921875 
Q 28.375 48.1875 33.59375 48.1875 
Q 44.578125 48.1875 50.953125 41.515625 
Q 57.328125 34.859375 57.328125 23.390625 
Q 57.328125 12.15625 50.6875 5.359375 
Q 44.046875 -1.421875 33.015625 -1.421875 
Q 20.359375 -1.421875 13.671875 8.265625 
Q 6.984375 17.96875 6.984375 36.375 
Q 6.984375 53.65625 15.1875 63.9375 
Q 23.390625 74.21875 37.203125 74.21875 
Q 40.921875 74.21875 44.703125 73.484375 
Q 48.484375 72.75 52.59375 71.296875 
z
" id="DejaVuSans-36"/>
      </defs>
      <g transform="translate(287.451509 317.076875)scale(0.2 -0.2)">
       <use xlink:href="#DejaVuSans-36"/>
      </g>
     </g>
    </g>
    <g id="xtick_5">
     <g id="line2d_9">
      <path clip-path="url(#pc1b0cac48b)" d="M 373.045346 294.88 
L 373.045346 6.845228 
" style="fill:none;stroke:#b0b0b0;stroke-linecap:square;stroke-width:0.8;"/>
     </g>
     <g id="line2d_10">
      <g>
       <use style="stroke:#000000;stroke-width:0.8;" x="373.045346" xlink:href="#ma79cbea2e3" y="294.88"/>
      </g>
     </g>
     <g id="text_5">
      <!-- 8 -->
      <defs>
       <path d="M 31.78125 34.625 
Q 24.75 34.625 20.71875 30.859375 
Q 16.703125 27.09375 16.703125 20.515625 
Q 16.703125 13.921875 20.71875 10.15625 
Q 24.75 6.390625 31.78125 6.390625 
Q 38.8125 6.390625 42.859375 10.171875 
Q 46.921875 13.96875 46.921875 20.515625 
Q 46.921875 27.09375 42.890625 30.859375 
Q 38.875 34.625 31.78125 34.625 
z
M 21.921875 38.8125 
Q 15.578125 40.375 12.03125 44.71875 
Q 8.5 49.078125 8.5 55.328125 
Q 8.5 64.0625 14.71875 69.140625 
Q 20.953125 74.21875 31.78125 74.21875 
Q 42.671875 74.21875 48.875 69.140625 
Q 55.078125 64.0625 55.078125 55.328125 
Q 55.078125 49.078125 51.53125 44.71875 
Q 48 40.375 41.703125 38.8125 
Q 48.828125 37.15625 52.796875 32.3125 
Q 56.78125 27.484375 56.78125 20.515625 
Q 56.78125 9.90625 50.3125 4.234375 
Q 43.84375 -1.421875 31.78125 -1.421875 
Q 19.734375 -1.421875 13.25 4.234375 
Q 6.78125 9.90625 6.78125 20.515625 
Q 6.78125 27.484375 10.78125 32.3125 
Q 14.796875 37.15625 21.921875 38.8125 
z
M 18.3125 54.390625 
Q 18.3125 48.734375 21.84375 45.5625 
Q 25.390625 42.390625 31.78125 42.390625 
Q 38.140625 42.390625 41.71875 45.5625 
Q 45.3125 48.734375 45.3125 54.390625 
Q 45.3125 60.0625 41.71875 63.234375 
Q 38.140625 66.40625 31.78125 66.40625 
Q 25.390625 66.40625 21.84375 63.234375 
Q 18.3125 60.0625 18.3125 54.390625 
z
" id="DejaVuSans-38"/>
      </defs>
      <g transform="translate(366.682846 317.076875)scale(0.2 -0.2)">
       <use xlink:href="#DejaVuSans-38"/>
      </g>
     </g>
    </g>
    <g id="text_6">
     <!-- log10(# f-evals / dimension) -->
     <defs>
      <path d="M 9.421875 75.984375 
L 18.40625 75.984375 
L 18.40625 0 
L 9.421875 0 
z
" id="DejaVuSans-6c"/>
      <path d="M 30.609375 48.390625 
Q 23.390625 48.390625 19.1875 42.75 
Q 14.984375 37.109375 14.984375 27.296875 
Q 14.984375 17.484375 19.15625 11.84375 
Q 23.34375 6.203125 30.609375 6.203125 
Q 37.796875 6.203125 41.984375 11.859375 
Q 46.1875 17.53125 46.1875 27.296875 
Q 46.1875 37.015625 41.984375 42.703125 
Q 37.796875 48.390625 30.609375 48.390625 
z
M 30.609375 56 
Q 42.328125 56 49.015625 48.375 
Q 55.71875 40.765625 55.71875 27.296875 
Q 55.71875 13.875 49.015625 6.21875 
Q 42.328125 -1.421875 30.609375 -1.421875 
Q 18.84375 -1.421875 12.171875 6.21875 
Q 5.515625 13.875 5.515625 27.296875 
Q 5.515625 40.765625 12.171875 48.375 
Q 18.84375 56 30.609375 56 
z
" id="DejaVuSans-6f"/>
      <path d="M 45.40625 27.984375 
Q 45.40625 37.75 41.375 43.109375 
Q 37.359375 48.484375 30.078125 48.484375 
Q 22.859375 48.484375 18.828125 43.109375 
Q 14.796875 37.75 14.796875 27.984375 
Q 14.796875 18.265625 18.828125 12.890625 
Q 22.859375 7.515625 30.078125 7.515625 
Q 37.359375 7.515625 41.375 12.890625 
Q 45.40625 18.265625 45.40625 27.984375 
z
M 54.390625 6.78125 
Q 54.390625 -7.171875 48.1875 -13.984375 
Q 42 -20.796875 29.203125 -20.796875 
Q 24.46875 -20.796875 20.265625 -20.09375 
Q 16.0625 -19.390625 12.109375 -17.921875 
L 12.109375 -9.1875 
Q 16.0625 -11.328125 19.921875 -12.34375 
Q 23.78125 -13.375 27.78125 -13.375 
Q 36.625 -13.375 41.015625 -8.765625 
Q 45.40625 -4.15625 45.40625 5.171875 
L 45.40625 9.625 
Q 42.625 4.78125 38.28125 2.390625 
Q 33.9375 0 27.875 0 
Q 17.828125 0 11.671875 7.65625 
Q 5.515625 15.328125 5.515625 27.984375 
Q 5.515625 40.671875 11.671875 48.328125 
Q 17.828125 56 27.875 56 
Q 33.9375 56 38.28125 53.609375 
Q 42.625 51.21875 45.40625 46.390625 
L 45.40625 54.6875 
L 54.390625 54.6875 
z
" id="DejaVuSans-67"/>
      <path d="M 12.40625 8.296875 
L 28.515625 8.296875 
L 28.515625 63.921875 
L 10.984375 60.40625 
L 10.984375 69.390625 
L 28.421875 72.90625 
L 38.28125 72.90625 
L 38.28125 8.296875 
L 54.390625 8.296875 
L 54.390625 0 
L 12.40625 0 
z
" id="DejaVuSans-31"/>
      <path d="M 31 75.875 
Q 24.46875 64.65625 21.28125 53.65625 
Q 18.109375 42.671875 18.109375 31.390625 
Q 18.109375 20.125 21.3125 9.0625 
Q 24.515625 -2 31 -13.1875 
L 23.1875 -13.1875 
Q 15.875 -1.703125 12.234375 9.375 
Q 8.59375 20.453125 8.59375 31.390625 
Q 8.59375 42.28125 12.203125 53.3125 
Q 15.828125 64.359375 23.1875 75.875 
z
" id="DejaVuSans-28"/>
      <path d="M 51.125 44 
L 36.921875 44 
L 32.8125 27.6875 
L 47.125 27.6875 
z
M 43.796875 71.78125 
L 38.71875 51.515625 
L 52.984375 51.515625 
L 58.109375 71.78125 
L 65.921875 71.78125 
L 60.890625 51.515625 
L 76.125 51.515625 
L 76.125 44 
L 58.984375 44 
L 54.984375 27.6875 
L 70.515625 27.6875 
L 70.515625 20.21875 
L 53.078125 20.21875 
L 48 0 
L 40.1875 0 
L 45.21875 20.21875 
L 30.90625 20.21875 
L 25.875 0 
L 18.015625 0 
L 23.09375 20.21875 
L 7.71875 20.21875 
L 7.71875 27.6875 
L 24.90625 27.6875 
L 29 44 
L 13.28125 44 
L 13.28125 51.515625 
L 30.90625 51.515625 
L 35.890625 71.78125 
z
" id="DejaVuSans-23"/>
      <path id="DejaVuSans-20"/>
      <path d="M 37.109375 75.984375 
L 37.109375 68.5 
L 28.515625 68.5 
Q 23.6875 68.5 21.796875 66.546875 
Q 19.921875 64.59375 19.921875 59.515625 
L 19.921875 54.6875 
L 34.71875 54.6875 
L 34.71875 47.703125 
L 19.921875 47.703125 
L 19.921875 0 
L 10.890625 0 
L 10.890625 47.703125 
L 2.296875 47.703125 
L 2.296875 54.6875 
L 10.890625 54.6875 
L 10.890625 58.5 
Q 10.890625 67.625 15.140625 71.796875 
Q 19.390625 75.984375 28.609375 75.984375 
z
" id="DejaVuSans-66"/>
      <path d="M 4.890625 31.390625 
L 31.203125 31.390625 
L 31.203125 23.390625 
L 4.890625 23.390625 
z
" id="DejaVuSans-2d"/>
      <path d="M 56.203125 29.59375 
L 56.203125 25.203125 
L 14.890625 25.203125 
Q 15.484375 15.921875 20.484375 11.0625 
Q 25.484375 6.203125 34.421875 6.203125 
Q 39.59375 6.203125 44.453125 7.46875 
Q 49.3125 8.734375 54.109375 11.28125 
L 54.109375 2.78125 
Q 49.265625 0.734375 44.1875 -0.34375 
Q 39.109375 -1.421875 33.890625 -1.421875 
Q 20.796875 -1.421875 13.15625 6.1875 
Q 5.515625 13.8125 5.515625 26.8125 
Q 5.515625 40.234375 12.765625 48.109375 
Q 20.015625 56 32.328125 56 
Q 43.359375 56 49.78125 48.890625 
Q 56.203125 41.796875 56.203125 29.59375 
z
M 47.21875 32.234375 
Q 47.125 39.59375 43.09375 43.984375 
Q 39.0625 48.390625 32.421875 48.390625 
Q 24.90625 48.390625 20.390625 44.140625 
Q 15.875 39.890625 15.1875 32.171875 
z
" id="DejaVuSans-65"/>
      <path d="M 2.984375 54.6875 
L 12.5 54.6875 
L 29.59375 8.796875 
L 46.6875 54.6875 
L 56.203125 54.6875 
L 35.6875 0 
L 23.484375 0 
z
" id="DejaVuSans-76"/>
      <path d="M 34.28125 27.484375 
Q 23.390625 27.484375 19.1875 25 
Q 14.984375 22.515625 14.984375 16.5 
Q 14.984375 11.71875 18.140625 8.90625 
Q 21.296875 6.109375 26.703125 6.109375 
Q 34.1875 6.109375 38.703125 11.40625 
Q 43.21875 16.703125 43.21875 25.484375 
L 43.21875 27.484375 
z
M 52.203125 31.203125 
L 52.203125 0 
L 43.21875 0 
L 43.21875 8.296875 
Q 40.140625 3.328125 35.546875 0.953125 
Q 30.953125 -1.421875 24.3125 -1.421875 
Q 15.921875 -1.421875 10.953125 3.296875 
Q 6 8.015625 6 15.921875 
Q 6 25.140625 12.171875 29.828125 
Q 18.359375 34.515625 30.609375 34.515625 
L 43.21875 34.515625 
L 43.21875 35.40625 
Q 43.21875 41.609375 39.140625 45 
Q 35.0625 48.390625 27.6875 48.390625 
Q 23 48.390625 18.546875 47.265625 
Q 14.109375 46.140625 10.015625 43.890625 
L 10.015625 52.203125 
Q 14.9375 54.109375 19.578125 55.046875 
Q 24.21875 56 28.609375 56 
Q 40.484375 56 46.34375 49.84375 
Q 52.203125 43.703125 52.203125 31.203125 
z
" id="DejaVuSans-61"/>
      <path d="M 44.28125 53.078125 
L 44.28125 44.578125 
Q 40.484375 46.53125 36.375 47.5 
Q 32.28125 48.484375 27.875 48.484375 
Q 21.1875 48.484375 17.84375 46.4375 
Q 14.5 44.390625 14.5 40.28125 
Q 14.5 37.15625 16.890625 35.375 
Q 19.28125 33.59375 26.515625 31.984375 
L 29.59375 31.296875 
Q 39.15625 29.25 43.1875 25.515625 
Q 47.21875 21.78125 47.21875 15.09375 
Q 47.21875 7.46875 41.1875 3.015625 
Q 35.15625 -1.421875 24.609375 -1.421875 
Q 20.21875 -1.421875 15.453125 -0.5625 
Q 10.6875 0.296875 5.421875 2 
L 5.421875 11.28125 
Q 10.40625 8.6875 15.234375 7.390625 
Q 20.0625 6.109375 24.8125 6.109375 
Q 31.15625 6.109375 34.5625 8.28125 
Q 37.984375 10.453125 37.984375 14.40625 
Q 37.984375 18.0625 35.515625 20.015625 
Q 33.0625 21.96875 24.703125 23.78125 
L 21.578125 24.515625 
Q 13.234375 26.265625 9.515625 29.90625 
Q 5.8125 33.546875 5.8125 39.890625 
Q 5.8125 47.609375 11.28125 51.796875 
Q 16.75 56 26.8125 56 
Q 31.78125 56 36.171875 55.265625 
Q 40.578125 54.546875 44.28125 53.078125 
z
" id="DejaVuSans-73"/>
      <path d="M 25.390625 72.90625 
L 33.6875 72.90625 
L 8.296875 -9.28125 
L 0 -9.28125 
z
" id="DejaVuSans-2f"/>
      <path d="M 45.40625 46.390625 
L 45.40625 75.984375 
L 54.390625 75.984375 
L 54.390625 0 
L 45.40625 0 
L 45.40625 8.203125 
Q 42.578125 3.328125 38.25 0.953125 
Q 33.9375 -1.421875 27.875 -1.421875 
Q 17.96875 -1.421875 11.734375 6.484375 
Q 5.515625 14.40625 5.515625 27.296875 
Q 5.515625 40.1875 11.734375 48.09375 
Q 17.96875 56 27.875 56 
Q 33.9375 56 38.25 53.625 
Q 42.578125 51.265625 45.40625 46.390625 
z
M 14.796875 27.296875 
Q 14.796875 17.390625 18.875 11.75 
Q 22.953125 6.109375 30.078125 6.109375 
Q 37.203125 6.109375 41.296875 11.75 
Q 45.40625 17.390625 45.40625 27.296875 
Q 45.40625 37.203125 41.296875 42.84375 
Q 37.203125 48.484375 30.078125 48.484375 
Q 22.953125 48.484375 18.875 42.84375 
Q 14.796875 37.203125 14.796875 27.296875 
z
" id="DejaVuSans-64"/>
      <path d="M 9.421875 54.6875 
L 18.40625 54.6875 
L 18.40625 0 
L 9.421875 0 
z
M 9.421875 75.984375 
L 18.40625 75.984375 
L 18.40625 64.59375 
L 9.421875 64.59375 
z
" id="DejaVuSans-69"/>
      <path d="M 52 44.1875 
Q 55.375 50.25 60.0625 53.125 
Q 64.75 56 71.09375 56 
Q 79.640625 56 84.28125 50.015625 
Q 88.921875 44.046875 88.921875 33.015625 
L 88.921875 0 
L 79.890625 0 
L 79.890625 32.71875 
Q 79.890625 40.578125 77.09375 44.375 
Q 74.3125 48.1875 68.609375 48.1875 
Q 61.625 48.1875 57.5625 43.546875 
Q 53.515625 38.921875 53.515625 30.90625 
L 53.515625 0 
L 44.484375 0 
L 44.484375 32.71875 
Q 44.484375 40.625 41.703125 44.40625 
Q 38.921875 48.1875 33.109375 48.1875 
Q 26.21875 48.1875 22.15625 43.53125 
Q 18.109375 38.875 18.109375 30.90625 
L 18.109375 0 
L 9.078125 0 
L 9.078125 54.6875 
L 18.109375 54.6875 
L 18.109375 46.1875 
Q 21.1875 51.21875 25.484375 53.609375 
Q 29.78125 56 35.6875 56 
Q 41.65625 56 45.828125 52.96875 
Q 50 49.953125 52 44.1875 
z
" id="DejaVuSans-6d"/>
      <path d="M 54.890625 33.015625 
L 54.890625 0 
L 45.90625 0 
L 45.90625 32.71875 
Q 45.90625 40.484375 42.875 44.328125 
Q 39.84375 48.1875 33.796875 48.1875 
Q 26.515625 48.1875 22.3125 43.546875 
Q 18.109375 38.921875 18.109375 30.90625 
L 18.109375 0 
L 9.078125 0 
L 9.078125 54.6875 
L 18.109375 54.6875 
L 18.109375 46.1875 
Q 21.34375 51.125 25.703125 53.5625 
Q 30.078125 56 35.796875 56 
Q 45.21875 56 50.046875 50.171875 
Q 54.890625 44.34375 54.890625 33.015625 
z
" id="DejaVuSans-6e"/>
      <path d="M 8.015625 75.875 
L 15.828125 75.875 
Q 23.140625 64.359375 26.78125 53.3125 
Q 30.421875 42.28125 30.421875 31.390625 
Q 30.421875 20.453125 26.78125 9.375 
Q 23.140625 -1.703125 15.828125 -13.1875 
L 8.015625 -13.1875 
Q 14.5 -2 17.703125 9.0625 
Q 20.90625 20.125 20.90625 31.390625 
Q 20.90625 42.671875 17.703125 53.65625 
Q 14.5 64.65625 8.015625 75.875 
z
" id="DejaVuSans-29"/>
     </defs>
     <g transform="translate(107.211219 338.153594)scale(0.17 -0.17)">
      <use xlink:href="#DejaVuSans-6c"/>
      <use x="27.783203" xlink:href="#DejaVuSans-6f"/>
      <use x="88.964844" xlink:href="#DejaVuSans-67"/>
      <use x="152.441406" xlink:href="#DejaVuSans-31"/>
      <use x="216.064453" xlink:href="#DejaVuSans-30"/>
      <use x="279.6875" xlink:href="#DejaVuSans-28"/>
      <use x="318.701172" xlink:href="#DejaVuSans-23"/>
      <use x="402.490234" xlink:href="#DejaVuSans-20"/>
      <use x="434.277344" xlink:href="#DejaVuSans-66"/>
      <use x="469.404297" xlink:href="#DejaVuSans-2d"/>
      <use x="505.488281" xlink:href="#DejaVuSans-65"/>
      <use x="567.011719" xlink:href="#DejaVuSans-76"/>
      <use x="626.191406" xlink:href="#DejaVuSans-61"/>
      <use x="687.470703" xlink:href="#DejaVuSans-6c"/>
      <use x="715.253906" xlink:href="#DejaVuSans-73"/>
      <use x="767.353516" xlink:href="#DejaVuSans-20"/>
      <use x="799.140625" xlink:href="#DejaVuSans-2f"/>
      <use x="832.832031" xlink:href="#DejaVuSans-20"/>
      <use x="864.619141" xlink:href="#DejaVuSans-64"/>
      <use x="928.095703" xlink:href="#DejaVuSans-69"/>
      <use x="955.878906" xlink:href="#DejaVuSans-6d"/>
      <use x="1053.291016" xlink:href="#DejaVuSans-65"/>
      <use x="1114.814453" xlink:href="#DejaVuSans-6e"/>
      <use x="1178.193359" xlink:href="#DejaVuSans-73"/>
      <use x="1230.292969" xlink:href="#DejaVuSans-69"/>
      <use x="1258.076172" xlink:href="#DejaVuSans-6f"/>
      <use x="1319.257812" xlink:href="#DejaVuSans-6e"/>
      <use x="1382.636719" xlink:href="#DejaVuSans-29"/>
     </g>
    </g>
   </g>
   <g id="matplotlib.axis_2">
    <g id="ytick_1">
     <g id="line2d_11">
      <path clip-path="url(#pc1b0cac48b)" d="M 56.12 294.88 
L 399.984 294.88 
" style="fill:none;stroke:#b0b0b0;stroke-linecap:square;stroke-width:0.8;"/>
     </g>
     <g id="line2d_12">
      <defs>
       <path d="M 0 0 
L -3.5 0 
" id="mab73fca878" style="stroke:#000000;stroke-width:0.8;"/>
      </defs>
      <g>
       <use style="stroke:#000000;stroke-width:0.8;" x="56.12" xlink:href="#mab73fca878" y="294.88"/>
      </g>
     </g>
     <g id="text_7">
      <!-- 0.0 -->
      <defs>
       <path d="M 10.6875 12.40625 
L 21 12.40625 
L 21 0 
L 10.6875 0 
z
" id="DejaVuSans-2e"/>
      </defs>
      <g transform="translate(23.675 300.95875)scale(0.16 -0.16)">
       <use xlink:href="#DejaVuSans-30"/>
       <use x="63.623047" xlink:href="#DejaVuSans-2e"/>
       <use x="95.410156" xlink:href="#DejaVuSans-30"/>
      </g>
     </g>
    </g>
    <g id="ytick_2">
     <g id="line2d_13">
      <path clip-path="url(#pc1b0cac48b)" d="M 56.12 237.843411 
L 399.984 237.843411 
" style="fill:none;stroke:#b0b0b0;stroke-linecap:square;stroke-width:0.8;"/>
     </g>
     <g id="line2d_14">
      <g>
       <use style="stroke:#000000;stroke-width:0.8;" x="56.12" xlink:href="#mab73fca878" y="237.843411"/>
      </g>
     </g>
     <g id="text_8">
      <!-- 0.2 -->
      <g transform="translate(23.675 243.922161)scale(0.16 -0.16)">
       <use xlink:href="#DejaVuSans-30"/>
       <use x="63.623047" xlink:href="#DejaVuSans-2e"/>
       <use x="95.410156" xlink:href="#DejaVuSans-32"/>
      </g>
     </g>
    </g>
    <g id="ytick_3">
     <g id="line2d_15">
      <path clip-path="url(#pc1b0cac48b)" d="M 56.12 180.806823 
L 399.984 180.806823 
" style="fill:none;stroke:#b0b0b0;stroke-linecap:square;stroke-width:0.8;"/>
     </g>
     <g id="line2d_16">
      <g>
       <use style="stroke:#000000;stroke-width:0.8;" x="56.12" xlink:href="#mab73fca878" y="180.806823"/>
      </g>
     </g>
     <g id="text_9">
      <!-- 0.4 -->
      <g transform="translate(23.675 186.885573)scale(0.16 -0.16)">
       <use xlink:href="#DejaVuSans-30"/>
       <use x="63.623047" xlink:href="#DejaVuSans-2e"/>
       <use x="95.410156" xlink:href="#DejaVuSans-34"/>
      </g>
     </g>
    </g>
    <g id="ytick_4">
     <g id="line2d_17">
      <path clip-path="url(#pc1b0cac48b)" d="M 56.12 123.770234 
L 399.984 123.770234 
" style="fill:none;stroke:#b0b0b0;stroke-linecap:square;stroke-width:0.8;"/>
     </g>
     <g id="line2d_18">
      <g>
       <use style="stroke:#000000;stroke-width:0.8;" x="56.12" xlink:href="#mab73fca878" y="123.770234"/>
      </g>
     </g>
     <g id="text_10">
      <!-- 0.6 -->
      <g transform="translate(23.675 129.848984)scale(0.16 -0.16)">
       <use xlink:href="#DejaVuSans-30"/>
       <use x="63.623047" xlink:href="#DejaVuSans-2e"/>
       <use x="95.410156" xlink:href="#DejaVuSans-36"/>
      </g>
     </g>
    </g>
    <g id="ytick_5">
     <g id="line2d_19">
      <path clip-path="url(#pc1b0cac48b)" d="M 56.12 66.733646 
L 399.984 66.733646 
" style="fill:none;stroke:#b0b0b0;stroke-linecap:square;stroke-width:0.8;"/>
     </g>
     <g id="line2d_20">
      <g>
       <use style="stroke:#000000;stroke-width:0.8;" x="56.12" xlink:href="#mab73fca878" y="66.733646"/>
      </g>
     </g>
     <g id="text_11">
      <!-- 0.8 -->
      <g transform="translate(23.675 72.812396)scale(0.16 -0.16)">
       <use xlink:href="#DejaVuSans-30"/>
       <use x="63.623047" xlink:href="#DejaVuSans-2e"/>
       <use x="95.410156" xlink:href="#DejaVuSans-38"/>
      </g>
     </g>
    </g>
    <g id="ytick_6">
     <g id="line2d_21">
      <path clip-path="url(#pc1b0cac48b)" d="M 56.12 9.697057 
L 399.984 9.697057 
" style="fill:none;stroke:#b0b0b0;stroke-linecap:square;stroke-width:0.8;"/>
     </g>
     <g id="line2d_22">
      <g>
       <use style="stroke:#000000;stroke-width:0.8;" x="56.12" xlink:href="#mab73fca878" y="9.697057"/>
      </g>
     </g>
     <g id="text_12">
      <!-- 1.0 -->
      <g transform="translate(23.675 15.775807)scale(0.16 -0.16)">
       <use xlink:href="#DejaVuSans-31"/>
       <use x="63.623047" xlink:href="#DejaVuSans-2e"/>
       <use x="95.410156" xlink:href="#DejaVuSans-30"/>
      </g>
     </g>
    </g>
    <g id="text_13">
     <!-- Fraction of function,target pairs -->
     <defs>
      <path d="M 9.8125 72.90625 
L 51.703125 72.90625 
L 51.703125 64.59375 
L 19.671875 64.59375 
L 19.671875 43.109375 
L 48.578125 43.109375 
L 48.578125 34.8125 
L 19.671875 34.8125 
L 19.671875 0 
L 9.8125 0 
z
" id="DejaVuSans-46"/>
      <path d="M 41.109375 46.296875 
Q 39.59375 47.171875 37.8125 47.578125 
Q 36.03125 48 33.890625 48 
Q 26.265625 48 22.1875 43.046875 
Q 18.109375 38.09375 18.109375 28.8125 
L 18.109375 0 
L 9.078125 0 
L 9.078125 54.6875 
L 18.109375 54.6875 
L 18.109375 46.1875 
Q 20.953125 51.171875 25.484375 53.578125 
Q 30.03125 56 36.53125 56 
Q 37.453125 56 38.578125 55.875 
Q 39.703125 55.765625 41.0625 55.515625 
z
" id="DejaVuSans-72"/>
      <path d="M 48.78125 52.59375 
L 48.78125 44.1875 
Q 44.96875 46.296875 41.140625 47.34375 
Q 37.3125 48.390625 33.40625 48.390625 
Q 24.65625 48.390625 19.8125 42.84375 
Q 14.984375 37.3125 14.984375 27.296875 
Q 14.984375 17.28125 19.8125 11.734375 
Q 24.65625 6.203125 33.40625 6.203125 
Q 37.3125 6.203125 41.140625 7.25 
Q 44.96875 8.296875 48.78125 10.40625 
L 48.78125 2.09375 
Q 45.015625 0.34375 40.984375 -0.53125 
Q 36.96875 -1.421875 32.421875 -1.421875 
Q 20.0625 -1.421875 12.78125 6.34375 
Q 5.515625 14.109375 5.515625 27.296875 
Q 5.515625 40.671875 12.859375 48.328125 
Q 20.21875 56 33.015625 56 
Q 37.15625 56 41.109375 55.140625 
Q 45.0625 54.296875 48.78125 52.59375 
z
" id="DejaVuSans-63"/>
      <path d="M 18.3125 70.21875 
L 18.3125 54.6875 
L 36.8125 54.6875 
L 36.8125 47.703125 
L 18.3125 47.703125 
L 18.3125 18.015625 
Q 18.3125 11.328125 20.140625 9.421875 
Q 21.96875 7.515625 27.59375 7.515625 
L 36.8125 7.515625 
L 36.8125 0 
L 27.59375 0 
Q 17.1875 0 13.234375 3.875 
Q 9.28125 7.765625 9.28125 18.015625 
L 9.28125 47.703125 
L 2.6875 47.703125 
L 2.6875 54.6875 
L 9.28125 54.6875 
L 9.28125 70.21875 
z
" id="DejaVuSans-74"/>
      <path d="M 8.5 21.578125 
L 8.5 54.6875 
L 17.484375 54.6875 
L 17.484375 21.921875 
Q 17.484375 14.15625 20.5 10.265625 
Q 23.53125 6.390625 29.59375 6.390625 
Q 36.859375 6.390625 41.078125 11.03125 
Q 45.3125 15.671875 45.3125 23.6875 
L 45.3125 54.6875 
L 54.296875 54.6875 
L 54.296875 0 
L 45.3125 0 
L 45.3125 8.40625 
Q 42.046875 3.421875 37.71875 1 
Q 33.40625 -1.421875 27.6875 -1.421875 
Q 18.265625 -1.421875 13.375 4.4375 
Q 8.5 10.296875 8.5 21.578125 
z
M 31.109375 56 
z
" id="DejaVuSans-75"/>
      <path d="M 11.71875 12.40625 
L 22.015625 12.40625 
L 22.015625 4 
L 14.015625 -11.625 
L 7.71875 -11.625 
L 11.71875 4 
z
" id="DejaVuSans-2c"/>
      <path d="M 18.109375 8.203125 
L 18.109375 -20.796875 
L 9.078125 -20.796875 
L 9.078125 54.6875 
L 18.109375 54.6875 
L 18.109375 46.390625 
Q 20.953125 51.265625 25.265625 53.625 
Q 29.59375 56 35.59375 56 
Q 45.5625 56 51.78125 48.09375 
Q 58.015625 40.1875 58.015625 27.296875 
Q 58.015625 14.40625 51.78125 6.484375 
Q 45.5625 -1.421875 35.59375 -1.421875 
Q 29.59375 -1.421875 25.265625 0.953125 
Q 20.953125 3.328125 18.109375 8.203125 
z
M 48.6875 27.296875 
Q 48.6875 37.203125 44.609375 42.84375 
Q 40.53125 48.484375 33.40625 48.484375 
Q 26.265625 48.484375 22.1875 42.84375 
Q 18.109375 37.203125 18.109375 27.296875 
Q 18.109375 17.390625 22.1875 11.75 
Q 26.265625 6.109375 33.40625 6.109375 
Q 40.53125 6.109375 44.609375 11.75 
Q 48.6875 17.390625 48.6875 27.296875 
z
" id="DejaVuSans-70"/>
     </defs>
     <g transform="translate(16.139531 286.001989)rotate(-90)scale(0.17 -0.17)">
      <use xlink:href="#DejaVuSans-46"/>
      <use x="57.410156" xlink:href="#DejaVuSans-72"/>
      <use x="98.523438" xlink:href="#DejaVuSans-61"/>
      <use x="159.802734" xlink:href="#DejaVuSans-63"/>
      <use x="214.783203" xlink:href="#DejaVuSans-74"/>
      <use x="253.992188" xlink:href="#DejaVuSans-69"/>
      <use x="281.775391" xlink:href="#DejaVuSans-6f"/>
      <use x="342.957031" xlink:href="#DejaVuSans-6e"/>
      <use x="406.335938" xlink:href="#DejaVuSans-20"/>
      <use x="438.123047" xlink:href="#DejaVuSans-6f"/>
      <use x="499.304688" xlink:href="#DejaVuSans-66"/>
      <use x="534.509766" xlink:href="#DejaVuSans-20"/>
      <use x="566.296875" xlink:href="#DejaVuSans-66"/>
      <use x="601.501953" xlink:href="#DejaVuSans-75"/>
      <use x="664.880859" xlink:href="#DejaVuSans-6e"/>
      <use x="728.259766" xlink:href="#DejaVuSans-63"/>
      <use x="783.240234" xlink:href="#DejaVuSans-74"/>
      <use x="822.449219" xlink:href="#DejaVuSans-69"/>
      <use x="850.232422" xlink:href="#DejaVuSans-6f"/>
      <use x="911.414062" xlink:href="#DejaVuSans-6e"/>
      <use x="974.792969" xlink:href="#DejaVuSans-2c"/>
      <use x="1006.580078" xlink:href="#DejaVuSans-74"/>
      <use x="1045.789062" xlink:href="#DejaVuSans-61"/>
      <use x="1107.068359" xlink:href="#DejaVuSans-72"/>
      <use x="1148.166016" xlink:href="#DejaVuSans-67"/>
      <use x="1211.642578" xlink:href="#DejaVuSans-65"/>
      <use x="1273.166016" xlink:href="#DejaVuSans-74"/>
      <use x="1312.375" xlink:href="#DejaVuSans-20"/>
      <use x="1344.162109" xlink:href="#DejaVuSans-70"/>
      <use x="1407.638672" xlink:href="#DejaVuSans-61"/>
      <use x="1468.917969" xlink:href="#DejaVuSans-69"/>
      <use x="1496.701172" xlink:href="#DejaVuSans-72"/>
      <use x="1537.814453" xlink:href="#DejaVuSans-73"/>
     </g>
    </g>
   </g>
   <g id="line2d_23">
    <defs>
     <path d="M 0 1.5 
C 0.397805 1.5 0.77937 1.341951 1.06066 1.06066 
C 1.341951 0.77937 1.5 0.397805 1.5 0 
C 1.5 -0.397805 1.341951 -0.77937 1.06066 -1.06066 
C 0.77937 -1.341951 0.397805 -1.5 0 -1.5 
C -0.397805 -1.5 -0.77937 -1.341951 -1.06066 -1.06066 
C -1.341951 -0.77937 -1.5 -0.397805 -1.5 0 
C -1.5 0.397805 -1.341951 0.77937 -1.06066 1.06066 
C -0.77937 1.341951 -0.397805 1.5 0 1.5 
z
" id="mb6dc8d4a32" style="stroke:#000080;"/>
    </defs>
    <g>
     <use style="fill:#000080;stroke:#000080;" x="266.913882" xlink:href="#mb6dc8d4a32" y="205.410841"/>
     <use style="fill:#000080;stroke:#000080;" x="266.913882" xlink:href="#mb6dc8d4a32" y="205.410841"/>
    </g>
   </g>
   <g id="line2d_24">
    <path d="M 125.065631 294.88 
L 125.065631 293.202453 
L 132.35161 293.202453 
L 132.35161 290.406542 
L 133.728734 290.406542 
L 133.728734 289.84736 
L 134.286778 289.84736 
L 134.286778 287.610631 
L 135.178422 287.610631 
L 135.178422 286.492266 
L 136.026124 286.492266 
L 136.026124 285.933084 
L 136.991135 285.933084 
L 136.991135 285.373902 
L 137.60566 285.373902 
L 137.60566 284.255537 
L 137.755922 284.255537 
L 137.755922 283.696355 
L 139.598531 283.696355 
L 139.598531 282.018808 
L 139.732422 282.018808 
L 139.732422 281.459626 
L 139.997117 281.459626 
L 139.997117 280.900444 
L 140.386678 280.900444 
L 140.386678 280.341262 
L 143.002096 280.341262 
L 143.002096 279.222897 
L 143.22127 279.222897 
L 143.22127 278.104533 
L 144.071065 278.104533 
L 144.174398 274.190257 
L 144.979451 274.190257 
L 144.979451 272.51271 
L 145.368278 272.51271 
L 145.368278 271.394346 
L 145.654238 271.394346 
L 145.654238 270.835164 
L 146.394347 270.835164 
L 146.484661 268.598435 
L 146.574504 268.598435 
L 146.574504 267.48007 
L 146.841251 267.48007 
L 146.929256 265.802523 
L 147.951628 265.802523 
L 147.951628 263.565795 
L 148.521108 263.565795 
L 148.600945 261.888248 
L 149.072341 261.888248 
L 149.072341 261.329066 
L 150.197243 261.329066 
L 150.197243 260.769883 
L 150.341822 260.769883 
L 150.341822 260.210701 
L 150.977803 260.210701 
L 150.977803 259.651519 
L 153.490634 259.651519 
L 153.490634 258.533154 
L 153.610112 258.533154 
L 153.610112 256.855608 
L 203.75356 256.855608 
L 203.830871 253.500514 
L 203.927024 253.500514 
L 203.981273 251.263785 
L 204.044877 251.263785 
L 204.111409 248.467874 
L 204.177685 248.467874 
L 204.253117 245.671963 
L 204.430955 245.671963 
L 204.430955 245.112781 
L 215.430292 245.112781 
L 215.510356 242.876052 
L 215.598161 242.876052 
L 215.70165 237.284229 
L 215.729034 237.284229 
L 215.834941 235.0475 
L 215.855724 235.0475 
L 215.855724 234.488318 
L 215.983074 234.488318 
L 215.983074 233.929136 
L 222.429724 233.929136 
L 222.528662 232.251589 
L 222.556826 232.251589 
L 222.661494 228.896496 
L 227.350882 228.896496 
L 227.413023 227.218949 
L 227.468434 227.218949 
L 227.468434 226.659767 
L 227.590035 226.659767 
L 227.590035 226.100584 
L 231.209685 226.100584 
L 231.292613 223.863855 
L 234.348139 223.863855 
L 234.458502 220.508762 
L 237.009862 220.508762 
L 237.079804 218.272033 
L 239.271062 218.272033 
L 239.271062 217.712851 
L 243.085043 217.712851 
L 243.094231 216.035304 
L 244.741335 216.035304 
L 244.788669 214.357757 
L 246.234876 214.357757 
L 246.250448 212.680211 
L 247.586331 212.680211 
L 247.621164 211.561846 
L 248.886471 211.561846 
L 248.886471 211.002664 
L 250.093262 211.002664 
L 250.093262 210.443482 
L 252.218505 210.443482 
L 252.218505 209.884299 
L 254.123164 209.884299 
L 254.123164 209.325117 
L 257.395699 209.325117 
L 257.395699 208.765935 
L 261.393478 208.765935 
L 261.393478 208.206753 
L 264.109035 208.206753 
L 264.123536 207.088388 
L 264.613652 207.088388 
L 264.613652 206.529206 
L 265.104802 206.529206 
L 265.104802 205.970024 
L 266.913882 205.970024 
L 266.913882 205.410841 
L 333.429677 205.410841 
L 333.429677 205.410841 
" style="fill:none;stroke:#000080;stroke-linecap:square;stroke-width:1.5;"/>
   </g>
   <g id="line2d_25">
    <defs>
     <path d="M 0 6 
C 1.591219 6 3.117479 5.367802 4.242641 4.242641 
C 5.367802 3.117479 6 1.591219 6 0 
C 6 -1.591219 5.367802 -3.117479 4.242641 -4.242641 
C 3.117479 -5.367802 1.591219 -6 0 -6 
C -1.591219 -6 -3.117479 -5.367802 -4.242641 -4.242641 
C -5.367802 -3.117479 -6 -1.591219 -6 0 
C -6 1.591219 -5.367802 3.117479 -4.242641 4.242641 
C -3.117479 5.367802 -1.591219 6 0 6 
z
" id="m7690694bab" style="stroke:#000080;stroke-width:1.5;"/>
    </defs>
    <g>
     <use style="fill-opacity:0;stroke:#000080;stroke-width:1.5;" x="150.341822" xlink:href="#m7690694bab" y="260.210701"/>
     <use style="fill-opacity:0;stroke:#000080;stroke-width:1.5;" x="215.658066" xlink:href="#m7690694bab" y="240.08014"/>
     <use style="fill-opacity:0;stroke:#000080;stroke-width:1.5;" x="261.393478" xlink:href="#m7690694bab" y="208.206753"/>
     <use style="fill-opacity:0;stroke:#000080;stroke-width:1.5;" x="266.913882" xlink:href="#m7690694bab" y="205.410841"/>
     <use style="fill-opacity:0;stroke:#000080;stroke-width:1.5;" x="333.429677" xlink:href="#m7690694bab" y="205.410841"/>
    </g>
   </g>
   <g id="line2d_26">
    <path style="fill:none;stroke:#000080;stroke-linecap:square;stroke-width:1.5;"/>
    <g/>
   </g>
   <g id="line2d_27">
    <path clip-path="url(#pc1b0cac48b)" d="M 203.414473 256.855608 
" style="fill:none;stroke:#000080;stroke-linecap:square;stroke-width:1.5;"/>
    <defs>
     <path d="M -12 12 
L 12 -12 
M -12 -12 
L 12 12 
" id="m4f5196a40b" style="stroke:#000080;stroke-width:3;"/>
    </defs>
    <g clip-path="url(#pc1b0cac48b)">
     <use style="fill:#000080;stroke:#000080;stroke-width:3;" x="203.414473" xlink:href="#m4f5196a40b" y="256.855608"/>
    </g>
   </g>
   <g id="line2d_28">
    <defs>
     <path d="M 0 1.5 
C 0.397805 1.5 0.77937 1.341951 1.06066 1.06066 
C 1.341951 0.77937 1.5 0.397805 1.5 0 
C 1.5 -0.397805 1.341951 -0.77937 1.06066 -1.06066 
C 0.77937 -1.341951 0.397805 -1.5 0 -1.5 
C -0.397805 -1.5 -0.77937 -1.341951 -1.06066 -1.06066 
C -1.341951 -0.77937 -1.5 -0.397805 -1.5 0 
C -1.5 0.397805 -1.341951 0.77937 -1.06066 1.06066 
C -0.77937 1.341951 -0.397805 1.5 0 1.5 
z
" id="m4ec5ca7eb3" style="stroke:#ff00ff;"/>
    </defs>
    <g>
     <use style="fill:#ff00ff;stroke:#ff00ff;" x="268.550334" xlink:href="#m4ec5ca7eb3" y="183.043552"/>
     <use style="fill:#ff00ff;stroke:#ff00ff;" x="268.550334" xlink:href="#m4ec5ca7eb3" y="183.043552"/>
    </g>
   </g>
   <g id="line2d_29">
    <path d="M 116.276944 294.88 
L 116.276944 291.524907 
L 125.375637 291.524907 
L 125.375637 288.169813 
L 126.56265 288.169813 
L 126.56265 287.051449 
L 127.939774 287.051449 
L 127.939774 284.81472 
L 130.629687 284.81472 
L 130.629687 280.341262 
L 136.353845 280.341262 
L 136.353845 279.782079 
L 137.454074 279.782079 
L 137.454074 278.104533 
L 137.60566 278.104533 
L 137.60566 276.426986 
L 137.755922 276.426986 
L 137.755922 275.867804 
L 138.912987 275.867804 
L 138.912987 273.631075 
L 139.997117 273.631075 
L 139.997117 272.51271 
L 140.641569 272.51271 
L 140.641569 270.275981 
L 141.262751 270.275981 
L 141.262751 269.716799 
L 141.744038 269.716799 
L 141.744038 269.157617 
L 142.891454 269.157617 
L 143.002096 267.48007 
L 143.112032 267.48007 
L 143.112032 265.802523 
L 143.329818 265.802523 
L 143.329818 264.124977 
L 143.544882 264.124977 
L 143.651414 262.44743 
L 143.862519 262.44743 
L 143.967108 259.651519 
L 145.271892 259.651519 
L 145.271892 256.855608 
L 145.935523 256.855608 
L 145.935523 255.178061 
L 146.303556 255.178061 
L 146.303556 252.941332 
L 146.66388 252.941332 
L 146.66388 250.704603 
L 146.841251 250.704603 
L 146.841251 249.586238 
L 147.190601 249.586238 
L 147.190601 248.467874 
L 147.448035 248.467874 
L 147.448035 247.908692 
L 148.360314 247.908692 
L 148.360314 245.671963 
L 148.521108 245.671963 
L 148.521108 245.112781 
L 148.994666 245.112781 
L 148.994666 240.08014 
L 149.303282 240.08014 
L 149.303282 239.520958 
L 150.269684 239.520958 
L 150.269684 236.725047 
L 150.768411 236.725047 
L 150.768411 236.165865 
L 151.184678 236.165865 
L 151.184678 235.0475 
L 152.503704 235.0475 
L 152.567074 233.929136 
L 153.905229 233.929136 
L 153.905229 232.251589 
L 154.927601 232.251589 
L 154.927601 231.692407 
L 203.627184 231.692407 
L 203.627184 231.133225 
L 203.856565 231.133225 
L 203.93661 228.337313 
L 204.013104 228.337313 
L 204.10192 224.98222 
L 204.127212 224.98222 
L 204.221727 219.94958 
L 204.28445 219.94958 
L 204.303222 218.272033 
L 215.554315 218.272033 
L 215.658066 215.476122 
L 215.680679 215.476122 
L 215.700037 211.561846 
L 215.975142 211.561846 
L 215.975142 211.002664 
L 222.459138 211.002664 
L 222.556826 206.529206 
L 222.575216 206.529206 
L 222.655038 203.733295 
L 227.417104 203.733295 
L 227.505816 199.819019 
L 227.585995 199.819019 
L 227.585995 199.259837 
L 231.260664 199.259837 
L 231.30889 195.904743 
L 234.329585 195.904743 
L 234.362314 194.227197 
L 234.455792 194.227197 
L 234.455792 193.668014 
L 236.985081 193.668014 
L 236.993501 191.431285 
L 241.288624 191.431285 
L 241.304284 189.753739 
L 243.126678 189.753739 
L 243.159064 188.635374 
L 246.274462 188.635374 
L 246.274462 188.076192 
L 247.64334 188.076192 
L 247.64334 187.51701 
L 248.911287 187.51701 
L 248.911287 186.957828 
L 252.205567 186.957828 
L 252.205567 186.398645 
L 253.214675 186.398645 
L 253.214675 185.839463 
L 254.141126 185.839463 
L 254.141126 185.280281 
L 256.624606 185.280281 
L 256.624606 184.721099 
L 258.119197 184.721099 
L 258.119197 184.161916 
L 268.140343 184.161916 
L 268.140343 183.602734 
L 268.550334 183.602734 
L 268.550334 183.043552 
L 333.429677 183.043552 
L 333.429677 183.043552 
" style="fill:none;stroke:#ff00ff;stroke-linecap:square;stroke-width:1.5;"/>
   </g>
   <g id="line2d_30">
    <defs>
     <path d="M -0 8.485281 
L 5.091169 0 
L 0 -8.485281 
L -5.091169 -0 
z
" id="m3c0be673ba" style="stroke:#ff00ff;stroke-linejoin:miter;stroke-width:1.5;"/>
    </defs>
    <g>
     <use style="fill-opacity:0;stroke:#ff00ff;stroke-linejoin:miter;stroke-width:1.5;" x="154.927601" xlink:href="#m3c0be673ba" y="232.251589"/>
     <use style="fill-opacity:0;stroke:#ff00ff;stroke-linejoin:miter;stroke-width:1.5;" x="222.491762" xlink:href="#m3c0be673ba" y="210.443482"/>
     <use style="fill-opacity:0;stroke:#ff00ff;stroke-linejoin:miter;stroke-width:1.5;" x="268.550334" xlink:href="#m3c0be673ba" y="183.043552"/>
     <use style="fill-opacity:0;stroke:#ff00ff;stroke-linejoin:miter;stroke-width:1.5;" x="268.550334" xlink:href="#m3c0be673ba" y="183.043552"/>
     <use style="fill-opacity:0;stroke:#ff00ff;stroke-linejoin:miter;stroke-width:1.5;" x="333.429677" xlink:href="#m3c0be673ba" y="183.043552"/>
    </g>
   </g>
   <g id="line2d_31">
    <path style="fill:none;stroke:#ff00ff;stroke-linecap:square;stroke-width:1.5;"/>
    <g/>
   </g>
   <g id="line2d_32">
    <path clip-path="url(#pc1b0cac48b)" d="M 203.414473 231.692407 
" style="fill:none;stroke:#ff00ff;stroke-linecap:square;stroke-width:1.5;"/>
    <defs>
     <path d="M -12 12 
L 12 -12 
M -12 -12 
L 12 12 
" id="me5e3bb6285" style="stroke:#ff00ff;stroke-width:3;"/>
    </defs>
    <g clip-path="url(#pc1b0cac48b)">
     <use style="fill:#ff00ff;stroke:#ff00ff;stroke-width:3;" x="203.414473" xlink:href="#me5e3bb6285" y="231.692407"/>
    </g>
   </g>
   <g id="line2d_33">
    <defs>
     <path d="M 0 1.5 
C 0.397805 1.5 0.77937 1.341951 1.06066 1.06066 
C 1.341951 0.77937 1.5 0.397805 1.5 0 
C 1.5 -0.397805 1.341951 -0.77937 1.06066 -1.06066 
C 0.77937 -1.341951 0.397805 -1.5 0 -1.5 
C -0.397805 -1.5 -0.77937 -1.341951 -1.06066 -1.06066 
C -1.341951 -0.77937 -1.5 -0.397805 -1.5 0 
C -1.5 0.397805 -1.341951 0.77937 -1.06066 1.06066 
C -0.77937 1.341951 -0.397805 1.5 0 1.5 
z
" id="m2458dc7091" style="stroke:#ffa500;"/>
    </defs>
    <g>
     <use style="fill:#ffa500;stroke:#ffa500;" x="266.553378" xlink:href="#m2458dc7091" y="9.697057"/>
     <use style="fill:#ffa500;stroke:#ffa500;" x="266.553378" xlink:href="#m2458dc7091" y="9.697057"/>
    </g>
   </g>
   <g id="line2d_34">
    <path d="M 83.810164 294.88 
L 83.810164 294.320818 
L 126.273486 294.320818 
L 126.273486 289.84736 
L 128.202449 289.84736 
L 128.202449 287.610631 
L 132.145561 287.610631 
L 132.145561 287.051449 
L 136.834012 287.051449 
L 136.834012 284.255537 
L 137.146836 284.255537 
L 137.146836 280.900444 
L 137.60566 280.900444 
L 137.60566 279.782079 
L 138.488154 279.782079 
L 138.488154 278.663715 
L 138.912987 278.663715 
L 138.912987 274.190257 
L 139.997117 274.190257 
L 139.997117 272.51271 
L 140.127953 272.51271 
L 140.127953 271.394346 
L 140.386678 271.394346 
L 140.386678 270.835164 
L 140.641569 270.835164 
L 140.641569 270.275981 
L 141.744038 270.275981 
L 141.744038 268.039252 
L 142.212226 268.039252 
L 142.212226 267.48007 
L 143.112032 267.48007 
L 143.112032 264.684159 
L 143.437686 264.684159 
L 143.437686 264.124977 
L 143.651414 264.124977 
L 143.75729 260.210701 
L 143.967108 260.210701 
L 143.967108 259.092337 
L 144.277114 259.092337 
L 144.277114 258.533154 
L 144.480724 258.533154 
L 144.581633 255.737243 
L 144.781692 255.737243 
L 144.781692 255.178061 
L 145.077485 255.178061 
L 145.077485 254.059696 
L 145.271892 254.059696 
L 145.271892 252.941332 
L 145.559445 252.941332 
L 145.559445 251.263785 
L 146.574504 251.263785 
L 146.574504 250.145421 
L 148.034145 250.145421 
L 148.116269 247.34951 
L 148.27935 247.34951 
L 148.27935 244.553598 
L 149.072341 244.553598 
L 149.072341 241.757687 
L 149.455539 241.757687 
L 149.455539 241.198505 
L 149.681426 241.198505 
L 149.681426 240.08014 
L 150.413659 240.08014 
L 150.413659 238.961776 
L 151.922622 238.961776 
L 151.922622 237.284229 
L 154.137731 237.284229 
L 154.195368 235.606682 
L 157.72096 235.606682 
L 157.72096 235.0475 
L 161.494358 235.0475 
L 161.494358 233.929136 
L 163.749342 233.929136 
L 163.749342 232.810771 
L 165.446086 232.810771 
L 165.446086 232.251589 
L 166.547109 232.251589 
L 166.547109 231.692407 
L 167.180827 231.692407 
L 167.234845 230.574042 
L 168.20476 230.574042 
L 168.306413 227.778131 
L 168.60782 227.778131 
L 168.60782 226.659767 
L 168.855021 226.659767 
L 168.855021 226.100584 
L 169.267278 226.100584 
L 169.267278 224.98222 
L 169.925468 224.98222 
L 169.925468 223.304673 
L 171.04161 223.304673 
L 171.04161 222.186309 
L 171.320324 222.186309 
L 171.320324 221.627126 
L 172.291908 221.627126 
L 172.291908 219.94958 
L 173.363298 219.94958 
L 173.363298 219.390397 
L 173.810687 219.390397 
L 173.84745 218.272033 
L 174.81146 218.272033 
L 174.81146 217.712851 
L 175.018542 217.712851 
L 175.018542 210.443482 
L 175.822811 210.443482 
L 175.822811 209.325117 
L 176.855254 209.325117 
L 176.855254 208.765935 
L 177.564989 208.765935 
L 177.564989 207.088388 
L 178.089479 207.088388 
L 178.089479 206.529206 
L 179.860529 206.529206 
L 179.860529 205.410841 
L 180.181166 205.410841 
L 180.181166 204.292477 
L 180.632631 204.292477 
L 180.632631 201.496566 
L 181.144791 201.496566 
L 181.144791 200.378201 
L 181.347836 200.378201 
L 181.347836 199.819019 
L 181.688771 199.819019 
L 181.688771 198.141472 
L 181.87402 198.141472 
L 181.87402 194.227197 
L 182.182175 194.227197 
L 182.182175 193.668014 
L 182.351017 193.668014 
L 182.351017 191.431285 
L 182.771479 191.431285 
L 182.771479 189.753739 
L 183.862032 189.753739 
L 183.862032 189.194556 
L 186.028116 189.194556 
L 186.028116 186.398645 
L 186.952621 186.398645 
L 186.952621 185.839463 
L 187.199442 185.839463 
L 187.199442 183.602734 
L 187.359254 183.602734 
L 187.359254 183.043552 
L 203.202433 183.043552 
L 203.202433 182.48437 
L 203.923827 182.48437 
L 203.984459 179.688458 
L 204.060741 179.688458 
L 204.161928 176.333365 
L 204.187132 176.333365 
L 204.256253 175.215 
L 204.331343 175.215 
L 204.331343 174.655818 
L 204.492921 174.655818 
L 204.492921 173.537454 
L 204.962728 173.537454 
L 205.049781 171.859907 
L 205.210715 171.859907 
L 205.210715 171.300725 
L 205.431765 171.300725 
L 205.431765 169.623178 
L 205.580474 169.623178 
L 205.658684 167.945631 
L 205.710628 167.945631 
L 205.811183 166.827267 
L 205.854098 166.827267 
L 205.891205 165.708902 
L 206.030356 165.708902 
L 206.103736 164.031356 
L 206.182413 164.031356 
L 206.246772 162.912991 
L 206.402473 162.912991 
L 206.435655 157.321169 
L 206.617021 157.321169 
L 206.69339 155.643622 
L 206.923171 155.643622 
L 207.03025 152.847711 
L 207.186985 152.847711 
L 207.186985 148.933435 
L 207.472843 148.933435 
L 207.581735 146.696706 
L 207.700212 146.696706 
L 207.741231 143.900795 
L 207.848442 143.900795 
L 207.873871 142.78243 
L 208.075956 142.78243 
L 208.075956 142.223248 
L 208.426454 142.223248 
L 208.426454 141.664066 
L 208.748232 141.664066 
L 208.796466 138.868155 
L 208.875756 138.868155 
L 208.911677 134.953879 
L 209.007101 134.953879 
L 209.075954 133.276332 
L 209.120915 133.276332 
L 209.120915 132.71715 
L 215.606269 132.71715 
L 215.70165 131.039603 
L 215.766015 131.039603 
L 215.766015 130.480421 
L 216.356459 130.480421 
L 216.457041 128.243692 
L 216.602996 128.243692 
L 216.656458 126.006963 
L 216.75379 126.006963 
L 216.814344 123.770234 
L 216.870167 123.770234 
L 216.916799 120.415141 
L 217.15549 120.415141 
L 217.242678 115.382501 
L 217.329427 115.382501 
L 217.436158 112.027407 
L 217.441987 112.027407 
L 217.549472 110.349861 
L 217.615951 110.349861 
L 217.677862 106.994767 
L 217.842353 106.994767 
L 217.900619 105.876403 
L 217.996823 105.876403 
L 218.084071 103.639674 
L 218.212727 103.639674 
L 218.307206 98.607033 
L 218.362541 98.607033 
L 218.402547 96.370304 
L 219.991413 96.370304 
L 219.991413 95.811122 
L 222.557908 95.811122 
L 222.601144 93.574393 
L 222.93577 93.574393 
L 223.04553 89.660118 
L 223.115872 89.660118 
L 223.168179 88.541753 
L 223.271281 88.541753 
L 223.271281 87.982571 
L 223.383055 87.982571 
L 223.383055 84.068295 
L 223.661384 84.068295 
L 223.741385 80.713202 
L 223.778727 80.713202 
L 223.882253 77.358108 
L 223.924289 77.358108 
L 223.962234 75.680562 
L 224.215702 75.680562 
L 224.286323 74.003015 
L 224.335195 74.003015 
L 224.416988 70.088739 
L 227.479819 70.088739 
L 227.479819 69.529557 
L 227.896679 69.529557 
L 227.938686 68.411192 
L 228.018453 68.411192 
L 228.018453 67.85201 
L 228.288946 67.85201 
L 228.374058 65.056099 
L 228.453373 65.056099 
L 228.485611 63.937735 
L 228.661845 63.937735 
L 228.726242 62.260188 
L 228.776832 62.260188 
L 228.843054 60.023459 
L 230.873251 60.023459 
L 230.873251 59.464277 
L 231.527462 59.464277 
L 231.527462 58.905094 
L 231.694997 58.905094 
L 231.752808 56.668365 
L 231.891142 56.668365 
L 231.940145 52.194907 
L 232.061421 52.194907 
L 232.111183 51.076543 
L 232.313719 51.076543 
L 232.407386 48.839814 
L 234.616556 48.839814 
L 234.679802 47.72145 
L 234.730018 47.72145 
L 234.783279 46.603085 
L 234.899347 46.603085 
L 234.930484 43.807174 
L 235.042424 43.807174 
L 235.042424 43.247992 
L 235.173407 43.247992 
L 235.280684 41.570445 
L 235.306496 41.570445 
L 235.306496 41.011263 
L 237.190199 41.011263 
L 237.270002 39.333716 
L 237.304484 39.333716 
L 237.359054 38.215351 
L 237.459031 38.215351 
L 237.485866 33.741894 
L 237.788152 33.741894 
L 237.79485 31.505165 
L 239.598946 31.505165 
L 239.598946 30.945982 
L 239.710328 30.945982 
L 239.710328 29.268436 
L 240.009234 29.268436 
L 240.009234 28.709253 
L 241.679833 28.709253 
L 241.679833 27.590889 
L 241.922443 27.590889 
L 241.934729 25.913342 
L 243.357279 25.913342 
L 243.446861 24.235795 
L 243.650702 24.235795 
L 243.665941 22.558249 
L 245.047433 22.558249 
L 245.04919 18.643973 
L 246.514923 18.643973 
L 246.55548 16.407244 
L 246.694419 16.407244 
L 246.69841 15.28888 
L 248.031538 15.28888 
L 248.031538 14.729697 
L 249.050619 14.729697 
L 249.053404 13.611333 
L 249.283643 13.611333 
L 249.283643 13.052151 
L 251.378121 13.052151 
L 251.378121 12.492968 
L 252.536368 12.492968 
L 252.536368 11.933786 
L 257.542655 11.933786 
L 257.542655 11.374604 
L 262.144547 11.374604 
L 262.144547 10.815422 
L 264.274485 10.815422 
L 264.274485 10.256239 
L 266.553378 10.256239 
L 266.553378 9.697057 
L 333.429677 9.697057 
L 333.429677 9.697057 
" style="fill:none;stroke:#ffa500;stroke-linecap:square;stroke-width:1.5;"/>
   </g>
   <g id="line2d_35">
    <defs>
     <path d="M 0 -6 
L -1.347084 -1.854102 
L -5.706339 -1.854102 
L -2.179628 0.708204 
L -3.526712 4.854102 
L -0 2.291796 
L 3.526712 4.854102 
L 2.179628 0.708204 
L 5.706339 -1.854102 
L 1.347084 -1.854102 
z
" id="mb821eee11b" style="stroke:#ffa500;stroke-linejoin:bevel;stroke-width:1.5;"/>
    </defs>
    <g>
     <use style="fill-opacity:0;stroke:#ffa500;stroke-linejoin:bevel;stroke-width:1.5;" x="186.952621" xlink:href="#mb821eee11b" y="185.839463"/>
     <use style="fill-opacity:0;stroke:#ffa500;stroke-linejoin:bevel;stroke-width:1.5;" x="237.270002" xlink:href="#mb821eee11b" y="39.892898"/>
     <use style="fill-opacity:0;stroke:#ffa500;stroke-linejoin:bevel;stroke-width:1.5;" x="266.553378" xlink:href="#mb821eee11b" y="9.697057"/>
     <use style="fill-opacity:0;stroke:#ffa500;stroke-linejoin:bevel;stroke-width:1.5;" x="266.553378" xlink:href="#mb821eee11b" y="9.697057"/>
     <use style="fill-opacity:0;stroke:#ffa500;stroke-linejoin:bevel;stroke-width:1.5;" x="333.429677" xlink:href="#mb821eee11b" y="9.697057"/>
    </g>
   </g>
   <g id="line2d_36">
    <path style="fill:none;stroke:#ffa500;stroke-linecap:square;stroke-width:1.5;"/>
    <g/>
   </g>
   <g id="line2d_37">
    <path clip-path="url(#pc1b0cac48b)" d="M 203.414473 182.48437 
" style="fill:none;stroke:#ffa500;stroke-linecap:square;stroke-width:1.5;"/>
    <defs>
     <path d="M -12 12 
L 12 -12 
M -12 -12 
L 12 12 
" id="mdec75dd035" style="stroke:#ffa500;stroke-width:3;"/>
    </defs>
    <g clip-path="url(#pc1b0cac48b)">
     <use style="fill:#ffa500;stroke:#ffa500;stroke-width:3;" x="203.414473" xlink:href="#mdec75dd035" y="182.48437"/>
    </g>
   </g>
   <g id="line2d_38">
    <defs>
     <path d="M 0 1.5 
C 0.397805 1.5 0.77937 1.341951 1.06066 1.06066 
C 1.341951 0.77937 1.5 0.397805 1.5 0 
C 1.5 -0.397805 1.341951 -0.77937 1.06066 -1.06066 
C 0.77937 -1.341951 0.397805 -1.5 0 -1.5 
C -0.397805 -1.5 -0.77937 -1.341951 -1.06066 -1.06066 
C -1.341951 -0.77937 -1.5 -0.397805 -1.5 0 
C -1.5 0.397805 -1.341951 0.77937 -1.06066 1.06066 
C -0.77937 1.341951 -0.397805 1.5 0 1.5 
z
" id="m6808cf5097" style="stroke:#6495ed;"/>
    </defs>
    <g>
     <use style="fill:#6495ed;stroke:#6495ed;" x="274.723708" xlink:href="#m6808cf5097" y="155.08444"/>
     <use style="fill:#6495ed;stroke:#6495ed;" x="274.723708" xlink:href="#m6808cf5097" y="155.08444"/>
    </g>
   </g>
   <g id="line2d_39">
    <path d="M 56.12 294.88 
L 56.12 292.643271 
L 68.045504 292.643271 
L 68.045504 289.84736 
L 79.971009 289.84736 
L 79.971009 288.728995 
L 89.599124 288.728995 
L 89.599124 287.051449 
L 91.896513 287.051449 
L 91.896513 286.492266 
L 97.375467 286.492266 
L 97.375467 285.373902 
L 98.872486 285.373902 
L 98.872486 284.255537 
L 100.24961 284.255537 
L 100.24961 283.696355 
L 106.778678 283.696355 
L 106.778678 283.137173 
L 109.300972 283.137173 
L 109.300972 279.222897 
L 114.637146 279.222897 
L 114.637146 278.663715 
L 115.747522 278.663715 
L 115.747522 278.104533 
L 121.991263 278.104533 
L 121.991263 276.986168 
L 122.361274 276.986168 
L 122.361274 275.867804 
L 124.428341 275.867804 
L 124.428341 274.749439 
L 125.979378 274.749439 
L 125.979378 272.51271 
L 126.273486 272.51271 
L 126.273486 271.953528 
L 127.126794 271.953528 
L 127.126794 271.394346 
L 127.402078 271.394346 
L 127.402078 267.48007 
L 127.939774 267.48007 
L 127.939774 265.802523 
L 129.458837 265.802523 
L 129.458837 264.124977 
L 129.699468 264.124977 
L 129.699468 261.888248 
L 131.937015 261.888248 
L 131.937015 260.210701 
L 133.346388 260.210701 
L 133.346388 258.533154 
L 134.286778 258.533154 
L 134.286778 257.41479 
L 136.515394 257.41479 
L 136.515394 256.855608 
L 136.834012 256.855608 
L 136.834012 254.618879 
L 137.454074 254.618879 
L 137.454074 254.059696 
L 137.904883 254.059696 
L 137.904883 253.500514 
L 139.052299 253.500514 
L 139.052299 251.263785 
L 141.016963 251.263785 
L 141.016963 250.704603 
L 141.744038 250.704603 
L 141.744038 249.027056 
L 142.891454 249.027056 
L 143.002096 246.790327 
L 143.651414 246.790327 
L 143.651414 246.231145 
L 144.979451 246.231145 
L 145.077485 243.994416 
L 145.174963 243.994416 
L 145.174963 243.435234 
L 146.66388 243.435234 
L 146.66388 242.316869 
L 146.841251 242.316869 
L 146.841251 241.757687 
L 148.034145 241.757687 
L 148.116269 240.08014 
L 148.440899 240.08014 
L 148.521108 238.961776 
L 151.115996 238.961776 
L 151.115996 238.402594 
L 152.053458 238.402594 
L 152.053458 237.284229 
L 152.567074 237.284229 
L 152.567074 235.0475 
L 152.880468 235.0475 
L 152.880468 233.369954 
L 153.846609 233.369954 
L 153.846609 232.810771 
L 155.146774 232.810771 
L 155.146774 232.251589 
L 155.309341 232.251589 
L 155.309341 231.692407 
L 157.197397 231.692407 
L 157.197397 227.218949 
L 158.319851 227.218949 
L 158.410165 224.98222 
L 159.458502 224.98222 
L 159.458502 224.423038 
L 160.285818 224.423038 
L 160.285818 223.863855 
L 203.620679 223.863855 
L 203.620679 222.745491 
L 203.769695 222.745491 
L 203.769695 222.186309 
L 203.917433 222.186309 
L 203.984459 217.153669 
L 204.092426 217.153669 
L 204.174535 214.91694 
L 204.218585 214.91694 
L 204.312601 212.680211 
L 204.424746 212.680211 
L 204.424746 212.121028 
L 204.5485 212.121028 
L 204.659123 209.325117 
L 215.443389 209.325117 
L 215.518505 207.64757 
L 215.567318 207.64757 
L 215.625711 204.851659 
L 215.680679 204.851659 
L 215.746731 203.174112 
L 215.852528 203.174112 
L 215.957679 199.259837 
L 215.995757 199.259837 
L 216.019513 198.141472 
L 222.38496 198.141472 
L 222.492849 195.904743 
L 222.506966 195.904743 
L 222.506966 195.345561 
L 222.702324 195.345561 
L 222.777287 192.54965 
L 222.888059 192.54965 
L 222.888059 190.312921 
L 227.37053 190.312921 
L 227.436676 188.076192 
L 227.494447 188.076192 
L 227.596496 185.280281 
L 227.608604 185.280281 
L 227.696337 183.043552 
L 231.144105 183.043552 
L 231.231272 181.366005 
L 231.311493 181.366005 
L 231.37968 175.774183 
L 231.443724 175.774183 
L 231.443724 175.215 
L 234.355773 175.215 
L 234.45525 170.741543 
L 234.473669 170.741543 
L 234.52449 169.623178 
L 236.99163 169.623178 
L 237.092829 167.945631 
L 239.336895 167.945631 
L 239.407763 165.14972 
L 241.293724 165.14972 
L 241.293724 164.590538 
L 243.155468 164.590538 
L 243.20052 163.472173 
L 244.776178 163.472173 
L 244.796991 162.353809 
L 246.253452 162.353809 
L 246.253452 161.794627 
L 248.911053 161.794627 
L 248.919005 160.676262 
L 251.1896 160.676262 
L 251.223175 159.557898 
L 255.018423 159.557898 
L 255.041046 158.439533 
L 257.416261 158.439533 
L 257.416261 157.880351 
L 258.863155 157.880351 
L 258.863155 157.321169 
L 259.523454 157.321169 
L 259.523454 156.761987 
L 263.623226 156.761987 
L 263.623226 156.202804 
L 271.427989 156.202804 
L 271.427989 155.643622 
L 274.723708 155.643622 
L 274.723708 155.08444 
L 333.429677 155.08444 
L 333.429677 155.08444 
" style="fill:none;stroke:#6495ed;stroke-linecap:square;stroke-width:1.5;"/>
   </g>
   <g id="line2d_40">
    <defs>
     <path d="M -0 6 
L 6 -6 
L -6 -6 
z
" id="m90c6eb11da" style="stroke:#6495ed;stroke-linejoin:miter;stroke-width:1.5;"/>
    </defs>
    <g>
     <use style="fill-opacity:0;stroke:#6495ed;stroke-linejoin:miter;stroke-width:1.5;" x="100.24961" xlink:href="#m90c6eb11da" y="284.255537"/>
     <use style="fill-opacity:0;stroke:#6495ed;stroke-linejoin:miter;stroke-width:1.5;" x="160.285818" xlink:href="#m90c6eb11da" y="223.863855"/>
     <use style="fill-opacity:0;stroke:#6495ed;stroke-linejoin:miter;stroke-width:1.5;" x="255.041046" xlink:href="#m90c6eb11da" y="158.439533"/>
     <use style="fill-opacity:0;stroke:#6495ed;stroke-linejoin:miter;stroke-width:1.5;" x="274.723708" xlink:href="#m90c6eb11da" y="155.08444"/>
     <use style="fill-opacity:0;stroke:#6495ed;stroke-linejoin:miter;stroke-width:1.5;" x="333.429677" xlink:href="#m90c6eb11da" y="155.08444"/>
    </g>
   </g>
   <g id="line2d_41">
    <path style="fill:none;stroke:#6495ed;stroke-linecap:square;stroke-width:1.5;"/>
    <g/>
   </g>
   <g id="line2d_42">
    <path clip-path="url(#pc1b0cac48b)" d="M 203.414473 223.863855 
" style="fill:none;stroke:#6495ed;stroke-linecap:square;stroke-width:1.5;"/>
    <defs>
     <path d="M -12 12 
L 12 -12 
M -12 -12 
L 12 12 
" id="md7a942fcba" style="stroke:#6495ed;stroke-width:3;"/>
    </defs>
    <g clip-path="url(#pc1b0cac48b)">
     <use style="fill:#6495ed;stroke:#6495ed;stroke-width:3;" x="203.414473" xlink:href="#md7a942fcba" y="223.863855"/>
    </g>
   </g>
   <g id="line2d_43">
    <defs>
     <path d="M 0 1.5 
C 0.397805 1.5 0.77937 1.341951 1.06066 1.06066 
C 1.341951 0.77937 1.5 0.397805 1.5 0 
C 1.5 -0.397805 1.341951 -0.77937 1.06066 -1.06066 
C 0.77937 -1.341951 0.397805 -1.5 0 -1.5 
C -0.397805 -1.5 -0.77937 -1.341951 -1.06066 -1.06066 
C -1.341951 -0.77937 -1.5 -0.397805 -1.5 0 
C -1.5 0.397805 -1.341951 0.77937 -1.06066 1.06066 
C -0.77937 1.341951 -0.397805 1.5 0 1.5 
z
" id="m1d489afe2b" style="stroke:#ff0000;"/>
    </defs>
    <g>
     <use style="fill:#ff0000;stroke:#ff0000;" x="272.70148" xlink:href="#m1d489afe2b" y="15.28888"/>
     <use style="fill:#ff0000;stroke:#ff0000;" x="272.70148" xlink:href="#m1d489afe2b" y="15.28888"/>
    </g>
   </g>
   <g id="line2d_44">
    <path d="M 56.12 294.88 
L 56.12 271.394346 
L 68.045504 271.394346 
L 68.045504 261.888248 
L 75.021477 261.888248 
L 75.021477 254.059696 
L 79.971009 254.059696 
L 79.971009 246.231145 
L 86.946982 246.231145 
L 86.946982 245.671963 
L 89.599124 245.671963 
L 89.599124 243.435234 
L 91.896513 243.435234 
L 91.896513 242.316869 
L 95.735668 242.316869 
L 95.735668 240.639323 
L 97.375467 240.639323 
L 97.375467 240.08014 
L 98.872486 240.08014 
L 98.872486 237.843411 
L 100.24961 237.843411 
L 100.24961 231.692407 
L 103.822018 231.692407 
L 103.822018 229.455678 
L 104.865056 229.455678 
L 104.865056 228.337313 
L 106.778678 228.337313 
L 106.778678 227.218949 
L 107.661173 227.218949 
L 107.661173 226.100584 
L 108.500601 226.100584 
L 108.500601 224.423038 
L 112.175115 224.423038 
L 112.175115 223.863855 
L 116.276944 223.863855 
L 116.276944 222.745491 
L 119.151088 222.745491 
L 119.151088 222.186309 
L 124.749936 222.186309 
L 124.749936 220.508762 
L 125.065631 220.508762 
L 125.065631 216.035304 
L 125.680156 216.035304 
L 125.680156 213.239393 
L 125.979378 213.239393 
L 125.979378 212.121028 
L 126.273486 212.121028 
L 126.273486 209.325117 
L 126.56265 209.325117 
L 126.56265 207.64757 
L 126.847034 207.64757 
L 126.847034 207.088388 
L 128.202449 207.088388 
L 128.202449 204.292477 
L 128.716065 204.292477 
L 128.716065 203.733295 
L 130.854591 203.733295 
L 130.854591 202.61493 
L 131.295765 202.61493 
L 131.295765 202.055748 
L 132.955351 202.055748 
L 132.955351 200.937384 
L 133.15198 200.937384 
L 133.15198 198.141472 
L 136.026124 198.141472 
L 136.026124 197.58229 
L 136.190765 197.58229 
L 136.190765 197.023108 
L 136.834012 197.023108 
L 136.834012 195.345561 
L 136.991135 195.345561 
L 136.991135 194.227197 
L 137.146836 194.227197 
L 137.146836 193.108832 
L 137.301141 193.108832 
L 137.301141 192.54965 
L 137.454074 192.54965 
L 137.454074 191.990468 
L 137.60566 191.990468 
L 137.60566 188.635374 
L 137.755922 188.635374 
L 137.755922 188.076192 
L 138.19899 188.076192 
L 138.19899 187.51701 
L 138.630934 187.51701 
L 138.630934 186.957828 
L 138.772539 186.957828 
L 138.772539 185.839463 
L 138.912987 185.839463 
L 138.912987 185.280281 
L 140.127953 185.280281 
L 140.127953 184.721099 
L 140.257802 184.721099 
L 140.257802 180.806823 
L 140.386678 180.806823 
L 140.386678 180.247641 
L 140.767613 180.247641 
L 140.767613 179.688458 
L 141.505077 179.688458 
L 141.505077 179.129276 
L 141.624972 179.129276 
L 141.624972 178.570094 
L 141.862285 178.570094 
L 141.862285 175.774183 
L 142.891454 175.774183 
L 142.891454 175.215 
L 143.22127 175.215 
L 143.22127 174.096636 
L 143.437686 174.096636 
L 143.544882 171.300725 
L 143.75729 171.300725 
L 143.862519 166.827267 
L 143.967108 166.827267 
L 143.967108 164.590538 
L 144.781692 164.590538 
L 144.781692 162.912991 
L 145.748512 162.912991 
L 145.842271 159.557898 
L 146.841251 159.557898 
L 146.841251 158.998715 
L 147.103926 158.998715 
L 147.103926 158.439533 
L 148.198003 158.439533 
L 148.27935 157.321169 
L 148.440899 157.321169 
L 148.440899 155.08444 
L 149.904387 155.08444 
L 149.904387 152.847711 
L 150.269684 152.847711 
L 150.269684 152.288529 
L 151.724483 152.288529 
L 151.790783 149.492617 
L 151.856829 149.492617 
L 151.856829 148.933435 
L 153.127137 148.933435 
L 153.127137 147.255888 
L 153.309845 147.255888 
L 153.309845 146.137524 
L 154.252814 146.137524 
L 154.252814 145.578342 
L 155.416872 145.578342 
L 155.523735 143.341613 
L 156.048314 143.341613 
L 156.048314 142.223248 
L 156.406229 142.223248 
L 156.406229 141.664066 
L 156.607458 141.664066 
L 156.607458 141.104884 
L 156.954042 141.104884 
L 156.954042 140.545702 
L 159.416073 140.545702 
L 159.416073 139.427337 
L 160.041774 139.427337 
L 160.123507 137.74979 
L 160.204854 137.74979 
L 160.204854 136.631426 
L 160.406555 136.631426 
L 160.406555 136.072244 
L 161.456669 136.072244 
L 161.456669 134.953879 
L 161.866772 134.953879 
L 161.866772 133.835515 
L 162.013509 133.835515 
L 162.013509 131.598786 
L 162.195189 131.598786 
L 162.195189 131.039603 
L 165.713293 131.039603 
L 165.713293 130.480421 
L 168.457777 130.480421 
L 168.457777 129.921239 
L 203.949382 129.921239 
L 203.974899 128.802874 
L 204.098756 128.802874 
L 204.16508 126.566145 
L 204.246844 126.566145 
L 204.325098 121.533505 
L 204.440264 121.533505 
L 204.53308 119.296776 
L 204.570066 119.296776 
L 204.570066 118.737594 
L 204.698896 118.737594 
L 204.756861 115.941683 
L 204.844959 115.941683 
L 204.887328 113.145772 
L 205.022812 113.145772 
L 205.022812 112.586589 
L 205.237391 112.586589 
L 205.237391 111.468225 
L 205.533958 111.468225 
L 205.533958 110.909043 
L 215.622472 110.909043 
L 215.719374 105.876403 
L 215.796505 105.876403 
L 215.897216 99.725398 
L 216.021096 99.725398 
L 216.106339 94.133576 
L 216.197428 94.133576 
L 216.275568 91.896847 
L 216.432337 91.896847 
L 216.432337 91.337664 
L 222.597905 91.337664 
L 222.696958 86.305024 
L 222.709835 86.305024 
L 222.809314 82.390748 
L 222.821042 82.390748 
L 222.892306 79.035655 
L 222.938946 79.035655 
L 222.945296 77.917291 
L 223.051841 77.917291 
L 223.051841 77.358108 
L 227.48876 77.358108 
L 227.546357 75.121379 
L 227.615059 75.121379 
L 227.699548 70.088739 
L 227.82033 70.088739 
L 227.82033 69.529557 
L 231.274364 69.529557 
L 231.381624 65.615281 
L 231.400407 65.615281 
L 231.485 60.023459 
L 234.38301 60.023459 
L 234.489905 57.78673 
L 234.498017 57.78673 
L 234.537441 56.109183 
L 234.613334 56.109183 
L 234.613334 55.550001 
L 237.015001 55.550001 
L 237.116062 50.517361 
L 237.16614 50.517361 
L 237.21284 48.839814 
L 239.334855 48.839814 
L 239.376438 47.162267 
L 239.470647 47.162267 
L 239.470647 46.603085 
L 241.312655 46.603085 
L 241.390705 44.925538 
L 243.145332 44.925538 
L 243.221374 42.129627 
L 244.774691 42.129627 
L 244.811842 40.45208 
L 246.312868 40.45208 
L 246.353904 39.333716 
L 247.661966 39.333716 
L 247.691374 37.656169 
L 248.918538 37.656169 
L 248.918538 37.096987 
L 250.108326 37.096987 
L 250.109198 35.978622 
L 251.23626 35.978622 
L 251.23626 34.301076 
L 252.241075 34.301076 
L 252.272276 30.945982 
L 253.249435 30.945982 
L 253.249435 30.3868 
L 254.155447 30.3868 
L 254.174065 28.709253 
L 255.033017 28.709253 
L 255.044977 26.472524 
L 255.868769 26.472524 
L 255.868769 25.913342 
L 257.42753 25.913342 
L 257.42753 24.794978 
L 258.156417 24.794978 
L 258.156417 24.235795 
L 259.529766 24.235795 
L 259.529766 23.676613 
L 260.798148 23.676613 
L 260.800492 21.999066 
L 261.400046 21.999066 
L 261.41453 19.762337 
L 265.11192 19.762337 
L 265.11192 19.203155 
L 265.582142 19.203155 
L 265.582142 18.643973 
L 267.352822 18.643973 
L 267.352822 17.525609 
L 268.161447 17.525609 
L 268.161829 16.407244 
L 271.091712 16.407244 
L 271.091712 15.848062 
L 272.70148 15.848062 
L 272.70148 15.28888 
L 333.429677 15.28888 
L 333.429677 15.28888 
" style="fill:none;stroke:#ff0000;stroke-linecap:square;stroke-width:1.5;"/>
   </g>
   <g id="line2d_45">
    <defs>
     <path d="M 0 -6 
L -5.196152 -3 
L -5.196152 3 
L -0 6 
L 5.196152 3 
L 5.196152 -3 
z
" id="mde52566058" style="stroke:#ff0000;stroke-linejoin:miter;stroke-width:1.5;"/>
    </defs>
    <g>
     <use style="fill-opacity:0;stroke:#ff0000;stroke-linejoin:miter;stroke-width:1.5;" x="119.151088" xlink:href="#mde52566058" y="222.186309"/>
     <use style="fill-opacity:0;stroke:#ff0000;stroke-linejoin:miter;stroke-width:1.5;" x="168.457777" xlink:href="#mde52566058" y="129.921239"/>
     <use style="fill-opacity:0;stroke:#ff0000;stroke-linejoin:miter;stroke-width:1.5;" x="272.70148" xlink:href="#mde52566058" y="15.848062"/>
     <use style="fill-opacity:0;stroke:#ff0000;stroke-linejoin:miter;stroke-width:1.5;" x="272.70148" xlink:href="#mde52566058" y="15.28888"/>
     <use style="fill-opacity:0;stroke:#ff0000;stroke-linejoin:miter;stroke-width:1.5;" x="333.429677" xlink:href="#mde52566058" y="15.28888"/>
    </g>
   </g>
   <g id="line2d_46">
    <path style="fill:none;stroke:#ff0000;stroke-linecap:square;stroke-width:1.5;"/>
    <g/>
   </g>
   <g id="line2d_47">
    <path clip-path="url(#pc1b0cac48b)" d="M 203.414473 129.921239 
" style="fill:none;stroke:#ff0000;stroke-linecap:square;stroke-width:1.5;"/>
    <defs>
     <path d="M -12 12 
L 12 -12 
M -12 -12 
L 12 12 
" id="me23dbc0bd4" style="stroke:#ff0000;stroke-width:3;"/>
    </defs>
    <g clip-path="url(#pc1b0cac48b)">
     <use style="fill:#ff0000;stroke:#ff0000;stroke-width:3;" x="203.414473" xlink:href="#me23dbc0bd4" y="129.921239"/>
    </g>
   </g>
   <g id="line2d_48">
    <path d="M 333.429677 205.410841 
L 363.933742 289.176341 
" style="fill:none;stroke:#000080;stroke-linecap:square;stroke-width:1.5;"/>
    <g>
     <use style="fill-opacity:0;stroke:#000080;stroke-width:1.5;" x="333.429677" xlink:href="#m7690694bab" y="205.410841"/>
     <use style="fill-opacity:0;stroke:#000080;stroke-width:1.5;" x="363.933742" xlink:href="#m7690694bab" y="289.176341"/>
    </g>
   </g>
   <g id="line2d_49">
    <path d="M 333.429677 183.043552 
L 363.933742 220.732435 
" style="fill:none;stroke:#ff00ff;stroke-linecap:square;stroke-width:1.5;"/>
    <g>
     <use style="fill-opacity:0;stroke:#ff00ff;stroke-linejoin:miter;stroke-width:1.5;" x="333.429677" xlink:href="#m3c0be673ba" y="183.043552"/>
     <use style="fill-opacity:0;stroke:#ff00ff;stroke-linejoin:miter;stroke-width:1.5;" x="363.933742" xlink:href="#m3c0be673ba" y="220.732435"/>
    </g>
   </g>
   <g id="line2d_50">
    <path d="M 333.429677 155.08444 
L 363.933742 152.288529 
" style="fill:none;stroke:#6495ed;stroke-linecap:square;stroke-width:1.5;"/>
    <g>
     <use style="fill-opacity:0;stroke:#6495ed;stroke-linejoin:miter;stroke-width:1.5;" x="333.429677" xlink:href="#m90c6eb11da" y="155.08444"/>
     <use style="fill-opacity:0;stroke:#6495ed;stroke-linejoin:miter;stroke-width:1.5;" x="363.933742" xlink:href="#m90c6eb11da" y="152.288529"/>
    </g>
   </g>
   <g id="line2d_51">
    <path d="M 333.429677 15.28888 
L 363.933742 83.844622 
" style="fill:none;stroke:#ff0000;stroke-linecap:square;stroke-width:1.5;"/>
    <g>
     <use style="fill-opacity:0;stroke:#ff0000;stroke-linejoin:miter;stroke-width:1.5;" x="333.429677" xlink:href="#mde52566058" y="15.28888"/>
     <use style="fill-opacity:0;stroke:#ff0000;stroke-linejoin:miter;stroke-width:1.5;" x="363.933742" xlink:href="#mde52566058" y="83.844622"/>
    </g>
   </g>
   <g id="line2d_52">
    <path d="M 333.429677 9.697057 
L 363.933742 15.400716 
" style="fill:none;stroke:#ffa500;stroke-linecap:square;stroke-width:1.5;"/>
    <g>
     <use style="fill-opacity:0;stroke:#ffa500;stroke-linejoin:bevel;stroke-width:1.5;" x="333.429677" xlink:href="#mb821eee11b" y="9.697057"/>
     <use style="fill-opacity:0;stroke:#ffa500;stroke-linejoin:bevel;stroke-width:1.5;" x="363.933742" xlink:href="#mb821eee11b" y="15.400716"/>
    </g>
   </g>
   <g id="line2d_53">
    <path d="M 333.429677 294.88 
L 333.429677 9.697057 
" style="fill:none;stroke:#000000;stroke-linecap:square;stroke-width:1.5;"/>
   </g>
   <g id="patch_3">
    <path d="M 56.12 294.88 
L 56.12 6.845228 
" style="fill:none;stroke:#000000;stroke-linecap:square;stroke-linejoin:miter;stroke-width:0.8;"/>
   </g>
   <g id="patch_4">
    <path d="M 399.984 294.88 
L 399.984 6.845228 
" style="fill:none;stroke:#000000;stroke-linecap:square;stroke-linejoin:miter;stroke-width:0.8;"/>
   </g>
   <g id="patch_5">
    <path d="M 56.12 294.88 
L 399.984 294.88 
" style="fill:none;stroke:#000000;stroke-linecap:square;stroke-linejoin:miter;stroke-width:0.8;"/>
   </g>
   <g id="patch_6">
    <path d="M 56.12 6.845228 
L 399.984 6.845228 
" style="fill:none;stroke:#000000;stroke-linecap:square;stroke-linejoin:miter;stroke-width:0.8;"/>
   </g>
   <g id="text_14">
    <!-- f10 -->
    <g transform="translate(369.479935 293.867279)scale(0.17 -0.17)">
     <use xlink:href="#DejaVuSans-66"/>
     <use x="35.205078" xlink:href="#DejaVuSans-31"/>
     <use x="98.828125" xlink:href="#DejaVuSans-30"/>
    </g>
   </g>
   <g id="text_15">
    <!-- f11 -->
    <g transform="translate(369.479935 225.423372)scale(0.17 -0.17)">
     <use xlink:href="#DejaVuSans-66"/>
     <use x="35.205078" xlink:href="#DejaVuSans-31"/>
     <use x="98.828125" xlink:href="#DejaVuSans-31"/>
    </g>
   </g>
   <g id="text_16">
    <!-- f13 -->
    <defs>
     <path d="M 40.578125 39.3125 
Q 47.65625 37.796875 51.625 33 
Q 55.609375 28.21875 55.609375 21.1875 
Q 55.609375 10.40625 48.1875 4.484375 
Q 40.765625 -1.421875 27.09375 -1.421875 
Q 22.515625 -1.421875 17.65625 -0.515625 
Q 12.796875 0.390625 7.625 2.203125 
L 7.625 11.71875 
Q 11.71875 9.328125 16.59375 8.109375 
Q 21.484375 6.890625 26.8125 6.890625 
Q 36.078125 6.890625 40.9375 10.546875 
Q 45.796875 14.203125 45.796875 21.1875 
Q 45.796875 27.640625 41.28125 31.265625 
Q 36.765625 34.90625 28.71875 34.90625 
L 20.21875 34.90625 
L 20.21875 43.015625 
L 29.109375 43.015625 
Q 36.375 43.015625 40.234375 45.921875 
Q 44.09375 48.828125 44.09375 54.296875 
Q 44.09375 59.90625 40.109375 62.90625 
Q 36.140625 65.921875 28.71875 65.921875 
Q 24.65625 65.921875 20.015625 65.03125 
Q 15.375 64.15625 9.8125 62.3125 
L 9.8125 71.09375 
Q 15.4375 72.65625 20.34375 73.4375 
Q 25.25 74.21875 29.59375 74.21875 
Q 40.828125 74.21875 47.359375 69.109375 
Q 53.90625 64.015625 53.90625 55.328125 
Q 53.90625 49.265625 50.4375 45.09375 
Q 46.96875 40.921875 40.578125 39.3125 
z
" id="DejaVuSans-33"/>
    </defs>
    <g transform="translate(369.479935 156.979466)scale(0.17 -0.17)">
     <use xlink:href="#DejaVuSans-66"/>
     <use x="35.205078" xlink:href="#DejaVuSans-31"/>
     <use x="98.828125" xlink:href="#DejaVuSans-33"/>
    </g>
   </g>
   <g id="text_17">
    <!-- f14 -->
    <g transform="translate(369.479935 88.53556)scale(0.17 -0.17)">
     <use xlink:href="#DejaVuSans-66"/>
     <use x="35.205078" xlink:href="#DejaVuSans-31"/>
     <use x="98.828125" xlink:href="#DejaVuSans-34"/>
    </g>
   </g>
   <g id="text_18">
    <!-- f12 -->
    <g transform="translate(369.479935 20.091654)scale(0.17 -0.17)">
     <use xlink:href="#DejaVuSans-66"/>
     <use x="35.205078" xlink:href="#DejaVuSans-31"/>
     <use x="98.828125" xlink:href="#DejaVuSans-32"/>
    </g>
   </g>
   <g id="text_19">
    <!-- bbob -->
    <defs>
     <path d="M 48.6875 27.296875 
Q 48.6875 37.203125 44.609375 42.84375 
Q 40.53125 48.484375 33.40625 48.484375 
Q 26.265625 48.484375 22.1875 42.84375 
Q 18.109375 37.203125 18.109375 27.296875 
Q 18.109375 17.390625 22.1875 11.75 
Q 26.265625 6.109375 33.40625 6.109375 
Q 40.53125 6.109375 44.609375 11.75 
Q 48.6875 17.390625 48.6875 27.296875 
z
M 18.109375 46.390625 
Q 20.953125 51.265625 25.265625 53.625 
Q 29.59375 56 35.59375 56 
Q 45.5625 56 51.78125 48.09375 
Q 58.015625 40.1875 58.015625 27.296875 
Q 58.015625 14.40625 51.78125 6.484375 
Q 45.5625 -1.421875 35.59375 -1.421875 
Q 29.59375 -1.421875 25.265625 0.953125 
Q 20.953125 3.328125 18.109375 8.203125 
L 18.109375 0 
L 9.078125 0 
L 9.078125 75.984375 
L 18.109375 75.984375 
z
" id="DejaVuSans-62"/>
    </defs>
    <g transform="translate(59.55864 17.475982)scale(0.102 -0.102)">
     <use xlink:href="#DejaVuSans-62"/>
     <use x="63.476562" xlink:href="#DejaVuSans-62"/>
     <use x="126.953125" xlink:href="#DejaVuSans-6f"/>
     <use x="188.134766" xlink:href="#DejaVuSans-62"/>
    </g>
    <!-- Ill-conditioned functions, 2-D -->
    <defs>
     <path d="M 9.8125 72.90625 
L 19.671875 72.90625 
L 19.671875 0 
L 9.8125 0 
z
" id="DejaVuSans-49"/>
     <path d="M 19.671875 64.796875 
L 19.671875 8.109375 
L 31.59375 8.109375 
Q 46.6875 8.109375 53.6875 14.9375 
Q 60.6875 21.78125 60.6875 36.53125 
Q 60.6875 51.171875 53.6875 57.984375 
Q 46.6875 64.796875 31.59375 64.796875 
z
M 9.8125 72.90625 
L 30.078125 72.90625 
Q 51.265625 72.90625 61.171875 64.09375 
Q 71.09375 55.28125 71.09375 36.53125 
Q 71.09375 17.671875 61.125 8.828125 
Q 51.171875 0 30.078125 0 
L 9.8125 0 
z
" id="DejaVuSans-44"/>
    </defs>
    <g transform="translate(59.55864 28.89775)scale(0.102 -0.102)">
     <use xlink:href="#DejaVuSans-49"/>
     <use x="29.492188" xlink:href="#DejaVuSans-6c"/>
     <use x="57.275391" xlink:href="#DejaVuSans-6c"/>
     <use x="85.058594" xlink:href="#DejaVuSans-2d"/>
     <use x="121.142578" xlink:href="#DejaVuSans-63"/>
     <use x="176.123047" xlink:href="#DejaVuSans-6f"/>
     <use x="237.304688" xlink:href="#DejaVuSans-6e"/>
     <use x="300.683594" xlink:href="#DejaVuSans-64"/>
     <use x="364.160156" xlink:href="#DejaVuSans-69"/>
     <use x="391.943359" xlink:href="#DejaVuSans-74"/>
     <use x="431.152344" xlink:href="#DejaVuSans-69"/>
     <use x="458.935547" xlink:href="#DejaVuSans-6f"/>
     <use x="520.117188" xlink:href="#DejaVuSans-6e"/>
     <use x="583.496094" xlink:href="#DejaVuSans-65"/>
     <use x="645.019531" xlink:href="#DejaVuSans-64"/>
     <use x="708.496094" xlink:href="#DejaVuSans-20"/>
     <use x="740.283203" xlink:href="#DejaVuSans-66"/>
     <use x="775.488281" xlink:href="#DejaVuSans-75"/>
     <use x="838.867188" xlink:href="#DejaVuSans-6e"/>
     <use x="902.246094" xlink:href="#DejaVuSans-63"/>
     <use x="957.226562" xlink:href="#DejaVuSans-74"/>
     <use x="996.435547" xlink:href="#DejaVuSans-69"/>
     <use x="1024.21875" xlink:href="#DejaVuSans-6f"/>
     <use x="1085.400391" xlink:href="#DejaVuSans-6e"/>
     <use x="1148.779297" xlink:href="#DejaVuSans-73"/>
     <use x="1200.878906" xlink:href="#DejaVuSans-2c"/>
     <use x="1232.666016" xlink:href="#DejaVuSans-20"/>
     <use x="1264.453125" xlink:href="#DejaVuSans-32"/>
     <use x="1328.076172" xlink:href="#DejaVuSans-2d"/>
     <use x="1364.160156" xlink:href="#DejaVuSans-44"/>
    </g>
    <!-- 51 targets: 100..1e-08 -->
    <defs>
     <path d="M 10.796875 72.90625 
L 49.515625 72.90625 
L 49.515625 64.59375 
L 19.828125 64.59375 
L 19.828125 46.734375 
Q 21.96875 47.46875 24.109375 47.828125 
Q 26.265625 48.1875 28.421875 48.1875 
Q 40.625 48.1875 47.75 41.5 
Q 54.890625 34.8125 54.890625 23.390625 
Q 54.890625 11.625 47.5625 5.09375 
Q 40.234375 -1.421875 26.90625 -1.421875 
Q 22.3125 -1.421875 17.546875 -0.640625 
Q 12.796875 0.140625 7.71875 1.703125 
L 7.71875 11.625 
Q 12.109375 9.234375 16.796875 8.0625 
Q 21.484375 6.890625 26.703125 6.890625 
Q 35.15625 6.890625 40.078125 11.328125 
Q 45.015625 15.765625 45.015625 23.390625 
Q 45.015625 31 40.078125 35.4375 
Q 35.15625 39.890625 26.703125 39.890625 
Q 22.75 39.890625 18.8125 39.015625 
Q 14.890625 38.140625 10.796875 36.28125 
z
" id="DejaVuSans-35"/>
     <path d="M 11.71875 12.40625 
L 22.015625 12.40625 
L 22.015625 0 
L 11.71875 0 
z
M 11.71875 51.703125 
L 22.015625 51.703125 
L 22.015625 39.3125 
L 11.71875 39.3125 
z
" id="DejaVuSans-3a"/>
    </defs>
    <g transform="translate(59.55864 40.319519)scale(0.102 -0.102)">
     <use xlink:href="#DejaVuSans-35"/>
     <use x="63.623047" xlink:href="#DejaVuSans-31"/>
     <use x="127.246094" xlink:href="#DejaVuSans-20"/>
     <use x="159.033203" xlink:href="#DejaVuSans-74"/>
     <use x="198.242188" xlink:href="#DejaVuSans-61"/>
     <use x="259.521484" xlink:href="#DejaVuSans-72"/>
     <use x="300.619141" xlink:href="#DejaVuSans-67"/>
     <use x="364.095703" xlink:href="#DejaVuSans-65"/>
     <use x="425.619141" xlink:href="#DejaVuSans-74"/>
     <use x="464.828125" xlink:href="#DejaVuSans-73"/>
     <use x="516.927734" xlink:href="#DejaVuSans-3a"/>
     <use x="550.619141" xlink:href="#DejaVuSans-20"/>
     <use x="582.40625" xlink:href="#DejaVuSans-31"/>
     <use x="646.029297" xlink:href="#DejaVuSans-30"/>
     <use x="709.652344" xlink:href="#DejaVuSans-30"/>
     <use x="773.275391" xlink:href="#DejaVuSans-2e"/>
     <use x="805.0625" xlink:href="#DejaVuSans-2e"/>
     <use x="836.849609" xlink:href="#DejaVuSans-31"/>
     <use x="900.472656" xlink:href="#DejaVuSans-65"/>
     <use x="961.996094" xlink:href="#DejaVuSans-2d"/>
     <use x="998.080078" xlink:href="#DejaVuSans-30"/>
     <use x="1061.703125" xlink:href="#DejaVuSans-38"/>
    </g>
    <!-- 15 instances -->
    <g transform="translate(59.55864 51.741288)scale(0.102 -0.102)">
     <use xlink:href="#DejaVuSans-31"/>
     <use x="63.623047" xlink:href="#DejaVuSans-35"/>
     <use x="127.246094" xlink:href="#DejaVuSans-20"/>
     <use x="159.033203" xlink:href="#DejaVuSans-69"/>
     <use x="186.816406" xlink:href="#DejaVuSans-6e"/>
     <use x="250.195312" xlink:href="#DejaVuSans-73"/>
     <use x="302.294922" xlink:href="#DejaVuSans-74"/>
     <use x="341.503906" xlink:href="#DejaVuSans-61"/>
     <use x="402.783203" xlink:href="#DejaVuSans-6e"/>
     <use x="466.162109" xlink:href="#DejaVuSans-63"/>
     <use x="521.142578" xlink:href="#DejaVuSans-65"/>
     <use x="582.666016" xlink:href="#DejaVuSans-73"/>
    </g>
   </g>
   <g id="text_20">
    <!-- v2.2.1.10 -->
    <g style="fill:#808080;" transform="translate(204.419188 289.919965)scale(0.1 -0.1)">
     <use xlink:href="#DejaVuSans-76"/>
     <use x="59.179688" xlink:href="#DejaVuSans-32"/>
     <use x="122.802734" xlink:href="#DejaVuSans-2e"/>
     <use x="154.589844" xlink:href="#DejaVuSans-32"/>
     <use x="218.212891" xlink:href="#DejaVuSans-2e"/>
     <use x="250" xlink:href="#DejaVuSans-31"/>
     <use x="313.623047" xlink:href="#DejaVuSans-2e"/>
     <use x="345.410156" xlink:href="#DejaVuSans-31"/>
     <use x="409.033203" xlink:href="#DejaVuSans-30"/>
    </g>
   </g>
  </g>
 </g>
 <defs>
  <clipPath id="pc1b0cac48b">
   <rect height="288.034772" width="343.864" x="56.12" y="6.845228"/>
  </clipPath>
 </defs>
</svg>
