<?xml version="1.0" encoding="utf-8" standalone="no"?>
<!DOCTYPE svg PUBLIC "-//W3C//DTD SVG 1.1//EN"
  "http://www.w3.org/Graphics/SVG/1.1/DTD/svg11.dtd">
<!-- Created with matplotlib (http://matplotlib.org/) -->
<svg height="345.6pt" version="1.1" viewBox="0 0 460.8 345.6" width="460.8pt" xmlns="http://www.w3.org/2000/svg" xmlns:xlink="http://www.w3.org/1999/xlink">
 <defs>
  <style type="text/css">
*{stroke-linecap:butt;stroke-linejoin:round;}
  </style>
 </defs>
 <g id="figure_1">
  <g id="patch_1">
   <path d="M 0 345.6 
L 460.8 345.6 
L 460.8 0 
L 0 0 
z
" style="fill:#ffffff;"/>
  </g>
  <g id="axes_1">
   <g id="patch_2">
    <path d="M 5.52 291.28 
L 450.672 291.28 
L 450.672 5.52 
L 5.52 5.52 
z
" style="fill:#ffffff;"/>
   </g>
   <g id="matplotlib.axis_1">
    <g id="xtick_1">
     <g id="line2d_1">
      <path clip-path="url(#p26b027cc64)" d="M 5.408485 291.28 
L 5.408485 5.52 
" style="fill:none;stroke:#b0b0b0;stroke-linecap:square;stroke-width:0.8;"/>
     </g>
     <g id="line2d_2">
      <defs>
       <path d="M 0 0 
L 0 3.5 
" id="ma69a2ae710" style="stroke:#000000;stroke-width:0.8;"/>
      </defs>
      <g>
       <use style="stroke:#000000;stroke-width:0.8;" x="5.408485" xlink:href="#ma69a2ae710" y="291.28"/>
      </g>
     </g>
    </g>
    <g id="xtick_2">
     <g id="line2d_3">
      <path clip-path="url(#p26b027cc64)" d="M 108.630667 291.28 
L 108.630667 5.52 
" style="fill:none;stroke:#b0b0b0;stroke-linecap:square;stroke-width:0.8;"/>
     </g>
     <g id="line2d_4">
      <g>
       <use style="stroke:#000000;stroke-width:0.8;" x="108.630667" xlink:href="#ma69a2ae710" y="291.28"/>
      </g>
     </g>
     <g id="text_1">
      <!-- -4 -->
      <defs>
       <path d="M 4.890625 31.390625 
L 31.203125 31.390625 
L 31.203125 23.390625 
L 4.890625 23.390625 
z
" id="DejaVuSans-2d"/>
       <path d="M 37.796875 64.3125 
L 12.890625 25.390625 
L 37.796875 25.390625 
z
M 35.203125 72.90625 
L 47.609375 72.90625 
L 47.609375 25.390625 
L 58.015625 25.390625 
L 58.015625 17.1875 
L 47.609375 17.1875 
L 47.609375 0 
L 37.796875 0 
L 37.796875 17.1875 
L 4.890625 17.1875 
L 4.890625 26.703125 
z
" id="DejaVuSans-34"/>
      </defs>
      <g transform="translate(98.660354 313.476875)scale(0.2 -0.2)">
       <use xlink:href="#DejaVuSans-2d"/>
       <use x="36.083984" xlink:href="#DejaVuSans-34"/>
      </g>
     </g>
    </g>
    <g id="xtick_3">
     <g id="line2d_5">
      <path clip-path="url(#p26b027cc64)" d="M 211.852849 291.28 
L 211.852849 5.52 
" style="fill:none;stroke:#b0b0b0;stroke-linecap:square;stroke-width:0.8;"/>
     </g>
     <g id="line2d_6">
      <g>
       <use style="stroke:#000000;stroke-width:0.8;" x="211.852849" xlink:href="#ma69a2ae710" y="291.28"/>
      </g>
     </g>
     <g id="text_2">
      <!-- 0 -->
      <defs>
       <path d="M 31.78125 66.40625 
Q 24.171875 66.40625 20.328125 58.90625 
Q 16.5 51.421875 16.5 36.375 
Q 16.5 21.390625 20.328125 13.890625 
Q 24.171875 6.390625 31.78125 6.390625 
Q 39.453125 6.390625 43.28125 13.890625 
Q 47.125 21.390625 47.125 36.375 
Q 47.125 51.421875 43.28125 58.90625 
Q 39.453125 66.40625 31.78125 66.40625 
z
M 31.78125 74.21875 
Q 44.046875 74.21875 50.515625 64.515625 
Q 56.984375 54.828125 56.984375 36.375 
Q 56.984375 17.96875 50.515625 8.265625 
Q 44.046875 -1.421875 31.78125 -1.421875 
Q 19.53125 -1.421875 13.0625 8.265625 
Q 6.59375 17.96875 6.59375 36.375 
Q 6.59375 54.828125 13.0625 64.515625 
Q 19.53125 74.21875 31.78125 74.21875 
z
" id="DejaVuSans-30"/>
      </defs>
      <g transform="translate(205.490349 313.476875)scale(0.2 -0.2)">
       <use xlink:href="#DejaVuSans-30"/>
      </g>
     </g>
    </g>
    <g id="xtick_4">
     <g id="line2d_7">
      <path clip-path="url(#p26b027cc64)" d="M 315.075031 291.28 
L 315.075031 5.52 
" style="fill:none;stroke:#b0b0b0;stroke-linecap:square;stroke-width:0.8;"/>
     </g>
     <g id="line2d_8">
      <g>
       <use style="stroke:#000000;stroke-width:0.8;" x="315.075031" xlink:href="#ma69a2ae710" y="291.28"/>
      </g>
     </g>
     <g id="text_3">
      <!-- 4 -->
      <g transform="translate(308.712531 313.476875)scale(0.2 -0.2)">
       <use xlink:href="#DejaVuSans-34"/>
      </g>
     </g>
    </g>
    <g id="xtick_5">
     <g id="line2d_9">
      <path clip-path="url(#p26b027cc64)" d="M 418.297213 291.28 
L 418.297213 5.52 
" style="fill:none;stroke:#b0b0b0;stroke-linecap:square;stroke-width:0.8;"/>
     </g>
     <g id="line2d_10">
      <g>
       <use style="stroke:#000000;stroke-width:0.8;" x="418.297213" xlink:href="#ma69a2ae710" y="291.28"/>
      </g>
     </g>
     <g id="text_4">
      <!-- 8 -->
      <defs>
       <path d="M 31.78125 34.625 
Q 24.75 34.625 20.71875 30.859375 
Q 16.703125 27.09375 16.703125 20.515625 
Q 16.703125 13.921875 20.71875 10.15625 
Q 24.75 6.390625 31.78125 6.390625 
Q 38.8125 6.390625 42.859375 10.171875 
Q 46.921875 13.96875 46.921875 20.515625 
Q 46.921875 27.09375 42.890625 30.859375 
Q 38.875 34.625 31.78125 34.625 
z
M 21.921875 38.8125 
Q 15.578125 40.375 12.03125 44.71875 
Q 8.5 49.078125 8.5 55.328125 
Q 8.5 64.0625 14.71875 69.140625 
Q 20.953125 74.21875 31.78125 74.21875 
Q 42.671875 74.21875 48.875 69.140625 
Q 55.078125 64.0625 55.078125 55.328125 
Q 55.078125 49.078125 51.53125 44.71875 
Q 48 40.375 41.703125 38.8125 
Q 48.828125 37.15625 52.796875 32.3125 
Q 56.78125 27.484375 56.78125 20.515625 
Q 56.78125 9.90625 50.3125 4.234375 
Q 43.84375 -1.421875 31.78125 -1.421875 
Q 19.734375 -1.421875 13.25 4.234375 
Q 6.78125 9.90625 6.78125 20.515625 
Q 6.78125 27.484375 10.78125 32.3125 
Q 14.796875 37.15625 21.921875 38.8125 
z
M 18.3125 54.390625 
Q 18.3125 48.734375 21.84375 45.5625 
Q 25.390625 42.390625 31.78125 42.390625 
Q 38.140625 42.390625 41.71875 45.5625 
Q 45.3125 48.734375 45.3125 54.390625 
Q 45.3125 60.0625 41.71875 63.234375 
Q 38.140625 66.40625 31.78125 66.40625 
Q 25.390625 66.40625 21.84375 63.234375 
Q 18.3125 60.0625 18.3125 54.390625 
z
" id="DejaVuSans-38"/>
      </defs>
      <g transform="translate(411.934713 313.476875)scale(0.2 -0.2)">
       <use xlink:href="#DejaVuSans-38"/>
      </g>
     </g>
    </g>
    <g id="text_5">
     <!-- log10 of Df -->
     <defs>
      <path d="M 9.421875 75.984375 
L 18.40625 75.984375 
L 18.40625 0 
L 9.421875 0 
z
" id="DejaVuSans-6c"/>
      <path d="M 30.609375 48.390625 
Q 23.390625 48.390625 19.1875 42.75 
Q 14.984375 37.109375 14.984375 27.296875 
Q 14.984375 17.484375 19.15625 11.84375 
Q 23.34375 6.203125 30.609375 6.203125 
Q 37.796875 6.203125 41.984375 11.859375 
Q 46.1875 17.53125 46.1875 27.296875 
Q 46.1875 37.015625 41.984375 42.703125 
Q 37.796875 48.390625 30.609375 48.390625 
z
M 30.609375 56 
Q 42.328125 56 49.015625 48.375 
Q 55.71875 40.765625 55.71875 27.296875 
Q 55.71875 13.875 49.015625 6.21875 
Q 42.328125 -1.421875 30.609375 -1.421875 
Q 18.84375 -1.421875 12.171875 6.21875 
Q 5.515625 13.875 5.515625 27.296875 
Q 5.515625 40.765625 12.171875 48.375 
Q 18.84375 56 30.609375 56 
z
" id="DejaVuSans-6f"/>
      <path d="M 45.40625 27.984375 
Q 45.40625 37.75 41.375 43.109375 
Q 37.359375 48.484375 30.078125 48.484375 
Q 22.859375 48.484375 18.828125 43.109375 
Q 14.796875 37.75 14.796875 27.984375 
Q 14.796875 18.265625 18.828125 12.890625 
Q 22.859375 7.515625 30.078125 7.515625 
Q 37.359375 7.515625 41.375 12.890625 
Q 45.40625 18.265625 45.40625 27.984375 
z
M 54.390625 6.78125 
Q 54.390625 -7.171875 48.1875 -13.984375 
Q 42 -20.796875 29.203125 -20.796875 
Q 24.46875 -20.796875 20.265625 -20.09375 
Q 16.0625 -19.390625 12.109375 -17.921875 
L 12.109375 -9.1875 
Q 16.0625 -11.328125 19.921875 -12.34375 
Q 23.78125 -13.375 27.78125 -13.375 
Q 36.625 -13.375 41.015625 -8.765625 
Q 45.40625 -4.15625 45.40625 5.171875 
L 45.40625 9.625 
Q 42.625 4.78125 38.28125 2.390625 
Q 33.9375 0 27.875 0 
Q 17.828125 0 11.671875 7.65625 
Q 5.515625 15.328125 5.515625 27.984375 
Q 5.515625 40.671875 11.671875 48.328125 
Q 17.828125 56 27.875 56 
Q 33.9375 56 38.28125 53.609375 
Q 42.625 51.21875 45.40625 46.390625 
L 45.40625 54.6875 
L 54.390625 54.6875 
z
" id="DejaVuSans-67"/>
      <path d="M 12.40625 8.296875 
L 28.515625 8.296875 
L 28.515625 63.921875 
L 10.984375 60.40625 
L 10.984375 69.390625 
L 28.421875 72.90625 
L 38.28125 72.90625 
L 38.28125 8.296875 
L 54.390625 8.296875 
L 54.390625 0 
L 12.40625 0 
z
" id="DejaVuSans-31"/>
      <path id="DejaVuSans-20"/>
      <path d="M 37.109375 75.984375 
L 37.109375 68.5 
L 28.515625 68.5 
Q 23.6875 68.5 21.796875 66.546875 
Q 19.921875 64.59375 19.921875 59.515625 
L 19.921875 54.6875 
L 34.71875 54.6875 
L 34.71875 47.703125 
L 19.921875 47.703125 
L 19.921875 0 
L 10.890625 0 
L 10.890625 47.703125 
L 2.296875 47.703125 
L 2.296875 54.6875 
L 10.890625 54.6875 
L 10.890625 58.5 
Q 10.890625 67.625 15.140625 71.796875 
Q 19.390625 75.984375 28.609375 75.984375 
z
" id="DejaVuSans-66"/>
      <path d="M 19.671875 64.796875 
L 19.671875 8.109375 
L 31.59375 8.109375 
Q 46.6875 8.109375 53.6875 14.9375 
Q 60.6875 21.78125 60.6875 36.53125 
Q 60.6875 51.171875 53.6875 57.984375 
Q 46.6875 64.796875 31.59375 64.796875 
z
M 9.8125 72.90625 
L 30.078125 72.90625 
Q 51.265625 72.90625 61.171875 64.09375 
Q 71.09375 55.28125 71.09375 36.53125 
Q 71.09375 17.671875 61.125 8.828125 
Q 51.171875 0 30.078125 0 
L 9.8125 0 
z
" id="DejaVuSans-44"/>
     </defs>
     <g transform="translate(172.910063 336.833125)scale(0.2 -0.2)">
      <use xlink:href="#DejaVuSans-6c"/>
      <use x="27.783203" xlink:href="#DejaVuSans-6f"/>
      <use x="88.964844" xlink:href="#DejaVuSans-67"/>
      <use x="152.441406" xlink:href="#DejaVuSans-31"/>
      <use x="216.064453" xlink:href="#DejaVuSans-30"/>
      <use x="279.6875" xlink:href="#DejaVuSans-20"/>
      <use x="311.474609" xlink:href="#DejaVuSans-6f"/>
      <use x="372.65625" xlink:href="#DejaVuSans-66"/>
      <use x="407.861328" xlink:href="#DejaVuSans-20"/>
      <use x="439.648438" xlink:href="#DejaVuSans-44"/>
      <use x="516.650391" xlink:href="#DejaVuSans-66"/>
     </g>
    </g>
   </g>
   <g id="matplotlib.axis_2">
    <g id="ytick_1">
     <g id="line2d_11">
      <path clip-path="url(#p26b027cc64)" d="M 5.52 291.28 
L 450.672 291.28 
" style="fill:none;stroke:#b0b0b0;stroke-linecap:square;stroke-width:0.8;"/>
     </g>
     <g id="line2d_12">
      <defs>
       <path d="M 0 0 
L -3.5 0 
" id="m3205a101fd" style="stroke:#000000;stroke-width:0.8;"/>
      </defs>
      <g>
       <use style="stroke:#000000;stroke-width:0.8;" x="5.52" xlink:href="#m3205a101fd" y="291.28"/>
      </g>
     </g>
    </g>
    <g id="ytick_2">
     <g id="line2d_13">
      <path clip-path="url(#p26b027cc64)" d="M 5.52 234.693861 
L 450.672 234.693861 
" style="fill:none;stroke:#b0b0b0;stroke-linecap:square;stroke-width:0.8;"/>
     </g>
     <g id="line2d_14">
      <g>
       <use style="stroke:#000000;stroke-width:0.8;" x="5.52" xlink:href="#m3205a101fd" y="234.693861"/>
      </g>
     </g>
    </g>
    <g id="ytick_3">
     <g id="line2d_15">
      <path clip-path="url(#p26b027cc64)" d="M 5.52 178.107723 
L 450.672 178.107723 
" style="fill:none;stroke:#b0b0b0;stroke-linecap:square;stroke-width:0.8;"/>
     </g>
     <g id="line2d_16">
      <g>
       <use style="stroke:#000000;stroke-width:0.8;" x="5.52" xlink:href="#m3205a101fd" y="178.107723"/>
      </g>
     </g>
    </g>
    <g id="ytick_4">
     <g id="line2d_17">
      <path clip-path="url(#p26b027cc64)" d="M 5.52 121.521584 
L 450.672 121.521584 
" style="fill:none;stroke:#b0b0b0;stroke-linecap:square;stroke-width:0.8;"/>
     </g>
     <g id="line2d_18">
      <g>
       <use style="stroke:#000000;stroke-width:0.8;" x="5.52" xlink:href="#m3205a101fd" y="121.521584"/>
      </g>
     </g>
    </g>
    <g id="ytick_5">
     <g id="line2d_19">
      <path clip-path="url(#p26b027cc64)" d="M 5.52 64.935446 
L 450.672 64.935446 
" style="fill:none;stroke:#b0b0b0;stroke-linecap:square;stroke-width:0.8;"/>
     </g>
     <g id="line2d_20">
      <g>
       <use style="stroke:#000000;stroke-width:0.8;" x="5.52" xlink:href="#m3205a101fd" y="64.935446"/>
      </g>
     </g>
    </g>
    <g id="ytick_6">
     <g id="line2d_21">
      <path clip-path="url(#p26b027cc64)" d="M 5.52 8.349307 
L 450.672 8.349307 
" style="fill:none;stroke:#b0b0b0;stroke-linecap:square;stroke-width:0.8;"/>
     </g>
     <g id="line2d_22">
      <g>
       <use style="stroke:#000000;stroke-width:0.8;" x="5.52" xlink:href="#m3205a101fd" y="8.349307"/>
      </g>
     </g>
    </g>
   </g>
   <g id="line2d_23">
    <path clip-path="url(#p26b027cc64)" d="M 196.333104 291.28 
L 196.333104 279.491221 
L 226.671951 279.491221 
L 226.671951 278.705303 
L 227.405195 278.705303 
L 227.405195 277.919384 
L 228.748531 277.919384 
L 228.748531 277.133465 
L 229.217889 277.133465 
L 229.217889 276.347547 
L 230.435828 276.347547 
L 230.435828 275.561628 
L 231.132358 275.561628 
L 231.132358 274.77571 
L 231.253725 274.77571 
L 231.253725 273.989791 
L 232.428147 273.989791 
L 232.430403 272.417954 
L 232.567133 272.417954 
L 232.567133 271.632035 
L 233.226877 271.632035 
L 233.226877 270.846117 
L 233.45416 270.846117 
L 233.45416 270.060198 
L 233.62334 270.060198 
L 233.62334 269.274279 
L 234.189532 269.274279 
L 234.189532 268.488361 
L 235.108856 268.488361 
L 235.108856 267.702442 
L 238.867693 267.702442 
L 238.867693 266.916524 
L 239.358795 266.916524 
L 239.358795 266.130605 
L 240.042173 266.130605 
L 240.042173 265.344686 
L 241.004209 265.344686 
L 241.004209 264.558768 
L 241.285072 264.558768 
L 241.285072 263.772849 
L 241.613939 263.772849 
L 241.655956 262.201012 
L 241.733381 262.201012 
L 241.751418 260.629175 
L 242.500753 260.629175 
L 242.500753 259.843256 
L 242.900545 259.843256 
L 242.900545 259.057338 
L 243.550704 259.057338 
L 243.550704 258.271419 
L 244.512624 258.271419 
L 244.512624 257.485501 
L 245.963116 257.485501 
L 245.963116 256.699582 
L 246.917714 256.699582 
L 246.917714 255.913663 
L 247.566811 255.913663 
L 247.566811 255.127745 
L 249.608015 255.127745 
L 249.608015 254.341826 
L 249.806626 254.341826 
L 249.806626 253.555908 
L 249.98546 253.555908 
L 250.031725 251.98407 
L 250.58889 251.98407 
L 250.58889 251.198152 
L 251.156093 251.198152 
L 251.204149 249.626315 
L 251.771451 249.626315 
L 251.771451 248.840396 
L 252.26137 248.840396 
L 252.26137 248.054477 
L 252.477289 248.054477 
L 252.477289 247.268559 
L 252.989542 247.268559 
L 252.989542 246.48264 
L 253.178209 246.48264 
L 253.284965 244.910803 
L 253.616675 244.910803 
L 253.693127 243.338966 
L 253.898518 243.338966 
L 253.898518 242.553047 
L 254.160425 242.553047 
L 254.160425 241.767129 
L 254.498872 241.767129 
L 254.498872 240.98121 
L 254.625346 240.98121 
L 254.625346 240.195292 
L 254.788313 240.195292 
L 254.788313 239.409373 
L 255.006019 239.409373 
L 255.006019 238.623454 
L 255.202502 238.623454 
L 255.29601 235.47978 
L 255.429742 235.47978 
L 255.535755 232.336106 
L 255.733766 232.336106 
L 255.746639 230.764268 
L 256.033489 230.764268 
L 256.129856 229.192431 
L 256.653869 229.192431 
L 256.653869 228.406513 
L 256.890105 228.406513 
L 256.890105 227.620594 
L 257.624632 227.620594 
L 257.624632 226.834675 
L 258.317738 226.834675 
L 258.419816 223.691001 
L 258.814468 223.691001 
L 258.814468 222.905083 
L 259.007115 222.905083 
L 259.007115 222.119164 
L 259.23348 222.119164 
L 259.304304 220.547327 
L 259.480927 220.547327 
L 259.480927 219.761408 
L 259.778284 219.761408 
L 259.778284 218.97549 
L 259.935249 218.97549 
L 260.011206 215.831815 
L 260.176182 215.831815 
L 260.176182 215.045897 
L 260.314719 215.045897 
L 260.346655 213.474059 
L 260.454317 213.474059 
L 260.556551 211.116304 
L 260.577906 211.116304 
L 260.680894 209.544466 
L 260.777389 209.544466 
L 260.793339 207.972629 
L 260.941395 207.972629 
L 261.021522 204.043036 
L 261.05584 204.043036 
L 261.127051 201.685281 
L 261.179728 201.685281 
L 261.209494 199.327525 
L 261.358954 199.327525 
L 261.371821 197.755688 
L 261.59206 197.755688 
L 261.59206 196.969769 
L 262.041116 196.969769 
L 262.083991 195.397932 
L 262.254817 195.397932 
L 262.254817 194.612013 
L 262.559221 194.612013 
L 262.559221 193.826095 
L 263.098532 193.826095 
L 263.174747 192.254257 
L 263.492052 192.254257 
L 263.492052 191.468339 
L 264.331213 191.468339 
L 264.384536 189.896502 
L 264.496756 189.896502 
L 264.496756 189.110583 
L 265.550808 189.110583 
L 265.550808 188.324664 
L 265.829456 188.324664 
L 265.86319 175.749967 
L 266.23992 175.749967 
L 266.23992 174.964048 
L 266.374373 174.964048 
L 266.374373 174.17813 
L 266.630386 174.17813 
L 266.630386 173.392211 
L 271.735383 173.392211 
L 271.735383 172.606293 
L 272.360979 172.606293 
L 272.360979 171.820374 
L 272.52683 171.820374 
L 272.52683 171.034455 
L 273.486858 171.034455 
L 273.486858 170.248537 
L 273.928273 170.248537 
L 273.928273 169.462618 
L 274.048635 169.462618 
L 274.065131 167.890781 
L 274.429073 167.890781 
L 274.517084 166.318944 
L 274.656506 166.318944 
L 274.656506 165.533025 
L 274.869409 165.533025 
L 274.869409 164.747107 
L 275.292168 164.747107 
L 275.292168 163.961188 
L 275.633611 163.961188 
L 275.68814 161.603432 
L 275.759321 161.603432 
L 275.813875 160.031595 
L 276.080024 160.031595 
L 276.080024 159.245677 
L 276.255758 159.245677 
L 276.274691 157.673839 
L 276.419819 157.673839 
L 276.419819 156.887921 
L 276.745998 156.887921 
L 276.745998 156.102002 
L 277.059787 156.102002 
L 277.114617 154.530165 
L 277.253155 154.530165 
L 277.321958 152.958328 
L 277.454803 152.958328 
L 277.454803 152.172409 
L 277.59149 152.172409 
L 277.59149 151.386491 
L 278.461094 151.386491 
L 278.461094 150.600572 
L 278.931039 150.600572 
L 278.931039 149.814653 
L 281.162825 149.814653 
L 281.162825 149.028735 
L 281.364067 149.028735 
L 281.364067 148.242816 
L 281.592153 148.242816 
L 281.592153 147.456898 
L 282.028236 147.456898 
L 282.111883 145.885061 
L 282.452721 145.885061 
L 282.511665 144.313223 
L 282.789073 144.313223 
L 282.789073 143.527305 
L 282.935256 143.527305 
L 282.996732 141.955468 
L 283.071702 141.955468 
L 283.071702 141.169549 
L 283.238184 141.169549 
L 283.238184 140.38363 
L 283.487201 140.38363 
L 283.487201 139.597712 
L 283.61276 139.597712 
L 283.61276 138.811793 
L 283.747869 138.811793 
L 283.812045 137.239956 
L 283.875874 137.239956 
L 283.947096 135.668119 
L 284.084815 135.668119 
L 284.159766 134.096282 
L 284.262571 134.096282 
L 284.36346 130.166689 
L 284.439108 130.166689 
L 284.439108 129.38077 
L 284.592979 129.38077 
L 284.617142 127.808933 
L 284.839856 127.808933 
L 284.867059 126.237096 
L 285.172809 126.237096 
L 285.173651 124.665259 
L 285.332031 124.665259 
L 285.337124 123.093421 
L 285.458032 123.093421 
L 285.541591 119.949747 
L 285.597411 119.949747 
L 285.619392 118.37791 
L 285.926584 118.37791 
L 285.937083 116.806073 
L 286.276903 116.806073 
L 286.276903 116.020154 
L 286.480723 116.020154 
L 286.481513 114.448317 
L 286.712488 114.448317 
L 286.712488 113.662398 
L 287.001803 113.662398 
L 287.103551 112.090561 
L 287.143599 112.090561 
L 287.143599 111.304642 
L 288.14675 111.304642 
L 288.185524 109.732805 
L 288.260294 109.732805 
L 288.359613 106.589131 
L 288.397527 106.589131 
L 288.397527 105.803212 
L 288.550272 105.803212 
L 288.550272 105.017294 
L 289.821406 105.017294 
L 289.821406 104.231375 
L 290.21276 104.231375 
L 290.21276 103.445457 
L 290.947958 103.445457 
L 291.035518 101.873619 
L 291.168329 101.873619 
L 291.168329 101.087701 
L 291.674304 101.087701 
L 291.674304 100.301782 
L 292.307812 100.301782 
L 292.307812 99.515864 
L 292.661601 99.515864 
L 292.661601 98.729945 
L 293.613938 98.729945 
L 293.613938 97.944026 
L 295.551418 97.944026 
L 295.551418 97.158108 
L 295.693643 97.158108 
L 295.693643 96.372189 
L 296.323604 96.372189 
L 296.340006 94.800352 
L 296.616865 94.800352 
L 296.616865 94.014433 
L 296.995496 94.014433 
L 296.995496 93.228515 
L 297.412714 93.228515 
L 297.412714 92.442596 
L 298.149492 92.442596 
L 298.150071 90.870759 
L 298.541463 90.870759 
L 298.541463 90.08484 
L 299.047321 90.08484 
L 299.080211 87.727085 
L 300.232302 87.727085 
L 300.232302 86.941166 
L 300.489186 86.941166 
L 300.489186 86.155248 
L 301.766368 86.155248 
L 301.766368 85.369329 
L 302.743563 85.369329 
L 302.743563 84.58341 
L 304.585443 84.58341 
L 304.651413 83.011573 
L 314.480235 83.011573 
L 314.480235 82.225655 
L 316.281588 82.225655 
L 316.281588 81.439736 
L 317.088199 81.439736 
L 317.088199 80.653817 
L 321.859732 80.653817 
L 321.859732 68.865039 
L 323.298181 68.865039 
L 323.298181 68.07912 
L 325.549142 68.07912 
L 325.549142 67.293201 
L 325.808142 67.293201 
L 325.808142 66.507283 
L 326.436443 66.507283 
L 326.436443 65.721364 
L 329.420586 65.721364 
L 329.420586 64.935446 
L 330.382662 64.935446 
L 330.382662 64.149527 
L 332.41493 64.149527 
L 332.41493 63.363608 
L 333.079936 63.363608 
L 333.138031 61.791771 
L 334.139599 61.791771 
L 334.189914 60.219934 
L 334.414709 60.219934 
L 334.414709 59.434015 
L 336.737599 59.434015 
L 336.737599 58.648097 
L 337.753972 58.648097 
L 337.753972 57.862178 
L 338.144377 57.862178 
L 338.144377 57.07626 
L 338.840968 57.07626 
L 338.840968 56.290341 
L 341.842357 56.290341 
L 341.842357 55.504422 
L 343.538442 55.504422 
L 343.538442 54.718504 
L 343.911551 54.718504 
L 343.911551 53.932585 
L 345.746405 53.932585 
L 345.746405 53.146667 
L 349.501573 53.146667 
L 349.501573 52.360748 
L 349.792876 52.360748 
L 349.792876 51.574829 
L 352.406112 51.574829 
L 352.406112 50.788911 
L 352.570156 50.788911 
L 352.570156 50.002992 
L 352.759912 50.002992 
L 352.759912 49.217074 
L 353.51281 49.217074 
L 353.51281 48.431155 
L 356.104685 48.431155 
L 356.104685 47.645237 
L 358.11415 47.645237 
L 358.11415 46.859318 
L 360.208562 46.859318 
L 360.208562 46.073399 
L 360.591477 46.073399 
L 360.591477 45.287481 
L 362.950918 45.287481 
L 362.950918 44.501562 
L 365.652288 44.501562 
L 365.652288 43.715644 
L 366.341754 43.715644 
L 366.341754 42.929725 
L 368.053468 42.929725 
L 368.053468 42.143806 
L 371.058844 42.143806 
L 371.058844 41.357888 
L 374.2349 41.357888 
L 374.2349 40.571969 
L 374.364899 40.571969 
L 374.364899 39.786051 
L 375.684471 39.786051 
L 375.684471 39.000132 
L 375.848155 39.000132 
L 375.848155 38.214213 
L 376.069503 38.214213 
L 376.069503 37.428295 
L 377.30923 37.428295 
L 377.30923 36.642376 
L 377.568482 36.642376 
L 377.568482 35.856458 
L 377.860384 35.856458 
L 377.860384 35.070539 
L 378.320706 35.070539 
L 378.320706 34.28462 
L 378.535913 34.28462 
L 378.535913 33.498702 
L 378.647734 33.498702 
L 378.647734 32.712783 
L 378.998765 32.712783 
L 378.998765 31.926865 
L 379.270966 31.926865 
L 379.270966 31.140946 
L 379.858055 31.140946 
L 379.888298 29.569109 
L 381.075187 29.569109 
L 381.149838 27.997272 
L 381.91476 27.997272 
L 381.91476 27.211353 
L 382.447974 27.211353 
L 382.447974 26.425435 
L 382.996933 26.425435 
L 382.996933 25.639516 
L 383.778628 25.639516 
L 383.778628 24.853597 
L 384.894097 24.853597 
L 384.894097 24.067679 
L 385.994055 24.067679 
L 385.994055 23.28176 
L 386.283135 23.28176 
L 386.283135 22.495842 
L 386.705682 22.495842 
L 386.705682 21.709923 
L 388.822304 21.709923 
L 388.822304 20.924004 
L 389.05473 20.924004 
L 389.05473 20.138086 
L 417.243398 20.138086 
L 417.243398 19.352167 
L 417.802611 19.352167 
L 417.802611 18.566249 
L 419.856329 18.566249 
L 419.856329 17.78033 
L 421.885425 17.78033 
L 421.885425 16.994411 
L 423.995898 16.994411 
L 423.995898 16.208493 
L 424.710519 16.208493 
L 424.739029 14.636656 
L 424.921891 14.636656 
L 424.921891 13.850737 
L 426.300497 13.850737 
L 426.300497 13.064818 
L 427.100042 13.064818 
L 427.100042 12.2789 
L 427.547782 12.2789 
L 427.547782 11.492981 
L 430.221061 11.492981 
L 430.221061 10.707063 
L 431.63513 10.707063 
L 431.63513 9.921144 
L 433.097633 9.921144 
L 433.097633 9.135226 
L 435.318561 9.135226 
L 435.318561 8.349307 
L 435.318561 8.349307 
L 450.672 8.349307 
L 450.672 8.349307 
" style="fill:none;stroke:#ff0000;stroke-linecap:square;stroke-width:3;"/>
   </g>
   <g id="line2d_24">
    <path clip-path="url(#p26b027cc64)" d="M 196.333104 291.28 
L 196.333104 279.491221 
L 226.671951 279.491221 
L 226.671951 278.705303 
L 231.234406 278.705303 
L 231.234406 277.919384 
L 231.65803 277.919384 
L 231.65803 277.133465 
L 233.45416 277.133465 
L 233.45416 276.347547 
L 234.139609 276.347547 
L 234.15776 274.77571 
L 234.825811 274.77571 
L 234.825811 273.989791 
L 235.403153 273.989791 
L 235.403153 273.203872 
L 236.105925 273.203872 
L 236.213925 271.632035 
L 236.572109 271.632035 
L 236.676751 270.060198 
L 237.155309 270.060198 
L 237.155309 269.274279 
L 238.801255 269.274279 
L 238.801255 268.488361 
L 239.230223 268.488361 
L 239.230223 267.702442 
L 240.042173 267.702442 
L 240.117237 266.130605 
L 241.750872 266.130605 
L 241.791124 263.772849 
L 242.223348 263.772849 
L 242.223348 262.986931 
L 242.532174 262.986931 
L 242.532174 262.201012 
L 242.74829 262.201012 
L 242.74829 261.415094 
L 242.900545 261.415094 
L 242.91009 259.843256 
L 243.298164 259.843256 
L 243.298164 259.057338 
L 243.550704 259.057338 
L 243.550704 258.271419 
L 245.330175 258.271419 
L 245.330175 257.485501 
L 247.566811 257.485501 
L 247.566811 256.699582 
L 248.136428 256.699582 
L 248.136428 255.913663 
L 249.98546 255.913663 
L 249.98546 255.127745 
L 251.204149 255.127745 
L 251.204149 254.341826 
L 251.771451 254.341826 
L 251.771451 253.555908 
L 251.924801 253.555908 
L 251.924801 252.769989 
L 252.26137 252.769989 
L 252.26137 251.98407 
L 252.989542 251.98407 
L 252.989542 251.198152 
L 253.116449 251.198152 
L 253.178209 249.626315 
L 253.284965 249.626315 
L 253.284965 248.840396 
L 253.616675 248.840396 
L 253.616675 248.054477 
L 253.898518 248.054477 
L 253.898518 247.268559 
L 254.267967 247.268559 
L 254.267967 246.48264 
L 254.498872 246.48264 
L 254.500727 244.910803 
L 255.202502 244.910803 
L 255.29601 242.553047 
L 255.490381 242.553047 
L 255.490381 241.767129 
L 255.853738 241.767129 
L 255.874614 240.195292 
L 256.033489 240.195292 
L 256.129856 237.051617 
L 256.339931 237.051617 
L 256.339931 236.265699 
L 256.628976 236.265699 
L 256.653869 234.693861 
L 256.855799 234.693861 
L 256.920842 232.336106 
L 257.030961 232.336106 
L 257.067776 230.764268 
L 257.624632 230.764268 
L 257.684182 229.192431 
L 258.341222 229.192431 
L 258.419253 227.620594 
L 258.940917 227.620594 
L 258.940917 226.834675 
L 259.099531 226.834675 
L 259.099531 226.048757 
L 259.23348 226.048757 
L 259.304304 224.47692 
L 259.480927 224.47692 
L 259.480927 223.691001 
L 259.778284 223.691001 
L 259.850799 222.119164 
L 259.935249 222.119164 
L 260.011206 219.761408 
L 260.314719 219.761408 
L 260.314719 218.97549 
L 260.454317 218.97549 
L 260.556551 216.617734 
L 260.600124 216.617734 
L 260.613964 215.045897 
L 260.777389 215.045897 
L 260.777389 214.259978 
L 260.891004 214.259978 
L 260.994343 209.544466 
L 261.012995 209.544466 
L 261.123825 205.614873 
L 261.127051 205.614873 
L 261.209494 201.685281 
L 261.344982 201.685281 
L 261.371821 199.327525 
L 261.59206 199.327525 
L 261.59206 198.541606 
L 262.041116 198.541606 
L 262.083991 196.969769 
L 262.254817 196.969769 
L 262.254817 196.18385 
L 262.559221 196.18385 
L 262.559221 195.397932 
L 263.098532 195.397932 
L 263.174747 193.826095 
L 263.492052 193.826095 
L 263.492052 193.040176 
L 264.331213 193.040176 
L 264.384536 191.468339 
L 264.496756 191.468339 
L 264.568163 189.896502 
L 265.550808 189.896502 
L 265.550808 189.110583 
L 265.829456 189.110583 
L 265.829456 177.321804 
L 266.23992 177.321804 
L 266.23992 176.535886 
L 266.374373 176.535886 
L 266.374373 175.749967 
L 266.630386 175.749967 
L 266.630386 174.964048 
L 267.755924 174.964048 
L 267.755924 174.17813 
L 269.999726 174.17813 
L 269.999726 173.392211 
L 272.360979 173.392211 
L 272.360979 172.606293 
L 273.790937 172.606293 
L 273.790937 171.820374 
L 274.065131 171.820374 
L 274.065131 171.034455 
L 274.429073 171.034455 
L 274.517084 169.462618 
L 274.657648 169.462618 
L 274.657648 168.6767 
L 274.869409 168.6767 
L 274.869409 167.890781 
L 275.323045 167.890781 
L 275.323045 167.104862 
L 275.633611 167.104862 
L 275.633611 166.318944 
L 276.023714 166.318944 
L 276.127295 163.961188 
L 276.255758 163.961188 
L 276.255758 163.17527 
L 276.419819 163.17527 
L 276.479886 161.603432 
L 276.592612 161.603432 
L 276.634067 160.031595 
L 276.745998 160.031595 
L 276.770589 158.459758 
L 277.059787 158.459758 
L 277.114617 156.887921 
L 277.253155 156.887921 
L 277.321958 155.316084 
L 277.454803 155.316084 
L 277.454803 154.530165 
L 277.571289 154.530165 
L 277.598899 152.172409 
L 277.746837 152.172409 
L 277.746837 151.386491 
L 278.461094 151.386491 
L 278.461094 150.600572 
L 278.931039 150.600572 
L 278.931039 149.814653 
L 281.162825 149.814653 
L 281.162825 149.028735 
L 281.364067 149.028735 
L 281.364067 148.242816 
L 282.028236 148.242816 
L 282.111883 146.670979 
L 282.452721 146.670979 
L 282.511665 145.099142 
L 282.996732 145.099142 
L 282.996732 144.313223 
L 283.238184 144.313223 
L 283.238184 143.527305 
L 283.61276 143.527305 
L 283.61276 142.741386 
L 283.747869 142.741386 
L 283.812045 141.169549 
L 283.875874 141.169549 
L 283.947096 139.597712 
L 284.084815 139.597712 
L 284.159766 138.025875 
L 284.262571 138.025875 
L 284.36346 134.096282 
L 284.439108 134.096282 
L 284.439108 133.310363 
L 284.839856 133.310363 
L 284.867059 131.738526 
L 285.172809 131.738526 
L 285.173651 130.166689 
L 285.332031 130.166689 
L 285.337124 128.594851 
L 285.480277 128.594851 
L 285.536782 125.451177 
L 285.597411 125.451177 
L 285.619392 123.87934 
L 285.87191 123.87934 
L 285.937083 121.521584 
L 286.276903 121.521584 
L 286.276903 120.735666 
L 286.480723 120.735666 
L 286.481513 119.163828 
L 286.712488 119.163828 
L 286.712488 118.37791 
L 286.842169 118.37791 
L 286.946131 116.806073 
L 286.962827 116.806073 
L 286.962827 116.020154 
L 287.103551 116.020154 
L 287.191102 114.448317 
L 288.14675 114.448317 
L 288.242293 112.090561 
L 288.260294 112.090561 
L 288.284508 109.732805 
L 288.458971 109.732805 
L 288.458971 108.946887 
L 288.692644 108.946887 
L 288.692644 108.160968 
L 288.893396 108.160968 
L 288.893396 107.37505 
L 289.722059 107.37505 
L 289.722059 106.589131 
L 290.213729 106.589131 
L 290.213729 105.803212 
L 290.685589 105.803212 
L 290.685589 105.017294 
L 291.5858 105.017294 
L 291.5858 104.231375 
L 292.717848 104.231375 
L 292.717848 103.445457 
L 293.613938 103.445457 
L 293.613938 102.659538 
L 294.707443 102.659538 
L 294.707443 101.873619 
L 295.551418 101.873619 
L 295.551418 101.087701 
L 295.693643 101.087701 
L 295.693643 100.301782 
L 296.616865 100.301782 
L 296.616865 99.515864 
L 296.983851 99.515864 
L 296.983851 98.729945 
L 297.141798 98.729945 
L 297.234249 97.158108 
L 297.412714 97.158108 
L 297.412714 96.372189 
L 298.109318 96.372189 
L 298.150071 94.014433 
L 298.541463 94.014433 
L 298.541463 93.228515 
L 299.080211 93.228515 
L 299.080211 92.442596 
L 299.310504 92.442596 
L 299.350101 90.870759 
L 300.232302 90.870759 
L 300.232302 90.08484 
L 316.281588 90.08484 
L 316.281588 89.298922 
L 318.912556 89.298922 
L 318.912556 88.513003 
L 321.859732 88.513003 
L 321.859732 76.724224 
L 322.827247 76.724224 
L 322.827247 75.938306 
L 323.685101 75.938306 
L 323.685101 75.152387 
L 325.549142 75.152387 
L 325.549142 74.366469 
L 325.808142 74.366469 
L 325.808142 73.58055 
L 326.436443 73.58055 
L 326.436443 72.794631 
L 327.583791 72.794631 
L 327.583791 72.008713 
L 329.420586 72.008713 
L 329.420586 71.222794 
L 329.892769 71.222794 
L 329.892769 70.436876 
L 330.382662 70.436876 
L 330.447282 68.865039 
L 332.41493 68.865039 
L 332.41493 68.07912 
L 333.079936 68.07912 
L 333.138031 66.507283 
L 334.139599 66.507283 
L 334.189914 64.935446 
L 334.414709 64.935446 
L 334.414709 64.149527 
L 336.737599 64.149527 
L 336.737599 63.363608 
L 337.753972 63.363608 
L 337.753972 62.57769 
L 338.144377 62.57769 
L 338.144377 61.791771 
L 338.840968 61.791771 
L 338.840968 61.005853 
L 343.284054 61.005853 
L 343.284054 60.219934 
L 343.835646 60.219934 
L 343.911551 58.648097 
L 346.652199 58.648097 
L 346.652199 57.862178 
L 349.271055 57.862178 
L 349.271055 57.07626 
L 349.792876 57.07626 
L 349.792876 56.290341 
L 352.759912 56.290341 
L 352.759912 55.504422 
L 353.51281 55.504422 
L 353.51281 54.718504 
L 354.216364 54.718504 
L 354.216364 53.932585 
L 355.270496 53.932585 
L 355.270496 53.146667 
L 355.775025 53.146667 
L 355.775025 52.360748 
L 356.104685 52.360748 
L 356.104685 51.574829 
L 358.289216 51.574829 
L 358.289216 50.788911 
L 358.638714 50.788911 
L 358.638714 50.002992 
L 359.853993 50.002992 
L 359.853993 49.217074 
L 361.323178 49.217074 
L 361.323178 48.431155 
L 361.756959 48.431155 
L 361.756959 47.645237 
L 362.950918 47.645237 
L 362.950918 46.859318 
L 363.820039 46.859318 
L 363.820039 46.073399 
L 366.695871 46.073399 
L 366.695871 45.287481 
L 367.439386 45.287481 
L 367.439386 44.501562 
L 368.053468 44.501562 
L 368.053468 43.715644 
L 371.058844 43.715644 
L 371.058844 42.929725 
L 373.726405 42.929725 
L 373.726405 42.143806 
L 374.364899 42.143806 
L 374.364899 41.357888 
L 375.684471 41.357888 
L 375.684471 40.571969 
L 376.069503 40.571969 
L 376.069503 39.786051 
L 377.606906 39.786051 
L 377.606906 39.000132 
L 379.858055 39.000132 
L 379.913307 36.642376 
L 380.792745 36.642376 
L 380.792745 35.856458 
L 381.253018 35.856458 
L 381.253018 35.070539 
L 381.543481 35.070539 
L 381.636313 32.712783 
L 382.363049 32.712783 
L 382.363049 31.926865 
L 382.996933 31.926865 
L 382.996933 31.140946 
L 383.397737 31.140946 
L 383.494211 29.569109 
L 384.633445 29.569109 
L 384.692605 27.997272 
L 386.37972 27.997272 
L 386.37972 27.211353 
L 386.973748 27.211353 
L 386.973748 26.425435 
L 387.92839 26.425435 
L 387.92839 25.639516 
L 388.676444 25.639516 
L 388.676444 24.853597 
L 388.822304 24.853597 
L 388.822304 24.067679 
L 389.145634 24.067679 
L 389.145634 23.28176 
L 390.333546 23.28176 
L 390.333546 22.495842 
L 391.259886 22.495842 
L 391.259886 21.709923 
L 391.764841 21.709923 
L 391.764841 20.924004 
L 402.910783 20.924004 
L 402.910783 20.138086 
L 417.243398 20.138086 
L 417.243398 19.352167 
L 417.802611 19.352167 
L 417.802611 18.566249 
L 419.856329 18.566249 
L 419.856329 17.78033 
L 421.885425 17.78033 
L 421.885425 16.994411 
L 423.995898 16.994411 
L 423.995898 16.208493 
L 424.739029 16.208493 
L 424.739029 15.422574 
L 424.921891 15.422574 
L 424.921891 14.636656 
L 426.300497 14.636656 
L 426.300497 13.850737 
L 427.547782 13.850737 
L 427.547782 13.064818 
L 428.97786 13.064818 
L 428.97786 12.2789 
L 430.474897 12.2789 
L 430.474897 11.492981 
L 433.097633 11.492981 
L 433.097633 10.707063 
L 437.659363 10.707063 
L 437.659363 9.921144 
L 438.170785 9.921144 
L 438.170785 9.135226 
L 438.560624 9.135226 
L 438.560624 8.349307 
L 438.560624 8.349307 
L 450.672 8.349307 
L 450.672 8.349307 
" style="fill:none;stroke:#00bfbf;stroke-linecap:square;stroke-width:1.5;"/>
   </g>
   <g id="line2d_25">
    <path clip-path="url(#p26b027cc64)" d="M 196.333104 291.28 
L 196.333104 279.491221 
L 226.671951 279.491221 
L 226.671951 278.705303 
L 228.748531 278.705303 
L 228.748531 277.919384 
L 231.234406 277.919384 
L 231.234803 276.347547 
L 232.428147 276.347547 
L 232.428147 275.561628 
L 233.226877 275.561628 
L 233.226877 274.77571 
L 233.45416 274.77571 
L 233.45416 273.989791 
L 233.62334 273.989791 
L 233.62334 273.203872 
L 234.139609 273.203872 
L 234.189532 270.846117 
L 234.879938 270.846117 
L 234.879938 270.060198 
L 235.100076 270.060198 
L 235.108856 268.488361 
L 235.403153 268.488361 
L 235.403153 267.702442 
L 240.042173 267.702442 
L 240.117237 266.130605 
L 241.613939 266.130605 
L 241.655956 264.558768 
L 241.750872 264.558768 
L 241.791124 262.201012 
L 242.532174 262.201012 
L 242.532174 261.415094 
L 242.74829 261.415094 
L 242.74829 260.629175 
L 242.900545 260.629175 
L 242.900545 259.843256 
L 243.298164 259.843256 
L 243.298164 259.057338 
L 243.550704 259.057338 
L 243.550704 258.271419 
L 244.512624 258.271419 
L 244.512624 257.485501 
L 245.963116 257.485501 
L 245.963116 256.699582 
L 246.917714 256.699582 
L 246.917714 255.913663 
L 247.566811 255.913663 
L 247.566811 255.127745 
L 249.806626 255.127745 
L 249.806626 254.341826 
L 249.98546 254.341826 
L 249.98546 253.555908 
L 251.204149 253.555908 
L 251.204149 252.769989 
L 251.771451 252.769989 
L 251.771451 251.98407 
L 251.924801 251.98407 
L 251.924801 251.198152 
L 252.26137 251.198152 
L 252.26137 250.412233 
L 252.989542 250.412233 
L 252.989542 249.626315 
L 253.178209 249.626315 
L 253.284965 248.054477 
L 253.616675 248.054477 
L 253.693127 246.48264 
L 253.898518 246.48264 
L 253.898518 245.696722 
L 254.160425 245.696722 
L 254.267967 244.124884 
L 254.498872 244.124884 
L 254.500727 242.553047 
L 255.202502 242.553047 
L 255.29601 240.195292 
L 255.490381 240.195292 
L 255.490381 239.409373 
L 255.733766 239.409373 
L 255.746639 237.837536 
L 255.874614 237.837536 
L 255.981374 235.47978 
L 256.033489 235.47978 
L 256.129856 233.907943 
L 256.559567 233.907943 
L 256.653869 231.550187 
L 256.855799 231.550187 
L 256.920842 229.192431 
L 257.030961 229.192431 
L 257.030961 228.406513 
L 257.624632 228.406513 
L 257.624632 227.620594 
L 258.317738 227.620594 
L 258.39555 225.262838 
L 259.007115 225.262838 
L 259.099531 223.691001 
L 259.23348 223.691001 
L 259.304304 222.119164 
L 259.480927 222.119164 
L 259.480927 221.333245 
L 259.778284 221.333245 
L 259.778284 220.547327 
L 259.935249 220.547327 
L 260.011206 217.403652 
L 260.176182 217.403652 
L 260.176182 216.617734 
L 260.314719 216.617734 
L 260.314719 215.831815 
L 260.454317 215.831815 
L 260.556551 213.474059 
L 260.680894 213.474059 
L 260.777389 211.902222 
L 260.793339 211.902222 
L 260.793339 211.116304 
L 260.941395 211.116304 
L 261.021522 205.614873 
L 261.05584 205.614873 
L 261.139705 202.471199 
L 261.179728 202.471199 
L 261.209494 200.113443 
L 261.358954 200.113443 
L 261.371821 198.541606 
L 261.59206 198.541606 
L 261.59206 197.755688 
L 262.041116 197.755688 
L 262.083991 196.18385 
L 262.254817 196.18385 
L 262.254817 195.397932 
L 262.559221 195.397932 
L 262.559221 194.612013 
L 263.098532 194.612013 
L 263.174747 193.040176 
L 263.492052 193.040176 
L 263.492052 192.254257 
L 264.331213 192.254257 
L 264.384536 190.68242 
L 264.496756 190.68242 
L 264.496756 189.896502 
L 265.550808 189.896502 
L 265.550808 189.110583 
L 265.829456 189.110583 
L 265.86319 176.535886 
L 266.23992 176.535886 
L 266.23992 175.749967 
L 266.374373 175.749967 
L 266.374373 174.964048 
L 266.630386 174.964048 
L 266.630386 174.17813 
L 269.999726 174.17813 
L 269.999726 173.392211 
L 271.735383 173.392211 
L 271.735383 172.606293 
L 272.360979 172.606293 
L 272.360979 171.820374 
L 273.790937 171.820374 
L 273.790937 171.034455 
L 273.928273 171.034455 
L 273.928273 170.248537 
L 274.048635 170.248537 
L 274.065131 168.6767 
L 274.429073 168.6767 
L 274.517084 167.104862 
L 274.656506 167.104862 
L 274.656506 166.318944 
L 274.869409 166.318944 
L 274.869409 165.533025 
L 275.292168 165.533025 
L 275.323045 163.961188 
L 275.633611 163.961188 
L 275.643057 162.389351 
L 275.759321 162.389351 
L 275.82743 160.817514 
L 276.080024 160.817514 
L 276.080024 160.031595 
L 276.255758 160.031595 
L 276.274691 158.459758 
L 276.419819 158.459758 
L 276.479886 156.887921 
L 276.745998 156.887921 
L 276.745998 156.102002 
L 277.059787 156.102002 
L 277.114617 154.530165 
L 277.253155 154.530165 
L 277.321958 152.958328 
L 277.454803 152.958328 
L 277.454803 152.172409 
L 277.59149 152.172409 
L 277.59149 151.386491 
L 278.461094 151.386491 
L 278.461094 150.600572 
L 278.931039 150.600572 
L 278.931039 149.814653 
L 281.162825 149.814653 
L 281.162825 149.028735 
L 281.364067 149.028735 
L 281.364067 148.242816 
L 282.028236 148.242816 
L 282.111883 146.670979 
L 282.452721 146.670979 
L 282.511665 145.099142 
L 282.789073 145.099142 
L 282.789073 144.313223 
L 282.996732 144.313223 
L 282.996732 143.527305 
L 283.238184 143.527305 
L 283.238184 142.741386 
L 283.61276 142.741386 
L 283.61276 141.955468 
L 283.747869 141.955468 
L 283.812045 140.38363 
L 283.875874 140.38363 
L 283.947096 138.811793 
L 284.084815 138.811793 
L 284.159766 137.239956 
L 284.262571 137.239956 
L 284.36346 133.310363 
L 284.439108 133.310363 
L 284.525343 131.738526 
L 284.592979 131.738526 
L 284.617142 130.166689 
L 284.839856 130.166689 
L 284.867059 128.594851 
L 285.172809 128.594851 
L 285.173651 127.023014 
L 285.332031 127.023014 
L 285.337124 125.451177 
L 285.458032 125.451177 
L 285.541591 121.521584 
L 285.597411 121.521584 
L 285.619392 119.949747 
L 285.87191 119.949747 
L 285.937083 117.591991 
L 286.276903 117.591991 
L 286.276903 116.806073 
L 286.480723 116.806073 
L 286.481513 115.234235 
L 286.712488 115.234235 
L 286.712488 114.448317 
L 286.962827 114.448317 
L 287.001803 112.87648 
L 287.103551 112.87648 
L 287.103551 112.090561 
L 288.14675 112.090561 
L 288.207971 110.518724 
L 288.260294 110.518724 
L 288.284508 108.160968 
L 288.550272 108.160968 
L 288.550272 107.37505 
L 288.692644 107.37505 
L 288.752661 105.803212 
L 290.213729 105.803212 
L 290.213729 105.017294 
L 290.947958 105.017294 
L 290.947958 104.231375 
L 291.5858 104.231375 
L 291.5858 103.445457 
L 292.717848 103.445457 
L 292.717848 102.659538 
L 293.552461 102.659538 
L 293.613938 101.087701 
L 294.479726 101.087701 
L 294.479726 100.301782 
L 295.551418 100.301782 
L 295.551418 99.515864 
L 295.693643 99.515864 
L 295.693643 98.729945 
L 296.340006 98.729945 
L 296.340006 97.944026 
L 296.616865 97.944026 
L 296.616865 97.158108 
L 297.141798 97.158108 
L 297.141798 96.372189 
L 297.412714 96.372189 
L 297.412714 95.586271 
L 298.109318 95.586271 
L 298.150071 93.228515 
L 298.541463 93.228515 
L 298.541463 92.442596 
L 299.047321 92.442596 
L 299.080211 90.870759 
L 299.310504 90.870759 
L 299.310504 90.08484 
L 300.232302 90.08484 
L 300.232302 89.298922 
L 304.651413 89.298922 
L 304.651413 88.513003 
L 310.158277 88.513003 
L 310.158277 87.727085 
L 314.480235 87.727085 
L 314.480235 86.941166 
L 316.281588 86.941166 
L 316.281588 86.155248 
L 318.912556 86.155248 
L 318.912556 85.369329 
L 320.303079 85.369329 
L 320.303079 84.58341 
L 321.859732 84.58341 
L 321.859732 72.794631 
L 322.827247 72.794631 
L 322.827247 72.008713 
L 323.685101 72.008713 
L 323.685101 71.222794 
L 325.549142 71.222794 
L 325.549142 70.436876 
L 325.808142 70.436876 
L 325.808142 69.650957 
L 326.436443 69.650957 
L 326.436443 68.865039 
L 329.420586 68.865039 
L 329.420586 68.07912 
L 329.892769 68.07912 
L 329.892769 67.293201 
L 330.382662 67.293201 
L 330.382662 66.507283 
L 332.41493 66.507283 
L 332.41493 65.721364 
L 333.079936 65.721364 
L 333.138031 64.149527 
L 334.139599 64.149527 
L 334.189914 62.57769 
L 334.414709 62.57769 
L 334.414709 61.791771 
L 336.737599 61.791771 
L 336.737599 61.005853 
L 337.753972 61.005853 
L 337.753972 60.219934 
L 337.896282 60.219934 
L 337.896282 59.434015 
L 338.144377 59.434015 
L 338.144377 58.648097 
L 338.840968 58.648097 
L 338.840968 57.862178 
L 343.835646 57.862178 
L 343.911551 56.290341 
L 343.991502 56.290341 
L 343.991502 55.504422 
L 346.305046 55.504422 
L 346.305046 54.718504 
L 346.652199 54.718504 
L 346.652199 53.932585 
L 349.792876 53.932585 
L 349.792876 53.146667 
L 352.759912 53.146667 
L 352.759912 52.360748 
L 352.88181 52.360748 
L 352.88181 51.574829 
L 353.51281 51.574829 
L 353.51281 50.788911 
L 354.216364 50.788911 
L 354.216364 50.002992 
L 355.775025 50.002992 
L 355.775025 49.217074 
L 356.104685 49.217074 
L 356.104685 48.431155 
L 359.853993 48.431155 
L 359.853993 47.645237 
L 360.429407 47.645237 
L 360.437293 46.073399 
L 362.252189 46.073399 
L 362.252189 45.287481 
L 362.950918 45.287481 
L 362.950918 44.501562 
L 365.652288 44.501562 
L 365.652288 43.715644 
L 366.341754 43.715644 
L 366.341754 42.929725 
L 368.053468 42.929725 
L 368.053468 42.143806 
L 371.058844 42.143806 
L 371.058844 41.357888 
L 374.364899 41.357888 
L 374.364899 40.571969 
L 375.684471 40.571969 
L 375.684471 39.786051 
L 376.069503 39.786051 
L 376.069503 39.000132 
L 377.30923 39.000132 
L 377.30923 38.214213 
L 377.606906 38.214213 
L 377.606906 37.428295 
L 378.320706 37.428295 
L 378.320706 36.642376 
L 378.535913 36.642376 
L 378.535913 35.856458 
L 378.647734 35.856458 
L 378.647734 35.070539 
L 378.998765 35.070539 
L 378.998765 34.28462 
L 379.858055 34.28462 
L 379.913307 31.926865 
L 380.792745 31.926865 
L 380.792745 31.140946 
L 381.620796 31.140946 
L 381.636313 29.569109 
L 382.363049 29.569109 
L 382.363049 28.78319 
L 382.996933 28.78319 
L 382.996933 27.997272 
L 383.287344 27.997272 
L 383.287344 27.211353 
L 384.692605 27.211353 
L 384.692605 26.425435 
L 386.37972 26.425435 
L 386.37972 25.639516 
L 386.705682 25.639516 
L 386.705682 24.853597 
L 386.859498 24.853597 
L 386.859498 24.067679 
L 388.691435 24.067679 
L 388.691435 23.28176 
L 388.822304 23.28176 
L 388.822304 22.495842 
L 389.145634 22.495842 
L 389.145634 21.709923 
L 389.848351 21.709923 
L 389.848351 20.924004 
L 393.702449 20.924004 
L 393.702449 20.138086 
L 417.243398 20.138086 
L 417.243398 19.352167 
L 417.802611 19.352167 
L 417.802611 18.566249 
L 419.856329 18.566249 
L 419.856329 17.78033 
L 421.885425 17.78033 
L 421.885425 16.994411 
L 423.995898 16.994411 
L 423.995898 16.208493 
L 424.739029 16.208493 
L 424.739029 15.422574 
L 424.921891 15.422574 
L 424.921891 14.636656 
L 426.300497 14.636656 
L 426.300497 13.850737 
L 427.547782 13.850737 
L 427.547782 13.064818 
L 428.27287 13.064818 
L 428.27287 12.2789 
L 430.221061 12.2789 
L 430.221061 11.492981 
L 432.665837 11.492981 
L 432.665837 10.707063 
L 433.097633 10.707063 
L 433.097633 9.921144 
L 435.318561 9.921144 
L 435.318561 9.135226 
L 438.170785 9.135226 
L 438.170785 8.349307 
L 438.170785 8.349307 
L 450.672 8.349307 
L 450.672 8.349307 
" style="fill:none;stroke:#bf00bf;stroke-linecap:square;stroke-width:1.5;"/>
   </g>
   <g id="patch_3">
    <path d="M 5.52 291.28 
L 5.52 5.52 
" style="fill:none;stroke:#000000;stroke-linecap:square;stroke-linejoin:miter;stroke-width:0.8;"/>
   </g>
   <g id="patch_4">
    <path d="M 450.672 291.28 
L 450.672 5.52 
" style="fill:none;stroke:#000000;stroke-linecap:square;stroke-linejoin:miter;stroke-width:0.8;"/>
   </g>
   <g id="patch_5">
    <path d="M 5.52 291.28 
L 450.672 291.28 
" style="fill:none;stroke:#000000;stroke-linecap:square;stroke-linejoin:miter;stroke-width:0.8;"/>
   </g>
   <g id="patch_6">
    <path d="M 5.52 5.52 
L 450.672 5.52 
" style="fill:none;stroke:#000000;stroke-linecap:square;stroke-linejoin:miter;stroke-width:0.8;"/>
   </g>
   <g id="text_6">
    <!-- {f1-f24}, 20-D -->
    <defs>
     <path d="M 51.125 -9.28125 
L 51.125 -16.3125 
L 48.09375 -16.3125 
Q 35.9375 -16.3125 31.8125 -12.6875 
Q 27.6875 -9.078125 27.6875 1.703125 
L 27.6875 13.375 
Q 27.6875 20.75 25.046875 23.578125 
Q 22.40625 26.421875 15.484375 26.421875 
L 12.5 26.421875 
L 12.5 33.40625 
L 15.484375 33.40625 
Q 22.46875 33.40625 25.078125 36.203125 
Q 27.6875 39.015625 27.6875 46.296875 
L 27.6875 58.015625 
Q 27.6875 68.796875 31.8125 72.390625 
Q 35.9375 75.984375 48.09375 75.984375 
L 51.125 75.984375 
L 51.125 69 
L 47.796875 69 
Q 40.921875 69 38.8125 66.84375 
Q 36.71875 64.703125 36.71875 57.8125 
L 36.71875 45.703125 
Q 36.71875 38.03125 34.5 34.5625 
Q 32.28125 31.109375 26.90625 29.890625 
Q 32.328125 28.5625 34.515625 25.09375 
Q 36.71875 21.625 36.71875 14.015625 
L 36.71875 1.90625 
Q 36.71875 -4.984375 38.8125 -7.125 
Q 40.921875 -9.28125 47.796875 -9.28125 
z
" id="DejaVuSans-7b"/>
     <path d="M 19.1875 8.296875 
L 53.609375 8.296875 
L 53.609375 0 
L 7.328125 0 
L 7.328125 8.296875 
Q 12.9375 14.109375 22.625 23.890625 
Q 32.328125 33.6875 34.8125 36.53125 
Q 39.546875 41.84375 41.421875 45.53125 
Q 43.3125 49.21875 43.3125 52.78125 
Q 43.3125 58.59375 39.234375 62.25 
Q 35.15625 65.921875 28.609375 65.921875 
Q 23.96875 65.921875 18.8125 64.3125 
Q 13.671875 62.703125 7.8125 59.421875 
L 7.8125 69.390625 
Q 13.765625 71.78125 18.9375 73 
Q 24.125 74.21875 28.421875 74.21875 
Q 39.75 74.21875 46.484375 68.546875 
Q 53.21875 62.890625 53.21875 53.421875 
Q 53.21875 48.921875 51.53125 44.890625 
Q 49.859375 40.875 45.40625 35.40625 
Q 44.1875 33.984375 37.640625 27.21875 
Q 31.109375 20.453125 19.1875 8.296875 
z
" id="DejaVuSans-32"/>
     <path d="M 12.5 -9.28125 
L 15.921875 -9.28125 
Q 22.75 -9.28125 24.828125 -7.171875 
Q 26.90625 -5.078125 26.90625 1.90625 
L 26.90625 14.015625 
Q 26.90625 21.625 29.09375 25.09375 
Q 31.296875 28.5625 36.71875 29.890625 
Q 31.296875 31.109375 29.09375 34.5625 
Q 26.90625 38.03125 26.90625 45.703125 
L 26.90625 57.8125 
Q 26.90625 64.75 24.828125 66.875 
Q 22.75 69 15.921875 69 
L 12.5 69 
L 12.5 75.984375 
L 15.578125 75.984375 
Q 27.734375 75.984375 31.8125 72.390625 
Q 35.890625 68.796875 35.890625 58.015625 
L 35.890625 46.296875 
Q 35.890625 39.015625 38.515625 36.203125 
Q 41.15625 33.40625 48.09375 33.40625 
L 51.125 33.40625 
L 51.125 26.421875 
L 48.09375 26.421875 
Q 41.15625 26.421875 38.515625 23.578125 
Q 35.890625 20.75 35.890625 13.375 
L 35.890625 1.703125 
Q 35.890625 -9.078125 31.8125 -12.6875 
Q 27.734375 -16.3125 15.578125 -16.3125 
L 12.5 -16.3125 
z
" id="DejaVuSans-7d"/>
     <path d="M 11.71875 12.40625 
L 22.015625 12.40625 
L 22.015625 4 
L 14.015625 -11.625 
L 7.71875 -11.625 
L 11.71875 4 
z
" id="DejaVuSans-2c"/>
    </defs>
    <g transform="translate(296.06896 285.5648)scale(0.2 -0.2)">
     <use xlink:href="#DejaVuSans-7b"/>
     <use x="63.623047" xlink:href="#DejaVuSans-66"/>
     <use x="98.828125" xlink:href="#DejaVuSans-31"/>
     <use x="162.451172" xlink:href="#DejaVuSans-2d"/>
     <use x="198.535156" xlink:href="#DejaVuSans-66"/>
     <use x="233.740234" xlink:href="#DejaVuSans-32"/>
     <use x="297.363281" xlink:href="#DejaVuSans-34"/>
     <use x="360.986328" xlink:href="#DejaVuSans-7d"/>
     <use x="424.609375" xlink:href="#DejaVuSans-2c"/>
     <use x="456.396484" xlink:href="#DejaVuSans-20"/>
     <use x="488.183594" xlink:href="#DejaVuSans-32"/>
     <use x="551.806641" xlink:href="#DejaVuSans-30"/>
     <use x="615.429688" xlink:href="#DejaVuSans-2d"/>
     <use x="651.513672" xlink:href="#DejaVuSans-44"/>
    </g>
   </g>
   <g id="text_7">
    <!-- v2.2.1.10 -->
    <defs>
     <path d="M 2.984375 54.6875 
L 12.5 54.6875 
L 29.59375 8.796875 
L 46.6875 54.6875 
L 56.203125 54.6875 
L 35.6875 0 
L 23.484375 0 
z
" id="DejaVuSans-76"/>
     <path d="M 10.6875 12.40625 
L 21 12.40625 
L 21 0 
L 10.6875 0 
z
" id="DejaVuSans-2e"/>
    </defs>
    <g style="fill:#808080;" transform="translate(204.463188 286.342713)scale(0.1 -0.1)">
     <use xlink:href="#DejaVuSans-76"/>
     <use x="59.179688" xlink:href="#DejaVuSans-32"/>
     <use x="122.802734" xlink:href="#DejaVuSans-2e"/>
     <use x="154.589844" xlink:href="#DejaVuSans-32"/>
     <use x="218.212891" xlink:href="#DejaVuSans-2e"/>
     <use x="250" xlink:href="#DejaVuSans-31"/>
     <use x="313.623047" xlink:href="#DejaVuSans-2e"/>
     <use x="345.410156" xlink:href="#DejaVuSans-31"/>
     <use x="409.033203" xlink:href="#DejaVuSans-30"/>
    </g>
   </g>
  </g>
 </g>
 <defs>
  <clipPath id="p26b027cc64">
   <rect height="285.76" width="445.152" x="5.52" y="5.52"/>
  </clipPath>
 </defs>
</svg>
