<?xml version="1.0" encoding="utf-8" standalone="no"?>
<!DOCTYPE svg PUBLIC "-//W3C//DTD SVG 1.1//EN"
  "http://www.w3.org/Graphics/SVG/1.1/DTD/svg11.dtd">
<!-- Created with matplotlib (http://matplotlib.org/) -->
<svg height="345.6pt" version="1.1" viewBox="0 0 460.8 345.6" width="460.8pt" xmlns="http://www.w3.org/2000/svg" xmlns:xlink="http://www.w3.org/1999/xlink">
 <defs>
  <style type="text/css">
*{stroke-linecap:butt;stroke-linejoin:round;}
  </style>
 </defs>
 <g id="figure_1">
  <g id="patch_1">
   <path d="M 0 345.6 
L 460.8 345.6 
L 460.8 0 
L 0 0 
z
" style="fill:#ffffff;"/>
  </g>
  <g id="axes_1">
   <g id="patch_2">
    <path d="M 5.52 291.28 
L 450.672 291.28 
L 450.672 5.52 
L 5.52 5.52 
z
" style="fill:#ffffff;"/>
   </g>
   <g id="matplotlib.axis_1">
    <g id="xtick_1">
     <g id="line2d_1">
      <path clip-path="url(#p9693f229a3)" d="M 5.406243 291.28 
L 5.406243 5.52 
" style="fill:none;stroke:#b0b0b0;stroke-linecap:square;stroke-width:0.8;"/>
     </g>
     <g id="line2d_2">
      <defs>
       <path d="M 0 0 
L 0 3.5 
" id="mdc2f9ef370" style="stroke:#000000;stroke-width:0.8;"/>
      </defs>
      <g>
       <use style="stroke:#000000;stroke-width:0.8;" x="5.406243" xlink:href="#mdc2f9ef370" y="291.28"/>
      </g>
     </g>
    </g>
    <g id="xtick_2">
     <g id="line2d_3">
      <path clip-path="url(#p9693f229a3)" d="M 110.70291 291.28 
L 110.70291 5.52 
" style="fill:none;stroke:#b0b0b0;stroke-linecap:square;stroke-width:0.8;"/>
     </g>
     <g id="line2d_4">
      <g>
       <use style="stroke:#000000;stroke-width:0.8;" x="110.70291" xlink:href="#mdc2f9ef370" y="291.28"/>
      </g>
     </g>
     <g id="text_1">
      <!-- -4 -->
      <defs>
       <path d="M 4.890625 31.390625 
L 31.203125 31.390625 
L 31.203125 23.390625 
L 4.890625 23.390625 
z
" id="DejaVuSans-2d"/>
       <path d="M 37.796875 64.3125 
L 12.890625 25.390625 
L 37.796875 25.390625 
z
M 35.203125 72.90625 
L 47.609375 72.90625 
L 47.609375 25.390625 
L 58.015625 25.390625 
L 58.015625 17.1875 
L 47.609375 17.1875 
L 47.609375 0 
L 37.796875 0 
L 37.796875 17.1875 
L 4.890625 17.1875 
L 4.890625 26.703125 
z
" id="DejaVuSans-34"/>
      </defs>
      <g transform="translate(100.732598 313.476875)scale(0.2 -0.2)">
       <use xlink:href="#DejaVuSans-2d"/>
       <use x="36.083984" xlink:href="#DejaVuSans-34"/>
      </g>
     </g>
    </g>
    <g id="xtick_3">
     <g id="line2d_5">
      <path clip-path="url(#p9693f229a3)" d="M 215.999577 291.28 
L 215.999577 5.52 
" style="fill:none;stroke:#b0b0b0;stroke-linecap:square;stroke-width:0.8;"/>
     </g>
     <g id="line2d_6">
      <g>
       <use style="stroke:#000000;stroke-width:0.8;" x="215.999577" xlink:href="#mdc2f9ef370" y="291.28"/>
      </g>
     </g>
     <g id="text_2">
      <!-- 0 -->
      <defs>
       <path d="M 31.78125 66.40625 
Q 24.171875 66.40625 20.328125 58.90625 
Q 16.5 51.421875 16.5 36.375 
Q 16.5 21.390625 20.328125 13.890625 
Q 24.171875 6.390625 31.78125 6.390625 
Q 39.453125 6.390625 43.28125 13.890625 
Q 47.125 21.390625 47.125 36.375 
Q 47.125 51.421875 43.28125 58.90625 
Q 39.453125 66.40625 31.78125 66.40625 
z
M 31.78125 74.21875 
Q 44.046875 74.21875 50.515625 64.515625 
Q 56.984375 54.828125 56.984375 36.375 
Q 56.984375 17.96875 50.515625 8.265625 
Q 44.046875 -1.421875 31.78125 -1.421875 
Q 19.53125 -1.421875 13.0625 8.265625 
Q 6.59375 17.96875 6.59375 36.375 
Q 6.59375 54.828125 13.0625 64.515625 
Q 19.53125 74.21875 31.78125 74.21875 
z
" id="DejaVuSans-30"/>
      </defs>
      <g transform="translate(209.637077 313.476875)scale(0.2 -0.2)">
       <use xlink:href="#DejaVuSans-30"/>
      </g>
     </g>
    </g>
    <g id="xtick_4">
     <g id="line2d_7">
      <path clip-path="url(#p9693f229a3)" d="M 321.296244 291.28 
L 321.296244 5.52 
" style="fill:none;stroke:#b0b0b0;stroke-linecap:square;stroke-width:0.8;"/>
     </g>
     <g id="line2d_8">
      <g>
       <use style="stroke:#000000;stroke-width:0.8;" x="321.296244" xlink:href="#mdc2f9ef370" y="291.28"/>
      </g>
     </g>
     <g id="text_3">
      <!-- 4 -->
      <g transform="translate(314.933744 313.476875)scale(0.2 -0.2)">
       <use xlink:href="#DejaVuSans-34"/>
      </g>
     </g>
    </g>
    <g id="xtick_5">
     <g id="line2d_9">
      <path clip-path="url(#p9693f229a3)" d="M 426.592911 291.28 
L 426.592911 5.52 
" style="fill:none;stroke:#b0b0b0;stroke-linecap:square;stroke-width:0.8;"/>
     </g>
     <g id="line2d_10">
      <g>
       <use style="stroke:#000000;stroke-width:0.8;" x="426.592911" xlink:href="#mdc2f9ef370" y="291.28"/>
      </g>
     </g>
     <g id="text_4">
      <!-- 8 -->
      <defs>
       <path d="M 31.78125 34.625 
Q 24.75 34.625 20.71875 30.859375 
Q 16.703125 27.09375 16.703125 20.515625 
Q 16.703125 13.921875 20.71875 10.15625 
Q 24.75 6.390625 31.78125 6.390625 
Q 38.8125 6.390625 42.859375 10.171875 
Q 46.921875 13.96875 46.921875 20.515625 
Q 46.921875 27.09375 42.890625 30.859375 
Q 38.875 34.625 31.78125 34.625 
z
M 21.921875 38.8125 
Q 15.578125 40.375 12.03125 44.71875 
Q 8.5 49.078125 8.5 55.328125 
Q 8.5 64.0625 14.71875 69.140625 
Q 20.953125 74.21875 31.78125 74.21875 
Q 42.671875 74.21875 48.875 69.140625 
Q 55.078125 64.0625 55.078125 55.328125 
Q 55.078125 49.078125 51.53125 44.71875 
Q 48 40.375 41.703125 38.8125 
Q 48.828125 37.15625 52.796875 32.3125 
Q 56.78125 27.484375 56.78125 20.515625 
Q 56.78125 9.90625 50.3125 4.234375 
Q 43.84375 -1.421875 31.78125 -1.421875 
Q 19.734375 -1.421875 13.25 4.234375 
Q 6.78125 9.90625 6.78125 20.515625 
Q 6.78125 27.484375 10.78125 32.3125 
Q 14.796875 37.15625 21.921875 38.8125 
z
M 18.3125 54.390625 
Q 18.3125 48.734375 21.84375 45.5625 
Q 25.390625 42.390625 31.78125 42.390625 
Q 38.140625 42.390625 41.71875 45.5625 
Q 45.3125 48.734375 45.3125 54.390625 
Q 45.3125 60.0625 41.71875 63.234375 
Q 38.140625 66.40625 31.78125 66.40625 
Q 25.390625 66.40625 21.84375 63.234375 
Q 18.3125 60.0625 18.3125 54.390625 
z
" id="DejaVuSans-38"/>
      </defs>
      <g transform="translate(420.230411 313.476875)scale(0.2 -0.2)">
       <use xlink:href="#DejaVuSans-38"/>
      </g>
     </g>
    </g>
    <g id="text_5">
     <!-- log10 of Df -->
     <defs>
      <path d="M 9.421875 75.984375 
L 18.40625 75.984375 
L 18.40625 0 
L 9.421875 0 
z
" id="DejaVuSans-6c"/>
      <path d="M 30.609375 48.390625 
Q 23.390625 48.390625 19.1875 42.75 
Q 14.984375 37.109375 14.984375 27.296875 
Q 14.984375 17.484375 19.15625 11.84375 
Q 23.34375 6.203125 30.609375 6.203125 
Q 37.796875 6.203125 41.984375 11.859375 
Q 46.1875 17.53125 46.1875 27.296875 
Q 46.1875 37.015625 41.984375 42.703125 
Q 37.796875 48.390625 30.609375 48.390625 
z
M 30.609375 56 
Q 42.328125 56 49.015625 48.375 
Q 55.71875 40.765625 55.71875 27.296875 
Q 55.71875 13.875 49.015625 6.21875 
Q 42.328125 -1.421875 30.609375 -1.421875 
Q 18.84375 -1.421875 12.171875 6.21875 
Q 5.515625 13.875 5.515625 27.296875 
Q 5.515625 40.765625 12.171875 48.375 
Q 18.84375 56 30.609375 56 
z
" id="DejaVuSans-6f"/>
      <path d="M 45.40625 27.984375 
Q 45.40625 37.75 41.375 43.109375 
Q 37.359375 48.484375 30.078125 48.484375 
Q 22.859375 48.484375 18.828125 43.109375 
Q 14.796875 37.75 14.796875 27.984375 
Q 14.796875 18.265625 18.828125 12.890625 
Q 22.859375 7.515625 30.078125 7.515625 
Q 37.359375 7.515625 41.375 12.890625 
Q 45.40625 18.265625 45.40625 27.984375 
z
M 54.390625 6.78125 
Q 54.390625 -7.171875 48.1875 -13.984375 
Q 42 -20.796875 29.203125 -20.796875 
Q 24.46875 -20.796875 20.265625 -20.09375 
Q 16.0625 -19.390625 12.109375 -17.921875 
L 12.109375 -9.1875 
Q 16.0625 -11.328125 19.921875 -12.34375 
Q 23.78125 -13.375 27.78125 -13.375 
Q 36.625 -13.375 41.015625 -8.765625 
Q 45.40625 -4.15625 45.40625 5.171875 
L 45.40625 9.625 
Q 42.625 4.78125 38.28125 2.390625 
Q 33.9375 0 27.875 0 
Q 17.828125 0 11.671875 7.65625 
Q 5.515625 15.328125 5.515625 27.984375 
Q 5.515625 40.671875 11.671875 48.328125 
Q 17.828125 56 27.875 56 
Q 33.9375 56 38.28125 53.609375 
Q 42.625 51.21875 45.40625 46.390625 
L 45.40625 54.6875 
L 54.390625 54.6875 
z
" id="DejaVuSans-67"/>
      <path d="M 12.40625 8.296875 
L 28.515625 8.296875 
L 28.515625 63.921875 
L 10.984375 60.40625 
L 10.984375 69.390625 
L 28.421875 72.90625 
L 38.28125 72.90625 
L 38.28125 8.296875 
L 54.390625 8.296875 
L 54.390625 0 
L 12.40625 0 
z
" id="DejaVuSans-31"/>
      <path id="DejaVuSans-20"/>
      <path d="M 37.109375 75.984375 
L 37.109375 68.5 
L 28.515625 68.5 
Q 23.6875 68.5 21.796875 66.546875 
Q 19.921875 64.59375 19.921875 59.515625 
L 19.921875 54.6875 
L 34.71875 54.6875 
L 34.71875 47.703125 
L 19.921875 47.703125 
L 19.921875 0 
L 10.890625 0 
L 10.890625 47.703125 
L 2.296875 47.703125 
L 2.296875 54.6875 
L 10.890625 54.6875 
L 10.890625 58.5 
Q 10.890625 67.625 15.140625 71.796875 
Q 19.390625 75.984375 28.609375 75.984375 
z
" id="DejaVuSans-66"/>
      <path d="M 19.671875 64.796875 
L 19.671875 8.109375 
L 31.59375 8.109375 
Q 46.6875 8.109375 53.6875 14.9375 
Q 60.6875 21.78125 60.6875 36.53125 
Q 60.6875 51.171875 53.6875 57.984375 
Q 46.6875 64.796875 31.59375 64.796875 
z
M 9.8125 72.90625 
L 30.078125 72.90625 
Q 51.265625 72.90625 61.171875 64.09375 
Q 71.09375 55.28125 71.09375 36.53125 
Q 71.09375 17.671875 61.125 8.828125 
Q 51.171875 0 30.078125 0 
L 9.8125 0 
z
" id="DejaVuSans-44"/>
     </defs>
     <g transform="translate(172.910063 336.833125)scale(0.2 -0.2)">
      <use xlink:href="#DejaVuSans-6c"/>
      <use x="27.783203" xlink:href="#DejaVuSans-6f"/>
      <use x="88.964844" xlink:href="#DejaVuSans-67"/>
      <use x="152.441406" xlink:href="#DejaVuSans-31"/>
      <use x="216.064453" xlink:href="#DejaVuSans-30"/>
      <use x="279.6875" xlink:href="#DejaVuSans-20"/>
      <use x="311.474609" xlink:href="#DejaVuSans-6f"/>
      <use x="372.65625" xlink:href="#DejaVuSans-66"/>
      <use x="407.861328" xlink:href="#DejaVuSans-20"/>
      <use x="439.648438" xlink:href="#DejaVuSans-44"/>
      <use x="516.650391" xlink:href="#DejaVuSans-66"/>
     </g>
    </g>
   </g>
   <g id="matplotlib.axis_2">
    <g id="ytick_1">
     <g id="line2d_11">
      <path clip-path="url(#p9693f229a3)" d="M 5.52 291.28 
L 450.672 291.28 
" style="fill:none;stroke:#b0b0b0;stroke-linecap:square;stroke-width:0.8;"/>
     </g>
     <g id="line2d_12">
      <defs>
       <path d="M 0 0 
L -3.5 0 
" id="m0e0a0d2873" style="stroke:#000000;stroke-width:0.8;"/>
      </defs>
      <g>
       <use style="stroke:#000000;stroke-width:0.8;" x="5.52" xlink:href="#m0e0a0d2873" y="291.28"/>
      </g>
     </g>
    </g>
    <g id="ytick_2">
     <g id="line2d_13">
      <path clip-path="url(#p9693f229a3)" d="M 5.52 234.693861 
L 450.672 234.693861 
" style="fill:none;stroke:#b0b0b0;stroke-linecap:square;stroke-width:0.8;"/>
     </g>
     <g id="line2d_14">
      <g>
       <use style="stroke:#000000;stroke-width:0.8;" x="5.52" xlink:href="#m0e0a0d2873" y="234.693861"/>
      </g>
     </g>
    </g>
    <g id="ytick_3">
     <g id="line2d_15">
      <path clip-path="url(#p9693f229a3)" d="M 5.52 178.107723 
L 450.672 178.107723 
" style="fill:none;stroke:#b0b0b0;stroke-linecap:square;stroke-width:0.8;"/>
     </g>
     <g id="line2d_16">
      <g>
       <use style="stroke:#000000;stroke-width:0.8;" x="5.52" xlink:href="#m0e0a0d2873" y="178.107723"/>
      </g>
     </g>
    </g>
    <g id="ytick_4">
     <g id="line2d_17">
      <path clip-path="url(#p9693f229a3)" d="M 5.52 121.521584 
L 450.672 121.521584 
" style="fill:none;stroke:#b0b0b0;stroke-linecap:square;stroke-width:0.8;"/>
     </g>
     <g id="line2d_18">
      <g>
       <use style="stroke:#000000;stroke-width:0.8;" x="5.52" xlink:href="#m0e0a0d2873" y="121.521584"/>
      </g>
     </g>
    </g>
    <g id="ytick_5">
     <g id="line2d_19">
      <path clip-path="url(#p9693f229a3)" d="M 5.52 64.935446 
L 450.672 64.935446 
" style="fill:none;stroke:#b0b0b0;stroke-linecap:square;stroke-width:0.8;"/>
     </g>
     <g id="line2d_20">
      <g>
       <use style="stroke:#000000;stroke-width:0.8;" x="5.52" xlink:href="#m0e0a0d2873" y="64.935446"/>
      </g>
     </g>
    </g>
    <g id="ytick_6">
     <g id="line2d_21">
      <path clip-path="url(#p9693f229a3)" d="M 5.52 8.349307 
L 450.672 8.349307 
" style="fill:none;stroke:#b0b0b0;stroke-linecap:square;stroke-width:0.8;"/>
     </g>
     <g id="line2d_22">
      <g>
       <use style="stroke:#000000;stroke-width:0.8;" x="5.52" xlink:href="#m0e0a0d2873" y="8.349307"/>
      </g>
     </g>
    </g>
   </g>
   <g id="line2d_23">
    <path clip-path="url(#p9693f229a3)" d="M 200.167928 291.28 
L 200.167928 279.491221 
L 219.495632 279.491221 
L 219.495632 278.705303 
L 227.753226 278.705303 
L 227.753226 277.919384 
L 227.956231 277.919384 
L 227.956231 277.133465 
L 232.454817 277.133465 
L 232.454817 276.347547 
L 232.976676 276.347547 
L 232.976676 275.561628 
L 233.15645 275.561628 
L 233.15645 274.77571 
L 234.094061 274.77571 
L 234.138873 273.203872 
L 235.758832 273.203872 
L 235.758832 272.417954 
L 235.928525 272.417954 
L 235.930759 270.846117 
L 236.077033 270.846117 
L 236.077033 270.060198 
L 236.377483 270.060198 
L 236.377483 269.274279 
L 236.496886 269.274279 
L 236.496886 268.488361 
L 237.329779 268.488361 
L 237.329779 267.702442 
L 237.531719 267.702442 
L 237.531719 266.916524 
L 237.673937 266.916524 
L 237.673937 266.130605 
L 238.490491 266.130605 
L 238.490491 265.344686 
L 238.791691 265.344686 
L 238.791691 264.558768 
L 239.116983 264.558768 
L 239.116983 263.772849 
L 239.972737 263.772849 
L 240.006384 262.201012 
L 240.19661 262.201012 
L 240.213788 260.629175 
L 240.39823 260.629175 
L 240.505088 258.271419 
L 241.088827 258.271419 
L 241.088827 257.485501 
L 241.274119 257.485501 
L 241.378615 255.127745 
L 241.670349 255.127745 
L 241.670349 254.341826 
L 241.951506 254.341826 
L 241.951506 253.555908 
L 242.276273 253.555908 
L 242.276273 252.769989 
L 242.525976 252.769989 
L 242.525976 251.98407 
L 243.155005 251.98407 
L 243.155005 251.198152 
L 243.596828 251.198152 
L 243.674176 249.626315 
L 244.442037 249.626315 
L 244.442037 248.840396 
L 244.611786 248.840396 
L 244.611786 248.054477 
L 244.793041 248.054477 
L 244.793041 247.268559 
L 244.983859 247.268559 
L 245.038324 245.696722 
L 245.126441 245.696722 
L 245.126441 244.910803 
L 245.424018 244.910803 
L 245.424018 244.124884 
L 245.633986 244.124884 
L 245.633986 243.338966 
L 245.748768 243.338966 
L 245.748768 242.553047 
L 246.191754 242.553047 
L 246.271385 240.98121 
L 246.380413 240.98121 
L 246.384877 239.409373 
L 246.608729 239.409373 
L 246.710921 237.837536 
L 246.829618 237.837536 
L 246.829618 237.051617 
L 246.964467 237.051617 
L 246.997865 235.47978 
L 247.462873 235.47978 
L 247.462873 234.693861 
L 247.964869 234.693861 
L 247.964869 233.907943 
L 248.691794 233.907943 
L 248.699375 232.336106 
L 248.939834 232.336106 
L 248.939834 231.550187 
L 249.104599 231.550187 
L 249.104599 230.764268 
L 249.58165 230.764268 
L 249.58165 229.97835 
L 250.036103 229.97835 
L 250.036103 229.192431 
L 250.231495 229.192431 
L 250.231495 228.406513 
L 250.393369 228.406513 
L 250.393369 227.620594 
L 250.631397 227.620594 
L 250.631397 226.834675 
L 250.748248 226.834675 
L 250.748248 226.048757 
L 251.089131 226.048757 
L 251.089131 225.262838 
L 251.283148 225.262838 
L 251.36153 223.691001 
L 251.957372 223.691001 
L 251.957372 222.905083 
L 252.160739 222.905083 
L 252.186284 221.333245 
L 252.793546 221.333245 
L 252.793546 220.547327 
L 253.139388 220.547327 
L 253.247571 207.972629 
L 253.264097 207.972629 
L 253.317573 206.400792 
L 254.08576 206.400792 
L 254.181317 204.828955 
L 254.28348 204.828955 
L 254.28348 204.043036 
L 254.512692 204.043036 
L 254.512692 203.257118 
L 254.669851 203.257118 
L 254.669851 202.471199 
L 254.797094 202.471199 
L 254.797094 201.685281 
L 255.11467 201.685281 
L 255.11467 200.899362 
L 255.510767 200.899362 
L 255.510767 200.113443 
L 255.864021 200.113443 
L 255.864021 199.327525 
L 256.086718 199.327525 
L 256.086718 198.541606 
L 256.325725 198.541606 
L 256.433433 195.397932 
L 256.471709 195.397932 
L 256.471709 194.612013 
L 256.72343 194.612013 
L 256.72343 193.826095 
L 257.456281 193.826095 
L 257.456281 193.040176 
L 257.639158 193.040176 
L 257.639158 192.254257 
L 257.790529 192.254257 
L 257.790529 191.468339 
L 257.993654 191.468339 
L 258.075008 189.110583 
L 258.324664 189.110583 
L 258.435681 186.752827 
L 258.435822 186.752827 
L 258.525739 185.18099 
L 258.578603 185.18099 
L 258.578603 184.395072 
L 258.928296 184.395072 
L 258.928296 183.609153 
L 259.071204 183.609153 
L 259.127162 181.251397 
L 259.356786 181.251397 
L 259.356786 180.465479 
L 259.642977 180.465479 
L 259.753611 177.321804 
L 259.941948 177.321804 
L 259.980544 174.964048 
L 260.108927 174.964048 
L 260.108927 174.17813 
L 260.858005 174.17813 
L 260.858005 173.392211 
L 261.098489 173.392211 
L 261.098489 172.606293 
L 261.48188 172.606293 
L 261.581816 170.248537 
L 261.797081 170.248537 
L 261.797081 169.462618 
L 262.054813 169.462618 
L 262.128728 167.890781 
L 262.191277 167.890781 
L 262.191277 167.104862 
L 262.37066 167.104862 
L 262.37066 166.318944 
L 262.504743 166.318944 
L 262.504743 165.533025 
L 262.723638 165.533025 
L 262.723638 164.747107 
L 263.085539 164.747107 
L 263.161924 163.17527 
L 263.218084 163.17527 
L 263.218084 162.389351 
L 263.344905 162.389351 
L 263.412749 160.817514 
L 263.481648 160.817514 
L 263.557753 158.459758 
L 264.007612 158.459758 
L 264.063264 155.316084 
L 264.349522 155.316084 
L 264.381671 153.744246 
L 264.466289 153.744246 
L 264.47302 152.172409 
L 264.610133 152.172409 
L 264.610133 151.386491 
L 264.797695 151.386491 
L 264.874003 149.814653 
L 265.356031 149.814653 
L 265.383877 148.242816 
L 265.596919 148.242816 
L 265.658388 146.670979 
L 265.725598 146.670979 
L 265.814616 144.313223 
L 265.839181 144.313223 
L 265.839181 143.527305 
L 265.963821 143.527305 
L 266.050518 141.169549 
L 266.13571 141.169549 
L 266.13571 140.38363 
L 266.47714 140.38363 
L 266.47714 139.597712 
L 266.619856 139.597712 
L 266.619856 138.811793 
L 267.476227 138.811793 
L 267.476227 138.025875 
L 267.890327 138.025875 
L 267.963448 134.8822 
L 268.066701 134.8822 
L 268.085412 133.310363 
L 268.217092 133.310363 
L 268.217092 132.524444 
L 268.503979 132.524444 
L 268.503979 131.738526 
L 268.720944 131.738526 
L 268.782426 129.38077 
L 268.964852 129.38077 
L 268.986336 127.808933 
L 269.630062 127.808933 
L 269.630062 127.023014 
L 270.068775 127.023014 
L 270.068775 126.237096 
L 270.23076 126.237096 
L 270.23076 125.451177 
L 270.347526 125.451177 
L 270.416812 123.093421 
L 270.521193 123.093421 
L 270.558631 121.521584 
L 270.863354 121.521584 
L 270.863354 120.735666 
L 271.155863 120.735666 
L 271.155863 119.949747 
L 271.271103 119.949747 
L 271.292506 118.37791 
L 271.455672 118.37791 
L 271.455672 117.591991 
L 271.691484 117.591991 
L 271.691484 116.806073 
L 271.864968 116.806073 
L 271.864968 116.020154 
L 271.979387 116.020154 
L 271.979387 115.234235 
L 272.096486 115.234235 
L 272.096486 114.448317 
L 272.599619 114.448317 
L 272.599619 113.662398 
L 272.740847 113.662398 
L 272.740847 112.87648 
L 273.610178 112.87648 
L 273.668781 111.304642 
L 273.906187 111.304642 
L 273.906187 110.518724 
L 274.581004 110.518724 
L 274.614639 108.946887 
L 274.879216 108.946887 
L 274.954374 107.37505 
L 275.064705 107.37505 
L 275.069543 105.803212 
L 275.243509 105.803212 
L 275.243509 105.017294 
L 275.898854 105.017294 
L 275.898854 104.231375 
L 276.495838 104.231375 
L 276.495838 103.445457 
L 277.053906 103.445457 
L 277.053906 102.659538 
L 277.436232 102.659538 
L 277.510309 101.087701 
L 278.570606 101.087701 
L 278.570606 100.301782 
L 280.004011 100.301782 
L 280.004011 99.515864 
L 281.041248 99.515864 
L 281.041248 98.729945 
L 283.017988 98.729945 
L 283.017988 97.944026 
L 283.653362 97.944026 
L 283.653362 97.158108 
L 283.945904 97.158108 
L 283.945904 96.372189 
L 284.777837 96.372189 
L 284.777837 95.586271 
L 286.896391 95.586271 
L 286.896391 94.800352 
L 287.147838 94.800352 
L 287.247203 93.228515 
L 288.126923 93.228515 
L 288.21955 91.656678 
L 289.178594 91.656678 
L 289.178594 90.870759 
L 292.198734 90.870759 
L 292.198734 90.08484 
L 292.773855 90.08484 
L 292.773855 89.298922 
L 293.53048 89.298922 
L 293.53048 88.513003 
L 293.843824 88.513003 
L 293.843824 87.727085 
L 294.278034 87.727085 
L 294.278034 86.941166 
L 294.833956 86.941166 
L 294.833956 86.155248 
L 295.417089 86.155248 
L 295.509341 84.58341 
L 296.971478 84.58341 
L 297.058152 83.011573 
L 298.207045 83.011573 
L 298.207045 82.225655 
L 301.119468 82.225655 
L 301.119468 81.439736 
L 305.377064 81.439736 
L 305.377064 80.653817 
L 305.790885 80.653817 
L 305.790885 79.867899 
L 306.556118 79.867899 
L 306.556118 79.08198 
L 307.482806 79.08198 
L 307.482806 78.296062 
L 308.763869 78.296062 
L 308.763869 77.510143 
L 308.969371 77.510143 
L 308.969371 76.724224 
L 310.045592 76.724224 
L 310.045592 75.938306 
L 310.572339 75.938306 
L 310.572339 75.152387 
L 311.375872 75.152387 
L 311.375872 74.366469 
L 312.994489 74.366469 
L 312.994489 73.58055 
L 313.526148 73.58055 
L 313.526148 72.794631 
L 313.702316 72.794631 
L 313.702316 72.008713 
L 313.912713 72.008713 
L 313.968581 70.436876 
L 314.78584 70.436876 
L 314.78584 69.650957 
L 316.533157 69.650957 
L 316.533157 65.721364 
L 318.116769 65.721364 
L 318.116769 64.935446 
L 319.244428 64.935446 
L 319.244428 64.149527 
L 320.748485 64.149527 
L 320.748485 63.363608 
L 321.872491 63.363608 
L 321.872491 62.57769 
L 324.058731 62.57769 
L 324.058731 61.791771 
L 324.977012 61.791771 
L 324.977012 61.005853 
L 325.533008 61.005853 
L 325.533008 60.219934 
L 325.686116 60.219934 
L 325.686116 59.434015 
L 326.713441 59.434015 
L 326.713441 58.648097 
L 327.087245 58.648097 
L 327.087245 57.862178 
L 330.950817 57.862178 
L 330.950817 57.07626 
L 332.12947 57.07626 
L 332.12947 56.290341 
L 333.53845 56.290341 
L 333.53845 55.504422 
L 333.801712 55.504422 
L 333.801712 54.718504 
L 333.988373 54.718504 
L 333.988373 53.932585 
L 335.552225 53.932585 
L 335.552225 53.146667 
L 338.459684 53.146667 
L 338.459684 52.360748 
L 338.92627 52.360748 
L 338.92627 51.574829 
L 339.201 51.574829 
L 339.201 50.788911 
L 342.008307 50.788911 
L 342.008307 50.002992 
L 342.293662 50.002992 
L 342.293662 49.217074 
L 343.006509 49.217074 
L 343.070927 47.645237 
L 343.199253 47.645237 
L 343.209452 46.073399 
L 347.344726 46.073399 
L 347.344726 45.287481 
L 348.501522 45.287481 
L 348.501522 44.501562 
L 350.843755 44.501562 
L 350.843755 43.715644 
L 351.445459 43.715644 
L 351.445459 42.929725 
L 353.266086 42.929725 
L 353.266086 42.143806 
L 354.117639 42.143806 
L 354.117639 41.357888 
L 356.016046 41.357888 
L 356.016046 40.571969 
L 356.442417 40.571969 
L 356.442417 39.786051 
L 356.840576 39.786051 
L 356.840576 39.000132 
L 359.029774 39.000132 
L 359.029774 38.214213 
L 359.449722 38.214213 
L 359.449722 37.428295 
L 359.882733 37.428295 
L 359.943029 35.856458 
L 360.084438 35.856458 
L 360.084438 35.070539 
L 360.319128 35.070539 
L 360.319128 34.28462 
L 360.625502 34.28462 
L 360.625502 33.498702 
L 362.23875 33.498702 
L 362.23875 32.712783 
L 363.942453 32.712783 
L 363.942453 31.926865 
L 364.428196 31.926865 
L 364.428196 31.140946 
L 365.459572 31.140946 
L 365.459572 30.355028 
L 369.326722 30.355028 
L 369.326722 29.569109 
L 370.06428 29.569109 
L 370.06428 28.78319 
L 372.896994 28.78319 
L 372.896994 27.997272 
L 374.795272 27.997272 
L 374.795272 27.211353 
L 379.005914 27.211353 
L 379.005914 26.425435 
L 380.279906 26.425435 
L 380.279906 25.639516 
L 380.398503 25.639516 
L 380.398503 24.853597 
L 381.335512 24.853597 
L 381.366063 23.28176 
L 381.517119 23.28176 
L 381.517119 22.495842 
L 384.418937 22.495842 
L 384.418937 21.709923 
L 387.476715 21.709923 
L 387.476715 20.924004 
L 391.980784 20.924004 
L 391.980784 20.138086 
L 394.268682 20.138086 
L 394.268682 19.352167 
L 395.202095 19.352167 
L 395.202095 18.566249 
L 396.664186 18.566249 
L 396.664186 17.78033 
L 397.699657 17.78033 
L 397.699657 16.994411 
L 398.498453 16.994411 
L 398.498453 16.208493 
L 399.293839 16.208493 
L 399.293839 15.422574 
L 400.02956 15.422574 
L 400.02956 14.636656 
L 403.577689 14.636656 
L 403.577689 13.850737 
L 406.112321 13.850737 
L 406.112321 13.064818 
L 407.870776 13.064818 
L 407.870776 12.2789 
L 408.582339 12.2789 
L 408.582339 11.492981 
L 409.786918 11.492981 
L 409.786918 10.707063 
L 410.688196 10.707063 
L 410.688196 9.921144 
L 413.834132 9.921144 
L 413.834132 9.135226 
L 427.236474 9.135226 
L 427.236474 8.349307 
L 427.236474 8.349307 
L 450.672 8.349307 
L 450.672 8.349307 
" style="fill:none;stroke:#ff0000;stroke-linecap:square;stroke-width:3;"/>
   </g>
   <g id="line2d_24">
    <path clip-path="url(#p9693f229a3)" d="M 200.167928 291.28 
L 200.167928 279.491221 
L 232.976676 279.491221 
L 232.976676 278.705303 
L 235.758832 278.705303 
L 235.758832 277.919384 
L 235.928525 277.919384 
L 235.928525 277.133465 
L 236.077033 277.133465 
L 236.077033 276.347547 
L 237.673937 276.347547 
L 237.774175 274.77571 
L 239.116983 274.77571 
L 239.116983 273.989791 
L 240.006384 273.989791 
L 240.006384 273.203872 
L 240.762566 273.203872 
L 240.762566 272.417954 
L 241.195904 272.417954 
L 241.195904 271.632035 
L 241.670349 271.632035 
L 241.670349 270.846117 
L 241.951506 270.846117 
L 241.951506 270.060198 
L 243.0145 270.060198 
L 243.0145 269.274279 
L 243.155005 269.274279 
L 243.155005 268.488361 
L 243.448179 268.488361 
L 243.448179 267.702442 
L 243.927388 267.702442 
L 243.996492 266.130605 
L 244.23378 266.130605 
L 244.23378 265.344686 
L 244.442037 265.344686 
L 244.442037 264.558768 
L 245.167351 264.558768 
L 245.269076 262.986931 
L 245.424018 262.986931 
L 245.424018 262.201012 
L 245.633986 262.201012 
L 245.633986 261.415094 
L 245.953998 261.415094 
L 245.953998 260.629175 
L 246.271385 260.629175 
L 246.366829 259.057338 
L 246.952109 259.057338 
L 246.964467 257.485501 
L 247.917919 257.485501 
L 248.015367 255.913663 
L 248.111618 255.913663 
L 248.174826 254.341826 
L 248.315248 254.341826 
L 248.315248 253.555908 
L 248.939834 253.555908 
L 248.939834 252.769989 
L 249.406601 252.769989 
L 249.406601 251.98407 
L 249.559509 251.98407 
L 249.569779 250.412233 
L 249.892611 250.412233 
L 249.892611 249.626315 
L 250.036103 249.626315 
L 250.036103 248.840396 
L 250.356415 248.840396 
L 250.356415 248.054477 
L 250.763319 248.054477 
L 250.763319 247.268559 
L 251.283148 247.268559 
L 251.283148 246.48264 
L 251.471769 246.48264 
L 251.471769 245.696722 
L 252.407578 245.696722 
L 252.407578 244.910803 
L 252.794713 244.910803 
L 252.794713 244.124884 
L 253.067286 244.124884 
L 253.139388 241.767129 
L 253.247571 241.767129 
L 253.288109 229.192431 
L 253.636636 229.192431 
L 253.72124 227.620594 
L 254.697206 227.620594 
L 254.697206 226.834675 
L 255.150845 226.834675 
L 255.255388 225.262838 
L 255.301061 225.262838 
L 255.301061 224.47692 
L 255.510767 224.47692 
L 255.545274 222.905083 
L 255.769406 222.905083 
L 255.878465 220.547327 
L 256.352946 220.547327 
L 256.389772 218.97549 
L 256.49621 218.97549 
L 256.49621 218.189571 
L 256.979736 218.189571 
L 256.979736 217.403652 
L 257.639158 217.403652 
L 257.712508 215.831815 
L 258.212204 215.831815 
L 258.270959 213.474059 
L 258.4805 213.474059 
L 258.503918 211.902222 
L 258.910615 211.902222 
L 258.928296 210.330385 
L 259.115688 210.330385 
L 259.115688 209.544466 
L 259.311319 209.544466 
L 259.356786 207.186711 
L 259.469582 207.186711 
L 259.575342 205.614873 
L 259.61012 205.614873 
L 259.666872 204.043036 
L 259.963117 204.043036 
L 259.963117 203.257118 
L 260.423516 203.257118 
L 260.423516 202.471199 
L 260.655351 202.471199 
L 260.655351 201.685281 
L 260.858005 201.685281 
L 260.923586 200.113443 
L 261.377135 200.113443 
L 261.377135 199.327525 
L 261.581816 199.327525 
L 261.674602 197.755688 
L 261.734897 197.755688 
L 261.734897 196.969769 
L 261.915302 196.969769 
L 261.97309 195.397932 
L 262.128728 195.397932 
L 262.191277 193.826095 
L 262.317421 193.826095 
L 262.317421 193.040176 
L 262.548856 193.040176 
L 262.548856 192.254257 
L 262.723638 192.254257 
L 262.723638 191.468339 
L 263.085539 191.468339 
L 263.117742 189.896502 
L 263.28435 189.896502 
L 263.28435 189.110583 
L 263.484286 189.110583 
L 263.521599 187.538746 
L 263.668799 187.538746 
L 263.691365 185.966909 
L 263.929518 185.966909 
L 264.026967 183.609153 
L 264.10165 183.609153 
L 264.171274 182.037316 
L 264.2401 182.037316 
L 264.349522 179.67956 
L 264.38104 179.67956 
L 264.47302 175.749967 
L 264.537385 175.749967 
L 264.610133 174.17813 
L 264.779981 174.17813 
L 264.779981 173.392211 
L 265.331544 173.392211 
L 265.331544 172.606293 
L 265.658388 172.606293 
L 265.766452 171.034455 
L 265.839181 171.034455 
L 265.931505 169.462618 
L 265.971421 169.462618 
L 266.032883 167.104862 
L 266.13571 167.104862 
L 266.13571 166.318944 
L 266.532467 166.318944 
L 266.619856 164.747107 
L 267.188248 164.747107 
L 267.210873 163.17527 
L 267.577101 163.17527 
L 267.688058 160.817514 
L 267.722177 160.817514 
L 267.7819 159.245677 
L 267.890327 159.245677 
L 267.963448 156.102002 
L 268.025493 156.102002 
L 268.085412 153.744246 
L 268.138873 153.744246 
L 268.217092 152.172409 
L 268.656525 152.172409 
L 268.708899 149.814653 
L 268.999221 149.814653 
L 269.075259 148.242816 
L 269.238865 148.242816 
L 269.238865 147.456898 
L 269.508677 147.456898 
L 269.508677 142.741386 
L 269.721106 142.741386 
L 269.721106 141.955468 
L 270.521193 141.955468 
L 270.558631 140.38363 
L 270.863354 140.38363 
L 270.863354 139.597712 
L 271.271103 139.597712 
L 271.292506 138.025875 
L 271.388276 138.025875 
L 271.455672 135.668119 
L 271.828809 135.668119 
L 271.864968 134.096282 
L 271.945211 134.096282 
L 271.945211 133.310363 
L 272.096486 133.310363 
L 272.096486 132.524444 
L 272.334275 132.524444 
L 272.334275 131.738526 
L 272.498518 131.738526 
L 272.498518 130.952607 
L 272.668206 130.952607 
L 272.772666 128.594851 
L 273.295979 128.594851 
L 273.405699 127.023014 
L 273.438701 127.023014 
L 273.438701 126.237096 
L 273.610178 126.237096 
L 273.668781 124.665259 
L 273.839571 124.665259 
L 273.839571 123.87934 
L 274.100704 123.87934 
L 274.100704 123.093421 
L 274.614639 123.093421 
L 274.614639 122.307503 
L 274.792503 122.307503 
L 274.879216 120.735666 
L 275.064705 120.735666 
L 275.064705 119.949747 
L 275.787243 119.949747 
L 275.787243 119.163828 
L 276.024596 119.163828 
L 276.098672 117.591991 
L 276.398001 117.591991 
L 276.398001 116.806073 
L 276.638549 116.806073 
L 276.666736 115.234235 
L 277.221003 115.234235 
L 277.221003 114.448317 
L 277.410534 114.448317 
L 277.510309 112.87648 
L 278.925873 112.87648 
L 278.925873 112.090561 
L 279.134462 112.090561 
L 279.134462 111.304642 
L 279.397782 111.304642 
L 279.487424 109.732805 
L 279.526584 109.732805 
L 279.526584 108.946887 
L 280.004011 108.946887 
L 280.004011 108.160968 
L 280.167832 108.160968 
L 280.167832 107.37505 
L 280.447391 107.37505 
L 280.447391 106.589131 
L 283.653362 106.589131 
L 283.653362 105.803212 
L 283.945904 105.803212 
L 284.009972 104.231375 
L 285.012702 104.231375 
L 285.012702 103.445457 
L 285.209309 103.445457 
L 285.209309 102.659538 
L 285.328434 102.659538 
L 285.328434 101.873619 
L 285.883369 101.873619 
L 285.883369 101.087701 
L 287.247203 101.087701 
L 287.247203 100.301782 
L 288.126923 100.301782 
L 288.126923 99.515864 
L 291.421022 99.515864 
L 291.421022 98.729945 
L 292.198734 98.729945 
L 292.198734 97.944026 
L 292.773855 97.944026 
L 292.773855 97.158108 
L 293.002165 97.158108 
L 293.002165 96.372189 
L 293.624705 96.372189 
L 293.624705 95.586271 
L 295.279006 95.586271 
L 295.279006 94.800352 
L 295.509341 94.800352 
L 295.518076 93.228515 
L 296.736305 93.228515 
L 296.736305 92.442596 
L 297.551793 92.442596 
L 297.551793 91.656678 
L 297.681578 91.656678 
L 297.681578 90.870759 
L 298.154648 90.870759 
L 298.207045 89.298922 
L 302.396669 89.298922 
L 302.396669 88.513003 
L 305.790885 88.513003 
L 305.790885 87.727085 
L 306.556118 87.727085 
L 306.556118 86.941166 
L 310.572339 86.941166 
L 310.572339 86.155248 
L 311.375872 86.155248 
L 311.375872 85.369329 
L 312.676 85.369329 
L 312.676 84.58341 
L 313.526148 84.58341 
L 313.526148 83.797492 
L 313.702316 83.797492 
L 313.702316 83.011573 
L 313.968581 83.011573 
L 313.968581 82.225655 
L 315.726035 82.225655 
L 315.726035 81.439736 
L 315.915264 81.439736 
L 315.915264 80.653817 
L 316.533157 80.653817 
L 316.533157 72.008713 
L 318.116769 72.008713 
L 318.116769 71.222794 
L 321.00751 71.222794 
L 321.00751 70.436876 
L 322.863998 70.436876 
L 322.863998 69.650957 
L 324.058731 69.650957 
L 324.058731 68.865039 
L 324.977012 68.865039 
L 324.977012 68.07912 
L 325.533008 68.07912 
L 325.533008 67.293201 
L 326.433048 67.293201 
L 326.433048 66.507283 
L 328.074089 66.507283 
L 328.178135 64.935446 
L 330.950817 64.935446 
L 330.950817 64.149527 
L 331.409939 64.149527 
L 331.409939 63.363608 
L 331.724251 63.363608 
L 331.724251 62.57769 
L 333.53845 62.57769 
L 333.53845 61.791771 
L 337.577842 61.791771 
L 337.577842 61.005853 
L 339.201 61.005853 
L 339.201 60.219934 
L 340.799386 60.219934 
L 340.799386 59.434015 
L 342.438003 59.434015 
L 342.438003 58.648097 
L 343.006509 58.648097 
L 343.006509 57.862178 
L 344.968132 57.862178 
L 344.968132 57.07626 
L 347.344726 57.07626 
L 347.344726 56.290341 
L 348.501522 56.290341 
L 348.501522 55.504422 
L 349.473737 55.504422 
L 349.473737 54.718504 
L 350.843755 54.718504 
L 350.843755 53.932585 
L 351.76639 53.932585 
L 351.76639 53.146667 
L 353.098086 53.146667 
L 353.098086 52.360748 
L 354.956806 52.360748 
L 354.956806 51.574829 
L 356.442417 51.574829 
L 356.442417 50.788911 
L 359.740227 50.788911 
L 359.740227 50.002992 
L 359.882733 50.002992 
L 359.943029 48.431155 
L 362.23875 48.431155 
L 362.23875 47.645237 
L 364.901427 47.645237 
L 364.901427 46.859318 
L 366.009616 46.859318 
L 366.009616 46.073399 
L 367.406801 46.073399 
L 367.406801 45.287481 
L 367.690668 45.287481 
L 367.690668 44.501562 
L 368.366658 44.501562 
L 368.366658 43.715644 
L 376.526848 43.715644 
L 376.526848 42.929725 
L 380.279906 42.929725 
L 380.279906 42.143806 
L 381.431778 42.143806 
L 381.498131 40.571969 
L 381.816608 40.571969 
L 381.816608 39.786051 
L 383.293387 39.786051 
L 383.293387 39.000132 
L 383.723826 39.000132 
L 383.723826 38.214213 
L 384.418937 38.214213 
L 384.418937 37.428295 
L 385.459813 37.428295 
L 385.459813 36.642376 
L 386.100828 36.642376 
L 386.100828 35.856458 
L 387.025401 35.856458 
L 387.025401 35.070539 
L 388.050079 35.070539 
L 388.050079 34.28462 
L 388.657801 34.28462 
L 388.702656 32.712783 
L 388.823391 32.712783 
L 388.823391 31.926865 
L 391.968799 31.926865 
L 391.977699 30.355028 
L 392.53522 30.355028 
L 392.53522 29.569109 
L 394.268682 29.569109 
L 394.268682 28.78319 
L 394.456556 28.78319 
L 394.498894 27.211353 
L 396.928962 27.211353 
L 396.928962 26.425435 
L 397.660873 26.425435 
L 397.660873 25.639516 
L 398.622797 25.639516 
L 398.622797 24.853597 
L 399.248497 24.853597 
L 399.357681 23.28176 
L 400.447427 23.28176 
L 400.447427 22.495842 
L 401.830843 22.495842 
L 401.830843 21.709923 
L 402.633178 21.709923 
L 402.633178 20.924004 
L 403.308517 20.924004 
L 403.308517 20.138086 
L 404.533067 20.138086 
L 404.533067 19.352167 
L 405.786642 19.352167 
L 405.786642 18.566249 
L 405.952129 18.566249 
L 405.952129 17.78033 
L 406.352423 17.78033 
L 406.352423 16.994411 
L 408.876825 16.994411 
L 408.876825 16.208493 
L 410.688196 16.208493 
L 410.688196 15.422574 
L 413.834132 15.422574 
L 413.834132 14.636656 
L 414.87476 14.636656 
L 414.87476 13.850737 
L 419.062138 13.850737 
L 419.062138 13.064818 
L 420.251865 13.064818 
L 420.251865 12.2789 
L 420.71898 12.2789 
L 420.71898 11.492981 
L 421.32923 11.492981 
L 421.32923 10.707063 
L 426.789393 10.707063 
L 426.789393 9.921144 
L 431.400545 9.921144 
L 431.400545 9.135226 
L 438.743235 9.135226 
L 438.743235 8.349307 
L 438.743235 8.349307 
L 450.672 8.349307 
L 450.672 8.349307 
" style="fill:none;stroke:#00bfbf;stroke-linecap:square;stroke-width:1.5;"/>
   </g>
   <g id="line2d_25">
    <path clip-path="url(#p9693f229a3)" d="M 200.167928 291.28 
L 200.167928 279.491221 
L 227.753226 279.491221 
L 227.753226 278.705303 
L 232.454817 278.705303 
L 232.454817 277.919384 
L 232.976676 277.919384 
L 232.976676 277.133465 
L 233.15645 277.133465 
L 233.15645 276.347547 
L 234.094061 276.347547 
L 234.094061 275.561628 
L 234.962927 275.561628 
L 234.962927 274.77571 
L 235.758832 274.77571 
L 235.758832 273.989791 
L 235.928525 273.989791 
L 235.928525 273.203872 
L 236.077033 273.203872 
L 236.077033 272.417954 
L 236.916875 272.417954 
L 236.916875 271.632035 
L 237.673937 271.632035 
L 237.774175 270.060198 
L 238.490491 270.060198 
L 238.490491 269.274279 
L 238.791691 269.274279 
L 238.791691 268.488361 
L 239.116983 268.488361 
L 239.116983 267.702442 
L 240.006384 267.702442 
L 240.006384 266.916524 
L 240.213788 266.916524 
L 240.213788 266.130605 
L 240.412841 266.130605 
L 240.505088 264.558768 
L 240.762566 264.558768 
L 240.762566 263.772849 
L 241.072144 263.772849 
L 241.088827 262.201012 
L 241.274119 262.201012 
L 241.274119 261.415094 
L 241.670349 261.415094 
L 241.670349 260.629175 
L 241.951506 260.629175 
L 241.951506 259.843256 
L 242.276273 259.843256 
L 242.276273 259.057338 
L 242.525976 259.057338 
L 242.525976 258.271419 
L 243.0145 258.271419 
L 243.0145 257.485501 
L 243.155005 257.485501 
L 243.155005 256.699582 
L 243.448179 256.699582 
L 243.448179 255.913663 
L 243.812328 255.913663 
L 243.82485 254.341826 
L 244.442037 254.341826 
L 244.442037 253.555908 
L 244.793041 253.555908 
L 244.828737 251.98407 
L 245.126441 251.98407 
L 245.126441 251.198152 
L 245.424018 251.198152 
L 245.424018 250.412233 
L 245.633986 250.412233 
L 245.633986 249.626315 
L 246.191754 249.626315 
L 246.271385 248.054477 
L 246.608729 248.054477 
L 246.608729 247.268559 
L 246.885009 247.268559 
L 246.964467 245.696722 
L 247.691004 245.696722 
L 247.763276 243.338966 
L 248.015367 243.338966 
L 248.111618 241.767129 
L 248.583415 241.767129 
L 248.583415 240.98121 
L 248.699375 240.98121 
L 248.699375 240.195292 
L 248.939834 240.195292 
L 248.939834 239.409373 
L 249.58165 239.409373 
L 249.58165 238.623454 
L 250.036103 238.623454 
L 250.036103 237.837536 
L 250.231495 237.837536 
L 250.231495 237.051617 
L 250.356415 237.051617 
L 250.393369 235.47978 
L 250.748248 235.47978 
L 250.748248 234.693861 
L 251.089131 234.693861 
L 251.089131 233.907943 
L 251.283148 233.907943 
L 251.283148 233.122024 
L 251.622094 233.122024 
L 251.622094 232.336106 
L 251.841307 232.336106 
L 251.841307 231.550187 
L 252.186284 231.550187 
L 252.186284 230.764268 
L 253.067286 230.764268 
L 253.139388 229.192431 
L 253.247571 229.192431 
L 253.317573 216.617734 
L 253.636636 216.617734 
L 253.636636 215.831815 
L 254.08576 215.831815 
L 254.181317 214.259978 
L 254.28348 214.259978 
L 254.28348 213.474059 
L 254.512692 213.474059 
L 254.54069 211.902222 
L 254.697206 211.902222 
L 254.697206 211.116304 
L 255.095993 211.116304 
L 255.150845 209.544466 
L 255.255388 209.544466 
L 255.301061 207.972629 
L 255.510767 207.972629 
L 255.510767 207.186711 
L 255.864021 207.186711 
L 255.878465 205.614873 
L 256.086718 205.614873 
L 256.086718 204.828955 
L 256.325725 204.828955 
L 256.433433 201.685281 
L 257.456281 201.685281 
L 257.456281 200.899362 
L 257.639158 200.899362 
L 257.639158 200.113443 
L 258.012215 200.113443 
L 258.012215 199.327525 
L 258.23327 199.327525 
L 258.324664 196.969769 
L 258.429103 196.969769 
L 258.525739 194.612013 
L 258.578603 194.612013 
L 258.578603 193.826095 
L 258.928296 193.826095 
L 258.928296 193.040176 
L 259.071204 193.040176 
L 259.115688 191.468339 
L 259.311319 191.468339 
L 259.356786 189.110583 
L 259.469582 189.110583 
L 259.575342 187.538746 
L 259.642977 187.538746 
L 259.753611 185.18099 
L 259.963117 185.18099 
L 259.980544 183.609153 
L 260.108927 183.609153 
L 260.108927 182.823234 
L 260.858005 182.823234 
L 260.923586 181.251397 
L 260.983599 181.251397 
L 260.983599 180.465479 
L 261.098489 180.465479 
L 261.197706 178.893641 
L 261.48188 178.893641 
L 261.581816 177.321804 
L 261.674602 177.321804 
L 261.674602 176.535886 
L 261.797081 176.535886 
L 261.797081 175.749967 
L 261.915302 175.749967 
L 261.915302 174.964048 
L 262.054813 174.964048 
L 262.128728 173.392211 
L 262.191277 173.392211 
L 262.191277 172.606293 
L 262.37066 172.606293 
L 262.37066 171.820374 
L 262.548856 171.820374 
L 262.548856 171.034455 
L 262.723638 171.034455 
L 262.723638 170.248537 
L 262.968949 170.248537 
L 262.968949 169.462618 
L 263.085539 169.462618 
L 263.085539 168.6767 
L 263.232454 168.6767 
L 263.232454 167.890781 
L 263.412749 167.890781 
L 263.521599 166.318944 
L 264.017099 166.318944 
L 264.035657 164.747107 
L 264.163855 164.747107 
L 264.2401 162.389351 
L 264.319778 162.389351 
L 264.381671 159.245677 
L 264.466289 159.245677 
L 264.47302 157.673839 
L 264.610133 157.673839 
L 264.610133 156.887921 
L 265.383003 156.887921 
L 265.383877 155.316084 
L 265.658388 155.316084 
L 265.658388 154.530165 
L 265.809419 154.530165 
L 265.839181 152.172409 
L 266.032883 152.172409 
L 266.13571 150.600572 
L 266.47714 150.600572 
L 266.47714 149.814653 
L 266.619856 149.814653 
L 266.619856 149.028735 
L 267.232262 149.028735 
L 267.232262 148.242816 
L 267.688058 148.242816 
L 267.7819 145.885061 
L 267.890327 145.885061 
L 267.963448 142.741386 
L 268.066701 142.741386 
L 268.138873 139.597712 
L 268.217092 139.597712 
L 268.217092 138.811793 
L 268.604089 138.811793 
L 268.616942 137.239956 
L 268.720944 137.239956 
L 268.721507 135.668119 
L 268.986336 135.668119 
L 268.986336 134.8822 
L 269.508677 134.8822 
L 269.508677 134.096282 
L 269.721106 134.096282 
L 269.721106 133.310363 
L 270.028923 133.310363 
L 270.028923 132.524444 
L 270.23076 132.524444 
L 270.23076 131.738526 
L 270.521193 131.738526 
L 270.558631 130.166689 
L 270.863354 130.166689 
L 270.863354 129.38077 
L 271.054956 129.38077 
L 271.054956 128.594851 
L 271.271103 128.594851 
L 271.292506 127.023014 
L 271.388276 127.023014 
L 271.455672 125.451177 
L 271.828809 125.451177 
L 271.864968 123.87934 
L 271.979387 123.87934 
L 271.979387 123.093421 
L 272.096486 123.093421 
L 272.096486 122.307503 
L 272.740847 122.307503 
L 272.772666 120.735666 
L 273.295979 120.735666 
L 273.295979 119.949747 
L 273.438701 119.949747 
L 273.438701 119.163828 
L 273.610178 119.163828 
L 273.668781 117.591991 
L 273.906187 117.591991 
L 273.906187 116.806073 
L 274.100704 116.806073 
L 274.100704 116.020154 
L 274.581004 116.020154 
L 274.614639 114.448317 
L 274.879216 114.448317 
L 274.879216 113.662398 
L 275.030475 113.662398 
L 275.069543 111.304642 
L 276.024596 111.304642 
L 276.098672 109.732805 
L 276.638549 109.732805 
L 276.638549 108.946887 
L 277.040648 108.946887 
L 277.053906 107.37505 
L 277.510309 107.37505 
L 277.510309 106.589131 
L 278.082567 106.589131 
L 278.082567 105.803212 
L 278.570606 105.803212 
L 278.570606 105.017294 
L 279.502216 105.017294 
L 279.502216 104.231375 
L 280.004011 104.231375 
L 280.004011 103.445457 
L 283.443709 103.445457 
L 283.443709 102.659538 
L 283.653362 102.659538 
L 283.653362 101.873619 
L 283.945904 101.873619 
L 284.009972 100.301782 
L 284.777837 100.301782 
L 284.777837 99.515864 
L 285.209309 99.515864 
L 285.209309 98.729945 
L 287.147838 98.729945 
L 287.247203 97.158108 
L 288.126923 97.158108 
L 288.21955 95.586271 
L 291.139051 95.586271 
L 291.139051 94.800352 
L 292.198734 94.800352 
L 292.198734 94.014433 
L 292.773855 94.014433 
L 292.773855 93.228515 
L 293.624705 93.228515 
L 293.624705 92.442596 
L 294.278034 92.442596 
L 294.278034 91.656678 
L 294.833956 91.656678 
L 294.833956 90.870759 
L 295.509341 90.870759 
L 295.509341 90.08484 
L 296.228553 90.08484 
L 296.228553 89.298922 
L 297.058152 89.298922 
L 297.058152 88.513003 
L 297.551793 88.513003 
L 297.551793 87.727085 
L 297.681578 87.727085 
L 297.681578 86.941166 
L 298.207045 86.941166 
L 298.207045 86.155248 
L 301.119468 86.155248 
L 301.119468 85.369329 
L 305.377064 85.369329 
L 305.377064 84.58341 
L 305.790885 84.58341 
L 305.790885 83.797492 
L 306.027965 83.797492 
L 306.027965 83.011573 
L 306.556118 83.011573 
L 306.556118 82.225655 
L 307.482806 82.225655 
L 307.482806 81.439736 
L 308.969371 81.439736 
L 308.969371 80.653817 
L 310.572339 80.653817 
L 310.572339 79.867899 
L 311.375872 79.867899 
L 311.375872 79.08198 
L 313.526148 79.08198 
L 313.526148 78.296062 
L 313.702316 78.296062 
L 313.702316 77.510143 
L 313.912713 77.510143 
L 313.968581 75.938306 
L 314.070251 75.938306 
L 314.070251 75.152387 
L 315.726035 75.152387 
L 315.726035 74.366469 
L 315.915264 74.366469 
L 315.915264 73.58055 
L 316.533157 73.58055 
L 316.533157 68.865039 
L 317.026189 68.865039 
L 317.026189 68.07912 
L 318.116769 68.07912 
L 318.116769 67.293201 
L 320.748485 67.293201 
L 320.748485 66.507283 
L 324.058731 66.507283 
L 324.058731 65.721364 
L 324.977012 65.721364 
L 324.977012 64.935446 
L 325.533008 64.935446 
L 325.533008 64.149527 
L 325.686116 64.149527 
L 325.686116 63.363608 
L 326.3413 63.363608 
L 326.3413 62.57769 
L 326.713441 62.57769 
L 326.713441 61.791771 
L 330.950817 61.791771 
L 330.950817 61.005853 
L 331.724251 61.005853 
L 331.724251 60.219934 
L 332.12947 60.219934 
L 332.12947 59.434015 
L 333.53845 59.434015 
L 333.53845 58.648097 
L 333.801712 58.648097 
L 333.801712 57.862178 
L 333.988373 57.862178 
L 333.988373 57.07626 
L 335.552225 57.07626 
L 335.552225 56.290341 
L 337.577842 56.290341 
L 337.577842 55.504422 
L 339.201 55.504422 
L 339.201 54.718504 
L 342.008307 54.718504 
L 342.008307 53.932585 
L 343.006509 53.932585 
L 343.070927 52.360748 
L 343.209452 52.360748 
L 343.209452 51.574829 
L 347.344726 51.574829 
L 347.344726 50.788911 
L 348.501522 50.788911 
L 348.501522 50.002992 
L 349.321019 50.002992 
L 349.321019 49.217074 
L 350.63764 49.217074 
L 350.63764 48.431155 
L 350.843755 48.431155 
L 350.843755 47.645237 
L 351.445459 47.645237 
L 351.445459 46.859318 
L 353.266086 46.859318 
L 353.266086 46.073399 
L 354.117639 46.073399 
L 354.117639 45.287481 
L 356.442417 45.287481 
L 356.442417 44.501562 
L 359.029774 44.501562 
L 359.029774 43.715644 
L 359.740227 43.715644 
L 359.740227 42.929725 
L 359.882733 42.929725 
L 359.943029 41.357888 
L 360.084438 41.357888 
L 360.084438 40.571969 
L 362.23875 40.571969 
L 362.23875 39.786051 
L 362.675754 39.786051 
L 362.675754 39.000132 
L 363.942453 39.000132 
L 363.942453 38.214213 
L 364.654137 38.214213 
L 364.654137 37.428295 
L 367.406801 37.428295 
L 367.443223 35.856458 
L 368.087922 35.856458 
L 368.087922 35.070539 
L 375.384655 35.070539 
L 375.384655 34.28462 
L 375.839949 34.28462 
L 375.839949 33.498702 
L 377.136739 33.498702 
L 377.136739 32.712783 
L 380.279906 32.712783 
L 380.279906 31.926865 
L 380.398503 31.926865 
L 380.398503 31.140946 
L 381.366063 31.140946 
L 381.366063 30.355028 
L 381.517119 30.355028 
L 381.517119 29.569109 
L 382.119655 29.569109 
L 382.119655 28.78319 
L 383.293387 28.78319 
L 383.293387 27.997272 
L 384.247244 27.997272 
L 384.247244 27.211353 
L 384.418937 27.211353 
L 384.418937 26.425435 
L 385.722024 26.425435 
L 385.722024 25.639516 
L 386.220015 25.639516 
L 386.220015 24.853597 
L 388.050079 24.853597 
L 388.050079 24.067679 
L 388.702656 24.067679 
L 388.702656 23.28176 
L 391.980784 23.28176 
L 391.980784 22.495842 
L 394.135267 22.495842 
L 394.135267 21.709923 
L 394.268682 21.709923 
L 394.268682 20.924004 
L 394.878066 20.924004 
L 394.878066 20.138086 
L 395.202095 20.138086 
L 395.202095 19.352167 
L 396.664186 19.352167 
L 396.664186 18.566249 
L 398.498453 18.566249 
L 398.498453 17.78033 
L 399.248497 17.78033 
L 399.248497 16.994411 
L 400.05208 16.994411 
L 400.05208 16.208493 
L 403.577689 16.208493 
L 403.577689 15.422574 
L 404.343085 15.422574 
L 404.343085 14.636656 
L 406.112321 14.636656 
L 406.112321 13.850737 
L 407.870776 13.850737 
L 407.870776 13.064818 
L 409.099273 13.064818 
L 409.099273 12.2789 
L 410.688196 12.2789 
L 410.688196 11.492981 
L 411.030802 11.492981 
L 411.030802 10.707063 
L 413.834132 10.707063 
L 413.834132 9.921144 
L 414.87476 9.921144 
L 414.87476 9.135226 
L 429.852075 9.135226 
L 429.852075 8.349307 
L 429.852075 8.349307 
L 450.672 8.349307 
L 450.672 8.349307 
" style="fill:none;stroke:#bf00bf;stroke-linecap:square;stroke-width:1.5;"/>
   </g>
   <g id="patch_3">
    <path d="M 5.52 291.28 
L 5.52 5.52 
" style="fill:none;stroke:#000000;stroke-linecap:square;stroke-linejoin:miter;stroke-width:0.8;"/>
   </g>
   <g id="patch_4">
    <path d="M 450.672 291.28 
L 450.672 5.52 
" style="fill:none;stroke:#000000;stroke-linecap:square;stroke-linejoin:miter;stroke-width:0.8;"/>
   </g>
   <g id="patch_5">
    <path d="M 5.52 291.28 
L 450.672 291.28 
" style="fill:none;stroke:#000000;stroke-linecap:square;stroke-linejoin:miter;stroke-width:0.8;"/>
   </g>
   <g id="patch_6">
    <path d="M 5.52 5.52 
L 450.672 5.52 
" style="fill:none;stroke:#000000;stroke-linecap:square;stroke-linejoin:miter;stroke-width:0.8;"/>
   </g>
   <g id="text_6">
    <!-- {f1-f24}, 5-D -->
    <defs>
     <path d="M 51.125 -9.28125 
L 51.125 -16.3125 
L 48.09375 -16.3125 
Q 35.9375 -16.3125 31.8125 -12.6875 
Q 27.6875 -9.078125 27.6875 1.703125 
L 27.6875 13.375 
Q 27.6875 20.75 25.046875 23.578125 
Q 22.40625 26.421875 15.484375 26.421875 
L 12.5 26.421875 
L 12.5 33.40625 
L 15.484375 33.40625 
Q 22.46875 33.40625 25.078125 36.203125 
Q 27.6875 39.015625 27.6875 46.296875 
L 27.6875 58.015625 
Q 27.6875 68.796875 31.8125 72.390625 
Q 35.9375 75.984375 48.09375 75.984375 
L 51.125 75.984375 
L 51.125 69 
L 47.796875 69 
Q 40.921875 69 38.8125 66.84375 
Q 36.71875 64.703125 36.71875 57.8125 
L 36.71875 45.703125 
Q 36.71875 38.03125 34.5 34.5625 
Q 32.28125 31.109375 26.90625 29.890625 
Q 32.328125 28.5625 34.515625 25.09375 
Q 36.71875 21.625 36.71875 14.015625 
L 36.71875 1.90625 
Q 36.71875 -4.984375 38.8125 -7.125 
Q 40.921875 -9.28125 47.796875 -9.28125 
z
" id="DejaVuSans-7b"/>
     <path d="M 19.1875 8.296875 
L 53.609375 8.296875 
L 53.609375 0 
L 7.328125 0 
L 7.328125 8.296875 
Q 12.9375 14.109375 22.625 23.890625 
Q 32.328125 33.6875 34.8125 36.53125 
Q 39.546875 41.84375 41.421875 45.53125 
Q 43.3125 49.21875 43.3125 52.78125 
Q 43.3125 58.59375 39.234375 62.25 
Q 35.15625 65.921875 28.609375 65.921875 
Q 23.96875 65.921875 18.8125 64.3125 
Q 13.671875 62.703125 7.8125 59.421875 
L 7.8125 69.390625 
Q 13.765625 71.78125 18.9375 73 
Q 24.125 74.21875 28.421875 74.21875 
Q 39.75 74.21875 46.484375 68.546875 
Q 53.21875 62.890625 53.21875 53.421875 
Q 53.21875 48.921875 51.53125 44.890625 
Q 49.859375 40.875 45.40625 35.40625 
Q 44.1875 33.984375 37.640625 27.21875 
Q 31.109375 20.453125 19.1875 8.296875 
z
" id="DejaVuSans-32"/>
     <path d="M 12.5 -9.28125 
L 15.921875 -9.28125 
Q 22.75 -9.28125 24.828125 -7.171875 
Q 26.90625 -5.078125 26.90625 1.90625 
L 26.90625 14.015625 
Q 26.90625 21.625 29.09375 25.09375 
Q 31.296875 28.5625 36.71875 29.890625 
Q 31.296875 31.109375 29.09375 34.5625 
Q 26.90625 38.03125 26.90625 45.703125 
L 26.90625 57.8125 
Q 26.90625 64.75 24.828125 66.875 
Q 22.75 69 15.921875 69 
L 12.5 69 
L 12.5 75.984375 
L 15.578125 75.984375 
Q 27.734375 75.984375 31.8125 72.390625 
Q 35.890625 68.796875 35.890625 58.015625 
L 35.890625 46.296875 
Q 35.890625 39.015625 38.515625 36.203125 
Q 41.15625 33.40625 48.09375 33.40625 
L 51.125 33.40625 
L 51.125 26.421875 
L 48.09375 26.421875 
Q 41.15625 26.421875 38.515625 23.578125 
Q 35.890625 20.75 35.890625 13.375 
L 35.890625 1.703125 
Q 35.890625 -9.078125 31.8125 -12.6875 
Q 27.734375 -16.3125 15.578125 -16.3125 
L 12.5 -16.3125 
z
" id="DejaVuSans-7d"/>
     <path d="M 11.71875 12.40625 
L 22.015625 12.40625 
L 22.015625 4 
L 14.015625 -11.625 
L 7.71875 -11.625 
L 11.71875 4 
z
" id="DejaVuSans-2c"/>
     <path d="M 10.796875 72.90625 
L 49.515625 72.90625 
L 49.515625 64.59375 
L 19.828125 64.59375 
L 19.828125 46.734375 
Q 21.96875 47.46875 24.109375 47.828125 
Q 26.265625 48.1875 28.421875 48.1875 
Q 40.625 48.1875 47.75 41.5 
Q 54.890625 34.8125 54.890625 23.390625 
Q 54.890625 11.625 47.5625 5.09375 
Q 40.234375 -1.421875 26.90625 -1.421875 
Q 22.3125 -1.421875 17.546875 -0.640625 
Q 12.796875 0.140625 7.71875 1.703125 
L 7.71875 11.625 
Q 12.109375 9.234375 16.796875 8.0625 
Q 21.484375 6.890625 26.703125 6.890625 
Q 35.15625 6.890625 40.078125 11.328125 
Q 45.015625 15.765625 45.015625 23.390625 
Q 45.015625 31 40.078125 35.4375 
Q 35.15625 39.890625 26.703125 39.890625 
Q 22.75 39.890625 18.8125 39.015625 
Q 14.890625 38.140625 10.796875 36.28125 
z
" id="DejaVuSans-35"/>
    </defs>
    <g transform="translate(308.79396 285.5648)scale(0.2 -0.2)">
     <use xlink:href="#DejaVuSans-7b"/>
     <use x="63.623047" xlink:href="#DejaVuSans-66"/>
     <use x="98.828125" xlink:href="#DejaVuSans-31"/>
     <use x="162.451172" xlink:href="#DejaVuSans-2d"/>
     <use x="198.535156" xlink:href="#DejaVuSans-66"/>
     <use x="233.740234" xlink:href="#DejaVuSans-32"/>
     <use x="297.363281" xlink:href="#DejaVuSans-34"/>
     <use x="360.986328" xlink:href="#DejaVuSans-7d"/>
     <use x="424.609375" xlink:href="#DejaVuSans-2c"/>
     <use x="456.396484" xlink:href="#DejaVuSans-20"/>
     <use x="488.183594" xlink:href="#DejaVuSans-35"/>
     <use x="551.806641" xlink:href="#DejaVuSans-2d"/>
     <use x="587.890625" xlink:href="#DejaVuSans-44"/>
    </g>
   </g>
   <g id="text_7">
    <!-- v2.2.1.10 -->
    <defs>
     <path d="M 2.984375 54.6875 
L 12.5 54.6875 
L 29.59375 8.796875 
L 46.6875 54.6875 
L 56.203125 54.6875 
L 35.6875 0 
L 23.484375 0 
z
" id="DejaVuSans-76"/>
     <path d="M 10.6875 12.40625 
L 21 12.40625 
L 21 0 
L 10.6875 0 
z
" id="DejaVuSans-2e"/>
    </defs>
    <g style="fill:#808080;" transform="translate(204.463188 286.342713)scale(0.1 -0.1)">
     <use xlink:href="#DejaVuSans-76"/>
     <use x="59.179688" xlink:href="#DejaVuSans-32"/>
     <use x="122.802734" xlink:href="#DejaVuSans-2e"/>
     <use x="154.589844" xlink:href="#DejaVuSans-32"/>
     <use x="218.212891" xlink:href="#DejaVuSans-2e"/>
     <use x="250" xlink:href="#DejaVuSans-31"/>
     <use x="313.623047" xlink:href="#DejaVuSans-2e"/>
     <use x="345.410156" xlink:href="#DejaVuSans-31"/>
     <use x="409.033203" xlink:href="#DejaVuSans-30"/>
    </g>
   </g>
  </g>
 </g>
 <defs>
  <clipPath id="p9693f229a3">
   <rect height="285.76" width="445.152" x="5.52" y="5.52"/>
  </clipPath>
 </defs>
</svg>
