<?xml version="1.0" encoding="utf-8" standalone="no"?>
<!DOCTYPE svg PUBLIC "-//W3C//DTD SVG 1.1//EN"
  "http://www.w3.org/Graphics/SVG/1.1/DTD/svg11.dtd">
<!-- Created with matplotlib (http://matplotlib.org/) -->
<svg height="345.6pt" version="1.1" viewBox="0 0 460.8 345.6" width="460.8pt" xmlns="http://www.w3.org/2000/svg" xmlns:xlink="http://www.w3.org/1999/xlink">
 <defs>
  <style type="text/css">
*{stroke-linecap:butt;stroke-linejoin:round;}
  </style>
 </defs>
 <g id="figure_1">
  <g id="patch_1">
   <path d="M 0 345.6 
L 460.8 345.6 
L 460.8 0 
L 0 0 
z
" style="fill:#ffffff;"/>
  </g>
  <g id="axes_1">
   <g id="patch_2">
    <path d="M 5.52 291.28 
L 450.672 291.28 
L 450.672 5.52 
L 5.52 5.52 
z
" style="fill:#ffffff;"/>
   </g>
   <g id="matplotlib.axis_1">
    <g id="xtick_1">
     <g id="line2d_1">
      <path clip-path="url(#p2ba1d65d1a)" d="M 5.406243 291.28 
L 5.406243 5.52 
" style="fill:none;stroke:#b0b0b0;stroke-linecap:square;stroke-width:0.8;"/>
     </g>
     <g id="line2d_2">
      <defs>
       <path d="M 0 0 
L 0 3.5 
" id="m237c8bbbd7" style="stroke:#000000;stroke-width:0.8;"/>
      </defs>
      <g>
       <use style="stroke:#000000;stroke-width:0.8;" x="5.406243" xlink:href="#m237c8bbbd7" y="291.28"/>
      </g>
     </g>
    </g>
    <g id="xtick_2">
     <g id="line2d_3">
      <path clip-path="url(#p2ba1d65d1a)" d="M 110.70291 291.28 
L 110.70291 5.52 
" style="fill:none;stroke:#b0b0b0;stroke-linecap:square;stroke-width:0.8;"/>
     </g>
     <g id="line2d_4">
      <g>
       <use style="stroke:#000000;stroke-width:0.8;" x="110.70291" xlink:href="#m237c8bbbd7" y="291.28"/>
      </g>
     </g>
     <g id="text_1">
      <!-- -4 -->
      <defs>
       <path d="M 4.890625 31.390625 
L 31.203125 31.390625 
L 31.203125 23.390625 
L 4.890625 23.390625 
z
" id="DejaVuSans-2d"/>
       <path d="M 37.796875 64.3125 
L 12.890625 25.390625 
L 37.796875 25.390625 
z
M 35.203125 72.90625 
L 47.609375 72.90625 
L 47.609375 25.390625 
L 58.015625 25.390625 
L 58.015625 17.1875 
L 47.609375 17.1875 
L 47.609375 0 
L 37.796875 0 
L 37.796875 17.1875 
L 4.890625 17.1875 
L 4.890625 26.703125 
z
" id="DejaVuSans-34"/>
      </defs>
      <g transform="translate(100.732598 313.476875)scale(0.2 -0.2)">
       <use xlink:href="#DejaVuSans-2d"/>
       <use x="36.083984" xlink:href="#DejaVuSans-34"/>
      </g>
     </g>
    </g>
    <g id="xtick_3">
     <g id="line2d_5">
      <path clip-path="url(#p2ba1d65d1a)" d="M 215.999577 291.28 
L 215.999577 5.52 
" style="fill:none;stroke:#b0b0b0;stroke-linecap:square;stroke-width:0.8;"/>
     </g>
     <g id="line2d_6">
      <g>
       <use style="stroke:#000000;stroke-width:0.8;" x="215.999577" xlink:href="#m237c8bbbd7" y="291.28"/>
      </g>
     </g>
     <g id="text_2">
      <!-- 0 -->
      <defs>
       <path d="M 31.78125 66.40625 
Q 24.171875 66.40625 20.328125 58.90625 
Q 16.5 51.421875 16.5 36.375 
Q 16.5 21.390625 20.328125 13.890625 
Q 24.171875 6.390625 31.78125 6.390625 
Q 39.453125 6.390625 43.28125 13.890625 
Q 47.125 21.390625 47.125 36.375 
Q 47.125 51.421875 43.28125 58.90625 
Q 39.453125 66.40625 31.78125 66.40625 
z
M 31.78125 74.21875 
Q 44.046875 74.21875 50.515625 64.515625 
Q 56.984375 54.828125 56.984375 36.375 
Q 56.984375 17.96875 50.515625 8.265625 
Q 44.046875 -1.421875 31.78125 -1.421875 
Q 19.53125 -1.421875 13.0625 8.265625 
Q 6.59375 17.96875 6.59375 36.375 
Q 6.59375 54.828125 13.0625 64.515625 
Q 19.53125 74.21875 31.78125 74.21875 
z
" id="DejaVuSans-30"/>
      </defs>
      <g transform="translate(209.637077 313.476875)scale(0.2 -0.2)">
       <use xlink:href="#DejaVuSans-30"/>
      </g>
     </g>
    </g>
    <g id="xtick_4">
     <g id="line2d_7">
      <path clip-path="url(#p2ba1d65d1a)" d="M 321.296244 291.28 
L 321.296244 5.52 
" style="fill:none;stroke:#b0b0b0;stroke-linecap:square;stroke-width:0.8;"/>
     </g>
     <g id="line2d_8">
      <g>
       <use style="stroke:#000000;stroke-width:0.8;" x="321.296244" xlink:href="#m237c8bbbd7" y="291.28"/>
      </g>
     </g>
     <g id="text_3">
      <!-- 4 -->
      <g transform="translate(314.933744 313.476875)scale(0.2 -0.2)">
       <use xlink:href="#DejaVuSans-34"/>
      </g>
     </g>
    </g>
    <g id="xtick_5">
     <g id="line2d_9">
      <path clip-path="url(#p2ba1d65d1a)" d="M 426.592911 291.28 
L 426.592911 5.52 
" style="fill:none;stroke:#b0b0b0;stroke-linecap:square;stroke-width:0.8;"/>
     </g>
     <g id="line2d_10">
      <g>
       <use style="stroke:#000000;stroke-width:0.8;" x="426.592911" xlink:href="#m237c8bbbd7" y="291.28"/>
      </g>
     </g>
     <g id="text_4">
      <!-- 8 -->
      <defs>
       <path d="M 31.78125 34.625 
Q 24.75 34.625 20.71875 30.859375 
Q 16.703125 27.09375 16.703125 20.515625 
Q 16.703125 13.921875 20.71875 10.15625 
Q 24.75 6.390625 31.78125 6.390625 
Q 38.8125 6.390625 42.859375 10.171875 
Q 46.921875 13.96875 46.921875 20.515625 
Q 46.921875 27.09375 42.890625 30.859375 
Q 38.875 34.625 31.78125 34.625 
z
M 21.921875 38.8125 
Q 15.578125 40.375 12.03125 44.71875 
Q 8.5 49.078125 8.5 55.328125 
Q 8.5 64.0625 14.71875 69.140625 
Q 20.953125 74.21875 31.78125 74.21875 
Q 42.671875 74.21875 48.875 69.140625 
Q 55.078125 64.0625 55.078125 55.328125 
Q 55.078125 49.078125 51.53125 44.71875 
Q 48 40.375 41.703125 38.8125 
Q 48.828125 37.15625 52.796875 32.3125 
Q 56.78125 27.484375 56.78125 20.515625 
Q 56.78125 9.90625 50.3125 4.234375 
Q 43.84375 -1.421875 31.78125 -1.421875 
Q 19.734375 -1.421875 13.25 4.234375 
Q 6.78125 9.90625 6.78125 20.515625 
Q 6.78125 27.484375 10.78125 32.3125 
Q 14.796875 37.15625 21.921875 38.8125 
z
M 18.3125 54.390625 
Q 18.3125 48.734375 21.84375 45.5625 
Q 25.390625 42.390625 31.78125 42.390625 
Q 38.140625 42.390625 41.71875 45.5625 
Q 45.3125 48.734375 45.3125 54.390625 
Q 45.3125 60.0625 41.71875 63.234375 
Q 38.140625 66.40625 31.78125 66.40625 
Q 25.390625 66.40625 21.84375 63.234375 
Q 18.3125 60.0625 18.3125 54.390625 
z
" id="DejaVuSans-38"/>
      </defs>
      <g transform="translate(420.230411 313.476875)scale(0.2 -0.2)">
       <use xlink:href="#DejaVuSans-38"/>
      </g>
     </g>
    </g>
    <g id="text_5">
     <!-- log10 of Df -->
     <defs>
      <path d="M 9.421875 75.984375 
L 18.40625 75.984375 
L 18.40625 0 
L 9.421875 0 
z
" id="DejaVuSans-6c"/>
      <path d="M 30.609375 48.390625 
Q 23.390625 48.390625 19.1875 42.75 
Q 14.984375 37.109375 14.984375 27.296875 
Q 14.984375 17.484375 19.15625 11.84375 
Q 23.34375 6.203125 30.609375 6.203125 
Q 37.796875 6.203125 41.984375 11.859375 
Q 46.1875 17.53125 46.1875 27.296875 
Q 46.1875 37.015625 41.984375 42.703125 
Q 37.796875 48.390625 30.609375 48.390625 
z
M 30.609375 56 
Q 42.328125 56 49.015625 48.375 
Q 55.71875 40.765625 55.71875 27.296875 
Q 55.71875 13.875 49.015625 6.21875 
Q 42.328125 -1.421875 30.609375 -1.421875 
Q 18.84375 -1.421875 12.171875 6.21875 
Q 5.515625 13.875 5.515625 27.296875 
Q 5.515625 40.765625 12.171875 48.375 
Q 18.84375 56 30.609375 56 
z
" id="DejaVuSans-6f"/>
      <path d="M 45.40625 27.984375 
Q 45.40625 37.75 41.375 43.109375 
Q 37.359375 48.484375 30.078125 48.484375 
Q 22.859375 48.484375 18.828125 43.109375 
Q 14.796875 37.75 14.796875 27.984375 
Q 14.796875 18.265625 18.828125 12.890625 
Q 22.859375 7.515625 30.078125 7.515625 
Q 37.359375 7.515625 41.375 12.890625 
Q 45.40625 18.265625 45.40625 27.984375 
z
M 54.390625 6.78125 
Q 54.390625 -7.171875 48.1875 -13.984375 
Q 42 -20.796875 29.203125 -20.796875 
Q 24.46875 -20.796875 20.265625 -20.09375 
Q 16.0625 -19.390625 12.109375 -17.921875 
L 12.109375 -9.1875 
Q 16.0625 -11.328125 19.921875 -12.34375 
Q 23.78125 -13.375 27.78125 -13.375 
Q 36.625 -13.375 41.015625 -8.765625 
Q 45.40625 -4.15625 45.40625 5.171875 
L 45.40625 9.625 
Q 42.625 4.78125 38.28125 2.390625 
Q 33.9375 0 27.875 0 
Q 17.828125 0 11.671875 7.65625 
Q 5.515625 15.328125 5.515625 27.984375 
Q 5.515625 40.671875 11.671875 48.328125 
Q 17.828125 56 27.875 56 
Q 33.9375 56 38.28125 53.609375 
Q 42.625 51.21875 45.40625 46.390625 
L 45.40625 54.6875 
L 54.390625 54.6875 
z
" id="DejaVuSans-67"/>
      <path d="M 12.40625 8.296875 
L 28.515625 8.296875 
L 28.515625 63.921875 
L 10.984375 60.40625 
L 10.984375 69.390625 
L 28.421875 72.90625 
L 38.28125 72.90625 
L 38.28125 8.296875 
L 54.390625 8.296875 
L 54.390625 0 
L 12.40625 0 
z
" id="DejaVuSans-31"/>
      <path id="DejaVuSans-20"/>
      <path d="M 37.109375 75.984375 
L 37.109375 68.5 
L 28.515625 68.5 
Q 23.6875 68.5 21.796875 66.546875 
Q 19.921875 64.59375 19.921875 59.515625 
L 19.921875 54.6875 
L 34.71875 54.6875 
L 34.71875 47.703125 
L 19.921875 47.703125 
L 19.921875 0 
L 10.890625 0 
L 10.890625 47.703125 
L 2.296875 47.703125 
L 2.296875 54.6875 
L 10.890625 54.6875 
L 10.890625 58.5 
Q 10.890625 67.625 15.140625 71.796875 
Q 19.390625 75.984375 28.609375 75.984375 
z
" id="DejaVuSans-66"/>
      <path d="M 19.671875 64.796875 
L 19.671875 8.109375 
L 31.59375 8.109375 
Q 46.6875 8.109375 53.6875 14.9375 
Q 60.6875 21.78125 60.6875 36.53125 
Q 60.6875 51.171875 53.6875 57.984375 
Q 46.6875 64.796875 31.59375 64.796875 
z
M 9.8125 72.90625 
L 30.078125 72.90625 
Q 51.265625 72.90625 61.171875 64.09375 
Q 71.09375 55.28125 71.09375 36.53125 
Q 71.09375 17.671875 61.125 8.828125 
Q 51.171875 0 30.078125 0 
L 9.8125 0 
z
" id="DejaVuSans-44"/>
     </defs>
     <g transform="translate(172.910063 336.833125)scale(0.2 -0.2)">
      <use xlink:href="#DejaVuSans-6c"/>
      <use x="27.783203" xlink:href="#DejaVuSans-6f"/>
      <use x="88.964844" xlink:href="#DejaVuSans-67"/>
      <use x="152.441406" xlink:href="#DejaVuSans-31"/>
      <use x="216.064453" xlink:href="#DejaVuSans-30"/>
      <use x="279.6875" xlink:href="#DejaVuSans-20"/>
      <use x="311.474609" xlink:href="#DejaVuSans-6f"/>
      <use x="372.65625" xlink:href="#DejaVuSans-66"/>
      <use x="407.861328" xlink:href="#DejaVuSans-20"/>
      <use x="439.648438" xlink:href="#DejaVuSans-44"/>
      <use x="516.650391" xlink:href="#DejaVuSans-66"/>
     </g>
    </g>
   </g>
   <g id="matplotlib.axis_2">
    <g id="ytick_1">
     <g id="line2d_11">
      <path clip-path="url(#p2ba1d65d1a)" d="M 5.52 291.28 
L 450.672 291.28 
" style="fill:none;stroke:#b0b0b0;stroke-linecap:square;stroke-width:0.8;"/>
     </g>
     <g id="line2d_12">
      <defs>
       <path d="M 0 0 
L -3.5 0 
" id="mf3644193e1" style="stroke:#000000;stroke-width:0.8;"/>
      </defs>
      <g>
       <use style="stroke:#000000;stroke-width:0.8;" x="5.52" xlink:href="#mf3644193e1" y="291.28"/>
      </g>
     </g>
    </g>
    <g id="ytick_2">
     <g id="line2d_13">
      <path clip-path="url(#p2ba1d65d1a)" d="M 5.52 234.693861 
L 450.672 234.693861 
" style="fill:none;stroke:#b0b0b0;stroke-linecap:square;stroke-width:0.8;"/>
     </g>
     <g id="line2d_14">
      <g>
       <use style="stroke:#000000;stroke-width:0.8;" x="5.52" xlink:href="#mf3644193e1" y="234.693861"/>
      </g>
     </g>
    </g>
    <g id="ytick_3">
     <g id="line2d_15">
      <path clip-path="url(#p2ba1d65d1a)" d="M 5.52 178.107723 
L 450.672 178.107723 
" style="fill:none;stroke:#b0b0b0;stroke-linecap:square;stroke-width:0.8;"/>
     </g>
     <g id="line2d_16">
      <g>
       <use style="stroke:#000000;stroke-width:0.8;" x="5.52" xlink:href="#mf3644193e1" y="178.107723"/>
      </g>
     </g>
    </g>
    <g id="ytick_4">
     <g id="line2d_17">
      <path clip-path="url(#p2ba1d65d1a)" d="M 5.52 121.521584 
L 450.672 121.521584 
" style="fill:none;stroke:#b0b0b0;stroke-linecap:square;stroke-width:0.8;"/>
     </g>
     <g id="line2d_18">
      <g>
       <use style="stroke:#000000;stroke-width:0.8;" x="5.52" xlink:href="#mf3644193e1" y="121.521584"/>
      </g>
     </g>
    </g>
    <g id="ytick_5">
     <g id="line2d_19">
      <path clip-path="url(#p2ba1d65d1a)" d="M 5.52 64.935446 
L 450.672 64.935446 
" style="fill:none;stroke:#b0b0b0;stroke-linecap:square;stroke-width:0.8;"/>
     </g>
     <g id="line2d_20">
      <g>
       <use style="stroke:#000000;stroke-width:0.8;" x="5.52" xlink:href="#mf3644193e1" y="64.935446"/>
      </g>
     </g>
    </g>
    <g id="ytick_6">
     <g id="line2d_21">
      <path clip-path="url(#p2ba1d65d1a)" d="M 5.52 8.349307 
L 450.672 8.349307 
" style="fill:none;stroke:#b0b0b0;stroke-linecap:square;stroke-width:0.8;"/>
     </g>
     <g id="line2d_22">
      <g>
       <use style="stroke:#000000;stroke-width:0.8;" x="5.52" xlink:href="#mf3644193e1" y="8.349307"/>
      </g>
     </g>
    </g>
   </g>
   <g id="line2d_23">
    <path clip-path="url(#p2ba1d65d1a)" d="M 232.976676 291.28 
L 232.976676 287.507591 
L 234.094061 287.507591 
L 234.094061 283.735182 
L 235.758832 283.735182 
L 235.758832 279.962772 
L 235.928525 279.962772 
L 235.928525 276.190363 
L 236.077033 276.190363 
L 236.077033 272.417954 
L 240.213788 272.417954 
L 240.213788 268.645545 
L 241.274119 268.645545 
L 241.274119 264.873135 
L 241.670349 264.873135 
L 241.670349 261.100726 
L 243.155005 261.100726 
L 243.155005 257.328317 
L 244.793041 257.328317 
L 244.793041 253.555908 
L 245.038324 253.555908 
L 245.126441 246.011089 
L 249.104599 246.011089 
L 249.104599 242.23868 
L 250.393369 242.23868 
L 250.393369 238.466271 
L 261.098489 238.466271 
L 261.098489 234.693861 
L 281.041248 234.693861 
L 281.041248 230.921452 
L 283.653362 230.921452 
L 283.653362 227.149043 
L 283.945904 227.149043 
L 283.945904 223.376634 
L 286.896391 223.376634 
L 286.896391 219.604224 
L 287.247203 219.604224 
L 287.247203 215.831815 
L 288.126923 215.831815 
L 288.21955 208.286997 
L 289.178594 208.286997 
L 289.178594 204.514587 
L 292.198734 204.514587 
L 292.198734 200.742178 
L 292.773855 200.742178 
L 292.773855 196.969769 
L 293.53048 196.969769 
L 293.53048 193.19736 
L 294.278034 193.19736 
L 294.278034 189.42495 
L 294.833956 189.42495 
L 294.833956 185.652541 
L 295.417089 185.652541 
L 295.509341 178.107723 
L 296.971478 178.107723 
L 297.058152 170.562904 
L 310.045592 170.562904 
L 310.045592 166.790495 
L 319.244428 166.790495 
L 319.244428 163.018086 
L 327.087245 163.018086 
L 327.087245 159.245677 
L 333.53845 159.245677 
L 333.53845 155.473267 
L 338.459684 155.473267 
L 338.459684 151.700858 
L 338.92627 151.700858 
L 338.92627 147.928449 
L 339.201 147.928449 
L 339.201 144.15604 
L 342.008307 144.15604 
L 342.008307 140.38363 
L 343.199253 140.38363 
L 343.209452 132.838812 
L 347.344726 132.838812 
L 347.344726 129.066403 
L 350.843755 129.066403 
L 350.843755 125.293993 
L 356.442417 125.293993 
L 356.442417 121.521584 
L 356.840576 121.521584 
L 356.840576 117.749175 
L 359.029774 117.749175 
L 359.029774 113.976766 
L 359.943029 113.976766 
L 359.943029 110.204356 
L 360.084438 110.204356 
L 360.084438 106.431947 
L 360.625502 106.431947 
L 360.625502 102.659538 
L 364.428196 102.659538 
L 364.428196 98.887129 
L 365.459572 98.887129 
L 365.459572 95.114719 
L 370.06428 95.114719 
L 370.06428 91.34231 
L 379.005914 91.34231 
L 379.005914 87.569901 
L 380.279906 87.569901 
L 380.279906 83.797492 
L 380.398503 83.797492 
L 380.398503 80.025083 
L 381.366063 80.025083 
L 381.366063 76.252673 
L 384.418937 76.252673 
L 384.418937 72.480264 
L 387.476715 72.480264 
L 387.476715 68.707855 
L 391.980784 68.707855 
L 391.980784 64.935446 
L 394.268682 64.935446 
L 394.268682 61.163036 
L 395.202095 61.163036 
L 395.202095 57.390627 
L 396.664186 57.390627 
L 396.664186 53.618218 
L 397.699657 53.618218 
L 397.699657 49.845809 
L 398.498453 49.845809 
L 398.498453 46.073399 
L 399.293839 46.073399 
L 399.293839 42.30099 
L 400.02956 42.30099 
L 400.02956 38.528581 
L 403.577689 38.528581 
L 403.577689 34.756172 
L 406.112321 34.756172 
L 406.112321 30.983762 
L 407.870776 30.983762 
L 407.870776 27.211353 
L 408.582339 27.211353 
L 408.582339 23.438944 
L 409.786918 23.438944 
L 409.786918 19.666535 
L 410.688196 19.666535 
L 410.688196 15.894125 
L 413.834132 15.894125 
L 413.834132 12.121716 
L 427.236474 12.121716 
L 427.236474 8.349307 
L 427.236474 8.349307 
L 450.672 8.349307 
L 450.672 8.349307 
" style="fill:none;stroke:#ff0000;stroke-linecap:square;stroke-width:3;"/>
   </g>
   <g id="line2d_24">
    <path clip-path="url(#p2ba1d65d1a)" d="M 232.976676 291.28 
L 232.976676 287.507591 
L 235.758832 287.507591 
L 235.758832 283.735182 
L 235.928525 283.735182 
L 235.928525 279.962772 
L 236.077033 279.962772 
L 236.077033 276.190363 
L 241.670349 276.190363 
L 241.670349 272.417954 
L 243.155005 272.417954 
L 243.155005 268.645545 
L 251.471769 268.645545 
L 251.471769 264.873135 
L 252.407578 264.873135 
L 252.407578 261.100726 
L 253.104986 261.100726 
L 253.104986 257.328317 
L 253.288109 257.328317 
L 253.288109 253.555908 
L 255.301061 253.555908 
L 255.301061 249.783498 
L 260.655351 249.783498 
L 260.655351 246.011089 
L 263.117742 246.011089 
L 263.117742 242.23868 
L 263.484286 242.23868 
L 263.484286 238.466271 
L 267.688058 238.466271 
L 267.688058 234.693861 
L 283.653362 234.693861 
L 283.653362 230.921452 
L 283.945904 230.921452 
L 283.945904 227.149043 
L 287.247203 227.149043 
L 287.247203 223.376634 
L 288.126923 223.376634 
L 288.126923 219.604224 
L 292.198734 219.604224 
L 292.198734 215.831815 
L 292.773855 215.831815 
L 292.773855 212.059406 
L 293.002165 212.059406 
L 293.002165 208.286997 
L 293.624705 208.286997 
L 293.624705 204.514587 
L 295.279006 204.514587 
L 295.279006 200.742178 
L 295.509341 200.742178 
L 295.518076 193.19736 
L 296.736305 193.19736 
L 296.736305 189.42495 
L 297.551793 189.42495 
L 297.551793 185.652541 
L 297.681578 185.652541 
L 297.681578 181.880132 
L 298.154648 181.880132 
L 298.154648 178.107723 
L 302.396669 178.107723 
L 302.396669 174.335314 
L 333.53845 174.335314 
L 333.53845 170.562904 
L 337.577842 170.562904 
L 337.577842 166.790495 
L 339.201 166.790495 
L 339.201 163.018086 
L 347.344726 163.018086 
L 347.344726 159.245677 
L 350.843755 159.245677 
L 350.843755 155.473267 
L 356.442417 155.473267 
L 356.442417 151.700858 
L 359.943029 151.700858 
L 359.943029 147.928449 
L 364.901427 147.928449 
L 364.901427 144.15604 
L 366.009616 144.15604 
L 366.009616 140.38363 
L 367.406801 140.38363 
L 367.406801 136.611221 
L 368.366658 136.611221 
L 368.366658 132.838812 
L 376.526848 132.838812 
L 376.526848 129.066403 
L 380.279906 129.066403 
L 380.279906 125.293993 
L 381.431778 125.293993 
L 381.498131 117.749175 
L 383.723826 117.749175 
L 383.723826 113.976766 
L 384.418937 113.976766 
L 384.418937 110.204356 
L 385.459813 110.204356 
L 385.459813 106.431947 
L 386.100828 106.431947 
L 386.100828 102.659538 
L 388.050079 102.659538 
L 388.050079 98.887129 
L 388.657801 98.887129 
L 388.702656 91.34231 
L 391.977699 91.34231 
L 391.977699 87.569901 
L 394.268682 87.569901 
L 394.268682 83.797492 
L 394.498894 83.797492 
L 394.498894 80.025083 
L 396.928962 80.025083 
L 396.928962 76.252673 
L 397.660873 76.252673 
L 397.660873 72.480264 
L 399.248497 72.480264 
L 399.248497 68.707855 
L 400.447427 68.707855 
L 400.447427 64.935446 
L 404.533067 64.935446 
L 404.533067 61.163036 
L 405.786642 61.163036 
L 405.786642 57.390627 
L 405.952129 57.390627 
L 405.952129 53.618218 
L 406.352423 53.618218 
L 406.352423 49.845809 
L 408.876825 49.845809 
L 408.876825 46.073399 
L 410.688196 46.073399 
L 410.688196 42.30099 
L 413.834132 42.30099 
L 413.834132 38.528581 
L 414.87476 38.528581 
L 414.87476 34.756172 
L 419.062138 34.756172 
L 419.062138 30.983762 
L 420.251865 30.983762 
L 420.251865 27.211353 
L 420.71898 27.211353 
L 420.71898 23.438944 
L 421.32923 23.438944 
L 421.32923 19.666535 
L 426.789393 19.666535 
L 426.789393 15.894125 
L 431.400545 15.894125 
L 431.400545 12.121716 
L 438.743235 12.121716 
L 438.743235 8.349307 
L 438.743235 8.349307 
L 450.672 8.349307 
L 450.672 8.349307 
" style="fill:none;stroke:#00bfbf;stroke-linecap:square;stroke-width:1.5;"/>
   </g>
   <g id="line2d_25">
    <path clip-path="url(#p2ba1d65d1a)" d="M 232.976676 291.28 
L 232.976676 287.507591 
L 234.094061 287.507591 
L 234.094061 283.735182 
L 235.758832 283.735182 
L 235.758832 279.962772 
L 235.928525 279.962772 
L 235.928525 276.190363 
L 236.077033 276.190363 
L 236.077033 272.417954 
L 240.213788 272.417954 
L 240.213788 268.645545 
L 241.274119 268.645545 
L 241.274119 264.873135 
L 241.670349 264.873135 
L 241.670349 261.100726 
L 243.155005 261.100726 
L 243.155005 257.328317 
L 244.793041 257.328317 
L 244.793041 253.555908 
L 245.126441 253.555908 
L 245.126441 249.783498 
L 250.393369 249.783498 
L 250.393369 246.011089 
L 255.301061 246.011089 
L 255.301061 242.23868 
L 261.098489 242.23868 
L 261.098489 238.466271 
L 267.688058 238.466271 
L 267.688058 234.693861 
L 283.653362 234.693861 
L 283.653362 230.921452 
L 283.945904 230.921452 
L 283.945904 227.149043 
L 287.247203 227.149043 
L 287.247203 223.376634 
L 288.126923 223.376634 
L 288.21955 215.831815 
L 291.139051 215.831815 
L 291.139051 212.059406 
L 292.198734 212.059406 
L 292.198734 208.286997 
L 292.773855 208.286997 
L 292.773855 204.514587 
L 293.624705 204.514587 
L 293.624705 200.742178 
L 294.278034 200.742178 
L 294.278034 196.969769 
L 294.833956 196.969769 
L 294.833956 193.19736 
L 295.509341 193.19736 
L 295.509341 189.42495 
L 296.228553 189.42495 
L 296.228553 185.652541 
L 297.058152 185.652541 
L 297.058152 181.880132 
L 297.551793 181.880132 
L 297.551793 178.107723 
L 297.681578 178.107723 
L 297.681578 174.335314 
L 333.53845 174.335314 
L 333.53845 170.562904 
L 337.577842 170.562904 
L 337.577842 166.790495 
L 339.201 166.790495 
L 339.201 163.018086 
L 342.008307 163.018086 
L 342.008307 159.245677 
L 343.209452 159.245677 
L 343.209452 155.473267 
L 347.344726 155.473267 
L 347.344726 151.700858 
L 349.321019 151.700858 
L 349.321019 147.928449 
L 350.63764 147.928449 
L 350.63764 144.15604 
L 350.843755 144.15604 
L 350.843755 140.38363 
L 356.442417 140.38363 
L 356.442417 136.611221 
L 359.029774 136.611221 
L 359.029774 132.838812 
L 359.943029 132.838812 
L 359.943029 129.066403 
L 360.084438 129.066403 
L 360.084438 125.293993 
L 364.654137 125.293993 
L 364.654137 121.521584 
L 367.406801 121.521584 
L 367.406801 117.749175 
L 368.087922 117.749175 
L 368.087922 113.976766 
L 377.136739 113.976766 
L 377.136739 110.204356 
L 380.279906 110.204356 
L 380.279906 106.431947 
L 380.398503 106.431947 
L 380.398503 102.659538 
L 381.366063 102.659538 
L 381.366063 98.887129 
L 382.119655 98.887129 
L 382.119655 95.114719 
L 384.247244 95.114719 
L 384.247244 91.34231 
L 384.418937 91.34231 
L 384.418937 87.569901 
L 386.220015 87.569901 
L 386.220015 83.797492 
L 388.050079 83.797492 
L 388.050079 80.025083 
L 388.702656 80.025083 
L 388.702656 76.252673 
L 391.980784 76.252673 
L 391.980784 72.480264 
L 394.135267 72.480264 
L 394.135267 68.707855 
L 394.268682 68.707855 
L 394.268682 64.935446 
L 394.878066 64.935446 
L 394.878066 61.163036 
L 395.202095 61.163036 
L 395.202095 57.390627 
L 396.664186 57.390627 
L 396.664186 53.618218 
L 398.498453 53.618218 
L 398.498453 49.845809 
L 399.248497 49.845809 
L 399.248497 46.073399 
L 403.577689 46.073399 
L 403.577689 42.30099 
L 404.343085 42.30099 
L 404.343085 38.528581 
L 406.112321 38.528581 
L 406.112321 34.756172 
L 407.870776 34.756172 
L 407.870776 30.983762 
L 409.099273 30.983762 
L 409.099273 27.211353 
L 410.688196 27.211353 
L 410.688196 23.438944 
L 411.030802 23.438944 
L 411.030802 19.666535 
L 413.834132 19.666535 
L 413.834132 15.894125 
L 414.87476 15.894125 
L 414.87476 12.121716 
L 429.852075 12.121716 
L 429.852075 8.349307 
L 429.852075 8.349307 
L 450.672 8.349307 
L 450.672 8.349307 
" style="fill:none;stroke:#bf00bf;stroke-linecap:square;stroke-width:1.5;"/>
   </g>
   <g id="patch_3">
    <path d="M 5.52 291.28 
L 5.52 5.52 
" style="fill:none;stroke:#000000;stroke-linecap:square;stroke-linejoin:miter;stroke-width:0.8;"/>
   </g>
   <g id="patch_4">
    <path d="M 450.672 291.28 
L 450.672 5.52 
" style="fill:none;stroke:#000000;stroke-linecap:square;stroke-linejoin:miter;stroke-width:0.8;"/>
   </g>
   <g id="patch_5">
    <path d="M 5.52 291.28 
L 450.672 291.28 
" style="fill:none;stroke:#000000;stroke-linecap:square;stroke-linejoin:miter;stroke-width:0.8;"/>
   </g>
   <g id="patch_6">
    <path d="M 5.52 5.52 
L 450.672 5.52 
" style="fill:none;stroke:#000000;stroke-linecap:square;stroke-linejoin:miter;stroke-width:0.8;"/>
   </g>
   <g id="text_6">
    <!-- {f10-f14}, 5-D -->
    <defs>
     <path d="M 51.125 -9.28125 
L 51.125 -16.3125 
L 48.09375 -16.3125 
Q 35.9375 -16.3125 31.8125 -12.6875 
Q 27.6875 -9.078125 27.6875 1.703125 
L 27.6875 13.375 
Q 27.6875 20.75 25.046875 23.578125 
Q 22.40625 26.421875 15.484375 26.421875 
L 12.5 26.421875 
L 12.5 33.40625 
L 15.484375 33.40625 
Q 22.46875 33.40625 25.078125 36.203125 
Q 27.6875 39.015625 27.6875 46.296875 
L 27.6875 58.015625 
Q 27.6875 68.796875 31.8125 72.390625 
Q 35.9375 75.984375 48.09375 75.984375 
L 51.125 75.984375 
L 51.125 69 
L 47.796875 69 
Q 40.921875 69 38.8125 66.84375 
Q 36.71875 64.703125 36.71875 57.8125 
L 36.71875 45.703125 
Q 36.71875 38.03125 34.5 34.5625 
Q 32.28125 31.109375 26.90625 29.890625 
Q 32.328125 28.5625 34.515625 25.09375 
Q 36.71875 21.625 36.71875 14.015625 
L 36.71875 1.90625 
Q 36.71875 -4.984375 38.8125 -7.125 
Q 40.921875 -9.28125 47.796875 -9.28125 
z
" id="DejaVuSans-7b"/>
     <path d="M 12.5 -9.28125 
L 15.921875 -9.28125 
Q 22.75 -9.28125 24.828125 -7.171875 
Q 26.90625 -5.078125 26.90625 1.90625 
L 26.90625 14.015625 
Q 26.90625 21.625 29.09375 25.09375 
Q 31.296875 28.5625 36.71875 29.890625 
Q 31.296875 31.109375 29.09375 34.5625 
Q 26.90625 38.03125 26.90625 45.703125 
L 26.90625 57.8125 
Q 26.90625 64.75 24.828125 66.875 
Q 22.75 69 15.921875 69 
L 12.5 69 
L 12.5 75.984375 
L 15.578125 75.984375 
Q 27.734375 75.984375 31.8125 72.390625 
Q 35.890625 68.796875 35.890625 58.015625 
L 35.890625 46.296875 
Q 35.890625 39.015625 38.515625 36.203125 
Q 41.15625 33.40625 48.09375 33.40625 
L 51.125 33.40625 
L 51.125 26.421875 
L 48.09375 26.421875 
Q 41.15625 26.421875 38.515625 23.578125 
Q 35.890625 20.75 35.890625 13.375 
L 35.890625 1.703125 
Q 35.890625 -9.078125 31.8125 -12.6875 
Q 27.734375 -16.3125 15.578125 -16.3125 
L 12.5 -16.3125 
z
" id="DejaVuSans-7d"/>
     <path d="M 11.71875 12.40625 
L 22.015625 12.40625 
L 22.015625 4 
L 14.015625 -11.625 
L 7.71875 -11.625 
L 11.71875 4 
z
" id="DejaVuSans-2c"/>
     <path d="M 10.796875 72.90625 
L 49.515625 72.90625 
L 49.515625 64.59375 
L 19.828125 64.59375 
L 19.828125 46.734375 
Q 21.96875 47.46875 24.109375 47.828125 
Q 26.265625 48.1875 28.421875 48.1875 
Q 40.625 48.1875 47.75 41.5 
Q 54.890625 34.8125 54.890625 23.390625 
Q 54.890625 11.625 47.5625 5.09375 
Q 40.234375 -1.421875 26.90625 -1.421875 
Q 22.3125 -1.421875 17.546875 -0.640625 
Q 12.796875 0.140625 7.71875 1.703125 
L 7.71875 11.625 
Q 12.109375 9.234375 16.796875 8.0625 
Q 21.484375 6.890625 26.703125 6.890625 
Q 35.15625 6.890625 40.078125 11.328125 
Q 45.015625 15.765625 45.015625 23.390625 
Q 45.015625 31 40.078125 35.4375 
Q 35.15625 39.890625 26.703125 39.890625 
Q 22.75 39.890625 18.8125 39.015625 
Q 14.890625 38.140625 10.796875 36.28125 
z
" id="DejaVuSans-35"/>
    </defs>
    <g transform="translate(296.06896 285.5648)scale(0.2 -0.2)">
     <use xlink:href="#DejaVuSans-7b"/>
     <use x="63.623047" xlink:href="#DejaVuSans-66"/>
     <use x="98.828125" xlink:href="#DejaVuSans-31"/>
     <use x="162.451172" xlink:href="#DejaVuSans-30"/>
     <use x="226.074219" xlink:href="#DejaVuSans-2d"/>
     <use x="262.158203" xlink:href="#DejaVuSans-66"/>
     <use x="297.363281" xlink:href="#DejaVuSans-31"/>
     <use x="360.986328" xlink:href="#DejaVuSans-34"/>
     <use x="424.609375" xlink:href="#DejaVuSans-7d"/>
     <use x="488.232422" xlink:href="#DejaVuSans-2c"/>
     <use x="520.019531" xlink:href="#DejaVuSans-20"/>
     <use x="551.806641" xlink:href="#DejaVuSans-35"/>
     <use x="615.429688" xlink:href="#DejaVuSans-2d"/>
     <use x="651.513672" xlink:href="#DejaVuSans-44"/>
    </g>
   </g>
   <g id="text_7">
    <!-- v2.2.1.10 -->
    <defs>
     <path d="M 2.984375 54.6875 
L 12.5 54.6875 
L 29.59375 8.796875 
L 46.6875 54.6875 
L 56.203125 54.6875 
L 35.6875 0 
L 23.484375 0 
z
" id="DejaVuSans-76"/>
     <path d="M 19.1875 8.296875 
L 53.609375 8.296875 
L 53.609375 0 
L 7.328125 0 
L 7.328125 8.296875 
Q 12.9375 14.109375 22.625 23.890625 
Q 32.328125 33.6875 34.8125 36.53125 
Q 39.546875 41.84375 41.421875 45.53125 
Q 43.3125 49.21875 43.3125 52.78125 
Q 43.3125 58.59375 39.234375 62.25 
Q 35.15625 65.921875 28.609375 65.921875 
Q 23.96875 65.921875 18.8125 64.3125 
Q 13.671875 62.703125 7.8125 59.421875 
L 7.8125 69.390625 
Q 13.765625 71.78125 18.9375 73 
Q 24.125 74.21875 28.421875 74.21875 
Q 39.75 74.21875 46.484375 68.546875 
Q 53.21875 62.890625 53.21875 53.421875 
Q 53.21875 48.921875 51.53125 44.890625 
Q 49.859375 40.875 45.40625 35.40625 
Q 44.1875 33.984375 37.640625 27.21875 
Q 31.109375 20.453125 19.1875 8.296875 
z
" id="DejaVuSans-32"/>
     <path d="M 10.6875 12.40625 
L 21 12.40625 
L 21 0 
L 10.6875 0 
z
" id="DejaVuSans-2e"/>
    </defs>
    <g style="fill:#808080;" transform="translate(204.463188 286.342713)scale(0.1 -0.1)">
     <use xlink:href="#DejaVuSans-76"/>
     <use x="59.179688" xlink:href="#DejaVuSans-32"/>
     <use x="122.802734" xlink:href="#DejaVuSans-2e"/>
     <use x="154.589844" xlink:href="#DejaVuSans-32"/>
     <use x="218.212891" xlink:href="#DejaVuSans-2e"/>
     <use x="250" xlink:href="#DejaVuSans-31"/>
     <use x="313.623047" xlink:href="#DejaVuSans-2e"/>
     <use x="345.410156" xlink:href="#DejaVuSans-31"/>
     <use x="409.033203" xlink:href="#DejaVuSans-30"/>
    </g>
   </g>
  </g>
 </g>
 <defs>
  <clipPath id="p2ba1d65d1a">
   <rect height="285.76" width="445.152" x="5.52" y="5.52"/>
  </clipPath>
 </defs>
</svg>
