<?xml version="1.0" encoding="utf-8" standalone="no"?>
<!DOCTYPE svg PUBLIC "-//W3C//DTD SVG 1.1//EN"
  "http://www.w3.org/Graphics/SVG/1.1/DTD/svg11.dtd">
<!-- Created with matplotlib (http://matplotlib.org/) -->
<svg height="345.6pt" version="1.1" viewBox="0 0 460.8 345.6" width="460.8pt" xmlns="http://www.w3.org/2000/svg" xmlns:xlink="http://www.w3.org/1999/xlink">
 <defs>
  <style type="text/css">
*{stroke-linecap:butt;stroke-linejoin:round;}
  </style>
 </defs>
 <g id="figure_1">
  <g id="patch_1">
   <path d="M 0 345.6 
L 460.8 345.6 
L 460.8 0 
L 0 0 
z
" style="fill:#ffffff;"/>
  </g>
  <g id="axes_1">
   <g id="patch_2">
    <path d="M 56.12 294.88 
L 399.984 294.88 
L 399.984 6.845228 
L 56.12 6.845228 
z
" style="fill:#ffffff;"/>
   </g>
   <g id="matplotlib.axis_1">
    <g id="xtick_1">
     <g id="line2d_1">
      <path clip-path="url(#pb53fa197d5)" d="M 56.12 294.88 
L 56.12 6.845228 
" style="fill:none;stroke:#b0b0b0;stroke-linecap:square;stroke-width:0.8;"/>
     </g>
     <g id="line2d_2">
      <defs>
       <path d="M 0 0 
L 0 3.5 
" id="m9b13699d0c" style="stroke:#000000;stroke-width:0.8;"/>
      </defs>
      <g>
       <use style="stroke:#000000;stroke-width:0.8;" x="56.12" xlink:href="#m9b13699d0c" y="294.88"/>
      </g>
     </g>
     <g id="text_1">
      <!-- 0 -->
      <defs>
       <path d="M 31.78125 66.40625 
Q 24.171875 66.40625 20.328125 58.90625 
Q 16.5 51.421875 16.5 36.375 
Q 16.5 21.390625 20.328125 13.890625 
Q 24.171875 6.390625 31.78125 6.390625 
Q 39.453125 6.390625 43.28125 13.890625 
Q 47.125 21.390625 47.125 36.375 
Q 47.125 51.421875 43.28125 58.90625 
Q 39.453125 66.40625 31.78125 66.40625 
z
M 31.78125 74.21875 
Q 44.046875 74.21875 50.515625 64.515625 
Q 56.984375 54.828125 56.984375 36.375 
Q 56.984375 17.96875 50.515625 8.265625 
Q 44.046875 -1.421875 31.78125 -1.421875 
Q 19.53125 -1.421875 13.0625 8.265625 
Q 6.59375 17.96875 6.59375 36.375 
Q 6.59375 54.828125 13.0625 64.515625 
Q 19.53125 74.21875 31.78125 74.21875 
z
" id="DejaVuSans-30"/>
      </defs>
      <g transform="translate(49.7575 317.076875)scale(0.2 -0.2)">
       <use xlink:href="#DejaVuSans-30"/>
      </g>
     </g>
    </g>
    <g id="xtick_2">
     <g id="line2d_3">
      <path clip-path="url(#pb53fa197d5)" d="M 135.351336 294.88 
L 135.351336 6.845228 
" style="fill:none;stroke:#b0b0b0;stroke-linecap:square;stroke-width:0.8;"/>
     </g>
     <g id="line2d_4">
      <g>
       <use style="stroke:#000000;stroke-width:0.8;" x="135.351336" xlink:href="#m9b13699d0c" y="294.88"/>
      </g>
     </g>
     <g id="text_2">
      <!-- 2 -->
      <defs>
       <path d="M 19.1875 8.296875 
L 53.609375 8.296875 
L 53.609375 0 
L 7.328125 0 
L 7.328125 8.296875 
Q 12.9375 14.109375 22.625 23.890625 
Q 32.328125 33.6875 34.8125 36.53125 
Q 39.546875 41.84375 41.421875 45.53125 
Q 43.3125 49.21875 43.3125 52.78125 
Q 43.3125 58.59375 39.234375 62.25 
Q 35.15625 65.921875 28.609375 65.921875 
Q 23.96875 65.921875 18.8125 64.3125 
Q 13.671875 62.703125 7.8125 59.421875 
L 7.8125 69.390625 
Q 13.765625 71.78125 18.9375 73 
Q 24.125 74.21875 28.421875 74.21875 
Q 39.75 74.21875 46.484375 68.546875 
Q 53.21875 62.890625 53.21875 53.421875 
Q 53.21875 48.921875 51.53125 44.890625 
Q 49.859375 40.875 45.40625 35.40625 
Q 44.1875 33.984375 37.640625 27.21875 
Q 31.109375 20.453125 19.1875 8.296875 
z
" id="DejaVuSans-32"/>
      </defs>
      <g transform="translate(128.988836 317.076875)scale(0.2 -0.2)">
       <use xlink:href="#DejaVuSans-32"/>
      </g>
     </g>
    </g>
    <g id="xtick_3">
     <g id="line2d_5">
      <path clip-path="url(#pb53fa197d5)" d="M 214.582673 294.88 
L 214.582673 6.845228 
" style="fill:none;stroke:#b0b0b0;stroke-linecap:square;stroke-width:0.8;"/>
     </g>
     <g id="line2d_6">
      <g>
       <use style="stroke:#000000;stroke-width:0.8;" x="214.582673" xlink:href="#m9b13699d0c" y="294.88"/>
      </g>
     </g>
     <g id="text_3">
      <!-- 4 -->
      <defs>
       <path d="M 37.796875 64.3125 
L 12.890625 25.390625 
L 37.796875 25.390625 
z
M 35.203125 72.90625 
L 47.609375 72.90625 
L 47.609375 25.390625 
L 58.015625 25.390625 
L 58.015625 17.1875 
L 47.609375 17.1875 
L 47.609375 0 
L 37.796875 0 
L 37.796875 17.1875 
L 4.890625 17.1875 
L 4.890625 26.703125 
z
" id="DejaVuSans-34"/>
      </defs>
      <g transform="translate(208.220173 317.076875)scale(0.2 -0.2)">
       <use xlink:href="#DejaVuSans-34"/>
      </g>
     </g>
    </g>
    <g id="xtick_4">
     <g id="line2d_7">
      <path clip-path="url(#pb53fa197d5)" d="M 293.814009 294.88 
L 293.814009 6.845228 
" style="fill:none;stroke:#b0b0b0;stroke-linecap:square;stroke-width:0.8;"/>
     </g>
     <g id="line2d_8">
      <g>
       <use style="stroke:#000000;stroke-width:0.8;" x="293.814009" xlink:href="#m9b13699d0c" y="294.88"/>
      </g>
     </g>
     <g id="text_4">
      <!-- 6 -->
      <defs>
       <path d="M 33.015625 40.375 
Q 26.375 40.375 22.484375 35.828125 
Q 18.609375 31.296875 18.609375 23.390625 
Q 18.609375 15.53125 22.484375 10.953125 
Q 26.375 6.390625 33.015625 6.390625 
Q 39.65625 6.390625 43.53125 10.953125 
Q 47.40625 15.53125 47.40625 23.390625 
Q 47.40625 31.296875 43.53125 35.828125 
Q 39.65625 40.375 33.015625 40.375 
z
M 52.59375 71.296875 
L 52.59375 62.3125 
Q 48.875 64.0625 45.09375 64.984375 
Q 41.3125 65.921875 37.59375 65.921875 
Q 27.828125 65.921875 22.671875 59.328125 
Q 17.53125 52.734375 16.796875 39.40625 
Q 19.671875 43.65625 24.015625 45.921875 
Q 28.375 48.1875 33.59375 48.1875 
Q 44.578125 48.1875 50.953125 41.515625 
Q 57.328125 34.859375 57.328125 23.390625 
Q 57.328125 12.15625 50.6875 5.359375 
Q 44.046875 -1.421875 33.015625 -1.421875 
Q 20.359375 -1.421875 13.671875 8.265625 
Q 6.984375 17.96875 6.984375 36.375 
Q 6.984375 53.65625 15.1875 63.9375 
Q 23.390625 74.21875 37.203125 74.21875 
Q 40.921875 74.21875 44.703125 73.484375 
Q 48.484375 72.75 52.59375 71.296875 
z
" id="DejaVuSans-36"/>
      </defs>
      <g transform="translate(287.451509 317.076875)scale(0.2 -0.2)">
       <use xlink:href="#DejaVuSans-36"/>
      </g>
     </g>
    </g>
    <g id="xtick_5">
     <g id="line2d_9">
      <path clip-path="url(#pb53fa197d5)" d="M 373.045346 294.88 
L 373.045346 6.845228 
" style="fill:none;stroke:#b0b0b0;stroke-linecap:square;stroke-width:0.8;"/>
     </g>
     <g id="line2d_10">
      <g>
       <use style="stroke:#000000;stroke-width:0.8;" x="373.045346" xlink:href="#m9b13699d0c" y="294.88"/>
      </g>
     </g>
     <g id="text_5">
      <!-- 8 -->
      <defs>
       <path d="M 31.78125 34.625 
Q 24.75 34.625 20.71875 30.859375 
Q 16.703125 27.09375 16.703125 20.515625 
Q 16.703125 13.921875 20.71875 10.15625 
Q 24.75 6.390625 31.78125 6.390625 
Q 38.8125 6.390625 42.859375 10.171875 
Q 46.921875 13.96875 46.921875 20.515625 
Q 46.921875 27.09375 42.890625 30.859375 
Q 38.875 34.625 31.78125 34.625 
z
M 21.921875 38.8125 
Q 15.578125 40.375 12.03125 44.71875 
Q 8.5 49.078125 8.5 55.328125 
Q 8.5 64.0625 14.71875 69.140625 
Q 20.953125 74.21875 31.78125 74.21875 
Q 42.671875 74.21875 48.875 69.140625 
Q 55.078125 64.0625 55.078125 55.328125 
Q 55.078125 49.078125 51.53125 44.71875 
Q 48 40.375 41.703125 38.8125 
Q 48.828125 37.15625 52.796875 32.3125 
Q 56.78125 27.484375 56.78125 20.515625 
Q 56.78125 9.90625 50.3125 4.234375 
Q 43.84375 -1.421875 31.78125 -1.421875 
Q 19.734375 -1.421875 13.25 4.234375 
Q 6.78125 9.90625 6.78125 20.515625 
Q 6.78125 27.484375 10.78125 32.3125 
Q 14.796875 37.15625 21.921875 38.8125 
z
M 18.3125 54.390625 
Q 18.3125 48.734375 21.84375 45.5625 
Q 25.390625 42.390625 31.78125 42.390625 
Q 38.140625 42.390625 41.71875 45.5625 
Q 45.3125 48.734375 45.3125 54.390625 
Q 45.3125 60.0625 41.71875 63.234375 
Q 38.140625 66.40625 31.78125 66.40625 
Q 25.390625 66.40625 21.84375 63.234375 
Q 18.3125 60.0625 18.3125 54.390625 
z
" id="DejaVuSans-38"/>
      </defs>
      <g transform="translate(366.682846 317.076875)scale(0.2 -0.2)">
       <use xlink:href="#DejaVuSans-38"/>
      </g>
     </g>
    </g>
    <g id="text_6">
     <!-- log10(# f-evals / dimension) -->
     <defs>
      <path d="M 9.421875 75.984375 
L 18.40625 75.984375 
L 18.40625 0 
L 9.421875 0 
z
" id="DejaVuSans-6c"/>
      <path d="M 30.609375 48.390625 
Q 23.390625 48.390625 19.1875 42.75 
Q 14.984375 37.109375 14.984375 27.296875 
Q 14.984375 17.484375 19.15625 11.84375 
Q 23.34375 6.203125 30.609375 6.203125 
Q 37.796875 6.203125 41.984375 11.859375 
Q 46.1875 17.53125 46.1875 27.296875 
Q 46.1875 37.015625 41.984375 42.703125 
Q 37.796875 48.390625 30.609375 48.390625 
z
M 30.609375 56 
Q 42.328125 56 49.015625 48.375 
Q 55.71875 40.765625 55.71875 27.296875 
Q 55.71875 13.875 49.015625 6.21875 
Q 42.328125 -1.421875 30.609375 -1.421875 
Q 18.84375 -1.421875 12.171875 6.21875 
Q 5.515625 13.875 5.515625 27.296875 
Q 5.515625 40.765625 12.171875 48.375 
Q 18.84375 56 30.609375 56 
z
" id="DejaVuSans-6f"/>
      <path d="M 45.40625 27.984375 
Q 45.40625 37.75 41.375 43.109375 
Q 37.359375 48.484375 30.078125 48.484375 
Q 22.859375 48.484375 18.828125 43.109375 
Q 14.796875 37.75 14.796875 27.984375 
Q 14.796875 18.265625 18.828125 12.890625 
Q 22.859375 7.515625 30.078125 7.515625 
Q 37.359375 7.515625 41.375 12.890625 
Q 45.40625 18.265625 45.40625 27.984375 
z
M 54.390625 6.78125 
Q 54.390625 -7.171875 48.1875 -13.984375 
Q 42 -20.796875 29.203125 -20.796875 
Q 24.46875 -20.796875 20.265625 -20.09375 
Q 16.0625 -19.390625 12.109375 -17.921875 
L 12.109375 -9.1875 
Q 16.0625 -11.328125 19.921875 -12.34375 
Q 23.78125 -13.375 27.78125 -13.375 
Q 36.625 -13.375 41.015625 -8.765625 
Q 45.40625 -4.15625 45.40625 5.171875 
L 45.40625 9.625 
Q 42.625 4.78125 38.28125 2.390625 
Q 33.9375 0 27.875 0 
Q 17.828125 0 11.671875 7.65625 
Q 5.515625 15.328125 5.515625 27.984375 
Q 5.515625 40.671875 11.671875 48.328125 
Q 17.828125 56 27.875 56 
Q 33.9375 56 38.28125 53.609375 
Q 42.625 51.21875 45.40625 46.390625 
L 45.40625 54.6875 
L 54.390625 54.6875 
z
" id="DejaVuSans-67"/>
      <path d="M 12.40625 8.296875 
L 28.515625 8.296875 
L 28.515625 63.921875 
L 10.984375 60.40625 
L 10.984375 69.390625 
L 28.421875 72.90625 
L 38.28125 72.90625 
L 38.28125 8.296875 
L 54.390625 8.296875 
L 54.390625 0 
L 12.40625 0 
z
" id="DejaVuSans-31"/>
      <path d="M 31 75.875 
Q 24.46875 64.65625 21.28125 53.65625 
Q 18.109375 42.671875 18.109375 31.390625 
Q 18.109375 20.125 21.3125 9.0625 
Q 24.515625 -2 31 -13.1875 
L 23.1875 -13.1875 
Q 15.875 -1.703125 12.234375 9.375 
Q 8.59375 20.453125 8.59375 31.390625 
Q 8.59375 42.28125 12.203125 53.3125 
Q 15.828125 64.359375 23.1875 75.875 
z
" id="DejaVuSans-28"/>
      <path d="M 51.125 44 
L 36.921875 44 
L 32.8125 27.6875 
L 47.125 27.6875 
z
M 43.796875 71.78125 
L 38.71875 51.515625 
L 52.984375 51.515625 
L 58.109375 71.78125 
L 65.921875 71.78125 
L 60.890625 51.515625 
L 76.125 51.515625 
L 76.125 44 
L 58.984375 44 
L 54.984375 27.6875 
L 70.515625 27.6875 
L 70.515625 20.21875 
L 53.078125 20.21875 
L 48 0 
L 40.1875 0 
L 45.21875 20.21875 
L 30.90625 20.21875 
L 25.875 0 
L 18.015625 0 
L 23.09375 20.21875 
L 7.71875 20.21875 
L 7.71875 27.6875 
L 24.90625 27.6875 
L 29 44 
L 13.28125 44 
L 13.28125 51.515625 
L 30.90625 51.515625 
L 35.890625 71.78125 
z
" id="DejaVuSans-23"/>
      <path id="DejaVuSans-20"/>
      <path d="M 37.109375 75.984375 
L 37.109375 68.5 
L 28.515625 68.5 
Q 23.6875 68.5 21.796875 66.546875 
Q 19.921875 64.59375 19.921875 59.515625 
L 19.921875 54.6875 
L 34.71875 54.6875 
L 34.71875 47.703125 
L 19.921875 47.703125 
L 19.921875 0 
L 10.890625 0 
L 10.890625 47.703125 
L 2.296875 47.703125 
L 2.296875 54.6875 
L 10.890625 54.6875 
L 10.890625 58.5 
Q 10.890625 67.625 15.140625 71.796875 
Q 19.390625 75.984375 28.609375 75.984375 
z
" id="DejaVuSans-66"/>
      <path d="M 4.890625 31.390625 
L 31.203125 31.390625 
L 31.203125 23.390625 
L 4.890625 23.390625 
z
" id="DejaVuSans-2d"/>
      <path d="M 56.203125 29.59375 
L 56.203125 25.203125 
L 14.890625 25.203125 
Q 15.484375 15.921875 20.484375 11.0625 
Q 25.484375 6.203125 34.421875 6.203125 
Q 39.59375 6.203125 44.453125 7.46875 
Q 49.3125 8.734375 54.109375 11.28125 
L 54.109375 2.78125 
Q 49.265625 0.734375 44.1875 -0.34375 
Q 39.109375 -1.421875 33.890625 -1.421875 
Q 20.796875 -1.421875 13.15625 6.1875 
Q 5.515625 13.8125 5.515625 26.8125 
Q 5.515625 40.234375 12.765625 48.109375 
Q 20.015625 56 32.328125 56 
Q 43.359375 56 49.78125 48.890625 
Q 56.203125 41.796875 56.203125 29.59375 
z
M 47.21875 32.234375 
Q 47.125 39.59375 43.09375 43.984375 
Q 39.0625 48.390625 32.421875 48.390625 
Q 24.90625 48.390625 20.390625 44.140625 
Q 15.875 39.890625 15.1875 32.171875 
z
" id="DejaVuSans-65"/>
      <path d="M 2.984375 54.6875 
L 12.5 54.6875 
L 29.59375 8.796875 
L 46.6875 54.6875 
L 56.203125 54.6875 
L 35.6875 0 
L 23.484375 0 
z
" id="DejaVuSans-76"/>
      <path d="M 34.28125 27.484375 
Q 23.390625 27.484375 19.1875 25 
Q 14.984375 22.515625 14.984375 16.5 
Q 14.984375 11.71875 18.140625 8.90625 
Q 21.296875 6.109375 26.703125 6.109375 
Q 34.1875 6.109375 38.703125 11.40625 
Q 43.21875 16.703125 43.21875 25.484375 
L 43.21875 27.484375 
z
M 52.203125 31.203125 
L 52.203125 0 
L 43.21875 0 
L 43.21875 8.296875 
Q 40.140625 3.328125 35.546875 0.953125 
Q 30.953125 -1.421875 24.3125 -1.421875 
Q 15.921875 -1.421875 10.953125 3.296875 
Q 6 8.015625 6 15.921875 
Q 6 25.140625 12.171875 29.828125 
Q 18.359375 34.515625 30.609375 34.515625 
L 43.21875 34.515625 
L 43.21875 35.40625 
Q 43.21875 41.609375 39.140625 45 
Q 35.0625 48.390625 27.6875 48.390625 
Q 23 48.390625 18.546875 47.265625 
Q 14.109375 46.140625 10.015625 43.890625 
L 10.015625 52.203125 
Q 14.9375 54.109375 19.578125 55.046875 
Q 24.21875 56 28.609375 56 
Q 40.484375 56 46.34375 49.84375 
Q 52.203125 43.703125 52.203125 31.203125 
z
" id="DejaVuSans-61"/>
      <path d="M 44.28125 53.078125 
L 44.28125 44.578125 
Q 40.484375 46.53125 36.375 47.5 
Q 32.28125 48.484375 27.875 48.484375 
Q 21.1875 48.484375 17.84375 46.4375 
Q 14.5 44.390625 14.5 40.28125 
Q 14.5 37.15625 16.890625 35.375 
Q 19.28125 33.59375 26.515625 31.984375 
L 29.59375 31.296875 
Q 39.15625 29.25 43.1875 25.515625 
Q 47.21875 21.78125 47.21875 15.09375 
Q 47.21875 7.46875 41.1875 3.015625 
Q 35.15625 -1.421875 24.609375 -1.421875 
Q 20.21875 -1.421875 15.453125 -0.5625 
Q 10.6875 0.296875 5.421875 2 
L 5.421875 11.28125 
Q 10.40625 8.6875 15.234375 7.390625 
Q 20.0625 6.109375 24.8125 6.109375 
Q 31.15625 6.109375 34.5625 8.28125 
Q 37.984375 10.453125 37.984375 14.40625 
Q 37.984375 18.0625 35.515625 20.015625 
Q 33.0625 21.96875 24.703125 23.78125 
L 21.578125 24.515625 
Q 13.234375 26.265625 9.515625 29.90625 
Q 5.8125 33.546875 5.8125 39.890625 
Q 5.8125 47.609375 11.28125 51.796875 
Q 16.75 56 26.8125 56 
Q 31.78125 56 36.171875 55.265625 
Q 40.578125 54.546875 44.28125 53.078125 
z
" id="DejaVuSans-73"/>
      <path d="M 25.390625 72.90625 
L 33.6875 72.90625 
L 8.296875 -9.28125 
L 0 -9.28125 
z
" id="DejaVuSans-2f"/>
      <path d="M 45.40625 46.390625 
L 45.40625 75.984375 
L 54.390625 75.984375 
L 54.390625 0 
L 45.40625 0 
L 45.40625 8.203125 
Q 42.578125 3.328125 38.25 0.953125 
Q 33.9375 -1.421875 27.875 -1.421875 
Q 17.96875 -1.421875 11.734375 6.484375 
Q 5.515625 14.40625 5.515625 27.296875 
Q 5.515625 40.1875 11.734375 48.09375 
Q 17.96875 56 27.875 56 
Q 33.9375 56 38.25 53.625 
Q 42.578125 51.265625 45.40625 46.390625 
z
M 14.796875 27.296875 
Q 14.796875 17.390625 18.875 11.75 
Q 22.953125 6.109375 30.078125 6.109375 
Q 37.203125 6.109375 41.296875 11.75 
Q 45.40625 17.390625 45.40625 27.296875 
Q 45.40625 37.203125 41.296875 42.84375 
Q 37.203125 48.484375 30.078125 48.484375 
Q 22.953125 48.484375 18.875 42.84375 
Q 14.796875 37.203125 14.796875 27.296875 
z
" id="DejaVuSans-64"/>
      <path d="M 9.421875 54.6875 
L 18.40625 54.6875 
L 18.40625 0 
L 9.421875 0 
z
M 9.421875 75.984375 
L 18.40625 75.984375 
L 18.40625 64.59375 
L 9.421875 64.59375 
z
" id="DejaVuSans-69"/>
      <path d="M 52 44.1875 
Q 55.375 50.25 60.0625 53.125 
Q 64.75 56 71.09375 56 
Q 79.640625 56 84.28125 50.015625 
Q 88.921875 44.046875 88.921875 33.015625 
L 88.921875 0 
L 79.890625 0 
L 79.890625 32.71875 
Q 79.890625 40.578125 77.09375 44.375 
Q 74.3125 48.1875 68.609375 48.1875 
Q 61.625 48.1875 57.5625 43.546875 
Q 53.515625 38.921875 53.515625 30.90625 
L 53.515625 0 
L 44.484375 0 
L 44.484375 32.71875 
Q 44.484375 40.625 41.703125 44.40625 
Q 38.921875 48.1875 33.109375 48.1875 
Q 26.21875 48.1875 22.15625 43.53125 
Q 18.109375 38.875 18.109375 30.90625 
L 18.109375 0 
L 9.078125 0 
L 9.078125 54.6875 
L 18.109375 54.6875 
L 18.109375 46.1875 
Q 21.1875 51.21875 25.484375 53.609375 
Q 29.78125 56 35.6875 56 
Q 41.65625 56 45.828125 52.96875 
Q 50 49.953125 52 44.1875 
z
" id="DejaVuSans-6d"/>
      <path d="M 54.890625 33.015625 
L 54.890625 0 
L 45.90625 0 
L 45.90625 32.71875 
Q 45.90625 40.484375 42.875 44.328125 
Q 39.84375 48.1875 33.796875 48.1875 
Q 26.515625 48.1875 22.3125 43.546875 
Q 18.109375 38.921875 18.109375 30.90625 
L 18.109375 0 
L 9.078125 0 
L 9.078125 54.6875 
L 18.109375 54.6875 
L 18.109375 46.1875 
Q 21.34375 51.125 25.703125 53.5625 
Q 30.078125 56 35.796875 56 
Q 45.21875 56 50.046875 50.171875 
Q 54.890625 44.34375 54.890625 33.015625 
z
" id="DejaVuSans-6e"/>
      <path d="M 8.015625 75.875 
L 15.828125 75.875 
Q 23.140625 64.359375 26.78125 53.3125 
Q 30.421875 42.28125 30.421875 31.390625 
Q 30.421875 20.453125 26.78125 9.375 
Q 23.140625 -1.703125 15.828125 -13.1875 
L 8.015625 -13.1875 
Q 14.5 -2 17.703125 9.0625 
Q 20.90625 20.125 20.90625 31.390625 
Q 20.90625 42.671875 17.703125 53.65625 
Q 14.5 64.65625 8.015625 75.875 
z
" id="DejaVuSans-29"/>
     </defs>
     <g transform="translate(107.211219 338.153594)scale(0.17 -0.17)">
      <use xlink:href="#DejaVuSans-6c"/>
      <use x="27.783203" xlink:href="#DejaVuSans-6f"/>
      <use x="88.964844" xlink:href="#DejaVuSans-67"/>
      <use x="152.441406" xlink:href="#DejaVuSans-31"/>
      <use x="216.064453" xlink:href="#DejaVuSans-30"/>
      <use x="279.6875" xlink:href="#DejaVuSans-28"/>
      <use x="318.701172" xlink:href="#DejaVuSans-23"/>
      <use x="402.490234" xlink:href="#DejaVuSans-20"/>
      <use x="434.277344" xlink:href="#DejaVuSans-66"/>
      <use x="469.404297" xlink:href="#DejaVuSans-2d"/>
      <use x="505.488281" xlink:href="#DejaVuSans-65"/>
      <use x="567.011719" xlink:href="#DejaVuSans-76"/>
      <use x="626.191406" xlink:href="#DejaVuSans-61"/>
      <use x="687.470703" xlink:href="#DejaVuSans-6c"/>
      <use x="715.253906" xlink:href="#DejaVuSans-73"/>
      <use x="767.353516" xlink:href="#DejaVuSans-20"/>
      <use x="799.140625" xlink:href="#DejaVuSans-2f"/>
      <use x="832.832031" xlink:href="#DejaVuSans-20"/>
      <use x="864.619141" xlink:href="#DejaVuSans-64"/>
      <use x="928.095703" xlink:href="#DejaVuSans-69"/>
      <use x="955.878906" xlink:href="#DejaVuSans-6d"/>
      <use x="1053.291016" xlink:href="#DejaVuSans-65"/>
      <use x="1114.814453" xlink:href="#DejaVuSans-6e"/>
      <use x="1178.193359" xlink:href="#DejaVuSans-73"/>
      <use x="1230.292969" xlink:href="#DejaVuSans-69"/>
      <use x="1258.076172" xlink:href="#DejaVuSans-6f"/>
      <use x="1319.257812" xlink:href="#DejaVuSans-6e"/>
      <use x="1382.636719" xlink:href="#DejaVuSans-29"/>
     </g>
    </g>
   </g>
   <g id="matplotlib.axis_2">
    <g id="ytick_1">
     <g id="line2d_11">
      <path clip-path="url(#pb53fa197d5)" d="M 56.12 294.88 
L 399.984 294.88 
" style="fill:none;stroke:#b0b0b0;stroke-linecap:square;stroke-width:0.8;"/>
     </g>
     <g id="line2d_12">
      <defs>
       <path d="M 0 0 
L -3.5 0 
" id="mb79e812306" style="stroke:#000000;stroke-width:0.8;"/>
      </defs>
      <g>
       <use style="stroke:#000000;stroke-width:0.8;" x="56.12" xlink:href="#mb79e812306" y="294.88"/>
      </g>
     </g>
     <g id="text_7">
      <!-- 0.0 -->
      <defs>
       <path d="M 10.6875 12.40625 
L 21 12.40625 
L 21 0 
L 10.6875 0 
z
" id="DejaVuSans-2e"/>
      </defs>
      <g transform="translate(23.675 300.95875)scale(0.16 -0.16)">
       <use xlink:href="#DejaVuSans-30"/>
       <use x="63.623047" xlink:href="#DejaVuSans-2e"/>
       <use x="95.410156" xlink:href="#DejaVuSans-30"/>
      </g>
     </g>
    </g>
    <g id="ytick_2">
     <g id="line2d_13">
      <path clip-path="url(#pb53fa197d5)" d="M 56.12 237.843411 
L 399.984 237.843411 
" style="fill:none;stroke:#b0b0b0;stroke-linecap:square;stroke-width:0.8;"/>
     </g>
     <g id="line2d_14">
      <g>
       <use style="stroke:#000000;stroke-width:0.8;" x="56.12" xlink:href="#mb79e812306" y="237.843411"/>
      </g>
     </g>
     <g id="text_8">
      <!-- 0.2 -->
      <g transform="translate(23.675 243.922161)scale(0.16 -0.16)">
       <use xlink:href="#DejaVuSans-30"/>
       <use x="63.623047" xlink:href="#DejaVuSans-2e"/>
       <use x="95.410156" xlink:href="#DejaVuSans-32"/>
      </g>
     </g>
    </g>
    <g id="ytick_3">
     <g id="line2d_15">
      <path clip-path="url(#pb53fa197d5)" d="M 56.12 180.806823 
L 399.984 180.806823 
" style="fill:none;stroke:#b0b0b0;stroke-linecap:square;stroke-width:0.8;"/>
     </g>
     <g id="line2d_16">
      <g>
       <use style="stroke:#000000;stroke-width:0.8;" x="56.12" xlink:href="#mb79e812306" y="180.806823"/>
      </g>
     </g>
     <g id="text_9">
      <!-- 0.4 -->
      <g transform="translate(23.675 186.885573)scale(0.16 -0.16)">
       <use xlink:href="#DejaVuSans-30"/>
       <use x="63.623047" xlink:href="#DejaVuSans-2e"/>
       <use x="95.410156" xlink:href="#DejaVuSans-34"/>
      </g>
     </g>
    </g>
    <g id="ytick_4">
     <g id="line2d_17">
      <path clip-path="url(#pb53fa197d5)" d="M 56.12 123.770234 
L 399.984 123.770234 
" style="fill:none;stroke:#b0b0b0;stroke-linecap:square;stroke-width:0.8;"/>
     </g>
     <g id="line2d_18">
      <g>
       <use style="stroke:#000000;stroke-width:0.8;" x="56.12" xlink:href="#mb79e812306" y="123.770234"/>
      </g>
     </g>
     <g id="text_10">
      <!-- 0.6 -->
      <g transform="translate(23.675 129.848984)scale(0.16 -0.16)">
       <use xlink:href="#DejaVuSans-30"/>
       <use x="63.623047" xlink:href="#DejaVuSans-2e"/>
       <use x="95.410156" xlink:href="#DejaVuSans-36"/>
      </g>
     </g>
    </g>
    <g id="ytick_5">
     <g id="line2d_19">
      <path clip-path="url(#pb53fa197d5)" d="M 56.12 66.733646 
L 399.984 66.733646 
" style="fill:none;stroke:#b0b0b0;stroke-linecap:square;stroke-width:0.8;"/>
     </g>
     <g id="line2d_20">
      <g>
       <use style="stroke:#000000;stroke-width:0.8;" x="56.12" xlink:href="#mb79e812306" y="66.733646"/>
      </g>
     </g>
     <g id="text_11">
      <!-- 0.8 -->
      <g transform="translate(23.675 72.812396)scale(0.16 -0.16)">
       <use xlink:href="#DejaVuSans-30"/>
       <use x="63.623047" xlink:href="#DejaVuSans-2e"/>
       <use x="95.410156" xlink:href="#DejaVuSans-38"/>
      </g>
     </g>
    </g>
    <g id="ytick_6">
     <g id="line2d_21">
      <path clip-path="url(#pb53fa197d5)" d="M 56.12 9.697057 
L 399.984 9.697057 
" style="fill:none;stroke:#b0b0b0;stroke-linecap:square;stroke-width:0.8;"/>
     </g>
     <g id="line2d_22">
      <g>
       <use style="stroke:#000000;stroke-width:0.8;" x="56.12" xlink:href="#mb79e812306" y="9.697057"/>
      </g>
     </g>
     <g id="text_12">
      <!-- 1.0 -->
      <g transform="translate(23.675 15.775807)scale(0.16 -0.16)">
       <use xlink:href="#DejaVuSans-31"/>
       <use x="63.623047" xlink:href="#DejaVuSans-2e"/>
       <use x="95.410156" xlink:href="#DejaVuSans-30"/>
      </g>
     </g>
    </g>
    <g id="text_13">
     <!-- Fraction of function,target pairs -->
     <defs>
      <path d="M 9.8125 72.90625 
L 51.703125 72.90625 
L 51.703125 64.59375 
L 19.671875 64.59375 
L 19.671875 43.109375 
L 48.578125 43.109375 
L 48.578125 34.8125 
L 19.671875 34.8125 
L 19.671875 0 
L 9.8125 0 
z
" id="DejaVuSans-46"/>
      <path d="M 41.109375 46.296875 
Q 39.59375 47.171875 37.8125 47.578125 
Q 36.03125 48 33.890625 48 
Q 26.265625 48 22.1875 43.046875 
Q 18.109375 38.09375 18.109375 28.8125 
L 18.109375 0 
L 9.078125 0 
L 9.078125 54.6875 
L 18.109375 54.6875 
L 18.109375 46.1875 
Q 20.953125 51.171875 25.484375 53.578125 
Q 30.03125 56 36.53125 56 
Q 37.453125 56 38.578125 55.875 
Q 39.703125 55.765625 41.0625 55.515625 
z
" id="DejaVuSans-72"/>
      <path d="M 48.78125 52.59375 
L 48.78125 44.1875 
Q 44.96875 46.296875 41.140625 47.34375 
Q 37.3125 48.390625 33.40625 48.390625 
Q 24.65625 48.390625 19.8125 42.84375 
Q 14.984375 37.3125 14.984375 27.296875 
Q 14.984375 17.28125 19.8125 11.734375 
Q 24.65625 6.203125 33.40625 6.203125 
Q 37.3125 6.203125 41.140625 7.25 
Q 44.96875 8.296875 48.78125 10.40625 
L 48.78125 2.09375 
Q 45.015625 0.34375 40.984375 -0.53125 
Q 36.96875 -1.421875 32.421875 -1.421875 
Q 20.0625 -1.421875 12.78125 6.34375 
Q 5.515625 14.109375 5.515625 27.296875 
Q 5.515625 40.671875 12.859375 48.328125 
Q 20.21875 56 33.015625 56 
Q 37.15625 56 41.109375 55.140625 
Q 45.0625 54.296875 48.78125 52.59375 
z
" id="DejaVuSans-63"/>
      <path d="M 18.3125 70.21875 
L 18.3125 54.6875 
L 36.8125 54.6875 
L 36.8125 47.703125 
L 18.3125 47.703125 
L 18.3125 18.015625 
Q 18.3125 11.328125 20.140625 9.421875 
Q 21.96875 7.515625 27.59375 7.515625 
L 36.8125 7.515625 
L 36.8125 0 
L 27.59375 0 
Q 17.1875 0 13.234375 3.875 
Q 9.28125 7.765625 9.28125 18.015625 
L 9.28125 47.703125 
L 2.6875 47.703125 
L 2.6875 54.6875 
L 9.28125 54.6875 
L 9.28125 70.21875 
z
" id="DejaVuSans-74"/>
      <path d="M 8.5 21.578125 
L 8.5 54.6875 
L 17.484375 54.6875 
L 17.484375 21.921875 
Q 17.484375 14.15625 20.5 10.265625 
Q 23.53125 6.390625 29.59375 6.390625 
Q 36.859375 6.390625 41.078125 11.03125 
Q 45.3125 15.671875 45.3125 23.6875 
L 45.3125 54.6875 
L 54.296875 54.6875 
L 54.296875 0 
L 45.3125 0 
L 45.3125 8.40625 
Q 42.046875 3.421875 37.71875 1 
Q 33.40625 -1.421875 27.6875 -1.421875 
Q 18.265625 -1.421875 13.375 4.4375 
Q 8.5 10.296875 8.5 21.578125 
z
M 31.109375 56 
z
" id="DejaVuSans-75"/>
      <path d="M 11.71875 12.40625 
L 22.015625 12.40625 
L 22.015625 4 
L 14.015625 -11.625 
L 7.71875 -11.625 
L 11.71875 4 
z
" id="DejaVuSans-2c"/>
      <path d="M 18.109375 8.203125 
L 18.109375 -20.796875 
L 9.078125 -20.796875 
L 9.078125 54.6875 
L 18.109375 54.6875 
L 18.109375 46.390625 
Q 20.953125 51.265625 25.265625 53.625 
Q 29.59375 56 35.59375 56 
Q 45.5625 56 51.78125 48.09375 
Q 58.015625 40.1875 58.015625 27.296875 
Q 58.015625 14.40625 51.78125 6.484375 
Q 45.5625 -1.421875 35.59375 -1.421875 
Q 29.59375 -1.421875 25.265625 0.953125 
Q 20.953125 3.328125 18.109375 8.203125 
z
M 48.6875 27.296875 
Q 48.6875 37.203125 44.609375 42.84375 
Q 40.53125 48.484375 33.40625 48.484375 
Q 26.265625 48.484375 22.1875 42.84375 
Q 18.109375 37.203125 18.109375 27.296875 
Q 18.109375 17.390625 22.1875 11.75 
Q 26.265625 6.109375 33.40625 6.109375 
Q 40.53125 6.109375 44.609375 11.75 
Q 48.6875 17.390625 48.6875 27.296875 
z
" id="DejaVuSans-70"/>
     </defs>
     <g transform="translate(16.139531 286.001989)rotate(-90)scale(0.17 -0.17)">
      <use xlink:href="#DejaVuSans-46"/>
      <use x="57.410156" xlink:href="#DejaVuSans-72"/>
      <use x="98.523438" xlink:href="#DejaVuSans-61"/>
      <use x="159.802734" xlink:href="#DejaVuSans-63"/>
      <use x="214.783203" xlink:href="#DejaVuSans-74"/>
      <use x="253.992188" xlink:href="#DejaVuSans-69"/>
      <use x="281.775391" xlink:href="#DejaVuSans-6f"/>
      <use x="342.957031" xlink:href="#DejaVuSans-6e"/>
      <use x="406.335938" xlink:href="#DejaVuSans-20"/>
      <use x="438.123047" xlink:href="#DejaVuSans-6f"/>
      <use x="499.304688" xlink:href="#DejaVuSans-66"/>
      <use x="534.509766" xlink:href="#DejaVuSans-20"/>
      <use x="566.296875" xlink:href="#DejaVuSans-66"/>
      <use x="601.501953" xlink:href="#DejaVuSans-75"/>
      <use x="664.880859" xlink:href="#DejaVuSans-6e"/>
      <use x="728.259766" xlink:href="#DejaVuSans-63"/>
      <use x="783.240234" xlink:href="#DejaVuSans-74"/>
      <use x="822.449219" xlink:href="#DejaVuSans-69"/>
      <use x="850.232422" xlink:href="#DejaVuSans-6f"/>
      <use x="911.414062" xlink:href="#DejaVuSans-6e"/>
      <use x="974.792969" xlink:href="#DejaVuSans-2c"/>
      <use x="1006.580078" xlink:href="#DejaVuSans-74"/>
      <use x="1045.789062" xlink:href="#DejaVuSans-61"/>
      <use x="1107.068359" xlink:href="#DejaVuSans-72"/>
      <use x="1148.166016" xlink:href="#DejaVuSans-67"/>
      <use x="1211.642578" xlink:href="#DejaVuSans-65"/>
      <use x="1273.166016" xlink:href="#DejaVuSans-74"/>
      <use x="1312.375" xlink:href="#DejaVuSans-20"/>
      <use x="1344.162109" xlink:href="#DejaVuSans-70"/>
      <use x="1407.638672" xlink:href="#DejaVuSans-61"/>
      <use x="1468.917969" xlink:href="#DejaVuSans-69"/>
      <use x="1496.701172" xlink:href="#DejaVuSans-72"/>
      <use x="1537.814453" xlink:href="#DejaVuSans-73"/>
     </g>
    </g>
   </g>
   <g id="line2d_23">
    <defs>
     <path d="M 0 1.5 
C 0.397805 1.5 0.77937 1.341951 1.06066 1.06066 
C 1.341951 0.77937 1.5 0.397805 1.5 0 
C 1.5 -0.397805 1.341951 -0.77937 1.06066 -1.06066 
C 0.77937 -1.341951 0.397805 -1.5 0 -1.5 
C -0.397805 -1.5 -0.77937 -1.341951 -1.06066 -1.06066 
C -1.341951 -0.77937 -1.5 -0.397805 -1.5 0 
C -1.5 0.397805 -1.341951 0.77937 -1.06066 1.06066 
C -0.77937 1.341951 -0.397805 1.5 0 1.5 
z
" id="m751caeff2d" style="stroke:#000080;"/>
    </defs>
    <g>
     <use style="fill:#000080;stroke:#000080;" x="286.979684" xlink:href="#m751caeff2d" y="9.697057"/>
     <use style="fill:#000080;stroke:#000080;" x="286.979684" xlink:href="#m751caeff2d" y="9.697057"/>
    </g>
   </g>
   <g id="line2d_24">
    <path d="M 56.12 294.88 
L 56.12 293.202453 
L 68.045504 293.202453 
L 68.045504 292.084089 
L 75.021477 292.084089 
L 75.021477 283.696355 
L 89.599124 283.696355 
L 89.599124 279.782079 
L 95.735668 279.782079 
L 95.735668 275.867804 
L 97.375467 275.867804 
L 97.375467 271.953528 
L 98.872486 271.953528 
L 98.872486 268.039252 
L 102.711641 268.039252 
L 102.711641 265.802523 
L 103.822018 265.802523 
L 103.822018 264.124977 
L 104.865056 264.124977 
L 104.865056 260.210701 
L 109.300972 260.210701 
L 109.300972 258.533154 
L 110.065758 258.533154 
L 110.065758 255.737243 
L 114.637146 255.737243 
L 114.637146 252.941332 
L 119.151088 252.941332 
L 119.151088 252.38215 
L 120.01151 252.38215 
L 120.01151 251.822967 
L 120.830944 251.822967 
L 120.830944 249.027056 
L 123.766534 249.027056 
L 123.766534 247.908692 
L 125.979378 247.908692 
L 125.979378 246.790327 
L 126.56265 246.790327 
L 126.56265 246.231145 
L 129.699468 246.231145 
L 129.699468 245.112781 
L 130.854591 245.112781 
L 130.854591 244.553598 
L 133.346388 244.553598 
L 133.346388 242.876052 
L 135.351336 242.876052 
L 135.351336 241.757687 
L 138.34418 241.757687 
L 138.34418 238.402594 
L 141.262751 238.402594 
L 141.262751 237.843411 
L 146.841251 237.843411 
L 146.841251 237.284229 
L 159.918441 237.284229 
L 160.000761 233.929136 
L 160.406555 233.929136 
L 160.406555 233.369954 
L 161.036551 233.369954 
L 161.036551 232.810771 
L 161.792931 232.810771 
L 161.792931 232.251589 
L 162.79893 232.251589 
L 162.79893 231.133225 
L 170.177307 231.133225 
L 170.267979 229.455678 
L 170.358175 229.455678 
L 170.358175 227.778131 
L 170.537161 227.778131 
L 170.581618 226.100584 
L 170.889641 226.100584 
L 170.889641 223.304673 
L 171.235045 223.304673 
L 171.235045 222.745491 
L 171.946784 222.745491 
L 171.946784 221.627126 
L 176.715942 221.627126 
L 176.777998 218.272033 
L 176.83983 218.272033 
L 176.870663 216.035304 
L 177.05451 216.035304 
L 177.115359 212.121028 
L 177.326649 212.121028 
L 177.356623 209.325117 
L 177.712292 209.325117 
L 177.712292 208.206753 
L 177.829233 208.206753 
L 177.829233 207.088388 
L 178.175361 207.088388 
L 178.175361 205.970024 
L 181.560245 205.970024 
L 181.630469 203.733295 
L 181.931504 203.733295 
L 181.931504 203.174112 
L 182.182175 203.174112 
L 182.182175 201.496566 
L 182.47379 201.496566 
L 182.47379 200.378201 
L 185.203606 200.378201 
L 185.260451 198.141472 
L 185.411124 198.141472 
L 185.429865 195.904743 
L 188.256393 195.904743 
L 188.335679 191.990468 
L 188.398845 191.990468 
L 188.477478 184.161916 
L 190.848261 184.161916 
L 190.930092 179.688458 
L 191.106068 179.688458 
L 191.159854 177.451729 
L 191.266924 177.451729 
L 191.266924 176.333365 
L 193.088308 176.333365 
L 193.148214 173.537454 
L 193.243631 173.537454 
L 193.291142 170.741543 
L 193.526748 170.741543 
L 193.526748 169.623178 
L 195.123416 169.623178 
L 195.187275 167.386449 
L 196.875777 167.386449 
L 196.875777 166.827267 
L 196.990957 166.827267 
L 196.990957 165.708902 
L 198.483591 165.708902 
L 198.588525 164.031356 
L 199.970008 164.031356 
L 199.970008 163.472173 
L 209.681248 163.472173 
L 209.681248 162.912991 
L 236.449019 162.912991 
L 236.45481 161.235444 
L 236.611407 161.235444 
L 236.6353 153.966075 
L 236.778908 153.966075 
L 236.825253 148.933435 
L 236.951359 148.933435 
L 236.986017 145.019159 
L 237.110025 145.019159 
L 237.120241 138.868155 
L 237.273684 138.868155 
L 237.307699 129.921239 
L 237.439446 129.921239 
L 237.439446 125.447781 
L 237.592791 125.447781 
L 237.609043 120.415141 
L 237.754627 120.415141 
L 237.759996 118.178412 
L 237.908748 118.178412 
L 237.919388 116.500865 
L 238.063259 116.500865 
L 238.084341 114.823318 
L 238.218137 114.823318 
L 238.218137 113.704954 
L 238.978113 113.704954 
L 238.978113 113.145772 
L 239.576019 113.145772 
L 239.576019 112.586589 
L 248.201082 112.586589 
L 248.285231 109.790678 
L 248.355446 109.790678 
L 248.463834 102.521309 
L 248.526149 102.521309 
L 248.614441 98.607033 
L 248.697071 98.607033 
L 248.787791 87.982571 
L 248.858335 87.982571 
L 248.945409 84.068295 
L 249.023215 84.068295 
L 249.115473 82.949931 
L 255.228096 82.949931 
L 255.337941 77.358108 
L 255.385216 77.358108 
L 255.444209 72.325468 
L 255.497257 72.325468 
L 255.553323 69.529557 
L 255.610157 69.529557 
L 255.720117 66.174463 
L 255.782682 66.174463 
L 255.782682 65.615281 
L 260.112074 65.615281 
L 260.190709 63.378552 
L 260.232194 63.378552 
L 260.317517 57.227548 
L 260.359901 57.227548 
L 260.448424 48.280632 
L 260.488576 48.280632 
L 260.488576 47.72145 
L 264.013606 47.72145 
L 264.11503 42.688809 
L 264.147097 42.688809 
L 264.221625 38.774534 
L 264.317439 38.774534 
L 264.320305 37.656169 
L 264.518817 37.656169 
L 264.518817 37.096987 
L 267.137631 37.096987 
L 267.194309 33.182711 
L 267.249673 33.182711 
L 267.306144 30.3868 
L 267.391863 30.3868 
L 267.391863 29.827618 
L 269.755572 29.827618 
L 269.802733 27.590889 
L 269.900399 27.590889 
L 269.929659 25.35416 
L 272.090994 25.35416 
L 272.198781 21.999066 
L 272.389176 21.999066 
L 272.389176 21.439884 
L 274.076229 21.439884 
L 274.186199 19.762337 
L 274.208367 19.762337 
L 274.280055 18.084791 
L 275.950728 18.084791 
L 276.005259 15.848062 
L 277.59796 15.848062 
L 277.598225 14.729697 
L 277.769048 14.729697 
L 277.769048 14.170515 
L 279.087003 14.170515 
L 279.129874 12.492968 
L 281.692043 12.492968 
L 281.692043 11.933786 
L 282.92001 11.933786 
L 282.933681 10.815422 
L 286.96104 10.815422 
L 286.979684 9.697057 
L 333.429677 9.697057 
L 333.429677 9.697057 
" style="fill:none;stroke:#000080;stroke-linecap:square;stroke-width:1.5;"/>
   </g>
   <g id="line2d_25">
    <defs>
     <path d="M 0 6 
C 1.591219 6 3.117479 5.367802 4.242641 4.242641 
C 5.367802 3.117479 6 1.591219 6 0 
C 6 -1.591219 5.367802 -3.117479 4.242641 -4.242641 
C 3.117479 -5.367802 1.591219 -6 0 -6 
C -1.591219 -6 -3.117479 -5.367802 -4.242641 -4.242641 
C -5.367802 -3.117479 -6 -1.591219 -6 0 
C -6 1.591219 -5.367802 3.117479 -4.242641 4.242641 
C -3.117479 5.367802 -1.591219 6 0 6 
z
" id="m8c4f1f135f" style="stroke:#000080;stroke-width:1.5;"/>
    </defs>
    <g>
     <use style="fill-opacity:0;stroke:#000080;stroke-width:1.5;" x="171.946784" xlink:href="#m8c4f1f135f" y="222.745491"/>
     <use style="fill-opacity:0;stroke:#000080;stroke-width:1.5;" x="209.681248" xlink:href="#m8c4f1f135f" y="163.472173"/>
     <use style="fill-opacity:0;stroke:#000080;stroke-width:1.5;" x="264.148641" xlink:href="#m8c4f1f135f" y="42.129627"/>
     <use style="fill-opacity:0;stroke:#000080;stroke-width:1.5;" x="286.979684" xlink:href="#m8c4f1f135f" y="9.697057"/>
     <use style="fill-opacity:0;stroke:#000080;stroke-width:1.5;" x="333.429677" xlink:href="#m8c4f1f135f" y="9.697057"/>
    </g>
   </g>
   <g id="line2d_26">
    <path style="fill:none;stroke:#000080;stroke-linecap:square;stroke-width:1.5;"/>
    <g/>
   </g>
   <g id="line2d_27">
    <path clip-path="url(#pb53fa197d5)" d="M 236.246541 162.912991 
" style="fill:none;stroke:#000080;stroke-linecap:square;stroke-width:1.5;"/>
    <defs>
     <path d="M -12 12 
L 12 -12 
M -12 -12 
L 12 12 
" id="me6b192c051" style="stroke:#000080;stroke-width:3;"/>
    </defs>
    <g clip-path="url(#pb53fa197d5)">
     <use style="fill:#000080;stroke:#000080;stroke-width:3;" x="236.246541" xlink:href="#me6b192c051" y="162.912991"/>
    </g>
   </g>
   <g id="line2d_28">
    <defs>
     <path d="M 0 1.5 
C 0.397805 1.5 0.77937 1.341951 1.06066 1.06066 
C 1.341951 0.77937 1.5 0.397805 1.5 0 
C 1.5 -0.397805 1.341951 -0.77937 1.06066 -1.06066 
C 0.77937 -1.341951 0.397805 -1.5 0 -1.5 
C -0.397805 -1.5 -0.77937 -1.341951 -1.06066 -1.06066 
C -1.341951 -0.77937 -1.5 -0.397805 -1.5 0 
C -1.5 0.397805 -1.341951 0.77937 -1.06066 1.06066 
C -0.77937 1.341951 -0.397805 1.5 0 1.5 
z
" id="m7ec3a37027" style="stroke:#ff00ff;"/>
    </defs>
    <g>
     <use style="fill:#ff00ff;stroke:#ff00ff;" x="287.825013" xlink:href="#m7ec3a37027" y="9.697057"/>
     <use style="fill:#ff00ff;stroke:#ff00ff;" x="287.825013" xlink:href="#m7ec3a37027" y="9.697057"/>
    </g>
   </g>
   <g id="line2d_29">
    <path d="M 56.12 294.88 
L 56.12 267.48007 
L 68.045504 267.48007 
L 68.045504 256.855608 
L 75.021477 256.855608 
L 75.021477 249.027056 
L 79.971009 249.027056 
L 79.971009 247.34951 
L 83.810164 247.34951 
L 83.810164 246.231145 
L 86.946982 246.231145 
L 86.946982 243.994416 
L 97.375467 243.994416 
L 97.375467 242.876052 
L 100.24961 242.876052 
L 100.24961 242.316869 
L 105.848459 242.316869 
L 105.848459 239.520958 
L 106.778678 239.520958 
L 106.778678 236.725047 
L 109.300972 236.725047 
L 109.300972 236.165865 
L 115.747522 236.165865 
L 115.747522 235.606682 
L 124.428341 235.606682 
L 124.428341 233.929136 
L 126.847034 233.929136 
L 126.847034 233.369954 
L 129.458837 233.369954 
L 129.458837 232.810771 
L 131.725909 232.810771 
L 131.725909 231.692407 
L 133.346388 231.692407 
L 133.346388 230.574042 
L 134.286778 230.574042 
L 134.286778 230.01486 
L 135.351336 230.01486 
L 135.351336 228.896496 
L 136.834012 228.896496 
L 136.834012 228.337313 
L 137.904883 228.337313 
L 137.904883 227.778131 
L 140.641569 227.778131 
L 140.641569 226.659767 
L 141.744038 226.659767 
L 141.744038 226.100584 
L 142.096368 226.100584 
L 142.096368 225.541402 
L 142.212226 225.541402 
L 142.212226 224.423038 
L 143.437686 224.423038 
L 143.437686 223.304673 
L 145.271892 223.304673 
L 145.271892 215.476122 
L 147.532997 215.476122 
L 147.532997 211.561846 
L 148.27935 211.561846 
L 148.27935 209.884299 
L 148.680414 209.884299 
L 148.680414 209.325117 
L 159.416073 209.325117 
L 159.500826 208.206753 
L 159.835725 208.206753 
L 159.835725 207.088388 
L 160.000761 207.088388 
L 160.000761 206.529206 
L 160.164229 206.529206 
L 160.164229 203.733295 
L 160.406555 203.733295 
L 160.486577 197.023108 
L 160.56623 197.023108 
L 160.645515 195.345561 
L 160.959052 195.345561 
L 160.959052 194.227197 
L 161.266977 194.227197 
L 161.266977 191.431285 
L 162.303282 191.431285 
L 162.303282 190.872103 
L 162.446359 190.872103 
L 162.446359 189.194556 
L 163.007056 189.194556 
L 163.007056 185.280281 
L 170.131792 185.280281 
L 170.177307 183.043552 
L 170.267979 183.043552 
L 170.267979 180.806823 
L 170.714304 180.806823 
L 170.714304 178.570094 
L 170.845974 178.570094 
L 170.889641 172.978271 
L 171.019982 172.978271 
L 171.06321 166.268085 
L 171.235045 166.268085 
L 171.320324 164.031356 
L 171.447454 164.031356 
L 171.489623 161.235444 
L 171.573652 161.235444 
L 171.657272 159.557898 
L 171.781945 159.557898 
L 171.781945 152.288529 
L 171.905722 152.288529 
L 171.905722 151.170164 
L 172.231504 151.170164 
L 172.231504 149.492617 
L 176.715942 149.492617 
L 176.808942 141.104884 
L 176.932164 141.104884 
L 177.024005 136.072244 
L 177.296623 136.072244 
L 177.356623 133.276332 
L 177.416414 133.276332 
L 177.505713 131.039603 
L 177.624061 131.039603 
L 177.624061 130.480421 
L 177.800072 130.480421 
L 177.800072 128.243692 
L 181.489733 128.243692 
L 181.583685 120.415141 
L 181.677126 120.415141 
L 181.770063 114.264136 
L 181.8625 114.264136 
L 181.8625 113.145772 
L 182.27243 113.145772 
L 182.27243 110.909043 
L 185.184616 110.909043 
L 185.260451 108.113132 
L 190.834585 108.113132 
L 190.848261 106.994767 
L 195.102076 106.994767 
L 195.102076 106.435585 
L 197.00052 106.435585 
L 197.00052 105.31722 
L 203.772921 105.31722 
L 203.772921 104.758038 
L 236.274359 104.758038 
L 236.333262 101.402945 
L 236.45288 101.402945 
L 236.488556 94.133576 
L 236.611407 94.133576 
L 236.658205 80.713202 
L 236.778908 80.713202 
L 236.821474 69.529557 
L 236.944794 69.529557 
L 236.977593 61.701006 
L 237.109096 61.701006 
L 237.109096 60.582641 
L 237.271843 60.582641 
L 237.271843 60.023459 
L 237.433065 60.023459 
L 237.433065 59.464277 
L 237.752837 59.464277 
L 237.752837 58.905094 
L 237.920274 58.905094 
L 237.920274 58.345912 
L 238.672879 58.345912 
L 238.672879 57.78673 
L 248.276495 57.78673 
L 248.373799 48.280632 
L 248.440288 48.280632 
L 248.541454 38.215351 
L 248.608727 38.215351 
L 248.692333 36.537805 
L 255.275674 36.537805 
L 255.334076 30.945982 
L 255.386822 30.945982 
L 255.496938 26.472524 
L 255.664909 26.472524 
L 255.664909 25.913342 
L 260.152532 25.913342 
L 260.237766 21.439884 
L 260.275271 21.439884 
L 260.283245 19.762337 
L 264.010883 19.762337 
L 264.046445 17.525609 
L 267.166803 17.525609 
L 267.192045 15.848062 
L 269.757104 15.848062 
L 269.851566 12.492968 
L 272.112994 12.492968 
L 272.11348 11.374604 
L 280.419641 11.374604 
L 280.419641 10.815422 
L 281.714235 10.815422 
L 281.714235 10.256239 
L 287.825013 10.256239 
L 287.825013 9.697057 
L 333.429677 9.697057 
L 333.429677 9.697057 
" style="fill:none;stroke:#ff00ff;stroke-linecap:square;stroke-width:1.5;"/>
   </g>
   <g id="line2d_30">
    <defs>
     <path d="M -0 8.485281 
L 5.091169 0 
L 0 -8.485281 
L -5.091169 -0 
z
" id="m0a9da2b4ff" style="stroke:#ff00ff;stroke-linejoin:miter;stroke-width:1.5;"/>
    </defs>
    <g>
     <use style="fill-opacity:0;stroke:#ff00ff;stroke-linejoin:miter;stroke-width:1.5;" x="170.845974" xlink:href="#m0a9da2b4ff" y="178.570094"/>
     <use style="fill-opacity:0;stroke:#ff00ff;stroke-linejoin:miter;stroke-width:1.5;" x="236.956984" xlink:href="#m0a9da2b4ff" y="63.937735"/>
     <use style="fill-opacity:0;stroke:#ff00ff;stroke-linejoin:miter;stroke-width:1.5;" x="287.825013" xlink:href="#m0a9da2b4ff" y="9.697057"/>
     <use style="fill-opacity:0;stroke:#ff00ff;stroke-linejoin:miter;stroke-width:1.5;" x="287.825013" xlink:href="#m0a9da2b4ff" y="9.697057"/>
     <use style="fill-opacity:0;stroke:#ff00ff;stroke-linejoin:miter;stroke-width:1.5;" x="333.429677" xlink:href="#m0a9da2b4ff" y="9.697057"/>
    </g>
   </g>
   <g id="line2d_31">
    <path style="fill:none;stroke:#ff00ff;stroke-linecap:square;stroke-width:1.5;"/>
    <g/>
   </g>
   <g id="line2d_32">
    <path clip-path="url(#pb53fa197d5)" d="M 236.246541 104.758038 
" style="fill:none;stroke:#ff00ff;stroke-linecap:square;stroke-width:1.5;"/>
    <defs>
     <path d="M -12 12 
L 12 -12 
M -12 -12 
L 12 12 
" id="m12b63e61b2" style="stroke:#ff00ff;stroke-width:3;"/>
    </defs>
    <g clip-path="url(#pb53fa197d5)">
     <use style="fill:#ff00ff;stroke:#ff00ff;stroke-width:3;" x="236.246541" xlink:href="#m12b63e61b2" y="104.758038"/>
    </g>
   </g>
   <g id="line2d_33">
    <defs>
     <path d="M 0 1.5 
C 0.397805 1.5 0.77937 1.341951 1.06066 1.06066 
C 1.341951 0.77937 1.5 0.397805 1.5 0 
C 1.5 -0.397805 1.341951 -0.77937 1.06066 -1.06066 
C 0.77937 -1.341951 0.397805 -1.5 0 -1.5 
C -0.397805 -1.5 -0.77937 -1.341951 -1.06066 -1.06066 
C -1.341951 -0.77937 -1.5 -0.397805 -1.5 0 
C -1.5 0.397805 -1.341951 0.77937 -1.06066 1.06066 
C -0.77937 1.341951 -0.397805 1.5 0 1.5 
z
" id="m2db9ce0a56" style="stroke:#ffa500;"/>
    </defs>
    <g>
     <use style="fill:#ffa500;stroke:#ffa500;" x="295.891347" xlink:href="#m2db9ce0a56" y="9.697057"/>
     <use style="fill:#ffa500;stroke:#ffa500;" x="295.891347" xlink:href="#m2db9ce0a56" y="9.697057"/>
    </g>
   </g>
   <g id="line2d_34">
    <path d="M 56.12 294.88 
L 56.12 273.631075 
L 68.045504 273.631075 
L 68.045504 268.598435 
L 75.021477 268.598435 
L 75.021477 260.210701 
L 79.971009 260.210701 
L 79.971009 256.855608 
L 83.810164 256.855608 
L 83.810164 253.500514 
L 89.599124 253.500514 
L 89.599124 251.263785 
L 91.896513 251.263785 
L 91.896513 249.586238 
L 95.735668 249.586238 
L 95.735668 246.231145 
L 97.375467 246.231145 
L 97.375467 244.553598 
L 98.872486 244.553598 
L 98.872486 243.435234 
L 103.822018 243.435234 
L 103.822018 242.316869 
L 104.865056 242.316869 
L 104.865056 239.520958 
L 105.848459 239.520958 
L 105.848459 238.961776 
L 110.065758 238.961776 
L 110.065758 237.843411 
L 111.500328 237.843411 
L 111.500328 236.725047 
L 112.175115 236.725047 
L 112.175115 236.165865 
L 117.773963 236.165865 
L 117.773963 235.606682 
L 119.151088 235.606682 
L 119.151088 230.01486 
L 120.830944 230.01486 
L 120.830944 229.455678 
L 121.613118 229.455678 
L 121.613118 228.337313 
L 122.723495 228.337313 
L 122.723495 227.778131 
L 124.428341 227.778131 
L 124.428341 226.659767 
L 125.680156 226.659767 
L 125.680156 226.100584 
L 126.847034 226.100584 
L 126.847034 224.98222 
L 127.402078 224.98222 
L 127.402078 223.863855 
L 129.458837 223.863855 
L 129.458837 223.304673 
L 129.93678 223.304673 
L 129.93678 222.186309 
L 131.076592 222.186309 
L 131.076592 221.627126 
L 132.145561 221.627126 
L 132.145561 221.067944 
L 133.346388 221.067944 
L 133.346388 220.508762 
L 133.728734 220.508762 
L 133.728734 219.390397 
L 135.178422 219.390397 
L 135.178422 217.712851 
L 135.522531 217.712851 
L 135.522531 216.594486 
L 136.834012 216.594486 
L 136.834012 216.035304 
L 137.755922 216.035304 
L 137.755922 214.91694 
L 138.052565 214.91694 
L 138.052565 213.798575 
L 138.630934 213.798575 
L 138.630934 213.239393 
L 138.912987 213.239393 
L 138.912987 212.680211 
L 139.46359 212.680211 
L 139.46359 212.121028 
L 139.997117 212.121028 
L 139.997117 211.002664 
L 140.514596 211.002664 
L 140.514596 210.443482 
L 141.016963 210.443482 
L 141.016963 208.765935 
L 141.140296 208.765935 
L 141.140296 206.529206 
L 148.521108 206.529206 
L 148.521108 204.851659 
L 149.681426 204.851659 
L 149.681426 203.174112 
L 150.269684 203.174112 
L 150.269684 201.496566 
L 150.908289 201.496566 
L 150.908289 200.937384 
L 159.3309 200.937384 
L 159.3309 199.819019 
L 159.500826 199.819019 
L 159.585164 195.345561 
L 159.918441 195.345561 
L 159.918441 193.108832 
L 160.645515 193.108832 
L 160.645515 190.312921 
L 161.190511 190.312921 
L 161.190511 188.635374 
L 161.718772 188.635374 
L 161.718772 187.51701 
L 162.303282 187.51701 
L 162.303282 184.721099 
L 162.517454 184.721099 
L 162.588256 183.602734 
L 170.131792 183.602734 
L 170.131792 183.043552 
L 170.267979 183.043552 
L 170.358175 179.129276 
L 170.4479 179.129276 
L 170.4479 178.010912 
L 170.714304 178.010912 
L 170.714304 174.655818 
L 171.823303 174.655818 
L 171.823303 173.537454 
L 172.069384 173.537454 
L 172.069384 172.978271 
L 172.231504 172.978271 
L 172.231504 169.063996 
L 176.870663 169.063996 
L 176.901441 166.827267 
L 176.993446 166.827267 
L 177.084961 164.031356 
L 177.115359 164.031356 
L 177.115359 157.321169 
L 177.296623 157.321169 
L 177.296623 156.761987 
L 177.91642 156.761987 
L 177.91642 156.202804 
L 181.466165 156.202804 
L 181.560245 153.406893 
L 181.583685 153.406893 
L 181.607093 151.729346 
L 181.931504 151.729346 
L 181.931504 151.170164 
L 185.560489 151.170164 
L 185.653187 149.492617 
L 185.855384 149.492617 
L 185.855384 148.933435 
L 185.982828 148.933435 
L 185.982828 145.578342 
L 188.304008 145.578342 
L 188.304008 145.019159 
L 188.508831 145.019159 
L 188.508831 143.900795 
L 188.711243 143.900795 
L 188.711243 143.341613 
L 191.186684 143.341613 
L 191.253577 139.427337 
L 191.439506 139.427337 
L 191.439506 138.308973 
L 203.81801 138.308973 
L 203.81801 137.190608 
L 236.248006 137.190608 
L 236.314785 129.362057 
L 236.444191 129.362057 
L 236.478921 122.092688 
L 236.614276 122.092688 
L 236.65439 119.296776 
L 236.780802 119.296776 
L 236.81486 108.113132 
L 236.944794 108.113132 
L 236.948545 103.639674 
L 237.109096 103.639674 
L 237.149 99.725398 
L 237.299431 99.725398 
L 237.299431 98.047851 
L 237.461307 98.047851 
L 237.461307 95.811122 
L 238.678817 95.811122 
L 238.678817 95.25194 
L 248.172778 95.25194 
L 248.273582 91.896847 
L 248.288628 91.896847 
L 248.379108 89.660118 
L 248.44125 89.660118 
L 248.527585 79.035655 
L 248.629191 79.035655 
L 248.706543 77.917291 
L 248.784492 77.917291 
L 248.784492 77.358108 
L 249.431129 77.358108 
L 249.431129 76.798926 
L 255.148506 76.798926 
L 255.225827 74.003015 
L 255.271795 74.003015 
L 255.331499 67.292828 
L 255.385216 67.292828 
L 255.454128 65.615281 
L 255.560954 65.615281 
L 255.562543 62.260188 
L 255.721062 62.260188 
L 255.721062 61.141823 
L 260.148393 61.141823 
L 260.235343 57.227548 
L 260.275754 57.227548 
L 260.327641 52.75409 
L 260.409376 52.75409 
L 260.409376 52.194907 
L 263.977391 52.194907 
L 264.079803 46.043903 
L 264.121023 46.043903 
L 264.186616 43.807174 
L 267.107435 43.807174 
L 267.19253 42.688809 
L 267.282033 42.688809 
L 267.282033 41.011263 
L 269.725874 41.011263 
L 269.829109 37.096987 
L 269.902885 37.096987 
L 269.904542 35.41944 
L 272.075054 35.41944 
L 272.092089 34.301076 
L 274.095725 34.301076 
L 274.188783 32.064347 
L 275.882564 32.064347 
L 275.933712 28.709253 
L 277.520514 28.709253 
L 277.616054 25.913342 
L 279.015991 25.913342 
L 279.103598 21.439884 
L 280.407869 21.439884 
L 280.472327 19.203155 
L 282.885884 19.203155 
L 282.886014 18.084791 
L 283.98311 18.084791 
L 283.993283 16.966426 
L 285.024118 16.966426 
L 285.065478 15.28888 
L 286.005716 15.28888 
L 286.014761 14.170515 
L 286.94289 14.170515 
L 286.971338 13.052151 
L 287.81536 13.052151 
L 287.81536 12.492968 
L 289.48463 12.492968 
L 289.48463 11.933786 
L 290.216342 11.933786 
L 290.216342 11.374604 
L 292.329192 11.374604 
L 292.329192 10.815422 
L 292.959636 10.815422 
L 292.959636 10.256239 
L 295.891347 10.256239 
L 295.891347 9.697057 
L 333.429677 9.697057 
L 333.429677 9.697057 
" style="fill:none;stroke:#ffa500;stroke-linecap:square;stroke-width:1.5;"/>
   </g>
   <g id="line2d_35">
    <defs>
     <path d="M 0 -6 
L -1.347084 -1.854102 
L -5.706339 -1.854102 
L -2.179628 0.708204 
L -3.526712 4.854102 
L -0 2.291796 
L 3.526712 4.854102 
L 2.179628 0.708204 
L 5.706339 -1.854102 
L 1.347084 -1.854102 
z
" id="ma1ed0e12df" style="stroke:#ffa500;stroke-linejoin:bevel;stroke-width:1.5;"/>
    </defs>
    <g>
     <use style="fill-opacity:0;stroke:#ffa500;stroke-linejoin:bevel;stroke-width:1.5;" x="161.718772" xlink:href="#ma1ed0e12df" y="188.635374"/>
     <use style="fill-opacity:0;stroke:#ffa500;stroke-linejoin:bevel;stroke-width:1.5;" x="236.449019" xlink:href="#ma1ed0e12df" y="126.566145"/>
     <use style="fill-opacity:0;stroke:#ffa500;stroke-linejoin:bevel;stroke-width:1.5;" x="295.891347" xlink:href="#ma1ed0e12df" y="10.256239"/>
     <use style="fill-opacity:0;stroke:#ffa500;stroke-linejoin:bevel;stroke-width:1.5;" x="295.891347" xlink:href="#ma1ed0e12df" y="9.697057"/>
     <use style="fill-opacity:0;stroke:#ffa500;stroke-linejoin:bevel;stroke-width:1.5;" x="333.429677" xlink:href="#ma1ed0e12df" y="9.697057"/>
    </g>
   </g>
   <g id="line2d_36">
    <path style="fill:none;stroke:#ffa500;stroke-linecap:square;stroke-width:1.5;"/>
    <g/>
   </g>
   <g id="line2d_37">
    <path clip-path="url(#pb53fa197d5)" d="M 236.246541 137.190608 
" style="fill:none;stroke:#ffa500;stroke-linecap:square;stroke-width:1.5;"/>
    <defs>
     <path d="M -12 12 
L 12 -12 
M -12 -12 
L 12 12 
" id="m9974d0fdec" style="stroke:#ffa500;stroke-width:3;"/>
    </defs>
    <g clip-path="url(#pb53fa197d5)">
     <use style="fill:#ffa500;stroke:#ffa500;stroke-width:3;" x="236.246541" xlink:href="#m9974d0fdec" y="137.190608"/>
    </g>
   </g>
   <g id="line2d_38">
    <defs>
     <path d="M 0 1.5 
C 0.397805 1.5 0.77937 1.341951 1.06066 1.06066 
C 1.341951 0.77937 1.5 0.397805 1.5 0 
C 1.5 -0.397805 1.341951 -0.77937 1.06066 -1.06066 
C 0.77937 -1.341951 0.397805 -1.5 0 -1.5 
C -0.397805 -1.5 -0.77937 -1.341951 -1.06066 -1.06066 
C -1.341951 -0.77937 -1.5 -0.397805 -1.5 0 
C -1.5 0.397805 -1.341951 0.77937 -1.06066 1.06066 
C -0.77937 1.341951 -0.397805 1.5 0 1.5 
z
" id="m90c14b50e5" style="stroke:#6495ed;"/>
    </defs>
    <g>
     <use style="fill:#6495ed;stroke:#6495ed;" x="305.84069" xlink:href="#m90c14b50e5" y="171.859907"/>
     <use style="fill:#6495ed;stroke:#6495ed;" x="305.84069" xlink:href="#m90c14b50e5" y="171.859907"/>
    </g>
   </g>
   <g id="line2d_39">
    <path d="M 56.12 294.88 
L 56.12 279.222897 
L 68.045504 279.222897 
L 68.045504 269.157617 
L 75.021477 269.157617 
L 75.021477 267.48007 
L 83.810164 267.48007 
L 83.810164 266.361706 
L 86.946982 266.361706 
L 86.946982 264.684159 
L 93.922955 264.684159 
L 93.922955 264.124977 
L 97.375467 264.124977 
L 97.375467 261.888248 
L 100.24961 261.888248 
L 100.24961 261.329066 
L 112.824432 261.329066 
L 112.824432 259.651519 
L 115.20129 259.651519 
L 115.20129 259.092337 
L 115.747522 259.092337 
L 115.747522 256.296425 
L 116.276944 256.296425 
L 116.276944 253.500514 
L 120.426105 253.500514 
L 120.426105 252.941332 
L 124.749936 252.941332 
L 124.749936 251.822967 
L 126.273486 251.822967 
L 126.273486 250.704603 
L 127.673027 250.704603 
L 127.673027 250.145421 
L 129.93678 250.145421 
L 129.93678 249.586238 
L 133.346388 249.586238 
L 133.346388 249.027056 
L 135.351336 249.027056 
L 135.351336 247.908692 
L 146.929256 247.908692 
L 146.929256 247.34951 
L 149.149666 247.34951 
L 149.149666 246.790327 
L 159.918441 246.790327 
L 160.000761 243.994416 
L 171.277737 243.994416 
L 171.277737 243.435234 
L 177.05451 243.435234 
L 177.05451 241.198505 
L 177.20623 241.198505 
L 177.20623 240.639323 
L 177.829233 240.639323 
L 177.829233 240.08014 
L 181.466165 240.08014 
L 181.466165 238.961776 
L 181.630469 238.961776 
L 181.630469 238.402594 
L 181.8625 238.402594 
L 181.8625 237.843411 
L 182.068686 237.843411 
L 182.068686 237.284229 
L 182.518218 237.284229 
L 182.518218 236.725047 
L 185.184616 236.725047 
L 185.184616 236.165865 
L 185.317108 236.165865 
L 185.317108 235.0475 
L 185.653187 235.0475 
L 185.653187 234.488318 
L 188.383075 234.488318 
L 188.383075 233.369954 
L 188.834631 233.369954 
L 188.834631 232.810771 
L 190.834585 232.810771 
L 190.930092 230.01486 
L 191.280262 230.01486 
L 191.280262 228.896496 
L 201.412299 228.896496 
L 201.412299 228.337313 
L 236.262651 228.337313 
L 236.262651 227.778131 
L 236.789323 227.778131 
L 236.789323 227.218949 
L 236.944794 227.218949 
L 236.987888 226.100584 
L 237.110954 226.100584 
L 237.126739 224.423038 
L 237.436712 224.423038 
L 237.439446 223.304673 
L 237.595501 223.304673 
L 237.595501 222.186309 
L 238.083463 222.186309 
L 238.083463 221.627126 
L 248.445577 221.627126 
L 248.524714 219.94958 
L 248.620628 219.94958 
L 248.620628 219.390397 
L 248.775534 219.390397 
L 248.859743 216.594486 
L 249.271963 216.594486 
L 249.271963 216.035304 
L 255.38618 216.035304 
L 255.440368 214.91694 
L 255.49949 214.91694 
L 255.609523 211.561846 
L 255.720117 211.561846 
L 255.782682 210.443482 
L 255.890301 210.443482 
L 255.890301 209.884299 
L 260.317758 209.884299 
L 260.403619 206.529206 
L 260.444834 206.529206 
L 260.528398 204.851659 
L 260.575729 204.851659 
L 260.575729 204.292477 
L 264.181416 204.292477 
L 264.215091 203.174112 
L 264.320114 203.174112 
L 264.385906 199.819019 
L 267.191884 199.819019 
L 267.191884 199.259837 
L 267.305823 199.259837 
L 267.393781 197.023108 
L 267.44803 197.023108 
L 267.448667 195.904743 
L 269.851566 195.904743 
L 269.92497 193.668014 
L 270.000535 193.668014 
L 270.047715 192.54965 
L 272.176769 192.54965 
L 272.179916 191.431285 
L 272.305176 191.431285 
L 272.305176 190.312921 
L 274.185876 190.312921 
L 274.185876 189.194556 
L 275.933323 189.194556 
L 275.987812 185.839463 
L 276.055078 185.839463 
L 276.055078 184.721099 
L 277.677433 184.721099 
L 277.707645 181.366005 
L 279.159821 181.366005 
L 279.159821 180.806823 
L 280.47285 180.806823 
L 280.483756 179.688458 
L 281.789084 179.688458 
L 281.789084 179.129276 
L 284.025405 179.129276 
L 284.025405 178.570094 
L 285.124937 178.570094 
L 285.124937 178.010912 
L 287.024367 178.010912 
L 287.024367 177.451729 
L 287.900924 177.451729 
L 287.900924 176.892547 
L 289.483435 176.892547 
L 289.483435 176.333365 
L 290.290785 176.333365 
L 290.290785 175.774183 
L 293.620628 175.774183 
L 293.620628 175.215 
L 294.228735 175.215 
L 294.228735 174.655818 
L 295.944907 174.655818 
L 295.944907 174.096636 
L 300.606649 174.096636 
L 300.606649 173.537454 
L 300.990088 173.537454 
L 300.990088 172.978271 
L 302.517645 172.978271 
L 302.517645 172.419089 
L 305.84069 172.419089 
L 305.84069 171.859907 
L 333.429677 171.859907 
L 333.429677 171.859907 
" style="fill:none;stroke:#6495ed;stroke-linecap:square;stroke-width:1.5;"/>
   </g>
   <g id="line2d_40">
    <defs>
     <path d="M -0 6 
L 6 -6 
L -6 -6 
z
" id="m68adbd7705" style="stroke:#6495ed;stroke-linejoin:miter;stroke-width:1.5;"/>
    </defs>
    <g>
     <use style="fill-opacity:0;stroke:#6495ed;stroke-linejoin:miter;stroke-width:1.5;" x="120.426105" xlink:href="#m68adbd7705" y="253.500514"/>
     <use style="fill-opacity:0;stroke:#6495ed;stroke-linejoin:miter;stroke-width:1.5;" x="201.412299" xlink:href="#m68adbd7705" y="228.896496"/>
     <use style="fill-opacity:0;stroke:#6495ed;stroke-linejoin:miter;stroke-width:1.5;" x="287.900924" xlink:href="#m68adbd7705" y="177.451729"/>
     <use style="fill-opacity:0;stroke:#6495ed;stroke-linejoin:miter;stroke-width:1.5;" x="305.84069" xlink:href="#m68adbd7705" y="171.859907"/>
     <use style="fill-opacity:0;stroke:#6495ed;stroke-linejoin:miter;stroke-width:1.5;" x="333.429677" xlink:href="#m68adbd7705" y="171.859907"/>
    </g>
   </g>
   <g id="line2d_41">
    <path style="fill:none;stroke:#6495ed;stroke-linecap:square;stroke-width:1.5;"/>
    <g/>
   </g>
   <g id="line2d_42">
    <path clip-path="url(#pb53fa197d5)" d="M 236.246541 228.337313 
" style="fill:none;stroke:#6495ed;stroke-linecap:square;stroke-width:1.5;"/>
    <defs>
     <path d="M -12 12 
L 12 -12 
M -12 -12 
L 12 12 
" id="m376be004f6" style="stroke:#6495ed;stroke-width:3;"/>
    </defs>
    <g clip-path="url(#pb53fa197d5)">
     <use style="fill:#6495ed;stroke:#6495ed;stroke-width:3;" x="236.246541" xlink:href="#m376be004f6" y="228.337313"/>
    </g>
   </g>
   <g id="line2d_43">
    <defs>
     <path d="M 0 1.5 
C 0.397805 1.5 0.77937 1.341951 1.06066 1.06066 
C 1.341951 0.77937 1.5 0.397805 1.5 0 
C 1.5 -0.397805 1.341951 -0.77937 1.06066 -1.06066 
C 0.77937 -1.341951 0.397805 -1.5 0 -1.5 
C -0.397805 -1.5 -0.77937 -1.341951 -1.06066 -1.06066 
C -1.341951 -0.77937 -1.5 -0.397805 -1.5 0 
C -1.5 0.397805 -1.341951 0.77937 -1.06066 1.06066 
C -0.77937 1.341951 -0.397805 1.5 0 1.5 
z
" id="m24b0551f82" style="stroke:#ff0000;"/>
    </defs>
    <g>
     <use style="fill:#ff0000;stroke:#ff0000;" x="309.094222" xlink:href="#m24b0551f82" y="216.594486"/>
     <use style="fill:#ff0000;stroke:#ff0000;" x="309.094222" xlink:href="#m24b0551f82" y="216.594486"/>
    </g>
   </g>
   <g id="line2d_44">
    <path d="M 56.12 294.88 
L 56.12 276.986168 
L 68.045504 276.986168 
L 68.045504 274.749439 
L 75.021477 274.749439 
L 75.021477 273.631075 
L 79.971009 273.631075 
L 79.971009 270.275981 
L 86.946982 270.275981 
L 86.946982 269.157617 
L 89.599124 269.157617 
L 89.599124 268.039252 
L 102.711641 268.039252 
L 102.711641 267.48007 
L 104.865056 267.48007 
L 104.865056 264.124977 
L 105.848459 264.124977 
L 105.848459 263.006612 
L 106.778678 263.006612 
L 106.778678 261.888248 
L 109.300972 261.888248 
L 109.300972 259.092337 
L 110.797991 259.092337 
L 110.797991 258.533154 
L 118.704183 258.533154 
L 118.704183 256.855608 
L 127.402078 256.855608 
L 127.402078 253.500514 
L 129.214792 253.500514 
L 129.214792 252.941332 
L 134.102767 252.941332 
L 134.102767 251.822967 
L 135.178422 251.822967 
L 135.178422 251.263785 
L 138.34418 251.263785 
L 138.34418 250.704603 
L 141.979724 250.704603 
L 141.979724 250.145421 
L 142.441628 250.145421 
L 142.441628 249.586238 
L 147.362651 249.586238 
L 147.362651 249.027056 
L 148.759517 249.027056 
L 148.759517 248.467874 
L 159.752609 248.467874 
L 159.752609 247.908692 
L 170.267979 247.908692 
L 170.267979 247.34951 
L 178.146781 247.34951 
L 178.146781 246.790327 
L 181.607093 246.790327 
L 181.607093 246.231145 
L 181.908533 246.231145 
L 181.908533 245.112781 
L 185.279357 245.112781 
L 185.279357 243.435234 
L 188.571366 243.435234 
L 188.571366 242.876052 
L 190.98443 242.876052 
L 190.98443 242.316869 
L 236.257283 242.316869 
L 236.281184 238.961776 
L 236.81675 238.961776 
L 236.81675 238.402594 
L 236.978529 238.402594 
L 236.978529 237.843411 
L 248.187424 237.843411 
L 248.187424 236.725047 
L 248.45663 236.725047 
L 248.544322 235.0475 
L 248.611108 235.0475 
L 248.702281 233.929136 
L 248.780721 233.929136 
L 248.780721 233.369954 
L 255.340195 233.369954 
L 255.340195 232.810771 
L 255.556185 232.810771 
L 255.556185 232.251589 
L 260.105241 232.251589 
L 260.105241 231.692407 
L 263.942858 231.692407 
L 264.051104 228.896496 
L 264.079803 228.896496 
L 264.079803 228.337313 
L 267.192854 228.337313 
L 267.192854 227.778131 
L 269.727199 227.778131 
L 269.727199 227.218949 
L 269.90178 227.218949 
L 269.90178 226.659767 
L 272.094643 226.659767 
L 272.094643 226.100584 
L 274.168746 226.100584 
L 274.18663 224.423038 
L 275.985679 224.423038 
L 275.985679 223.863855 
L 279.10198 223.863855 
L 279.10198 223.304673 
L 284.993407 223.304673 
L 285.025323 222.186309 
L 286.006854 222.186309 
L 286.006854 221.627126 
L 286.906838 221.627126 
L 286.935398 220.508762 
L 295.875024 220.508762 
L 295.875024 219.94958 
L 296.404417 219.94958 
L 296.404417 219.390397 
L 296.933973 219.390397 
L 296.933973 218.831215 
L 298.387404 218.831215 
L 298.387404 218.272033 
L 300.152043 218.272033 
L 300.152043 217.712851 
L 308.075142 217.712851 
L 308.075142 217.153669 
L 309.094222 217.153669 
L 309.094222 216.594486 
L 333.429677 216.594486 
L 333.429677 216.594486 
" style="fill:none;stroke:#ff0000;stroke-linecap:square;stroke-width:1.5;"/>
   </g>
   <g id="line2d_45">
    <defs>
     <path d="M 0 -6 
L -5.196152 -3 
L -5.196152 3 
L -0 6 
L 5.196152 3 
L 5.196152 -3 
z
" id="mc9307a7926" style="stroke:#ff0000;stroke-linejoin:miter;stroke-width:1.5;"/>
    </defs>
    <g>
     <use style="fill-opacity:0;stroke:#ff0000;stroke-linejoin:miter;stroke-width:1.5;" x="118.704183" xlink:href="#mc9307a7926" y="258.533154"/>
     <use style="fill-opacity:0;stroke:#ff0000;stroke-linejoin:miter;stroke-width:1.5;" x="190.98443" xlink:href="#mc9307a7926" y="242.876052"/>
     <use style="fill-opacity:0;stroke:#ff0000;stroke-linejoin:miter;stroke-width:1.5;" x="272.094643" xlink:href="#mc9307a7926" y="226.100584"/>
     <use style="fill-opacity:0;stroke:#ff0000;stroke-linejoin:miter;stroke-width:1.5;" x="309.094222" xlink:href="#mc9307a7926" y="216.594486"/>
     <use style="fill-opacity:0;stroke:#ff0000;stroke-linejoin:miter;stroke-width:1.5;" x="333.429677" xlink:href="#mc9307a7926" y="216.594486"/>
    </g>
   </g>
   <g id="line2d_46">
    <path style="fill:none;stroke:#ff0000;stroke-linecap:square;stroke-width:1.5;"/>
    <g/>
   </g>
   <g id="line2d_47">
    <path clip-path="url(#pb53fa197d5)" d="M 236.246541 242.316869 
" style="fill:none;stroke:#ff0000;stroke-linecap:square;stroke-width:1.5;"/>
    <defs>
     <path d="M -12 12 
L 12 -12 
M -12 -12 
L 12 12 
" id="m7cc193f21d" style="stroke:#ff0000;stroke-width:3;"/>
    </defs>
    <g clip-path="url(#pb53fa197d5)">
     <use style="fill:#ff0000;stroke:#ff0000;stroke-width:3;" x="236.246541" xlink:href="#m7cc193f21d" y="242.316869"/>
    </g>
   </g>
   <g id="line2d_48">
    <path d="M 333.429677 216.594486 
L 363.933742 289.176341 
" style="fill:none;stroke:#ff0000;stroke-linecap:square;stroke-width:1.5;"/>
    <g>
     <use style="fill-opacity:0;stroke:#ff0000;stroke-linejoin:miter;stroke-width:1.5;" x="333.429677" xlink:href="#mc9307a7926" y="216.594486"/>
     <use style="fill-opacity:0;stroke:#ff0000;stroke-linejoin:miter;stroke-width:1.5;" x="363.933742" xlink:href="#mc9307a7926" y="289.176341"/>
    </g>
   </g>
   <g id="line2d_49">
    <path d="M 333.429677 171.859907 
L 363.933742 220.732435 
" style="fill:none;stroke:#6495ed;stroke-linecap:square;stroke-width:1.5;"/>
    <g>
     <use style="fill-opacity:0;stroke:#6495ed;stroke-linejoin:miter;stroke-width:1.5;" x="333.429677" xlink:href="#m68adbd7705" y="171.859907"/>
     <use style="fill-opacity:0;stroke:#6495ed;stroke-linejoin:miter;stroke-width:1.5;" x="363.933742" xlink:href="#m68adbd7705" y="220.732435"/>
    </g>
   </g>
   <g id="line2d_50">
    <path d="M 333.429677 9.697057 
L 363.933742 152.288529 
" style="fill:none;stroke:#ffa500;stroke-linecap:square;stroke-width:1.5;"/>
    <g>
     <use style="fill-opacity:0;stroke:#ffa500;stroke-linejoin:bevel;stroke-width:1.5;" x="333.429677" xlink:href="#ma1ed0e12df" y="9.697057"/>
     <use style="fill-opacity:0;stroke:#ffa500;stroke-linejoin:bevel;stroke-width:1.5;" x="363.933742" xlink:href="#ma1ed0e12df" y="152.288529"/>
    </g>
   </g>
   <g id="line2d_51">
    <path d="M 333.429677 9.697057 
L 363.933742 83.844622 
" style="fill:none;stroke:#ff00ff;stroke-linecap:square;stroke-width:1.5;"/>
    <g>
     <use style="fill-opacity:0;stroke:#ff00ff;stroke-linejoin:miter;stroke-width:1.5;" x="333.429677" xlink:href="#m0a9da2b4ff" y="9.697057"/>
     <use style="fill-opacity:0;stroke:#ff00ff;stroke-linejoin:miter;stroke-width:1.5;" x="363.933742" xlink:href="#m0a9da2b4ff" y="83.844622"/>
    </g>
   </g>
   <g id="line2d_52">
    <path d="M 333.429677 9.697057 
L 363.933742 15.400716 
" style="fill:none;stroke:#000080;stroke-linecap:square;stroke-width:1.5;"/>
    <g>
     <use style="fill-opacity:0;stroke:#000080;stroke-width:1.5;" x="333.429677" xlink:href="#m8c4f1f135f" y="9.697057"/>
     <use style="fill-opacity:0;stroke:#000080;stroke-width:1.5;" x="363.933742" xlink:href="#m8c4f1f135f" y="15.400716"/>
    </g>
   </g>
   <g id="line2d_53">
    <path d="M 333.429677 294.88 
L 333.429677 9.697057 
" style="fill:none;stroke:#000000;stroke-linecap:square;stroke-width:1.5;"/>
   </g>
   <g id="patch_3">
    <path d="M 56.12 294.88 
L 56.12 6.845228 
" style="fill:none;stroke:#000000;stroke-linecap:square;stroke-linejoin:miter;stroke-width:0.8;"/>
   </g>
   <g id="patch_4">
    <path d="M 399.984 294.88 
L 399.984 6.845228 
" style="fill:none;stroke:#000000;stroke-linecap:square;stroke-linejoin:miter;stroke-width:0.8;"/>
   </g>
   <g id="patch_5">
    <path d="M 56.12 294.88 
L 399.984 294.88 
" style="fill:none;stroke:#000000;stroke-linecap:square;stroke-linejoin:miter;stroke-width:0.8;"/>
   </g>
   <g id="patch_6">
    <path d="M 56.12 6.845228 
L 399.984 6.845228 
" style="fill:none;stroke:#000000;stroke-linecap:square;stroke-linejoin:miter;stroke-width:0.8;"/>
   </g>
   <g id="text_14">
    <!-- f24 -->
    <g transform="translate(369.479935 293.867279)scale(0.17 -0.17)">
     <use xlink:href="#DejaVuSans-66"/>
     <use x="35.205078" xlink:href="#DejaVuSans-32"/>
     <use x="98.828125" xlink:href="#DejaVuSans-34"/>
    </g>
   </g>
   <g id="text_15">
    <!-- f23 -->
    <defs>
     <path d="M 40.578125 39.3125 
Q 47.65625 37.796875 51.625 33 
Q 55.609375 28.21875 55.609375 21.1875 
Q 55.609375 10.40625 48.1875 4.484375 
Q 40.765625 -1.421875 27.09375 -1.421875 
Q 22.515625 -1.421875 17.65625 -0.515625 
Q 12.796875 0.390625 7.625 2.203125 
L 7.625 11.71875 
Q 11.71875 9.328125 16.59375 8.109375 
Q 21.484375 6.890625 26.8125 6.890625 
Q 36.078125 6.890625 40.9375 10.546875 
Q 45.796875 14.203125 45.796875 21.1875 
Q 45.796875 27.640625 41.28125 31.265625 
Q 36.765625 34.90625 28.71875 34.90625 
L 20.21875 34.90625 
L 20.21875 43.015625 
L 29.109375 43.015625 
Q 36.375 43.015625 40.234375 45.921875 
Q 44.09375 48.828125 44.09375 54.296875 
Q 44.09375 59.90625 40.109375 62.90625 
Q 36.140625 65.921875 28.71875 65.921875 
Q 24.65625 65.921875 20.015625 65.03125 
Q 15.375 64.15625 9.8125 62.3125 
L 9.8125 71.09375 
Q 15.4375 72.65625 20.34375 73.4375 
Q 25.25 74.21875 29.59375 74.21875 
Q 40.828125 74.21875 47.359375 69.109375 
Q 53.90625 64.015625 53.90625 55.328125 
Q 53.90625 49.265625 50.4375 45.09375 
Q 46.96875 40.921875 40.578125 39.3125 
z
" id="DejaVuSans-33"/>
    </defs>
    <g transform="translate(369.479935 225.423372)scale(0.17 -0.17)">
     <use xlink:href="#DejaVuSans-66"/>
     <use x="35.205078" xlink:href="#DejaVuSans-32"/>
     <use x="98.828125" xlink:href="#DejaVuSans-33"/>
    </g>
   </g>
   <g id="text_16">
    <!-- f22 -->
    <g transform="translate(369.479935 156.979466)scale(0.17 -0.17)">
     <use xlink:href="#DejaVuSans-66"/>
     <use x="35.205078" xlink:href="#DejaVuSans-32"/>
     <use x="98.828125" xlink:href="#DejaVuSans-32"/>
    </g>
   </g>
   <g id="text_17">
    <!-- f21 -->
    <g transform="translate(369.479935 88.53556)scale(0.17 -0.17)">
     <use xlink:href="#DejaVuSans-66"/>
     <use x="35.205078" xlink:href="#DejaVuSans-32"/>
     <use x="98.828125" xlink:href="#DejaVuSans-31"/>
    </g>
   </g>
   <g id="text_18">
    <!-- f20 -->
    <g transform="translate(369.479935 20.091654)scale(0.17 -0.17)">
     <use xlink:href="#DejaVuSans-66"/>
     <use x="35.205078" xlink:href="#DejaVuSans-32"/>
     <use x="98.828125" xlink:href="#DejaVuSans-30"/>
    </g>
   </g>
   <g id="text_19">
    <!-- bbob -->
    <defs>
     <path d="M 48.6875 27.296875 
Q 48.6875 37.203125 44.609375 42.84375 
Q 40.53125 48.484375 33.40625 48.484375 
Q 26.265625 48.484375 22.1875 42.84375 
Q 18.109375 37.203125 18.109375 27.296875 
Q 18.109375 17.390625 22.1875 11.75 
Q 26.265625 6.109375 33.40625 6.109375 
Q 40.53125 6.109375 44.609375 11.75 
Q 48.6875 17.390625 48.6875 27.296875 
z
M 18.109375 46.390625 
Q 20.953125 51.265625 25.265625 53.625 
Q 29.59375 56 35.59375 56 
Q 45.5625 56 51.78125 48.09375 
Q 58.015625 40.1875 58.015625 27.296875 
Q 58.015625 14.40625 51.78125 6.484375 
Q 45.5625 -1.421875 35.59375 -1.421875 
Q 29.59375 -1.421875 25.265625 0.953125 
Q 20.953125 3.328125 18.109375 8.203125 
L 18.109375 0 
L 9.078125 0 
L 9.078125 75.984375 
L 18.109375 75.984375 
z
" id="DejaVuSans-62"/>
    </defs>
    <g transform="translate(59.55864 17.475982)scale(0.102 -0.102)">
     <use xlink:href="#DejaVuSans-62"/>
     <use x="63.476562" xlink:href="#DejaVuSans-62"/>
     <use x="126.953125" xlink:href="#DejaVuSans-6f"/>
     <use x="188.134766" xlink:href="#DejaVuSans-62"/>
    </g>
    <!-- Weak structure functions, 2-D -->
    <defs>
     <path d="M 3.328125 72.90625 
L 13.28125 72.90625 
L 28.609375 11.28125 
L 43.890625 72.90625 
L 54.984375 72.90625 
L 70.3125 11.28125 
L 85.59375 72.90625 
L 95.609375 72.90625 
L 77.296875 0 
L 64.890625 0 
L 49.515625 63.28125 
L 33.984375 0 
L 21.578125 0 
z
" id="DejaVuSans-57"/>
     <path d="M 9.078125 75.984375 
L 18.109375 75.984375 
L 18.109375 31.109375 
L 44.921875 54.6875 
L 56.390625 54.6875 
L 27.390625 29.109375 
L 57.625 0 
L 45.90625 0 
L 18.109375 26.703125 
L 18.109375 0 
L 9.078125 0 
z
" id="DejaVuSans-6b"/>
     <path d="M 19.671875 64.796875 
L 19.671875 8.109375 
L 31.59375 8.109375 
Q 46.6875 8.109375 53.6875 14.9375 
Q 60.6875 21.78125 60.6875 36.53125 
Q 60.6875 51.171875 53.6875 57.984375 
Q 46.6875 64.796875 31.59375 64.796875 
z
M 9.8125 72.90625 
L 30.078125 72.90625 
Q 51.265625 72.90625 61.171875 64.09375 
Q 71.09375 55.28125 71.09375 36.53125 
Q 71.09375 17.671875 61.125 8.828125 
Q 51.171875 0 30.078125 0 
L 9.8125 0 
z
" id="DejaVuSans-44"/>
    </defs>
    <g transform="translate(59.55864 28.89775)scale(0.102 -0.102)">
     <use xlink:href="#DejaVuSans-57"/>
     <use x="98.798828" xlink:href="#DejaVuSans-65"/>
     <use x="160.322266" xlink:href="#DejaVuSans-61"/>
     <use x="221.601562" xlink:href="#DejaVuSans-6b"/>
     <use x="279.511719" xlink:href="#DejaVuSans-20"/>
     <use x="311.298828" xlink:href="#DejaVuSans-73"/>
     <use x="363.398438" xlink:href="#DejaVuSans-74"/>
     <use x="402.607422" xlink:href="#DejaVuSans-72"/>
     <use x="443.720703" xlink:href="#DejaVuSans-75"/>
     <use x="507.099609" xlink:href="#DejaVuSans-63"/>
     <use x="562.080078" xlink:href="#DejaVuSans-74"/>
     <use x="601.289062" xlink:href="#DejaVuSans-75"/>
     <use x="664.667969" xlink:href="#DejaVuSans-72"/>
     <use x="705.75" xlink:href="#DejaVuSans-65"/>
     <use x="767.273438" xlink:href="#DejaVuSans-20"/>
     <use x="799.060547" xlink:href="#DejaVuSans-66"/>
     <use x="834.265625" xlink:href="#DejaVuSans-75"/>
     <use x="897.644531" xlink:href="#DejaVuSans-6e"/>
     <use x="961.023438" xlink:href="#DejaVuSans-63"/>
     <use x="1016.003906" xlink:href="#DejaVuSans-74"/>
     <use x="1055.212891" xlink:href="#DejaVuSans-69"/>
     <use x="1082.996094" xlink:href="#DejaVuSans-6f"/>
     <use x="1144.177734" xlink:href="#DejaVuSans-6e"/>
     <use x="1207.556641" xlink:href="#DejaVuSans-73"/>
     <use x="1259.65625" xlink:href="#DejaVuSans-2c"/>
     <use x="1291.443359" xlink:href="#DejaVuSans-20"/>
     <use x="1323.230469" xlink:href="#DejaVuSans-32"/>
     <use x="1386.853516" xlink:href="#DejaVuSans-2d"/>
     <use x="1422.9375" xlink:href="#DejaVuSans-44"/>
    </g>
    <!-- 51 targets: 100..1e-08 -->
    <defs>
     <path d="M 10.796875 72.90625 
L 49.515625 72.90625 
L 49.515625 64.59375 
L 19.828125 64.59375 
L 19.828125 46.734375 
Q 21.96875 47.46875 24.109375 47.828125 
Q 26.265625 48.1875 28.421875 48.1875 
Q 40.625 48.1875 47.75 41.5 
Q 54.890625 34.8125 54.890625 23.390625 
Q 54.890625 11.625 47.5625 5.09375 
Q 40.234375 -1.421875 26.90625 -1.421875 
Q 22.3125 -1.421875 17.546875 -0.640625 
Q 12.796875 0.140625 7.71875 1.703125 
L 7.71875 11.625 
Q 12.109375 9.234375 16.796875 8.0625 
Q 21.484375 6.890625 26.703125 6.890625 
Q 35.15625 6.890625 40.078125 11.328125 
Q 45.015625 15.765625 45.015625 23.390625 
Q 45.015625 31 40.078125 35.4375 
Q 35.15625 39.890625 26.703125 39.890625 
Q 22.75 39.890625 18.8125 39.015625 
Q 14.890625 38.140625 10.796875 36.28125 
z
" id="DejaVuSans-35"/>
     <path d="M 11.71875 12.40625 
L 22.015625 12.40625 
L 22.015625 0 
L 11.71875 0 
z
M 11.71875 51.703125 
L 22.015625 51.703125 
L 22.015625 39.3125 
L 11.71875 39.3125 
z
" id="DejaVuSans-3a"/>
    </defs>
    <g transform="translate(59.55864 40.319519)scale(0.102 -0.102)">
     <use xlink:href="#DejaVuSans-35"/>
     <use x="63.623047" xlink:href="#DejaVuSans-31"/>
     <use x="127.246094" xlink:href="#DejaVuSans-20"/>
     <use x="159.033203" xlink:href="#DejaVuSans-74"/>
     <use x="198.242188" xlink:href="#DejaVuSans-61"/>
     <use x="259.521484" xlink:href="#DejaVuSans-72"/>
     <use x="300.619141" xlink:href="#DejaVuSans-67"/>
     <use x="364.095703" xlink:href="#DejaVuSans-65"/>
     <use x="425.619141" xlink:href="#DejaVuSans-74"/>
     <use x="464.828125" xlink:href="#DejaVuSans-73"/>
     <use x="516.927734" xlink:href="#DejaVuSans-3a"/>
     <use x="550.619141" xlink:href="#DejaVuSans-20"/>
     <use x="582.40625" xlink:href="#DejaVuSans-31"/>
     <use x="646.029297" xlink:href="#DejaVuSans-30"/>
     <use x="709.652344" xlink:href="#DejaVuSans-30"/>
     <use x="773.275391" xlink:href="#DejaVuSans-2e"/>
     <use x="805.0625" xlink:href="#DejaVuSans-2e"/>
     <use x="836.849609" xlink:href="#DejaVuSans-31"/>
     <use x="900.472656" xlink:href="#DejaVuSans-65"/>
     <use x="961.996094" xlink:href="#DejaVuSans-2d"/>
     <use x="998.080078" xlink:href="#DejaVuSans-30"/>
     <use x="1061.703125" xlink:href="#DejaVuSans-38"/>
    </g>
    <!-- 15 instances -->
    <g transform="translate(59.55864 51.741288)scale(0.102 -0.102)">
     <use xlink:href="#DejaVuSans-31"/>
     <use x="63.623047" xlink:href="#DejaVuSans-35"/>
     <use x="127.246094" xlink:href="#DejaVuSans-20"/>
     <use x="159.033203" xlink:href="#DejaVuSans-69"/>
     <use x="186.816406" xlink:href="#DejaVuSans-6e"/>
     <use x="250.195312" xlink:href="#DejaVuSans-73"/>
     <use x="302.294922" xlink:href="#DejaVuSans-74"/>
     <use x="341.503906" xlink:href="#DejaVuSans-61"/>
     <use x="402.783203" xlink:href="#DejaVuSans-6e"/>
     <use x="466.162109" xlink:href="#DejaVuSans-63"/>
     <use x="521.142578" xlink:href="#DejaVuSans-65"/>
     <use x="582.666016" xlink:href="#DejaVuSans-73"/>
    </g>
   </g>
   <g id="text_20">
    <!-- v2.2.1.10 -->
    <g style="fill:#808080;" transform="translate(204.419188 289.919965)scale(0.1 -0.1)">
     <use xlink:href="#DejaVuSans-76"/>
     <use x="59.179688" xlink:href="#DejaVuSans-32"/>
     <use x="122.802734" xlink:href="#DejaVuSans-2e"/>
     <use x="154.589844" xlink:href="#DejaVuSans-32"/>
     <use x="218.212891" xlink:href="#DejaVuSans-2e"/>
     <use x="250" xlink:href="#DejaVuSans-31"/>
     <use x="313.623047" xlink:href="#DejaVuSans-2e"/>
     <use x="345.410156" xlink:href="#DejaVuSans-31"/>
     <use x="409.033203" xlink:href="#DejaVuSans-30"/>
    </g>
   </g>
  </g>
 </g>
 <defs>
  <clipPath id="pb53fa197d5">
   <rect height="288.034772" width="343.864" x="56.12" y="6.845228"/>
  </clipPath>
 </defs>
</svg>
