<?xml version="1.0" encoding="utf-8" standalone="no"?>
<!DOCTYPE svg PUBLIC "-//W3C//DTD SVG 1.1//EN"
  "http://www.w3.org/Graphics/SVG/1.1/DTD/svg11.dtd">
<!-- Created with matplotlib (http://matplotlib.org/) -->
<svg height="345.6pt" version="1.1" viewBox="0 0 460.8 345.6" width="460.8pt" xmlns="http://www.w3.org/2000/svg" xmlns:xlink="http://www.w3.org/1999/xlink">
 <defs>
  <style type="text/css">
*{stroke-linecap:butt;stroke-linejoin:round;}
  </style>
 </defs>
 <g id="figure_1">
  <g id="patch_1">
   <path d="M 0 345.6 
L 460.8 345.6 
L 460.8 0 
L 0 0 
z
" style="fill:#ffffff;"/>
  </g>
  <g id="axes_1">
   <g id="patch_2">
    <path d="M 56.12 294.88 
L 399.984 294.88 
L 399.984 6.845228 
L 56.12 6.845228 
z
" style="fill:#ffffff;"/>
   </g>
   <g id="matplotlib.axis_1">
    <g id="xtick_1">
     <g id="line2d_1">
      <path clip-path="url(#p0d51250184)" d="M 56.12 294.88 
L 56.12 6.845228 
" style="fill:none;stroke:#b0b0b0;stroke-linecap:square;stroke-width:0.8;"/>
     </g>
     <g id="line2d_2">
      <defs>
       <path d="M 0 0 
L 0 3.5 
" id="mb72987fcd3" style="stroke:#000000;stroke-width:0.8;"/>
      </defs>
      <g>
       <use style="stroke:#000000;stroke-width:0.8;" x="56.12" xlink:href="#mb72987fcd3" y="294.88"/>
      </g>
     </g>
     <g id="text_1">
      <!-- 0 -->
      <defs>
       <path d="M 31.78125 66.40625 
Q 24.171875 66.40625 20.328125 58.90625 
Q 16.5 51.421875 16.5 36.375 
Q 16.5 21.390625 20.328125 13.890625 
Q 24.171875 6.390625 31.78125 6.390625 
Q 39.453125 6.390625 43.28125 13.890625 
Q 47.125 21.390625 47.125 36.375 
Q 47.125 51.421875 43.28125 58.90625 
Q 39.453125 66.40625 31.78125 66.40625 
z
M 31.78125 74.21875 
Q 44.046875 74.21875 50.515625 64.515625 
Q 56.984375 54.828125 56.984375 36.375 
Q 56.984375 17.96875 50.515625 8.265625 
Q 44.046875 -1.421875 31.78125 -1.421875 
Q 19.53125 -1.421875 13.0625 8.265625 
Q 6.59375 17.96875 6.59375 36.375 
Q 6.59375 54.828125 13.0625 64.515625 
Q 19.53125 74.21875 31.78125 74.21875 
z
" id="DejaVuSans-30"/>
      </defs>
      <g transform="translate(49.7575 317.076875)scale(0.2 -0.2)">
       <use xlink:href="#DejaVuSans-30"/>
      </g>
     </g>
    </g>
    <g id="xtick_2">
     <g id="line2d_3">
      <path clip-path="url(#p0d51250184)" d="M 135.351336 294.88 
L 135.351336 6.845228 
" style="fill:none;stroke:#b0b0b0;stroke-linecap:square;stroke-width:0.8;"/>
     </g>
     <g id="line2d_4">
      <g>
       <use style="stroke:#000000;stroke-width:0.8;" x="135.351336" xlink:href="#mb72987fcd3" y="294.88"/>
      </g>
     </g>
     <g id="text_2">
      <!-- 2 -->
      <defs>
       <path d="M 19.1875 8.296875 
L 53.609375 8.296875 
L 53.609375 0 
L 7.328125 0 
L 7.328125 8.296875 
Q 12.9375 14.109375 22.625 23.890625 
Q 32.328125 33.6875 34.8125 36.53125 
Q 39.546875 41.84375 41.421875 45.53125 
Q 43.3125 49.21875 43.3125 52.78125 
Q 43.3125 58.59375 39.234375 62.25 
Q 35.15625 65.921875 28.609375 65.921875 
Q 23.96875 65.921875 18.8125 64.3125 
Q 13.671875 62.703125 7.8125 59.421875 
L 7.8125 69.390625 
Q 13.765625 71.78125 18.9375 73 
Q 24.125 74.21875 28.421875 74.21875 
Q 39.75 74.21875 46.484375 68.546875 
Q 53.21875 62.890625 53.21875 53.421875 
Q 53.21875 48.921875 51.53125 44.890625 
Q 49.859375 40.875 45.40625 35.40625 
Q 44.1875 33.984375 37.640625 27.21875 
Q 31.109375 20.453125 19.1875 8.296875 
z
" id="DejaVuSans-32"/>
      </defs>
      <g transform="translate(128.988836 317.076875)scale(0.2 -0.2)">
       <use xlink:href="#DejaVuSans-32"/>
      </g>
     </g>
    </g>
    <g id="xtick_3">
     <g id="line2d_5">
      <path clip-path="url(#p0d51250184)" d="M 214.582673 294.88 
L 214.582673 6.845228 
" style="fill:none;stroke:#b0b0b0;stroke-linecap:square;stroke-width:0.8;"/>
     </g>
     <g id="line2d_6">
      <g>
       <use style="stroke:#000000;stroke-width:0.8;" x="214.582673" xlink:href="#mb72987fcd3" y="294.88"/>
      </g>
     </g>
     <g id="text_3">
      <!-- 4 -->
      <defs>
       <path d="M 37.796875 64.3125 
L 12.890625 25.390625 
L 37.796875 25.390625 
z
M 35.203125 72.90625 
L 47.609375 72.90625 
L 47.609375 25.390625 
L 58.015625 25.390625 
L 58.015625 17.1875 
L 47.609375 17.1875 
L 47.609375 0 
L 37.796875 0 
L 37.796875 17.1875 
L 4.890625 17.1875 
L 4.890625 26.703125 
z
" id="DejaVuSans-34"/>
      </defs>
      <g transform="translate(208.220173 317.076875)scale(0.2 -0.2)">
       <use xlink:href="#DejaVuSans-34"/>
      </g>
     </g>
    </g>
    <g id="xtick_4">
     <g id="line2d_7">
      <path clip-path="url(#p0d51250184)" d="M 293.814009 294.88 
L 293.814009 6.845228 
" style="fill:none;stroke:#b0b0b0;stroke-linecap:square;stroke-width:0.8;"/>
     </g>
     <g id="line2d_8">
      <g>
       <use style="stroke:#000000;stroke-width:0.8;" x="293.814009" xlink:href="#mb72987fcd3" y="294.88"/>
      </g>
     </g>
     <g id="text_4">
      <!-- 6 -->
      <defs>
       <path d="M 33.015625 40.375 
Q 26.375 40.375 22.484375 35.828125 
Q 18.609375 31.296875 18.609375 23.390625 
Q 18.609375 15.53125 22.484375 10.953125 
Q 26.375 6.390625 33.015625 6.390625 
Q 39.65625 6.390625 43.53125 10.953125 
Q 47.40625 15.53125 47.40625 23.390625 
Q 47.40625 31.296875 43.53125 35.828125 
Q 39.65625 40.375 33.015625 40.375 
z
M 52.59375 71.296875 
L 52.59375 62.3125 
Q 48.875 64.0625 45.09375 64.984375 
Q 41.3125 65.921875 37.59375 65.921875 
Q 27.828125 65.921875 22.671875 59.328125 
Q 17.53125 52.734375 16.796875 39.40625 
Q 19.671875 43.65625 24.015625 45.921875 
Q 28.375 48.1875 33.59375 48.1875 
Q 44.578125 48.1875 50.953125 41.515625 
Q 57.328125 34.859375 57.328125 23.390625 
Q 57.328125 12.15625 50.6875 5.359375 
Q 44.046875 -1.421875 33.015625 -1.421875 
Q 20.359375 -1.421875 13.671875 8.265625 
Q 6.984375 17.96875 6.984375 36.375 
Q 6.984375 53.65625 15.1875 63.9375 
Q 23.390625 74.21875 37.203125 74.21875 
Q 40.921875 74.21875 44.703125 73.484375 
Q 48.484375 72.75 52.59375 71.296875 
z
" id="DejaVuSans-36"/>
      </defs>
      <g transform="translate(287.451509 317.076875)scale(0.2 -0.2)">
       <use xlink:href="#DejaVuSans-36"/>
      </g>
     </g>
    </g>
    <g id="xtick_5">
     <g id="line2d_9">
      <path clip-path="url(#p0d51250184)" d="M 373.045346 294.88 
L 373.045346 6.845228 
" style="fill:none;stroke:#b0b0b0;stroke-linecap:square;stroke-width:0.8;"/>
     </g>
     <g id="line2d_10">
      <g>
       <use style="stroke:#000000;stroke-width:0.8;" x="373.045346" xlink:href="#mb72987fcd3" y="294.88"/>
      </g>
     </g>
     <g id="text_5">
      <!-- 8 -->
      <defs>
       <path d="M 31.78125 34.625 
Q 24.75 34.625 20.71875 30.859375 
Q 16.703125 27.09375 16.703125 20.515625 
Q 16.703125 13.921875 20.71875 10.15625 
Q 24.75 6.390625 31.78125 6.390625 
Q 38.8125 6.390625 42.859375 10.171875 
Q 46.921875 13.96875 46.921875 20.515625 
Q 46.921875 27.09375 42.890625 30.859375 
Q 38.875 34.625 31.78125 34.625 
z
M 21.921875 38.8125 
Q 15.578125 40.375 12.03125 44.71875 
Q 8.5 49.078125 8.5 55.328125 
Q 8.5 64.0625 14.71875 69.140625 
Q 20.953125 74.21875 31.78125 74.21875 
Q 42.671875 74.21875 48.875 69.140625 
Q 55.078125 64.0625 55.078125 55.328125 
Q 55.078125 49.078125 51.53125 44.71875 
Q 48 40.375 41.703125 38.8125 
Q 48.828125 37.15625 52.796875 32.3125 
Q 56.78125 27.484375 56.78125 20.515625 
Q 56.78125 9.90625 50.3125 4.234375 
Q 43.84375 -1.421875 31.78125 -1.421875 
Q 19.734375 -1.421875 13.25 4.234375 
Q 6.78125 9.90625 6.78125 20.515625 
Q 6.78125 27.484375 10.78125 32.3125 
Q 14.796875 37.15625 21.921875 38.8125 
z
M 18.3125 54.390625 
Q 18.3125 48.734375 21.84375 45.5625 
Q 25.390625 42.390625 31.78125 42.390625 
Q 38.140625 42.390625 41.71875 45.5625 
Q 45.3125 48.734375 45.3125 54.390625 
Q 45.3125 60.0625 41.71875 63.234375 
Q 38.140625 66.40625 31.78125 66.40625 
Q 25.390625 66.40625 21.84375 63.234375 
Q 18.3125 60.0625 18.3125 54.390625 
z
" id="DejaVuSans-38"/>
      </defs>
      <g transform="translate(366.682846 317.076875)scale(0.2 -0.2)">
       <use xlink:href="#DejaVuSans-38"/>
      </g>
     </g>
    </g>
    <g id="text_6">
     <!-- log10(# f-evals / dimension) -->
     <defs>
      <path d="M 9.421875 75.984375 
L 18.40625 75.984375 
L 18.40625 0 
L 9.421875 0 
z
" id="DejaVuSans-6c"/>
      <path d="M 30.609375 48.390625 
Q 23.390625 48.390625 19.1875 42.75 
Q 14.984375 37.109375 14.984375 27.296875 
Q 14.984375 17.484375 19.15625 11.84375 
Q 23.34375 6.203125 30.609375 6.203125 
Q 37.796875 6.203125 41.984375 11.859375 
Q 46.1875 17.53125 46.1875 27.296875 
Q 46.1875 37.015625 41.984375 42.703125 
Q 37.796875 48.390625 30.609375 48.390625 
z
M 30.609375 56 
Q 42.328125 56 49.015625 48.375 
Q 55.71875 40.765625 55.71875 27.296875 
Q 55.71875 13.875 49.015625 6.21875 
Q 42.328125 -1.421875 30.609375 -1.421875 
Q 18.84375 -1.421875 12.171875 6.21875 
Q 5.515625 13.875 5.515625 27.296875 
Q 5.515625 40.765625 12.171875 48.375 
Q 18.84375 56 30.609375 56 
z
" id="DejaVuSans-6f"/>
      <path d="M 45.40625 27.984375 
Q 45.40625 37.75 41.375 43.109375 
Q 37.359375 48.484375 30.078125 48.484375 
Q 22.859375 48.484375 18.828125 43.109375 
Q 14.796875 37.75 14.796875 27.984375 
Q 14.796875 18.265625 18.828125 12.890625 
Q 22.859375 7.515625 30.078125 7.515625 
Q 37.359375 7.515625 41.375 12.890625 
Q 45.40625 18.265625 45.40625 27.984375 
z
M 54.390625 6.78125 
Q 54.390625 -7.171875 48.1875 -13.984375 
Q 42 -20.796875 29.203125 -20.796875 
Q 24.46875 -20.796875 20.265625 -20.09375 
Q 16.0625 -19.390625 12.109375 -17.921875 
L 12.109375 -9.1875 
Q 16.0625 -11.328125 19.921875 -12.34375 
Q 23.78125 -13.375 27.78125 -13.375 
Q 36.625 -13.375 41.015625 -8.765625 
Q 45.40625 -4.15625 45.40625 5.171875 
L 45.40625 9.625 
Q 42.625 4.78125 38.28125 2.390625 
Q 33.9375 0 27.875 0 
Q 17.828125 0 11.671875 7.65625 
Q 5.515625 15.328125 5.515625 27.984375 
Q 5.515625 40.671875 11.671875 48.328125 
Q 17.828125 56 27.875 56 
Q 33.9375 56 38.28125 53.609375 
Q 42.625 51.21875 45.40625 46.390625 
L 45.40625 54.6875 
L 54.390625 54.6875 
z
" id="DejaVuSans-67"/>
      <path d="M 12.40625 8.296875 
L 28.515625 8.296875 
L 28.515625 63.921875 
L 10.984375 60.40625 
L 10.984375 69.390625 
L 28.421875 72.90625 
L 38.28125 72.90625 
L 38.28125 8.296875 
L 54.390625 8.296875 
L 54.390625 0 
L 12.40625 0 
z
" id="DejaVuSans-31"/>
      <path d="M 31 75.875 
Q 24.46875 64.65625 21.28125 53.65625 
Q 18.109375 42.671875 18.109375 31.390625 
Q 18.109375 20.125 21.3125 9.0625 
Q 24.515625 -2 31 -13.1875 
L 23.1875 -13.1875 
Q 15.875 -1.703125 12.234375 9.375 
Q 8.59375 20.453125 8.59375 31.390625 
Q 8.59375 42.28125 12.203125 53.3125 
Q 15.828125 64.359375 23.1875 75.875 
z
" id="DejaVuSans-28"/>
      <path d="M 51.125 44 
L 36.921875 44 
L 32.8125 27.6875 
L 47.125 27.6875 
z
M 43.796875 71.78125 
L 38.71875 51.515625 
L 52.984375 51.515625 
L 58.109375 71.78125 
L 65.921875 71.78125 
L 60.890625 51.515625 
L 76.125 51.515625 
L 76.125 44 
L 58.984375 44 
L 54.984375 27.6875 
L 70.515625 27.6875 
L 70.515625 20.21875 
L 53.078125 20.21875 
L 48 0 
L 40.1875 0 
L 45.21875 20.21875 
L 30.90625 20.21875 
L 25.875 0 
L 18.015625 0 
L 23.09375 20.21875 
L 7.71875 20.21875 
L 7.71875 27.6875 
L 24.90625 27.6875 
L 29 44 
L 13.28125 44 
L 13.28125 51.515625 
L 30.90625 51.515625 
L 35.890625 71.78125 
z
" id="DejaVuSans-23"/>
      <path id="DejaVuSans-20"/>
      <path d="M 37.109375 75.984375 
L 37.109375 68.5 
L 28.515625 68.5 
Q 23.6875 68.5 21.796875 66.546875 
Q 19.921875 64.59375 19.921875 59.515625 
L 19.921875 54.6875 
L 34.71875 54.6875 
L 34.71875 47.703125 
L 19.921875 47.703125 
L 19.921875 0 
L 10.890625 0 
L 10.890625 47.703125 
L 2.296875 47.703125 
L 2.296875 54.6875 
L 10.890625 54.6875 
L 10.890625 58.5 
Q 10.890625 67.625 15.140625 71.796875 
Q 19.390625 75.984375 28.609375 75.984375 
z
" id="DejaVuSans-66"/>
      <path d="M 4.890625 31.390625 
L 31.203125 31.390625 
L 31.203125 23.390625 
L 4.890625 23.390625 
z
" id="DejaVuSans-2d"/>
      <path d="M 56.203125 29.59375 
L 56.203125 25.203125 
L 14.890625 25.203125 
Q 15.484375 15.921875 20.484375 11.0625 
Q 25.484375 6.203125 34.421875 6.203125 
Q 39.59375 6.203125 44.453125 7.46875 
Q 49.3125 8.734375 54.109375 11.28125 
L 54.109375 2.78125 
Q 49.265625 0.734375 44.1875 -0.34375 
Q 39.109375 -1.421875 33.890625 -1.421875 
Q 20.796875 -1.421875 13.15625 6.1875 
Q 5.515625 13.8125 5.515625 26.8125 
Q 5.515625 40.234375 12.765625 48.109375 
Q 20.015625 56 32.328125 56 
Q 43.359375 56 49.78125 48.890625 
Q 56.203125 41.796875 56.203125 29.59375 
z
M 47.21875 32.234375 
Q 47.125 39.59375 43.09375 43.984375 
Q 39.0625 48.390625 32.421875 48.390625 
Q 24.90625 48.390625 20.390625 44.140625 
Q 15.875 39.890625 15.1875 32.171875 
z
" id="DejaVuSans-65"/>
      <path d="M 2.984375 54.6875 
L 12.5 54.6875 
L 29.59375 8.796875 
L 46.6875 54.6875 
L 56.203125 54.6875 
L 35.6875 0 
L 23.484375 0 
z
" id="DejaVuSans-76"/>
      <path d="M 34.28125 27.484375 
Q 23.390625 27.484375 19.1875 25 
Q 14.984375 22.515625 14.984375 16.5 
Q 14.984375 11.71875 18.140625 8.90625 
Q 21.296875 6.109375 26.703125 6.109375 
Q 34.1875 6.109375 38.703125 11.40625 
Q 43.21875 16.703125 43.21875 25.484375 
L 43.21875 27.484375 
z
M 52.203125 31.203125 
L 52.203125 0 
L 43.21875 0 
L 43.21875 8.296875 
Q 40.140625 3.328125 35.546875 0.953125 
Q 30.953125 -1.421875 24.3125 -1.421875 
Q 15.921875 -1.421875 10.953125 3.296875 
Q 6 8.015625 6 15.921875 
Q 6 25.140625 12.171875 29.828125 
Q 18.359375 34.515625 30.609375 34.515625 
L 43.21875 34.515625 
L 43.21875 35.40625 
Q 43.21875 41.609375 39.140625 45 
Q 35.0625 48.390625 27.6875 48.390625 
Q 23 48.390625 18.546875 47.265625 
Q 14.109375 46.140625 10.015625 43.890625 
L 10.015625 52.203125 
Q 14.9375 54.109375 19.578125 55.046875 
Q 24.21875 56 28.609375 56 
Q 40.484375 56 46.34375 49.84375 
Q 52.203125 43.703125 52.203125 31.203125 
z
" id="DejaVuSans-61"/>
      <path d="M 44.28125 53.078125 
L 44.28125 44.578125 
Q 40.484375 46.53125 36.375 47.5 
Q 32.28125 48.484375 27.875 48.484375 
Q 21.1875 48.484375 17.84375 46.4375 
Q 14.5 44.390625 14.5 40.28125 
Q 14.5 37.15625 16.890625 35.375 
Q 19.28125 33.59375 26.515625 31.984375 
L 29.59375 31.296875 
Q 39.15625 29.25 43.1875 25.515625 
Q 47.21875 21.78125 47.21875 15.09375 
Q 47.21875 7.46875 41.1875 3.015625 
Q 35.15625 -1.421875 24.609375 -1.421875 
Q 20.21875 -1.421875 15.453125 -0.5625 
Q 10.6875 0.296875 5.421875 2 
L 5.421875 11.28125 
Q 10.40625 8.6875 15.234375 7.390625 
Q 20.0625 6.109375 24.8125 6.109375 
Q 31.15625 6.109375 34.5625 8.28125 
Q 37.984375 10.453125 37.984375 14.40625 
Q 37.984375 18.0625 35.515625 20.015625 
Q 33.0625 21.96875 24.703125 23.78125 
L 21.578125 24.515625 
Q 13.234375 26.265625 9.515625 29.90625 
Q 5.8125 33.546875 5.8125 39.890625 
Q 5.8125 47.609375 11.28125 51.796875 
Q 16.75 56 26.8125 56 
Q 31.78125 56 36.171875 55.265625 
Q 40.578125 54.546875 44.28125 53.078125 
z
" id="DejaVuSans-73"/>
      <path d="M 25.390625 72.90625 
L 33.6875 72.90625 
L 8.296875 -9.28125 
L 0 -9.28125 
z
" id="DejaVuSans-2f"/>
      <path d="M 45.40625 46.390625 
L 45.40625 75.984375 
L 54.390625 75.984375 
L 54.390625 0 
L 45.40625 0 
L 45.40625 8.203125 
Q 42.578125 3.328125 38.25 0.953125 
Q 33.9375 -1.421875 27.875 -1.421875 
Q 17.96875 -1.421875 11.734375 6.484375 
Q 5.515625 14.40625 5.515625 27.296875 
Q 5.515625 40.1875 11.734375 48.09375 
Q 17.96875 56 27.875 56 
Q 33.9375 56 38.25 53.625 
Q 42.578125 51.265625 45.40625 46.390625 
z
M 14.796875 27.296875 
Q 14.796875 17.390625 18.875 11.75 
Q 22.953125 6.109375 30.078125 6.109375 
Q 37.203125 6.109375 41.296875 11.75 
Q 45.40625 17.390625 45.40625 27.296875 
Q 45.40625 37.203125 41.296875 42.84375 
Q 37.203125 48.484375 30.078125 48.484375 
Q 22.953125 48.484375 18.875 42.84375 
Q 14.796875 37.203125 14.796875 27.296875 
z
" id="DejaVuSans-64"/>
      <path d="M 9.421875 54.6875 
L 18.40625 54.6875 
L 18.40625 0 
L 9.421875 0 
z
M 9.421875 75.984375 
L 18.40625 75.984375 
L 18.40625 64.59375 
L 9.421875 64.59375 
z
" id="DejaVuSans-69"/>
      <path d="M 52 44.1875 
Q 55.375 50.25 60.0625 53.125 
Q 64.75 56 71.09375 56 
Q 79.640625 56 84.28125 50.015625 
Q 88.921875 44.046875 88.921875 33.015625 
L 88.921875 0 
L 79.890625 0 
L 79.890625 32.71875 
Q 79.890625 40.578125 77.09375 44.375 
Q 74.3125 48.1875 68.609375 48.1875 
Q 61.625 48.1875 57.5625 43.546875 
Q 53.515625 38.921875 53.515625 30.90625 
L 53.515625 0 
L 44.484375 0 
L 44.484375 32.71875 
Q 44.484375 40.625 41.703125 44.40625 
Q 38.921875 48.1875 33.109375 48.1875 
Q 26.21875 48.1875 22.15625 43.53125 
Q 18.109375 38.875 18.109375 30.90625 
L 18.109375 0 
L 9.078125 0 
L 9.078125 54.6875 
L 18.109375 54.6875 
L 18.109375 46.1875 
Q 21.1875 51.21875 25.484375 53.609375 
Q 29.78125 56 35.6875 56 
Q 41.65625 56 45.828125 52.96875 
Q 50 49.953125 52 44.1875 
z
" id="DejaVuSans-6d"/>
      <path d="M 54.890625 33.015625 
L 54.890625 0 
L 45.90625 0 
L 45.90625 32.71875 
Q 45.90625 40.484375 42.875 44.328125 
Q 39.84375 48.1875 33.796875 48.1875 
Q 26.515625 48.1875 22.3125 43.546875 
Q 18.109375 38.921875 18.109375 30.90625 
L 18.109375 0 
L 9.078125 0 
L 9.078125 54.6875 
L 18.109375 54.6875 
L 18.109375 46.1875 
Q 21.34375 51.125 25.703125 53.5625 
Q 30.078125 56 35.796875 56 
Q 45.21875 56 50.046875 50.171875 
Q 54.890625 44.34375 54.890625 33.015625 
z
" id="DejaVuSans-6e"/>
      <path d="M 8.015625 75.875 
L 15.828125 75.875 
Q 23.140625 64.359375 26.78125 53.3125 
Q 30.421875 42.28125 30.421875 31.390625 
Q 30.421875 20.453125 26.78125 9.375 
Q 23.140625 -1.703125 15.828125 -13.1875 
L 8.015625 -13.1875 
Q 14.5 -2 17.703125 9.0625 
Q 20.90625 20.125 20.90625 31.390625 
Q 20.90625 42.671875 17.703125 53.65625 
Q 14.5 64.65625 8.015625 75.875 
z
" id="DejaVuSans-29"/>
     </defs>
     <g transform="translate(107.211219 338.153594)scale(0.17 -0.17)">
      <use xlink:href="#DejaVuSans-6c"/>
      <use x="27.783203" xlink:href="#DejaVuSans-6f"/>
      <use x="88.964844" xlink:href="#DejaVuSans-67"/>
      <use x="152.441406" xlink:href="#DejaVuSans-31"/>
      <use x="216.064453" xlink:href="#DejaVuSans-30"/>
      <use x="279.6875" xlink:href="#DejaVuSans-28"/>
      <use x="318.701172" xlink:href="#DejaVuSans-23"/>
      <use x="402.490234" xlink:href="#DejaVuSans-20"/>
      <use x="434.277344" xlink:href="#DejaVuSans-66"/>
      <use x="469.404297" xlink:href="#DejaVuSans-2d"/>
      <use x="505.488281" xlink:href="#DejaVuSans-65"/>
      <use x="567.011719" xlink:href="#DejaVuSans-76"/>
      <use x="626.191406" xlink:href="#DejaVuSans-61"/>
      <use x="687.470703" xlink:href="#DejaVuSans-6c"/>
      <use x="715.253906" xlink:href="#DejaVuSans-73"/>
      <use x="767.353516" xlink:href="#DejaVuSans-20"/>
      <use x="799.140625" xlink:href="#DejaVuSans-2f"/>
      <use x="832.832031" xlink:href="#DejaVuSans-20"/>
      <use x="864.619141" xlink:href="#DejaVuSans-64"/>
      <use x="928.095703" xlink:href="#DejaVuSans-69"/>
      <use x="955.878906" xlink:href="#DejaVuSans-6d"/>
      <use x="1053.291016" xlink:href="#DejaVuSans-65"/>
      <use x="1114.814453" xlink:href="#DejaVuSans-6e"/>
      <use x="1178.193359" xlink:href="#DejaVuSans-73"/>
      <use x="1230.292969" xlink:href="#DejaVuSans-69"/>
      <use x="1258.076172" xlink:href="#DejaVuSans-6f"/>
      <use x="1319.257812" xlink:href="#DejaVuSans-6e"/>
      <use x="1382.636719" xlink:href="#DejaVuSans-29"/>
     </g>
    </g>
   </g>
   <g id="matplotlib.axis_2">
    <g id="ytick_1">
     <g id="line2d_11">
      <path clip-path="url(#p0d51250184)" d="M 56.12 294.88 
L 399.984 294.88 
" style="fill:none;stroke:#b0b0b0;stroke-linecap:square;stroke-width:0.8;"/>
     </g>
     <g id="line2d_12">
      <defs>
       <path d="M 0 0 
L -3.5 0 
" id="mfb0c25121c" style="stroke:#000000;stroke-width:0.8;"/>
      </defs>
      <g>
       <use style="stroke:#000000;stroke-width:0.8;" x="56.12" xlink:href="#mfb0c25121c" y="294.88"/>
      </g>
     </g>
     <g id="text_7">
      <!-- 0.0 -->
      <defs>
       <path d="M 10.6875 12.40625 
L 21 12.40625 
L 21 0 
L 10.6875 0 
z
" id="DejaVuSans-2e"/>
      </defs>
      <g transform="translate(23.675 300.95875)scale(0.16 -0.16)">
       <use xlink:href="#DejaVuSans-30"/>
       <use x="63.623047" xlink:href="#DejaVuSans-2e"/>
       <use x="95.410156" xlink:href="#DejaVuSans-30"/>
      </g>
     </g>
    </g>
    <g id="ytick_2">
     <g id="line2d_13">
      <path clip-path="url(#p0d51250184)" d="M 56.12 237.843411 
L 399.984 237.843411 
" style="fill:none;stroke:#b0b0b0;stroke-linecap:square;stroke-width:0.8;"/>
     </g>
     <g id="line2d_14">
      <g>
       <use style="stroke:#000000;stroke-width:0.8;" x="56.12" xlink:href="#mfb0c25121c" y="237.843411"/>
      </g>
     </g>
     <g id="text_8">
      <!-- 0.2 -->
      <g transform="translate(23.675 243.922161)scale(0.16 -0.16)">
       <use xlink:href="#DejaVuSans-30"/>
       <use x="63.623047" xlink:href="#DejaVuSans-2e"/>
       <use x="95.410156" xlink:href="#DejaVuSans-32"/>
      </g>
     </g>
    </g>
    <g id="ytick_3">
     <g id="line2d_15">
      <path clip-path="url(#p0d51250184)" d="M 56.12 180.806823 
L 399.984 180.806823 
" style="fill:none;stroke:#b0b0b0;stroke-linecap:square;stroke-width:0.8;"/>
     </g>
     <g id="line2d_16">
      <g>
       <use style="stroke:#000000;stroke-width:0.8;" x="56.12" xlink:href="#mfb0c25121c" y="180.806823"/>
      </g>
     </g>
     <g id="text_9">
      <!-- 0.4 -->
      <g transform="translate(23.675 186.885573)scale(0.16 -0.16)">
       <use xlink:href="#DejaVuSans-30"/>
       <use x="63.623047" xlink:href="#DejaVuSans-2e"/>
       <use x="95.410156" xlink:href="#DejaVuSans-34"/>
      </g>
     </g>
    </g>
    <g id="ytick_4">
     <g id="line2d_17">
      <path clip-path="url(#p0d51250184)" d="M 56.12 123.770234 
L 399.984 123.770234 
" style="fill:none;stroke:#b0b0b0;stroke-linecap:square;stroke-width:0.8;"/>
     </g>
     <g id="line2d_18">
      <g>
       <use style="stroke:#000000;stroke-width:0.8;" x="56.12" xlink:href="#mfb0c25121c" y="123.770234"/>
      </g>
     </g>
     <g id="text_10">
      <!-- 0.6 -->
      <g transform="translate(23.675 129.848984)scale(0.16 -0.16)">
       <use xlink:href="#DejaVuSans-30"/>
       <use x="63.623047" xlink:href="#DejaVuSans-2e"/>
       <use x="95.410156" xlink:href="#DejaVuSans-36"/>
      </g>
     </g>
    </g>
    <g id="ytick_5">
     <g id="line2d_19">
      <path clip-path="url(#p0d51250184)" d="M 56.12 66.733646 
L 399.984 66.733646 
" style="fill:none;stroke:#b0b0b0;stroke-linecap:square;stroke-width:0.8;"/>
     </g>
     <g id="line2d_20">
      <g>
       <use style="stroke:#000000;stroke-width:0.8;" x="56.12" xlink:href="#mfb0c25121c" y="66.733646"/>
      </g>
     </g>
     <g id="text_11">
      <!-- 0.8 -->
      <g transform="translate(23.675 72.812396)scale(0.16 -0.16)">
       <use xlink:href="#DejaVuSans-30"/>
       <use x="63.623047" xlink:href="#DejaVuSans-2e"/>
       <use x="95.410156" xlink:href="#DejaVuSans-38"/>
      </g>
     </g>
    </g>
    <g id="ytick_6">
     <g id="line2d_21">
      <path clip-path="url(#p0d51250184)" d="M 56.12 9.697057 
L 399.984 9.697057 
" style="fill:none;stroke:#b0b0b0;stroke-linecap:square;stroke-width:0.8;"/>
     </g>
     <g id="line2d_22">
      <g>
       <use style="stroke:#000000;stroke-width:0.8;" x="56.12" xlink:href="#mfb0c25121c" y="9.697057"/>
      </g>
     </g>
     <g id="text_12">
      <!-- 1.0 -->
      <g transform="translate(23.675 15.775807)scale(0.16 -0.16)">
       <use xlink:href="#DejaVuSans-31"/>
       <use x="63.623047" xlink:href="#DejaVuSans-2e"/>
       <use x="95.410156" xlink:href="#DejaVuSans-30"/>
      </g>
     </g>
    </g>
    <g id="text_13">
     <!-- Fraction of function,target pairs -->
     <defs>
      <path d="M 9.8125 72.90625 
L 51.703125 72.90625 
L 51.703125 64.59375 
L 19.671875 64.59375 
L 19.671875 43.109375 
L 48.578125 43.109375 
L 48.578125 34.8125 
L 19.671875 34.8125 
L 19.671875 0 
L 9.8125 0 
z
" id="DejaVuSans-46"/>
      <path d="M 41.109375 46.296875 
Q 39.59375 47.171875 37.8125 47.578125 
Q 36.03125 48 33.890625 48 
Q 26.265625 48 22.1875 43.046875 
Q 18.109375 38.09375 18.109375 28.8125 
L 18.109375 0 
L 9.078125 0 
L 9.078125 54.6875 
L 18.109375 54.6875 
L 18.109375 46.1875 
Q 20.953125 51.171875 25.484375 53.578125 
Q 30.03125 56 36.53125 56 
Q 37.453125 56 38.578125 55.875 
Q 39.703125 55.765625 41.0625 55.515625 
z
" id="DejaVuSans-72"/>
      <path d="M 48.78125 52.59375 
L 48.78125 44.1875 
Q 44.96875 46.296875 41.140625 47.34375 
Q 37.3125 48.390625 33.40625 48.390625 
Q 24.65625 48.390625 19.8125 42.84375 
Q 14.984375 37.3125 14.984375 27.296875 
Q 14.984375 17.28125 19.8125 11.734375 
Q 24.65625 6.203125 33.40625 6.203125 
Q 37.3125 6.203125 41.140625 7.25 
Q 44.96875 8.296875 48.78125 10.40625 
L 48.78125 2.09375 
Q 45.015625 0.34375 40.984375 -0.53125 
Q 36.96875 -1.421875 32.421875 -1.421875 
Q 20.0625 -1.421875 12.78125 6.34375 
Q 5.515625 14.109375 5.515625 27.296875 
Q 5.515625 40.671875 12.859375 48.328125 
Q 20.21875 56 33.015625 56 
Q 37.15625 56 41.109375 55.140625 
Q 45.0625 54.296875 48.78125 52.59375 
z
" id="DejaVuSans-63"/>
      <path d="M 18.3125 70.21875 
L 18.3125 54.6875 
L 36.8125 54.6875 
L 36.8125 47.703125 
L 18.3125 47.703125 
L 18.3125 18.015625 
Q 18.3125 11.328125 20.140625 9.421875 
Q 21.96875 7.515625 27.59375 7.515625 
L 36.8125 7.515625 
L 36.8125 0 
L 27.59375 0 
Q 17.1875 0 13.234375 3.875 
Q 9.28125 7.765625 9.28125 18.015625 
L 9.28125 47.703125 
L 2.6875 47.703125 
L 2.6875 54.6875 
L 9.28125 54.6875 
L 9.28125 70.21875 
z
" id="DejaVuSans-74"/>
      <path d="M 8.5 21.578125 
L 8.5 54.6875 
L 17.484375 54.6875 
L 17.484375 21.921875 
Q 17.484375 14.15625 20.5 10.265625 
Q 23.53125 6.390625 29.59375 6.390625 
Q 36.859375 6.390625 41.078125 11.03125 
Q 45.3125 15.671875 45.3125 23.6875 
L 45.3125 54.6875 
L 54.296875 54.6875 
L 54.296875 0 
L 45.3125 0 
L 45.3125 8.40625 
Q 42.046875 3.421875 37.71875 1 
Q 33.40625 -1.421875 27.6875 -1.421875 
Q 18.265625 -1.421875 13.375 4.4375 
Q 8.5 10.296875 8.5 21.578125 
z
M 31.109375 56 
z
" id="DejaVuSans-75"/>
      <path d="M 11.71875 12.40625 
L 22.015625 12.40625 
L 22.015625 4 
L 14.015625 -11.625 
L 7.71875 -11.625 
L 11.71875 4 
z
" id="DejaVuSans-2c"/>
      <path d="M 18.109375 8.203125 
L 18.109375 -20.796875 
L 9.078125 -20.796875 
L 9.078125 54.6875 
L 18.109375 54.6875 
L 18.109375 46.390625 
Q 20.953125 51.265625 25.265625 53.625 
Q 29.59375 56 35.59375 56 
Q 45.5625 56 51.78125 48.09375 
Q 58.015625 40.1875 58.015625 27.296875 
Q 58.015625 14.40625 51.78125 6.484375 
Q 45.5625 -1.421875 35.59375 -1.421875 
Q 29.59375 -1.421875 25.265625 0.953125 
Q 20.953125 3.328125 18.109375 8.203125 
z
M 48.6875 27.296875 
Q 48.6875 37.203125 44.609375 42.84375 
Q 40.53125 48.484375 33.40625 48.484375 
Q 26.265625 48.484375 22.1875 42.84375 
Q 18.109375 37.203125 18.109375 27.296875 
Q 18.109375 17.390625 22.1875 11.75 
Q 26.265625 6.109375 33.40625 6.109375 
Q 40.53125 6.109375 44.609375 11.75 
Q 48.6875 17.390625 48.6875 27.296875 
z
" id="DejaVuSans-70"/>
     </defs>
     <g transform="translate(16.139531 286.001989)rotate(-90)scale(0.17 -0.17)">
      <use xlink:href="#DejaVuSans-46"/>
      <use x="57.410156" xlink:href="#DejaVuSans-72"/>
      <use x="98.523438" xlink:href="#DejaVuSans-61"/>
      <use x="159.802734" xlink:href="#DejaVuSans-63"/>
      <use x="214.783203" xlink:href="#DejaVuSans-74"/>
      <use x="253.992188" xlink:href="#DejaVuSans-69"/>
      <use x="281.775391" xlink:href="#DejaVuSans-6f"/>
      <use x="342.957031" xlink:href="#DejaVuSans-6e"/>
      <use x="406.335938" xlink:href="#DejaVuSans-20"/>
      <use x="438.123047" xlink:href="#DejaVuSans-6f"/>
      <use x="499.304688" xlink:href="#DejaVuSans-66"/>
      <use x="534.509766" xlink:href="#DejaVuSans-20"/>
      <use x="566.296875" xlink:href="#DejaVuSans-66"/>
      <use x="601.501953" xlink:href="#DejaVuSans-75"/>
      <use x="664.880859" xlink:href="#DejaVuSans-6e"/>
      <use x="728.259766" xlink:href="#DejaVuSans-63"/>
      <use x="783.240234" xlink:href="#DejaVuSans-74"/>
      <use x="822.449219" xlink:href="#DejaVuSans-69"/>
      <use x="850.232422" xlink:href="#DejaVuSans-6f"/>
      <use x="911.414062" xlink:href="#DejaVuSans-6e"/>
      <use x="974.792969" xlink:href="#DejaVuSans-2c"/>
      <use x="1006.580078" xlink:href="#DejaVuSans-74"/>
      <use x="1045.789062" xlink:href="#DejaVuSans-61"/>
      <use x="1107.068359" xlink:href="#DejaVuSans-72"/>
      <use x="1148.166016" xlink:href="#DejaVuSans-67"/>
      <use x="1211.642578" xlink:href="#DejaVuSans-65"/>
      <use x="1273.166016" xlink:href="#DejaVuSans-74"/>
      <use x="1312.375" xlink:href="#DejaVuSans-20"/>
      <use x="1344.162109" xlink:href="#DejaVuSans-70"/>
      <use x="1407.638672" xlink:href="#DejaVuSans-61"/>
      <use x="1468.917969" xlink:href="#DejaVuSans-69"/>
      <use x="1496.701172" xlink:href="#DejaVuSans-72"/>
      <use x="1537.814453" xlink:href="#DejaVuSans-73"/>
     </g>
    </g>
   </g>
   <g id="line2d_23">
    <defs>
     <path d="M 0 1.5 
C 0.397805 1.5 0.77937 1.341951 1.06066 1.06066 
C 1.341951 0.77937 1.5 0.397805 1.5 0 
C 1.5 -0.397805 1.341951 -0.77937 1.06066 -1.06066 
C 0.77937 -1.341951 0.397805 -1.5 0 -1.5 
C -0.397805 -1.5 -0.77937 -1.341951 -1.06066 -1.06066 
C -1.341951 -0.77937 -1.5 -0.397805 -1.5 0 
C -1.5 0.397805 -1.341951 0.77937 -1.06066 1.06066 
C -0.77937 1.341951 -0.397805 1.5 0 1.5 
z
" id="m2ec49f4afb" style="stroke:#000080;"/>
    </defs>
    <g>
     <use style="fill:#000080;stroke:#000080;" x="151.023991" xlink:href="#m2ec49f4afb" y="9.697057"/>
     <use style="fill:#000080;stroke:#000080;" x="151.023991" xlink:href="#m2ec49f4afb" y="9.697057"/>
    </g>
   </g>
   <g id="line2d_24">
    <path d="M 49.144027 294.88 
L 49.144027 268.039252 
L 109.814588 268.039252 
L 109.814588 267.48007 
L 111.72821 267.48007 
L 111.72821 266.361706 
L 112.175115 266.361706 
L 112.175115 265.802523 
L 112.610704 265.802523 
L 112.610704 264.684159 
L 113.035537 264.684159 
L 113.035537 262.44743 
L 113.450132 262.44743 
L 113.450132 261.329066 
L 114.250503 261.329066 
L 114.250503 257.973972 
L 114.637146 257.973972 
L 114.637146 256.296425 
L 115.01529 256.296425 
L 115.01529 255.178061 
L 115.385301 255.178061 
L 115.385301 251.822967 
L 115.747522 251.822967 
L 115.747522 250.145421 
L 117.452368 250.145421 
L 117.452368 249.027056 
L 118.089658 249.027056 
L 118.089658 248.467874 
L 128.202449 248.467874 
L 128.202449 247.908692 
L 128.883919 247.908692 
L 128.883919 246.790327 
L 129.050151 246.790327 
L 129.050151 244.553598 
L 130.015162 244.553598 
L 130.015162 243.435234 
L 130.170864 243.435234 
L 130.170864 242.876052 
L 130.325168 242.876052 
L 130.325168 241.198505 
L 130.478102 241.198505 
L 130.478102 238.961776 
L 130.629687 238.961776 
L 130.629687 236.165865 
L 131.654961 236.165865 
L 131.654961 235.606682 
L 131.796566 235.606682 
L 131.796566 233.929136 
L 132.35161 233.929136 
L 132.35161 232.810771 
L 133.021144 232.810771 
L 133.021144 232.251589 
L 133.281829 232.251589 
L 133.281829 231.692407 
L 133.538623 231.692407 
L 133.538623 230.574042 
L 133.79164 230.574042 
L 133.79164 230.01486 
L 134.648999 230.01486 
L 134.648999 229.455678 
L 135.579219 229.455678 
L 135.579219 228.896496 
L 136.026124 228.896496 
L 136.026124 227.778131 
L 136.245297 227.778131 
L 136.245297 226.659767 
L 136.675441 226.659767 
L 136.675441 226.100584 
L 137.403248 226.100584 
L 137.504752 223.863855 
L 137.70598 223.863855 
L 137.70598 223.304673 
L 138.003478 223.304673 
L 138.101512 221.627126 
L 138.19899 221.627126 
L 138.19899 221.067944 
L 138.488154 221.067944 
L 138.488154 219.94958 
L 138.772539 219.94958 
L 138.866299 217.153669 
L 138.95955 217.153669 
L 139.052299 216.035304 
L 139.23631 216.035304 
L 139.327583 214.357757 
L 139.418374 214.357757 
L 139.508688 213.239393 
L 139.687907 213.239393 
L 139.776821 209.884299 
L 139.865278 209.884299 
L 139.865278 208.765935 
L 140.04084 208.765935 
L 140.127953 206.529206 
L 140.300868 206.529206 
L 140.386678 198.700655 
L 140.557025 198.700655 
L 140.557025 197.58229 
L 140.725701 197.58229 
L 140.809423 194.786379 
L 140.89274 194.786379 
L 140.975655 191.990468 
L 141.058173 191.990468 
L 141.140296 188.076192 
L 141.303377 188.076192 
L 141.303377 184.721099 
L 141.464926 184.721099 
L 141.545135 181.366005 
L 141.704441 181.366005 
L 141.783544 177.451729 
L 141.862285 177.451729 
L 141.940667 174.655818 
L 142.018694 174.655818 
L 142.096368 172.978271 
L 142.173693 172.978271 
L 142.250673 169.063996 
L 142.327309 169.063996 
L 142.403606 162.353809 
L 142.479566 162.353809 
L 142.479566 158.998715 
L 142.630487 158.998715 
L 142.705453 156.202804 
L 142.780095 156.202804 
L 142.854414 153.406893 
L 143.002096 153.406893 
L 143.002096 152.288529 
L 143.148522 152.288529 
L 143.22127 146.696706 
L 143.293711 146.696706 
L 143.293711 144.459977 
L 143.437686 144.459977 
L 143.509224 141.104884 
L 143.580466 141.104884 
L 143.651414 137.190608 
L 143.72207 137.190608 
L 143.72207 134.953879 
L 143.862519 134.953879 
L 143.862519 132.157968 
L 144.00183 132.157968 
L 144.071065 129.362057 
L 144.140023 129.362057 
L 144.208705 125.447781 
L 144.277114 125.447781 
L 144.345252 120.974323 
L 144.413122 120.974323 
L 144.480724 115.941683 
L 144.615138 115.941683 
L 144.681953 109.790678 
L 144.74851 109.790678 
L 144.81481 107.553949 
L 144.880856 107.553949 
L 144.946649 103.639674 
L 145.012191 103.639674 
L 145.077485 98.607033 
L 145.142532 98.607033 
L 145.207333 95.811122 
L 145.400287 95.811122 
L 145.464127 94.133576 
L 145.527731 94.133576 
L 145.591101 90.2193 
L 145.654238 90.2193 
L 145.717145 84.627477 
L 145.779822 84.627477 
L 145.842271 81.831566 
L 145.904495 81.831566 
L 145.904495 76.798926 
L 146.089828 76.798926 
L 146.151164 74.003015 
L 146.212283 74.003015 
L 146.273185 66.733646 
L 146.394347 66.733646 
L 146.454609 65.615281 
L 146.693569 65.615281 
L 146.693569 63.937735 
L 146.811816 63.937735 
L 146.870636 59.464277 
L 146.929256 59.464277 
L 146.929256 58.345912 
L 147.0459 58.345912 
L 147.0459 57.227548 
L 147.161758 57.227548 
L 147.219395 55.550001 
L 147.276841 55.550001 
L 147.276841 54.990819 
L 147.391159 54.990819 
L 147.448035 50.517361 
L 147.504723 50.517361 
L 147.504723 48.839814 
L 147.617542 48.839814 
L 147.673676 46.603085 
L 147.785396 46.603085 
L 147.896396 43.807174 
L 147.951628 43.807174 
L 147.951628 43.247992 
L 148.27935 43.247992 
L 148.387217 38.215351 
L 148.494413 38.215351 
L 148.494413 32.623529 
L 148.812051 32.623529 
L 148.864425 29.268436 
L 149.020597 29.268436 
L 149.072341 27.031707 
L 149.175364 27.031707 
L 149.226646 23.117431 
L 149.328752 23.117431 
L 149.430256 20.880702 
L 149.480784 20.880702 
L 149.581398 15.848062 
L 149.731223 15.848062 
L 149.731223 15.28888 
L 149.978069 15.28888 
L 149.978069 13.611333 
L 150.173027 13.611333 
L 150.221424 12.492968 
L 150.461384 12.492968 
L 150.556439 10.256239 
L 151.023991 10.256239 
L 151.023991 9.697057 
L 333.429677 9.697057 
L 333.429677 9.697057 
" style="fill:none;stroke:#000080;stroke-linecap:square;stroke-width:1.5;"/>
   </g>
   <g id="line2d_25">
    <defs>
     <path d="M 0 6 
C 1.591219 6 3.117479 5.367802 4.242641 4.242641 
C 5.367802 3.117479 6 1.591219 6 0 
C 6 -1.591219 5.367802 -3.117479 4.242641 -4.242641 
C 3.117479 -5.367802 1.591219 -6 0 -6 
C -1.591219 -6 -3.117479 -5.367802 -4.242641 -4.242641 
C -5.367802 -3.117479 -6 -1.591219 -6 0 
C -6 1.591219 -5.367802 3.117479 -4.242641 4.242641 
C -3.117479 5.367802 -1.591219 6 0 6 
z
" id="m5595a33a6a" style="stroke:#000080;stroke-width:1.5;"/>
    </defs>
    <g>
     <use style="fill-opacity:0;stroke:#000080;stroke-width:1.5;" x="141.464926" xlink:href="#m5595a33a6a" y="183.602734"/>
     <use style="fill-opacity:0;stroke:#000080;stroke-width:1.5;" x="146.151164" xlink:href="#m5595a33a6a" y="75.121379"/>
     <use style="fill-opacity:0;stroke:#000080;stroke-width:1.5;" x="151.023991" xlink:href="#m5595a33a6a" y="10.256239"/>
     <use style="fill-opacity:0;stroke:#000080;stroke-width:1.5;" x="151.023991" xlink:href="#m5595a33a6a" y="9.697057"/>
     <use style="fill-opacity:0;stroke:#000080;stroke-width:1.5;" x="151.023991" xlink:href="#m5595a33a6a" y="9.697057"/>
     <use style="fill-opacity:0;stroke:#000080;stroke-width:1.5;" x="333.429677" xlink:href="#m5595a33a6a" y="9.697057"/>
    </g>
   </g>
   <g id="line2d_26">
    <path style="fill:none;stroke:#000080;stroke-linecap:square;stroke-width:1.5;"/>
    <g/>
   </g>
   <g id="line2d_27">
    <defs>
     <path d="M 0 1.5 
C 0.397805 1.5 0.77937 1.341951 1.06066 1.06066 
C 1.341951 0.77937 1.5 0.397805 1.5 0 
C 1.5 -0.397805 1.341951 -0.77937 1.06066 -1.06066 
C 0.77937 -1.341951 0.397805 -1.5 0 -1.5 
C -0.397805 -1.5 -0.77937 -1.341951 -1.06066 -1.06066 
C -1.341951 -0.77937 -1.5 -0.397805 -1.5 0 
C -1.5 0.397805 -1.341951 0.77937 -1.06066 1.06066 
C -0.77937 1.341951 -0.397805 1.5 0 1.5 
z
" id="m194a58a5e0" style="stroke:#ff00ff;"/>
    </defs>
    <g>
     <use style="fill:#ff00ff;stroke:#ff00ff;" x="207.116321" xlink:href="#m194a58a5e0" y="9.697057"/>
     <use style="fill:#ff00ff;stroke:#ff00ff;" x="207.116321" xlink:href="#m194a58a5e0" y="9.697057"/>
    </g>
   </g>
   <g id="line2d_28">
    <path d="M 125.579247 294.88 
L 125.579247 294.320818 
L 126.56265 294.320818 
L 126.56265 292.643271 
L 126.940794 292.643271 
L 126.940794 291.524907 
L 132.214518 291.524907 
L 132.214518 290.406542 
L 133.538623 290.406542 
L 133.538623 289.288178 
L 135.293891 289.288178 
L 135.293891 288.728995 
L 136.781317 288.728995 
L 136.886546 287.610631 
L 137.095092 287.610631 
L 137.095092 287.051449 
L 138.003478 287.051449 
L 138.003478 286.492266 
L 139.776821 286.492266 
L 139.776821 285.933084 
L 139.953283 285.933084 
L 139.953283 283.696355 
L 140.557025 283.696355 
L 140.641569 282.018808 
L 140.89274 282.018808 
L 140.89274 279.782079 
L 141.303377 279.782079 
L 141.303377 278.663715 
L 142.250673 278.663715 
L 142.250673 276.986168 
L 142.479566 276.986168 
L 142.479566 275.867804 
L 143.22127 275.867804 
L 143.22127 275.308622 
L 144.480724 275.308622 
L 144.480724 273.631075 
L 145.077485 273.631075 
L 145.077485 273.071893 
L 145.207333 273.071893 
L 145.207333 271.953528 
L 145.400287 271.953528 
L 145.400287 269.716799 
L 145.873411 269.716799 
L 145.873411 269.157617 
L 146.454609 269.157617 
L 146.454609 268.039252 
L 146.870636 268.039252 
L 146.929256 266.361706 
L 147.0459 266.361706 
L 147.0459 265.802523 
L 147.391159 265.802523 
L 147.391159 265.243341 
L 147.504723 265.243341 
L 147.504723 263.565795 
L 147.951628 263.565795 
L 147.951628 263.006612 
L 148.333368 263.006612 
L 148.333368 262.44743 
L 148.680414 262.44743 
L 148.680414 261.888248 
L 149.303282 261.888248 
L 149.328752 260.769883 
L 149.480784 260.769883 
L 149.480784 260.210701 
L 150.027016 260.210701 
L 150.027016 259.651519 
L 150.341822 259.651519 
L 150.341822 259.092337 
L 150.650971 259.092337 
L 150.650971 258.533154 
L 150.815163 258.533154 
L 150.815163 257.41479 
L 151.023991 257.41479 
L 151.023991 256.855608 
L 151.966344 256.855608 
L 151.966344 255.178061 
L 152.140132 255.178061 
L 152.140132 254.618879 
L 152.461328 254.618879 
L 152.482529 252.941332 
L 152.901159 252.941332 
L 152.942468 249.586238 
L 153.188256 249.586238 
L 153.28964 248.467874 
L 153.430582 248.467874 
L 153.430582 247.34951 
L 153.629945 247.34951 
L 153.669542 246.231145 
L 153.768138 246.231145 
L 153.866171 243.435234 
L 154.291004 243.435234 
L 154.310068 242.316869 
L 154.593515 242.316869 
L 154.686969 240.08014 
L 154.853918 240.08014 
L 154.853918 239.520958 
L 155.110439 239.520958 
L 155.164913 237.284229 
L 155.576918 237.284229 
L 155.576918 235.606682 
L 155.753019 235.606682 
L 155.822957 234.488318 
L 155.892613 234.488318 
L 155.99657 232.810771 
L 156.134209 232.810771 
L 156.236721 231.133225 
L 156.355552 231.133225 
L 156.456757 226.100584 
L 156.590778 226.100584 
L 156.690613 224.423038 
L 156.740314 224.423038 
L 156.839288 223.304673 
L 157.084259 223.304673 
L 157.084259 222.745491 
L 157.229585 222.745491 
L 157.309795 221.627126 
L 157.65834 221.627126 
L 157.65834 221.067944 
L 157.938353 221.067944 
L 157.938353 220.508762 
L 158.153033 220.508762 
L 158.168265 219.390397 
L 158.455146 219.390397 
L 158.455146 218.831215 
L 158.633899 218.831215 
L 158.633899 218.272033 
L 158.752044 218.272033 
L 158.810814 217.153669 
L 158.956867 217.153669 
L 159.043907 215.476122 
L 159.072822 215.476122 
L 159.072822 214.91694 
L 159.302415 214.91694 
L 159.401907 212.680211 
L 159.543047 212.680211 
L 159.59918 211.561846 
L 159.835725 211.561846 
L 159.835725 211.002664 
L 159.987068 211.002664 
L 160.069061 209.325117 
L 160.150665 209.325117 
L 160.177781 208.206753 
L 160.299275 208.206753 
L 160.379797 206.529206 
L 160.446613 206.529206 
L 160.52645 204.851659 
L 160.56623 204.851659 
L 160.619127 203.733295 
L 160.737555 203.733295 
L 160.763762 202.055748 
L 161.062307 202.055748 
L 161.062307 201.496566 
L 161.177734 201.496566 
L 161.177734 200.937384 
L 161.317767 200.937384 
L 161.33044 199.819019 
L 161.519438 199.819019 
L 161.519438 199.259837 
L 161.743527 199.259837 
L 161.743527 198.700655 
L 161.866772 198.700655 
L 161.964736 196.463926 
L 162.001329 196.463926 
L 162.049999 195.345561 
L 162.171075 195.345561 
L 162.255325 193.668014 
L 162.315251 193.668014 
L 162.398799 192.54965 
L 162.47009 192.54965 
L 162.529274 191.431285 
L 162.611792 191.431285 
L 162.693915 190.312921 
L 162.833793 190.312921 
L 162.880167 188.076192 
L 162.972543 188.076192 
L 162.972543 187.51701 
L 163.133016 187.51701 
L 163.212694 186.398645 
L 163.314599 186.398645 
L 163.393443 184.161916 
L 163.438335 184.161916 
L 163.516615 182.48437 
L 163.727313 182.48437 
L 163.782333 181.366005 
L 163.848126 181.366005 
L 163.913668 179.688458 
L 163.978962 179.688458 
L 164.087237 178.010912 
L 164.248383 178.010912 
L 164.354981 176.892547 
L 164.450358 176.892547 
L 164.450358 176.333365 
L 164.618622 176.333365 
L 164.660432 174.655818 
L 164.826664 174.655818 
L 164.857654 173.537454 
L 164.940024 173.537454 
L 164.960555 172.419089 
L 165.062843 172.419089 
L 165.164527 171.300725 
L 165.215144 171.300725 
L 165.22525 170.18236 
L 165.505825 170.18236 
L 165.545536 168.504814 
L 165.654272 168.504814 
L 165.723111 166.827267 
L 165.850229 166.827267 
L 165.927991 165.708902 
L 166.254615 165.708902 
L 166.311616 163.472173 
L 166.425055 163.472173 
L 166.500268 161.794627 
L 166.547109 161.794627 
L 166.56581 160.11708 
L 166.723953 160.11708 
L 166.807091 158.439533 
L 166.862293 158.439533 
L 166.898997 157.321169 
L 166.999531 157.321169 
L 166.999531 156.761987 
L 167.162783 156.761987 
L 167.261791 155.643622 
L 167.324501 155.643622 
L 167.404793 153.406893 
L 167.528953 153.406893 
L 167.608299 150.610982 
L 167.678523 150.610982 
L 167.687281 149.492617 
L 167.982427 149.492617 
L 168.042569 147.815071 
L 168.128123 147.815071 
L 168.213254 146.137524 
L 168.382262 146.137524 
L 168.466147 143.900795 
L 168.541296 143.900795 
L 168.591213 142.78243 
L 168.665819 142.78243 
L 168.773015 141.104884 
L 169.03407 141.104884 
L 169.106784 139.986519 
L 169.163127 139.986519 
L 169.251296 138.868155 
L 169.457916 138.868155 
L 169.552448 136.631426 
L 169.685486 136.631426 
L 169.685486 136.072244 
L 169.825238 136.072244 
L 169.933154 134.394697 
L 169.963863 134.394697 
L 170.032759 133.276332 
L 170.131792 133.276332 
L 170.20002 132.157968 
L 170.267979 132.157968 
L 170.267979 131.598786 
L 170.403096 131.598786 
L 170.410571 130.480421 
L 170.574216 130.480421 
L 170.574216 129.921239 
L 170.728984 129.921239 
L 170.816801 128.243692 
L 170.976645 128.243692 
L 170.976645 127.68451 
L 171.256405 127.68451 
L 171.277737 126.566145 
L 171.461522 126.566145 
L 171.475578 125.447781 
L 171.664222 125.447781 
L 171.664222 124.888599 
L 171.802637 124.888599 
L 171.864562 123.211052 
L 171.933107 123.211052 
L 172.02181 119.296776 
L 172.07617 119.296776 
L 172.177634 117.61923 
L 172.258376 117.61923 
L 172.345422 116.500865 
L 172.385449 116.500865 
L 172.485111 114.264136 
L 172.57761 114.264136 
L 172.663059 113.145772 
L 172.910428 113.145772 
L 172.910428 112.586589 
L 173.071253 112.586589 
L 173.128783 110.909043 
L 173.205193 110.909043 
L 173.293911 109.231496 
L 173.363298 109.231496 
L 173.469986 108.113132 
L 173.563575 108.113132 
L 173.607077 106.994767 
L 173.675215 106.994767 
L 173.675215 106.435585 
L 173.914644 106.435585 
L 173.914644 105.876403 
L 174.06639 105.876403 
L 174.06639 104.758038 
L 174.204825 104.758038 
L 174.204825 104.198856 
L 174.915312 104.198856 
L 174.915312 103.639674 
L 175.13252 103.639674 
L 175.13252 103.080491 
L 175.285201 103.080491 
L 175.341408 101.962127 
L 175.43654 101.962127 
L 175.43654 101.402945 
L 175.630759 101.402945 
L 175.641792 100.28458 
L 175.779102 100.28458 
L 175.779102 99.725398 
L 175.899035 99.725398 
L 175.899035 99.166216 
L 176.028924 99.166216 
L 176.104243 97.488669 
L 176.16854 97.488669 
L 176.221938 95.25194 
L 176.638057 95.25194 
L 176.7263 94.133576 
L 176.901441 94.133576 
L 176.973043 91.896847 
L 177.236414 91.896847 
L 177.316646 90.778482 
L 177.356623 90.778482 
L 177.361613 89.660118 
L 177.785473 89.660118 
L 177.785473 89.100935 
L 177.897083 89.100935 
L 177.979114 86.864206 
L 178.132473 86.864206 
L 178.23712 85.18666 
L 178.364687 85.18666 
L 178.364687 84.627477 
L 178.579868 84.627477 
L 178.667967 82.949931 
L 178.810747 82.949931 
L 178.879411 81.272384 
L 179.006855 81.272384 
L 179.083773 79.035655 
L 179.119852 79.035655 
L 179.223158 77.917291 
L 179.272346 77.917291 
L 179.374743 76.239744 
L 179.551386 76.239744 
L 179.612785 74.562197 
L 179.834618 74.562197 
L 179.834618 74.003015 
L 180.002346 74.003015 
L 180.002346 73.443833 
L 180.155734 73.443833 
L 180.155734 72.88465 
L 180.295148 72.88465 
L 180.295148 72.325468 
L 180.429267 72.325468 
L 180.483455 70.647921 
L 180.902806 70.647921 
L 180.902806 70.088739 
L 181.092649 70.088739 
L 181.104696 68.970375 
L 181.630469 68.970375 
L 181.708161 67.85201 
L 181.973537 67.85201 
L 182.034493 66.174463 
L 182.174632 66.174463 
L 182.201017 65.056099 
L 182.317381 65.056099 
L 182.380861 63.937735 
L 182.54039 63.937735 
L 182.56622 62.81937 
L 182.793326 62.81937 
L 182.887679 61.701006 
L 183.078426 61.701006 
L 183.153424 60.582641 
L 183.224548 60.582641 
L 183.298913 59.464277 
L 183.358879 59.464277 
L 183.404595 58.345912 
L 183.641763 58.345912 
L 183.641763 57.78673 
L 183.755691 57.78673 
L 183.755691 57.227548 
L 183.96432 57.227548 
L 183.96432 56.668365 
L 184.254221 56.668365 
L 184.267587 55.550001 
L 184.39736 55.550001 
L 184.39736 54.990819 
L 184.575445 54.990819 
L 184.618044 53.872454 
L 184.715947 53.872454 
L 184.715947 53.313272 
L 184.897223 53.313272 
L 184.929394 51.635725 
L 185.232052 51.635725 
L 185.329673 49.958178 
L 185.650105 49.958178 
L 185.650105 49.398996 
L 185.809638 49.398996 
L 185.809638 48.839814 
L 186.019068 48.839814 
L 186.019068 48.280632 
L 186.612091 48.280632 
L 186.655754 47.162267 
L 186.725386 47.162267 
L 186.812032 45.484721 
L 186.869554 45.484721 
L 186.944046 44.366356 
L 187.289344 44.366356 
L 187.353672 43.247992 
L 187.414978 43.247992 
L 187.414978 42.688809 
L 187.699135 42.688809 
L 187.699135 42.129627 
L 187.981366 42.129627 
L 188.002886 41.011263 
L 188.311932 41.011263 
L 188.311932 40.45208 
L 188.597355 40.45208 
L 188.597355 39.892898 
L 188.718981 39.892898 
L 188.824383 38.774534 
L 188.985094 38.774534 
L 188.985094 38.215351 
L 189.187031 38.215351 
L 189.187031 37.656169 
L 189.319521 37.656169 
L 189.319521 37.096987 
L 189.693929 37.096987 
L 189.786272 35.978622 
L 189.931075 35.978622 
L 189.931075 35.41944 
L 190.100865 35.41944 
L 190.100865 34.860258 
L 190.607341 34.860258 
L 190.715599 33.182711 
L 191.15314 33.182711 
L 191.15314 32.623529 
L 191.770924 32.623529 
L 191.822674 30.945982 
L 191.996192 30.945982 
L 191.996192 30.3868 
L 192.136294 30.3868 
L 192.136294 29.827618 
L 192.504416 29.827618 
L 192.504416 29.268436 
L 192.840491 29.268436 
L 192.840491 28.709253 
L 192.957793 28.709253 
L 192.957793 28.150071 
L 193.100306 28.150071 
L 193.100306 27.590889 
L 193.532597 27.590889 
L 193.532597 27.031707 
L 193.670446 27.031707 
L 193.670446 26.472524 
L 194.064264 26.472524 
L 194.069933 25.35416 
L 194.634931 25.35416 
L 194.66416 24.235795 
L 195.012876 24.235795 
L 195.025392 23.117431 
L 195.164242 23.117431 
L 195.203203 21.999066 
L 195.301981 21.999066 
L 195.301981 21.439884 
L 195.789246 21.439884 
L 195.789246 20.880702 
L 197.770225 20.880702 
L 197.770225 20.32152 
L 198.249567 20.32152 
L 198.30431 19.203155 
L 198.782133 19.203155 
L 198.782133 18.643973 
L 201.176408 18.643973 
L 201.256228 17.525609 
L 201.484896 17.525609 
L 201.484896 16.966426 
L 202.43901 16.966426 
L 202.51435 15.848062 
L 202.653727 15.848062 
L 202.653727 15.28888 
L 202.852194 15.28888 
L 202.852194 14.729697 
L 203.138977 14.729697 
L 203.138977 14.170515 
L 203.760016 14.170515 
L 203.760016 13.611333 
L 203.93022 13.611333 
L 203.966398 12.492968 
L 204.646867 12.492968 
L 204.713151 11.374604 
L 205.211703 11.374604 
L 205.211703 10.815422 
L 205.497044 10.815422 
L 205.497044 10.256239 
L 207.116321 10.256239 
L 207.116321 9.697057 
L 333.429677 9.697057 
L 333.429677 9.697057 
" style="fill:none;stroke:#ff00ff;stroke-linecap:square;stroke-width:1.5;"/>
   </g>
   <g id="line2d_29">
    <defs>
     <path d="M -0 8.485281 
L 5.091169 0 
L 0 -8.485281 
L -5.091169 -0 
z
" id="meb25b80ed4" style="stroke:#ff00ff;stroke-linejoin:miter;stroke-width:1.5;"/>
    </defs>
    <g>
     <use style="fill-opacity:0;stroke:#ff00ff;stroke-linejoin:miter;stroke-width:1.5;" x="167.982427" xlink:href="#meb25b80ed4" y="148.933435"/>
     <use style="fill-opacity:0;stroke:#ff00ff;stroke-linejoin:miter;stroke-width:1.5;" x="204.646867" xlink:href="#meb25b80ed4" y="12.492968"/>
     <use style="fill-opacity:0;stroke:#ff00ff;stroke-linejoin:miter;stroke-width:1.5;" x="207.116321" xlink:href="#meb25b80ed4" y="9.697057"/>
     <use style="fill-opacity:0;stroke:#ff00ff;stroke-linejoin:miter;stroke-width:1.5;" x="207.116321" xlink:href="#meb25b80ed4" y="9.697057"/>
     <use style="fill-opacity:0;stroke:#ff00ff;stroke-linejoin:miter;stroke-width:1.5;" x="333.429677" xlink:href="#meb25b80ed4" y="9.697057"/>
    </g>
   </g>
   <g id="line2d_30">
    <path style="fill:none;stroke:#ff00ff;stroke-linecap:square;stroke-width:1.5;"/>
    <g/>
   </g>
   <g id="line2d_31">
    <path clip-path="url(#p0d51250184)" d="M 131.440345 291.524907 
" style="fill:none;stroke:#ff00ff;stroke-linecap:square;stroke-width:1.5;"/>
    <defs>
     <path d="M -12 12 
L 12 -12 
M -12 -12 
L 12 12 
" id="m597dd8b75c" style="stroke:#ff00ff;stroke-width:3;"/>
    </defs>
    <g clip-path="url(#p0d51250184)">
     <use style="fill:#ff00ff;stroke:#ff00ff;stroke-width:3;" x="131.440345" xlink:href="#m597dd8b75c" y="291.524907"/>
    </g>
   </g>
   <g id="line2d_32">
    <defs>
     <path d="M 0 1.5 
C 0.397805 1.5 0.77937 1.341951 1.06066 1.06066 
C 1.341951 0.77937 1.5 0.397805 1.5 0 
C 1.5 -0.397805 1.341951 -0.77937 1.06066 -1.06066 
C 0.77937 -1.341951 0.397805 -1.5 0 -1.5 
C -0.397805 -1.5 -0.77937 -1.341951 -1.06066 -1.06066 
C -1.341951 -0.77937 -1.5 -0.397805 -1.5 0 
C -1.5 0.397805 -1.341951 0.77937 -1.06066 1.06066 
C -0.77937 1.341951 -0.397805 1.5 0 1.5 
z
" id="m26e2fa52fd" style="stroke:#ffa500;"/>
    </defs>
    <g>
     <use style="fill:#ffa500;stroke:#ffa500;" x="177.540315" xlink:href="#m26e2fa52fd" y="261.329066"/>
     <use style="fill:#ffa500;stroke:#ffa500;" x="177.540315" xlink:href="#m26e2fa52fd" y="261.329066"/>
    </g>
   </g>
   <g id="line2d_33">
    <path d="M 49.144027 294.88 
L 49.144027 288.169813 
L 94.548655 288.169813 
L 94.548655 287.610631 
L 103.822018 287.610631 
L 103.822018 287.051449 
L 107.077901 287.051449 
L 107.077901 285.373902 
L 110.313314 285.373902 
L 110.313314 284.81472 
L 110.797991 284.81472 
L 110.797991 283.696355 
L 120.963801 283.696355 
L 120.963801 283.137173 
L 121.485201 283.137173 
L 121.485201 282.018808 
L 121.740092 282.018808 
L 121.740092 281.459626 
L 123.878618 281.459626 
L 123.878618 280.900444 
L 126.273486 280.900444 
L 126.273486 280.341262 
L 129.539422 280.341262 
L 129.539422 279.782079 
L 129.858039 279.782079 
L 129.858039 279.222897 
L 131.512181 279.222897 
L 131.512181 278.663715 
L 131.796566 278.663715 
L 131.796566 278.104533 
L 132.55522 278.104533 
L 132.55522 277.545351 
L 132.622558 277.545351 
L 132.622558 276.426986 
L 133.916767 276.426986 
L 133.916767 275.867804 
L 135.970891 275.867804 
L 135.970891 275.308622 
L 138.052565 275.308622 
L 138.052565 274.749439 
L 138.772539 274.749439 
L 138.772539 274.190257 
L 141.099283 274.190257 
L 141.099283 273.631075 
L 141.545135 273.631075 
L 141.545135 273.071893 
L 141.979724 273.071893 
L 141.979724 272.51271 
L 142.173693 272.51271 
L 142.173693 271.953528 
L 142.441628 271.953528 
L 142.441628 271.394346 
L 143.184934 271.394346 
L 143.184934 270.835164 
L 143.257529 270.835164 
L 143.257529 270.275981 
L 145.207333 270.275981 
L 145.207333 269.716799 
L 145.432237 269.716799 
L 145.432237 269.157617 
L 147.561225 269.157617 
L 147.561225 268.598435 
L 151.047038 268.598435 
L 151.047038 268.039252 
L 152.839011 268.039252 
L 152.839011 267.48007 
L 152.901159 267.48007 
L 152.901159 266.920888 
L 156.304725 266.920888 
L 156.304725 266.361706 
L 156.640768 266.361706 
L 156.640768 265.802523 
L 156.674014 265.802523 
L 156.674014 265.243341 
L 162.658767 265.243341 
L 162.658767 264.684159 
L 169.560303 264.684159 
L 169.560303 264.124977 
L 170.154564 264.124977 
L 170.154564 263.565795 
L 172.02181 263.565795 
L 172.02181 263.006612 
L 173.344402 263.006612 
L 173.344402 262.44743 
L 176.48122 262.44743 
L 176.48122 261.888248 
L 177.540315 261.888248 
L 177.540315 261.329066 
L 333.429677 261.329066 
" style="fill:none;stroke:#ffa500;stroke-linecap:square;stroke-width:1.5;"/>
   </g>
   <g id="line2d_34">
    <defs>
     <path d="M 0 -6 
L -1.347084 -1.854102 
L -5.706339 -1.854102 
L -2.179628 0.708204 
L -3.526712 4.854102 
L -0 2.291796 
L 3.526712 4.854102 
L 2.179628 0.708204 
L 5.706339 -1.854102 
L 1.347084 -1.854102 
z
" id="m9a3abe6f86" style="stroke:#ffa500;stroke-linejoin:bevel;stroke-width:1.5;"/>
    </defs>
    <g>
     <use style="fill-opacity:0;stroke:#ffa500;stroke-linejoin:bevel;stroke-width:1.5;" x="110.797991" xlink:href="#m9a3abe6f86" y="283.696355"/>
     <use style="fill-opacity:0;stroke:#ffa500;stroke-linejoin:bevel;stroke-width:1.5;" x="162.658767" xlink:href="#m9a3abe6f86" y="264.684159"/>
     <use style="fill-opacity:0;stroke:#ffa500;stroke-linejoin:bevel;stroke-width:1.5;" x="177.540315" xlink:href="#m9a3abe6f86" y="261.888248"/>
     <use style="fill-opacity:0;stroke:#ffa500;stroke-linejoin:bevel;stroke-width:1.5;" x="177.540315" xlink:href="#m9a3abe6f86" y="261.329066"/>
     <use style="fill-opacity:0;stroke:#ffa500;stroke-linejoin:bevel;stroke-width:1.5;" x="177.540315" xlink:href="#m9a3abe6f86" y="261.329066"/>
     <use style="fill-opacity:0;stroke:#ffa500;stroke-linejoin:bevel;stroke-width:1.5;" x="333.429677" xlink:href="#m9a3abe6f86" y="261.329066"/>
    </g>
   </g>
   <g id="line2d_35">
    <path style="fill:none;stroke:#ffa500;stroke-linecap:square;stroke-width:1.5;"/>
    <g/>
   </g>
   <g id="line2d_36">
    <path clip-path="url(#p0d51250184)" d="M 128.115335 280.341262 
" style="fill:none;stroke:#ffa500;stroke-linecap:square;stroke-width:1.5;"/>
    <defs>
     <path d="M -12 12 
L 12 -12 
M -12 -12 
L 12 12 
" id="m8ba2da27f5" style="stroke:#ffa500;stroke-width:3;"/>
    </defs>
    <g clip-path="url(#p0d51250184)">
     <use style="fill:#ffa500;stroke:#ffa500;stroke-width:3;" x="128.115335" xlink:href="#m8ba2da27f5" y="280.341262"/>
    </g>
   </g>
   <g id="line2d_37">
    <defs>
     <path d="M 0 1.5 
C 0.397805 1.5 0.77937 1.341951 1.06066 1.06066 
C 1.341951 0.77937 1.5 0.397805 1.5 0 
C 1.5 -0.397805 1.341951 -0.77937 1.06066 -1.06066 
C 0.77937 -1.341951 0.397805 -1.5 0 -1.5 
C -0.397805 -1.5 -0.77937 -1.341951 -1.06066 -1.06066 
C -1.341951 -0.77937 -1.5 -0.397805 -1.5 0 
C -1.5 0.397805 -1.341951 0.77937 -1.06066 1.06066 
C -0.77937 1.341951 -0.397805 1.5 0 1.5 
z
" id="m43dbfe7cd4" style="stroke:#6495ed;"/>
    </defs>
    <g>
     <use style="fill:#6495ed;stroke:#6495ed;" x="175.784572" xlink:href="#m43dbfe7cd4" y="261.329066"/>
     <use style="fill:#6495ed;stroke:#6495ed;" x="175.784572" xlink:href="#m43dbfe7cd4" y="261.329066"/>
    </g>
   </g>
   <g id="line2d_38">
    <path d="M 49.144027 294.88 
L 49.144027 285.933084 
L 103.822018 285.933084 
L 103.822018 285.373902 
L 104.524355 285.373902 
L 104.524355 284.81472 
L 105.848459 284.81472 
L 105.848459 284.255537 
L 106.47416 284.255537 
L 106.47416 283.696355 
L 110.313314 283.696355 
L 110.313314 282.018808 
L 110.797991 282.018808 
L 110.797991 281.459626 
L 116.102274 281.459626 
L 116.102274 280.900444 
L 116.790561 280.900444 
L 116.790561 280.341262 
L 119.003405 280.341262 
L 119.003405 279.782079 
L 122.482864 279.782079 
L 122.482864 278.663715 
L 124.100619 278.663715 
L 124.100619 278.104533 
L 128.027779 278.104533 
L 128.027779 276.986168 
L 129.539422 276.986168 
L 129.539422 276.426986 
L 130.248189 276.426986 
L 130.248189 275.867804 
L 130.325168 275.867804 
L 130.325168 274.749439 
L 131.295765 274.749439 
L 131.295765 274.190257 
L 131.512181 274.190257 
L 131.512181 273.631075 
L 131.796566 273.631075 
L 131.796566 273.071893 
L 133.281829 273.071893 
L 133.281829 272.51271 
L 134.04099 272.51271 
L 134.04099 271.953528 
L 134.286778 271.953528 
L 134.286778 271.394346 
L 134.82729 271.394346 
L 134.82729 270.835164 
L 137.146836 270.835164 
L 137.146836 270.275981 
L 139.865278 270.275981 
L 139.865278 268.598435 
L 144.036483 268.598435 
L 144.036483 268.039252 
L 144.174398 268.039252 
L 144.174398 267.48007 
L 148.414079 267.48007 
L 148.414079 266.920888 
L 148.574374 266.920888 
L 148.574374 266.361706 
L 149.149666 266.361706 
L 149.149666 265.802523 
L 149.277775 265.802523 
L 149.277775 265.243341 
L 149.855089 265.243341 
L 149.855089 264.684159 
L 150.627387 264.684159 
L 150.627387 264.124977 
L 151.321225 264.124977 
L 151.321225 263.565795 
L 155.201134 263.565795 
L 155.201134 263.006612 
L 159.500826 263.006612 
L 159.500826 262.44743 
L 172.929807 262.44743 
L 172.929807 261.888248 
L 175.784572 261.888248 
L 175.784572 261.329066 
L 333.429677 261.329066 
" style="fill:none;stroke:#6495ed;stroke-linecap:square;stroke-width:1.5;"/>
   </g>
   <g id="line2d_39">
    <defs>
     <path d="M -0 6 
L 6 -6 
L -6 -6 
z
" id="ma5a5257f83" style="stroke:#6495ed;stroke-linejoin:miter;stroke-width:1.5;"/>
    </defs>
    <g>
     <use style="fill-opacity:0;stroke:#6495ed;stroke-linejoin:miter;stroke-width:1.5;" x="119.003405" xlink:href="#ma5a5257f83" y="280.341262"/>
     <use style="fill-opacity:0;stroke:#6495ed;stroke-linejoin:miter;stroke-width:1.5;" x="159.500826" xlink:href="#ma5a5257f83" y="262.44743"/>
     <use style="fill-opacity:0;stroke:#6495ed;stroke-linejoin:miter;stroke-width:1.5;" x="175.784572" xlink:href="#ma5a5257f83" y="261.888248"/>
     <use style="fill-opacity:0;stroke:#6495ed;stroke-linejoin:miter;stroke-width:1.5;" x="175.784572" xlink:href="#ma5a5257f83" y="261.329066"/>
     <use style="fill-opacity:0;stroke:#6495ed;stroke-linejoin:miter;stroke-width:1.5;" x="175.784572" xlink:href="#ma5a5257f83" y="261.329066"/>
     <use style="fill-opacity:0;stroke:#6495ed;stroke-linejoin:miter;stroke-width:1.5;" x="333.429677" xlink:href="#ma5a5257f83" y="261.329066"/>
    </g>
   </g>
   <g id="line2d_40">
    <path style="fill:none;stroke:#6495ed;stroke-linecap:square;stroke-width:1.5;"/>
    <g/>
   </g>
   <g id="line2d_41">
    <path clip-path="url(#p0d51250184)" d="M 129.458837 276.986168 
" style="fill:none;stroke:#6495ed;stroke-linecap:square;stroke-width:1.5;"/>
    <defs>
     <path d="M -12 12 
L 12 -12 
M -12 -12 
L 12 12 
" id="md41c9c64ac" style="stroke:#6495ed;stroke-width:3;"/>
    </defs>
    <g clip-path="url(#p0d51250184)">
     <use style="fill:#6495ed;stroke:#6495ed;stroke-width:3;" x="129.458837" xlink:href="#md41c9c64ac" y="276.986168"/>
    </g>
   </g>
   <g id="line2d_42">
    <defs>
     <path d="M 0 1.5 
C 0.397805 1.5 0.77937 1.341951 1.06066 1.06066 
C 1.341951 0.77937 1.5 0.397805 1.5 0 
C 1.5 -0.397805 1.341951 -0.77937 1.06066 -1.06066 
C 0.77937 -1.341951 0.397805 -1.5 0 -1.5 
C -0.397805 -1.5 -0.77937 -1.341951 -1.06066 -1.06066 
C -1.341951 -0.77937 -1.5 -0.397805 -1.5 0 
C -1.5 0.397805 -1.341951 0.77937 -1.06066 1.06066 
C -0.77937 1.341951 -0.397805 1.5 0 1.5 
z
" id="mdebd618810" style="stroke:#ff0000;"/>
    </defs>
    <g>
     <use style="fill:#ff0000;stroke:#ff0000;" x="175.937021" xlink:href="#mdebd618810" y="9.697057"/>
     <use style="fill:#ff0000;stroke:#ff0000;" x="175.937021" xlink:href="#mdebd618810" y="9.697057"/>
    </g>
   </g>
   <g id="line2d_43">
    <path d="M 49.144027 294.88 
L 49.144027 289.288178 
L 112.610704 289.288178 
L 112.610704 287.051449 
L 113.450132 287.051449 
L 113.450132 283.696355 
L 115.747522 283.696355 
L 115.747522 280.900444 
L 116.102274 280.900444 
L 116.102274 277.545351 
L 116.449859 277.545351 
L 116.449859 274.749439 
L 116.790561 274.749439 
L 116.790561 273.071893 
L 117.124646 273.071893 
L 117.124646 271.394346 
L 117.452368 271.394346 
L 117.452368 268.598435 
L 118.089658 268.598435 
L 118.089658 266.361706 
L 118.399664 266.361706 
L 118.399664 252.941332 
L 119.297513 252.941332 
L 119.297513 252.38215 
L 119.871061 252.38215 
L 119.871061 223.304673 
L 132.076326 223.304673 
L 132.076326 222.186309 
L 136.245297 222.186309 
L 136.245297 221.067944 
L 136.461713 221.067944 
L 136.568909 218.272033 
L 137.095092 218.272033 
L 137.095092 217.153669 
L 137.301141 217.153669 
L 137.403248 168.504814 
L 139.14455 168.504814 
L 139.14455 167.386449 
L 139.327583 167.386449 
L 139.327583 165.14972 
L 139.46359 165.14972 
L 139.46359 164.590538 
L 139.643277 164.590538 
L 139.732422 159.557898 
L 140.084452 159.557898 
L 140.171345 135.513061 
L 140.767613 135.513061 
L 140.851132 134.394697 
L 141.016963 134.394697 
L 141.016963 132.71715 
L 141.262751 132.71715 
L 141.262751 131.598786 
L 141.424681 131.598786 
L 141.424681 124.329417 
L 147.419621 124.329417 
L 147.476402 122.092688 
L 147.532997 122.092688 
L 147.589407 113.145772 
L 147.645632 113.145772 
L 147.645632 101.402945 
L 148.414079 101.402945 
L 148.467677 93.015211 
L 148.864425 93.015211 
L 148.968697 89.660118 
L 149.175364 89.660118 
L 149.226646 85.745842 
L 149.631485 85.745842 
L 149.731223 84.627477 
L 149.928983 84.627477 
L 149.978069 79.594837 
L 150.698043 79.594837 
L 150.698043 77.917291 
L 153.944198 77.917291 
L 154.021872 69.529557 
L 154.555991 69.529557 
L 154.593515 63.378552 
L 155.092242 63.378552 
L 155.146774 61.141823 
L 155.452566 61.141823 
L 155.488187 60.023459 
L 155.629938 60.023459 
L 155.665194 56.668365 
L 155.875225 56.668365 
L 155.875225 56.109183 
L 156.013835 56.109183 
L 156.013835 54.990819 
L 156.151337 54.990819 
L 156.185542 52.194907 
L 158.544754 52.194907 
L 158.633899 51.076543 
L 158.663512 51.076543 
L 158.663512 49.398996 
L 159.072822 49.398996 
L 159.10169 46.043903 
L 159.48673 46.043903 
L 159.528985 40.45208 
L 159.904682 40.45208 
L 159.945924 38.215351 
L 160.096306 38.215351 
L 160.177781 35.978622 
L 160.339583 35.978622 
L 160.339583 35.41944 
L 160.605918 35.41944 
L 160.711308 33.741894 
L 162.267327 33.741894 
L 162.315251 32.064347 
L 162.623548 32.064347 
L 162.670491 29.268436 
L 162.972543 29.268436 
L 162.995559 27.590889 
L 163.189967 27.590889 
L 163.235392 26.472524 
L 163.303306 26.472524 
L 163.359697 24.794978 
L 163.683169 24.794978 
L 163.683169 23.676613 
L 164.312421 23.676613 
L 164.312421 23.117431 
L 165.325981 23.117431 
L 165.325981 22.558249 
L 165.604932 22.558249 
L 165.604932 21.999066 
L 165.879431 21.999066 
L 165.879431 21.439884 
L 166.178318 21.439884 
L 166.206969 20.32152 
L 166.462703 20.32152 
L 166.462703 19.762337 
L 166.742463 19.762337 
L 166.742463 19.203155 
L 167.835487 19.203155 
L 167.835487 18.643973 
L 168.331733 18.643973 
L 168.331733 18.084791 
L 168.524624 18.084791 
L 168.632701 16.407244 
L 168.855021 16.407244 
L 168.895878 15.28888 
L 169.354916 15.28888 
L 169.354916 14.729697 
L 170.566811 14.729697 
L 170.566811 14.170515 
L 170.896908 14.170515 
L 170.991102 13.052151 
L 173.045622 13.052151 
L 173.045622 12.492968 
L 173.249609 12.492968 
L 173.249609 11.933786 
L 174.389665 11.933786 
L 174.389665 11.374604 
L 174.543175 11.374604 
L 174.543175 10.815422 
L 175.926176 10.815422 
L 175.937021 9.697057 
L 333.429677 9.697057 
L 333.429677 9.697057 
" style="fill:none;stroke:#ff0000;stroke-linecap:square;stroke-width:1.5;"/>
   </g>
   <g id="line2d_44">
    <defs>
     <path d="M 0 -6 
L -5.196152 -3 
L -5.196152 3 
L -0 6 
L 5.196152 3 
L 5.196152 -3 
z
" id="mc5437089cc" style="stroke:#ff0000;stroke-linejoin:miter;stroke-width:1.5;"/>
    </defs>
    <g>
     <use style="fill-opacity:0;stroke:#ff0000;stroke-linejoin:miter;stroke-width:1.5;" x="137.403248" xlink:href="#mc5437089cc" y="211.002664"/>
     <use style="fill-opacity:0;stroke:#ff0000;stroke-linejoin:miter;stroke-width:1.5;" x="159.528985" xlink:href="#mc5437089cc" y="42.688809"/>
     <use style="fill-opacity:0;stroke:#ff0000;stroke-linejoin:miter;stroke-width:1.5;" x="175.937021" xlink:href="#mc5437089cc" y="10.256239"/>
     <use style="fill-opacity:0;stroke:#ff0000;stroke-linejoin:miter;stroke-width:1.5;" x="175.937021" xlink:href="#mc5437089cc" y="9.697057"/>
     <use style="fill-opacity:0;stroke:#ff0000;stroke-linejoin:miter;stroke-width:1.5;" x="333.429677" xlink:href="#mc5437089cc" y="9.697057"/>
    </g>
   </g>
   <g id="line2d_45">
    <path style="fill:none;stroke:#ff0000;stroke-linecap:square;stroke-width:1.5;"/>
    <g/>
   </g>
   <g id="line2d_46">
    <path clip-path="url(#p0d51250184)" d="M 133.854317 222.186309 
" style="fill:none;stroke:#ff0000;stroke-linecap:square;stroke-width:1.5;"/>
    <defs>
     <path d="M -12 12 
L 12 -12 
M -12 -12 
L 12 12 
" id="mbcda042f70" style="stroke:#ff0000;stroke-width:3;"/>
    </defs>
    <g clip-path="url(#p0d51250184)">
     <use style="fill:#ff0000;stroke:#ff0000;stroke-width:3;" x="133.854317" xlink:href="#mbcda042f70" y="222.186309"/>
    </g>
   </g>
   <g id="line2d_47">
    <path d="M 333.429677 261.329066 
L 363.933742 289.176341 
" style="fill:none;stroke:#ffa500;stroke-linecap:square;stroke-width:1.5;"/>
    <g>
     <use style="fill-opacity:0;stroke:#ffa500;stroke-linejoin:bevel;stroke-width:1.5;" x="333.429677" xlink:href="#m9a3abe6f86" y="261.329066"/>
     <use style="fill-opacity:0;stroke:#ffa500;stroke-linejoin:bevel;stroke-width:1.5;" x="363.933742" xlink:href="#m9a3abe6f86" y="289.176341"/>
    </g>
   </g>
   <g id="line2d_48">
    <path d="M 333.429677 261.329066 
L 363.933742 220.732435 
" style="fill:none;stroke:#6495ed;stroke-linecap:square;stroke-width:1.5;"/>
    <g>
     <use style="fill-opacity:0;stroke:#6495ed;stroke-linejoin:miter;stroke-width:1.5;" x="333.429677" xlink:href="#ma5a5257f83" y="261.329066"/>
     <use style="fill-opacity:0;stroke:#6495ed;stroke-linejoin:miter;stroke-width:1.5;" x="363.933742" xlink:href="#ma5a5257f83" y="220.732435"/>
    </g>
   </g>
   <g id="line2d_49">
    <path d="M 333.429677 9.697057 
L 363.933742 152.288529 
" style="fill:none;stroke:#ff00ff;stroke-linecap:square;stroke-width:1.5;"/>
    <g>
     <use style="fill-opacity:0;stroke:#ff00ff;stroke-linejoin:miter;stroke-width:1.5;" x="333.429677" xlink:href="#meb25b80ed4" y="9.697057"/>
     <use style="fill-opacity:0;stroke:#ff00ff;stroke-linejoin:miter;stroke-width:1.5;" x="363.933742" xlink:href="#meb25b80ed4" y="152.288529"/>
    </g>
   </g>
   <g id="line2d_50">
    <path d="M 333.429677 9.697057 
L 363.933742 83.844622 
" style="fill:none;stroke:#ff0000;stroke-linecap:square;stroke-width:1.5;"/>
    <g>
     <use style="fill-opacity:0;stroke:#ff0000;stroke-linejoin:miter;stroke-width:1.5;" x="333.429677" xlink:href="#mc5437089cc" y="9.697057"/>
     <use style="fill-opacity:0;stroke:#ff0000;stroke-linejoin:miter;stroke-width:1.5;" x="363.933742" xlink:href="#mc5437089cc" y="83.844622"/>
    </g>
   </g>
   <g id="line2d_51">
    <path d="M 333.429677 9.697057 
L 363.933742 15.400716 
" style="fill:none;stroke:#000080;stroke-linecap:square;stroke-width:1.5;"/>
    <g>
     <use style="fill-opacity:0;stroke:#000080;stroke-width:1.5;" x="333.429677" xlink:href="#m5595a33a6a" y="9.697057"/>
     <use style="fill-opacity:0;stroke:#000080;stroke-width:1.5;" x="363.933742" xlink:href="#m5595a33a6a" y="15.400716"/>
    </g>
   </g>
   <g id="line2d_52">
    <path d="M 333.429677 294.88 
L 333.429677 9.697057 
" style="fill:none;stroke:#000000;stroke-linecap:square;stroke-width:1.5;"/>
   </g>
   <g id="patch_3">
    <path d="M 56.12 294.88 
L 56.12 6.845228 
" style="fill:none;stroke:#000000;stroke-linecap:square;stroke-linejoin:miter;stroke-width:0.8;"/>
   </g>
   <g id="patch_4">
    <path d="M 399.984 294.88 
L 399.984 6.845228 
" style="fill:none;stroke:#000000;stroke-linecap:square;stroke-linejoin:miter;stroke-width:0.8;"/>
   </g>
   <g id="patch_5">
    <path d="M 56.12 294.88 
L 399.984 294.88 
" style="fill:none;stroke:#000000;stroke-linecap:square;stroke-linejoin:miter;stroke-width:0.8;"/>
   </g>
   <g id="patch_6">
    <path d="M 56.12 6.845228 
L 399.984 6.845228 
" style="fill:none;stroke:#000000;stroke-linecap:square;stroke-linejoin:miter;stroke-width:0.8;"/>
   </g>
   <g id="text_14">
    <!-- f3 -->
    <defs>
     <path d="M 40.578125 39.3125 
Q 47.65625 37.796875 51.625 33 
Q 55.609375 28.21875 55.609375 21.1875 
Q 55.609375 10.40625 48.1875 4.484375 
Q 40.765625 -1.421875 27.09375 -1.421875 
Q 22.515625 -1.421875 17.65625 -0.515625 
Q 12.796875 0.390625 7.625 2.203125 
L 7.625 11.71875 
Q 11.71875 9.328125 16.59375 8.109375 
Q 21.484375 6.890625 26.8125 6.890625 
Q 36.078125 6.890625 40.9375 10.546875 
Q 45.796875 14.203125 45.796875 21.1875 
Q 45.796875 27.640625 41.28125 31.265625 
Q 36.765625 34.90625 28.71875 34.90625 
L 20.21875 34.90625 
L 20.21875 43.015625 
L 29.109375 43.015625 
Q 36.375 43.015625 40.234375 45.921875 
Q 44.09375 48.828125 44.09375 54.296875 
Q 44.09375 59.90625 40.109375 62.90625 
Q 36.140625 65.921875 28.71875 65.921875 
Q 24.65625 65.921875 20.015625 65.03125 
Q 15.375 64.15625 9.8125 62.3125 
L 9.8125 71.09375 
Q 15.4375 72.65625 20.34375 73.4375 
Q 25.25 74.21875 29.59375 74.21875 
Q 40.828125 74.21875 47.359375 69.109375 
Q 53.90625 64.015625 53.90625 55.328125 
Q 53.90625 49.265625 50.4375 45.09375 
Q 46.96875 40.921875 40.578125 39.3125 
z
" id="DejaVuSans-33"/>
    </defs>
    <g transform="translate(369.479935 293.867279)scale(0.17 -0.17)">
     <use xlink:href="#DejaVuSans-66"/>
     <use x="35.205078" xlink:href="#DejaVuSans-33"/>
    </g>
   </g>
   <g id="text_15">
    <!-- f4 -->
    <g transform="translate(369.479935 225.423372)scale(0.17 -0.17)">
     <use xlink:href="#DejaVuSans-66"/>
     <use x="35.205078" xlink:href="#DejaVuSans-34"/>
    </g>
   </g>
   <g id="text_16">
    <!-- f2 -->
    <g transform="translate(369.479935 156.979466)scale(0.17 -0.17)">
     <use xlink:href="#DejaVuSans-66"/>
     <use x="35.205078" xlink:href="#DejaVuSans-32"/>
    </g>
   </g>
   <g id="text_17">
    <!-- f5 -->
    <defs>
     <path d="M 10.796875 72.90625 
L 49.515625 72.90625 
L 49.515625 64.59375 
L 19.828125 64.59375 
L 19.828125 46.734375 
Q 21.96875 47.46875 24.109375 47.828125 
Q 26.265625 48.1875 28.421875 48.1875 
Q 40.625 48.1875 47.75 41.5 
Q 54.890625 34.8125 54.890625 23.390625 
Q 54.890625 11.625 47.5625 5.09375 
Q 40.234375 -1.421875 26.90625 -1.421875 
Q 22.3125 -1.421875 17.546875 -0.640625 
Q 12.796875 0.140625 7.71875 1.703125 
L 7.71875 11.625 
Q 12.109375 9.234375 16.796875 8.0625 
Q 21.484375 6.890625 26.703125 6.890625 
Q 35.15625 6.890625 40.078125 11.328125 
Q 45.015625 15.765625 45.015625 23.390625 
Q 45.015625 31 40.078125 35.4375 
Q 35.15625 39.890625 26.703125 39.890625 
Q 22.75 39.890625 18.8125 39.015625 
Q 14.890625 38.140625 10.796875 36.28125 
z
" id="DejaVuSans-35"/>
    </defs>
    <g transform="translate(369.479935 88.53556)scale(0.17 -0.17)">
     <use xlink:href="#DejaVuSans-66"/>
     <use x="35.205078" xlink:href="#DejaVuSans-35"/>
    </g>
   </g>
   <g id="text_18">
    <!-- f1 -->
    <g transform="translate(369.479935 20.091654)scale(0.17 -0.17)">
     <use xlink:href="#DejaVuSans-66"/>
     <use x="35.205078" xlink:href="#DejaVuSans-31"/>
    </g>
   </g>
   <g id="text_19">
    <!-- bbob -->
    <defs>
     <path d="M 48.6875 27.296875 
Q 48.6875 37.203125 44.609375 42.84375 
Q 40.53125 48.484375 33.40625 48.484375 
Q 26.265625 48.484375 22.1875 42.84375 
Q 18.109375 37.203125 18.109375 27.296875 
Q 18.109375 17.390625 22.1875 11.75 
Q 26.265625 6.109375 33.40625 6.109375 
Q 40.53125 6.109375 44.609375 11.75 
Q 48.6875 17.390625 48.6875 27.296875 
z
M 18.109375 46.390625 
Q 20.953125 51.265625 25.265625 53.625 
Q 29.59375 56 35.59375 56 
Q 45.5625 56 51.78125 48.09375 
Q 58.015625 40.1875 58.015625 27.296875 
Q 58.015625 14.40625 51.78125 6.484375 
Q 45.5625 -1.421875 35.59375 -1.421875 
Q 29.59375 -1.421875 25.265625 0.953125 
Q 20.953125 3.328125 18.109375 8.203125 
L 18.109375 0 
L 9.078125 0 
L 9.078125 75.984375 
L 18.109375 75.984375 
z
" id="DejaVuSans-62"/>
    </defs>
    <g transform="translate(59.55864 17.475982)scale(0.102 -0.102)">
     <use xlink:href="#DejaVuSans-62"/>
     <use x="63.476562" xlink:href="#DejaVuSans-62"/>
     <use x="126.953125" xlink:href="#DejaVuSans-6f"/>
     <use x="188.134766" xlink:href="#DejaVuSans-62"/>
    </g>
    <!-- Separable functions, 3-D -->
    <defs>
     <path d="M 53.515625 70.515625 
L 53.515625 60.890625 
Q 47.90625 63.578125 42.921875 64.890625 
Q 37.9375 66.21875 33.296875 66.21875 
Q 25.25 66.21875 20.875 63.09375 
Q 16.5 59.96875 16.5 54.203125 
Q 16.5 49.359375 19.40625 46.890625 
Q 22.3125 44.4375 30.421875 42.921875 
L 36.375 41.703125 
Q 47.40625 39.59375 52.65625 34.296875 
Q 57.90625 29 57.90625 20.125 
Q 57.90625 9.515625 50.796875 4.046875 
Q 43.703125 -1.421875 29.984375 -1.421875 
Q 24.8125 -1.421875 18.96875 -0.25 
Q 13.140625 0.921875 6.890625 3.21875 
L 6.890625 13.375 
Q 12.890625 10.015625 18.65625 8.296875 
Q 24.421875 6.59375 29.984375 6.59375 
Q 38.421875 6.59375 43.015625 9.90625 
Q 47.609375 13.234375 47.609375 19.390625 
Q 47.609375 24.75 44.3125 27.78125 
Q 41.015625 30.8125 33.5 32.328125 
L 27.484375 33.5 
Q 16.453125 35.6875 11.515625 40.375 
Q 6.59375 45.0625 6.59375 53.421875 
Q 6.59375 63.09375 13.40625 68.65625 
Q 20.21875 74.21875 32.171875 74.21875 
Q 37.3125 74.21875 42.625 73.28125 
Q 47.953125 72.359375 53.515625 70.515625 
z
" id="DejaVuSans-53"/>
     <path d="M 19.671875 64.796875 
L 19.671875 8.109375 
L 31.59375 8.109375 
Q 46.6875 8.109375 53.6875 14.9375 
Q 60.6875 21.78125 60.6875 36.53125 
Q 60.6875 51.171875 53.6875 57.984375 
Q 46.6875 64.796875 31.59375 64.796875 
z
M 9.8125 72.90625 
L 30.078125 72.90625 
Q 51.265625 72.90625 61.171875 64.09375 
Q 71.09375 55.28125 71.09375 36.53125 
Q 71.09375 17.671875 61.125 8.828125 
Q 51.171875 0 30.078125 0 
L 9.8125 0 
z
" id="DejaVuSans-44"/>
    </defs>
    <g transform="translate(59.55864 28.89775)scale(0.102 -0.102)">
     <use xlink:href="#DejaVuSans-53"/>
     <use x="63.476562" xlink:href="#DejaVuSans-65"/>
     <use x="125" xlink:href="#DejaVuSans-70"/>
     <use x="188.476562" xlink:href="#DejaVuSans-61"/>
     <use x="249.755859" xlink:href="#DejaVuSans-72"/>
     <use x="290.869141" xlink:href="#DejaVuSans-61"/>
     <use x="352.148438" xlink:href="#DejaVuSans-62"/>
     <use x="415.625" xlink:href="#DejaVuSans-6c"/>
     <use x="443.408203" xlink:href="#DejaVuSans-65"/>
     <use x="504.931641" xlink:href="#DejaVuSans-20"/>
     <use x="536.71875" xlink:href="#DejaVuSans-66"/>
     <use x="571.923828" xlink:href="#DejaVuSans-75"/>
     <use x="635.302734" xlink:href="#DejaVuSans-6e"/>
     <use x="698.681641" xlink:href="#DejaVuSans-63"/>
     <use x="753.662109" xlink:href="#DejaVuSans-74"/>
     <use x="792.871094" xlink:href="#DejaVuSans-69"/>
     <use x="820.654297" xlink:href="#DejaVuSans-6f"/>
     <use x="881.835938" xlink:href="#DejaVuSans-6e"/>
     <use x="945.214844" xlink:href="#DejaVuSans-73"/>
     <use x="997.314453" xlink:href="#DejaVuSans-2c"/>
     <use x="1029.101562" xlink:href="#DejaVuSans-20"/>
     <use x="1060.888672" xlink:href="#DejaVuSans-33"/>
     <use x="1124.511719" xlink:href="#DejaVuSans-2d"/>
     <use x="1160.595703" xlink:href="#DejaVuSans-44"/>
    </g>
    <!-- 51 targets: 100..1e-08 -->
    <defs>
     <path d="M 11.71875 12.40625 
L 22.015625 12.40625 
L 22.015625 0 
L 11.71875 0 
z
M 11.71875 51.703125 
L 22.015625 51.703125 
L 22.015625 39.3125 
L 11.71875 39.3125 
z
" id="DejaVuSans-3a"/>
    </defs>
    <g transform="translate(59.55864 40.319519)scale(0.102 -0.102)">
     <use xlink:href="#DejaVuSans-35"/>
     <use x="63.623047" xlink:href="#DejaVuSans-31"/>
     <use x="127.246094" xlink:href="#DejaVuSans-20"/>
     <use x="159.033203" xlink:href="#DejaVuSans-74"/>
     <use x="198.242188" xlink:href="#DejaVuSans-61"/>
     <use x="259.521484" xlink:href="#DejaVuSans-72"/>
     <use x="300.619141" xlink:href="#DejaVuSans-67"/>
     <use x="364.095703" xlink:href="#DejaVuSans-65"/>
     <use x="425.619141" xlink:href="#DejaVuSans-74"/>
     <use x="464.828125" xlink:href="#DejaVuSans-73"/>
     <use x="516.927734" xlink:href="#DejaVuSans-3a"/>
     <use x="550.619141" xlink:href="#DejaVuSans-20"/>
     <use x="582.40625" xlink:href="#DejaVuSans-31"/>
     <use x="646.029297" xlink:href="#DejaVuSans-30"/>
     <use x="709.652344" xlink:href="#DejaVuSans-30"/>
     <use x="773.275391" xlink:href="#DejaVuSans-2e"/>
     <use x="805.0625" xlink:href="#DejaVuSans-2e"/>
     <use x="836.849609" xlink:href="#DejaVuSans-31"/>
     <use x="900.472656" xlink:href="#DejaVuSans-65"/>
     <use x="961.996094" xlink:href="#DejaVuSans-2d"/>
     <use x="998.080078" xlink:href="#DejaVuSans-30"/>
     <use x="1061.703125" xlink:href="#DejaVuSans-38"/>
    </g>
    <!-- 15 instances -->
    <g transform="translate(59.55864 51.741288)scale(0.102 -0.102)">
     <use xlink:href="#DejaVuSans-31"/>
     <use x="63.623047" xlink:href="#DejaVuSans-35"/>
     <use x="127.246094" xlink:href="#DejaVuSans-20"/>
     <use x="159.033203" xlink:href="#DejaVuSans-69"/>
     <use x="186.816406" xlink:href="#DejaVuSans-6e"/>
     <use x="250.195312" xlink:href="#DejaVuSans-73"/>
     <use x="302.294922" xlink:href="#DejaVuSans-74"/>
     <use x="341.503906" xlink:href="#DejaVuSans-61"/>
     <use x="402.783203" xlink:href="#DejaVuSans-6e"/>
     <use x="466.162109" xlink:href="#DejaVuSans-63"/>
     <use x="521.142578" xlink:href="#DejaVuSans-65"/>
     <use x="582.666016" xlink:href="#DejaVuSans-73"/>
    </g>
   </g>
   <g id="text_20">
    <!-- v2.2.1.10 -->
    <g style="fill:#808080;" transform="translate(204.419188 289.919965)scale(0.1 -0.1)">
     <use xlink:href="#DejaVuSans-76"/>
     <use x="59.179688" xlink:href="#DejaVuSans-32"/>
     <use x="122.802734" xlink:href="#DejaVuSans-2e"/>
     <use x="154.589844" xlink:href="#DejaVuSans-32"/>
     <use x="218.212891" xlink:href="#DejaVuSans-2e"/>
     <use x="250" xlink:href="#DejaVuSans-31"/>
     <use x="313.623047" xlink:href="#DejaVuSans-2e"/>
     <use x="345.410156" xlink:href="#DejaVuSans-31"/>
     <use x="409.033203" xlink:href="#DejaVuSans-30"/>
    </g>
   </g>
  </g>
 </g>
 <defs>
  <clipPath id="p0d51250184">
   <rect height="288.034772" width="343.864" x="56.12" y="6.845228"/>
  </clipPath>
 </defs>
</svg>
