<?xml version="1.0" encoding="utf-8" standalone="no"?>
<!DOCTYPE svg PUBLIC "-//W3C//DTD SVG 1.1//EN"
  "http://www.w3.org/Graphics/SVG/1.1/DTD/svg11.dtd">
<!-- Created with matplotlib (http://matplotlib.org/) -->
<svg height="345.6pt" version="1.1" viewBox="0 0 460.8 345.6" width="460.8pt" xmlns="http://www.w3.org/2000/svg" xmlns:xlink="http://www.w3.org/1999/xlink">
 <defs>
  <style type="text/css">
*{stroke-linecap:butt;stroke-linejoin:round;}
  </style>
 </defs>
 <g id="figure_1">
  <g id="patch_1">
   <path d="M 0 345.6 
L 460.8 345.6 
L 460.8 0 
L 0 0 
z
" style="fill:#ffffff;"/>
  </g>
  <g id="axes_1">
   <g id="patch_2">
    <path d="M 56.12 294.88 
L 399.984 294.88 
L 399.984 6.845228 
L 56.12 6.845228 
z
" style="fill:#ffffff;"/>
   </g>
   <g id="matplotlib.axis_1">
    <g id="xtick_1">
     <g id="line2d_1">
      <path clip-path="url(#pba94c02daa)" d="M 56.12 294.88 
L 56.12 6.845228 
" style="fill:none;stroke:#b0b0b0;stroke-linecap:square;stroke-width:0.8;"/>
     </g>
     <g id="line2d_2">
      <defs>
       <path d="M 0 0 
L 0 3.5 
" id="mc1caeb0c77" style="stroke:#000000;stroke-width:0.8;"/>
      </defs>
      <g>
       <use style="stroke:#000000;stroke-width:0.8;" x="56.12" xlink:href="#mc1caeb0c77" y="294.88"/>
      </g>
     </g>
     <g id="text_1">
      <!-- 0 -->
      <defs>
       <path d="M 31.78125 66.40625 
Q 24.171875 66.40625 20.328125 58.90625 
Q 16.5 51.421875 16.5 36.375 
Q 16.5 21.390625 20.328125 13.890625 
Q 24.171875 6.390625 31.78125 6.390625 
Q 39.453125 6.390625 43.28125 13.890625 
Q 47.125 21.390625 47.125 36.375 
Q 47.125 51.421875 43.28125 58.90625 
Q 39.453125 66.40625 31.78125 66.40625 
z
M 31.78125 74.21875 
Q 44.046875 74.21875 50.515625 64.515625 
Q 56.984375 54.828125 56.984375 36.375 
Q 56.984375 17.96875 50.515625 8.265625 
Q 44.046875 -1.421875 31.78125 -1.421875 
Q 19.53125 -1.421875 13.0625 8.265625 
Q 6.59375 17.96875 6.59375 36.375 
Q 6.59375 54.828125 13.0625 64.515625 
Q 19.53125 74.21875 31.78125 74.21875 
z
" id="DejaVuSans-30"/>
      </defs>
      <g transform="translate(49.7575 317.076875)scale(0.2 -0.2)">
       <use xlink:href="#DejaVuSans-30"/>
      </g>
     </g>
    </g>
    <g id="xtick_2">
     <g id="line2d_3">
      <path clip-path="url(#pba94c02daa)" d="M 135.351336 294.88 
L 135.351336 6.845228 
" style="fill:none;stroke:#b0b0b0;stroke-linecap:square;stroke-width:0.8;"/>
     </g>
     <g id="line2d_4">
      <g>
       <use style="stroke:#000000;stroke-width:0.8;" x="135.351336" xlink:href="#mc1caeb0c77" y="294.88"/>
      </g>
     </g>
     <g id="text_2">
      <!-- 2 -->
      <defs>
       <path d="M 19.1875 8.296875 
L 53.609375 8.296875 
L 53.609375 0 
L 7.328125 0 
L 7.328125 8.296875 
Q 12.9375 14.109375 22.625 23.890625 
Q 32.328125 33.6875 34.8125 36.53125 
Q 39.546875 41.84375 41.421875 45.53125 
Q 43.3125 49.21875 43.3125 52.78125 
Q 43.3125 58.59375 39.234375 62.25 
Q 35.15625 65.921875 28.609375 65.921875 
Q 23.96875 65.921875 18.8125 64.3125 
Q 13.671875 62.703125 7.8125 59.421875 
L 7.8125 69.390625 
Q 13.765625 71.78125 18.9375 73 
Q 24.125 74.21875 28.421875 74.21875 
Q 39.75 74.21875 46.484375 68.546875 
Q 53.21875 62.890625 53.21875 53.421875 
Q 53.21875 48.921875 51.53125 44.890625 
Q 49.859375 40.875 45.40625 35.40625 
Q 44.1875 33.984375 37.640625 27.21875 
Q 31.109375 20.453125 19.1875 8.296875 
z
" id="DejaVuSans-32"/>
      </defs>
      <g transform="translate(128.988836 317.076875)scale(0.2 -0.2)">
       <use xlink:href="#DejaVuSans-32"/>
      </g>
     </g>
    </g>
    <g id="xtick_3">
     <g id="line2d_5">
      <path clip-path="url(#pba94c02daa)" d="M 214.582673 294.88 
L 214.582673 6.845228 
" style="fill:none;stroke:#b0b0b0;stroke-linecap:square;stroke-width:0.8;"/>
     </g>
     <g id="line2d_6">
      <g>
       <use style="stroke:#000000;stroke-width:0.8;" x="214.582673" xlink:href="#mc1caeb0c77" y="294.88"/>
      </g>
     </g>
     <g id="text_3">
      <!-- 4 -->
      <defs>
       <path d="M 37.796875 64.3125 
L 12.890625 25.390625 
L 37.796875 25.390625 
z
M 35.203125 72.90625 
L 47.609375 72.90625 
L 47.609375 25.390625 
L 58.015625 25.390625 
L 58.015625 17.1875 
L 47.609375 17.1875 
L 47.609375 0 
L 37.796875 0 
L 37.796875 17.1875 
L 4.890625 17.1875 
L 4.890625 26.703125 
z
" id="DejaVuSans-34"/>
      </defs>
      <g transform="translate(208.220173 317.076875)scale(0.2 -0.2)">
       <use xlink:href="#DejaVuSans-34"/>
      </g>
     </g>
    </g>
    <g id="xtick_4">
     <g id="line2d_7">
      <path clip-path="url(#pba94c02daa)" d="M 293.814009 294.88 
L 293.814009 6.845228 
" style="fill:none;stroke:#b0b0b0;stroke-linecap:square;stroke-width:0.8;"/>
     </g>
     <g id="line2d_8">
      <g>
       <use style="stroke:#000000;stroke-width:0.8;" x="293.814009" xlink:href="#mc1caeb0c77" y="294.88"/>
      </g>
     </g>
     <g id="text_4">
      <!-- 6 -->
      <defs>
       <path d="M 33.015625 40.375 
Q 26.375 40.375 22.484375 35.828125 
Q 18.609375 31.296875 18.609375 23.390625 
Q 18.609375 15.53125 22.484375 10.953125 
Q 26.375 6.390625 33.015625 6.390625 
Q 39.65625 6.390625 43.53125 10.953125 
Q 47.40625 15.53125 47.40625 23.390625 
Q 47.40625 31.296875 43.53125 35.828125 
Q 39.65625 40.375 33.015625 40.375 
z
M 52.59375 71.296875 
L 52.59375 62.3125 
Q 48.875 64.0625 45.09375 64.984375 
Q 41.3125 65.921875 37.59375 65.921875 
Q 27.828125 65.921875 22.671875 59.328125 
Q 17.53125 52.734375 16.796875 39.40625 
Q 19.671875 43.65625 24.015625 45.921875 
Q 28.375 48.1875 33.59375 48.1875 
Q 44.578125 48.1875 50.953125 41.515625 
Q 57.328125 34.859375 57.328125 23.390625 
Q 57.328125 12.15625 50.6875 5.359375 
Q 44.046875 -1.421875 33.015625 -1.421875 
Q 20.359375 -1.421875 13.671875 8.265625 
Q 6.984375 17.96875 6.984375 36.375 
Q 6.984375 53.65625 15.1875 63.9375 
Q 23.390625 74.21875 37.203125 74.21875 
Q 40.921875 74.21875 44.703125 73.484375 
Q 48.484375 72.75 52.59375 71.296875 
z
" id="DejaVuSans-36"/>
      </defs>
      <g transform="translate(287.451509 317.076875)scale(0.2 -0.2)">
       <use xlink:href="#DejaVuSans-36"/>
      </g>
     </g>
    </g>
    <g id="xtick_5">
     <g id="line2d_9">
      <path clip-path="url(#pba94c02daa)" d="M 373.045346 294.88 
L 373.045346 6.845228 
" style="fill:none;stroke:#b0b0b0;stroke-linecap:square;stroke-width:0.8;"/>
     </g>
     <g id="line2d_10">
      <g>
       <use style="stroke:#000000;stroke-width:0.8;" x="373.045346" xlink:href="#mc1caeb0c77" y="294.88"/>
      </g>
     </g>
     <g id="text_5">
      <!-- 8 -->
      <defs>
       <path d="M 31.78125 34.625 
Q 24.75 34.625 20.71875 30.859375 
Q 16.703125 27.09375 16.703125 20.515625 
Q 16.703125 13.921875 20.71875 10.15625 
Q 24.75 6.390625 31.78125 6.390625 
Q 38.8125 6.390625 42.859375 10.171875 
Q 46.921875 13.96875 46.921875 20.515625 
Q 46.921875 27.09375 42.890625 30.859375 
Q 38.875 34.625 31.78125 34.625 
z
M 21.921875 38.8125 
Q 15.578125 40.375 12.03125 44.71875 
Q 8.5 49.078125 8.5 55.328125 
Q 8.5 64.0625 14.71875 69.140625 
Q 20.953125 74.21875 31.78125 74.21875 
Q 42.671875 74.21875 48.875 69.140625 
Q 55.078125 64.0625 55.078125 55.328125 
Q 55.078125 49.078125 51.53125 44.71875 
Q 48 40.375 41.703125 38.8125 
Q 48.828125 37.15625 52.796875 32.3125 
Q 56.78125 27.484375 56.78125 20.515625 
Q 56.78125 9.90625 50.3125 4.234375 
Q 43.84375 -1.421875 31.78125 -1.421875 
Q 19.734375 -1.421875 13.25 4.234375 
Q 6.78125 9.90625 6.78125 20.515625 
Q 6.78125 27.484375 10.78125 32.3125 
Q 14.796875 37.15625 21.921875 38.8125 
z
M 18.3125 54.390625 
Q 18.3125 48.734375 21.84375 45.5625 
Q 25.390625 42.390625 31.78125 42.390625 
Q 38.140625 42.390625 41.71875 45.5625 
Q 45.3125 48.734375 45.3125 54.390625 
Q 45.3125 60.0625 41.71875 63.234375 
Q 38.140625 66.40625 31.78125 66.40625 
Q 25.390625 66.40625 21.84375 63.234375 
Q 18.3125 60.0625 18.3125 54.390625 
z
" id="DejaVuSans-38"/>
      </defs>
      <g transform="translate(366.682846 317.076875)scale(0.2 -0.2)">
       <use xlink:href="#DejaVuSans-38"/>
      </g>
     </g>
    </g>
    <g id="text_6">
     <!-- log10(# f-evals / dimension) -->
     <defs>
      <path d="M 9.421875 75.984375 
L 18.40625 75.984375 
L 18.40625 0 
L 9.421875 0 
z
" id="DejaVuSans-6c"/>
      <path d="M 30.609375 48.390625 
Q 23.390625 48.390625 19.1875 42.75 
Q 14.984375 37.109375 14.984375 27.296875 
Q 14.984375 17.484375 19.15625 11.84375 
Q 23.34375 6.203125 30.609375 6.203125 
Q 37.796875 6.203125 41.984375 11.859375 
Q 46.1875 17.53125 46.1875 27.296875 
Q 46.1875 37.015625 41.984375 42.703125 
Q 37.796875 48.390625 30.609375 48.390625 
z
M 30.609375 56 
Q 42.328125 56 49.015625 48.375 
Q 55.71875 40.765625 55.71875 27.296875 
Q 55.71875 13.875 49.015625 6.21875 
Q 42.328125 -1.421875 30.609375 -1.421875 
Q 18.84375 -1.421875 12.171875 6.21875 
Q 5.515625 13.875 5.515625 27.296875 
Q 5.515625 40.765625 12.171875 48.375 
Q 18.84375 56 30.609375 56 
z
" id="DejaVuSans-6f"/>
      <path d="M 45.40625 27.984375 
Q 45.40625 37.75 41.375 43.109375 
Q 37.359375 48.484375 30.078125 48.484375 
Q 22.859375 48.484375 18.828125 43.109375 
Q 14.796875 37.75 14.796875 27.984375 
Q 14.796875 18.265625 18.828125 12.890625 
Q 22.859375 7.515625 30.078125 7.515625 
Q 37.359375 7.515625 41.375 12.890625 
Q 45.40625 18.265625 45.40625 27.984375 
z
M 54.390625 6.78125 
Q 54.390625 -7.171875 48.1875 -13.984375 
Q 42 -20.796875 29.203125 -20.796875 
Q 24.46875 -20.796875 20.265625 -20.09375 
Q 16.0625 -19.390625 12.109375 -17.921875 
L 12.109375 -9.1875 
Q 16.0625 -11.328125 19.921875 -12.34375 
Q 23.78125 -13.375 27.78125 -13.375 
Q 36.625 -13.375 41.015625 -8.765625 
Q 45.40625 -4.15625 45.40625 5.171875 
L 45.40625 9.625 
Q 42.625 4.78125 38.28125 2.390625 
Q 33.9375 0 27.875 0 
Q 17.828125 0 11.671875 7.65625 
Q 5.515625 15.328125 5.515625 27.984375 
Q 5.515625 40.671875 11.671875 48.328125 
Q 17.828125 56 27.875 56 
Q 33.9375 56 38.28125 53.609375 
Q 42.625 51.21875 45.40625 46.390625 
L 45.40625 54.6875 
L 54.390625 54.6875 
z
" id="DejaVuSans-67"/>
      <path d="M 12.40625 8.296875 
L 28.515625 8.296875 
L 28.515625 63.921875 
L 10.984375 60.40625 
L 10.984375 69.390625 
L 28.421875 72.90625 
L 38.28125 72.90625 
L 38.28125 8.296875 
L 54.390625 8.296875 
L 54.390625 0 
L 12.40625 0 
z
" id="DejaVuSans-31"/>
      <path d="M 31 75.875 
Q 24.46875 64.65625 21.28125 53.65625 
Q 18.109375 42.671875 18.109375 31.390625 
Q 18.109375 20.125 21.3125 9.0625 
Q 24.515625 -2 31 -13.1875 
L 23.1875 -13.1875 
Q 15.875 -1.703125 12.234375 9.375 
Q 8.59375 20.453125 8.59375 31.390625 
Q 8.59375 42.28125 12.203125 53.3125 
Q 15.828125 64.359375 23.1875 75.875 
z
" id="DejaVuSans-28"/>
      <path d="M 51.125 44 
L 36.921875 44 
L 32.8125 27.6875 
L 47.125 27.6875 
z
M 43.796875 71.78125 
L 38.71875 51.515625 
L 52.984375 51.515625 
L 58.109375 71.78125 
L 65.921875 71.78125 
L 60.890625 51.515625 
L 76.125 51.515625 
L 76.125 44 
L 58.984375 44 
L 54.984375 27.6875 
L 70.515625 27.6875 
L 70.515625 20.21875 
L 53.078125 20.21875 
L 48 0 
L 40.1875 0 
L 45.21875 20.21875 
L 30.90625 20.21875 
L 25.875 0 
L 18.015625 0 
L 23.09375 20.21875 
L 7.71875 20.21875 
L 7.71875 27.6875 
L 24.90625 27.6875 
L 29 44 
L 13.28125 44 
L 13.28125 51.515625 
L 30.90625 51.515625 
L 35.890625 71.78125 
z
" id="DejaVuSans-23"/>
      <path id="DejaVuSans-20"/>
      <path d="M 37.109375 75.984375 
L 37.109375 68.5 
L 28.515625 68.5 
Q 23.6875 68.5 21.796875 66.546875 
Q 19.921875 64.59375 19.921875 59.515625 
L 19.921875 54.6875 
L 34.71875 54.6875 
L 34.71875 47.703125 
L 19.921875 47.703125 
L 19.921875 0 
L 10.890625 0 
L 10.890625 47.703125 
L 2.296875 47.703125 
L 2.296875 54.6875 
L 10.890625 54.6875 
L 10.890625 58.5 
Q 10.890625 67.625 15.140625 71.796875 
Q 19.390625 75.984375 28.609375 75.984375 
z
" id="DejaVuSans-66"/>
      <path d="M 4.890625 31.390625 
L 31.203125 31.390625 
L 31.203125 23.390625 
L 4.890625 23.390625 
z
" id="DejaVuSans-2d"/>
      <path d="M 56.203125 29.59375 
L 56.203125 25.203125 
L 14.890625 25.203125 
Q 15.484375 15.921875 20.484375 11.0625 
Q 25.484375 6.203125 34.421875 6.203125 
Q 39.59375 6.203125 44.453125 7.46875 
Q 49.3125 8.734375 54.109375 11.28125 
L 54.109375 2.78125 
Q 49.265625 0.734375 44.1875 -0.34375 
Q 39.109375 -1.421875 33.890625 -1.421875 
Q 20.796875 -1.421875 13.15625 6.1875 
Q 5.515625 13.8125 5.515625 26.8125 
Q 5.515625 40.234375 12.765625 48.109375 
Q 20.015625 56 32.328125 56 
Q 43.359375 56 49.78125 48.890625 
Q 56.203125 41.796875 56.203125 29.59375 
z
M 47.21875 32.234375 
Q 47.125 39.59375 43.09375 43.984375 
Q 39.0625 48.390625 32.421875 48.390625 
Q 24.90625 48.390625 20.390625 44.140625 
Q 15.875 39.890625 15.1875 32.171875 
z
" id="DejaVuSans-65"/>
      <path d="M 2.984375 54.6875 
L 12.5 54.6875 
L 29.59375 8.796875 
L 46.6875 54.6875 
L 56.203125 54.6875 
L 35.6875 0 
L 23.484375 0 
z
" id="DejaVuSans-76"/>
      <path d="M 34.28125 27.484375 
Q 23.390625 27.484375 19.1875 25 
Q 14.984375 22.515625 14.984375 16.5 
Q 14.984375 11.71875 18.140625 8.90625 
Q 21.296875 6.109375 26.703125 6.109375 
Q 34.1875 6.109375 38.703125 11.40625 
Q 43.21875 16.703125 43.21875 25.484375 
L 43.21875 27.484375 
z
M 52.203125 31.203125 
L 52.203125 0 
L 43.21875 0 
L 43.21875 8.296875 
Q 40.140625 3.328125 35.546875 0.953125 
Q 30.953125 -1.421875 24.3125 -1.421875 
Q 15.921875 -1.421875 10.953125 3.296875 
Q 6 8.015625 6 15.921875 
Q 6 25.140625 12.171875 29.828125 
Q 18.359375 34.515625 30.609375 34.515625 
L 43.21875 34.515625 
L 43.21875 35.40625 
Q 43.21875 41.609375 39.140625 45 
Q 35.0625 48.390625 27.6875 48.390625 
Q 23 48.390625 18.546875 47.265625 
Q 14.109375 46.140625 10.015625 43.890625 
L 10.015625 52.203125 
Q 14.9375 54.109375 19.578125 55.046875 
Q 24.21875 56 28.609375 56 
Q 40.484375 56 46.34375 49.84375 
Q 52.203125 43.703125 52.203125 31.203125 
z
" id="DejaVuSans-61"/>
      <path d="M 44.28125 53.078125 
L 44.28125 44.578125 
Q 40.484375 46.53125 36.375 47.5 
Q 32.28125 48.484375 27.875 48.484375 
Q 21.1875 48.484375 17.84375 46.4375 
Q 14.5 44.390625 14.5 40.28125 
Q 14.5 37.15625 16.890625 35.375 
Q 19.28125 33.59375 26.515625 31.984375 
L 29.59375 31.296875 
Q 39.15625 29.25 43.1875 25.515625 
Q 47.21875 21.78125 47.21875 15.09375 
Q 47.21875 7.46875 41.1875 3.015625 
Q 35.15625 -1.421875 24.609375 -1.421875 
Q 20.21875 -1.421875 15.453125 -0.5625 
Q 10.6875 0.296875 5.421875 2 
L 5.421875 11.28125 
Q 10.40625 8.6875 15.234375 7.390625 
Q 20.0625 6.109375 24.8125 6.109375 
Q 31.15625 6.109375 34.5625 8.28125 
Q 37.984375 10.453125 37.984375 14.40625 
Q 37.984375 18.0625 35.515625 20.015625 
Q 33.0625 21.96875 24.703125 23.78125 
L 21.578125 24.515625 
Q 13.234375 26.265625 9.515625 29.90625 
Q 5.8125 33.546875 5.8125 39.890625 
Q 5.8125 47.609375 11.28125 51.796875 
Q 16.75 56 26.8125 56 
Q 31.78125 56 36.171875 55.265625 
Q 40.578125 54.546875 44.28125 53.078125 
z
" id="DejaVuSans-73"/>
      <path d="M 25.390625 72.90625 
L 33.6875 72.90625 
L 8.296875 -9.28125 
L 0 -9.28125 
z
" id="DejaVuSans-2f"/>
      <path d="M 45.40625 46.390625 
L 45.40625 75.984375 
L 54.390625 75.984375 
L 54.390625 0 
L 45.40625 0 
L 45.40625 8.203125 
Q 42.578125 3.328125 38.25 0.953125 
Q 33.9375 -1.421875 27.875 -1.421875 
Q 17.96875 -1.421875 11.734375 6.484375 
Q 5.515625 14.40625 5.515625 27.296875 
Q 5.515625 40.1875 11.734375 48.09375 
Q 17.96875 56 27.875 56 
Q 33.9375 56 38.25 53.625 
Q 42.578125 51.265625 45.40625 46.390625 
z
M 14.796875 27.296875 
Q 14.796875 17.390625 18.875 11.75 
Q 22.953125 6.109375 30.078125 6.109375 
Q 37.203125 6.109375 41.296875 11.75 
Q 45.40625 17.390625 45.40625 27.296875 
Q 45.40625 37.203125 41.296875 42.84375 
Q 37.203125 48.484375 30.078125 48.484375 
Q 22.953125 48.484375 18.875 42.84375 
Q 14.796875 37.203125 14.796875 27.296875 
z
" id="DejaVuSans-64"/>
      <path d="M 9.421875 54.6875 
L 18.40625 54.6875 
L 18.40625 0 
L 9.421875 0 
z
M 9.421875 75.984375 
L 18.40625 75.984375 
L 18.40625 64.59375 
L 9.421875 64.59375 
z
" id="DejaVuSans-69"/>
      <path d="M 52 44.1875 
Q 55.375 50.25 60.0625 53.125 
Q 64.75 56 71.09375 56 
Q 79.640625 56 84.28125 50.015625 
Q 88.921875 44.046875 88.921875 33.015625 
L 88.921875 0 
L 79.890625 0 
L 79.890625 32.71875 
Q 79.890625 40.578125 77.09375 44.375 
Q 74.3125 48.1875 68.609375 48.1875 
Q 61.625 48.1875 57.5625 43.546875 
Q 53.515625 38.921875 53.515625 30.90625 
L 53.515625 0 
L 44.484375 0 
L 44.484375 32.71875 
Q 44.484375 40.625 41.703125 44.40625 
Q 38.921875 48.1875 33.109375 48.1875 
Q 26.21875 48.1875 22.15625 43.53125 
Q 18.109375 38.875 18.109375 30.90625 
L 18.109375 0 
L 9.078125 0 
L 9.078125 54.6875 
L 18.109375 54.6875 
L 18.109375 46.1875 
Q 21.1875 51.21875 25.484375 53.609375 
Q 29.78125 56 35.6875 56 
Q 41.65625 56 45.828125 52.96875 
Q 50 49.953125 52 44.1875 
z
" id="DejaVuSans-6d"/>
      <path d="M 54.890625 33.015625 
L 54.890625 0 
L 45.90625 0 
L 45.90625 32.71875 
Q 45.90625 40.484375 42.875 44.328125 
Q 39.84375 48.1875 33.796875 48.1875 
Q 26.515625 48.1875 22.3125 43.546875 
Q 18.109375 38.921875 18.109375 30.90625 
L 18.109375 0 
L 9.078125 0 
L 9.078125 54.6875 
L 18.109375 54.6875 
L 18.109375 46.1875 
Q 21.34375 51.125 25.703125 53.5625 
Q 30.078125 56 35.796875 56 
Q 45.21875 56 50.046875 50.171875 
Q 54.890625 44.34375 54.890625 33.015625 
z
" id="DejaVuSans-6e"/>
      <path d="M 8.015625 75.875 
L 15.828125 75.875 
Q 23.140625 64.359375 26.78125 53.3125 
Q 30.421875 42.28125 30.421875 31.390625 
Q 30.421875 20.453125 26.78125 9.375 
Q 23.140625 -1.703125 15.828125 -13.1875 
L 8.015625 -13.1875 
Q 14.5 -2 17.703125 9.0625 
Q 20.90625 20.125 20.90625 31.390625 
Q 20.90625 42.671875 17.703125 53.65625 
Q 14.5 64.65625 8.015625 75.875 
z
" id="DejaVuSans-29"/>
     </defs>
     <g transform="translate(107.211219 338.153594)scale(0.17 -0.17)">
      <use xlink:href="#DejaVuSans-6c"/>
      <use x="27.783203" xlink:href="#DejaVuSans-6f"/>
      <use x="88.964844" xlink:href="#DejaVuSans-67"/>
      <use x="152.441406" xlink:href="#DejaVuSans-31"/>
      <use x="216.064453" xlink:href="#DejaVuSans-30"/>
      <use x="279.6875" xlink:href="#DejaVuSans-28"/>
      <use x="318.701172" xlink:href="#DejaVuSans-23"/>
      <use x="402.490234" xlink:href="#DejaVuSans-20"/>
      <use x="434.277344" xlink:href="#DejaVuSans-66"/>
      <use x="469.404297" xlink:href="#DejaVuSans-2d"/>
      <use x="505.488281" xlink:href="#DejaVuSans-65"/>
      <use x="567.011719" xlink:href="#DejaVuSans-76"/>
      <use x="626.191406" xlink:href="#DejaVuSans-61"/>
      <use x="687.470703" xlink:href="#DejaVuSans-6c"/>
      <use x="715.253906" xlink:href="#DejaVuSans-73"/>
      <use x="767.353516" xlink:href="#DejaVuSans-20"/>
      <use x="799.140625" xlink:href="#DejaVuSans-2f"/>
      <use x="832.832031" xlink:href="#DejaVuSans-20"/>
      <use x="864.619141" xlink:href="#DejaVuSans-64"/>
      <use x="928.095703" xlink:href="#DejaVuSans-69"/>
      <use x="955.878906" xlink:href="#DejaVuSans-6d"/>
      <use x="1053.291016" xlink:href="#DejaVuSans-65"/>
      <use x="1114.814453" xlink:href="#DejaVuSans-6e"/>
      <use x="1178.193359" xlink:href="#DejaVuSans-73"/>
      <use x="1230.292969" xlink:href="#DejaVuSans-69"/>
      <use x="1258.076172" xlink:href="#DejaVuSans-6f"/>
      <use x="1319.257812" xlink:href="#DejaVuSans-6e"/>
      <use x="1382.636719" xlink:href="#DejaVuSans-29"/>
     </g>
    </g>
   </g>
   <g id="matplotlib.axis_2">
    <g id="ytick_1">
     <g id="line2d_11">
      <path clip-path="url(#pba94c02daa)" d="M 56.12 294.88 
L 399.984 294.88 
" style="fill:none;stroke:#b0b0b0;stroke-linecap:square;stroke-width:0.8;"/>
     </g>
     <g id="line2d_12">
      <defs>
       <path d="M 0 0 
L -3.5 0 
" id="m7970b1736c" style="stroke:#000000;stroke-width:0.8;"/>
      </defs>
      <g>
       <use style="stroke:#000000;stroke-width:0.8;" x="56.12" xlink:href="#m7970b1736c" y="294.88"/>
      </g>
     </g>
     <g id="text_7">
      <!-- 0.0 -->
      <defs>
       <path d="M 10.6875 12.40625 
L 21 12.40625 
L 21 0 
L 10.6875 0 
z
" id="DejaVuSans-2e"/>
      </defs>
      <g transform="translate(23.675 300.95875)scale(0.16 -0.16)">
       <use xlink:href="#DejaVuSans-30"/>
       <use x="63.623047" xlink:href="#DejaVuSans-2e"/>
       <use x="95.410156" xlink:href="#DejaVuSans-30"/>
      </g>
     </g>
    </g>
    <g id="ytick_2">
     <g id="line2d_13">
      <path clip-path="url(#pba94c02daa)" d="M 56.12 237.843411 
L 399.984 237.843411 
" style="fill:none;stroke:#b0b0b0;stroke-linecap:square;stroke-width:0.8;"/>
     </g>
     <g id="line2d_14">
      <g>
       <use style="stroke:#000000;stroke-width:0.8;" x="56.12" xlink:href="#m7970b1736c" y="237.843411"/>
      </g>
     </g>
     <g id="text_8">
      <!-- 0.2 -->
      <g transform="translate(23.675 243.922161)scale(0.16 -0.16)">
       <use xlink:href="#DejaVuSans-30"/>
       <use x="63.623047" xlink:href="#DejaVuSans-2e"/>
       <use x="95.410156" xlink:href="#DejaVuSans-32"/>
      </g>
     </g>
    </g>
    <g id="ytick_3">
     <g id="line2d_15">
      <path clip-path="url(#pba94c02daa)" d="M 56.12 180.806823 
L 399.984 180.806823 
" style="fill:none;stroke:#b0b0b0;stroke-linecap:square;stroke-width:0.8;"/>
     </g>
     <g id="line2d_16">
      <g>
       <use style="stroke:#000000;stroke-width:0.8;" x="56.12" xlink:href="#m7970b1736c" y="180.806823"/>
      </g>
     </g>
     <g id="text_9">
      <!-- 0.4 -->
      <g transform="translate(23.675 186.885573)scale(0.16 -0.16)">
       <use xlink:href="#DejaVuSans-30"/>
       <use x="63.623047" xlink:href="#DejaVuSans-2e"/>
       <use x="95.410156" xlink:href="#DejaVuSans-34"/>
      </g>
     </g>
    </g>
    <g id="ytick_4">
     <g id="line2d_17">
      <path clip-path="url(#pba94c02daa)" d="M 56.12 123.770234 
L 399.984 123.770234 
" style="fill:none;stroke:#b0b0b0;stroke-linecap:square;stroke-width:0.8;"/>
     </g>
     <g id="line2d_18">
      <g>
       <use style="stroke:#000000;stroke-width:0.8;" x="56.12" xlink:href="#m7970b1736c" y="123.770234"/>
      </g>
     </g>
     <g id="text_10">
      <!-- 0.6 -->
      <g transform="translate(23.675 129.848984)scale(0.16 -0.16)">
       <use xlink:href="#DejaVuSans-30"/>
       <use x="63.623047" xlink:href="#DejaVuSans-2e"/>
       <use x="95.410156" xlink:href="#DejaVuSans-36"/>
      </g>
     </g>
    </g>
    <g id="ytick_5">
     <g id="line2d_19">
      <path clip-path="url(#pba94c02daa)" d="M 56.12 66.733646 
L 399.984 66.733646 
" style="fill:none;stroke:#b0b0b0;stroke-linecap:square;stroke-width:0.8;"/>
     </g>
     <g id="line2d_20">
      <g>
       <use style="stroke:#000000;stroke-width:0.8;" x="56.12" xlink:href="#m7970b1736c" y="66.733646"/>
      </g>
     </g>
     <g id="text_11">
      <!-- 0.8 -->
      <g transform="translate(23.675 72.812396)scale(0.16 -0.16)">
       <use xlink:href="#DejaVuSans-30"/>
       <use x="63.623047" xlink:href="#DejaVuSans-2e"/>
       <use x="95.410156" xlink:href="#DejaVuSans-38"/>
      </g>
     </g>
    </g>
    <g id="ytick_6">
     <g id="line2d_21">
      <path clip-path="url(#pba94c02daa)" d="M 56.12 9.697057 
L 399.984 9.697057 
" style="fill:none;stroke:#b0b0b0;stroke-linecap:square;stroke-width:0.8;"/>
     </g>
     <g id="line2d_22">
      <g>
       <use style="stroke:#000000;stroke-width:0.8;" x="56.12" xlink:href="#m7970b1736c" y="9.697057"/>
      </g>
     </g>
     <g id="text_12">
      <!-- 1.0 -->
      <g transform="translate(23.675 15.775807)scale(0.16 -0.16)">
       <use xlink:href="#DejaVuSans-31"/>
       <use x="63.623047" xlink:href="#DejaVuSans-2e"/>
       <use x="95.410156" xlink:href="#DejaVuSans-30"/>
      </g>
     </g>
    </g>
    <g id="text_13">
     <!-- Fraction of function,target pairs -->
     <defs>
      <path d="M 9.8125 72.90625 
L 51.703125 72.90625 
L 51.703125 64.59375 
L 19.671875 64.59375 
L 19.671875 43.109375 
L 48.578125 43.109375 
L 48.578125 34.8125 
L 19.671875 34.8125 
L 19.671875 0 
L 9.8125 0 
z
" id="DejaVuSans-46"/>
      <path d="M 41.109375 46.296875 
Q 39.59375 47.171875 37.8125 47.578125 
Q 36.03125 48 33.890625 48 
Q 26.265625 48 22.1875 43.046875 
Q 18.109375 38.09375 18.109375 28.8125 
L 18.109375 0 
L 9.078125 0 
L 9.078125 54.6875 
L 18.109375 54.6875 
L 18.109375 46.1875 
Q 20.953125 51.171875 25.484375 53.578125 
Q 30.03125 56 36.53125 56 
Q 37.453125 56 38.578125 55.875 
Q 39.703125 55.765625 41.0625 55.515625 
z
" id="DejaVuSans-72"/>
      <path d="M 48.78125 52.59375 
L 48.78125 44.1875 
Q 44.96875 46.296875 41.140625 47.34375 
Q 37.3125 48.390625 33.40625 48.390625 
Q 24.65625 48.390625 19.8125 42.84375 
Q 14.984375 37.3125 14.984375 27.296875 
Q 14.984375 17.28125 19.8125 11.734375 
Q 24.65625 6.203125 33.40625 6.203125 
Q 37.3125 6.203125 41.140625 7.25 
Q 44.96875 8.296875 48.78125 10.40625 
L 48.78125 2.09375 
Q 45.015625 0.34375 40.984375 -0.53125 
Q 36.96875 -1.421875 32.421875 -1.421875 
Q 20.0625 -1.421875 12.78125 6.34375 
Q 5.515625 14.109375 5.515625 27.296875 
Q 5.515625 40.671875 12.859375 48.328125 
Q 20.21875 56 33.015625 56 
Q 37.15625 56 41.109375 55.140625 
Q 45.0625 54.296875 48.78125 52.59375 
z
" id="DejaVuSans-63"/>
      <path d="M 18.3125 70.21875 
L 18.3125 54.6875 
L 36.8125 54.6875 
L 36.8125 47.703125 
L 18.3125 47.703125 
L 18.3125 18.015625 
Q 18.3125 11.328125 20.140625 9.421875 
Q 21.96875 7.515625 27.59375 7.515625 
L 36.8125 7.515625 
L 36.8125 0 
L 27.59375 0 
Q 17.1875 0 13.234375 3.875 
Q 9.28125 7.765625 9.28125 18.015625 
L 9.28125 47.703125 
L 2.6875 47.703125 
L 2.6875 54.6875 
L 9.28125 54.6875 
L 9.28125 70.21875 
z
" id="DejaVuSans-74"/>
      <path d="M 8.5 21.578125 
L 8.5 54.6875 
L 17.484375 54.6875 
L 17.484375 21.921875 
Q 17.484375 14.15625 20.5 10.265625 
Q 23.53125 6.390625 29.59375 6.390625 
Q 36.859375 6.390625 41.078125 11.03125 
Q 45.3125 15.671875 45.3125 23.6875 
L 45.3125 54.6875 
L 54.296875 54.6875 
L 54.296875 0 
L 45.3125 0 
L 45.3125 8.40625 
Q 42.046875 3.421875 37.71875 1 
Q 33.40625 -1.421875 27.6875 -1.421875 
Q 18.265625 -1.421875 13.375 4.4375 
Q 8.5 10.296875 8.5 21.578125 
z
M 31.109375 56 
z
" id="DejaVuSans-75"/>
      <path d="M 11.71875 12.40625 
L 22.015625 12.40625 
L 22.015625 4 
L 14.015625 -11.625 
L 7.71875 -11.625 
L 11.71875 4 
z
" id="DejaVuSans-2c"/>
      <path d="M 18.109375 8.203125 
L 18.109375 -20.796875 
L 9.078125 -20.796875 
L 9.078125 54.6875 
L 18.109375 54.6875 
L 18.109375 46.390625 
Q 20.953125 51.265625 25.265625 53.625 
Q 29.59375 56 35.59375 56 
Q 45.5625 56 51.78125 48.09375 
Q 58.015625 40.1875 58.015625 27.296875 
Q 58.015625 14.40625 51.78125 6.484375 
Q 45.5625 -1.421875 35.59375 -1.421875 
Q 29.59375 -1.421875 25.265625 0.953125 
Q 20.953125 3.328125 18.109375 8.203125 
z
M 48.6875 27.296875 
Q 48.6875 37.203125 44.609375 42.84375 
Q 40.53125 48.484375 33.40625 48.484375 
Q 26.265625 48.484375 22.1875 42.84375 
Q 18.109375 37.203125 18.109375 27.296875 
Q 18.109375 17.390625 22.1875 11.75 
Q 26.265625 6.109375 33.40625 6.109375 
Q 40.53125 6.109375 44.609375 11.75 
Q 48.6875 17.390625 48.6875 27.296875 
z
" id="DejaVuSans-70"/>
     </defs>
     <g transform="translate(16.139531 286.001989)rotate(-90)scale(0.17 -0.17)">
      <use xlink:href="#DejaVuSans-46"/>
      <use x="57.410156" xlink:href="#DejaVuSans-72"/>
      <use x="98.523438" xlink:href="#DejaVuSans-61"/>
      <use x="159.802734" xlink:href="#DejaVuSans-63"/>
      <use x="214.783203" xlink:href="#DejaVuSans-74"/>
      <use x="253.992188" xlink:href="#DejaVuSans-69"/>
      <use x="281.775391" xlink:href="#DejaVuSans-6f"/>
      <use x="342.957031" xlink:href="#DejaVuSans-6e"/>
      <use x="406.335938" xlink:href="#DejaVuSans-20"/>
      <use x="438.123047" xlink:href="#DejaVuSans-6f"/>
      <use x="499.304688" xlink:href="#DejaVuSans-66"/>
      <use x="534.509766" xlink:href="#DejaVuSans-20"/>
      <use x="566.296875" xlink:href="#DejaVuSans-66"/>
      <use x="601.501953" xlink:href="#DejaVuSans-75"/>
      <use x="664.880859" xlink:href="#DejaVuSans-6e"/>
      <use x="728.259766" xlink:href="#DejaVuSans-63"/>
      <use x="783.240234" xlink:href="#DejaVuSans-74"/>
      <use x="822.449219" xlink:href="#DejaVuSans-69"/>
      <use x="850.232422" xlink:href="#DejaVuSans-6f"/>
      <use x="911.414062" xlink:href="#DejaVuSans-6e"/>
      <use x="974.792969" xlink:href="#DejaVuSans-2c"/>
      <use x="1006.580078" xlink:href="#DejaVuSans-74"/>
      <use x="1045.789062" xlink:href="#DejaVuSans-61"/>
      <use x="1107.068359" xlink:href="#DejaVuSans-72"/>
      <use x="1148.166016" xlink:href="#DejaVuSans-67"/>
      <use x="1211.642578" xlink:href="#DejaVuSans-65"/>
      <use x="1273.166016" xlink:href="#DejaVuSans-74"/>
      <use x="1312.375" xlink:href="#DejaVuSans-20"/>
      <use x="1344.162109" xlink:href="#DejaVuSans-70"/>
      <use x="1407.638672" xlink:href="#DejaVuSans-61"/>
      <use x="1468.917969" xlink:href="#DejaVuSans-69"/>
      <use x="1496.701172" xlink:href="#DejaVuSans-72"/>
      <use x="1537.814453" xlink:href="#DejaVuSans-73"/>
     </g>
    </g>
   </g>
   <g id="line2d_23">
    <defs>
     <path d="M 0 1.5 
C 0.397805 1.5 0.77937 1.341951 1.06066 1.06066 
C 1.341951 0.77937 1.5 0.397805 1.5 0 
C 1.5 -0.397805 1.341951 -0.77937 1.06066 -1.06066 
C 0.77937 -1.341951 0.397805 -1.5 0 -1.5 
C -0.397805 -1.5 -0.77937 -1.341951 -1.06066 -1.06066 
C -1.341951 -0.77937 -1.5 -0.397805 -1.5 0 
C -1.5 0.397805 -1.341951 0.77937 -1.06066 1.06066 
C -0.77937 1.341951 -0.397805 1.5 0 1.5 
z
" id="mf959563b1f" style="stroke:#000080;"/>
    </defs>
    <g>
     <use style="fill:#000080;stroke:#000080;" x="195.682916" xlink:href="#mf959563b1f" y="37.656169"/>
     <use style="fill:#000080;stroke:#000080;" x="195.682916" xlink:href="#mf959563b1f" y="37.656169"/>
    </g>
   </g>
   <g id="line2d_24">
    <path d="M 49.144027 294.88 
L 49.144027 293.761636 
L 96.846045 293.761636 
L 96.846045 293.202453 
L 102.324999 293.202453 
L 102.324999 292.643271 
L 104.524355 292.643271 
L 104.524355 292.084089 
L 110.797991 292.084089 
L 110.797991 290.965724 
L 112.610704 290.965724 
L 112.610704 287.610631 
L 113.035537 287.610631 
L 113.035537 287.051449 
L 114.250503 287.051449 
L 114.250503 285.933084 
L 114.637146 285.933084 
L 114.637146 285.373902 
L 115.01529 285.373902 
L 115.01529 283.137173 
L 115.385301 283.137173 
L 115.385301 282.018808 
L 115.747522 282.018808 
L 115.747522 280.341262 
L 116.102274 280.341262 
L 116.102274 278.663715 
L 122.482864 278.663715 
L 122.482864 276.986168 
L 127.126794 276.986168 
L 127.126794 276.426986 
L 127.851317 276.426986 
L 127.851317 275.867804 
L 128.375364 275.867804 
L 128.375364 274.749439 
L 129.050151 274.749439 
L 129.050151 273.631075 
L 130.629687 273.631075 
L 130.629687 272.51271 
L 131.796566 272.51271 
L 131.796566 271.953528 
L 133.281829 271.953528 
L 133.281829 271.394346 
L 133.410705 271.394346 
L 133.410705 270.835164 
L 133.665597 270.835164 
L 133.665597 270.275981 
L 133.79164 270.275981 
L 133.79164 269.157617 
L 134.04099 269.157617 
L 134.04099 267.48007 
L 134.286778 267.48007 
L 134.286778 266.361706 
L 134.886312 266.361706 
L 134.886312 265.802523 
L 135.236253 265.802523 
L 135.236253 264.684159 
L 135.465655 264.684159 
L 135.465655 263.006612 
L 135.579219 263.006612 
L 135.579219 262.44743 
L 135.804122 262.44743 
L 135.804122 261.888248 
L 136.622257 261.888248 
L 136.622257 261.329066 
L 136.781317 261.329066 
L 136.781317 260.210701 
L 137.095092 260.210701 
L 137.095092 259.651519 
L 137.301141 259.651519 
L 137.301141 259.092337 
L 139.052299 259.092337 
L 139.052299 257.973972 
L 139.23631 257.973972 
L 139.327583 256.855608 
L 139.418374 256.855608 
L 139.418374 256.296425 
L 139.687907 256.296425 
L 139.687907 255.737243 
L 140.127953 255.737243 
L 140.127953 253.500514 
L 140.557025 253.500514 
L 140.557025 252.941332 
L 141.058173 252.941332 
L 141.058173 252.38215 
L 141.783544 252.38215 
L 141.783544 249.586238 
L 142.173693 249.586238 
L 142.173693 248.467874 
L 142.327309 248.467874 
L 142.327309 247.908692 
L 142.51742 247.908692 
L 142.51742 247.34951 
L 142.780095 247.34951 
L 142.780095 243.994416 
L 143.075465 243.994416 
L 143.075465 242.876052 
L 143.365849 242.876052 
L 143.365849 242.316869 
L 143.615976 242.316869 
L 143.615976 241.757687 
L 144.071065 241.757687 
L 144.071065 241.198505 
L 144.208705 241.198505 
L 144.242944 238.961776 
L 144.548063 238.961776 
L 144.548063 238.402594 
L 144.681953 238.402594 
L 144.681953 237.843411 
L 145.174963 237.843411 
L 145.174963 237.284229 
L 145.591101 237.284229 
L 145.591101 236.725047 
L 145.811075 236.725047 
L 145.873411 235.606682 
L 146.151164 235.606682 
L 146.151164 235.0475 
L 146.364136 235.0475 
L 146.364136 234.488318 
L 146.693569 234.488318 
L 146.693569 232.810771 
L 147.504723 232.810771 
L 147.561225 230.01486 
L 147.673676 230.01486 
L 147.673676 229.455678 
L 147.785396 229.455678 
L 147.785396 228.337313 
L 147.924034 228.337313 
L 147.924034 227.778131 
L 148.333368 227.778131 
L 148.360314 226.100584 
L 148.653965 226.100584 
L 148.653965 224.423038 
L 149.226646 224.423038 
L 149.328752 222.186309 
L 149.430256 222.186309 
L 149.531165 221.067944 
L 149.631485 221.067944 
L 149.731223 218.272033 
L 149.756068 218.272033 
L 149.855089 216.035304 
L 149.978069 216.035304 
L 149.978069 214.91694 
L 150.148778 214.91694 
L 150.245571 213.798575 
L 150.269684 213.798575 
L 150.269684 212.680211 
L 150.389747 212.680211 
L 150.413659 211.002664 
L 150.508977 211.002664 
L 150.556439 209.325117 
L 150.650971 209.325117 
L 150.698043 207.64757 
L 150.791803 207.64757 
L 150.861789 204.292477 
L 151.000913 204.292477 
L 151.000913 203.733295 
L 151.115996 203.733295 
L 151.207511 202.055748 
L 151.27583 202.055748 
L 151.366501 200.937384 
L 151.389095 200.937384 
L 151.389095 200.378201 
L 151.657926 200.378201 
L 151.657926 199.819019 
L 151.856829 199.819019 
L 151.900718 198.700655 
L 152.09685 198.700655 
L 152.204853 197.58229 
L 152.247865 197.58229 
L 152.269331 196.463926 
L 152.755795 196.463926 
L 152.755795 195.904743 
L 152.942468 195.904743 
L 153.024788 194.227197 
L 153.309845 194.227197 
L 153.330027 192.54965 
L 153.530552 192.54965 
L 153.530552 191.990468 
L 153.709048 191.990468 
L 153.709048 190.872103 
L 153.846609 190.872103 
L 153.944198 189.753739 
L 154.156965 189.753739 
L 154.252814 188.635374 
L 154.32911 188.635374 
L 154.40507 186.957828 
L 154.499551 186.957828 
L 154.499551 186.398645 
L 154.612247 186.398645 
L 154.612247 185.839463 
L 154.835448 185.839463 
L 154.890799 184.721099 
L 154.964324 184.721099 
L 154.964324 184.161916 
L 155.110439 184.161916 
L 155.183033 180.806823 
L 155.255322 180.806823 
L 155.36319 177.451729 
L 155.452566 177.451729 
L 155.541481 176.333365 
L 155.576918 176.333365 
L 155.682795 174.655818 
L 155.700377 174.655818 
L 155.700377 174.096636 
L 155.85782 174.096636 
L 155.961987 171.300725 
L 155.99657 171.300725 
L 156.048314 170.18236 
L 156.134209 170.18236 
L 156.185542 168.504814 
L 156.270757 168.504814 
L 156.372461 164.031356 
L 156.423088 164.031356 
L 156.473567 162.912991 
L 156.607458 162.912991 
L 156.607458 162.353809 
L 156.75685 162.353809 
L 156.855728 160.676262 
L 156.888562 160.676262 
L 156.888562 160.11708 
L 157.035543 160.11708 
L 157.132838 156.761987 
L 157.197397 156.761987 
L 157.293783 153.966075 
L 157.357741 153.966075 
L 157.421463 152.288529 
L 157.48495 152.288529 
L 157.595491 150.0518 
L 157.705326 150.0518 
L 157.783353 148.933435 
L 157.891999 148.933435 
L 157.984582 146.696706 
L 158.046028 146.696706 
L 158.122528 143.900795 
L 158.319851 143.900795 
L 158.395146 139.986519 
L 158.678299 139.986519 
L 158.766756 137.190608 
L 158.810814 137.190608 
L 158.913181 136.072244 
L 158.971404 136.072244 
L 159.029431 134.394697 
L 159.202345 134.394697 
L 159.202345 133.835515 
L 159.373539 133.835515 
L 159.458502 131.598786 
L 159.48673 131.598786 
L 159.557097 129.921239 
L 159.627178 129.921239 
L 159.627178 129.362057 
L 159.794217 129.362057 
L 159.849538 127.68451 
L 160.000761 127.68451 
L 160.000761 127.125328 
L 160.150665 127.125328 
L 160.258872 124.888599 
L 160.339583 124.888599 
L 160.339583 124.329417 
L 160.473266 124.329417 
L 160.473266 123.770234 
L 160.619127 123.770234 
L 160.711308 122.65187 
L 160.920171 122.65187 
L 160.959052 121.533505 
L 161.088025 121.533505 
L 161.126529 119.855959 
L 161.317767 119.855959 
L 161.39367 117.060047 
L 161.544481 117.060047 
L 161.594459 115.382501 
L 161.743527 115.382501 
L 161.842193 114.264136 
L 161.866772 114.264136 
L 161.866772 113.704954 
L 162.146928 113.704954 
L 162.195189 112.027407 
L 162.327211 112.027407 
L 162.422595 109.790678 
L 162.446359 109.790678 
L 162.541087 108.113132 
L 162.717307 108.113132 
L 162.79893 106.435585 
L 162.903308 106.435585 
L 162.903308 105.876403 
L 163.018545 105.876403 
L 163.064425 104.198856 
L 163.178591 104.198856 
L 163.269383 101.402945 
L 163.314599 101.402945 
L 163.382202 100.28458 
L 163.44954 100.28458 
L 163.527769 98.047851 
L 163.594541 98.047851 
L 163.649987 95.25194 
L 163.859067 95.25194 
L 163.891849 94.133576 
L 164.065637 94.133576 
L 164.065637 93.574393 
L 164.184106 93.574393 
L 164.248383 92.456029 
L 164.503117 92.456029 
L 164.566216 90.778482 
L 164.722957 90.778482 
L 164.826664 89.100935 
L 164.837 89.100935 
L 164.929749 86.305024 
L 165.123925 86.305024 
L 165.154386 85.18666 
L 165.325981 85.18666 
L 165.426126 83.509113 
L 165.495883 83.509113 
L 165.495883 82.949931 
L 165.614811 82.949931 
L 165.634553 81.831566 
L 165.752529 81.831566 
L 165.772114 80.713202 
L 166.015056 80.713202 
L 166.015056 80.15402 
L 166.13046 80.15402 
L 166.140043 79.035655 
L 166.245096 79.035655 
L 166.302129 77.917291 
L 166.443889 77.917291 
L 166.443889 77.358108 
L 166.640411 77.358108 
L 166.640411 76.798926 
L 166.834714 76.798926 
L 166.834714 76.239744 
L 167.288695 76.239744 
L 167.378071 75.121379 
L 167.511271 75.121379 
L 167.581891 73.443833 
L 167.625882 73.443833 
L 167.731004 72.325468 
L 167.783325 72.325468 
L 167.878835 69.529557 
L 167.904792 69.529557 
L 167.904792 68.970375 
L 168.145183 68.970375 
L 168.196261 67.85201 
L 168.415865 67.85201 
L 168.415865 67.292828 
L 168.591213 67.292828 
L 168.591213 66.174463 
L 168.855021 66.174463 
L 168.961048 64.496917 
L 169.114844 64.496917 
L 169.20326 62.81937 
L 169.251296 62.81937 
L 169.331059 61.141823 
L 169.560303 61.141823 
L 169.615183 60.023459 
L 169.677689 60.023459 
L 169.747738 58.905094 
L 170.215145 58.905094 
L 170.298096 57.78673 
L 170.904172 57.78673 
L 170.991102 56.668365 
L 171.552683 56.668365 
L 171.643363 55.550001 
L 171.960449 55.550001 
L 172.049011 53.872454 
L 172.981376 53.872454 
L 172.981376 53.313272 
L 173.281265 53.313272 
L 173.281265 52.75409 
L 173.853569 52.75409 
L 173.853569 51.635725 
L 173.993719 51.635725 
L 173.993719 51.076543 
L 174.712798 51.076543 
L 174.712798 50.517361 
L 175.172234 50.517361 
L 175.279571 48.280632 
L 175.888166 48.280632 
L 175.888166 47.72145 
L 178.046377 47.72145 
L 178.046377 47.162267 
L 178.519328 47.162267 
L 178.519328 46.603085 
L 178.879411 46.603085 
L 178.879411 46.043903 
L 179.739276 46.043903 
L 179.739276 45.484721 
L 179.950912 45.484721 
L 179.950912 44.925538 
L 180.710845 44.925538 
L 180.714952 43.807174 
L 181.13678 43.807174 
L 181.13678 43.247992 
L 181.715911 43.247992 
L 181.715911 42.688809 
L 182.898533 42.688809 
L 182.949093 41.570445 
L 183.937103 41.570445 
L 183.937103 41.011263 
L 184.935821 41.011263 
L 184.935821 40.45208 
L 185.461056 40.45208 
L 185.461056 39.892898 
L 187.464976 39.892898 
L 187.464976 39.333716 
L 187.957124 39.333716 
L 187.957124 38.774534 
L 188.427719 38.774534 
L 188.427719 38.215351 
L 195.682916 38.215351 
L 195.682916 37.656169 
L 333.429677 37.656169 
L 333.429677 37.656169 
" style="fill:none;stroke:#000080;stroke-linecap:square;stroke-width:1.5;"/>
   </g>
   <g id="line2d_25">
    <defs>
     <path d="M 0 6 
C 1.591219 6 3.117479 5.367802 4.242641 4.242641 
C 5.367802 3.117479 6 1.591219 6 0 
C 6 -1.591219 5.367802 -3.117479 4.242641 -4.242641 
C 3.117479 -5.367802 1.591219 -6 0 -6 
C -1.591219 -6 -3.117479 -5.367802 -4.242641 -4.242641 
C -5.367802 -3.117479 -6 -1.591219 -6 0 
C -6 1.591219 -5.367802 3.117479 -4.242641 4.242641 
C -3.117479 5.367802 -1.591219 6 0 6 
z
" id="mde32794aea" style="stroke:#000080;stroke-width:1.5;"/>
    </defs>
    <g>
     <use style="fill-opacity:0;stroke:#000080;stroke-width:1.5;" x="150.413659" xlink:href="#mde32794aea" y="212.121028"/>
     <use style="fill-opacity:0;stroke:#000080;stroke-width:1.5;" x="162.146928" xlink:href="#mde32794aea" y="113.704954"/>
     <use style="fill-opacity:0;stroke:#000080;stroke-width:1.5;" x="183.937103" xlink:href="#mde32794aea" y="41.011263"/>
     <use style="fill-opacity:0;stroke:#000080;stroke-width:1.5;" x="195.682916" xlink:href="#mde32794aea" y="37.656169"/>
     <use style="fill-opacity:0;stroke:#000080;stroke-width:1.5;" x="195.682916" xlink:href="#mde32794aea" y="37.656169"/>
     <use style="fill-opacity:0;stroke:#000080;stroke-width:1.5;" x="333.429677" xlink:href="#mde32794aea" y="37.656169"/>
    </g>
   </g>
   <g id="line2d_26">
    <path style="fill:none;stroke:#000080;stroke-linecap:square;stroke-width:1.5;"/>
    <g/>
   </g>
   <g id="line2d_27">
    <path clip-path="url(#pba94c02daa)" d="M 132.55522 271.953528 
" style="fill:none;stroke:#000080;stroke-linecap:square;stroke-width:1.5;"/>
    <defs>
     <path d="M -12 12 
L 12 -12 
M -12 -12 
L 12 12 
" id="m7a1428ecf0" style="stroke:#000080;stroke-width:3;"/>
    </defs>
    <g clip-path="url(#pba94c02daa)">
     <use style="fill:#000080;stroke:#000080;stroke-width:3;" x="132.55522" xlink:href="#m7a1428ecf0" y="271.953528"/>
    </g>
   </g>
   <g id="line2d_28">
    <defs>
     <path d="M 0 1.5 
C 0.397805 1.5 0.77937 1.341951 1.06066 1.06066 
C 1.341951 0.77937 1.5 0.397805 1.5 0 
C 1.5 -0.397805 1.341951 -0.77937 1.06066 -1.06066 
C 0.77937 -1.341951 0.397805 -1.5 0 -1.5 
C -0.397805 -1.5 -0.77937 -1.341951 -1.06066 -1.06066 
C -1.341951 -0.77937 -1.5 -0.397805 -1.5 0 
C -1.5 0.397805 -1.341951 0.77937 -1.06066 1.06066 
C -0.77937 1.341951 -0.397805 1.5 0 1.5 
z
" id="m141ffbb0fd" style="stroke:#ff00ff;"/>
    </defs>
    <g>
     <use style="fill:#ff00ff;stroke:#ff00ff;" x="161.35576" xlink:href="#m141ffbb0fd" y="233.369954"/>
     <use style="fill:#ff00ff;stroke:#ff00ff;" x="161.35576" xlink:href="#m141ffbb0fd" y="233.369954"/>
    </g>
   </g>
   <g id="line2d_29">
    <path d="M 49.144027 294.88 
L 49.144027 285.933084 
L 84.92054 285.933084 
L 84.92054 280.341262 
L 95.735668 280.341262 
L 95.735668 273.631075 
L 102.324999 273.631075 
L 102.324999 269.716799 
L 107.077901 269.716799 
L 107.077901 266.361706 
L 110.797991 266.361706 
L 110.797991 264.684159 
L 113.854971 264.684159 
L 113.854971 261.329066 
L 116.449859 261.329066 
L 116.449859 259.092337 
L 118.704183 259.092337 
L 118.704183 254.059696 
L 120.697054 254.059696 
L 120.697054 250.145421 
L 122.482864 250.145421 
L 122.482864 249.027056 
L 124.100619 249.027056 
L 124.100619 248.467874 
L 125.579247 248.467874 
L 125.579247 247.34951 
L 126.940794 247.34951 
L 126.940794 245.671963 
L 129.377872 245.671963 
L 129.377872 245.112781 
L 130.478102 245.112781 
L 130.478102 244.553598 
L 132.487617 244.553598 
L 132.487617 243.435234 
L 133.410705 243.435234 
L 133.410705 240.08014 
L 135.915481 240.08014 
L 135.915481 239.520958 
L 136.675441 239.520958 
L 136.675441 238.961776 
L 138.101512 238.961776 
L 138.101512 238.402594 
L 138.772539 238.402594 
L 138.772539 237.843411 
L 139.418374 237.843411 
L 139.418374 237.284229 
L 143.862519 237.284229 
L 143.862519 236.725047 
L 144.81481 236.725047 
L 144.81481 236.165865 
L 146.987677 236.165865 
L 146.987677 235.606682 
L 147.785396 235.606682 
L 147.785396 235.0475 
L 148.547762 235.0475 
L 148.547762 234.488318 
L 150.31781 234.488318 
L 150.31781 233.929136 
L 161.35576 233.929136 
L 161.35576 233.369954 
L 333.429677 233.369954 
" style="fill:none;stroke:#ff00ff;stroke-linecap:square;stroke-width:1.5;"/>
   </g>
   <g id="line2d_30">
    <defs>
     <path d="M -0 8.485281 
L 5.091169 0 
L 0 -8.485281 
L -5.091169 -0 
z
" id="m73f90c5704" style="stroke:#ff00ff;stroke-linejoin:miter;stroke-width:1.5;"/>
    </defs>
    <g>
     <use style="fill-opacity:0;stroke:#ff00ff;stroke-linejoin:miter;stroke-width:1.5;" x="110.797991" xlink:href="#m73f90c5704" y="264.684159"/>
     <use style="fill-opacity:0;stroke:#ff00ff;stroke-linejoin:miter;stroke-width:1.5;" x="161.35576" xlink:href="#m73f90c5704" y="233.929136"/>
     <use style="fill-opacity:0;stroke:#ff00ff;stroke-linejoin:miter;stroke-width:1.5;" x="161.35576" xlink:href="#m73f90c5704" y="233.929136"/>
     <use style="fill-opacity:0;stroke:#ff00ff;stroke-linejoin:miter;stroke-width:1.5;" x="161.35576" xlink:href="#m73f90c5704" y="233.369954"/>
     <use style="fill-opacity:0;stroke:#ff00ff;stroke-linejoin:miter;stroke-width:1.5;" x="161.35576" xlink:href="#m73f90c5704" y="233.369954"/>
     <use style="fill-opacity:0;stroke:#ff00ff;stroke-linejoin:miter;stroke-width:1.5;" x="333.429677" xlink:href="#m73f90c5704" y="233.369954"/>
    </g>
   </g>
   <g id="line2d_31">
    <path style="fill:none;stroke:#ff00ff;stroke-linecap:square;stroke-width:1.5;"/>
    <g/>
   </g>
   <g id="line2d_32">
    <path clip-path="url(#pba94c02daa)" d="M 82.623151 285.933084 
" style="fill:none;stroke:#ff00ff;stroke-linecap:square;stroke-width:1.5;"/>
    <defs>
     <path d="M -12 12 
L 12 -12 
M -12 -12 
L 12 12 
" id="mf75eb0090a" style="stroke:#ff00ff;stroke-width:3;"/>
    </defs>
    <g clip-path="url(#pba94c02daa)">
     <use style="fill:#ff00ff;stroke:#ff00ff;stroke-width:3;" x="82.623151" xlink:href="#mf75eb0090a" y="285.933084"/>
    </g>
   </g>
   <g id="line2d_33">
    <defs>
     <path d="M 0 1.5 
C 0.397805 1.5 0.77937 1.341951 1.06066 1.06066 
C 1.341951 0.77937 1.5 0.397805 1.5 0 
C 1.5 -0.397805 1.341951 -0.77937 1.06066 -1.06066 
C 0.77937 -1.341951 0.397805 -1.5 0 -1.5 
C -0.397805 -1.5 -0.77937 -1.341951 -1.06066 -1.06066 
C -1.341951 -0.77937 -1.5 -0.397805 -1.5 0 
C -1.5 0.397805 -1.341951 0.77937 -1.06066 1.06066 
C -0.77937 1.341951 -0.397805 1.5 0 1.5 
z
" id="mc7108f68dc" style="stroke:#ffa500;"/>
    </defs>
    <g>
     <use style="fill:#ffa500;stroke:#ffa500;" x="175.871851" xlink:href="#mc7108f68dc" y="9.697057"/>
     <use style="fill:#ffa500;stroke:#ffa500;" x="175.871851" xlink:href="#mc7108f68dc" y="9.697057"/>
    </g>
   </g>
   <g id="line2d_34">
    <path d="M 102.324999 294.88 
L 102.324999 294.320818 
L 105.848459 294.320818 
L 105.848459 293.761636 
L 108.225317 293.761636 
L 108.225317 292.643271 
L 108.771549 292.643271 
L 108.771549 291.524907 
L 109.814588 291.524907 
L 109.814588 289.84736 
L 110.313314 289.84736 
L 110.313314 288.728995 
L 113.854971 288.728995 
L 113.854971 287.610631 
L 114.637146 287.610631 
L 114.637146 286.492266 
L 115.01529 286.492266 
L 115.01529 285.373902 
L 115.385301 285.373902 
L 115.385301 284.81472 
L 119.871061 284.81472 
L 119.871061 284.255537 
L 125.979378 284.255537 
L 125.979378 283.696355 
L 126.752761 283.696355 
L 126.752761 281.459626 
L 127.492869 281.459626 
L 127.492869 280.900444 
L 127.673027 280.900444 
L 127.673027 278.663715 
L 128.202449 278.663715 
L 128.202449 278.104533 
L 128.375364 278.104533 
L 128.375364 275.867804 
L 128.546558 275.867804 
L 128.546558 274.190257 
L 129.050151 274.190257 
L 129.050151 273.071893 
L 129.377872 273.071893 
L 129.377872 272.51271 
L 129.539422 272.51271 
L 129.539422 270.835164 
L 129.699468 270.835164 
L 129.699468 269.716799 
L 130.015162 269.716799 
L 130.015162 265.802523 
L 130.170864 265.802523 
L 130.170864 264.684159 
L 130.325168 264.684159 
L 130.325168 262.44743 
L 130.629687 262.44743 
L 130.629687 261.329066 
L 130.779949 261.329066 
L 130.779949 260.210701 
L 131.076592 260.210701 
L 131.076592 258.533154 
L 131.223017 258.533154 
L 131.223017 257.41479 
L 131.368207 257.41479 
L 131.368207 256.855608 
L 131.512181 256.855608 
L 131.512181 254.618879 
L 131.796566 254.618879 
L 131.796566 254.059696 
L 132.076326 254.059696 
L 132.076326 253.500514 
L 132.214518 253.500514 
L 132.214518 252.941332 
L 132.889306 252.941332 
L 132.889306 251.822967 
L 133.021144 251.822967 
L 133.021144 250.704603 
L 133.410705 250.704603 
L 133.410705 248.467874 
L 133.538623 248.467874 
L 133.538623 247.908692 
L 133.665597 247.908692 
L 133.665597 245.112781 
L 134.04099 245.112781 
L 134.04099 243.994416 
L 134.164323 243.994416 
L 134.164323 243.435234 
L 134.286778 243.435234 
L 134.286778 242.876052 
L 134.529104 242.876052 
L 134.529104 241.198505 
L 134.648999 241.198505 
L 134.648999 238.961776 
L 134.768065 238.961776 
L 134.768065 237.284229 
L 135.003752 237.284229 
L 135.003752 236.725047 
L 135.236253 236.725047 
L 135.236253 235.606682 
L 135.692038 235.606682 
L 135.692038 234.488318 
L 135.804122 234.488318 
L 135.804122 233.929136 
L 136.026124 233.929136 
L 136.136059 232.251589 
L 136.675441 232.251589 
L 136.675441 231.133225 
L 137.095092 231.133225 
L 137.095092 230.574042 
L 137.70598 230.574042 
L 137.70598 230.01486 
L 138.003478 230.01486 
L 138.003478 228.896496 
L 138.19899 228.896496 
L 138.295919 225.541402 
L 138.678265 225.541402 
L 138.678265 224.423038 
L 138.866299 224.423038 
L 138.866299 223.304673 
L 139.23631 223.304673 
L 139.23631 222.186309 
L 139.418374 222.186309 
L 139.418374 221.627126 
L 139.643277 221.627126 
L 139.643277 221.067944 
L 140.725701 221.067944 
L 140.809423 218.831215 
L 140.934247 218.831215 
L 140.934247 218.272033 
L 141.22203 218.272033 
L 141.303377 216.594486 
L 141.384341 216.594486 
L 141.464926 214.357757 
L 142.018694 214.357757 
L 142.018694 213.798575 
L 142.289034 213.798575 
L 142.289034 213.239393 
L 142.441628 213.239393 
L 142.441628 212.680211 
L 142.555192 212.680211 
L 142.555192 211.561846 
L 142.705453 211.561846 
L 142.705453 209.884299 
L 142.817295 209.884299 
L 142.854414 207.64757 
L 143.002096 207.64757 
L 143.075465 206.529206 
L 143.686778 206.529206 
L 143.792438 204.851659 
L 144.140023 204.851659 
L 144.208705 203.174112 
L 144.277114 203.174112 
L 144.345252 200.937384 
L 144.480724 200.937384 
L 144.548063 197.023108 
L 144.74851 197.023108 
L 144.81481 195.904743 
L 144.880856 195.904743 
L 144.946649 193.668014 
L 145.012191 193.668014 
L 145.012191 193.108832 
L 145.207333 193.108832 
L 145.207333 192.54965 
L 145.336209 192.54965 
L 145.400287 191.431285 
L 145.464127 191.431285 
L 145.464127 190.872103 
L 145.904495 190.872103 
L 145.904495 190.312921 
L 146.151164 190.312921 
L 146.151164 189.753739 
L 146.574504 189.753739 
L 146.63414 188.076192 
L 146.693569 188.076192 
L 146.693569 186.957828 
L 146.929256 186.957828 
L 147.016813 185.839463 
L 147.0459 185.839463 
L 147.0459 185.280281 
L 147.276841 185.280281 
L 147.276841 183.043552 
L 147.419621 183.043552 
L 147.504723 181.925187 
L 147.729627 181.925187 
L 147.813213 179.688458 
L 147.951628 179.688458 
L 147.951628 178.010912 
L 148.170801 178.010912 
L 148.27935 175.774183 
L 148.333368 175.774183 
L 148.414079 173.537454 
L 148.467677 173.537454 
L 148.521108 172.419089 
L 148.653965 172.419089 
L 148.759517 170.741543 
L 148.812051 170.741543 
L 148.864425 167.945631 
L 148.942688 167.945631 
L 149.020597 165.708902 
L 149.12393 165.708902 
L 149.175364 162.912991 
L 149.252229 162.912991 
L 149.277775 161.235444 
L 149.379579 161.235444 
L 149.404936 158.439533 
L 149.531165 158.439533 
L 149.581398 157.321169 
L 149.656474 157.321169 
L 149.756068 155.643622 
L 149.879756 155.643622 
L 149.978069 153.406893 
L 150.100177 153.406893 
L 150.173027 151.729346 
L 150.221424 151.729346 
L 150.245571 150.610982 
L 150.341822 150.610982 
L 150.365801 148.933435 
L 150.485197 148.933435 
L 150.58012 146.696706 
L 150.60377 146.696706 
L 150.60377 146.137524 
L 150.885054 146.137524 
L 150.977803 144.459977 
L 151.000913 144.459977 
L 151.093041 142.78243 
L 151.13892 142.78243 
L 151.13892 142.223248 
L 151.389095 142.223248 
L 151.479173 140.545702 
L 151.546423 140.545702 
L 151.613412 137.74979 
L 151.724483 137.74979 
L 151.834841 136.631426 
L 151.900718 136.631426 
L 151.966344 134.953879 
L 152.09685 134.953879 
L 152.204853 133.835515 
L 152.247865 133.835515 
L 152.312182 130.480421 
L 152.37626 130.480421 
L 152.482529 127.68451 
L 152.588145 127.68451 
L 152.588145 127.125328 
L 152.755795 127.125328 
L 152.818244 122.65187 
L 152.901159 122.65187 
L 152.942468 119.855959 
L 153.024788 119.855959 
L 153.08627 115.941683 
L 153.430582 115.941683 
L 153.47064 114.264136 
L 153.570378 114.264136 
L 153.649755 110.909043 
L 153.689306 110.909043 
L 153.787789 108.672314 
L 153.827025 108.672314 
L 153.905229 106.994767 
L 153.96365 106.994767 
L 153.96365 106.435585 
L 154.118475 106.435585 
L 154.214538 105.31722 
L 154.40507 105.31722 
L 154.499551 103.080491 
L 154.593515 103.080491 
L 154.593515 100.843762 
L 154.872368 100.843762 
L 154.872368 100.28458 
L 155.037536 100.28458 
L 155.128616 99.166216 
L 155.201134 99.166216 
L 155.291354 96.370304 
L 155.647575 96.370304 
L 155.735489 93.015211 
L 155.788023 93.015211 
L 155.788023 91.896847 
L 155.909982 91.896847 
L 156.013835 90.2193 
L 156.048314 90.2193 
L 156.151337 89.100935 
L 156.202619 89.100935 
L 156.304725 86.305024 
L 156.423088 86.305024 
L 156.523898 83.509113 
L 156.607458 83.509113 
L 156.707196 79.594837 
L 156.839288 79.594837 
L 156.921333 77.358108 
L 157.213498 77.358108 
L 157.213498 76.798926 
L 157.405555 76.798926 
L 157.405555 76.239744 
L 157.689678 76.239744 
L 157.689678 75.680562 
L 157.814465 75.680562 
L 157.907464 74.003015 
L 158.061355 74.003015 
L 158.137787 71.766286 
L 158.425172 71.766286 
L 158.425172 71.207104 
L 158.737321 71.207104 
L 158.810814 70.088739 
L 158.869384 70.088739 
L 158.971404 67.292828 
L 158.985929 67.292828 
L 159.072822 65.056099 
L 159.245304 65.056099 
L 159.316664 62.260188 
L 159.359338 62.260188 
L 159.430228 61.141823 
L 159.500826 61.141823 
L 159.543047 60.023459 
L 159.683038 60.023459 
L 159.780359 57.227548 
L 159.877132 57.227548 
L 159.973364 55.550001 
L 160.028113 55.550001 
L 160.028113 54.990819 
L 160.191323 54.990819 
L 160.204854 53.313272 
L 160.366403 53.313272 
L 160.446613 51.635725 
L 160.499878 51.635725 
L 160.499878 50.517361 
L 160.645515 50.517361 
L 160.645515 49.958178 
L 160.984924 49.958178 
L 161.062307 48.280632 
L 161.228787 48.280632 
L 161.254256 46.603085 
L 161.631847 46.603085 
L 161.631847 46.043903 
L 161.792931 46.043903 
L 161.792931 45.484721 
L 162.013509 45.484721 
L 162.013509 44.925538 
L 162.183136 44.925538 
L 162.27932 43.807174 
L 162.351107 43.807174 
L 162.351107 43.247992 
L 162.493788 43.247992 
L 162.493788 42.688809 
L 162.984055 42.688809 
L 163.018545 41.570445 
L 163.110182 41.570445 
L 163.110182 41.011263 
L 163.393443 41.011263 
L 163.494286 39.892898 
L 163.572313 39.892898 
L 163.672116 37.656169 
L 163.848126 37.656169 
L 163.848126 37.096987 
L 164.065637 37.096987 
L 164.065637 36.537805 
L 164.301765 36.537805 
L 164.301765 35.978622 
L 164.919468 35.978622 
L 164.981061 34.860258 
L 165.073039 34.860258 
L 165.123925 33.741894 
L 165.245444 33.741894 
L 165.356086 32.064347 
L 166.024702 32.064347 
L 166.043979 30.945982 
L 166.168757 30.945982 
L 166.254615 27.590889 
L 166.283139 27.590889 
L 166.283139 27.031707 
L 166.453298 27.031707 
L 166.528388 25.35416 
L 166.972171 25.35416 
L 166.972171 24.794978 
L 167.395891 24.794978 
L 167.449239 23.676613 
L 167.537787 23.676613 
L 167.590698 22.558249 
L 167.783325 22.558249 
L 167.783325 21.999066 
L 167.973818 21.999066 
L 167.973818 21.439884 
L 168.221744 21.439884 
L 168.238711 20.32152 
L 168.424255 20.32152 
L 168.482875 18.643973 
L 169.315136 18.643973 
L 169.37874 17.525609 
L 169.44211 17.525609 
L 169.520995 16.407244 
L 169.607353 16.407244 
L 169.607353 15.848062 
L 170.09377 15.848062 
L 170.09377 15.28888 
L 170.215145 15.28888 
L 170.215145 14.729697 
L 170.395617 14.729697 
L 170.395617 14.170515 
L 170.765629 14.170515 
L 170.845974 13.052151 
L 171.566665 13.052151 
L 171.566665 12.492968 
L 172.617101 12.492968 
L 172.617101 11.933786 
L 173.438675 11.933786 
L 173.438675 11.374604 
L 173.89024 11.374604 
L 173.89024 10.815422 
L 175.1779 10.815422 
L 175.1779 10.256239 
L 175.871851 10.256239 
L 175.871851 9.697057 
L 333.429677 9.697057 
L 333.429677 9.697057 
" style="fill:none;stroke:#ffa500;stroke-linecap:square;stroke-width:1.5;"/>
   </g>
   <g id="line2d_35">
    <defs>
     <path d="M 0 -6 
L -1.347084 -1.854102 
L -5.706339 -1.854102 
L -2.179628 0.708204 
L -3.526712 4.854102 
L -0 2.291796 
L 3.526712 4.854102 
L 2.179628 0.708204 
L 5.706339 -1.854102 
L 1.347084 -1.854102 
z
" id="mc50e4107d1" style="stroke:#ffa500;stroke-linejoin:bevel;stroke-width:1.5;"/>
    </defs>
    <g>
     <use style="fill-opacity:0;stroke:#ffa500;stroke-linejoin:bevel;stroke-width:1.5;" x="141.424681" xlink:href="#mc50e4107d1" y="214.91694"/>
     <use style="fill-opacity:0;stroke:#ffa500;stroke-linejoin:bevel;stroke-width:1.5;" x="160.499878" xlink:href="#mc50e4107d1" y="51.635725"/>
     <use style="fill-opacity:0;stroke:#ffa500;stroke-linejoin:bevel;stroke-width:1.5;" x="175.871851" xlink:href="#mc50e4107d1" y="9.697057"/>
     <use style="fill-opacity:0;stroke:#ffa500;stroke-linejoin:bevel;stroke-width:1.5;" x="175.871851" xlink:href="#mc50e4107d1" y="9.697057"/>
     <use style="fill-opacity:0;stroke:#ffa500;stroke-linejoin:bevel;stroke-width:1.5;" x="333.429677" xlink:href="#mc50e4107d1" y="9.697057"/>
    </g>
   </g>
   <g id="line2d_36">
    <path style="fill:none;stroke:#ffa500;stroke-linecap:square;stroke-width:1.5;"/>
    <g/>
   </g>
   <g id="line2d_37">
    <path clip-path="url(#pba94c02daa)" d="M 128.716065 274.190257 
" style="fill:none;stroke:#ffa500;stroke-linecap:square;stroke-width:1.5;"/>
    <defs>
     <path d="M -12 12 
L 12 -12 
M -12 -12 
L 12 12 
" id="mc7eb1e62f8" style="stroke:#ffa500;stroke-width:3;"/>
    </defs>
    <g clip-path="url(#pba94c02daa)">
     <use style="fill:#ffa500;stroke:#ffa500;stroke-width:3;" x="128.716065" xlink:href="#mc7eb1e62f8" y="274.190257"/>
    </g>
   </g>
   <g id="line2d_38">
    <defs>
     <path d="M 0 1.5 
C 0.397805 1.5 0.77937 1.341951 1.06066 1.06066 
C 1.341951 0.77937 1.5 0.397805 1.5 0 
C 1.5 -0.397805 1.341951 -0.77937 1.06066 -1.06066 
C 0.77937 -1.341951 0.397805 -1.5 0 -1.5 
C -0.397805 -1.5 -0.77937 -1.341951 -1.06066 -1.06066 
C -1.341951 -0.77937 -1.5 -0.397805 -1.5 0 
C -1.5 0.397805 -1.341951 0.77937 -1.06066 1.06066 
C -0.77937 1.341951 -0.397805 1.5 0 1.5 
z
" id="m2afd0fbbab" style="stroke:#6495ed;"/>
    </defs>
    <g>
     <use style="fill:#6495ed;stroke:#6495ed;" x="149.175364" xlink:href="#m2afd0fbbab" y="9.697057"/>
     <use style="fill:#6495ed;stroke:#6495ed;" x="149.175364" xlink:href="#m2afd0fbbab" y="9.697057"/>
    </g>
   </g>
   <g id="line2d_39">
    <path d="M 49.144027 294.88 
L 49.144027 266.920888 
L 105.199142 266.920888 
L 105.199142 265.243341 
L 105.848459 265.243341 
L 105.848459 263.565795 
L 106.47416 263.565795 
L 106.47416 263.006612 
L 107.077901 263.006612 
L 107.077901 261.888248 
L 107.661173 261.888248 
L 107.661173 261.329066 
L 108.225317 261.329066 
L 108.225317 256.855608 
L 108.771549 256.855608 
L 108.771549 256.296425 
L 109.300972 256.296425 
L 109.300972 252.941332 
L 109.814588 252.941332 
L 109.814588 247.34951 
L 110.313314 247.34951 
L 110.313314 245.112781 
L 110.797991 245.112781 
L 110.797991 242.876052 
L 113.035537 242.876052 
L 113.035537 241.757687 
L 118.704183 241.757687 
L 118.704183 240.639323 
L 119.871061 240.639323 
L 119.871061 240.08014 
L 122.238819 240.08014 
L 122.238819 238.961776 
L 122.482864 238.961776 
L 122.482864 238.402594 
L 122.723495 238.402594 
L 122.723495 237.843411 
L 122.960807 237.843411 
L 122.960807 237.284229 
L 123.425832 237.284229 
L 123.425832 235.606682 
L 123.653714 235.606682 
L 123.653714 235.0475 
L 124.100619 235.0475 
L 124.100619 233.929136 
L 124.536209 233.929136 
L 124.536209 233.369954 
L 124.749936 233.369954 
L 124.749936 231.692407 
L 124.961042 231.692407 
L 124.961042 230.574042 
L 125.375637 230.574042 
L 125.375637 230.01486 
L 126.176007 230.01486 
L 126.176007 229.455678 
L 126.370415 229.455678 
L 126.370415 228.337313 
L 126.56265 228.337313 
L 126.56265 227.778131 
L 126.940794 227.778131 
L 126.940794 226.659767 
L 127.673027 226.659767 
L 127.673027 225.541402 
L 127.851317 225.541402 
L 127.851317 224.98222 
L 128.027779 224.98222 
L 128.027779 224.423038 
L 128.202449 224.423038 
L 128.202449 223.863855 
L 128.375364 223.863855 
L 128.375364 222.745491 
L 128.716065 222.745491 
L 128.716065 222.186309 
L 133.538623 222.186309 
L 133.538623 221.627126 
L 134.886312 221.627126 
L 134.886312 221.067944 
L 135.465655 221.067944 
L 135.465655 220.508762 
L 136.245297 220.508762 
L 136.353845 218.272033 
L 137.301141 218.272033 
L 137.403248 216.594486 
L 137.504752 216.594486 
L 137.504752 216.035304 
L 137.70598 216.035304 
L 137.70598 215.476122 
L 137.904883 215.476122 
L 137.904883 214.357757 
L 138.101512 214.357757 
L 138.101512 213.239393 
L 138.295919 213.239393 
L 138.392305 211.561846 
L 138.772539 211.561846 
L 138.866299 210.443482 
L 138.95955 210.443482 
L 139.052299 209.325117 
L 139.14455 209.325117 
L 139.14455 208.206753 
L 139.418374 208.206753 
L 139.508688 206.529206 
L 139.598531 206.529206 
L 139.598531 204.292477 
L 139.776821 204.292477 
L 139.776821 203.733295 
L 139.953283 203.733295 
L 140.04084 201.496566 
L 140.127953 201.496566 
L 140.127953 200.378201 
L 140.300868 200.378201 
L 140.300868 198.141472 
L 140.472062 198.141472 
L 140.557025 196.463926 
L 140.641569 196.463926 
L 140.725701 191.431285 
L 140.809423 191.431285 
L 140.89274 188.635374 
L 141.058173 188.635374 
L 141.140296 185.839463 
L 141.22203 185.839463 
L 141.303377 184.721099 
L 141.384341 184.721099 
L 141.464926 183.043552 
L 141.545135 183.043552 
L 141.624972 181.925187 
L 141.704441 181.925187 
L 141.783544 175.774183 
L 141.862285 175.774183 
L 141.940667 174.655818 
L 142.096368 174.655818 
L 142.173693 170.18236 
L 142.250673 170.18236 
L 142.327309 167.945631 
L 142.403606 167.945631 
L 142.479566 160.676262 
L 142.555192 160.676262 
L 142.555192 158.998715 
L 142.705453 158.998715 
L 142.780095 157.880351 
L 142.854414 157.880351 
L 142.928414 156.761987 
L 143.002096 156.761987 
L 143.075465 153.966075 
L 143.148522 153.966075 
L 143.22127 151.729346 
L 143.293711 151.729346 
L 143.365849 147.255888 
L 143.509224 147.255888 
L 143.580466 143.900795 
L 143.651414 143.900795 
L 143.72207 142.223248 
L 143.862519 142.223248 
L 143.932316 134.394697 
L 144.00183 134.394697 
L 144.071065 130.480421 
L 144.140023 130.480421 
L 144.140023 126.566145 
L 144.277114 126.566145 
L 144.345252 123.770234 
L 144.413122 123.770234 
L 144.480724 122.092688 
L 144.548063 122.092688 
L 144.615138 117.61923 
L 144.681953 117.61923 
L 144.74851 110.909043 
L 144.81481 110.909043 
L 144.880856 106.994767 
L 144.946649 106.994767 
L 145.012191 99.166216 
L 145.077485 99.166216 
L 145.142532 96.929487 
L 145.207333 96.929487 
L 145.271892 93.574393 
L 145.336209 93.574393 
L 145.400287 86.305024 
L 145.464127 86.305024 
L 145.527731 78.476473 
L 145.654238 78.476473 
L 145.717145 77.358108 
L 145.842271 77.358108 
L 145.904495 71.207104 
L 145.966495 71.207104 
L 146.028272 63.937735 
L 146.212283 63.937735 
L 146.273185 61.701006 
L 146.333872 61.701006 
L 146.394347 59.464277 
L 146.454609 59.464277 
L 146.514661 56.668365 
L 146.574504 56.668365 
L 146.63414 52.75409 
L 146.693569 52.75409 
L 146.752794 48.280632 
L 146.811816 48.280632 
L 146.870636 44.366356 
L 146.987677 44.366356 
L 147.0459 38.774534 
L 147.161758 38.774534 
L 147.219395 35.41944 
L 147.276841 35.41944 
L 147.334095 32.064347 
L 147.391159 32.064347 
L 147.448035 30.3868 
L 147.504723 30.3868 
L 147.561225 28.150071 
L 147.617542 28.150071 
L 147.673676 26.472524 
L 147.729627 26.472524 
L 147.785396 24.794978 
L 147.840985 24.794978 
L 147.840985 23.117431 
L 148.006684 23.117431 
L 148.116269 21.999066 
L 148.170801 21.999066 
L 148.27935 16.407244 
L 148.333368 16.407244 
L 148.440899 14.729697 
L 148.547762 14.729697 
L 148.653965 11.933786 
L 148.706822 11.933786 
L 148.706822 11.374604 
L 148.968697 11.374604 
L 148.968697 10.815422 
L 149.175364 10.815422 
L 149.175364 9.697057 
L 333.429677 9.697057 
L 333.429677 9.697057 
" style="fill:none;stroke:#6495ed;stroke-linecap:square;stroke-width:1.5;"/>
   </g>
   <g id="line2d_40">
    <defs>
     <path d="M -0 6 
L 6 -6 
L -6 -6 
z
" id="mede5cb2db5" style="stroke:#6495ed;stroke-linejoin:miter;stroke-width:1.5;"/>
    </defs>
    <g>
     <use style="fill-opacity:0;stroke:#6495ed;stroke-linejoin:miter;stroke-width:1.5;" x="139.418374" xlink:href="#mede5cb2db5" y="207.088388"/>
     <use style="fill-opacity:0;stroke:#6495ed;stroke-linejoin:miter;stroke-width:1.5;" x="149.175364" xlink:href="#mede5cb2db5" y="10.815422"/>
     <use style="fill-opacity:0;stroke:#6495ed;stroke-linejoin:miter;stroke-width:1.5;" x="149.175364" xlink:href="#mede5cb2db5" y="10.815422"/>
     <use style="fill-opacity:0;stroke:#6495ed;stroke-linejoin:miter;stroke-width:1.5;" x="149.175364" xlink:href="#mede5cb2db5" y="9.697057"/>
     <use style="fill-opacity:0;stroke:#6495ed;stroke-linejoin:miter;stroke-width:1.5;" x="149.175364" xlink:href="#mede5cb2db5" y="9.697057"/>
     <use style="fill-opacity:0;stroke:#6495ed;stroke-linejoin:miter;stroke-width:1.5;" x="333.429677" xlink:href="#mede5cb2db5" y="9.697057"/>
    </g>
   </g>
   <g id="line2d_41">
    <path style="fill:none;stroke:#6495ed;stroke-linecap:square;stroke-width:1.5;"/>
    <g/>
   </g>
   <g id="line2d_42">
    <path d="M 333.429677 233.369954 
L 363.933742 289.176341 
" style="fill:none;stroke:#ff00ff;stroke-linecap:square;stroke-width:1.5;"/>
    <g>
     <use style="fill-opacity:0;stroke:#ff00ff;stroke-linejoin:miter;stroke-width:1.5;" x="333.429677" xlink:href="#m73f90c5704" y="233.369954"/>
     <use style="fill-opacity:0;stroke:#ff00ff;stroke-linejoin:miter;stroke-width:1.5;" x="363.933742" xlink:href="#m73f90c5704" y="289.176341"/>
    </g>
   </g>
   <g id="line2d_43">
    <path d="M 333.429677 37.656169 
L 363.933742 197.917799 
" style="fill:none;stroke:#000080;stroke-linecap:square;stroke-width:1.5;"/>
    <g>
     <use style="fill-opacity:0;stroke:#000080;stroke-width:1.5;" x="333.429677" xlink:href="#mde32794aea" y="37.656169"/>
     <use style="fill-opacity:0;stroke:#000080;stroke-width:1.5;" x="363.933742" xlink:href="#mde32794aea" y="197.917799"/>
    </g>
   </g>
   <g id="line2d_44">
    <path d="M 333.429677 9.697057 
L 363.933742 106.659258 
" style="fill:none;stroke:#ffa500;stroke-linecap:square;stroke-width:1.5;"/>
    <g>
     <use style="fill-opacity:0;stroke:#ffa500;stroke-linejoin:bevel;stroke-width:1.5;" x="333.429677" xlink:href="#mc50e4107d1" y="9.697057"/>
     <use style="fill-opacity:0;stroke:#ffa500;stroke-linejoin:bevel;stroke-width:1.5;" x="363.933742" xlink:href="#mc50e4107d1" y="106.659258"/>
    </g>
   </g>
   <g id="line2d_45">
    <path d="M 333.429677 9.697057 
L 363.933742 15.400716 
" style="fill:none;stroke:#6495ed;stroke-linecap:square;stroke-width:1.5;"/>
    <g>
     <use style="fill-opacity:0;stroke:#6495ed;stroke-linejoin:miter;stroke-width:1.5;" x="333.429677" xlink:href="#mede5cb2db5" y="9.697057"/>
     <use style="fill-opacity:0;stroke:#6495ed;stroke-linejoin:miter;stroke-width:1.5;" x="363.933742" xlink:href="#mede5cb2db5" y="15.400716"/>
    </g>
   </g>
   <g id="line2d_46">
    <path d="M 333.429677 294.88 
L 333.429677 9.697057 
" style="fill:none;stroke:#000000;stroke-linecap:square;stroke-width:1.5;"/>
   </g>
   <g id="patch_3">
    <path d="M 56.12 294.88 
L 56.12 6.845228 
" style="fill:none;stroke:#000000;stroke-linecap:square;stroke-linejoin:miter;stroke-width:0.8;"/>
   </g>
   <g id="patch_4">
    <path d="M 399.984 294.88 
L 399.984 6.845228 
" style="fill:none;stroke:#000000;stroke-linecap:square;stroke-linejoin:miter;stroke-width:0.8;"/>
   </g>
   <g id="patch_5">
    <path d="M 56.12 294.88 
L 399.984 294.88 
" style="fill:none;stroke:#000000;stroke-linecap:square;stroke-linejoin:miter;stroke-width:0.8;"/>
   </g>
   <g id="patch_6">
    <path d="M 56.12 6.845228 
L 399.984 6.845228 
" style="fill:none;stroke:#000000;stroke-linecap:square;stroke-linejoin:miter;stroke-width:0.8;"/>
   </g>
   <g id="text_14">
    <!-- f7 -->
    <defs>
     <path d="M 8.203125 72.90625 
L 55.078125 72.90625 
L 55.078125 68.703125 
L 28.609375 0 
L 18.3125 0 
L 43.21875 64.59375 
L 8.203125 64.59375 
z
" id="DejaVuSans-37"/>
    </defs>
    <g transform="translate(369.479935 293.867279)scale(0.17 -0.17)">
     <use xlink:href="#DejaVuSans-66"/>
     <use x="35.205078" xlink:href="#DejaVuSans-37"/>
    </g>
   </g>
   <g id="text_15">
    <!-- f6 -->
    <g transform="translate(369.479935 202.608737)scale(0.17 -0.17)">
     <use xlink:href="#DejaVuSans-66"/>
     <use x="35.205078" xlink:href="#DejaVuSans-36"/>
    </g>
   </g>
   <g id="text_16">
    <!-- f8 -->
    <g transform="translate(369.479935 111.350195)scale(0.17 -0.17)">
     <use xlink:href="#DejaVuSans-66"/>
     <use x="35.205078" xlink:href="#DejaVuSans-38"/>
    </g>
   </g>
   <g id="text_17">
    <!-- f9 -->
    <defs>
     <path d="M 10.984375 1.515625 
L 10.984375 10.5 
Q 14.703125 8.734375 18.5 7.8125 
Q 22.3125 6.890625 25.984375 6.890625 
Q 35.75 6.890625 40.890625 13.453125 
Q 46.046875 20.015625 46.78125 33.40625 
Q 43.953125 29.203125 39.59375 26.953125 
Q 35.25 24.703125 29.984375 24.703125 
Q 19.046875 24.703125 12.671875 31.3125 
Q 6.296875 37.9375 6.296875 49.421875 
Q 6.296875 60.640625 12.9375 67.421875 
Q 19.578125 74.21875 30.609375 74.21875 
Q 43.265625 74.21875 49.921875 64.515625 
Q 56.59375 54.828125 56.59375 36.375 
Q 56.59375 19.140625 48.40625 8.859375 
Q 40.234375 -1.421875 26.421875 -1.421875 
Q 22.703125 -1.421875 18.890625 -0.6875 
Q 15.09375 0.046875 10.984375 1.515625 
z
M 30.609375 32.421875 
Q 37.25 32.421875 41.125 36.953125 
Q 45.015625 41.5 45.015625 49.421875 
Q 45.015625 57.28125 41.125 61.84375 
Q 37.25 66.40625 30.609375 66.40625 
Q 23.96875 66.40625 20.09375 61.84375 
Q 16.21875 57.28125 16.21875 49.421875 
Q 16.21875 41.5 20.09375 36.953125 
Q 23.96875 32.421875 30.609375 32.421875 
z
" id="DejaVuSans-39"/>
    </defs>
    <g transform="translate(369.479935 20.091654)scale(0.17 -0.17)">
     <use xlink:href="#DejaVuSans-66"/>
     <use x="35.205078" xlink:href="#DejaVuSans-39"/>
    </g>
   </g>
   <g id="text_18">
    <!-- bbob -->
    <defs>
     <path d="M 48.6875 27.296875 
Q 48.6875 37.203125 44.609375 42.84375 
Q 40.53125 48.484375 33.40625 48.484375 
Q 26.265625 48.484375 22.1875 42.84375 
Q 18.109375 37.203125 18.109375 27.296875 
Q 18.109375 17.390625 22.1875 11.75 
Q 26.265625 6.109375 33.40625 6.109375 
Q 40.53125 6.109375 44.609375 11.75 
Q 48.6875 17.390625 48.6875 27.296875 
z
M 18.109375 46.390625 
Q 20.953125 51.265625 25.265625 53.625 
Q 29.59375 56 35.59375 56 
Q 45.5625 56 51.78125 48.09375 
Q 58.015625 40.1875 58.015625 27.296875 
Q 58.015625 14.40625 51.78125 6.484375 
Q 45.5625 -1.421875 35.59375 -1.421875 
Q 29.59375 -1.421875 25.265625 0.953125 
Q 20.953125 3.328125 18.109375 8.203125 
L 18.109375 0 
L 9.078125 0 
L 9.078125 75.984375 
L 18.109375 75.984375 
z
" id="DejaVuSans-62"/>
    </defs>
    <g transform="translate(59.55864 17.475982)scale(0.102 -0.102)">
     <use xlink:href="#DejaVuSans-62"/>
     <use x="63.476562" xlink:href="#DejaVuSans-62"/>
     <use x="126.953125" xlink:href="#DejaVuSans-6f"/>
     <use x="188.134766" xlink:href="#DejaVuSans-62"/>
    </g>
    <!-- Misc. moderate functions, 3-D -->
    <defs>
     <path d="M 9.8125 72.90625 
L 24.515625 72.90625 
L 43.109375 23.296875 
L 61.8125 72.90625 
L 76.515625 72.90625 
L 76.515625 0 
L 66.890625 0 
L 66.890625 64.015625 
L 48.09375 14.015625 
L 38.1875 14.015625 
L 19.390625 64.015625 
L 19.390625 0 
L 9.8125 0 
z
" id="DejaVuSans-4d"/>
     <path d="M 40.578125 39.3125 
Q 47.65625 37.796875 51.625 33 
Q 55.609375 28.21875 55.609375 21.1875 
Q 55.609375 10.40625 48.1875 4.484375 
Q 40.765625 -1.421875 27.09375 -1.421875 
Q 22.515625 -1.421875 17.65625 -0.515625 
Q 12.796875 0.390625 7.625 2.203125 
L 7.625 11.71875 
Q 11.71875 9.328125 16.59375 8.109375 
Q 21.484375 6.890625 26.8125 6.890625 
Q 36.078125 6.890625 40.9375 10.546875 
Q 45.796875 14.203125 45.796875 21.1875 
Q 45.796875 27.640625 41.28125 31.265625 
Q 36.765625 34.90625 28.71875 34.90625 
L 20.21875 34.90625 
L 20.21875 43.015625 
L 29.109375 43.015625 
Q 36.375 43.015625 40.234375 45.921875 
Q 44.09375 48.828125 44.09375 54.296875 
Q 44.09375 59.90625 40.109375 62.90625 
Q 36.140625 65.921875 28.71875 65.921875 
Q 24.65625 65.921875 20.015625 65.03125 
Q 15.375 64.15625 9.8125 62.3125 
L 9.8125 71.09375 
Q 15.4375 72.65625 20.34375 73.4375 
Q 25.25 74.21875 29.59375 74.21875 
Q 40.828125 74.21875 47.359375 69.109375 
Q 53.90625 64.015625 53.90625 55.328125 
Q 53.90625 49.265625 50.4375 45.09375 
Q 46.96875 40.921875 40.578125 39.3125 
z
" id="DejaVuSans-33"/>
     <path d="M 19.671875 64.796875 
L 19.671875 8.109375 
L 31.59375 8.109375 
Q 46.6875 8.109375 53.6875 14.9375 
Q 60.6875 21.78125 60.6875 36.53125 
Q 60.6875 51.171875 53.6875 57.984375 
Q 46.6875 64.796875 31.59375 64.796875 
z
M 9.8125 72.90625 
L 30.078125 72.90625 
Q 51.265625 72.90625 61.171875 64.09375 
Q 71.09375 55.28125 71.09375 36.53125 
Q 71.09375 17.671875 61.125 8.828125 
Q 51.171875 0 30.078125 0 
L 9.8125 0 
z
" id="DejaVuSans-44"/>
    </defs>
    <g transform="translate(59.55864 28.89775)scale(0.102 -0.102)">
     <use xlink:href="#DejaVuSans-4d"/>
     <use x="86.279297" xlink:href="#DejaVuSans-69"/>
     <use x="114.0625" xlink:href="#DejaVuSans-73"/>
     <use x="166.162109" xlink:href="#DejaVuSans-63"/>
     <use x="221.142578" xlink:href="#DejaVuSans-2e"/>
     <use x="252.929688" xlink:href="#DejaVuSans-20"/>
     <use x="284.716797" xlink:href="#DejaVuSans-6d"/>
     <use x="382.128906" xlink:href="#DejaVuSans-6f"/>
     <use x="443.310547" xlink:href="#DejaVuSans-64"/>
     <use x="506.787109" xlink:href="#DejaVuSans-65"/>
     <use x="568.310547" xlink:href="#DejaVuSans-72"/>
     <use x="609.423828" xlink:href="#DejaVuSans-61"/>
     <use x="670.703125" xlink:href="#DejaVuSans-74"/>
     <use x="709.912109" xlink:href="#DejaVuSans-65"/>
     <use x="771.435547" xlink:href="#DejaVuSans-20"/>
     <use x="803.222656" xlink:href="#DejaVuSans-66"/>
     <use x="838.427734" xlink:href="#DejaVuSans-75"/>
     <use x="901.806641" xlink:href="#DejaVuSans-6e"/>
     <use x="965.185547" xlink:href="#DejaVuSans-63"/>
     <use x="1020.166016" xlink:href="#DejaVuSans-74"/>
     <use x="1059.375" xlink:href="#DejaVuSans-69"/>
     <use x="1087.158203" xlink:href="#DejaVuSans-6f"/>
     <use x="1148.339844" xlink:href="#DejaVuSans-6e"/>
     <use x="1211.71875" xlink:href="#DejaVuSans-73"/>
     <use x="1263.818359" xlink:href="#DejaVuSans-2c"/>
     <use x="1295.605469" xlink:href="#DejaVuSans-20"/>
     <use x="1327.392578" xlink:href="#DejaVuSans-33"/>
     <use x="1391.015625" xlink:href="#DejaVuSans-2d"/>
     <use x="1427.099609" xlink:href="#DejaVuSans-44"/>
    </g>
    <!-- 51 targets: 100..1e-08 -->
    <defs>
     <path d="M 10.796875 72.90625 
L 49.515625 72.90625 
L 49.515625 64.59375 
L 19.828125 64.59375 
L 19.828125 46.734375 
Q 21.96875 47.46875 24.109375 47.828125 
Q 26.265625 48.1875 28.421875 48.1875 
Q 40.625 48.1875 47.75 41.5 
Q 54.890625 34.8125 54.890625 23.390625 
Q 54.890625 11.625 47.5625 5.09375 
Q 40.234375 -1.421875 26.90625 -1.421875 
Q 22.3125 -1.421875 17.546875 -0.640625 
Q 12.796875 0.140625 7.71875 1.703125 
L 7.71875 11.625 
Q 12.109375 9.234375 16.796875 8.0625 
Q 21.484375 6.890625 26.703125 6.890625 
Q 35.15625 6.890625 40.078125 11.328125 
Q 45.015625 15.765625 45.015625 23.390625 
Q 45.015625 31 40.078125 35.4375 
Q 35.15625 39.890625 26.703125 39.890625 
Q 22.75 39.890625 18.8125 39.015625 
Q 14.890625 38.140625 10.796875 36.28125 
z
" id="DejaVuSans-35"/>
     <path d="M 11.71875 12.40625 
L 22.015625 12.40625 
L 22.015625 0 
L 11.71875 0 
z
M 11.71875 51.703125 
L 22.015625 51.703125 
L 22.015625 39.3125 
L 11.71875 39.3125 
z
" id="DejaVuSans-3a"/>
    </defs>
    <g transform="translate(59.55864 40.319519)scale(0.102 -0.102)">
     <use xlink:href="#DejaVuSans-35"/>
     <use x="63.623047" xlink:href="#DejaVuSans-31"/>
     <use x="127.246094" xlink:href="#DejaVuSans-20"/>
     <use x="159.033203" xlink:href="#DejaVuSans-74"/>
     <use x="198.242188" xlink:href="#DejaVuSans-61"/>
     <use x="259.521484" xlink:href="#DejaVuSans-72"/>
     <use x="300.619141" xlink:href="#DejaVuSans-67"/>
     <use x="364.095703" xlink:href="#DejaVuSans-65"/>
     <use x="425.619141" xlink:href="#DejaVuSans-74"/>
     <use x="464.828125" xlink:href="#DejaVuSans-73"/>
     <use x="516.927734" xlink:href="#DejaVuSans-3a"/>
     <use x="550.619141" xlink:href="#DejaVuSans-20"/>
     <use x="582.40625" xlink:href="#DejaVuSans-31"/>
     <use x="646.029297" xlink:href="#DejaVuSans-30"/>
     <use x="709.652344" xlink:href="#DejaVuSans-30"/>
     <use x="773.275391" xlink:href="#DejaVuSans-2e"/>
     <use x="805.0625" xlink:href="#DejaVuSans-2e"/>
     <use x="836.849609" xlink:href="#DejaVuSans-31"/>
     <use x="900.472656" xlink:href="#DejaVuSans-65"/>
     <use x="961.996094" xlink:href="#DejaVuSans-2d"/>
     <use x="998.080078" xlink:href="#DejaVuSans-30"/>
     <use x="1061.703125" xlink:href="#DejaVuSans-38"/>
    </g>
    <!-- 15 instances -->
    <g transform="translate(59.55864 51.741288)scale(0.102 -0.102)">
     <use xlink:href="#DejaVuSans-31"/>
     <use x="63.623047" xlink:href="#DejaVuSans-35"/>
     <use x="127.246094" xlink:href="#DejaVuSans-20"/>
     <use x="159.033203" xlink:href="#DejaVuSans-69"/>
     <use x="186.816406" xlink:href="#DejaVuSans-6e"/>
     <use x="250.195312" xlink:href="#DejaVuSans-73"/>
     <use x="302.294922" xlink:href="#DejaVuSans-74"/>
     <use x="341.503906" xlink:href="#DejaVuSans-61"/>
     <use x="402.783203" xlink:href="#DejaVuSans-6e"/>
     <use x="466.162109" xlink:href="#DejaVuSans-63"/>
     <use x="521.142578" xlink:href="#DejaVuSans-65"/>
     <use x="582.666016" xlink:href="#DejaVuSans-73"/>
    </g>
   </g>
   <g id="text_19">
    <!-- v2.2.1.10 -->
    <g style="fill:#808080;" transform="translate(204.419188 289.919965)scale(0.1 -0.1)">
     <use xlink:href="#DejaVuSans-76"/>
     <use x="59.179688" xlink:href="#DejaVuSans-32"/>
     <use x="122.802734" xlink:href="#DejaVuSans-2e"/>
     <use x="154.589844" xlink:href="#DejaVuSans-32"/>
     <use x="218.212891" xlink:href="#DejaVuSans-2e"/>
     <use x="250" xlink:href="#DejaVuSans-31"/>
     <use x="313.623047" xlink:href="#DejaVuSans-2e"/>
     <use x="345.410156" xlink:href="#DejaVuSans-31"/>
     <use x="409.033203" xlink:href="#DejaVuSans-30"/>
    </g>
   </g>
  </g>
 </g>
 <defs>
  <clipPath id="pba94c02daa">
   <rect height="288.034772" width="343.864" x="56.12" y="6.845228"/>
  </clipPath>
 </defs>
</svg>
