<?xml version="1.0" encoding="utf-8" standalone="no"?>
<!DOCTYPE svg PUBLIC "-//W3C//DTD SVG 1.1//EN"
  "http://www.w3.org/Graphics/SVG/1.1/DTD/svg11.dtd">
<!-- Created with matplotlib (http://matplotlib.org/) -->
<svg height="345.6pt" version="1.1" viewBox="0 0 460.8 345.6" width="460.8pt" xmlns="http://www.w3.org/2000/svg" xmlns:xlink="http://www.w3.org/1999/xlink">
 <defs>
  <style type="text/css">
*{stroke-linecap:butt;stroke-linejoin:round;}
  </style>
 </defs>
 <g id="figure_1">
  <g id="patch_1">
   <path d="M 0 345.6 
L 460.8 345.6 
L 460.8 0 
L 0 0 
z
" style="fill:#ffffff;"/>
  </g>
  <g id="axes_1">
   <g id="patch_2">
    <path d="M 56.12 294.88 
L 399.984 294.88 
L 399.984 6.845228 
L 56.12 6.845228 
z
" style="fill:#ffffff;"/>
   </g>
   <g id="matplotlib.axis_1">
    <g id="xtick_1">
     <g id="line2d_1">
      <path clip-path="url(#pf94f0d9cd2)" d="M 56.12 294.88 
L 56.12 6.845228 
" style="fill:none;stroke:#b0b0b0;stroke-linecap:square;stroke-width:0.8;"/>
     </g>
     <g id="line2d_2">
      <defs>
       <path d="M 0 0 
L 0 3.5 
" id="mebe3a21145" style="stroke:#000000;stroke-width:0.8;"/>
      </defs>
      <g>
       <use style="stroke:#000000;stroke-width:0.8;" x="56.12" xlink:href="#mebe3a21145" y="294.88"/>
      </g>
     </g>
     <g id="text_1">
      <!-- 0 -->
      <defs>
       <path d="M 31.78125 66.40625 
Q 24.171875 66.40625 20.328125 58.90625 
Q 16.5 51.421875 16.5 36.375 
Q 16.5 21.390625 20.328125 13.890625 
Q 24.171875 6.390625 31.78125 6.390625 
Q 39.453125 6.390625 43.28125 13.890625 
Q 47.125 21.390625 47.125 36.375 
Q 47.125 51.421875 43.28125 58.90625 
Q 39.453125 66.40625 31.78125 66.40625 
z
M 31.78125 74.21875 
Q 44.046875 74.21875 50.515625 64.515625 
Q 56.984375 54.828125 56.984375 36.375 
Q 56.984375 17.96875 50.515625 8.265625 
Q 44.046875 -1.421875 31.78125 -1.421875 
Q 19.53125 -1.421875 13.0625 8.265625 
Q 6.59375 17.96875 6.59375 36.375 
Q 6.59375 54.828125 13.0625 64.515625 
Q 19.53125 74.21875 31.78125 74.21875 
z
" id="DejaVuSans-30"/>
      </defs>
      <g transform="translate(49.7575 317.076875)scale(0.2 -0.2)">
       <use xlink:href="#DejaVuSans-30"/>
      </g>
     </g>
    </g>
    <g id="xtick_2">
     <g id="line2d_3">
      <path clip-path="url(#pf94f0d9cd2)" d="M 135.351336 294.88 
L 135.351336 6.845228 
" style="fill:none;stroke:#b0b0b0;stroke-linecap:square;stroke-width:0.8;"/>
     </g>
     <g id="line2d_4">
      <g>
       <use style="stroke:#000000;stroke-width:0.8;" x="135.351336" xlink:href="#mebe3a21145" y="294.88"/>
      </g>
     </g>
     <g id="text_2">
      <!-- 2 -->
      <defs>
       <path d="M 19.1875 8.296875 
L 53.609375 8.296875 
L 53.609375 0 
L 7.328125 0 
L 7.328125 8.296875 
Q 12.9375 14.109375 22.625 23.890625 
Q 32.328125 33.6875 34.8125 36.53125 
Q 39.546875 41.84375 41.421875 45.53125 
Q 43.3125 49.21875 43.3125 52.78125 
Q 43.3125 58.59375 39.234375 62.25 
Q 35.15625 65.921875 28.609375 65.921875 
Q 23.96875 65.921875 18.8125 64.3125 
Q 13.671875 62.703125 7.8125 59.421875 
L 7.8125 69.390625 
Q 13.765625 71.78125 18.9375 73 
Q 24.125 74.21875 28.421875 74.21875 
Q 39.75 74.21875 46.484375 68.546875 
Q 53.21875 62.890625 53.21875 53.421875 
Q 53.21875 48.921875 51.53125 44.890625 
Q 49.859375 40.875 45.40625 35.40625 
Q 44.1875 33.984375 37.640625 27.21875 
Q 31.109375 20.453125 19.1875 8.296875 
z
" id="DejaVuSans-32"/>
      </defs>
      <g transform="translate(128.988836 317.076875)scale(0.2 -0.2)">
       <use xlink:href="#DejaVuSans-32"/>
      </g>
     </g>
    </g>
    <g id="xtick_3">
     <g id="line2d_5">
      <path clip-path="url(#pf94f0d9cd2)" d="M 214.582673 294.88 
L 214.582673 6.845228 
" style="fill:none;stroke:#b0b0b0;stroke-linecap:square;stroke-width:0.8;"/>
     </g>
     <g id="line2d_6">
      <g>
       <use style="stroke:#000000;stroke-width:0.8;" x="214.582673" xlink:href="#mebe3a21145" y="294.88"/>
      </g>
     </g>
     <g id="text_3">
      <!-- 4 -->
      <defs>
       <path d="M 37.796875 64.3125 
L 12.890625 25.390625 
L 37.796875 25.390625 
z
M 35.203125 72.90625 
L 47.609375 72.90625 
L 47.609375 25.390625 
L 58.015625 25.390625 
L 58.015625 17.1875 
L 47.609375 17.1875 
L 47.609375 0 
L 37.796875 0 
L 37.796875 17.1875 
L 4.890625 17.1875 
L 4.890625 26.703125 
z
" id="DejaVuSans-34"/>
      </defs>
      <g transform="translate(208.220173 317.076875)scale(0.2 -0.2)">
       <use xlink:href="#DejaVuSans-34"/>
      </g>
     </g>
    </g>
    <g id="xtick_4">
     <g id="line2d_7">
      <path clip-path="url(#pf94f0d9cd2)" d="M 293.814009 294.88 
L 293.814009 6.845228 
" style="fill:none;stroke:#b0b0b0;stroke-linecap:square;stroke-width:0.8;"/>
     </g>
     <g id="line2d_8">
      <g>
       <use style="stroke:#000000;stroke-width:0.8;" x="293.814009" xlink:href="#mebe3a21145" y="294.88"/>
      </g>
     </g>
     <g id="text_4">
      <!-- 6 -->
      <defs>
       <path d="M 33.015625 40.375 
Q 26.375 40.375 22.484375 35.828125 
Q 18.609375 31.296875 18.609375 23.390625 
Q 18.609375 15.53125 22.484375 10.953125 
Q 26.375 6.390625 33.015625 6.390625 
Q 39.65625 6.390625 43.53125 10.953125 
Q 47.40625 15.53125 47.40625 23.390625 
Q 47.40625 31.296875 43.53125 35.828125 
Q 39.65625 40.375 33.015625 40.375 
z
M 52.59375 71.296875 
L 52.59375 62.3125 
Q 48.875 64.0625 45.09375 64.984375 
Q 41.3125 65.921875 37.59375 65.921875 
Q 27.828125 65.921875 22.671875 59.328125 
Q 17.53125 52.734375 16.796875 39.40625 
Q 19.671875 43.65625 24.015625 45.921875 
Q 28.375 48.1875 33.59375 48.1875 
Q 44.578125 48.1875 50.953125 41.515625 
Q 57.328125 34.859375 57.328125 23.390625 
Q 57.328125 12.15625 50.6875 5.359375 
Q 44.046875 -1.421875 33.015625 -1.421875 
Q 20.359375 -1.421875 13.671875 8.265625 
Q 6.984375 17.96875 6.984375 36.375 
Q 6.984375 53.65625 15.1875 63.9375 
Q 23.390625 74.21875 37.203125 74.21875 
Q 40.921875 74.21875 44.703125 73.484375 
Q 48.484375 72.75 52.59375 71.296875 
z
" id="DejaVuSans-36"/>
      </defs>
      <g transform="translate(287.451509 317.076875)scale(0.2 -0.2)">
       <use xlink:href="#DejaVuSans-36"/>
      </g>
     </g>
    </g>
    <g id="xtick_5">
     <g id="line2d_9">
      <path clip-path="url(#pf94f0d9cd2)" d="M 373.045346 294.88 
L 373.045346 6.845228 
" style="fill:none;stroke:#b0b0b0;stroke-linecap:square;stroke-width:0.8;"/>
     </g>
     <g id="line2d_10">
      <g>
       <use style="stroke:#000000;stroke-width:0.8;" x="373.045346" xlink:href="#mebe3a21145" y="294.88"/>
      </g>
     </g>
     <g id="text_5">
      <!-- 8 -->
      <defs>
       <path d="M 31.78125 34.625 
Q 24.75 34.625 20.71875 30.859375 
Q 16.703125 27.09375 16.703125 20.515625 
Q 16.703125 13.921875 20.71875 10.15625 
Q 24.75 6.390625 31.78125 6.390625 
Q 38.8125 6.390625 42.859375 10.171875 
Q 46.921875 13.96875 46.921875 20.515625 
Q 46.921875 27.09375 42.890625 30.859375 
Q 38.875 34.625 31.78125 34.625 
z
M 21.921875 38.8125 
Q 15.578125 40.375 12.03125 44.71875 
Q 8.5 49.078125 8.5 55.328125 
Q 8.5 64.0625 14.71875 69.140625 
Q 20.953125 74.21875 31.78125 74.21875 
Q 42.671875 74.21875 48.875 69.140625 
Q 55.078125 64.0625 55.078125 55.328125 
Q 55.078125 49.078125 51.53125 44.71875 
Q 48 40.375 41.703125 38.8125 
Q 48.828125 37.15625 52.796875 32.3125 
Q 56.78125 27.484375 56.78125 20.515625 
Q 56.78125 9.90625 50.3125 4.234375 
Q 43.84375 -1.421875 31.78125 -1.421875 
Q 19.734375 -1.421875 13.25 4.234375 
Q 6.78125 9.90625 6.78125 20.515625 
Q 6.78125 27.484375 10.78125 32.3125 
Q 14.796875 37.15625 21.921875 38.8125 
z
M 18.3125 54.390625 
Q 18.3125 48.734375 21.84375 45.5625 
Q 25.390625 42.390625 31.78125 42.390625 
Q 38.140625 42.390625 41.71875 45.5625 
Q 45.3125 48.734375 45.3125 54.390625 
Q 45.3125 60.0625 41.71875 63.234375 
Q 38.140625 66.40625 31.78125 66.40625 
Q 25.390625 66.40625 21.84375 63.234375 
Q 18.3125 60.0625 18.3125 54.390625 
z
" id="DejaVuSans-38"/>
      </defs>
      <g transform="translate(366.682846 317.076875)scale(0.2 -0.2)">
       <use xlink:href="#DejaVuSans-38"/>
      </g>
     </g>
    </g>
    <g id="text_6">
     <!-- log10(# f-evals / dimension) -->
     <defs>
      <path d="M 9.421875 75.984375 
L 18.40625 75.984375 
L 18.40625 0 
L 9.421875 0 
z
" id="DejaVuSans-6c"/>
      <path d="M 30.609375 48.390625 
Q 23.390625 48.390625 19.1875 42.75 
Q 14.984375 37.109375 14.984375 27.296875 
Q 14.984375 17.484375 19.15625 11.84375 
Q 23.34375 6.203125 30.609375 6.203125 
Q 37.796875 6.203125 41.984375 11.859375 
Q 46.1875 17.53125 46.1875 27.296875 
Q 46.1875 37.015625 41.984375 42.703125 
Q 37.796875 48.390625 30.609375 48.390625 
z
M 30.609375 56 
Q 42.328125 56 49.015625 48.375 
Q 55.71875 40.765625 55.71875 27.296875 
Q 55.71875 13.875 49.015625 6.21875 
Q 42.328125 -1.421875 30.609375 -1.421875 
Q 18.84375 -1.421875 12.171875 6.21875 
Q 5.515625 13.875 5.515625 27.296875 
Q 5.515625 40.765625 12.171875 48.375 
Q 18.84375 56 30.609375 56 
z
" id="DejaVuSans-6f"/>
      <path d="M 45.40625 27.984375 
Q 45.40625 37.75 41.375 43.109375 
Q 37.359375 48.484375 30.078125 48.484375 
Q 22.859375 48.484375 18.828125 43.109375 
Q 14.796875 37.75 14.796875 27.984375 
Q 14.796875 18.265625 18.828125 12.890625 
Q 22.859375 7.515625 30.078125 7.515625 
Q 37.359375 7.515625 41.375 12.890625 
Q 45.40625 18.265625 45.40625 27.984375 
z
M 54.390625 6.78125 
Q 54.390625 -7.171875 48.1875 -13.984375 
Q 42 -20.796875 29.203125 -20.796875 
Q 24.46875 -20.796875 20.265625 -20.09375 
Q 16.0625 -19.390625 12.109375 -17.921875 
L 12.109375 -9.1875 
Q 16.0625 -11.328125 19.921875 -12.34375 
Q 23.78125 -13.375 27.78125 -13.375 
Q 36.625 -13.375 41.015625 -8.765625 
Q 45.40625 -4.15625 45.40625 5.171875 
L 45.40625 9.625 
Q 42.625 4.78125 38.28125 2.390625 
Q 33.9375 0 27.875 0 
Q 17.828125 0 11.671875 7.65625 
Q 5.515625 15.328125 5.515625 27.984375 
Q 5.515625 40.671875 11.671875 48.328125 
Q 17.828125 56 27.875 56 
Q 33.9375 56 38.28125 53.609375 
Q 42.625 51.21875 45.40625 46.390625 
L 45.40625 54.6875 
L 54.390625 54.6875 
z
" id="DejaVuSans-67"/>
      <path d="M 12.40625 8.296875 
L 28.515625 8.296875 
L 28.515625 63.921875 
L 10.984375 60.40625 
L 10.984375 69.390625 
L 28.421875 72.90625 
L 38.28125 72.90625 
L 38.28125 8.296875 
L 54.390625 8.296875 
L 54.390625 0 
L 12.40625 0 
z
" id="DejaVuSans-31"/>
      <path d="M 31 75.875 
Q 24.46875 64.65625 21.28125 53.65625 
Q 18.109375 42.671875 18.109375 31.390625 
Q 18.109375 20.125 21.3125 9.0625 
Q 24.515625 -2 31 -13.1875 
L 23.1875 -13.1875 
Q 15.875 -1.703125 12.234375 9.375 
Q 8.59375 20.453125 8.59375 31.390625 
Q 8.59375 42.28125 12.203125 53.3125 
Q 15.828125 64.359375 23.1875 75.875 
z
" id="DejaVuSans-28"/>
      <path d="M 51.125 44 
L 36.921875 44 
L 32.8125 27.6875 
L 47.125 27.6875 
z
M 43.796875 71.78125 
L 38.71875 51.515625 
L 52.984375 51.515625 
L 58.109375 71.78125 
L 65.921875 71.78125 
L 60.890625 51.515625 
L 76.125 51.515625 
L 76.125 44 
L 58.984375 44 
L 54.984375 27.6875 
L 70.515625 27.6875 
L 70.515625 20.21875 
L 53.078125 20.21875 
L 48 0 
L 40.1875 0 
L 45.21875 20.21875 
L 30.90625 20.21875 
L 25.875 0 
L 18.015625 0 
L 23.09375 20.21875 
L 7.71875 20.21875 
L 7.71875 27.6875 
L 24.90625 27.6875 
L 29 44 
L 13.28125 44 
L 13.28125 51.515625 
L 30.90625 51.515625 
L 35.890625 71.78125 
z
" id="DejaVuSans-23"/>
      <path id="DejaVuSans-20"/>
      <path d="M 37.109375 75.984375 
L 37.109375 68.5 
L 28.515625 68.5 
Q 23.6875 68.5 21.796875 66.546875 
Q 19.921875 64.59375 19.921875 59.515625 
L 19.921875 54.6875 
L 34.71875 54.6875 
L 34.71875 47.703125 
L 19.921875 47.703125 
L 19.921875 0 
L 10.890625 0 
L 10.890625 47.703125 
L 2.296875 47.703125 
L 2.296875 54.6875 
L 10.890625 54.6875 
L 10.890625 58.5 
Q 10.890625 67.625 15.140625 71.796875 
Q 19.390625 75.984375 28.609375 75.984375 
z
" id="DejaVuSans-66"/>
      <path d="M 4.890625 31.390625 
L 31.203125 31.390625 
L 31.203125 23.390625 
L 4.890625 23.390625 
z
" id="DejaVuSans-2d"/>
      <path d="M 56.203125 29.59375 
L 56.203125 25.203125 
L 14.890625 25.203125 
Q 15.484375 15.921875 20.484375 11.0625 
Q 25.484375 6.203125 34.421875 6.203125 
Q 39.59375 6.203125 44.453125 7.46875 
Q 49.3125 8.734375 54.109375 11.28125 
L 54.109375 2.78125 
Q 49.265625 0.734375 44.1875 -0.34375 
Q 39.109375 -1.421875 33.890625 -1.421875 
Q 20.796875 -1.421875 13.15625 6.1875 
Q 5.515625 13.8125 5.515625 26.8125 
Q 5.515625 40.234375 12.765625 48.109375 
Q 20.015625 56 32.328125 56 
Q 43.359375 56 49.78125 48.890625 
Q 56.203125 41.796875 56.203125 29.59375 
z
M 47.21875 32.234375 
Q 47.125 39.59375 43.09375 43.984375 
Q 39.0625 48.390625 32.421875 48.390625 
Q 24.90625 48.390625 20.390625 44.140625 
Q 15.875 39.890625 15.1875 32.171875 
z
" id="DejaVuSans-65"/>
      <path d="M 2.984375 54.6875 
L 12.5 54.6875 
L 29.59375 8.796875 
L 46.6875 54.6875 
L 56.203125 54.6875 
L 35.6875 0 
L 23.484375 0 
z
" id="DejaVuSans-76"/>
      <path d="M 34.28125 27.484375 
Q 23.390625 27.484375 19.1875 25 
Q 14.984375 22.515625 14.984375 16.5 
Q 14.984375 11.71875 18.140625 8.90625 
Q 21.296875 6.109375 26.703125 6.109375 
Q 34.1875 6.109375 38.703125 11.40625 
Q 43.21875 16.703125 43.21875 25.484375 
L 43.21875 27.484375 
z
M 52.203125 31.203125 
L 52.203125 0 
L 43.21875 0 
L 43.21875 8.296875 
Q 40.140625 3.328125 35.546875 0.953125 
Q 30.953125 -1.421875 24.3125 -1.421875 
Q 15.921875 -1.421875 10.953125 3.296875 
Q 6 8.015625 6 15.921875 
Q 6 25.140625 12.171875 29.828125 
Q 18.359375 34.515625 30.609375 34.515625 
L 43.21875 34.515625 
L 43.21875 35.40625 
Q 43.21875 41.609375 39.140625 45 
Q 35.0625 48.390625 27.6875 48.390625 
Q 23 48.390625 18.546875 47.265625 
Q 14.109375 46.140625 10.015625 43.890625 
L 10.015625 52.203125 
Q 14.9375 54.109375 19.578125 55.046875 
Q 24.21875 56 28.609375 56 
Q 40.484375 56 46.34375 49.84375 
Q 52.203125 43.703125 52.203125 31.203125 
z
" id="DejaVuSans-61"/>
      <path d="M 44.28125 53.078125 
L 44.28125 44.578125 
Q 40.484375 46.53125 36.375 47.5 
Q 32.28125 48.484375 27.875 48.484375 
Q 21.1875 48.484375 17.84375 46.4375 
Q 14.5 44.390625 14.5 40.28125 
Q 14.5 37.15625 16.890625 35.375 
Q 19.28125 33.59375 26.515625 31.984375 
L 29.59375 31.296875 
Q 39.15625 29.25 43.1875 25.515625 
Q 47.21875 21.78125 47.21875 15.09375 
Q 47.21875 7.46875 41.1875 3.015625 
Q 35.15625 -1.421875 24.609375 -1.421875 
Q 20.21875 -1.421875 15.453125 -0.5625 
Q 10.6875 0.296875 5.421875 2 
L 5.421875 11.28125 
Q 10.40625 8.6875 15.234375 7.390625 
Q 20.0625 6.109375 24.8125 6.109375 
Q 31.15625 6.109375 34.5625 8.28125 
Q 37.984375 10.453125 37.984375 14.40625 
Q 37.984375 18.0625 35.515625 20.015625 
Q 33.0625 21.96875 24.703125 23.78125 
L 21.578125 24.515625 
Q 13.234375 26.265625 9.515625 29.90625 
Q 5.8125 33.546875 5.8125 39.890625 
Q 5.8125 47.609375 11.28125 51.796875 
Q 16.75 56 26.8125 56 
Q 31.78125 56 36.171875 55.265625 
Q 40.578125 54.546875 44.28125 53.078125 
z
" id="DejaVuSans-73"/>
      <path d="M 25.390625 72.90625 
L 33.6875 72.90625 
L 8.296875 -9.28125 
L 0 -9.28125 
z
" id="DejaVuSans-2f"/>
      <path d="M 45.40625 46.390625 
L 45.40625 75.984375 
L 54.390625 75.984375 
L 54.390625 0 
L 45.40625 0 
L 45.40625 8.203125 
Q 42.578125 3.328125 38.25 0.953125 
Q 33.9375 -1.421875 27.875 -1.421875 
Q 17.96875 -1.421875 11.734375 6.484375 
Q 5.515625 14.40625 5.515625 27.296875 
Q 5.515625 40.1875 11.734375 48.09375 
Q 17.96875 56 27.875 56 
Q 33.9375 56 38.25 53.625 
Q 42.578125 51.265625 45.40625 46.390625 
z
M 14.796875 27.296875 
Q 14.796875 17.390625 18.875 11.75 
Q 22.953125 6.109375 30.078125 6.109375 
Q 37.203125 6.109375 41.296875 11.75 
Q 45.40625 17.390625 45.40625 27.296875 
Q 45.40625 37.203125 41.296875 42.84375 
Q 37.203125 48.484375 30.078125 48.484375 
Q 22.953125 48.484375 18.875 42.84375 
Q 14.796875 37.203125 14.796875 27.296875 
z
" id="DejaVuSans-64"/>
      <path d="M 9.421875 54.6875 
L 18.40625 54.6875 
L 18.40625 0 
L 9.421875 0 
z
M 9.421875 75.984375 
L 18.40625 75.984375 
L 18.40625 64.59375 
L 9.421875 64.59375 
z
" id="DejaVuSans-69"/>
      <path d="M 52 44.1875 
Q 55.375 50.25 60.0625 53.125 
Q 64.75 56 71.09375 56 
Q 79.640625 56 84.28125 50.015625 
Q 88.921875 44.046875 88.921875 33.015625 
L 88.921875 0 
L 79.890625 0 
L 79.890625 32.71875 
Q 79.890625 40.578125 77.09375 44.375 
Q 74.3125 48.1875 68.609375 48.1875 
Q 61.625 48.1875 57.5625 43.546875 
Q 53.515625 38.921875 53.515625 30.90625 
L 53.515625 0 
L 44.484375 0 
L 44.484375 32.71875 
Q 44.484375 40.625 41.703125 44.40625 
Q 38.921875 48.1875 33.109375 48.1875 
Q 26.21875 48.1875 22.15625 43.53125 
Q 18.109375 38.875 18.109375 30.90625 
L 18.109375 0 
L 9.078125 0 
L 9.078125 54.6875 
L 18.109375 54.6875 
L 18.109375 46.1875 
Q 21.1875 51.21875 25.484375 53.609375 
Q 29.78125 56 35.6875 56 
Q 41.65625 56 45.828125 52.96875 
Q 50 49.953125 52 44.1875 
z
" id="DejaVuSans-6d"/>
      <path d="M 54.890625 33.015625 
L 54.890625 0 
L 45.90625 0 
L 45.90625 32.71875 
Q 45.90625 40.484375 42.875 44.328125 
Q 39.84375 48.1875 33.796875 48.1875 
Q 26.515625 48.1875 22.3125 43.546875 
Q 18.109375 38.921875 18.109375 30.90625 
L 18.109375 0 
L 9.078125 0 
L 9.078125 54.6875 
L 18.109375 54.6875 
L 18.109375 46.1875 
Q 21.34375 51.125 25.703125 53.5625 
Q 30.078125 56 35.796875 56 
Q 45.21875 56 50.046875 50.171875 
Q 54.890625 44.34375 54.890625 33.015625 
z
" id="DejaVuSans-6e"/>
      <path d="M 8.015625 75.875 
L 15.828125 75.875 
Q 23.140625 64.359375 26.78125 53.3125 
Q 30.421875 42.28125 30.421875 31.390625 
Q 30.421875 20.453125 26.78125 9.375 
Q 23.140625 -1.703125 15.828125 -13.1875 
L 8.015625 -13.1875 
Q 14.5 -2 17.703125 9.0625 
Q 20.90625 20.125 20.90625 31.390625 
Q 20.90625 42.671875 17.703125 53.65625 
Q 14.5 64.65625 8.015625 75.875 
z
" id="DejaVuSans-29"/>
     </defs>
     <g transform="translate(107.211219 338.153594)scale(0.17 -0.17)">
      <use xlink:href="#DejaVuSans-6c"/>
      <use x="27.783203" xlink:href="#DejaVuSans-6f"/>
      <use x="88.964844" xlink:href="#DejaVuSans-67"/>
      <use x="152.441406" xlink:href="#DejaVuSans-31"/>
      <use x="216.064453" xlink:href="#DejaVuSans-30"/>
      <use x="279.6875" xlink:href="#DejaVuSans-28"/>
      <use x="318.701172" xlink:href="#DejaVuSans-23"/>
      <use x="402.490234" xlink:href="#DejaVuSans-20"/>
      <use x="434.277344" xlink:href="#DejaVuSans-66"/>
      <use x="469.404297" xlink:href="#DejaVuSans-2d"/>
      <use x="505.488281" xlink:href="#DejaVuSans-65"/>
      <use x="567.011719" xlink:href="#DejaVuSans-76"/>
      <use x="626.191406" xlink:href="#DejaVuSans-61"/>
      <use x="687.470703" xlink:href="#DejaVuSans-6c"/>
      <use x="715.253906" xlink:href="#DejaVuSans-73"/>
      <use x="767.353516" xlink:href="#DejaVuSans-20"/>
      <use x="799.140625" xlink:href="#DejaVuSans-2f"/>
      <use x="832.832031" xlink:href="#DejaVuSans-20"/>
      <use x="864.619141" xlink:href="#DejaVuSans-64"/>
      <use x="928.095703" xlink:href="#DejaVuSans-69"/>
      <use x="955.878906" xlink:href="#DejaVuSans-6d"/>
      <use x="1053.291016" xlink:href="#DejaVuSans-65"/>
      <use x="1114.814453" xlink:href="#DejaVuSans-6e"/>
      <use x="1178.193359" xlink:href="#DejaVuSans-73"/>
      <use x="1230.292969" xlink:href="#DejaVuSans-69"/>
      <use x="1258.076172" xlink:href="#DejaVuSans-6f"/>
      <use x="1319.257812" xlink:href="#DejaVuSans-6e"/>
      <use x="1382.636719" xlink:href="#DejaVuSans-29"/>
     </g>
    </g>
   </g>
   <g id="matplotlib.axis_2">
    <g id="ytick_1">
     <g id="line2d_11">
      <path clip-path="url(#pf94f0d9cd2)" d="M 56.12 294.88 
L 399.984 294.88 
" style="fill:none;stroke:#b0b0b0;stroke-linecap:square;stroke-width:0.8;"/>
     </g>
     <g id="line2d_12">
      <defs>
       <path d="M 0 0 
L -3.5 0 
" id="m40876e1d00" style="stroke:#000000;stroke-width:0.8;"/>
      </defs>
      <g>
       <use style="stroke:#000000;stroke-width:0.8;" x="56.12" xlink:href="#m40876e1d00" y="294.88"/>
      </g>
     </g>
     <g id="text_7">
      <!-- 0.0 -->
      <defs>
       <path d="M 10.6875 12.40625 
L 21 12.40625 
L 21 0 
L 10.6875 0 
z
" id="DejaVuSans-2e"/>
      </defs>
      <g transform="translate(23.675 300.95875)scale(0.16 -0.16)">
       <use xlink:href="#DejaVuSans-30"/>
       <use x="63.623047" xlink:href="#DejaVuSans-2e"/>
       <use x="95.410156" xlink:href="#DejaVuSans-30"/>
      </g>
     </g>
    </g>
    <g id="ytick_2">
     <g id="line2d_13">
      <path clip-path="url(#pf94f0d9cd2)" d="M 56.12 237.843411 
L 399.984 237.843411 
" style="fill:none;stroke:#b0b0b0;stroke-linecap:square;stroke-width:0.8;"/>
     </g>
     <g id="line2d_14">
      <g>
       <use style="stroke:#000000;stroke-width:0.8;" x="56.12" xlink:href="#m40876e1d00" y="237.843411"/>
      </g>
     </g>
     <g id="text_8">
      <!-- 0.2 -->
      <g transform="translate(23.675 243.922161)scale(0.16 -0.16)">
       <use xlink:href="#DejaVuSans-30"/>
       <use x="63.623047" xlink:href="#DejaVuSans-2e"/>
       <use x="95.410156" xlink:href="#DejaVuSans-32"/>
      </g>
     </g>
    </g>
    <g id="ytick_3">
     <g id="line2d_15">
      <path clip-path="url(#pf94f0d9cd2)" d="M 56.12 180.806823 
L 399.984 180.806823 
" style="fill:none;stroke:#b0b0b0;stroke-linecap:square;stroke-width:0.8;"/>
     </g>
     <g id="line2d_16">
      <g>
       <use style="stroke:#000000;stroke-width:0.8;" x="56.12" xlink:href="#m40876e1d00" y="180.806823"/>
      </g>
     </g>
     <g id="text_9">
      <!-- 0.4 -->
      <g transform="translate(23.675 186.885573)scale(0.16 -0.16)">
       <use xlink:href="#DejaVuSans-30"/>
       <use x="63.623047" xlink:href="#DejaVuSans-2e"/>
       <use x="95.410156" xlink:href="#DejaVuSans-34"/>
      </g>
     </g>
    </g>
    <g id="ytick_4">
     <g id="line2d_17">
      <path clip-path="url(#pf94f0d9cd2)" d="M 56.12 123.770234 
L 399.984 123.770234 
" style="fill:none;stroke:#b0b0b0;stroke-linecap:square;stroke-width:0.8;"/>
     </g>
     <g id="line2d_18">
      <g>
       <use style="stroke:#000000;stroke-width:0.8;" x="56.12" xlink:href="#m40876e1d00" y="123.770234"/>
      </g>
     </g>
     <g id="text_10">
      <!-- 0.6 -->
      <g transform="translate(23.675 129.848984)scale(0.16 -0.16)">
       <use xlink:href="#DejaVuSans-30"/>
       <use x="63.623047" xlink:href="#DejaVuSans-2e"/>
       <use x="95.410156" xlink:href="#DejaVuSans-36"/>
      </g>
     </g>
    </g>
    <g id="ytick_5">
     <g id="line2d_19">
      <path clip-path="url(#pf94f0d9cd2)" d="M 56.12 66.733646 
L 399.984 66.733646 
" style="fill:none;stroke:#b0b0b0;stroke-linecap:square;stroke-width:0.8;"/>
     </g>
     <g id="line2d_20">
      <g>
       <use style="stroke:#000000;stroke-width:0.8;" x="56.12" xlink:href="#m40876e1d00" y="66.733646"/>
      </g>
     </g>
     <g id="text_11">
      <!-- 0.8 -->
      <g transform="translate(23.675 72.812396)scale(0.16 -0.16)">
       <use xlink:href="#DejaVuSans-30"/>
       <use x="63.623047" xlink:href="#DejaVuSans-2e"/>
       <use x="95.410156" xlink:href="#DejaVuSans-38"/>
      </g>
     </g>
    </g>
    <g id="ytick_6">
     <g id="line2d_21">
      <path clip-path="url(#pf94f0d9cd2)" d="M 56.12 9.697057 
L 399.984 9.697057 
" style="fill:none;stroke:#b0b0b0;stroke-linecap:square;stroke-width:0.8;"/>
     </g>
     <g id="line2d_22">
      <g>
       <use style="stroke:#000000;stroke-width:0.8;" x="56.12" xlink:href="#m40876e1d00" y="9.697057"/>
      </g>
     </g>
     <g id="text_12">
      <!-- 1.0 -->
      <g transform="translate(23.675 15.775807)scale(0.16 -0.16)">
       <use xlink:href="#DejaVuSans-31"/>
       <use x="63.623047" xlink:href="#DejaVuSans-2e"/>
       <use x="95.410156" xlink:href="#DejaVuSans-30"/>
      </g>
     </g>
    </g>
    <g id="text_13">
     <!-- Fraction of function,target pairs -->
     <defs>
      <path d="M 9.8125 72.90625 
L 51.703125 72.90625 
L 51.703125 64.59375 
L 19.671875 64.59375 
L 19.671875 43.109375 
L 48.578125 43.109375 
L 48.578125 34.8125 
L 19.671875 34.8125 
L 19.671875 0 
L 9.8125 0 
z
" id="DejaVuSans-46"/>
      <path d="M 41.109375 46.296875 
Q 39.59375 47.171875 37.8125 47.578125 
Q 36.03125 48 33.890625 48 
Q 26.265625 48 22.1875 43.046875 
Q 18.109375 38.09375 18.109375 28.8125 
L 18.109375 0 
L 9.078125 0 
L 9.078125 54.6875 
L 18.109375 54.6875 
L 18.109375 46.1875 
Q 20.953125 51.171875 25.484375 53.578125 
Q 30.03125 56 36.53125 56 
Q 37.453125 56 38.578125 55.875 
Q 39.703125 55.765625 41.0625 55.515625 
z
" id="DejaVuSans-72"/>
      <path d="M 48.78125 52.59375 
L 48.78125 44.1875 
Q 44.96875 46.296875 41.140625 47.34375 
Q 37.3125 48.390625 33.40625 48.390625 
Q 24.65625 48.390625 19.8125 42.84375 
Q 14.984375 37.3125 14.984375 27.296875 
Q 14.984375 17.28125 19.8125 11.734375 
Q 24.65625 6.203125 33.40625 6.203125 
Q 37.3125 6.203125 41.140625 7.25 
Q 44.96875 8.296875 48.78125 10.40625 
L 48.78125 2.09375 
Q 45.015625 0.34375 40.984375 -0.53125 
Q 36.96875 -1.421875 32.421875 -1.421875 
Q 20.0625 -1.421875 12.78125 6.34375 
Q 5.515625 14.109375 5.515625 27.296875 
Q 5.515625 40.671875 12.859375 48.328125 
Q 20.21875 56 33.015625 56 
Q 37.15625 56 41.109375 55.140625 
Q 45.0625 54.296875 48.78125 52.59375 
z
" id="DejaVuSans-63"/>
      <path d="M 18.3125 70.21875 
L 18.3125 54.6875 
L 36.8125 54.6875 
L 36.8125 47.703125 
L 18.3125 47.703125 
L 18.3125 18.015625 
Q 18.3125 11.328125 20.140625 9.421875 
Q 21.96875 7.515625 27.59375 7.515625 
L 36.8125 7.515625 
L 36.8125 0 
L 27.59375 0 
Q 17.1875 0 13.234375 3.875 
Q 9.28125 7.765625 9.28125 18.015625 
L 9.28125 47.703125 
L 2.6875 47.703125 
L 2.6875 54.6875 
L 9.28125 54.6875 
L 9.28125 70.21875 
z
" id="DejaVuSans-74"/>
      <path d="M 8.5 21.578125 
L 8.5 54.6875 
L 17.484375 54.6875 
L 17.484375 21.921875 
Q 17.484375 14.15625 20.5 10.265625 
Q 23.53125 6.390625 29.59375 6.390625 
Q 36.859375 6.390625 41.078125 11.03125 
Q 45.3125 15.671875 45.3125 23.6875 
L 45.3125 54.6875 
L 54.296875 54.6875 
L 54.296875 0 
L 45.3125 0 
L 45.3125 8.40625 
Q 42.046875 3.421875 37.71875 1 
Q 33.40625 -1.421875 27.6875 -1.421875 
Q 18.265625 -1.421875 13.375 4.4375 
Q 8.5 10.296875 8.5 21.578125 
z
M 31.109375 56 
z
" id="DejaVuSans-75"/>
      <path d="M 11.71875 12.40625 
L 22.015625 12.40625 
L 22.015625 4 
L 14.015625 -11.625 
L 7.71875 -11.625 
L 11.71875 4 
z
" id="DejaVuSans-2c"/>
      <path d="M 18.109375 8.203125 
L 18.109375 -20.796875 
L 9.078125 -20.796875 
L 9.078125 54.6875 
L 18.109375 54.6875 
L 18.109375 46.390625 
Q 20.953125 51.265625 25.265625 53.625 
Q 29.59375 56 35.59375 56 
Q 45.5625 56 51.78125 48.09375 
Q 58.015625 40.1875 58.015625 27.296875 
Q 58.015625 14.40625 51.78125 6.484375 
Q 45.5625 -1.421875 35.59375 -1.421875 
Q 29.59375 -1.421875 25.265625 0.953125 
Q 20.953125 3.328125 18.109375 8.203125 
z
M 48.6875 27.296875 
Q 48.6875 37.203125 44.609375 42.84375 
Q 40.53125 48.484375 33.40625 48.484375 
Q 26.265625 48.484375 22.1875 42.84375 
Q 18.109375 37.203125 18.109375 27.296875 
Q 18.109375 17.390625 22.1875 11.75 
Q 26.265625 6.109375 33.40625 6.109375 
Q 40.53125 6.109375 44.609375 11.75 
Q 48.6875 17.390625 48.6875 27.296875 
z
" id="DejaVuSans-70"/>
     </defs>
     <g transform="translate(16.139531 286.001989)rotate(-90)scale(0.17 -0.17)">
      <use xlink:href="#DejaVuSans-46"/>
      <use x="57.410156" xlink:href="#DejaVuSans-72"/>
      <use x="98.523438" xlink:href="#DejaVuSans-61"/>
      <use x="159.802734" xlink:href="#DejaVuSans-63"/>
      <use x="214.783203" xlink:href="#DejaVuSans-74"/>
      <use x="253.992188" xlink:href="#DejaVuSans-69"/>
      <use x="281.775391" xlink:href="#DejaVuSans-6f"/>
      <use x="342.957031" xlink:href="#DejaVuSans-6e"/>
      <use x="406.335938" xlink:href="#DejaVuSans-20"/>
      <use x="438.123047" xlink:href="#DejaVuSans-6f"/>
      <use x="499.304688" xlink:href="#DejaVuSans-66"/>
      <use x="534.509766" xlink:href="#DejaVuSans-20"/>
      <use x="566.296875" xlink:href="#DejaVuSans-66"/>
      <use x="601.501953" xlink:href="#DejaVuSans-75"/>
      <use x="664.880859" xlink:href="#DejaVuSans-6e"/>
      <use x="728.259766" xlink:href="#DejaVuSans-63"/>
      <use x="783.240234" xlink:href="#DejaVuSans-74"/>
      <use x="822.449219" xlink:href="#DejaVuSans-69"/>
      <use x="850.232422" xlink:href="#DejaVuSans-6f"/>
      <use x="911.414062" xlink:href="#DejaVuSans-6e"/>
      <use x="974.792969" xlink:href="#DejaVuSans-2c"/>
      <use x="1006.580078" xlink:href="#DejaVuSans-74"/>
      <use x="1045.789062" xlink:href="#DejaVuSans-61"/>
      <use x="1107.068359" xlink:href="#DejaVuSans-72"/>
      <use x="1148.166016" xlink:href="#DejaVuSans-67"/>
      <use x="1211.642578" xlink:href="#DejaVuSans-65"/>
      <use x="1273.166016" xlink:href="#DejaVuSans-74"/>
      <use x="1312.375" xlink:href="#DejaVuSans-20"/>
      <use x="1344.162109" xlink:href="#DejaVuSans-70"/>
      <use x="1407.638672" xlink:href="#DejaVuSans-61"/>
      <use x="1468.917969" xlink:href="#DejaVuSans-69"/>
      <use x="1496.701172" xlink:href="#DejaVuSans-72"/>
      <use x="1537.814453" xlink:href="#DejaVuSans-73"/>
     </g>
    </g>
   </g>
   <g id="line2d_23">
    <defs>
     <path d="M 0 1.5 
C 0.397805 1.5 0.77937 1.341951 1.06066 1.06066 
C 1.341951 0.77937 1.5 0.397805 1.5 0 
C 1.5 -0.397805 1.341951 -0.77937 1.06066 -1.06066 
C 0.77937 -1.341951 0.397805 -1.5 0 -1.5 
C -0.397805 -1.5 -0.77937 -1.341951 -1.06066 -1.06066 
C -1.341951 -0.77937 -1.5 -0.397805 -1.5 0 
C -1.5 0.397805 -1.341951 0.77937 -1.06066 1.06066 
C -0.77937 1.341951 -0.397805 1.5 0 1.5 
z
" id="m612a44721c" style="stroke:#000080;"/>
    </defs>
    <g>
     <use style="fill:#000080;stroke:#000080;" x="192.780724" xlink:href="#m612a44721c" y="250.145421"/>
     <use style="fill:#000080;stroke:#000080;" x="192.780724" xlink:href="#m612a44721c" y="250.145421"/>
    </g>
   </g>
   <g id="line2d_24">
    <path d="M 113.694177 294.88 
L 113.694177 293.761636 
L 117.773963 293.761636 
L 117.773963 293.202453 
L 129.116196 293.202453 
L 129.116196 291.524907 
L 129.507233 291.524907 
L 129.507233 290.965724 
L 134.065728 290.965724 
L 134.065728 290.406542 
L 135.213144 290.406542 
L 135.282379 289.288178 
L 135.351336 289.288178 
L 135.420019 288.169813 
L 135.759376 288.169813 
L 135.759376 287.610631 
L 136.026124 287.610631 
L 136.026124 287.051449 
L 138.373071 287.051449 
L 138.373071 286.492266 
L 140.99219 286.492266 
L 140.99219 285.933084 
L 141.767752 285.933084 
L 141.767752 285.373902 
L 142.645506 285.373902 
L 142.645506 284.255537 
L 143.308163 284.255537 
L 143.308163 283.696355 
L 144.029558 283.696355 
L 144.029558 282.577991 
L 144.721918 282.577991 
L 144.721918 282.018808 
L 145.69201 282.018808 
L 145.729698 280.900444 
L 147.069134 280.900444 
L 147.069134 280.341262 
L 147.48207 280.341262 
L 147.48207 279.782079 
L 148.440899 279.782079 
L 148.440899 279.222897 
L 149.349101 279.222897 
L 149.379579 278.104533 
L 150.036789 278.104533 
L 150.036789 277.545351 
L 150.950031 277.545351 
L 150.950031 276.986168 
L 151.737763 276.986168 
L 151.764293 275.308622 
L 151.870007 275.308622 
L 151.870007 274.749439 
L 152.157415 274.749439 
L 152.157415 274.190257 
L 152.45284 274.190257 
L 152.491002 272.51271 
L 153.065801 272.51271 
L 153.065801 271.953528 
L 153.334061 271.953528 
L 153.334061 271.394346 
L 153.574356 271.394346 
L 153.574356 270.835164 
L 154.091481 270.835164 
L 154.091481 270.275981 
L 154.229859 270.275981 
L 154.229859 269.716799 
L 154.525913 269.716799 
L 154.615991 268.598435 
L 154.683241 268.598435 
L 154.75023 267.48007 
L 155.114076 267.48007 
L 155.114076 266.920888 
L 155.27695 266.920888 
L 155.27695 266.361706 
L 155.406149 266.361706 
L 155.513078 264.684159 
L 155.534384 264.684159 
L 155.619347 263.006612 
L 155.661671 263.006612 
L 155.661671 261.888248 
L 156.63744 261.888248 
L 156.63744 261.329066 
L 157.408738 261.329066 
L 157.408738 260.769883 
L 161.274605 260.769883 
L 161.274605 260.210701 
L 164.843199 260.210701 
L 164.843199 259.651519 
L 164.997449 259.651519 
L 165.028133 258.533154 
L 165.259565 258.533154 
L 165.259565 257.973972 
L 165.654272 257.973972 
L 165.654272 257.41479 
L 167.012284 257.41479 
L 167.012284 256.855608 
L 167.267175 256.855608 
L 167.267175 256.296425 
L 167.682027 256.296425 
L 167.682027 255.737243 
L 167.896144 255.737243 
L 167.896144 255.178061 
L 168.281056 255.178061 
L 168.281056 254.618879 
L 172.440002 254.618879 
L 172.440002 254.059696 
L 172.582881 254.059696 
L 172.582881 253.500514 
L 174.713962 253.500514 
L 174.713962 252.941332 
L 176.066625 252.941332 
L 176.066625 252.38215 
L 183.734344 252.38215 
L 183.734344 251.822967 
L 187.583831 251.822967 
L 187.583831 251.263785 
L 189.677353 251.263785 
L 189.677353 250.704603 
L 192.780724 250.704603 
L 192.780724 250.145421 
L 333.429677 250.145421 
L 333.429677 250.145421 
" style="fill:none;stroke:#000080;stroke-linecap:square;stroke-width:1.5;"/>
   </g>
   <g id="line2d_25">
    <defs>
     <path d="M 0 6 
C 1.591219 6 3.117479 5.367802 4.242641 4.242641 
C 5.367802 3.117479 6 1.591219 6 0 
C 6 -1.591219 5.367802 -3.117479 4.242641 -4.242641 
C 3.117479 -5.367802 1.591219 -6 0 -6 
C -1.591219 -6 -3.117479 -5.367802 -4.242641 -4.242641 
C -5.367802 -3.117479 -6 -1.591219 -6 0 
C -6 1.591219 -5.367802 3.117479 -4.242641 4.242641 
C -3.117479 5.367802 -1.591219 6 0 6 
z
" id="mf5ef20ff86" style="stroke:#000080;stroke-width:1.5;"/>
    </defs>
    <g>
     <use style="fill-opacity:0;stroke:#000080;stroke-width:1.5;" x="152.45284" xlink:href="#mf5ef20ff86" y="274.190257"/>
     <use style="fill-opacity:0;stroke:#000080;stroke-width:1.5;" x="168.281056" xlink:href="#mf5ef20ff86" y="254.618879"/>
     <use style="fill-opacity:0;stroke:#000080;stroke-width:1.5;" x="192.780724" xlink:href="#mf5ef20ff86" y="250.145421"/>
     <use style="fill-opacity:0;stroke:#000080;stroke-width:1.5;" x="192.780724" xlink:href="#mf5ef20ff86" y="250.145421"/>
     <use style="fill-opacity:0;stroke:#000080;stroke-width:1.5;" x="333.429677" xlink:href="#mf5ef20ff86" y="250.145421"/>
    </g>
   </g>
   <g id="line2d_26">
    <path style="fill:none;stroke:#000080;stroke-linecap:square;stroke-width:1.5;"/>
    <g/>
   </g>
   <g id="line2d_27">
    <path clip-path="url(#pf94f0d9cd2)" d="M 140.692098 286.492266 
" style="fill:none;stroke:#000080;stroke-linecap:square;stroke-width:1.5;"/>
    <defs>
     <path d="M -12 12 
L 12 -12 
M -12 -12 
L 12 12 
" id="m98d8f5fe36" style="stroke:#000080;stroke-width:3;"/>
    </defs>
    <g clip-path="url(#pf94f0d9cd2)">
     <use style="fill:#000080;stroke:#000080;stroke-width:3;" x="140.692098" xlink:href="#m98d8f5fe36" y="286.492266"/>
    </g>
   </g>
   <g id="line2d_28">
    <defs>
     <path d="M 0 1.5 
C 0.397805 1.5 0.77937 1.341951 1.06066 1.06066 
C 1.341951 0.77937 1.5 0.397805 1.5 0 
C 1.5 -0.397805 1.341951 -0.77937 1.06066 -1.06066 
C 0.77937 -1.341951 0.397805 -1.5 0 -1.5 
C -0.397805 -1.5 -0.77937 -1.341951 -1.06066 -1.06066 
C -1.341951 -0.77937 -1.5 -0.397805 -1.5 0 
C -1.5 0.397805 -1.341951 0.77937 -1.06066 1.06066 
C -0.77937 1.341951 -0.397805 1.5 0 1.5 
z
" id="m68408ad243" style="stroke:#ff00ff;"/>
    </defs>
    <g>
     <use style="fill:#ff00ff;stroke:#ff00ff;" x="150.584853" xlink:href="#m68408ad243" y="266.920888"/>
     <use style="fill:#ff00ff;stroke:#ff00ff;" x="150.584853" xlink:href="#m68408ad243" y="266.920888"/>
    </g>
   </g>
   <g id="line2d_29">
    <path d="M 40.355341 294.88 
L 40.355341 288.728995 
L 81.610808 288.728995 
L 81.610808 286.492266 
L 92.735942 286.492266 
L 92.735942 283.137173 
L 93.536312 283.137173 
L 93.536312 282.018808 
L 99.436631 282.018808 
L 99.436631 279.782079 
L 104.246851 279.782079 
L 104.246851 278.663715 
L 104.661446 278.663715 
L 104.661446 278.104533 
L 108.33596 278.104533 
L 108.33596 276.986168 
L 111.082375 276.986168 
L 111.082375 275.308622 
L 113.694177 275.308622 
L 113.694177 274.749439 
L 113.934809 274.749439 
L 113.934809 274.190257 
L 115.96125 274.190257 
L 115.96125 273.631075 
L 116.380902 273.631075 
L 116.380902 273.071893 
L 117.964074 273.071893 
L 117.964074 272.51271 
L 118.152108 272.51271 
L 118.152108 271.953528 
L 119.927379 271.953528 
L 119.927379 271.394346 
L 121.689415 271.394346 
L 121.689415 270.835164 
L 123.007879 270.835164 
L 123.007879 270.275981 
L 124.493143 270.275981 
L 124.493143 269.716799 
L 128.816974 269.716799 
L 128.816974 269.157617 
L 128.917294 269.157617 
L 128.917294 268.598435 
L 133.991409 268.598435 
L 133.991409 268.039252 
L 136.157962 268.039252 
L 136.157962 267.48007 
L 150.584853 267.48007 
L 150.584853 266.920888 
L 333.429677 266.920888 
" style="fill:none;stroke:#ff00ff;stroke-linecap:square;stroke-width:1.5;"/>
   </g>
   <g id="line2d_30">
    <defs>
     <path d="M -0 8.485281 
L 5.091169 0 
L 0 -8.485281 
L -5.091169 -0 
z
" id="m4ffad3f047" style="stroke:#ff00ff;stroke-linejoin:miter;stroke-width:1.5;"/>
    </defs>
    <g>
     <use style="fill-opacity:0;stroke:#ff00ff;stroke-linejoin:miter;stroke-width:1.5;" x="93.536312" xlink:href="#m4ffad3f047" y="282.018808"/>
     <use style="fill-opacity:0;stroke:#ff00ff;stroke-linejoin:miter;stroke-width:1.5;" x="136.157962" xlink:href="#m4ffad3f047" y="267.48007"/>
     <use style="fill-opacity:0;stroke:#ff00ff;stroke-linejoin:miter;stroke-width:1.5;" x="150.584853" xlink:href="#m4ffad3f047" y="267.48007"/>
     <use style="fill-opacity:0;stroke:#ff00ff;stroke-linejoin:miter;stroke-width:1.5;" x="150.584853" xlink:href="#m4ffad3f047" y="266.920888"/>
     <use style="fill-opacity:0;stroke:#ff00ff;stroke-linejoin:miter;stroke-width:1.5;" x="150.584853" xlink:href="#m4ffad3f047" y="266.920888"/>
     <use style="fill-opacity:0;stroke:#ff00ff;stroke-linejoin:miter;stroke-width:1.5;" x="333.429677" xlink:href="#m4ffad3f047" y="266.920888"/>
    </g>
   </g>
   <g id="line2d_31">
    <path style="fill:none;stroke:#ff00ff;stroke-linecap:square;stroke-width:1.5;"/>
    <g/>
   </g>
   <g id="line2d_32">
    <path clip-path="url(#pf94f0d9cd2)" d="M 79.971009 288.728995 
" style="fill:none;stroke:#ff00ff;stroke-linecap:square;stroke-width:1.5;"/>
    <defs>
     <path d="M -12 12 
L 12 -12 
M -12 -12 
L 12 12 
" id="m15dc7f2cbc" style="stroke:#ff00ff;stroke-width:3;"/>
    </defs>
    <g clip-path="url(#pf94f0d9cd2)">
     <use style="fill:#ff00ff;stroke:#ff00ff;stroke-width:3;" x="79.971009" xlink:href="#m15dc7f2cbc" y="288.728995"/>
    </g>
   </g>
   <g id="line2d_33">
    <defs>
     <path d="M 0 1.5 
C 0.397805 1.5 0.77937 1.341951 1.06066 1.06066 
C 1.341951 0.77937 1.5 0.397805 1.5 0 
C 1.5 -0.397805 1.341951 -0.77937 1.06066 -1.06066 
C 0.77937 -1.341951 0.397805 -1.5 0 -1.5 
C -0.397805 -1.5 -0.77937 -1.341951 -1.06066 -1.06066 
C -1.341951 -0.77937 -1.5 -0.397805 -1.5 0 
C -1.5 0.397805 -1.341951 0.77937 -1.06066 1.06066 
C -0.77937 1.341951 -0.397805 1.5 0 1.5 
z
" id="m6d3f2e8596" style="stroke:#ffa500;"/>
    </defs>
    <g>
     <use style="fill:#ffa500;stroke:#ffa500;" x="209.366824" xlink:href="#m6d3f2e8596" y="199.819019"/>
     <use style="fill:#ffa500;stroke:#ffa500;" x="209.366824" xlink:href="#m6d3f2e8596" y="199.819019"/>
    </g>
   </g>
   <g id="line2d_34">
    <path d="M 128.917294 294.88 
L 128.917294 294.320818 
L 131.512181 294.320818 
L 131.512181 293.202453 
L 131.937015 293.202453 
L 131.937015 292.643271 
L 132.756449 292.643271 
L 132.756449 292.084089 
L 140.386678 292.084089 
L 140.386678 291.524907 
L 141.624972 291.524907 
L 141.624972 290.406542 
L 143.046155 290.406542 
L 143.046155 289.84736 
L 143.566241 289.84736 
L 143.566241 289.288178 
L 144.029558 289.288178 
L 144.029558 288.728995 
L 144.601744 288.728995 
L 144.601744 288.169813 
L 145.116542 288.169813 
L 145.116542 287.610631 
L 145.804829 287.610631 
L 145.804829 287.051449 
L 146.102113 287.051449 
L 146.102113 286.492266 
L 146.321752 286.492266 
L 146.358088 284.81472 
L 146.574504 284.81472 
L 146.574504 283.137173 
L 146.999337 283.137173 
L 147.034271 280.900444 
L 147.651244 280.900444 
L 147.651244 279.222897 
L 148.600945 279.222897 
L 148.64867 278.104533 
L 148.759517 278.104533 
L 148.791056 274.190257 
L 149.226646 274.190257 
L 149.226646 273.631075 
L 149.379579 273.631075 
L 149.410003 272.51271 
L 149.500954 272.51271 
L 149.561322 270.275981 
L 149.800698 270.275981 
L 149.889612 269.157617 
L 149.978069 269.157617 
L 149.978069 268.598435 
L 150.313003 268.598435 
L 150.327419 267.48007 
L 150.556439 267.48007 
L 150.584853 261.888248 
L 150.75436 261.888248 
L 150.810494 260.210701 
L 150.950031 260.210701 
L 151.060852 257.973972 
L 151.088446 257.973972 
L 151.143502 256.296425 
L 151.711192 256.296425 
L 151.711192 255.737243 
L 152.079506 255.737243 
L 152.183306 254.618879 
L 152.337842 254.618879 
L 152.337842 254.059696 
L 153.716938 254.059696 
L 153.716938 253.500514 
L 153.97531 253.500514 
L 154.021872 252.38215 
L 154.160809 252.38215 
L 154.160809 250.704603 
L 154.40128 250.704603 
L 154.412648 249.027056 
L 154.593515 249.027056 
L 154.593515 248.467874 
L 154.883429 248.467874 
L 154.883429 247.908692 
L 155.070381 247.908692 
L 155.070381 247.34951 
L 155.26614 247.34951 
L 155.26614 246.790327 
L 155.513078 246.790327 
L 155.619347 243.435234 
L 155.975829 243.435234 
L 156.079286 242.316869 
L 156.263955 242.316869 
L 156.263955 241.757687 
L 156.517196 241.757687 
L 156.517196 241.198505 
L 156.766763 241.198505 
L 156.766763 240.639323 
L 156.963843 240.639323 
L 156.963843 240.08014 
L 157.274549 240.08014 
L 157.274549 239.520958 
L 157.418283 239.520958 
L 157.446886 238.402594 
L 157.861027 238.402594 
L 157.861027 237.843411 
L 158.174354 237.843411 
L 158.174354 237.284229 
L 158.365067 237.284229 
L 158.446159 235.606682 
L 159.029431 235.606682 
L 159.072822 234.488318 
L 159.458502 234.488318 
L 159.458502 233.929136 
L 159.694189 233.929136 
L 159.694189 233.369954 
L 159.893668 233.369954 
L 159.893668 232.810771 
L 160.653423 232.810771 
L 160.653423 232.251589 
L 160.795158 232.251589 
L 160.795158 231.692407 
L 161.028817 231.692407 
L 161.028817 230.574042 
L 161.479292 230.574042 
L 161.479292 230.01486 
L 162.757001 230.01486 
L 162.757001 229.455678 
L 163.219507 229.455678 
L 163.219507 228.896496 
L 163.348434 228.896496 
L 163.348434 228.337313 
L 163.576761 228.337313 
L 163.583431 227.218949 
L 164.01802 227.218949 
L 164.069959 226.100584 
L 164.308159 226.100584 
L 164.391074 224.423038 
L 165.095447 224.423038 
L 165.095447 223.863855 
L 165.422132 223.863855 
L 165.422132 223.304673 
L 165.589113 223.304673 
L 165.683808 222.186309 
L 166.016985 222.186309 
L 166.016985 221.627126 
L 166.315409 221.627126 
L 166.315409 221.067944 
L 167.687281 221.067944 
L 167.776358 219.390397 
L 168.512945 219.390397 
L 168.517951 218.272033 
L 169.999111 218.272033 
L 170.095292 217.153669 
L 170.456847 217.153669 
L 170.479194 216.035304 
L 170.898361 216.035304 
L 170.898361 215.476122 
L 171.573652 215.476122 
L 171.573652 214.91694 
L 171.934476 214.91694 
L 172.020449 213.798575 
L 173.494993 213.798575 
L 173.494993 213.239393 
L 175.114334 213.239393 
L 175.114334 212.680211 
L 176.335657 212.680211 
L 176.335657 212.121028 
L 177.724022 212.121028 
L 177.724022 211.561846 
L 177.869975 211.561846 
L 177.869975 211.002664 
L 178.559401 211.002664 
L 178.651309 209.884299 
L 178.773094 209.884299 
L 178.773094 209.325117 
L 179.038569 209.325117 
L 179.038569 208.765935 
L 179.358756 208.765935 
L 179.358756 208.206753 
L 180.445958 208.206753 
L 180.488449 207.088388 
L 182.391294 207.088388 
L 182.391294 206.529206 
L 184.049775 206.529206 
L 184.116622 205.410841 
L 184.646167 205.410841 
L 184.646167 204.851659 
L 186.421591 204.851659 
L 186.421591 204.292477 
L 189.580498 204.292477 
L 189.580498 203.733295 
L 191.7679 203.733295 
L 191.7679 203.174112 
L 193.932594 203.174112 
L 193.932594 202.61493 
L 197.757116 202.61493 
L 197.757116 202.055748 
L 198.282434 202.055748 
L 198.282434 201.496566 
L 200.130166 201.496566 
L 200.130166 200.937384 
L 200.6352 200.937384 
L 200.6352 200.378201 
L 209.366824 200.378201 
L 209.366824 199.819019 
L 333.429677 199.819019 
L 333.429677 199.819019 
" style="fill:none;stroke:#ffa500;stroke-linecap:square;stroke-width:1.5;"/>
   </g>
   <g id="line2d_35">
    <defs>
     <path d="M 0 -6 
L -1.347084 -1.854102 
L -5.706339 -1.854102 
L -2.179628 0.708204 
L -3.526712 4.854102 
L -0 2.291796 
L 3.526712 4.854102 
L 2.179628 0.708204 
L 5.706339 -1.854102 
L 1.347084 -1.854102 
z
" id="m29f1c893cb" style="stroke:#ffa500;stroke-linejoin:bevel;stroke-width:1.5;"/>
    </defs>
    <g>
     <use style="fill-opacity:0;stroke:#ffa500;stroke-linejoin:bevel;stroke-width:1.5;" x="182.391294" xlink:href="#m29f1c893cb" y="207.088388"/>
     <use style="fill-opacity:0;stroke:#ffa500;stroke-linejoin:bevel;stroke-width:1.5;" x="209.366824" xlink:href="#m29f1c893cb" y="200.378201"/>
     <use style="fill-opacity:0;stroke:#ffa500;stroke-linejoin:bevel;stroke-width:1.5;" x="209.366824" xlink:href="#m29f1c893cb" y="199.819019"/>
     <use style="fill-opacity:0;stroke:#ffa500;stroke-linejoin:bevel;stroke-width:1.5;" x="209.366824" xlink:href="#m29f1c893cb" y="199.819019"/>
     <use style="fill-opacity:0;stroke:#ffa500;stroke-linejoin:bevel;stroke-width:1.5;" x="333.429677" xlink:href="#m29f1c893cb" y="199.819019"/>
    </g>
   </g>
   <g id="line2d_36">
    <path style="fill:none;stroke:#ffa500;stroke-linecap:square;stroke-width:1.5;"/>
    <g/>
   </g>
   <g id="line2d_37">
    <path clip-path="url(#pf94f0d9cd2)" d="M 142.073102 290.406542 
" style="fill:none;stroke:#ffa500;stroke-linecap:square;stroke-width:1.5;"/>
    <defs>
     <path d="M -12 12 
L 12 -12 
M -12 -12 
L 12 12 
" id="m89db988fa0" style="stroke:#ffa500;stroke-width:3;"/>
    </defs>
    <g clip-path="url(#pf94f0d9cd2)">
     <use style="fill:#ffa500;stroke:#ffa500;stroke-width:3;" x="142.073102" xlink:href="#m89db988fa0" y="290.406542"/>
    </g>
   </g>
   <g id="line2d_38">
    <defs>
     <path d="M 0 1.5 
C 0.397805 1.5 0.77937 1.341951 1.06066 1.06066 
C 1.341951 0.77937 1.5 0.397805 1.5 0 
C 1.5 -0.397805 1.341951 -0.77937 1.06066 -1.06066 
C 0.77937 -1.341951 0.397805 -1.5 0 -1.5 
C -0.397805 -1.5 -0.77937 -1.341951 -1.06066 -1.06066 
C -1.341951 -0.77937 -1.5 -0.397805 -1.5 0 
C -1.5 0.397805 -1.341951 0.77937 -1.06066 1.06066 
C -0.77937 1.341951 -0.397805 1.5 0 1.5 
z
" id="m4038ef4ac5" style="stroke:#6495ed;"/>
    </defs>
    <g>
     <use style="fill:#6495ed;stroke:#6495ed;" x="216.002095" xlink:href="#m4038ef4ac5" y="9.697057"/>
     <use style="fill:#6495ed;stroke:#6495ed;" x="216.002095" xlink:href="#m4038ef4ac5" y="9.697057"/>
    </g>
   </g>
   <g id="line2d_39">
    <path d="M 40.355341 294.88 
L 40.355341 278.104533 
L 99.982863 278.104533 
L 99.982863 277.545351 
L 100.512285 277.545351 
L 100.512285 273.631075 
L 101.025901 273.631075 
L 101.025901 272.51271 
L 108.001874 272.51271 
L 108.001874 271.953528 
L 108.33596 271.953528 
L 108.33596 271.394346 
L 108.663681 271.394346 
L 108.663681 270.835164 
L 110.508826 270.835164 
L 110.508826 269.716799 
L 119.927379 269.716799 
L 119.927379 268.598435 
L 120.426105 268.598435 
L 120.426105 268.039252 
L 121.226476 268.039252 
L 121.226476 266.920888 
L 121.841001 266.920888 
L 121.841001 266.361706 
L 121.991263 266.361706 
L 121.991263 265.243341 
L 123.562923 265.243341 
L 123.562923 264.684159 
L 123.833872 264.684159 
L 123.833872 263.565795 
L 124.493143 263.565795 
L 124.493143 262.44743 
L 125.128081 262.44743 
L 125.128081 261.888248 
L 129.410304 261.888248 
L 129.410304 261.329066 
L 129.699468 261.329066 
L 129.699468 260.210701 
L 130.355864 260.210701 
L 130.355864 259.651519 
L 130.629687 259.651519 
L 130.629687 259.092337 
L 131.164597 259.092337 
L 131.164597 257.41479 
L 132.269486 257.41479 
L 132.269486 256.296425 
L 132.915754 256.296425 
L 132.915754 255.737243 
L 133.307682 255.737243 
L 133.385007 254.059696 
L 133.614919 254.059696 
L 133.614919 253.500514 
L 134.933384 253.500514 
L 134.933384 252.941332 
L 135.759376 252.941332 
L 135.759376 250.145421 
L 136.353845 250.145421 
L 136.353845 249.586238 
L 136.483206 249.586238 
L 136.483206 249.027056 
L 136.675441 249.027056 
L 136.675441 248.467874 
L 137.177808 248.467874 
L 137.177808 247.34951 
L 137.545186 247.34951 
L 137.545186 246.790327 
L 137.845453 246.790327 
L 137.845453 246.231145 
L 138.31524 246.231145 
L 138.31524 243.994416 
L 138.430709 243.994416 
L 138.430709 243.435234 
L 138.602473 243.435234 
L 138.602473 242.876052 
L 138.772539 242.876052 
L 138.772539 241.757687 
L 139.490663 241.757687 
L 139.598531 239.520958 
L 139.759075 239.520958 
L 139.759075 238.402594 
L 139.918135 238.402594 
L 139.918135 237.284229 
L 140.283654 237.284229 
L 140.283654 236.725047 
L 143.002096 236.725047 
L 143.090101 235.0475 
L 143.651414 235.0475 
L 143.651414 233.929136 
L 143.862519 233.929136 
L 143.862519 232.810771 
L 145.559445 232.810771 
L 145.578446 231.692407 
L 148.569055 231.692407 
L 148.569055 231.133225 
L 148.947893 231.133225 
L 148.947893 230.574042 
L 149.800698 230.574042 
L 149.800698 230.01486 
L 150.153631 230.01486 
L 150.153631 228.896496 
L 150.75436 228.896496 
L 150.75436 228.337313 
L 151.198382 228.337313 
L 151.198382 226.659767 
L 151.429688 226.659767 
L 151.429688 226.100584 
L 151.883176 226.100584 
L 151.883176 225.541402 
L 152.183306 225.541402 
L 152.183306 224.98222 
L 152.617602 224.98222 
L 152.617602 224.423038 
L 152.768303 224.423038 
L 152.768303 223.863855 
L 153.016573 223.863855 
L 153.090361 222.186309 
L 153.406502 222.186309 
L 153.406502 221.627126 
L 153.764205 221.627126 
L 153.764205 221.067944 
L 153.881805 221.067944 
L 153.928621 219.94958 
L 154.252814 219.94958 
L 154.344329 217.153669 
L 154.389905 217.153669 
L 154.389905 216.035304 
L 154.571011 216.035304 
L 154.593515 213.798575 
L 154.75023 213.798575 
L 154.794744 211.561846 
L 154.905529 211.561846 
L 155.015605 210.443482 
L 155.081315 210.443482 
L 155.146774 208.765935 
L 155.233668 208.765935 
L 155.320124 207.088388 
L 155.470386 207.088388 
L 155.470386 205.410841 
L 155.724963 205.410841 
L 155.724963 203.733295 
L 155.975829 203.733295 
L 155.99657 201.496566 
L 156.120495 201.496566 
L 156.202619 198.141472 
L 156.263955 198.141472 
L 156.365699 195.904743 
L 156.406229 195.904743 
L 156.487003 194.786379 
L 156.5674 194.786379 
L 156.58744 193.668014 
L 156.727075 193.668014 
L 156.80636 191.431285 
L 156.885282 191.431285 
L 156.983427 185.839463 
L 157.022529 185.839463 
L 157.081016 184.721099 
L 157.216717 184.721099 
L 157.216717 183.602734 
L 157.48495 183.602734 
L 157.560826 181.925187 
L 157.655203 181.925187 
L 157.739702 180.806823 
L 157.823787 180.806823 
L 157.861027 179.129276 
L 157.944524 179.129276 
L 158.009186 176.892547 
L 158.274515 176.892547 
L 158.301731 175.215 
L 158.39214 175.215 
L 158.482077 174.096636 
L 158.571546 174.096636 
L 158.571546 173.537454 
L 158.802012 173.537454 
L 158.837195 171.859907 
L 158.924841 171.859907 
L 158.924841 170.741543 
L 159.0468 170.741543 
L 159.107457 169.623178 
L 159.253883 169.623178 
L 159.339437 167.945631 
L 159.424567 167.945631 
L 159.433057 166.268085 
L 159.677461 166.268085 
L 159.785904 164.590538 
L 159.934936 164.590538 
L 159.976106 163.472173 
L 160.277739 163.472173 
L 160.334215 161.235444 
L 160.398532 161.235444 
L 160.46261 158.998715 
L 160.510512 158.998715 
L 160.518483 157.321169 
L 160.732309 157.321169 
L 160.826496 155.643622 
L 160.97458 155.643622 
L 160.97458 155.08444 
L 161.129092 155.08444 
L 161.175177 153.406893 
L 161.244073 153.406893 
L 161.244073 152.847711 
L 161.365878 152.847711 
L 161.426458 150.610982 
L 161.554488 150.610982 
L 161.61441 148.933435 
L 161.703902 148.933435 
L 161.770717 146.696706 
L 161.822505 146.696706 
L 161.822505 146.137524 
L 161.991578 146.137524 
L 161.991578 145.578342 
L 162.144512 145.578342 
L 162.252923 144.459977 
L 162.317644 144.459977 
L 162.339163 143.341613 
L 162.552891 143.341613 
L 162.644688 141.104884 
L 162.686891 141.104884 
L 162.707954 139.986519 
L 162.826826 139.986519 
L 162.868585 137.190608 
L 162.965632 137.190608 
L 163.0415 134.953879 
L 163.27391 134.953879 
L 163.27391 134.394697 
L 163.563413 134.394697 
L 163.669904 133.276332 
L 163.965923 133.276332 
L 164.069959 132.157968 
L 164.128204 132.157968 
L 164.179812 131.039603 
L 164.288968 131.039603 
L 164.352856 129.362057 
L 164.416507 129.362057 
L 164.492578 128.243692 
L 164.543107 128.243692 
L 164.543107 127.68451 
L 164.675042 127.68451 
L 164.78111 124.329417 
L 164.911239 124.329417 
L 164.972861 122.65187 
L 165.392142 122.65187 
L 165.392142 122.092688 
L 165.583177 122.092688 
L 165.689709 119.855959 
L 165.7074 119.855959 
L 165.754489 118.737594 
L 165.912467 118.737594 
L 166.005403 117.060047 
L 166.126626 117.060047 
L 166.212694 115.382501 
L 166.434475 115.382501 
L 166.451417 114.264136 
L 166.603151 114.264136 
L 166.703569 112.586589 
L 166.720249 112.586589 
L 166.831034 110.349861 
L 166.94111 110.349861 
L 167.050486 108.672314 
L 167.083164 108.672314 
L 167.083164 108.113132 
L 167.240238 108.113132 
L 167.347735 106.994767 
L 167.465211 106.994767 
L 167.518346 105.876403 
L 167.697785 105.876403 
L 167.729257 104.758038 
L 167.922074 104.758038 
L 168.00479 102.521309 
L 168.143478 102.521309 
L 168.240407 100.28458 
L 168.27598 100.28458 
L 168.331733 99.166216 
L 168.387306 99.166216 
L 168.4427 97.488669 
L 168.577916 97.488669 
L 168.577916 96.929487 
L 168.805864 96.929487 
L 168.904038 94.133576 
L 169.059959 94.133576 
L 169.156698 93.015211 
L 169.190428 93.015211 
L 169.296009 91.896847 
L 169.339015 91.896847 
L 169.391433 90.778482 
L 169.571293 90.778482 
L 169.576001 89.660118 
L 169.683927 89.660118 
L 169.791181 88.541753 
L 169.90239 88.541753 
L 169.966931 87.423389 
L 170.054138 87.423389 
L 170.163665 84.627477 
L 170.254408 84.627477 
L 170.344675 82.949931 
L 170.412066 82.949931 
L 170.470259 80.713202 
L 170.920143 80.713202 
L 170.920143 80.15402 
L 171.110636 80.15402 
L 171.162225 78.476473 
L 171.239319 78.476473 
L 171.350072 76.798926 
L 171.409413 76.798926 
L 171.502253 72.88465 
L 171.523284 72.88465 
L 171.615513 70.647921 
L 171.64058 70.647921 
L 171.64058 70.088739 
L 171.926265 70.088739 
L 171.995929 68.970375 
L 172.073456 68.970375 
L 172.138472 67.292828 
L 172.582881 67.292828 
L 172.582881 66.733646 
L 172.740255 66.733646 
L 172.798902 65.056099 
L 173.000675 65.056099 
L 173.089172 63.378552 
L 173.476241 63.378552 
L 173.536175 61.701006 
L 173.799643 61.701006 
L 173.895124 60.023459 
L 173.942666 60.023459 
L 173.942666 59.464277 
L 174.200028 59.464277 
L 174.257497 58.345912 
L 174.485474 58.345912 
L 174.496087 57.227548 
L 174.682505 57.227548 
L 174.787137 56.109183 
L 174.849612 56.109183 
L 174.960121 53.872454 
L 175.004814 53.872454 
L 175.114334 52.75409 
L 175.127975 52.75409 
L 175.127975 52.194907 
L 175.96302 52.194907 
L 175.976005 51.076543 
L 176.204869 51.076543 
L 176.310215 49.398996 
L 176.437048 49.398996 
L 176.487521 48.280632 
L 176.650542 48.280632 
L 176.746998 47.162267 
L 176.790382 47.162267 
L 176.799664 46.043903 
L 176.938302 46.043903 
L 177.011788 44.925538 
L 177.057558 44.925538 
L 177.106245 43.807174 
L 177.185069 43.807174 
L 177.293618 42.129627 
L 177.317647 42.129627 
L 177.317647 41.570445 
L 177.609312 41.570445 
L 177.621113 40.45208 
L 177.91642 40.45208 
L 177.928011 39.333716 
L 178.118154 39.333716 
L 178.118154 38.774534 
L 178.269338 38.774534 
L 178.269338 38.215351 
L 178.615162 38.215351 
L 178.615162 37.656169 
L 178.773094 37.656169 
L 178.773094 37.096987 
L 179.033136 37.096987 
L 179.033136 36.537805 
L 179.414647 36.537805 
L 179.414647 35.978622 
L 179.612785 35.978622 
L 179.612785 35.41944 
L 179.748834 35.41944 
L 179.748834 34.860258 
L 180.570632 34.860258 
L 180.570632 34.301076 
L 180.738751 34.301076 
L 180.738751 33.741894 
L 180.890617 33.741894 
L 180.985464 32.623529 
L 181.139985 32.623529 
L 181.139985 32.064347 
L 182.127794 32.064347 
L 182.143673 30.945982 
L 182.265678 30.945982 
L 182.265678 30.3868 
L 182.418093 30.3868 
L 182.420324 29.268436 
L 182.856527 29.268436 
L 182.856527 28.709253 
L 182.984397 28.709253 
L 182.984397 28.150071 
L 183.616111 28.150071 
L 183.616111 27.590889 
L 183.89483 27.590889 
L 183.89483 27.031707 
L 184.215402 27.031707 
L 184.215402 26.472524 
L 184.387412 26.472524 
L 184.391392 25.35416 
L 184.673591 25.35416 
L 184.673591 24.794978 
L 184.906881 24.794978 
L 184.906881 24.235795 
L 185.035771 24.235795 
L 185.035771 23.676613 
L 185.277467 23.676613 
L 185.318993 22.558249 
L 185.682746 22.558249 
L 185.682746 21.999066 
L 186.049812 21.999066 
L 186.082304 20.880702 
L 186.387962 20.880702 
L 186.387962 20.32152 
L 186.968044 20.32152 
L 187.024479 19.203155 
L 187.287102 19.203155 
L 187.287102 18.643973 
L 187.431105 18.643973 
L 187.431105 18.084791 
L 187.610255 18.084791 
L 187.610255 17.525609 
L 187.769583 17.525609 
L 187.769583 16.966426 
L 187.901509 16.966426 
L 187.901509 16.407244 
L 188.280217 16.407244 
L 188.280217 15.848062 
L 188.395692 15.848062 
L 188.395692 15.28888 
L 189.267147 15.28888 
L 189.267147 14.729697 
L 189.605498 14.729697 
L 189.605498 14.170515 
L 190.196262 14.170515 
L 190.284071 13.052151 
L 192.372714 13.052151 
L 192.372714 12.492968 
L 194.004435 12.492968 
L 194.004435 11.933786 
L 200.117408 11.933786 
L 200.117408 11.374604 
L 203.182419 11.374604 
L 203.182419 10.815422 
L 204.524438 10.815422 
L 204.524438 10.256239 
L 216.002095 10.256239 
L 216.002095 9.697057 
L 333.429677 9.697057 
L 333.429677 9.697057 
" style="fill:none;stroke:#6495ed;stroke-linecap:square;stroke-width:1.5;"/>
   </g>
   <g id="line2d_40">
    <defs>
     <path d="M -0 6 
L 6 -6 
L -6 -6 
z
" id="m5aaf19fce0" style="stroke:#6495ed;stroke-linejoin:miter;stroke-width:1.5;"/>
    </defs>
    <g>
     <use style="fill-opacity:0;stroke:#6495ed;stroke-linejoin:miter;stroke-width:1.5;" x="101.025901" xlink:href="#m5aaf19fce0" y="273.631075"/>
     <use style="fill-opacity:0;stroke:#6495ed;stroke-linejoin:miter;stroke-width:1.5;" x="161.554488" xlink:href="#m5aaf19fce0" y="150.610982"/>
     <use style="fill-opacity:0;stroke:#6495ed;stroke-linejoin:miter;stroke-width:1.5;" x="177.928011" xlink:href="#m5aaf19fce0" y="39.333716"/>
     <use style="fill-opacity:0;stroke:#6495ed;stroke-linejoin:miter;stroke-width:1.5;" x="216.002095" xlink:href="#m5aaf19fce0" y="10.256239"/>
     <use style="fill-opacity:0;stroke:#6495ed;stroke-linejoin:miter;stroke-width:1.5;" x="216.002095" xlink:href="#m5aaf19fce0" y="9.697057"/>
     <use style="fill-opacity:0;stroke:#6495ed;stroke-linejoin:miter;stroke-width:1.5;" x="333.429677" xlink:href="#m5aaf19fce0" y="9.697057"/>
    </g>
   </g>
   <g id="line2d_41">
    <path style="fill:none;stroke:#6495ed;stroke-linecap:square;stroke-width:1.5;"/>
    <g/>
   </g>
   <g id="line2d_42">
    <path clip-path="url(#pf94f0d9cd2)" d="M 134.915747 253.500514 
" style="fill:none;stroke:#6495ed;stroke-linecap:square;stroke-width:1.5;"/>
    <defs>
     <path d="M -12 12 
L 12 -12 
M -12 -12 
L 12 12 
" id="mea658b3c8a" style="stroke:#6495ed;stroke-width:3;"/>
    </defs>
    <g clip-path="url(#pf94f0d9cd2)">
     <use style="fill:#6495ed;stroke:#6495ed;stroke-width:3;" x="134.915747" xlink:href="#mea658b3c8a" y="253.500514"/>
    </g>
   </g>
   <g id="line2d_43">
    <path d="M 333.429677 266.920888 
L 363.933742 289.176341 
" style="fill:none;stroke:#ff00ff;stroke-linecap:square;stroke-width:1.5;"/>
    <g>
     <use style="fill-opacity:0;stroke:#ff00ff;stroke-linejoin:miter;stroke-width:1.5;" x="333.429677" xlink:href="#m4ffad3f047" y="266.920888"/>
     <use style="fill-opacity:0;stroke:#ff00ff;stroke-linejoin:miter;stroke-width:1.5;" x="363.933742" xlink:href="#m4ffad3f047" y="289.176341"/>
    </g>
   </g>
   <g id="line2d_44">
    <path d="M 333.429677 250.145421 
L 363.933742 197.917799 
" style="fill:none;stroke:#000080;stroke-linecap:square;stroke-width:1.5;"/>
    <g>
     <use style="fill-opacity:0;stroke:#000080;stroke-width:1.5;" x="333.429677" xlink:href="#mf5ef20ff86" y="250.145421"/>
     <use style="fill-opacity:0;stroke:#000080;stroke-width:1.5;" x="363.933742" xlink:href="#mf5ef20ff86" y="197.917799"/>
    </g>
   </g>
   <g id="line2d_45">
    <path d="M 333.429677 199.819019 
L 363.933742 106.659258 
" style="fill:none;stroke:#ffa500;stroke-linecap:square;stroke-width:1.5;"/>
    <g>
     <use style="fill-opacity:0;stroke:#ffa500;stroke-linejoin:bevel;stroke-width:1.5;" x="333.429677" xlink:href="#m29f1c893cb" y="199.819019"/>
     <use style="fill-opacity:0;stroke:#ffa500;stroke-linejoin:bevel;stroke-width:1.5;" x="363.933742" xlink:href="#m29f1c893cb" y="106.659258"/>
    </g>
   </g>
   <g id="line2d_46">
    <path d="M 333.429677 9.697057 
L 363.933742 15.400716 
" style="fill:none;stroke:#6495ed;stroke-linecap:square;stroke-width:1.5;"/>
    <g>
     <use style="fill-opacity:0;stroke:#6495ed;stroke-linejoin:miter;stroke-width:1.5;" x="333.429677" xlink:href="#m5aaf19fce0" y="9.697057"/>
     <use style="fill-opacity:0;stroke:#6495ed;stroke-linejoin:miter;stroke-width:1.5;" x="363.933742" xlink:href="#m5aaf19fce0" y="15.400716"/>
    </g>
   </g>
   <g id="line2d_47">
    <path d="M 333.429677 294.88 
L 333.429677 9.697057 
" style="fill:none;stroke:#000000;stroke-linecap:square;stroke-width:1.5;"/>
   </g>
   <g id="patch_3">
    <path d="M 56.12 294.88 
L 56.12 6.845228 
" style="fill:none;stroke:#000000;stroke-linecap:square;stroke-linejoin:miter;stroke-width:0.8;"/>
   </g>
   <g id="patch_4">
    <path d="M 399.984 294.88 
L 399.984 6.845228 
" style="fill:none;stroke:#000000;stroke-linecap:square;stroke-linejoin:miter;stroke-width:0.8;"/>
   </g>
   <g id="patch_5">
    <path d="M 56.12 294.88 
L 399.984 294.88 
" style="fill:none;stroke:#000000;stroke-linecap:square;stroke-linejoin:miter;stroke-width:0.8;"/>
   </g>
   <g id="patch_6">
    <path d="M 56.12 6.845228 
L 399.984 6.845228 
" style="fill:none;stroke:#000000;stroke-linecap:square;stroke-linejoin:miter;stroke-width:0.8;"/>
   </g>
   <g id="text_14">
    <!-- f7 -->
    <defs>
     <path d="M 8.203125 72.90625 
L 55.078125 72.90625 
L 55.078125 68.703125 
L 28.609375 0 
L 18.3125 0 
L 43.21875 64.59375 
L 8.203125 64.59375 
z
" id="DejaVuSans-37"/>
    </defs>
    <g transform="translate(369.479935 293.867279)scale(0.17 -0.17)">
     <use xlink:href="#DejaVuSans-66"/>
     <use x="35.205078" xlink:href="#DejaVuSans-37"/>
    </g>
   </g>
   <g id="text_15">
    <!-- f6 -->
    <g transform="translate(369.479935 202.608737)scale(0.17 -0.17)">
     <use xlink:href="#DejaVuSans-66"/>
     <use x="35.205078" xlink:href="#DejaVuSans-36"/>
    </g>
   </g>
   <g id="text_16">
    <!-- f8 -->
    <g transform="translate(369.479935 111.350195)scale(0.17 -0.17)">
     <use xlink:href="#DejaVuSans-66"/>
     <use x="35.205078" xlink:href="#DejaVuSans-38"/>
    </g>
   </g>
   <g id="text_17">
    <!-- f9 -->
    <defs>
     <path d="M 10.984375 1.515625 
L 10.984375 10.5 
Q 14.703125 8.734375 18.5 7.8125 
Q 22.3125 6.890625 25.984375 6.890625 
Q 35.75 6.890625 40.890625 13.453125 
Q 46.046875 20.015625 46.78125 33.40625 
Q 43.953125 29.203125 39.59375 26.953125 
Q 35.25 24.703125 29.984375 24.703125 
Q 19.046875 24.703125 12.671875 31.3125 
Q 6.296875 37.9375 6.296875 49.421875 
Q 6.296875 60.640625 12.9375 67.421875 
Q 19.578125 74.21875 30.609375 74.21875 
Q 43.265625 74.21875 49.921875 64.515625 
Q 56.59375 54.828125 56.59375 36.375 
Q 56.59375 19.140625 48.40625 8.859375 
Q 40.234375 -1.421875 26.421875 -1.421875 
Q 22.703125 -1.421875 18.890625 -0.6875 
Q 15.09375 0.046875 10.984375 1.515625 
z
M 30.609375 32.421875 
Q 37.25 32.421875 41.125 36.953125 
Q 45.015625 41.5 45.015625 49.421875 
Q 45.015625 57.28125 41.125 61.84375 
Q 37.25 66.40625 30.609375 66.40625 
Q 23.96875 66.40625 20.09375 61.84375 
Q 16.21875 57.28125 16.21875 49.421875 
Q 16.21875 41.5 20.09375 36.953125 
Q 23.96875 32.421875 30.609375 32.421875 
z
" id="DejaVuSans-39"/>
    </defs>
    <g transform="translate(369.479935 20.091654)scale(0.17 -0.17)">
     <use xlink:href="#DejaVuSans-66"/>
     <use x="35.205078" xlink:href="#DejaVuSans-39"/>
    </g>
   </g>
   <g id="text_18">
    <!-- bbob -->
    <defs>
     <path d="M 48.6875 27.296875 
Q 48.6875 37.203125 44.609375 42.84375 
Q 40.53125 48.484375 33.40625 48.484375 
Q 26.265625 48.484375 22.1875 42.84375 
Q 18.109375 37.203125 18.109375 27.296875 
Q 18.109375 17.390625 22.1875 11.75 
Q 26.265625 6.109375 33.40625 6.109375 
Q 40.53125 6.109375 44.609375 11.75 
Q 48.6875 17.390625 48.6875 27.296875 
z
M 18.109375 46.390625 
Q 20.953125 51.265625 25.265625 53.625 
Q 29.59375 56 35.59375 56 
Q 45.5625 56 51.78125 48.09375 
Q 58.015625 40.1875 58.015625 27.296875 
Q 58.015625 14.40625 51.78125 6.484375 
Q 45.5625 -1.421875 35.59375 -1.421875 
Q 29.59375 -1.421875 25.265625 0.953125 
Q 20.953125 3.328125 18.109375 8.203125 
L 18.109375 0 
L 9.078125 0 
L 9.078125 75.984375 
L 18.109375 75.984375 
z
" id="DejaVuSans-62"/>
    </defs>
    <g transform="translate(59.55864 17.475982)scale(0.102 -0.102)">
     <use xlink:href="#DejaVuSans-62"/>
     <use x="63.476562" xlink:href="#DejaVuSans-62"/>
     <use x="126.953125" xlink:href="#DejaVuSans-6f"/>
     <use x="188.134766" xlink:href="#DejaVuSans-62"/>
    </g>
    <!-- Misc. moderate functions, 5-D -->
    <defs>
     <path d="M 9.8125 72.90625 
L 24.515625 72.90625 
L 43.109375 23.296875 
L 61.8125 72.90625 
L 76.515625 72.90625 
L 76.515625 0 
L 66.890625 0 
L 66.890625 64.015625 
L 48.09375 14.015625 
L 38.1875 14.015625 
L 19.390625 64.015625 
L 19.390625 0 
L 9.8125 0 
z
" id="DejaVuSans-4d"/>
     <path d="M 10.796875 72.90625 
L 49.515625 72.90625 
L 49.515625 64.59375 
L 19.828125 64.59375 
L 19.828125 46.734375 
Q 21.96875 47.46875 24.109375 47.828125 
Q 26.265625 48.1875 28.421875 48.1875 
Q 40.625 48.1875 47.75 41.5 
Q 54.890625 34.8125 54.890625 23.390625 
Q 54.890625 11.625 47.5625 5.09375 
Q 40.234375 -1.421875 26.90625 -1.421875 
Q 22.3125 -1.421875 17.546875 -0.640625 
Q 12.796875 0.140625 7.71875 1.703125 
L 7.71875 11.625 
Q 12.109375 9.234375 16.796875 8.0625 
Q 21.484375 6.890625 26.703125 6.890625 
Q 35.15625 6.890625 40.078125 11.328125 
Q 45.015625 15.765625 45.015625 23.390625 
Q 45.015625 31 40.078125 35.4375 
Q 35.15625 39.890625 26.703125 39.890625 
Q 22.75 39.890625 18.8125 39.015625 
Q 14.890625 38.140625 10.796875 36.28125 
z
" id="DejaVuSans-35"/>
     <path d="M 19.671875 64.796875 
L 19.671875 8.109375 
L 31.59375 8.109375 
Q 46.6875 8.109375 53.6875 14.9375 
Q 60.6875 21.78125 60.6875 36.53125 
Q 60.6875 51.171875 53.6875 57.984375 
Q 46.6875 64.796875 31.59375 64.796875 
z
M 9.8125 72.90625 
L 30.078125 72.90625 
Q 51.265625 72.90625 61.171875 64.09375 
Q 71.09375 55.28125 71.09375 36.53125 
Q 71.09375 17.671875 61.125 8.828125 
Q 51.171875 0 30.078125 0 
L 9.8125 0 
z
" id="DejaVuSans-44"/>
    </defs>
    <g transform="translate(59.55864 28.89775)scale(0.102 -0.102)">
     <use xlink:href="#DejaVuSans-4d"/>
     <use x="86.279297" xlink:href="#DejaVuSans-69"/>
     <use x="114.0625" xlink:href="#DejaVuSans-73"/>
     <use x="166.162109" xlink:href="#DejaVuSans-63"/>
     <use x="221.142578" xlink:href="#DejaVuSans-2e"/>
     <use x="252.929688" xlink:href="#DejaVuSans-20"/>
     <use x="284.716797" xlink:href="#DejaVuSans-6d"/>
     <use x="382.128906" xlink:href="#DejaVuSans-6f"/>
     <use x="443.310547" xlink:href="#DejaVuSans-64"/>
     <use x="506.787109" xlink:href="#DejaVuSans-65"/>
     <use x="568.310547" xlink:href="#DejaVuSans-72"/>
     <use x="609.423828" xlink:href="#DejaVuSans-61"/>
     <use x="670.703125" xlink:href="#DejaVuSans-74"/>
     <use x="709.912109" xlink:href="#DejaVuSans-65"/>
     <use x="771.435547" xlink:href="#DejaVuSans-20"/>
     <use x="803.222656" xlink:href="#DejaVuSans-66"/>
     <use x="838.427734" xlink:href="#DejaVuSans-75"/>
     <use x="901.806641" xlink:href="#DejaVuSans-6e"/>
     <use x="965.185547" xlink:href="#DejaVuSans-63"/>
     <use x="1020.166016" xlink:href="#DejaVuSans-74"/>
     <use x="1059.375" xlink:href="#DejaVuSans-69"/>
     <use x="1087.158203" xlink:href="#DejaVuSans-6f"/>
     <use x="1148.339844" xlink:href="#DejaVuSans-6e"/>
     <use x="1211.71875" xlink:href="#DejaVuSans-73"/>
     <use x="1263.818359" xlink:href="#DejaVuSans-2c"/>
     <use x="1295.605469" xlink:href="#DejaVuSans-20"/>
     <use x="1327.392578" xlink:href="#DejaVuSans-35"/>
     <use x="1391.015625" xlink:href="#DejaVuSans-2d"/>
     <use x="1427.099609" xlink:href="#DejaVuSans-44"/>
    </g>
    <!-- 51 targets: 100..1e-08 -->
    <defs>
     <path d="M 11.71875 12.40625 
L 22.015625 12.40625 
L 22.015625 0 
L 11.71875 0 
z
M 11.71875 51.703125 
L 22.015625 51.703125 
L 22.015625 39.3125 
L 11.71875 39.3125 
z
" id="DejaVuSans-3a"/>
    </defs>
    <g transform="translate(59.55864 40.319519)scale(0.102 -0.102)">
     <use xlink:href="#DejaVuSans-35"/>
     <use x="63.623047" xlink:href="#DejaVuSans-31"/>
     <use x="127.246094" xlink:href="#DejaVuSans-20"/>
     <use x="159.033203" xlink:href="#DejaVuSans-74"/>
     <use x="198.242188" xlink:href="#DejaVuSans-61"/>
     <use x="259.521484" xlink:href="#DejaVuSans-72"/>
     <use x="300.619141" xlink:href="#DejaVuSans-67"/>
     <use x="364.095703" xlink:href="#DejaVuSans-65"/>
     <use x="425.619141" xlink:href="#DejaVuSans-74"/>
     <use x="464.828125" xlink:href="#DejaVuSans-73"/>
     <use x="516.927734" xlink:href="#DejaVuSans-3a"/>
     <use x="550.619141" xlink:href="#DejaVuSans-20"/>
     <use x="582.40625" xlink:href="#DejaVuSans-31"/>
     <use x="646.029297" xlink:href="#DejaVuSans-30"/>
     <use x="709.652344" xlink:href="#DejaVuSans-30"/>
     <use x="773.275391" xlink:href="#DejaVuSans-2e"/>
     <use x="805.0625" xlink:href="#DejaVuSans-2e"/>
     <use x="836.849609" xlink:href="#DejaVuSans-31"/>
     <use x="900.472656" xlink:href="#DejaVuSans-65"/>
     <use x="961.996094" xlink:href="#DejaVuSans-2d"/>
     <use x="998.080078" xlink:href="#DejaVuSans-30"/>
     <use x="1061.703125" xlink:href="#DejaVuSans-38"/>
    </g>
    <!-- 15 instances -->
    <g transform="translate(59.55864 51.741288)scale(0.102 -0.102)">
     <use xlink:href="#DejaVuSans-31"/>
     <use x="63.623047" xlink:href="#DejaVuSans-35"/>
     <use x="127.246094" xlink:href="#DejaVuSans-20"/>
     <use x="159.033203" xlink:href="#DejaVuSans-69"/>
     <use x="186.816406" xlink:href="#DejaVuSans-6e"/>
     <use x="250.195312" xlink:href="#DejaVuSans-73"/>
     <use x="302.294922" xlink:href="#DejaVuSans-74"/>
     <use x="341.503906" xlink:href="#DejaVuSans-61"/>
     <use x="402.783203" xlink:href="#DejaVuSans-6e"/>
     <use x="466.162109" xlink:href="#DejaVuSans-63"/>
     <use x="521.142578" xlink:href="#DejaVuSans-65"/>
     <use x="582.666016" xlink:href="#DejaVuSans-73"/>
    </g>
   </g>
   <g id="text_19">
    <!-- v2.2.1.10 -->
    <g style="fill:#808080;" transform="translate(204.419188 289.919965)scale(0.1 -0.1)">
     <use xlink:href="#DejaVuSans-76"/>
     <use x="59.179688" xlink:href="#DejaVuSans-32"/>
     <use x="122.802734" xlink:href="#DejaVuSans-2e"/>
     <use x="154.589844" xlink:href="#DejaVuSans-32"/>
     <use x="218.212891" xlink:href="#DejaVuSans-2e"/>
     <use x="250" xlink:href="#DejaVuSans-31"/>
     <use x="313.623047" xlink:href="#DejaVuSans-2e"/>
     <use x="345.410156" xlink:href="#DejaVuSans-31"/>
     <use x="409.033203" xlink:href="#DejaVuSans-30"/>
    </g>
   </g>
  </g>
 </g>
 <defs>
  <clipPath id="pf94f0d9cd2">
   <rect height="288.034772" width="343.864" x="56.12" y="6.845228"/>
  </clipPath>
 </defs>
</svg>
