<?xml version="1.0" encoding="utf-8" standalone="no"?>
<!DOCTYPE svg PUBLIC "-//W3C//DTD SVG 1.1//EN"
  "http://www.w3.org/Graphics/SVG/1.1/DTD/svg11.dtd">
<!-- Created with matplotlib (http://matplotlib.org/) -->
<svg height="345.6pt" version="1.1" viewBox="0 0 460.8 345.6" width="460.8pt" xmlns="http://www.w3.org/2000/svg" xmlns:xlink="http://www.w3.org/1999/xlink">
 <defs>
  <style type="text/css">
*{stroke-linecap:butt;stroke-linejoin:round;}
  </style>
 </defs>
 <g id="figure_1">
  <g id="patch_1">
   <path d="M 0 345.6 
L 460.8 345.6 
L 460.8 0 
L 0 0 
z
" style="fill:#ffffff;"/>
  </g>
  <g id="axes_1">
   <g id="patch_2">
    <path d="M 56.12 294.88 
L 399.984 294.88 
L 399.984 24.84 
L 56.12 24.84 
z
" style="fill:#ffffff;"/>
   </g>
   <g id="matplotlib.axis_1">
    <g id="xtick_1">
     <g id="line2d_1">
      <path clip-path="url(#p694832947e)" d="M 56.12 294.88 
L 56.12 24.84 
" style="fill:none;stroke:#b0b0b0;stroke-linecap:square;stroke-width:0.8;"/>
     </g>
     <g id="line2d_2">
      <defs>
       <path d="M 0 0 
L 0 3.5 
" id="m85045d1ad7" style="stroke:#000000;stroke-width:0.8;"/>
      </defs>
      <g>
       <use style="stroke:#000000;stroke-width:0.8;" x="56.12" xlink:href="#m85045d1ad7" y="294.88"/>
      </g>
     </g>
     <g id="text_1">
      <!-- 0 -->
      <defs>
       <path d="M 31.78125 66.40625 
Q 24.171875 66.40625 20.328125 58.90625 
Q 16.5 51.421875 16.5 36.375 
Q 16.5 21.390625 20.328125 13.890625 
Q 24.171875 6.390625 31.78125 6.390625 
Q 39.453125 6.390625 43.28125 13.890625 
Q 47.125 21.390625 47.125 36.375 
Q 47.125 51.421875 43.28125 58.90625 
Q 39.453125 66.40625 31.78125 66.40625 
z
M 31.78125 74.21875 
Q 44.046875 74.21875 50.515625 64.515625 
Q 56.984375 54.828125 56.984375 36.375 
Q 56.984375 17.96875 50.515625 8.265625 
Q 44.046875 -1.421875 31.78125 -1.421875 
Q 19.53125 -1.421875 13.0625 8.265625 
Q 6.59375 17.96875 6.59375 36.375 
Q 6.59375 54.828125 13.0625 64.515625 
Q 19.53125 74.21875 31.78125 74.21875 
z
" id="DejaVuSans-30"/>
      </defs>
      <g transform="translate(49.7575 317.076875)scale(0.2 -0.2)">
       <use xlink:href="#DejaVuSans-30"/>
      </g>
     </g>
    </g>
    <g id="xtick_2">
     <g id="line2d_3">
      <path clip-path="url(#p694832947e)" d="M 135.351336 294.88 
L 135.351336 24.84 
" style="fill:none;stroke:#b0b0b0;stroke-linecap:square;stroke-width:0.8;"/>
     </g>
     <g id="line2d_4">
      <g>
       <use style="stroke:#000000;stroke-width:0.8;" x="135.351336" xlink:href="#m85045d1ad7" y="294.88"/>
      </g>
     </g>
     <g id="text_2">
      <!-- 2 -->
      <defs>
       <path d="M 19.1875 8.296875 
L 53.609375 8.296875 
L 53.609375 0 
L 7.328125 0 
L 7.328125 8.296875 
Q 12.9375 14.109375 22.625 23.890625 
Q 32.328125 33.6875 34.8125 36.53125 
Q 39.546875 41.84375 41.421875 45.53125 
Q 43.3125 49.21875 43.3125 52.78125 
Q 43.3125 58.59375 39.234375 62.25 
Q 35.15625 65.921875 28.609375 65.921875 
Q 23.96875 65.921875 18.8125 64.3125 
Q 13.671875 62.703125 7.8125 59.421875 
L 7.8125 69.390625 
Q 13.765625 71.78125 18.9375 73 
Q 24.125 74.21875 28.421875 74.21875 
Q 39.75 74.21875 46.484375 68.546875 
Q 53.21875 62.890625 53.21875 53.421875 
Q 53.21875 48.921875 51.53125 44.890625 
Q 49.859375 40.875 45.40625 35.40625 
Q 44.1875 33.984375 37.640625 27.21875 
Q 31.109375 20.453125 19.1875 8.296875 
z
" id="DejaVuSans-32"/>
      </defs>
      <g transform="translate(128.988836 317.076875)scale(0.2 -0.2)">
       <use xlink:href="#DejaVuSans-32"/>
      </g>
     </g>
    </g>
    <g id="xtick_3">
     <g id="line2d_5">
      <path clip-path="url(#p694832947e)" d="M 214.582673 294.88 
L 214.582673 24.84 
" style="fill:none;stroke:#b0b0b0;stroke-linecap:square;stroke-width:0.8;"/>
     </g>
     <g id="line2d_6">
      <g>
       <use style="stroke:#000000;stroke-width:0.8;" x="214.582673" xlink:href="#m85045d1ad7" y="294.88"/>
      </g>
     </g>
     <g id="text_3">
      <!-- 4 -->
      <defs>
       <path d="M 37.796875 64.3125 
L 12.890625 25.390625 
L 37.796875 25.390625 
z
M 35.203125 72.90625 
L 47.609375 72.90625 
L 47.609375 25.390625 
L 58.015625 25.390625 
L 58.015625 17.1875 
L 47.609375 17.1875 
L 47.609375 0 
L 37.796875 0 
L 37.796875 17.1875 
L 4.890625 17.1875 
L 4.890625 26.703125 
z
" id="DejaVuSans-34"/>
      </defs>
      <g transform="translate(208.220173 317.076875)scale(0.2 -0.2)">
       <use xlink:href="#DejaVuSans-34"/>
      </g>
     </g>
    </g>
    <g id="xtick_4">
     <g id="line2d_7">
      <path clip-path="url(#p694832947e)" d="M 293.814009 294.88 
L 293.814009 24.84 
" style="fill:none;stroke:#b0b0b0;stroke-linecap:square;stroke-width:0.8;"/>
     </g>
     <g id="line2d_8">
      <g>
       <use style="stroke:#000000;stroke-width:0.8;" x="293.814009" xlink:href="#m85045d1ad7" y="294.88"/>
      </g>
     </g>
     <g id="text_4">
      <!-- 6 -->
      <defs>
       <path d="M 33.015625 40.375 
Q 26.375 40.375 22.484375 35.828125 
Q 18.609375 31.296875 18.609375 23.390625 
Q 18.609375 15.53125 22.484375 10.953125 
Q 26.375 6.390625 33.015625 6.390625 
Q 39.65625 6.390625 43.53125 10.953125 
Q 47.40625 15.53125 47.40625 23.390625 
Q 47.40625 31.296875 43.53125 35.828125 
Q 39.65625 40.375 33.015625 40.375 
z
M 52.59375 71.296875 
L 52.59375 62.3125 
Q 48.875 64.0625 45.09375 64.984375 
Q 41.3125 65.921875 37.59375 65.921875 
Q 27.828125 65.921875 22.671875 59.328125 
Q 17.53125 52.734375 16.796875 39.40625 
Q 19.671875 43.65625 24.015625 45.921875 
Q 28.375 48.1875 33.59375 48.1875 
Q 44.578125 48.1875 50.953125 41.515625 
Q 57.328125 34.859375 57.328125 23.390625 
Q 57.328125 12.15625 50.6875 5.359375 
Q 44.046875 -1.421875 33.015625 -1.421875 
Q 20.359375 -1.421875 13.671875 8.265625 
Q 6.984375 17.96875 6.984375 36.375 
Q 6.984375 53.65625 15.1875 63.9375 
Q 23.390625 74.21875 37.203125 74.21875 
Q 40.921875 74.21875 44.703125 73.484375 
Q 48.484375 72.75 52.59375 71.296875 
z
" id="DejaVuSans-36"/>
      </defs>
      <g transform="translate(287.451509 317.076875)scale(0.2 -0.2)">
       <use xlink:href="#DejaVuSans-36"/>
      </g>
     </g>
    </g>
    <g id="xtick_5">
     <g id="line2d_9">
      <path clip-path="url(#p694832947e)" d="M 373.045346 294.88 
L 373.045346 24.84 
" style="fill:none;stroke:#b0b0b0;stroke-linecap:square;stroke-width:0.8;"/>
     </g>
     <g id="line2d_10">
      <g>
       <use style="stroke:#000000;stroke-width:0.8;" x="373.045346" xlink:href="#m85045d1ad7" y="294.88"/>
      </g>
     </g>
     <g id="text_5">
      <!-- 8 -->
      <defs>
       <path d="M 31.78125 34.625 
Q 24.75 34.625 20.71875 30.859375 
Q 16.703125 27.09375 16.703125 20.515625 
Q 16.703125 13.921875 20.71875 10.15625 
Q 24.75 6.390625 31.78125 6.390625 
Q 38.8125 6.390625 42.859375 10.171875 
Q 46.921875 13.96875 46.921875 20.515625 
Q 46.921875 27.09375 42.890625 30.859375 
Q 38.875 34.625 31.78125 34.625 
z
M 21.921875 38.8125 
Q 15.578125 40.375 12.03125 44.71875 
Q 8.5 49.078125 8.5 55.328125 
Q 8.5 64.0625 14.71875 69.140625 
Q 20.953125 74.21875 31.78125 74.21875 
Q 42.671875 74.21875 48.875 69.140625 
Q 55.078125 64.0625 55.078125 55.328125 
Q 55.078125 49.078125 51.53125 44.71875 
Q 48 40.375 41.703125 38.8125 
Q 48.828125 37.15625 52.796875 32.3125 
Q 56.78125 27.484375 56.78125 20.515625 
Q 56.78125 9.90625 50.3125 4.234375 
Q 43.84375 -1.421875 31.78125 -1.421875 
Q 19.734375 -1.421875 13.25 4.234375 
Q 6.78125 9.90625 6.78125 20.515625 
Q 6.78125 27.484375 10.78125 32.3125 
Q 14.796875 37.15625 21.921875 38.8125 
z
M 18.3125 54.390625 
Q 18.3125 48.734375 21.84375 45.5625 
Q 25.390625 42.390625 31.78125 42.390625 
Q 38.140625 42.390625 41.71875 45.5625 
Q 45.3125 48.734375 45.3125 54.390625 
Q 45.3125 60.0625 41.71875 63.234375 
Q 38.140625 66.40625 31.78125 66.40625 
Q 25.390625 66.40625 21.84375 63.234375 
Q 18.3125 60.0625 18.3125 54.390625 
z
" id="DejaVuSans-38"/>
      </defs>
      <g transform="translate(366.682846 317.076875)scale(0.2 -0.2)">
       <use xlink:href="#DejaVuSans-38"/>
      </g>
     </g>
    </g>
    <g id="text_6">
     <!-- log10(# f-evals / dimension) -->
     <defs>
      <path d="M 9.421875 75.984375 
L 18.40625 75.984375 
L 18.40625 0 
L 9.421875 0 
z
" id="DejaVuSans-6c"/>
      <path d="M 30.609375 48.390625 
Q 23.390625 48.390625 19.1875 42.75 
Q 14.984375 37.109375 14.984375 27.296875 
Q 14.984375 17.484375 19.15625 11.84375 
Q 23.34375 6.203125 30.609375 6.203125 
Q 37.796875 6.203125 41.984375 11.859375 
Q 46.1875 17.53125 46.1875 27.296875 
Q 46.1875 37.015625 41.984375 42.703125 
Q 37.796875 48.390625 30.609375 48.390625 
z
M 30.609375 56 
Q 42.328125 56 49.015625 48.375 
Q 55.71875 40.765625 55.71875 27.296875 
Q 55.71875 13.875 49.015625 6.21875 
Q 42.328125 -1.421875 30.609375 -1.421875 
Q 18.84375 -1.421875 12.171875 6.21875 
Q 5.515625 13.875 5.515625 27.296875 
Q 5.515625 40.765625 12.171875 48.375 
Q 18.84375 56 30.609375 56 
z
" id="DejaVuSans-6f"/>
      <path d="M 45.40625 27.984375 
Q 45.40625 37.75 41.375 43.109375 
Q 37.359375 48.484375 30.078125 48.484375 
Q 22.859375 48.484375 18.828125 43.109375 
Q 14.796875 37.75 14.796875 27.984375 
Q 14.796875 18.265625 18.828125 12.890625 
Q 22.859375 7.515625 30.078125 7.515625 
Q 37.359375 7.515625 41.375 12.890625 
Q 45.40625 18.265625 45.40625 27.984375 
z
M 54.390625 6.78125 
Q 54.390625 -7.171875 48.1875 -13.984375 
Q 42 -20.796875 29.203125 -20.796875 
Q 24.46875 -20.796875 20.265625 -20.09375 
Q 16.0625 -19.390625 12.109375 -17.921875 
L 12.109375 -9.1875 
Q 16.0625 -11.328125 19.921875 -12.34375 
Q 23.78125 -13.375 27.78125 -13.375 
Q 36.625 -13.375 41.015625 -8.765625 
Q 45.40625 -4.15625 45.40625 5.171875 
L 45.40625 9.625 
Q 42.625 4.78125 38.28125 2.390625 
Q 33.9375 0 27.875 0 
Q 17.828125 0 11.671875 7.65625 
Q 5.515625 15.328125 5.515625 27.984375 
Q 5.515625 40.671875 11.671875 48.328125 
Q 17.828125 56 27.875 56 
Q 33.9375 56 38.28125 53.609375 
Q 42.625 51.21875 45.40625 46.390625 
L 45.40625 54.6875 
L 54.390625 54.6875 
z
" id="DejaVuSans-67"/>
      <path d="M 12.40625 8.296875 
L 28.515625 8.296875 
L 28.515625 63.921875 
L 10.984375 60.40625 
L 10.984375 69.390625 
L 28.421875 72.90625 
L 38.28125 72.90625 
L 38.28125 8.296875 
L 54.390625 8.296875 
L 54.390625 0 
L 12.40625 0 
z
" id="DejaVuSans-31"/>
      <path d="M 31 75.875 
Q 24.46875 64.65625 21.28125 53.65625 
Q 18.109375 42.671875 18.109375 31.390625 
Q 18.109375 20.125 21.3125 9.0625 
Q 24.515625 -2 31 -13.1875 
L 23.1875 -13.1875 
Q 15.875 -1.703125 12.234375 9.375 
Q 8.59375 20.453125 8.59375 31.390625 
Q 8.59375 42.28125 12.203125 53.3125 
Q 15.828125 64.359375 23.1875 75.875 
z
" id="DejaVuSans-28"/>
      <path d="M 51.125 44 
L 36.921875 44 
L 32.8125 27.6875 
L 47.125 27.6875 
z
M 43.796875 71.78125 
L 38.71875 51.515625 
L 52.984375 51.515625 
L 58.109375 71.78125 
L 65.921875 71.78125 
L 60.890625 51.515625 
L 76.125 51.515625 
L 76.125 44 
L 58.984375 44 
L 54.984375 27.6875 
L 70.515625 27.6875 
L 70.515625 20.21875 
L 53.078125 20.21875 
L 48 0 
L 40.1875 0 
L 45.21875 20.21875 
L 30.90625 20.21875 
L 25.875 0 
L 18.015625 0 
L 23.09375 20.21875 
L 7.71875 20.21875 
L 7.71875 27.6875 
L 24.90625 27.6875 
L 29 44 
L 13.28125 44 
L 13.28125 51.515625 
L 30.90625 51.515625 
L 35.890625 71.78125 
z
" id="DejaVuSans-23"/>
      <path id="DejaVuSans-20"/>
      <path d="M 37.109375 75.984375 
L 37.109375 68.5 
L 28.515625 68.5 
Q 23.6875 68.5 21.796875 66.546875 
Q 19.921875 64.59375 19.921875 59.515625 
L 19.921875 54.6875 
L 34.71875 54.6875 
L 34.71875 47.703125 
L 19.921875 47.703125 
L 19.921875 0 
L 10.890625 0 
L 10.890625 47.703125 
L 2.296875 47.703125 
L 2.296875 54.6875 
L 10.890625 54.6875 
L 10.890625 58.5 
Q 10.890625 67.625 15.140625 71.796875 
Q 19.390625 75.984375 28.609375 75.984375 
z
" id="DejaVuSans-66"/>
      <path d="M 4.890625 31.390625 
L 31.203125 31.390625 
L 31.203125 23.390625 
L 4.890625 23.390625 
z
" id="DejaVuSans-2d"/>
      <path d="M 56.203125 29.59375 
L 56.203125 25.203125 
L 14.890625 25.203125 
Q 15.484375 15.921875 20.484375 11.0625 
Q 25.484375 6.203125 34.421875 6.203125 
Q 39.59375 6.203125 44.453125 7.46875 
Q 49.3125 8.734375 54.109375 11.28125 
L 54.109375 2.78125 
Q 49.265625 0.734375 44.1875 -0.34375 
Q 39.109375 -1.421875 33.890625 -1.421875 
Q 20.796875 -1.421875 13.15625 6.1875 
Q 5.515625 13.8125 5.515625 26.8125 
Q 5.515625 40.234375 12.765625 48.109375 
Q 20.015625 56 32.328125 56 
Q 43.359375 56 49.78125 48.890625 
Q 56.203125 41.796875 56.203125 29.59375 
z
M 47.21875 32.234375 
Q 47.125 39.59375 43.09375 43.984375 
Q 39.0625 48.390625 32.421875 48.390625 
Q 24.90625 48.390625 20.390625 44.140625 
Q 15.875 39.890625 15.1875 32.171875 
z
" id="DejaVuSans-65"/>
      <path d="M 2.984375 54.6875 
L 12.5 54.6875 
L 29.59375 8.796875 
L 46.6875 54.6875 
L 56.203125 54.6875 
L 35.6875 0 
L 23.484375 0 
z
" id="DejaVuSans-76"/>
      <path d="M 34.28125 27.484375 
Q 23.390625 27.484375 19.1875 25 
Q 14.984375 22.515625 14.984375 16.5 
Q 14.984375 11.71875 18.140625 8.90625 
Q 21.296875 6.109375 26.703125 6.109375 
Q 34.1875 6.109375 38.703125 11.40625 
Q 43.21875 16.703125 43.21875 25.484375 
L 43.21875 27.484375 
z
M 52.203125 31.203125 
L 52.203125 0 
L 43.21875 0 
L 43.21875 8.296875 
Q 40.140625 3.328125 35.546875 0.953125 
Q 30.953125 -1.421875 24.3125 -1.421875 
Q 15.921875 -1.421875 10.953125 3.296875 
Q 6 8.015625 6 15.921875 
Q 6 25.140625 12.171875 29.828125 
Q 18.359375 34.515625 30.609375 34.515625 
L 43.21875 34.515625 
L 43.21875 35.40625 
Q 43.21875 41.609375 39.140625 45 
Q 35.0625 48.390625 27.6875 48.390625 
Q 23 48.390625 18.546875 47.265625 
Q 14.109375 46.140625 10.015625 43.890625 
L 10.015625 52.203125 
Q 14.9375 54.109375 19.578125 55.046875 
Q 24.21875 56 28.609375 56 
Q 40.484375 56 46.34375 49.84375 
Q 52.203125 43.703125 52.203125 31.203125 
z
" id="DejaVuSans-61"/>
      <path d="M 44.28125 53.078125 
L 44.28125 44.578125 
Q 40.484375 46.53125 36.375 47.5 
Q 32.28125 48.484375 27.875 48.484375 
Q 21.1875 48.484375 17.84375 46.4375 
Q 14.5 44.390625 14.5 40.28125 
Q 14.5 37.15625 16.890625 35.375 
Q 19.28125 33.59375 26.515625 31.984375 
L 29.59375 31.296875 
Q 39.15625 29.25 43.1875 25.515625 
Q 47.21875 21.78125 47.21875 15.09375 
Q 47.21875 7.46875 41.1875 3.015625 
Q 35.15625 -1.421875 24.609375 -1.421875 
Q 20.21875 -1.421875 15.453125 -0.5625 
Q 10.6875 0.296875 5.421875 2 
L 5.421875 11.28125 
Q 10.40625 8.6875 15.234375 7.390625 
Q 20.0625 6.109375 24.8125 6.109375 
Q 31.15625 6.109375 34.5625 8.28125 
Q 37.984375 10.453125 37.984375 14.40625 
Q 37.984375 18.0625 35.515625 20.015625 
Q 33.0625 21.96875 24.703125 23.78125 
L 21.578125 24.515625 
Q 13.234375 26.265625 9.515625 29.90625 
Q 5.8125 33.546875 5.8125 39.890625 
Q 5.8125 47.609375 11.28125 51.796875 
Q 16.75 56 26.8125 56 
Q 31.78125 56 36.171875 55.265625 
Q 40.578125 54.546875 44.28125 53.078125 
z
" id="DejaVuSans-73"/>
      <path d="M 25.390625 72.90625 
L 33.6875 72.90625 
L 8.296875 -9.28125 
L 0 -9.28125 
z
" id="DejaVuSans-2f"/>
      <path d="M 45.40625 46.390625 
L 45.40625 75.984375 
L 54.390625 75.984375 
L 54.390625 0 
L 45.40625 0 
L 45.40625 8.203125 
Q 42.578125 3.328125 38.25 0.953125 
Q 33.9375 -1.421875 27.875 -1.421875 
Q 17.96875 -1.421875 11.734375 6.484375 
Q 5.515625 14.40625 5.515625 27.296875 
Q 5.515625 40.1875 11.734375 48.09375 
Q 17.96875 56 27.875 56 
Q 33.9375 56 38.25 53.625 
Q 42.578125 51.265625 45.40625 46.390625 
z
M 14.796875 27.296875 
Q 14.796875 17.390625 18.875 11.75 
Q 22.953125 6.109375 30.078125 6.109375 
Q 37.203125 6.109375 41.296875 11.75 
Q 45.40625 17.390625 45.40625 27.296875 
Q 45.40625 37.203125 41.296875 42.84375 
Q 37.203125 48.484375 30.078125 48.484375 
Q 22.953125 48.484375 18.875 42.84375 
Q 14.796875 37.203125 14.796875 27.296875 
z
" id="DejaVuSans-64"/>
      <path d="M 9.421875 54.6875 
L 18.40625 54.6875 
L 18.40625 0 
L 9.421875 0 
z
M 9.421875 75.984375 
L 18.40625 75.984375 
L 18.40625 64.59375 
L 9.421875 64.59375 
z
" id="DejaVuSans-69"/>
      <path d="M 52 44.1875 
Q 55.375 50.25 60.0625 53.125 
Q 64.75 56 71.09375 56 
Q 79.640625 56 84.28125 50.015625 
Q 88.921875 44.046875 88.921875 33.015625 
L 88.921875 0 
L 79.890625 0 
L 79.890625 32.71875 
Q 79.890625 40.578125 77.09375 44.375 
Q 74.3125 48.1875 68.609375 48.1875 
Q 61.625 48.1875 57.5625 43.546875 
Q 53.515625 38.921875 53.515625 30.90625 
L 53.515625 0 
L 44.484375 0 
L 44.484375 32.71875 
Q 44.484375 40.625 41.703125 44.40625 
Q 38.921875 48.1875 33.109375 48.1875 
Q 26.21875 48.1875 22.15625 43.53125 
Q 18.109375 38.875 18.109375 30.90625 
L 18.109375 0 
L 9.078125 0 
L 9.078125 54.6875 
L 18.109375 54.6875 
L 18.109375 46.1875 
Q 21.1875 51.21875 25.484375 53.609375 
Q 29.78125 56 35.6875 56 
Q 41.65625 56 45.828125 52.96875 
Q 50 49.953125 52 44.1875 
z
" id="DejaVuSans-6d"/>
      <path d="M 54.890625 33.015625 
L 54.890625 0 
L 45.90625 0 
L 45.90625 32.71875 
Q 45.90625 40.484375 42.875 44.328125 
Q 39.84375 48.1875 33.796875 48.1875 
Q 26.515625 48.1875 22.3125 43.546875 
Q 18.109375 38.921875 18.109375 30.90625 
L 18.109375 0 
L 9.078125 0 
L 9.078125 54.6875 
L 18.109375 54.6875 
L 18.109375 46.1875 
Q 21.34375 51.125 25.703125 53.5625 
Q 30.078125 56 35.796875 56 
Q 45.21875 56 50.046875 50.171875 
Q 54.890625 44.34375 54.890625 33.015625 
z
" id="DejaVuSans-6e"/>
      <path d="M 8.015625 75.875 
L 15.828125 75.875 
Q 23.140625 64.359375 26.78125 53.3125 
Q 30.421875 42.28125 30.421875 31.390625 
Q 30.421875 20.453125 26.78125 9.375 
Q 23.140625 -1.703125 15.828125 -13.1875 
L 8.015625 -13.1875 
Q 14.5 -2 17.703125 9.0625 
Q 20.90625 20.125 20.90625 31.390625 
Q 20.90625 42.671875 17.703125 53.65625 
Q 14.5 64.65625 8.015625 75.875 
z
" id="DejaVuSans-29"/>
     </defs>
     <g transform="translate(107.211219 338.153594)scale(0.17 -0.17)">
      <use xlink:href="#DejaVuSans-6c"/>
      <use x="27.783203" xlink:href="#DejaVuSans-6f"/>
      <use x="88.964844" xlink:href="#DejaVuSans-67"/>
      <use x="152.441406" xlink:href="#DejaVuSans-31"/>
      <use x="216.064453" xlink:href="#DejaVuSans-30"/>
      <use x="279.6875" xlink:href="#DejaVuSans-28"/>
      <use x="318.701172" xlink:href="#DejaVuSans-23"/>
      <use x="402.490234" xlink:href="#DejaVuSans-20"/>
      <use x="434.277344" xlink:href="#DejaVuSans-66"/>
      <use x="469.404297" xlink:href="#DejaVuSans-2d"/>
      <use x="505.488281" xlink:href="#DejaVuSans-65"/>
      <use x="567.011719" xlink:href="#DejaVuSans-76"/>
      <use x="626.191406" xlink:href="#DejaVuSans-61"/>
      <use x="687.470703" xlink:href="#DejaVuSans-6c"/>
      <use x="715.253906" xlink:href="#DejaVuSans-73"/>
      <use x="767.353516" xlink:href="#DejaVuSans-20"/>
      <use x="799.140625" xlink:href="#DejaVuSans-2f"/>
      <use x="832.832031" xlink:href="#DejaVuSans-20"/>
      <use x="864.619141" xlink:href="#DejaVuSans-64"/>
      <use x="928.095703" xlink:href="#DejaVuSans-69"/>
      <use x="955.878906" xlink:href="#DejaVuSans-6d"/>
      <use x="1053.291016" xlink:href="#DejaVuSans-65"/>
      <use x="1114.814453" xlink:href="#DejaVuSans-6e"/>
      <use x="1178.193359" xlink:href="#DejaVuSans-73"/>
      <use x="1230.292969" xlink:href="#DejaVuSans-69"/>
      <use x="1258.076172" xlink:href="#DejaVuSans-6f"/>
      <use x="1319.257812" xlink:href="#DejaVuSans-6e"/>
      <use x="1382.636719" xlink:href="#DejaVuSans-29"/>
     </g>
    </g>
   </g>
   <g id="matplotlib.axis_2">
    <g id="ytick_1">
     <g id="line2d_11">
      <path clip-path="url(#p694832947e)" d="M 56.12 294.88 
L 399.984 294.88 
" style="fill:none;stroke:#b0b0b0;stroke-linecap:square;stroke-width:0.8;"/>
     </g>
     <g id="line2d_12">
      <defs>
       <path d="M 0 0 
L -3.5 0 
" id="m48a6faf9c9" style="stroke:#000000;stroke-width:0.8;"/>
      </defs>
      <g>
       <use style="stroke:#000000;stroke-width:0.8;" x="56.12" xlink:href="#m48a6faf9c9" y="294.88"/>
      </g>
     </g>
     <g id="text_7">
      <!-- 0.0 -->
      <defs>
       <path d="M 10.6875 12.40625 
L 21 12.40625 
L 21 0 
L 10.6875 0 
z
" id="DejaVuSans-2e"/>
      </defs>
      <g transform="translate(23.675 300.95875)scale(0.16 -0.16)">
       <use xlink:href="#DejaVuSans-30"/>
       <use x="63.623047" xlink:href="#DejaVuSans-2e"/>
       <use x="95.410156" xlink:href="#DejaVuSans-30"/>
      </g>
     </g>
    </g>
    <g id="ytick_2">
     <g id="line2d_13">
      <path clip-path="url(#p694832947e)" d="M 56.12 241.406733 
L 399.984 241.406733 
" style="fill:none;stroke:#b0b0b0;stroke-linecap:square;stroke-width:0.8;"/>
     </g>
     <g id="line2d_14">
      <g>
       <use style="stroke:#000000;stroke-width:0.8;" x="56.12" xlink:href="#m48a6faf9c9" y="241.406733"/>
      </g>
     </g>
     <g id="text_8">
      <!-- 0.2 -->
      <g transform="translate(23.675 247.485483)scale(0.16 -0.16)">
       <use xlink:href="#DejaVuSans-30"/>
       <use x="63.623047" xlink:href="#DejaVuSans-2e"/>
       <use x="95.410156" xlink:href="#DejaVuSans-32"/>
      </g>
     </g>
    </g>
    <g id="ytick_3">
     <g id="line2d_15">
      <path clip-path="url(#p694832947e)" d="M 56.12 187.933465 
L 399.984 187.933465 
" style="fill:none;stroke:#b0b0b0;stroke-linecap:square;stroke-width:0.8;"/>
     </g>
     <g id="line2d_16">
      <g>
       <use style="stroke:#000000;stroke-width:0.8;" x="56.12" xlink:href="#m48a6faf9c9" y="187.933465"/>
      </g>
     </g>
     <g id="text_9">
      <!-- 0.4 -->
      <g transform="translate(23.675 194.012215)scale(0.16 -0.16)">
       <use xlink:href="#DejaVuSans-30"/>
       <use x="63.623047" xlink:href="#DejaVuSans-2e"/>
       <use x="95.410156" xlink:href="#DejaVuSans-34"/>
      </g>
     </g>
    </g>
    <g id="ytick_4">
     <g id="line2d_17">
      <path clip-path="url(#p694832947e)" d="M 56.12 134.460198 
L 399.984 134.460198 
" style="fill:none;stroke:#b0b0b0;stroke-linecap:square;stroke-width:0.8;"/>
     </g>
     <g id="line2d_18">
      <g>
       <use style="stroke:#000000;stroke-width:0.8;" x="56.12" xlink:href="#m48a6faf9c9" y="134.460198"/>
      </g>
     </g>
     <g id="text_10">
      <!-- 0.6 -->
      <g transform="translate(23.675 140.538948)scale(0.16 -0.16)">
       <use xlink:href="#DejaVuSans-30"/>
       <use x="63.623047" xlink:href="#DejaVuSans-2e"/>
       <use x="95.410156" xlink:href="#DejaVuSans-36"/>
      </g>
     </g>
    </g>
    <g id="ytick_5">
     <g id="line2d_19">
      <path clip-path="url(#p694832947e)" d="M 56.12 80.986931 
L 399.984 80.986931 
" style="fill:none;stroke:#b0b0b0;stroke-linecap:square;stroke-width:0.8;"/>
     </g>
     <g id="line2d_20">
      <g>
       <use style="stroke:#000000;stroke-width:0.8;" x="56.12" xlink:href="#m48a6faf9c9" y="80.986931"/>
      </g>
     </g>
     <g id="text_11">
      <!-- 0.8 -->
      <g transform="translate(23.675 87.065681)scale(0.16 -0.16)">
       <use xlink:href="#DejaVuSans-30"/>
       <use x="63.623047" xlink:href="#DejaVuSans-2e"/>
       <use x="95.410156" xlink:href="#DejaVuSans-38"/>
      </g>
     </g>
    </g>
    <g id="ytick_6">
     <g id="line2d_21">
      <path clip-path="url(#p694832947e)" d="M 56.12 27.513663 
L 399.984 27.513663 
" style="fill:none;stroke:#b0b0b0;stroke-linecap:square;stroke-width:0.8;"/>
     </g>
     <g id="line2d_22">
      <g>
       <use style="stroke:#000000;stroke-width:0.8;" x="56.12" xlink:href="#m48a6faf9c9" y="27.513663"/>
      </g>
     </g>
     <g id="text_12">
      <!-- 1.0 -->
      <g transform="translate(23.675 33.592413)scale(0.16 -0.16)">
       <use xlink:href="#DejaVuSans-31"/>
       <use x="63.623047" xlink:href="#DejaVuSans-2e"/>
       <use x="95.410156" xlink:href="#DejaVuSans-30"/>
      </g>
     </g>
    </g>
    <g id="text_13">
     <!-- Fraction of function,target pairs -->
     <defs>
      <path d="M 9.8125 72.90625 
L 51.703125 72.90625 
L 51.703125 64.59375 
L 19.671875 64.59375 
L 19.671875 43.109375 
L 48.578125 43.109375 
L 48.578125 34.8125 
L 19.671875 34.8125 
L 19.671875 0 
L 9.8125 0 
z
" id="DejaVuSans-46"/>
      <path d="M 41.109375 46.296875 
Q 39.59375 47.171875 37.8125 47.578125 
Q 36.03125 48 33.890625 48 
Q 26.265625 48 22.1875 43.046875 
Q 18.109375 38.09375 18.109375 28.8125 
L 18.109375 0 
L 9.078125 0 
L 9.078125 54.6875 
L 18.109375 54.6875 
L 18.109375 46.1875 
Q 20.953125 51.171875 25.484375 53.578125 
Q 30.03125 56 36.53125 56 
Q 37.453125 56 38.578125 55.875 
Q 39.703125 55.765625 41.0625 55.515625 
z
" id="DejaVuSans-72"/>
      <path d="M 48.78125 52.59375 
L 48.78125 44.1875 
Q 44.96875 46.296875 41.140625 47.34375 
Q 37.3125 48.390625 33.40625 48.390625 
Q 24.65625 48.390625 19.8125 42.84375 
Q 14.984375 37.3125 14.984375 27.296875 
Q 14.984375 17.28125 19.8125 11.734375 
Q 24.65625 6.203125 33.40625 6.203125 
Q 37.3125 6.203125 41.140625 7.25 
Q 44.96875 8.296875 48.78125 10.40625 
L 48.78125 2.09375 
Q 45.015625 0.34375 40.984375 -0.53125 
Q 36.96875 -1.421875 32.421875 -1.421875 
Q 20.0625 -1.421875 12.78125 6.34375 
Q 5.515625 14.109375 5.515625 27.296875 
Q 5.515625 40.671875 12.859375 48.328125 
Q 20.21875 56 33.015625 56 
Q 37.15625 56 41.109375 55.140625 
Q 45.0625 54.296875 48.78125 52.59375 
z
" id="DejaVuSans-63"/>
      <path d="M 18.3125 70.21875 
L 18.3125 54.6875 
L 36.8125 54.6875 
L 36.8125 47.703125 
L 18.3125 47.703125 
L 18.3125 18.015625 
Q 18.3125 11.328125 20.140625 9.421875 
Q 21.96875 7.515625 27.59375 7.515625 
L 36.8125 7.515625 
L 36.8125 0 
L 27.59375 0 
Q 17.1875 0 13.234375 3.875 
Q 9.28125 7.765625 9.28125 18.015625 
L 9.28125 47.703125 
L 2.6875 47.703125 
L 2.6875 54.6875 
L 9.28125 54.6875 
L 9.28125 70.21875 
z
" id="DejaVuSans-74"/>
      <path d="M 8.5 21.578125 
L 8.5 54.6875 
L 17.484375 54.6875 
L 17.484375 21.921875 
Q 17.484375 14.15625 20.5 10.265625 
Q 23.53125 6.390625 29.59375 6.390625 
Q 36.859375 6.390625 41.078125 11.03125 
Q 45.3125 15.671875 45.3125 23.6875 
L 45.3125 54.6875 
L 54.296875 54.6875 
L 54.296875 0 
L 45.3125 0 
L 45.3125 8.40625 
Q 42.046875 3.421875 37.71875 1 
Q 33.40625 -1.421875 27.6875 -1.421875 
Q 18.265625 -1.421875 13.375 4.4375 
Q 8.5 10.296875 8.5 21.578125 
z
M 31.109375 56 
z
" id="DejaVuSans-75"/>
      <path d="M 11.71875 12.40625 
L 22.015625 12.40625 
L 22.015625 4 
L 14.015625 -11.625 
L 7.71875 -11.625 
L 11.71875 4 
z
" id="DejaVuSans-2c"/>
      <path d="M 18.109375 8.203125 
L 18.109375 -20.796875 
L 9.078125 -20.796875 
L 9.078125 54.6875 
L 18.109375 54.6875 
L 18.109375 46.390625 
Q 20.953125 51.265625 25.265625 53.625 
Q 29.59375 56 35.59375 56 
Q 45.5625 56 51.78125 48.09375 
Q 58.015625 40.1875 58.015625 27.296875 
Q 58.015625 14.40625 51.78125 6.484375 
Q 45.5625 -1.421875 35.59375 -1.421875 
Q 29.59375 -1.421875 25.265625 0.953125 
Q 20.953125 3.328125 18.109375 8.203125 
z
M 48.6875 27.296875 
Q 48.6875 37.203125 44.609375 42.84375 
Q 40.53125 48.484375 33.40625 48.484375 
Q 26.265625 48.484375 22.1875 42.84375 
Q 18.109375 37.203125 18.109375 27.296875 
Q 18.109375 17.390625 22.1875 11.75 
Q 26.265625 6.109375 33.40625 6.109375 
Q 40.53125 6.109375 44.609375 11.75 
Q 48.6875 17.390625 48.6875 27.296875 
z
" id="DejaVuSans-70"/>
     </defs>
     <g transform="translate(16.139531 294.999375)rotate(-90)scale(0.17 -0.17)">
      <use xlink:href="#DejaVuSans-46"/>
      <use x="57.410156" xlink:href="#DejaVuSans-72"/>
      <use x="98.523438" xlink:href="#DejaVuSans-61"/>
      <use x="159.802734" xlink:href="#DejaVuSans-63"/>
      <use x="214.783203" xlink:href="#DejaVuSans-74"/>
      <use x="253.992188" xlink:href="#DejaVuSans-69"/>
      <use x="281.775391" xlink:href="#DejaVuSans-6f"/>
      <use x="342.957031" xlink:href="#DejaVuSans-6e"/>
      <use x="406.335938" xlink:href="#DejaVuSans-20"/>
      <use x="438.123047" xlink:href="#DejaVuSans-6f"/>
      <use x="499.304688" xlink:href="#DejaVuSans-66"/>
      <use x="534.509766" xlink:href="#DejaVuSans-20"/>
      <use x="566.296875" xlink:href="#DejaVuSans-66"/>
      <use x="601.501953" xlink:href="#DejaVuSans-75"/>
      <use x="664.880859" xlink:href="#DejaVuSans-6e"/>
      <use x="728.259766" xlink:href="#DejaVuSans-63"/>
      <use x="783.240234" xlink:href="#DejaVuSans-74"/>
      <use x="822.449219" xlink:href="#DejaVuSans-69"/>
      <use x="850.232422" xlink:href="#DejaVuSans-6f"/>
      <use x="911.414062" xlink:href="#DejaVuSans-6e"/>
      <use x="974.792969" xlink:href="#DejaVuSans-2c"/>
      <use x="1006.580078" xlink:href="#DejaVuSans-74"/>
      <use x="1045.789062" xlink:href="#DejaVuSans-61"/>
      <use x="1107.068359" xlink:href="#DejaVuSans-72"/>
      <use x="1148.166016" xlink:href="#DejaVuSans-67"/>
      <use x="1211.642578" xlink:href="#DejaVuSans-65"/>
      <use x="1273.166016" xlink:href="#DejaVuSans-74"/>
      <use x="1312.375" xlink:href="#DejaVuSans-20"/>
      <use x="1344.162109" xlink:href="#DejaVuSans-70"/>
      <use x="1407.638672" xlink:href="#DejaVuSans-61"/>
      <use x="1468.917969" xlink:href="#DejaVuSans-69"/>
      <use x="1496.701172" xlink:href="#DejaVuSans-72"/>
      <use x="1537.814453" xlink:href="#DejaVuSans-73"/>
     </g>
    </g>
   </g>
   <g id="line2d_23">
    <defs>
     <path d="M 0 1.5 
C 0.397805 1.5 0.77937 1.341951 1.06066 1.06066 
C 1.341951 0.77937 1.5 0.397805 1.5 0 
C 1.5 -0.397805 1.341951 -0.77937 1.06066 -1.06066 
C 0.77937 -1.341951 0.397805 -1.5 0 -1.5 
C -0.397805 -1.5 -0.77937 -1.341951 -1.06066 -1.06066 
C -1.341951 -0.77937 -1.5 -0.397805 -1.5 0 
C -1.5 0.397805 -1.341951 0.77937 -1.06066 1.06066 
C -0.77937 1.341951 -0.397805 1.5 0 1.5 
z
" id="mb9ed8c2f7b" style="stroke:#00bfbf;"/>
    </defs>
    <g>
     <use style="fill:#00bfbf;stroke:#00bfbf;" x="181.413018" xlink:href="#mb9ed8c2f7b" y="27.513663"/>
     <use style="fill:#00bfbf;stroke:#00bfbf;" x="181.413018" xlink:href="#mb9ed8c2f7b" y="27.513663"/>
    </g>
   </g>
   <g id="line2d_24">
    <path d="M 56.12 294.88 
L 56.12 273.385844 
L 86.946982 273.385844 
L 86.946982 272.861596 
L 105.848459 272.861596 
L 105.848459 272.337348 
L 108.500601 272.337348 
L 108.500601 271.8131 
L 109.300972 271.8131 
L 109.300972 270.764605 
L 111.500328 270.764605 
L 111.500328 270.240357 
L 112.824432 270.240357 
L 112.824432 268.143366 
L 113.450132 268.143366 
L 113.450132 267.619119 
L 114.053874 267.619119 
L 114.053874 266.046375 
L 115.20129 266.046375 
L 115.20129 265.522128 
L 115.747522 265.522128 
L 115.747522 262.900889 
L 116.276944 262.900889 
L 116.276944 262.376641 
L 116.790561 262.376641 
L 116.790561 261.328146 
L 117.773963 261.328146 
L 117.773963 260.803898 
L 118.245359 260.803898 
L 118.245359 259.231155 
L 119.151088 259.231155 
L 119.151088 258.18266 
L 119.586677 258.18266 
L 119.586677 256.085669 
L 122.361274 256.085669 
L 122.361274 255.561421 
L 125.979378 255.561421 
L 125.979378 254.512926 
L 126.273486 254.512926 
L 126.273486 253.988678 
L 126.56265 253.988678 
L 126.56265 248.746201 
L 126.847034 248.746201 
L 126.847034 247.697705 
L 129.214792 247.697705 
L 129.214792 246.64921 
L 129.699468 246.64921 
L 129.699468 245.600714 
L 129.93678 245.600714 
L 129.93678 241.93098 
L 130.629687 241.93098 
L 130.629687 241.406733 
L 131.076592 241.406733 
L 131.076592 240.358237 
L 131.295765 240.358237 
L 131.295765 239.83399 
L 131.512181 239.83399 
L 131.512181 234.591512 
L 131.937015 234.591512 
L 131.937015 234.067265 
L 132.145561 234.067265 
L 132.145561 231.446026 
L 132.35161 231.446026 
L 132.35161 229.873283 
L 133.15198 229.873283 
L 133.15198 226.727797 
L 133.538623 226.727797 
L 133.538623 224.630806 
L 133.728734 224.630806 
L 133.728734 222.533815 
L 133.916767 222.533815 
L 133.916767 219.388328 
L 134.378051 219.388328 
L 134.378051 218.864081 
L 134.648999 218.864081 
L 134.648999 216.242842 
L 135.003752 216.242842 
L 135.003752 214.670099 
L 135.522531 214.670099 
L 135.522531 214.145851 
L 135.692038 214.145851 
L 135.692038 210.476117 
L 136.026124 210.476117 
L 136.026124 205.757888 
L 136.190765 205.757888 
L 136.190765 205.23364 
L 136.675441 205.23364 
L 136.754909 204.185145 
L 136.834012 204.185145 
L 136.834012 203.136649 
L 136.991135 203.136649 
L 136.991135 202.612401 
L 137.146836 202.612401 
L 137.146836 201.563906 
L 137.454074 201.563906 
L 137.454074 200.515411 
L 137.60566 200.515411 
L 137.60566 199.991163 
L 138.052565 199.991163 
L 138.052565 198.942667 
L 138.19899 198.942667 
L 138.19899 196.845677 
L 138.34418 196.845677 
L 138.34418 196.321429 
L 138.488154 196.321429 
L 138.488154 192.651695 
L 138.630934 192.651695 
L 138.630934 191.603199 
L 138.772539 191.603199 
L 138.772539 190.030456 
L 138.912987 190.030456 
L 138.912987 188.981961 
L 139.052299 188.981961 
L 139.052299 187.933465 
L 139.327583 187.933465 
L 139.395721 183.215236 
L 139.798978 183.215236 
L 139.865278 181.642493 
L 140.322361 181.642493 
L 140.386678 179.021254 
L 140.514596 179.021254 
L 140.5782 177.972759 
L 140.704707 177.972759 
L 140.767613 176.924263 
L 141.07874 176.924263 
L 141.07874 175.875768 
L 141.444815 175.875768 
L 141.444815 175.35152 
L 141.565129 175.35152 
L 141.565129 174.303025 
L 141.744038 174.303025 
L 141.744038 173.778777 
L 142.038145 173.778777 
L 142.096368 170.109043 
L 142.269864 170.109043 
L 142.269864 169.060547 
L 142.498503 169.060547 
L 142.498503 168.012052 
L 142.668011 168.012052 
L 142.668011 167.487804 
L 142.891454 167.487804 
L 143.002096 164.866566 
L 143.057152 164.866566 
L 143.166738 163.293823 
L 143.329818 163.293823 
L 143.383837 162.245327 
L 143.544882 162.245327 
L 143.59823 159.624089 
L 143.704433 159.624089 
L 143.704433 159.099841 
L 143.914893 159.099841 
L 143.914893 158.051345 
L 144.122809 158.051345 
L 144.225833 157.00285 
L 144.37922 157.00285 
L 144.37922 155.430107 
L 144.581633 155.430107 
L 144.681953 153.857364 
L 144.930224 153.857364 
L 144.979451 152.808868 
L 145.126293 152.808868 
L 145.223496 148.614886 
L 145.271892 148.614886 
L 145.368278 147.042143 
L 145.416269 147.042143 
L 145.511852 145.993648 
L 145.606907 145.993648 
L 145.606907 145.4694 
L 145.748512 145.4694 
L 145.795455 143.896657 
L 145.98196 143.896657 
L 146.074459 140.751171 
L 146.303556 140.751171 
L 146.394347 139.178427 
L 146.66388 139.178427 
L 146.752794 137.605684 
L 146.97309 137.605684 
L 146.97309 136.557189 
L 147.147318 136.557189 
L 147.233775 133.93595 
L 147.276841 133.93595 
L 147.276841 133.411703 
L 147.575322 133.411703 
L 147.65966 131.838959 
L 147.701674 131.838959 
L 147.785396 128.693473 
L 147.868713 128.693473 
L 147.868713 128.169225 
L 147.992936 128.169225 
L 148.075256 127.12073 
L 148.440899 127.12073 
L 148.440899 126.596482 
L 148.600945 126.596482 
L 148.600945 126.072235 
L 148.759517 126.072235 
L 148.759517 125.023739 
L 148.91664 125.023739 
L 148.91664 124.499491 
L 149.033548 124.499491 
L 149.111047 123.450996 
L 149.188199 123.450996 
L 149.188199 122.926748 
L 149.303282 122.926748 
L 149.379579 121.878253 
L 149.417601 121.878253 
L 149.417601 120.829757 
L 149.718788 120.829757 
L 149.718788 120.30551 
L 149.830387 120.30551 
L 149.867427 118.732766 
L 150.160907 118.732766 
L 150.269684 117.160023 
L 150.305791 117.160023 
L 150.341822 116.111528 
L 150.627387 116.111528 
L 150.733263 114.538785 
L 150.803487 114.538785 
L 150.803487 114.014537 
L 151.081552 114.014537 
L 151.081552 112.966042 
L 151.28719 112.966042 
L 151.321225 111.393298 
L 151.591111 111.393298 
L 151.591111 110.869051 
L 151.724483 110.869051 
L 151.790783 109.820555 
L 152.215616 109.820555 
L 152.215616 109.296308 
L 152.344251 109.296308 
L 152.344251 108.77206 
L 152.471932 108.77206 
L 152.535418 107.723564 
L 152.630211 107.723564 
L 152.724485 105.626573 
L 153.03505 105.626573 
L 153.065801 104.05383 
L 153.218734 104.05383 
L 153.218734 103.529583 
L 153.340109 103.529583 
L 153.340109 102.481087 
L 153.490634 102.481087 
L 153.58032 100.908344 
L 153.758303 100.908344 
L 153.817224 99.859849 
L 153.875944 99.859849 
L 153.875944 99.335601 
L 154.021872 99.335601 
L 154.108839 97.762858 
L 154.224115 97.762858 
L 154.310068 96.190115 
L 154.424008 96.190115 
L 154.50897 94.617371 
L 154.844686 94.617371 
L 154.927601 93.044628 
L 155.010118 93.044628 
L 155.010118 92.520381 
L 155.173975 92.520381 
L 155.173975 91.996133 
L 155.336287 91.996133 
L 155.44365 90.42339 
L 155.470386 90.42339 
L 155.470386 89.899142 
L 155.682795 89.899142 
L 155.761776 88.326399 
L 155.840397 88.326399 
L 155.918661 86.753656 
L 155.970639 86.753656 
L 155.99657 85.70516 
L 156.279255 85.70516 
L 156.279255 85.180912 
L 156.431512 85.180912 
L 156.431512 84.656665 
L 156.557371 84.656665 
L 156.557371 84.132417 
L 156.732041 84.132417 
L 156.732041 83.608169 
L 156.904956 83.608169 
L 156.978533 82.559674 
L 157.100467 82.559674 
L 157.173215 81.511178 
L 157.245657 81.511178 
L 157.269737 80.462683 
L 157.579743 80.462683 
L 157.674016 79.414188 
L 157.814465 79.414188 
L 157.884262 78.365692 
L 157.999964 78.365692 
L 158.046028 76.268701 
L 158.251803 76.268701 
L 158.251803 75.744454 
L 158.410165 75.744454 
L 158.410165 74.695958 
L 158.589384 74.695958 
L 158.633899 73.647463 
L 158.832801 73.647463 
L 158.942317 72.598967 
L 159.007694 72.598967 
L 159.094477 71.026224 
L 159.245304 71.026224 
L 159.3309 69.977729 
L 159.416073 69.977729 
L 159.500826 68.929233 
L 159.627178 68.929233 
L 159.7109 67.880738 
L 159.95965 67.880738 
L 160.062243 66.832242 
L 160.123507 66.832242 
L 160.204854 65.259499 
L 160.366403 65.259499 
L 160.446613 63.686756 
L 160.586085 63.686756 
L 160.586085 62.638261 
L 160.783391 62.638261 
L 160.822582 61.589765 
L 160.900697 61.589765 
L 160.900697 61.065517 
L 161.094448 61.065517 
L 161.190511 59.492774 
L 161.305083 59.492774 
L 161.343105 58.444279 
L 161.681572 58.444279 
L 161.681572 57.920031 
L 161.921945 57.920031 
L 161.921945 57.395783 
L 162.231295 57.395783 
L 162.285314 56.347288 
L 162.67635 56.347288 
L 162.693915 55.298792 
L 162.81637 55.298792 
L 162.81637 54.774545 
L 163.12731 54.774545 
L 163.12731 54.250297 
L 163.48311 54.250297 
L 163.48311 53.726049 
L 163.749342 53.726049 
L 163.749342 53.201802 
L 164.237687 53.201802 
L 164.333714 52.153306 
L 164.429209 52.153306 
L 164.429209 51.629058 
L 165.037328 51.629058 
L 165.098501 50.580563 
L 165.34104 50.580563 
L 165.34104 50.056315 
L 165.46104 50.056315 
L 165.535617 49.00782 
L 165.595046 49.00782 
L 165.595046 48.483572 
L 165.903728 48.483572 
L 165.91829 47.435077 
L 166.476799 47.435077 
L 166.53307 46.386581 
L 166.853105 46.386581 
L 166.853105 45.338086 
L 167.528953 45.338086 
L 167.528953 44.813838 
L 167.700409 44.813838 
L 167.778971 43.765343 
L 167.883164 43.765343 
L 167.98673 42.716847 
L 168.293739 42.716847 
L 168.293739 42.192599 
L 168.432642 42.192599 
L 168.457777 40.619856 
L 169.646464 40.619856 
L 169.716641 39.571361 
L 169.786532 39.571361 
L 169.867714 37.998618 
L 170.005999 37.998618 
L 170.005999 37.47437 
L 170.470259 37.47437 
L 170.470259 36.950122 
L 170.922319 36.950122 
L 170.922319 36.425875 
L 171.235045 36.425875 
L 171.235045 35.901627 
L 171.362805 35.901627 
L 171.394597 34.853131 
L 173.068051 34.853131 
L 173.068051 34.328884 
L 173.401028 34.328884 
L 173.401028 33.804636 
L 173.634984 33.804636 
L 173.634984 33.280388 
L 174.048251 33.280388 
L 174.102611 32.231893 
L 174.228787 32.231893 
L 174.228787 31.707645 
L 174.889408 31.707645 
L 174.889408 31.183397 
L 176.338834 31.183397 
L 176.338834 30.65915 
L 176.777998 30.65915 
L 176.777998 30.134902 
L 178.146781 30.134902 
L 178.146781 29.610654 
L 178.984166 29.610654 
L 178.984166 29.086407 
L 179.447829 29.086407 
L 179.447829 28.562159 
L 179.963785 28.562159 
L 179.963785 28.037911 
L 181.413018 28.037911 
L 181.413018 27.513663 
L 333.429677 27.513663 
L 333.429677 27.513663 
" style="fill:none;stroke:#00bfbf;stroke-linecap:square;stroke-width:1.5;"/>
   </g>
   <g id="line2d_25">
    <defs>
     <path d="M -6 0 
L 6 0 
M 0 6 
L 0 -6 
" id="m09e6bee095" style="stroke:#00bfbf;stroke-width:1.5;"/>
    </defs>
    <g>
     <use style="fill-opacity:0;stroke:#00bfbf;stroke-width:1.5;" x="126.273486" xlink:href="#m09e6bee095" y="253.988678"/>
     <use style="fill-opacity:0;stroke:#00bfbf;stroke-width:1.5;" x="147.743586" xlink:href="#m09e6bee095" y="130.266216"/>
     <use style="fill-opacity:0;stroke:#00bfbf;stroke-width:1.5;" x="181.413018" xlink:href="#m09e6bee095" y="28.037911"/>
     <use style="fill-opacity:0;stroke:#00bfbf;stroke-width:1.5;" x="181.413018" xlink:href="#m09e6bee095" y="27.513663"/>
     <use style="fill-opacity:0;stroke:#00bfbf;stroke-width:1.5;" x="333.429677" xlink:href="#m09e6bee095" y="27.513663"/>
    </g>
   </g>
   <g id="line2d_26">
    <path style="fill:none;stroke:#00bfbf;stroke-linecap:square;stroke-width:1.5;"/>
    <g/>
   </g>
   <g id="line2d_27">
    <path clip-path="url(#p694832947e)" d="M 129.93678 241.93098 
" style="fill:none;stroke:#00bfbf;stroke-linecap:square;stroke-width:1.5;"/>
    <defs>
     <path d="M -12 12 
L 12 -12 
M -12 -12 
L 12 12 
" id="m948f6287e5" style="stroke:#00bfbf;stroke-width:3;"/>
    </defs>
    <g clip-path="url(#p694832947e)">
     <use style="fill:#00bfbf;stroke:#00bfbf;stroke-width:3;" x="129.93678" xlink:href="#m948f6287e5" y="241.93098"/>
    </g>
   </g>
   <g id="line2d_28">
    <defs>
     <path d="M 0 1.5 
C 0.397805 1.5 0.77937 1.341951 1.06066 1.06066 
C 1.341951 0.77937 1.5 0.397805 1.5 0 
C 1.5 -0.397805 1.341951 -0.77937 1.06066 -1.06066 
C 0.77937 -1.341951 0.397805 -1.5 0 -1.5 
C -0.397805 -1.5 -0.77937 -1.341951 -1.06066 -1.06066 
C -1.341951 -0.77937 -1.5 -0.397805 -1.5 0 
C -1.5 0.397805 -1.341951 0.77937 -1.06066 1.06066 
C -0.77937 1.341951 -0.397805 1.5 0 1.5 
z
" id="m27e1ea3b54" style="stroke:#008000;"/>
    </defs>
    <g>
     <use style="fill:#008000;stroke:#008000;" x="187.083565" xlink:href="#m27e1ea3b54" y="27.513663"/>
     <use style="fill:#008000;stroke:#008000;" x="187.083565" xlink:href="#m27e1ea3b54" y="27.513663"/>
    </g>
   </g>
   <g id="line2d_29">
    <path d="M 49.144027 294.88 
L 49.144027 285.967789 
L 107.661173 285.967789 
L 107.661173 285.443541 
L 108.225317 285.443541 
L 108.225317 284.919293 
L 109.300972 284.919293 
L 109.300972 284.395046 
L 111.72821 284.395046 
L 111.72821 283.34655 
L 112.175115 283.34655 
L 112.175115 282.298055 
L 112.610704 282.298055 
L 112.610704 279.152568 
L 113.035537 279.152568 
L 113.035537 278.104073 
L 113.450132 278.104073 
L 113.450132 277.055578 
L 113.854971 277.055578 
L 113.854971 276.007082 
L 114.250503 276.007082 
L 114.250503 273.910091 
L 114.637146 273.910091 
L 114.637146 272.861596 
L 115.01529 272.861596 
L 115.01529 271.8131 
L 116.449859 271.8131 
L 116.449859 270.764605 
L 120.150822 270.764605 
L 120.150822 270.240357 
L 124.100619 270.240357 
L 124.100619 269.716109 
L 124.961042 269.716109 
L 124.961042 268.667614 
L 125.780476 268.667614 
L 125.780476 260.279651 
L 126.940794 260.279651 
L 126.940794 259.755403 
L 127.492869 259.755403 
L 127.492869 259.231155 
L 128.027779 259.231155 
L 128.027779 258.18266 
L 128.375364 258.18266 
L 128.375364 257.658412 
L 128.883919 257.658412 
L 128.883919 257.134164 
L 129.050151 257.134164 
L 129.050151 256.609917 
L 129.539422 256.609917 
L 129.539422 256.085669 
L 129.699468 256.085669 
L 129.699468 255.037173 
L 130.015162 255.037173 
L 130.015162 253.988678 
L 131.796566 253.988678 
L 131.796566 252.940182 
L 131.937015 252.940182 
L 131.937015 252.415935 
L 132.214518 252.415935 
L 132.214518 251.367439 
L 132.487617 251.367439 
L 132.487617 250.843192 
L 132.756449 250.843192 
L 132.756449 248.746201 
L 133.021144 248.746201 
L 133.021144 247.697705 
L 133.538623 247.697705 
L 133.538623 246.64921 
L 133.79164 246.64921 
L 133.79164 246.124962 
L 133.916767 246.124962 
L 133.916767 243.503724 
L 134.529104 243.503724 
L 134.529104 242.979476 
L 134.886312 242.979476 
L 134.886312 242.455228 
L 135.236253 242.455228 
L 135.236253 241.93098 
L 135.804122 241.93098 
L 135.804122 241.406733 
L 136.353845 241.406733 
L 136.353845 240.882485 
L 136.886546 240.882485 
L 136.886546 240.358237 
L 137.095092 240.358237 
L 137.095092 239.83399 
L 137.805719 239.83399 
L 137.805719 239.309742 
L 140.599349 239.309742 
L 140.599349 238.785494 
L 141.181211 238.785494 
L 141.181211 238.261246 
L 141.303377 238.261246 
L 141.384341 237.212751 
L 141.5851 237.212751 
L 141.5851 236.688503 
L 142.018694 236.688503 
L 142.018694 236.164255 
L 143.329818 236.164255 
L 143.329818 235.11576 
L 143.615976 235.11576 
L 143.72207 234.067265 
L 144.071065 234.067265 
L 144.071065 233.543017 
L 144.413122 233.543017 
L 144.514426 231.970274 
L 144.548063 231.970274 
L 144.548063 231.446026 
L 144.681953 231.446026 
L 144.681953 230.921778 
L 145.012191 230.921778 
L 145.077485 229.349035 
L 145.207333 229.349035 
L 145.207333 228.30054 
L 145.622699 228.30054 
L 145.717145 226.203549 
L 145.748512 226.203549 
L 145.748512 225.679301 
L 145.904495 225.679301 
L 145.997411 224.106558 
L 146.028272 224.106558 
L 146.028272 223.058063 
L 146.212283 223.058063 
L 146.212283 219.912576 
L 146.333872 219.912576 
L 146.333872 218.864081 
L 146.63414 218.864081 
L 146.693569 216.76709 
L 146.752794 216.76709 
L 146.752794 213.621604 
L 146.929256 213.621604 
L 146.929256 209.427622 
L 147.219395 209.427622 
L 147.305492 205.757888 
L 147.334095 205.757888 
L 147.334095 204.709392 
L 147.504723 204.709392 
L 147.561225 198.942667 
L 147.785396 198.942667 
L 147.896396 195.797181 
L 147.951628 195.797181 
L 148.061564 194.224438 
L 148.116269 194.224438 
L 148.225161 188.981961 
L 148.440899 188.981961 
L 148.494413 186.88497 
L 148.653965 186.88497 
L 148.653965 186.360722 
L 148.812051 186.360722 
L 148.91664 184.787979 
L 149.328752 184.787979 
L 149.430256 183.739484 
L 150.027016 183.739484 
L 150.075824 182.690988 
L 150.389747 182.690988 
L 150.389747 182.16674 
L 150.768411 182.16674 
L 150.768411 181.642493 
L 151.047038 181.642493 
L 151.115996 180.593997 
L 151.298542 180.593997 
L 151.298542 179.545502 
L 151.434193 179.545502 
L 151.434193 179.021254 
L 151.568782 179.021254 
L 151.657926 176.400016 
L 151.856829 176.400016 
L 151.966344 174.827272 
L 152.053458 174.827272 
L 152.075167 173.778777 
L 152.269331 173.778777 
L 152.269331 173.254529 
L 152.651205 173.254529 
L 152.755795 172.206034 
L 152.859752 172.206034 
L 152.942468 171.157538 
L 153.065801 171.157538 
L 153.167907 168.5363 
L 153.228881 168.5363 
L 153.228881 166.963557 
L 153.39043 166.963557 
L 153.490634 165.915061 
L 153.530552 165.915061 
L 153.610112 162.769575 
L 153.649755 162.769575 
L 153.728767 161.721079 
L 153.846609 161.721079 
L 153.846609 161.196832 
L 153.983079 161.196832 
L 154.079899 159.099841 
L 154.099198 159.099841 
L 154.156965 157.527098 
L 154.233687 157.527098 
L 154.310068 155.430107 
L 154.442925 155.430107 
L 154.518385 153.333116 
L 154.612247 153.333116 
L 154.686969 150.711877 
L 154.761369 150.711877 
L 154.761369 149.139134 
L 154.890799 149.139134 
L 154.945972 147.566391 
L 155.019263 147.566391 
L 155.110439 145.993648 
L 155.164913 145.993648 
L 155.255322 144.945152 
L 155.291354 144.945152 
L 155.327309 143.372409 
L 155.470386 143.372409 
L 155.541481 142.323914 
L 155.788023 142.323914 
L 155.840397 141.275418 
L 155.979287 141.275418 
L 155.979287 140.751171 
L 156.372461 140.751171 
L 156.372461 140.226923 
L 156.540643 140.226923 
L 156.540643 139.178427 
L 156.740314 139.178427 
L 156.740314 138.129932 
L 156.872153 138.129932 
L 156.937696 137.081437 
L 156.986689 137.081437 
L 157.084259 135.508693 
L 157.132838 135.508693 
L 157.132838 134.984446 
L 157.293783 134.984446 
L 157.373694 132.887455 
L 157.453236 132.887455 
L 157.453236 132.363207 
L 157.689678 132.363207 
L 157.689678 131.314712 
L 158.107255 131.314712 
L 158.107255 130.790464 
L 158.319851 130.790464 
L 158.334936 129.741969 
L 158.470113 129.741969 
L 158.500008 128.169225 
L 158.663512 128.169225 
L 158.722584 127.12073 
L 158.825476 127.12073 
L 158.869384 124.499491 
L 158.942317 124.499491 
L 159.043907 121.878253 
L 159.058371 121.878253 
L 159.116105 119.781262 
L 159.188002 119.781262 
L 159.273883 117.684271 
L 159.316664 117.684271 
L 159.316664 117.160023 
L 159.59918 117.160023 
L 159.627178 115.063032 
L 159.808064 115.063032 
L 159.808064 114.538785 
L 160.028113 114.538785 
L 160.055423 112.966042 
L 160.366403 112.966042 
L 160.366403 112.441794 
L 160.499878 112.441794 
L 160.56623 110.869051 
L 160.724437 110.869051 
L 160.77685 109.820555 
L 161.062307 109.820555 
L 161.075171 108.77206 
L 161.203279 108.77206 
L 161.254256 107.723564 
L 161.317767 107.723564 
L 161.317767 106.675069 
L 161.444088 106.675069 
L 161.444088 106.150821 
L 161.556989 106.150821 
L 161.556989 105.626573 
L 161.706381 105.626573 
L 161.706381 105.102326 
L 162.037844 105.102326 
L 162.037844 104.578078 
L 162.255325 104.578078 
L 162.255325 104.05383 
L 162.458229 104.05383 
L 162.564687 102.481087 
L 162.693915 102.481087 
L 162.693915 101.432592 
L 162.914866 101.432592 
L 162.961023 100.384096 
L 163.064425 100.384096 
L 163.155819 99.335601 
L 163.235392 99.335601 
L 163.235392 98.811353 
L 163.382202 98.811353 
L 163.382202 97.762858 
L 163.583431 97.762858 
L 163.583431 96.714362 
L 163.727313 96.714362 
L 163.727313 96.190115 
L 163.870001 96.190115 
L 163.935461 95.141619 
L 163.98982 95.141619 
L 164.000672 94.093124 
L 164.248383 94.093124 
L 164.248383 93.568876 
L 164.429209 93.568876 
L 164.492578 90.947637 
L 164.555716 90.947637 
L 164.63954 89.899142 
L 164.816321 89.899142 
L 164.837 88.850646 
L 165.073039 88.850646 
L 165.073039 88.326399 
L 165.23535 88.326399 
L 165.23535 87.802151 
L 165.356086 87.802151 
L 165.356086 87.277903 
L 165.55545 87.277903 
L 165.55545 86.753656 
L 165.693642 86.753656 
L 165.791676 85.70516 
L 165.820977 85.70516 
L 165.91829 84.656665 
L 165.976415 84.656665 
L 166.063235 83.083922 
L 166.187874 83.083922 
L 166.235572 82.035426 
L 166.340046 82.035426 
L 166.443889 80.462683 
L 166.509646 80.462683 
L 166.575153 78.88994 
L 166.825511 78.88994 
L 166.91732 76.268701 
L 166.963041 76.268701 
L 167.017746 75.220206 
L 167.189842 75.220206 
L 167.243832 74.17171 
L 167.360233 74.17171 
L 167.458114 72.074719 
L 167.49357 72.074719 
L 167.49357 71.550472 
L 167.617093 71.550472 
L 167.617093 71.026224 
L 167.748462 71.026224 
L 167.748462 70.501976 
L 167.973818 70.501976 
L 167.973818 69.977729 
L 168.145183 69.977729 
L 168.145183 69.453481 
L 168.323297 69.453481 
L 168.323297 68.929233 
L 168.582904 68.929233 
L 168.599519 67.880738 
L 168.814067 67.880738 
L 168.814067 67.35649 
L 168.985423 67.35649 
L 169.090652 65.783747 
L 169.275264 65.783747 
L 169.283246 64.735251 
L 169.497368 64.735251 
L 169.505247 63.686756 
L 169.863857 63.686756 
L 169.863857 62.638261 
L 170.139386 62.638261 
L 170.139386 62.114013 
L 170.36567 62.114013 
L 170.418044 61.065517 
L 170.911433 61.065517 
L 170.911433 60.54127 
L 171.177958 60.54127 
L 171.177958 60.017022 
L 171.320324 60.017022 
L 171.376942 58.444279 
L 171.754318 58.444279 
L 171.864562 57.395783 
L 171.987748 57.395783 
L 172.008193 56.347288 
L 172.110058 56.347288 
L 172.20459 54.250297 
L 172.258376 54.250297 
L 172.258376 53.726049 
L 172.551232 53.726049 
L 172.551232 53.201802 
L 173.077655 53.201802 
L 173.128783 51.629058 
L 173.563575 51.629058 
L 173.582232 50.580563 
L 173.841328 50.580563 
L 173.92074 49.532068 
L 173.999787 49.532068 
L 174.102611 47.959324 
L 174.138756 47.959324 
L 174.138756 47.435077 
L 174.252716 47.435077 
L 174.252716 46.910829 
L 174.389665 46.910829 
L 174.389665 46.386581 
L 174.537296 46.386581 
L 174.625271 45.338086 
L 174.654496 45.338086 
L 174.724435 43.765343 
L 174.857694 43.765343 
L 174.886527 42.716847 
L 175.160896 42.716847 
L 175.211857 41.668352 
L 175.273938 41.668352 
L 175.273938 41.144104 
L 175.811894 41.144104 
L 175.811894 40.619856 
L 176.001945 40.619856 
L 176.001945 40.095609 
L 176.612016 40.095609 
L 176.612016 39.571361 
L 176.983247 39.571361 
L 176.983247 39.047113 
L 177.130537 39.047113 
L 177.130537 38.522865 
L 177.246463 38.522865 
L 177.246463 37.998618 
L 177.426359 37.998618 
L 177.45616 36.950122 
L 177.930908 36.950122 
L 177.964667 35.901627 
L 178.275017 35.901627 
L 178.275017 35.377379 
L 178.523992 35.377379 
L 178.523992 34.853131 
L 179.137863 34.853131 
L 179.137863 34.328884 
L 180.404199 34.328884 
L 180.404199 33.804636 
L 180.772342 33.804636 
L 180.772342 33.280388 
L 181.20875 33.280388 
L 181.20875 32.756141 
L 181.69265 32.756141 
L 181.69265 32.231893 
L 182.099023 32.231893 
L 182.099023 31.707645 
L 182.347283 31.707645 
L 182.347283 31.183397 
L 182.599374 31.183397 
L 182.599374 30.65915 
L 183.337739 30.65915 
L 183.337739 30.134902 
L 184.780908 30.134902 
L 184.780908 29.610654 
L 185.156092 29.610654 
L 185.156092 29.086407 
L 185.597628 29.086407 
L 185.597628 28.562159 
L 186.883904 28.562159 
L 186.883904 28.037911 
L 187.083565 28.037911 
L 187.083565 27.513663 
L 333.429677 27.513663 
L 333.429677 27.513663 
" style="fill:none;stroke:#008000;stroke-linecap:square;stroke-width:1.5;"/>
   </g>
   <g id="line2d_30">
    <defs>
     <path d="M -0 6 
L 6 -6 
L -6 -6 
z
" id="m777bdddc12" style="stroke:#008000;stroke-linejoin:miter;stroke-width:1.5;"/>
    </defs>
    <g>
     <use style="fill-opacity:0;stroke:#008000;stroke-linejoin:miter;stroke-width:1.5;" x="136.353845" xlink:href="#m777bdddc12" y="241.406733"/>
     <use style="fill-opacity:0;stroke:#008000;stroke-linejoin:miter;stroke-width:1.5;" x="157.453236" xlink:href="#m777bdddc12" y="132.363207"/>
     <use style="fill-opacity:0;stroke:#008000;stroke-linejoin:miter;stroke-width:1.5;" x="187.083565" xlink:href="#m777bdddc12" y="28.037911"/>
     <use style="fill-opacity:0;stroke:#008000;stroke-linejoin:miter;stroke-width:1.5;" x="187.083565" xlink:href="#m777bdddc12" y="27.513663"/>
     <use style="fill-opacity:0;stroke:#008000;stroke-linejoin:miter;stroke-width:1.5;" x="187.083565" xlink:href="#m777bdddc12" y="27.513663"/>
     <use style="fill-opacity:0;stroke:#008000;stroke-linejoin:miter;stroke-width:1.5;" x="333.429677" xlink:href="#m777bdddc12" y="27.513663"/>
    </g>
   </g>
   <g id="line2d_31">
    <path style="fill:none;stroke:#008000;stroke-linecap:square;stroke-width:1.5;"/>
    <g/>
   </g>
   <g id="line2d_32">
    <path clip-path="url(#p694832947e)" d="M 135.465655 241.93098 
" style="fill:none;stroke:#008000;stroke-linecap:square;stroke-width:1.5;"/>
    <defs>
     <path d="M -12 12 
L 12 -12 
M -12 -12 
L 12 12 
" id="m7dabb911ed" style="stroke:#008000;stroke-width:3;"/>
    </defs>
    <g clip-path="url(#p694832947e)">
     <use style="fill:#008000;stroke:#008000;stroke-width:3;" x="135.465655" xlink:href="#m7dabb911ed" y="241.93098"/>
    </g>
   </g>
   <g id="line2d_33">
    <defs>
     <path d="M 0 1.5 
C 0.397805 1.5 0.77937 1.341951 1.06066 1.06066 
C 1.341951 0.77937 1.5 0.397805 1.5 0 
C 1.5 -0.397805 1.341951 -0.77937 1.06066 -1.06066 
C 0.77937 -1.341951 0.397805 -1.5 0 -1.5 
C -0.397805 -1.5 -0.77937 -1.341951 -1.06066 -1.06066 
C -1.341951 -0.77937 -1.5 -0.397805 -1.5 0 
C -1.5 0.397805 -1.341951 0.77937 -1.06066 1.06066 
C -0.77937 1.341951 -0.397805 1.5 0 1.5 
z
" id="m756c09a211" style="stroke:#0000ff;"/>
    </defs>
    <g>
     <use style="fill:#0000ff;stroke:#0000ff;" x="208.491293" xlink:href="#m756c09a211" y="158.575593"/>
     <use style="fill:#0000ff;stroke:#0000ff;" x="208.491293" xlink:href="#m756c09a211" y="158.575593"/>
    </g>
   </g>
   <g id="line2d_34">
    <path d="M 40.355341 294.88 
L 40.355341 287.016284 
L 99.982863 287.016284 
L 99.982863 286.492036 
L 109.300972 286.492036 
L 109.300972 285.443541 
L 109.915496 285.443541 
L 109.915496 283.870798 
L 110.508826 283.870798 
L 110.508826 283.34655 
L 110.797991 283.34655 
L 110.797991 282.822302 
L 111.362135 282.822302 
L 111.362135 281.773807 
L 112.175115 281.773807 
L 112.175115 281.249559 
L 112.696514 281.249559 
L 112.696514 280.725312 
L 112.951406 280.725312 
L 112.951406 280.201064 
L 113.202576 280.201064 
L 113.202576 279.152568 
L 113.694177 279.152568 
L 113.694177 278.104073 
L 128.306406 278.104073 
L 128.306406 277.055578 
L 129.603619 277.055578 
L 129.603619 276.53133 
L 130.263612 276.53133 
L 130.263612 275.482834 
L 135.959823 275.482834 
L 135.959823 274.434339 
L 138.14057 274.434339 
L 138.14057 273.910091 
L 139.652212 273.910091 
L 139.652212 273.385844 
L 140.641569 273.385844 
L 140.641569 271.8131 
L 140.792711 271.8131 
L 140.792711 271.288853 
L 141.23833 271.288853 
L 141.23833 270.240357 
L 141.624972 270.240357 
L 141.72029 268.667614 
L 141.862285 268.667614 
L 141.862285 268.143366 
L 143.651414 268.143366 
L 143.651414 267.094871 
L 144.236101 267.094871 
L 144.236101 266.570623 
L 144.440195 266.570623 
L 144.440195 266.046375 
L 144.80157 266.046375 
L 144.80157 265.522128 
L 145.155512 265.522128 
L 145.155512 263.949385 
L 145.349044 263.949385 
L 145.349044 262.900889 
L 145.879633 262.900889 
L 145.879633 262.376641 
L 146.574504 262.376641 
L 146.574504 261.852394 
L 146.752794 261.852394 
L 146.788232 260.279651 
L 146.929256 260.279651 
L 146.929256 259.755403 
L 147.328378 259.755403 
L 147.328378 259.231155 
L 147.68488 259.231155 
L 147.785396 257.134164 
L 147.885328 257.134164 
L 147.91851 255.037173 
L 148.083467 255.037173 
L 148.116269 251.367439 
L 148.344151 251.367439 
L 148.344151 250.318944 
L 148.853963 250.318944 
L 148.853963 249.794696 
L 149.211277 249.794696 
L 149.211277 249.270448 
L 150.298576 249.270448 
L 150.298576 248.746201 
L 150.499469 248.746201 
L 150.527977 247.173458 
L 150.669815 247.173458 
L 150.726225 244.552219 
L 151.115996 244.552219 
L 151.115996 244.027971 
L 152.222071 244.027971 
L 152.222071 243.503724 
L 154.367132 243.503724 
L 154.367132 242.979476 
L 154.794744 242.979476 
L 154.794744 242.455228 
L 155.146774 242.455228 
L 155.146774 241.93098 
L 155.36319 241.93098 
L 155.36319 241.406733 
L 155.788023 241.406733 
L 155.788023 240.882485 
L 156.037977 240.882485 
L 156.037977 240.358237 
L 156.212857 240.358237 
L 156.212857 239.83399 
L 156.547336 239.83399 
L 156.547336 239.309742 
L 156.697248 239.309742 
L 156.74693 238.261246 
L 156.865585 238.261246 
L 156.865585 237.736999 
L 157.042047 237.736999 
L 157.042047 237.212751 
L 157.48495 237.212751 
L 157.48495 236.164255 
L 157.805137 236.164255 
L 157.805137 235.640008 
L 158.16522 235.640008 
L 158.16522 235.11576 
L 158.455146 235.11576 
L 158.517921 234.067265 
L 158.598297 234.067265 
L 158.687165 231.970274 
L 159.458502 231.970274 
L 159.458502 231.446026 
L 160.131659 231.446026 
L 160.131659 230.921778 
L 160.261569 230.921778 
L 160.261569 229.873283 
L 160.621768 229.873283 
L 160.621768 229.349035 
L 161.837274 229.349035 
L 161.837274 228.824787 
L 162.552891 228.824787 
L 162.552891 228.30054 
L 163.110182 228.30054 
L 163.110182 227.776292 
L 163.436093 227.776292 
L 163.503221 226.727797 
L 163.821839 226.727797 
L 163.887481 225.155053 
L 164.166924 225.155053 
L 164.269756 224.106558 
L 164.340097 224.106558 
L 164.340097 223.58231 
L 164.580906 223.58231 
L 164.580906 223.058063 
L 164.700058 223.058063 
L 164.700058 222.533815 
L 165.33803 222.533815 
L 165.33803 222.009567 
L 165.600978 222.009567 
L 165.7074 219.912576 
L 165.842433 219.912576 
L 165.842433 219.388328 
L 166.022773 219.388328 
L 166.022773 218.864081 
L 166.252712 218.864081 
L 166.258421 217.815585 
L 166.457061 217.815585 
L 166.473981 216.242842 
L 167.486485 216.242842 
L 167.486485 215.718594 
L 167.629396 215.718594 
L 167.629396 215.194347 
L 168.377215 215.194347 
L 168.4427 213.621604 
L 168.66251 213.621604 
L 168.66251 213.097356 
L 168.987047 213.097356 
L 168.987047 212.573108 
L 169.108396 212.573108 
L 169.17598 211.000365 
L 169.594819 211.000365 
L 169.669888 209.95187 
L 169.735306 209.95187 
L 169.735306 209.427622 
L 169.943909 209.427622 
L 170.031231 208.379126 
L 170.077013 208.379126 
L 170.086155 207.330631 
L 170.349176 207.330631 
L 170.438949 206.282136 
L 170.612669 206.282136 
L 170.612669 205.757888 
L 170.789041 205.757888 
L 170.789041 205.23364 
L 171.123548 205.23364 
L 171.123548 204.709392 
L 171.324577 204.709392 
L 171.324577 204.185145 
L 171.502253 204.185145 
L 171.502253 203.660897 
L 171.711408 203.660897 
L 171.711408 203.136649 
L 171.839819 203.136649 
L 171.893384 201.563906 
L 171.959083 201.563906 
L 172.057163 198.41842 
L 172.11412 198.41842 
L 172.11412 197.894172 
L 172.806706 197.894172 
L 172.806706 197.369924 
L 173.127507 197.369924 
L 173.127507 196.845677 
L 173.382173 196.845677 
L 173.382173 196.321429 
L 173.651707 196.321429 
L 173.651707 195.797181 
L 173.862133 195.797181 
L 173.971858 194.748686 
L 174.706976 194.748686 
L 174.706976 194.224438 
L 175.558877 194.224438 
L 175.565524 193.175943 
L 175.770347 193.175943 
L 175.858787 192.127447 
L 175.917496 192.127447 
L 175.917496 191.603199 
L 176.271982 191.603199 
L 176.271982 191.078952 
L 176.411756 191.078952 
L 176.411756 190.554704 
L 177.380564 190.554704 
L 177.380564 190.030456 
L 178.129611 190.030456 
L 178.129611 189.506209 
L 178.286369 189.506209 
L 178.286369 188.981961 
L 178.402304 188.981961 
L 178.402304 188.457713 
L 178.65964 188.457713 
L 178.65964 187.933465 
L 179.10092 187.933465 
L 179.10092 187.409218 
L 179.85794 187.409218 
L 179.925136 186.360722 
L 180.448461 186.360722 
L 180.448461 185.836474 
L 180.612816 185.836474 
L 180.711666 184.263731 
L 180.851554 184.263731 
L 180.949046 183.215236 
L 181.019384 183.215236 
L 181.019384 182.690988 
L 181.214335 182.690988 
L 181.214335 182.16674 
L 181.728303 182.16674 
L 181.749196 181.118245 
L 181.899337 181.118245 
L 181.899337 180.593997 
L 182.080069 180.593997 
L 182.080069 180.06975 
L 182.389059 180.06975 
L 182.395763 179.021254 
L 182.573593 179.021254 
L 182.595693 177.972759 
L 182.745225 177.972759 
L 182.745225 177.448511 
L 182.884784 177.448511 
L 182.910825 176.400016 
L 183.194712 176.400016 
L 183.194712 175.875768 
L 184.786743 175.875768 
L 184.786743 175.35152 
L 185.054926 175.35152 
L 185.054926 174.827272 
L 186.663893 174.827272 
L 186.663893 174.303025 
L 187.003979 174.303025 
L 187.003979 173.778777 
L 187.303909 173.778777 
L 187.337473 172.730281 
L 188.646108 172.730281 
L 188.697307 171.681786 
L 189.136265 171.681786 
L 189.136265 171.157538 
L 189.370246 171.157538 
L 189.370246 170.633291 
L 190.025025 170.633291 
L 190.025025 170.109043 
L 190.37565 170.109043 
L 190.37565 169.584795 
L 190.962715 169.584795 
L 190.968147 168.5363 
L 191.249571 168.5363 
L 191.249571 168.012052 
L 191.523837 168.012052 
L 191.523837 167.487804 
L 192.005993 167.487804 
L 192.005993 166.963557 
L 192.550708 166.963557 
L 192.550708 166.439309 
L 193.156584 166.439309 
L 193.16495 165.390813 
L 193.60496 165.390813 
L 193.654969 164.342318 
L 193.774171 164.342318 
L 193.774171 163.81807 
L 194.0941 163.81807 
L 194.0941 163.293823 
L 195.076434 163.293823 
L 195.101009 162.245327 
L 195.657781 162.245327 
L 195.657781 161.721079 
L 196.512757 161.721079 
L 196.512757 161.196832 
L 199.232772 161.196832 
L 199.232772 160.672584 
L 199.886941 160.672584 
L 199.943438 159.624089 
L 200.805413 159.624089 
L 200.805413 159.099841 
L 208.491293 159.099841 
L 208.491293 158.575593 
L 333.429677 158.575593 
L 333.429677 158.575593 
" style="fill:none;stroke:#0000ff;stroke-linecap:square;stroke-width:1.5;"/>
   </g>
   <g id="line2d_35">
    <defs>
     <path d="M 0 -6 
L -1.347084 -1.854102 
L -5.706339 -1.854102 
L -2.179628 0.708204 
L -3.526712 4.854102 
L -0 2.291796 
L 3.526712 4.854102 
L 2.179628 0.708204 
L 5.706339 -1.854102 
L 1.347084 -1.854102 
z
" id="m8c83baf575" style="stroke:#0000ff;stroke-linejoin:bevel;stroke-width:1.5;"/>
    </defs>
    <g>
     <use style="fill-opacity:0;stroke:#0000ff;stroke-linejoin:bevel;stroke-width:1.5;" x="128.306406" xlink:href="#m8c83baf575" y="277.055578"/>
     <use style="fill-opacity:0;stroke:#0000ff;stroke-linejoin:bevel;stroke-width:1.5;" x="169.17598" xlink:href="#m8c83baf575" y="211.000365"/>
     <use style="fill-opacity:0;stroke:#0000ff;stroke-linejoin:bevel;stroke-width:1.5;" x="208.491293" xlink:href="#m8c83baf575" y="159.099841"/>
     <use style="fill-opacity:0;stroke:#0000ff;stroke-linejoin:bevel;stroke-width:1.5;" x="208.491293" xlink:href="#m8c83baf575" y="158.575593"/>
     <use style="fill-opacity:0;stroke:#0000ff;stroke-linejoin:bevel;stroke-width:1.5;" x="208.491293" xlink:href="#m8c83baf575" y="158.575593"/>
     <use style="fill-opacity:0;stroke:#0000ff;stroke-linejoin:bevel;stroke-width:1.5;" x="333.429677" xlink:href="#m8c83baf575" y="158.575593"/>
    </g>
   </g>
   <g id="line2d_36">
    <path style="fill:none;stroke:#0000ff;stroke-linecap:square;stroke-width:1.5;"/>
    <g/>
   </g>
   <g id="line2d_37">
    <path clip-path="url(#p694832947e)" d="M 144.521159 266.046375 
" style="fill:none;stroke:#0000ff;stroke-linecap:square;stroke-width:1.5;"/>
    <defs>
     <path d="M -12 12 
L 12 -12 
M -12 -12 
L 12 12 
" id="m1fe1c74bee" style="stroke:#0000ff;stroke-width:3;"/>
    </defs>
    <g clip-path="url(#p694832947e)">
     <use style="fill:#0000ff;stroke:#0000ff;stroke-width:3;" x="144.521159" xlink:href="#m1fe1c74bee" y="266.046375"/>
    </g>
   </g>
   <g id="line2d_38">
    <defs>
     <path d="M 0 1.5 
C 0.397805 1.5 0.77937 1.341951 1.06066 1.06066 
C 1.341951 0.77937 1.5 0.397805 1.5 0 
C 1.5 -0.397805 1.341951 -0.77937 1.06066 -1.06066 
C 0.77937 -1.341951 0.397805 -1.5 0 -1.5 
C -0.397805 -1.5 -0.77937 -1.341951 -1.06066 -1.06066 
C -1.341951 -0.77937 -1.5 -0.397805 -1.5 0 
C -1.5 0.397805 -1.341951 0.77937 -1.06066 1.06066 
C -0.77937 1.341951 -0.397805 1.5 0 1.5 
z
" id="ma3799a0c05" style="stroke:#000000;"/>
    </defs>
    <g>
     <use style="stroke:#000000;" x="217.995976" xlink:href="#ma3799a0c05" y="263.425137"/>
     <use style="stroke:#000000;" x="217.995976" xlink:href="#ma3799a0c05" y="263.425137"/>
    </g>
   </g>
   <g id="line2d_39">
    <path d="M 28.429836 294.88 
L 28.429836 289.637523 
L 112.306953 289.637523 
L 112.306953 289.113275 
L 116.484234 289.113275 
L 116.484234 288.06478 
L 116.58695 288.06478 
L 116.58695 287.540532 
L 117.484799 287.540532 
L 117.484799 286.492036 
L 117.678114 286.492036 
L 117.678114 285.443541 
L 131.852883 285.443541 
L 131.852883 284.919293 
L 136.256182 284.919293 
L 136.256182 283.34655 
L 143.75729 283.34655 
L 143.75729 282.298055 
L 144.500954 282.298055 
L 144.500954 281.773807 
L 146.321752 281.773807 
L 146.321752 281.249559 
L 150.153631 281.249559 
L 150.153631 280.725312 
L 150.485197 280.725312 
L 150.485197 280.201064 
L 152.805772 280.201064 
L 152.805772 279.152568 
L 153.56242 279.152568 
L 153.56242 278.628321 
L 156.75685 278.628321 
L 156.75685 278.104073 
L 157.389632 278.104073 
L 157.389632 277.579825 
L 158.39214 277.579825 
L 158.39214 277.055578 
L 159.918441 277.055578 
L 159.918441 276.53133 
L 160.881202 276.53133 
L 160.881202 276.007082 
L 160.966818 276.007082 
L 160.966818 275.482834 
L 161.554488 275.482834 
L 161.554488 274.958587 
L 161.558239 274.958587 
L 161.558239 274.434339 
L 162.187958 274.434339 
L 162.187958 273.385844 
L 162.630597 273.385844 
L 162.630597 272.337348 
L 165.976415 272.337348 
L 165.976415 271.8131 
L 167.781583 271.8131 
L 167.781583 271.288853 
L 167.784195 271.288853 
L 167.784195 270.764605 
L 170.456847 270.764605 
L 170.456847 270.240357 
L 176.422826 270.240357 
L 176.422826 269.716109 
L 180.673429 269.716109 
L 180.673429 269.191862 
L 181.201167 269.191862 
L 181.201167 268.667614 
L 182.980078 268.667614 
L 182.980078 268.143366 
L 183.976554 268.143366 
L 183.976554 267.619119 
L 185.012757 267.619119 
L 185.012757 267.094871 
L 189.338187 267.094871 
L 189.338187 266.570623 
L 189.979792 266.570623 
L 189.979792 266.046375 
L 189.980511 266.046375 
L 189.980511 265.522128 
L 192.640251 265.522128 
L 192.640251 264.99788 
L 207.931201 264.99788 
L 207.931201 264.473632 
L 215.575278 264.473632 
L 215.575278 263.949385 
L 217.995976 263.949385 
L 217.995976 263.425137 
L 333.429677 263.425137 
" style="fill:none;stroke:#000000;stroke-linecap:square;stroke-width:1.5;"/>
   </g>
   <g id="line2d_40">
    <defs>
     <path d="M 0 6 
C 1.591219 6 3.117479 5.367802 4.242641 4.242641 
C 5.367802 3.117479 6 1.591219 6 0 
C 6 -1.591219 5.367802 -3.117479 4.242641 -4.242641 
C 3.117479 -5.367802 1.591219 -6 0 -6 
C -1.591219 -6 -3.117479 -5.367802 -4.242641 -4.242641 
C -5.367802 -3.117479 -6 -1.591219 -6 0 
C -6 1.591219 -5.367802 3.117479 -4.242641 4.242641 
C -3.117479 5.367802 -1.591219 6 0 6 
z
" id="m14bee172a1" style="stroke:#000000;stroke-width:1.5;"/>
    </defs>
    <g>
     <use style="fill-opacity:0;stroke:#000000;stroke-width:1.5;" x="161.558239" xlink:href="#m14bee172a1" y="274.958587"/>
     <use style="fill-opacity:0;stroke:#000000;stroke-width:1.5;" x="217.995976" xlink:href="#m14bee172a1" y="263.949385"/>
     <use style="fill-opacity:0;stroke:#000000;stroke-width:1.5;" x="217.995976" xlink:href="#m14bee172a1" y="263.425137"/>
     <use style="fill-opacity:0;stroke:#000000;stroke-width:1.5;" x="217.995976" xlink:href="#m14bee172a1" y="263.425137"/>
     <use style="fill-opacity:0;stroke:#000000;stroke-width:1.5;" x="333.429677" xlink:href="#m14bee172a1" y="263.425137"/>
    </g>
   </g>
   <g id="line2d_41">
    <path style="fill:none;stroke:#000000;stroke-linecap:square;stroke-width:1.5;"/>
    <g/>
   </g>
   <g id="line2d_42">
    <path clip-path="url(#p694832947e)" d="M 147.276841 281.249559 
" style="fill:none;stroke:#000000;stroke-linecap:square;stroke-width:1.5;"/>
    <defs>
     <path d="M -12 12 
L 12 -12 
M -12 -12 
L 12 12 
" id="mc760019061" style="stroke:#000000;stroke-width:3;"/>
    </defs>
    <g clip-path="url(#p694832947e)">
     <use style="stroke:#000000;stroke-width:3;" x="147.276841" xlink:href="#mc760019061" y="281.249559"/>
    </g>
   </g>
   <g id="line2d_43">
    <defs>
     <path d="M 0 1.5 
C 0.397805 1.5 0.77937 1.341951 1.06066 1.06066 
C 1.341951 0.77937 1.5 0.397805 1.5 0 
C 1.5 -0.397805 1.341951 -0.77937 1.06066 -1.06066 
C 0.77937 -1.341951 0.397805 -1.5 0 -1.5 
C -0.397805 -1.5 -0.77937 -1.341951 -1.06066 -1.06066 
C -1.341951 -0.77937 -1.5 -0.397805 -1.5 0 
C -1.5 0.397805 -1.341951 0.77937 -1.06066 1.06066 
C -0.77937 1.341951 -0.397805 1.5 0 1.5 
z
" id="m17d0be3f15" style="stroke:#ff0000;"/>
    </defs>
    <g>
     <use style="fill:#ff0000;stroke:#ff0000;" x="178.654087" xlink:href="#m17d0be3f15" y="284.395046"/>
     <use style="fill:#ff0000;stroke:#ff0000;" x="178.654087" xlink:href="#m17d0be3f15" y="284.395046"/>
    </g>
   </g>
   <g id="line2d_44">
    <path d="M 16.504332 294.88 
L 16.504332 289.637523 
L 150.291357 289.637523 
L 150.291357 289.113275 
L 156.904956 289.113275 
L 156.904956 288.589027 
L 160.802998 288.589027 
L 160.802998 288.06478 
L 161.312694 288.06478 
L 161.312694 287.540532 
L 167.261791 287.540532 
L 167.261791 287.016284 
L 171.932423 287.016284 
L 171.932423 286.492036 
L 175.613645 286.492036 
L 175.613645 285.967789 
L 175.626069 285.967789 
L 175.626069 285.443541 
L 177.37159 285.443541 
L 177.37159 284.919293 
L 178.654087 284.919293 
L 178.654087 284.395046 
L 333.429677 284.395046 
" style="fill:none;stroke:#ff0000;stroke-linecap:square;stroke-width:1.5;"/>
   </g>
   <g id="line2d_45">
    <defs>
     <path d="M -6 6 
L 6 6 
L 6 -6 
L -6 -6 
z
" id="m1b6e96cb24" style="stroke:#ff0000;stroke-linejoin:miter;stroke-width:1.5;"/>
    </defs>
    <g>
     <use style="fill-opacity:0;stroke:#ff0000;stroke-linejoin:miter;stroke-width:1.5;" x="178.654087" xlink:href="#m1b6e96cb24" y="284.919293"/>
     <use style="fill-opacity:0;stroke:#ff0000;stroke-linejoin:miter;stroke-width:1.5;" x="178.654087" xlink:href="#m1b6e96cb24" y="284.395046"/>
     <use style="fill-opacity:0;stroke:#ff0000;stroke-linejoin:miter;stroke-width:1.5;" x="178.654087" xlink:href="#m1b6e96cb24" y="284.395046"/>
     <use style="fill-opacity:0;stroke:#ff0000;stroke-linejoin:miter;stroke-width:1.5;" x="333.429677" xlink:href="#m1b6e96cb24" y="284.395046"/>
    </g>
   </g>
   <g id="line2d_46">
    <path style="fill:none;stroke:#ff0000;stroke-linecap:square;stroke-width:1.5;"/>
    <g/>
   </g>
   <g id="line2d_47">
    <path clip-path="url(#p694832947e)" d="M 147.276841 289.637523 
" style="fill:none;stroke:#ff0000;stroke-linecap:square;stroke-width:1.5;"/>
    <defs>
     <path d="M -12 12 
L 12 -12 
M -12 -12 
L 12 12 
" id="mfaab6c2bd6" style="stroke:#ff0000;stroke-width:3;"/>
    </defs>
    <g clip-path="url(#p694832947e)">
     <use style="fill:#ff0000;stroke:#ff0000;stroke-width:3;" x="147.276841" xlink:href="#mfaab6c2bd6" y="289.637523"/>
    </g>
   </g>
   <g id="line2d_48">
    <defs>
     <path d="M 0 1.5 
C 0.397805 1.5 0.77937 1.341951 1.06066 1.06066 
C 1.341951 0.77937 1.5 0.397805 1.5 0 
C 1.5 -0.397805 1.341951 -0.77937 1.06066 -1.06066 
C 0.77937 -1.341951 0.397805 -1.5 0 -1.5 
C -0.397805 -1.5 -0.77937 -1.341951 -1.06066 -1.06066 
C -1.341951 -0.77937 -1.5 -0.397805 -1.5 0 
C -1.5 0.397805 -1.341951 0.77937 -1.06066 1.06066 
C -0.77937 1.341951 -0.397805 1.5 0 1.5 
z
" id="m9be7840618" style="stroke:#bf00bf;"/>
    </defs>
    <g>
     <use style="fill:#bf00bf;stroke:#bf00bf;" x="218.903402" xlink:href="#m9be7840618" y="284.395046"/>
     <use style="fill:#bf00bf;stroke:#bf00bf;" x="218.903402" xlink:href="#m9be7840618" y="284.395046"/>
    </g>
   </g>
   <g id="line2d_49">
    <path d="M 4.578827 294.88 
L 4.578827 289.637523 
L 175.881642 289.637523 
L 175.881642 289.113275 
L 181.4142 289.113275 
L 181.4142 288.589027 
L 190.416352 288.589027 
L 190.416352 288.06478 
L 194.179077 288.06478 
L 194.179077 287.540532 
L 199.051271 287.540532 
L 199.051271 287.016284 
L 201.425796 287.016284 
L 201.425796 286.492036 
L 201.425888 286.492036 
L 201.425888 285.967789 
L 208.579988 285.967789 
L 208.579988 285.443541 
L 215.347631 285.443541 
L 215.347631 284.919293 
L 218.903402 284.919293 
L 218.903402 284.395046 
L 333.429677 284.395046 
" style="fill:none;stroke:#bf00bf;stroke-linecap:square;stroke-width:1.5;"/>
   </g>
   <g id="line2d_50">
    <defs>
     <path d="M -0 8.485281 
L 8.485281 0 
L 0 -8.485281 
L -8.485281 -0 
z
" id="mbc20723b1e" style="stroke:#bf00bf;stroke-linejoin:miter;stroke-width:1.5;"/>
    </defs>
    <g>
     <use style="fill-opacity:0;stroke:#bf00bf;stroke-linejoin:miter;stroke-width:1.5;" x="208.579988" xlink:href="#mbc20723b1e" y="285.967789"/>
     <use style="fill-opacity:0;stroke:#bf00bf;stroke-linejoin:miter;stroke-width:1.5;" x="218.903402" xlink:href="#mbc20723b1e" y="284.395046"/>
     <use style="fill-opacity:0;stroke:#bf00bf;stroke-linejoin:miter;stroke-width:1.5;" x="218.903402" xlink:href="#mbc20723b1e" y="284.395046"/>
     <use style="fill-opacity:0;stroke:#bf00bf;stroke-linejoin:miter;stroke-width:1.5;" x="333.429677" xlink:href="#mbc20723b1e" y="284.395046"/>
    </g>
   </g>
   <g id="line2d_51">
    <path style="fill:none;stroke:#bf00bf;stroke-linecap:square;stroke-width:1.5;"/>
    <g/>
   </g>
   <g id="line2d_52">
    <path clip-path="url(#p694832947e)" d="M 147.276841 289.637523 
" style="fill:none;stroke:#bf00bf;stroke-linecap:square;stroke-width:1.5;"/>
    <defs>
     <path d="M -12 12 
L 12 -12 
M -12 -12 
L 12 12 
" id="m4761f65fbd" style="stroke:#bf00bf;stroke-width:3;"/>
    </defs>
    <g clip-path="url(#p694832947e)">
     <use style="fill:#bf00bf;stroke:#bf00bf;stroke-width:3;" x="147.276841" xlink:href="#m4761f65fbd" y="289.637523"/>
    </g>
   </g>
   <g id="line2d_53">
    <path d="M 333.429677 284.395046 
L 363.933742 289.532673 
" style="fill:none;stroke:#bf00bf;stroke-linecap:square;stroke-width:1.5;"/>
    <g>
     <use style="fill-opacity:0;stroke:#bf00bf;stroke-linejoin:miter;stroke-width:1.5;" x="333.429677" xlink:href="#mbc20723b1e" y="284.395046"/>
     <use style="fill-opacity:0;stroke:#bf00bf;stroke-linejoin:miter;stroke-width:1.5;" x="363.933742" xlink:href="#mbc20723b1e" y="289.532673"/>
    </g>
   </g>
   <g id="line2d_54">
    <path d="M 333.429677 284.395046 
L 363.933742 238.198337 
" style="fill:none;stroke:#ff0000;stroke-linecap:square;stroke-width:1.5;"/>
    <g>
     <use style="fill-opacity:0;stroke:#ff0000;stroke-linejoin:miter;stroke-width:1.5;" x="333.429677" xlink:href="#m1b6e96cb24" y="284.395046"/>
     <use style="fill-opacity:0;stroke:#ff0000;stroke-linejoin:miter;stroke-width:1.5;" x="363.933742" xlink:href="#m1b6e96cb24" y="238.198337"/>
    </g>
   </g>
   <g id="line2d_55">
    <path d="M 333.429677 263.425137 
L 363.933742 186.864 
" style="fill:none;stroke:#000000;stroke-linecap:square;stroke-width:1.5;"/>
    <g>
     <use style="fill-opacity:0;stroke:#000000;stroke-width:1.5;" x="333.429677" xlink:href="#m14bee172a1" y="263.425137"/>
     <use style="fill-opacity:0;stroke:#000000;stroke-width:1.5;" x="363.933742" xlink:href="#m14bee172a1" y="186.864"/>
    </g>
   </g>
   <g id="line2d_56">
    <path d="M 333.429677 158.575593 
L 363.933742 135.529663 
" style="fill:none;stroke:#0000ff;stroke-linecap:square;stroke-width:1.5;"/>
    <g>
     <use style="fill-opacity:0;stroke:#0000ff;stroke-linejoin:bevel;stroke-width:1.5;" x="333.429677" xlink:href="#m8c83baf575" y="158.575593"/>
     <use style="fill-opacity:0;stroke:#0000ff;stroke-linejoin:bevel;stroke-width:1.5;" x="363.933742" xlink:href="#m8c83baf575" y="135.529663"/>
    </g>
   </g>
   <g id="line2d_57">
    <path d="M 333.429677 27.513663 
L 363.933742 84.195327 
" style="fill:none;stroke:#008000;stroke-linecap:square;stroke-width:1.5;"/>
    <g>
     <use style="fill-opacity:0;stroke:#008000;stroke-linejoin:miter;stroke-width:1.5;" x="333.429677" xlink:href="#m777bdddc12" y="27.513663"/>
     <use style="fill-opacity:0;stroke:#008000;stroke-linejoin:miter;stroke-width:1.5;" x="363.933742" xlink:href="#m777bdddc12" y="84.195327"/>
    </g>
   </g>
   <g id="line2d_58">
    <path d="M 333.429677 27.513663 
L 363.933742 32.86099 
" style="fill:none;stroke:#00bfbf;stroke-linecap:square;stroke-width:1.5;"/>
    <g>
     <use style="fill-opacity:0;stroke:#00bfbf;stroke-width:1.5;" x="333.429677" xlink:href="#m09e6bee095" y="27.513663"/>
     <use style="fill-opacity:0;stroke:#00bfbf;stroke-width:1.5;" x="363.933742" xlink:href="#m09e6bee095" y="32.86099"/>
    </g>
   </g>
   <g id="line2d_59">
    <path d="M 333.429677 294.88 
L 333.429677 27.513663 
" style="fill:none;stroke:#000000;stroke-linecap:square;stroke-width:1.5;"/>
   </g>
   <g id="patch_3">
    <path d="M 56.12 294.88 
L 56.12 24.84 
" style="fill:none;stroke:#000000;stroke-linecap:square;stroke-linejoin:miter;stroke-width:0.8;"/>
   </g>
   <g id="patch_4">
    <path d="M 399.984 294.88 
L 399.984 24.84 
" style="fill:none;stroke:#000000;stroke-linecap:square;stroke-linejoin:miter;stroke-width:0.8;"/>
   </g>
   <g id="patch_5">
    <path d="M 56.12 294.88 
L 399.984 294.88 
" style="fill:none;stroke:#000000;stroke-linecap:square;stroke-linejoin:miter;stroke-width:0.8;"/>
   </g>
   <g id="patch_6">
    <path d="M 56.12 24.84 
L 399.984 24.84 
" style="fill:none;stroke:#000000;stroke-linecap:square;stroke-linejoin:miter;stroke-width:0.8;"/>
   </g>
   <g id="text_14">
    <!-- 40-D -->
    <defs>
     <path d="M 19.671875 64.796875 
L 19.671875 8.109375 
L 31.59375 8.109375 
Q 46.6875 8.109375 53.6875 14.9375 
Q 60.6875 21.78125 60.6875 36.53125 
Q 60.6875 51.171875 53.6875 57.984375 
Q 46.6875 64.796875 31.59375 64.796875 
z
M 9.8125 72.90625 
L 30.078125 72.90625 
Q 51.265625 72.90625 61.171875 64.09375 
Q 71.09375 55.28125 71.09375 36.53125 
Q 71.09375 17.671875 61.125 8.828125 
Q 51.171875 0 30.078125 0 
L 9.8125 0 
z
" id="DejaVuSans-44"/>
    </defs>
    <g transform="translate(369.479935 294.223611)scale(0.17 -0.17)">
     <use xlink:href="#DejaVuSans-34"/>
     <use x="63.623047" xlink:href="#DejaVuSans-30"/>
     <use x="127.246094" xlink:href="#DejaVuSans-2d"/>
     <use x="163.330078" xlink:href="#DejaVuSans-44"/>
    </g>
   </g>
   <g id="text_15">
    <!-- 20-D -->
    <g transform="translate(369.479935 242.889274)scale(0.17 -0.17)">
     <use xlink:href="#DejaVuSans-32"/>
     <use x="63.623047" xlink:href="#DejaVuSans-30"/>
     <use x="127.246094" xlink:href="#DejaVuSans-2d"/>
     <use x="163.330078" xlink:href="#DejaVuSans-44"/>
    </g>
   </g>
   <g id="text_16">
    <!-- 10-D -->
    <g transform="translate(369.479935 191.554937)scale(0.17 -0.17)">
     <use xlink:href="#DejaVuSans-31"/>
     <use x="63.623047" xlink:href="#DejaVuSans-30"/>
     <use x="127.246094" xlink:href="#DejaVuSans-2d"/>
     <use x="163.330078" xlink:href="#DejaVuSans-44"/>
    </g>
   </g>
   <g id="text_17">
    <!-- 5-D -->
    <defs>
     <path d="M 10.796875 72.90625 
L 49.515625 72.90625 
L 49.515625 64.59375 
L 19.828125 64.59375 
L 19.828125 46.734375 
Q 21.96875 47.46875 24.109375 47.828125 
Q 26.265625 48.1875 28.421875 48.1875 
Q 40.625 48.1875 47.75 41.5 
Q 54.890625 34.8125 54.890625 23.390625 
Q 54.890625 11.625 47.5625 5.09375 
Q 40.234375 -1.421875 26.90625 -1.421875 
Q 22.3125 -1.421875 17.546875 -0.640625 
Q 12.796875 0.140625 7.71875 1.703125 
L 7.71875 11.625 
Q 12.109375 9.234375 16.796875 8.0625 
Q 21.484375 6.890625 26.703125 6.890625 
Q 35.15625 6.890625 40.078125 11.328125 
Q 45.015625 15.765625 45.015625 23.390625 
Q 45.015625 31 40.078125 35.4375 
Q 35.15625 39.890625 26.703125 39.890625 
Q 22.75 39.890625 18.8125 39.015625 
Q 14.890625 38.140625 10.796875 36.28125 
z
" id="DejaVuSans-35"/>
    </defs>
    <g transform="translate(369.479935 140.220601)scale(0.17 -0.17)">
     <use xlink:href="#DejaVuSans-35"/>
     <use x="63.623047" xlink:href="#DejaVuSans-2d"/>
     <use x="99.707031" xlink:href="#DejaVuSans-44"/>
    </g>
   </g>
   <g id="text_18">
    <!-- 3-D -->
    <defs>
     <path d="M 40.578125 39.3125 
Q 47.65625 37.796875 51.625 33 
Q 55.609375 28.21875 55.609375 21.1875 
Q 55.609375 10.40625 48.1875 4.484375 
Q 40.765625 -1.421875 27.09375 -1.421875 
Q 22.515625 -1.421875 17.65625 -0.515625 
Q 12.796875 0.390625 7.625 2.203125 
L 7.625 11.71875 
Q 11.71875 9.328125 16.59375 8.109375 
Q 21.484375 6.890625 26.8125 6.890625 
Q 36.078125 6.890625 40.9375 10.546875 
Q 45.796875 14.203125 45.796875 21.1875 
Q 45.796875 27.640625 41.28125 31.265625 
Q 36.765625 34.90625 28.71875 34.90625 
L 20.21875 34.90625 
L 20.21875 43.015625 
L 29.109375 43.015625 
Q 36.375 43.015625 40.234375 45.921875 
Q 44.09375 48.828125 44.09375 54.296875 
Q 44.09375 59.90625 40.109375 62.90625 
Q 36.140625 65.921875 28.71875 65.921875 
Q 24.65625 65.921875 20.015625 65.03125 
Q 15.375 64.15625 9.8125 62.3125 
L 9.8125 71.09375 
Q 15.4375 72.65625 20.34375 73.4375 
Q 25.25 74.21875 29.59375 74.21875 
Q 40.828125 74.21875 47.359375 69.109375 
Q 53.90625 64.015625 53.90625 55.328125 
Q 53.90625 49.265625 50.4375 45.09375 
Q 46.96875 40.921875 40.578125 39.3125 
z
" id="DejaVuSans-33"/>
    </defs>
    <g transform="translate(369.479935 88.886264)scale(0.17 -0.17)">
     <use xlink:href="#DejaVuSans-33"/>
     <use x="63.623047" xlink:href="#DejaVuSans-2d"/>
     <use x="99.707031" xlink:href="#DejaVuSans-44"/>
    </g>
   </g>
   <g id="text_19">
    <!-- 2-D -->
    <g transform="translate(369.479935 37.551928)scale(0.17 -0.17)">
     <use xlink:href="#DejaVuSans-32"/>
     <use x="63.623047" xlink:href="#DejaVuSans-2d"/>
     <use x="99.707031" xlink:href="#DejaVuSans-44"/>
    </g>
   </g>
   <g id="text_20">
    <!-- bbob f22 -->
    <defs>
     <path d="M 48.6875 27.296875 
Q 48.6875 37.203125 44.609375 42.84375 
Q 40.53125 48.484375 33.40625 48.484375 
Q 26.265625 48.484375 22.1875 42.84375 
Q 18.109375 37.203125 18.109375 27.296875 
Q 18.109375 17.390625 22.1875 11.75 
Q 26.265625 6.109375 33.40625 6.109375 
Q 40.53125 6.109375 44.609375 11.75 
Q 48.6875 17.390625 48.6875 27.296875 
z
M 18.109375 46.390625 
Q 20.953125 51.265625 25.265625 53.625 
Q 29.59375 56 35.59375 56 
Q 45.5625 56 51.78125 48.09375 
Q 58.015625 40.1875 58.015625 27.296875 
Q 58.015625 14.40625 51.78125 6.484375 
Q 45.5625 -1.421875 35.59375 -1.421875 
Q 29.59375 -1.421875 25.265625 0.953125 
Q 20.953125 3.328125 18.109375 8.203125 
L 18.109375 0 
L 9.078125 0 
L 9.078125 75.984375 
L 18.109375 75.984375 
z
" id="DejaVuSans-62"/>
    </defs>
    <g transform="translate(59.55864 35.290806)scale(0.102 -0.102)">
     <use xlink:href="#DejaVuSans-62"/>
     <use x="63.476562" xlink:href="#DejaVuSans-62"/>
     <use x="126.953125" xlink:href="#DejaVuSans-6f"/>
     <use x="188.134766" xlink:href="#DejaVuSans-62"/>
     <use x="251.611328" xlink:href="#DejaVuSans-20"/>
     <use x="283.398438" xlink:href="#DejaVuSans-66"/>
     <use x="318.603516" xlink:href="#DejaVuSans-32"/>
     <use x="382.226562" xlink:href="#DejaVuSans-32"/>
    </g>
    <!-- 51 targets: 100..1e-08 -->
    <defs>
     <path d="M 11.71875 12.40625 
L 22.015625 12.40625 
L 22.015625 0 
L 11.71875 0 
z
M 11.71875 51.703125 
L 22.015625 51.703125 
L 22.015625 39.3125 
L 11.71875 39.3125 
z
" id="DejaVuSans-3a"/>
    </defs>
    <g transform="translate(59.55864 46.712575)scale(0.102 -0.102)">
     <use xlink:href="#DejaVuSans-35"/>
     <use x="63.623047" xlink:href="#DejaVuSans-31"/>
     <use x="127.246094" xlink:href="#DejaVuSans-20"/>
     <use x="159.033203" xlink:href="#DejaVuSans-74"/>
     <use x="198.242188" xlink:href="#DejaVuSans-61"/>
     <use x="259.521484" xlink:href="#DejaVuSans-72"/>
     <use x="300.619141" xlink:href="#DejaVuSans-67"/>
     <use x="364.095703" xlink:href="#DejaVuSans-65"/>
     <use x="425.619141" xlink:href="#DejaVuSans-74"/>
     <use x="464.828125" xlink:href="#DejaVuSans-73"/>
     <use x="516.927734" xlink:href="#DejaVuSans-3a"/>
     <use x="550.619141" xlink:href="#DejaVuSans-20"/>
     <use x="582.40625" xlink:href="#DejaVuSans-31"/>
     <use x="646.029297" xlink:href="#DejaVuSans-30"/>
     <use x="709.652344" xlink:href="#DejaVuSans-30"/>
     <use x="773.275391" xlink:href="#DejaVuSans-2e"/>
     <use x="805.0625" xlink:href="#DejaVuSans-2e"/>
     <use x="836.849609" xlink:href="#DejaVuSans-31"/>
     <use x="900.472656" xlink:href="#DejaVuSans-65"/>
     <use x="961.996094" xlink:href="#DejaVuSans-2d"/>
     <use x="998.080078" xlink:href="#DejaVuSans-30"/>
     <use x="1061.703125" xlink:href="#DejaVuSans-38"/>
    </g>
    <!-- 15 instances -->
    <g transform="translate(59.55864 58.134344)scale(0.102 -0.102)">
     <use xlink:href="#DejaVuSans-31"/>
     <use x="63.623047" xlink:href="#DejaVuSans-35"/>
     <use x="127.246094" xlink:href="#DejaVuSans-20"/>
     <use x="159.033203" xlink:href="#DejaVuSans-69"/>
     <use x="186.816406" xlink:href="#DejaVuSans-6e"/>
     <use x="250.195312" xlink:href="#DejaVuSans-73"/>
     <use x="302.294922" xlink:href="#DejaVuSans-74"/>
     <use x="341.503906" xlink:href="#DejaVuSans-61"/>
     <use x="402.783203" xlink:href="#DejaVuSans-6e"/>
     <use x="466.162109" xlink:href="#DejaVuSans-63"/>
     <use x="521.142578" xlink:href="#DejaVuSans-65"/>
     <use x="582.666016" xlink:href="#DejaVuSans-73"/>
    </g>
   </g>
   <g id="text_21">
    <!-- v2.2.1.10 -->
    <g style="fill:#808080;" transform="translate(204.419188 290.099912)scale(0.1 -0.1)">
     <use xlink:href="#DejaVuSans-76"/>
     <use x="59.179688" xlink:href="#DejaVuSans-32"/>
     <use x="122.802734" xlink:href="#DejaVuSans-2e"/>
     <use x="154.589844" xlink:href="#DejaVuSans-32"/>
     <use x="218.212891" xlink:href="#DejaVuSans-2e"/>
     <use x="250" xlink:href="#DejaVuSans-31"/>
     <use x="313.623047" xlink:href="#DejaVuSans-2e"/>
     <use x="345.410156" xlink:href="#DejaVuSans-31"/>
     <use x="409.033203" xlink:href="#DejaVuSans-30"/>
    </g>
   </g>
   <g id="text_22">
    <!-- 22 Gallagher 21 peaks -->
    <defs>
     <path d="M 59.515625 10.40625 
L 59.515625 29.984375 
L 43.40625 29.984375 
L 43.40625 38.09375 
L 69.28125 38.09375 
L 69.28125 6.78125 
Q 63.578125 2.734375 56.6875 0.65625 
Q 49.8125 -1.421875 42 -1.421875 
Q 24.90625 -1.421875 15.25 8.5625 
Q 5.609375 18.5625 5.609375 36.375 
Q 5.609375 54.25 15.25 64.234375 
Q 24.90625 74.21875 42 74.21875 
Q 49.125 74.21875 55.546875 72.453125 
Q 61.96875 70.703125 67.390625 67.28125 
L 67.390625 56.78125 
Q 61.921875 61.421875 55.765625 63.765625 
Q 49.609375 66.109375 42.828125 66.109375 
Q 29.4375 66.109375 22.71875 58.640625 
Q 16.015625 51.171875 16.015625 36.375 
Q 16.015625 21.625 22.71875 14.15625 
Q 29.4375 6.6875 42.828125 6.6875 
Q 48.046875 6.6875 52.140625 7.59375 
Q 56.25 8.5 59.515625 10.40625 
z
" id="DejaVuSans-47"/>
     <path d="M 54.890625 33.015625 
L 54.890625 0 
L 45.90625 0 
L 45.90625 32.71875 
Q 45.90625 40.484375 42.875 44.328125 
Q 39.84375 48.1875 33.796875 48.1875 
Q 26.515625 48.1875 22.3125 43.546875 
Q 18.109375 38.921875 18.109375 30.90625 
L 18.109375 0 
L 9.078125 0 
L 9.078125 75.984375 
L 18.109375 75.984375 
L 18.109375 46.1875 
Q 21.34375 51.125 25.703125 53.5625 
Q 30.078125 56 35.796875 56 
Q 45.21875 56 50.046875 50.171875 
Q 54.890625 44.34375 54.890625 33.015625 
z
" id="DejaVuSans-68"/>
     <path d="M 9.078125 75.984375 
L 18.109375 75.984375 
L 18.109375 31.109375 
L 44.921875 54.6875 
L 56.390625 54.6875 
L 27.390625 29.109375 
L 57.625 0 
L 45.90625 0 
L 18.109375 26.703125 
L 18.109375 0 
L 9.078125 0 
z
" id="DejaVuSans-6b"/>
    </defs>
    <g transform="translate(114.927 18.84)scale(0.2 -0.2)">
     <use xlink:href="#DejaVuSans-32"/>
     <use x="63.623047" xlink:href="#DejaVuSans-32"/>
     <use x="127.246094" xlink:href="#DejaVuSans-20"/>
     <use x="159.033203" xlink:href="#DejaVuSans-47"/>
     <use x="236.523438" xlink:href="#DejaVuSans-61"/>
     <use x="297.802734" xlink:href="#DejaVuSans-6c"/>
     <use x="325.585938" xlink:href="#DejaVuSans-6c"/>
     <use x="353.369141" xlink:href="#DejaVuSans-61"/>
     <use x="414.648438" xlink:href="#DejaVuSans-67"/>
     <use x="478.125" xlink:href="#DejaVuSans-68"/>
     <use x="541.503906" xlink:href="#DejaVuSans-65"/>
     <use x="603.027344" xlink:href="#DejaVuSans-72"/>
     <use x="644.140625" xlink:href="#DejaVuSans-20"/>
     <use x="675.927734" xlink:href="#DejaVuSans-32"/>
     <use x="739.550781" xlink:href="#DejaVuSans-31"/>
     <use x="803.173828" xlink:href="#DejaVuSans-20"/>
     <use x="834.960938" xlink:href="#DejaVuSans-70"/>
     <use x="898.4375" xlink:href="#DejaVuSans-65"/>
     <use x="959.960938" xlink:href="#DejaVuSans-61"/>
     <use x="1021.240234" xlink:href="#DejaVuSans-6b"/>
     <use x="1079.150391" xlink:href="#DejaVuSans-73"/>
    </g>
   </g>
  </g>
 </g>
 <defs>
  <clipPath id="p694832947e">
   <rect height="270.04" width="343.864" x="56.12" y="24.84"/>
  </clipPath>
 </defs>
</svg>
