<?xml version="1.0" encoding="utf-8" standalone="no"?>
<!DOCTYPE svg PUBLIC "-//W3C//DTD SVG 1.1//EN"
  "http://www.w3.org/Graphics/SVG/1.1/DTD/svg11.dtd">
<!-- Created with matplotlib (http://matplotlib.org/) -->
<svg height="345.6pt" version="1.1" viewBox="0 0 460.8 345.6" width="460.8pt" xmlns="http://www.w3.org/2000/svg" xmlns:xlink="http://www.w3.org/1999/xlink">
 <defs>
  <style type="text/css">
*{stroke-linecap:butt;stroke-linejoin:round;}
  </style>
 </defs>
 <g id="figure_1">
  <g id="patch_1">
   <path d="M 0 345.6 
L 460.8 345.6 
L 460.8 0 
L 0 0 
z
" style="fill:#ffffff;"/>
  </g>
  <g id="axes_1">
   <g id="patch_2">
    <path d="M 56.12 294.88 
L 399.984 294.88 
L 399.984 24.84 
L 56.12 24.84 
z
" style="fill:#ffffff;"/>
   </g>
   <g id="matplotlib.axis_1">
    <g id="xtick_1">
     <g id="line2d_1">
      <path clip-path="url(#p79d2ce6b3d)" d="M 56.12 294.88 
L 56.12 24.84 
" style="fill:none;stroke:#b0b0b0;stroke-linecap:square;stroke-width:0.8;"/>
     </g>
     <g id="line2d_2">
      <defs>
       <path d="M 0 0 
L 0 3.5 
" id="m6fa74b2b66" style="stroke:#000000;stroke-width:0.8;"/>
      </defs>
      <g>
       <use style="stroke:#000000;stroke-width:0.8;" x="56.12" xlink:href="#m6fa74b2b66" y="294.88"/>
      </g>
     </g>
     <g id="text_1">
      <!-- 0 -->
      <defs>
       <path d="M 31.78125 66.40625 
Q 24.171875 66.40625 20.328125 58.90625 
Q 16.5 51.421875 16.5 36.375 
Q 16.5 21.390625 20.328125 13.890625 
Q 24.171875 6.390625 31.78125 6.390625 
Q 39.453125 6.390625 43.28125 13.890625 
Q 47.125 21.390625 47.125 36.375 
Q 47.125 51.421875 43.28125 58.90625 
Q 39.453125 66.40625 31.78125 66.40625 
z
M 31.78125 74.21875 
Q 44.046875 74.21875 50.515625 64.515625 
Q 56.984375 54.828125 56.984375 36.375 
Q 56.984375 17.96875 50.515625 8.265625 
Q 44.046875 -1.421875 31.78125 -1.421875 
Q 19.53125 -1.421875 13.0625 8.265625 
Q 6.59375 17.96875 6.59375 36.375 
Q 6.59375 54.828125 13.0625 64.515625 
Q 19.53125 74.21875 31.78125 74.21875 
z
" id="DejaVuSans-30"/>
      </defs>
      <g transform="translate(49.7575 317.076875)scale(0.2 -0.2)">
       <use xlink:href="#DejaVuSans-30"/>
      </g>
     </g>
    </g>
    <g id="xtick_2">
     <g id="line2d_3">
      <path clip-path="url(#p79d2ce6b3d)" d="M 135.351336 294.88 
L 135.351336 24.84 
" style="fill:none;stroke:#b0b0b0;stroke-linecap:square;stroke-width:0.8;"/>
     </g>
     <g id="line2d_4">
      <g>
       <use style="stroke:#000000;stroke-width:0.8;" x="135.351336" xlink:href="#m6fa74b2b66" y="294.88"/>
      </g>
     </g>
     <g id="text_2">
      <!-- 2 -->
      <defs>
       <path d="M 19.1875 8.296875 
L 53.609375 8.296875 
L 53.609375 0 
L 7.328125 0 
L 7.328125 8.296875 
Q 12.9375 14.109375 22.625 23.890625 
Q 32.328125 33.6875 34.8125 36.53125 
Q 39.546875 41.84375 41.421875 45.53125 
Q 43.3125 49.21875 43.3125 52.78125 
Q 43.3125 58.59375 39.234375 62.25 
Q 35.15625 65.921875 28.609375 65.921875 
Q 23.96875 65.921875 18.8125 64.3125 
Q 13.671875 62.703125 7.8125 59.421875 
L 7.8125 69.390625 
Q 13.765625 71.78125 18.9375 73 
Q 24.125 74.21875 28.421875 74.21875 
Q 39.75 74.21875 46.484375 68.546875 
Q 53.21875 62.890625 53.21875 53.421875 
Q 53.21875 48.921875 51.53125 44.890625 
Q 49.859375 40.875 45.40625 35.40625 
Q 44.1875 33.984375 37.640625 27.21875 
Q 31.109375 20.453125 19.1875 8.296875 
z
" id="DejaVuSans-32"/>
      </defs>
      <g transform="translate(128.988836 317.076875)scale(0.2 -0.2)">
       <use xlink:href="#DejaVuSans-32"/>
      </g>
     </g>
    </g>
    <g id="xtick_3">
     <g id="line2d_5">
      <path clip-path="url(#p79d2ce6b3d)" d="M 214.582673 294.88 
L 214.582673 24.84 
" style="fill:none;stroke:#b0b0b0;stroke-linecap:square;stroke-width:0.8;"/>
     </g>
     <g id="line2d_6">
      <g>
       <use style="stroke:#000000;stroke-width:0.8;" x="214.582673" xlink:href="#m6fa74b2b66" y="294.88"/>
      </g>
     </g>
     <g id="text_3">
      <!-- 4 -->
      <defs>
       <path d="M 37.796875 64.3125 
L 12.890625 25.390625 
L 37.796875 25.390625 
z
M 35.203125 72.90625 
L 47.609375 72.90625 
L 47.609375 25.390625 
L 58.015625 25.390625 
L 58.015625 17.1875 
L 47.609375 17.1875 
L 47.609375 0 
L 37.796875 0 
L 37.796875 17.1875 
L 4.890625 17.1875 
L 4.890625 26.703125 
z
" id="DejaVuSans-34"/>
      </defs>
      <g transform="translate(208.220173 317.076875)scale(0.2 -0.2)">
       <use xlink:href="#DejaVuSans-34"/>
      </g>
     </g>
    </g>
    <g id="xtick_4">
     <g id="line2d_7">
      <path clip-path="url(#p79d2ce6b3d)" d="M 293.814009 294.88 
L 293.814009 24.84 
" style="fill:none;stroke:#b0b0b0;stroke-linecap:square;stroke-width:0.8;"/>
     </g>
     <g id="line2d_8">
      <g>
       <use style="stroke:#000000;stroke-width:0.8;" x="293.814009" xlink:href="#m6fa74b2b66" y="294.88"/>
      </g>
     </g>
     <g id="text_4">
      <!-- 6 -->
      <defs>
       <path d="M 33.015625 40.375 
Q 26.375 40.375 22.484375 35.828125 
Q 18.609375 31.296875 18.609375 23.390625 
Q 18.609375 15.53125 22.484375 10.953125 
Q 26.375 6.390625 33.015625 6.390625 
Q 39.65625 6.390625 43.53125 10.953125 
Q 47.40625 15.53125 47.40625 23.390625 
Q 47.40625 31.296875 43.53125 35.828125 
Q 39.65625 40.375 33.015625 40.375 
z
M 52.59375 71.296875 
L 52.59375 62.3125 
Q 48.875 64.0625 45.09375 64.984375 
Q 41.3125 65.921875 37.59375 65.921875 
Q 27.828125 65.921875 22.671875 59.328125 
Q 17.53125 52.734375 16.796875 39.40625 
Q 19.671875 43.65625 24.015625 45.921875 
Q 28.375 48.1875 33.59375 48.1875 
Q 44.578125 48.1875 50.953125 41.515625 
Q 57.328125 34.859375 57.328125 23.390625 
Q 57.328125 12.15625 50.6875 5.359375 
Q 44.046875 -1.421875 33.015625 -1.421875 
Q 20.359375 -1.421875 13.671875 8.265625 
Q 6.984375 17.96875 6.984375 36.375 
Q 6.984375 53.65625 15.1875 63.9375 
Q 23.390625 74.21875 37.203125 74.21875 
Q 40.921875 74.21875 44.703125 73.484375 
Q 48.484375 72.75 52.59375 71.296875 
z
" id="DejaVuSans-36"/>
      </defs>
      <g transform="translate(287.451509 317.076875)scale(0.2 -0.2)">
       <use xlink:href="#DejaVuSans-36"/>
      </g>
     </g>
    </g>
    <g id="xtick_5">
     <g id="line2d_9">
      <path clip-path="url(#p79d2ce6b3d)" d="M 373.045346 294.88 
L 373.045346 24.84 
" style="fill:none;stroke:#b0b0b0;stroke-linecap:square;stroke-width:0.8;"/>
     </g>
     <g id="line2d_10">
      <g>
       <use style="stroke:#000000;stroke-width:0.8;" x="373.045346" xlink:href="#m6fa74b2b66" y="294.88"/>
      </g>
     </g>
     <g id="text_5">
      <!-- 8 -->
      <defs>
       <path d="M 31.78125 34.625 
Q 24.75 34.625 20.71875 30.859375 
Q 16.703125 27.09375 16.703125 20.515625 
Q 16.703125 13.921875 20.71875 10.15625 
Q 24.75 6.390625 31.78125 6.390625 
Q 38.8125 6.390625 42.859375 10.171875 
Q 46.921875 13.96875 46.921875 20.515625 
Q 46.921875 27.09375 42.890625 30.859375 
Q 38.875 34.625 31.78125 34.625 
z
M 21.921875 38.8125 
Q 15.578125 40.375 12.03125 44.71875 
Q 8.5 49.078125 8.5 55.328125 
Q 8.5 64.0625 14.71875 69.140625 
Q 20.953125 74.21875 31.78125 74.21875 
Q 42.671875 74.21875 48.875 69.140625 
Q 55.078125 64.0625 55.078125 55.328125 
Q 55.078125 49.078125 51.53125 44.71875 
Q 48 40.375 41.703125 38.8125 
Q 48.828125 37.15625 52.796875 32.3125 
Q 56.78125 27.484375 56.78125 20.515625 
Q 56.78125 9.90625 50.3125 4.234375 
Q 43.84375 -1.421875 31.78125 -1.421875 
Q 19.734375 -1.421875 13.25 4.234375 
Q 6.78125 9.90625 6.78125 20.515625 
Q 6.78125 27.484375 10.78125 32.3125 
Q 14.796875 37.15625 21.921875 38.8125 
z
M 18.3125 54.390625 
Q 18.3125 48.734375 21.84375 45.5625 
Q 25.390625 42.390625 31.78125 42.390625 
Q 38.140625 42.390625 41.71875 45.5625 
Q 45.3125 48.734375 45.3125 54.390625 
Q 45.3125 60.0625 41.71875 63.234375 
Q 38.140625 66.40625 31.78125 66.40625 
Q 25.390625 66.40625 21.84375 63.234375 
Q 18.3125 60.0625 18.3125 54.390625 
z
" id="DejaVuSans-38"/>
      </defs>
      <g transform="translate(366.682846 317.076875)scale(0.2 -0.2)">
       <use xlink:href="#DejaVuSans-38"/>
      </g>
     </g>
    </g>
    <g id="text_6">
     <!-- log10(# f-evals / dimension) -->
     <defs>
      <path d="M 9.421875 75.984375 
L 18.40625 75.984375 
L 18.40625 0 
L 9.421875 0 
z
" id="DejaVuSans-6c"/>
      <path d="M 30.609375 48.390625 
Q 23.390625 48.390625 19.1875 42.75 
Q 14.984375 37.109375 14.984375 27.296875 
Q 14.984375 17.484375 19.15625 11.84375 
Q 23.34375 6.203125 30.609375 6.203125 
Q 37.796875 6.203125 41.984375 11.859375 
Q 46.1875 17.53125 46.1875 27.296875 
Q 46.1875 37.015625 41.984375 42.703125 
Q 37.796875 48.390625 30.609375 48.390625 
z
M 30.609375 56 
Q 42.328125 56 49.015625 48.375 
Q 55.71875 40.765625 55.71875 27.296875 
Q 55.71875 13.875 49.015625 6.21875 
Q 42.328125 -1.421875 30.609375 -1.421875 
Q 18.84375 -1.421875 12.171875 6.21875 
Q 5.515625 13.875 5.515625 27.296875 
Q 5.515625 40.765625 12.171875 48.375 
Q 18.84375 56 30.609375 56 
z
" id="DejaVuSans-6f"/>
      <path d="M 45.40625 27.984375 
Q 45.40625 37.75 41.375 43.109375 
Q 37.359375 48.484375 30.078125 48.484375 
Q 22.859375 48.484375 18.828125 43.109375 
Q 14.796875 37.75 14.796875 27.984375 
Q 14.796875 18.265625 18.828125 12.890625 
Q 22.859375 7.515625 30.078125 7.515625 
Q 37.359375 7.515625 41.375 12.890625 
Q 45.40625 18.265625 45.40625 27.984375 
z
M 54.390625 6.78125 
Q 54.390625 -7.171875 48.1875 -13.984375 
Q 42 -20.796875 29.203125 -20.796875 
Q 24.46875 -20.796875 20.265625 -20.09375 
Q 16.0625 -19.390625 12.109375 -17.921875 
L 12.109375 -9.1875 
Q 16.0625 -11.328125 19.921875 -12.34375 
Q 23.78125 -13.375 27.78125 -13.375 
Q 36.625 -13.375 41.015625 -8.765625 
Q 45.40625 -4.15625 45.40625 5.171875 
L 45.40625 9.625 
Q 42.625 4.78125 38.28125 2.390625 
Q 33.9375 0 27.875 0 
Q 17.828125 0 11.671875 7.65625 
Q 5.515625 15.328125 5.515625 27.984375 
Q 5.515625 40.671875 11.671875 48.328125 
Q 17.828125 56 27.875 56 
Q 33.9375 56 38.28125 53.609375 
Q 42.625 51.21875 45.40625 46.390625 
L 45.40625 54.6875 
L 54.390625 54.6875 
z
" id="DejaVuSans-67"/>
      <path d="M 12.40625 8.296875 
L 28.515625 8.296875 
L 28.515625 63.921875 
L 10.984375 60.40625 
L 10.984375 69.390625 
L 28.421875 72.90625 
L 38.28125 72.90625 
L 38.28125 8.296875 
L 54.390625 8.296875 
L 54.390625 0 
L 12.40625 0 
z
" id="DejaVuSans-31"/>
      <path d="M 31 75.875 
Q 24.46875 64.65625 21.28125 53.65625 
Q 18.109375 42.671875 18.109375 31.390625 
Q 18.109375 20.125 21.3125 9.0625 
Q 24.515625 -2 31 -13.1875 
L 23.1875 -13.1875 
Q 15.875 -1.703125 12.234375 9.375 
Q 8.59375 20.453125 8.59375 31.390625 
Q 8.59375 42.28125 12.203125 53.3125 
Q 15.828125 64.359375 23.1875 75.875 
z
" id="DejaVuSans-28"/>
      <path d="M 51.125 44 
L 36.921875 44 
L 32.8125 27.6875 
L 47.125 27.6875 
z
M 43.796875 71.78125 
L 38.71875 51.515625 
L 52.984375 51.515625 
L 58.109375 71.78125 
L 65.921875 71.78125 
L 60.890625 51.515625 
L 76.125 51.515625 
L 76.125 44 
L 58.984375 44 
L 54.984375 27.6875 
L 70.515625 27.6875 
L 70.515625 20.21875 
L 53.078125 20.21875 
L 48 0 
L 40.1875 0 
L 45.21875 20.21875 
L 30.90625 20.21875 
L 25.875 0 
L 18.015625 0 
L 23.09375 20.21875 
L 7.71875 20.21875 
L 7.71875 27.6875 
L 24.90625 27.6875 
L 29 44 
L 13.28125 44 
L 13.28125 51.515625 
L 30.90625 51.515625 
L 35.890625 71.78125 
z
" id="DejaVuSans-23"/>
      <path id="DejaVuSans-20"/>
      <path d="M 37.109375 75.984375 
L 37.109375 68.5 
L 28.515625 68.5 
Q 23.6875 68.5 21.796875 66.546875 
Q 19.921875 64.59375 19.921875 59.515625 
L 19.921875 54.6875 
L 34.71875 54.6875 
L 34.71875 47.703125 
L 19.921875 47.703125 
L 19.921875 0 
L 10.890625 0 
L 10.890625 47.703125 
L 2.296875 47.703125 
L 2.296875 54.6875 
L 10.890625 54.6875 
L 10.890625 58.5 
Q 10.890625 67.625 15.140625 71.796875 
Q 19.390625 75.984375 28.609375 75.984375 
z
" id="DejaVuSans-66"/>
      <path d="M 4.890625 31.390625 
L 31.203125 31.390625 
L 31.203125 23.390625 
L 4.890625 23.390625 
z
" id="DejaVuSans-2d"/>
      <path d="M 56.203125 29.59375 
L 56.203125 25.203125 
L 14.890625 25.203125 
Q 15.484375 15.921875 20.484375 11.0625 
Q 25.484375 6.203125 34.421875 6.203125 
Q 39.59375 6.203125 44.453125 7.46875 
Q 49.3125 8.734375 54.109375 11.28125 
L 54.109375 2.78125 
Q 49.265625 0.734375 44.1875 -0.34375 
Q 39.109375 -1.421875 33.890625 -1.421875 
Q 20.796875 -1.421875 13.15625 6.1875 
Q 5.515625 13.8125 5.515625 26.8125 
Q 5.515625 40.234375 12.765625 48.109375 
Q 20.015625 56 32.328125 56 
Q 43.359375 56 49.78125 48.890625 
Q 56.203125 41.796875 56.203125 29.59375 
z
M 47.21875 32.234375 
Q 47.125 39.59375 43.09375 43.984375 
Q 39.0625 48.390625 32.421875 48.390625 
Q 24.90625 48.390625 20.390625 44.140625 
Q 15.875 39.890625 15.1875 32.171875 
z
" id="DejaVuSans-65"/>
      <path d="M 2.984375 54.6875 
L 12.5 54.6875 
L 29.59375 8.796875 
L 46.6875 54.6875 
L 56.203125 54.6875 
L 35.6875 0 
L 23.484375 0 
z
" id="DejaVuSans-76"/>
      <path d="M 34.28125 27.484375 
Q 23.390625 27.484375 19.1875 25 
Q 14.984375 22.515625 14.984375 16.5 
Q 14.984375 11.71875 18.140625 8.90625 
Q 21.296875 6.109375 26.703125 6.109375 
Q 34.1875 6.109375 38.703125 11.40625 
Q 43.21875 16.703125 43.21875 25.484375 
L 43.21875 27.484375 
z
M 52.203125 31.203125 
L 52.203125 0 
L 43.21875 0 
L 43.21875 8.296875 
Q 40.140625 3.328125 35.546875 0.953125 
Q 30.953125 -1.421875 24.3125 -1.421875 
Q 15.921875 -1.421875 10.953125 3.296875 
Q 6 8.015625 6 15.921875 
Q 6 25.140625 12.171875 29.828125 
Q 18.359375 34.515625 30.609375 34.515625 
L 43.21875 34.515625 
L 43.21875 35.40625 
Q 43.21875 41.609375 39.140625 45 
Q 35.0625 48.390625 27.6875 48.390625 
Q 23 48.390625 18.546875 47.265625 
Q 14.109375 46.140625 10.015625 43.890625 
L 10.015625 52.203125 
Q 14.9375 54.109375 19.578125 55.046875 
Q 24.21875 56 28.609375 56 
Q 40.484375 56 46.34375 49.84375 
Q 52.203125 43.703125 52.203125 31.203125 
z
" id="DejaVuSans-61"/>
      <path d="M 44.28125 53.078125 
L 44.28125 44.578125 
Q 40.484375 46.53125 36.375 47.5 
Q 32.28125 48.484375 27.875 48.484375 
Q 21.1875 48.484375 17.84375 46.4375 
Q 14.5 44.390625 14.5 40.28125 
Q 14.5 37.15625 16.890625 35.375 
Q 19.28125 33.59375 26.515625 31.984375 
L 29.59375 31.296875 
Q 39.15625 29.25 43.1875 25.515625 
Q 47.21875 21.78125 47.21875 15.09375 
Q 47.21875 7.46875 41.1875 3.015625 
Q 35.15625 -1.421875 24.609375 -1.421875 
Q 20.21875 -1.421875 15.453125 -0.5625 
Q 10.6875 0.296875 5.421875 2 
L 5.421875 11.28125 
Q 10.40625 8.6875 15.234375 7.390625 
Q 20.0625 6.109375 24.8125 6.109375 
Q 31.15625 6.109375 34.5625 8.28125 
Q 37.984375 10.453125 37.984375 14.40625 
Q 37.984375 18.0625 35.515625 20.015625 
Q 33.0625 21.96875 24.703125 23.78125 
L 21.578125 24.515625 
Q 13.234375 26.265625 9.515625 29.90625 
Q 5.8125 33.546875 5.8125 39.890625 
Q 5.8125 47.609375 11.28125 51.796875 
Q 16.75 56 26.8125 56 
Q 31.78125 56 36.171875 55.265625 
Q 40.578125 54.546875 44.28125 53.078125 
z
" id="DejaVuSans-73"/>
      <path d="M 25.390625 72.90625 
L 33.6875 72.90625 
L 8.296875 -9.28125 
L 0 -9.28125 
z
" id="DejaVuSans-2f"/>
      <path d="M 45.40625 46.390625 
L 45.40625 75.984375 
L 54.390625 75.984375 
L 54.390625 0 
L 45.40625 0 
L 45.40625 8.203125 
Q 42.578125 3.328125 38.25 0.953125 
Q 33.9375 -1.421875 27.875 -1.421875 
Q 17.96875 -1.421875 11.734375 6.484375 
Q 5.515625 14.40625 5.515625 27.296875 
Q 5.515625 40.1875 11.734375 48.09375 
Q 17.96875 56 27.875 56 
Q 33.9375 56 38.25 53.625 
Q 42.578125 51.265625 45.40625 46.390625 
z
M 14.796875 27.296875 
Q 14.796875 17.390625 18.875 11.75 
Q 22.953125 6.109375 30.078125 6.109375 
Q 37.203125 6.109375 41.296875 11.75 
Q 45.40625 17.390625 45.40625 27.296875 
Q 45.40625 37.203125 41.296875 42.84375 
Q 37.203125 48.484375 30.078125 48.484375 
Q 22.953125 48.484375 18.875 42.84375 
Q 14.796875 37.203125 14.796875 27.296875 
z
" id="DejaVuSans-64"/>
      <path d="M 9.421875 54.6875 
L 18.40625 54.6875 
L 18.40625 0 
L 9.421875 0 
z
M 9.421875 75.984375 
L 18.40625 75.984375 
L 18.40625 64.59375 
L 9.421875 64.59375 
z
" id="DejaVuSans-69"/>
      <path d="M 52 44.1875 
Q 55.375 50.25 60.0625 53.125 
Q 64.75 56 71.09375 56 
Q 79.640625 56 84.28125 50.015625 
Q 88.921875 44.046875 88.921875 33.015625 
L 88.921875 0 
L 79.890625 0 
L 79.890625 32.71875 
Q 79.890625 40.578125 77.09375 44.375 
Q 74.3125 48.1875 68.609375 48.1875 
Q 61.625 48.1875 57.5625 43.546875 
Q 53.515625 38.921875 53.515625 30.90625 
L 53.515625 0 
L 44.484375 0 
L 44.484375 32.71875 
Q 44.484375 40.625 41.703125 44.40625 
Q 38.921875 48.1875 33.109375 48.1875 
Q 26.21875 48.1875 22.15625 43.53125 
Q 18.109375 38.875 18.109375 30.90625 
L 18.109375 0 
L 9.078125 0 
L 9.078125 54.6875 
L 18.109375 54.6875 
L 18.109375 46.1875 
Q 21.1875 51.21875 25.484375 53.609375 
Q 29.78125 56 35.6875 56 
Q 41.65625 56 45.828125 52.96875 
Q 50 49.953125 52 44.1875 
z
" id="DejaVuSans-6d"/>
      <path d="M 54.890625 33.015625 
L 54.890625 0 
L 45.90625 0 
L 45.90625 32.71875 
Q 45.90625 40.484375 42.875 44.328125 
Q 39.84375 48.1875 33.796875 48.1875 
Q 26.515625 48.1875 22.3125 43.546875 
Q 18.109375 38.921875 18.109375 30.90625 
L 18.109375 0 
L 9.078125 0 
L 9.078125 54.6875 
L 18.109375 54.6875 
L 18.109375 46.1875 
Q 21.34375 51.125 25.703125 53.5625 
Q 30.078125 56 35.796875 56 
Q 45.21875 56 50.046875 50.171875 
Q 54.890625 44.34375 54.890625 33.015625 
z
" id="DejaVuSans-6e"/>
      <path d="M 8.015625 75.875 
L 15.828125 75.875 
Q 23.140625 64.359375 26.78125 53.3125 
Q 30.421875 42.28125 30.421875 31.390625 
Q 30.421875 20.453125 26.78125 9.375 
Q 23.140625 -1.703125 15.828125 -13.1875 
L 8.015625 -13.1875 
Q 14.5 -2 17.703125 9.0625 
Q 20.90625 20.125 20.90625 31.390625 
Q 20.90625 42.671875 17.703125 53.65625 
Q 14.5 64.65625 8.015625 75.875 
z
" id="DejaVuSans-29"/>
     </defs>
     <g transform="translate(107.211219 338.153594)scale(0.17 -0.17)">
      <use xlink:href="#DejaVuSans-6c"/>
      <use x="27.783203" xlink:href="#DejaVuSans-6f"/>
      <use x="88.964844" xlink:href="#DejaVuSans-67"/>
      <use x="152.441406" xlink:href="#DejaVuSans-31"/>
      <use x="216.064453" xlink:href="#DejaVuSans-30"/>
      <use x="279.6875" xlink:href="#DejaVuSans-28"/>
      <use x="318.701172" xlink:href="#DejaVuSans-23"/>
      <use x="402.490234" xlink:href="#DejaVuSans-20"/>
      <use x="434.277344" xlink:href="#DejaVuSans-66"/>
      <use x="469.404297" xlink:href="#DejaVuSans-2d"/>
      <use x="505.488281" xlink:href="#DejaVuSans-65"/>
      <use x="567.011719" xlink:href="#DejaVuSans-76"/>
      <use x="626.191406" xlink:href="#DejaVuSans-61"/>
      <use x="687.470703" xlink:href="#DejaVuSans-6c"/>
      <use x="715.253906" xlink:href="#DejaVuSans-73"/>
      <use x="767.353516" xlink:href="#DejaVuSans-20"/>
      <use x="799.140625" xlink:href="#DejaVuSans-2f"/>
      <use x="832.832031" xlink:href="#DejaVuSans-20"/>
      <use x="864.619141" xlink:href="#DejaVuSans-64"/>
      <use x="928.095703" xlink:href="#DejaVuSans-69"/>
      <use x="955.878906" xlink:href="#DejaVuSans-6d"/>
      <use x="1053.291016" xlink:href="#DejaVuSans-65"/>
      <use x="1114.814453" xlink:href="#DejaVuSans-6e"/>
      <use x="1178.193359" xlink:href="#DejaVuSans-73"/>
      <use x="1230.292969" xlink:href="#DejaVuSans-69"/>
      <use x="1258.076172" xlink:href="#DejaVuSans-6f"/>
      <use x="1319.257812" xlink:href="#DejaVuSans-6e"/>
      <use x="1382.636719" xlink:href="#DejaVuSans-29"/>
     </g>
    </g>
   </g>
   <g id="matplotlib.axis_2">
    <g id="ytick_1">
     <g id="line2d_11">
      <path clip-path="url(#p79d2ce6b3d)" d="M 56.12 294.88 
L 399.984 294.88 
" style="fill:none;stroke:#b0b0b0;stroke-linecap:square;stroke-width:0.8;"/>
     </g>
     <g id="line2d_12">
      <defs>
       <path d="M 0 0 
L -3.5 0 
" id="m959a6a35ad" style="stroke:#000000;stroke-width:0.8;"/>
      </defs>
      <g>
       <use style="stroke:#000000;stroke-width:0.8;" x="56.12" xlink:href="#m959a6a35ad" y="294.88"/>
      </g>
     </g>
     <g id="text_7">
      <!-- 0.0 -->
      <defs>
       <path d="M 10.6875 12.40625 
L 21 12.40625 
L 21 0 
L 10.6875 0 
z
" id="DejaVuSans-2e"/>
      </defs>
      <g transform="translate(23.675 300.95875)scale(0.16 -0.16)">
       <use xlink:href="#DejaVuSans-30"/>
       <use x="63.623047" xlink:href="#DejaVuSans-2e"/>
       <use x="95.410156" xlink:href="#DejaVuSans-30"/>
      </g>
     </g>
    </g>
    <g id="ytick_2">
     <g id="line2d_13">
      <path clip-path="url(#p79d2ce6b3d)" d="M 56.12 241.406733 
L 399.984 241.406733 
" style="fill:none;stroke:#b0b0b0;stroke-linecap:square;stroke-width:0.8;"/>
     </g>
     <g id="line2d_14">
      <g>
       <use style="stroke:#000000;stroke-width:0.8;" x="56.12" xlink:href="#m959a6a35ad" y="241.406733"/>
      </g>
     </g>
     <g id="text_8">
      <!-- 0.2 -->
      <g transform="translate(23.675 247.485483)scale(0.16 -0.16)">
       <use xlink:href="#DejaVuSans-30"/>
       <use x="63.623047" xlink:href="#DejaVuSans-2e"/>
       <use x="95.410156" xlink:href="#DejaVuSans-32"/>
      </g>
     </g>
    </g>
    <g id="ytick_3">
     <g id="line2d_15">
      <path clip-path="url(#p79d2ce6b3d)" d="M 56.12 187.933465 
L 399.984 187.933465 
" style="fill:none;stroke:#b0b0b0;stroke-linecap:square;stroke-width:0.8;"/>
     </g>
     <g id="line2d_16">
      <g>
       <use style="stroke:#000000;stroke-width:0.8;" x="56.12" xlink:href="#m959a6a35ad" y="187.933465"/>
      </g>
     </g>
     <g id="text_9">
      <!-- 0.4 -->
      <g transform="translate(23.675 194.012215)scale(0.16 -0.16)">
       <use xlink:href="#DejaVuSans-30"/>
       <use x="63.623047" xlink:href="#DejaVuSans-2e"/>
       <use x="95.410156" xlink:href="#DejaVuSans-34"/>
      </g>
     </g>
    </g>
    <g id="ytick_4">
     <g id="line2d_17">
      <path clip-path="url(#p79d2ce6b3d)" d="M 56.12 134.460198 
L 399.984 134.460198 
" style="fill:none;stroke:#b0b0b0;stroke-linecap:square;stroke-width:0.8;"/>
     </g>
     <g id="line2d_18">
      <g>
       <use style="stroke:#000000;stroke-width:0.8;" x="56.12" xlink:href="#m959a6a35ad" y="134.460198"/>
      </g>
     </g>
     <g id="text_10">
      <!-- 0.6 -->
      <g transform="translate(23.675 140.538948)scale(0.16 -0.16)">
       <use xlink:href="#DejaVuSans-30"/>
       <use x="63.623047" xlink:href="#DejaVuSans-2e"/>
       <use x="95.410156" xlink:href="#DejaVuSans-36"/>
      </g>
     </g>
    </g>
    <g id="ytick_5">
     <g id="line2d_19">
      <path clip-path="url(#p79d2ce6b3d)" d="M 56.12 80.986931 
L 399.984 80.986931 
" style="fill:none;stroke:#b0b0b0;stroke-linecap:square;stroke-width:0.8;"/>
     </g>
     <g id="line2d_20">
      <g>
       <use style="stroke:#000000;stroke-width:0.8;" x="56.12" xlink:href="#m959a6a35ad" y="80.986931"/>
      </g>
     </g>
     <g id="text_11">
      <!-- 0.8 -->
      <g transform="translate(23.675 87.065681)scale(0.16 -0.16)">
       <use xlink:href="#DejaVuSans-30"/>
       <use x="63.623047" xlink:href="#DejaVuSans-2e"/>
       <use x="95.410156" xlink:href="#DejaVuSans-38"/>
      </g>
     </g>
    </g>
    <g id="ytick_6">
     <g id="line2d_21">
      <path clip-path="url(#p79d2ce6b3d)" d="M 56.12 27.513663 
L 399.984 27.513663 
" style="fill:none;stroke:#b0b0b0;stroke-linecap:square;stroke-width:0.8;"/>
     </g>
     <g id="line2d_22">
      <g>
       <use style="stroke:#000000;stroke-width:0.8;" x="56.12" xlink:href="#m959a6a35ad" y="27.513663"/>
      </g>
     </g>
     <g id="text_12">
      <!-- 1.0 -->
      <g transform="translate(23.675 33.592413)scale(0.16 -0.16)">
       <use xlink:href="#DejaVuSans-31"/>
       <use x="63.623047" xlink:href="#DejaVuSans-2e"/>
       <use x="95.410156" xlink:href="#DejaVuSans-30"/>
      </g>
     </g>
    </g>
    <g id="text_13">
     <!-- Fraction of function,target pairs -->
     <defs>
      <path d="M 9.8125 72.90625 
L 51.703125 72.90625 
L 51.703125 64.59375 
L 19.671875 64.59375 
L 19.671875 43.109375 
L 48.578125 43.109375 
L 48.578125 34.8125 
L 19.671875 34.8125 
L 19.671875 0 
L 9.8125 0 
z
" id="DejaVuSans-46"/>
      <path d="M 41.109375 46.296875 
Q 39.59375 47.171875 37.8125 47.578125 
Q 36.03125 48 33.890625 48 
Q 26.265625 48 22.1875 43.046875 
Q 18.109375 38.09375 18.109375 28.8125 
L 18.109375 0 
L 9.078125 0 
L 9.078125 54.6875 
L 18.109375 54.6875 
L 18.109375 46.1875 
Q 20.953125 51.171875 25.484375 53.578125 
Q 30.03125 56 36.53125 56 
Q 37.453125 56 38.578125 55.875 
Q 39.703125 55.765625 41.0625 55.515625 
z
" id="DejaVuSans-72"/>
      <path d="M 48.78125 52.59375 
L 48.78125 44.1875 
Q 44.96875 46.296875 41.140625 47.34375 
Q 37.3125 48.390625 33.40625 48.390625 
Q 24.65625 48.390625 19.8125 42.84375 
Q 14.984375 37.3125 14.984375 27.296875 
Q 14.984375 17.28125 19.8125 11.734375 
Q 24.65625 6.203125 33.40625 6.203125 
Q 37.3125 6.203125 41.140625 7.25 
Q 44.96875 8.296875 48.78125 10.40625 
L 48.78125 2.09375 
Q 45.015625 0.34375 40.984375 -0.53125 
Q 36.96875 -1.421875 32.421875 -1.421875 
Q 20.0625 -1.421875 12.78125 6.34375 
Q 5.515625 14.109375 5.515625 27.296875 
Q 5.515625 40.671875 12.859375 48.328125 
Q 20.21875 56 33.015625 56 
Q 37.15625 56 41.109375 55.140625 
Q 45.0625 54.296875 48.78125 52.59375 
z
" id="DejaVuSans-63"/>
      <path d="M 18.3125 70.21875 
L 18.3125 54.6875 
L 36.8125 54.6875 
L 36.8125 47.703125 
L 18.3125 47.703125 
L 18.3125 18.015625 
Q 18.3125 11.328125 20.140625 9.421875 
Q 21.96875 7.515625 27.59375 7.515625 
L 36.8125 7.515625 
L 36.8125 0 
L 27.59375 0 
Q 17.1875 0 13.234375 3.875 
Q 9.28125 7.765625 9.28125 18.015625 
L 9.28125 47.703125 
L 2.6875 47.703125 
L 2.6875 54.6875 
L 9.28125 54.6875 
L 9.28125 70.21875 
z
" id="DejaVuSans-74"/>
      <path d="M 8.5 21.578125 
L 8.5 54.6875 
L 17.484375 54.6875 
L 17.484375 21.921875 
Q 17.484375 14.15625 20.5 10.265625 
Q 23.53125 6.390625 29.59375 6.390625 
Q 36.859375 6.390625 41.078125 11.03125 
Q 45.3125 15.671875 45.3125 23.6875 
L 45.3125 54.6875 
L 54.296875 54.6875 
L 54.296875 0 
L 45.3125 0 
L 45.3125 8.40625 
Q 42.046875 3.421875 37.71875 1 
Q 33.40625 -1.421875 27.6875 -1.421875 
Q 18.265625 -1.421875 13.375 4.4375 
Q 8.5 10.296875 8.5 21.578125 
z
M 31.109375 56 
z
" id="DejaVuSans-75"/>
      <path d="M 11.71875 12.40625 
L 22.015625 12.40625 
L 22.015625 4 
L 14.015625 -11.625 
L 7.71875 -11.625 
L 11.71875 4 
z
" id="DejaVuSans-2c"/>
      <path d="M 18.109375 8.203125 
L 18.109375 -20.796875 
L 9.078125 -20.796875 
L 9.078125 54.6875 
L 18.109375 54.6875 
L 18.109375 46.390625 
Q 20.953125 51.265625 25.265625 53.625 
Q 29.59375 56 35.59375 56 
Q 45.5625 56 51.78125 48.09375 
Q 58.015625 40.1875 58.015625 27.296875 
Q 58.015625 14.40625 51.78125 6.484375 
Q 45.5625 -1.421875 35.59375 -1.421875 
Q 29.59375 -1.421875 25.265625 0.953125 
Q 20.953125 3.328125 18.109375 8.203125 
z
M 48.6875 27.296875 
Q 48.6875 37.203125 44.609375 42.84375 
Q 40.53125 48.484375 33.40625 48.484375 
Q 26.265625 48.484375 22.1875 42.84375 
Q 18.109375 37.203125 18.109375 27.296875 
Q 18.109375 17.390625 22.1875 11.75 
Q 26.265625 6.109375 33.40625 6.109375 
Q 40.53125 6.109375 44.609375 11.75 
Q 48.6875 17.390625 48.6875 27.296875 
z
" id="DejaVuSans-70"/>
     </defs>
     <g transform="translate(16.139531 294.999375)rotate(-90)scale(0.17 -0.17)">
      <use xlink:href="#DejaVuSans-46"/>
      <use x="57.410156" xlink:href="#DejaVuSans-72"/>
      <use x="98.523438" xlink:href="#DejaVuSans-61"/>
      <use x="159.802734" xlink:href="#DejaVuSans-63"/>
      <use x="214.783203" xlink:href="#DejaVuSans-74"/>
      <use x="253.992188" xlink:href="#DejaVuSans-69"/>
      <use x="281.775391" xlink:href="#DejaVuSans-6f"/>
      <use x="342.957031" xlink:href="#DejaVuSans-6e"/>
      <use x="406.335938" xlink:href="#DejaVuSans-20"/>
      <use x="438.123047" xlink:href="#DejaVuSans-6f"/>
      <use x="499.304688" xlink:href="#DejaVuSans-66"/>
      <use x="534.509766" xlink:href="#DejaVuSans-20"/>
      <use x="566.296875" xlink:href="#DejaVuSans-66"/>
      <use x="601.501953" xlink:href="#DejaVuSans-75"/>
      <use x="664.880859" xlink:href="#DejaVuSans-6e"/>
      <use x="728.259766" xlink:href="#DejaVuSans-63"/>
      <use x="783.240234" xlink:href="#DejaVuSans-74"/>
      <use x="822.449219" xlink:href="#DejaVuSans-69"/>
      <use x="850.232422" xlink:href="#DejaVuSans-6f"/>
      <use x="911.414062" xlink:href="#DejaVuSans-6e"/>
      <use x="974.792969" xlink:href="#DejaVuSans-2c"/>
      <use x="1006.580078" xlink:href="#DejaVuSans-74"/>
      <use x="1045.789062" xlink:href="#DejaVuSans-61"/>
      <use x="1107.068359" xlink:href="#DejaVuSans-72"/>
      <use x="1148.166016" xlink:href="#DejaVuSans-67"/>
      <use x="1211.642578" xlink:href="#DejaVuSans-65"/>
      <use x="1273.166016" xlink:href="#DejaVuSans-74"/>
      <use x="1312.375" xlink:href="#DejaVuSans-20"/>
      <use x="1344.162109" xlink:href="#DejaVuSans-70"/>
      <use x="1407.638672" xlink:href="#DejaVuSans-61"/>
      <use x="1468.917969" xlink:href="#DejaVuSans-69"/>
      <use x="1496.701172" xlink:href="#DejaVuSans-72"/>
      <use x="1537.814453" xlink:href="#DejaVuSans-73"/>
     </g>
    </g>
   </g>
   <g id="line2d_23">
    <defs>
     <path d="M 0 1.5 
C 0.397805 1.5 0.77937 1.341951 1.06066 1.06066 
C 1.341951 0.77937 1.5 0.397805 1.5 0 
C 1.5 -0.397805 1.341951 -0.77937 1.06066 -1.06066 
C 0.77937 -1.341951 0.397805 -1.5 0 -1.5 
C -0.397805 -1.5 -0.77937 -1.341951 -1.06066 -1.06066 
C -1.341951 -0.77937 -1.5 -0.397805 -1.5 0 
C -1.5 0.397805 -1.341951 0.77937 -1.06066 1.06066 
C -0.77937 1.341951 -0.397805 1.5 0 1.5 
z
" id="m7d708ec6c2" style="stroke:#00bfbf;"/>
    </defs>
    <g>
     <use style="fill:#00bfbf;stroke:#00bfbf;" x="147.362651" xlink:href="#m7d708ec6c2" y="27.513663"/>
     <use style="fill:#00bfbf;stroke:#00bfbf;" x="147.362651" xlink:href="#m7d708ec6c2" y="27.513663"/>
    </g>
   </g>
   <g id="line2d_24">
    <path d="M 56.12 294.88 
L 56.12 261.852394 
L 110.065758 261.852394 
L 110.065758 260.803898 
L 112.175115 260.803898 
L 112.175115 260.279651 
L 113.450132 260.279651 
L 113.450132 259.755403 
L 114.053874 259.755403 
L 114.053874 257.134164 
L 114.637146 257.134164 
L 114.637146 256.085669 
L 115.20129 256.085669 
L 115.20129 251.891687 
L 115.747522 251.891687 
L 115.747522 251.367439 
L 116.276944 251.367439 
L 116.276944 248.221953 
L 116.790561 248.221953 
L 116.790561 246.64921 
L 117.289287 246.64921 
L 117.289287 242.455228 
L 117.773963 242.455228 
L 117.773963 240.358237 
L 118.245359 240.358237 
L 118.245359 239.309742 
L 119.151088 239.309742 
L 119.151088 238.261246 
L 126.273486 238.261246 
L 126.273486 237.736999 
L 127.939774 237.736999 
L 127.939774 237.212751 
L 128.202449 237.212751 
L 128.202449 236.164255 
L 128.716065 236.164255 
L 128.716065 234.591512 
L 129.214792 234.591512 
L 129.214792 233.018769 
L 129.458837 233.018769 
L 129.458837 228.30054 
L 129.699468 228.30054 
L 129.699468 227.776292 
L 129.93678 227.776292 
L 129.93678 225.679301 
L 130.170864 225.679301 
L 130.170864 224.630806 
L 130.401805 224.630806 
L 130.401805 223.058063 
L 130.629687 223.058063 
L 130.629687 220.961072 
L 131.076592 220.961072 
L 131.076592 219.912576 
L 131.295765 219.912576 
L 131.295765 217.815585 
L 131.512181 217.815585 
L 131.512181 215.194347 
L 131.725909 215.194347 
L 131.725909 213.097356 
L 131.937015 213.097356 
L 131.937015 210.476117 
L 132.145561 210.476117 
L 132.145561 209.427622 
L 132.35161 209.427622 
L 132.35161 207.854879 
L 132.756449 207.854879 
L 132.756449 207.330631 
L 133.15198 207.330631 
L 133.15198 203.660897 
L 133.346388 203.660897 
L 133.346388 203.136649 
L 133.538623 203.136649 
L 133.538623 201.563906 
L 133.728734 201.563906 
L 133.728734 196.845677 
L 133.916767 196.845677 
L 133.916767 194.748686 
L 134.102767 194.748686 
L 134.102767 191.603199 
L 134.286778 191.603199 
L 134.286778 191.078952 
L 134.648999 191.078952 
L 134.648999 187.409218 
L 134.82729 187.409218 
L 134.82729 183.215236 
L 135.003752 183.215236 
L 135.003752 181.642493 
L 135.178422 181.642493 
L 135.178422 176.924263 
L 135.351336 176.924263 
L 135.351336 175.35152 
L 135.522531 175.35152 
L 135.522531 174.827272 
L 135.859892 174.827272 
L 135.859892 173.254529 
L 136.026124 173.254529 
L 136.026124 171.157538 
L 136.190765 171.157538 
L 136.190765 166.963557 
L 136.353845 166.963557 
L 136.353845 166.439309 
L 136.515394 166.439309 
L 136.515394 164.342318 
L 136.675441 164.342318 
L 136.675441 162.769575 
L 136.834012 162.769575 
L 136.834012 162.245327 
L 136.991135 162.245327 
L 136.991135 160.148336 
L 137.146836 160.148336 
L 137.146836 157.527098 
L 137.301141 157.527098 
L 137.301141 157.00285 
L 137.454074 157.00285 
L 137.454074 153.333116 
L 137.60566 153.333116 
L 137.60566 152.808868 
L 137.755922 152.808868 
L 137.755922 150.711877 
L 137.904883 150.711877 
L 137.904883 148.614886 
L 138.052565 148.614886 
L 138.052565 146.517896 
L 138.19899 146.517896 
L 138.19899 145.993648 
L 138.34418 145.993648 
L 138.34418 143.372409 
L 138.488154 143.372409 
L 138.488154 139.702675 
L 138.630934 139.702675 
L 138.630934 139.178427 
L 138.772539 139.178427 
L 138.772539 136.032941 
L 138.912987 136.032941 
L 138.912987 133.93595 
L 139.052299 133.93595 
L 139.052299 132.363207 
L 139.190491 132.363207 
L 139.190491 126.596482 
L 139.327583 126.596482 
L 139.327583 123.975244 
L 139.46359 123.975244 
L 139.46359 122.926748 
L 139.598531 122.926748 
L 139.598531 120.829757 
L 139.865278 120.829757 
L 139.865278 113.490289 
L 139.997117 113.490289 
L 139.997117 112.966042 
L 140.127953 112.966042 
L 140.127953 110.344803 
L 140.257802 110.344803 
L 140.257802 109.296308 
L 140.514596 109.296308 
L 140.514596 103.529583 
L 140.767613 103.529583 
L 140.767613 97.762858 
L 141.016963 97.762858 
L 141.016963 96.190115 
L 141.140296 96.190115 
L 141.140296 95.141619 
L 141.262751 95.141619 
L 141.262751 94.093124 
L 141.384341 94.093124 
L 141.384341 90.947637 
L 141.505077 90.947637 
L 141.505077 89.374894 
L 141.624972 89.374894 
L 141.624972 87.802151 
L 141.744038 87.802151 
L 141.744038 85.180912 
L 141.862285 85.180912 
L 141.862285 80.986931 
L 141.979724 80.986931 
L 141.979724 79.938435 
L 142.096368 79.938435 
L 142.096368 79.414188 
L 142.212226 79.414188 
L 142.212226 75.744454 
L 142.327309 75.744454 
L 142.327309 71.550472 
L 142.441628 71.550472 
L 142.441628 69.453481 
L 142.555192 69.453481 
L 142.555192 68.929233 
L 142.668011 68.929233 
L 142.668011 65.783747 
L 142.780095 65.783747 
L 142.780095 64.211004 
L 142.891454 64.211004 
L 142.891454 61.065517 
L 143.22127 61.065517 
L 143.329818 58.968526 
L 143.437686 58.968526 
L 143.544882 53.726049 
L 143.75729 53.726049 
L 143.75729 52.677554 
L 143.967108 52.677554 
L 143.967108 51.104811 
L 144.174398 51.104811 
L 144.277114 45.338086 
L 144.37922 45.338086 
L 144.480724 43.765343 
L 144.581633 43.765343 
L 144.581633 41.144104 
L 144.880856 41.144104 
L 144.979451 39.571361 
L 145.271892 39.571361 
L 145.368278 37.47437 
L 145.559445 37.47437 
L 145.654238 33.804636 
L 146.028272 33.804636 
L 146.120523 31.183397 
L 146.394347 31.183397 
L 146.394347 30.134902 
L 146.574504 30.134902 
L 146.574504 29.086407 
L 146.752794 29.086407 
L 146.752794 28.037911 
L 147.362651 28.037911 
L 147.362651 27.513663 
L 333.429677 27.513663 
L 333.429677 27.513663 
" style="fill:none;stroke:#00bfbf;stroke-linecap:square;stroke-width:1.5;"/>
   </g>
   <g id="line2d_25">
    <defs>
     <path d="M -6 0 
L 6 0 
M 0 6 
L 0 -6 
" id="m0ac30663da" style="stroke:#00bfbf;stroke-width:1.5;"/>
    </defs>
    <g>
     <use style="fill-opacity:0;stroke:#00bfbf;stroke-width:1.5;" x="115.747522" xlink:href="#m0ac30663da" y="251.891687"/>
     <use style="fill-opacity:0;stroke:#00bfbf;stroke-width:1.5;" x="138.052565" xlink:href="#m0ac30663da" y="148.614886"/>
     <use style="fill-opacity:0;stroke:#00bfbf;stroke-width:1.5;" x="147.362651" xlink:href="#m0ac30663da" y="28.037911"/>
     <use style="fill-opacity:0;stroke:#00bfbf;stroke-width:1.5;" x="147.362651" xlink:href="#m0ac30663da" y="27.513663"/>
     <use style="fill-opacity:0;stroke:#00bfbf;stroke-width:1.5;" x="333.429677" xlink:href="#m0ac30663da" y="27.513663"/>
    </g>
   </g>
   <g id="line2d_26">
    <path style="fill:none;stroke:#00bfbf;stroke-linecap:square;stroke-width:1.5;"/>
    <g/>
   </g>
   <g id="line2d_27">
    <defs>
     <path d="M 0 1.5 
C 0.397805 1.5 0.77937 1.341951 1.06066 1.06066 
C 1.341951 0.77937 1.5 0.397805 1.5 0 
C 1.5 -0.397805 1.341951 -0.77937 1.06066 -1.06066 
C 0.77937 -1.341951 0.397805 -1.5 0 -1.5 
C -0.397805 -1.5 -0.77937 -1.341951 -1.06066 -1.06066 
C -1.341951 -0.77937 -1.5 -0.397805 -1.5 0 
C -1.5 0.397805 -1.341951 0.77937 -1.06066 1.06066 
C -0.77937 1.341951 -0.397805 1.5 0 1.5 
z
" id="mb1c5f0fa49" style="stroke:#008000;"/>
    </defs>
    <g>
     <use style="fill:#008000;stroke:#008000;" x="161.581978" xlink:href="#mb1c5f0fa49" y="27.513663"/>
     <use style="fill:#008000;stroke:#008000;" x="161.581978" xlink:href="#mb1c5f0fa49" y="27.513663"/>
    </g>
   </g>
   <g id="line2d_28">
    <path d="M 49.144027 294.88 
L 49.144027 268.143366 
L 109.814588 268.143366 
L 109.814588 267.094871 
L 111.72821 267.094871 
L 111.72821 266.046375 
L 112.175115 266.046375 
L 112.175115 265.522128 
L 112.610704 265.522128 
L 112.610704 264.99788 
L 113.450132 264.99788 
L 113.450132 264.473632 
L 113.854971 264.473632 
L 113.854971 262.376641 
L 114.250503 262.376641 
L 114.250503 259.755403 
L 114.637146 259.755403 
L 114.637146 255.561421 
L 115.385301 255.561421 
L 115.385301 252.940182 
L 115.747522 252.940182 
L 115.747522 251.891687 
L 116.102274 251.891687 
L 116.102274 249.794696 
L 116.449859 249.794696 
L 116.449859 247.697705 
L 118.399664 247.697705 
L 118.399664 247.173458 
L 126.752761 247.173458 
L 126.752761 246.124962 
L 127.851317 246.124962 
L 127.851317 245.600714 
L 128.027779 245.600714 
L 128.027779 245.076467 
L 128.883919 245.076467 
L 128.883919 244.552219 
L 130.325168 244.552219 
L 130.325168 243.503724 
L 130.779949 243.503724 
L 130.779949 241.93098 
L 131.368207 241.93098 
L 131.368207 240.358237 
L 131.937015 240.358237 
L 131.937015 239.83399 
L 132.487617 239.83399 
L 132.487617 239.309742 
L 132.622558 239.309742 
L 132.622558 238.261246 
L 132.756449 238.261246 
L 132.756449 237.736999 
L 132.889306 237.736999 
L 132.889306 237.212751 
L 133.15198 237.212751 
L 133.15198 236.164255 
L 134.164323 236.164255 
L 134.164323 235.640008 
L 136.781317 235.640008 
L 136.886546 234.067265 
L 136.991135 234.067265 
L 137.095092 233.018769 
L 137.301141 233.018769 
L 137.403248 231.446026 
L 137.60566 231.446026 
L 137.60566 230.921778 
L 138.101512 230.921778 
L 138.101512 230.397531 
L 138.295919 230.397531 
L 138.295919 229.349035 
L 138.678265 229.349035 
L 138.678265 227.776292 
L 139.052299 227.776292 
L 139.052299 227.252044 
L 139.327583 227.252044 
L 139.418374 224.106558 
L 139.598531 224.106558 
L 139.687907 220.436824 
L 139.776821 220.436824 
L 139.865278 217.815585 
L 140.04084 217.815585 
L 140.04084 216.242842 
L 140.214628 216.242842 
L 140.214628 215.718594 
L 140.386678 215.718594 
L 140.472062 214.145851 
L 140.557025 214.145851 
L 140.641569 211.524613 
L 140.725701 211.524613 
L 140.809423 209.95187 
L 140.89274 209.95187 
L 140.975655 206.806383 
L 141.058173 206.806383 
L 141.140296 203.660897 
L 141.22203 203.660897 
L 141.303377 200.515411 
L 141.545135 200.515411 
L 141.624972 197.894172 
L 141.783544 197.894172 
L 141.862285 196.321429 
L 142.018694 196.321429 
L 142.018694 195.797181 
L 142.173693 195.797181 
L 142.250673 194.748686 
L 142.327309 194.748686 
L 142.327309 193.70019 
L 142.630487 193.70019 
L 142.705453 192.127447 
L 142.780095 192.127447 
L 142.854414 188.457713 
L 142.928414 188.457713 
L 143.002096 186.360722 
L 143.075465 186.360722 
L 143.148522 183.739484 
L 143.293711 183.739484 
L 143.365849 181.118245 
L 143.437686 181.118245 
L 143.437686 179.545502 
L 143.651414 179.545502 
L 143.72207 176.400016 
L 143.862519 176.400016 
L 143.862519 175.35152 
L 144.00183 175.35152 
L 144.071065 173.254529 
L 144.140023 173.254529 
L 144.208705 171.157538 
L 144.345252 171.157538 
L 144.413122 170.109043 
L 144.480724 170.109043 
L 144.548063 167.487804 
L 144.81481 167.487804 
L 144.880856 165.915061 
L 145.077485 165.915061 
L 145.142532 162.769575 
L 145.207333 162.769575 
L 145.271892 161.721079 
L 145.464127 161.721079 
L 145.527731 159.624089 
L 145.591101 159.624089 
L 145.654238 155.954354 
L 145.842271 155.954354 
L 145.842271 155.430107 
L 145.966495 155.430107 
L 145.966495 151.760373 
L 146.151164 151.760373 
L 146.212283 150.18763 
L 146.333872 150.18763 
L 146.394347 147.566391 
L 146.454609 147.566391 
L 146.454609 146.517896 
L 146.63414 146.517896 
L 146.693569 145.4694 
L 146.752794 145.4694 
L 146.811816 144.420905 
L 146.870636 144.420905 
L 146.929256 140.226923 
L 147.0459 140.226923 
L 147.0459 137.605684 
L 147.219395 137.605684 
L 147.276841 134.984446 
L 147.334095 134.984446 
L 147.391159 132.363207 
L 147.617542 132.363207 
L 147.673676 130.266216 
L 147.785396 130.266216 
L 147.896396 126.072235 
L 148.006684 126.072235 
L 148.116269 122.926748 
L 148.170801 122.926748 
L 148.225161 121.878253 
L 148.333368 121.878253 
L 148.440899 117.160023 
L 148.494413 117.160023 
L 148.547762 113.490289 
L 148.706822 113.490289 
L 148.812051 108.247812 
L 148.864425 108.247812 
L 148.968697 106.150821 
L 149.020597 106.150821 
L 149.020597 105.102326 
L 149.175364 105.102326 
L 149.277775 99.859849 
L 149.328752 99.859849 
L 149.328752 98.287105 
L 149.480784 98.287105 
L 149.581398 95.141619 
L 149.780877 95.141619 
L 149.879756 91.471885 
L 149.928983 91.471885 
L 149.978069 89.899142 
L 150.075824 89.899142 
L 150.173027 88.326399 
L 150.31781 88.326399 
L 150.413659 84.656665 
L 150.556439 84.656665 
L 150.650971 80.986931 
L 150.744987 80.986931 
L 150.838492 78.88994 
L 150.885054 78.88994 
L 150.977803 77.841444 
L 151.070055 77.841444 
L 151.115996 74.695958 
L 151.207511 74.695958 
L 151.253087 73.123215 
L 151.434193 73.123215 
L 151.524035 71.026224 
L 151.568782 71.026224 
L 151.568782 69.453481 
L 151.746611 69.453481 
L 151.790783 67.880738 
L 151.922622 67.880738 
L 151.966344 66.307995 
L 152.053458 66.307995 
L 152.09685 62.114013 
L 152.269331 62.114013 
L 152.269331 60.017022 
L 152.397566 60.017022 
L 152.482529 58.968526 
L 152.567074 58.968526 
L 152.651205 57.920031 
L 152.693117 57.920031 
L 152.734928 56.871536 
L 153.147534 56.871536 
L 153.188256 53.726049 
L 153.430582 53.726049 
L 153.430582 52.677554 
L 153.590257 52.677554 
L 153.590257 52.153306 
L 153.787789 52.153306 
L 153.787789 51.629058 
L 153.944198 51.629058 
L 154.021872 47.435077 
L 154.176177 47.435077 
L 154.252814 46.386581 
L 154.32911 46.386581 
L 154.32911 45.862334 
L 154.630958 45.862334 
L 154.668319 44.813838 
L 154.779919 44.813838 
L 154.853918 42.716847 
L 155.037536 42.716847 
L 155.074026 41.144104 
L 155.183033 41.144104 
L 155.183033 40.619856 
L 155.381103 40.619856 
L 155.434728 37.47437 
L 155.612283 37.47437 
L 155.612283 36.950122 
L 155.892613 36.950122 
L 155.892613 36.425875 
L 156.134209 36.425875 
L 156.219678 35.377379 
L 156.253747 35.377379 
L 156.253747 34.853131 
L 156.590778 34.853131 
L 156.690613 33.280388 
L 156.707196 33.280388 
L 156.707196 32.756141 
L 156.954042 32.756141 
L 156.954042 32.231893 
L 157.100467 32.231893 
L 157.100467 31.707645 
L 157.516605 31.707645 
L 157.516605 31.183397 
L 158.913181 31.183397 
L 158.913181 30.65915 
L 159.514911 30.65915 
L 159.585164 29.610654 
L 160.055423 29.610654 
L 160.055423 29.086407 
L 160.671862 29.086407 
L 160.671862 28.562159 
L 160.907191 28.562159 
L 160.907191 28.037911 
L 161.581978 28.037911 
L 161.581978 27.513663 
L 333.429677 27.513663 
L 333.429677 27.513663 
" style="fill:none;stroke:#008000;stroke-linecap:square;stroke-width:1.5;"/>
   </g>
   <g id="line2d_29">
    <defs>
     <path d="M -0 6 
L 6 -6 
L -6 -6 
z
" id="m201a7f3c95" style="stroke:#008000;stroke-linejoin:miter;stroke-width:1.5;"/>
    </defs>
    <g>
     <use style="fill-opacity:0;stroke:#008000;stroke-linejoin:miter;stroke-width:1.5;" x="141.058173" xlink:href="#m201a7f3c95" y="206.806383"/>
     <use style="fill-opacity:0;stroke:#008000;stroke-linejoin:miter;stroke-width:1.5;" x="152.053458" xlink:href="#m201a7f3c95" y="66.307995"/>
     <use style="fill-opacity:0;stroke:#008000;stroke-linejoin:miter;stroke-width:1.5;" x="161.581978" xlink:href="#m201a7f3c95" y="28.037911"/>
     <use style="fill-opacity:0;stroke:#008000;stroke-linejoin:miter;stroke-width:1.5;" x="161.581978" xlink:href="#m201a7f3c95" y="27.513663"/>
     <use style="fill-opacity:0;stroke:#008000;stroke-linejoin:miter;stroke-width:1.5;" x="161.581978" xlink:href="#m201a7f3c95" y="27.513663"/>
     <use style="fill-opacity:0;stroke:#008000;stroke-linejoin:miter;stroke-width:1.5;" x="333.429677" xlink:href="#m201a7f3c95" y="27.513663"/>
    </g>
   </g>
   <g id="line2d_30">
    <path style="fill:none;stroke:#008000;stroke-linecap:square;stroke-width:1.5;"/>
    <g/>
   </g>
   <g id="line2d_31">
    <path clip-path="url(#p79d2ce6b3d)" d="M 136.299657 235.640008 
" style="fill:none;stroke:#008000;stroke-linecap:square;stroke-width:1.5;"/>
    <defs>
     <path d="M -12 12 
L 12 -12 
M -12 -12 
L 12 12 
" id="m33e505ab11" style="stroke:#008000;stroke-width:3;"/>
    </defs>
    <g clip-path="url(#p79d2ce6b3d)">
     <use style="fill:#008000;stroke:#008000;stroke-width:3;" x="136.299657" xlink:href="#m33e505ab11" y="235.640008"/>
    </g>
   </g>
   <g id="line2d_32">
    <defs>
     <path d="M 0 1.5 
C 0.397805 1.5 0.77937 1.341951 1.06066 1.06066 
C 1.341951 0.77937 1.5 0.397805 1.5 0 
C 1.5 -0.397805 1.341951 -0.77937 1.06066 -1.06066 
C 0.77937 -1.341951 0.397805 -1.5 0 -1.5 
C -0.397805 -1.5 -0.77937 -1.341951 -1.06066 -1.06066 
C -1.341951 -0.77937 -1.5 -0.397805 -1.5 0 
C -1.5 0.397805 -1.341951 0.77937 -1.06066 1.06066 
C -0.77937 1.341951 -0.397805 1.5 0 1.5 
z
" id="m5858a7f266" style="stroke:#0000ff;"/>
    </defs>
    <g>
     <use style="fill:#0000ff;stroke:#0000ff;" x="212.401685" xlink:href="#m5858a7f266" y="106.150821"/>
     <use style="fill:#0000ff;stroke:#0000ff;" x="212.401685" xlink:href="#m5858a7f266" y="106.150821"/>
    </g>
   </g>
   <g id="line2d_33">
    <path d="M 40.355341 294.88 
L 40.355341 272.337348 
L 107.313588 272.337348 
L 107.313588 271.8131 
L 109.300972 271.8131 
L 109.300972 271.288853 
L 109.610977 271.288853 
L 109.610977 270.764605 
L 110.797991 270.764605 
L 110.797991 269.716109 
L 111.362135 269.716109 
L 111.362135 268.667614 
L 111.908367 268.667614 
L 111.908367 267.094871 
L 112.696514 267.094871 
L 112.696514 266.570623 
L 112.951406 266.570623 
L 112.951406 266.046375 
L 113.202576 266.046375 
L 113.202576 265.522128 
L 113.694177 265.522128 
L 113.694177 264.473632 
L 114.172121 264.473632 
L 114.172121 262.900889 
L 114.865028 262.900889 
L 114.865028 261.852394 
L 123.007879 261.852394 
L 123.007879 260.803898 
L 125.002954 260.803898 
L 125.002954 260.279651 
L 128.716065 260.279651 
L 128.716065 259.755403 
L 129.889579 259.755403 
L 129.889579 258.706907 
L 133.461986 258.706907 
L 133.461986 258.18266 
L 134.720537 258.18266 
L 134.720537 256.609917 
L 137.904883 256.609917 
L 137.904883 256.085669 
L 138.94094 256.085669 
L 138.94094 255.037173 
L 139.327583 255.037173 
L 139.327583 253.988678 
L 139.652212 253.988678 
L 139.652212 253.46443 
L 140.437959 253.46443 
L 140.437959 252.940182 
L 141.577115 252.940182 
L 141.577115 252.415935 
L 142.096368 252.415935 
L 142.096368 251.367439 
L 144.880856 251.367439 
L 144.880856 250.843192 
L 145.540424 250.843192 
L 145.616384 248.746201 
L 145.69201 248.746201 
L 145.69201 248.221953 
L 145.916913 248.221953 
L 145.916913 246.124962 
L 146.212283 246.124962 
L 146.212283 245.600714 
L 146.717284 245.600714 
L 146.717284 245.076467 
L 147.069134 245.076467 
L 147.069134 244.552219 
L 147.48207 244.552219 
L 147.48207 244.027971 
L 148.246857 244.027971 
L 148.246857 243.503724 
L 150.298576 243.503724 
L 150.298576 242.979476 
L 150.44231 242.979476 
L 150.44231 241.93098 
L 151.115996 241.93098 
L 151.115996 241.406733 
L 151.416168 241.406733 
L 151.416168 240.882485 
L 151.922622 240.882485 
L 152.02737 239.83399 
L 152.105515 239.83399 
L 152.157415 238.785494 
L 154.056712 238.785494 
L 154.056712 238.261246 
L 154.183856 238.261246 
L 154.183856 237.212751 
L 154.638437 237.212751 
L 154.638437 236.688503 
L 154.949644 236.688503 
L 154.949644 236.164255 
L 155.124982 236.164255 
L 155.124982 235.11576 
L 155.555664 235.11576 
L 155.555664 234.067265 
L 156.130782 234.067265 
L 156.130782 233.543017 
L 156.263955 233.543017 
L 156.325074 230.921778 
L 156.66737 230.921778 
L 156.776671 228.824787 
L 156.786573 228.824787 
L 156.80636 227.252044 
L 157.012762 227.252044 
L 157.012762 226.727797 
L 157.15869 226.727797 
L 157.236016 225.679301 
L 157.332186 225.679301 
L 157.370505 224.106558 
L 157.560826 224.106558 
L 157.598639 223.058063 
L 157.805137 223.058063 
L 157.861027 219.912576 
L 158.055226 219.912576 
L 158.101142 218.864081 
L 158.192609 218.864081 
L 158.247257 215.194347 
L 158.446159 215.194347 
L 158.535814 212.573108 
L 158.589384 212.573108 
L 158.678299 211.000365 
L 158.802012 211.000365 
L 158.907348 207.854879 
L 159.081488 207.854879 
L 159.150653 205.757888 
L 159.305266 205.757888 
L 159.339437 204.709392 
L 159.7109 204.709392 
L 159.7109 204.185145 
L 159.918441 204.185145 
L 159.918441 203.660897 
L 160.834322 203.660897 
L 160.834322 203.136649 
L 161.403766 203.136649 
L 161.403766 202.612401 
L 161.726202 202.612401 
L 161.792931 201.563906 
L 161.852029 201.563906 
L 161.852029 201.039658 
L 162.777978 201.039658 
L 162.777978 200.515411 
L 163.239928 200.515411 
L 163.239928 199.991163 
L 163.683169 199.991163 
L 163.788924 198.942667 
L 164.19269 198.942667 
L 164.276162 197.369924 
L 164.327329 197.369924 
L 164.327329 196.845677 
L 164.486252 196.845677 
L 164.580906 195.797181 
L 164.606059 195.797181 
L 164.675042 194.224438 
L 164.774889 194.224438 
L 164.774889 193.70019 
L 164.985159 193.70019 
L 165.095447 191.603199 
L 165.247462 191.603199 
L 165.253514 190.554704 
L 165.392142 190.554704 
L 165.452069 188.981961 
L 165.683808 188.981961 
L 165.783854 187.933465 
L 165.830733 187.933465 
L 165.941563 186.360722 
L 165.964805 186.360722 
L 166.034344 185.312227 
L 166.524641 185.312227 
L 166.524641 184.787979 
L 166.984944 184.787979 
L 166.984944 184.263731 
L 167.283317 184.263731 
L 167.283317 183.739484 
L 168.199661 183.739484 
L 168.220046 182.690988 
L 168.582904 182.690988 
L 168.582904 182.16674 
L 168.781233 182.16674 
L 168.781233 181.642493 
L 169.243299 181.642493 
L 169.296009 180.593997 
L 169.721309 180.593997 
L 169.721309 180.06975 
L 169.985327 180.06975 
L 169.985327 179.545502 
L 170.154564 179.545502 
L 170.227236 176.924263 
L 170.281538 176.924263 
L 170.389632 174.303025 
L 170.470259 174.303025 
L 170.470259 173.778777 
L 170.586057 173.778777 
L 170.656932 172.206034 
L 170.753911 172.206034 
L 170.758306 171.157538 
L 170.985321 171.157538 
L 170.985321 170.633291 
L 171.153638 170.633291 
L 171.200815 169.584795 
L 171.290524 169.584795 
L 171.388243 168.5363 
L 172.563107 168.5363 
L 172.563107 168.012052 
L 172.755914 168.012052 
L 172.794998 166.963557 
L 172.915598 166.963557 
L 172.915598 166.439309 
L 173.169577 166.439309 
L 173.181033 165.390813 
L 173.32927 165.390813 
L 173.32927 164.866566 
L 174.037359 164.866566 
L 174.037359 164.342318 
L 174.446505 164.342318 
L 174.545526 163.293823 
L 174.563149 163.293823 
L 174.672007 162.245327 
L 174.832281 162.245327 
L 174.832281 161.721079 
L 174.987638 161.721079 
L 174.987638 161.196832 
L 175.348141 161.196832 
L 175.348141 160.672584 
L 175.4789 160.672584 
L 175.4789 160.148336 
L 175.783478 160.148336 
L 175.783478 159.624089 
L 176.018138 159.624089 
L 176.069852 158.575593 
L 176.143921 158.575593 
L 176.143921 158.051345 
L 176.287923 158.051345 
L 176.287923 157.527098 
L 176.399096 157.527098 
L 176.399096 157.00285 
L 176.616185 157.00285 
L 176.68483 155.954354 
L 176.756304 155.954354 
L 176.756304 155.430107 
L 176.919881 155.430107 
L 177.030111 154.381611 
L 177.157825 154.381611 
L 177.227364 153.333116 
L 177.320648 153.333116 
L 177.401486 152.28462 
L 177.573863 152.28462 
L 177.585687 151.236125 
L 177.712292 151.236125 
L 177.712292 150.711877 
L 177.922216 150.711877 
L 177.9743 149.139134 
L 178.072251 149.139134 
L 178.072251 148.614886 
L 178.764818 148.614886 
L 178.8721 147.566391 
L 178.929591 147.566391 
L 178.929591 147.042143 
L 179.278597 147.042143 
L 179.308032 145.993648 
L 179.546992 145.993648 
L 179.546992 145.4694 
L 179.722754 145.4694 
L 179.811265 144.420905 
L 179.912234 144.420905 
L 179.912234 143.896657 
L 180.170998 143.896657 
L 180.224315 142.848162 
L 180.343048 142.848162 
L 180.355631 141.799666 
L 180.612816 141.799666 
L 180.612816 141.275418 
L 180.73383 141.275418 
L 180.800149 140.226923 
L 181.4142 140.226923 
L 181.4142 139.702675 
L 181.665474 139.702675 
L 181.665474 139.178427 
L 181.88323 139.178427 
L 181.88323 138.65418 
L 182.150474 138.65418 
L 182.150474 138.129932 
L 182.299415 138.129932 
L 182.339812 137.081437 
L 182.705769 137.081437 
L 182.780221 136.032941 
L 182.980078 136.032941 
L 182.982237 134.984446 
L 183.132743 134.984446 
L 183.132743 134.460198 
L 183.452991 134.460198 
L 183.520099 132.887455 
L 184.305622 132.887455 
L 184.305622 132.363207 
L 184.58135 132.363207 
L 184.632438 130.790464 
L 184.724406 130.790464 
L 184.815885 129.741969 
L 184.920392 129.741969 
L 184.920392 129.217721 
L 185.502763 129.217721 
L 185.502763 128.693473 
L 185.69935 128.693473 
L 185.69935 128.169225 
L 186.136323 128.169225 
L 186.136323 127.644978 
L 186.479844 127.644978 
L 186.479844 127.12073 
L 187.109635 127.12073 
L 187.109635 126.596482 
L 187.234897 126.596482 
L 187.234897 126.072235 
L 187.590441 126.072235 
L 187.658044 123.975244 
L 187.754862 123.975244 
L 187.821823 122.926748 
L 188.035651 122.926748 
L 188.035651 122.4025 
L 188.173547 122.4025 
L 188.173547 121.878253 
L 189.210103 121.878253 
L 189.210103 121.354005 
L 189.388114 121.354005 
L 189.477174 119.781262 
L 189.684668 119.781262 
L 189.706595 118.732766 
L 190.364405 118.732766 
L 190.364405 118.208519 
L 191.471178 118.208519 
L 191.501477 117.160023 
L 191.697777 117.160023 
L 191.697777 116.635776 
L 191.824827 116.635776 
L 191.848061 115.58728 
L 192.654411 115.58728 
L 192.734231 114.538785 
L 192.886698 114.538785 
L 192.886698 114.014537 
L 193.699043 114.014537 
L 193.710622 112.966042 
L 194.292196 112.966042 
L 194.292196 112.441794 
L 194.933636 112.441794 
L 194.933636 111.917546 
L 195.525998 111.917546 
L 195.525998 111.393298 
L 195.856137 111.393298 
L 195.856137 110.869051 
L 198.569335 110.869051 
L 198.569335 110.344803 
L 198.94913 110.344803 
L 198.94913 109.820555 
L 200.797747 109.820555 
L 200.797747 109.296308 
L 201.805796 109.296308 
L 201.805796 108.77206 
L 203.032245 108.77206 
L 203.139646 107.723564 
L 203.361047 107.723564 
L 203.361047 107.199317 
L 212.249854 107.199317 
L 212.249854 106.675069 
L 212.401685 106.675069 
L 212.401685 106.150821 
L 333.429677 106.150821 
L 333.429677 106.150821 
" style="fill:none;stroke:#0000ff;stroke-linecap:square;stroke-width:1.5;"/>
   </g>
   <g id="line2d_34">
    <defs>
     <path d="M 0 -6 
L -1.347084 -1.854102 
L -5.706339 -1.854102 
L -2.179628 0.708204 
L -3.526712 4.854102 
L -0 2.291796 
L 3.526712 4.854102 
L 2.179628 0.708204 
L 5.706339 -1.854102 
L 1.347084 -1.854102 
z
" id="m1e5bf915d2" style="stroke:#0000ff;stroke-linejoin:bevel;stroke-width:1.5;"/>
    </defs>
    <g>
     <use style="fill-opacity:0;stroke:#0000ff;stroke-linejoin:bevel;stroke-width:1.5;" x="128.716065" xlink:href="#m1e5bf915d2" y="259.755403"/>
     <use style="fill-opacity:0;stroke:#0000ff;stroke-linejoin:bevel;stroke-width:1.5;" x="174.563149" xlink:href="#m1e5bf915d2" y="163.293823"/>
     <use style="fill-opacity:0;stroke:#0000ff;stroke-linejoin:bevel;stroke-width:1.5;" x="212.401685" xlink:href="#m1e5bf915d2" y="106.675069"/>
     <use style="fill-opacity:0;stroke:#0000ff;stroke-linejoin:bevel;stroke-width:1.5;" x="212.401685" xlink:href="#m1e5bf915d2" y="106.150821"/>
     <use style="fill-opacity:0;stroke:#0000ff;stroke-linejoin:bevel;stroke-width:1.5;" x="212.401685" xlink:href="#m1e5bf915d2" y="106.150821"/>
     <use style="fill-opacity:0;stroke:#0000ff;stroke-linejoin:bevel;stroke-width:1.5;" x="333.429677" xlink:href="#m1e5bf915d2" y="106.150821"/>
    </g>
   </g>
   <g id="line2d_35">
    <path style="fill:none;stroke:#0000ff;stroke-linecap:square;stroke-width:1.5;"/>
    <g/>
   </g>
   <g id="line2d_36">
    <path clip-path="url(#p79d2ce6b3d)" d="M 147.276841 244.552219 
" style="fill:none;stroke:#0000ff;stroke-linecap:square;stroke-width:1.5;"/>
    <defs>
     <path d="M -12 12 
L 12 -12 
M -12 -12 
L 12 12 
" id="m5898e10844" style="stroke:#0000ff;stroke-width:3;"/>
    </defs>
    <g clip-path="url(#p79d2ce6b3d)">
     <use style="fill:#0000ff;stroke:#0000ff;stroke-width:3;" x="147.276841" xlink:href="#m5898e10844" y="244.552219"/>
    </g>
   </g>
   <g id="line2d_37">
    <defs>
     <path d="M 0 1.5 
C 0.397805 1.5 0.77937 1.341951 1.06066 1.06066 
C 1.341951 0.77937 1.5 0.397805 1.5 0 
C 1.5 -0.397805 1.341951 -0.77937 1.06066 -1.06066 
C 0.77937 -1.341951 0.397805 -1.5 0 -1.5 
C -0.397805 -1.5 -0.77937 -1.341951 -1.06066 -1.06066 
C -1.341951 -0.77937 -1.5 -0.397805 -1.5 0 
C -1.5 0.397805 -1.341951 0.77937 -1.06066 1.06066 
C -0.77937 1.341951 -0.397805 1.5 0 1.5 
z
" id="m4347caed84" style="stroke:#000000;"/>
    </defs>
    <g>
     <use style="stroke:#000000;" x="193.588064" xlink:href="#m4347caed84" y="242.455228"/>
     <use style="stroke:#000000;" x="193.588064" xlink:href="#m4347caed84" y="242.455228"/>
    </g>
   </g>
   <g id="line2d_38">
    <path d="M 28.429836 294.88 
L 28.429836 283.34655 
L 109.456673 283.34655 
L 109.456673 282.298055 
L 110.797991 282.298055 
L 110.797991 281.249559 
L 111.500328 281.249559 
L 111.500328 280.725312 
L 113.077449 280.725312 
L 113.077449 279.152568 
L 113.572587 279.152568 
L 113.572587 278.628321 
L 114.289561 278.628321 
L 114.289561 278.104073 
L 114.522062 278.104073 
L 114.522062 277.579825 
L 115.089931 277.579825 
L 115.089931 277.055578 
L 115.421868 277.055578 
L 115.421868 276.007082 
L 115.96125 276.007082 
L 115.96125 274.434339 
L 116.067126 274.434339 
L 116.067126 273.910091 
L 116.276944 273.910091 
L 116.276944 272.861596 
L 116.484234 272.861596 
L 116.484234 271.8131 
L 117.091528 271.8131 
L 117.091528 270.240357 
L 117.773963 270.240357 
L 117.773963 269.716109 
L 128.665388 269.716109 
L 128.665388 269.191862 
L 129.507233 269.191862 
L 129.507233 268.667614 
L 129.699468 268.667614 
L 129.699468 267.619119 
L 129.983852 267.619119 
L 129.983852 267.094871 
L 140.049571 267.094871 
L 140.049571 266.046375 
L 142.441628 266.046375 
L 142.441628 265.522128 
L 143.308163 265.522128 
L 143.308163 264.99788 
L 148.263111 264.99788 
L 148.263111 263.425137 
L 149.919148 263.425137 
L 149.919148 262.900889 
L 150.022128 262.900889 
L 150.022128 262.376641 
L 150.327419 262.376641 
L 150.327419 261.852394 
L 150.726225 261.852394 
L 150.726225 260.803898 
L 152.157415 260.803898 
L 152.157415 260.279651 
L 152.484648 260.279651 
L 152.484648 259.755403 
L 153.004245 259.755403 
L 153.004245 259.231155 
L 154.672051 259.231155 
L 154.672051 258.706907 
L 154.861301 258.706907 
L 154.861301 257.658412 
L 156.355552 257.658412 
L 156.355552 257.134164 
L 158.678299 257.134164 
L 158.678299 256.609917 
L 160.795158 256.609917 
L 160.795158 256.085669 
L 161.136782 256.085669 
L 161.136782 255.561421 
L 161.445346 255.561421 
L 161.445346 254.512926 
L 163.260325 254.512926 
L 163.260325 253.988678 
L 163.263722 253.988678 
L 163.263722 253.46443 
L 163.409169 253.46443 
L 163.409169 252.940182 
L 167.088604 252.940182 
L 167.088604 252.415935 
L 167.256405 252.415935 
L 167.256405 251.891687 
L 168.577916 251.891687 
L 168.577916 251.367439 
L 168.657545 251.367439 
L 168.657545 250.843192 
L 168.820626 250.843192 
L 168.820626 250.318944 
L 171.577842 250.318944 
L 171.577842 249.794696 
L 173.278102 249.794696 
L 173.278102 249.270448 
L 175.196019 249.270448 
L 175.196019 248.746201 
L 176.723711 248.746201 
L 176.723711 248.221953 
L 177.388039 248.221953 
L 177.388039 247.697705 
L 179.094154 247.697705 
L 179.094154 247.173458 
L 179.212855 247.173458 
L 179.212855 246.64921 
L 179.214199 246.64921 
L 179.214199 246.124962 
L 180.801374 246.124962 
L 180.801374 245.600714 
L 181.428388 245.600714 
L 181.428388 245.076467 
L 186.009109 245.076467 
L 186.009109 244.552219 
L 186.741304 244.552219 
L 186.741304 244.027971 
L 186.926884 244.027971 
L 186.926884 243.503724 
L 190.571257 243.503724 
L 190.571257 242.979476 
L 193.588064 242.979476 
L 193.588064 242.455228 
L 333.429677 242.455228 
" style="fill:none;stroke:#000000;stroke-linecap:square;stroke-width:1.5;"/>
   </g>
   <g id="line2d_39">
    <defs>
     <path d="M 0 6 
C 1.591219 6 3.117479 5.367802 4.242641 4.242641 
C 5.367802 3.117479 6 1.591219 6 0 
C 6 -1.591219 5.367802 -3.117479 4.242641 -4.242641 
C 3.117479 -5.367802 1.591219 -6 0 -6 
C -1.591219 -6 -3.117479 -5.367802 -4.242641 -4.242641 
C -5.367802 -3.117479 -6 -1.591219 -6 0 
C -6 1.591219 -5.367802 3.117479 -4.242641 4.242641 
C -3.117479 5.367802 -1.591219 6 0 6 
z
" id="m700f3c15a8" style="stroke:#000000;stroke-width:1.5;"/>
    </defs>
    <g>
     <use style="fill-opacity:0;stroke:#000000;stroke-width:1.5;" x="129.983852" xlink:href="#m700f3c15a8" y="267.619119"/>
     <use style="fill-opacity:0;stroke:#000000;stroke-width:1.5;" x="175.196019" xlink:href="#m700f3c15a8" y="249.270448"/>
     <use style="fill-opacity:0;stroke:#000000;stroke-width:1.5;" x="193.588064" xlink:href="#m700f3c15a8" y="242.455228"/>
     <use style="fill-opacity:0;stroke:#000000;stroke-width:1.5;" x="193.588064" xlink:href="#m700f3c15a8" y="242.455228"/>
     <use style="fill-opacity:0;stroke:#000000;stroke-width:1.5;" x="193.588064" xlink:href="#m700f3c15a8" y="242.455228"/>
     <use style="fill-opacity:0;stroke:#000000;stroke-width:1.5;" x="333.429677" xlink:href="#m700f3c15a8" y="242.455228"/>
    </g>
   </g>
   <g id="line2d_40">
    <path style="fill:none;stroke:#000000;stroke-linecap:square;stroke-width:1.5;"/>
    <g/>
   </g>
   <g id="line2d_41">
    <path clip-path="url(#p79d2ce6b3d)" d="M 147.276841 264.99788 
" style="fill:none;stroke:#000000;stroke-linecap:square;stroke-width:1.5;"/>
    <defs>
     <path d="M -12 12 
L 12 -12 
M -12 -12 
L 12 12 
" id="mc158a04748" style="stroke:#000000;stroke-width:3;"/>
    </defs>
    <g clip-path="url(#p79d2ce6b3d)">
     <use style="stroke:#000000;stroke-width:3;" x="147.276841" xlink:href="#mc158a04748" y="264.99788"/>
    </g>
   </g>
   <g id="line2d_42">
    <defs>
     <path d="M 0 1.5 
C 0.397805 1.5 0.77937 1.341951 1.06066 1.06066 
C 1.341951 0.77937 1.5 0.397805 1.5 0 
C 1.5 -0.397805 1.341951 -0.77937 1.06066 -1.06066 
C 0.77937 -1.341951 0.397805 -1.5 0 -1.5 
C -0.397805 -1.5 -0.77937 -1.341951 -1.06066 -1.06066 
C -1.341951 -0.77937 -1.5 -0.397805 -1.5 0 
C -1.5 0.397805 -1.341951 0.77937 -1.06066 1.06066 
C -0.77937 1.341951 -0.397805 1.5 0 1.5 
z
" id="mf9d599c0ef" style="stroke:#ff0000;"/>
    </defs>
    <g>
     <use style="fill:#ff0000;stroke:#ff0000;" x="190.726158" xlink:href="#mf9d599c0ef" y="263.425137"/>
     <use style="fill:#ff0000;stroke:#ff0000;" x="190.726158" xlink:href="#mf9d599c0ef" y="263.425137"/>
    </g>
   </g>
   <g id="line2d_43">
    <path d="M 16.504332 294.88 
L 16.504332 282.298055 
L 116.891469 282.298055 
L 116.891469 281.249559 
L 120.830944 281.249559 
L 120.830944 280.201064 
L 121.765375 280.201064 
L 121.765375 279.152568 
L 121.95382 279.152568 
L 121.95382 278.104073 
L 123.078247 278.104073 
L 123.078247 277.579825 
L 123.698931 277.579825 
L 123.698931 276.53133 
L 133.652941 276.53133 
L 133.652941 276.007082 
L 142.724144 276.007082 
L 142.724144 275.482834 
L 143.22127 275.482834 
L 143.22127 273.910091 
L 148.473027 273.910091 
L 148.473027 273.385844 
L 148.489069 273.385844 
L 148.489069 272.337348 
L 148.783177 272.337348 
L 148.783177 271.288853 
L 154.206873 271.288853 
L 154.206873 270.240357 
L 157.556093 270.240357 
L 157.556093 268.667614 
L 159.810832 268.667614 
L 159.810832 268.143366 
L 161.929288 268.143366 
L 161.929288 267.619119 
L 165.356086 267.619119 
L 165.356086 267.094871 
L 168.810786 267.094871 
L 168.810786 266.570623 
L 172.546282 266.570623 
L 172.546282 266.046375 
L 173.139948 266.046375 
L 173.139948 265.522128 
L 177.948278 265.522128 
L 177.948278 264.99788 
L 186.003222 264.99788 
L 186.003222 264.473632 
L 187.474404 264.473632 
L 187.474404 263.949385 
L 190.726158 263.949385 
L 190.726158 263.425137 
L 333.429677 263.425137 
" style="fill:none;stroke:#ff0000;stroke-linecap:square;stroke-width:1.5;"/>
   </g>
   <g id="line2d_44">
    <defs>
     <path d="M -6 6 
L 6 6 
L 6 -6 
L -6 -6 
z
" id="ma7d1d0921e" style="stroke:#ff0000;stroke-linejoin:miter;stroke-width:1.5;"/>
    </defs>
    <g>
     <use style="fill-opacity:0;stroke:#ff0000;stroke-linejoin:miter;stroke-width:1.5;" x="133.652941" xlink:href="#ma7d1d0921e" y="276.53133"/>
     <use style="fill-opacity:0;stroke:#ff0000;stroke-linejoin:miter;stroke-width:1.5;" x="190.726158" xlink:href="#ma7d1d0921e" y="263.949385"/>
     <use style="fill-opacity:0;stroke:#ff0000;stroke-linejoin:miter;stroke-width:1.5;" x="190.726158" xlink:href="#ma7d1d0921e" y="263.425137"/>
     <use style="fill-opacity:0;stroke:#ff0000;stroke-linejoin:miter;stroke-width:1.5;" x="190.726158" xlink:href="#ma7d1d0921e" y="263.425137"/>
     <use style="fill-opacity:0;stroke:#ff0000;stroke-linejoin:miter;stroke-width:1.5;" x="333.429677" xlink:href="#ma7d1d0921e" y="263.425137"/>
    </g>
   </g>
   <g id="line2d_45">
    <path style="fill:none;stroke:#ff0000;stroke-linecap:square;stroke-width:1.5;"/>
    <g/>
   </g>
   <g id="line2d_46">
    <path clip-path="url(#p79d2ce6b3d)" d="M 147.276841 273.910091 
" style="fill:none;stroke:#ff0000;stroke-linecap:square;stroke-width:1.5;"/>
    <defs>
     <path d="M -12 12 
L 12 -12 
M -12 -12 
L 12 12 
" id="m7c40df1ea6" style="stroke:#ff0000;stroke-width:3;"/>
    </defs>
    <g clip-path="url(#p79d2ce6b3d)">
     <use style="fill:#ff0000;stroke:#ff0000;stroke-width:3;" x="147.276841" xlink:href="#m7c40df1ea6" y="273.910091"/>
    </g>
   </g>
   <g id="line2d_47">
    <defs>
     <path d="M 0 1.5 
C 0.397805 1.5 0.77937 1.341951 1.06066 1.06066 
C 1.341951 0.77937 1.5 0.397805 1.5 0 
C 1.5 -0.397805 1.341951 -0.77937 1.06066 -1.06066 
C 0.77937 -1.341951 0.397805 -1.5 0 -1.5 
C -0.397805 -1.5 -0.77937 -1.341951 -1.06066 -1.06066 
C -1.341951 -0.77937 -1.5 -0.397805 -1.5 0 
C -1.5 0.397805 -1.341951 0.77937 -1.06066 1.06066 
C -0.77937 1.341951 -0.397805 1.5 0 1.5 
z
" id="mb3ff9f89cf" style="stroke:#bf00bf;"/>
    </defs>
    <g>
     <use style="fill:#bf00bf;stroke:#bf00bf;" x="177.975022" xlink:href="#mb3ff9f89cf" y="273.910091"/>
     <use style="fill:#bf00bf;stroke:#bf00bf;" x="177.975022" xlink:href="#mb3ff9f89cf" y="273.910091"/>
    </g>
   </g>
   <g id="line2d_48">
    <path d="M 4.578827 294.88 
L 4.578827 290.161771 
L 126.987483 290.161771 
L 126.987483 289.637523 
L 127.726708 289.637523 
L 127.726708 289.113275 
L 128.512455 289.113275 
L 128.512455 288.589027 
L 128.525251 288.589027 
L 128.525251 288.06478 
L 129.202498 288.06478 
L 129.202498 287.540532 
L 129.675556 287.540532 
L 129.675556 287.016284 
L 129.7829 287.016284 
L 129.7829 285.967789 
L 130.943735 285.967789 
L 130.943735 285.443541 
L 131.436745 285.443541 
L 131.436745 284.919293 
L 133.614919 284.919293 
L 133.614919 283.870798 
L 139.852039 283.870798 
L 139.852039 282.822302 
L 142.00896 282.822302 
L 142.00896 281.773807 
L 142.043976 281.773807 
L 142.043976 281.249559 
L 142.378847 281.249559 
L 142.378847 280.725312 
L 143.421549 280.725312 
L 143.421549 280.201064 
L 150.806991 280.201064 
L 150.806991 279.152568 
L 152.059973 279.152568 
L 152.059973 278.628321 
L 153.96365 278.628321 
L 153.96365 277.579825 
L 155.241791 277.579825 
L 155.241791 277.055578 
L 158.389886 277.055578 
L 158.389886 276.53133 
L 164.987464 276.53133 
L 164.987464 276.007082 
L 165.640964 276.007082 
L 165.640964 275.482834 
L 170.241959 275.482834 
L 170.241959 274.958587 
L 177.533153 274.958587 
L 177.533153 274.434339 
L 177.975022 274.434339 
L 177.975022 273.910091 
L 333.429677 273.910091 
" style="fill:none;stroke:#bf00bf;stroke-linecap:square;stroke-width:1.5;"/>
   </g>
   <g id="line2d_49">
    <defs>
     <path d="M -0 8.485281 
L 8.485281 0 
L 0 -8.485281 
L -8.485281 -0 
z
" id="m6376fb3114" style="stroke:#bf00bf;stroke-linejoin:miter;stroke-width:1.5;"/>
    </defs>
    <g>
     <use style="fill-opacity:0;stroke:#bf00bf;stroke-linejoin:miter;stroke-width:1.5;" x="150.806991" xlink:href="#m6376fb3114" y="279.152568"/>
     <use style="fill-opacity:0;stroke:#bf00bf;stroke-linejoin:miter;stroke-width:1.5;" x="177.975022" xlink:href="#m6376fb3114" y="274.434339"/>
     <use style="fill-opacity:0;stroke:#bf00bf;stroke-linejoin:miter;stroke-width:1.5;" x="177.975022" xlink:href="#m6376fb3114" y="273.910091"/>
     <use style="fill-opacity:0;stroke:#bf00bf;stroke-linejoin:miter;stroke-width:1.5;" x="177.975022" xlink:href="#m6376fb3114" y="273.910091"/>
     <use style="fill-opacity:0;stroke:#bf00bf;stroke-linejoin:miter;stroke-width:1.5;" x="333.429677" xlink:href="#m6376fb3114" y="273.910091"/>
    </g>
   </g>
   <g id="line2d_50">
    <path style="fill:none;stroke:#bf00bf;stroke-linecap:square;stroke-width:1.5;"/>
    <g/>
   </g>
   <g id="line2d_51">
    <path clip-path="url(#p79d2ce6b3d)" d="M 147.276841 280.201064 
" style="fill:none;stroke:#bf00bf;stroke-linecap:square;stroke-width:1.5;"/>
    <defs>
     <path d="M -12 12 
L 12 -12 
M -12 -12 
L 12 12 
" id="m65d6df4a47" style="stroke:#bf00bf;stroke-width:3;"/>
    </defs>
    <g clip-path="url(#p79d2ce6b3d)">
     <use style="fill:#bf00bf;stroke:#bf00bf;stroke-width:3;" x="147.276841" xlink:href="#m65d6df4a47" y="280.201064"/>
    </g>
   </g>
   <g id="line2d_52">
    <path d="M 333.429677 273.910091 
L 363.933742 289.532673 
" style="fill:none;stroke:#bf00bf;stroke-linecap:square;stroke-width:1.5;"/>
    <g>
     <use style="fill-opacity:0;stroke:#bf00bf;stroke-linejoin:miter;stroke-width:1.5;" x="333.429677" xlink:href="#m6376fb3114" y="273.910091"/>
     <use style="fill-opacity:0;stroke:#bf00bf;stroke-linejoin:miter;stroke-width:1.5;" x="363.933742" xlink:href="#m6376fb3114" y="289.532673"/>
    </g>
   </g>
   <g id="line2d_53">
    <path d="M 333.429677 263.425137 
L 363.933742 238.198337 
" style="fill:none;stroke:#ff0000;stroke-linecap:square;stroke-width:1.5;"/>
    <g>
     <use style="fill-opacity:0;stroke:#ff0000;stroke-linejoin:miter;stroke-width:1.5;" x="333.429677" xlink:href="#ma7d1d0921e" y="263.425137"/>
     <use style="fill-opacity:0;stroke:#ff0000;stroke-linejoin:miter;stroke-width:1.5;" x="363.933742" xlink:href="#ma7d1d0921e" y="238.198337"/>
    </g>
   </g>
   <g id="line2d_54">
    <path d="M 333.429677 242.455228 
L 363.933742 186.864 
" style="fill:none;stroke:#000000;stroke-linecap:square;stroke-width:1.5;"/>
    <g>
     <use style="fill-opacity:0;stroke:#000000;stroke-width:1.5;" x="333.429677" xlink:href="#m700f3c15a8" y="242.455228"/>
     <use style="fill-opacity:0;stroke:#000000;stroke-width:1.5;" x="363.933742" xlink:href="#m700f3c15a8" y="186.864"/>
    </g>
   </g>
   <g id="line2d_55">
    <path d="M 333.429677 106.150821 
L 363.933742 135.529663 
" style="fill:none;stroke:#0000ff;stroke-linecap:square;stroke-width:1.5;"/>
    <g>
     <use style="fill-opacity:0;stroke:#0000ff;stroke-linejoin:bevel;stroke-width:1.5;" x="333.429677" xlink:href="#m1e5bf915d2" y="106.150821"/>
     <use style="fill-opacity:0;stroke:#0000ff;stroke-linejoin:bevel;stroke-width:1.5;" x="363.933742" xlink:href="#m1e5bf915d2" y="135.529663"/>
    </g>
   </g>
   <g id="line2d_56">
    <path d="M 333.429677 27.513663 
L 363.933742 84.195327 
" style="fill:none;stroke:#008000;stroke-linecap:square;stroke-width:1.5;"/>
    <g>
     <use style="fill-opacity:0;stroke:#008000;stroke-linejoin:miter;stroke-width:1.5;" x="333.429677" xlink:href="#m201a7f3c95" y="27.513663"/>
     <use style="fill-opacity:0;stroke:#008000;stroke-linejoin:miter;stroke-width:1.5;" x="363.933742" xlink:href="#m201a7f3c95" y="84.195327"/>
    </g>
   </g>
   <g id="line2d_57">
    <path d="M 333.429677 27.513663 
L 363.933742 32.86099 
" style="fill:none;stroke:#00bfbf;stroke-linecap:square;stroke-width:1.5;"/>
    <g>
     <use style="fill-opacity:0;stroke:#00bfbf;stroke-width:1.5;" x="333.429677" xlink:href="#m0ac30663da" y="27.513663"/>
     <use style="fill-opacity:0;stroke:#00bfbf;stroke-width:1.5;" x="363.933742" xlink:href="#m0ac30663da" y="32.86099"/>
    </g>
   </g>
   <g id="line2d_58">
    <path d="M 333.429677 294.88 
L 333.429677 27.513663 
" style="fill:none;stroke:#000000;stroke-linecap:square;stroke-width:1.5;"/>
   </g>
   <g id="patch_3">
    <path d="M 56.12 294.88 
L 56.12 24.84 
" style="fill:none;stroke:#000000;stroke-linecap:square;stroke-linejoin:miter;stroke-width:0.8;"/>
   </g>
   <g id="patch_4">
    <path d="M 399.984 294.88 
L 399.984 24.84 
" style="fill:none;stroke:#000000;stroke-linecap:square;stroke-linejoin:miter;stroke-width:0.8;"/>
   </g>
   <g id="patch_5">
    <path d="M 56.12 294.88 
L 399.984 294.88 
" style="fill:none;stroke:#000000;stroke-linecap:square;stroke-linejoin:miter;stroke-width:0.8;"/>
   </g>
   <g id="patch_6">
    <path d="M 56.12 24.84 
L 399.984 24.84 
" style="fill:none;stroke:#000000;stroke-linecap:square;stroke-linejoin:miter;stroke-width:0.8;"/>
   </g>
   <g id="text_14">
    <!-- 40-D -->
    <defs>
     <path d="M 19.671875 64.796875 
L 19.671875 8.109375 
L 31.59375 8.109375 
Q 46.6875 8.109375 53.6875 14.9375 
Q 60.6875 21.78125 60.6875 36.53125 
Q 60.6875 51.171875 53.6875 57.984375 
Q 46.6875 64.796875 31.59375 64.796875 
z
M 9.8125 72.90625 
L 30.078125 72.90625 
Q 51.265625 72.90625 61.171875 64.09375 
Q 71.09375 55.28125 71.09375 36.53125 
Q 71.09375 17.671875 61.125 8.828125 
Q 51.171875 0 30.078125 0 
L 9.8125 0 
z
" id="DejaVuSans-44"/>
    </defs>
    <g transform="translate(369.479935 294.223611)scale(0.17 -0.17)">
     <use xlink:href="#DejaVuSans-34"/>
     <use x="63.623047" xlink:href="#DejaVuSans-30"/>
     <use x="127.246094" xlink:href="#DejaVuSans-2d"/>
     <use x="163.330078" xlink:href="#DejaVuSans-44"/>
    </g>
   </g>
   <g id="text_15">
    <!-- 20-D -->
    <g transform="translate(369.479935 242.889274)scale(0.17 -0.17)">
     <use xlink:href="#DejaVuSans-32"/>
     <use x="63.623047" xlink:href="#DejaVuSans-30"/>
     <use x="127.246094" xlink:href="#DejaVuSans-2d"/>
     <use x="163.330078" xlink:href="#DejaVuSans-44"/>
    </g>
   </g>
   <g id="text_16">
    <!-- 10-D -->
    <g transform="translate(369.479935 191.554937)scale(0.17 -0.17)">
     <use xlink:href="#DejaVuSans-31"/>
     <use x="63.623047" xlink:href="#DejaVuSans-30"/>
     <use x="127.246094" xlink:href="#DejaVuSans-2d"/>
     <use x="163.330078" xlink:href="#DejaVuSans-44"/>
    </g>
   </g>
   <g id="text_17">
    <!-- 5-D -->
    <defs>
     <path d="M 10.796875 72.90625 
L 49.515625 72.90625 
L 49.515625 64.59375 
L 19.828125 64.59375 
L 19.828125 46.734375 
Q 21.96875 47.46875 24.109375 47.828125 
Q 26.265625 48.1875 28.421875 48.1875 
Q 40.625 48.1875 47.75 41.5 
Q 54.890625 34.8125 54.890625 23.390625 
Q 54.890625 11.625 47.5625 5.09375 
Q 40.234375 -1.421875 26.90625 -1.421875 
Q 22.3125 -1.421875 17.546875 -0.640625 
Q 12.796875 0.140625 7.71875 1.703125 
L 7.71875 11.625 
Q 12.109375 9.234375 16.796875 8.0625 
Q 21.484375 6.890625 26.703125 6.890625 
Q 35.15625 6.890625 40.078125 11.328125 
Q 45.015625 15.765625 45.015625 23.390625 
Q 45.015625 31 40.078125 35.4375 
Q 35.15625 39.890625 26.703125 39.890625 
Q 22.75 39.890625 18.8125 39.015625 
Q 14.890625 38.140625 10.796875 36.28125 
z
" id="DejaVuSans-35"/>
    </defs>
    <g transform="translate(369.479935 140.220601)scale(0.17 -0.17)">
     <use xlink:href="#DejaVuSans-35"/>
     <use x="63.623047" xlink:href="#DejaVuSans-2d"/>
     <use x="99.707031" xlink:href="#DejaVuSans-44"/>
    </g>
   </g>
   <g id="text_18">
    <!-- 3-D -->
    <defs>
     <path d="M 40.578125 39.3125 
Q 47.65625 37.796875 51.625 33 
Q 55.609375 28.21875 55.609375 21.1875 
Q 55.609375 10.40625 48.1875 4.484375 
Q 40.765625 -1.421875 27.09375 -1.421875 
Q 22.515625 -1.421875 17.65625 -0.515625 
Q 12.796875 0.390625 7.625 2.203125 
L 7.625 11.71875 
Q 11.71875 9.328125 16.59375 8.109375 
Q 21.484375 6.890625 26.8125 6.890625 
Q 36.078125 6.890625 40.9375 10.546875 
Q 45.796875 14.203125 45.796875 21.1875 
Q 45.796875 27.640625 41.28125 31.265625 
Q 36.765625 34.90625 28.71875 34.90625 
L 20.21875 34.90625 
L 20.21875 43.015625 
L 29.109375 43.015625 
Q 36.375 43.015625 40.234375 45.921875 
Q 44.09375 48.828125 44.09375 54.296875 
Q 44.09375 59.90625 40.109375 62.90625 
Q 36.140625 65.921875 28.71875 65.921875 
Q 24.65625 65.921875 20.015625 65.03125 
Q 15.375 64.15625 9.8125 62.3125 
L 9.8125 71.09375 
Q 15.4375 72.65625 20.34375 73.4375 
Q 25.25 74.21875 29.59375 74.21875 
Q 40.828125 74.21875 47.359375 69.109375 
Q 53.90625 64.015625 53.90625 55.328125 
Q 53.90625 49.265625 50.4375 45.09375 
Q 46.96875 40.921875 40.578125 39.3125 
z
" id="DejaVuSans-33"/>
    </defs>
    <g transform="translate(369.479935 88.886264)scale(0.17 -0.17)">
     <use xlink:href="#DejaVuSans-33"/>
     <use x="63.623047" xlink:href="#DejaVuSans-2d"/>
     <use x="99.707031" xlink:href="#DejaVuSans-44"/>
    </g>
   </g>
   <g id="text_19">
    <!-- 2-D -->
    <g transform="translate(369.479935 37.551928)scale(0.17 -0.17)">
     <use xlink:href="#DejaVuSans-32"/>
     <use x="63.623047" xlink:href="#DejaVuSans-2d"/>
     <use x="99.707031" xlink:href="#DejaVuSans-44"/>
    </g>
   </g>
   <g id="text_20">
    <!-- bbob f14 -->
    <defs>
     <path d="M 48.6875 27.296875 
Q 48.6875 37.203125 44.609375 42.84375 
Q 40.53125 48.484375 33.40625 48.484375 
Q 26.265625 48.484375 22.1875 42.84375 
Q 18.109375 37.203125 18.109375 27.296875 
Q 18.109375 17.390625 22.1875 11.75 
Q 26.265625 6.109375 33.40625 6.109375 
Q 40.53125 6.109375 44.609375 11.75 
Q 48.6875 17.390625 48.6875 27.296875 
z
M 18.109375 46.390625 
Q 20.953125 51.265625 25.265625 53.625 
Q 29.59375 56 35.59375 56 
Q 45.5625 56 51.78125 48.09375 
Q 58.015625 40.1875 58.015625 27.296875 
Q 58.015625 14.40625 51.78125 6.484375 
Q 45.5625 -1.421875 35.59375 -1.421875 
Q 29.59375 -1.421875 25.265625 0.953125 
Q 20.953125 3.328125 18.109375 8.203125 
L 18.109375 0 
L 9.078125 0 
L 9.078125 75.984375 
L 18.109375 75.984375 
z
" id="DejaVuSans-62"/>
    </defs>
    <g transform="translate(59.55864 35.290806)scale(0.102 -0.102)">
     <use xlink:href="#DejaVuSans-62"/>
     <use x="63.476562" xlink:href="#DejaVuSans-62"/>
     <use x="126.953125" xlink:href="#DejaVuSans-6f"/>
     <use x="188.134766" xlink:href="#DejaVuSans-62"/>
     <use x="251.611328" xlink:href="#DejaVuSans-20"/>
     <use x="283.398438" xlink:href="#DejaVuSans-66"/>
     <use x="318.603516" xlink:href="#DejaVuSans-31"/>
     <use x="382.226562" xlink:href="#DejaVuSans-34"/>
    </g>
    <!-- 51 targets: 100..1e-08 -->
    <defs>
     <path d="M 11.71875 12.40625 
L 22.015625 12.40625 
L 22.015625 0 
L 11.71875 0 
z
M 11.71875 51.703125 
L 22.015625 51.703125 
L 22.015625 39.3125 
L 11.71875 39.3125 
z
" id="DejaVuSans-3a"/>
    </defs>
    <g transform="translate(59.55864 46.712575)scale(0.102 -0.102)">
     <use xlink:href="#DejaVuSans-35"/>
     <use x="63.623047" xlink:href="#DejaVuSans-31"/>
     <use x="127.246094" xlink:href="#DejaVuSans-20"/>
     <use x="159.033203" xlink:href="#DejaVuSans-74"/>
     <use x="198.242188" xlink:href="#DejaVuSans-61"/>
     <use x="259.521484" xlink:href="#DejaVuSans-72"/>
     <use x="300.619141" xlink:href="#DejaVuSans-67"/>
     <use x="364.095703" xlink:href="#DejaVuSans-65"/>
     <use x="425.619141" xlink:href="#DejaVuSans-74"/>
     <use x="464.828125" xlink:href="#DejaVuSans-73"/>
     <use x="516.927734" xlink:href="#DejaVuSans-3a"/>
     <use x="550.619141" xlink:href="#DejaVuSans-20"/>
     <use x="582.40625" xlink:href="#DejaVuSans-31"/>
     <use x="646.029297" xlink:href="#DejaVuSans-30"/>
     <use x="709.652344" xlink:href="#DejaVuSans-30"/>
     <use x="773.275391" xlink:href="#DejaVuSans-2e"/>
     <use x="805.0625" xlink:href="#DejaVuSans-2e"/>
     <use x="836.849609" xlink:href="#DejaVuSans-31"/>
     <use x="900.472656" xlink:href="#DejaVuSans-65"/>
     <use x="961.996094" xlink:href="#DejaVuSans-2d"/>
     <use x="998.080078" xlink:href="#DejaVuSans-30"/>
     <use x="1061.703125" xlink:href="#DejaVuSans-38"/>
    </g>
    <!-- 15 instances -->
    <g transform="translate(59.55864 58.134344)scale(0.102 -0.102)">
     <use xlink:href="#DejaVuSans-31"/>
     <use x="63.623047" xlink:href="#DejaVuSans-35"/>
     <use x="127.246094" xlink:href="#DejaVuSans-20"/>
     <use x="159.033203" xlink:href="#DejaVuSans-69"/>
     <use x="186.816406" xlink:href="#DejaVuSans-6e"/>
     <use x="250.195312" xlink:href="#DejaVuSans-73"/>
     <use x="302.294922" xlink:href="#DejaVuSans-74"/>
     <use x="341.503906" xlink:href="#DejaVuSans-61"/>
     <use x="402.783203" xlink:href="#DejaVuSans-6e"/>
     <use x="466.162109" xlink:href="#DejaVuSans-63"/>
     <use x="521.142578" xlink:href="#DejaVuSans-65"/>
     <use x="582.666016" xlink:href="#DejaVuSans-73"/>
    </g>
   </g>
   <g id="text_21">
    <!-- v2.2.1.10 -->
    <g style="fill:#808080;" transform="translate(204.419188 290.099912)scale(0.1 -0.1)">
     <use xlink:href="#DejaVuSans-76"/>
     <use x="59.179688" xlink:href="#DejaVuSans-32"/>
     <use x="122.802734" xlink:href="#DejaVuSans-2e"/>
     <use x="154.589844" xlink:href="#DejaVuSans-32"/>
     <use x="218.212891" xlink:href="#DejaVuSans-2e"/>
     <use x="250" xlink:href="#DejaVuSans-31"/>
     <use x="313.623047" xlink:href="#DejaVuSans-2e"/>
     <use x="345.410156" xlink:href="#DejaVuSans-31"/>
     <use x="409.033203" xlink:href="#DejaVuSans-30"/>
    </g>
   </g>
   <g id="text_22">
    <!-- 14 Sum of different powers -->
    <defs>
     <path d="M 53.515625 70.515625 
L 53.515625 60.890625 
Q 47.90625 63.578125 42.921875 64.890625 
Q 37.9375 66.21875 33.296875 66.21875 
Q 25.25 66.21875 20.875 63.09375 
Q 16.5 59.96875 16.5 54.203125 
Q 16.5 49.359375 19.40625 46.890625 
Q 22.3125 44.4375 30.421875 42.921875 
L 36.375 41.703125 
Q 47.40625 39.59375 52.65625 34.296875 
Q 57.90625 29 57.90625 20.125 
Q 57.90625 9.515625 50.796875 4.046875 
Q 43.703125 -1.421875 29.984375 -1.421875 
Q 24.8125 -1.421875 18.96875 -0.25 
Q 13.140625 0.921875 6.890625 3.21875 
L 6.890625 13.375 
Q 12.890625 10.015625 18.65625 8.296875 
Q 24.421875 6.59375 29.984375 6.59375 
Q 38.421875 6.59375 43.015625 9.90625 
Q 47.609375 13.234375 47.609375 19.390625 
Q 47.609375 24.75 44.3125 27.78125 
Q 41.015625 30.8125 33.5 32.328125 
L 27.484375 33.5 
Q 16.453125 35.6875 11.515625 40.375 
Q 6.59375 45.0625 6.59375 53.421875 
Q 6.59375 63.09375 13.40625 68.65625 
Q 20.21875 74.21875 32.171875 74.21875 
Q 37.3125 74.21875 42.625 73.28125 
Q 47.953125 72.359375 53.515625 70.515625 
z
" id="DejaVuSans-53"/>
     <path d="M 4.203125 54.6875 
L 13.1875 54.6875 
L 24.421875 12.015625 
L 35.59375 54.6875 
L 46.1875 54.6875 
L 57.421875 12.015625 
L 68.609375 54.6875 
L 77.59375 54.6875 
L 63.28125 0 
L 52.6875 0 
L 40.921875 44.828125 
L 29.109375 0 
L 18.5 0 
z
" id="DejaVuSans-77"/>
    </defs>
    <g transform="translate(91.591063 18.84)scale(0.2 -0.2)">
     <use xlink:href="#DejaVuSans-31"/>
     <use x="63.623047" xlink:href="#DejaVuSans-34"/>
     <use x="127.246094" xlink:href="#DejaVuSans-20"/>
     <use x="159.033203" xlink:href="#DejaVuSans-53"/>
     <use x="222.509766" xlink:href="#DejaVuSans-75"/>
     <use x="285.888672" xlink:href="#DejaVuSans-6d"/>
     <use x="383.300781" xlink:href="#DejaVuSans-20"/>
     <use x="415.087891" xlink:href="#DejaVuSans-6f"/>
     <use x="476.269531" xlink:href="#DejaVuSans-66"/>
     <use x="511.474609" xlink:href="#DejaVuSans-20"/>
     <use x="543.261719" xlink:href="#DejaVuSans-64"/>
     <use x="606.738281" xlink:href="#DejaVuSans-69"/>
     <use x="634.521484" xlink:href="#DejaVuSans-66"/>
     <use x="669.726562" xlink:href="#DejaVuSans-66"/>
     <use x="704.931641" xlink:href="#DejaVuSans-65"/>
     <use x="766.455078" xlink:href="#DejaVuSans-72"/>
     <use x="807.537109" xlink:href="#DejaVuSans-65"/>
     <use x="869.060547" xlink:href="#DejaVuSans-6e"/>
     <use x="932.439453" xlink:href="#DejaVuSans-74"/>
     <use x="971.648438" xlink:href="#DejaVuSans-20"/>
     <use x="1003.435547" xlink:href="#DejaVuSans-70"/>
     <use x="1066.912109" xlink:href="#DejaVuSans-6f"/>
     <use x="1128.09375" xlink:href="#DejaVuSans-77"/>
     <use x="1209.880859" xlink:href="#DejaVuSans-65"/>
     <use x="1271.404297" xlink:href="#DejaVuSans-72"/>
     <use x="1312.517578" xlink:href="#DejaVuSans-73"/>
    </g>
   </g>
  </g>
 </g>
 <defs>
  <clipPath id="p79d2ce6b3d">
   <rect height="270.04" width="343.864" x="56.12" y="24.84"/>
  </clipPath>
 </defs>
</svg>
