<?xml version="1.0" encoding="utf-8" standalone="no"?>
<!DOCTYPE svg PUBLIC "-//W3C//DTD SVG 1.1//EN"
  "http://www.w3.org/Graphics/SVG/1.1/DTD/svg11.dtd">
<!-- Created with matplotlib (http://matplotlib.org/) -->
<svg height="345.6pt" version="1.1" viewBox="0 0 460.8 345.6" width="460.8pt" xmlns="http://www.w3.org/2000/svg" xmlns:xlink="http://www.w3.org/1999/xlink">
 <defs>
  <style type="text/css">
*{stroke-linecap:butt;stroke-linejoin:round;}
  </style>
 </defs>
 <g id="figure_1">
  <g id="patch_1">
   <path d="M 0 345.6 
L 460.8 345.6 
L 460.8 0 
L 0 0 
z
" style="fill:#ffffff;"/>
  </g>
  <g id="axes_1">
   <g id="patch_2">
    <path d="M 56.12 294.88 
L 399.984 294.88 
L 399.984 6.845228 
L 56.12 6.845228 
z
" style="fill:#ffffff;"/>
   </g>
   <g id="matplotlib.axis_1">
    <g id="xtick_1">
     <g id="line2d_1">
      <path clip-path="url(#p5ab785754b)" d="M 56.12 294.88 
L 56.12 6.845228 
" style="fill:none;stroke:#b0b0b0;stroke-linecap:square;stroke-width:0.8;"/>
     </g>
     <g id="line2d_2">
      <defs>
       <path d="M 0 0 
L 0 3.5 
" id="m1f8fcf9e9a" style="stroke:#000000;stroke-width:0.8;"/>
      </defs>
      <g>
       <use style="stroke:#000000;stroke-width:0.8;" x="56.12" xlink:href="#m1f8fcf9e9a" y="294.88"/>
      </g>
     </g>
     <g id="text_1">
      <!-- 0 -->
      <defs>
       <path d="M 31.78125 66.40625 
Q 24.171875 66.40625 20.328125 58.90625 
Q 16.5 51.421875 16.5 36.375 
Q 16.5 21.390625 20.328125 13.890625 
Q 24.171875 6.390625 31.78125 6.390625 
Q 39.453125 6.390625 43.28125 13.890625 
Q 47.125 21.390625 47.125 36.375 
Q 47.125 51.421875 43.28125 58.90625 
Q 39.453125 66.40625 31.78125 66.40625 
z
M 31.78125 74.21875 
Q 44.046875 74.21875 50.515625 64.515625 
Q 56.984375 54.828125 56.984375 36.375 
Q 56.984375 17.96875 50.515625 8.265625 
Q 44.046875 -1.421875 31.78125 -1.421875 
Q 19.53125 -1.421875 13.0625 8.265625 
Q 6.59375 17.96875 6.59375 36.375 
Q 6.59375 54.828125 13.0625 64.515625 
Q 19.53125 74.21875 31.78125 74.21875 
z
" id="DejaVuSans-30"/>
      </defs>
      <g transform="translate(49.7575 317.076875)scale(0.2 -0.2)">
       <use xlink:href="#DejaVuSans-30"/>
      </g>
     </g>
    </g>
    <g id="xtick_2">
     <g id="line2d_3">
      <path clip-path="url(#p5ab785754b)" d="M 135.351336 294.88 
L 135.351336 6.845228 
" style="fill:none;stroke:#b0b0b0;stroke-linecap:square;stroke-width:0.8;"/>
     </g>
     <g id="line2d_4">
      <g>
       <use style="stroke:#000000;stroke-width:0.8;" x="135.351336" xlink:href="#m1f8fcf9e9a" y="294.88"/>
      </g>
     </g>
     <g id="text_2">
      <!-- 2 -->
      <defs>
       <path d="M 19.1875 8.296875 
L 53.609375 8.296875 
L 53.609375 0 
L 7.328125 0 
L 7.328125 8.296875 
Q 12.9375 14.109375 22.625 23.890625 
Q 32.328125 33.6875 34.8125 36.53125 
Q 39.546875 41.84375 41.421875 45.53125 
Q 43.3125 49.21875 43.3125 52.78125 
Q 43.3125 58.59375 39.234375 62.25 
Q 35.15625 65.921875 28.609375 65.921875 
Q 23.96875 65.921875 18.8125 64.3125 
Q 13.671875 62.703125 7.8125 59.421875 
L 7.8125 69.390625 
Q 13.765625 71.78125 18.9375 73 
Q 24.125 74.21875 28.421875 74.21875 
Q 39.75 74.21875 46.484375 68.546875 
Q 53.21875 62.890625 53.21875 53.421875 
Q 53.21875 48.921875 51.53125 44.890625 
Q 49.859375 40.875 45.40625 35.40625 
Q 44.1875 33.984375 37.640625 27.21875 
Q 31.109375 20.453125 19.1875 8.296875 
z
" id="DejaVuSans-32"/>
      </defs>
      <g transform="translate(128.988836 317.076875)scale(0.2 -0.2)">
       <use xlink:href="#DejaVuSans-32"/>
      </g>
     </g>
    </g>
    <g id="xtick_3">
     <g id="line2d_5">
      <path clip-path="url(#p5ab785754b)" d="M 214.582673 294.88 
L 214.582673 6.845228 
" style="fill:none;stroke:#b0b0b0;stroke-linecap:square;stroke-width:0.8;"/>
     </g>
     <g id="line2d_6">
      <g>
       <use style="stroke:#000000;stroke-width:0.8;" x="214.582673" xlink:href="#m1f8fcf9e9a" y="294.88"/>
      </g>
     </g>
     <g id="text_3">
      <!-- 4 -->
      <defs>
       <path d="M 37.796875 64.3125 
L 12.890625 25.390625 
L 37.796875 25.390625 
z
M 35.203125 72.90625 
L 47.609375 72.90625 
L 47.609375 25.390625 
L 58.015625 25.390625 
L 58.015625 17.1875 
L 47.609375 17.1875 
L 47.609375 0 
L 37.796875 0 
L 37.796875 17.1875 
L 4.890625 17.1875 
L 4.890625 26.703125 
z
" id="DejaVuSans-34"/>
      </defs>
      <g transform="translate(208.220173 317.076875)scale(0.2 -0.2)">
       <use xlink:href="#DejaVuSans-34"/>
      </g>
     </g>
    </g>
    <g id="xtick_4">
     <g id="line2d_7">
      <path clip-path="url(#p5ab785754b)" d="M 293.814009 294.88 
L 293.814009 6.845228 
" style="fill:none;stroke:#b0b0b0;stroke-linecap:square;stroke-width:0.8;"/>
     </g>
     <g id="line2d_8">
      <g>
       <use style="stroke:#000000;stroke-width:0.8;" x="293.814009" xlink:href="#m1f8fcf9e9a" y="294.88"/>
      </g>
     </g>
     <g id="text_4">
      <!-- 6 -->
      <defs>
       <path d="M 33.015625 40.375 
Q 26.375 40.375 22.484375 35.828125 
Q 18.609375 31.296875 18.609375 23.390625 
Q 18.609375 15.53125 22.484375 10.953125 
Q 26.375 6.390625 33.015625 6.390625 
Q 39.65625 6.390625 43.53125 10.953125 
Q 47.40625 15.53125 47.40625 23.390625 
Q 47.40625 31.296875 43.53125 35.828125 
Q 39.65625 40.375 33.015625 40.375 
z
M 52.59375 71.296875 
L 52.59375 62.3125 
Q 48.875 64.0625 45.09375 64.984375 
Q 41.3125 65.921875 37.59375 65.921875 
Q 27.828125 65.921875 22.671875 59.328125 
Q 17.53125 52.734375 16.796875 39.40625 
Q 19.671875 43.65625 24.015625 45.921875 
Q 28.375 48.1875 33.59375 48.1875 
Q 44.578125 48.1875 50.953125 41.515625 
Q 57.328125 34.859375 57.328125 23.390625 
Q 57.328125 12.15625 50.6875 5.359375 
Q 44.046875 -1.421875 33.015625 -1.421875 
Q 20.359375 -1.421875 13.671875 8.265625 
Q 6.984375 17.96875 6.984375 36.375 
Q 6.984375 53.65625 15.1875 63.9375 
Q 23.390625 74.21875 37.203125 74.21875 
Q 40.921875 74.21875 44.703125 73.484375 
Q 48.484375 72.75 52.59375 71.296875 
z
" id="DejaVuSans-36"/>
      </defs>
      <g transform="translate(287.451509 317.076875)scale(0.2 -0.2)">
       <use xlink:href="#DejaVuSans-36"/>
      </g>
     </g>
    </g>
    <g id="xtick_5">
     <g id="line2d_9">
      <path clip-path="url(#p5ab785754b)" d="M 373.045346 294.88 
L 373.045346 6.845228 
" style="fill:none;stroke:#b0b0b0;stroke-linecap:square;stroke-width:0.8;"/>
     </g>
     <g id="line2d_10">
      <g>
       <use style="stroke:#000000;stroke-width:0.8;" x="373.045346" xlink:href="#m1f8fcf9e9a" y="294.88"/>
      </g>
     </g>
     <g id="text_5">
      <!-- 8 -->
      <defs>
       <path d="M 31.78125 34.625 
Q 24.75 34.625 20.71875 30.859375 
Q 16.703125 27.09375 16.703125 20.515625 
Q 16.703125 13.921875 20.71875 10.15625 
Q 24.75 6.390625 31.78125 6.390625 
Q 38.8125 6.390625 42.859375 10.171875 
Q 46.921875 13.96875 46.921875 20.515625 
Q 46.921875 27.09375 42.890625 30.859375 
Q 38.875 34.625 31.78125 34.625 
z
M 21.921875 38.8125 
Q 15.578125 40.375 12.03125 44.71875 
Q 8.5 49.078125 8.5 55.328125 
Q 8.5 64.0625 14.71875 69.140625 
Q 20.953125 74.21875 31.78125 74.21875 
Q 42.671875 74.21875 48.875 69.140625 
Q 55.078125 64.0625 55.078125 55.328125 
Q 55.078125 49.078125 51.53125 44.71875 
Q 48 40.375 41.703125 38.8125 
Q 48.828125 37.15625 52.796875 32.3125 
Q 56.78125 27.484375 56.78125 20.515625 
Q 56.78125 9.90625 50.3125 4.234375 
Q 43.84375 -1.421875 31.78125 -1.421875 
Q 19.734375 -1.421875 13.25 4.234375 
Q 6.78125 9.90625 6.78125 20.515625 
Q 6.78125 27.484375 10.78125 32.3125 
Q 14.796875 37.15625 21.921875 38.8125 
z
M 18.3125 54.390625 
Q 18.3125 48.734375 21.84375 45.5625 
Q 25.390625 42.390625 31.78125 42.390625 
Q 38.140625 42.390625 41.71875 45.5625 
Q 45.3125 48.734375 45.3125 54.390625 
Q 45.3125 60.0625 41.71875 63.234375 
Q 38.140625 66.40625 31.78125 66.40625 
Q 25.390625 66.40625 21.84375 63.234375 
Q 18.3125 60.0625 18.3125 54.390625 
z
" id="DejaVuSans-38"/>
      </defs>
      <g transform="translate(366.682846 317.076875)scale(0.2 -0.2)">
       <use xlink:href="#DejaVuSans-38"/>
      </g>
     </g>
    </g>
    <g id="text_6">
     <!-- log10(# f-evals / dimension) -->
     <defs>
      <path d="M 9.421875 75.984375 
L 18.40625 75.984375 
L 18.40625 0 
L 9.421875 0 
z
" id="DejaVuSans-6c"/>
      <path d="M 30.609375 48.390625 
Q 23.390625 48.390625 19.1875 42.75 
Q 14.984375 37.109375 14.984375 27.296875 
Q 14.984375 17.484375 19.15625 11.84375 
Q 23.34375 6.203125 30.609375 6.203125 
Q 37.796875 6.203125 41.984375 11.859375 
Q 46.1875 17.53125 46.1875 27.296875 
Q 46.1875 37.015625 41.984375 42.703125 
Q 37.796875 48.390625 30.609375 48.390625 
z
M 30.609375 56 
Q 42.328125 56 49.015625 48.375 
Q 55.71875 40.765625 55.71875 27.296875 
Q 55.71875 13.875 49.015625 6.21875 
Q 42.328125 -1.421875 30.609375 -1.421875 
Q 18.84375 -1.421875 12.171875 6.21875 
Q 5.515625 13.875 5.515625 27.296875 
Q 5.515625 40.765625 12.171875 48.375 
Q 18.84375 56 30.609375 56 
z
" id="DejaVuSans-6f"/>
      <path d="M 45.40625 27.984375 
Q 45.40625 37.75 41.375 43.109375 
Q 37.359375 48.484375 30.078125 48.484375 
Q 22.859375 48.484375 18.828125 43.109375 
Q 14.796875 37.75 14.796875 27.984375 
Q 14.796875 18.265625 18.828125 12.890625 
Q 22.859375 7.515625 30.078125 7.515625 
Q 37.359375 7.515625 41.375 12.890625 
Q 45.40625 18.265625 45.40625 27.984375 
z
M 54.390625 6.78125 
Q 54.390625 -7.171875 48.1875 -13.984375 
Q 42 -20.796875 29.203125 -20.796875 
Q 24.46875 -20.796875 20.265625 -20.09375 
Q 16.0625 -19.390625 12.109375 -17.921875 
L 12.109375 -9.1875 
Q 16.0625 -11.328125 19.921875 -12.34375 
Q 23.78125 -13.375 27.78125 -13.375 
Q 36.625 -13.375 41.015625 -8.765625 
Q 45.40625 -4.15625 45.40625 5.171875 
L 45.40625 9.625 
Q 42.625 4.78125 38.28125 2.390625 
Q 33.9375 0 27.875 0 
Q 17.828125 0 11.671875 7.65625 
Q 5.515625 15.328125 5.515625 27.984375 
Q 5.515625 40.671875 11.671875 48.328125 
Q 17.828125 56 27.875 56 
Q 33.9375 56 38.28125 53.609375 
Q 42.625 51.21875 45.40625 46.390625 
L 45.40625 54.6875 
L 54.390625 54.6875 
z
" id="DejaVuSans-67"/>
      <path d="M 12.40625 8.296875 
L 28.515625 8.296875 
L 28.515625 63.921875 
L 10.984375 60.40625 
L 10.984375 69.390625 
L 28.421875 72.90625 
L 38.28125 72.90625 
L 38.28125 8.296875 
L 54.390625 8.296875 
L 54.390625 0 
L 12.40625 0 
z
" id="DejaVuSans-31"/>
      <path d="M 31 75.875 
Q 24.46875 64.65625 21.28125 53.65625 
Q 18.109375 42.671875 18.109375 31.390625 
Q 18.109375 20.125 21.3125 9.0625 
Q 24.515625 -2 31 -13.1875 
L 23.1875 -13.1875 
Q 15.875 -1.703125 12.234375 9.375 
Q 8.59375 20.453125 8.59375 31.390625 
Q 8.59375 42.28125 12.203125 53.3125 
Q 15.828125 64.359375 23.1875 75.875 
z
" id="DejaVuSans-28"/>
      <path d="M 51.125 44 
L 36.921875 44 
L 32.8125 27.6875 
L 47.125 27.6875 
z
M 43.796875 71.78125 
L 38.71875 51.515625 
L 52.984375 51.515625 
L 58.109375 71.78125 
L 65.921875 71.78125 
L 60.890625 51.515625 
L 76.125 51.515625 
L 76.125 44 
L 58.984375 44 
L 54.984375 27.6875 
L 70.515625 27.6875 
L 70.515625 20.21875 
L 53.078125 20.21875 
L 48 0 
L 40.1875 0 
L 45.21875 20.21875 
L 30.90625 20.21875 
L 25.875 0 
L 18.015625 0 
L 23.09375 20.21875 
L 7.71875 20.21875 
L 7.71875 27.6875 
L 24.90625 27.6875 
L 29 44 
L 13.28125 44 
L 13.28125 51.515625 
L 30.90625 51.515625 
L 35.890625 71.78125 
z
" id="DejaVuSans-23"/>
      <path id="DejaVuSans-20"/>
      <path d="M 37.109375 75.984375 
L 37.109375 68.5 
L 28.515625 68.5 
Q 23.6875 68.5 21.796875 66.546875 
Q 19.921875 64.59375 19.921875 59.515625 
L 19.921875 54.6875 
L 34.71875 54.6875 
L 34.71875 47.703125 
L 19.921875 47.703125 
L 19.921875 0 
L 10.890625 0 
L 10.890625 47.703125 
L 2.296875 47.703125 
L 2.296875 54.6875 
L 10.890625 54.6875 
L 10.890625 58.5 
Q 10.890625 67.625 15.140625 71.796875 
Q 19.390625 75.984375 28.609375 75.984375 
z
" id="DejaVuSans-66"/>
      <path d="M 4.890625 31.390625 
L 31.203125 31.390625 
L 31.203125 23.390625 
L 4.890625 23.390625 
z
" id="DejaVuSans-2d"/>
      <path d="M 56.203125 29.59375 
L 56.203125 25.203125 
L 14.890625 25.203125 
Q 15.484375 15.921875 20.484375 11.0625 
Q 25.484375 6.203125 34.421875 6.203125 
Q 39.59375 6.203125 44.453125 7.46875 
Q 49.3125 8.734375 54.109375 11.28125 
L 54.109375 2.78125 
Q 49.265625 0.734375 44.1875 -0.34375 
Q 39.109375 -1.421875 33.890625 -1.421875 
Q 20.796875 -1.421875 13.15625 6.1875 
Q 5.515625 13.8125 5.515625 26.8125 
Q 5.515625 40.234375 12.765625 48.109375 
Q 20.015625 56 32.328125 56 
Q 43.359375 56 49.78125 48.890625 
Q 56.203125 41.796875 56.203125 29.59375 
z
M 47.21875 32.234375 
Q 47.125 39.59375 43.09375 43.984375 
Q 39.0625 48.390625 32.421875 48.390625 
Q 24.90625 48.390625 20.390625 44.140625 
Q 15.875 39.890625 15.1875 32.171875 
z
" id="DejaVuSans-65"/>
      <path d="M 2.984375 54.6875 
L 12.5 54.6875 
L 29.59375 8.796875 
L 46.6875 54.6875 
L 56.203125 54.6875 
L 35.6875 0 
L 23.484375 0 
z
" id="DejaVuSans-76"/>
      <path d="M 34.28125 27.484375 
Q 23.390625 27.484375 19.1875 25 
Q 14.984375 22.515625 14.984375 16.5 
Q 14.984375 11.71875 18.140625 8.90625 
Q 21.296875 6.109375 26.703125 6.109375 
Q 34.1875 6.109375 38.703125 11.40625 
Q 43.21875 16.703125 43.21875 25.484375 
L 43.21875 27.484375 
z
M 52.203125 31.203125 
L 52.203125 0 
L 43.21875 0 
L 43.21875 8.296875 
Q 40.140625 3.328125 35.546875 0.953125 
Q 30.953125 -1.421875 24.3125 -1.421875 
Q 15.921875 -1.421875 10.953125 3.296875 
Q 6 8.015625 6 15.921875 
Q 6 25.140625 12.171875 29.828125 
Q 18.359375 34.515625 30.609375 34.515625 
L 43.21875 34.515625 
L 43.21875 35.40625 
Q 43.21875 41.609375 39.140625 45 
Q 35.0625 48.390625 27.6875 48.390625 
Q 23 48.390625 18.546875 47.265625 
Q 14.109375 46.140625 10.015625 43.890625 
L 10.015625 52.203125 
Q 14.9375 54.109375 19.578125 55.046875 
Q 24.21875 56 28.609375 56 
Q 40.484375 56 46.34375 49.84375 
Q 52.203125 43.703125 52.203125 31.203125 
z
" id="DejaVuSans-61"/>
      <path d="M 44.28125 53.078125 
L 44.28125 44.578125 
Q 40.484375 46.53125 36.375 47.5 
Q 32.28125 48.484375 27.875 48.484375 
Q 21.1875 48.484375 17.84375 46.4375 
Q 14.5 44.390625 14.5 40.28125 
Q 14.5 37.15625 16.890625 35.375 
Q 19.28125 33.59375 26.515625 31.984375 
L 29.59375 31.296875 
Q 39.15625 29.25 43.1875 25.515625 
Q 47.21875 21.78125 47.21875 15.09375 
Q 47.21875 7.46875 41.1875 3.015625 
Q 35.15625 -1.421875 24.609375 -1.421875 
Q 20.21875 -1.421875 15.453125 -0.5625 
Q 10.6875 0.296875 5.421875 2 
L 5.421875 11.28125 
Q 10.40625 8.6875 15.234375 7.390625 
Q 20.0625 6.109375 24.8125 6.109375 
Q 31.15625 6.109375 34.5625 8.28125 
Q 37.984375 10.453125 37.984375 14.40625 
Q 37.984375 18.0625 35.515625 20.015625 
Q 33.0625 21.96875 24.703125 23.78125 
L 21.578125 24.515625 
Q 13.234375 26.265625 9.515625 29.90625 
Q 5.8125 33.546875 5.8125 39.890625 
Q 5.8125 47.609375 11.28125 51.796875 
Q 16.75 56 26.8125 56 
Q 31.78125 56 36.171875 55.265625 
Q 40.578125 54.546875 44.28125 53.078125 
z
" id="DejaVuSans-73"/>
      <path d="M 25.390625 72.90625 
L 33.6875 72.90625 
L 8.296875 -9.28125 
L 0 -9.28125 
z
" id="DejaVuSans-2f"/>
      <path d="M 45.40625 46.390625 
L 45.40625 75.984375 
L 54.390625 75.984375 
L 54.390625 0 
L 45.40625 0 
L 45.40625 8.203125 
Q 42.578125 3.328125 38.25 0.953125 
Q 33.9375 -1.421875 27.875 -1.421875 
Q 17.96875 -1.421875 11.734375 6.484375 
Q 5.515625 14.40625 5.515625 27.296875 
Q 5.515625 40.1875 11.734375 48.09375 
Q 17.96875 56 27.875 56 
Q 33.9375 56 38.25 53.625 
Q 42.578125 51.265625 45.40625 46.390625 
z
M 14.796875 27.296875 
Q 14.796875 17.390625 18.875 11.75 
Q 22.953125 6.109375 30.078125 6.109375 
Q 37.203125 6.109375 41.296875 11.75 
Q 45.40625 17.390625 45.40625 27.296875 
Q 45.40625 37.203125 41.296875 42.84375 
Q 37.203125 48.484375 30.078125 48.484375 
Q 22.953125 48.484375 18.875 42.84375 
Q 14.796875 37.203125 14.796875 27.296875 
z
" id="DejaVuSans-64"/>
      <path d="M 9.421875 54.6875 
L 18.40625 54.6875 
L 18.40625 0 
L 9.421875 0 
z
M 9.421875 75.984375 
L 18.40625 75.984375 
L 18.40625 64.59375 
L 9.421875 64.59375 
z
" id="DejaVuSans-69"/>
      <path d="M 52 44.1875 
Q 55.375 50.25 60.0625 53.125 
Q 64.75 56 71.09375 56 
Q 79.640625 56 84.28125 50.015625 
Q 88.921875 44.046875 88.921875 33.015625 
L 88.921875 0 
L 79.890625 0 
L 79.890625 32.71875 
Q 79.890625 40.578125 77.09375 44.375 
Q 74.3125 48.1875 68.609375 48.1875 
Q 61.625 48.1875 57.5625 43.546875 
Q 53.515625 38.921875 53.515625 30.90625 
L 53.515625 0 
L 44.484375 0 
L 44.484375 32.71875 
Q 44.484375 40.625 41.703125 44.40625 
Q 38.921875 48.1875 33.109375 48.1875 
Q 26.21875 48.1875 22.15625 43.53125 
Q 18.109375 38.875 18.109375 30.90625 
L 18.109375 0 
L 9.078125 0 
L 9.078125 54.6875 
L 18.109375 54.6875 
L 18.109375 46.1875 
Q 21.1875 51.21875 25.484375 53.609375 
Q 29.78125 56 35.6875 56 
Q 41.65625 56 45.828125 52.96875 
Q 50 49.953125 52 44.1875 
z
" id="DejaVuSans-6d"/>
      <path d="M 54.890625 33.015625 
L 54.890625 0 
L 45.90625 0 
L 45.90625 32.71875 
Q 45.90625 40.484375 42.875 44.328125 
Q 39.84375 48.1875 33.796875 48.1875 
Q 26.515625 48.1875 22.3125 43.546875 
Q 18.109375 38.921875 18.109375 30.90625 
L 18.109375 0 
L 9.078125 0 
L 9.078125 54.6875 
L 18.109375 54.6875 
L 18.109375 46.1875 
Q 21.34375 51.125 25.703125 53.5625 
Q 30.078125 56 35.796875 56 
Q 45.21875 56 50.046875 50.171875 
Q 54.890625 44.34375 54.890625 33.015625 
z
" id="DejaVuSans-6e"/>
      <path d="M 8.015625 75.875 
L 15.828125 75.875 
Q 23.140625 64.359375 26.78125 53.3125 
Q 30.421875 42.28125 30.421875 31.390625 
Q 30.421875 20.453125 26.78125 9.375 
Q 23.140625 -1.703125 15.828125 -13.1875 
L 8.015625 -13.1875 
Q 14.5 -2 17.703125 9.0625 
Q 20.90625 20.125 20.90625 31.390625 
Q 20.90625 42.671875 17.703125 53.65625 
Q 14.5 64.65625 8.015625 75.875 
z
" id="DejaVuSans-29"/>
     </defs>
     <g transform="translate(107.211219 338.153594)scale(0.17 -0.17)">
      <use xlink:href="#DejaVuSans-6c"/>
      <use x="27.783203" xlink:href="#DejaVuSans-6f"/>
      <use x="88.964844" xlink:href="#DejaVuSans-67"/>
      <use x="152.441406" xlink:href="#DejaVuSans-31"/>
      <use x="216.064453" xlink:href="#DejaVuSans-30"/>
      <use x="279.6875" xlink:href="#DejaVuSans-28"/>
      <use x="318.701172" xlink:href="#DejaVuSans-23"/>
      <use x="402.490234" xlink:href="#DejaVuSans-20"/>
      <use x="434.277344" xlink:href="#DejaVuSans-66"/>
      <use x="469.404297" xlink:href="#DejaVuSans-2d"/>
      <use x="505.488281" xlink:href="#DejaVuSans-65"/>
      <use x="567.011719" xlink:href="#DejaVuSans-76"/>
      <use x="626.191406" xlink:href="#DejaVuSans-61"/>
      <use x="687.470703" xlink:href="#DejaVuSans-6c"/>
      <use x="715.253906" xlink:href="#DejaVuSans-73"/>
      <use x="767.353516" xlink:href="#DejaVuSans-20"/>
      <use x="799.140625" xlink:href="#DejaVuSans-2f"/>
      <use x="832.832031" xlink:href="#DejaVuSans-20"/>
      <use x="864.619141" xlink:href="#DejaVuSans-64"/>
      <use x="928.095703" xlink:href="#DejaVuSans-69"/>
      <use x="955.878906" xlink:href="#DejaVuSans-6d"/>
      <use x="1053.291016" xlink:href="#DejaVuSans-65"/>
      <use x="1114.814453" xlink:href="#DejaVuSans-6e"/>
      <use x="1178.193359" xlink:href="#DejaVuSans-73"/>
      <use x="1230.292969" xlink:href="#DejaVuSans-69"/>
      <use x="1258.076172" xlink:href="#DejaVuSans-6f"/>
      <use x="1319.257812" xlink:href="#DejaVuSans-6e"/>
      <use x="1382.636719" xlink:href="#DejaVuSans-29"/>
     </g>
    </g>
   </g>
   <g id="matplotlib.axis_2">
    <g id="ytick_1">
     <g id="line2d_11">
      <path clip-path="url(#p5ab785754b)" d="M 56.12 294.88 
L 399.984 294.88 
" style="fill:none;stroke:#b0b0b0;stroke-linecap:square;stroke-width:0.8;"/>
     </g>
     <g id="line2d_12">
      <defs>
       <path d="M 0 0 
L -3.5 0 
" id="m9fa2af200e" style="stroke:#000000;stroke-width:0.8;"/>
      </defs>
      <g>
       <use style="stroke:#000000;stroke-width:0.8;" x="56.12" xlink:href="#m9fa2af200e" y="294.88"/>
      </g>
     </g>
     <g id="text_7">
      <!-- 0.0 -->
      <defs>
       <path d="M 10.6875 12.40625 
L 21 12.40625 
L 21 0 
L 10.6875 0 
z
" id="DejaVuSans-2e"/>
      </defs>
      <g transform="translate(23.675 300.95875)scale(0.16 -0.16)">
       <use xlink:href="#DejaVuSans-30"/>
       <use x="63.623047" xlink:href="#DejaVuSans-2e"/>
       <use x="95.410156" xlink:href="#DejaVuSans-30"/>
      </g>
     </g>
    </g>
    <g id="ytick_2">
     <g id="line2d_13">
      <path clip-path="url(#p5ab785754b)" d="M 56.12 237.843411 
L 399.984 237.843411 
" style="fill:none;stroke:#b0b0b0;stroke-linecap:square;stroke-width:0.8;"/>
     </g>
     <g id="line2d_14">
      <g>
       <use style="stroke:#000000;stroke-width:0.8;" x="56.12" xlink:href="#m9fa2af200e" y="237.843411"/>
      </g>
     </g>
     <g id="text_8">
      <!-- 0.2 -->
      <g transform="translate(23.675 243.922161)scale(0.16 -0.16)">
       <use xlink:href="#DejaVuSans-30"/>
       <use x="63.623047" xlink:href="#DejaVuSans-2e"/>
       <use x="95.410156" xlink:href="#DejaVuSans-32"/>
      </g>
     </g>
    </g>
    <g id="ytick_3">
     <g id="line2d_15">
      <path clip-path="url(#p5ab785754b)" d="M 56.12 180.806823 
L 399.984 180.806823 
" style="fill:none;stroke:#b0b0b0;stroke-linecap:square;stroke-width:0.8;"/>
     </g>
     <g id="line2d_16">
      <g>
       <use style="stroke:#000000;stroke-width:0.8;" x="56.12" xlink:href="#m9fa2af200e" y="180.806823"/>
      </g>
     </g>
     <g id="text_9">
      <!-- 0.4 -->
      <g transform="translate(23.675 186.885573)scale(0.16 -0.16)">
       <use xlink:href="#DejaVuSans-30"/>
       <use x="63.623047" xlink:href="#DejaVuSans-2e"/>
       <use x="95.410156" xlink:href="#DejaVuSans-34"/>
      </g>
     </g>
    </g>
    <g id="ytick_4">
     <g id="line2d_17">
      <path clip-path="url(#p5ab785754b)" d="M 56.12 123.770234 
L 399.984 123.770234 
" style="fill:none;stroke:#b0b0b0;stroke-linecap:square;stroke-width:0.8;"/>
     </g>
     <g id="line2d_18">
      <g>
       <use style="stroke:#000000;stroke-width:0.8;" x="56.12" xlink:href="#m9fa2af200e" y="123.770234"/>
      </g>
     </g>
     <g id="text_10">
      <!-- 0.6 -->
      <g transform="translate(23.675 129.848984)scale(0.16 -0.16)">
       <use xlink:href="#DejaVuSans-30"/>
       <use x="63.623047" xlink:href="#DejaVuSans-2e"/>
       <use x="95.410156" xlink:href="#DejaVuSans-36"/>
      </g>
     </g>
    </g>
    <g id="ytick_5">
     <g id="line2d_19">
      <path clip-path="url(#p5ab785754b)" d="M 56.12 66.733646 
L 399.984 66.733646 
" style="fill:none;stroke:#b0b0b0;stroke-linecap:square;stroke-width:0.8;"/>
     </g>
     <g id="line2d_20">
      <g>
       <use style="stroke:#000000;stroke-width:0.8;" x="56.12" xlink:href="#m9fa2af200e" y="66.733646"/>
      </g>
     </g>
     <g id="text_11">
      <!-- 0.8 -->
      <g transform="translate(23.675 72.812396)scale(0.16 -0.16)">
       <use xlink:href="#DejaVuSans-30"/>
       <use x="63.623047" xlink:href="#DejaVuSans-2e"/>
       <use x="95.410156" xlink:href="#DejaVuSans-38"/>
      </g>
     </g>
    </g>
    <g id="ytick_6">
     <g id="line2d_21">
      <path clip-path="url(#p5ab785754b)" d="M 56.12 9.697057 
L 399.984 9.697057 
" style="fill:none;stroke:#b0b0b0;stroke-linecap:square;stroke-width:0.8;"/>
     </g>
     <g id="line2d_22">
      <g>
       <use style="stroke:#000000;stroke-width:0.8;" x="56.12" xlink:href="#m9fa2af200e" y="9.697057"/>
      </g>
     </g>
     <g id="text_12">
      <!-- 1.0 -->
      <g transform="translate(23.675 15.775807)scale(0.16 -0.16)">
       <use xlink:href="#DejaVuSans-31"/>
       <use x="63.623047" xlink:href="#DejaVuSans-2e"/>
       <use x="95.410156" xlink:href="#DejaVuSans-30"/>
      </g>
     </g>
    </g>
    <g id="text_13">
     <!-- Fraction of function,target pairs -->
     <defs>
      <path d="M 9.8125 72.90625 
L 51.703125 72.90625 
L 51.703125 64.59375 
L 19.671875 64.59375 
L 19.671875 43.109375 
L 48.578125 43.109375 
L 48.578125 34.8125 
L 19.671875 34.8125 
L 19.671875 0 
L 9.8125 0 
z
" id="DejaVuSans-46"/>
      <path d="M 41.109375 46.296875 
Q 39.59375 47.171875 37.8125 47.578125 
Q 36.03125 48 33.890625 48 
Q 26.265625 48 22.1875 43.046875 
Q 18.109375 38.09375 18.109375 28.8125 
L 18.109375 0 
L 9.078125 0 
L 9.078125 54.6875 
L 18.109375 54.6875 
L 18.109375 46.1875 
Q 20.953125 51.171875 25.484375 53.578125 
Q 30.03125 56 36.53125 56 
Q 37.453125 56 38.578125 55.875 
Q 39.703125 55.765625 41.0625 55.515625 
z
" id="DejaVuSans-72"/>
      <path d="M 48.78125 52.59375 
L 48.78125 44.1875 
Q 44.96875 46.296875 41.140625 47.34375 
Q 37.3125 48.390625 33.40625 48.390625 
Q 24.65625 48.390625 19.8125 42.84375 
Q 14.984375 37.3125 14.984375 27.296875 
Q 14.984375 17.28125 19.8125 11.734375 
Q 24.65625 6.203125 33.40625 6.203125 
Q 37.3125 6.203125 41.140625 7.25 
Q 44.96875 8.296875 48.78125 10.40625 
L 48.78125 2.09375 
Q 45.015625 0.34375 40.984375 -0.53125 
Q 36.96875 -1.421875 32.421875 -1.421875 
Q 20.0625 -1.421875 12.78125 6.34375 
Q 5.515625 14.109375 5.515625 27.296875 
Q 5.515625 40.671875 12.859375 48.328125 
Q 20.21875 56 33.015625 56 
Q 37.15625 56 41.109375 55.140625 
Q 45.0625 54.296875 48.78125 52.59375 
z
" id="DejaVuSans-63"/>
      <path d="M 18.3125 70.21875 
L 18.3125 54.6875 
L 36.8125 54.6875 
L 36.8125 47.703125 
L 18.3125 47.703125 
L 18.3125 18.015625 
Q 18.3125 11.328125 20.140625 9.421875 
Q 21.96875 7.515625 27.59375 7.515625 
L 36.8125 7.515625 
L 36.8125 0 
L 27.59375 0 
Q 17.1875 0 13.234375 3.875 
Q 9.28125 7.765625 9.28125 18.015625 
L 9.28125 47.703125 
L 2.6875 47.703125 
L 2.6875 54.6875 
L 9.28125 54.6875 
L 9.28125 70.21875 
z
" id="DejaVuSans-74"/>
      <path d="M 8.5 21.578125 
L 8.5 54.6875 
L 17.484375 54.6875 
L 17.484375 21.921875 
Q 17.484375 14.15625 20.5 10.265625 
Q 23.53125 6.390625 29.59375 6.390625 
Q 36.859375 6.390625 41.078125 11.03125 
Q 45.3125 15.671875 45.3125 23.6875 
L 45.3125 54.6875 
L 54.296875 54.6875 
L 54.296875 0 
L 45.3125 0 
L 45.3125 8.40625 
Q 42.046875 3.421875 37.71875 1 
Q 33.40625 -1.421875 27.6875 -1.421875 
Q 18.265625 -1.421875 13.375 4.4375 
Q 8.5 10.296875 8.5 21.578125 
z
M 31.109375 56 
z
" id="DejaVuSans-75"/>
      <path d="M 11.71875 12.40625 
L 22.015625 12.40625 
L 22.015625 4 
L 14.015625 -11.625 
L 7.71875 -11.625 
L 11.71875 4 
z
" id="DejaVuSans-2c"/>
      <path d="M 18.109375 8.203125 
L 18.109375 -20.796875 
L 9.078125 -20.796875 
L 9.078125 54.6875 
L 18.109375 54.6875 
L 18.109375 46.390625 
Q 20.953125 51.265625 25.265625 53.625 
Q 29.59375 56 35.59375 56 
Q 45.5625 56 51.78125 48.09375 
Q 58.015625 40.1875 58.015625 27.296875 
Q 58.015625 14.40625 51.78125 6.484375 
Q 45.5625 -1.421875 35.59375 -1.421875 
Q 29.59375 -1.421875 25.265625 0.953125 
Q 20.953125 3.328125 18.109375 8.203125 
z
M 48.6875 27.296875 
Q 48.6875 37.203125 44.609375 42.84375 
Q 40.53125 48.484375 33.40625 48.484375 
Q 26.265625 48.484375 22.1875 42.84375 
Q 18.109375 37.203125 18.109375 27.296875 
Q 18.109375 17.390625 22.1875 11.75 
Q 26.265625 6.109375 33.40625 6.109375 
Q 40.53125 6.109375 44.609375 11.75 
Q 48.6875 17.390625 48.6875 27.296875 
z
" id="DejaVuSans-70"/>
     </defs>
     <g transform="translate(16.139531 286.001989)rotate(-90)scale(0.17 -0.17)">
      <use xlink:href="#DejaVuSans-46"/>
      <use x="57.410156" xlink:href="#DejaVuSans-72"/>
      <use x="98.523438" xlink:href="#DejaVuSans-61"/>
      <use x="159.802734" xlink:href="#DejaVuSans-63"/>
      <use x="214.783203" xlink:href="#DejaVuSans-74"/>
      <use x="253.992188" xlink:href="#DejaVuSans-69"/>
      <use x="281.775391" xlink:href="#DejaVuSans-6f"/>
      <use x="342.957031" xlink:href="#DejaVuSans-6e"/>
      <use x="406.335938" xlink:href="#DejaVuSans-20"/>
      <use x="438.123047" xlink:href="#DejaVuSans-6f"/>
      <use x="499.304688" xlink:href="#DejaVuSans-66"/>
      <use x="534.509766" xlink:href="#DejaVuSans-20"/>
      <use x="566.296875" xlink:href="#DejaVuSans-66"/>
      <use x="601.501953" xlink:href="#DejaVuSans-75"/>
      <use x="664.880859" xlink:href="#DejaVuSans-6e"/>
      <use x="728.259766" xlink:href="#DejaVuSans-63"/>
      <use x="783.240234" xlink:href="#DejaVuSans-74"/>
      <use x="822.449219" xlink:href="#DejaVuSans-69"/>
      <use x="850.232422" xlink:href="#DejaVuSans-6f"/>
      <use x="911.414062" xlink:href="#DejaVuSans-6e"/>
      <use x="974.792969" xlink:href="#DejaVuSans-2c"/>
      <use x="1006.580078" xlink:href="#DejaVuSans-74"/>
      <use x="1045.789062" xlink:href="#DejaVuSans-61"/>
      <use x="1107.068359" xlink:href="#DejaVuSans-72"/>
      <use x="1148.166016" xlink:href="#DejaVuSans-67"/>
      <use x="1211.642578" xlink:href="#DejaVuSans-65"/>
      <use x="1273.166016" xlink:href="#DejaVuSans-74"/>
      <use x="1312.375" xlink:href="#DejaVuSans-20"/>
      <use x="1344.162109" xlink:href="#DejaVuSans-70"/>
      <use x="1407.638672" xlink:href="#DejaVuSans-61"/>
      <use x="1468.917969" xlink:href="#DejaVuSans-69"/>
      <use x="1496.701172" xlink:href="#DejaVuSans-72"/>
      <use x="1537.814453" xlink:href="#DejaVuSans-73"/>
     </g>
    </g>
   </g>
   <g id="line2d_23">
    <defs>
     <path d="M 0 1.5 
C 0.397805 1.5 0.77937 1.341951 1.06066 1.06066 
C 1.341951 0.77937 1.5 0.397805 1.5 0 
C 1.5 -0.397805 1.341951 -0.77937 1.06066 -1.06066 
C 0.77937 -1.341951 0.397805 -1.5 0 -1.5 
C -0.397805 -1.5 -0.77937 -1.341951 -1.06066 -1.06066 
C -1.341951 -0.77937 -1.5 -0.397805 -1.5 0 
C -1.5 0.397805 -1.341951 0.77937 -1.06066 1.06066 
C -0.77937 1.341951 -0.397805 1.5 0 1.5 
z
" id="m16df13699d" style="stroke:#000080;"/>
    </defs>
    <g>
     <use style="fill:#000080;stroke:#000080;" x="196.667466" xlink:href="#m16df13699d" y="233.369954"/>
     <use style="fill:#000080;stroke:#000080;" x="196.667466" xlink:href="#m16df13699d" y="233.369954"/>
    </g>
   </g>
   <g id="line2d_24">
    <path d="M 129.699468 294.88 
L 129.699468 294.320818 
L 139.508688 294.320818 
L 139.508688 293.761636 
L 139.776821 293.761636 
L 139.776821 293.202453 
L 140.214628 293.202453 
L 140.300868 288.728995 
L 140.472062 288.728995 
L 140.472062 287.051449 
L 140.809423 287.051449 
L 140.89274 285.933084 
L 140.975655 285.933084 
L 141.058173 284.255537 
L 141.22203 284.255537 
L 141.22203 283.137173 
L 141.464926 283.137173 
L 141.464926 280.900444 
L 141.783544 280.900444 
L 141.862285 278.663715 
L 142.250673 278.663715 
L 142.327309 275.867804 
L 142.479566 275.867804 
L 142.479566 275.308622 
L 142.630487 275.308622 
L 142.705453 272.51271 
L 142.780095 272.51271 
L 142.780095 271.953528 
L 142.928414 271.953528 
L 142.928414 271.394346 
L 143.22127 271.394346 
L 143.22127 270.835164 
L 143.509224 270.835164 
L 143.509224 270.275981 
L 144.681953 270.275981 
L 144.681953 269.716799 
L 145.142532 269.716799 
L 145.142532 269.157617 
L 145.336209 269.157617 
L 145.336209 268.039252 
L 145.717145 268.039252 
L 145.717145 266.920888 
L 145.966495 266.920888 
L 145.966495 266.361706 
L 146.454609 266.361706 
L 146.454609 265.802523 
L 147.0459 265.802523 
L 147.0459 265.243341 
L 148.494413 265.243341 
L 148.494413 264.684159 
L 149.430256 264.684159 
L 149.430256 264.124977 
L 149.731223 264.124977 
L 149.731223 263.565795 
L 150.627387 263.565795 
L 150.627387 263.006612 
L 150.931491 263.006612 
L 151.023991 260.210701 
L 151.047038 260.210701 
L 151.047038 259.651519 
L 151.230314 259.651519 
L 151.321225 258.533154 
L 151.366501 258.533154 
L 151.366501 257.973972 
L 151.657926 257.973972 
L 151.657926 257.41479 
L 152.482529 257.41479 
L 152.524853 256.296425 
L 153.106716 256.296425 
L 153.106716 255.737243 
L 154.367132 255.737243 
L 154.367132 255.178061 
L 154.537198 255.178061 
L 154.537198 254.618879 
L 156.355552 254.618879 
L 156.355552 254.059696 
L 156.839288 254.059696 
L 156.839288 253.500514 
L 157.084259 253.500514 
L 157.132838 252.38215 
L 157.261714 252.38215 
L 157.261714 251.822967 
L 157.548203 251.822967 
L 157.56398 250.704603 
L 157.845521 250.704603 
L 157.845521 250.145421 
L 158.544754 250.145421 
L 158.544754 249.586238 
L 159.359338 249.586238 
L 159.359338 249.027056 
L 159.543047 249.027056 
L 159.571136 247.908692 
L 160.137092 247.908692 
L 160.137092 247.34951 
L 160.907191 247.34951 
L 160.907191 246.790327 
L 161.368406 246.790327 
L 161.368406 246.231145 
L 162.327211 246.231145 
L 162.327211 245.671963 
L 164.216274 245.671963 
L 164.323071 244.553598 
L 164.545209 244.553598 
L 164.545209 243.994416 
L 167.153754 243.994416 
L 167.153754 243.435234 
L 167.599501 243.435234 
L 167.599501 242.876052 
L 167.870174 242.876052 
L 167.870174 242.316869 
L 168.331733 242.316869 
L 168.357016 241.198505 
L 169.299198 241.198505 
L 169.402531 240.08014 
L 169.607353 240.08014 
L 169.607353 239.520958 
L 171.005548 239.520958 
L 171.005548 238.961776 
L 171.419284 238.961776 
L 171.419284 238.402594 
L 171.987748 238.402594 
L 171.987748 237.843411 
L 173.884134 237.843411 
L 173.884134 237.284229 
L 175.768157 237.284229 
L 175.768157 236.725047 
L 175.909897 236.725047 
L 175.909897 236.165865 
L 176.777998 236.165865 
L 176.777998 235.606682 
L 181.696529 235.606682 
L 181.696529 235.0475 
L 188.500998 235.0475 
L 188.500998 234.488318 
L 191.191152 234.488318 
L 191.191152 233.929136 
L 196.667466 233.929136 
L 196.667466 233.369954 
L 333.429677 233.369954 
L 333.429677 233.369954 
" style="fill:none;stroke:#000080;stroke-linecap:square;stroke-width:1.5;"/>
   </g>
   <g id="line2d_25">
    <defs>
     <path d="M 0 6 
C 1.591219 6 3.117479 5.367802 4.242641 4.242641 
C 5.367802 3.117479 6 1.591219 6 0 
C 6 -1.591219 5.367802 -3.117479 4.242641 -4.242641 
C 3.117479 -5.367802 1.591219 -6 0 -6 
C -1.591219 -6 -3.117479 -5.367802 -4.242641 -4.242641 
C -5.367802 -3.117479 -6 -1.591219 -6 0 
C -6 1.591219 -5.367802 3.117479 -4.242641 4.242641 
C -3.117479 5.367802 -1.591219 6 0 6 
z
" id="mee7a3e00d6" style="stroke:#000080;stroke-width:1.5;"/>
    </defs>
    <g>
     <use style="fill-opacity:0;stroke:#000080;stroke-width:1.5;" x="148.494413" xlink:href="#mee7a3e00d6" y="265.243341"/>
     <use style="fill-opacity:0;stroke:#000080;stroke-width:1.5;" x="164.323071" xlink:href="#mee7a3e00d6" y="244.553598"/>
     <use style="fill-opacity:0;stroke:#000080;stroke-width:1.5;" x="196.667466" xlink:href="#mee7a3e00d6" y="233.369954"/>
     <use style="fill-opacity:0;stroke:#000080;stroke-width:1.5;" x="196.667466" xlink:href="#mee7a3e00d6" y="233.369954"/>
     <use style="fill-opacity:0;stroke:#000080;stroke-width:1.5;" x="333.429677" xlink:href="#mee7a3e00d6" y="233.369954"/>
    </g>
   </g>
   <g id="line2d_26">
    <path style="fill:none;stroke:#000080;stroke-linecap:square;stroke-width:1.5;"/>
    <g/>
   </g>
   <g id="line2d_27">
    <path clip-path="url(#p5ab785754b)" d="M 135.003752 294.320818 
" style="fill:none;stroke:#000080;stroke-linecap:square;stroke-width:1.5;"/>
    <defs>
     <path d="M -12 12 
L 12 -12 
M -12 -12 
L 12 12 
" id="m6dabac2799" style="stroke:#000080;stroke-width:3;"/>
    </defs>
    <g clip-path="url(#p5ab785754b)">
     <use style="fill:#000080;stroke:#000080;stroke-width:3;" x="135.003752" xlink:href="#m6dabac2799" y="294.320818"/>
    </g>
   </g>
   <g id="line2d_28">
    <defs>
     <path d="M 0 1.5 
C 0.397805 1.5 0.77937 1.341951 1.06066 1.06066 
C 1.341951 0.77937 1.5 0.397805 1.5 0 
C 1.5 -0.397805 1.341951 -0.77937 1.06066 -1.06066 
C 0.77937 -1.341951 0.397805 -1.5 0 -1.5 
C -0.397805 -1.5 -0.77937 -1.341951 -1.06066 -1.06066 
C -1.341951 -0.77937 -1.5 -0.397805 -1.5 0 
C -1.5 0.397805 -1.341951 0.77937 -1.06066 1.06066 
C -0.77937 1.341951 -0.397805 1.5 0 1.5 
z
" id="mcd017bca5f" style="stroke:#ff00ff;"/>
    </defs>
    <g>
     <use style="fill:#ff00ff;stroke:#ff00ff;" x="185.517058" xlink:href="#mcd017bca5f" y="244.553598"/>
     <use style="fill:#ff00ff;stroke:#ff00ff;" x="185.517058" xlink:href="#mcd017bca5f" y="244.553598"/>
    </g>
   </g>
   <g id="line2d_29">
    <path d="M 114.637146 294.88 
L 114.637146 293.202453 
L 116.449859 293.202453 
L 116.449859 292.643271 
L 117.124646 292.643271 
L 117.124646 292.084089 
L 118.089658 292.084089 
L 118.089658 291.524907 
L 118.399664 291.524907 
L 118.399664 290.965724 
L 118.704183 290.965724 
L 118.704183 287.610631 
L 119.297513 287.610631 
L 119.297513 287.051449 
L 120.426105 287.051449 
L 120.426105 285.373902 
L 120.697054 285.373902 
L 120.697054 284.255537 
L 120.963801 284.255537 
L 120.963801 283.696355 
L 121.226476 283.696355 
L 121.226476 282.577991 
L 121.740092 282.577991 
L 121.740092 282.018808 
L 121.991263 282.018808 
L 121.991263 280.341262 
L 122.482864 280.341262 
L 122.482864 279.782079 
L 123.653714 279.782079 
L 123.653714 278.663715 
L 124.100619 278.663715 
L 124.100619 276.426986 
L 124.536209 276.426986 
L 124.536209 275.308622 
L 124.749936 275.308622 
L 124.749936 274.190257 
L 125.169588 274.190257 
L 125.169588 273.631075 
L 125.375637 273.631075 
L 125.375637 273.071893 
L 125.780476 273.071893 
L 125.780476 272.51271 
L 125.979378 272.51271 
L 125.979378 271.953528 
L 126.370415 271.953528 
L 126.370415 271.394346 
L 126.56265 271.394346 
L 126.56265 270.835164 
L 126.940794 270.835164 
L 126.940794 269.716799 
L 127.126794 269.716799 
L 127.126794 269.157617 
L 127.492869 269.157617 
L 127.492869 268.598435 
L 128.546558 268.598435 
L 128.546558 268.039252 
L 128.716065 268.039252 
L 128.716065 267.48007 
L 131.866934 267.48007 
L 131.866934 266.920888 
L 132.419748 266.920888 
L 132.419748 266.361706 
L 132.689634 266.361706 
L 132.689634 265.802523 
L 132.955351 265.802523 
L 132.955351 265.243341 
L 133.538623 265.243341 
L 133.538623 264.684159 
L 134.589156 264.684159 
L 134.589156 263.565795 
L 136.026124 263.565795 
L 136.026124 263.006612 
L 136.353845 263.006612 
L 136.353845 262.44743 
L 136.622257 262.44743 
L 136.622257 261.888248 
L 139.508688 261.888248 
L 139.508688 261.329066 
L 140.599349 261.329066 
L 140.599349 260.769883 
L 141.545135 260.769883 
L 141.545135 260.210701 
L 141.783544 260.210701 
L 141.783544 259.651519 
L 141.940667 259.651519 
L 142.018694 258.533154 
L 142.212226 258.533154 
L 142.212226 257.973972 
L 142.780095 257.973972 
L 142.854414 256.855608 
L 145.717145 256.855608 
L 145.779822 255.737243 
L 146.028272 255.737243 
L 146.059077 254.618879 
L 147.334095 254.618879 
L 147.334095 254.059696 
L 149.046488 254.059696 
L 149.046488 253.500514 
L 149.404936 253.500514 
L 149.404936 252.941332 
L 151.321225 252.941332 
L 151.321225 252.38215 
L 151.635683 252.38215 
L 151.657926 251.263785 
L 151.856829 251.263785 
L 151.856829 250.704603 
L 153.827025 250.704603 
L 153.827025 250.145421 
L 157.83 250.145421 
L 157.83 249.586238 
L 159.472622 249.586238 
L 159.472622 249.027056 
L 162.339163 249.027056 
L 162.339163 248.467874 
L 163.189967 248.467874 
L 163.189967 247.908692 
L 163.337163 247.908692 
L 163.337163 247.34951 
L 166.889829 247.34951 
L 166.889829 246.790327 
L 170.108989 246.790327 
L 170.108989 246.231145 
L 173.469986 246.231145 
L 173.469986 245.671963 
L 184.935821 245.671963 
L 184.935821 245.112781 
L 185.517058 245.112781 
L 185.517058 244.553598 
L 333.429677 244.553598 
L 333.429677 244.553598 
" style="fill:none;stroke:#ff00ff;stroke-linecap:square;stroke-width:1.5;"/>
   </g>
   <g id="line2d_30">
    <defs>
     <path d="M -0 8.485281 
L 5.091169 0 
L 0 -8.485281 
L -5.091169 -0 
z
" id="m9e5b9764f6" style="stroke:#ff00ff;stroke-linejoin:miter;stroke-width:1.5;"/>
    </defs>
    <g>
     <use style="fill-opacity:0;stroke:#ff00ff;stroke-linejoin:miter;stroke-width:1.5;" x="142.854414" xlink:href="#m9e5b9764f6" y="257.41479"/>
     <use style="fill-opacity:0;stroke:#ff00ff;stroke-linejoin:miter;stroke-width:1.5;" x="185.517058" xlink:href="#m9e5b9764f6" y="245.112781"/>
     <use style="fill-opacity:0;stroke:#ff00ff;stroke-linejoin:miter;stroke-width:1.5;" x="185.517058" xlink:href="#m9e5b9764f6" y="244.553598"/>
     <use style="fill-opacity:0;stroke:#ff00ff;stroke-linejoin:miter;stroke-width:1.5;" x="185.517058" xlink:href="#m9e5b9764f6" y="244.553598"/>
     <use style="fill-opacity:0;stroke:#ff00ff;stroke-linejoin:miter;stroke-width:1.5;" x="333.429677" xlink:href="#m9e5b9764f6" y="244.553598"/>
    </g>
   </g>
   <g id="line2d_31">
    <path style="fill:none;stroke:#ff00ff;stroke-linecap:square;stroke-width:1.5;"/>
    <g/>
   </g>
   <g id="line2d_32">
    <path clip-path="url(#p5ab785754b)" d="M 121.09564 283.696355 
" style="fill:none;stroke:#ff00ff;stroke-linecap:square;stroke-width:1.5;"/>
    <defs>
     <path d="M -12 12 
L 12 -12 
M -12 -12 
L 12 12 
" id="ma1a0289b4f" style="stroke:#ff00ff;stroke-width:3;"/>
    </defs>
    <g clip-path="url(#p5ab785754b)">
     <use style="fill:#ff00ff;stroke:#ff00ff;stroke-width:3;" x="121.09564" xlink:href="#ma1a0289b4f" y="283.696355"/>
    </g>
   </g>
   <g id="line2d_33">
    <defs>
     <path d="M 0 1.5 
C 0.397805 1.5 0.77937 1.341951 1.06066 1.06066 
C 1.341951 0.77937 1.5 0.397805 1.5 0 
C 1.5 -0.397805 1.341951 -0.77937 1.06066 -1.06066 
C 0.77937 -1.341951 0.397805 -1.5 0 -1.5 
C -0.397805 -1.5 -0.77937 -1.341951 -1.06066 -1.06066 
C -1.341951 -0.77937 -1.5 -0.397805 -1.5 0 
C -1.5 0.397805 -1.341951 0.77937 -1.06066 1.06066 
C -0.77937 1.341951 -0.397805 1.5 0 1.5 
z
" id="m3c74648061" style="stroke:#ffa500;"/>
    </defs>
    <g>
     <use style="fill:#ffa500;stroke:#ffa500;" x="195.461294" xlink:href="#m3c74648061" y="199.819019"/>
     <use style="fill:#ffa500;stroke:#ffa500;" x="195.461294" xlink:href="#m3c74648061" y="199.819019"/>
    </g>
   </g>
   <g id="line2d_34">
    <path d="M 131.654961 294.88 
L 131.654961 293.761636 
L 132.622558 293.761636 
L 132.622558 291.524907 
L 133.021144 291.524907 
L 133.021144 289.84736 
L 133.538623 289.84736 
L 133.538623 287.610631 
L 133.79164 287.610631 
L 133.79164 286.492266 
L 133.916767 286.492266 
L 133.916767 285.933084 
L 134.164323 285.933084 
L 134.164323 284.255537 
L 134.408368 284.255537 
L 134.408368 283.137173 
L 134.886312 283.137173 
L 134.886312 282.577991 
L 135.003752 282.577991 
L 135.003752 279.222897 
L 135.804122 279.222897 
L 135.804122 278.104533 
L 136.026124 278.104533 
L 136.026124 277.545351 
L 136.245297 277.545351 
L 136.245297 273.631075 
L 136.568909 273.631075 
L 136.675441 272.51271 
L 137.095092 272.51271 
L 137.095092 271.953528 
L 137.301141 271.953528 
L 137.403248 270.275981 
L 137.504752 270.275981 
L 137.60566 266.920888 
L 138.003478 266.920888 
L 138.101512 264.684159 
L 138.19899 264.684159 
L 138.19899 264.124977 
L 138.488154 264.124977 
L 138.488154 261.888248 
L 138.678265 261.888248 
L 138.678265 260.769883 
L 138.95955 260.769883 
L 139.052299 258.533154 
L 139.23631 258.533154 
L 139.23631 256.855608 
L 139.865278 256.855608 
L 139.953283 255.178061 
L 140.472062 255.178061 
L 140.472062 254.618879 
L 140.809423 254.618879 
L 140.809423 254.059696 
L 140.975655 254.059696 
L 140.975655 252.941332 
L 141.140296 252.941332 
L 141.140296 251.822967 
L 141.624972 251.822967 
L 141.624972 251.263785 
L 142.630487 251.263785 
L 142.630487 250.704603 
L 144.81481 250.704603 
L 144.880856 249.586238 
L 145.174963 249.586238 
L 145.174963 249.027056 
L 145.464127 249.027056 
L 145.464127 248.467874 
L 146.151164 248.467874 
L 146.151164 247.34951 
L 146.63414 247.34951 
L 146.63414 246.790327 
L 146.752794 246.790327 
L 146.752794 246.231145 
L 147.0459 246.231145 
L 147.0459 245.671963 
L 147.276841 245.671963 
L 147.276841 244.553598 
L 147.476402 244.553598 
L 147.476402 243.994416 
L 147.617542 243.994416 
L 147.673676 242.316869 
L 148.252277 242.316869 
L 148.252277 241.757687 
L 150.197243 241.757687 
L 150.293764 240.639323 
L 150.931491 240.639323 
L 150.931491 240.08014 
L 151.161814 240.08014 
L 151.161814 239.520958 
L 151.524035 239.520958 
L 151.524035 238.961776 
L 152.053458 238.961776 
L 152.118505 237.284229 
L 152.312182 237.284229 
L 152.312182 236.725047 
L 152.503704 236.725047 
L 152.503704 236.165865 
L 152.901159 236.165865 
L 152.901159 235.606682 
L 153.410518 235.606682 
L 153.410518 235.0475 
L 154.668319 235.0475 
L 154.668319 234.488318 
L 155.291354 234.488318 
L 155.291354 233.929136 
L 155.735489 233.929136 
L 155.735489 233.369954 
L 156.048314 233.369954 
L 156.048314 232.810771 
L 156.590778 232.810771 
L 156.690613 231.133225 
L 156.707196 231.133225 
L 156.707196 230.574042 
L 157.516605 230.574042 
L 157.611225 229.455678 
L 159.130509 229.455678 
L 159.173647 228.337313 
L 160.53972 228.337313 
L 160.53972 227.778131 
L 161.100869 227.778131 
L 161.203279 226.659767 
L 161.866772 226.659767 
L 161.928065 225.541402 
L 162.171075 225.541402 
L 162.171075 224.98222 
L 162.410701 224.98222 
L 162.410701 224.423038 
L 162.82218 224.423038 
L 162.82218 223.863855 
L 164.022354 223.863855 
L 164.022354 223.304673 
L 165.103589 223.304673 
L 165.103589 222.745491 
L 165.535617 222.745491 
L 165.535617 222.186309 
L 166.015056 222.186309 
L 166.015056 221.627126 
L 167.05412 221.627126 
L 167.05412 221.067944 
L 167.180827 221.067944 
L 167.288695 219.390397 
L 168.051144 219.390397 
L 168.051144 218.831215 
L 169.994518 218.831215 
L 169.994518 218.272033 
L 170.350676 218.272033 
L 170.373161 217.153669 
L 170.551992 217.153669 
L 170.551992 216.594486 
L 170.816801 216.594486 
L 170.816801 216.035304 
L 171.823303 216.035304 
L 171.91942 214.91694 
L 171.974104 214.91694 
L 171.974104 214.357757 
L 172.130358 214.357757 
L 172.130358 213.798575 
L 172.57761 213.798575 
L 172.57761 213.239393 
L 173.325485 213.239393 
L 173.325485 212.680211 
L 173.644277 212.680211 
L 173.644277 212.121028 
L 174.258693 212.121028 
L 174.258693 211.561846 
L 175.425375 211.561846 
L 175.425375 211.002664 
L 176.632852 211.002664 
L 176.632852 210.443482 
L 177.391526 210.443482 
L 177.391526 209.884299 
L 177.71718 209.884299 
L 177.71718 209.325117 
L 178.046377 209.325117 
L 178.046377 208.765935 
L 178.189633 208.765935 
L 178.189633 208.206753 
L 178.700311 208.206753 
L 178.700311 207.64757 
L 179.669603 207.64757 
L 179.669603 207.088388 
L 181.69265 207.088388 
L 181.69265 206.529206 
L 181.820195 206.529206 
L 181.820195 205.970024 
L 182.775122 205.970024 
L 182.775122 205.410841 
L 184.049099 205.410841 
L 184.049099 204.851659 
L 185.87669 204.851659 
L 185.87669 204.292477 
L 186.536144 204.292477 
L 186.536144 203.733295 
L 186.809151 203.733295 
L 186.809151 203.174112 
L 187.089236 203.174112 
L 187.089236 202.61493 
L 187.636088 202.61493 
L 187.636088 202.055748 
L 189.349378 202.055748 
L 189.349378 201.496566 
L 190.046046 201.496566 
L 190.046046 200.937384 
L 193.534546 200.937384 
L 193.534546 200.378201 
L 195.461294 200.378201 
L 195.461294 199.819019 
L 333.429677 199.819019 
L 333.429677 199.819019 
" style="fill:none;stroke:#ffa500;stroke-linecap:square;stroke-width:1.5;"/>
   </g>
   <g id="line2d_35">
    <defs>
     <path d="M 0 -6 
L -1.347084 -1.854102 
L -5.706339 -1.854102 
L -2.179628 0.708204 
L -3.526712 4.854102 
L -0 2.291796 
L 3.526712 4.854102 
L 2.179628 0.708204 
L 5.706339 -1.854102 
L 1.347084 -1.854102 
z
" id="m956b05b3fe" style="stroke:#ffa500;stroke-linejoin:bevel;stroke-width:1.5;"/>
    </defs>
    <g>
     <use style="fill-opacity:0;stroke:#ffa500;stroke-linejoin:bevel;stroke-width:1.5;" x="165.103589" xlink:href="#m956b05b3fe" y="222.745491"/>
     <use style="fill-opacity:0;stroke:#ffa500;stroke-linejoin:bevel;stroke-width:1.5;" x="195.461294" xlink:href="#m956b05b3fe" y="200.378201"/>
     <use style="fill-opacity:0;stroke:#ffa500;stroke-linejoin:bevel;stroke-width:1.5;" x="195.461294" xlink:href="#m956b05b3fe" y="199.819019"/>
     <use style="fill-opacity:0;stroke:#ffa500;stroke-linejoin:bevel;stroke-width:1.5;" x="195.461294" xlink:href="#m956b05b3fe" y="199.819019"/>
     <use style="fill-opacity:0;stroke:#ffa500;stroke-linejoin:bevel;stroke-width:1.5;" x="333.429677" xlink:href="#m956b05b3fe" y="199.819019"/>
    </g>
   </g>
   <g id="line2d_36">
    <path style="fill:none;stroke:#ffa500;stroke-linecap:square;stroke-width:1.5;"/>
    <g/>
   </g>
   <g id="line2d_37">
    <path clip-path="url(#p5ab785754b)" d="M 130.093189 294.88 
" style="fill:none;stroke:#ffa500;stroke-linecap:square;stroke-width:1.5;"/>
    <defs>
     <path d="M -12 12 
L 12 -12 
M -12 -12 
L 12 12 
" id="mdca620512f" style="stroke:#ffa500;stroke-width:3;"/>
    </defs>
    <g clip-path="url(#p5ab785754b)">
     <use style="fill:#ffa500;stroke:#ffa500;stroke-width:3;" x="130.093189" xlink:href="#mdca620512f" y="294.88"/>
    </g>
   </g>
   <g id="line2d_38">
    <defs>
     <path d="M 0 1.5 
C 0.397805 1.5 0.77937 1.341951 1.06066 1.06066 
C 1.341951 0.77937 1.5 0.397805 1.5 0 
C 1.5 -0.397805 1.341951 -0.77937 1.06066 -1.06066 
C 0.77937 -1.341951 0.397805 -1.5 0 -1.5 
C -0.397805 -1.5 -0.77937 -1.341951 -1.06066 -1.06066 
C -1.341951 -0.77937 -1.5 -0.397805 -1.5 0 
C -1.5 0.397805 -1.341951 0.77937 -1.06066 1.06066 
C -0.77937 1.341951 -0.397805 1.5 0 1.5 
z
" id="m27d5d97b70" style="stroke:#6495ed;"/>
    </defs>
    <g>
     <use style="fill:#6495ed;stroke:#6495ed;" x="202.442494" xlink:href="#m27d5d97b70" y="160.676262"/>
     <use style="fill:#6495ed;stroke:#6495ed;" x="202.442494" xlink:href="#m27d5d97b70" y="160.676262"/>
    </g>
   </g>
   <g id="line2d_39">
    <path d="M 112.610704 294.88 
L 112.610704 294.320818 
L 125.169588 294.320818 
L 125.169588 293.761636 
L 126.176007 293.761636 
L 126.176007 293.202453 
L 126.752761 293.202453 
L 126.752761 292.084089 
L 127.310805 292.084089 
L 127.310805 290.965724 
L 127.492869 290.965724 
L 127.492869 290.406542 
L 128.202449 290.406542 
L 128.202449 289.84736 
L 128.546558 289.84736 
L 128.546558 289.288178 
L 128.716065 289.288178 
L 128.716065 288.728995 
L 129.858039 288.728995 
L 129.858039 287.610631 
L 130.015162 287.610631 
L 130.015162 285.373902 
L 130.170864 285.373902 
L 130.170864 283.137173 
L 131.223017 283.137173 
L 131.223017 282.577991 
L 131.654961 282.577991 
L 131.654961 280.900444 
L 131.937015 280.900444 
L 131.937015 279.782079 
L 132.487617 279.782079 
L 132.487617 278.663715 
L 133.021144 278.663715 
L 133.021144 278.104533 
L 133.15198 278.104533 
L 133.15198 277.545351 
L 133.281829 277.545351 
L 133.281829 276.986168 
L 133.538623 276.986168 
L 133.538623 275.867804 
L 133.665597 275.867804 
L 133.665597 273.071893 
L 134.286778 273.071893 
L 134.286778 272.51271 
L 134.408368 272.51271 
L 134.408368 271.953528 
L 134.768065 271.953528 
L 134.768065 270.835164 
L 135.003752 270.835164 
L 135.003752 270.275981 
L 135.804122 270.275981 
L 135.804122 269.716799 
L 136.353845 269.716799 
L 136.353845 268.598435 
L 136.991135 268.598435 
L 137.095092 267.48007 
L 137.60566 267.48007 
L 137.60566 266.920888 
L 138.392305 266.920888 
L 138.488154 265.802523 
L 138.678265 265.802523 
L 138.772539 264.684159 
L 139.052299 264.684159 
L 139.052299 263.565795 
L 139.598531 263.565795 
L 139.598531 263.006612 
L 139.776821 263.006612 
L 139.776821 262.44743 
L 139.997117 262.44743 
L 139.997117 261.888248 
L 140.127953 261.888248 
L 140.214628 260.210701 
L 140.851132 260.210701 
L 140.851132 259.092337 
L 141.140296 259.092337 
L 141.140296 258.533154 
L 141.303377 258.533154 
L 141.303377 255.737243 
L 141.624972 255.737243 
L 141.624972 255.178061 
L 141.822959 255.178061 
L 141.822959 254.618879 
L 142.403606 254.618879 
L 142.403606 254.059696 
L 142.780095 254.059696 
L 142.780095 252.941332 
L 143.22127 252.941332 
L 143.22127 251.822967 
L 144.140023 251.822967 
L 144.208705 249.586238 
L 144.446956 249.586238 
L 144.480724 248.467874 
L 144.74851 248.467874 
L 144.74851 247.908692 
L 145.110039 247.908692 
L 145.142532 246.790327 
L 145.591101 246.790327 
L 145.591101 246.231145 
L 145.966495 246.231145 
L 146.028272 244.553598 
L 146.273185 244.553598 
L 146.364136 241.757687 
L 146.454609 241.757687 
L 146.454609 241.198505 
L 146.66388 241.198505 
L 146.66388 240.639323 
L 146.899971 240.639323 
L 146.899971 240.08014 
L 147.448035 240.08014 
L 147.448035 239.520958 
L 147.617542 239.520958 
L 147.617542 238.402594 
L 147.840985 238.402594 
L 147.840985 237.843411 
L 148.198003 237.843411 
L 148.27935 236.725047 
L 148.706822 236.725047 
L 148.812051 235.606682 
L 148.864425 235.606682 
L 148.968697 234.488318 
L 149.020597 234.488318 
L 149.072341 232.810771 
L 149.556299 232.810771 
L 149.581398 231.692407 
L 149.681426 231.692407 
L 149.731223 230.574042 
L 150.269684 230.574042 
L 150.269684 230.01486 
L 150.413659 230.01486 
L 150.413659 229.455678 
L 150.532724 229.455678 
L 150.532724 228.896496 
L 150.908289 228.896496 
L 150.908289 228.337313 
L 151.207511 228.337313 
L 151.207511 227.778131 
L 151.389095 227.778131 
L 151.389095 227.218949 
L 151.613412 227.218949 
L 151.613412 226.659767 
L 151.878787 226.659767 
L 151.878787 226.100584 
L 152.118505 226.100584 
L 152.118505 225.541402 
L 152.630211 225.541402 
L 152.651205 224.423038 
L 152.818244 224.423038 
L 152.818244 223.863855 
L 152.942468 223.863855 
L 152.942468 223.304673 
L 153.550477 223.304673 
L 153.649755 221.067944 
L 153.669542 221.067944 
L 153.748464 218.272033 
L 153.983079 218.272033 
L 154.002487 217.153669 
L 154.099198 217.153669 
L 154.156965 216.035304 
L 154.252814 216.035304 
L 154.291004 214.357757 
L 154.424008 214.357757 
L 154.424008 213.798575 
L 155.000969 213.798575 
L 155.019263 212.680211 
L 155.470386 212.680211 
L 155.470386 212.121028 
L 155.612283 212.121028 
L 155.612283 211.561846 
L 155.735489 211.561846 
L 155.735489 211.002664 
L 156.185542 211.002664 
L 156.270757 209.884299 
L 156.723763 209.884299 
L 156.789872 208.765935 
L 157.309795 208.765935 
L 157.309795 208.206753 
L 157.674016 208.206753 
L 157.674016 207.64757 
L 157.969186 207.64757 
L 158.030687 206.529206 
L 158.137787 206.529206 
L 158.244225 205.410841 
L 159.173647 205.410841 
L 159.173647 204.851659 
L 159.696975 204.851659 
L 159.696975 204.292477 
L 159.8219 204.292477 
L 159.890913 203.174112 
L 160.763762 203.174112 
L 160.77685 202.055748 
L 161.023659 202.055748 
L 161.126529 200.937384 
L 161.241526 200.937384 
L 161.241526 200.378201 
L 161.368406 200.378201 
L 161.368406 199.819019 
L 161.879048 199.819019 
L 161.879048 199.259837 
L 162.434481 199.259837 
L 162.541087 198.141472 
L 163.224047 198.141472 
L 163.224047 197.58229 
L 163.348434 197.58229 
L 163.348434 197.023108 
L 164.534696 197.023108 
L 164.618622 195.904743 
L 165.083228 195.904743 
L 165.083228 195.345561 
L 165.215144 195.345561 
L 165.215144 194.786379 
L 165.406144 194.786379 
L 165.495883 193.668014 
L 165.713293 193.668014 
L 165.732923 192.54965 
L 166.368429 192.54965 
L 166.368429 191.990468 
L 166.556462 191.990468 
L 166.556462 191.431285 
L 166.807091 191.431285 
L 166.807091 190.872103 
L 167.11759 190.872103 
L 167.11759 190.312921 
L 167.243832 190.312921 
L 167.243832 189.753739 
L 167.404793 189.753739 
L 167.404793 189.194556 
L 167.731004 189.194556 
L 167.731004 188.635374 
L 168.025407 188.635374 
L 168.128123 187.51701 
L 168.213254 187.51701 
L 168.255662 186.398645 
L 168.524624 186.398645 
L 168.524624 185.839463 
L 169.211275 185.839463 
L 169.267278 184.721099 
L 169.505247 184.721099 
L 169.505247 184.161916 
L 170.032759 184.161916 
L 170.131792 181.925187 
L 170.328162 181.925187 
L 170.328162 181.366005 
L 170.962175 181.366005 
L 170.983875 180.247641 
L 171.242168 180.247641 
L 171.242168 179.688458 
L 171.398126 179.688458 
L 171.426331 178.570094 
L 171.650319 178.570094 
L 171.650319 178.010912 
L 172.258376 178.010912 
L 172.258376 177.451729 
L 172.504974 177.451729 
L 172.504974 176.892547 
L 173.613282 176.892547 
L 173.613282 176.333365 
L 175.05852 176.333365 
L 175.05852 175.774183 
L 177.175993 175.774183 
L 177.175993 175.215 
L 177.326649 175.215 
L 177.436298 174.096636 
L 178.551953 174.096636 
L 178.551953 173.537454 
L 180.649127 173.537454 
L 180.653248 172.419089 
L 180.800966 172.419089 
L 180.829542 171.300725 
L 181.076574 171.300725 
L 181.076574 170.741543 
L 181.280421 170.741543 
L 181.280421 170.18236 
L 181.893203 170.18236 
L 181.893203 169.623178 
L 182.01166 169.623178 
L 182.01166 169.063996 
L 182.753251 169.063996 
L 182.753251 168.504814 
L 183.824373 168.504814 
L 183.865451 167.386449 
L 184.575445 167.386449 
L 184.575445 166.827267 
L 185.203606 166.827267 
L 185.313965 165.14972 
L 185.485968 165.14972 
L 185.485968 164.590538 
L 185.994916 164.590538 
L 185.994916 164.031356 
L 186.849443 164.031356 
L 186.849443 163.472173 
L 188.729293 163.472173 
L 188.729293 162.912991 
L 199.401572 162.912991 
L 199.510713 161.794627 
L 201.740835 161.794627 
L 201.740835 161.235444 
L 202.442494 161.235444 
L 202.442494 160.676262 
L 333.429677 160.676262 
L 333.429677 160.676262 
" style="fill:none;stroke:#6495ed;stroke-linecap:square;stroke-width:1.5;"/>
   </g>
   <g id="line2d_40">
    <defs>
     <path d="M -0 6 
L 6 -6 
L -6 -6 
z
" id="m2b98608d9f" style="stroke:#6495ed;stroke-linejoin:miter;stroke-width:1.5;"/>
    </defs>
    <g>
     <use style="fill-opacity:0;stroke:#6495ed;stroke-linejoin:miter;stroke-width:1.5;" x="150.413659" xlink:href="#m2b98608d9f" y="229.455678"/>
     <use style="fill-opacity:0;stroke:#6495ed;stroke-linejoin:miter;stroke-width:1.5;" x="184.575445" xlink:href="#m2b98608d9f" y="167.386449"/>
     <use style="fill-opacity:0;stroke:#6495ed;stroke-linejoin:miter;stroke-width:1.5;" x="202.442494" xlink:href="#m2b98608d9f" y="160.676262"/>
     <use style="fill-opacity:0;stroke:#6495ed;stroke-linejoin:miter;stroke-width:1.5;" x="202.442494" xlink:href="#m2b98608d9f" y="160.676262"/>
     <use style="fill-opacity:0;stroke:#6495ed;stroke-linejoin:miter;stroke-width:1.5;" x="333.429677" xlink:href="#m2b98608d9f" y="160.676262"/>
    </g>
   </g>
   <g id="line2d_41">
    <path style="fill:none;stroke:#6495ed;stroke-linecap:square;stroke-width:1.5;"/>
    <g/>
   </g>
   <g id="line2d_42">
    <path clip-path="url(#p5ab785754b)" d="M 131.076592 283.137173 
" style="fill:none;stroke:#6495ed;stroke-linecap:square;stroke-width:1.5;"/>
    <defs>
     <path d="M -12 12 
L 12 -12 
M -12 -12 
L 12 12 
" id="m85e32ca627" style="stroke:#6495ed;stroke-width:3;"/>
    </defs>
    <g clip-path="url(#p5ab785754b)">
     <use style="fill:#6495ed;stroke:#6495ed;stroke-width:3;" x="131.076592" xlink:href="#m85e32ca627" y="283.137173"/>
    </g>
   </g>
   <g id="line2d_43">
    <defs>
     <path d="M 0 1.5 
C 0.397805 1.5 0.77937 1.341951 1.06066 1.06066 
C 1.341951 0.77937 1.5 0.397805 1.5 0 
C 1.5 -0.397805 1.341951 -0.77937 1.06066 -1.06066 
C 0.77937 -1.341951 0.397805 -1.5 0 -1.5 
C -0.397805 -1.5 -0.77937 -1.341951 -1.06066 -1.06066 
C -1.341951 -0.77937 -1.5 -0.397805 -1.5 0 
C -1.5 0.397805 -1.341951 0.77937 -1.06066 1.06066 
C -0.77937 1.341951 -0.397805 1.5 0 1.5 
z
" id="ma87fa34c61" style="stroke:#ff0000;"/>
    </defs>
    <g>
     <use style="fill:#ff0000;stroke:#ff0000;" x="160.907191" xlink:href="#ma87fa34c61" y="9.697057"/>
     <use style="fill:#ff0000;stroke:#ff0000;" x="160.907191" xlink:href="#ma87fa34c61" y="9.697057"/>
    </g>
   </g>
   <g id="line2d_44">
    <path d="M 49.144027 294.88 
L 49.144027 268.039252 
L 100.6852 268.039252 
L 100.6852 267.48007 
L 108.771549 267.48007 
L 108.771549 266.920888 
L 109.814588 266.920888 
L 109.814588 265.802523 
L 111.72821 265.802523 
L 111.72821 264.684159 
L 112.175115 264.684159 
L 112.175115 263.006612 
L 112.610704 263.006612 
L 112.610704 262.44743 
L 113.035537 262.44743 
L 113.035537 261.888248 
L 113.450132 261.888248 
L 113.450132 259.651519 
L 113.854971 259.651519 
L 113.854971 258.533154 
L 114.250503 258.533154 
L 114.250503 257.41479 
L 114.637146 257.41479 
L 114.637146 253.500514 
L 115.01529 253.500514 
L 115.01529 252.38215 
L 115.385301 252.38215 
L 115.385301 249.027056 
L 115.747522 249.027056 
L 115.747522 247.34951 
L 116.102274 247.34951 
L 116.102274 245.112781 
L 116.449859 245.112781 
L 116.449859 242.876052 
L 122.238819 242.876052 
L 122.238819 241.198505 
L 123.878618 241.198505 
L 123.878618 240.639323 
L 126.752761 240.639323 
L 126.752761 239.520958 
L 127.492869 239.520958 
L 127.492869 238.402594 
L 127.851317 238.402594 
L 127.851317 237.843411 
L 128.027779 237.843411 
L 128.027779 237.284229 
L 130.779949 237.284229 
L 130.779949 236.725047 
L 131.223017 236.725047 
L 131.223017 235.606682 
L 131.368207 235.606682 
L 131.368207 235.0475 
L 131.937015 235.0475 
L 131.937015 234.488318 
L 132.622558 234.488318 
L 132.622558 233.929136 
L 132.756449 233.929136 
L 132.756449 232.251589 
L 132.889306 232.251589 
L 132.889306 231.692407 
L 133.15198 231.692407 
L 133.15198 231.133225 
L 134.648999 231.133225 
L 134.648999 230.574042 
L 135.579219 230.574042 
L 135.579219 230.01486 
L 136.136059 230.01486 
L 136.136059 229.455678 
L 136.781317 229.455678 
L 136.781317 228.896496 
L 136.991135 228.896496 
L 136.991135 228.337313 
L 137.70598 228.337313 
L 137.70598 226.100584 
L 138.295919 226.100584 
L 138.392305 224.423038 
L 138.866299 224.423038 
L 138.95955 222.186309 
L 139.052299 222.186309 
L 139.052299 219.390397 
L 139.418374 219.390397 
L 139.418374 218.831215 
L 139.687907 218.831215 
L 139.776821 217.712851 
L 139.865278 217.712851 
L 139.865278 216.035304 
L 140.04084 216.035304 
L 140.04084 214.91694 
L 140.386678 214.91694 
L 140.472062 212.121028 
L 140.557025 212.121028 
L 140.641569 210.443482 
L 140.725701 210.443482 
L 140.725701 209.884299 
L 140.89274 209.884299 
L 140.975655 207.088388 
L 141.058173 207.088388 
L 141.140296 202.61493 
L 141.303377 202.61493 
L 141.303377 201.496566 
L 141.545135 201.496566 
L 141.624972 196.463926 
L 141.862285 196.463926 
L 141.862285 193.668014 
L 142.018694 193.668014 
L 142.018694 193.108832 
L 142.250673 193.108832 
L 142.327309 190.872103 
L 142.555192 190.872103 
L 142.630487 189.753739 
L 142.705453 189.753739 
L 142.705453 189.194556 
L 142.854414 189.194556 
L 142.928414 188.076192 
L 143.002096 188.076192 
L 143.075465 186.957828 
L 143.148522 186.957828 
L 143.148522 185.839463 
L 143.293711 185.839463 
L 143.365849 184.721099 
L 143.437686 184.721099 
L 143.437686 183.602734 
L 143.580466 183.602734 
L 143.651414 182.48437 
L 143.72207 182.48437 
L 143.792438 179.688458 
L 143.862519 179.688458 
L 143.862519 179.129276 
L 144.00183 179.129276 
L 144.071065 178.010912 
L 144.140023 178.010912 
L 144.208705 173.537454 
L 144.345252 173.537454 
L 144.345252 171.859907 
L 144.480724 171.859907 
L 144.548063 166.827267 
L 144.681953 166.827267 
L 144.681953 166.268085 
L 144.81481 166.268085 
L 144.880856 165.14972 
L 145.012191 165.14972 
L 145.077485 163.472173 
L 145.142532 163.472173 
L 145.207333 161.235444 
L 145.271892 161.235444 
L 145.271892 160.11708 
L 145.464127 160.11708 
L 145.527731 157.321169 
L 145.591101 157.321169 
L 145.654238 155.643622 
L 145.717145 155.643622 
L 145.717145 154.525258 
L 145.904495 154.525258 
L 145.966495 151.170164 
L 146.151164 151.170164 
L 146.212283 148.933435 
L 146.273185 148.933435 
L 146.333872 147.815071 
L 146.394347 147.815071 
L 146.454609 146.137524 
L 146.514661 146.137524 
L 146.514661 145.578342 
L 146.693569 145.578342 
L 146.693569 144.459977 
L 146.811816 144.459977 
L 146.870636 142.223248 
L 146.929256 142.223248 
L 146.929256 141.104884 
L 147.0459 141.104884 
L 147.0459 137.190608 
L 147.161758 137.190608 
L 147.219395 134.953879 
L 147.276841 134.953879 
L 147.334095 131.598786 
L 147.391159 131.598786 
L 147.391159 130.480421 
L 147.561225 130.480421 
L 147.617542 128.802874 
L 147.673676 128.802874 
L 147.673676 126.006963 
L 147.785396 126.006963 
L 147.896396 122.65187 
L 147.951628 122.65187 
L 148.061564 118.178412 
L 148.170801 118.178412 
L 148.170801 117.060047 
L 148.333368 117.060047 
L 148.440899 111.468225 
L 148.494413 111.468225 
L 148.547762 109.231496 
L 148.812051 109.231496 
L 148.91664 103.080491 
L 148.968697 103.080491 
L 149.020597 100.843762 
L 149.175364 100.843762 
L 149.277775 95.25194 
L 149.328752 95.25194 
L 149.379579 93.015211 
L 149.480784 93.015211 
L 149.581398 89.100935 
L 149.681426 89.100935 
L 149.780877 86.864206 
L 149.830387 86.864206 
L 149.928983 84.068295 
L 150.075824 84.068295 
L 150.173027 79.035655 
L 150.269684 79.035655 
L 150.365801 76.798926 
L 150.413659 76.798926 
L 150.508977 74.003015 
L 150.556439 74.003015 
L 150.650971 69.529557 
L 150.744987 69.529557 
L 150.838492 65.056099 
L 150.885054 65.056099 
L 150.977803 63.378552 
L 151.023991 63.378552 
L 151.115996 60.582641 
L 151.161814 60.582641 
L 151.253087 56.109183 
L 151.343878 56.109183 
L 151.389095 54.990819 
L 151.479173 54.990819 
L 151.568782 52.75409 
L 151.613412 52.75409 
L 151.702326 51.635725 
L 151.746611 51.635725 
L 151.790783 48.839814 
L 151.922622 48.839814 
L 151.966344 47.72145 
L 152.053458 47.72145 
L 152.09685 45.484721 
L 152.183306 45.484721 
L 152.269331 39.892898 
L 152.312182 39.892898 
L 152.397566 38.774534 
L 152.482529 38.774534 
L 152.482529 36.537805 
L 152.651205 36.537805 
L 152.734928 32.064347 
L 152.818244 32.064347 
L 152.818244 29.827618 
L 153.188256 29.827618 
L 153.188256 29.268436 
L 153.590257 29.268436 
L 153.669542 27.590889 
L 153.866171 27.590889 
L 153.944198 26.472524 
L 153.983079 26.472524 
L 154.060579 25.35416 
L 154.176177 25.35416 
L 154.252814 23.676613 
L 154.32911 23.676613 
L 154.32911 23.117431 
L 154.442925 23.117431 
L 154.442925 22.558249 
L 154.630958 22.558249 
L 154.630958 21.439884 
L 154.816958 21.439884 
L 154.927601 19.762337 
L 155.074026 19.762337 
L 155.183033 17.525609 
L 155.434728 17.525609 
L 155.434728 16.966426 
L 155.612283 16.966426 
L 155.717942 15.28888 
L 156.202619 15.28888 
L 156.202619 14.729697 
L 156.355552 14.729697 
L 156.355552 14.170515 
L 156.640768 14.170515 
L 156.640768 13.611333 
L 157.341774 13.611333 
L 157.341774 13.052151 
L 157.532411 13.052151 
L 157.532411 12.492968 
L 157.65834 12.492968 
L 157.674016 11.374604 
L 160.055423 11.374604 
L 160.055423 10.815422 
L 160.326158 10.815422 
L 160.326158 10.256239 
L 160.907191 10.256239 
L 160.907191 9.697057 
L 333.429677 9.697057 
L 333.429677 9.697057 
" style="fill:none;stroke:#ff0000;stroke-linecap:square;stroke-width:1.5;"/>
   </g>
   <g id="line2d_45">
    <defs>
     <path d="M 0 -6 
L -5.196152 -3 
L -5.196152 3 
L -0 6 
L 5.196152 3 
L 5.196152 -3 
z
" id="m5c88c41a3a" style="stroke:#ff0000;stroke-linejoin:miter;stroke-width:1.5;"/>
    </defs>
    <g>
     <use style="fill-opacity:0;stroke:#ff0000;stroke-linejoin:miter;stroke-width:1.5;" x="116.449859" xlink:href="#m5c88c41a3a" y="242.876052"/>
     <use style="fill-opacity:0;stroke:#ff0000;stroke-linejoin:miter;stroke-width:1.5;" x="147.0459" xlink:href="#m5c88c41a3a" y="141.104884"/>
     <use style="fill-opacity:0;stroke:#ff0000;stroke-linejoin:miter;stroke-width:1.5;" x="160.907191" xlink:href="#m5c88c41a3a" y="10.256239"/>
     <use style="fill-opacity:0;stroke:#ff0000;stroke-linejoin:miter;stroke-width:1.5;" x="160.907191" xlink:href="#m5c88c41a3a" y="9.697057"/>
     <use style="fill-opacity:0;stroke:#ff0000;stroke-linejoin:miter;stroke-width:1.5;" x="160.907191" xlink:href="#m5c88c41a3a" y="9.697057"/>
     <use style="fill-opacity:0;stroke:#ff0000;stroke-linejoin:miter;stroke-width:1.5;" x="333.429677" xlink:href="#m5c88c41a3a" y="9.697057"/>
    </g>
   </g>
   <g id="line2d_46">
    <path style="fill:none;stroke:#ff0000;stroke-linecap:square;stroke-width:1.5;"/>
    <g/>
   </g>
   <g id="line2d_47">
    <path clip-path="url(#p5ab785754b)" d="M 136.299657 229.455678 
" style="fill:none;stroke:#ff0000;stroke-linecap:square;stroke-width:1.5;"/>
    <defs>
     <path d="M -12 12 
L 12 -12 
M -12 -12 
L 12 12 
" id="m36adb87f5b" style="stroke:#ff0000;stroke-width:3;"/>
    </defs>
    <g clip-path="url(#p5ab785754b)">
     <use style="fill:#ff0000;stroke:#ff0000;stroke-width:3;" x="136.299657" xlink:href="#m36adb87f5b" y="229.455678"/>
    </g>
   </g>
   <g id="line2d_48">
    <path d="M 333.429677 244.553598 
L 363.933742 289.176341 
" style="fill:none;stroke:#ff00ff;stroke-linecap:square;stroke-width:1.5;"/>
    <g>
     <use style="fill-opacity:0;stroke:#ff00ff;stroke-linejoin:miter;stroke-width:1.5;" x="333.429677" xlink:href="#m9e5b9764f6" y="244.553598"/>
     <use style="fill-opacity:0;stroke:#ff00ff;stroke-linejoin:miter;stroke-width:1.5;" x="363.933742" xlink:href="#m9e5b9764f6" y="289.176341"/>
    </g>
   </g>
   <g id="line2d_49">
    <path d="M 333.429677 233.369954 
L 363.933742 220.732435 
" style="fill:none;stroke:#000080;stroke-linecap:square;stroke-width:1.5;"/>
    <g>
     <use style="fill-opacity:0;stroke:#000080;stroke-width:1.5;" x="333.429677" xlink:href="#mee7a3e00d6" y="233.369954"/>
     <use style="fill-opacity:0;stroke:#000080;stroke-width:1.5;" x="363.933742" xlink:href="#mee7a3e00d6" y="220.732435"/>
    </g>
   </g>
   <g id="line2d_50">
    <path d="M 333.429677 199.819019 
L 363.933742 152.288529 
" style="fill:none;stroke:#ffa500;stroke-linecap:square;stroke-width:1.5;"/>
    <g>
     <use style="fill-opacity:0;stroke:#ffa500;stroke-linejoin:bevel;stroke-width:1.5;" x="333.429677" xlink:href="#m956b05b3fe" y="199.819019"/>
     <use style="fill-opacity:0;stroke:#ffa500;stroke-linejoin:bevel;stroke-width:1.5;" x="363.933742" xlink:href="#m956b05b3fe" y="152.288529"/>
    </g>
   </g>
   <g id="line2d_51">
    <path d="M 333.429677 160.676262 
L 363.933742 83.844622 
" style="fill:none;stroke:#6495ed;stroke-linecap:square;stroke-width:1.5;"/>
    <g>
     <use style="fill-opacity:0;stroke:#6495ed;stroke-linejoin:miter;stroke-width:1.5;" x="333.429677" xlink:href="#m2b98608d9f" y="160.676262"/>
     <use style="fill-opacity:0;stroke:#6495ed;stroke-linejoin:miter;stroke-width:1.5;" x="363.933742" xlink:href="#m2b98608d9f" y="83.844622"/>
    </g>
   </g>
   <g id="line2d_52">
    <path d="M 333.429677 9.697057 
L 363.933742 15.400716 
" style="fill:none;stroke:#ff0000;stroke-linecap:square;stroke-width:1.5;"/>
    <g>
     <use style="fill-opacity:0;stroke:#ff0000;stroke-linejoin:miter;stroke-width:1.5;" x="333.429677" xlink:href="#m5c88c41a3a" y="9.697057"/>
     <use style="fill-opacity:0;stroke:#ff0000;stroke-linejoin:miter;stroke-width:1.5;" x="363.933742" xlink:href="#m5c88c41a3a" y="15.400716"/>
    </g>
   </g>
   <g id="line2d_53">
    <path d="M 333.429677 294.88 
L 333.429677 9.697057 
" style="fill:none;stroke:#000000;stroke-linecap:square;stroke-width:1.5;"/>
   </g>
   <g id="patch_3">
    <path d="M 56.12 294.88 
L 56.12 6.845228 
" style="fill:none;stroke:#000000;stroke-linecap:square;stroke-linejoin:miter;stroke-width:0.8;"/>
   </g>
   <g id="patch_4">
    <path d="M 399.984 294.88 
L 399.984 6.845228 
" style="fill:none;stroke:#000000;stroke-linecap:square;stroke-linejoin:miter;stroke-width:0.8;"/>
   </g>
   <g id="patch_5">
    <path d="M 56.12 294.88 
L 399.984 294.88 
" style="fill:none;stroke:#000000;stroke-linecap:square;stroke-linejoin:miter;stroke-width:0.8;"/>
   </g>
   <g id="patch_6">
    <path d="M 56.12 6.845228 
L 399.984 6.845228 
" style="fill:none;stroke:#000000;stroke-linecap:square;stroke-linejoin:miter;stroke-width:0.8;"/>
   </g>
   <g id="text_14">
    <!-- f11 -->
    <g transform="translate(369.479935 293.867279)scale(0.17 -0.17)">
     <use xlink:href="#DejaVuSans-66"/>
     <use x="35.205078" xlink:href="#DejaVuSans-31"/>
     <use x="98.828125" xlink:href="#DejaVuSans-31"/>
    </g>
   </g>
   <g id="text_15">
    <!-- f10 -->
    <g transform="translate(369.479935 225.423372)scale(0.17 -0.17)">
     <use xlink:href="#DejaVuSans-66"/>
     <use x="35.205078" xlink:href="#DejaVuSans-31"/>
     <use x="98.828125" xlink:href="#DejaVuSans-30"/>
    </g>
   </g>
   <g id="text_16">
    <!-- f12 -->
    <g transform="translate(369.479935 156.979466)scale(0.17 -0.17)">
     <use xlink:href="#DejaVuSans-66"/>
     <use x="35.205078" xlink:href="#DejaVuSans-31"/>
     <use x="98.828125" xlink:href="#DejaVuSans-32"/>
    </g>
   </g>
   <g id="text_17">
    <!-- f13 -->
    <defs>
     <path d="M 40.578125 39.3125 
Q 47.65625 37.796875 51.625 33 
Q 55.609375 28.21875 55.609375 21.1875 
Q 55.609375 10.40625 48.1875 4.484375 
Q 40.765625 -1.421875 27.09375 -1.421875 
Q 22.515625 -1.421875 17.65625 -0.515625 
Q 12.796875 0.390625 7.625 2.203125 
L 7.625 11.71875 
Q 11.71875 9.328125 16.59375 8.109375 
Q 21.484375 6.890625 26.8125 6.890625 
Q 36.078125 6.890625 40.9375 10.546875 
Q 45.796875 14.203125 45.796875 21.1875 
Q 45.796875 27.640625 41.28125 31.265625 
Q 36.765625 34.90625 28.71875 34.90625 
L 20.21875 34.90625 
L 20.21875 43.015625 
L 29.109375 43.015625 
Q 36.375 43.015625 40.234375 45.921875 
Q 44.09375 48.828125 44.09375 54.296875 
Q 44.09375 59.90625 40.109375 62.90625 
Q 36.140625 65.921875 28.71875 65.921875 
Q 24.65625 65.921875 20.015625 65.03125 
Q 15.375 64.15625 9.8125 62.3125 
L 9.8125 71.09375 
Q 15.4375 72.65625 20.34375 73.4375 
Q 25.25 74.21875 29.59375 74.21875 
Q 40.828125 74.21875 47.359375 69.109375 
Q 53.90625 64.015625 53.90625 55.328125 
Q 53.90625 49.265625 50.4375 45.09375 
Q 46.96875 40.921875 40.578125 39.3125 
z
" id="DejaVuSans-33"/>
    </defs>
    <g transform="translate(369.479935 88.53556)scale(0.17 -0.17)">
     <use xlink:href="#DejaVuSans-66"/>
     <use x="35.205078" xlink:href="#DejaVuSans-31"/>
     <use x="98.828125" xlink:href="#DejaVuSans-33"/>
    </g>
   </g>
   <g id="text_18">
    <!-- f14 -->
    <g transform="translate(369.479935 20.091654)scale(0.17 -0.17)">
     <use xlink:href="#DejaVuSans-66"/>
     <use x="35.205078" xlink:href="#DejaVuSans-31"/>
     <use x="98.828125" xlink:href="#DejaVuSans-34"/>
    </g>
   </g>
   <g id="text_19">
    <!-- bbob -->
    <defs>
     <path d="M 48.6875 27.296875 
Q 48.6875 37.203125 44.609375 42.84375 
Q 40.53125 48.484375 33.40625 48.484375 
Q 26.265625 48.484375 22.1875 42.84375 
Q 18.109375 37.203125 18.109375 27.296875 
Q 18.109375 17.390625 22.1875 11.75 
Q 26.265625 6.109375 33.40625 6.109375 
Q 40.53125 6.109375 44.609375 11.75 
Q 48.6875 17.390625 48.6875 27.296875 
z
M 18.109375 46.390625 
Q 20.953125 51.265625 25.265625 53.625 
Q 29.59375 56 35.59375 56 
Q 45.5625 56 51.78125 48.09375 
Q 58.015625 40.1875 58.015625 27.296875 
Q 58.015625 14.40625 51.78125 6.484375 
Q 45.5625 -1.421875 35.59375 -1.421875 
Q 29.59375 -1.421875 25.265625 0.953125 
Q 20.953125 3.328125 18.109375 8.203125 
L 18.109375 0 
L 9.078125 0 
L 9.078125 75.984375 
L 18.109375 75.984375 
z
" id="DejaVuSans-62"/>
    </defs>
    <g transform="translate(59.55864 17.475982)scale(0.102 -0.102)">
     <use xlink:href="#DejaVuSans-62"/>
     <use x="63.476562" xlink:href="#DejaVuSans-62"/>
     <use x="126.953125" xlink:href="#DejaVuSans-6f"/>
     <use x="188.134766" xlink:href="#DejaVuSans-62"/>
    </g>
    <!-- Ill-conditioned functions, 3-D -->
    <defs>
     <path d="M 9.8125 72.90625 
L 19.671875 72.90625 
L 19.671875 0 
L 9.8125 0 
z
" id="DejaVuSans-49"/>
     <path d="M 19.671875 64.796875 
L 19.671875 8.109375 
L 31.59375 8.109375 
Q 46.6875 8.109375 53.6875 14.9375 
Q 60.6875 21.78125 60.6875 36.53125 
Q 60.6875 51.171875 53.6875 57.984375 
Q 46.6875 64.796875 31.59375 64.796875 
z
M 9.8125 72.90625 
L 30.078125 72.90625 
Q 51.265625 72.90625 61.171875 64.09375 
Q 71.09375 55.28125 71.09375 36.53125 
Q 71.09375 17.671875 61.125 8.828125 
Q 51.171875 0 30.078125 0 
L 9.8125 0 
z
" id="DejaVuSans-44"/>
    </defs>
    <g transform="translate(59.55864 28.89775)scale(0.102 -0.102)">
     <use xlink:href="#DejaVuSans-49"/>
     <use x="29.492188" xlink:href="#DejaVuSans-6c"/>
     <use x="57.275391" xlink:href="#DejaVuSans-6c"/>
     <use x="85.058594" xlink:href="#DejaVuSans-2d"/>
     <use x="121.142578" xlink:href="#DejaVuSans-63"/>
     <use x="176.123047" xlink:href="#DejaVuSans-6f"/>
     <use x="237.304688" xlink:href="#DejaVuSans-6e"/>
     <use x="300.683594" xlink:href="#DejaVuSans-64"/>
     <use x="364.160156" xlink:href="#DejaVuSans-69"/>
     <use x="391.943359" xlink:href="#DejaVuSans-74"/>
     <use x="431.152344" xlink:href="#DejaVuSans-69"/>
     <use x="458.935547" xlink:href="#DejaVuSans-6f"/>
     <use x="520.117188" xlink:href="#DejaVuSans-6e"/>
     <use x="583.496094" xlink:href="#DejaVuSans-65"/>
     <use x="645.019531" xlink:href="#DejaVuSans-64"/>
     <use x="708.496094" xlink:href="#DejaVuSans-20"/>
     <use x="740.283203" xlink:href="#DejaVuSans-66"/>
     <use x="775.488281" xlink:href="#DejaVuSans-75"/>
     <use x="838.867188" xlink:href="#DejaVuSans-6e"/>
     <use x="902.246094" xlink:href="#DejaVuSans-63"/>
     <use x="957.226562" xlink:href="#DejaVuSans-74"/>
     <use x="996.435547" xlink:href="#DejaVuSans-69"/>
     <use x="1024.21875" xlink:href="#DejaVuSans-6f"/>
     <use x="1085.400391" xlink:href="#DejaVuSans-6e"/>
     <use x="1148.779297" xlink:href="#DejaVuSans-73"/>
     <use x="1200.878906" xlink:href="#DejaVuSans-2c"/>
     <use x="1232.666016" xlink:href="#DejaVuSans-20"/>
     <use x="1264.453125" xlink:href="#DejaVuSans-33"/>
     <use x="1328.076172" xlink:href="#DejaVuSans-2d"/>
     <use x="1364.160156" xlink:href="#DejaVuSans-44"/>
    </g>
    <!-- 51 targets: 100..1e-08 -->
    <defs>
     <path d="M 10.796875 72.90625 
L 49.515625 72.90625 
L 49.515625 64.59375 
L 19.828125 64.59375 
L 19.828125 46.734375 
Q 21.96875 47.46875 24.109375 47.828125 
Q 26.265625 48.1875 28.421875 48.1875 
Q 40.625 48.1875 47.75 41.5 
Q 54.890625 34.8125 54.890625 23.390625 
Q 54.890625 11.625 47.5625 5.09375 
Q 40.234375 -1.421875 26.90625 -1.421875 
Q 22.3125 -1.421875 17.546875 -0.640625 
Q 12.796875 0.140625 7.71875 1.703125 
L 7.71875 11.625 
Q 12.109375 9.234375 16.796875 8.0625 
Q 21.484375 6.890625 26.703125 6.890625 
Q 35.15625 6.890625 40.078125 11.328125 
Q 45.015625 15.765625 45.015625 23.390625 
Q 45.015625 31 40.078125 35.4375 
Q 35.15625 39.890625 26.703125 39.890625 
Q 22.75 39.890625 18.8125 39.015625 
Q 14.890625 38.140625 10.796875 36.28125 
z
" id="DejaVuSans-35"/>
     <path d="M 11.71875 12.40625 
L 22.015625 12.40625 
L 22.015625 0 
L 11.71875 0 
z
M 11.71875 51.703125 
L 22.015625 51.703125 
L 22.015625 39.3125 
L 11.71875 39.3125 
z
" id="DejaVuSans-3a"/>
    </defs>
    <g transform="translate(59.55864 40.319519)scale(0.102 -0.102)">
     <use xlink:href="#DejaVuSans-35"/>
     <use x="63.623047" xlink:href="#DejaVuSans-31"/>
     <use x="127.246094" xlink:href="#DejaVuSans-20"/>
     <use x="159.033203" xlink:href="#DejaVuSans-74"/>
     <use x="198.242188" xlink:href="#DejaVuSans-61"/>
     <use x="259.521484" xlink:href="#DejaVuSans-72"/>
     <use x="300.619141" xlink:href="#DejaVuSans-67"/>
     <use x="364.095703" xlink:href="#DejaVuSans-65"/>
     <use x="425.619141" xlink:href="#DejaVuSans-74"/>
     <use x="464.828125" xlink:href="#DejaVuSans-73"/>
     <use x="516.927734" xlink:href="#DejaVuSans-3a"/>
     <use x="550.619141" xlink:href="#DejaVuSans-20"/>
     <use x="582.40625" xlink:href="#DejaVuSans-31"/>
     <use x="646.029297" xlink:href="#DejaVuSans-30"/>
     <use x="709.652344" xlink:href="#DejaVuSans-30"/>
     <use x="773.275391" xlink:href="#DejaVuSans-2e"/>
     <use x="805.0625" xlink:href="#DejaVuSans-2e"/>
     <use x="836.849609" xlink:href="#DejaVuSans-31"/>
     <use x="900.472656" xlink:href="#DejaVuSans-65"/>
     <use x="961.996094" xlink:href="#DejaVuSans-2d"/>
     <use x="998.080078" xlink:href="#DejaVuSans-30"/>
     <use x="1061.703125" xlink:href="#DejaVuSans-38"/>
    </g>
    <!-- 15 instances -->
    <g transform="translate(59.55864 51.741288)scale(0.102 -0.102)">
     <use xlink:href="#DejaVuSans-31"/>
     <use x="63.623047" xlink:href="#DejaVuSans-35"/>
     <use x="127.246094" xlink:href="#DejaVuSans-20"/>
     <use x="159.033203" xlink:href="#DejaVuSans-69"/>
     <use x="186.816406" xlink:href="#DejaVuSans-6e"/>
     <use x="250.195312" xlink:href="#DejaVuSans-73"/>
     <use x="302.294922" xlink:href="#DejaVuSans-74"/>
     <use x="341.503906" xlink:href="#DejaVuSans-61"/>
     <use x="402.783203" xlink:href="#DejaVuSans-6e"/>
     <use x="466.162109" xlink:href="#DejaVuSans-63"/>
     <use x="521.142578" xlink:href="#DejaVuSans-65"/>
     <use x="582.666016" xlink:href="#DejaVuSans-73"/>
    </g>
   </g>
   <g id="text_20">
    <!-- v2.2.1.10 -->
    <g style="fill:#808080;" transform="translate(204.419188 289.919965)scale(0.1 -0.1)">
     <use xlink:href="#DejaVuSans-76"/>
     <use x="59.179688" xlink:href="#DejaVuSans-32"/>
     <use x="122.802734" xlink:href="#DejaVuSans-2e"/>
     <use x="154.589844" xlink:href="#DejaVuSans-32"/>
     <use x="218.212891" xlink:href="#DejaVuSans-2e"/>
     <use x="250" xlink:href="#DejaVuSans-31"/>
     <use x="313.623047" xlink:href="#DejaVuSans-2e"/>
     <use x="345.410156" xlink:href="#DejaVuSans-31"/>
     <use x="409.033203" xlink:href="#DejaVuSans-30"/>
    </g>
   </g>
  </g>
 </g>
 <defs>
  <clipPath id="p5ab785754b">
   <rect height="288.034772" width="343.864" x="56.12" y="6.845228"/>
  </clipPath>
 </defs>
</svg>
