<?xml version="1.0" encoding="utf-8" standalone="no"?>
<!DOCTYPE svg PUBLIC "-//W3C//DTD SVG 1.1//EN"
  "http://www.w3.org/Graphics/SVG/1.1/DTD/svg11.dtd">
<!-- Created with matplotlib (http://matplotlib.org/) -->
<svg height="345.6pt" version="1.1" viewBox="0 0 460.8 345.6" width="460.8pt" xmlns="http://www.w3.org/2000/svg" xmlns:xlink="http://www.w3.org/1999/xlink">
 <defs>
  <style type="text/css">
*{stroke-linecap:butt;stroke-linejoin:round;}
  </style>
 </defs>
 <g id="figure_1">
  <g id="patch_1">
   <path d="M 0 345.6 
L 460.8 345.6 
L 460.8 0 
L 0 0 
z
" style="fill:#ffffff;"/>
  </g>
  <g id="axes_1">
   <g id="patch_2">
    <path d="M 56.12 294.88 
L 399.984 294.88 
L 399.984 6.845228 
L 56.12 6.845228 
z
" style="fill:#ffffff;"/>
   </g>
   <g id="matplotlib.axis_1">
    <g id="xtick_1">
     <g id="line2d_1">
      <path clip-path="url(#pb044e7be7e)" d="M 56.12 294.88 
L 56.12 6.845228 
" style="fill:none;stroke:#b0b0b0;stroke-linecap:square;stroke-width:0.8;"/>
     </g>
     <g id="line2d_2">
      <defs>
       <path d="M 0 0 
L 0 3.5 
" id="m744deb9bcc" style="stroke:#000000;stroke-width:0.8;"/>
      </defs>
      <g>
       <use style="stroke:#000000;stroke-width:0.8;" x="56.12" xlink:href="#m744deb9bcc" y="294.88"/>
      </g>
     </g>
     <g id="text_1">
      <!-- 0 -->
      <defs>
       <path d="M 31.78125 66.40625 
Q 24.171875 66.40625 20.328125 58.90625 
Q 16.5 51.421875 16.5 36.375 
Q 16.5 21.390625 20.328125 13.890625 
Q 24.171875 6.390625 31.78125 6.390625 
Q 39.453125 6.390625 43.28125 13.890625 
Q 47.125 21.390625 47.125 36.375 
Q 47.125 51.421875 43.28125 58.90625 
Q 39.453125 66.40625 31.78125 66.40625 
z
M 31.78125 74.21875 
Q 44.046875 74.21875 50.515625 64.515625 
Q 56.984375 54.828125 56.984375 36.375 
Q 56.984375 17.96875 50.515625 8.265625 
Q 44.046875 -1.421875 31.78125 -1.421875 
Q 19.53125 -1.421875 13.0625 8.265625 
Q 6.59375 17.96875 6.59375 36.375 
Q 6.59375 54.828125 13.0625 64.515625 
Q 19.53125 74.21875 31.78125 74.21875 
z
" id="DejaVuSans-30"/>
      </defs>
      <g transform="translate(49.7575 317.076875)scale(0.2 -0.2)">
       <use xlink:href="#DejaVuSans-30"/>
      </g>
     </g>
    </g>
    <g id="xtick_2">
     <g id="line2d_3">
      <path clip-path="url(#pb044e7be7e)" d="M 135.351336 294.88 
L 135.351336 6.845228 
" style="fill:none;stroke:#b0b0b0;stroke-linecap:square;stroke-width:0.8;"/>
     </g>
     <g id="line2d_4">
      <g>
       <use style="stroke:#000000;stroke-width:0.8;" x="135.351336" xlink:href="#m744deb9bcc" y="294.88"/>
      </g>
     </g>
     <g id="text_2">
      <!-- 2 -->
      <defs>
       <path d="M 19.1875 8.296875 
L 53.609375 8.296875 
L 53.609375 0 
L 7.328125 0 
L 7.328125 8.296875 
Q 12.9375 14.109375 22.625 23.890625 
Q 32.328125 33.6875 34.8125 36.53125 
Q 39.546875 41.84375 41.421875 45.53125 
Q 43.3125 49.21875 43.3125 52.78125 
Q 43.3125 58.59375 39.234375 62.25 
Q 35.15625 65.921875 28.609375 65.921875 
Q 23.96875 65.921875 18.8125 64.3125 
Q 13.671875 62.703125 7.8125 59.421875 
L 7.8125 69.390625 
Q 13.765625 71.78125 18.9375 73 
Q 24.125 74.21875 28.421875 74.21875 
Q 39.75 74.21875 46.484375 68.546875 
Q 53.21875 62.890625 53.21875 53.421875 
Q 53.21875 48.921875 51.53125 44.890625 
Q 49.859375 40.875 45.40625 35.40625 
Q 44.1875 33.984375 37.640625 27.21875 
Q 31.109375 20.453125 19.1875 8.296875 
z
" id="DejaVuSans-32"/>
      </defs>
      <g transform="translate(128.988836 317.076875)scale(0.2 -0.2)">
       <use xlink:href="#DejaVuSans-32"/>
      </g>
     </g>
    </g>
    <g id="xtick_3">
     <g id="line2d_5">
      <path clip-path="url(#pb044e7be7e)" d="M 214.582673 294.88 
L 214.582673 6.845228 
" style="fill:none;stroke:#b0b0b0;stroke-linecap:square;stroke-width:0.8;"/>
     </g>
     <g id="line2d_6">
      <g>
       <use style="stroke:#000000;stroke-width:0.8;" x="214.582673" xlink:href="#m744deb9bcc" y="294.88"/>
      </g>
     </g>
     <g id="text_3">
      <!-- 4 -->
      <defs>
       <path d="M 37.796875 64.3125 
L 12.890625 25.390625 
L 37.796875 25.390625 
z
M 35.203125 72.90625 
L 47.609375 72.90625 
L 47.609375 25.390625 
L 58.015625 25.390625 
L 58.015625 17.1875 
L 47.609375 17.1875 
L 47.609375 0 
L 37.796875 0 
L 37.796875 17.1875 
L 4.890625 17.1875 
L 4.890625 26.703125 
z
" id="DejaVuSans-34"/>
      </defs>
      <g transform="translate(208.220173 317.076875)scale(0.2 -0.2)">
       <use xlink:href="#DejaVuSans-34"/>
      </g>
     </g>
    </g>
    <g id="xtick_4">
     <g id="line2d_7">
      <path clip-path="url(#pb044e7be7e)" d="M 293.814009 294.88 
L 293.814009 6.845228 
" style="fill:none;stroke:#b0b0b0;stroke-linecap:square;stroke-width:0.8;"/>
     </g>
     <g id="line2d_8">
      <g>
       <use style="stroke:#000000;stroke-width:0.8;" x="293.814009" xlink:href="#m744deb9bcc" y="294.88"/>
      </g>
     </g>
     <g id="text_4">
      <!-- 6 -->
      <defs>
       <path d="M 33.015625 40.375 
Q 26.375 40.375 22.484375 35.828125 
Q 18.609375 31.296875 18.609375 23.390625 
Q 18.609375 15.53125 22.484375 10.953125 
Q 26.375 6.390625 33.015625 6.390625 
Q 39.65625 6.390625 43.53125 10.953125 
Q 47.40625 15.53125 47.40625 23.390625 
Q 47.40625 31.296875 43.53125 35.828125 
Q 39.65625 40.375 33.015625 40.375 
z
M 52.59375 71.296875 
L 52.59375 62.3125 
Q 48.875 64.0625 45.09375 64.984375 
Q 41.3125 65.921875 37.59375 65.921875 
Q 27.828125 65.921875 22.671875 59.328125 
Q 17.53125 52.734375 16.796875 39.40625 
Q 19.671875 43.65625 24.015625 45.921875 
Q 28.375 48.1875 33.59375 48.1875 
Q 44.578125 48.1875 50.953125 41.515625 
Q 57.328125 34.859375 57.328125 23.390625 
Q 57.328125 12.15625 50.6875 5.359375 
Q 44.046875 -1.421875 33.015625 -1.421875 
Q 20.359375 -1.421875 13.671875 8.265625 
Q 6.984375 17.96875 6.984375 36.375 
Q 6.984375 53.65625 15.1875 63.9375 
Q 23.390625 74.21875 37.203125 74.21875 
Q 40.921875 74.21875 44.703125 73.484375 
Q 48.484375 72.75 52.59375 71.296875 
z
" id="DejaVuSans-36"/>
      </defs>
      <g transform="translate(287.451509 317.076875)scale(0.2 -0.2)">
       <use xlink:href="#DejaVuSans-36"/>
      </g>
     </g>
    </g>
    <g id="xtick_5">
     <g id="line2d_9">
      <path clip-path="url(#pb044e7be7e)" d="M 373.045346 294.88 
L 373.045346 6.845228 
" style="fill:none;stroke:#b0b0b0;stroke-linecap:square;stroke-width:0.8;"/>
     </g>
     <g id="line2d_10">
      <g>
       <use style="stroke:#000000;stroke-width:0.8;" x="373.045346" xlink:href="#m744deb9bcc" y="294.88"/>
      </g>
     </g>
     <g id="text_5">
      <!-- 8 -->
      <defs>
       <path d="M 31.78125 34.625 
Q 24.75 34.625 20.71875 30.859375 
Q 16.703125 27.09375 16.703125 20.515625 
Q 16.703125 13.921875 20.71875 10.15625 
Q 24.75 6.390625 31.78125 6.390625 
Q 38.8125 6.390625 42.859375 10.171875 
Q 46.921875 13.96875 46.921875 20.515625 
Q 46.921875 27.09375 42.890625 30.859375 
Q 38.875 34.625 31.78125 34.625 
z
M 21.921875 38.8125 
Q 15.578125 40.375 12.03125 44.71875 
Q 8.5 49.078125 8.5 55.328125 
Q 8.5 64.0625 14.71875 69.140625 
Q 20.953125 74.21875 31.78125 74.21875 
Q 42.671875 74.21875 48.875 69.140625 
Q 55.078125 64.0625 55.078125 55.328125 
Q 55.078125 49.078125 51.53125 44.71875 
Q 48 40.375 41.703125 38.8125 
Q 48.828125 37.15625 52.796875 32.3125 
Q 56.78125 27.484375 56.78125 20.515625 
Q 56.78125 9.90625 50.3125 4.234375 
Q 43.84375 -1.421875 31.78125 -1.421875 
Q 19.734375 -1.421875 13.25 4.234375 
Q 6.78125 9.90625 6.78125 20.515625 
Q 6.78125 27.484375 10.78125 32.3125 
Q 14.796875 37.15625 21.921875 38.8125 
z
M 18.3125 54.390625 
Q 18.3125 48.734375 21.84375 45.5625 
Q 25.390625 42.390625 31.78125 42.390625 
Q 38.140625 42.390625 41.71875 45.5625 
Q 45.3125 48.734375 45.3125 54.390625 
Q 45.3125 60.0625 41.71875 63.234375 
Q 38.140625 66.40625 31.78125 66.40625 
Q 25.390625 66.40625 21.84375 63.234375 
Q 18.3125 60.0625 18.3125 54.390625 
z
" id="DejaVuSans-38"/>
      </defs>
      <g transform="translate(366.682846 317.076875)scale(0.2 -0.2)">
       <use xlink:href="#DejaVuSans-38"/>
      </g>
     </g>
    </g>
    <g id="text_6">
     <!-- log10(# f-evals / dimension) -->
     <defs>
      <path d="M 9.421875 75.984375 
L 18.40625 75.984375 
L 18.40625 0 
L 9.421875 0 
z
" id="DejaVuSans-6c"/>
      <path d="M 30.609375 48.390625 
Q 23.390625 48.390625 19.1875 42.75 
Q 14.984375 37.109375 14.984375 27.296875 
Q 14.984375 17.484375 19.15625 11.84375 
Q 23.34375 6.203125 30.609375 6.203125 
Q 37.796875 6.203125 41.984375 11.859375 
Q 46.1875 17.53125 46.1875 27.296875 
Q 46.1875 37.015625 41.984375 42.703125 
Q 37.796875 48.390625 30.609375 48.390625 
z
M 30.609375 56 
Q 42.328125 56 49.015625 48.375 
Q 55.71875 40.765625 55.71875 27.296875 
Q 55.71875 13.875 49.015625 6.21875 
Q 42.328125 -1.421875 30.609375 -1.421875 
Q 18.84375 -1.421875 12.171875 6.21875 
Q 5.515625 13.875 5.515625 27.296875 
Q 5.515625 40.765625 12.171875 48.375 
Q 18.84375 56 30.609375 56 
z
" id="DejaVuSans-6f"/>
      <path d="M 45.40625 27.984375 
Q 45.40625 37.75 41.375 43.109375 
Q 37.359375 48.484375 30.078125 48.484375 
Q 22.859375 48.484375 18.828125 43.109375 
Q 14.796875 37.75 14.796875 27.984375 
Q 14.796875 18.265625 18.828125 12.890625 
Q 22.859375 7.515625 30.078125 7.515625 
Q 37.359375 7.515625 41.375 12.890625 
Q 45.40625 18.265625 45.40625 27.984375 
z
M 54.390625 6.78125 
Q 54.390625 -7.171875 48.1875 -13.984375 
Q 42 -20.796875 29.203125 -20.796875 
Q 24.46875 -20.796875 20.265625 -20.09375 
Q 16.0625 -19.390625 12.109375 -17.921875 
L 12.109375 -9.1875 
Q 16.0625 -11.328125 19.921875 -12.34375 
Q 23.78125 -13.375 27.78125 -13.375 
Q 36.625 -13.375 41.015625 -8.765625 
Q 45.40625 -4.15625 45.40625 5.171875 
L 45.40625 9.625 
Q 42.625 4.78125 38.28125 2.390625 
Q 33.9375 0 27.875 0 
Q 17.828125 0 11.671875 7.65625 
Q 5.515625 15.328125 5.515625 27.984375 
Q 5.515625 40.671875 11.671875 48.328125 
Q 17.828125 56 27.875 56 
Q 33.9375 56 38.28125 53.609375 
Q 42.625 51.21875 45.40625 46.390625 
L 45.40625 54.6875 
L 54.390625 54.6875 
z
" id="DejaVuSans-67"/>
      <path d="M 12.40625 8.296875 
L 28.515625 8.296875 
L 28.515625 63.921875 
L 10.984375 60.40625 
L 10.984375 69.390625 
L 28.421875 72.90625 
L 38.28125 72.90625 
L 38.28125 8.296875 
L 54.390625 8.296875 
L 54.390625 0 
L 12.40625 0 
z
" id="DejaVuSans-31"/>
      <path d="M 31 75.875 
Q 24.46875 64.65625 21.28125 53.65625 
Q 18.109375 42.671875 18.109375 31.390625 
Q 18.109375 20.125 21.3125 9.0625 
Q 24.515625 -2 31 -13.1875 
L 23.1875 -13.1875 
Q 15.875 -1.703125 12.234375 9.375 
Q 8.59375 20.453125 8.59375 31.390625 
Q 8.59375 42.28125 12.203125 53.3125 
Q 15.828125 64.359375 23.1875 75.875 
z
" id="DejaVuSans-28"/>
      <path d="M 51.125 44 
L 36.921875 44 
L 32.8125 27.6875 
L 47.125 27.6875 
z
M 43.796875 71.78125 
L 38.71875 51.515625 
L 52.984375 51.515625 
L 58.109375 71.78125 
L 65.921875 71.78125 
L 60.890625 51.515625 
L 76.125 51.515625 
L 76.125 44 
L 58.984375 44 
L 54.984375 27.6875 
L 70.515625 27.6875 
L 70.515625 20.21875 
L 53.078125 20.21875 
L 48 0 
L 40.1875 0 
L 45.21875 20.21875 
L 30.90625 20.21875 
L 25.875 0 
L 18.015625 0 
L 23.09375 20.21875 
L 7.71875 20.21875 
L 7.71875 27.6875 
L 24.90625 27.6875 
L 29 44 
L 13.28125 44 
L 13.28125 51.515625 
L 30.90625 51.515625 
L 35.890625 71.78125 
z
" id="DejaVuSans-23"/>
      <path id="DejaVuSans-20"/>
      <path d="M 37.109375 75.984375 
L 37.109375 68.5 
L 28.515625 68.5 
Q 23.6875 68.5 21.796875 66.546875 
Q 19.921875 64.59375 19.921875 59.515625 
L 19.921875 54.6875 
L 34.71875 54.6875 
L 34.71875 47.703125 
L 19.921875 47.703125 
L 19.921875 0 
L 10.890625 0 
L 10.890625 47.703125 
L 2.296875 47.703125 
L 2.296875 54.6875 
L 10.890625 54.6875 
L 10.890625 58.5 
Q 10.890625 67.625 15.140625 71.796875 
Q 19.390625 75.984375 28.609375 75.984375 
z
" id="DejaVuSans-66"/>
      <path d="M 4.890625 31.390625 
L 31.203125 31.390625 
L 31.203125 23.390625 
L 4.890625 23.390625 
z
" id="DejaVuSans-2d"/>
      <path d="M 56.203125 29.59375 
L 56.203125 25.203125 
L 14.890625 25.203125 
Q 15.484375 15.921875 20.484375 11.0625 
Q 25.484375 6.203125 34.421875 6.203125 
Q 39.59375 6.203125 44.453125 7.46875 
Q 49.3125 8.734375 54.109375 11.28125 
L 54.109375 2.78125 
Q 49.265625 0.734375 44.1875 -0.34375 
Q 39.109375 -1.421875 33.890625 -1.421875 
Q 20.796875 -1.421875 13.15625 6.1875 
Q 5.515625 13.8125 5.515625 26.8125 
Q 5.515625 40.234375 12.765625 48.109375 
Q 20.015625 56 32.328125 56 
Q 43.359375 56 49.78125 48.890625 
Q 56.203125 41.796875 56.203125 29.59375 
z
M 47.21875 32.234375 
Q 47.125 39.59375 43.09375 43.984375 
Q 39.0625 48.390625 32.421875 48.390625 
Q 24.90625 48.390625 20.390625 44.140625 
Q 15.875 39.890625 15.1875 32.171875 
z
" id="DejaVuSans-65"/>
      <path d="M 2.984375 54.6875 
L 12.5 54.6875 
L 29.59375 8.796875 
L 46.6875 54.6875 
L 56.203125 54.6875 
L 35.6875 0 
L 23.484375 0 
z
" id="DejaVuSans-76"/>
      <path d="M 34.28125 27.484375 
Q 23.390625 27.484375 19.1875 25 
Q 14.984375 22.515625 14.984375 16.5 
Q 14.984375 11.71875 18.140625 8.90625 
Q 21.296875 6.109375 26.703125 6.109375 
Q 34.1875 6.109375 38.703125 11.40625 
Q 43.21875 16.703125 43.21875 25.484375 
L 43.21875 27.484375 
z
M 52.203125 31.203125 
L 52.203125 0 
L 43.21875 0 
L 43.21875 8.296875 
Q 40.140625 3.328125 35.546875 0.953125 
Q 30.953125 -1.421875 24.3125 -1.421875 
Q 15.921875 -1.421875 10.953125 3.296875 
Q 6 8.015625 6 15.921875 
Q 6 25.140625 12.171875 29.828125 
Q 18.359375 34.515625 30.609375 34.515625 
L 43.21875 34.515625 
L 43.21875 35.40625 
Q 43.21875 41.609375 39.140625 45 
Q 35.0625 48.390625 27.6875 48.390625 
Q 23 48.390625 18.546875 47.265625 
Q 14.109375 46.140625 10.015625 43.890625 
L 10.015625 52.203125 
Q 14.9375 54.109375 19.578125 55.046875 
Q 24.21875 56 28.609375 56 
Q 40.484375 56 46.34375 49.84375 
Q 52.203125 43.703125 52.203125 31.203125 
z
" id="DejaVuSans-61"/>
      <path d="M 44.28125 53.078125 
L 44.28125 44.578125 
Q 40.484375 46.53125 36.375 47.5 
Q 32.28125 48.484375 27.875 48.484375 
Q 21.1875 48.484375 17.84375 46.4375 
Q 14.5 44.390625 14.5 40.28125 
Q 14.5 37.15625 16.890625 35.375 
Q 19.28125 33.59375 26.515625 31.984375 
L 29.59375 31.296875 
Q 39.15625 29.25 43.1875 25.515625 
Q 47.21875 21.78125 47.21875 15.09375 
Q 47.21875 7.46875 41.1875 3.015625 
Q 35.15625 -1.421875 24.609375 -1.421875 
Q 20.21875 -1.421875 15.453125 -0.5625 
Q 10.6875 0.296875 5.421875 2 
L 5.421875 11.28125 
Q 10.40625 8.6875 15.234375 7.390625 
Q 20.0625 6.109375 24.8125 6.109375 
Q 31.15625 6.109375 34.5625 8.28125 
Q 37.984375 10.453125 37.984375 14.40625 
Q 37.984375 18.0625 35.515625 20.015625 
Q 33.0625 21.96875 24.703125 23.78125 
L 21.578125 24.515625 
Q 13.234375 26.265625 9.515625 29.90625 
Q 5.8125 33.546875 5.8125 39.890625 
Q 5.8125 47.609375 11.28125 51.796875 
Q 16.75 56 26.8125 56 
Q 31.78125 56 36.171875 55.265625 
Q 40.578125 54.546875 44.28125 53.078125 
z
" id="DejaVuSans-73"/>
      <path d="M 25.390625 72.90625 
L 33.6875 72.90625 
L 8.296875 -9.28125 
L 0 -9.28125 
z
" id="DejaVuSans-2f"/>
      <path d="M 45.40625 46.390625 
L 45.40625 75.984375 
L 54.390625 75.984375 
L 54.390625 0 
L 45.40625 0 
L 45.40625 8.203125 
Q 42.578125 3.328125 38.25 0.953125 
Q 33.9375 -1.421875 27.875 -1.421875 
Q 17.96875 -1.421875 11.734375 6.484375 
Q 5.515625 14.40625 5.515625 27.296875 
Q 5.515625 40.1875 11.734375 48.09375 
Q 17.96875 56 27.875 56 
Q 33.9375 56 38.25 53.625 
Q 42.578125 51.265625 45.40625 46.390625 
z
M 14.796875 27.296875 
Q 14.796875 17.390625 18.875 11.75 
Q 22.953125 6.109375 30.078125 6.109375 
Q 37.203125 6.109375 41.296875 11.75 
Q 45.40625 17.390625 45.40625 27.296875 
Q 45.40625 37.203125 41.296875 42.84375 
Q 37.203125 48.484375 30.078125 48.484375 
Q 22.953125 48.484375 18.875 42.84375 
Q 14.796875 37.203125 14.796875 27.296875 
z
" id="DejaVuSans-64"/>
      <path d="M 9.421875 54.6875 
L 18.40625 54.6875 
L 18.40625 0 
L 9.421875 0 
z
M 9.421875 75.984375 
L 18.40625 75.984375 
L 18.40625 64.59375 
L 9.421875 64.59375 
z
" id="DejaVuSans-69"/>
      <path d="M 52 44.1875 
Q 55.375 50.25 60.0625 53.125 
Q 64.75 56 71.09375 56 
Q 79.640625 56 84.28125 50.015625 
Q 88.921875 44.046875 88.921875 33.015625 
L 88.921875 0 
L 79.890625 0 
L 79.890625 32.71875 
Q 79.890625 40.578125 77.09375 44.375 
Q 74.3125 48.1875 68.609375 48.1875 
Q 61.625 48.1875 57.5625 43.546875 
Q 53.515625 38.921875 53.515625 30.90625 
L 53.515625 0 
L 44.484375 0 
L 44.484375 32.71875 
Q 44.484375 40.625 41.703125 44.40625 
Q 38.921875 48.1875 33.109375 48.1875 
Q 26.21875 48.1875 22.15625 43.53125 
Q 18.109375 38.875 18.109375 30.90625 
L 18.109375 0 
L 9.078125 0 
L 9.078125 54.6875 
L 18.109375 54.6875 
L 18.109375 46.1875 
Q 21.1875 51.21875 25.484375 53.609375 
Q 29.78125 56 35.6875 56 
Q 41.65625 56 45.828125 52.96875 
Q 50 49.953125 52 44.1875 
z
" id="DejaVuSans-6d"/>
      <path d="M 54.890625 33.015625 
L 54.890625 0 
L 45.90625 0 
L 45.90625 32.71875 
Q 45.90625 40.484375 42.875 44.328125 
Q 39.84375 48.1875 33.796875 48.1875 
Q 26.515625 48.1875 22.3125 43.546875 
Q 18.109375 38.921875 18.109375 30.90625 
L 18.109375 0 
L 9.078125 0 
L 9.078125 54.6875 
L 18.109375 54.6875 
L 18.109375 46.1875 
Q 21.34375 51.125 25.703125 53.5625 
Q 30.078125 56 35.796875 56 
Q 45.21875 56 50.046875 50.171875 
Q 54.890625 44.34375 54.890625 33.015625 
z
" id="DejaVuSans-6e"/>
      <path d="M 8.015625 75.875 
L 15.828125 75.875 
Q 23.140625 64.359375 26.78125 53.3125 
Q 30.421875 42.28125 30.421875 31.390625 
Q 30.421875 20.453125 26.78125 9.375 
Q 23.140625 -1.703125 15.828125 -13.1875 
L 8.015625 -13.1875 
Q 14.5 -2 17.703125 9.0625 
Q 20.90625 20.125 20.90625 31.390625 
Q 20.90625 42.671875 17.703125 53.65625 
Q 14.5 64.65625 8.015625 75.875 
z
" id="DejaVuSans-29"/>
     </defs>
     <g transform="translate(107.211219 338.153594)scale(0.17 -0.17)">
      <use xlink:href="#DejaVuSans-6c"/>
      <use x="27.783203" xlink:href="#DejaVuSans-6f"/>
      <use x="88.964844" xlink:href="#DejaVuSans-67"/>
      <use x="152.441406" xlink:href="#DejaVuSans-31"/>
      <use x="216.064453" xlink:href="#DejaVuSans-30"/>
      <use x="279.6875" xlink:href="#DejaVuSans-28"/>
      <use x="318.701172" xlink:href="#DejaVuSans-23"/>
      <use x="402.490234" xlink:href="#DejaVuSans-20"/>
      <use x="434.277344" xlink:href="#DejaVuSans-66"/>
      <use x="469.404297" xlink:href="#DejaVuSans-2d"/>
      <use x="505.488281" xlink:href="#DejaVuSans-65"/>
      <use x="567.011719" xlink:href="#DejaVuSans-76"/>
      <use x="626.191406" xlink:href="#DejaVuSans-61"/>
      <use x="687.470703" xlink:href="#DejaVuSans-6c"/>
      <use x="715.253906" xlink:href="#DejaVuSans-73"/>
      <use x="767.353516" xlink:href="#DejaVuSans-20"/>
      <use x="799.140625" xlink:href="#DejaVuSans-2f"/>
      <use x="832.832031" xlink:href="#DejaVuSans-20"/>
      <use x="864.619141" xlink:href="#DejaVuSans-64"/>
      <use x="928.095703" xlink:href="#DejaVuSans-69"/>
      <use x="955.878906" xlink:href="#DejaVuSans-6d"/>
      <use x="1053.291016" xlink:href="#DejaVuSans-65"/>
      <use x="1114.814453" xlink:href="#DejaVuSans-6e"/>
      <use x="1178.193359" xlink:href="#DejaVuSans-73"/>
      <use x="1230.292969" xlink:href="#DejaVuSans-69"/>
      <use x="1258.076172" xlink:href="#DejaVuSans-6f"/>
      <use x="1319.257812" xlink:href="#DejaVuSans-6e"/>
      <use x="1382.636719" xlink:href="#DejaVuSans-29"/>
     </g>
    </g>
   </g>
   <g id="matplotlib.axis_2">
    <g id="ytick_1">
     <g id="line2d_11">
      <path clip-path="url(#pb044e7be7e)" d="M 56.12 294.88 
L 399.984 294.88 
" style="fill:none;stroke:#b0b0b0;stroke-linecap:square;stroke-width:0.8;"/>
     </g>
     <g id="line2d_12">
      <defs>
       <path d="M 0 0 
L -3.5 0 
" id="mb018587b40" style="stroke:#000000;stroke-width:0.8;"/>
      </defs>
      <g>
       <use style="stroke:#000000;stroke-width:0.8;" x="56.12" xlink:href="#mb018587b40" y="294.88"/>
      </g>
     </g>
     <g id="text_7">
      <!-- 0.0 -->
      <defs>
       <path d="M 10.6875 12.40625 
L 21 12.40625 
L 21 0 
L 10.6875 0 
z
" id="DejaVuSans-2e"/>
      </defs>
      <g transform="translate(23.675 300.95875)scale(0.16 -0.16)">
       <use xlink:href="#DejaVuSans-30"/>
       <use x="63.623047" xlink:href="#DejaVuSans-2e"/>
       <use x="95.410156" xlink:href="#DejaVuSans-30"/>
      </g>
     </g>
    </g>
    <g id="ytick_2">
     <g id="line2d_13">
      <path clip-path="url(#pb044e7be7e)" d="M 56.12 237.843411 
L 399.984 237.843411 
" style="fill:none;stroke:#b0b0b0;stroke-linecap:square;stroke-width:0.8;"/>
     </g>
     <g id="line2d_14">
      <g>
       <use style="stroke:#000000;stroke-width:0.8;" x="56.12" xlink:href="#mb018587b40" y="237.843411"/>
      </g>
     </g>
     <g id="text_8">
      <!-- 0.2 -->
      <g transform="translate(23.675 243.922161)scale(0.16 -0.16)">
       <use xlink:href="#DejaVuSans-30"/>
       <use x="63.623047" xlink:href="#DejaVuSans-2e"/>
       <use x="95.410156" xlink:href="#DejaVuSans-32"/>
      </g>
     </g>
    </g>
    <g id="ytick_3">
     <g id="line2d_15">
      <path clip-path="url(#pb044e7be7e)" d="M 56.12 180.806823 
L 399.984 180.806823 
" style="fill:none;stroke:#b0b0b0;stroke-linecap:square;stroke-width:0.8;"/>
     </g>
     <g id="line2d_16">
      <g>
       <use style="stroke:#000000;stroke-width:0.8;" x="56.12" xlink:href="#mb018587b40" y="180.806823"/>
      </g>
     </g>
     <g id="text_9">
      <!-- 0.4 -->
      <g transform="translate(23.675 186.885573)scale(0.16 -0.16)">
       <use xlink:href="#DejaVuSans-30"/>
       <use x="63.623047" xlink:href="#DejaVuSans-2e"/>
       <use x="95.410156" xlink:href="#DejaVuSans-34"/>
      </g>
     </g>
    </g>
    <g id="ytick_4">
     <g id="line2d_17">
      <path clip-path="url(#pb044e7be7e)" d="M 56.12 123.770234 
L 399.984 123.770234 
" style="fill:none;stroke:#b0b0b0;stroke-linecap:square;stroke-width:0.8;"/>
     </g>
     <g id="line2d_18">
      <g>
       <use style="stroke:#000000;stroke-width:0.8;" x="56.12" xlink:href="#mb018587b40" y="123.770234"/>
      </g>
     </g>
     <g id="text_10">
      <!-- 0.6 -->
      <g transform="translate(23.675 129.848984)scale(0.16 -0.16)">
       <use xlink:href="#DejaVuSans-30"/>
       <use x="63.623047" xlink:href="#DejaVuSans-2e"/>
       <use x="95.410156" xlink:href="#DejaVuSans-36"/>
      </g>
     </g>
    </g>
    <g id="ytick_5">
     <g id="line2d_19">
      <path clip-path="url(#pb044e7be7e)" d="M 56.12 66.733646 
L 399.984 66.733646 
" style="fill:none;stroke:#b0b0b0;stroke-linecap:square;stroke-width:0.8;"/>
     </g>
     <g id="line2d_20">
      <g>
       <use style="stroke:#000000;stroke-width:0.8;" x="56.12" xlink:href="#mb018587b40" y="66.733646"/>
      </g>
     </g>
     <g id="text_11">
      <!-- 0.8 -->
      <g transform="translate(23.675 72.812396)scale(0.16 -0.16)">
       <use xlink:href="#DejaVuSans-30"/>
       <use x="63.623047" xlink:href="#DejaVuSans-2e"/>
       <use x="95.410156" xlink:href="#DejaVuSans-38"/>
      </g>
     </g>
    </g>
    <g id="ytick_6">
     <g id="line2d_21">
      <path clip-path="url(#pb044e7be7e)" d="M 56.12 9.697057 
L 399.984 9.697057 
" style="fill:none;stroke:#b0b0b0;stroke-linecap:square;stroke-width:0.8;"/>
     </g>
     <g id="line2d_22">
      <g>
       <use style="stroke:#000000;stroke-width:0.8;" x="56.12" xlink:href="#mb018587b40" y="9.697057"/>
      </g>
     </g>
     <g id="text_12">
      <!-- 1.0 -->
      <g transform="translate(23.675 15.775807)scale(0.16 -0.16)">
       <use xlink:href="#DejaVuSans-31"/>
       <use x="63.623047" xlink:href="#DejaVuSans-2e"/>
       <use x="95.410156" xlink:href="#DejaVuSans-30"/>
      </g>
     </g>
    </g>
    <g id="text_13">
     <!-- Fraction of function,target pairs -->
     <defs>
      <path d="M 9.8125 72.90625 
L 51.703125 72.90625 
L 51.703125 64.59375 
L 19.671875 64.59375 
L 19.671875 43.109375 
L 48.578125 43.109375 
L 48.578125 34.8125 
L 19.671875 34.8125 
L 19.671875 0 
L 9.8125 0 
z
" id="DejaVuSans-46"/>
      <path d="M 41.109375 46.296875 
Q 39.59375 47.171875 37.8125 47.578125 
Q 36.03125 48 33.890625 48 
Q 26.265625 48 22.1875 43.046875 
Q 18.109375 38.09375 18.109375 28.8125 
L 18.109375 0 
L 9.078125 0 
L 9.078125 54.6875 
L 18.109375 54.6875 
L 18.109375 46.1875 
Q 20.953125 51.171875 25.484375 53.578125 
Q 30.03125 56 36.53125 56 
Q 37.453125 56 38.578125 55.875 
Q 39.703125 55.765625 41.0625 55.515625 
z
" id="DejaVuSans-72"/>
      <path d="M 48.78125 52.59375 
L 48.78125 44.1875 
Q 44.96875 46.296875 41.140625 47.34375 
Q 37.3125 48.390625 33.40625 48.390625 
Q 24.65625 48.390625 19.8125 42.84375 
Q 14.984375 37.3125 14.984375 27.296875 
Q 14.984375 17.28125 19.8125 11.734375 
Q 24.65625 6.203125 33.40625 6.203125 
Q 37.3125 6.203125 41.140625 7.25 
Q 44.96875 8.296875 48.78125 10.40625 
L 48.78125 2.09375 
Q 45.015625 0.34375 40.984375 -0.53125 
Q 36.96875 -1.421875 32.421875 -1.421875 
Q 20.0625 -1.421875 12.78125 6.34375 
Q 5.515625 14.109375 5.515625 27.296875 
Q 5.515625 40.671875 12.859375 48.328125 
Q 20.21875 56 33.015625 56 
Q 37.15625 56 41.109375 55.140625 
Q 45.0625 54.296875 48.78125 52.59375 
z
" id="DejaVuSans-63"/>
      <path d="M 18.3125 70.21875 
L 18.3125 54.6875 
L 36.8125 54.6875 
L 36.8125 47.703125 
L 18.3125 47.703125 
L 18.3125 18.015625 
Q 18.3125 11.328125 20.140625 9.421875 
Q 21.96875 7.515625 27.59375 7.515625 
L 36.8125 7.515625 
L 36.8125 0 
L 27.59375 0 
Q 17.1875 0 13.234375 3.875 
Q 9.28125 7.765625 9.28125 18.015625 
L 9.28125 47.703125 
L 2.6875 47.703125 
L 2.6875 54.6875 
L 9.28125 54.6875 
L 9.28125 70.21875 
z
" id="DejaVuSans-74"/>
      <path d="M 8.5 21.578125 
L 8.5 54.6875 
L 17.484375 54.6875 
L 17.484375 21.921875 
Q 17.484375 14.15625 20.5 10.265625 
Q 23.53125 6.390625 29.59375 6.390625 
Q 36.859375 6.390625 41.078125 11.03125 
Q 45.3125 15.671875 45.3125 23.6875 
L 45.3125 54.6875 
L 54.296875 54.6875 
L 54.296875 0 
L 45.3125 0 
L 45.3125 8.40625 
Q 42.046875 3.421875 37.71875 1 
Q 33.40625 -1.421875 27.6875 -1.421875 
Q 18.265625 -1.421875 13.375 4.4375 
Q 8.5 10.296875 8.5 21.578125 
z
M 31.109375 56 
z
" id="DejaVuSans-75"/>
      <path d="M 11.71875 12.40625 
L 22.015625 12.40625 
L 22.015625 4 
L 14.015625 -11.625 
L 7.71875 -11.625 
L 11.71875 4 
z
" id="DejaVuSans-2c"/>
      <path d="M 18.109375 8.203125 
L 18.109375 -20.796875 
L 9.078125 -20.796875 
L 9.078125 54.6875 
L 18.109375 54.6875 
L 18.109375 46.390625 
Q 20.953125 51.265625 25.265625 53.625 
Q 29.59375 56 35.59375 56 
Q 45.5625 56 51.78125 48.09375 
Q 58.015625 40.1875 58.015625 27.296875 
Q 58.015625 14.40625 51.78125 6.484375 
Q 45.5625 -1.421875 35.59375 -1.421875 
Q 29.59375 -1.421875 25.265625 0.953125 
Q 20.953125 3.328125 18.109375 8.203125 
z
M 48.6875 27.296875 
Q 48.6875 37.203125 44.609375 42.84375 
Q 40.53125 48.484375 33.40625 48.484375 
Q 26.265625 48.484375 22.1875 42.84375 
Q 18.109375 37.203125 18.109375 27.296875 
Q 18.109375 17.390625 22.1875 11.75 
Q 26.265625 6.109375 33.40625 6.109375 
Q 40.53125 6.109375 44.609375 11.75 
Q 48.6875 17.390625 48.6875 27.296875 
z
" id="DejaVuSans-70"/>
     </defs>
     <g transform="translate(16.139531 286.001989)rotate(-90)scale(0.17 -0.17)">
      <use xlink:href="#DejaVuSans-46"/>
      <use x="57.410156" xlink:href="#DejaVuSans-72"/>
      <use x="98.523438" xlink:href="#DejaVuSans-61"/>
      <use x="159.802734" xlink:href="#DejaVuSans-63"/>
      <use x="214.783203" xlink:href="#DejaVuSans-74"/>
      <use x="253.992188" xlink:href="#DejaVuSans-69"/>
      <use x="281.775391" xlink:href="#DejaVuSans-6f"/>
      <use x="342.957031" xlink:href="#DejaVuSans-6e"/>
      <use x="406.335938" xlink:href="#DejaVuSans-20"/>
      <use x="438.123047" xlink:href="#DejaVuSans-6f"/>
      <use x="499.304688" xlink:href="#DejaVuSans-66"/>
      <use x="534.509766" xlink:href="#DejaVuSans-20"/>
      <use x="566.296875" xlink:href="#DejaVuSans-66"/>
      <use x="601.501953" xlink:href="#DejaVuSans-75"/>
      <use x="664.880859" xlink:href="#DejaVuSans-6e"/>
      <use x="728.259766" xlink:href="#DejaVuSans-63"/>
      <use x="783.240234" xlink:href="#DejaVuSans-74"/>
      <use x="822.449219" xlink:href="#DejaVuSans-69"/>
      <use x="850.232422" xlink:href="#DejaVuSans-6f"/>
      <use x="911.414062" xlink:href="#DejaVuSans-6e"/>
      <use x="974.792969" xlink:href="#DejaVuSans-2c"/>
      <use x="1006.580078" xlink:href="#DejaVuSans-74"/>
      <use x="1045.789062" xlink:href="#DejaVuSans-61"/>
      <use x="1107.068359" xlink:href="#DejaVuSans-72"/>
      <use x="1148.166016" xlink:href="#DejaVuSans-67"/>
      <use x="1211.642578" xlink:href="#DejaVuSans-65"/>
      <use x="1273.166016" xlink:href="#DejaVuSans-74"/>
      <use x="1312.375" xlink:href="#DejaVuSans-20"/>
      <use x="1344.162109" xlink:href="#DejaVuSans-70"/>
      <use x="1407.638672" xlink:href="#DejaVuSans-61"/>
      <use x="1468.917969" xlink:href="#DejaVuSans-69"/>
      <use x="1496.701172" xlink:href="#DejaVuSans-72"/>
      <use x="1537.814453" xlink:href="#DejaVuSans-73"/>
     </g>
    </g>
   </g>
   <g id="line2d_23">
    <defs>
     <path d="M 0 1.5 
C 0.397805 1.5 0.77937 1.341951 1.06066 1.06066 
C 1.341951 0.77937 1.5 0.397805 1.5 0 
C 1.5 -0.397805 1.341951 -0.77937 1.06066 -1.06066 
C 0.77937 -1.341951 0.397805 -1.5 0 -1.5 
C -0.397805 -1.5 -0.77937 -1.341951 -1.06066 -1.06066 
C -1.341951 -0.77937 -1.5 -0.397805 -1.5 0 
C -1.5 0.397805 -1.341951 0.77937 -1.06066 1.06066 
C -0.77937 1.341951 -0.397805 1.5 0 1.5 
z
" id="md5be3cbac6" style="stroke:#000080;"/>
    </defs>
    <g>
     <use style="fill:#000080;stroke:#000080;" x="191.162539" xlink:href="#md5be3cbac6" y="238.961776"/>
     <use style="fill:#000080;stroke:#000080;" x="191.162539" xlink:href="#md5be3cbac6" y="238.961776"/>
    </g>
   </g>
   <g id="line2d_24">
    <path d="M 112.696514 294.88 
L 112.696514 286.492266 
L 113.202576 286.492266 
L 113.202576 284.81472 
L 113.450132 284.81472 
L 113.450132 284.255537 
L 114.172121 284.255537 
L 114.172121 283.137173 
L 125.740418 283.137173 
L 125.740418 282.577991 
L 125.979378 282.577991 
L 125.979378 275.308622 
L 126.215065 275.308622 
L 126.215065 274.749439 
L 127.347373 274.749439 
L 127.347373 273.631075 
L 127.780222 273.631075 
L 127.780222 273.071893 
L 127.886754 273.071893 
L 127.886754 272.51271 
L 127.992631 272.51271 
L 127.992631 271.953528 
L 128.614561 271.953528 
L 128.614561 271.394346 
L 128.716065 271.394346 
L 128.716065 270.835164 
L 128.816974 270.835164 
L 128.816974 270.275981 
L 128.917294 270.275981 
L 128.917294 268.039252 
L 129.410304 268.039252 
L 129.410304 265.802523 
L 129.507233 265.802523 
L 129.507233 265.243341 
L 130.170864 265.243341 
L 130.170864 263.006612 
L 130.809845 263.006612 
L 130.809845 262.44743 
L 130.899221 262.44743 
L 130.899221 260.769883 
L 131.076592 260.769883 
L 131.076592 259.651519 
L 131.339267 259.651519 
L 131.339267 256.855608 
L 143.60888 256.855608 
L 143.60888 254.618879 
L 143.820505 254.618879 
L 143.820505 253.500514 
L 143.98795 253.500514 
L 143.98795 252.941332 
L 144.112473 252.941332 
L 144.112473 250.145421 
L 144.440195 250.145421 
L 144.440195 249.027056 
L 146.028272 249.027056 
L 146.028272 248.467874 
L 146.717284 248.467874 
L 146.717284 247.908692 
L 150.726225 247.908692 
L 150.726225 247.34951 
L 153.065801 247.34951 
L 153.065801 246.790327 
L 154.091481 246.790327 
L 154.091481 246.231145 
L 158.598297 246.231145 
L 158.598297 245.671963 
L 158.924841 245.671963 
L 158.924841 245.112781 
L 159.526171 245.112781 
L 159.526171 244.553598 
L 159.901929 244.553598 
L 159.901929 243.994416 
L 166.138127 243.994416 
L 166.138127 243.435234 
L 166.541495 243.435234 
L 166.541495 242.876052 
L 169.753951 242.876052 
L 169.753951 242.316869 
L 170.510431 242.316869 
L 170.510431 241.757687 
L 173.42739 241.757687 
L 173.42739 241.198505 
L 184.683375 241.198505 
L 184.683375 240.639323 
L 187.145275 240.639323 
L 187.145275 240.08014 
L 188.455497 240.08014 
L 188.455497 239.520958 
L 191.162539 239.520958 
L 191.162539 238.961776 
L 333.429677 238.961776 
" style="fill:none;stroke:#000080;stroke-linecap:square;stroke-width:1.5;"/>
   </g>
   <g id="line2d_25">
    <defs>
     <path d="M 0 6 
C 1.591219 6 3.117479 5.367802 4.242641 4.242641 
C 5.367802 3.117479 6 1.591219 6 0 
C 6 -1.591219 5.367802 -3.117479 4.242641 -4.242641 
C 3.117479 -5.367802 1.591219 -6 0 -6 
C -1.591219 -6 -3.117479 -5.367802 -4.242641 -4.242641 
C -5.367802 -3.117479 -6 -1.591219 -6 0 
C -6 1.591219 -5.367802 3.117479 -4.242641 4.242641 
C -3.117479 5.367802 -1.591219 6 0 6 
z
" id="m56a03adece" style="stroke:#000080;stroke-width:1.5;"/>
    </defs>
    <g>
     <use style="fill-opacity:0;stroke:#000080;stroke-width:1.5;" x="131.339267" xlink:href="#m56a03adece" y="259.651519"/>
     <use style="fill-opacity:0;stroke:#000080;stroke-width:1.5;" x="191.162539" xlink:href="#m56a03adece" y="239.520958"/>
     <use style="fill-opacity:0;stroke:#000080;stroke-width:1.5;" x="191.162539" xlink:href="#m56a03adece" y="238.961776"/>
     <use style="fill-opacity:0;stroke:#000080;stroke-width:1.5;" x="191.162539" xlink:href="#m56a03adece" y="238.961776"/>
     <use style="fill-opacity:0;stroke:#000080;stroke-width:1.5;" x="333.429677" xlink:href="#m56a03adece" y="238.961776"/>
    </g>
   </g>
   <g id="line2d_26">
    <path style="fill:none;stroke:#000080;stroke-linecap:square;stroke-width:1.5;"/>
    <g/>
   </g>
   <g id="line2d_27">
    <path clip-path="url(#pb044e7be7e)" d="M 136.991135 256.855608 
" style="fill:none;stroke:#000080;stroke-linecap:square;stroke-width:1.5;"/>
    <defs>
     <path d="M -12 12 
L 12 -12 
M -12 -12 
L 12 12 
" id="md968cec43e" style="stroke:#000080;stroke-width:3;"/>
    </defs>
    <g clip-path="url(#pb044e7be7e)">
     <use style="fill:#000080;stroke:#000080;stroke-width:3;" x="136.991135" xlink:href="#md968cec43e" y="256.855608"/>
    </g>
   </g>
   <g id="line2d_28">
    <defs>
     <path d="M 0 1.5 
C 0.397805 1.5 0.77937 1.341951 1.06066 1.06066 
C 1.341951 0.77937 1.5 0.397805 1.5 0 
C 1.5 -0.397805 1.341951 -0.77937 1.06066 -1.06066 
C 0.77937 -1.341951 0.397805 -1.5 0 -1.5 
C -0.397805 -1.5 -0.77937 -1.341951 -1.06066 -1.06066 
C -1.341951 -0.77937 -1.5 -0.397805 -1.5 0 
C -1.5 0.397805 -1.341951 0.77937 -1.06066 1.06066 
C -0.77937 1.341951 -0.397805 1.5 0 1.5 
z
" id="mf5f0503a58" style="stroke:#ff00ff;"/>
    </defs>
    <g>
     <use style="fill:#ff00ff;stroke:#ff00ff;" x="205.971993" xlink:href="#mf5f0503a58" y="9.697057"/>
     <use style="fill:#ff00ff;stroke:#ff00ff;" x="205.971993" xlink:href="#mf5f0503a58" y="9.697057"/>
    </g>
   </g>
   <g id="line2d_29">
    <path d="M 40.355341 294.88 
L 40.355341 282.577991 
L 109.300972 282.577991 
L 109.300972 282.018808 
L 110.214719 282.018808 
L 110.214719 281.459626 
L 110.508826 281.459626 
L 110.508826 280.341262 
L 111.908367 280.341262 
L 111.908367 278.663715 
L 112.437789 278.663715 
L 112.437789 277.545351 
L 112.696514 277.545351 
L 112.696514 276.426986 
L 113.934809 276.426986 
L 113.934809 275.867804 
L 114.865028 275.867804 
L 114.865028 275.308622 
L 124.493143 275.308622 
L 124.493143 274.749439 
L 125.375637 274.749439 
L 125.375637 274.190257 
L 126.903352 274.190257 
L 126.903352 273.631075 
L 128.716065 273.631075 
L 128.716065 272.51271 
L 132.915754 272.51271 
L 132.915754 271.953528 
L 134.139727 271.953528 
L 134.139727 271.394346 
L 136.157962 271.394346 
L 136.157962 270.835164 
L 137.115809 270.835164 
L 137.115809 269.716799 
L 137.423596 269.716799 
L 137.423596 268.598435 
L 137.904883 268.598435 
L 137.904883 268.039252 
L 138.08195 268.039252 
L 138.08195 266.920888 
L 139.490663 266.920888 
L 139.544682 265.802523 
L 139.812259 265.802523 
L 139.865278 264.124977 
L 139.97083 264.124977 
L 140.075738 263.006612 
L 140.23191 263.006612 
L 140.23191 260.769883 
L 143.862519 260.769883 
L 143.904431 259.092337 
L 147.311216 259.092337 
L 147.311216 258.533154 
L 147.984682 258.533154 
L 147.984682 257.973972 
L 148.27935 257.973972 
L 148.27935 257.41479 
L 150.356213 257.41479 
L 150.356213 256.855608 
L 152.001243 256.855608 
L 152.001243 256.296425 
L 153.622015 256.296425 
L 153.622015 255.737243 
L 154.137731 255.737243 
L 154.229859 254.059696 
L 154.458043 254.059696 
L 154.503319 252.941332 
L 154.683241 252.941332 
L 154.683241 252.38215 
L 154.816958 252.38215 
L 154.927601 248.467874 
L 154.949644 248.467874 
L 154.971659 246.790327 
L 155.124982 246.790327 
L 155.233668 243.994416 
L 155.27695 243.994416 
L 155.384683 241.757687 
L 155.427588 241.757687 
L 155.470386 240.08014 
L 155.598146 240.08014 
L 155.682795 235.0475 
L 155.767029 235.0475 
L 155.871746 231.133225 
L 155.955062 231.133225 
L 156.037977 226.659767 
L 156.079286 226.659767 
L 156.161606 224.98222 
L 156.446663 224.98222 
L 156.547336 221.627126 
L 156.786573 221.627126 
L 156.865585 218.272033 
L 156.924607 218.272033 
L 156.924607 217.712851 
L 157.119897 217.712851 
L 157.119897 217.153669 
L 157.598639 217.153669 
L 157.598639 216.594486 
L 157.823787 216.594486 
L 157.823787 216.035304 
L 158.009186 216.035304 
L 158.046028 214.357757 
L 158.374097 214.357757 
L 158.39214 212.680211 
L 158.713736 212.680211 
L 158.749101 211.002664 
L 158.907348 211.002664 
L 159.012043 209.884299 
L 159.150653 209.884299 
L 159.185132 208.206753 
L 160.350316 208.206753 
L 160.382475 207.088388 
L 160.478592 207.088388 
L 160.478592 206.529206 
L 160.842144 206.529206 
L 160.935734 205.410841 
L 161.274605 205.410841 
L 161.365878 203.733295 
L 162.424973 203.733295 
L 162.481943 202.055748 
L 162.59532 202.055748 
L 162.59532 201.496566 
L 162.721982 201.496566 
L 162.750003 200.378201 
L 162.875536 200.378201 
L 162.875536 198.700655 
L 163.01395 198.700655 
L 163.089606 194.786379 
L 163.15126 194.786379 
L 163.233124 193.108832 
L 163.27391 193.108832 
L 163.314599 191.990468 
L 163.422636 191.990468 
L 163.503221 187.51701 
L 163.543373 187.51701 
L 163.630047 184.721099 
L 163.703048 184.721099 
L 163.769144 182.48437 
L 163.874373 182.48437 
L 163.965923 180.806823 
L 164.056989 180.806823 
L 164.07644 179.688458 
L 164.263347 179.688458 
L 164.327329 178.010912 
L 164.391074 178.010912 
L 164.479923 174.655818 
L 164.606059 174.655818 
L 164.606059 172.978271 
L 164.837 172.978271 
L 164.837 172.419089 
L 164.979011 172.419089 
L 165.089339 170.741543 
L 165.198963 170.741543 
L 165.307893 169.623178 
L 165.422132 169.623178 
L 165.49986 168.504814 
L 165.618761 168.504814 
L 165.725074 167.386449 
L 166.172582 167.386449 
L 166.172582 166.827267 
L 166.631104 166.827267 
L 166.631104 166.268085 
L 167.11578 166.268085 
L 167.224055 164.590538 
L 167.353092 164.590538 
L 167.459889 161.794627 
L 167.52365 161.794627 
L 167.52365 161.235444 
L 167.682027 161.235444 
L 167.776358 159.557898 
L 168.056286 159.557898 
L 168.056286 158.439533 
L 168.209856 158.439533 
L 168.250578 157.321169 
L 168.382262 157.321169 
L 168.402431 155.643622 
L 168.682354 155.643622 
L 168.79109 152.847711 
L 168.855021 152.847711 
L 168.918715 150.610982 
L 168.996786 150.610982 
L 169.064809 148.374253 
L 169.142221 148.374253 
L 169.248098 147.255888 
L 169.267278 147.255888 
L 169.334242 145.578342 
L 169.400946 145.578342 
L 169.448434 143.900795 
L 169.599521 143.900795 
L 169.69328 142.223248 
L 169.809766 142.223248 
L 169.897771 139.986519 
L 170.035815 139.986519 
L 170.035815 139.427337 
L 170.150012 139.427337 
L 170.150012 138.868155 
L 170.295087 138.868155 
L 170.308625 137.190608 
L 170.612669 137.190608 
L 170.648088 136.072244 
L 170.859086 136.072244 
L 170.954935 134.953879 
L 171.123548 134.953879 
L 171.123548 134.394697 
L 171.544288 134.394697 
L 171.628051 132.71715 
L 172.138472 132.71715 
L 172.138472 132.157968 
L 172.303963 132.157968 
L 172.303963 131.598786 
L 172.443987 131.598786 
L 172.523492 129.362057 
L 172.783282 129.362057 
L 172.884556 127.125328 
L 172.915598 127.125328 
L 172.985238 126.006963 
L 173.031508 126.006963 
L 173.131336 122.092688 
L 173.142817 122.092688 
L 173.234394 119.855959 
L 173.276204 119.855959 
L 173.314125 118.737594 
L 173.416097 118.737594 
L 173.46498 117.060047 
L 173.547389 117.060047 
L 173.647992 114.264136 
L 173.722135 114.264136 
L 173.829078 113.145772 
L 173.884134 113.145772 
L 173.968212 112.027407 
L 174.088132 112.027407 
L 174.088132 111.468225 
L 174.371863 111.468225 
L 174.371863 110.909043 
L 174.527886 110.909043 
L 174.527886 110.349861 
L 175.021972 110.349861 
L 175.110922 108.672314 
L 175.165432 108.672314 
L 175.260412 107.553949 
L 175.334673 107.553949 
L 175.375044 106.435585 
L 175.555552 106.435585 
L 175.555552 105.876403 
L 175.694648 105.876403 
L 175.793319 104.758038 
L 175.881642 104.758038 
L 175.881642 104.198856 
L 176.111757 104.198856 
L 176.208071 101.962127 
L 176.259219 101.962127 
L 176.357887 99.725398 
L 176.421245 99.725398 
L 176.421245 99.166216 
L 176.540986 99.166216 
L 176.6443 94.133576 
L 176.687944 94.133576 
L 176.765604 93.015211 
L 176.836744 93.015211 
L 176.83983 91.896847 
L 177.069743 91.896847 
L 177.179019 89.660118 
L 177.275574 89.660118 
L 177.275574 89.100935 
L 177.395511 89.100935 
L 177.478972 87.423389 
L 178.023345 87.423389 
L 178.034865 86.305024 
L 178.297714 86.305024 
L 178.345848 85.18666 
L 178.410756 85.18666 
L 178.500658 84.068295 
L 178.556608 84.068295 
L 178.556608 83.509113 
L 178.921389 83.509113 
L 179.005948 82.390748 
L 179.095507 82.390748 
L 179.165742 81.272384 
L 179.246428 81.272384 
L 179.246428 80.713202 
L 179.364087 80.713202 
L 179.411989 79.594837 
L 179.549629 79.594837 
L 179.610158 78.476473 
L 179.704475 78.476473 
L 179.704475 77.917291 
L 179.868295 77.917291 
L 179.868295 77.358108 
L 180.14555 77.358108 
L 180.244582 76.239744 
L 180.272412 76.239744 
L 180.272412 75.680562 
L 180.563177 75.680562 
L 180.657369 74.562197 
L 180.72152 74.562197 
L 180.765793 73.443833 
L 181.043572 73.443833 
L 181.125557 72.325468 
L 181.197575 72.325468 
L 181.197575 71.766286 
L 181.316937 71.766286 
L 181.421296 68.970375 
L 181.506212 68.970375 
L 181.548513 67.85201 
L 181.965902 67.85201 
L 181.965902 67.292828 
L 182.091444 67.292828 
L 182.093718 66.174463 
L 182.880439 66.174463 
L 182.880439 65.615281 
L 183.076995 65.615281 
L 183.076995 65.056099 
L 183.364512 65.056099 
L 183.444584 63.378552 
L 183.561909 63.378552 
L 183.638991 62.260188 
L 183.730209 62.260188 
L 183.779761 60.023459 
L 183.862032 60.023459 
L 183.96432 57.78673 
L 184.025403 57.78673 
L 184.102464 55.550001 
L 184.20736 55.550001 
L 184.20736 54.990819 
L 184.983946 54.990819 
L 185.081707 53.872454 
L 185.247204 53.872454 
L 185.356657 52.194907 
L 185.379216 52.194907 
L 185.405497 51.076543 
L 185.629134 51.076543 
L 185.719623 49.398996 
L 185.8371 49.398996 
L 185.944694 48.280632 
L 185.951964 48.280632 
L 185.951964 47.72145 
L 186.06426 47.72145 
L 186.136323 46.043903 
L 186.448094 46.043903 
L 186.448094 45.484721 
L 186.632481 45.484721 
L 186.695247 44.366356 
L 186.783776 44.366356 
L 186.866682 42.688809 
L 187.012524 42.688809 
L 187.012524 42.129627 
L 187.234897 42.129627 
L 187.263545 41.011263 
L 187.359254 41.011263 
L 187.359254 40.45208 
L 187.64158 40.45208 
L 187.718824 38.774534 
L 187.826712 38.774534 
L 187.8869 37.656169 
L 188.181531 37.656169 
L 188.248445 36.537805 
L 188.365712 36.537805 
L 188.395692 35.41944 
L 188.483753 35.41944 
L 188.483753 34.860258 
L 188.666296 34.860258 
L 188.666296 34.301076 
L 188.783841 34.301076 
L 188.783841 33.741894 
L 188.981539 33.741894 
L 189.059076 32.064347 
L 189.166441 32.064347 
L 189.193554 30.945982 
L 189.341918 30.945982 
L 189.341918 30.3868 
L 189.729953 30.3868 
L 189.729953 29.827618 
L 190.065133 29.827618 
L 190.066564 28.709253 
L 190.200521 28.709253 
L 190.226054 27.590889 
L 190.364405 27.590889 
L 190.364405 27.031707 
L 190.687563 27.031707 
L 190.687563 26.472524 
L 190.921926 26.472524 
L 190.921926 25.913342 
L 191.110107 25.913342 
L 191.209457 24.794978 
L 191.2322 24.794978 
L 191.2322 24.235795 
L 191.648259 24.235795 
L 191.67955 23.117431 
L 191.800268 23.117431 
L 191.882854 21.999066 
L 192.484953 21.999066 
L 192.561849 20.880702 
L 192.864826 20.880702 
L 192.924302 19.762337 
L 193.266215 19.762337 
L 193.312479 18.643973 
L 193.386952 18.643973 
L 193.386952 18.084791 
L 193.585149 18.084791 
L 193.585149 17.525609 
L 193.753399 17.525609 
L 193.753399 16.966426 
L 195.128746 16.966426 
L 195.128746 16.407244 
L 196.767576 16.407244 
L 196.767576 15.848062 
L 198.113884 15.848062 
L 198.113884 15.28888 
L 198.420321 15.28888 
L 198.420321 14.729697 
L 199.177259 14.729697 
L 199.192417 13.611333 
L 200.515586 13.611333 
L 200.515586 13.052151 
L 201.222599 13.052151 
L 201.222599 12.492968 
L 202.145179 12.492968 
L 202.145179 11.933786 
L 202.762141 11.933786 
L 202.762141 11.374604 
L 203.6031 11.374604 
L 203.6031 10.815422 
L 205.886072 10.815422 
L 205.971993 9.697057 
L 333.429677 9.697057 
L 333.429677 9.697057 
" style="fill:none;stroke:#ff00ff;stroke-linecap:square;stroke-width:1.5;"/>
   </g>
   <g id="line2d_30">
    <defs>
     <path d="M -0 8.485281 
L 5.091169 0 
L 0 -8.485281 
L -5.091169 -0 
z
" id="m4b84bc6db3" style="stroke:#ff00ff;stroke-linejoin:miter;stroke-width:1.5;"/>
    </defs>
    <g>
     <use style="fill-opacity:0;stroke:#ff00ff;stroke-linejoin:miter;stroke-width:1.5;" x="124.493143" xlink:href="#m4b84bc6db3" y="274.749439"/>
     <use style="fill-opacity:0;stroke:#ff00ff;stroke-linejoin:miter;stroke-width:1.5;" x="172.138472" xlink:href="#m4b84bc6db3" y="132.157968"/>
     <use style="fill-opacity:0;stroke:#ff00ff;stroke-linejoin:miter;stroke-width:1.5;" x="202.762141" xlink:href="#m4b84bc6db3" y="11.933786"/>
     <use style="fill-opacity:0;stroke:#ff00ff;stroke-linejoin:miter;stroke-width:1.5;" x="205.971993" xlink:href="#m4b84bc6db3" y="9.697057"/>
     <use style="fill-opacity:0;stroke:#ff00ff;stroke-linejoin:miter;stroke-width:1.5;" x="205.971993" xlink:href="#m4b84bc6db3" y="9.697057"/>
     <use style="fill-opacity:0;stroke:#ff00ff;stroke-linejoin:miter;stroke-width:1.5;" x="333.429677" xlink:href="#m4b84bc6db3" y="9.697057"/>
    </g>
   </g>
   <g id="line2d_31">
    <path style="fill:none;stroke:#ff00ff;stroke-linecap:square;stroke-width:1.5;"/>
    <g/>
   </g>
   <g id="line2d_32">
    <path clip-path="url(#pb044e7be7e)" d="M 146.929256 259.092337 
" style="fill:none;stroke:#ff00ff;stroke-linecap:square;stroke-width:1.5;"/>
    <defs>
     <path d="M -12 12 
L 12 -12 
M -12 -12 
L 12 12 
" id="mf79ff30fae" style="stroke:#ff00ff;stroke-width:3;"/>
    </defs>
    <g clip-path="url(#pb044e7be7e)">
     <use style="fill:#ff00ff;stroke:#ff00ff;stroke-width:3;" x="146.929256" xlink:href="#mf79ff30fae" y="259.092337"/>
    </g>
   </g>
   <g id="line2d_33">
    <defs>
     <path d="M 0 1.5 
C 0.397805 1.5 0.77937 1.341951 1.06066 1.06066 
C 1.341951 0.77937 1.5 0.397805 1.5 0 
C 1.5 -0.397805 1.341951 -0.77937 1.06066 -1.06066 
C 0.77937 -1.341951 0.397805 -1.5 0 -1.5 
C -0.397805 -1.5 -0.77937 -1.341951 -1.06066 -1.06066 
C -1.341951 -0.77937 -1.5 -0.397805 -1.5 0 
C -1.5 0.397805 -1.341951 0.77937 -1.06066 1.06066 
C -0.77937 1.341951 -0.397805 1.5 0 1.5 
z
" id="m31817385f7" style="stroke:#ffa500;"/>
    </defs>
    <g>
     <use style="fill:#ffa500;stroke:#ffa500;" x="201.410819" xlink:href="#m31817385f7" y="149.492617"/>
     <use style="fill:#ffa500;stroke:#ffa500;" x="201.410819" xlink:href="#m31817385f7" y="149.492617"/>
    </g>
   </g>
   <g id="line2d_34">
    <path d="M 40.355341 294.88 
L 40.355341 286.492266 
L 101.524628 286.492266 
L 101.524628 285.933084 
L 107.313588 285.933084 
L 107.313588 285.373902 
L 108.001874 285.373902 
L 108.001874 284.81472 
L 109.300972 284.81472 
L 109.300972 283.696355 
L 109.915496 283.696355 
L 109.915496 282.577991 
L 110.508826 282.577991 
L 110.508826 281.459626 
L 110.797991 281.459626 
L 110.797991 280.900444 
L 111.362135 280.900444 
L 111.362135 280.341262 
L 111.637419 280.341262 
L 111.637419 279.782079 
L 111.908367 279.782079 
L 111.908367 277.545351 
L 112.696514 277.545351 
L 112.696514 275.867804 
L 113.450132 275.867804 
L 113.450132 275.308622 
L 114.406204 275.308622 
L 114.406204 274.749439 
L 128.306406 274.749439 
L 128.306406 274.190257 
L 129.603619 274.190257 
L 129.603619 273.631075 
L 133.073598 273.631075 
L 133.073598 273.071893 
L 133.614919 273.071893 
L 133.614919 271.953528 
L 136.288798 271.953528 
L 136.288798 271.394346 
L 137.725974 271.394346 
L 137.725974 270.275981 
L 140.641569 270.275981 
L 140.641569 269.157617 
L 140.792711 269.157617 
L 140.792711 268.598435 
L 141.041701 268.598435 
L 141.041701 268.039252 
L 141.23833 268.039252 
L 141.23833 267.48007 
L 141.862285 267.48007 
L 141.862285 266.920888 
L 143.133935 266.920888 
L 143.133935 265.802523 
L 144.029558 265.802523 
L 144.029558 265.243341 
L 144.80157 265.243341 
L 144.80157 264.684159 
L 145.349044 264.684159 
L 145.349044 264.124977 
L 145.729698 264.124977 
L 145.729698 263.565795 
L 145.879633 263.565795 
L 145.954113 262.44743 
L 146.212283 262.44743 
L 146.212283 261.329066 
L 146.574504 261.329066 
L 146.574504 260.210701 
L 146.752794 260.210701 
L 146.858888 258.533154 
L 146.929256 258.533154 
L 146.929256 257.973972 
L 147.276841 257.973972 
L 147.276841 257.41479 
L 147.785396 257.41479 
L 147.885328 254.618879 
L 147.91851 254.618879 
L 147.91851 254.059696 
L 148.083467 254.059696 
L 148.116269 252.941332 
L 149.010229 252.941332 
L 149.010229 252.38215 
L 149.272669 252.38215 
L 149.379579 250.145421 
L 150.527977 250.145421 
L 150.584853 249.027056 
L 150.669815 249.027056 
L 150.726225 246.231145 
L 153.514596 246.231145 
L 153.514596 245.671963 
L 153.97531 245.671963 
L 153.97531 245.112781 
L 154.367132 245.112781 
L 154.458043 243.994416 
L 154.927601 243.994416 
L 154.927601 243.435234 
L 155.233668 243.435234 
L 155.233668 242.876052 
L 155.36319 242.876052 
L 155.449 241.757687 
L 156.037977 241.757687 
L 156.037977 241.198505 
L 156.385976 241.198505 
L 156.436564 239.520958 
L 156.687295 239.520958 
L 156.697248 238.402594 
L 157.042047 238.402594 
L 157.042047 236.725047 
L 157.178054 236.725047 
L 157.178054 236.165865 
L 157.427822 236.165865 
L 157.427822 235.606682 
L 157.560826 235.606682 
L 157.598639 233.929136 
L 157.692809 233.929136 
L 157.786467 232.810771 
L 158.174354 232.810771 
L 158.265434 231.133225 
L 158.319851 231.133225 
L 158.319851 230.574042 
L 158.951048 230.574042 
L 159.029431 228.337313 
L 159.610385 228.337313 
L 159.635569 226.659767 
L 159.827431 226.659767 
L 159.827431 226.100584 
L 160.017178 226.100584 
L 160.017178 225.541402 
L 160.204854 225.541402 
L 160.204854 224.98222 
L 160.716561 224.98222 
L 160.771616 223.304673 
L 161.236432 223.304673 
L 161.297469 222.186309 
L 161.711339 222.186309 
L 161.711339 221.627126 
L 162.15176 221.627126 
L 162.238508 220.508762 
L 162.417839 220.508762 
L 162.417839 219.94958 
L 162.60944 219.94958 
L 162.60944 219.390397 
L 163.44954 219.390397 
L 163.44954 218.831215 
L 163.676538 218.831215 
L 163.676538 218.272033 
L 163.90058 218.272033 
L 163.90058 217.712851 
L 164.037515 217.712851 
L 164.037515 217.153669 
L 164.448244 217.153669 
L 164.448244 216.594486 
L 164.562017 216.594486 
L 164.562017 216.035304 
L 164.700058 216.035304 
L 164.700058 215.476122 
L 165.186817 215.476122 
L 165.192891 214.357757 
L 165.958998 214.357757 
L 165.958998 213.798575 
L 166.195514 213.798575 
L 166.195514 213.239393 
L 166.406201 213.239393 
L 166.490884 212.121028 
L 166.51902 212.121028 
L 166.51902 211.561846 
L 166.858619 211.561846 
L 166.968519 209.884299 
L 167.050486 209.884299 
L 167.055937 208.765935 
L 167.175416 208.765935 
L 167.175416 208.206753 
L 167.326289 208.206753 
L 167.406573 206.529206 
L 167.566027 206.529206 
L 167.650468 205.410841 
L 167.973818 205.410841 
L 167.973818 204.851659 
L 168.20476 204.851659 
L 168.20476 204.292477 
L 168.497916 204.292477 
L 168.497916 203.733295 
L 168.721974 203.733295 
L 168.721974 203.174112 
L 169.045401 203.174112 
L 169.137393 202.055748 
L 169.300793 202.055748 
L 169.300793 201.496566 
L 169.90239 201.496566 
L 169.90239 200.937384 
L 170.32666 200.937384 
L 170.32666 200.378201 
L 170.70549 200.378201 
L 170.797812 199.259837 
L 171.324577 199.259837 
L 171.345825 198.141472 
L 171.636405 198.141472 
L 171.636405 197.58229 
L 172.004106 197.58229 
L 172.024532 196.463926 
L 172.118181 196.463926 
L 172.118181 195.904743 
L 172.324036 195.904743 
L 172.324036 195.345561 
L 172.701046 195.345561 
L 172.701046 194.786379 
L 172.861238 194.786379 
L 172.861238 194.227197 
L 173.196296 194.227197 
L 173.196296 193.668014 
L 173.524953 193.668014 
L 173.621966 192.54965 
L 173.792276 192.54965 
L 173.792276 191.990468 
L 174.015553 191.990468 
L 174.091753 190.872103 
L 174.239559 190.872103 
L 174.346911 189.194556 
L 174.411002 189.194556 
L 174.446505 188.076192 
L 174.661503 188.076192 
L 174.661503 187.51701 
L 175.138199 187.51701 
L 175.172234 186.398645 
L 175.714428 186.398645 
L 175.783478 184.721099 
L 175.998704 184.721099 
L 175.998704 184.161916 
L 176.137493 184.161916 
L 176.227269 183.043552 
L 176.345187 183.043552 
L 176.345187 182.48437 
L 176.58176 182.48437 
L 176.67237 180.806823 
L 176.787287 180.806823 
L 176.867582 179.129276 
L 177.305637 179.129276 
L 177.305637 178.570094 
L 177.467073 178.570094 
L 177.467073 178.010912 
L 178.433275 178.010912 
L 178.458575 176.892547 
L 178.687381 176.892547 
L 178.687381 176.333365 
L 178.8721 176.333365 
L 178.94052 175.215 
L 179.531164 175.215 
L 179.531164 174.655818 
L 179.686176 174.655818 
L 179.686176 174.096636 
L 180.545769 174.096636 
L 180.545769 173.537454 
L 180.758422 173.537454 
L 180.758422 172.978271 
L 180.927158 172.978271 
L 180.927158 172.419089 
L 181.252584 172.419089 
L 181.252584 171.859907 
L 181.557899 171.859907 
L 181.557899 171.300725 
L 181.712036 171.300725 
L 181.712036 170.741543 
L 182.036775 170.741543 
L 182.036775 170.18236 
L 182.635402 170.18236 
L 182.686007 169.063996 
L 183.179774 169.063996 
L 183.179774 168.504814 
L 183.326453 168.504814 
L 183.356062 167.386449 
L 183.785945 167.386449 
L 183.816832 166.268085 
L 184.321611 166.268085 
L 184.415252 165.14972 
L 184.504432 165.14972 
L 184.504432 164.590538 
L 184.92618 164.590538 
L 184.92618 164.031356 
L 186.161473 164.031356 
L 186.161473 163.472173 
L 186.648194 163.472173 
L 186.724807 161.794627 
L 187.152055 161.794627 
L 187.152055 161.235444 
L 188.035651 161.235444 
L 188.035651 160.676262 
L 188.618118 160.676262 
L 188.728262 158.998715 
L 189.010466 158.998715 
L 189.010466 158.439533 
L 190.745422 158.439533 
L 190.745422 157.880351 
L 190.917842 157.880351 
L 190.917842 157.321169 
L 191.297584 157.321169 
L 191.297584 156.761987 
L 192.635939 156.761987 
L 192.685155 155.643622 
L 192.943678 155.643622 
L 192.943678 155.08444 
L 194.580726 155.08444 
L 194.580726 154.525258 
L 195.392148 154.525258 
L 195.392148 153.966075 
L 196.067379 153.966075 
L 196.067379 153.406893 
L 196.842037 153.406893 
L 196.896951 152.288529 
L 198.052836 152.288529 
L 198.052836 151.729346 
L 198.259345 151.729346 
L 198.259345 151.170164 
L 198.821454 151.170164 
L 198.821454 150.610982 
L 201.194899 150.610982 
L 201.194899 150.0518 
L 201.410819 150.0518 
L 201.410819 149.492617 
L 333.429677 149.492617 
L 333.429677 149.492617 
" style="fill:none;stroke:#ffa500;stroke-linecap:square;stroke-width:1.5;"/>
   </g>
   <g id="line2d_35">
    <defs>
     <path d="M 0 -6 
L -1.347084 -1.854102 
L -5.706339 -1.854102 
L -2.179628 0.708204 
L -3.526712 4.854102 
L -0 2.291796 
L 3.526712 4.854102 
L 2.179628 0.708204 
L 5.706339 -1.854102 
L 1.347084 -1.854102 
z
" id="m6542700b53" style="stroke:#ffa500;stroke-linejoin:bevel;stroke-width:1.5;"/>
    </defs>
    <g>
     <use style="fill-opacity:0;stroke:#ffa500;stroke-linejoin:bevel;stroke-width:1.5;" x="112.696514" xlink:href="#m6542700b53" y="277.545351"/>
     <use style="fill-opacity:0;stroke:#ffa500;stroke-linejoin:bevel;stroke-width:1.5;" x="168.20476" xlink:href="#m6542700b53" y="204.292477"/>
     <use style="fill-opacity:0;stroke:#ffa500;stroke-linejoin:bevel;stroke-width:1.5;" x="201.410819" xlink:href="#m6542700b53" y="150.0518"/>
     <use style="fill-opacity:0;stroke:#ffa500;stroke-linejoin:bevel;stroke-width:1.5;" x="201.410819" xlink:href="#m6542700b53" y="149.492617"/>
     <use style="fill-opacity:0;stroke:#ffa500;stroke-linejoin:bevel;stroke-width:1.5;" x="201.410819" xlink:href="#m6542700b53" y="149.492617"/>
     <use style="fill-opacity:0;stroke:#ffa500;stroke-linejoin:bevel;stroke-width:1.5;" x="333.429677" xlink:href="#m6542700b53" y="149.492617"/>
    </g>
   </g>
   <g id="line2d_36">
    <path style="fill:none;stroke:#ffa500;stroke-linecap:square;stroke-width:1.5;"/>
    <g/>
   </g>
   <g id="line2d_37">
    <path clip-path="url(#pb044e7be7e)" d="M 144.521159 265.243341 
" style="fill:none;stroke:#ffa500;stroke-linecap:square;stroke-width:1.5;"/>
    <defs>
     <path d="M -12 12 
L 12 -12 
M -12 -12 
L 12 12 
" id="md536eace59" style="stroke:#ffa500;stroke-width:3;"/>
    </defs>
    <g clip-path="url(#pb044e7be7e)">
     <use style="fill:#ffa500;stroke:#ffa500;stroke-width:3;" x="144.521159" xlink:href="#md536eace59" y="265.243341"/>
    </g>
   </g>
   <g id="line2d_38">
    <defs>
     <path d="M 0 1.5 
C 0.397805 1.5 0.77937 1.341951 1.06066 1.06066 
C 1.341951 0.77937 1.5 0.397805 1.5 0 
C 1.5 -0.397805 1.341951 -0.77937 1.06066 -1.06066 
C 0.77937 -1.341951 0.397805 -1.5 0 -1.5 
C -0.397805 -1.5 -0.77937 -1.341951 -1.06066 -1.06066 
C -1.341951 -0.77937 -1.5 -0.397805 -1.5 0 
C -1.5 0.397805 -1.341951 0.77937 -1.06066 1.06066 
C -0.77937 1.341951 -0.397805 1.5 0 1.5 
z
" id="m4dd60abc69" style="stroke:#6495ed;"/>
    </defs>
    <g>
     <use style="fill:#6495ed;stroke:#6495ed;" x="190.52117" xlink:href="#m4dd60abc69" y="250.145421"/>
     <use style="fill:#6495ed;stroke:#6495ed;" x="190.52117" xlink:href="#m4dd60abc69" y="250.145421"/>
    </g>
   </g>
   <g id="line2d_39">
    <path d="M 40.355341 294.88 
L 40.355341 269.716799 
L 83.107827 269.716799 
L 83.107827 269.157617 
L 88.057358 269.157617 
L 88.057358 268.039252 
L 93.536312 268.039252 
L 93.536312 267.48007 
L 94.301099 267.48007 
L 94.301099 266.920888 
L 118.613392 266.920888 
L 118.613392 265.802523 
L 120.67015 265.802523 
L 120.67015 265.243341 
L 120.750735 265.243341 
L 120.750735 264.124977 
L 128.35815 264.124977 
L 128.35815 263.565795 
L 129.842248 263.565795 
L 129.842248 263.006612 
L 132.55522 263.006612 
L 132.55522 262.44743 
L 133.42354 262.44743 
L 133.42354 261.888248 
L 140.127953 261.888248 
L 140.127953 261.329066 
L 144.561499 261.329066 
L 144.561499 260.769883 
L 147.086539 260.769883 
L 147.086539 260.210701 
L 148.696263 260.210701 
L 148.696263 259.651519 
L 151.84364 259.651519 
L 151.84364 259.092337 
L 154.783626 259.092337 
L 154.783626 258.533154 
L 155.352434 258.533154 
L 155.352434 257.973972 
L 157.081016 257.973972 
L 157.081016 257.41479 
L 165.859968 257.41479 
L 165.859968 256.855608 
L 166.586358 256.855608 
L 166.586358 256.296425 
L 168.825544 256.296425 
L 168.825544 255.737243 
L 170.665771 255.737243 
L 170.665771 255.178061 
L 171.506461 255.178061 
L 171.506461 254.618879 
L 175.518935 254.618879 
L 175.518935 254.059696 
L 176.515847 254.059696 
L 176.515847 253.500514 
L 178.836413 253.500514 
L 178.836413 252.941332 
L 179.044 252.941332 
L 179.044 252.38215 
L 183.726073 252.38215 
L 183.726073 251.822967 
L 185.64764 251.822967 
L 185.64764 251.263785 
L 190.254379 251.263785 
L 190.254379 250.704603 
L 190.52117 250.704603 
L 190.52117 250.145421 
L 333.429677 250.145421 
" style="fill:none;stroke:#6495ed;stroke-linecap:square;stroke-width:1.5;"/>
   </g>
   <g id="line2d_40">
    <defs>
     <path d="M -0 6 
L 6 -6 
L -6 -6 
z
" id="m749ace7b20" style="stroke:#6495ed;stroke-linejoin:miter;stroke-width:1.5;"/>
    </defs>
    <g>
     <use style="fill-opacity:0;stroke:#6495ed;stroke-linejoin:miter;stroke-width:1.5;" x="94.301099" xlink:href="#m749ace7b20" y="266.920888"/>
     <use style="fill-opacity:0;stroke:#6495ed;stroke-linejoin:miter;stroke-width:1.5;" x="179.044" xlink:href="#m749ace7b20" y="252.941332"/>
     <use style="fill-opacity:0;stroke:#6495ed;stroke-linejoin:miter;stroke-width:1.5;" x="190.52117" xlink:href="#m749ace7b20" y="250.704603"/>
     <use style="fill-opacity:0;stroke:#6495ed;stroke-linejoin:miter;stroke-width:1.5;" x="190.52117" xlink:href="#m749ace7b20" y="250.145421"/>
     <use style="fill-opacity:0;stroke:#6495ed;stroke-linejoin:miter;stroke-width:1.5;" x="190.52117" xlink:href="#m749ace7b20" y="250.145421"/>
     <use style="fill-opacity:0;stroke:#6495ed;stroke-linejoin:miter;stroke-width:1.5;" x="333.429677" xlink:href="#m749ace7b20" y="250.145421"/>
    </g>
   </g>
   <g id="line2d_41">
    <path style="fill:none;stroke:#6495ed;stroke-linecap:square;stroke-width:1.5;"/>
    <g/>
   </g>
   <g id="line2d_42">
    <path clip-path="url(#pb044e7be7e)" d="M 122.287906 264.124977 
" style="fill:none;stroke:#6495ed;stroke-linecap:square;stroke-width:1.5;"/>
    <defs>
     <path d="M -12 12 
L 12 -12 
M -12 -12 
L 12 12 
" id="m73b6b8a705" style="stroke:#6495ed;stroke-width:3;"/>
    </defs>
    <g clip-path="url(#pb044e7be7e)">
     <use style="fill:#6495ed;stroke:#6495ed;stroke-width:3;" x="122.287906" xlink:href="#m73b6b8a705" y="264.124977"/>
    </g>
   </g>
   <g id="line2d_43">
    <defs>
     <path d="M 0 1.5 
C 0.397805 1.5 0.77937 1.341951 1.06066 1.06066 
C 1.341951 0.77937 1.5 0.397805 1.5 0 
C 1.5 -0.397805 1.341951 -0.77937 1.06066 -1.06066 
C 0.77937 -1.341951 0.397805 -1.5 0 -1.5 
C -0.397805 -1.5 -0.77937 -1.341951 -1.06066 -1.06066 
C -1.341951 -0.77937 -1.5 -0.397805 -1.5 0 
C -1.5 0.397805 -1.341951 0.77937 -1.06066 1.06066 
C -0.77937 1.341951 -0.397805 1.5 0 1.5 
z
" id="m31fb5065ee" style="stroke:#ff0000;"/>
    </defs>
    <g>
     <use style="fill:#ff0000;stroke:#ff0000;" x="146.999337" xlink:href="#m31fb5065ee" y="278.104533"/>
     <use style="fill:#ff0000;stroke:#ff0000;" x="146.999337" xlink:href="#m31fb5065ee" y="278.104533"/>
    </g>
   </g>
   <g id="line2d_44">
    <path d="M 40.355341 294.88 
L 40.355341 287.610631 
L 94.301099 287.610631 
L 94.301099 287.051449 
L 95.735668 287.051449 
L 95.735668 286.492266 
L 97.059773 286.492266 
L 97.059773 285.933084 
L 99.436631 285.933084 
L 99.436631 285.373902 
L 102.009304 285.373902 
L 102.009304 284.81472 
L 115.089931 284.81472 
L 115.089931 283.137173 
L 124.100619 283.137173 
L 124.100619 282.577991 
L 125.498092 282.577991 
L 125.498092 282.018808 
L 126.56265 282.018808 
L 126.56265 281.459626 
L 132.595654 281.459626 
L 132.595654 279.782079 
L 139.652212 279.782079 
L 139.652212 279.222897 
L 142.780095 279.222897 
L 142.780095 278.663715 
L 146.999337 278.663715 
L 146.999337 278.104533 
L 333.429677 278.104533 
" style="fill:none;stroke:#ff0000;stroke-linecap:square;stroke-width:1.5;"/>
   </g>
   <g id="line2d_45">
    <defs>
     <path d="M 0 -6 
L -5.196152 -3 
L -5.196152 3 
L -0 6 
L 5.196152 3 
L 5.196152 -3 
z
" id="m421585b284" style="stroke:#ff0000;stroke-linejoin:miter;stroke-width:1.5;"/>
    </defs>
    <g>
     <use style="fill-opacity:0;stroke:#ff0000;stroke-linejoin:miter;stroke-width:1.5;" x="102.009304" xlink:href="#m421585b284" y="285.373902"/>
     <use style="fill-opacity:0;stroke:#ff0000;stroke-linejoin:miter;stroke-width:1.5;" x="146.999337" xlink:href="#m421585b284" y="278.663715"/>
     <use style="fill-opacity:0;stroke:#ff0000;stroke-linejoin:miter;stroke-width:1.5;" x="146.999337" xlink:href="#m421585b284" y="278.663715"/>
     <use style="fill-opacity:0;stroke:#ff0000;stroke-linejoin:miter;stroke-width:1.5;" x="146.999337" xlink:href="#m421585b284" y="278.104533"/>
     <use style="fill-opacity:0;stroke:#ff0000;stroke-linejoin:miter;stroke-width:1.5;" x="146.999337" xlink:href="#m421585b284" y="278.104533"/>
     <use style="fill-opacity:0;stroke:#ff0000;stroke-linejoin:miter;stroke-width:1.5;" x="333.429677" xlink:href="#m421585b284" y="278.104533"/>
    </g>
   </g>
   <g id="line2d_46">
    <path style="fill:none;stroke:#ff0000;stroke-linecap:square;stroke-width:1.5;"/>
    <g/>
   </g>
   <g id="line2d_47">
    <path clip-path="url(#pb044e7be7e)" d="M 135.003752 279.782079 
" style="fill:none;stroke:#ff0000;stroke-linecap:square;stroke-width:1.5;"/>
    <defs>
     <path d="M -12 12 
L 12 -12 
M -12 -12 
L 12 12 
" id="me57802aa38" style="stroke:#ff0000;stroke-width:3;"/>
    </defs>
    <g clip-path="url(#pb044e7be7e)">
     <use style="fill:#ff0000;stroke:#ff0000;stroke-width:3;" x="135.003752" xlink:href="#me57802aa38" y="279.782079"/>
    </g>
   </g>
   <g id="line2d_48">
    <path d="M 333.429677 278.104533 
L 363.933742 289.176341 
" style="fill:none;stroke:#ff0000;stroke-linecap:square;stroke-width:1.5;"/>
    <g>
     <use style="fill-opacity:0;stroke:#ff0000;stroke-linejoin:miter;stroke-width:1.5;" x="333.429677" xlink:href="#m421585b284" y="278.104533"/>
     <use style="fill-opacity:0;stroke:#ff0000;stroke-linejoin:miter;stroke-width:1.5;" x="363.933742" xlink:href="#m421585b284" y="289.176341"/>
    </g>
   </g>
   <g id="line2d_49">
    <path d="M 333.429677 250.145421 
L 363.933742 220.732435 
" style="fill:none;stroke:#6495ed;stroke-linecap:square;stroke-width:1.5;"/>
    <g>
     <use style="fill-opacity:0;stroke:#6495ed;stroke-linejoin:miter;stroke-width:1.5;" x="333.429677" xlink:href="#m749ace7b20" y="250.145421"/>
     <use style="fill-opacity:0;stroke:#6495ed;stroke-linejoin:miter;stroke-width:1.5;" x="363.933742" xlink:href="#m749ace7b20" y="220.732435"/>
    </g>
   </g>
   <g id="line2d_50">
    <path d="M 333.429677 238.961776 
L 363.933742 152.288529 
" style="fill:none;stroke:#000080;stroke-linecap:square;stroke-width:1.5;"/>
    <g>
     <use style="fill-opacity:0;stroke:#000080;stroke-width:1.5;" x="333.429677" xlink:href="#m56a03adece" y="238.961776"/>
     <use style="fill-opacity:0;stroke:#000080;stroke-width:1.5;" x="363.933742" xlink:href="#m56a03adece" y="152.288529"/>
    </g>
   </g>
   <g id="line2d_51">
    <path d="M 333.429677 149.492617 
L 363.933742 83.844622 
" style="fill:none;stroke:#ffa500;stroke-linecap:square;stroke-width:1.5;"/>
    <g>
     <use style="fill-opacity:0;stroke:#ffa500;stroke-linejoin:bevel;stroke-width:1.5;" x="333.429677" xlink:href="#m6542700b53" y="149.492617"/>
     <use style="fill-opacity:0;stroke:#ffa500;stroke-linejoin:bevel;stroke-width:1.5;" x="363.933742" xlink:href="#m6542700b53" y="83.844622"/>
    </g>
   </g>
   <g id="line2d_52">
    <path d="M 333.429677 9.697057 
L 363.933742 15.400716 
" style="fill:none;stroke:#ff00ff;stroke-linecap:square;stroke-width:1.5;"/>
    <g>
     <use style="fill-opacity:0;stroke:#ff00ff;stroke-linejoin:miter;stroke-width:1.5;" x="333.429677" xlink:href="#m4b84bc6db3" y="9.697057"/>
     <use style="fill-opacity:0;stroke:#ff00ff;stroke-linejoin:miter;stroke-width:1.5;" x="363.933742" xlink:href="#m4b84bc6db3" y="15.400716"/>
    </g>
   </g>
   <g id="line2d_53">
    <path d="M 333.429677 294.88 
L 333.429677 9.697057 
" style="fill:none;stroke:#000000;stroke-linecap:square;stroke-width:1.5;"/>
   </g>
   <g id="patch_3">
    <path d="M 56.12 294.88 
L 56.12 6.845228 
" style="fill:none;stroke:#000000;stroke-linecap:square;stroke-linejoin:miter;stroke-width:0.8;"/>
   </g>
   <g id="patch_4">
    <path d="M 399.984 294.88 
L 399.984 6.845228 
" style="fill:none;stroke:#000000;stroke-linecap:square;stroke-linejoin:miter;stroke-width:0.8;"/>
   </g>
   <g id="patch_5">
    <path d="M 56.12 294.88 
L 399.984 294.88 
" style="fill:none;stroke:#000000;stroke-linecap:square;stroke-linejoin:miter;stroke-width:0.8;"/>
   </g>
   <g id="patch_6">
    <path d="M 56.12 6.845228 
L 399.984 6.845228 
" style="fill:none;stroke:#000000;stroke-linecap:square;stroke-linejoin:miter;stroke-width:0.8;"/>
   </g>
   <g id="text_14">
    <!-- f24 -->
    <g transform="translate(369.479935 293.867279)scale(0.17 -0.17)">
     <use xlink:href="#DejaVuSans-66"/>
     <use x="35.205078" xlink:href="#DejaVuSans-32"/>
     <use x="98.828125" xlink:href="#DejaVuSans-34"/>
    </g>
   </g>
   <g id="text_15">
    <!-- f23 -->
    <defs>
     <path d="M 40.578125 39.3125 
Q 47.65625 37.796875 51.625 33 
Q 55.609375 28.21875 55.609375 21.1875 
Q 55.609375 10.40625 48.1875 4.484375 
Q 40.765625 -1.421875 27.09375 -1.421875 
Q 22.515625 -1.421875 17.65625 -0.515625 
Q 12.796875 0.390625 7.625 2.203125 
L 7.625 11.71875 
Q 11.71875 9.328125 16.59375 8.109375 
Q 21.484375 6.890625 26.8125 6.890625 
Q 36.078125 6.890625 40.9375 10.546875 
Q 45.796875 14.203125 45.796875 21.1875 
Q 45.796875 27.640625 41.28125 31.265625 
Q 36.765625 34.90625 28.71875 34.90625 
L 20.21875 34.90625 
L 20.21875 43.015625 
L 29.109375 43.015625 
Q 36.375 43.015625 40.234375 45.921875 
Q 44.09375 48.828125 44.09375 54.296875 
Q 44.09375 59.90625 40.109375 62.90625 
Q 36.140625 65.921875 28.71875 65.921875 
Q 24.65625 65.921875 20.015625 65.03125 
Q 15.375 64.15625 9.8125 62.3125 
L 9.8125 71.09375 
Q 15.4375 72.65625 20.34375 73.4375 
Q 25.25 74.21875 29.59375 74.21875 
Q 40.828125 74.21875 47.359375 69.109375 
Q 53.90625 64.015625 53.90625 55.328125 
Q 53.90625 49.265625 50.4375 45.09375 
Q 46.96875 40.921875 40.578125 39.3125 
z
" id="DejaVuSans-33"/>
    </defs>
    <g transform="translate(369.479935 225.423372)scale(0.17 -0.17)">
     <use xlink:href="#DejaVuSans-66"/>
     <use x="35.205078" xlink:href="#DejaVuSans-32"/>
     <use x="98.828125" xlink:href="#DejaVuSans-33"/>
    </g>
   </g>
   <g id="text_16">
    <!-- f20 -->
    <g transform="translate(369.479935 156.979466)scale(0.17 -0.17)">
     <use xlink:href="#DejaVuSans-66"/>
     <use x="35.205078" xlink:href="#DejaVuSans-32"/>
     <use x="98.828125" xlink:href="#DejaVuSans-30"/>
    </g>
   </g>
   <g id="text_17">
    <!-- f22 -->
    <g transform="translate(369.479935 88.53556)scale(0.17 -0.17)">
     <use xlink:href="#DejaVuSans-66"/>
     <use x="35.205078" xlink:href="#DejaVuSans-32"/>
     <use x="98.828125" xlink:href="#DejaVuSans-32"/>
    </g>
   </g>
   <g id="text_18">
    <!-- f21 -->
    <g transform="translate(369.479935 20.091654)scale(0.17 -0.17)">
     <use xlink:href="#DejaVuSans-66"/>
     <use x="35.205078" xlink:href="#DejaVuSans-32"/>
     <use x="98.828125" xlink:href="#DejaVuSans-31"/>
    </g>
   </g>
   <g id="text_19">
    <!-- bbob -->
    <defs>
     <path d="M 48.6875 27.296875 
Q 48.6875 37.203125 44.609375 42.84375 
Q 40.53125 48.484375 33.40625 48.484375 
Q 26.265625 48.484375 22.1875 42.84375 
Q 18.109375 37.203125 18.109375 27.296875 
Q 18.109375 17.390625 22.1875 11.75 
Q 26.265625 6.109375 33.40625 6.109375 
Q 40.53125 6.109375 44.609375 11.75 
Q 48.6875 17.390625 48.6875 27.296875 
z
M 18.109375 46.390625 
Q 20.953125 51.265625 25.265625 53.625 
Q 29.59375 56 35.59375 56 
Q 45.5625 56 51.78125 48.09375 
Q 58.015625 40.1875 58.015625 27.296875 
Q 58.015625 14.40625 51.78125 6.484375 
Q 45.5625 -1.421875 35.59375 -1.421875 
Q 29.59375 -1.421875 25.265625 0.953125 
Q 20.953125 3.328125 18.109375 8.203125 
L 18.109375 0 
L 9.078125 0 
L 9.078125 75.984375 
L 18.109375 75.984375 
z
" id="DejaVuSans-62"/>
    </defs>
    <g transform="translate(59.55864 17.475982)scale(0.102 -0.102)">
     <use xlink:href="#DejaVuSans-62"/>
     <use x="63.476562" xlink:href="#DejaVuSans-62"/>
     <use x="126.953125" xlink:href="#DejaVuSans-6f"/>
     <use x="188.134766" xlink:href="#DejaVuSans-62"/>
    </g>
    <!-- Weak structure functions, 5-D -->
    <defs>
     <path d="M 3.328125 72.90625 
L 13.28125 72.90625 
L 28.609375 11.28125 
L 43.890625 72.90625 
L 54.984375 72.90625 
L 70.3125 11.28125 
L 85.59375 72.90625 
L 95.609375 72.90625 
L 77.296875 0 
L 64.890625 0 
L 49.515625 63.28125 
L 33.984375 0 
L 21.578125 0 
z
" id="DejaVuSans-57"/>
     <path d="M 9.078125 75.984375 
L 18.109375 75.984375 
L 18.109375 31.109375 
L 44.921875 54.6875 
L 56.390625 54.6875 
L 27.390625 29.109375 
L 57.625 0 
L 45.90625 0 
L 18.109375 26.703125 
L 18.109375 0 
L 9.078125 0 
z
" id="DejaVuSans-6b"/>
     <path d="M 10.796875 72.90625 
L 49.515625 72.90625 
L 49.515625 64.59375 
L 19.828125 64.59375 
L 19.828125 46.734375 
Q 21.96875 47.46875 24.109375 47.828125 
Q 26.265625 48.1875 28.421875 48.1875 
Q 40.625 48.1875 47.75 41.5 
Q 54.890625 34.8125 54.890625 23.390625 
Q 54.890625 11.625 47.5625 5.09375 
Q 40.234375 -1.421875 26.90625 -1.421875 
Q 22.3125 -1.421875 17.546875 -0.640625 
Q 12.796875 0.140625 7.71875 1.703125 
L 7.71875 11.625 
Q 12.109375 9.234375 16.796875 8.0625 
Q 21.484375 6.890625 26.703125 6.890625 
Q 35.15625 6.890625 40.078125 11.328125 
Q 45.015625 15.765625 45.015625 23.390625 
Q 45.015625 31 40.078125 35.4375 
Q 35.15625 39.890625 26.703125 39.890625 
Q 22.75 39.890625 18.8125 39.015625 
Q 14.890625 38.140625 10.796875 36.28125 
z
" id="DejaVuSans-35"/>
     <path d="M 19.671875 64.796875 
L 19.671875 8.109375 
L 31.59375 8.109375 
Q 46.6875 8.109375 53.6875 14.9375 
Q 60.6875 21.78125 60.6875 36.53125 
Q 60.6875 51.171875 53.6875 57.984375 
Q 46.6875 64.796875 31.59375 64.796875 
z
M 9.8125 72.90625 
L 30.078125 72.90625 
Q 51.265625 72.90625 61.171875 64.09375 
Q 71.09375 55.28125 71.09375 36.53125 
Q 71.09375 17.671875 61.125 8.828125 
Q 51.171875 0 30.078125 0 
L 9.8125 0 
z
" id="DejaVuSans-44"/>
    </defs>
    <g transform="translate(59.55864 28.89775)scale(0.102 -0.102)">
     <use xlink:href="#DejaVuSans-57"/>
     <use x="98.798828" xlink:href="#DejaVuSans-65"/>
     <use x="160.322266" xlink:href="#DejaVuSans-61"/>
     <use x="221.601562" xlink:href="#DejaVuSans-6b"/>
     <use x="279.511719" xlink:href="#DejaVuSans-20"/>
     <use x="311.298828" xlink:href="#DejaVuSans-73"/>
     <use x="363.398438" xlink:href="#DejaVuSans-74"/>
     <use x="402.607422" xlink:href="#DejaVuSans-72"/>
     <use x="443.720703" xlink:href="#DejaVuSans-75"/>
     <use x="507.099609" xlink:href="#DejaVuSans-63"/>
     <use x="562.080078" xlink:href="#DejaVuSans-74"/>
     <use x="601.289062" xlink:href="#DejaVuSans-75"/>
     <use x="664.667969" xlink:href="#DejaVuSans-72"/>
     <use x="705.75" xlink:href="#DejaVuSans-65"/>
     <use x="767.273438" xlink:href="#DejaVuSans-20"/>
     <use x="799.060547" xlink:href="#DejaVuSans-66"/>
     <use x="834.265625" xlink:href="#DejaVuSans-75"/>
     <use x="897.644531" xlink:href="#DejaVuSans-6e"/>
     <use x="961.023438" xlink:href="#DejaVuSans-63"/>
     <use x="1016.003906" xlink:href="#DejaVuSans-74"/>
     <use x="1055.212891" xlink:href="#DejaVuSans-69"/>
     <use x="1082.996094" xlink:href="#DejaVuSans-6f"/>
     <use x="1144.177734" xlink:href="#DejaVuSans-6e"/>
     <use x="1207.556641" xlink:href="#DejaVuSans-73"/>
     <use x="1259.65625" xlink:href="#DejaVuSans-2c"/>
     <use x="1291.443359" xlink:href="#DejaVuSans-20"/>
     <use x="1323.230469" xlink:href="#DejaVuSans-35"/>
     <use x="1386.853516" xlink:href="#DejaVuSans-2d"/>
     <use x="1422.9375" xlink:href="#DejaVuSans-44"/>
    </g>
    <!-- 51 targets: 100..1e-08 -->
    <defs>
     <path d="M 11.71875 12.40625 
L 22.015625 12.40625 
L 22.015625 0 
L 11.71875 0 
z
M 11.71875 51.703125 
L 22.015625 51.703125 
L 22.015625 39.3125 
L 11.71875 39.3125 
z
" id="DejaVuSans-3a"/>
    </defs>
    <g transform="translate(59.55864 40.319519)scale(0.102 -0.102)">
     <use xlink:href="#DejaVuSans-35"/>
     <use x="63.623047" xlink:href="#DejaVuSans-31"/>
     <use x="127.246094" xlink:href="#DejaVuSans-20"/>
     <use x="159.033203" xlink:href="#DejaVuSans-74"/>
     <use x="198.242188" xlink:href="#DejaVuSans-61"/>
     <use x="259.521484" xlink:href="#DejaVuSans-72"/>
     <use x="300.619141" xlink:href="#DejaVuSans-67"/>
     <use x="364.095703" xlink:href="#DejaVuSans-65"/>
     <use x="425.619141" xlink:href="#DejaVuSans-74"/>
     <use x="464.828125" xlink:href="#DejaVuSans-73"/>
     <use x="516.927734" xlink:href="#DejaVuSans-3a"/>
     <use x="550.619141" xlink:href="#DejaVuSans-20"/>
     <use x="582.40625" xlink:href="#DejaVuSans-31"/>
     <use x="646.029297" xlink:href="#DejaVuSans-30"/>
     <use x="709.652344" xlink:href="#DejaVuSans-30"/>
     <use x="773.275391" xlink:href="#DejaVuSans-2e"/>
     <use x="805.0625" xlink:href="#DejaVuSans-2e"/>
     <use x="836.849609" xlink:href="#DejaVuSans-31"/>
     <use x="900.472656" xlink:href="#DejaVuSans-65"/>
     <use x="961.996094" xlink:href="#DejaVuSans-2d"/>
     <use x="998.080078" xlink:href="#DejaVuSans-30"/>
     <use x="1061.703125" xlink:href="#DejaVuSans-38"/>
    </g>
    <!-- 15 instances -->
    <g transform="translate(59.55864 51.741288)scale(0.102 -0.102)">
     <use xlink:href="#DejaVuSans-31"/>
     <use x="63.623047" xlink:href="#DejaVuSans-35"/>
     <use x="127.246094" xlink:href="#DejaVuSans-20"/>
     <use x="159.033203" xlink:href="#DejaVuSans-69"/>
     <use x="186.816406" xlink:href="#DejaVuSans-6e"/>
     <use x="250.195312" xlink:href="#DejaVuSans-73"/>
     <use x="302.294922" xlink:href="#DejaVuSans-74"/>
     <use x="341.503906" xlink:href="#DejaVuSans-61"/>
     <use x="402.783203" xlink:href="#DejaVuSans-6e"/>
     <use x="466.162109" xlink:href="#DejaVuSans-63"/>
     <use x="521.142578" xlink:href="#DejaVuSans-65"/>
     <use x="582.666016" xlink:href="#DejaVuSans-73"/>
    </g>
   </g>
   <g id="text_20">
    <!-- v2.2.1.10 -->
    <g style="fill:#808080;" transform="translate(204.419188 289.919965)scale(0.1 -0.1)">
     <use xlink:href="#DejaVuSans-76"/>
     <use x="59.179688" xlink:href="#DejaVuSans-32"/>
     <use x="122.802734" xlink:href="#DejaVuSans-2e"/>
     <use x="154.589844" xlink:href="#DejaVuSans-32"/>
     <use x="218.212891" xlink:href="#DejaVuSans-2e"/>
     <use x="250" xlink:href="#DejaVuSans-31"/>
     <use x="313.623047" xlink:href="#DejaVuSans-2e"/>
     <use x="345.410156" xlink:href="#DejaVuSans-31"/>
     <use x="409.033203" xlink:href="#DejaVuSans-30"/>
    </g>
   </g>
  </g>
 </g>
 <defs>
  <clipPath id="pb044e7be7e">
   <rect height="288.034772" width="343.864" x="56.12" y="6.845228"/>
  </clipPath>
 </defs>
</svg>
