<?xml version="1.0" encoding="utf-8" standalone="no"?>
<!DOCTYPE svg PUBLIC "-//W3C//DTD SVG 1.1//EN"
  "http://www.w3.org/Graphics/SVG/1.1/DTD/svg11.dtd">
<!-- Created with matplotlib (http://matplotlib.org/) -->
<svg height="345.6pt" version="1.1" viewBox="0 0 460.8 345.6" width="460.8pt" xmlns="http://www.w3.org/2000/svg" xmlns:xlink="http://www.w3.org/1999/xlink">
 <defs>
  <style type="text/css">
*{stroke-linecap:butt;stroke-linejoin:round;}
  </style>
 </defs>
 <g id="figure_1">
  <g id="patch_1">
   <path d="M 0 345.6 
L 460.8 345.6 
L 460.8 0 
L 0 0 
z
" style="fill:#ffffff;"/>
  </g>
  <g id="axes_1">
   <g id="patch_2">
    <path d="M 56.12 294.88 
L 399.984 294.88 
L 399.984 6.845228 
L 56.12 6.845228 
z
" style="fill:#ffffff;"/>
   </g>
   <g id="matplotlib.axis_1">
    <g id="xtick_1">
     <g id="line2d_1">
      <path clip-path="url(#p53f1d51673)" d="M 56.12 294.88 
L 56.12 6.845228 
" style="fill:none;stroke:#b0b0b0;stroke-linecap:square;stroke-width:0.8;"/>
     </g>
     <g id="line2d_2">
      <defs>
       <path d="M 0 0 
L 0 3.5 
" id="m84e2f31c2f" style="stroke:#000000;stroke-width:0.8;"/>
      </defs>
      <g>
       <use style="stroke:#000000;stroke-width:0.8;" x="56.12" xlink:href="#m84e2f31c2f" y="294.88"/>
      </g>
     </g>
     <g id="text_1">
      <!-- 0 -->
      <defs>
       <path d="M 31.78125 66.40625 
Q 24.171875 66.40625 20.328125 58.90625 
Q 16.5 51.421875 16.5 36.375 
Q 16.5 21.390625 20.328125 13.890625 
Q 24.171875 6.390625 31.78125 6.390625 
Q 39.453125 6.390625 43.28125 13.890625 
Q 47.125 21.390625 47.125 36.375 
Q 47.125 51.421875 43.28125 58.90625 
Q 39.453125 66.40625 31.78125 66.40625 
z
M 31.78125 74.21875 
Q 44.046875 74.21875 50.515625 64.515625 
Q 56.984375 54.828125 56.984375 36.375 
Q 56.984375 17.96875 50.515625 8.265625 
Q 44.046875 -1.421875 31.78125 -1.421875 
Q 19.53125 -1.421875 13.0625 8.265625 
Q 6.59375 17.96875 6.59375 36.375 
Q 6.59375 54.828125 13.0625 64.515625 
Q 19.53125 74.21875 31.78125 74.21875 
z
" id="DejaVuSans-30"/>
      </defs>
      <g transform="translate(49.7575 317.076875)scale(0.2 -0.2)">
       <use xlink:href="#DejaVuSans-30"/>
      </g>
     </g>
    </g>
    <g id="xtick_2">
     <g id="line2d_3">
      <path clip-path="url(#p53f1d51673)" d="M 135.351336 294.88 
L 135.351336 6.845228 
" style="fill:none;stroke:#b0b0b0;stroke-linecap:square;stroke-width:0.8;"/>
     </g>
     <g id="line2d_4">
      <g>
       <use style="stroke:#000000;stroke-width:0.8;" x="135.351336" xlink:href="#m84e2f31c2f" y="294.88"/>
      </g>
     </g>
     <g id="text_2">
      <!-- 2 -->
      <defs>
       <path d="M 19.1875 8.296875 
L 53.609375 8.296875 
L 53.609375 0 
L 7.328125 0 
L 7.328125 8.296875 
Q 12.9375 14.109375 22.625 23.890625 
Q 32.328125 33.6875 34.8125 36.53125 
Q 39.546875 41.84375 41.421875 45.53125 
Q 43.3125 49.21875 43.3125 52.78125 
Q 43.3125 58.59375 39.234375 62.25 
Q 35.15625 65.921875 28.609375 65.921875 
Q 23.96875 65.921875 18.8125 64.3125 
Q 13.671875 62.703125 7.8125 59.421875 
L 7.8125 69.390625 
Q 13.765625 71.78125 18.9375 73 
Q 24.125 74.21875 28.421875 74.21875 
Q 39.75 74.21875 46.484375 68.546875 
Q 53.21875 62.890625 53.21875 53.421875 
Q 53.21875 48.921875 51.53125 44.890625 
Q 49.859375 40.875 45.40625 35.40625 
Q 44.1875 33.984375 37.640625 27.21875 
Q 31.109375 20.453125 19.1875 8.296875 
z
" id="DejaVuSans-32"/>
      </defs>
      <g transform="translate(128.988836 317.076875)scale(0.2 -0.2)">
       <use xlink:href="#DejaVuSans-32"/>
      </g>
     </g>
    </g>
    <g id="xtick_3">
     <g id="line2d_5">
      <path clip-path="url(#p53f1d51673)" d="M 214.582673 294.88 
L 214.582673 6.845228 
" style="fill:none;stroke:#b0b0b0;stroke-linecap:square;stroke-width:0.8;"/>
     </g>
     <g id="line2d_6">
      <g>
       <use style="stroke:#000000;stroke-width:0.8;" x="214.582673" xlink:href="#m84e2f31c2f" y="294.88"/>
      </g>
     </g>
     <g id="text_3">
      <!-- 4 -->
      <defs>
       <path d="M 37.796875 64.3125 
L 12.890625 25.390625 
L 37.796875 25.390625 
z
M 35.203125 72.90625 
L 47.609375 72.90625 
L 47.609375 25.390625 
L 58.015625 25.390625 
L 58.015625 17.1875 
L 47.609375 17.1875 
L 47.609375 0 
L 37.796875 0 
L 37.796875 17.1875 
L 4.890625 17.1875 
L 4.890625 26.703125 
z
" id="DejaVuSans-34"/>
      </defs>
      <g transform="translate(208.220173 317.076875)scale(0.2 -0.2)">
       <use xlink:href="#DejaVuSans-34"/>
      </g>
     </g>
    </g>
    <g id="xtick_4">
     <g id="line2d_7">
      <path clip-path="url(#p53f1d51673)" d="M 293.814009 294.88 
L 293.814009 6.845228 
" style="fill:none;stroke:#b0b0b0;stroke-linecap:square;stroke-width:0.8;"/>
     </g>
     <g id="line2d_8">
      <g>
       <use style="stroke:#000000;stroke-width:0.8;" x="293.814009" xlink:href="#m84e2f31c2f" y="294.88"/>
      </g>
     </g>
     <g id="text_4">
      <!-- 6 -->
      <defs>
       <path d="M 33.015625 40.375 
Q 26.375 40.375 22.484375 35.828125 
Q 18.609375 31.296875 18.609375 23.390625 
Q 18.609375 15.53125 22.484375 10.953125 
Q 26.375 6.390625 33.015625 6.390625 
Q 39.65625 6.390625 43.53125 10.953125 
Q 47.40625 15.53125 47.40625 23.390625 
Q 47.40625 31.296875 43.53125 35.828125 
Q 39.65625 40.375 33.015625 40.375 
z
M 52.59375 71.296875 
L 52.59375 62.3125 
Q 48.875 64.0625 45.09375 64.984375 
Q 41.3125 65.921875 37.59375 65.921875 
Q 27.828125 65.921875 22.671875 59.328125 
Q 17.53125 52.734375 16.796875 39.40625 
Q 19.671875 43.65625 24.015625 45.921875 
Q 28.375 48.1875 33.59375 48.1875 
Q 44.578125 48.1875 50.953125 41.515625 
Q 57.328125 34.859375 57.328125 23.390625 
Q 57.328125 12.15625 50.6875 5.359375 
Q 44.046875 -1.421875 33.015625 -1.421875 
Q 20.359375 -1.421875 13.671875 8.265625 
Q 6.984375 17.96875 6.984375 36.375 
Q 6.984375 53.65625 15.1875 63.9375 
Q 23.390625 74.21875 37.203125 74.21875 
Q 40.921875 74.21875 44.703125 73.484375 
Q 48.484375 72.75 52.59375 71.296875 
z
" id="DejaVuSans-36"/>
      </defs>
      <g transform="translate(287.451509 317.076875)scale(0.2 -0.2)">
       <use xlink:href="#DejaVuSans-36"/>
      </g>
     </g>
    </g>
    <g id="xtick_5">
     <g id="line2d_9">
      <path clip-path="url(#p53f1d51673)" d="M 373.045346 294.88 
L 373.045346 6.845228 
" style="fill:none;stroke:#b0b0b0;stroke-linecap:square;stroke-width:0.8;"/>
     </g>
     <g id="line2d_10">
      <g>
       <use style="stroke:#000000;stroke-width:0.8;" x="373.045346" xlink:href="#m84e2f31c2f" y="294.88"/>
      </g>
     </g>
     <g id="text_5">
      <!-- 8 -->
      <defs>
       <path d="M 31.78125 34.625 
Q 24.75 34.625 20.71875 30.859375 
Q 16.703125 27.09375 16.703125 20.515625 
Q 16.703125 13.921875 20.71875 10.15625 
Q 24.75 6.390625 31.78125 6.390625 
Q 38.8125 6.390625 42.859375 10.171875 
Q 46.921875 13.96875 46.921875 20.515625 
Q 46.921875 27.09375 42.890625 30.859375 
Q 38.875 34.625 31.78125 34.625 
z
M 21.921875 38.8125 
Q 15.578125 40.375 12.03125 44.71875 
Q 8.5 49.078125 8.5 55.328125 
Q 8.5 64.0625 14.71875 69.140625 
Q 20.953125 74.21875 31.78125 74.21875 
Q 42.671875 74.21875 48.875 69.140625 
Q 55.078125 64.0625 55.078125 55.328125 
Q 55.078125 49.078125 51.53125 44.71875 
Q 48 40.375 41.703125 38.8125 
Q 48.828125 37.15625 52.796875 32.3125 
Q 56.78125 27.484375 56.78125 20.515625 
Q 56.78125 9.90625 50.3125 4.234375 
Q 43.84375 -1.421875 31.78125 -1.421875 
Q 19.734375 -1.421875 13.25 4.234375 
Q 6.78125 9.90625 6.78125 20.515625 
Q 6.78125 27.484375 10.78125 32.3125 
Q 14.796875 37.15625 21.921875 38.8125 
z
M 18.3125 54.390625 
Q 18.3125 48.734375 21.84375 45.5625 
Q 25.390625 42.390625 31.78125 42.390625 
Q 38.140625 42.390625 41.71875 45.5625 
Q 45.3125 48.734375 45.3125 54.390625 
Q 45.3125 60.0625 41.71875 63.234375 
Q 38.140625 66.40625 31.78125 66.40625 
Q 25.390625 66.40625 21.84375 63.234375 
Q 18.3125 60.0625 18.3125 54.390625 
z
" id="DejaVuSans-38"/>
      </defs>
      <g transform="translate(366.682846 317.076875)scale(0.2 -0.2)">
       <use xlink:href="#DejaVuSans-38"/>
      </g>
     </g>
    </g>
    <g id="text_6">
     <!-- log10(# f-evals / dimension) -->
     <defs>
      <path d="M 9.421875 75.984375 
L 18.40625 75.984375 
L 18.40625 0 
L 9.421875 0 
z
" id="DejaVuSans-6c"/>
      <path d="M 30.609375 48.390625 
Q 23.390625 48.390625 19.1875 42.75 
Q 14.984375 37.109375 14.984375 27.296875 
Q 14.984375 17.484375 19.15625 11.84375 
Q 23.34375 6.203125 30.609375 6.203125 
Q 37.796875 6.203125 41.984375 11.859375 
Q 46.1875 17.53125 46.1875 27.296875 
Q 46.1875 37.015625 41.984375 42.703125 
Q 37.796875 48.390625 30.609375 48.390625 
z
M 30.609375 56 
Q 42.328125 56 49.015625 48.375 
Q 55.71875 40.765625 55.71875 27.296875 
Q 55.71875 13.875 49.015625 6.21875 
Q 42.328125 -1.421875 30.609375 -1.421875 
Q 18.84375 -1.421875 12.171875 6.21875 
Q 5.515625 13.875 5.515625 27.296875 
Q 5.515625 40.765625 12.171875 48.375 
Q 18.84375 56 30.609375 56 
z
" id="DejaVuSans-6f"/>
      <path d="M 45.40625 27.984375 
Q 45.40625 37.75 41.375 43.109375 
Q 37.359375 48.484375 30.078125 48.484375 
Q 22.859375 48.484375 18.828125 43.109375 
Q 14.796875 37.75 14.796875 27.984375 
Q 14.796875 18.265625 18.828125 12.890625 
Q 22.859375 7.515625 30.078125 7.515625 
Q 37.359375 7.515625 41.375 12.890625 
Q 45.40625 18.265625 45.40625 27.984375 
z
M 54.390625 6.78125 
Q 54.390625 -7.171875 48.1875 -13.984375 
Q 42 -20.796875 29.203125 -20.796875 
Q 24.46875 -20.796875 20.265625 -20.09375 
Q 16.0625 -19.390625 12.109375 -17.921875 
L 12.109375 -9.1875 
Q 16.0625 -11.328125 19.921875 -12.34375 
Q 23.78125 -13.375 27.78125 -13.375 
Q 36.625 -13.375 41.015625 -8.765625 
Q 45.40625 -4.15625 45.40625 5.171875 
L 45.40625 9.625 
Q 42.625 4.78125 38.28125 2.390625 
Q 33.9375 0 27.875 0 
Q 17.828125 0 11.671875 7.65625 
Q 5.515625 15.328125 5.515625 27.984375 
Q 5.515625 40.671875 11.671875 48.328125 
Q 17.828125 56 27.875 56 
Q 33.9375 56 38.28125 53.609375 
Q 42.625 51.21875 45.40625 46.390625 
L 45.40625 54.6875 
L 54.390625 54.6875 
z
" id="DejaVuSans-67"/>
      <path d="M 12.40625 8.296875 
L 28.515625 8.296875 
L 28.515625 63.921875 
L 10.984375 60.40625 
L 10.984375 69.390625 
L 28.421875 72.90625 
L 38.28125 72.90625 
L 38.28125 8.296875 
L 54.390625 8.296875 
L 54.390625 0 
L 12.40625 0 
z
" id="DejaVuSans-31"/>
      <path d="M 31 75.875 
Q 24.46875 64.65625 21.28125 53.65625 
Q 18.109375 42.671875 18.109375 31.390625 
Q 18.109375 20.125 21.3125 9.0625 
Q 24.515625 -2 31 -13.1875 
L 23.1875 -13.1875 
Q 15.875 -1.703125 12.234375 9.375 
Q 8.59375 20.453125 8.59375 31.390625 
Q 8.59375 42.28125 12.203125 53.3125 
Q 15.828125 64.359375 23.1875 75.875 
z
" id="DejaVuSans-28"/>
      <path d="M 51.125 44 
L 36.921875 44 
L 32.8125 27.6875 
L 47.125 27.6875 
z
M 43.796875 71.78125 
L 38.71875 51.515625 
L 52.984375 51.515625 
L 58.109375 71.78125 
L 65.921875 71.78125 
L 60.890625 51.515625 
L 76.125 51.515625 
L 76.125 44 
L 58.984375 44 
L 54.984375 27.6875 
L 70.515625 27.6875 
L 70.515625 20.21875 
L 53.078125 20.21875 
L 48 0 
L 40.1875 0 
L 45.21875 20.21875 
L 30.90625 20.21875 
L 25.875 0 
L 18.015625 0 
L 23.09375 20.21875 
L 7.71875 20.21875 
L 7.71875 27.6875 
L 24.90625 27.6875 
L 29 44 
L 13.28125 44 
L 13.28125 51.515625 
L 30.90625 51.515625 
L 35.890625 71.78125 
z
" id="DejaVuSans-23"/>
      <path id="DejaVuSans-20"/>
      <path d="M 37.109375 75.984375 
L 37.109375 68.5 
L 28.515625 68.5 
Q 23.6875 68.5 21.796875 66.546875 
Q 19.921875 64.59375 19.921875 59.515625 
L 19.921875 54.6875 
L 34.71875 54.6875 
L 34.71875 47.703125 
L 19.921875 47.703125 
L 19.921875 0 
L 10.890625 0 
L 10.890625 47.703125 
L 2.296875 47.703125 
L 2.296875 54.6875 
L 10.890625 54.6875 
L 10.890625 58.5 
Q 10.890625 67.625 15.140625 71.796875 
Q 19.390625 75.984375 28.609375 75.984375 
z
" id="DejaVuSans-66"/>
      <path d="M 4.890625 31.390625 
L 31.203125 31.390625 
L 31.203125 23.390625 
L 4.890625 23.390625 
z
" id="DejaVuSans-2d"/>
      <path d="M 56.203125 29.59375 
L 56.203125 25.203125 
L 14.890625 25.203125 
Q 15.484375 15.921875 20.484375 11.0625 
Q 25.484375 6.203125 34.421875 6.203125 
Q 39.59375 6.203125 44.453125 7.46875 
Q 49.3125 8.734375 54.109375 11.28125 
L 54.109375 2.78125 
Q 49.265625 0.734375 44.1875 -0.34375 
Q 39.109375 -1.421875 33.890625 -1.421875 
Q 20.796875 -1.421875 13.15625 6.1875 
Q 5.515625 13.8125 5.515625 26.8125 
Q 5.515625 40.234375 12.765625 48.109375 
Q 20.015625 56 32.328125 56 
Q 43.359375 56 49.78125 48.890625 
Q 56.203125 41.796875 56.203125 29.59375 
z
M 47.21875 32.234375 
Q 47.125 39.59375 43.09375 43.984375 
Q 39.0625 48.390625 32.421875 48.390625 
Q 24.90625 48.390625 20.390625 44.140625 
Q 15.875 39.890625 15.1875 32.171875 
z
" id="DejaVuSans-65"/>
      <path d="M 2.984375 54.6875 
L 12.5 54.6875 
L 29.59375 8.796875 
L 46.6875 54.6875 
L 56.203125 54.6875 
L 35.6875 0 
L 23.484375 0 
z
" id="DejaVuSans-76"/>
      <path d="M 34.28125 27.484375 
Q 23.390625 27.484375 19.1875 25 
Q 14.984375 22.515625 14.984375 16.5 
Q 14.984375 11.71875 18.140625 8.90625 
Q 21.296875 6.109375 26.703125 6.109375 
Q 34.1875 6.109375 38.703125 11.40625 
Q 43.21875 16.703125 43.21875 25.484375 
L 43.21875 27.484375 
z
M 52.203125 31.203125 
L 52.203125 0 
L 43.21875 0 
L 43.21875 8.296875 
Q 40.140625 3.328125 35.546875 0.953125 
Q 30.953125 -1.421875 24.3125 -1.421875 
Q 15.921875 -1.421875 10.953125 3.296875 
Q 6 8.015625 6 15.921875 
Q 6 25.140625 12.171875 29.828125 
Q 18.359375 34.515625 30.609375 34.515625 
L 43.21875 34.515625 
L 43.21875 35.40625 
Q 43.21875 41.609375 39.140625 45 
Q 35.0625 48.390625 27.6875 48.390625 
Q 23 48.390625 18.546875 47.265625 
Q 14.109375 46.140625 10.015625 43.890625 
L 10.015625 52.203125 
Q 14.9375 54.109375 19.578125 55.046875 
Q 24.21875 56 28.609375 56 
Q 40.484375 56 46.34375 49.84375 
Q 52.203125 43.703125 52.203125 31.203125 
z
" id="DejaVuSans-61"/>
      <path d="M 44.28125 53.078125 
L 44.28125 44.578125 
Q 40.484375 46.53125 36.375 47.5 
Q 32.28125 48.484375 27.875 48.484375 
Q 21.1875 48.484375 17.84375 46.4375 
Q 14.5 44.390625 14.5 40.28125 
Q 14.5 37.15625 16.890625 35.375 
Q 19.28125 33.59375 26.515625 31.984375 
L 29.59375 31.296875 
Q 39.15625 29.25 43.1875 25.515625 
Q 47.21875 21.78125 47.21875 15.09375 
Q 47.21875 7.46875 41.1875 3.015625 
Q 35.15625 -1.421875 24.609375 -1.421875 
Q 20.21875 -1.421875 15.453125 -0.5625 
Q 10.6875 0.296875 5.421875 2 
L 5.421875 11.28125 
Q 10.40625 8.6875 15.234375 7.390625 
Q 20.0625 6.109375 24.8125 6.109375 
Q 31.15625 6.109375 34.5625 8.28125 
Q 37.984375 10.453125 37.984375 14.40625 
Q 37.984375 18.0625 35.515625 20.015625 
Q 33.0625 21.96875 24.703125 23.78125 
L 21.578125 24.515625 
Q 13.234375 26.265625 9.515625 29.90625 
Q 5.8125 33.546875 5.8125 39.890625 
Q 5.8125 47.609375 11.28125 51.796875 
Q 16.75 56 26.8125 56 
Q 31.78125 56 36.171875 55.265625 
Q 40.578125 54.546875 44.28125 53.078125 
z
" id="DejaVuSans-73"/>
      <path d="M 25.390625 72.90625 
L 33.6875 72.90625 
L 8.296875 -9.28125 
L 0 -9.28125 
z
" id="DejaVuSans-2f"/>
      <path d="M 45.40625 46.390625 
L 45.40625 75.984375 
L 54.390625 75.984375 
L 54.390625 0 
L 45.40625 0 
L 45.40625 8.203125 
Q 42.578125 3.328125 38.25 0.953125 
Q 33.9375 -1.421875 27.875 -1.421875 
Q 17.96875 -1.421875 11.734375 6.484375 
Q 5.515625 14.40625 5.515625 27.296875 
Q 5.515625 40.1875 11.734375 48.09375 
Q 17.96875 56 27.875 56 
Q 33.9375 56 38.25 53.625 
Q 42.578125 51.265625 45.40625 46.390625 
z
M 14.796875 27.296875 
Q 14.796875 17.390625 18.875 11.75 
Q 22.953125 6.109375 30.078125 6.109375 
Q 37.203125 6.109375 41.296875 11.75 
Q 45.40625 17.390625 45.40625 27.296875 
Q 45.40625 37.203125 41.296875 42.84375 
Q 37.203125 48.484375 30.078125 48.484375 
Q 22.953125 48.484375 18.875 42.84375 
Q 14.796875 37.203125 14.796875 27.296875 
z
" id="DejaVuSans-64"/>
      <path d="M 9.421875 54.6875 
L 18.40625 54.6875 
L 18.40625 0 
L 9.421875 0 
z
M 9.421875 75.984375 
L 18.40625 75.984375 
L 18.40625 64.59375 
L 9.421875 64.59375 
z
" id="DejaVuSans-69"/>
      <path d="M 52 44.1875 
Q 55.375 50.25 60.0625 53.125 
Q 64.75 56 71.09375 56 
Q 79.640625 56 84.28125 50.015625 
Q 88.921875 44.046875 88.921875 33.015625 
L 88.921875 0 
L 79.890625 0 
L 79.890625 32.71875 
Q 79.890625 40.578125 77.09375 44.375 
Q 74.3125 48.1875 68.609375 48.1875 
Q 61.625 48.1875 57.5625 43.546875 
Q 53.515625 38.921875 53.515625 30.90625 
L 53.515625 0 
L 44.484375 0 
L 44.484375 32.71875 
Q 44.484375 40.625 41.703125 44.40625 
Q 38.921875 48.1875 33.109375 48.1875 
Q 26.21875 48.1875 22.15625 43.53125 
Q 18.109375 38.875 18.109375 30.90625 
L 18.109375 0 
L 9.078125 0 
L 9.078125 54.6875 
L 18.109375 54.6875 
L 18.109375 46.1875 
Q 21.1875 51.21875 25.484375 53.609375 
Q 29.78125 56 35.6875 56 
Q 41.65625 56 45.828125 52.96875 
Q 50 49.953125 52 44.1875 
z
" id="DejaVuSans-6d"/>
      <path d="M 54.890625 33.015625 
L 54.890625 0 
L 45.90625 0 
L 45.90625 32.71875 
Q 45.90625 40.484375 42.875 44.328125 
Q 39.84375 48.1875 33.796875 48.1875 
Q 26.515625 48.1875 22.3125 43.546875 
Q 18.109375 38.921875 18.109375 30.90625 
L 18.109375 0 
L 9.078125 0 
L 9.078125 54.6875 
L 18.109375 54.6875 
L 18.109375 46.1875 
Q 21.34375 51.125 25.703125 53.5625 
Q 30.078125 56 35.796875 56 
Q 45.21875 56 50.046875 50.171875 
Q 54.890625 44.34375 54.890625 33.015625 
z
" id="DejaVuSans-6e"/>
      <path d="M 8.015625 75.875 
L 15.828125 75.875 
Q 23.140625 64.359375 26.78125 53.3125 
Q 30.421875 42.28125 30.421875 31.390625 
Q 30.421875 20.453125 26.78125 9.375 
Q 23.140625 -1.703125 15.828125 -13.1875 
L 8.015625 -13.1875 
Q 14.5 -2 17.703125 9.0625 
Q 20.90625 20.125 20.90625 31.390625 
Q 20.90625 42.671875 17.703125 53.65625 
Q 14.5 64.65625 8.015625 75.875 
z
" id="DejaVuSans-29"/>
     </defs>
     <g transform="translate(107.211219 338.153594)scale(0.17 -0.17)">
      <use xlink:href="#DejaVuSans-6c"/>
      <use x="27.783203" xlink:href="#DejaVuSans-6f"/>
      <use x="88.964844" xlink:href="#DejaVuSans-67"/>
      <use x="152.441406" xlink:href="#DejaVuSans-31"/>
      <use x="216.064453" xlink:href="#DejaVuSans-30"/>
      <use x="279.6875" xlink:href="#DejaVuSans-28"/>
      <use x="318.701172" xlink:href="#DejaVuSans-23"/>
      <use x="402.490234" xlink:href="#DejaVuSans-20"/>
      <use x="434.277344" xlink:href="#DejaVuSans-66"/>
      <use x="469.404297" xlink:href="#DejaVuSans-2d"/>
      <use x="505.488281" xlink:href="#DejaVuSans-65"/>
      <use x="567.011719" xlink:href="#DejaVuSans-76"/>
      <use x="626.191406" xlink:href="#DejaVuSans-61"/>
      <use x="687.470703" xlink:href="#DejaVuSans-6c"/>
      <use x="715.253906" xlink:href="#DejaVuSans-73"/>
      <use x="767.353516" xlink:href="#DejaVuSans-20"/>
      <use x="799.140625" xlink:href="#DejaVuSans-2f"/>
      <use x="832.832031" xlink:href="#DejaVuSans-20"/>
      <use x="864.619141" xlink:href="#DejaVuSans-64"/>
      <use x="928.095703" xlink:href="#DejaVuSans-69"/>
      <use x="955.878906" xlink:href="#DejaVuSans-6d"/>
      <use x="1053.291016" xlink:href="#DejaVuSans-65"/>
      <use x="1114.814453" xlink:href="#DejaVuSans-6e"/>
      <use x="1178.193359" xlink:href="#DejaVuSans-73"/>
      <use x="1230.292969" xlink:href="#DejaVuSans-69"/>
      <use x="1258.076172" xlink:href="#DejaVuSans-6f"/>
      <use x="1319.257812" xlink:href="#DejaVuSans-6e"/>
      <use x="1382.636719" xlink:href="#DejaVuSans-29"/>
     </g>
    </g>
   </g>
   <g id="matplotlib.axis_2">
    <g id="ytick_1">
     <g id="line2d_11">
      <path clip-path="url(#p53f1d51673)" d="M 56.12 294.88 
L 399.984 294.88 
" style="fill:none;stroke:#b0b0b0;stroke-linecap:square;stroke-width:0.8;"/>
     </g>
     <g id="line2d_12">
      <defs>
       <path d="M 0 0 
L -3.5 0 
" id="m2fcf50c5f0" style="stroke:#000000;stroke-width:0.8;"/>
      </defs>
      <g>
       <use style="stroke:#000000;stroke-width:0.8;" x="56.12" xlink:href="#m2fcf50c5f0" y="294.88"/>
      </g>
     </g>
     <g id="text_7">
      <!-- 0.0 -->
      <defs>
       <path d="M 10.6875 12.40625 
L 21 12.40625 
L 21 0 
L 10.6875 0 
z
" id="DejaVuSans-2e"/>
      </defs>
      <g transform="translate(23.675 300.95875)scale(0.16 -0.16)">
       <use xlink:href="#DejaVuSans-30"/>
       <use x="63.623047" xlink:href="#DejaVuSans-2e"/>
       <use x="95.410156" xlink:href="#DejaVuSans-30"/>
      </g>
     </g>
    </g>
    <g id="ytick_2">
     <g id="line2d_13">
      <path clip-path="url(#p53f1d51673)" d="M 56.12 237.843411 
L 399.984 237.843411 
" style="fill:none;stroke:#b0b0b0;stroke-linecap:square;stroke-width:0.8;"/>
     </g>
     <g id="line2d_14">
      <g>
       <use style="stroke:#000000;stroke-width:0.8;" x="56.12" xlink:href="#m2fcf50c5f0" y="237.843411"/>
      </g>
     </g>
     <g id="text_8">
      <!-- 0.2 -->
      <g transform="translate(23.675 243.922161)scale(0.16 -0.16)">
       <use xlink:href="#DejaVuSans-30"/>
       <use x="63.623047" xlink:href="#DejaVuSans-2e"/>
       <use x="95.410156" xlink:href="#DejaVuSans-32"/>
      </g>
     </g>
    </g>
    <g id="ytick_3">
     <g id="line2d_15">
      <path clip-path="url(#p53f1d51673)" d="M 56.12 180.806823 
L 399.984 180.806823 
" style="fill:none;stroke:#b0b0b0;stroke-linecap:square;stroke-width:0.8;"/>
     </g>
     <g id="line2d_16">
      <g>
       <use style="stroke:#000000;stroke-width:0.8;" x="56.12" xlink:href="#m2fcf50c5f0" y="180.806823"/>
      </g>
     </g>
     <g id="text_9">
      <!-- 0.4 -->
      <g transform="translate(23.675 186.885573)scale(0.16 -0.16)">
       <use xlink:href="#DejaVuSans-30"/>
       <use x="63.623047" xlink:href="#DejaVuSans-2e"/>
       <use x="95.410156" xlink:href="#DejaVuSans-34"/>
      </g>
     </g>
    </g>
    <g id="ytick_4">
     <g id="line2d_17">
      <path clip-path="url(#p53f1d51673)" d="M 56.12 123.770234 
L 399.984 123.770234 
" style="fill:none;stroke:#b0b0b0;stroke-linecap:square;stroke-width:0.8;"/>
     </g>
     <g id="line2d_18">
      <g>
       <use style="stroke:#000000;stroke-width:0.8;" x="56.12" xlink:href="#m2fcf50c5f0" y="123.770234"/>
      </g>
     </g>
     <g id="text_10">
      <!-- 0.6 -->
      <g transform="translate(23.675 129.848984)scale(0.16 -0.16)">
       <use xlink:href="#DejaVuSans-30"/>
       <use x="63.623047" xlink:href="#DejaVuSans-2e"/>
       <use x="95.410156" xlink:href="#DejaVuSans-36"/>
      </g>
     </g>
    </g>
    <g id="ytick_5">
     <g id="line2d_19">
      <path clip-path="url(#p53f1d51673)" d="M 56.12 66.733646 
L 399.984 66.733646 
" style="fill:none;stroke:#b0b0b0;stroke-linecap:square;stroke-width:0.8;"/>
     </g>
     <g id="line2d_20">
      <g>
       <use style="stroke:#000000;stroke-width:0.8;" x="56.12" xlink:href="#m2fcf50c5f0" y="66.733646"/>
      </g>
     </g>
     <g id="text_11">
      <!-- 0.8 -->
      <g transform="translate(23.675 72.812396)scale(0.16 -0.16)">
       <use xlink:href="#DejaVuSans-30"/>
       <use x="63.623047" xlink:href="#DejaVuSans-2e"/>
       <use x="95.410156" xlink:href="#DejaVuSans-38"/>
      </g>
     </g>
    </g>
    <g id="ytick_6">
     <g id="line2d_21">
      <path clip-path="url(#p53f1d51673)" d="M 56.12 9.697057 
L 399.984 9.697057 
" style="fill:none;stroke:#b0b0b0;stroke-linecap:square;stroke-width:0.8;"/>
     </g>
     <g id="line2d_22">
      <g>
       <use style="stroke:#000000;stroke-width:0.8;" x="56.12" xlink:href="#m2fcf50c5f0" y="9.697057"/>
      </g>
     </g>
     <g id="text_12">
      <!-- 1.0 -->
      <g transform="translate(23.675 15.775807)scale(0.16 -0.16)">
       <use xlink:href="#DejaVuSans-31"/>
       <use x="63.623047" xlink:href="#DejaVuSans-2e"/>
       <use x="95.410156" xlink:href="#DejaVuSans-30"/>
      </g>
     </g>
    </g>
    <g id="text_13">
     <!-- Fraction of function,target pairs -->
     <defs>
      <path d="M 9.8125 72.90625 
L 51.703125 72.90625 
L 51.703125 64.59375 
L 19.671875 64.59375 
L 19.671875 43.109375 
L 48.578125 43.109375 
L 48.578125 34.8125 
L 19.671875 34.8125 
L 19.671875 0 
L 9.8125 0 
z
" id="DejaVuSans-46"/>
      <path d="M 41.109375 46.296875 
Q 39.59375 47.171875 37.8125 47.578125 
Q 36.03125 48 33.890625 48 
Q 26.265625 48 22.1875 43.046875 
Q 18.109375 38.09375 18.109375 28.8125 
L 18.109375 0 
L 9.078125 0 
L 9.078125 54.6875 
L 18.109375 54.6875 
L 18.109375 46.1875 
Q 20.953125 51.171875 25.484375 53.578125 
Q 30.03125 56 36.53125 56 
Q 37.453125 56 38.578125 55.875 
Q 39.703125 55.765625 41.0625 55.515625 
z
" id="DejaVuSans-72"/>
      <path d="M 48.78125 52.59375 
L 48.78125 44.1875 
Q 44.96875 46.296875 41.140625 47.34375 
Q 37.3125 48.390625 33.40625 48.390625 
Q 24.65625 48.390625 19.8125 42.84375 
Q 14.984375 37.3125 14.984375 27.296875 
Q 14.984375 17.28125 19.8125 11.734375 
Q 24.65625 6.203125 33.40625 6.203125 
Q 37.3125 6.203125 41.140625 7.25 
Q 44.96875 8.296875 48.78125 10.40625 
L 48.78125 2.09375 
Q 45.015625 0.34375 40.984375 -0.53125 
Q 36.96875 -1.421875 32.421875 -1.421875 
Q 20.0625 -1.421875 12.78125 6.34375 
Q 5.515625 14.109375 5.515625 27.296875 
Q 5.515625 40.671875 12.859375 48.328125 
Q 20.21875 56 33.015625 56 
Q 37.15625 56 41.109375 55.140625 
Q 45.0625 54.296875 48.78125 52.59375 
z
" id="DejaVuSans-63"/>
      <path d="M 18.3125 70.21875 
L 18.3125 54.6875 
L 36.8125 54.6875 
L 36.8125 47.703125 
L 18.3125 47.703125 
L 18.3125 18.015625 
Q 18.3125 11.328125 20.140625 9.421875 
Q 21.96875 7.515625 27.59375 7.515625 
L 36.8125 7.515625 
L 36.8125 0 
L 27.59375 0 
Q 17.1875 0 13.234375 3.875 
Q 9.28125 7.765625 9.28125 18.015625 
L 9.28125 47.703125 
L 2.6875 47.703125 
L 2.6875 54.6875 
L 9.28125 54.6875 
L 9.28125 70.21875 
z
" id="DejaVuSans-74"/>
      <path d="M 8.5 21.578125 
L 8.5 54.6875 
L 17.484375 54.6875 
L 17.484375 21.921875 
Q 17.484375 14.15625 20.5 10.265625 
Q 23.53125 6.390625 29.59375 6.390625 
Q 36.859375 6.390625 41.078125 11.03125 
Q 45.3125 15.671875 45.3125 23.6875 
L 45.3125 54.6875 
L 54.296875 54.6875 
L 54.296875 0 
L 45.3125 0 
L 45.3125 8.40625 
Q 42.046875 3.421875 37.71875 1 
Q 33.40625 -1.421875 27.6875 -1.421875 
Q 18.265625 -1.421875 13.375 4.4375 
Q 8.5 10.296875 8.5 21.578125 
z
M 31.109375 56 
z
" id="DejaVuSans-75"/>
      <path d="M 11.71875 12.40625 
L 22.015625 12.40625 
L 22.015625 4 
L 14.015625 -11.625 
L 7.71875 -11.625 
L 11.71875 4 
z
" id="DejaVuSans-2c"/>
      <path d="M 18.109375 8.203125 
L 18.109375 -20.796875 
L 9.078125 -20.796875 
L 9.078125 54.6875 
L 18.109375 54.6875 
L 18.109375 46.390625 
Q 20.953125 51.265625 25.265625 53.625 
Q 29.59375 56 35.59375 56 
Q 45.5625 56 51.78125 48.09375 
Q 58.015625 40.1875 58.015625 27.296875 
Q 58.015625 14.40625 51.78125 6.484375 
Q 45.5625 -1.421875 35.59375 -1.421875 
Q 29.59375 -1.421875 25.265625 0.953125 
Q 20.953125 3.328125 18.109375 8.203125 
z
M 48.6875 27.296875 
Q 48.6875 37.203125 44.609375 42.84375 
Q 40.53125 48.484375 33.40625 48.484375 
Q 26.265625 48.484375 22.1875 42.84375 
Q 18.109375 37.203125 18.109375 27.296875 
Q 18.109375 17.390625 22.1875 11.75 
Q 26.265625 6.109375 33.40625 6.109375 
Q 40.53125 6.109375 44.609375 11.75 
Q 48.6875 17.390625 48.6875 27.296875 
z
" id="DejaVuSans-70"/>
     </defs>
     <g transform="translate(16.139531 286.001989)rotate(-90)scale(0.17 -0.17)">
      <use xlink:href="#DejaVuSans-46"/>
      <use x="57.410156" xlink:href="#DejaVuSans-72"/>
      <use x="98.523438" xlink:href="#DejaVuSans-61"/>
      <use x="159.802734" xlink:href="#DejaVuSans-63"/>
      <use x="214.783203" xlink:href="#DejaVuSans-74"/>
      <use x="253.992188" xlink:href="#DejaVuSans-69"/>
      <use x="281.775391" xlink:href="#DejaVuSans-6f"/>
      <use x="342.957031" xlink:href="#DejaVuSans-6e"/>
      <use x="406.335938" xlink:href="#DejaVuSans-20"/>
      <use x="438.123047" xlink:href="#DejaVuSans-6f"/>
      <use x="499.304688" xlink:href="#DejaVuSans-66"/>
      <use x="534.509766" xlink:href="#DejaVuSans-20"/>
      <use x="566.296875" xlink:href="#DejaVuSans-66"/>
      <use x="601.501953" xlink:href="#DejaVuSans-75"/>
      <use x="664.880859" xlink:href="#DejaVuSans-6e"/>
      <use x="728.259766" xlink:href="#DejaVuSans-63"/>
      <use x="783.240234" xlink:href="#DejaVuSans-74"/>
      <use x="822.449219" xlink:href="#DejaVuSans-69"/>
      <use x="850.232422" xlink:href="#DejaVuSans-6f"/>
      <use x="911.414062" xlink:href="#DejaVuSans-6e"/>
      <use x="974.792969" xlink:href="#DejaVuSans-2c"/>
      <use x="1006.580078" xlink:href="#DejaVuSans-74"/>
      <use x="1045.789062" xlink:href="#DejaVuSans-61"/>
      <use x="1107.068359" xlink:href="#DejaVuSans-72"/>
      <use x="1148.166016" xlink:href="#DejaVuSans-67"/>
      <use x="1211.642578" xlink:href="#DejaVuSans-65"/>
      <use x="1273.166016" xlink:href="#DejaVuSans-74"/>
      <use x="1312.375" xlink:href="#DejaVuSans-20"/>
      <use x="1344.162109" xlink:href="#DejaVuSans-70"/>
      <use x="1407.638672" xlink:href="#DejaVuSans-61"/>
      <use x="1468.917969" xlink:href="#DejaVuSans-69"/>
      <use x="1496.701172" xlink:href="#DejaVuSans-72"/>
      <use x="1537.814453" xlink:href="#DejaVuSans-73"/>
     </g>
    </g>
   </g>
   <g id="line2d_23">
    <defs>
     <path d="M 0 1.5 
C 0.397805 1.5 0.77937 1.341951 1.06066 1.06066 
C 1.341951 0.77937 1.5 0.397805 1.5 0 
C 1.5 -0.397805 1.341951 -0.77937 1.06066 -1.06066 
C 0.77937 -1.341951 0.397805 -1.5 0 -1.5 
C -0.397805 -1.5 -0.77937 -1.341951 -1.06066 -1.06066 
C -1.341951 -0.77937 -1.5 -0.397805 -1.5 0 
C -1.5 0.397805 -1.341951 0.77937 -1.06066 1.06066 
C -0.77937 1.341951 -0.397805 1.5 0 1.5 
z
" id="mf0b0129856" style="stroke:#000080;"/>
    </defs>
    <g>
     <use style="fill:#000080;stroke:#000080;" x="214.546505" xlink:href="#mf0b0129856" y="9.697057"/>
     <use style="fill:#000080;stroke:#000080;" x="214.546505" xlink:href="#mf0b0129856" y="9.697057"/>
    </g>
   </g>
   <g id="line2d_24">
    <path d="M 40.355341 294.88 
L 40.355341 276.986168 
L 105.461817 276.986168 
L 105.461817 276.426986 
L 106.958836 276.426986 
L 106.958836 275.867804 
L 108.985277 275.867804 
L 108.985277 274.749439 
L 110.214719 274.749439 
L 110.214719 274.190257 
L 110.797991 274.190257 
L 110.797991 273.071893 
L 111.082375 273.071893 
L 111.082375 272.51271 
L 111.362135 272.51271 
L 111.362135 271.953528 
L 111.637419 271.953528 
L 111.637419 271.394346 
L 112.437789 271.394346 
L 112.437789 270.275981 
L 112.696514 270.275981 
L 112.696514 269.716799 
L 113.202576 269.716799 
L 113.202576 269.157617 
L 113.450132 269.157617 
L 113.450132 268.598435 
L 113.694177 268.598435 
L 113.694177 266.361706 
L 113.934809 266.361706 
L 113.934809 265.802523 
L 114.406204 265.802523 
L 114.406204 262.44743 
L 114.637146 262.44743 
L 114.637146 261.888248 
L 125.979378 261.888248 
L 125.979378 261.329066 
L 127.347373 261.329066 
L 127.347373 260.769883 
L 127.565159 260.769883 
L 127.565159 260.210701 
L 127.780222 260.210701 
L 127.780222 259.651519 
L 128.306406 259.651519 
L 128.306406 259.092337 
L 128.512455 259.092337 
L 128.512455 258.533154 
L 128.816974 258.533154 
L 128.816974 257.41479 
L 129.214792 257.41479 
L 129.214792 256.296425 
L 130.629687 256.296425 
L 130.629687 255.737243 
L 131.164597 255.737243 
L 131.164597 254.618879 
L 131.597991 254.618879 
L 131.597991 254.059696 
L 131.768338 254.059696 
L 131.768338 253.500514 
L 135.624435 253.500514 
L 135.624435 251.822967 
L 136.802415 251.822967 
L 136.802415 250.704603 
L 137.845453 250.704603 
L 137.845453 249.027056 
L 138.430709 249.027056 
L 138.430709 248.467874 
L 139.918135 248.467874 
L 139.918135 247.34951 
L 141.529123 247.34951 
L 141.529123 246.790327 
L 144.480724 246.790327 
L 144.480724 246.231145 
L 145.502318 246.231145 
L 145.502318 245.112781 
L 145.954113 245.112781 
L 145.954113 244.553598 
L 146.430529 244.553598 
L 146.430529 243.994416 
L 148.822538 243.994416 
L 148.822538 243.435234 
L 148.947893 243.435234 
L 148.947893 242.876052 
L 149.287982 242.876052 
L 149.379579 241.198505 
L 149.410003 241.198505 
L 149.410003 240.639323 
L 149.860025 240.639323 
L 149.860025 238.961776 
L 150.095309 238.961776 
L 150.095309 238.402594 
L 150.211755 238.402594 
L 150.211755 237.843411 
L 150.470913 237.843411 
L 150.470913 236.165865 
L 151.777543 236.165865 
L 151.777543 235.606682 
L 152.793292 235.606682 
L 152.793292 235.0475 
L 154.206873 235.0475 
L 154.206873 234.488318 
L 155.070381 234.488318 
L 155.070381 233.929136 
L 155.341671 233.929136 
L 155.384683 232.810771 
L 155.555664 232.810771 
L 155.60875 231.133225 
L 155.788023 231.133225 
L 155.788023 230.01486 
L 156.017286 230.01486 
L 156.017286 229.455678 
L 156.141063 229.455678 
L 156.243534 228.337313 
L 156.426458 228.337313 
L 156.527248 226.100584 
L 156.547336 226.100584 
L 156.5674 224.423038 
L 156.74693 224.423038 
L 156.786573 221.627126 
L 156.895121 221.627126 
L 156.983427 220.508762 
L 157.032291 220.508762 
L 157.100467 219.390397 
L 157.149 219.390397 
L 157.255293 216.594486 
L 157.293783 216.594486 
L 157.389632 212.680211 
L 157.418283 212.680211 
L 157.465928 209.884299 
L 157.579743 209.884299 
L 157.674016 205.410841 
L 157.767776 205.410841 
L 157.861027 201.496566 
L 157.972266 201.496566 
L 158.08279 196.463926 
L 158.137787 196.463926 
L 158.247257 190.872103 
L 158.356034 190.872103 
L 158.464127 185.280281 
L 158.517921 185.280281 
L 158.625005 179.129276 
L 158.678299 179.129276 
L 158.784393 175.215 
L 158.802012 175.215 
L 158.872307 171.300725 
L 158.959775 171.300725 
L 159.0468 168.504814 
L 159.116105 168.504814 
L 159.150653 165.14972 
L 159.382055 165.14972 
L 159.382055 164.031356 
L 160.301965 164.031356 
L 160.301965 162.912991 
L 160.52645 162.912991 
L 160.534413 161.794627 
L 160.724437 161.794627 
L 160.724437 161.235444 
L 161.689019 161.235444 
L 161.689019 160.676262 
L 161.940297 160.676262 
L 161.940297 160.11708 
L 162.260126 160.11708 
L 162.260126 159.557898 
L 162.460601 159.557898 
L 162.503258 158.439533 
L 162.581189 158.439533 
L 162.581189 157.880351 
L 162.693915 157.880351 
L 162.693915 157.321169 
L 162.882483 157.321169 
L 162.917177 156.202804 
L 163.020842 156.202804 
L 163.048381 155.08444 
L 163.137579 155.08444 
L 163.219507 152.847711 
L 163.280698 152.847711 
L 163.375453 150.610982 
L 163.49652 150.610982 
L 163.583431 148.374253 
L 163.669904 148.374253 
L 163.749342 145.578342 
L 163.828414 145.578342 
L 163.933283 143.900795 
L 163.9594 143.900795 
L 164.01802 141.664066 
L 164.186252 141.664066 
L 164.186252 141.104884 
L 164.454585 141.104884 
L 164.454585 139.986519 
L 164.85559 139.986519 
L 164.929749 138.308973 
L 164.997449 138.308973 
L 165.046518 137.190608 
L 165.11986 137.190608 
L 165.180741 134.394697 
L 165.23535 134.394697 
L 165.325981 132.71715 
L 165.356086 132.71715 
L 165.356086 132.157968 
L 165.487925 132.157968 
L 165.571299 129.921239 
L 165.618761 129.921239 
L 165.701505 127.68451 
L 165.795585 127.68451 
L 165.865809 123.770234 
L 165.912467 123.770234 
L 165.941563 122.092688 
L 166.080547 122.092688 
L 166.149619 118.178412 
L 167.11578 118.178412 
L 167.175416 117.060047 
L 167.671514 117.060047 
L 167.671514 116.500865 
L 168.158819 116.500865 
L 168.158819 115.941683 
L 168.422578 115.941683 
L 168.52796 113.704954 
L 168.58789 113.704954 
L 168.667473 112.586589 
L 168.717026 112.586589 
L 168.776302 111.468225 
L 168.962674 111.468225 
L 169.001654 108.672314 
L 169.16152 108.672314 
L 169.195241 106.994767 
L 169.310356 106.994767 
L 169.410454 104.198856 
L 169.453176 104.198856 
L 169.472129 103.080491 
L 169.753951 103.080491 
L 169.763266 101.962127 
L 169.948516 101.962127 
L 169.948516 101.402945 
L 170.113552 101.402945 
L 170.168214 100.28458 
L 170.249882 100.28458 
L 170.249882 99.725398 
L 170.385142 99.725398 
L 170.465789 98.607033 
L 170.501512 98.607033 
L 170.577177 95.25194 
L 170.753911 95.25194 
L 170.845974 93.574393 
L 171.093405 93.574393 
L 171.183675 91.896847 
L 171.711408 91.896847 
L 171.728031 90.778482 
L 171.905722 90.778482 
L 171.905722 90.2193 
L 172.207283 90.2193 
L 172.207283 89.660118 
L 172.463898 89.660118 
L 172.539349 88.541753 
L 172.869014 88.541753 
L 172.869014 87.423389 
L 173.043056 87.423389 
L 173.131336 86.305024 
L 173.211545 86.305024 
L 173.287589 84.627477 
L 173.344402 84.627477 
L 173.363298 83.509113 
L 173.536175 83.509113 
L 173.625687 81.272384 
L 173.692516 81.272384 
L 173.78122 79.035655 
L 173.906107 79.035655 
L 173.960917 77.917291 
L 174.145976 77.917291 
L 174.145976 77.358108 
L 174.464229 77.358108 
L 174.499623 76.239744 
L 174.580753 76.239744 
L 174.672007 74.003015 
L 174.703483 74.003015 
L 174.79409 71.766286 
L 174.860002 71.766286 
L 174.891136 70.088739 
L 175.063083 70.088739 
L 175.097267 68.970375 
L 175.253645 68.970375 
L 175.253645 68.411192 
L 175.5056 68.411192 
L 175.592091 67.292828 
L 175.694648 67.292828 
L 175.757206 66.174463 
L 175.819536 66.174463 
L 175.819536 65.615281 
L 176.185646 65.615281 
L 176.185646 65.056099 
L 176.392763 65.056099 
L 176.392763 64.496917 
L 176.886059 64.496917 
L 176.886059 63.937735 
L 177.024005 63.937735 
L 177.024005 63.378552 
L 177.266545 63.378552 
L 177.347636 62.260188 
L 177.470049 62.260188 
L 177.470049 61.701006 
L 177.615213 61.701006 
L 177.72109 60.582641 
L 177.925114 60.582641 
L 177.991626 59.464277 
L 178.121019 59.464277 
L 178.121019 58.905094 
L 178.525858 58.905094 
L 178.525858 58.345912 
L 178.65964 58.345912 
L 178.715077 57.227548 
L 178.885805 57.227548 
L 178.948712 55.550001 
L 179.122555 55.550001 
L 179.227635 54.431636 
L 179.457108 54.431636 
L 179.536442 52.194907 
L 179.7097 52.194907 
L 179.7097 51.635725 
L 179.834618 51.635725 
L 179.922557 49.398996 
L 180.247114 49.398996 
L 180.247114 48.839814 
L 180.388304 48.839814 
L 180.403363 47.72145 
L 180.528344 47.72145 
L 180.528344 47.162267 
L 180.907679 47.162267 
L 180.907679 46.603085 
L 181.274062 46.603085 
L 181.354959 45.484721 
L 181.602414 45.484721 
L 181.602414 44.925538 
L 181.779329 44.925538 
L 181.887834 43.247992 
L 181.91313 43.247992 
L 182.002518 41.570445 
L 182.075517 41.570445 
L 182.136869 40.45208 
L 182.23864 40.45208 
L 182.23864 39.892898 
L 182.455986 39.892898 
L 182.455986 39.333716 
L 182.648617 39.333716 
L 182.705769 37.656169 
L 182.83476 37.656169 
L 182.902149 36.537805 
L 183.757067 36.537805 
L 183.757067 35.978622 
L 184.144903 35.978622 
L 184.144903 35.41944 
L 184.283612 35.41944 
L 184.35554 34.301076 
L 185.045351 34.301076 
L 185.045351 33.741894 
L 185.489702 33.741894 
L 185.489702 33.182711 
L 186.109335 33.182711 
L 186.109335 32.623529 
L 186.693507 32.623529 
L 186.693507 32.064347 
L 187.386024 32.064347 
L 187.386024 31.505165 
L 187.707341 31.505165 
L 187.707341 30.945982 
L 188.159168 30.945982 
L 188.159168 30.3868 
L 188.289738 30.3868 
L 188.362553 29.268436 
L 188.616562 29.268436 
L 188.616562 28.709253 
L 188.869942 28.709253 
L 188.871476 27.590889 
L 189.015029 27.590889 
L 189.019591 26.472524 
L 189.312049 26.472524 
L 189.312049 25.913342 
L 190.344709 25.913342 
L 190.417754 24.794978 
L 191.02913 24.794978 
L 191.092595 23.676613 
L 191.619525 23.676613 
L 191.619525 23.117431 
L 192.016215 23.117431 
L 192.016215 22.558249 
L 193.041437 22.558249 
L 193.041437 21.999066 
L 193.207912 21.999066 
L 193.207912 21.439884 
L 193.703675 21.439884 
L 193.768403 20.32152 
L 193.831739 20.32152 
L 193.831739 19.762337 
L 194.479183 19.762337 
L 194.521197 18.643973 
L 194.600523 18.643973 
L 194.600523 18.084791 
L 195.73925 18.084791 
L 195.73925 17.525609 
L 195.919375 17.525609 
L 195.919375 16.966426 
L 196.279051 16.966426 
L 196.382431 15.848062 
L 196.646007 15.848062 
L 196.646007 15.28888 
L 196.948814 15.28888 
L 196.948814 14.729697 
L 197.424537 14.729697 
L 197.424537 14.170515 
L 199.053817 14.170515 
L 199.053817 13.611333 
L 199.797784 13.611333 
L 199.797784 13.052151 
L 202.257539 13.052151 
L 202.257539 12.492968 
L 204.676267 12.492968 
L 204.676267 11.933786 
L 205.404802 11.933786 
L 205.404802 11.374604 
L 206.312004 11.374604 
L 206.312004 10.815422 
L 208.504525 10.815422 
L 208.504525 10.256239 
L 214.546505 10.256239 
L 214.546505 9.697057 
L 333.429677 9.697057 
L 333.429677 9.697057 
" style="fill:none;stroke:#000080;stroke-linecap:square;stroke-width:1.5;"/>
   </g>
   <g id="line2d_25">
    <defs>
     <path d="M 0 6 
C 1.591219 6 3.117479 5.367802 4.242641 4.242641 
C 5.367802 3.117479 6 1.591219 6 0 
C 6 -1.591219 5.367802 -3.117479 4.242641 -4.242641 
C 3.117479 -5.367802 1.591219 -6 0 -6 
C -1.591219 -6 -3.117479 -5.367802 -4.242641 -4.242641 
C -5.367802 -3.117479 -6 -1.591219 -6 0 
C -6 1.591219 -5.367802 3.117479 -4.242641 4.242641 
C -3.117479 5.367802 -1.591219 6 0 6 
z
" id="m43a202594f" style="stroke:#000080;stroke-width:1.5;"/>
    </defs>
    <g>
     <use style="fill-opacity:0;stroke:#000080;stroke-width:1.5;" x="149.287982" xlink:href="#m43a202594f" y="242.316869"/>
     <use style="fill-opacity:0;stroke:#000080;stroke-width:1.5;" x="165.356086" xlink:href="#m43a202594f" y="132.157968"/>
     <use style="fill-opacity:0;stroke:#000080;stroke-width:1.5;" x="184.283612" xlink:href="#m43a202594f" y="35.41944"/>
     <use style="fill-opacity:0;stroke:#000080;stroke-width:1.5;" x="214.546505" xlink:href="#m43a202594f" y="9.697057"/>
     <use style="fill-opacity:0;stroke:#000080;stroke-width:1.5;" x="214.546505" xlink:href="#m43a202594f" y="9.697057"/>
     <use style="fill-opacity:0;stroke:#000080;stroke-width:1.5;" x="333.429677" xlink:href="#m43a202594f" y="9.697057"/>
    </g>
   </g>
   <g id="line2d_26">
    <path style="fill:none;stroke:#000080;stroke-linecap:square;stroke-width:1.5;"/>
    <g/>
   </g>
   <g id="line2d_27">
    <path clip-path="url(#p53f1d51673)" d="M 147.276841 243.994416 
" style="fill:none;stroke:#000080;stroke-linecap:square;stroke-width:1.5;"/>
    <defs>
     <path d="M -12 12 
L 12 -12 
M -12 -12 
L 12 12 
" id="m06aba499a1" style="stroke:#000080;stroke-width:3;"/>
    </defs>
    <g clip-path="url(#p53f1d51673)">
     <use style="fill:#000080;stroke:#000080;stroke-width:3;" x="147.276841" xlink:href="#m06aba499a1" y="243.994416"/>
    </g>
   </g>
   <g id="line2d_28">
    <defs>
     <path d="M 0 1.5 
C 0.397805 1.5 0.77937 1.341951 1.06066 1.06066 
C 1.341951 0.77937 1.5 0.397805 1.5 0 
C 1.5 -0.397805 1.341951 -0.77937 1.06066 -1.06066 
C 0.77937 -1.341951 0.397805 -1.5 0 -1.5 
C -0.397805 -1.5 -0.77937 -1.341951 -1.06066 -1.06066 
C -1.341951 -0.77937 -1.5 -0.397805 -1.5 0 
C -1.5 0.397805 -1.341951 0.77937 -1.06066 1.06066 
C -0.77937 1.341951 -0.397805 1.5 0 1.5 
z
" id="m7923ec2447" style="stroke:#ff00ff;"/>
    </defs>
    <g>
     <use style="fill:#ff00ff;stroke:#ff00ff;" x="210.554086" xlink:href="#m7923ec2447" y="266.920888"/>
     <use style="fill:#ff00ff;stroke:#ff00ff;" x="210.554086" xlink:href="#m7923ec2447" y="266.920888"/>
    </g>
   </g>
   <g id="line2d_29">
    <path d="M 140.641569 294.88 
L 140.641569 294.320818 
L 142.824725 294.320818 
L 142.824725 293.761636 
L 149.025778 293.761636 
L 149.025778 293.202453 
L 150.838492 293.202453 
L 150.838492 292.643271 
L 153.598202 292.643271 
L 153.598202 291.524907 
L 157.636369 291.524907 
L 157.636369 290.965724 
L 157.767776 290.965724 
L 157.767776 290.406542 
L 157.879617 290.406542 
L 157.879617 289.84736 
L 158.247257 289.84736 
L 158.247257 289.288178 
L 158.292664 289.288178 
L 158.292664 288.728995 
L 158.464127 288.728995 
L 158.464127 288.169813 
L 158.907348 288.169813 
L 158.907348 287.610631 
L 161.471754 287.610631 
L 161.471754 287.051449 
L 162.353495 287.051449 
L 162.353495 286.492266 
L 162.951801 286.492266 
L 162.951801 285.933084 
L 164.082919 285.933084 
L 164.082919 285.373902 
L 165.559413 285.373902 
L 165.559413 284.81472 
L 167.03958 284.81472 
L 167.03958 284.255537 
L 167.03958 284.255537 
L 167.03958 283.696355 
L 167.385201 283.696355 
L 167.385201 283.137173 
L 169.07935 283.137173 
L 169.07935 282.577991 
L 169.590116 282.577991 
L 169.590116 282.018808 
L 170.040398 282.018808 
L 170.040398 281.459626 
L 170.367168 281.459626 
L 170.367168 280.900444 
L 170.898361 280.900444 
L 170.898361 280.341262 
L 170.967964 280.341262 
L 170.967964 279.782079 
L 171.552683 279.782079 
L 171.552683 279.222897 
L 172.130358 279.222897 
L 172.130358 278.663715 
L 172.211323 278.663715 
L 172.211323 278.104533 
L 172.22747 278.104533 
L 172.22747 277.545351 
L 175.155225 277.545351 
L 175.155225 276.986168 
L 176.597416 276.986168 
L 176.597416 276.426986 
L 176.697282 276.426986 
L 176.697282 275.867804 
L 178.163934 275.867804 
L 178.163934 275.308622 
L 180.279994 275.308622 
L 180.279994 274.749439 
L 182.209301 274.749439 
L 182.209301 274.190257 
L 184.029467 274.190257 
L 184.029467 273.631075 
L 184.514313 273.631075 
L 184.514313 273.071893 
L 184.74586 273.071893 
L 184.74586 272.51271 
L 184.829468 272.51271 
L 184.829468 271.953528 
L 186.788969 271.953528 
L 186.788969 271.394346 
L 188.106341 271.394346 
L 188.106341 270.835164 
L 191.744557 270.835164 
L 191.744557 270.275981 
L 192.624845 270.275981 
L 192.624845 269.716799 
L 193.638703 269.716799 
L 193.638703 269.157617 
L 196.037071 269.157617 
L 196.037071 268.598435 
L 199.10127 268.598435 
L 199.10127 268.039252 
L 203.06252 268.039252 
L 203.06252 267.48007 
L 210.554086 267.48007 
L 210.554086 266.920888 
L 333.429677 266.920888 
" style="fill:none;stroke:#ff00ff;stroke-linecap:square;stroke-width:1.5;"/>
   </g>
   <g id="line2d_30">
    <defs>
     <path d="M -0 8.485281 
L 5.091169 0 
L 0 -8.485281 
L -5.091169 -0 
z
" id="mcc9bf8153a" style="stroke:#ff00ff;stroke-linejoin:miter;stroke-width:1.5;"/>
    </defs>
    <g>
     <use style="fill-opacity:0;stroke:#ff00ff;stroke-linejoin:miter;stroke-width:1.5;" x="172.22747" xlink:href="#mcc9bf8153a" y="278.104533"/>
     <use style="fill-opacity:0;stroke:#ff00ff;stroke-linejoin:miter;stroke-width:1.5;" x="210.554086" xlink:href="#mcc9bf8153a" y="267.48007"/>
     <use style="fill-opacity:0;stroke:#ff00ff;stroke-linejoin:miter;stroke-width:1.5;" x="210.554086" xlink:href="#mcc9bf8153a" y="266.920888"/>
     <use style="fill-opacity:0;stroke:#ff00ff;stroke-linejoin:miter;stroke-width:1.5;" x="210.554086" xlink:href="#mcc9bf8153a" y="266.920888"/>
     <use style="fill-opacity:0;stroke:#ff00ff;stroke-linejoin:miter;stroke-width:1.5;" x="333.429677" xlink:href="#mcc9bf8153a" y="266.920888"/>
    </g>
   </g>
   <g id="line2d_31">
    <path style="fill:none;stroke:#ff00ff;stroke-linecap:square;stroke-width:1.5;"/>
    <g/>
   </g>
   <g id="line2d_32">
    <path clip-path="url(#p53f1d51673)" d="M 140.717306 294.320818 
" style="fill:none;stroke:#ff00ff;stroke-linecap:square;stroke-width:1.5;"/>
    <defs>
     <path d="M -12 12 
L 12 -12 
M -12 -12 
L 12 12 
" id="mf1407420bf" style="stroke:#ff00ff;stroke-width:3;"/>
    </defs>
    <g clip-path="url(#p53f1d51673)">
     <use style="fill:#ff00ff;stroke:#ff00ff;stroke-width:3;" x="140.717306" xlink:href="#mf1407420bf" y="294.320818"/>
    </g>
   </g>
   <g id="line2d_33">
    <defs>
     <path d="M 0 1.5 
C 0.397805 1.5 0.77937 1.341951 1.06066 1.06066 
C 1.341951 0.77937 1.5 0.397805 1.5 0 
C 1.5 -0.397805 1.341951 -0.77937 1.06066 -1.06066 
C 0.77937 -1.341951 0.397805 -1.5 0 -1.5 
C -0.397805 -1.5 -0.77937 -1.341951 -1.06066 -1.06066 
C -1.341951 -0.77937 -1.5 -0.397805 -1.5 0 
C -1.5 0.397805 -1.341951 0.77937 -1.06066 1.06066 
C -0.77937 1.341951 -0.397805 1.5 0 1.5 
z
" id="m9215c7cc0e" style="stroke:#ffa500;"/>
    </defs>
    <g>
     <use style="fill:#ffa500;stroke:#ffa500;" x="186.560717" xlink:href="#m9215c7cc0e" y="283.696355"/>
     <use style="fill:#ffa500;stroke:#ffa500;" x="186.560717" xlink:href="#m9215c7cc0e" y="283.696355"/>
    </g>
   </g>
   <g id="line2d_34">
    <path d="M 40.355341 294.88 
L 40.355341 293.761636 
L 117.773963 293.761636 
L 117.773963 292.643271 
L 120.261464 292.643271 
L 120.261464 292.084089 
L 142.622972 292.084089 
L 142.622972 291.524907 
L 144.701947 291.524907 
L 144.701947 290.965724 
L 145.635321 290.965724 
L 145.635321 290.406542 
L 148.376461 290.406542 
L 148.376461 289.84736 
L 149.440373 289.84736 
L 149.440373 289.288178 
L 152.014311 289.288178 
L 152.014311 288.728995 
L 154.794744 288.728995 
L 154.794744 288.169813 
L 161.021079 288.169813 
L 161.021079 287.610631 
L 164.668782 287.610631 
L 164.668782 287.051449 
L 167.818117 287.051449 
L 167.818117 286.492266 
L 174.12792 286.492266 
L 174.12792 285.933084 
L 178.692924 285.933084 
L 178.692924 285.373902 
L 180.420915 285.373902 
L 180.420915 284.81472 
L 183.719868 284.81472 
L 183.719868 284.255537 
L 186.560717 284.255537 
L 186.560717 283.696355 
L 333.429677 283.696355 
" style="fill:none;stroke:#ffa500;stroke-linecap:square;stroke-width:1.5;"/>
   </g>
   <g id="line2d_35">
    <defs>
     <path d="M 0 -6 
L -1.347084 -1.854102 
L -5.706339 -1.854102 
L -2.179628 0.708204 
L -3.526712 4.854102 
L -0 2.291796 
L 3.526712 4.854102 
L 2.179628 0.708204 
L 5.706339 -1.854102 
L 1.347084 -1.854102 
z
" id="m886f632560" style="stroke:#ffa500;stroke-linejoin:bevel;stroke-width:1.5;"/>
    </defs>
    <g>
     <use style="fill-opacity:0;stroke:#ffa500;stroke-linejoin:bevel;stroke-width:1.5;" x="186.560717" xlink:href="#m886f632560" y="284.255537"/>
     <use style="fill-opacity:0;stroke:#ffa500;stroke-linejoin:bevel;stroke-width:1.5;" x="186.560717" xlink:href="#m886f632560" y="284.255537"/>
     <use style="fill-opacity:0;stroke:#ffa500;stroke-linejoin:bevel;stroke-width:1.5;" x="186.560717" xlink:href="#m886f632560" y="283.696355"/>
     <use style="fill-opacity:0;stroke:#ffa500;stroke-linejoin:bevel;stroke-width:1.5;" x="186.560717" xlink:href="#m886f632560" y="283.696355"/>
     <use style="fill-opacity:0;stroke:#ffa500;stroke-linejoin:bevel;stroke-width:1.5;" x="333.429677" xlink:href="#m886f632560" y="283.696355"/>
    </g>
   </g>
   <g id="line2d_36">
    <path style="fill:none;stroke:#ffa500;stroke-linecap:square;stroke-width:1.5;"/>
    <g/>
   </g>
   <g id="line2d_37">
    <path clip-path="url(#p53f1d51673)" d="M 138.430709 292.084089 
" style="fill:none;stroke:#ffa500;stroke-linecap:square;stroke-width:1.5;"/>
    <defs>
     <path d="M -12 12 
L 12 -12 
M -12 -12 
L 12 12 
" id="m1b8c213d3f" style="stroke:#ffa500;stroke-width:3;"/>
    </defs>
    <g clip-path="url(#p53f1d51673)">
     <use style="fill:#ffa500;stroke:#ffa500;stroke-width:3;" x="138.430709" xlink:href="#m1b8c213d3f" y="292.084089"/>
    </g>
   </g>
   <g id="line2d_38">
    <defs>
     <path d="M 0 1.5 
C 0.397805 1.5 0.77937 1.341951 1.06066 1.06066 
C 1.341951 0.77937 1.5 0.397805 1.5 0 
C 1.5 -0.397805 1.341951 -0.77937 1.06066 -1.06066 
C 0.77937 -1.341951 0.397805 -1.5 0 -1.5 
C -0.397805 -1.5 -0.77937 -1.341951 -1.06066 -1.06066 
C -1.341951 -0.77937 -1.5 -0.397805 -1.5 0 
C -1.5 0.397805 -1.341951 0.77937 -1.06066 1.06066 
C -0.77937 1.341951 -0.397805 1.5 0 1.5 
z
" id="m4bd5dde409" style="stroke:#6495ed;"/>
    </defs>
    <g>
     <use style="fill:#6495ed;stroke:#6495ed;" x="193.117089" xlink:href="#m4bd5dde409" y="283.696355"/>
     <use style="fill:#6495ed;stroke:#6495ed;" x="193.117089" xlink:href="#m4bd5dde409" y="283.696355"/>
    </g>
   </g>
   <g id="line2d_39">
    <path d="M 40.355341 294.88 
L 40.355341 294.320818 
L 112.175115 294.320818 
L 112.175115 293.761636 
L 120.095232 293.761636 
L 120.095232 293.202453 
L 135.556566 293.202453 
L 135.556566 292.643271 
L 138.99671 292.643271 
L 138.99671 291.524907 
L 144.701947 291.524907 
L 144.701947 290.965724 
L 145.673134 290.965724 
L 145.673134 290.406542 
L 158.374097 290.406542 
L 158.374097 289.84736 
L 158.446159 289.84736 
L 158.446159 289.288178 
L 159.0468 289.288178 
L 159.0468 288.728995 
L 166.77573 288.728995 
L 166.77573 288.169813 
L 167.854574 288.169813 
L 167.854574 287.610631 
L 169.040546 287.610631 
L 169.040546 287.051449 
L 172.634186 287.051449 
L 172.634186 286.492266 
L 172.669615 286.492266 
L 172.669615 285.933084 
L 176.975084 285.933084 
L 176.975084 285.373902 
L 185.780297 285.373902 
L 185.780297 284.81472 
L 188.94951 284.81472 
L 188.94951 284.255537 
L 193.117089 284.255537 
L 193.117089 283.696355 
L 333.429677 283.696355 
" style="fill:none;stroke:#6495ed;stroke-linecap:square;stroke-width:1.5;"/>
   </g>
   <g id="line2d_40">
    <defs>
     <path d="M -0 6 
L 6 -6 
L -6 -6 
z
" id="m1706d06616" style="stroke:#6495ed;stroke-linejoin:miter;stroke-width:1.5;"/>
    </defs>
    <g>
     <use style="fill-opacity:0;stroke:#6495ed;stroke-linejoin:miter;stroke-width:1.5;" x="138.99671" xlink:href="#m1706d06616" y="292.643271"/>
     <use style="fill-opacity:0;stroke:#6495ed;stroke-linejoin:miter;stroke-width:1.5;" x="193.117089" xlink:href="#m1706d06616" y="284.255537"/>
     <use style="fill-opacity:0;stroke:#6495ed;stroke-linejoin:miter;stroke-width:1.5;" x="193.117089" xlink:href="#m1706d06616" y="284.255537"/>
     <use style="fill-opacity:0;stroke:#6495ed;stroke-linejoin:miter;stroke-width:1.5;" x="193.117089" xlink:href="#m1706d06616" y="283.696355"/>
     <use style="fill-opacity:0;stroke:#6495ed;stroke-linejoin:miter;stroke-width:1.5;" x="193.117089" xlink:href="#m1706d06616" y="283.696355"/>
     <use style="fill-opacity:0;stroke:#6495ed;stroke-linejoin:miter;stroke-width:1.5;" x="333.429677" xlink:href="#m1706d06616" y="283.696355"/>
    </g>
   </g>
   <g id="line2d_41">
    <path style="fill:none;stroke:#6495ed;stroke-linecap:square;stroke-width:1.5;"/>
    <g/>
   </g>
   <g id="line2d_42">
    <path clip-path="url(#p53f1d51673)" d="M 137.362478 292.643271 
" style="fill:none;stroke:#6495ed;stroke-linecap:square;stroke-width:1.5;"/>
    <defs>
     <path d="M -12 12 
L 12 -12 
M -12 -12 
L 12 12 
" id="mc0fefa42a2" style="stroke:#6495ed;stroke-width:3;"/>
    </defs>
    <g clip-path="url(#p53f1d51673)">
     <use style="fill:#6495ed;stroke:#6495ed;stroke-width:3;" x="137.362478" xlink:href="#mc0fefa42a2" y="292.643271"/>
    </g>
   </g>
   <g id="line2d_43">
    <defs>
     <path d="M 0 1.5 
C 0.397805 1.5 0.77937 1.341951 1.06066 1.06066 
C 1.341951 0.77937 1.5 0.397805 1.5 0 
C 1.5 -0.397805 1.341951 -0.77937 1.06066 -1.06066 
C 0.77937 -1.341951 0.397805 -1.5 0 -1.5 
C -0.397805 -1.5 -0.77937 -1.341951 -1.06066 -1.06066 
C -1.341951 -0.77937 -1.5 -0.397805 -1.5 0 
C -1.5 0.397805 -1.341951 0.77937 -1.06066 1.06066 
C -0.77937 1.341951 -0.397805 1.5 0 1.5 
z
" id="m9d10479ddb" style="stroke:#ff0000;"/>
    </defs>
    <g>
     <use style="fill:#ff0000;stroke:#ff0000;" x="172.049011" xlink:href="#m9d10479ddb" y="9.697057"/>
     <use style="fill:#ff0000;stroke:#ff0000;" x="172.049011" xlink:href="#m9d10479ddb" y="9.697057"/>
    </g>
   </g>
   <g id="line2d_44">
    <path d="M 110.797991 294.88 
L 110.797991 294.320818 
L 111.362135 294.320818 
L 111.362135 293.202453 
L 111.637419 293.202453 
L 111.637419 290.965724 
L 111.908367 290.965724 
L 111.908367 289.288178 
L 114.406204 289.288178 
L 114.406204 288.728995 
L 114.637146 288.728995 
L 114.637146 285.933084 
L 114.865028 285.933084 
L 114.865028 284.255537 
L 115.089931 284.255537 
L 115.089931 283.696355 
L 115.311933 283.696355 
L 115.311933 283.137173 
L 115.531106 283.137173 
L 115.531106 281.459626 
L 115.747522 281.459626 
L 115.747522 280.341262 
L 115.96125 280.341262 
L 115.96125 279.222897 
L 116.172355 279.222897 
L 116.172355 276.986168 
L 116.380902 276.986168 
L 116.380902 274.749439 
L 116.58695 274.749439 
L 116.58695 273.631075 
L 116.790561 273.631075 
L 116.790561 272.51271 
L 117.190692 272.51271 
L 117.190692 270.835164 
L 117.387321 270.835164 
L 117.387321 270.275981 
L 118.338108 270.275981 
L 118.338108 269.716799 
L 118.522119 269.716799 
L 118.522119 267.48007 
L 118.704183 267.48007 
L 118.704183 266.920888 
L 118.88434 266.920888 
L 118.88434 265.802523 
L 119.06263 265.802523 
L 119.06263 264.684159 
L 119.239092 264.684159 
L 119.239092 261.329066 
L 119.586677 261.329066 
L 119.586677 231.133225 
L 120.095232 231.133225 
L 120.095232 229.455678 
L 120.261464 229.455678 
L 120.261464 228.896496 
L 120.426105 228.896496 
L 120.426105 216.035304 
L 120.750735 216.035304 
L 120.750735 184.161916 
L 129.603619 184.161916 
L 129.603619 183.602734 
L 130.170864 183.602734 
L 130.170864 183.043552 
L 130.355864 183.043552 
L 130.447623 181.925187 
L 130.809845 181.925187 
L 130.809845 181.366005 
L 130.988135 181.366005 
L 130.988135 170.741543 
L 132.51469 170.741543 
L 132.51469 170.18236 
L 133.991409 170.18236 
L 133.991409 169.623178 
L 134.139727 169.623178 
L 134.139727 167.386449 
L 134.505025 167.386449 
L 134.505025 166.827267 
L 134.648999 166.827267 
L 134.648999 164.590538 
L 135.282379 164.590538 
L 135.282379 164.031356 
L 139.107709 164.031356 
L 139.107709 162.912991 
L 139.409316 162.912991 
L 139.409316 162.353809 
L 139.705727 162.353809 
L 139.705727 160.676262 
L 139.97083 160.676262 
L 139.97083 158.439533 
L 140.101866 158.439533 
L 140.127953 155.08444 
L 140.36098 155.08444 
L 140.463543 126.006963 
L 140.89274 126.006963 
L 140.89274 125.447781 
L 141.384341 125.447781 
L 141.384341 114.264136 
L 141.909357 114.264136 
L 141.909357 113.704954 
L 142.142805 113.704954 
L 142.142805 112.586589 
L 142.487143 112.586589 
L 142.487143 112.027407 
L 143.02414 112.027407 
L 143.02414 111.468225 
L 143.15581 111.468225 
L 143.15581 109.231496 
L 143.373046 109.231496 
L 143.373046 106.994767 
L 144.174398 106.994767 
L 144.174398 106.435585 
L 144.419894 106.435585 
L 144.419894 104.198856 
L 144.80157 104.198856 
L 144.80157 103.639674 
L 145.233186 103.639674 
L 145.310511 100.28458 
L 145.502318 100.28458 
L 145.578446 97.488669 
L 146.065232 97.488669 
L 146.175638 94.133576 
L 146.19397 94.133576 
L 146.24885 93.015211 
L 146.628185 93.015211 
L 146.628185 92.456029 
L 146.841251 92.456029 
L 146.858888 89.660118 
L 147.735212 89.660118 
L 147.735212 89.100935 
L 148.327974 89.100935 
L 148.392593 87.423389 
L 148.600945 87.423389 
L 148.600945 85.745842 
L 148.91664 85.745842 
L 148.91664 83.509113 
L 149.072341 83.509113 
L 149.16509 79.594837 
L 149.394798 79.594837 
L 149.394798 79.035655 
L 149.800698 79.035655 
L 149.800698 78.476473 
L 149.963358 78.476473 
L 149.963358 77.358108 
L 150.413659 77.358108 
L 150.413659 74.562197 
L 150.556439 74.562197 
L 150.61322 70.088739 
L 150.991673 70.088739 
L 151.019378 67.85201 
L 151.239427 67.85201 
L 151.239427 65.615281 
L 151.631231 65.615281 
L 151.631231 64.496917 
L 152.57972 64.496917 
L 152.617602 61.141823 
L 153.858349 61.141823 
L 153.858349 60.582641 
L 154.021872 60.582641 
L 154.021872 60.023459 
L 154.469373 60.023459 
L 154.469373 59.464277 
L 154.772501 59.464277 
L 154.772501 58.345912 
L 154.949644 58.345912 
L 155.05944 56.109183 
L 155.070381 56.109183 
L 155.070381 55.550001 
L 155.298551 55.550001 
L 155.341671 54.431636 
L 155.470386 54.431636 
L 155.555664 51.635725 
L 155.682795 51.635725 
L 155.788023 49.958178 
L 156.079286 49.958178 
L 156.120495 46.043903 
L 156.416346 46.043903 
L 156.507137 43.247992 
L 156.58744 43.247992 
L 156.58744 42.129627 
L 157.312995 42.129627 
L 157.408738 40.45208 
L 157.446886 40.45208 
L 157.446886 39.892898 
L 157.608079 39.892898 
L 157.664612 38.774534 
L 157.749065 38.774534 
L 157.833105 37.656169 
L 158.091969 37.656169 
L 158.101142 36.537805 
L 158.247257 36.537805 
L 158.247257 35.978622 
L 158.374097 35.978622 
L 158.374097 35.41944 
L 158.660553 35.41944 
L 158.660553 34.860258 
L 158.916097 34.860258 
L 158.916097 34.301076 
L 159.029431 34.301076 
L 159.107457 33.182711 
L 159.288155 33.182711 
L 159.288155 32.623529 
L 160.041774 32.623529 
L 160.123507 31.505165 
L 160.920171 31.505165 
L 160.920171 30.945982 
L 161.198173 30.945982 
L 161.305083 28.150071 
L 161.335507 28.150071 
L 161.343105 27.031707 
L 162.079135 27.031707 
L 162.079135 25.913342 
L 162.195189 25.913342 
L 162.260126 24.794978 
L 162.757001 24.794978 
L 162.826826 23.117431 
L 162.972543 23.117431 
L 162.972543 22.558249 
L 163.158097 22.558249 
L 163.158097 21.999066 
L 163.301047 21.999066 
L 163.301047 21.439884 
L 163.503221 21.439884 
L 163.529999 20.32152 
L 163.630047 20.32152 
L 163.630047 19.762337 
L 164.186252 19.762337 
L 164.244105 18.643973 
L 164.429209 18.643973 
L 164.429209 18.084791 
L 164.656256 18.084791 
L 164.743749 16.407244 
L 164.948239 16.407244 
L 164.948239 15.848062 
L 165.606908 15.848062 
L 165.606908 15.28888 
L 165.819025 15.28888 
L 165.871649 14.170515 
L 166.057461 14.170515 
L 166.057461 13.611333 
L 166.631104 13.611333 
L 166.681305 12.492968 
L 167.358448 12.492968 
L 167.358448 11.933786 
L 168.148593 11.933786 
L 168.148593 11.374604 
L 168.800941 11.374604 
L 168.800941 10.815422 
L 170.353676 10.815422 
L 170.353676 10.256239 
L 172.049011 10.256239 
L 172.049011 9.697057 
L 333.429677 9.697057 
L 333.429677 9.697057 
" style="fill:none;stroke:#ff0000;stroke-linecap:square;stroke-width:1.5;"/>
   </g>
   <g id="line2d_45">
    <defs>
     <path d="M 0 -6 
L -5.196152 -3 
L -5.196152 3 
L -0 6 
L 5.196152 3 
L 5.196152 -3 
z
" id="m76604db66a" style="stroke:#ff0000;stroke-linejoin:miter;stroke-width:1.5;"/>
    </defs>
    <g>
     <use style="fill-opacity:0;stroke:#ff0000;stroke-linejoin:miter;stroke-width:1.5;" x="120.750735" xlink:href="#m76604db66a" y="216.035304"/>
     <use style="fill-opacity:0;stroke:#ff0000;stroke-linejoin:miter;stroke-width:1.5;" x="156.507137" xlink:href="#m76604db66a" y="43.247992"/>
     <use style="fill-opacity:0;stroke:#ff0000;stroke-linejoin:miter;stroke-width:1.5;" x="172.049011" xlink:href="#m76604db66a" y="10.256239"/>
     <use style="fill-opacity:0;stroke:#ff0000;stroke-linejoin:miter;stroke-width:1.5;" x="172.049011" xlink:href="#m76604db66a" y="9.697057"/>
     <use style="fill-opacity:0;stroke:#ff0000;stroke-linejoin:miter;stroke-width:1.5;" x="333.429677" xlink:href="#m76604db66a" y="9.697057"/>
    </g>
   </g>
   <g id="line2d_46">
    <path style="fill:none;stroke:#ff0000;stroke-linecap:square;stroke-width:1.5;"/>
    <g/>
   </g>
   <g id="line2d_47">
    <path clip-path="url(#p53f1d51673)" d="M 138.111285 164.031356 
" style="fill:none;stroke:#ff0000;stroke-linecap:square;stroke-width:1.5;"/>
    <defs>
     <path d="M -12 12 
L 12 -12 
M -12 -12 
L 12 12 
" id="m90533f8e43" style="stroke:#ff0000;stroke-width:3;"/>
    </defs>
    <g clip-path="url(#p53f1d51673)">
     <use style="fill:#ff0000;stroke:#ff0000;stroke-width:3;" x="138.111285" xlink:href="#m90533f8e43" y="164.031356"/>
    </g>
   </g>
   <g id="line2d_48">
    <path d="M 333.429677 283.696355 
L 363.933742 289.176341 
" style="fill:none;stroke:#6495ed;stroke-linecap:square;stroke-width:1.5;"/>
    <g>
     <use style="fill-opacity:0;stroke:#6495ed;stroke-linejoin:miter;stroke-width:1.5;" x="333.429677" xlink:href="#m1706d06616" y="283.696355"/>
     <use style="fill-opacity:0;stroke:#6495ed;stroke-linejoin:miter;stroke-width:1.5;" x="363.933742" xlink:href="#m1706d06616" y="289.176341"/>
    </g>
   </g>
   <g id="line2d_49">
    <path d="M 333.429677 283.696355 
L 363.933742 220.732435 
" style="fill:none;stroke:#ffa500;stroke-linecap:square;stroke-width:1.5;"/>
    <g>
     <use style="fill-opacity:0;stroke:#ffa500;stroke-linejoin:bevel;stroke-width:1.5;" x="333.429677" xlink:href="#m886f632560" y="283.696355"/>
     <use style="fill-opacity:0;stroke:#ffa500;stroke-linejoin:bevel;stroke-width:1.5;" x="363.933742" xlink:href="#m886f632560" y="220.732435"/>
    </g>
   </g>
   <g id="line2d_50">
    <path d="M 333.429677 266.920888 
L 363.933742 152.288529 
" style="fill:none;stroke:#ff00ff;stroke-linecap:square;stroke-width:1.5;"/>
    <g>
     <use style="fill-opacity:0;stroke:#ff00ff;stroke-linejoin:miter;stroke-width:1.5;" x="333.429677" xlink:href="#mcc9bf8153a" y="266.920888"/>
     <use style="fill-opacity:0;stroke:#ff00ff;stroke-linejoin:miter;stroke-width:1.5;" x="363.933742" xlink:href="#mcc9bf8153a" y="152.288529"/>
    </g>
   </g>
   <g id="line2d_51">
    <path d="M 333.429677 9.697057 
L 363.933742 83.844622 
" style="fill:none;stroke:#000080;stroke-linecap:square;stroke-width:1.5;"/>
    <g>
     <use style="fill-opacity:0;stroke:#000080;stroke-width:1.5;" x="333.429677" xlink:href="#m43a202594f" y="9.697057"/>
     <use style="fill-opacity:0;stroke:#000080;stroke-width:1.5;" x="363.933742" xlink:href="#m43a202594f" y="83.844622"/>
    </g>
   </g>
   <g id="line2d_52">
    <path d="M 333.429677 9.697057 
L 363.933742 15.400716 
" style="fill:none;stroke:#ff0000;stroke-linecap:square;stroke-width:1.5;"/>
    <g>
     <use style="fill-opacity:0;stroke:#ff0000;stroke-linejoin:miter;stroke-width:1.5;" x="333.429677" xlink:href="#m76604db66a" y="9.697057"/>
     <use style="fill-opacity:0;stroke:#ff0000;stroke-linejoin:miter;stroke-width:1.5;" x="363.933742" xlink:href="#m76604db66a" y="15.400716"/>
    </g>
   </g>
   <g id="line2d_53">
    <path d="M 333.429677 294.88 
L 333.429677 9.697057 
" style="fill:none;stroke:#000000;stroke-linecap:square;stroke-width:1.5;"/>
   </g>
   <g id="patch_3">
    <path d="M 56.12 294.88 
L 56.12 6.845228 
" style="fill:none;stroke:#000000;stroke-linecap:square;stroke-linejoin:miter;stroke-width:0.8;"/>
   </g>
   <g id="patch_4">
    <path d="M 399.984 294.88 
L 399.984 6.845228 
" style="fill:none;stroke:#000000;stroke-linecap:square;stroke-linejoin:miter;stroke-width:0.8;"/>
   </g>
   <g id="patch_5">
    <path d="M 56.12 294.88 
L 399.984 294.88 
" style="fill:none;stroke:#000000;stroke-linecap:square;stroke-linejoin:miter;stroke-width:0.8;"/>
   </g>
   <g id="patch_6">
    <path d="M 56.12 6.845228 
L 399.984 6.845228 
" style="fill:none;stroke:#000000;stroke-linecap:square;stroke-linejoin:miter;stroke-width:0.8;"/>
   </g>
   <g id="text_14">
    <!-- f4 -->
    <g transform="translate(369.479935 293.867279)scale(0.17 -0.17)">
     <use xlink:href="#DejaVuSans-66"/>
     <use x="35.205078" xlink:href="#DejaVuSans-34"/>
    </g>
   </g>
   <g id="text_15">
    <!-- f3 -->
    <defs>
     <path d="M 40.578125 39.3125 
Q 47.65625 37.796875 51.625 33 
Q 55.609375 28.21875 55.609375 21.1875 
Q 55.609375 10.40625 48.1875 4.484375 
Q 40.765625 -1.421875 27.09375 -1.421875 
Q 22.515625 -1.421875 17.65625 -0.515625 
Q 12.796875 0.390625 7.625 2.203125 
L 7.625 11.71875 
Q 11.71875 9.328125 16.59375 8.109375 
Q 21.484375 6.890625 26.8125 6.890625 
Q 36.078125 6.890625 40.9375 10.546875 
Q 45.796875 14.203125 45.796875 21.1875 
Q 45.796875 27.640625 41.28125 31.265625 
Q 36.765625 34.90625 28.71875 34.90625 
L 20.21875 34.90625 
L 20.21875 43.015625 
L 29.109375 43.015625 
Q 36.375 43.015625 40.234375 45.921875 
Q 44.09375 48.828125 44.09375 54.296875 
Q 44.09375 59.90625 40.109375 62.90625 
Q 36.140625 65.921875 28.71875 65.921875 
Q 24.65625 65.921875 20.015625 65.03125 
Q 15.375 64.15625 9.8125 62.3125 
L 9.8125 71.09375 
Q 15.4375 72.65625 20.34375 73.4375 
Q 25.25 74.21875 29.59375 74.21875 
Q 40.828125 74.21875 47.359375 69.109375 
Q 53.90625 64.015625 53.90625 55.328125 
Q 53.90625 49.265625 50.4375 45.09375 
Q 46.96875 40.921875 40.578125 39.3125 
z
" id="DejaVuSans-33"/>
    </defs>
    <g transform="translate(369.479935 225.423372)scale(0.17 -0.17)">
     <use xlink:href="#DejaVuSans-66"/>
     <use x="35.205078" xlink:href="#DejaVuSans-33"/>
    </g>
   </g>
   <g id="text_16">
    <!-- f2 -->
    <g transform="translate(369.479935 156.979466)scale(0.17 -0.17)">
     <use xlink:href="#DejaVuSans-66"/>
     <use x="35.205078" xlink:href="#DejaVuSans-32"/>
    </g>
   </g>
   <g id="text_17">
    <!-- f1 -->
    <g transform="translate(369.479935 88.53556)scale(0.17 -0.17)">
     <use xlink:href="#DejaVuSans-66"/>
     <use x="35.205078" xlink:href="#DejaVuSans-31"/>
    </g>
   </g>
   <g id="text_18">
    <!-- f5 -->
    <defs>
     <path d="M 10.796875 72.90625 
L 49.515625 72.90625 
L 49.515625 64.59375 
L 19.828125 64.59375 
L 19.828125 46.734375 
Q 21.96875 47.46875 24.109375 47.828125 
Q 26.265625 48.1875 28.421875 48.1875 
Q 40.625 48.1875 47.75 41.5 
Q 54.890625 34.8125 54.890625 23.390625 
Q 54.890625 11.625 47.5625 5.09375 
Q 40.234375 -1.421875 26.90625 -1.421875 
Q 22.3125 -1.421875 17.546875 -0.640625 
Q 12.796875 0.140625 7.71875 1.703125 
L 7.71875 11.625 
Q 12.109375 9.234375 16.796875 8.0625 
Q 21.484375 6.890625 26.703125 6.890625 
Q 35.15625 6.890625 40.078125 11.328125 
Q 45.015625 15.765625 45.015625 23.390625 
Q 45.015625 31 40.078125 35.4375 
Q 35.15625 39.890625 26.703125 39.890625 
Q 22.75 39.890625 18.8125 39.015625 
Q 14.890625 38.140625 10.796875 36.28125 
z
" id="DejaVuSans-35"/>
    </defs>
    <g transform="translate(369.479935 20.091654)scale(0.17 -0.17)">
     <use xlink:href="#DejaVuSans-66"/>
     <use x="35.205078" xlink:href="#DejaVuSans-35"/>
    </g>
   </g>
   <g id="text_19">
    <!-- bbob -->
    <defs>
     <path d="M 48.6875 27.296875 
Q 48.6875 37.203125 44.609375 42.84375 
Q 40.53125 48.484375 33.40625 48.484375 
Q 26.265625 48.484375 22.1875 42.84375 
Q 18.109375 37.203125 18.109375 27.296875 
Q 18.109375 17.390625 22.1875 11.75 
Q 26.265625 6.109375 33.40625 6.109375 
Q 40.53125 6.109375 44.609375 11.75 
Q 48.6875 17.390625 48.6875 27.296875 
z
M 18.109375 46.390625 
Q 20.953125 51.265625 25.265625 53.625 
Q 29.59375 56 35.59375 56 
Q 45.5625 56 51.78125 48.09375 
Q 58.015625 40.1875 58.015625 27.296875 
Q 58.015625 14.40625 51.78125 6.484375 
Q 45.5625 -1.421875 35.59375 -1.421875 
Q 29.59375 -1.421875 25.265625 0.953125 
Q 20.953125 3.328125 18.109375 8.203125 
L 18.109375 0 
L 9.078125 0 
L 9.078125 75.984375 
L 18.109375 75.984375 
z
" id="DejaVuSans-62"/>
    </defs>
    <g transform="translate(59.55864 17.475982)scale(0.102 -0.102)">
     <use xlink:href="#DejaVuSans-62"/>
     <use x="63.476562" xlink:href="#DejaVuSans-62"/>
     <use x="126.953125" xlink:href="#DejaVuSans-6f"/>
     <use x="188.134766" xlink:href="#DejaVuSans-62"/>
    </g>
    <!-- Separable functions, 5-D -->
    <defs>
     <path d="M 53.515625 70.515625 
L 53.515625 60.890625 
Q 47.90625 63.578125 42.921875 64.890625 
Q 37.9375 66.21875 33.296875 66.21875 
Q 25.25 66.21875 20.875 63.09375 
Q 16.5 59.96875 16.5 54.203125 
Q 16.5 49.359375 19.40625 46.890625 
Q 22.3125 44.4375 30.421875 42.921875 
L 36.375 41.703125 
Q 47.40625 39.59375 52.65625 34.296875 
Q 57.90625 29 57.90625 20.125 
Q 57.90625 9.515625 50.796875 4.046875 
Q 43.703125 -1.421875 29.984375 -1.421875 
Q 24.8125 -1.421875 18.96875 -0.25 
Q 13.140625 0.921875 6.890625 3.21875 
L 6.890625 13.375 
Q 12.890625 10.015625 18.65625 8.296875 
Q 24.421875 6.59375 29.984375 6.59375 
Q 38.421875 6.59375 43.015625 9.90625 
Q 47.609375 13.234375 47.609375 19.390625 
Q 47.609375 24.75 44.3125 27.78125 
Q 41.015625 30.8125 33.5 32.328125 
L 27.484375 33.5 
Q 16.453125 35.6875 11.515625 40.375 
Q 6.59375 45.0625 6.59375 53.421875 
Q 6.59375 63.09375 13.40625 68.65625 
Q 20.21875 74.21875 32.171875 74.21875 
Q 37.3125 74.21875 42.625 73.28125 
Q 47.953125 72.359375 53.515625 70.515625 
z
" id="DejaVuSans-53"/>
     <path d="M 19.671875 64.796875 
L 19.671875 8.109375 
L 31.59375 8.109375 
Q 46.6875 8.109375 53.6875 14.9375 
Q 60.6875 21.78125 60.6875 36.53125 
Q 60.6875 51.171875 53.6875 57.984375 
Q 46.6875 64.796875 31.59375 64.796875 
z
M 9.8125 72.90625 
L 30.078125 72.90625 
Q 51.265625 72.90625 61.171875 64.09375 
Q 71.09375 55.28125 71.09375 36.53125 
Q 71.09375 17.671875 61.125 8.828125 
Q 51.171875 0 30.078125 0 
L 9.8125 0 
z
" id="DejaVuSans-44"/>
    </defs>
    <g transform="translate(59.55864 28.89775)scale(0.102 -0.102)">
     <use xlink:href="#DejaVuSans-53"/>
     <use x="63.476562" xlink:href="#DejaVuSans-65"/>
     <use x="125" xlink:href="#DejaVuSans-70"/>
     <use x="188.476562" xlink:href="#DejaVuSans-61"/>
     <use x="249.755859" xlink:href="#DejaVuSans-72"/>
     <use x="290.869141" xlink:href="#DejaVuSans-61"/>
     <use x="352.148438" xlink:href="#DejaVuSans-62"/>
     <use x="415.625" xlink:href="#DejaVuSans-6c"/>
     <use x="443.408203" xlink:href="#DejaVuSans-65"/>
     <use x="504.931641" xlink:href="#DejaVuSans-20"/>
     <use x="536.71875" xlink:href="#DejaVuSans-66"/>
     <use x="571.923828" xlink:href="#DejaVuSans-75"/>
     <use x="635.302734" xlink:href="#DejaVuSans-6e"/>
     <use x="698.681641" xlink:href="#DejaVuSans-63"/>
     <use x="753.662109" xlink:href="#DejaVuSans-74"/>
     <use x="792.871094" xlink:href="#DejaVuSans-69"/>
     <use x="820.654297" xlink:href="#DejaVuSans-6f"/>
     <use x="881.835938" xlink:href="#DejaVuSans-6e"/>
     <use x="945.214844" xlink:href="#DejaVuSans-73"/>
     <use x="997.314453" xlink:href="#DejaVuSans-2c"/>
     <use x="1029.101562" xlink:href="#DejaVuSans-20"/>
     <use x="1060.888672" xlink:href="#DejaVuSans-35"/>
     <use x="1124.511719" xlink:href="#DejaVuSans-2d"/>
     <use x="1160.595703" xlink:href="#DejaVuSans-44"/>
    </g>
    <!-- 51 targets: 100..1e-08 -->
    <defs>
     <path d="M 11.71875 12.40625 
L 22.015625 12.40625 
L 22.015625 0 
L 11.71875 0 
z
M 11.71875 51.703125 
L 22.015625 51.703125 
L 22.015625 39.3125 
L 11.71875 39.3125 
z
" id="DejaVuSans-3a"/>
    </defs>
    <g transform="translate(59.55864 40.319519)scale(0.102 -0.102)">
     <use xlink:href="#DejaVuSans-35"/>
     <use x="63.623047" xlink:href="#DejaVuSans-31"/>
     <use x="127.246094" xlink:href="#DejaVuSans-20"/>
     <use x="159.033203" xlink:href="#DejaVuSans-74"/>
     <use x="198.242188" xlink:href="#DejaVuSans-61"/>
     <use x="259.521484" xlink:href="#DejaVuSans-72"/>
     <use x="300.619141" xlink:href="#DejaVuSans-67"/>
     <use x="364.095703" xlink:href="#DejaVuSans-65"/>
     <use x="425.619141" xlink:href="#DejaVuSans-74"/>
     <use x="464.828125" xlink:href="#DejaVuSans-73"/>
     <use x="516.927734" xlink:href="#DejaVuSans-3a"/>
     <use x="550.619141" xlink:href="#DejaVuSans-20"/>
     <use x="582.40625" xlink:href="#DejaVuSans-31"/>
     <use x="646.029297" xlink:href="#DejaVuSans-30"/>
     <use x="709.652344" xlink:href="#DejaVuSans-30"/>
     <use x="773.275391" xlink:href="#DejaVuSans-2e"/>
     <use x="805.0625" xlink:href="#DejaVuSans-2e"/>
     <use x="836.849609" xlink:href="#DejaVuSans-31"/>
     <use x="900.472656" xlink:href="#DejaVuSans-65"/>
     <use x="961.996094" xlink:href="#DejaVuSans-2d"/>
     <use x="998.080078" xlink:href="#DejaVuSans-30"/>
     <use x="1061.703125" xlink:href="#DejaVuSans-38"/>
    </g>
    <!-- 15 instances -->
    <g transform="translate(59.55864 51.741288)scale(0.102 -0.102)">
     <use xlink:href="#DejaVuSans-31"/>
     <use x="63.623047" xlink:href="#DejaVuSans-35"/>
     <use x="127.246094" xlink:href="#DejaVuSans-20"/>
     <use x="159.033203" xlink:href="#DejaVuSans-69"/>
     <use x="186.816406" xlink:href="#DejaVuSans-6e"/>
     <use x="250.195312" xlink:href="#DejaVuSans-73"/>
     <use x="302.294922" xlink:href="#DejaVuSans-74"/>
     <use x="341.503906" xlink:href="#DejaVuSans-61"/>
     <use x="402.783203" xlink:href="#DejaVuSans-6e"/>
     <use x="466.162109" xlink:href="#DejaVuSans-63"/>
     <use x="521.142578" xlink:href="#DejaVuSans-65"/>
     <use x="582.666016" xlink:href="#DejaVuSans-73"/>
    </g>
   </g>
   <g id="text_20">
    <!-- v2.2.1.10 -->
    <g style="fill:#808080;" transform="translate(204.419188 289.919965)scale(0.1 -0.1)">
     <use xlink:href="#DejaVuSans-76"/>
     <use x="59.179688" xlink:href="#DejaVuSans-32"/>
     <use x="122.802734" xlink:href="#DejaVuSans-2e"/>
     <use x="154.589844" xlink:href="#DejaVuSans-32"/>
     <use x="218.212891" xlink:href="#DejaVuSans-2e"/>
     <use x="250" xlink:href="#DejaVuSans-31"/>
     <use x="313.623047" xlink:href="#DejaVuSans-2e"/>
     <use x="345.410156" xlink:href="#DejaVuSans-31"/>
     <use x="409.033203" xlink:href="#DejaVuSans-30"/>
    </g>
   </g>
  </g>
 </g>
 <defs>
  <clipPath id="p53f1d51673">
   <rect height="288.034772" width="343.864" x="56.12" y="6.845228"/>
  </clipPath>
 </defs>
</svg>
