<?xml version="1.0" encoding="utf-8" standalone="no"?>
<!DOCTYPE svg PUBLIC "-//W3C//DTD SVG 1.1//EN"
  "http://www.w3.org/Graphics/SVG/1.1/DTD/svg11.dtd">
<!-- Created with matplotlib (http://matplotlib.org/) -->
<svg height="345.6pt" version="1.1" viewBox="0 0 460.8 345.6" width="460.8pt" xmlns="http://www.w3.org/2000/svg" xmlns:xlink="http://www.w3.org/1999/xlink">
 <defs>
  <style type="text/css">
*{stroke-linecap:butt;stroke-linejoin:round;}
  </style>
 </defs>
 <g id="figure_1">
  <g id="patch_1">
   <path d="M 0 345.6 
L 460.8 345.6 
L 460.8 0 
L 0 0 
z
" style="fill:#ffffff;"/>
  </g>
  <g id="axes_1">
   <g id="patch_2">
    <path d="M 56.12 294.88 
L 399.984 294.88 
L 399.984 6.845228 
L 56.12 6.845228 
z
" style="fill:#ffffff;"/>
   </g>
   <g id="matplotlib.axis_1">
    <g id="xtick_1">
     <g id="line2d_1">
      <path clip-path="url(#p79549df8f1)" d="M 56.12 294.88 
L 56.12 6.845228 
" style="fill:none;stroke:#b0b0b0;stroke-linecap:square;stroke-width:0.8;"/>
     </g>
     <g id="line2d_2">
      <defs>
       <path d="M 0 0 
L 0 3.5 
" id="me8d06449e2" style="stroke:#000000;stroke-width:0.8;"/>
      </defs>
      <g>
       <use style="stroke:#000000;stroke-width:0.8;" x="56.12" xlink:href="#me8d06449e2" y="294.88"/>
      </g>
     </g>
     <g id="text_1">
      <!-- 0 -->
      <defs>
       <path d="M 31.78125 66.40625 
Q 24.171875 66.40625 20.328125 58.90625 
Q 16.5 51.421875 16.5 36.375 
Q 16.5 21.390625 20.328125 13.890625 
Q 24.171875 6.390625 31.78125 6.390625 
Q 39.453125 6.390625 43.28125 13.890625 
Q 47.125 21.390625 47.125 36.375 
Q 47.125 51.421875 43.28125 58.90625 
Q 39.453125 66.40625 31.78125 66.40625 
z
M 31.78125 74.21875 
Q 44.046875 74.21875 50.515625 64.515625 
Q 56.984375 54.828125 56.984375 36.375 
Q 56.984375 17.96875 50.515625 8.265625 
Q 44.046875 -1.421875 31.78125 -1.421875 
Q 19.53125 -1.421875 13.0625 8.265625 
Q 6.59375 17.96875 6.59375 36.375 
Q 6.59375 54.828125 13.0625 64.515625 
Q 19.53125 74.21875 31.78125 74.21875 
z
" id="DejaVuSans-30"/>
      </defs>
      <g transform="translate(49.7575 317.076875)scale(0.2 -0.2)">
       <use xlink:href="#DejaVuSans-30"/>
      </g>
     </g>
    </g>
    <g id="xtick_2">
     <g id="line2d_3">
      <path clip-path="url(#p79549df8f1)" d="M 135.351336 294.88 
L 135.351336 6.845228 
" style="fill:none;stroke:#b0b0b0;stroke-linecap:square;stroke-width:0.8;"/>
     </g>
     <g id="line2d_4">
      <g>
       <use style="stroke:#000000;stroke-width:0.8;" x="135.351336" xlink:href="#me8d06449e2" y="294.88"/>
      </g>
     </g>
     <g id="text_2">
      <!-- 2 -->
      <defs>
       <path d="M 19.1875 8.296875 
L 53.609375 8.296875 
L 53.609375 0 
L 7.328125 0 
L 7.328125 8.296875 
Q 12.9375 14.109375 22.625 23.890625 
Q 32.328125 33.6875 34.8125 36.53125 
Q 39.546875 41.84375 41.421875 45.53125 
Q 43.3125 49.21875 43.3125 52.78125 
Q 43.3125 58.59375 39.234375 62.25 
Q 35.15625 65.921875 28.609375 65.921875 
Q 23.96875 65.921875 18.8125 64.3125 
Q 13.671875 62.703125 7.8125 59.421875 
L 7.8125 69.390625 
Q 13.765625 71.78125 18.9375 73 
Q 24.125 74.21875 28.421875 74.21875 
Q 39.75 74.21875 46.484375 68.546875 
Q 53.21875 62.890625 53.21875 53.421875 
Q 53.21875 48.921875 51.53125 44.890625 
Q 49.859375 40.875 45.40625 35.40625 
Q 44.1875 33.984375 37.640625 27.21875 
Q 31.109375 20.453125 19.1875 8.296875 
z
" id="DejaVuSans-32"/>
      </defs>
      <g transform="translate(128.988836 317.076875)scale(0.2 -0.2)">
       <use xlink:href="#DejaVuSans-32"/>
      </g>
     </g>
    </g>
    <g id="xtick_3">
     <g id="line2d_5">
      <path clip-path="url(#p79549df8f1)" d="M 214.582673 294.88 
L 214.582673 6.845228 
" style="fill:none;stroke:#b0b0b0;stroke-linecap:square;stroke-width:0.8;"/>
     </g>
     <g id="line2d_6">
      <g>
       <use style="stroke:#000000;stroke-width:0.8;" x="214.582673" xlink:href="#me8d06449e2" y="294.88"/>
      </g>
     </g>
     <g id="text_3">
      <!-- 4 -->
      <defs>
       <path d="M 37.796875 64.3125 
L 12.890625 25.390625 
L 37.796875 25.390625 
z
M 35.203125 72.90625 
L 47.609375 72.90625 
L 47.609375 25.390625 
L 58.015625 25.390625 
L 58.015625 17.1875 
L 47.609375 17.1875 
L 47.609375 0 
L 37.796875 0 
L 37.796875 17.1875 
L 4.890625 17.1875 
L 4.890625 26.703125 
z
" id="DejaVuSans-34"/>
      </defs>
      <g transform="translate(208.220173 317.076875)scale(0.2 -0.2)">
       <use xlink:href="#DejaVuSans-34"/>
      </g>
     </g>
    </g>
    <g id="xtick_4">
     <g id="line2d_7">
      <path clip-path="url(#p79549df8f1)" d="M 293.814009 294.88 
L 293.814009 6.845228 
" style="fill:none;stroke:#b0b0b0;stroke-linecap:square;stroke-width:0.8;"/>
     </g>
     <g id="line2d_8">
      <g>
       <use style="stroke:#000000;stroke-width:0.8;" x="293.814009" xlink:href="#me8d06449e2" y="294.88"/>
      </g>
     </g>
     <g id="text_4">
      <!-- 6 -->
      <defs>
       <path d="M 33.015625 40.375 
Q 26.375 40.375 22.484375 35.828125 
Q 18.609375 31.296875 18.609375 23.390625 
Q 18.609375 15.53125 22.484375 10.953125 
Q 26.375 6.390625 33.015625 6.390625 
Q 39.65625 6.390625 43.53125 10.953125 
Q 47.40625 15.53125 47.40625 23.390625 
Q 47.40625 31.296875 43.53125 35.828125 
Q 39.65625 40.375 33.015625 40.375 
z
M 52.59375 71.296875 
L 52.59375 62.3125 
Q 48.875 64.0625 45.09375 64.984375 
Q 41.3125 65.921875 37.59375 65.921875 
Q 27.828125 65.921875 22.671875 59.328125 
Q 17.53125 52.734375 16.796875 39.40625 
Q 19.671875 43.65625 24.015625 45.921875 
Q 28.375 48.1875 33.59375 48.1875 
Q 44.578125 48.1875 50.953125 41.515625 
Q 57.328125 34.859375 57.328125 23.390625 
Q 57.328125 12.15625 50.6875 5.359375 
Q 44.046875 -1.421875 33.015625 -1.421875 
Q 20.359375 -1.421875 13.671875 8.265625 
Q 6.984375 17.96875 6.984375 36.375 
Q 6.984375 53.65625 15.1875 63.9375 
Q 23.390625 74.21875 37.203125 74.21875 
Q 40.921875 74.21875 44.703125 73.484375 
Q 48.484375 72.75 52.59375 71.296875 
z
" id="DejaVuSans-36"/>
      </defs>
      <g transform="translate(287.451509 317.076875)scale(0.2 -0.2)">
       <use xlink:href="#DejaVuSans-36"/>
      </g>
     </g>
    </g>
    <g id="xtick_5">
     <g id="line2d_9">
      <path clip-path="url(#p79549df8f1)" d="M 373.045346 294.88 
L 373.045346 6.845228 
" style="fill:none;stroke:#b0b0b0;stroke-linecap:square;stroke-width:0.8;"/>
     </g>
     <g id="line2d_10">
      <g>
       <use style="stroke:#000000;stroke-width:0.8;" x="373.045346" xlink:href="#me8d06449e2" y="294.88"/>
      </g>
     </g>
     <g id="text_5">
      <!-- 8 -->
      <defs>
       <path d="M 31.78125 34.625 
Q 24.75 34.625 20.71875 30.859375 
Q 16.703125 27.09375 16.703125 20.515625 
Q 16.703125 13.921875 20.71875 10.15625 
Q 24.75 6.390625 31.78125 6.390625 
Q 38.8125 6.390625 42.859375 10.171875 
Q 46.921875 13.96875 46.921875 20.515625 
Q 46.921875 27.09375 42.890625 30.859375 
Q 38.875 34.625 31.78125 34.625 
z
M 21.921875 38.8125 
Q 15.578125 40.375 12.03125 44.71875 
Q 8.5 49.078125 8.5 55.328125 
Q 8.5 64.0625 14.71875 69.140625 
Q 20.953125 74.21875 31.78125 74.21875 
Q 42.671875 74.21875 48.875 69.140625 
Q 55.078125 64.0625 55.078125 55.328125 
Q 55.078125 49.078125 51.53125 44.71875 
Q 48 40.375 41.703125 38.8125 
Q 48.828125 37.15625 52.796875 32.3125 
Q 56.78125 27.484375 56.78125 20.515625 
Q 56.78125 9.90625 50.3125 4.234375 
Q 43.84375 -1.421875 31.78125 -1.421875 
Q 19.734375 -1.421875 13.25 4.234375 
Q 6.78125 9.90625 6.78125 20.515625 
Q 6.78125 27.484375 10.78125 32.3125 
Q 14.796875 37.15625 21.921875 38.8125 
z
M 18.3125 54.390625 
Q 18.3125 48.734375 21.84375 45.5625 
Q 25.390625 42.390625 31.78125 42.390625 
Q 38.140625 42.390625 41.71875 45.5625 
Q 45.3125 48.734375 45.3125 54.390625 
Q 45.3125 60.0625 41.71875 63.234375 
Q 38.140625 66.40625 31.78125 66.40625 
Q 25.390625 66.40625 21.84375 63.234375 
Q 18.3125 60.0625 18.3125 54.390625 
z
" id="DejaVuSans-38"/>
      </defs>
      <g transform="translate(366.682846 317.076875)scale(0.2 -0.2)">
       <use xlink:href="#DejaVuSans-38"/>
      </g>
     </g>
    </g>
    <g id="text_6">
     <!-- log10(# f-evals / dimension) -->
     <defs>
      <path d="M 9.421875 75.984375 
L 18.40625 75.984375 
L 18.40625 0 
L 9.421875 0 
z
" id="DejaVuSans-6c"/>
      <path d="M 30.609375 48.390625 
Q 23.390625 48.390625 19.1875 42.75 
Q 14.984375 37.109375 14.984375 27.296875 
Q 14.984375 17.484375 19.15625 11.84375 
Q 23.34375 6.203125 30.609375 6.203125 
Q 37.796875 6.203125 41.984375 11.859375 
Q 46.1875 17.53125 46.1875 27.296875 
Q 46.1875 37.015625 41.984375 42.703125 
Q 37.796875 48.390625 30.609375 48.390625 
z
M 30.609375 56 
Q 42.328125 56 49.015625 48.375 
Q 55.71875 40.765625 55.71875 27.296875 
Q 55.71875 13.875 49.015625 6.21875 
Q 42.328125 -1.421875 30.609375 -1.421875 
Q 18.84375 -1.421875 12.171875 6.21875 
Q 5.515625 13.875 5.515625 27.296875 
Q 5.515625 40.765625 12.171875 48.375 
Q 18.84375 56 30.609375 56 
z
" id="DejaVuSans-6f"/>
      <path d="M 45.40625 27.984375 
Q 45.40625 37.75 41.375 43.109375 
Q 37.359375 48.484375 30.078125 48.484375 
Q 22.859375 48.484375 18.828125 43.109375 
Q 14.796875 37.75 14.796875 27.984375 
Q 14.796875 18.265625 18.828125 12.890625 
Q 22.859375 7.515625 30.078125 7.515625 
Q 37.359375 7.515625 41.375 12.890625 
Q 45.40625 18.265625 45.40625 27.984375 
z
M 54.390625 6.78125 
Q 54.390625 -7.171875 48.1875 -13.984375 
Q 42 -20.796875 29.203125 -20.796875 
Q 24.46875 -20.796875 20.265625 -20.09375 
Q 16.0625 -19.390625 12.109375 -17.921875 
L 12.109375 -9.1875 
Q 16.0625 -11.328125 19.921875 -12.34375 
Q 23.78125 -13.375 27.78125 -13.375 
Q 36.625 -13.375 41.015625 -8.765625 
Q 45.40625 -4.15625 45.40625 5.171875 
L 45.40625 9.625 
Q 42.625 4.78125 38.28125 2.390625 
Q 33.9375 0 27.875 0 
Q 17.828125 0 11.671875 7.65625 
Q 5.515625 15.328125 5.515625 27.984375 
Q 5.515625 40.671875 11.671875 48.328125 
Q 17.828125 56 27.875 56 
Q 33.9375 56 38.28125 53.609375 
Q 42.625 51.21875 45.40625 46.390625 
L 45.40625 54.6875 
L 54.390625 54.6875 
z
" id="DejaVuSans-67"/>
      <path d="M 12.40625 8.296875 
L 28.515625 8.296875 
L 28.515625 63.921875 
L 10.984375 60.40625 
L 10.984375 69.390625 
L 28.421875 72.90625 
L 38.28125 72.90625 
L 38.28125 8.296875 
L 54.390625 8.296875 
L 54.390625 0 
L 12.40625 0 
z
" id="DejaVuSans-31"/>
      <path d="M 31 75.875 
Q 24.46875 64.65625 21.28125 53.65625 
Q 18.109375 42.671875 18.109375 31.390625 
Q 18.109375 20.125 21.3125 9.0625 
Q 24.515625 -2 31 -13.1875 
L 23.1875 -13.1875 
Q 15.875 -1.703125 12.234375 9.375 
Q 8.59375 20.453125 8.59375 31.390625 
Q 8.59375 42.28125 12.203125 53.3125 
Q 15.828125 64.359375 23.1875 75.875 
z
" id="DejaVuSans-28"/>
      <path d="M 51.125 44 
L 36.921875 44 
L 32.8125 27.6875 
L 47.125 27.6875 
z
M 43.796875 71.78125 
L 38.71875 51.515625 
L 52.984375 51.515625 
L 58.109375 71.78125 
L 65.921875 71.78125 
L 60.890625 51.515625 
L 76.125 51.515625 
L 76.125 44 
L 58.984375 44 
L 54.984375 27.6875 
L 70.515625 27.6875 
L 70.515625 20.21875 
L 53.078125 20.21875 
L 48 0 
L 40.1875 0 
L 45.21875 20.21875 
L 30.90625 20.21875 
L 25.875 0 
L 18.015625 0 
L 23.09375 20.21875 
L 7.71875 20.21875 
L 7.71875 27.6875 
L 24.90625 27.6875 
L 29 44 
L 13.28125 44 
L 13.28125 51.515625 
L 30.90625 51.515625 
L 35.890625 71.78125 
z
" id="DejaVuSans-23"/>
      <path id="DejaVuSans-20"/>
      <path d="M 37.109375 75.984375 
L 37.109375 68.5 
L 28.515625 68.5 
Q 23.6875 68.5 21.796875 66.546875 
Q 19.921875 64.59375 19.921875 59.515625 
L 19.921875 54.6875 
L 34.71875 54.6875 
L 34.71875 47.703125 
L 19.921875 47.703125 
L 19.921875 0 
L 10.890625 0 
L 10.890625 47.703125 
L 2.296875 47.703125 
L 2.296875 54.6875 
L 10.890625 54.6875 
L 10.890625 58.5 
Q 10.890625 67.625 15.140625 71.796875 
Q 19.390625 75.984375 28.609375 75.984375 
z
" id="DejaVuSans-66"/>
      <path d="M 4.890625 31.390625 
L 31.203125 31.390625 
L 31.203125 23.390625 
L 4.890625 23.390625 
z
" id="DejaVuSans-2d"/>
      <path d="M 56.203125 29.59375 
L 56.203125 25.203125 
L 14.890625 25.203125 
Q 15.484375 15.921875 20.484375 11.0625 
Q 25.484375 6.203125 34.421875 6.203125 
Q 39.59375 6.203125 44.453125 7.46875 
Q 49.3125 8.734375 54.109375 11.28125 
L 54.109375 2.78125 
Q 49.265625 0.734375 44.1875 -0.34375 
Q 39.109375 -1.421875 33.890625 -1.421875 
Q 20.796875 -1.421875 13.15625 6.1875 
Q 5.515625 13.8125 5.515625 26.8125 
Q 5.515625 40.234375 12.765625 48.109375 
Q 20.015625 56 32.328125 56 
Q 43.359375 56 49.78125 48.890625 
Q 56.203125 41.796875 56.203125 29.59375 
z
M 47.21875 32.234375 
Q 47.125 39.59375 43.09375 43.984375 
Q 39.0625 48.390625 32.421875 48.390625 
Q 24.90625 48.390625 20.390625 44.140625 
Q 15.875 39.890625 15.1875 32.171875 
z
" id="DejaVuSans-65"/>
      <path d="M 2.984375 54.6875 
L 12.5 54.6875 
L 29.59375 8.796875 
L 46.6875 54.6875 
L 56.203125 54.6875 
L 35.6875 0 
L 23.484375 0 
z
" id="DejaVuSans-76"/>
      <path d="M 34.28125 27.484375 
Q 23.390625 27.484375 19.1875 25 
Q 14.984375 22.515625 14.984375 16.5 
Q 14.984375 11.71875 18.140625 8.90625 
Q 21.296875 6.109375 26.703125 6.109375 
Q 34.1875 6.109375 38.703125 11.40625 
Q 43.21875 16.703125 43.21875 25.484375 
L 43.21875 27.484375 
z
M 52.203125 31.203125 
L 52.203125 0 
L 43.21875 0 
L 43.21875 8.296875 
Q 40.140625 3.328125 35.546875 0.953125 
Q 30.953125 -1.421875 24.3125 -1.421875 
Q 15.921875 -1.421875 10.953125 3.296875 
Q 6 8.015625 6 15.921875 
Q 6 25.140625 12.171875 29.828125 
Q 18.359375 34.515625 30.609375 34.515625 
L 43.21875 34.515625 
L 43.21875 35.40625 
Q 43.21875 41.609375 39.140625 45 
Q 35.0625 48.390625 27.6875 48.390625 
Q 23 48.390625 18.546875 47.265625 
Q 14.109375 46.140625 10.015625 43.890625 
L 10.015625 52.203125 
Q 14.9375 54.109375 19.578125 55.046875 
Q 24.21875 56 28.609375 56 
Q 40.484375 56 46.34375 49.84375 
Q 52.203125 43.703125 52.203125 31.203125 
z
" id="DejaVuSans-61"/>
      <path d="M 44.28125 53.078125 
L 44.28125 44.578125 
Q 40.484375 46.53125 36.375 47.5 
Q 32.28125 48.484375 27.875 48.484375 
Q 21.1875 48.484375 17.84375 46.4375 
Q 14.5 44.390625 14.5 40.28125 
Q 14.5 37.15625 16.890625 35.375 
Q 19.28125 33.59375 26.515625 31.984375 
L 29.59375 31.296875 
Q 39.15625 29.25 43.1875 25.515625 
Q 47.21875 21.78125 47.21875 15.09375 
Q 47.21875 7.46875 41.1875 3.015625 
Q 35.15625 -1.421875 24.609375 -1.421875 
Q 20.21875 -1.421875 15.453125 -0.5625 
Q 10.6875 0.296875 5.421875 2 
L 5.421875 11.28125 
Q 10.40625 8.6875 15.234375 7.390625 
Q 20.0625 6.109375 24.8125 6.109375 
Q 31.15625 6.109375 34.5625 8.28125 
Q 37.984375 10.453125 37.984375 14.40625 
Q 37.984375 18.0625 35.515625 20.015625 
Q 33.0625 21.96875 24.703125 23.78125 
L 21.578125 24.515625 
Q 13.234375 26.265625 9.515625 29.90625 
Q 5.8125 33.546875 5.8125 39.890625 
Q 5.8125 47.609375 11.28125 51.796875 
Q 16.75 56 26.8125 56 
Q 31.78125 56 36.171875 55.265625 
Q 40.578125 54.546875 44.28125 53.078125 
z
" id="DejaVuSans-73"/>
      <path d="M 25.390625 72.90625 
L 33.6875 72.90625 
L 8.296875 -9.28125 
L 0 -9.28125 
z
" id="DejaVuSans-2f"/>
      <path d="M 45.40625 46.390625 
L 45.40625 75.984375 
L 54.390625 75.984375 
L 54.390625 0 
L 45.40625 0 
L 45.40625 8.203125 
Q 42.578125 3.328125 38.25 0.953125 
Q 33.9375 -1.421875 27.875 -1.421875 
Q 17.96875 -1.421875 11.734375 6.484375 
Q 5.515625 14.40625 5.515625 27.296875 
Q 5.515625 40.1875 11.734375 48.09375 
Q 17.96875 56 27.875 56 
Q 33.9375 56 38.25 53.625 
Q 42.578125 51.265625 45.40625 46.390625 
z
M 14.796875 27.296875 
Q 14.796875 17.390625 18.875 11.75 
Q 22.953125 6.109375 30.078125 6.109375 
Q 37.203125 6.109375 41.296875 11.75 
Q 45.40625 17.390625 45.40625 27.296875 
Q 45.40625 37.203125 41.296875 42.84375 
Q 37.203125 48.484375 30.078125 48.484375 
Q 22.953125 48.484375 18.875 42.84375 
Q 14.796875 37.203125 14.796875 27.296875 
z
" id="DejaVuSans-64"/>
      <path d="M 9.421875 54.6875 
L 18.40625 54.6875 
L 18.40625 0 
L 9.421875 0 
z
M 9.421875 75.984375 
L 18.40625 75.984375 
L 18.40625 64.59375 
L 9.421875 64.59375 
z
" id="DejaVuSans-69"/>
      <path d="M 52 44.1875 
Q 55.375 50.25 60.0625 53.125 
Q 64.75 56 71.09375 56 
Q 79.640625 56 84.28125 50.015625 
Q 88.921875 44.046875 88.921875 33.015625 
L 88.921875 0 
L 79.890625 0 
L 79.890625 32.71875 
Q 79.890625 40.578125 77.09375 44.375 
Q 74.3125 48.1875 68.609375 48.1875 
Q 61.625 48.1875 57.5625 43.546875 
Q 53.515625 38.921875 53.515625 30.90625 
L 53.515625 0 
L 44.484375 0 
L 44.484375 32.71875 
Q 44.484375 40.625 41.703125 44.40625 
Q 38.921875 48.1875 33.109375 48.1875 
Q 26.21875 48.1875 22.15625 43.53125 
Q 18.109375 38.875 18.109375 30.90625 
L 18.109375 0 
L 9.078125 0 
L 9.078125 54.6875 
L 18.109375 54.6875 
L 18.109375 46.1875 
Q 21.1875 51.21875 25.484375 53.609375 
Q 29.78125 56 35.6875 56 
Q 41.65625 56 45.828125 52.96875 
Q 50 49.953125 52 44.1875 
z
" id="DejaVuSans-6d"/>
      <path d="M 54.890625 33.015625 
L 54.890625 0 
L 45.90625 0 
L 45.90625 32.71875 
Q 45.90625 40.484375 42.875 44.328125 
Q 39.84375 48.1875 33.796875 48.1875 
Q 26.515625 48.1875 22.3125 43.546875 
Q 18.109375 38.921875 18.109375 30.90625 
L 18.109375 0 
L 9.078125 0 
L 9.078125 54.6875 
L 18.109375 54.6875 
L 18.109375 46.1875 
Q 21.34375 51.125 25.703125 53.5625 
Q 30.078125 56 35.796875 56 
Q 45.21875 56 50.046875 50.171875 
Q 54.890625 44.34375 54.890625 33.015625 
z
" id="DejaVuSans-6e"/>
      <path d="M 8.015625 75.875 
L 15.828125 75.875 
Q 23.140625 64.359375 26.78125 53.3125 
Q 30.421875 42.28125 30.421875 31.390625 
Q 30.421875 20.453125 26.78125 9.375 
Q 23.140625 -1.703125 15.828125 -13.1875 
L 8.015625 -13.1875 
Q 14.5 -2 17.703125 9.0625 
Q 20.90625 20.125 20.90625 31.390625 
Q 20.90625 42.671875 17.703125 53.65625 
Q 14.5 64.65625 8.015625 75.875 
z
" id="DejaVuSans-29"/>
     </defs>
     <g transform="translate(107.211219 338.153594)scale(0.17 -0.17)">
      <use xlink:href="#DejaVuSans-6c"/>
      <use x="27.783203" xlink:href="#DejaVuSans-6f"/>
      <use x="88.964844" xlink:href="#DejaVuSans-67"/>
      <use x="152.441406" xlink:href="#DejaVuSans-31"/>
      <use x="216.064453" xlink:href="#DejaVuSans-30"/>
      <use x="279.6875" xlink:href="#DejaVuSans-28"/>
      <use x="318.701172" xlink:href="#DejaVuSans-23"/>
      <use x="402.490234" xlink:href="#DejaVuSans-20"/>
      <use x="434.277344" xlink:href="#DejaVuSans-66"/>
      <use x="469.404297" xlink:href="#DejaVuSans-2d"/>
      <use x="505.488281" xlink:href="#DejaVuSans-65"/>
      <use x="567.011719" xlink:href="#DejaVuSans-76"/>
      <use x="626.191406" xlink:href="#DejaVuSans-61"/>
      <use x="687.470703" xlink:href="#DejaVuSans-6c"/>
      <use x="715.253906" xlink:href="#DejaVuSans-73"/>
      <use x="767.353516" xlink:href="#DejaVuSans-20"/>
      <use x="799.140625" xlink:href="#DejaVuSans-2f"/>
      <use x="832.832031" xlink:href="#DejaVuSans-20"/>
      <use x="864.619141" xlink:href="#DejaVuSans-64"/>
      <use x="928.095703" xlink:href="#DejaVuSans-69"/>
      <use x="955.878906" xlink:href="#DejaVuSans-6d"/>
      <use x="1053.291016" xlink:href="#DejaVuSans-65"/>
      <use x="1114.814453" xlink:href="#DejaVuSans-6e"/>
      <use x="1178.193359" xlink:href="#DejaVuSans-73"/>
      <use x="1230.292969" xlink:href="#DejaVuSans-69"/>
      <use x="1258.076172" xlink:href="#DejaVuSans-6f"/>
      <use x="1319.257812" xlink:href="#DejaVuSans-6e"/>
      <use x="1382.636719" xlink:href="#DejaVuSans-29"/>
     </g>
    </g>
   </g>
   <g id="matplotlib.axis_2">
    <g id="ytick_1">
     <g id="line2d_11">
      <path clip-path="url(#p79549df8f1)" d="M 56.12 294.88 
L 399.984 294.88 
" style="fill:none;stroke:#b0b0b0;stroke-linecap:square;stroke-width:0.8;"/>
     </g>
     <g id="line2d_12">
      <defs>
       <path d="M 0 0 
L -3.5 0 
" id="m0eda223abf" style="stroke:#000000;stroke-width:0.8;"/>
      </defs>
      <g>
       <use style="stroke:#000000;stroke-width:0.8;" x="56.12" xlink:href="#m0eda223abf" y="294.88"/>
      </g>
     </g>
     <g id="text_7">
      <!-- 0.0 -->
      <defs>
       <path d="M 10.6875 12.40625 
L 21 12.40625 
L 21 0 
L 10.6875 0 
z
" id="DejaVuSans-2e"/>
      </defs>
      <g transform="translate(23.675 300.95875)scale(0.16 -0.16)">
       <use xlink:href="#DejaVuSans-30"/>
       <use x="63.623047" xlink:href="#DejaVuSans-2e"/>
       <use x="95.410156" xlink:href="#DejaVuSans-30"/>
      </g>
     </g>
    </g>
    <g id="ytick_2">
     <g id="line2d_13">
      <path clip-path="url(#p79549df8f1)" d="M 56.12 237.843411 
L 399.984 237.843411 
" style="fill:none;stroke:#b0b0b0;stroke-linecap:square;stroke-width:0.8;"/>
     </g>
     <g id="line2d_14">
      <g>
       <use style="stroke:#000000;stroke-width:0.8;" x="56.12" xlink:href="#m0eda223abf" y="237.843411"/>
      </g>
     </g>
     <g id="text_8">
      <!-- 0.2 -->
      <g transform="translate(23.675 243.922161)scale(0.16 -0.16)">
       <use xlink:href="#DejaVuSans-30"/>
       <use x="63.623047" xlink:href="#DejaVuSans-2e"/>
       <use x="95.410156" xlink:href="#DejaVuSans-32"/>
      </g>
     </g>
    </g>
    <g id="ytick_3">
     <g id="line2d_15">
      <path clip-path="url(#p79549df8f1)" d="M 56.12 180.806823 
L 399.984 180.806823 
" style="fill:none;stroke:#b0b0b0;stroke-linecap:square;stroke-width:0.8;"/>
     </g>
     <g id="line2d_16">
      <g>
       <use style="stroke:#000000;stroke-width:0.8;" x="56.12" xlink:href="#m0eda223abf" y="180.806823"/>
      </g>
     </g>
     <g id="text_9">
      <!-- 0.4 -->
      <g transform="translate(23.675 186.885573)scale(0.16 -0.16)">
       <use xlink:href="#DejaVuSans-30"/>
       <use x="63.623047" xlink:href="#DejaVuSans-2e"/>
       <use x="95.410156" xlink:href="#DejaVuSans-34"/>
      </g>
     </g>
    </g>
    <g id="ytick_4">
     <g id="line2d_17">
      <path clip-path="url(#p79549df8f1)" d="M 56.12 123.770234 
L 399.984 123.770234 
" style="fill:none;stroke:#b0b0b0;stroke-linecap:square;stroke-width:0.8;"/>
     </g>
     <g id="line2d_18">
      <g>
       <use style="stroke:#000000;stroke-width:0.8;" x="56.12" xlink:href="#m0eda223abf" y="123.770234"/>
      </g>
     </g>
     <g id="text_10">
      <!-- 0.6 -->
      <g transform="translate(23.675 129.848984)scale(0.16 -0.16)">
       <use xlink:href="#DejaVuSans-30"/>
       <use x="63.623047" xlink:href="#DejaVuSans-2e"/>
       <use x="95.410156" xlink:href="#DejaVuSans-36"/>
      </g>
     </g>
    </g>
    <g id="ytick_5">
     <g id="line2d_19">
      <path clip-path="url(#p79549df8f1)" d="M 56.12 66.733646 
L 399.984 66.733646 
" style="fill:none;stroke:#b0b0b0;stroke-linecap:square;stroke-width:0.8;"/>
     </g>
     <g id="line2d_20">
      <g>
       <use style="stroke:#000000;stroke-width:0.8;" x="56.12" xlink:href="#m0eda223abf" y="66.733646"/>
      </g>
     </g>
     <g id="text_11">
      <!-- 0.8 -->
      <g transform="translate(23.675 72.812396)scale(0.16 -0.16)">
       <use xlink:href="#DejaVuSans-30"/>
       <use x="63.623047" xlink:href="#DejaVuSans-2e"/>
       <use x="95.410156" xlink:href="#DejaVuSans-38"/>
      </g>
     </g>
    </g>
    <g id="ytick_6">
     <g id="line2d_21">
      <path clip-path="url(#p79549df8f1)" d="M 56.12 9.697057 
L 399.984 9.697057 
" style="fill:none;stroke:#b0b0b0;stroke-linecap:square;stroke-width:0.8;"/>
     </g>
     <g id="line2d_22">
      <g>
       <use style="stroke:#000000;stroke-width:0.8;" x="56.12" xlink:href="#m0eda223abf" y="9.697057"/>
      </g>
     </g>
     <g id="text_12">
      <!-- 1.0 -->
      <g transform="translate(23.675 15.775807)scale(0.16 -0.16)">
       <use xlink:href="#DejaVuSans-31"/>
       <use x="63.623047" xlink:href="#DejaVuSans-2e"/>
       <use x="95.410156" xlink:href="#DejaVuSans-30"/>
      </g>
     </g>
    </g>
    <g id="text_13">
     <!-- Fraction of function,target pairs -->
     <defs>
      <path d="M 9.8125 72.90625 
L 51.703125 72.90625 
L 51.703125 64.59375 
L 19.671875 64.59375 
L 19.671875 43.109375 
L 48.578125 43.109375 
L 48.578125 34.8125 
L 19.671875 34.8125 
L 19.671875 0 
L 9.8125 0 
z
" id="DejaVuSans-46"/>
      <path d="M 41.109375 46.296875 
Q 39.59375 47.171875 37.8125 47.578125 
Q 36.03125 48 33.890625 48 
Q 26.265625 48 22.1875 43.046875 
Q 18.109375 38.09375 18.109375 28.8125 
L 18.109375 0 
L 9.078125 0 
L 9.078125 54.6875 
L 18.109375 54.6875 
L 18.109375 46.1875 
Q 20.953125 51.171875 25.484375 53.578125 
Q 30.03125 56 36.53125 56 
Q 37.453125 56 38.578125 55.875 
Q 39.703125 55.765625 41.0625 55.515625 
z
" id="DejaVuSans-72"/>
      <path d="M 48.78125 52.59375 
L 48.78125 44.1875 
Q 44.96875 46.296875 41.140625 47.34375 
Q 37.3125 48.390625 33.40625 48.390625 
Q 24.65625 48.390625 19.8125 42.84375 
Q 14.984375 37.3125 14.984375 27.296875 
Q 14.984375 17.28125 19.8125 11.734375 
Q 24.65625 6.203125 33.40625 6.203125 
Q 37.3125 6.203125 41.140625 7.25 
Q 44.96875 8.296875 48.78125 10.40625 
L 48.78125 2.09375 
Q 45.015625 0.34375 40.984375 -0.53125 
Q 36.96875 -1.421875 32.421875 -1.421875 
Q 20.0625 -1.421875 12.78125 6.34375 
Q 5.515625 14.109375 5.515625 27.296875 
Q 5.515625 40.671875 12.859375 48.328125 
Q 20.21875 56 33.015625 56 
Q 37.15625 56 41.109375 55.140625 
Q 45.0625 54.296875 48.78125 52.59375 
z
" id="DejaVuSans-63"/>
      <path d="M 18.3125 70.21875 
L 18.3125 54.6875 
L 36.8125 54.6875 
L 36.8125 47.703125 
L 18.3125 47.703125 
L 18.3125 18.015625 
Q 18.3125 11.328125 20.140625 9.421875 
Q 21.96875 7.515625 27.59375 7.515625 
L 36.8125 7.515625 
L 36.8125 0 
L 27.59375 0 
Q 17.1875 0 13.234375 3.875 
Q 9.28125 7.765625 9.28125 18.015625 
L 9.28125 47.703125 
L 2.6875 47.703125 
L 2.6875 54.6875 
L 9.28125 54.6875 
L 9.28125 70.21875 
z
" id="DejaVuSans-74"/>
      <path d="M 8.5 21.578125 
L 8.5 54.6875 
L 17.484375 54.6875 
L 17.484375 21.921875 
Q 17.484375 14.15625 20.5 10.265625 
Q 23.53125 6.390625 29.59375 6.390625 
Q 36.859375 6.390625 41.078125 11.03125 
Q 45.3125 15.671875 45.3125 23.6875 
L 45.3125 54.6875 
L 54.296875 54.6875 
L 54.296875 0 
L 45.3125 0 
L 45.3125 8.40625 
Q 42.046875 3.421875 37.71875 1 
Q 33.40625 -1.421875 27.6875 -1.421875 
Q 18.265625 -1.421875 13.375 4.4375 
Q 8.5 10.296875 8.5 21.578125 
z
M 31.109375 56 
z
" id="DejaVuSans-75"/>
      <path d="M 11.71875 12.40625 
L 22.015625 12.40625 
L 22.015625 4 
L 14.015625 -11.625 
L 7.71875 -11.625 
L 11.71875 4 
z
" id="DejaVuSans-2c"/>
      <path d="M 18.109375 8.203125 
L 18.109375 -20.796875 
L 9.078125 -20.796875 
L 9.078125 54.6875 
L 18.109375 54.6875 
L 18.109375 46.390625 
Q 20.953125 51.265625 25.265625 53.625 
Q 29.59375 56 35.59375 56 
Q 45.5625 56 51.78125 48.09375 
Q 58.015625 40.1875 58.015625 27.296875 
Q 58.015625 14.40625 51.78125 6.484375 
Q 45.5625 -1.421875 35.59375 -1.421875 
Q 29.59375 -1.421875 25.265625 0.953125 
Q 20.953125 3.328125 18.109375 8.203125 
z
M 48.6875 27.296875 
Q 48.6875 37.203125 44.609375 42.84375 
Q 40.53125 48.484375 33.40625 48.484375 
Q 26.265625 48.484375 22.1875 42.84375 
Q 18.109375 37.203125 18.109375 27.296875 
Q 18.109375 17.390625 22.1875 11.75 
Q 26.265625 6.109375 33.40625 6.109375 
Q 40.53125 6.109375 44.609375 11.75 
Q 48.6875 17.390625 48.6875 27.296875 
z
" id="DejaVuSans-70"/>
     </defs>
     <g transform="translate(16.139531 286.001989)rotate(-90)scale(0.17 -0.17)">
      <use xlink:href="#DejaVuSans-46"/>
      <use x="57.410156" xlink:href="#DejaVuSans-72"/>
      <use x="98.523438" xlink:href="#DejaVuSans-61"/>
      <use x="159.802734" xlink:href="#DejaVuSans-63"/>
      <use x="214.783203" xlink:href="#DejaVuSans-74"/>
      <use x="253.992188" xlink:href="#DejaVuSans-69"/>
      <use x="281.775391" xlink:href="#DejaVuSans-6f"/>
      <use x="342.957031" xlink:href="#DejaVuSans-6e"/>
      <use x="406.335938" xlink:href="#DejaVuSans-20"/>
      <use x="438.123047" xlink:href="#DejaVuSans-6f"/>
      <use x="499.304688" xlink:href="#DejaVuSans-66"/>
      <use x="534.509766" xlink:href="#DejaVuSans-20"/>
      <use x="566.296875" xlink:href="#DejaVuSans-66"/>
      <use x="601.501953" xlink:href="#DejaVuSans-75"/>
      <use x="664.880859" xlink:href="#DejaVuSans-6e"/>
      <use x="728.259766" xlink:href="#DejaVuSans-63"/>
      <use x="783.240234" xlink:href="#DejaVuSans-74"/>
      <use x="822.449219" xlink:href="#DejaVuSans-69"/>
      <use x="850.232422" xlink:href="#DejaVuSans-6f"/>
      <use x="911.414062" xlink:href="#DejaVuSans-6e"/>
      <use x="974.792969" xlink:href="#DejaVuSans-2c"/>
      <use x="1006.580078" xlink:href="#DejaVuSans-74"/>
      <use x="1045.789062" xlink:href="#DejaVuSans-61"/>
      <use x="1107.068359" xlink:href="#DejaVuSans-72"/>
      <use x="1148.166016" xlink:href="#DejaVuSans-67"/>
      <use x="1211.642578" xlink:href="#DejaVuSans-65"/>
      <use x="1273.166016" xlink:href="#DejaVuSans-74"/>
      <use x="1312.375" xlink:href="#DejaVuSans-20"/>
      <use x="1344.162109" xlink:href="#DejaVuSans-70"/>
      <use x="1407.638672" xlink:href="#DejaVuSans-61"/>
      <use x="1468.917969" xlink:href="#DejaVuSans-69"/>
      <use x="1496.701172" xlink:href="#DejaVuSans-72"/>
      <use x="1537.814453" xlink:href="#DejaVuSans-73"/>
     </g>
    </g>
   </g>
   <g id="line2d_23">
    <defs>
     <path d="M 0 1.5 
C 0.397805 1.5 0.77937 1.341951 1.06066 1.06066 
C 1.341951 0.77937 1.5 0.397805 1.5 0 
C 1.5 -0.397805 1.341951 -0.77937 1.06066 -1.06066 
C 0.77937 -1.341951 0.397805 -1.5 0 -1.5 
C -0.397805 -1.5 -0.77937 -1.341951 -1.06066 -1.06066 
C -1.341951 -0.77937 -1.5 -0.397805 -1.5 0 
C -1.5 0.397805 -1.341951 0.77937 -1.06066 1.06066 
C -0.77937 1.341951 -0.397805 1.5 0 1.5 
z
" id="m1f2329f724" style="stroke:#00bfbf;"/>
    </defs>
    <g>
     <use style="fill:#00bfbf;stroke:#00bfbf;" x="263.129341" xlink:href="#m1f2329f724" y="111.980809"/>
     <use style="fill:#00bfbf;stroke:#00bfbf;" x="263.129341" xlink:href="#m1f2329f724" y="111.980809"/>
    </g>
   </g>
   <g id="line2d_24">
    <path d="M 56.12 294.88 
L 56.12 286.282573 
L 68.045504 286.282573 
L 68.045504 281.482925 
L 75.021477 281.482925 
L 75.021477 278.710314 
L 79.971009 278.710314 
L 79.971009 276.753176 
L 83.810164 276.753176 
L 83.810164 275.68141 
L 86.946982 275.68141 
L 86.946982 274.027162 
L 89.599124 274.027162 
L 89.599124 272.233119 
L 91.896513 272.233119 
L 91.896513 271.417645 
L 93.922955 271.417645 
L 93.922955 270.392478 
L 95.735668 270.392478 
L 95.735668 269.320712 
L 97.375467 269.320712 
L 97.375467 268.901325 
L 98.872486 268.901325 
L 98.872486 267.946055 
L 100.24961 267.946055 
L 100.24961 266.734494 
L 101.524628 266.734494 
L 101.524628 265.91902 
L 102.711641 265.91902 
L 102.711641 265.406436 
L 103.822018 265.406436 
L 103.822018 264.800655 
L 104.865056 264.800655 
L 104.865056 264.614261 
L 105.848459 264.614261 
L 105.848459 264.078378 
L 106.778678 264.078378 
L 106.778678 263.961882 
L 107.661173 263.961882 
L 107.661173 263.4027 
L 108.500601 263.4027 
L 108.500601 263.053211 
L 109.300972 263.053211 
L 109.300972 262.610525 
L 110.065758 262.610525 
L 110.065758 262.097941 
L 110.797991 262.097941 
L 110.797991 261.795051 
L 111.500328 261.795051 
L 111.500328 261.259168 
L 112.824432 261.165971 
L 112.824432 261.002876 
L 113.450132 261.002876 
L 113.450132 260.816482 
L 114.053874 260.816482 
L 114.053874 259.884511 
L 114.637146 259.884511 
L 114.637146 259.60492 
L 115.747522 259.581621 
L 115.747522 259.162234 
L 116.790561 259.069037 
L 116.790561 258.859344 
L 117.773963 258.812745 
L 117.773963 258.416658 
L 118.704183 258.37006 
L 118.704183 257.857476 
L 119.151088 257.857476 
L 119.151088 257.71768 
L 119.586677 257.71768 
L 119.586677 257.554585 
L 120.01151 257.554585 
L 120.01151 257.438089 
L 120.426105 257.438089 
L 120.426105 257.298294 
L 120.830944 257.298294 
L 120.830944 257.158498 
L 121.613118 257.0886 
L 121.613118 256.948805 
L 121.991263 256.948805 
L 121.991263 256.692513 
L 122.361274 256.692513 
L 122.361274 256.296425 
L 122.723495 256.296425 
L 122.723495 255.900338 
L 123.078247 255.900338 
L 123.078247 254.479083 
L 123.766534 254.409185 
L 123.766534 254.129594 
L 124.100619 254.129594 
L 124.100619 253.850003 
L 124.428341 253.850003 
L 124.428341 253.733507 
L 125.065631 253.686908 
L 125.065631 253.61701 
L 125.375637 253.61701 
L 125.375637 253.430616 
L 125.979378 253.407317 
L 125.979378 253.220923 
L 126.56265 253.151025 
L 126.56265 253.104427 
L 126.847034 253.104427 
L 126.847034 252.941332 
L 127.673027 252.894733 
L 127.673027 252.754938 
L 127.939774 252.754938 
L 127.939774 252.615142 
L 128.461173 252.568544 
L 128.461173 252.498646 
L 128.716065 252.498646 
L 128.716065 252.079259 
L 129.214792 252.079259 
L 129.214792 251.869566 
L 129.458837 251.869566 
L 129.458837 251.589975 
L 129.699468 251.589975 
L 129.699468 251.310384 
L 129.93678 251.310384 
L 129.93678 251.077391 
L 130.170864 251.077391 
L 130.170864 250.867698 
L 130.401805 250.867698 
L 130.401805 250.751201 
L 130.629687 250.751201 
L 130.629687 250.611406 
L 131.295765 250.541508 
L 131.295765 250.47161 
L 131.725909 250.401713 
L 131.725909 249.86583 
L 131.937015 249.86583 
L 131.937015 249.726034 
L 132.145561 249.726034 
L 132.145561 249.493041 
L 132.35161 249.493041 
L 132.35161 249.096954 
L 132.55522 249.096954 
L 132.55522 248.887261 
L 132.955351 248.863961 
L 132.955351 248.724166 
L 133.15198 248.724166 
L 133.15198 248.514473 
L 133.346388 248.514473 
L 133.346388 248.328078 
L 134.286778 248.234881 
L 134.286778 248.211582 
L 134.468842 248.211582 
L 134.468842 248.071787 
L 135.351336 248.048487 
L 135.351336 247.745597 
L 135.522531 247.745597 
L 135.522531 247.512604 
L 135.692038 247.512604 
L 135.692038 247.372809 
L 136.026124 247.302911 
L 136.026124 247.163115 
L 136.190765 247.163115 
L 136.190765 246.906824 
L 136.675441 246.883524 
L 136.675441 246.347641 
L 137.301141 246.277744 
L 137.301141 246.184547 
L 137.60566 246.091349 
L 137.60566 246.044751 
L 137.755922 246.044751 
L 137.755922 245.835058 
L 138.19899 245.741861 
L 138.19899 245.695262 
L 138.34418 245.695262 
L 138.34418 245.182678 
L 138.488154 245.182678 
L 138.488154 245.066182 
L 139.052299 244.972985 
L 139.052299 244.949686 
L 139.327583 244.903087 
L 139.327583 244.693394 
L 139.732422 244.670095 
L 139.732422 244.437102 
L 139.865278 244.437102 
L 139.865278 244.157511 
L 140.127953 244.157511 
L 140.127953 244.041015 
L 140.257802 244.041015 
L 140.257802 243.55173 
L 140.386678 243.55173 
L 140.386678 243.388635 
L 140.89274 243.295438 
L 140.89274 243.272139 
L 141.140296 243.24884 
L 141.140296 243.085745 
L 141.744038 243.039146 
L 141.744038 242.759555 
L 141.862285 242.759555 
L 141.862285 242.130475 
L 142.096368 242.107176 
L 142.096368 241.96738 
L 142.327309 241.897483 
L 142.327309 241.780986 
L 142.891454 241.687789 
L 142.891454 241.594592 
L 143.112032 241.594592 
L 143.22127 240.662622 
L 143.437686 240.639323 
L 143.437686 239.684053 
L 143.75729 239.590856 
L 143.862519 239.334564 
L 143.967108 239.334564 
L 144.071065 239.031674 
L 144.174398 239.031674 
L 144.174398 238.915177 
L 144.37922 238.915177 
L 144.480724 238.542389 
L 144.781692 238.472491 
L 144.880856 238.286097 
L 145.077485 238.2162 
L 145.174963 238.123003 
L 145.271892 238.123003 
L 145.368278 237.377426 
L 145.464127 237.377426 
L 145.464127 237.144434 
L 145.654238 237.144434 
L 145.654238 237.027937 
L 145.842271 237.027937 
L 145.842271 236.794945 
L 146.212283 236.701748 
L 146.303556 236.235762 
L 146.484661 236.189164 
L 146.574504 235.303792 
L 147.103926 235.233894 
L 147.190601 235.117398 
L 147.532997 235.024201 
L 147.532997 234.208727 
L 147.701674 234.208727 
L 147.785396 233.672844 
L 148.116269 233.649545 
L 148.116269 233.533048 
L 148.440899 233.48645 
L 148.440899 233.323355 
L 148.759517 233.230158 
L 148.759517 233.136961 
L 149.072341 233.090362 
L 149.072341 233.020465 
L 149.455539 232.973866 
L 149.455539 232.810771 
L 149.606459 232.810771 
L 149.681426 232.670976 
L 149.978069 232.647676 
L 150.051438 232.461282 
L 150.197243 232.461282 
L 150.197243 232.298188 
L 150.627387 232.22829 
L 150.698043 231.995297 
L 150.908289 231.925399 
L 150.977803 231.622509 
L 151.184678 231.59921 
L 151.253087 231.412816 
L 151.456697 231.342918 
L 151.524035 231.179823 
L 151.657926 231.133225 
L 151.724483 230.01486 
L 151.790783 230.01486 
L 151.856829 229.828466 
L 152.053458 229.758568 
L 152.118505 229.548875 
L 152.503704 229.455678 
L 152.567074 229.38578 
L 152.630211 229.38578 
L 152.630211 229.269284 
L 152.880468 229.176087 
L 152.942468 229.08289 
L 153.065801 229.012992 
L 153.127137 228.710101 
L 153.249158 228.663503 
L 153.249158 228.570306 
L 153.490634 228.570306 
L 153.550477 228.197518 
L 153.669542 228.197518 
L 153.728767 227.964525 
L 154.021872 227.871328 
L 154.021872 227.82473 
L 154.137731 227.82473 
L 154.195368 227.591737 
L 154.252814 227.591737 
L 154.310068 227.335445 
L 154.367132 227.335445 
L 154.424008 227.19565 
L 154.537198 227.149051 
L 154.593515 226.985956 
L 154.872368 226.916058 
L 154.982656 226.519971 
L 155.037536 226.519971 
L 155.037536 226.380175 
L 155.201134 226.380175 
L 155.309341 226.077285 
L 155.470386 226.007387 
L 155.576918 225.657898 
L 155.629938 225.657898 
L 155.735489 225.424906 
L 155.788023 225.424906 
L 155.840397 224.98222 
L 155.99657 224.98222 
L 156.099903 224.539534 
L 156.202619 224.492935 
L 156.304725 224.283242 
L 156.507137 224.259943 
L 156.557371 223.840556 
L 157.100467 223.747359 
L 157.100467 223.700761 
L 157.245657 223.700761 
L 157.245657 223.584264 
L 157.389632 223.584264 
L 157.48495 223.234775 
L 157.532411 223.234775 
L 157.626944 223.025082 
L 157.674016 223.025082 
L 157.72096 222.675593 
L 157.814465 222.675593 
L 157.907464 222.442601 
L 157.999964 222.396002 
L 158.046028 222.116411 
L 158.137787 222.116411 
L 158.183484 221.860119 
L 158.455146 221.766922 
L 158.500008 221.51063 
L 158.942317 221.417433 
L 158.942317 221.370835 
L 159.072822 221.370835 
L 159.159279 221.091243 
L 159.202345 221.091243 
L 159.288155 220.462163 
L 159.416073 220.438864 
L 159.500826 220.25247 
L 159.543047 220.25247 
L 159.627178 219.856383 
L 159.66909 219.856383 
L 159.752609 219.2972 
L 159.794217 219.2972 
L 159.877132 219.110806 
L 160.000761 219.017609 
L 160.082689 218.784617 
L 160.204854 218.714719 
L 160.285818 218.458427 
L 160.326158 218.458427 
L 160.366403 218.272033 
L 160.56623 218.248734 
L 160.645515 217.782749 
L 160.685021 217.782749 
L 160.763762 217.503157 
L 160.920171 217.479858 
L 160.997845 217.246866 
L 161.075171 217.153669 
L 161.113703 217.037172 
L 161.228787 217.013873 
L 161.266977 216.78088 
L 161.418898 216.687683 
L 161.494358 216.47799 
L 161.531964 216.47799 
L 161.606931 216.105202 
L 161.792931 216.012005 
L 161.903574 215.709114 
L 162.013509 215.639217 
L 162.122747 215.382925 
L 162.231295 215.359625 
L 162.339163 215.126633 
L 162.481943 215.056735 
L 162.588256 214.847042 
L 162.658767 214.847042 
L 162.763996 214.334458 
L 162.868585 214.311159 
L 162.93796 214.031568 
L 163.0415 214.031568 
L 163.0415 213.821874 
L 163.212694 213.728677 
L 163.212694 213.63548 
L 163.348434 213.63548 
L 163.348434 213.309291 
L 163.550055 213.309291 
L 163.649987 213.052999 
L 163.815261 212.983101 
L 163.913668 212.843305 
L 163.978962 212.843305 
L 164.07644 212.540415 
L 164.205558 212.517116 
L 164.301765 212.004532 
L 164.333714 212.004532 
L 164.333714 211.818138 
L 164.460923 211.818138 
L 164.524176 211.608445 
L 164.587197 211.608445 
L 164.587197 211.328854 
L 164.712552 211.328854 
L 164.743749 211.142459 
L 164.960555 211.072562 
L 165.052642 210.862868 
L 165.174662 210.792971 
L 165.265613 210.396883 
L 165.295824 210.396883 
L 165.386138 209.884299 
L 165.416138 209.884299 
L 165.505825 209.55811 
L 165.654272 209.464913 
L 165.742729 209.278519 
L 165.830733 209.278519 
L 165.889154 209.092125 
L 166.034344 209.022227 
L 166.120873 208.812533 
L 166.321098 208.765935 
L 166.406201 207.857264 
L 166.434475 207.857264 
L 166.490884 207.437877 
L 166.880655 207.414578 
L 166.990415 207.065089 
L 167.045034 206.995191 
L 167.153754 206.832096 
L 167.342376 206.785498 
L 167.422585 206.459308 
L 167.502423 206.459308 
L 167.528953 206.226316 
L 167.739735 206.203016 
L 167.818117 205.45744 
L 167.870174 205.45744 
L 167.922074 205.038053 
L 168.128123 204.944856 
L 168.179252 204.432273 
L 168.382262 204.385674 
L 168.457777 204.082784 
L 168.532962 204.082784 
L 168.60782 203.663397 
L 168.657545 203.663397 
L 168.731864 203.290609 
L 168.83046 203.197412 
L 168.928494 202.661529 
L 169.001654 202.63823 
L 169.050255 202.288741 
L 169.171162 202.195544 
L 169.267278 202.009149 
L 169.315136 201.915952 
L 169.410454 201.589763 
L 169.434201 201.589763 
L 169.505247 201.240274 
L 169.552448 201.240274 
L 169.646464 201.007281 
L 169.669888 201.007281 
L 169.716641 200.72769 
L 169.85614 200.704391 
L 169.925468 200.285004 
L 169.994518 200.238406 
L 170.086155 199.935515 
L 170.154564 199.842318 
L 170.20002 199.609326 
L 170.290572 199.609326 
L 170.38065 199.120041 
L 170.4479 199.073443 
L 170.537161 198.863749 
L 170.62596 198.770552 
L 170.714304 198.630757 
L 170.802196 198.584158 
L 170.911433 198.118173 
L 170.976645 198.118173 
L 171.084784 197.162903 
L 171.149342 197.093006 
L 171.256405 196.603721 
L 171.299044 196.603721 
L 171.405181 196.184334 
L 171.447454 196.184334 
L 171.552683 195.205766 
L 171.594595 195.159167 
L 171.678114 194.646583 
L 171.864562 194.553386 
L 171.946784 193.668014 
L 172.028614 193.598117 
L 172.130358 193.108832 
L 172.231504 193.062234 
L 172.311995 192.922438 
L 172.3521 192.922438 
L 172.451954 192.642847 
L 172.590784 192.572949 
L 172.669615 192.386555 
L 172.728502 192.316657 
L 172.826202 191.943869 
L 172.884556 191.850672 
L 172.981376 190.872103 
L 173.019952 190.825505 
L 173.116015 190.685709 
L 173.173397 190.615811 
L 173.249609 190.219724 
L 173.287589 190.219724 
L 173.382173 189.846936 
L 173.401028 189.846936 
L 173.476241 189.287754 
L 173.588447 189.194556 
L 173.681396 189.031462 
L 173.755396 188.984863 
L 173.84745 187.913097 
L 173.92074 187.843199 
L 174.030093 187.563608 
L 174.08451 187.540309 
L 174.1568 187.353915 
L 174.246737 187.284017 
L 174.354044 186.188952 
L 174.407447 186.095755 
L 174.496087 185.396777 
L 174.531415 185.396777 
L 174.61942 184.837595 
L 174.706976 184.837595 
L 174.81146 183.789128 
L 174.949791 183.74253 
L 175.052815 183.136749 
L 175.069925 183.136749 
L 175.155225 182.577567 
L 175.206202 182.577567 
L 175.307706 182.181479 
L 175.375044 182.134881 
L 175.47556 181.598998 
L 175.508935 181.552399 
L 175.592091 181.156312 
L 175.707837 181.086414 
L 175.806433 180.57383 
L 175.839173 180.57383 
L 175.888166 180.340838 
L 176.018138 180.27094 
L 176.114976 179.455466 
L 176.147134 179.455466 
L 176.243251 178.803086 
L 176.275171 178.803086 
L 176.370577 178.476897 
L 176.433889 178.453598 
L 176.528421 177.871116 
L 176.575493 177.824518 
L 176.68483 177.544926 
L 176.762505 177.451729 
L 176.83983 177.335233 
L 176.947505 177.265335 
L 177.024005 176.49646 
L 177.069743 176.49646 
L 177.130537 176.030475 
L 177.20623 175.983876 
L 177.311643 174.958709 
L 177.356623 174.91211 
L 177.431329 174.352928 
L 177.475998 174.352928 
L 177.535376 173.817045 
L 177.609312 173.817045 
L 177.697618 172.954972 
L 177.770861 172.861775 
L 177.872881 172.465688 
L 177.887406 172.465688 
L 177.988739 172.023002 
L 178.103823 171.929805 
L 178.175361 171.114331 
L 178.218141 171.114331 
L 178.31755 170.671645 
L 178.430462 170.578448 
L 178.514662 170.392054 
L 178.556608 170.392054 
L 178.654087 169.87947 
L 178.681836 169.832871 
L 178.79239 169.436784 
L 178.819918 169.436784 
L 178.91592 168.784405 
L 178.943251 168.784405 
L 179.038569 168.341719 
L 179.0928 168.29512 
L 179.200753 167.782537 
L 179.294659 167.689339 
L 179.401356 167.339851 
L 179.427927 167.246654 
L 179.533803 166.780668 
L 179.599647 166.73407 
L 179.704475 166.035092 
L 179.730583 165.988493 
L 179.821648 165.569107 
L 179.847579 165.569107 
L 179.950912 164.84683 
L 179.963785 164.84683 
L 180.028006 164.404144 
L 180.079211 164.404144 
L 180.168455 163.775064 
L 180.219244 163.728465 
L 180.295148 163.355677 
L 180.358146 163.332378 
L 180.458466 162.33051 
L 180.495936 162.260612 
L 180.595459 161.887824 
L 180.632631 161.817926 
L 180.743671 161.212145 
L 180.755964 161.212145 
L 180.853998 160.699561 
L 180.914987 160.606364 
L 181.024224 159.884087 
L 181.060483 159.81419 
L 181.168804 159.068613 
L 181.252584 158.998715 
L 181.324073 158.323037 
L 181.418931 158.276438 
L 181.525025 157.670658 
L 181.548513 157.60076 
L 181.642145 157.064877 
L 181.712036 157.018278 
L 181.816344 155.690221 
L 181.885532 155.666921 
L 181.977353 154.828148 
L 182.000232 154.828148 
L 182.102812 153.523389 
L 182.159537 153.453492 
L 182.261174 152.87101 
L 182.29492 152.801112 
L 182.395763 152.311828 
L 182.406932 152.311828 
L 182.484908 151.775945 
L 184.604948 151.729346 
L 184.604948 151.61285 
L 185.616168 151.519653 
L 185.616168 151.496354 
L 187.608604 151.403157 
L 187.608604 151.379857 
L 188.032431 151.30996 
L 188.04048 151.240062 
L 188.453926 151.170164 
L 188.540127 150.913872 
L 189.304573 150.843974 
L 189.386626 150.750777 
L 189.579026 150.750777 
L 189.579026 150.634281 
L 190.115137 150.541084 
L 190.214711 150.331391 
L 190.433166 150.238194 
L 190.537882 150.0518 
L 190.738545 149.958603 
L 190.841424 149.492617 
L 191.146423 149.39942 
L 191.240219 149.09653 
L 191.399833 149.026632 
L 191.41968 148.816939 
L 191.512003 148.816939 
L 191.564537 148.46745 
L 191.786034 148.374253 
L 191.876416 148.071363 
L 191.95351 148.001465 
L 192.055768 147.395684 
L 192.074874 147.395684 
L 192.176416 147.162691 
L 192.277361 147.069494 
L 192.383971 146.929699 
L 192.433913 146.859801 
L 192.533363 146.090925 
L 192.601403 145.997728 
L 192.669175 145.671539 
L 192.730555 145.671539 
L 192.822217 145.252152 
L 192.967868 145.158955 
L 193.064288 144.832765 
L 193.118287 144.786167 
L 193.225781 144.180386 
L 193.32077 144.087189 
L 193.421124 143.621204 
L 193.432892 143.621204 
L 193.526748 143.085321 
L 193.550132 143.085321 
L 193.660775 142.572737 
L 193.666578 142.572737 
L 193.759171 141.827161 
L 193.81679 141.803862 
L 193.920019 140.522402 
L 193.937164 140.452504 
L 194.045353 139.147746 
L 194.068044 139.101147 
L 194.169781 138.448768 
L 194.192308 138.40217 
L 194.298909 137.493498 
L 194.332436 137.400301 
L 194.432626 136.561528 
L 196.837212 136.468331 
L 196.837212 136.421732 
L 197.712224 136.351835 
L 197.712224 136.281937 
L 198.164891 136.18874 
L 198.164891 136.142141 
L 198.714473 136.072244 
L 198.714473 136.025645 
L 199.065693 135.932448 
L 199.099577 135.86255 
L 199.459682 135.769353 
L 199.550604 135.55966 
L 199.796158 135.489762 
L 199.873192 135.280069 
L 200.006174 135.210171 
L 200.102246 135.023777 
L 200.162019 135.000478 
L 200.22555 134.767485 
L 200.50857 134.674288 
L 200.609638 134.371398 
L 200.690839 134.324799 
L 200.790845 133.998609 
L 200.825328 133.928712 
L 200.93597 133.299632 
L 200.954975 133.229734 
L 201.06479 132.623953 
L 201.083652 132.530756 
L 201.177658 132.041472 
L 201.226339 131.948275 
L 201.31957 131.272596 
L 201.341871 131.202698 
L 201.397496 130.783312 
L 203.834085 130.690115 
L 203.834085 130.596917 
L 204.474355 130.50372 
L 204.492921 130.433823 
L 204.637669 130.340626 
L 204.637669 130.317326 
L 204.823735 130.247429 
L 204.823735 130.177531 
L 205.178054 130.084334 
L 205.219611 129.991137 
L 205.431765 129.921239 
L 205.528135 129.734845 
L 205.618175 129.641648 
L 205.713509 129.548451 
L 205.78825 129.455254 
L 205.882649 129.082466 
L 205.922541 129.059166 
L 206.019039 128.61648 
L 206.06144 128.569882 
L 206.154355 127.801006 
L 206.185216 127.754408 
L 206.291402 127.171926 
L 206.324799 127.078729 
L 206.349804 126.962233 
L 208.208543 126.869036 
L 208.208543 126.845737 
L 209.259788 126.75254 
L 209.259788 126.682642 
L 209.490323 126.589445 
L 209.536523 126.449649 
L 209.699538 126.356452 
L 209.804335 125.960365 
L 209.894947 125.890467 
L 210.003055 124.958497 
L 210.101561 124.8653 
L 210.170625 124.469212 
L 211.584994 124.422614 
L 211.584994 124.329417 
L 212.722101 124.236219 
L 212.752746 124.166322 
L 212.97141 124.073125 
L 213.018581 123.793534 
L 213.095661 123.700337 
L 213.192927 123.28095 
L 213.259945 123.187753 
L 213.334104 122.791665 
L 215.485886 122.698468 
L 215.53642 122.65187 
L 215.706485 122.558673 
L 215.817335 122.372279 
L 215.818936 122.372279 
L 215.927474 121.650002 
L 215.948147 121.556805 
L 215.967207 121.463608 
L 217.441987 121.39371 
L 217.441987 121.347111 
L 217.988356 121.277213 
L 218.098102 120.951024 
L 218.135929 120.904425 
L 218.240569 120.182148 
L 219.163979 120.088951 
L 219.163979 120.065652 
L 219.904503 119.972455 
L 219.961233 119.879258 
L 220.09288 119.80936 
L 220.202441 119.48317 
L 220.260673 119.436572 
L 220.290332 119.18028 
L 221.776338 119.087083 
L 221.886973 118.87739 
L 221.968925 118.784193 
L 222.079446 118.504602 
L 222.105021 118.434704 
L 222.105021 118.364806 
L 223.444839 118.271609 
L 223.537101 118.22501 
L 223.605466 118.131813 
L 223.6837 117.759025 
L 224.703109 117.665828 
L 224.703109 117.642529 
L 225.096968 117.549332 
L 225.202163 117.269741 
L 225.229056 117.176544 
L 225.243876 117.060047 
L 226.503875 116.96685 
L 226.610243 116.594062 
L 227.678666 116.500865 
L 227.788417 116.33777 
L 227.828299 116.244573 
L 227.896679 116.058179 
L 228.968774 115.988281 
L 229.049854 115.662092 
L 230.124991 115.568895 
L 230.182062 115.312603 
L 231.182827 115.219406 
L 231.239768 114.963114 
L 232.176898 114.869917 
L 232.233731 114.77672 
L 233.114899 114.683523 
L 233.145341 114.636924 
L 233.981009 114.543727 
L 233.995489 114.403932 
L 234.832134 114.334034 
L 234.832134 114.287435 
L 235.626935 114.194238 
L 235.635035 114.124341 
L 236.406971 114.031144 
L 236.437913 113.937947 
L 237.788599 113.84475 
L 237.868792 113.774852 
L 238.505362 113.681655 
L 238.545151 113.635056 
L 239.795579 113.541859 
L 239.806305 113.425363 
L 240.404596 113.332166 
L 240.411115 113.285567 
L 241.518807 113.19237 
L 241.550774 113.122472 
L 242.120069 113.052575 
L 242.120069 113.005976 
L 243.127006 112.912779 
L 243.143369 112.842881 
L 244.12868 112.749684 
L 244.131769 112.703086 
L 245.060314 112.609889 
L 245.060314 112.586589 
L 246.766915 112.493392 
L 246.802653 112.446794 
L 247.970368 112.353597 
L 247.970368 112.330298 
L 248.72358 112.2604 
L 248.72358 112.213801 
L 251.743918 112.120604 
L 251.743918 112.097305 
L 263.129341 112.004108 
L 263.129341 111.980809 
L 333.429677 111.980809 
L 333.429677 111.980809 
" style="fill:none;stroke:#00bfbf;stroke-linecap:square;stroke-width:1.5;"/>
   </g>
   <g id="line2d_25">
    <defs>
     <path d="M -6 0 
L 6 0 
M 0 6 
L 0 -6 
" id="mcc87e1d210" style="stroke:#00bfbf;stroke-width:1.5;"/>
    </defs>
    <g>
     <use style="fill-opacity:0;stroke:#00bfbf;stroke-width:1.5;" x="101.524628" xlink:href="#mcc87e1d210" y="266.734494"/>
     <use style="fill-opacity:0;stroke:#00bfbf;stroke-width:1.5;" x="174.264668" xlink:href="#mcc87e1d210" y="187.237419"/>
     <use style="fill-opacity:0;stroke:#00bfbf;stroke-width:1.5;" x="213.099412" xlink:href="#mcc87e1d210" y="123.677037"/>
     <use style="fill-opacity:0;stroke:#00bfbf;stroke-width:1.5;" x="263.129341" xlink:href="#mcc87e1d210" y="111.980809"/>
     <use style="fill-opacity:0;stroke:#00bfbf;stroke-width:1.5;" x="333.429677" xlink:href="#mcc87e1d210" y="111.980809"/>
    </g>
   </g>
   <g id="line2d_26">
    <path style="fill:none;stroke:#00bfbf;stroke-linecap:square;stroke-width:1.5;"/>
    <g/>
   </g>
   <g id="line2d_27">
    <path clip-path="url(#p79549df8f1)" d="M 182.507122 151.775945 
" style="fill:none;stroke:#00bfbf;stroke-linecap:square;stroke-width:1.5;"/>
    <defs>
     <path d="M -12 12 
L 12 -12 
M -12 -12 
L 12 12 
" id="mab5f6efe4b" style="stroke:#00bfbf;stroke-width:3;"/>
    </defs>
    <g clip-path="url(#p79549df8f1)">
     <use style="fill:#00bfbf;stroke:#00bfbf;stroke-width:3;" x="182.507122" xlink:href="#mab5f6efe4b" y="151.775945"/>
    </g>
   </g>
   <g id="line2d_28">
    <path d="M 333.429677 111.980809 
L 363.933742 289.176341 
" style="fill:none;stroke:#00bfbf;stroke-linecap:square;stroke-width:1.5;"/>
    <g>
     <use style="fill-opacity:0;stroke:#00bfbf;stroke-width:1.5;" x="333.429677" xlink:href="#mcc87e1d210" y="111.980809"/>
     <use style="fill-opacity:0;stroke:#00bfbf;stroke-width:1.5;" x="363.933742" xlink:href="#mcc87e1d210" y="289.176341"/>
    </g>
   </g>
   <g id="line2d_29">
    <path d="M 333.429677 294.88 
L 333.429677 9.697057 
" style="fill:none;stroke:#000000;stroke-linecap:square;stroke-width:1.5;"/>
   </g>
   <g id="patch_3">
    <path d="M 56.12 294.88 
L 56.12 6.845228 
" style="fill:none;stroke:#000000;stroke-linecap:square;stroke-linejoin:miter;stroke-width:0.8;"/>
   </g>
   <g id="patch_4">
    <path d="M 399.984 294.88 
L 399.984 6.845228 
" style="fill:none;stroke:#000000;stroke-linecap:square;stroke-linejoin:miter;stroke-width:0.8;"/>
   </g>
   <g id="patch_5">
    <path d="M 56.12 294.88 
L 399.984 294.88 
" style="fill:none;stroke:#000000;stroke-linecap:square;stroke-linejoin:miter;stroke-width:0.8;"/>
   </g>
   <g id="patch_6">
    <path d="M 56.12 6.845228 
L 399.984 6.845228 
" style="fill:none;stroke:#000000;stroke-linecap:square;stroke-linejoin:miter;stroke-width:0.8;"/>
   </g>
   <g id="text_14">
    <!-- 2-D -->
    <defs>
     <path d="M 19.671875 64.796875 
L 19.671875 8.109375 
L 31.59375 8.109375 
Q 46.6875 8.109375 53.6875 14.9375 
Q 60.6875 21.78125 60.6875 36.53125 
Q 60.6875 51.171875 53.6875 57.984375 
Q 46.6875 64.796875 31.59375 64.796875 
z
M 9.8125 72.90625 
L 30.078125 72.90625 
Q 51.265625 72.90625 61.171875 64.09375 
Q 71.09375 55.28125 71.09375 36.53125 
Q 71.09375 17.671875 61.125 8.828125 
Q 51.171875 0 30.078125 0 
L 9.8125 0 
z
" id="DejaVuSans-44"/>
    </defs>
    <g transform="translate(369.479935 293.867279)scale(0.17 -0.17)">
     <use xlink:href="#DejaVuSans-32"/>
     <use x="63.623047" xlink:href="#DejaVuSans-2d"/>
     <use x="99.707031" xlink:href="#DejaVuSans-44"/>
    </g>
   </g>
   <g id="text_15">
    <!-- bbob f1-f24 -->
    <defs>
     <path d="M 48.6875 27.296875 
Q 48.6875 37.203125 44.609375 42.84375 
Q 40.53125 48.484375 33.40625 48.484375 
Q 26.265625 48.484375 22.1875 42.84375 
Q 18.109375 37.203125 18.109375 27.296875 
Q 18.109375 17.390625 22.1875 11.75 
Q 26.265625 6.109375 33.40625 6.109375 
Q 40.53125 6.109375 44.609375 11.75 
Q 48.6875 17.390625 48.6875 27.296875 
z
M 18.109375 46.390625 
Q 20.953125 51.265625 25.265625 53.625 
Q 29.59375 56 35.59375 56 
Q 45.5625 56 51.78125 48.09375 
Q 58.015625 40.1875 58.015625 27.296875 
Q 58.015625 14.40625 51.78125 6.484375 
Q 45.5625 -1.421875 35.59375 -1.421875 
Q 29.59375 -1.421875 25.265625 0.953125 
Q 20.953125 3.328125 18.109375 8.203125 
L 18.109375 0 
L 9.078125 0 
L 9.078125 75.984375 
L 18.109375 75.984375 
z
" id="DejaVuSans-62"/>
    </defs>
    <g transform="translate(59.55864 17.475982)scale(0.102 -0.102)">
     <use xlink:href="#DejaVuSans-62"/>
     <use x="63.476562" xlink:href="#DejaVuSans-62"/>
     <use x="126.953125" xlink:href="#DejaVuSans-6f"/>
     <use x="188.134766" xlink:href="#DejaVuSans-62"/>
     <use x="251.611328" xlink:href="#DejaVuSans-20"/>
     <use x="283.398438" xlink:href="#DejaVuSans-66"/>
     <use x="318.603516" xlink:href="#DejaVuSans-31"/>
     <use x="382.226562" xlink:href="#DejaVuSans-2d"/>
     <use x="418.310547" xlink:href="#DejaVuSans-66"/>
     <use x="453.515625" xlink:href="#DejaVuSans-32"/>
     <use x="517.138672" xlink:href="#DejaVuSans-34"/>
    </g>
    <!-- 51 targets: 100..1e-08 -->
    <defs>
     <path d="M 10.796875 72.90625 
L 49.515625 72.90625 
L 49.515625 64.59375 
L 19.828125 64.59375 
L 19.828125 46.734375 
Q 21.96875 47.46875 24.109375 47.828125 
Q 26.265625 48.1875 28.421875 48.1875 
Q 40.625 48.1875 47.75 41.5 
Q 54.890625 34.8125 54.890625 23.390625 
Q 54.890625 11.625 47.5625 5.09375 
Q 40.234375 -1.421875 26.90625 -1.421875 
Q 22.3125 -1.421875 17.546875 -0.640625 
Q 12.796875 0.140625 7.71875 1.703125 
L 7.71875 11.625 
Q 12.109375 9.234375 16.796875 8.0625 
Q 21.484375 6.890625 26.703125 6.890625 
Q 35.15625 6.890625 40.078125 11.328125 
Q 45.015625 15.765625 45.015625 23.390625 
Q 45.015625 31 40.078125 35.4375 
Q 35.15625 39.890625 26.703125 39.890625 
Q 22.75 39.890625 18.8125 39.015625 
Q 14.890625 38.140625 10.796875 36.28125 
z
" id="DejaVuSans-35"/>
     <path d="M 11.71875 12.40625 
L 22.015625 12.40625 
L 22.015625 0 
L 11.71875 0 
z
M 11.71875 51.703125 
L 22.015625 51.703125 
L 22.015625 39.3125 
L 11.71875 39.3125 
z
" id="DejaVuSans-3a"/>
    </defs>
    <g transform="translate(59.55864 28.89775)scale(0.102 -0.102)">
     <use xlink:href="#DejaVuSans-35"/>
     <use x="63.623047" xlink:href="#DejaVuSans-31"/>
     <use x="127.246094" xlink:href="#DejaVuSans-20"/>
     <use x="159.033203" xlink:href="#DejaVuSans-74"/>
     <use x="198.242188" xlink:href="#DejaVuSans-61"/>
     <use x="259.521484" xlink:href="#DejaVuSans-72"/>
     <use x="300.619141" xlink:href="#DejaVuSans-67"/>
     <use x="364.095703" xlink:href="#DejaVuSans-65"/>
     <use x="425.619141" xlink:href="#DejaVuSans-74"/>
     <use x="464.828125" xlink:href="#DejaVuSans-73"/>
     <use x="516.927734" xlink:href="#DejaVuSans-3a"/>
     <use x="550.619141" xlink:href="#DejaVuSans-20"/>
     <use x="582.40625" xlink:href="#DejaVuSans-31"/>
     <use x="646.029297" xlink:href="#DejaVuSans-30"/>
     <use x="709.652344" xlink:href="#DejaVuSans-30"/>
     <use x="773.275391" xlink:href="#DejaVuSans-2e"/>
     <use x="805.0625" xlink:href="#DejaVuSans-2e"/>
     <use x="836.849609" xlink:href="#DejaVuSans-31"/>
     <use x="900.472656" xlink:href="#DejaVuSans-65"/>
     <use x="961.996094" xlink:href="#DejaVuSans-2d"/>
     <use x="998.080078" xlink:href="#DejaVuSans-30"/>
     <use x="1061.703125" xlink:href="#DejaVuSans-38"/>
    </g>
    <!-- 15 instances -->
    <g transform="translate(59.55864 40.319519)scale(0.102 -0.102)">
     <use xlink:href="#DejaVuSans-31"/>
     <use x="63.623047" xlink:href="#DejaVuSans-35"/>
     <use x="127.246094" xlink:href="#DejaVuSans-20"/>
     <use x="159.033203" xlink:href="#DejaVuSans-69"/>
     <use x="186.816406" xlink:href="#DejaVuSans-6e"/>
     <use x="250.195312" xlink:href="#DejaVuSans-73"/>
     <use x="302.294922" xlink:href="#DejaVuSans-74"/>
     <use x="341.503906" xlink:href="#DejaVuSans-61"/>
     <use x="402.783203" xlink:href="#DejaVuSans-6e"/>
     <use x="466.162109" xlink:href="#DejaVuSans-63"/>
     <use x="521.142578" xlink:href="#DejaVuSans-65"/>
     <use x="582.666016" xlink:href="#DejaVuSans-73"/>
    </g>
   </g>
   <g id="text_16">
    <!-- v2.2.1.10 -->
    <g style="fill:#808080;" transform="translate(204.419188 289.919965)scale(0.1 -0.1)">
     <use xlink:href="#DejaVuSans-76"/>
     <use x="59.179688" xlink:href="#DejaVuSans-32"/>
     <use x="122.802734" xlink:href="#DejaVuSans-2e"/>
     <use x="154.589844" xlink:href="#DejaVuSans-32"/>
     <use x="218.212891" xlink:href="#DejaVuSans-2e"/>
     <use x="250" xlink:href="#DejaVuSans-31"/>
     <use x="313.623047" xlink:href="#DejaVuSans-2e"/>
     <use x="345.410156" xlink:href="#DejaVuSans-31"/>
     <use x="409.033203" xlink:href="#DejaVuSans-30"/>
    </g>
   </g>
  </g>
 </g>
 <defs>
  <clipPath id="p79549df8f1">
   <rect height="288.034772" width="343.864" x="56.12" y="6.845228"/>
  </clipPath>
 </defs>
</svg>
