<?xml version="1.0" encoding="utf-8" standalone="no"?>
<!DOCTYPE svg PUBLIC "-//W3C//DTD SVG 1.1//EN"
  "http://www.w3.org/Graphics/SVG/1.1/DTD/svg11.dtd">
<!-- Created with matplotlib (http://matplotlib.org/) -->
<svg height="345.6pt" version="1.1" viewBox="0 0 460.8 345.6" width="460.8pt" xmlns="http://www.w3.org/2000/svg" xmlns:xlink="http://www.w3.org/1999/xlink">
 <defs>
  <style type="text/css">
*{stroke-linecap:butt;stroke-linejoin:round;}
  </style>
 </defs>
 <g id="figure_1">
  <g id="patch_1">
   <path d="M 0 345.6 
L 460.8 345.6 
L 460.8 0 
L 0 0 
z
" style="fill:#ffffff;"/>
  </g>
  <g id="axes_1">
   <g id="patch_2">
    <path d="M 5.52 291.28 
L 450.672 291.28 
L 450.672 5.52 
L 5.52 5.52 
z
" style="fill:#ffffff;"/>
   </g>
   <g id="matplotlib.axis_1">
    <g id="xtick_1">
     <g id="line2d_1">
      <path clip-path="url(#pd67cf5328b)" d="M 5.408872 291.28 
L 5.408872 5.52 
" style="fill:none;stroke:#b0b0b0;stroke-linecap:square;stroke-width:0.8;"/>
     </g>
     <g id="line2d_2">
      <defs>
       <path d="M 0 0 
L 0 3.5 
" id="m4b9379d08d" style="stroke:#000000;stroke-width:0.8;"/>
      </defs>
      <g>
       <use style="stroke:#000000;stroke-width:0.8;" x="5.408872" xlink:href="#m4b9379d08d" y="291.28"/>
      </g>
     </g>
    </g>
    <g id="xtick_2">
     <g id="line2d_3">
      <path clip-path="url(#pd67cf5328b)" d="M 108.272817 291.28 
L 108.272817 5.52 
" style="fill:none;stroke:#b0b0b0;stroke-linecap:square;stroke-width:0.8;"/>
     </g>
     <g id="line2d_4">
      <g>
       <use style="stroke:#000000;stroke-width:0.8;" x="108.272817" xlink:href="#m4b9379d08d" y="291.28"/>
      </g>
     </g>
     <g id="text_1">
      <!-- -4 -->
      <defs>
       <path d="M 4.890625 31.390625 
L 31.203125 31.390625 
L 31.203125 23.390625 
L 4.890625 23.390625 
z
" id="DejaVuSans-2d"/>
       <path d="M 37.796875 64.3125 
L 12.890625 25.390625 
L 37.796875 25.390625 
z
M 35.203125 72.90625 
L 47.609375 72.90625 
L 47.609375 25.390625 
L 58.015625 25.390625 
L 58.015625 17.1875 
L 47.609375 17.1875 
L 47.609375 0 
L 37.796875 0 
L 37.796875 17.1875 
L 4.890625 17.1875 
L 4.890625 26.703125 
z
" id="DejaVuSans-34"/>
      </defs>
      <g transform="translate(98.302504 313.476875)scale(0.2 -0.2)">
       <use xlink:href="#DejaVuSans-2d"/>
       <use x="36.083984" xlink:href="#DejaVuSans-34"/>
      </g>
     </g>
    </g>
    <g id="xtick_3">
     <g id="line2d_5">
      <path clip-path="url(#pd67cf5328b)" d="M 211.136761 291.28 
L 211.136761 5.52 
" style="fill:none;stroke:#b0b0b0;stroke-linecap:square;stroke-width:0.8;"/>
     </g>
     <g id="line2d_6">
      <g>
       <use style="stroke:#000000;stroke-width:0.8;" x="211.136761" xlink:href="#m4b9379d08d" y="291.28"/>
      </g>
     </g>
     <g id="text_2">
      <!-- 0 -->
      <defs>
       <path d="M 31.78125 66.40625 
Q 24.171875 66.40625 20.328125 58.90625 
Q 16.5 51.421875 16.5 36.375 
Q 16.5 21.390625 20.328125 13.890625 
Q 24.171875 6.390625 31.78125 6.390625 
Q 39.453125 6.390625 43.28125 13.890625 
Q 47.125 21.390625 47.125 36.375 
Q 47.125 51.421875 43.28125 58.90625 
Q 39.453125 66.40625 31.78125 66.40625 
z
M 31.78125 74.21875 
Q 44.046875 74.21875 50.515625 64.515625 
Q 56.984375 54.828125 56.984375 36.375 
Q 56.984375 17.96875 50.515625 8.265625 
Q 44.046875 -1.421875 31.78125 -1.421875 
Q 19.53125 -1.421875 13.0625 8.265625 
Q 6.59375 17.96875 6.59375 36.375 
Q 6.59375 54.828125 13.0625 64.515625 
Q 19.53125 74.21875 31.78125 74.21875 
z
" id="DejaVuSans-30"/>
      </defs>
      <g transform="translate(204.774261 313.476875)scale(0.2 -0.2)">
       <use xlink:href="#DejaVuSans-30"/>
      </g>
     </g>
    </g>
    <g id="xtick_4">
     <g id="line2d_7">
      <path clip-path="url(#pd67cf5328b)" d="M 314.000706 291.28 
L 314.000706 5.52 
" style="fill:none;stroke:#b0b0b0;stroke-linecap:square;stroke-width:0.8;"/>
     </g>
     <g id="line2d_8">
      <g>
       <use style="stroke:#000000;stroke-width:0.8;" x="314.000706" xlink:href="#m4b9379d08d" y="291.28"/>
      </g>
     </g>
     <g id="text_3">
      <!-- 4 -->
      <g transform="translate(307.638206 313.476875)scale(0.2 -0.2)">
       <use xlink:href="#DejaVuSans-34"/>
      </g>
     </g>
    </g>
    <g id="xtick_5">
     <g id="line2d_9">
      <path clip-path="url(#pd67cf5328b)" d="M 416.864651 291.28 
L 416.864651 5.52 
" style="fill:none;stroke:#b0b0b0;stroke-linecap:square;stroke-width:0.8;"/>
     </g>
     <g id="line2d_10">
      <g>
       <use style="stroke:#000000;stroke-width:0.8;" x="416.864651" xlink:href="#m4b9379d08d" y="291.28"/>
      </g>
     </g>
     <g id="text_4">
      <!-- 8 -->
      <defs>
       <path d="M 31.78125 34.625 
Q 24.75 34.625 20.71875 30.859375 
Q 16.703125 27.09375 16.703125 20.515625 
Q 16.703125 13.921875 20.71875 10.15625 
Q 24.75 6.390625 31.78125 6.390625 
Q 38.8125 6.390625 42.859375 10.171875 
Q 46.921875 13.96875 46.921875 20.515625 
Q 46.921875 27.09375 42.890625 30.859375 
Q 38.875 34.625 31.78125 34.625 
z
M 21.921875 38.8125 
Q 15.578125 40.375 12.03125 44.71875 
Q 8.5 49.078125 8.5 55.328125 
Q 8.5 64.0625 14.71875 69.140625 
Q 20.953125 74.21875 31.78125 74.21875 
Q 42.671875 74.21875 48.875 69.140625 
Q 55.078125 64.0625 55.078125 55.328125 
Q 55.078125 49.078125 51.53125 44.71875 
Q 48 40.375 41.703125 38.8125 
Q 48.828125 37.15625 52.796875 32.3125 
Q 56.78125 27.484375 56.78125 20.515625 
Q 56.78125 9.90625 50.3125 4.234375 
Q 43.84375 -1.421875 31.78125 -1.421875 
Q 19.734375 -1.421875 13.25 4.234375 
Q 6.78125 9.90625 6.78125 20.515625 
Q 6.78125 27.484375 10.78125 32.3125 
Q 14.796875 37.15625 21.921875 38.8125 
z
M 18.3125 54.390625 
Q 18.3125 48.734375 21.84375 45.5625 
Q 25.390625 42.390625 31.78125 42.390625 
Q 38.140625 42.390625 41.71875 45.5625 
Q 45.3125 48.734375 45.3125 54.390625 
Q 45.3125 60.0625 41.71875 63.234375 
Q 38.140625 66.40625 31.78125 66.40625 
Q 25.390625 66.40625 21.84375 63.234375 
Q 18.3125 60.0625 18.3125 54.390625 
z
" id="DejaVuSans-38"/>
      </defs>
      <g transform="translate(410.502151 313.476875)scale(0.2 -0.2)">
       <use xlink:href="#DejaVuSans-38"/>
      </g>
     </g>
    </g>
    <g id="text_5">
     <!-- log10 of Df -->
     <defs>
      <path d="M 9.421875 75.984375 
L 18.40625 75.984375 
L 18.40625 0 
L 9.421875 0 
z
" id="DejaVuSans-6c"/>
      <path d="M 30.609375 48.390625 
Q 23.390625 48.390625 19.1875 42.75 
Q 14.984375 37.109375 14.984375 27.296875 
Q 14.984375 17.484375 19.15625 11.84375 
Q 23.34375 6.203125 30.609375 6.203125 
Q 37.796875 6.203125 41.984375 11.859375 
Q 46.1875 17.53125 46.1875 27.296875 
Q 46.1875 37.015625 41.984375 42.703125 
Q 37.796875 48.390625 30.609375 48.390625 
z
M 30.609375 56 
Q 42.328125 56 49.015625 48.375 
Q 55.71875 40.765625 55.71875 27.296875 
Q 55.71875 13.875 49.015625 6.21875 
Q 42.328125 -1.421875 30.609375 -1.421875 
Q 18.84375 -1.421875 12.171875 6.21875 
Q 5.515625 13.875 5.515625 27.296875 
Q 5.515625 40.765625 12.171875 48.375 
Q 18.84375 56 30.609375 56 
z
" id="DejaVuSans-6f"/>
      <path d="M 45.40625 27.984375 
Q 45.40625 37.75 41.375 43.109375 
Q 37.359375 48.484375 30.078125 48.484375 
Q 22.859375 48.484375 18.828125 43.109375 
Q 14.796875 37.75 14.796875 27.984375 
Q 14.796875 18.265625 18.828125 12.890625 
Q 22.859375 7.515625 30.078125 7.515625 
Q 37.359375 7.515625 41.375 12.890625 
Q 45.40625 18.265625 45.40625 27.984375 
z
M 54.390625 6.78125 
Q 54.390625 -7.171875 48.1875 -13.984375 
Q 42 -20.796875 29.203125 -20.796875 
Q 24.46875 -20.796875 20.265625 -20.09375 
Q 16.0625 -19.390625 12.109375 -17.921875 
L 12.109375 -9.1875 
Q 16.0625 -11.328125 19.921875 -12.34375 
Q 23.78125 -13.375 27.78125 -13.375 
Q 36.625 -13.375 41.015625 -8.765625 
Q 45.40625 -4.15625 45.40625 5.171875 
L 45.40625 9.625 
Q 42.625 4.78125 38.28125 2.390625 
Q 33.9375 0 27.875 0 
Q 17.828125 0 11.671875 7.65625 
Q 5.515625 15.328125 5.515625 27.984375 
Q 5.515625 40.671875 11.671875 48.328125 
Q 17.828125 56 27.875 56 
Q 33.9375 56 38.28125 53.609375 
Q 42.625 51.21875 45.40625 46.390625 
L 45.40625 54.6875 
L 54.390625 54.6875 
z
" id="DejaVuSans-67"/>
      <path d="M 12.40625 8.296875 
L 28.515625 8.296875 
L 28.515625 63.921875 
L 10.984375 60.40625 
L 10.984375 69.390625 
L 28.421875 72.90625 
L 38.28125 72.90625 
L 38.28125 8.296875 
L 54.390625 8.296875 
L 54.390625 0 
L 12.40625 0 
z
" id="DejaVuSans-31"/>
      <path id="DejaVuSans-20"/>
      <path d="M 37.109375 75.984375 
L 37.109375 68.5 
L 28.515625 68.5 
Q 23.6875 68.5 21.796875 66.546875 
Q 19.921875 64.59375 19.921875 59.515625 
L 19.921875 54.6875 
L 34.71875 54.6875 
L 34.71875 47.703125 
L 19.921875 47.703125 
L 19.921875 0 
L 10.890625 0 
L 10.890625 47.703125 
L 2.296875 47.703125 
L 2.296875 54.6875 
L 10.890625 54.6875 
L 10.890625 58.5 
Q 10.890625 67.625 15.140625 71.796875 
Q 19.390625 75.984375 28.609375 75.984375 
z
" id="DejaVuSans-66"/>
      <path d="M 19.671875 64.796875 
L 19.671875 8.109375 
L 31.59375 8.109375 
Q 46.6875 8.109375 53.6875 14.9375 
Q 60.6875 21.78125 60.6875 36.53125 
Q 60.6875 51.171875 53.6875 57.984375 
Q 46.6875 64.796875 31.59375 64.796875 
z
M 9.8125 72.90625 
L 30.078125 72.90625 
Q 51.265625 72.90625 61.171875 64.09375 
Q 71.09375 55.28125 71.09375 36.53125 
Q 71.09375 17.671875 61.125 8.828125 
Q 51.171875 0 30.078125 0 
L 9.8125 0 
z
" id="DejaVuSans-44"/>
     </defs>
     <g transform="translate(172.910063 336.833125)scale(0.2 -0.2)">
      <use xlink:href="#DejaVuSans-6c"/>
      <use x="27.783203" xlink:href="#DejaVuSans-6f"/>
      <use x="88.964844" xlink:href="#DejaVuSans-67"/>
      <use x="152.441406" xlink:href="#DejaVuSans-31"/>
      <use x="216.064453" xlink:href="#DejaVuSans-30"/>
      <use x="279.6875" xlink:href="#DejaVuSans-20"/>
      <use x="311.474609" xlink:href="#DejaVuSans-6f"/>
      <use x="372.65625" xlink:href="#DejaVuSans-66"/>
      <use x="407.861328" xlink:href="#DejaVuSans-20"/>
      <use x="439.648438" xlink:href="#DejaVuSans-44"/>
      <use x="516.650391" xlink:href="#DejaVuSans-66"/>
     </g>
    </g>
   </g>
   <g id="matplotlib.axis_2">
    <g id="ytick_1">
     <g id="line2d_11">
      <path clip-path="url(#pd67cf5328b)" d="M 5.52 291.28 
L 450.672 291.28 
" style="fill:none;stroke:#b0b0b0;stroke-linecap:square;stroke-width:0.8;"/>
     </g>
     <g id="line2d_12">
      <defs>
       <path d="M 0 0 
L -3.5 0 
" id="ma342a63458" style="stroke:#000000;stroke-width:0.8;"/>
      </defs>
      <g>
       <use style="stroke:#000000;stroke-width:0.8;" x="5.52" xlink:href="#ma342a63458" y="291.28"/>
      </g>
     </g>
    </g>
    <g id="ytick_2">
     <g id="line2d_13">
      <path clip-path="url(#pd67cf5328b)" d="M 5.52 234.693861 
L 450.672 234.693861 
" style="fill:none;stroke:#b0b0b0;stroke-linecap:square;stroke-width:0.8;"/>
     </g>
     <g id="line2d_14">
      <g>
       <use style="stroke:#000000;stroke-width:0.8;" x="5.52" xlink:href="#ma342a63458" y="234.693861"/>
      </g>
     </g>
    </g>
    <g id="ytick_3">
     <g id="line2d_15">
      <path clip-path="url(#pd67cf5328b)" d="M 5.52 178.107723 
L 450.672 178.107723 
" style="fill:none;stroke:#b0b0b0;stroke-linecap:square;stroke-width:0.8;"/>
     </g>
     <g id="line2d_16">
      <g>
       <use style="stroke:#000000;stroke-width:0.8;" x="5.52" xlink:href="#ma342a63458" y="178.107723"/>
      </g>
     </g>
    </g>
    <g id="ytick_4">
     <g id="line2d_17">
      <path clip-path="url(#pd67cf5328b)" d="M 5.52 121.521584 
L 450.672 121.521584 
" style="fill:none;stroke:#b0b0b0;stroke-linecap:square;stroke-width:0.8;"/>
     </g>
     <g id="line2d_18">
      <g>
       <use style="stroke:#000000;stroke-width:0.8;" x="5.52" xlink:href="#ma342a63458" y="121.521584"/>
      </g>
     </g>
    </g>
    <g id="ytick_5">
     <g id="line2d_19">
      <path clip-path="url(#pd67cf5328b)" d="M 5.52 64.935446 
L 450.672 64.935446 
" style="fill:none;stroke:#b0b0b0;stroke-linecap:square;stroke-width:0.8;"/>
     </g>
     <g id="line2d_20">
      <g>
       <use style="stroke:#000000;stroke-width:0.8;" x="5.52" xlink:href="#ma342a63458" y="64.935446"/>
      </g>
     </g>
    </g>
    <g id="ytick_6">
     <g id="line2d_21">
      <path clip-path="url(#pd67cf5328b)" d="M 5.52 8.349307 
L 450.672 8.349307 
" style="fill:none;stroke:#b0b0b0;stroke-linecap:square;stroke-width:0.8;"/>
     </g>
     <g id="line2d_22">
      <g>
       <use style="stroke:#000000;stroke-width:0.8;" x="5.52" xlink:href="#ma342a63458" y="8.349307"/>
      </g>
     </g>
    </g>
   </g>
   <g id="line2d_23">
    <path clip-path="url(#pd67cf5328b)" d="M 164.75632 291.28 
L 164.797018 289.708163 
L 164.933021 289.708163 
L 164.977465 286.564488 
L 165.196746 286.564488 
L 165.265104 284.992651 
L 165.530868 284.992651 
L 165.530868 284.206733 
L 166.128104 284.206733 
L 166.128104 283.420814 
L 166.262395 283.420814 
L 166.262395 282.634895 
L 166.507582 282.634895 
L 166.507582 281.848977 
L 167.793246 281.848977 
L 167.793246 281.063058 
L 168.655849 281.063058 
L 168.655849 280.27714 
L 175.948701 280.27714 
L 175.948701 279.491221 
L 224.358263 279.491221 
L 224.374122 277.919384 
L 224.834517 277.919384 
L 224.834517 277.133465 
L 226.623343 277.133465 
L 226.623343 276.347547 
L 226.825732 276.347547 
L 226.825732 275.561628 
L 228.650007 275.561628 
L 228.650007 274.77571 
L 228.813193 274.77571 
L 228.813193 273.989791 
L 229.888684 273.989791 
L 229.888684 273.203872 
L 232.621061 273.203872 
L 232.621061 272.417954 
L 232.993832 272.417954 
L 233.075007 270.846117 
L 233.116882 270.846117 
L 233.116882 270.060198 
L 233.233806 270.060198 
L 233.233806 269.274279 
L 233.654677 269.274279 
L 233.654677 268.488361 
L 234.046529 268.488361 
L 234.096397 266.916524 
L 234.31201 266.916524 
L 234.31201 266.130605 
L 234.570709 266.130605 
L 234.570709 265.344686 
L 235.663005 265.344686 
L 235.663005 264.558768 
L 235.928405 264.558768 
L 235.928405 263.772849 
L 236.57502 263.772849 
L 236.654962 261.415094 
L 236.699966 261.415094 
L 236.78328 259.843256 
L 237.442172 259.843256 
L 237.442172 259.057338 
L 237.996264 259.057338 
L 237.996264 258.271419 
L 238.168739 258.271419 
L 238.168739 257.485501 
L 238.406212 257.485501 
L 238.406212 256.699582 
L 238.994229 256.699582 
L 238.994229 255.913663 
L 239.203708 255.913663 
L 239.203708 255.127745 
L 239.771701 255.127745 
L 239.859112 253.555908 
L 239.966419 253.555908 
L 239.966419 252.769989 
L 240.758669 252.769989 
L 240.758669 251.98407 
L 241.116048 251.98407 
L 241.116048 251.198152 
L 241.455148 251.198152 
L 241.455148 250.412233 
L 241.585452 250.412233 
L 241.585452 249.626315 
L 241.828972 249.626315 
L 241.873816 248.054477 
L 242.731595 248.054477 
L 242.77632 246.48264 
L 243.705514 246.48264 
L 243.705514 245.696722 
L 245.483203 245.696722 
L 245.483203 244.910803 
L 246.029803 244.910803 
L 246.044214 243.338966 
L 246.664449 243.338966 
L 246.726838 241.767129 
L 247.204071 241.767129 
L 247.216119 240.195292 
L 247.550903 240.195292 
L 247.550903 239.409373 
L 247.675385 239.409373 
L 247.775679 237.837536 
L 247.909964 237.837536 
L 247.909964 237.051617 
L 248.265737 237.051617 
L 248.287534 235.47978 
L 248.8385 235.47978 
L 248.8385 234.693861 
L 249.179375 234.693861 
L 249.189784 233.122024 
L 249.871366 233.122024 
L 249.871366 232.336106 
L 250.138351 232.336106 
L 250.138351 231.550187 
L 250.571316 231.550187 
L 250.571316 230.764268 
L 251.183536 230.764268 
L 251.183536 229.97835 
L 252.016918 229.97835 
L 252.016918 229.192431 
L 252.128988 229.192431 
L 252.15054 227.620594 
L 252.738765 227.620594 
L 252.738765 226.834675 
L 252.928418 226.834675 
L 252.928418 226.048757 
L 253.29727 226.048757 
L 253.396803 223.691001 
L 253.507522 223.691001 
L 253.507522 222.905083 
L 253.693404 222.905083 
L 253.693404 222.119164 
L 254.183181 222.119164 
L 254.183181 221.333245 
L 254.722426 221.333245 
L 254.722426 220.547327 
L 255.068127 220.547327 
L 255.068127 219.761408 
L 255.18288 219.761408 
L 255.18288 218.97549 
L 255.295434 218.97549 
L 255.306016 217.403652 
L 255.549411 217.403652 
L 255.628767 215.831815 
L 255.718522 215.831815 
L 255.718522 215.045897 
L 255.898219 215.045897 
L 255.898219 214.259978 
L 256.022473 214.259978 
L 256.022473 213.474059 
L 256.209292 213.474059 
L 256.263445 211.902222 
L 256.717656 211.902222 
L 256.788475 209.544466 
L 256.925887 209.544466 
L 256.925887 208.758548 
L 257.065771 208.758548 
L 257.078844 206.400792 
L 257.204501 206.400792 
L 257.204501 205.614873 
L 257.331686 205.614873 
L 257.331686 204.828955 
L 257.474642 204.828955 
L 257.511565 202.471199 
L 257.638456 202.471199 
L 257.693947 200.113443 
L 257.818903 200.113443 
L 257.818903 199.327525 
L 258.114535 199.327525 
L 258.114535 198.541606 
L 258.291866 198.541606 
L 258.398225 195.397932 
L 258.441597 195.397932 
L 258.544716 191.468339 
L 258.73998 191.468339 
L 258.803288 189.110583 
L 258.859741 189.110583 
L 258.929535 186.752827 
L 259.258879 186.752827 
L 259.258879 185.966909 
L 259.408415 185.966909 
L 259.408415 185.18099 
L 259.772673 185.18099 
L 259.772673 184.395072 
L 260.0049 184.395072 
L 260.0049 183.609153 
L 260.297422 183.609153 
L 260.297422 182.823234 
L 260.41628 182.823234 
L 260.474487 181.251397 
L 260.756559 181.251397 
L 260.756559 180.465479 
L 260.919754 180.465479 
L 260.970201 178.893641 
L 261.12925 178.893641 
L 261.12925 178.107723 
L 261.446608 178.107723 
L 261.446608 177.321804 
L 261.572558 177.321804 
L 261.652801 175.749967 
L 261.741735 175.749967 
L 261.741735 174.964048 
L 261.872927 174.964048 
L 261.960523 173.392211 
L 262.316432 173.392211 
L 262.316432 172.606293 
L 262.525376 172.606293 
L 262.566745 170.248537 
L 263.007677 170.248537 
L 263.007677 169.462618 
L 263.278404 169.462618 
L 263.359714 167.890781 
L 263.5171 167.890781 
L 263.610479 165.533025 
L 263.858947 165.533025 
L 263.858947 164.747107 
L 264.019206 164.747107 
L 264.019206 163.961188 
L 264.166446 163.961188 
L 264.166446 163.17527 
L 264.28877 163.17527 
L 264.343269 161.603432 
L 264.464406 161.603432 
L 264.464406 160.817514 
L 264.618675 160.817514 
L 264.64314 159.245677 
L 264.814236 159.245677 
L 264.814236 158.459758 
L 265.17534 158.459758 
L 265.17534 157.673839 
L 265.565027 157.673839 
L 265.565027 156.887921 
L 265.921319 156.887921 
L 265.921319 156.102002 
L 266.188038 156.102002 
L 266.241298 154.530165 
L 266.395146 154.530165 
L 266.482702 152.958328 
L 266.53719 152.958328 
L 266.597938 151.386491 
L 266.772417 151.386491 
L 266.772417 150.600572 
L 266.94675 150.600572 
L 266.94675 149.814653 
L 267.077516 149.814653 
L 267.100594 146.670979 
L 267.272356 146.670979 
L 267.325265 145.099142 
L 267.493843 145.099142 
L 267.493843 144.313223 
L 267.819302 144.313223 
L 267.908548 140.38363 
L 268.204371 140.38363 
L 268.204371 139.597712 
L 268.653659 139.597712 
L 268.718811 138.025875 
L 268.842818 138.025875 
L 268.842818 137.239956 
L 269.243021 137.239956 
L 269.243021 136.454037 
L 269.923251 136.454037 
L 269.979322 134.8822 
L 270.554967 134.8822 
L 270.554967 134.096282 
L 271.784266 134.096282 
L 271.784266 133.310363 
L 272.791388 133.310363 
L 272.791388 132.524444 
L 273.907766 132.524444 
L 273.907766 131.738526 
L 275.450649 131.738526 
L 275.450649 130.952607 
L 276.50075 130.952607 
L 276.50075 130.166689 
L 277.010233 130.166689 
L 277.010233 129.38077 
L 277.231049 129.38077 
L 277.231049 128.594851 
L 277.393808 128.594851 
L 277.393808 127.808933 
L 278.380151 127.808933 
L 278.380151 127.023014 
L 278.697754 127.023014 
L 278.779789 125.451177 
L 278.833577 125.451177 
L 278.833577 124.665259 
L 279.037627 124.665259 
L 279.090114 121.521584 
L 279.745733 121.521584 
L 279.778638 119.949747 
L 279.96421 119.949747 
L 280.000068 118.37791 
L 280.14058 118.37791 
L 280.206194 116.806073 
L 280.485439 116.806073 
L 280.571645 115.234235 
L 280.865574 115.234235 
L 280.865574 114.448317 
L 281.061652 114.448317 
L 281.115952 112.87648 
L 281.180165 112.87648 
L 281.21956 110.518724 
L 281.543479 110.518724 
L 281.555989 108.946887 
L 281.773446 108.946887 
L 281.773446 108.160968 
L 281.996317 108.160968 
L 282.1026 106.589131 
L 282.348035 106.589131 
L 282.438712 104.231375 
L 282.512352 104.231375 
L 282.512352 103.445457 
L 282.749727 103.445457 
L 282.84622 101.873619 
L 283.572929 101.873619 
L 283.572929 101.087701 
L 283.710833 101.087701 
L 283.710833 100.301782 
L 284.253386 100.301782 
L 284.253386 99.515864 
L 284.508662 99.515864 
L 284.508662 98.729945 
L 284.877926 98.729945 
L 284.877926 97.944026 
L 285.220839 97.944026 
L 285.220839 97.158108 
L 285.428289 97.158108 
L 285.505636 94.014433 
L 285.736597 94.014433 
L 285.789911 92.442596 
L 286.142694 92.442596 
L 286.213549 90.870759 
L 286.27239 90.870759 
L 286.27239 90.08484 
L 286.550593 90.08484 
L 286.648488 88.513003 
L 287.120584 88.513003 
L 287.15345 86.941166 
L 287.477019 86.941166 
L 287.477019 86.155248 
L 288.27124 86.155248 
L 288.27124 85.369329 
L 288.59417 85.369329 
L 288.59417 84.58341 
L 288.802848 84.58341 
L 288.802848 83.797492 
L 290.305938 83.797492 
L 290.305938 83.011573 
L 290.448512 83.011573 
L 290.448512 82.225655 
L 290.725685 82.225655 
L 290.725685 81.439736 
L 290.86883 81.439736 
L 290.86883 80.653817 
L 291.0465 80.653817 
L 291.119396 78.296062 
L 291.424213 78.296062 
L 291.424213 77.510143 
L 291.684699 77.510143 
L 291.728571 75.938306 
L 292.0826 75.938306 
L 292.0826 75.152387 
L 292.216731 75.152387 
L 292.244566 73.58055 
L 293.384938 73.58055 
L 293.384938 72.794631 
L 293.547471 72.794631 
L 293.547471 72.008713 
L 293.877548 72.008713 
L 293.877548 71.222794 
L 294.576564 71.222794 
L 294.650181 68.865039 
L 294.759661 68.865039 
L 294.850482 67.293201 
L 296.343242 67.293201 
L 296.343242 66.507283 
L 297.863305 66.507283 
L 297.865134 64.935446 
L 299.182565 64.935446 
L 299.182565 64.149527 
L 302.020025 64.149527 
L 302.020025 63.363608 
L 302.494718 63.363608 
L 302.494718 62.57769 
L 308.069575 62.57769 
L 308.069575 61.791771 
L 308.928908 61.791771 
L 308.928908 61.005853 
L 310.951144 61.005853 
L 310.951144 60.219934 
L 313.152065 60.219934 
L 313.152065 59.434015 
L 315.326572 59.434015 
L 315.326572 58.648097 
L 316.567177 58.648097 
L 316.567177 57.862178 
L 318.848481 57.862178 
L 318.890765 56.290341 
L 319.481009 56.290341 
L 319.481009 55.504422 
L 320.513595 55.504422 
L 320.513595 54.718504 
L 321.606821 54.718504 
L 321.606821 53.932585 
L 323.024054 53.932585 
L 323.024054 53.146667 
L 323.936696 53.146667 
L 323.936696 52.360748 
L 326.350493 52.360748 
L 326.350493 51.574829 
L 327.538325 51.574829 
L 327.538325 50.788911 
L 332.922772 50.788911 
L 332.922772 50.002992 
L 334.173005 50.002992 
L 334.173005 49.217074 
L 334.799826 49.217074 
L 334.799826 48.431155 
L 334.955717 48.431155 
L 334.955717 47.645237 
L 335.304671 47.645237 
L 335.304671 46.859318 
L 336.63317 46.859318 
L 336.63317 46.073399 
L 336.900267 46.073399 
L 336.900267 45.287481 
L 337.449557 45.287481 
L 337.449557 44.501562 
L 341.11102 44.501562 
L 341.11102 43.715644 
L 341.515429 43.715644 
L 341.515429 42.929725 
L 341.808126 42.929725 
L 341.808126 42.143806 
L 343.787118 42.143806 
L 343.787118 41.357888 
L 344.654013 41.357888 
L 344.654013 40.571969 
L 347.33795 40.571969 
L 347.33795 39.786051 
L 347.680962 39.786051 
L 347.680962 39.000132 
L 349.692388 39.000132 
L 349.692388 38.214213 
L 350.566872 38.214213 
L 350.566872 37.428295 
L 351.210055 37.428295 
L 351.281197 35.856458 
L 352.184961 35.856458 
L 352.29376 34.28462 
L 352.556389 34.28462 
L 352.556389 33.498702 
L 353.027458 33.498702 
L 353.08523 31.926865 
L 353.334827 31.926865 
L 353.334827 31.140946 
L 356.272124 31.140946 
L 356.272124 30.355028 
L 356.555071 30.355028 
L 356.555071 29.569109 
L 359.469604 29.569109 
L 359.469604 28.78319 
L 359.862215 28.78319 
L 359.862215 27.997272 
L 360.185064 27.997272 
L 360.185064 27.211353 
L 361.088751 27.211353 
L 361.088751 26.425435 
L 361.624894 26.425435 
L 361.624894 25.639516 
L 362.764416 25.639516 
L 362.764416 24.853597 
L 362.926676 24.853597 
L 362.926676 24.067679 
L 365.357375 24.067679 
L 365.357375 23.28176 
L 366.125225 23.28176 
L 366.125225 22.495842 
L 369.020148 22.495842 
L 369.020148 21.709923 
L 369.990707 21.709923 
L 369.990707 20.924004 
L 371.358406 20.924004 
L 371.358406 20.138086 
L 396.649133 20.138086 
L 396.649133 19.352167 
L 399.245575 19.352167 
L 399.245575 18.566249 
L 405.816659 18.566249 
L 405.816659 17.78033 
L 408.46636 17.78033 
L 408.46636 16.994411 
L 408.901523 16.994411 
L 408.901523 16.208493 
L 409.929587 16.208493 
L 409.929587 15.422574 
L 410.587491 15.422574 
L 410.587491 14.636656 
L 410.795205 14.636656 
L 410.795205 13.850737 
L 411.870768 13.850737 
L 411.870768 13.064818 
L 412.476834 13.064818 
L 412.476834 12.2789 
L 413.645651 12.2789 
L 413.645651 11.492981 
L 414.19139 11.492981 
L 414.19139 10.707063 
L 416.881023 10.707063 
L 416.971509 9.135226 
L 418.378776 9.135226 
L 418.378776 8.349307 
L 418.378776 8.349307 
L 450.672 8.349307 
L 450.672 8.349307 
" style="fill:none;stroke:#ff0000;stroke-linecap:square;stroke-width:3;"/>
   </g>
   <g id="line2d_24">
    <path clip-path="url(#pd67cf5328b)" d="M 195.625845 291.28 
L 195.669613 279.491221 
L 236.085165 279.491221 
L 236.085165 278.705303 
L 236.496046 278.705303 
L 236.496046 277.919384 
L 237.581958 277.919384 
L 237.581958 277.133465 
L 238.335884 277.133465 
L 238.335884 276.347547 
L 239.007081 276.347547 
L 239.007081 275.561628 
L 239.226791 275.561628 
L 239.302814 273.989791 
L 240.676094 273.989791 
L 240.676094 273.203872 
L 240.848099 273.203872 
L 240.929667 270.846117 
L 240.970321 270.846117 
L 240.970321 270.060198 
L 241.336265 270.060198 
L 241.400334 268.488361 
L 241.708649 268.488361 
L 241.708649 267.702442 
L 241.874997 267.702442 
L 241.923754 266.130605 
L 242.076061 266.130605 
L 242.117727 264.558768 
L 242.472052 264.558768 
L 242.472052 263.772849 
L 242.724375 263.772849 
L 242.724375 262.986931 
L 243.223653 262.986931 
L 243.223653 262.201012 
L 243.471514 262.201012 
L 243.471514 261.415094 
L 244.497114 261.415094 
L 244.578878 259.843256 
L 245.653124 259.843256 
L 245.653124 259.057338 
L 246.726324 259.057338 
L 246.726324 258.271419 
L 247.790075 258.271419 
L 247.790075 257.485501 
L 248.425589 257.485501 
L 248.425589 256.699582 
L 250.351169 256.699582 
L 250.351169 255.913663 
L 251.066087 255.913663 
L 251.083559 254.341826 
L 251.404623 254.341826 
L 251.485432 252.769989 
L 252.129927 252.769989 
L 252.197809 251.198152 
L 252.754349 251.198152 
L 252.754349 250.412233 
L 253.617136 250.412233 
L 253.633516 248.840396 
L 254.335645 248.840396 
L 254.42646 247.268559 
L 254.621803 247.268559 
L 254.621803 246.48264 
L 255.004915 246.48264 
L 255.004915 245.696722 
L 255.163625 245.696722 
L 255.259754 244.124884 
L 255.430166 244.124884 
L 255.430166 243.338966 
L 255.781892 243.338966 
L 255.888881 241.767129 
L 255.981784 241.767129 
L 256.016363 240.195292 
L 256.276472 240.195292 
L 256.276472 239.409373 
L 256.746888 239.409373 
L 256.746888 238.623454 
L 256.998325 238.623454 
L 256.998325 237.837536 
L 257.274148 237.837536 
L 257.274148 237.051617 
L 257.692023 237.051617 
L 257.747938 235.47978 
L 258.216834 235.47978 
L 258.216834 234.693861 
L 258.352878 234.693861 
L 258.423439 233.122024 
L 258.534947 233.122024 
L 258.538558 231.550187 
L 258.767571 231.550187 
L 258.767571 230.764268 
L 258.895589 230.764268 
L 258.964516 228.406513 
L 259.052211 228.406513 
L 259.127948 225.262838 
L 259.43039 225.262838 
L 259.43039 224.47692 
L 259.569499 224.47692 
L 259.671383 222.119164 
L 259.728598 222.119164 
L 259.728598 221.333245 
L 259.891456 221.333245 
L 259.891456 220.547327 
L 260.004676 220.547327 
L 260.107665 216.617734 
L 260.126284 216.617734 
L 260.181562 212.688141 
L 260.239897 212.688141 
L 260.322078 208.758548 
L 260.458193 208.758548 
L 260.471037 206.400792 
L 260.578784 206.400792 
L 260.634334 204.043036 
L 260.736977 204.043036 
L 260.736977 203.257118 
L 261.050059 203.257118 
L 261.150645 201.685281 
L 261.363688 201.685281 
L 261.363688 200.899362 
L 261.666928 200.899362 
L 261.755835 199.327525 
L 262.204466 199.327525 
L 262.280342 197.755688 
L 262.596611 197.755688 
L 262.596611 196.969769 
L 263.432798 196.969769 
L 263.485941 195.397932 
L 263.597798 195.397932 
L 263.608534 193.826095 
L 263.761907 193.826095 
L 263.761907 193.040176 
L 264.708982 193.040176 
L 264.708982 192.254257 
L 264.895739 192.254257 
L 264.925867 179.67956 
L 265.334917 179.67956 
L 265.334917 178.893641 
L 265.468932 178.893641 
L 265.468932 178.107723 
L 265.724038 178.107723 
L 265.724038 177.321804 
L 266.845674 177.321804 
L 266.845674 176.535886 
L 267.098942 176.535886 
L 267.098942 175.749967 
L 267.637463 175.749967 
L 267.688273 174.17813 
L 271.257489 174.17813 
L 271.257489 173.392211 
L 273.490002 173.392211 
L 273.575143 171.820374 
L 274.687459 171.820374 
L 274.687459 171.034455 
L 275.130965 171.034455 
L 275.130965 170.248537 
L 275.312322 170.248537 
L 275.312322 169.462618 
L 275.474867 169.462618 
L 275.474867 168.6767 
L 275.797235 168.6767 
L 275.797235 167.890781 
L 276.114211 167.890781 
L 276.168834 166.318944 
L 276.307022 166.318944 
L 276.370768 164.747107 
L 276.50613 164.747107 
L 276.50613 163.961188 
L 276.640703 163.961188 
L 276.640703 163.17527 
L 277.510884 163.17527 
L 277.510884 162.389351 
L 277.978897 162.389351 
L 278.031058 149.814653 
L 280.206194 149.814653 
L 280.206194 149.028735 
L 280.406132 149.028735 
L 280.406132 148.242816 
L 281.06818 148.242816 
L 281.151712 146.670979 
L 281.491232 146.670979 
L 281.549784 145.099142 
L 282.033172 145.099142 
L 282.033172 144.313223 
L 282.273921 144.313223 
L 282.273921 143.527305 
L 282.647468 143.527305 
L 282.647468 142.741386 
L 282.781424 142.741386 
L 282.84622 141.169549 
L 282.909219 141.169549 
L 282.98015 139.597712 
L 283.117818 139.597712 
L 283.1922 138.025875 
L 283.294941 138.025875 
L 283.384705 134.8822 
L 283.470654 134.8822 
L 283.470654 134.096282 
L 283.870138 134.096282 
L 283.897096 132.524444 
L 284.201811 132.524444 
L 284.202747 130.952607 
L 284.3607 130.952607 
L 284.365383 129.38077 
L 284.508662 129.38077 
L 284.53449 127.023014 
L 284.646952 127.023014 
L 284.646952 126.237096 
L 284.778539 126.237096 
L 284.778539 125.451177 
L 284.898496 125.451177 
L 284.963412 123.093421 
L 285.30183 123.093421 
L 285.30183 122.307503 
L 285.505636 122.307503 
L 285.506041 120.735666 
L 285.736597 120.735666 
L 285.736597 119.949747 
L 285.985867 119.949747 
L 285.985867 119.163828 
L 286.125997 119.163828 
L 286.213549 117.591991 
L 286.648488 117.591991 
L 286.648488 116.806073 
L 287.260973 116.806073 
L 287.302891 113.662398 
L 287.477019 113.662398 
L 287.477019 112.87648 
L 287.680548 112.87648 
L 287.709669 111.304642 
L 287.909493 111.304642 
L 287.909493 110.518724 
L 288.735411 110.518724 
L 288.735411 109.732805 
L 290.305938 109.732805 
L 290.305938 108.946887 
L 290.577958 108.946887 
L 290.577958 108.160968 
L 292.0826 108.160968 
L 292.0826 107.37505 
L 292.216731 107.37505 
L 292.216731 106.589131 
L 292.614023 106.589131 
L 292.614023 105.803212 
L 294.544675 105.803212 
L 294.576564 104.231375 
L 294.686506 104.231375 
L 294.759661 102.659538 
L 295.606533 102.659538 
L 295.606533 101.873619 
L 296.129611 101.873619 
L 296.221736 100.301782 
L 296.399594 100.301782 
L 296.399594 99.515864 
L 297.02878 99.515864 
L 297.134412 96.372189 
L 297.524432 96.372189 
L 297.524432 95.586271 
L 297.863305 95.586271 
L 297.863305 94.800352 
L 298.061301 94.800352 
L 298.061301 94.014433 
L 298.290809 94.014433 
L 298.330225 92.442596 
L 299.182565 92.442596 
L 299.209397 90.870759 
L 320.761861 90.870759 
L 320.761861 79.08198 
L 324.438274 79.08198 
L 324.438274 78.296062 
L 324.696508 78.296062 
L 324.696508 77.510143 
L 325.322526 77.510143 
L 325.322526 76.724224 
L 326.457002 76.724224 
L 326.457002 75.938306 
L 328.296185 75.938306 
L 328.296185 75.152387 
L 329.254817 75.152387 
L 329.254817 74.366469 
L 331.280309 74.366469 
L 331.280309 73.58055 
L 331.943079 73.58055 
L 332.000845 72.008713 
L 332.998979 72.008713 
L 333.049094 70.436876 
L 333.273202 70.436876 
L 333.273202 69.650957 
L 335.588013 69.650957 
L 335.588013 68.865039 
L 336.600884 68.865039 
L 336.600884 68.07912 
L 336.989881 68.07912 
L 336.989881 67.293201 
L 337.684095 67.293201 
L 337.684095 66.507283 
L 342.736629 66.507283 
L 342.736629 65.721364 
L 345.467917 65.721364 
L 345.467917 64.935446 
L 347.380722 64.935446 
L 347.380722 64.149527 
L 351.260529 64.149527 
L 351.260529 63.363608 
L 351.55472 63.363608 
L 351.55472 62.57769 
L 353.006068 62.57769 
L 353.006068 61.791771 
L 354.056143 61.791771 
L 354.056143 61.005853 
L 354.558786 61.005853 
L 354.558786 60.219934 
L 355.408376 60.219934 
L 355.408376 59.434015 
L 357.972771 59.434015 
L 357.972771 58.648097 
L 359.127265 58.648097 
L 359.127265 57.862178 
L 359.290734 57.862178 
L 359.297929 56.290341 
L 360.52026 56.290341 
L 360.52026 55.504422 
L 361.342155 55.504422 
L 361.403332 53.932585 
L 362.576225 53.932585 
L 362.576225 53.146667 
L 365.442156 53.146667 
L 365.442156 52.360748 
L 366.6873 52.360748 
L 366.6873 51.574829 
L 369.789147 51.574829 
L 369.789147 50.788911 
L 372.44632 50.788911 
L 372.44632 50.002992 
L 373.084051 50.002992 
L 373.084051 49.217074 
L 374.78312 49.217074 
L 374.78312 48.431155 
L 375.756261 48.431155 
L 375.756261 47.645237 
L 376.021211 47.645237 
L 376.021211 46.859318 
L 376.133446 46.859318 
L 376.133446 46.073399 
L 378.613618 46.073399 
L 378.613618 45.287481 
L 379.340895 45.287481 
L 379.340895 44.501562 
L 380.314229 44.501562 
L 380.314229 43.715644 
L 380.809058 43.715644 
L 380.809058 42.929725 
L 381.055198 42.929725 
L 381.055198 42.143806 
L 381.991968 42.143806 
L 381.991968 41.357888 
L 383.317632 41.357888 
L 383.375871 39.786051 
L 385.486205 39.786051 
L 385.486205 39.000132 
L 387.450719 39.000132 
L 387.492036 37.428295 
L 387.620936 37.428295 
L 387.620936 36.642376 
L 387.801513 36.642376 
L 387.801513 35.856458 
L 388.289612 35.856458 
L 388.289612 35.070539 
L 388.449779 35.070539 
L 388.449779 34.28462 
L 389.522287 34.28462 
L 389.522287 33.498702 
L 389.921158 33.498702 
L 389.936308 31.926865 
L 390.369464 31.926865 
L 390.424361 30.355028 
L 391.074377 30.355028 
L 391.074377 29.569109 
L 391.921402 29.569109 
L 391.921402 28.78319 
L 392.222698 28.78319 
L 392.295122 27.211353 
L 392.979588 27.211353 
L 392.979588 26.425435 
L 393.101875 26.425435 
L 393.101875 25.639516 
L 393.367569 25.639516 
L 393.367569 24.853597 
L 394.287497 24.853597 
L 394.287497 24.067679 
L 396.082289 24.067679 
L 396.082289 23.28176 
L 397.386824 23.28176 
L 397.386824 22.495842 
L 398.777267 22.495842 
L 398.777267 21.709923 
L 398.907098 21.709923 
L 398.907098 20.924004 
L 403.504171 20.924004 
L 403.504171 20.138086 
L 415.813978 20.138086 
L 415.813978 19.352167 
L 416.371332 19.352167 
L 416.371332 18.566249 
L 422.315221 18.566249 
L 422.315221 17.78033 
L 422.542879 17.78033 
L 422.542879 16.994411 
L 423.283775 16.994411 
L 423.283775 16.208493 
L 423.466153 16.208493 
L 423.466153 15.422574 
L 424.839886 15.422574 
L 424.839886 14.636656 
L 428.596966 14.636656 
L 428.596966 13.850737 
L 430.536765 13.850737 
L 430.536765 13.064818 
L 433.124192 13.064818 
L 433.124192 12.2789 
L 434.455493 12.2789 
L 434.455493 11.492981 
L 435.993084 11.492981 
L 435.993084 10.707063 
L 436.158959 10.707063 
L 436.158959 9.921144 
L 436.668645 9.921144 
L 436.668645 9.135226 
L 437.056968 9.135226 
L 437.056968 8.349307 
L 437.056968 8.349307 
L 450.672 8.349307 
L 450.672 8.349307 
" style="fill:none;stroke:#00bfbf;stroke-linecap:square;stroke-width:1.5;"/>
   </g>
   <g id="line2d_25">
    <path clip-path="url(#pd67cf5328b)" d="M 195.612896 291.28 
L 195.647345 279.491221 
L 236.085165 279.491221 
L 236.085165 278.705303 
L 236.41095 278.705303 
L 236.41095 277.919384 
L 237.581958 277.919384 
L 237.581958 277.133465 
L 238.292666 277.133465 
L 238.292666 276.347547 
L 238.993448 276.347547 
L 238.993448 275.561628 
L 239.225938 275.561628 
L 239.301957 273.989791 
L 240.626473 273.989791 
L 240.626473 273.203872 
L 240.848099 273.203872 
L 240.929249 270.846117 
L 240.969432 270.846117 
L 240.969432 270.060198 
L 241.314105 270.060198 
L 241.399822 268.488361 
L 241.707901 268.488361 
L 241.707901 267.702442 
L 241.857308 267.702442 
L 241.923033 266.130605 
L 242.074098 266.130605 
L 242.116641 264.558768 
L 242.471587 264.558768 
L 242.471587 263.772849 
L 242.723845 263.772849 
L 242.723845 262.986931 
L 243.087117 262.986931 
L 243.087117 262.201012 
L 243.465736 262.201012 
L 243.465736 261.415094 
L 244.496081 261.415094 
L 244.547514 259.843256 
L 245.621026 259.843256 
L 245.621026 259.057338 
L 246.726006 259.057338 
L 246.726006 258.271419 
L 247.790075 258.271419 
L 247.790075 257.485501 
L 248.399149 257.485501 
L 248.399149 256.699582 
L 250.350741 256.699582 
L 250.350741 255.913663 
L 251.063286 255.913663 
L 251.083513 254.341826 
L 251.404416 254.341826 
L 251.485373 252.769989 
L 252.129927 252.769989 
L 252.197809 251.198152 
L 252.75126 251.198152 
L 252.75126 250.412233 
L 253.585626 250.412233 
L 253.632425 248.840396 
L 254.335363 248.840396 
L 254.426248 247.268559 
L 254.621154 247.268559 
L 254.621154 246.48264 
L 255.004915 246.48264 
L 255.004915 245.696722 
L 255.163535 245.696722 
L 255.259659 244.124884 
L 255.429816 244.124884 
L 255.429816 243.338966 
L 255.781607 243.338966 
L 255.886261 241.767129 
L 255.981761 241.767129 
L 256.014831 240.195292 
L 256.257335 240.195292 
L 256.257335 239.409373 
L 256.745231 239.409373 
L 256.745231 238.623454 
L 256.990151 238.623454 
L 256.990151 237.837536 
L 257.262709 237.837536 
L 257.262709 237.051617 
L 257.679089 237.051617 
L 257.740253 235.47978 
L 258.213638 235.47978 
L 258.213638 234.693861 
L 258.352802 234.693861 
L 258.423402 233.122024 
L 258.529906 233.122024 
L 258.534423 231.550187 
L 258.767451 231.550187 
L 258.767451 230.764268 
L 258.895589 230.764268 
L 258.964516 228.406513 
L 259.052188 228.406513 
L 259.127907 225.262838 
L 259.43038 225.262838 
L 259.43038 224.47692 
L 259.569475 224.47692 
L 259.671348 222.119164 
L 259.728587 222.119164 
L 259.728587 221.333245 
L 259.891456 221.333245 
L 259.891456 220.547327 
L 260.004664 220.547327 
L 260.107649 216.617734 
L 260.126229 216.617734 
L 260.173838 212.688141 
L 260.239897 212.688141 
L 260.322063 208.758548 
L 260.458178 208.758548 
L 260.471022 206.400792 
L 260.57874 206.400792 
L 260.634323 204.043036 
L 260.736973 204.043036 
L 260.736973 203.257118 
L 261.050059 203.257118 
L 261.150581 201.685281 
L 261.363547 201.685281 
L 261.363547 200.899362 
L 261.666877 200.899362 
L 261.755835 199.327525 
L 262.204285 199.327525 
L 262.28026 197.755688 
L 262.596536 197.755688 
L 262.596536 196.969769 
L 263.432745 196.969769 
L 263.485941 195.397932 
L 263.591677 195.397932 
L 263.597693 193.826095 
L 263.761326 193.826095 
L 263.761326 193.040176 
L 264.697408 193.040176 
L 264.697408 192.254257 
L 264.895642 192.254257 
L 264.925505 179.67956 
L 265.3349 179.67956 
L 265.3349 178.893641 
L 265.468876 178.893641 
L 265.468876 178.107723 
L 265.724032 178.107723 
L 265.724032 177.321804 
L 266.845674 177.321804 
L 266.845674 176.535886 
L 267.098598 176.535886 
L 267.098598 175.749967 
L 267.637009 175.749967 
L 267.686855 174.17813 
L 271.256152 174.17813 
L 271.256152 173.392211 
L 273.487672 173.392211 
L 273.573483 171.820374 
L 274.687459 171.820374 
L 274.687459 171.034455 
L 275.130965 171.034455 
L 275.130965 170.248537 
L 275.3101 170.248537 
L 275.3101 169.462618 
L 275.473688 169.462618 
L 275.473688 168.6767 
L 275.795637 168.6767 
L 275.795637 167.890781 
L 276.111143 167.890781 
L 276.15899 166.318944 
L 276.301604 166.318944 
L 276.370768 164.747107 
L 276.501738 164.747107 
L 276.501738 163.961188 
L 276.637854 163.961188 
L 276.637854 163.17527 
L 277.509309 163.17527 
L 277.509309 162.389351 
L 277.977633 162.389351 
L 278.031018 149.814653 
L 280.206194 149.814653 
L 280.206194 149.028735 
L 280.405611 149.028735 
L 280.405611 148.242816 
L 281.06774 148.242816 
L 281.151116 146.670979 
L 281.49082 146.670979 
L 281.548958 145.099142 
L 282.032671 145.099142 
L 282.032671 144.313223 
L 282.273358 144.313223 
L 282.273358 143.527305 
L 282.646533 143.527305 
L 282.646533 142.741386 
L 282.781397 142.741386 
L 282.84622 141.169549 
L 282.908717 141.169549 
L 282.979611 139.597712 
L 283.116791 139.597712 
L 283.191966 138.025875 
L 283.294211 138.025875 
L 283.383886 134.8822 
L 283.470497 134.8822 
L 283.470497 134.096282 
L 283.869678 134.096282 
L 283.896931 132.524444 
L 284.201148 132.524444 
L 284.202054 130.952607 
L 284.360129 130.952607 
L 284.365072 129.38077 
L 284.508662 129.38077 
L 284.532402 127.023014 
L 284.646676 127.023014 
L 284.646676 126.237096 
L 284.778517 126.237096 
L 284.778517 125.451177 
L 284.898088 125.451177 
L 284.963375 123.093421 
L 285.301503 123.093421 
L 285.301503 122.307503 
L 285.505365 122.307503 
L 285.505636 120.735666 
L 285.736597 120.735666 
L 285.736597 119.949747 
L 285.985374 119.949747 
L 285.985374 119.163828 
L 286.125544 119.163828 
L 286.213549 117.591991 
L 286.648488 117.591991 
L 286.648488 116.806073 
L 287.260369 116.806073 
L 287.302251 113.662398 
L 287.477019 113.662398 
L 287.477019 112.87648 
L 287.680295 112.87648 
L 287.708991 111.304642 
L 287.908779 111.304642 
L 287.908779 110.518724 
L 288.734008 110.518724 
L 288.734008 109.732805 
L 290.305938 109.732805 
L 290.305938 108.946887 
L 290.577591 108.946887 
L 290.577591 108.160968 
L 292.0826 108.160968 
L 292.0826 107.37505 
L 292.216731 107.37505 
L 292.216731 106.589131 
L 292.613892 106.589131 
L 292.613892 105.803212 
L 294.544664 105.803212 
L 294.576564 104.231375 
L 294.686426 104.231375 
L 294.759661 102.659538 
L 295.606453 102.659538 
L 295.606453 101.873619 
L 296.129595 101.873619 
L 296.221644 100.301782 
L 296.39956 100.301782 
L 296.39956 99.515864 
L 297.028411 99.515864 
L 297.13433 96.372189 
L 297.524331 96.372189 
L 297.524331 95.586271 
L 297.863305 95.586271 
L 297.863305 94.800352 
L 298.061301 94.800352 
L 298.061301 94.014433 
L 298.290774 94.014433 
L 298.330218 92.442596 
L 299.182565 92.442596 
L 299.209385 90.870759 
L 320.759852 90.870759 
L 320.760658 79.08198 
L 324.437454 79.08198 
L 324.437454 78.296062 
L 324.694767 78.296062 
L 324.694767 77.510143 
L 325.321364 77.510143 
L 325.321364 76.724224 
L 326.451274 76.724224 
L 326.451274 75.938306 
L 328.294675 75.938306 
L 328.294675 75.152387 
L 329.254302 75.152387 
L 329.254302 74.366469 
L 331.279048 74.366469 
L 331.279048 73.58055 
L 331.942277 73.58055 
L 331.99994 72.008713 
L 332.998367 72.008713 
L 333.048469 70.436876 
L 333.272139 70.436876 
L 333.272139 69.650957 
L 335.587447 69.650957 
L 335.587447 68.865039 
L 336.600541 68.865039 
L 336.600541 68.07912 
L 336.989375 68.07912 
L 336.989375 67.293201 
L 337.683737 67.293201 
L 337.683737 66.507283 
L 342.735986 66.507283 
L 342.735986 65.721364 
L 345.467605 65.721364 
L 345.467605 64.935446 
L 347.379464 64.935446 
L 347.379464 64.149527 
L 351.258276 64.149527 
L 351.258276 63.363608 
L 351.554518 63.363608 
L 351.554518 62.57769 
L 353.005862 62.57769 
L 353.005862 61.791771 
L 354.056015 61.791771 
L 354.056015 61.005853 
L 354.558786 61.005853 
L 354.558786 60.219934 
L 355.407909 60.219934 
L 355.407909 59.434015 
L 357.968452 59.434015 
L 357.968452 58.648097 
L 359.127265 58.648097 
L 359.127265 57.862178 
L 359.290734 57.862178 
L 359.297929 56.290341 
L 360.520224 56.290341 
L 360.520224 55.504422 
L 361.342001 55.504422 
L 361.401644 53.932585 
L 362.576061 53.932585 
L 362.576061 53.146667 
L 365.442105 53.146667 
L 365.442105 52.360748 
L 366.687235 52.360748 
L 366.687235 51.574829 
L 369.788444 51.574829 
L 369.788444 50.788911 
L 372.44632 50.788911 
L 372.44632 50.002992 
L 373.08338 50.002992 
L 373.08338 49.217074 
L 374.782784 49.217074 
L 374.782784 48.431155 
L 375.756125 48.431155 
L 375.756125 47.645237 
L 376.020399 47.645237 
L 376.020399 46.859318 
L 376.132467 46.859318 
L 376.132467 46.073399 
L 378.612646 46.073399 
L 378.612646 45.287481 
L 379.34016 45.287481 
L 379.34016 44.501562 
L 380.314229 44.501562 
L 380.314229 43.715644 
L 380.808093 43.715644 
L 380.808093 42.929725 
L 381.053956 42.929725 
L 381.053956 42.143806 
L 381.991136 42.143806 
L 381.991136 41.357888 
L 383.317374 41.357888 
L 383.375632 39.786051 
L 385.485139 39.786051 
L 385.485139 39.000132 
L 387.450271 39.000132 
L 387.4907 37.428295 
L 387.620614 37.428295 
L 387.620614 36.642376 
L 387.801409 36.642376 
L 387.801409 35.856458 
L 388.288027 35.856458 
L 388.288027 35.070539 
L 388.448761 35.070539 
L 388.448761 34.28462 
L 389.522287 34.28462 
L 389.522287 33.498702 
L 389.920584 33.498702 
L 389.936306 31.926865 
L 390.36939 31.926865 
L 390.422553 30.355028 
L 391.074377 30.355028 
L 391.074377 29.569109 
L 391.920417 29.569109 
L 391.920417 28.78319 
L 392.221976 28.78319 
L 392.295122 27.211353 
L 392.979497 27.211353 
L 392.979497 26.425435 
L 393.100371 26.425435 
L 393.100371 25.639516 
L 393.366258 25.639516 
L 393.366258 24.853597 
L 394.287174 24.853597 
L 394.287174 24.067679 
L 396.081422 24.067679 
L 396.081422 23.28176 
L 397.385467 23.28176 
L 397.385467 22.495842 
L 398.77606 22.495842 
L 398.77606 21.709923 
L 398.905855 21.709923 
L 398.905855 20.924004 
L 403.504171 20.924004 
L 403.504171 20.138086 
L 415.813813 20.138086 
L 415.813813 19.352167 
L 416.371014 19.352167 
L 416.371014 18.566249 
L 422.314908 18.566249 
L 422.314908 17.78033 
L 422.54256 17.78033 
L 422.54256 16.994411 
L 423.283528 16.994411 
L 423.283528 16.208493 
L 423.46547 16.208493 
L 423.46547 15.422574 
L 424.839512 15.422574 
L 424.839512 14.636656 
L 428.596336 14.636656 
L 428.596336 13.850737 
L 430.536698 13.850737 
L 430.536698 13.064818 
L 433.124131 13.064818 
L 433.124131 12.2789 
L 434.455038 12.2789 
L 434.455038 11.492981 
L 435.993084 11.492981 
L 435.993084 10.707063 
L 436.1588 10.707063 
L 436.1588 9.921144 
L 436.668315 9.921144 
L 436.668315 9.135226 
L 437.056968 9.135226 
L 437.056968 8.349307 
L 437.056968 8.349307 
L 450.672 8.349307 
L 450.672 8.349307 
" style="fill:none;stroke:#bf00bf;stroke-linecap:square;stroke-width:1.5;"/>
   </g>
   <g id="line2d_26">
    <path clip-path="url(#pd67cf5328b)" d="M 195.404716 291.28 
L 195.508242 281.063058 
L 195.519874 281.063058 
L 195.525809 279.491221 
L 235.774639 279.491221 
L 235.774639 278.705303 
L 236.002705 278.705303 
L 236.002705 277.919384 
L 237.028473 277.919384 
L 237.028473 277.133465 
L 237.996981 277.133465 
L 237.996981 276.347547 
L 238.664377 276.347547 
L 238.664377 275.561628 
L 239.216127 275.561628 
L 239.294587 273.989791 
L 240.255187 273.989791 
L 240.255187 273.203872 
L 240.650866 273.203872 
L 240.650866 272.417954 
L 240.899938 272.417954 
L 240.961639 269.274279 
L 241.310164 269.274279 
L 241.389667 267.702442 
L 241.703371 267.702442 
L 241.703371 266.916524 
L 241.917232 266.916524 
L 241.917232 266.130605 
L 242.066465 266.130605 
L 242.108801 264.558768 
L 242.375359 264.558768 
L 242.464999 262.986931 
L 242.721417 262.986931 
L 242.721417 262.201012 
L 243.202746 262.201012 
L 243.202746 261.415094 
L 244.290797 261.415094 
L 244.290797 260.629175 
L 244.48722 260.629175 
L 244.48722 259.843256 
L 245.311064 259.843256 
L 245.311064 259.057338 
L 246.72312 259.057338 
L 246.72312 258.271419 
L 247.631877 258.271419 
L 247.631877 257.485501 
L 248.230464 257.485501 
L 248.230464 256.699582 
L 250.348453 256.699582 
L 250.348453 255.913663 
L 251.031513 255.913663 
L 251.08159 254.341826 
L 251.401506 254.341826 
L 251.481175 252.769989 
L 252.127772 252.769989 
L 252.130208 251.198152 
L 252.726629 251.198152 
L 252.726629 250.412233 
L 253.558323 250.412233 
L 253.6216 248.840396 
L 254.333421 248.840396 
L 254.412454 247.268559 
L 254.610045 247.268559 
L 254.610045 246.48264 
L 255.003272 246.48264 
L 255.003272 245.696722 
L 255.161639 245.696722 
L 255.257608 244.124884 
L 255.426885 244.124884 
L 255.426885 243.338966 
L 255.779861 243.338966 
L 255.871604 241.767129 
L 255.973854 241.767129 
L 256.006509 240.195292 
L 256.216873 240.195292 
L 256.216873 239.409373 
L 256.730958 239.409373 
L 256.730958 238.623454 
L 256.969042 238.623454 
L 256.969042 237.837536 
L 257.248751 237.837536 
L 257.248751 237.051617 
L 257.648703 237.051617 
L 257.705713 235.47978 
L 258.19458 235.47978 
L 258.19458 234.693861 
L 258.352057 234.693861 
L 258.422762 233.122024 
L 258.474785 233.122024 
L 258.53168 231.550187 
L 258.764798 231.550187 
L 258.764798 230.764268 
L 258.894338 230.764268 
L 258.944134 228.406513 
L 259.008238 228.406513 
L 259.055587 226.048757 
L 259.127552 226.048757 
L 259.127552 225.262838 
L 259.430061 225.262838 
L 259.430061 224.47692 
L 259.56903 224.47692 
L 259.671076 222.119164 
L 259.728294 222.119164 
L 259.728294 221.333245 
L 259.891194 221.333245 
L 259.891194 220.547327 
L 260.004348 220.547327 
L 260.111326 215.831815 
L 260.125979 215.831815 
L 260.17357 212.688141 
L 260.238596 212.688141 
L 260.321964 208.758548 
L 260.458053 208.758548 
L 260.53761 205.614873 
L 260.578647 205.614873 
L 260.634261 204.043036 
L 260.736907 204.043036 
L 260.736907 203.257118 
L 261.047691 203.257118 
L 261.14944 201.685281 
L 261.362245 201.685281 
L 261.362245 200.899362 
L 261.66566 200.899362 
L 261.728675 199.327525 
L 262.203047 199.327525 
L 262.279049 197.755688 
L 262.595341 197.755688 
L 262.595341 196.969769 
L 263.431648 196.969769 
L 263.48489 195.397932 
L 263.567279 195.397932 
L 263.596482 193.826095 
L 263.749074 193.826095 
L 263.749074 193.040176 
L 264.67834 193.040176 
L 264.67834 192.254257 
L 264.894556 192.254257 
L 264.922983 179.67956 
L 265.333906 179.67956 
L 265.333906 178.893641 
L 265.467961 178.893641 
L 265.467961 178.107723 
L 265.723063 178.107723 
L 265.723063 177.321804 
L 266.844749 177.321804 
L 266.844749 176.535886 
L 267.096529 176.535886 
L 267.096529 175.749967 
L 267.630994 175.749967 
L 267.678538 174.17813 
L 271.22243 174.17813 
L 271.22243 173.392211 
L 273.463783 173.392211 
L 273.53059 171.820374 
L 274.6653 171.820374 
L 274.6653 171.034455 
L 275.087037 171.034455 
L 275.087037 170.248537 
L 275.285792 170.248537 
L 275.285792 169.462618 
L 275.442967 169.462618 
L 275.442967 168.6767 
L 275.7578 168.6767 
L 275.7578 167.890781 
L 276.080635 167.890781 
L 276.133758 166.318944 
L 276.276724 166.318944 
L 276.336844 164.747107 
L 276.473412 164.747107 
L 276.473412 163.961188 
L 276.589785 163.961188 
L 276.589785 163.17527 
L 277.485462 163.17527 
L 277.485462 162.389351 
L 277.953456 162.389351 
L 278.030749 149.814653 
L 280.206194 149.814653 
L 280.206194 149.028735 
L 280.399887 149.028735 
L 280.399887 148.242816 
L 281.063258 148.242816 
L 281.147662 146.670979 
L 281.486278 146.670979 
L 281.545853 145.099142 
L 282.028633 145.099142 
L 282.028633 144.313223 
L 282.269695 144.313223 
L 282.269695 143.527305 
L 282.642311 143.527305 
L 282.642311 142.741386 
L 282.77759 142.741386 
L 282.84622 141.169549 
L 282.904346 141.169549 
L 282.974298 139.597712 
L 283.11266 139.597712 
L 283.189127 138.025875 
L 283.291018 138.025875 
L 283.381113 134.8822 
L 283.467556 134.8822 
L 283.467556 134.096282 
L 283.865639 134.096282 
L 283.89418 132.524444 
L 284.196202 132.524444 
L 284.198053 130.952607 
L 284.358372 130.952607 
L 284.360731 129.38077 
L 284.508662 129.38077 
L 284.527653 127.023014 
L 284.64426 127.023014 
L 284.64426 126.237096 
L 284.774549 126.237096 
L 284.774549 125.451177 
L 284.8955 125.451177 
L 284.960626 123.093421 
L 285.297838 123.093421 
L 285.297838 122.307503 
L 285.503078 122.307503 
L 285.505636 120.735666 
L 285.736597 120.735666 
L 285.736597 119.949747 
L 285.984049 119.949747 
L 285.984049 119.163828 
L 286.121841 119.163828 
L 286.213549 117.591991 
L 286.648488 117.591991 
L 286.648488 116.806073 
L 287.258232 116.806073 
L 287.299845 113.662398 
L 287.477019 113.662398 
L 287.477019 112.87648 
L 287.677725 112.87648 
L 287.706476 111.304642 
L 287.904056 111.304642 
L 287.904056 110.518724 
L 288.730933 110.518724 
L 288.730933 109.732805 
L 290.305938 109.732805 
L 290.305938 108.946887 
L 290.572696 108.946887 
L 290.572696 108.160968 
L 292.0826 108.160968 
L 292.0826 107.37505 
L 292.216731 107.37505 
L 292.216731 106.589131 
L 292.613003 106.589131 
L 292.613003 105.803212 
L 294.543782 105.803212 
L 294.576564 104.231375 
L 294.685759 104.231375 
L 294.759661 102.659538 
L 295.605743 102.659538 
L 295.605743 101.873619 
L 296.129009 101.873619 
L 296.221103 100.301782 
L 296.39888 100.301782 
L 296.39888 99.515864 
L 297.026814 99.515864 
L 297.13363 96.372189 
L 297.523775 96.372189 
L 297.523775 95.586271 
L 297.863305 95.586271 
L 297.863305 94.800352 
L 298.060768 94.800352 
L 298.060768 94.014433 
L 298.290265 94.014433 
L 298.329625 92.442596 
L 299.182565 92.442596 
L 299.208832 90.870759 
L 320.754538 90.870759 
L 320.757125 79.08198 
L 324.434169 79.08198 
L 324.434169 78.296062 
L 324.691524 78.296062 
L 324.691524 77.510143 
L 325.317324 77.510143 
L 325.317324 76.724224 
L 326.411544 76.724224 
L 326.411544 75.938306 
L 328.29145 75.938306 
L 328.29145 75.152387 
L 329.251554 75.152387 
L 329.251554 74.366469 
L 331.276493 74.366469 
L 331.276493 73.58055 
L 331.939311 73.58055 
L 331.996597 72.008713 
L 332.995685 72.008713 
L 333.04587 70.436876 
L 333.269027 70.436876 
L 333.269027 69.650957 
L 335.585196 69.650957 
L 335.585196 68.865039 
L 336.598656 68.865039 
L 336.598656 68.07912 
L 336.987287 68.07912 
L 336.987287 67.293201 
L 337.681785 67.293201 
L 337.681785 66.507283 
L 342.732839 66.507283 
L 342.732839 65.721364 
L 345.465337 65.721364 
L 345.465337 64.935446 
L 347.357882 64.935446 
L 347.357882 64.149527 
L 351.248243 64.149527 
L 351.248243 63.363608 
L 351.552872 63.363608 
L 351.552872 62.57769 
L 353.004709 62.57769 
L 353.004709 61.791771 
L 354.054029 61.791771 
L 354.054029 61.005853 
L 354.557118 61.005853 
L 354.557118 60.219934 
L 355.405691 60.219934 
L 355.405691 59.434015 
L 357.952129 59.434015 
L 357.952129 58.648097 
L 359.126753 58.648097 
L 359.126753 57.862178 
L 359.290511 57.862178 
L 359.297703 56.290341 
L 360.518417 56.290341 
L 360.518417 55.504422 
L 361.340199 55.504422 
L 361.383521 53.932585 
L 362.573676 53.932585 
L 362.573676 53.146667 
L 365.440794 53.146667 
L 365.440794 52.360748 
L 366.686834 52.360748 
L 366.686834 51.574829 
L 369.783639 51.574829 
L 369.783639 50.788911 
L 372.436463 50.788911 
L 372.436463 50.002992 
L 373.07711 50.002992 
L 373.07711 49.217074 
L 374.780206 49.217074 
L 374.780206 48.431155 
L 375.748733 48.431155 
L 375.748733 47.645237 
L 376.013772 47.645237 
L 376.123205 46.073399 
L 378.608607 46.073399 
L 378.608607 45.287481 
L 379.330191 45.287481 
L 379.330191 44.501562 
L 380.309009 44.501562 
L 380.309009 43.715644 
L 380.806363 43.715644 
L 380.806363 42.929725 
L 381.052492 42.929725 
L 381.052492 42.143806 
L 381.987838 42.143806 
L 381.987838 41.357888 
L 383.315661 41.357888 
L 383.370986 39.786051 
L 385.480096 39.786051 
L 385.480096 39.000132 
L 387.446165 39.000132 
L 387.4894 37.428295 
L 387.617643 37.428295 
L 387.617643 36.642376 
L 387.799317 36.642376 
L 387.799317 35.856458 
L 388.286691 35.856458 
L 388.286691 35.070539 
L 388.447754 35.070539 
L 388.447754 34.28462 
L 389.520127 34.28462 
L 389.520127 33.498702 
L 389.919499 33.498702 
L 389.931969 31.926865 
L 390.36794 31.926865 
L 390.419381 30.355028 
L 391.07198 30.355028 
L 391.07198 29.569109 
L 391.919999 29.569109 
L 391.919999 28.78319 
L 392.220081 28.78319 
L 392.292854 27.211353 
L 392.97686 27.211353 
L 392.97686 26.425435 
L 393.099058 26.425435 
L 393.099058 25.639516 
L 393.365733 25.639516 
L 393.365733 24.853597 
L 394.283881 24.853597 
L 394.283881 24.067679 
L 396.080422 24.067679 
L 396.080422 23.28176 
L 397.383143 23.28176 
L 397.383143 22.495842 
L 398.773904 22.495842 
L 398.773904 21.709923 
L 398.903631 21.709923 
L 398.903631 20.924004 
L 403.50248 20.924004 
L 403.50248 20.138086 
L 415.811423 20.138086 
L 415.811423 19.352167 
L 416.368454 19.352167 
L 416.368454 18.566249 
L 422.312111 18.566249 
L 422.312111 17.78033 
L 422.539159 17.78033 
L 422.539159 16.994411 
L 423.281961 16.994411 
L 423.281961 16.208493 
L 423.462953 16.208493 
L 423.462953 15.422574 
L 424.83778 15.422574 
L 424.83778 14.636656 
L 428.593664 14.636656 
L 428.593664 13.850737 
L 430.533534 13.850737 
L 430.533534 13.064818 
L 433.119598 13.064818 
L 433.119598 12.2789 
L 434.450057 12.2789 
L 434.450057 11.492981 
L 435.990664 11.492981 
L 435.990664 10.707063 
L 436.155528 10.707063 
L 436.155528 9.921144 
L 436.664013 9.921144 
L 436.664013 9.135226 
L 437.053642 9.135226 
L 437.053642 8.349307 
L 437.053642 8.349307 
L 450.672 8.349307 
L 450.672 8.349307 
" style="fill:none;stroke:#000000;stroke-linecap:square;stroke-width:1.5;"/>
   </g>
   <g id="line2d_27">
    <path clip-path="url(#pd67cf5328b)" d="M 193.65798 291.28 
L 193.65798 290.494081 
L 194.066178 290.494081 
L 194.157028 288.922244 
L 194.191774 288.922244 
L 194.264856 286.564488 
L 194.336914 286.564488 
L 194.399017 281.848977 
L 194.452202 281.848977 
L 194.452202 281.063058 
L 194.700633 281.063058 
L 194.772765 279.491221 
L 230.962411 279.491221 
L 230.962411 278.705303 
L 231.768906 278.705303 
L 231.768906 277.919384 
L 235.559823 277.919384 
L 235.559823 277.133465 
L 236.366966 277.133465 
L 236.366966 276.347547 
L 237.106754 276.347547 
L 237.106754 275.561628 
L 237.630387 275.561628 
L 237.630387 274.77571 
L 238.009782 274.77571 
L 238.009782 273.989791 
L 238.455763 273.989791 
L 238.455763 273.203872 
L 238.657895 273.203872 
L 238.657895 272.417954 
L 239.030513 272.417954 
L 239.137061 270.846117 
L 239.502821 270.846117 
L 239.502821 270.060198 
L 240.512754 270.060198 
L 240.512754 269.274279 
L 240.788206 269.274279 
L 240.820966 267.702442 
L 241.159366 267.702442 
L 241.159366 266.916524 
L 241.567589 266.916524 
L 241.567589 266.130605 
L 241.756481 266.130605 
L 241.756481 265.344686 
L 241.888533 265.344686 
L 241.952711 262.986931 
L 242.321568 262.986931 
L 242.371137 261.415094 
L 242.65012 261.415094 
L 242.65012 260.629175 
L 243.104345 260.629175 
L 243.104345 259.843256 
L 244.120816 259.843256 
L 244.120816 259.057338 
L 244.330595 259.057338 
L 244.330595 258.271419 
L 246.663311 258.271419 
L 246.663311 257.485501 
L 247.258351 257.485501 
L 247.258351 256.699582 
L 250.284655 256.699582 
L 250.284655 255.913663 
L 250.426987 255.913663 
L 250.426987 255.127745 
L 251.041804 255.127745 
L 251.041804 254.341826 
L 251.343071 254.341826 
L 251.378074 252.769989 
L 252.044592 252.769989 
L 252.065688 251.198152 
L 252.230281 251.198152 
L 252.230281 250.412233 
L 253.361178 250.412233 
L 253.428494 248.840396 
L 254.136446 248.840396 
L 254.136446 248.054477 
L 254.277718 248.054477 
L 254.363434 246.48264 
L 254.952755 246.48264 
L 254.952755 245.696722 
L 255.124001 245.696722 
L 255.217297 244.124884 
L 255.346969 244.124884 
L 255.437397 242.553047 
L 255.72978 242.553047 
L 255.811183 240.195292 
L 255.987075 240.195292 
L 255.987075 239.409373 
L 256.390903 239.409373 
L 256.390903 238.623454 
L 256.94174 238.623454 
L 256.94174 237.837536 
L 257.223075 237.837536 
L 257.223075 237.051617 
L 257.508148 237.051617 
L 257.538389 235.47978 
L 257.642393 235.47978 
L 257.642393 234.693861 
L 258.337932 234.693861 
L 258.410357 233.122024 
L 258.455748 233.122024 
L 258.467977 231.550187 
L 258.593892 231.550187 
L 258.593892 230.764268 
L 258.710939 230.764268 
L 258.710939 229.97835 
L 258.866933 229.97835 
L 258.950061 227.620594 
L 259.043808 227.620594 
L 259.120578 225.262838 
L 259.233588 225.262838 
L 259.233588 224.47692 
L 259.423735 224.47692 
L 259.423735 223.691001 
L 259.559407 223.691001 
L 259.664514 221.333245 
L 259.722334 221.333245 
L 259.722334 220.547327 
L 259.88572 220.547327 
L 259.88572 219.761408 
L 259.998009 219.761408 
L 260.101699 215.045897 
L 260.120501 215.045897 
L 260.168309 211.902222 
L 260.232327 211.902222 
L 260.318864 208.758548 
L 260.455409 208.758548 
L 260.487758 205.614873 
L 260.574808 205.614873 
L 260.63298 204.043036 
L 260.735426 204.043036 
L 260.735426 203.257118 
L 260.999874 203.257118 
L 260.999874 202.471199 
L 261.125308 202.471199 
L 261.125308 201.685281 
L 261.335176 201.685281 
L 261.335176 200.899362 
L 261.638852 200.899362 
L 261.6769 199.327525 
L 262.178973 199.327525 
L 262.253748 197.755688 
L 262.570723 197.755688 
L 262.570723 196.969769 
L 263.409395 196.969769 
L 263.46296 195.397932 
L 263.52952 195.397932 
L 263.572644 193.040176 
L 264.657234 193.040176 
L 264.657234 192.254257 
L 264.84061 192.254257 
L 264.872408 179.67956 
L 265.310542 179.67956 
L 265.310542 178.893641 
L 265.44681 178.893641 
L 265.44681 178.107723 
L 265.702906 178.107723 
L 265.702906 177.321804 
L 266.823319 177.321804 
L 266.823319 176.535886 
L 267.04779 176.535886 
L 267.04779 175.749967 
L 267.533666 175.749967 
L 267.540973 174.17813 
L 270.550342 174.17813 
L 270.550342 173.392211 
L 272.640969 173.392211 
L 272.640969 172.606293 
L 272.912106 172.606293 
L 272.912106 171.820374 
L 274.022708 171.820374 
L 274.022708 171.034455 
L 274.195239 171.034455 
L 274.195239 170.248537 
L 274.815185 170.248537 
L 274.842829 168.6767 
L 274.948987 168.6767 
L 274.948987 167.890781 
L 275.394702 167.890781 
L 275.459569 166.318944 
L 275.576814 166.318944 
L 275.66858 163.17527 
L 277.042082 163.17527 
L 277.042082 162.389351 
L 277.347638 162.389351 
L 277.347638 161.603432 
L 278.023464 161.603432 
L 278.025196 149.814653 
L 280.206194 149.814653 
L 280.280508 148.242816 
L 280.970801 148.242816 
L 280.970801 147.456898 
L 281.084482 147.456898 
L 281.084482 146.670979 
L 281.390984 146.670979 
L 281.454845 145.099142 
L 281.942888 145.099142 
L 281.942888 144.313223 
L 282.194716 144.313223 
L 282.194716 143.527305 
L 282.556353 143.527305 
L 282.556353 142.741386 
L 282.702054 142.741386 
L 282.702054 141.955468 
L 282.816838 141.955468 
L 282.863606 139.597712 
L 283.002302 139.597712 
L 283.002302 138.811793 
L 283.128122 138.811793 
L 283.219221 137.239956 
L 283.245442 137.239956 
L 283.312136 134.8822 
L 283.406962 134.8822 
L 283.406962 134.096282 
L 283.790561 134.096282 
L 283.836722 132.524444 
L 284.09361 132.524444 
L 284.103487 130.952607 
L 284.256195 130.952607 
L 284.316692 129.38077 
L 284.381198 129.38077 
L 284.43267 127.808933 
L 284.508662 127.808933 
L 284.593128 126.237096 
L 284.681649 126.237096 
L 284.681649 125.451177 
L 284.842029 125.451177 
L 284.901783 123.093421 
L 285.215713 123.093421 
L 285.215713 122.307503 
L 285.430937 122.307503 
L 285.505636 120.735666 
L 285.736597 120.735666 
L 285.736597 119.949747 
L 285.948866 119.949747 
L 286.05012 118.37791 
L 286.213549 118.37791 
L 286.213549 117.591991 
L 286.648488 117.591991 
L 286.648488 116.806073 
L 287.15045 116.806073 
L 287.230091 113.662398 
L 287.477019 113.662398 
L 287.477019 112.87648 
L 287.622033 112.87648 
L 287.652968 111.304642 
L 287.801558 111.304642 
L 287.801558 110.518724 
L 288.589591 110.518724 
L 288.589591 109.732805 
L 290.305938 109.732805 
L 290.305938 108.946887 
L 290.473964 108.946887 
L 290.473964 108.160968 
L 292.0826 108.160968 
L 292.0826 107.37505 
L 292.216731 107.37505 
L 292.216731 106.589131 
L 292.594667 106.589131 
L 292.594667 105.803212 
L 294.525827 105.803212 
L 294.576564 104.231375 
L 294.672804 104.231375 
L 294.759661 102.659538 
L 295.59199 102.659538 
L 295.59199 101.873619 
L 296.116762 101.873619 
L 296.205972 100.301782 
L 296.382079 100.301782 
L 296.382079 99.515864 
L 296.975784 99.515864 
L 297.079218 97.944026 
L 297.116628 97.944026 
L 297.121242 96.372189 
L 297.507762 96.372189 
L 297.507762 95.586271 
L 297.863305 95.586271 
L 297.863305 94.800352 
L 298.049679 94.800352 
L 298.049679 94.014433 
L 298.278996 94.014433 
L 298.315666 92.442596 
L 299.182565 92.442596 
L 299.197679 90.870759 
L 320.609475 90.870759 
L 320.658767 79.08198 
L 324.342296 79.08198 
L 324.342296 78.296062 
L 324.57551 78.296062 
L 324.57551 77.510143 
L 325.118564 77.510143 
L 325.21832 75.938306 
L 328.201264 75.938306 
L 328.201264 75.152387 
L 329.176486 75.152387 
L 329.176486 74.366469 
L 331.189215 74.366469 
L 331.189215 73.58055 
L 331.870373 73.58055 
L 331.920499 72.008713 
L 332.933588 72.008713 
L 332.968474 70.436876 
L 333.19242 70.436876 
L 333.19242 69.650957 
L 335.53122 69.650957 
L 335.53122 68.865039 
L 336.54613 68.865039 
L 336.54613 68.07912 
L 336.924468 68.07912 
L 336.924468 67.293201 
L 337.626468 67.293201 
L 337.626468 66.507283 
L 342.66496 66.507283 
L 342.66496 65.721364 
L 345.403392 65.721364 
L 345.403392 64.935446 
L 346.853241 64.935446 
L 346.853241 64.149527 
L 350.94943 64.149527 
L 350.94943 63.363608 
L 351.518225 63.363608 
L 351.518225 62.57769 
L 352.981298 62.57769 
L 352.981298 61.791771 
L 353.996741 61.791771 
L 353.996741 61.005853 
L 354.506735 61.005853 
L 354.506735 60.219934 
L 355.342406 60.219934 
L 355.342406 59.434015 
L 357.555772 59.434015 
L 357.555772 58.648097 
L 359.116252 58.648097 
L 359.116252 57.862178 
L 359.285863 57.862178 
L 359.293374 56.290341 
L 360.482447 56.290341 
L 360.482447 55.504422 
L 361.020499 55.504422 
L 361.020499 54.718504 
L 361.285541 54.718504 
L 361.285541 53.932585 
L 362.523987 53.932585 
L 362.523987 53.146667 
L 365.413283 53.146667 
L 365.413283 52.360748 
L 366.675427 52.360748 
L 366.675427 51.574829 
L 369.640352 51.574829 
L 369.640352 50.788911 
L 372.225018 50.788911 
L 372.225018 50.002992 
L 372.944838 50.002992 
L 372.944838 49.217074 
L 374.723405 49.217074 
L 374.723405 48.431155 
L 375.588725 48.431155 
L 375.588725 47.645237 
L 375.828678 47.645237 
L 375.828678 46.859318 
L 375.942401 46.859318 
L 375.942401 46.073399 
L 378.497135 46.073399 
L 378.497135 45.287481 
L 379.138155 45.287481 
L 379.138155 44.501562 
L 380.196232 44.501562 
L 380.196232 43.715644 
L 380.746882 43.715644 
L 380.746882 42.929725 
L 380.99748 42.929725 
L 380.99748 42.143806 
L 381.898111 42.143806 
L 381.898111 41.357888 
L 383.278189 41.357888 
L 383.281468 39.786051 
L 385.336745 39.786051 
L 385.336745 39.000132 
L 387.360461 39.000132 
L 387.445158 37.428295 
L 387.556203 37.428295 
L 387.556203 36.642376 
L 387.757571 36.642376 
L 387.757571 35.856458 
L 388.23593 35.856458 
L 388.23593 35.070539 
L 388.413722 35.070539 
L 388.413722 34.28462 
L 389.45754 34.28462 
L 389.45754 33.498702 
L 389.846482 33.498702 
L 389.891122 31.926865 
L 390.329759 31.926865 
L 390.338633 30.355028 
L 391.023781 30.355028 
L 391.023781 29.569109 
L 391.8896 29.569109 
L 391.8896 28.78319 
L 392.176159 28.78319 
L 392.244697 27.211353 
L 392.924109 27.211353 
L 392.924109 26.425435 
L 393.050315 26.425435 
L 393.050315 25.639516 
L 393.327745 25.639516 
L 393.327745 24.853597 
L 394.213337 24.853597 
L 394.213337 24.067679 
L 396.042422 24.067679 
L 396.042422 23.28176 
L 397.317602 23.28176 
L 397.317602 22.495842 
L 398.713415 22.495842 
L 398.713415 21.709923 
L 398.841982 21.709923 
L 398.841982 20.924004 
L 403.470355 20.924004 
L 403.470355 20.138086 
L 415.740129 20.138086 
L 415.740129 19.352167 
L 416.302528 19.352167 
L 416.302528 18.566249 
L 422.251936 18.566249 
L 422.251936 17.78033 
L 422.446684 17.78033 
L 422.446684 16.994411 
L 423.237275 16.994411 
L 423.237275 16.208493 
L 423.390405 16.208493 
L 423.390405 15.422574 
L 424.78737 15.422574 
L 424.78737 14.636656 
L 428.519613 14.636656 
L 428.519613 13.850737 
L 430.47309 13.850737 
L 430.47309 13.064818 
L 433.028817 13.064818 
L 433.028817 12.2789 
L 434.348834 12.2789 
L 434.348834 11.492981 
L 435.92987 11.492981 
L 435.92987 10.707063 
L 436.088771 10.707063 
L 436.088771 9.921144 
L 436.578162 9.921144 
L 436.578162 9.135226 
L 436.986194 9.135226 
L 436.986194 8.349307 
L 436.986194 8.349307 
L 450.672 8.349307 
L 450.672 8.349307 
" style="fill:none;stroke:#00bfbf;stroke-linecap:square;stroke-width:1.5;"/>
   </g>
   <g id="line2d_28">
    <path clip-path="url(#pd67cf5328b)" d="M 168.880665 291.28 
L 168.880665 290.494081 
L 169.202179 290.494081 
L 169.202179 289.708163 
L 169.956463 289.708163 
L 169.956463 288.922244 
L 171.226565 288.922244 
L 171.226565 288.136326 
L 171.482562 288.136326 
L 171.482562 287.350407 
L 173.643691 287.350407 
L 173.643691 286.564488 
L 174.338749 286.564488 
L 174.338749 285.77857 
L 174.782941 285.77857 
L 174.782941 284.992651 
L 174.917186 284.992651 
L 174.917186 284.206733 
L 175.143772 284.206733 
L 175.143772 283.420814 
L 175.502645 283.420814 
L 175.502645 282.634895 
L 179.635349 282.634895 
L 179.717371 281.063058 
L 181.96474 281.063058 
L 181.96474 280.27714 
L 184.105802 280.27714 
L 184.105802 279.491221 
L 224.772772 279.491221 
L 224.772772 278.705303 
L 226.623343 278.705303 
L 226.623343 277.919384 
L 228.650007 277.919384 
L 228.650007 277.133465 
L 228.813193 277.133465 
L 228.813193 276.347547 
L 229.888684 276.347547 
L 229.888684 275.561628 
L 232.621061 275.561628 
L 232.621061 274.77571 
L 233.116882 274.77571 
L 233.116882 273.989791 
L 233.517083 273.989791 
L 233.517083 273.203872 
L 233.77225 273.203872 
L 233.77225 272.417954 
L 234.250468 272.417954 
L 234.250468 271.632035 
L 234.466203 271.632035 
L 234.466203 270.846117 
L 235.031836 270.846117 
L 235.12025 268.488361 
L 235.663005 268.488361 
L 235.663005 267.702442 
L 236.78328 267.702442 
L 236.849034 265.344686 
L 237.099618 265.344686 
L 237.099618 264.558768 
L 237.220953 264.558768 
L 237.220953 263.772849 
L 237.442172 263.772849 
L 237.442172 262.986931 
L 237.561421 262.986931 
L 237.561421 262.201012 
L 238.168739 262.201012 
L 238.168739 261.415094 
L 238.897504 261.415094 
L 238.897504 260.629175 
L 239.097882 260.629175 
L 239.097882 259.843256 
L 239.27188 259.843256 
L 239.27188 259.057338 
L 239.771701 259.057338 
L 239.771701 258.271419 
L 240.770826 258.271419 
L 240.770826 257.485501 
L 241.585452 257.485501 
L 241.585452 256.699582 
L 241.828972 256.699582 
L 241.828972 255.913663 
L 242.342206 255.913663 
L 242.342206 255.127745 
L 242.635388 255.127745 
L 242.635388 254.341826 
L 242.77632 254.341826 
L 242.77632 253.555908 
L 242.897927 253.555908 
L 242.958035 251.98407 
L 244.081536 251.98407 
L 244.081536 251.198152 
L 244.473353 251.198152 
L 244.503348 249.626315 
L 245.948096 249.626315 
L 245.948096 248.840396 
L 246.384835 248.840396 
L 246.384835 248.054477 
L 246.955037 248.054477 
L 247.01847 246.48264 
L 247.079338 246.48264 
L 247.079338 245.696722 
L 247.204071 245.696722 
L 247.204071 244.910803 
L 248.258805 244.910803 
L 248.258805 244.124884 
L 248.650585 244.124884 
L 248.650585 243.338966 
L 248.930261 243.338966 
L 248.930261 242.553047 
L 249.396354 242.553047 
L 249.415763 240.98121 
L 249.55624 240.98121 
L 249.55624 240.195292 
L 250.015943 240.195292 
L 250.015943 239.409373 
L 250.370965 239.409373 
L 250.370965 238.623454 
L 250.664982 238.623454 
L 250.664982 237.837536 
L 250.830727 237.837536 
L 250.830727 237.051617 
L 251.097816 237.051617 
L 251.097816 236.265699 
L 251.305706 236.265699 
L 251.402129 234.693861 
L 251.566261 234.693861 
L 251.566261 233.907943 
L 252.016918 233.907943 
L 252.016918 233.122024 
L 252.880757 233.122024 
L 252.880757 232.336106 
L 253.114946 232.336106 
L 253.114946 231.550187 
L 253.364278 231.550187 
L 253.396803 229.97835 
L 254.153638 229.97835 
L 254.153638 229.192431 
L 254.351271 229.192431 
L 254.351271 228.406513 
L 254.640484 228.406513 
L 254.640484 227.620594 
L 254.861514 227.620594 
L 254.861514 226.834675 
L 255.323578 226.834675 
L 255.323578 226.048757 
L 255.52454 226.048757 
L 255.52454 225.262838 
L 255.861257 225.262838 
L 255.898349 223.691001 
L 256.257844 223.691001 
L 256.257844 222.905083 
L 256.511103 222.905083 
L 256.511103 222.119164 
L 256.725197 222.119164 
L 256.725197 221.333245 
L 256.884767 221.333245 
L 256.925887 219.761408 
L 257.204501 219.761408 
L 257.29164 217.403652 
L 257.366469 217.403652 
L 257.474642 214.259978 
L 257.511565 214.259978 
L 257.615411 212.688141 
L 257.639799 212.688141 
L 257.718732 210.330385 
L 257.820054 210.330385 
L 257.929314 208.758548 
L 258.068939 208.758548 
L 258.134496 207.186711 
L 258.307123 207.186711 
L 258.396145 204.828955 
L 258.441597 204.828955 
L 258.441597 204.043036 
L 258.590308 204.043036 
L 258.69901 201.685281 
L 258.724453 201.685281 
L 258.754357 199.327525 
L 258.859741 199.327525 
L 258.967993 196.18385 
L 259.004348 196.18385 
L 259.09557 193.040176 
L 259.193595 193.040176 
L 259.212274 191.468339 
L 260.005077 191.468339 
L 260.005077 190.68242 
L 260.336866 190.68242 
L 260.41628 189.110583 
L 260.474487 189.110583 
L 260.474487 188.324664 
L 260.798079 188.324664 
L 260.798079 187.538746 
L 261.446608 187.538746 
L 261.500317 185.966909 
L 261.593238 185.966909 
L 261.652801 184.395072 
L 262.012937 184.395072 
L 262.012937 183.609153 
L 262.302542 183.609153 
L 262.39498 181.251397 
L 262.459952 181.251397 
L 262.488353 178.893641 
L 262.76894 178.893641 
L 262.83682 177.321804 
L 262.906139 177.321804 
L 262.906139 176.535886 
L 263.020465 176.535886 
L 263.020465 175.749967 
L 263.231513 175.749967 
L 263.278404 174.17813 
L 263.5171 174.17813 
L 263.610479 172.606293 
L 263.819803 172.606293 
L 263.858947 171.034455 
L 264.019206 171.034455 
L 264.019206 170.248537 
L 264.351352 170.248537 
L 264.351352 169.462618 
L 264.464406 169.462618 
L 264.525057 167.104862 
L 264.618675 167.104862 
L 264.64314 165.533025 
L 264.814236 165.533025 
L 264.814236 164.747107 
L 264.985731 164.747107 
L 264.985731 163.961188 
L 265.17534 163.961188 
L 265.17534 163.17527 
L 265.565027 163.17527 
L 265.565027 162.389351 
L 265.842972 162.389351 
L 265.921319 160.817514 
L 266.241298 160.817514 
L 266.241298 160.031595 
L 266.772417 160.031595 
L 266.772417 159.245677 
L 267.077516 159.245677 
L 267.172753 157.673839 
L 267.227784 157.673839 
L 267.267368 156.102002 
L 267.8397 156.102002 
L 267.88305 154.530165 
L 267.973563 154.530165 
L 268.033651 152.172409 
L 268.138053 152.172409 
L 268.138053 151.386491 
L 268.296303 151.386491 
L 268.340571 149.028735 
L 268.447837 149.028735 
L 268.557738 147.456898 
L 268.584354 147.456898 
L 268.689493 145.099142 
L 268.750085 145.099142 
L 268.750085 144.313223 
L 268.896346 144.313223 
L 268.896346 143.527305 
L 269.067012 143.527305 
L 269.067012 142.741386 
L 269.663153 142.741386 
L 269.736586 141.169549 
L 269.923258 141.169549 
L 269.934021 139.597712 
L 270.231311 139.597712 
L 270.325791 138.025875 
L 270.554967 138.025875 
L 270.554967 137.239956 
L 271.875656 137.239956 
L 271.875656 136.454037 
L 272.791388 136.454037 
L 272.791388 135.668119 
L 277.009771 135.668119 
L 277.009771 134.8822 
L 277.486916 134.8822 
L 277.566888 133.310363 
L 277.623472 133.310363 
L 277.623472 132.524444 
L 279.228927 132.524444 
L 279.228927 131.738526 
L 279.417755 131.738526 
L 279.426821 130.166689 
L 279.712054 130.166689 
L 279.720187 128.594851 
L 279.858411 128.594851 
L 279.858411 127.808933 
L 279.971695 127.808933 
L 279.998803 126.237096 
L 280.108537 126.237096 
L 280.206194 124.665259 
L 280.320467 124.665259 
L 280.394264 123.093421 
L 280.571043 123.093421 
L 280.571043 122.307503 
L 280.730324 122.307503 
L 280.730324 121.521584 
L 281.060691 121.521584 
L 281.060691 120.735666 
L 281.327806 120.735666 
L 281.4078 119.163828 
L 281.483839 119.163828 
L 281.483839 118.37791 
L 281.664062 118.37791 
L 281.676461 116.806073 
L 281.8781 116.806073 
L 281.8781 116.020154 
L 282.081068 116.020154 
L 282.081068 115.234235 
L 282.263324 115.234235 
L 282.340655 112.87648 
L 282.403004 112.87648 
L 282.411279 111.304642 
L 282.586341 111.304642 
L 282.656625 108.160968 
L 282.84622 108.160968 
L 282.925375 106.589131 
L 283.807415 106.589131 
L 283.911367 105.017294 
L 284.508662 105.017294 
L 284.545425 103.445457 
L 285.457278 103.445457 
L 285.56663 101.087701 
L 285.736395 101.087701 
L 285.736597 99.515864 
L 285.900678 99.515864 
L 285.900678 98.729945 
L 286.054726 98.729945 
L 286.054726 97.944026 
L 286.213549 97.944026 
L 286.213549 97.158108 
L 286.553829 97.158108 
L 286.648488 95.586271 
L 287.124321 95.586271 
L 287.198233 94.014433 
L 287.445385 94.014433 
L 287.477019 92.442596 
L 287.802754 92.442596 
L 287.802754 91.656678 
L 288.394575 91.656678 
L 288.394575 90.870759 
L 288.771957 90.870759 
L 288.771957 90.08484 
L 289.649488 90.08484 
L 289.649488 89.298922 
L 289.959639 89.298922 
L 289.959639 88.513003 
L 290.305938 88.513003 
L 290.329424 86.941166 
L 291.505577 86.941166 
L 291.577328 85.369329 
L 292.0826 85.369329 
L 292.121034 83.011573 
L 292.210924 83.011573 
L 292.245065 80.653817 
L 292.326597 80.653817 
L 292.388261 78.296062 
L 292.950665 78.296062 
L 292.950665 77.510143 
L 293.630594 77.510143 
L 293.630594 76.724224 
L 294.093189 76.724224 
L 294.093189 75.938306 
L 294.576564 75.938306 
L 294.576564 75.152387 
L 294.738331 75.152387 
L 294.759661 73.58055 
L 295.918973 73.58055 
L 295.918973 72.794631 
L 296.114088 72.794631 
L 296.114088 72.008713 
L 296.418343 72.008713 
L 296.418343 71.222794 
L 297.863305 71.222794 
L 297.863305 70.436876 
L 298.230114 70.436876 
L 298.230114 69.650957 
L 298.951336 69.650957 
L 298.951336 68.865039 
L 299.182565 68.865039 
L 299.182565 68.07912 
L 300.856715 68.07912 
L 300.856715 67.293201 
L 304.04113 67.293201 
L 304.04113 66.507283 
L 308.29531 66.507283 
L 308.29531 65.721364 
L 309.387454 65.721364 
L 309.387454 64.935446 
L 312.938266 64.935446 
L 312.938266 64.149527 
L 313.965364 64.149527 
L 313.965364 63.363608 
L 314.483585 63.363608 
L 314.574478 61.005853 
L 317.96717 61.005853 
L 317.96717 60.219934 
L 318.365458 60.219934 
L 318.365458 59.434015 
L 321.273505 59.434015 
L 321.273505 58.648097 
L 322.090065 58.648097 
L 322.090065 57.862178 
L 322.473408 57.862178 
L 322.473408 57.07626 
L 323.507086 57.07626 
L 323.507086 56.290341 
L 324.433319 56.290341 
L 324.433319 55.504422 
L 327.756621 55.504422 
L 327.756621 54.718504 
L 330.035171 54.718504 
L 330.035171 53.932585 
L 333.155753 53.932585 
L 333.155753 53.146667 
L 335.655033 53.146667 
L 335.655033 52.360748 
L 338.518765 52.360748 
L 338.518765 51.574829 
L 340.593373 51.574829 
L 340.593373 50.788911 
L 340.810957 50.788911 
L 340.810957 50.002992 
L 341.53862 50.002992 
L 341.53862 49.217074 
L 342.354258 49.217074 
L 342.354258 48.431155 
L 343.183053 48.431155 
L 343.183053 47.645237 
L 344.035719 47.645237 
L 344.116721 46.073399 
L 344.755853 46.073399 
L 344.755853 45.287481 
L 345.317467 45.287481 
L 345.317467 44.501562 
L 348.716399 44.501562 
L 348.716399 43.715644 
L 351.836523 43.715644 
L 351.836523 42.929725 
L 352.005782 42.929725 
L 352.005782 42.143806 
L 352.339508 42.143806 
L 352.429349 40.571969 
L 353.301932 40.571969 
L 353.301932 39.786051 
L 353.568513 39.786051 
L 353.568513 39.000132 
L 355.633306 39.000132 
L 355.713815 37.428295 
L 356.297543 37.428295 
L 356.297543 36.642376 
L 357.30172 36.642376 
L 357.30172 35.856458 
L 358.217594 35.856458 
L 358.217594 35.070539 
L 361.147146 35.070539 
L 361.147146 34.28462 
L 362.209175 34.28462 
L 362.240745 32.712783 
L 363.135807 32.712783 
L 363.135807 31.926865 
L 364.114156 31.926865 
L 364.114156 31.140946 
L 364.387985 31.140946 
L 364.412988 29.569109 
L 364.760759 29.569109 
L 364.760759 28.78319 
L 365.839539 28.78319 
L 365.914817 27.211353 
L 365.991261 27.211353 
L 365.991261 26.425435 
L 367.93751 26.425435 
L 367.93751 25.639516 
L 370.362082 25.639516 
L 370.362082 24.853597 
L 372.403026 24.853597 
L 372.403026 24.067679 
L 372.58717 24.067679 
L 372.58717 23.28176 
L 373.274366 23.28176 
L 373.274366 22.495842 
L 375.552213 22.495842 
L 375.552213 21.709923 
L 376.484368 21.709923 
L 376.484368 20.924004 
L 377.381994 20.924004 
L 377.381994 20.138086 
L 399.706956 20.138086 
L 399.706956 19.352167 
L 402.125366 19.352167 
L 402.125366 18.566249 
L 407.488221 18.566249 
L 407.488221 17.78033 
L 410.494737 17.78033 
L 410.494737 16.994411 
L 412.150797 16.994411 
L 412.150797 16.208493 
L 412.727637 16.208493 
L 412.727637 15.422574 
L 413.481277 15.422574 
L 413.481277 14.636656 
L 414.688915 14.636656 
L 414.688915 13.850737 
L 415.548682 13.850737 
L 415.548682 13.064818 
L 416.487613 13.064818 
L 416.487613 12.2789 
L 417.449723 12.2789 
L 417.449723 11.492981 
L 418.21475 11.492981 
L 418.21475 10.707063 
L 419.749551 10.707063 
L 419.749551 9.921144 
L 421.065065 9.921144 
L 421.065065 9.135226 
L 421.654625 9.135226 
L 421.654625 8.349307 
L 421.654625 8.349307 
L 450.672 8.349307 
L 450.672 8.349307 
" style="fill:none;stroke:#bf00bf;stroke-linecap:square;stroke-width:1.5;"/>
   </g>
   <g id="patch_3">
    <path d="M 5.52 291.28 
L 5.52 5.52 
" style="fill:none;stroke:#000000;stroke-linecap:square;stroke-linejoin:miter;stroke-width:0.8;"/>
   </g>
   <g id="patch_4">
    <path d="M 450.672 291.28 
L 450.672 5.52 
" style="fill:none;stroke:#000000;stroke-linecap:square;stroke-linejoin:miter;stroke-width:0.8;"/>
   </g>
   <g id="patch_5">
    <path d="M 5.52 291.28 
L 450.672 291.28 
" style="fill:none;stroke:#000000;stroke-linecap:square;stroke-linejoin:miter;stroke-width:0.8;"/>
   </g>
   <g id="patch_6">
    <path d="M 5.52 5.52 
L 450.672 5.52 
" style="fill:none;stroke:#000000;stroke-linecap:square;stroke-linejoin:miter;stroke-width:0.8;"/>
   </g>
   <g id="text_6">
    <!-- {f1-f24}, 20-D -->
    <defs>
     <path d="M 51.125 -9.28125 
L 51.125 -16.3125 
L 48.09375 -16.3125 
Q 35.9375 -16.3125 31.8125 -12.6875 
Q 27.6875 -9.078125 27.6875 1.703125 
L 27.6875 13.375 
Q 27.6875 20.75 25.046875 23.578125 
Q 22.40625 26.421875 15.484375 26.421875 
L 12.5 26.421875 
L 12.5 33.40625 
L 15.484375 33.40625 
Q 22.46875 33.40625 25.078125 36.203125 
Q 27.6875 39.015625 27.6875 46.296875 
L 27.6875 58.015625 
Q 27.6875 68.796875 31.8125 72.390625 
Q 35.9375 75.984375 48.09375 75.984375 
L 51.125 75.984375 
L 51.125 69 
L 47.796875 69 
Q 40.921875 69 38.8125 66.84375 
Q 36.71875 64.703125 36.71875 57.8125 
L 36.71875 45.703125 
Q 36.71875 38.03125 34.5 34.5625 
Q 32.28125 31.109375 26.90625 29.890625 
Q 32.328125 28.5625 34.515625 25.09375 
Q 36.71875 21.625 36.71875 14.015625 
L 36.71875 1.90625 
Q 36.71875 -4.984375 38.8125 -7.125 
Q 40.921875 -9.28125 47.796875 -9.28125 
z
" id="DejaVuSans-7b"/>
     <path d="M 19.1875 8.296875 
L 53.609375 8.296875 
L 53.609375 0 
L 7.328125 0 
L 7.328125 8.296875 
Q 12.9375 14.109375 22.625 23.890625 
Q 32.328125 33.6875 34.8125 36.53125 
Q 39.546875 41.84375 41.421875 45.53125 
Q 43.3125 49.21875 43.3125 52.78125 
Q 43.3125 58.59375 39.234375 62.25 
Q 35.15625 65.921875 28.609375 65.921875 
Q 23.96875 65.921875 18.8125 64.3125 
Q 13.671875 62.703125 7.8125 59.421875 
L 7.8125 69.390625 
Q 13.765625 71.78125 18.9375 73 
Q 24.125 74.21875 28.421875 74.21875 
Q 39.75 74.21875 46.484375 68.546875 
Q 53.21875 62.890625 53.21875 53.421875 
Q 53.21875 48.921875 51.53125 44.890625 
Q 49.859375 40.875 45.40625 35.40625 
Q 44.1875 33.984375 37.640625 27.21875 
Q 31.109375 20.453125 19.1875 8.296875 
z
" id="DejaVuSans-32"/>
     <path d="M 12.5 -9.28125 
L 15.921875 -9.28125 
Q 22.75 -9.28125 24.828125 -7.171875 
Q 26.90625 -5.078125 26.90625 1.90625 
L 26.90625 14.015625 
Q 26.90625 21.625 29.09375 25.09375 
Q 31.296875 28.5625 36.71875 29.890625 
Q 31.296875 31.109375 29.09375 34.5625 
Q 26.90625 38.03125 26.90625 45.703125 
L 26.90625 57.8125 
Q 26.90625 64.75 24.828125 66.875 
Q 22.75 69 15.921875 69 
L 12.5 69 
L 12.5 75.984375 
L 15.578125 75.984375 
Q 27.734375 75.984375 31.8125 72.390625 
Q 35.890625 68.796875 35.890625 58.015625 
L 35.890625 46.296875 
Q 35.890625 39.015625 38.515625 36.203125 
Q 41.15625 33.40625 48.09375 33.40625 
L 51.125 33.40625 
L 51.125 26.421875 
L 48.09375 26.421875 
Q 41.15625 26.421875 38.515625 23.578125 
Q 35.890625 20.75 35.890625 13.375 
L 35.890625 1.703125 
Q 35.890625 -9.078125 31.8125 -12.6875 
Q 27.734375 -16.3125 15.578125 -16.3125 
L 12.5 -16.3125 
z
" id="DejaVuSans-7d"/>
     <path d="M 11.71875 12.40625 
L 22.015625 12.40625 
L 22.015625 4 
L 14.015625 -11.625 
L 7.71875 -11.625 
L 11.71875 4 
z
" id="DejaVuSans-2c"/>
    </defs>
    <g transform="translate(296.06896 285.5648)scale(0.2 -0.2)">
     <use xlink:href="#DejaVuSans-7b"/>
     <use x="63.623047" xlink:href="#DejaVuSans-66"/>
     <use x="98.828125" xlink:href="#DejaVuSans-31"/>
     <use x="162.451172" xlink:href="#DejaVuSans-2d"/>
     <use x="198.535156" xlink:href="#DejaVuSans-66"/>
     <use x="233.740234" xlink:href="#DejaVuSans-32"/>
     <use x="297.363281" xlink:href="#DejaVuSans-34"/>
     <use x="360.986328" xlink:href="#DejaVuSans-7d"/>
     <use x="424.609375" xlink:href="#DejaVuSans-2c"/>
     <use x="456.396484" xlink:href="#DejaVuSans-20"/>
     <use x="488.183594" xlink:href="#DejaVuSans-32"/>
     <use x="551.806641" xlink:href="#DejaVuSans-30"/>
     <use x="615.429688" xlink:href="#DejaVuSans-2d"/>
     <use x="651.513672" xlink:href="#DejaVuSans-44"/>
    </g>
   </g>
   <g id="text_7">
    <!-- v2.2.1.10 -->
    <defs>
     <path d="M 2.984375 54.6875 
L 12.5 54.6875 
L 29.59375 8.796875 
L 46.6875 54.6875 
L 56.203125 54.6875 
L 35.6875 0 
L 23.484375 0 
z
" id="DejaVuSans-76"/>
     <path d="M 10.6875 12.40625 
L 21 12.40625 
L 21 0 
L 10.6875 0 
z
" id="DejaVuSans-2e"/>
    </defs>
    <g style="fill:#808080;" transform="translate(204.463188 286.342713)scale(0.1 -0.1)">
     <use xlink:href="#DejaVuSans-76"/>
     <use x="59.179688" xlink:href="#DejaVuSans-32"/>
     <use x="122.802734" xlink:href="#DejaVuSans-2e"/>
     <use x="154.589844" xlink:href="#DejaVuSans-32"/>
     <use x="218.212891" xlink:href="#DejaVuSans-2e"/>
     <use x="250" xlink:href="#DejaVuSans-31"/>
     <use x="313.623047" xlink:href="#DejaVuSans-2e"/>
     <use x="345.410156" xlink:href="#DejaVuSans-31"/>
     <use x="409.033203" xlink:href="#DejaVuSans-30"/>
    </g>
   </g>
  </g>
 </g>
 <defs>
  <clipPath id="pd67cf5328b">
   <rect height="285.76" width="445.152" x="5.52" y="5.52"/>
  </clipPath>
 </defs>
</svg>
