<?xml version="1.0" encoding="utf-8" standalone="no"?>
<!DOCTYPE svg PUBLIC "-//W3C//DTD SVG 1.1//EN"
  "http://www.w3.org/Graphics/SVG/1.1/DTD/svg11.dtd">
<!-- Created with matplotlib (http://matplotlib.org/) -->
<svg height="345.6pt" version="1.1" viewBox="0 0 460.8 345.6" width="460.8pt" xmlns="http://www.w3.org/2000/svg" xmlns:xlink="http://www.w3.org/1999/xlink">
 <defs>
  <style type="text/css">
*{stroke-linecap:butt;stroke-linejoin:round;}
  </style>
 </defs>
 <g id="figure_1">
  <g id="patch_1">
   <path d="M 0 345.6 
L 460.8 345.6 
L 460.8 0 
L 0 0 
z
" style="fill:#ffffff;"/>
  </g>
  <g id="axes_1">
   <g id="patch_2">
    <path d="M 5.52 291.28 
L 450.672 291.28 
L 450.672 5.52 
L 5.52 5.52 
z
" style="fill:#ffffff;"/>
   </g>
   <g id="matplotlib.axis_1">
    <g id="xtick_1">
     <g id="line2d_1">
      <path clip-path="url(#pf374c0305f)" d="M 5.408872 291.28 
L 5.408872 5.52 
" style="fill:none;stroke:#b0b0b0;stroke-linecap:square;stroke-width:0.8;"/>
     </g>
     <g id="line2d_2">
      <defs>
       <path d="M 0 0 
L 0 3.5 
" id="me73e016bed" style="stroke:#000000;stroke-width:0.8;"/>
      </defs>
      <g>
       <use style="stroke:#000000;stroke-width:0.8;" x="5.408872" xlink:href="#me73e016bed" y="291.28"/>
      </g>
     </g>
    </g>
    <g id="xtick_2">
     <g id="line2d_3">
      <path clip-path="url(#pf374c0305f)" d="M 108.272817 291.28 
L 108.272817 5.52 
" style="fill:none;stroke:#b0b0b0;stroke-linecap:square;stroke-width:0.8;"/>
     </g>
     <g id="line2d_4">
      <g>
       <use style="stroke:#000000;stroke-width:0.8;" x="108.272817" xlink:href="#me73e016bed" y="291.28"/>
      </g>
     </g>
     <g id="text_1">
      <!-- -4 -->
      <defs>
       <path d="M 4.890625 31.390625 
L 31.203125 31.390625 
L 31.203125 23.390625 
L 4.890625 23.390625 
z
" id="DejaVuSans-2d"/>
       <path d="M 37.796875 64.3125 
L 12.890625 25.390625 
L 37.796875 25.390625 
z
M 35.203125 72.90625 
L 47.609375 72.90625 
L 47.609375 25.390625 
L 58.015625 25.390625 
L 58.015625 17.1875 
L 47.609375 17.1875 
L 47.609375 0 
L 37.796875 0 
L 37.796875 17.1875 
L 4.890625 17.1875 
L 4.890625 26.703125 
z
" id="DejaVuSans-34"/>
      </defs>
      <g transform="translate(98.302504 313.476875)scale(0.2 -0.2)">
       <use xlink:href="#DejaVuSans-2d"/>
       <use x="36.083984" xlink:href="#DejaVuSans-34"/>
      </g>
     </g>
    </g>
    <g id="xtick_3">
     <g id="line2d_5">
      <path clip-path="url(#pf374c0305f)" d="M 211.136761 291.28 
L 211.136761 5.52 
" style="fill:none;stroke:#b0b0b0;stroke-linecap:square;stroke-width:0.8;"/>
     </g>
     <g id="line2d_6">
      <g>
       <use style="stroke:#000000;stroke-width:0.8;" x="211.136761" xlink:href="#me73e016bed" y="291.28"/>
      </g>
     </g>
     <g id="text_2">
      <!-- 0 -->
      <defs>
       <path d="M 31.78125 66.40625 
Q 24.171875 66.40625 20.328125 58.90625 
Q 16.5 51.421875 16.5 36.375 
Q 16.5 21.390625 20.328125 13.890625 
Q 24.171875 6.390625 31.78125 6.390625 
Q 39.453125 6.390625 43.28125 13.890625 
Q 47.125 21.390625 47.125 36.375 
Q 47.125 51.421875 43.28125 58.90625 
Q 39.453125 66.40625 31.78125 66.40625 
z
M 31.78125 74.21875 
Q 44.046875 74.21875 50.515625 64.515625 
Q 56.984375 54.828125 56.984375 36.375 
Q 56.984375 17.96875 50.515625 8.265625 
Q 44.046875 -1.421875 31.78125 -1.421875 
Q 19.53125 -1.421875 13.0625 8.265625 
Q 6.59375 17.96875 6.59375 36.375 
Q 6.59375 54.828125 13.0625 64.515625 
Q 19.53125 74.21875 31.78125 74.21875 
z
" id="DejaVuSans-30"/>
      </defs>
      <g transform="translate(204.774261 313.476875)scale(0.2 -0.2)">
       <use xlink:href="#DejaVuSans-30"/>
      </g>
     </g>
    </g>
    <g id="xtick_4">
     <g id="line2d_7">
      <path clip-path="url(#pf374c0305f)" d="M 314.000706 291.28 
L 314.000706 5.52 
" style="fill:none;stroke:#b0b0b0;stroke-linecap:square;stroke-width:0.8;"/>
     </g>
     <g id="line2d_8">
      <g>
       <use style="stroke:#000000;stroke-width:0.8;" x="314.000706" xlink:href="#me73e016bed" y="291.28"/>
      </g>
     </g>
     <g id="text_3">
      <!-- 4 -->
      <g transform="translate(307.638206 313.476875)scale(0.2 -0.2)">
       <use xlink:href="#DejaVuSans-34"/>
      </g>
     </g>
    </g>
    <g id="xtick_5">
     <g id="line2d_9">
      <path clip-path="url(#pf374c0305f)" d="M 416.864651 291.28 
L 416.864651 5.52 
" style="fill:none;stroke:#b0b0b0;stroke-linecap:square;stroke-width:0.8;"/>
     </g>
     <g id="line2d_10">
      <g>
       <use style="stroke:#000000;stroke-width:0.8;" x="416.864651" xlink:href="#me73e016bed" y="291.28"/>
      </g>
     </g>
     <g id="text_4">
      <!-- 8 -->
      <defs>
       <path d="M 31.78125 34.625 
Q 24.75 34.625 20.71875 30.859375 
Q 16.703125 27.09375 16.703125 20.515625 
Q 16.703125 13.921875 20.71875 10.15625 
Q 24.75 6.390625 31.78125 6.390625 
Q 38.8125 6.390625 42.859375 10.171875 
Q 46.921875 13.96875 46.921875 20.515625 
Q 46.921875 27.09375 42.890625 30.859375 
Q 38.875 34.625 31.78125 34.625 
z
M 21.921875 38.8125 
Q 15.578125 40.375 12.03125 44.71875 
Q 8.5 49.078125 8.5 55.328125 
Q 8.5 64.0625 14.71875 69.140625 
Q 20.953125 74.21875 31.78125 74.21875 
Q 42.671875 74.21875 48.875 69.140625 
Q 55.078125 64.0625 55.078125 55.328125 
Q 55.078125 49.078125 51.53125 44.71875 
Q 48 40.375 41.703125 38.8125 
Q 48.828125 37.15625 52.796875 32.3125 
Q 56.78125 27.484375 56.78125 20.515625 
Q 56.78125 9.90625 50.3125 4.234375 
Q 43.84375 -1.421875 31.78125 -1.421875 
Q 19.734375 -1.421875 13.25 4.234375 
Q 6.78125 9.90625 6.78125 20.515625 
Q 6.78125 27.484375 10.78125 32.3125 
Q 14.796875 37.15625 21.921875 38.8125 
z
M 18.3125 54.390625 
Q 18.3125 48.734375 21.84375 45.5625 
Q 25.390625 42.390625 31.78125 42.390625 
Q 38.140625 42.390625 41.71875 45.5625 
Q 45.3125 48.734375 45.3125 54.390625 
Q 45.3125 60.0625 41.71875 63.234375 
Q 38.140625 66.40625 31.78125 66.40625 
Q 25.390625 66.40625 21.84375 63.234375 
Q 18.3125 60.0625 18.3125 54.390625 
z
" id="DejaVuSans-38"/>
      </defs>
      <g transform="translate(410.502151 313.476875)scale(0.2 -0.2)">
       <use xlink:href="#DejaVuSans-38"/>
      </g>
     </g>
    </g>
    <g id="text_5">
     <!-- log10 of Df -->
     <defs>
      <path d="M 9.421875 75.984375 
L 18.40625 75.984375 
L 18.40625 0 
L 9.421875 0 
z
" id="DejaVuSans-6c"/>
      <path d="M 30.609375 48.390625 
Q 23.390625 48.390625 19.1875 42.75 
Q 14.984375 37.109375 14.984375 27.296875 
Q 14.984375 17.484375 19.15625 11.84375 
Q 23.34375 6.203125 30.609375 6.203125 
Q 37.796875 6.203125 41.984375 11.859375 
Q 46.1875 17.53125 46.1875 27.296875 
Q 46.1875 37.015625 41.984375 42.703125 
Q 37.796875 48.390625 30.609375 48.390625 
z
M 30.609375 56 
Q 42.328125 56 49.015625 48.375 
Q 55.71875 40.765625 55.71875 27.296875 
Q 55.71875 13.875 49.015625 6.21875 
Q 42.328125 -1.421875 30.609375 -1.421875 
Q 18.84375 -1.421875 12.171875 6.21875 
Q 5.515625 13.875 5.515625 27.296875 
Q 5.515625 40.765625 12.171875 48.375 
Q 18.84375 56 30.609375 56 
z
" id="DejaVuSans-6f"/>
      <path d="M 45.40625 27.984375 
Q 45.40625 37.75 41.375 43.109375 
Q 37.359375 48.484375 30.078125 48.484375 
Q 22.859375 48.484375 18.828125 43.109375 
Q 14.796875 37.75 14.796875 27.984375 
Q 14.796875 18.265625 18.828125 12.890625 
Q 22.859375 7.515625 30.078125 7.515625 
Q 37.359375 7.515625 41.375 12.890625 
Q 45.40625 18.265625 45.40625 27.984375 
z
M 54.390625 6.78125 
Q 54.390625 -7.171875 48.1875 -13.984375 
Q 42 -20.796875 29.203125 -20.796875 
Q 24.46875 -20.796875 20.265625 -20.09375 
Q 16.0625 -19.390625 12.109375 -17.921875 
L 12.109375 -9.1875 
Q 16.0625 -11.328125 19.921875 -12.34375 
Q 23.78125 -13.375 27.78125 -13.375 
Q 36.625 -13.375 41.015625 -8.765625 
Q 45.40625 -4.15625 45.40625 5.171875 
L 45.40625 9.625 
Q 42.625 4.78125 38.28125 2.390625 
Q 33.9375 0 27.875 0 
Q 17.828125 0 11.671875 7.65625 
Q 5.515625 15.328125 5.515625 27.984375 
Q 5.515625 40.671875 11.671875 48.328125 
Q 17.828125 56 27.875 56 
Q 33.9375 56 38.28125 53.609375 
Q 42.625 51.21875 45.40625 46.390625 
L 45.40625 54.6875 
L 54.390625 54.6875 
z
" id="DejaVuSans-67"/>
      <path d="M 12.40625 8.296875 
L 28.515625 8.296875 
L 28.515625 63.921875 
L 10.984375 60.40625 
L 10.984375 69.390625 
L 28.421875 72.90625 
L 38.28125 72.90625 
L 38.28125 8.296875 
L 54.390625 8.296875 
L 54.390625 0 
L 12.40625 0 
z
" id="DejaVuSans-31"/>
      <path id="DejaVuSans-20"/>
      <path d="M 37.109375 75.984375 
L 37.109375 68.5 
L 28.515625 68.5 
Q 23.6875 68.5 21.796875 66.546875 
Q 19.921875 64.59375 19.921875 59.515625 
L 19.921875 54.6875 
L 34.71875 54.6875 
L 34.71875 47.703125 
L 19.921875 47.703125 
L 19.921875 0 
L 10.890625 0 
L 10.890625 47.703125 
L 2.296875 47.703125 
L 2.296875 54.6875 
L 10.890625 54.6875 
L 10.890625 58.5 
Q 10.890625 67.625 15.140625 71.796875 
Q 19.390625 75.984375 28.609375 75.984375 
z
" id="DejaVuSans-66"/>
      <path d="M 19.671875 64.796875 
L 19.671875 8.109375 
L 31.59375 8.109375 
Q 46.6875 8.109375 53.6875 14.9375 
Q 60.6875 21.78125 60.6875 36.53125 
Q 60.6875 51.171875 53.6875 57.984375 
Q 46.6875 64.796875 31.59375 64.796875 
z
M 9.8125 72.90625 
L 30.078125 72.90625 
Q 51.265625 72.90625 61.171875 64.09375 
Q 71.09375 55.28125 71.09375 36.53125 
Q 71.09375 17.671875 61.125 8.828125 
Q 51.171875 0 30.078125 0 
L 9.8125 0 
z
" id="DejaVuSans-44"/>
     </defs>
     <g transform="translate(172.910063 336.833125)scale(0.2 -0.2)">
      <use xlink:href="#DejaVuSans-6c"/>
      <use x="27.783203" xlink:href="#DejaVuSans-6f"/>
      <use x="88.964844" xlink:href="#DejaVuSans-67"/>
      <use x="152.441406" xlink:href="#DejaVuSans-31"/>
      <use x="216.064453" xlink:href="#DejaVuSans-30"/>
      <use x="279.6875" xlink:href="#DejaVuSans-20"/>
      <use x="311.474609" xlink:href="#DejaVuSans-6f"/>
      <use x="372.65625" xlink:href="#DejaVuSans-66"/>
      <use x="407.861328" xlink:href="#DejaVuSans-20"/>
      <use x="439.648438" xlink:href="#DejaVuSans-44"/>
      <use x="516.650391" xlink:href="#DejaVuSans-66"/>
     </g>
    </g>
   </g>
   <g id="matplotlib.axis_2">
    <g id="ytick_1">
     <g id="line2d_11">
      <path clip-path="url(#pf374c0305f)" d="M 5.52 291.28 
L 450.672 291.28 
" style="fill:none;stroke:#b0b0b0;stroke-linecap:square;stroke-width:0.8;"/>
     </g>
     <g id="line2d_12">
      <defs>
       <path d="M 0 0 
L -3.5 0 
" id="m1f46e7ba61" style="stroke:#000000;stroke-width:0.8;"/>
      </defs>
      <g>
       <use style="stroke:#000000;stroke-width:0.8;" x="5.52" xlink:href="#m1f46e7ba61" y="291.28"/>
      </g>
     </g>
    </g>
    <g id="ytick_2">
     <g id="line2d_13">
      <path clip-path="url(#pf374c0305f)" d="M 5.52 234.693861 
L 450.672 234.693861 
" style="fill:none;stroke:#b0b0b0;stroke-linecap:square;stroke-width:0.8;"/>
     </g>
     <g id="line2d_14">
      <g>
       <use style="stroke:#000000;stroke-width:0.8;" x="5.52" xlink:href="#m1f46e7ba61" y="234.693861"/>
      </g>
     </g>
    </g>
    <g id="ytick_3">
     <g id="line2d_15">
      <path clip-path="url(#pf374c0305f)" d="M 5.52 178.107723 
L 450.672 178.107723 
" style="fill:none;stroke:#b0b0b0;stroke-linecap:square;stroke-width:0.8;"/>
     </g>
     <g id="line2d_16">
      <g>
       <use style="stroke:#000000;stroke-width:0.8;" x="5.52" xlink:href="#m1f46e7ba61" y="178.107723"/>
      </g>
     </g>
    </g>
    <g id="ytick_4">
     <g id="line2d_17">
      <path clip-path="url(#pf374c0305f)" d="M 5.52 121.521584 
L 450.672 121.521584 
" style="fill:none;stroke:#b0b0b0;stroke-linecap:square;stroke-width:0.8;"/>
     </g>
     <g id="line2d_18">
      <g>
       <use style="stroke:#000000;stroke-width:0.8;" x="5.52" xlink:href="#m1f46e7ba61" y="121.521584"/>
      </g>
     </g>
    </g>
    <g id="ytick_5">
     <g id="line2d_19">
      <path clip-path="url(#pf374c0305f)" d="M 5.52 64.935446 
L 450.672 64.935446 
" style="fill:none;stroke:#b0b0b0;stroke-linecap:square;stroke-width:0.8;"/>
     </g>
     <g id="line2d_20">
      <g>
       <use style="stroke:#000000;stroke-width:0.8;" x="5.52" xlink:href="#m1f46e7ba61" y="64.935446"/>
      </g>
     </g>
    </g>
    <g id="ytick_6">
     <g id="line2d_21">
      <path clip-path="url(#pf374c0305f)" d="M 5.52 8.349307 
L 450.672 8.349307 
" style="fill:none;stroke:#b0b0b0;stroke-linecap:square;stroke-width:0.8;"/>
     </g>
     <g id="line2d_22">
      <g>
       <use style="stroke:#000000;stroke-width:0.8;" x="5.52" xlink:href="#m1f46e7ba61" y="8.349307"/>
      </g>
     </g>
    </g>
   </g>
   <g id="line2d_23">
    <path clip-path="url(#pf374c0305f)" d="M 252.128988 291.28 
L 252.128988 287.507591 
L 252.738765 287.507591 
L 252.738765 283.735182 
L 252.928418 283.735182 
L 252.928418 279.962772 
L 253.29727 279.962772 
L 253.376069 272.417954 
L 253.693404 272.417954 
L 253.693404 268.645545 
L 254.722426 268.645545 
L 254.722426 264.873135 
L 255.306016 264.873135 
L 255.306016 261.100726 
L 255.628767 261.100726 
L 255.628767 257.328317 
L 256.263445 257.328317 
L 256.263445 253.555908 
L 257.072977 253.555908 
L 257.072977 249.783498 
L 257.480021 249.783498 
L 257.480021 246.011089 
L 257.818903 246.011089 
L 257.818903 242.23868 
L 258.777774 242.23868 
L 258.777774 238.466271 
L 260.970201 238.466271 
L 260.970201 234.693861 
L 263.359714 234.693861 
L 263.359714 230.921452 
L 264.28877 230.921452 
L 264.343269 223.376634 
L 266.188038 223.376634 
L 266.188038 219.604224 
L 266.395146 219.604224 
L 266.395146 215.831815 
L 266.94675 215.831815 
L 266.94675 212.059406 
L 267.839696 212.059406 
L 267.908548 200.742178 
L 269.243021 200.742178 
L 269.243021 196.969769 
L 269.923251 196.969769 
L 269.979322 189.42495 
L 270.554967 189.42495 
L 270.554967 185.652541 
L 271.784266 185.652541 
L 271.784266 181.880132 
L 272.791388 181.880132 
L 272.791388 178.107723 
L 276.50075 178.107723 
L 276.50075 174.335314 
L 277.010233 174.335314 
L 277.010233 170.562904 
L 278.380151 170.562904 
L 278.380151 166.790495 
L 278.833577 166.790495 
L 278.833577 163.018086 
L 279.037627 163.018086 
L 279.067246 151.700858 
L 279.778638 151.700858 
L 279.778638 147.928449 
L 280.000068 147.928449 
L 280.000068 144.15604 
L 280.14058 144.15604 
L 280.14058 140.38363 
L 280.485439 140.38363 
L 280.485439 136.611221 
L 280.865574 136.611221 
L 280.865574 132.838812 
L 281.180165 132.838812 
L 281.180165 129.066403 
L 281.543479 129.066403 
L 281.555989 121.521584 
L 281.773446 121.521584 
L 281.773446 117.749175 
L 282.1026 117.749175 
L 282.1026 113.976766 
L 282.348035 113.976766 
L 282.438712 106.431947 
L 282.512352 106.431947 
L 282.512352 102.659538 
L 282.749727 102.659538 
L 282.749727 98.887129 
L 283.572929 98.887129 
L 283.572929 95.114719 
L 283.710833 95.114719 
L 283.710833 91.34231 
L 284.253386 91.34231 
L 284.253386 87.569901 
L 285.220839 87.569901 
L 285.220839 83.797492 
L 285.472712 83.797492 
L 285.477038 76.252673 
L 286.142694 76.252673 
L 286.142694 72.480264 
L 286.550593 72.480264 
L 286.550593 68.707855 
L 287.15345 68.707855 
L 287.15345 64.935446 
L 343.787118 64.935446 
L 343.787118 61.163036 
L 347.33795 61.163036 
L 347.33795 57.390627 
L 347.680962 57.390627 
L 347.680962 53.618218 
L 351.281197 53.618218 
L 351.281197 49.845809 
L 352.29376 49.845809 
L 352.29376 46.073399 
L 353.08523 46.073399 
L 353.08523 42.30099 
L 356.272124 42.30099 
L 356.272124 38.528581 
L 359.469604 38.528581 
L 359.469604 34.756172 
L 359.862215 34.756172 
L 359.862215 30.983762 
L 361.088751 30.983762 
L 361.088751 27.211353 
L 362.764416 27.211353 
L 362.764416 23.438944 
L 362.926676 23.438944 
L 362.926676 19.666535 
L 369.020148 19.666535 
L 369.020148 15.894125 
L 369.990707 15.894125 
L 369.990707 12.121716 
L 371.358406 12.121716 
L 371.358406 8.349307 
L 371.358406 8.349307 
L 450.672 8.349307 
L 450.672 8.349307 
" style="fill:none;stroke:#ff0000;stroke-linecap:square;stroke-width:3;"/>
   </g>
   <g id="line2d_24">
    <path clip-path="url(#pf374c0305f)" d="M 258.895589 291.28 
L 258.895589 287.507591 
L 261.150645 287.507591 
L 261.150645 283.735182 
L 261.363688 283.735182 
L 261.363688 279.962772 
L 261.666928 279.962772 
L 261.666928 276.190363 
L 262.204466 276.190363 
L 262.280342 268.645545 
L 262.596611 268.645545 
L 262.596611 264.873135 
L 263.432798 264.873135 
L 263.485941 257.328317 
L 263.597798 257.328317 
L 263.597798 253.555908 
L 264.895739 253.555908 
L 264.895739 249.783498 
L 265.334917 249.783498 
L 265.334917 246.011089 
L 265.468932 246.011089 
L 265.468932 242.23868 
L 265.724038 242.23868 
L 265.724038 238.466271 
L 266.845674 238.466271 
L 266.845674 234.693861 
L 278.031053 234.693861 
L 278.031058 178.107723 
L 280.406132 178.107723 
L 280.406132 174.335314 
L 281.06818 174.335314 
L 281.151712 166.790495 
L 281.549784 166.790495 
L 281.549784 163.018086 
L 282.033172 163.018086 
L 282.033172 159.245677 
L 282.647468 159.245677 
L 282.647468 155.473267 
L 282.909219 155.473267 
L 282.909219 151.700858 
L 283.117818 151.700858 
L 283.1922 144.15604 
L 283.294941 144.15604 
L 283.384705 132.838812 
L 283.897096 132.838812 
L 283.897096 129.066403 
L 284.201811 129.066403 
L 284.202747 121.521584 
L 284.3607 121.521584 
L 284.3607 117.749175 
L 284.519775 117.749175 
L 284.53449 110.204356 
L 284.646952 110.204356 
L 284.646952 106.431947 
L 284.898496 106.431947 
L 284.963412 98.887129 
L 285.506041 98.887129 
L 285.506041 95.114719 
L 285.985867 95.114719 
L 285.985867 91.34231 
L 286.125997 91.34231 
L 286.125997 87.569901 
L 287.260973 87.569901 
L 287.302891 76.252673 
L 287.680548 76.252673 
L 287.709669 68.707855 
L 288.735411 68.707855 
L 288.735411 64.935446 
L 380.809058 64.935446 
L 380.809058 61.163036 
L 381.055198 61.163036 
L 381.055198 57.390627 
L 387.492036 57.390627 
L 387.492036 53.618218 
L 388.289612 53.618218 
L 388.289612 49.845809 
L 388.449779 49.845809 
L 388.449779 46.073399 
L 389.921158 46.073399 
L 389.921158 42.30099 
L 390.424361 42.30099 
L 390.424361 38.528581 
L 391.921402 38.528581 
L 391.921402 34.756172 
L 392.222698 34.756172 
L 392.222698 30.983762 
L 393.101875 30.983762 
L 393.101875 27.211353 
L 393.367569 27.211353 
L 393.367569 23.438944 
L 396.082289 23.438944 
L 396.082289 19.666535 
L 397.386824 19.666535 
L 397.386824 15.894125 
L 398.777267 15.894125 
L 398.777267 12.121716 
L 398.907098 12.121716 
L 398.907098 8.349307 
L 398.907098 8.349307 
L 450.672 8.349307 
L 450.672 8.349307 
" style="fill:none;stroke:#00bfbf;stroke-linecap:square;stroke-width:1.5;"/>
   </g>
   <g id="line2d_25">
    <path clip-path="url(#pf374c0305f)" d="M 258.895589 291.28 
L 258.895589 287.507591 
L 261.150581 287.507591 
L 261.150581 283.735182 
L 261.363547 283.735182 
L 261.363547 279.962772 
L 261.666877 279.962772 
L 261.666877 276.190363 
L 262.204285 276.190363 
L 262.28026 268.645545 
L 262.596536 268.645545 
L 262.596536 264.873135 
L 263.432745 264.873135 
L 263.485941 257.328317 
L 263.597693 257.328317 
L 263.597693 253.555908 
L 264.895642 253.555908 
L 264.895642 249.783498 
L 265.3349 249.783498 
L 265.3349 246.011089 
L 265.468876 246.011089 
L 265.468876 242.23868 
L 265.724032 242.23868 
L 265.724032 238.466271 
L 266.845674 238.466271 
L 266.845674 234.693861 
L 278.03098 234.693861 
L 278.031018 178.107723 
L 280.405611 178.107723 
L 280.405611 174.335314 
L 281.06774 174.335314 
L 281.151116 166.790495 
L 281.548958 166.790495 
L 281.548958 163.018086 
L 282.032671 163.018086 
L 282.032671 159.245677 
L 282.646533 159.245677 
L 282.646533 155.473267 
L 282.908717 155.473267 
L 282.908717 151.700858 
L 283.116791 151.700858 
L 283.191966 144.15604 
L 283.294211 144.15604 
L 283.383886 132.838812 
L 283.896931 132.838812 
L 283.896931 129.066403 
L 284.201148 129.066403 
L 284.202054 121.521584 
L 284.360129 121.521584 
L 284.360129 117.749175 
L 284.518592 117.749175 
L 284.532402 110.204356 
L 284.646676 110.204356 
L 284.646676 106.431947 
L 284.898088 106.431947 
L 284.963375 98.887129 
L 285.505365 98.887129 
L 285.505365 95.114719 
L 285.985374 95.114719 
L 285.985374 91.34231 
L 286.125544 91.34231 
L 286.125544 87.569901 
L 287.260369 87.569901 
L 287.302251 76.252673 
L 287.680295 76.252673 
L 287.708991 68.707855 
L 288.734008 68.707855 
L 288.734008 64.935446 
L 380.808093 64.935446 
L 380.808093 61.163036 
L 381.053956 61.163036 
L 381.053956 57.390627 
L 387.4907 57.390627 
L 387.4907 53.618218 
L 388.288027 53.618218 
L 388.288027 49.845809 
L 388.448761 49.845809 
L 388.448761 46.073399 
L 389.920584 46.073399 
L 389.920584 42.30099 
L 390.422553 42.30099 
L 390.422553 38.528581 
L 391.920417 38.528581 
L 391.920417 34.756172 
L 392.221976 34.756172 
L 392.221976 30.983762 
L 393.100371 30.983762 
L 393.100371 27.211353 
L 393.366258 27.211353 
L 393.366258 23.438944 
L 396.081422 23.438944 
L 396.081422 19.666535 
L 397.385467 19.666535 
L 397.385467 15.894125 
L 398.77606 15.894125 
L 398.77606 12.121716 
L 398.905855 12.121716 
L 398.905855 8.349307 
L 398.905855 8.349307 
L 450.672 8.349307 
L 450.672 8.349307 
" style="fill:none;stroke:#bf00bf;stroke-linecap:square;stroke-width:1.5;"/>
   </g>
   <g id="line2d_26">
    <path clip-path="url(#pf374c0305f)" d="M 258.894338 291.28 
L 258.894338 287.507591 
L 261.14944 287.507591 
L 261.14944 283.735182 
L 261.362245 283.735182 
L 261.362245 279.962772 
L 261.66566 279.962772 
L 261.66566 276.190363 
L 262.203047 276.190363 
L 262.279049 268.645545 
L 262.595341 268.645545 
L 262.595341 264.873135 
L 263.431648 264.873135 
L 263.48489 257.328317 
L 263.596482 257.328317 
L 263.596482 253.555908 
L 264.894556 253.555908 
L 264.894556 249.783498 
L 265.333906 249.783498 
L 265.333906 246.011089 
L 265.467961 246.011089 
L 265.467961 242.23868 
L 265.723063 242.23868 
L 265.723063 238.466271 
L 266.844749 238.466271 
L 266.844749 234.693861 
L 278.030637 234.693861 
L 278.030749 178.107723 
L 280.399887 178.107723 
L 280.399887 174.335314 
L 281.063258 174.335314 
L 281.147662 166.790495 
L 281.545853 166.790495 
L 281.545853 163.018086 
L 282.028633 163.018086 
L 282.028633 159.245677 
L 282.642311 159.245677 
L 282.642311 155.473267 
L 282.904346 155.473267 
L 282.904346 151.700858 
L 283.11266 151.700858 
L 283.189127 144.15604 
L 283.291018 144.15604 
L 283.381113 132.838812 
L 283.89418 132.838812 
L 283.89418 129.066403 
L 284.196202 129.066403 
L 284.198053 121.521584 
L 284.358372 121.521584 
L 284.358372 117.749175 
L 284.515063 117.749175 
L 284.527653 110.204356 
L 284.64426 110.204356 
L 284.64426 106.431947 
L 284.8955 106.431947 
L 284.960626 98.887129 
L 285.503078 98.887129 
L 285.503078 95.114719 
L 285.984049 95.114719 
L 285.984049 91.34231 
L 286.121841 91.34231 
L 286.121841 87.569901 
L 287.258232 87.569901 
L 287.299845 76.252673 
L 287.677725 76.252673 
L 287.706476 68.707855 
L 288.730933 68.707855 
L 288.730933 64.935446 
L 380.806363 64.935446 
L 380.806363 61.163036 
L 381.052492 61.163036 
L 381.052492 57.390627 
L 387.4894 57.390627 
L 387.4894 53.618218 
L 388.286691 53.618218 
L 388.286691 49.845809 
L 388.447754 49.845809 
L 388.447754 46.073399 
L 389.919499 46.073399 
L 389.919499 42.30099 
L 390.419381 42.30099 
L 390.419381 38.528581 
L 391.919999 38.528581 
L 391.919999 34.756172 
L 392.220081 34.756172 
L 392.220081 30.983762 
L 393.099058 30.983762 
L 393.099058 27.211353 
L 393.365733 27.211353 
L 393.365733 23.438944 
L 396.080422 23.438944 
L 396.080422 19.666535 
L 397.383143 19.666535 
L 397.383143 15.894125 
L 398.773904 15.894125 
L 398.773904 12.121716 
L 398.903631 12.121716 
L 398.903631 8.349307 
L 398.903631 8.349307 
L 450.672 8.349307 
L 450.672 8.349307 
" style="fill:none;stroke:#000000;stroke-linecap:square;stroke-width:1.5;"/>
   </g>
   <g id="line2d_27">
    <path clip-path="url(#pf374c0305f)" d="M 258.866933 291.28 
L 258.866933 287.507591 
L 261.125308 287.507591 
L 261.125308 283.735182 
L 261.335176 283.735182 
L 261.335176 279.962772 
L 261.638852 279.962772 
L 261.638852 276.190363 
L 262.178973 276.190363 
L 262.253748 268.645545 
L 262.570723 268.645545 
L 262.570723 264.873135 
L 263.409395 264.873135 
L 263.46296 257.328317 
L 263.572644 257.328317 
L 263.572644 253.555908 
L 264.872408 253.555908 
L 264.872408 249.783498 
L 265.310542 249.783498 
L 265.310542 246.011089 
L 265.44681 246.011089 
L 265.44681 242.23868 
L 265.702906 242.23868 
L 265.702906 238.466271 
L 266.823319 238.466271 
L 266.823319 234.693861 
L 278.023464 234.693861 
L 278.025196 178.107723 
L 280.280508 178.107723 
L 280.280508 174.335314 
L 280.970801 174.335314 
L 280.970801 170.562904 
L 281.084482 170.562904 
L 281.084482 166.790495 
L 281.454845 166.790495 
L 281.454845 163.018086 
L 281.942888 163.018086 
L 281.942888 159.245677 
L 282.556353 159.245677 
L 282.556353 155.473267 
L 282.816838 155.473267 
L 282.816838 151.700858 
L 283.002302 151.700858 
L 283.002302 147.928449 
L 283.128122 147.928449 
L 283.219221 140.38363 
L 283.28744 140.38363 
L 283.312136 132.838812 
L 283.836722 132.838812 
L 283.836722 129.066403 
L 284.09361 129.066403 
L 284.103487 121.521584 
L 284.316692 121.521584 
L 284.381198 113.976766 
L 284.43267 113.976766 
L 284.43267 110.204356 
L 284.593128 110.204356 
L 284.593128 106.431947 
L 284.842029 106.431947 
L 284.901783 98.887129 
L 285.430937 98.887129 
L 285.430937 95.114719 
L 285.948866 95.114719 
L 286.05012 87.569901 
L 287.15045 87.569901 
L 287.230091 76.252673 
L 287.622033 76.252673 
L 287.652968 68.707855 
L 288.589591 68.707855 
L 288.589591 64.935446 
L 380.746882 64.935446 
L 380.746882 61.163036 
L 380.99748 61.163036 
L 380.99748 57.390627 
L 387.445158 57.390627 
L 387.445158 53.618218 
L 388.23593 53.618218 
L 388.23593 49.845809 
L 388.413722 49.845809 
L 388.413722 46.073399 
L 389.891122 46.073399 
L 389.891122 42.30099 
L 390.329759 42.30099 
L 390.329759 38.528581 
L 391.8896 38.528581 
L 391.8896 34.756172 
L 392.176159 34.756172 
L 392.176159 30.983762 
L 393.050315 30.983762 
L 393.050315 27.211353 
L 393.327745 27.211353 
L 393.327745 23.438944 
L 396.042422 23.438944 
L 396.042422 19.666535 
L 397.317602 19.666535 
L 397.317602 15.894125 
L 398.713415 15.894125 
L 398.713415 12.121716 
L 398.841982 12.121716 
L 398.841982 8.349307 
L 398.841982 8.349307 
L 450.672 8.349307 
L 450.672 8.349307 
" style="fill:none;stroke:#00bfbf;stroke-linecap:square;stroke-width:1.5;"/>
   </g>
   <g id="line2d_28">
    <path clip-path="url(#pf374c0305f)" d="M 253.364278 291.28 
L 253.364278 287.507591 
L 254.153638 287.507591 
L 254.153638 283.735182 
L 254.351271 283.735182 
L 254.351271 279.962772 
L 254.640484 279.962772 
L 254.640484 276.190363 
L 254.861514 276.190363 
L 254.861514 272.417954 
L 255.52454 272.417954 
L 255.52454 268.645545 
L 256.511103 268.645545 
L 256.511103 264.873135 
L 257.29164 264.873135 
L 257.29164 261.100726 
L 257.409989 261.100726 
L 257.45428 253.555908 
L 258.068939 253.555908 
L 258.068939 249.783498 
L 258.69901 249.783498 
L 258.69901 246.011089 
L 259.00973 246.011089 
L 259.00973 242.23868 
L 259.212274 242.23868 
L 259.212274 238.466271 
L 262.012937 238.466271 
L 262.012937 234.693861 
L 264.351352 234.693861 
L 264.351352 230.921452 
L 267.227784 230.921452 
L 267.227784 227.149043 
L 267.8397 227.149043 
L 267.88305 219.604224 
L 267.973563 219.604224 
L 268.023622 212.059406 
L 268.138053 212.059406 
L 268.138053 208.286997 
L 268.601458 208.286997 
L 268.601458 204.514587 
L 269.736586 204.514587 
L 269.736586 200.742178 
L 269.923258 200.742178 
L 269.934021 193.19736 
L 270.325791 193.19736 
L 270.325791 189.42495 
L 270.554967 189.42495 
L 270.554967 185.652541 
L 271.875656 185.652541 
L 271.875656 181.880132 
L 272.791388 181.880132 
L 272.791388 178.107723 
L 277.009771 178.107723 
L 277.009771 174.335314 
L 277.566888 174.335314 
L 277.566888 170.562904 
L 279.228927 170.562904 
L 279.228927 166.790495 
L 279.426821 166.790495 
L 279.426821 163.018086 
L 279.712054 163.018086 
L 279.720187 155.473267 
L 279.971695 155.473267 
L 279.998803 147.928449 
L 280.320467 147.928449 
L 280.320467 144.15604 
L 280.571043 144.15604 
L 280.571043 140.38363 
L 281.060691 140.38363 
L 281.060691 136.611221 
L 281.4078 136.611221 
L 281.4078 132.838812 
L 281.676461 132.838812 
L 281.676461 129.066403 
L 281.8781 129.066403 
L 281.8781 125.293993 
L 282.081068 125.293993 
L 282.081068 121.521584 
L 282.327088 121.521584 
L 282.411279 110.204356 
L 282.614254 110.204356 
L 282.64764 102.659538 
L 282.925375 102.659538 
L 282.925375 98.887129 
L 283.807415 98.887129 
L 283.911367 91.34231 
L 284.545425 91.34231 
L 284.545425 87.569901 
L 285.457278 87.569901 
L 285.56663 80.025083 
L 286.054726 80.025083 
L 286.054726 76.252673 
L 286.553829 76.252673 
L 286.553829 72.480264 
L 287.124321 72.480264 
L 287.124321 68.707855 
L 287.445385 68.707855 
L 287.445385 64.935446 
L 352.429349 64.935446 
L 352.429349 61.163036 
L 355.713815 61.163036 
L 355.713815 57.390627 
L 357.30172 57.390627 
L 357.30172 53.618218 
L 362.209175 53.618218 
L 362.240745 46.073399 
L 363.135807 46.073399 
L 363.135807 42.30099 
L 364.387985 42.30099 
L 364.387985 38.528581 
L 364.760759 38.528581 
L 364.760759 34.756172 
L 365.839539 34.756172 
L 365.839539 30.983762 
L 367.93751 30.983762 
L 367.93751 27.211353 
L 370.362082 27.211353 
L 370.362082 23.438944 
L 373.274366 23.438944 
L 373.274366 19.666535 
L 375.552213 19.666535 
L 375.552213 15.894125 
L 376.484368 15.894125 
L 376.484368 12.121716 
L 377.381994 12.121716 
L 377.381994 8.349307 
L 377.381994 8.349307 
L 450.672 8.349307 
L 450.672 8.349307 
" style="fill:none;stroke:#bf00bf;stroke-linecap:square;stroke-width:1.5;"/>
   </g>
   <g id="patch_3">
    <path d="M 5.52 291.28 
L 5.52 5.52 
" style="fill:none;stroke:#000000;stroke-linecap:square;stroke-linejoin:miter;stroke-width:0.8;"/>
   </g>
   <g id="patch_4">
    <path d="M 450.672 291.28 
L 450.672 5.52 
" style="fill:none;stroke:#000000;stroke-linecap:square;stroke-linejoin:miter;stroke-width:0.8;"/>
   </g>
   <g id="patch_5">
    <path d="M 5.52 291.28 
L 450.672 291.28 
" style="fill:none;stroke:#000000;stroke-linecap:square;stroke-linejoin:miter;stroke-width:0.8;"/>
   </g>
   <g id="patch_6">
    <path d="M 5.52 5.52 
L 450.672 5.52 
" style="fill:none;stroke:#000000;stroke-linecap:square;stroke-linejoin:miter;stroke-width:0.8;"/>
   </g>
   <g id="text_6">
    <!-- {f1-f5}, 20-D -->
    <defs>
     <path d="M 51.125 -9.28125 
L 51.125 -16.3125 
L 48.09375 -16.3125 
Q 35.9375 -16.3125 31.8125 -12.6875 
Q 27.6875 -9.078125 27.6875 1.703125 
L 27.6875 13.375 
Q 27.6875 20.75 25.046875 23.578125 
Q 22.40625 26.421875 15.484375 26.421875 
L 12.5 26.421875 
L 12.5 33.40625 
L 15.484375 33.40625 
Q 22.46875 33.40625 25.078125 36.203125 
Q 27.6875 39.015625 27.6875 46.296875 
L 27.6875 58.015625 
Q 27.6875 68.796875 31.8125 72.390625 
Q 35.9375 75.984375 48.09375 75.984375 
L 51.125 75.984375 
L 51.125 69 
L 47.796875 69 
Q 40.921875 69 38.8125 66.84375 
Q 36.71875 64.703125 36.71875 57.8125 
L 36.71875 45.703125 
Q 36.71875 38.03125 34.5 34.5625 
Q 32.28125 31.109375 26.90625 29.890625 
Q 32.328125 28.5625 34.515625 25.09375 
Q 36.71875 21.625 36.71875 14.015625 
L 36.71875 1.90625 
Q 36.71875 -4.984375 38.8125 -7.125 
Q 40.921875 -9.28125 47.796875 -9.28125 
z
" id="DejaVuSans-7b"/>
     <path d="M 10.796875 72.90625 
L 49.515625 72.90625 
L 49.515625 64.59375 
L 19.828125 64.59375 
L 19.828125 46.734375 
Q 21.96875 47.46875 24.109375 47.828125 
Q 26.265625 48.1875 28.421875 48.1875 
Q 40.625 48.1875 47.75 41.5 
Q 54.890625 34.8125 54.890625 23.390625 
Q 54.890625 11.625 47.5625 5.09375 
Q 40.234375 -1.421875 26.90625 -1.421875 
Q 22.3125 -1.421875 17.546875 -0.640625 
Q 12.796875 0.140625 7.71875 1.703125 
L 7.71875 11.625 
Q 12.109375 9.234375 16.796875 8.0625 
Q 21.484375 6.890625 26.703125 6.890625 
Q 35.15625 6.890625 40.078125 11.328125 
Q 45.015625 15.765625 45.015625 23.390625 
Q 45.015625 31 40.078125 35.4375 
Q 35.15625 39.890625 26.703125 39.890625 
Q 22.75 39.890625 18.8125 39.015625 
Q 14.890625 38.140625 10.796875 36.28125 
z
" id="DejaVuSans-35"/>
     <path d="M 12.5 -9.28125 
L 15.921875 -9.28125 
Q 22.75 -9.28125 24.828125 -7.171875 
Q 26.90625 -5.078125 26.90625 1.90625 
L 26.90625 14.015625 
Q 26.90625 21.625 29.09375 25.09375 
Q 31.296875 28.5625 36.71875 29.890625 
Q 31.296875 31.109375 29.09375 34.5625 
Q 26.90625 38.03125 26.90625 45.703125 
L 26.90625 57.8125 
Q 26.90625 64.75 24.828125 66.875 
Q 22.75 69 15.921875 69 
L 12.5 69 
L 12.5 75.984375 
L 15.578125 75.984375 
Q 27.734375 75.984375 31.8125 72.390625 
Q 35.890625 68.796875 35.890625 58.015625 
L 35.890625 46.296875 
Q 35.890625 39.015625 38.515625 36.203125 
Q 41.15625 33.40625 48.09375 33.40625 
L 51.125 33.40625 
L 51.125 26.421875 
L 48.09375 26.421875 
Q 41.15625 26.421875 38.515625 23.578125 
Q 35.890625 20.75 35.890625 13.375 
L 35.890625 1.703125 
Q 35.890625 -9.078125 31.8125 -12.6875 
Q 27.734375 -16.3125 15.578125 -16.3125 
L 12.5 -16.3125 
z
" id="DejaVuSans-7d"/>
     <path d="M 11.71875 12.40625 
L 22.015625 12.40625 
L 22.015625 4 
L 14.015625 -11.625 
L 7.71875 -11.625 
L 11.71875 4 
z
" id="DejaVuSans-2c"/>
     <path d="M 19.1875 8.296875 
L 53.609375 8.296875 
L 53.609375 0 
L 7.328125 0 
L 7.328125 8.296875 
Q 12.9375 14.109375 22.625 23.890625 
Q 32.328125 33.6875 34.8125 36.53125 
Q 39.546875 41.84375 41.421875 45.53125 
Q 43.3125 49.21875 43.3125 52.78125 
Q 43.3125 58.59375 39.234375 62.25 
Q 35.15625 65.921875 28.609375 65.921875 
Q 23.96875 65.921875 18.8125 64.3125 
Q 13.671875 62.703125 7.8125 59.421875 
L 7.8125 69.390625 
Q 13.765625 71.78125 18.9375 73 
Q 24.125 74.21875 28.421875 74.21875 
Q 39.75 74.21875 46.484375 68.546875 
Q 53.21875 62.890625 53.21875 53.421875 
Q 53.21875 48.921875 51.53125 44.890625 
Q 49.859375 40.875 45.40625 35.40625 
Q 44.1875 33.984375 37.640625 27.21875 
Q 31.109375 20.453125 19.1875 8.296875 
z
" id="DejaVuSans-32"/>
    </defs>
    <g transform="translate(308.79396 285.5648)scale(0.2 -0.2)">
     <use xlink:href="#DejaVuSans-7b"/>
     <use x="63.623047" xlink:href="#DejaVuSans-66"/>
     <use x="98.828125" xlink:href="#DejaVuSans-31"/>
     <use x="162.451172" xlink:href="#DejaVuSans-2d"/>
     <use x="198.535156" xlink:href="#DejaVuSans-66"/>
     <use x="233.740234" xlink:href="#DejaVuSans-35"/>
     <use x="297.363281" xlink:href="#DejaVuSans-7d"/>
     <use x="360.986328" xlink:href="#DejaVuSans-2c"/>
     <use x="392.773438" xlink:href="#DejaVuSans-20"/>
     <use x="424.560547" xlink:href="#DejaVuSans-32"/>
     <use x="488.183594" xlink:href="#DejaVuSans-30"/>
     <use x="551.806641" xlink:href="#DejaVuSans-2d"/>
     <use x="587.890625" xlink:href="#DejaVuSans-44"/>
    </g>
   </g>
   <g id="text_7">
    <!-- v2.2.1.10 -->
    <defs>
     <path d="M 2.984375 54.6875 
L 12.5 54.6875 
L 29.59375 8.796875 
L 46.6875 54.6875 
L 56.203125 54.6875 
L 35.6875 0 
L 23.484375 0 
z
" id="DejaVuSans-76"/>
     <path d="M 10.6875 12.40625 
L 21 12.40625 
L 21 0 
L 10.6875 0 
z
" id="DejaVuSans-2e"/>
    </defs>
    <g style="fill:#808080;" transform="translate(204.463188 286.342713)scale(0.1 -0.1)">
     <use xlink:href="#DejaVuSans-76"/>
     <use x="59.179688" xlink:href="#DejaVuSans-32"/>
     <use x="122.802734" xlink:href="#DejaVuSans-2e"/>
     <use x="154.589844" xlink:href="#DejaVuSans-32"/>
     <use x="218.212891" xlink:href="#DejaVuSans-2e"/>
     <use x="250" xlink:href="#DejaVuSans-31"/>
     <use x="313.623047" xlink:href="#DejaVuSans-2e"/>
     <use x="345.410156" xlink:href="#DejaVuSans-31"/>
     <use x="409.033203" xlink:href="#DejaVuSans-30"/>
    </g>
   </g>
  </g>
 </g>
 <defs>
  <clipPath id="pf374c0305f">
   <rect height="285.76" width="445.152" x="5.52" y="5.52"/>
  </clipPath>
 </defs>
</svg>
