<?xml version="1.0" encoding="utf-8" standalone="no"?>
<!DOCTYPE svg PUBLIC "-//W3C//DTD SVG 1.1//EN"
  "http://www.w3.org/Graphics/SVG/1.1/DTD/svg11.dtd">
<!-- Created with matplotlib (http://matplotlib.org/) -->
<svg height="345.6pt" version="1.1" viewBox="0 0 460.8 345.6" width="460.8pt" xmlns="http://www.w3.org/2000/svg" xmlns:xlink="http://www.w3.org/1999/xlink">
 <defs>
  <style type="text/css">
*{stroke-linecap:butt;stroke-linejoin:round;}
  </style>
 </defs>
 <g id="figure_1">
  <g id="patch_1">
   <path d="M 0 345.6 
L 460.8 345.6 
L 460.8 0 
L 0 0 
z
" style="fill:#ffffff;"/>
  </g>
  <g id="axes_1">
   <g id="patch_2">
    <path d="M 5.52 291.28 
L 450.672 291.28 
L 450.672 5.52 
L 5.52 5.52 
z
" style="fill:#ffffff;"/>
   </g>
   <g id="matplotlib.axis_1">
    <g id="xtick_1">
     <g id="line2d_1">
      <path clip-path="url(#p895cb5dd79)" d="M 5.408872 291.28 
L 5.408872 5.52 
" style="fill:none;stroke:#b0b0b0;stroke-linecap:square;stroke-width:0.8;"/>
     </g>
     <g id="line2d_2">
      <defs>
       <path d="M 0 0 
L 0 3.5 
" id="m9b1de766f9" style="stroke:#000000;stroke-width:0.8;"/>
      </defs>
      <g>
       <use style="stroke:#000000;stroke-width:0.8;" x="5.408872" xlink:href="#m9b1de766f9" y="291.28"/>
      </g>
     </g>
    </g>
    <g id="xtick_2">
     <g id="line2d_3">
      <path clip-path="url(#p895cb5dd79)" d="M 108.272817 291.28 
L 108.272817 5.52 
" style="fill:none;stroke:#b0b0b0;stroke-linecap:square;stroke-width:0.8;"/>
     </g>
     <g id="line2d_4">
      <g>
       <use style="stroke:#000000;stroke-width:0.8;" x="108.272817" xlink:href="#m9b1de766f9" y="291.28"/>
      </g>
     </g>
     <g id="text_1">
      <!-- -4 -->
      <defs>
       <path d="M 4.890625 31.390625 
L 31.203125 31.390625 
L 31.203125 23.390625 
L 4.890625 23.390625 
z
" id="DejaVuSans-2d"/>
       <path d="M 37.796875 64.3125 
L 12.890625 25.390625 
L 37.796875 25.390625 
z
M 35.203125 72.90625 
L 47.609375 72.90625 
L 47.609375 25.390625 
L 58.015625 25.390625 
L 58.015625 17.1875 
L 47.609375 17.1875 
L 47.609375 0 
L 37.796875 0 
L 37.796875 17.1875 
L 4.890625 17.1875 
L 4.890625 26.703125 
z
" id="DejaVuSans-34"/>
      </defs>
      <g transform="translate(98.302504 313.476875)scale(0.2 -0.2)">
       <use xlink:href="#DejaVuSans-2d"/>
       <use x="36.083984" xlink:href="#DejaVuSans-34"/>
      </g>
     </g>
    </g>
    <g id="xtick_3">
     <g id="line2d_5">
      <path clip-path="url(#p895cb5dd79)" d="M 211.136761 291.28 
L 211.136761 5.52 
" style="fill:none;stroke:#b0b0b0;stroke-linecap:square;stroke-width:0.8;"/>
     </g>
     <g id="line2d_6">
      <g>
       <use style="stroke:#000000;stroke-width:0.8;" x="211.136761" xlink:href="#m9b1de766f9" y="291.28"/>
      </g>
     </g>
     <g id="text_2">
      <!-- 0 -->
      <defs>
       <path d="M 31.78125 66.40625 
Q 24.171875 66.40625 20.328125 58.90625 
Q 16.5 51.421875 16.5 36.375 
Q 16.5 21.390625 20.328125 13.890625 
Q 24.171875 6.390625 31.78125 6.390625 
Q 39.453125 6.390625 43.28125 13.890625 
Q 47.125 21.390625 47.125 36.375 
Q 47.125 51.421875 43.28125 58.90625 
Q 39.453125 66.40625 31.78125 66.40625 
z
M 31.78125 74.21875 
Q 44.046875 74.21875 50.515625 64.515625 
Q 56.984375 54.828125 56.984375 36.375 
Q 56.984375 17.96875 50.515625 8.265625 
Q 44.046875 -1.421875 31.78125 -1.421875 
Q 19.53125 -1.421875 13.0625 8.265625 
Q 6.59375 17.96875 6.59375 36.375 
Q 6.59375 54.828125 13.0625 64.515625 
Q 19.53125 74.21875 31.78125 74.21875 
z
" id="DejaVuSans-30"/>
      </defs>
      <g transform="translate(204.774261 313.476875)scale(0.2 -0.2)">
       <use xlink:href="#DejaVuSans-30"/>
      </g>
     </g>
    </g>
    <g id="xtick_4">
     <g id="line2d_7">
      <path clip-path="url(#p895cb5dd79)" d="M 314.000706 291.28 
L 314.000706 5.52 
" style="fill:none;stroke:#b0b0b0;stroke-linecap:square;stroke-width:0.8;"/>
     </g>
     <g id="line2d_8">
      <g>
       <use style="stroke:#000000;stroke-width:0.8;" x="314.000706" xlink:href="#m9b1de766f9" y="291.28"/>
      </g>
     </g>
     <g id="text_3">
      <!-- 4 -->
      <g transform="translate(307.638206 313.476875)scale(0.2 -0.2)">
       <use xlink:href="#DejaVuSans-34"/>
      </g>
     </g>
    </g>
    <g id="xtick_5">
     <g id="line2d_9">
      <path clip-path="url(#p895cb5dd79)" d="M 416.864651 291.28 
L 416.864651 5.52 
" style="fill:none;stroke:#b0b0b0;stroke-linecap:square;stroke-width:0.8;"/>
     </g>
     <g id="line2d_10">
      <g>
       <use style="stroke:#000000;stroke-width:0.8;" x="416.864651" xlink:href="#m9b1de766f9" y="291.28"/>
      </g>
     </g>
     <g id="text_4">
      <!-- 8 -->
      <defs>
       <path d="M 31.78125 34.625 
Q 24.75 34.625 20.71875 30.859375 
Q 16.703125 27.09375 16.703125 20.515625 
Q 16.703125 13.921875 20.71875 10.15625 
Q 24.75 6.390625 31.78125 6.390625 
Q 38.8125 6.390625 42.859375 10.171875 
Q 46.921875 13.96875 46.921875 20.515625 
Q 46.921875 27.09375 42.890625 30.859375 
Q 38.875 34.625 31.78125 34.625 
z
M 21.921875 38.8125 
Q 15.578125 40.375 12.03125 44.71875 
Q 8.5 49.078125 8.5 55.328125 
Q 8.5 64.0625 14.71875 69.140625 
Q 20.953125 74.21875 31.78125 74.21875 
Q 42.671875 74.21875 48.875 69.140625 
Q 55.078125 64.0625 55.078125 55.328125 
Q 55.078125 49.078125 51.53125 44.71875 
Q 48 40.375 41.703125 38.8125 
Q 48.828125 37.15625 52.796875 32.3125 
Q 56.78125 27.484375 56.78125 20.515625 
Q 56.78125 9.90625 50.3125 4.234375 
Q 43.84375 -1.421875 31.78125 -1.421875 
Q 19.734375 -1.421875 13.25 4.234375 
Q 6.78125 9.90625 6.78125 20.515625 
Q 6.78125 27.484375 10.78125 32.3125 
Q 14.796875 37.15625 21.921875 38.8125 
z
M 18.3125 54.390625 
Q 18.3125 48.734375 21.84375 45.5625 
Q 25.390625 42.390625 31.78125 42.390625 
Q 38.140625 42.390625 41.71875 45.5625 
Q 45.3125 48.734375 45.3125 54.390625 
Q 45.3125 60.0625 41.71875 63.234375 
Q 38.140625 66.40625 31.78125 66.40625 
Q 25.390625 66.40625 21.84375 63.234375 
Q 18.3125 60.0625 18.3125 54.390625 
z
" id="DejaVuSans-38"/>
      </defs>
      <g transform="translate(410.502151 313.476875)scale(0.2 -0.2)">
       <use xlink:href="#DejaVuSans-38"/>
      </g>
     </g>
    </g>
    <g id="text_5">
     <!-- log10 of Df -->
     <defs>
      <path d="M 9.421875 75.984375 
L 18.40625 75.984375 
L 18.40625 0 
L 9.421875 0 
z
" id="DejaVuSans-6c"/>
      <path d="M 30.609375 48.390625 
Q 23.390625 48.390625 19.1875 42.75 
Q 14.984375 37.109375 14.984375 27.296875 
Q 14.984375 17.484375 19.15625 11.84375 
Q 23.34375 6.203125 30.609375 6.203125 
Q 37.796875 6.203125 41.984375 11.859375 
Q 46.1875 17.53125 46.1875 27.296875 
Q 46.1875 37.015625 41.984375 42.703125 
Q 37.796875 48.390625 30.609375 48.390625 
z
M 30.609375 56 
Q 42.328125 56 49.015625 48.375 
Q 55.71875 40.765625 55.71875 27.296875 
Q 55.71875 13.875 49.015625 6.21875 
Q 42.328125 -1.421875 30.609375 -1.421875 
Q 18.84375 -1.421875 12.171875 6.21875 
Q 5.515625 13.875 5.515625 27.296875 
Q 5.515625 40.765625 12.171875 48.375 
Q 18.84375 56 30.609375 56 
z
" id="DejaVuSans-6f"/>
      <path d="M 45.40625 27.984375 
Q 45.40625 37.75 41.375 43.109375 
Q 37.359375 48.484375 30.078125 48.484375 
Q 22.859375 48.484375 18.828125 43.109375 
Q 14.796875 37.75 14.796875 27.984375 
Q 14.796875 18.265625 18.828125 12.890625 
Q 22.859375 7.515625 30.078125 7.515625 
Q 37.359375 7.515625 41.375 12.890625 
Q 45.40625 18.265625 45.40625 27.984375 
z
M 54.390625 6.78125 
Q 54.390625 -7.171875 48.1875 -13.984375 
Q 42 -20.796875 29.203125 -20.796875 
Q 24.46875 -20.796875 20.265625 -20.09375 
Q 16.0625 -19.390625 12.109375 -17.921875 
L 12.109375 -9.1875 
Q 16.0625 -11.328125 19.921875 -12.34375 
Q 23.78125 -13.375 27.78125 -13.375 
Q 36.625 -13.375 41.015625 -8.765625 
Q 45.40625 -4.15625 45.40625 5.171875 
L 45.40625 9.625 
Q 42.625 4.78125 38.28125 2.390625 
Q 33.9375 0 27.875 0 
Q 17.828125 0 11.671875 7.65625 
Q 5.515625 15.328125 5.515625 27.984375 
Q 5.515625 40.671875 11.671875 48.328125 
Q 17.828125 56 27.875 56 
Q 33.9375 56 38.28125 53.609375 
Q 42.625 51.21875 45.40625 46.390625 
L 45.40625 54.6875 
L 54.390625 54.6875 
z
" id="DejaVuSans-67"/>
      <path d="M 12.40625 8.296875 
L 28.515625 8.296875 
L 28.515625 63.921875 
L 10.984375 60.40625 
L 10.984375 69.390625 
L 28.421875 72.90625 
L 38.28125 72.90625 
L 38.28125 8.296875 
L 54.390625 8.296875 
L 54.390625 0 
L 12.40625 0 
z
" id="DejaVuSans-31"/>
      <path id="DejaVuSans-20"/>
      <path d="M 37.109375 75.984375 
L 37.109375 68.5 
L 28.515625 68.5 
Q 23.6875 68.5 21.796875 66.546875 
Q 19.921875 64.59375 19.921875 59.515625 
L 19.921875 54.6875 
L 34.71875 54.6875 
L 34.71875 47.703125 
L 19.921875 47.703125 
L 19.921875 0 
L 10.890625 0 
L 10.890625 47.703125 
L 2.296875 47.703125 
L 2.296875 54.6875 
L 10.890625 54.6875 
L 10.890625 58.5 
Q 10.890625 67.625 15.140625 71.796875 
Q 19.390625 75.984375 28.609375 75.984375 
z
" id="DejaVuSans-66"/>
      <path d="M 19.671875 64.796875 
L 19.671875 8.109375 
L 31.59375 8.109375 
Q 46.6875 8.109375 53.6875 14.9375 
Q 60.6875 21.78125 60.6875 36.53125 
Q 60.6875 51.171875 53.6875 57.984375 
Q 46.6875 64.796875 31.59375 64.796875 
z
M 9.8125 72.90625 
L 30.078125 72.90625 
Q 51.265625 72.90625 61.171875 64.09375 
Q 71.09375 55.28125 71.09375 36.53125 
Q 71.09375 17.671875 61.125 8.828125 
Q 51.171875 0 30.078125 0 
L 9.8125 0 
z
" id="DejaVuSans-44"/>
     </defs>
     <g transform="translate(172.910063 336.833125)scale(0.2 -0.2)">
      <use xlink:href="#DejaVuSans-6c"/>
      <use x="27.783203" xlink:href="#DejaVuSans-6f"/>
      <use x="88.964844" xlink:href="#DejaVuSans-67"/>
      <use x="152.441406" xlink:href="#DejaVuSans-31"/>
      <use x="216.064453" xlink:href="#DejaVuSans-30"/>
      <use x="279.6875" xlink:href="#DejaVuSans-20"/>
      <use x="311.474609" xlink:href="#DejaVuSans-6f"/>
      <use x="372.65625" xlink:href="#DejaVuSans-66"/>
      <use x="407.861328" xlink:href="#DejaVuSans-20"/>
      <use x="439.648438" xlink:href="#DejaVuSans-44"/>
      <use x="516.650391" xlink:href="#DejaVuSans-66"/>
     </g>
    </g>
   </g>
   <g id="matplotlib.axis_2">
    <g id="ytick_1">
     <g id="line2d_11">
      <path clip-path="url(#p895cb5dd79)" d="M 5.52 291.28 
L 450.672 291.28 
" style="fill:none;stroke:#b0b0b0;stroke-linecap:square;stroke-width:0.8;"/>
     </g>
     <g id="line2d_12">
      <defs>
       <path d="M 0 0 
L -3.5 0 
" id="meb1fa40bba" style="stroke:#000000;stroke-width:0.8;"/>
      </defs>
      <g>
       <use style="stroke:#000000;stroke-width:0.8;" x="5.52" xlink:href="#meb1fa40bba" y="291.28"/>
      </g>
     </g>
    </g>
    <g id="ytick_2">
     <g id="line2d_13">
      <path clip-path="url(#p895cb5dd79)" d="M 5.52 234.693861 
L 450.672 234.693861 
" style="fill:none;stroke:#b0b0b0;stroke-linecap:square;stroke-width:0.8;"/>
     </g>
     <g id="line2d_14">
      <g>
       <use style="stroke:#000000;stroke-width:0.8;" x="5.52" xlink:href="#meb1fa40bba" y="234.693861"/>
      </g>
     </g>
    </g>
    <g id="ytick_3">
     <g id="line2d_15">
      <path clip-path="url(#p895cb5dd79)" d="M 5.52 178.107723 
L 450.672 178.107723 
" style="fill:none;stroke:#b0b0b0;stroke-linecap:square;stroke-width:0.8;"/>
     </g>
     <g id="line2d_16">
      <g>
       <use style="stroke:#000000;stroke-width:0.8;" x="5.52" xlink:href="#meb1fa40bba" y="178.107723"/>
      </g>
     </g>
    </g>
    <g id="ytick_4">
     <g id="line2d_17">
      <path clip-path="url(#p895cb5dd79)" d="M 5.52 121.521584 
L 450.672 121.521584 
" style="fill:none;stroke:#b0b0b0;stroke-linecap:square;stroke-width:0.8;"/>
     </g>
     <g id="line2d_18">
      <g>
       <use style="stroke:#000000;stroke-width:0.8;" x="5.52" xlink:href="#meb1fa40bba" y="121.521584"/>
      </g>
     </g>
    </g>
    <g id="ytick_5">
     <g id="line2d_19">
      <path clip-path="url(#p895cb5dd79)" d="M 5.52 64.935446 
L 450.672 64.935446 
" style="fill:none;stroke:#b0b0b0;stroke-linecap:square;stroke-width:0.8;"/>
     </g>
     <g id="line2d_20">
      <g>
       <use style="stroke:#000000;stroke-width:0.8;" x="5.52" xlink:href="#meb1fa40bba" y="64.935446"/>
      </g>
     </g>
    </g>
    <g id="ytick_6">
     <g id="line2d_21">
      <path clip-path="url(#p895cb5dd79)" d="M 5.52 8.349307 
L 450.672 8.349307 
" style="fill:none;stroke:#b0b0b0;stroke-linecap:square;stroke-width:0.8;"/>
     </g>
     <g id="line2d_22">
      <g>
       <use style="stroke:#000000;stroke-width:0.8;" x="5.52" xlink:href="#meb1fa40bba" y="8.349307"/>
      </g>
     </g>
    </g>
   </g>
   <g id="line2d_23">
    <path clip-path="url(#p895cb5dd79)" d="M 224.358263 291.28 
L 224.374122 283.735182 
L 224.834517 283.735182 
L 224.834517 279.962772 
L 226.623343 279.962772 
L 226.623343 276.190363 
L 226.825732 276.190363 
L 226.825732 272.417954 
L 228.650007 272.417954 
L 228.650007 268.645545 
L 228.813193 268.645545 
L 228.813193 264.873135 
L 229.888684 264.873135 
L 229.888684 261.100726 
L 232.621061 261.100726 
L 232.621061 257.328317 
L 233.116882 257.328317 
L 233.116882 253.555908 
L 235.663005 253.555908 
L 235.663005 249.783498 
L 236.78328 249.783498 
L 236.78328 246.011089 
L 237.442172 246.011089 
L 237.442172 242.23868 
L 238.168739 242.23868 
L 238.168739 238.466271 
L 239.771701 238.466271 
L 239.771701 234.693861 
L 241.585452 234.693861 
L 241.585452 230.921452 
L 241.828972 230.921452 
L 241.828972 227.149043 
L 242.77632 227.149043 
L 242.77632 223.376634 
L 243.705514 223.376634 
L 243.705514 219.604224 
L 246.029803 219.604224 
L 246.029803 215.831815 
L 246.726838 215.831815 
L 246.726838 212.059406 
L 247.204071 212.059406 
L 247.204071 208.286997 
L 248.8385 208.286997 
L 248.8385 204.514587 
L 249.189784 204.514587 
L 249.189784 200.742178 
L 253.507522 200.742178 
L 253.507522 196.969769 
L 255.068127 196.969769 
L 255.068127 193.19736 
L 255.18288 193.19736 
L 255.18288 189.42495 
L 255.295434 189.42495 
L 255.295434 185.652541 
L 255.718522 185.652541 
L 255.718522 181.880132 
L 256.022473 181.880132 
L 256.022473 178.107723 
L 256.209292 178.107723 
L 256.209292 174.335314 
L 256.717656 174.335314 
L 256.788475 163.018086 
L 257.078844 163.018086 
L 257.078844 159.245677 
L 257.331686 159.245677 
L 257.331686 155.473267 
L 257.638456 155.473267 
L 257.693947 144.15604 
L 258.114535 144.15604 
L 258.114535 140.38363 
L 258.291866 140.38363 
L 258.398225 125.293993 
L 258.459865 125.293993 
L 258.544716 113.976766 
L 258.73998 113.976766 
L 258.803288 106.431947 
L 258.917345 106.431947 
L 258.917345 102.659538 
L 260.297422 102.659538 
L 260.297422 98.887129 
L 261.12925 98.887129 
L 261.12925 95.114719 
L 266.482702 95.114719 
L 266.53719 87.569901 
L 266.597938 87.569901 
L 266.597938 83.797492 
L 267.092172 83.797492 
L 267.100594 72.480264 
L 267.272356 72.480264 
L 267.325265 64.935446 
L 267.493843 64.935446 
L 267.493843 61.163036 
L 267.819302 61.163036 
L 267.82398 53.618218 
L 268.204371 53.618218 
L 268.204371 49.845809 
L 268.653659 49.845809 
L 268.718811 42.30099 
L 268.842818 42.30099 
L 268.842818 38.528581 
L 273.907766 38.528581 
L 273.907766 34.756172 
L 275.450649 34.756172 
L 275.450649 30.983762 
L 278.697754 30.983762 
L 278.779789 23.438944 
L 284.877926 23.438944 
L 284.877926 19.666535 
L 288.27124 19.666535 
L 288.27124 15.894125 
L 294.584968 15.894125 
L 294.650181 8.349307 
L 294.650181 8.349307 
L 450.672 8.349307 
L 450.672 8.349307 
" style="fill:none;stroke:#ff0000;stroke-linecap:square;stroke-width:3;"/>
   </g>
   <g id="line2d_24">
    <path clip-path="url(#p895cb5dd79)" d="M 236.085165 291.28 
L 236.085165 287.507591 
L 236.496046 287.507591 
L 236.496046 283.735182 
L 237.581958 283.735182 
L 237.581958 279.962772 
L 238.335884 279.962772 
L 238.335884 276.190363 
L 239.007081 276.190363 
L 239.007081 272.417954 
L 240.676094 272.417954 
L 240.676094 268.645545 
L 240.848099 268.645545 
L 240.848099 264.873135 
L 241.336265 264.873135 
L 241.336265 261.100726 
L 241.874997 261.100726 
L 241.874997 257.328317 
L 243.223653 257.328317 
L 243.223653 253.555908 
L 243.471514 253.555908 
L 243.471514 249.783498 
L 244.578878 249.783498 
L 244.578878 246.011089 
L 245.653124 246.011089 
L 245.653124 242.23868 
L 247.790075 242.23868 
L 247.790075 238.466271 
L 248.425589 238.466271 
L 248.425589 234.693861 
L 258.352878 234.693861 
L 258.423439 227.149043 
L 259.052211 227.149043 
L 259.127948 215.831815 
L 259.43039 215.831815 
L 259.43039 212.059406 
L 259.569499 212.059406 
L 259.671383 200.742178 
L 259.728598 200.742178 
L 259.728598 196.969769 
L 259.891456 196.969769 
L 259.891456 193.19736 
L 260.004676 193.19736 
L 260.107665 174.335314 
L 260.126284 174.335314 
L 260.173863 159.245677 
L 260.239897 159.245677 
L 260.322078 144.15604 
L 260.458193 144.15604 
L 260.471037 132.838812 
L 260.578784 132.838812 
L 260.634334 125.293993 
L 260.736977 125.293993 
L 260.736977 121.521584 
L 273.490002 121.521584 
L 273.575143 113.976766 
L 274.687459 113.976766 
L 274.687459 110.204356 
L 275.130965 110.204356 
L 275.130965 106.431947 
L 275.312322 106.431947 
L 275.312322 102.659538 
L 275.474867 102.659538 
L 275.474867 98.887129 
L 275.797235 98.887129 
L 275.797235 95.114719 
L 276.114211 95.114719 
L 276.168834 87.569901 
L 276.307022 87.569901 
L 276.370768 80.025083 
L 276.50613 80.025083 
L 276.50613 76.252673 
L 276.640703 76.252673 
L 276.640703 72.480264 
L 277.510884 72.480264 
L 277.510884 68.707855 
L 277.978897 68.707855 
L 277.978897 64.935446 
L 320.761861 64.935446 
L 320.761861 8.349307 
L 320.761861 8.349307 
L 450.672 8.349307 
L 450.672 8.349307 
" style="fill:none;stroke:#00bfbf;stroke-linecap:square;stroke-width:1.5;"/>
   </g>
   <g id="line2d_25">
    <path clip-path="url(#p895cb5dd79)" d="M 236.085165 291.28 
L 236.085165 287.507591 
L 236.41095 287.507591 
L 236.41095 283.735182 
L 237.581958 283.735182 
L 237.581958 279.962772 
L 238.292666 279.962772 
L 238.292666 276.190363 
L 238.993448 276.190363 
L 238.993448 272.417954 
L 240.626473 272.417954 
L 240.626473 268.645545 
L 240.848099 268.645545 
L 240.848099 264.873135 
L 241.314105 264.873135 
L 241.314105 261.100726 
L 241.857308 261.100726 
L 241.857308 257.328317 
L 243.087117 257.328317 
L 243.087117 253.555908 
L 243.465736 253.555908 
L 243.465736 249.783498 
L 244.547514 249.783498 
L 244.547514 246.011089 
L 245.621026 246.011089 
L 245.621026 242.23868 
L 247.790075 242.23868 
L 247.790075 238.466271 
L 248.399149 238.466271 
L 248.399149 234.693861 
L 258.352802 234.693861 
L 258.423402 227.149043 
L 259.052188 227.149043 
L 259.127907 215.831815 
L 259.43038 215.831815 
L 259.43038 212.059406 
L 259.569475 212.059406 
L 259.671348 200.742178 
L 259.728587 200.742178 
L 259.728587 196.969769 
L 259.891456 196.969769 
L 259.891456 193.19736 
L 260.004664 193.19736 
L 260.107649 174.335314 
L 260.126229 174.335314 
L 260.173838 159.245677 
L 260.239897 159.245677 
L 260.322063 144.15604 
L 260.458178 144.15604 
L 260.471022 132.838812 
L 260.57874 132.838812 
L 260.634323 125.293993 
L 260.736973 125.293993 
L 260.736973 121.521584 
L 273.487672 121.521584 
L 273.573483 113.976766 
L 274.687459 113.976766 
L 274.687459 110.204356 
L 275.130965 110.204356 
L 275.130965 106.431947 
L 275.3101 106.431947 
L 275.3101 102.659538 
L 275.473688 102.659538 
L 275.473688 98.887129 
L 275.795637 98.887129 
L 275.795637 95.114719 
L 276.111143 95.114719 
L 276.15899 87.569901 
L 276.301604 87.569901 
L 276.370768 80.025083 
L 276.501738 80.025083 
L 276.501738 76.252673 
L 276.637854 76.252673 
L 276.637854 72.480264 
L 277.509309 72.480264 
L 277.509309 68.707855 
L 277.977633 68.707855 
L 277.977633 64.935446 
L 320.759852 64.935446 
L 320.760658 8.349307 
L 320.760658 8.349307 
L 450.672 8.349307 
L 450.672 8.349307 
" style="fill:none;stroke:#bf00bf;stroke-linecap:square;stroke-width:1.5;"/>
   </g>
   <g id="line2d_26">
    <path clip-path="url(#p895cb5dd79)" d="M 235.774639 291.28 
L 235.774639 287.507591 
L 236.002705 287.507591 
L 236.002705 283.735182 
L 237.028473 283.735182 
L 237.028473 279.962772 
L 237.996981 279.962772 
L 237.996981 276.190363 
L 238.664377 276.190363 
L 238.664377 272.417954 
L 240.255187 272.417954 
L 240.255187 268.645545 
L 240.650866 268.645545 
L 240.650866 264.873135 
L 240.91184 264.873135 
L 240.91184 261.100726 
L 241.310164 261.100726 
L 241.310164 257.328317 
L 242.375359 257.328317 
L 242.375359 253.555908 
L 243.202746 253.555908 
L 243.202746 249.783498 
L 244.290797 249.783498 
L 244.290797 246.011089 
L 245.311064 246.011089 
L 245.311064 242.23868 
L 247.631877 242.23868 
L 247.631877 238.466271 
L 248.230464 238.466271 
L 248.230464 234.693861 
L 258.352057 234.693861 
L 258.422762 227.149043 
L 259.051823 227.149043 
L 259.127552 215.831815 
L 259.430061 215.831815 
L 259.430061 212.059406 
L 259.56903 212.059406 
L 259.671076 200.742178 
L 259.728294 200.742178 
L 259.728294 196.969769 
L 259.891194 196.969769 
L 259.891194 193.19736 
L 260.004348 193.19736 
L 260.10738 174.335314 
L 260.125979 174.335314 
L 260.17357 159.245677 
L 260.239592 159.245677 
L 260.321964 144.15604 
L 260.458053 144.15604 
L 260.470874 132.838812 
L 260.578647 132.838812 
L 260.634261 125.293993 
L 260.736907 125.293993 
L 260.736907 121.521584 
L 273.463783 121.521584 
L 273.53059 113.976766 
L 274.6653 113.976766 
L 274.6653 110.204356 
L 275.087037 110.204356 
L 275.087037 106.431947 
L 275.285792 106.431947 
L 275.285792 102.659538 
L 275.442967 102.659538 
L 275.442967 98.887129 
L 275.7578 98.887129 
L 275.7578 95.114719 
L 276.080635 95.114719 
L 276.133758 87.569901 
L 276.276724 87.569901 
L 276.336844 80.025083 
L 276.473412 80.025083 
L 276.473412 76.252673 
L 276.589785 76.252673 
L 276.589785 72.480264 
L 277.485462 72.480264 
L 277.485462 68.707855 
L 277.953456 68.707855 
L 277.953456 64.935446 
L 320.754538 64.935446 
L 320.757125 8.349307 
L 320.757125 8.349307 
L 450.672 8.349307 
L 450.672 8.349307 
" style="fill:none;stroke:#000000;stroke-linecap:square;stroke-width:1.5;"/>
   </g>
   <g id="line2d_27">
    <path clip-path="url(#p895cb5dd79)" d="M 230.962411 291.28 
L 230.962411 287.507591 
L 231.768906 287.507591 
L 231.768906 283.735182 
L 235.559823 283.735182 
L 235.559823 279.962772 
L 236.366966 279.962772 
L 236.366966 276.190363 
L 237.106754 276.190363 
L 237.106754 272.417954 
L 237.630387 272.417954 
L 237.630387 268.645545 
L 238.009782 268.645545 
L 238.009782 264.873135 
L 238.455763 264.873135 
L 238.455763 261.100726 
L 238.657895 261.100726 
L 238.657895 257.328317 
L 239.502821 257.328317 
L 239.502821 253.555908 
L 241.952711 253.555908 
L 241.952711 249.783498 
L 242.371137 249.783498 
L 242.371137 246.011089 
L 243.104345 246.011089 
L 243.104345 242.23868 
L 244.120816 242.23868 
L 244.120816 238.466271 
L 247.258351 238.466271 
L 247.258351 234.693861 
L 258.337932 234.693861 
L 258.410357 227.149043 
L 259.043808 227.149043 
L 259.120578 215.831815 
L 259.423735 215.831815 
L 259.423735 212.059406 
L 259.559407 212.059406 
L 259.664514 200.742178 
L 259.722334 200.742178 
L 259.722334 196.969769 
L 259.88572 196.969769 
L 259.88572 193.19736 
L 259.998009 193.19736 
L 260.101699 174.335314 
L 260.120501 174.335314 
L 260.168309 159.245677 
L 260.232327 159.245677 
L 260.318864 144.15604 
L 260.455409 144.15604 
L 260.467822 132.838812 
L 260.574808 132.838812 
L 260.63298 125.293993 
L 260.735426 125.293993 
L 260.735426 121.521584 
L 272.640969 121.521584 
L 272.640969 117.749175 
L 272.912106 117.749175 
L 272.912106 113.976766 
L 274.022708 113.976766 
L 274.022708 110.204356 
L 274.195239 110.204356 
L 274.195239 106.431947 
L 274.815185 106.431947 
L 274.842829 98.887129 
L 274.948987 98.887129 
L 274.948987 95.114719 
L 275.394702 95.114719 
L 275.459569 87.569901 
L 275.576814 87.569901 
L 275.66858 72.480264 
L 277.042082 72.480264 
L 277.042082 68.707855 
L 277.347638 68.707855 
L 277.347638 64.935446 
L 320.609475 64.935446 
L 320.658767 8.349307 
L 320.658767 8.349307 
L 450.672 8.349307 
L 450.672 8.349307 
" style="fill:none;stroke:#00bfbf;stroke-linecap:square;stroke-width:1.5;"/>
   </g>
   <g id="line2d_28">
    <path clip-path="url(#p895cb5dd79)" d="M 224.772772 291.28 
L 224.772772 287.507591 
L 226.623343 287.507591 
L 226.623343 283.735182 
L 228.650007 283.735182 
L 228.650007 279.962772 
L 228.813193 279.962772 
L 228.813193 276.190363 
L 229.888684 276.190363 
L 229.888684 272.417954 
L 232.621061 272.417954 
L 232.621061 268.645545 
L 233.116882 268.645545 
L 233.116882 264.873135 
L 235.663005 264.873135 
L 235.663005 261.100726 
L 236.78328 261.100726 
L 236.849034 253.555908 
L 237.442172 253.555908 
L 237.442172 249.783498 
L 238.168739 249.783498 
L 238.168739 246.011089 
L 239.771701 246.011089 
L 239.771701 242.23868 
L 241.585452 242.23868 
L 241.585452 238.466271 
L 241.828972 238.466271 
L 241.828972 234.693861 
L 242.77632 234.693861 
L 242.77632 230.921452 
L 246.384835 230.921452 
L 246.384835 227.149043 
L 247.204071 227.149043 
L 247.204071 223.376634 
L 250.370965 223.376634 
L 250.370965 219.604224 
L 250.664982 219.604224 
L 250.664982 215.831815 
L 255.861257 215.831815 
L 255.861257 212.059406 
L 256.257844 212.059406 
L 256.257844 208.286997 
L 256.884767 208.286997 
L 256.884767 204.514587 
L 257.228299 204.514587 
L 257.228299 200.742178 
L 257.366469 200.742178 
L 257.366469 196.969769 
L 257.615411 196.969769 
L 257.718732 181.880132 
L 257.820054 181.880132 
L 257.929314 174.335314 
L 258.134496 174.335314 
L 258.134496 170.562904 
L 258.307123 170.562904 
L 258.396145 159.245677 
L 258.590308 159.245677 
L 258.690788 151.700858 
L 258.724453 151.700858 
L 258.754357 140.38363 
L 258.932936 140.38363 
L 259.004348 129.066403 
L 259.070894 129.066403 
L 259.09557 121.521584 
L 259.193595 121.521584 
L 259.193595 117.749175 
L 260.336866 117.749175 
L 260.336866 113.976766 
L 265.842972 113.976766 
L 265.842972 110.204356 
L 267.172753 110.204356 
L 267.267368 102.659538 
L 268.033651 102.659538 
L 268.033651 98.887129 
L 268.296303 98.887129 
L 268.340571 87.569901 
L 268.447837 87.569901 
L 268.557738 80.025083 
L 268.584354 80.025083 
L 268.689493 72.480264 
L 268.750085 72.480264 
L 268.750085 68.707855 
L 268.896346 68.707855 
L 268.896346 64.935446 
L 269.067012 64.935446 
L 269.067012 61.163036 
L 269.663153 61.163036 
L 269.663153 57.390627 
L 270.231311 57.390627 
L 270.231311 53.618218 
L 277.486916 53.618218 
L 277.486916 49.845809 
L 279.417755 49.845809 
L 279.417755 46.073399 
L 282.656625 46.073399 
L 282.656625 42.30099 
L 287.802754 42.30099 
L 287.802754 38.528581 
L 289.649488 38.528581 
L 289.649488 34.756172 
L 289.959639 34.756172 
L 289.959639 30.983762 
L 292.388261 30.983762 
L 292.388261 27.211353 
L 294.738331 27.211353 
L 294.738331 23.438944 
L 295.918973 23.438944 
L 295.918973 19.666535 
L 298.951336 19.666535 
L 298.951336 15.894125 
L 300.856715 15.894125 
L 300.856715 12.121716 
L 304.04113 12.121716 
L 304.04113 8.349307 
L 304.04113 8.349307 
L 450.672 8.349307 
L 450.672 8.349307 
" style="fill:none;stroke:#bf00bf;stroke-linecap:square;stroke-width:1.5;"/>
   </g>
   <g id="patch_3">
    <path d="M 5.52 291.28 
L 5.52 5.52 
" style="fill:none;stroke:#000000;stroke-linecap:square;stroke-linejoin:miter;stroke-width:0.8;"/>
   </g>
   <g id="patch_4">
    <path d="M 450.672 291.28 
L 450.672 5.52 
" style="fill:none;stroke:#000000;stroke-linecap:square;stroke-linejoin:miter;stroke-width:0.8;"/>
   </g>
   <g id="patch_5">
    <path d="M 5.52 291.28 
L 450.672 291.28 
" style="fill:none;stroke:#000000;stroke-linecap:square;stroke-linejoin:miter;stroke-width:0.8;"/>
   </g>
   <g id="patch_6">
    <path d="M 5.52 5.52 
L 450.672 5.52 
" style="fill:none;stroke:#000000;stroke-linecap:square;stroke-linejoin:miter;stroke-width:0.8;"/>
   </g>
   <g id="text_6">
    <!-- {f20-f24}, 20-D -->
    <defs>
     <path d="M 51.125 -9.28125 
L 51.125 -16.3125 
L 48.09375 -16.3125 
Q 35.9375 -16.3125 31.8125 -12.6875 
Q 27.6875 -9.078125 27.6875 1.703125 
L 27.6875 13.375 
Q 27.6875 20.75 25.046875 23.578125 
Q 22.40625 26.421875 15.484375 26.421875 
L 12.5 26.421875 
L 12.5 33.40625 
L 15.484375 33.40625 
Q 22.46875 33.40625 25.078125 36.203125 
Q 27.6875 39.015625 27.6875 46.296875 
L 27.6875 58.015625 
Q 27.6875 68.796875 31.8125 72.390625 
Q 35.9375 75.984375 48.09375 75.984375 
L 51.125 75.984375 
L 51.125 69 
L 47.796875 69 
Q 40.921875 69 38.8125 66.84375 
Q 36.71875 64.703125 36.71875 57.8125 
L 36.71875 45.703125 
Q 36.71875 38.03125 34.5 34.5625 
Q 32.28125 31.109375 26.90625 29.890625 
Q 32.328125 28.5625 34.515625 25.09375 
Q 36.71875 21.625 36.71875 14.015625 
L 36.71875 1.90625 
Q 36.71875 -4.984375 38.8125 -7.125 
Q 40.921875 -9.28125 47.796875 -9.28125 
z
" id="DejaVuSans-7b"/>
     <path d="M 19.1875 8.296875 
L 53.609375 8.296875 
L 53.609375 0 
L 7.328125 0 
L 7.328125 8.296875 
Q 12.9375 14.109375 22.625 23.890625 
Q 32.328125 33.6875 34.8125 36.53125 
Q 39.546875 41.84375 41.421875 45.53125 
Q 43.3125 49.21875 43.3125 52.78125 
Q 43.3125 58.59375 39.234375 62.25 
Q 35.15625 65.921875 28.609375 65.921875 
Q 23.96875 65.921875 18.8125 64.3125 
Q 13.671875 62.703125 7.8125 59.421875 
L 7.8125 69.390625 
Q 13.765625 71.78125 18.9375 73 
Q 24.125 74.21875 28.421875 74.21875 
Q 39.75 74.21875 46.484375 68.546875 
Q 53.21875 62.890625 53.21875 53.421875 
Q 53.21875 48.921875 51.53125 44.890625 
Q 49.859375 40.875 45.40625 35.40625 
Q 44.1875 33.984375 37.640625 27.21875 
Q 31.109375 20.453125 19.1875 8.296875 
z
" id="DejaVuSans-32"/>
     <path d="M 12.5 -9.28125 
L 15.921875 -9.28125 
Q 22.75 -9.28125 24.828125 -7.171875 
Q 26.90625 -5.078125 26.90625 1.90625 
L 26.90625 14.015625 
Q 26.90625 21.625 29.09375 25.09375 
Q 31.296875 28.5625 36.71875 29.890625 
Q 31.296875 31.109375 29.09375 34.5625 
Q 26.90625 38.03125 26.90625 45.703125 
L 26.90625 57.8125 
Q 26.90625 64.75 24.828125 66.875 
Q 22.75 69 15.921875 69 
L 12.5 69 
L 12.5 75.984375 
L 15.578125 75.984375 
Q 27.734375 75.984375 31.8125 72.390625 
Q 35.890625 68.796875 35.890625 58.015625 
L 35.890625 46.296875 
Q 35.890625 39.015625 38.515625 36.203125 
Q 41.15625 33.40625 48.09375 33.40625 
L 51.125 33.40625 
L 51.125 26.421875 
L 48.09375 26.421875 
Q 41.15625 26.421875 38.515625 23.578125 
Q 35.890625 20.75 35.890625 13.375 
L 35.890625 1.703125 
Q 35.890625 -9.078125 31.8125 -12.6875 
Q 27.734375 -16.3125 15.578125 -16.3125 
L 12.5 -16.3125 
z
" id="DejaVuSans-7d"/>
     <path d="M 11.71875 12.40625 
L 22.015625 12.40625 
L 22.015625 4 
L 14.015625 -11.625 
L 7.71875 -11.625 
L 11.71875 4 
z
" id="DejaVuSans-2c"/>
    </defs>
    <g transform="translate(283.34396 285.5648)scale(0.2 -0.2)">
     <use xlink:href="#DejaVuSans-7b"/>
     <use x="63.623047" xlink:href="#DejaVuSans-66"/>
     <use x="98.828125" xlink:href="#DejaVuSans-32"/>
     <use x="162.451172" xlink:href="#DejaVuSans-30"/>
     <use x="226.074219" xlink:href="#DejaVuSans-2d"/>
     <use x="262.158203" xlink:href="#DejaVuSans-66"/>
     <use x="297.363281" xlink:href="#DejaVuSans-32"/>
     <use x="360.986328" xlink:href="#DejaVuSans-34"/>
     <use x="424.609375" xlink:href="#DejaVuSans-7d"/>
     <use x="488.232422" xlink:href="#DejaVuSans-2c"/>
     <use x="520.019531" xlink:href="#DejaVuSans-20"/>
     <use x="551.806641" xlink:href="#DejaVuSans-32"/>
     <use x="615.429688" xlink:href="#DejaVuSans-30"/>
     <use x="679.052734" xlink:href="#DejaVuSans-2d"/>
     <use x="715.136719" xlink:href="#DejaVuSans-44"/>
    </g>
   </g>
   <g id="text_7">
    <!-- v2.2.1.10 -->
    <defs>
     <path d="M 2.984375 54.6875 
L 12.5 54.6875 
L 29.59375 8.796875 
L 46.6875 54.6875 
L 56.203125 54.6875 
L 35.6875 0 
L 23.484375 0 
z
" id="DejaVuSans-76"/>
     <path d="M 10.6875 12.40625 
L 21 12.40625 
L 21 0 
L 10.6875 0 
z
" id="DejaVuSans-2e"/>
    </defs>
    <g style="fill:#808080;" transform="translate(204.463188 286.342713)scale(0.1 -0.1)">
     <use xlink:href="#DejaVuSans-76"/>
     <use x="59.179688" xlink:href="#DejaVuSans-32"/>
     <use x="122.802734" xlink:href="#DejaVuSans-2e"/>
     <use x="154.589844" xlink:href="#DejaVuSans-32"/>
     <use x="218.212891" xlink:href="#DejaVuSans-2e"/>
     <use x="250" xlink:href="#DejaVuSans-31"/>
     <use x="313.623047" xlink:href="#DejaVuSans-2e"/>
     <use x="345.410156" xlink:href="#DejaVuSans-31"/>
     <use x="409.033203" xlink:href="#DejaVuSans-30"/>
    </g>
   </g>
  </g>
 </g>
 <defs>
  <clipPath id="p895cb5dd79">
   <rect height="285.76" width="445.152" x="5.52" y="5.52"/>
  </clipPath>
 </defs>
</svg>
