<?xml version="1.0" encoding="utf-8" standalone="no"?>
<!DOCTYPE svg PUBLIC "-//W3C//DTD SVG 1.1//EN"
  "http://www.w3.org/Graphics/SVG/1.1/DTD/svg11.dtd">
<!-- Created with matplotlib (http://matplotlib.org/) -->
<svg height="345.6pt" version="1.1" viewBox="0 0 460.8 345.6" width="460.8pt" xmlns="http://www.w3.org/2000/svg" xmlns:xlink="http://www.w3.org/1999/xlink">
 <defs>
  <style type="text/css">
*{stroke-linecap:butt;stroke-linejoin:round;}
  </style>
 </defs>
 <g id="figure_1">
  <g id="patch_1">
   <path d="M 0 345.6 
L 460.8 345.6 
L 460.8 0 
L 0 0 
z
" style="fill:#ffffff;"/>
  </g>
  <g id="axes_1">
   <g id="patch_2">
    <path d="M 5.52 291.28 
L 450.672 291.28 
L 450.672 5.52 
L 5.52 5.52 
z
" style="fill:#ffffff;"/>
   </g>
   <g id="matplotlib.axis_1">
    <g id="xtick_1">
     <g id="line2d_1">
      <path clip-path="url(#pa0056ff711)" d="M 5.409114 291.28 
L 5.409114 5.52 
" style="fill:none;stroke:#b0b0b0;stroke-linecap:square;stroke-width:0.8;"/>
     </g>
     <g id="line2d_2">
      <defs>
       <path d="M 0 0 
L 0 3.5 
" id="m78fafca1ed" style="stroke:#000000;stroke-width:0.8;"/>
      </defs>
      <g>
       <use style="stroke:#000000;stroke-width:0.8;" x="5.409114" xlink:href="#m78fafca1ed" y="291.28"/>
      </g>
     </g>
    </g>
    <g id="xtick_2">
     <g id="line2d_3">
      <path clip-path="url(#pa0056ff711)" d="M 108.048937 291.28 
L 108.048937 5.52 
" style="fill:none;stroke:#b0b0b0;stroke-linecap:square;stroke-width:0.8;"/>
     </g>
     <g id="line2d_4">
      <g>
       <use style="stroke:#000000;stroke-width:0.8;" x="108.048937" xlink:href="#m78fafca1ed" y="291.28"/>
      </g>
     </g>
     <g id="text_1">
      <!-- -4 -->
      <defs>
       <path d="M 4.890625 31.390625 
L 31.203125 31.390625 
L 31.203125 23.390625 
L 4.890625 23.390625 
z
" id="DejaVuSans-2d"/>
       <path d="M 37.796875 64.3125 
L 12.890625 25.390625 
L 37.796875 25.390625 
z
M 35.203125 72.90625 
L 47.609375 72.90625 
L 47.609375 25.390625 
L 58.015625 25.390625 
L 58.015625 17.1875 
L 47.609375 17.1875 
L 47.609375 0 
L 37.796875 0 
L 37.796875 17.1875 
L 4.890625 17.1875 
L 4.890625 26.703125 
z
" id="DejaVuSans-34"/>
      </defs>
      <g transform="translate(98.078625 313.476875)scale(0.2 -0.2)">
       <use xlink:href="#DejaVuSans-2d"/>
       <use x="36.083984" xlink:href="#DejaVuSans-34"/>
      </g>
     </g>
    </g>
    <g id="xtick_3">
     <g id="line2d_5">
      <path clip-path="url(#pa0056ff711)" d="M 210.688761 291.28 
L 210.688761 5.52 
" style="fill:none;stroke:#b0b0b0;stroke-linecap:square;stroke-width:0.8;"/>
     </g>
     <g id="line2d_6">
      <g>
       <use style="stroke:#000000;stroke-width:0.8;" x="210.688761" xlink:href="#m78fafca1ed" y="291.28"/>
      </g>
     </g>
     <g id="text_2">
      <!-- 0 -->
      <defs>
       <path d="M 31.78125 66.40625 
Q 24.171875 66.40625 20.328125 58.90625 
Q 16.5 51.421875 16.5 36.375 
Q 16.5 21.390625 20.328125 13.890625 
Q 24.171875 6.390625 31.78125 6.390625 
Q 39.453125 6.390625 43.28125 13.890625 
Q 47.125 21.390625 47.125 36.375 
Q 47.125 51.421875 43.28125 58.90625 
Q 39.453125 66.40625 31.78125 66.40625 
z
M 31.78125 74.21875 
Q 44.046875 74.21875 50.515625 64.515625 
Q 56.984375 54.828125 56.984375 36.375 
Q 56.984375 17.96875 50.515625 8.265625 
Q 44.046875 -1.421875 31.78125 -1.421875 
Q 19.53125 -1.421875 13.0625 8.265625 
Q 6.59375 17.96875 6.59375 36.375 
Q 6.59375 54.828125 13.0625 64.515625 
Q 19.53125 74.21875 31.78125 74.21875 
z
" id="DejaVuSans-30"/>
      </defs>
      <g transform="translate(204.326261 313.476875)scale(0.2 -0.2)">
       <use xlink:href="#DejaVuSans-30"/>
      </g>
     </g>
    </g>
    <g id="xtick_4">
     <g id="line2d_7">
      <path clip-path="url(#pa0056ff711)" d="M 313.328584 291.28 
L 313.328584 5.52 
" style="fill:none;stroke:#b0b0b0;stroke-linecap:square;stroke-width:0.8;"/>
     </g>
     <g id="line2d_8">
      <g>
       <use style="stroke:#000000;stroke-width:0.8;" x="313.328584" xlink:href="#m78fafca1ed" y="291.28"/>
      </g>
     </g>
     <g id="text_3">
      <!-- 4 -->
      <g transform="translate(306.966084 313.476875)scale(0.2 -0.2)">
       <use xlink:href="#DejaVuSans-34"/>
      </g>
     </g>
    </g>
    <g id="xtick_5">
     <g id="line2d_9">
      <path clip-path="url(#pa0056ff711)" d="M 415.968408 291.28 
L 415.968408 5.52 
" style="fill:none;stroke:#b0b0b0;stroke-linecap:square;stroke-width:0.8;"/>
     </g>
     <g id="line2d_10">
      <g>
       <use style="stroke:#000000;stroke-width:0.8;" x="415.968408" xlink:href="#m78fafca1ed" y="291.28"/>
      </g>
     </g>
     <g id="text_4">
      <!-- 8 -->
      <defs>
       <path d="M 31.78125 34.625 
Q 24.75 34.625 20.71875 30.859375 
Q 16.703125 27.09375 16.703125 20.515625 
Q 16.703125 13.921875 20.71875 10.15625 
Q 24.75 6.390625 31.78125 6.390625 
Q 38.8125 6.390625 42.859375 10.171875 
Q 46.921875 13.96875 46.921875 20.515625 
Q 46.921875 27.09375 42.890625 30.859375 
Q 38.875 34.625 31.78125 34.625 
z
M 21.921875 38.8125 
Q 15.578125 40.375 12.03125 44.71875 
Q 8.5 49.078125 8.5 55.328125 
Q 8.5 64.0625 14.71875 69.140625 
Q 20.953125 74.21875 31.78125 74.21875 
Q 42.671875 74.21875 48.875 69.140625 
Q 55.078125 64.0625 55.078125 55.328125 
Q 55.078125 49.078125 51.53125 44.71875 
Q 48 40.375 41.703125 38.8125 
Q 48.828125 37.15625 52.796875 32.3125 
Q 56.78125 27.484375 56.78125 20.515625 
Q 56.78125 9.90625 50.3125 4.234375 
Q 43.84375 -1.421875 31.78125 -1.421875 
Q 19.734375 -1.421875 13.25 4.234375 
Q 6.78125 9.90625 6.78125 20.515625 
Q 6.78125 27.484375 10.78125 32.3125 
Q 14.796875 37.15625 21.921875 38.8125 
z
M 18.3125 54.390625 
Q 18.3125 48.734375 21.84375 45.5625 
Q 25.390625 42.390625 31.78125 42.390625 
Q 38.140625 42.390625 41.71875 45.5625 
Q 45.3125 48.734375 45.3125 54.390625 
Q 45.3125 60.0625 41.71875 63.234375 
Q 38.140625 66.40625 31.78125 66.40625 
Q 25.390625 66.40625 21.84375 63.234375 
Q 18.3125 60.0625 18.3125 54.390625 
z
" id="DejaVuSans-38"/>
      </defs>
      <g transform="translate(409.605908 313.476875)scale(0.2 -0.2)">
       <use xlink:href="#DejaVuSans-38"/>
      </g>
     </g>
    </g>
    <g id="text_5">
     <!-- log10 of Df -->
     <defs>
      <path d="M 9.421875 75.984375 
L 18.40625 75.984375 
L 18.40625 0 
L 9.421875 0 
z
" id="DejaVuSans-6c"/>
      <path d="M 30.609375 48.390625 
Q 23.390625 48.390625 19.1875 42.75 
Q 14.984375 37.109375 14.984375 27.296875 
Q 14.984375 17.484375 19.15625 11.84375 
Q 23.34375 6.203125 30.609375 6.203125 
Q 37.796875 6.203125 41.984375 11.859375 
Q 46.1875 17.53125 46.1875 27.296875 
Q 46.1875 37.015625 41.984375 42.703125 
Q 37.796875 48.390625 30.609375 48.390625 
z
M 30.609375 56 
Q 42.328125 56 49.015625 48.375 
Q 55.71875 40.765625 55.71875 27.296875 
Q 55.71875 13.875 49.015625 6.21875 
Q 42.328125 -1.421875 30.609375 -1.421875 
Q 18.84375 -1.421875 12.171875 6.21875 
Q 5.515625 13.875 5.515625 27.296875 
Q 5.515625 40.765625 12.171875 48.375 
Q 18.84375 56 30.609375 56 
z
" id="DejaVuSans-6f"/>
      <path d="M 45.40625 27.984375 
Q 45.40625 37.75 41.375 43.109375 
Q 37.359375 48.484375 30.078125 48.484375 
Q 22.859375 48.484375 18.828125 43.109375 
Q 14.796875 37.75 14.796875 27.984375 
Q 14.796875 18.265625 18.828125 12.890625 
Q 22.859375 7.515625 30.078125 7.515625 
Q 37.359375 7.515625 41.375 12.890625 
Q 45.40625 18.265625 45.40625 27.984375 
z
M 54.390625 6.78125 
Q 54.390625 -7.171875 48.1875 -13.984375 
Q 42 -20.796875 29.203125 -20.796875 
Q 24.46875 -20.796875 20.265625 -20.09375 
Q 16.0625 -19.390625 12.109375 -17.921875 
L 12.109375 -9.1875 
Q 16.0625 -11.328125 19.921875 -12.34375 
Q 23.78125 -13.375 27.78125 -13.375 
Q 36.625 -13.375 41.015625 -8.765625 
Q 45.40625 -4.15625 45.40625 5.171875 
L 45.40625 9.625 
Q 42.625 4.78125 38.28125 2.390625 
Q 33.9375 0 27.875 0 
Q 17.828125 0 11.671875 7.65625 
Q 5.515625 15.328125 5.515625 27.984375 
Q 5.515625 40.671875 11.671875 48.328125 
Q 17.828125 56 27.875 56 
Q 33.9375 56 38.28125 53.609375 
Q 42.625 51.21875 45.40625 46.390625 
L 45.40625 54.6875 
L 54.390625 54.6875 
z
" id="DejaVuSans-67"/>
      <path d="M 12.40625 8.296875 
L 28.515625 8.296875 
L 28.515625 63.921875 
L 10.984375 60.40625 
L 10.984375 69.390625 
L 28.421875 72.90625 
L 38.28125 72.90625 
L 38.28125 8.296875 
L 54.390625 8.296875 
L 54.390625 0 
L 12.40625 0 
z
" id="DejaVuSans-31"/>
      <path id="DejaVuSans-20"/>
      <path d="M 37.109375 75.984375 
L 37.109375 68.5 
L 28.515625 68.5 
Q 23.6875 68.5 21.796875 66.546875 
Q 19.921875 64.59375 19.921875 59.515625 
L 19.921875 54.6875 
L 34.71875 54.6875 
L 34.71875 47.703125 
L 19.921875 47.703125 
L 19.921875 0 
L 10.890625 0 
L 10.890625 47.703125 
L 2.296875 47.703125 
L 2.296875 54.6875 
L 10.890625 54.6875 
L 10.890625 58.5 
Q 10.890625 67.625 15.140625 71.796875 
Q 19.390625 75.984375 28.609375 75.984375 
z
" id="DejaVuSans-66"/>
      <path d="M 19.671875 64.796875 
L 19.671875 8.109375 
L 31.59375 8.109375 
Q 46.6875 8.109375 53.6875 14.9375 
Q 60.6875 21.78125 60.6875 36.53125 
Q 60.6875 51.171875 53.6875 57.984375 
Q 46.6875 64.796875 31.59375 64.796875 
z
M 9.8125 72.90625 
L 30.078125 72.90625 
Q 51.265625 72.90625 61.171875 64.09375 
Q 71.09375 55.28125 71.09375 36.53125 
Q 71.09375 17.671875 61.125 8.828125 
Q 51.171875 0 30.078125 0 
L 9.8125 0 
z
" id="DejaVuSans-44"/>
     </defs>
     <g transform="translate(172.910063 336.833125)scale(0.2 -0.2)">
      <use xlink:href="#DejaVuSans-6c"/>
      <use x="27.783203" xlink:href="#DejaVuSans-6f"/>
      <use x="88.964844" xlink:href="#DejaVuSans-67"/>
      <use x="152.441406" xlink:href="#DejaVuSans-31"/>
      <use x="216.064453" xlink:href="#DejaVuSans-30"/>
      <use x="279.6875" xlink:href="#DejaVuSans-20"/>
      <use x="311.474609" xlink:href="#DejaVuSans-6f"/>
      <use x="372.65625" xlink:href="#DejaVuSans-66"/>
      <use x="407.861328" xlink:href="#DejaVuSans-20"/>
      <use x="439.648438" xlink:href="#DejaVuSans-44"/>
      <use x="516.650391" xlink:href="#DejaVuSans-66"/>
     </g>
    </g>
   </g>
   <g id="matplotlib.axis_2">
    <g id="ytick_1">
     <g id="line2d_11">
      <path clip-path="url(#pa0056ff711)" d="M 5.52 291.28 
L 450.672 291.28 
" style="fill:none;stroke:#b0b0b0;stroke-linecap:square;stroke-width:0.8;"/>
     </g>
     <g id="line2d_12">
      <defs>
       <path d="M 0 0 
L -3.5 0 
" id="mdb1214efb4" style="stroke:#000000;stroke-width:0.8;"/>
      </defs>
      <g>
       <use style="stroke:#000000;stroke-width:0.8;" x="5.52" xlink:href="#mdb1214efb4" y="291.28"/>
      </g>
     </g>
    </g>
    <g id="ytick_2">
     <g id="line2d_13">
      <path clip-path="url(#pa0056ff711)" d="M 5.52 234.693861 
L 450.672 234.693861 
" style="fill:none;stroke:#b0b0b0;stroke-linecap:square;stroke-width:0.8;"/>
     </g>
     <g id="line2d_14">
      <g>
       <use style="stroke:#000000;stroke-width:0.8;" x="5.52" xlink:href="#mdb1214efb4" y="234.693861"/>
      </g>
     </g>
    </g>
    <g id="ytick_3">
     <g id="line2d_15">
      <path clip-path="url(#pa0056ff711)" d="M 5.52 178.107723 
L 450.672 178.107723 
" style="fill:none;stroke:#b0b0b0;stroke-linecap:square;stroke-width:0.8;"/>
     </g>
     <g id="line2d_16">
      <g>
       <use style="stroke:#000000;stroke-width:0.8;" x="5.52" xlink:href="#mdb1214efb4" y="178.107723"/>
      </g>
     </g>
    </g>
    <g id="ytick_4">
     <g id="line2d_17">
      <path clip-path="url(#pa0056ff711)" d="M 5.52 121.521584 
L 450.672 121.521584 
" style="fill:none;stroke:#b0b0b0;stroke-linecap:square;stroke-width:0.8;"/>
     </g>
     <g id="line2d_18">
      <g>
       <use style="stroke:#000000;stroke-width:0.8;" x="5.52" xlink:href="#mdb1214efb4" y="121.521584"/>
      </g>
     </g>
    </g>
    <g id="ytick_5">
     <g id="line2d_19">
      <path clip-path="url(#pa0056ff711)" d="M 5.52 64.935446 
L 450.672 64.935446 
" style="fill:none;stroke:#b0b0b0;stroke-linecap:square;stroke-width:0.8;"/>
     </g>
     <g id="line2d_20">
      <g>
       <use style="stroke:#000000;stroke-width:0.8;" x="5.52" xlink:href="#mdb1214efb4" y="64.935446"/>
      </g>
     </g>
    </g>
    <g id="ytick_6">
     <g id="line2d_21">
      <path clip-path="url(#pa0056ff711)" d="M 5.52 8.349307 
L 450.672 8.349307 
" style="fill:none;stroke:#b0b0b0;stroke-linecap:square;stroke-width:0.8;"/>
     </g>
     <g id="line2d_22">
      <g>
       <use style="stroke:#000000;stroke-width:0.8;" x="5.52" xlink:href="#mdb1214efb4" y="8.349307"/>
      </g>
     </g>
    </g>
   </g>
   <g id="line2d_23">
    <path clip-path="url(#pa0056ff711)" d="M 5.409114 291.28 
L 5.409114 283.735182 
L 59.446592 283.735182 
L 59.446592 279.962772 
L 131.54133 279.962772 
L 131.54133 276.190363 
L 131.92956 276.190363 
L 131.92956 272.417954 
L 164.127537 272.417954 
L 164.127537 268.645545 
L 213.133089 268.645545 
L 213.133089 264.873135 
L 214.555854 264.873135 
L 214.555854 257.328317 
L 217.802875 257.328317 
L 217.802875 253.555908 
L 218.570346 253.555908 
L 218.570346 249.783498 
L 219.68171 249.783498 
L 219.68171 242.23868 
L 220.08754 242.23868 
L 220.150575 234.693861 
L 220.778757 234.693861 
L 220.829911 227.149043 
L 221.332805 227.149043 
L 221.332805 223.376634 
L 222.323524 223.376634 
L 222.323524 219.604224 
L 223.357789 219.604224 
L 223.357789 215.831815 
L 223.641059 215.831815 
L 223.641059 212.059406 
L 224.078695 212.059406 
L 224.078695 204.514587 
L 224.197766 204.514587 
L 224.197766 200.742178 
L 225.294736 200.742178 
L 225.294736 193.19736 
L 226.579433 193.19736 
L 226.579433 189.42495 
L 227.316217 189.42495 
L 227.316217 185.652541 
L 229.325996 185.652541 
L 229.325996 181.880132 
L 232.071765 181.880132 
L 232.12376 174.335314 
L 232.391593 174.335314 
L 232.391711 166.790495 
L 232.798193 166.790495 
L 232.842103 155.473267 
L 234.539882 155.473267 
L 234.539882 151.700858 
L 234.851409 151.700858 
L 234.851409 147.928449 
L 235.717119 147.928449 
L 235.717119 144.15604 
L 236.077515 144.15604 
L 236.077515 140.38363 
L 236.857268 140.38363 
L 236.857268 136.611221 
L 237.542293 136.611221 
L 237.542293 132.838812 
L 238.017805 132.838812 
L 238.017805 129.066403 
L 238.215764 129.066403 
L 238.215764 125.293993 
L 238.638136 125.293993 
L 238.638136 121.521584 
L 242.426105 121.521584 
L 242.426105 117.749175 
L 243.502348 117.749175 
L 243.502348 113.976766 
L 243.706075 113.976766 
L 243.706075 110.204356 
L 244.568153 110.204356 
L 244.568153 106.431947 
L 244.714576 106.431947 
L 244.714602 98.887129 
L 245.479043 98.887129 
L 245.479043 95.114719 
L 246.18141 95.114719 
L 246.18141 91.34231 
L 247.133355 91.34231 
L 247.133355 87.569901 
L 247.310954 87.569901 
L 247.310954 83.797492 
L 248.160158 83.797492 
L 248.160158 80.025083 
L 248.624261 80.025083 
L 248.725759 72.480264 
L 248.740577 72.480264 
L 248.845731 57.390627 
L 248.852596 57.390627 
L 248.962061 38.528581 
L 249.008166 38.528581 
L 249.073871 27.211353 
L 249.932335 27.211353 
L 249.949362 19.666535 
L 250.729478 19.666535 
L 250.729478 15.894125 
L 254.057395 15.894125 
L 254.057395 12.121716 
L 254.320646 12.121716 
L 254.320646 8.349307 
L 254.320646 8.349307 
L 450.672 8.349307 
L 450.672 8.349307 
" style="fill:none;stroke:#ff0000;stroke-linecap:square;stroke-width:3;"/>
   </g>
   <g id="line2d_24">
    <path clip-path="url(#pa0056ff711)" d="M 231.806325 291.28 
L 231.913943 283.735182 
L 235.219081 283.735182 
L 235.219081 279.962772 
L 237.022044 279.962772 
L 237.022044 276.190363 
L 237.767596 276.190363 
L 237.767596 272.417954 
L 239.15332 272.417954 
L 239.15332 268.645545 
L 239.812394 268.645545 
L 239.812394 264.873135 
L 239.959503 264.873135 
L 239.959503 261.100726 
L 240.868549 261.100726 
L 240.868549 257.328317 
L 241.30043 257.328317 
L 241.30043 253.555908 
L 244.178708 253.555908 
L 244.198726 246.011089 
L 244.575344 246.011089 
L 244.575344 242.23868 
L 245.211014 242.23868 
L 245.211014 238.466271 
L 246.913564 238.466271 
L 246.913564 234.693861 
L 247.376162 234.693861 
L 247.376162 230.921452 
L 249.236642 230.921452 
L 249.236642 227.149043 
L 249.896121 227.149043 
L 249.896121 223.376634 
L 250.023934 223.376634 
L 250.023934 219.604224 
L 250.163584 219.604224 
L 250.163584 215.831815 
L 250.806685 215.831815 
L 250.806685 212.059406 
L 252.534303 212.059406 
L 252.534303 208.286997 
L 252.937115 208.286997 
L 252.937115 204.514587 
L 253.542815 204.514587 
L 253.542815 200.742178 
L 253.990403 200.742178 
L 254.067562 193.19736 
L 254.920677 193.19736 
L 254.920677 189.42495 
L 255.502271 189.42495 
L 255.502271 185.652541 
L 255.714952 185.652541 
L 255.714952 181.880132 
L 256.05533 181.880132 
L 256.05533 178.107723 
L 256.225214 178.107723 
L 256.225214 174.335314 
L 256.586651 174.335314 
L 256.586651 170.562904 
L 256.762752 170.562904 
L 256.780445 163.018086 
L 257.384053 163.018086 
L 257.409335 155.473267 
L 257.789401 155.473267 
L 257.849342 140.38363 
L 257.932562 140.38363 
L 257.994228 125.293993 
L 258.500958 125.293993 
L 258.611322 117.749175 
L 258.775931 117.749175 
L 258.81869 106.431947 
L 258.950707 106.431947 
L 258.950707 102.659538 
L 259.248213 102.659538 
L 259.248213 98.887129 
L 259.459628 98.887129 
L 259.55986 91.34231 
L 259.60132 91.34231 
L 259.60132 87.569901 
L 261.070011 87.569901 
L 261.106297 80.025083 
L 261.440531 80.025083 
L 261.512479 72.480264 
L 261.585412 72.480264 
L 261.585412 68.707855 
L 262.407825 68.707855 
L 262.407825 64.935446 
L 308.68568 64.935446 
L 308.68568 8.349307 
L 308.68568 8.349307 
L 450.672 8.349307 
L 450.672 8.349307 
" style="fill:none;stroke:#00bfbf;stroke-linecap:square;stroke-width:1.5;"/>
   </g>
   <g id="line2d_25">
    <path clip-path="url(#pa0056ff711)" d="M 231.805941 291.28 
L 231.891343 283.735182 
L 235.050794 283.735182 
L 235.050794 279.962772 
L 237.022044 279.962772 
L 237.022044 276.190363 
L 237.767596 276.190363 
L 237.767596 272.417954 
L 239.099927 272.417954 
L 239.099927 268.645545 
L 239.812394 268.645545 
L 239.862084 261.100726 
L 240.740217 261.100726 
L 240.740217 257.328317 
L 240.866656 257.328317 
L 240.866656 253.555908 
L 244.129581 253.555908 
L 244.178059 246.011089 
L 244.382665 246.011089 
L 244.382665 242.23868 
L 245.083827 242.23868 
L 245.083827 238.466271 
L 246.727334 238.466271 
L 246.727334 234.693861 
L 247.374774 234.693861 
L 247.374774 230.921452 
L 249.19623 230.921452 
L 249.19623 227.149043 
L 249.862881 227.149043 
L 249.862881 223.376634 
L 250.023714 223.376634 
L 250.023714 219.604224 
L 250.162222 219.604224 
L 250.162222 215.831815 
L 250.618116 215.831815 
L 250.618116 212.059406 
L 252.531326 212.059406 
L 252.531326 208.286997 
L 252.937115 208.286997 
L 252.937115 204.514587 
L 253.541752 204.514587 
L 253.541752 200.742178 
L 253.990403 200.742178 
L 254.067562 193.19736 
L 254.920677 193.19736 
L 254.920677 189.42495 
L 255.502114 189.42495 
L 255.502114 185.652541 
L 255.692497 185.652541 
L 255.692497 181.880132 
L 256.045346 181.880132 
L 256.045346 178.107723 
L 256.225214 178.107723 
L 256.225214 174.335314 
L 256.586133 174.335314 
L 256.586133 170.562904 
L 256.76174 170.562904 
L 256.779782 163.018086 
L 257.383595 163.018086 
L 257.408985 155.473267 
L 257.780597 155.473267 
L 257.84917 140.38363 
L 257.912208 140.38363 
L 257.994156 125.293993 
L 258.500958 125.293993 
L 258.611247 117.749175 
L 258.775683 117.749175 
L 258.818486 106.431947 
L 258.950513 106.431947 
L 258.950513 102.659538 
L 259.246031 102.659538 
L 259.246031 98.887129 
L 259.398449 98.887129 
L 259.398449 95.114719 
L 259.532426 95.114719 
L 259.601301 87.569901 
L 261.045924 87.569901 
L 261.085764 80.025083 
L 261.433246 80.025083 
L 261.490412 72.480264 
L 261.571154 72.480264 
L 261.571154 68.707855 
L 262.390308 68.707855 
L 262.390308 64.935446 
L 308.681715 64.935446 
L 308.68568 8.349307 
L 308.68568 8.349307 
L 450.672 8.349307 
L 450.672 8.349307 
" style="fill:none;stroke:#bf00bf;stroke-linecap:square;stroke-width:1.5;"/>
   </g>
   <g id="line2d_26">
    <path clip-path="url(#pa0056ff711)" d="M 230.274713 291.28 
L 230.274713 287.507591 
L 231.760778 287.507591 
L 231.760778 283.735182 
L 234.09301 283.735182 
L 234.09301 279.962772 
L 236.366723 279.962772 
L 236.366723 276.190363 
L 237.431039 276.190363 
L 237.431039 272.417954 
L 238.246883 272.417954 
L 238.246883 268.645545 
L 238.518086 268.645545 
L 238.518086 264.873135 
L 239.427851 264.873135 
L 239.427851 261.100726 
L 239.579108 261.100726 
L 239.579108 257.328317 
L 240.849634 257.328317 
L 240.849634 253.555908 
L 243.430162 253.555908 
L 243.430162 249.783498 
L 243.577738 249.783498 
L 243.577738 246.011089 
L 244.172284 246.011089 
L 244.172284 242.23868 
L 244.3191 242.23868 
L 244.3191 238.466271 
L 246.340275 238.466271 
L 246.340275 234.693861 
L 247.368846 234.693861 
L 247.368846 230.921452 
L 249.139279 230.921452 
L 249.139279 227.149043 
L 249.543083 227.149043 
L 249.543083 223.376634 
L 250.016209 223.376634 
L 250.016209 219.604224 
L 250.15002 219.604224 
L 250.15002 215.831815 
L 250.495654 215.831815 
L 250.495654 212.059406 
L 252.490636 212.059406 
L 252.490636 208.286997 
L 252.929804 208.286997 
L 252.929804 204.514587 
L 253.528324 204.514587 
L 253.528324 200.742178 
L 253.985665 200.742178 
L 254.06072 193.19736 
L 254.911644 193.19736 
L 254.911644 189.42495 
L 255.498867 189.42495 
L 255.542129 181.880132 
L 255.912252 181.880132 
L 255.912252 178.107723 
L 256.138273 178.107723 
L 256.138273 174.335314 
L 256.583095 174.335314 
L 256.583095 170.562904 
L 256.756141 170.562904 
L 256.775825 163.018086 
L 257.380807 163.018086 
L 257.407916 155.473267 
L 257.498599 155.473267 
L 257.606505 147.928449 
L 257.783182 147.928449 
L 257.848367 136.611221 
L 257.935246 136.611221 
L 257.992868 125.293993 
L 258.498257 125.293993 
L 258.498257 121.521584 
L 258.610447 121.521584 
L 258.610447 117.749175 
L 258.774769 117.749175 
L 258.816366 106.431947 
L 258.925982 106.431947 
L 258.949287 98.887129 
L 259.171542 98.887129 
L 259.171542 95.114719 
L 259.385376 95.114719 
L 259.385376 91.34231 
L 259.600641 91.34231 
L 259.600641 87.569901 
L 260.811273 87.569901 
L 260.811273 83.797492 
L 260.957574 83.797492 
L 260.957574 80.025083 
L 261.365525 80.025083 
L 261.464496 68.707855 
L 262.269879 68.707855 
L 262.269879 64.935446 
L 308.663679 64.935446 
L 308.669065 8.349307 
L 308.669065 8.349307 
L 450.672 8.349307 
L 450.672 8.349307 
" style="fill:none;stroke:#000000;stroke-linecap:square;stroke-width:1.5;"/>
   </g>
   <g id="line2d_27">
    <path clip-path="url(#pa0056ff711)" d="M 223.783061 291.28 
L 223.783061 287.507591 
L 224.742288 287.507591 
L 224.742288 283.735182 
L 232.460691 283.735182 
L 232.460691 279.962772 
L 233.059889 279.962772 
L 233.059889 276.190363 
L 234.334131 276.190363 
L 234.334131 272.417954 
L 235.851781 272.417954 
L 235.851781 268.645545 
L 237.103337 268.645545 
L 237.103337 264.873135 
L 237.558064 264.873135 
L 237.558064 261.100726 
L 238.310582 261.100726 
L 238.344776 253.555908 
L 238.832952 253.555908 
L 238.832952 249.783498 
L 239.385072 249.783498 
L 239.385072 246.011089 
L 242.583626 246.011089 
L 242.583626 242.23868 
L 243.401749 242.23868 
L 243.401749 238.466271 
L 246.184487 238.466271 
L 246.249497 230.921452 
L 246.438888 230.921452 
L 246.438888 227.149043 
L 246.780947 227.149043 
L 246.780947 223.376634 
L 248.508907 223.376634 
L 248.508907 219.604224 
L 248.887628 219.604224 
L 248.887628 215.831815 
L 249.682079 215.831815 
L 249.682079 212.059406 
L 250.024896 212.059406 
L 250.024896 208.286997 
L 250.669787 208.286997 
L 250.669787 204.514587 
L 251.817363 204.514587 
L 251.817363 200.742178 
L 252.132081 200.742178 
L 252.132081 196.969769 
L 253.081866 196.969769 
L 253.0881 189.42495 
L 253.202114 189.42495 
L 253.202114 185.652541 
L 253.553826 185.652541 
L 253.553826 181.880132 
L 253.95834 181.880132 
L 253.95834 178.107723 
L 254.753051 178.107723 
L 254.753051 174.335314 
L 255.042914 174.335314 
L 255.145019 166.790495 
L 255.2316 166.790495 
L 255.270305 159.245677 
L 255.351594 159.245677 
L 255.440557 151.700858 
L 255.906551 151.700858 
L 255.906551 147.928449 
L 256.10881 147.928449 
L 256.16639 140.38363 
L 256.278935 140.38363 
L 256.278935 136.611221 
L 256.499674 136.611221 
L 256.499674 132.838812 
L 257.01967 132.838812 
L 257.01967 129.066403 
L 257.205787 129.066403 
L 257.205787 125.293993 
L 257.390745 125.293993 
L 257.441612 117.749175 
L 257.569626 117.749175 
L 257.569626 113.976766 
L 257.71232 113.976766 
L 257.807802 106.431947 
L 257.844244 106.431947 
L 257.844244 102.659538 
L 258.138465 102.659538 
L 258.138465 98.887129 
L 258.426751 98.887129 
L 258.526821 91.34231 
L 258.547048 91.34231 
L 258.649482 80.025083 
L 258.742248 80.025083 
L 258.742248 76.252673 
L 259.505481 76.252673 
L 259.505481 72.480264 
L 260.397582 72.480264 
L 260.397582 68.707855 
L 260.540339 68.707855 
L 260.540339 64.935446 
L 305.513743 64.935446 
L 305.590872 49.845809 
L 305.979937 49.845809 
L 305.979937 46.073399 
L 306.311487 46.073399 
L 306.312053 30.983762 
L 306.73144 30.983762 
L 306.738521 19.666535 
L 307.042358 19.666535 
L 307.047011 8.349307 
L 307.047011 8.349307 
L 450.672 8.349307 
L 450.672 8.349307 
" style="fill:none;stroke:#00bfbf;stroke-linecap:square;stroke-width:1.5;"/>
   </g>
   <g id="line2d_28">
    <path clip-path="url(#pa0056ff711)" d="M 146.070823 291.28 
L 146.070823 287.507591 
L 152.30302 287.507591 
L 152.30302 283.735182 
L 164.127577 283.735182 
L 164.127577 279.962772 
L 213.433773 279.962772 
L 213.433773 276.190363 
L 214.607911 276.190363 
L 214.607911 268.645545 
L 217.255447 268.645545 
L 217.255447 264.873135 
L 219.052236 264.873135 
L 219.052236 261.100726 
L 220.08754 261.100726 
L 220.08754 257.328317 
L 220.829911 257.328317 
L 220.829911 253.555908 
L 221.392056 253.555908 
L 221.392056 249.783498 
L 222.323524 249.783498 
L 222.323524 246.011089 
L 223.357789 246.011089 
L 223.392601 238.466271 
L 223.641106 238.466271 
L 223.641106 234.693861 
L 224.078706 234.693861 
L 224.078706 227.149043 
L 224.215118 227.149043 
L 224.215118 223.376634 
L 224.860334 223.376634 
L 224.906486 212.059406 
L 225.294736 212.059406 
L 225.294736 204.514587 
L 226.074606 204.514587 
L 226.074606 200.742178 
L 229.637492 200.742178 
L 229.637492 196.969769 
L 231.606207 196.969769 
L 231.606207 193.19736 
L 232.071765 193.19736 
L 232.12376 185.652541 
L 232.479955 185.652541 
L 232.479955 181.880132 
L 232.831257 181.880132 
L 232.842103 174.335314 
L 233.120159 174.335314 
L 233.120159 170.562904 
L 234.483963 170.562904 
L 234.483963 166.790495 
L 235.234785 166.790495 
L 235.269736 159.245677 
L 235.717119 159.245677 
L 235.717119 155.473267 
L 236.077515 155.473267 
L 236.077515 151.700858 
L 236.857268 151.700858 
L 236.857268 147.928449 
L 237.54243 147.928449 
L 237.54243 144.15604 
L 238.017805 144.15604 
L 238.017805 140.38363 
L 238.215764 140.38363 
L 238.215764 136.611221 
L 238.638136 136.611221 
L 238.638136 132.838812 
L 242.256932 132.838812 
L 242.256932 129.066403 
L 242.426105 129.066403 
L 242.426105 125.293993 
L 243.519579 125.293993 
L 243.519579 121.521584 
L 244.098116 121.521584 
L 244.098116 117.749175 
L 244.568153 117.749175 
L 244.568153 113.976766 
L 245.481995 113.976766 
L 245.54209 106.431947 
L 246.18141 106.431947 
L 246.18141 102.659538 
L 247.553548 102.659538 
L 247.553548 98.887129 
L 248.457899 98.887129 
L 248.512562 91.34231 
L 248.725759 91.34231 
L 248.740739 83.797492 
L 248.838943 83.797492 
L 248.922097 61.163036 
L 248.962061 61.163036 
L 249.047911 49.845809 
L 249.073871 49.845809 
L 249.073871 46.073399 
L 249.932335 46.073399 
L 249.949362 38.528581 
L 250.282011 38.528581 
L 250.282011 34.756172 
L 250.593423 34.756172 
L 250.593423 30.983762 
L 250.742788 30.983762 
L 250.742788 27.211353 
L 251.600602 27.211353 
L 251.600602 23.438944 
L 252.779914 23.438944 
L 252.779914 19.666535 
L 254.627653 19.666535 
L 254.627653 15.894125 
L 255.89575 15.894125 
L 255.89575 12.121716 
L 257.822301 12.121716 
L 257.822301 8.349307 
L 257.822301 8.349307 
L 450.672 8.349307 
L 450.672 8.349307 
" style="fill:none;stroke:#bf00bf;stroke-linecap:square;stroke-width:1.5;"/>
   </g>
   <g id="patch_3">
    <path d="M 5.52 291.28 
L 5.52 5.52 
" style="fill:none;stroke:#000000;stroke-linecap:square;stroke-linejoin:miter;stroke-width:0.8;"/>
   </g>
   <g id="patch_4">
    <path d="M 450.672 291.28 
L 450.672 5.52 
" style="fill:none;stroke:#000000;stroke-linecap:square;stroke-linejoin:miter;stroke-width:0.8;"/>
   </g>
   <g id="patch_5">
    <path d="M 5.52 291.28 
L 450.672 291.28 
" style="fill:none;stroke:#000000;stroke-linecap:square;stroke-linejoin:miter;stroke-width:0.8;"/>
   </g>
   <g id="patch_6">
    <path d="M 5.52 5.52 
L 450.672 5.52 
" style="fill:none;stroke:#000000;stroke-linecap:square;stroke-linejoin:miter;stroke-width:0.8;"/>
   </g>
   <g id="text_6">
    <!-- {f20-f24}, 5-D -->
    <defs>
     <path d="M 51.125 -9.28125 
L 51.125 -16.3125 
L 48.09375 -16.3125 
Q 35.9375 -16.3125 31.8125 -12.6875 
Q 27.6875 -9.078125 27.6875 1.703125 
L 27.6875 13.375 
Q 27.6875 20.75 25.046875 23.578125 
Q 22.40625 26.421875 15.484375 26.421875 
L 12.5 26.421875 
L 12.5 33.40625 
L 15.484375 33.40625 
Q 22.46875 33.40625 25.078125 36.203125 
Q 27.6875 39.015625 27.6875 46.296875 
L 27.6875 58.015625 
Q 27.6875 68.796875 31.8125 72.390625 
Q 35.9375 75.984375 48.09375 75.984375 
L 51.125 75.984375 
L 51.125 69 
L 47.796875 69 
Q 40.921875 69 38.8125 66.84375 
Q 36.71875 64.703125 36.71875 57.8125 
L 36.71875 45.703125 
Q 36.71875 38.03125 34.5 34.5625 
Q 32.28125 31.109375 26.90625 29.890625 
Q 32.328125 28.5625 34.515625 25.09375 
Q 36.71875 21.625 36.71875 14.015625 
L 36.71875 1.90625 
Q 36.71875 -4.984375 38.8125 -7.125 
Q 40.921875 -9.28125 47.796875 -9.28125 
z
" id="DejaVuSans-7b"/>
     <path d="M 19.1875 8.296875 
L 53.609375 8.296875 
L 53.609375 0 
L 7.328125 0 
L 7.328125 8.296875 
Q 12.9375 14.109375 22.625 23.890625 
Q 32.328125 33.6875 34.8125 36.53125 
Q 39.546875 41.84375 41.421875 45.53125 
Q 43.3125 49.21875 43.3125 52.78125 
Q 43.3125 58.59375 39.234375 62.25 
Q 35.15625 65.921875 28.609375 65.921875 
Q 23.96875 65.921875 18.8125 64.3125 
Q 13.671875 62.703125 7.8125 59.421875 
L 7.8125 69.390625 
Q 13.765625 71.78125 18.9375 73 
Q 24.125 74.21875 28.421875 74.21875 
Q 39.75 74.21875 46.484375 68.546875 
Q 53.21875 62.890625 53.21875 53.421875 
Q 53.21875 48.921875 51.53125 44.890625 
Q 49.859375 40.875 45.40625 35.40625 
Q 44.1875 33.984375 37.640625 27.21875 
Q 31.109375 20.453125 19.1875 8.296875 
z
" id="DejaVuSans-32"/>
     <path d="M 12.5 -9.28125 
L 15.921875 -9.28125 
Q 22.75 -9.28125 24.828125 -7.171875 
Q 26.90625 -5.078125 26.90625 1.90625 
L 26.90625 14.015625 
Q 26.90625 21.625 29.09375 25.09375 
Q 31.296875 28.5625 36.71875 29.890625 
Q 31.296875 31.109375 29.09375 34.5625 
Q 26.90625 38.03125 26.90625 45.703125 
L 26.90625 57.8125 
Q 26.90625 64.75 24.828125 66.875 
Q 22.75 69 15.921875 69 
L 12.5 69 
L 12.5 75.984375 
L 15.578125 75.984375 
Q 27.734375 75.984375 31.8125 72.390625 
Q 35.890625 68.796875 35.890625 58.015625 
L 35.890625 46.296875 
Q 35.890625 39.015625 38.515625 36.203125 
Q 41.15625 33.40625 48.09375 33.40625 
L 51.125 33.40625 
L 51.125 26.421875 
L 48.09375 26.421875 
Q 41.15625 26.421875 38.515625 23.578125 
Q 35.890625 20.75 35.890625 13.375 
L 35.890625 1.703125 
Q 35.890625 -9.078125 31.8125 -12.6875 
Q 27.734375 -16.3125 15.578125 -16.3125 
L 12.5 -16.3125 
z
" id="DejaVuSans-7d"/>
     <path d="M 11.71875 12.40625 
L 22.015625 12.40625 
L 22.015625 4 
L 14.015625 -11.625 
L 7.71875 -11.625 
L 11.71875 4 
z
" id="DejaVuSans-2c"/>
     <path d="M 10.796875 72.90625 
L 49.515625 72.90625 
L 49.515625 64.59375 
L 19.828125 64.59375 
L 19.828125 46.734375 
Q 21.96875 47.46875 24.109375 47.828125 
Q 26.265625 48.1875 28.421875 48.1875 
Q 40.625 48.1875 47.75 41.5 
Q 54.890625 34.8125 54.890625 23.390625 
Q 54.890625 11.625 47.5625 5.09375 
Q 40.234375 -1.421875 26.90625 -1.421875 
Q 22.3125 -1.421875 17.546875 -0.640625 
Q 12.796875 0.140625 7.71875 1.703125 
L 7.71875 11.625 
Q 12.109375 9.234375 16.796875 8.0625 
Q 21.484375 6.890625 26.703125 6.890625 
Q 35.15625 6.890625 40.078125 11.328125 
Q 45.015625 15.765625 45.015625 23.390625 
Q 45.015625 31 40.078125 35.4375 
Q 35.15625 39.890625 26.703125 39.890625 
Q 22.75 39.890625 18.8125 39.015625 
Q 14.890625 38.140625 10.796875 36.28125 
z
" id="DejaVuSans-35"/>
    </defs>
    <g transform="translate(296.06896 285.5648)scale(0.2 -0.2)">
     <use xlink:href="#DejaVuSans-7b"/>
     <use x="63.623047" xlink:href="#DejaVuSans-66"/>
     <use x="98.828125" xlink:href="#DejaVuSans-32"/>
     <use x="162.451172" xlink:href="#DejaVuSans-30"/>
     <use x="226.074219" xlink:href="#DejaVuSans-2d"/>
     <use x="262.158203" xlink:href="#DejaVuSans-66"/>
     <use x="297.363281" xlink:href="#DejaVuSans-32"/>
     <use x="360.986328" xlink:href="#DejaVuSans-34"/>
     <use x="424.609375" xlink:href="#DejaVuSans-7d"/>
     <use x="488.232422" xlink:href="#DejaVuSans-2c"/>
     <use x="520.019531" xlink:href="#DejaVuSans-20"/>
     <use x="551.806641" xlink:href="#DejaVuSans-35"/>
     <use x="615.429688" xlink:href="#DejaVuSans-2d"/>
     <use x="651.513672" xlink:href="#DejaVuSans-44"/>
    </g>
   </g>
   <g id="text_7">
    <!-- v2.2.1.10 -->
    <defs>
     <path d="M 2.984375 54.6875 
L 12.5 54.6875 
L 29.59375 8.796875 
L 46.6875 54.6875 
L 56.203125 54.6875 
L 35.6875 0 
L 23.484375 0 
z
" id="DejaVuSans-76"/>
     <path d="M 10.6875 12.40625 
L 21 12.40625 
L 21 0 
L 10.6875 0 
z
" id="DejaVuSans-2e"/>
    </defs>
    <g style="fill:#808080;" transform="translate(204.463188 286.342713)scale(0.1 -0.1)">
     <use xlink:href="#DejaVuSans-76"/>
     <use x="59.179688" xlink:href="#DejaVuSans-32"/>
     <use x="122.802734" xlink:href="#DejaVuSans-2e"/>
     <use x="154.589844" xlink:href="#DejaVuSans-32"/>
     <use x="218.212891" xlink:href="#DejaVuSans-2e"/>
     <use x="250" xlink:href="#DejaVuSans-31"/>
     <use x="313.623047" xlink:href="#DejaVuSans-2e"/>
     <use x="345.410156" xlink:href="#DejaVuSans-31"/>
     <use x="409.033203" xlink:href="#DejaVuSans-30"/>
    </g>
   </g>
  </g>
 </g>
 <defs>
  <clipPath id="pa0056ff711">
   <rect height="285.76" width="445.152" x="5.52" y="5.52"/>
  </clipPath>
 </defs>
</svg>
