<?xml version="1.0" encoding="utf-8" standalone="no"?>
<!DOCTYPE svg PUBLIC "-//W3C//DTD SVG 1.1//EN"
  "http://www.w3.org/Graphics/SVG/1.1/DTD/svg11.dtd">
<!-- Created with matplotlib (http://matplotlib.org/) -->
<svg height="345.6pt" version="1.1" viewBox="0 0 460.8 345.6" width="460.8pt" xmlns="http://www.w3.org/2000/svg" xmlns:xlink="http://www.w3.org/1999/xlink">
 <defs>
  <style type="text/css">
*{stroke-linecap:butt;stroke-linejoin:round;}
  </style>
 </defs>
 <g id="figure_1">
  <g id="patch_1">
   <path d="M 0 345.6 
L 460.8 345.6 
L 460.8 0 
L 0 0 
z
" style="fill:#ffffff;"/>
  </g>
  <g id="axes_1">
   <g id="patch_2">
    <path d="M 5.52 291.28 
L 450.672 291.28 
L 450.672 5.52 
L 5.52 5.52 
z
" style="fill:#ffffff;"/>
   </g>
   <g id="matplotlib.axis_1">
    <g id="xtick_1">
     <g id="line2d_1">
      <path clip-path="url(#p7d828c8525)" d="M 5.409114 291.28 
L 5.409114 5.52 
" style="fill:none;stroke:#b0b0b0;stroke-linecap:square;stroke-width:0.8;"/>
     </g>
     <g id="line2d_2">
      <defs>
       <path d="M 0 0 
L 0 3.5 
" id="ma202b22671" style="stroke:#000000;stroke-width:0.8;"/>
      </defs>
      <g>
       <use style="stroke:#000000;stroke-width:0.8;" x="5.409114" xlink:href="#ma202b22671" y="291.28"/>
      </g>
     </g>
    </g>
    <g id="xtick_2">
     <g id="line2d_3">
      <path clip-path="url(#p7d828c8525)" d="M 108.048937 291.28 
L 108.048937 5.52 
" style="fill:none;stroke:#b0b0b0;stroke-linecap:square;stroke-width:0.8;"/>
     </g>
     <g id="line2d_4">
      <g>
       <use style="stroke:#000000;stroke-width:0.8;" x="108.048937" xlink:href="#ma202b22671" y="291.28"/>
      </g>
     </g>
     <g id="text_1">
      <!-- -4 -->
      <defs>
       <path d="M 4.890625 31.390625 
L 31.203125 31.390625 
L 31.203125 23.390625 
L 4.890625 23.390625 
z
" id="DejaVuSans-2d"/>
       <path d="M 37.796875 64.3125 
L 12.890625 25.390625 
L 37.796875 25.390625 
z
M 35.203125 72.90625 
L 47.609375 72.90625 
L 47.609375 25.390625 
L 58.015625 25.390625 
L 58.015625 17.1875 
L 47.609375 17.1875 
L 47.609375 0 
L 37.796875 0 
L 37.796875 17.1875 
L 4.890625 17.1875 
L 4.890625 26.703125 
z
" id="DejaVuSans-34"/>
      </defs>
      <g transform="translate(98.078625 313.476875)scale(0.2 -0.2)">
       <use xlink:href="#DejaVuSans-2d"/>
       <use x="36.083984" xlink:href="#DejaVuSans-34"/>
      </g>
     </g>
    </g>
    <g id="xtick_3">
     <g id="line2d_5">
      <path clip-path="url(#p7d828c8525)" d="M 210.688761 291.28 
L 210.688761 5.52 
" style="fill:none;stroke:#b0b0b0;stroke-linecap:square;stroke-width:0.8;"/>
     </g>
     <g id="line2d_6">
      <g>
       <use style="stroke:#000000;stroke-width:0.8;" x="210.688761" xlink:href="#ma202b22671" y="291.28"/>
      </g>
     </g>
     <g id="text_2">
      <!-- 0 -->
      <defs>
       <path d="M 31.78125 66.40625 
Q 24.171875 66.40625 20.328125 58.90625 
Q 16.5 51.421875 16.5 36.375 
Q 16.5 21.390625 20.328125 13.890625 
Q 24.171875 6.390625 31.78125 6.390625 
Q 39.453125 6.390625 43.28125 13.890625 
Q 47.125 21.390625 47.125 36.375 
Q 47.125 51.421875 43.28125 58.90625 
Q 39.453125 66.40625 31.78125 66.40625 
z
M 31.78125 74.21875 
Q 44.046875 74.21875 50.515625 64.515625 
Q 56.984375 54.828125 56.984375 36.375 
Q 56.984375 17.96875 50.515625 8.265625 
Q 44.046875 -1.421875 31.78125 -1.421875 
Q 19.53125 -1.421875 13.0625 8.265625 
Q 6.59375 17.96875 6.59375 36.375 
Q 6.59375 54.828125 13.0625 64.515625 
Q 19.53125 74.21875 31.78125 74.21875 
z
" id="DejaVuSans-30"/>
      </defs>
      <g transform="translate(204.326261 313.476875)scale(0.2 -0.2)">
       <use xlink:href="#DejaVuSans-30"/>
      </g>
     </g>
    </g>
    <g id="xtick_4">
     <g id="line2d_7">
      <path clip-path="url(#p7d828c8525)" d="M 313.328584 291.28 
L 313.328584 5.52 
" style="fill:none;stroke:#b0b0b0;stroke-linecap:square;stroke-width:0.8;"/>
     </g>
     <g id="line2d_8">
      <g>
       <use style="stroke:#000000;stroke-width:0.8;" x="313.328584" xlink:href="#ma202b22671" y="291.28"/>
      </g>
     </g>
     <g id="text_3">
      <!-- 4 -->
      <g transform="translate(306.966084 313.476875)scale(0.2 -0.2)">
       <use xlink:href="#DejaVuSans-34"/>
      </g>
     </g>
    </g>
    <g id="xtick_5">
     <g id="line2d_9">
      <path clip-path="url(#p7d828c8525)" d="M 415.968408 291.28 
L 415.968408 5.52 
" style="fill:none;stroke:#b0b0b0;stroke-linecap:square;stroke-width:0.8;"/>
     </g>
     <g id="line2d_10">
      <g>
       <use style="stroke:#000000;stroke-width:0.8;" x="415.968408" xlink:href="#ma202b22671" y="291.28"/>
      </g>
     </g>
     <g id="text_4">
      <!-- 8 -->
      <defs>
       <path d="M 31.78125 34.625 
Q 24.75 34.625 20.71875 30.859375 
Q 16.703125 27.09375 16.703125 20.515625 
Q 16.703125 13.921875 20.71875 10.15625 
Q 24.75 6.390625 31.78125 6.390625 
Q 38.8125 6.390625 42.859375 10.171875 
Q 46.921875 13.96875 46.921875 20.515625 
Q 46.921875 27.09375 42.890625 30.859375 
Q 38.875 34.625 31.78125 34.625 
z
M 21.921875 38.8125 
Q 15.578125 40.375 12.03125 44.71875 
Q 8.5 49.078125 8.5 55.328125 
Q 8.5 64.0625 14.71875 69.140625 
Q 20.953125 74.21875 31.78125 74.21875 
Q 42.671875 74.21875 48.875 69.140625 
Q 55.078125 64.0625 55.078125 55.328125 
Q 55.078125 49.078125 51.53125 44.71875 
Q 48 40.375 41.703125 38.8125 
Q 48.828125 37.15625 52.796875 32.3125 
Q 56.78125 27.484375 56.78125 20.515625 
Q 56.78125 9.90625 50.3125 4.234375 
Q 43.84375 -1.421875 31.78125 -1.421875 
Q 19.734375 -1.421875 13.25 4.234375 
Q 6.78125 9.90625 6.78125 20.515625 
Q 6.78125 27.484375 10.78125 32.3125 
Q 14.796875 37.15625 21.921875 38.8125 
z
M 18.3125 54.390625 
Q 18.3125 48.734375 21.84375 45.5625 
Q 25.390625 42.390625 31.78125 42.390625 
Q 38.140625 42.390625 41.71875 45.5625 
Q 45.3125 48.734375 45.3125 54.390625 
Q 45.3125 60.0625 41.71875 63.234375 
Q 38.140625 66.40625 31.78125 66.40625 
Q 25.390625 66.40625 21.84375 63.234375 
Q 18.3125 60.0625 18.3125 54.390625 
z
" id="DejaVuSans-38"/>
      </defs>
      <g transform="translate(409.605908 313.476875)scale(0.2 -0.2)">
       <use xlink:href="#DejaVuSans-38"/>
      </g>
     </g>
    </g>
    <g id="text_5">
     <!-- log10 of Df -->
     <defs>
      <path d="M 9.421875 75.984375 
L 18.40625 75.984375 
L 18.40625 0 
L 9.421875 0 
z
" id="DejaVuSans-6c"/>
      <path d="M 30.609375 48.390625 
Q 23.390625 48.390625 19.1875 42.75 
Q 14.984375 37.109375 14.984375 27.296875 
Q 14.984375 17.484375 19.15625 11.84375 
Q 23.34375 6.203125 30.609375 6.203125 
Q 37.796875 6.203125 41.984375 11.859375 
Q 46.1875 17.53125 46.1875 27.296875 
Q 46.1875 37.015625 41.984375 42.703125 
Q 37.796875 48.390625 30.609375 48.390625 
z
M 30.609375 56 
Q 42.328125 56 49.015625 48.375 
Q 55.71875 40.765625 55.71875 27.296875 
Q 55.71875 13.875 49.015625 6.21875 
Q 42.328125 -1.421875 30.609375 -1.421875 
Q 18.84375 -1.421875 12.171875 6.21875 
Q 5.515625 13.875 5.515625 27.296875 
Q 5.515625 40.765625 12.171875 48.375 
Q 18.84375 56 30.609375 56 
z
" id="DejaVuSans-6f"/>
      <path d="M 45.40625 27.984375 
Q 45.40625 37.75 41.375 43.109375 
Q 37.359375 48.484375 30.078125 48.484375 
Q 22.859375 48.484375 18.828125 43.109375 
Q 14.796875 37.75 14.796875 27.984375 
Q 14.796875 18.265625 18.828125 12.890625 
Q 22.859375 7.515625 30.078125 7.515625 
Q 37.359375 7.515625 41.375 12.890625 
Q 45.40625 18.265625 45.40625 27.984375 
z
M 54.390625 6.78125 
Q 54.390625 -7.171875 48.1875 -13.984375 
Q 42 -20.796875 29.203125 -20.796875 
Q 24.46875 -20.796875 20.265625 -20.09375 
Q 16.0625 -19.390625 12.109375 -17.921875 
L 12.109375 -9.1875 
Q 16.0625 -11.328125 19.921875 -12.34375 
Q 23.78125 -13.375 27.78125 -13.375 
Q 36.625 -13.375 41.015625 -8.765625 
Q 45.40625 -4.15625 45.40625 5.171875 
L 45.40625 9.625 
Q 42.625 4.78125 38.28125 2.390625 
Q 33.9375 0 27.875 0 
Q 17.828125 0 11.671875 7.65625 
Q 5.515625 15.328125 5.515625 27.984375 
Q 5.515625 40.671875 11.671875 48.328125 
Q 17.828125 56 27.875 56 
Q 33.9375 56 38.28125 53.609375 
Q 42.625 51.21875 45.40625 46.390625 
L 45.40625 54.6875 
L 54.390625 54.6875 
z
" id="DejaVuSans-67"/>
      <path d="M 12.40625 8.296875 
L 28.515625 8.296875 
L 28.515625 63.921875 
L 10.984375 60.40625 
L 10.984375 69.390625 
L 28.421875 72.90625 
L 38.28125 72.90625 
L 38.28125 8.296875 
L 54.390625 8.296875 
L 54.390625 0 
L 12.40625 0 
z
" id="DejaVuSans-31"/>
      <path id="DejaVuSans-20"/>
      <path d="M 37.109375 75.984375 
L 37.109375 68.5 
L 28.515625 68.5 
Q 23.6875 68.5 21.796875 66.546875 
Q 19.921875 64.59375 19.921875 59.515625 
L 19.921875 54.6875 
L 34.71875 54.6875 
L 34.71875 47.703125 
L 19.921875 47.703125 
L 19.921875 0 
L 10.890625 0 
L 10.890625 47.703125 
L 2.296875 47.703125 
L 2.296875 54.6875 
L 10.890625 54.6875 
L 10.890625 58.5 
Q 10.890625 67.625 15.140625 71.796875 
Q 19.390625 75.984375 28.609375 75.984375 
z
" id="DejaVuSans-66"/>
      <path d="M 19.671875 64.796875 
L 19.671875 8.109375 
L 31.59375 8.109375 
Q 46.6875 8.109375 53.6875 14.9375 
Q 60.6875 21.78125 60.6875 36.53125 
Q 60.6875 51.171875 53.6875 57.984375 
Q 46.6875 64.796875 31.59375 64.796875 
z
M 9.8125 72.90625 
L 30.078125 72.90625 
Q 51.265625 72.90625 61.171875 64.09375 
Q 71.09375 55.28125 71.09375 36.53125 
Q 71.09375 17.671875 61.125 8.828125 
Q 51.171875 0 30.078125 0 
L 9.8125 0 
z
" id="DejaVuSans-44"/>
     </defs>
     <g transform="translate(172.910063 336.833125)scale(0.2 -0.2)">
      <use xlink:href="#DejaVuSans-6c"/>
      <use x="27.783203" xlink:href="#DejaVuSans-6f"/>
      <use x="88.964844" xlink:href="#DejaVuSans-67"/>
      <use x="152.441406" xlink:href="#DejaVuSans-31"/>
      <use x="216.064453" xlink:href="#DejaVuSans-30"/>
      <use x="279.6875" xlink:href="#DejaVuSans-20"/>
      <use x="311.474609" xlink:href="#DejaVuSans-6f"/>
      <use x="372.65625" xlink:href="#DejaVuSans-66"/>
      <use x="407.861328" xlink:href="#DejaVuSans-20"/>
      <use x="439.648438" xlink:href="#DejaVuSans-44"/>
      <use x="516.650391" xlink:href="#DejaVuSans-66"/>
     </g>
    </g>
   </g>
   <g id="matplotlib.axis_2">
    <g id="ytick_1">
     <g id="line2d_11">
      <path clip-path="url(#p7d828c8525)" d="M 5.52 291.28 
L 450.672 291.28 
" style="fill:none;stroke:#b0b0b0;stroke-linecap:square;stroke-width:0.8;"/>
     </g>
     <g id="line2d_12">
      <defs>
       <path d="M 0 0 
L -3.5 0 
" id="mba8b3616bc" style="stroke:#000000;stroke-width:0.8;"/>
      </defs>
      <g>
       <use style="stroke:#000000;stroke-width:0.8;" x="5.52" xlink:href="#mba8b3616bc" y="291.28"/>
      </g>
     </g>
    </g>
    <g id="ytick_2">
     <g id="line2d_13">
      <path clip-path="url(#p7d828c8525)" d="M 5.52 234.693861 
L 450.672 234.693861 
" style="fill:none;stroke:#b0b0b0;stroke-linecap:square;stroke-width:0.8;"/>
     </g>
     <g id="line2d_14">
      <g>
       <use style="stroke:#000000;stroke-width:0.8;" x="5.52" xlink:href="#mba8b3616bc" y="234.693861"/>
      </g>
     </g>
    </g>
    <g id="ytick_3">
     <g id="line2d_15">
      <path clip-path="url(#p7d828c8525)" d="M 5.52 178.107723 
L 450.672 178.107723 
" style="fill:none;stroke:#b0b0b0;stroke-linecap:square;stroke-width:0.8;"/>
     </g>
     <g id="line2d_16">
      <g>
       <use style="stroke:#000000;stroke-width:0.8;" x="5.52" xlink:href="#mba8b3616bc" y="178.107723"/>
      </g>
     </g>
    </g>
    <g id="ytick_4">
     <g id="line2d_17">
      <path clip-path="url(#p7d828c8525)" d="M 5.52 121.521584 
L 450.672 121.521584 
" style="fill:none;stroke:#b0b0b0;stroke-linecap:square;stroke-width:0.8;"/>
     </g>
     <g id="line2d_18">
      <g>
       <use style="stroke:#000000;stroke-width:0.8;" x="5.52" xlink:href="#mba8b3616bc" y="121.521584"/>
      </g>
     </g>
    </g>
    <g id="ytick_5">
     <g id="line2d_19">
      <path clip-path="url(#p7d828c8525)" d="M 5.52 64.935446 
L 450.672 64.935446 
" style="fill:none;stroke:#b0b0b0;stroke-linecap:square;stroke-width:0.8;"/>
     </g>
     <g id="line2d_20">
      <g>
       <use style="stroke:#000000;stroke-width:0.8;" x="5.52" xlink:href="#mba8b3616bc" y="64.935446"/>
      </g>
     </g>
    </g>
    <g id="ytick_6">
     <g id="line2d_21">
      <path clip-path="url(#p7d828c8525)" d="M 5.52 8.349307 
L 450.672 8.349307 
" style="fill:none;stroke:#b0b0b0;stroke-linecap:square;stroke-width:0.8;"/>
     </g>
     <g id="line2d_22">
      <g>
       <use style="stroke:#000000;stroke-width:0.8;" x="5.52" xlink:href="#mba8b3616bc" y="8.349307"/>
      </g>
     </g>
    </g>
   </g>
   <g id="line2d_23">
    <path clip-path="url(#p7d828c8525)" d="M -1 289.708163 
L 5.409114 289.708163 
L 5.409114 281.063058 
L 11.053542 281.063058 
L 11.053542 280.27714 
L 11.631929 280.27714 
L 11.631929 279.491221 
L 14.996351 279.491221 
L 14.996351 278.705303 
L 33.965363 278.705303 
L 33.965363 277.919384 
L 59.446592 277.919384 
L 59.446592 277.133465 
L 79.949862 277.133465 
L 79.949862 276.347547 
L 82.437007 276.347547 
L 82.437007 275.561628 
L 95.374005 275.561628 
L 95.374005 274.77571 
L 112.784957 274.77571 
L 112.784957 273.989791 
L 125.022988 273.989791 
L 125.022988 273.203872 
L 131.54133 273.203872 
L 131.54133 272.417954 
L 131.92956 272.417954 
L 131.92956 271.632035 
L 136.259011 271.632035 
L 136.259011 270.846117 
L 158.512365 270.846117 
L 158.512365 270.060198 
L 159.888463 270.060198 
L 159.888463 269.274279 
L 164.127537 269.274279 
L 164.127537 268.488361 
L 164.402938 268.488361 
L 164.420511 256.699582 
L 166.198792 256.699582 
L 166.198792 255.913663 
L 175.845949 255.913663 
L 175.845949 255.127745 
L 175.964945 255.127745 
L 175.964945 254.341826 
L 177.781395 254.341826 
L 177.781395 253.555908 
L 179.761825 253.555908 
L 179.761825 252.769989 
L 183.343533 252.769989 
L 183.343533 251.98407 
L 184.762906 251.98407 
L 184.762906 251.198152 
L 186.187361 251.198152 
L 186.187361 250.412233 
L 186.7146 250.412233 
L 186.7146 249.626315 
L 194.772926 249.626315 
L 194.772926 248.840396 
L 195.810674 248.840396 
L 195.810674 248.054477 
L 196.745515 248.054477 
L 196.745515 247.268559 
L 199.600344 247.268559 
L 199.600344 246.48264 
L 200.444702 246.48264 
L 200.444702 245.696722 
L 201.924665 245.696722 
L 201.924665 244.910803 
L 203.24002 244.910803 
L 203.24002 244.124884 
L 204.865448 244.124884 
L 204.865448 243.338966 
L 205.368006 243.338966 
L 205.368006 242.553047 
L 205.653425 242.553047 
L 205.685248 240.98121 
L 206.30527 240.98121 
L 206.30527 240.195292 
L 206.524021 240.195292 
L 206.608003 238.623454 
L 207.301466 238.623454 
L 207.301466 237.837536 
L 208.996951 237.837536 
L 208.996951 237.051617 
L 210.042786 237.051617 
L 210.042786 236.265699 
L 211.243728 236.265699 
L 211.302516 234.693861 
L 211.658326 234.693861 
L 211.658326 233.907943 
L 212.230352 233.907943 
L 212.230352 233.122024 
L 213.133089 233.122024 
L 213.133089 232.336106 
L 213.458771 232.336106 
L 213.458771 231.550187 
L 214.555854 231.550187 
L 214.555854 229.97835 
L 214.909861 229.97835 
L 214.909861 229.192431 
L 215.589039 229.192431 
L 215.589039 228.406513 
L 216.381024 228.406513 
L 216.381024 227.620594 
L 216.931646 227.620594 
L 216.974916 226.048757 
L 217.552873 226.048757 
L 217.552873 225.262838 
L 217.802875 225.262838 
L 217.802875 224.47692 
L 218.205731 224.47692 
L 218.205731 223.691001 
L 218.570346 223.691001 
L 218.570346 222.905083 
L 219.68171 222.905083 
L 219.68599 220.547327 
L 220.08754 220.547327 
L 220.150575 218.189571 
L 220.778757 218.189571 
L 220.829911 216.617734 
L 221.332805 216.617734 
L 221.332805 215.831815 
L 221.718453 215.831815 
L 221.718453 215.045897 
L 221.940234 215.045897 
L 221.940234 214.259978 
L 222.323524 214.259978 
L 222.323524 213.474059 
L 222.846441 213.474059 
L 222.846441 212.688141 
L 223.357789 212.688141 
L 223.357789 211.902222 
L 223.641059 211.902222 
L 223.641059 211.116304 
L 223.990915 211.116304 
L 224.078695 208.758548 
L 224.197766 208.758548 
L 224.197766 207.972629 
L 224.963225 207.972629 
L 225.035928 206.400792 
L 225.294736 206.400792 
L 225.294736 204.828955 
L 225.500264 204.828955 
L 225.500264 204.043036 
L 225.929924 204.043036 
L 225.929924 203.257118 
L 226.579433 203.257118 
L 226.579433 202.471199 
L 226.735552 202.471199 
L 226.735552 201.685281 
L 226.846684 201.685281 
L 226.846684 200.899362 
L 227.316217 200.899362 
L 227.341145 199.327525 
L 227.741286 199.327525 
L 227.741286 198.541606 
L 229.153772 198.541606 
L 229.153772 197.755688 
L 229.325996 197.755688 
L 229.325996 196.969769 
L 230.594268 196.969769 
L 230.594268 196.18385 
L 230.971364 196.18385 
L 230.971364 195.397932 
L 231.142911 195.397932 
L 231.142911 194.612013 
L 231.394872 194.612013 
L 231.394872 193.826095 
L 232.071765 193.826095 
L 232.12376 192.254257 
L 232.391593 192.254257 
L 232.391711 190.68242 
L 232.636538 190.68242 
L 232.670803 189.110583 
L 232.798193 189.110583 
L 232.842103 185.966909 
L 233.355926 185.966909 
L 233.355926 185.18099 
L 233.757601 185.18099 
L 233.757601 184.395072 
L 234.409203 184.395072 
L 234.409203 183.609153 
L 234.539882 183.609153 
L 234.539882 182.823234 
L 234.678567 182.823234 
L 234.738688 181.251397 
L 234.851409 181.251397 
L 234.851409 180.465479 
L 235.299896 180.465479 
L 235.299896 179.67956 
L 235.461718 179.67956 
L 235.461718 178.893641 
L 235.717119 178.893641 
L 235.717119 178.107723 
L 236.077515 178.107723 
L 236.077515 177.321804 
L 236.857268 177.321804 
L 236.857268 176.535886 
L 237.542293 176.535886 
L 237.587004 174.964048 
L 237.669941 174.964048 
L 237.669941 174.17813 
L 238.017805 174.17813 
L 238.017805 173.392211 
L 238.215764 173.392211 
L 238.215764 172.606293 
L 238.446612 172.606293 
L 238.446612 171.820374 
L 238.638136 171.820374 
L 238.638136 171.034455 
L 238.763332 171.034455 
L 238.763332 170.248537 
L 238.993476 170.248537 
L 239.079526 168.6767 
L 239.238487 168.6767 
L 239.257208 167.104862 
L 239.370765 167.104862 
L 239.463405 165.533025 
L 239.913252 165.533025 
L 239.926748 163.961188 
L 240.147149 163.961188 
L 240.219622 162.389351 
L 240.391056 162.389351 
L 240.391056 161.603432 
L 241.313587 161.603432 
L 241.353062 160.031595 
L 241.755822 160.031595 
L 241.848895 158.459758 
L 242.231522 158.459758 
L 242.231522 157.673839 
L 242.426105 157.673839 
L 242.489388 156.102002 
L 242.61226 156.102002 
L 242.651016 154.530165 
L 242.797869 154.530165 
L 242.797869 153.744246 
L 243.262005 153.744246 
L 243.262005 152.958328 
L 243.502348 152.958328 
L 243.502348 152.172409 
L 243.706075 152.172409 
L 243.767785 150.600572 
L 244.362112 150.600572 
L 244.374498 149.028735 
L 244.557774 149.028735 
L 244.618518 146.670979 
L 244.714576 146.670979 
L 244.818449 144.313223 
L 245.147717 144.313223 
L 245.147717 143.527305 
L 245.294659 143.527305 
L 245.294659 142.741386 
L 245.479043 142.741386 
L 245.479043 141.955468 
L 245.905686 141.955468 
L 245.905686 141.169549 
L 246.18141 141.169549 
L 246.207401 139.597712 
L 246.671219 139.597712 
L 246.671219 138.811793 
L 246.959105 138.811793 
L 246.959105 138.025875 
L 247.128629 138.025875 
L 247.133355 136.454037 
L 247.310954 136.454037 
L 247.310954 135.668119 
L 247.516186 135.668119 
L 247.516186 134.8822 
L 248.160158 134.8822 
L 248.160158 134.096282 
L 248.604271 134.096282 
L 248.624261 131.738526 
L 248.725759 131.738526 
L 248.786097 129.38077 
L 248.838943 129.38077 
L 248.933748 122.307503 
L 248.962061 122.307503 
L 249.047911 119.949747 
L 249.073871 119.949747 
L 249.073871 119.163828 
L 249.307902 119.163828 
L 249.307902 118.37791 
L 249.547345 118.37791 
L 249.547345 117.591991 
L 249.932335 117.591991 
L 249.949362 116.020154 
L 250.347266 116.020154 
L 250.347266 115.234235 
L 250.729478 115.234235 
L 250.729478 114.448317 
L 250.882694 114.448317 
L 250.958475 112.090561 
L 251.466784 112.090561 
L 251.546862 110.518724 
L 251.638771 110.518724 
L 251.638771 109.732805 
L 251.832864 109.732805 
L 251.856814 108.160968 
L 251.949865 108.160968 
L 251.949865 107.37505 
L 252.104803 107.37505 
L 252.104803 106.589131 
L 252.479838 106.589131 
L 252.479838 105.803212 
L 252.701011 105.803212 
L 252.803277 102.659538 
L 252.92053 102.659538 
L 252.924386 101.087701 
L 253.091726 101.087701 
L 253.091726 100.301782 
L 253.254244 100.301782 
L 253.2729 98.729945 
L 253.860982 98.729945 
L 253.941128 97.158108 
L 254.057395 97.158108 
L 254.057395 96.372189 
L 254.320646 96.372189 
L 254.320646 95.586271 
L 255.568077 95.586271 
L 255.568077 94.800352 
L 255.688 94.800352 
L 255.796768 93.228515 
L 255.881804 93.228515 
L 255.881804 92.442596 
L 256.083584 92.442596 
L 256.083584 91.656678 
L 256.394261 91.656678 
L 256.394261 90.870759 
L 256.886923 90.870759 
L 256.886923 90.08484 
L 257.258618 90.08484 
L 257.258618 89.298922 
L 257.8171 89.298922 
L 257.838118 87.727085 
L 258.217469 87.727085 
L 258.257716 86.155248 
L 259.059234 86.155248 
L 259.144356 84.58341 
L 259.18238 84.58341 
L 259.18238 83.797492 
L 259.328305 83.797492 
L 259.387228 82.225655 
L 259.740666 82.225655 
L 259.74586 80.653817 
L 259.903867 80.653817 
L 259.903867 79.867899 
L 260.017375 79.867899 
L 260.03179 77.510143 
L 260.133813 77.510143 
L 260.133813 76.724224 
L 260.271468 76.724224 
L 260.33252 74.366469 
L 260.400271 74.366469 
L 260.400271 73.58055 
L 261.34061 73.58055 
L 261.34061 72.794631 
L 261.482988 72.794631 
L 261.529229 70.436876 
L 261.887733 70.436876 
L 261.95757 68.07912 
L 262.172827 68.07912 
L 262.281633 65.721364 
L 262.372234 65.721364 
L 262.372234 64.935446 
L 262.912559 64.935446 
L 262.912559 64.149527 
L 263.707236 64.149527 
L 263.707236 63.363608 
L 263.862669 63.363608 
L 263.862669 62.57769 
L 264.719592 62.57769 
L 264.806395 61.005853 
L 265.192408 61.005853 
L 265.296597 58.648097 
L 265.487688 58.648097 
L 265.593866 55.504422 
L 265.701805 55.504422 
L 265.780927 53.932585 
L 266.245461 53.932585 
L 266.251464 51.574829 
L 266.837117 51.574829 
L 266.915274 49.217074 
L 267.211982 49.217074 
L 267.211982 48.431155 
L 267.328273 48.431155 
L 267.328273 47.645237 
L 267.718706 47.645237 
L 267.73338 46.073399 
L 268.188105 46.073399 
L 268.188105 45.287481 
L 268.673065 45.287481 
L 268.696539 43.715644 
L 268.811266 43.715644 
L 268.811266 42.929725 
L 269.492146 42.929725 
L 269.559598 40.571969 
L 269.787257 40.571969 
L 269.797692 39.000132 
L 270.11346 39.000132 
L 270.115963 37.428295 
L 270.349938 37.428295 
L 270.365449 35.856458 
L 270.681258 35.856458 
L 270.681258 35.070539 
L 271.352246 35.070539 
L 271.352246 34.28462 
L 271.554444 34.28462 
L 271.554444 33.498702 
L 271.980653 33.498702 
L 271.980653 32.712783 
L 272.121365 32.712783 
L 272.121365 31.926865 
L 272.984994 31.926865 
L 272.984994 31.140946 
L 273.237923 31.140946 
L 273.237923 30.355028 
L 273.510429 30.355028 
L 273.510429 29.569109 
L 274.232369 29.569109 
L 274.232369 28.78319 
L 275.356606 28.78319 
L 275.356606 27.997272 
L 276.569773 27.997272 
L 276.662303 25.639516 
L 276.776844 25.639516 
L 276.776844 24.853597 
L 276.969462 24.853597 
L 276.969462 24.067679 
L 277.793764 24.067679 
L 277.847381 22.495842 
L 277.949839 22.495842 
L 277.960548 20.924004 
L 278.318806 20.924004 
L 278.318806 20.138086 
L 278.472602 20.138086 
L 278.472602 19.352167 
L 278.834391 19.352167 
L 278.834391 18.566249 
L 278.986621 18.566249 
L 278.986621 17.78033 
L 279.122414 17.78033 
L 279.122414 16.994411 
L 281.854135 16.994411 
L 281.854135 16.208493 
L 283.767632 16.208493 
L 283.767632 15.422574 
L 284.207174 15.422574 
L 284.21603 13.850737 
L 285.999218 13.850737 
L 285.999218 13.064818 
L 298.464029 13.064818 
L 298.464029 12.2789 
L 299.015187 12.2789 
L 299.015187 11.492981 
L 307.717202 11.492981 
L 307.717202 10.707063 
L 313.022832 10.707063 
L 313.022832 9.921144 
L 321.734833 9.921144 
L 321.734833 9.135226 
L 322.494124 9.135226 
L 322.494124 8.349307 
L 322.494124 8.349307 
L 450.672 8.349307 
L 450.672 8.349307 
" style="fill:none;stroke:#ff0000;stroke-linecap:square;stroke-width:3;"/>
   </g>
   <g id="line2d_24">
    <path clip-path="url(#p7d828c8525)" d="M 194.955409 291.28 
L 195.039328 288.136326 
L 195.079839 288.136326 
L 195.187509 285.77857 
L 195.256575 285.77857 
L 195.256575 279.491221 
L 227.237494 279.491221 
L 227.237494 278.705303 
L 229.949106 278.705303 
L 229.949106 277.919384 
L 230.113888 277.919384 
L 230.113888 277.133465 
L 230.259395 277.133465 
L 230.259395 276.347547 
L 231.806325 276.347547 
L 231.913943 274.77571 
L 233.222869 274.77571 
L 233.222869 273.989791 
L 234.087522 273.989791 
L 234.087522 273.203872 
L 235.219081 273.203872 
L 235.219081 272.417954 
L 235.711808 272.417954 
L 235.711808 271.632035 
L 235.984722 271.632035 
L 235.984722 270.846117 
L 237.022044 270.846117 
L 237.022044 270.060198 
L 237.157786 270.060198 
L 237.157786 269.274279 
L 237.767596 269.274279 
L 237.767596 268.488361 
L 238.210559 268.488361 
L 238.210559 267.702442 
L 238.882327 267.702442 
L 238.882327 266.916524 
L 239.120464 266.916524 
L 239.15332 265.344686 
L 239.370765 265.344686 
L 239.370765 264.558768 
L 239.575435 264.558768 
L 239.575435 263.772849 
L 239.812394 263.772849 
L 239.812394 262.986931 
L 239.959503 262.986931 
L 239.959503 262.201012 
L 240.868549 262.201012 
L 240.868549 261.415094 
L 241.30043 261.415094 
L 241.30043 260.629175 
L 241.80174 260.629175 
L 241.896178 259.057338 
L 241.990077 259.057338 
L 241.990077 258.271419 
L 242.189043 258.271419 
L 242.189043 257.485501 
L 242.797869 257.485501 
L 242.797869 256.699582 
L 243.398895 256.699582 
L 243.404027 255.127745 
L 243.866308 255.127745 
L 243.866308 254.341826 
L 244.178708 254.341826 
L 244.198726 252.769989 
L 244.575344 252.769989 
L 244.575344 251.98407 
L 245.081686 251.98407 
L 245.081686 251.198152 
L 245.211014 251.198152 
L 245.265531 249.626315 
L 246.178116 249.626315 
L 246.178116 248.840396 
L 246.550512 248.840396 
L 246.550512 248.054477 
L 246.821178 248.054477 
L 246.913564 245.696722 
L 246.992293 245.696722 
L 247.035941 233.122024 
L 247.287609 233.122024 
L 247.376162 231.550187 
L 247.458632 231.550187 
L 247.458632 230.764268 
L 248.95342 230.764268 
L 248.997735 229.192431 
L 249.096731 229.192431 
L 249.203005 227.620594 
L 249.236642 227.620594 
L 249.236642 226.834675 
L 249.547345 226.834675 
L 249.547345 226.048757 
L 249.896121 226.048757 
L 249.896121 225.262838 
L 250.023934 225.262838 
L 250.115407 222.905083 
L 250.163584 222.905083 
L 250.163584 222.119164 
L 250.634909 222.119164 
L 250.698772 220.547327 
L 250.806685 220.547327 
L 250.806685 219.761408 
L 251.277693 219.761408 
L 251.277693 218.97549 
L 251.707028 218.97549 
L 251.707028 218.189571 
L 251.82732 218.189571 
L 251.856814 216.617734 
L 252.097336 216.617734 
L 252.097336 215.831815 
L 252.517068 215.831815 
L 252.534303 214.259978 
L 252.899816 214.259978 
L 252.937115 212.688141 
L 253.061932 212.688141 
L 253.165022 211.116304 
L 253.254244 211.116304 
L 253.254244 210.330385 
L 253.499266 210.330385 
L 253.542815 208.758548 
L 253.990403 208.758548 
L 254.067562 207.186711 
L 254.217276 207.186711 
L 254.217276 206.400792 
L 254.920677 206.400792 
L 254.920677 205.614873 
L 255.142345 205.614873 
L 255.142345 204.828955 
L 255.445941 204.828955 
L 255.502271 203.257118 
L 255.648899 203.257118 
L 255.714952 201.685281 
L 256.05533 201.685281 
L 256.05533 200.899362 
L 256.225214 200.899362 
L 256.225214 200.113443 
L 256.586651 200.113443 
L 256.618041 198.541606 
L 256.762752 198.541606 
L 256.780445 196.969769 
L 256.975337 196.969769 
L 256.975337 196.18385 
L 257.384053 196.18385 
L 257.409335 194.612013 
L 257.789401 194.612013 
L 257.871539 190.68242 
L 257.932562 190.68242 
L 257.994228 187.538746 
L 258.215222 187.538746 
L 258.215222 186.752827 
L 258.500958 186.752827 
L 258.611322 185.18099 
L 258.775931 185.18099 
L 258.81869 182.823234 
L 258.950707 182.823234 
L 258.950707 182.037316 
L 259.09367 182.037316 
L 259.09367 181.251397 
L 259.248213 181.251397 
L 259.248213 180.465479 
L 259.459628 180.465479 
L 259.55986 178.107723 
L 259.60132 178.107723 
L 259.60132 177.321804 
L 260.03179 177.321804 
L 260.03179 176.535886 
L 260.456607 176.535886 
L 260.456607 175.749967 
L 260.645229 175.749967 
L 260.645229 174.964048 
L 261.070011 174.964048 
L 261.106297 172.606293 
L 261.27016 172.606293 
L 261.340629 170.248537 
L 261.40196 170.248537 
L 261.512479 166.318944 
L 261.585412 166.318944 
L 261.595021 164.747107 
L 262.017069 164.747107 
L 262.068122 163.17527 
L 262.350101 163.17527 
L 262.407825 161.603432 
L 262.584716 161.603432 
L 262.584716 160.817514 
L 262.847695 160.817514 
L 262.847721 149.028735 
L 263.052326 149.028735 
L 263.052326 148.242816 
L 263.833727 148.242816 
L 263.869879 146.670979 
L 264.093036 146.670979 
L 264.168216 145.099142 
L 264.565213 145.099142 
L 264.58654 142.741386 
L 264.679893 142.741386 
L 264.724909 141.169549 
L 264.985968 141.169549 
L 264.985968 140.38363 
L 265.108571 140.38363 
L 265.144101 138.811793 
L 265.222776 138.811793 
L 265.222776 138.025875 
L 265.602023 138.025875 
L 265.602023 137.239956 
L 265.89562 137.239956 
L 265.927528 135.668119 
L 266.028413 135.668119 
L 266.028413 134.8822 
L 266.19928 134.8822 
L 266.19928 134.096282 
L 266.539278 134.096282 
L 266.606439 132.524444 
L 266.675895 132.524444 
L 266.675895 131.738526 
L 266.902857 131.738526 
L 266.902857 130.952607 
L 267.066567 130.952607 
L 267.066567 130.166689 
L 267.384564 130.166689 
L 267.384564 129.38077 
L 267.823945 129.38077 
L 267.823945 128.594851 
L 267.996395 128.594851 
L 268.08275 127.023014 
L 268.263559 127.023014 
L 268.263559 126.237096 
L 268.811266 126.237096 
L 268.811266 125.451177 
L 268.967866 125.451177 
L 268.967866 124.665259 
L 269.198273 124.665259 
L 269.270691 123.093421 
L 269.563213 123.093421 
L 269.610547 121.521584 
L 269.797692 121.521584 
L 269.825168 119.949747 
L 270.365449 119.949747 
L 270.365449 119.163828 
L 270.550173 119.163828 
L 270.647455 116.806073 
L 271.667534 116.806073 
L 271.667534 116.020154 
L 272.026819 116.020154 
L 272.026819 115.234235 
L 272.230056 115.234235 
L 272.287394 113.662398 
L 272.487275 113.662398 
L 272.574338 112.090561 
L 272.61217 112.090561 
L 272.61217 111.304642 
L 273.077906 111.304642 
L 273.077906 110.518724 
L 273.237923 110.518724 
L 273.237923 109.732805 
L 273.510429 109.732805 
L 273.510429 108.946887 
L 276.635507 108.946887 
L 276.635507 108.160968 
L 276.920551 108.160968 
L 276.983118 106.589131 
L 277.960548 106.589131 
L 278.060563 105.017294 
L 278.116577 105.017294 
L 278.152177 103.445457 
L 278.268314 103.445457 
L 278.268314 102.659538 
L 278.809012 102.659538 
L 278.809012 101.873619 
L 279.122414 101.873619 
L 279.122414 101.087701 
L 280.137727 101.087701 
L 280.137727 100.301782 
L 280.995671 100.301782 
L 280.995671 99.515864 
L 284.207174 99.515864 
L 284.207174 98.729945 
L 284.965263 98.729945 
L 284.965263 97.944026 
L 285.343417 97.944026 
L 285.343417 97.158108 
L 286.355253 97.158108 
L 286.355253 96.372189 
L 287.506009 96.372189 
L 287.506009 95.586271 
L 287.967813 95.586271 
L 287.967813 94.800352 
L 288.192206 94.800352 
L 288.200676 93.228515 
L 289.388341 93.228515 
L 289.388341 92.442596 
L 290.30945 92.442596 
L 290.30945 91.656678 
L 290.821744 91.656678 
L 290.821744 90.870759 
L 291.85976 90.870759 
L 291.85976 90.08484 
L 294.577833 90.08484 
L 294.577833 89.298922 
L 294.905883 89.298922 
L 294.905883 88.513003 
L 298.214406 88.513003 
L 298.214406 87.727085 
L 302.874038 87.727085 
L 302.874038 86.941166 
L 303.658523 86.941166 
L 303.658523 86.155248 
L 305.754543 86.155248 
L 305.754543 85.369329 
L 305.926266 85.369329 
L 305.926266 84.58341 
L 307.898785 84.58341 
L 307.898785 83.797492 
L 308.68568 83.797492 
L 308.68568 72.008713 
L 310.229237 72.008713 
L 310.229237 71.222794 
L 314.856777 71.222794 
L 314.856777 70.436876 
L 316.021272 70.436876 
L 316.021272 69.650957 
L 316.916479 69.650957 
L 316.916479 68.865039 
L 317.458446 68.865039 
L 317.458446 68.07912 
L 318.335773 68.07912 
L 318.335773 67.293201 
L 319.935411 67.293201 
L 320.036831 65.721364 
L 323.187091 65.721364 
L 323.187091 64.935446 
L 325.237394 64.935446 
L 325.237394 64.149527 
L 329.199366 64.149527 
L 329.199366 63.363608 
L 329.826158 63.363608 
L 329.826158 62.57769 
L 330.771666 62.57769 
L 330.771666 61.791771 
L 332.339623 61.791771 
L 332.339623 61.005853 
L 333.936769 61.005853 
L 333.936769 60.219934 
L 334.490539 60.219934 
L 334.490539 59.434015 
L 336.402768 59.434015 
L 336.402768 58.648097 
L 338.719519 58.648097 
L 338.719519 57.862178 
L 339.847419 57.862178 
L 339.847419 57.07626 
L 340.339112 57.07626 
L 340.339112 56.290341 
L 340.794885 56.290341 
L 340.794885 55.504422 
L 342.130554 55.504422 
L 342.130554 54.718504 
L 343.029908 54.718504 
L 343.029908 53.932585 
L 344.328003 53.932585 
L 344.328003 53.146667 
L 346.139824 53.146667 
L 346.139824 52.360748 
L 347.58795 52.360748 
L 347.58795 51.574829 
L 350.850801 51.574829 
L 350.850801 50.788911 
L 351.000235 50.788911 
L 351.000235 50.002992 
L 352.006535 50.002992 
L 352.006535 49.217074 
L 353.23803 49.217074 
L 353.23803 48.431155 
L 355.378237 48.431155 
L 355.378237 47.645237 
L 355.828235 47.645237 
L 355.828235 46.859318 
L 356.91343 46.859318 
L 356.91343 46.073399 
L 358.552386 46.073399 
L 358.552386 45.287481 
L 359.211319 45.287481 
L 359.211319 44.501562 
L 367.16561 44.501562 
L 367.16561 43.715644 
L 370.82306 43.715644 
L 370.82306 42.929725 
L 372.010956 42.929725 
L 372.010956 42.143806 
L 372.3219 42.143806 
L 372.3219 41.357888 
L 373.761417 41.357888 
L 373.761417 40.571969 
L 374.178283 40.571969 
L 374.178283 39.786051 
L 374.858567 39.786051 
L 374.858567 39.000132 
L 377.399265 39.000132 
L 377.399265 38.214213 
L 378.98994 38.214213 
L 378.98994 37.428295 
L 379.151888 37.428295 
L 379.151888 36.642376 
L 379.998 36.642376 
L 379.998 35.856458 
L 382.226606 35.856458 
L 382.226606 35.070539 
L 382.77006 35.070539 
L 382.77006 34.28462 
L 383.535581 34.28462 
L 383.535581 33.498702 
L 384.459783 33.498702 
L 384.459783 32.712783 
L 384.642917 32.712783 
L 384.684187 31.140946 
L 385.621047 31.140946 
L 385.621047 30.355028 
L 385.911682 30.355028 
L 385.911682 29.569109 
L 387.052519 29.569109 
L 387.052519 28.78319 
L 387.766383 28.78319 
L 387.766383 27.997272 
L 388.254725 27.997272 
L 388.254725 27.211353 
L 388.704035 27.211353 
L 388.704035 26.425435 
L 389.189059 26.425435 
L 389.189059 25.639516 
L 389.313676 25.639516 
L 389.420377 24.067679 
L 390.482626 24.067679 
L 390.482626 23.28176 
L 391.831137 23.28176 
L 391.831137 22.495842 
L 392.613227 22.495842 
L 392.613227 21.709923 
L 393.208207 21.709923 
L 393.271526 20.138086 
L 395.687123 20.138086 
L 395.687123 19.352167 
L 396.238417 19.352167 
L 396.238417 18.566249 
L 397.489285 18.566249 
L 397.489285 17.78033 
L 398.698995 17.78033 
L 398.698995 16.994411 
L 399.170732 16.994411 
L 399.170732 16.208493 
L 400.46496 16.208493 
L 400.46496 15.422574 
L 403.531558 15.422574 
L 403.531558 14.636656 
L 405.744787 14.636656 
L 405.744787 13.850737 
L 409.786808 13.850737 
L 409.786808 13.064818 
L 410.242688 13.064818 
L 410.242688 12.2789 
L 410.834883 12.2789 
L 410.834883 11.492981 
L 411.124271 11.492981 
L 411.124271 10.707063 
L 420.6539 10.707063 
L 420.6539 9.921144 
L 421.492933 9.921144 
L 421.492933 9.135226 
L 427.811398 9.135226 
L 427.811398 8.349307 
L 427.811398 8.349307 
L 450.672 8.349307 
L 450.672 8.349307 
" style="fill:none;stroke:#00bfbf;stroke-linecap:square;stroke-width:1.5;"/>
   </g>
   <g id="line2d_25">
    <path clip-path="url(#p7d828c8525)" d="M 194.930698 291.28 
L 195.011401 284.206733 
L 195.067877 284.206733 
L 195.163923 281.063058 
L 195.232052 281.063058 
L 195.241575 279.491221 
L 227.236977 279.491221 
L 227.236977 278.705303 
L 229.949106 278.705303 
L 229.949106 277.919384 
L 230.113234 277.919384 
L 230.113234 277.133465 
L 230.258579 277.133465 
L 230.258579 276.347547 
L 231.805941 276.347547 
L 231.891343 274.77571 
L 233.219561 274.77571 
L 233.219561 273.989791 
L 234.082564 273.989791 
L 234.082564 273.203872 
L 235.050794 273.203872 
L 235.050794 272.417954 
L 235.710054 272.417954 
L 235.710054 271.632035 
L 235.984722 271.632035 
L 235.984722 270.846117 
L 237.022044 270.846117 
L 237.022044 270.060198 
L 237.157786 270.060198 
L 237.157786 269.274279 
L 237.767596 269.274279 
L 237.767596 268.488361 
L 238.210105 268.488361 
L 238.210105 267.702442 
L 238.882327 267.702442 
L 238.882327 266.916524 
L 239.099927 266.916524 
L 239.119737 265.344686 
L 239.370765 265.344686 
L 239.370765 264.558768 
L 239.574545 264.558768 
L 239.574545 263.772849 
L 239.812394 263.772849 
L 239.862084 262.201012 
L 240.740217 262.201012 
L 240.740217 261.415094 
L 240.866656 261.415094 
L 240.866656 260.629175 
L 241.796515 260.629175 
L 241.89481 259.057338 
L 241.990077 259.057338 
L 241.990077 258.271419 
L 242.18232 258.271419 
L 242.18232 257.485501 
L 242.797869 257.485501 
L 242.797869 256.699582 
L 243.395972 256.699582 
L 243.404027 255.127745 
L 243.865668 255.127745 
L 243.865668 254.341826 
L 244.129581 254.341826 
L 244.178059 252.769989 
L 244.382665 252.769989 
L 244.382665 251.98407 
L 245.081492 251.98407 
L 245.083827 250.412233 
L 245.265247 250.412233 
L 245.265247 249.626315 
L 246.176866 249.626315 
L 246.176866 248.840396 
L 246.550498 248.840396 
L 246.550498 248.054477 
L 246.727334 248.054477 
L 246.821178 246.48264 
L 246.891461 246.48264 
L 246.996914 233.907943 
L 247.035883 233.907943 
L 247.035883 233.122024 
L 247.285124 233.122024 
L 247.374774 231.550187 
L 247.457853 231.550187 
L 247.457853 230.764268 
L 248.95342 230.764268 
L 248.997559 229.192431 
L 249.081612 229.192431 
L 249.081612 228.406513 
L 249.19623 228.406513 
L 249.203005 226.834675 
L 249.547345 226.834675 
L 249.547345 226.048757 
L 249.862881 226.048757 
L 249.862881 225.262838 
L 250.023714 225.262838 
L 250.115407 222.905083 
L 250.162222 222.905083 
L 250.162222 222.119164 
L 250.618116 222.119164 
L 250.687989 219.761408 
L 251.277663 219.761408 
L 251.277663 218.97549 
L 251.659332 218.97549 
L 251.659332 218.189571 
L 251.82732 218.189571 
L 251.856814 216.617734 
L 252.097327 216.617734 
L 252.097327 215.831815 
L 252.456193 215.831815 
L 252.531326 214.259978 
L 252.899816 214.259978 
L 252.937115 212.688141 
L 253.061468 212.688141 
L 253.15633 211.116304 
L 253.254244 211.116304 
L 253.254244 210.330385 
L 253.497722 210.330385 
L 253.541752 208.758548 
L 253.990403 208.758548 
L 254.067562 207.186711 
L 254.215952 207.186711 
L 254.215952 206.400792 
L 254.920677 206.400792 
L 254.920677 205.614873 
L 255.141942 205.614873 
L 255.141942 204.828955 
L 255.445554 204.828955 
L 255.502114 203.257118 
L 255.646848 203.257118 
L 255.692497 201.685281 
L 256.045346 201.685281 
L 256.045346 200.899362 
L 256.225214 200.899362 
L 256.225214 200.113443 
L 256.586133 200.113443 
L 256.616438 198.541606 
L 256.76174 198.541606 
L 256.779782 196.969769 
L 256.974013 196.969769 
L 256.974013 196.18385 
L 257.383595 196.18385 
L 257.408985 194.612013 
L 257.780597 194.612013 
L 257.869492 190.68242 
L 257.912208 190.68242 
L 257.994156 187.538746 
L 258.215222 187.538746 
L 258.215222 186.752827 
L 258.500958 186.752827 
L 258.611247 185.18099 
L 258.775683 185.18099 
L 258.818486 182.823234 
L 258.950513 182.823234 
L 258.950513 182.037316 
L 259.08913 182.037316 
L 259.08913 181.251397 
L 259.246031 181.251397 
L 259.246031 180.465479 
L 259.398449 180.465479 
L 259.456607 178.893641 
L 259.532426 178.893641 
L 259.601301 177.321804 
L 260.03179 177.321804 
L 260.03179 176.535886 
L 260.44875 176.535886 
L 260.44875 175.749967 
L 260.638654 175.749967 
L 260.638654 174.964048 
L 261.045924 174.964048 
L 261.085764 172.606293 
L 261.264089 172.606293 
L 261.337661 170.248537 
L 261.398573 170.248537 
L 261.490412 166.318944 
L 261.567355 166.318944 
L 261.571154 164.747107 
L 262.013115 164.747107 
L 262.050597 163.17527 
L 262.343327 163.17527 
L 262.390308 161.603432 
L 262.483455 161.603432 
L 262.483455 160.817514 
L 262.847462 160.817514 
L 262.847695 149.028735 
L 263.0493 149.028735 
L 263.0493 148.242816 
L 263.832234 148.242816 
L 263.867904 146.670979 
L 263.981451 146.670979 
L 263.981451 145.885061 
L 264.165994 145.885061 
L 264.165994 145.099142 
L 264.565128 145.099142 
L 264.5844 142.741386 
L 264.676844 142.741386 
L 264.719472 141.169549 
L 264.985968 141.169549 
L 264.985968 140.38363 
L 265.107662 140.38363 
L 265.215393 138.025875 
L 265.581105 138.025875 
L 265.581105 137.239956 
L 265.874336 137.239956 
L 265.927261 135.668119 
L 266.026473 135.668119 
L 266.026473 134.8822 
L 266.197168 134.8822 
L 266.197168 134.096282 
L 266.538428 134.096282 
L 266.606439 132.524444 
L 266.675895 132.524444 
L 266.675895 131.738526 
L 266.902857 131.738526 
L 266.902857 130.952607 
L 267.065395 130.952607 
L 267.065395 130.166689 
L 267.346896 130.166689 
L 267.346896 129.38077 
L 267.822164 129.38077 
L 267.822164 128.594851 
L 267.996395 128.594851 
L 268.082379 127.023014 
L 268.262674 127.023014 
L 268.262674 126.237096 
L 268.811266 126.237096 
L 268.811266 125.451177 
L 268.966274 125.451177 
L 268.966274 124.665259 
L 269.196702 124.665259 
L 269.270659 123.093421 
L 269.562968 123.093421 
L 269.610547 121.521584 
L 269.797692 121.521584 
L 269.824851 119.949747 
L 270.365449 119.949747 
L 270.365449 119.163828 
L 270.55016 119.163828 
L 270.647455 116.806073 
L 271.666566 116.806073 
L 271.666566 116.020154 
L 272.024668 116.020154 
L 272.024668 115.234235 
L 272.206182 115.234235 
L 272.230056 113.662398 
L 272.484293 113.662398 
L 272.572618 112.090561 
L 272.611709 112.090561 
L 272.611709 111.304642 
L 273.076261 111.304642 
L 273.076261 110.518724 
L 273.237923 110.518724 
L 273.237923 109.732805 
L 273.510429 109.732805 
L 273.510429 108.946887 
L 276.63497 108.946887 
L 276.63497 108.160968 
L 276.920096 108.160968 
L 276.980785 106.589131 
L 277.960548 106.589131 
L 278.060563 105.017294 
L 278.116577 105.017294 
L 278.150898 103.445457 
L 278.26713 103.445457 
L 278.26713 102.659538 
L 278.807765 102.659538 
L 278.807765 101.873619 
L 279.122414 101.873619 
L 279.122414 101.087701 
L 280.137727 101.087701 
L 280.137727 100.301782 
L 280.995581 100.301782 
L 280.995581 99.515864 
L 284.207174 99.515864 
L 284.207174 98.729945 
L 284.964659 98.729945 
L 284.964659 97.944026 
L 285.343417 97.944026 
L 285.343417 97.158108 
L 286.355253 97.158108 
L 286.355253 96.372189 
L 287.505927 96.372189 
L 287.505927 95.586271 
L 287.967445 95.586271 
L 287.967445 94.800352 
L 288.192153 94.800352 
L 288.200466 93.228515 
L 289.387901 93.228515 
L 289.387901 92.442596 
L 290.30945 92.442596 
L 290.30945 91.656678 
L 290.821744 91.656678 
L 290.821744 90.870759 
L 291.859507 90.870759 
L 291.859507 90.08484 
L 294.577833 90.08484 
L 294.577833 89.298922 
L 294.905808 89.298922 
L 294.905808 88.513003 
L 298.214406 88.513003 
L 298.214406 87.727085 
L 302.874038 87.727085 
L 302.874038 86.941166 
L 303.657762 86.941166 
L 303.657762 86.155248 
L 305.753956 86.155248 
L 305.753956 85.369329 
L 305.924845 85.369329 
L 305.924845 84.58341 
L 307.898196 84.58341 
L 307.898196 83.797492 
L 308.681715 83.797492 
L 308.68568 72.008713 
L 310.228861 72.008713 
L 310.228861 71.222794 
L 314.856269 71.222794 
L 314.856269 70.436876 
L 316.021191 70.436876 
L 316.021191 69.650957 
L 316.915775 69.650957 
L 316.915775 68.865039 
L 317.458051 68.865039 
L 317.458051 68.07912 
L 318.335425 68.07912 
L 318.335425 67.293201 
L 319.935149 67.293201 
L 320.036373 65.721364 
L 323.186742 65.721364 
L 323.186742 64.935446 
L 325.237394 64.935446 
L 325.237394 64.149527 
L 329.181619 64.149527 
L 329.181619 63.363608 
L 329.826158 63.363608 
L 329.826158 62.57769 
L 330.771666 62.57769 
L 330.771666 61.791771 
L 332.338329 61.791771 
L 332.338329 61.005853 
L 333.936474 61.005853 
L 333.936474 60.219934 
L 334.489927 60.219934 
L 334.489927 59.434015 
L 336.402768 59.434015 
L 336.402768 58.648097 
L 338.703099 58.648097 
L 338.703099 57.862178 
L 339.847414 57.862178 
L 339.847414 57.07626 
L 340.338983 57.07626 
L 340.338983 56.290341 
L 340.79461 56.290341 
L 340.79461 55.504422 
L 342.124582 55.504422 
L 342.124582 54.718504 
L 343.028397 54.718504 
L 343.028397 53.932585 
L 344.327234 53.932585 
L 344.327234 53.146667 
L 346.139086 53.146667 
L 346.139086 52.360748 
L 347.584832 52.360748 
L 347.584832 51.574829 
L 350.850723 51.574829 
L 350.850723 50.788911 
L 350.999844 50.788911 
L 350.999844 50.002992 
L 352.006191 50.002992 
L 352.006191 49.217074 
L 353.232699 49.217074 
L 353.232699 48.431155 
L 355.378237 48.431155 
L 355.378237 47.645237 
L 355.828235 47.645237 
L 355.828235 46.859318 
L 356.912506 46.859318 
L 356.912506 46.073399 
L 358.55236 46.073399 
L 358.55236 45.287481 
L 359.205845 45.287481 
L 359.205845 44.501562 
L 367.164531 44.501562 
L 367.164531 43.715644 
L 370.82306 43.715644 
L 370.82306 42.929725 
L 372.010956 42.929725 
L 372.010956 42.143806 
L 372.32189 42.143806 
L 372.32189 41.357888 
L 373.761165 41.357888 
L 373.761165 40.571969 
L 374.178283 40.571969 
L 374.178283 39.786051 
L 374.85845 39.786051 
L 374.85845 39.000132 
L 377.396548 39.000132 
L 377.396548 38.214213 
L 378.98994 38.214213 
L 378.98994 37.428295 
L 379.149822 37.428295 
L 379.149822 36.642376 
L 379.997095 36.642376 
L 379.997095 35.856458 
L 382.225733 35.856458 
L 382.225733 35.070539 
L 382.768275 35.070539 
L 382.768275 34.28462 
L 383.534542 34.28462 
L 383.534542 33.498702 
L 384.457883 33.498702 
L 384.457883 32.712783 
L 384.640815 32.712783 
L 384.683019 31.140946 
L 385.621047 31.140946 
L 385.621047 30.355028 
L 385.910213 30.355028 
L 385.910213 29.569109 
L 387.052048 29.569109 
L 387.052048 28.78319 
L 387.765723 28.78319 
L 387.765723 27.997272 
L 388.254725 27.997272 
L 388.254725 27.211353 
L 388.704028 27.211353 
L 388.704028 26.425435 
L 389.188411 26.425435 
L 389.188411 25.639516 
L 389.312604 25.639516 
L 389.420376 24.067679 
L 390.48037 24.067679 
L 390.48037 23.28176 
L 391.831136 23.28176 
L 391.831136 22.495842 
L 392.613227 22.495842 
L 392.613227 21.709923 
L 393.208142 21.709923 
L 393.269855 20.138086 
L 395.68605 20.138086 
L 395.68605 19.352167 
L 396.237674 19.352167 
L 396.237674 18.566249 
L 397.488842 18.566249 
L 397.488842 17.78033 
L 398.69867 17.78033 
L 398.69867 16.994411 
L 399.170228 16.994411 
L 399.170228 16.208493 
L 400.464208 16.208493 
L 400.464208 15.422574 
L 403.530827 15.422574 
L 403.530827 14.636656 
L 405.74426 14.636656 
L 405.74426 13.850737 
L 409.785498 13.850737 
L 409.785498 13.064818 
L 410.240841 13.064818 
L 410.240841 12.2789 
L 410.834883 12.2789 
L 410.834883 11.492981 
L 411.123495 11.492981 
L 411.123495 10.707063 
L 420.6539 10.707063 
L 420.6539 9.921144 
L 421.492053 9.921144 
L 421.492053 9.135226 
L 427.810861 9.135226 
L 427.810861 8.349307 
L 427.810861 8.349307 
L 450.672 8.349307 
L 450.672 8.349307 
" style="fill:none;stroke:#bf00bf;stroke-linecap:square;stroke-width:1.5;"/>
   </g>
   <g id="line2d_26">
    <path clip-path="url(#p7d828c8525)" d="M 193.190781 291.28 
L 193.255653 288.136326 
L 193.417379 288.136326 
L 193.474035 286.564488 
L 193.561871 286.564488 
L 193.647626 283.420814 
L 193.676041 283.420814 
L 193.68975 281.848977 
L 193.852163 281.848977 
L 193.932938 280.27714 
L 194.03534 280.27714 
L 194.03534 279.491221 
L 227.230008 279.491221 
L 227.230008 278.705303 
L 229.947203 278.705303 
L 229.947203 277.919384 
L 230.103863 277.919384 
L 230.103863 277.133465 
L 230.244799 277.133465 
L 230.274713 275.561628 
L 231.760778 275.561628 
L 231.760778 274.77571 
L 233.16175 274.77571 
L 233.16175 273.989791 
L 234.027084 273.989791 
L 234.09301 272.417954 
L 235.703545 272.417954 
L 235.703545 271.632035 
L 235.927489 271.632035 
L 235.927489 270.846117 
L 236.366723 270.846117 
L 236.366723 270.060198 
L 237.153327 270.060198 
L 237.153327 269.274279 
L 237.431039 269.274279 
L 237.431039 268.488361 
L 238.187139 268.488361 
L 238.246883 266.916524 
L 238.518086 266.916524 
L 238.518086 266.130605 
L 238.852109 266.130605 
L 238.852109 265.344686 
L 239.113739 265.344686 
L 239.113739 264.558768 
L 239.370765 264.558768 
L 239.427851 262.986931 
L 239.566444 262.986931 
L 239.579108 261.415094 
L 240.849634 261.415094 
L 240.849634 260.629175 
L 241.695768 260.629175 
L 241.695768 259.843256 
L 241.878916 259.843256 
L 241.98535 258.271419 
L 242.160258 258.271419 
L 242.160258 257.485501 
L 242.797869 257.485501 
L 242.797869 256.699582 
L 243.344716 256.699582 
L 243.430162 254.341826 
L 243.577738 254.341826 
L 243.577738 253.555908 
L 243.86057 253.555908 
L 243.86057 252.769989 
L 244.172284 252.769989 
L 244.172284 251.98407 
L 244.3191 251.98407 
L 244.3191 251.198152 
L 245.076401 251.198152 
L 245.076401 250.412233 
L 245.26314 250.412233 
L 245.26314 249.626315 
L 246.169549 249.626315 
L 246.169549 248.840396 
L 246.340275 248.840396 
L 246.340275 248.054477 
L 246.52591 248.054477 
L 246.52591 247.268559 
L 246.817858 247.268559 
L 246.827578 245.696722 
L 246.953497 245.696722 
L 247.030465 233.122024 
L 247.211441 233.122024 
L 247.211441 232.336106 
L 247.368846 232.336106 
L 247.4544 230.764268 
L 248.94981 230.764268 
L 249.040495 228.406513 
L 249.121731 228.406513 
L 249.139279 226.834675 
L 249.543083 226.834675 
L 249.547345 225.262838 
L 250.016209 225.262838 
L 250.083533 222.905083 
L 250.15002 222.905083 
L 250.15002 222.119164 
L 250.495654 222.119164 
L 250.495654 221.333245 
L 250.615139 221.333245 
L 250.63123 219.761408 
L 251.275311 219.761408 
L 251.275311 218.97549 
L 251.617208 218.97549 
L 251.669366 217.403652 
L 251.856814 217.403652 
L 251.927227 215.831815 
L 252.095496 215.831815 
L 252.095496 215.045897 
L 252.490636 215.045897 
L 252.490636 214.259978 
L 252.865576 214.259978 
L 252.929804 212.688141 
L 253.058406 212.688141 
L 253.105216 211.116304 
L 253.254244 211.116304 
L 253.254244 210.330385 
L 253.492469 210.330385 
L 253.528324 208.758548 
L 253.985665 208.758548 
L 254.06072 207.186711 
L 254.207635 207.186711 
L 254.207635 206.400792 
L 254.911644 206.400792 
L 254.911644 205.614873 
L 255.139319 205.614873 
L 255.139319 204.828955 
L 255.44276 204.828955 
L 255.542129 202.471199 
L 255.583579 202.471199 
L 255.583579 201.685281 
L 255.912252 201.685281 
L 255.912252 200.899362 
L 256.138273 200.899362 
L 256.138273 200.113443 
L 256.583095 200.113443 
L 256.609704 198.541606 
L 256.756141 198.541606 
L 256.775825 196.969769 
L 256.967962 196.969769 
L 256.967962 196.18385 
L 257.380807 196.18385 
L 257.407916 194.612013 
L 257.498599 194.612013 
L 257.606505 193.040176 
L 257.783182 193.040176 
L 257.848367 189.896502 
L 257.935246 189.896502 
L 257.992868 187.538746 
L 258.054662 187.538746 
L 258.054662 186.752827 
L 258.498257 186.752827 
L 258.498257 185.966909 
L 258.610447 185.966909 
L 258.610447 185.18099 
L 258.774769 185.18099 
L 258.816366 182.823234 
L 258.925982 182.823234 
L 258.949287 181.251397 
L 259.068573 181.251397 
L 259.171542 179.67956 
L 259.233475 179.67956 
L 259.233475 178.893641 
L 259.385376 178.893641 
L 259.385376 178.107723 
L 259.600641 178.107723 
L 259.600641 177.321804 
L 260.03179 177.321804 
L 260.03179 176.535886 
L 260.414517 176.535886 
L 260.414517 175.749967 
L 260.610071 175.749967 
L 260.610071 174.964048 
L 260.811273 174.964048 
L 260.811273 174.17813 
L 260.957574 174.17813 
L 261.067031 172.606293 
L 261.245542 172.606293 
L 261.317883 170.248537 
L 261.363178 170.248537 
L 261.464496 165.533025 
L 261.567355 165.533025 
L 261.567355 164.747107 
L 261.94059 164.747107 
L 261.980693 163.17527 
L 262.269879 163.17527 
L 262.308798 161.603432 
L 262.455587 161.603432 
L 262.455587 160.817514 
L 262.845909 160.817514 
L 262.846586 149.028735 
L 262.969669 149.028735 
L 262.969669 148.242816 
L 263.798982 148.242816 
L 263.853686 146.670979 
L 263.92074 146.670979 
L 263.92074 145.885061 
L 264.142269 145.885061 
L 264.142269 145.099142 
L 264.555714 145.099142 
L 264.665994 141.955468 
L 264.704126 141.955468 
L 264.704126 141.169549 
L 264.889446 141.169549 
L 264.889446 140.38363 
L 265.084602 140.38363 
L 265.142577 138.025875 
L 265.534822 138.025875 
L 265.534822 137.239956 
L 265.744158 137.239956 
L 265.744158 136.454037 
L 265.914104 136.454037 
L 265.978824 134.8822 
L 266.168036 134.8822 
L 266.168036 134.096282 
L 266.530196 134.096282 
L 266.581513 132.524444 
L 266.651608 132.524444 
L 266.651608 131.738526 
L 266.902857 131.738526 
L 266.902857 130.952607 
L 267.03602 130.952607 
L 267.03602 130.166689 
L 267.252628 130.166689 
L 267.252628 129.38077 
L 267.811876 129.38077 
L 267.811876 128.594851 
L 267.980514 128.594851 
L 268.073395 127.023014 
L 268.255025 127.023014 
L 268.255025 126.237096 
L 268.811266 126.237096 
L 268.811266 125.451177 
L 268.955165 125.451177 
L 268.955165 124.665259 
L 269.189569 124.665259 
L 269.259139 123.093421 
L 269.554765 123.093421 
L 269.597521 121.521584 
L 269.797692 121.521584 
L 269.817578 119.949747 
L 270.365449 119.949747 
L 270.365449 119.163828 
L 270.540508 119.163828 
L 270.640953 116.806073 
L 271.657972 116.806073 
L 271.657972 116.020154 
L 272.006913 116.020154 
L 272.006913 115.234235 
L 272.132188 115.234235 
L 272.202234 113.662398 
L 272.474627 113.662398 
L 272.561407 112.090561 
L 272.589897 112.090561 
L 272.589897 111.304642 
L 273.064331 111.304642 
L 273.064331 110.518724 
L 273.237923 110.518724 
L 273.237923 109.732805 
L 273.510429 109.732805 
L 273.510429 108.946887 
L 276.629026 108.946887 
L 276.629026 108.160968 
L 276.914871 108.160968 
L 276.973707 106.589131 
L 277.960548 106.589131 
L 278.057101 105.017294 
L 278.113989 105.017294 
L 278.143927 103.445457 
L 278.258447 103.445457 
L 278.258447 102.659538 
L 278.802859 102.659538 
L 278.802859 101.873619 
L 279.122414 101.873619 
L 279.122414 101.087701 
L 280.132154 101.087701 
L 280.132154 100.301782 
L 280.991848 100.301782 
L 280.991848 99.515864 
L 284.207174 99.515864 
L 284.207174 98.729945 
L 284.447629 98.729945 
L 284.447629 97.944026 
L 284.961636 97.944026 
L 284.961636 97.158108 
L 286.353167 97.158108 
L 286.353167 96.372189 
L 287.503514 96.372189 
L 287.503514 95.586271 
L 287.965299 95.586271 
L 287.965299 94.800352 
L 288.189465 94.800352 
L 288.196703 93.228515 
L 289.385475 93.228515 
L 289.385475 92.442596 
L 290.307689 92.442596 
L 290.307689 91.656678 
L 290.817011 91.656678 
L 290.817011 90.870759 
L 291.856652 90.870759 
L 291.856652 90.08484 
L 294.575995 90.08484 
L 294.575995 89.298922 
L 294.90431 89.298922 
L 294.90431 88.513003 
L 298.196234 88.513003 
L 298.196234 87.727085 
L 302.850062 87.727085 
L 302.850062 86.941166 
L 303.638082 86.941166 
L 303.638082 86.155248 
L 305.735011 86.155248 
L 305.735011 85.369329 
L 305.912593 85.369329 
L 305.912593 84.58341 
L 307.883283 84.58341 
L 307.883283 83.797492 
L 308.663679 83.797492 
L 308.669065 72.008713 
L 310.210043 72.008713 
L 310.210043 71.222794 
L 314.838566 71.222794 
L 314.838566 70.436876 
L 316.005946 70.436876 
L 316.005946 69.650957 
L 316.859922 69.650957 
L 316.859922 68.865039 
L 317.443817 68.865039 
L 317.443817 68.07912 
L 318.320137 68.07912 
L 318.320137 67.293201 
L 319.925003 67.293201 
L 320.027453 65.721364 
L 323.172282 65.721364 
L 323.172282 64.935446 
L 325.178733 64.935446 
L 325.178733 64.149527 
L 329.088179 64.149527 
L 329.088179 63.363608 
L 329.806351 63.363608 
L 329.806351 62.57769 
L 330.674314 62.57769 
L 330.674314 61.791771 
L 332.326194 61.791771 
L 332.326194 61.005853 
L 333.934288 61.005853 
L 333.934288 60.219934 
L 334.481313 60.219934 
L 334.481313 59.434015 
L 336.393293 59.434015 
L 336.393293 58.648097 
L 338.661443 58.648097 
L 338.661443 57.862178 
L 339.830984 57.862178 
L 339.830984 57.07626 
L 340.335177 57.07626 
L 340.335177 56.290341 
L 340.791689 56.290341 
L 340.791689 55.504422 
L 342.055799 55.504422 
L 342.055799 54.718504 
L 343.023731 54.718504 
L 343.023731 53.932585 
L 344.322037 53.932585 
L 344.322037 53.146667 
L 346.136201 53.146667 
L 346.136201 52.360748 
L 347.564349 52.360748 
L 347.564349 51.574829 
L 350.847254 51.574829 
L 350.847254 50.788911 
L 350.993831 50.788911 
L 350.993831 50.002992 
L 352.004781 50.002992 
L 352.004781 49.217074 
L 353.223061 49.217074 
L 353.223061 48.431155 
L 355.371934 48.431155 
L 355.371934 47.645237 
L 355.801888 47.645237 
L 355.801888 46.859318 
L 356.908622 46.859318 
L 356.908622 46.073399 
L 358.551822 46.073399 
L 358.551822 45.287481 
L 359.175191 45.287481 
L 359.175191 44.501562 
L 367.127883 44.501562 
L 367.127883 43.715644 
L 370.802699 43.715644 
L 370.802699 42.929725 
L 372.002915 42.929725 
L 372.002915 42.143806 
L 372.313808 42.143806 
L 372.313808 41.357888 
L 373.757942 41.357888 
L 373.757942 40.571969 
L 374.159092 40.571969 
L 374.159092 39.786051 
L 374.848196 39.786051 
L 374.848196 39.000132 
L 377.391476 39.000132 
L 377.391476 38.214213 
L 378.98282 38.214213 
L 378.98282 37.428295 
L 379.146103 37.428295 
L 379.146103 36.642376 
L 379.991698 36.642376 
L 379.991698 35.856458 
L 382.216905 35.856458 
L 382.216905 35.070539 
L 382.76502 35.070539 
L 382.76502 34.28462 
L 383.522155 34.28462 
L 383.522155 33.498702 
L 384.451345 33.498702 
L 384.451345 32.712783 
L 384.637095 32.712783 
L 384.668455 31.140946 
L 385.61717 31.140946 
L 385.61717 30.355028 
L 385.9039 30.355028 
L 385.9039 29.569109 
L 387.046028 29.569109 
L 387.046028 28.78319 
L 387.761078 28.78319 
L 387.761078 27.997272 
L 388.248583 27.997272 
L 388.248583 27.211353 
L 388.697198 27.211353 
L 388.697198 26.425435 
L 389.17995 26.425435 
L 389.17995 25.639516 
L 389.30483 25.639516 
L 389.412931 24.067679 
L 390.469553 24.067679 
L 390.469553 23.28176 
L 391.82159 23.28176 
L 391.82159 22.495842 
L 392.603669 22.495842 
L 392.603669 21.709923 
L 393.201171 21.709923 
L 393.266882 20.138086 
L 395.675701 20.138086 
L 395.675701 19.352167 
L 396.23164 19.352167 
L 396.23164 18.566249 
L 397.483775 18.566249 
L 397.483775 17.78033 
L 398.694127 17.78033 
L 398.694127 16.994411 
L 399.167703 16.994411 
L 399.167703 16.208493 
L 400.460168 16.208493 
L 400.460168 15.422574 
L 403.52655 15.422574 
L 403.52655 14.636656 
L 405.740536 14.636656 
L 405.740536 13.850737 
L 409.779166 13.850737 
L 409.779166 13.064818 
L 410.233267 13.064818 
L 410.233267 12.2789 
L 410.820934 12.2789 
L 410.820934 11.492981 
L 411.113635 11.492981 
L 411.113635 10.707063 
L 420.645343 10.707063 
L 420.645343 9.921144 
L 421.482671 9.921144 
L 421.482671 9.135226 
L 427.805861 9.135226 
L 427.805861 8.349307 
L 427.805861 8.349307 
L 450.672 8.349307 
L 450.672 8.349307 
" style="fill:none;stroke:#000000;stroke-linecap:square;stroke-width:1.5;"/>
   </g>
   <g id="line2d_27">
    <path clip-path="url(#p7d828c8525)" d="M 170.505626 291.28 
L 170.505626 290.494081 
L 172.232648 290.494081 
L 172.232648 289.708163 
L 173.086839 289.708163 
L 173.086839 288.922244 
L 174.793523 288.922244 
L 174.793523 288.136326 
L 181.111864 288.136326 
L 181.199645 286.564488 
L 183.557277 286.564488 
L 183.557277 285.77857 
L 183.671665 285.77857 
L 183.671665 284.992651 
L 184.721175 284.992651 
L 184.721175 284.206733 
L 184.987465 284.206733 
L 184.987465 283.420814 
L 185.180817 283.420814 
L 185.180817 282.634895 
L 186.590203 282.634895 
L 186.590203 281.848977 
L 187.076482 281.848977 
L 187.076482 281.063058 
L 187.599157 281.063058 
L 187.599157 280.27714 
L 188.624244 280.27714 
L 188.624244 279.491221 
L 223.783061 279.491221 
L 223.783061 278.705303 
L 224.742288 278.705303 
L 224.742288 277.919384 
L 226.58217 277.919384 
L 226.58217 277.133465 
L 227.547802 277.133465 
L 227.547802 276.347547 
L 228.578972 276.347547 
L 228.578972 275.561628 
L 228.88834 275.561628 
L 228.88834 274.77571 
L 229.672757 274.77571 
L 229.672757 273.989791 
L 231.751822 273.989791 
L 231.751822 273.203872 
L 232.460691 273.203872 
L 232.460691 272.417954 
L 233.059889 272.417954 
L 233.059889 271.632035 
L 233.817382 271.632035 
L 233.817382 270.846117 
L 234.334131 270.846117 
L 234.334131 270.060198 
L 234.861913 270.060198 
L 234.861913 269.274279 
L 235.851781 269.274279 
L 235.851781 268.488361 
L 236.43347 268.488361 
L 236.528449 266.916524 
L 237.103337 266.916524 
L 237.103337 266.130605 
L 237.558064 266.130605 
L 237.558064 265.344686 
L 238.218727 265.344686 
L 238.310582 262.986931 
L 238.344776 262.986931 
L 238.390011 260.629175 
L 238.778698 260.629175 
L 238.832952 259.057338 
L 239.32854 259.057338 
L 239.385072 256.699582 
L 239.503146 256.699582 
L 239.503146 255.913663 
L 239.880977 255.913663 
L 239.880977 255.127745 
L 240.390214 255.127745 
L 240.390214 254.341826 
L 241.304122 254.341826 
L 241.304122 253.555908 
L 242.09642 253.555908 
L 242.17591 251.198152 
L 242.583626 251.198152 
L 242.661311 249.626315 
L 242.797869 249.626315 
L 242.797869 248.840396 
L 243.091092 248.840396 
L 243.192523 247.268559 
L 243.329838 247.268559 
L 243.401749 245.696722 
L 243.463901 245.696722 
L 243.507033 244.124884 
L 244.007018 244.124884 
L 244.007018 243.338966 
L 244.23704 243.338966 
L 244.23704 242.553047 
L 244.359566 242.553047 
L 244.428572 240.195292 
L 244.481077 240.195292 
L 244.481077 239.409373 
L 244.598564 239.409373 
L 244.640331 237.837536 
L 244.793421 237.837536 
L 244.793421 237.051617 
L 244.974271 237.051617 
L 245.033264 235.47978 
L 245.336884 235.47978 
L 245.361365 233.907943 
L 245.759116 233.907943 
L 245.759116 233.122024 
L 246.184487 233.122024 
L 246.249497 231.550187 
L 246.337094 231.550187 
L 246.438888 229.97835 
L 246.537933 229.97835 
L 246.582358 228.406513 
L 246.780947 228.406513 
L 246.780947 227.620594 
L 246.945297 227.620594 
L 246.945297 226.834675 
L 247.448322 226.834675 
L 247.448322 226.048757 
L 248.186229 226.048757 
L 248.186229 225.262838 
L 248.42963 225.262838 
L 248.508907 223.691001 
L 248.551806 223.691001 
L 248.551806 222.905083 
L 248.887628 222.905083 
L 248.887628 222.119164 
L 249.547345 222.119164 
L 249.572704 220.547327 
L 249.682079 220.547327 
L 249.741785 218.97549 
L 250.024896 218.97549 
L 250.024896 218.189571 
L 250.153826 218.189571 
L 250.153826 217.403652 
L 250.506209 217.403652 
L 250.506209 216.617734 
L 250.669787 216.617734 
L 250.669787 215.831815 
L 250.957972 215.831815 
L 250.957972 215.045897 
L 251.468355 215.045897 
L 251.574445 213.474059 
L 251.817363 213.474059 
L 251.856814 210.330385 
L 252.066269 210.330385 
L 252.132081 208.758548 
L 252.612299 208.758548 
L 252.627739 207.186711 
L 253.081866 207.186711 
L 253.0881 205.614873 
L 253.202114 205.614873 
L 253.254244 203.257118 
L 253.553826 203.257118 
L 253.553826 202.471199 
L 253.95834 202.471199 
L 254.052013 200.899362 
L 254.520225 200.899362 
L 254.520225 200.113443 
L 254.753051 200.113443 
L 254.840682 198.541606 
L 254.877632 198.541606 
L 254.877632 197.755688 
L 255.042914 197.755688 
L 255.145019 195.397932 
L 255.2316 195.397932 
L 255.270305 193.826095 
L 255.351594 193.826095 
L 255.440557 192.254257 
L 255.606069 192.254257 
L 255.659405 190.68242 
L 255.85381 190.68242 
L 255.906551 189.110583 
L 256.10881 189.110583 
L 256.16639 186.752827 
L 256.278935 186.752827 
L 256.345889 185.18099 
L 256.499674 185.18099 
L 256.499674 184.395072 
L 256.720445 184.395072 
L 256.720445 183.609153 
L 256.841438 183.609153 
L 256.841438 182.823234 
L 257.01967 182.823234 
L 257.01967 182.037316 
L 257.205787 182.037316 
L 257.205787 181.251397 
L 257.390745 181.251397 
L 257.441612 179.67956 
L 257.569626 179.67956 
L 257.569626 178.893641 
L 257.71232 178.893641 
L 257.807802 177.321804 
L 257.844244 177.321804 
L 257.844244 176.535886 
L 258.138465 176.535886 
L 258.138465 175.749967 
L 258.426751 175.749967 
L 258.526821 174.17813 
L 258.547048 174.17813 
L 258.649482 171.820374 
L 258.742248 171.820374 
L 258.742248 171.034455 
L 258.917133 171.034455 
L 258.974848 169.462618 
L 259.05134 169.462618 
L 259.05134 168.6767 
L 259.208476 168.6767 
L 259.208476 167.890781 
L 259.360524 167.890781 
L 259.360524 167.104862 
L 259.505481 167.104862 
L 259.544442 165.533025 
L 259.649034 165.533025 
L 259.649034 164.747107 
L 260.03179 164.747107 
L 260.03179 163.961188 
L 260.321714 163.961188 
L 260.422029 161.603432 
L 260.540339 161.603432 
L 260.540339 160.817514 
L 260.89767 160.817514 
L 260.89767 160.031595 
L 261.538789 160.031595 
L 261.538789 159.245677 
L 261.898316 159.245677 
L 261.924957 157.673839 
L 262.031009 157.673839 
L 262.031009 156.887921 
L 262.387931 156.887921 
L 262.468465 155.316084 
L 262.648646 155.316084 
L 262.725961 142.741386 
L 262.790218 142.741386 
L 262.790218 141.955468 
L 262.967276 141.955468 
L 263.046325 139.597712 
L 263.365937 139.597712 
L 263.365937 138.811793 
L 263.564394 138.811793 
L 263.564394 138.025875 
L 263.89628 138.025875 
L 263.89628 137.239956 
L 264.087548 137.239956 
L 264.153867 135.668119 
L 264.477736 135.668119 
L 264.477736 134.8822 
L 264.75286 134.8822 
L 264.75286 134.096282 
L 264.879899 134.096282 
L 264.879899 133.310363 
L 265.179995 133.310363 
L 265.179995 132.524444 
L 265.494933 132.524444 
L 265.54986 130.166689 
L 266.136615 130.166689 
L 266.136615 129.38077 
L 266.902857 129.38077 
L 266.914219 127.808933 
L 267.231527 127.808933 
L 267.25669 126.237096 
L 267.641453 126.237096 
L 267.641453 125.451177 
L 268.165957 125.451177 
L 268.259808 123.87934 
L 268.731651 123.87934 
L 268.811266 122.307503 
L 268.977385 122.307503 
L 268.977385 121.521584 
L 269.385832 121.521584 
L 269.385832 120.735666 
L 269.512133 120.735666 
L 269.526984 119.163828 
L 269.797692 119.163828 
L 269.797692 118.37791 
L 270.312747 118.37791 
L 270.372232 116.020154 
L 270.496779 116.020154 
L 270.496779 115.234235 
L 270.653732 115.234235 
L 270.653732 114.448317 
L 271.080481 114.448317 
L 271.080481 113.662398 
L 271.542331 113.662398 
L 271.542331 112.87648 
L 271.88957 112.87648 
L 271.965381 111.304642 
L 272.125844 111.304642 
L 272.125844 110.518724 
L 272.622411 110.518724 
L 272.622411 109.732805 
L 273.237923 109.732805 
L 273.237923 108.946887 
L 273.510429 108.946887 
L 273.510429 108.160968 
L 275.915058 108.160968 
L 275.915058 107.37505 
L 276.043994 107.37505 
L 276.043994 106.589131 
L 276.337365 106.589131 
L 276.337365 105.803212 
L 277.942185 105.803212 
L 278.000977 102.659538 
L 278.172324 102.659538 
L 278.172324 101.873619 
L 278.629553 101.873619 
L 278.629553 101.087701 
L 279.122414 101.087701 
L 279.122414 100.301782 
L 279.43848 100.301782 
L 279.43848 99.515864 
L 280.488676 99.515864 
L 280.488676 98.729945 
L 284.207174 98.729945 
L 284.207174 97.944026 
L 284.536566 97.944026 
L 284.536566 97.158108 
L 286.065997 97.158108 
L 286.065997 96.372189 
L 287.165203 96.372189 
L 287.165203 95.586271 
L 287.675344 95.586271 
L 287.675344 94.800352 
L 287.81778 94.800352 
L 287.825549 93.228515 
L 289.082089 93.228515 
L 289.082089 92.442596 
L 290.065785 92.442596 
L 290.085736 90.870759 
L 291.576403 90.870759 
L 291.576403 90.08484 
L 294.323093 90.08484 
L 294.323093 89.298922 
L 294.693124 89.298922 
L 294.693124 88.513003 
L 296.497323 88.513003 
L 296.497323 87.727085 
L 300.491683 87.727085 
L 300.491683 86.941166 
L 301.822925 86.941166 
L 301.822925 86.155248 
L 302.757796 86.155248 
L 302.757796 85.369329 
L 304.095718 85.369329 
L 304.202806 83.797492 
L 305.513743 83.797492 
L 305.590872 80.653817 
L 305.813885 80.653817 
L 305.813885 79.867899 
L 305.979937 79.867899 
L 305.979937 79.08198 
L 306.311487 79.08198 
L 306.312053 75.938306 
L 306.73144 75.938306 
L 306.738521 73.58055 
L 307.042358 73.58055 
L 307.047011 71.222794 
L 308.438199 71.222794 
L 308.438199 70.436876 
L 313.160924 70.436876 
L 313.19072 68.865039 
L 314.615246 68.865039 
L 314.615246 68.07912 
L 316.12804 68.07912 
L 316.12804 67.293201 
L 316.890718 67.293201 
L 316.890718 66.507283 
L 318.550394 66.507283 
L 318.550394 65.721364 
L 318.778605 65.721364 
L 318.778605 64.935446 
L 319.644821 64.935446 
L 319.644821 64.149527 
L 320.547679 64.149527 
L 320.547679 63.363608 
L 321.813045 63.363608 
L 321.813045 62.57769 
L 327.694285 62.57769 
L 327.694285 61.791771 
L 329.777492 61.791771 
L 329.777492 61.005853 
L 330.102308 61.005853 
L 330.105868 59.434015 
L 333.301344 59.434015 
L 333.301344 58.648097 
L 333.968305 58.648097 
L 333.968305 57.862178 
L 335.16236 57.862178 
L 335.16236 57.07626 
L 337.951538 57.07626 
L 337.951538 56.290341 
L 339.679113 56.290341 
L 339.679113 55.504422 
L 340.477381 55.504422 
L 340.477381 54.718504 
L 342.317412 54.718504 
L 342.317412 53.932585 
L 343.641033 53.932585 
L 343.641033 53.146667 
L 345.667976 53.146667 
L 345.76385 51.574829 
L 350.135152 51.574829 
L 350.135152 50.788911 
L 350.275005 50.788911 
L 350.275005 50.002992 
L 351.009488 50.002992 
L 351.009488 49.217074 
L 351.814461 49.217074 
L 351.814461 48.431155 
L 352.381872 48.431155 
L 352.381872 47.645237 
L 354.773208 47.645237 
L 354.79109 46.073399 
L 355.215629 46.073399 
L 355.215629 45.287481 
L 358.449513 45.287481 
L 358.449513 44.501562 
L 363.502748 44.501562 
L 363.502748 43.715644 
L 366.460819 43.715644 
L 366.460819 42.929725 
L 370.244341 42.929725 
L 370.244341 42.143806 
L 370.805662 42.143806 
L 370.805662 41.357888 
L 371.983335 41.357888 
L 371.983335 40.571969 
L 373.002958 40.571969 
L 373.002958 39.786051 
L 373.753176 39.786051 
L 373.753176 39.000132 
L 376.351709 39.000132 
L 376.351709 38.214213 
L 378.091466 38.214213 
L 378.091466 37.428295 
L 378.451539 37.428295 
L 378.451539 36.642376 
L 379.230597 36.642376 
L 379.230597 35.856458 
L 381.364586 35.856458 
L 381.364586 35.070539 
L 381.750849 35.070539 
L 381.750849 34.28462 
L 382.148518 34.28462 
L 382.148518 33.498702 
L 383.084312 33.498702 
L 383.084312 32.712783 
L 383.369377 32.712783 
L 383.369377 31.926865 
L 383.931817 31.926865 
L 383.931817 31.140946 
L 384.792957 31.140946 
L 384.792957 30.355028 
L 385.059514 30.355028 
L 385.059514 29.569109 
L 386.045134 29.569109 
L 386.045134 28.78319 
L 387.090312 28.78319 
L 387.090312 27.997272 
L 387.677713 27.997272 
L 387.677713 27.211353 
L 388.035075 27.211353 
L 388.083059 25.639516 
L 388.509944 25.639516 
L 388.509944 24.853597 
L 388.749807 24.853597 
L 388.834749 23.28176 
L 390.931332 23.28176 
L 390.931332 22.495842 
L 391.700906 22.495842 
L 391.700906 21.709923 
L 392.507294 21.709923 
L 392.507294 20.924004 
L 392.691243 20.924004 
L 392.691243 20.138086 
L 394.25248 20.138086 
L 394.25248 19.352167 
L 395.595876 19.352167 
L 395.595876 18.566249 
L 396.726964 18.566249 
L 396.726964 17.78033 
L 398.062973 17.78033 
L 398.062973 16.994411 
L 398.728224 16.994411 
L 398.728224 16.208493 
L 399.890525 16.208493 
L 399.890525 15.422574 
L 403.027358 15.422574 
L 403.027358 14.636656 
L 405.274014 14.636656 
L 405.274014 13.850737 
L 408.938008 13.850737 
L 408.93873 12.2789 
L 409.18841 12.2789 
L 409.18841 11.492981 
L 409.649362 11.492981 
L 409.649362 10.707063 
L 419.503791 10.707063 
L 419.503791 9.921144 
L 420.164181 9.921144 
L 420.164181 9.135226 
L 427.11657 9.135226 
L 427.11657 8.349307 
L 427.11657 8.349307 
L 450.672 8.349307 
L 450.672 8.349307 
" style="fill:none;stroke:#00bfbf;stroke-linecap:square;stroke-width:1.5;"/>
   </g>
   <g id="line2d_28">
    <path clip-path="url(#p7d828c8525)" d="M 5.409114 291.28 
L 5.409114 284.206733 
L 146.070823 284.206733 
L 146.070823 283.420814 
L 152.30302 283.420814 
L 152.30302 282.634895 
L 164.127577 282.634895 
L 164.127577 281.848977 
L 164.402938 281.848977 
L 164.420511 270.060198 
L 169.407842 270.060198 
L 169.407842 269.274279 
L 169.891078 269.274279 
L 169.891078 268.488361 
L 175.071167 268.488361 
L 175.071167 267.702442 
L 184.768473 267.702442 
L 184.768473 266.916524 
L 186.7146 266.916524 
L 186.7146 266.130605 
L 194.772926 266.130605 
L 194.772926 265.344686 
L 198.320156 265.344686 
L 198.320156 264.558768 
L 199.602626 264.558768 
L 199.602626 263.772849 
L 203.448086 263.772849 
L 203.448086 262.986931 
L 205.368213 262.986931 
L 205.368213 262.201012 
L 205.653425 262.201012 
L 205.653425 261.415094 
L 206.201087 261.415094 
L 206.201087 260.629175 
L 206.332888 260.629175 
L 206.332888 259.843256 
L 206.524022 259.843256 
L 206.608003 258.271419 
L 208.996984 258.271419 
L 208.996984 257.485501 
L 210.042792 257.485501 
L 210.042792 256.699582 
L 211.302516 256.699582 
L 211.302516 255.913663 
L 212.454098 255.913663 
L 212.454098 255.127745 
L 212.891817 255.127745 
L 212.891817 254.341826 
L 213.359523 254.341826 
L 213.433773 252.769989 
L 214.013855 252.769989 
L 214.013855 251.98407 
L 214.413279 251.98407 
L 214.413279 251.198152 
L 214.607911 251.198152 
L 214.607911 249.626315 
L 215.590011 249.626315 
L 215.590011 248.840396 
L 215.942927 248.840396 
L 215.942927 248.054477 
L 216.820697 248.054477 
L 216.820697 247.268559 
L 217.255447 247.268559 
L 217.255447 246.48264 
L 218.009008 246.48264 
L 218.009008 245.696722 
L 218.465131 245.696722 
L 218.465131 244.910803 
L 219.052236 244.910803 
L 219.052236 244.124884 
L 219.45029 244.124884 
L 219.45029 243.338966 
L 219.68599 243.338966 
L 219.68599 242.553047 
L 220.073763 242.553047 
L 220.08754 240.98121 
L 220.829911 240.98121 
L 220.829911 240.195292 
L 221.10549 240.195292 
L 221.10549 239.409373 
L 221.392056 239.409373 
L 221.392056 238.623454 
L 221.553254 238.623454 
L 221.553254 237.837536 
L 221.718467 237.837536 
L 221.718467 237.051617 
L 222.202938 237.051617 
L 222.202938 236.265699 
L 222.323524 236.265699 
L 222.323524 235.47978 
L 222.666605 235.47978 
L 222.666605 234.693861 
L 222.846441 234.693861 
L 222.846441 233.907943 
L 223.357789 233.907943 
L 223.400996 231.550187 
L 223.641106 231.550187 
L 223.641106 230.764268 
L 224.047871 230.764268 
L 224.078706 228.406513 
L 224.215118 228.406513 
L 224.215118 227.620594 
L 224.498244 227.620594 
L 224.498244 226.834675 
L 224.860334 226.834675 
L 224.922847 223.691001 
L 225.035928 223.691001 
L 225.035928 222.905083 
L 225.18384 222.905083 
L 225.294736 220.547327 
L 225.556968 220.547327 
L 225.556968 219.761408 
L 226.074606 219.761408 
L 226.074606 218.97549 
L 226.537816 218.97549 
L 226.537816 218.189571 
L 226.735625 218.189571 
L 226.735625 217.403652 
L 227.160168 217.403652 
L 227.181808 215.831815 
L 227.748303 215.831815 
L 227.748303 215.045897 
L 227.97134 215.045897 
L 227.97134 214.259978 
L 229.218879 214.259978 
L 229.218879 213.474059 
L 229.637492 213.474059 
L 229.637492 212.688141 
L 230.670559 212.688141 
L 230.670559 211.902222 
L 231.585785 211.902222 
L 231.606207 210.330385 
L 232.071765 210.330385 
L 232.12376 208.758548 
L 232.328614 208.758548 
L 232.328614 207.972629 
L 232.479955 207.972629 
L 232.479955 207.186711 
L 232.670804 207.186711 
L 232.670804 206.400792 
L 232.831257 206.400792 
L 232.842103 204.828955 
L 233.120159 204.828955 
L 233.120159 204.043036 
L 233.757606 204.043036 
L 233.757606 203.257118 
L 234.483963 203.257118 
L 234.483963 202.471199 
L 234.68557 202.471199 
L 234.740819 200.113443 
L 235.202781 200.113443 
L 235.299896 196.969769 
L 235.461718 196.969769 
L 235.461718 196.18385 
L 235.717119 196.18385 
L 235.717119 195.397932 
L 236.077515 195.397932 
L 236.077515 194.612013 
L 236.716924 194.612013 
L 236.716924 193.826095 
L 236.857268 193.826095 
L 236.857268 193.040176 
L 237.54243 193.040176 
L 237.615589 191.468339 
L 237.669941 191.468339 
L 237.669941 190.68242 
L 238.017805 190.68242 
L 238.017805 189.896502 
L 238.215764 189.896502 
L 238.215764 189.110583 
L 238.446612 189.110583 
L 238.446612 188.324664 
L 238.638136 188.324664 
L 238.682266 186.752827 
L 238.924002 186.752827 
L 238.924002 185.966909 
L 239.370765 185.966909 
L 239.463405 184.395072 
L 239.574069 184.395072 
L 239.574069 183.609153 
L 239.913263 183.609153 
L 239.926748 182.037316 
L 240.14389 182.037316 
L 240.220146 180.465479 
L 240.391056 180.465479 
L 240.391056 179.67956 
L 240.921592 179.67956 
L 240.921592 178.893641 
L 241.755822 178.893641 
L 241.755822 178.107723 
L 242.231522 178.107723 
L 242.256932 176.535886 
L 242.426105 176.535886 
L 242.489388 174.964048 
L 242.651016 174.964048 
L 242.651016 174.17813 
L 242.797869 174.17813 
L 242.797869 173.392211 
L 243.309413 173.392211 
L 243.33816 171.820374 
L 243.429557 171.820374 
L 243.519579 169.462618 
L 244.098116 169.462618 
L 244.098116 168.6767 
L 244.362112 168.6767 
L 244.362112 167.890781 
L 244.568153 167.890781 
L 244.618518 166.318944 
L 244.818449 166.318944 
L 244.900689 164.747107 
L 245.147717 164.747107 
L 245.147717 163.961188 
L 245.481995 163.961188 
L 245.54209 162.389351 
L 245.887492 162.389351 
L 245.928517 160.817514 
L 246.052602 160.817514 
L 246.052602 160.031595 
L 246.18141 160.031595 
L 246.18141 159.245677 
L 246.671219 159.245677 
L 246.671219 158.459758 
L 246.959105 158.459758 
L 246.959105 157.673839 
L 247.51619 157.673839 
L 247.553548 156.102002 
L 248.457899 156.102002 
L 248.512562 154.530165 
L 248.604271 154.530165 
L 248.621336 152.958328 
L 248.725759 152.958328 
L 248.740739 151.386491 
L 248.838943 151.386491 
L 248.933748 144.313223 
L 248.962061 144.313223 
L 249.047911 141.955468 
L 249.073871 141.955468 
L 249.073871 141.169549 
L 249.547345 141.169549 
L 249.547345 140.38363 
L 249.932335 140.38363 
L 249.949362 138.811793 
L 250.282011 138.811793 
L 250.347428 137.239956 
L 250.593423 137.239956 
L 250.593423 136.454037 
L 250.742788 136.454037 
L 250.742788 135.668119 
L 250.958554 135.668119 
L 251.025106 134.096282 
L 251.411579 134.096282 
L 251.466784 132.524444 
L 251.546862 132.524444 
L 251.600602 130.952607 
L 251.832864 130.952607 
L 251.856814 129.38077 
L 251.949866 129.38077 
L 251.949866 128.594851 
L 252.104803 128.594851 
L 252.104803 127.808933 
L 252.660801 127.808933 
L 252.701011 126.237096 
L 252.779914 126.237096 
L 252.801704 124.665259 
L 252.920545 124.665259 
L 252.920545 123.87934 
L 253.091726 123.87934 
L 253.091726 123.093421 
L 253.23338 123.093421 
L 253.334549 120.735666 
L 253.941128 120.735666 
L 253.941128 119.949747 
L 254.627653 119.949747 
L 254.627653 119.163828 
L 255.293789 119.163828 
L 255.293789 118.37791 
L 255.568078 118.37791 
L 255.568078 117.591991 
L 255.882776 117.591991 
L 255.967103 115.234235 
L 256.083584 115.234235 
L 256.083584 114.448317 
L 256.394261 114.448317 
L 256.394261 113.662398 
L 256.620484 113.662398 
L 256.685389 112.090561 
L 256.886923 112.090561 
L 256.886923 111.304642 
L 257.312309 111.304642 
L 257.312309 110.518724 
L 257.703512 110.518724 
L 257.703512 109.732805 
L 257.817105 109.732805 
L 257.838118 106.589131 
L 258.257716 106.589131 
L 258.257716 105.803212 
L 259.18238 105.803212 
L 259.18238 105.017294 
L 259.340965 105.017294 
L 259.387261 103.445457 
L 259.740671 103.445457 
L 259.740671 102.659538 
L 260.03179 102.659538 
L 260.03179 101.873619 
L 260.333343 101.873619 
L 260.375423 99.515864 
L 260.649623 99.515864 
L 260.743489 97.944026 
L 261.222043 97.944026 
L 261.222043 97.158108 
L 261.340633 97.158108 
L 261.340633 96.372189 
L 261.529229 96.372189 
L 261.529229 95.586271 
L 261.887733 95.586271 
L 261.963399 92.442596 
L 262.200966 92.442596 
L 262.295795 90.870759 
L 262.372234 90.870759 
L 262.372234 90.08484 
L 262.484916 90.08484 
L 262.484916 89.298922 
L 262.95393 89.298922 
L 262.95393 88.513003 
L 263.343005 88.513003 
L 263.343005 87.727085 
L 263.707249 87.727085 
L 263.707249 86.941166 
L 263.862669 86.941166 
L 263.956732 85.369329 
L 264.719592 85.369329 
L 264.719592 84.58341 
L 265.296597 84.58341 
L 265.377527 83.011573 
L 265.487688 83.011573 
L 265.593915 79.867899 
L 265.782385 79.867899 
L 265.782385 79.08198 
L 266.062189 79.08198 
L 266.062189 78.296062 
L 266.21729 78.296062 
L 266.251464 75.152387 
L 266.715323 75.152387 
L 266.715323 74.366469 
L 266.902857 74.366469 
L 266.970263 72.794631 
L 267.211982 72.794631 
L 267.211982 72.008713 
L 267.329043 72.008713 
L 267.37459 70.436876 
L 267.718706 70.436876 
L 267.718706 69.650957 
L 268.084356 69.650957 
L 268.084356 68.865039 
L 268.39797 68.865039 
L 268.39797 68.07912 
L 268.743413 68.07912 
L 268.811266 65.721364 
L 269.14244 65.721364 
L 269.204245 64.149527 
L 269.492146 64.149527 
L 269.550401 61.791771 
L 269.794965 61.791771 
L 269.797692 60.219934 
L 270.113476 60.219934 
L 270.115963 58.648097 
L 270.365449 58.648097 
L 270.365449 57.862178 
L 271.404406 57.862178 
L 271.404406 57.07626 
L 271.573592 57.07626 
L 271.573592 56.290341 
L 272.121365 56.290341 
L 272.121365 55.504422 
L 273.020223 55.504422 
L 273.020223 54.718504 
L 273.237923 54.718504 
L 273.347061 53.146667 
L 273.510429 53.146667 
L 273.510429 52.360748 
L 273.936838 52.360748 
L 273.999215 50.788911 
L 274.926051 50.788911 
L 275.03245 49.217074 
L 275.175286 49.217074 
L 275.175286 48.431155 
L 275.552575 48.431155 
L 275.62415 46.859318 
L 276.42659 46.859318 
L 276.42659 46.073399 
L 276.662308 46.073399 
L 276.69868 44.501562 
L 276.776844 44.501562 
L 276.776844 43.715644 
L 276.940499 43.715644 
L 276.970176 42.143806 
L 277.793764 42.143806 
L 277.793764 41.357888 
L 277.960548 41.357888 
L 277.960548 40.571969 
L 278.440043 40.571969 
L 278.472602 39.000132 
L 278.834391 39.000132 
L 278.834391 38.214213 
L 279.122414 38.214213 
L 279.122414 37.428295 
L 279.342455 37.428295 
L 279.342455 36.642376 
L 280.494409 36.642376 
L 280.494409 35.856458 
L 281.854135 35.856458 
L 281.854135 35.070539 
L 283.269556 35.070539 
L 283.269556 34.28462 
L 283.696716 34.28462 
L 283.696716 33.498702 
L 284.207174 33.498702 
L 284.207174 32.712783 
L 284.905799 32.712783 
L 284.905799 31.926865 
L 293.952731 31.926865 
L 293.952731 31.140946 
L 296.00559 31.140946 
L 296.00559 30.355028 
L 298.763428 30.355028 
L 298.763428 29.569109 
L 299.015928 29.569109 
L 299.015928 28.78319 
L 305.017592 28.78319 
L 305.017592 27.997272 
L 308.518141 27.997272 
L 308.518141 27.211353 
L 309.357772 27.211353 
L 309.357772 26.425435 
L 310.158389 26.425435 
L 310.158389 25.639516 
L 313.022832 25.639516 
L 313.022832 24.853597 
L 315.261074 24.853597 
L 315.261074 24.067679 
L 315.644705 24.067679 
L 315.644705 23.28176 
L 319.543862 23.28176 
L 319.628219 20.924004 
L 319.776472 20.924004 
L 319.776472 20.138086 
L 320.80206 20.138086 
L 320.80206 19.352167 
L 321.734833 19.352167 
L 321.734833 18.566249 
L 322.494124 18.566249 
L 322.494124 17.78033 
L 330.465773 17.78033 
L 330.465773 16.994411 
L 331.286299 16.994411 
L 331.286299 16.208493 
L 343.773838 16.208493 
L 343.773838 15.422574 
L 346.288517 15.422574 
L 346.288517 14.636656 
L 357.016966 14.636656 
L 357.016966 13.850737 
L 360.321363 13.850737 
L 360.321363 13.064818 
L 360.770418 13.064818 
L 360.770418 12.2789 
L 370.071164 12.2789 
L 370.071164 11.492981 
L 374.13054 11.492981 
L 374.13054 10.707063 
L 377.138669 10.707063 
L 377.138669 9.921144 
L 382.624327 9.921144 
L 382.624327 9.135226 
L 389.371673 9.135226 
L 389.371673 8.349307 
L 389.371673 8.349307 
L 450.672 8.349307 
L 450.672 8.349307 
" style="fill:none;stroke:#bf00bf;stroke-linecap:square;stroke-width:1.5;"/>
   </g>
   <g id="patch_3">
    <path d="M 5.52 291.28 
L 5.52 5.52 
" style="fill:none;stroke:#000000;stroke-linecap:square;stroke-linejoin:miter;stroke-width:0.8;"/>
   </g>
   <g id="patch_4">
    <path d="M 450.672 291.28 
L 450.672 5.52 
" style="fill:none;stroke:#000000;stroke-linecap:square;stroke-linejoin:miter;stroke-width:0.8;"/>
   </g>
   <g id="patch_5">
    <path d="M 5.52 291.28 
L 450.672 291.28 
" style="fill:none;stroke:#000000;stroke-linecap:square;stroke-linejoin:miter;stroke-width:0.8;"/>
   </g>
   <g id="patch_6">
    <path d="M 5.52 5.52 
L 450.672 5.52 
" style="fill:none;stroke:#000000;stroke-linecap:square;stroke-linejoin:miter;stroke-width:0.8;"/>
   </g>
   <g id="text_6">
    <!-- {f1-f24}, 5-D -->
    <defs>
     <path d="M 51.125 -9.28125 
L 51.125 -16.3125 
L 48.09375 -16.3125 
Q 35.9375 -16.3125 31.8125 -12.6875 
Q 27.6875 -9.078125 27.6875 1.703125 
L 27.6875 13.375 
Q 27.6875 20.75 25.046875 23.578125 
Q 22.40625 26.421875 15.484375 26.421875 
L 12.5 26.421875 
L 12.5 33.40625 
L 15.484375 33.40625 
Q 22.46875 33.40625 25.078125 36.203125 
Q 27.6875 39.015625 27.6875 46.296875 
L 27.6875 58.015625 
Q 27.6875 68.796875 31.8125 72.390625 
Q 35.9375 75.984375 48.09375 75.984375 
L 51.125 75.984375 
L 51.125 69 
L 47.796875 69 
Q 40.921875 69 38.8125 66.84375 
Q 36.71875 64.703125 36.71875 57.8125 
L 36.71875 45.703125 
Q 36.71875 38.03125 34.5 34.5625 
Q 32.28125 31.109375 26.90625 29.890625 
Q 32.328125 28.5625 34.515625 25.09375 
Q 36.71875 21.625 36.71875 14.015625 
L 36.71875 1.90625 
Q 36.71875 -4.984375 38.8125 -7.125 
Q 40.921875 -9.28125 47.796875 -9.28125 
z
" id="DejaVuSans-7b"/>
     <path d="M 19.1875 8.296875 
L 53.609375 8.296875 
L 53.609375 0 
L 7.328125 0 
L 7.328125 8.296875 
Q 12.9375 14.109375 22.625 23.890625 
Q 32.328125 33.6875 34.8125 36.53125 
Q 39.546875 41.84375 41.421875 45.53125 
Q 43.3125 49.21875 43.3125 52.78125 
Q 43.3125 58.59375 39.234375 62.25 
Q 35.15625 65.921875 28.609375 65.921875 
Q 23.96875 65.921875 18.8125 64.3125 
Q 13.671875 62.703125 7.8125 59.421875 
L 7.8125 69.390625 
Q 13.765625 71.78125 18.9375 73 
Q 24.125 74.21875 28.421875 74.21875 
Q 39.75 74.21875 46.484375 68.546875 
Q 53.21875 62.890625 53.21875 53.421875 
Q 53.21875 48.921875 51.53125 44.890625 
Q 49.859375 40.875 45.40625 35.40625 
Q 44.1875 33.984375 37.640625 27.21875 
Q 31.109375 20.453125 19.1875 8.296875 
z
" id="DejaVuSans-32"/>
     <path d="M 12.5 -9.28125 
L 15.921875 -9.28125 
Q 22.75 -9.28125 24.828125 -7.171875 
Q 26.90625 -5.078125 26.90625 1.90625 
L 26.90625 14.015625 
Q 26.90625 21.625 29.09375 25.09375 
Q 31.296875 28.5625 36.71875 29.890625 
Q 31.296875 31.109375 29.09375 34.5625 
Q 26.90625 38.03125 26.90625 45.703125 
L 26.90625 57.8125 
Q 26.90625 64.75 24.828125 66.875 
Q 22.75 69 15.921875 69 
L 12.5 69 
L 12.5 75.984375 
L 15.578125 75.984375 
Q 27.734375 75.984375 31.8125 72.390625 
Q 35.890625 68.796875 35.890625 58.015625 
L 35.890625 46.296875 
Q 35.890625 39.015625 38.515625 36.203125 
Q 41.15625 33.40625 48.09375 33.40625 
L 51.125 33.40625 
L 51.125 26.421875 
L 48.09375 26.421875 
Q 41.15625 26.421875 38.515625 23.578125 
Q 35.890625 20.75 35.890625 13.375 
L 35.890625 1.703125 
Q 35.890625 -9.078125 31.8125 -12.6875 
Q 27.734375 -16.3125 15.578125 -16.3125 
L 12.5 -16.3125 
z
" id="DejaVuSans-7d"/>
     <path d="M 11.71875 12.40625 
L 22.015625 12.40625 
L 22.015625 4 
L 14.015625 -11.625 
L 7.71875 -11.625 
L 11.71875 4 
z
" id="DejaVuSans-2c"/>
     <path d="M 10.796875 72.90625 
L 49.515625 72.90625 
L 49.515625 64.59375 
L 19.828125 64.59375 
L 19.828125 46.734375 
Q 21.96875 47.46875 24.109375 47.828125 
Q 26.265625 48.1875 28.421875 48.1875 
Q 40.625 48.1875 47.75 41.5 
Q 54.890625 34.8125 54.890625 23.390625 
Q 54.890625 11.625 47.5625 5.09375 
Q 40.234375 -1.421875 26.90625 -1.421875 
Q 22.3125 -1.421875 17.546875 -0.640625 
Q 12.796875 0.140625 7.71875 1.703125 
L 7.71875 11.625 
Q 12.109375 9.234375 16.796875 8.0625 
Q 21.484375 6.890625 26.703125 6.890625 
Q 35.15625 6.890625 40.078125 11.328125 
Q 45.015625 15.765625 45.015625 23.390625 
Q 45.015625 31 40.078125 35.4375 
Q 35.15625 39.890625 26.703125 39.890625 
Q 22.75 39.890625 18.8125 39.015625 
Q 14.890625 38.140625 10.796875 36.28125 
z
" id="DejaVuSans-35"/>
    </defs>
    <g transform="translate(308.79396 285.5648)scale(0.2 -0.2)">
     <use xlink:href="#DejaVuSans-7b"/>
     <use x="63.623047" xlink:href="#DejaVuSans-66"/>
     <use x="98.828125" xlink:href="#DejaVuSans-31"/>
     <use x="162.451172" xlink:href="#DejaVuSans-2d"/>
     <use x="198.535156" xlink:href="#DejaVuSans-66"/>
     <use x="233.740234" xlink:href="#DejaVuSans-32"/>
     <use x="297.363281" xlink:href="#DejaVuSans-34"/>
     <use x="360.986328" xlink:href="#DejaVuSans-7d"/>
     <use x="424.609375" xlink:href="#DejaVuSans-2c"/>
     <use x="456.396484" xlink:href="#DejaVuSans-20"/>
     <use x="488.183594" xlink:href="#DejaVuSans-35"/>
     <use x="551.806641" xlink:href="#DejaVuSans-2d"/>
     <use x="587.890625" xlink:href="#DejaVuSans-44"/>
    </g>
   </g>
   <g id="text_7">
    <!-- v2.2.1.10 -->
    <defs>
     <path d="M 2.984375 54.6875 
L 12.5 54.6875 
L 29.59375 8.796875 
L 46.6875 54.6875 
L 56.203125 54.6875 
L 35.6875 0 
L 23.484375 0 
z
" id="DejaVuSans-76"/>
     <path d="M 10.6875 12.40625 
L 21 12.40625 
L 21 0 
L 10.6875 0 
z
" id="DejaVuSans-2e"/>
    </defs>
    <g style="fill:#808080;" transform="translate(204.463188 286.342713)scale(0.1 -0.1)">
     <use xlink:href="#DejaVuSans-76"/>
     <use x="59.179688" xlink:href="#DejaVuSans-32"/>
     <use x="122.802734" xlink:href="#DejaVuSans-2e"/>
     <use x="154.589844" xlink:href="#DejaVuSans-32"/>
     <use x="218.212891" xlink:href="#DejaVuSans-2e"/>
     <use x="250" xlink:href="#DejaVuSans-31"/>
     <use x="313.623047" xlink:href="#DejaVuSans-2e"/>
     <use x="345.410156" xlink:href="#DejaVuSans-31"/>
     <use x="409.033203" xlink:href="#DejaVuSans-30"/>
    </g>
   </g>
  </g>
 </g>
 <defs>
  <clipPath id="p7d828c8525">
   <rect height="285.76" width="445.152" x="5.52" y="5.52"/>
  </clipPath>
 </defs>
</svg>
