<?xml version="1.0" encoding="utf-8" standalone="no"?>
<!DOCTYPE svg PUBLIC "-//W3C//DTD SVG 1.1//EN"
  "http://www.w3.org/Graphics/SVG/1.1/DTD/svg11.dtd">
<!-- Created with matplotlib (http://matplotlib.org/) -->
<svg height="345.6pt" version="1.1" viewBox="0 0 460.8 345.6" width="460.8pt" xmlns="http://www.w3.org/2000/svg" xmlns:xlink="http://www.w3.org/1999/xlink">
 <defs>
  <style type="text/css">
*{stroke-linecap:butt;stroke-linejoin:round;}
  </style>
 </defs>
 <g id="figure_1">
  <g id="patch_1">
   <path d="M 0 345.6 
L 460.8 345.6 
L 460.8 0 
L 0 0 
z
" style="fill:#ffffff;"/>
  </g>
  <g id="axes_1">
   <g id="patch_2">
    <path d="M 5.52 291.28 
L 450.672 291.28 
L 450.672 5.52 
L 5.52 5.52 
z
" style="fill:#ffffff;"/>
   </g>
   <g id="matplotlib.axis_1">
    <g id="xtick_1">
     <g id="line2d_1">
      <path clip-path="url(#p184316193e)" d="M 5.409114 291.28 
L 5.409114 5.52 
" style="fill:none;stroke:#b0b0b0;stroke-linecap:square;stroke-width:0.8;"/>
     </g>
     <g id="line2d_2">
      <defs>
       <path d="M 0 0 
L 0 3.5 
" id="m5e43294f9a" style="stroke:#000000;stroke-width:0.8;"/>
      </defs>
      <g>
       <use style="stroke:#000000;stroke-width:0.8;" x="5.409114" xlink:href="#m5e43294f9a" y="291.28"/>
      </g>
     </g>
    </g>
    <g id="xtick_2">
     <g id="line2d_3">
      <path clip-path="url(#p184316193e)" d="M 108.048937 291.28 
L 108.048937 5.52 
" style="fill:none;stroke:#b0b0b0;stroke-linecap:square;stroke-width:0.8;"/>
     </g>
     <g id="line2d_4">
      <g>
       <use style="stroke:#000000;stroke-width:0.8;" x="108.048937" xlink:href="#m5e43294f9a" y="291.28"/>
      </g>
     </g>
     <g id="text_1">
      <!-- -4 -->
      <defs>
       <path d="M 4.890625 31.390625 
L 31.203125 31.390625 
L 31.203125 23.390625 
L 4.890625 23.390625 
z
" id="DejaVuSans-2d"/>
       <path d="M 37.796875 64.3125 
L 12.890625 25.390625 
L 37.796875 25.390625 
z
M 35.203125 72.90625 
L 47.609375 72.90625 
L 47.609375 25.390625 
L 58.015625 25.390625 
L 58.015625 17.1875 
L 47.609375 17.1875 
L 47.609375 0 
L 37.796875 0 
L 37.796875 17.1875 
L 4.890625 17.1875 
L 4.890625 26.703125 
z
" id="DejaVuSans-34"/>
      </defs>
      <g transform="translate(98.078625 313.476875)scale(0.2 -0.2)">
       <use xlink:href="#DejaVuSans-2d"/>
       <use x="36.083984" xlink:href="#DejaVuSans-34"/>
      </g>
     </g>
    </g>
    <g id="xtick_3">
     <g id="line2d_5">
      <path clip-path="url(#p184316193e)" d="M 210.688761 291.28 
L 210.688761 5.52 
" style="fill:none;stroke:#b0b0b0;stroke-linecap:square;stroke-width:0.8;"/>
     </g>
     <g id="line2d_6">
      <g>
       <use style="stroke:#000000;stroke-width:0.8;" x="210.688761" xlink:href="#m5e43294f9a" y="291.28"/>
      </g>
     </g>
     <g id="text_2">
      <!-- 0 -->
      <defs>
       <path d="M 31.78125 66.40625 
Q 24.171875 66.40625 20.328125 58.90625 
Q 16.5 51.421875 16.5 36.375 
Q 16.5 21.390625 20.328125 13.890625 
Q 24.171875 6.390625 31.78125 6.390625 
Q 39.453125 6.390625 43.28125 13.890625 
Q 47.125 21.390625 47.125 36.375 
Q 47.125 51.421875 43.28125 58.90625 
Q 39.453125 66.40625 31.78125 66.40625 
z
M 31.78125 74.21875 
Q 44.046875 74.21875 50.515625 64.515625 
Q 56.984375 54.828125 56.984375 36.375 
Q 56.984375 17.96875 50.515625 8.265625 
Q 44.046875 -1.421875 31.78125 -1.421875 
Q 19.53125 -1.421875 13.0625 8.265625 
Q 6.59375 17.96875 6.59375 36.375 
Q 6.59375 54.828125 13.0625 64.515625 
Q 19.53125 74.21875 31.78125 74.21875 
z
" id="DejaVuSans-30"/>
      </defs>
      <g transform="translate(204.326261 313.476875)scale(0.2 -0.2)">
       <use xlink:href="#DejaVuSans-30"/>
      </g>
     </g>
    </g>
    <g id="xtick_4">
     <g id="line2d_7">
      <path clip-path="url(#p184316193e)" d="M 313.328584 291.28 
L 313.328584 5.52 
" style="fill:none;stroke:#b0b0b0;stroke-linecap:square;stroke-width:0.8;"/>
     </g>
     <g id="line2d_8">
      <g>
       <use style="stroke:#000000;stroke-width:0.8;" x="313.328584" xlink:href="#m5e43294f9a" y="291.28"/>
      </g>
     </g>
     <g id="text_3">
      <!-- 4 -->
      <g transform="translate(306.966084 313.476875)scale(0.2 -0.2)">
       <use xlink:href="#DejaVuSans-34"/>
      </g>
     </g>
    </g>
    <g id="xtick_5">
     <g id="line2d_9">
      <path clip-path="url(#p184316193e)" d="M 415.968408 291.28 
L 415.968408 5.52 
" style="fill:none;stroke:#b0b0b0;stroke-linecap:square;stroke-width:0.8;"/>
     </g>
     <g id="line2d_10">
      <g>
       <use style="stroke:#000000;stroke-width:0.8;" x="415.968408" xlink:href="#m5e43294f9a" y="291.28"/>
      </g>
     </g>
     <g id="text_4">
      <!-- 8 -->
      <defs>
       <path d="M 31.78125 34.625 
Q 24.75 34.625 20.71875 30.859375 
Q 16.703125 27.09375 16.703125 20.515625 
Q 16.703125 13.921875 20.71875 10.15625 
Q 24.75 6.390625 31.78125 6.390625 
Q 38.8125 6.390625 42.859375 10.171875 
Q 46.921875 13.96875 46.921875 20.515625 
Q 46.921875 27.09375 42.890625 30.859375 
Q 38.875 34.625 31.78125 34.625 
z
M 21.921875 38.8125 
Q 15.578125 40.375 12.03125 44.71875 
Q 8.5 49.078125 8.5 55.328125 
Q 8.5 64.0625 14.71875 69.140625 
Q 20.953125 74.21875 31.78125 74.21875 
Q 42.671875 74.21875 48.875 69.140625 
Q 55.078125 64.0625 55.078125 55.328125 
Q 55.078125 49.078125 51.53125 44.71875 
Q 48 40.375 41.703125 38.8125 
Q 48.828125 37.15625 52.796875 32.3125 
Q 56.78125 27.484375 56.78125 20.515625 
Q 56.78125 9.90625 50.3125 4.234375 
Q 43.84375 -1.421875 31.78125 -1.421875 
Q 19.734375 -1.421875 13.25 4.234375 
Q 6.78125 9.90625 6.78125 20.515625 
Q 6.78125 27.484375 10.78125 32.3125 
Q 14.796875 37.15625 21.921875 38.8125 
z
M 18.3125 54.390625 
Q 18.3125 48.734375 21.84375 45.5625 
Q 25.390625 42.390625 31.78125 42.390625 
Q 38.140625 42.390625 41.71875 45.5625 
Q 45.3125 48.734375 45.3125 54.390625 
Q 45.3125 60.0625 41.71875 63.234375 
Q 38.140625 66.40625 31.78125 66.40625 
Q 25.390625 66.40625 21.84375 63.234375 
Q 18.3125 60.0625 18.3125 54.390625 
z
" id="DejaVuSans-38"/>
      </defs>
      <g transform="translate(409.605908 313.476875)scale(0.2 -0.2)">
       <use xlink:href="#DejaVuSans-38"/>
      </g>
     </g>
    </g>
    <g id="text_5">
     <!-- log10 of Df -->
     <defs>
      <path d="M 9.421875 75.984375 
L 18.40625 75.984375 
L 18.40625 0 
L 9.421875 0 
z
" id="DejaVuSans-6c"/>
      <path d="M 30.609375 48.390625 
Q 23.390625 48.390625 19.1875 42.75 
Q 14.984375 37.109375 14.984375 27.296875 
Q 14.984375 17.484375 19.15625 11.84375 
Q 23.34375 6.203125 30.609375 6.203125 
Q 37.796875 6.203125 41.984375 11.859375 
Q 46.1875 17.53125 46.1875 27.296875 
Q 46.1875 37.015625 41.984375 42.703125 
Q 37.796875 48.390625 30.609375 48.390625 
z
M 30.609375 56 
Q 42.328125 56 49.015625 48.375 
Q 55.71875 40.765625 55.71875 27.296875 
Q 55.71875 13.875 49.015625 6.21875 
Q 42.328125 -1.421875 30.609375 -1.421875 
Q 18.84375 -1.421875 12.171875 6.21875 
Q 5.515625 13.875 5.515625 27.296875 
Q 5.515625 40.765625 12.171875 48.375 
Q 18.84375 56 30.609375 56 
z
" id="DejaVuSans-6f"/>
      <path d="M 45.40625 27.984375 
Q 45.40625 37.75 41.375 43.109375 
Q 37.359375 48.484375 30.078125 48.484375 
Q 22.859375 48.484375 18.828125 43.109375 
Q 14.796875 37.75 14.796875 27.984375 
Q 14.796875 18.265625 18.828125 12.890625 
Q 22.859375 7.515625 30.078125 7.515625 
Q 37.359375 7.515625 41.375 12.890625 
Q 45.40625 18.265625 45.40625 27.984375 
z
M 54.390625 6.78125 
Q 54.390625 -7.171875 48.1875 -13.984375 
Q 42 -20.796875 29.203125 -20.796875 
Q 24.46875 -20.796875 20.265625 -20.09375 
Q 16.0625 -19.390625 12.109375 -17.921875 
L 12.109375 -9.1875 
Q 16.0625 -11.328125 19.921875 -12.34375 
Q 23.78125 -13.375 27.78125 -13.375 
Q 36.625 -13.375 41.015625 -8.765625 
Q 45.40625 -4.15625 45.40625 5.171875 
L 45.40625 9.625 
Q 42.625 4.78125 38.28125 2.390625 
Q 33.9375 0 27.875 0 
Q 17.828125 0 11.671875 7.65625 
Q 5.515625 15.328125 5.515625 27.984375 
Q 5.515625 40.671875 11.671875 48.328125 
Q 17.828125 56 27.875 56 
Q 33.9375 56 38.28125 53.609375 
Q 42.625 51.21875 45.40625 46.390625 
L 45.40625 54.6875 
L 54.390625 54.6875 
z
" id="DejaVuSans-67"/>
      <path d="M 12.40625 8.296875 
L 28.515625 8.296875 
L 28.515625 63.921875 
L 10.984375 60.40625 
L 10.984375 69.390625 
L 28.421875 72.90625 
L 38.28125 72.90625 
L 38.28125 8.296875 
L 54.390625 8.296875 
L 54.390625 0 
L 12.40625 0 
z
" id="DejaVuSans-31"/>
      <path id="DejaVuSans-20"/>
      <path d="M 37.109375 75.984375 
L 37.109375 68.5 
L 28.515625 68.5 
Q 23.6875 68.5 21.796875 66.546875 
Q 19.921875 64.59375 19.921875 59.515625 
L 19.921875 54.6875 
L 34.71875 54.6875 
L 34.71875 47.703125 
L 19.921875 47.703125 
L 19.921875 0 
L 10.890625 0 
L 10.890625 47.703125 
L 2.296875 47.703125 
L 2.296875 54.6875 
L 10.890625 54.6875 
L 10.890625 58.5 
Q 10.890625 67.625 15.140625 71.796875 
Q 19.390625 75.984375 28.609375 75.984375 
z
" id="DejaVuSans-66"/>
      <path d="M 19.671875 64.796875 
L 19.671875 8.109375 
L 31.59375 8.109375 
Q 46.6875 8.109375 53.6875 14.9375 
Q 60.6875 21.78125 60.6875 36.53125 
Q 60.6875 51.171875 53.6875 57.984375 
Q 46.6875 64.796875 31.59375 64.796875 
z
M 9.8125 72.90625 
L 30.078125 72.90625 
Q 51.265625 72.90625 61.171875 64.09375 
Q 71.09375 55.28125 71.09375 36.53125 
Q 71.09375 17.671875 61.125 8.828125 
Q 51.171875 0 30.078125 0 
L 9.8125 0 
z
" id="DejaVuSans-44"/>
     </defs>
     <g transform="translate(172.910063 336.833125)scale(0.2 -0.2)">
      <use xlink:href="#DejaVuSans-6c"/>
      <use x="27.783203" xlink:href="#DejaVuSans-6f"/>
      <use x="88.964844" xlink:href="#DejaVuSans-67"/>
      <use x="152.441406" xlink:href="#DejaVuSans-31"/>
      <use x="216.064453" xlink:href="#DejaVuSans-30"/>
      <use x="279.6875" xlink:href="#DejaVuSans-20"/>
      <use x="311.474609" xlink:href="#DejaVuSans-6f"/>
      <use x="372.65625" xlink:href="#DejaVuSans-66"/>
      <use x="407.861328" xlink:href="#DejaVuSans-20"/>
      <use x="439.648438" xlink:href="#DejaVuSans-44"/>
      <use x="516.650391" xlink:href="#DejaVuSans-66"/>
     </g>
    </g>
   </g>
   <g id="matplotlib.axis_2">
    <g id="ytick_1">
     <g id="line2d_11">
      <path clip-path="url(#p184316193e)" d="M 5.52 291.28 
L 450.672 291.28 
" style="fill:none;stroke:#b0b0b0;stroke-linecap:square;stroke-width:0.8;"/>
     </g>
     <g id="line2d_12">
      <defs>
       <path d="M 0 0 
L -3.5 0 
" id="m684d6c3eec" style="stroke:#000000;stroke-width:0.8;"/>
      </defs>
      <g>
       <use style="stroke:#000000;stroke-width:0.8;" x="5.52" xlink:href="#m684d6c3eec" y="291.28"/>
      </g>
     </g>
    </g>
    <g id="ytick_2">
     <g id="line2d_13">
      <path clip-path="url(#p184316193e)" d="M 5.52 234.693861 
L 450.672 234.693861 
" style="fill:none;stroke:#b0b0b0;stroke-linecap:square;stroke-width:0.8;"/>
     </g>
     <g id="line2d_14">
      <g>
       <use style="stroke:#000000;stroke-width:0.8;" x="5.52" xlink:href="#m684d6c3eec" y="234.693861"/>
      </g>
     </g>
    </g>
    <g id="ytick_3">
     <g id="line2d_15">
      <path clip-path="url(#p184316193e)" d="M 5.52 178.107723 
L 450.672 178.107723 
" style="fill:none;stroke:#b0b0b0;stroke-linecap:square;stroke-width:0.8;"/>
     </g>
     <g id="line2d_16">
      <g>
       <use style="stroke:#000000;stroke-width:0.8;" x="5.52" xlink:href="#m684d6c3eec" y="178.107723"/>
      </g>
     </g>
    </g>
    <g id="ytick_4">
     <g id="line2d_17">
      <path clip-path="url(#p184316193e)" d="M 5.52 121.521584 
L 450.672 121.521584 
" style="fill:none;stroke:#b0b0b0;stroke-linecap:square;stroke-width:0.8;"/>
     </g>
     <g id="line2d_18">
      <g>
       <use style="stroke:#000000;stroke-width:0.8;" x="5.52" xlink:href="#m684d6c3eec" y="121.521584"/>
      </g>
     </g>
    </g>
    <g id="ytick_5">
     <g id="line2d_19">
      <path clip-path="url(#p184316193e)" d="M 5.52 64.935446 
L 450.672 64.935446 
" style="fill:none;stroke:#b0b0b0;stroke-linecap:square;stroke-width:0.8;"/>
     </g>
     <g id="line2d_20">
      <g>
       <use style="stroke:#000000;stroke-width:0.8;" x="5.52" xlink:href="#m684d6c3eec" y="64.935446"/>
      </g>
     </g>
    </g>
    <g id="ytick_6">
     <g id="line2d_21">
      <path clip-path="url(#p184316193e)" d="M 5.52 8.349307 
L 450.672 8.349307 
" style="fill:none;stroke:#b0b0b0;stroke-linecap:square;stroke-width:0.8;"/>
     </g>
     <g id="line2d_22">
      <g>
       <use style="stroke:#000000;stroke-width:0.8;" x="5.52" xlink:href="#m684d6c3eec" y="8.349307"/>
      </g>
     </g>
    </g>
   </g>
   <g id="line2d_23">
    <path clip-path="url(#p184316193e)" d="M 164.402938 291.28 
L 164.420511 234.693861 
L 222.846441 234.693861 
L 222.846441 230.921452 
L 224.963225 230.921452 
L 224.963225 227.149043 
L 225.500264 227.149043 
L 225.500264 223.376634 
L 226.735552 223.376634 
L 226.735552 219.604224 
L 227.341145 219.604224 
L 227.341145 215.831815 
L 231.394872 215.831815 
L 231.394872 212.059406 
L 232.670803 212.059406 
L 232.670803 208.286997 
L 233.757601 208.286997 
L 233.757601 204.514587 
L 234.409203 204.514587 
L 234.409203 200.742178 
L 234.678567 200.742178 
L 234.738688 193.19736 
L 237.669941 193.19736 
L 237.669941 189.42495 
L 239.238487 189.42495 
L 239.238487 185.652541 
L 239.913252 185.652541 
L 239.926748 178.107723 
L 240.219622 178.107723 
L 240.219622 174.335314 
L 242.651016 174.335314 
L 242.651016 170.562904 
L 243.262005 170.562904 
L 243.262005 166.790495 
L 244.374498 166.790495 
L 244.374498 163.018086 
L 244.618518 163.018086 
L 244.618518 159.245677 
L 247.516186 159.245677 
L 247.516186 155.473267 
L 250.347266 155.473267 
L 250.347266 151.700858 
L 250.899093 151.700858 
L 250.958475 144.15604 
L 251.466784 144.15604 
L 251.546862 136.611221 
L 251.832864 136.611221 
L 251.832864 132.838812 
L 251.949865 132.838812 
L 251.949865 129.066403 
L 252.801691 129.066403 
L 252.801691 125.293993 
L 252.92053 125.293993 
L 252.92053 121.521584 
L 253.091726 121.521584 
L 253.091726 117.749175 
L 253.941128 117.749175 
L 253.941128 113.976766 
L 255.568077 113.976766 
L 255.568077 110.204356 
L 255.881804 110.204356 
L 255.881804 106.431947 
L 256.083584 106.431947 
L 256.083584 102.659538 
L 259.18238 102.659538 
L 259.18238 98.887129 
L 260.271468 98.887129 
L 260.33252 87.569901 
L 261.529229 87.569901 
L 261.529229 83.797492 
L 261.887733 83.797492 
L 261.95757 72.480264 
L 262.281633 72.480264 
L 262.372234 64.935446 
L 262.912559 64.935446 
L 262.912559 61.163036 
L 263.707236 61.163036 
L 263.707236 57.390627 
L 263.862669 57.390627 
L 263.862669 53.618218 
L 264.719592 53.618218 
L 264.719592 49.845809 
L 265.296597 49.845809 
L 265.296597 46.073399 
L 265.487688 46.073399 
L 265.559938 34.756172 
L 265.701805 34.756172 
L 265.701805 30.983762 
L 266.245461 30.983762 
L 266.245461 27.211353 
L 267.211982 27.211353 
L 267.211982 23.438944 
L 269.492146 23.438944 
L 269.492146 19.666535 
L 271.554444 19.666535 
L 271.554444 15.894125 
L 272.121365 15.894125 
L 272.121365 12.121716 
L 276.62162 12.121716 
L 276.62162 8.349307 
L 276.62162 8.349307 
L 450.672 8.349307 
L 450.672 8.349307 
" style="fill:none;stroke:#ff0000;stroke-linecap:square;stroke-width:3;"/>
   </g>
   <g id="line2d_24">
    <path clip-path="url(#p184316193e)" d="M 194.955409 291.28 
L 195.039328 276.190363 
L 195.079839 276.190363 
L 195.187509 264.873135 
L 195.256575 264.873135 
L 195.256575 234.693861 
L 233.222869 234.693861 
L 233.222869 230.921452 
L 234.087522 230.921452 
L 234.087522 227.149043 
L 235.984722 227.149043 
L 235.984722 223.376634 
L 238.210559 223.376634 
L 238.210559 219.604224 
L 238.882327 219.604224 
L 238.882327 215.831815 
L 241.80174 215.831815 
L 241.896178 208.286997 
L 242.189043 208.286997 
L 242.189043 204.514587 
L 243.398895 204.514587 
L 243.404027 196.969769 
L 246.550512 196.969769 
L 246.550512 193.19736 
L 246.891461 193.19736 
L 246.891461 189.42495 
L 247.287609 189.42495 
L 247.287609 185.652541 
L 249.096731 185.652541 
L 249.203005 178.107723 
L 250.115407 178.107723 
L 250.115407 174.335314 
L 250.698772 174.335314 
L 250.698772 170.562904 
L 251.707028 170.562904 
L 251.707028 166.790495 
L 251.82732 166.790495 
L 251.82732 163.018086 
L 252.517068 163.018086 
L 252.517068 159.245677 
L 252.899816 159.245677 
L 252.899816 155.473267 
L 253.165022 155.473267 
L 253.165022 151.700858 
L 255.648899 151.700858 
L 255.648899 147.928449 
L 257.871539 147.928449 
L 257.871539 144.15604 
L 258.215222 144.15604 
L 258.215222 140.38363 
L 259.09367 140.38363 
L 259.09367 136.611221 
L 259.482828 136.611221 
L 259.482828 132.838812 
L 260.456607 132.838812 
L 260.456607 129.066403 
L 260.645229 129.066403 
L 260.645229 125.293993 
L 261.40196 125.293993 
L 261.425399 117.749175 
L 261.595021 117.749175 
L 261.595021 113.976766 
L 262.017069 113.976766 
L 262.068122 106.431947 
L 262.350101 106.431947 
L 262.350101 102.659538 
L 262.584716 102.659538 
L 262.584716 98.887129 
L 263.052326 98.887129 
L 263.052326 95.114719 
L 263.833727 95.114719 
L 263.833727 91.34231 
L 264.093036 91.34231 
L 264.093036 87.569901 
L 264.985968 87.569901 
L 264.985968 83.797492 
L 265.108571 83.797492 
L 265.108571 80.025083 
L 265.222776 80.025083 
L 265.222776 76.252673 
L 265.602023 76.252673 
L 265.602023 72.480264 
L 265.89562 72.480264 
L 265.927528 64.935446 
L 266.028413 64.935446 
L 266.028413 61.163036 
L 266.19928 61.163036 
L 266.19928 57.390627 
L 266.539278 57.390627 
L 266.606439 49.845809 
L 266.675895 49.845809 
L 266.675895 46.073399 
L 267.066567 46.073399 
L 267.066567 42.30099 
L 267.384564 42.30099 
L 267.384564 38.528581 
L 267.823945 38.528581 
L 267.823945 34.756172 
L 267.996395 34.756172 
L 267.996395 30.983762 
L 268.263559 30.983762 
L 268.263559 27.211353 
L 269.198273 27.211353 
L 269.198273 23.438944 
L 269.610547 23.438944 
L 269.610547 19.666535 
L 272.287394 19.666535 
L 272.287394 15.894125 
L 276.983118 15.894125 
L 276.983118 12.121716 
L 278.060563 12.121716 
L 278.060563 8.349307 
L 278.060563 8.349307 
L 450.672 8.349307 
L 450.672 8.349307 
" style="fill:none;stroke:#00bfbf;stroke-linecap:square;stroke-width:1.5;"/>
   </g>
   <g id="line2d_25">
    <path clip-path="url(#p184316193e)" d="M 194.930698 291.28 
L 195.011401 257.328317 
L 195.067877 257.328317 
L 195.163923 242.23868 
L 195.232052 242.23868 
L 195.241575 234.693861 
L 233.219561 234.693861 
L 233.219561 230.921452 
L 234.082564 230.921452 
L 234.082564 227.149043 
L 235.984722 227.149043 
L 235.984722 223.376634 
L 238.210105 223.376634 
L 238.210105 219.604224 
L 238.882327 219.604224 
L 238.882327 215.831815 
L 241.796515 215.831815 
L 241.89481 208.286997 
L 242.18232 208.286997 
L 242.18232 204.514587 
L 243.395972 204.514587 
L 243.404027 196.969769 
L 246.550498 196.969769 
L 246.550498 193.19736 
L 246.891461 193.19736 
L 246.891461 189.42495 
L 247.285124 189.42495 
L 247.285124 185.652541 
L 249.081612 185.652541 
L 249.081612 181.880132 
L 249.203005 181.880132 
L 249.203005 178.107723 
L 250.115407 178.107723 
L 250.115407 174.335314 
L 250.687989 174.335314 
L 250.687989 170.562904 
L 251.659332 170.562904 
L 251.659332 166.790495 
L 251.82732 166.790495 
L 251.82732 163.018086 
L 252.456193 163.018086 
L 252.456193 159.245677 
L 252.899816 159.245677 
L 252.899816 155.473267 
L 253.15633 155.473267 
L 253.15633 151.700858 
L 255.646848 151.700858 
L 255.646848 147.928449 
L 257.869492 147.928449 
L 257.869492 144.15604 
L 258.215222 144.15604 
L 258.215222 140.38363 
L 259.08913 140.38363 
L 259.08913 136.611221 
L 259.456607 136.611221 
L 259.456607 132.838812 
L 260.44875 132.838812 
L 260.44875 129.066403 
L 260.638654 129.066403 
L 260.638654 125.293993 
L 261.398573 125.293993 
L 261.416536 117.749175 
L 261.567355 117.749175 
L 261.567355 113.976766 
L 262.013115 113.976766 
L 262.050597 106.431947 
L 262.343327 106.431947 
L 262.343327 102.659538 
L 262.483455 102.659538 
L 262.483455 98.887129 
L 263.0493 98.887129 
L 263.0493 95.114719 
L 263.832234 95.114719 
L 263.832234 91.34231 
L 263.981451 91.34231 
L 263.981451 87.569901 
L 264.985968 87.569901 
L 264.985968 83.797492 
L 265.107662 83.797492 
L 265.215393 76.252673 
L 265.581105 76.252673 
L 265.581105 72.480264 
L 265.874336 72.480264 
L 265.927261 64.935446 
L 266.026473 64.935446 
L 266.026473 61.163036 
L 266.197168 61.163036 
L 266.197168 57.390627 
L 266.538428 57.390627 
L 266.606439 49.845809 
L 266.675895 49.845809 
L 266.675895 46.073399 
L 267.065395 46.073399 
L 267.065395 42.30099 
L 267.346896 42.30099 
L 267.346896 38.528581 
L 267.822164 38.528581 
L 267.822164 34.756172 
L 267.996395 34.756172 
L 267.996395 30.983762 
L 268.262674 30.983762 
L 268.262674 27.211353 
L 269.196702 27.211353 
L 269.196702 23.438944 
L 269.610547 23.438944 
L 269.610547 19.666535 
L 272.206182 19.666535 
L 272.206182 15.894125 
L 276.980785 15.894125 
L 276.980785 12.121716 
L 278.060563 12.121716 
L 278.060563 8.349307 
L 278.060563 8.349307 
L 450.672 8.349307 
L 450.672 8.349307 
" style="fill:none;stroke:#bf00bf;stroke-linecap:square;stroke-width:1.5;"/>
   </g>
   <g id="line2d_26">
    <path clip-path="url(#p184316193e)" d="M 193.190781 291.28 
L 193.255653 276.190363 
L 193.417379 276.190363 
L 193.474035 268.645545 
L 193.561871 268.645545 
L 193.647626 253.555908 
L 193.676041 253.555908 
L 193.68975 246.011089 
L 193.852163 246.011089 
L 193.932938 238.466271 
L 194.03534 238.466271 
L 194.03534 234.693861 
L 233.16175 234.693861 
L 233.16175 230.921452 
L 234.027084 230.921452 
L 234.027084 227.149043 
L 235.927489 227.149043 
L 235.927489 223.376634 
L 238.187139 223.376634 
L 238.187139 219.604224 
L 238.852109 219.604224 
L 238.852109 215.831815 
L 241.695768 215.831815 
L 241.695768 212.059406 
L 241.878916 212.059406 
L 241.878916 208.286997 
L 242.160258 208.286997 
L 242.160258 204.514587 
L 243.344716 204.514587 
L 243.379173 196.969769 
L 246.52591 196.969769 
L 246.52591 193.19736 
L 246.827578 193.19736 
L 246.827578 189.42495 
L 247.211441 189.42495 
L 247.211441 185.652541 
L 249.040495 185.652541 
L 249.121731 178.107723 
L 250.083533 178.107723 
L 250.083533 174.335314 
L 250.615139 174.335314 
L 250.615139 170.562904 
L 251.617208 170.562904 
L 251.669366 163.018086 
L 251.927227 163.018086 
L 251.927227 159.245677 
L 252.865576 159.245677 
L 252.865576 155.473267 
L 253.105216 155.473267 
L 253.105216 151.700858 
L 255.583579 151.700858 
L 255.583579 147.928449 
L 257.825678 147.928449 
L 257.825678 144.15604 
L 258.054662 144.15604 
L 258.054662 140.38363 
L 259.068573 140.38363 
L 259.068573 136.611221 
L 259.233475 136.611221 
L 259.233475 132.838812 
L 260.414517 132.838812 
L 260.414517 129.066403 
L 260.610071 129.066403 
L 260.610071 125.293993 
L 261.363178 125.293993 
L 261.380946 117.749175 
L 261.567355 117.749175 
L 261.567355 113.976766 
L 261.94059 113.976766 
L 261.980693 106.431947 
L 262.308798 106.431947 
L 262.308798 102.659538 
L 262.455587 102.659538 
L 262.455587 98.887129 
L 262.969669 98.887129 
L 262.969669 95.114719 
L 263.798982 95.114719 
L 263.798982 91.34231 
L 263.92074 91.34231 
L 263.92074 87.569901 
L 264.889446 87.569901 
L 264.889446 83.797492 
L 265.084602 83.797492 
L 265.142577 76.252673 
L 265.534822 76.252673 
L 265.534822 72.480264 
L 265.744158 72.480264 
L 265.744158 68.707855 
L 265.914104 68.707855 
L 265.978824 61.163036 
L 266.168036 61.163036 
L 266.168036 57.390627 
L 266.530196 57.390627 
L 266.581513 49.845809 
L 266.651608 49.845809 
L 266.651608 46.073399 
L 267.03602 46.073399 
L 267.03602 42.30099 
L 267.252628 42.30099 
L 267.252628 38.528581 
L 267.811876 38.528581 
L 267.811876 34.756172 
L 267.980514 34.756172 
L 267.980514 30.983762 
L 268.255025 30.983762 
L 268.255025 27.211353 
L 269.189569 27.211353 
L 269.189569 23.438944 
L 269.597521 23.438944 
L 269.597521 19.666535 
L 272.132188 19.666535 
L 272.132188 15.894125 
L 276.973707 15.894125 
L 276.973707 12.121716 
L 278.057101 12.121716 
L 278.057101 8.349307 
L 278.057101 8.349307 
L 450.672 8.349307 
L 450.672 8.349307 
" style="fill:none;stroke:#000000;stroke-linecap:square;stroke-width:1.5;"/>
   </g>
   <g id="line2d_27">
    <path clip-path="url(#p184316193e)" d="M 170.505626 291.28 
L 170.505626 287.507591 
L 172.232648 287.507591 
L 172.232648 283.735182 
L 173.086839 283.735182 
L 173.086839 279.962772 
L 174.793523 279.962772 
L 174.793523 276.190363 
L 181.111864 276.190363 
L 181.199645 268.645545 
L 183.557277 268.645545 
L 183.557277 264.873135 
L 183.671665 264.873135 
L 183.671665 261.100726 
L 184.721175 261.100726 
L 184.721175 257.328317 
L 184.987465 257.328317 
L 184.987465 253.555908 
L 185.180817 253.555908 
L 185.180817 249.783498 
L 186.590203 249.783498 
L 186.590203 246.011089 
L 187.076482 246.011089 
L 187.076482 242.23868 
L 187.599157 242.23868 
L 187.599157 238.466271 
L 188.624244 238.466271 
L 188.624244 234.693861 
L 227.547802 234.693861 
L 227.547802 230.921452 
L 231.751822 230.921452 
L 231.751822 227.149043 
L 233.817382 227.149043 
L 233.817382 223.376634 
L 236.43347 223.376634 
L 236.43347 219.604224 
L 238.230061 219.604224 
L 238.230061 215.831815 
L 238.376831 215.831815 
L 238.390011 208.286997 
L 239.32854 208.286997 
L 239.32854 204.514587 
L 239.503146 204.514587 
L 239.503146 200.742178 
L 239.880977 200.742178 
L 239.880977 196.969769 
L 240.390214 196.969769 
L 240.390214 193.19736 
L 244.007018 193.19736 
L 244.007018 189.42495 
L 244.640331 189.42495 
L 244.640331 185.652541 
L 245.336884 185.652541 
L 245.336884 181.880132 
L 245.759116 181.880132 
L 245.759116 178.107723 
L 246.582358 178.107723 
L 246.582358 174.335314 
L 247.448322 174.335314 
L 247.448322 170.562904 
L 248.551806 170.562904 
L 248.551806 166.790495 
L 250.506209 166.790495 
L 250.506209 163.018086 
L 251.468355 163.018086 
L 251.574445 155.473267 
L 251.855988 155.473267 
L 251.855988 151.700858 
L 252.066269 151.700858 
L 252.066269 147.928449 
L 254.052013 147.928449 
L 254.052013 144.15604 
L 254.520225 144.15604 
L 254.520225 140.38363 
L 254.877632 140.38363 
L 254.877632 136.611221 
L 255.659405 136.611221 
L 255.659405 132.838812 
L 255.85381 132.838812 
L 255.85381 129.066403 
L 256.345889 129.066403 
L 256.345889 125.293993 
L 256.720445 125.293993 
L 256.720445 121.521584 
L 256.841438 121.521584 
L 256.841438 117.749175 
L 258.974848 117.749175 
L 258.974848 113.976766 
L 259.208476 113.976766 
L 259.208476 110.204356 
L 259.360524 110.204356 
L 259.360524 106.431947 
L 259.649034 106.431947 
L 259.649034 102.659538 
L 260.89767 102.659538 
L 260.89767 98.887129 
L 261.538789 98.887129 
L 261.538789 95.114719 
L 261.898316 95.114719 
L 261.924957 87.569901 
L 262.387931 87.569901 
L 262.387931 83.797492 
L 262.790218 83.797492 
L 262.790218 80.025083 
L 263.046325 80.025083 
L 263.046325 76.252673 
L 263.564394 76.252673 
L 263.564394 72.480264 
L 263.89628 72.480264 
L 263.89628 68.707855 
L 264.153867 68.707855 
L 264.153867 64.935446 
L 264.75286 64.935446 
L 264.75286 61.163036 
L 264.879899 61.163036 
L 264.879899 57.390627 
L 265.179995 57.390627 
L 265.179995 53.618218 
L 265.494933 53.618218 
L 265.54986 42.30099 
L 266.136615 42.30099 
L 266.136615 38.528581 
L 266.914219 38.528581 
L 266.914219 34.756172 
L 267.231527 34.756172 
L 267.231527 30.983762 
L 268.165957 30.983762 
L 268.259808 23.438944 
L 269.512133 23.438944 
L 269.512133 19.666535 
L 272.125844 19.666535 
L 272.125844 15.894125 
L 275.915058 15.894125 
L 275.915058 12.121716 
L 277.942185 12.121716 
L 277.942185 8.349307 
L 277.942185 8.349307 
L 450.672 8.349307 
L 450.672 8.349307 
" style="fill:none;stroke:#00bfbf;stroke-linecap:square;stroke-width:1.5;"/>
   </g>
   <g id="line2d_28">
    <path clip-path="url(#p184316193e)" d="M 164.402938 291.28 
L 164.420511 234.693861 
L 222.846441 234.693861 
L 222.846441 230.921452 
L 225.18384 230.921452 
L 225.18384 227.149043 
L 225.556968 227.149043 
L 225.556968 223.376634 
L 226.735625 223.376634 
L 226.735625 219.604224 
L 227.748303 219.604224 
L 227.748303 215.831815 
L 231.585785 215.831815 
L 231.585785 212.059406 
L 232.670804 212.059406 
L 232.670804 208.286997 
L 233.757606 208.286997 
L 233.757606 204.514587 
L 234.68557 204.514587 
L 234.740819 193.19736 
L 237.669941 193.19736 
L 237.669941 189.42495 
L 239.913263 189.42495 
L 239.926748 181.880132 
L 240.220146 181.880132 
L 240.220146 178.107723 
L 240.921592 178.107723 
L 240.921592 174.335314 
L 242.651016 174.335314 
L 242.651016 170.562904 
L 243.309413 170.562904 
L 243.309413 166.790495 
L 244.618518 166.790495 
L 244.618518 163.018086 
L 245.928517 163.018086 
L 245.928517 159.245677 
L 247.51619 159.245677 
L 247.51619 155.473267 
L 250.347428 155.473267 
L 250.347428 151.700858 
L 250.958554 151.700858 
L 251.025106 144.15604 
L 251.466784 144.15604 
L 251.546862 136.611221 
L 251.832864 136.611221 
L 251.832864 132.838812 
L 251.949866 132.838812 
L 251.949866 129.066403 
L 252.801704 129.066403 
L 252.801704 125.293993 
L 252.920545 125.293993 
L 252.920545 121.521584 
L 253.091726 121.521584 
L 253.091726 117.749175 
L 253.941128 117.749175 
L 253.941128 113.976766 
L 255.568078 113.976766 
L 255.568078 110.204356 
L 255.882776 110.204356 
L 255.882776 106.431947 
L 256.083584 106.431947 
L 256.083584 102.659538 
L 259.18238 102.659538 
L 259.18238 98.887129 
L 260.333343 98.887129 
L 260.375423 91.34231 
L 260.743489 91.34231 
L 260.743489 87.569901 
L 261.529229 87.569901 
L 261.529229 83.797492 
L 261.887733 83.797492 
L 261.95757 72.480264 
L 262.295795 72.480264 
L 262.372234 64.935446 
L 262.95393 64.935446 
L 262.95393 61.163036 
L 263.707249 61.163036 
L 263.707249 57.390627 
L 263.862669 57.390627 
L 263.862669 53.618218 
L 264.719592 53.618218 
L 264.719592 49.845809 
L 265.296597 49.845809 
L 265.296597 46.073399 
L 265.487688 46.073399 
L 265.559938 34.756172 
L 266.21729 34.756172 
L 266.245485 27.211353 
L 267.211982 27.211353 
L 267.211982 23.438944 
L 269.492146 23.438944 
L 269.492146 19.666535 
L 271.573592 19.666535 
L 271.573592 15.894125 
L 272.121365 15.894125 
L 272.121365 12.121716 
L 276.940499 12.121716 
L 276.940499 8.349307 
L 276.940499 8.349307 
L 450.672 8.349307 
L 450.672 8.349307 
" style="fill:none;stroke:#bf00bf;stroke-linecap:square;stroke-width:1.5;"/>
   </g>
   <g id="patch_3">
    <path d="M 5.52 291.28 
L 5.52 5.52 
" style="fill:none;stroke:#000000;stroke-linecap:square;stroke-linejoin:miter;stroke-width:0.8;"/>
   </g>
   <g id="patch_4">
    <path d="M 450.672 291.28 
L 450.672 5.52 
" style="fill:none;stroke:#000000;stroke-linecap:square;stroke-linejoin:miter;stroke-width:0.8;"/>
   </g>
   <g id="patch_5">
    <path d="M 5.52 291.28 
L 450.672 291.28 
" style="fill:none;stroke:#000000;stroke-linecap:square;stroke-linejoin:miter;stroke-width:0.8;"/>
   </g>
   <g id="patch_6">
    <path d="M 5.52 5.52 
L 450.672 5.52 
" style="fill:none;stroke:#000000;stroke-linecap:square;stroke-linejoin:miter;stroke-width:0.8;"/>
   </g>
   <g id="text_6">
    <!-- {f15-f19}, 5-D -->
    <defs>
     <path d="M 51.125 -9.28125 
L 51.125 -16.3125 
L 48.09375 -16.3125 
Q 35.9375 -16.3125 31.8125 -12.6875 
Q 27.6875 -9.078125 27.6875 1.703125 
L 27.6875 13.375 
Q 27.6875 20.75 25.046875 23.578125 
Q 22.40625 26.421875 15.484375 26.421875 
L 12.5 26.421875 
L 12.5 33.40625 
L 15.484375 33.40625 
Q 22.46875 33.40625 25.078125 36.203125 
Q 27.6875 39.015625 27.6875 46.296875 
L 27.6875 58.015625 
Q 27.6875 68.796875 31.8125 72.390625 
Q 35.9375 75.984375 48.09375 75.984375 
L 51.125 75.984375 
L 51.125 69 
L 47.796875 69 
Q 40.921875 69 38.8125 66.84375 
Q 36.71875 64.703125 36.71875 57.8125 
L 36.71875 45.703125 
Q 36.71875 38.03125 34.5 34.5625 
Q 32.28125 31.109375 26.90625 29.890625 
Q 32.328125 28.5625 34.515625 25.09375 
Q 36.71875 21.625 36.71875 14.015625 
L 36.71875 1.90625 
Q 36.71875 -4.984375 38.8125 -7.125 
Q 40.921875 -9.28125 47.796875 -9.28125 
z
" id="DejaVuSans-7b"/>
     <path d="M 10.796875 72.90625 
L 49.515625 72.90625 
L 49.515625 64.59375 
L 19.828125 64.59375 
L 19.828125 46.734375 
Q 21.96875 47.46875 24.109375 47.828125 
Q 26.265625 48.1875 28.421875 48.1875 
Q 40.625 48.1875 47.75 41.5 
Q 54.890625 34.8125 54.890625 23.390625 
Q 54.890625 11.625 47.5625 5.09375 
Q 40.234375 -1.421875 26.90625 -1.421875 
Q 22.3125 -1.421875 17.546875 -0.640625 
Q 12.796875 0.140625 7.71875 1.703125 
L 7.71875 11.625 
Q 12.109375 9.234375 16.796875 8.0625 
Q 21.484375 6.890625 26.703125 6.890625 
Q 35.15625 6.890625 40.078125 11.328125 
Q 45.015625 15.765625 45.015625 23.390625 
Q 45.015625 31 40.078125 35.4375 
Q 35.15625 39.890625 26.703125 39.890625 
Q 22.75 39.890625 18.8125 39.015625 
Q 14.890625 38.140625 10.796875 36.28125 
z
" id="DejaVuSans-35"/>
     <path d="M 10.984375 1.515625 
L 10.984375 10.5 
Q 14.703125 8.734375 18.5 7.8125 
Q 22.3125 6.890625 25.984375 6.890625 
Q 35.75 6.890625 40.890625 13.453125 
Q 46.046875 20.015625 46.78125 33.40625 
Q 43.953125 29.203125 39.59375 26.953125 
Q 35.25 24.703125 29.984375 24.703125 
Q 19.046875 24.703125 12.671875 31.3125 
Q 6.296875 37.9375 6.296875 49.421875 
Q 6.296875 60.640625 12.9375 67.421875 
Q 19.578125 74.21875 30.609375 74.21875 
Q 43.265625 74.21875 49.921875 64.515625 
Q 56.59375 54.828125 56.59375 36.375 
Q 56.59375 19.140625 48.40625 8.859375 
Q 40.234375 -1.421875 26.421875 -1.421875 
Q 22.703125 -1.421875 18.890625 -0.6875 
Q 15.09375 0.046875 10.984375 1.515625 
z
M 30.609375 32.421875 
Q 37.25 32.421875 41.125 36.953125 
Q 45.015625 41.5 45.015625 49.421875 
Q 45.015625 57.28125 41.125 61.84375 
Q 37.25 66.40625 30.609375 66.40625 
Q 23.96875 66.40625 20.09375 61.84375 
Q 16.21875 57.28125 16.21875 49.421875 
Q 16.21875 41.5 20.09375 36.953125 
Q 23.96875 32.421875 30.609375 32.421875 
z
" id="DejaVuSans-39"/>
     <path d="M 12.5 -9.28125 
L 15.921875 -9.28125 
Q 22.75 -9.28125 24.828125 -7.171875 
Q 26.90625 -5.078125 26.90625 1.90625 
L 26.90625 14.015625 
Q 26.90625 21.625 29.09375 25.09375 
Q 31.296875 28.5625 36.71875 29.890625 
Q 31.296875 31.109375 29.09375 34.5625 
Q 26.90625 38.03125 26.90625 45.703125 
L 26.90625 57.8125 
Q 26.90625 64.75 24.828125 66.875 
Q 22.75 69 15.921875 69 
L 12.5 69 
L 12.5 75.984375 
L 15.578125 75.984375 
Q 27.734375 75.984375 31.8125 72.390625 
Q 35.890625 68.796875 35.890625 58.015625 
L 35.890625 46.296875 
Q 35.890625 39.015625 38.515625 36.203125 
Q 41.15625 33.40625 48.09375 33.40625 
L 51.125 33.40625 
L 51.125 26.421875 
L 48.09375 26.421875 
Q 41.15625 26.421875 38.515625 23.578125 
Q 35.890625 20.75 35.890625 13.375 
L 35.890625 1.703125 
Q 35.890625 -9.078125 31.8125 -12.6875 
Q 27.734375 -16.3125 15.578125 -16.3125 
L 12.5 -16.3125 
z
" id="DejaVuSans-7d"/>
     <path d="M 11.71875 12.40625 
L 22.015625 12.40625 
L 22.015625 4 
L 14.015625 -11.625 
L 7.71875 -11.625 
L 11.71875 4 
z
" id="DejaVuSans-2c"/>
    </defs>
    <g transform="translate(296.06896 285.5648)scale(0.2 -0.2)">
     <use xlink:href="#DejaVuSans-7b"/>
     <use x="63.623047" xlink:href="#DejaVuSans-66"/>
     <use x="98.828125" xlink:href="#DejaVuSans-31"/>
     <use x="162.451172" xlink:href="#DejaVuSans-35"/>
     <use x="226.074219" xlink:href="#DejaVuSans-2d"/>
     <use x="262.158203" xlink:href="#DejaVuSans-66"/>
     <use x="297.363281" xlink:href="#DejaVuSans-31"/>
     <use x="360.986328" xlink:href="#DejaVuSans-39"/>
     <use x="424.609375" xlink:href="#DejaVuSans-7d"/>
     <use x="488.232422" xlink:href="#DejaVuSans-2c"/>
     <use x="520.019531" xlink:href="#DejaVuSans-20"/>
     <use x="551.806641" xlink:href="#DejaVuSans-35"/>
     <use x="615.429688" xlink:href="#DejaVuSans-2d"/>
     <use x="651.513672" xlink:href="#DejaVuSans-44"/>
    </g>
   </g>
   <g id="text_7">
    <!-- v2.2.1.10 -->
    <defs>
     <path d="M 2.984375 54.6875 
L 12.5 54.6875 
L 29.59375 8.796875 
L 46.6875 54.6875 
L 56.203125 54.6875 
L 35.6875 0 
L 23.484375 0 
z
" id="DejaVuSans-76"/>
     <path d="M 19.1875 8.296875 
L 53.609375 8.296875 
L 53.609375 0 
L 7.328125 0 
L 7.328125 8.296875 
Q 12.9375 14.109375 22.625 23.890625 
Q 32.328125 33.6875 34.8125 36.53125 
Q 39.546875 41.84375 41.421875 45.53125 
Q 43.3125 49.21875 43.3125 52.78125 
Q 43.3125 58.59375 39.234375 62.25 
Q 35.15625 65.921875 28.609375 65.921875 
Q 23.96875 65.921875 18.8125 64.3125 
Q 13.671875 62.703125 7.8125 59.421875 
L 7.8125 69.390625 
Q 13.765625 71.78125 18.9375 73 
Q 24.125 74.21875 28.421875 74.21875 
Q 39.75 74.21875 46.484375 68.546875 
Q 53.21875 62.890625 53.21875 53.421875 
Q 53.21875 48.921875 51.53125 44.890625 
Q 49.859375 40.875 45.40625 35.40625 
Q 44.1875 33.984375 37.640625 27.21875 
Q 31.109375 20.453125 19.1875 8.296875 
z
" id="DejaVuSans-32"/>
     <path d="M 10.6875 12.40625 
L 21 12.40625 
L 21 0 
L 10.6875 0 
z
" id="DejaVuSans-2e"/>
    </defs>
    <g style="fill:#808080;" transform="translate(204.463188 286.342713)scale(0.1 -0.1)">
     <use xlink:href="#DejaVuSans-76"/>
     <use x="59.179688" xlink:href="#DejaVuSans-32"/>
     <use x="122.802734" xlink:href="#DejaVuSans-2e"/>
     <use x="154.589844" xlink:href="#DejaVuSans-32"/>
     <use x="218.212891" xlink:href="#DejaVuSans-2e"/>
     <use x="250" xlink:href="#DejaVuSans-31"/>
     <use x="313.623047" xlink:href="#DejaVuSans-2e"/>
     <use x="345.410156" xlink:href="#DejaVuSans-31"/>
     <use x="409.033203" xlink:href="#DejaVuSans-30"/>
    </g>
   </g>
  </g>
 </g>
 <defs>
  <clipPath id="p184316193e">
   <rect height="285.76" width="445.152" x="5.52" y="5.52"/>
  </clipPath>
 </defs>
</svg>
