<?xml version="1.0" encoding="utf-8" standalone="no"?>
<!DOCTYPE svg PUBLIC "-//W3C//DTD SVG 1.1//EN"
  "http://www.w3.org/Graphics/SVG/1.1/DTD/svg11.dtd">
<!-- Created with matplotlib (http://matplotlib.org/) -->
<svg height="345.6pt" version="1.1" viewBox="0 0 460.8 345.6" width="460.8pt" xmlns="http://www.w3.org/2000/svg" xmlns:xlink="http://www.w3.org/1999/xlink">
 <defs>
  <style type="text/css">
*{stroke-linecap:butt;stroke-linejoin:round;}
  </style>
 </defs>
 <g id="figure_1">
  <g id="patch_1">
   <path d="M 0 345.6 
L 460.8 345.6 
L 460.8 0 
L 0 0 
z
" style="fill:#ffffff;"/>
  </g>
  <g id="axes_1">
   <g id="patch_2">
    <path d="M 5.52 291.28 
L 450.672 291.28 
L 450.672 5.52 
L 5.52 5.52 
z
" style="fill:#ffffff;"/>
   </g>
   <g id="matplotlib.axis_1">
    <g id="xtick_1">
     <g id="line2d_1">
      <path clip-path="url(#p865330b9d5)" d="M 5.409114 291.28 
L 5.409114 5.52 
" style="fill:none;stroke:#b0b0b0;stroke-linecap:square;stroke-width:0.8;"/>
     </g>
     <g id="line2d_2">
      <defs>
       <path d="M 0 0 
L 0 3.5 
" id="m041971bd67" style="stroke:#000000;stroke-width:0.8;"/>
      </defs>
      <g>
       <use style="stroke:#000000;stroke-width:0.8;" x="5.409114" xlink:href="#m041971bd67" y="291.28"/>
      </g>
     </g>
    </g>
    <g id="xtick_2">
     <g id="line2d_3">
      <path clip-path="url(#p865330b9d5)" d="M 108.048937 291.28 
L 108.048937 5.52 
" style="fill:none;stroke:#b0b0b0;stroke-linecap:square;stroke-width:0.8;"/>
     </g>
     <g id="line2d_4">
      <g>
       <use style="stroke:#000000;stroke-width:0.8;" x="108.048937" xlink:href="#m041971bd67" y="291.28"/>
      </g>
     </g>
     <g id="text_1">
      <!-- -4 -->
      <defs>
       <path d="M 4.890625 31.390625 
L 31.203125 31.390625 
L 31.203125 23.390625 
L 4.890625 23.390625 
z
" id="DejaVuSans-2d"/>
       <path d="M 37.796875 64.3125 
L 12.890625 25.390625 
L 37.796875 25.390625 
z
M 35.203125 72.90625 
L 47.609375 72.90625 
L 47.609375 25.390625 
L 58.015625 25.390625 
L 58.015625 17.1875 
L 47.609375 17.1875 
L 47.609375 0 
L 37.796875 0 
L 37.796875 17.1875 
L 4.890625 17.1875 
L 4.890625 26.703125 
z
" id="DejaVuSans-34"/>
      </defs>
      <g transform="translate(98.078625 313.476875)scale(0.2 -0.2)">
       <use xlink:href="#DejaVuSans-2d"/>
       <use x="36.083984" xlink:href="#DejaVuSans-34"/>
      </g>
     </g>
    </g>
    <g id="xtick_3">
     <g id="line2d_5">
      <path clip-path="url(#p865330b9d5)" d="M 210.688761 291.28 
L 210.688761 5.52 
" style="fill:none;stroke:#b0b0b0;stroke-linecap:square;stroke-width:0.8;"/>
     </g>
     <g id="line2d_6">
      <g>
       <use style="stroke:#000000;stroke-width:0.8;" x="210.688761" xlink:href="#m041971bd67" y="291.28"/>
      </g>
     </g>
     <g id="text_2">
      <!-- 0 -->
      <defs>
       <path d="M 31.78125 66.40625 
Q 24.171875 66.40625 20.328125 58.90625 
Q 16.5 51.421875 16.5 36.375 
Q 16.5 21.390625 20.328125 13.890625 
Q 24.171875 6.390625 31.78125 6.390625 
Q 39.453125 6.390625 43.28125 13.890625 
Q 47.125 21.390625 47.125 36.375 
Q 47.125 51.421875 43.28125 58.90625 
Q 39.453125 66.40625 31.78125 66.40625 
z
M 31.78125 74.21875 
Q 44.046875 74.21875 50.515625 64.515625 
Q 56.984375 54.828125 56.984375 36.375 
Q 56.984375 17.96875 50.515625 8.265625 
Q 44.046875 -1.421875 31.78125 -1.421875 
Q 19.53125 -1.421875 13.0625 8.265625 
Q 6.59375 17.96875 6.59375 36.375 
Q 6.59375 54.828125 13.0625 64.515625 
Q 19.53125 74.21875 31.78125 74.21875 
z
" id="DejaVuSans-30"/>
      </defs>
      <g transform="translate(204.326261 313.476875)scale(0.2 -0.2)">
       <use xlink:href="#DejaVuSans-30"/>
      </g>
     </g>
    </g>
    <g id="xtick_4">
     <g id="line2d_7">
      <path clip-path="url(#p865330b9d5)" d="M 313.328584 291.28 
L 313.328584 5.52 
" style="fill:none;stroke:#b0b0b0;stroke-linecap:square;stroke-width:0.8;"/>
     </g>
     <g id="line2d_8">
      <g>
       <use style="stroke:#000000;stroke-width:0.8;" x="313.328584" xlink:href="#m041971bd67" y="291.28"/>
      </g>
     </g>
     <g id="text_3">
      <!-- 4 -->
      <g transform="translate(306.966084 313.476875)scale(0.2 -0.2)">
       <use xlink:href="#DejaVuSans-34"/>
      </g>
     </g>
    </g>
    <g id="xtick_5">
     <g id="line2d_9">
      <path clip-path="url(#p865330b9d5)" d="M 415.968408 291.28 
L 415.968408 5.52 
" style="fill:none;stroke:#b0b0b0;stroke-linecap:square;stroke-width:0.8;"/>
     </g>
     <g id="line2d_10">
      <g>
       <use style="stroke:#000000;stroke-width:0.8;" x="415.968408" xlink:href="#m041971bd67" y="291.28"/>
      </g>
     </g>
     <g id="text_4">
      <!-- 8 -->
      <defs>
       <path d="M 31.78125 34.625 
Q 24.75 34.625 20.71875 30.859375 
Q 16.703125 27.09375 16.703125 20.515625 
Q 16.703125 13.921875 20.71875 10.15625 
Q 24.75 6.390625 31.78125 6.390625 
Q 38.8125 6.390625 42.859375 10.171875 
Q 46.921875 13.96875 46.921875 20.515625 
Q 46.921875 27.09375 42.890625 30.859375 
Q 38.875 34.625 31.78125 34.625 
z
M 21.921875 38.8125 
Q 15.578125 40.375 12.03125 44.71875 
Q 8.5 49.078125 8.5 55.328125 
Q 8.5 64.0625 14.71875 69.140625 
Q 20.953125 74.21875 31.78125 74.21875 
Q 42.671875 74.21875 48.875 69.140625 
Q 55.078125 64.0625 55.078125 55.328125 
Q 55.078125 49.078125 51.53125 44.71875 
Q 48 40.375 41.703125 38.8125 
Q 48.828125 37.15625 52.796875 32.3125 
Q 56.78125 27.484375 56.78125 20.515625 
Q 56.78125 9.90625 50.3125 4.234375 
Q 43.84375 -1.421875 31.78125 -1.421875 
Q 19.734375 -1.421875 13.25 4.234375 
Q 6.78125 9.90625 6.78125 20.515625 
Q 6.78125 27.484375 10.78125 32.3125 
Q 14.796875 37.15625 21.921875 38.8125 
z
M 18.3125 54.390625 
Q 18.3125 48.734375 21.84375 45.5625 
Q 25.390625 42.390625 31.78125 42.390625 
Q 38.140625 42.390625 41.71875 45.5625 
Q 45.3125 48.734375 45.3125 54.390625 
Q 45.3125 60.0625 41.71875 63.234375 
Q 38.140625 66.40625 31.78125 66.40625 
Q 25.390625 66.40625 21.84375 63.234375 
Q 18.3125 60.0625 18.3125 54.390625 
z
" id="DejaVuSans-38"/>
      </defs>
      <g transform="translate(409.605908 313.476875)scale(0.2 -0.2)">
       <use xlink:href="#DejaVuSans-38"/>
      </g>
     </g>
    </g>
    <g id="text_5">
     <!-- log10 of Df -->
     <defs>
      <path d="M 9.421875 75.984375 
L 18.40625 75.984375 
L 18.40625 0 
L 9.421875 0 
z
" id="DejaVuSans-6c"/>
      <path d="M 30.609375 48.390625 
Q 23.390625 48.390625 19.1875 42.75 
Q 14.984375 37.109375 14.984375 27.296875 
Q 14.984375 17.484375 19.15625 11.84375 
Q 23.34375 6.203125 30.609375 6.203125 
Q 37.796875 6.203125 41.984375 11.859375 
Q 46.1875 17.53125 46.1875 27.296875 
Q 46.1875 37.015625 41.984375 42.703125 
Q 37.796875 48.390625 30.609375 48.390625 
z
M 30.609375 56 
Q 42.328125 56 49.015625 48.375 
Q 55.71875 40.765625 55.71875 27.296875 
Q 55.71875 13.875 49.015625 6.21875 
Q 42.328125 -1.421875 30.609375 -1.421875 
Q 18.84375 -1.421875 12.171875 6.21875 
Q 5.515625 13.875 5.515625 27.296875 
Q 5.515625 40.765625 12.171875 48.375 
Q 18.84375 56 30.609375 56 
z
" id="DejaVuSans-6f"/>
      <path d="M 45.40625 27.984375 
Q 45.40625 37.75 41.375 43.109375 
Q 37.359375 48.484375 30.078125 48.484375 
Q 22.859375 48.484375 18.828125 43.109375 
Q 14.796875 37.75 14.796875 27.984375 
Q 14.796875 18.265625 18.828125 12.890625 
Q 22.859375 7.515625 30.078125 7.515625 
Q 37.359375 7.515625 41.375 12.890625 
Q 45.40625 18.265625 45.40625 27.984375 
z
M 54.390625 6.78125 
Q 54.390625 -7.171875 48.1875 -13.984375 
Q 42 -20.796875 29.203125 -20.796875 
Q 24.46875 -20.796875 20.265625 -20.09375 
Q 16.0625 -19.390625 12.109375 -17.921875 
L 12.109375 -9.1875 
Q 16.0625 -11.328125 19.921875 -12.34375 
Q 23.78125 -13.375 27.78125 -13.375 
Q 36.625 -13.375 41.015625 -8.765625 
Q 45.40625 -4.15625 45.40625 5.171875 
L 45.40625 9.625 
Q 42.625 4.78125 38.28125 2.390625 
Q 33.9375 0 27.875 0 
Q 17.828125 0 11.671875 7.65625 
Q 5.515625 15.328125 5.515625 27.984375 
Q 5.515625 40.671875 11.671875 48.328125 
Q 17.828125 56 27.875 56 
Q 33.9375 56 38.28125 53.609375 
Q 42.625 51.21875 45.40625 46.390625 
L 45.40625 54.6875 
L 54.390625 54.6875 
z
" id="DejaVuSans-67"/>
      <path d="M 12.40625 8.296875 
L 28.515625 8.296875 
L 28.515625 63.921875 
L 10.984375 60.40625 
L 10.984375 69.390625 
L 28.421875 72.90625 
L 38.28125 72.90625 
L 38.28125 8.296875 
L 54.390625 8.296875 
L 54.390625 0 
L 12.40625 0 
z
" id="DejaVuSans-31"/>
      <path id="DejaVuSans-20"/>
      <path d="M 37.109375 75.984375 
L 37.109375 68.5 
L 28.515625 68.5 
Q 23.6875 68.5 21.796875 66.546875 
Q 19.921875 64.59375 19.921875 59.515625 
L 19.921875 54.6875 
L 34.71875 54.6875 
L 34.71875 47.703125 
L 19.921875 47.703125 
L 19.921875 0 
L 10.890625 0 
L 10.890625 47.703125 
L 2.296875 47.703125 
L 2.296875 54.6875 
L 10.890625 54.6875 
L 10.890625 58.5 
Q 10.890625 67.625 15.140625 71.796875 
Q 19.390625 75.984375 28.609375 75.984375 
z
" id="DejaVuSans-66"/>
      <path d="M 19.671875 64.796875 
L 19.671875 8.109375 
L 31.59375 8.109375 
Q 46.6875 8.109375 53.6875 14.9375 
Q 60.6875 21.78125 60.6875 36.53125 
Q 60.6875 51.171875 53.6875 57.984375 
Q 46.6875 64.796875 31.59375 64.796875 
z
M 9.8125 72.90625 
L 30.078125 72.90625 
Q 51.265625 72.90625 61.171875 64.09375 
Q 71.09375 55.28125 71.09375 36.53125 
Q 71.09375 17.671875 61.125 8.828125 
Q 51.171875 0 30.078125 0 
L 9.8125 0 
z
" id="DejaVuSans-44"/>
     </defs>
     <g transform="translate(172.910063 336.833125)scale(0.2 -0.2)">
      <use xlink:href="#DejaVuSans-6c"/>
      <use x="27.783203" xlink:href="#DejaVuSans-6f"/>
      <use x="88.964844" xlink:href="#DejaVuSans-67"/>
      <use x="152.441406" xlink:href="#DejaVuSans-31"/>
      <use x="216.064453" xlink:href="#DejaVuSans-30"/>
      <use x="279.6875" xlink:href="#DejaVuSans-20"/>
      <use x="311.474609" xlink:href="#DejaVuSans-6f"/>
      <use x="372.65625" xlink:href="#DejaVuSans-66"/>
      <use x="407.861328" xlink:href="#DejaVuSans-20"/>
      <use x="439.648438" xlink:href="#DejaVuSans-44"/>
      <use x="516.650391" xlink:href="#DejaVuSans-66"/>
     </g>
    </g>
   </g>
   <g id="matplotlib.axis_2">
    <g id="ytick_1">
     <g id="line2d_11">
      <path clip-path="url(#p865330b9d5)" d="M 5.52 291.28 
L 450.672 291.28 
" style="fill:none;stroke:#b0b0b0;stroke-linecap:square;stroke-width:0.8;"/>
     </g>
     <g id="line2d_12">
      <defs>
       <path d="M 0 0 
L -3.5 0 
" id="mcc4179fff6" style="stroke:#000000;stroke-width:0.8;"/>
      </defs>
      <g>
       <use style="stroke:#000000;stroke-width:0.8;" x="5.52" xlink:href="#mcc4179fff6" y="291.28"/>
      </g>
     </g>
    </g>
    <g id="ytick_2">
     <g id="line2d_13">
      <path clip-path="url(#p865330b9d5)" d="M 5.52 234.693861 
L 450.672 234.693861 
" style="fill:none;stroke:#b0b0b0;stroke-linecap:square;stroke-width:0.8;"/>
     </g>
     <g id="line2d_14">
      <g>
       <use style="stroke:#000000;stroke-width:0.8;" x="5.52" xlink:href="#mcc4179fff6" y="234.693861"/>
      </g>
     </g>
    </g>
    <g id="ytick_3">
     <g id="line2d_15">
      <path clip-path="url(#p865330b9d5)" d="M 5.52 178.107723 
L 450.672 178.107723 
" style="fill:none;stroke:#b0b0b0;stroke-linecap:square;stroke-width:0.8;"/>
     </g>
     <g id="line2d_16">
      <g>
       <use style="stroke:#000000;stroke-width:0.8;" x="5.52" xlink:href="#mcc4179fff6" y="178.107723"/>
      </g>
     </g>
    </g>
    <g id="ytick_4">
     <g id="line2d_17">
      <path clip-path="url(#p865330b9d5)" d="M 5.52 121.521584 
L 450.672 121.521584 
" style="fill:none;stroke:#b0b0b0;stroke-linecap:square;stroke-width:0.8;"/>
     </g>
     <g id="line2d_18">
      <g>
       <use style="stroke:#000000;stroke-width:0.8;" x="5.52" xlink:href="#mcc4179fff6" y="121.521584"/>
      </g>
     </g>
    </g>
    <g id="ytick_5">
     <g id="line2d_19">
      <path clip-path="url(#p865330b9d5)" d="M 5.52 64.935446 
L 450.672 64.935446 
" style="fill:none;stroke:#b0b0b0;stroke-linecap:square;stroke-width:0.8;"/>
     </g>
     <g id="line2d_20">
      <g>
       <use style="stroke:#000000;stroke-width:0.8;" x="5.52" xlink:href="#mcc4179fff6" y="64.935446"/>
      </g>
     </g>
    </g>
    <g id="ytick_6">
     <g id="line2d_21">
      <path clip-path="url(#p865330b9d5)" d="M 5.52 8.349307 
L 450.672 8.349307 
" style="fill:none;stroke:#b0b0b0;stroke-linecap:square;stroke-width:0.8;"/>
     </g>
     <g id="line2d_22">
      <g>
       <use style="stroke:#000000;stroke-width:0.8;" x="5.52" xlink:href="#mcc4179fff6" y="8.349307"/>
      </g>
     </g>
    </g>
   </g>
   <g id="line2d_23">
    <path clip-path="url(#p865330b9d5)" d="M 79.949862 291.28 
L 79.949862 287.507591 
L 82.437007 287.507591 
L 82.437007 283.735182 
L 136.259011 283.735182 
L 136.259011 279.962772 
L 158.512365 279.962772 
L 158.512365 276.190363 
L 175.845949 276.190363 
L 175.845949 272.417954 
L 175.964945 272.417954 
L 175.964945 268.645545 
L 177.781395 268.645545 
L 177.781395 264.873135 
L 186.187361 264.873135 
L 186.187361 261.100726 
L 195.810674 261.100726 
L 195.810674 257.328317 
L 196.745515 257.328317 
L 196.745515 253.555908 
L 204.865448 253.555908 
L 204.865448 249.783498 
L 206.30527 249.783498 
L 206.30527 246.011089 
L 206.524021 246.011089 
L 206.524021 242.23868 
L 213.458771 242.23868 
L 213.458771 238.466271 
L 215.589039 238.466271 
L 215.589039 234.693861 
L 217.552873 234.693861 
L 217.552873 230.921452 
L 218.205731 230.921452 
L 218.205731 227.149043 
L 220.144412 227.149043 
L 220.144412 223.376634 
L 226.846684 223.376634 
L 226.846684 219.604224 
L 231.142911 219.604224 
L 231.142911 215.831815 
L 232.636538 215.831815 
L 232.636538 212.059406 
L 233.355926 212.059406 
L 233.355926 208.286997 
L 235.299896 208.286997 
L 235.299896 204.514587 
L 238.446612 204.514587 
L 238.446612 200.742178 
L 238.993476 200.742178 
L 238.993476 196.969769 
L 239.257208 196.969769 
L 239.257208 193.19736 
L 240.391056 193.19736 
L 240.391056 189.42495 
L 241.353062 189.42495 
L 241.353062 185.652541 
L 241.755822 185.652541 
L 241.848895 178.107723 
L 242.231522 178.107723 
L 242.231522 174.335314 
L 242.489388 174.335314 
L 242.489388 170.562904 
L 242.61226 170.562904 
L 242.61226 166.790495 
L 243.767785 166.790495 
L 243.767785 163.018086 
L 244.362112 163.018086 
L 244.362112 159.245677 
L 244.557774 159.245677 
L 244.557774 155.473267 
L 245.147717 155.473267 
L 245.147717 151.700858 
L 245.294659 151.700858 
L 245.294659 147.928449 
L 246.207401 147.928449 
L 246.207401 144.15604 
L 246.959105 144.15604 
L 246.959105 140.38363 
L 247.128629 140.38363 
L 247.128629 136.611221 
L 248.604271 136.611221 
L 248.604271 132.838812 
L 248.883256 132.838812 
L 248.933748 121.521584 
L 249.307902 121.521584 
L 249.307902 117.749175 
L 250.882694 117.749175 
L 250.882694 113.976766 
L 252.104803 113.976766 
L 252.104803 110.204356 
L 252.924386 110.204356 
L 252.924386 106.431947 
L 253.860982 106.431947 
L 253.860982 102.659538 
L 255.796768 102.659538 
L 255.796768 98.887129 
L 256.394261 98.887129 
L 256.394261 95.114719 
L 258.217469 95.114719 
L 258.217469 91.34231 
L 259.059234 91.34231 
L 259.144356 83.797492 
L 259.74586 83.797492 
L 259.74586 80.025083 
L 259.903867 80.025083 
L 259.903867 76.252673 
L 260.133813 76.252673 
L 260.133813 72.480264 
L 261.34061 72.480264 
L 261.34061 68.707855 
L 261.508423 68.707855 
L 261.508423 64.935446 
L 265.192408 64.935446 
L 265.192408 61.163036 
L 266.915274 61.163036 
L 266.915274 57.390627 
L 269.559598 57.390627 
L 269.559598 53.618218 
L 270.349938 53.618218 
L 270.349938 49.845809 
L 270.681258 49.845809 
L 270.681258 46.073399 
L 271.980653 46.073399 
L 271.980653 42.30099 
L 274.232369 42.30099 
L 274.232369 38.528581 
L 277.949839 38.528581 
L 277.949839 34.756172 
L 278.318806 34.756172 
L 278.318806 30.983762 
L 278.986621 30.983762 
L 278.986621 27.211353 
L 283.767632 27.211353 
L 283.767632 23.438944 
L 285.999218 23.438944 
L 285.999218 19.666535 
L 307.717202 19.666535 
L 307.717202 15.894125 
L 321.734833 15.894125 
L 321.734833 12.121716 
L 322.494124 12.121716 
L 322.494124 8.349307 
L 322.494124 8.349307 
L 450.672 8.349307 
L 450.672 8.349307 
" style="fill:none;stroke:#ff0000;stroke-linecap:square;stroke-width:3;"/>
   </g>
   <g id="line2d_24">
    <path clip-path="url(#p865330b9d5)" d="M 227.237494 291.28 
L 227.237494 287.507591 
L 229.949106 287.507591 
L 229.949106 283.735182 
L 230.113888 283.735182 
L 230.113888 279.962772 
L 230.259395 279.962772 
L 230.259395 276.190363 
L 235.711808 276.190363 
L 235.711808 272.417954 
L 237.157786 272.417954 
L 237.157786 268.645545 
L 245.265531 268.645545 
L 245.265531 264.873135 
L 246.178116 264.873135 
L 246.178116 261.100726 
L 247.035941 261.100726 
L 247.035941 257.328317 
L 248.997735 257.328317 
L 248.997735 253.555908 
L 253.499266 253.555908 
L 253.499266 249.783498 
L 254.217276 249.783498 
L 254.217276 246.011089 
L 256.618041 246.011089 
L 256.618041 242.23868 
L 256.975337 242.23868 
L 256.975337 238.466271 
L 261.073039 238.466271 
L 261.073039 234.693861 
L 276.635507 234.693861 
L 276.635507 230.921452 
L 276.920551 230.921452 
L 276.920551 227.149043 
L 280.137727 227.149043 
L 280.137727 223.376634 
L 280.995671 223.376634 
L 280.995671 219.604224 
L 284.965263 219.604224 
L 284.965263 215.831815 
L 285.343417 215.831815 
L 285.343417 212.059406 
L 286.355253 212.059406 
L 286.355253 208.286997 
L 287.506009 208.286997 
L 287.506009 204.514587 
L 287.967813 204.514587 
L 287.967813 200.742178 
L 288.192206 200.742178 
L 288.200676 193.19736 
L 289.388341 193.19736 
L 289.388341 189.42495 
L 290.30945 189.42495 
L 290.30945 185.652541 
L 291.85976 185.652541 
L 291.85976 181.880132 
L 294.577833 181.880132 
L 294.577833 178.107723 
L 294.905883 178.107723 
L 294.905883 174.335314 
L 325.237394 174.335314 
L 325.237394 170.562904 
L 329.199366 170.562904 
L 329.199366 166.790495 
L 330.771666 166.790495 
L 330.771666 163.018086 
L 338.719519 163.018086 
L 338.719519 159.245677 
L 342.130554 159.245677 
L 342.130554 155.473267 
L 347.58795 155.473267 
L 347.58795 151.700858 
L 351.000235 151.700858 
L 351.000235 147.928449 
L 355.828235 147.928449 
L 355.828235 144.15604 
L 356.91343 144.15604 
L 356.91343 140.38363 
L 359.211319 140.38363 
L 359.211319 136.611221 
L 367.16561 136.611221 
L 367.16561 132.838812 
L 370.82306 132.838812 
L 370.82306 129.066403 
L 372.010956 129.066403 
L 372.010956 125.293993 
L 374.178283 125.293993 
L 374.178283 121.521584 
L 374.858567 121.521584 
L 374.858567 117.749175 
L 378.98994 117.749175 
L 378.98994 113.976766 
L 379.998 113.976766 
L 379.998 110.204356 
L 382.226606 110.204356 
L 382.226606 106.431947 
L 383.535581 106.431947 
L 383.535581 102.659538 
L 384.459783 102.659538 
L 384.459783 98.887129 
L 384.684187 98.887129 
L 384.684187 95.114719 
L 385.621047 95.114719 
L 385.621047 91.34231 
L 385.911682 91.34231 
L 385.911682 87.569901 
L 387.052519 87.569901 
L 387.052519 83.797492 
L 387.766383 83.797492 
L 387.766383 80.025083 
L 389.189059 80.025083 
L 389.189059 76.252673 
L 389.313676 76.252673 
L 389.313676 72.480264 
L 390.482626 72.480264 
L 390.482626 68.707855 
L 393.208207 68.707855 
L 393.208207 64.935446 
L 395.687123 64.935446 
L 395.687123 61.163036 
L 396.238417 61.163036 
L 396.238417 57.390627 
L 397.489285 57.390627 
L 397.489285 53.618218 
L 398.698995 53.618218 
L 398.698995 49.845809 
L 399.170732 49.845809 
L 399.170732 46.073399 
L 400.46496 46.073399 
L 400.46496 42.30099 
L 403.531558 42.30099 
L 403.531558 38.528581 
L 405.744787 38.528581 
L 405.744787 34.756172 
L 409.786808 34.756172 
L 409.786808 30.983762 
L 410.242688 30.983762 
L 410.242688 27.211353 
L 410.834883 27.211353 
L 410.834883 23.438944 
L 411.124271 23.438944 
L 411.124271 19.666535 
L 420.6539 19.666535 
L 420.6539 15.894125 
L 421.492933 15.894125 
L 421.492933 12.121716 
L 427.811398 12.121716 
L 427.811398 8.349307 
L 427.811398 8.349307 
L 450.672 8.349307 
L 450.672 8.349307 
" style="fill:none;stroke:#00bfbf;stroke-linecap:square;stroke-width:1.5;"/>
   </g>
   <g id="line2d_25">
    <path clip-path="url(#p865330b9d5)" d="M 227.236977 291.28 
L 227.236977 287.507591 
L 229.949106 287.507591 
L 229.949106 283.735182 
L 230.113234 283.735182 
L 230.113234 279.962772 
L 230.258579 279.962772 
L 230.258579 276.190363 
L 235.710054 276.190363 
L 235.710054 272.417954 
L 237.157786 272.417954 
L 237.157786 268.645545 
L 245.265247 268.645545 
L 245.265247 264.873135 
L 246.176866 264.873135 
L 246.176866 261.100726 
L 247.035883 261.100726 
L 247.035883 257.328317 
L 248.997559 257.328317 
L 248.997559 253.555908 
L 253.497722 253.555908 
L 253.497722 249.783498 
L 254.215952 249.783498 
L 254.215952 246.011089 
L 256.616438 246.011089 
L 256.616438 242.23868 
L 256.974013 242.23868 
L 256.974013 238.466271 
L 261.071725 238.466271 
L 261.071725 234.693861 
L 276.63497 234.693861 
L 276.63497 230.921452 
L 276.920096 230.921452 
L 276.920096 227.149043 
L 280.137727 227.149043 
L 280.137727 223.376634 
L 280.995581 223.376634 
L 280.995581 219.604224 
L 284.964659 219.604224 
L 284.964659 215.831815 
L 285.343417 215.831815 
L 285.343417 212.059406 
L 286.355253 212.059406 
L 286.355253 208.286997 
L 287.505927 208.286997 
L 287.505927 204.514587 
L 287.967445 204.514587 
L 287.967445 200.742178 
L 288.192153 200.742178 
L 288.200466 193.19736 
L 289.387901 193.19736 
L 289.387901 189.42495 
L 290.30945 189.42495 
L 290.30945 185.652541 
L 291.859507 185.652541 
L 291.859507 181.880132 
L 294.577833 181.880132 
L 294.577833 178.107723 
L 294.905808 178.107723 
L 294.905808 174.335314 
L 325.237394 174.335314 
L 325.237394 170.562904 
L 329.181619 170.562904 
L 329.181619 166.790495 
L 330.771666 166.790495 
L 330.771666 163.018086 
L 338.703099 163.018086 
L 338.703099 159.245677 
L 342.124582 159.245677 
L 342.124582 155.473267 
L 347.584832 155.473267 
L 347.584832 151.700858 
L 350.999844 151.700858 
L 350.999844 147.928449 
L 355.828235 147.928449 
L 355.828235 144.15604 
L 356.912506 144.15604 
L 356.912506 140.38363 
L 359.205845 140.38363 
L 359.205845 136.611221 
L 367.164531 136.611221 
L 367.164531 132.838812 
L 370.82306 132.838812 
L 370.82306 129.066403 
L 372.010956 129.066403 
L 372.010956 125.293993 
L 374.178283 125.293993 
L 374.178283 121.521584 
L 374.85845 121.521584 
L 374.85845 117.749175 
L 378.98994 117.749175 
L 378.98994 113.976766 
L 379.997095 113.976766 
L 379.997095 110.204356 
L 382.225733 110.204356 
L 382.225733 106.431947 
L 383.534542 106.431947 
L 383.534542 102.659538 
L 384.457883 102.659538 
L 384.457883 98.887129 
L 384.683019 98.887129 
L 384.683019 95.114719 
L 385.621047 95.114719 
L 385.621047 91.34231 
L 385.910213 91.34231 
L 385.910213 87.569901 
L 387.052048 87.569901 
L 387.052048 83.797492 
L 387.765723 83.797492 
L 387.765723 80.025083 
L 389.188411 80.025083 
L 389.188411 76.252673 
L 389.312604 76.252673 
L 389.312604 72.480264 
L 390.48037 72.480264 
L 390.48037 68.707855 
L 393.208142 68.707855 
L 393.208142 64.935446 
L 395.68605 64.935446 
L 395.68605 61.163036 
L 396.237674 61.163036 
L 396.237674 57.390627 
L 397.488842 57.390627 
L 397.488842 53.618218 
L 398.69867 53.618218 
L 398.69867 49.845809 
L 399.170228 49.845809 
L 399.170228 46.073399 
L 400.464208 46.073399 
L 400.464208 42.30099 
L 403.530827 42.30099 
L 403.530827 38.528581 
L 405.74426 38.528581 
L 405.74426 34.756172 
L 409.785498 34.756172 
L 409.785498 30.983762 
L 410.240841 30.983762 
L 410.240841 27.211353 
L 410.834883 27.211353 
L 410.834883 23.438944 
L 411.123495 23.438944 
L 411.123495 19.666535 
L 420.6539 19.666535 
L 420.6539 15.894125 
L 421.492053 15.894125 
L 421.492053 12.121716 
L 427.810861 12.121716 
L 427.810861 8.349307 
L 427.810861 8.349307 
L 450.672 8.349307 
L 450.672 8.349307 
" style="fill:none;stroke:#bf00bf;stroke-linecap:square;stroke-width:1.5;"/>
   </g>
   <g id="line2d_26">
    <path clip-path="url(#p865330b9d5)" d="M 227.230008 291.28 
L 227.230008 287.507591 
L 229.947203 287.507591 
L 229.947203 283.735182 
L 230.103863 283.735182 
L 230.103863 279.962772 
L 230.244799 279.962772 
L 230.244799 276.190363 
L 235.703545 276.190363 
L 235.703545 272.417954 
L 237.153327 272.417954 
L 237.153327 268.645545 
L 245.26314 268.645545 
L 245.26314 264.873135 
L 246.169549 264.873135 
L 246.169549 261.100726 
L 247.030465 261.100726 
L 247.030465 257.328317 
L 248.991441 257.328317 
L 248.991441 253.555908 
L 253.492469 253.555908 
L 253.492469 249.783498 
L 254.207635 249.783498 
L 254.207635 246.011089 
L 256.609704 246.011089 
L 256.609704 242.23868 
L 256.967962 242.23868 
L 256.967962 238.466271 
L 261.067031 238.466271 
L 261.067031 234.693861 
L 276.629026 234.693861 
L 276.629026 230.921452 
L 276.914871 230.921452 
L 276.914871 227.149043 
L 280.132154 227.149043 
L 280.132154 223.376634 
L 280.991848 223.376634 
L 280.991848 219.604224 
L 284.447629 219.604224 
L 284.447629 215.831815 
L 284.961636 215.831815 
L 284.961636 212.059406 
L 286.353167 212.059406 
L 286.353167 208.286997 
L 287.503514 208.286997 
L 287.503514 204.514587 
L 287.965299 204.514587 
L 287.965299 200.742178 
L 288.189465 200.742178 
L 288.196703 193.19736 
L 289.385475 193.19736 
L 289.385475 189.42495 
L 290.307689 189.42495 
L 290.307689 185.652541 
L 291.856652 185.652541 
L 291.856652 181.880132 
L 294.575995 181.880132 
L 294.575995 178.107723 
L 294.90431 178.107723 
L 294.90431 174.335314 
L 325.178733 174.335314 
L 325.178733 170.562904 
L 329.088179 170.562904 
L 329.088179 166.790495 
L 330.674314 166.790495 
L 330.674314 163.018086 
L 338.661443 163.018086 
L 338.661443 159.245677 
L 342.055799 159.245677 
L 342.055799 155.473267 
L 347.564349 155.473267 
L 347.564349 151.700858 
L 350.993831 151.700858 
L 350.993831 147.928449 
L 355.801888 147.928449 
L 355.801888 144.15604 
L 356.908622 144.15604 
L 356.908622 140.38363 
L 359.175191 140.38363 
L 359.175191 136.611221 
L 367.127883 136.611221 
L 367.127883 132.838812 
L 370.802699 132.838812 
L 370.802699 129.066403 
L 372.002915 129.066403 
L 372.002915 125.293993 
L 374.159092 125.293993 
L 374.159092 121.521584 
L 374.848196 121.521584 
L 374.848196 117.749175 
L 378.98282 117.749175 
L 378.98282 113.976766 
L 379.991698 113.976766 
L 379.991698 110.204356 
L 382.216905 110.204356 
L 382.216905 106.431947 
L 383.522155 106.431947 
L 383.522155 102.659538 
L 384.451345 102.659538 
L 384.451345 98.887129 
L 384.668455 98.887129 
L 384.668455 95.114719 
L 385.61717 95.114719 
L 385.61717 91.34231 
L 385.9039 91.34231 
L 385.9039 87.569901 
L 387.046028 87.569901 
L 387.046028 83.797492 
L 387.761078 83.797492 
L 387.761078 80.025083 
L 389.17995 80.025083 
L 389.17995 76.252673 
L 389.30483 76.252673 
L 389.30483 72.480264 
L 390.469553 72.480264 
L 390.469553 68.707855 
L 393.201171 68.707855 
L 393.201171 64.935446 
L 395.675701 64.935446 
L 395.675701 61.163036 
L 396.23164 61.163036 
L 396.23164 57.390627 
L 397.483775 57.390627 
L 397.483775 53.618218 
L 398.694127 53.618218 
L 398.694127 49.845809 
L 399.167703 49.845809 
L 399.167703 46.073399 
L 400.460168 46.073399 
L 400.460168 42.30099 
L 403.52655 42.30099 
L 403.52655 38.528581 
L 405.740536 38.528581 
L 405.740536 34.756172 
L 409.779166 34.756172 
L 409.779166 30.983762 
L 410.233267 30.983762 
L 410.233267 27.211353 
L 410.820934 27.211353 
L 410.820934 23.438944 
L 411.113635 23.438944 
L 411.113635 19.666535 
L 420.645343 19.666535 
L 420.645343 15.894125 
L 421.482671 15.894125 
L 421.482671 12.121716 
L 427.805861 12.121716 
L 427.805861 8.349307 
L 427.805861 8.349307 
L 450.672 8.349307 
L 450.672 8.349307 
" style="fill:none;stroke:#000000;stroke-linecap:square;stroke-width:1.5;"/>
   </g>
   <g id="line2d_27">
    <path clip-path="url(#p865330b9d5)" d="M 226.58217 291.28 
L 226.58217 287.507591 
L 228.578972 287.507591 
L 228.578972 283.735182 
L 228.88834 283.735182 
L 228.88834 279.962772 
L 229.672757 279.962772 
L 229.672757 276.190363 
L 234.861913 276.190363 
L 234.861913 272.417954 
L 236.528449 272.417954 
L 236.528449 268.645545 
L 244.974271 268.645545 
L 244.974271 264.873135 
L 245.361365 264.873135 
L 245.361365 261.100726 
L 246.537933 261.100726 
L 246.537933 257.328317 
L 248.186229 257.328317 
L 248.186229 253.555908 
L 249.741785 253.555908 
L 249.741785 249.783498 
L 252.612299 249.783498 
L 252.612299 246.011089 
L 253.239834 246.011089 
L 253.239834 242.23868 
L 255.606069 242.23868 
L 255.606069 238.466271 
L 256.161449 238.466271 
L 256.161449 234.693861 
L 260.321714 234.693861 
L 260.321714 230.921452 
L 276.043994 230.921452 
L 276.043994 227.149043 
L 276.337365 227.149043 
L 276.337365 223.376634 
L 279.43848 223.376634 
L 279.43848 219.604224 
L 280.488676 219.604224 
L 280.488676 215.831815 
L 284.536566 215.831815 
L 284.536566 212.059406 
L 286.065997 212.059406 
L 286.065997 208.286997 
L 287.165203 208.286997 
L 287.165203 204.514587 
L 287.675344 204.514587 
L 287.675344 200.742178 
L 287.81778 200.742178 
L 287.825549 193.19736 
L 289.082089 193.19736 
L 289.082089 189.42495 
L 290.065785 189.42495 
L 290.065785 185.652541 
L 291.576403 185.652541 
L 291.576403 181.880132 
L 294.323093 181.880132 
L 294.323093 178.107723 
L 294.693124 178.107723 
L 294.693124 174.335314 
L 302.757796 174.335314 
L 302.757796 170.562904 
L 319.644821 170.562904 
L 319.644821 166.790495 
L 320.547679 166.790495 
L 320.547679 163.018086 
L 329.777492 163.018086 
L 329.777492 159.245677 
L 330.105868 159.245677 
L 330.105868 155.473267 
L 345.76385 155.473267 
L 345.76385 151.700858 
L 350.135152 151.700858 
L 350.135152 147.928449 
L 352.381872 147.928449 
L 352.381872 144.15604 
L 354.79109 144.15604 
L 354.79109 140.38363 
L 355.215629 140.38363 
L 355.215629 136.611221 
L 363.502748 136.611221 
L 363.502748 132.838812 
L 366.460819 132.838812 
L 366.460819 129.066403 
L 370.244341 129.066403 
L 370.244341 125.293993 
L 371.983335 125.293993 
L 371.983335 121.521584 
L 373.753176 121.521584 
L 373.753176 117.749175 
L 378.091466 117.749175 
L 378.091466 113.976766 
L 379.230597 113.976766 
L 379.230597 110.204356 
L 381.364586 110.204356 
L 381.364586 106.431947 
L 381.750849 106.431947 
L 381.750849 102.659538 
L 383.084312 102.659538 
L 383.084312 98.887129 
L 383.369377 98.887129 
L 383.369377 95.114719 
L 384.792957 95.114719 
L 384.792957 91.34231 
L 385.059514 91.34231 
L 385.059514 87.569901 
L 386.045134 87.569901 
L 386.045134 83.797492 
L 387.090312 83.797492 
L 387.090312 80.025083 
L 388.035075 80.025083 
L 388.035075 76.252673 
L 388.509944 76.252673 
L 388.509944 72.480264 
L 388.834749 72.480264 
L 388.834749 68.707855 
L 392.507294 68.707855 
L 392.507294 64.935446 
L 394.25248 64.935446 
L 394.25248 61.163036 
L 395.595876 61.163036 
L 395.595876 57.390627 
L 396.726964 57.390627 
L 396.726964 53.618218 
L 398.062973 53.618218 
L 398.062973 49.845809 
L 398.728224 49.845809 
L 398.728224 46.073399 
L 399.890525 46.073399 
L 399.890525 42.30099 
L 403.027358 42.30099 
L 403.027358 38.528581 
L 405.274014 38.528581 
L 405.274014 34.756172 
L 408.938008 34.756172 
L 408.93873 27.211353 
L 409.18841 27.211353 
L 409.18841 23.438944 
L 409.649362 23.438944 
L 409.649362 19.666535 
L 419.503791 19.666535 
L 419.503791 15.894125 
L 420.164181 15.894125 
L 420.164181 12.121716 
L 427.11657 12.121716 
L 427.11657 8.349307 
L 427.11657 8.349307 
L 450.672 8.349307 
L 450.672 8.349307 
" style="fill:none;stroke:#00bfbf;stroke-linecap:square;stroke-width:1.5;"/>
   </g>
   <g id="line2d_28">
    <path clip-path="url(#p865330b9d5)" d="M 169.891078 291.28 
L 169.891078 287.507591 
L 175.071167 287.507591 
L 175.071167 283.735182 
L 198.320156 283.735182 
L 198.320156 279.962772 
L 206.332888 279.962772 
L 206.332888 276.190363 
L 206.524022 276.190363 
L 206.524022 272.417954 
L 212.891817 272.417954 
L 212.891817 268.645545 
L 218.009008 268.645545 
L 218.009008 264.873135 
L 218.465131 264.873135 
L 218.465131 261.100726 
L 222.666605 261.100726 
L 222.666605 257.328317 
L 223.400996 257.328317 
L 223.400996 253.555908 
L 224.498244 253.555908 
L 224.498244 249.783498 
L 227.160168 249.783498 
L 227.160168 246.011089 
L 227.97134 246.011089 
L 227.97134 242.23868 
L 235.202781 242.23868 
L 235.299896 234.693861 
L 238.446612 234.693861 
L 238.446612 230.921452 
L 239.574069 230.921452 
L 239.574069 227.149043 
L 240.391056 227.149043 
L 240.391056 223.376634 
L 241.755822 223.376634 
L 241.755822 219.604224 
L 242.231522 219.604224 
L 242.231522 215.831815 
L 242.489388 215.831815 
L 242.489388 212.059406 
L 243.429557 212.059406 
L 243.429557 208.286997 
L 244.362112 208.286997 
L 244.362112 204.514587 
L 245.147717 204.514587 
L 245.147717 200.742178 
L 245.887492 200.742178 
L 245.887492 196.969769 
L 246.959105 196.969769 
L 246.959105 193.19736 
L 248.604271 193.19736 
L 248.604271 189.42495 
L 248.883256 189.42495 
L 248.933748 178.107723 
L 252.104803 178.107723 
L 252.104803 174.335314 
L 255.293789 174.335314 
L 255.293789 170.562904 
L 256.394261 170.562904 
L 256.394261 166.790495 
L 256.620484 166.790495 
L 256.620484 163.018086 
L 260.367752 163.018086 
L 260.367752 159.245677 
L 261.340633 159.245677 
L 261.340633 155.473267 
L 263.343005 155.473267 
L 263.343005 151.700858 
L 263.956732 151.700858 
L 263.956732 147.928449 
L 267.37459 147.928449 
L 267.37459 144.15604 
L 269.14244 144.15604 
L 269.14244 140.38363 
L 271.404406 140.38363 
L 271.404406 136.611221 
L 273.347061 136.611221 
L 273.347061 132.838812 
L 273.999215 132.838812 
L 273.999215 129.066403 
L 274.926051 129.066403 
L 275.03245 121.521584 
L 275.552575 121.521584 
L 275.552575 117.749175 
L 276.42659 117.749175 
L 276.42659 113.976766 
L 276.69868 113.976766 
L 276.69868 110.204356 
L 276.970176 110.204356 
L 276.970176 106.431947 
L 278.440043 106.431947 
L 278.440043 102.659538 
L 280.494409 102.659538 
L 280.494409 98.887129 
L 283.269556 98.887129 
L 283.269556 95.114719 
L 284.905799 95.114719 
L 284.905799 91.34231 
L 293.952731 91.34231 
L 293.952731 87.569901 
L 296.00559 87.569901 
L 296.00559 83.797492 
L 298.763428 83.797492 
L 298.763428 80.025083 
L 305.017592 80.025083 
L 305.017592 76.252673 
L 310.158389 76.252673 
L 310.158389 72.480264 
L 315.261074 72.480264 
L 315.261074 68.707855 
L 315.644705 68.707855 
L 315.644705 64.935446 
L 319.543862 64.935446 
L 319.562154 57.390627 
L 321.734833 57.390627 
L 321.734833 53.618218 
L 322.494124 53.618218 
L 322.494124 49.845809 
L 331.286299 49.845809 
L 331.286299 46.073399 
L 343.773838 46.073399 
L 343.773838 42.30099 
L 346.288517 42.30099 
L 346.288517 38.528581 
L 357.016966 38.528581 
L 357.016966 34.756172 
L 360.321363 34.756172 
L 360.321363 30.983762 
L 360.770418 30.983762 
L 360.770418 27.211353 
L 370.071164 27.211353 
L 370.071164 23.438944 
L 374.13054 23.438944 
L 374.13054 19.666535 
L 377.138669 19.666535 
L 377.138669 15.894125 
L 382.624327 15.894125 
L 382.624327 12.121716 
L 389.371673 12.121716 
L 389.371673 8.349307 
L 389.371673 8.349307 
L 450.672 8.349307 
L 450.672 8.349307 
" style="fill:none;stroke:#bf00bf;stroke-linecap:square;stroke-width:1.5;"/>
   </g>
   <g id="patch_3">
    <path d="M 5.52 291.28 
L 5.52 5.52 
" style="fill:none;stroke:#000000;stroke-linecap:square;stroke-linejoin:miter;stroke-width:0.8;"/>
   </g>
   <g id="patch_4">
    <path d="M 450.672 291.28 
L 450.672 5.52 
" style="fill:none;stroke:#000000;stroke-linecap:square;stroke-linejoin:miter;stroke-width:0.8;"/>
   </g>
   <g id="patch_5">
    <path d="M 5.52 291.28 
L 450.672 291.28 
" style="fill:none;stroke:#000000;stroke-linecap:square;stroke-linejoin:miter;stroke-width:0.8;"/>
   </g>
   <g id="patch_6">
    <path d="M 5.52 5.52 
L 450.672 5.52 
" style="fill:none;stroke:#000000;stroke-linecap:square;stroke-linejoin:miter;stroke-width:0.8;"/>
   </g>
   <g id="text_6">
    <!-- {f10-f14}, 5-D -->
    <defs>
     <path d="M 51.125 -9.28125 
L 51.125 -16.3125 
L 48.09375 -16.3125 
Q 35.9375 -16.3125 31.8125 -12.6875 
Q 27.6875 -9.078125 27.6875 1.703125 
L 27.6875 13.375 
Q 27.6875 20.75 25.046875 23.578125 
Q 22.40625 26.421875 15.484375 26.421875 
L 12.5 26.421875 
L 12.5 33.40625 
L 15.484375 33.40625 
Q 22.46875 33.40625 25.078125 36.203125 
Q 27.6875 39.015625 27.6875 46.296875 
L 27.6875 58.015625 
Q 27.6875 68.796875 31.8125 72.390625 
Q 35.9375 75.984375 48.09375 75.984375 
L 51.125 75.984375 
L 51.125 69 
L 47.796875 69 
Q 40.921875 69 38.8125 66.84375 
Q 36.71875 64.703125 36.71875 57.8125 
L 36.71875 45.703125 
Q 36.71875 38.03125 34.5 34.5625 
Q 32.28125 31.109375 26.90625 29.890625 
Q 32.328125 28.5625 34.515625 25.09375 
Q 36.71875 21.625 36.71875 14.015625 
L 36.71875 1.90625 
Q 36.71875 -4.984375 38.8125 -7.125 
Q 40.921875 -9.28125 47.796875 -9.28125 
z
" id="DejaVuSans-7b"/>
     <path d="M 12.5 -9.28125 
L 15.921875 -9.28125 
Q 22.75 -9.28125 24.828125 -7.171875 
Q 26.90625 -5.078125 26.90625 1.90625 
L 26.90625 14.015625 
Q 26.90625 21.625 29.09375 25.09375 
Q 31.296875 28.5625 36.71875 29.890625 
Q 31.296875 31.109375 29.09375 34.5625 
Q 26.90625 38.03125 26.90625 45.703125 
L 26.90625 57.8125 
Q 26.90625 64.75 24.828125 66.875 
Q 22.75 69 15.921875 69 
L 12.5 69 
L 12.5 75.984375 
L 15.578125 75.984375 
Q 27.734375 75.984375 31.8125 72.390625 
Q 35.890625 68.796875 35.890625 58.015625 
L 35.890625 46.296875 
Q 35.890625 39.015625 38.515625 36.203125 
Q 41.15625 33.40625 48.09375 33.40625 
L 51.125 33.40625 
L 51.125 26.421875 
L 48.09375 26.421875 
Q 41.15625 26.421875 38.515625 23.578125 
Q 35.890625 20.75 35.890625 13.375 
L 35.890625 1.703125 
Q 35.890625 -9.078125 31.8125 -12.6875 
Q 27.734375 -16.3125 15.578125 -16.3125 
L 12.5 -16.3125 
z
" id="DejaVuSans-7d"/>
     <path d="M 11.71875 12.40625 
L 22.015625 12.40625 
L 22.015625 4 
L 14.015625 -11.625 
L 7.71875 -11.625 
L 11.71875 4 
z
" id="DejaVuSans-2c"/>
     <path d="M 10.796875 72.90625 
L 49.515625 72.90625 
L 49.515625 64.59375 
L 19.828125 64.59375 
L 19.828125 46.734375 
Q 21.96875 47.46875 24.109375 47.828125 
Q 26.265625 48.1875 28.421875 48.1875 
Q 40.625 48.1875 47.75 41.5 
Q 54.890625 34.8125 54.890625 23.390625 
Q 54.890625 11.625 47.5625 5.09375 
Q 40.234375 -1.421875 26.90625 -1.421875 
Q 22.3125 -1.421875 17.546875 -0.640625 
Q 12.796875 0.140625 7.71875 1.703125 
L 7.71875 11.625 
Q 12.109375 9.234375 16.796875 8.0625 
Q 21.484375 6.890625 26.703125 6.890625 
Q 35.15625 6.890625 40.078125 11.328125 
Q 45.015625 15.765625 45.015625 23.390625 
Q 45.015625 31 40.078125 35.4375 
Q 35.15625 39.890625 26.703125 39.890625 
Q 22.75 39.890625 18.8125 39.015625 
Q 14.890625 38.140625 10.796875 36.28125 
z
" id="DejaVuSans-35"/>
    </defs>
    <g transform="translate(296.06896 285.5648)scale(0.2 -0.2)">
     <use xlink:href="#DejaVuSans-7b"/>
     <use x="63.623047" xlink:href="#DejaVuSans-66"/>
     <use x="98.828125" xlink:href="#DejaVuSans-31"/>
     <use x="162.451172" xlink:href="#DejaVuSans-30"/>
     <use x="226.074219" xlink:href="#DejaVuSans-2d"/>
     <use x="262.158203" xlink:href="#DejaVuSans-66"/>
     <use x="297.363281" xlink:href="#DejaVuSans-31"/>
     <use x="360.986328" xlink:href="#DejaVuSans-34"/>
     <use x="424.609375" xlink:href="#DejaVuSans-7d"/>
     <use x="488.232422" xlink:href="#DejaVuSans-2c"/>
     <use x="520.019531" xlink:href="#DejaVuSans-20"/>
     <use x="551.806641" xlink:href="#DejaVuSans-35"/>
     <use x="615.429688" xlink:href="#DejaVuSans-2d"/>
     <use x="651.513672" xlink:href="#DejaVuSans-44"/>
    </g>
   </g>
   <g id="text_7">
    <!-- v2.2.1.10 -->
    <defs>
     <path d="M 2.984375 54.6875 
L 12.5 54.6875 
L 29.59375 8.796875 
L 46.6875 54.6875 
L 56.203125 54.6875 
L 35.6875 0 
L 23.484375 0 
z
" id="DejaVuSans-76"/>
     <path d="M 19.1875 8.296875 
L 53.609375 8.296875 
L 53.609375 0 
L 7.328125 0 
L 7.328125 8.296875 
Q 12.9375 14.109375 22.625 23.890625 
Q 32.328125 33.6875 34.8125 36.53125 
Q 39.546875 41.84375 41.421875 45.53125 
Q 43.3125 49.21875 43.3125 52.78125 
Q 43.3125 58.59375 39.234375 62.25 
Q 35.15625 65.921875 28.609375 65.921875 
Q 23.96875 65.921875 18.8125 64.3125 
Q 13.671875 62.703125 7.8125 59.421875 
L 7.8125 69.390625 
Q 13.765625 71.78125 18.9375 73 
Q 24.125 74.21875 28.421875 74.21875 
Q 39.75 74.21875 46.484375 68.546875 
Q 53.21875 62.890625 53.21875 53.421875 
Q 53.21875 48.921875 51.53125 44.890625 
Q 49.859375 40.875 45.40625 35.40625 
Q 44.1875 33.984375 37.640625 27.21875 
Q 31.109375 20.453125 19.1875 8.296875 
z
" id="DejaVuSans-32"/>
     <path d="M 10.6875 12.40625 
L 21 12.40625 
L 21 0 
L 10.6875 0 
z
" id="DejaVuSans-2e"/>
    </defs>
    <g style="fill:#808080;" transform="translate(204.463188 286.342713)scale(0.1 -0.1)">
     <use xlink:href="#DejaVuSans-76"/>
     <use x="59.179688" xlink:href="#DejaVuSans-32"/>
     <use x="122.802734" xlink:href="#DejaVuSans-2e"/>
     <use x="154.589844" xlink:href="#DejaVuSans-32"/>
     <use x="218.212891" xlink:href="#DejaVuSans-2e"/>
     <use x="250" xlink:href="#DejaVuSans-31"/>
     <use x="313.623047" xlink:href="#DejaVuSans-2e"/>
     <use x="345.410156" xlink:href="#DejaVuSans-31"/>
     <use x="409.033203" xlink:href="#DejaVuSans-30"/>
    </g>
   </g>
  </g>
 </g>
 <defs>
  <clipPath id="p865330b9d5">
   <rect height="285.76" width="445.152" x="5.52" y="5.52"/>
  </clipPath>
 </defs>
</svg>
