<?xml version="1.0" encoding="utf-8" standalone="no"?>
<!DOCTYPE svg PUBLIC "-//W3C//DTD SVG 1.1//EN"
  "http://www.w3.org/Graphics/SVG/1.1/DTD/svg11.dtd">
<!-- Created with matplotlib (http://matplotlib.org/) -->
<svg height="345.6pt" version="1.1" viewBox="0 0 460.8 345.6" width="460.8pt" xmlns="http://www.w3.org/2000/svg" xmlns:xlink="http://www.w3.org/1999/xlink">
 <defs>
  <style type="text/css">
*{stroke-linecap:butt;stroke-linejoin:round;}
  </style>
 </defs>
 <g id="figure_1">
  <g id="patch_1">
   <path d="M 0 345.6 
L 460.8 345.6 
L 460.8 0 
L 0 0 
z
" style="fill:#ffffff;"/>
  </g>
  <g id="axes_1">
   <g id="patch_2">
    <path d="M 59.72 291.28 
L 450.672 291.28 
L 450.672 6.845228 
L 59.72 6.845228 
z
" style="fill:#ffffff;"/>
   </g>
   <g id="line2d_1">
    <path clip-path="url(#pf04477470f)" d="M 269.415338 291.28 
L 269.415338 279.545892 
L 277.938396 279.545892 
L 277.938396 278.763618 
L 281.857076 278.763618 
L 281.857076 277.199071 
L 285.57809 277.199071 
L 285.57809 274.069975 
L 289.120425 274.069975 
L 289.120425 271.723154 
L 292.500458 271.723154 
L 292.500458 268.594058 
L 295.732411 268.594058 
L 295.732411 267.811784 
L 447.429862 267.811784 
L 447.429862 267.029511 
L 453.263102 267.029511 
L 453.263102 266.247237 
L 455.473119 266.247237 
L 455.473119 264.682689 
L 456.553789 264.682689 
L 456.553789 263.900415 
L 456.910524 263.900415 
L 456.910524 263.118141 
L 457.265542 263.118141 
L 457.265542 262.335868 
L 459.015454 262.335868 
L 459.015454 261.553594 
L 460.04582 261.553594 
L 460.04582 260.77132 
L 460.386102 260.77132 
L 460.386102 259.206772 
L 460.724823 259.206772 
L 460.724823 257.642224 
L 461.731753 257.642224 
L 461.731753 256.077677 
L 461.8 256.077677 
" style="fill:none;stroke:#f5deb3;stroke-linecap:square;stroke-width:1.5;"/>
   </g>
   <g id="line2d_2">
    <path clip-path="url(#pf04477470f)" style="fill:none;stroke:#f5deb3;stroke-linecap:square;stroke-width:1.5;"/>
   </g>
   <g id="line2d_3">
    <path clip-path="url(#pf04477470f)" d="M 240.883473 291.28 
L 240.883473 288.150905 
L 241.199467 288.150905 
L 241.199467 287.368631 
L 241.514114 287.368631 
L 241.514114 280.328166 
L 241.827424 280.328166 
L 241.827424 279.545892 
L 242.139409 279.545892 
L 242.139409 278.763618 
L 242.759451 278.763618 
L 242.759451 277.981345 
L 245.783828 277.981345 
L 245.783828 277.199071 
L 246.959701 277.199071 
L 246.959701 276.416797 
L 249.256679 276.416797 
L 249.256679 274.852249 
L 250.09994 274.852249 
L 250.09994 274.069975 
L 250.378898 274.069975 
L 250.378898 273.287701 
L 250.656806 273.287701 
L 250.656806 272.505428 
L 252.030859 272.505428 
L 252.030859 271.723154 
L 252.302625 271.723154 
L 252.302625 270.94088 
L 253.111969 270.94088 
L 253.111969 270.158606 
L 255.488061 270.158606 
L 255.488061 269.376332 
L 259.532058 269.376332 
L 259.532058 268.594058 
L 262.662048 268.594058 
L 262.662048 267.811784 
L 397.56628 267.811784 
L 397.56628 267.029511 
L 448.615026 267.029511 
L 448.615026 266.247237 
L 461.013922 266.247237 
L 461.013922 265.464963 
L 461.8 265.464963 
L 461.8 265.464963 
" style="fill:none;stroke:#f5deb3;stroke-linecap:square;stroke-width:1.5;"/>
   </g>
   <g id="line2d_4">
    <path clip-path="url(#pf04477470f)" d="M 187.489292 291.28 
L 187.489292 290.497726 
L 188.78379 290.497726 
L 188.78379 289.715452 
L 190.683924 289.715452 
L 190.683924 288.933178 
L 193.143635 288.933178 
L 193.143635 288.150905 
L 195.523985 288.150905 
L 195.523985 287.368631 
L 203.823114 287.368631 
L 203.823114 285.804083 
L 204.344561 285.804083 
L 204.344561 285.021809 
L 207.895015 285.021809 
L 207.895015 283.457261 
L 212.22238 283.457261 
L 212.22238 282.674988 
L 217.188347 282.674988 
L 217.188347 281.892714 
L 218.056409 281.892714 
L 218.056409 281.11044 
L 219.762485 281.11044 
L 219.762485 280.328166 
L 249.256679 280.328166 
L 249.256679 279.545892 
L 383.321701 279.545892 
L 383.321701 278.763618 
L 386.645484 278.763618 
L 386.645484 277.981345 
L 387.127022 277.981345 
L 387.127022 277.199071 
L 387.69209 277.199071 
L 387.69209 276.416797 
L 388.510251 276.416797 
L 388.510251 275.634523 
L 390.412563 275.634523 
L 390.412563 274.852249 
L 390.662538 274.852249 
L 390.662538 274.069975 
L 390.78721 274.069975 
L 390.78721 273.287701 
L 390.91167 273.287701 
L 390.91167 272.505428 
L 391.366239 272.505428 
L 391.366239 271.723154 
L 391.61301 271.723154 
L 391.695084 270.158606 
L 393.558018 270.158606 
L 393.558018 269.376332 
L 393.877259 269.376332 
L 393.877259 268.594058 
L 394.234762 268.594058 
L 394.234762 267.811784 
L 461.349779 267.811784 
L 461.349779 267.029511 
L 461.8 267.029511 
L 461.8 267.029511 
" style="fill:none;stroke:#f5deb3;stroke-linecap:square;stroke-width:1.5;"/>
   </g>
   <g id="line2d_5">
    <path clip-path="url(#pf04477470f)" style="fill:none;stroke:#f5deb3;stroke-linecap:square;stroke-width:1.5;"/>
   </g>
   <g id="line2d_6"/>
   <g id="line2d_7">
    <path clip-path="url(#pf04477470f)" d="M 239.28288 291.28 
L 239.28288 290.497726 
L 254.441455 290.497726 
L 254.441455 289.715452 
L 255.747409 289.715452 
L 255.747409 288.933178 
L 256.775781 288.933178 
L 256.775781 288.150905 
L 257.03065 288.150905 
L 257.03065 287.368631 
L 257.790016 287.368631 
L 257.790016 286.586357 
L 259.038514 286.586357 
L 259.038514 285.021809 
L 259.532058 285.021809 
L 259.532058 284.239535 
L 266.11593 284.239535 
L 266.11593 283.457261 
L 268.331846 283.457261 
L 268.331846 282.674988 
L 270.27082 282.674988 
L 270.27082 281.892714 
L 272.160142 281.892714 
L 272.160142 281.11044 
L 282.580459 281.11044 
L 282.580459 279.545892 
L 407.871954 279.545892 
L 407.871954 278.763618 
L 420.273927 278.763618 
L 420.273927 277.981345 
L 421.187078 277.981345 
L 421.187078 277.199071 
L 423.033823 277.199071 
L 423.033823 276.416797 
L 423.488377 276.416797 
L 423.488377 275.634523 
L 423.701319 275.634523 
L 423.701319 274.852249 
L 424.046045 274.852249 
L 424.046045 274.069975 
L 424.231002 274.069975 
L 424.231002 273.287701 
L 424.704486 273.287701 
L 424.730702 271.723154 
L 425.82344 271.723154 
L 425.82344 270.94088 
L 426.543044 270.94088 
L 426.543044 270.158606 
L 427.230363 270.158606 
L 427.230363 269.376332 
L 429.032516 269.376332 
L 429.032516 268.594058 
L 429.697134 268.594058 
L 429.697134 267.811784 
L 430.039409 267.811784 
L 430.039409 267.029511 
L 461.8 267.029511 
L 461.8 267.029511 
" style="fill:none;stroke:#f5deb3;stroke-linecap:square;stroke-width:1.5;"/>
   </g>
   <g id="line2d_8">
    <path clip-path="url(#pf04477470f)" d="M 0 0 
" style="fill:none;stroke:#f5deb3;stroke-linecap:square;stroke-width:1.5;"/>
   </g>
   <g id="line2d_9">
    <path clip-path="url(#pf04477470f)" d="M 231.796009 291.28 
L 231.796009 290.497726 
L 234.261591 290.497726 
L 234.261591 289.715452 
L 238.958552 289.715452 
L 238.958552 288.933178 
L 240.247396 288.933178 
L 240.247396 288.150905 
L 240.56612 288.150905 
L 240.56612 287.368631 
L 241.514114 287.368631 
L 241.514114 286.586357 
L 243.374325 286.586357 
L 243.374325 285.804083 
L 243.679851 285.804083 
L 243.679851 285.021809 
L 245.486908 285.021809 
L 245.486908 284.239535 
L 251.209502 284.239535 
L 251.209502 283.457261 
L 252.573394 283.457261 
L 252.573394 282.674988 
L 257.790016 282.674988 
L 257.790016 281.892714 
L 259.532058 281.892714 
L 259.532058 281.11044 
L 262.662048 281.11044 
L 262.662048 280.328166 
L 265.210588 280.328166 
L 265.210588 279.545892 
L 407.541821 279.545892 
L 407.541821 278.763618 
L 409.918496 278.763618 
L 409.918496 277.981345 
L 415.619568 277.981345 
L 415.619568 277.199071 
L 419.490169 277.199071 
L 419.490169 276.416797 
L 419.967014 276.416797 
L 419.967014 275.634523 
L 420.662705 275.634523 
L 420.662705 274.852249 
L 420.966744 274.852249 
L 420.966744 274.069975 
L 422.197653 274.069975 
L 422.278988 272.505428 
L 422.980162 272.505428 
L 422.980162 271.723154 
L 423.54167 271.723154 
L 423.54167 270.94088 
L 424.283761 270.94088 
L 424.283761 270.158606 
L 424.652027 270.158606 
L 424.652027 269.376332 
L 425.279094 269.376332 
L 425.279094 268.594058 
L 426.235501 268.594058 
L 426.338158 267.029511 
L 430.888212 267.029511 
L 430.888212 266.247237 
L 461.8 266.247237 
L 461.8 266.247237 
" style="fill:none;stroke:#f5deb3;stroke-linecap:square;stroke-width:1.5;"/>
   </g>
   <g id="line2d_10">
    <path clip-path="url(#pf04477470f)" d="M 287.790939 291.28 
L 287.790939 290.497726 
L 290.102051 290.497726 
L 290.102051 289.715452 
L 300.258694 289.715452 
L 300.258694 288.150905 
L 305.716595 288.150905 
L 305.716595 287.368631 
L 314.275514 287.368631 
L 314.275514 286.586357 
L 320.127349 286.586357 
L 320.127349 285.804083 
L 461.8 285.804083 
L 461.8 285.804083 
" style="fill:none;stroke:#f5deb3;stroke-linecap:square;stroke-width:1.5;"/>
   </g>
   <g id="line2d_11">
    <path clip-path="url(#pf04477470f)" d="M 175.459499 291.28 
L 175.459499 290.497726 
L 186.833426 290.497726 
L 186.833426 289.715452 
L 188.78379 289.715452 
L 188.78379 288.933178 
L 190.055968 288.933178 
L 190.055968 288.150905 
L 191.924029 288.150905 
L 191.924029 287.368631 
L 193.74596 287.368631 
L 193.74596 286.586357 
L 198.395339 286.586357 
L 198.395339 285.804083 
L 203.297955 285.804083 
L 203.297955 285.021809 
L 203.823114 285.021809 
L 203.823114 284.239535 
L 206.897912 284.239535 
L 206.897912 283.457261 
L 213.150499 283.457261 
L 213.150499 282.674988 
L 219.762485 282.674988 
L 219.762485 281.892714 
L 220.18291 281.892714 
L 220.18291 281.11044 
L 232.862791 281.11044 
L 232.862791 280.328166 
L 243.679851 280.328166 
L 243.679851 279.545892 
L 370.345468 279.545892 
L 370.345468 278.763618 
L 371.378957 278.763618 
L 371.378957 277.981345 
L 373.087502 277.981345 
L 373.087502 277.199071 
L 373.245668 277.199071 
L 373.245668 276.416797 
L 375.117679 276.416797 
L 375.117679 275.634523 
L 375.527309 275.634523 
L 375.527309 274.852249 
L 377.043482 274.852249 
L 377.043482 274.069975 
L 377.740506 274.069975 
L 377.740506 273.287701 
L 377.889016 273.287701 
L 377.889016 272.505428 
L 379.357899 272.505428 
L 379.357899 271.723154 
L 379.889247 271.723154 
L 379.889247 270.94088 
L 380.273292 270.94088 
L 380.273292 270.158606 
L 381.319223 270.158606 
L 381.319223 269.376332 
L 382.582927 269.376332 
L 382.582927 268.594058 
L 383.870968 268.594058 
L 383.870968 267.811784 
L 460.289039 267.811784 
L 460.289039 267.029511 
L 461.8 267.029511 
L 461.8 267.029511 
" style="fill:none;stroke:#f5deb3;stroke-linecap:square;stroke-width:1.5;"/>
   </g>
   <g id="line2d_12">
    <path clip-path="url(#pf04477470f)" d="M 116.199642 291.28 
L 116.199642 279.545892 
L 166.480155 279.545892 
L 166.480155 278.763618 
L 182.770869 278.763618 
L 182.770869 271.723154 
L 196.107265 271.723154 
L 196.107265 268.594058 
L 217.188347 268.594058 
L 217.188347 267.811784 
L 453.156194 267.811784 
L 453.156194 267.029511 
L 461.8 267.029511 
L 461.8 267.029511 
" style="fill:none;stroke:#f5deb3;stroke-linecap:square;stroke-width:1.5;"/>
   </g>
   <g id="line2d_13">
    <path clip-path="url(#pf04477470f)" d="M 394.076085 291.28 
L 394.076085 290.497726 
L 394.076085 290.497726 
L 394.076085 289.715452 
L 395.257923 289.715452 
L 395.257923 288.933178 
L 395.257923 288.933178 
L 395.257923 288.150905 
L 397.034087 288.150905 
L 397.034087 287.368631 
L 397.224597 287.368631 
L 397.224597 286.586357 
L 397.224597 286.586357 
L 397.224597 285.804083 
L 397.224597 285.804083 
L 397.224597 285.021809 
L 398.244936 285.021809 
L 398.244936 284.239535 
L 401.259968 284.239535 
L 401.259968 283.457261 
L 401.259968 283.457261 
L 401.259968 282.674988 
L 401.259968 282.674988 
L 401.259968 281.892714 
L 401.403938 281.892714 
L 401.403938 281.11044 
L 401.403938 281.11044 
L 401.403938 280.328166 
L 401.403938 280.328166 
L 401.403938 279.545892 
L 401.403938 279.545892 
L 401.403938 279.545892 
L 450.672 279.545892 
" style="fill:none;stroke:#f5deb3;stroke-linecap:square;stroke-width:1.5;"/>
   </g>
   <g id="line2d_14">
    <path clip-path="url(#pf04477470f)" d="M 213.610217 291.28 
L 213.610217 290.497726 
L 215.866798 290.497726 
L 215.866798 289.715452 
L 217.188347 289.715452 
L 217.188347 288.933178 
L 218.914378 288.933178 
L 218.914378 288.150905 
L 219.33965 288.150905 
L 219.33965 286.586357 
L 219.762485 286.586357 
L 219.762485 285.804083 
L 220.18291 285.804083 
L 220.18291 285.021809 
L 221.016642 285.021809 
L 221.016642 281.892714 
L 221.430002 281.892714 
L 221.430002 281.11044 
L 221.841058 281.11044 
L 221.841058 279.545892 
L 325.649441 279.545892 
L 325.649441 278.763618 
L 327.140087 278.763618 
L 327.140087 277.981345 
L 329.273295 277.981345 
L 329.273295 277.199071 
L 330.033966 277.199071 
L 330.033966 276.416797 
L 330.693181 276.416797 
L 330.693181 275.634523 
L 334.172498 275.634523 
L 334.172498 274.852249 
L 334.440319 274.852249 
L 334.440319 274.069975 
L 334.618327 274.069975 
L 334.618327 273.287701 
L 335.326097 273.287701 
L 335.326097 272.505428 
L 336.375183 272.505428 
L 336.375183 271.723154 
L 336.635141 271.723154 
L 336.635141 270.94088 
L 336.807938 270.94088 
L 336.807938 270.158606 
L 338.59829 270.158606 
L 338.59829 269.376332 
L 339.101941 269.376332 
L 339.101941 268.594058 
L 339.435808 268.594058 
L 339.435808 267.811784 
L 352.317034 267.811784 
L 352.317034 267.029511 
L 356.728454 267.029511 
L 356.728454 266.247237 
L 357.253613 266.247237 
L 357.253613 265.464963 
L 359.381229 265.464963 
L 359.381229 264.682689 
L 359.950996 264.682689 
L 359.950996 263.900415 
L 360.641455 263.900415 
L 360.641455 263.118141 
L 361.819057 263.118141 
L 361.819057 262.335868 
L 363.099117 262.335868 
L 363.099117 261.553594 
L 363.640988 261.553594 
L 363.640988 260.77132 
L 366.580998 260.77132 
L 366.580998 259.989046 
L 367.326591 259.989046 
L 367.326591 259.206772 
L 375.731275 259.206772 
L 375.731275 258.424498 
L 379.21232 258.424498 
L 379.21232 257.642224 
L 384.416176 257.642224 
L 384.416176 256.859951 
L 428.211989 256.859951 
L 428.211989 256.077677 
L 461.8 256.077677 
L 461.8 256.077677 
" style="fill:none;stroke:#f5deb3;stroke-linecap:square;stroke-width:1.5;"/>
   </g>
   <g id="line2d_15"/>
   <g id="line2d_16">
    <path clip-path="url(#pf04477470f)" d="M 409.597414 291.28 
L 409.597414 290.497726 
L 410.20628 290.497726 
L 410.20628 289.715452 
L 411.597288 289.715452 
L 411.597288 288.933178 
L 412.220998 288.933178 
L 412.220998 288.150905 
L 417.724497 288.150905 
L 417.724497 287.368631 
L 422.387296 287.368631 
L 422.387296 286.586357 
L 425.357104 286.586357 
L 425.357104 285.804083 
L 427.634662 285.804083 
L 427.634662 285.021809 
L 428.735197 285.021809 
L 428.735197 284.239535 
L 429.106659 284.239535 
L 429.106659 283.457261 
L 430.501399 283.457261 
L 430.501399 282.674988 
L 431.032746 282.674988 
L 431.032746 281.892714 
L 435.808223 281.892714 
L 435.808223 281.11044 
L 437.26006 281.11044 
L 437.26006 280.328166 
L 451.824763 280.328166 
L 451.824763 279.545892 
L 461.8 279.545892 
L 461.8 279.545892 
" style="fill:none;stroke:#f5deb3;stroke-linecap:square;stroke-width:1.5;"/>
   </g>
   <g id="line2d_17">
    <path clip-path="url(#pf04477470f)" d="M 445.437677 291.28 
L 445.437677 290.497726 
L 453.971892 290.497726 
L 453.971892 288.933178 
L 454.148031 288.933178 
L 454.148031 288.150905 
L 457.786514 288.150905 
L 457.786514 287.368631 
L 461.8 287.368631 
L 461.8 287.368631 
" style="fill:none;stroke:#f5deb3;stroke-linecap:square;stroke-width:1.5;"/>
   </g>
   <g id="line2d_18">
    <path clip-path="url(#pf04477470f)" d="M 116.199642 291.28 
L 116.199642 285.021809 
L 117.895911 285.021809 
L 117.895911 280.328166 
L 121.175761 280.328166 
L 121.175761 279.545892 
L 122.762585 279.545892 
L 122.762585 277.981345 
L 127.328029 277.981345 
L 127.328029 277.199071 
L 128.789155 277.199071 
L 128.789155 276.416797 
L 131.62737 276.416797 
L 131.62737 275.634523 
L 139.540425 275.634523 
L 139.540425 274.852249 
L 140.780529 274.852249 
L 140.780529 273.287701 
L 144.380486 273.287701 
L 144.380486 272.505428 
L 159.186867 272.505428 
L 159.186867 271.723154 
L 160.138938 271.723154 
L 160.138938 270.158606 
L 165.606956 270.158606 
L 165.606956 269.376332 
L 167.343141 269.376332 
L 167.343141 268.594058 
L 169.873142 268.594058 
L 169.873142 267.811784 
L 350.332318 267.811784 
L 350.332318 267.029511 
L 408.003594 267.029511 
L 408.003594 266.247237 
L 424.756909 266.247237 
L 424.756909 265.464963 
L 425.044568 265.464963 
L 425.044568 264.682689 
L 426.158415 264.682689 
L 426.158415 263.900415 
L 426.568614 263.900415 
L 426.568614 263.118141 
L 431.488578 263.118141 
L 431.488578 262.335868 
L 431.655808 262.335868 
L 431.655808 261.553594 
L 431.822661 261.553594 
L 431.917836 259.989046 
L 432.698381 259.989046 
L 432.698381 259.206772 
L 433.284254 259.206772 
L 433.284254 258.424498 
L 433.517307 258.424498 
L 433.587079 256.859951 
L 433.934956 256.859951 
L 433.934956 256.077677 
L 434.51113 256.077677 
L 434.51113 255.295403 
L 434.786103 255.295403 
L 434.786103 254.513129 
L 436.816376 254.513129 
L 436.816376 253.730855 
L 437.436789 253.730855 
L 437.480906 252.166307 
L 437.591081 252.166307 
L 437.591081 251.384034 
L 439.181185 251.384034 
L 439.181185 250.60176 
L 443.20679 250.60176 
L 443.20679 249.819486 
L 443.71516 249.819486 
L 443.71516 249.037212 
L 448.955571 249.037212 
L 448.955571 248.254938 
L 452.834537 248.254938 
L 452.834537 247.472664 
L 461.8 247.472664 
L 461.8 247.472664 
" style="fill:none;stroke:#f5deb3;stroke-linecap:square;stroke-width:1.5;"/>
   </g>
   <g id="line2d_19">
    <path clip-path="url(#pf04477470f)" style="fill:none;stroke:#f5deb3;stroke-linecap:square;stroke-width:1.5;"/>
   </g>
   <g id="line2d_20">
    <path clip-path="url(#pf04477470f)" d="M 210.330367 291.28 
L 210.330367 290.497726 
L 219.762485 290.497726 
L 219.762485 289.715452 
L 220.600954 289.715452 
L 220.600954 288.933178 
L 226.217701 288.933178 
L 226.217701 288.150905 
L 236.982064 288.150905 
L 236.982064 287.368631 
L 241.199467 287.368631 
L 241.199467 286.586357 
L 243.067528 286.586357 
L 243.067528 285.804083 
L 243.984117 285.804083 
L 243.984117 285.021809 
L 252.302625 285.021809 
L 252.302625 284.239535 
L 255.747409 284.239535 
L 255.747409 283.457261 
L 258.041412 283.457261 
L 258.041412 282.674988 
L 261.473866 282.674988 
L 261.473866 281.892714 
L 264.753716 281.892714 
L 264.753716 281.11044 
L 269.844319 281.11044 
L 269.844319 280.328166 
L 282.400277 280.328166 
L 282.400277 279.545892 
L 382.164093 279.545892 
L 382.164093 278.763618 
L 383.870968 278.763618 
L 383.870968 277.981345 
L 387.083375 277.981345 
L 387.083375 277.199071 
L 387.821878 277.199071 
L 387.821878 276.416797 
L 392.753819 276.416797 
L 392.753819 275.634523 
L 395.803035 275.634523 
L 395.803035 274.069975 
L 396.18995 274.069975 
L 396.18995 272.505428 
L 396.382649 272.505428 
L 396.382649 271.723154 
L 396.957745 271.723154 
L 396.957745 270.94088 
L 400.89881 270.94088 
L 400.89881 270.158606 
L 401.726846 270.158606 
L 401.726846 269.376332 
L 403.913735 269.376332 
L 403.913735 268.594058 
L 414.544147 268.594058 
L 414.544147 267.811784 
L 423.966636 267.811784 
L 423.966636 267.029511 
L 436.235569 267.029511 
L 436.235569 266.247237 
L 461.8 266.247237 
L 461.8 266.247237 
" style="fill:none;stroke:#f5deb3;stroke-linecap:square;stroke-width:1.5;"/>
   </g>
   <g id="line2d_21">
    <path clip-path="url(#pf04477470f)" d="M 0 0 
" style="fill:none;stroke:#f5deb3;stroke-linecap:square;stroke-width:1.5;"/>
   </g>
   <g id="line2d_22">
    <path clip-path="url(#pf04477470f)" d="M 245.188789 291.28 
L 245.188789 290.497726 
L 250.656806 290.497726 
L 250.656806 289.715452 
L 258.041412 289.715452 
L 258.041412 288.933178 
L 262.425937 288.933178 
L 262.425937 288.150905 
L 267.674031 288.150905 
L 267.674031 287.368631 
L 272.573501 287.368631 
L 272.573501 286.586357 
L 272.779316 286.586357 
L 272.779316 285.804083 
L 273.799864 285.804083 
L 273.799864 285.021809 
L 275.602017 285.021809 
L 275.602017 284.239535 
L 276.193084 284.239535 
L 276.193084 283.457261 
L 281.492708 283.457261 
L 281.492708 282.674988 
L 281.857076 282.674988 
L 281.857076 281.892714 
L 283.11838 281.892714 
L 283.11838 281.11044 
L 289.449087 281.11044 
L 289.449087 280.328166 
L 314.040905 280.328166 
L 314.040905 279.545892 
L 388.295823 279.545892 
L 388.295823 278.763618 
L 401.475817 278.763618 
L 401.475817 277.199071 
L 402.651832 277.199071 
L 402.651832 276.416797 
L 403.774585 276.416797 
L 403.774585 275.634523 
L 404.914803 275.634523 
L 404.914803 274.852249 
L 409.371823 274.852249 
L 409.371823 274.069975 
L 409.75813 274.069975 
L 409.75813 273.287701 
L 410.174359 273.287701 
L 410.174359 272.505428 
L 411.251986 272.505428 
L 411.251986 271.723154 
L 413.635833 271.723154 
L 413.635833 270.94088 
L 419.377521 270.94088 
L 419.377521 270.158606 
L 419.911074 270.158606 
L 419.911074 269.376332 
L 423.24808 269.376332 
L 423.24808 268.594058 
L 427.710223 268.594058 
L 427.710223 267.811784 
L 451.3512 267.811784 
L 451.3512 267.029511 
L 454.621516 267.029511 
L 454.621516 266.247237 
L 461.525096 266.247237 
L 461.525096 265.464963 
L 461.8 265.464963 
L 461.8 265.464963 
" style="fill:none;stroke:#f5deb3;stroke-linecap:square;stroke-width:1.5;"/>
   </g>
   <g id="line2d_23">
    <path clip-path="url(#pf04477470f)" d="M 320.343409 291.28 
L 320.343409 290.497726 
L 332.909652 290.497726 
L 332.909652 289.715452 
L 335.589771 289.715452 
L 335.589771 288.933178 
L 336.894185 288.933178 
L 336.894185 288.150905 
L 339.101941 288.150905 
L 339.101941 287.368631 
L 342.614206 287.368631 
L 342.614206 286.586357 
L 345.431346 286.586357 
L 345.431346 285.804083 
L 361.880518 285.804083 
L 361.880518 285.021809 
L 461.8 285.021809 
" style="fill:none;stroke:#f5deb3;stroke-linecap:square;stroke-width:1.5;"/>
   </g>
   <g id="line2d_24">
    <path clip-path="url(#pf04477470f)" d="M 400.608605 291.28 
L 400.608605 290.497726 
L 410.142425 290.497726 
L 410.142425 289.715452 
L 425.435032 289.715452 
L 425.538807 287.368631 
L 429.819558 287.368631 
L 429.819558 286.586357 
L 432.533499 286.586357 
L 432.533499 285.804083 
L 432.674849 285.804083 
L 432.674849 285.021809 
L 438.878877 285.021809 
L 438.878877 284.239535 
L 439.245804 284.239535 
L 439.245804 283.457261 
L 444.781457 283.457261 
L 444.781457 282.674988 
L 444.921144 282.674988 
L 444.921144 281.892714 
L 450.265167 281.892714 
L 450.265167 281.11044 
L 455.352061 281.11044 
L 455.421261 279.545892 
L 461.8 279.545892 
L 461.8 279.545892 
" style="fill:none;stroke:#f5deb3;stroke-linecap:square;stroke-width:1.5;"/>
   </g>
   <g id="line2d_25">
    <path clip-path="url(#pf04477470f)" d="M 328.5047 291.28 
L 328.5047 290.497726 
L 333.000576 290.497726 
L 333.000576 289.715452 
L 333.903702 289.715452 
L 333.903702 288.933178 
L 335.326097 288.933178 
L 335.326097 288.150905 
L 352.036751 288.150905 
L 352.036751 287.368631 
L 353.908322 287.368631 
L 353.908322 286.586357 
L 354.317858 286.586357 
L 354.317858 285.804083 
L 359.57164 285.804083 
L 359.57164 285.021809 
L 369.62991 285.021809 
L 369.62991 284.239535 
L 376.440746 284.239535 
L 376.440746 283.457261 
L 377.987857 283.457261 
L 377.987857 282.674988 
L 385.136909 282.674988 
L 385.136909 281.892714 
L 386.29329 281.892714 
L 386.29329 281.11044 
L 390.953111 281.11044 
L 390.953111 280.328166 
L 461.8 280.328166 
L 461.8 280.328166 
" style="fill:none;stroke:#f5deb3;stroke-linecap:square;stroke-width:1.5;"/>
   </g>
   <g id="line2d_26">
    <path clip-path="url(#pf04477470f)" d="M 384.053152 291.28 
L 384.053152 290.527009 
L 385.226508 290.527009 
L 385.226508 289.774018 
L 389.404103 289.774018 
L 389.404103 289.021027 
L 390.412563 289.021027 
L 390.412563 288.268037 
L 390.579307 288.268037 
L 390.579307 287.515046 
L 390.953111 287.515046 
L 390.994528 286.009064 
L 392.10409 286.009064 
L 392.10409 284.503082 
L 393.518015 284.503082 
L 393.518015 283.750091 
L 394.944612 283.750091 
L 394.944612 282.9971 
L 395.686564 282.9971 
L 395.686564 282.24411 
L 397.376652 282.24411 
L 397.376652 281.491119 
L 397.717633 281.491119 
L 397.717633 280.738128 
L 416.151457 280.738128 
L 416.151457 279.985137 
L 461.8 279.985137 
L 461.8 279.985137 
" style="fill:none;stroke:#f5deb3;stroke-linecap:square;stroke-width:1.5;"/>
   </g>
   <g id="line2d_27">
    <path clip-path="url(#pf04477470f)" d="M 322.679227 291.28 
L 322.679227 289.715452 
L 327.825548 289.715452 
L 327.825548 288.933178 
L 329.93931 288.933178 
L 329.93931 288.150905 
L 332.727468 288.150905 
L 332.727468 287.368631 
L 347.101437 287.368631 
L 347.101437 286.586357 
L 354.453866 286.586357 
L 354.521776 285.021809 
L 354.92793 285.021809 
L 354.92793 284.239535 
L 358.034408 284.239535 
L 358.034408 283.457261 
L 363.219877 283.457261 
L 363.219877 282.674988 
L 370.454941 282.674988 
L 370.454941 281.892714 
L 375.985441 281.892714 
L 375.985441 281.11044 
L 376.541545 281.11044 
L 376.541545 280.328166 
L 382.397072 280.328166 
L 382.397072 279.545892 
L 395.41408 279.545892 
L 395.41408 278.763618 
L 401.259968 278.763618 
L 401.259968 277.981345 
L 407.043837 277.981345 
L 407.043837 277.199071 
L 407.343031 277.199071 
L 407.343031 276.416797 
L 407.674052 276.416797 
L 407.674052 275.634523 
L 407.871954 275.634523 
L 407.871954 274.852249 
L 408.069327 274.852249 
L 408.069327 273.287701 
L 408.29893 273.287701 
L 408.29893 272.505428 
L 408.788543 272.505428 
L 408.788543 271.723154 
L 409.015922 271.723154 
L 409.015922 270.94088 
L 409.339539 270.94088 
L 409.339539 270.158606 
L 410.96826 270.158606 
L 411.031405 268.594058 
L 411.659896 268.594058 
L 411.659896 267.811784 
L 412.993294 267.811784 
L 412.993294 267.029511 
L 461.8 267.029511 
L 461.8 267.029511 
" style="fill:none;stroke:#f5deb3;stroke-linecap:square;stroke-width:1.5;"/>
   </g>
   <g id="line2d_28">
    <path clip-path="url(#pf04477470f)" d="M 278.701033 291.28 
L 278.701033 290.497726 
L 278.890467 290.497726 
L 278.890467 289.715452 
L 279.079416 289.715452 
L 279.079416 288.933178 
L 279.267882 288.933178 
L 279.267882 288.150905 
L 286.437058 288.150905 
L 286.437058 285.021809 
L 286.607658 285.021809 
L 286.607658 284.239535 
L 293.438409 284.239535 
L 293.438409 282.674988 
L 293.90295 282.674988 
L 293.90295 281.892714 
L 300.541393 281.892714 
L 300.541393 281.11044 
L 305.848001 281.11044 
L 305.848001 280.328166 
L 316.694894 280.328166 
L 316.694894 279.545892 
L 461.8 279.545892 
L 461.8 279.545892 
" style="fill:none;stroke:#f5deb3;stroke-linecap:square;stroke-width:1.5;"/>
   </g>
   <g id="line2d_29">
    <path clip-path="url(#pf04477470f)" d="M 110.8635 291.28 
L 110.8635 290.497726 
L 110.8635 290.497726 
L 110.8635 289.715452 
L 110.8635 289.715452 
L 110.8635 288.933178 
L 110.8635 288.933178 
L 110.8635 288.150905 
L 110.8635 288.150905 
L 110.8635 287.368631 
L 110.8635 287.368631 
L 110.8635 286.586357 
L 112.685431 286.586357 
L 112.685431 285.804083 
L 112.685431 285.804083 
L 112.685431 285.021809 
L 112.685431 285.021809 
L 112.685431 284.239535 
L 112.685431 284.239535 
L 112.685431 283.457261 
L 112.685431 283.457261 
L 112.685431 282.674988 
L 112.685431 282.674988 
L 112.685431 281.892714 
L 112.685431 281.892714 
L 112.685431 281.11044 
L 112.685431 281.11044 
L 112.685431 280.328166 
L 112.685431 280.328166 
L 112.685431 279.545892 
L 147.81294 279.545892 
L 147.81294 278.763618 
L 147.81294 278.763618 
L 147.81294 277.981345 
L 147.81294 277.981345 
L 147.81294 277.199071 
L 271.116497 277.199071 
L 271.116497 276.416797 
L 271.116497 276.416797 
L 271.116497 275.634523 
L 271.116497 275.634523 
L 271.116497 274.852249 
L 272.160142 274.852249 
L 272.160142 274.069975 
L 272.160142 274.069975 
L 272.160142 273.287701 
L 272.160142 273.287701 
L 272.160142 272.505428 
L 272.984558 272.505428 
L 272.984558 271.723154 
L 272.984558 271.723154 
L 272.984558 270.94088 
L 272.984558 270.94088 
L 272.984558 270.158606 
L 273.393337 270.158606 
L 273.393337 269.376332 
L 273.393337 269.376332 
L 273.393337 268.594058 
L 273.393337 268.594058 
L 273.393337 267.811784 
L 419.771039 267.811784 
L 419.771039 267.029511 
L 419.771039 267.029511 
L 419.771039 266.247237 
L 419.771039 266.247237 
L 419.771039 265.464963 
L 441.116556 265.464963 
L 441.116556 264.682689 
L 441.116556 264.682689 
L 441.116556 263.900415 
L 441.116556 263.900415 
L 441.116556 263.118141 
L 461.8 263.118141 
" style="fill:none;stroke:#f5deb3;stroke-linecap:square;stroke-width:1.5;"/>
   </g>
   <g id="line2d_30">
    <path clip-path="url(#pf04477470f)" d="M 273.18923 291.28 
L 273.18923 290.497726 
L 273.18923 290.497726 
L 273.18923 289.715452 
L 274.204164 289.715452 
L 274.204164 288.933178 
L 275.996587 288.933178 
L 275.996587 288.150905 
L 276.779454 288.150905 
L 276.779454 287.368631 
L 276.779454 287.368631 
L 276.779454 286.586357 
L 277.938396 286.586357 
L 277.938396 285.804083 
L 278.3207 285.804083 
L 278.3207 285.021809 
L 278.511111 285.021809 
L 278.511111 284.239535 
L 278.701033 284.239535 
L 278.701033 283.457261 
L 279.267882 283.457261 
L 279.267882 282.674988 
L 280.38868 282.674988 
L 280.38868 281.892714 
L 281.309847 281.892714 
L 281.309847 281.11044 
L 281.492708 281.11044 
L 281.492708 280.328166 
L 283.11838 280.328166 
L 283.11838 279.545892 
L 283.474828 279.545892 
L 283.474828 278.763618 
L 284.006291 278.763618 
L 284.006291 277.981345 
L 285.231684 277.981345 
L 285.231684 277.199071 
L 285.750686 277.199071 
L 285.750686 276.416797 
L 286.437058 276.416797 
L 286.437058 275.634523 
L 287.623056 275.634523 
L 287.623056 274.852249 
L 288.125563 274.852249 
L 288.125563 274.069975 
L 289.776292 274.069975 
L 289.776292 273.287701 
L 291.55043 273.287701 
L 291.55043 272.505428 
L 292.026973 272.505428 
L 292.026973 271.723154 
L 292.342967 271.723154 
L 292.342967 270.94088 
L 293.593581 270.94088 
L 293.593581 270.158606 
L 294.517825 270.158606 
L 294.517825 269.376332 
L 294.823351 269.376332 
L 294.823351 268.594058 
L 311.165821 268.594058 
L 311.165821 267.811784 
L 316.808147 267.811784 
L 316.808147 267.029511 
L 316.808147 267.029511 
L 316.808147 266.247237 
L 316.808147 266.247237 
L 316.808147 265.464963 
L 316.808147 265.464963 
L 316.808147 264.682689 
L 316.808147 264.682689 
L 316.808147 263.900415 
L 316.808147 263.900415 
L 316.808147 263.118141 
L 316.808147 263.118141 
L 316.808147 262.335868 
L 316.808147 262.335868 
L 316.808147 261.553594 
L 316.808147 261.553594 
L 316.808147 260.77132 
L 316.808147 260.77132 
L 316.808147 259.989046 
L 316.808147 259.989046 
L 316.808147 259.206772 
L 316.808147 259.206772 
L 316.808147 258.424498 
L 316.808147 258.424498 
L 316.808147 257.642224 
L 316.808147 257.642224 
L 316.808147 256.859951 
L 316.808147 256.859951 
L 316.808147 256.077677 
L 461.8 256.077677 
" style="fill:none;stroke:#f5deb3;stroke-linecap:square;stroke-width:1.5;"/>
   </g>
   <g id="matplotlib.axis_1">
    <g id="xtick_1">
     <g id="line2d_31">
      <path clip-path="url(#pf04477470f)" d="M 59.72 291.28 
L 59.72 6.845228 
" style="fill:none;stroke:#b0b0b0;stroke-linecap:square;stroke-width:0.8;"/>
     </g>
     <g id="line2d_32">
      <defs>
       <path d="M 0 0 
L 0 3.5 
" id="m2009ff1794" style="stroke:#000000;stroke-width:0.8;"/>
      </defs>
      <g>
       <use style="stroke:#000000;stroke-width:0.8;" x="59.72" xlink:href="#m2009ff1794" y="291.28"/>
      </g>
     </g>
     <g id="text_1">
      <!-- 0 -->
      <defs>
       <path d="M 31.78125 66.40625 
Q 24.171875 66.40625 20.328125 58.90625 
Q 16.5 51.421875 16.5 36.375 
Q 16.5 21.390625 20.328125 13.890625 
Q 24.171875 6.390625 31.78125 6.390625 
Q 39.453125 6.390625 43.28125 13.890625 
Q 47.125 21.390625 47.125 36.375 
Q 47.125 51.421875 43.28125 58.90625 
Q 39.453125 66.40625 31.78125 66.40625 
z
M 31.78125 74.21875 
Q 44.046875 74.21875 50.515625 64.515625 
Q 56.984375 54.828125 56.984375 36.375 
Q 56.984375 17.96875 50.515625 8.265625 
Q 44.046875 -1.421875 31.78125 -1.421875 
Q 19.53125 -1.421875 13.0625 8.265625 
Q 6.59375 17.96875 6.59375 36.375 
Q 6.59375 54.828125 13.0625 64.515625 
Q 19.53125 74.21875 31.78125 74.21875 
z
" id="DejaVuSans-30"/>
      </defs>
      <g transform="translate(53.3575 313.476875)scale(0.2 -0.2)">
       <use xlink:href="#DejaVuSans-30"/>
      </g>
     </g>
    </g>
    <g id="xtick_2">
     <g id="line2d_33">
      <path clip-path="url(#pf04477470f)" d="M 399.510057 291.28 
L 399.510057 6.845228 
" style="fill:none;stroke:#b0b0b0;stroke-linecap:square;stroke-width:0.8;"/>
     </g>
     <g id="line2d_34">
      <g>
       <use style="stroke:#000000;stroke-width:0.8;" x="399.510057" xlink:href="#m2009ff1794" y="291.28"/>
      </g>
     </g>
     <g id="text_2">
      <!-- 2 -->
      <defs>
       <path d="M 19.1875 8.296875 
L 53.609375 8.296875 
L 53.609375 0 
L 7.328125 0 
L 7.328125 8.296875 
Q 12.9375 14.109375 22.625 23.890625 
Q 32.328125 33.6875 34.8125 36.53125 
Q 39.546875 41.84375 41.421875 45.53125 
Q 43.3125 49.21875 43.3125 52.78125 
Q 43.3125 58.59375 39.234375 62.25 
Q 35.15625 65.921875 28.609375 65.921875 
Q 23.96875 65.921875 18.8125 64.3125 
Q 13.671875 62.703125 7.8125 59.421875 
L 7.8125 69.390625 
Q 13.765625 71.78125 18.9375 73 
Q 24.125 74.21875 28.421875 74.21875 
Q 39.75 74.21875 46.484375 68.546875 
Q 53.21875 62.890625 53.21875 53.421875 
Q 53.21875 48.921875 51.53125 44.890625 
Q 49.859375 40.875 45.40625 35.40625 
Q 44.1875 33.984375 37.640625 27.21875 
Q 31.109375 20.453125 19.1875 8.296875 
z
" id="DejaVuSans-32"/>
      </defs>
      <g transform="translate(393.147557 313.476875)scale(0.2 -0.2)">
       <use xlink:href="#DejaVuSans-32"/>
      </g>
     </g>
    </g>
    <g id="xtick_3">
     <g id="line2d_35">
      <defs>
       <path d="M 0 0 
L 0 2 
" id="m30eabc0337" style="stroke:#000000;stroke-width:0.6;"/>
      </defs>
      <g>
       <use style="stroke:#000000;stroke-width:0.6;" x="110.8635" xlink:href="#m30eabc0337" y="291.28"/>
      </g>
     </g>
    </g>
    <g id="xtick_4">
     <g id="line2d_36">
      <g>
       <use style="stroke:#000000;stroke-width:0.6;" x="140.780529" xlink:href="#m30eabc0337" y="291.28"/>
      </g>
     </g>
    </g>
    <g id="xtick_5">
     <g id="line2d_37">
      <g>
       <use style="stroke:#000000;stroke-width:0.6;" x="162.006999" xlink:href="#m30eabc0337" y="291.28"/>
      </g>
     </g>
    </g>
    <g id="xtick_6">
     <g id="line2d_38">
      <g>
       <use style="stroke:#000000;stroke-width:0.6;" x="178.471529" xlink:href="#m30eabc0337" y="291.28"/>
      </g>
     </g>
    </g>
    <g id="xtick_7">
     <g id="line2d_39">
      <g>
       <use style="stroke:#000000;stroke-width:0.6;" x="191.924029" xlink:href="#m30eabc0337" y="291.28"/>
      </g>
     </g>
    </g>
    <g id="xtick_8">
     <g id="line2d_40">
      <g>
       <use style="stroke:#000000;stroke-width:0.6;" x="203.297955" xlink:href="#m30eabc0337" y="291.28"/>
      </g>
     </g>
    </g>
    <g id="xtick_9">
     <g id="line2d_41">
      <g>
       <use style="stroke:#000000;stroke-width:0.6;" x="213.150499" xlink:href="#m30eabc0337" y="291.28"/>
      </g>
     </g>
    </g>
    <g id="xtick_10">
     <g id="line2d_42">
      <g>
       <use style="stroke:#000000;stroke-width:0.6;" x="221.841058" xlink:href="#m30eabc0337" y="291.28"/>
      </g>
     </g>
    </g>
    <g id="xtick_11">
     <g id="line2d_43">
      <g>
       <use style="stroke:#000000;stroke-width:0.6;" x="280.758528" xlink:href="#m30eabc0337" y="291.28"/>
      </g>
     </g>
    </g>
    <g id="xtick_12">
     <g id="line2d_44">
      <g>
       <use style="stroke:#000000;stroke-width:0.6;" x="310.675557" xlink:href="#m30eabc0337" y="291.28"/>
      </g>
     </g>
    </g>
    <g id="xtick_13">
     <g id="line2d_45">
      <g>
       <use style="stroke:#000000;stroke-width:0.6;" x="331.902028" xlink:href="#m30eabc0337" y="291.28"/>
      </g>
     </g>
    </g>
    <g id="xtick_14">
     <g id="line2d_46">
      <g>
       <use style="stroke:#000000;stroke-width:0.6;" x="348.366557" xlink:href="#m30eabc0337" y="291.28"/>
      </g>
     </g>
    </g>
    <g id="xtick_15">
     <g id="line2d_47">
      <g>
       <use style="stroke:#000000;stroke-width:0.6;" x="361.819057" xlink:href="#m30eabc0337" y="291.28"/>
      </g>
     </g>
    </g>
    <g id="xtick_16">
     <g id="line2d_48">
      <g>
       <use style="stroke:#000000;stroke-width:0.6;" x="373.192984" xlink:href="#m30eabc0337" y="291.28"/>
      </g>
     </g>
    </g>
    <g id="xtick_17">
     <g id="line2d_49">
      <g>
       <use style="stroke:#000000;stroke-width:0.6;" x="383.045527" xlink:href="#m30eabc0337" y="291.28"/>
      </g>
     </g>
    </g>
    <g id="xtick_18">
     <g id="line2d_50">
      <g>
       <use style="stroke:#000000;stroke-width:0.6;" x="391.736086" xlink:href="#m30eabc0337" y="291.28"/>
      </g>
     </g>
    </g>
    <g id="xtick_19">
     <g id="line2d_51">
      <g>
       <use style="stroke:#000000;stroke-width:0.6;" x="450.653556" xlink:href="#m30eabc0337" y="291.28"/>
      </g>
     </g>
    </g>
    <g id="text_3">
     <!-- log10 of FEvals / DIM -->
     <defs>
      <path d="M 9.421875 75.984375 
L 18.40625 75.984375 
L 18.40625 0 
L 9.421875 0 
z
" id="DejaVuSans-6c"/>
      <path d="M 30.609375 48.390625 
Q 23.390625 48.390625 19.1875 42.75 
Q 14.984375 37.109375 14.984375 27.296875 
Q 14.984375 17.484375 19.15625 11.84375 
Q 23.34375 6.203125 30.609375 6.203125 
Q 37.796875 6.203125 41.984375 11.859375 
Q 46.1875 17.53125 46.1875 27.296875 
Q 46.1875 37.015625 41.984375 42.703125 
Q 37.796875 48.390625 30.609375 48.390625 
z
M 30.609375 56 
Q 42.328125 56 49.015625 48.375 
Q 55.71875 40.765625 55.71875 27.296875 
Q 55.71875 13.875 49.015625 6.21875 
Q 42.328125 -1.421875 30.609375 -1.421875 
Q 18.84375 -1.421875 12.171875 6.21875 
Q 5.515625 13.875 5.515625 27.296875 
Q 5.515625 40.765625 12.171875 48.375 
Q 18.84375 56 30.609375 56 
z
" id="DejaVuSans-6f"/>
      <path d="M 45.40625 27.984375 
Q 45.40625 37.75 41.375 43.109375 
Q 37.359375 48.484375 30.078125 48.484375 
Q 22.859375 48.484375 18.828125 43.109375 
Q 14.796875 37.75 14.796875 27.984375 
Q 14.796875 18.265625 18.828125 12.890625 
Q 22.859375 7.515625 30.078125 7.515625 
Q 37.359375 7.515625 41.375 12.890625 
Q 45.40625 18.265625 45.40625 27.984375 
z
M 54.390625 6.78125 
Q 54.390625 -7.171875 48.1875 -13.984375 
Q 42 -20.796875 29.203125 -20.796875 
Q 24.46875 -20.796875 20.265625 -20.09375 
Q 16.0625 -19.390625 12.109375 -17.921875 
L 12.109375 -9.1875 
Q 16.0625 -11.328125 19.921875 -12.34375 
Q 23.78125 -13.375 27.78125 -13.375 
Q 36.625 -13.375 41.015625 -8.765625 
Q 45.40625 -4.15625 45.40625 5.171875 
L 45.40625 9.625 
Q 42.625 4.78125 38.28125 2.390625 
Q 33.9375 0 27.875 0 
Q 17.828125 0 11.671875 7.65625 
Q 5.515625 15.328125 5.515625 27.984375 
Q 5.515625 40.671875 11.671875 48.328125 
Q 17.828125 56 27.875 56 
Q 33.9375 56 38.28125 53.609375 
Q 42.625 51.21875 45.40625 46.390625 
L 45.40625 54.6875 
L 54.390625 54.6875 
z
" id="DejaVuSans-67"/>
      <path d="M 12.40625 8.296875 
L 28.515625 8.296875 
L 28.515625 63.921875 
L 10.984375 60.40625 
L 10.984375 69.390625 
L 28.421875 72.90625 
L 38.28125 72.90625 
L 38.28125 8.296875 
L 54.390625 8.296875 
L 54.390625 0 
L 12.40625 0 
z
" id="DejaVuSans-31"/>
      <path id="DejaVuSans-20"/>
      <path d="M 37.109375 75.984375 
L 37.109375 68.5 
L 28.515625 68.5 
Q 23.6875 68.5 21.796875 66.546875 
Q 19.921875 64.59375 19.921875 59.515625 
L 19.921875 54.6875 
L 34.71875 54.6875 
L 34.71875 47.703125 
L 19.921875 47.703125 
L 19.921875 0 
L 10.890625 0 
L 10.890625 47.703125 
L 2.296875 47.703125 
L 2.296875 54.6875 
L 10.890625 54.6875 
L 10.890625 58.5 
Q 10.890625 67.625 15.140625 71.796875 
Q 19.390625 75.984375 28.609375 75.984375 
z
" id="DejaVuSans-66"/>
      <path d="M 9.8125 72.90625 
L 51.703125 72.90625 
L 51.703125 64.59375 
L 19.671875 64.59375 
L 19.671875 43.109375 
L 48.578125 43.109375 
L 48.578125 34.8125 
L 19.671875 34.8125 
L 19.671875 0 
L 9.8125 0 
z
" id="DejaVuSans-46"/>
      <path d="M 9.8125 72.90625 
L 55.90625 72.90625 
L 55.90625 64.59375 
L 19.671875 64.59375 
L 19.671875 43.015625 
L 54.390625 43.015625 
L 54.390625 34.71875 
L 19.671875 34.71875 
L 19.671875 8.296875 
L 56.78125 8.296875 
L 56.78125 0 
L 9.8125 0 
z
" id="DejaVuSans-45"/>
      <path d="M 2.984375 54.6875 
L 12.5 54.6875 
L 29.59375 8.796875 
L 46.6875 54.6875 
L 56.203125 54.6875 
L 35.6875 0 
L 23.484375 0 
z
" id="DejaVuSans-76"/>
      <path d="M 34.28125 27.484375 
Q 23.390625 27.484375 19.1875 25 
Q 14.984375 22.515625 14.984375 16.5 
Q 14.984375 11.71875 18.140625 8.90625 
Q 21.296875 6.109375 26.703125 6.109375 
Q 34.1875 6.109375 38.703125 11.40625 
Q 43.21875 16.703125 43.21875 25.484375 
L 43.21875 27.484375 
z
M 52.203125 31.203125 
L 52.203125 0 
L 43.21875 0 
L 43.21875 8.296875 
Q 40.140625 3.328125 35.546875 0.953125 
Q 30.953125 -1.421875 24.3125 -1.421875 
Q 15.921875 -1.421875 10.953125 3.296875 
Q 6 8.015625 6 15.921875 
Q 6 25.140625 12.171875 29.828125 
Q 18.359375 34.515625 30.609375 34.515625 
L 43.21875 34.515625 
L 43.21875 35.40625 
Q 43.21875 41.609375 39.140625 45 
Q 35.0625 48.390625 27.6875 48.390625 
Q 23 48.390625 18.546875 47.265625 
Q 14.109375 46.140625 10.015625 43.890625 
L 10.015625 52.203125 
Q 14.9375 54.109375 19.578125 55.046875 
Q 24.21875 56 28.609375 56 
Q 40.484375 56 46.34375 49.84375 
Q 52.203125 43.703125 52.203125 31.203125 
z
" id="DejaVuSans-61"/>
      <path d="M 44.28125 53.078125 
L 44.28125 44.578125 
Q 40.484375 46.53125 36.375 47.5 
Q 32.28125 48.484375 27.875 48.484375 
Q 21.1875 48.484375 17.84375 46.4375 
Q 14.5 44.390625 14.5 40.28125 
Q 14.5 37.15625 16.890625 35.375 
Q 19.28125 33.59375 26.515625 31.984375 
L 29.59375 31.296875 
Q 39.15625 29.25 43.1875 25.515625 
Q 47.21875 21.78125 47.21875 15.09375 
Q 47.21875 7.46875 41.1875 3.015625 
Q 35.15625 -1.421875 24.609375 -1.421875 
Q 20.21875 -1.421875 15.453125 -0.5625 
Q 10.6875 0.296875 5.421875 2 
L 5.421875 11.28125 
Q 10.40625 8.6875 15.234375 7.390625 
Q 20.0625 6.109375 24.8125 6.109375 
Q 31.15625 6.109375 34.5625 8.28125 
Q 37.984375 10.453125 37.984375 14.40625 
Q 37.984375 18.0625 35.515625 20.015625 
Q 33.0625 21.96875 24.703125 23.78125 
L 21.578125 24.515625 
Q 13.234375 26.265625 9.515625 29.90625 
Q 5.8125 33.546875 5.8125 39.890625 
Q 5.8125 47.609375 11.28125 51.796875 
Q 16.75 56 26.8125 56 
Q 31.78125 56 36.171875 55.265625 
Q 40.578125 54.546875 44.28125 53.078125 
z
" id="DejaVuSans-73"/>
      <path d="M 25.390625 72.90625 
L 33.6875 72.90625 
L 8.296875 -9.28125 
L 0 -9.28125 
z
" id="DejaVuSans-2f"/>
      <path d="M 19.671875 64.796875 
L 19.671875 8.109375 
L 31.59375 8.109375 
Q 46.6875 8.109375 53.6875 14.9375 
Q 60.6875 21.78125 60.6875 36.53125 
Q 60.6875 51.171875 53.6875 57.984375 
Q 46.6875 64.796875 31.59375 64.796875 
z
M 9.8125 72.90625 
L 30.078125 72.90625 
Q 51.265625 72.90625 61.171875 64.09375 
Q 71.09375 55.28125 71.09375 36.53125 
Q 71.09375 17.671875 61.125 8.828125 
Q 51.171875 0 30.078125 0 
L 9.8125 0 
z
" id="DejaVuSans-44"/>
      <path d="M 9.8125 72.90625 
L 19.671875 72.90625 
L 19.671875 0 
L 9.8125 0 
z
" id="DejaVuSans-49"/>
      <path d="M 9.8125 72.90625 
L 24.515625 72.90625 
L 43.109375 23.296875 
L 61.8125 72.90625 
L 76.515625 72.90625 
L 76.515625 0 
L 66.890625 0 
L 66.890625 64.015625 
L 48.09375 14.015625 
L 38.1875 14.015625 
L 19.390625 64.015625 
L 19.390625 0 
L 9.8125 0 
z
" id="DejaVuSans-4d"/>
     </defs>
     <g transform="translate(150.122563 336.833125)scale(0.2 -0.2)">
      <use xlink:href="#DejaVuSans-6c"/>
      <use x="27.783203" xlink:href="#DejaVuSans-6f"/>
      <use x="88.964844" xlink:href="#DejaVuSans-67"/>
      <use x="152.441406" xlink:href="#DejaVuSans-31"/>
      <use x="216.064453" xlink:href="#DejaVuSans-30"/>
      <use x="279.6875" xlink:href="#DejaVuSans-20"/>
      <use x="311.474609" xlink:href="#DejaVuSans-6f"/>
      <use x="372.65625" xlink:href="#DejaVuSans-66"/>
      <use x="407.861328" xlink:href="#DejaVuSans-20"/>
      <use x="439.648438" xlink:href="#DejaVuSans-46"/>
      <use x="497.167969" xlink:href="#DejaVuSans-45"/>
      <use x="560.351562" xlink:href="#DejaVuSans-76"/>
      <use x="619.53125" xlink:href="#DejaVuSans-61"/>
      <use x="680.810547" xlink:href="#DejaVuSans-6c"/>
      <use x="708.59375" xlink:href="#DejaVuSans-73"/>
      <use x="760.693359" xlink:href="#DejaVuSans-20"/>
      <use x="792.480469" xlink:href="#DejaVuSans-2f"/>
      <use x="826.171875" xlink:href="#DejaVuSans-20"/>
      <use x="857.958984" xlink:href="#DejaVuSans-44"/>
      <use x="934.960938" xlink:href="#DejaVuSans-49"/>
      <use x="964.453125" xlink:href="#DejaVuSans-4d"/>
     </g>
    </g>
   </g>
   <g id="matplotlib.axis_2">
    <g id="ytick_1">
     <g id="line2d_52">
      <path clip-path="url(#pf04477470f)" d="M 59.72 291.28 
L 450.672 291.28 
" style="fill:none;stroke:#b0b0b0;stroke-linecap:square;stroke-width:0.8;"/>
     </g>
     <g id="line2d_53">
      <defs>
       <path d="M 0 0 
L -3.5 0 
" id="mc734f4533f" style="stroke:#000000;stroke-width:0.8;"/>
      </defs>
      <g>
       <use style="stroke:#000000;stroke-width:0.8;" x="59.72" xlink:href="#mc734f4533f" y="291.28"/>
      </g>
     </g>
     <g id="text_4">
      <!-- 0.0 -->
      <defs>
       <path d="M 10.6875 12.40625 
L 21 12.40625 
L 21 0 
L 10.6875 0 
z
" id="DejaVuSans-2e"/>
      </defs>
      <g transform="translate(27.275 297.35875)scale(0.16 -0.16)">
       <use xlink:href="#DejaVuSans-30"/>
       <use x="63.623047" xlink:href="#DejaVuSans-2e"/>
       <use x="95.410156" xlink:href="#DejaVuSans-30"/>
      </g>
     </g>
    </g>
    <g id="ytick_2">
     <g id="line2d_54">
      <path clip-path="url(#pf04477470f)" d="M 59.72 234.956283 
L 450.672 234.956283 
" style="fill:none;stroke:#b0b0b0;stroke-linecap:square;stroke-width:0.8;"/>
     </g>
     <g id="line2d_55">
      <g>
       <use style="stroke:#000000;stroke-width:0.8;" x="59.72" xlink:href="#mc734f4533f" y="234.956283"/>
      </g>
     </g>
     <g id="text_5">
      <!-- 0.2 -->
      <g transform="translate(27.275 241.035033)scale(0.16 -0.16)">
       <use xlink:href="#DejaVuSans-30"/>
       <use x="63.623047" xlink:href="#DejaVuSans-2e"/>
       <use x="95.410156" xlink:href="#DejaVuSans-32"/>
      </g>
     </g>
    </g>
    <g id="ytick_3">
     <g id="line2d_56">
      <path clip-path="url(#pf04477470f)" d="M 59.72 178.632565 
L 450.672 178.632565 
" style="fill:none;stroke:#b0b0b0;stroke-linecap:square;stroke-width:0.8;"/>
     </g>
     <g id="line2d_57">
      <g>
       <use style="stroke:#000000;stroke-width:0.8;" x="59.72" xlink:href="#mc734f4533f" y="178.632565"/>
      </g>
     </g>
     <g id="text_6">
      <!-- 0.4 -->
      <defs>
       <path d="M 37.796875 64.3125 
L 12.890625 25.390625 
L 37.796875 25.390625 
z
M 35.203125 72.90625 
L 47.609375 72.90625 
L 47.609375 25.390625 
L 58.015625 25.390625 
L 58.015625 17.1875 
L 47.609375 17.1875 
L 47.609375 0 
L 37.796875 0 
L 37.796875 17.1875 
L 4.890625 17.1875 
L 4.890625 26.703125 
z
" id="DejaVuSans-34"/>
      </defs>
      <g transform="translate(27.275 184.711315)scale(0.16 -0.16)">
       <use xlink:href="#DejaVuSans-30"/>
       <use x="63.623047" xlink:href="#DejaVuSans-2e"/>
       <use x="95.410156" xlink:href="#DejaVuSans-34"/>
      </g>
     </g>
    </g>
    <g id="ytick_4">
     <g id="line2d_58">
      <path clip-path="url(#pf04477470f)" d="M 59.72 122.308848 
L 450.672 122.308848 
" style="fill:none;stroke:#b0b0b0;stroke-linecap:square;stroke-width:0.8;"/>
     </g>
     <g id="line2d_59">
      <g>
       <use style="stroke:#000000;stroke-width:0.8;" x="59.72" xlink:href="#mc734f4533f" y="122.308848"/>
      </g>
     </g>
     <g id="text_7">
      <!-- 0.6 -->
      <defs>
       <path d="M 33.015625 40.375 
Q 26.375 40.375 22.484375 35.828125 
Q 18.609375 31.296875 18.609375 23.390625 
Q 18.609375 15.53125 22.484375 10.953125 
Q 26.375 6.390625 33.015625 6.390625 
Q 39.65625 6.390625 43.53125 10.953125 
Q 47.40625 15.53125 47.40625 23.390625 
Q 47.40625 31.296875 43.53125 35.828125 
Q 39.65625 40.375 33.015625 40.375 
z
M 52.59375 71.296875 
L 52.59375 62.3125 
Q 48.875 64.0625 45.09375 64.984375 
Q 41.3125 65.921875 37.59375 65.921875 
Q 27.828125 65.921875 22.671875 59.328125 
Q 17.53125 52.734375 16.796875 39.40625 
Q 19.671875 43.65625 24.015625 45.921875 
Q 28.375 48.1875 33.59375 48.1875 
Q 44.578125 48.1875 50.953125 41.515625 
Q 57.328125 34.859375 57.328125 23.390625 
Q 57.328125 12.15625 50.6875 5.359375 
Q 44.046875 -1.421875 33.015625 -1.421875 
Q 20.359375 -1.421875 13.671875 8.265625 
Q 6.984375 17.96875 6.984375 36.375 
Q 6.984375 53.65625 15.1875 63.9375 
Q 23.390625 74.21875 37.203125 74.21875 
Q 40.921875 74.21875 44.703125 73.484375 
Q 48.484375 72.75 52.59375 71.296875 
z
" id="DejaVuSans-36"/>
      </defs>
      <g transform="translate(27.275 128.387598)scale(0.16 -0.16)">
       <use xlink:href="#DejaVuSans-30"/>
       <use x="63.623047" xlink:href="#DejaVuSans-2e"/>
       <use x="95.410156" xlink:href="#DejaVuSans-36"/>
      </g>
     </g>
    </g>
    <g id="ytick_5">
     <g id="line2d_60">
      <path clip-path="url(#pf04477470f)" d="M 59.72 65.985131 
L 450.672 65.985131 
" style="fill:none;stroke:#b0b0b0;stroke-linecap:square;stroke-width:0.8;"/>
     </g>
     <g id="line2d_61">
      <g>
       <use style="stroke:#000000;stroke-width:0.8;" x="59.72" xlink:href="#mc734f4533f" y="65.985131"/>
      </g>
     </g>
     <g id="text_8">
      <!-- 0.8 -->
      <defs>
       <path d="M 31.78125 34.625 
Q 24.75 34.625 20.71875 30.859375 
Q 16.703125 27.09375 16.703125 20.515625 
Q 16.703125 13.921875 20.71875 10.15625 
Q 24.75 6.390625 31.78125 6.390625 
Q 38.8125 6.390625 42.859375 10.171875 
Q 46.921875 13.96875 46.921875 20.515625 
Q 46.921875 27.09375 42.890625 30.859375 
Q 38.875 34.625 31.78125 34.625 
z
M 21.921875 38.8125 
Q 15.578125 40.375 12.03125 44.71875 
Q 8.5 49.078125 8.5 55.328125 
Q 8.5 64.0625 14.71875 69.140625 
Q 20.953125 74.21875 31.78125 74.21875 
Q 42.671875 74.21875 48.875 69.140625 
Q 55.078125 64.0625 55.078125 55.328125 
Q 55.078125 49.078125 51.53125 44.71875 
Q 48 40.375 41.703125 38.8125 
Q 48.828125 37.15625 52.796875 32.3125 
Q 56.78125 27.484375 56.78125 20.515625 
Q 56.78125 9.90625 50.3125 4.234375 
Q 43.84375 -1.421875 31.78125 -1.421875 
Q 19.734375 -1.421875 13.25 4.234375 
Q 6.78125 9.90625 6.78125 20.515625 
Q 6.78125 27.484375 10.78125 32.3125 
Q 14.796875 37.15625 21.921875 38.8125 
z
M 18.3125 54.390625 
Q 18.3125 48.734375 21.84375 45.5625 
Q 25.390625 42.390625 31.78125 42.390625 
Q 38.140625 42.390625 41.71875 45.5625 
Q 45.3125 48.734375 45.3125 54.390625 
Q 45.3125 60.0625 41.71875 63.234375 
Q 38.140625 66.40625 31.78125 66.40625 
Q 25.390625 66.40625 21.84375 63.234375 
Q 18.3125 60.0625 18.3125 54.390625 
z
" id="DejaVuSans-38"/>
      </defs>
      <g transform="translate(27.275 72.063881)scale(0.16 -0.16)">
       <use xlink:href="#DejaVuSans-30"/>
       <use x="63.623047" xlink:href="#DejaVuSans-2e"/>
       <use x="95.410156" xlink:href="#DejaVuSans-38"/>
      </g>
     </g>
    </g>
    <g id="ytick_6">
     <g id="line2d_62">
      <path clip-path="url(#pf04477470f)" d="M 59.72 9.661414 
L 450.672 9.661414 
" style="fill:none;stroke:#b0b0b0;stroke-linecap:square;stroke-width:0.8;"/>
     </g>
     <g id="line2d_63">
      <g>
       <use style="stroke:#000000;stroke-width:0.8;" x="59.72" xlink:href="#mc734f4533f" y="9.661414"/>
      </g>
     </g>
     <g id="text_9">
      <!-- 1.0 -->
      <g transform="translate(27.275 15.740164)scale(0.16 -0.16)">
       <use xlink:href="#DejaVuSans-31"/>
       <use x="63.623047" xlink:href="#DejaVuSans-2e"/>
       <use x="95.410156" xlink:href="#DejaVuSans-30"/>
      </g>
     </g>
    </g>
    <g id="text_10">
     <!-- proportion of trials -->
     <defs>
      <path d="M 18.109375 8.203125 
L 18.109375 -20.796875 
L 9.078125 -20.796875 
L 9.078125 54.6875 
L 18.109375 54.6875 
L 18.109375 46.390625 
Q 20.953125 51.265625 25.265625 53.625 
Q 29.59375 56 35.59375 56 
Q 45.5625 56 51.78125 48.09375 
Q 58.015625 40.1875 58.015625 27.296875 
Q 58.015625 14.40625 51.78125 6.484375 
Q 45.5625 -1.421875 35.59375 -1.421875 
Q 29.59375 -1.421875 25.265625 0.953125 
Q 20.953125 3.328125 18.109375 8.203125 
z
M 48.6875 27.296875 
Q 48.6875 37.203125 44.609375 42.84375 
Q 40.53125 48.484375 33.40625 48.484375 
Q 26.265625 48.484375 22.1875 42.84375 
Q 18.109375 37.203125 18.109375 27.296875 
Q 18.109375 17.390625 22.1875 11.75 
Q 26.265625 6.109375 33.40625 6.109375 
Q 40.53125 6.109375 44.609375 11.75 
Q 48.6875 17.390625 48.6875 27.296875 
z
" id="DejaVuSans-70"/>
      <path d="M 41.109375 46.296875 
Q 39.59375 47.171875 37.8125 47.578125 
Q 36.03125 48 33.890625 48 
Q 26.265625 48 22.1875 43.046875 
Q 18.109375 38.09375 18.109375 28.8125 
L 18.109375 0 
L 9.078125 0 
L 9.078125 54.6875 
L 18.109375 54.6875 
L 18.109375 46.1875 
Q 20.953125 51.171875 25.484375 53.578125 
Q 30.03125 56 36.53125 56 
Q 37.453125 56 38.578125 55.875 
Q 39.703125 55.765625 41.0625 55.515625 
z
" id="DejaVuSans-72"/>
      <path d="M 18.3125 70.21875 
L 18.3125 54.6875 
L 36.8125 54.6875 
L 36.8125 47.703125 
L 18.3125 47.703125 
L 18.3125 18.015625 
Q 18.3125 11.328125 20.140625 9.421875 
Q 21.96875 7.515625 27.59375 7.515625 
L 36.8125 7.515625 
L 36.8125 0 
L 27.59375 0 
Q 17.1875 0 13.234375 3.875 
Q 9.28125 7.765625 9.28125 18.015625 
L 9.28125 47.703125 
L 2.6875 47.703125 
L 2.6875 54.6875 
L 9.28125 54.6875 
L 9.28125 70.21875 
z
" id="DejaVuSans-74"/>
      <path d="M 9.421875 54.6875 
L 18.40625 54.6875 
L 18.40625 0 
L 9.421875 0 
z
M 9.421875 75.984375 
L 18.40625 75.984375 
L 18.40625 64.59375 
L 9.421875 64.59375 
z
" id="DejaVuSans-69"/>
      <path d="M 54.890625 33.015625 
L 54.890625 0 
L 45.90625 0 
L 45.90625 32.71875 
Q 45.90625 40.484375 42.875 44.328125 
Q 39.84375 48.1875 33.796875 48.1875 
Q 26.515625 48.1875 22.3125 43.546875 
Q 18.109375 38.921875 18.109375 30.90625 
L 18.109375 0 
L 9.078125 0 
L 9.078125 54.6875 
L 18.109375 54.6875 
L 18.109375 46.1875 
Q 21.34375 51.125 25.703125 53.5625 
Q 30.078125 56 35.796875 56 
Q 45.21875 56 50.046875 50.171875 
Q 54.890625 44.34375 54.890625 33.015625 
z
" id="DejaVuSans-6e"/>
     </defs>
     <g transform="translate(19.115625 242.290739)rotate(-90)scale(0.2 -0.2)">
      <use xlink:href="#DejaVuSans-70"/>
      <use x="63.476562" xlink:href="#DejaVuSans-72"/>
      <use x="104.558594" xlink:href="#DejaVuSans-6f"/>
      <use x="165.740234" xlink:href="#DejaVuSans-70"/>
      <use x="229.216797" xlink:href="#DejaVuSans-6f"/>
      <use x="290.398438" xlink:href="#DejaVuSans-72"/>
      <use x="331.511719" xlink:href="#DejaVuSans-74"/>
      <use x="370.720703" xlink:href="#DejaVuSans-69"/>
      <use x="398.503906" xlink:href="#DejaVuSans-6f"/>
      <use x="459.685547" xlink:href="#DejaVuSans-6e"/>
      <use x="523.064453" xlink:href="#DejaVuSans-20"/>
      <use x="554.851562" xlink:href="#DejaVuSans-6f"/>
      <use x="616.033203" xlink:href="#DejaVuSans-66"/>
      <use x="651.238281" xlink:href="#DejaVuSans-20"/>
      <use x="683.025391" xlink:href="#DejaVuSans-74"/>
      <use x="722.234375" xlink:href="#DejaVuSans-72"/>
      <use x="763.347656" xlink:href="#DejaVuSans-69"/>
      <use x="791.130859" xlink:href="#DejaVuSans-61"/>
      <use x="852.410156" xlink:href="#DejaVuSans-6c"/>
      <use x="880.193359" xlink:href="#DejaVuSans-73"/>
     </g>
    </g>
   </g>
   <g id="line2d_64">
    <path clip-path="url(#pf04477470f)" d="M -1 277.981345 
L 201.159125 277.981345 
L 201.159125 277.199071 
L 264.753716 277.199071 
L 264.753716 276.416797 
L 298.103201 276.416797 
L 298.103201 275.634523 
L 319.037455 275.634523 
L 319.037455 274.852249 
L 322.049484 274.852249 
L 322.049484 274.069975 
L 345.20065 274.069975 
L 345.20065 273.287701 
L 357.122673 273.287701 
L 357.122673 272.505428 
L 357.384321 272.505428 
L 357.384321 271.723154 
L 375.271557 271.723154 
L 375.271557 270.94088 
L 376.086863 270.94088 
L 376.086863 270.158606 
L 376.390295 270.158606 
L 376.390295 269.376332 
L 411.031405 269.376332 
L 411.031405 268.594058 
L 411.534626 268.594058 
L 411.534626 267.811784 
L 417.609119 267.811784 
L 417.609119 267.029511 
L 445.852253 267.029511 
L 445.852253 266.247237 
L 450.579735 266.247237 
L 450.579735 265.464963 
L 460.965817 265.464963 
L 460.965817 264.682689 
L 461.8 264.682689 
" style="fill:none;stroke:#000000;stroke-linecap:square;stroke-width:1.5;"/>
   </g>
   <g id="line2d_65">
    <path clip-path="url(#pf04477470f)" style="fill:none;stroke:#000000;stroke-linecap:square;stroke-width:1.5;"/>
   </g>
   <g id="line2d_66">
    <path clip-path="url(#pf04477470f)" d="M 364.000038 291.28 
L 364.000038 290.497726 
L 368.62754 290.497726 
L 368.62754 289.715452 
L 377.591697 289.715452 
L 377.591697 288.933178 
L 382.953239 288.933178 
L 382.953239 288.150905 
L 386.469597 288.150905 
L 386.469597 287.368631 
L 393.837429 287.368631 
L 393.837429 286.586357 
L 397.868676 286.586357 
L 397.868676 285.804083 
L 400.3902 285.804083 
L 400.3902 285.021809 
L 401.187878 285.021809 
L 401.187878 284.239535 
L 411.094495 284.239535 
L 411.094495 283.457261 
L 417.261897 283.457261 
L 417.261897 282.674988 
L 421.214574 282.674988 
L 421.214574 281.892714 
L 424.283761 281.892714 
L 424.283761 281.11044 
L 429.86847 281.11044 
L 429.86847 280.328166 
L 448.520151 280.328166 
L 448.520151 279.545892 
L 448.520151 279.545892 
L 448.520151 279.545892 
L 450.672 279.545892 
" style="fill:none;stroke:#00bfbf;stroke-linecap:square;stroke-width:1.5;"/>
   </g>
   <g id="line2d_67">
    <path clip-path="url(#pf04477470f)" style="fill:none;stroke:#00bfbf;stroke-linecap:square;stroke-width:1.5;"/>
   </g>
   <g id="line2d_68"/>
   <g id="line2d_69"/>
   <g id="line2d_70">
    <path clip-path="url(#pf04477470f)" d="M 450.672 291.28 
L 450.672 6.845228 
" style="fill:none;stroke:#000000;stroke-linecap:square;stroke-width:1.5;"/>
   </g>
   <g id="patch_3">
    <path d="M 59.72 291.28 
L 59.72 6.845228 
" style="fill:none;stroke:#000000;stroke-linecap:square;stroke-linejoin:miter;stroke-width:0.8;"/>
   </g>
   <g id="patch_4">
    <path d="M 450.672 291.28 
L 450.672 6.845228 
" style="fill:none;stroke:#000000;stroke-linecap:square;stroke-linejoin:miter;stroke-width:0.8;"/>
   </g>
   <g id="patch_5">
    <path d="M 59.72 291.28 
L 450.672 291.28 
" style="fill:none;stroke:#000000;stroke-linecap:square;stroke-linejoin:miter;stroke-width:0.8;"/>
   </g>
   <g id="patch_6">
    <path d="M 59.72 6.845228 
L 450.672 6.845228 
" style="fill:none;stroke:#000000;stroke-linecap:square;stroke-linejoin:miter;stroke-width:0.8;"/>
   </g>
   <g id="text_11">
    <!-- {f1-f24}, 20-D -->
    <defs>
     <path d="M 51.125 -9.28125 
L 51.125 -16.3125 
L 48.09375 -16.3125 
Q 35.9375 -16.3125 31.8125 -12.6875 
Q 27.6875 -9.078125 27.6875 1.703125 
L 27.6875 13.375 
Q 27.6875 20.75 25.046875 23.578125 
Q 22.40625 26.421875 15.484375 26.421875 
L 12.5 26.421875 
L 12.5 33.40625 
L 15.484375 33.40625 
Q 22.46875 33.40625 25.078125 36.203125 
Q 27.6875 39.015625 27.6875 46.296875 
L 27.6875 58.015625 
Q 27.6875 68.796875 31.8125 72.390625 
Q 35.9375 75.984375 48.09375 75.984375 
L 51.125 75.984375 
L 51.125 69 
L 47.796875 69 
Q 40.921875 69 38.8125 66.84375 
Q 36.71875 64.703125 36.71875 57.8125 
L 36.71875 45.703125 
Q 36.71875 38.03125 34.5 34.5625 
Q 32.28125 31.109375 26.90625 29.890625 
Q 32.328125 28.5625 34.515625 25.09375 
Q 36.71875 21.625 36.71875 14.015625 
L 36.71875 1.90625 
Q 36.71875 -4.984375 38.8125 -7.125 
Q 40.921875 -9.28125 47.796875 -9.28125 
z
" id="DejaVuSans-7b"/>
     <path d="M 4.890625 31.390625 
L 31.203125 31.390625 
L 31.203125 23.390625 
L 4.890625 23.390625 
z
" id="DejaVuSans-2d"/>
     <path d="M 12.5 -9.28125 
L 15.921875 -9.28125 
Q 22.75 -9.28125 24.828125 -7.171875 
Q 26.90625 -5.078125 26.90625 1.90625 
L 26.90625 14.015625 
Q 26.90625 21.625 29.09375 25.09375 
Q 31.296875 28.5625 36.71875 29.890625 
Q 31.296875 31.109375 29.09375 34.5625 
Q 26.90625 38.03125 26.90625 45.703125 
L 26.90625 57.8125 
Q 26.90625 64.75 24.828125 66.875 
Q 22.75 69 15.921875 69 
L 12.5 69 
L 12.5 75.984375 
L 15.578125 75.984375 
Q 27.734375 75.984375 31.8125 72.390625 
Q 35.890625 68.796875 35.890625 58.015625 
L 35.890625 46.296875 
Q 35.890625 39.015625 38.515625 36.203125 
Q 41.15625 33.40625 48.09375 33.40625 
L 51.125 33.40625 
L 51.125 26.421875 
L 48.09375 26.421875 
Q 41.15625 26.421875 38.515625 23.578125 
Q 35.890625 20.75 35.890625 13.375 
L 35.890625 1.703125 
Q 35.890625 -9.078125 31.8125 -12.6875 
Q 27.734375 -16.3125 15.578125 -16.3125 
L 12.5 -16.3125 
z
" id="DejaVuSans-7d"/>
     <path d="M 11.71875 12.40625 
L 22.015625 12.40625 
L 22.015625 4 
L 14.015625 -11.625 
L 7.71875 -11.625 
L 11.71875 4 
z
" id="DejaVuSans-2c"/>
    </defs>
    <g transform="translate(182.346 27.730798)scale(0.2 -0.2)">
     <use xlink:href="#DejaVuSans-7b"/>
     <use x="63.623047" xlink:href="#DejaVuSans-66"/>
     <use x="98.828125" xlink:href="#DejaVuSans-31"/>
     <use x="162.451172" xlink:href="#DejaVuSans-2d"/>
     <use x="198.535156" xlink:href="#DejaVuSans-66"/>
     <use x="233.740234" xlink:href="#DejaVuSans-32"/>
     <use x="297.363281" xlink:href="#DejaVuSans-34"/>
     <use x="360.986328" xlink:href="#DejaVuSans-7d"/>
     <use x="424.609375" xlink:href="#DejaVuSans-2c"/>
     <use x="456.396484" xlink:href="#DejaVuSans-20"/>
     <use x="488.183594" xlink:href="#DejaVuSans-32"/>
     <use x="551.806641" xlink:href="#DejaVuSans-30"/>
     <use x="615.429688" xlink:href="#DejaVuSans-2d"/>
     <use x="651.513672" xlink:href="#DejaVuSans-44"/>
    </g>
   </g>
   <g id="text_12">
    <!-- absolute targets -->
    <defs>
     <path d="M 48.6875 27.296875 
Q 48.6875 37.203125 44.609375 42.84375 
Q 40.53125 48.484375 33.40625 48.484375 
Q 26.265625 48.484375 22.1875 42.84375 
Q 18.109375 37.203125 18.109375 27.296875 
Q 18.109375 17.390625 22.1875 11.75 
Q 26.265625 6.109375 33.40625 6.109375 
Q 40.53125 6.109375 44.609375 11.75 
Q 48.6875 17.390625 48.6875 27.296875 
z
M 18.109375 46.390625 
Q 20.953125 51.265625 25.265625 53.625 
Q 29.59375 56 35.59375 56 
Q 45.5625 56 51.78125 48.09375 
Q 58.015625 40.1875 58.015625 27.296875 
Q 58.015625 14.40625 51.78125 6.484375 
Q 45.5625 -1.421875 35.59375 -1.421875 
Q 29.59375 -1.421875 25.265625 0.953125 
Q 20.953125 3.328125 18.109375 8.203125 
L 18.109375 0 
L 9.078125 0 
L 9.078125 75.984375 
L 18.109375 75.984375 
z
" id="DejaVuSans-62"/>
     <path d="M 8.5 21.578125 
L 8.5 54.6875 
L 17.484375 54.6875 
L 17.484375 21.921875 
Q 17.484375 14.15625 20.5 10.265625 
Q 23.53125 6.390625 29.59375 6.390625 
Q 36.859375 6.390625 41.078125 11.03125 
Q 45.3125 15.671875 45.3125 23.6875 
L 45.3125 54.6875 
L 54.296875 54.6875 
L 54.296875 0 
L 45.3125 0 
L 45.3125 8.40625 
Q 42.046875 3.421875 37.71875 1 
Q 33.40625 -1.421875 27.6875 -1.421875 
Q 18.265625 -1.421875 13.375 4.4375 
Q 8.5 10.296875 8.5 21.578125 
z
M 31.109375 56 
z
" id="DejaVuSans-75"/>
     <path d="M 56.203125 29.59375 
L 56.203125 25.203125 
L 14.890625 25.203125 
Q 15.484375 15.921875 20.484375 11.0625 
Q 25.484375 6.203125 34.421875 6.203125 
Q 39.59375 6.203125 44.453125 7.46875 
Q 49.3125 8.734375 54.109375 11.28125 
L 54.109375 2.78125 
Q 49.265625 0.734375 44.1875 -0.34375 
Q 39.109375 -1.421875 33.890625 -1.421875 
Q 20.796875 -1.421875 13.15625 6.1875 
Q 5.515625 13.8125 5.515625 26.8125 
Q 5.515625 40.234375 12.765625 48.109375 
Q 20.015625 56 32.328125 56 
Q 43.359375 56 49.78125 48.890625 
Q 56.203125 41.796875 56.203125 29.59375 
z
M 47.21875 32.234375 
Q 47.125 39.59375 43.09375 43.984375 
Q 39.0625 48.390625 32.421875 48.390625 
Q 24.90625 48.390625 20.390625 44.140625 
Q 15.875 39.890625 15.1875 32.171875 
z
" id="DejaVuSans-65"/>
    </defs>
    <g transform="translate(59.72 598.909192)scale(0.14 -0.14)">
     <use xlink:href="#DejaVuSans-61"/>
     <use x="61.279297" xlink:href="#DejaVuSans-62"/>
     <use x="124.755859" xlink:href="#DejaVuSans-73"/>
     <use x="176.855469" xlink:href="#DejaVuSans-6f"/>
     <use x="238.037109" xlink:href="#DejaVuSans-6c"/>
     <use x="265.820312" xlink:href="#DejaVuSans-75"/>
     <use x="329.199219" xlink:href="#DejaVuSans-74"/>
     <use x="368.408203" xlink:href="#DejaVuSans-65"/>
     <use x="429.931641" xlink:href="#DejaVuSans-20"/>
     <use x="461.71875" xlink:href="#DejaVuSans-74"/>
     <use x="500.927734" xlink:href="#DejaVuSans-61"/>
     <use x="562.207031" xlink:href="#DejaVuSans-72"/>
     <use x="603.304688" xlink:href="#DejaVuSans-67"/>
     <use x="666.78125" xlink:href="#DejaVuSans-65"/>
     <use x="728.304688" xlink:href="#DejaVuSans-74"/>
     <use x="767.513672" xlink:href="#DejaVuSans-73"/>
    </g>
   </g>
   <g id="text_13">
    <!-- v2.2.1.10 -->
    <g style="fill:#808080;" transform="translate(231.563188 286.355965)scale(0.1 -0.1)">
     <use xlink:href="#DejaVuSans-76"/>
     <use x="59.179688" xlink:href="#DejaVuSans-32"/>
     <use x="122.802734" xlink:href="#DejaVuSans-2e"/>
     <use x="154.589844" xlink:href="#DejaVuSans-32"/>
     <use x="218.212891" xlink:href="#DejaVuSans-2e"/>
     <use x="250" xlink:href="#DejaVuSans-31"/>
     <use x="313.623047" xlink:href="#DejaVuSans-2e"/>
     <use x="345.410156" xlink:href="#DejaVuSans-31"/>
     <use x="409.033203" xlink:href="#DejaVuSans-30"/>
    </g>
   </g>
   <g id="legend_1">
    <g id="patch_7">
     <path d="M 294.725125 140.270228 
L 436.672 140.270228 
Q 440.672 140.270228 440.672 136.270228 
L 440.672 20.845228 
Q 440.672 16.845228 436.672 16.845228 
L 294.725125 16.845228 
Q 290.725125 16.845228 290.725125 20.845228 
L 290.725125 136.270228 
Q 290.725125 140.270228 294.725125 140.270228 
z
" style="fill:#ffffff;opacity:0.2;stroke:#cccccc;stroke-linejoin:miter;"/>
    </g>
    <g id="line2d_71">
     <path d="M 298.725125 33.042103 
L 338.725125 33.042103 
" style="fill:none;stroke:#000000;stroke-linecap:square;stroke-width:1.5;"/>
    </g>
    <g id="line2d_72"/>
    <g id="text_14">
     <!-- 1: 4/24 -->
     <defs>
      <path d="M 11.71875 12.40625 
L 22.015625 12.40625 
L 22.015625 0 
L 11.71875 0 
z
M 11.71875 51.703125 
L 22.015625 51.703125 
L 22.015625 39.3125 
L 11.71875 39.3125 
z
" id="DejaVuSans-3a"/>
     </defs>
     <g transform="translate(354.725125 40.042103)scale(0.2 -0.2)">
      <use xlink:href="#DejaVuSans-31"/>
      <use x="63.623047" xlink:href="#DejaVuSans-3a"/>
      <use x="97.314453" xlink:href="#DejaVuSans-20"/>
      <use x="129.101562" xlink:href="#DejaVuSans-34"/>
      <use x="192.724609" xlink:href="#DejaVuSans-2f"/>
      <use x="226.416016" xlink:href="#DejaVuSans-32"/>
      <use x="290.039062" xlink:href="#DejaVuSans-34"/>
     </g>
    </g>
    <g id="line2d_73">
     <path d="M 298.725125 62.398353 
L 338.725125 62.398353 
" style="fill:none;stroke:#00bfbf;stroke-linecap:square;stroke-width:1.5;"/>
    </g>
    <g id="line2d_74"/>
    <g id="text_15">
     <!-- -1: 1/24 -->
     <g transform="translate(354.725125 69.398353)scale(0.2 -0.2)">
      <use xlink:href="#DejaVuSans-2d"/>
      <use x="36.083984" xlink:href="#DejaVuSans-31"/>
      <use x="99.707031" xlink:href="#DejaVuSans-3a"/>
      <use x="133.398438" xlink:href="#DejaVuSans-20"/>
      <use x="165.185547" xlink:href="#DejaVuSans-31"/>
      <use x="228.808594" xlink:href="#DejaVuSans-2f"/>
      <use x="262.5" xlink:href="#DejaVuSans-32"/>
      <use x="326.123047" xlink:href="#DejaVuSans-34"/>
     </g>
    </g>
    <g id="line2d_75">
     <path d="M 298.725125 91.754603 
L 338.725125 91.754603 
" style="fill:none;stroke:#bf00bf;stroke-linecap:square;stroke-width:1.5;"/>
    </g>
    <g id="line2d_76"/>
    <g id="text_16">
     <!-- -4: 0/24 -->
     <g transform="translate(354.725125 98.754603)scale(0.2 -0.2)">
      <use xlink:href="#DejaVuSans-2d"/>
      <use x="36.083984" xlink:href="#DejaVuSans-34"/>
      <use x="99.707031" xlink:href="#DejaVuSans-3a"/>
      <use x="133.398438" xlink:href="#DejaVuSans-20"/>
      <use x="165.185547" xlink:href="#DejaVuSans-30"/>
      <use x="228.808594" xlink:href="#DejaVuSans-2f"/>
      <use x="262.5" xlink:href="#DejaVuSans-32"/>
      <use x="326.123047" xlink:href="#DejaVuSans-34"/>
     </g>
    </g>
    <g id="line2d_77">
     <path d="M 298.725125 121.110853 
L 338.725125 121.110853 
" style="fill:none;stroke:#ff0000;stroke-linecap:square;stroke-width:3;"/>
    </g>
    <g id="line2d_78"/>
    <g id="text_17">
     <!-- -8: 0/24 -->
     <g transform="translate(354.725125 128.110853)scale(0.2 -0.2)">
      <use xlink:href="#DejaVuSans-2d"/>
      <use x="36.083984" xlink:href="#DejaVuSans-38"/>
      <use x="99.707031" xlink:href="#DejaVuSans-3a"/>
      <use x="133.398438" xlink:href="#DejaVuSans-20"/>
      <use x="165.185547" xlink:href="#DejaVuSans-30"/>
      <use x="228.808594" xlink:href="#DejaVuSans-2f"/>
      <use x="262.5" xlink:href="#DejaVuSans-32"/>
      <use x="326.123047" xlink:href="#DejaVuSans-34"/>
     </g>
    </g>
   </g>
  </g>
 </g>
 <defs>
  <clipPath id="pf04477470f">
   <rect height="284.434772" width="390.952" x="59.72" y="6.845228"/>
  </clipPath>
 </defs>
</svg>
