<?xml version="1.0" encoding="utf-8" standalone="no"?>
<!DOCTYPE svg PUBLIC "-//W3C//DTD SVG 1.1//EN"
  "http://www.w3.org/Graphics/SVG/1.1/DTD/svg11.dtd">
<!-- Created with matplotlib (http://matplotlib.org/) -->
<svg height="345.6pt" version="1.1" viewBox="0 0 460.8 345.6" width="460.8pt" xmlns="http://www.w3.org/2000/svg" xmlns:xlink="http://www.w3.org/1999/xlink">
 <defs>
  <style type="text/css">
*{stroke-linecap:butt;stroke-linejoin:round;}
  </style>
 </defs>
 <g id="figure_1">
  <g id="patch_1">
   <path d="M 0 345.6 
L 460.8 345.6 
L 460.8 0 
L 0 0 
z
" style="fill:#ffffff;"/>
  </g>
  <g id="axes_1">
   <g id="patch_2">
    <path d="M 59.72 291.28 
L 450.672 291.28 
L 450.672 6.845228 
L 59.72 6.845228 
z
" style="fill:#ffffff;"/>
   </g>
   <g id="line2d_1">
    <path clip-path="url(#pc45bbe45dc)" d="M 269.415338 291.28 
L 269.415338 287.525086 
L 269.415338 287.525086 
L 269.415338 283.770171 
L 269.415338 283.770171 
L 269.415338 280.015257 
L 269.415338 280.015257 
L 269.415338 276.260342 
L 269.415338 276.260342 
L 269.415338 272.505428 
L 269.415338 272.505428 
L 269.415338 268.750513 
L 269.415338 268.750513 
L 269.415338 264.995599 
L 269.415338 264.995599 
L 269.415338 261.240684 
L 269.415338 261.240684 
L 269.415338 257.48577 
L 269.415338 257.48577 
L 269.415338 253.730855 
L 269.415338 253.730855 
L 269.415338 249.975941 
L 269.415338 249.975941 
L 269.415338 246.221026 
L 269.415338 246.221026 
L 269.415338 242.466112 
L 269.415338 242.466112 
L 269.415338 238.711197 
L 269.415338 238.711197 
L 269.415338 234.956283 
L 277.938396 234.956283 
L 277.938396 231.201368 
L 281.857076 231.201368 
L 281.857076 227.446454 
L 281.857076 227.446454 
L 281.857076 223.691539 
L 285.57809 223.691539 
L 285.57809 219.936625 
L 285.57809 219.936625 
L 285.57809 216.18171 
L 285.57809 216.18171 
L 285.57809 212.426796 
L 285.57809 212.426796 
L 285.57809 208.671881 
L 289.120425 208.671881 
L 289.120425 204.916967 
L 289.120425 204.916967 
L 289.120425 201.162052 
L 289.120425 201.162052 
L 289.120425 197.407138 
L 292.500458 197.407138 
L 292.500458 193.652223 
L 292.500458 193.652223 
L 292.500458 189.897309 
L 292.500458 189.897309 
L 292.500458 186.142394 
L 292.500458 186.142394 
L 292.500458 182.38748 
L 295.732411 182.38748 
L 295.732411 178.632565 
L 461.8 178.632565 
" style="fill:none;stroke:#f5deb3;stroke-linecap:square;stroke-width:1.5;"/>
   </g>
   <g id="line2d_2">
    <path clip-path="url(#pc45bbe45dc)" style="fill:none;stroke:#f5deb3;stroke-linecap:square;stroke-width:1.5;"/>
   </g>
   <g id="line2d_3">
    <path clip-path="url(#pc45bbe45dc)" d="M 240.883473 291.28 
L 240.883473 287.525086 
L 240.883473 287.525086 
L 240.883473 283.770171 
L 240.883473 283.770171 
L 240.883473 280.015257 
L 240.883473 280.015257 
L 240.883473 276.260342 
L 241.199467 276.260342 
L 241.199467 272.505428 
L 241.514114 272.505428 
L 241.514114 268.750513 
L 241.514114 268.750513 
L 241.514114 264.995599 
L 241.514114 264.995599 
L 241.514114 261.240684 
L 241.514114 261.240684 
L 241.514114 257.48577 
L 241.514114 257.48577 
L 241.514114 253.730855 
L 241.514114 253.730855 
L 241.514114 249.975941 
L 241.514114 249.975941 
L 241.514114 246.221026 
L 241.514114 246.221026 
L 241.514114 242.466112 
L 241.514114 242.466112 
L 241.514114 238.711197 
L 241.827424 238.711197 
L 241.827424 234.956283 
L 242.139409 234.956283 
L 242.139409 231.201368 
L 242.759451 231.201368 
L 242.759451 227.446454 
L 245.783828 227.446454 
L 245.783828 223.691539 
L 246.959701 223.691539 
L 246.959701 219.936625 
L 249.256679 219.936625 
L 249.256679 216.18171 
L 249.256679 216.18171 
L 249.256679 212.426796 
L 250.09994 212.426796 
L 250.09994 208.671881 
L 250.378898 208.671881 
L 250.378898 204.916967 
L 250.656806 204.916967 
L 250.656806 201.162052 
L 252.030859 201.162052 
L 252.030859 197.407138 
L 252.302625 197.407138 
L 252.302625 193.652223 
L 253.111969 193.652223 
L 253.111969 189.897309 
L 255.488061 189.897309 
L 255.488061 186.142394 
L 259.532058 186.142394 
L 259.532058 182.38748 
L 262.662048 182.38748 
L 262.662048 178.632565 
L 262.662048 178.632565 
L 262.662048 178.632565 
L 450.672 178.632565 
" style="fill:none;stroke:#f5deb3;stroke-linecap:square;stroke-width:1.5;"/>
   </g>
   <g id="line2d_4">
    <path clip-path="url(#pc45bbe45dc)" d="M 187.489292 291.28 
L 187.489292 287.525086 
L 188.78379 287.525086 
L 188.78379 283.770171 
L 190.683924 283.770171 
L 190.683924 280.015257 
L 193.143635 280.015257 
L 193.143635 276.260342 
L 195.523985 276.260342 
L 195.523985 272.505428 
L 203.823114 272.505428 
L 203.823114 268.750513 
L 203.823114 268.750513 
L 203.823114 264.995599 
L 204.344561 264.995599 
L 204.344561 261.240684 
L 207.895015 261.240684 
L 207.895015 257.48577 
L 207.895015 257.48577 
L 207.895015 253.730855 
L 212.22238 253.730855 
L 212.22238 249.975941 
L 217.188347 249.975941 
L 217.188347 246.221026 
L 218.056409 246.221026 
L 218.056409 242.466112 
L 219.762485 242.466112 
L 219.762485 238.711197 
L 249.256679 238.711197 
L 249.256679 234.956283 
L 383.321701 234.956283 
L 383.321701 231.201368 
L 386.645484 231.201368 
L 386.645484 227.446454 
L 387.127022 227.446454 
L 387.127022 223.691539 
L 387.69209 223.691539 
L 387.69209 219.936625 
L 388.510251 219.936625 
L 388.510251 216.18171 
L 390.412563 216.18171 
L 390.412563 212.426796 
L 390.662538 212.426796 
L 390.662538 208.671881 
L 390.78721 208.671881 
L 390.78721 204.916967 
L 390.91167 204.916967 
L 390.91167 201.162052 
L 391.366239 201.162052 
L 391.366239 197.407138 
L 391.61301 197.407138 
L 391.61301 193.652223 
L 391.695084 193.652223 
L 391.695084 189.897309 
L 393.558018 189.897309 
L 393.558018 186.142394 
L 393.877259 186.142394 
L 393.877259 182.38748 
L 394.234762 182.38748 
L 394.234762 178.632565 
L 461.8 178.632565 
" style="fill:none;stroke:#f5deb3;stroke-linecap:square;stroke-width:1.5;"/>
   </g>
   <g id="line2d_5">
    <path clip-path="url(#pc45bbe45dc)" style="fill:none;stroke:#f5deb3;stroke-linecap:square;stroke-width:1.5;"/>
   </g>
   <g id="line2d_6"/>
   <g id="line2d_7">
    <path clip-path="url(#pc45bbe45dc)" d="M 239.28288 291.28 
L 239.28288 287.525086 
L 254.441455 287.525086 
L 254.441455 283.770171 
L 255.747409 283.770171 
L 255.747409 280.015257 
L 256.775781 280.015257 
L 256.775781 276.260342 
L 257.03065 276.260342 
L 257.03065 272.505428 
L 257.790016 272.505428 
L 257.790016 268.750513 
L 259.038514 268.750513 
L 259.038514 264.995599 
L 259.038514 264.995599 
L 259.038514 261.240684 
L 259.532058 261.240684 
L 259.532058 257.48577 
L 266.11593 257.48577 
L 266.11593 253.730855 
L 268.331846 253.730855 
L 268.331846 249.975941 
L 270.27082 249.975941 
L 270.27082 246.221026 
L 272.160142 246.221026 
L 272.160142 242.466112 
L 282.580459 242.466112 
L 282.580459 238.711197 
L 282.580459 238.711197 
L 282.580459 234.956283 
L 420.273927 234.956283 
L 420.273927 231.201368 
L 421.187078 231.201368 
L 421.187078 227.446454 
L 423.033823 227.446454 
L 423.033823 223.691539 
L 423.488377 223.691539 
L 423.488377 219.936625 
L 423.701319 219.936625 
L 423.701319 216.18171 
L 424.046045 216.18171 
L 424.046045 212.426796 
L 424.231002 212.426796 
L 424.231002 208.671881 
L 424.704486 208.671881 
L 424.704486 204.916967 
L 424.730702 204.916967 
L 424.730702 201.162052 
L 425.82344 201.162052 
L 425.82344 197.407138 
L 426.543044 197.407138 
L 426.543044 193.652223 
L 427.230363 193.652223 
L 427.230363 189.897309 
L 429.032516 189.897309 
L 429.032516 186.142394 
L 429.697134 186.142394 
L 429.697134 182.38748 
L 430.039409 182.38748 
L 430.039409 178.632565 
L 461.8 178.632565 
" style="fill:none;stroke:#f5deb3;stroke-linecap:square;stroke-width:1.5;"/>
   </g>
   <g id="line2d_8">
    <path clip-path="url(#pc45bbe45dc)" d="M 0 0 
" style="fill:none;stroke:#f5deb3;stroke-linecap:square;stroke-width:1.5;"/>
   </g>
   <g id="line2d_9">
    <path clip-path="url(#pc45bbe45dc)" d="M 231.796009 291.28 
L 231.796009 287.525086 
L 234.261591 287.525086 
L 234.261591 283.770171 
L 238.958552 283.770171 
L 238.958552 280.015257 
L 240.247396 280.015257 
L 240.247396 276.260342 
L 240.56612 276.260342 
L 240.56612 272.505428 
L 241.514114 272.505428 
L 241.514114 268.750513 
L 243.374325 268.750513 
L 243.374325 264.995599 
L 243.679851 264.995599 
L 243.679851 261.240684 
L 245.486908 261.240684 
L 245.486908 257.48577 
L 251.209502 257.48577 
L 251.209502 253.730855 
L 252.573394 253.730855 
L 252.573394 249.975941 
L 257.790016 249.975941 
L 257.790016 246.221026 
L 259.532058 246.221026 
L 259.532058 242.466112 
L 262.662048 242.466112 
L 262.662048 238.711197 
L 265.210588 238.711197 
L 265.210588 234.956283 
L 415.619568 234.956283 
L 415.619568 231.201368 
L 419.490169 231.201368 
L 419.490169 227.446454 
L 419.967014 227.446454 
L 419.967014 223.691539 
L 420.662705 223.691539 
L 420.662705 219.936625 
L 420.966744 219.936625 
L 420.966744 216.18171 
L 422.197653 216.18171 
L 422.197653 212.426796 
L 422.278988 212.426796 
L 422.278988 208.671881 
L 422.980162 208.671881 
L 422.980162 204.916967 
L 423.54167 204.916967 
L 423.54167 201.162052 
L 424.283761 201.162052 
L 424.283761 197.407138 
L 424.652027 197.407138 
L 424.652027 193.652223 
L 425.279094 193.652223 
L 425.279094 189.897309 
L 426.235501 189.897309 
L 426.235501 186.142394 
L 426.338158 186.142394 
L 426.338158 182.38748 
L 430.888212 182.38748 
L 430.888212 178.632565 
L 461.8 178.632565 
" style="fill:none;stroke:#f5deb3;stroke-linecap:square;stroke-width:1.5;"/>
   </g>
   <g id="line2d_10">
    <path clip-path="url(#pc45bbe45dc)" d="M 287.790939 291.28 
L 287.790939 287.525086 
L 290.102051 287.525086 
L 290.102051 283.770171 
L 300.258694 283.770171 
L 300.258694 280.015257 
L 300.258694 280.015257 
L 300.258694 276.260342 
L 305.716595 276.260342 
L 305.716595 272.505428 
L 314.275514 272.505428 
L 314.275514 268.750513 
L 320.127349 268.750513 
L 320.127349 264.995599 
L 461.8 264.995599 
" style="fill:none;stroke:#f5deb3;stroke-linecap:square;stroke-width:1.5;"/>
   </g>
   <g id="line2d_11">
    <path clip-path="url(#pc45bbe45dc)" d="M 175.459499 291.28 
L 175.459499 287.525086 
L 186.833426 287.525086 
L 186.833426 283.770171 
L 188.78379 283.770171 
L 188.78379 280.015257 
L 190.055968 280.015257 
L 190.055968 276.260342 
L 191.924029 276.260342 
L 191.924029 272.505428 
L 193.74596 272.505428 
L 193.74596 268.750513 
L 198.395339 268.750513 
L 198.395339 264.995599 
L 203.297955 264.995599 
L 203.297955 261.240684 
L 203.823114 261.240684 
L 203.823114 257.48577 
L 206.897912 257.48577 
L 206.897912 253.730855 
L 213.150499 253.730855 
L 213.150499 249.975941 
L 219.762485 249.975941 
L 219.762485 246.221026 
L 220.18291 246.221026 
L 220.18291 242.466112 
L 232.862791 242.466112 
L 232.862791 238.711197 
L 243.679851 238.711197 
L 243.679851 234.956283 
L 370.345468 234.956283 
L 370.345468 231.201368 
L 371.378957 231.201368 
L 371.378957 227.446454 
L 373.087502 227.446454 
L 373.087502 223.691539 
L 373.245668 223.691539 
L 373.245668 219.936625 
L 375.117679 219.936625 
L 375.117679 216.18171 
L 375.527309 216.18171 
L 375.527309 212.426796 
L 377.043482 212.426796 
L 377.043482 208.671881 
L 377.740506 208.671881 
L 377.740506 204.916967 
L 377.889016 204.916967 
L 377.889016 201.162052 
L 379.357899 201.162052 
L 379.357899 197.407138 
L 379.889247 197.407138 
L 379.889247 193.652223 
L 380.273292 193.652223 
L 380.273292 189.897309 
L 381.319223 189.897309 
L 381.319223 186.142394 
L 382.582927 186.142394 
L 382.582927 182.38748 
L 383.870968 182.38748 
L 383.870968 178.632565 
L 383.870968 178.632565 
L 383.870968 178.632565 
L 450.672 178.632565 
" style="fill:none;stroke:#f5deb3;stroke-linecap:square;stroke-width:1.5;"/>
   </g>
   <g id="line2d_12">
    <path clip-path="url(#pc45bbe45dc)" d="M 116.199642 291.28 
L 116.199642 287.525086 
L 116.199642 287.525086 
L 116.199642 283.770171 
L 116.199642 283.770171 
L 116.199642 280.015257 
L 116.199642 280.015257 
L 116.199642 276.260342 
L 116.199642 276.260342 
L 116.199642 272.505428 
L 116.199642 272.505428 
L 116.199642 268.750513 
L 116.199642 268.750513 
L 116.199642 264.995599 
L 116.199642 264.995599 
L 116.199642 261.240684 
L 116.199642 261.240684 
L 116.199642 257.48577 
L 116.199642 257.48577 
L 116.199642 253.730855 
L 116.199642 253.730855 
L 116.199642 249.975941 
L 116.199642 249.975941 
L 116.199642 246.221026 
L 116.199642 246.221026 
L 116.199642 242.466112 
L 116.199642 242.466112 
L 116.199642 238.711197 
L 116.199642 238.711197 
L 116.199642 234.956283 
L 166.480155 234.956283 
L 166.480155 231.201368 
L 182.770869 231.201368 
L 182.770869 227.446454 
L 182.770869 227.446454 
L 182.770869 223.691539 
L 182.770869 223.691539 
L 182.770869 219.936625 
L 182.770869 219.936625 
L 182.770869 216.18171 
L 182.770869 216.18171 
L 182.770869 212.426796 
L 182.770869 212.426796 
L 182.770869 208.671881 
L 182.770869 208.671881 
L 182.770869 204.916967 
L 182.770869 204.916967 
L 182.770869 201.162052 
L 182.770869 201.162052 
L 182.770869 197.407138 
L 196.107265 197.407138 
L 196.107265 193.652223 
L 196.107265 193.652223 
L 196.107265 189.897309 
L 196.107265 189.897309 
L 196.107265 186.142394 
L 196.107265 186.142394 
L 196.107265 182.38748 
L 217.188347 182.38748 
L 217.188347 178.632565 
L 461.8 178.632565 
" style="fill:none;stroke:#f5deb3;stroke-linecap:square;stroke-width:1.5;"/>
   </g>
   <g id="line2d_13">
    <path clip-path="url(#pc45bbe45dc)" d="M 394.076085 291.28 
L 394.076085 287.525086 
L 394.076085 287.525086 
L 394.076085 283.770171 
L 395.257923 283.770171 
L 395.257923 280.015257 
L 395.257923 280.015257 
L 395.257923 276.260342 
L 397.034087 276.260342 
L 397.034087 272.505428 
L 397.224597 272.505428 
L 397.224597 268.750513 
L 397.224597 268.750513 
L 397.224597 264.995599 
L 397.224597 264.995599 
L 397.224597 261.240684 
L 398.244936 261.240684 
L 398.244936 257.48577 
L 401.259968 257.48577 
L 401.259968 253.730855 
L 401.259968 253.730855 
L 401.259968 249.975941 
L 401.259968 249.975941 
L 401.259968 246.221026 
L 401.403938 246.221026 
L 401.403938 242.466112 
L 401.403938 242.466112 
L 401.403938 238.711197 
L 401.403938 238.711197 
L 401.403938 234.956283 
L 401.403938 234.956283 
L 401.403938 234.956283 
L 450.672 234.956283 
" style="fill:none;stroke:#f5deb3;stroke-linecap:square;stroke-width:1.5;"/>
   </g>
   <g id="line2d_14">
    <path clip-path="url(#pc45bbe45dc)" d="M 213.610217 291.28 
L 213.610217 287.525086 
L 215.866798 287.525086 
L 215.866798 283.770171 
L 217.188347 283.770171 
L 217.188347 280.015257 
L 218.914378 280.015257 
L 218.914378 276.260342 
L 219.33965 276.260342 
L 219.33965 272.505428 
L 219.33965 272.505428 
L 219.33965 268.750513 
L 219.762485 268.750513 
L 219.762485 264.995599 
L 220.18291 264.995599 
L 220.18291 261.240684 
L 221.016642 261.240684 
L 221.016642 257.48577 
L 221.016642 257.48577 
L 221.016642 253.730855 
L 221.016642 253.730855 
L 221.016642 249.975941 
L 221.016642 249.975941 
L 221.016642 246.221026 
L 221.430002 246.221026 
L 221.430002 242.466112 
L 221.841058 242.466112 
L 221.841058 238.711197 
L 221.841058 238.711197 
L 221.841058 234.956283 
L 325.649441 234.956283 
L 325.649441 231.201368 
L 327.140087 231.201368 
L 327.140087 227.446454 
L 329.273295 227.446454 
L 329.273295 223.691539 
L 330.033966 223.691539 
L 330.033966 219.936625 
L 330.693181 219.936625 
L 330.693181 216.18171 
L 334.172498 216.18171 
L 334.172498 212.426796 
L 334.440319 212.426796 
L 334.440319 208.671881 
L 334.618327 208.671881 
L 334.618327 204.916967 
L 335.326097 204.916967 
L 335.326097 201.162052 
L 336.375183 201.162052 
L 336.375183 197.407138 
L 336.635141 197.407138 
L 336.635141 193.652223 
L 336.807938 193.652223 
L 336.807938 189.897309 
L 338.59829 189.897309 
L 338.59829 186.142394 
L 339.101941 186.142394 
L 339.101941 182.38748 
L 339.435808 182.38748 
L 339.435808 178.632565 
L 352.317034 178.632565 
L 352.317034 174.877651 
L 356.728454 174.877651 
L 356.728454 171.122736 
L 357.253613 171.122736 
L 357.253613 167.367822 
L 359.381229 167.367822 
L 359.381229 163.612907 
L 359.950996 163.612907 
L 359.950996 159.857993 
L 360.641455 159.857993 
L 360.641455 156.103079 
L 361.819057 156.103079 
L 361.819057 152.348164 
L 363.099117 152.348164 
L 363.099117 148.59325 
L 363.640988 148.59325 
L 363.640988 144.838335 
L 366.580998 144.838335 
L 366.580998 141.083421 
L 375.731275 141.083421 
L 375.731275 137.328506 
L 379.21232 137.328506 
L 379.21232 133.573592 
L 384.416176 133.573592 
L 384.416176 129.818677 
L 461.8 129.818677 
" style="fill:none;stroke:#f5deb3;stroke-linecap:square;stroke-width:1.5;"/>
   </g>
   <g id="line2d_15"/>
   <g id="line2d_16">
    <path clip-path="url(#pc45bbe45dc)" d="M 409.597414 291.28 
L 409.597414 287.525086 
L 410.20628 287.525086 
L 410.20628 283.770171 
L 411.597288 283.770171 
L 411.597288 280.015257 
L 412.220998 280.015257 
L 412.220998 276.260342 
L 417.724497 276.260342 
L 417.724497 272.505428 
L 422.387296 272.505428 
L 422.387296 268.750513 
L 425.357104 268.750513 
L 425.357104 264.995599 
L 427.634662 264.995599 
L 427.634662 261.240684 
L 428.735197 261.240684 
L 428.735197 257.48577 
L 429.106659 257.48577 
L 429.106659 253.730855 
L 430.501399 253.730855 
L 430.501399 249.975941 
L 431.032746 249.975941 
L 431.032746 246.221026 
L 435.808223 246.221026 
L 435.808223 242.466112 
L 437.26006 242.466112 
L 437.26006 238.711197 
L 451.824763 238.711197 
L 451.824763 234.956283 
L 461.8 234.956283 
L 461.8 234.956283 
" style="fill:none;stroke:#f5deb3;stroke-linecap:square;stroke-width:1.5;"/>
   </g>
   <g id="line2d_17">
    <path clip-path="url(#pc45bbe45dc)" d="M 445.437677 291.28 
L 445.437677 287.525086 
L 453.971892 287.525086 
L 453.971892 283.770171 
L 453.971892 283.770171 
L 453.971892 280.015257 
L 454.148031 280.015257 
L 454.148031 276.260342 
L 457.786514 276.260342 
L 457.786514 272.505428 
L 461.8 272.505428 
" style="fill:none;stroke:#f5deb3;stroke-linecap:square;stroke-width:1.5;"/>
   </g>
   <g id="line2d_18">
    <path clip-path="url(#pc45bbe45dc)" d="M 116.199642 291.28 
L 116.199642 287.525086 
L 116.199642 287.525086 
L 116.199642 283.770171 
L 116.199642 283.770171 
L 116.199642 280.015257 
L 116.199642 280.015257 
L 116.199642 276.260342 
L 116.199642 276.260342 
L 116.199642 272.505428 
L 116.199642 272.505428 
L 116.199642 268.750513 
L 116.199642 268.750513 
L 116.199642 264.995599 
L 116.199642 264.995599 
L 116.199642 261.240684 
L 117.895911 261.240684 
L 117.895911 257.48577 
L 117.895911 257.48577 
L 117.895911 253.730855 
L 117.895911 253.730855 
L 117.895911 249.975941 
L 117.895911 249.975941 
L 117.895911 246.221026 
L 117.895911 246.221026 
L 117.895911 242.466112 
L 117.895911 242.466112 
L 117.895911 238.711197 
L 121.175761 238.711197 
L 121.175761 234.956283 
L 122.762585 234.956283 
L 122.762585 231.201368 
L 122.762585 231.201368 
L 122.762585 227.446454 
L 127.328029 227.446454 
L 127.328029 223.691539 
L 128.789155 223.691539 
L 128.789155 219.936625 
L 131.62737 219.936625 
L 131.62737 216.18171 
L 139.540425 216.18171 
L 139.540425 212.426796 
L 140.780529 212.426796 
L 140.780529 208.671881 
L 140.780529 208.671881 
L 140.780529 204.916967 
L 144.380486 204.916967 
L 144.380486 201.162052 
L 159.186867 201.162052 
L 159.186867 197.407138 
L 160.138938 197.407138 
L 160.138938 193.652223 
L 160.138938 193.652223 
L 160.138938 189.897309 
L 165.606956 189.897309 
L 165.606956 186.142394 
L 167.343141 186.142394 
L 167.343141 182.38748 
L 169.873142 182.38748 
L 169.873142 178.632565 
L 461.8 178.632565 
" style="fill:none;stroke:#f5deb3;stroke-linecap:square;stroke-width:1.5;"/>
   </g>
   <g id="line2d_19">
    <path clip-path="url(#pc45bbe45dc)" style="fill:none;stroke:#f5deb3;stroke-linecap:square;stroke-width:1.5;"/>
   </g>
   <g id="line2d_20">
    <path clip-path="url(#pc45bbe45dc)" d="M 210.330367 291.28 
L 210.330367 287.525086 
L 219.762485 287.525086 
L 219.762485 283.770171 
L 220.600954 283.770171 
L 220.600954 280.015257 
L 226.217701 280.015257 
L 226.217701 276.260342 
L 236.982064 276.260342 
L 236.982064 272.505428 
L 241.199467 272.505428 
L 241.199467 268.750513 
L 243.067528 268.750513 
L 243.067528 264.995599 
L 243.984117 264.995599 
L 243.984117 261.240684 
L 252.302625 261.240684 
L 252.302625 257.48577 
L 255.747409 257.48577 
L 255.747409 253.730855 
L 258.041412 253.730855 
L 258.041412 249.975941 
L 261.473866 249.975941 
L 261.473866 246.221026 
L 264.753716 246.221026 
L 264.753716 242.466112 
L 269.844319 242.466112 
L 269.844319 238.711197 
L 282.400277 238.711197 
L 282.400277 234.956283 
L 382.164093 234.956283 
L 382.164093 231.201368 
L 383.870968 231.201368 
L 383.870968 227.446454 
L 387.083375 227.446454 
L 387.083375 223.691539 
L 387.821878 223.691539 
L 387.821878 219.936625 
L 392.753819 219.936625 
L 392.753819 216.18171 
L 395.803035 216.18171 
L 395.803035 212.426796 
L 395.803035 212.426796 
L 395.803035 208.671881 
L 396.18995 208.671881 
L 396.18995 204.916967 
L 396.18995 204.916967 
L 396.18995 201.162052 
L 396.382649 201.162052 
L 396.382649 197.407138 
L 396.957745 197.407138 
L 396.957745 193.652223 
L 400.89881 193.652223 
L 400.89881 189.897309 
L 401.726846 189.897309 
L 401.726846 186.142394 
L 403.913735 186.142394 
L 403.913735 182.38748 
L 414.544147 182.38748 
L 414.544147 178.632565 
L 461.8 178.632565 
" style="fill:none;stroke:#f5deb3;stroke-linecap:square;stroke-width:1.5;"/>
   </g>
   <g id="line2d_21">
    <path clip-path="url(#pc45bbe45dc)" d="M 0 0 
" style="fill:none;stroke:#f5deb3;stroke-linecap:square;stroke-width:1.5;"/>
   </g>
   <g id="line2d_22">
    <path clip-path="url(#pc45bbe45dc)" d="M 245.188789 291.28 
L 245.188789 287.525086 
L 250.656806 287.525086 
L 250.656806 283.770171 
L 258.041412 283.770171 
L 258.041412 280.015257 
L 262.425937 280.015257 
L 262.425937 276.260342 
L 267.674031 276.260342 
L 267.674031 272.505428 
L 272.573501 272.505428 
L 272.573501 268.750513 
L 272.779316 268.750513 
L 272.779316 264.995599 
L 273.799864 264.995599 
L 273.799864 261.240684 
L 275.602017 261.240684 
L 275.602017 257.48577 
L 276.193084 257.48577 
L 276.193084 253.730855 
L 281.492708 253.730855 
L 281.492708 249.975941 
L 281.857076 249.975941 
L 281.857076 246.221026 
L 283.11838 246.221026 
L 283.11838 242.466112 
L 289.449087 242.466112 
L 289.449087 238.711197 
L 314.040905 238.711197 
L 314.040905 234.956283 
L 388.295823 234.956283 
L 388.295823 231.201368 
L 401.475817 231.201368 
L 401.475817 227.446454 
L 401.475817 227.446454 
L 401.475817 223.691539 
L 402.651832 223.691539 
L 402.651832 219.936625 
L 403.774585 219.936625 
L 403.774585 216.18171 
L 404.914803 216.18171 
L 404.914803 212.426796 
L 409.371823 212.426796 
L 409.371823 208.671881 
L 409.75813 208.671881 
L 409.75813 204.916967 
L 410.174359 204.916967 
L 410.174359 201.162052 
L 411.251986 201.162052 
L 411.251986 197.407138 
L 413.635833 197.407138 
L 413.635833 193.652223 
L 419.377521 193.652223 
L 419.377521 189.897309 
L 419.911074 189.897309 
L 419.911074 186.142394 
L 423.24808 186.142394 
L 423.24808 182.38748 
L 427.710223 182.38748 
L 427.710223 178.632565 
L 451.3512 178.632565 
L 451.3512 174.877651 
L 454.621516 174.877651 
L 454.621516 171.122736 
L 461.525096 171.122736 
L 461.525096 167.367822 
L 461.8 167.367822 
" style="fill:none;stroke:#f5deb3;stroke-linecap:square;stroke-width:1.5;"/>
   </g>
   <g id="line2d_23">
    <path clip-path="url(#pc45bbe45dc)" d="M 320.343409 291.28 
L 320.343409 287.525086 
L 332.909652 287.525086 
L 332.909652 283.770171 
L 335.589771 283.770171 
L 335.589771 280.015257 
L 336.894185 280.015257 
L 336.894185 276.260342 
L 339.101941 276.260342 
L 339.101941 272.505428 
L 342.614206 272.505428 
L 342.614206 268.750513 
L 345.431346 268.750513 
L 345.431346 264.995599 
L 361.880518 264.995599 
L 361.880518 261.240684 
L 461.8 261.240684 
" style="fill:none;stroke:#f5deb3;stroke-linecap:square;stroke-width:1.5;"/>
   </g>
   <g id="line2d_24">
    <path clip-path="url(#pc45bbe45dc)" d="M 400.608605 291.28 
L 400.608605 287.525086 
L 410.142425 287.525086 
L 410.142425 283.770171 
L 425.435032 283.770171 
L 425.435032 280.015257 
L 425.512877 280.015257 
L 425.512877 276.260342 
L 425.538807 276.260342 
L 425.538807 272.505428 
L 429.819558 272.505428 
L 429.819558 268.750513 
L 432.533499 268.750513 
L 432.533499 264.995599 
L 432.674849 264.995599 
L 432.674849 261.240684 
L 438.878877 261.240684 
L 438.878877 257.48577 
L 439.245804 257.48577 
L 439.245804 253.730855 
L 444.781457 253.730855 
L 444.781457 249.975941 
L 444.921144 249.975941 
L 444.921144 246.221026 
L 450.265167 246.221026 
L 450.265167 242.466112 
L 455.352061 242.466112 
L 455.352061 238.711197 
L 455.421261 238.711197 
L 455.421261 234.956283 
L 461.8 234.956283 
" style="fill:none;stroke:#f5deb3;stroke-linecap:square;stroke-width:1.5;"/>
   </g>
   <g id="line2d_25">
    <path clip-path="url(#pc45bbe45dc)" d="M 328.5047 291.28 
L 328.5047 287.525086 
L 333.000576 287.525086 
L 333.000576 283.770171 
L 333.903702 283.770171 
L 333.903702 280.015257 
L 335.326097 280.015257 
L 335.326097 276.260342 
L 352.036751 276.260342 
L 352.036751 272.505428 
L 353.908322 272.505428 
L 353.908322 268.750513 
L 354.317858 268.750513 
L 354.317858 264.995599 
L 359.57164 264.995599 
L 359.57164 261.240684 
L 369.62991 261.240684 
L 369.62991 257.48577 
L 376.440746 257.48577 
L 376.440746 253.730855 
L 377.987857 253.730855 
L 377.987857 249.975941 
L 385.136909 249.975941 
L 385.136909 246.221026 
L 386.29329 246.221026 
L 386.29329 242.466112 
L 390.953111 242.466112 
L 390.953111 238.711197 
L 461.8 238.711197 
" style="fill:none;stroke:#f5deb3;stroke-linecap:square;stroke-width:1.5;"/>
   </g>
   <g id="line2d_26">
    <path clip-path="url(#pc45bbe45dc)" d="M 384.053152 291.28 
L 384.053152 287.525086 
L 385.226508 287.525086 
L 385.226508 283.770171 
L 389.404103 283.770171 
L 389.404103 280.015257 
L 390.412563 280.015257 
L 390.412563 276.260342 
L 390.579307 276.260342 
L 390.579307 272.505428 
L 390.953111 272.505428 
L 390.953111 268.750513 
L 390.994528 268.750513 
L 390.994528 264.995599 
L 392.10409 264.995599 
L 392.10409 261.240684 
L 392.10409 261.240684 
L 392.10409 257.48577 
L 393.518015 257.48577 
L 393.518015 253.730855 
L 394.944612 253.730855 
L 394.944612 249.975941 
L 395.686564 249.975941 
L 395.686564 246.221026 
L 397.376652 246.221026 
L 397.376652 242.466112 
L 397.717633 242.466112 
L 397.717633 238.711197 
L 416.151457 238.711197 
L 416.151457 234.956283 
L 461.8 234.956283 
" style="fill:none;stroke:#f5deb3;stroke-linecap:square;stroke-width:1.5;"/>
   </g>
   <g id="line2d_27">
    <path clip-path="url(#pc45bbe45dc)" d="M 322.679227 291.28 
L 322.679227 287.525086 
L 322.679227 287.525086 
L 322.679227 283.770171 
L 327.825548 283.770171 
L 327.825548 280.015257 
L 329.93931 280.015257 
L 329.93931 276.260342 
L 332.727468 276.260342 
L 332.727468 272.505428 
L 347.101437 272.505428 
L 347.101437 268.750513 
L 354.453866 268.750513 
L 354.453866 264.995599 
L 354.521776 264.995599 
L 354.521776 261.240684 
L 354.92793 261.240684 
L 354.92793 257.48577 
L 358.034408 257.48577 
L 358.034408 253.730855 
L 363.219877 253.730855 
L 363.219877 249.975941 
L 370.454941 249.975941 
L 370.454941 246.221026 
L 375.985441 246.221026 
L 375.985441 242.466112 
L 376.541545 242.466112 
L 376.541545 238.711197 
L 382.397072 238.711197 
L 382.397072 234.956283 
L 401.259968 234.956283 
L 401.259968 231.201368 
L 407.043837 231.201368 
L 407.043837 227.446454 
L 407.343031 227.446454 
L 407.343031 223.691539 
L 407.674052 223.691539 
L 407.674052 219.936625 
L 407.871954 219.936625 
L 407.871954 216.18171 
L 408.069327 216.18171 
L 408.069327 212.426796 
L 408.069327 212.426796 
L 408.069327 208.671881 
L 408.29893 208.671881 
L 408.29893 204.916967 
L 408.788543 204.916967 
L 408.788543 201.162052 
L 409.015922 201.162052 
L 409.015922 197.407138 
L 409.339539 197.407138 
L 409.339539 193.652223 
L 410.96826 193.652223 
L 410.96826 189.897309 
L 411.031405 189.897309 
L 411.031405 186.142394 
L 411.659896 186.142394 
L 411.659896 182.38748 
L 412.993294 182.38748 
L 412.993294 178.632565 
L 461.8 178.632565 
" style="fill:none;stroke:#f5deb3;stroke-linecap:square;stroke-width:1.5;"/>
   </g>
   <g id="line2d_28">
    <path clip-path="url(#pc45bbe45dc)" d="M 278.701033 291.28 
L 278.701033 287.525086 
L 278.890467 287.525086 
L 278.890467 283.770171 
L 279.079416 283.770171 
L 279.079416 280.015257 
L 279.267882 280.015257 
L 279.267882 276.260342 
L 286.437058 276.260342 
L 286.437058 272.505428 
L 286.437058 272.505428 
L 286.437058 268.750513 
L 286.437058 268.750513 
L 286.437058 264.995599 
L 286.437058 264.995599 
L 286.437058 261.240684 
L 286.607658 261.240684 
L 286.607658 257.48577 
L 293.438409 257.48577 
L 293.438409 253.730855 
L 293.438409 253.730855 
L 293.438409 249.975941 
L 293.90295 249.975941 
L 293.90295 246.221026 
L 300.541393 246.221026 
L 300.541393 242.466112 
L 305.848001 242.466112 
L 305.848001 238.711197 
L 316.694894 238.711197 
L 316.694894 234.956283 
L 461.8 234.956283 
" style="fill:none;stroke:#f5deb3;stroke-linecap:square;stroke-width:1.5;"/>
   </g>
   <g id="line2d_29">
    <path clip-path="url(#pc45bbe45dc)" d="M 110.8635 291.28 
L 110.8635 287.525086 
L 110.8635 287.525086 
L 110.8635 283.770171 
L 110.8635 283.770171 
L 110.8635 280.015257 
L 110.8635 280.015257 
L 110.8635 276.260342 
L 110.8635 276.260342 
L 110.8635 272.505428 
L 110.8635 272.505428 
L 110.8635 268.750513 
L 112.685431 268.750513 
L 112.685431 264.995599 
L 112.685431 264.995599 
L 112.685431 261.240684 
L 112.685431 261.240684 
L 112.685431 257.48577 
L 112.685431 257.48577 
L 112.685431 253.730855 
L 112.685431 253.730855 
L 112.685431 249.975941 
L 112.685431 249.975941 
L 112.685431 246.221026 
L 112.685431 246.221026 
L 112.685431 242.466112 
L 112.685431 242.466112 
L 112.685431 238.711197 
L 112.685431 238.711197 
L 112.685431 234.956283 
L 147.81294 234.956283 
L 147.81294 231.201368 
L 147.81294 231.201368 
L 147.81294 227.446454 
L 147.81294 227.446454 
L 147.81294 223.691539 
L 271.116497 223.691539 
L 271.116497 219.936625 
L 271.116497 219.936625 
L 271.116497 216.18171 
L 271.116497 216.18171 
L 271.116497 212.426796 
L 272.160142 212.426796 
L 272.160142 208.671881 
L 272.160142 208.671881 
L 272.160142 204.916967 
L 272.160142 204.916967 
L 272.160142 201.162052 
L 272.984558 201.162052 
L 272.984558 197.407138 
L 272.984558 197.407138 
L 272.984558 193.652223 
L 272.984558 193.652223 
L 272.984558 189.897309 
L 273.393337 189.897309 
L 273.393337 186.142394 
L 273.393337 186.142394 
L 273.393337 182.38748 
L 273.393337 182.38748 
L 273.393337 178.632565 
L 273.393337 178.632565 
L 273.393337 178.632565 
L 450.672 178.632565 
" style="fill:none;stroke:#f5deb3;stroke-linecap:square;stroke-width:1.5;"/>
   </g>
   <g id="line2d_30">
    <path clip-path="url(#pc45bbe45dc)" d="M 273.18923 291.28 
L 273.18923 287.525086 
L 273.18923 287.525086 
L 273.18923 283.770171 
L 274.204164 283.770171 
L 274.204164 280.015257 
L 275.996587 280.015257 
L 275.996587 276.260342 
L 276.779454 276.260342 
L 276.779454 272.505428 
L 276.779454 272.505428 
L 276.779454 268.750513 
L 277.938396 268.750513 
L 277.938396 264.995599 
L 278.3207 264.995599 
L 278.3207 261.240684 
L 278.511111 261.240684 
L 278.511111 257.48577 
L 278.701033 257.48577 
L 278.701033 253.730855 
L 279.267882 253.730855 
L 279.267882 249.975941 
L 280.38868 249.975941 
L 280.38868 246.221026 
L 281.309847 246.221026 
L 281.309847 242.466112 
L 281.492708 242.466112 
L 281.492708 238.711197 
L 283.11838 238.711197 
L 283.11838 234.956283 
L 283.474828 234.956283 
L 283.474828 231.201368 
L 284.006291 231.201368 
L 284.006291 227.446454 
L 285.231684 227.446454 
L 285.231684 223.691539 
L 285.750686 223.691539 
L 285.750686 219.936625 
L 286.437058 219.936625 
L 286.437058 216.18171 
L 287.623056 216.18171 
L 287.623056 212.426796 
L 288.125563 212.426796 
L 288.125563 208.671881 
L 289.776292 208.671881 
L 289.776292 204.916967 
L 291.55043 204.916967 
L 291.55043 201.162052 
L 292.026973 201.162052 
L 292.026973 197.407138 
L 292.342967 197.407138 
L 292.342967 193.652223 
L 293.593581 193.652223 
L 293.593581 189.897309 
L 294.517825 189.897309 
L 294.517825 186.142394 
L 294.823351 186.142394 
L 294.823351 182.38748 
L 311.165821 182.38748 
L 311.165821 178.632565 
L 316.808147 178.632565 
L 316.808147 174.877651 
L 316.808147 174.877651 
L 316.808147 171.122736 
L 316.808147 171.122736 
L 316.808147 167.367822 
L 316.808147 167.367822 
L 316.808147 163.612907 
L 316.808147 163.612907 
L 316.808147 159.857993 
L 316.808147 159.857993 
L 316.808147 156.103079 
L 316.808147 156.103079 
L 316.808147 152.348164 
L 316.808147 152.348164 
L 316.808147 148.59325 
L 316.808147 148.59325 
L 316.808147 144.838335 
L 316.808147 144.838335 
L 316.808147 141.083421 
L 316.808147 141.083421 
L 316.808147 137.328506 
L 316.808147 137.328506 
L 316.808147 133.573592 
L 316.808147 133.573592 
L 316.808147 129.818677 
L 316.808147 129.818677 
L 316.808147 126.063763 
L 316.808147 126.063763 
L 316.808147 122.308848 
L 316.808147 122.308848 
L 316.808147 122.308848 
L 450.672 122.308848 
" style="fill:none;stroke:#f5deb3;stroke-linecap:square;stroke-width:1.5;"/>
   </g>
   <g id="matplotlib.axis_1">
    <g id="xtick_1">
     <g id="line2d_31">
      <path clip-path="url(#pc45bbe45dc)" d="M 229.615028 291.28 
L 229.615028 6.845228 
" style="fill:none;stroke:#b0b0b0;stroke-linecap:square;stroke-width:0.8;"/>
     </g>
     <g id="line2d_32">
      <defs>
       <path d="M 0 0 
L 0 3.5 
" id="m724f80db31" style="stroke:#000000;stroke-width:0.8;"/>
      </defs>
      <g>
       <use style="stroke:#000000;stroke-width:0.8;" x="229.615028" xlink:href="#m724f80db31" y="291.28"/>
      </g>
     </g>
     <g id="text_1">
      <!-- 1 -->
      <defs>
       <path d="M 12.40625 8.296875 
L 28.515625 8.296875 
L 28.515625 63.921875 
L 10.984375 60.40625 
L 10.984375 69.390625 
L 28.421875 72.90625 
L 38.28125 72.90625 
L 38.28125 8.296875 
L 54.390625 8.296875 
L 54.390625 0 
L 12.40625 0 
z
" id="DejaVuSans-31"/>
      </defs>
      <g transform="translate(223.252528 313.476875)scale(0.2 -0.2)">
       <use xlink:href="#DejaVuSans-31"/>
      </g>
     </g>
    </g>
    <g id="xtick_2">
     <g id="line2d_33">
      <defs>
       <path d="M 0 0 
L 0 2 
" id="m4f28cfb5b7" style="stroke:#000000;stroke-width:0.6;"/>
      </defs>
      <g>
       <use style="stroke:#000000;stroke-width:0.6;" x="110.8635" xlink:href="#m4f28cfb5b7" y="291.28"/>
      </g>
     </g>
    </g>
    <g id="xtick_3">
     <g id="line2d_34">
      <g>
       <use style="stroke:#000000;stroke-width:0.6;" x="140.780529" xlink:href="#m4f28cfb5b7" y="291.28"/>
      </g>
     </g>
    </g>
    <g id="xtick_4">
     <g id="line2d_35">
      <g>
       <use style="stroke:#000000;stroke-width:0.6;" x="162.006999" xlink:href="#m4f28cfb5b7" y="291.28"/>
      </g>
     </g>
    </g>
    <g id="xtick_5">
     <g id="line2d_36">
      <g>
       <use style="stroke:#000000;stroke-width:0.6;" x="178.471529" xlink:href="#m4f28cfb5b7" y="291.28"/>
      </g>
     </g>
    </g>
    <g id="xtick_6">
     <g id="line2d_37">
      <g>
       <use style="stroke:#000000;stroke-width:0.6;" x="191.924029" xlink:href="#m4f28cfb5b7" y="291.28"/>
      </g>
     </g>
    </g>
    <g id="xtick_7">
     <g id="line2d_38">
      <g>
       <use style="stroke:#000000;stroke-width:0.6;" x="203.297955" xlink:href="#m4f28cfb5b7" y="291.28"/>
      </g>
     </g>
    </g>
    <g id="xtick_8">
     <g id="line2d_39">
      <g>
       <use style="stroke:#000000;stroke-width:0.6;" x="213.150499" xlink:href="#m4f28cfb5b7" y="291.28"/>
      </g>
     </g>
    </g>
    <g id="xtick_9">
     <g id="line2d_40">
      <g>
       <use style="stroke:#000000;stroke-width:0.6;" x="221.841058" xlink:href="#m4f28cfb5b7" y="291.28"/>
      </g>
     </g>
    </g>
    <g id="xtick_10">
     <g id="line2d_41">
      <g>
       <use style="stroke:#000000;stroke-width:0.6;" x="280.758528" xlink:href="#m4f28cfb5b7" y="291.28"/>
      </g>
     </g>
    </g>
    <g id="xtick_11">
     <g id="line2d_42">
      <g>
       <use style="stroke:#000000;stroke-width:0.6;" x="310.675557" xlink:href="#m4f28cfb5b7" y="291.28"/>
      </g>
     </g>
    </g>
    <g id="xtick_12">
     <g id="line2d_43">
      <g>
       <use style="stroke:#000000;stroke-width:0.6;" x="331.902028" xlink:href="#m4f28cfb5b7" y="291.28"/>
      </g>
     </g>
    </g>
    <g id="xtick_13">
     <g id="line2d_44">
      <g>
       <use style="stroke:#000000;stroke-width:0.6;" x="348.366557" xlink:href="#m4f28cfb5b7" y="291.28"/>
      </g>
     </g>
    </g>
    <g id="xtick_14">
     <g id="line2d_45">
      <g>
       <use style="stroke:#000000;stroke-width:0.6;" x="361.819057" xlink:href="#m4f28cfb5b7" y="291.28"/>
      </g>
     </g>
    </g>
    <g id="xtick_15">
     <g id="line2d_46">
      <g>
       <use style="stroke:#000000;stroke-width:0.6;" x="373.192984" xlink:href="#m4f28cfb5b7" y="291.28"/>
      </g>
     </g>
    </g>
    <g id="xtick_16">
     <g id="line2d_47">
      <g>
       <use style="stroke:#000000;stroke-width:0.6;" x="383.045527" xlink:href="#m4f28cfb5b7" y="291.28"/>
      </g>
     </g>
    </g>
    <g id="xtick_17">
     <g id="line2d_48">
      <g>
       <use style="stroke:#000000;stroke-width:0.6;" x="391.736086" xlink:href="#m4f28cfb5b7" y="291.28"/>
      </g>
     </g>
    </g>
    <g id="xtick_18">
     <g id="line2d_49">
      <g>
       <use style="stroke:#000000;stroke-width:0.6;" x="450.653556" xlink:href="#m4f28cfb5b7" y="291.28"/>
      </g>
     </g>
    </g>
    <g id="text_2">
     <!-- log10 of FEvals / DIM -->
     <defs>
      <path d="M 9.421875 75.984375 
L 18.40625 75.984375 
L 18.40625 0 
L 9.421875 0 
z
" id="DejaVuSans-6c"/>
      <path d="M 30.609375 48.390625 
Q 23.390625 48.390625 19.1875 42.75 
Q 14.984375 37.109375 14.984375 27.296875 
Q 14.984375 17.484375 19.15625 11.84375 
Q 23.34375 6.203125 30.609375 6.203125 
Q 37.796875 6.203125 41.984375 11.859375 
Q 46.1875 17.53125 46.1875 27.296875 
Q 46.1875 37.015625 41.984375 42.703125 
Q 37.796875 48.390625 30.609375 48.390625 
z
M 30.609375 56 
Q 42.328125 56 49.015625 48.375 
Q 55.71875 40.765625 55.71875 27.296875 
Q 55.71875 13.875 49.015625 6.21875 
Q 42.328125 -1.421875 30.609375 -1.421875 
Q 18.84375 -1.421875 12.171875 6.21875 
Q 5.515625 13.875 5.515625 27.296875 
Q 5.515625 40.765625 12.171875 48.375 
Q 18.84375 56 30.609375 56 
z
" id="DejaVuSans-6f"/>
      <path d="M 45.40625 27.984375 
Q 45.40625 37.75 41.375 43.109375 
Q 37.359375 48.484375 30.078125 48.484375 
Q 22.859375 48.484375 18.828125 43.109375 
Q 14.796875 37.75 14.796875 27.984375 
Q 14.796875 18.265625 18.828125 12.890625 
Q 22.859375 7.515625 30.078125 7.515625 
Q 37.359375 7.515625 41.375 12.890625 
Q 45.40625 18.265625 45.40625 27.984375 
z
M 54.390625 6.78125 
Q 54.390625 -7.171875 48.1875 -13.984375 
Q 42 -20.796875 29.203125 -20.796875 
Q 24.46875 -20.796875 20.265625 -20.09375 
Q 16.0625 -19.390625 12.109375 -17.921875 
L 12.109375 -9.1875 
Q 16.0625 -11.328125 19.921875 -12.34375 
Q 23.78125 -13.375 27.78125 -13.375 
Q 36.625 -13.375 41.015625 -8.765625 
Q 45.40625 -4.15625 45.40625 5.171875 
L 45.40625 9.625 
Q 42.625 4.78125 38.28125 2.390625 
Q 33.9375 0 27.875 0 
Q 17.828125 0 11.671875 7.65625 
Q 5.515625 15.328125 5.515625 27.984375 
Q 5.515625 40.671875 11.671875 48.328125 
Q 17.828125 56 27.875 56 
Q 33.9375 56 38.28125 53.609375 
Q 42.625 51.21875 45.40625 46.390625 
L 45.40625 54.6875 
L 54.390625 54.6875 
z
" id="DejaVuSans-67"/>
      <path d="M 31.78125 66.40625 
Q 24.171875 66.40625 20.328125 58.90625 
Q 16.5 51.421875 16.5 36.375 
Q 16.5 21.390625 20.328125 13.890625 
Q 24.171875 6.390625 31.78125 6.390625 
Q 39.453125 6.390625 43.28125 13.890625 
Q 47.125 21.390625 47.125 36.375 
Q 47.125 51.421875 43.28125 58.90625 
Q 39.453125 66.40625 31.78125 66.40625 
z
M 31.78125 74.21875 
Q 44.046875 74.21875 50.515625 64.515625 
Q 56.984375 54.828125 56.984375 36.375 
Q 56.984375 17.96875 50.515625 8.265625 
Q 44.046875 -1.421875 31.78125 -1.421875 
Q 19.53125 -1.421875 13.0625 8.265625 
Q 6.59375 17.96875 6.59375 36.375 
Q 6.59375 54.828125 13.0625 64.515625 
Q 19.53125 74.21875 31.78125 74.21875 
z
" id="DejaVuSans-30"/>
      <path id="DejaVuSans-20"/>
      <path d="M 37.109375 75.984375 
L 37.109375 68.5 
L 28.515625 68.5 
Q 23.6875 68.5 21.796875 66.546875 
Q 19.921875 64.59375 19.921875 59.515625 
L 19.921875 54.6875 
L 34.71875 54.6875 
L 34.71875 47.703125 
L 19.921875 47.703125 
L 19.921875 0 
L 10.890625 0 
L 10.890625 47.703125 
L 2.296875 47.703125 
L 2.296875 54.6875 
L 10.890625 54.6875 
L 10.890625 58.5 
Q 10.890625 67.625 15.140625 71.796875 
Q 19.390625 75.984375 28.609375 75.984375 
z
" id="DejaVuSans-66"/>
      <path d="M 9.8125 72.90625 
L 51.703125 72.90625 
L 51.703125 64.59375 
L 19.671875 64.59375 
L 19.671875 43.109375 
L 48.578125 43.109375 
L 48.578125 34.8125 
L 19.671875 34.8125 
L 19.671875 0 
L 9.8125 0 
z
" id="DejaVuSans-46"/>
      <path d="M 9.8125 72.90625 
L 55.90625 72.90625 
L 55.90625 64.59375 
L 19.671875 64.59375 
L 19.671875 43.015625 
L 54.390625 43.015625 
L 54.390625 34.71875 
L 19.671875 34.71875 
L 19.671875 8.296875 
L 56.78125 8.296875 
L 56.78125 0 
L 9.8125 0 
z
" id="DejaVuSans-45"/>
      <path d="M 2.984375 54.6875 
L 12.5 54.6875 
L 29.59375 8.796875 
L 46.6875 54.6875 
L 56.203125 54.6875 
L 35.6875 0 
L 23.484375 0 
z
" id="DejaVuSans-76"/>
      <path d="M 34.28125 27.484375 
Q 23.390625 27.484375 19.1875 25 
Q 14.984375 22.515625 14.984375 16.5 
Q 14.984375 11.71875 18.140625 8.90625 
Q 21.296875 6.109375 26.703125 6.109375 
Q 34.1875 6.109375 38.703125 11.40625 
Q 43.21875 16.703125 43.21875 25.484375 
L 43.21875 27.484375 
z
M 52.203125 31.203125 
L 52.203125 0 
L 43.21875 0 
L 43.21875 8.296875 
Q 40.140625 3.328125 35.546875 0.953125 
Q 30.953125 -1.421875 24.3125 -1.421875 
Q 15.921875 -1.421875 10.953125 3.296875 
Q 6 8.015625 6 15.921875 
Q 6 25.140625 12.171875 29.828125 
Q 18.359375 34.515625 30.609375 34.515625 
L 43.21875 34.515625 
L 43.21875 35.40625 
Q 43.21875 41.609375 39.140625 45 
Q 35.0625 48.390625 27.6875 48.390625 
Q 23 48.390625 18.546875 47.265625 
Q 14.109375 46.140625 10.015625 43.890625 
L 10.015625 52.203125 
Q 14.9375 54.109375 19.578125 55.046875 
Q 24.21875 56 28.609375 56 
Q 40.484375 56 46.34375 49.84375 
Q 52.203125 43.703125 52.203125 31.203125 
z
" id="DejaVuSans-61"/>
      <path d="M 44.28125 53.078125 
L 44.28125 44.578125 
Q 40.484375 46.53125 36.375 47.5 
Q 32.28125 48.484375 27.875 48.484375 
Q 21.1875 48.484375 17.84375 46.4375 
Q 14.5 44.390625 14.5 40.28125 
Q 14.5 37.15625 16.890625 35.375 
Q 19.28125 33.59375 26.515625 31.984375 
L 29.59375 31.296875 
Q 39.15625 29.25 43.1875 25.515625 
Q 47.21875 21.78125 47.21875 15.09375 
Q 47.21875 7.46875 41.1875 3.015625 
Q 35.15625 -1.421875 24.609375 -1.421875 
Q 20.21875 -1.421875 15.453125 -0.5625 
Q 10.6875 0.296875 5.421875 2 
L 5.421875 11.28125 
Q 10.40625 8.6875 15.234375 7.390625 
Q 20.0625 6.109375 24.8125 6.109375 
Q 31.15625 6.109375 34.5625 8.28125 
Q 37.984375 10.453125 37.984375 14.40625 
Q 37.984375 18.0625 35.515625 20.015625 
Q 33.0625 21.96875 24.703125 23.78125 
L 21.578125 24.515625 
Q 13.234375 26.265625 9.515625 29.90625 
Q 5.8125 33.546875 5.8125 39.890625 
Q 5.8125 47.609375 11.28125 51.796875 
Q 16.75 56 26.8125 56 
Q 31.78125 56 36.171875 55.265625 
Q 40.578125 54.546875 44.28125 53.078125 
z
" id="DejaVuSans-73"/>
      <path d="M 25.390625 72.90625 
L 33.6875 72.90625 
L 8.296875 -9.28125 
L 0 -9.28125 
z
" id="DejaVuSans-2f"/>
      <path d="M 19.671875 64.796875 
L 19.671875 8.109375 
L 31.59375 8.109375 
Q 46.6875 8.109375 53.6875 14.9375 
Q 60.6875 21.78125 60.6875 36.53125 
Q 60.6875 51.171875 53.6875 57.984375 
Q 46.6875 64.796875 31.59375 64.796875 
z
M 9.8125 72.90625 
L 30.078125 72.90625 
Q 51.265625 72.90625 61.171875 64.09375 
Q 71.09375 55.28125 71.09375 36.53125 
Q 71.09375 17.671875 61.125 8.828125 
Q 51.171875 0 30.078125 0 
L 9.8125 0 
z
" id="DejaVuSans-44"/>
      <path d="M 9.8125 72.90625 
L 19.671875 72.90625 
L 19.671875 0 
L 9.8125 0 
z
" id="DejaVuSans-49"/>
      <path d="M 9.8125 72.90625 
L 24.515625 72.90625 
L 43.109375 23.296875 
L 61.8125 72.90625 
L 76.515625 72.90625 
L 76.515625 0 
L 66.890625 0 
L 66.890625 64.015625 
L 48.09375 14.015625 
L 38.1875 14.015625 
L 19.390625 64.015625 
L 19.390625 0 
L 9.8125 0 
z
" id="DejaVuSans-4d"/>
     </defs>
     <g transform="translate(150.122563 336.833125)scale(0.2 -0.2)">
      <use xlink:href="#DejaVuSans-6c"/>
      <use x="27.783203" xlink:href="#DejaVuSans-6f"/>
      <use x="88.964844" xlink:href="#DejaVuSans-67"/>
      <use x="152.441406" xlink:href="#DejaVuSans-31"/>
      <use x="216.064453" xlink:href="#DejaVuSans-30"/>
      <use x="279.6875" xlink:href="#DejaVuSans-20"/>
      <use x="311.474609" xlink:href="#DejaVuSans-6f"/>
      <use x="372.65625" xlink:href="#DejaVuSans-66"/>
      <use x="407.861328" xlink:href="#DejaVuSans-20"/>
      <use x="439.648438" xlink:href="#DejaVuSans-46"/>
      <use x="497.167969" xlink:href="#DejaVuSans-45"/>
      <use x="560.351562" xlink:href="#DejaVuSans-76"/>
      <use x="619.53125" xlink:href="#DejaVuSans-61"/>
      <use x="680.810547" xlink:href="#DejaVuSans-6c"/>
      <use x="708.59375" xlink:href="#DejaVuSans-73"/>
      <use x="760.693359" xlink:href="#DejaVuSans-20"/>
      <use x="792.480469" xlink:href="#DejaVuSans-2f"/>
      <use x="826.171875" xlink:href="#DejaVuSans-20"/>
      <use x="857.958984" xlink:href="#DejaVuSans-44"/>
      <use x="934.960938" xlink:href="#DejaVuSans-49"/>
      <use x="964.453125" xlink:href="#DejaVuSans-4d"/>
     </g>
    </g>
   </g>
   <g id="matplotlib.axis_2">
    <g id="ytick_1">
     <g id="line2d_50">
      <path clip-path="url(#pc45bbe45dc)" d="M 59.72 291.28 
L 450.672 291.28 
" style="fill:none;stroke:#b0b0b0;stroke-linecap:square;stroke-width:0.8;"/>
     </g>
     <g id="line2d_51">
      <defs>
       <path d="M 0 0 
L -3.5 0 
" id="m0314e81e8c" style="stroke:#000000;stroke-width:0.8;"/>
      </defs>
      <g>
       <use style="stroke:#000000;stroke-width:0.8;" x="59.72" xlink:href="#m0314e81e8c" y="291.28"/>
      </g>
     </g>
     <g id="text_3">
      <!-- 0.0 -->
      <defs>
       <path d="M 10.6875 12.40625 
L 21 12.40625 
L 21 0 
L 10.6875 0 
z
" id="DejaVuSans-2e"/>
      </defs>
      <g transform="translate(27.275 297.35875)scale(0.16 -0.16)">
       <use xlink:href="#DejaVuSans-30"/>
       <use x="63.623047" xlink:href="#DejaVuSans-2e"/>
       <use x="95.410156" xlink:href="#DejaVuSans-30"/>
      </g>
     </g>
    </g>
    <g id="ytick_2">
     <g id="line2d_52">
      <path clip-path="url(#pc45bbe45dc)" d="M 59.72 234.956283 
L 450.672 234.956283 
" style="fill:none;stroke:#b0b0b0;stroke-linecap:square;stroke-width:0.8;"/>
     </g>
     <g id="line2d_53">
      <g>
       <use style="stroke:#000000;stroke-width:0.8;" x="59.72" xlink:href="#m0314e81e8c" y="234.956283"/>
      </g>
     </g>
     <g id="text_4">
      <!-- 0.2 -->
      <defs>
       <path d="M 19.1875 8.296875 
L 53.609375 8.296875 
L 53.609375 0 
L 7.328125 0 
L 7.328125 8.296875 
Q 12.9375 14.109375 22.625 23.890625 
Q 32.328125 33.6875 34.8125 36.53125 
Q 39.546875 41.84375 41.421875 45.53125 
Q 43.3125 49.21875 43.3125 52.78125 
Q 43.3125 58.59375 39.234375 62.25 
Q 35.15625 65.921875 28.609375 65.921875 
Q 23.96875 65.921875 18.8125 64.3125 
Q 13.671875 62.703125 7.8125 59.421875 
L 7.8125 69.390625 
Q 13.765625 71.78125 18.9375 73 
Q 24.125 74.21875 28.421875 74.21875 
Q 39.75 74.21875 46.484375 68.546875 
Q 53.21875 62.890625 53.21875 53.421875 
Q 53.21875 48.921875 51.53125 44.890625 
Q 49.859375 40.875 45.40625 35.40625 
Q 44.1875 33.984375 37.640625 27.21875 
Q 31.109375 20.453125 19.1875 8.296875 
z
" id="DejaVuSans-32"/>
      </defs>
      <g transform="translate(27.275 241.035033)scale(0.16 -0.16)">
       <use xlink:href="#DejaVuSans-30"/>
       <use x="63.623047" xlink:href="#DejaVuSans-2e"/>
       <use x="95.410156" xlink:href="#DejaVuSans-32"/>
      </g>
     </g>
    </g>
    <g id="ytick_3">
     <g id="line2d_54">
      <path clip-path="url(#pc45bbe45dc)" d="M 59.72 178.632565 
L 450.672 178.632565 
" style="fill:none;stroke:#b0b0b0;stroke-linecap:square;stroke-width:0.8;"/>
     </g>
     <g id="line2d_55">
      <g>
       <use style="stroke:#000000;stroke-width:0.8;" x="59.72" xlink:href="#m0314e81e8c" y="178.632565"/>
      </g>
     </g>
     <g id="text_5">
      <!-- 0.4 -->
      <defs>
       <path d="M 37.796875 64.3125 
L 12.890625 25.390625 
L 37.796875 25.390625 
z
M 35.203125 72.90625 
L 47.609375 72.90625 
L 47.609375 25.390625 
L 58.015625 25.390625 
L 58.015625 17.1875 
L 47.609375 17.1875 
L 47.609375 0 
L 37.796875 0 
L 37.796875 17.1875 
L 4.890625 17.1875 
L 4.890625 26.703125 
z
" id="DejaVuSans-34"/>
      </defs>
      <g transform="translate(27.275 184.711315)scale(0.16 -0.16)">
       <use xlink:href="#DejaVuSans-30"/>
       <use x="63.623047" xlink:href="#DejaVuSans-2e"/>
       <use x="95.410156" xlink:href="#DejaVuSans-34"/>
      </g>
     </g>
    </g>
    <g id="ytick_4">
     <g id="line2d_56">
      <path clip-path="url(#pc45bbe45dc)" d="M 59.72 122.308848 
L 450.672 122.308848 
" style="fill:none;stroke:#b0b0b0;stroke-linecap:square;stroke-width:0.8;"/>
     </g>
     <g id="line2d_57">
      <g>
       <use style="stroke:#000000;stroke-width:0.8;" x="59.72" xlink:href="#m0314e81e8c" y="122.308848"/>
      </g>
     </g>
     <g id="text_6">
      <!-- 0.6 -->
      <defs>
       <path d="M 33.015625 40.375 
Q 26.375 40.375 22.484375 35.828125 
Q 18.609375 31.296875 18.609375 23.390625 
Q 18.609375 15.53125 22.484375 10.953125 
Q 26.375 6.390625 33.015625 6.390625 
Q 39.65625 6.390625 43.53125 10.953125 
Q 47.40625 15.53125 47.40625 23.390625 
Q 47.40625 31.296875 43.53125 35.828125 
Q 39.65625 40.375 33.015625 40.375 
z
M 52.59375 71.296875 
L 52.59375 62.3125 
Q 48.875 64.0625 45.09375 64.984375 
Q 41.3125 65.921875 37.59375 65.921875 
Q 27.828125 65.921875 22.671875 59.328125 
Q 17.53125 52.734375 16.796875 39.40625 
Q 19.671875 43.65625 24.015625 45.921875 
Q 28.375 48.1875 33.59375 48.1875 
Q 44.578125 48.1875 50.953125 41.515625 
Q 57.328125 34.859375 57.328125 23.390625 
Q 57.328125 12.15625 50.6875 5.359375 
Q 44.046875 -1.421875 33.015625 -1.421875 
Q 20.359375 -1.421875 13.671875 8.265625 
Q 6.984375 17.96875 6.984375 36.375 
Q 6.984375 53.65625 15.1875 63.9375 
Q 23.390625 74.21875 37.203125 74.21875 
Q 40.921875 74.21875 44.703125 73.484375 
Q 48.484375 72.75 52.59375 71.296875 
z
" id="DejaVuSans-36"/>
      </defs>
      <g transform="translate(27.275 128.387598)scale(0.16 -0.16)">
       <use xlink:href="#DejaVuSans-30"/>
       <use x="63.623047" xlink:href="#DejaVuSans-2e"/>
       <use x="95.410156" xlink:href="#DejaVuSans-36"/>
      </g>
     </g>
    </g>
    <g id="ytick_5">
     <g id="line2d_58">
      <path clip-path="url(#pc45bbe45dc)" d="M 59.72 65.985131 
L 450.672 65.985131 
" style="fill:none;stroke:#b0b0b0;stroke-linecap:square;stroke-width:0.8;"/>
     </g>
     <g id="line2d_59">
      <g>
       <use style="stroke:#000000;stroke-width:0.8;" x="59.72" xlink:href="#m0314e81e8c" y="65.985131"/>
      </g>
     </g>
     <g id="text_7">
      <!-- 0.8 -->
      <defs>
       <path d="M 31.78125 34.625 
Q 24.75 34.625 20.71875 30.859375 
Q 16.703125 27.09375 16.703125 20.515625 
Q 16.703125 13.921875 20.71875 10.15625 
Q 24.75 6.390625 31.78125 6.390625 
Q 38.8125 6.390625 42.859375 10.171875 
Q 46.921875 13.96875 46.921875 20.515625 
Q 46.921875 27.09375 42.890625 30.859375 
Q 38.875 34.625 31.78125 34.625 
z
M 21.921875 38.8125 
Q 15.578125 40.375 12.03125 44.71875 
Q 8.5 49.078125 8.5 55.328125 
Q 8.5 64.0625 14.71875 69.140625 
Q 20.953125 74.21875 31.78125 74.21875 
Q 42.671875 74.21875 48.875 69.140625 
Q 55.078125 64.0625 55.078125 55.328125 
Q 55.078125 49.078125 51.53125 44.71875 
Q 48 40.375 41.703125 38.8125 
Q 48.828125 37.15625 52.796875 32.3125 
Q 56.78125 27.484375 56.78125 20.515625 
Q 56.78125 9.90625 50.3125 4.234375 
Q 43.84375 -1.421875 31.78125 -1.421875 
Q 19.734375 -1.421875 13.25 4.234375 
Q 6.78125 9.90625 6.78125 20.515625 
Q 6.78125 27.484375 10.78125 32.3125 
Q 14.796875 37.15625 21.921875 38.8125 
z
M 18.3125 54.390625 
Q 18.3125 48.734375 21.84375 45.5625 
Q 25.390625 42.390625 31.78125 42.390625 
Q 38.140625 42.390625 41.71875 45.5625 
Q 45.3125 48.734375 45.3125 54.390625 
Q 45.3125 60.0625 41.71875 63.234375 
Q 38.140625 66.40625 31.78125 66.40625 
Q 25.390625 66.40625 21.84375 63.234375 
Q 18.3125 60.0625 18.3125 54.390625 
z
" id="DejaVuSans-38"/>
      </defs>
      <g transform="translate(27.275 72.063881)scale(0.16 -0.16)">
       <use xlink:href="#DejaVuSans-30"/>
       <use x="63.623047" xlink:href="#DejaVuSans-2e"/>
       <use x="95.410156" xlink:href="#DejaVuSans-38"/>
      </g>
     </g>
    </g>
    <g id="ytick_6">
     <g id="line2d_60">
      <path clip-path="url(#pc45bbe45dc)" d="M 59.72 9.661414 
L 450.672 9.661414 
" style="fill:none;stroke:#b0b0b0;stroke-linecap:square;stroke-width:0.8;"/>
     </g>
     <g id="line2d_61">
      <g>
       <use style="stroke:#000000;stroke-width:0.8;" x="59.72" xlink:href="#m0314e81e8c" y="9.661414"/>
      </g>
     </g>
     <g id="text_8">
      <!-- 1.0 -->
      <g transform="translate(27.275 15.740164)scale(0.16 -0.16)">
       <use xlink:href="#DejaVuSans-31"/>
       <use x="63.623047" xlink:href="#DejaVuSans-2e"/>
       <use x="95.410156" xlink:href="#DejaVuSans-30"/>
      </g>
     </g>
    </g>
    <g id="text_9">
     <!-- proportion of trials -->
     <defs>
      <path d="M 18.109375 8.203125 
L 18.109375 -20.796875 
L 9.078125 -20.796875 
L 9.078125 54.6875 
L 18.109375 54.6875 
L 18.109375 46.390625 
Q 20.953125 51.265625 25.265625 53.625 
Q 29.59375 56 35.59375 56 
Q 45.5625 56 51.78125 48.09375 
Q 58.015625 40.1875 58.015625 27.296875 
Q 58.015625 14.40625 51.78125 6.484375 
Q 45.5625 -1.421875 35.59375 -1.421875 
Q 29.59375 -1.421875 25.265625 0.953125 
Q 20.953125 3.328125 18.109375 8.203125 
z
M 48.6875 27.296875 
Q 48.6875 37.203125 44.609375 42.84375 
Q 40.53125 48.484375 33.40625 48.484375 
Q 26.265625 48.484375 22.1875 42.84375 
Q 18.109375 37.203125 18.109375 27.296875 
Q 18.109375 17.390625 22.1875 11.75 
Q 26.265625 6.109375 33.40625 6.109375 
Q 40.53125 6.109375 44.609375 11.75 
Q 48.6875 17.390625 48.6875 27.296875 
z
" id="DejaVuSans-70"/>
      <path d="M 41.109375 46.296875 
Q 39.59375 47.171875 37.8125 47.578125 
Q 36.03125 48 33.890625 48 
Q 26.265625 48 22.1875 43.046875 
Q 18.109375 38.09375 18.109375 28.8125 
L 18.109375 0 
L 9.078125 0 
L 9.078125 54.6875 
L 18.109375 54.6875 
L 18.109375 46.1875 
Q 20.953125 51.171875 25.484375 53.578125 
Q 30.03125 56 36.53125 56 
Q 37.453125 56 38.578125 55.875 
Q 39.703125 55.765625 41.0625 55.515625 
z
" id="DejaVuSans-72"/>
      <path d="M 18.3125 70.21875 
L 18.3125 54.6875 
L 36.8125 54.6875 
L 36.8125 47.703125 
L 18.3125 47.703125 
L 18.3125 18.015625 
Q 18.3125 11.328125 20.140625 9.421875 
Q 21.96875 7.515625 27.59375 7.515625 
L 36.8125 7.515625 
L 36.8125 0 
L 27.59375 0 
Q 17.1875 0 13.234375 3.875 
Q 9.28125 7.765625 9.28125 18.015625 
L 9.28125 47.703125 
L 2.6875 47.703125 
L 2.6875 54.6875 
L 9.28125 54.6875 
L 9.28125 70.21875 
z
" id="DejaVuSans-74"/>
      <path d="M 9.421875 54.6875 
L 18.40625 54.6875 
L 18.40625 0 
L 9.421875 0 
z
M 9.421875 75.984375 
L 18.40625 75.984375 
L 18.40625 64.59375 
L 9.421875 64.59375 
z
" id="DejaVuSans-69"/>
      <path d="M 54.890625 33.015625 
L 54.890625 0 
L 45.90625 0 
L 45.90625 32.71875 
Q 45.90625 40.484375 42.875 44.328125 
Q 39.84375 48.1875 33.796875 48.1875 
Q 26.515625 48.1875 22.3125 43.546875 
Q 18.109375 38.921875 18.109375 30.90625 
L 18.109375 0 
L 9.078125 0 
L 9.078125 54.6875 
L 18.109375 54.6875 
L 18.109375 46.1875 
Q 21.34375 51.125 25.703125 53.5625 
Q 30.078125 56 35.796875 56 
Q 45.21875 56 50.046875 50.171875 
Q 54.890625 44.34375 54.890625 33.015625 
z
" id="DejaVuSans-6e"/>
     </defs>
     <g transform="translate(19.115625 242.290739)rotate(-90)scale(0.2 -0.2)">
      <use xlink:href="#DejaVuSans-70"/>
      <use x="63.476562" xlink:href="#DejaVuSans-72"/>
      <use x="104.558594" xlink:href="#DejaVuSans-6f"/>
      <use x="165.740234" xlink:href="#DejaVuSans-70"/>
      <use x="229.216797" xlink:href="#DejaVuSans-6f"/>
      <use x="290.398438" xlink:href="#DejaVuSans-72"/>
      <use x="331.511719" xlink:href="#DejaVuSans-74"/>
      <use x="370.720703" xlink:href="#DejaVuSans-69"/>
      <use x="398.503906" xlink:href="#DejaVuSans-6f"/>
      <use x="459.685547" xlink:href="#DejaVuSans-6e"/>
      <use x="523.064453" xlink:href="#DejaVuSans-20"/>
      <use x="554.851562" xlink:href="#DejaVuSans-6f"/>
      <use x="616.033203" xlink:href="#DejaVuSans-66"/>
      <use x="651.238281" xlink:href="#DejaVuSans-20"/>
      <use x="683.025391" xlink:href="#DejaVuSans-74"/>
      <use x="722.234375" xlink:href="#DejaVuSans-72"/>
      <use x="763.347656" xlink:href="#DejaVuSans-69"/>
      <use x="791.130859" xlink:href="#DejaVuSans-61"/>
      <use x="852.410156" xlink:href="#DejaVuSans-6c"/>
      <use x="880.193359" xlink:href="#DejaVuSans-73"/>
     </g>
    </g>
   </g>
   <g id="line2d_62"/>
   <g id="line2d_63"/>
   <g id="line2d_64"/>
   <g id="line2d_65"/>
   <g id="line2d_66">
    <path clip-path="url(#pc45bbe45dc)" d="M 450.672 291.28 
L 450.672 6.845228 
" style="fill:none;stroke:#000000;stroke-linecap:square;stroke-width:1.5;"/>
   </g>
   <g id="patch_3">
    <path d="M 59.72 291.28 
L 59.72 6.845228 
" style="fill:none;stroke:#000000;stroke-linecap:square;stroke-linejoin:miter;stroke-width:0.8;"/>
   </g>
   <g id="patch_4">
    <path d="M 450.672 291.28 
L 450.672 6.845228 
" style="fill:none;stroke:#000000;stroke-linecap:square;stroke-linejoin:miter;stroke-width:0.8;"/>
   </g>
   <g id="patch_5">
    <path d="M 59.72 291.28 
L 450.672 291.28 
" style="fill:none;stroke:#000000;stroke-linecap:square;stroke-linejoin:miter;stroke-width:0.8;"/>
   </g>
   <g id="patch_6">
    <path d="M 59.72 6.845228 
L 450.672 6.845228 
" style="fill:none;stroke:#000000;stroke-linecap:square;stroke-linejoin:miter;stroke-width:0.8;"/>
   </g>
   <g id="text_10">
    <!-- {f1-f5}, 20-D -->
    <defs>
     <path d="M 51.125 -9.28125 
L 51.125 -16.3125 
L 48.09375 -16.3125 
Q 35.9375 -16.3125 31.8125 -12.6875 
Q 27.6875 -9.078125 27.6875 1.703125 
L 27.6875 13.375 
Q 27.6875 20.75 25.046875 23.578125 
Q 22.40625 26.421875 15.484375 26.421875 
L 12.5 26.421875 
L 12.5 33.40625 
L 15.484375 33.40625 
Q 22.46875 33.40625 25.078125 36.203125 
Q 27.6875 39.015625 27.6875 46.296875 
L 27.6875 58.015625 
Q 27.6875 68.796875 31.8125 72.390625 
Q 35.9375 75.984375 48.09375 75.984375 
L 51.125 75.984375 
L 51.125 69 
L 47.796875 69 
Q 40.921875 69 38.8125 66.84375 
Q 36.71875 64.703125 36.71875 57.8125 
L 36.71875 45.703125 
Q 36.71875 38.03125 34.5 34.5625 
Q 32.28125 31.109375 26.90625 29.890625 
Q 32.328125 28.5625 34.515625 25.09375 
Q 36.71875 21.625 36.71875 14.015625 
L 36.71875 1.90625 
Q 36.71875 -4.984375 38.8125 -7.125 
Q 40.921875 -9.28125 47.796875 -9.28125 
z
" id="DejaVuSans-7b"/>
     <path d="M 4.890625 31.390625 
L 31.203125 31.390625 
L 31.203125 23.390625 
L 4.890625 23.390625 
z
" id="DejaVuSans-2d"/>
     <path d="M 10.796875 72.90625 
L 49.515625 72.90625 
L 49.515625 64.59375 
L 19.828125 64.59375 
L 19.828125 46.734375 
Q 21.96875 47.46875 24.109375 47.828125 
Q 26.265625 48.1875 28.421875 48.1875 
Q 40.625 48.1875 47.75 41.5 
Q 54.890625 34.8125 54.890625 23.390625 
Q 54.890625 11.625 47.5625 5.09375 
Q 40.234375 -1.421875 26.90625 -1.421875 
Q 22.3125 -1.421875 17.546875 -0.640625 
Q 12.796875 0.140625 7.71875 1.703125 
L 7.71875 11.625 
Q 12.109375 9.234375 16.796875 8.0625 
Q 21.484375 6.890625 26.703125 6.890625 
Q 35.15625 6.890625 40.078125 11.328125 
Q 45.015625 15.765625 45.015625 23.390625 
Q 45.015625 31 40.078125 35.4375 
Q 35.15625 39.890625 26.703125 39.890625 
Q 22.75 39.890625 18.8125 39.015625 
Q 14.890625 38.140625 10.796875 36.28125 
z
" id="DejaVuSans-35"/>
     <path d="M 12.5 -9.28125 
L 15.921875 -9.28125 
Q 22.75 -9.28125 24.828125 -7.171875 
Q 26.90625 -5.078125 26.90625 1.90625 
L 26.90625 14.015625 
Q 26.90625 21.625 29.09375 25.09375 
Q 31.296875 28.5625 36.71875 29.890625 
Q 31.296875 31.109375 29.09375 34.5625 
Q 26.90625 38.03125 26.90625 45.703125 
L 26.90625 57.8125 
Q 26.90625 64.75 24.828125 66.875 
Q 22.75 69 15.921875 69 
L 12.5 69 
L 12.5 75.984375 
L 15.578125 75.984375 
Q 27.734375 75.984375 31.8125 72.390625 
Q 35.890625 68.796875 35.890625 58.015625 
L 35.890625 46.296875 
Q 35.890625 39.015625 38.515625 36.203125 
Q 41.15625 33.40625 48.09375 33.40625 
L 51.125 33.40625 
L 51.125 26.421875 
L 48.09375 26.421875 
Q 41.15625 26.421875 38.515625 23.578125 
Q 35.890625 20.75 35.890625 13.375 
L 35.890625 1.703125 
Q 35.890625 -9.078125 31.8125 -12.6875 
Q 27.734375 -16.3125 15.578125 -16.3125 
L 12.5 -16.3125 
z
" id="DejaVuSans-7d"/>
     <path d="M 11.71875 12.40625 
L 22.015625 12.40625 
L 22.015625 4 
L 14.015625 -11.625 
L 7.71875 -11.625 
L 11.71875 4 
z
" id="DejaVuSans-2c"/>
    </defs>
    <g transform="translate(188.7085 27.730798)scale(0.2 -0.2)">
     <use xlink:href="#DejaVuSans-7b"/>
     <use x="63.623047" xlink:href="#DejaVuSans-66"/>
     <use x="98.828125" xlink:href="#DejaVuSans-31"/>
     <use x="162.451172" xlink:href="#DejaVuSans-2d"/>
     <use x="198.535156" xlink:href="#DejaVuSans-66"/>
     <use x="233.740234" xlink:href="#DejaVuSans-35"/>
     <use x="297.363281" xlink:href="#DejaVuSans-7d"/>
     <use x="360.986328" xlink:href="#DejaVuSans-2c"/>
     <use x="392.773438" xlink:href="#DejaVuSans-20"/>
     <use x="424.560547" xlink:href="#DejaVuSans-32"/>
     <use x="488.183594" xlink:href="#DejaVuSans-30"/>
     <use x="551.806641" xlink:href="#DejaVuSans-2d"/>
     <use x="587.890625" xlink:href="#DejaVuSans-44"/>
    </g>
   </g>
   <g id="text_11">
    <!-- absolute targets -->
    <defs>
     <path d="M 48.6875 27.296875 
Q 48.6875 37.203125 44.609375 42.84375 
Q 40.53125 48.484375 33.40625 48.484375 
Q 26.265625 48.484375 22.1875 42.84375 
Q 18.109375 37.203125 18.109375 27.296875 
Q 18.109375 17.390625 22.1875 11.75 
Q 26.265625 6.109375 33.40625 6.109375 
Q 40.53125 6.109375 44.609375 11.75 
Q 48.6875 17.390625 48.6875 27.296875 
z
M 18.109375 46.390625 
Q 20.953125 51.265625 25.265625 53.625 
Q 29.59375 56 35.59375 56 
Q 45.5625 56 51.78125 48.09375 
Q 58.015625 40.1875 58.015625 27.296875 
Q 58.015625 14.40625 51.78125 6.484375 
Q 45.5625 -1.421875 35.59375 -1.421875 
Q 29.59375 -1.421875 25.265625 0.953125 
Q 20.953125 3.328125 18.109375 8.203125 
L 18.109375 0 
L 9.078125 0 
L 9.078125 75.984375 
L 18.109375 75.984375 
z
" id="DejaVuSans-62"/>
     <path d="M 8.5 21.578125 
L 8.5 54.6875 
L 17.484375 54.6875 
L 17.484375 21.921875 
Q 17.484375 14.15625 20.5 10.265625 
Q 23.53125 6.390625 29.59375 6.390625 
Q 36.859375 6.390625 41.078125 11.03125 
Q 45.3125 15.671875 45.3125 23.6875 
L 45.3125 54.6875 
L 54.296875 54.6875 
L 54.296875 0 
L 45.3125 0 
L 45.3125 8.40625 
Q 42.046875 3.421875 37.71875 1 
Q 33.40625 -1.421875 27.6875 -1.421875 
Q 18.265625 -1.421875 13.375 4.4375 
Q 8.5 10.296875 8.5 21.578125 
z
M 31.109375 56 
z
" id="DejaVuSans-75"/>
     <path d="M 56.203125 29.59375 
L 56.203125 25.203125 
L 14.890625 25.203125 
Q 15.484375 15.921875 20.484375 11.0625 
Q 25.484375 6.203125 34.421875 6.203125 
Q 39.59375 6.203125 44.453125 7.46875 
Q 49.3125 8.734375 54.109375 11.28125 
L 54.109375 2.78125 
Q 49.265625 0.734375 44.1875 -0.34375 
Q 39.109375 -1.421875 33.890625 -1.421875 
Q 20.796875 -1.421875 13.15625 6.1875 
Q 5.515625 13.8125 5.515625 26.8125 
Q 5.515625 40.234375 12.765625 48.109375 
Q 20.015625 56 32.328125 56 
Q 43.359375 56 49.78125 48.890625 
Q 56.203125 41.796875 56.203125 29.59375 
z
M 47.21875 32.234375 
Q 47.125 39.59375 43.09375 43.984375 
Q 39.0625 48.390625 32.421875 48.390625 
Q 24.90625 48.390625 20.390625 44.140625 
Q 15.875 39.890625 15.1875 32.171875 
z
" id="DejaVuSans-65"/>
    </defs>
    <g transform="translate(59.72 304.609946)scale(0.14 -0.14)">
     <use xlink:href="#DejaVuSans-61"/>
     <use x="61.279297" xlink:href="#DejaVuSans-62"/>
     <use x="124.755859" xlink:href="#DejaVuSans-73"/>
     <use x="176.855469" xlink:href="#DejaVuSans-6f"/>
     <use x="238.037109" xlink:href="#DejaVuSans-6c"/>
     <use x="265.820312" xlink:href="#DejaVuSans-75"/>
     <use x="329.199219" xlink:href="#DejaVuSans-74"/>
     <use x="368.408203" xlink:href="#DejaVuSans-65"/>
     <use x="429.931641" xlink:href="#DejaVuSans-20"/>
     <use x="461.71875" xlink:href="#DejaVuSans-74"/>
     <use x="500.927734" xlink:href="#DejaVuSans-61"/>
     <use x="562.207031" xlink:href="#DejaVuSans-72"/>
     <use x="603.304688" xlink:href="#DejaVuSans-67"/>
     <use x="666.78125" xlink:href="#DejaVuSans-65"/>
     <use x="728.304688" xlink:href="#DejaVuSans-74"/>
     <use x="767.513672" xlink:href="#DejaVuSans-73"/>
    </g>
   </g>
   <g id="text_12">
    <!-- v2.2.1.10 -->
    <g style="fill:#808080;" transform="translate(231.563188 286.355965)scale(0.1 -0.1)">
     <use xlink:href="#DejaVuSans-76"/>
     <use x="59.179688" xlink:href="#DejaVuSans-32"/>
     <use x="122.802734" xlink:href="#DejaVuSans-2e"/>
     <use x="154.589844" xlink:href="#DejaVuSans-32"/>
     <use x="218.212891" xlink:href="#DejaVuSans-2e"/>
     <use x="250" xlink:href="#DejaVuSans-31"/>
     <use x="313.623047" xlink:href="#DejaVuSans-2e"/>
     <use x="345.410156" xlink:href="#DejaVuSans-31"/>
     <use x="409.033203" xlink:href="#DejaVuSans-30"/>
    </g>
   </g>
   <g id="legend_1">
    <g id="patch_7">
     <path d="M 73.72 140.270228 
L 202.941875 140.270228 
Q 206.941875 140.270228 206.941875 136.270228 
L 206.941875 20.845228 
Q 206.941875 16.845228 202.941875 16.845228 
L 73.72 16.845228 
Q 69.72 16.845228 69.72 20.845228 
L 69.72 136.270228 
Q 69.72 140.270228 73.72 140.270228 
z
" style="fill:#ffffff;opacity:0.2;stroke:#cccccc;stroke-linejoin:miter;"/>
    </g>
    <g id="line2d_67">
     <path d="M 77.72 33.042103 
L 117.72 33.042103 
" style="fill:none;stroke:#000000;stroke-linecap:square;stroke-width:1.5;"/>
    </g>
    <g id="line2d_68"/>
    <g id="text_13">
     <!-- 1: 0/5 -->
     <defs>
      <path d="M 11.71875 12.40625 
L 22.015625 12.40625 
L 22.015625 0 
L 11.71875 0 
z
M 11.71875 51.703125 
L 22.015625 51.703125 
L 22.015625 39.3125 
L 11.71875 39.3125 
z
" id="DejaVuSans-3a"/>
     </defs>
     <g transform="translate(133.72 40.042103)scale(0.2 -0.2)">
      <use xlink:href="#DejaVuSans-31"/>
      <use x="63.623047" xlink:href="#DejaVuSans-3a"/>
      <use x="97.314453" xlink:href="#DejaVuSans-20"/>
      <use x="129.101562" xlink:href="#DejaVuSans-30"/>
      <use x="192.724609" xlink:href="#DejaVuSans-2f"/>
      <use x="226.416016" xlink:href="#DejaVuSans-35"/>
     </g>
    </g>
    <g id="line2d_69">
     <path d="M 77.72 62.398353 
L 117.72 62.398353 
" style="fill:none;stroke:#00bfbf;stroke-linecap:square;stroke-width:1.5;"/>
    </g>
    <g id="line2d_70"/>
    <g id="text_14">
     <!-- -1: 0/5 -->
     <g transform="translate(133.72 69.398353)scale(0.2 -0.2)">
      <use xlink:href="#DejaVuSans-2d"/>
      <use x="36.083984" xlink:href="#DejaVuSans-31"/>
      <use x="99.707031" xlink:href="#DejaVuSans-3a"/>
      <use x="133.398438" xlink:href="#DejaVuSans-20"/>
      <use x="165.185547" xlink:href="#DejaVuSans-30"/>
      <use x="228.808594" xlink:href="#DejaVuSans-2f"/>
      <use x="262.5" xlink:href="#DejaVuSans-35"/>
     </g>
    </g>
    <g id="line2d_71">
     <path d="M 77.72 91.754603 
L 117.72 91.754603 
" style="fill:none;stroke:#bf00bf;stroke-linecap:square;stroke-width:1.5;"/>
    </g>
    <g id="line2d_72"/>
    <g id="text_15">
     <!-- -4: 0/5 -->
     <g transform="translate(133.72 98.754603)scale(0.2 -0.2)">
      <use xlink:href="#DejaVuSans-2d"/>
      <use x="36.083984" xlink:href="#DejaVuSans-34"/>
      <use x="99.707031" xlink:href="#DejaVuSans-3a"/>
      <use x="133.398438" xlink:href="#DejaVuSans-20"/>
      <use x="165.185547" xlink:href="#DejaVuSans-30"/>
      <use x="228.808594" xlink:href="#DejaVuSans-2f"/>
      <use x="262.5" xlink:href="#DejaVuSans-35"/>
     </g>
    </g>
    <g id="line2d_73">
     <path d="M 77.72 121.110853 
L 117.72 121.110853 
" style="fill:none;stroke:#ff0000;stroke-linecap:square;stroke-width:3;"/>
    </g>
    <g id="line2d_74"/>
    <g id="text_16">
     <!-- -8: 0/5 -->
     <g transform="translate(133.72 128.110853)scale(0.2 -0.2)">
      <use xlink:href="#DejaVuSans-2d"/>
      <use x="36.083984" xlink:href="#DejaVuSans-38"/>
      <use x="99.707031" xlink:href="#DejaVuSans-3a"/>
      <use x="133.398438" xlink:href="#DejaVuSans-20"/>
      <use x="165.185547" xlink:href="#DejaVuSans-30"/>
      <use x="228.808594" xlink:href="#DejaVuSans-2f"/>
      <use x="262.5" xlink:href="#DejaVuSans-35"/>
     </g>
    </g>
   </g>
  </g>
 </g>
 <defs>
  <clipPath id="pc45bbe45dc">
   <rect height="284.434772" width="390.952" x="59.72" y="6.845228"/>
  </clipPath>
 </defs>
</svg>
