<?xml version="1.0" encoding="utf-8" standalone="no"?>
<!DOCTYPE svg PUBLIC "-//W3C//DTD SVG 1.1//EN"
  "http://www.w3.org/Graphics/SVG/1.1/DTD/svg11.dtd">
<!-- Created with matplotlib (http://matplotlib.org/) -->
<svg height="345.6pt" version="1.1" viewBox="0 0 460.8 345.6" width="460.8pt" xmlns="http://www.w3.org/2000/svg" xmlns:xlink="http://www.w3.org/1999/xlink">
 <defs>
  <style type="text/css">
*{stroke-linecap:butt;stroke-linejoin:round;}
  </style>
 </defs>
 <g id="figure_1">
  <g id="patch_1">
   <path d="M 0 345.6 
L 460.8 345.6 
L 460.8 0 
L 0 0 
z
" style="fill:#ffffff;"/>
  </g>
  <g id="axes_1">
   <g id="patch_2">
    <path d="M 59.72 291.28 
L 450.672 291.28 
L 450.672 6.845228 
L 59.72 6.845228 
z
" style="fill:#ffffff;"/>
   </g>
   <g id="line2d_1">
    <path clip-path="url(#p679cb8ef19)" d="M 381.223115 291.28 
L 381.223115 286.586357 
L 382.292065 286.586357 
L 382.292065 281.892714 
L 384.936985 281.892714 
L 384.936985 277.199071 
L 387.0326 277.199071 
L 387.0326 272.505428 
L 391.453719 272.505428 
L 391.453719 267.811784 
L 393.760068 267.811784 
L 393.760068 263.118141 
L 396.144416 263.118141 
L 396.144416 258.424498 
L 396.920333 258.424498 
L 396.920333 253.730855 
L 397.381519 253.730855 
L 397.381519 249.037212 
L 397.610902 249.037212 
L 397.610902 244.343569 
L 397.839487 244.343569 
L 397.839487 239.649926 
L 399.268992 239.649926 
L 399.268992 234.956283 
L 399.787903 234.956283 
L 399.787903 230.26264 
L 399.787903 230.26264 
L 399.787903 225.568997 
L 401.536512 225.568997 
L 401.536512 220.875353 
L 402.747519 220.875353 
L 402.747519 216.18171 
L 403.099486 216.18171 
L 403.099486 211.488067 
L 403.169654 211.488067 
L 403.169654 206.794424 
L 405.240545 206.794424 
L 405.240545 202.100781 
L 407.116154 202.100781 
L 407.116154 197.407138 
L 410.838779 197.407138 
L 410.838779 192.713495 
L 426.378753 192.713495 
L 426.378753 188.019852 
L 429.315914 188.019852 
L 429.315914 183.326209 
L 429.597841 183.326209 
L 429.597841 178.632565 
L 440.263534 178.632565 
L 440.263534 173.938922 
L 441.799777 173.938922 
L 441.799777 169.245279 
L 461.8 169.245279 
" style="fill:none;stroke:#f5deb3;stroke-linecap:square;stroke-width:1.5;"/>
   </g>
   <g id="line2d_2">
    <path clip-path="url(#p679cb8ef19)" style="fill:none;stroke:#f5deb3;stroke-linecap:square;stroke-width:1.5;"/>
   </g>
   <g id="line2d_3">
    <path clip-path="url(#p679cb8ef19)" d="M 252.303702 291.28 
L 252.303702 286.586357 
L 314.377425 286.586357 
L 314.377425 281.892714 
L 314.648114 281.892714 
L 314.648114 277.199071 
L 315.985061 277.199071 
L 315.985061 272.505428 
L 319.33881 272.505428 
L 319.33881 267.811784 
L 321.56417 267.811784 
L 321.56417 263.118141 
L 323.951408 263.118141 
L 323.951408 258.424498 
L 326.706014 258.424498 
L 326.706014 253.730855 
L 328.261054 253.730855 
L 328.261054 249.037212 
L 328.698668 249.037212 
L 328.698668 244.343569 
L 329.133383 244.343569 
L 329.133383 239.649926 
L 330.844016 239.649926 
L 330.844016 234.956283 
L 331.890957 234.956283 
L 331.890957 230.26264 
L 334.33752 230.26264 
L 334.33752 225.568997 
L 336.502813 225.568997 
L 336.502813 220.875353 
L 336.502813 220.875353 
L 336.502813 216.18171 
L 341.89088 216.18171 
L 341.89088 211.488067 
L 342.246663 211.488067 
L 342.246663 206.794424 
L 343.997215 206.794424 
L 343.997215 202.100781 
L 346.538506 202.100781 
L 346.538506 197.407138 
L 349.144975 197.407138 
L 349.144975 192.713495 
L 356.395573 192.713495 
L 356.395573 188.019852 
L 356.823209 188.019852 
L 356.823209 183.326209 
L 357.106759 183.326209 
L 357.106759 178.632565 
L 357.106759 178.632565 
L 357.106759 173.938922 
L 357.950135 173.938922 
L 357.950135 169.245279 
L 370.95726 169.245279 
L 370.95726 164.551636 
L 381.418769 164.551636 
L 381.418769 159.857993 
L 381.808335 159.857993 
L 381.808335 155.16435 
L 390.7796 155.16435 
L 390.7796 150.470707 
L 391.70474 150.470707 
L 391.70474 145.777064 
L 393.679079 145.777064 
L 393.679079 141.083421 
L 394.564512 141.083421 
L 394.564512 136.389777 
L 395.201044 136.389777 
L 395.201044 131.696134 
L 397.610902 131.696134 
L 397.610902 127.002491 
L 399.787903 127.002491 
L 399.787903 122.308848 
L 400.449102 122.308848 
L 400.449102 117.615205 
L 415.475663 117.615205 
L 415.475663 112.921562 
L 423.61289 112.921562 
L 423.61289 108.227919 
L 424.581602 108.227919 
L 424.581602 103.534276 
L 426.033139 103.534276 
L 426.033139 98.840633 
L 434.736474 98.840633 
L 434.736474 94.14699 
L 461.8 94.14699 
" style="fill:none;stroke:#f5deb3;stroke-linecap:square;stroke-width:1.5;"/>
   </g>
   <g id="line2d_4">
    <path clip-path="url(#p679cb8ef19)" d="M 331.890957 291.28 
L 331.890957 286.586357 
L 400.88623 286.586357 
L 400.88623 281.892714 
L 402.747519 281.892714 
L 402.747519 277.199071 
L 413.886765 277.199071 
L 413.886765 272.505428 
L 415.184309 272.505428 
L 415.184309 267.811784 
L 415.533779 267.811784 
L 415.533779 263.118141 
L 416.227185 263.118141 
L 416.227185 258.424498 
L 416.456702 258.424498 
L 416.456702 253.730855 
L 416.57116 253.730855 
L 416.57116 249.037212 
L 416.628314 249.037212 
L 416.628314 244.343569 
L 417.140477 244.343569 
L 417.140477 239.649926 
L 417.479712 239.649926 
L 417.479712 234.956283 
L 417.704898 234.956283 
L 417.704898 230.26264 
L 419.969586 230.26264 
L 419.969586 225.568997 
L 420.40251 225.568997 
L 420.40251 220.875353 
L 424.985243 220.875353 
L 424.985243 216.18171 
L 427.307777 216.18171 
L 427.307777 211.488067 
L 429.410024 211.488067 
L 429.410024 206.794424 
L 430.390119 206.794424 
L 430.390119 202.100781 
L 430.667479 202.100781 
L 430.667479 197.407138 
L 432.262465 197.407138 
L 432.262465 192.713495 
L 432.442306 192.713495 
L 432.442306 188.019852 
L 432.755846 188.019852 
L 432.755846 183.326209 
L 433.819613 183.326209 
L 433.819613 178.632565 
L 435.896785 178.632565 
L 435.896785 173.938922 
L 435.981923 173.938922 
L 435.981923 169.245279 
L 439.50188 169.245279 
L 439.50188 164.551636 
L 440.77962 164.551636 
L 440.77962 159.857993 
L 442.765967 159.857993 
L 442.765967 155.16435 
L 442.804321 155.16435 
L 442.804321 150.470707 
L 443.262822 150.470707 
L 443.262822 145.777064 
L 447.715445 145.777064 
L 447.715445 141.083421 
L 450.875751 141.083421 
L 450.875751 136.389777 
L 452.780483 136.389777 
L 452.780483 131.696134 
L 454.727492 131.696134 
L 454.727492 127.002491 
L 456.680511 127.002491 
L 456.680511 122.308848 
L 456.742555 122.308848 
L 456.742555 117.615205 
L 461.8 117.615205 
" style="fill:none;stroke:#f5deb3;stroke-linecap:square;stroke-width:1.5;"/>
   </g>
   <g id="line2d_5"/>
   <g id="line2d_6"/>
   <g id="line2d_7">
    <path clip-path="url(#p679cb8ef19)" d="M 387.301074 291.28 
L 387.301074 286.586357 
L 391.621173 286.586357 
L 391.621173 281.892714 
L 394.40441 281.892714 
L 394.40441 277.199071 
L 446.783831 277.199071 
L 446.783831 272.505428 
L 448.774207 272.505428 
L 448.774207 267.811784 
L 450.056924 267.811784 
L 450.056924 263.118141 
L 451.617475 263.118141 
L 451.617475 258.424498 
L 452.6816 258.424498 
L 452.6816 253.730855 
L 452.747539 253.730855 
L 452.747539 249.037212 
L 453.890869 249.037212 
L 453.890869 244.343569 
L 454.278328 244.343569 
L 454.278328 239.649926 
L 454.759458 239.649926 
L 454.759458 234.956283 
L 454.759458 234.956283 
L 454.759458 230.26264 
L 455.268805 230.26264 
L 455.268805 225.568997 
L 455.585152 225.568997 
L 455.585152 220.875353 
L 455.805691 220.875353 
L 455.805691 216.18171 
L 455.868566 216.18171 
L 455.868566 211.488067 
L 455.962766 211.488067 
L 455.962766 206.794424 
L 456.275794 206.794424 
L 456.275794 202.100781 
L 456.71154 202.100781 
L 456.71154 197.407138 
L 456.83551 197.407138 
L 456.83551 192.713495 
L 457.513188 192.713495 
L 457.513188 188.019852 
L 458.667494 188.019852 
L 458.667494 183.326209 
L 458.847911 183.326209 
L 458.847911 178.632565 
L 459.087699 178.632565 
L 459.087699 173.938922 
L 460.391099 173.938922 
L 460.391099 169.245279 
L 460.449734 169.245279 
L 460.449734 164.551636 
L 460.508316 164.551636 
L 460.508316 159.857993 
L 461.525139 159.857993 
L 461.525139 155.16435 
L 461.8 155.16435 
" style="fill:none;stroke:#f5deb3;stroke-linecap:square;stroke-width:1.5;"/>
   </g>
   <g id="line2d_8">
    <path clip-path="url(#p679cb8ef19)" style="fill:none;stroke:#f5deb3;stroke-linecap:square;stroke-width:1.5;"/>
   </g>
   <g id="line2d_9">
    <path clip-path="url(#p679cb8ef19)" d="M 344.341792 291.28 
L 344.341792 286.586357 
L 373.43036 286.586357 
L 373.43036 281.892714 
L 390.098485 281.892714 
L 390.098485 277.199071 
L 416.57116 277.199071 
L 416.57116 272.505428 
L 420.671644 272.505428 
L 420.671644 267.811784 
L 421.737282 267.811784 
L 421.737282 263.118141 
L 423.148988 263.118141 
L 423.148988 258.424498 
L 423.407116 258.424498 
L 423.407116 253.730855 
L 433.775632 253.730855 
L 433.775632 249.037212 
L 435.726176 249.037212 
L 435.726176 244.343569 
L 439.823655 244.343569 
L 439.823655 239.649926 
L 440.063954 239.649926 
L 440.063954 234.956283 
L 440.462509 234.956283 
L 440.462509 230.26264 
L 443.793724 230.26264 
L 443.793724 225.568997 
L 443.831481 225.568997 
L 443.831481 220.875353 
L 444.731212 220.875353 
L 444.731212 216.18171 
L 445.10249 216.18171 
L 445.10249 211.488067 
L 445.361141 211.488067 
L 445.361141 206.794424 
L 445.47168 206.794424 
L 445.47168 202.100781 
L 445.765544 202.100781 
L 445.765544 197.407138 
L 446.131034 197.407138 
L 446.131034 192.713495 
L 446.458244 192.713495 
L 446.458244 188.019852 
L 446.530737 188.019852 
L 446.530737 183.326209 
L 448.387974 183.326209 
L 448.387974 178.632565 
L 448.774207 178.632565 
L 448.774207 173.938922 
L 449.018813 173.938922 
L 449.018813 169.245279 
L 450.125551 169.245279 
L 450.125551 164.551636 
L 450.739987 164.551636 
L 450.739987 159.857993 
L 451.213938 159.857993 
L 451.213938 155.16435 
L 452.582568 155.16435 
L 452.582568 150.470707 
L 452.648606 150.470707 
L 452.648606 145.777064 
L 452.879218 145.777064 
L 452.879218 141.083421 
L 452.944958 141.083421 
L 452.944958 136.389777 
L 453.955605 136.389777 
L 453.955605 131.696134 
L 454.246127 131.696134 
L 454.246127 127.002491 
L 454.982784 127.002491 
L 454.982784 122.308848 
L 456.587336 122.308848 
L 456.587336 117.615205 
L 457.390493 117.615205 
L 457.390493 112.921562 
L 457.45187 112.921562 
L 457.45187 108.227919 
L 458.27488 108.227919 
L 458.27488 103.534276 
L 458.727688 103.534276 
L 458.727688 98.840633 
L 458.997881 98.840633 
L 458.997881 94.14699 
L 459.683364 94.14699 
L 459.683364 89.453346 
L 460.273672 89.453346 
L 460.273672 84.759703 
L 461.75536 84.759703 
L 461.75536 80.06606 
L 461.8 80.06606 
" style="fill:none;stroke:#f5deb3;stroke-linecap:square;stroke-width:1.5;"/>
   </g>
   <g id="line2d_10">
    <path clip-path="url(#p679cb8ef19)" style="fill:none;stroke:#f5deb3;stroke-linecap:square;stroke-width:1.5;"/>
   </g>
   <g id="line2d_11">
    <path clip-path="url(#p679cb8ef19)" d="M 346.538506 291.28 
L 346.538506 286.586357 
L 404.899902 286.586357 
L 404.899902 281.892714 
L 408.294204 281.892714 
L 408.294204 277.199071 
L 410.08571 277.199071 
L 410.08571 272.505428 
L 416.9702 272.505428 
L 416.9702 267.811784 
L 419.150077 267.811784 
L 419.150077 263.118141 
L 423.920346 263.118141 
L 423.920346 258.424498 
L 424.175464 258.424498 
L 424.175464 253.730855 
L 427.356311 253.730855 
L 427.356311 249.037212 
L 428.080043 249.037212 
L 428.080043 244.343569 
L 429.550937 244.343569 
L 429.550937 239.649926 
L 430.390119 239.649926 
L 430.390119 234.956283 
L 444.207869 234.956283 
L 444.207869 230.26264 
L 453.207263 230.26264 
L 453.207263 225.568997 
L 461.8 225.568997 
" style="fill:none;stroke:#f5deb3;stroke-linecap:square;stroke-width:1.5;"/>
   </g>
   <g id="line2d_12">
    <path clip-path="url(#p679cb8ef19)" d="M 324.650972 291.28 
L 324.650972 286.586357 
L 332.5112 286.586357 
L 332.5112 281.892714 
L 334.935173 281.892714 
L 334.935173 277.199071 
L 336.114399 277.199071 
L 336.114399 272.505428 
L 336.114399 272.505428 
L 336.114399 267.811784 
L 340.63023 267.811784 
L 340.63023 263.118141 
L 342.776748 263.118141 
L 342.776748 258.424498 
L 342.776748 258.424498 
L 342.776748 253.730855 
L 343.824246 253.730855 
L 343.824246 249.037212 
L 346.870031 249.037212 
L 346.870031 244.343569 
L 347.854677 244.343569 
L 347.854677 239.649926 
L 349.780736 239.649926 
L 349.780736 234.956283 
L 349.780736 234.956283 
L 349.780736 230.26264 
L 358.644764 230.26264 
L 358.644764 225.568997 
L 359.46873 225.568997 
L 359.46873 220.875353 
L 359.46873 220.875353 
L 359.46873 216.18171 
L 360.282482 216.18171 
L 360.282482 211.488067 
L 363.440213 211.488067 
L 363.440213 206.794424 
L 364.206468 206.794424 
L 364.206468 202.100781 
L 365.712657 202.100781 
L 365.712657 197.407138 
L 367.909056 197.407138 
L 367.909056 192.713495 
L 374.08898 192.713495 
L 374.08898 188.019852 
L 376.026092 188.019852 
L 376.026092 183.326209 
L 387.122213 183.326209 
L 387.122213 178.632565 
L 391.285837 178.632565 
L 391.285837 173.938922 
L 395.674425 173.938922 
L 395.674425 169.245279 
L 395.674425 169.245279 
L 395.674425 164.551636 
L 396.144416 164.551636 
L 396.144416 159.857993 
L 402.818063 159.857993 
L 402.818063 155.16435 
L 451.784886 155.16435 
L 451.784886 150.470707 
L 461.8 150.470707 
" style="fill:none;stroke:#f5deb3;stroke-linecap:square;stroke-width:1.5;"/>
   </g>
   <g id="line2d_13">
    <path clip-path="url(#p679cb8ef19)" style="fill:none;stroke:#f5deb3;stroke-linecap:square;stroke-width:1.5;"/>
   </g>
   <g id="line2d_14">
    <path clip-path="url(#p679cb8ef19)" d="M 375.707184 291.28 
L 375.707184 286.586357 
L 382.099001 286.586357 
L 382.099001 281.892714 
L 400.595135 281.892714 
L 400.595135 277.199071 
L 405.916574 277.199071 
L 405.916574 272.505428 
L 410.400539 272.505428 
L 410.400539 267.811784 
L 412.6845 267.811784 
L 412.6845 263.118141 
L 416.513956 263.118141 
L 416.513956 258.424498 
L 421.3131 258.424498 
L 421.3131 253.730855 
L 423.561507 253.730855 
L 423.561507 249.037212 
L 429.127288 249.037212 
L 429.127288 244.343569 
L 429.410024 244.343569 
L 429.410024 239.649926 
L 430.158087 239.649926 
L 430.158087 234.956283 
L 431.719968 234.956283 
L 431.719968 230.26264 
L 434.996099 230.26264 
L 434.996099 225.568997 
L 438.23989 225.568997 
L 438.23989 220.875353 
L 445.802185 220.875353 
L 445.802185 216.18171 
L 448.105643 216.18171 
L 448.105643 211.488067 
L 449.885041 211.488067 
L 449.885041 206.794424 
L 456.025491 206.794424 
L 456.025491 202.100781 
L 461.8 202.100781 
" style="fill:none;stroke:#f5deb3;stroke-linecap:square;stroke-width:1.5;"/>
   </g>
   <g id="line2d_15">
    <path clip-path="url(#p679cb8ef19)" style="fill:none;stroke:#f5deb3;stroke-linecap:square;stroke-width:1.5;"/>
   </g>
   <g id="line2d_16">
    <path clip-path="url(#p679cb8ef19)" style="fill:none;stroke:#f5deb3;stroke-linecap:square;stroke-width:1.5;"/>
   </g>
   <g id="line2d_17">
    <path clip-path="url(#p679cb8ef19)" style="fill:none;stroke:#f5deb3;stroke-linecap:square;stroke-width:1.5;"/>
   </g>
   <g id="line2d_18">
    <path clip-path="url(#p679cb8ef19)" d="M 331.890957 291.28 
L 331.890957 286.586357 
L 332.098357 286.586357 
L 332.098357 281.892714 
L 334.33752 281.892714 
L 334.33752 277.199071 
L 337.654454 277.199071 
L 337.654454 272.505428 
L 341.173476 272.505428 
L 341.173476 267.811784 
L 341.89088 267.811784 
L 341.89088 263.118141 
L 342.776748 263.118141 
L 342.776748 258.424498 
L 344.341792 258.424498 
L 344.341792 253.730855 
L 346.038058 253.730855 
L 346.038058 249.037212 
L 347.5281 249.037212 
L 347.5281 244.343569 
L 349.463626 244.343569 
L 349.463626 239.649926 
L 349.780736 239.649926 
L 349.780736 234.956283 
L 353.021061 234.956283 
L 353.021061 230.26264 
L 353.91823 230.26264 
L 353.91823 225.568997 
L 354.214581 225.568997 
L 354.214581 220.875353 
L 357.106759 220.875353 
L 357.106759 216.18171 
L 357.106759 216.18171 
L 357.106759 211.488067 
L 358.782812 211.488067 
L 358.782812 206.794424 
L 360.417132 206.794424 
L 360.417132 202.100781 
L 363.696626 202.100781 
L 363.696626 197.407138 
L 366.452986 197.407138 
L 366.452986 192.713495 
L 373.54059 192.713495 
L 373.54059 188.019852 
L 383.722227 188.019852 
L 383.722227 183.326209 
L 392.53461 183.326209 
L 392.53461 178.632565 
L 394.163523 178.632565 
L 394.163523 173.938922 
L 402.818063 173.938922 
L 402.818063 169.245279 
L 407.707821 169.245279 
L 407.707821 164.551636 
L 407.903865 164.551636 
L 407.903865 159.857993 
L 421.099978 159.857993 
L 421.099978 155.16435 
L 426.771525 155.16435 
L 426.771525 150.470707 
L 441.055841 150.470707 
L 441.055841 145.777064 
L 461.8 145.777064 
" style="fill:none;stroke:#f5deb3;stroke-linecap:square;stroke-width:1.5;"/>
   </g>
   <g id="line2d_19">
    <path clip-path="url(#p679cb8ef19)" d="M 0 0 
" style="fill:none;stroke:#f5deb3;stroke-linecap:square;stroke-width:1.5;"/>
   </g>
   <g id="line2d_20">
    <path clip-path="url(#p679cb8ef19)" d="M 358.92057 291.28 
L 358.92057 286.586357 
L 364.838252 286.586357 
L 364.838252 281.892714 
L 367.30628 281.892714 
L 367.30628 277.199071 
L 372.317761 277.199071 
L 372.317761 272.505428 
L 374.19811 272.505428 
L 374.19811 267.811784 
L 375.279548 267.811784 
L 375.279548 263.118141 
L 375.919961 263.118141 
L 375.919961 258.424498 
L 376.659298 258.424498 
L 376.659298 253.730855 
L 378.625078 253.730855 
L 378.625078 249.037212 
L 379.334726 249.037212 
L 379.334726 244.343569 
L 384.751556 244.343569 
L 384.751556 239.649926 
L 385.581893 239.649926 
L 385.581893 234.956283 
L 387.122213 234.956283 
L 387.122213 230.26264 
L 388.539635 230.26264 
L 388.539635 225.568997 
L 388.627216 225.568997 
L 388.627216 220.875353 
L 389.669172 220.875353 
L 389.669172 216.18171 
L 389.841234 216.18171 
L 389.841234 211.488067 
L 394.963067 211.488067 
L 394.963067 206.794424 
L 398.067278 206.794424 
L 398.067278 202.100781 
L 402.180415 202.100781 
L 402.180415 197.407138 
L 404.831561 197.407138 
L 404.831561 192.713495 
L 410.963455 192.713495 
L 410.963455 188.019852 
L 411.644971 188.019852 
L 411.644971 183.326209 
L 422.263682 183.326209 
L 422.263682 178.632565 
L 425.035524 178.632565 
L 425.035524 173.938922 
L 428.605754 173.938922 
L 428.605754 169.245279 
L 432.397392 169.245279 
L 432.397392 164.551636 
L 436.024451 164.551636 
L 436.024451 159.857993 
L 444.544782 159.857993 
L 444.544782 155.16435 
L 449.123366 155.16435 
L 449.123366 150.470707 
L 461.8 150.470707 
" style="fill:none;stroke:#f5deb3;stroke-linecap:square;stroke-width:1.5;"/>
   </g>
   <g id="line2d_21"/>
   <g id="line2d_22">
    <path clip-path="url(#p679cb8ef19)" d="M 346.205298 291.28 
L 346.205298 286.586357 
L 350.566875 286.586357 
L 350.566875 281.892714 
L 350.878714 281.892714 
L 350.878714 277.199071 
L 357.38909 277.199071 
L 357.38909 272.505428 
L 364.712381 272.505428 
L 364.712381 267.811784 
L 365.214424 267.811784 
L 365.214424 263.118141 
L 366.697918 263.118141 
L 366.697918 258.424498 
L 369.098252 258.424498 
L 369.098252 253.730855 
L 371.4139 253.730855 
L 371.4139 249.037212 
L 375.064681 249.037212 
L 375.064681 244.343569 
L 376.764241 244.343569 
L 376.764241 239.649926 
L 383.058694 239.649926 
L 383.058694 234.956283 
L 383.343887 234.956283 
L 383.343887 230.26264 
L 392.286749 230.26264 
L 392.286749 225.568997 
L 398.97062 225.568997 
L 398.97062 220.875353 
L 402.606201 220.875353 
L 402.606201 216.18171 
L 403.379708 216.18171 
L 403.379708 211.488067 
L 405.444086 211.488067 
L 405.444086 206.794424 
L 408.553146 206.794424 
L 408.553146 202.100781 
L 409.769363 202.100781 
L 409.769363 197.407138 
L 411.583307 197.407138 
L 411.583307 192.713495 
L 413.767524 192.713495 
L 413.767524 188.019852 
L 416.913342 188.019852 
L 416.913342 183.326209 
L 450.603942 183.326209 
L 450.603942 178.632565 
L 451.14644 178.632565 
L 451.14644 173.938922 
L 461.8 173.938922 
" style="fill:none;stroke:#f5deb3;stroke-linecap:square;stroke-width:1.5;"/>
   </g>
   <g id="line2d_23">
    <path clip-path="url(#p679cb8ef19)" style="fill:none;stroke:#f5deb3;stroke-linecap:square;stroke-width:1.5;"/>
   </g>
   <g id="line2d_24">
    <path clip-path="url(#p679cb8ef19)" d="M 385.21415 291.28 
L 385.21415 286.586357 
L 389.237032 286.586357 
L 389.237032 281.892714 
L 390.609983 281.892714 
L 390.609983 277.199071 
L 403.239747 277.199071 
L 403.239747 272.505428 
L 403.379708 272.505428 
L 403.379708 267.811784 
L 407.773234 267.811784 
L 407.773234 263.118141 
L 413.047497 263.118141 
L 413.047497 258.424498 
L 419.969586 258.424498 
L 419.969586 253.730855 
L 438.853561 253.730855 
L 438.853561 249.037212 
L 445.692202 249.037212 
L 445.692202 244.343569 
L 450.296805 244.343569 
L 450.296805 239.649926 
L 461.55396 239.649926 
L 461.55396 234.956283 
L 461.8 234.956283 
" style="fill:none;stroke:#f5deb3;stroke-linecap:square;stroke-width:1.5;"/>
   </g>
   <g id="line2d_25">
    <path clip-path="url(#p679cb8ef19)" style="fill:none;stroke:#f5deb3;stroke-linecap:square;stroke-width:1.5;"/>
   </g>
   <g id="line2d_26">
    <path clip-path="url(#p679cb8ef19)" style="fill:none;stroke:#f5deb3;stroke-linecap:square;stroke-width:1.5;"/>
   </g>
   <g id="line2d_27">
    <path clip-path="url(#p679cb8ef19)" d="M 414.597694 291.28 
L 414.597694 286.586357 
L 441.721864 286.586357 
L 441.721864 281.892714 
L 447.322913 281.892714 
L 447.322913 277.199071 
L 454.439097 277.199071 
L 454.439097 272.505428 
L 457.727354 272.505428 
L 457.727354 267.811784 
L 459.949659 267.811784 
L 459.949659 263.118141 
L 461.8 263.118141 
" style="fill:none;stroke:#f5deb3;stroke-linecap:square;stroke-width:1.5;"/>
   </g>
   <g id="line2d_28">
    <path clip-path="url(#p679cb8ef19)" d="M 365.464013 291.28 
L 365.464013 286.586357 
L 367.909056 286.586357 
L 367.909056 281.892714 
L 375.600536 281.892714 
L 375.600536 277.199071 
L 387.122213 277.199071 
L 387.122213 272.505428 
L 421.578535 272.505428 
L 421.578535 267.811784 
L 448.17634 267.811784 
L 448.17634 263.118141 
L 455.868566 263.118141 
L 455.868566 258.424498 
L 457.727354 258.424498 
L 457.727354 253.730855 
L 458.032099 253.730855 
L 458.032099 249.037212 
L 461.58277 249.037212 
L 461.58277 244.343569 
L 461.8 244.343569 
" style="fill:none;stroke:#f5deb3;stroke-linecap:square;stroke-width:1.5;"/>
   </g>
   <g id="line2d_29">
    <path clip-path="url(#p679cb8ef19)" d="M 309.887346 291.28 
L 309.887346 286.586357 
L 309.887346 286.586357 
L 309.887346 281.892714 
L 309.887346 281.892714 
L 309.887346 277.199071 
L 334.935173 277.199071 
L 334.935173 272.505428 
L 334.935173 272.505428 
L 334.935173 267.811784 
L 334.935173 267.811784 
L 334.935173 263.118141 
L 337.272814 263.118141 
L 337.272814 258.424498 
L 337.272814 258.424498 
L 337.272814 253.730855 
L 337.272814 253.730855 
L 337.272814 249.037212 
L 337.844445 249.037212 
L 337.844445 244.343569 
L 337.844445 244.343569 
L 337.844445 239.649926 
L 337.844445 239.649926 
L 337.844445 234.956283 
L 341.533158 234.956283 
L 341.533158 230.26264 
L 341.533158 230.26264 
L 341.533158 225.568997 
L 341.533158 225.568997 
L 341.533158 220.875353 
L 347.5281 220.875353 
L 347.5281 216.18171 
L 347.5281 216.18171 
L 347.5281 211.488067 
L 347.5281 211.488067 
L 347.5281 206.794424 
L 348.017358 206.794424 
L 348.017358 202.100781 
L 348.017358 202.100781 
L 348.017358 197.407138 
L 348.017358 197.407138 
L 348.017358 192.713495 
L 350.566875 192.713495 
L 350.566875 188.019852 
L 350.566875 188.019852 
L 350.566875 183.326209 
L 350.566875 183.326209 
L 350.566875 178.632565 
L 367.548055 178.632565 
L 367.548055 173.938922 
L 367.548055 173.938922 
L 367.548055 169.245279 
L 367.548055 169.245279 
L 367.548055 164.551636 
L 401.608369 164.551636 
L 401.608369 159.857993 
L 401.608369 159.857993 
L 401.608369 155.16435 
L 401.608369 155.16435 
L 401.608369 150.470707 
L 459.949659 150.470707 
L 459.949659 145.777064 
L 459.949659 145.777064 
L 459.949659 141.083421 
L 459.949659 141.083421 
L 459.949659 136.389777 
L 461.8 136.389777 
" style="fill:none;stroke:#f5deb3;stroke-linecap:square;stroke-width:1.5;"/>
   </g>
   <g id="line2d_30">
    <path clip-path="url(#p679cb8ef19)" style="fill:none;stroke:#f5deb3;stroke-linecap:square;stroke-width:1.5;"/>
   </g>
   <g id="matplotlib.axis_1">
    <g id="xtick_1">
     <g id="line2d_31">
      <path clip-path="url(#p679cb8ef19)" d="M 59.72 291.28 
L 59.72 6.845228 
" style="fill:none;stroke:#b0b0b0;stroke-linecap:square;stroke-width:0.8;"/>
     </g>
     <g id="line2d_32">
      <defs>
       <path d="M 0 0 
L 0 3.5 
" id="m5e848014cb" style="stroke:#000000;stroke-width:0.8;"/>
      </defs>
      <g>
       <use style="stroke:#000000;stroke-width:0.8;" x="59.72" xlink:href="#m5e848014cb" y="291.28"/>
      </g>
     </g>
     <g id="text_1">
      <!-- 0 -->
      <defs>
       <path d="M 31.78125 66.40625 
Q 24.171875 66.40625 20.328125 58.90625 
Q 16.5 51.421875 16.5 36.375 
Q 16.5 21.390625 20.328125 13.890625 
Q 24.171875 6.390625 31.78125 6.390625 
Q 39.453125 6.390625 43.28125 13.890625 
Q 47.125 21.390625 47.125 36.375 
Q 47.125 51.421875 43.28125 58.90625 
Q 39.453125 66.40625 31.78125 66.40625 
z
M 31.78125 74.21875 
Q 44.046875 74.21875 50.515625 64.515625 
Q 56.984375 54.828125 56.984375 36.375 
Q 56.984375 17.96875 50.515625 8.265625 
Q 44.046875 -1.421875 31.78125 -1.421875 
Q 19.53125 -1.421875 13.0625 8.265625 
Q 6.59375 17.96875 6.59375 36.375 
Q 6.59375 54.828125 13.0625 64.515625 
Q 19.53125 74.21875 31.78125 74.21875 
z
" id="DejaVuSans-30"/>
      </defs>
      <g transform="translate(53.3575 313.476875)scale(0.2 -0.2)">
       <use xlink:href="#DejaVuSans-30"/>
      </g>
     </g>
    </g>
    <g id="xtick_2">
     <g id="line2d_33">
      <path clip-path="url(#p679cb8ef19)" d="M 210.865874 291.28 
L 210.865874 6.845228 
" style="fill:none;stroke:#b0b0b0;stroke-linecap:square;stroke-width:0.8;"/>
     </g>
     <g id="line2d_34">
      <g>
       <use style="stroke:#000000;stroke-width:0.8;" x="210.865874" xlink:href="#m5e848014cb" y="291.28"/>
      </g>
     </g>
     <g id="text_2">
      <!-- 1 -->
      <defs>
       <path d="M 12.40625 8.296875 
L 28.515625 8.296875 
L 28.515625 63.921875 
L 10.984375 60.40625 
L 10.984375 69.390625 
L 28.421875 72.90625 
L 38.28125 72.90625 
L 38.28125 8.296875 
L 54.390625 8.296875 
L 54.390625 0 
L 12.40625 0 
z
" id="DejaVuSans-31"/>
      </defs>
      <g transform="translate(204.503374 313.476875)scale(0.2 -0.2)">
       <use xlink:href="#DejaVuSans-31"/>
      </g>
     </g>
    </g>
    <g id="xtick_3">
     <g id="line2d_35">
      <path clip-path="url(#p679cb8ef19)" d="M 362.011749 291.28 
L 362.011749 6.845228 
" style="fill:none;stroke:#b0b0b0;stroke-linecap:square;stroke-width:0.8;"/>
     </g>
     <g id="line2d_36">
      <g>
       <use style="stroke:#000000;stroke-width:0.8;" x="362.011749" xlink:href="#m5e848014cb" y="291.28"/>
      </g>
     </g>
     <g id="text_3">
      <!-- 2 -->
      <defs>
       <path d="M 19.1875 8.296875 
L 53.609375 8.296875 
L 53.609375 0 
L 7.328125 0 
L 7.328125 8.296875 
Q 12.9375 14.109375 22.625 23.890625 
Q 32.328125 33.6875 34.8125 36.53125 
Q 39.546875 41.84375 41.421875 45.53125 
Q 43.3125 49.21875 43.3125 52.78125 
Q 43.3125 58.59375 39.234375 62.25 
Q 35.15625 65.921875 28.609375 65.921875 
Q 23.96875 65.921875 18.8125 64.3125 
Q 13.671875 62.703125 7.8125 59.421875 
L 7.8125 69.390625 
Q 13.765625 71.78125 18.9375 73 
Q 24.125 74.21875 28.421875 74.21875 
Q 39.75 74.21875 46.484375 68.546875 
Q 53.21875 62.890625 53.21875 53.421875 
Q 53.21875 48.921875 51.53125 44.890625 
Q 49.859375 40.875 45.40625 35.40625 
Q 44.1875 33.984375 37.640625 27.21875 
Q 31.109375 20.453125 19.1875 8.296875 
z
" id="DejaVuSans-32"/>
      </defs>
      <g transform="translate(355.649249 313.476875)scale(0.2 -0.2)">
       <use xlink:href="#DejaVuSans-32"/>
      </g>
     </g>
    </g>
    <g id="xtick_4">
     <g id="line2d_37">
      <defs>
       <path d="M 0 0 
L 0 2 
" id="mafd38432b6" style="stroke:#000000;stroke-width:0.6;"/>
      </defs>
      <g>
       <use style="stroke:#000000;stroke-width:0.6;" x="105.219442" xlink:href="#mafd38432b6" y="291.28"/>
      </g>
     </g>
    </g>
    <g id="xtick_5">
     <g id="line2d_38">
      <g>
       <use style="stroke:#000000;stroke-width:0.6;" x="131.834909" xlink:href="#mafd38432b6" y="291.28"/>
      </g>
     </g>
    </g>
    <g id="xtick_6">
     <g id="line2d_39">
      <g>
       <use style="stroke:#000000;stroke-width:0.6;" x="150.718884" xlink:href="#mafd38432b6" y="291.28"/>
      </g>
     </g>
    </g>
    <g id="xtick_7">
     <g id="line2d_40">
      <g>
       <use style="stroke:#000000;stroke-width:0.6;" x="165.366433" xlink:href="#mafd38432b6" y="291.28"/>
      </g>
     </g>
    </g>
    <g id="xtick_8">
     <g id="line2d_41">
      <g>
       <use style="stroke:#000000;stroke-width:0.6;" x="177.334351" xlink:href="#mafd38432b6" y="291.28"/>
      </g>
     </g>
    </g>
    <g id="xtick_9">
     <g id="line2d_42">
      <g>
       <use style="stroke:#000000;stroke-width:0.6;" x="187.453082" xlink:href="#mafd38432b6" y="291.28"/>
      </g>
     </g>
    </g>
    <g id="xtick_10">
     <g id="line2d_43">
      <g>
       <use style="stroke:#000000;stroke-width:0.6;" x="196.218326" xlink:href="#mafd38432b6" y="291.28"/>
      </g>
     </g>
    </g>
    <g id="xtick_11">
     <g id="line2d_44">
      <g>
       <use style="stroke:#000000;stroke-width:0.6;" x="203.949819" xlink:href="#mafd38432b6" y="291.28"/>
      </g>
     </g>
    </g>
    <g id="xtick_12">
     <g id="line2d_45">
      <g>
       <use style="stroke:#000000;stroke-width:0.6;" x="256.365316" xlink:href="#mafd38432b6" y="291.28"/>
      </g>
     </g>
    </g>
    <g id="xtick_13">
     <g id="line2d_46">
      <g>
       <use style="stroke:#000000;stroke-width:0.6;" x="282.980784" xlink:href="#mafd38432b6" y="291.28"/>
      </g>
     </g>
    </g>
    <g id="xtick_14">
     <g id="line2d_47">
      <g>
       <use style="stroke:#000000;stroke-width:0.6;" x="301.864758" xlink:href="#mafd38432b6" y="291.28"/>
      </g>
     </g>
    </g>
    <g id="xtick_15">
     <g id="line2d_48">
      <g>
       <use style="stroke:#000000;stroke-width:0.6;" x="316.512307" xlink:href="#mafd38432b6" y="291.28"/>
      </g>
     </g>
    </g>
    <g id="xtick_16">
     <g id="line2d_49">
      <g>
       <use style="stroke:#000000;stroke-width:0.6;" x="328.480226" xlink:href="#mafd38432b6" y="291.28"/>
      </g>
     </g>
    </g>
    <g id="xtick_17">
     <g id="line2d_50">
      <g>
       <use style="stroke:#000000;stroke-width:0.6;" x="338.598957" xlink:href="#mafd38432b6" y="291.28"/>
      </g>
     </g>
    </g>
    <g id="xtick_18">
     <g id="line2d_51">
      <g>
       <use style="stroke:#000000;stroke-width:0.6;" x="347.3642" xlink:href="#mafd38432b6" y="291.28"/>
      </g>
     </g>
    </g>
    <g id="xtick_19">
     <g id="line2d_52">
      <g>
       <use style="stroke:#000000;stroke-width:0.6;" x="355.095693" xlink:href="#mafd38432b6" y="291.28"/>
      </g>
     </g>
    </g>
    <g id="xtick_20">
     <g id="line2d_53">
      <g>
       <use style="stroke:#000000;stroke-width:0.6;" x="407.511191" xlink:href="#mafd38432b6" y="291.28"/>
      </g>
     </g>
    </g>
    <g id="xtick_21">
     <g id="line2d_54">
      <g>
       <use style="stroke:#000000;stroke-width:0.6;" x="434.126658" xlink:href="#mafd38432b6" y="291.28"/>
      </g>
     </g>
    </g>
    <g id="text_4">
     <!-- log10 of FEvals / DIM -->
     <defs>
      <path d="M 9.421875 75.984375 
L 18.40625 75.984375 
L 18.40625 0 
L 9.421875 0 
z
" id="DejaVuSans-6c"/>
      <path d="M 30.609375 48.390625 
Q 23.390625 48.390625 19.1875 42.75 
Q 14.984375 37.109375 14.984375 27.296875 
Q 14.984375 17.484375 19.15625 11.84375 
Q 23.34375 6.203125 30.609375 6.203125 
Q 37.796875 6.203125 41.984375 11.859375 
Q 46.1875 17.53125 46.1875 27.296875 
Q 46.1875 37.015625 41.984375 42.703125 
Q 37.796875 48.390625 30.609375 48.390625 
z
M 30.609375 56 
Q 42.328125 56 49.015625 48.375 
Q 55.71875 40.765625 55.71875 27.296875 
Q 55.71875 13.875 49.015625 6.21875 
Q 42.328125 -1.421875 30.609375 -1.421875 
Q 18.84375 -1.421875 12.171875 6.21875 
Q 5.515625 13.875 5.515625 27.296875 
Q 5.515625 40.765625 12.171875 48.375 
Q 18.84375 56 30.609375 56 
z
" id="DejaVuSans-6f"/>
      <path d="M 45.40625 27.984375 
Q 45.40625 37.75 41.375 43.109375 
Q 37.359375 48.484375 30.078125 48.484375 
Q 22.859375 48.484375 18.828125 43.109375 
Q 14.796875 37.75 14.796875 27.984375 
Q 14.796875 18.265625 18.828125 12.890625 
Q 22.859375 7.515625 30.078125 7.515625 
Q 37.359375 7.515625 41.375 12.890625 
Q 45.40625 18.265625 45.40625 27.984375 
z
M 54.390625 6.78125 
Q 54.390625 -7.171875 48.1875 -13.984375 
Q 42 -20.796875 29.203125 -20.796875 
Q 24.46875 -20.796875 20.265625 -20.09375 
Q 16.0625 -19.390625 12.109375 -17.921875 
L 12.109375 -9.1875 
Q 16.0625 -11.328125 19.921875 -12.34375 
Q 23.78125 -13.375 27.78125 -13.375 
Q 36.625 -13.375 41.015625 -8.765625 
Q 45.40625 -4.15625 45.40625 5.171875 
L 45.40625 9.625 
Q 42.625 4.78125 38.28125 2.390625 
Q 33.9375 0 27.875 0 
Q 17.828125 0 11.671875 7.65625 
Q 5.515625 15.328125 5.515625 27.984375 
Q 5.515625 40.671875 11.671875 48.328125 
Q 17.828125 56 27.875 56 
Q 33.9375 56 38.28125 53.609375 
Q 42.625 51.21875 45.40625 46.390625 
L 45.40625 54.6875 
L 54.390625 54.6875 
z
" id="DejaVuSans-67"/>
      <path id="DejaVuSans-20"/>
      <path d="M 37.109375 75.984375 
L 37.109375 68.5 
L 28.515625 68.5 
Q 23.6875 68.5 21.796875 66.546875 
Q 19.921875 64.59375 19.921875 59.515625 
L 19.921875 54.6875 
L 34.71875 54.6875 
L 34.71875 47.703125 
L 19.921875 47.703125 
L 19.921875 0 
L 10.890625 0 
L 10.890625 47.703125 
L 2.296875 47.703125 
L 2.296875 54.6875 
L 10.890625 54.6875 
L 10.890625 58.5 
Q 10.890625 67.625 15.140625 71.796875 
Q 19.390625 75.984375 28.609375 75.984375 
z
" id="DejaVuSans-66"/>
      <path d="M 9.8125 72.90625 
L 51.703125 72.90625 
L 51.703125 64.59375 
L 19.671875 64.59375 
L 19.671875 43.109375 
L 48.578125 43.109375 
L 48.578125 34.8125 
L 19.671875 34.8125 
L 19.671875 0 
L 9.8125 0 
z
" id="DejaVuSans-46"/>
      <path d="M 9.8125 72.90625 
L 55.90625 72.90625 
L 55.90625 64.59375 
L 19.671875 64.59375 
L 19.671875 43.015625 
L 54.390625 43.015625 
L 54.390625 34.71875 
L 19.671875 34.71875 
L 19.671875 8.296875 
L 56.78125 8.296875 
L 56.78125 0 
L 9.8125 0 
z
" id="DejaVuSans-45"/>
      <path d="M 2.984375 54.6875 
L 12.5 54.6875 
L 29.59375 8.796875 
L 46.6875 54.6875 
L 56.203125 54.6875 
L 35.6875 0 
L 23.484375 0 
z
" id="DejaVuSans-76"/>
      <path d="M 34.28125 27.484375 
Q 23.390625 27.484375 19.1875 25 
Q 14.984375 22.515625 14.984375 16.5 
Q 14.984375 11.71875 18.140625 8.90625 
Q 21.296875 6.109375 26.703125 6.109375 
Q 34.1875 6.109375 38.703125 11.40625 
Q 43.21875 16.703125 43.21875 25.484375 
L 43.21875 27.484375 
z
M 52.203125 31.203125 
L 52.203125 0 
L 43.21875 0 
L 43.21875 8.296875 
Q 40.140625 3.328125 35.546875 0.953125 
Q 30.953125 -1.421875 24.3125 -1.421875 
Q 15.921875 -1.421875 10.953125 3.296875 
Q 6 8.015625 6 15.921875 
Q 6 25.140625 12.171875 29.828125 
Q 18.359375 34.515625 30.609375 34.515625 
L 43.21875 34.515625 
L 43.21875 35.40625 
Q 43.21875 41.609375 39.140625 45 
Q 35.0625 48.390625 27.6875 48.390625 
Q 23 48.390625 18.546875 47.265625 
Q 14.109375 46.140625 10.015625 43.890625 
L 10.015625 52.203125 
Q 14.9375 54.109375 19.578125 55.046875 
Q 24.21875 56 28.609375 56 
Q 40.484375 56 46.34375 49.84375 
Q 52.203125 43.703125 52.203125 31.203125 
z
" id="DejaVuSans-61"/>
      <path d="M 44.28125 53.078125 
L 44.28125 44.578125 
Q 40.484375 46.53125 36.375 47.5 
Q 32.28125 48.484375 27.875 48.484375 
Q 21.1875 48.484375 17.84375 46.4375 
Q 14.5 44.390625 14.5 40.28125 
Q 14.5 37.15625 16.890625 35.375 
Q 19.28125 33.59375 26.515625 31.984375 
L 29.59375 31.296875 
Q 39.15625 29.25 43.1875 25.515625 
Q 47.21875 21.78125 47.21875 15.09375 
Q 47.21875 7.46875 41.1875 3.015625 
Q 35.15625 -1.421875 24.609375 -1.421875 
Q 20.21875 -1.421875 15.453125 -0.5625 
Q 10.6875 0.296875 5.421875 2 
L 5.421875 11.28125 
Q 10.40625 8.6875 15.234375 7.390625 
Q 20.0625 6.109375 24.8125 6.109375 
Q 31.15625 6.109375 34.5625 8.28125 
Q 37.984375 10.453125 37.984375 14.40625 
Q 37.984375 18.0625 35.515625 20.015625 
Q 33.0625 21.96875 24.703125 23.78125 
L 21.578125 24.515625 
Q 13.234375 26.265625 9.515625 29.90625 
Q 5.8125 33.546875 5.8125 39.890625 
Q 5.8125 47.609375 11.28125 51.796875 
Q 16.75 56 26.8125 56 
Q 31.78125 56 36.171875 55.265625 
Q 40.578125 54.546875 44.28125 53.078125 
z
" id="DejaVuSans-73"/>
      <path d="M 25.390625 72.90625 
L 33.6875 72.90625 
L 8.296875 -9.28125 
L 0 -9.28125 
z
" id="DejaVuSans-2f"/>
      <path d="M 19.671875 64.796875 
L 19.671875 8.109375 
L 31.59375 8.109375 
Q 46.6875 8.109375 53.6875 14.9375 
Q 60.6875 21.78125 60.6875 36.53125 
Q 60.6875 51.171875 53.6875 57.984375 
Q 46.6875 64.796875 31.59375 64.796875 
z
M 9.8125 72.90625 
L 30.078125 72.90625 
Q 51.265625 72.90625 61.171875 64.09375 
Q 71.09375 55.28125 71.09375 36.53125 
Q 71.09375 17.671875 61.125 8.828125 
Q 51.171875 0 30.078125 0 
L 9.8125 0 
z
" id="DejaVuSans-44"/>
      <path d="M 9.8125 72.90625 
L 19.671875 72.90625 
L 19.671875 0 
L 9.8125 0 
z
" id="DejaVuSans-49"/>
      <path d="M 9.8125 72.90625 
L 24.515625 72.90625 
L 43.109375 23.296875 
L 61.8125 72.90625 
L 76.515625 72.90625 
L 76.515625 0 
L 66.890625 0 
L 66.890625 64.015625 
L 48.09375 14.015625 
L 38.1875 14.015625 
L 19.390625 64.015625 
L 19.390625 0 
L 9.8125 0 
z
" id="DejaVuSans-4d"/>
     </defs>
     <g transform="translate(150.122563 336.833125)scale(0.2 -0.2)">
      <use xlink:href="#DejaVuSans-6c"/>
      <use x="27.783203" xlink:href="#DejaVuSans-6f"/>
      <use x="88.964844" xlink:href="#DejaVuSans-67"/>
      <use x="152.441406" xlink:href="#DejaVuSans-31"/>
      <use x="216.064453" xlink:href="#DejaVuSans-30"/>
      <use x="279.6875" xlink:href="#DejaVuSans-20"/>
      <use x="311.474609" xlink:href="#DejaVuSans-6f"/>
      <use x="372.65625" xlink:href="#DejaVuSans-66"/>
      <use x="407.861328" xlink:href="#DejaVuSans-20"/>
      <use x="439.648438" xlink:href="#DejaVuSans-46"/>
      <use x="497.167969" xlink:href="#DejaVuSans-45"/>
      <use x="560.351562" xlink:href="#DejaVuSans-76"/>
      <use x="619.53125" xlink:href="#DejaVuSans-61"/>
      <use x="680.810547" xlink:href="#DejaVuSans-6c"/>
      <use x="708.59375" xlink:href="#DejaVuSans-73"/>
      <use x="760.693359" xlink:href="#DejaVuSans-20"/>
      <use x="792.480469" xlink:href="#DejaVuSans-2f"/>
      <use x="826.171875" xlink:href="#DejaVuSans-20"/>
      <use x="857.958984" xlink:href="#DejaVuSans-44"/>
      <use x="934.960938" xlink:href="#DejaVuSans-49"/>
      <use x="964.453125" xlink:href="#DejaVuSans-4d"/>
     </g>
    </g>
   </g>
   <g id="matplotlib.axis_2">
    <g id="ytick_1">
     <g id="line2d_55">
      <path clip-path="url(#p679cb8ef19)" d="M 59.72 291.28 
L 450.672 291.28 
" style="fill:none;stroke:#b0b0b0;stroke-linecap:square;stroke-width:0.8;"/>
     </g>
     <g id="line2d_56">
      <defs>
       <path d="M 0 0 
L -3.5 0 
" id="m482b26330f" style="stroke:#000000;stroke-width:0.8;"/>
      </defs>
      <g>
       <use style="stroke:#000000;stroke-width:0.8;" x="59.72" xlink:href="#m482b26330f" y="291.28"/>
      </g>
     </g>
     <g id="text_5">
      <!-- 0.0 -->
      <defs>
       <path d="M 10.6875 12.40625 
L 21 12.40625 
L 21 0 
L 10.6875 0 
z
" id="DejaVuSans-2e"/>
      </defs>
      <g transform="translate(27.275 297.35875)scale(0.16 -0.16)">
       <use xlink:href="#DejaVuSans-30"/>
       <use x="63.623047" xlink:href="#DejaVuSans-2e"/>
       <use x="95.410156" xlink:href="#DejaVuSans-30"/>
      </g>
     </g>
    </g>
    <g id="ytick_2">
     <g id="line2d_57">
      <path clip-path="url(#p679cb8ef19)" d="M 59.72 234.956283 
L 450.672 234.956283 
" style="fill:none;stroke:#b0b0b0;stroke-linecap:square;stroke-width:0.8;"/>
     </g>
     <g id="line2d_58">
      <g>
       <use style="stroke:#000000;stroke-width:0.8;" x="59.72" xlink:href="#m482b26330f" y="234.956283"/>
      </g>
     </g>
     <g id="text_6">
      <!-- 0.2 -->
      <g transform="translate(27.275 241.035033)scale(0.16 -0.16)">
       <use xlink:href="#DejaVuSans-30"/>
       <use x="63.623047" xlink:href="#DejaVuSans-2e"/>
       <use x="95.410156" xlink:href="#DejaVuSans-32"/>
      </g>
     </g>
    </g>
    <g id="ytick_3">
     <g id="line2d_59">
      <path clip-path="url(#p679cb8ef19)" d="M 59.72 178.632565 
L 450.672 178.632565 
" style="fill:none;stroke:#b0b0b0;stroke-linecap:square;stroke-width:0.8;"/>
     </g>
     <g id="line2d_60">
      <g>
       <use style="stroke:#000000;stroke-width:0.8;" x="59.72" xlink:href="#m482b26330f" y="178.632565"/>
      </g>
     </g>
     <g id="text_7">
      <!-- 0.4 -->
      <defs>
       <path d="M 37.796875 64.3125 
L 12.890625 25.390625 
L 37.796875 25.390625 
z
M 35.203125 72.90625 
L 47.609375 72.90625 
L 47.609375 25.390625 
L 58.015625 25.390625 
L 58.015625 17.1875 
L 47.609375 17.1875 
L 47.609375 0 
L 37.796875 0 
L 37.796875 17.1875 
L 4.890625 17.1875 
L 4.890625 26.703125 
z
" id="DejaVuSans-34"/>
      </defs>
      <g transform="translate(27.275 184.711315)scale(0.16 -0.16)">
       <use xlink:href="#DejaVuSans-30"/>
       <use x="63.623047" xlink:href="#DejaVuSans-2e"/>
       <use x="95.410156" xlink:href="#DejaVuSans-34"/>
      </g>
     </g>
    </g>
    <g id="ytick_4">
     <g id="line2d_61">
      <path clip-path="url(#p679cb8ef19)" d="M 59.72 122.308848 
L 450.672 122.308848 
" style="fill:none;stroke:#b0b0b0;stroke-linecap:square;stroke-width:0.8;"/>
     </g>
     <g id="line2d_62">
      <g>
       <use style="stroke:#000000;stroke-width:0.8;" x="59.72" xlink:href="#m482b26330f" y="122.308848"/>
      </g>
     </g>
     <g id="text_8">
      <!-- 0.6 -->
      <defs>
       <path d="M 33.015625 40.375 
Q 26.375 40.375 22.484375 35.828125 
Q 18.609375 31.296875 18.609375 23.390625 
Q 18.609375 15.53125 22.484375 10.953125 
Q 26.375 6.390625 33.015625 6.390625 
Q 39.65625 6.390625 43.53125 10.953125 
Q 47.40625 15.53125 47.40625 23.390625 
Q 47.40625 31.296875 43.53125 35.828125 
Q 39.65625 40.375 33.015625 40.375 
z
M 52.59375 71.296875 
L 52.59375 62.3125 
Q 48.875 64.0625 45.09375 64.984375 
Q 41.3125 65.921875 37.59375 65.921875 
Q 27.828125 65.921875 22.671875 59.328125 
Q 17.53125 52.734375 16.796875 39.40625 
Q 19.671875 43.65625 24.015625 45.921875 
Q 28.375 48.1875 33.59375 48.1875 
Q 44.578125 48.1875 50.953125 41.515625 
Q 57.328125 34.859375 57.328125 23.390625 
Q 57.328125 12.15625 50.6875 5.359375 
Q 44.046875 -1.421875 33.015625 -1.421875 
Q 20.359375 -1.421875 13.671875 8.265625 
Q 6.984375 17.96875 6.984375 36.375 
Q 6.984375 53.65625 15.1875 63.9375 
Q 23.390625 74.21875 37.203125 74.21875 
Q 40.921875 74.21875 44.703125 73.484375 
Q 48.484375 72.75 52.59375 71.296875 
z
" id="DejaVuSans-36"/>
      </defs>
      <g transform="translate(27.275 128.387598)scale(0.16 -0.16)">
       <use xlink:href="#DejaVuSans-30"/>
       <use x="63.623047" xlink:href="#DejaVuSans-2e"/>
       <use x="95.410156" xlink:href="#DejaVuSans-36"/>
      </g>
     </g>
    </g>
    <g id="ytick_5">
     <g id="line2d_63">
      <path clip-path="url(#p679cb8ef19)" d="M 59.72 65.985131 
L 450.672 65.985131 
" style="fill:none;stroke:#b0b0b0;stroke-linecap:square;stroke-width:0.8;"/>
     </g>
     <g id="line2d_64">
      <g>
       <use style="stroke:#000000;stroke-width:0.8;" x="59.72" xlink:href="#m482b26330f" y="65.985131"/>
      </g>
     </g>
     <g id="text_9">
      <!-- 0.8 -->
      <defs>
       <path d="M 31.78125 34.625 
Q 24.75 34.625 20.71875 30.859375 
Q 16.703125 27.09375 16.703125 20.515625 
Q 16.703125 13.921875 20.71875 10.15625 
Q 24.75 6.390625 31.78125 6.390625 
Q 38.8125 6.390625 42.859375 10.171875 
Q 46.921875 13.96875 46.921875 20.515625 
Q 46.921875 27.09375 42.890625 30.859375 
Q 38.875 34.625 31.78125 34.625 
z
M 21.921875 38.8125 
Q 15.578125 40.375 12.03125 44.71875 
Q 8.5 49.078125 8.5 55.328125 
Q 8.5 64.0625 14.71875 69.140625 
Q 20.953125 74.21875 31.78125 74.21875 
Q 42.671875 74.21875 48.875 69.140625 
Q 55.078125 64.0625 55.078125 55.328125 
Q 55.078125 49.078125 51.53125 44.71875 
Q 48 40.375 41.703125 38.8125 
Q 48.828125 37.15625 52.796875 32.3125 
Q 56.78125 27.484375 56.78125 20.515625 
Q 56.78125 9.90625 50.3125 4.234375 
Q 43.84375 -1.421875 31.78125 -1.421875 
Q 19.734375 -1.421875 13.25 4.234375 
Q 6.78125 9.90625 6.78125 20.515625 
Q 6.78125 27.484375 10.78125 32.3125 
Q 14.796875 37.15625 21.921875 38.8125 
z
M 18.3125 54.390625 
Q 18.3125 48.734375 21.84375 45.5625 
Q 25.390625 42.390625 31.78125 42.390625 
Q 38.140625 42.390625 41.71875 45.5625 
Q 45.3125 48.734375 45.3125 54.390625 
Q 45.3125 60.0625 41.71875 63.234375 
Q 38.140625 66.40625 31.78125 66.40625 
Q 25.390625 66.40625 21.84375 63.234375 
Q 18.3125 60.0625 18.3125 54.390625 
z
" id="DejaVuSans-38"/>
      </defs>
      <g transform="translate(27.275 72.063881)scale(0.16 -0.16)">
       <use xlink:href="#DejaVuSans-30"/>
       <use x="63.623047" xlink:href="#DejaVuSans-2e"/>
       <use x="95.410156" xlink:href="#DejaVuSans-38"/>
      </g>
     </g>
    </g>
    <g id="ytick_6">
     <g id="line2d_65">
      <path clip-path="url(#p679cb8ef19)" d="M 59.72 9.661414 
L 450.672 9.661414 
" style="fill:none;stroke:#b0b0b0;stroke-linecap:square;stroke-width:0.8;"/>
     </g>
     <g id="line2d_66">
      <g>
       <use style="stroke:#000000;stroke-width:0.8;" x="59.72" xlink:href="#m482b26330f" y="9.661414"/>
      </g>
     </g>
     <g id="text_10">
      <!-- 1.0 -->
      <g transform="translate(27.275 15.740164)scale(0.16 -0.16)">
       <use xlink:href="#DejaVuSans-31"/>
       <use x="63.623047" xlink:href="#DejaVuSans-2e"/>
       <use x="95.410156" xlink:href="#DejaVuSans-30"/>
      </g>
     </g>
    </g>
    <g id="text_11">
     <!-- proportion of trials -->
     <defs>
      <path d="M 18.109375 8.203125 
L 18.109375 -20.796875 
L 9.078125 -20.796875 
L 9.078125 54.6875 
L 18.109375 54.6875 
L 18.109375 46.390625 
Q 20.953125 51.265625 25.265625 53.625 
Q 29.59375 56 35.59375 56 
Q 45.5625 56 51.78125 48.09375 
Q 58.015625 40.1875 58.015625 27.296875 
Q 58.015625 14.40625 51.78125 6.484375 
Q 45.5625 -1.421875 35.59375 -1.421875 
Q 29.59375 -1.421875 25.265625 0.953125 
Q 20.953125 3.328125 18.109375 8.203125 
z
M 48.6875 27.296875 
Q 48.6875 37.203125 44.609375 42.84375 
Q 40.53125 48.484375 33.40625 48.484375 
Q 26.265625 48.484375 22.1875 42.84375 
Q 18.109375 37.203125 18.109375 27.296875 
Q 18.109375 17.390625 22.1875 11.75 
Q 26.265625 6.109375 33.40625 6.109375 
Q 40.53125 6.109375 44.609375 11.75 
Q 48.6875 17.390625 48.6875 27.296875 
z
" id="DejaVuSans-70"/>
      <path d="M 41.109375 46.296875 
Q 39.59375 47.171875 37.8125 47.578125 
Q 36.03125 48 33.890625 48 
Q 26.265625 48 22.1875 43.046875 
Q 18.109375 38.09375 18.109375 28.8125 
L 18.109375 0 
L 9.078125 0 
L 9.078125 54.6875 
L 18.109375 54.6875 
L 18.109375 46.1875 
Q 20.953125 51.171875 25.484375 53.578125 
Q 30.03125 56 36.53125 56 
Q 37.453125 56 38.578125 55.875 
Q 39.703125 55.765625 41.0625 55.515625 
z
" id="DejaVuSans-72"/>
      <path d="M 18.3125 70.21875 
L 18.3125 54.6875 
L 36.8125 54.6875 
L 36.8125 47.703125 
L 18.3125 47.703125 
L 18.3125 18.015625 
Q 18.3125 11.328125 20.140625 9.421875 
Q 21.96875 7.515625 27.59375 7.515625 
L 36.8125 7.515625 
L 36.8125 0 
L 27.59375 0 
Q 17.1875 0 13.234375 3.875 
Q 9.28125 7.765625 9.28125 18.015625 
L 9.28125 47.703125 
L 2.6875 47.703125 
L 2.6875 54.6875 
L 9.28125 54.6875 
L 9.28125 70.21875 
z
" id="DejaVuSans-74"/>
      <path d="M 9.421875 54.6875 
L 18.40625 54.6875 
L 18.40625 0 
L 9.421875 0 
z
M 9.421875 75.984375 
L 18.40625 75.984375 
L 18.40625 64.59375 
L 9.421875 64.59375 
z
" id="DejaVuSans-69"/>
      <path d="M 54.890625 33.015625 
L 54.890625 0 
L 45.90625 0 
L 45.90625 32.71875 
Q 45.90625 40.484375 42.875 44.328125 
Q 39.84375 48.1875 33.796875 48.1875 
Q 26.515625 48.1875 22.3125 43.546875 
Q 18.109375 38.921875 18.109375 30.90625 
L 18.109375 0 
L 9.078125 0 
L 9.078125 54.6875 
L 18.109375 54.6875 
L 18.109375 46.1875 
Q 21.34375 51.125 25.703125 53.5625 
Q 30.078125 56 35.796875 56 
Q 45.21875 56 50.046875 50.171875 
Q 54.890625 44.34375 54.890625 33.015625 
z
" id="DejaVuSans-6e"/>
     </defs>
     <g transform="translate(19.115625 242.290739)rotate(-90)scale(0.2 -0.2)">
      <use xlink:href="#DejaVuSans-70"/>
      <use x="63.476562" xlink:href="#DejaVuSans-72"/>
      <use x="104.558594" xlink:href="#DejaVuSans-6f"/>
      <use x="165.740234" xlink:href="#DejaVuSans-70"/>
      <use x="229.216797" xlink:href="#DejaVuSans-6f"/>
      <use x="290.398438" xlink:href="#DejaVuSans-72"/>
      <use x="331.511719" xlink:href="#DejaVuSans-74"/>
      <use x="370.720703" xlink:href="#DejaVuSans-69"/>
      <use x="398.503906" xlink:href="#DejaVuSans-6f"/>
      <use x="459.685547" xlink:href="#DejaVuSans-6e"/>
      <use x="523.064453" xlink:href="#DejaVuSans-20"/>
      <use x="554.851562" xlink:href="#DejaVuSans-6f"/>
      <use x="616.033203" xlink:href="#DejaVuSans-66"/>
      <use x="651.238281" xlink:href="#DejaVuSans-20"/>
      <use x="683.025391" xlink:href="#DejaVuSans-74"/>
      <use x="722.234375" xlink:href="#DejaVuSans-72"/>
      <use x="763.347656" xlink:href="#DejaVuSans-69"/>
      <use x="791.130859" xlink:href="#DejaVuSans-61"/>
      <use x="852.410156" xlink:href="#DejaVuSans-6c"/>
      <use x="880.193359" xlink:href="#DejaVuSans-73"/>
     </g>
    </g>
   </g>
   <g id="line2d_67">
    <path clip-path="url(#p679cb8ef19)" d="M 262.62165 291.28 
L 262.62165 286.586357 
L 263.804417 286.586357 
L 263.804417 281.892714 
L 263.804417 281.892714 
L 263.804417 277.199071 
L 290.419885 277.199071 
L 290.419885 272.505428 
L 317.035352 272.505428 
L 317.035352 267.811784 
L 317.035352 267.811784 
L 317.035352 263.118141 
L 323.006905 263.118141 
L 323.006905 258.424498 
L 343.997215 258.424498 
L 343.997215 253.730855 
L 345.025567 253.730855 
L 345.025567 249.037212 
L 348.985068 249.037212 
L 348.985068 244.343569 
L 350.253549 244.343569 
L 350.253549 239.649926 
L 351.497981 239.649926 
L 351.497981 234.956283 
L 354.509601 234.956283 
L 354.509601 230.26264 
L 358.506425 230.26264 
L 358.506425 225.568997 
L 362.011749 225.568997 
L 362.011749 220.875353 
L 363.568545 220.875353 
L 363.568545 216.18171 
L 376.764241 216.18171 
L 376.764241 211.488067 
L 384.098399 211.488067 
L 384.098399 206.794424 
L 385.764994 206.794424 
L 385.764994 202.100781 
L 385.947586 202.100781 
L 385.947586 197.407138 
L 387.568454 197.407138 
L 387.568454 192.713495 
L 393.354119 192.713495 
L 393.354119 188.019852 
L 411.459804 188.019852 
L 411.459804 183.326209 
L 419.040032 183.326209 
L 419.040032 178.632565 
L 420.34855 178.632565 
L 420.34855 173.938922 
L 434.214122 173.938922 
L 434.214122 169.245279 
L 435.168614 169.245279 
L 435.168614 164.551636 
L 436.785279 164.551636 
L 436.785279 159.857993 
L 438.034052 159.857993 
L 438.034052 155.16435 
L 446.313019 155.16435 
L 446.313019 150.470707 
L 446.313019 150.470707 
L 446.313019 150.470707 
L 450.672 150.470707 
" style="fill:none;stroke:#000000;stroke-linecap:square;stroke-width:1.5;"/>
   </g>
   <g id="line2d_68">
    <path clip-path="url(#p679cb8ef19)" style="fill:none;stroke:#000000;stroke-linecap:square;stroke-width:1.5;"/>
   </g>
   <g id="line2d_69">
    <path clip-path="url(#p679cb8ef19)" d="M 404.005867 291.28 
L 404.005867 286.586357 
L 416.227185 286.586357 
L 416.227185 281.892714 
L 425.834825 281.892714 
L 425.834825 277.199071 
L 427.113283 277.199071 
L 427.113283 272.505428 
L 429.691548 272.505428 
L 429.691548 267.811784 
L 433.067896 267.811784 
L 433.067896 263.118141 
L 449.088534 263.118141 
L 449.088534 258.424498 
L 449.088534 258.424498 
L 449.088534 258.424498 
L 450.672 258.424498 
" style="fill:none;stroke:#00bfbf;stroke-linecap:square;stroke-width:1.5;"/>
   </g>
   <g id="line2d_70">
    <path clip-path="url(#p679cb8ef19)" style="fill:none;stroke:#00bfbf;stroke-linecap:square;stroke-width:1.5;"/>
   </g>
   <g id="line2d_71">
    <path clip-path="url(#p679cb8ef19)" d="M 436.616967 291.28 
L 436.616967 286.586357 
L 438.853561 286.586357 
L 438.853561 281.892714 
L 444.245389 281.892714 
L 444.245389 277.199071 
L 444.245389 277.199071 
L 444.245389 277.199071 
L 450.672 277.199071 
" style="fill:none;stroke:#bf00bf;stroke-linecap:square;stroke-width:1.5;"/>
   </g>
   <g id="line2d_72">
    <path clip-path="url(#p679cb8ef19)" style="fill:none;stroke:#bf00bf;stroke-linecap:square;stroke-width:1.5;"/>
   </g>
   <g id="line2d_73">
    <path clip-path="url(#p679cb8ef19)" d="M 444.170327 291.28 
L 444.170327 286.586357 
L 444.170327 286.586357 
L 444.170327 286.586357 
L 450.672 286.586357 
" style="fill:none;stroke:#ff0000;stroke-linecap:square;stroke-width:3;"/>
   </g>
   <g id="line2d_74">
    <path clip-path="url(#p679cb8ef19)" style="fill:none;stroke:#ff0000;stroke-linecap:square;stroke-width:3;"/>
   </g>
   <g id="line2d_75">
    <path clip-path="url(#p679cb8ef19)" d="M 444.170327 291.28 
L 444.170327 6.845228 
" style="fill:none;stroke:#000000;stroke-linecap:square;stroke-width:1.5;"/>
   </g>
   <g id="patch_3">
    <path d="M 59.72 291.28 
L 59.72 6.845228 
" style="fill:none;stroke:#000000;stroke-linecap:square;stroke-linejoin:miter;stroke-width:0.8;"/>
   </g>
   <g id="patch_4">
    <path d="M 450.672 291.28 
L 450.672 6.845228 
" style="fill:none;stroke:#000000;stroke-linecap:square;stroke-linejoin:miter;stroke-width:0.8;"/>
   </g>
   <g id="patch_5">
    <path d="M 59.72 291.28 
L 450.672 291.28 
" style="fill:none;stroke:#000000;stroke-linecap:square;stroke-linejoin:miter;stroke-width:0.8;"/>
   </g>
   <g id="patch_6">
    <path d="M 59.72 6.845228 
L 450.672 6.845228 
" style="fill:none;stroke:#000000;stroke-linecap:square;stroke-linejoin:miter;stroke-width:0.8;"/>
   </g>
   <g id="text_12">
    <!-- {f6-f9}, 5-D -->
    <defs>
     <path d="M 51.125 -9.28125 
L 51.125 -16.3125 
L 48.09375 -16.3125 
Q 35.9375 -16.3125 31.8125 -12.6875 
Q 27.6875 -9.078125 27.6875 1.703125 
L 27.6875 13.375 
Q 27.6875 20.75 25.046875 23.578125 
Q 22.40625 26.421875 15.484375 26.421875 
L 12.5 26.421875 
L 12.5 33.40625 
L 15.484375 33.40625 
Q 22.46875 33.40625 25.078125 36.203125 
Q 27.6875 39.015625 27.6875 46.296875 
L 27.6875 58.015625 
Q 27.6875 68.796875 31.8125 72.390625 
Q 35.9375 75.984375 48.09375 75.984375 
L 51.125 75.984375 
L 51.125 69 
L 47.796875 69 
Q 40.921875 69 38.8125 66.84375 
Q 36.71875 64.703125 36.71875 57.8125 
L 36.71875 45.703125 
Q 36.71875 38.03125 34.5 34.5625 
Q 32.28125 31.109375 26.90625 29.890625 
Q 32.328125 28.5625 34.515625 25.09375 
Q 36.71875 21.625 36.71875 14.015625 
L 36.71875 1.90625 
Q 36.71875 -4.984375 38.8125 -7.125 
Q 40.921875 -9.28125 47.796875 -9.28125 
z
" id="DejaVuSans-7b"/>
     <path d="M 4.890625 31.390625 
L 31.203125 31.390625 
L 31.203125 23.390625 
L 4.890625 23.390625 
z
" id="DejaVuSans-2d"/>
     <path d="M 10.984375 1.515625 
L 10.984375 10.5 
Q 14.703125 8.734375 18.5 7.8125 
Q 22.3125 6.890625 25.984375 6.890625 
Q 35.75 6.890625 40.890625 13.453125 
Q 46.046875 20.015625 46.78125 33.40625 
Q 43.953125 29.203125 39.59375 26.953125 
Q 35.25 24.703125 29.984375 24.703125 
Q 19.046875 24.703125 12.671875 31.3125 
Q 6.296875 37.9375 6.296875 49.421875 
Q 6.296875 60.640625 12.9375 67.421875 
Q 19.578125 74.21875 30.609375 74.21875 
Q 43.265625 74.21875 49.921875 64.515625 
Q 56.59375 54.828125 56.59375 36.375 
Q 56.59375 19.140625 48.40625 8.859375 
Q 40.234375 -1.421875 26.421875 -1.421875 
Q 22.703125 -1.421875 18.890625 -0.6875 
Q 15.09375 0.046875 10.984375 1.515625 
z
M 30.609375 32.421875 
Q 37.25 32.421875 41.125 36.953125 
Q 45.015625 41.5 45.015625 49.421875 
Q 45.015625 57.28125 41.125 61.84375 
Q 37.25 66.40625 30.609375 66.40625 
Q 23.96875 66.40625 20.09375 61.84375 
Q 16.21875 57.28125 16.21875 49.421875 
Q 16.21875 41.5 20.09375 36.953125 
Q 23.96875 32.421875 30.609375 32.421875 
z
" id="DejaVuSans-39"/>
     <path d="M 12.5 -9.28125 
L 15.921875 -9.28125 
Q 22.75 -9.28125 24.828125 -7.171875 
Q 26.90625 -5.078125 26.90625 1.90625 
L 26.90625 14.015625 
Q 26.90625 21.625 29.09375 25.09375 
Q 31.296875 28.5625 36.71875 29.890625 
Q 31.296875 31.109375 29.09375 34.5625 
Q 26.90625 38.03125 26.90625 45.703125 
L 26.90625 57.8125 
Q 26.90625 64.75 24.828125 66.875 
Q 22.75 69 15.921875 69 
L 12.5 69 
L 12.5 75.984375 
L 15.578125 75.984375 
Q 27.734375 75.984375 31.8125 72.390625 
Q 35.890625 68.796875 35.890625 58.015625 
L 35.890625 46.296875 
Q 35.890625 39.015625 38.515625 36.203125 
Q 41.15625 33.40625 48.09375 33.40625 
L 51.125 33.40625 
L 51.125 26.421875 
L 48.09375 26.421875 
Q 41.15625 26.421875 38.515625 23.578125 
Q 35.890625 20.75 35.890625 13.375 
L 35.890625 1.703125 
Q 35.890625 -9.078125 31.8125 -12.6875 
Q 27.734375 -16.3125 15.578125 -16.3125 
L 12.5 -16.3125 
z
" id="DejaVuSans-7d"/>
     <path d="M 11.71875 12.40625 
L 22.015625 12.40625 
L 22.015625 4 
L 14.015625 -11.625 
L 7.71875 -11.625 
L 11.71875 4 
z
" id="DejaVuSans-2c"/>
     <path d="M 10.796875 72.90625 
L 49.515625 72.90625 
L 49.515625 64.59375 
L 19.828125 64.59375 
L 19.828125 46.734375 
Q 21.96875 47.46875 24.109375 47.828125 
Q 26.265625 48.1875 28.421875 48.1875 
Q 40.625 48.1875 47.75 41.5 
Q 54.890625 34.8125 54.890625 23.390625 
Q 54.890625 11.625 47.5625 5.09375 
Q 40.234375 -1.421875 26.90625 -1.421875 
Q 22.3125 -1.421875 17.546875 -0.640625 
Q 12.796875 0.140625 7.71875 1.703125 
L 7.71875 11.625 
Q 12.109375 9.234375 16.796875 8.0625 
Q 21.484375 6.890625 26.703125 6.890625 
Q 35.15625 6.890625 40.078125 11.328125 
Q 45.015625 15.765625 45.015625 23.390625 
Q 45.015625 31 40.078125 35.4375 
Q 35.15625 39.890625 26.703125 39.890625 
Q 22.75 39.890625 18.8125 39.015625 
Q 14.890625 38.140625 10.796875 36.28125 
z
" id="DejaVuSans-35"/>
    </defs>
    <g transform="translate(195.071 27.730798)scale(0.2 -0.2)">
     <use xlink:href="#DejaVuSans-7b"/>
     <use x="63.623047" xlink:href="#DejaVuSans-66"/>
     <use x="98.828125" xlink:href="#DejaVuSans-36"/>
     <use x="162.451172" xlink:href="#DejaVuSans-2d"/>
     <use x="198.535156" xlink:href="#DejaVuSans-66"/>
     <use x="233.740234" xlink:href="#DejaVuSans-39"/>
     <use x="297.363281" xlink:href="#DejaVuSans-7d"/>
     <use x="360.986328" xlink:href="#DejaVuSans-2c"/>
     <use x="392.773438" xlink:href="#DejaVuSans-20"/>
     <use x="424.560547" xlink:href="#DejaVuSans-35"/>
     <use x="488.183594" xlink:href="#DejaVuSans-2d"/>
     <use x="524.267578" xlink:href="#DejaVuSans-44"/>
    </g>
   </g>
   <g id="text_13">
    <!-- absolute targets -->
    <defs>
     <path d="M 48.6875 27.296875 
Q 48.6875 37.203125 44.609375 42.84375 
Q 40.53125 48.484375 33.40625 48.484375 
Q 26.265625 48.484375 22.1875 42.84375 
Q 18.109375 37.203125 18.109375 27.296875 
Q 18.109375 17.390625 22.1875 11.75 
Q 26.265625 6.109375 33.40625 6.109375 
Q 40.53125 6.109375 44.609375 11.75 
Q 48.6875 17.390625 48.6875 27.296875 
z
M 18.109375 46.390625 
Q 20.953125 51.265625 25.265625 53.625 
Q 29.59375 56 35.59375 56 
Q 45.5625 56 51.78125 48.09375 
Q 58.015625 40.1875 58.015625 27.296875 
Q 58.015625 14.40625 51.78125 6.484375 
Q 45.5625 -1.421875 35.59375 -1.421875 
Q 29.59375 -1.421875 25.265625 0.953125 
Q 20.953125 3.328125 18.109375 8.203125 
L 18.109375 0 
L 9.078125 0 
L 9.078125 75.984375 
L 18.109375 75.984375 
z
" id="DejaVuSans-62"/>
     <path d="M 8.5 21.578125 
L 8.5 54.6875 
L 17.484375 54.6875 
L 17.484375 21.921875 
Q 17.484375 14.15625 20.5 10.265625 
Q 23.53125 6.390625 29.59375 6.390625 
Q 36.859375 6.390625 41.078125 11.03125 
Q 45.3125 15.671875 45.3125 23.6875 
L 45.3125 54.6875 
L 54.296875 54.6875 
L 54.296875 0 
L 45.3125 0 
L 45.3125 8.40625 
Q 42.046875 3.421875 37.71875 1 
Q 33.40625 -1.421875 27.6875 -1.421875 
Q 18.265625 -1.421875 13.375 4.4375 
Q 8.5 10.296875 8.5 21.578125 
z
M 31.109375 56 
z
" id="DejaVuSans-75"/>
     <path d="M 56.203125 29.59375 
L 56.203125 25.203125 
L 14.890625 25.203125 
Q 15.484375 15.921875 20.484375 11.0625 
Q 25.484375 6.203125 34.421875 6.203125 
Q 39.59375 6.203125 44.453125 7.46875 
Q 49.3125 8.734375 54.109375 11.28125 
L 54.109375 2.78125 
Q 49.265625 0.734375 44.1875 -0.34375 
Q 39.109375 -1.421875 33.890625 -1.421875 
Q 20.796875 -1.421875 13.15625 6.1875 
Q 5.515625 13.8125 5.515625 26.8125 
Q 5.515625 40.234375 12.765625 48.109375 
Q 20.015625 56 32.328125 56 
Q 43.359375 56 49.78125 48.890625 
Q 56.203125 41.796875 56.203125 29.59375 
z
M 47.21875 32.234375 
Q 47.125 39.59375 43.09375 43.984375 
Q 39.0625 48.390625 32.421875 48.390625 
Q 24.90625 48.390625 20.390625 44.140625 
Q 15.875 39.890625 15.1875 32.171875 
z
" id="DejaVuSans-65"/>
    </defs>
    <g transform="translate(59.72 601.060445)scale(0.14 -0.14)">
     <use xlink:href="#DejaVuSans-61"/>
     <use x="61.279297" xlink:href="#DejaVuSans-62"/>
     <use x="124.755859" xlink:href="#DejaVuSans-73"/>
     <use x="176.855469" xlink:href="#DejaVuSans-6f"/>
     <use x="238.037109" xlink:href="#DejaVuSans-6c"/>
     <use x="265.820312" xlink:href="#DejaVuSans-75"/>
     <use x="329.199219" xlink:href="#DejaVuSans-74"/>
     <use x="368.408203" xlink:href="#DejaVuSans-65"/>
     <use x="429.931641" xlink:href="#DejaVuSans-20"/>
     <use x="461.71875" xlink:href="#DejaVuSans-74"/>
     <use x="500.927734" xlink:href="#DejaVuSans-61"/>
     <use x="562.207031" xlink:href="#DejaVuSans-72"/>
     <use x="603.304688" xlink:href="#DejaVuSans-67"/>
     <use x="666.78125" xlink:href="#DejaVuSans-65"/>
     <use x="728.304688" xlink:href="#DejaVuSans-74"/>
     <use x="767.513672" xlink:href="#DejaVuSans-73"/>
    </g>
   </g>
   <g id="text_14">
    <!-- v2.2.1.10 -->
    <g style="fill:#808080;" transform="translate(231.563188 286.355965)scale(0.1 -0.1)">
     <use xlink:href="#DejaVuSans-76"/>
     <use x="59.179688" xlink:href="#DejaVuSans-32"/>
     <use x="122.802734" xlink:href="#DejaVuSans-2e"/>
     <use x="154.589844" xlink:href="#DejaVuSans-32"/>
     <use x="218.212891" xlink:href="#DejaVuSans-2e"/>
     <use x="250" xlink:href="#DejaVuSans-31"/>
     <use x="313.623047" xlink:href="#DejaVuSans-2e"/>
     <use x="345.410156" xlink:href="#DejaVuSans-31"/>
     <use x="409.033203" xlink:href="#DejaVuSans-30"/>
    </g>
   </g>
   <g id="legend_1">
    <g id="patch_7">
     <path d="M 73.72 140.270228 
L 202.941875 140.270228 
Q 206.941875 140.270228 206.941875 136.270228 
L 206.941875 20.845228 
Q 206.941875 16.845228 202.941875 16.845228 
L 73.72 16.845228 
Q 69.72 16.845228 69.72 20.845228 
L 69.72 136.270228 
Q 69.72 140.270228 73.72 140.270228 
z
" style="fill:#ffffff;opacity:0.2;stroke:#cccccc;stroke-linejoin:miter;"/>
    </g>
    <g id="line2d_76">
     <path d="M 77.72 33.042103 
L 117.72 33.042103 
" style="fill:none;stroke:#000000;stroke-linecap:square;stroke-width:1.5;"/>
    </g>
    <g id="line2d_77"/>
    <g id="text_15">
     <!-- 1: 3/4 -->
     <defs>
      <path d="M 11.71875 12.40625 
L 22.015625 12.40625 
L 22.015625 0 
L 11.71875 0 
z
M 11.71875 51.703125 
L 22.015625 51.703125 
L 22.015625 39.3125 
L 11.71875 39.3125 
z
" id="DejaVuSans-3a"/>
      <path d="M 40.578125 39.3125 
Q 47.65625 37.796875 51.625 33 
Q 55.609375 28.21875 55.609375 21.1875 
Q 55.609375 10.40625 48.1875 4.484375 
Q 40.765625 -1.421875 27.09375 -1.421875 
Q 22.515625 -1.421875 17.65625 -0.515625 
Q 12.796875 0.390625 7.625 2.203125 
L 7.625 11.71875 
Q 11.71875 9.328125 16.59375 8.109375 
Q 21.484375 6.890625 26.8125 6.890625 
Q 36.078125 6.890625 40.9375 10.546875 
Q 45.796875 14.203125 45.796875 21.1875 
Q 45.796875 27.640625 41.28125 31.265625 
Q 36.765625 34.90625 28.71875 34.90625 
L 20.21875 34.90625 
L 20.21875 43.015625 
L 29.109375 43.015625 
Q 36.375 43.015625 40.234375 45.921875 
Q 44.09375 48.828125 44.09375 54.296875 
Q 44.09375 59.90625 40.109375 62.90625 
Q 36.140625 65.921875 28.71875 65.921875 
Q 24.65625 65.921875 20.015625 65.03125 
Q 15.375 64.15625 9.8125 62.3125 
L 9.8125 71.09375 
Q 15.4375 72.65625 20.34375 73.4375 
Q 25.25 74.21875 29.59375 74.21875 
Q 40.828125 74.21875 47.359375 69.109375 
Q 53.90625 64.015625 53.90625 55.328125 
Q 53.90625 49.265625 50.4375 45.09375 
Q 46.96875 40.921875 40.578125 39.3125 
z
" id="DejaVuSans-33"/>
     </defs>
     <g transform="translate(133.72 40.042103)scale(0.2 -0.2)">
      <use xlink:href="#DejaVuSans-31"/>
      <use x="63.623047" xlink:href="#DejaVuSans-3a"/>
      <use x="97.314453" xlink:href="#DejaVuSans-20"/>
      <use x="129.101562" xlink:href="#DejaVuSans-33"/>
      <use x="192.724609" xlink:href="#DejaVuSans-2f"/>
      <use x="226.416016" xlink:href="#DejaVuSans-34"/>
     </g>
    </g>
    <g id="line2d_78">
     <path d="M 77.72 62.398353 
L 117.72 62.398353 
" style="fill:none;stroke:#00bfbf;stroke-linecap:square;stroke-width:1.5;"/>
    </g>
    <g id="line2d_79"/>
    <g id="text_16">
     <!-- -1: 2/4 -->
     <g transform="translate(133.72 69.398353)scale(0.2 -0.2)">
      <use xlink:href="#DejaVuSans-2d"/>
      <use x="36.083984" xlink:href="#DejaVuSans-31"/>
      <use x="99.707031" xlink:href="#DejaVuSans-3a"/>
      <use x="133.398438" xlink:href="#DejaVuSans-20"/>
      <use x="165.185547" xlink:href="#DejaVuSans-32"/>
      <use x="228.808594" xlink:href="#DejaVuSans-2f"/>
      <use x="262.5" xlink:href="#DejaVuSans-34"/>
     </g>
    </g>
    <g id="line2d_80">
     <path d="M 77.72 91.754603 
L 117.72 91.754603 
" style="fill:none;stroke:#bf00bf;stroke-linecap:square;stroke-width:1.5;"/>
    </g>
    <g id="line2d_81"/>
    <g id="text_17">
     <!-- -4: 1/4 -->
     <g transform="translate(133.72 98.754603)scale(0.2 -0.2)">
      <use xlink:href="#DejaVuSans-2d"/>
      <use x="36.083984" xlink:href="#DejaVuSans-34"/>
      <use x="99.707031" xlink:href="#DejaVuSans-3a"/>
      <use x="133.398438" xlink:href="#DejaVuSans-20"/>
      <use x="165.185547" xlink:href="#DejaVuSans-31"/>
      <use x="228.808594" xlink:href="#DejaVuSans-2f"/>
      <use x="262.5" xlink:href="#DejaVuSans-34"/>
     </g>
    </g>
    <g id="line2d_82">
     <path d="M 77.72 121.110853 
L 117.72 121.110853 
" style="fill:none;stroke:#ff0000;stroke-linecap:square;stroke-width:3;"/>
    </g>
    <g id="line2d_83"/>
    <g id="text_18">
     <!-- -8: 1/4 -->
     <g transform="translate(133.72 128.110853)scale(0.2 -0.2)">
      <use xlink:href="#DejaVuSans-2d"/>
      <use x="36.083984" xlink:href="#DejaVuSans-38"/>
      <use x="99.707031" xlink:href="#DejaVuSans-3a"/>
      <use x="133.398438" xlink:href="#DejaVuSans-20"/>
      <use x="165.185547" xlink:href="#DejaVuSans-31"/>
      <use x="228.808594" xlink:href="#DejaVuSans-2f"/>
      <use x="262.5" xlink:href="#DejaVuSans-34"/>
     </g>
    </g>
   </g>
  </g>
 </g>
 <defs>
  <clipPath id="p679cb8ef19">
   <rect height="284.434772" width="390.952" x="59.72" y="6.845228"/>
  </clipPath>
 </defs>
</svg>
