<?xml version="1.0" encoding="utf-8" standalone="no"?>
<!DOCTYPE svg PUBLIC "-//W3C//DTD SVG 1.1//EN"
  "http://www.w3.org/Graphics/SVG/1.1/DTD/svg11.dtd">
<!-- Created with matplotlib (http://matplotlib.org/) -->
<svg height="345.6pt" version="1.1" viewBox="0 0 460.8 345.6" width="460.8pt" xmlns="http://www.w3.org/2000/svg" xmlns:xlink="http://www.w3.org/1999/xlink">
 <defs>
  <style type="text/css">
*{stroke-linecap:butt;stroke-linejoin:round;}
  </style>
 </defs>
 <g id="figure_1">
  <g id="patch_1">
   <path d="M 0 345.6 
L 460.8 345.6 
L 460.8 0 
L 0 0 
z
" style="fill:#ffffff;"/>
  </g>
  <g id="axes_1">
   <g id="patch_2">
    <path d="M 5.52 291.28 
L 450.672 291.28 
L 450.672 5.52 
L 5.52 5.52 
z
" style="fill:#ffffff;"/>
   </g>
   <g id="matplotlib.axis_1">
    <g id="xtick_1">
     <g id="line2d_1">
      <path clip-path="url(#p6a6079d1a7)" d="M 5.411359 291.28 
L 5.411359 5.52 
" style="fill:none;stroke:#b0b0b0;stroke-linecap:square;stroke-width:0.8;"/>
     </g>
     <g id="line2d_2">
      <defs>
       <path d="M 0 0 
L 0 3.5 
" id="m0b8a33585e" style="stroke:#000000;stroke-width:0.8;"/>
      </defs>
      <g>
       <use style="stroke:#000000;stroke-width:0.8;" x="5.411359" xlink:href="#m0b8a33585e" y="291.28"/>
      </g>
     </g>
    </g>
    <g id="xtick_2">
     <g id="line2d_3">
      <path clip-path="url(#p6a6079d1a7)" d="M 105.973064 291.28 
L 105.973064 5.52 
" style="fill:none;stroke:#b0b0b0;stroke-linecap:square;stroke-width:0.8;"/>
     </g>
     <g id="line2d_4">
      <g>
       <use style="stroke:#000000;stroke-width:0.8;" x="105.973064" xlink:href="#m0b8a33585e" y="291.28"/>
      </g>
     </g>
     <g id="text_1">
      <!-- -4 -->
      <defs>
       <path d="M 4.890625 31.390625 
L 31.203125 31.390625 
L 31.203125 23.390625 
L 4.890625 23.390625 
z
" id="DejaVuSans-2d"/>
       <path d="M 37.796875 64.3125 
L 12.890625 25.390625 
L 37.796875 25.390625 
z
M 35.203125 72.90625 
L 47.609375 72.90625 
L 47.609375 25.390625 
L 58.015625 25.390625 
L 58.015625 17.1875 
L 47.609375 17.1875 
L 47.609375 0 
L 37.796875 0 
L 37.796875 17.1875 
L 4.890625 17.1875 
L 4.890625 26.703125 
z
" id="DejaVuSans-34"/>
      </defs>
      <g transform="translate(96.002751 313.476875)scale(0.2 -0.2)">
       <use xlink:href="#DejaVuSans-2d"/>
       <use x="36.083984" xlink:href="#DejaVuSans-34"/>
      </g>
     </g>
    </g>
    <g id="xtick_3">
     <g id="line2d_5">
      <path clip-path="url(#p6a6079d1a7)" d="M 206.534769 291.28 
L 206.534769 5.52 
" style="fill:none;stroke:#b0b0b0;stroke-linecap:square;stroke-width:0.8;"/>
     </g>
     <g id="line2d_6">
      <g>
       <use style="stroke:#000000;stroke-width:0.8;" x="206.534769" xlink:href="#m0b8a33585e" y="291.28"/>
      </g>
     </g>
     <g id="text_2">
      <!-- 0 -->
      <defs>
       <path d="M 31.78125 66.40625 
Q 24.171875 66.40625 20.328125 58.90625 
Q 16.5 51.421875 16.5 36.375 
Q 16.5 21.390625 20.328125 13.890625 
Q 24.171875 6.390625 31.78125 6.390625 
Q 39.453125 6.390625 43.28125 13.890625 
Q 47.125 21.390625 47.125 36.375 
Q 47.125 51.421875 43.28125 58.90625 
Q 39.453125 66.40625 31.78125 66.40625 
z
M 31.78125 74.21875 
Q 44.046875 74.21875 50.515625 64.515625 
Q 56.984375 54.828125 56.984375 36.375 
Q 56.984375 17.96875 50.515625 8.265625 
Q 44.046875 -1.421875 31.78125 -1.421875 
Q 19.53125 -1.421875 13.0625 8.265625 
Q 6.59375 17.96875 6.59375 36.375 
Q 6.59375 54.828125 13.0625 64.515625 
Q 19.53125 74.21875 31.78125 74.21875 
z
" id="DejaVuSans-30"/>
      </defs>
      <g transform="translate(200.172269 313.476875)scale(0.2 -0.2)">
       <use xlink:href="#DejaVuSans-30"/>
      </g>
     </g>
    </g>
    <g id="xtick_4">
     <g id="line2d_7">
      <path clip-path="url(#p6a6079d1a7)" d="M 307.096474 291.28 
L 307.096474 5.52 
" style="fill:none;stroke:#b0b0b0;stroke-linecap:square;stroke-width:0.8;"/>
     </g>
     <g id="line2d_8">
      <g>
       <use style="stroke:#000000;stroke-width:0.8;" x="307.096474" xlink:href="#m0b8a33585e" y="291.28"/>
      </g>
     </g>
     <g id="text_3">
      <!-- 4 -->
      <g transform="translate(300.733974 313.476875)scale(0.2 -0.2)">
       <use xlink:href="#DejaVuSans-34"/>
      </g>
     </g>
    </g>
    <g id="xtick_5">
     <g id="line2d_9">
      <path clip-path="url(#p6a6079d1a7)" d="M 407.658179 291.28 
L 407.658179 5.52 
" style="fill:none;stroke:#b0b0b0;stroke-linecap:square;stroke-width:0.8;"/>
     </g>
     <g id="line2d_10">
      <g>
       <use style="stroke:#000000;stroke-width:0.8;" x="407.658179" xlink:href="#m0b8a33585e" y="291.28"/>
      </g>
     </g>
     <g id="text_4">
      <!-- 8 -->
      <defs>
       <path d="M 31.78125 34.625 
Q 24.75 34.625 20.71875 30.859375 
Q 16.703125 27.09375 16.703125 20.515625 
Q 16.703125 13.921875 20.71875 10.15625 
Q 24.75 6.390625 31.78125 6.390625 
Q 38.8125 6.390625 42.859375 10.171875 
Q 46.921875 13.96875 46.921875 20.515625 
Q 46.921875 27.09375 42.890625 30.859375 
Q 38.875 34.625 31.78125 34.625 
z
M 21.921875 38.8125 
Q 15.578125 40.375 12.03125 44.71875 
Q 8.5 49.078125 8.5 55.328125 
Q 8.5 64.0625 14.71875 69.140625 
Q 20.953125 74.21875 31.78125 74.21875 
Q 42.671875 74.21875 48.875 69.140625 
Q 55.078125 64.0625 55.078125 55.328125 
Q 55.078125 49.078125 51.53125 44.71875 
Q 48 40.375 41.703125 38.8125 
Q 48.828125 37.15625 52.796875 32.3125 
Q 56.78125 27.484375 56.78125 20.515625 
Q 56.78125 9.90625 50.3125 4.234375 
Q 43.84375 -1.421875 31.78125 -1.421875 
Q 19.734375 -1.421875 13.25 4.234375 
Q 6.78125 9.90625 6.78125 20.515625 
Q 6.78125 27.484375 10.78125 32.3125 
Q 14.796875 37.15625 21.921875 38.8125 
z
M 18.3125 54.390625 
Q 18.3125 48.734375 21.84375 45.5625 
Q 25.390625 42.390625 31.78125 42.390625 
Q 38.140625 42.390625 41.71875 45.5625 
Q 45.3125 48.734375 45.3125 54.390625 
Q 45.3125 60.0625 41.71875 63.234375 
Q 38.140625 66.40625 31.78125 66.40625 
Q 25.390625 66.40625 21.84375 63.234375 
Q 18.3125 60.0625 18.3125 54.390625 
z
" id="DejaVuSans-38"/>
      </defs>
      <g transform="translate(401.295679 313.476875)scale(0.2 -0.2)">
       <use xlink:href="#DejaVuSans-38"/>
      </g>
     </g>
    </g>
    <g id="text_5">
     <!-- log10 of Df -->
     <defs>
      <path d="M 9.421875 75.984375 
L 18.40625 75.984375 
L 18.40625 0 
L 9.421875 0 
z
" id="DejaVuSans-6c"/>
      <path d="M 30.609375 48.390625 
Q 23.390625 48.390625 19.1875 42.75 
Q 14.984375 37.109375 14.984375 27.296875 
Q 14.984375 17.484375 19.15625 11.84375 
Q 23.34375 6.203125 30.609375 6.203125 
Q 37.796875 6.203125 41.984375 11.859375 
Q 46.1875 17.53125 46.1875 27.296875 
Q 46.1875 37.015625 41.984375 42.703125 
Q 37.796875 48.390625 30.609375 48.390625 
z
M 30.609375 56 
Q 42.328125 56 49.015625 48.375 
Q 55.71875 40.765625 55.71875 27.296875 
Q 55.71875 13.875 49.015625 6.21875 
Q 42.328125 -1.421875 30.609375 -1.421875 
Q 18.84375 -1.421875 12.171875 6.21875 
Q 5.515625 13.875 5.515625 27.296875 
Q 5.515625 40.765625 12.171875 48.375 
Q 18.84375 56 30.609375 56 
z
" id="DejaVuSans-6f"/>
      <path d="M 45.40625 27.984375 
Q 45.40625 37.75 41.375 43.109375 
Q 37.359375 48.484375 30.078125 48.484375 
Q 22.859375 48.484375 18.828125 43.109375 
Q 14.796875 37.75 14.796875 27.984375 
Q 14.796875 18.265625 18.828125 12.890625 
Q 22.859375 7.515625 30.078125 7.515625 
Q 37.359375 7.515625 41.375 12.890625 
Q 45.40625 18.265625 45.40625 27.984375 
z
M 54.390625 6.78125 
Q 54.390625 -7.171875 48.1875 -13.984375 
Q 42 -20.796875 29.203125 -20.796875 
Q 24.46875 -20.796875 20.265625 -20.09375 
Q 16.0625 -19.390625 12.109375 -17.921875 
L 12.109375 -9.1875 
Q 16.0625 -11.328125 19.921875 -12.34375 
Q 23.78125 -13.375 27.78125 -13.375 
Q 36.625 -13.375 41.015625 -8.765625 
Q 45.40625 -4.15625 45.40625 5.171875 
L 45.40625 9.625 
Q 42.625 4.78125 38.28125 2.390625 
Q 33.9375 0 27.875 0 
Q 17.828125 0 11.671875 7.65625 
Q 5.515625 15.328125 5.515625 27.984375 
Q 5.515625 40.671875 11.671875 48.328125 
Q 17.828125 56 27.875 56 
Q 33.9375 56 38.28125 53.609375 
Q 42.625 51.21875 45.40625 46.390625 
L 45.40625 54.6875 
L 54.390625 54.6875 
z
" id="DejaVuSans-67"/>
      <path d="M 12.40625 8.296875 
L 28.515625 8.296875 
L 28.515625 63.921875 
L 10.984375 60.40625 
L 10.984375 69.390625 
L 28.421875 72.90625 
L 38.28125 72.90625 
L 38.28125 8.296875 
L 54.390625 8.296875 
L 54.390625 0 
L 12.40625 0 
z
" id="DejaVuSans-31"/>
      <path id="DejaVuSans-20"/>
      <path d="M 37.109375 75.984375 
L 37.109375 68.5 
L 28.515625 68.5 
Q 23.6875 68.5 21.796875 66.546875 
Q 19.921875 64.59375 19.921875 59.515625 
L 19.921875 54.6875 
L 34.71875 54.6875 
L 34.71875 47.703125 
L 19.921875 47.703125 
L 19.921875 0 
L 10.890625 0 
L 10.890625 47.703125 
L 2.296875 47.703125 
L 2.296875 54.6875 
L 10.890625 54.6875 
L 10.890625 58.5 
Q 10.890625 67.625 15.140625 71.796875 
Q 19.390625 75.984375 28.609375 75.984375 
z
" id="DejaVuSans-66"/>
      <path d="M 19.671875 64.796875 
L 19.671875 8.109375 
L 31.59375 8.109375 
Q 46.6875 8.109375 53.6875 14.9375 
Q 60.6875 21.78125 60.6875 36.53125 
Q 60.6875 51.171875 53.6875 57.984375 
Q 46.6875 64.796875 31.59375 64.796875 
z
M 9.8125 72.90625 
L 30.078125 72.90625 
Q 51.265625 72.90625 61.171875 64.09375 
Q 71.09375 55.28125 71.09375 36.53125 
Q 71.09375 17.671875 61.125 8.828125 
Q 51.171875 0 30.078125 0 
L 9.8125 0 
z
" id="DejaVuSans-44"/>
     </defs>
     <g transform="translate(172.910063 336.833125)scale(0.2 -0.2)">
      <use xlink:href="#DejaVuSans-6c"/>
      <use x="27.783203" xlink:href="#DejaVuSans-6f"/>
      <use x="88.964844" xlink:href="#DejaVuSans-67"/>
      <use x="152.441406" xlink:href="#DejaVuSans-31"/>
      <use x="216.064453" xlink:href="#DejaVuSans-30"/>
      <use x="279.6875" xlink:href="#DejaVuSans-20"/>
      <use x="311.474609" xlink:href="#DejaVuSans-6f"/>
      <use x="372.65625" xlink:href="#DejaVuSans-66"/>
      <use x="407.861328" xlink:href="#DejaVuSans-20"/>
      <use x="439.648438" xlink:href="#DejaVuSans-44"/>
      <use x="516.650391" xlink:href="#DejaVuSans-66"/>
     </g>
    </g>
   </g>
   <g id="matplotlib.axis_2">
    <g id="ytick_1">
     <g id="line2d_11">
      <path clip-path="url(#p6a6079d1a7)" d="M 5.52 291.28 
L 450.672 291.28 
" style="fill:none;stroke:#b0b0b0;stroke-linecap:square;stroke-width:0.8;"/>
     </g>
     <g id="line2d_12">
      <defs>
       <path d="M 0 0 
L -3.5 0 
" id="m394e73ec4a" style="stroke:#000000;stroke-width:0.8;"/>
      </defs>
      <g>
       <use style="stroke:#000000;stroke-width:0.8;" x="5.52" xlink:href="#m394e73ec4a" y="291.28"/>
      </g>
     </g>
    </g>
    <g id="ytick_2">
     <g id="line2d_13">
      <path clip-path="url(#p6a6079d1a7)" d="M 5.52 234.693861 
L 450.672 234.693861 
" style="fill:none;stroke:#b0b0b0;stroke-linecap:square;stroke-width:0.8;"/>
     </g>
     <g id="line2d_14">
      <g>
       <use style="stroke:#000000;stroke-width:0.8;" x="5.52" xlink:href="#m394e73ec4a" y="234.693861"/>
      </g>
     </g>
    </g>
    <g id="ytick_3">
     <g id="line2d_15">
      <path clip-path="url(#p6a6079d1a7)" d="M 5.52 178.107723 
L 450.672 178.107723 
" style="fill:none;stroke:#b0b0b0;stroke-linecap:square;stroke-width:0.8;"/>
     </g>
     <g id="line2d_16">
      <g>
       <use style="stroke:#000000;stroke-width:0.8;" x="5.52" xlink:href="#m394e73ec4a" y="178.107723"/>
      </g>
     </g>
    </g>
    <g id="ytick_4">
     <g id="line2d_17">
      <path clip-path="url(#p6a6079d1a7)" d="M 5.52 121.521584 
L 450.672 121.521584 
" style="fill:none;stroke:#b0b0b0;stroke-linecap:square;stroke-width:0.8;"/>
     </g>
     <g id="line2d_18">
      <g>
       <use style="stroke:#000000;stroke-width:0.8;" x="5.52" xlink:href="#m394e73ec4a" y="121.521584"/>
      </g>
     </g>
    </g>
    <g id="ytick_5">
     <g id="line2d_19">
      <path clip-path="url(#p6a6079d1a7)" d="M 5.52 64.935446 
L 450.672 64.935446 
" style="fill:none;stroke:#b0b0b0;stroke-linecap:square;stroke-width:0.8;"/>
     </g>
     <g id="line2d_20">
      <g>
       <use style="stroke:#000000;stroke-width:0.8;" x="5.52" xlink:href="#m394e73ec4a" y="64.935446"/>
      </g>
     </g>
    </g>
    <g id="ytick_6">
     <g id="line2d_21">
      <path clip-path="url(#p6a6079d1a7)" d="M 5.52 8.349307 
L 450.672 8.349307 
" style="fill:none;stroke:#b0b0b0;stroke-linecap:square;stroke-width:0.8;"/>
     </g>
     <g id="line2d_22">
      <g>
       <use style="stroke:#000000;stroke-width:0.8;" x="5.52" xlink:href="#m394e73ec4a" y="8.349307"/>
      </g>
     </g>
    </g>
   </g>
   <g id="line2d_23">
    <path clip-path="url(#p6a6079d1a7)" d="M 198.537419 291.28 
L 198.537419 287.507591 
L 207.829079 287.507591 
L 207.829079 283.735182 
L 209.599414 283.735182 
L 209.599414 279.962772 
L 209.721352 279.962772 
L 209.821545 268.645545 
L 211.164803 268.645545 
L 211.245633 261.100726 
L 211.606383 261.100726 
L 211.606383 257.328317 
L 213.574851 257.328317 
L 213.574851 253.555908 
L 213.686711 253.555908 
L 213.686711 249.783498 
L 213.998035 249.783498 
L 213.998035 246.011089 
L 214.268486 246.011089 
L 214.268486 242.23868 
L 214.685356 242.23868 
L 214.685356 238.466271 
L 215.249229 238.466271 
L 215.249229 234.693861 
L 235.80589 234.693861 
L 235.80589 230.921452 
L 240.868093 230.921452 
L 240.868093 227.149043 
L 241.270418 227.149043 
L 241.270418 223.376634 
L 243.217778 223.376634 
L 243.217778 219.604224 
L 245.445871 219.604224 
L 245.445871 215.831815 
L 246.287322 215.831815 
L 246.287322 212.059406 
L 247.377133 212.059406 
L 247.377133 208.286997 
L 247.538371 208.286997 
L 247.57904 200.742178 
L 247.658736 200.742178 
L 247.658736 196.969769 
L 248.068525 196.969769 
L 248.118667 189.42495 
L 248.221226 189.42495 
L 248.221226 185.652541 
L 248.692847 185.652541 
L 248.74358 178.107723 
L 249.004361 178.107723 
L 249.004361 174.335314 
L 250.145418 174.335314 
L 250.145418 170.562904 
L 250.306657 170.562904 
L 250.330587 163.018086 
L 250.447357 163.018086 
L 250.53893 151.700858 
L 250.925972 151.700858 
L 250.925972 147.928449 
L 251.676857 147.928449 
L 251.676857 144.15604 
L 251.842175 144.15604 
L 251.861413 136.611221 
L 252.002869 136.611221 
L 252.002869 132.838812 
L 252.184245 132.838812 
L 252.275407 125.293993 
L 252.845305 125.293993 
L 252.845305 121.521584 
L 253.634395 121.521584 
L 253.634395 117.749175 
L 263.065032 117.749175 
L 263.065032 113.976766 
L 265.629445 113.976766 
L 265.629445 110.204356 
L 266.348201 110.204356 
L 266.348201 106.431947 
L 266.887958 106.431947 
L 266.934999 95.114719 
L 267.716151 95.114719 
L 267.725423 87.569901 
L 268.27865 87.569901 
L 268.27865 83.797492 
L 268.513449 83.797492 
L 268.513449 80.025083 
L 269.427389 80.025083 
L 269.427389 76.252673 
L 269.679472 76.252673 
L 269.679472 72.480264 
L 269.906519 72.480264 
L 269.985549 64.935446 
L 270.892955 64.935446 
L 270.892955 61.163036 
L 276.205661 61.163036 
L 276.205661 57.390627 
L 281.315096 57.390627 
L 281.315096 53.618218 
L 281.717684 53.618218 
L 281.717684 49.845809 
L 286.548784 49.845809 
L 286.548784 46.073399 
L 292.775923 46.073399 
L 292.775923 42.30099 
L 295.352694 42.30099 
L 295.352694 38.528581 
L 295.901311 38.528581 
L 295.901311 34.756172 
L 296.20218 34.756172 
L 296.20218 30.983762 
L 304.547458 30.983762 
L 304.590642 23.438944 
L 306.040399 23.438944 
L 306.040399 19.666535 
L 307.067375 19.666535 
L 307.067375 15.894125 
L 307.287426 15.894125 
L 307.287426 12.121716 
L 313.66728 12.121716 
L 313.66728 8.349307 
L 313.66728 8.349307 
L 450.672 8.349307 
L 450.672 8.349307 
" style="fill:none;stroke:#ff0000;stroke-linecap:square;stroke-width:3;"/>
   </g>
   <g id="line2d_24">
    <path clip-path="url(#p6a6079d1a7)" d="M 223.848702 291.28 
L 223.848702 287.507591 
L 225.817995 287.507591 
L 225.817995 283.735182 
L 226.69721 283.735182 
L 226.69721 279.962772 
L 227.632953 279.962772 
L 227.632953 276.190363 
L 227.953834 276.190363 
L 227.953834 272.417954 
L 228.133635 272.417954 
L 228.133635 268.645545 
L 228.69209 268.645545 
L 228.69209 264.873135 
L 229.576801 264.873135 
L 229.576801 261.100726 
L 230.600968 261.100726 
L 230.600968 257.328317 
L 230.881519 257.328317 
L 230.969482 249.783498 
L 231.992018 249.783498 
L 231.992018 246.011089 
L 232.290797 246.011089 
L 232.290797 242.23868 
L 232.590112 242.23868 
L 232.590112 238.466271 
L 233.616314 238.466271 
L 233.616314 234.693861 
L 254.018917 234.693861 
L 254.018917 230.921452 
L 254.235846 230.921452 
L 254.235846 227.149043 
L 254.399099 227.149043 
L 254.461752 212.059406 
L 254.52885 212.059406 
L 254.624853 185.652541 
L 254.640583 185.652541 
L 254.718279 170.562904 
L 254.766936 170.562904 
L 254.86118 155.473267 
L 254.944291 155.473267 
L 255.028711 144.15604 
L 255.113433 144.15604 
L 255.16084 121.521584 
L 272.615424 121.521584 
L 272.615424 117.749175 
L 273.869759 117.749175 
L 273.869759 113.976766 
L 274.589006 113.976766 
L 274.589006 110.204356 
L 274.873264 110.204356 
L 274.873264 106.431947 
L 275.207255 106.431947 
L 275.207255 102.659538 
L 275.908014 102.659538 
L 275.908844 95.114719 
L 276.097112 95.114719 
L 276.097112 91.34231 
L 276.299488 91.34231 
L 276.340415 83.797492 
L 276.63315 83.797492 
L 276.63315 80.025083 
L 276.787639 80.025083 
L 276.787639 76.252673 
L 277.265924 76.252673 
L 277.265924 72.480264 
L 277.479624 72.480264 
L 277.479624 68.707855 
L 278.601464 68.707855 
L 278.601464 64.935446 
L 320.582001 64.935446 
L 320.63894 57.390627 
L 322.172223 57.390627 
L 322.172223 53.618218 
L 323.113422 53.618218 
L 323.113422 49.845809 
L 324.132541 49.845809 
L 324.150955 42.30099 
L 324.465447 42.30099 
L 324.573206 34.756172 
L 326.277157 34.756172 
L 326.277157 30.983762 
L 326.786699 30.983762 
L 326.786699 27.211353 
L 328.28636 27.211353 
L 328.28636 23.438944 
L 328.945988 23.438944 
L 328.945988 19.666535 
L 330.228826 19.666535 
L 330.228826 15.894125 
L 332.652761 15.894125 
L 332.652761 12.121716 
L 333.062724 12.121716 
L 333.062724 8.349307 
L 333.062724 8.349307 
L 450.672 8.349307 
L 450.672 8.349307 
" style="fill:none;stroke:#00bfbf;stroke-linecap:square;stroke-width:1.5;"/>
   </g>
   <g id="line2d_25">
    <path clip-path="url(#p6a6079d1a7)" d="M 223.753232 291.28 
L 223.848702 283.735182 
L 225.817995 283.735182 
L 225.817995 279.962772 
L 225.97179 279.962772 
L 225.97179 276.190363 
L 226.272452 276.190363 
L 226.272452 272.417954 
L 226.69721 272.417954 
L 226.69721 268.645545 
L 227.403531 268.645545 
L 227.463768 261.100726 
L 227.632953 261.100726 
L 227.632953 257.328317 
L 227.901694 257.328317 
L 227.901694 253.555908 
L 228.159515 253.555908 
L 228.159515 249.783498 
L 228.537438 249.783498 
L 228.537438 246.011089 
L 228.69209 246.011089 
L 228.783138 238.466271 
L 230.311824 238.466271 
L 230.311824 234.693861 
L 253.283368 234.693861 
L 253.283368 230.921452 
L 253.823696 230.921452 
L 253.823696 227.149043 
L 253.953994 227.149043 
L 254.018917 219.604224 
L 254.132422 219.604224 
L 254.235846 208.286997 
L 254.388335 208.286997 
L 254.495401 181.880132 
L 254.52885 181.880132 
L 254.624853 166.790495 
L 254.640583 166.790495 
L 254.718279 155.473267 
L 254.776137 155.473267 
L 254.776137 151.700858 
L 254.890334 151.700858 
L 254.993097 125.293993 
L 255.028711 125.293993 
L 255.028711 121.521584 
L 272.615424 121.521584 
L 272.615424 117.749175 
L 273.869759 117.749175 
L 273.869759 113.976766 
L 274.532728 113.976766 
L 274.589006 106.431947 
L 274.873264 106.431947 
L 274.873264 102.659538 
L 275.207255 102.659538 
L 275.207255 98.887129 
L 275.326225 98.887129 
L 275.331641 91.34231 
L 275.908014 91.34231 
L 275.908844 83.797492 
L 276.04348 83.797492 
L 276.097112 76.252673 
L 276.340415 76.252673 
L 276.340415 72.480264 
L 276.63315 72.480264 
L 276.63315 68.707855 
L 277.246562 68.707855 
L 277.246562 64.935446 
L 320.582001 64.935446 
L 320.63894 57.390627 
L 322.172223 57.390627 
L 322.250482 49.845809 
L 323.113422 49.845809 
L 323.113422 46.073399 
L 324.132541 46.073399 
L 324.150955 38.528581 
L 324.573206 38.528581 
L 324.573206 34.756172 
L 324.96736 34.756172 
L 324.96736 30.983762 
L 326.277157 30.983762 
L 326.277157 27.211353 
L 326.786699 27.211353 
L 326.786699 23.438944 
L 328.945988 23.438944 
L 328.945988 19.666535 
L 329.833525 19.666535 
L 329.833525 15.894125 
L 332.652761 15.894125 
L 332.652761 12.121716 
L 333.062724 12.121716 
L 333.062724 8.349307 
L 333.062724 8.349307 
L 450.672 8.349307 
L 450.672 8.349307 
" style="fill:none;stroke:#bf00bf;stroke-linecap:square;stroke-width:1.5;"/>
   </g>
   <g id="line2d_26">
    <path clip-path="url(#p6a6079d1a7)" d="M 221.192113 291.28 
L 221.192113 287.507591 
L 223.411461 287.507591 
L 223.411461 283.735182 
L 223.848702 283.735182 
L 223.848702 279.962772 
L 223.990016 279.962772 
L 223.990016 276.190363 
L 225.339616 276.190363 
L 225.339616 272.417954 
L 225.453493 272.417954 
L 225.48237 264.873135 
L 225.817995 264.873135 
L 225.873579 253.555908 
L 227.380142 253.555908 
L 227.463768 246.011089 
L 228.537438 246.011089 
L 228.537438 242.23868 
L 228.69209 242.23868 
L 228.783138 234.693861 
L 252.678532 234.693861 
L 252.678532 230.921452 
L 253.283368 230.921452 
L 253.283368 227.149043 
L 253.496119 227.149043 
L 253.587476 219.604224 
L 253.654179 219.604224 
L 253.748749 208.286997 
L 253.806338 208.286997 
L 253.867686 196.969769 
L 254.016889 196.969769 
L 254.107518 178.107723 
L 254.226395 178.107723 
L 254.317373 159.245677 
L 254.338996 159.245677 
L 254.435015 147.928449 
L 254.495401 147.928449 
L 254.575554 140.38363 
L 254.628631 140.38363 
L 254.702921 121.521584 
L 271.369026 121.521584 
L 271.369026 117.749175 
L 272.615424 117.749175 
L 272.615424 113.976766 
L 273.049353 113.976766 
L 273.049353 110.204356 
L 273.215333 110.204356 
L 273.252039 102.659538 
L 273.744092 102.659538 
L 273.744092 98.887129 
L 273.873139 98.887129 
L 273.873139 95.114719 
L 274.261636 95.114719 
L 274.261636 91.34231 
L 274.442175 91.34231 
L 274.523537 83.797492 
L 274.670478 83.797492 
L 274.777872 72.480264 
L 274.993841 72.480264 
L 274.993841 68.707855 
L 275.908014 68.707855 
L 275.908014 64.935446 
L 308.274585 64.935446 
L 308.274585 61.163036 
L 312.448483 61.163036 
L 312.448483 57.390627 
L 315.147844 57.390627 
L 315.147844 53.618218 
L 318.996344 53.618218 
L 318.996344 49.845809 
L 319.325215 49.845809 
L 319.325215 46.073399 
L 320.939748 46.073399 
L 320.939748 42.30099 
L 321.173697 42.30099 
L 321.173697 38.528581 
L 321.443859 38.528581 
L 321.443859 34.756172 
L 321.702418 34.756172 
L 321.702418 30.983762 
L 321.827539 30.983762 
L 321.827539 27.211353 
L 322.025706 27.211353 
L 322.025706 23.438944 
L 322.382778 23.438944 
L 322.382778 19.666535 
L 322.859383 19.666535 
L 322.859383 15.894125 
L 325.155528 15.894125 
L 325.155528 12.121716 
L 328.298144 12.121716 
L 328.298144 8.349307 
L 328.298144 8.349307 
L 450.672 8.349307 
L 450.672 8.349307 
" style="fill:none;stroke:#000000;stroke-linecap:square;stroke-width:1.5;"/>
   </g>
   <g id="line2d_27">
    <path clip-path="url(#p6a6079d1a7)" d="M 220.403684 291.28 
L 220.403684 287.507591 
L 220.82054 287.507591 
L 220.82054 283.735182 
L 221.192113 283.735182 
L 221.192113 279.962772 
L 222.118189 279.962772 
L 222.118189 276.190363 
L 223.324559 276.190363 
L 223.411461 268.645545 
L 223.580027 268.645545 
L 223.580027 264.873135 
L 223.848702 264.873135 
L 223.848702 261.100726 
L 223.990016 261.100726 
L 223.990016 257.328317 
L 224.362269 257.328317 
L 224.362269 253.555908 
L 224.960329 253.555908 
L 225.042971 246.011089 
L 225.453493 246.011089 
L 225.48237 238.466271 
L 225.830053 238.466271 
L 225.830053 234.693861 
L 248.307063 234.693861 
L 248.307063 230.921452 
L 250.191086 230.921452 
L 250.270929 219.604224 
L 250.398613 219.604224 
L 250.398613 215.831815 
L 250.942297 215.831815 
L 250.980893 208.286997 
L 251.054421 208.286997 
L 251.132089 200.742178 
L 251.38077 200.742178 
L 251.38077 196.969769 
L 251.741422 196.969769 
L 251.741422 193.19736 
L 251.90899 193.19736 
L 252.017263 185.652541 
L 252.148414 185.652541 
L 252.148414 181.880132 
L 252.302079 181.880132 
L 252.408223 159.245677 
L 252.435534 159.245677 
L 252.437307 151.700858 
L 252.59484 151.700858 
L 252.59484 147.928449 
L 252.758047 147.928449 
L 252.861648 140.38363 
L 252.967986 140.38363 
L 252.967986 136.611221 
L 253.118379 136.611221 
L 253.118379 132.838812 
L 253.312867 132.838812 
L 253.332597 125.293993 
L 254.096589 125.293993 
L 254.096589 121.521584 
L 267.184059 121.521584 
L 267.184059 117.749175 
L 268.221285 117.749175 
L 268.221285 113.976766 
L 268.854457 113.976766 
L 268.903607 106.431947 
L 269.323143 106.431947 
L 269.323143 102.659538 
L 269.797109 102.659538 
L 269.798365 95.114719 
L 270.427721 95.114719 
L 270.427721 91.34231 
L 270.585578 91.34231 
L 270.585578 87.569901 
L 271.116313 87.569901 
L 271.141027 80.025083 
L 271.339193 80.025083 
L 271.42468 72.480264 
L 271.659282 72.480264 
L 271.659282 68.707855 
L 272.364167 68.707855 
L 272.364167 64.935446 
L 279.33008 64.935446 
L 279.33008 61.163036 
L 293.78043 61.163036 
L 293.78043 57.390627 
L 301.792721 57.390627 
L 301.792721 53.618218 
L 302.347542 53.618218 
L 302.347542 49.845809 
L 304.058021 49.845809 
L 304.058021 46.073399 
L 307.362814 46.073399 
L 307.362814 42.30099 
L 310.502411 42.30099 
L 310.502411 38.528581 
L 310.713231 38.528581 
L 310.713231 34.756172 
L 312.32966 34.756172 
L 312.32966 30.983762 
L 312.727959 30.983762 
L 312.727959 27.211353 
L 313.734757 27.211353 
L 313.752129 19.666535 
L 315.877518 19.666535 
L 315.877518 15.894125 
L 316.595703 15.894125 
L 316.595703 12.121716 
L 317.055215 12.121716 
L 317.055215 8.349307 
L 317.055215 8.349307 
L 450.672 8.349307 
L 450.672 8.349307 
" style="fill:none;stroke:#00bfbf;stroke-linecap:square;stroke-width:1.5;"/>
   </g>
   <g id="line2d_28">
    <path clip-path="url(#p6a6079d1a7)" d="M 198.537419 291.28 
L 198.537419 287.507591 
L 207.829079 287.507591 
L 207.829079 283.735182 
L 209.599427 283.735182 
L 209.599427 279.962772 
L 209.72228 279.962772 
L 209.821545 268.645545 
L 211.164803 268.645545 
L 211.245633 261.100726 
L 211.606383 261.100726 
L 211.606383 257.328317 
L 213.574852 257.328317 
L 213.574852 253.555908 
L 213.686713 253.555908 
L 213.686713 249.783498 
L 213.998038 249.783498 
L 213.998038 246.011089 
L 214.268486 246.011089 
L 214.268486 242.23868 
L 214.685356 242.23868 
L 214.685356 238.466271 
L 215.249229 238.466271 
L 215.249229 234.693861 
L 236.018726 234.693861 
L 236.018726 230.921452 
L 242.779231 230.921452 
L 242.779231 227.149043 
L 243.431564 227.149043 
L 243.431564 223.376634 
L 245.7946 223.376634 
L 245.7946 219.604224 
L 246.288879 219.604224 
L 246.288879 215.831815 
L 247.614596 215.831815 
L 247.679486 208.286997 
L 247.814136 208.286997 
L 247.814136 204.514587 
L 247.961348 204.514587 
L 247.961348 200.742178 
L 248.1244 200.742178 
L 248.227099 193.19736 
L 248.344831 193.19736 
L 248.344831 189.42495 
L 248.743903 189.42495 
L 248.743903 185.652541 
L 248.92311 185.652541 
L 248.92311 181.880132 
L 249.084939 181.880132 
L 249.084939 178.107723 
L 250.0163 178.107723 
L 250.0163 174.335314 
L 250.185811 174.335314 
L 250.185811 170.562904 
L 250.451118 170.562904 
L 250.484023 163.018086 
L 250.567258 163.018086 
L 250.567258 159.245677 
L 250.957526 159.245677 
L 250.957526 155.473267 
L 251.351122 155.473267 
L 251.429011 147.928449 
L 251.888654 147.928449 
L 251.900636 136.611221 
L 252.335787 136.611221 
L 252.445937 129.066403 
L 252.467009 129.066403 
L 252.467009 125.293993 
L 252.907328 125.293993 
L 252.907328 121.521584 
L 253.655039 121.521584 
L 253.655039 117.749175 
L 263.288134 117.749175 
L 263.288134 113.976766 
L 265.90135 113.976766 
L 265.90135 110.204356 
L 266.350426 110.204356 
L 266.350426 106.431947 
L 266.945504 106.431947 
L 267.011804 95.114719 
L 267.717028 95.114719 
L 267.790369 87.569901 
L 268.286291 87.569901 
L 268.286291 83.797492 
L 268.513988 83.797492 
L 268.513988 80.025083 
L 269.510095 80.025083 
L 269.510095 76.252673 
L 269.97917 76.252673 
L 270.089755 64.935446 
L 270.896338 64.935446 
L 270.896338 61.163036 
L 276.233263 61.163036 
L 276.233263 57.390627 
L 286.348898 57.390627 
L 286.348898 53.618218 
L 292.783407 53.618218 
L 292.783407 49.845809 
L 293.009883 49.845809 
L 293.009883 46.073399 
L 294.22088 46.073399 
L 294.22088 42.30099 
L 295.433823 42.30099 
L 295.433823 38.528581 
L 295.933181 38.528581 
L 295.933181 34.756172 
L 306.370196 34.756172 
L 306.370196 30.983762 
L 306.953133 30.983762 
L 306.953133 27.211353 
L 307.196375 27.211353 
L 307.196375 23.438944 
L 307.653774 23.438944 
L 307.653774 19.666535 
L 307.799407 19.666535 
L 307.799407 15.894125 
L 308.26626 15.894125 
L 308.26626 12.121716 
L 313.821438 12.121716 
L 313.821438 8.349307 
L 313.821438 8.349307 
L 450.672 8.349307 
L 450.672 8.349307 
" style="fill:none;stroke:#bf00bf;stroke-linecap:square;stroke-width:1.5;"/>
   </g>
   <g id="line2d_29">
    <path clip-path="url(#p6a6079d1a7)" d="M 198.537419 291.28 
L 198.537419 287.507591 
L 207.829079 287.507591 
L 207.829079 283.735182 
L 209.599414 283.735182 
L 209.599414 279.962772 
L 209.721352 279.962772 
L 209.821545 268.645545 
L 211.164803 268.645545 
L 211.245633 261.100726 
L 211.606383 261.100726 
L 211.606383 257.328317 
L 213.574851 257.328317 
L 213.574851 253.555908 
L 213.686711 253.555908 
L 213.686711 249.783498 
L 213.998035 249.783498 
L 213.998035 246.011089 
L 214.268486 246.011089 
L 214.268486 242.23868 
L 214.685356 242.23868 
L 214.685356 238.466271 
L 215.249229 238.466271 
L 215.249229 234.693861 
L 235.80589 234.693861 
L 235.80589 230.921452 
L 240.868093 230.921452 
L 240.868093 227.149043 
L 243.430079 227.149043 
L 243.430079 223.376634 
L 245.584695 223.376634 
L 245.584695 219.604224 
L 246.287322 219.604224 
L 246.287322 215.831815 
L 247.377133 215.831815 
L 247.377133 212.059406 
L 247.538371 212.059406 
L 247.57904 204.514587 
L 247.7493 204.514587 
L 247.7493 200.742178 
L 247.933246 200.742178 
L 247.933246 196.969769 
L 248.068525 196.969769 
L 248.118667 189.42495 
L 248.227045 189.42495 
L 248.227045 185.652541 
L 248.692847 185.652541 
L 248.74358 178.107723 
L 249.034579 178.107723 
L 249.034579 174.335314 
L 250.145418 174.335314 
L 250.145418 170.562904 
L 250.306657 170.562904 
L 250.330587 163.018086 
L 250.447357 163.018086 
L 250.521057 155.473267 
L 250.925972 155.473267 
L 250.925972 151.700858 
L 251.421924 151.700858 
L 251.421924 147.928449 
L 251.676857 147.928449 
L 251.676857 144.15604 
L 251.842175 144.15604 
L 251.861413 136.611221 
L 252.002869 136.611221 
L 252.002869 132.838812 
L 252.184245 132.838812 
L 252.275407 125.293993 
L 252.845305 125.293993 
L 252.845305 121.521584 
L 253.634395 121.521584 
L 253.634395 117.749175 
L 263.065032 117.749175 
L 263.065032 113.976766 
L 265.629445 113.976766 
L 265.629445 110.204356 
L 266.348201 110.204356 
L 266.348201 106.431947 
L 266.887958 106.431947 
L 266.934999 95.114719 
L 267.716151 95.114719 
L 267.725423 87.569901 
L 268.27865 87.569901 
L 268.27865 83.797492 
L 268.513449 83.797492 
L 268.513449 80.025083 
L 269.427389 80.025083 
L 269.427389 76.252673 
L 269.679472 76.252673 
L 269.679472 72.480264 
L 269.906519 72.480264 
L 269.985549 64.935446 
L 270.892955 64.935446 
L 270.892955 61.163036 
L 276.205661 61.163036 
L 276.205661 57.390627 
L 281.717684 57.390627 
L 281.717684 53.618218 
L 286.343416 53.618218 
L 286.343416 49.845809 
L 286.548784 49.845809 
L 286.548784 46.073399 
L 292.775923 46.073399 
L 292.775923 42.30099 
L 295.352694 42.30099 
L 295.352694 38.528581 
L 295.901311 38.528581 
L 295.901311 34.756172 
L 296.20218 34.756172 
L 296.20218 30.983762 
L 304.547458 30.983762 
L 304.590642 23.438944 
L 306.88141 23.438944 
L 306.88141 19.666535 
L 307.067375 19.666535 
L 307.067375 15.894125 
L 307.287426 15.894125 
L 307.287426 12.121716 
L 313.66728 12.121716 
L 313.66728 8.349307 
L 313.66728 8.349307 
L 450.672 8.349307 
L 450.672 8.349307 
" style="fill:none;stroke:#000000;stroke-linecap:square;stroke-width:1.5;"/>
   </g>
   <g id="patch_3">
    <path d="M 5.52 291.28 
L 5.52 5.52 
" style="fill:none;stroke:#000000;stroke-linecap:square;stroke-linejoin:miter;stroke-width:0.8;"/>
   </g>
   <g id="patch_4">
    <path d="M 450.672 291.28 
L 450.672 5.52 
" style="fill:none;stroke:#000000;stroke-linecap:square;stroke-linejoin:miter;stroke-width:0.8;"/>
   </g>
   <g id="patch_5">
    <path d="M 5.52 291.28 
L 450.672 291.28 
" style="fill:none;stroke:#000000;stroke-linecap:square;stroke-linejoin:miter;stroke-width:0.8;"/>
   </g>
   <g id="patch_6">
    <path d="M 5.52 5.52 
L 450.672 5.52 
" style="fill:none;stroke:#000000;stroke-linecap:square;stroke-linejoin:miter;stroke-width:0.8;"/>
   </g>
   <g id="text_6">
    <!-- {f20-f24}, 20-D -->
    <defs>
     <path d="M 51.125 -9.28125 
L 51.125 -16.3125 
L 48.09375 -16.3125 
Q 35.9375 -16.3125 31.8125 -12.6875 
Q 27.6875 -9.078125 27.6875 1.703125 
L 27.6875 13.375 
Q 27.6875 20.75 25.046875 23.578125 
Q 22.40625 26.421875 15.484375 26.421875 
L 12.5 26.421875 
L 12.5 33.40625 
L 15.484375 33.40625 
Q 22.46875 33.40625 25.078125 36.203125 
Q 27.6875 39.015625 27.6875 46.296875 
L 27.6875 58.015625 
Q 27.6875 68.796875 31.8125 72.390625 
Q 35.9375 75.984375 48.09375 75.984375 
L 51.125 75.984375 
L 51.125 69 
L 47.796875 69 
Q 40.921875 69 38.8125 66.84375 
Q 36.71875 64.703125 36.71875 57.8125 
L 36.71875 45.703125 
Q 36.71875 38.03125 34.5 34.5625 
Q 32.28125 31.109375 26.90625 29.890625 
Q 32.328125 28.5625 34.515625 25.09375 
Q 36.71875 21.625 36.71875 14.015625 
L 36.71875 1.90625 
Q 36.71875 -4.984375 38.8125 -7.125 
Q 40.921875 -9.28125 47.796875 -9.28125 
z
" id="DejaVuSans-7b"/>
     <path d="M 19.1875 8.296875 
L 53.609375 8.296875 
L 53.609375 0 
L 7.328125 0 
L 7.328125 8.296875 
Q 12.9375 14.109375 22.625 23.890625 
Q 32.328125 33.6875 34.8125 36.53125 
Q 39.546875 41.84375 41.421875 45.53125 
Q 43.3125 49.21875 43.3125 52.78125 
Q 43.3125 58.59375 39.234375 62.25 
Q 35.15625 65.921875 28.609375 65.921875 
Q 23.96875 65.921875 18.8125 64.3125 
Q 13.671875 62.703125 7.8125 59.421875 
L 7.8125 69.390625 
Q 13.765625 71.78125 18.9375 73 
Q 24.125 74.21875 28.421875 74.21875 
Q 39.75 74.21875 46.484375 68.546875 
Q 53.21875 62.890625 53.21875 53.421875 
Q 53.21875 48.921875 51.53125 44.890625 
Q 49.859375 40.875 45.40625 35.40625 
Q 44.1875 33.984375 37.640625 27.21875 
Q 31.109375 20.453125 19.1875 8.296875 
z
" id="DejaVuSans-32"/>
     <path d="M 12.5 -9.28125 
L 15.921875 -9.28125 
Q 22.75 -9.28125 24.828125 -7.171875 
Q 26.90625 -5.078125 26.90625 1.90625 
L 26.90625 14.015625 
Q 26.90625 21.625 29.09375 25.09375 
Q 31.296875 28.5625 36.71875 29.890625 
Q 31.296875 31.109375 29.09375 34.5625 
Q 26.90625 38.03125 26.90625 45.703125 
L 26.90625 57.8125 
Q 26.90625 64.75 24.828125 66.875 
Q 22.75 69 15.921875 69 
L 12.5 69 
L 12.5 75.984375 
L 15.578125 75.984375 
Q 27.734375 75.984375 31.8125 72.390625 
Q 35.890625 68.796875 35.890625 58.015625 
L 35.890625 46.296875 
Q 35.890625 39.015625 38.515625 36.203125 
Q 41.15625 33.40625 48.09375 33.40625 
L 51.125 33.40625 
L 51.125 26.421875 
L 48.09375 26.421875 
Q 41.15625 26.421875 38.515625 23.578125 
Q 35.890625 20.75 35.890625 13.375 
L 35.890625 1.703125 
Q 35.890625 -9.078125 31.8125 -12.6875 
Q 27.734375 -16.3125 15.578125 -16.3125 
L 12.5 -16.3125 
z
" id="DejaVuSans-7d"/>
     <path d="M 11.71875 12.40625 
L 22.015625 12.40625 
L 22.015625 4 
L 14.015625 -11.625 
L 7.71875 -11.625 
L 11.71875 4 
z
" id="DejaVuSans-2c"/>
    </defs>
    <g transform="translate(283.34396 285.5648)scale(0.2 -0.2)">
     <use xlink:href="#DejaVuSans-7b"/>
     <use x="63.623047" xlink:href="#DejaVuSans-66"/>
     <use x="98.828125" xlink:href="#DejaVuSans-32"/>
     <use x="162.451172" xlink:href="#DejaVuSans-30"/>
     <use x="226.074219" xlink:href="#DejaVuSans-2d"/>
     <use x="262.158203" xlink:href="#DejaVuSans-66"/>
     <use x="297.363281" xlink:href="#DejaVuSans-32"/>
     <use x="360.986328" xlink:href="#DejaVuSans-34"/>
     <use x="424.609375" xlink:href="#DejaVuSans-7d"/>
     <use x="488.232422" xlink:href="#DejaVuSans-2c"/>
     <use x="520.019531" xlink:href="#DejaVuSans-20"/>
     <use x="551.806641" xlink:href="#DejaVuSans-32"/>
     <use x="615.429688" xlink:href="#DejaVuSans-30"/>
     <use x="679.052734" xlink:href="#DejaVuSans-2d"/>
     <use x="715.136719" xlink:href="#DejaVuSans-44"/>
    </g>
   </g>
   <g id="text_7">
    <!-- v2.2.1.10 -->
    <defs>
     <path d="M 2.984375 54.6875 
L 12.5 54.6875 
L 29.59375 8.796875 
L 46.6875 54.6875 
L 56.203125 54.6875 
L 35.6875 0 
L 23.484375 0 
z
" id="DejaVuSans-76"/>
     <path d="M 10.6875 12.40625 
L 21 12.40625 
L 21 0 
L 10.6875 0 
z
" id="DejaVuSans-2e"/>
    </defs>
    <g style="fill:#808080;" transform="translate(204.463188 286.342713)scale(0.1 -0.1)">
     <use xlink:href="#DejaVuSans-76"/>
     <use x="59.179688" xlink:href="#DejaVuSans-32"/>
     <use x="122.802734" xlink:href="#DejaVuSans-2e"/>
     <use x="154.589844" xlink:href="#DejaVuSans-32"/>
     <use x="218.212891" xlink:href="#DejaVuSans-2e"/>
     <use x="250" xlink:href="#DejaVuSans-31"/>
     <use x="313.623047" xlink:href="#DejaVuSans-2e"/>
     <use x="345.410156" xlink:href="#DejaVuSans-31"/>
     <use x="409.033203" xlink:href="#DejaVuSans-30"/>
    </g>
   </g>
  </g>
 </g>
 <defs>
  <clipPath id="p6a6079d1a7">
   <rect height="285.76" width="445.152" x="5.52" y="5.52"/>
  </clipPath>
 </defs>
</svg>
