<?xml version="1.0" encoding="utf-8" standalone="no"?>
<!DOCTYPE svg PUBLIC "-//W3C//DTD SVG 1.1//EN"
  "http://www.w3.org/Graphics/SVG/1.1/DTD/svg11.dtd">
<!-- Created with matplotlib (http://matplotlib.org/) -->
<svg height="345.6pt" version="1.1" viewBox="0 0 460.8 345.6" width="460.8pt" xmlns="http://www.w3.org/2000/svg" xmlns:xlink="http://www.w3.org/1999/xlink">
 <defs>
  <style type="text/css">
*{stroke-linecap:butt;stroke-linejoin:round;}
  </style>
 </defs>
 <g id="figure_1">
  <g id="patch_1">
   <path d="M 0 345.6 
L 460.8 345.6 
L 460.8 0 
L 0 0 
z
" style="fill:#ffffff;"/>
  </g>
  <g id="axes_1">
   <g id="patch_2">
    <path d="M 5.52 291.28 
L 450.672 291.28 
L 450.672 5.52 
L 5.52 5.52 
z
" style="fill:#ffffff;"/>
   </g>
   <g id="matplotlib.axis_1">
    <g id="xtick_1">
     <g id="line2d_1">
      <path clip-path="url(#p2fc94feb8d)" d="M 5.411359 291.28 
L 5.411359 5.52 
" style="fill:none;stroke:#b0b0b0;stroke-linecap:square;stroke-width:0.8;"/>
     </g>
     <g id="line2d_2">
      <defs>
       <path d="M 0 0 
L 0 3.5 
" id="m5ebb6859c8" style="stroke:#000000;stroke-width:0.8;"/>
      </defs>
      <g>
       <use style="stroke:#000000;stroke-width:0.8;" x="5.411359" xlink:href="#m5ebb6859c8" y="291.28"/>
      </g>
     </g>
    </g>
    <g id="xtick_2">
     <g id="line2d_3">
      <path clip-path="url(#p2fc94feb8d)" d="M 105.973064 291.28 
L 105.973064 5.52 
" style="fill:none;stroke:#b0b0b0;stroke-linecap:square;stroke-width:0.8;"/>
     </g>
     <g id="line2d_4">
      <g>
       <use style="stroke:#000000;stroke-width:0.8;" x="105.973064" xlink:href="#m5ebb6859c8" y="291.28"/>
      </g>
     </g>
     <g id="text_1">
      <!-- -4 -->
      <defs>
       <path d="M 4.890625 31.390625 
L 31.203125 31.390625 
L 31.203125 23.390625 
L 4.890625 23.390625 
z
" id="DejaVuSans-2d"/>
       <path d="M 37.796875 64.3125 
L 12.890625 25.390625 
L 37.796875 25.390625 
z
M 35.203125 72.90625 
L 47.609375 72.90625 
L 47.609375 25.390625 
L 58.015625 25.390625 
L 58.015625 17.1875 
L 47.609375 17.1875 
L 47.609375 0 
L 37.796875 0 
L 37.796875 17.1875 
L 4.890625 17.1875 
L 4.890625 26.703125 
z
" id="DejaVuSans-34"/>
      </defs>
      <g transform="translate(96.002751 313.476875)scale(0.2 -0.2)">
       <use xlink:href="#DejaVuSans-2d"/>
       <use x="36.083984" xlink:href="#DejaVuSans-34"/>
      </g>
     </g>
    </g>
    <g id="xtick_3">
     <g id="line2d_5">
      <path clip-path="url(#p2fc94feb8d)" d="M 206.534769 291.28 
L 206.534769 5.52 
" style="fill:none;stroke:#b0b0b0;stroke-linecap:square;stroke-width:0.8;"/>
     </g>
     <g id="line2d_6">
      <g>
       <use style="stroke:#000000;stroke-width:0.8;" x="206.534769" xlink:href="#m5ebb6859c8" y="291.28"/>
      </g>
     </g>
     <g id="text_2">
      <!-- 0 -->
      <defs>
       <path d="M 31.78125 66.40625 
Q 24.171875 66.40625 20.328125 58.90625 
Q 16.5 51.421875 16.5 36.375 
Q 16.5 21.390625 20.328125 13.890625 
Q 24.171875 6.390625 31.78125 6.390625 
Q 39.453125 6.390625 43.28125 13.890625 
Q 47.125 21.390625 47.125 36.375 
Q 47.125 51.421875 43.28125 58.90625 
Q 39.453125 66.40625 31.78125 66.40625 
z
M 31.78125 74.21875 
Q 44.046875 74.21875 50.515625 64.515625 
Q 56.984375 54.828125 56.984375 36.375 
Q 56.984375 17.96875 50.515625 8.265625 
Q 44.046875 -1.421875 31.78125 -1.421875 
Q 19.53125 -1.421875 13.0625 8.265625 
Q 6.59375 17.96875 6.59375 36.375 
Q 6.59375 54.828125 13.0625 64.515625 
Q 19.53125 74.21875 31.78125 74.21875 
z
" id="DejaVuSans-30"/>
      </defs>
      <g transform="translate(200.172269 313.476875)scale(0.2 -0.2)">
       <use xlink:href="#DejaVuSans-30"/>
      </g>
     </g>
    </g>
    <g id="xtick_4">
     <g id="line2d_7">
      <path clip-path="url(#p2fc94feb8d)" d="M 307.096474 291.28 
L 307.096474 5.52 
" style="fill:none;stroke:#b0b0b0;stroke-linecap:square;stroke-width:0.8;"/>
     </g>
     <g id="line2d_8">
      <g>
       <use style="stroke:#000000;stroke-width:0.8;" x="307.096474" xlink:href="#m5ebb6859c8" y="291.28"/>
      </g>
     </g>
     <g id="text_3">
      <!-- 4 -->
      <g transform="translate(300.733974 313.476875)scale(0.2 -0.2)">
       <use xlink:href="#DejaVuSans-34"/>
      </g>
     </g>
    </g>
    <g id="xtick_5">
     <g id="line2d_9">
      <path clip-path="url(#p2fc94feb8d)" d="M 407.658179 291.28 
L 407.658179 5.52 
" style="fill:none;stroke:#b0b0b0;stroke-linecap:square;stroke-width:0.8;"/>
     </g>
     <g id="line2d_10">
      <g>
       <use style="stroke:#000000;stroke-width:0.8;" x="407.658179" xlink:href="#m5ebb6859c8" y="291.28"/>
      </g>
     </g>
     <g id="text_4">
      <!-- 8 -->
      <defs>
       <path d="M 31.78125 34.625 
Q 24.75 34.625 20.71875 30.859375 
Q 16.703125 27.09375 16.703125 20.515625 
Q 16.703125 13.921875 20.71875 10.15625 
Q 24.75 6.390625 31.78125 6.390625 
Q 38.8125 6.390625 42.859375 10.171875 
Q 46.921875 13.96875 46.921875 20.515625 
Q 46.921875 27.09375 42.890625 30.859375 
Q 38.875 34.625 31.78125 34.625 
z
M 21.921875 38.8125 
Q 15.578125 40.375 12.03125 44.71875 
Q 8.5 49.078125 8.5 55.328125 
Q 8.5 64.0625 14.71875 69.140625 
Q 20.953125 74.21875 31.78125 74.21875 
Q 42.671875 74.21875 48.875 69.140625 
Q 55.078125 64.0625 55.078125 55.328125 
Q 55.078125 49.078125 51.53125 44.71875 
Q 48 40.375 41.703125 38.8125 
Q 48.828125 37.15625 52.796875 32.3125 
Q 56.78125 27.484375 56.78125 20.515625 
Q 56.78125 9.90625 50.3125 4.234375 
Q 43.84375 -1.421875 31.78125 -1.421875 
Q 19.734375 -1.421875 13.25 4.234375 
Q 6.78125 9.90625 6.78125 20.515625 
Q 6.78125 27.484375 10.78125 32.3125 
Q 14.796875 37.15625 21.921875 38.8125 
z
M 18.3125 54.390625 
Q 18.3125 48.734375 21.84375 45.5625 
Q 25.390625 42.390625 31.78125 42.390625 
Q 38.140625 42.390625 41.71875 45.5625 
Q 45.3125 48.734375 45.3125 54.390625 
Q 45.3125 60.0625 41.71875 63.234375 
Q 38.140625 66.40625 31.78125 66.40625 
Q 25.390625 66.40625 21.84375 63.234375 
Q 18.3125 60.0625 18.3125 54.390625 
z
" id="DejaVuSans-38"/>
      </defs>
      <g transform="translate(401.295679 313.476875)scale(0.2 -0.2)">
       <use xlink:href="#DejaVuSans-38"/>
      </g>
     </g>
    </g>
    <g id="text_5">
     <!-- log10 of Df -->
     <defs>
      <path d="M 9.421875 75.984375 
L 18.40625 75.984375 
L 18.40625 0 
L 9.421875 0 
z
" id="DejaVuSans-6c"/>
      <path d="M 30.609375 48.390625 
Q 23.390625 48.390625 19.1875 42.75 
Q 14.984375 37.109375 14.984375 27.296875 
Q 14.984375 17.484375 19.15625 11.84375 
Q 23.34375 6.203125 30.609375 6.203125 
Q 37.796875 6.203125 41.984375 11.859375 
Q 46.1875 17.53125 46.1875 27.296875 
Q 46.1875 37.015625 41.984375 42.703125 
Q 37.796875 48.390625 30.609375 48.390625 
z
M 30.609375 56 
Q 42.328125 56 49.015625 48.375 
Q 55.71875 40.765625 55.71875 27.296875 
Q 55.71875 13.875 49.015625 6.21875 
Q 42.328125 -1.421875 30.609375 -1.421875 
Q 18.84375 -1.421875 12.171875 6.21875 
Q 5.515625 13.875 5.515625 27.296875 
Q 5.515625 40.765625 12.171875 48.375 
Q 18.84375 56 30.609375 56 
z
" id="DejaVuSans-6f"/>
      <path d="M 45.40625 27.984375 
Q 45.40625 37.75 41.375 43.109375 
Q 37.359375 48.484375 30.078125 48.484375 
Q 22.859375 48.484375 18.828125 43.109375 
Q 14.796875 37.75 14.796875 27.984375 
Q 14.796875 18.265625 18.828125 12.890625 
Q 22.859375 7.515625 30.078125 7.515625 
Q 37.359375 7.515625 41.375 12.890625 
Q 45.40625 18.265625 45.40625 27.984375 
z
M 54.390625 6.78125 
Q 54.390625 -7.171875 48.1875 -13.984375 
Q 42 -20.796875 29.203125 -20.796875 
Q 24.46875 -20.796875 20.265625 -20.09375 
Q 16.0625 -19.390625 12.109375 -17.921875 
L 12.109375 -9.1875 
Q 16.0625 -11.328125 19.921875 -12.34375 
Q 23.78125 -13.375 27.78125 -13.375 
Q 36.625 -13.375 41.015625 -8.765625 
Q 45.40625 -4.15625 45.40625 5.171875 
L 45.40625 9.625 
Q 42.625 4.78125 38.28125 2.390625 
Q 33.9375 0 27.875 0 
Q 17.828125 0 11.671875 7.65625 
Q 5.515625 15.328125 5.515625 27.984375 
Q 5.515625 40.671875 11.671875 48.328125 
Q 17.828125 56 27.875 56 
Q 33.9375 56 38.28125 53.609375 
Q 42.625 51.21875 45.40625 46.390625 
L 45.40625 54.6875 
L 54.390625 54.6875 
z
" id="DejaVuSans-67"/>
      <path d="M 12.40625 8.296875 
L 28.515625 8.296875 
L 28.515625 63.921875 
L 10.984375 60.40625 
L 10.984375 69.390625 
L 28.421875 72.90625 
L 38.28125 72.90625 
L 38.28125 8.296875 
L 54.390625 8.296875 
L 54.390625 0 
L 12.40625 0 
z
" id="DejaVuSans-31"/>
      <path id="DejaVuSans-20"/>
      <path d="M 37.109375 75.984375 
L 37.109375 68.5 
L 28.515625 68.5 
Q 23.6875 68.5 21.796875 66.546875 
Q 19.921875 64.59375 19.921875 59.515625 
L 19.921875 54.6875 
L 34.71875 54.6875 
L 34.71875 47.703125 
L 19.921875 47.703125 
L 19.921875 0 
L 10.890625 0 
L 10.890625 47.703125 
L 2.296875 47.703125 
L 2.296875 54.6875 
L 10.890625 54.6875 
L 10.890625 58.5 
Q 10.890625 67.625 15.140625 71.796875 
Q 19.390625 75.984375 28.609375 75.984375 
z
" id="DejaVuSans-66"/>
      <path d="M 19.671875 64.796875 
L 19.671875 8.109375 
L 31.59375 8.109375 
Q 46.6875 8.109375 53.6875 14.9375 
Q 60.6875 21.78125 60.6875 36.53125 
Q 60.6875 51.171875 53.6875 57.984375 
Q 46.6875 64.796875 31.59375 64.796875 
z
M 9.8125 72.90625 
L 30.078125 72.90625 
Q 51.265625 72.90625 61.171875 64.09375 
Q 71.09375 55.28125 71.09375 36.53125 
Q 71.09375 17.671875 61.125 8.828125 
Q 51.171875 0 30.078125 0 
L 9.8125 0 
z
" id="DejaVuSans-44"/>
     </defs>
     <g transform="translate(172.910063 336.833125)scale(0.2 -0.2)">
      <use xlink:href="#DejaVuSans-6c"/>
      <use x="27.783203" xlink:href="#DejaVuSans-6f"/>
      <use x="88.964844" xlink:href="#DejaVuSans-67"/>
      <use x="152.441406" xlink:href="#DejaVuSans-31"/>
      <use x="216.064453" xlink:href="#DejaVuSans-30"/>
      <use x="279.6875" xlink:href="#DejaVuSans-20"/>
      <use x="311.474609" xlink:href="#DejaVuSans-6f"/>
      <use x="372.65625" xlink:href="#DejaVuSans-66"/>
      <use x="407.861328" xlink:href="#DejaVuSans-20"/>
      <use x="439.648438" xlink:href="#DejaVuSans-44"/>
      <use x="516.650391" xlink:href="#DejaVuSans-66"/>
     </g>
    </g>
   </g>
   <g id="matplotlib.axis_2">
    <g id="ytick_1">
     <g id="line2d_11">
      <path clip-path="url(#p2fc94feb8d)" d="M 5.52 291.28 
L 450.672 291.28 
" style="fill:none;stroke:#b0b0b0;stroke-linecap:square;stroke-width:0.8;"/>
     </g>
     <g id="line2d_12">
      <defs>
       <path d="M 0 0 
L -3.5 0 
" id="mf41e1d94c5" style="stroke:#000000;stroke-width:0.8;"/>
      </defs>
      <g>
       <use style="stroke:#000000;stroke-width:0.8;" x="5.52" xlink:href="#mf41e1d94c5" y="291.28"/>
      </g>
     </g>
    </g>
    <g id="ytick_2">
     <g id="line2d_13">
      <path clip-path="url(#p2fc94feb8d)" d="M 5.52 234.693861 
L 450.672 234.693861 
" style="fill:none;stroke:#b0b0b0;stroke-linecap:square;stroke-width:0.8;"/>
     </g>
     <g id="line2d_14">
      <g>
       <use style="stroke:#000000;stroke-width:0.8;" x="5.52" xlink:href="#mf41e1d94c5" y="234.693861"/>
      </g>
     </g>
    </g>
    <g id="ytick_3">
     <g id="line2d_15">
      <path clip-path="url(#p2fc94feb8d)" d="M 5.52 178.107723 
L 450.672 178.107723 
" style="fill:none;stroke:#b0b0b0;stroke-linecap:square;stroke-width:0.8;"/>
     </g>
     <g id="line2d_16">
      <g>
       <use style="stroke:#000000;stroke-width:0.8;" x="5.52" xlink:href="#mf41e1d94c5" y="178.107723"/>
      </g>
     </g>
    </g>
    <g id="ytick_4">
     <g id="line2d_17">
      <path clip-path="url(#p2fc94feb8d)" d="M 5.52 121.521584 
L 450.672 121.521584 
" style="fill:none;stroke:#b0b0b0;stroke-linecap:square;stroke-width:0.8;"/>
     </g>
     <g id="line2d_18">
      <g>
       <use style="stroke:#000000;stroke-width:0.8;" x="5.52" xlink:href="#mf41e1d94c5" y="121.521584"/>
      </g>
     </g>
    </g>
    <g id="ytick_5">
     <g id="line2d_19">
      <path clip-path="url(#p2fc94feb8d)" d="M 5.52 64.935446 
L 450.672 64.935446 
" style="fill:none;stroke:#b0b0b0;stroke-linecap:square;stroke-width:0.8;"/>
     </g>
     <g id="line2d_20">
      <g>
       <use style="stroke:#000000;stroke-width:0.8;" x="5.52" xlink:href="#mf41e1d94c5" y="64.935446"/>
      </g>
     </g>
    </g>
    <g id="ytick_6">
     <g id="line2d_21">
      <path clip-path="url(#p2fc94feb8d)" d="M 5.52 8.349307 
L 450.672 8.349307 
" style="fill:none;stroke:#b0b0b0;stroke-linecap:square;stroke-width:0.8;"/>
     </g>
     <g id="line2d_22">
      <g>
       <use style="stroke:#000000;stroke-width:0.8;" x="5.52" xlink:href="#mf41e1d94c5" y="8.349307"/>
      </g>
     </g>
    </g>
   </g>
   <g id="line2d_23">
    <path clip-path="url(#p2fc94feb8d)" d="M 230.371766 291.28 
L 230.371766 287.507591 
L 231.60954 287.507591 
L 231.60954 283.735182 
L 232.886695 283.735182 
L 232.886695 279.962772 
L 234.642278 279.962772 
L 234.642278 276.190363 
L 235.275554 276.190363 
L 235.275554 272.417954 
L 236.196828 272.417954 
L 236.196828 268.645545 
L 236.738448 268.645545 
L 236.738448 264.873135 
L 237.093935 264.873135 
L 237.119287 257.328317 
L 238.070771 257.328317 
L 238.070771 253.555908 
L 238.824028 253.555908 
L 238.824028 249.783498 
L 240.291549 249.783498 
L 240.291549 246.011089 
L 240.472999 246.011089 
L 240.472999 242.23868 
L 241.919669 242.23868 
L 241.919669 238.466271 
L 243.98652 238.466271 
L 243.98652 234.693861 
L 262.518297 234.693861 
L 262.518297 230.921452 
L 263.825844 230.921452 
L 263.825844 227.149043 
L 265.091756 227.149043 
L 265.091756 223.376634 
L 265.350907 223.376634 
L 265.370277 215.831815 
L 266.433466 215.831815 
L 266.433466 212.059406 
L 267.42728 212.059406 
L 267.42728 208.286997 
L 267.86869 208.286997 
L 267.86869 204.514587 
L 267.984828 204.514587 
L 267.984828 200.742178 
L 269.323553 200.742178 
L 269.323553 196.969769 
L 269.50231 196.969769 
L 269.50231 193.19736 
L 269.957897 193.19736 
L 269.957897 189.42495 
L 272.007014 189.42495 
L 272.007014 185.652541 
L 273.829964 185.652541 
L 273.890315 178.107723 
L 281.699634 178.107723 
L 281.699634 174.335314 
L 281.9348 174.335314 
L 282.015167 166.790495 
L 283.189276 166.790495 
L 283.189276 163.018086 
L 283.367607 163.018086 
L 283.399977 155.473267 
L 283.85408 155.473267 
L 283.85408 151.700858 
L 284.653488 151.700858 
L 284.653488 147.928449 
L 284.773793 147.928449 
L 284.773793 144.15604 
L 286.128091 144.15604 
L 286.128091 140.38363 
L 286.6273 140.38363 
L 286.628721 132.838812 
L 286.841468 132.838812 
L 286.891744 125.293993 
L 287.301241 125.293993 
L 287.301241 121.521584 
L 340.121925 121.521584 
L 340.121925 117.749175 
L 341.044765 117.749175 
L 341.044765 113.976766 
L 343.70015 113.976766 
L 343.70015 110.204356 
L 345.490976 110.204356 
L 345.490976 106.431947 
L 346.542639 106.431947 
L 346.542639 102.659538 
L 347.021245 102.659538 
L 347.021245 98.887129 
L 347.211137 98.887129 
L 347.211137 95.114719 
L 348.631981 95.114719 
L 348.631981 91.34231 
L 349.930322 91.34231 
L 349.930322 87.569901 
L 352.445093 87.569901 
L 352.445093 83.797492 
L 353.386247 83.797492 
L 353.386247 80.025083 
L 353.958977 80.025083 
L 353.958977 76.252673 
L 354.157603 76.252673 
L 354.157603 72.480264 
L 354.356254 72.480264 
L 354.356254 68.707855 
L 357.252877 68.707855 
L 357.252877 64.935446 
L 392.606876 64.935446 
L 392.606876 61.163036 
L 399.512674 61.163036 
L 399.512674 57.390627 
L 399.771735 57.390627 
L 399.771735 53.618218 
L 400.229338 53.618218 
L 400.245418 46.073399 
L 400.532086 46.073399 
L 400.5631 38.528581 
L 401.94669 38.528581 
L 401.94669 34.756172 
L 402.211466 34.756172 
L 402.211466 30.983762 
L 402.704609 30.983762 
L 402.704609 27.211353 
L 404.960431 27.211353 
L 404.960431 23.438944 
L 405.082799 23.438944 
L 405.082799 19.666535 
L 405.48595 19.666535 
L 405.48595 15.894125 
L 407.615092 15.894125 
L 407.615092 12.121716 
L 411.406527 12.121716 
L 411.406527 8.349307 
L 411.406527 8.349307 
L 450.672 8.349307 
L 450.672 8.349307 
" style="fill:none;stroke:#ff0000;stroke-linecap:square;stroke-width:3;"/>
   </g>
   <g id="line2d_24">
    <path clip-path="url(#p2fc94feb8d)" d="M 247.598986 291.28 
L 247.598986 287.507591 
L 249.561644 287.507591 
L 249.561644 283.735182 
L 250.480977 283.735182 
L 250.555709 276.190363 
L 250.76817 276.190363 
L 250.76817 272.417954 
L 252.005081 272.417954 
L 252.005081 268.645545 
L 252.17932 268.645545 
L 252.281015 261.100726 
L 252.366177 261.100726 
L 252.366177 257.328317 
L 252.785691 257.328317 
L 252.785691 253.555908 
L 253.385787 253.555908 
L 253.385787 249.783498 
L 254.441106 249.783498 
L 254.441106 246.011089 
L 255.575303 246.011089 
L 255.575303 242.23868 
L 256.152914 242.23868 
L 256.152914 238.466271 
L 259.280784 238.466271 
L 259.280784 234.693861 
L 289.811238 234.693861 
L 289.811238 230.921452 
L 290.817166 230.921452 
L 290.817166 227.149043 
L 291.293651 227.149043 
L 291.364746 219.604224 
L 291.519236 219.604224 
L 291.563013 212.059406 
L 292.062615 212.059406 
L 292.159693 196.969769 
L 292.608827 196.969769 
L 292.608827 193.19736 
L 292.83568 193.19736 
L 292.927981 185.652541 
L 293.276429 185.652541 
L 293.276429 181.880132 
L 293.40608 181.880132 
L 293.40608 178.107723 
L 293.871012 178.107723 
L 293.871012 174.335314 
L 302.27896 174.335314 
L 302.27896 170.562904 
L 302.980744 170.562904 
L 302.980744 166.790495 
L 306.30796 166.790495 
L 306.30796 163.018086 
L 311.403734 163.018086 
L 311.403734 159.245677 
L 318.857779 159.245677 
L 318.857779 155.473267 
L 334.654613 155.473267 
L 334.654613 151.700858 
L 335.339062 151.700858 
L 335.339062 147.928449 
L 343.706862 147.928449 
L 343.706862 144.15604 
L 344.860961 144.15604 
L 344.860961 140.38363 
L 345.361915 140.38363 
L 345.361915 136.611221 
L 348.407442 136.611221 
L 348.407442 132.838812 
L 349.263956 132.838812 
L 349.263956 129.066403 
L 360.7311 129.066403 
L 360.7311 125.293993 
L 361.856731 125.293993 
L 361.856731 121.521584 
L 368.969563 121.521584 
L 369.01981 113.976766 
L 371.85128 113.976766 
L 371.85128 110.204356 
L 372.067376 110.204356 
L 372.079718 102.659538 
L 372.887131 102.659538 
L 372.887131 98.887129 
L 374.649649 98.887129 
L 374.649649 95.114719 
L 375.35325 95.114719 
L 375.35325 91.34231 
L 375.787905 91.34231 
L 375.787905 87.569901 
L 376.346772 87.569901 
L 376.346772 83.797492 
L 376.762021 83.797492 
L 376.762021 80.025083 
L 377.510514 80.025083 
L 377.510514 76.252673 
L 378.183763 76.252673 
L 378.183763 72.480264 
L 378.679116 72.480264 
L 378.679116 68.707855 
L 384.890778 68.707855 
L 384.890778 64.935446 
L 413.062846 64.935446 
L 413.062846 61.163036 
L 413.486697 61.163036 
L 413.486697 57.390627 
L 415.97119 57.390627 
L 415.97119 53.618218 
L 417.375478 53.618218 
L 417.375478 49.845809 
L 419.218232 49.845809 
L 419.218232 46.073399 
L 419.990528 46.073399 
L 419.990528 42.30099 
L 420.970362 42.30099 
L 421.075065 34.756172 
L 422.356376 34.756172 
L 422.356376 30.983762 
L 423.924934 30.983762 
L 423.977081 23.438944 
L 425.354691 23.438944 
L 425.354691 19.666535 
L 425.88823 19.666535 
L 425.88823 15.894125 
L 430.010582 15.894125 
L 430.010582 12.121716 
L 438.665591 12.121716 
L 438.665591 8.349307 
L 438.665591 8.349307 
L 450.672 8.349307 
L 450.672 8.349307 
" style="fill:none;stroke:#00bfbf;stroke-linecap:square;stroke-width:1.5;"/>
   </g>
   <g id="line2d_25">
    <path clip-path="url(#p2fc94feb8d)" d="M 242.761181 291.28 
L 242.761181 287.507591 
L 246.733753 287.507591 
L 246.733753 283.735182 
L 247.598986 283.735182 
L 247.598986 279.962772 
L 248.496617 279.962772 
L 248.496617 276.190363 
L 248.637209 276.190363 
L 248.637209 272.417954 
L 248.917774 272.417954 
L 248.917774 268.645545 
L 249.574905 268.645545 
L 249.582202 261.100726 
L 250.079869 261.100726 
L 250.079869 257.328317 
L 250.76817 257.328317 
L 250.76817 253.555908 
L 251.564153 253.555908 
L 251.564153 249.783498 
L 253.065899 249.783498 
L 253.065899 246.011089 
L 253.9187 246.011089 
L 253.9187 242.23868 
L 255.563662 242.23868 
L 255.563662 238.466271 
L 256.152914 238.466271 
L 256.152914 234.693861 
L 274.933838 234.693861 
L 274.933838 230.921452 
L 288.262372 230.921452 
L 288.262372 227.149043 
L 288.877876 227.149043 
L 288.877876 223.376634 
L 289.811238 223.376634 
L 289.811238 219.604224 
L 290.048399 219.604224 
L 290.132405 212.059406 
L 290.443999 212.059406 
L 290.470157 204.514587 
L 290.678949 204.514587 
L 290.678949 200.742178 
L 291.364746 200.742178 
L 291.364746 196.969769 
L 291.519236 196.969769 
L 291.563013 189.42495 
L 292.062615 189.42495 
L 292.149118 178.107723 
L 292.469295 178.107723 
L 292.469295 174.335314 
L 292.608827 174.335314 
L 292.608827 170.562904 
L 292.774384 170.562904 
L 292.774384 166.790495 
L 293.40608 166.790495 
L 293.40608 163.018086 
L 295.543071 163.018086 
L 295.543071 159.245677 
L 302.27896 159.245677 
L 302.27896 155.473267 
L 302.980744 155.473267 
L 302.980744 151.700858 
L 306.30796 151.700858 
L 306.30796 147.928449 
L 306.832274 147.928449 
L 306.832274 144.15604 
L 318.857779 144.15604 
L 318.857779 140.38363 
L 319.093539 140.38363 
L 319.093539 136.611221 
L 323.499082 136.611221 
L 323.499082 132.838812 
L 330.963977 132.838812 
L 330.963977 129.066403 
L 336.873374 129.066403 
L 336.873374 125.293993 
L 349.615478 125.293993 
L 349.615478 121.521584 
L 361.856731 121.521584 
L 361.856731 117.749175 
L 363.546802 117.749175 
L 363.546802 113.976766 
L 366.089534 113.976766 
L 366.089534 110.204356 
L 367.340909 110.204356 
L 367.340909 106.431947 
L 368.269167 106.431947 
L 368.269167 102.659538 
L 368.422775 102.659538 
L 368.422775 98.887129 
L 368.969563 98.887129 
L 368.969563 95.114719 
L 371.446813 95.114719 
L 371.446813 91.34231 
L 371.85128 91.34231 
L 371.85128 87.569901 
L 372.067376 87.569901 
L 372.067376 83.797492 
L 372.887131 83.797492 
L 372.887131 80.025083 
L 373.414522 80.025083 
L 373.414522 76.252673 
L 374.611807 76.252673 
L 374.611807 72.480264 
L 376.346772 72.480264 
L 376.346772 68.707855 
L 379.633294 68.707855 
L 379.633294 64.935446 
L 413.062846 64.935446 
L 413.062846 61.163036 
L 413.486697 61.163036 
L 413.551356 53.618218 
L 415.610337 53.618218 
L 415.610337 49.845809 
L 417.172527 49.845809 
L 417.172527 46.073399 
L 417.375478 46.073399 
L 417.375478 42.30099 
L 417.622641 42.30099 
L 417.622641 38.528581 
L 418.606745 38.528581 
L 418.606745 34.756172 
L 418.955321 34.756172 
L 418.955321 30.983762 
L 419.990528 30.983762 
L 419.990528 27.211353 
L 420.692411 27.211353 
L 420.692411 23.438944 
L 422.356376 23.438944 
L 422.356376 19.666535 
L 424.880018 19.666535 
L 424.880018 15.894125 
L 425.398571 15.894125 
L 425.398571 12.121716 
L 430.010582 12.121716 
L 430.010582 8.349307 
L 430.010582 8.349307 
L 450.672 8.349307 
L 450.672 8.349307 
" style="fill:none;stroke:#bf00bf;stroke-linecap:square;stroke-width:1.5;"/>
   </g>
   <g id="line2d_26">
    <path clip-path="url(#p2fc94feb8d)" d="M 240.795454 291.28 
L 240.795454 287.507591 
L 242.71427 287.507591 
L 242.761181 279.962772 
L 244.045787 279.962772 
L 244.045787 276.190363 
L 246.609682 276.190363 
L 246.609682 272.417954 
L 247.027126 272.417954 
L 247.027126 268.645545 
L 247.215767 268.645545 
L 247.215767 264.873135 
L 247.598986 264.873135 
L 247.598986 261.100726 
L 247.850295 261.100726 
L 247.850295 257.328317 
L 248.288292 257.328317 
L 248.288292 253.555908 
L 248.469959 253.555908 
L 248.469959 249.783498 
L 250.268752 249.783498 
L 250.268752 246.011089 
L 250.606949 246.011089 
L 250.624983 238.466271 
L 251.304383 238.466271 
L 251.304383 234.693861 
L 272.542271 234.693861 
L 272.542271 230.921452 
L 274.035912 230.921452 
L 274.035912 227.149043 
L 274.933838 227.149043 
L 274.933838 223.376634 
L 275.883153 223.376634 
L 275.883153 219.604224 
L 276.798332 219.604224 
L 276.798332 215.831815 
L 279.284509 215.831815 
L 279.284509 212.059406 
L 287.192532 212.059406 
L 287.192532 208.286997 
L 287.378447 208.286997 
L 287.378447 204.514587 
L 287.49613 204.514587 
L 287.49613 200.742178 
L 287.779801 200.742178 
L 287.779801 196.969769 
L 288.877876 196.969769 
L 288.877876 193.19736 
L 289.064795 193.19736 
L 289.166655 185.652541 
L 289.658576 185.652541 
L 289.699622 174.335314 
L 290.345951 174.335314 
L 290.346352 166.790495 
L 290.470157 166.790495 
L 290.470157 163.018086 
L 290.640954 163.018086 
L 290.640954 159.245677 
L 290.924938 159.245677 
L 290.924938 155.473267 
L 291.519336 155.473267 
L 291.519336 151.700858 
L 292.060682 151.700858 
L 292.149118 144.15604 
L 295.543071 144.15604 
L 295.543071 140.38363 
L 301.128586 140.38363 
L 301.128586 136.611221 
L 302.980744 136.611221 
L 302.980744 132.838812 
L 306.30796 132.838812 
L 306.30796 129.066403 
L 309.913092 129.066403 
L 309.913092 125.293993 
L 315.35784 125.293993 
L 315.35784 121.521584 
L 361.350299 121.521584 
L 361.350299 117.749175 
L 361.856731 117.749175 
L 361.856731 113.976766 
L 362.224269 113.976766 
L 362.224269 110.204356 
L 363.546802 110.204356 
L 363.546802 106.431947 
L 363.71911 106.431947 
L 363.71911 102.659538 
L 364.002218 102.659538 
L 364.002218 98.887129 
L 364.71555 98.887129 
L 364.71555 95.114719 
L 366.514307 95.114719 
L 366.514307 91.34231 
L 367.340909 91.34231 
L 367.340909 87.569901 
L 367.736788 87.569901 
L 367.736788 83.797492 
L 368.436904 83.797492 
L 368.436904 80.025083 
L 368.754246 80.025083 
L 368.754246 76.252673 
L 370.45049 76.252673 
L 370.45049 72.480264 
L 370.893809 72.480264 
L 370.893809 68.707855 
L 375.705414 68.707855 
L 375.705414 64.935446 
L 409.904606 64.935446 
L 409.926119 57.390627 
L 410.164025 57.390627 
L 410.164025 53.618218 
L 411.495932 53.618218 
L 411.495932 49.845809 
L 413.062846 49.845809 
L 413.062846 46.073399 
L 413.385922 46.073399 
L 413.414717 38.528581 
L 414.269029 38.528581 
L 414.355597 30.983762 
L 414.432206 30.983762 
L 414.432206 27.211353 
L 415.610337 27.211353 
L 415.610337 23.438944 
L 415.931247 23.438944 
L 415.931247 19.666535 
L 416.78021 19.666535 
L 416.78021 15.894125 
L 417.924368 15.894125 
L 417.924368 12.121716 
L 419.06882 12.121716 
L 419.06882 8.349307 
L 419.06882 8.349307 
L 450.672 8.349307 
L 450.672 8.349307 
" style="fill:none;stroke:#000000;stroke-linecap:square;stroke-width:1.5;"/>
   </g>
   <g id="line2d_27">
    <path clip-path="url(#p2fc94feb8d)" d="M 233.641104 291.28 
L 233.641104 287.507591 
L 235.990076 287.507591 
L 235.990076 283.735182 
L 237.252259 283.735182 
L 237.252259 279.962772 
L 238.180071 279.962772 
L 238.231553 272.417954 
L 238.310877 272.417954 
L 238.310877 268.645545 
L 239.061618 268.645545 
L 239.061618 264.873135 
L 240.349798 264.873135 
L 240.349798 261.100726 
L 240.654869 261.100726 
L 240.742841 253.555908 
L 242.190657 253.555908 
L 242.190657 249.783498 
L 242.979886 249.783498 
L 242.979886 246.011089 
L 243.551045 246.011089 
L 243.551045 242.23868 
L 243.74713 242.23868 
L 243.74713 238.466271 
L 247.001514 238.466271 
L 247.001514 234.693861 
L 263.917503 234.693861 
L 263.917503 230.921452 
L 264.749683 230.921452 
L 264.749683 227.149043 
L 265.142131 227.149043 
L 265.142131 223.376634 
L 265.560791 223.376634 
L 265.620545 215.831815 
L 266.8013 215.831815 
L 266.8013 212.059406 
L 267.525495 212.059406 
L 267.525495 208.286997 
L 268.873042 208.286997 
L 268.873042 204.514587 
L 269.435585 204.514587 
L 269.435585 200.742178 
L 269.823338 200.742178 
L 269.823338 196.969769 
L 270.031811 196.969769 
L 270.137544 189.42495 
L 272.292075 189.42495 
L 272.292075 185.652541 
L 273.947125 185.652541 
L 274.035912 178.107723 
L 284.090753 178.107723 
L 284.090753 174.335314 
L 284.503791 174.335314 
L 284.503791 170.562904 
L 285.056364 170.562904 
L 285.079977 163.018086 
L 285.478488 163.018086 
L 285.478488 159.245677 
L 285.731898 159.245677 
L 285.731898 155.473267 
L 285.923865 155.473267 
L 285.996851 147.928449 
L 286.486144 147.928449 
L 286.486144 144.15604 
L 287.581472 144.15604 
L 287.581472 140.38363 
L 287.867099 140.38363 
L 287.867099 136.611221 
L 288.190812 136.611221 
L 288.190812 132.838812 
L 288.843816 132.838812 
L 288.84715 125.293993 
L 289.523516 125.293993 
L 289.523516 121.521584 
L 344.249076 121.521584 
L 344.249076 117.749175 
L 347.233972 117.749175 
L 347.233972 113.976766 
L 352.093788 113.976766 
L 352.093788 110.204356 
L 352.874609 110.204356 
L 352.874609 106.431947 
L 353.989128 106.431947 
L 353.989128 102.659538 
L 354.278707 102.659538 
L 354.365361 95.114719 
L 354.53261 95.114719 
L 354.53261 91.34231 
L 356.567497 91.34231 
L 356.567497 87.569901 
L 357.053167 87.569901 
L 357.054559 80.025083 
L 358.154186 80.025083 
L 358.154186 76.252673 
L 359.235557 76.252673 
L 359.235557 72.480264 
L 360.031831 72.480264 
L 360.031831 68.707855 
L 361.275474 68.707855 
L 361.275474 64.935446 
L 400.893603 64.935446 
L 400.893603 61.163036 
L 403.162475 61.163036 
L 403.162475 57.390627 
L 404.218799 57.390627 
L 404.218799 53.618218 
L 404.578972 53.618218 
L 404.578972 49.845809 
L 404.709931 49.845809 
L 404.709931 46.073399 
L 405.240162 46.073399 
L 405.240162 42.30099 
L 405.528811 42.30099 
L 405.533794 34.756172 
L 406.263953 34.756172 
L 406.263953 30.983762 
L 407.060516 30.983762 
L 407.060516 27.211353 
L 408.090799 27.211353 
L 408.090799 23.438944 
L 409.386237 23.438944 
L 409.40059 15.894125 
L 410.220463 15.894125 
L 410.220463 12.121716 
L 414.248194 12.121716 
L 414.248194 8.349307 
L 414.248194 8.349307 
L 450.672 8.349307 
L 450.672 8.349307 
" style="fill:none;stroke:#00bfbf;stroke-linecap:square;stroke-width:1.5;"/>
   </g>
   <g id="line2d_28">
    <path clip-path="url(#p2fc94feb8d)" d="M 230.486588 291.28 
L 230.486588 287.507591 
L 232.088473 287.507591 
L 232.088473 283.735182 
L 233.954963 283.735182 
L 233.954963 279.962772 
L 234.857005 279.962772 
L 234.857005 276.190363 
L 235.298738 276.190363 
L 235.298738 272.417954 
L 236.744655 272.417954 
L 236.744655 268.645545 
L 236.876871 268.645545 
L 236.876871 264.873135 
L 237.098358 264.873135 
L 237.098358 261.100726 
L 238.440713 261.100726 
L 238.440713 257.328317 
L 238.844853 257.328317 
L 238.844853 253.555908 
L 239.471337 253.555908 
L 239.471337 249.783498 
L 240.347719 249.783498 
L 240.347719 246.011089 
L 240.884384 246.011089 
L 240.884384 242.23868 
L 242.121429 242.23868 
L 242.121429 238.466271 
L 245.359656 238.466271 
L 245.359656 234.693861 
L 262.518484 234.693861 
L 262.518484 230.921452 
L 263.828834 230.921452 
L 263.828834 227.149043 
L 265.093501 227.149043 
L 265.093501 223.376634 
L 265.351194 223.376634 
L 265.373974 215.831815 
L 266.434012 215.831815 
L 266.434012 212.059406 
L 267.427578 212.059406 
L 267.427578 208.286997 
L 267.891331 208.286997 
L 267.984836 200.742178 
L 269.329228 200.742178 
L 269.329228 196.969769 
L 269.502944 196.969769 
L 269.502944 193.19736 
L 269.959609 193.19736 
L 269.959609 189.42495 
L 272.007271 189.42495 
L 272.007271 185.652541 
L 273.83167 185.652541 
L 273.890725 178.107723 
L 282.272834 178.107723 
L 282.272834 174.335314 
L 282.626003 174.335314 
L 282.626003 170.562904 
L 282.946446 170.562904 
L 282.946446 166.790495 
L 283.455873 166.790495 
L 283.537691 155.473267 
L 283.86206 155.473267 
L 283.86206 151.700858 
L 284.762107 151.700858 
L 284.794842 144.15604 
L 286.864619 144.15604 
L 286.872631 136.611221 
L 287.226206 136.611221 
L 287.226206 132.838812 
L 287.377342 132.838812 
L 287.377342 129.066403 
L 287.919907 129.066403 
L 287.999039 121.521584 
L 340.443683 121.521584 
L 340.443683 117.749175 
L 343.782656 117.749175 
L 343.782656 113.976766 
L 344.045654 113.976766 
L 344.045654 110.204356 
L 345.548599 110.204356 
L 345.548599 106.431947 
L 346.569435 106.431947 
L 346.569435 102.659538 
L 347.820828 102.659538 
L 347.820828 98.887129 
L 348.531522 98.887129 
L 348.531522 95.114719 
L 348.676329 95.114719 
L 348.676329 91.34231 
L 349.932115 91.34231 
L 349.932115 87.569901 
L 352.457936 87.569901 
L 352.457936 83.797492 
L 353.487828 83.797492 
L 353.487828 80.025083 
L 354.073711 80.025083 
L 354.073711 76.252673 
L 354.358016 76.252673 
L 354.362691 68.707855 
L 357.260294 68.707855 
L 357.260294 64.935446 
L 395.347284 64.935446 
L 395.347284 61.163036 
L 400.141418 61.163036 
L 400.141418 57.390627 
L 400.29348 57.390627 
L 400.29348 53.618218 
L 400.59013 53.618218 
L 400.59013 49.845809 
L 400.72245 49.845809 
L 400.72245 46.073399 
L 401.235187 46.073399 
L 401.235187 42.30099 
L 401.632377 42.30099 
L 401.632377 38.528581 
L 402.524129 38.528581 
L 402.524129 34.756172 
L 402.743097 34.756172 
L 402.743097 30.983762 
L 405.349807 30.983762 
L 405.349807 27.211353 
L 405.469299 27.211353 
L 405.469299 23.438944 
L 405.621441 23.438944 
L 405.663204 15.894125 
L 407.615092 15.894125 
L 407.615092 12.121716 
L 411.451208 12.121716 
L 411.451208 8.349307 
L 411.451208 8.349307 
L 450.672 8.349307 
L 450.672 8.349307 
" style="fill:none;stroke:#bf00bf;stroke-linecap:square;stroke-width:1.5;"/>
   </g>
   <g id="line2d_29">
    <path clip-path="url(#p2fc94feb8d)" d="M 230.371766 291.28 
L 230.371766 287.507591 
L 231.60954 287.507591 
L 231.60954 283.735182 
L 232.886695 283.735182 
L 232.886695 279.962772 
L 234.642278 279.962772 
L 234.642278 276.190363 
L 235.275554 276.190363 
L 235.275554 272.417954 
L 236.196828 272.417954 
L 236.196828 268.645545 
L 236.738448 268.645545 
L 236.738448 264.873135 
L 237.093935 264.873135 
L 237.119287 257.328317 
L 238.070771 257.328317 
L 238.070771 253.555908 
L 238.824028 253.555908 
L 238.824028 249.783498 
L 240.291549 249.783498 
L 240.291549 246.011089 
L 240.472999 246.011089 
L 240.472999 242.23868 
L 241.919669 242.23868 
L 241.919669 238.466271 
L 243.98652 238.466271 
L 243.98652 234.693861 
L 262.518297 234.693861 
L 262.518297 230.921452 
L 263.825844 230.921452 
L 263.825844 227.149043 
L 265.091828 227.149043 
L 265.091828 223.376634 
L 265.350907 223.376634 
L 265.370277 215.831815 
L 266.433466 215.831815 
L 266.433466 212.059406 
L 267.42728 212.059406 
L 267.42728 208.286997 
L 267.86869 208.286997 
L 267.86869 204.514587 
L 267.984829 204.514587 
L 267.984829 200.742178 
L 269.323553 200.742178 
L 269.323553 196.969769 
L 269.50231 196.969769 
L 269.50231 193.19736 
L 269.957897 193.19736 
L 269.957897 189.42495 
L 272.007014 189.42495 
L 272.007014 185.652541 
L 273.829964 185.652541 
L 273.890315 178.107723 
L 281.699634 178.107723 
L 281.699634 174.335314 
L 282.015167 174.335314 
L 282.015167 170.562904 
L 282.905119 170.562904 
L 282.905119 166.790495 
L 283.189276 166.790495 
L 283.189276 163.018086 
L 283.367607 163.018086 
L 283.399977 155.473267 
L 283.85408 155.473267 
L 283.85408 151.700858 
L 284.653488 151.700858 
L 284.653488 147.928449 
L 284.773793 147.928449 
L 284.773793 144.15604 
L 286.128091 144.15604 
L 286.128091 140.38363 
L 286.6273 140.38363 
L 286.628721 132.838812 
L 286.841468 132.838812 
L 286.841468 129.066403 
L 287.210692 129.066403 
L 287.301241 121.521584 
L 340.121925 121.521584 
L 340.121925 117.749175 
L 343.70015 117.749175 
L 343.70015 113.976766 
L 344.013074 113.976766 
L 344.013074 110.204356 
L 345.490976 110.204356 
L 345.490976 106.431947 
L 346.542639 106.431947 
L 346.542639 102.659538 
L 347.211137 102.659538 
L 347.211137 98.887129 
L 347.820672 98.887129 
L 347.820672 95.114719 
L 348.631981 95.114719 
L 348.631981 91.34231 
L 349.930322 91.34231 
L 349.930322 87.569901 
L 352.445093 87.569901 
L 352.445093 83.797492 
L 353.386247 83.797492 
L 353.386247 80.025083 
L 353.993719 80.025083 
L 353.993719 76.252673 
L 354.157603 76.252673 
L 354.157603 72.480264 
L 354.356254 72.480264 
L 354.356254 68.707855 
L 357.252877 68.707855 
L 357.252877 64.935446 
L 392.606876 64.935446 
L 392.606876 61.163036 
L 399.512674 61.163036 
L 399.512674 57.390627 
L 399.771735 57.390627 
L 399.771735 53.618218 
L 400.229338 53.618218 
L 400.245418 46.073399 
L 400.532086 46.073399 
L 400.532086 42.30099 
L 401.003274 42.30099 
L 401.003274 38.528581 
L 401.94669 38.528581 
L 401.94669 34.756172 
L 402.211466 34.756172 
L 402.211466 30.983762 
L 402.704609 30.983762 
L 402.704609 27.211353 
L 405.082799 27.211353 
L 405.082799 23.438944 
L 405.494204 23.438944 
L 405.494204 19.666535 
L 405.644471 19.666535 
L 405.644471 15.894125 
L 407.615092 15.894125 
L 407.615092 12.121716 
L 411.406527 12.121716 
L 411.406527 8.349307 
L 411.406527 8.349307 
L 450.672 8.349307 
L 450.672 8.349307 
" style="fill:none;stroke:#000000;stroke-linecap:square;stroke-width:1.5;"/>
   </g>
   <g id="patch_3">
    <path d="M 5.52 291.28 
L 5.52 5.52 
" style="fill:none;stroke:#000000;stroke-linecap:square;stroke-linejoin:miter;stroke-width:0.8;"/>
   </g>
   <g id="patch_4">
    <path d="M 450.672 291.28 
L 450.672 5.52 
" style="fill:none;stroke:#000000;stroke-linecap:square;stroke-linejoin:miter;stroke-width:0.8;"/>
   </g>
   <g id="patch_5">
    <path d="M 5.52 291.28 
L 450.672 291.28 
" style="fill:none;stroke:#000000;stroke-linecap:square;stroke-linejoin:miter;stroke-width:0.8;"/>
   </g>
   <g id="patch_6">
    <path d="M 5.52 5.52 
L 450.672 5.52 
" style="fill:none;stroke:#000000;stroke-linecap:square;stroke-linejoin:miter;stroke-width:0.8;"/>
   </g>
   <g id="text_6">
    <!-- {f10-f14}, 20-D -->
    <defs>
     <path d="M 51.125 -9.28125 
L 51.125 -16.3125 
L 48.09375 -16.3125 
Q 35.9375 -16.3125 31.8125 -12.6875 
Q 27.6875 -9.078125 27.6875 1.703125 
L 27.6875 13.375 
Q 27.6875 20.75 25.046875 23.578125 
Q 22.40625 26.421875 15.484375 26.421875 
L 12.5 26.421875 
L 12.5 33.40625 
L 15.484375 33.40625 
Q 22.46875 33.40625 25.078125 36.203125 
Q 27.6875 39.015625 27.6875 46.296875 
L 27.6875 58.015625 
Q 27.6875 68.796875 31.8125 72.390625 
Q 35.9375 75.984375 48.09375 75.984375 
L 51.125 75.984375 
L 51.125 69 
L 47.796875 69 
Q 40.921875 69 38.8125 66.84375 
Q 36.71875 64.703125 36.71875 57.8125 
L 36.71875 45.703125 
Q 36.71875 38.03125 34.5 34.5625 
Q 32.28125 31.109375 26.90625 29.890625 
Q 32.328125 28.5625 34.515625 25.09375 
Q 36.71875 21.625 36.71875 14.015625 
L 36.71875 1.90625 
Q 36.71875 -4.984375 38.8125 -7.125 
Q 40.921875 -9.28125 47.796875 -9.28125 
z
" id="DejaVuSans-7b"/>
     <path d="M 12.5 -9.28125 
L 15.921875 -9.28125 
Q 22.75 -9.28125 24.828125 -7.171875 
Q 26.90625 -5.078125 26.90625 1.90625 
L 26.90625 14.015625 
Q 26.90625 21.625 29.09375 25.09375 
Q 31.296875 28.5625 36.71875 29.890625 
Q 31.296875 31.109375 29.09375 34.5625 
Q 26.90625 38.03125 26.90625 45.703125 
L 26.90625 57.8125 
Q 26.90625 64.75 24.828125 66.875 
Q 22.75 69 15.921875 69 
L 12.5 69 
L 12.5 75.984375 
L 15.578125 75.984375 
Q 27.734375 75.984375 31.8125 72.390625 
Q 35.890625 68.796875 35.890625 58.015625 
L 35.890625 46.296875 
Q 35.890625 39.015625 38.515625 36.203125 
Q 41.15625 33.40625 48.09375 33.40625 
L 51.125 33.40625 
L 51.125 26.421875 
L 48.09375 26.421875 
Q 41.15625 26.421875 38.515625 23.578125 
Q 35.890625 20.75 35.890625 13.375 
L 35.890625 1.703125 
Q 35.890625 -9.078125 31.8125 -12.6875 
Q 27.734375 -16.3125 15.578125 -16.3125 
L 12.5 -16.3125 
z
" id="DejaVuSans-7d"/>
     <path d="M 11.71875 12.40625 
L 22.015625 12.40625 
L 22.015625 4 
L 14.015625 -11.625 
L 7.71875 -11.625 
L 11.71875 4 
z
" id="DejaVuSans-2c"/>
     <path d="M 19.1875 8.296875 
L 53.609375 8.296875 
L 53.609375 0 
L 7.328125 0 
L 7.328125 8.296875 
Q 12.9375 14.109375 22.625 23.890625 
Q 32.328125 33.6875 34.8125 36.53125 
Q 39.546875 41.84375 41.421875 45.53125 
Q 43.3125 49.21875 43.3125 52.78125 
Q 43.3125 58.59375 39.234375 62.25 
Q 35.15625 65.921875 28.609375 65.921875 
Q 23.96875 65.921875 18.8125 64.3125 
Q 13.671875 62.703125 7.8125 59.421875 
L 7.8125 69.390625 
Q 13.765625 71.78125 18.9375 73 
Q 24.125 74.21875 28.421875 74.21875 
Q 39.75 74.21875 46.484375 68.546875 
Q 53.21875 62.890625 53.21875 53.421875 
Q 53.21875 48.921875 51.53125 44.890625 
Q 49.859375 40.875 45.40625 35.40625 
Q 44.1875 33.984375 37.640625 27.21875 
Q 31.109375 20.453125 19.1875 8.296875 
z
" id="DejaVuSans-32"/>
    </defs>
    <g transform="translate(283.34396 285.5648)scale(0.2 -0.2)">
     <use xlink:href="#DejaVuSans-7b"/>
     <use x="63.623047" xlink:href="#DejaVuSans-66"/>
     <use x="98.828125" xlink:href="#DejaVuSans-31"/>
     <use x="162.451172" xlink:href="#DejaVuSans-30"/>
     <use x="226.074219" xlink:href="#DejaVuSans-2d"/>
     <use x="262.158203" xlink:href="#DejaVuSans-66"/>
     <use x="297.363281" xlink:href="#DejaVuSans-31"/>
     <use x="360.986328" xlink:href="#DejaVuSans-34"/>
     <use x="424.609375" xlink:href="#DejaVuSans-7d"/>
     <use x="488.232422" xlink:href="#DejaVuSans-2c"/>
     <use x="520.019531" xlink:href="#DejaVuSans-20"/>
     <use x="551.806641" xlink:href="#DejaVuSans-32"/>
     <use x="615.429688" xlink:href="#DejaVuSans-30"/>
     <use x="679.052734" xlink:href="#DejaVuSans-2d"/>
     <use x="715.136719" xlink:href="#DejaVuSans-44"/>
    </g>
   </g>
   <g id="text_7">
    <!-- v2.2.1.10 -->
    <defs>
     <path d="M 2.984375 54.6875 
L 12.5 54.6875 
L 29.59375 8.796875 
L 46.6875 54.6875 
L 56.203125 54.6875 
L 35.6875 0 
L 23.484375 0 
z
" id="DejaVuSans-76"/>
     <path d="M 10.6875 12.40625 
L 21 12.40625 
L 21 0 
L 10.6875 0 
z
" id="DejaVuSans-2e"/>
    </defs>
    <g style="fill:#808080;" transform="translate(204.463188 286.342713)scale(0.1 -0.1)">
     <use xlink:href="#DejaVuSans-76"/>
     <use x="59.179688" xlink:href="#DejaVuSans-32"/>
     <use x="122.802734" xlink:href="#DejaVuSans-2e"/>
     <use x="154.589844" xlink:href="#DejaVuSans-32"/>
     <use x="218.212891" xlink:href="#DejaVuSans-2e"/>
     <use x="250" xlink:href="#DejaVuSans-31"/>
     <use x="313.623047" xlink:href="#DejaVuSans-2e"/>
     <use x="345.410156" xlink:href="#DejaVuSans-31"/>
     <use x="409.033203" xlink:href="#DejaVuSans-30"/>
    </g>
   </g>
  </g>
 </g>
 <defs>
  <clipPath id="p2fc94feb8d">
   <rect height="285.76" width="445.152" x="5.52" y="5.52"/>
  </clipPath>
 </defs>
</svg>
