<?xml version="1.0" encoding="utf-8" standalone="no"?>
<!DOCTYPE svg PUBLIC "-//W3C//DTD SVG 1.1//EN"
  "http://www.w3.org/Graphics/SVG/1.1/DTD/svg11.dtd">
<!-- Created with matplotlib (http://matplotlib.org/) -->
<svg height="345.6pt" version="1.1" viewBox="0 0 460.8 345.6" width="460.8pt" xmlns="http://www.w3.org/2000/svg" xmlns:xlink="http://www.w3.org/1999/xlink">
 <defs>
  <style type="text/css">
*{stroke-linecap:butt;stroke-linejoin:round;}
  </style>
 </defs>
 <g id="figure_1">
  <g id="patch_1">
   <path d="M 0 345.6 
L 460.8 345.6 
L 460.8 0 
L 0 0 
z
" style="fill:#ffffff;"/>
  </g>
  <g id="axes_1">
   <g id="patch_2">
    <path d="M 5.52 291.28 
L 450.672 291.28 
L 450.672 5.52 
L 5.52 5.52 
z
" style="fill:#ffffff;"/>
   </g>
   <g id="matplotlib.axis_1">
    <g id="xtick_1">
     <g id="line2d_1">
      <path clip-path="url(#p325e67c468)" d="M 5.411359 291.28 
L 5.411359 5.52 
" style="fill:none;stroke:#b0b0b0;stroke-linecap:square;stroke-width:0.8;"/>
     </g>
     <g id="line2d_2">
      <defs>
       <path d="M 0 0 
L 0 3.5 
" id="mdded269d27" style="stroke:#000000;stroke-width:0.8;"/>
      </defs>
      <g>
       <use style="stroke:#000000;stroke-width:0.8;" x="5.411359" xlink:href="#mdded269d27" y="291.28"/>
      </g>
     </g>
    </g>
    <g id="xtick_2">
     <g id="line2d_3">
      <path clip-path="url(#p325e67c468)" d="M 105.973064 291.28 
L 105.973064 5.52 
" style="fill:none;stroke:#b0b0b0;stroke-linecap:square;stroke-width:0.8;"/>
     </g>
     <g id="line2d_4">
      <g>
       <use style="stroke:#000000;stroke-width:0.8;" x="105.973064" xlink:href="#mdded269d27" y="291.28"/>
      </g>
     </g>
     <g id="text_1">
      <!-- -4 -->
      <defs>
       <path d="M 4.890625 31.390625 
L 31.203125 31.390625 
L 31.203125 23.390625 
L 4.890625 23.390625 
z
" id="DejaVuSans-2d"/>
       <path d="M 37.796875 64.3125 
L 12.890625 25.390625 
L 37.796875 25.390625 
z
M 35.203125 72.90625 
L 47.609375 72.90625 
L 47.609375 25.390625 
L 58.015625 25.390625 
L 58.015625 17.1875 
L 47.609375 17.1875 
L 47.609375 0 
L 37.796875 0 
L 37.796875 17.1875 
L 4.890625 17.1875 
L 4.890625 26.703125 
z
" id="DejaVuSans-34"/>
      </defs>
      <g transform="translate(96.002751 313.476875)scale(0.2 -0.2)">
       <use xlink:href="#DejaVuSans-2d"/>
       <use x="36.083984" xlink:href="#DejaVuSans-34"/>
      </g>
     </g>
    </g>
    <g id="xtick_3">
     <g id="line2d_5">
      <path clip-path="url(#p325e67c468)" d="M 206.534769 291.28 
L 206.534769 5.52 
" style="fill:none;stroke:#b0b0b0;stroke-linecap:square;stroke-width:0.8;"/>
     </g>
     <g id="line2d_6">
      <g>
       <use style="stroke:#000000;stroke-width:0.8;" x="206.534769" xlink:href="#mdded269d27" y="291.28"/>
      </g>
     </g>
     <g id="text_2">
      <!-- 0 -->
      <defs>
       <path d="M 31.78125 66.40625 
Q 24.171875 66.40625 20.328125 58.90625 
Q 16.5 51.421875 16.5 36.375 
Q 16.5 21.390625 20.328125 13.890625 
Q 24.171875 6.390625 31.78125 6.390625 
Q 39.453125 6.390625 43.28125 13.890625 
Q 47.125 21.390625 47.125 36.375 
Q 47.125 51.421875 43.28125 58.90625 
Q 39.453125 66.40625 31.78125 66.40625 
z
M 31.78125 74.21875 
Q 44.046875 74.21875 50.515625 64.515625 
Q 56.984375 54.828125 56.984375 36.375 
Q 56.984375 17.96875 50.515625 8.265625 
Q 44.046875 -1.421875 31.78125 -1.421875 
Q 19.53125 -1.421875 13.0625 8.265625 
Q 6.59375 17.96875 6.59375 36.375 
Q 6.59375 54.828125 13.0625 64.515625 
Q 19.53125 74.21875 31.78125 74.21875 
z
" id="DejaVuSans-30"/>
      </defs>
      <g transform="translate(200.172269 313.476875)scale(0.2 -0.2)">
       <use xlink:href="#DejaVuSans-30"/>
      </g>
     </g>
    </g>
    <g id="xtick_4">
     <g id="line2d_7">
      <path clip-path="url(#p325e67c468)" d="M 307.096474 291.28 
L 307.096474 5.52 
" style="fill:none;stroke:#b0b0b0;stroke-linecap:square;stroke-width:0.8;"/>
     </g>
     <g id="line2d_8">
      <g>
       <use style="stroke:#000000;stroke-width:0.8;" x="307.096474" xlink:href="#mdded269d27" y="291.28"/>
      </g>
     </g>
     <g id="text_3">
      <!-- 4 -->
      <g transform="translate(300.733974 313.476875)scale(0.2 -0.2)">
       <use xlink:href="#DejaVuSans-34"/>
      </g>
     </g>
    </g>
    <g id="xtick_5">
     <g id="line2d_9">
      <path clip-path="url(#p325e67c468)" d="M 407.658179 291.28 
L 407.658179 5.52 
" style="fill:none;stroke:#b0b0b0;stroke-linecap:square;stroke-width:0.8;"/>
     </g>
     <g id="line2d_10">
      <g>
       <use style="stroke:#000000;stroke-width:0.8;" x="407.658179" xlink:href="#mdded269d27" y="291.28"/>
      </g>
     </g>
     <g id="text_4">
      <!-- 8 -->
      <defs>
       <path d="M 31.78125 34.625 
Q 24.75 34.625 20.71875 30.859375 
Q 16.703125 27.09375 16.703125 20.515625 
Q 16.703125 13.921875 20.71875 10.15625 
Q 24.75 6.390625 31.78125 6.390625 
Q 38.8125 6.390625 42.859375 10.171875 
Q 46.921875 13.96875 46.921875 20.515625 
Q 46.921875 27.09375 42.890625 30.859375 
Q 38.875 34.625 31.78125 34.625 
z
M 21.921875 38.8125 
Q 15.578125 40.375 12.03125 44.71875 
Q 8.5 49.078125 8.5 55.328125 
Q 8.5 64.0625 14.71875 69.140625 
Q 20.953125 74.21875 31.78125 74.21875 
Q 42.671875 74.21875 48.875 69.140625 
Q 55.078125 64.0625 55.078125 55.328125 
Q 55.078125 49.078125 51.53125 44.71875 
Q 48 40.375 41.703125 38.8125 
Q 48.828125 37.15625 52.796875 32.3125 
Q 56.78125 27.484375 56.78125 20.515625 
Q 56.78125 9.90625 50.3125 4.234375 
Q 43.84375 -1.421875 31.78125 -1.421875 
Q 19.734375 -1.421875 13.25 4.234375 
Q 6.78125 9.90625 6.78125 20.515625 
Q 6.78125 27.484375 10.78125 32.3125 
Q 14.796875 37.15625 21.921875 38.8125 
z
M 18.3125 54.390625 
Q 18.3125 48.734375 21.84375 45.5625 
Q 25.390625 42.390625 31.78125 42.390625 
Q 38.140625 42.390625 41.71875 45.5625 
Q 45.3125 48.734375 45.3125 54.390625 
Q 45.3125 60.0625 41.71875 63.234375 
Q 38.140625 66.40625 31.78125 66.40625 
Q 25.390625 66.40625 21.84375 63.234375 
Q 18.3125 60.0625 18.3125 54.390625 
z
" id="DejaVuSans-38"/>
      </defs>
      <g transform="translate(401.295679 313.476875)scale(0.2 -0.2)">
       <use xlink:href="#DejaVuSans-38"/>
      </g>
     </g>
    </g>
    <g id="text_5">
     <!-- log10 of Df -->
     <defs>
      <path d="M 9.421875 75.984375 
L 18.40625 75.984375 
L 18.40625 0 
L 9.421875 0 
z
" id="DejaVuSans-6c"/>
      <path d="M 30.609375 48.390625 
Q 23.390625 48.390625 19.1875 42.75 
Q 14.984375 37.109375 14.984375 27.296875 
Q 14.984375 17.484375 19.15625 11.84375 
Q 23.34375 6.203125 30.609375 6.203125 
Q 37.796875 6.203125 41.984375 11.859375 
Q 46.1875 17.53125 46.1875 27.296875 
Q 46.1875 37.015625 41.984375 42.703125 
Q 37.796875 48.390625 30.609375 48.390625 
z
M 30.609375 56 
Q 42.328125 56 49.015625 48.375 
Q 55.71875 40.765625 55.71875 27.296875 
Q 55.71875 13.875 49.015625 6.21875 
Q 42.328125 -1.421875 30.609375 -1.421875 
Q 18.84375 -1.421875 12.171875 6.21875 
Q 5.515625 13.875 5.515625 27.296875 
Q 5.515625 40.765625 12.171875 48.375 
Q 18.84375 56 30.609375 56 
z
" id="DejaVuSans-6f"/>
      <path d="M 45.40625 27.984375 
Q 45.40625 37.75 41.375 43.109375 
Q 37.359375 48.484375 30.078125 48.484375 
Q 22.859375 48.484375 18.828125 43.109375 
Q 14.796875 37.75 14.796875 27.984375 
Q 14.796875 18.265625 18.828125 12.890625 
Q 22.859375 7.515625 30.078125 7.515625 
Q 37.359375 7.515625 41.375 12.890625 
Q 45.40625 18.265625 45.40625 27.984375 
z
M 54.390625 6.78125 
Q 54.390625 -7.171875 48.1875 -13.984375 
Q 42 -20.796875 29.203125 -20.796875 
Q 24.46875 -20.796875 20.265625 -20.09375 
Q 16.0625 -19.390625 12.109375 -17.921875 
L 12.109375 -9.1875 
Q 16.0625 -11.328125 19.921875 -12.34375 
Q 23.78125 -13.375 27.78125 -13.375 
Q 36.625 -13.375 41.015625 -8.765625 
Q 45.40625 -4.15625 45.40625 5.171875 
L 45.40625 9.625 
Q 42.625 4.78125 38.28125 2.390625 
Q 33.9375 0 27.875 0 
Q 17.828125 0 11.671875 7.65625 
Q 5.515625 15.328125 5.515625 27.984375 
Q 5.515625 40.671875 11.671875 48.328125 
Q 17.828125 56 27.875 56 
Q 33.9375 56 38.28125 53.609375 
Q 42.625 51.21875 45.40625 46.390625 
L 45.40625 54.6875 
L 54.390625 54.6875 
z
" id="DejaVuSans-67"/>
      <path d="M 12.40625 8.296875 
L 28.515625 8.296875 
L 28.515625 63.921875 
L 10.984375 60.40625 
L 10.984375 69.390625 
L 28.421875 72.90625 
L 38.28125 72.90625 
L 38.28125 8.296875 
L 54.390625 8.296875 
L 54.390625 0 
L 12.40625 0 
z
" id="DejaVuSans-31"/>
      <path id="DejaVuSans-20"/>
      <path d="M 37.109375 75.984375 
L 37.109375 68.5 
L 28.515625 68.5 
Q 23.6875 68.5 21.796875 66.546875 
Q 19.921875 64.59375 19.921875 59.515625 
L 19.921875 54.6875 
L 34.71875 54.6875 
L 34.71875 47.703125 
L 19.921875 47.703125 
L 19.921875 0 
L 10.890625 0 
L 10.890625 47.703125 
L 2.296875 47.703125 
L 2.296875 54.6875 
L 10.890625 54.6875 
L 10.890625 58.5 
Q 10.890625 67.625 15.140625 71.796875 
Q 19.390625 75.984375 28.609375 75.984375 
z
" id="DejaVuSans-66"/>
      <path d="M 19.671875 64.796875 
L 19.671875 8.109375 
L 31.59375 8.109375 
Q 46.6875 8.109375 53.6875 14.9375 
Q 60.6875 21.78125 60.6875 36.53125 
Q 60.6875 51.171875 53.6875 57.984375 
Q 46.6875 64.796875 31.59375 64.796875 
z
M 9.8125 72.90625 
L 30.078125 72.90625 
Q 51.265625 72.90625 61.171875 64.09375 
Q 71.09375 55.28125 71.09375 36.53125 
Q 71.09375 17.671875 61.125 8.828125 
Q 51.171875 0 30.078125 0 
L 9.8125 0 
z
" id="DejaVuSans-44"/>
     </defs>
     <g transform="translate(172.910063 336.833125)scale(0.2 -0.2)">
      <use xlink:href="#DejaVuSans-6c"/>
      <use x="27.783203" xlink:href="#DejaVuSans-6f"/>
      <use x="88.964844" xlink:href="#DejaVuSans-67"/>
      <use x="152.441406" xlink:href="#DejaVuSans-31"/>
      <use x="216.064453" xlink:href="#DejaVuSans-30"/>
      <use x="279.6875" xlink:href="#DejaVuSans-20"/>
      <use x="311.474609" xlink:href="#DejaVuSans-6f"/>
      <use x="372.65625" xlink:href="#DejaVuSans-66"/>
      <use x="407.861328" xlink:href="#DejaVuSans-20"/>
      <use x="439.648438" xlink:href="#DejaVuSans-44"/>
      <use x="516.650391" xlink:href="#DejaVuSans-66"/>
     </g>
    </g>
   </g>
   <g id="matplotlib.axis_2">
    <g id="ytick_1">
     <g id="line2d_11">
      <path clip-path="url(#p325e67c468)" d="M 5.52 291.28 
L 450.672 291.28 
" style="fill:none;stroke:#b0b0b0;stroke-linecap:square;stroke-width:0.8;"/>
     </g>
     <g id="line2d_12">
      <defs>
       <path d="M 0 0 
L -3.5 0 
" id="m7998c3b663" style="stroke:#000000;stroke-width:0.8;"/>
      </defs>
      <g>
       <use style="stroke:#000000;stroke-width:0.8;" x="5.52" xlink:href="#m7998c3b663" y="291.28"/>
      </g>
     </g>
    </g>
    <g id="ytick_2">
     <g id="line2d_13">
      <path clip-path="url(#p325e67c468)" d="M 5.52 234.693861 
L 450.672 234.693861 
" style="fill:none;stroke:#b0b0b0;stroke-linecap:square;stroke-width:0.8;"/>
     </g>
     <g id="line2d_14">
      <g>
       <use style="stroke:#000000;stroke-width:0.8;" x="5.52" xlink:href="#m7998c3b663" y="234.693861"/>
      </g>
     </g>
    </g>
    <g id="ytick_3">
     <g id="line2d_15">
      <path clip-path="url(#p325e67c468)" d="M 5.52 178.107723 
L 450.672 178.107723 
" style="fill:none;stroke:#b0b0b0;stroke-linecap:square;stroke-width:0.8;"/>
     </g>
     <g id="line2d_16">
      <g>
       <use style="stroke:#000000;stroke-width:0.8;" x="5.52" xlink:href="#m7998c3b663" y="178.107723"/>
      </g>
     </g>
    </g>
    <g id="ytick_4">
     <g id="line2d_17">
      <path clip-path="url(#p325e67c468)" d="M 5.52 121.521584 
L 450.672 121.521584 
" style="fill:none;stroke:#b0b0b0;stroke-linecap:square;stroke-width:0.8;"/>
     </g>
     <g id="line2d_18">
      <g>
       <use style="stroke:#000000;stroke-width:0.8;" x="5.52" xlink:href="#m7998c3b663" y="121.521584"/>
      </g>
     </g>
    </g>
    <g id="ytick_5">
     <g id="line2d_19">
      <path clip-path="url(#p325e67c468)" d="M 5.52 64.935446 
L 450.672 64.935446 
" style="fill:none;stroke:#b0b0b0;stroke-linecap:square;stroke-width:0.8;"/>
     </g>
     <g id="line2d_20">
      <g>
       <use style="stroke:#000000;stroke-width:0.8;" x="5.52" xlink:href="#m7998c3b663" y="64.935446"/>
      </g>
     </g>
    </g>
    <g id="ytick_6">
     <g id="line2d_21">
      <path clip-path="url(#p325e67c468)" d="M 5.52 8.349307 
L 450.672 8.349307 
" style="fill:none;stroke:#b0b0b0;stroke-linecap:square;stroke-width:0.8;"/>
     </g>
     <g id="line2d_22">
      <g>
       <use style="stroke:#000000;stroke-width:0.8;" x="5.52" xlink:href="#m7998c3b663" y="8.349307"/>
      </g>
     </g>
    </g>
   </g>
   <g id="line2d_23">
    <path clip-path="url(#p325e67c468)" d="M 256.244264 291.28 
L 256.244264 286.564488 
L 262.000762 286.564488 
L 262.000762 281.848977 
L 262.322696 281.848977 
L 262.322696 277.133465 
L 262.49462 277.133465 
L 262.49462 272.417954 
L 262.810711 272.417954 
L 262.810711 267.702442 
L 263.132232 267.702442 
L 263.132232 262.986931 
L 263.596025 262.986931 
L 263.596025 258.271419 
L 264.703326 258.271419 
L 264.703326 253.555908 
L 265.316394 253.555908 
L 265.316394 248.840396 
L 265.569202 248.840396 
L 265.569202 244.124884 
L 267.275147 244.124884 
L 267.275147 239.409373 
L 267.302498 239.409373 
L 267.302498 234.693861 
L 270.05727 234.693861 
L 270.05727 229.97835 
L 271.533747 229.97835 
L 271.533747 225.262838 
L 271.717991 225.262838 
L 271.717991 220.547327 
L 272.267134 220.547327 
L 272.267134 215.831815 
L 281.741611 215.831815 
L 281.741611 211.116304 
L 282.87942 211.116304 
L 282.87942 206.400792 
L 286.988644 206.400792 
L 286.988644 201.685281 
L 298.807631 201.685281 
L 298.807631 196.969769 
L 300.017 196.969769 
L 300.017 192.254257 
L 300.578819 192.254257 
L 300.578819 187.538746 
L 301.952424 187.538746 
L 301.952424 182.823234 
L 302.097304 182.823234 
L 302.097304 178.107723 
L 302.71674 178.107723 
L 302.71674 173.392211 
L 303.523044 173.392211 
L 303.523044 168.6767 
L 304.083251 168.6767 
L 304.083251 163.961188 
L 304.750763 163.961188 
L 304.750763 159.245677 
L 304.795529 159.245677 
L 304.795529 154.530165 
L 304.873501 154.530165 
L 304.873501 149.814653 
L 305.345763 149.814653 
L 305.345763 145.099142 
L 305.746561 145.099142 
L 305.746561 140.38363 
L 306.248679 140.38363 
L 306.248679 135.668119 
L 307.18693 135.668119 
L 307.18693 130.952607 
L 307.671802 130.952607 
L 307.671802 126.237096 
L 308.981011 126.237096 
L 308.981011 121.521584 
L 309.73803 121.521584 
L 309.73803 116.806073 
L 310.338392 116.806073 
L 310.338392 112.090561 
L 310.686792 112.090561 
L 310.686792 107.37505 
L 311.997727 107.37505 
L 311.997727 102.659538 
L 312.111177 102.659538 
L 312.111177 97.944026 
L 312.720904 97.944026 
L 312.720904 93.228515 
L 313.120046 93.228515 
L 313.120046 88.513003 
L 313.310791 88.513003 
L 313.310791 83.797492 
L 313.811151 83.797492 
L 313.811151 79.08198 
L 314.134037 79.08198 
L 314.134037 74.366469 
L 315.864569 74.366469 
L 315.864569 69.650957 
L 317.898064 69.650957 
L 317.898064 64.935446 
L 318.318301 64.935446 
L 318.318301 60.219934 
L 318.612206 60.219934 
L 318.612206 55.504422 
L 318.699126 55.504422 
L 318.699126 50.788911 
L 318.843281 50.788911 
L 318.843281 46.073399 
L 319.44989 46.073399 
L 319.44989 41.357888 
L 320.790663 41.357888 
L 320.790663 36.642376 
L 325.10247 36.642376 
L 325.10247 31.926865 
L 325.470033 31.926865 
L 325.470033 27.211353 
L 327.900428 27.211353 
L 327.900428 22.495842 
L 328.092816 22.495842 
L 328.092816 17.78033 
L 332.358851 17.78033 
L 332.358851 13.064818 
L 333.100462 13.064818 
L 333.100462 8.349307 
L 333.100462 8.349307 
L 333.100462 8.349307 
L 450.672 8.349307 
" style="fill:none;stroke:#ff0000;stroke-linecap:square;stroke-width:3;"/>
   </g>
   <g id="line2d_24">
    <path clip-path="url(#p325e67c468)" d="M 274.165653 291.28 
L 274.165653 286.564488 
L 275.206688 286.564488 
L 275.206688 281.848977 
L 276.184565 281.848977 
L 276.184565 277.133465 
L 280.248664 277.133465 
L 280.248664 272.417954 
L 280.335883 272.417954 
L 280.335883 267.702442 
L 280.794646 267.702442 
L 280.794646 262.986931 
L 281.597092 262.986931 
L 281.597092 258.271419 
L 281.972657 258.271419 
L 281.972657 253.555908 
L 282.281186 253.555908 
L 282.281186 248.840396 
L 284.980968 248.840396 
L 284.980968 244.124884 
L 285.614003 244.124884 
L 285.614003 239.409373 
L 287.122024 239.409373 
L 287.122024 234.693861 
L 287.273284 234.693861 
L 287.273284 229.97835 
L 289.166569 229.97835 
L 289.166569 225.262838 
L 289.818857 225.262838 
L 289.818857 220.547327 
L 327.883069 220.547327 
L 327.883069 215.831815 
L 331.386711 215.831815 
L 331.386711 211.116304 
L 332.981712 211.116304 
L 332.981712 206.400792 
L 333.327753 206.400792 
L 333.327753 201.685281 
L 333.531244 201.685281 
L 333.531244 196.969769 
L 334.762708 196.969769 
L 334.762708 192.254257 
L 335.072961 192.254257 
L 335.072961 187.538746 
L 335.568203 187.538746 
L 335.568203 182.823234 
L 335.788242 182.823234 
L 335.788242 178.107723 
L 336.010753 178.107723 
L 336.010753 173.392211 
L 336.899235 173.392211 
L 336.899235 168.6767 
L 336.985359 168.6767 
L 336.985359 163.961188 
L 337.32252 163.961188 
L 337.32252 159.245677 
L 337.476692 159.245677 
L 337.476692 154.530165 
L 338.115291 154.530165 
L 338.115291 149.814653 
L 338.440502 149.814653 
L 338.440502 145.099142 
L 338.905956 145.099142 
L 338.905956 140.38363 
L 339.540209 140.38363 
L 339.540209 135.668119 
L 340.097518 135.668119 
L 340.097518 130.952607 
L 340.389138 130.952607 
L 340.389138 126.237096 
L 340.570447 126.237096 
L 340.570447 121.521584 
L 340.752511 121.521584 
L 340.752511 116.806073 
L 341.441974 116.806073 
L 341.441974 112.090561 
L 341.718561 112.090561 
L 341.718561 107.37505 
L 341.888586 107.37505 
L 341.888586 102.659538 
L 342.655669 102.659538 
L 342.655669 97.944026 
L 343.959571 97.944026 
L 343.959571 93.228515 
L 344.460047 93.228515 
L 344.460047 88.513003 
L 344.672362 88.513003 
L 344.672362 83.797492 
L 345.32582 83.797492 
L 345.32582 79.08198 
L 345.403394 79.08198 
L 345.403394 74.366469 
L 346.218375 74.366469 
L 346.218375 69.650957 
L 346.398655 69.650957 
L 346.398655 64.935446 
L 348.801619 64.935446 
L 348.801619 60.219934 
L 350.903779 60.219934 
L 350.903779 55.504422 
L 351.078094 55.504422 
L 351.078094 50.788911 
L 351.291123 50.788911 
L 351.291123 46.073399 
L 351.344271 46.073399 
L 351.344271 41.357888 
L 351.375222 41.357888 
L 351.375222 36.642376 
L 351.458446 36.642376 
L 351.458446 31.926865 
L 351.910907 31.926865 
L 351.910907 27.211353 
L 352.467671 27.211353 
L 352.467671 22.495842 
L 352.699077 22.495842 
L 352.699077 17.78033 
L 357.623649 17.78033 
L 357.623649 13.064818 
L 357.931922 13.064818 
L 357.931922 8.349307 
L 357.931922 8.349307 
L 357.931922 8.349307 
L 450.672 8.349307 
" style="fill:none;stroke:#00bfbf;stroke-linecap:square;stroke-width:1.5;"/>
   </g>
   <g id="line2d_25">
    <path clip-path="url(#p325e67c468)" d="M 274.165653 291.28 
L 274.165653 286.564488 
L 275.206688 286.564488 
L 275.206688 281.848977 
L 276.184565 281.848977 
L 276.184565 277.133465 
L 276.558869 277.133465 
L 276.558869 272.417954 
L 278.989052 272.417954 
L 278.989052 267.702442 
L 279.923727 267.702442 
L 279.923727 262.986931 
L 280.794646 262.986931 
L 280.794646 258.271419 
L 280.963668 258.271419 
L 280.963668 253.555908 
L 281.241927 253.555908 
L 281.241927 248.840396 
L 281.855511 248.840396 
L 281.855511 244.124884 
L 284.129477 244.124884 
L 284.129477 239.409373 
L 284.392778 239.409373 
L 284.392778 234.693861 
L 284.752526 234.693861 
L 284.752526 229.97835 
L 287.273284 229.97835 
L 287.273284 225.262838 
L 287.563987 225.262838 
L 287.563987 220.547327 
L 327.883069 220.547327 
L 327.883069 215.831815 
L 329.391054 215.831815 
L 329.391054 211.116304 
L 330.499651 211.116304 
L 330.499651 206.400792 
L 331.386711 206.400792 
L 331.386711 201.685281 
L 332.895543 201.685281 
L 332.895543 196.969769 
L 332.981712 196.969769 
L 332.981712 192.254257 
L 333.327753 192.254257 
L 333.327753 187.538746 
L 334.762708 187.538746 
L 334.762708 182.823234 
L 334.800032 182.823234 
L 334.800032 178.107723 
L 335.072961 178.107723 
L 335.072961 173.392211 
L 335.352975 173.392211 
L 335.352975 168.6767 
L 335.568203 168.6767 
L 335.568203 163.961188 
L 336.010753 163.961188 
L 336.010753 159.245677 
L 336.505601 159.245677 
L 336.505601 154.530165 
L 336.899235 154.530165 
L 336.899235 149.814653 
L 336.985359 149.814653 
L 336.985359 145.099142 
L 337.288236 145.099142 
L 337.288236 140.38363 
L 337.476692 140.38363 
L 337.476692 135.668119 
L 337.96783 135.668119 
L 337.96783 130.952607 
L 338.100773 130.952607 
L 338.100773 126.237096 
L 338.115291 126.237096 
L 338.115291 121.521584 
L 338.440502 121.521584 
L 338.440502 116.806073 
L 338.905956 116.806073 
L 338.905956 112.090561 
L 339.485528 112.090561 
L 339.485528 107.37505 
L 339.540209 107.37505 
L 339.540209 102.659538 
L 339.961247 102.659538 
L 339.961247 97.944026 
L 340.68736 97.944026 
L 340.68736 93.228515 
L 340.726796 93.228515 
L 340.726796 88.513003 
L 341.718561 88.513003 
L 341.718561 83.797492 
L 343.154139 83.797492 
L 343.154139 79.08198 
L 343.959571 79.08198 
L 343.959571 74.366469 
L 344.460047 74.366469 
L 344.460047 69.650957 
L 344.636197 69.650957 
L 344.636197 64.935446 
L 345.99918 64.935446 
L 345.99918 60.219934 
L 346.398655 60.219934 
L 346.398655 55.504422 
L 346.871567 55.504422 
L 346.871567 50.788911 
L 347.844353 50.788911 
L 347.844353 46.073399 
L 348.801619 46.073399 
L 348.801619 41.357888 
L 349.57382 41.357888 
L 349.57382 36.642376 
L 351.078094 36.642376 
L 351.078094 31.926865 
L 351.344271 31.926865 
L 351.344271 27.211353 
L 351.458446 27.211353 
L 351.458446 22.495842 
L 351.910907 22.495842 
L 351.910907 17.78033 
L 352.699077 17.78033 
L 352.699077 13.064818 
L 357.623649 13.064818 
L 357.623649 8.349307 
L 357.623649 8.349307 
L 357.623649 8.349307 
L 450.672 8.349307 
" style="fill:none;stroke:#bf00bf;stroke-linecap:square;stroke-width:1.5;"/>
   </g>
   <g id="line2d_26">
    <path clip-path="url(#p325e67c468)" d="M 270.864618 291.28 
L 270.864618 286.564488 
L 271.924201 286.564488 
L 271.924201 281.848977 
L 273.087359 281.848977 
L 273.087359 277.133465 
L 273.790125 277.133465 
L 273.790125 272.417954 
L 273.848208 272.417954 
L 273.848208 267.702442 
L 275.804243 267.702442 
L 275.804243 262.986931 
L 276.558869 262.986931 
L 276.558869 258.271419 
L 277.308818 258.271419 
L 277.308818 253.555908 
L 277.370359 253.555908 
L 277.370359 248.840396 
L 277.577101 248.840396 
L 277.577101 244.124884 
L 278.255653 244.124884 
L 278.255653 239.409373 
L 279.764292 239.409373 
L 279.764292 234.693861 
L 280.730415 234.693861 
L 280.730415 229.97835 
L 282.228535 229.97835 
L 282.228535 225.262838 
L 282.628251 225.262838 
L 282.628251 220.547327 
L 325.478238 220.547327 
L 325.478238 215.831815 
L 326.234835 215.831815 
L 326.234835 211.116304 
L 326.690153 211.116304 
L 326.690153 206.400792 
L 326.873455 206.400792 
L 326.873455 201.685281 
L 327.980902 201.685281 
L 327.980902 196.969769 
L 328.317655 196.969769 
L 328.317655 192.254257 
L 329.534016 192.254257 
L 329.534016 187.538746 
L 329.690238 187.538746 
L 329.690238 182.823234 
L 329.753628 182.823234 
L 329.753628 178.107723 
L 329.854816 178.107723 
L 329.854816 173.392211 
L 329.962051 173.392211 
L 329.962051 168.6767 
L 330.499651 168.6767 
L 330.499651 163.961188 
L 330.731073 163.961188 
L 330.731073 159.245677 
L 330.774747 159.245677 
L 330.774747 154.530165 
L 331.404887 154.530165 
L 331.404887 149.814653 
L 331.580187 149.814653 
L 331.580187 145.099142 
L 332.659222 145.099142 
L 332.659222 140.38363 
L 332.740202 140.38363 
L 332.740202 135.668119 
L 332.981712 135.668119 
L 332.981712 130.952607 
L 333.705754 130.952607 
L 333.705754 126.237096 
L 333.778143 126.237096 
L 333.778143 121.521584 
L 334.060915 121.521584 
L 334.060915 116.806073 
L 334.627182 116.806073 
L 334.627182 112.090561 
L 334.762708 112.090561 
L 334.762708 107.37505 
L 335.078622 107.37505 
L 335.078622 102.659538 
L 335.797551 102.659538 
L 335.797551 97.944026 
L 336.298951 97.944026 
L 336.298951 93.228515 
L 336.677216 93.228515 
L 336.677216 88.513003 
L 337.285383 88.513003 
L 337.285383 83.797492 
L 338.440502 83.797492 
L 338.440502 79.08198 
L 338.905956 79.08198 
L 338.905956 74.366469 
L 339.009854 74.366469 
L 339.009854 69.650957 
L 339.538304 69.650957 
L 339.538304 64.935446 
L 340.68736 64.935446 
L 340.68736 60.219934 
L 342.083709 60.219934 
L 342.083709 55.504422 
L 343.143897 55.504422 
L 343.143897 50.788911 
L 343.908067 50.788911 
L 343.908067 46.073399 
L 343.959571 46.073399 
L 343.959571 41.357888 
L 344.707518 41.357888 
L 344.707518 36.642376 
L 346.871567 36.642376 
L 346.871567 31.926865 
L 347.743458 31.926865 
L 347.743458 27.211353 
L 348.879748 27.211353 
L 348.879748 22.495842 
L 349.146291 22.495842 
L 349.146291 17.78033 
L 349.904262 17.78033 
L 349.904262 13.064818 
L 351.262343 13.064818 
L 351.262343 8.349307 
L 351.262343 8.349307 
L 351.262343 8.349307 
L 450.672 8.349307 
" style="fill:none;stroke:#000000;stroke-linecap:square;stroke-width:1.5;"/>
   </g>
   <g id="line2d_27">
    <path clip-path="url(#p325e67c468)" d="M 262.727684 291.28 
L 262.727684 286.564488 
L 264.278122 286.564488 
L 264.278122 281.848977 
L 264.538923 281.848977 
L 264.538923 277.133465 
L 265.115662 277.133465 
L 265.115662 272.417954 
L 265.570641 272.417954 
L 265.570641 267.702442 
L 265.853406 267.702442 
L 265.853406 262.986931 
L 265.915455 262.986931 
L 265.915455 258.271419 
L 266.238168 258.271419 
L 266.238168 253.555908 
L 268.2747 253.555908 
L 268.2747 248.840396 
L 268.612341 248.840396 
L 268.612341 244.124884 
L 268.795849 244.124884 
L 268.795849 239.409373 
L 270.293702 239.409373 
L 270.293702 234.693861 
L 272.377317 234.693861 
L 272.377317 229.97835 
L 272.427361 229.97835 
L 272.427361 225.262838 
L 272.94727 225.262838 
L 272.94727 220.547327 
L 279.3244 220.547327 
L 279.3244 215.831815 
L 306.866689 215.831815 
L 306.866689 211.116304 
L 308.705926 211.116304 
L 308.705926 206.400792 
L 308.982479 206.400792 
L 308.982479 201.685281 
L 310.959827 201.685281 
L 310.959827 196.969769 
L 311.186369 196.969769 
L 311.186369 192.254257 
L 311.349883 192.254257 
L 311.349883 187.538746 
L 312.332761 187.538746 
L 312.332761 182.823234 
L 312.582281 182.823234 
L 312.582281 178.107723 
L 312.90851 178.107723 
L 312.90851 173.392211 
L 313.438471 173.392211 
L 313.438471 168.6767 
L 313.448674 168.6767 
L 313.448674 163.961188 
L 313.49699 163.961188 
L 313.49699 159.245677 
L 313.852539 159.245677 
L 313.852539 154.530165 
L 315.31364 154.530165 
L 315.31364 149.814653 
L 315.694967 149.814653 
L 315.694967 145.099142 
L 315.697281 145.099142 
L 315.697281 140.38363 
L 316.907296 140.38363 
L 316.907296 135.668119 
L 317.174857 135.668119 
L 317.174857 130.952607 
L 317.943131 130.952607 
L 317.943131 126.237096 
L 318.552648 126.237096 
L 318.552648 121.521584 
L 319.353617 121.521584 
L 319.353617 116.806073 
L 319.857012 116.806073 
L 319.857012 112.090561 
L 320.112593 112.090561 
L 320.112593 107.37505 
L 320.802808 107.37505 
L 320.802808 102.659538 
L 321.035764 102.659538 
L 321.035764 97.944026 
L 322.091257 97.944026 
L 322.091257 93.228515 
L 322.731052 93.228515 
L 322.731052 88.513003 
L 322.816931 88.513003 
L 322.816931 83.797492 
L 323.435418 83.797492 
L 323.435418 79.08198 
L 324.837318 79.08198 
L 324.837318 74.366469 
L 325.203576 74.366469 
L 325.203576 69.650957 
L 325.311941 69.650957 
L 325.311941 64.935446 
L 325.887351 64.935446 
L 325.887351 60.219934 
L 325.951388 60.219934 
L 325.951388 55.504422 
L 327.07689 55.504422 
L 327.07689 50.788911 
L 328.692488 50.788911 
L 328.692488 46.073399 
L 329.517997 46.073399 
L 329.517997 41.357888 
L 331.031721 41.357888 
L 331.031721 36.642376 
L 333.571525 36.642376 
L 333.571525 31.926865 
L 334.200228 31.926865 
L 334.200228 27.211353 
L 335.556405 27.211353 
L 335.556405 22.495842 
L 336.872546 22.495842 
L 336.872546 17.78033 
L 339.266448 17.78033 
L 339.266448 13.064818 
L 339.387803 13.064818 
L 339.387803 8.349307 
L 339.387803 8.349307 
L 339.387803 8.349307 
L 450.672 8.349307 
" style="fill:none;stroke:#00bfbf;stroke-linecap:square;stroke-width:1.5;"/>
   </g>
   <g id="line2d_28">
    <path clip-path="url(#p325e67c468)" d="M 256.244264 291.28 
L 256.244264 286.564488 
L 262.000762 286.564488 
L 262.000762 281.848977 
L 262.322696 281.848977 
L 262.322696 277.133465 
L 262.49462 277.133465 
L 262.49462 272.417954 
L 262.810711 272.417954 
L 262.810711 267.702442 
L 263.132232 267.702442 
L 263.132232 262.986931 
L 263.596025 262.986931 
L 263.596025 258.271419 
L 264.703326 258.271419 
L 264.703326 253.555908 
L 265.316394 253.555908 
L 265.316394 248.840396 
L 265.569202 248.840396 
L 265.569202 244.124884 
L 267.275147 244.124884 
L 267.275147 239.409373 
L 267.302498 239.409373 
L 267.302498 234.693861 
L 270.05727 234.693861 
L 270.05727 229.97835 
L 271.533747 229.97835 
L 271.533747 225.262838 
L 271.766415 225.262838 
L 271.766415 220.547327 
L 272.267134 220.547327 
L 272.267134 215.831815 
L 284.268066 215.831815 
L 284.268066 211.116304 
L 284.563335 211.116304 
L 284.563335 206.400792 
L 292.180933 206.400792 
L 292.180933 201.685281 
L 298.812395 201.685281 
L 298.812395 196.969769 
L 300.833933 196.969769 
L 300.833933 192.254257 
L 301.452971 192.254257 
L 301.452971 187.538746 
L 301.987254 187.538746 
L 301.987254 182.823234 
L 302.755443 182.823234 
L 302.755443 178.107723 
L 302.864295 178.107723 
L 302.864295 173.392211 
L 303.687704 173.392211 
L 303.687704 168.6767 
L 304.523293 168.6767 
L 304.523293 163.961188 
L 305.533819 163.961188 
L 305.533819 159.245677 
L 305.770528 159.245677 
L 305.770528 154.530165 
L 306.174676 154.530165 
L 306.174676 149.814653 
L 306.955638 149.814653 
L 306.955638 145.099142 
L 307.048937 145.099142 
L 307.048937 140.38363 
L 307.998855 140.38363 
L 307.998855 135.668119 
L 309.885836 135.668119 
L 309.885836 130.952607 
L 310.339531 130.952607 
L 310.339531 126.237096 
L 310.855329 126.237096 
L 310.855329 121.521584 
L 311.851513 121.521584 
L 311.851513 116.806073 
L 311.971754 116.806073 
L 311.971754 112.090561 
L 312.527191 112.090561 
L 312.527191 107.37505 
L 312.554366 107.37505 
L 312.554366 102.659538 
L 312.726006 102.659538 
L 312.726006 97.944026 
L 314.158481 97.944026 
L 314.158481 93.228515 
L 314.681749 93.228515 
L 314.681749 88.513003 
L 315.141144 88.513003 
L 315.141144 83.797492 
L 315.880558 83.797492 
L 315.880558 79.08198 
L 316.040646 79.08198 
L 316.040646 74.366469 
L 318.181501 74.366469 
L 318.181501 69.650957 
L 319.465589 69.650957 
L 319.465589 64.935446 
L 319.729605 64.935446 
L 319.729605 60.219934 
L 319.788392 60.219934 
L 319.788392 55.504422 
L 319.820312 55.504422 
L 319.820312 50.788911 
L 319.822824 50.788911 
L 319.822824 46.073399 
L 321.0677 46.073399 
L 321.0677 41.357888 
L 321.753179 41.357888 
L 321.753179 36.642376 
L 325.128973 36.642376 
L 325.128973 31.926865 
L 325.949179 31.926865 
L 325.949179 27.211353 
L 329.180599 27.211353 
L 329.180599 22.495842 
L 330.328772 22.495842 
L 330.328772 17.78033 
L 333.107116 17.78033 
L 333.107116 13.064818 
L 333.292315 13.064818 
L 333.292315 8.349307 
L 333.292315 8.349307 
L 333.292315 8.349307 
L 450.672 8.349307 
" style="fill:none;stroke:#bf00bf;stroke-linecap:square;stroke-width:1.5;"/>
   </g>
   <g id="line2d_29">
    <path clip-path="url(#p325e67c468)" d="M 256.244264 291.28 
L 256.244264 286.564488 
L 262.000762 286.564488 
L 262.000762 281.848977 
L 262.322696 281.848977 
L 262.322696 277.133465 
L 262.49462 277.133465 
L 262.49462 272.417954 
L 262.810711 272.417954 
L 262.810711 267.702442 
L 263.132232 267.702442 
L 263.132232 262.986931 
L 263.596025 262.986931 
L 263.596025 258.271419 
L 264.703326 258.271419 
L 264.703326 253.555908 
L 265.316394 253.555908 
L 265.316394 248.840396 
L 265.569202 248.840396 
L 265.569202 244.124884 
L 267.275147 244.124884 
L 267.275147 239.409373 
L 267.302498 239.409373 
L 267.302498 234.693861 
L 270.05727 234.693861 
L 270.05727 229.97835 
L 271.533747 229.97835 
L 271.533747 225.262838 
L 271.717991 225.262838 
L 271.717991 220.547327 
L 272.267134 220.547327 
L 272.267134 215.831815 
L 281.741611 215.831815 
L 281.741611 211.116304 
L 282.87942 211.116304 
L 282.87942 206.400792 
L 286.988644 206.400792 
L 286.988644 201.685281 
L 298.81158 201.685281 
L 298.81158 196.969769 
L 300.017 196.969769 
L 300.017 192.254257 
L 300.578819 192.254257 
L 300.578819 187.538746 
L 301.952424 187.538746 
L 301.952424 182.823234 
L 302.097304 182.823234 
L 302.097304 178.107723 
L 302.71674 178.107723 
L 302.71674 173.392211 
L 303.523044 173.392211 
L 303.523044 168.6767 
L 304.083251 168.6767 
L 304.083251 163.961188 
L 304.750763 163.961188 
L 304.750763 159.245677 
L 304.795529 159.245677 
L 304.795529 154.530165 
L 304.873501 154.530165 
L 304.873501 149.814653 
L 305.345763 149.814653 
L 305.345763 145.099142 
L 305.746561 145.099142 
L 305.746561 140.38363 
L 306.248679 140.38363 
L 306.248679 135.668119 
L 307.18693 135.668119 
L 307.18693 130.952607 
L 307.671802 130.952607 
L 307.671802 126.237096 
L 308.981011 126.237096 
L 308.981011 121.521584 
L 309.73803 121.521584 
L 309.73803 116.806073 
L 310.338392 116.806073 
L 310.338392 112.090561 
L 310.686792 112.090561 
L 310.686792 107.37505 
L 311.997727 107.37505 
L 311.997727 102.659538 
L 312.111177 102.659538 
L 312.111177 97.944026 
L 312.720904 97.944026 
L 312.720904 93.228515 
L 313.120046 93.228515 
L 313.120046 88.513003 
L 313.310791 88.513003 
L 313.310791 83.797492 
L 313.811151 83.797492 
L 313.811151 79.08198 
L 314.134037 79.08198 
L 314.134037 74.366469 
L 315.864569 74.366469 
L 315.864569 69.650957 
L 317.898064 69.650957 
L 317.898064 64.935446 
L 318.318301 64.935446 
L 318.318301 60.219934 
L 318.612206 60.219934 
L 318.612206 55.504422 
L 318.699126 55.504422 
L 318.699126 50.788911 
L 318.843281 50.788911 
L 318.843281 46.073399 
L 319.44989 46.073399 
L 319.44989 41.357888 
L 320.790663 41.357888 
L 320.790663 36.642376 
L 325.10247 36.642376 
L 325.10247 31.926865 
L 325.470033 31.926865 
L 325.470033 27.211353 
L 327.900428 27.211353 
L 327.900428 22.495842 
L 328.092816 22.495842 
L 328.092816 17.78033 
L 332.358851 17.78033 
L 332.358851 13.064818 
L 333.100462 13.064818 
L 333.100462 8.349307 
L 333.100462 8.349307 
L 333.100462 8.349307 
L 450.672 8.349307 
" style="fill:none;stroke:#000000;stroke-linecap:square;stroke-width:1.5;"/>
   </g>
   <g id="patch_3">
    <path d="M 5.52 291.28 
L 5.52 5.52 
" style="fill:none;stroke:#000000;stroke-linecap:square;stroke-linejoin:miter;stroke-width:0.8;"/>
   </g>
   <g id="patch_4">
    <path d="M 450.672 291.28 
L 450.672 5.52 
" style="fill:none;stroke:#000000;stroke-linecap:square;stroke-linejoin:miter;stroke-width:0.8;"/>
   </g>
   <g id="patch_5">
    <path d="M 5.52 291.28 
L 450.672 291.28 
" style="fill:none;stroke:#000000;stroke-linecap:square;stroke-linejoin:miter;stroke-width:0.8;"/>
   </g>
   <g id="patch_6">
    <path d="M 5.52 5.52 
L 450.672 5.52 
" style="fill:none;stroke:#000000;stroke-linecap:square;stroke-linejoin:miter;stroke-width:0.8;"/>
   </g>
   <g id="text_6">
    <!-- {f6-f9}, 20-D -->
    <defs>
     <path d="M 51.125 -9.28125 
L 51.125 -16.3125 
L 48.09375 -16.3125 
Q 35.9375 -16.3125 31.8125 -12.6875 
Q 27.6875 -9.078125 27.6875 1.703125 
L 27.6875 13.375 
Q 27.6875 20.75 25.046875 23.578125 
Q 22.40625 26.421875 15.484375 26.421875 
L 12.5 26.421875 
L 12.5 33.40625 
L 15.484375 33.40625 
Q 22.46875 33.40625 25.078125 36.203125 
Q 27.6875 39.015625 27.6875 46.296875 
L 27.6875 58.015625 
Q 27.6875 68.796875 31.8125 72.390625 
Q 35.9375 75.984375 48.09375 75.984375 
L 51.125 75.984375 
L 51.125 69 
L 47.796875 69 
Q 40.921875 69 38.8125 66.84375 
Q 36.71875 64.703125 36.71875 57.8125 
L 36.71875 45.703125 
Q 36.71875 38.03125 34.5 34.5625 
Q 32.28125 31.109375 26.90625 29.890625 
Q 32.328125 28.5625 34.515625 25.09375 
Q 36.71875 21.625 36.71875 14.015625 
L 36.71875 1.90625 
Q 36.71875 -4.984375 38.8125 -7.125 
Q 40.921875 -9.28125 47.796875 -9.28125 
z
" id="DejaVuSans-7b"/>
     <path d="M 33.015625 40.375 
Q 26.375 40.375 22.484375 35.828125 
Q 18.609375 31.296875 18.609375 23.390625 
Q 18.609375 15.53125 22.484375 10.953125 
Q 26.375 6.390625 33.015625 6.390625 
Q 39.65625 6.390625 43.53125 10.953125 
Q 47.40625 15.53125 47.40625 23.390625 
Q 47.40625 31.296875 43.53125 35.828125 
Q 39.65625 40.375 33.015625 40.375 
z
M 52.59375 71.296875 
L 52.59375 62.3125 
Q 48.875 64.0625 45.09375 64.984375 
Q 41.3125 65.921875 37.59375 65.921875 
Q 27.828125 65.921875 22.671875 59.328125 
Q 17.53125 52.734375 16.796875 39.40625 
Q 19.671875 43.65625 24.015625 45.921875 
Q 28.375 48.1875 33.59375 48.1875 
Q 44.578125 48.1875 50.953125 41.515625 
Q 57.328125 34.859375 57.328125 23.390625 
Q 57.328125 12.15625 50.6875 5.359375 
Q 44.046875 -1.421875 33.015625 -1.421875 
Q 20.359375 -1.421875 13.671875 8.265625 
Q 6.984375 17.96875 6.984375 36.375 
Q 6.984375 53.65625 15.1875 63.9375 
Q 23.390625 74.21875 37.203125 74.21875 
Q 40.921875 74.21875 44.703125 73.484375 
Q 48.484375 72.75 52.59375 71.296875 
z
" id="DejaVuSans-36"/>
     <path d="M 10.984375 1.515625 
L 10.984375 10.5 
Q 14.703125 8.734375 18.5 7.8125 
Q 22.3125 6.890625 25.984375 6.890625 
Q 35.75 6.890625 40.890625 13.453125 
Q 46.046875 20.015625 46.78125 33.40625 
Q 43.953125 29.203125 39.59375 26.953125 
Q 35.25 24.703125 29.984375 24.703125 
Q 19.046875 24.703125 12.671875 31.3125 
Q 6.296875 37.9375 6.296875 49.421875 
Q 6.296875 60.640625 12.9375 67.421875 
Q 19.578125 74.21875 30.609375 74.21875 
Q 43.265625 74.21875 49.921875 64.515625 
Q 56.59375 54.828125 56.59375 36.375 
Q 56.59375 19.140625 48.40625 8.859375 
Q 40.234375 -1.421875 26.421875 -1.421875 
Q 22.703125 -1.421875 18.890625 -0.6875 
Q 15.09375 0.046875 10.984375 1.515625 
z
M 30.609375 32.421875 
Q 37.25 32.421875 41.125 36.953125 
Q 45.015625 41.5 45.015625 49.421875 
Q 45.015625 57.28125 41.125 61.84375 
Q 37.25 66.40625 30.609375 66.40625 
Q 23.96875 66.40625 20.09375 61.84375 
Q 16.21875 57.28125 16.21875 49.421875 
Q 16.21875 41.5 20.09375 36.953125 
Q 23.96875 32.421875 30.609375 32.421875 
z
" id="DejaVuSans-39"/>
     <path d="M 12.5 -9.28125 
L 15.921875 -9.28125 
Q 22.75 -9.28125 24.828125 -7.171875 
Q 26.90625 -5.078125 26.90625 1.90625 
L 26.90625 14.015625 
Q 26.90625 21.625 29.09375 25.09375 
Q 31.296875 28.5625 36.71875 29.890625 
Q 31.296875 31.109375 29.09375 34.5625 
Q 26.90625 38.03125 26.90625 45.703125 
L 26.90625 57.8125 
Q 26.90625 64.75 24.828125 66.875 
Q 22.75 69 15.921875 69 
L 12.5 69 
L 12.5 75.984375 
L 15.578125 75.984375 
Q 27.734375 75.984375 31.8125 72.390625 
Q 35.890625 68.796875 35.890625 58.015625 
L 35.890625 46.296875 
Q 35.890625 39.015625 38.515625 36.203125 
Q 41.15625 33.40625 48.09375 33.40625 
L 51.125 33.40625 
L 51.125 26.421875 
L 48.09375 26.421875 
Q 41.15625 26.421875 38.515625 23.578125 
Q 35.890625 20.75 35.890625 13.375 
L 35.890625 1.703125 
Q 35.890625 -9.078125 31.8125 -12.6875 
Q 27.734375 -16.3125 15.578125 -16.3125 
L 12.5 -16.3125 
z
" id="DejaVuSans-7d"/>
     <path d="M 11.71875 12.40625 
L 22.015625 12.40625 
L 22.015625 4 
L 14.015625 -11.625 
L 7.71875 -11.625 
L 11.71875 4 
z
" id="DejaVuSans-2c"/>
     <path d="M 19.1875 8.296875 
L 53.609375 8.296875 
L 53.609375 0 
L 7.328125 0 
L 7.328125 8.296875 
Q 12.9375 14.109375 22.625 23.890625 
Q 32.328125 33.6875 34.8125 36.53125 
Q 39.546875 41.84375 41.421875 45.53125 
Q 43.3125 49.21875 43.3125 52.78125 
Q 43.3125 58.59375 39.234375 62.25 
Q 35.15625 65.921875 28.609375 65.921875 
Q 23.96875 65.921875 18.8125 64.3125 
Q 13.671875 62.703125 7.8125 59.421875 
L 7.8125 69.390625 
Q 13.765625 71.78125 18.9375 73 
Q 24.125 74.21875 28.421875 74.21875 
Q 39.75 74.21875 46.484375 68.546875 
Q 53.21875 62.890625 53.21875 53.421875 
Q 53.21875 48.921875 51.53125 44.890625 
Q 49.859375 40.875 45.40625 35.40625 
Q 44.1875 33.984375 37.640625 27.21875 
Q 31.109375 20.453125 19.1875 8.296875 
z
" id="DejaVuSans-32"/>
    </defs>
    <g transform="translate(308.79396 285.5648)scale(0.2 -0.2)">
     <use xlink:href="#DejaVuSans-7b"/>
     <use x="63.623047" xlink:href="#DejaVuSans-66"/>
     <use x="98.828125" xlink:href="#DejaVuSans-36"/>
     <use x="162.451172" xlink:href="#DejaVuSans-2d"/>
     <use x="198.535156" xlink:href="#DejaVuSans-66"/>
     <use x="233.740234" xlink:href="#DejaVuSans-39"/>
     <use x="297.363281" xlink:href="#DejaVuSans-7d"/>
     <use x="360.986328" xlink:href="#DejaVuSans-2c"/>
     <use x="392.773438" xlink:href="#DejaVuSans-20"/>
     <use x="424.560547" xlink:href="#DejaVuSans-32"/>
     <use x="488.183594" xlink:href="#DejaVuSans-30"/>
     <use x="551.806641" xlink:href="#DejaVuSans-2d"/>
     <use x="587.890625" xlink:href="#DejaVuSans-44"/>
    </g>
   </g>
   <g id="text_7">
    <!-- v2.2.1.10 -->
    <defs>
     <path d="M 2.984375 54.6875 
L 12.5 54.6875 
L 29.59375 8.796875 
L 46.6875 54.6875 
L 56.203125 54.6875 
L 35.6875 0 
L 23.484375 0 
z
" id="DejaVuSans-76"/>
     <path d="M 10.6875 12.40625 
L 21 12.40625 
L 21 0 
L 10.6875 0 
z
" id="DejaVuSans-2e"/>
    </defs>
    <g style="fill:#808080;" transform="translate(204.463188 286.342713)scale(0.1 -0.1)">
     <use xlink:href="#DejaVuSans-76"/>
     <use x="59.179688" xlink:href="#DejaVuSans-32"/>
     <use x="122.802734" xlink:href="#DejaVuSans-2e"/>
     <use x="154.589844" xlink:href="#DejaVuSans-32"/>
     <use x="218.212891" xlink:href="#DejaVuSans-2e"/>
     <use x="250" xlink:href="#DejaVuSans-31"/>
     <use x="313.623047" xlink:href="#DejaVuSans-2e"/>
     <use x="345.410156" xlink:href="#DejaVuSans-31"/>
     <use x="409.033203" xlink:href="#DejaVuSans-30"/>
    </g>
   </g>
  </g>
 </g>
 <defs>
  <clipPath id="p325e67c468">
   <rect height="285.76" width="445.152" x="5.52" y="5.52"/>
  </clipPath>
 </defs>
</svg>
