<?xml version="1.0" encoding="utf-8" standalone="no"?>
<!DOCTYPE svg PUBLIC "-//W3C//DTD SVG 1.1//EN"
  "http://www.w3.org/Graphics/SVG/1.1/DTD/svg11.dtd">
<!-- Created with matplotlib (http://matplotlib.org/) -->
<svg height="345.6pt" version="1.1" viewBox="0 0 460.8 345.6" width="460.8pt" xmlns="http://www.w3.org/2000/svg" xmlns:xlink="http://www.w3.org/1999/xlink">
 <defs>
  <style type="text/css">
*{stroke-linecap:butt;stroke-linejoin:round;}
  </style>
 </defs>
 <g id="figure_1">
  <g id="patch_1">
   <path d="M 0 345.6 
L 460.8 345.6 
L 460.8 0 
L 0 0 
z
" style="fill:#ffffff;"/>
  </g>
  <g id="axes_1">
   <g id="patch_2">
    <path d="M 5.52 291.28 
L 450.672 291.28 
L 450.672 5.52 
L 5.52 5.52 
z
" style="fill:#ffffff;"/>
   </g>
   <g id="matplotlib.axis_1">
    <g id="xtick_1">
     <g id="line2d_1">
      <path clip-path="url(#p7ad179a34b)" d="M 5.416431 291.28 
L 5.416431 5.52 
" style="fill:none;stroke:#b0b0b0;stroke-linecap:square;stroke-width:0.8;"/>
     </g>
     <g id="line2d_2">
      <defs>
       <path d="M 0 0 
L 0 3.5 
" id="m942aea6c65" style="stroke:#000000;stroke-width:0.8;"/>
      </defs>
      <g>
       <use style="stroke:#000000;stroke-width:0.8;" x="5.416431" xlink:href="#m942aea6c65" y="291.28"/>
      </g>
     </g>
    </g>
    <g id="xtick_2">
     <g id="line2d_3">
      <path clip-path="url(#p7ad179a34b)" d="M 101.283564 291.28 
L 101.283564 5.52 
" style="fill:none;stroke:#b0b0b0;stroke-linecap:square;stroke-width:0.8;"/>
     </g>
     <g id="line2d_4">
      <g>
       <use style="stroke:#000000;stroke-width:0.8;" x="101.283564" xlink:href="#m942aea6c65" y="291.28"/>
      </g>
     </g>
     <g id="text_1">
      <!-- -4 -->
      <defs>
       <path d="M 4.890625 31.390625 
L 31.203125 31.390625 
L 31.203125 23.390625 
L 4.890625 23.390625 
z
" id="DejaVuSans-2d"/>
       <path d="M 37.796875 64.3125 
L 12.890625 25.390625 
L 37.796875 25.390625 
z
M 35.203125 72.90625 
L 47.609375 72.90625 
L 47.609375 25.390625 
L 58.015625 25.390625 
L 58.015625 17.1875 
L 47.609375 17.1875 
L 47.609375 0 
L 37.796875 0 
L 37.796875 17.1875 
L 4.890625 17.1875 
L 4.890625 26.703125 
z
" id="DejaVuSans-34"/>
      </defs>
      <g transform="translate(91.313252 313.476875)scale(0.2 -0.2)">
       <use xlink:href="#DejaVuSans-2d"/>
       <use x="36.083984" xlink:href="#DejaVuSans-34"/>
      </g>
     </g>
    </g>
    <g id="xtick_3">
     <g id="line2d_5">
      <path clip-path="url(#p7ad179a34b)" d="M 197.150698 291.28 
L 197.150698 5.52 
" style="fill:none;stroke:#b0b0b0;stroke-linecap:square;stroke-width:0.8;"/>
     </g>
     <g id="line2d_6">
      <g>
       <use style="stroke:#000000;stroke-width:0.8;" x="197.150698" xlink:href="#m942aea6c65" y="291.28"/>
      </g>
     </g>
     <g id="text_2">
      <!-- 0 -->
      <defs>
       <path d="M 31.78125 66.40625 
Q 24.171875 66.40625 20.328125 58.90625 
Q 16.5 51.421875 16.5 36.375 
Q 16.5 21.390625 20.328125 13.890625 
Q 24.171875 6.390625 31.78125 6.390625 
Q 39.453125 6.390625 43.28125 13.890625 
Q 47.125 21.390625 47.125 36.375 
Q 47.125 51.421875 43.28125 58.90625 
Q 39.453125 66.40625 31.78125 66.40625 
z
M 31.78125 74.21875 
Q 44.046875 74.21875 50.515625 64.515625 
Q 56.984375 54.828125 56.984375 36.375 
Q 56.984375 17.96875 50.515625 8.265625 
Q 44.046875 -1.421875 31.78125 -1.421875 
Q 19.53125 -1.421875 13.0625 8.265625 
Q 6.59375 17.96875 6.59375 36.375 
Q 6.59375 54.828125 13.0625 64.515625 
Q 19.53125 74.21875 31.78125 74.21875 
z
" id="DejaVuSans-30"/>
      </defs>
      <g transform="translate(190.788198 313.476875)scale(0.2 -0.2)">
       <use xlink:href="#DejaVuSans-30"/>
      </g>
     </g>
    </g>
    <g id="xtick_4">
     <g id="line2d_7">
      <path clip-path="url(#p7ad179a34b)" d="M 293.017831 291.28 
L 293.017831 5.52 
" style="fill:none;stroke:#b0b0b0;stroke-linecap:square;stroke-width:0.8;"/>
     </g>
     <g id="line2d_8">
      <g>
       <use style="stroke:#000000;stroke-width:0.8;" x="293.017831" xlink:href="#m942aea6c65" y="291.28"/>
      </g>
     </g>
     <g id="text_3">
      <!-- 4 -->
      <g transform="translate(286.655331 313.476875)scale(0.2 -0.2)">
       <use xlink:href="#DejaVuSans-34"/>
      </g>
     </g>
    </g>
    <g id="xtick_5">
     <g id="line2d_9">
      <path clip-path="url(#p7ad179a34b)" d="M 388.884965 291.28 
L 388.884965 5.52 
" style="fill:none;stroke:#b0b0b0;stroke-linecap:square;stroke-width:0.8;"/>
     </g>
     <g id="line2d_10">
      <g>
       <use style="stroke:#000000;stroke-width:0.8;" x="388.884965" xlink:href="#m942aea6c65" y="291.28"/>
      </g>
     </g>
     <g id="text_4">
      <!-- 8 -->
      <defs>
       <path d="M 31.78125 34.625 
Q 24.75 34.625 20.71875 30.859375 
Q 16.703125 27.09375 16.703125 20.515625 
Q 16.703125 13.921875 20.71875 10.15625 
Q 24.75 6.390625 31.78125 6.390625 
Q 38.8125 6.390625 42.859375 10.171875 
Q 46.921875 13.96875 46.921875 20.515625 
Q 46.921875 27.09375 42.890625 30.859375 
Q 38.875 34.625 31.78125 34.625 
z
M 21.921875 38.8125 
Q 15.578125 40.375 12.03125 44.71875 
Q 8.5 49.078125 8.5 55.328125 
Q 8.5 64.0625 14.71875 69.140625 
Q 20.953125 74.21875 31.78125 74.21875 
Q 42.671875 74.21875 48.875 69.140625 
Q 55.078125 64.0625 55.078125 55.328125 
Q 55.078125 49.078125 51.53125 44.71875 
Q 48 40.375 41.703125 38.8125 
Q 48.828125 37.15625 52.796875 32.3125 
Q 56.78125 27.484375 56.78125 20.515625 
Q 56.78125 9.90625 50.3125 4.234375 
Q 43.84375 -1.421875 31.78125 -1.421875 
Q 19.734375 -1.421875 13.25 4.234375 
Q 6.78125 9.90625 6.78125 20.515625 
Q 6.78125 27.484375 10.78125 32.3125 
Q 14.796875 37.15625 21.921875 38.8125 
z
M 18.3125 54.390625 
Q 18.3125 48.734375 21.84375 45.5625 
Q 25.390625 42.390625 31.78125 42.390625 
Q 38.140625 42.390625 41.71875 45.5625 
Q 45.3125 48.734375 45.3125 54.390625 
Q 45.3125 60.0625 41.71875 63.234375 
Q 38.140625 66.40625 31.78125 66.40625 
Q 25.390625 66.40625 21.84375 63.234375 
Q 18.3125 60.0625 18.3125 54.390625 
z
" id="DejaVuSans-38"/>
      </defs>
      <g transform="translate(382.522465 313.476875)scale(0.2 -0.2)">
       <use xlink:href="#DejaVuSans-38"/>
      </g>
     </g>
    </g>
    <g id="text_5">
     <!-- log10 of Df -->
     <defs>
      <path d="M 9.421875 75.984375 
L 18.40625 75.984375 
L 18.40625 0 
L 9.421875 0 
z
" id="DejaVuSans-6c"/>
      <path d="M 30.609375 48.390625 
Q 23.390625 48.390625 19.1875 42.75 
Q 14.984375 37.109375 14.984375 27.296875 
Q 14.984375 17.484375 19.15625 11.84375 
Q 23.34375 6.203125 30.609375 6.203125 
Q 37.796875 6.203125 41.984375 11.859375 
Q 46.1875 17.53125 46.1875 27.296875 
Q 46.1875 37.015625 41.984375 42.703125 
Q 37.796875 48.390625 30.609375 48.390625 
z
M 30.609375 56 
Q 42.328125 56 49.015625 48.375 
Q 55.71875 40.765625 55.71875 27.296875 
Q 55.71875 13.875 49.015625 6.21875 
Q 42.328125 -1.421875 30.609375 -1.421875 
Q 18.84375 -1.421875 12.171875 6.21875 
Q 5.515625 13.875 5.515625 27.296875 
Q 5.515625 40.765625 12.171875 48.375 
Q 18.84375 56 30.609375 56 
z
" id="DejaVuSans-6f"/>
      <path d="M 45.40625 27.984375 
Q 45.40625 37.75 41.375 43.109375 
Q 37.359375 48.484375 30.078125 48.484375 
Q 22.859375 48.484375 18.828125 43.109375 
Q 14.796875 37.75 14.796875 27.984375 
Q 14.796875 18.265625 18.828125 12.890625 
Q 22.859375 7.515625 30.078125 7.515625 
Q 37.359375 7.515625 41.375 12.890625 
Q 45.40625 18.265625 45.40625 27.984375 
z
M 54.390625 6.78125 
Q 54.390625 -7.171875 48.1875 -13.984375 
Q 42 -20.796875 29.203125 -20.796875 
Q 24.46875 -20.796875 20.265625 -20.09375 
Q 16.0625 -19.390625 12.109375 -17.921875 
L 12.109375 -9.1875 
Q 16.0625 -11.328125 19.921875 -12.34375 
Q 23.78125 -13.375 27.78125 -13.375 
Q 36.625 -13.375 41.015625 -8.765625 
Q 45.40625 -4.15625 45.40625 5.171875 
L 45.40625 9.625 
Q 42.625 4.78125 38.28125 2.390625 
Q 33.9375 0 27.875 0 
Q 17.828125 0 11.671875 7.65625 
Q 5.515625 15.328125 5.515625 27.984375 
Q 5.515625 40.671875 11.671875 48.328125 
Q 17.828125 56 27.875 56 
Q 33.9375 56 38.28125 53.609375 
Q 42.625 51.21875 45.40625 46.390625 
L 45.40625 54.6875 
L 54.390625 54.6875 
z
" id="DejaVuSans-67"/>
      <path d="M 12.40625 8.296875 
L 28.515625 8.296875 
L 28.515625 63.921875 
L 10.984375 60.40625 
L 10.984375 69.390625 
L 28.421875 72.90625 
L 38.28125 72.90625 
L 38.28125 8.296875 
L 54.390625 8.296875 
L 54.390625 0 
L 12.40625 0 
z
" id="DejaVuSans-31"/>
      <path id="DejaVuSans-20"/>
      <path d="M 37.109375 75.984375 
L 37.109375 68.5 
L 28.515625 68.5 
Q 23.6875 68.5 21.796875 66.546875 
Q 19.921875 64.59375 19.921875 59.515625 
L 19.921875 54.6875 
L 34.71875 54.6875 
L 34.71875 47.703125 
L 19.921875 47.703125 
L 19.921875 0 
L 10.890625 0 
L 10.890625 47.703125 
L 2.296875 47.703125 
L 2.296875 54.6875 
L 10.890625 54.6875 
L 10.890625 58.5 
Q 10.890625 67.625 15.140625 71.796875 
Q 19.390625 75.984375 28.609375 75.984375 
z
" id="DejaVuSans-66"/>
      <path d="M 19.671875 64.796875 
L 19.671875 8.109375 
L 31.59375 8.109375 
Q 46.6875 8.109375 53.6875 14.9375 
Q 60.6875 21.78125 60.6875 36.53125 
Q 60.6875 51.171875 53.6875 57.984375 
Q 46.6875 64.796875 31.59375 64.796875 
z
M 9.8125 72.90625 
L 30.078125 72.90625 
Q 51.265625 72.90625 61.171875 64.09375 
Q 71.09375 55.28125 71.09375 36.53125 
Q 71.09375 17.671875 61.125 8.828125 
Q 51.171875 0 30.078125 0 
L 9.8125 0 
z
" id="DejaVuSans-44"/>
     </defs>
     <g transform="translate(172.910063 336.833125)scale(0.2 -0.2)">
      <use xlink:href="#DejaVuSans-6c"/>
      <use x="27.783203" xlink:href="#DejaVuSans-6f"/>
      <use x="88.964844" xlink:href="#DejaVuSans-67"/>
      <use x="152.441406" xlink:href="#DejaVuSans-31"/>
      <use x="216.064453" xlink:href="#DejaVuSans-30"/>
      <use x="279.6875" xlink:href="#DejaVuSans-20"/>
      <use x="311.474609" xlink:href="#DejaVuSans-6f"/>
      <use x="372.65625" xlink:href="#DejaVuSans-66"/>
      <use x="407.861328" xlink:href="#DejaVuSans-20"/>
      <use x="439.648438" xlink:href="#DejaVuSans-44"/>
      <use x="516.650391" xlink:href="#DejaVuSans-66"/>
     </g>
    </g>
   </g>
   <g id="matplotlib.axis_2">
    <g id="ytick_1">
     <g id="line2d_11">
      <path clip-path="url(#p7ad179a34b)" d="M 5.52 291.28 
L 450.672 291.28 
" style="fill:none;stroke:#b0b0b0;stroke-linecap:square;stroke-width:0.8;"/>
     </g>
     <g id="line2d_12">
      <defs>
       <path d="M 0 0 
L -3.5 0 
" id="mc3729663f3" style="stroke:#000000;stroke-width:0.8;"/>
      </defs>
      <g>
       <use style="stroke:#000000;stroke-width:0.8;" x="5.52" xlink:href="#mc3729663f3" y="291.28"/>
      </g>
     </g>
    </g>
    <g id="ytick_2">
     <g id="line2d_13">
      <path clip-path="url(#p7ad179a34b)" d="M 5.52 234.693861 
L 450.672 234.693861 
" style="fill:none;stroke:#b0b0b0;stroke-linecap:square;stroke-width:0.8;"/>
     </g>
     <g id="line2d_14">
      <g>
       <use style="stroke:#000000;stroke-width:0.8;" x="5.52" xlink:href="#mc3729663f3" y="234.693861"/>
      </g>
     </g>
    </g>
    <g id="ytick_3">
     <g id="line2d_15">
      <path clip-path="url(#p7ad179a34b)" d="M 5.52 178.107723 
L 450.672 178.107723 
" style="fill:none;stroke:#b0b0b0;stroke-linecap:square;stroke-width:0.8;"/>
     </g>
     <g id="line2d_16">
      <g>
       <use style="stroke:#000000;stroke-width:0.8;" x="5.52" xlink:href="#mc3729663f3" y="178.107723"/>
      </g>
     </g>
    </g>
    <g id="ytick_4">
     <g id="line2d_17">
      <path clip-path="url(#p7ad179a34b)" d="M 5.52 121.521584 
L 450.672 121.521584 
" style="fill:none;stroke:#b0b0b0;stroke-linecap:square;stroke-width:0.8;"/>
     </g>
     <g id="line2d_18">
      <g>
       <use style="stroke:#000000;stroke-width:0.8;" x="5.52" xlink:href="#mc3729663f3" y="121.521584"/>
      </g>
     </g>
    </g>
    <g id="ytick_5">
     <g id="line2d_19">
      <path clip-path="url(#p7ad179a34b)" d="M 5.52 64.935446 
L 450.672 64.935446 
" style="fill:none;stroke:#b0b0b0;stroke-linecap:square;stroke-width:0.8;"/>
     </g>
     <g id="line2d_20">
      <g>
       <use style="stroke:#000000;stroke-width:0.8;" x="5.52" xlink:href="#mc3729663f3" y="64.935446"/>
      </g>
     </g>
    </g>
    <g id="ytick_6">
     <g id="line2d_21">
      <path clip-path="url(#p7ad179a34b)" d="M 5.52 8.349307 
L 450.672 8.349307 
" style="fill:none;stroke:#b0b0b0;stroke-linecap:square;stroke-width:0.8;"/>
     </g>
     <g id="line2d_22">
      <g>
       <use style="stroke:#000000;stroke-width:0.8;" x="5.52" xlink:href="#mc3729663f3" y="8.349307"/>
      </g>
     </g>
    </g>
   </g>
   <g id="line2d_23">
    <path clip-path="url(#p7ad179a34b)" d="M 192.734306 291.28 
L 192.734306 286.564488 
L 193.474766 286.564488 
L 193.474766 281.848977 
L 195.234676 281.848977 
L 195.234676 277.133465 
L 196.234678 277.133465 
L 196.234678 272.417954 
L 197.900342 272.417954 
L 197.900342 267.702442 
L 199.246113 267.702442 
L 199.246113 262.986931 
L 203.20479 262.986931 
L 203.20479 258.271419 
L 203.526217 258.271419 
L 203.526217 253.555908 
L 203.755604 253.555908 
L 203.755604 248.840396 
L 205.076425 248.840396 
L 205.076425 244.124884 
L 207.446466 244.124884 
L 207.446466 239.409373 
L 207.449641 239.409373 
L 207.449641 234.693861 
L 209.42945 234.693861 
L 209.42945 229.97835 
L 210.37537 229.97835 
L 210.37537 225.262838 
L 210.804614 225.262838 
L 210.804614 220.547327 
L 210.85984 220.547327 
L 210.85984 215.831815 
L 211.536565 215.831815 
L 211.536565 211.116304 
L 211.585796 211.116304 
L 211.585796 206.400792 
L 211.59255 206.400792 
L 211.59255 201.685281 
L 212.582569 201.685281 
L 212.582569 196.969769 
L 213.003095 196.969769 
L 213.003095 192.254257 
L 213.020545 192.254257 
L 213.020545 187.538746 
L 213.164831 187.538746 
L 213.164831 182.823234 
L 213.292089 182.823234 
L 213.292089 178.107723 
L 213.689214 178.107723 
L 213.689214 173.392211 
L 213.819842 173.392211 
L 213.819842 168.6767 
L 213.9107 168.6767 
L 213.9107 163.961188 
L 213.949738 163.961188 
L 213.949738 159.245677 
L 214.48392 159.245677 
L 214.48392 154.530165 
L 214.795698 154.530165 
L 214.795698 149.814653 
L 216.230364 149.814653 
L 216.230364 145.099142 
L 216.533227 145.099142 
L 216.533227 140.38363 
L 217.497075 140.38363 
L 217.497075 135.668119 
L 217.800135 135.668119 
L 217.800135 130.952607 
L 218.093346 130.952607 
L 218.093346 126.237096 
L 218.265299 126.237096 
L 218.265299 121.521584 
L 218.477961 121.521584 
L 218.477961 116.806073 
L 218.539698 116.806073 
L 218.539698 112.090561 
L 220.084128 112.090561 
L 220.084128 107.37505 
L 222.424216 107.37505 
L 222.424216 102.659538 
L 224.842368 102.659538 
L 224.842368 97.944026 
L 225.014675 97.944026 
L 225.014675 93.228515 
L 225.228138 93.228515 
L 225.228138 88.513003 
L 226.934954 88.513003 
L 226.934954 83.797492 
L 228.090791 83.797492 
L 228.090791 79.08198 
L 229.436827 79.08198 
L 229.436827 74.366469 
L 230.531913 74.366469 
L 230.531913 69.650957 
L 231.074845 69.650957 
L 231.074845 64.935446 
L 234.610714 64.935446 
L 234.610714 60.219934 
L 235.556371 60.219934 
L 235.556371 55.504422 
L 235.932211 55.504422 
L 235.932211 50.788911 
L 236.122021 50.788911 
L 236.122021 46.073399 
L 236.266951 46.073399 
L 236.266951 41.357888 
L 236.864669 41.357888 
L 236.864669 36.642376 
L 237.636982 36.642376 
L 237.636982 31.926865 
L 241.028119 31.926865 
L 241.028119 27.211353 
L 242.57624 27.211353 
L 242.57624 22.495842 
L 244.879348 22.495842 
L 244.879348 17.78033 
L 249.585457 17.78033 
L 249.585457 13.064818 
L 275.645618 13.064818 
L 275.645618 8.349307 
L 275.645618 8.349307 
L 275.645618 8.349307 
L 450.672 8.349307 
" style="fill:none;stroke:#ff0000;stroke-linecap:square;stroke-width:3;"/>
   </g>
   <g id="line2d_24">
    <path clip-path="url(#p7ad179a34b)" d="M 227.002306 291.28 
L 227.002306 286.564488 
L 234.522175 286.564488 
L 234.522175 281.848977 
L 241.137797 281.848977 
L 241.137797 277.133465 
L 246.051433 277.133465 
L 246.051433 272.417954 
L 253.013788 272.417954 
L 253.013788 267.702442 
L 255.298075 267.702442 
L 255.298075 262.986931 
L 255.590604 262.986931 
L 255.590604 258.271419 
L 256.388854 258.271419 
L 256.388854 253.555908 
L 257.225914 253.555908 
L 257.225914 248.840396 
L 259.044035 248.840396 
L 259.044035 244.124884 
L 260.82865 244.124884 
L 260.82865 239.409373 
L 263.026008 239.409373 
L 263.026008 234.693861 
L 264.140184 234.693861 
L 264.140184 229.97835 
L 265.609113 229.97835 
L 265.609113 225.262838 
L 265.734867 225.262838 
L 265.734867 220.547327 
L 267.314992 220.547327 
L 267.314992 215.831815 
L 270.41624 215.831815 
L 270.41624 211.116304 
L 284.956554 211.116304 
L 284.956554 206.400792 
L 287.463663 206.400792 
L 287.463663 201.685281 
L 288.806102 201.685281 
L 288.806102 196.969769 
L 290.89355 196.969769 
L 290.89355 192.254257 
L 294.322654 192.254257 
L 294.322654 187.538746 
L 294.799035 187.538746 
L 294.799035 182.823234 
L 296.826403 182.823234 
L 296.826403 178.107723 
L 297.630197 178.107723 
L 297.630197 173.392211 
L 298.230628 173.392211 
L 298.230628 168.6767 
L 300.026952 168.6767 
L 300.026952 163.961188 
L 300.227779 163.961188 
L 300.227779 159.245677 
L 300.510433 159.245677 
L 300.510433 154.530165 
L 301.136085 154.530165 
L 301.136085 149.814653 
L 305.60779 149.814653 
L 305.60779 145.099142 
L 306.867542 145.099142 
L 306.867542 140.38363 
L 307.380425 140.38363 
L 307.380425 135.668119 
L 307.826817 135.668119 
L 307.826817 130.952607 
L 307.92378 130.952607 
L 307.92378 126.237096 
L 308.769478 126.237096 
L 308.769478 121.521584 
L 308.986838 121.521584 
L 308.986838 116.806073 
L 309.049182 116.806073 
L 309.049182 112.090561 
L 310.373636 112.090561 
L 310.373636 107.37505 
L 311.148999 107.37505 
L 311.148999 102.659538 
L 311.434239 102.659538 
L 311.434239 97.944026 
L 311.612849 97.944026 
L 311.612849 93.228515 
L 313.184914 93.228515 
L 313.184914 88.513003 
L 315.359938 88.513003 
L 315.359938 83.797492 
L 316.521436 83.797492 
L 316.521436 79.08198 
L 317.556723 79.08198 
L 317.556723 74.366469 
L 318.00383 74.366469 
L 318.00383 69.650957 
L 318.969061 69.650957 
L 318.969061 64.935446 
L 319.075564 64.935446 
L 319.075564 60.219934 
L 319.275293 60.219934 
L 319.275293 55.504422 
L 321.167663 55.504422 
L 321.167663 50.788911 
L 323.505249 50.788911 
L 323.505249 46.073399 
L 324.967781 46.073399 
L 324.967781 41.357888 
L 326.671827 41.357888 
L 326.671827 36.642376 
L 326.748387 36.642376 
L 326.748387 31.926865 
L 328.240389 31.926865 
L 328.240389 27.211353 
L 331.268254 27.211353 
L 331.268254 22.495842 
L 332.170373 22.495842 
L 332.170373 17.78033 
L 332.589748 17.78033 
L 332.589748 13.064818 
L 335.313222 13.064818 
L 335.313222 8.349307 
L 335.313222 8.349307 
L 335.313222 8.349307 
L 450.672 8.349307 
" style="fill:none;stroke:#00bfbf;stroke-linecap:square;stroke-width:1.5;"/>
   </g>
   <g id="line2d_25">
    <path clip-path="url(#p7ad179a34b)" d="M 227.002306 291.28 
L 227.002306 286.564488 
L 230.320239 286.564488 
L 230.320239 281.848977 
L 234.522175 281.848977 
L 234.522175 277.133465 
L 236.658002 277.133465 
L 236.658002 272.417954 
L 241.137797 272.417954 
L 241.137797 267.702442 
L 241.199932 267.702442 
L 241.199932 262.986931 
L 242.040354 262.986931 
L 242.040354 258.271419 
L 245.612855 258.271419 
L 245.612855 253.555908 
L 246.090674 253.555908 
L 246.090674 248.840396 
L 250.652116 248.840396 
L 250.652116 244.124884 
L 253.013788 244.124884 
L 253.013788 239.409373 
L 253.808031 239.409373 
L 253.808031 234.693861 
L 254.400484 234.693861 
L 254.400484 229.97835 
L 254.651036 229.97835 
L 254.651036 225.262838 
L 255.298075 225.262838 
L 255.298075 220.547327 
L 255.590604 220.547327 
L 255.590604 215.831815 
L 256.453825 215.831815 
L 256.453825 211.116304 
L 257.552496 211.116304 
L 257.552496 206.400792 
L 260.337043 206.400792 
L 260.337043 201.685281 
L 262.97555 201.685281 
L 262.97555 196.969769 
L 265.279637 196.969769 
L 265.279637 192.254257 
L 266.052154 192.254257 
L 266.052154 187.538746 
L 267.001317 187.538746 
L 267.001317 182.823234 
L 272.643851 182.823234 
L 272.643851 178.107723 
L 280.483095 178.107723 
L 280.483095 173.392211 
L 284.956554 173.392211 
L 284.956554 168.6767 
L 285.855053 168.6767 
L 285.855053 163.961188 
L 287.834716 163.961188 
L 287.834716 159.245677 
L 288.806102 159.245677 
L 288.806102 154.530165 
L 289.118752 154.530165 
L 289.118752 149.814653 
L 290.391425 149.814653 
L 290.391425 145.099142 
L 290.89355 145.099142 
L 290.89355 140.38363 
L 292.187966 140.38363 
L 292.187966 135.668119 
L 293.174765 135.668119 
L 293.174765 130.952607 
L 293.357583 130.952607 
L 293.357583 126.237096 
L 294.322654 126.237096 
L 294.322654 121.521584 
L 294.684925 121.521584 
L 294.684925 116.806073 
L 294.799035 116.806073 
L 294.799035 112.090561 
L 295.458972 112.090561 
L 295.458972 107.37505 
L 296.827318 107.37505 
L 296.827318 102.659538 
L 297.630197 102.659538 
L 297.630197 97.944026 
L 298.230628 97.944026 
L 298.230628 93.228515 
L 299.179351 93.228515 
L 299.179351 88.513003 
L 299.944901 88.513003 
L 299.944901 83.797492 
L 300.510433 83.797492 
L 300.510433 79.08198 
L 304.559139 79.08198 
L 304.559139 74.366469 
L 305.10488 74.366469 
L 305.10488 69.650957 
L 305.541312 69.650957 
L 305.541312 64.935446 
L 305.60779 64.935446 
L 305.60779 60.219934 
L 306.339403 60.219934 
L 306.339403 55.504422 
L 307.010378 55.504422 
L 307.010378 50.788911 
L 307.380425 50.788911 
L 307.380425 46.073399 
L 310.373636 46.073399 
L 310.373636 41.357888 
L 311.460334 41.357888 
L 311.460334 36.642376 
L 312.99707 36.642376 
L 312.99707 31.926865 
L 313.039307 31.926865 
L 313.039307 27.211353 
L 321.607353 27.211353 
L 321.607353 22.495842 
L 324.24609 22.495842 
L 324.24609 17.78033 
L 324.967781 17.78033 
L 324.967781 13.064818 
L 326.569695 13.064818 
L 326.569695 8.349307 
L 326.569695 8.349307 
L 326.569695 8.349307 
L 450.672 8.349307 
" style="fill:none;stroke:#bf00bf;stroke-linecap:square;stroke-width:1.5;"/>
   </g>
   <g id="line2d_26">
    <path clip-path="url(#p7ad179a34b)" d="M 227.002306 291.28 
L 227.002306 286.564488 
L 230.320239 286.564488 
L 230.320239 281.848977 
L 234.522175 281.848977 
L 234.522175 277.133465 
L 236.658002 277.133465 
L 236.658002 272.417954 
L 237.312118 272.417954 
L 237.312118 267.702442 
L 238.416502 267.702442 
L 238.416502 262.986931 
L 239.069038 262.986931 
L 239.069038 258.271419 
L 241.199932 258.271419 
L 241.199932 253.555908 
L 242.040354 253.555908 
L 242.040354 248.840396 
L 243.227887 248.840396 
L 243.227887 244.124884 
L 243.685231 244.124884 
L 243.685231 239.409373 
L 245.053772 239.409373 
L 245.053772 234.693861 
L 246.090674 234.693861 
L 246.090674 229.97835 
L 248.705996 229.97835 
L 248.705996 225.262838 
L 250.192215 225.262838 
L 250.192215 220.547327 
L 252.011477 220.547327 
L 252.011477 215.831815 
L 252.24706 215.831815 
L 252.24706 211.116304 
L 253.013788 211.116304 
L 253.013788 206.400792 
L 254.526407 206.400792 
L 254.526407 201.685281 
L 254.651036 201.685281 
L 254.651036 196.969769 
L 262.97555 196.969769 
L 262.97555 192.254257 
L 265.279637 192.254257 
L 265.279637 187.538746 
L 266.052154 187.538746 
L 266.052154 182.823234 
L 266.443733 182.823234 
L 266.443733 178.107723 
L 267.001317 178.107723 
L 267.001317 173.392211 
L 272.643851 173.392211 
L 272.643851 168.6767 
L 273.418705 168.6767 
L 273.418705 163.961188 
L 277.719238 163.961188 
L 277.719238 159.245677 
L 279.169147 159.245677 
L 279.169147 154.530165 
L 279.718619 154.530165 
L 279.718619 149.814653 
L 280.461992 149.814653 
L 280.461992 145.099142 
L 281.988254 145.099142 
L 281.988254 140.38363 
L 283.115661 140.38363 
L 283.115661 135.668119 
L 283.584897 135.668119 
L 283.584897 130.952607 
L 284.644531 130.952607 
L 284.644531 126.237096 
L 284.956554 126.237096 
L 284.956554 121.521584 
L 286.968525 121.521584 
L 286.968525 116.806073 
L 287.27584 116.806073 
L 287.27584 112.090561 
L 289.118752 112.090561 
L 289.118752 107.37505 
L 289.727354 107.37505 
L 289.727354 102.659538 
L 290.391425 102.659538 
L 290.391425 97.944026 
L 290.931137 97.944026 
L 290.931137 93.228515 
L 291.739848 93.228515 
L 291.739848 88.513003 
L 292.187966 88.513003 
L 292.187966 83.797492 
L 292.769249 83.797492 
L 292.769249 79.08198 
L 292.80821 79.08198 
L 292.80821 74.366469 
L 294.799035 74.366469 
L 294.799035 69.650957 
L 295.249135 69.650957 
L 295.249135 64.935446 
L 296.034237 64.935446 
L 296.034237 60.219934 
L 296.261367 60.219934 
L 296.261367 55.504422 
L 296.827318 55.504422 
L 296.827318 50.788911 
L 298.230628 50.788911 
L 298.230628 46.073399 
L 298.997517 46.073399 
L 298.997517 41.357888 
L 299.944901 41.357888 
L 299.944901 36.642376 
L 304.609149 36.642376 
L 304.609149 31.926865 
L 304.899106 31.926865 
L 304.899106 27.211353 
L 305.541312 27.211353 
L 305.541312 22.495842 
L 312.141909 22.495842 
L 312.141909 17.78033 
L 321.607353 17.78033 
L 321.607353 13.064818 
L 324.423036 13.064818 
L 324.423036 8.349307 
L 324.423036 8.349307 
L 324.423036 8.349307 
L 450.672 8.349307 
" style="fill:none;stroke:#000000;stroke-linecap:square;stroke-width:1.5;"/>
   </g>
   <g id="line2d_27">
    <path clip-path="url(#p7ad179a34b)" d="M 227.002306 291.28 
L 227.002306 286.564488 
L 228.648515 286.564488 
L 228.648515 281.848977 
L 230.320239 281.848977 
L 230.320239 277.133465 
L 234.522175 277.133465 
L 234.522175 272.417954 
L 236.188384 272.417954 
L 236.188384 267.702442 
L 236.222443 267.702442 
L 236.222443 262.986931 
L 236.658002 262.986931 
L 236.658002 258.271419 
L 237.312967 258.271419 
L 237.312967 253.555908 
L 238.416502 253.555908 
L 238.416502 248.840396 
L 238.469166 248.840396 
L 238.469166 244.124884 
L 239.277648 244.124884 
L 239.277648 239.409373 
L 240.508959 239.409373 
L 240.508959 234.693861 
L 240.776142 234.693861 
L 240.776142 229.97835 
L 242.040354 229.97835 
L 242.040354 225.262838 
L 242.294765 225.262838 
L 242.294765 220.547327 
L 242.413463 220.547327 
L 242.413463 215.831815 
L 242.573821 215.831815 
L 242.573821 211.116304 
L 245.053772 211.116304 
L 245.053772 206.400792 
L 245.970717 206.400792 
L 245.970717 201.685281 
L 249.722925 201.685281 
L 249.722925 196.969769 
L 250.249191 196.969769 
L 250.249191 192.254257 
L 252.24706 192.254257 
L 252.24706 187.538746 
L 253.013788 187.538746 
L 253.013788 182.823234 
L 254.148046 182.823234 
L 254.148046 178.107723 
L 257.729515 178.107723 
L 257.729515 173.392211 
L 262.232928 173.392211 
L 262.232928 168.6767 
L 262.97555 168.6767 
L 262.97555 163.961188 
L 263.388914 163.961188 
L 263.388914 159.245677 
L 265.279637 159.245677 
L 265.279637 154.530165 
L 266.370326 154.530165 
L 266.370326 149.814653 
L 271.784972 149.814653 
L 271.784972 145.099142 
L 271.873552 145.099142 
L 271.873552 140.38363 
L 271.943209 140.38363 
L 271.943209 135.668119 
L 272.643851 135.668119 
L 272.643851 130.952607 
L 273.086279 130.952607 
L 273.086279 126.237096 
L 273.103893 126.237096 
L 273.103893 121.521584 
L 273.418705 121.521584 
L 273.418705 116.806073 
L 273.439965 116.806073 
L 273.439965 112.090561 
L 275.991944 112.090561 
L 275.991944 107.37505 
L 276.375118 107.37505 
L 276.375118 102.659538 
L 276.388667 102.659538 
L 276.388667 97.944026 
L 276.631231 97.944026 
L 276.631231 93.228515 
L 277.052179 93.228515 
L 277.052179 88.513003 
L 277.786833 88.513003 
L 277.786833 83.797492 
L 278.835259 83.797492 
L 278.835259 79.08198 
L 279.718619 79.08198 
L 279.718619 74.366469 
L 279.736407 74.366469 
L 279.736407 69.650957 
L 280.654811 69.650957 
L 280.654811 64.935446 
L 281.380699 64.935446 
L 281.380699 60.219934 
L 283.022904 60.219934 
L 283.022904 55.504422 
L 284.331947 55.504422 
L 284.331947 50.788911 
L 284.91204 50.788911 
L 284.91204 46.073399 
L 285.136825 46.073399 
L 285.136825 41.357888 
L 286.186907 41.357888 
L 286.186907 36.642376 
L 289.630527 36.642376 
L 289.630527 31.926865 
L 291.882908 31.926865 
L 291.882908 27.211353 
L 292.187966 27.211353 
L 292.187966 22.495842 
L 296.034237 22.495842 
L 296.034237 17.78033 
L 305.541312 17.78033 
L 305.541312 13.064818 
L 313.106954 13.064818 
L 313.106954 8.349307 
L 313.106954 8.349307 
L 313.106954 8.349307 
L 450.672 8.349307 
" style="fill:none;stroke:#00bfbf;stroke-linecap:square;stroke-width:1.5;"/>
   </g>
   <g id="line2d_28">
    <path clip-path="url(#p7ad179a34b)" d="M 196.592896 291.28 
L 196.592896 286.564488 
L 199.246113 286.564488 
L 199.246113 281.848977 
L 202.130163 281.848977 
L 202.130163 277.133465 
L 202.217691 277.133465 
L 202.217691 272.417954 
L 202.500176 272.417954 
L 202.500176 267.702442 
L 203.526217 267.702442 
L 203.526217 262.986931 
L 203.755604 262.986931 
L 203.755604 258.271419 
L 205.395419 258.271419 
L 205.395419 253.555908 
L 207.453941 253.555908 
L 207.453941 248.840396 
L 208.287998 248.840396 
L 208.287998 244.124884 
L 208.315555 244.124884 
L 208.315555 239.409373 
L 209.42945 239.409373 
L 209.42945 234.693861 
L 210.804614 234.693861 
L 210.804614 229.97835 
L 211.008187 229.97835 
L 211.008187 225.262838 
L 211.585796 225.262838 
L 211.585796 220.547327 
L 211.603829 220.547327 
L 211.603829 215.831815 
L 211.990471 215.831815 
L 211.990471 211.116304 
L 212.043398 211.116304 
L 212.043398 206.400792 
L 212.63507 206.400792 
L 212.63507 201.685281 
L 213.949738 201.685281 
L 213.949738 196.969769 
L 214.155842 196.969769 
L 214.155842 192.254257 
L 214.48392 192.254257 
L 214.48392 187.538746 
L 216.00411 187.538746 
L 216.00411 182.823234 
L 216.456287 182.823234 
L 216.456287 178.107723 
L 216.859341 178.107723 
L 216.859341 173.392211 
L 217.161465 173.392211 
L 217.161465 168.6767 
L 217.475338 168.6767 
L 217.475338 163.961188 
L 217.497075 163.961188 
L 217.497075 159.245677 
L 217.800135 159.245677 
L 217.800135 154.530165 
L 218.065537 154.530165 
L 218.065537 149.814653 
L 218.265299 149.814653 
L 218.265299 145.099142 
L 218.539698 145.099142 
L 218.539698 140.38363 
L 218.542473 140.38363 
L 218.542473 135.668119 
L 219.114393 135.668119 
L 219.114393 130.952607 
L 220.084128 130.952607 
L 220.084128 126.237096 
L 220.389923 126.237096 
L 220.389923 121.521584 
L 223.271238 121.521584 
L 223.271238 116.806073 
L 225.014675 116.806073 
L 225.014675 112.090561 
L 225.228138 112.090561 
L 225.228138 107.37505 
L 226.173828 107.37505 
L 226.173828 102.659538 
L 226.625161 102.659538 
L 226.625161 97.944026 
L 228.525863 97.944026 
L 228.525863 93.228515 
L 229.794311 93.228515 
L 229.794311 88.513003 
L 231.094057 88.513003 
L 231.094057 83.797492 
L 231.173865 83.797492 
L 231.173865 79.08198 
L 231.847065 79.08198 
L 231.847065 74.366469 
L 232.568753 74.366469 
L 232.568753 69.650957 
L 236.211829 69.650957 
L 236.211829 64.935446 
L 236.976913 64.935446 
L 236.976913 60.219934 
L 237.103884 60.219934 
L 237.103884 55.504422 
L 238.791796 55.504422 
L 238.791796 50.788911 
L 239.577325 50.788911 
L 239.577325 46.073399 
L 240.434335 46.073399 
L 240.434335 41.357888 
L 241.530836 41.357888 
L 241.530836 36.642376 
L 243.435913 36.642376 
L 243.435913 31.926865 
L 244.913949 31.926865 
L 244.913949 27.211353 
L 244.998002 27.211353 
L 244.998002 22.495842 
L 245.117426 22.495842 
L 245.117426 17.78033 
L 250.082413 17.78033 
L 250.082413 13.064818 
L 288.518313 13.064818 
L 288.518313 8.349307 
L 288.518313 8.349307 
L 288.518313 8.349307 
L 450.672 8.349307 
" style="fill:none;stroke:#bf00bf;stroke-linecap:square;stroke-width:1.5;"/>
   </g>
   <g id="line2d_29">
    <path clip-path="url(#p7ad179a34b)" d="M 193.353076 291.28 
L 193.353076 286.564488 
L 193.669323 286.564488 
L 193.669323 281.848977 
L 196.115076 281.848977 
L 196.115076 277.133465 
L 196.234678 277.133465 
L 196.234678 272.417954 
L 198.632028 272.417954 
L 198.632028 267.702442 
L 199.246113 267.702442 
L 199.246113 262.986931 
L 203.526217 262.986931 
L 203.526217 258.271419 
L 203.755604 258.271419 
L 203.755604 253.555908 
L 205.076425 253.555908 
L 205.076425 248.840396 
L 207.446466 248.840396 
L 207.446466 244.124884 
L 207.449641 244.124884 
L 207.449641 239.409373 
L 209.42945 239.409373 
L 209.42945 234.693861 
L 210.38719 234.693861 
L 210.38719 229.97835 
L 210.804614 229.97835 
L 210.804614 225.262838 
L 210.85984 225.262838 
L 210.85984 220.547327 
L 211.536592 220.547327 
L 211.536592 215.831815 
L 211.585796 215.831815 
L 211.585796 211.116304 
L 211.59255 211.116304 
L 211.59255 206.400792 
L 212.583069 206.400792 
L 212.583069 201.685281 
L 213.003095 201.685281 
L 213.003095 196.969769 
L 213.020545 196.969769 
L 213.020545 192.254257 
L 213.164843 192.254257 
L 213.164843 187.538746 
L 213.292465 187.538746 
L 213.292465 182.823234 
L 213.363001 182.823234 
L 213.363001 178.107723 
L 213.819842 178.107723 
L 213.819842 173.392211 
L 213.9107 173.392211 
L 213.9107 168.6767 
L 213.949738 168.6767 
L 213.949738 163.961188 
L 214.48392 163.961188 
L 214.48392 159.245677 
L 214.795698 159.245677 
L 214.795698 154.530165 
L 216.230364 154.530165 
L 216.230364 149.814653 
L 216.677124 149.814653 
L 216.677124 145.099142 
L 217.497075 145.099142 
L 217.497075 140.38363 
L 217.800135 140.38363 
L 217.800135 135.668119 
L 218.265299 135.668119 
L 218.265299 130.952607 
L 218.477961 130.952607 
L 218.477961 126.237096 
L 218.539698 126.237096 
L 218.539698 121.521584 
L 218.970645 121.521584 
L 218.970645 116.806073 
L 219.03857 116.806073 
L 219.03857 112.090561 
L 220.084128 112.090561 
L 220.084128 107.37505 
L 222.424216 107.37505 
L 222.424216 102.659538 
L 224.842368 102.659538 
L 224.842368 97.944026 
L 225.014675 97.944026 
L 225.014675 93.228515 
L 225.228138 93.228515 
L 225.228138 88.513003 
L 226.936018 88.513003 
L 226.936018 83.797492 
L 228.108032 83.797492 
L 228.108032 79.08198 
L 229.47586 79.08198 
L 229.47586 74.366469 
L 230.960533 74.366469 
L 230.960533 69.650957 
L 231.074845 69.650957 
L 231.074845 64.935446 
L 235.96044 64.935446 
L 235.96044 60.219934 
L 236.122021 60.219934 
L 236.122021 55.504422 
L 236.665602 55.504422 
L 236.665602 50.788911 
L 236.864669 50.788911 
L 236.864669 46.073399 
L 236.872005 46.073399 
L 236.872005 41.357888 
L 237.545484 41.357888 
L 237.545484 36.642376 
L 237.645218 36.642376 
L 237.645218 31.926865 
L 241.028459 31.926865 
L 241.028459 27.211353 
L 242.628294 27.211353 
L 242.628294 22.495842 
L 244.879348 22.495842 
L 244.879348 17.78033 
L 249.585457 17.78033 
L 249.585457 13.064818 
L 275.645618 13.064818 
L 275.645618 8.349307 
L 275.645618 8.349307 
L 275.645618 8.349307 
L 450.672 8.349307 
" style="fill:none;stroke:#000000;stroke-linecap:square;stroke-width:1.5;"/>
   </g>
   <g id="patch_3">
    <path d="M 5.52 291.28 
L 5.52 5.52 
" style="fill:none;stroke:#000000;stroke-linecap:square;stroke-linejoin:miter;stroke-width:0.8;"/>
   </g>
   <g id="patch_4">
    <path d="M 450.672 291.28 
L 450.672 5.52 
" style="fill:none;stroke:#000000;stroke-linecap:square;stroke-linejoin:miter;stroke-width:0.8;"/>
   </g>
   <g id="patch_5">
    <path d="M 5.52 291.28 
L 450.672 291.28 
" style="fill:none;stroke:#000000;stroke-linecap:square;stroke-linejoin:miter;stroke-width:0.8;"/>
   </g>
   <g id="patch_6">
    <path d="M 5.52 5.52 
L 450.672 5.52 
" style="fill:none;stroke:#000000;stroke-linecap:square;stroke-linejoin:miter;stroke-width:0.8;"/>
   </g>
   <g id="text_6">
    <!-- {f6-f9}, 5-D -->
    <defs>
     <path d="M 51.125 -9.28125 
L 51.125 -16.3125 
L 48.09375 -16.3125 
Q 35.9375 -16.3125 31.8125 -12.6875 
Q 27.6875 -9.078125 27.6875 1.703125 
L 27.6875 13.375 
Q 27.6875 20.75 25.046875 23.578125 
Q 22.40625 26.421875 15.484375 26.421875 
L 12.5 26.421875 
L 12.5 33.40625 
L 15.484375 33.40625 
Q 22.46875 33.40625 25.078125 36.203125 
Q 27.6875 39.015625 27.6875 46.296875 
L 27.6875 58.015625 
Q 27.6875 68.796875 31.8125 72.390625 
Q 35.9375 75.984375 48.09375 75.984375 
L 51.125 75.984375 
L 51.125 69 
L 47.796875 69 
Q 40.921875 69 38.8125 66.84375 
Q 36.71875 64.703125 36.71875 57.8125 
L 36.71875 45.703125 
Q 36.71875 38.03125 34.5 34.5625 
Q 32.28125 31.109375 26.90625 29.890625 
Q 32.328125 28.5625 34.515625 25.09375 
Q 36.71875 21.625 36.71875 14.015625 
L 36.71875 1.90625 
Q 36.71875 -4.984375 38.8125 -7.125 
Q 40.921875 -9.28125 47.796875 -9.28125 
z
" id="DejaVuSans-7b"/>
     <path d="M 33.015625 40.375 
Q 26.375 40.375 22.484375 35.828125 
Q 18.609375 31.296875 18.609375 23.390625 
Q 18.609375 15.53125 22.484375 10.953125 
Q 26.375 6.390625 33.015625 6.390625 
Q 39.65625 6.390625 43.53125 10.953125 
Q 47.40625 15.53125 47.40625 23.390625 
Q 47.40625 31.296875 43.53125 35.828125 
Q 39.65625 40.375 33.015625 40.375 
z
M 52.59375 71.296875 
L 52.59375 62.3125 
Q 48.875 64.0625 45.09375 64.984375 
Q 41.3125 65.921875 37.59375 65.921875 
Q 27.828125 65.921875 22.671875 59.328125 
Q 17.53125 52.734375 16.796875 39.40625 
Q 19.671875 43.65625 24.015625 45.921875 
Q 28.375 48.1875 33.59375 48.1875 
Q 44.578125 48.1875 50.953125 41.515625 
Q 57.328125 34.859375 57.328125 23.390625 
Q 57.328125 12.15625 50.6875 5.359375 
Q 44.046875 -1.421875 33.015625 -1.421875 
Q 20.359375 -1.421875 13.671875 8.265625 
Q 6.984375 17.96875 6.984375 36.375 
Q 6.984375 53.65625 15.1875 63.9375 
Q 23.390625 74.21875 37.203125 74.21875 
Q 40.921875 74.21875 44.703125 73.484375 
Q 48.484375 72.75 52.59375 71.296875 
z
" id="DejaVuSans-36"/>
     <path d="M 10.984375 1.515625 
L 10.984375 10.5 
Q 14.703125 8.734375 18.5 7.8125 
Q 22.3125 6.890625 25.984375 6.890625 
Q 35.75 6.890625 40.890625 13.453125 
Q 46.046875 20.015625 46.78125 33.40625 
Q 43.953125 29.203125 39.59375 26.953125 
Q 35.25 24.703125 29.984375 24.703125 
Q 19.046875 24.703125 12.671875 31.3125 
Q 6.296875 37.9375 6.296875 49.421875 
Q 6.296875 60.640625 12.9375 67.421875 
Q 19.578125 74.21875 30.609375 74.21875 
Q 43.265625 74.21875 49.921875 64.515625 
Q 56.59375 54.828125 56.59375 36.375 
Q 56.59375 19.140625 48.40625 8.859375 
Q 40.234375 -1.421875 26.421875 -1.421875 
Q 22.703125 -1.421875 18.890625 -0.6875 
Q 15.09375 0.046875 10.984375 1.515625 
z
M 30.609375 32.421875 
Q 37.25 32.421875 41.125 36.953125 
Q 45.015625 41.5 45.015625 49.421875 
Q 45.015625 57.28125 41.125 61.84375 
Q 37.25 66.40625 30.609375 66.40625 
Q 23.96875 66.40625 20.09375 61.84375 
Q 16.21875 57.28125 16.21875 49.421875 
Q 16.21875 41.5 20.09375 36.953125 
Q 23.96875 32.421875 30.609375 32.421875 
z
" id="DejaVuSans-39"/>
     <path d="M 12.5 -9.28125 
L 15.921875 -9.28125 
Q 22.75 -9.28125 24.828125 -7.171875 
Q 26.90625 -5.078125 26.90625 1.90625 
L 26.90625 14.015625 
Q 26.90625 21.625 29.09375 25.09375 
Q 31.296875 28.5625 36.71875 29.890625 
Q 31.296875 31.109375 29.09375 34.5625 
Q 26.90625 38.03125 26.90625 45.703125 
L 26.90625 57.8125 
Q 26.90625 64.75 24.828125 66.875 
Q 22.75 69 15.921875 69 
L 12.5 69 
L 12.5 75.984375 
L 15.578125 75.984375 
Q 27.734375 75.984375 31.8125 72.390625 
Q 35.890625 68.796875 35.890625 58.015625 
L 35.890625 46.296875 
Q 35.890625 39.015625 38.515625 36.203125 
Q 41.15625 33.40625 48.09375 33.40625 
L 51.125 33.40625 
L 51.125 26.421875 
L 48.09375 26.421875 
Q 41.15625 26.421875 38.515625 23.578125 
Q 35.890625 20.75 35.890625 13.375 
L 35.890625 1.703125 
Q 35.890625 -9.078125 31.8125 -12.6875 
Q 27.734375 -16.3125 15.578125 -16.3125 
L 12.5 -16.3125 
z
" id="DejaVuSans-7d"/>
     <path d="M 11.71875 12.40625 
L 22.015625 12.40625 
L 22.015625 4 
L 14.015625 -11.625 
L 7.71875 -11.625 
L 11.71875 4 
z
" id="DejaVuSans-2c"/>
     <path d="M 10.796875 72.90625 
L 49.515625 72.90625 
L 49.515625 64.59375 
L 19.828125 64.59375 
L 19.828125 46.734375 
Q 21.96875 47.46875 24.109375 47.828125 
Q 26.265625 48.1875 28.421875 48.1875 
Q 40.625 48.1875 47.75 41.5 
Q 54.890625 34.8125 54.890625 23.390625 
Q 54.890625 11.625 47.5625 5.09375 
Q 40.234375 -1.421875 26.90625 -1.421875 
Q 22.3125 -1.421875 17.546875 -0.640625 
Q 12.796875 0.140625 7.71875 1.703125 
L 7.71875 11.625 
Q 12.109375 9.234375 16.796875 8.0625 
Q 21.484375 6.890625 26.703125 6.890625 
Q 35.15625 6.890625 40.078125 11.328125 
Q 45.015625 15.765625 45.015625 23.390625 
Q 45.015625 31 40.078125 35.4375 
Q 35.15625 39.890625 26.703125 39.890625 
Q 22.75 39.890625 18.8125 39.015625 
Q 14.890625 38.140625 10.796875 36.28125 
z
" id="DejaVuSans-35"/>
    </defs>
    <g transform="translate(321.51896 285.5648)scale(0.2 -0.2)">
     <use xlink:href="#DejaVuSans-7b"/>
     <use x="63.623047" xlink:href="#DejaVuSans-66"/>
     <use x="98.828125" xlink:href="#DejaVuSans-36"/>
     <use x="162.451172" xlink:href="#DejaVuSans-2d"/>
     <use x="198.535156" xlink:href="#DejaVuSans-66"/>
     <use x="233.740234" xlink:href="#DejaVuSans-39"/>
     <use x="297.363281" xlink:href="#DejaVuSans-7d"/>
     <use x="360.986328" xlink:href="#DejaVuSans-2c"/>
     <use x="392.773438" xlink:href="#DejaVuSans-20"/>
     <use x="424.560547" xlink:href="#DejaVuSans-35"/>
     <use x="488.183594" xlink:href="#DejaVuSans-2d"/>
     <use x="524.267578" xlink:href="#DejaVuSans-44"/>
    </g>
   </g>
   <g id="text_7">
    <!-- v2.2.1.10 -->
    <defs>
     <path d="M 2.984375 54.6875 
L 12.5 54.6875 
L 29.59375 8.796875 
L 46.6875 54.6875 
L 56.203125 54.6875 
L 35.6875 0 
L 23.484375 0 
z
" id="DejaVuSans-76"/>
     <path d="M 19.1875 8.296875 
L 53.609375 8.296875 
L 53.609375 0 
L 7.328125 0 
L 7.328125 8.296875 
Q 12.9375 14.109375 22.625 23.890625 
Q 32.328125 33.6875 34.8125 36.53125 
Q 39.546875 41.84375 41.421875 45.53125 
Q 43.3125 49.21875 43.3125 52.78125 
Q 43.3125 58.59375 39.234375 62.25 
Q 35.15625 65.921875 28.609375 65.921875 
Q 23.96875 65.921875 18.8125 64.3125 
Q 13.671875 62.703125 7.8125 59.421875 
L 7.8125 69.390625 
Q 13.765625 71.78125 18.9375 73 
Q 24.125 74.21875 28.421875 74.21875 
Q 39.75 74.21875 46.484375 68.546875 
Q 53.21875 62.890625 53.21875 53.421875 
Q 53.21875 48.921875 51.53125 44.890625 
Q 49.859375 40.875 45.40625 35.40625 
Q 44.1875 33.984375 37.640625 27.21875 
Q 31.109375 20.453125 19.1875 8.296875 
z
" id="DejaVuSans-32"/>
     <path d="M 10.6875 12.40625 
L 21 12.40625 
L 21 0 
L 10.6875 0 
z
" id="DejaVuSans-2e"/>
    </defs>
    <g style="fill:#808080;" transform="translate(204.463188 286.342713)scale(0.1 -0.1)">
     <use xlink:href="#DejaVuSans-76"/>
     <use x="59.179688" xlink:href="#DejaVuSans-32"/>
     <use x="122.802734" xlink:href="#DejaVuSans-2e"/>
     <use x="154.589844" xlink:href="#DejaVuSans-32"/>
     <use x="218.212891" xlink:href="#DejaVuSans-2e"/>
     <use x="250" xlink:href="#DejaVuSans-31"/>
     <use x="313.623047" xlink:href="#DejaVuSans-2e"/>
     <use x="345.410156" xlink:href="#DejaVuSans-31"/>
     <use x="409.033203" xlink:href="#DejaVuSans-30"/>
    </g>
   </g>
  </g>
 </g>
 <defs>
  <clipPath id="p7ad179a34b">
   <rect height="285.76" width="445.152" x="5.52" y="5.52"/>
  </clipPath>
 </defs>
</svg>
