<?xml version="1.0" encoding="utf-8" standalone="no"?>
<!DOCTYPE svg PUBLIC "-//W3C//DTD SVG 1.1//EN"
  "http://www.w3.org/Graphics/SVG/1.1/DTD/svg11.dtd">
<!-- Created with matplotlib (http://matplotlib.org/) -->
<svg height="345.6pt" version="1.1" viewBox="0 0 460.8 345.6" width="460.8pt" xmlns="http://www.w3.org/2000/svg" xmlns:xlink="http://www.w3.org/1999/xlink">
 <defs>
  <style type="text/css">
*{stroke-linecap:butt;stroke-linejoin:round;}
  </style>
 </defs>
 <g id="figure_1">
  <g id="patch_1">
   <path d="M 0 345.6 
L 460.8 345.6 
L 460.8 0 
L 0 0 
z
" style="fill:#ffffff;"/>
  </g>
  <g id="axes_1">
   <g id="patch_2">
    <path d="M 59.72 291.28 
L 450.672 291.28 
L 450.672 6.845228 
L 59.72 6.845228 
z
" style="fill:#ffffff;"/>
   </g>
   <g id="line2d_1">
    <path clip-path="url(#pf1e5e7dfe9)" d="M 292.35074 291.28 
L 292.35074 287.525086 
L 295.808151 287.525086 
L 295.808151 283.770171 
L 297.040069 283.770171 
L 297.040069 280.015257 
L 297.493606 280.015257 
L 297.493606 276.260342 
L 297.893004 276.260342 
L 297.893004 272.505428 
L 298.681474 272.505428 
L 298.681474 268.750513 
L 298.730304 268.750513 
L 298.730304 264.995599 
L 299.022195 264.995599 
L 299.022195 261.240684 
L 300.968375 261.240684 
L 300.968375 257.48577 
L 302.160915 257.48577 
L 302.160915 253.730855 
L 302.656227 253.730855 
L 302.656227 249.975941 
L 302.968652 249.975941 
L 302.968652 246.221026 
L 318.313565 246.221026 
L 318.313565 242.466112 
L 324.433256 242.466112 
L 324.433256 238.711197 
L 324.765683 238.711197 
L 324.765683 234.956283 
L 329.754951 234.956283 
L 329.754951 231.201368 
L 330.124639 231.201368 
L 330.124639 227.446454 
L 336.291919 227.446454 
L 336.291919 223.691539 
L 347.494915 223.691539 
L 347.494915 219.936625 
L 348.02881 219.936625 
L 348.02881 216.18171 
L 351.616276 216.18171 
L 351.616276 212.426796 
L 362.747626 212.426796 
L 362.747626 208.671881 
L 371.927542 208.671881 
L 371.927542 204.916967 
L 395.043736 204.916967 
L 395.043736 201.162052 
L 398.84035 201.162052 
L 398.84035 197.407138 
L 404.621385 197.407138 
L 404.621385 193.652223 
L 428.02164 193.652223 
L 428.02164 189.897309 
L 439.06506 189.897309 
L 439.06506 186.142394 
L 444.678766 186.142394 
L 444.678766 182.38748 
L 444.678766 182.38748 
L 444.678766 182.38748 
L 450.672 182.38748 
" style="fill:none;stroke:#f5deb3;stroke-linecap:square;stroke-width:1.5;"/>
   </g>
   <g id="line2d_2"/>
   <g id="line2d_3">
    <path clip-path="url(#pf1e5e7dfe9)" d="M 180.274375 291.28 
L 180.274375 287.525086 
L 181.561244 287.525086 
L 181.561244 283.770171 
L 193.252498 283.770171 
L 193.252498 280.015257 
L 268.978365 280.015257 
L 268.978365 276.260342 
L 288.120186 276.260342 
L 288.120186 272.505428 
L 329.257334 272.505428 
L 329.257334 268.750513 
L 340.450384 268.750513 
L 340.450384 264.995599 
L 346.132223 264.995599 
L 346.132223 261.240684 
L 358.149155 261.240684 
L 358.149155 257.48577 
L 360.26577 257.48577 
L 360.26577 253.730855 
L 366.016905 253.730855 
L 366.016905 249.975941 
L 373.063433 249.975941 
L 373.063433 246.221026 
L 378.635235 246.221026 
L 378.635235 242.466112 
L 381.177384 242.466112 
L 381.177384 238.711197 
L 386.276853 238.711197 
L 386.276853 234.956283 
L 409.614672 234.956283 
L 409.614672 231.201368 
L 412.161532 231.201368 
L 412.161532 227.446454 
L 413.652564 227.446454 
L 413.652564 223.691539 
L 414.056944 223.691539 
L 414.056944 219.936625 
L 414.78593 219.936625 
L 414.78593 216.18171 
L 415.062063 216.18171 
L 415.062063 212.426796 
L 416.695775 212.426796 
L 416.695775 208.671881 
L 416.81736 208.671881 
L 416.81736 204.916967 
L 418.578559 204.916967 
L 418.578559 201.162052 
L 418.741124 201.162052 
L 418.741124 197.407138 
L 421.542662 197.407138 
L 421.542662 193.652223 
L 422.119635 193.652223 
L 422.119635 189.897309 
L 422.637612 189.897309 
L 422.637612 186.142394 
L 422.68294 186.142394 
L 422.68294 182.38748 
L 423.776493 182.38748 
L 423.776493 178.632565 
L 424.028561 178.632565 
L 424.028561 174.877651 
L 425.506354 174.877651 
L 425.506354 171.122736 
L 434.195546 171.122736 
L 434.195546 167.367822 
L 436.106786 167.367822 
L 436.106786 163.612907 
L 441.125036 163.612907 
L 441.125036 159.857993 
L 445.542302 159.857993 
L 445.542302 156.103079 
L 457.207916 156.103079 
L 457.207916 152.348164 
L 461.8 152.348164 
" style="fill:none;stroke:#f5deb3;stroke-linecap:square;stroke-width:1.5;"/>
   </g>
   <g id="line2d_4">
    <path clip-path="url(#pf1e5e7dfe9)" d="M 305.351788 291.28 
L 305.351788 287.525086 
L 311.761923 287.525086 
L 311.761923 283.770171 
L 312.992702 283.770171 
L 313.099724 276.260342 
L 313.242032 276.260342 
L 313.242032 272.505428 
L 315.086919 272.505428 
L 315.086919 268.750513 
L 315.864916 268.750513 
L 315.864916 264.995599 
L 317.479481 264.995599 
L 317.479481 261.240684 
L 317.737748 261.240684 
L 317.737748 257.48577 
L 319.381804 257.48577 
L 319.381804 253.730855 
L 320.486297 253.730855 
L 320.486297 249.975941 
L 321.14835 249.975941 
L 321.14835 246.221026 
L 321.859812 246.221026 
L 321.859812 242.466112 
L 322.065251 242.466112 
L 322.065251 238.711197 
L 322.473379 238.711197 
L 322.473379 234.956283 
L 322.762682 234.956283 
L 322.849117 227.446454 
L 322.877893 227.446454 
L 322.877893 223.691539 
L 323.193231 223.691539 
L 323.193231 219.936625 
L 323.307362 219.936625 
L 323.307362 216.18171 
L 323.534771 216.18171 
L 323.534771 212.426796 
L 324.627466 212.426796 
L 324.627466 208.671881 
L 325.504916 208.671881 
L 325.504916 204.916967 
L 325.856621 204.916967 
L 325.856621 201.162052 
L 326.018038 201.162052 
L 326.018038 197.407138 
L 326.763864 197.407138 
L 326.869423 189.897309 
L 328.652947 189.897309 
L 328.652947 186.142394 
L 329.106985 186.142394 
L 329.106985 182.38748 
L 329.457032 182.38748 
L 329.457032 178.632565 
L 329.903186 178.632565 
L 329.903186 174.877651 
L 330.588656 174.877651 
L 330.685746 167.367822 
L 330.951684 167.367822 
L 330.951684 163.612907 
L 331.764022 163.612907 
L 331.764022 159.857993 
L 332.468987 159.857993 
L 332.468987 156.103079 
L 332.840567 156.103079 
L 332.840567 152.348164 
L 332.956069 152.348164 
L 333.002188 144.838335 
L 333.369473 144.838335 
L 333.392331 137.328506 
L 334.050273 137.328506 
L 334.117799 129.818677 
L 334.498568 129.818677 
L 334.543156 122.308848 
L 335.184845 122.308848 
L 335.206812 114.799019 
L 335.469598 114.799019 
L 335.513249 107.28919 
L 336.270468 107.28919 
L 336.270468 103.534276 
L 336.569875 103.534276 
L 336.569875 99.779361 
L 338.977965 99.779361 
L 338.977965 96.024447 
L 341.800845 96.024447 
L 341.800845 92.269532 
L 343.425473 92.269532 
L 343.425473 88.514618 
L 344.958834 88.514618 
L 344.958834 84.759703 
L 349.401299 84.759703 
L 349.401299 81.004789 
L 358.414202 81.004789 
L 358.414202 77.249874 
L 358.79581 77.249874 
L 358.79581 73.49496 
L 360.253079 73.49496 
L 360.253079 69.740045 
L 360.770536 69.740045 
L 360.770536 65.985131 
L 361.05827 65.985131 
L 361.05827 62.230216 
L 364.480982 62.230216 
L 364.480982 58.475302 
L 368.180103 58.475302 
L 368.180103 54.720387 
L 377.431228 54.720387 
L 377.431228 50.965473 
L 382.475402 50.965473 
L 382.475402 47.210558 
L 388.784465 47.210558 
L 388.784465 43.455644 
L 388.994679 43.455644 
L 388.994679 39.700729 
L 393.769734 39.700729 
L 393.769734 35.945815 
L 400.500486 35.945815 
L 400.500486 32.1909 
L 403.909461 32.1909 
L 403.909461 28.435986 
L 418.450929 28.435986 
L 418.450929 24.681072 
L 425.121427 24.681072 
L 425.121427 20.926157 
L 428.704629 20.926157 
L 428.704629 17.171243 
L 430.81913 17.171243 
L 430.81913 13.416328 
L 440.302918 13.416328 
L 440.302918 9.661414 
L 440.302918 9.661414 
L 450.672 9.661414 
L 450.672 9.661414 
" style="fill:none;stroke:#f5deb3;stroke-linecap:square;stroke-width:1.5;"/>
   </g>
   <g id="line2d_5"/>
   <g id="line2d_6"/>
   <g id="line2d_7">
    <path clip-path="url(#pf1e5e7dfe9)" d="M 336.824957 291.28 
L 336.824957 287.525086 
L 337.560913 287.525086 
L 337.560913 283.770171 
L 338.203003 283.770171 
L 338.203003 280.015257 
L 338.876744 280.015257 
L 338.876744 276.260342 
L 339.01839 276.260342 
L 339.01839 272.505428 
L 341.207704 272.505428 
L 341.207704 268.750513 
L 341.380701 268.750513 
L 341.380701 264.995599 
L 342.066212 264.995599 
L 342.066212 261.240684 
L 342.480127 261.240684 
L 342.51757 253.730855 
L 342.760207 253.730855 
L 342.834605 242.466112 
L 342.927434 242.466112 
L 342.927434 238.711197 
L 343.03858 238.711197 
L 343.03858 234.956283 
L 343.425473 234.956283 
L 343.498797 227.446454 
L 343.572004 227.446454 
L 343.626832 219.936625 
L 343.809118 219.936625 
L 343.863662 204.916967 
L 344.45939 204.916967 
L 344.45939 201.162052 
L 344.638391 201.162052 
L 344.638391 197.407138 
L 344.976571 197.407138 
L 344.976571 193.652223 
L 345.767677 193.652223 
L 345.767677 189.897309 
L 346.04569 189.897309 
L 346.04569 186.142394 
L 346.339237 186.142394 
L 346.373648 178.632565 
L 346.511034 178.632565 
L 346.511034 174.877651 
L 346.665101 174.877651 
L 346.665101 171.122736 
L 347.056483 171.122736 
L 347.141125 163.612907 
L 347.712563 163.612907 
L 347.729262 156.103079 
L 347.995623 156.103079 
L 347.995623 152.348164 
L 349.029579 152.348164 
L 349.029579 148.59325 
L 349.722093 148.59325 
L 349.722093 144.838335 
L 350.278117 144.838335 
L 350.388515 137.328506 
L 350.420008 137.328506 
L 350.420008 133.573592 
L 350.639854 133.573592 
L 350.639854 129.818677 
L 350.858648 129.818677 
L 350.858648 126.063763 
L 351.937166 126.063763 
L 352.013238 118.553934 
L 352.975925 118.553934 
L 352.975925 114.799019 
L 356.511964 114.799019 
L 356.511964 111.044105 
L 356.814033 111.044105 
L 356.814033 107.28919 
L 361.356595 107.28919 
L 361.356595 103.534276 
L 361.529722 103.534276 
L 361.529722 99.779361 
L 363.545825 99.779361 
L 363.545825 96.024447 
L 364.88417 96.024447 
L 364.88417 92.269532 
L 365.055881 92.269532 
L 365.055881 88.514618 
L 366.395724 88.514618 
L 366.484403 81.004789 
L 367.220409 81.004789 
L 367.220409 77.249874 
L 367.405286 77.249874 
L 367.448678 69.740045 
L 368.318611 69.740045 
L 368.318611 65.985131 
L 369.670741 65.985131 
L 369.670741 62.230216 
L 370.102472 62.230216 
L 370.102472 58.475302 
L 371.621785 58.475302 
L 371.621785 54.720387 
L 374.339913 54.720387 
L 374.339913 50.965473 
L 374.997203 50.965473 
L 374.997203 47.210558 
L 377.448653 47.210558 
L 377.448653 43.455644 
L 380.031136 43.455644 
L 380.031136 39.700729 
L 386.897303 39.700729 
L 386.897303 35.945815 
L 395.544725 35.945815 
L 395.544725 32.1909 
L 406.291613 32.1909 
L 406.291613 28.435986 
L 409.0381 28.435986 
L 409.0381 24.681072 
L 412.82889 24.681072 
L 412.82889 20.926157 
L 413.565726 20.926157 
L 413.565726 17.171243 
L 423.962528 17.171243 
L 423.962528 13.416328 
L 461.8 13.416328 
L 461.8 13.416328 
" style="fill:none;stroke:#f5deb3;stroke-linecap:square;stroke-width:1.5;"/>
   </g>
   <g id="line2d_8">
    <path clip-path="url(#pf1e5e7dfe9)" style="fill:none;stroke:#f5deb3;stroke-linecap:square;stroke-width:1.5;"/>
   </g>
   <g id="line2d_9">
    <path clip-path="url(#pf1e5e7dfe9)" d="M 330.951684 291.28 
L 330.951684 287.525086 
L 332.09436 287.525086 
L 332.09436 283.770171 
L 332.979134 283.770171 
L 332.979134 280.015257 
L 334.431603 280.015257 
L 334.431603 276.260342 
L 334.809777 276.260342 
L 334.809777 272.505428 
L 334.942506 272.505428 
L 334.942506 268.750513 
L 335.6657 268.750513 
L 335.6657 264.995599 
L 336.441798 264.995599 
L 336.441798 261.240684 
L 336.951966 261.240684 
L 336.951966 257.48577 
L 337.204929 257.48577 
L 337.28894 249.975941 
L 337.330888 249.975941 
L 337.351847 242.466112 
L 338.017518 242.466112 
L 338.017518 238.711197 
L 338.2852 238.711197 
L 338.2852 234.956283 
L 338.490047 234.956283 
L 338.510481 227.446454 
L 338.673627 227.446454 
L 338.673627 223.691539 
L 338.815904 223.691539 
L 338.815904 219.936625 
L 339.099134 219.936625 
L 339.199864 212.426796 
L 339.799621 212.426796 
L 339.799621 208.671881 
L 340.293473 208.671881 
L 340.293473 204.916967 
L 340.528638 204.916967 
L 340.528638 201.162052 
L 340.723689 201.162052 
L 340.723689 197.407138 
L 341.034049 197.407138 
L 341.130605 186.142394 
L 341.399882 186.142394 
L 341.495669 167.367822 
L 341.553045 167.367822 
L 341.553045 163.612907 
L 341.85784 163.612907 
L 341.85784 159.857993 
L 342.141749 159.857993 
L 342.160613 152.348164 
L 342.853186 152.348164 
L 342.908883 144.838335 
L 343.443815 144.838335 
L 343.443815 141.083421 
L 343.845488 141.083421 
L 343.936287 133.573592 
L 344.441452 133.573592 
L 344.548978 126.063763 
L 344.852269 126.063763 
L 344.852269 122.308848 
L 345.993691 122.308848 
L 346.09763 111.044105 
L 347.242487 111.044105 
L 347.242487 107.28919 
L 348.02881 107.28919 
L 348.02881 103.534276 
L 353.962464 103.534276 
L 353.962464 99.779361 
L 354.713716 99.779361 
L 354.713716 96.024447 
L 355.537328 96.024447 
L 355.537328 92.269532 
L 356.909728 92.269532 
L 356.909728 88.514618 
L 357.182044 88.514618 
L 357.182044 84.759703 
L 358.79581 84.759703 
L 358.79581 81.004789 
L 360.51885 81.004789 
L 360.51885 77.249874 
L 360.757984 77.249874 
L 360.757984 73.49496 
L 361.17037 73.49496 
L 361.17037 69.740045 
L 363.309013 69.740045 
L 363.309013 65.985131 
L 364.434676 65.985131 
L 364.434676 62.230216 
L 365.181394 62.230216 
L 365.181394 58.475302 
L 367.880345 58.475302 
L 367.880345 54.720387 
L 376.480243 54.720387 
L 376.480243 50.965473 
L 376.675574 50.965473 
L 376.675574 47.210558 
L 377.77848 47.210558 
L 377.77848 43.455644 
L 383.80582 43.455644 
L 383.80582 39.700729 
L 390.137177 39.700729 
L 390.137177 35.945815 
L 391.630148 35.945815 
L 391.630148 32.1909 
L 392.628193 32.1909 
L 392.628193 28.435986 
L 393.032534 28.435986 
L 393.032534 24.681072 
L 394.585107 24.681072 
L 394.585107 20.926157 
L 396.564921 20.926157 
L 396.564921 17.171243 
L 400.516261 17.171243 
L 400.516261 13.416328 
L 403.487759 13.416328 
L 403.487759 9.661414 
L 403.487759 9.661414 
L 450.672 9.661414 
L 450.672 9.661414 
" style="fill:none;stroke:#f5deb3;stroke-linecap:square;stroke-width:1.5;"/>
   </g>
   <g id="line2d_10">
    <path clip-path="url(#pf1e5e7dfe9)" style="fill:none;stroke:#f5deb3;stroke-linecap:square;stroke-width:1.5;"/>
   </g>
   <g id="line2d_11">
    <path clip-path="url(#pf1e5e7dfe9)" style="fill:none;stroke:#f5deb3;stroke-linecap:square;stroke-width:1.5;"/>
   </g>
   <g id="line2d_12">
    <path clip-path="url(#pf1e5e7dfe9)" d="M 293.514294 291.28 
L 293.514294 287.525086 
L 348.441616 287.525086 
L 348.441616 283.770171 
L 351.215835 283.770171 
L 351.215835 280.015257 
L 415.722576 280.015257 
L 415.722576 276.260342 
L 425.624844 276.260342 
L 425.624844 272.505428 
L 452.814686 272.505428 
L 452.814686 268.750513 
L 461.8 268.750513 
" style="fill:none;stroke:#f5deb3;stroke-linecap:square;stroke-width:1.5;"/>
   </g>
   <g id="line2d_13"/>
   <g id="line2d_14">
    <path clip-path="url(#pf1e5e7dfe9)" d="M 324.014291 291.28 
L 324.014291 287.525086 
L 330.173705 287.525086 
L 330.173705 283.770171 
L 343.001561 283.770171 
L 343.001561 280.015257 
L 344.548978 280.015257 
L 344.548978 276.260342 
L 349.961218 276.260342 
L 349.961218 272.505428 
L 350.341234 272.505428 
L 350.341234 268.750513 
L 353.346533 268.750513 
L 353.346533 264.995599 
L 356.991593 264.995599 
L 356.991593 261.240684 
L 357.962702 261.240684 
L 357.962702 257.48577 
L 363.142512 257.48577 
L 363.142512 253.730855 
L 364.283857 253.730855 
L 364.283857 249.975941 
L 365.89367 249.975941 
L 365.89367 246.221026 
L 367.001945 246.221026 
L 367.001945 242.466112 
L 371.947198 242.466112 
L 371.947198 238.711197 
L 375.880172 238.711197 
L 375.880172 234.956283 
L 376.417916 234.956283 
L 376.417916 231.201368 
L 377.847615 231.201368 
L 377.847615 227.446454 
L 378.456645 227.446454 
L 378.456645 223.691539 
L 387.767307 223.691539 
L 387.767307 219.936625 
L 388.926973 219.936625 
L 388.926973 216.18171 
L 393.555943 216.18171 
L 393.555943 212.426796 
L 396.998513 212.426796 
L 396.998513 208.671881 
L 397.66367 208.671881 
L 397.66367 204.916967 
L 400.01938 204.916967 
L 400.01938 201.162052 
L 402.59232 201.162052 
L 402.59232 197.407138 
L 404.491453 197.407138 
L 404.491453 193.652223 
L 405.600739 193.652223 
L 405.600739 189.897309 
L 408.828213 189.897309 
L 408.828213 186.142394 
L 409.692148 186.142394 
L 409.692148 182.38748 
L 418.539598 182.38748 
L 418.539598 178.632565 
L 420.23 178.632565 
L 420.23 174.877651 
L 422.605207 174.877651 
L 422.605207 171.122736 
L 437.899535 171.122736 
L 437.899535 167.367822 
L 453.985863 167.367822 
L 453.985863 163.612907 
L 456.66671 163.612907 
L 456.66671 159.857993 
L 461.8 159.857993 
" style="fill:none;stroke:#f5deb3;stroke-linecap:square;stroke-width:1.5;"/>
   </g>
   <g id="line2d_15"/>
   <g id="line2d_16"/>
   <g id="line2d_17">
    <path clip-path="url(#pf1e5e7dfe9)" d="M 399.003671 291.28 
L 399.003671 287.525086 
L 400.484706 287.525086 
L 400.484706 283.770171 
L 401.822257 283.770171 
L 401.822257 280.015257 
L 402.34044 280.015257 
L 402.34044 276.260342 
L 404.554059 276.260342 
L 404.554059 272.505428 
L 405.070881 272.505428 
L 405.070881 268.750513 
L 405.246604 268.750513 
L 405.246604 264.995599 
L 405.544262 264.995599 
L 405.544262 261.240684 
L 406.342547 261.240684 
L 406.398047 253.730855 
L 407.344953 253.730855 
L 407.412812 238.711197 
L 408.86764 238.711197 
L 408.915783 231.201368 
L 409.16444 231.201368 
L 409.186188 223.691539 
L 409.571573 223.691539 
L 409.571573 219.936625 
L 409.838135 219.936625 
L 409.838135 216.18171 
L 410.311516 216.18171 
L 410.311516 212.426796 
L 410.624399 212.426796 
L 410.624399 208.671881 
L 411.156431 208.671881 
L 411.156431 204.916967 
L 411.500818 204.916967 
L 411.500818 201.162052 
L 412.542918 201.162052 
L 412.542918 197.407138 
L 412.784702 197.407138 
L 412.784702 193.652223 
L 413.009217 193.652223 
L 413.009217 189.897309 
L 413.168913 189.897309 
L 413.228655 182.38748 
L 413.454965 182.38748 
L 413.51829 174.877651 
L 413.699861 174.877651 
L 413.699861 171.122736 
L 414.21692 171.122736 
L 414.21692 167.367822 
L 414.465523 167.367822 
L 414.465523 163.612907 
L 415.153738 163.612907 
L 415.153738 159.857993 
L 415.715038 159.857993 
L 415.715038 156.103079 
L 415.880589 156.103079 
L 415.959391 148.59325 
L 417.066882 148.59325 
L 417.066882 144.838335 
L 417.933222 144.838335 
L 417.933222 141.083421 
L 418.137435 141.083421 
L 418.137435 137.328506 
L 418.546685 137.328506 
L 418.546685 133.573592 
L 419.783928 133.573592 
L 419.783928 129.818677 
L 422.533836 129.818677 
L 422.533836 126.063763 
L 423.069631 126.063763 
L 423.069631 122.308848 
L 427.164291 122.308848 
L 427.18189 114.799019 
L 429.505945 114.799019 
L 429.505945 111.044105 
L 431.28257 111.044105 
L 431.28257 107.28919 
L 431.682931 107.28919 
L 431.722775 99.779361 
L 432.915143 99.779361 
L 432.915143 96.024447 
L 433.564931 96.024447 
L 433.564931 92.269532 
L 434.278472 92.269532 
L 434.293533 84.759703 
L 434.728164 84.759703 
L 434.728164 81.004789 
L 434.877083 81.004789 
L 434.877083 77.249874 
L 435.529062 77.249874 
L 435.529062 73.49496 
L 438.315112 73.49496 
L 438.315112 69.740045 
L 438.491738 69.740045 
L 438.491738 65.985131 
L 438.813412 65.985131 
L 438.813412 62.230216 
L 439.01982 62.230216 
L 439.01982 58.475302 
L 440.566209 58.475302 
L 440.566209 54.720387 
L 442.02595 54.720387 
L 442.02595 50.965473 
L 444.39195 50.965473 
L 444.39195 47.210558 
L 444.522545 47.210558 
L 444.522545 43.455644 
L 447.028585 43.455644 
L 447.028585 39.700729 
L 450.231487 39.700729 
L 450.231487 35.945815 
L 452.652094 35.945815 
L 452.652094 32.1909 
L 454.46607 32.1909 
L 454.46607 28.435986 
L 457.329339 28.435986 
L 457.329339 24.681072 
L 461.8 24.681072 
L 461.8 24.681072 
" style="fill:none;stroke:#f5deb3;stroke-linecap:square;stroke-width:1.5;"/>
   </g>
   <g id="line2d_18">
    <path clip-path="url(#pf1e5e7dfe9)" d="M 248.1034 291.28 
L 248.1034 287.525086 
L 279.988165 287.525086 
L 279.988165 283.770171 
L 281.436174 283.770171 
L 281.436174 280.015257 
L 289.094747 280.015257 
L 289.094747 276.260342 
L 289.989894 276.260342 
L 289.989894 272.505428 
L 304.023887 272.505428 
L 304.023887 268.750513 
L 307.897111 268.750513 
L 307.897111 264.995599 
L 323.33585 264.995599 
L 323.33585 261.240684 
L 327.106044 261.240684 
L 327.106044 257.48577 
L 342.19832 257.48577 
L 342.19832 253.730855 
L 342.778818 253.730855 
L 342.778818 249.975941 
L 349.545935 249.975941 
L 349.545935 246.221026 
L 353.728802 246.221026 
L 353.728802 242.466112 
L 355.523253 242.466112 
L 355.523253 238.711197 
L 355.705892 238.711197 
L 355.705892 234.956283 
L 355.817924 234.956283 
L 355.817924 231.201368 
L 360.845772 231.201368 
L 360.845772 227.446454 
L 361.677597 227.446454 
L 361.677597 223.691539 
L 362.300777 223.691539 
L 362.300777 219.936625 
L 362.421979 219.936625 
L 362.421979 216.18171 
L 363.035154 216.18171 
L 363.035154 212.426796 
L 363.722631 212.426796 
L 363.722631 208.671881 
L 368.615516 208.671881 
L 368.615516 204.916967 
L 373.378771 204.916967 
L 373.378771 201.162052 
L 373.568831 201.162052 
L 373.568831 197.407138 
L 377.405077 197.407138 
L 377.405077 193.652223 
L 378.981913 193.652223 
L 378.981913 189.897309 
L 380.277439 189.897309 
L 380.277439 186.142394 
L 394.18226 186.142394 
L 394.18226 182.38748 
L 398.709272 182.38748 
L 398.709272 178.632565 
L 413.849312 178.632565 
L 413.849312 174.877651 
L 418.255247 174.877651 
L 418.255247 171.122736 
L 421.263104 171.122736 
L 421.263104 167.367822 
L 427.407142 167.367822 
L 427.407142 163.612907 
L 432.297948 163.612907 
L 432.297948 159.857993 
L 433.806555 159.857993 
L 433.806555 156.103079 
L 436.044028 156.103079 
L 436.044028 152.348164 
L 441.293298 152.348164 
L 441.293298 148.59325 
L 452.24391 148.59325 
L 452.24391 144.838335 
L 461.8 144.838335 
" style="fill:none;stroke:#f5deb3;stroke-linecap:square;stroke-width:1.5;"/>
   </g>
   <g id="line2d_19">
    <path clip-path="url(#pf1e5e7dfe9)" style="fill:none;stroke:#f5deb3;stroke-linecap:square;stroke-width:1.5;"/>
   </g>
   <g id="line2d_20">
    <path clip-path="url(#pf1e5e7dfe9)" d="M 264.867251 291.28 
L 264.867251 287.525086 
L 269.904986 287.525086 
L 269.904986 283.770171 
L 273.856802 283.770171 
L 273.856802 280.015257 
L 274.772948 280.015257 
L 274.772948 276.260342 
L 276.631134 276.260342 
L 276.631134 268.750513 
L 276.94672 268.750513 
L 276.94672 264.995599 
L 277.726275 264.995599 
L 277.726275 261.240684 
L 278.11112 261.240684 
L 278.11112 257.48577 
L 279.692973 257.48577 
L 279.76695 249.975941 
L 280.934575 249.975941 
L 280.934575 246.221026 
L 281.861775 246.221026 
L 281.861775 242.466112 
L 284.801123 242.466112 
L 284.801123 238.711197 
L 285.783545 238.711197 
L 285.783545 231.201368 
L 288.05858 231.201368 
L 288.05858 227.446454 
L 290.166837 227.446454 
L 290.166837 223.691539 
L 293.459553 223.691539 
L 293.459553 216.18171 
L 293.841365 216.18171 
L 293.841365 212.426796 
L 294.488567 212.426796 
L 294.488567 208.671881 
L 294.96802 208.671881 
L 294.96802 204.916967 
L 295.756093 204.916967 
L 295.756093 201.162052 
L 298.091401 201.162052 
L 298.091401 197.407138 
L 298.827809 197.407138 
L 298.827809 193.652223 
L 299.696109 193.652223 
L 299.696109 189.897309 
L 300.595087 189.897309 
L 300.595087 186.142394 
L 303.499317 186.142394 
L 303.499317 182.38748 
L 303.631025 182.38748 
L 303.674844 174.877651 
L 304.110733 174.877651 
L 304.110733 171.122736 
L 305.097769 171.122736 
L 305.140204 163.612907 
L 307.091432 163.612907 
L 307.091432 159.857993 
L 310.308065 159.857993 
L 310.308065 156.103079 
L 310.797843 156.103079 
L 310.797843 152.348164 
L 312.813771 152.348164 
L 312.921214 144.838335 
L 318.154343 144.838335 
L 318.154343 141.083421 
L 318.850807 141.083421 
L 318.850807 137.328506 
L 319.007624 137.328506 
L 319.007624 133.573592 
L 319.783736 133.573592 
L 319.783736 129.818677 
L 320.182163 129.818677 
L 320.273616 122.308848 
L 327.13226 122.308848 
L 327.13226 118.553934 
L 332.771126 118.553934 
L 332.771126 114.799019 
L 333.483647 114.799019 
L 333.483647 111.044105 
L 335.969085 111.044105 
L 335.969085 107.28919 
L 340.509087 107.28919 
L 340.509087 103.534276 
L 341.130605 103.534276 
L 341.130605 99.779361 
L 343.480477 99.779361 
L 343.480477 96.024447 
L 348.17785 96.024447 
L 348.17785 92.269532 
L 350.718115 92.269532 
L 350.718115 88.514618 
L 353.183836 88.514618 
L 353.183836 84.759703 
L 353.59684 84.759703 
L 353.59684 81.004789 
L 357.708435 81.004789 
L 357.708435 77.249874 
L 357.90929 77.249874 
L 357.90929 73.49496 
L 359.588246 73.49496 
L 359.588246 69.740045 
L 361.195244 69.740045 
L 361.195244 65.985131 
L 362.951478 65.985131 
L 362.951478 62.230216 
L 364.930023 62.230216 
L 364.930023 58.475302 
L 376.284073 58.475302 
L 376.284073 54.720387 
L 380.244675 54.720387 
L 380.244675 50.965473 
L 380.766096 50.965473 
L 380.766096 47.210558 
L 387.109312 47.210558 
L 387.109312 43.455644 
L 392.790359 43.455644 
L 392.790359 39.700729 
L 399.592204 39.700729 
L 399.592204 35.945815 
L 411.649387 35.945815 
L 411.649387 32.1909 
L 417.460403 32.1909 
L 417.460403 28.435986 
L 418.779913 28.435986 
L 418.779913 24.681072 
L 420.971748 24.681072 
L 420.971748 20.926157 
L 423.513495 20.926157 
L 423.513495 17.171243 
L 446.210353 17.171243 
L 446.210353 13.416328 
L 461.8 13.416328 
L 461.8 13.416328 
" style="fill:none;stroke:#f5deb3;stroke-linecap:square;stroke-width:1.5;"/>
   </g>
   <g id="line2d_21"/>
   <g id="line2d_22">
    <path clip-path="url(#pf1e5e7dfe9)" d="M 263.30447 291.28 
L 263.30447 287.525086 
L 265.578647 287.525086 
L 265.578647 283.770171 
L 270.361342 283.770171 
L 270.361342 280.015257 
L 270.903018 280.015257 
L 270.903018 276.260342 
L 271.615405 276.260342 
L 271.615405 272.505428 
L 271.791779 272.505428 
L 271.791779 268.750513 
L 272.229758 268.750513 
L 272.229758 264.995599 
L 272.749849 264.995599 
L 272.835958 257.48577 
L 273.856802 257.48577 
L 273.856802 253.730855 
L 274.85533 253.730855 
L 274.85533 249.975941 
L 276.631134 249.975941 
L 276.631134 246.221026 
L 277.880603 246.221026 
L 277.880603 242.466112 
L 279.32128 242.466112 
L 279.32128 238.711197 
L 279.988165 238.711197 
L 279.988165 234.956283 
L 280.135049 234.956283 
L 280.135049 231.201368 
L 280.427408 231.201368 
L 280.427408 227.446454 
L 282.908746 227.446454 
L 282.908746 223.691539 
L 284.06701 223.691539 
L 284.06701 219.936625 
L 284.93334 219.936625 
L 284.93334 216.18171 
L 285.977519 216.18171 
L 285.977519 212.426796 
L 293.239933 212.426796 
L 293.239933 208.671881 
L 293.841365 208.671881 
L 293.841365 204.916967 
L 294.434982 204.916967 
L 294.434982 201.162052 
L 296.73519 201.162052 
L 296.73519 197.407138 
L 298.632591 197.407138 
L 298.632591 193.652223 
L 301.014822 193.652223 
L 301.014822 189.897309 
L 302.115619 189.897309 
L 302.115619 186.142394 
L 304.023887 186.142394 
L 304.023887 182.38748 
L 307.937025 182.38748 
L 307.937025 178.632565 
L 309.582654 178.632565 
L 309.582654 174.877651 
L 310.118281 174.877651 
L 310.118281 171.122736 
L 310.98483 171.122736 
L 310.98483 167.367822 
L 311.282426 167.367822 
L 311.282426 163.612907 
L 312.885428 163.612907 
L 312.885428 159.857993 
L 313.876989 159.857993 
L 313.876989 156.103079 
L 317.219746 156.103079 
L 317.219746 152.348164 
L 321.416449 152.348164 
L 321.416449 148.59325 
L 322.182232 148.59325 
L 322.182232 144.838335 
L 322.849117 144.838335 
L 322.849117 141.083421 
L 325.095709 141.083421 
L 325.095709 137.328506 
L 327.341446 137.328506 
L 327.341446 133.573592 
L 329.77969 133.573592 
L 329.77969 129.818677 
L 330.879309 129.818677 
L 330.879309 126.063763 
L 332.070844 126.063763 
L 332.070844 122.308848 
L 333.392331 122.308848 
L 333.483647 114.799019 
L 333.552014 114.799019 
L 333.552014 111.044105 
L 334.587701 111.044105 
L 334.587701 107.28919 
L 335.31649 107.28919 
L 335.31649 103.534276 
L 336.184561 103.534276 
L 336.184561 99.779361 
L 340.037336 99.779361 
L 340.05709 92.269532 
L 342.834605 92.269532 
L 342.834605 88.514618 
L 344.189568 88.514618 
L 344.189568 84.759703 
L 344.709795 84.759703 
L 344.709795 81.004789 
L 347.427737 81.004789 
L 347.427737 77.249874 
L 348.09511 77.249874 
L 348.09511 73.49496 
L 348.589318 73.49496 
L 348.589318 69.740045 
L 348.948369 69.740045 
L 348.948369 65.985131 
L 349.223897 65.985131 
L 349.223897 62.230216 
L 349.674117 62.230216 
L 349.738073 54.720387 
L 352.767064 54.720387 
L 352.767064 50.965473 
L 359.934655 50.965473 
L 359.934655 47.210558 
L 361.195244 47.210558 
L 361.195244 43.455644 
L 366.351319 43.455644 
L 366.351319 39.700729 
L 366.793431 39.700729 
L 366.793431 35.945815 
L 369.845981 35.945815 
L 369.845981 32.1909 
L 370.631403 32.1909 
L 370.631403 28.435986 
L 371.986485 28.435986 
L 371.986485 24.681072 
L 380.121601 24.681072 
L 380.121601 20.926157 
L 380.822767 20.926157 
L 380.822767 17.171243 
L 394.936936 17.171243 
L 394.936936 13.416328 
L 405.099423 13.416328 
L 405.099423 9.661414 
L 405.099423 9.661414 
L 450.672 9.661414 
L 450.672 9.661414 
" style="fill:none;stroke:#f5deb3;stroke-linecap:square;stroke-width:1.5;"/>
   </g>
   <g id="line2d_23">
    <path clip-path="url(#pf1e5e7dfe9)" style="fill:none;stroke:#f5deb3;stroke-linecap:square;stroke-width:1.5;"/>
   </g>
   <g id="line2d_24">
    <path clip-path="url(#pf1e5e7dfe9)" d="M 316.065712 291.28 
L 316.065712 287.525086 
L 318.186232 287.525086 
L 318.186232 283.770171 
L 323.563118 283.770171 
L 323.563118 280.015257 
L 324.210286 280.015257 
L 324.210286 276.260342 
L 324.321907 276.260342 
L 324.321907 272.505428 
L 324.461051 272.505428 
L 324.461051 268.750513 
L 325.013426 268.750513 
L 325.013426 264.995599 
L 325.450566 264.995599 
L 325.450566 261.240684 
L 328.551434 261.240684 
L 328.576834 253.730855 
L 328.95614 253.730855 
L 328.95614 249.975941 
L 329.332323 249.975941 
L 329.332323 246.221026 
L 329.853828 246.221026 
L 329.853828 242.466112 
L 330.661493 242.466112 
L 330.661493 238.711197 
L 331.120115 238.711197 
L 331.120115 234.956283 
L 332.164837 234.956283 
L 332.164837 231.201368 
L 332.585431 231.201368 
L 332.585431 227.446454 
L 333.892325 227.446454 
L 333.892325 223.691539 
L 334.743267 223.691539 
L 334.809777 216.18171 
L 336.206053 216.18171 
L 336.206053 212.426796 
L 337.540049 212.426796 
L 337.540049 208.671881 
L 338.326243 208.671881 
L 338.326243 204.916967 
L 339.878997 204.916967 
L 339.878997 201.162052 
L 340.076835 201.162052 
L 340.175434 193.652223 
L 340.46996 193.652223 
L 340.46996 189.897309 
L 341.053376 189.897309 
L 341.053376 186.142394 
L 341.169171 186.142394 
L 341.169171 182.38748 
L 341.476528 182.38748 
L 341.553045 174.877651 
L 342.141749 174.877651 
L 342.141749 171.122736 
L 342.871759 171.122736 
L 342.871759 167.367822 
L 343.130995 167.367822 
L 343.130995 163.612907 
L 344.225636 163.612907 
L 344.225636 159.857993 
L 345.118217 159.857993 
L 345.118217 156.103079 
L 345.452877 156.103079 
L 345.52302 148.59325 
L 346.903733 148.59325 
L 346.903733 144.838335 
L 348.19438 144.838335 
L 348.19438 141.083421 
L 348.769196 141.083421 
L 348.769196 137.328506 
L 349.785982 137.328506 
L 349.785982 133.573592 
L 350.341234 133.573592 
L 350.341234 129.818677 
L 350.482929 129.818677 
L 350.482929 126.063763 
L 352.871614 126.063763 
L 352.871614 122.308848 
L 353.670199 122.308848 
L 353.670199 118.553934 
L 355.551399 118.553934 
L 355.551399 114.799019 
L 356.166262 114.799019 
L 356.166262 111.044105 
L 356.800345 111.044105 
L 356.800345 107.28919 
L 357.533645 107.28919 
L 357.533645 103.534276 
L 357.90929 103.534276 
L 357.90929 99.779361 
L 358.295121 99.779361 
L 358.295121 96.024447 
L 359.934655 96.024447 
L 359.934655 92.269532 
L 361.282196 92.269532 
L 361.319411 84.759703 
L 361.430873 84.759703 
L 361.430873 81.004789 
L 362.032996 81.004789 
L 362.032996 77.249874 
L 362.639335 77.249874 
L 362.639335 73.49496 
L 363.604837 73.49496 
L 363.604837 69.740045 
L 363.910474 69.740045 
L 363.910474 65.985131 
L 364.838271 65.985131 
L 364.838271 62.230216 
L 364.952932 62.230216 
L 364.952932 58.475302 
L 369.619072 58.475302 
L 369.619072 54.720387 
L 371.124276 54.720387 
L 371.124276 50.965473 
L 372.367772 50.965473 
L 372.367772 47.210558 
L 372.823083 47.210558 
L 372.823083 43.455644 
L 382.028431 43.455644 
L 382.028431 39.700729 
L 386.154625 39.700729 
L 386.154625 35.945815 
L 391.922975 35.945815 
L 391.922975 32.1909 
L 405.78381 32.1909 
L 405.78381 28.435986 
L 405.938146 28.435986 
L 405.938146 24.681072 
L 409.795246 24.681072 
L 409.795246 20.926157 
L 413.355844 20.926157 
L 413.355844 17.171243 
L 434.398823 17.171243 
L 434.398823 13.416328 
L 436.643932 13.416328 
L 436.643932 9.661414 
L 436.643932 9.661414 
L 450.672 9.661414 
L 450.672 9.661414 
" style="fill:none;stroke:#f5deb3;stroke-linecap:square;stroke-width:1.5;"/>
   </g>
   <g id="line2d_25"/>
   <g id="line2d_26">
    <path clip-path="url(#pf1e5e7dfe9)" d="M 372.015928 291.28 
L 372.015928 287.525086 
L 373.644634 287.525086 
L 373.644634 283.770171 
L 374.655852 283.770171 
L 374.739119 276.260342 
L 374.785312 276.260342 
L 374.785312 272.505428 
L 374.932819 272.505428 
L 374.932819 268.750513 
L 375.061497 268.750513 
L 375.061497 264.995599 
L 379.733809 264.995599 
L 379.766941 257.48577 
L 379.989956 257.48577 
L 379.989956 253.730855 
L 380.449064 253.730855 
L 380.449064 249.975941 
L 380.563124 249.975941 
L 380.563124 246.221026 
L 380.814675 246.221026 
L 380.903604 238.711197 
L 381.008478 238.711197 
L 381.008478 234.956283 
L 381.169355 234.956283 
L 381.233547 227.446454 
L 381.473468 227.446454 
L 381.577044 219.936625 
L 381.910077 219.936625 
L 381.910077 216.18171 
L 382.075687 216.18171 
L 382.075687 212.426796 
L 382.232855 212.426796 
L 382.232855 208.671881 
L 382.584519 208.671881 
L 382.631203 197.407138 
L 382.918042 197.407138 
L 382.918042 193.652223 
L 383.241475 193.652223 
L 383.341123 178.632565 
L 387.144552 178.632565 
L 387.193841 167.367822 
L 387.509439 167.367822 
L 387.579277 159.857993 
L 388.023728 159.857993 
L 388.023728 156.103079 
L 388.258095 156.103079 
L 388.326798 148.59325 
L 388.933748 148.59325 
L 388.933748 144.838335 
L 389.331709 144.838335 
L 389.331709 141.083421 
L 389.932167 141.083421 
L 389.932167 137.328506 
L 393.897529 137.328506 
L 393.897529 133.573592 
L 394.495226 133.573592 
L 394.50722 126.063763 
L 394.907225 126.063763 
L 394.907225 122.308848 
L 395.238891 122.308848 
L 395.238891 118.553934 
L 399.838318 118.553934 
L 399.838318 114.799019 
L 401.158377 114.799019 
L 401.163561 107.28919 
L 401.334292 107.28919 
L 401.370426 96.024447 
L 401.71996 96.024447 
L 401.71996 92.269532 
L 404.703005 92.269532 
L 404.703005 88.514618 
L 405.303451 88.514618 
L 405.303451 84.759703 
L 405.647751 84.759703 
L 405.746317 73.49496 
L 406.518066 73.49496 
L 406.518066 69.740045 
L 409.385782 69.740045 
L 409.493892 62.230216 
L 409.96656 62.230216 
L 409.96656 58.475302 
L 410.683353 58.475302 
L 410.700183 50.965473 
L 414.739745 50.965473 
L 414.739745 47.210558 
L 417.64506 47.210558 
L 417.64506 43.455644 
L 426.433855 43.455644 
L 426.433855 39.700729 
L 427.246361 39.700729 
L 427.255145 32.1909 
L 427.372111 32.1909 
L 427.372111 28.435986 
L 428.639345 28.435986 
L 428.639345 24.681072 
L 429.78658 24.681072 
L 429.78658 20.926157 
L 435.08969 20.926157 
L 435.08969 17.171243 
L 438.374828 17.171243 
L 438.374828 13.416328 
L 456.985483 13.416328 
L 456.985483 9.661414 
L 456.985483 9.661414 
" style="fill:none;stroke:#f5deb3;stroke-linecap:square;stroke-width:1.5;"/>
   </g>
   <g id="line2d_27">
    <path clip-path="url(#pf1e5e7dfe9)" d="M 358.09596 291.28 
L 358.09596 287.525086 
L 359.420515 287.525086 
L 359.420515 283.770171 
L 371.700886 283.770171 
L 371.700886 280.015257 
L 372.465027 280.015257 
L 372.465027 276.260342 
L 372.784509 276.260342 
L 372.784509 272.505428 
L 381.577044 272.505428 
L 381.577044 268.750513 
L 389.371986 268.750513 
L 389.371986 264.995599 
L 399.20971 264.995599 
L 399.20971 261.240684 
L 399.629742 261.240684 
L 399.629742 257.48577 
L 401.473508 257.48577 
L 401.473508 253.730855 
L 407.893976 253.730855 
L 407.893976 249.975941 
L 408.863261 249.975941 
L 408.863261 246.221026 
L 413.224675 246.221026 
L 413.224675 242.466112 
L 415.042941 242.466112 
L 415.042941 238.711197 
L 424.581366 238.711197 
L 424.581366 234.956283 
L 461.8 234.956283 
" style="fill:none;stroke:#f5deb3;stroke-linecap:square;stroke-width:1.5;"/>
   </g>
   <g id="line2d_28">
    <path clip-path="url(#pf1e5e7dfe9)" d="M 308.767249 291.28 
L 308.767249 287.525086 
L 309.234975 287.525086 
L 309.234975 283.770171 
L 310.421557 283.770171 
L 310.421557 280.015257 
L 312.381457 280.015257 
L 312.381457 276.260342 
L 312.706076 276.260342 
L 312.706076 272.505428 
L 313.170934 272.505428 
L 313.170934 268.750513 
L 314.744483 268.750513 
L 314.744483 264.995599 
L 316.563872 264.995599 
L 316.563872 261.240684 
L 316.728725 261.240684 
L 316.728725 257.48577 
L 318.154343 257.48577 
L 318.154343 253.730855 
L 318.724964 253.730855 
L 318.724964 249.975941 
L 318.976304 249.975941 
L 318.976304 246.221026 
L 320.121092 246.221026 
L 320.121092 242.466112 
L 321.14835 242.466112 
L 321.14835 238.711197 
L 321.327257 238.711197 
L 321.327257 234.956283 
L 321.682983 234.956283 
L 321.682983 231.201368 
L 321.859812 231.201368 
L 321.859812 227.446454 
L 322.298914 227.446454 
L 322.298914 223.691539 
L 322.647181 223.691539 
L 322.647181 219.936625 
L 322.96411 219.936625 
L 322.96411 216.18171 
L 323.164654 216.18171 
L 323.164654 212.426796 
L 323.901915 212.426796 
L 323.901915 208.671881 
L 324.126391 208.671881 
L 324.126391 204.916967 
L 324.294027 204.916967 
L 324.294027 201.162052 
L 325.423367 201.162052 
L 325.423367 197.407138 
L 326.044885 197.407138 
L 326.044885 193.652223 
L 326.259098 193.652223 
L 326.259098 189.897309 
L 327.393593 189.897309 
L 327.393593 186.142394 
L 328.194352 186.142394 
L 328.194352 182.38748 
L 329.182221 182.38748 
L 329.182221 178.632565 
L 329.65586 178.632565 
L 329.65586 174.877651 
L 330.637227 174.877651 
L 330.637227 171.122736 
L 331.953079 171.122736 
L 331.953079 167.367822 
L 332.538889 167.367822 
L 332.538889 163.612907 
L 332.817432 163.612907 
L 332.817432 159.857993 
L 333.02523 159.857993 
L 333.02523 156.103079 
L 334.431603 156.103079 
L 334.431603 152.348164 
L 334.609957 152.348164 
L 334.609957 148.59325 
L 335.140879 148.59325 
L 335.140879 144.838335 
L 335.31649 144.838335 
L 335.31649 141.083421 
L 335.752587 141.083421 
L 335.752587 137.328506 
L 335.969085 137.328506 
L 335.969085 133.573592 
L 336.141547 133.573592 
L 336.141547 129.818677 
L 336.676332 129.818677 
L 336.676332 126.063763 
L 337.477401 126.063763 
L 337.477401 122.308848 
L 337.976196 122.308848 
L 337.976196 118.553934 
L 338.387738 118.553934 
L 338.387738 114.799019 
L 338.510481 114.799019 
L 338.592127 103.534276 
L 339.400659 103.534276 
L 339.400659 99.779361 
L 340.509087 99.779361 
L 340.509087 96.024447 
L 341.667582 96.024447 
L 341.667582 92.269532 
L 342.009477 92.269532 
L 342.009477 88.514618 
L 342.816017 88.514618 
L 342.816017 84.759703 
L 343.075568 84.759703 
L 343.075568 81.004789 
L 344.495246 81.004789 
L 344.495246 77.249874 
L 345.241798 77.249874 
L 345.241798 73.49496 
L 345.68045 73.49496 
L 345.68045 69.740045 
L 346.028364 69.740045 
L 346.028364 65.985131 
L 347.326785 65.985131 
L 347.326785 62.230216 
L 347.712563 62.230216 
L 347.712563 58.475302 
L 348.144772 58.475302 
L 348.144772 54.720387 
L 348.687521 54.720387 
L 348.687521 50.965473 
L 349.045804 50.965473 
L 349.045804 47.210558 
L 350.056519 47.210558 
L 350.056519 43.455644 
L 352.013238 43.455644 
L 352.013238 39.700729 
L 352.391706 39.700729 
L 352.391706 35.945815 
L 352.88653 35.945815 
L 352.88653 32.1909 
L 368.857968 32.1909 
L 368.857968 28.435986 
L 369.660412 28.435986 
L 369.660412 24.681072 
L 372.716927 24.681072 
L 372.716927 20.926157 
L 375.418059 20.926157 
L 375.418059 17.171243 
L 378.071584 17.171243 
L 378.071584 13.416328 
L 392.92092 13.416328 
L 392.92092 9.661414 
L 392.92092 9.661414 
L 450.672 9.661414 
L 450.672 9.661414 
" style="fill:none;stroke:#f5deb3;stroke-linecap:square;stroke-width:1.5;"/>
   </g>
   <g id="line2d_29">
    <path clip-path="url(#pf1e5e7dfe9)" d="M 383.911808 291.28 
L 383.911808 287.525086 
L 383.911808 287.525086 
L 383.911808 283.770171 
L 383.911808 283.770171 
L 383.911808 280.015257 
L 414.142854 280.015257 
L 414.142854 276.260342 
L 414.142854 276.260342 
L 414.142854 272.505428 
L 414.142854 272.505428 
L 414.142854 268.750513 
L 414.142854 268.750513 
L 414.142854 268.750513 
L 450.672 268.750513 
" style="fill:none;stroke:#f5deb3;stroke-linecap:square;stroke-width:1.5;"/>
   </g>
   <g id="line2d_30"/>
   <g id="matplotlib.axis_1">
    <g id="xtick_1">
     <g id="line2d_31">
      <path clip-path="url(#pf1e5e7dfe9)" d="M 164.904038 291.28 
L 164.904038 6.845228 
" style="fill:none;stroke:#b0b0b0;stroke-linecap:square;stroke-width:0.8;"/>
     </g>
     <g id="line2d_32">
      <defs>
       <path d="M 0 0 
L 0 3.5 
" id="me91aa78b47" style="stroke:#000000;stroke-width:0.8;"/>
      </defs>
      <g>
       <use style="stroke:#000000;stroke-width:0.8;" x="164.904038" xlink:href="#me91aa78b47" y="291.28"/>
      </g>
     </g>
     <g id="text_1">
      <!-- 1 -->
      <defs>
       <path d="M 12.40625 8.296875 
L 28.515625 8.296875 
L 28.515625 63.921875 
L 10.984375 60.40625 
L 10.984375 69.390625 
L 28.421875 72.90625 
L 38.28125 72.90625 
L 38.28125 8.296875 
L 54.390625 8.296875 
L 54.390625 0 
L 12.40625 0 
z
" id="DejaVuSans-31"/>
      </defs>
      <g transform="translate(158.541538 313.476875)scale(0.2 -0.2)">
       <use xlink:href="#DejaVuSans-31"/>
      </g>
     </g>
    </g>
    <g id="xtick_2">
     <g id="line2d_33">
      <path clip-path="url(#pf1e5e7dfe9)" d="M 375.272114 291.28 
L 375.272114 6.845228 
" style="fill:none;stroke:#b0b0b0;stroke-linecap:square;stroke-width:0.8;"/>
     </g>
     <g id="line2d_34">
      <g>
       <use style="stroke:#000000;stroke-width:0.8;" x="375.272114" xlink:href="#me91aa78b47" y="291.28"/>
      </g>
     </g>
     <g id="text_2">
      <!-- 3 -->
      <defs>
       <path d="M 40.578125 39.3125 
Q 47.65625 37.796875 51.625 33 
Q 55.609375 28.21875 55.609375 21.1875 
Q 55.609375 10.40625 48.1875 4.484375 
Q 40.765625 -1.421875 27.09375 -1.421875 
Q 22.515625 -1.421875 17.65625 -0.515625 
Q 12.796875 0.390625 7.625 2.203125 
L 7.625 11.71875 
Q 11.71875 9.328125 16.59375 8.109375 
Q 21.484375 6.890625 26.8125 6.890625 
Q 36.078125 6.890625 40.9375 10.546875 
Q 45.796875 14.203125 45.796875 21.1875 
Q 45.796875 27.640625 41.28125 31.265625 
Q 36.765625 34.90625 28.71875 34.90625 
L 20.21875 34.90625 
L 20.21875 43.015625 
L 29.109375 43.015625 
Q 36.375 43.015625 40.234375 45.921875 
Q 44.09375 48.828125 44.09375 54.296875 
Q 44.09375 59.90625 40.109375 62.90625 
Q 36.140625 65.921875 28.71875 65.921875 
Q 24.65625 65.921875 20.015625 65.03125 
Q 15.375 64.15625 9.8125 62.3125 
L 9.8125 71.09375 
Q 15.4375 72.65625 20.34375 73.4375 
Q 25.25 74.21875 29.59375 74.21875 
Q 40.828125 74.21875 47.359375 69.109375 
Q 53.90625 64.015625 53.90625 55.328125 
Q 53.90625 49.265625 50.4375 45.09375 
Q 46.96875 40.921875 40.578125 39.3125 
z
" id="DejaVuSans-33"/>
      </defs>
      <g transform="translate(368.909614 313.476875)scale(0.2 -0.2)">
       <use xlink:href="#DejaVuSans-33"/>
      </g>
     </g>
    </g>
    <g id="xtick_3">
     <g id="line2d_35">
      <defs>
       <path d="M 0 0 
L 0 2 
" id="mad3e580f11" style="stroke:#000000;stroke-width:0.6;"/>
      </defs>
      <g>
       <use style="stroke:#000000;stroke-width:0.6;" x="91.38355" xlink:href="#mad3e580f11" y="291.28"/>
      </g>
     </g>
    </g>
    <g id="xtick_4">
     <g id="line2d_36">
      <g>
       <use style="stroke:#000000;stroke-width:0.6;" x="109.90554" xlink:href="#mad3e580f11" y="291.28"/>
      </g>
     </g>
    </g>
    <g id="xtick_5">
     <g id="line2d_37">
      <g>
       <use style="stroke:#000000;stroke-width:0.6;" x="123.047101" xlink:href="#mad3e580f11" y="291.28"/>
      </g>
     </g>
    </g>
    <g id="xtick_6">
     <g id="line2d_38">
      <g>
       <use style="stroke:#000000;stroke-width:0.6;" x="133.240487" xlink:href="#mad3e580f11" y="291.28"/>
      </g>
     </g>
    </g>
    <g id="xtick_7">
     <g id="line2d_39">
      <g>
       <use style="stroke:#000000;stroke-width:0.6;" x="141.569091" xlink:href="#mad3e580f11" y="291.28"/>
      </g>
     </g>
    </g>
    <g id="xtick_8">
     <g id="line2d_40">
      <g>
       <use style="stroke:#000000;stroke-width:0.6;" x="148.610824" xlink:href="#mad3e580f11" y="291.28"/>
      </g>
     </g>
    </g>
    <g id="xtick_9">
     <g id="line2d_41">
      <g>
       <use style="stroke:#000000;stroke-width:0.6;" x="154.710651" xlink:href="#mad3e580f11" y="291.28"/>
      </g>
     </g>
    </g>
    <g id="xtick_10">
     <g id="line2d_42">
      <g>
       <use style="stroke:#000000;stroke-width:0.6;" x="160.09108" xlink:href="#mad3e580f11" y="291.28"/>
      </g>
     </g>
    </g>
    <g id="xtick_11">
     <g id="line2d_43">
      <g>
       <use style="stroke:#000000;stroke-width:0.6;" x="196.567588" xlink:href="#mad3e580f11" y="291.28"/>
      </g>
     </g>
    </g>
    <g id="xtick_12">
     <g id="line2d_44">
      <g>
       <use style="stroke:#000000;stroke-width:0.6;" x="215.089578" xlink:href="#mad3e580f11" y="291.28"/>
      </g>
     </g>
    </g>
    <g id="xtick_13">
     <g id="line2d_45">
      <g>
       <use style="stroke:#000000;stroke-width:0.6;" x="228.231139" xlink:href="#mad3e580f11" y="291.28"/>
      </g>
     </g>
    </g>
    <g id="xtick_14">
     <g id="line2d_46">
      <g>
       <use style="stroke:#000000;stroke-width:0.6;" x="238.424525" xlink:href="#mad3e580f11" y="291.28"/>
      </g>
     </g>
    </g>
    <g id="xtick_15">
     <g id="line2d_47">
      <g>
       <use style="stroke:#000000;stroke-width:0.6;" x="246.753129" xlink:href="#mad3e580f11" y="291.28"/>
      </g>
     </g>
    </g>
    <g id="xtick_16">
     <g id="line2d_48">
      <g>
       <use style="stroke:#000000;stroke-width:0.6;" x="253.794862" xlink:href="#mad3e580f11" y="291.28"/>
      </g>
     </g>
    </g>
    <g id="xtick_17">
     <g id="line2d_49">
      <g>
       <use style="stroke:#000000;stroke-width:0.6;" x="259.894689" xlink:href="#mad3e580f11" y="291.28"/>
      </g>
     </g>
    </g>
    <g id="xtick_18">
     <g id="line2d_50">
      <g>
       <use style="stroke:#000000;stroke-width:0.6;" x="265.275118" xlink:href="#mad3e580f11" y="291.28"/>
      </g>
     </g>
    </g>
    <g id="xtick_19">
     <g id="line2d_51">
      <g>
       <use style="stroke:#000000;stroke-width:0.6;" x="301.751626" xlink:href="#mad3e580f11" y="291.28"/>
      </g>
     </g>
    </g>
    <g id="xtick_20">
     <g id="line2d_52">
      <g>
       <use style="stroke:#000000;stroke-width:0.6;" x="320.273616" xlink:href="#mad3e580f11" y="291.28"/>
      </g>
     </g>
    </g>
    <g id="xtick_21">
     <g id="line2d_53">
      <g>
       <use style="stroke:#000000;stroke-width:0.6;" x="333.415177" xlink:href="#mad3e580f11" y="291.28"/>
      </g>
     </g>
    </g>
    <g id="xtick_22">
     <g id="line2d_54">
      <g>
       <use style="stroke:#000000;stroke-width:0.6;" x="343.608563" xlink:href="#mad3e580f11" y="291.28"/>
      </g>
     </g>
    </g>
    <g id="xtick_23">
     <g id="line2d_55">
      <g>
       <use style="stroke:#000000;stroke-width:0.6;" x="351.937166" xlink:href="#mad3e580f11" y="291.28"/>
      </g>
     </g>
    </g>
    <g id="xtick_24">
     <g id="line2d_56">
      <g>
       <use style="stroke:#000000;stroke-width:0.6;" x="358.9789" xlink:href="#mad3e580f11" y="291.28"/>
      </g>
     </g>
    </g>
    <g id="xtick_25">
     <g id="line2d_57">
      <g>
       <use style="stroke:#000000;stroke-width:0.6;" x="365.078727" xlink:href="#mad3e580f11" y="291.28"/>
      </g>
     </g>
    </g>
    <g id="xtick_26">
     <g id="line2d_58">
      <g>
       <use style="stroke:#000000;stroke-width:0.6;" x="370.459156" xlink:href="#mad3e580f11" y="291.28"/>
      </g>
     </g>
    </g>
    <g id="xtick_27">
     <g id="line2d_59">
      <g>
       <use style="stroke:#000000;stroke-width:0.6;" x="406.935664" xlink:href="#mad3e580f11" y="291.28"/>
      </g>
     </g>
    </g>
    <g id="xtick_28">
     <g id="line2d_60">
      <g>
       <use style="stroke:#000000;stroke-width:0.6;" x="425.457654" xlink:href="#mad3e580f11" y="291.28"/>
      </g>
     </g>
    </g>
    <g id="xtick_29">
     <g id="line2d_61">
      <g>
       <use style="stroke:#000000;stroke-width:0.6;" x="438.599215" xlink:href="#mad3e580f11" y="291.28"/>
      </g>
     </g>
    </g>
    <g id="xtick_30">
     <g id="line2d_62">
      <g>
       <use style="stroke:#000000;stroke-width:0.6;" x="448.792601" xlink:href="#mad3e580f11" y="291.28"/>
      </g>
     </g>
    </g>
    <g id="text_3">
     <!-- log10 of FEvals / DIM -->
     <defs>
      <path d="M 9.421875 75.984375 
L 18.40625 75.984375 
L 18.40625 0 
L 9.421875 0 
z
" id="DejaVuSans-6c"/>
      <path d="M 30.609375 48.390625 
Q 23.390625 48.390625 19.1875 42.75 
Q 14.984375 37.109375 14.984375 27.296875 
Q 14.984375 17.484375 19.15625 11.84375 
Q 23.34375 6.203125 30.609375 6.203125 
Q 37.796875 6.203125 41.984375 11.859375 
Q 46.1875 17.53125 46.1875 27.296875 
Q 46.1875 37.015625 41.984375 42.703125 
Q 37.796875 48.390625 30.609375 48.390625 
z
M 30.609375 56 
Q 42.328125 56 49.015625 48.375 
Q 55.71875 40.765625 55.71875 27.296875 
Q 55.71875 13.875 49.015625 6.21875 
Q 42.328125 -1.421875 30.609375 -1.421875 
Q 18.84375 -1.421875 12.171875 6.21875 
Q 5.515625 13.875 5.515625 27.296875 
Q 5.515625 40.765625 12.171875 48.375 
Q 18.84375 56 30.609375 56 
z
" id="DejaVuSans-6f"/>
      <path d="M 45.40625 27.984375 
Q 45.40625 37.75 41.375 43.109375 
Q 37.359375 48.484375 30.078125 48.484375 
Q 22.859375 48.484375 18.828125 43.109375 
Q 14.796875 37.75 14.796875 27.984375 
Q 14.796875 18.265625 18.828125 12.890625 
Q 22.859375 7.515625 30.078125 7.515625 
Q 37.359375 7.515625 41.375 12.890625 
Q 45.40625 18.265625 45.40625 27.984375 
z
M 54.390625 6.78125 
Q 54.390625 -7.171875 48.1875 -13.984375 
Q 42 -20.796875 29.203125 -20.796875 
Q 24.46875 -20.796875 20.265625 -20.09375 
Q 16.0625 -19.390625 12.109375 -17.921875 
L 12.109375 -9.1875 
Q 16.0625 -11.328125 19.921875 -12.34375 
Q 23.78125 -13.375 27.78125 -13.375 
Q 36.625 -13.375 41.015625 -8.765625 
Q 45.40625 -4.15625 45.40625 5.171875 
L 45.40625 9.625 
Q 42.625 4.78125 38.28125 2.390625 
Q 33.9375 0 27.875 0 
Q 17.828125 0 11.671875 7.65625 
Q 5.515625 15.328125 5.515625 27.984375 
Q 5.515625 40.671875 11.671875 48.328125 
Q 17.828125 56 27.875 56 
Q 33.9375 56 38.28125 53.609375 
Q 42.625 51.21875 45.40625 46.390625 
L 45.40625 54.6875 
L 54.390625 54.6875 
z
" id="DejaVuSans-67"/>
      <path d="M 31.78125 66.40625 
Q 24.171875 66.40625 20.328125 58.90625 
Q 16.5 51.421875 16.5 36.375 
Q 16.5 21.390625 20.328125 13.890625 
Q 24.171875 6.390625 31.78125 6.390625 
Q 39.453125 6.390625 43.28125 13.890625 
Q 47.125 21.390625 47.125 36.375 
Q 47.125 51.421875 43.28125 58.90625 
Q 39.453125 66.40625 31.78125 66.40625 
z
M 31.78125 74.21875 
Q 44.046875 74.21875 50.515625 64.515625 
Q 56.984375 54.828125 56.984375 36.375 
Q 56.984375 17.96875 50.515625 8.265625 
Q 44.046875 -1.421875 31.78125 -1.421875 
Q 19.53125 -1.421875 13.0625 8.265625 
Q 6.59375 17.96875 6.59375 36.375 
Q 6.59375 54.828125 13.0625 64.515625 
Q 19.53125 74.21875 31.78125 74.21875 
z
" id="DejaVuSans-30"/>
      <path id="DejaVuSans-20"/>
      <path d="M 37.109375 75.984375 
L 37.109375 68.5 
L 28.515625 68.5 
Q 23.6875 68.5 21.796875 66.546875 
Q 19.921875 64.59375 19.921875 59.515625 
L 19.921875 54.6875 
L 34.71875 54.6875 
L 34.71875 47.703125 
L 19.921875 47.703125 
L 19.921875 0 
L 10.890625 0 
L 10.890625 47.703125 
L 2.296875 47.703125 
L 2.296875 54.6875 
L 10.890625 54.6875 
L 10.890625 58.5 
Q 10.890625 67.625 15.140625 71.796875 
Q 19.390625 75.984375 28.609375 75.984375 
z
" id="DejaVuSans-66"/>
      <path d="M 9.8125 72.90625 
L 51.703125 72.90625 
L 51.703125 64.59375 
L 19.671875 64.59375 
L 19.671875 43.109375 
L 48.578125 43.109375 
L 48.578125 34.8125 
L 19.671875 34.8125 
L 19.671875 0 
L 9.8125 0 
z
" id="DejaVuSans-46"/>
      <path d="M 9.8125 72.90625 
L 55.90625 72.90625 
L 55.90625 64.59375 
L 19.671875 64.59375 
L 19.671875 43.015625 
L 54.390625 43.015625 
L 54.390625 34.71875 
L 19.671875 34.71875 
L 19.671875 8.296875 
L 56.78125 8.296875 
L 56.78125 0 
L 9.8125 0 
z
" id="DejaVuSans-45"/>
      <path d="M 2.984375 54.6875 
L 12.5 54.6875 
L 29.59375 8.796875 
L 46.6875 54.6875 
L 56.203125 54.6875 
L 35.6875 0 
L 23.484375 0 
z
" id="DejaVuSans-76"/>
      <path d="M 34.28125 27.484375 
Q 23.390625 27.484375 19.1875 25 
Q 14.984375 22.515625 14.984375 16.5 
Q 14.984375 11.71875 18.140625 8.90625 
Q 21.296875 6.109375 26.703125 6.109375 
Q 34.1875 6.109375 38.703125 11.40625 
Q 43.21875 16.703125 43.21875 25.484375 
L 43.21875 27.484375 
z
M 52.203125 31.203125 
L 52.203125 0 
L 43.21875 0 
L 43.21875 8.296875 
Q 40.140625 3.328125 35.546875 0.953125 
Q 30.953125 -1.421875 24.3125 -1.421875 
Q 15.921875 -1.421875 10.953125 3.296875 
Q 6 8.015625 6 15.921875 
Q 6 25.140625 12.171875 29.828125 
Q 18.359375 34.515625 30.609375 34.515625 
L 43.21875 34.515625 
L 43.21875 35.40625 
Q 43.21875 41.609375 39.140625 45 
Q 35.0625 48.390625 27.6875 48.390625 
Q 23 48.390625 18.546875 47.265625 
Q 14.109375 46.140625 10.015625 43.890625 
L 10.015625 52.203125 
Q 14.9375 54.109375 19.578125 55.046875 
Q 24.21875 56 28.609375 56 
Q 40.484375 56 46.34375 49.84375 
Q 52.203125 43.703125 52.203125 31.203125 
z
" id="DejaVuSans-61"/>
      <path d="M 44.28125 53.078125 
L 44.28125 44.578125 
Q 40.484375 46.53125 36.375 47.5 
Q 32.28125 48.484375 27.875 48.484375 
Q 21.1875 48.484375 17.84375 46.4375 
Q 14.5 44.390625 14.5 40.28125 
Q 14.5 37.15625 16.890625 35.375 
Q 19.28125 33.59375 26.515625 31.984375 
L 29.59375 31.296875 
Q 39.15625 29.25 43.1875 25.515625 
Q 47.21875 21.78125 47.21875 15.09375 
Q 47.21875 7.46875 41.1875 3.015625 
Q 35.15625 -1.421875 24.609375 -1.421875 
Q 20.21875 -1.421875 15.453125 -0.5625 
Q 10.6875 0.296875 5.421875 2 
L 5.421875 11.28125 
Q 10.40625 8.6875 15.234375 7.390625 
Q 20.0625 6.109375 24.8125 6.109375 
Q 31.15625 6.109375 34.5625 8.28125 
Q 37.984375 10.453125 37.984375 14.40625 
Q 37.984375 18.0625 35.515625 20.015625 
Q 33.0625 21.96875 24.703125 23.78125 
L 21.578125 24.515625 
Q 13.234375 26.265625 9.515625 29.90625 
Q 5.8125 33.546875 5.8125 39.890625 
Q 5.8125 47.609375 11.28125 51.796875 
Q 16.75 56 26.8125 56 
Q 31.78125 56 36.171875 55.265625 
Q 40.578125 54.546875 44.28125 53.078125 
z
" id="DejaVuSans-73"/>
      <path d="M 25.390625 72.90625 
L 33.6875 72.90625 
L 8.296875 -9.28125 
L 0 -9.28125 
z
" id="DejaVuSans-2f"/>
      <path d="M 19.671875 64.796875 
L 19.671875 8.109375 
L 31.59375 8.109375 
Q 46.6875 8.109375 53.6875 14.9375 
Q 60.6875 21.78125 60.6875 36.53125 
Q 60.6875 51.171875 53.6875 57.984375 
Q 46.6875 64.796875 31.59375 64.796875 
z
M 9.8125 72.90625 
L 30.078125 72.90625 
Q 51.265625 72.90625 61.171875 64.09375 
Q 71.09375 55.28125 71.09375 36.53125 
Q 71.09375 17.671875 61.125 8.828125 
Q 51.171875 0 30.078125 0 
L 9.8125 0 
z
" id="DejaVuSans-44"/>
      <path d="M 9.8125 72.90625 
L 19.671875 72.90625 
L 19.671875 0 
L 9.8125 0 
z
" id="DejaVuSans-49"/>
      <path d="M 9.8125 72.90625 
L 24.515625 72.90625 
L 43.109375 23.296875 
L 61.8125 72.90625 
L 76.515625 72.90625 
L 76.515625 0 
L 66.890625 0 
L 66.890625 64.015625 
L 48.09375 14.015625 
L 38.1875 14.015625 
L 19.390625 64.015625 
L 19.390625 0 
L 9.8125 0 
z
" id="DejaVuSans-4d"/>
     </defs>
     <g transform="translate(150.122563 336.833125)scale(0.2 -0.2)">
      <use xlink:href="#DejaVuSans-6c"/>
      <use x="27.783203" xlink:href="#DejaVuSans-6f"/>
      <use x="88.964844" xlink:href="#DejaVuSans-67"/>
      <use x="152.441406" xlink:href="#DejaVuSans-31"/>
      <use x="216.064453" xlink:href="#DejaVuSans-30"/>
      <use x="279.6875" xlink:href="#DejaVuSans-20"/>
      <use x="311.474609" xlink:href="#DejaVuSans-6f"/>
      <use x="372.65625" xlink:href="#DejaVuSans-66"/>
      <use x="407.861328" xlink:href="#DejaVuSans-20"/>
      <use x="439.648438" xlink:href="#DejaVuSans-46"/>
      <use x="497.167969" xlink:href="#DejaVuSans-45"/>
      <use x="560.351562" xlink:href="#DejaVuSans-76"/>
      <use x="619.53125" xlink:href="#DejaVuSans-61"/>
      <use x="680.810547" xlink:href="#DejaVuSans-6c"/>
      <use x="708.59375" xlink:href="#DejaVuSans-73"/>
      <use x="760.693359" xlink:href="#DejaVuSans-20"/>
      <use x="792.480469" xlink:href="#DejaVuSans-2f"/>
      <use x="826.171875" xlink:href="#DejaVuSans-20"/>
      <use x="857.958984" xlink:href="#DejaVuSans-44"/>
      <use x="934.960938" xlink:href="#DejaVuSans-49"/>
      <use x="964.453125" xlink:href="#DejaVuSans-4d"/>
     </g>
    </g>
   </g>
   <g id="matplotlib.axis_2">
    <g id="ytick_1">
     <g id="line2d_63">
      <path clip-path="url(#pf1e5e7dfe9)" d="M 59.72 291.28 
L 450.672 291.28 
" style="fill:none;stroke:#b0b0b0;stroke-linecap:square;stroke-width:0.8;"/>
     </g>
     <g id="line2d_64">
      <defs>
       <path d="M 0 0 
L -3.5 0 
" id="md77f5ba40e" style="stroke:#000000;stroke-width:0.8;"/>
      </defs>
      <g>
       <use style="stroke:#000000;stroke-width:0.8;" x="59.72" xlink:href="#md77f5ba40e" y="291.28"/>
      </g>
     </g>
     <g id="text_4">
      <!-- 0.0 -->
      <defs>
       <path d="M 10.6875 12.40625 
L 21 12.40625 
L 21 0 
L 10.6875 0 
z
" id="DejaVuSans-2e"/>
      </defs>
      <g transform="translate(27.275 297.35875)scale(0.16 -0.16)">
       <use xlink:href="#DejaVuSans-30"/>
       <use x="63.623047" xlink:href="#DejaVuSans-2e"/>
       <use x="95.410156" xlink:href="#DejaVuSans-30"/>
      </g>
     </g>
    </g>
    <g id="ytick_2">
     <g id="line2d_65">
      <path clip-path="url(#pf1e5e7dfe9)" d="M 59.72 234.956283 
L 450.672 234.956283 
" style="fill:none;stroke:#b0b0b0;stroke-linecap:square;stroke-width:0.8;"/>
     </g>
     <g id="line2d_66">
      <g>
       <use style="stroke:#000000;stroke-width:0.8;" x="59.72" xlink:href="#md77f5ba40e" y="234.956283"/>
      </g>
     </g>
     <g id="text_5">
      <!-- 0.2 -->
      <defs>
       <path d="M 19.1875 8.296875 
L 53.609375 8.296875 
L 53.609375 0 
L 7.328125 0 
L 7.328125 8.296875 
Q 12.9375 14.109375 22.625 23.890625 
Q 32.328125 33.6875 34.8125 36.53125 
Q 39.546875 41.84375 41.421875 45.53125 
Q 43.3125 49.21875 43.3125 52.78125 
Q 43.3125 58.59375 39.234375 62.25 
Q 35.15625 65.921875 28.609375 65.921875 
Q 23.96875 65.921875 18.8125 64.3125 
Q 13.671875 62.703125 7.8125 59.421875 
L 7.8125 69.390625 
Q 13.765625 71.78125 18.9375 73 
Q 24.125 74.21875 28.421875 74.21875 
Q 39.75 74.21875 46.484375 68.546875 
Q 53.21875 62.890625 53.21875 53.421875 
Q 53.21875 48.921875 51.53125 44.890625 
Q 49.859375 40.875 45.40625 35.40625 
Q 44.1875 33.984375 37.640625 27.21875 
Q 31.109375 20.453125 19.1875 8.296875 
z
" id="DejaVuSans-32"/>
      </defs>
      <g transform="translate(27.275 241.035033)scale(0.16 -0.16)">
       <use xlink:href="#DejaVuSans-30"/>
       <use x="63.623047" xlink:href="#DejaVuSans-2e"/>
       <use x="95.410156" xlink:href="#DejaVuSans-32"/>
      </g>
     </g>
    </g>
    <g id="ytick_3">
     <g id="line2d_67">
      <path clip-path="url(#pf1e5e7dfe9)" d="M 59.72 178.632565 
L 450.672 178.632565 
" style="fill:none;stroke:#b0b0b0;stroke-linecap:square;stroke-width:0.8;"/>
     </g>
     <g id="line2d_68">
      <g>
       <use style="stroke:#000000;stroke-width:0.8;" x="59.72" xlink:href="#md77f5ba40e" y="178.632565"/>
      </g>
     </g>
     <g id="text_6">
      <!-- 0.4 -->
      <defs>
       <path d="M 37.796875 64.3125 
L 12.890625 25.390625 
L 37.796875 25.390625 
z
M 35.203125 72.90625 
L 47.609375 72.90625 
L 47.609375 25.390625 
L 58.015625 25.390625 
L 58.015625 17.1875 
L 47.609375 17.1875 
L 47.609375 0 
L 37.796875 0 
L 37.796875 17.1875 
L 4.890625 17.1875 
L 4.890625 26.703125 
z
" id="DejaVuSans-34"/>
      </defs>
      <g transform="translate(27.275 184.711315)scale(0.16 -0.16)">
       <use xlink:href="#DejaVuSans-30"/>
       <use x="63.623047" xlink:href="#DejaVuSans-2e"/>
       <use x="95.410156" xlink:href="#DejaVuSans-34"/>
      </g>
     </g>
    </g>
    <g id="ytick_4">
     <g id="line2d_69">
      <path clip-path="url(#pf1e5e7dfe9)" d="M 59.72 122.308848 
L 450.672 122.308848 
" style="fill:none;stroke:#b0b0b0;stroke-linecap:square;stroke-width:0.8;"/>
     </g>
     <g id="line2d_70">
      <g>
       <use style="stroke:#000000;stroke-width:0.8;" x="59.72" xlink:href="#md77f5ba40e" y="122.308848"/>
      </g>
     </g>
     <g id="text_7">
      <!-- 0.6 -->
      <defs>
       <path d="M 33.015625 40.375 
Q 26.375 40.375 22.484375 35.828125 
Q 18.609375 31.296875 18.609375 23.390625 
Q 18.609375 15.53125 22.484375 10.953125 
Q 26.375 6.390625 33.015625 6.390625 
Q 39.65625 6.390625 43.53125 10.953125 
Q 47.40625 15.53125 47.40625 23.390625 
Q 47.40625 31.296875 43.53125 35.828125 
Q 39.65625 40.375 33.015625 40.375 
z
M 52.59375 71.296875 
L 52.59375 62.3125 
Q 48.875 64.0625 45.09375 64.984375 
Q 41.3125 65.921875 37.59375 65.921875 
Q 27.828125 65.921875 22.671875 59.328125 
Q 17.53125 52.734375 16.796875 39.40625 
Q 19.671875 43.65625 24.015625 45.921875 
Q 28.375 48.1875 33.59375 48.1875 
Q 44.578125 48.1875 50.953125 41.515625 
Q 57.328125 34.859375 57.328125 23.390625 
Q 57.328125 12.15625 50.6875 5.359375 
Q 44.046875 -1.421875 33.015625 -1.421875 
Q 20.359375 -1.421875 13.671875 8.265625 
Q 6.984375 17.96875 6.984375 36.375 
Q 6.984375 53.65625 15.1875 63.9375 
Q 23.390625 74.21875 37.203125 74.21875 
Q 40.921875 74.21875 44.703125 73.484375 
Q 48.484375 72.75 52.59375 71.296875 
z
" id="DejaVuSans-36"/>
      </defs>
      <g transform="translate(27.275 128.387598)scale(0.16 -0.16)">
       <use xlink:href="#DejaVuSans-30"/>
       <use x="63.623047" xlink:href="#DejaVuSans-2e"/>
       <use x="95.410156" xlink:href="#DejaVuSans-36"/>
      </g>
     </g>
    </g>
    <g id="ytick_5">
     <g id="line2d_71">
      <path clip-path="url(#pf1e5e7dfe9)" d="M 59.72 65.985131 
L 450.672 65.985131 
" style="fill:none;stroke:#b0b0b0;stroke-linecap:square;stroke-width:0.8;"/>
     </g>
     <g id="line2d_72">
      <g>
       <use style="stroke:#000000;stroke-width:0.8;" x="59.72" xlink:href="#md77f5ba40e" y="65.985131"/>
      </g>
     </g>
     <g id="text_8">
      <!-- 0.8 -->
      <defs>
       <path d="M 31.78125 34.625 
Q 24.75 34.625 20.71875 30.859375 
Q 16.703125 27.09375 16.703125 20.515625 
Q 16.703125 13.921875 20.71875 10.15625 
Q 24.75 6.390625 31.78125 6.390625 
Q 38.8125 6.390625 42.859375 10.171875 
Q 46.921875 13.96875 46.921875 20.515625 
Q 46.921875 27.09375 42.890625 30.859375 
Q 38.875 34.625 31.78125 34.625 
z
M 21.921875 38.8125 
Q 15.578125 40.375 12.03125 44.71875 
Q 8.5 49.078125 8.5 55.328125 
Q 8.5 64.0625 14.71875 69.140625 
Q 20.953125 74.21875 31.78125 74.21875 
Q 42.671875 74.21875 48.875 69.140625 
Q 55.078125 64.0625 55.078125 55.328125 
Q 55.078125 49.078125 51.53125 44.71875 
Q 48 40.375 41.703125 38.8125 
Q 48.828125 37.15625 52.796875 32.3125 
Q 56.78125 27.484375 56.78125 20.515625 
Q 56.78125 9.90625 50.3125 4.234375 
Q 43.84375 -1.421875 31.78125 -1.421875 
Q 19.734375 -1.421875 13.25 4.234375 
Q 6.78125 9.90625 6.78125 20.515625 
Q 6.78125 27.484375 10.78125 32.3125 
Q 14.796875 37.15625 21.921875 38.8125 
z
M 18.3125 54.390625 
Q 18.3125 48.734375 21.84375 45.5625 
Q 25.390625 42.390625 31.78125 42.390625 
Q 38.140625 42.390625 41.71875 45.5625 
Q 45.3125 48.734375 45.3125 54.390625 
Q 45.3125 60.0625 41.71875 63.234375 
Q 38.140625 66.40625 31.78125 66.40625 
Q 25.390625 66.40625 21.84375 63.234375 
Q 18.3125 60.0625 18.3125 54.390625 
z
" id="DejaVuSans-38"/>
      </defs>
      <g transform="translate(27.275 72.063881)scale(0.16 -0.16)">
       <use xlink:href="#DejaVuSans-30"/>
       <use x="63.623047" xlink:href="#DejaVuSans-2e"/>
       <use x="95.410156" xlink:href="#DejaVuSans-38"/>
      </g>
     </g>
    </g>
    <g id="ytick_6">
     <g id="line2d_73">
      <path clip-path="url(#pf1e5e7dfe9)" d="M 59.72 9.661414 
L 450.672 9.661414 
" style="fill:none;stroke:#b0b0b0;stroke-linecap:square;stroke-width:0.8;"/>
     </g>
     <g id="line2d_74">
      <g>
       <use style="stroke:#000000;stroke-width:0.8;" x="59.72" xlink:href="#md77f5ba40e" y="9.661414"/>
      </g>
     </g>
     <g id="text_9">
      <!-- 1.0 -->
      <g transform="translate(27.275 15.740164)scale(0.16 -0.16)">
       <use xlink:href="#DejaVuSans-31"/>
       <use x="63.623047" xlink:href="#DejaVuSans-2e"/>
       <use x="95.410156" xlink:href="#DejaVuSans-30"/>
      </g>
     </g>
    </g>
    <g id="text_10">
     <!-- proportion of trials -->
     <defs>
      <path d="M 18.109375 8.203125 
L 18.109375 -20.796875 
L 9.078125 -20.796875 
L 9.078125 54.6875 
L 18.109375 54.6875 
L 18.109375 46.390625 
Q 20.953125 51.265625 25.265625 53.625 
Q 29.59375 56 35.59375 56 
Q 45.5625 56 51.78125 48.09375 
Q 58.015625 40.1875 58.015625 27.296875 
Q 58.015625 14.40625 51.78125 6.484375 
Q 45.5625 -1.421875 35.59375 -1.421875 
Q 29.59375 -1.421875 25.265625 0.953125 
Q 20.953125 3.328125 18.109375 8.203125 
z
M 48.6875 27.296875 
Q 48.6875 37.203125 44.609375 42.84375 
Q 40.53125 48.484375 33.40625 48.484375 
Q 26.265625 48.484375 22.1875 42.84375 
Q 18.109375 37.203125 18.109375 27.296875 
Q 18.109375 17.390625 22.1875 11.75 
Q 26.265625 6.109375 33.40625 6.109375 
Q 40.53125 6.109375 44.609375 11.75 
Q 48.6875 17.390625 48.6875 27.296875 
z
" id="DejaVuSans-70"/>
      <path d="M 41.109375 46.296875 
Q 39.59375 47.171875 37.8125 47.578125 
Q 36.03125 48 33.890625 48 
Q 26.265625 48 22.1875 43.046875 
Q 18.109375 38.09375 18.109375 28.8125 
L 18.109375 0 
L 9.078125 0 
L 9.078125 54.6875 
L 18.109375 54.6875 
L 18.109375 46.1875 
Q 20.953125 51.171875 25.484375 53.578125 
Q 30.03125 56 36.53125 56 
Q 37.453125 56 38.578125 55.875 
Q 39.703125 55.765625 41.0625 55.515625 
z
" id="DejaVuSans-72"/>
      <path d="M 18.3125 70.21875 
L 18.3125 54.6875 
L 36.8125 54.6875 
L 36.8125 47.703125 
L 18.3125 47.703125 
L 18.3125 18.015625 
Q 18.3125 11.328125 20.140625 9.421875 
Q 21.96875 7.515625 27.59375 7.515625 
L 36.8125 7.515625 
L 36.8125 0 
L 27.59375 0 
Q 17.1875 0 13.234375 3.875 
Q 9.28125 7.765625 9.28125 18.015625 
L 9.28125 47.703125 
L 2.6875 47.703125 
L 2.6875 54.6875 
L 9.28125 54.6875 
L 9.28125 70.21875 
z
" id="DejaVuSans-74"/>
      <path d="M 9.421875 54.6875 
L 18.40625 54.6875 
L 18.40625 0 
L 9.421875 0 
z
M 9.421875 75.984375 
L 18.40625 75.984375 
L 18.40625 64.59375 
L 9.421875 64.59375 
z
" id="DejaVuSans-69"/>
      <path d="M 54.890625 33.015625 
L 54.890625 0 
L 45.90625 0 
L 45.90625 32.71875 
Q 45.90625 40.484375 42.875 44.328125 
Q 39.84375 48.1875 33.796875 48.1875 
Q 26.515625 48.1875 22.3125 43.546875 
Q 18.109375 38.921875 18.109375 30.90625 
L 18.109375 0 
L 9.078125 0 
L 9.078125 54.6875 
L 18.109375 54.6875 
L 18.109375 46.1875 
Q 21.34375 51.125 25.703125 53.5625 
Q 30.078125 56 35.796875 56 
Q 45.21875 56 50.046875 50.171875 
Q 54.890625 44.34375 54.890625 33.015625 
z
" id="DejaVuSans-6e"/>
     </defs>
     <g transform="translate(19.115625 242.290739)rotate(-90)scale(0.2 -0.2)">
      <use xlink:href="#DejaVuSans-70"/>
      <use x="63.476562" xlink:href="#DejaVuSans-72"/>
      <use x="104.558594" xlink:href="#DejaVuSans-6f"/>
      <use x="165.740234" xlink:href="#DejaVuSans-70"/>
      <use x="229.216797" xlink:href="#DejaVuSans-6f"/>
      <use x="290.398438" xlink:href="#DejaVuSans-72"/>
      <use x="331.511719" xlink:href="#DejaVuSans-74"/>
      <use x="370.720703" xlink:href="#DejaVuSans-69"/>
      <use x="398.503906" xlink:href="#DejaVuSans-6f"/>
      <use x="459.685547" xlink:href="#DejaVuSans-6e"/>
      <use x="523.064453" xlink:href="#DejaVuSans-20"/>
      <use x="554.851562" xlink:href="#DejaVuSans-6f"/>
      <use x="616.033203" xlink:href="#DejaVuSans-66"/>
      <use x="651.238281" xlink:href="#DejaVuSans-20"/>
      <use x="683.025391" xlink:href="#DejaVuSans-74"/>
      <use x="722.234375" xlink:href="#DejaVuSans-72"/>
      <use x="763.347656" xlink:href="#DejaVuSans-69"/>
      <use x="791.130859" xlink:href="#DejaVuSans-61"/>
      <use x="852.410156" xlink:href="#DejaVuSans-6c"/>
      <use x="880.193359" xlink:href="#DejaVuSans-73"/>
     </g>
    </g>
   </g>
   <g id="line2d_75">
    <path clip-path="url(#pf1e5e7dfe9)" d="M 17.863063 291.28 
L 17.863063 287.525086 
L 112.853714 287.525086 
L 112.853714 283.770171 
L 118.234143 283.770171 
L 118.234143 280.015257 
L 138.417438 280.015257 
L 138.417438 276.260342 
L 154.710651 276.260342 
L 154.710651 272.505428 
L 156.939427 272.505428 
L 156.939427 268.750513 
L 156.939427 268.750513 
L 156.939427 264.995599 
L 159.064501 264.995599 
L 159.064501 261.240684 
L 161.095095 261.240684 
L 161.095095 257.48577 
L 173.232641 257.48577 
L 173.232641 253.730855 
L 174.730508 253.730855 
L 174.730508 249.975941 
L 181.561244 249.975941 
L 181.561244 246.221026 
L 182.812853 246.221026 
L 182.812853 242.466112 
L 197.472189 242.466112 
L 197.472189 238.711197 
L 204.896192 238.711197 
L 204.896192 234.956283 
L 325.013426 234.956283 
L 325.013426 231.201368 
L 332.678373 231.201368 
L 332.678373 227.446454 
L 377.256607 227.446454 
L 377.256607 223.691539 
L 377.256607 223.691539 
L 377.256607 223.691539 
L 450.672 223.691539 
" style="fill:none;stroke:#000000;stroke-linecap:square;stroke-width:1.5;"/>
   </g>
   <g id="line2d_76">
    <path clip-path="url(#pf1e5e7dfe9)" style="fill:none;stroke:#000000;stroke-linecap:square;stroke-width:1.5;"/>
   </g>
   <g id="line2d_77">
    <path clip-path="url(#pf1e5e7dfe9)" d="M 261.466176 291.28 
L 261.466176 287.525086 
L 262.123465 287.525086 
L 262.123465 283.770171 
L 276.073558 283.770171 
L 276.073558 280.015257 
L 287.996891 280.015257 
L 287.996891 276.260342 
L 319.968057 276.260342 
L 319.968057 272.505428 
L 322.006649 272.505428 
L 322.006649 268.750513 
L 322.006649 268.750513 
L 322.006649 268.750513 
L 450.672 268.750513 
" style="fill:none;stroke:#00bfbf;stroke-linecap:square;stroke-width:1.5;"/>
   </g>
   <g id="line2d_78">
    <path clip-path="url(#pf1e5e7dfe9)" style="fill:none;stroke:#00bfbf;stroke-linecap:square;stroke-width:1.5;"/>
   </g>
   <g id="line2d_79"/>
   <g id="line2d_80"/>
   <g id="line2d_81">
    <path clip-path="url(#pf1e5e7dfe9)" d="M 450.672 291.28 
L 450.672 6.845228 
" style="fill:none;stroke:#000000;stroke-linecap:square;stroke-width:1.5;"/>
   </g>
   <g id="patch_3">
    <path d="M 59.72 291.28 
L 59.72 6.845228 
" style="fill:none;stroke:#000000;stroke-linecap:square;stroke-linejoin:miter;stroke-width:0.8;"/>
   </g>
   <g id="patch_4">
    <path d="M 450.672 291.28 
L 450.672 6.845228 
" style="fill:none;stroke:#000000;stroke-linecap:square;stroke-linejoin:miter;stroke-width:0.8;"/>
   </g>
   <g id="patch_5">
    <path d="M 59.72 291.28 
L 450.672 291.28 
" style="fill:none;stroke:#000000;stroke-linecap:square;stroke-linejoin:miter;stroke-width:0.8;"/>
   </g>
   <g id="patch_6">
    <path d="M 59.72 6.845228 
L 450.672 6.845228 
" style="fill:none;stroke:#000000;stroke-linecap:square;stroke-linejoin:miter;stroke-width:0.8;"/>
   </g>
   <g id="text_11">
    <!-- {f10-f14}, 5-D -->
    <defs>
     <path d="M 51.125 -9.28125 
L 51.125 -16.3125 
L 48.09375 -16.3125 
Q 35.9375 -16.3125 31.8125 -12.6875 
Q 27.6875 -9.078125 27.6875 1.703125 
L 27.6875 13.375 
Q 27.6875 20.75 25.046875 23.578125 
Q 22.40625 26.421875 15.484375 26.421875 
L 12.5 26.421875 
L 12.5 33.40625 
L 15.484375 33.40625 
Q 22.46875 33.40625 25.078125 36.203125 
Q 27.6875 39.015625 27.6875 46.296875 
L 27.6875 58.015625 
Q 27.6875 68.796875 31.8125 72.390625 
Q 35.9375 75.984375 48.09375 75.984375 
L 51.125 75.984375 
L 51.125 69 
L 47.796875 69 
Q 40.921875 69 38.8125 66.84375 
Q 36.71875 64.703125 36.71875 57.8125 
L 36.71875 45.703125 
Q 36.71875 38.03125 34.5 34.5625 
Q 32.28125 31.109375 26.90625 29.890625 
Q 32.328125 28.5625 34.515625 25.09375 
Q 36.71875 21.625 36.71875 14.015625 
L 36.71875 1.90625 
Q 36.71875 -4.984375 38.8125 -7.125 
Q 40.921875 -9.28125 47.796875 -9.28125 
z
" id="DejaVuSans-7b"/>
     <path d="M 4.890625 31.390625 
L 31.203125 31.390625 
L 31.203125 23.390625 
L 4.890625 23.390625 
z
" id="DejaVuSans-2d"/>
     <path d="M 12.5 -9.28125 
L 15.921875 -9.28125 
Q 22.75 -9.28125 24.828125 -7.171875 
Q 26.90625 -5.078125 26.90625 1.90625 
L 26.90625 14.015625 
Q 26.90625 21.625 29.09375 25.09375 
Q 31.296875 28.5625 36.71875 29.890625 
Q 31.296875 31.109375 29.09375 34.5625 
Q 26.90625 38.03125 26.90625 45.703125 
L 26.90625 57.8125 
Q 26.90625 64.75 24.828125 66.875 
Q 22.75 69 15.921875 69 
L 12.5 69 
L 12.5 75.984375 
L 15.578125 75.984375 
Q 27.734375 75.984375 31.8125 72.390625 
Q 35.890625 68.796875 35.890625 58.015625 
L 35.890625 46.296875 
Q 35.890625 39.015625 38.515625 36.203125 
Q 41.15625 33.40625 48.09375 33.40625 
L 51.125 33.40625 
L 51.125 26.421875 
L 48.09375 26.421875 
Q 41.15625 26.421875 38.515625 23.578125 
Q 35.890625 20.75 35.890625 13.375 
L 35.890625 1.703125 
Q 35.890625 -9.078125 31.8125 -12.6875 
Q 27.734375 -16.3125 15.578125 -16.3125 
L 12.5 -16.3125 
z
" id="DejaVuSans-7d"/>
     <path d="M 11.71875 12.40625 
L 22.015625 12.40625 
L 22.015625 4 
L 14.015625 -11.625 
L 7.71875 -11.625 
L 11.71875 4 
z
" id="DejaVuSans-2c"/>
     <path d="M 10.796875 72.90625 
L 49.515625 72.90625 
L 49.515625 64.59375 
L 19.828125 64.59375 
L 19.828125 46.734375 
Q 21.96875 47.46875 24.109375 47.828125 
Q 26.265625 48.1875 28.421875 48.1875 
Q 40.625 48.1875 47.75 41.5 
Q 54.890625 34.8125 54.890625 23.390625 
Q 54.890625 11.625 47.5625 5.09375 
Q 40.234375 -1.421875 26.90625 -1.421875 
Q 22.3125 -1.421875 17.546875 -0.640625 
Q 12.796875 0.140625 7.71875 1.703125 
L 7.71875 11.625 
Q 12.109375 9.234375 16.796875 8.0625 
Q 21.484375 6.890625 26.703125 6.890625 
Q 35.15625 6.890625 40.078125 11.328125 
Q 45.015625 15.765625 45.015625 23.390625 
Q 45.015625 31 40.078125 35.4375 
Q 35.15625 39.890625 26.703125 39.890625 
Q 22.75 39.890625 18.8125 39.015625 
Q 14.890625 38.140625 10.796875 36.28125 
z
" id="DejaVuSans-35"/>
    </defs>
    <g transform="translate(182.346 27.730798)scale(0.2 -0.2)">
     <use xlink:href="#DejaVuSans-7b"/>
     <use x="63.623047" xlink:href="#DejaVuSans-66"/>
     <use x="98.828125" xlink:href="#DejaVuSans-31"/>
     <use x="162.451172" xlink:href="#DejaVuSans-30"/>
     <use x="226.074219" xlink:href="#DejaVuSans-2d"/>
     <use x="262.158203" xlink:href="#DejaVuSans-66"/>
     <use x="297.363281" xlink:href="#DejaVuSans-31"/>
     <use x="360.986328" xlink:href="#DejaVuSans-34"/>
     <use x="424.609375" xlink:href="#DejaVuSans-7d"/>
     <use x="488.232422" xlink:href="#DejaVuSans-2c"/>
     <use x="520.019531" xlink:href="#DejaVuSans-20"/>
     <use x="551.806641" xlink:href="#DejaVuSans-35"/>
     <use x="615.429688" xlink:href="#DejaVuSans-2d"/>
     <use x="651.513672" xlink:href="#DejaVuSans-44"/>
    </g>
   </g>
   <g id="text_12">
    <!-- absolute targets -->
    <defs>
     <path d="M 48.6875 27.296875 
Q 48.6875 37.203125 44.609375 42.84375 
Q 40.53125 48.484375 33.40625 48.484375 
Q 26.265625 48.484375 22.1875 42.84375 
Q 18.109375 37.203125 18.109375 27.296875 
Q 18.109375 17.390625 22.1875 11.75 
Q 26.265625 6.109375 33.40625 6.109375 
Q 40.53125 6.109375 44.609375 11.75 
Q 48.6875 17.390625 48.6875 27.296875 
z
M 18.109375 46.390625 
Q 20.953125 51.265625 25.265625 53.625 
Q 29.59375 56 35.59375 56 
Q 45.5625 56 51.78125 48.09375 
Q 58.015625 40.1875 58.015625 27.296875 
Q 58.015625 14.40625 51.78125 6.484375 
Q 45.5625 -1.421875 35.59375 -1.421875 
Q 29.59375 -1.421875 25.265625 0.953125 
Q 20.953125 3.328125 18.109375 8.203125 
L 18.109375 0 
L 9.078125 0 
L 9.078125 75.984375 
L 18.109375 75.984375 
z
" id="DejaVuSans-62"/>
     <path d="M 8.5 21.578125 
L 8.5 54.6875 
L 17.484375 54.6875 
L 17.484375 21.921875 
Q 17.484375 14.15625 20.5 10.265625 
Q 23.53125 6.390625 29.59375 6.390625 
Q 36.859375 6.390625 41.078125 11.03125 
Q 45.3125 15.671875 45.3125 23.6875 
L 45.3125 54.6875 
L 54.296875 54.6875 
L 54.296875 0 
L 45.3125 0 
L 45.3125 8.40625 
Q 42.046875 3.421875 37.71875 1 
Q 33.40625 -1.421875 27.6875 -1.421875 
Q 18.265625 -1.421875 13.375 4.4375 
Q 8.5 10.296875 8.5 21.578125 
z
M 31.109375 56 
z
" id="DejaVuSans-75"/>
     <path d="M 56.203125 29.59375 
L 56.203125 25.203125 
L 14.890625 25.203125 
Q 15.484375 15.921875 20.484375 11.0625 
Q 25.484375 6.203125 34.421875 6.203125 
Q 39.59375 6.203125 44.453125 7.46875 
Q 49.3125 8.734375 54.109375 11.28125 
L 54.109375 2.78125 
Q 49.265625 0.734375 44.1875 -0.34375 
Q 39.109375 -1.421875 33.890625 -1.421875 
Q 20.796875 -1.421875 13.15625 6.1875 
Q 5.515625 13.8125 5.515625 26.8125 
Q 5.515625 40.234375 12.765625 48.109375 
Q 20.015625 56 32.328125 56 
Q 43.359375 56 49.78125 48.890625 
Q 56.203125 41.796875 56.203125 29.59375 
z
M 47.21875 32.234375 
Q 47.125 39.59375 43.09375 43.984375 
Q 39.0625 48.390625 32.421875 48.390625 
Q 24.90625 48.390625 20.390625 44.140625 
Q 15.875 39.890625 15.1875 32.171875 
z
" id="DejaVuSans-65"/>
    </defs>
    <g transform="translate(59.72 601.060445)scale(0.14 -0.14)">
     <use xlink:href="#DejaVuSans-61"/>
     <use x="61.279297" xlink:href="#DejaVuSans-62"/>
     <use x="124.755859" xlink:href="#DejaVuSans-73"/>
     <use x="176.855469" xlink:href="#DejaVuSans-6f"/>
     <use x="238.037109" xlink:href="#DejaVuSans-6c"/>
     <use x="265.820312" xlink:href="#DejaVuSans-75"/>
     <use x="329.199219" xlink:href="#DejaVuSans-74"/>
     <use x="368.408203" xlink:href="#DejaVuSans-65"/>
     <use x="429.931641" xlink:href="#DejaVuSans-20"/>
     <use x="461.71875" xlink:href="#DejaVuSans-74"/>
     <use x="500.927734" xlink:href="#DejaVuSans-61"/>
     <use x="562.207031" xlink:href="#DejaVuSans-72"/>
     <use x="603.304688" xlink:href="#DejaVuSans-67"/>
     <use x="666.78125" xlink:href="#DejaVuSans-65"/>
     <use x="728.304688" xlink:href="#DejaVuSans-74"/>
     <use x="767.513672" xlink:href="#DejaVuSans-73"/>
    </g>
   </g>
   <g id="text_13">
    <!-- v2.2.1.10 -->
    <g style="fill:#808080;" transform="translate(231.563188 286.355965)scale(0.1 -0.1)">
     <use xlink:href="#DejaVuSans-76"/>
     <use x="59.179688" xlink:href="#DejaVuSans-32"/>
     <use x="122.802734" xlink:href="#DejaVuSans-2e"/>
     <use x="154.589844" xlink:href="#DejaVuSans-32"/>
     <use x="218.212891" xlink:href="#DejaVuSans-2e"/>
     <use x="250" xlink:href="#DejaVuSans-31"/>
     <use x="313.623047" xlink:href="#DejaVuSans-2e"/>
     <use x="345.410156" xlink:href="#DejaVuSans-31"/>
     <use x="409.033203" xlink:href="#DejaVuSans-30"/>
    </g>
   </g>
   <g id="legend_1">
    <g id="patch_7">
     <path d="M 73.72 140.270228 
L 202.941875 140.270228 
Q 206.941875 140.270228 206.941875 136.270228 
L 206.941875 20.845228 
Q 206.941875 16.845228 202.941875 16.845228 
L 73.72 16.845228 
Q 69.72 16.845228 69.72 20.845228 
L 69.72 136.270228 
Q 69.72 140.270228 73.72 140.270228 
z
" style="fill:#ffffff;opacity:0.2;stroke:#cccccc;stroke-linejoin:miter;"/>
    </g>
    <g id="line2d_82">
     <path d="M 77.72 33.042103 
L 117.72 33.042103 
" style="fill:none;stroke:#000000;stroke-linecap:square;stroke-width:1.5;"/>
    </g>
    <g id="line2d_83"/>
    <g id="text_14">
     <!-- 1: 2/5 -->
     <defs>
      <path d="M 11.71875 12.40625 
L 22.015625 12.40625 
L 22.015625 0 
L 11.71875 0 
z
M 11.71875 51.703125 
L 22.015625 51.703125 
L 22.015625 39.3125 
L 11.71875 39.3125 
z
" id="DejaVuSans-3a"/>
     </defs>
     <g transform="translate(133.72 40.042103)scale(0.2 -0.2)">
      <use xlink:href="#DejaVuSans-31"/>
      <use x="63.623047" xlink:href="#DejaVuSans-3a"/>
      <use x="97.314453" xlink:href="#DejaVuSans-20"/>
      <use x="129.101562" xlink:href="#DejaVuSans-32"/>
      <use x="192.724609" xlink:href="#DejaVuSans-2f"/>
      <use x="226.416016" xlink:href="#DejaVuSans-35"/>
     </g>
    </g>
    <g id="line2d_84">
     <path d="M 77.72 62.398353 
L 117.72 62.398353 
" style="fill:none;stroke:#00bfbf;stroke-linecap:square;stroke-width:1.5;"/>
    </g>
    <g id="line2d_85"/>
    <g id="text_15">
     <!-- -1: 1/5 -->
     <g transform="translate(133.72 69.398353)scale(0.2 -0.2)">
      <use xlink:href="#DejaVuSans-2d"/>
      <use x="36.083984" xlink:href="#DejaVuSans-31"/>
      <use x="99.707031" xlink:href="#DejaVuSans-3a"/>
      <use x="133.398438" xlink:href="#DejaVuSans-20"/>
      <use x="165.185547" xlink:href="#DejaVuSans-31"/>
      <use x="228.808594" xlink:href="#DejaVuSans-2f"/>
      <use x="262.5" xlink:href="#DejaVuSans-35"/>
     </g>
    </g>
    <g id="line2d_86">
     <path d="M 77.72 91.754603 
L 117.72 91.754603 
" style="fill:none;stroke:#bf00bf;stroke-linecap:square;stroke-width:1.5;"/>
    </g>
    <g id="line2d_87"/>
    <g id="text_16">
     <!-- -4: 0/5 -->
     <g transform="translate(133.72 98.754603)scale(0.2 -0.2)">
      <use xlink:href="#DejaVuSans-2d"/>
      <use x="36.083984" xlink:href="#DejaVuSans-34"/>
      <use x="99.707031" xlink:href="#DejaVuSans-3a"/>
      <use x="133.398438" xlink:href="#DejaVuSans-20"/>
      <use x="165.185547" xlink:href="#DejaVuSans-30"/>
      <use x="228.808594" xlink:href="#DejaVuSans-2f"/>
      <use x="262.5" xlink:href="#DejaVuSans-35"/>
     </g>
    </g>
    <g id="line2d_88">
     <path d="M 77.72 121.110853 
L 117.72 121.110853 
" style="fill:none;stroke:#ff0000;stroke-linecap:square;stroke-width:3;"/>
    </g>
    <g id="line2d_89"/>
    <g id="text_17">
     <!-- -8: 0/5 -->
     <g transform="translate(133.72 128.110853)scale(0.2 -0.2)">
      <use xlink:href="#DejaVuSans-2d"/>
      <use x="36.083984" xlink:href="#DejaVuSans-38"/>
      <use x="99.707031" xlink:href="#DejaVuSans-3a"/>
      <use x="133.398438" xlink:href="#DejaVuSans-20"/>
      <use x="165.185547" xlink:href="#DejaVuSans-30"/>
      <use x="228.808594" xlink:href="#DejaVuSans-2f"/>
      <use x="262.5" xlink:href="#DejaVuSans-35"/>
     </g>
    </g>
   </g>
  </g>
 </g>
 <defs>
  <clipPath id="pf1e5e7dfe9">
   <rect height="284.434772" width="390.952" x="59.72" y="6.845228"/>
  </clipPath>
 </defs>
</svg>
