<?xml version="1.0" encoding="utf-8" standalone="no"?>
<!DOCTYPE svg PUBLIC "-//W3C//DTD SVG 1.1//EN"
  "http://www.w3.org/Graphics/SVG/1.1/DTD/svg11.dtd">
<!-- Created with matplotlib (http://matplotlib.org/) -->
<svg height="345.6pt" version="1.1" viewBox="0 0 460.8 345.6" width="460.8pt" xmlns="http://www.w3.org/2000/svg" xmlns:xlink="http://www.w3.org/1999/xlink">
 <defs>
  <style type="text/css">
*{stroke-linecap:butt;stroke-linejoin:round;}
  </style>
 </defs>
 <g id="figure_1">
  <g id="patch_1">
   <path d="M 0 345.6 
L 460.8 345.6 
L 460.8 0 
L 0 0 
z
" style="fill:#ffffff;"/>
  </g>
  <g id="axes_1">
   <g id="patch_2">
    <path d="M 59.72 291.28 
L 450.672 291.28 
L 450.672 6.845228 
L 59.72 6.845228 
z
" style="fill:#ffffff;"/>
   </g>
   <g id="line2d_1">
    <path clip-path="url(#p4c738587a3)" d="M 283.457472 291.28 
L 283.457472 286.586357 
L 284.201366 286.586357 
L 284.201366 281.892714 
L 286.041994 281.892714 
L 286.041994 277.199071 
L 287.500355 277.199071 
L 287.500355 272.505428 
L 290.577059 272.505428 
L 290.577059 267.811784 
L 292.182072 267.811784 
L 292.182072 263.118141 
L 293.841365 263.118141 
L 293.841365 258.424498 
L 294.381334 258.424498 
L 294.381334 253.730855 
L 294.702279 253.730855 
L 294.702279 249.037212 
L 294.861909 249.037212 
L 294.861909 244.343569 
L 295.020983 244.343569 
L 295.020983 239.649926 
L 296.015792 239.649926 
L 296.015792 234.956283 
L 296.376907 234.956283 
L 296.376907 230.26264 
L 296.376907 230.26264 
L 296.376907 225.568997 
L 297.593783 225.568997 
L 297.593783 220.875353 
L 298.436536 220.875353 
L 298.436536 216.18171 
L 298.681474 216.18171 
L 298.681474 211.488067 
L 298.730304 211.488067 
L 298.730304 206.794424 
L 300.17146 206.794424 
L 300.17146 202.100781 
L 301.476716 202.100781 
L 301.476716 197.407138 
L 304.067331 197.407138 
L 304.067331 192.713495 
L 314.881765 192.713495 
L 314.881765 188.019852 
L 316.925767 188.019852 
L 316.925767 183.326209 
L 317.121963 183.326209 
L 317.121963 178.632565 
L 324.544334 178.632565 
L 324.544334 173.938922 
L 325.613422 173.938922 
L 325.613422 169.245279 
L 340.626268 169.245279 
L 340.626268 164.551636 
L 353.831176 164.551636 
L 353.831176 159.857993 
L 368.962981 159.857993 
L 368.962981 155.16435 
L 368.962981 155.16435 
L 368.962981 155.16435 
L 450.672 155.16435 
" style="fill:none;stroke:#f5deb3;stroke-linecap:square;stroke-width:1.5;"/>
   </g>
   <g id="line2d_2">
    <path clip-path="url(#p4c738587a3)" d="M 443.528738 291.28 
L 443.528738 277.199071 
L 461.8 277.199071 
" style="fill:none;stroke:#f5deb3;stroke-linecap:square;stroke-width:1.5;"/>
   </g>
   <g id="line2d_3">
    <path clip-path="url(#p4c738587a3)" d="M 193.741068 291.28 
L 193.741068 286.586357 
L 236.938838 286.586357 
L 236.938838 281.892714 
L 237.127213 281.892714 
L 237.127213 277.199071 
L 238.057609 277.199071 
L 238.057609 272.505428 
L 240.391519 272.505428 
L 240.391519 267.811784 
L 241.940171 267.811784 
L 241.940171 263.118141 
L 243.601476 263.118141 
L 243.601476 258.424498 
L 245.518436 258.424498 
L 245.518436 253.730855 
L 246.600605 253.730855 
L 246.600605 249.037212 
L 246.905145 249.037212 
L 246.905145 244.343569 
L 247.207668 244.343569 
L 247.207668 239.649926 
L 248.398116 239.649926 
L 248.398116 234.956283 
L 249.126693 234.956283 
L 249.126693 230.26264 
L 250.829282 230.26264 
L 250.829282 225.568997 
L 252.336134 225.568997 
L 252.336134 220.875353 
L 252.336134 220.875353 
L 252.336134 216.18171 
L 256.085747 216.18171 
L 256.085747 211.488067 
L 256.33334 211.488067 
L 256.33334 206.794424 
L 257.551568 206.794424 
L 257.551568 202.100781 
L 259.32008 202.100781 
L 259.32008 197.407138 
L 261.13395 197.407138 
L 261.13395 192.713495 
L 266.179719 192.713495 
L 266.179719 188.019852 
L 266.477315 188.019852 
L 266.477315 183.326209 
L 266.674641 183.326209 
L 266.674641 178.632565 
L 266.674641 178.632565 
L 266.674641 173.938922 
L 267.261555 173.938922 
L 267.261555 169.245279 
L 276.313353 169.245279 
L 276.313353 164.551636 
L 283.593629 164.551636 
L 283.593629 159.857993 
L 283.864733 159.857993 
L 283.864733 155.16435 
L 290.107932 155.16435 
L 290.107932 150.470707 
L 290.751747 150.470707 
L 290.751747 145.777064 
L 292.125711 145.777064 
L 292.125711 141.083421 
L 292.741894 141.083421 
L 292.741894 136.389777 
L 293.184863 136.389777 
L 293.184863 131.696134 
L 294.861909 131.696134 
L 294.861909 127.002491 
L 296.376907 127.002491 
L 296.376907 122.308848 
L 296.837043 122.308848 
L 296.837043 117.615205 
L 307.294188 117.615205 
L 307.294188 112.921562 
L 312.956972 112.921562 
L 312.956972 108.227919 
L 313.631109 108.227919 
L 313.631109 103.534276 
L 314.641249 103.534276 
L 314.641249 98.840633 
L 320.697993 98.840633 
L 320.697993 94.14699 
L 356.759259 94.14699 
L 356.759259 89.453346 
L 362.819678 89.453346 
L 362.819678 84.759703 
L 368.318611 84.759703 
L 368.318611 80.06606 
L 396.822149 80.06606 
L 396.822149 75.372417 
L 396.93601 75.372417 
L 396.93601 70.678774 
L 414.376337 70.678774 
L 414.376337 65.985131 
L 444.854378 65.985131 
L 444.854378 61.291488 
L 446.301137 61.291488 
L 446.301137 56.597845 
L 451.78244 56.597845 
L 451.78244 51.904202 
L 453.535156 51.904202 
L 453.535156 47.210558 
L 456.145469 47.210558 
L 456.145469 42.516915 
L 457.154691 42.516915 
L 457.154691 37.823272 
L 461.8 37.823272 
" style="fill:none;stroke:#f5deb3;stroke-linecap:square;stroke-width:1.5;"/>
   </g>
   <g id="line2d_4">
    <path clip-path="url(#p4c738587a3)" d="M 249.126693 291.28 
L 249.126693 286.586357 
L 297.141245 286.586357 
L 297.141245 281.892714 
L 298.436536 281.892714 
L 298.436536 277.199071 
L 306.188457 277.199071 
L 306.188457 272.505428 
L 307.091432 272.505428 
L 307.091432 267.811784 
L 307.334631 267.811784 
L 307.334631 263.118141 
L 307.81718 263.118141 
L 307.81718 258.424498 
L 307.976903 258.424498 
L 307.976903 253.730855 
L 308.056556 253.730855 
L 308.056556 249.037212 
L 308.09633 249.037212 
L 308.09633 244.343569 
L 308.45275 244.343569 
L 308.45275 239.649926 
L 308.688827 239.649926 
L 308.688827 234.956283 
L 308.845537 234.956283 
L 308.845537 230.26264 
L 310.421557 230.26264 
L 310.421557 225.568997 
L 310.722834 225.568997 
L 310.722834 220.875353 
L 313.912007 220.875353 
L 313.912007 216.18171 
L 315.528284 216.18171 
L 315.528284 211.488067 
L 316.99126 211.488067 
L 316.99126 206.794424 
L 317.673318 206.794424 
L 317.673318 202.100781 
L 317.866336 202.100781 
L 317.866336 197.407138 
L 318.976304 197.407138 
L 318.976304 192.713495 
L 319.101457 192.713495 
L 319.101457 188.019852 
L 319.319653 188.019852 
L 319.319653 183.326209 
L 320.05994 183.326209 
L 320.05994 178.632565 
L 321.505466 178.632565 
L 321.505466 173.938922 
L 321.564715 173.938922 
L 321.564715 169.245279 
L 324.014291 169.245279 
L 324.014291 164.551636 
L 324.903484 164.551636 
L 324.903484 159.857993 
L 326.285804 159.857993 
L 326.285804 155.16435 
L 326.312495 155.16435 
L 326.312495 150.470707 
L 326.631571 150.470707 
L 326.631571 145.777064 
L 329.730199 145.777064 
L 329.730199 141.083421 
L 331.92949 141.083421 
L 331.92949 136.389777 
L 333.255013 136.389777 
L 333.255013 131.696134 
L 334.609957 131.696134 
L 334.609957 127.002491 
L 335.969085 127.002491 
L 335.969085 122.308848 
L 336.012261 122.308848 
L 336.012261 117.615205 
L 339.938438 117.615205 
L 339.938438 112.921562 
L 340.450384 112.921562 
L 340.450384 108.227919 
L 341.76281 108.227919 
L 341.76281 103.534276 
L 344.674107 103.534276 
L 344.674107 98.840633 
L 349.191568 98.840633 
L 349.191568 94.14699 
L 351.998034 94.14699 
L 351.998034 89.453346 
L 355.013638 89.453346 
L 355.013638 84.759703 
L 359.044112 84.759703 
L 359.044112 80.06606 
L 359.070171 80.06606 
L 359.070171 75.372417 
L 360.455711 75.372417 
L 360.455711 70.678774 
L 360.757984 70.678774 
L 360.757984 65.985131 
L 363.273386 65.985131 
L 363.273386 61.291488 
L 364.376728 61.291488 
L 364.376728 56.597845 
L 366.195564 56.597845 
L 366.195564 51.904202 
L 366.980041 51.904202 
L 366.980041 47.210558 
L 367.783575 47.210558 
L 367.783575 42.516915 
L 383.402336 42.516915 
L 383.402336 37.823272 
L 385.981509 37.823272 
L 385.981509 33.129629 
L 395.544725 33.129629 
L 395.544725 28.435986 
L 401.509532 28.435986 
L 401.509532 23.742343 
L 404.803629 23.742343 
L 404.803629 19.0487 
L 420.27778 19.0487 
L 420.27778 14.355057 
L 432.200836 14.355057 
L 432.200836 9.661414 
L 432.200836 9.661414 
L 432.200836 9.661414 
L 450.672 9.661414 
" style="fill:none;stroke:#f5deb3;stroke-linecap:square;stroke-width:1.5;"/>
   </g>
   <g id="line2d_5"/>
   <g id="line2d_6"/>
   <g id="line2d_7">
    <path clip-path="url(#p4c738587a3)" d="M 287.687189 291.28 
L 287.687189 286.586357 
L 290.693592 286.586357 
L 290.693592 281.892714 
L 292.630477 281.892714 
L 292.630477 277.199071 
L 329.081879 277.199071 
L 329.081879 272.505428 
L 330.467002 272.505428 
L 330.467002 267.811784 
L 331.359659 267.811784 
L 331.359659 263.118141 
L 332.445663 263.118141 
L 332.445663 258.424498 
L 333.1862 258.424498 
L 333.1862 253.730855 
L 333.232087 253.730855 
L 333.232087 249.037212 
L 334.027743 249.037212 
L 334.027743 244.343569 
L 334.29738 244.343569 
L 334.29738 239.649926 
L 334.632203 239.649926 
L 334.632203 234.956283 
L 334.632203 234.956283 
L 334.632203 230.26264 
L 334.986663 230.26264 
L 334.986663 225.568997 
L 335.206812 225.568997 
L 335.206812 220.875353 
L 335.360288 220.875353 
L 335.360288 216.18171 
L 335.404043 216.18171 
L 335.404043 211.488067 
L 335.469598 211.488067 
L 335.469598 206.794424 
L 335.687438 206.794424 
L 335.687438 202.100781 
L 335.990678 202.100781 
L 335.990678 197.407138 
L 336.07695 197.407138 
L 336.07695 192.713495 
L 336.548554 192.713495 
L 336.548554 188.019852 
L 337.351847 188.019852 
L 337.351847 183.326209 
L 337.477401 183.326209 
L 337.477401 178.632565 
L 337.644272 178.632565 
L 337.644272 173.938922 
L 338.551322 173.938922 
L 338.551322 169.245279 
L 338.592127 169.245279 
L 338.592127 164.551636 
L 338.632895 164.551636 
L 338.632895 159.857993 
L 339.340513 159.857993 
L 339.340513 155.16435 
L 341.034049 155.16435 
L 341.034049 150.470707 
L 343.827307 150.470707 
L 343.827307 145.777064 
L 344.081191 145.777064 
L 344.081191 141.083421 
L 345.993691 141.083421 
L 345.993691 136.389777 
L 347.979021 136.389777 
L 347.979021 131.696134 
L 348.326406 131.696134 
L 348.326406 127.002491 
L 348.458051 127.002491 
L 348.458051 122.308848 
L 348.687521 122.308848 
L 348.687521 117.615205 
L 350.135785 117.615205 
L 350.135785 112.921562 
L 350.780628 112.921562 
L 350.780628 108.227919 
L 351.091912 108.227919 
L 351.091912 103.534276 
L 352.18015 103.534276 
L 352.18015 98.840633 
L 353.918743 98.840633 
L 353.918743 94.14699 
L 373.918371 94.14699 
L 373.918371 89.453346 
L 377.50959 89.453346 
L 377.50959 84.759703 
L 382.11503 84.759703 
L 382.11503 80.06606 
L 383.638768 80.06606 
L 383.638768 75.372417 
L 390.772781 75.372417 
L 390.772781 70.678774 
L 391.897586 70.678774 
L 391.897586 65.985131 
L 396.63938 65.985131 
L 396.63938 61.291488 
L 403.067099 61.291488 
L 403.067099 56.597845 
L 412.587341 56.597845 
L 412.587341 51.904202 
L 414.236391 51.904202 
L 414.236391 47.210558 
L 423.264951 47.210558 
L 423.264951 42.516915 
L 433.298942 42.516915 
L 433.298942 37.823272 
L 438.367942 37.823272 
L 438.367942 33.129629 
L 441.267452 33.129629 
L 441.267452 28.435986 
L 459.265792 28.435986 
L 459.265792 23.742343 
L 461.8 23.742343 
" style="fill:none;stroke:#f5deb3;stroke-linecap:square;stroke-width:1.5;"/>
   </g>
   <g id="line2d_8">
    <path clip-path="url(#p4c738587a3)" d="M 433.17051 291.28 
L 433.17051 286.586357 
L 433.365585 286.586357 
L 433.365585 281.892714 
L 435.877057 281.892714 
L 435.877057 277.199071 
L 437.276047 277.199071 
L 437.276047 272.505428 
L 437.463754 272.505428 
L 437.463754 267.811784 
L 438.220785 267.811784 
L 438.220785 263.118141 
L 438.491738 263.118141 
L 438.491738 258.424498 
L 440.485189 258.424498 
L 440.485189 253.730855 
L 441.900759 253.730855 
L 441.900759 249.037212 
L 442.224701 249.037212 
L 442.224701 244.343569 
L 442.395273 244.343569 
L 442.395273 239.649926 
L 442.963445 239.649926 
L 442.963445 234.956283 
L 444.240799 234.956283 
L 444.240799 230.26264 
L 461.8 230.26264 
" style="fill:none;stroke:#f5deb3;stroke-linecap:square;stroke-width:1.5;"/>
   </g>
   <g id="line2d_9">
    <path clip-path="url(#p4c738587a3)" d="M 257.791363 291.28 
L 257.791363 286.586357 
L 278.03441 286.586357 
L 278.03441 281.892714 
L 289.633937 281.892714 
L 289.633937 277.199071 
L 308.056556 277.199071 
L 308.056556 272.505428 
L 310.910127 272.505428 
L 310.910127 267.811784 
L 311.651716 267.811784 
L 311.651716 263.118141 
L 312.634137 263.118141 
L 312.634137 258.424498 
L 312.813771 258.424498 
L 312.813771 253.730855 
L 320.029333 253.730855 
L 320.029333 249.037212 
L 321.386737 249.037212 
L 321.386737 244.343569 
L 324.238217 244.343569 
L 324.238217 239.649926 
L 324.405444 239.649926 
L 324.405444 234.956283 
L 324.682803 234.956283 
L 324.682803 230.26264 
L 327.001031 230.26264 
L 327.001031 225.568997 
L 327.027307 225.568997 
L 327.027307 220.875353 
L 327.653439 220.875353 
L 327.653439 216.18171 
L 327.911815 216.18171 
L 327.911815 211.488067 
L 328.091813 211.488067 
L 328.091813 206.794424 
L 328.168739 206.794424 
L 328.168739 202.100781 
L 328.373242 202.100781 
L 328.373242 197.407138 
L 328.62759 197.407138 
L 328.62759 192.713495 
L 328.855299 192.713495 
L 328.855299 188.019852 
L 328.905747 188.019852 
L 328.905747 183.326209 
L 330.198219 183.326209 
L 330.198219 178.632565 
L 330.467002 178.632565 
L 330.467002 173.938922 
L 330.637227 173.938922 
L 330.637227 169.245279 
L 331.407417 169.245279 
L 331.407417 164.551636 
L 331.83501 164.551636 
L 331.83501 159.857993 
L 332.164837 159.857993 
L 332.164837 155.16435 
L 333.117282 155.16435 
L 333.117282 150.470707 
L 333.163239 150.470707 
L 333.163239 145.777064 
L 333.323724 145.777064 
L 333.323724 141.083421 
L 333.369473 141.083421 
L 333.369473 136.389777 
L 334.072793 136.389777 
L 334.072793 131.696134 
L 334.27497 131.696134 
L 334.27497 127.002491 
L 334.787618 127.002491 
L 334.787618 122.308848 
L 335.904243 122.308848 
L 335.904243 117.615205 
L 336.463169 117.615205 
L 336.463169 112.921562 
L 336.505881 112.921562 
L 336.505881 108.227919 
L 337.078623 108.227919 
L 337.078623 103.534276 
L 337.393737 103.534276 
L 337.393737 98.840633 
L 337.581767 98.840633 
L 337.581767 94.14699 
L 338.058802 94.14699 
L 338.058802 89.453346 
L 338.469604 89.453346 
L 338.469604 84.759703 
L 339.500726 84.759703 
L 339.500726 80.06606 
L 340.096572 80.06606 
L 340.096572 75.372417 
L 340.273821 75.372417 
L 340.273821 70.678774 
L 340.801477 70.678774 
L 340.801477 65.985131 
L 341.667582 65.985131 
L 341.667582 61.291488 
L 343.223223 61.291488 
L 343.223223 56.597845 
L 343.754509 56.597845 
L 343.754509 51.904202 
L 347.174937 51.904202 
L 347.174937 47.210558 
L 347.293085 47.210558 
L 347.293085 42.516915 
L 347.326785 42.516915 
L 347.326785 37.823272 
L 350.545764 37.823272 
L 350.545764 33.129629 
L 353.831176 33.129629 
L 353.831176 28.435986 
L 357.547114 28.435986 
L 357.547114 23.742343 
L 358.611984 23.742343 
L 358.611984 19.0487 
L 375.979234 19.0487 
L 375.979234 14.355057 
L 380.064053 14.355057 
L 380.064053 9.661414 
L 380.064053 9.661414 
L 380.064053 9.661414 
L 450.672 9.661414 
" style="fill:none;stroke:#f5deb3;stroke-linecap:square;stroke-width:1.5;"/>
   </g>
   <g id="line2d_10">
    <path clip-path="url(#p4c738587a3)" d="M 404.118862 291.28 
L 404.118862 286.586357 
L 422.037655 286.586357 
L 422.037655 281.892714 
L 430.021429 281.892714 
L 430.021429 277.199071 
L 438.802043 277.199071 
L 438.802043 272.505428 
L 445.96608 272.505428 
L 445.96608 267.811784 
L 452.101369 267.811784 
L 452.101369 263.118141 
L 458.35009 263.118141 
L 458.35009 258.424498 
L 459.558331 258.424498 
L 459.558331 253.730855 
L 460.405039 253.730855 
L 460.405039 249.037212 
L 461.8 249.037212 
" style="fill:none;stroke:#f5deb3;stroke-linecap:square;stroke-width:1.5;"/>
   </g>
   <g id="line2d_11">
    <path clip-path="url(#p4c738587a3)" d="M 259.32008 291.28 
L 259.32008 286.586357 
L 299.934402 286.586357 
L 299.934402 281.892714 
L 302.296534 281.892714 
L 302.296534 277.199071 
L 303.543262 277.199071 
L 303.543262 272.505428 
L 308.334252 272.505428 
L 308.334252 267.811784 
L 309.851252 267.811784 
L 309.851252 263.118141 
L 313.170934 263.118141 
L 313.170934 258.424498 
L 313.348473 258.424498 
L 313.348473 253.730855 
L 315.562059 253.730855 
L 315.562059 249.037212 
L 316.065712 249.037212 
L 316.065712 244.343569 
L 317.089322 244.343569 
L 317.089322 239.649926 
L 317.673318 239.649926 
L 317.673318 234.956283 
L 327.289239 234.956283 
L 327.289239 230.26264 
L 333.552014 230.26264 
L 333.552014 225.568997 
L 342.629716 225.568997 
L 342.629716 220.875353 
L 342.778818 220.875353 
L 342.778818 216.18171 
L 362.325043 216.18171 
L 362.325043 211.488067 
L 461.8 211.488067 
" style="fill:none;stroke:#f5deb3;stroke-linecap:square;stroke-width:1.5;"/>
   </g>
   <g id="line2d_12">
    <path clip-path="url(#p4c738587a3)" d="M 244.08831 291.28 
L 244.08831 286.586357 
L 249.558327 286.586357 
L 249.558327 281.892714 
L 251.245196 281.892714 
L 251.245196 277.199071 
L 252.065832 277.199071 
L 252.065832 272.505428 
L 252.065832 272.505428 
L 252.065832 267.811784 
L 255.208447 267.811784 
L 255.208447 263.118141 
L 256.702232 263.118141 
L 256.702232 258.424498 
L 256.702232 258.424498 
L 256.702232 253.730855 
L 257.431197 253.730855 
L 257.431197 249.037212 
L 259.550792 249.037212 
L 259.550792 244.343569 
L 260.236017 244.343569 
L 260.236017 239.649926 
L 261.576383 239.649926 
L 261.576383 234.956283 
L 261.576383 234.956283 
L 261.576383 230.26264 
L 267.744955 230.26264 
L 267.744955 225.568997 
L 268.318362 225.568997 
L 268.318362 220.875353 
L 268.318362 220.875353 
L 268.318362 216.18171 
L 268.884661 216.18171 
L 268.884661 211.488067 
L 271.082159 211.488067 
L 271.082159 206.794424 
L 271.615405 206.794424 
L 271.615405 202.100781 
L 272.663577 202.100781 
L 272.663577 197.407138 
L 274.192075 197.407138 
L 274.192075 192.713495 
L 278.49275 192.713495 
L 278.49275 188.019852 
L 279.840808 188.019852 
L 279.840808 183.326209 
L 287.562718 183.326209 
L 287.562718 178.632565 
L 290.460229 178.632565 
L 290.460229 173.938922 
L 293.514294 173.938922 
L 293.514294 169.245279 
L 293.514294 169.245279 
L 293.514294 164.551636 
L 293.841365 164.551636 
L 293.841365 159.857993 
L 298.485628 159.857993 
L 298.485628 155.16435 
L 332.562166 155.16435 
L 332.562166 150.470707 
L 344.638391 150.470707 
L 344.638391 145.777064 
L 387.836752 145.777064 
L 387.836752 141.083421 
L 417.191134 141.083421 
L 417.191134 136.389777 
L 453.03502 136.389777 
L 453.03502 131.696134 
L 457.232226 131.696134 
L 457.232226 127.002491 
L 461.8 127.002491 
" style="fill:none;stroke:#f5deb3;stroke-linecap:square;stroke-width:1.5;"/>
   </g>
   <g id="line2d_13">
    <path clip-path="url(#p4c738587a3)" d="M 355.551399 291.28 
L 355.551399 286.586357 
L 359.316989 286.586357 
L 359.316989 281.892714 
L 368.180103 281.892714 
L 368.180103 277.199071 
L 368.180103 277.199071 
L 368.180103 272.505428 
L 375.052318 272.505428 
L 375.052318 267.811784 
L 379.551152 267.811784 
L 379.551152 263.118141 
L 379.551152 263.118141 
L 379.551152 258.424498 
L 394.907225 258.424498 
L 394.907225 253.730855 
L 394.907225 253.730855 
L 394.907225 249.037212 
L 397.292827 249.037212 
L 397.292827 244.343569 
L 397.292827 244.343569 
L 397.292827 239.649926 
L 400.924502 239.649926 
L 400.924502 234.956283 
L 402.622452 234.956283 
L 402.622452 230.26264 
L 402.992461 230.26264 
L 402.992461 225.568997 
L 406.940232 225.568997 
L 406.940232 220.875353 
L 406.940232 220.875353 
L 406.940232 220.875353 
L 450.672 220.875353 
" style="fill:none;stroke:#f5deb3;stroke-linecap:square;stroke-width:1.5;"/>
   </g>
   <g id="line2d_14">
    <path clip-path="url(#p4c738587a3)" d="M 279.618876 291.28 
L 279.618876 286.586357 
L 284.06701 286.586357 
L 284.06701 281.892714 
L 296.938669 281.892714 
L 296.938669 277.199071 
L 300.641916 277.199071 
L 300.641916 272.505428 
L 303.762355 272.505428 
L 303.762355 267.811784 
L 305.351788 267.811784 
L 305.351788 263.118141 
L 308.016747 263.118141 
L 308.016747 258.424498 
L 311.356524 258.424498 
L 311.356524 253.730855 
L 312.921214 253.730855 
L 312.921214 249.037212 
L 316.7945 249.037212 
L 316.7945 244.343569 
L 316.99126 244.343569 
L 316.99126 239.649926 
L 317.511845 239.649926 
L 317.511845 234.956283 
L 318.598774 234.956283 
L 318.598774 230.26264 
L 320.878669 230.26264 
L 320.878669 225.568997 
L 323.136058 225.568997 
L 323.136058 220.875353 
L 328.398741 220.875353 
L 328.398741 216.18171 
L 330.001742 216.18171 
L 330.001742 211.488067 
L 331.240044 211.488067 
L 331.240044 206.794424 
L 335.513249 206.794424 
L 335.513249 202.100781 
L 339.540692 202.100781 
L 339.540692 197.407138 
L 344.674107 197.407138 
L 344.674107 192.713495 
L 344.92334 192.713495 
L 344.92334 188.019852 
L 345.34746 188.019852 
L 345.34746 183.326209 
L 349.977115 183.326209 
L 349.977115 178.632565 
L 350.262325 178.632565 
L 350.262325 173.938922 
L 350.967653 173.938922 
L 350.967653 169.245279 
L 357.086918 169.245279 
L 357.086918 164.551636 
L 362.215744 164.551636 
L 362.215744 159.857993 
L 366.095154 159.857993 
L 366.095154 155.16435 
L 370.225078 155.16435 
L 370.225078 150.470707 
L 372.494164 150.470707 
L 372.494164 145.777064 
L 375.889187 145.777064 
L 375.889187 141.083421 
L 378.448123 141.083421 
L 378.448123 136.389777 
L 385.611446 136.389777 
L 385.611446 131.696134 
L 388.299329 131.696134 
L 388.299329 127.002491 
L 394.043145 127.002491 
L 394.043145 122.308848 
L 399.902305 122.308848 
L 399.902305 117.615205 
L 404.563683 117.615205 
L 404.563683 112.921562 
L 451.700216 112.921562 
L 451.700216 108.227919 
L 452.108167 108.227919 
L 452.108167 103.534276 
L 456.996172 103.534276 
L 456.996172 98.840633 
L 461.8 98.840633 
" style="fill:none;stroke:#f5deb3;stroke-linecap:square;stroke-width:1.5;"/>
   </g>
   <g id="line2d_15">
    <path clip-path="url(#p4c738587a3)" style="fill:none;stroke:#f5deb3;stroke-linecap:square;stroke-width:1.5;"/>
   </g>
   <g id="line2d_16">
    <path clip-path="url(#p4c738587a3)" d="M 430.123282 291.28 
L 430.123282 286.586357 
L 431.218186 286.586357 
L 431.218186 281.892714 
L 440.875822 281.892714 
L 440.875822 277.199071 
L 441.042837 277.199071 
L 441.042837 272.505428 
L 443.561533 272.505428 
L 443.561533 267.811784 
L 443.957305 267.811784 
L 443.957305 263.118141 
L 449.27427 263.118141 
L 449.27427 258.424498 
L 449.35556 258.424498 
L 449.35556 253.730855 
L 461.8 253.730855 
" style="fill:none;stroke:#f5deb3;stroke-linecap:square;stroke-width:1.5;"/>
   </g>
   <g id="line2d_17">
    <path clip-path="url(#p4c738587a3)" d="M 360.164144 291.28 
L 360.164144 286.586357 
L 380.187282 286.586357 
L 380.187282 281.892714 
L 382.012668 281.892714 
L 382.012668 277.199071 
L 383.279827 277.199071 
L 383.279827 272.505428 
L 385.50203 272.505428 
L 385.50203 267.811784 
L 385.727867 267.811784 
L 385.727867 263.118141 
L 385.909184 263.118141 
L 385.909184 258.424498 
L 386.918548 258.424498 
L 386.918548 253.730855 
L 388.065174 253.730855 
L 388.065174 249.037212 
L 388.723253 249.037212 
L 388.723253 244.343569 
L 388.791261 244.343569 
L 388.791261 239.649926 
L 389.646266 239.649926 
L 389.646266 234.956283 
L 394.662862 234.956283 
L 394.662862 230.26264 
L 395.315541 230.26264 
L 395.315541 225.568997 
L 404.298278 225.568997 
L 404.298278 220.875353 
L 407.687741 220.875353 
L 407.687741 216.18171 
L 419.911331 216.18171 
L 419.911331 211.488067 
L 422.763771 211.488067 
L 422.763771 206.794424 
L 425.579307 206.794424 
L 425.579307 202.100781 
L 426.665783 202.100781 
L 426.665783 197.407138 
L 427.099703 197.407138 
L 427.099703 192.713495 
L 427.456724 192.713495 
L 427.456724 188.019852 
L 427.773358 188.019852 
L 427.773358 183.326209 
L 429.302031 183.326209 
L 429.302031 178.632565 
L 429.645089 178.632565 
L 429.645089 173.938922 
L 429.67842 173.938922 
L 429.67842 169.245279 
L 429.830879 169.245279 
L 429.830879 164.551636 
L 431.113367 164.551636 
L 431.113367 159.857993 
L 431.820908 159.857993 
L 431.820908 155.16435 
L 432.10615 155.16435 
L 432.10615 150.470707 
L 432.601077 150.470707 
L 432.601077 145.777064 
L 433.054611 145.777064 
L 433.054611 141.083421 
L 433.206507 141.083421 
L 433.206507 136.389777 
L 433.872462 136.389777 
L 433.872462 131.696134 
L 433.905379 131.696134 
L 433.905379 127.002491 
L 434.648541 127.002491 
L 434.648541 122.308848 
L 435.372453 122.308848 
L 435.372453 117.615205 
L 435.927939 117.615205 
L 435.927939 112.921562 
L 437.869374 112.921562 
L 437.869374 108.227919 
L 438.31741 108.227919 
L 438.31741 103.534276 
L 438.967739 103.534276 
L 438.967739 98.840633 
L 439.646904 98.840633 
L 439.646904 94.14699 
L 439.802895 94.14699 
L 439.802895 89.453346 
L 440.927944 89.453346 
L 440.927944 84.759703 
L 444.712744 84.759703 
L 444.712744 80.06606 
L 461.8 80.06606 
" style="fill:none;stroke:#f5deb3;stroke-linecap:square;stroke-width:1.5;"/>
   </g>
   <g id="line2d_18">
    <path clip-path="url(#p4c738587a3)" d="M 249.126693 291.28 
L 249.126693 286.586357 
L 249.271025 286.586357 
L 249.271025 281.892714 
L 250.829282 281.892714 
L 250.829282 277.199071 
L 253.137572 277.199071 
L 253.137572 272.505428 
L 255.586498 272.505428 
L 255.586498 267.811784 
L 256.085747 267.811784 
L 256.085747 263.118141 
L 256.702232 263.118141 
L 256.702232 258.424498 
L 257.791363 258.424498 
L 257.791363 253.730855 
L 258.971813 253.730855 
L 258.971813 249.037212 
L 260.008749 249.037212 
L 260.008749 244.343569 
L 261.355702 244.343569 
L 261.355702 239.649926 
L 261.576383 239.649926 
L 261.576383 234.956283 
L 263.83136 234.956283 
L 263.83136 230.26264 
L 264.455709 230.26264 
L 264.455709 225.568997 
L 264.661943 225.568997 
L 264.661943 220.875353 
L 266.674641 220.875353 
L 266.674641 216.18171 
L 266.674641 216.18171 
L 266.674641 211.488067 
L 267.841024 211.488067 
L 267.841024 206.794424 
L 268.978365 206.794424 
L 268.978365 202.100781 
L 271.2606 202.100781 
L 271.2606 197.407138 
L 273.17878 197.407138 
L 273.17878 192.713495 
L 278.11112 192.713495 
L 278.11112 188.019852 
L 285.196631 188.019852 
L 285.196631 183.326209 
L 291.329263 183.326209 
L 291.329263 178.632565 
L 292.462841 178.632565 
L 292.462841 173.938922 
L 298.485628 173.938922 
L 298.485628 169.245279 
L 301.888464 169.245279 
L 301.888464 164.551636 
L 302.024892 164.551636 
L 302.024892 159.857993 
L 311.208209 159.857993 
L 311.208209 155.16435 
L 315.1551 155.16435 
L 315.1551 150.470707 
L 325.095709 150.470707 
L 325.095709 145.777064 
L 346.733409 145.777064 
L 346.733409 141.083421 
L 353.860384 141.083421 
L 353.860384 136.389777 
L 362.300777 136.389777 
L 362.300777 131.696134 
L 363.699097 131.696134 
L 363.699097 127.002491 
L 365.555875 127.002491 
L 365.555875 122.308848 
L 366.284632 122.308848 
L 366.284632 117.615205 
L 368.350515 117.615205 
L 368.350515 112.921562 
L 368.941998 112.921562 
L 368.941998 108.227919 
L 370.762684 108.227919 
L 370.762684 103.534276 
L 371.799571 103.534276 
L 371.799571 98.840633 
L 375.033954 98.840633 
L 375.033954 94.14699 
L 377.063749 94.14699 
L 377.063749 89.453346 
L 381.080943 89.453346 
L 381.080943 84.759703 
L 400.130855 84.759703 
L 400.130855 80.06606 
L 400.130855 80.06606 
L 400.130855 80.06606 
L 450.672 80.06606 
" style="fill:none;stroke:#f5deb3;stroke-linecap:square;stroke-width:1.5;"/>
   </g>
   <g id="line2d_19">
    <path clip-path="url(#p4c738587a3)" d="M 413.105102 291.28 
L 413.105102 286.586357 
L 413.829675 286.586357 
L 413.829675 281.892714 
L 417.735306 281.892714 
L 417.735306 277.199071 
L 423.143375 277.199071 
L 423.143375 272.505428 
L 427.090889 272.505428 
L 427.090889 267.811784 
L 429.50037 267.811784 
L 429.50037 263.118141 
L 429.750555 263.118141 
L 429.753327 253.730855 
L 430.596521 253.730855 
L 430.596521 249.037212 
L 430.824546 249.037212 
L 430.824546 244.343569 
L 432.274345 244.343569 
L 432.274345 239.649926 
L 433.83445 239.649926 
L 433.83445 234.956283 
L 440.106659 234.956283 
L 440.106659 230.26264 
L 445.499118 230.26264 
L 445.499118 225.568997 
L 446.649077 225.568997 
L 446.649077 220.875353 
L 461.8 220.875353 
L 461.8 220.875353 
" style="fill:none;stroke:#f5deb3;stroke-linecap:square;stroke-width:1.5;"/>
   </g>
   <g id="line2d_20">
    <path clip-path="url(#p4c738587a3)" d="M 267.936891 291.28 
L 267.936891 286.586357 
L 272.05507 286.586357 
L 272.05507 281.892714 
L 273.772597 281.892714 
L 273.772597 277.199071 
L 277.26014 277.199071 
L 277.26014 272.505428 
L 278.568695 272.505428 
L 278.568695 267.811784 
L 279.32128 267.811784 
L 279.32128 263.118141 
L 279.76695 263.118141 
L 279.76695 258.424498 
L 280.281462 258.424498 
L 280.281462 253.730855 
L 281.64947 253.730855 
L 281.64947 249.037212 
L 282.143322 249.037212 
L 282.143322 244.343569 
L 285.912952 244.343569 
L 285.912952 239.649926 
L 286.490792 239.649926 
L 286.490792 234.956283 
L 287.562718 234.956283 
L 287.562718 230.26264 
L 288.549117 230.26264 
L 288.549117 225.568997 
L 288.610065 225.568997 
L 288.610065 220.875353 
L 289.335174 220.875353 
L 289.335174 216.18171 
L 289.454914 216.18171 
L 289.454914 211.488067 
L 293.019252 211.488067 
L 293.019252 206.794424 
L 295.179506 206.794424 
L 295.179506 202.100781 
L 298.041882 202.100781 
L 298.041882 197.407138 
L 299.886843 197.407138 
L 299.886843 192.713495 
L 304.154094 192.713495 
L 304.154094 188.019852 
L 304.628368 188.019852 
L 304.628368 183.326209 
L 312.018044 183.326209 
L 312.018044 178.632565 
L 313.946998 178.632565 
L 313.946998 173.938922 
L 316.431559 173.938922 
L 316.431559 169.245279 
L 319.070201 169.245279 
L 319.070201 164.551636 
L 321.594311 164.551636 
L 321.594311 159.857993 
L 327.5237 159.857993 
L 327.5237 155.16435 
L 330.709986 155.16435 
L 330.709986 150.470707 
L 367.697385 150.470707 
L 367.697385 145.777064 
L 374.442368 145.777064 
L 374.442368 141.083421 
L 380.080503 141.083421 
L 380.080503 136.389777 
L 395.456713 136.389777 
L 395.456713 131.696134 
L 397.931495 131.696134 
L 397.931495 127.002491 
L 410.813624 127.002491 
L 410.813624 122.308848 
L 423.959381 122.308848 
L 423.959381 117.615205 
L 424.977008 117.615205 
L 424.977008 112.921562 
L 427.415896 112.921562 
L 427.415896 108.227919 
L 439.094442 108.227919 
L 439.094442 103.534276 
L 440.022605 103.534276 
L 440.022605 98.840633 
L 445.144252 98.840633 
L 445.144252 94.14699 
L 445.915512 94.14699 
L 445.915512 89.453346 
L 450.506865 89.453346 
L 450.506865 84.759703 
L 451.440582 84.759703 
L 451.440582 80.06606 
L 453.159738 80.06606 
L 453.159738 75.372417 
L 459.41664 75.372417 
L 459.41664 70.678774 
L 461.8 70.678774 
" style="fill:none;stroke:#f5deb3;stroke-linecap:square;stroke-width:1.5;"/>
   </g>
   <g id="line2d_21"/>
   <g id="line2d_22">
    <path clip-path="url(#p4c738587a3)" d="M 259.088197 291.28 
L 259.088197 286.586357 
L 262.123465 286.586357 
L 262.123465 281.892714 
L 262.340477 281.892714 
L 262.340477 277.199071 
L 266.871118 277.199071 
L 266.871118 272.505428 
L 271.967475 272.505428 
L 271.967475 267.811784 
L 272.316852 267.811784 
L 272.316852 263.118141 
L 273.349231 263.118141 
L 273.349231 258.424498 
L 275.01965 258.424498 
L 275.01965 253.730855 
L 276.631134 253.730855 
L 276.631134 249.037212 
L 279.171752 249.037212 
L 279.171752 244.343569 
L 280.354493 244.343569 
L 280.354493 239.649926 
L 284.734871 239.649926 
L 284.734871 234.956283 
L 284.93334 234.956283 
L 284.93334 230.26264 
L 291.156773 230.26264 
L 291.156773 225.568997 
L 295.808151 225.568997 
L 295.808151 220.875353 
L 298.338191 220.875353 
L 298.338191 216.18171 
L 298.876483 216.18171 
L 298.876483 211.488067 
L 300.313106 211.488067 
L 300.313106 206.794424 
L 302.476734 206.794424 
L 302.476734 202.100781 
L 303.323113 202.100781 
L 303.323113 197.407138 
L 304.585456 197.407138 
L 304.585456 192.713495 
L 306.105476 192.713495 
L 306.105476 188.019852 
L 308.294684 188.019852 
L 308.294684 183.326209 
L 331.740335 183.326209 
L 331.740335 178.632565 
L 332.117865 178.632565 
L 332.117865 173.938922 
L 343.626832 173.938922 
L 343.626832 169.245279 
L 347.158034 169.245279 
L 347.158034 164.551636 
L 349.43348 164.551636 
L 349.43348 159.857993 
L 350.811852 159.857993 
L 350.811852 155.16435 
L 351.860968 155.16435 
L 351.860968 150.470707 
L 352.737149 150.470707 
L 352.737149 145.777064 
L 354.942406 145.777064 
L 354.942406 141.083421 
L 356.387812 141.083421 
L 356.387812 136.389777 
L 358.414202 136.389777 
L 358.414202 131.696134 
L 370.010301 131.696134 
L 370.010301 127.002491 
L 370.326998 127.002491 
L 370.326998 122.308848 
L 373.833593 122.308848 
L 373.833593 117.615205 
L 375.272114 117.615205 
L 375.272114 112.921562 
L 380.334719 112.921562 
L 380.334719 108.227919 
L 383.21077 108.227919 
L 383.21077 103.534276 
L 384.825156 103.534276 
L 384.825156 98.840633 
L 387.165682 98.840633 
L 387.165682 94.14699 
L 387.996076 94.14699 
L 387.996076 89.453346 
L 389.271227 89.453346 
L 389.271227 84.759703 
L 392.037051 84.759703 
L 392.037051 80.06606 
L 406.101267 80.06606 
L 406.101267 75.372417 
L 461.8 75.372417 
" style="fill:none;stroke:#f5deb3;stroke-linecap:square;stroke-width:1.5;"/>
   </g>
   <g id="line2d_23">
    <path clip-path="url(#p4c738587a3)" d="M 381.09703 291.28 
L 381.09703 286.586357 
L 401.929424 286.586357 
L 401.929424 281.892714 
L 419.656169 281.892714 
L 419.656169 277.199071 
L 426.881783 277.199071 
L 426.881783 272.505428 
L 427.228787 272.505428 
L 427.228787 267.811784 
L 427.474211 267.811784 
L 427.474211 263.118141 
L 427.642904 263.118141 
L 427.642904 258.424498 
L 427.808083 258.424498 
L 427.808083 253.730855 
L 428.727315 253.730855 
L 428.727315 249.037212 
L 429.321624 249.037212 
L 429.321624 244.343569 
L 429.656202 244.343569 
L 429.656202 239.649926 
L 429.988347 239.649926 
L 429.988347 234.956283 
L 430.916519 234.956283 
L 430.916519 230.26264 
L 431.823557 230.26264 
L 431.823557 225.568997 
L 431.974315 225.568997 
L 431.974315 220.875353 
L 432.723326 220.875353 
L 432.723326 216.18171 
L 433.682088 216.18171 
L 433.682088 211.488067 
L 438.280624 211.488067 
L 438.280624 206.794424 
L 461.8 206.794424 
" style="fill:none;stroke:#f5deb3;stroke-linecap:square;stroke-width:1.5;"/>
   </g>
   <g id="line2d_24">
    <path clip-path="url(#p4c738587a3)" d="M 286.234876 291.28 
L 286.234876 286.586357 
L 289.034443 286.586357 
L 289.034443 281.892714 
L 289.989894 281.892714 
L 289.989894 277.199071 
L 298.779082 277.199071 
L 298.779082 272.505428 
L 298.876483 272.505428 
L 298.876483 267.811784 
L 301.933985 267.811784 
L 301.933985 263.118141 
L 305.604401 263.118141 
L 305.604401 258.424498 
L 310.421557 258.424498 
L 310.421557 253.730855 
L 323.563118 253.730855 
L 323.563118 249.037212 
L 328.322202 249.037212 
L 328.322202 244.343569 
L 331.526595 244.343569 
L 331.526595 239.649926 
L 339.36057 239.649926 
L 339.36057 234.956283 
L 349.449562 234.956283 
L 349.449562 230.26264 
L 356.786654 230.26264 
L 356.786654 225.568997 
L 356.991593 225.568997 
L 356.991593 220.875353 
L 357.533645 220.875353 
L 357.533645 216.18171 
L 357.560579 216.18171 
L 357.560579 211.488067 
L 362.008575 211.488067 
L 362.008575 206.794424 
L 363.070968 206.794424 
L 363.070968 202.100781 
L 363.213944 202.100781 
L 363.213944 197.407138 
L 365.34064 197.407138 
L 365.34064 192.713495 
L 367.535338 192.713495 
L 367.535338 188.019852 
L 367.589418 188.019852 
L 367.589418 183.326209 
L 368.307972 183.326209 
L 368.307972 178.632565 
L 368.4567 178.632565 
L 368.4567 173.938922 
L 368.962981 173.938922 
L 368.962981 169.245279 
L 369.650081 169.245279 
L 369.650081 164.551636 
L 370.499743 164.551636 
L 370.499743 159.857993 
L 370.903644 159.857993 
L 370.903644 155.16435 
L 372.977052 155.16435 
L 372.977052 150.470707 
L 373.130505 150.470707 
L 373.130505 145.777064 
L 373.197479 145.777064 
L 373.197479 141.083421 
L 373.52139 141.083421 
L 373.52139 136.389777 
L 374.171763 136.389777 
L 374.171763 131.696134 
L 374.553876 131.696134 
L 374.553876 127.002491 
L 375.317772 127.002491 
L 375.317772 122.308848 
L 375.472669 122.308848 
L 375.472669 117.615205 
L 375.490857 117.615205 
L 375.490857 112.921562 
L 376.158797 112.921562 
L 376.158797 108.227919 
L 378.973488 108.227919 
L 378.973488 103.534276 
L 380.879368 103.534276 
L 380.879368 98.840633 
L 381.193437 98.840633 
L 381.193437 94.14699 
L 382.326897 94.14699 
L 382.326897 89.453346 
L 383.103141 89.453346 
L 383.103141 84.759703 
L 384.198256 84.759703 
L 384.198256 80.06606 
L 385.120682 80.06606 
L 385.120682 75.372417 
L 385.201618 75.372417 
L 385.201618 70.678774 
L 389.096049 70.678774 
L 389.096049 65.985131 
L 390.057927 65.985131 
L 390.057927 61.291488 
L 391.200253 61.291488 
L 391.200253 56.597845 
L 392.005391 56.597845 
L 392.005391 51.904202 
L 392.933335 51.904202 
L 392.933335 47.210558 
L 393.199444 47.210558 
L 393.199444 42.516915 
L 393.347298 42.516915 
L 393.347298 37.823272 
L 393.513065 37.823272 
L 393.513065 33.129629 
L 393.52532 33.129629 
L 393.52532 28.435986 
L 423.255365 28.435986 
L 423.255365 23.742343 
L 424.45391 23.742343 
L 424.45391 19.0487 
L 424.770342 19.0487 
L 424.770342 14.355057 
L 449.265229 14.355057 
L 449.265229 9.661414 
L 449.265229 9.661414 
L 449.265229 9.661414 
L 450.672 9.661414 
" style="fill:none;stroke:#f5deb3;stroke-linecap:square;stroke-width:1.5;"/>
   </g>
   <g id="line2d_25">
    <path clip-path="url(#p4c738587a3)" d="M 457.554632 291.28 
L 457.554632 286.586357 
L 458.527618 286.586357 
L 458.527618 281.892714 
L 459.96505 281.892714 
L 459.96505 277.199071 
L 461.386375 277.199071 
L 461.386375 272.505428 
L 461.8 272.505428 
" style="fill:none;stroke:#f5deb3;stroke-linecap:square;stroke-width:1.5;"/>
   </g>
   <g id="line2d_26">
    <path clip-path="url(#p4c738587a3)" d="M 360.26577 291.28 
L 360.26577 286.586357 
L 362.55493 286.586357 
L 362.55493 281.892714 
L 364.780833 281.892714 
L 364.780833 277.199071 
L 370.762684 277.199071 
L 370.762684 272.505428 
L 371.224212 272.505428 
L 371.224212 267.811784 
L 371.313969 267.811784 
L 371.313969 263.118141 
L 371.572278 263.118141 
L 371.572278 258.424498 
L 371.621785 258.424498 
L 371.621785 253.730855 
L 372.025738 253.730855 
L 372.025738 249.037212 
L 372.484454 249.037212 
L 372.484454 244.343569 
L 373.034658 244.343569 
L 373.034658 239.649926 
L 373.063433 239.649926 
L 373.063433 234.956283 
L 373.340664 234.956283 
L 373.340664 230.26264 
L 373.720312 230.26264 
L 373.720312 225.568997 
L 373.833593 225.568997 
L 373.833593 220.875353 
L 373.890129 220.875353 
L 373.890129 216.18171 
L 374.04055 216.18171 
L 374.04055 211.488067 
L 374.859125 211.488067 
L 374.859125 206.794424 
L 379.517863 206.794424 
L 379.517863 202.100781 
L 379.55947 202.100781 
L 379.55947 197.407138 
L 379.617657 197.407138 
L 379.617657 192.713495 
L 379.849666 192.713495 
L 379.849666 188.019852 
L 380.055826 188.019852 
L 380.055826 183.326209 
L 380.367418 183.326209 
L 380.367418 178.632565 
L 380.457221 178.632565 
L 380.457221 173.938922 
L 380.563124 173.938922 
L 380.563124 169.245279 
L 380.701243 169.245279 
L 380.701243 164.551636 
L 380.709355 164.551636 
L 380.709355 159.857993 
L 380.838946 159.857993 
L 380.838946 155.16435 
L 380.863203 155.16435 
L 380.863203 150.470707 
L 381.233547 150.470707 
L 381.233547 145.777064 
L 381.281632 145.777064 
L 381.281632 141.083421 
L 381.377651 141.083421 
L 381.377651 136.389777 
L 381.409612 136.389777 
L 381.409612 131.696134 
L 381.513332 131.696134 
L 381.513332 127.002491 
L 381.735934 127.002491 
L 381.735934 122.308848 
L 382.701141 122.308848 
L 382.701141 117.615205 
L 382.817466 117.615205 
L 382.817466 112.921562 
L 382.887119 112.921562 
L 382.887119 108.227919 
L 382.94122 108.227919 
L 382.94122 103.534276 
L 382.956666 103.534276 
L 382.956666 98.840633 
L 383.310485 98.840633 
L 383.310485 94.14699 
L 387.878368 94.14699 
L 387.878368 89.453346 
L 388.29246 89.453346 
L 388.29246 84.759703 
L 395.415583 84.759703 
L 395.415583 80.06606 
L 395.515406 80.06606 
L 395.515406 75.372417 
L 401.637957 75.372417 
L 401.637957 70.678774 
L 409.247026 70.678774 
L 409.247026 65.985131 
L 409.429056 65.985131 
L 409.429056 61.291488 
L 409.47229 61.291488 
L 409.47229 56.597845 
L 412.502496 56.597845 
L 412.502496 51.904202 
L 414.762843 51.904202 
L 414.762843 47.210558 
L 434.847338 47.210558 
L 434.847338 42.516915 
L 461.8 42.516915 
" style="fill:none;stroke:#f5deb3;stroke-linecap:square;stroke-width:1.5;"/>
   </g>
   <g id="line2d_27">
    <path clip-path="url(#p4c738587a3)" d="M 306.6832 291.28 
L 306.6832 286.586357 
L 325.559201 286.586357 
L 325.559201 281.892714 
L 329.457032 281.892714 
L 329.457032 277.199071 
L 334.40926 277.199071 
L 334.40926 272.505428 
L 336.697594 272.505428 
L 336.697594 267.811784 
L 338.24412 267.811784 
L 338.24412 263.118141 
L 343.590287 263.118141 
L 343.590287 258.424498 
L 344.351652 258.424498 
L 344.351652 253.730855 
L 345.382626 253.730855 
L 345.382626 249.037212 
L 346.235847 249.037212 
L 346.235847 244.343569 
L 347.394111 244.343569 
L 347.394111 239.649926 
L 349.738073 239.649926 
L 349.738073 234.956283 
L 350.624186 234.956283 
L 350.624186 230.26264 
L 351.308556 230.26264 
L 351.308556 225.568997 
L 352.990808 225.568997 
L 352.990808 220.875353 
L 354.325185 220.875353 
L 354.325185 216.18171 
L 355.311604 216.18171 
L 355.311604 211.488067 
L 356.194015 211.488067 
L 356.194015 206.794424 
L 359.278106 206.794424 
L 359.278106 202.100781 
L 360.707744 202.100781 
L 360.707744 197.407138 
L 361.145483 197.407138 
L 361.145483 192.713495 
L 364.941479 192.713495 
L 364.941479 188.019852 
L 366.295753 188.019852 
L 366.295753 183.326209 
L 369.474086 183.326209 
L 369.474086 178.632565 
L 379.409506 178.632565 
L 379.409506 173.938922 
L 380.497982 173.938922 
L 380.497982 169.245279 
L 380.806582 169.245279 
L 380.806582 164.551636 
L 385.909184 164.551636 
L 385.909184 159.857993 
L 391.431744 159.857993 
L 391.431744 155.16435 
L 392.503057 155.16435 
L 392.503057 150.470707 
L 395.227087 150.470707 
L 395.227087 145.777064 
L 398.533913 145.777064 
L 398.533913 141.083421 
L 402.041424 141.083421 
L 402.041424 136.389777 
L 402.173435 136.389777 
L 402.173435 131.696134 
L 402.516902 131.696134 
L 402.516902 127.002491 
L 405.402762 127.002491 
L 405.402762 122.308848 
L 408.134895 122.308848 
L 408.134895 117.615205 
L 408.893906 117.615205 
L 408.893906 112.921562 
L 410.58646 112.921562 
L 410.58646 108.227919 
L 414.812849 108.227919 
L 414.812849 103.534276 
L 417.373246 103.534276 
L 417.373246 98.840633 
L 417.836171 98.840633 
L 417.836171 94.14699 
L 424.366661 94.14699 
L 424.366661 89.453346 
L 435.094623 89.453346 
L 435.094623 84.759703 
L 454.665747 84.759703 
L 454.665747 80.06606 
L 461.8 80.06606 
" style="fill:none;stroke:#f5deb3;stroke-linecap:square;stroke-width:1.5;"/>
   </g>
   <g id="line2d_28">
    <path clip-path="url(#p4c738587a3)" d="M 272.490544 291.28 
L 272.490544 286.586357 
L 274.192075 286.586357 
L 274.192075 281.892714 
L 279.544658 281.892714 
L 279.544658 277.199071 
L 287.562718 277.199071 
L 287.562718 272.505428 
L 311.541242 272.505428 
L 311.541242 267.811784 
L 330.05094 267.811784 
L 330.05094 263.118141 
L 335.404043 263.118141 
L 335.404043 258.424498 
L 336.697594 258.424498 
L 336.697594 253.730855 
L 336.909669 253.730855 
L 336.909669 249.037212 
L 339.380619 249.037212 
L 339.380619 244.343569 
L 340.214814 244.343569 
L 340.214814 239.649926 
L 341.014713 239.649926 
L 341.014713 234.956283 
L 342.648381 234.956283 
L 342.648381 230.26264 
L 343.241647 230.26264 
L 343.241647 225.568997 
L 343.718066 225.568997 
L 343.718066 220.875353 
L 343.863662 220.875353 
L 343.863662 216.18171 
L 344.531075 216.18171 
L 344.531075 211.488067 
L 345.750245 211.488067 
L 345.750245 206.794424 
L 348.540137 206.794424 
L 348.540137 202.100781 
L 348.752873 202.100781 
L 348.752873 197.407138 
L 348.964623 197.407138 
L 348.964623 192.713495 
L 349.738073 192.713495 
L 349.738073 188.019852 
L 350.388515 188.019852 
L 350.388515 183.326209 
L 350.467207 183.326209 
L 350.467207 178.632565 
L 350.561459 178.632565 
L 350.561459 173.938922 
L 352.722184 173.938922 
L 352.722184 169.245279 
L 352.961038 169.245279 
L 352.961038 164.551636 
L 353.449767 164.551636 
L 353.449767 159.857993 
L 353.464495 159.857993 
L 353.464495 155.16435 
L 353.90416 155.16435 
L 353.90416 150.470707 
L 354.785304 150.470707 
L 354.785304 145.777064 
L 355.943632 145.777064 
L 355.943632 141.083421 
L 356.263322 141.083421 
L 356.263322 136.389777 
L 356.950679 136.389777 
L 356.950679 131.696134 
L 357.385221 131.696134 
L 357.385221 127.002491 
L 358.135862 127.002491 
L 358.135862 122.308848 
L 359.755364 122.308848 
L 359.755364 117.615205 
L 359.934655 117.615205 
L 359.934655 112.921562 
L 361.492679 112.921562 
L 361.492679 108.227919 
L 362.361418 108.227919 
L 362.361418 103.534276 
L 362.879634 103.534276 
L 362.879634 98.840633 
L 363.047095 98.840633 
L 363.047095 94.14699 
L 363.59304 94.14699 
L 363.59304 89.453346 
L 371.353804 89.453346 
L 371.353804 84.759703 
L 386.925628 84.759703 
L 386.925628 80.06606 
L 387.6281 80.06606 
L 387.6281 75.372417 
L 388.244342 75.372417 
L 388.244342 70.678774 
L 388.388543 70.678774 
L 388.388543 65.985131 
L 389.298118 65.985131 
L 389.298118 61.291488 
L 390.090965 61.291488 
L 390.090965 56.597845 
L 390.472463 56.597845 
L 390.472463 51.904202 
L 390.603279 51.904202 
L 390.603279 47.210558 
L 391.29685 47.210558 
L 391.29685 42.516915 
L 392.169779 42.516915 
L 392.169779 37.823272 
L 408.560083 37.823272 
L 408.560083 33.129629 
L 411.214702 33.129629 
L 411.214702 28.435986 
L 412.328273 28.435986 
L 412.328273 23.742343 
L 412.92916 23.742343 
L 412.92916 19.0487 
L 420.202675 19.0487 
L 420.202675 14.355057 
L 440.0381 14.355057 
L 440.0381 9.661414 
L 440.0381 9.661414 
L 440.0381 9.661414 
L 450.672 9.661414 
" style="fill:none;stroke:#f5deb3;stroke-linecap:square;stroke-width:1.5;"/>
   </g>
   <g id="line2d_29">
    <path clip-path="url(#p4c738587a3)" d="M 233.814144 291.28 
L 233.814144 286.586357 
L 233.814144 286.586357 
L 233.814144 281.892714 
L 233.814144 281.892714 
L 233.814144 277.199071 
L 251.245196 277.199071 
L 251.245196 272.505428 
L 251.245196 272.505428 
L 251.245196 267.811784 
L 251.245196 267.811784 
L 251.245196 263.118141 
L 252.871985 263.118141 
L 252.871985 258.424498 
L 252.871985 258.424498 
L 252.871985 253.730855 
L 252.871985 253.730855 
L 252.871985 249.037212 
L 253.269789 249.037212 
L 253.269789 244.343569 
L 253.269789 244.343569 
L 253.269789 239.649926 
L 253.269789 239.649926 
L 253.269789 234.956283 
L 255.836804 234.956283 
L 255.836804 230.26264 
L 255.836804 230.26264 
L 255.836804 225.568997 
L 255.836804 225.568997 
L 255.836804 220.875353 
L 260.008749 220.875353 
L 260.008749 216.18171 
L 260.008749 216.18171 
L 260.008749 211.488067 
L 260.008749 211.488067 
L 260.008749 206.794424 
L 260.349229 206.794424 
L 260.349229 202.100781 
L 260.349229 202.100781 
L 260.349229 197.407138 
L 260.349229 197.407138 
L 260.349229 192.713495 
L 262.123465 192.713495 
L 262.123465 188.019852 
L 262.123465 188.019852 
L 262.123465 183.326209 
L 262.123465 183.326209 
L 262.123465 178.632565 
L 273.940851 178.632565 
L 273.940851 173.938922 
L 273.940851 173.938922 
L 273.940851 169.245279 
L 273.940851 169.245279 
L 273.940851 164.551636 
L 297.643789 164.551636 
L 297.643789 159.857993 
L 297.643789 159.857993 
L 297.643789 155.16435 
L 297.643789 155.16435 
L 297.643789 150.470707 
L 338.24412 150.470707 
L 338.24412 145.777064 
L 338.24412 145.777064 
L 338.24412 141.083421 
L 338.24412 141.083421 
L 338.24412 136.389777 
L 446.59926 136.389777 
L 446.59926 131.696134 
L 446.59926 131.696134 
L 446.59926 131.696134 
L 450.672 131.696134 
" style="fill:none;stroke:#f5deb3;stroke-linecap:square;stroke-width:1.5;"/>
   </g>
   <g id="line2d_30">
    <path clip-path="url(#p4c738587a3)" d="M 376.131907 291.28 
L 376.131907 286.586357 
L 403.992362 286.586357 
L 403.992362 281.892714 
L 416.868844 281.892714 
L 416.868844 277.199071 
L 423.990839 277.199071 
L 423.990839 272.505428 
L 439.272588 272.505428 
L 439.272588 267.811784 
L 445.921349 267.811784 
L 445.921349 263.118141 
L 445.921349 263.118141 
L 445.921349 263.118141 
L 450.672 263.118141 
" style="fill:none;stroke:#f5deb3;stroke-linecap:square;stroke-width:1.5;"/>
   </g>
   <g id="matplotlib.axis_1">
    <g id="xtick_1">
     <g id="line2d_31">
      <path clip-path="url(#p4c738587a3)" d="M 59.72 291.28 
L 59.72 6.845228 
" style="fill:none;stroke:#b0b0b0;stroke-linecap:square;stroke-width:0.8;"/>
     </g>
     <g id="line2d_32">
      <defs>
       <path d="M 0 0 
L 0 3.5 
" id="m362b2dbfae" style="stroke:#000000;stroke-width:0.8;"/>
      </defs>
      <g>
       <use style="stroke:#000000;stroke-width:0.8;" x="59.72" xlink:href="#m362b2dbfae" y="291.28"/>
      </g>
     </g>
     <g id="text_1">
      <!-- 0 -->
      <defs>
       <path d="M 31.78125 66.40625 
Q 24.171875 66.40625 20.328125 58.90625 
Q 16.5 51.421875 16.5 36.375 
Q 16.5 21.390625 20.328125 13.890625 
Q 24.171875 6.390625 31.78125 6.390625 
Q 39.453125 6.390625 43.28125 13.890625 
Q 47.125 21.390625 47.125 36.375 
Q 47.125 51.421875 43.28125 58.90625 
Q 39.453125 66.40625 31.78125 66.40625 
z
M 31.78125 74.21875 
Q 44.046875 74.21875 50.515625 64.515625 
Q 56.984375 54.828125 56.984375 36.375 
Q 56.984375 17.96875 50.515625 8.265625 
Q 44.046875 -1.421875 31.78125 -1.421875 
Q 19.53125 -1.421875 13.0625 8.265625 
Q 6.59375 17.96875 6.59375 36.375 
Q 6.59375 54.828125 13.0625 64.515625 
Q 19.53125 74.21875 31.78125 74.21875 
z
" id="DejaVuSans-30"/>
      </defs>
      <g transform="translate(53.3575 313.476875)scale(0.2 -0.2)">
       <use xlink:href="#DejaVuSans-30"/>
      </g>
     </g>
    </g>
    <g id="xtick_2">
     <g id="line2d_33">
      <path clip-path="url(#p4c738587a3)" d="M 164.904038 291.28 
L 164.904038 6.845228 
" style="fill:none;stroke:#b0b0b0;stroke-linecap:square;stroke-width:0.8;"/>
     </g>
     <g id="line2d_34">
      <g>
       <use style="stroke:#000000;stroke-width:0.8;" x="164.904038" xlink:href="#m362b2dbfae" y="291.28"/>
      </g>
     </g>
     <g id="text_2">
      <!-- 1 -->
      <defs>
       <path d="M 12.40625 8.296875 
L 28.515625 8.296875 
L 28.515625 63.921875 
L 10.984375 60.40625 
L 10.984375 69.390625 
L 28.421875 72.90625 
L 38.28125 72.90625 
L 38.28125 8.296875 
L 54.390625 8.296875 
L 54.390625 0 
L 12.40625 0 
z
" id="DejaVuSans-31"/>
      </defs>
      <g transform="translate(158.541538 313.476875)scale(0.2 -0.2)">
       <use xlink:href="#DejaVuSans-31"/>
      </g>
     </g>
    </g>
    <g id="xtick_3">
     <g id="line2d_35">
      <path clip-path="url(#p4c738587a3)" d="M 270.088076 291.28 
L 270.088076 6.845228 
" style="fill:none;stroke:#b0b0b0;stroke-linecap:square;stroke-width:0.8;"/>
     </g>
     <g id="line2d_36">
      <g>
       <use style="stroke:#000000;stroke-width:0.8;" x="270.088076" xlink:href="#m362b2dbfae" y="291.28"/>
      </g>
     </g>
     <g id="text_3">
      <!-- 2 -->
      <defs>
       <path d="M 19.1875 8.296875 
L 53.609375 8.296875 
L 53.609375 0 
L 7.328125 0 
L 7.328125 8.296875 
Q 12.9375 14.109375 22.625 23.890625 
Q 32.328125 33.6875 34.8125 36.53125 
Q 39.546875 41.84375 41.421875 45.53125 
Q 43.3125 49.21875 43.3125 52.78125 
Q 43.3125 58.59375 39.234375 62.25 
Q 35.15625 65.921875 28.609375 65.921875 
Q 23.96875 65.921875 18.8125 64.3125 
Q 13.671875 62.703125 7.8125 59.421875 
L 7.8125 69.390625 
Q 13.765625 71.78125 18.9375 73 
Q 24.125 74.21875 28.421875 74.21875 
Q 39.75 74.21875 46.484375 68.546875 
Q 53.21875 62.890625 53.21875 53.421875 
Q 53.21875 48.921875 51.53125 44.890625 
Q 49.859375 40.875 45.40625 35.40625 
Q 44.1875 33.984375 37.640625 27.21875 
Q 31.109375 20.453125 19.1875 8.296875 
z
" id="DejaVuSans-32"/>
      </defs>
      <g transform="translate(263.725576 313.476875)scale(0.2 -0.2)">
       <use xlink:href="#DejaVuSans-32"/>
      </g>
     </g>
    </g>
    <g id="xtick_4">
     <g id="line2d_37">
      <path clip-path="url(#p4c738587a3)" d="M 375.272114 291.28 
L 375.272114 6.845228 
" style="fill:none;stroke:#b0b0b0;stroke-linecap:square;stroke-width:0.8;"/>
     </g>
     <g id="line2d_38">
      <g>
       <use style="stroke:#000000;stroke-width:0.8;" x="375.272114" xlink:href="#m362b2dbfae" y="291.28"/>
      </g>
     </g>
     <g id="text_4">
      <!-- 3 -->
      <defs>
       <path d="M 40.578125 39.3125 
Q 47.65625 37.796875 51.625 33 
Q 55.609375 28.21875 55.609375 21.1875 
Q 55.609375 10.40625 48.1875 4.484375 
Q 40.765625 -1.421875 27.09375 -1.421875 
Q 22.515625 -1.421875 17.65625 -0.515625 
Q 12.796875 0.390625 7.625 2.203125 
L 7.625 11.71875 
Q 11.71875 9.328125 16.59375 8.109375 
Q 21.484375 6.890625 26.8125 6.890625 
Q 36.078125 6.890625 40.9375 10.546875 
Q 45.796875 14.203125 45.796875 21.1875 
Q 45.796875 27.640625 41.28125 31.265625 
Q 36.765625 34.90625 28.71875 34.90625 
L 20.21875 34.90625 
L 20.21875 43.015625 
L 29.109375 43.015625 
Q 36.375 43.015625 40.234375 45.921875 
Q 44.09375 48.828125 44.09375 54.296875 
Q 44.09375 59.90625 40.109375 62.90625 
Q 36.140625 65.921875 28.71875 65.921875 
Q 24.65625 65.921875 20.015625 65.03125 
Q 15.375 64.15625 9.8125 62.3125 
L 9.8125 71.09375 
Q 15.4375 72.65625 20.34375 73.4375 
Q 25.25 74.21875 29.59375 74.21875 
Q 40.828125 74.21875 47.359375 69.109375 
Q 53.90625 64.015625 53.90625 55.328125 
Q 53.90625 49.265625 50.4375 45.09375 
Q 46.96875 40.921875 40.578125 39.3125 
z
" id="DejaVuSans-33"/>
      </defs>
      <g transform="translate(368.909614 313.476875)scale(0.2 -0.2)">
       <use xlink:href="#DejaVuSans-33"/>
      </g>
     </g>
    </g>
    <g id="xtick_5">
     <g id="line2d_39">
      <defs>
       <path d="M 0 0 
L 0 2 
" id="mb69e6c3a57" style="stroke:#000000;stroke-width:0.6;"/>
      </defs>
      <g>
       <use style="stroke:#000000;stroke-width:0.6;" x="91.38355" xlink:href="#mb69e6c3a57" y="291.28"/>
      </g>
     </g>
    </g>
    <g id="xtick_6">
     <g id="line2d_40">
      <g>
       <use style="stroke:#000000;stroke-width:0.6;" x="109.90554" xlink:href="#mb69e6c3a57" y="291.28"/>
      </g>
     </g>
    </g>
    <g id="xtick_7">
     <g id="line2d_41">
      <g>
       <use style="stroke:#000000;stroke-width:0.6;" x="123.047101" xlink:href="#mb69e6c3a57" y="291.28"/>
      </g>
     </g>
    </g>
    <g id="xtick_8">
     <g id="line2d_42">
      <g>
       <use style="stroke:#000000;stroke-width:0.6;" x="133.240487" xlink:href="#mb69e6c3a57" y="291.28"/>
      </g>
     </g>
    </g>
    <g id="xtick_9">
     <g id="line2d_43">
      <g>
       <use style="stroke:#000000;stroke-width:0.6;" x="141.569091" xlink:href="#mb69e6c3a57" y="291.28"/>
      </g>
     </g>
    </g>
    <g id="xtick_10">
     <g id="line2d_44">
      <g>
       <use style="stroke:#000000;stroke-width:0.6;" x="148.610824" xlink:href="#mb69e6c3a57" y="291.28"/>
      </g>
     </g>
    </g>
    <g id="xtick_11">
     <g id="line2d_45">
      <g>
       <use style="stroke:#000000;stroke-width:0.6;" x="154.710651" xlink:href="#mb69e6c3a57" y="291.28"/>
      </g>
     </g>
    </g>
    <g id="xtick_12">
     <g id="line2d_46">
      <g>
       <use style="stroke:#000000;stroke-width:0.6;" x="160.09108" xlink:href="#mb69e6c3a57" y="291.28"/>
      </g>
     </g>
    </g>
    <g id="xtick_13">
     <g id="line2d_47">
      <g>
       <use style="stroke:#000000;stroke-width:0.6;" x="196.567588" xlink:href="#mb69e6c3a57" y="291.28"/>
      </g>
     </g>
    </g>
    <g id="xtick_14">
     <g id="line2d_48">
      <g>
       <use style="stroke:#000000;stroke-width:0.6;" x="215.089578" xlink:href="#mb69e6c3a57" y="291.28"/>
      </g>
     </g>
    </g>
    <g id="xtick_15">
     <g id="line2d_49">
      <g>
       <use style="stroke:#000000;stroke-width:0.6;" x="228.231139" xlink:href="#mb69e6c3a57" y="291.28"/>
      </g>
     </g>
    </g>
    <g id="xtick_16">
     <g id="line2d_50">
      <g>
       <use style="stroke:#000000;stroke-width:0.6;" x="238.424525" xlink:href="#mb69e6c3a57" y="291.28"/>
      </g>
     </g>
    </g>
    <g id="xtick_17">
     <g id="line2d_51">
      <g>
       <use style="stroke:#000000;stroke-width:0.6;" x="246.753129" xlink:href="#mb69e6c3a57" y="291.28"/>
      </g>
     </g>
    </g>
    <g id="xtick_18">
     <g id="line2d_52">
      <g>
       <use style="stroke:#000000;stroke-width:0.6;" x="253.794862" xlink:href="#mb69e6c3a57" y="291.28"/>
      </g>
     </g>
    </g>
    <g id="xtick_19">
     <g id="line2d_53">
      <g>
       <use style="stroke:#000000;stroke-width:0.6;" x="259.894689" xlink:href="#mb69e6c3a57" y="291.28"/>
      </g>
     </g>
    </g>
    <g id="xtick_20">
     <g id="line2d_54">
      <g>
       <use style="stroke:#000000;stroke-width:0.6;" x="265.275118" xlink:href="#mb69e6c3a57" y="291.28"/>
      </g>
     </g>
    </g>
    <g id="xtick_21">
     <g id="line2d_55">
      <g>
       <use style="stroke:#000000;stroke-width:0.6;" x="301.751626" xlink:href="#mb69e6c3a57" y="291.28"/>
      </g>
     </g>
    </g>
    <g id="xtick_22">
     <g id="line2d_56">
      <g>
       <use style="stroke:#000000;stroke-width:0.6;" x="320.273616" xlink:href="#mb69e6c3a57" y="291.28"/>
      </g>
     </g>
    </g>
    <g id="xtick_23">
     <g id="line2d_57">
      <g>
       <use style="stroke:#000000;stroke-width:0.6;" x="333.415177" xlink:href="#mb69e6c3a57" y="291.28"/>
      </g>
     </g>
    </g>
    <g id="xtick_24">
     <g id="line2d_58">
      <g>
       <use style="stroke:#000000;stroke-width:0.6;" x="343.608563" xlink:href="#mb69e6c3a57" y="291.28"/>
      </g>
     </g>
    </g>
    <g id="xtick_25">
     <g id="line2d_59">
      <g>
       <use style="stroke:#000000;stroke-width:0.6;" x="351.937166" xlink:href="#mb69e6c3a57" y="291.28"/>
      </g>
     </g>
    </g>
    <g id="xtick_26">
     <g id="line2d_60">
      <g>
       <use style="stroke:#000000;stroke-width:0.6;" x="358.9789" xlink:href="#mb69e6c3a57" y="291.28"/>
      </g>
     </g>
    </g>
    <g id="xtick_27">
     <g id="line2d_61">
      <g>
       <use style="stroke:#000000;stroke-width:0.6;" x="365.078727" xlink:href="#mb69e6c3a57" y="291.28"/>
      </g>
     </g>
    </g>
    <g id="xtick_28">
     <g id="line2d_62">
      <g>
       <use style="stroke:#000000;stroke-width:0.6;" x="370.459156" xlink:href="#mb69e6c3a57" y="291.28"/>
      </g>
     </g>
    </g>
    <g id="xtick_29">
     <g id="line2d_63">
      <g>
       <use style="stroke:#000000;stroke-width:0.6;" x="406.935664" xlink:href="#mb69e6c3a57" y="291.28"/>
      </g>
     </g>
    </g>
    <g id="xtick_30">
     <g id="line2d_64">
      <g>
       <use style="stroke:#000000;stroke-width:0.6;" x="425.457654" xlink:href="#mb69e6c3a57" y="291.28"/>
      </g>
     </g>
    </g>
    <g id="xtick_31">
     <g id="line2d_65">
      <g>
       <use style="stroke:#000000;stroke-width:0.6;" x="438.599215" xlink:href="#mb69e6c3a57" y="291.28"/>
      </g>
     </g>
    </g>
    <g id="xtick_32">
     <g id="line2d_66">
      <g>
       <use style="stroke:#000000;stroke-width:0.6;" x="448.792601" xlink:href="#mb69e6c3a57" y="291.28"/>
      </g>
     </g>
    </g>
    <g id="text_5">
     <!-- log10 of FEvals / DIM -->
     <defs>
      <path d="M 9.421875 75.984375 
L 18.40625 75.984375 
L 18.40625 0 
L 9.421875 0 
z
" id="DejaVuSans-6c"/>
      <path d="M 30.609375 48.390625 
Q 23.390625 48.390625 19.1875 42.75 
Q 14.984375 37.109375 14.984375 27.296875 
Q 14.984375 17.484375 19.15625 11.84375 
Q 23.34375 6.203125 30.609375 6.203125 
Q 37.796875 6.203125 41.984375 11.859375 
Q 46.1875 17.53125 46.1875 27.296875 
Q 46.1875 37.015625 41.984375 42.703125 
Q 37.796875 48.390625 30.609375 48.390625 
z
M 30.609375 56 
Q 42.328125 56 49.015625 48.375 
Q 55.71875 40.765625 55.71875 27.296875 
Q 55.71875 13.875 49.015625 6.21875 
Q 42.328125 -1.421875 30.609375 -1.421875 
Q 18.84375 -1.421875 12.171875 6.21875 
Q 5.515625 13.875 5.515625 27.296875 
Q 5.515625 40.765625 12.171875 48.375 
Q 18.84375 56 30.609375 56 
z
" id="DejaVuSans-6f"/>
      <path d="M 45.40625 27.984375 
Q 45.40625 37.75 41.375 43.109375 
Q 37.359375 48.484375 30.078125 48.484375 
Q 22.859375 48.484375 18.828125 43.109375 
Q 14.796875 37.75 14.796875 27.984375 
Q 14.796875 18.265625 18.828125 12.890625 
Q 22.859375 7.515625 30.078125 7.515625 
Q 37.359375 7.515625 41.375 12.890625 
Q 45.40625 18.265625 45.40625 27.984375 
z
M 54.390625 6.78125 
Q 54.390625 -7.171875 48.1875 -13.984375 
Q 42 -20.796875 29.203125 -20.796875 
Q 24.46875 -20.796875 20.265625 -20.09375 
Q 16.0625 -19.390625 12.109375 -17.921875 
L 12.109375 -9.1875 
Q 16.0625 -11.328125 19.921875 -12.34375 
Q 23.78125 -13.375 27.78125 -13.375 
Q 36.625 -13.375 41.015625 -8.765625 
Q 45.40625 -4.15625 45.40625 5.171875 
L 45.40625 9.625 
Q 42.625 4.78125 38.28125 2.390625 
Q 33.9375 0 27.875 0 
Q 17.828125 0 11.671875 7.65625 
Q 5.515625 15.328125 5.515625 27.984375 
Q 5.515625 40.671875 11.671875 48.328125 
Q 17.828125 56 27.875 56 
Q 33.9375 56 38.28125 53.609375 
Q 42.625 51.21875 45.40625 46.390625 
L 45.40625 54.6875 
L 54.390625 54.6875 
z
" id="DejaVuSans-67"/>
      <path id="DejaVuSans-20"/>
      <path d="M 37.109375 75.984375 
L 37.109375 68.5 
L 28.515625 68.5 
Q 23.6875 68.5 21.796875 66.546875 
Q 19.921875 64.59375 19.921875 59.515625 
L 19.921875 54.6875 
L 34.71875 54.6875 
L 34.71875 47.703125 
L 19.921875 47.703125 
L 19.921875 0 
L 10.890625 0 
L 10.890625 47.703125 
L 2.296875 47.703125 
L 2.296875 54.6875 
L 10.890625 54.6875 
L 10.890625 58.5 
Q 10.890625 67.625 15.140625 71.796875 
Q 19.390625 75.984375 28.609375 75.984375 
z
" id="DejaVuSans-66"/>
      <path d="M 9.8125 72.90625 
L 51.703125 72.90625 
L 51.703125 64.59375 
L 19.671875 64.59375 
L 19.671875 43.109375 
L 48.578125 43.109375 
L 48.578125 34.8125 
L 19.671875 34.8125 
L 19.671875 0 
L 9.8125 0 
z
" id="DejaVuSans-46"/>
      <path d="M 9.8125 72.90625 
L 55.90625 72.90625 
L 55.90625 64.59375 
L 19.671875 64.59375 
L 19.671875 43.015625 
L 54.390625 43.015625 
L 54.390625 34.71875 
L 19.671875 34.71875 
L 19.671875 8.296875 
L 56.78125 8.296875 
L 56.78125 0 
L 9.8125 0 
z
" id="DejaVuSans-45"/>
      <path d="M 2.984375 54.6875 
L 12.5 54.6875 
L 29.59375 8.796875 
L 46.6875 54.6875 
L 56.203125 54.6875 
L 35.6875 0 
L 23.484375 0 
z
" id="DejaVuSans-76"/>
      <path d="M 34.28125 27.484375 
Q 23.390625 27.484375 19.1875 25 
Q 14.984375 22.515625 14.984375 16.5 
Q 14.984375 11.71875 18.140625 8.90625 
Q 21.296875 6.109375 26.703125 6.109375 
Q 34.1875 6.109375 38.703125 11.40625 
Q 43.21875 16.703125 43.21875 25.484375 
L 43.21875 27.484375 
z
M 52.203125 31.203125 
L 52.203125 0 
L 43.21875 0 
L 43.21875 8.296875 
Q 40.140625 3.328125 35.546875 0.953125 
Q 30.953125 -1.421875 24.3125 -1.421875 
Q 15.921875 -1.421875 10.953125 3.296875 
Q 6 8.015625 6 15.921875 
Q 6 25.140625 12.171875 29.828125 
Q 18.359375 34.515625 30.609375 34.515625 
L 43.21875 34.515625 
L 43.21875 35.40625 
Q 43.21875 41.609375 39.140625 45 
Q 35.0625 48.390625 27.6875 48.390625 
Q 23 48.390625 18.546875 47.265625 
Q 14.109375 46.140625 10.015625 43.890625 
L 10.015625 52.203125 
Q 14.9375 54.109375 19.578125 55.046875 
Q 24.21875 56 28.609375 56 
Q 40.484375 56 46.34375 49.84375 
Q 52.203125 43.703125 52.203125 31.203125 
z
" id="DejaVuSans-61"/>
      <path d="M 44.28125 53.078125 
L 44.28125 44.578125 
Q 40.484375 46.53125 36.375 47.5 
Q 32.28125 48.484375 27.875 48.484375 
Q 21.1875 48.484375 17.84375 46.4375 
Q 14.5 44.390625 14.5 40.28125 
Q 14.5 37.15625 16.890625 35.375 
Q 19.28125 33.59375 26.515625 31.984375 
L 29.59375 31.296875 
Q 39.15625 29.25 43.1875 25.515625 
Q 47.21875 21.78125 47.21875 15.09375 
Q 47.21875 7.46875 41.1875 3.015625 
Q 35.15625 -1.421875 24.609375 -1.421875 
Q 20.21875 -1.421875 15.453125 -0.5625 
Q 10.6875 0.296875 5.421875 2 
L 5.421875 11.28125 
Q 10.40625 8.6875 15.234375 7.390625 
Q 20.0625 6.109375 24.8125 6.109375 
Q 31.15625 6.109375 34.5625 8.28125 
Q 37.984375 10.453125 37.984375 14.40625 
Q 37.984375 18.0625 35.515625 20.015625 
Q 33.0625 21.96875 24.703125 23.78125 
L 21.578125 24.515625 
Q 13.234375 26.265625 9.515625 29.90625 
Q 5.8125 33.546875 5.8125 39.890625 
Q 5.8125 47.609375 11.28125 51.796875 
Q 16.75 56 26.8125 56 
Q 31.78125 56 36.171875 55.265625 
Q 40.578125 54.546875 44.28125 53.078125 
z
" id="DejaVuSans-73"/>
      <path d="M 25.390625 72.90625 
L 33.6875 72.90625 
L 8.296875 -9.28125 
L 0 -9.28125 
z
" id="DejaVuSans-2f"/>
      <path d="M 19.671875 64.796875 
L 19.671875 8.109375 
L 31.59375 8.109375 
Q 46.6875 8.109375 53.6875 14.9375 
Q 60.6875 21.78125 60.6875 36.53125 
Q 60.6875 51.171875 53.6875 57.984375 
Q 46.6875 64.796875 31.59375 64.796875 
z
M 9.8125 72.90625 
L 30.078125 72.90625 
Q 51.265625 72.90625 61.171875 64.09375 
Q 71.09375 55.28125 71.09375 36.53125 
Q 71.09375 17.671875 61.125 8.828125 
Q 51.171875 0 30.078125 0 
L 9.8125 0 
z
" id="DejaVuSans-44"/>
      <path d="M 9.8125 72.90625 
L 19.671875 72.90625 
L 19.671875 0 
L 9.8125 0 
z
" id="DejaVuSans-49"/>
      <path d="M 9.8125 72.90625 
L 24.515625 72.90625 
L 43.109375 23.296875 
L 61.8125 72.90625 
L 76.515625 72.90625 
L 76.515625 0 
L 66.890625 0 
L 66.890625 64.015625 
L 48.09375 14.015625 
L 38.1875 14.015625 
L 19.390625 64.015625 
L 19.390625 0 
L 9.8125 0 
z
" id="DejaVuSans-4d"/>
     </defs>
     <g transform="translate(150.122563 336.833125)scale(0.2 -0.2)">
      <use xlink:href="#DejaVuSans-6c"/>
      <use x="27.783203" xlink:href="#DejaVuSans-6f"/>
      <use x="88.964844" xlink:href="#DejaVuSans-67"/>
      <use x="152.441406" xlink:href="#DejaVuSans-31"/>
      <use x="216.064453" xlink:href="#DejaVuSans-30"/>
      <use x="279.6875" xlink:href="#DejaVuSans-20"/>
      <use x="311.474609" xlink:href="#DejaVuSans-6f"/>
      <use x="372.65625" xlink:href="#DejaVuSans-66"/>
      <use x="407.861328" xlink:href="#DejaVuSans-20"/>
      <use x="439.648438" xlink:href="#DejaVuSans-46"/>
      <use x="497.167969" xlink:href="#DejaVuSans-45"/>
      <use x="560.351562" xlink:href="#DejaVuSans-76"/>
      <use x="619.53125" xlink:href="#DejaVuSans-61"/>
      <use x="680.810547" xlink:href="#DejaVuSans-6c"/>
      <use x="708.59375" xlink:href="#DejaVuSans-73"/>
      <use x="760.693359" xlink:href="#DejaVuSans-20"/>
      <use x="792.480469" xlink:href="#DejaVuSans-2f"/>
      <use x="826.171875" xlink:href="#DejaVuSans-20"/>
      <use x="857.958984" xlink:href="#DejaVuSans-44"/>
      <use x="934.960938" xlink:href="#DejaVuSans-49"/>
      <use x="964.453125" xlink:href="#DejaVuSans-4d"/>
     </g>
    </g>
   </g>
   <g id="matplotlib.axis_2">
    <g id="ytick_1">
     <g id="line2d_67">
      <path clip-path="url(#p4c738587a3)" d="M 59.72 291.28 
L 450.672 291.28 
" style="fill:none;stroke:#b0b0b0;stroke-linecap:square;stroke-width:0.8;"/>
     </g>
     <g id="line2d_68">
      <defs>
       <path d="M 0 0 
L -3.5 0 
" id="md3febdb691" style="stroke:#000000;stroke-width:0.8;"/>
      </defs>
      <g>
       <use style="stroke:#000000;stroke-width:0.8;" x="59.72" xlink:href="#md3febdb691" y="291.28"/>
      </g>
     </g>
     <g id="text_6">
      <!-- 0.0 -->
      <defs>
       <path d="M 10.6875 12.40625 
L 21 12.40625 
L 21 0 
L 10.6875 0 
z
" id="DejaVuSans-2e"/>
      </defs>
      <g transform="translate(27.275 297.35875)scale(0.16 -0.16)">
       <use xlink:href="#DejaVuSans-30"/>
       <use x="63.623047" xlink:href="#DejaVuSans-2e"/>
       <use x="95.410156" xlink:href="#DejaVuSans-30"/>
      </g>
     </g>
    </g>
    <g id="ytick_2">
     <g id="line2d_69">
      <path clip-path="url(#p4c738587a3)" d="M 59.72 234.956283 
L 450.672 234.956283 
" style="fill:none;stroke:#b0b0b0;stroke-linecap:square;stroke-width:0.8;"/>
     </g>
     <g id="line2d_70">
      <g>
       <use style="stroke:#000000;stroke-width:0.8;" x="59.72" xlink:href="#md3febdb691" y="234.956283"/>
      </g>
     </g>
     <g id="text_7">
      <!-- 0.2 -->
      <g transform="translate(27.275 241.035033)scale(0.16 -0.16)">
       <use xlink:href="#DejaVuSans-30"/>
       <use x="63.623047" xlink:href="#DejaVuSans-2e"/>
       <use x="95.410156" xlink:href="#DejaVuSans-32"/>
      </g>
     </g>
    </g>
    <g id="ytick_3">
     <g id="line2d_71">
      <path clip-path="url(#p4c738587a3)" d="M 59.72 178.632565 
L 450.672 178.632565 
" style="fill:none;stroke:#b0b0b0;stroke-linecap:square;stroke-width:0.8;"/>
     </g>
     <g id="line2d_72">
      <g>
       <use style="stroke:#000000;stroke-width:0.8;" x="59.72" xlink:href="#md3febdb691" y="178.632565"/>
      </g>
     </g>
     <g id="text_8">
      <!-- 0.4 -->
      <defs>
       <path d="M 37.796875 64.3125 
L 12.890625 25.390625 
L 37.796875 25.390625 
z
M 35.203125 72.90625 
L 47.609375 72.90625 
L 47.609375 25.390625 
L 58.015625 25.390625 
L 58.015625 17.1875 
L 47.609375 17.1875 
L 47.609375 0 
L 37.796875 0 
L 37.796875 17.1875 
L 4.890625 17.1875 
L 4.890625 26.703125 
z
" id="DejaVuSans-34"/>
      </defs>
      <g transform="translate(27.275 184.711315)scale(0.16 -0.16)">
       <use xlink:href="#DejaVuSans-30"/>
       <use x="63.623047" xlink:href="#DejaVuSans-2e"/>
       <use x="95.410156" xlink:href="#DejaVuSans-34"/>
      </g>
     </g>
    </g>
    <g id="ytick_4">
     <g id="line2d_73">
      <path clip-path="url(#p4c738587a3)" d="M 59.72 122.308848 
L 450.672 122.308848 
" style="fill:none;stroke:#b0b0b0;stroke-linecap:square;stroke-width:0.8;"/>
     </g>
     <g id="line2d_74">
      <g>
       <use style="stroke:#000000;stroke-width:0.8;" x="59.72" xlink:href="#md3febdb691" y="122.308848"/>
      </g>
     </g>
     <g id="text_9">
      <!-- 0.6 -->
      <defs>
       <path d="M 33.015625 40.375 
Q 26.375 40.375 22.484375 35.828125 
Q 18.609375 31.296875 18.609375 23.390625 
Q 18.609375 15.53125 22.484375 10.953125 
Q 26.375 6.390625 33.015625 6.390625 
Q 39.65625 6.390625 43.53125 10.953125 
Q 47.40625 15.53125 47.40625 23.390625 
Q 47.40625 31.296875 43.53125 35.828125 
Q 39.65625 40.375 33.015625 40.375 
z
M 52.59375 71.296875 
L 52.59375 62.3125 
Q 48.875 64.0625 45.09375 64.984375 
Q 41.3125 65.921875 37.59375 65.921875 
Q 27.828125 65.921875 22.671875 59.328125 
Q 17.53125 52.734375 16.796875 39.40625 
Q 19.671875 43.65625 24.015625 45.921875 
Q 28.375 48.1875 33.59375 48.1875 
Q 44.578125 48.1875 50.953125 41.515625 
Q 57.328125 34.859375 57.328125 23.390625 
Q 57.328125 12.15625 50.6875 5.359375 
Q 44.046875 -1.421875 33.015625 -1.421875 
Q 20.359375 -1.421875 13.671875 8.265625 
Q 6.984375 17.96875 6.984375 36.375 
Q 6.984375 53.65625 15.1875 63.9375 
Q 23.390625 74.21875 37.203125 74.21875 
Q 40.921875 74.21875 44.703125 73.484375 
Q 48.484375 72.75 52.59375 71.296875 
z
" id="DejaVuSans-36"/>
      </defs>
      <g transform="translate(27.275 128.387598)scale(0.16 -0.16)">
       <use xlink:href="#DejaVuSans-30"/>
       <use x="63.623047" xlink:href="#DejaVuSans-2e"/>
       <use x="95.410156" xlink:href="#DejaVuSans-36"/>
      </g>
     </g>
    </g>
    <g id="ytick_5">
     <g id="line2d_75">
      <path clip-path="url(#p4c738587a3)" d="M 59.72 65.985131 
L 450.672 65.985131 
" style="fill:none;stroke:#b0b0b0;stroke-linecap:square;stroke-width:0.8;"/>
     </g>
     <g id="line2d_76">
      <g>
       <use style="stroke:#000000;stroke-width:0.8;" x="59.72" xlink:href="#md3febdb691" y="65.985131"/>
      </g>
     </g>
     <g id="text_10">
      <!-- 0.8 -->
      <defs>
       <path d="M 31.78125 34.625 
Q 24.75 34.625 20.71875 30.859375 
Q 16.703125 27.09375 16.703125 20.515625 
Q 16.703125 13.921875 20.71875 10.15625 
Q 24.75 6.390625 31.78125 6.390625 
Q 38.8125 6.390625 42.859375 10.171875 
Q 46.921875 13.96875 46.921875 20.515625 
Q 46.921875 27.09375 42.890625 30.859375 
Q 38.875 34.625 31.78125 34.625 
z
M 21.921875 38.8125 
Q 15.578125 40.375 12.03125 44.71875 
Q 8.5 49.078125 8.5 55.328125 
Q 8.5 64.0625 14.71875 69.140625 
Q 20.953125 74.21875 31.78125 74.21875 
Q 42.671875 74.21875 48.875 69.140625 
Q 55.078125 64.0625 55.078125 55.328125 
Q 55.078125 49.078125 51.53125 44.71875 
Q 48 40.375 41.703125 38.8125 
Q 48.828125 37.15625 52.796875 32.3125 
Q 56.78125 27.484375 56.78125 20.515625 
Q 56.78125 9.90625 50.3125 4.234375 
Q 43.84375 -1.421875 31.78125 -1.421875 
Q 19.734375 -1.421875 13.25 4.234375 
Q 6.78125 9.90625 6.78125 20.515625 
Q 6.78125 27.484375 10.78125 32.3125 
Q 14.796875 37.15625 21.921875 38.8125 
z
M 18.3125 54.390625 
Q 18.3125 48.734375 21.84375 45.5625 
Q 25.390625 42.390625 31.78125 42.390625 
Q 38.140625 42.390625 41.71875 45.5625 
Q 45.3125 48.734375 45.3125 54.390625 
Q 45.3125 60.0625 41.71875 63.234375 
Q 38.140625 66.40625 31.78125 66.40625 
Q 25.390625 66.40625 21.84375 63.234375 
Q 18.3125 60.0625 18.3125 54.390625 
z
" id="DejaVuSans-38"/>
      </defs>
      <g transform="translate(27.275 72.063881)scale(0.16 -0.16)">
       <use xlink:href="#DejaVuSans-30"/>
       <use x="63.623047" xlink:href="#DejaVuSans-2e"/>
       <use x="95.410156" xlink:href="#DejaVuSans-38"/>
      </g>
     </g>
    </g>
    <g id="ytick_6">
     <g id="line2d_77">
      <path clip-path="url(#p4c738587a3)" d="M 59.72 9.661414 
L 450.672 9.661414 
" style="fill:none;stroke:#b0b0b0;stroke-linecap:square;stroke-width:0.8;"/>
     </g>
     <g id="line2d_78">
      <g>
       <use style="stroke:#000000;stroke-width:0.8;" x="59.72" xlink:href="#md3febdb691" y="9.661414"/>
      </g>
     </g>
     <g id="text_11">
      <!-- 1.0 -->
      <g transform="translate(27.275 15.740164)scale(0.16 -0.16)">
       <use xlink:href="#DejaVuSans-31"/>
       <use x="63.623047" xlink:href="#DejaVuSans-2e"/>
       <use x="95.410156" xlink:href="#DejaVuSans-30"/>
      </g>
     </g>
    </g>
    <g id="text_12">
     <!-- proportion of trials -->
     <defs>
      <path d="M 18.109375 8.203125 
L 18.109375 -20.796875 
L 9.078125 -20.796875 
L 9.078125 54.6875 
L 18.109375 54.6875 
L 18.109375 46.390625 
Q 20.953125 51.265625 25.265625 53.625 
Q 29.59375 56 35.59375 56 
Q 45.5625 56 51.78125 48.09375 
Q 58.015625 40.1875 58.015625 27.296875 
Q 58.015625 14.40625 51.78125 6.484375 
Q 45.5625 -1.421875 35.59375 -1.421875 
Q 29.59375 -1.421875 25.265625 0.953125 
Q 20.953125 3.328125 18.109375 8.203125 
z
M 48.6875 27.296875 
Q 48.6875 37.203125 44.609375 42.84375 
Q 40.53125 48.484375 33.40625 48.484375 
Q 26.265625 48.484375 22.1875 42.84375 
Q 18.109375 37.203125 18.109375 27.296875 
Q 18.109375 17.390625 22.1875 11.75 
Q 26.265625 6.109375 33.40625 6.109375 
Q 40.53125 6.109375 44.609375 11.75 
Q 48.6875 17.390625 48.6875 27.296875 
z
" id="DejaVuSans-70"/>
      <path d="M 41.109375 46.296875 
Q 39.59375 47.171875 37.8125 47.578125 
Q 36.03125 48 33.890625 48 
Q 26.265625 48 22.1875 43.046875 
Q 18.109375 38.09375 18.109375 28.8125 
L 18.109375 0 
L 9.078125 0 
L 9.078125 54.6875 
L 18.109375 54.6875 
L 18.109375 46.1875 
Q 20.953125 51.171875 25.484375 53.578125 
Q 30.03125 56 36.53125 56 
Q 37.453125 56 38.578125 55.875 
Q 39.703125 55.765625 41.0625 55.515625 
z
" id="DejaVuSans-72"/>
      <path d="M 18.3125 70.21875 
L 18.3125 54.6875 
L 36.8125 54.6875 
L 36.8125 47.703125 
L 18.3125 47.703125 
L 18.3125 18.015625 
Q 18.3125 11.328125 20.140625 9.421875 
Q 21.96875 7.515625 27.59375 7.515625 
L 36.8125 7.515625 
L 36.8125 0 
L 27.59375 0 
Q 17.1875 0 13.234375 3.875 
Q 9.28125 7.765625 9.28125 18.015625 
L 9.28125 47.703125 
L 2.6875 47.703125 
L 2.6875 54.6875 
L 9.28125 54.6875 
L 9.28125 70.21875 
z
" id="DejaVuSans-74"/>
      <path d="M 9.421875 54.6875 
L 18.40625 54.6875 
L 18.40625 0 
L 9.421875 0 
z
M 9.421875 75.984375 
L 18.40625 75.984375 
L 18.40625 64.59375 
L 9.421875 64.59375 
z
" id="DejaVuSans-69"/>
      <path d="M 54.890625 33.015625 
L 54.890625 0 
L 45.90625 0 
L 45.90625 32.71875 
Q 45.90625 40.484375 42.875 44.328125 
Q 39.84375 48.1875 33.796875 48.1875 
Q 26.515625 48.1875 22.3125 43.546875 
Q 18.109375 38.921875 18.109375 30.90625 
L 18.109375 0 
L 9.078125 0 
L 9.078125 54.6875 
L 18.109375 54.6875 
L 18.109375 46.1875 
Q 21.34375 51.125 25.703125 53.5625 
Q 30.078125 56 35.796875 56 
Q 45.21875 56 50.046875 50.171875 
Q 54.890625 44.34375 54.890625 33.015625 
z
" id="DejaVuSans-6e"/>
     </defs>
     <g transform="translate(19.115625 242.290739)rotate(-90)scale(0.2 -0.2)">
      <use xlink:href="#DejaVuSans-70"/>
      <use x="63.476562" xlink:href="#DejaVuSans-72"/>
      <use x="104.558594" xlink:href="#DejaVuSans-6f"/>
      <use x="165.740234" xlink:href="#DejaVuSans-70"/>
      <use x="229.216797" xlink:href="#DejaVuSans-6f"/>
      <use x="290.398438" xlink:href="#DejaVuSans-72"/>
      <use x="331.511719" xlink:href="#DejaVuSans-74"/>
      <use x="370.720703" xlink:href="#DejaVuSans-69"/>
      <use x="398.503906" xlink:href="#DejaVuSans-6f"/>
      <use x="459.685547" xlink:href="#DejaVuSans-6e"/>
      <use x="523.064453" xlink:href="#DejaVuSans-20"/>
      <use x="554.851562" xlink:href="#DejaVuSans-6f"/>
      <use x="616.033203" xlink:href="#DejaVuSans-66"/>
      <use x="651.238281" xlink:href="#DejaVuSans-20"/>
      <use x="683.025391" xlink:href="#DejaVuSans-74"/>
      <use x="722.234375" xlink:href="#DejaVuSans-72"/>
      <use x="763.347656" xlink:href="#DejaVuSans-69"/>
      <use x="791.130859" xlink:href="#DejaVuSans-61"/>
      <use x="852.410156" xlink:href="#DejaVuSans-6c"/>
      <use x="880.193359" xlink:href="#DejaVuSans-73"/>
     </g>
    </g>
   </g>
   <g id="line2d_79">
    <path clip-path="url(#p4c738587a3)" d="M 209.250041 291.28 
L 209.250041 286.586357 
L 215.089578 286.586357 
L 215.089578 281.892714 
L 215.694631 281.892714 
L 215.694631 277.199071 
L 231.321843 277.199071 
L 231.321843 272.505428 
L 235.01109 272.505428 
L 235.01109 267.811784 
L 242.944186 267.811784 
L 242.944186 263.118141 
L 248.250995 263.118141 
L 248.250995 258.424498 
L 249.126693 258.424498 
L 249.126693 253.730855 
L 249.126693 253.730855 
L 249.126693 249.037212 
L 249.126693 249.037212 
L 249.126693 244.343569 
L 249.414902 244.343569 
L 249.414902 239.649926 
L 249.701303 239.649926 
L 249.701303 234.956283 
L 249.701303 234.956283 
L 249.701303 230.26264 
L 251.382996 230.26264 
L 251.382996 225.568997 
L 251.930079 225.568997 
L 251.930079 220.875353 
L 252.201183 220.875353 
L 252.201183 216.18171 
L 253.53308 216.18171 
L 253.53308 211.488067 
L 255.586498 211.488067 
L 255.586498 206.794424 
L 257.791363 206.794424 
L 257.791363 202.100781 
L 257.791363 202.100781 
L 257.791363 197.407138 
L 260.79929 197.407138 
L 260.79929 192.713495 
L 261.686325 192.713495 
L 261.686325 188.019852 
L 261.686325 188.019852 
L 261.686325 183.326209 
L 262.123465 183.326209 
L 262.123465 178.632565 
L 269.904986 178.632565 
L 269.904986 173.938922 
L 270.632983 173.938922 
L 270.632983 169.245279 
L 272.749849 169.245279 
L 272.749849 164.551636 
L 278.264155 164.551636 
L 278.264155 159.857993 
L 280.208314 159.857993 
L 280.208314 155.16435 
L 287.124379 155.16435 
L 287.124379 150.470707 
L 287.250048 150.470707 
L 287.250048 145.777064 
L 287.375373 145.777064 
L 287.375373 141.083421 
L 287.500355 141.083421 
L 287.500355 136.389777 
L 288.853049 136.389777 
L 288.853049 131.696134 
L 295.390017 131.696134 
L 295.390017 127.002491 
L 299.312234 127.002491 
L 299.312234 122.308848 
L 316.199086 122.308848 
L 316.199086 117.615205 
L 332.164837 117.615205 
L 332.164837 112.921562 
L 361.070739 112.921562 
L 361.070739 108.227919 
L 361.070739 108.227919 
L 361.070739 108.227919 
L 450.672 108.227919 
" style="fill:none;stroke:#000000;stroke-linecap:square;stroke-width:1.5;"/>
   </g>
   <g id="line2d_80">
    <path clip-path="url(#p4c738587a3)" style="fill:none;stroke:#000000;stroke-linecap:square;stroke-width:1.5;"/>
   </g>
   <g id="line2d_81"/>
   <g id="line2d_82"/>
   <g id="line2d_83"/>
   <g id="line2d_84">
    <path clip-path="url(#p4c738587a3)" d="M 450.672 291.28 
L 450.672 6.845228 
" style="fill:none;stroke:#000000;stroke-linecap:square;stroke-width:1.5;"/>
   </g>
   <g id="patch_3">
    <path d="M 59.72 291.28 
L 59.72 6.845228 
" style="fill:none;stroke:#000000;stroke-linecap:square;stroke-linejoin:miter;stroke-width:0.8;"/>
   </g>
   <g id="patch_4">
    <path d="M 450.672 291.28 
L 450.672 6.845228 
" style="fill:none;stroke:#000000;stroke-linecap:square;stroke-linejoin:miter;stroke-width:0.8;"/>
   </g>
   <g id="patch_5">
    <path d="M 59.72 291.28 
L 450.672 291.28 
" style="fill:none;stroke:#000000;stroke-linecap:square;stroke-linejoin:miter;stroke-width:0.8;"/>
   </g>
   <g id="patch_6">
    <path d="M 59.72 6.845228 
L 450.672 6.845228 
" style="fill:none;stroke:#000000;stroke-linecap:square;stroke-linejoin:miter;stroke-width:0.8;"/>
   </g>
   <g id="text_13">
    <!-- {f6-f9}, 5-D -->
    <defs>
     <path d="M 51.125 -9.28125 
L 51.125 -16.3125 
L 48.09375 -16.3125 
Q 35.9375 -16.3125 31.8125 -12.6875 
Q 27.6875 -9.078125 27.6875 1.703125 
L 27.6875 13.375 
Q 27.6875 20.75 25.046875 23.578125 
Q 22.40625 26.421875 15.484375 26.421875 
L 12.5 26.421875 
L 12.5 33.40625 
L 15.484375 33.40625 
Q 22.46875 33.40625 25.078125 36.203125 
Q 27.6875 39.015625 27.6875 46.296875 
L 27.6875 58.015625 
Q 27.6875 68.796875 31.8125 72.390625 
Q 35.9375 75.984375 48.09375 75.984375 
L 51.125 75.984375 
L 51.125 69 
L 47.796875 69 
Q 40.921875 69 38.8125 66.84375 
Q 36.71875 64.703125 36.71875 57.8125 
L 36.71875 45.703125 
Q 36.71875 38.03125 34.5 34.5625 
Q 32.28125 31.109375 26.90625 29.890625 
Q 32.328125 28.5625 34.515625 25.09375 
Q 36.71875 21.625 36.71875 14.015625 
L 36.71875 1.90625 
Q 36.71875 -4.984375 38.8125 -7.125 
Q 40.921875 -9.28125 47.796875 -9.28125 
z
" id="DejaVuSans-7b"/>
     <path d="M 4.890625 31.390625 
L 31.203125 31.390625 
L 31.203125 23.390625 
L 4.890625 23.390625 
z
" id="DejaVuSans-2d"/>
     <path d="M 10.984375 1.515625 
L 10.984375 10.5 
Q 14.703125 8.734375 18.5 7.8125 
Q 22.3125 6.890625 25.984375 6.890625 
Q 35.75 6.890625 40.890625 13.453125 
Q 46.046875 20.015625 46.78125 33.40625 
Q 43.953125 29.203125 39.59375 26.953125 
Q 35.25 24.703125 29.984375 24.703125 
Q 19.046875 24.703125 12.671875 31.3125 
Q 6.296875 37.9375 6.296875 49.421875 
Q 6.296875 60.640625 12.9375 67.421875 
Q 19.578125 74.21875 30.609375 74.21875 
Q 43.265625 74.21875 49.921875 64.515625 
Q 56.59375 54.828125 56.59375 36.375 
Q 56.59375 19.140625 48.40625 8.859375 
Q 40.234375 -1.421875 26.421875 -1.421875 
Q 22.703125 -1.421875 18.890625 -0.6875 
Q 15.09375 0.046875 10.984375 1.515625 
z
M 30.609375 32.421875 
Q 37.25 32.421875 41.125 36.953125 
Q 45.015625 41.5 45.015625 49.421875 
Q 45.015625 57.28125 41.125 61.84375 
Q 37.25 66.40625 30.609375 66.40625 
Q 23.96875 66.40625 20.09375 61.84375 
Q 16.21875 57.28125 16.21875 49.421875 
Q 16.21875 41.5 20.09375 36.953125 
Q 23.96875 32.421875 30.609375 32.421875 
z
" id="DejaVuSans-39"/>
     <path d="M 12.5 -9.28125 
L 15.921875 -9.28125 
Q 22.75 -9.28125 24.828125 -7.171875 
Q 26.90625 -5.078125 26.90625 1.90625 
L 26.90625 14.015625 
Q 26.90625 21.625 29.09375 25.09375 
Q 31.296875 28.5625 36.71875 29.890625 
Q 31.296875 31.109375 29.09375 34.5625 
Q 26.90625 38.03125 26.90625 45.703125 
L 26.90625 57.8125 
Q 26.90625 64.75 24.828125 66.875 
Q 22.75 69 15.921875 69 
L 12.5 69 
L 12.5 75.984375 
L 15.578125 75.984375 
Q 27.734375 75.984375 31.8125 72.390625 
Q 35.890625 68.796875 35.890625 58.015625 
L 35.890625 46.296875 
Q 35.890625 39.015625 38.515625 36.203125 
Q 41.15625 33.40625 48.09375 33.40625 
L 51.125 33.40625 
L 51.125 26.421875 
L 48.09375 26.421875 
Q 41.15625 26.421875 38.515625 23.578125 
Q 35.890625 20.75 35.890625 13.375 
L 35.890625 1.703125 
Q 35.890625 -9.078125 31.8125 -12.6875 
Q 27.734375 -16.3125 15.578125 -16.3125 
L 12.5 -16.3125 
z
" id="DejaVuSans-7d"/>
     <path d="M 11.71875 12.40625 
L 22.015625 12.40625 
L 22.015625 4 
L 14.015625 -11.625 
L 7.71875 -11.625 
L 11.71875 4 
z
" id="DejaVuSans-2c"/>
     <path d="M 10.796875 72.90625 
L 49.515625 72.90625 
L 49.515625 64.59375 
L 19.828125 64.59375 
L 19.828125 46.734375 
Q 21.96875 47.46875 24.109375 47.828125 
Q 26.265625 48.1875 28.421875 48.1875 
Q 40.625 48.1875 47.75 41.5 
Q 54.890625 34.8125 54.890625 23.390625 
Q 54.890625 11.625 47.5625 5.09375 
Q 40.234375 -1.421875 26.90625 -1.421875 
Q 22.3125 -1.421875 17.546875 -0.640625 
Q 12.796875 0.140625 7.71875 1.703125 
L 7.71875 11.625 
Q 12.109375 9.234375 16.796875 8.0625 
Q 21.484375 6.890625 26.703125 6.890625 
Q 35.15625 6.890625 40.078125 11.328125 
Q 45.015625 15.765625 45.015625 23.390625 
Q 45.015625 31 40.078125 35.4375 
Q 35.15625 39.890625 26.703125 39.890625 
Q 22.75 39.890625 18.8125 39.015625 
Q 14.890625 38.140625 10.796875 36.28125 
z
" id="DejaVuSans-35"/>
    </defs>
    <g transform="translate(195.071 27.730798)scale(0.2 -0.2)">
     <use xlink:href="#DejaVuSans-7b"/>
     <use x="63.623047" xlink:href="#DejaVuSans-66"/>
     <use x="98.828125" xlink:href="#DejaVuSans-36"/>
     <use x="162.451172" xlink:href="#DejaVuSans-2d"/>
     <use x="198.535156" xlink:href="#DejaVuSans-66"/>
     <use x="233.740234" xlink:href="#DejaVuSans-39"/>
     <use x="297.363281" xlink:href="#DejaVuSans-7d"/>
     <use x="360.986328" xlink:href="#DejaVuSans-2c"/>
     <use x="392.773438" xlink:href="#DejaVuSans-20"/>
     <use x="424.560547" xlink:href="#DejaVuSans-35"/>
     <use x="488.183594" xlink:href="#DejaVuSans-2d"/>
     <use x="524.267578" xlink:href="#DejaVuSans-44"/>
    </g>
   </g>
   <g id="text_14">
    <!-- absolute targets -->
    <defs>
     <path d="M 48.6875 27.296875 
Q 48.6875 37.203125 44.609375 42.84375 
Q 40.53125 48.484375 33.40625 48.484375 
Q 26.265625 48.484375 22.1875 42.84375 
Q 18.109375 37.203125 18.109375 27.296875 
Q 18.109375 17.390625 22.1875 11.75 
Q 26.265625 6.109375 33.40625 6.109375 
Q 40.53125 6.109375 44.609375 11.75 
Q 48.6875 17.390625 48.6875 27.296875 
z
M 18.109375 46.390625 
Q 20.953125 51.265625 25.265625 53.625 
Q 29.59375 56 35.59375 56 
Q 45.5625 56 51.78125 48.09375 
Q 58.015625 40.1875 58.015625 27.296875 
Q 58.015625 14.40625 51.78125 6.484375 
Q 45.5625 -1.421875 35.59375 -1.421875 
Q 29.59375 -1.421875 25.265625 0.953125 
Q 20.953125 3.328125 18.109375 8.203125 
L 18.109375 0 
L 9.078125 0 
L 9.078125 75.984375 
L 18.109375 75.984375 
z
" id="DejaVuSans-62"/>
     <path d="M 8.5 21.578125 
L 8.5 54.6875 
L 17.484375 54.6875 
L 17.484375 21.921875 
Q 17.484375 14.15625 20.5 10.265625 
Q 23.53125 6.390625 29.59375 6.390625 
Q 36.859375 6.390625 41.078125 11.03125 
Q 45.3125 15.671875 45.3125 23.6875 
L 45.3125 54.6875 
L 54.296875 54.6875 
L 54.296875 0 
L 45.3125 0 
L 45.3125 8.40625 
Q 42.046875 3.421875 37.71875 1 
Q 33.40625 -1.421875 27.6875 -1.421875 
Q 18.265625 -1.421875 13.375 4.4375 
Q 8.5 10.296875 8.5 21.578125 
z
M 31.109375 56 
z
" id="DejaVuSans-75"/>
     <path d="M 56.203125 29.59375 
L 56.203125 25.203125 
L 14.890625 25.203125 
Q 15.484375 15.921875 20.484375 11.0625 
Q 25.484375 6.203125 34.421875 6.203125 
Q 39.59375 6.203125 44.453125 7.46875 
Q 49.3125 8.734375 54.109375 11.28125 
L 54.109375 2.78125 
Q 49.265625 0.734375 44.1875 -0.34375 
Q 39.109375 -1.421875 33.890625 -1.421875 
Q 20.796875 -1.421875 13.15625 6.1875 
Q 5.515625 13.8125 5.515625 26.8125 
Q 5.515625 40.234375 12.765625 48.109375 
Q 20.015625 56 32.328125 56 
Q 43.359375 56 49.78125 48.890625 
Q 56.203125 41.796875 56.203125 29.59375 
z
M 47.21875 32.234375 
Q 47.125 39.59375 43.09375 43.984375 
Q 39.0625 48.390625 32.421875 48.390625 
Q 24.90625 48.390625 20.390625 44.140625 
Q 15.875 39.890625 15.1875 32.171875 
z
" id="DejaVuSans-65"/>
    </defs>
    <g transform="translate(59.72 601.060445)scale(0.14 -0.14)">
     <use xlink:href="#DejaVuSans-61"/>
     <use x="61.279297" xlink:href="#DejaVuSans-62"/>
     <use x="124.755859" xlink:href="#DejaVuSans-73"/>
     <use x="176.855469" xlink:href="#DejaVuSans-6f"/>
     <use x="238.037109" xlink:href="#DejaVuSans-6c"/>
     <use x="265.820312" xlink:href="#DejaVuSans-75"/>
     <use x="329.199219" xlink:href="#DejaVuSans-74"/>
     <use x="368.408203" xlink:href="#DejaVuSans-65"/>
     <use x="429.931641" xlink:href="#DejaVuSans-20"/>
     <use x="461.71875" xlink:href="#DejaVuSans-74"/>
     <use x="500.927734" xlink:href="#DejaVuSans-61"/>
     <use x="562.207031" xlink:href="#DejaVuSans-72"/>
     <use x="603.304688" xlink:href="#DejaVuSans-67"/>
     <use x="666.78125" xlink:href="#DejaVuSans-65"/>
     <use x="728.304688" xlink:href="#DejaVuSans-74"/>
     <use x="767.513672" xlink:href="#DejaVuSans-73"/>
    </g>
   </g>
   <g id="text_15">
    <!-- v2.2.1.10 -->
    <g style="fill:#808080;" transform="translate(231.563188 286.355965)scale(0.1 -0.1)">
     <use xlink:href="#DejaVuSans-76"/>
     <use x="59.179688" xlink:href="#DejaVuSans-32"/>
     <use x="122.802734" xlink:href="#DejaVuSans-2e"/>
     <use x="154.589844" xlink:href="#DejaVuSans-32"/>
     <use x="218.212891" xlink:href="#DejaVuSans-2e"/>
     <use x="250" xlink:href="#DejaVuSans-31"/>
     <use x="313.623047" xlink:href="#DejaVuSans-2e"/>
     <use x="345.410156" xlink:href="#DejaVuSans-31"/>
     <use x="409.033203" xlink:href="#DejaVuSans-30"/>
    </g>
   </g>
   <g id="legend_1">
    <g id="patch_7">
     <path d="M 73.72 140.270228 
L 202.941875 140.270228 
Q 206.941875 140.270228 206.941875 136.270228 
L 206.941875 20.845228 
Q 206.941875 16.845228 202.941875 16.845228 
L 73.72 16.845228 
Q 69.72 16.845228 69.72 20.845228 
L 69.72 136.270228 
Q 69.72 140.270228 73.72 140.270228 
z
" style="fill:#ffffff;opacity:0.2;stroke:#cccccc;stroke-linejoin:miter;"/>
    </g>
    <g id="line2d_85">
     <path d="M 77.72 33.042103 
L 117.72 33.042103 
" style="fill:none;stroke:#000000;stroke-linecap:square;stroke-width:1.5;"/>
    </g>
    <g id="line2d_86"/>
    <g id="text_16">
     <!-- 1: 4/4 -->
     <defs>
      <path d="M 11.71875 12.40625 
L 22.015625 12.40625 
L 22.015625 0 
L 11.71875 0 
z
M 11.71875 51.703125 
L 22.015625 51.703125 
L 22.015625 39.3125 
L 11.71875 39.3125 
z
" id="DejaVuSans-3a"/>
     </defs>
     <g transform="translate(133.72 40.042103)scale(0.2 -0.2)">
      <use xlink:href="#DejaVuSans-31"/>
      <use x="63.623047" xlink:href="#DejaVuSans-3a"/>
      <use x="97.314453" xlink:href="#DejaVuSans-20"/>
      <use x="129.101562" xlink:href="#DejaVuSans-34"/>
      <use x="192.724609" xlink:href="#DejaVuSans-2f"/>
      <use x="226.416016" xlink:href="#DejaVuSans-34"/>
     </g>
    </g>
    <g id="line2d_87">
     <path d="M 77.72 62.398353 
L 117.72 62.398353 
" style="fill:none;stroke:#00bfbf;stroke-linecap:square;stroke-width:1.5;"/>
    </g>
    <g id="line2d_88"/>
    <g id="text_17">
     <!-- -1: 0/4 -->
     <g transform="translate(133.72 69.398353)scale(0.2 -0.2)">
      <use xlink:href="#DejaVuSans-2d"/>
      <use x="36.083984" xlink:href="#DejaVuSans-31"/>
      <use x="99.707031" xlink:href="#DejaVuSans-3a"/>
      <use x="133.398438" xlink:href="#DejaVuSans-20"/>
      <use x="165.185547" xlink:href="#DejaVuSans-30"/>
      <use x="228.808594" xlink:href="#DejaVuSans-2f"/>
      <use x="262.5" xlink:href="#DejaVuSans-34"/>
     </g>
    </g>
    <g id="line2d_89">
     <path d="M 77.72 91.754603 
L 117.72 91.754603 
" style="fill:none;stroke:#bf00bf;stroke-linecap:square;stroke-width:1.5;"/>
    </g>
    <g id="line2d_90"/>
    <g id="text_18">
     <!-- -4: 0/4 -->
     <g transform="translate(133.72 98.754603)scale(0.2 -0.2)">
      <use xlink:href="#DejaVuSans-2d"/>
      <use x="36.083984" xlink:href="#DejaVuSans-34"/>
      <use x="99.707031" xlink:href="#DejaVuSans-3a"/>
      <use x="133.398438" xlink:href="#DejaVuSans-20"/>
      <use x="165.185547" xlink:href="#DejaVuSans-30"/>
      <use x="228.808594" xlink:href="#DejaVuSans-2f"/>
      <use x="262.5" xlink:href="#DejaVuSans-34"/>
     </g>
    </g>
    <g id="line2d_91">
     <path d="M 77.72 121.110853 
L 117.72 121.110853 
" style="fill:none;stroke:#ff0000;stroke-linecap:square;stroke-width:3;"/>
    </g>
    <g id="line2d_92"/>
    <g id="text_19">
     <!-- -8: 0/4 -->
     <g transform="translate(133.72 128.110853)scale(0.2 -0.2)">
      <use xlink:href="#DejaVuSans-2d"/>
      <use x="36.083984" xlink:href="#DejaVuSans-38"/>
      <use x="99.707031" xlink:href="#DejaVuSans-3a"/>
      <use x="133.398438" xlink:href="#DejaVuSans-20"/>
      <use x="165.185547" xlink:href="#DejaVuSans-30"/>
      <use x="228.808594" xlink:href="#DejaVuSans-2f"/>
      <use x="262.5" xlink:href="#DejaVuSans-34"/>
     </g>
    </g>
   </g>
  </g>
 </g>
 <defs>
  <clipPath id="p4c738587a3">
   <rect height="284.434772" width="390.952" x="59.72" y="6.845228"/>
  </clipPath>
 </defs>
</svg>
