<?xml version="1.0" encoding="utf-8" standalone="no"?>
<!DOCTYPE svg PUBLIC "-//W3C//DTD SVG 1.1//EN"
  "http://www.w3.org/Graphics/SVG/1.1/DTD/svg11.dtd">
<!-- Created with matplotlib (http://matplotlib.org/) -->
<svg height="345.6pt" version="1.1" viewBox="0 0 460.8 345.6" width="460.8pt" xmlns="http://www.w3.org/2000/svg" xmlns:xlink="http://www.w3.org/1999/xlink">
 <defs>
  <style type="text/css">
*{stroke-linecap:butt;stroke-linejoin:round;}
  </style>
 </defs>
 <g id="figure_1">
  <g id="patch_1">
   <path d="M 0 345.6 
L 460.8 345.6 
L 460.8 0 
L 0 0 
z
" style="fill:#ffffff;"/>
  </g>
  <g id="axes_1">
   <g id="patch_2">
    <path d="M 59.72 291.28 
L 450.672 291.28 
L 450.672 6.845228 
L 59.72 6.845228 
z
" style="fill:#ffffff;"/>
   </g>
   <g id="line2d_1">
    <path clip-path="url(#p9676c3c09d)" d="M 259.894689 291.28 
L 259.894689 287.525086 
L 264.144601 287.525086 
L 264.144601 283.770171 
L 265.477694 283.770171 
L 265.477694 280.015257 
L 267.066754 280.015257 
L 267.066754 276.260342 
L 267.261555 276.260342 
L 267.261555 272.505428 
L 267.648683 272.505428 
L 267.648683 268.750513 
L 272.921905 268.750513 
L 272.921905 264.995599 
L 275.265026 264.995599 
L 275.265026 261.240684 
L 278.416679 261.240684 
L 278.416679 257.48577 
L 283.046547 257.48577 
L 283.046547 253.730855 
L 284.335327 253.730855 
L 284.335327 249.975941 
L 292.125711 249.975941 
L 292.125711 246.221026 
L 301.061223 246.221026 
L 301.061223 242.466112 
L 307.334631 242.466112 
L 307.334631 238.711197 
L 308.255083 238.711197 
L 308.255083 234.956283 
L 309.118492 234.956283 
L 309.118492 231.201368 
L 310.004031 231.201368 
L 310.004031 227.446454 
L 310.345927 227.446454 
L 310.345927 223.691539 
L 313.666316 223.691539 
L 313.666316 219.936625 
L 314.744483 219.936625 
L 314.744483 216.18171 
L 330.393855 216.18171 
L 330.393855 212.426796 
L 331.574179 212.426796 
L 331.574179 208.671881 
L 333.02523 208.671881 
L 333.02523 204.916967 
L 336.098492 204.916967 
L 336.098492 201.162052 
L 347.107287 201.162052 
L 347.107287 197.407138 
L 351.998034 197.407138 
L 351.998034 193.652223 
L 355.733926 193.652223 
L 355.733926 189.897309 
L 369.442958 189.897309 
L 369.442958 186.142394 
L 369.442958 186.142394 
L 369.442958 186.142394 
L 450.672 186.142394 
" style="fill:none;stroke:#f5deb3;stroke-linecap:square;stroke-width:1.5;"/>
   </g>
   <g id="line2d_2">
    <path clip-path="url(#p9676c3c09d)" d="M 349.126842 291.28 
L 349.126842 280.015257 
L 370.560556 280.015257 
L 370.560556 268.750513 
L 386.563164 268.750513 
L 386.563164 257.48577 
L 437.839193 257.48577 
L 437.839193 246.221026 
L 461.8 246.221026 
" style="fill:none;stroke:#f5deb3;stroke-linecap:square;stroke-width:1.5;"/>
   </g>
   <g id="line2d_3">
    <path clip-path="url(#p9676c3c09d)" d="M 214.784019 291.28 
L 214.784019 287.525086 
L 220.266528 287.525086 
L 220.266528 283.770171 
L 263.410335 283.770171 
L 263.410335 280.015257 
L 265.173492 280.015257 
L 265.173492 276.260342 
L 267.841024 276.260342 
L 267.841024 272.505428 
L 275.590158 272.505428 
L 275.590158 268.750513 
L 280.281462 268.750513 
L 280.281462 264.995599 
L 284.335327 264.995599 
L 284.335327 261.240684 
L 287.749297 261.240684 
L 287.749297 257.48577 
L 288.304507 257.48577 
L 288.304507 253.730855 
L 293.459553 253.730855 
L 293.459553 249.975941 
L 296.015792 249.975941 
L 296.015792 246.221026 
L 303.543262 246.221026 
L 303.543262 242.466112 
L 305.730186 242.466112 
L 305.730186 238.711197 
L 313.736648 238.711197 
L 313.736648 234.956283 
L 323.307362 234.956283 
L 323.307362 231.201368 
L 333.620279 231.201368 
L 333.620279 227.446454 
L 346.373648 227.446454 
L 346.373648 223.691539 
L 347.141125 223.691539 
L 347.141125 219.936625 
L 349.561977 219.936625 
L 349.561977 216.18171 
L 354.107898 216.18171 
L 354.107898 212.426796 
L 359.096214 212.426796 
L 359.096214 208.671881 
L 360.151425 208.671881 
L 360.151425 204.916967 
L 375.663289 204.916967 
L 375.663289 201.162052 
L 379.659174 201.162052 
L 379.659174 197.407138 
L 414.755145 197.407138 
L 414.755145 193.652223 
L 417.543772 193.652223 
L 417.543772 189.897309 
L 418.21601 189.897309 
L 418.21601 186.142394 
L 430.604684 186.142394 
L 430.604684 182.38748 
L 449.966906 182.38748 
L 449.966906 178.632565 
L 449.966906 178.632565 
L 449.966906 178.632565 
L 450.672 178.632565 
" style="fill:none;stroke:#f5deb3;stroke-linecap:square;stroke-width:1.5;"/>
   </g>
   <g id="line2d_4">
    <path clip-path="url(#p9676c3c09d)" d="M 250.127566 291.28 
L 250.127566 287.525086 
L 273.856802 287.525086 
L 273.856802 283.770171 
L 273.940851 283.770171 
L 273.940851 280.015257 
L 277.181986 280.015257 
L 277.181986 276.260342 
L 313.313021 276.260342 
L 313.313021 272.505428 
L 314.641249 272.505428 
L 314.641249 268.750513 
L 319.567751 268.750513 
L 319.567751 264.995599 
L 319.87599 264.995599 
L 319.87599 261.240684 
L 324.461051 261.240684 
L 324.461051 257.48577 
L 337.414667 257.48577 
L 337.414667 253.730855 
L 339.119298 253.730855 
L 339.119298 249.975941 
L 342.722962 249.975941 
L 342.722962 246.221026 
L 342.853186 246.221026 
L 342.853186 242.466112 
L 347.444541 242.466112 
L 347.444541 238.711197 
L 348.309923 238.711197 
L 348.309923 234.956283 
L 350.008893 234.956283 
L 350.008893 231.201368 
L 355.621688 231.201368 
L 355.621688 227.446454 
L 373.130505 227.446454 
L 373.130505 223.691539 
L 385.377709 223.691539 
L 385.377709 219.936625 
L 385.909184 219.936625 
L 385.909184 216.18171 
L 392.119262 216.18171 
L 392.119262 212.426796 
L 394.194336 212.426796 
L 394.194336 208.671881 
L 405.872734 208.671881 
L 405.872734 204.916967 
L 409.72654 204.916967 
L 409.72654 201.162052 
L 414.185749 201.162052 
L 414.185749 197.407138 
L 418.592718 197.407138 
L 418.592718 193.652223 
L 433.155074 193.652223 
L 433.155074 189.897309 
L 438.792947 189.897309 
L 438.792947 186.142394 
L 457.139473 186.142394 
L 457.139473 182.38748 
L 458.189723 182.38748 
L 458.189723 178.632565 
L 460.209062 178.632565 
L 460.209062 174.877651 
L 461.8 174.877651 
" style="fill:none;stroke:#f5deb3;stroke-linecap:square;stroke-width:1.5;"/>
   </g>
   <g id="line2d_5">
    <path clip-path="url(#p9676c3c09d)" d="M 378.217433 291.28 
L 378.217433 287.525086 
L 378.217433 287.525086 
L 378.217433 287.525086 
L 450.672 287.525086 
" style="fill:none;stroke:#f5deb3;stroke-linecap:square;stroke-width:1.5;"/>
   </g>
   <g id="line2d_6"/>
   <g id="line2d_7">
    <path clip-path="url(#p9676c3c09d)" d="M 277.803504 291.28 
L 277.803504 287.525086 
L 285.783545 287.525086 
L 285.783545 283.770171 
L 288.120186 283.770171 
L 288.120186 280.015257 
L 292.963915 280.015257 
L 292.963915 276.260342 
L 303.057526 276.260342 
L 303.057526 272.505428 
L 368.921005 272.505428 
L 368.921005 268.750513 
L 385.822241 268.750513 
L 385.822241 264.995599 
L 389.991781 264.995599 
L 389.991781 261.240684 
L 390.993493 261.240684 
L 390.993493 257.48577 
L 396.022879 257.48577 
L 396.022879 253.730855 
L 408.665765 253.730855 
L 408.665765 249.975941 
L 411.517349 249.975941 
L 411.517349 246.221026 
L 412.993217 246.221026 
L 412.993217 242.466112 
L 413.256508 242.466112 
L 413.256508 238.711197 
L 415.004673 238.711197 
L 415.004673 234.956283 
L 417.147319 234.956283 
L 417.147319 231.201368 
L 422.77992 231.201368 
L 422.77992 227.446454 
L 424.222961 227.446454 
L 424.222961 223.691539 
L 425.721837 223.691539 
L 425.721837 219.936625 
L 433.139632 219.936625 
L 433.139632 216.18171 
L 435.008225 216.18171 
L 435.008225 212.426796 
L 436.853237 212.426796 
L 436.853237 208.671881 
L 441.975066 208.671881 
L 441.975066 204.916967 
L 446.20842 204.916967 
L 446.20842 201.162052 
L 450.600046 201.162052 
L 450.600046 197.407138 
L 461.8 197.407138 
" style="fill:none;stroke:#f5deb3;stroke-linecap:square;stroke-width:1.5;"/>
   </g>
   <g id="line2d_8">
    <path clip-path="url(#p9676c3c09d)" d="M 430.512081 291.28 
L 430.512081 287.525086 
L 438.487159 287.525086 
L 438.487159 283.770171 
L 441.781616 283.770171 
L 441.781616 280.015257 
L 444.640762 280.015257 
L 444.640762 276.260342 
L 445.37129 276.260342 
L 445.37129 272.505428 
L 446.478322 272.505428 
L 446.478322 268.750513 
L 451.343917 268.750513 
L 451.343917 264.995599 
L 461.8 264.995599 
" style="fill:none;stroke:#f5deb3;stroke-linecap:square;stroke-width:1.5;"/>
   </g>
   <g id="line2d_9">
    <path clip-path="url(#p9676c3c09d)" d="M 266.969041 291.28 
L 266.969041 287.525086 
L 272.490544 287.525086 
L 272.490544 283.770171 
L 287.250048 283.770171 
L 287.250048 280.015257 
L 288.426976 280.015257 
L 288.426976 276.260342 
L 332.956069 276.260342 
L 332.956069 272.505428 
L 338.34675 272.505428 
L 338.34675 268.750513 
L 343.790922 268.750513 
L 343.790922 264.995599 
L 347.962413 264.995599 
L 347.962413 261.240684 
L 354.956661 261.240684 
L 354.956661 257.48577 
L 372.280065 257.48577 
L 372.280065 253.730855 
L 373.824164 253.730855 
L 373.824164 249.975941 
L 373.86187 249.975941 
L 373.86187 246.221026 
L 387.243078 246.221026 
L 387.243078 242.466112 
L 390.753255 242.466112 
L 390.753255 238.711197 
L 403.349616 238.711197 
L 403.349616 234.956283 
L 408.383402 234.956283 
L 408.383402 231.201368 
L 411.401502 231.201368 
L 411.401502 227.446454 
L 413.240594 227.446454 
L 413.240594 223.691539 
L 418.022902 223.691539 
L 418.022902 219.936625 
L 420.988543 219.936625 
L 420.988543 216.18171 
L 425.004698 216.18171 
L 425.004698 212.426796 
L 425.007774 212.426796 
L 425.007774 208.671881 
L 428.414393 208.671881 
L 428.414393 204.916967 
L 434.738107 204.916967 
L 434.738107 201.162052 
L 437.815964 201.162052 
L 437.815964 197.407138 
L 440.951814 197.407138 
L 440.951814 193.652223 
L 445.084839 193.652223 
L 445.084839 189.897309 
L 455.056129 189.897309 
L 455.056129 186.142394 
L 456.792646 186.142394 
L 456.792646 182.38748 
L 458.49069 182.38748 
L 458.49069 178.632565 
L 461.8 178.632565 
" style="fill:none;stroke:#f5deb3;stroke-linecap:square;stroke-width:1.5;"/>
   </g>
   <g id="line2d_10">
    <path clip-path="url(#p9676c3c09d)" d="M 410.805231 291.28 
L 410.805231 287.525086 
L 430.623727 287.525086 
L 430.623727 283.770171 
L 436.051273 283.770171 
L 436.051273 280.015257 
L 440.274303 280.015257 
L 440.274303 276.260342 
L 453.638802 276.260342 
L 453.638802 272.505428 
L 456.484874 272.505428 
L 456.484874 268.750513 
L 458.00042 268.750513 
L 458.00042 264.995599 
L 459.142132 264.995599 
L 459.142132 261.240684 
L 461.8 261.240684 
" style="fill:none;stroke:#f5deb3;stroke-linecap:square;stroke-width:1.5;"/>
   </g>
   <g id="line2d_11">
    <path clip-path="url(#p9676c3c09d)" d="M 345.400199 291.28 
L 345.400199 287.525086 
L 383.858844 287.525086 
L 383.858844 283.770171 
L 401.210187 283.770171 
L 401.210187 280.015257 
L 409.437706 280.015257 
L 409.437706 276.260342 
L 413.387586 276.260342 
L 413.387586 272.505428 
L 417.529284 272.505428 
L 417.529284 268.750513 
L 419.089043 268.750513 
L 419.089043 264.995599 
L 420.580359 264.995599 
L 420.580359 261.240684 
L 432.166666 261.240684 
L 432.166666 257.48577 
L 434.185484 257.48577 
L 434.185484 253.730855 
L 434.25587 253.730855 
L 434.25587 249.975941 
L 437.061588 249.975941 
L 437.061588 246.221026 
L 444.654767 246.221026 
L 444.654767 242.466112 
L 445.18184 242.466112 
L 445.18184 238.711197 
L 448.783464 238.711197 
L 448.783464 234.956283 
L 449.618312 234.956283 
L 449.618312 231.201368 
L 450.286342 231.201368 
L 450.286342 227.446454 
L 450.820812 227.446454 
L 450.820812 223.691539 
L 451.804684 223.691539 
L 451.804684 219.936625 
L 457.253487 219.936625 
L 457.253487 216.18171 
L 461.8 216.18171 
" style="fill:none;stroke:#f5deb3;stroke-linecap:square;stroke-width:1.5;"/>
   </g>
   <g id="line2d_12">
    <path clip-path="url(#p9676c3c09d)" d="M 271.082159 291.28 
L 271.082159 287.525086 
L 275.18338 287.525086 
L 275.18338 283.770171 
L 277.103699 283.770171 
L 277.103699 280.015257 
L 293.841365 280.015257 
L 293.841365 276.260342 
L 294.166112 276.260342 
L 294.166112 272.505428 
L 311.688481 272.505428 
L 311.688481 268.750513 
L 314.051811 268.750513 
L 314.051811 264.995599 
L 315.69691 264.995599 
L 315.69691 261.240684 
L 316.695802 261.240684 
L 316.695802 257.48577 
L 322.444348 257.48577 
L 322.444348 253.730855 
L 330.41825 253.730855 
L 330.41825 249.975941 
L 332.840567 249.975941 
L 332.840567 246.221026 
L 334.609957 246.221026 
L 334.609957 242.466112 
L 336.824957 242.466112 
L 336.824957 238.711197 
L 336.951966 238.711197 
L 336.951966 234.956283 
L 337.204929 234.956283 
L 337.204929 231.201368 
L 339.42069 231.201368 
L 339.42069 227.446454 
L 344.531075 227.446454 
L 344.531075 223.691539 
L 354.267343 223.691539 
L 354.267343 219.936625 
L 364.283857 219.936625 
L 364.283857 216.18171 
L 374.655852 216.18171 
L 374.655852 212.426796 
L 379.948739 212.426796 
L 379.948739 208.671881 
L 384.423138 208.671881 
L 384.423138 204.916967 
L 387.460489 204.916967 
L 387.460489 201.162052 
L 401.914129 201.162052 
L 401.914129 197.407138 
L 408.192705 197.407138 
L 408.192705 193.652223 
L 415.290907 193.652223 
L 415.290907 189.897309 
L 416.105378 189.897309 
L 416.105378 186.142394 
L 430.490264 186.142394 
L 430.490264 182.38748 
L 431.075681 182.38748 
L 431.075681 178.632565 
L 431.075681 178.632565 
L 431.075681 178.632565 
L 450.672 178.632565 
" style="fill:none;stroke:#f5deb3;stroke-linecap:square;stroke-width:1.5;"/>
   </g>
   <g id="line2d_13">
    <path clip-path="url(#p9676c3c09d)" d="M 345.593056 291.28 
L 345.593056 287.525086 
L 361.393749 287.525086 
L 361.393749 283.770171 
L 367.383575 283.770171 
L 367.383575 280.015257 
L 368.742173 280.015257 
L 368.742173 276.260342 
L 374.923613 276.260342 
L 374.923613 272.505428 
L 379.89923 272.505428 
L 379.89923 268.750513 
L 383.994912 268.750513 
L 383.994912 264.995599 
L 384.318331 264.995599 
L 384.318331 261.240684 
L 384.318331 261.240684 
L 384.318331 257.48577 
L 387.221983 257.48577 
L 387.221983 253.730855 
L 403.811738 253.730855 
L 403.811738 249.975941 
L 403.811738 249.975941 
L 403.811738 249.975941 
L 450.672 249.975941 
" style="fill:none;stroke:#f5deb3;stroke-linecap:square;stroke-width:1.5;"/>
   </g>
   <g id="line2d_14">
    <path clip-path="url(#p9676c3c09d)" d="M 229.58141 291.28 
L 229.58141 287.525086 
L 242.444937 287.525086 
L 242.444937 283.770171 
L 310.797843 283.770171 
L 310.797843 280.015257 
L 354.411811 280.015257 
L 354.411811 276.260342 
L 365.078727 276.260342 
L 365.078727 272.505428 
L 370.459156 272.505428 
L 370.459156 268.750513 
L 371.898042 268.750513 
L 371.898042 264.995599 
L 380.59566 264.995599 
L 380.59566 261.240684 
L 381.640666 261.240684 
L 381.640666 257.48577 
L 387.299283 257.48577 
L 387.299283 253.730855 
L 390.459361 253.730855 
L 390.459361 249.975941 
L 391.090528 249.975941 
L 391.090528 246.221026 
L 391.44457 246.221026 
L 391.44457 242.466112 
L 393.788012 242.466112 
L 393.788012 238.711197 
L 397.281542 238.711197 
L 397.281542 234.956283 
L 401.801816 234.956283 
L 401.801816 231.201368 
L 406.166352 231.201368 
L 406.166352 227.446454 
L 428.125173 227.446454 
L 428.125173 223.691539 
L 428.772653 223.691539 
L 428.772653 219.936625 
L 430.391961 219.936625 
L 430.391961 216.18171 
L 431.432449 216.18171 
L 431.432449 212.426796 
L 443.930891 212.426796 
L 443.930891 208.671881 
L 448.163373 208.671881 
L 448.163373 204.916967 
L 453.386681 204.916967 
L 453.386681 201.162052 
L 456.362731 201.162052 
L 456.362731 197.407138 
L 460.325613 197.407138 
L 460.325613 193.652223 
L 461.8 193.652223 
" style="fill:none;stroke:#f5deb3;stroke-linecap:square;stroke-width:1.5;"/>
   </g>
   <g id="line2d_15">
    <path clip-path="url(#p9676c3c09d)" style="fill:none;stroke:#f5deb3;stroke-linecap:square;stroke-width:1.5;"/>
   </g>
   <g id="line2d_16">
    <path clip-path="url(#p9676c3c09d)" d="M 352.40678 291.28 
L 352.40678 287.525086 
L 445.514826 287.525086 
L 445.514826 283.770171 
L 461.8 283.770171 
" style="fill:none;stroke:#f5deb3;stroke-linecap:square;stroke-width:1.5;"/>
   </g>
   <g id="line2d_17">
    <path clip-path="url(#p9676c3c09d)" d="M 363.309013 291.28 
L 363.309013 287.525086 
L 366.039275 287.525086 
L 366.039275 283.770171 
L 387.72559 283.770171 
L 387.72559 280.015257 
L 461.8 280.015257 
" style="fill:none;stroke:#f5deb3;stroke-linecap:square;stroke-width:1.5;"/>
   </g>
   <g id="line2d_18">
    <path clip-path="url(#p9676c3c09d)" d="M 241.258355 291.28 
L 241.258355 287.525086 
L 262.878538 287.525086 
L 262.878538 283.770171 
L 271.879711 283.770171 
L 271.879711 280.015257 
L 273.772597 280.015257 
L 273.772597 276.260342 
L 274.192075 276.260342 
L 274.192075 272.505428 
L 288.120186 272.505428 
L 288.120186 268.750513 
L 296.684179 268.750513 
L 296.684179 264.995599 
L 298.338191 264.995599 
L 298.338191 261.240684 
L 301.660173 261.240684 
L 301.660173 257.48577 
L 306.312646 257.48577 
L 306.312646 253.730855 
L 316.199086 253.730855 
L 316.199086 249.975941 
L 317.219746 249.975941 
L 317.219746 246.221026 
L 319.163905 246.221026 
L 319.163905 242.466112 
L 319.845259 242.466112 
L 319.845259 238.711197 
L 333.209149 238.711197 
L 333.209149 234.956283 
L 335.228769 234.956283 
L 335.228769 231.201368 
L 335.709165 231.201368 
L 335.709165 227.446454 
L 336.270468 227.446454 
L 336.270468 223.691539 
L 337.414667 223.691539 
L 337.414667 219.936625 
L 350.765007 219.936625 
L 350.765007 216.18171 
L 351.600939 216.18171 
L 351.600939 212.426796 
L 358.202287 212.426796 
L 358.202287 208.671881 
L 361.640673 208.671881 
L 361.640673 204.916967 
L 369.266162 204.916967 
L 369.266162 201.162052 
L 381.024591 201.162052 
L 381.024591 197.407138 
L 385.385031 197.407138 
L 385.385031 193.652223 
L 389.136534 193.652223 
L 389.136534 189.897309 
L 394.399157 189.897309 
L 394.399157 186.142394 
L 413.037204 186.142394 
L 413.037204 182.38748 
L 420.339138 182.38748 
L 420.339138 178.632565 
L 420.339138 178.632565 
L 420.339138 178.632565 
L 450.672 178.632565 
" style="fill:none;stroke:#f5deb3;stroke-linecap:square;stroke-width:1.5;"/>
   </g>
   <g id="line2d_19">
    <path clip-path="url(#p9676c3c09d)" d="M 408.62176 291.28 
L 408.62176 287.158752 
L 412.78872 287.158752 
L 412.78872 283.037505 
L 416.776868 283.037505 
L 416.776868 278.916257 
L 421.721478 278.916257 
L 421.721478 274.79501 
L 422.931443 274.79501 
L 422.931443 270.673762 
L 423.309661 270.673762 
L 423.309661 266.552514 
L 427.032083 266.552514 
L 427.032083 262.431267 
L 427.205344 262.431267 
L 427.205344 258.310019 
L 428.050423 258.310019 
L 428.050423 254.188772 
L 429.927634 254.188772 
L 429.927634 250.067524 
L 432.290082 250.067524 
L 432.290082 245.946276 
L 433.095853 245.946276 
L 433.095853 241.825029 
L 433.293812 241.825029 
L 433.293812 237.703781 
L 433.783719 237.703781 
L 433.783719 233.582534 
L 436.207983 233.582534 
L 436.207983 229.461286 
L 444.162002 229.461286 
L 444.162002 225.340038 
L 445.905781 225.340038 
L 445.905781 221.218791 
L 452.387696 221.218791 
L 452.387696 217.097543 
L 457.04043 217.097543 
L 457.04043 212.976295 
L 458.495123 212.976295 
L 458.495123 208.855048 
L 459.367379 208.855048 
L 459.367379 204.7338 
L 459.79734 204.7338 
L 459.800212 196.491305 
L 461.8 196.491305 
L 461.8 196.491305 
" style="fill:none;stroke:#f5deb3;stroke-linecap:square;stroke-width:1.5;"/>
   </g>
   <g id="line2d_20">
    <path clip-path="url(#p9676c3c09d)" d="M 235.791979 291.28 
L 235.791979 287.525086 
L 235.791979 287.525086 
L 235.791979 283.770171 
L 240.566207 283.770171 
L 240.566207 280.015257 
L 243.109397 280.015257 
L 243.109397 276.260342 
L 258.148712 276.260342 
L 258.148712 272.505428 
L 279.021732 272.505428 
L 279.021732 268.750513 
L 284.268396 268.750513 
L 284.268396 264.995599 
L 292.294587 264.995599 
L 292.294587 261.240684 
L 302.160915 261.240684 
L 302.160915 257.48577 
L 313.419296 257.48577 
L 313.419296 253.730855 
L 314.950253 253.730855 
L 314.950253 249.975941 
L 317.31732 249.975941 
L 317.31732 246.221026 
L 319.163905 246.221026 
L 319.163905 242.466112 
L 323.078814 242.466112 
L 323.078814 238.711197 
L 323.193231 238.711197 
L 323.193231 234.956283 
L 330.903447 234.956283 
L 330.903447 231.201368 
L 334.543156 231.201368 
L 334.543156 227.446454 
L 335.360288 227.446454 
L 335.360288 223.691539 
L 336.184561 223.691539 
L 336.184561 219.936625 
L 337.351847 219.936625 
L 337.351847 216.18171 
L 341.014713 216.18171 
L 341.014713 212.426796 
L 345.29466 212.426796 
L 345.29466 208.671881 
L 352.497118 208.671881 
L 352.497118 204.916967 
L 352.512157 204.916967 
L 352.512157 201.162052 
L 354.368519 201.162052 
L 354.368519 197.407138 
L 367.001945 197.407138 
L 367.001945 193.652223 
L 368.318611 193.652223 
L 368.318611 189.897309 
L 370.071769 189.897309 
L 370.071769 186.142394 
L 392.596941 186.142394 
L 392.596941 182.38748 
L 394.561156 182.38748 
L 394.561156 178.632565 
L 461.8 178.632565 
" style="fill:none;stroke:#f5deb3;stroke-linecap:square;stroke-width:1.5;"/>
   </g>
   <g id="line2d_21">
    <path clip-path="url(#p9676c3c09d)" d="M 435.000812 291.28 
L 435.000812 287.525086 
L 458.93626 287.525086 
L 458.93626 283.770171 
L 461.8 283.770171 
" style="fill:none;stroke:#f5deb3;stroke-linecap:square;stroke-width:1.5;"/>
   </g>
   <g id="line2d_22">
    <path clip-path="url(#p9676c3c09d)" d="M 218.886337 291.28 
L 218.886337 287.525086 
L 225.888018 287.525086 
L 225.888018 283.770171 
L 235.01109 283.770171 
L 235.01109 280.015257 
L 236.177473 280.015257 
L 236.177473 276.260342 
L 243.109397 276.260342 
L 243.109397 272.505428 
L 246.905145 272.505428 
L 246.905145 268.750513 
L 304.327128 268.750513 
L 304.327128 264.995599 
L 333.02523 264.995599 
L 333.02523 261.240684 
L 335.360288 261.240684 
L 335.360288 257.48577 
L 339.680298 257.48577 
L 339.680298 253.730855 
L 342.405148 253.730855 
L 342.405148 249.975941 
L 350.998749 249.975941 
L 350.998749 246.221026 
L 354.913882 246.221026 
L 354.913882 242.466112 
L 363.746154 242.466112 
L 363.746154 238.711197 
L 368.763249 238.711197 
L 368.763249 234.956283 
L 374.134312 234.956283 
L 374.134312 231.201368 
L 396.742278 231.201368 
L 396.742278 227.446454 
L 397.405522 227.446454 
L 397.405522 223.691539 
L 401.205009 223.691539 
L 401.205009 219.936625 
L 402.697697 219.936625 
L 402.697697 216.18171 
L 406.333291 216.18171 
L 406.333291 212.426796 
L 416.971638 212.426796 
L 416.971638 208.671881 
L 428.519888 208.671881 
L 428.519888 204.916967 
L 435.937624 204.916967 
L 435.937624 201.162052 
L 436.903044 201.162052 
L 436.903044 197.407138 
L 437.753185 197.407138 
L 437.753185 193.652223 
L 453.569731 193.652223 
L 453.569731 189.897309 
L 461.8 189.897309 
" style="fill:none;stroke:#f5deb3;stroke-linecap:square;stroke-width:1.5;"/>
   </g>
   <g id="line2d_23">
    <path clip-path="url(#p9676c3c09d)" d="M 355.098969 291.28 
L 355.098969 287.525086 
L 362.264354 287.525086 
L 362.264354 283.770171 
L 365.544573 283.770171 
L 365.544573 280.015257 
L 366.428998 280.015257 
L 366.428998 276.260342 
L 368.105348 276.260342 
L 368.105348 272.505428 
L 371.453239 272.505428 
L 371.453239 268.750513 
L 388.655144 268.750513 
L 388.655144 264.995599 
L 393.069678 264.995599 
L 393.069678 261.240684 
L 393.322689 261.240684 
L 393.322689 257.48577 
L 395.191657 257.48577 
L 395.191657 253.730855 
L 403.645126 253.730855 
L 403.645126 249.975941 
L 406.857941 249.975941 
L 406.857941 246.221026 
L 414.056944 246.221026 
L 414.056944 242.466112 
L 421.279793 242.466112 
L 421.279793 238.711197 
L 424.254239 238.711197 
L 424.254239 234.956283 
L 429.891721 234.956283 
L 429.891721 231.201368 
L 445.070965 231.201368 
L 445.070965 227.446454 
L 445.112575 227.446454 
L 445.112575 223.691539 
L 448.244814 223.691539 
L 448.244814 219.936625 
L 453.781547 219.936625 
L 453.781547 216.18171 
L 461.8 216.18171 
" style="fill:none;stroke:#f5deb3;stroke-linecap:square;stroke-width:1.5;"/>
   </g>
   <g id="line2d_24">
    <path clip-path="url(#p9676c3c09d)" d="M 306.477708 291.28 
L 306.477708 287.525086 
L 308.016747 287.525086 
L 308.016747 283.770171 
L 315.291156 283.770171 
L 315.291156 280.015257 
L 316.53083 280.015257 
L 316.53083 276.260342 
L 323.478025 276.260342 
L 323.478025 272.505428 
L 324.51659 272.505428 
L 324.51659 268.750513 
L 334.942506 268.750513 
L 334.942506 264.995599 
L 362.252206 264.995599 
L 362.252206 261.240684 
L 392.38386 261.240684 
L 392.38386 257.48577 
L 393.433326 257.48577 
L 393.433326 253.730855 
L 394.990367 253.730855 
L 394.990367 249.975941 
L 396.53625 249.975941 
L 396.53625 246.221026 
L 398.599752 246.221026 
L 398.599752 242.466112 
L 399.57074 242.466112 
L 399.57074 238.711197 
L 399.832982 238.711197 
L 399.832982 234.956283 
L 402.847815 234.956283 
L 402.847815 231.201368 
L 412.909123 231.201368 
L 412.909123 227.446454 
L 413.735302 227.446454 
L 413.735302 223.691539 
L 414.997016 223.691539 
L 414.997016 219.936625 
L 425.930281 219.936625 
L 425.930281 216.18171 
L 432.203463 216.18171 
L 432.203463 212.426796 
L 433.478143 212.426796 
L 433.478143 208.671881 
L 434.943938 208.671881 
L 434.943938 204.916967 
L 435.146383 204.916967 
L 435.146383 201.162052 
L 438.070841 201.162052 
L 438.070841 197.407138 
L 445.489298 197.407138 
L 445.489298 193.652223 
L 447.444504 193.652223 
L 447.444504 189.897309 
L 448.17634 189.897309 
L 448.17634 186.142394 
L 454.912523 186.142394 
L 454.912523 182.38748 
L 459.149415 182.38748 
L 459.149415 178.632565 
L 461.15974 178.632565 
L 461.15974 174.877651 
L 461.8 174.877651 
" style="fill:none;stroke:#f5deb3;stroke-linecap:square;stroke-width:1.5;"/>
   </g>
   <g id="line2d_25">
    <path clip-path="url(#p9676c3c09d)" d="M 457.569713 291.28 
L 457.569713 287.525086 
L 460.681945 287.525086 
L 460.681945 283.770171 
L 461.8 283.770171 
" style="fill:none;stroke:#f5deb3;stroke-linecap:square;stroke-width:1.5;"/>
   </g>
   <g id="line2d_26">
    <path clip-path="url(#p9676c3c09d)" d="M 324.461051 291.28 
L 324.461051 287.525086 
L 326.125333 287.525086 
L 326.125333 283.770171 
L 326.525459 283.770171 
L 326.525459 280.015257 
L 327.053568 280.015257 
L 327.053568 276.260342 
L 327.263113 276.260342 
L 327.263113 272.505428 
L 328.449695 272.505428 
L 328.449695 268.750513 
L 329.30734 268.750513 
L 329.30734 264.995599 
L 329.606234 264.995599 
L 329.606234 261.240684 
L 333.277928 261.240684 
L 333.277928 257.48577 
L 344.117345 257.48577 
L 344.117345 253.730855 
L 345.171222 253.730855 
L 345.171222 249.975941 
L 346.459562 249.975941 
L 346.459562 246.221026 
L 346.937722 246.221026 
L 346.937722 242.466112 
L 350.341234 242.466112 
L 350.341234 238.711197 
L 359.368782 238.711197 
L 359.368782 234.956283 
L 360.214985 234.956283 
L 360.214985 231.201368 
L 360.240384 231.201368 
L 360.240384 227.446454 
L 360.883343 227.446454 
L 360.883343 223.691539 
L 362.867649 223.691539 
L 362.867649 219.936625 
L 363.166335 219.936625 
L 363.166335 216.18171 
L 364.225717 216.18171 
L 364.225717 212.426796 
L 377.037387 212.426796 
L 377.037387 208.671881 
L 380.13803 208.671881 
L 380.13803 204.916967 
L 380.252868 204.916967 
L 380.252868 201.162052 
L 381.337667 201.162052 
L 381.337667 197.407138 
L 383.149299 197.407138 
L 383.149299 193.652223 
L 389.324993 193.652223 
L 389.324993 189.897309 
L 389.559477 189.897309 
L 389.559477 186.142394 
L 393.353449 186.142394 
L 393.353449 182.38748 
L 394.525206 182.38748 
L 394.525206 178.632565 
L 405.966151 178.632565 
L 405.966151 174.877651 
L 407.344953 174.877651 
L 407.344953 171.122736 
L 411.900031 171.122736 
L 411.900031 167.367822 
L 415.054416 167.367822 
L 415.054416 163.612907 
L 436.829501 163.612907 
L 436.829501 159.857993 
L 439.38049 159.857993 
L 439.38049 156.103079 
L 461.8 156.103079 
" style="fill:none;stroke:#f5deb3;stroke-linecap:square;stroke-width:1.5;"/>
   </g>
   <g id="line2d_27">
    <path clip-path="url(#p9676c3c09d)" d="M 261.466176 291.28 
L 261.466176 287.525086 
L 272.229758 287.525086 
L 272.229758 283.770171 
L 313.348473 283.770171 
L 313.348473 280.015257 
L 328.500593 280.015257 
L 328.500593 276.260342 
L 356.964321 276.260342 
L 356.964321 272.505428 
L 375.052318 272.505428 
L 375.052318 268.750513 
L 381.137225 268.750513 
L 381.137225 264.995599 
L 382.2799 264.995599 
L 382.2799 261.240684 
L 382.755463 261.240684 
L 382.755463 257.48577 
L 392.665667 257.48577 
L 392.665667 253.730855 
L 395.778596 253.730855 
L 395.778596 249.975941 
L 395.790258 249.975941 
L 395.790258 246.221026 
L 399.247563 246.221026 
L 399.247563 242.466112 
L 402.917701 242.466112 
L 402.917701 238.711197 
L 405.854027 238.711197 
L 405.854027 234.956283 
L 409.068628 234.956283 
L 409.068628 231.201368 
L 409.203578 231.201368 
L 409.203578 227.446454 
L 411.018781 227.446454 
L 411.018781 223.691539 
L 415.111744 223.691539 
L 415.111744 219.936625 
L 420.243657 219.936625 
L 420.243657 216.18171 
L 426.263621 216.18171 
L 426.263621 212.426796 
L 430.293446 212.426796 
L 430.293446 208.671881 
L 430.759512 208.671881 
L 430.759512 204.916967 
L 444.95187 204.916967 
L 444.95187 201.162052 
L 445.469651 201.162052 
L 445.469651 197.407138 
L 446.82492 197.407138 
L 446.82492 193.652223 
L 450.062972 193.652223 
L 450.062972 189.897309 
L 452.916639 189.897309 
L 452.916639 186.142394 
L 454.174654 186.142394 
L 454.174654 182.38748 
L 459.91781 182.38748 
L 459.91781 178.632565 
L 461.8 178.632565 
" style="fill:none;stroke:#f5deb3;stroke-linecap:square;stroke-width:1.5;"/>
   </g>
   <g id="line2d_28">
    <path clip-path="url(#p9676c3c09d)" d="M 280.135049 291.28 
L 280.135049 287.525086 
L 280.862467 287.525086 
L 280.862467 283.770171 
L 290.401701 283.770171 
L 290.401701 280.015257 
L 301.292518 280.015257 
L 301.292518 276.260342 
L 323.36432 276.260342 
L 323.36432 272.505428 
L 350.905396 272.505428 
L 350.905396 268.750513 
L 367.307503 268.750513 
L 367.307503 264.995599 
L 393.927904 264.995599 
L 393.927904 261.240684 
L 396.605029 261.240684 
L 396.605029 257.48577 
L 398.949296 257.48577 
L 398.949296 253.730855 
L 398.987365 253.730855 
L 398.987365 249.975941 
L 401.090936 249.975941 
L 401.090936 246.221026 
L 401.524962 246.221026 
L 401.524962 242.466112 
L 404.42876 242.466112 
L 404.42876 238.711197 
L 410.281807 238.711197 
L 410.281807 234.956283 
L 411.875438 234.956283 
L 411.875438 231.201368 
L 431.765236 231.201368 
L 431.765236 227.446454 
L 433.139632 227.446454 
L 433.139632 223.691539 
L 433.826844 223.691539 
L 433.826844 219.936625 
L 434.215663 219.936625 
L 434.215663 216.18171 
L 434.993398 216.18171 
L 434.993398 212.426796 
L 436.215203 212.426796 
L 436.215203 208.671881 
L 437.447361 208.671881 
L 437.447361 204.916967 
L 438.026918 204.916967 
L 438.026918 201.162052 
L 438.777023 201.162052 
L 438.777023 197.407138 
L 444.164025 197.407138 
L 444.164025 193.652223 
L 444.265017 193.652223 
L 444.265017 189.897309 
L 449.299576 189.897309 
L 449.299576 186.142394 
L 450.557875 186.142394 
L 450.557875 182.38748 
L 450.719322 182.38748 
L 450.719322 178.632565 
L 454.81173 178.632565 
L 454.81173 174.877651 
L 455.138896 174.877651 
L 455.138896 171.122736 
L 461.8 171.122736 
" style="fill:none;stroke:#f5deb3;stroke-linecap:square;stroke-width:1.5;"/>
   </g>
   <g id="line2d_29">
    <path clip-path="url(#p9676c3c09d)" d="M 275.509092 291.28 
L 275.509092 287.525086 
L 275.509092 287.525086 
L 275.509092 283.770171 
L 275.509092 283.770171 
L 275.509092 280.015257 
L 307.536313 280.015257 
L 307.536313 276.260342 
L 307.536313 276.260342 
L 307.536313 272.505428 
L 307.536313 272.505428 
L 307.536313 268.750513 
L 314.260717 268.750513 
L 314.260717 264.995599 
L 314.260717 264.995599 
L 314.260717 261.240684 
L 314.260717 261.240684 
L 314.260717 257.48577 
L 354.325185 257.48577 
L 354.325185 253.730855 
L 354.325185 253.730855 
L 354.325185 249.975941 
L 354.325185 249.975941 
L 354.325185 246.221026 
L 397.792199 246.221026 
L 397.792199 242.466112 
L 397.792199 242.466112 
L 397.792199 238.711197 
L 397.792199 238.711197 
L 397.792199 234.956283 
L 415.169 234.956283 
L 415.169 231.201368 
L 415.169 231.201368 
L 415.169 227.446454 
L 415.169 227.446454 
L 415.169 223.691539 
L 424.260492 223.691539 
L 424.260492 219.936625 
L 424.260492 219.936625 
L 424.260492 216.18171 
L 424.260492 216.18171 
L 424.260492 212.426796 
L 427.164291 212.426796 
L 427.164291 208.671881 
L 428.125173 208.671881 
L 428.125173 204.916967 
L 440.574959 204.916967 
L 440.574959 201.162052 
L 441.822074 201.162052 
L 441.822074 197.407138 
L 442.11909 197.407138 
L 442.11909 193.652223 
L 451.607536 193.652223 
L 451.607536 189.897309 
L 455.006716 189.897309 
L 455.006716 186.142394 
L 459.355781 186.142394 
L 459.355781 182.38748 
L 461.8 182.38748 
" style="fill:none;stroke:#f5deb3;stroke-linecap:square;stroke-width:1.5;"/>
   </g>
   <g id="line2d_30">
    <path clip-path="url(#p9676c3c09d)" d="M 387.711675 291.28 
L 387.711675 287.525086 
L 390.564073 287.525086 
L 390.564073 283.770171 
L 438.701881 283.770171 
L 438.701881 280.015257 
L 452.046951 280.015257 
L 452.046951 276.260342 
L 461.8 276.260342 
" style="fill:none;stroke:#f5deb3;stroke-linecap:square;stroke-width:1.5;"/>
   </g>
   <g id="matplotlib.axis_1">
    <g id="xtick_1">
     <g id="line2d_31">
      <path clip-path="url(#p9676c3c09d)" d="M 164.904038 291.28 
L 164.904038 6.845228 
" style="fill:none;stroke:#b0b0b0;stroke-linecap:square;stroke-width:0.8;"/>
     </g>
     <g id="line2d_32">
      <defs>
       <path d="M 0 0 
L 0 3.5 
" id="m7ffba8de21" style="stroke:#000000;stroke-width:0.8;"/>
      </defs>
      <g>
       <use style="stroke:#000000;stroke-width:0.8;" x="164.904038" xlink:href="#m7ffba8de21" y="291.28"/>
      </g>
     </g>
     <g id="text_1">
      <!-- 1 -->
      <defs>
       <path d="M 12.40625 8.296875 
L 28.515625 8.296875 
L 28.515625 63.921875 
L 10.984375 60.40625 
L 10.984375 69.390625 
L 28.421875 72.90625 
L 38.28125 72.90625 
L 38.28125 8.296875 
L 54.390625 8.296875 
L 54.390625 0 
L 12.40625 0 
z
" id="DejaVuSans-31"/>
      </defs>
      <g transform="translate(158.541538 313.476875)scale(0.2 -0.2)">
       <use xlink:href="#DejaVuSans-31"/>
      </g>
     </g>
    </g>
    <g id="xtick_2">
     <g id="line2d_33">
      <path clip-path="url(#p9676c3c09d)" d="M 375.272114 291.28 
L 375.272114 6.845228 
" style="fill:none;stroke:#b0b0b0;stroke-linecap:square;stroke-width:0.8;"/>
     </g>
     <g id="line2d_34">
      <g>
       <use style="stroke:#000000;stroke-width:0.8;" x="375.272114" xlink:href="#m7ffba8de21" y="291.28"/>
      </g>
     </g>
     <g id="text_2">
      <!-- 3 -->
      <defs>
       <path d="M 40.578125 39.3125 
Q 47.65625 37.796875 51.625 33 
Q 55.609375 28.21875 55.609375 21.1875 
Q 55.609375 10.40625 48.1875 4.484375 
Q 40.765625 -1.421875 27.09375 -1.421875 
Q 22.515625 -1.421875 17.65625 -0.515625 
Q 12.796875 0.390625 7.625 2.203125 
L 7.625 11.71875 
Q 11.71875 9.328125 16.59375 8.109375 
Q 21.484375 6.890625 26.8125 6.890625 
Q 36.078125 6.890625 40.9375 10.546875 
Q 45.796875 14.203125 45.796875 21.1875 
Q 45.796875 27.640625 41.28125 31.265625 
Q 36.765625 34.90625 28.71875 34.90625 
L 20.21875 34.90625 
L 20.21875 43.015625 
L 29.109375 43.015625 
Q 36.375 43.015625 40.234375 45.921875 
Q 44.09375 48.828125 44.09375 54.296875 
Q 44.09375 59.90625 40.109375 62.90625 
Q 36.140625 65.921875 28.71875 65.921875 
Q 24.65625 65.921875 20.015625 65.03125 
Q 15.375 64.15625 9.8125 62.3125 
L 9.8125 71.09375 
Q 15.4375 72.65625 20.34375 73.4375 
Q 25.25 74.21875 29.59375 74.21875 
Q 40.828125 74.21875 47.359375 69.109375 
Q 53.90625 64.015625 53.90625 55.328125 
Q 53.90625 49.265625 50.4375 45.09375 
Q 46.96875 40.921875 40.578125 39.3125 
z
" id="DejaVuSans-33"/>
      </defs>
      <g transform="translate(368.909614 313.476875)scale(0.2 -0.2)">
       <use xlink:href="#DejaVuSans-33"/>
      </g>
     </g>
    </g>
    <g id="xtick_3">
     <g id="line2d_35">
      <defs>
       <path d="M 0 0 
L 0 2 
" id="m926d36a54a" style="stroke:#000000;stroke-width:0.6;"/>
      </defs>
      <g>
       <use style="stroke:#000000;stroke-width:0.6;" x="91.38355" xlink:href="#m926d36a54a" y="291.28"/>
      </g>
     </g>
    </g>
    <g id="xtick_4">
     <g id="line2d_36">
      <g>
       <use style="stroke:#000000;stroke-width:0.6;" x="109.90554" xlink:href="#m926d36a54a" y="291.28"/>
      </g>
     </g>
    </g>
    <g id="xtick_5">
     <g id="line2d_37">
      <g>
       <use style="stroke:#000000;stroke-width:0.6;" x="123.047101" xlink:href="#m926d36a54a" y="291.28"/>
      </g>
     </g>
    </g>
    <g id="xtick_6">
     <g id="line2d_38">
      <g>
       <use style="stroke:#000000;stroke-width:0.6;" x="133.240487" xlink:href="#m926d36a54a" y="291.28"/>
      </g>
     </g>
    </g>
    <g id="xtick_7">
     <g id="line2d_39">
      <g>
       <use style="stroke:#000000;stroke-width:0.6;" x="141.569091" xlink:href="#m926d36a54a" y="291.28"/>
      </g>
     </g>
    </g>
    <g id="xtick_8">
     <g id="line2d_40">
      <g>
       <use style="stroke:#000000;stroke-width:0.6;" x="148.610824" xlink:href="#m926d36a54a" y="291.28"/>
      </g>
     </g>
    </g>
    <g id="xtick_9">
     <g id="line2d_41">
      <g>
       <use style="stroke:#000000;stroke-width:0.6;" x="154.710651" xlink:href="#m926d36a54a" y="291.28"/>
      </g>
     </g>
    </g>
    <g id="xtick_10">
     <g id="line2d_42">
      <g>
       <use style="stroke:#000000;stroke-width:0.6;" x="160.09108" xlink:href="#m926d36a54a" y="291.28"/>
      </g>
     </g>
    </g>
    <g id="xtick_11">
     <g id="line2d_43">
      <g>
       <use style="stroke:#000000;stroke-width:0.6;" x="196.567588" xlink:href="#m926d36a54a" y="291.28"/>
      </g>
     </g>
    </g>
    <g id="xtick_12">
     <g id="line2d_44">
      <g>
       <use style="stroke:#000000;stroke-width:0.6;" x="215.089578" xlink:href="#m926d36a54a" y="291.28"/>
      </g>
     </g>
    </g>
    <g id="xtick_13">
     <g id="line2d_45">
      <g>
       <use style="stroke:#000000;stroke-width:0.6;" x="228.231139" xlink:href="#m926d36a54a" y="291.28"/>
      </g>
     </g>
    </g>
    <g id="xtick_14">
     <g id="line2d_46">
      <g>
       <use style="stroke:#000000;stroke-width:0.6;" x="238.424525" xlink:href="#m926d36a54a" y="291.28"/>
      </g>
     </g>
    </g>
    <g id="xtick_15">
     <g id="line2d_47">
      <g>
       <use style="stroke:#000000;stroke-width:0.6;" x="246.753129" xlink:href="#m926d36a54a" y="291.28"/>
      </g>
     </g>
    </g>
    <g id="xtick_16">
     <g id="line2d_48">
      <g>
       <use style="stroke:#000000;stroke-width:0.6;" x="253.794862" xlink:href="#m926d36a54a" y="291.28"/>
      </g>
     </g>
    </g>
    <g id="xtick_17">
     <g id="line2d_49">
      <g>
       <use style="stroke:#000000;stroke-width:0.6;" x="259.894689" xlink:href="#m926d36a54a" y="291.28"/>
      </g>
     </g>
    </g>
    <g id="xtick_18">
     <g id="line2d_50">
      <g>
       <use style="stroke:#000000;stroke-width:0.6;" x="265.275118" xlink:href="#m926d36a54a" y="291.28"/>
      </g>
     </g>
    </g>
    <g id="xtick_19">
     <g id="line2d_51">
      <g>
       <use style="stroke:#000000;stroke-width:0.6;" x="301.751626" xlink:href="#m926d36a54a" y="291.28"/>
      </g>
     </g>
    </g>
    <g id="xtick_20">
     <g id="line2d_52">
      <g>
       <use style="stroke:#000000;stroke-width:0.6;" x="320.273616" xlink:href="#m926d36a54a" y="291.28"/>
      </g>
     </g>
    </g>
    <g id="xtick_21">
     <g id="line2d_53">
      <g>
       <use style="stroke:#000000;stroke-width:0.6;" x="333.415177" xlink:href="#m926d36a54a" y="291.28"/>
      </g>
     </g>
    </g>
    <g id="xtick_22">
     <g id="line2d_54">
      <g>
       <use style="stroke:#000000;stroke-width:0.6;" x="343.608563" xlink:href="#m926d36a54a" y="291.28"/>
      </g>
     </g>
    </g>
    <g id="xtick_23">
     <g id="line2d_55">
      <g>
       <use style="stroke:#000000;stroke-width:0.6;" x="351.937166" xlink:href="#m926d36a54a" y="291.28"/>
      </g>
     </g>
    </g>
    <g id="xtick_24">
     <g id="line2d_56">
      <g>
       <use style="stroke:#000000;stroke-width:0.6;" x="358.9789" xlink:href="#m926d36a54a" y="291.28"/>
      </g>
     </g>
    </g>
    <g id="xtick_25">
     <g id="line2d_57">
      <g>
       <use style="stroke:#000000;stroke-width:0.6;" x="365.078727" xlink:href="#m926d36a54a" y="291.28"/>
      </g>
     </g>
    </g>
    <g id="xtick_26">
     <g id="line2d_58">
      <g>
       <use style="stroke:#000000;stroke-width:0.6;" x="370.459156" xlink:href="#m926d36a54a" y="291.28"/>
      </g>
     </g>
    </g>
    <g id="xtick_27">
     <g id="line2d_59">
      <g>
       <use style="stroke:#000000;stroke-width:0.6;" x="406.935664" xlink:href="#m926d36a54a" y="291.28"/>
      </g>
     </g>
    </g>
    <g id="xtick_28">
     <g id="line2d_60">
      <g>
       <use style="stroke:#000000;stroke-width:0.6;" x="425.457654" xlink:href="#m926d36a54a" y="291.28"/>
      </g>
     </g>
    </g>
    <g id="xtick_29">
     <g id="line2d_61">
      <g>
       <use style="stroke:#000000;stroke-width:0.6;" x="438.599215" xlink:href="#m926d36a54a" y="291.28"/>
      </g>
     </g>
    </g>
    <g id="xtick_30">
     <g id="line2d_62">
      <g>
       <use style="stroke:#000000;stroke-width:0.6;" x="448.792601" xlink:href="#m926d36a54a" y="291.28"/>
      </g>
     </g>
    </g>
    <g id="text_3">
     <!-- log10 of FEvals / DIM -->
     <defs>
      <path d="M 9.421875 75.984375 
L 18.40625 75.984375 
L 18.40625 0 
L 9.421875 0 
z
" id="DejaVuSans-6c"/>
      <path d="M 30.609375 48.390625 
Q 23.390625 48.390625 19.1875 42.75 
Q 14.984375 37.109375 14.984375 27.296875 
Q 14.984375 17.484375 19.15625 11.84375 
Q 23.34375 6.203125 30.609375 6.203125 
Q 37.796875 6.203125 41.984375 11.859375 
Q 46.1875 17.53125 46.1875 27.296875 
Q 46.1875 37.015625 41.984375 42.703125 
Q 37.796875 48.390625 30.609375 48.390625 
z
M 30.609375 56 
Q 42.328125 56 49.015625 48.375 
Q 55.71875 40.765625 55.71875 27.296875 
Q 55.71875 13.875 49.015625 6.21875 
Q 42.328125 -1.421875 30.609375 -1.421875 
Q 18.84375 -1.421875 12.171875 6.21875 
Q 5.515625 13.875 5.515625 27.296875 
Q 5.515625 40.765625 12.171875 48.375 
Q 18.84375 56 30.609375 56 
z
" id="DejaVuSans-6f"/>
      <path d="M 45.40625 27.984375 
Q 45.40625 37.75 41.375 43.109375 
Q 37.359375 48.484375 30.078125 48.484375 
Q 22.859375 48.484375 18.828125 43.109375 
Q 14.796875 37.75 14.796875 27.984375 
Q 14.796875 18.265625 18.828125 12.890625 
Q 22.859375 7.515625 30.078125 7.515625 
Q 37.359375 7.515625 41.375 12.890625 
Q 45.40625 18.265625 45.40625 27.984375 
z
M 54.390625 6.78125 
Q 54.390625 -7.171875 48.1875 -13.984375 
Q 42 -20.796875 29.203125 -20.796875 
Q 24.46875 -20.796875 20.265625 -20.09375 
Q 16.0625 -19.390625 12.109375 -17.921875 
L 12.109375 -9.1875 
Q 16.0625 -11.328125 19.921875 -12.34375 
Q 23.78125 -13.375 27.78125 -13.375 
Q 36.625 -13.375 41.015625 -8.765625 
Q 45.40625 -4.15625 45.40625 5.171875 
L 45.40625 9.625 
Q 42.625 4.78125 38.28125 2.390625 
Q 33.9375 0 27.875 0 
Q 17.828125 0 11.671875 7.65625 
Q 5.515625 15.328125 5.515625 27.984375 
Q 5.515625 40.671875 11.671875 48.328125 
Q 17.828125 56 27.875 56 
Q 33.9375 56 38.28125 53.609375 
Q 42.625 51.21875 45.40625 46.390625 
L 45.40625 54.6875 
L 54.390625 54.6875 
z
" id="DejaVuSans-67"/>
      <path d="M 31.78125 66.40625 
Q 24.171875 66.40625 20.328125 58.90625 
Q 16.5 51.421875 16.5 36.375 
Q 16.5 21.390625 20.328125 13.890625 
Q 24.171875 6.390625 31.78125 6.390625 
Q 39.453125 6.390625 43.28125 13.890625 
Q 47.125 21.390625 47.125 36.375 
Q 47.125 51.421875 43.28125 58.90625 
Q 39.453125 66.40625 31.78125 66.40625 
z
M 31.78125 74.21875 
Q 44.046875 74.21875 50.515625 64.515625 
Q 56.984375 54.828125 56.984375 36.375 
Q 56.984375 17.96875 50.515625 8.265625 
Q 44.046875 -1.421875 31.78125 -1.421875 
Q 19.53125 -1.421875 13.0625 8.265625 
Q 6.59375 17.96875 6.59375 36.375 
Q 6.59375 54.828125 13.0625 64.515625 
Q 19.53125 74.21875 31.78125 74.21875 
z
" id="DejaVuSans-30"/>
      <path id="DejaVuSans-20"/>
      <path d="M 37.109375 75.984375 
L 37.109375 68.5 
L 28.515625 68.5 
Q 23.6875 68.5 21.796875 66.546875 
Q 19.921875 64.59375 19.921875 59.515625 
L 19.921875 54.6875 
L 34.71875 54.6875 
L 34.71875 47.703125 
L 19.921875 47.703125 
L 19.921875 0 
L 10.890625 0 
L 10.890625 47.703125 
L 2.296875 47.703125 
L 2.296875 54.6875 
L 10.890625 54.6875 
L 10.890625 58.5 
Q 10.890625 67.625 15.140625 71.796875 
Q 19.390625 75.984375 28.609375 75.984375 
z
" id="DejaVuSans-66"/>
      <path d="M 9.8125 72.90625 
L 51.703125 72.90625 
L 51.703125 64.59375 
L 19.671875 64.59375 
L 19.671875 43.109375 
L 48.578125 43.109375 
L 48.578125 34.8125 
L 19.671875 34.8125 
L 19.671875 0 
L 9.8125 0 
z
" id="DejaVuSans-46"/>
      <path d="M 9.8125 72.90625 
L 55.90625 72.90625 
L 55.90625 64.59375 
L 19.671875 64.59375 
L 19.671875 43.015625 
L 54.390625 43.015625 
L 54.390625 34.71875 
L 19.671875 34.71875 
L 19.671875 8.296875 
L 56.78125 8.296875 
L 56.78125 0 
L 9.8125 0 
z
" id="DejaVuSans-45"/>
      <path d="M 2.984375 54.6875 
L 12.5 54.6875 
L 29.59375 8.796875 
L 46.6875 54.6875 
L 56.203125 54.6875 
L 35.6875 0 
L 23.484375 0 
z
" id="DejaVuSans-76"/>
      <path d="M 34.28125 27.484375 
Q 23.390625 27.484375 19.1875 25 
Q 14.984375 22.515625 14.984375 16.5 
Q 14.984375 11.71875 18.140625 8.90625 
Q 21.296875 6.109375 26.703125 6.109375 
Q 34.1875 6.109375 38.703125 11.40625 
Q 43.21875 16.703125 43.21875 25.484375 
L 43.21875 27.484375 
z
M 52.203125 31.203125 
L 52.203125 0 
L 43.21875 0 
L 43.21875 8.296875 
Q 40.140625 3.328125 35.546875 0.953125 
Q 30.953125 -1.421875 24.3125 -1.421875 
Q 15.921875 -1.421875 10.953125 3.296875 
Q 6 8.015625 6 15.921875 
Q 6 25.140625 12.171875 29.828125 
Q 18.359375 34.515625 30.609375 34.515625 
L 43.21875 34.515625 
L 43.21875 35.40625 
Q 43.21875 41.609375 39.140625 45 
Q 35.0625 48.390625 27.6875 48.390625 
Q 23 48.390625 18.546875 47.265625 
Q 14.109375 46.140625 10.015625 43.890625 
L 10.015625 52.203125 
Q 14.9375 54.109375 19.578125 55.046875 
Q 24.21875 56 28.609375 56 
Q 40.484375 56 46.34375 49.84375 
Q 52.203125 43.703125 52.203125 31.203125 
z
" id="DejaVuSans-61"/>
      <path d="M 44.28125 53.078125 
L 44.28125 44.578125 
Q 40.484375 46.53125 36.375 47.5 
Q 32.28125 48.484375 27.875 48.484375 
Q 21.1875 48.484375 17.84375 46.4375 
Q 14.5 44.390625 14.5 40.28125 
Q 14.5 37.15625 16.890625 35.375 
Q 19.28125 33.59375 26.515625 31.984375 
L 29.59375 31.296875 
Q 39.15625 29.25 43.1875 25.515625 
Q 47.21875 21.78125 47.21875 15.09375 
Q 47.21875 7.46875 41.1875 3.015625 
Q 35.15625 -1.421875 24.609375 -1.421875 
Q 20.21875 -1.421875 15.453125 -0.5625 
Q 10.6875 0.296875 5.421875 2 
L 5.421875 11.28125 
Q 10.40625 8.6875 15.234375 7.390625 
Q 20.0625 6.109375 24.8125 6.109375 
Q 31.15625 6.109375 34.5625 8.28125 
Q 37.984375 10.453125 37.984375 14.40625 
Q 37.984375 18.0625 35.515625 20.015625 
Q 33.0625 21.96875 24.703125 23.78125 
L 21.578125 24.515625 
Q 13.234375 26.265625 9.515625 29.90625 
Q 5.8125 33.546875 5.8125 39.890625 
Q 5.8125 47.609375 11.28125 51.796875 
Q 16.75 56 26.8125 56 
Q 31.78125 56 36.171875 55.265625 
Q 40.578125 54.546875 44.28125 53.078125 
z
" id="DejaVuSans-73"/>
      <path d="M 25.390625 72.90625 
L 33.6875 72.90625 
L 8.296875 -9.28125 
L 0 -9.28125 
z
" id="DejaVuSans-2f"/>
      <path d="M 19.671875 64.796875 
L 19.671875 8.109375 
L 31.59375 8.109375 
Q 46.6875 8.109375 53.6875 14.9375 
Q 60.6875 21.78125 60.6875 36.53125 
Q 60.6875 51.171875 53.6875 57.984375 
Q 46.6875 64.796875 31.59375 64.796875 
z
M 9.8125 72.90625 
L 30.078125 72.90625 
Q 51.265625 72.90625 61.171875 64.09375 
Q 71.09375 55.28125 71.09375 36.53125 
Q 71.09375 17.671875 61.125 8.828125 
Q 51.171875 0 30.078125 0 
L 9.8125 0 
z
" id="DejaVuSans-44"/>
      <path d="M 9.8125 72.90625 
L 19.671875 72.90625 
L 19.671875 0 
L 9.8125 0 
z
" id="DejaVuSans-49"/>
      <path d="M 9.8125 72.90625 
L 24.515625 72.90625 
L 43.109375 23.296875 
L 61.8125 72.90625 
L 76.515625 72.90625 
L 76.515625 0 
L 66.890625 0 
L 66.890625 64.015625 
L 48.09375 14.015625 
L 38.1875 14.015625 
L 19.390625 64.015625 
L 19.390625 0 
L 9.8125 0 
z
" id="DejaVuSans-4d"/>
     </defs>
     <g transform="translate(150.122563 336.833125)scale(0.2 -0.2)">
      <use xlink:href="#DejaVuSans-6c"/>
      <use x="27.783203" xlink:href="#DejaVuSans-6f"/>
      <use x="88.964844" xlink:href="#DejaVuSans-67"/>
      <use x="152.441406" xlink:href="#DejaVuSans-31"/>
      <use x="216.064453" xlink:href="#DejaVuSans-30"/>
      <use x="279.6875" xlink:href="#DejaVuSans-20"/>
      <use x="311.474609" xlink:href="#DejaVuSans-6f"/>
      <use x="372.65625" xlink:href="#DejaVuSans-66"/>
      <use x="407.861328" xlink:href="#DejaVuSans-20"/>
      <use x="439.648438" xlink:href="#DejaVuSans-46"/>
      <use x="497.167969" xlink:href="#DejaVuSans-45"/>
      <use x="560.351562" xlink:href="#DejaVuSans-76"/>
      <use x="619.53125" xlink:href="#DejaVuSans-61"/>
      <use x="680.810547" xlink:href="#DejaVuSans-6c"/>
      <use x="708.59375" xlink:href="#DejaVuSans-73"/>
      <use x="760.693359" xlink:href="#DejaVuSans-20"/>
      <use x="792.480469" xlink:href="#DejaVuSans-2f"/>
      <use x="826.171875" xlink:href="#DejaVuSans-20"/>
      <use x="857.958984" xlink:href="#DejaVuSans-44"/>
      <use x="934.960938" xlink:href="#DejaVuSans-49"/>
      <use x="964.453125" xlink:href="#DejaVuSans-4d"/>
     </g>
    </g>
   </g>
   <g id="matplotlib.axis_2">
    <g id="ytick_1">
     <g id="line2d_63">
      <path clip-path="url(#p9676c3c09d)" d="M 59.72 291.28 
L 450.672 291.28 
" style="fill:none;stroke:#b0b0b0;stroke-linecap:square;stroke-width:0.8;"/>
     </g>
     <g id="line2d_64">
      <defs>
       <path d="M 0 0 
L -3.5 0 
" id="m59710e2261" style="stroke:#000000;stroke-width:0.8;"/>
      </defs>
      <g>
       <use style="stroke:#000000;stroke-width:0.8;" x="59.72" xlink:href="#m59710e2261" y="291.28"/>
      </g>
     </g>
     <g id="text_4">
      <!-- 0.0 -->
      <defs>
       <path d="M 10.6875 12.40625 
L 21 12.40625 
L 21 0 
L 10.6875 0 
z
" id="DejaVuSans-2e"/>
      </defs>
      <g transform="translate(27.275 297.35875)scale(0.16 -0.16)">
       <use xlink:href="#DejaVuSans-30"/>
       <use x="63.623047" xlink:href="#DejaVuSans-2e"/>
       <use x="95.410156" xlink:href="#DejaVuSans-30"/>
      </g>
     </g>
    </g>
    <g id="ytick_2">
     <g id="line2d_65">
      <path clip-path="url(#p9676c3c09d)" d="M 59.72 234.956283 
L 450.672 234.956283 
" style="fill:none;stroke:#b0b0b0;stroke-linecap:square;stroke-width:0.8;"/>
     </g>
     <g id="line2d_66">
      <g>
       <use style="stroke:#000000;stroke-width:0.8;" x="59.72" xlink:href="#m59710e2261" y="234.956283"/>
      </g>
     </g>
     <g id="text_5">
      <!-- 0.2 -->
      <defs>
       <path d="M 19.1875 8.296875 
L 53.609375 8.296875 
L 53.609375 0 
L 7.328125 0 
L 7.328125 8.296875 
Q 12.9375 14.109375 22.625 23.890625 
Q 32.328125 33.6875 34.8125 36.53125 
Q 39.546875 41.84375 41.421875 45.53125 
Q 43.3125 49.21875 43.3125 52.78125 
Q 43.3125 58.59375 39.234375 62.25 
Q 35.15625 65.921875 28.609375 65.921875 
Q 23.96875 65.921875 18.8125 64.3125 
Q 13.671875 62.703125 7.8125 59.421875 
L 7.8125 69.390625 
Q 13.765625 71.78125 18.9375 73 
Q 24.125 74.21875 28.421875 74.21875 
Q 39.75 74.21875 46.484375 68.546875 
Q 53.21875 62.890625 53.21875 53.421875 
Q 53.21875 48.921875 51.53125 44.890625 
Q 49.859375 40.875 45.40625 35.40625 
Q 44.1875 33.984375 37.640625 27.21875 
Q 31.109375 20.453125 19.1875 8.296875 
z
" id="DejaVuSans-32"/>
      </defs>
      <g transform="translate(27.275 241.035033)scale(0.16 -0.16)">
       <use xlink:href="#DejaVuSans-30"/>
       <use x="63.623047" xlink:href="#DejaVuSans-2e"/>
       <use x="95.410156" xlink:href="#DejaVuSans-32"/>
      </g>
     </g>
    </g>
    <g id="ytick_3">
     <g id="line2d_67">
      <path clip-path="url(#p9676c3c09d)" d="M 59.72 178.632565 
L 450.672 178.632565 
" style="fill:none;stroke:#b0b0b0;stroke-linecap:square;stroke-width:0.8;"/>
     </g>
     <g id="line2d_68">
      <g>
       <use style="stroke:#000000;stroke-width:0.8;" x="59.72" xlink:href="#m59710e2261" y="178.632565"/>
      </g>
     </g>
     <g id="text_6">
      <!-- 0.4 -->
      <defs>
       <path d="M 37.796875 64.3125 
L 12.890625 25.390625 
L 37.796875 25.390625 
z
M 35.203125 72.90625 
L 47.609375 72.90625 
L 47.609375 25.390625 
L 58.015625 25.390625 
L 58.015625 17.1875 
L 47.609375 17.1875 
L 47.609375 0 
L 37.796875 0 
L 37.796875 17.1875 
L 4.890625 17.1875 
L 4.890625 26.703125 
z
" id="DejaVuSans-34"/>
      </defs>
      <g transform="translate(27.275 184.711315)scale(0.16 -0.16)">
       <use xlink:href="#DejaVuSans-30"/>
       <use x="63.623047" xlink:href="#DejaVuSans-2e"/>
       <use x="95.410156" xlink:href="#DejaVuSans-34"/>
      </g>
     </g>
    </g>
    <g id="ytick_4">
     <g id="line2d_69">
      <path clip-path="url(#p9676c3c09d)" d="M 59.72 122.308848 
L 450.672 122.308848 
" style="fill:none;stroke:#b0b0b0;stroke-linecap:square;stroke-width:0.8;"/>
     </g>
     <g id="line2d_70">
      <g>
       <use style="stroke:#000000;stroke-width:0.8;" x="59.72" xlink:href="#m59710e2261" y="122.308848"/>
      </g>
     </g>
     <g id="text_7">
      <!-- 0.6 -->
      <defs>
       <path d="M 33.015625 40.375 
Q 26.375 40.375 22.484375 35.828125 
Q 18.609375 31.296875 18.609375 23.390625 
Q 18.609375 15.53125 22.484375 10.953125 
Q 26.375 6.390625 33.015625 6.390625 
Q 39.65625 6.390625 43.53125 10.953125 
Q 47.40625 15.53125 47.40625 23.390625 
Q 47.40625 31.296875 43.53125 35.828125 
Q 39.65625 40.375 33.015625 40.375 
z
M 52.59375 71.296875 
L 52.59375 62.3125 
Q 48.875 64.0625 45.09375 64.984375 
Q 41.3125 65.921875 37.59375 65.921875 
Q 27.828125 65.921875 22.671875 59.328125 
Q 17.53125 52.734375 16.796875 39.40625 
Q 19.671875 43.65625 24.015625 45.921875 
Q 28.375 48.1875 33.59375 48.1875 
Q 44.578125 48.1875 50.953125 41.515625 
Q 57.328125 34.859375 57.328125 23.390625 
Q 57.328125 12.15625 50.6875 5.359375 
Q 44.046875 -1.421875 33.015625 -1.421875 
Q 20.359375 -1.421875 13.671875 8.265625 
Q 6.984375 17.96875 6.984375 36.375 
Q 6.984375 53.65625 15.1875 63.9375 
Q 23.390625 74.21875 37.203125 74.21875 
Q 40.921875 74.21875 44.703125 73.484375 
Q 48.484375 72.75 52.59375 71.296875 
z
" id="DejaVuSans-36"/>
      </defs>
      <g transform="translate(27.275 128.387598)scale(0.16 -0.16)">
       <use xlink:href="#DejaVuSans-30"/>
       <use x="63.623047" xlink:href="#DejaVuSans-2e"/>
       <use x="95.410156" xlink:href="#DejaVuSans-36"/>
      </g>
     </g>
    </g>
    <g id="ytick_5">
     <g id="line2d_71">
      <path clip-path="url(#p9676c3c09d)" d="M 59.72 65.985131 
L 450.672 65.985131 
" style="fill:none;stroke:#b0b0b0;stroke-linecap:square;stroke-width:0.8;"/>
     </g>
     <g id="line2d_72">
      <g>
       <use style="stroke:#000000;stroke-width:0.8;" x="59.72" xlink:href="#m59710e2261" y="65.985131"/>
      </g>
     </g>
     <g id="text_8">
      <!-- 0.8 -->
      <defs>
       <path d="M 31.78125 34.625 
Q 24.75 34.625 20.71875 30.859375 
Q 16.703125 27.09375 16.703125 20.515625 
Q 16.703125 13.921875 20.71875 10.15625 
Q 24.75 6.390625 31.78125 6.390625 
Q 38.8125 6.390625 42.859375 10.171875 
Q 46.921875 13.96875 46.921875 20.515625 
Q 46.921875 27.09375 42.890625 30.859375 
Q 38.875 34.625 31.78125 34.625 
z
M 21.921875 38.8125 
Q 15.578125 40.375 12.03125 44.71875 
Q 8.5 49.078125 8.5 55.328125 
Q 8.5 64.0625 14.71875 69.140625 
Q 20.953125 74.21875 31.78125 74.21875 
Q 42.671875 74.21875 48.875 69.140625 
Q 55.078125 64.0625 55.078125 55.328125 
Q 55.078125 49.078125 51.53125 44.71875 
Q 48 40.375 41.703125 38.8125 
Q 48.828125 37.15625 52.796875 32.3125 
Q 56.78125 27.484375 56.78125 20.515625 
Q 56.78125 9.90625 50.3125 4.234375 
Q 43.84375 -1.421875 31.78125 -1.421875 
Q 19.734375 -1.421875 13.25 4.234375 
Q 6.78125 9.90625 6.78125 20.515625 
Q 6.78125 27.484375 10.78125 32.3125 
Q 14.796875 37.15625 21.921875 38.8125 
z
M 18.3125 54.390625 
Q 18.3125 48.734375 21.84375 45.5625 
Q 25.390625 42.390625 31.78125 42.390625 
Q 38.140625 42.390625 41.71875 45.5625 
Q 45.3125 48.734375 45.3125 54.390625 
Q 45.3125 60.0625 41.71875 63.234375 
Q 38.140625 66.40625 31.78125 66.40625 
Q 25.390625 66.40625 21.84375 63.234375 
Q 18.3125 60.0625 18.3125 54.390625 
z
" id="DejaVuSans-38"/>
      </defs>
      <g transform="translate(27.275 72.063881)scale(0.16 -0.16)">
       <use xlink:href="#DejaVuSans-30"/>
       <use x="63.623047" xlink:href="#DejaVuSans-2e"/>
       <use x="95.410156" xlink:href="#DejaVuSans-38"/>
      </g>
     </g>
    </g>
    <g id="ytick_6">
     <g id="line2d_73">
      <path clip-path="url(#p9676c3c09d)" d="M 59.72 9.661414 
L 450.672 9.661414 
" style="fill:none;stroke:#b0b0b0;stroke-linecap:square;stroke-width:0.8;"/>
     </g>
     <g id="line2d_74">
      <g>
       <use style="stroke:#000000;stroke-width:0.8;" x="59.72" xlink:href="#m59710e2261" y="9.661414"/>
      </g>
     </g>
     <g id="text_9">
      <!-- 1.0 -->
      <g transform="translate(27.275 15.740164)scale(0.16 -0.16)">
       <use xlink:href="#DejaVuSans-31"/>
       <use x="63.623047" xlink:href="#DejaVuSans-2e"/>
       <use x="95.410156" xlink:href="#DejaVuSans-30"/>
      </g>
     </g>
    </g>
    <g id="text_10">
     <!-- proportion of trials -->
     <defs>
      <path d="M 18.109375 8.203125 
L 18.109375 -20.796875 
L 9.078125 -20.796875 
L 9.078125 54.6875 
L 18.109375 54.6875 
L 18.109375 46.390625 
Q 20.953125 51.265625 25.265625 53.625 
Q 29.59375 56 35.59375 56 
Q 45.5625 56 51.78125 48.09375 
Q 58.015625 40.1875 58.015625 27.296875 
Q 58.015625 14.40625 51.78125 6.484375 
Q 45.5625 -1.421875 35.59375 -1.421875 
Q 29.59375 -1.421875 25.265625 0.953125 
Q 20.953125 3.328125 18.109375 8.203125 
z
M 48.6875 27.296875 
Q 48.6875 37.203125 44.609375 42.84375 
Q 40.53125 48.484375 33.40625 48.484375 
Q 26.265625 48.484375 22.1875 42.84375 
Q 18.109375 37.203125 18.109375 27.296875 
Q 18.109375 17.390625 22.1875 11.75 
Q 26.265625 6.109375 33.40625 6.109375 
Q 40.53125 6.109375 44.609375 11.75 
Q 48.6875 17.390625 48.6875 27.296875 
z
" id="DejaVuSans-70"/>
      <path d="M 41.109375 46.296875 
Q 39.59375 47.171875 37.8125 47.578125 
Q 36.03125 48 33.890625 48 
Q 26.265625 48 22.1875 43.046875 
Q 18.109375 38.09375 18.109375 28.8125 
L 18.109375 0 
L 9.078125 0 
L 9.078125 54.6875 
L 18.109375 54.6875 
L 18.109375 46.1875 
Q 20.953125 51.171875 25.484375 53.578125 
Q 30.03125 56 36.53125 56 
Q 37.453125 56 38.578125 55.875 
Q 39.703125 55.765625 41.0625 55.515625 
z
" id="DejaVuSans-72"/>
      <path d="M 18.3125 70.21875 
L 18.3125 54.6875 
L 36.8125 54.6875 
L 36.8125 47.703125 
L 18.3125 47.703125 
L 18.3125 18.015625 
Q 18.3125 11.328125 20.140625 9.421875 
Q 21.96875 7.515625 27.59375 7.515625 
L 36.8125 7.515625 
L 36.8125 0 
L 27.59375 0 
Q 17.1875 0 13.234375 3.875 
Q 9.28125 7.765625 9.28125 18.015625 
L 9.28125 47.703125 
L 2.6875 47.703125 
L 2.6875 54.6875 
L 9.28125 54.6875 
L 9.28125 70.21875 
z
" id="DejaVuSans-74"/>
      <path d="M 9.421875 54.6875 
L 18.40625 54.6875 
L 18.40625 0 
L 9.421875 0 
z
M 9.421875 75.984375 
L 18.40625 75.984375 
L 18.40625 64.59375 
L 9.421875 64.59375 
z
" id="DejaVuSans-69"/>
      <path d="M 54.890625 33.015625 
L 54.890625 0 
L 45.90625 0 
L 45.90625 32.71875 
Q 45.90625 40.484375 42.875 44.328125 
Q 39.84375 48.1875 33.796875 48.1875 
Q 26.515625 48.1875 22.3125 43.546875 
Q 18.109375 38.921875 18.109375 30.90625 
L 18.109375 0 
L 9.078125 0 
L 9.078125 54.6875 
L 18.109375 54.6875 
L 18.109375 46.1875 
Q 21.34375 51.125 25.703125 53.5625 
Q 30.078125 56 35.796875 56 
Q 45.21875 56 50.046875 50.171875 
Q 54.890625 44.34375 54.890625 33.015625 
z
" id="DejaVuSans-6e"/>
     </defs>
     <g transform="translate(19.115625 242.290739)rotate(-90)scale(0.2 -0.2)">
      <use xlink:href="#DejaVuSans-70"/>
      <use x="63.476562" xlink:href="#DejaVuSans-72"/>
      <use x="104.558594" xlink:href="#DejaVuSans-6f"/>
      <use x="165.740234" xlink:href="#DejaVuSans-70"/>
      <use x="229.216797" xlink:href="#DejaVuSans-6f"/>
      <use x="290.398438" xlink:href="#DejaVuSans-72"/>
      <use x="331.511719" xlink:href="#DejaVuSans-74"/>
      <use x="370.720703" xlink:href="#DejaVuSans-69"/>
      <use x="398.503906" xlink:href="#DejaVuSans-6f"/>
      <use x="459.685547" xlink:href="#DejaVuSans-6e"/>
      <use x="523.064453" xlink:href="#DejaVuSans-20"/>
      <use x="554.851562" xlink:href="#DejaVuSans-6f"/>
      <use x="616.033203" xlink:href="#DejaVuSans-66"/>
      <use x="651.238281" xlink:href="#DejaVuSans-20"/>
      <use x="683.025391" xlink:href="#DejaVuSans-74"/>
      <use x="722.234375" xlink:href="#DejaVuSans-72"/>
      <use x="763.347656" xlink:href="#DejaVuSans-69"/>
      <use x="791.130859" xlink:href="#DejaVuSans-61"/>
      <use x="852.410156" xlink:href="#DejaVuSans-6c"/>
      <use x="880.193359" xlink:href="#DejaVuSans-73"/>
     </g>
    </g>
   </g>
   <g id="line2d_75">
    <path clip-path="url(#p9676c3c09d)" d="M 49.526614 291.28 
L 49.526614 287.525086 
L 68.048603 287.525086 
L 68.048603 283.770171 
L 68.048603 283.770171 
L 68.048603 280.015257 
L 68.048603 280.015257 
L 68.048603 276.260342 
L 68.048603 276.260342 
L 68.048603 272.505428 
L 81.190164 272.505428 
L 81.190164 268.750513 
L 81.190164 268.750513 
L 81.190164 264.995599 
L 91.38355 264.995599 
L 91.38355 261.240684 
L 106.753887 261.240684 
L 106.753887 257.48577 
L 106.753887 257.48577 
L 106.753887 253.730855 
L 112.853714 253.730855 
L 112.853714 249.975941 
L 112.853714 249.975941 
L 112.853714 246.221026 
L 123.047101 246.221026 
L 123.047101 242.466112 
L 123.047101 242.466112 
L 123.047101 238.711197 
L 131.375704 238.711197 
L 131.375704 234.956283 
L 131.375704 234.956283 
L 131.375704 231.201368 
L 135.032123 231.201368 
L 135.032123 227.446454 
L 149.897694 227.446454 
L 149.897694 223.691539 
L 156.939427 223.691539 
L 156.939427 219.936625 
L 159.064501 219.936625 
L 159.064501 216.18171 
L 176.180815 216.18171 
L 176.180815 212.426796 
L 182.812853 212.426796 
L 182.812853 208.671881 
L 182.812853 208.671881 
L 182.812853 204.916967 
L 195.644712 204.916967 
L 195.644712 201.162052 
L 199.229361 201.162052 
L 199.229361 197.407138 
L 200.921438 197.407138 
L 200.921438 193.652223 
L 204.128428 193.652223 
L 204.128428 189.897309 
L 206.394058 189.897309 
L 206.394058 186.142394 
L 211.937925 186.142394 
L 211.937925 182.38748 
L 213.224795 182.38748 
L 213.224795 178.632565 
L 214.476403 178.632565 
L 214.476403 174.877651 
L 214.476403 174.877651 
L 214.476403 171.122736 
L 215.089578 171.122736 
L 215.089578 167.367822 
L 215.694631 167.367822 
L 215.694631 163.612907 
L 218.037752 163.612907 
L 218.037752 159.857993 
L 219.165732 159.857993 
L 219.165732 156.103079 
L 219.165732 156.103079 
L 219.165732 152.348164 
L 221.86953 152.348164 
L 221.86953 148.59325 
L 226.839736 148.59325 
L 226.839736 144.838335 
L 227.772031 144.838335 
L 227.772031 141.083421 
L 229.58141 141.083421 
L 229.58141 137.328506 
L 230.022774 137.328506 
L 230.022774 133.573592 
L 230.892912 133.573592 
L 230.892912 129.818677 
L 231.321843 129.818677 
L 231.321843 126.063763 
L 231.746784 126.063763 
L 231.746784 122.308848 
L 231.746784 122.308848 
L 231.746784 118.553934 
L 232.167809 118.553934 
L 232.167809 114.799019 
L 232.584989 114.799019 
L 232.584989 111.044105 
L 233.408089 111.044105 
L 233.408089 107.28919 
L 234.615583 107.28919 
L 234.615583 103.534276 
L 235.791979 103.534276 
L 235.791979 99.779361 
L 236.559742 99.779361 
L 236.559742 96.024447 
L 238.788518 96.024447 
L 238.788518 92.269532 
L 241.600535 92.269532 
L 241.600535 88.514618 
L 243.274013 88.514618 
L 243.274013 84.759703 
L 251.382996 84.759703 
L 251.382996 81.004789 
L 256.824537 81.004789 
L 256.824537 77.249874 
L 272.05507 77.249874 
L 272.05507 73.49496 
L 280.354493 73.49496 
L 280.354493 69.740045 
L 315.797788 69.740045 
L 315.797788 65.985131 
L 315.797788 65.985131 
L 315.797788 65.985131 
L 450.672 65.985131 
" style="fill:none;stroke:#000000;stroke-linecap:square;stroke-width:1.5;"/>
   </g>
   <g id="line2d_76">
    <path clip-path="url(#p9676c3c09d)" style="fill:none;stroke:#000000;stroke-linecap:square;stroke-width:1.5;"/>
   </g>
   <g id="line2d_77">
    <path clip-path="url(#p9676c3c09d)" d="M 213.854885 291.28 
L 213.854885 287.525086 
L 237.687722 287.525086 
L 237.687722 283.770171 
L 260.79929 283.770171 
L 260.79929 280.015257 
L 280.208314 280.015257 
L 280.208314 276.260342 
L 280.208314 276.260342 
L 280.208314 276.260342 
L 450.672 276.260342 
" style="fill:none;stroke:#00bfbf;stroke-linecap:square;stroke-width:1.5;"/>
   </g>
   <g id="line2d_78">
    <path clip-path="url(#p9676c3c09d)" style="fill:none;stroke:#00bfbf;stroke-linecap:square;stroke-width:1.5;"/>
   </g>
   <g id="line2d_79">
    <path clip-path="url(#p9676c3c09d)" d="M 276.551896 291.28 
L 276.551896 287.525086 
L 287.124379 287.525086 
L 287.124379 283.770171 
L 287.124379 283.770171 
L 287.124379 283.770171 
L 450.672 283.770171 
" style="fill:none;stroke:#bf00bf;stroke-linecap:square;stroke-width:1.5;"/>
   </g>
   <g id="line2d_80">
    <path clip-path="url(#p9676c3c09d)" style="fill:none;stroke:#bf00bf;stroke-linecap:square;stroke-width:1.5;"/>
   </g>
   <g id="line2d_81"/>
   <g id="line2d_82">
    <path clip-path="url(#p9676c3c09d)" d="M 450.672 291.28 
L 450.672 6.845228 
" style="fill:none;stroke:#000000;stroke-linecap:square;stroke-width:1.5;"/>
   </g>
   <g id="patch_3">
    <path d="M 59.72 291.28 
L 59.72 6.845228 
" style="fill:none;stroke:#000000;stroke-linecap:square;stroke-linejoin:miter;stroke-width:0.8;"/>
   </g>
   <g id="patch_4">
    <path d="M 450.672 291.28 
L 450.672 6.845228 
" style="fill:none;stroke:#000000;stroke-linecap:square;stroke-linejoin:miter;stroke-width:0.8;"/>
   </g>
   <g id="patch_5">
    <path d="M 59.72 291.28 
L 450.672 291.28 
" style="fill:none;stroke:#000000;stroke-linecap:square;stroke-linejoin:miter;stroke-width:0.8;"/>
   </g>
   <g id="patch_6">
    <path d="M 59.72 6.845228 
L 450.672 6.845228 
" style="fill:none;stroke:#000000;stroke-linecap:square;stroke-linejoin:miter;stroke-width:0.8;"/>
   </g>
   <g id="text_11">
    <!-- {f20-f24}, 5-D -->
    <defs>
     <path d="M 51.125 -9.28125 
L 51.125 -16.3125 
L 48.09375 -16.3125 
Q 35.9375 -16.3125 31.8125 -12.6875 
Q 27.6875 -9.078125 27.6875 1.703125 
L 27.6875 13.375 
Q 27.6875 20.75 25.046875 23.578125 
Q 22.40625 26.421875 15.484375 26.421875 
L 12.5 26.421875 
L 12.5 33.40625 
L 15.484375 33.40625 
Q 22.46875 33.40625 25.078125 36.203125 
Q 27.6875 39.015625 27.6875 46.296875 
L 27.6875 58.015625 
Q 27.6875 68.796875 31.8125 72.390625 
Q 35.9375 75.984375 48.09375 75.984375 
L 51.125 75.984375 
L 51.125 69 
L 47.796875 69 
Q 40.921875 69 38.8125 66.84375 
Q 36.71875 64.703125 36.71875 57.8125 
L 36.71875 45.703125 
Q 36.71875 38.03125 34.5 34.5625 
Q 32.28125 31.109375 26.90625 29.890625 
Q 32.328125 28.5625 34.515625 25.09375 
Q 36.71875 21.625 36.71875 14.015625 
L 36.71875 1.90625 
Q 36.71875 -4.984375 38.8125 -7.125 
Q 40.921875 -9.28125 47.796875 -9.28125 
z
" id="DejaVuSans-7b"/>
     <path d="M 4.890625 31.390625 
L 31.203125 31.390625 
L 31.203125 23.390625 
L 4.890625 23.390625 
z
" id="DejaVuSans-2d"/>
     <path d="M 12.5 -9.28125 
L 15.921875 -9.28125 
Q 22.75 -9.28125 24.828125 -7.171875 
Q 26.90625 -5.078125 26.90625 1.90625 
L 26.90625 14.015625 
Q 26.90625 21.625 29.09375 25.09375 
Q 31.296875 28.5625 36.71875 29.890625 
Q 31.296875 31.109375 29.09375 34.5625 
Q 26.90625 38.03125 26.90625 45.703125 
L 26.90625 57.8125 
Q 26.90625 64.75 24.828125 66.875 
Q 22.75 69 15.921875 69 
L 12.5 69 
L 12.5 75.984375 
L 15.578125 75.984375 
Q 27.734375 75.984375 31.8125 72.390625 
Q 35.890625 68.796875 35.890625 58.015625 
L 35.890625 46.296875 
Q 35.890625 39.015625 38.515625 36.203125 
Q 41.15625 33.40625 48.09375 33.40625 
L 51.125 33.40625 
L 51.125 26.421875 
L 48.09375 26.421875 
Q 41.15625 26.421875 38.515625 23.578125 
Q 35.890625 20.75 35.890625 13.375 
L 35.890625 1.703125 
Q 35.890625 -9.078125 31.8125 -12.6875 
Q 27.734375 -16.3125 15.578125 -16.3125 
L 12.5 -16.3125 
z
" id="DejaVuSans-7d"/>
     <path d="M 11.71875 12.40625 
L 22.015625 12.40625 
L 22.015625 4 
L 14.015625 -11.625 
L 7.71875 -11.625 
L 11.71875 4 
z
" id="DejaVuSans-2c"/>
     <path d="M 10.796875 72.90625 
L 49.515625 72.90625 
L 49.515625 64.59375 
L 19.828125 64.59375 
L 19.828125 46.734375 
Q 21.96875 47.46875 24.109375 47.828125 
Q 26.265625 48.1875 28.421875 48.1875 
Q 40.625 48.1875 47.75 41.5 
Q 54.890625 34.8125 54.890625 23.390625 
Q 54.890625 11.625 47.5625 5.09375 
Q 40.234375 -1.421875 26.90625 -1.421875 
Q 22.3125 -1.421875 17.546875 -0.640625 
Q 12.796875 0.140625 7.71875 1.703125 
L 7.71875 11.625 
Q 12.109375 9.234375 16.796875 8.0625 
Q 21.484375 6.890625 26.703125 6.890625 
Q 35.15625 6.890625 40.078125 11.328125 
Q 45.015625 15.765625 45.015625 23.390625 
Q 45.015625 31 40.078125 35.4375 
Q 35.15625 39.890625 26.703125 39.890625 
Q 22.75 39.890625 18.8125 39.015625 
Q 14.890625 38.140625 10.796875 36.28125 
z
" id="DejaVuSans-35"/>
    </defs>
    <g transform="translate(182.346 27.730798)scale(0.2 -0.2)">
     <use xlink:href="#DejaVuSans-7b"/>
     <use x="63.623047" xlink:href="#DejaVuSans-66"/>
     <use x="98.828125" xlink:href="#DejaVuSans-32"/>
     <use x="162.451172" xlink:href="#DejaVuSans-30"/>
     <use x="226.074219" xlink:href="#DejaVuSans-2d"/>
     <use x="262.158203" xlink:href="#DejaVuSans-66"/>
     <use x="297.363281" xlink:href="#DejaVuSans-32"/>
     <use x="360.986328" xlink:href="#DejaVuSans-34"/>
     <use x="424.609375" xlink:href="#DejaVuSans-7d"/>
     <use x="488.232422" xlink:href="#DejaVuSans-2c"/>
     <use x="520.019531" xlink:href="#DejaVuSans-20"/>
     <use x="551.806641" xlink:href="#DejaVuSans-35"/>
     <use x="615.429688" xlink:href="#DejaVuSans-2d"/>
     <use x="651.513672" xlink:href="#DejaVuSans-44"/>
    </g>
   </g>
   <g id="text_12">
    <!-- absolute targets -->
    <defs>
     <path d="M 48.6875 27.296875 
Q 48.6875 37.203125 44.609375 42.84375 
Q 40.53125 48.484375 33.40625 48.484375 
Q 26.265625 48.484375 22.1875 42.84375 
Q 18.109375 37.203125 18.109375 27.296875 
Q 18.109375 17.390625 22.1875 11.75 
Q 26.265625 6.109375 33.40625 6.109375 
Q 40.53125 6.109375 44.609375 11.75 
Q 48.6875 17.390625 48.6875 27.296875 
z
M 18.109375 46.390625 
Q 20.953125 51.265625 25.265625 53.625 
Q 29.59375 56 35.59375 56 
Q 45.5625 56 51.78125 48.09375 
Q 58.015625 40.1875 58.015625 27.296875 
Q 58.015625 14.40625 51.78125 6.484375 
Q 45.5625 -1.421875 35.59375 -1.421875 
Q 29.59375 -1.421875 25.265625 0.953125 
Q 20.953125 3.328125 18.109375 8.203125 
L 18.109375 0 
L 9.078125 0 
L 9.078125 75.984375 
L 18.109375 75.984375 
z
" id="DejaVuSans-62"/>
     <path d="M 8.5 21.578125 
L 8.5 54.6875 
L 17.484375 54.6875 
L 17.484375 21.921875 
Q 17.484375 14.15625 20.5 10.265625 
Q 23.53125 6.390625 29.59375 6.390625 
Q 36.859375 6.390625 41.078125 11.03125 
Q 45.3125 15.671875 45.3125 23.6875 
L 45.3125 54.6875 
L 54.296875 54.6875 
L 54.296875 0 
L 45.3125 0 
L 45.3125 8.40625 
Q 42.046875 3.421875 37.71875 1 
Q 33.40625 -1.421875 27.6875 -1.421875 
Q 18.265625 -1.421875 13.375 4.4375 
Q 8.5 10.296875 8.5 21.578125 
z
M 31.109375 56 
z
" id="DejaVuSans-75"/>
     <path d="M 56.203125 29.59375 
L 56.203125 25.203125 
L 14.890625 25.203125 
Q 15.484375 15.921875 20.484375 11.0625 
Q 25.484375 6.203125 34.421875 6.203125 
Q 39.59375 6.203125 44.453125 7.46875 
Q 49.3125 8.734375 54.109375 11.28125 
L 54.109375 2.78125 
Q 49.265625 0.734375 44.1875 -0.34375 
Q 39.109375 -1.421875 33.890625 -1.421875 
Q 20.796875 -1.421875 13.15625 6.1875 
Q 5.515625 13.8125 5.515625 26.8125 
Q 5.515625 40.234375 12.765625 48.109375 
Q 20.015625 56 32.328125 56 
Q 43.359375 56 49.78125 48.890625 
Q 56.203125 41.796875 56.203125 29.59375 
z
M 47.21875 32.234375 
Q 47.125 39.59375 43.09375 43.984375 
Q 39.0625 48.390625 32.421875 48.390625 
Q 24.90625 48.390625 20.390625 44.140625 
Q 15.875 39.890625 15.1875 32.171875 
z
" id="DejaVuSans-65"/>
    </defs>
    <g transform="translate(59.72 598.807496)scale(0.14 -0.14)">
     <use xlink:href="#DejaVuSans-61"/>
     <use x="61.279297" xlink:href="#DejaVuSans-62"/>
     <use x="124.755859" xlink:href="#DejaVuSans-73"/>
     <use x="176.855469" xlink:href="#DejaVuSans-6f"/>
     <use x="238.037109" xlink:href="#DejaVuSans-6c"/>
     <use x="265.820312" xlink:href="#DejaVuSans-75"/>
     <use x="329.199219" xlink:href="#DejaVuSans-74"/>
     <use x="368.408203" xlink:href="#DejaVuSans-65"/>
     <use x="429.931641" xlink:href="#DejaVuSans-20"/>
     <use x="461.71875" xlink:href="#DejaVuSans-74"/>
     <use x="500.927734" xlink:href="#DejaVuSans-61"/>
     <use x="562.207031" xlink:href="#DejaVuSans-72"/>
     <use x="603.304688" xlink:href="#DejaVuSans-67"/>
     <use x="666.78125" xlink:href="#DejaVuSans-65"/>
     <use x="728.304688" xlink:href="#DejaVuSans-74"/>
     <use x="767.513672" xlink:href="#DejaVuSans-73"/>
    </g>
   </g>
   <g id="text_13">
    <!-- v2.2.1.10 -->
    <g style="fill:#808080;" transform="translate(231.563188 286.355965)scale(0.1 -0.1)">
     <use xlink:href="#DejaVuSans-76"/>
     <use x="59.179688" xlink:href="#DejaVuSans-32"/>
     <use x="122.802734" xlink:href="#DejaVuSans-2e"/>
     <use x="154.589844" xlink:href="#DejaVuSans-32"/>
     <use x="218.212891" xlink:href="#DejaVuSans-2e"/>
     <use x="250" xlink:href="#DejaVuSans-31"/>
     <use x="313.623047" xlink:href="#DejaVuSans-2e"/>
     <use x="345.410156" xlink:href="#DejaVuSans-31"/>
     <use x="409.033203" xlink:href="#DejaVuSans-30"/>
    </g>
   </g>
   <g id="legend_1">
    <g id="patch_7">
     <path d="M 73.72 140.270228 
L 202.941875 140.270228 
Q 206.941875 140.270228 206.941875 136.270228 
L 206.941875 20.845228 
Q 206.941875 16.845228 202.941875 16.845228 
L 73.72 16.845228 
Q 69.72 16.845228 69.72 20.845228 
L 69.72 136.270228 
Q 69.72 140.270228 73.72 140.270228 
z
" style="fill:#ffffff;opacity:0.2;stroke:#cccccc;stroke-linejoin:miter;"/>
    </g>
    <g id="line2d_83">
     <path d="M 77.72 33.042103 
L 117.72 33.042103 
" style="fill:none;stroke:#000000;stroke-linecap:square;stroke-width:1.5;"/>
    </g>
    <g id="line2d_84"/>
    <g id="text_14">
     <!-- 1: 5/5 -->
     <defs>
      <path d="M 11.71875 12.40625 
L 22.015625 12.40625 
L 22.015625 0 
L 11.71875 0 
z
M 11.71875 51.703125 
L 22.015625 51.703125 
L 22.015625 39.3125 
L 11.71875 39.3125 
z
" id="DejaVuSans-3a"/>
     </defs>
     <g transform="translate(133.72 40.042103)scale(0.2 -0.2)">
      <use xlink:href="#DejaVuSans-31"/>
      <use x="63.623047" xlink:href="#DejaVuSans-3a"/>
      <use x="97.314453" xlink:href="#DejaVuSans-20"/>
      <use x="129.101562" xlink:href="#DejaVuSans-35"/>
      <use x="192.724609" xlink:href="#DejaVuSans-2f"/>
      <use x="226.416016" xlink:href="#DejaVuSans-35"/>
     </g>
    </g>
    <g id="line2d_85">
     <path d="M 77.72 62.398353 
L 117.72 62.398353 
" style="fill:none;stroke:#00bfbf;stroke-linecap:square;stroke-width:1.5;"/>
    </g>
    <g id="line2d_86"/>
    <g id="text_15">
     <!-- -1: 2/5 -->
     <g transform="translate(133.72 69.398353)scale(0.2 -0.2)">
      <use xlink:href="#DejaVuSans-2d"/>
      <use x="36.083984" xlink:href="#DejaVuSans-31"/>
      <use x="99.707031" xlink:href="#DejaVuSans-3a"/>
      <use x="133.398438" xlink:href="#DejaVuSans-20"/>
      <use x="165.185547" xlink:href="#DejaVuSans-32"/>
      <use x="228.808594" xlink:href="#DejaVuSans-2f"/>
      <use x="262.5" xlink:href="#DejaVuSans-35"/>
     </g>
    </g>
    <g id="line2d_87">
     <path d="M 77.72 91.754603 
L 117.72 91.754603 
" style="fill:none;stroke:#bf00bf;stroke-linecap:square;stroke-width:1.5;"/>
    </g>
    <g id="line2d_88"/>
    <g id="text_16">
     <!-- -4: 1/5 -->
     <g transform="translate(133.72 98.754603)scale(0.2 -0.2)">
      <use xlink:href="#DejaVuSans-2d"/>
      <use x="36.083984" xlink:href="#DejaVuSans-34"/>
      <use x="99.707031" xlink:href="#DejaVuSans-3a"/>
      <use x="133.398438" xlink:href="#DejaVuSans-20"/>
      <use x="165.185547" xlink:href="#DejaVuSans-31"/>
      <use x="228.808594" xlink:href="#DejaVuSans-2f"/>
      <use x="262.5" xlink:href="#DejaVuSans-35"/>
     </g>
    </g>
    <g id="line2d_89">
     <path d="M 77.72 121.110853 
L 117.72 121.110853 
" style="fill:none;stroke:#ff0000;stroke-linecap:square;stroke-width:3;"/>
    </g>
    <g id="line2d_90"/>
    <g id="text_17">
     <!-- -8: 0/5 -->
     <g transform="translate(133.72 128.110853)scale(0.2 -0.2)">
      <use xlink:href="#DejaVuSans-2d"/>
      <use x="36.083984" xlink:href="#DejaVuSans-38"/>
      <use x="99.707031" xlink:href="#DejaVuSans-3a"/>
      <use x="133.398438" xlink:href="#DejaVuSans-20"/>
      <use x="165.185547" xlink:href="#DejaVuSans-30"/>
      <use x="228.808594" xlink:href="#DejaVuSans-2f"/>
      <use x="262.5" xlink:href="#DejaVuSans-35"/>
     </g>
    </g>
   </g>
  </g>
 </g>
 <defs>
  <clipPath id="p9676c3c09d">
   <rect height="284.434772" width="390.952" x="59.72" y="6.845228"/>
  </clipPath>
 </defs>
</svg>
