<?xml version="1.0" encoding="utf-8" standalone="no"?>
<!DOCTYPE svg PUBLIC "-//W3C//DTD SVG 1.1//EN"
  "http://www.w3.org/Graphics/SVG/1.1/DTD/svg11.dtd">
<!-- Created with matplotlib (http://matplotlib.org/) -->
<svg height="345.6pt" version="1.1" viewBox="0 0 460.8 345.6" width="460.8pt" xmlns="http://www.w3.org/2000/svg" xmlns:xlink="http://www.w3.org/1999/xlink">
 <defs>
  <style type="text/css">
*{stroke-linecap:butt;stroke-linejoin:round;}
  </style>
 </defs>
 <g id="figure_1">
  <g id="patch_1">
   <path d="M 0 345.6 
L 460.8 345.6 
L 460.8 0 
L 0 0 
z
" style="fill:#ffffff;"/>
  </g>
  <g id="axes_1">
   <g id="patch_2">
    <path d="M 56.12 294.88 
L 399.984 294.88 
L 399.984 6.845228 
L 56.12 6.845228 
z
" style="fill:#ffffff;"/>
   </g>
   <g id="matplotlib.axis_1">
    <g id="xtick_1">
     <g id="line2d_1">
      <path clip-path="url(#pb774a6577e)" d="M 56.12 294.88 
L 56.12 6.845228 
" style="fill:none;stroke:#b0b0b0;stroke-linecap:square;stroke-width:0.8;"/>
     </g>
     <g id="line2d_2">
      <defs>
       <path d="M 0 0 
L 0 3.5 
" id="m09fed68a58" style="stroke:#000000;stroke-width:0.8;"/>
      </defs>
      <g>
       <use style="stroke:#000000;stroke-width:0.8;" x="56.12" xlink:href="#m09fed68a58" y="294.88"/>
      </g>
     </g>
     <g id="text_1">
      <!-- 0 -->
      <defs>
       <path d="M 31.78125 66.40625 
Q 24.171875 66.40625 20.328125 58.90625 
Q 16.5 51.421875 16.5 36.375 
Q 16.5 21.390625 20.328125 13.890625 
Q 24.171875 6.390625 31.78125 6.390625 
Q 39.453125 6.390625 43.28125 13.890625 
Q 47.125 21.390625 47.125 36.375 
Q 47.125 51.421875 43.28125 58.90625 
Q 39.453125 66.40625 31.78125 66.40625 
z
M 31.78125 74.21875 
Q 44.046875 74.21875 50.515625 64.515625 
Q 56.984375 54.828125 56.984375 36.375 
Q 56.984375 17.96875 50.515625 8.265625 
Q 44.046875 -1.421875 31.78125 -1.421875 
Q 19.53125 -1.421875 13.0625 8.265625 
Q 6.59375 17.96875 6.59375 36.375 
Q 6.59375 54.828125 13.0625 64.515625 
Q 19.53125 74.21875 31.78125 74.21875 
z
" id="DejaVuSans-30"/>
      </defs>
      <g transform="translate(49.7575 317.076875)scale(0.2 -0.2)">
       <use xlink:href="#DejaVuSans-30"/>
      </g>
     </g>
    </g>
    <g id="xtick_2">
     <g id="line2d_3">
      <path clip-path="url(#pb774a6577e)" d="M 135.351336 294.88 
L 135.351336 6.845228 
" style="fill:none;stroke:#b0b0b0;stroke-linecap:square;stroke-width:0.8;"/>
     </g>
     <g id="line2d_4">
      <g>
       <use style="stroke:#000000;stroke-width:0.8;" x="135.351336" xlink:href="#m09fed68a58" y="294.88"/>
      </g>
     </g>
     <g id="text_2">
      <!-- 2 -->
      <defs>
       <path d="M 19.1875 8.296875 
L 53.609375 8.296875 
L 53.609375 0 
L 7.328125 0 
L 7.328125 8.296875 
Q 12.9375 14.109375 22.625 23.890625 
Q 32.328125 33.6875 34.8125 36.53125 
Q 39.546875 41.84375 41.421875 45.53125 
Q 43.3125 49.21875 43.3125 52.78125 
Q 43.3125 58.59375 39.234375 62.25 
Q 35.15625 65.921875 28.609375 65.921875 
Q 23.96875 65.921875 18.8125 64.3125 
Q 13.671875 62.703125 7.8125 59.421875 
L 7.8125 69.390625 
Q 13.765625 71.78125 18.9375 73 
Q 24.125 74.21875 28.421875 74.21875 
Q 39.75 74.21875 46.484375 68.546875 
Q 53.21875 62.890625 53.21875 53.421875 
Q 53.21875 48.921875 51.53125 44.890625 
Q 49.859375 40.875 45.40625 35.40625 
Q 44.1875 33.984375 37.640625 27.21875 
Q 31.109375 20.453125 19.1875 8.296875 
z
" id="DejaVuSans-32"/>
      </defs>
      <g transform="translate(128.988836 317.076875)scale(0.2 -0.2)">
       <use xlink:href="#DejaVuSans-32"/>
      </g>
     </g>
    </g>
    <g id="xtick_3">
     <g id="line2d_5">
      <path clip-path="url(#pb774a6577e)" d="M 214.582673 294.88 
L 214.582673 6.845228 
" style="fill:none;stroke:#b0b0b0;stroke-linecap:square;stroke-width:0.8;"/>
     </g>
     <g id="line2d_6">
      <g>
       <use style="stroke:#000000;stroke-width:0.8;" x="214.582673" xlink:href="#m09fed68a58" y="294.88"/>
      </g>
     </g>
     <g id="text_3">
      <!-- 4 -->
      <defs>
       <path d="M 37.796875 64.3125 
L 12.890625 25.390625 
L 37.796875 25.390625 
z
M 35.203125 72.90625 
L 47.609375 72.90625 
L 47.609375 25.390625 
L 58.015625 25.390625 
L 58.015625 17.1875 
L 47.609375 17.1875 
L 47.609375 0 
L 37.796875 0 
L 37.796875 17.1875 
L 4.890625 17.1875 
L 4.890625 26.703125 
z
" id="DejaVuSans-34"/>
      </defs>
      <g transform="translate(208.220173 317.076875)scale(0.2 -0.2)">
       <use xlink:href="#DejaVuSans-34"/>
      </g>
     </g>
    </g>
    <g id="xtick_4">
     <g id="line2d_7">
      <path clip-path="url(#pb774a6577e)" d="M 293.814009 294.88 
L 293.814009 6.845228 
" style="fill:none;stroke:#b0b0b0;stroke-linecap:square;stroke-width:0.8;"/>
     </g>
     <g id="line2d_8">
      <g>
       <use style="stroke:#000000;stroke-width:0.8;" x="293.814009" xlink:href="#m09fed68a58" y="294.88"/>
      </g>
     </g>
     <g id="text_4">
      <!-- 6 -->
      <defs>
       <path d="M 33.015625 40.375 
Q 26.375 40.375 22.484375 35.828125 
Q 18.609375 31.296875 18.609375 23.390625 
Q 18.609375 15.53125 22.484375 10.953125 
Q 26.375 6.390625 33.015625 6.390625 
Q 39.65625 6.390625 43.53125 10.953125 
Q 47.40625 15.53125 47.40625 23.390625 
Q 47.40625 31.296875 43.53125 35.828125 
Q 39.65625 40.375 33.015625 40.375 
z
M 52.59375 71.296875 
L 52.59375 62.3125 
Q 48.875 64.0625 45.09375 64.984375 
Q 41.3125 65.921875 37.59375 65.921875 
Q 27.828125 65.921875 22.671875 59.328125 
Q 17.53125 52.734375 16.796875 39.40625 
Q 19.671875 43.65625 24.015625 45.921875 
Q 28.375 48.1875 33.59375 48.1875 
Q 44.578125 48.1875 50.953125 41.515625 
Q 57.328125 34.859375 57.328125 23.390625 
Q 57.328125 12.15625 50.6875 5.359375 
Q 44.046875 -1.421875 33.015625 -1.421875 
Q 20.359375 -1.421875 13.671875 8.265625 
Q 6.984375 17.96875 6.984375 36.375 
Q 6.984375 53.65625 15.1875 63.9375 
Q 23.390625 74.21875 37.203125 74.21875 
Q 40.921875 74.21875 44.703125 73.484375 
Q 48.484375 72.75 52.59375 71.296875 
z
" id="DejaVuSans-36"/>
      </defs>
      <g transform="translate(287.451509 317.076875)scale(0.2 -0.2)">
       <use xlink:href="#DejaVuSans-36"/>
      </g>
     </g>
    </g>
    <g id="xtick_5">
     <g id="line2d_9">
      <path clip-path="url(#pb774a6577e)" d="M 373.045346 294.88 
L 373.045346 6.845228 
" style="fill:none;stroke:#b0b0b0;stroke-linecap:square;stroke-width:0.8;"/>
     </g>
     <g id="line2d_10">
      <g>
       <use style="stroke:#000000;stroke-width:0.8;" x="373.045346" xlink:href="#m09fed68a58" y="294.88"/>
      </g>
     </g>
     <g id="text_5">
      <!-- 8 -->
      <defs>
       <path d="M 31.78125 34.625 
Q 24.75 34.625 20.71875 30.859375 
Q 16.703125 27.09375 16.703125 20.515625 
Q 16.703125 13.921875 20.71875 10.15625 
Q 24.75 6.390625 31.78125 6.390625 
Q 38.8125 6.390625 42.859375 10.171875 
Q 46.921875 13.96875 46.921875 20.515625 
Q 46.921875 27.09375 42.890625 30.859375 
Q 38.875 34.625 31.78125 34.625 
z
M 21.921875 38.8125 
Q 15.578125 40.375 12.03125 44.71875 
Q 8.5 49.078125 8.5 55.328125 
Q 8.5 64.0625 14.71875 69.140625 
Q 20.953125 74.21875 31.78125 74.21875 
Q 42.671875 74.21875 48.875 69.140625 
Q 55.078125 64.0625 55.078125 55.328125 
Q 55.078125 49.078125 51.53125 44.71875 
Q 48 40.375 41.703125 38.8125 
Q 48.828125 37.15625 52.796875 32.3125 
Q 56.78125 27.484375 56.78125 20.515625 
Q 56.78125 9.90625 50.3125 4.234375 
Q 43.84375 -1.421875 31.78125 -1.421875 
Q 19.734375 -1.421875 13.25 4.234375 
Q 6.78125 9.90625 6.78125 20.515625 
Q 6.78125 27.484375 10.78125 32.3125 
Q 14.796875 37.15625 21.921875 38.8125 
z
M 18.3125 54.390625 
Q 18.3125 48.734375 21.84375 45.5625 
Q 25.390625 42.390625 31.78125 42.390625 
Q 38.140625 42.390625 41.71875 45.5625 
Q 45.3125 48.734375 45.3125 54.390625 
Q 45.3125 60.0625 41.71875 63.234375 
Q 38.140625 66.40625 31.78125 66.40625 
Q 25.390625 66.40625 21.84375 63.234375 
Q 18.3125 60.0625 18.3125 54.390625 
z
" id="DejaVuSans-38"/>
      </defs>
      <g transform="translate(366.682846 317.076875)scale(0.2 -0.2)">
       <use xlink:href="#DejaVuSans-38"/>
      </g>
     </g>
    </g>
    <g id="text_6">
     <!-- log10(# f-evals / dimension) -->
     <defs>
      <path d="M 9.421875 75.984375 
L 18.40625 75.984375 
L 18.40625 0 
L 9.421875 0 
z
" id="DejaVuSans-6c"/>
      <path d="M 30.609375 48.390625 
Q 23.390625 48.390625 19.1875 42.75 
Q 14.984375 37.109375 14.984375 27.296875 
Q 14.984375 17.484375 19.15625 11.84375 
Q 23.34375 6.203125 30.609375 6.203125 
Q 37.796875 6.203125 41.984375 11.859375 
Q 46.1875 17.53125 46.1875 27.296875 
Q 46.1875 37.015625 41.984375 42.703125 
Q 37.796875 48.390625 30.609375 48.390625 
z
M 30.609375 56 
Q 42.328125 56 49.015625 48.375 
Q 55.71875 40.765625 55.71875 27.296875 
Q 55.71875 13.875 49.015625 6.21875 
Q 42.328125 -1.421875 30.609375 -1.421875 
Q 18.84375 -1.421875 12.171875 6.21875 
Q 5.515625 13.875 5.515625 27.296875 
Q 5.515625 40.765625 12.171875 48.375 
Q 18.84375 56 30.609375 56 
z
" id="DejaVuSans-6f"/>
      <path d="M 45.40625 27.984375 
Q 45.40625 37.75 41.375 43.109375 
Q 37.359375 48.484375 30.078125 48.484375 
Q 22.859375 48.484375 18.828125 43.109375 
Q 14.796875 37.75 14.796875 27.984375 
Q 14.796875 18.265625 18.828125 12.890625 
Q 22.859375 7.515625 30.078125 7.515625 
Q 37.359375 7.515625 41.375 12.890625 
Q 45.40625 18.265625 45.40625 27.984375 
z
M 54.390625 6.78125 
Q 54.390625 -7.171875 48.1875 -13.984375 
Q 42 -20.796875 29.203125 -20.796875 
Q 24.46875 -20.796875 20.265625 -20.09375 
Q 16.0625 -19.390625 12.109375 -17.921875 
L 12.109375 -9.1875 
Q 16.0625 -11.328125 19.921875 -12.34375 
Q 23.78125 -13.375 27.78125 -13.375 
Q 36.625 -13.375 41.015625 -8.765625 
Q 45.40625 -4.15625 45.40625 5.171875 
L 45.40625 9.625 
Q 42.625 4.78125 38.28125 2.390625 
Q 33.9375 0 27.875 0 
Q 17.828125 0 11.671875 7.65625 
Q 5.515625 15.328125 5.515625 27.984375 
Q 5.515625 40.671875 11.671875 48.328125 
Q 17.828125 56 27.875 56 
Q 33.9375 56 38.28125 53.609375 
Q 42.625 51.21875 45.40625 46.390625 
L 45.40625 54.6875 
L 54.390625 54.6875 
z
" id="DejaVuSans-67"/>
      <path d="M 12.40625 8.296875 
L 28.515625 8.296875 
L 28.515625 63.921875 
L 10.984375 60.40625 
L 10.984375 69.390625 
L 28.421875 72.90625 
L 38.28125 72.90625 
L 38.28125 8.296875 
L 54.390625 8.296875 
L 54.390625 0 
L 12.40625 0 
z
" id="DejaVuSans-31"/>
      <path d="M 31 75.875 
Q 24.46875 64.65625 21.28125 53.65625 
Q 18.109375 42.671875 18.109375 31.390625 
Q 18.109375 20.125 21.3125 9.0625 
Q 24.515625 -2 31 -13.1875 
L 23.1875 -13.1875 
Q 15.875 -1.703125 12.234375 9.375 
Q 8.59375 20.453125 8.59375 31.390625 
Q 8.59375 42.28125 12.203125 53.3125 
Q 15.828125 64.359375 23.1875 75.875 
z
" id="DejaVuSans-28"/>
      <path d="M 51.125 44 
L 36.921875 44 
L 32.8125 27.6875 
L 47.125 27.6875 
z
M 43.796875 71.78125 
L 38.71875 51.515625 
L 52.984375 51.515625 
L 58.109375 71.78125 
L 65.921875 71.78125 
L 60.890625 51.515625 
L 76.125 51.515625 
L 76.125 44 
L 58.984375 44 
L 54.984375 27.6875 
L 70.515625 27.6875 
L 70.515625 20.21875 
L 53.078125 20.21875 
L 48 0 
L 40.1875 0 
L 45.21875 20.21875 
L 30.90625 20.21875 
L 25.875 0 
L 18.015625 0 
L 23.09375 20.21875 
L 7.71875 20.21875 
L 7.71875 27.6875 
L 24.90625 27.6875 
L 29 44 
L 13.28125 44 
L 13.28125 51.515625 
L 30.90625 51.515625 
L 35.890625 71.78125 
z
" id="DejaVuSans-23"/>
      <path id="DejaVuSans-20"/>
      <path d="M 37.109375 75.984375 
L 37.109375 68.5 
L 28.515625 68.5 
Q 23.6875 68.5 21.796875 66.546875 
Q 19.921875 64.59375 19.921875 59.515625 
L 19.921875 54.6875 
L 34.71875 54.6875 
L 34.71875 47.703125 
L 19.921875 47.703125 
L 19.921875 0 
L 10.890625 0 
L 10.890625 47.703125 
L 2.296875 47.703125 
L 2.296875 54.6875 
L 10.890625 54.6875 
L 10.890625 58.5 
Q 10.890625 67.625 15.140625 71.796875 
Q 19.390625 75.984375 28.609375 75.984375 
z
" id="DejaVuSans-66"/>
      <path d="M 4.890625 31.390625 
L 31.203125 31.390625 
L 31.203125 23.390625 
L 4.890625 23.390625 
z
" id="DejaVuSans-2d"/>
      <path d="M 56.203125 29.59375 
L 56.203125 25.203125 
L 14.890625 25.203125 
Q 15.484375 15.921875 20.484375 11.0625 
Q 25.484375 6.203125 34.421875 6.203125 
Q 39.59375 6.203125 44.453125 7.46875 
Q 49.3125 8.734375 54.109375 11.28125 
L 54.109375 2.78125 
Q 49.265625 0.734375 44.1875 -0.34375 
Q 39.109375 -1.421875 33.890625 -1.421875 
Q 20.796875 -1.421875 13.15625 6.1875 
Q 5.515625 13.8125 5.515625 26.8125 
Q 5.515625 40.234375 12.765625 48.109375 
Q 20.015625 56 32.328125 56 
Q 43.359375 56 49.78125 48.890625 
Q 56.203125 41.796875 56.203125 29.59375 
z
M 47.21875 32.234375 
Q 47.125 39.59375 43.09375 43.984375 
Q 39.0625 48.390625 32.421875 48.390625 
Q 24.90625 48.390625 20.390625 44.140625 
Q 15.875 39.890625 15.1875 32.171875 
z
" id="DejaVuSans-65"/>
      <path d="M 2.984375 54.6875 
L 12.5 54.6875 
L 29.59375 8.796875 
L 46.6875 54.6875 
L 56.203125 54.6875 
L 35.6875 0 
L 23.484375 0 
z
" id="DejaVuSans-76"/>
      <path d="M 34.28125 27.484375 
Q 23.390625 27.484375 19.1875 25 
Q 14.984375 22.515625 14.984375 16.5 
Q 14.984375 11.71875 18.140625 8.90625 
Q 21.296875 6.109375 26.703125 6.109375 
Q 34.1875 6.109375 38.703125 11.40625 
Q 43.21875 16.703125 43.21875 25.484375 
L 43.21875 27.484375 
z
M 52.203125 31.203125 
L 52.203125 0 
L 43.21875 0 
L 43.21875 8.296875 
Q 40.140625 3.328125 35.546875 0.953125 
Q 30.953125 -1.421875 24.3125 -1.421875 
Q 15.921875 -1.421875 10.953125 3.296875 
Q 6 8.015625 6 15.921875 
Q 6 25.140625 12.171875 29.828125 
Q 18.359375 34.515625 30.609375 34.515625 
L 43.21875 34.515625 
L 43.21875 35.40625 
Q 43.21875 41.609375 39.140625 45 
Q 35.0625 48.390625 27.6875 48.390625 
Q 23 48.390625 18.546875 47.265625 
Q 14.109375 46.140625 10.015625 43.890625 
L 10.015625 52.203125 
Q 14.9375 54.109375 19.578125 55.046875 
Q 24.21875 56 28.609375 56 
Q 40.484375 56 46.34375 49.84375 
Q 52.203125 43.703125 52.203125 31.203125 
z
" id="DejaVuSans-61"/>
      <path d="M 44.28125 53.078125 
L 44.28125 44.578125 
Q 40.484375 46.53125 36.375 47.5 
Q 32.28125 48.484375 27.875 48.484375 
Q 21.1875 48.484375 17.84375 46.4375 
Q 14.5 44.390625 14.5 40.28125 
Q 14.5 37.15625 16.890625 35.375 
Q 19.28125 33.59375 26.515625 31.984375 
L 29.59375 31.296875 
Q 39.15625 29.25 43.1875 25.515625 
Q 47.21875 21.78125 47.21875 15.09375 
Q 47.21875 7.46875 41.1875 3.015625 
Q 35.15625 -1.421875 24.609375 -1.421875 
Q 20.21875 -1.421875 15.453125 -0.5625 
Q 10.6875 0.296875 5.421875 2 
L 5.421875 11.28125 
Q 10.40625 8.6875 15.234375 7.390625 
Q 20.0625 6.109375 24.8125 6.109375 
Q 31.15625 6.109375 34.5625 8.28125 
Q 37.984375 10.453125 37.984375 14.40625 
Q 37.984375 18.0625 35.515625 20.015625 
Q 33.0625 21.96875 24.703125 23.78125 
L 21.578125 24.515625 
Q 13.234375 26.265625 9.515625 29.90625 
Q 5.8125 33.546875 5.8125 39.890625 
Q 5.8125 47.609375 11.28125 51.796875 
Q 16.75 56 26.8125 56 
Q 31.78125 56 36.171875 55.265625 
Q 40.578125 54.546875 44.28125 53.078125 
z
" id="DejaVuSans-73"/>
      <path d="M 25.390625 72.90625 
L 33.6875 72.90625 
L 8.296875 -9.28125 
L 0 -9.28125 
z
" id="DejaVuSans-2f"/>
      <path d="M 45.40625 46.390625 
L 45.40625 75.984375 
L 54.390625 75.984375 
L 54.390625 0 
L 45.40625 0 
L 45.40625 8.203125 
Q 42.578125 3.328125 38.25 0.953125 
Q 33.9375 -1.421875 27.875 -1.421875 
Q 17.96875 -1.421875 11.734375 6.484375 
Q 5.515625 14.40625 5.515625 27.296875 
Q 5.515625 40.1875 11.734375 48.09375 
Q 17.96875 56 27.875 56 
Q 33.9375 56 38.25 53.625 
Q 42.578125 51.265625 45.40625 46.390625 
z
M 14.796875 27.296875 
Q 14.796875 17.390625 18.875 11.75 
Q 22.953125 6.109375 30.078125 6.109375 
Q 37.203125 6.109375 41.296875 11.75 
Q 45.40625 17.390625 45.40625 27.296875 
Q 45.40625 37.203125 41.296875 42.84375 
Q 37.203125 48.484375 30.078125 48.484375 
Q 22.953125 48.484375 18.875 42.84375 
Q 14.796875 37.203125 14.796875 27.296875 
z
" id="DejaVuSans-64"/>
      <path d="M 9.421875 54.6875 
L 18.40625 54.6875 
L 18.40625 0 
L 9.421875 0 
z
M 9.421875 75.984375 
L 18.40625 75.984375 
L 18.40625 64.59375 
L 9.421875 64.59375 
z
" id="DejaVuSans-69"/>
      <path d="M 52 44.1875 
Q 55.375 50.25 60.0625 53.125 
Q 64.75 56 71.09375 56 
Q 79.640625 56 84.28125 50.015625 
Q 88.921875 44.046875 88.921875 33.015625 
L 88.921875 0 
L 79.890625 0 
L 79.890625 32.71875 
Q 79.890625 40.578125 77.09375 44.375 
Q 74.3125 48.1875 68.609375 48.1875 
Q 61.625 48.1875 57.5625 43.546875 
Q 53.515625 38.921875 53.515625 30.90625 
L 53.515625 0 
L 44.484375 0 
L 44.484375 32.71875 
Q 44.484375 40.625 41.703125 44.40625 
Q 38.921875 48.1875 33.109375 48.1875 
Q 26.21875 48.1875 22.15625 43.53125 
Q 18.109375 38.875 18.109375 30.90625 
L 18.109375 0 
L 9.078125 0 
L 9.078125 54.6875 
L 18.109375 54.6875 
L 18.109375 46.1875 
Q 21.1875 51.21875 25.484375 53.609375 
Q 29.78125 56 35.6875 56 
Q 41.65625 56 45.828125 52.96875 
Q 50 49.953125 52 44.1875 
z
" id="DejaVuSans-6d"/>
      <path d="M 54.890625 33.015625 
L 54.890625 0 
L 45.90625 0 
L 45.90625 32.71875 
Q 45.90625 40.484375 42.875 44.328125 
Q 39.84375 48.1875 33.796875 48.1875 
Q 26.515625 48.1875 22.3125 43.546875 
Q 18.109375 38.921875 18.109375 30.90625 
L 18.109375 0 
L 9.078125 0 
L 9.078125 54.6875 
L 18.109375 54.6875 
L 18.109375 46.1875 
Q 21.34375 51.125 25.703125 53.5625 
Q 30.078125 56 35.796875 56 
Q 45.21875 56 50.046875 50.171875 
Q 54.890625 44.34375 54.890625 33.015625 
z
" id="DejaVuSans-6e"/>
      <path d="M 8.015625 75.875 
L 15.828125 75.875 
Q 23.140625 64.359375 26.78125 53.3125 
Q 30.421875 42.28125 30.421875 31.390625 
Q 30.421875 20.453125 26.78125 9.375 
Q 23.140625 -1.703125 15.828125 -13.1875 
L 8.015625 -13.1875 
Q 14.5 -2 17.703125 9.0625 
Q 20.90625 20.125 20.90625 31.390625 
Q 20.90625 42.671875 17.703125 53.65625 
Q 14.5 64.65625 8.015625 75.875 
z
" id="DejaVuSans-29"/>
     </defs>
     <g transform="translate(107.211219 338.153594)scale(0.17 -0.17)">
      <use xlink:href="#DejaVuSans-6c"/>
      <use x="27.783203" xlink:href="#DejaVuSans-6f"/>
      <use x="88.964844" xlink:href="#DejaVuSans-67"/>
      <use x="152.441406" xlink:href="#DejaVuSans-31"/>
      <use x="216.064453" xlink:href="#DejaVuSans-30"/>
      <use x="279.6875" xlink:href="#DejaVuSans-28"/>
      <use x="318.701172" xlink:href="#DejaVuSans-23"/>
      <use x="402.490234" xlink:href="#DejaVuSans-20"/>
      <use x="434.277344" xlink:href="#DejaVuSans-66"/>
      <use x="469.404297" xlink:href="#DejaVuSans-2d"/>
      <use x="505.488281" xlink:href="#DejaVuSans-65"/>
      <use x="567.011719" xlink:href="#DejaVuSans-76"/>
      <use x="626.191406" xlink:href="#DejaVuSans-61"/>
      <use x="687.470703" xlink:href="#DejaVuSans-6c"/>
      <use x="715.253906" xlink:href="#DejaVuSans-73"/>
      <use x="767.353516" xlink:href="#DejaVuSans-20"/>
      <use x="799.140625" xlink:href="#DejaVuSans-2f"/>
      <use x="832.832031" xlink:href="#DejaVuSans-20"/>
      <use x="864.619141" xlink:href="#DejaVuSans-64"/>
      <use x="928.095703" xlink:href="#DejaVuSans-69"/>
      <use x="955.878906" xlink:href="#DejaVuSans-6d"/>
      <use x="1053.291016" xlink:href="#DejaVuSans-65"/>
      <use x="1114.814453" xlink:href="#DejaVuSans-6e"/>
      <use x="1178.193359" xlink:href="#DejaVuSans-73"/>
      <use x="1230.292969" xlink:href="#DejaVuSans-69"/>
      <use x="1258.076172" xlink:href="#DejaVuSans-6f"/>
      <use x="1319.257812" xlink:href="#DejaVuSans-6e"/>
      <use x="1382.636719" xlink:href="#DejaVuSans-29"/>
     </g>
    </g>
   </g>
   <g id="matplotlib.axis_2">
    <g id="ytick_1">
     <g id="line2d_11">
      <path clip-path="url(#pb774a6577e)" d="M 56.12 294.88 
L 399.984 294.88 
" style="fill:none;stroke:#b0b0b0;stroke-linecap:square;stroke-width:0.8;"/>
     </g>
     <g id="line2d_12">
      <defs>
       <path d="M 0 0 
L -3.5 0 
" id="m7bb86bbb75" style="stroke:#000000;stroke-width:0.8;"/>
      </defs>
      <g>
       <use style="stroke:#000000;stroke-width:0.8;" x="56.12" xlink:href="#m7bb86bbb75" y="294.88"/>
      </g>
     </g>
     <g id="text_7">
      <!-- 0.0 -->
      <defs>
       <path d="M 10.6875 12.40625 
L 21 12.40625 
L 21 0 
L 10.6875 0 
z
" id="DejaVuSans-2e"/>
      </defs>
      <g transform="translate(23.675 300.95875)scale(0.16 -0.16)">
       <use xlink:href="#DejaVuSans-30"/>
       <use x="63.623047" xlink:href="#DejaVuSans-2e"/>
       <use x="95.410156" xlink:href="#DejaVuSans-30"/>
      </g>
     </g>
    </g>
    <g id="ytick_2">
     <g id="line2d_13">
      <path clip-path="url(#pb774a6577e)" d="M 56.12 237.843411 
L 399.984 237.843411 
" style="fill:none;stroke:#b0b0b0;stroke-linecap:square;stroke-width:0.8;"/>
     </g>
     <g id="line2d_14">
      <g>
       <use style="stroke:#000000;stroke-width:0.8;" x="56.12" xlink:href="#m7bb86bbb75" y="237.843411"/>
      </g>
     </g>
     <g id="text_8">
      <!-- 0.2 -->
      <g transform="translate(23.675 243.922161)scale(0.16 -0.16)">
       <use xlink:href="#DejaVuSans-30"/>
       <use x="63.623047" xlink:href="#DejaVuSans-2e"/>
       <use x="95.410156" xlink:href="#DejaVuSans-32"/>
      </g>
     </g>
    </g>
    <g id="ytick_3">
     <g id="line2d_15">
      <path clip-path="url(#pb774a6577e)" d="M 56.12 180.806823 
L 399.984 180.806823 
" style="fill:none;stroke:#b0b0b0;stroke-linecap:square;stroke-width:0.8;"/>
     </g>
     <g id="line2d_16">
      <g>
       <use style="stroke:#000000;stroke-width:0.8;" x="56.12" xlink:href="#m7bb86bbb75" y="180.806823"/>
      </g>
     </g>
     <g id="text_9">
      <!-- 0.4 -->
      <g transform="translate(23.675 186.885573)scale(0.16 -0.16)">
       <use xlink:href="#DejaVuSans-30"/>
       <use x="63.623047" xlink:href="#DejaVuSans-2e"/>
       <use x="95.410156" xlink:href="#DejaVuSans-34"/>
      </g>
     </g>
    </g>
    <g id="ytick_4">
     <g id="line2d_17">
      <path clip-path="url(#pb774a6577e)" d="M 56.12 123.770234 
L 399.984 123.770234 
" style="fill:none;stroke:#b0b0b0;stroke-linecap:square;stroke-width:0.8;"/>
     </g>
     <g id="line2d_18">
      <g>
       <use style="stroke:#000000;stroke-width:0.8;" x="56.12" xlink:href="#m7bb86bbb75" y="123.770234"/>
      </g>
     </g>
     <g id="text_10">
      <!-- 0.6 -->
      <g transform="translate(23.675 129.848984)scale(0.16 -0.16)">
       <use xlink:href="#DejaVuSans-30"/>
       <use x="63.623047" xlink:href="#DejaVuSans-2e"/>
       <use x="95.410156" xlink:href="#DejaVuSans-36"/>
      </g>
     </g>
    </g>
    <g id="ytick_5">
     <g id="line2d_19">
      <path clip-path="url(#pb774a6577e)" d="M 56.12 66.733646 
L 399.984 66.733646 
" style="fill:none;stroke:#b0b0b0;stroke-linecap:square;stroke-width:0.8;"/>
     </g>
     <g id="line2d_20">
      <g>
       <use style="stroke:#000000;stroke-width:0.8;" x="56.12" xlink:href="#m7bb86bbb75" y="66.733646"/>
      </g>
     </g>
     <g id="text_11">
      <!-- 0.8 -->
      <g transform="translate(23.675 72.812396)scale(0.16 -0.16)">
       <use xlink:href="#DejaVuSans-30"/>
       <use x="63.623047" xlink:href="#DejaVuSans-2e"/>
       <use x="95.410156" xlink:href="#DejaVuSans-38"/>
      </g>
     </g>
    </g>
    <g id="ytick_6">
     <g id="line2d_21">
      <path clip-path="url(#pb774a6577e)" d="M 56.12 9.697057 
L 399.984 9.697057 
" style="fill:none;stroke:#b0b0b0;stroke-linecap:square;stroke-width:0.8;"/>
     </g>
     <g id="line2d_22">
      <g>
       <use style="stroke:#000000;stroke-width:0.8;" x="56.12" xlink:href="#m7bb86bbb75" y="9.697057"/>
      </g>
     </g>
     <g id="text_12">
      <!-- 1.0 -->
      <g transform="translate(23.675 15.775807)scale(0.16 -0.16)">
       <use xlink:href="#DejaVuSans-31"/>
       <use x="63.623047" xlink:href="#DejaVuSans-2e"/>
       <use x="95.410156" xlink:href="#DejaVuSans-30"/>
      </g>
     </g>
    </g>
    <g id="text_13">
     <!-- Fraction of function,target pairs -->
     <defs>
      <path d="M 9.8125 72.90625 
L 51.703125 72.90625 
L 51.703125 64.59375 
L 19.671875 64.59375 
L 19.671875 43.109375 
L 48.578125 43.109375 
L 48.578125 34.8125 
L 19.671875 34.8125 
L 19.671875 0 
L 9.8125 0 
z
" id="DejaVuSans-46"/>
      <path d="M 41.109375 46.296875 
Q 39.59375 47.171875 37.8125 47.578125 
Q 36.03125 48 33.890625 48 
Q 26.265625 48 22.1875 43.046875 
Q 18.109375 38.09375 18.109375 28.8125 
L 18.109375 0 
L 9.078125 0 
L 9.078125 54.6875 
L 18.109375 54.6875 
L 18.109375 46.1875 
Q 20.953125 51.171875 25.484375 53.578125 
Q 30.03125 56 36.53125 56 
Q 37.453125 56 38.578125 55.875 
Q 39.703125 55.765625 41.0625 55.515625 
z
" id="DejaVuSans-72"/>
      <path d="M 48.78125 52.59375 
L 48.78125 44.1875 
Q 44.96875 46.296875 41.140625 47.34375 
Q 37.3125 48.390625 33.40625 48.390625 
Q 24.65625 48.390625 19.8125 42.84375 
Q 14.984375 37.3125 14.984375 27.296875 
Q 14.984375 17.28125 19.8125 11.734375 
Q 24.65625 6.203125 33.40625 6.203125 
Q 37.3125 6.203125 41.140625 7.25 
Q 44.96875 8.296875 48.78125 10.40625 
L 48.78125 2.09375 
Q 45.015625 0.34375 40.984375 -0.53125 
Q 36.96875 -1.421875 32.421875 -1.421875 
Q 20.0625 -1.421875 12.78125 6.34375 
Q 5.515625 14.109375 5.515625 27.296875 
Q 5.515625 40.671875 12.859375 48.328125 
Q 20.21875 56 33.015625 56 
Q 37.15625 56 41.109375 55.140625 
Q 45.0625 54.296875 48.78125 52.59375 
z
" id="DejaVuSans-63"/>
      <path d="M 18.3125 70.21875 
L 18.3125 54.6875 
L 36.8125 54.6875 
L 36.8125 47.703125 
L 18.3125 47.703125 
L 18.3125 18.015625 
Q 18.3125 11.328125 20.140625 9.421875 
Q 21.96875 7.515625 27.59375 7.515625 
L 36.8125 7.515625 
L 36.8125 0 
L 27.59375 0 
Q 17.1875 0 13.234375 3.875 
Q 9.28125 7.765625 9.28125 18.015625 
L 9.28125 47.703125 
L 2.6875 47.703125 
L 2.6875 54.6875 
L 9.28125 54.6875 
L 9.28125 70.21875 
z
" id="DejaVuSans-74"/>
      <path d="M 8.5 21.578125 
L 8.5 54.6875 
L 17.484375 54.6875 
L 17.484375 21.921875 
Q 17.484375 14.15625 20.5 10.265625 
Q 23.53125 6.390625 29.59375 6.390625 
Q 36.859375 6.390625 41.078125 11.03125 
Q 45.3125 15.671875 45.3125 23.6875 
L 45.3125 54.6875 
L 54.296875 54.6875 
L 54.296875 0 
L 45.3125 0 
L 45.3125 8.40625 
Q 42.046875 3.421875 37.71875 1 
Q 33.40625 -1.421875 27.6875 -1.421875 
Q 18.265625 -1.421875 13.375 4.4375 
Q 8.5 10.296875 8.5 21.578125 
z
M 31.109375 56 
z
" id="DejaVuSans-75"/>
      <path d="M 11.71875 12.40625 
L 22.015625 12.40625 
L 22.015625 4 
L 14.015625 -11.625 
L 7.71875 -11.625 
L 11.71875 4 
z
" id="DejaVuSans-2c"/>
      <path d="M 18.109375 8.203125 
L 18.109375 -20.796875 
L 9.078125 -20.796875 
L 9.078125 54.6875 
L 18.109375 54.6875 
L 18.109375 46.390625 
Q 20.953125 51.265625 25.265625 53.625 
Q 29.59375 56 35.59375 56 
Q 45.5625 56 51.78125 48.09375 
Q 58.015625 40.1875 58.015625 27.296875 
Q 58.015625 14.40625 51.78125 6.484375 
Q 45.5625 -1.421875 35.59375 -1.421875 
Q 29.59375 -1.421875 25.265625 0.953125 
Q 20.953125 3.328125 18.109375 8.203125 
z
M 48.6875 27.296875 
Q 48.6875 37.203125 44.609375 42.84375 
Q 40.53125 48.484375 33.40625 48.484375 
Q 26.265625 48.484375 22.1875 42.84375 
Q 18.109375 37.203125 18.109375 27.296875 
Q 18.109375 17.390625 22.1875 11.75 
Q 26.265625 6.109375 33.40625 6.109375 
Q 40.53125 6.109375 44.609375 11.75 
Q 48.6875 17.390625 48.6875 27.296875 
z
" id="DejaVuSans-70"/>
     </defs>
     <g transform="translate(16.139531 286.001989)rotate(-90)scale(0.17 -0.17)">
      <use xlink:href="#DejaVuSans-46"/>
      <use x="57.410156" xlink:href="#DejaVuSans-72"/>
      <use x="98.523438" xlink:href="#DejaVuSans-61"/>
      <use x="159.802734" xlink:href="#DejaVuSans-63"/>
      <use x="214.783203" xlink:href="#DejaVuSans-74"/>
      <use x="253.992188" xlink:href="#DejaVuSans-69"/>
      <use x="281.775391" xlink:href="#DejaVuSans-6f"/>
      <use x="342.957031" xlink:href="#DejaVuSans-6e"/>
      <use x="406.335938" xlink:href="#DejaVuSans-20"/>
      <use x="438.123047" xlink:href="#DejaVuSans-6f"/>
      <use x="499.304688" xlink:href="#DejaVuSans-66"/>
      <use x="534.509766" xlink:href="#DejaVuSans-20"/>
      <use x="566.296875" xlink:href="#DejaVuSans-66"/>
      <use x="601.501953" xlink:href="#DejaVuSans-75"/>
      <use x="664.880859" xlink:href="#DejaVuSans-6e"/>
      <use x="728.259766" xlink:href="#DejaVuSans-63"/>
      <use x="783.240234" xlink:href="#DejaVuSans-74"/>
      <use x="822.449219" xlink:href="#DejaVuSans-69"/>
      <use x="850.232422" xlink:href="#DejaVuSans-6f"/>
      <use x="911.414062" xlink:href="#DejaVuSans-6e"/>
      <use x="974.792969" xlink:href="#DejaVuSans-2c"/>
      <use x="1006.580078" xlink:href="#DejaVuSans-74"/>
      <use x="1045.789062" xlink:href="#DejaVuSans-61"/>
      <use x="1107.068359" xlink:href="#DejaVuSans-72"/>
      <use x="1148.166016" xlink:href="#DejaVuSans-67"/>
      <use x="1211.642578" xlink:href="#DejaVuSans-65"/>
      <use x="1273.166016" xlink:href="#DejaVuSans-74"/>
      <use x="1312.375" xlink:href="#DejaVuSans-20"/>
      <use x="1344.162109" xlink:href="#DejaVuSans-70"/>
      <use x="1407.638672" xlink:href="#DejaVuSans-61"/>
      <use x="1468.917969" xlink:href="#DejaVuSans-69"/>
      <use x="1496.701172" xlink:href="#DejaVuSans-72"/>
      <use x="1537.814453" xlink:href="#DejaVuSans-73"/>
     </g>
    </g>
   </g>
   <g id="line2d_23">
    <defs>
     <path d="M 0 1.5 
C 0.397805 1.5 0.77937 1.341951 1.06066 1.06066 
C 1.341951 0.77937 1.5 0.397805 1.5 0 
C 1.5 -0.397805 1.341951 -0.77937 1.06066 -1.06066 
C 0.77937 -1.341951 0.397805 -1.5 0 -1.5 
C -0.397805 -1.5 -0.77937 -1.341951 -1.06066 -1.06066 
C -1.341951 -0.77937 -1.5 -0.397805 -1.5 0 
C -1.5 0.397805 -1.341951 0.77937 -1.06066 1.06066 
C -0.77937 1.341951 -0.397805 1.5 0 1.5 
z
" id="m963754646d" style="stroke:#000080;"/>
    </defs>
    <g>
     <use style="fill:#000080;stroke:#000080;" x="200.082275" xlink:href="#m963754646d" y="9.697057"/>
     <use style="fill:#000080;stroke:#000080;" x="200.082275" xlink:href="#m963754646d" y="9.697057"/>
    </g>
   </g>
   <g id="line2d_24">
    <path d="M 56.12 294.88 
L 56.12 271.394346 
L 68.045504 271.394346 
L 68.045504 265.802523 
L 75.021477 265.802523 
L 75.021477 265.243341 
L 79.971009 265.243341 
L 79.971009 258.533154 
L 86.946982 258.533154 
L 86.946982 256.855608 
L 89.599124 256.855608 
L 89.599124 252.941332 
L 95.735668 252.941332 
L 95.735668 248.467874 
L 98.872486 248.467874 
L 98.872486 245.671963 
L 100.24961 245.671963 
L 100.24961 243.435234 
L 102.711641 243.435234 
L 102.711641 242.316869 
L 103.822018 242.316869 
L 103.822018 241.757687 
L 104.865056 241.757687 
L 104.865056 240.639323 
L 109.300972 240.639323 
L 109.300972 238.961776 
L 110.065758 238.961776 
L 110.065758 238.402594 
L 111.500328 238.402594 
L 111.500328 237.843411 
L 112.824432 237.843411 
L 112.824432 236.165865 
L 113.450132 236.165865 
L 113.450132 233.369954 
L 114.637146 233.369954 
L 114.637146 232.810771 
L 115.747522 232.810771 
L 115.747522 230.574042 
L 118.245359 230.574042 
L 118.245359 230.01486 
L 122.723495 230.01486 
L 122.723495 227.778131 
L 124.428341 227.778131 
L 124.428341 223.863855 
L 125.680156 223.863855 
L 125.680156 222.745491 
L 127.402078 222.745491 
L 127.402078 219.94958 
L 128.461173 219.94958 
L 128.461173 216.035304 
L 128.967235 216.035304 
L 128.967235 214.91694 
L 129.458837 214.91694 
L 129.458837 211.002664 
L 131.295765 211.002664 
L 131.295765 209.884299 
L 132.145561 209.884299 
L 132.145561 209.325117 
L 133.346388 209.325117 
L 133.346388 208.765935 
L 134.102767 208.765935 
L 134.102767 208.206753 
L 135.178422 208.206753 
L 135.178422 207.64757 
L 135.522531 207.64757 
L 135.522531 203.174112 
L 136.190765 203.174112 
L 136.190765 202.61493 
L 139.46359 202.61493 
L 139.46359 199.819019 
L 140.257802 199.819019 
L 140.257802 197.023108 
L 141.979724 197.023108 
L 141.979724 195.904743 
L 147.951628 195.904743 
L 147.951628 194.786379 
L 159.3309 194.786379 
L 159.416073 191.990468 
L 159.500826 191.990468 
L 159.585164 188.635374 
L 159.918441 188.635374 
L 160.000761 182.48437 
L 160.082689 182.48437 
L 160.082689 179.688458 
L 160.245384 179.688458 
L 160.245384 176.333365 
L 160.56623 176.333365 
L 160.645515 174.096636 
L 160.724437 174.096636 
L 160.724437 173.537454 
L 161.266977 173.537454 
L 161.343105 169.623178 
L 161.792931 169.623178 
L 161.792931 169.063996 
L 161.940297 169.063996 
L 161.940297 168.504814 
L 162.231295 168.504814 
L 162.231295 165.708902 
L 162.517454 165.708902 
L 162.517454 162.912991 
L 162.93796 162.912991 
L 162.93796 161.235444 
L 170.131792 161.235444 
L 170.222703 158.439533 
L 170.267979 158.439533 
L 170.313136 150.610982 
L 170.403096 150.610982 
L 170.403096 149.492617 
L 170.537161 149.492617 
L 170.62596 142.223248 
L 170.758306 142.223248 
L 170.845974 137.74979 
L 170.889641 137.74979 
L 170.889641 135.513061 
L 171.277737 135.513061 
L 171.362805 133.276332 
L 171.531688 133.276332 
L 171.573652 129.362057 
L 172.069384 129.362057 
L 172.110058 127.125328 
L 176.746998 127.125328 
L 176.808942 118.737594 
L 176.870663 118.737594 
L 176.962832 116.500865 
L 176.993446 116.500865 
L 176.993446 115.382501 
L 177.175993 115.382501 
L 177.266545 110.349861 
L 177.653522 110.349861 
L 177.741601 108.672314 
L 177.945384 108.672314 
L 177.9743 102.521309 
L 178.060757 102.521309 
L 178.060757 100.28458 
L 181.466165 100.28458 
L 181.560245 78.476473 
L 181.607093 78.476473 
L 181.607093 76.798926 
L 181.746876 76.798926 
L 181.770063 72.325468 
L 181.8625 72.325468 
L 181.908533 67.85201 
L 182.136869 67.85201 
L 182.182175 64.496917 
L 182.317381 64.496917 
L 182.317381 61.701006 
L 185.184616 61.701006 
L 185.279357 51.076543 
L 185.317108 51.076543 
L 185.411124 46.603085 
L 185.448587 46.603085 
L 185.448587 45.484721 
L 185.597628 45.484721 
L 185.708568 41.011263 
L 185.763771 41.011263 
L 185.855384 37.096987 
L 186.000957 37.096987 
L 186.000957 36.537805 
L 188.240493 36.537805 
L 188.351492 29.827618 
L 188.430341 29.827618 
L 188.46178 27.590889 
L 188.586964 27.590889 
L 188.695757 24.235795 
L 188.788465 24.235795 
L 188.880675 22.558249 
L 190.834585 22.558249 
L 190.875581 19.762337 
L 190.98443 19.762337 
L 191.065617 16.966426 
L 193.16017 16.966426 
L 193.267403 11.933786 
L 195.102076 11.933786 
L 195.134075 10.815422 
L 195.314288 10.815422 
L 195.314288 10.256239 
L 200.082275 10.256239 
L 200.082275 9.697057 
L 333.429677 9.697057 
L 333.429677 9.697057 
" style="fill:none;stroke:#000080;stroke-linecap:square;stroke-width:1.5;"/>
   </g>
   <g id="line2d_25">
    <defs>
     <path d="M 0 6 
C 1.591219 6 3.117479 5.367802 4.242641 4.242641 
C 5.367802 3.117479 6 1.591219 6 0 
C 6 -1.591219 5.367802 -3.117479 4.242641 -4.242641 
C 3.117479 -5.367802 1.591219 -6 0 -6 
C -1.591219 -6 -3.117479 -5.367802 -4.242641 -4.242641 
C -5.367802 -3.117479 -6 -1.591219 -6 0 
C -6 1.591219 -5.367802 3.117479 -4.242641 4.242641 
C -3.117479 5.367802 -1.591219 6 0 6 
z
" id="mb469449562" style="stroke:#000080;stroke-width:1.5;"/>
    </defs>
    <g>
     <use style="fill-opacity:0;stroke:#000080;stroke-width:1.5;" x="131.295765" xlink:href="#mb469449562" y="211.002664"/>
     <use style="fill-opacity:0;stroke:#000080;stroke-width:1.5;" x="181.489733" xlink:href="#mb469449562" y="93.574393"/>
     <use style="fill-opacity:0;stroke:#000080;stroke-width:1.5;" x="200.082275" xlink:href="#mb469449562" y="9.697057"/>
     <use style="fill-opacity:0;stroke:#000080;stroke-width:1.5;" x="200.082275" xlink:href="#mb469449562" y="9.697057"/>
     <use style="fill-opacity:0;stroke:#000080;stroke-width:1.5;" x="333.429677" xlink:href="#mb469449562" y="9.697057"/>
    </g>
   </g>
   <g id="line2d_26">
    <path style="fill:none;stroke:#000080;stroke-linecap:square;stroke-width:1.5;"/>
    <g/>
   </g>
   <g id="line2d_27">
    <path clip-path="url(#pb774a6577e)" d="M 236.246541 9.697057 
" style="fill:none;stroke:#000080;stroke-linecap:square;stroke-width:1.5;"/>
    <defs>
     <path d="M -12 12 
L 12 -12 
M -12 -12 
L 12 12 
" id="mcd435e6fee" style="stroke:#000080;stroke-width:3;"/>
    </defs>
    <g clip-path="url(#pb774a6577e)">
     <use style="fill:#000080;stroke:#000080;stroke-width:3;" x="236.246541" xlink:href="#mcd435e6fee" y="9.697057"/>
    </g>
   </g>
   <g id="line2d_28">
    <defs>
     <path d="M 0 1.5 
C 0.397805 1.5 0.77937 1.341951 1.06066 1.06066 
C 1.341951 0.77937 1.5 0.397805 1.5 0 
C 1.5 -0.397805 1.341951 -0.77937 1.06066 -1.06066 
C 0.77937 -1.341951 0.397805 -1.5 0 -1.5 
C -0.397805 -1.5 -0.77937 -1.341951 -1.06066 -1.06066 
C -1.341951 -0.77937 -1.5 -0.397805 -1.5 0 
C -1.5 0.397805 -1.341951 0.77937 -1.06066 1.06066 
C -0.77937 1.341951 -0.397805 1.5 0 1.5 
z
" id="mf56b668e13" style="stroke:#ff00ff;"/>
    </defs>
    <g>
     <use style="fill:#ff00ff;stroke:#ff00ff;" x="267.305341" xlink:href="#mf56b668e13" y="9.697057"/>
     <use style="fill:#ff00ff;stroke:#ff00ff;" x="267.305341" xlink:href="#mf56b668e13" y="9.697057"/>
    </g>
   </g>
   <g id="line2d_29">
    <path d="M 86.946982 294.88 
L 86.946982 293.761636 
L 124.428341 293.761636 
L 124.428341 288.728995 
L 128.461173 288.728995 
L 128.461173 287.610631 
L 131.725909 287.610631 
L 131.725909 285.933084 
L 134.468842 285.933084 
L 134.468842 284.255537 
L 138.630934 284.255537 
L 138.630934 283.696355 
L 141.016963 283.696355 
L 141.016963 279.222897 
L 141.262751 279.222897 
L 141.262751 278.663715 
L 159.416073 278.663715 
L 159.416073 275.308622 
L 159.752609 275.308622 
L 159.752609 274.190257 
L 159.918441 274.190257 
L 160.000761 270.835164 
L 160.082689 270.835164 
L 160.164229 268.039252 
L 160.326158 268.039252 
L 160.406555 265.802523 
L 160.802998 265.802523 
L 160.881202 261.888248 
L 161.190511 261.888248 
L 161.190511 260.769883 
L 161.644292 260.769883 
L 161.644292 257.41479 
L 162.013509 257.41479 
L 162.013509 255.178061 
L 162.159006 255.178061 
L 162.159006 254.059696 
L 162.303282 254.059696 
L 162.303282 251.822967 
L 170.131792 251.822967 
L 170.131792 250.145421 
L 170.313136 250.145421 
L 170.403096 246.790327 
L 170.714304 246.790327 
L 170.714304 244.553598 
L 171.019982 244.553598 
L 171.019982 243.435234 
L 171.531688 243.435234 
L 171.531688 240.08014 
L 171.823303 240.08014 
L 171.823303 238.402594 
L 172.150635 238.402594 
L 172.150635 237.284229 
L 176.715942 237.284229 
L 176.777998 231.133225 
L 176.83983 231.133225 
L 176.901441 230.01486 
L 176.962832 230.01486 
L 176.993446 228.896496 
L 177.084961 228.896496 
L 177.175993 225.541402 
L 177.386544 225.541402 
L 177.416414 222.186309 
L 177.945384 222.186309 
L 177.945384 221.627126 
L 178.146781 221.627126 
L 178.146781 220.508762 
L 181.466165 220.508762 
L 181.560245 215.476122 
L 181.583685 215.476122 
L 181.653813 211.561846 
L 181.700407 211.561846 
L 181.700407 211.002664 
L 181.839437 211.002664 
L 181.839437 208.765935 
L 182.02308 208.765935 
L 182.02308 208.206753 
L 182.136869 208.206753 
L 182.159537 204.292477 
L 182.496019 204.292477 
L 182.54039 199.819019 
L 185.184616 199.819019 
L 185.279357 195.904743 
L 185.298243 195.904743 
L 185.392362 189.753739 
L 185.411124 189.753739 
L 185.467288 187.51701 
L 185.690128 187.51701 
L 185.690128 185.280281 
L 185.910118 185.280281 
L 185.964679 184.161916 
L 188.240493 184.161916 
L 188.335679 178.570094 
L 188.367291 178.570094 
L 188.4146 176.892547 
L 188.555753 176.892547 
L 188.571366 171.300725 
L 188.742173 171.300725 
L 188.849993 169.623178 
L 188.865341 169.623178 
L 188.941875 167.945631 
L 190.834585 167.945631 
L 190.943692 164.031356 
L 190.997988 164.031356 
L 191.092595 157.880351 
L 191.146423 157.880351 
L 191.253577 154.525258 
L 193.088308 154.525258 
L 193.172118 146.696706 
L 193.243631 146.696706 
L 193.326689 145.578342 
L 193.421124 145.578342 
L 193.515044 143.341613 
L 195.08071 143.341613 
L 195.166015 138.308973 
L 195.282623 138.308973 
L 195.282623 137.190608 
L 195.429899 137.190608 
L 195.429899 136.631426 
L 195.544737 136.631426 
L 195.544737 134.953879 
L 196.866144 134.953879 
L 196.914256 133.835515 
L 197.124365 133.835515 
L 197.124365 133.276332 
L 198.501124 133.276332 
L 198.571081 128.802874 
L 199.961961 128.802874 
L 200.010187 124.888599 
L 200.106237 124.888599 
L 200.169974 123.770234 
L 201.360432 123.770234 
L 201.39009 122.65187 
L 201.566967 122.65187 
L 201.566967 121.533505 
L 202.591665 121.533505 
L 202.598572 118.737594 
L 203.939804 118.737594 
L 203.939804 118.178412 
L 236.449984 118.178412 
L 236.478921 115.382501 
L 236.611407 115.382501 
L 236.641983 110.349861 
L 236.779855 110.349861 
L 236.817695 104.758038 
L 236.944794 104.758038 
L 236.988824 97.488669 
L 237.109096 97.488669 
L 237.148073 88.541753 
L 237.271843 88.541753 
L 237.29024 82.949931 
L 237.436712 82.949931 
L 237.461307 74.003015 
L 237.592791 74.003015 
L 237.62528 67.85201 
L 237.751047 67.85201 
L 237.780559 63.937735 
L 237.907861 63.937735 
L 237.912295 62.260188 
L 238.065017 62.260188 
L 238.065017 61.701006 
L 238.22075 61.701006 
L 238.2399 59.464277 
L 238.371632 59.464277 
L 238.398375 54.431636 
L 248.205957 54.431636 
L 248.205957 53.872454 
L 248.355446 53.872454 
L 248.463354 48.839814 
L 248.525192 48.839814 
L 248.628716 41.570445 
L 248.692333 41.570445 
L 248.790147 36.537805 
L 248.858335 36.537805 
L 248.961278 30.945982 
L 249.02275 30.945982 
L 249.035297 28.709253 
L 255.224531 28.709253 
L 255.331177 24.794978 
L 255.340517 24.794978 
L 255.393565 23.117431 
L 255.502999 23.117431 
L 255.562543 19.762337 
L 255.778288 19.762337 
L 255.888118 18.643973 
L 260.281796 18.643973 
L 260.36471 15.28888 
L 260.409376 15.28888 
L 260.447945 13.611333 
L 260.52935 13.611333 
L 260.52935 13.052151 
L 264.047028 13.052151 
L 264.047028 12.492968 
L 264.216821 12.492968 
L 264.24985 11.374604 
L 267.167127 11.374604 
L 267.196734 10.256239 
L 267.305341 10.256239 
L 267.305341 9.697057 
L 333.429677 9.697057 
L 333.429677 9.697057 
" style="fill:none;stroke:#ff00ff;stroke-linecap:square;stroke-width:1.5;"/>
   </g>
   <g id="line2d_30">
    <defs>
     <path d="M -0 8.485281 
L 5.091169 0 
L 0 -8.485281 
L -5.091169 -0 
z
" id="me9a8d63bdd" style="stroke:#ff00ff;stroke-linejoin:miter;stroke-width:1.5;"/>
    </defs>
    <g>
     <use style="fill-opacity:0;stroke:#ff00ff;stroke-linejoin:miter;stroke-width:1.5;" x="182.496019" xlink:href="#me9a8d63bdd" y="204.292477"/>
     <use style="fill-opacity:0;stroke:#ff00ff;stroke-linejoin:miter;stroke-width:1.5;" x="203.939804" xlink:href="#me9a8d63bdd" y="118.178412"/>
     <use style="fill-opacity:0;stroke:#ff00ff;stroke-linejoin:miter;stroke-width:1.5;" x="267.305341" xlink:href="#me9a8d63bdd" y="9.697057"/>
     <use style="fill-opacity:0;stroke:#ff00ff;stroke-linejoin:miter;stroke-width:1.5;" x="267.305341" xlink:href="#me9a8d63bdd" y="9.697057"/>
     <use style="fill-opacity:0;stroke:#ff00ff;stroke-linejoin:miter;stroke-width:1.5;" x="333.429677" xlink:href="#me9a8d63bdd" y="9.697057"/>
    </g>
   </g>
   <g id="line2d_31">
    <path style="fill:none;stroke:#ff00ff;stroke-linecap:square;stroke-width:1.5;"/>
    <g/>
   </g>
   <g id="line2d_32">
    <path clip-path="url(#pb774a6577e)" d="M 236.246541 118.178412 
" style="fill:none;stroke:#ff00ff;stroke-linecap:square;stroke-width:1.5;"/>
    <defs>
     <path d="M -12 12 
L 12 -12 
M -12 -12 
L 12 12 
" id="mc66d5d80a2" style="stroke:#ff00ff;stroke-width:3;"/>
    </defs>
    <g clip-path="url(#pb774a6577e)">
     <use style="fill:#ff00ff;stroke:#ff00ff;stroke-width:3;" x="236.246541" xlink:href="#mc66d5d80a2" y="118.178412"/>
    </g>
   </g>
   <g id="line2d_33">
    <defs>
     <path d="M 0 1.5 
C 0.397805 1.5 0.77937 1.341951 1.06066 1.06066 
C 1.341951 0.77937 1.5 0.397805 1.5 0 
C 1.5 -0.397805 1.341951 -0.77937 1.06066 -1.06066 
C 0.77937 -1.341951 0.397805 -1.5 0 -1.5 
C -0.397805 -1.5 -0.77937 -1.341951 -1.06066 -1.06066 
C -1.341951 -0.77937 -1.5 -0.397805 -1.5 0 
C -1.5 0.397805 -1.341951 0.77937 -1.06066 1.06066 
C -0.77937 1.341951 -0.397805 1.5 0 1.5 
z
" id="m01929701c8" style="stroke:#ffa500;"/>
    </defs>
    <g>
     <use style="fill:#ffa500;stroke:#ffa500;" x="297.455846" xlink:href="#m01929701c8" y="9.697057"/>
     <use style="fill:#ffa500;stroke:#ffa500;" x="297.455846" xlink:href="#m01929701c8" y="9.697057"/>
    </g>
   </g>
   <g id="line2d_34">
    <path d="M 56.12 294.88 
L 56.12 288.728995 
L 68.045504 288.728995 
L 68.045504 287.610631 
L 75.021477 287.610631 
L 75.021477 284.255537 
L 79.971009 284.255537 
L 79.971009 283.696355 
L 86.946982 283.696355 
L 86.946982 281.459626 
L 89.599124 281.459626 
L 89.599124 279.782079 
L 91.896513 279.782079 
L 91.896513 278.663715 
L 93.922955 278.663715 
L 93.922955 276.986168 
L 95.735668 276.986168 
L 95.735668 275.867804 
L 97.375467 275.867804 
L 97.375467 275.308622 
L 101.524628 275.308622 
L 101.524628 274.749439 
L 103.822018 274.749439 
L 103.822018 273.071893 
L 104.865056 273.071893 
L 104.865056 272.51271 
L 107.661173 272.51271 
L 107.661173 271.394346 
L 112.175115 271.394346 
L 112.175115 270.275981 
L 115.747522 270.275981 
L 115.747522 269.157617 
L 116.790561 269.157617 
L 116.790561 266.361706 
L 121.991263 266.361706 
L 121.991263 265.802523 
L 126.273486 265.802523 
L 126.273486 263.565795 
L 126.847034 263.565795 
L 126.847034 261.888248 
L 127.402078 261.888248 
L 127.402078 260.210701 
L 131.725909 260.210701 
L 131.725909 259.092337 
L 137.301141 259.092337 
L 137.301141 257.973972 
L 141.744038 257.973972 
L 141.744038 256.855608 
L 143.112032 256.855608 
L 143.112032 255.737243 
L 149.072341 255.737243 
L 149.072341 254.618879 
L 159.3309 254.618879 
L 159.416073 251.263785 
L 159.500826 251.263785 
L 159.500826 250.704603 
L 159.835725 250.704603 
L 159.918441 249.586238 
L 160.000761 249.586238 
L 160.082689 247.908692 
L 160.164229 247.908692 
L 160.245384 246.790327 
L 160.56623 246.790327 
L 160.56623 246.231145 
L 160.959052 246.231145 
L 160.959052 245.112781 
L 162.374969 245.112781 
L 162.374969 243.994416 
L 162.658767 243.994416 
L 162.658767 242.876052 
L 162.93796 242.876052 
L 162.93796 241.757687 
L 170.222703 241.757687 
L 170.313136 240.08014 
L 170.670189 240.08014 
L 170.758306 238.961776 
L 171.192247 238.961776 
L 171.192247 238.402594 
L 171.573652 238.402594 
L 171.573652 237.843411 
L 171.864562 237.843411 
L 171.864562 235.0475 
L 176.870663 235.0475 
L 176.870663 234.488318 
L 177.416414 234.488318 
L 177.416414 233.929136 
L 177.91642 233.929136 
L 177.91642 232.810771 
L 181.466165 232.810771 
L 181.466165 232.251589 
L 181.630469 232.251589 
L 181.630469 231.692407 
L 181.793219 231.692407 
L 181.816344 229.455678 
L 182.000232 229.455678 
L 182.068686 227.218949 
L 185.467288 227.218949 
L 185.467288 226.100584 
L 186.073285 226.100584 
L 186.073285 224.423038 
L 188.240493 224.423038 
L 188.240493 223.863855 
L 188.398845 223.863855 
L 188.398845 223.304673 
L 188.586964 223.304673 
L 188.664744 222.186309 
L 188.773048 222.186309 
L 188.773048 218.272033 
L 190.861927 218.272033 
L 190.861927 216.035304 
L 193.088308 216.035304 
L 193.112296 213.239393 
L 193.631727 213.239393 
L 193.631727 212.680211 
L 195.08071 212.680211 
L 195.187275 209.884299 
L 195.523914 209.884299 
L 195.523914 209.325117 
L 197.284983 209.325117 
L 197.284983 206.529206 
L 198.553618 206.529206 
L 198.553618 205.410841 
L 236.81675 205.410841 
L 236.81675 204.851659 
L 236.957921 204.851659 
L 236.966354 203.733295 
L 237.123026 203.733295 
L 237.153634 201.496566 
L 237.271843 201.496566 
L 237.303106 197.58229 
L 237.434889 197.58229 
L 237.434889 195.904743 
L 237.594598 195.904743 
L 237.634294 193.668014 
L 237.751047 193.668014 
L 237.788599 186.398645 
L 237.913182 186.398645 
L 237.946842 182.48437 
L 248.374765 182.48437 
L 248.459512 176.892547 
L 248.531412 176.892547 
L 248.615869 172.419089 
L 248.696597 172.419089 
L 248.776477 159.557898 
L 248.859273 159.557898 
L 248.960345 155.643622 
L 249.025539 155.643622 
L 249.043192 153.966075 
L 255.283429 153.966075 
L 255.391317 147.815071 
L 255.445169 147.815071 
L 255.553323 139.427337 
L 255.608572 139.427337 
L 255.666173 136.072244 
L 255.733656 136.072244 
L 255.733656 134.953879 
L 260.151558 134.953879 
L 260.199208 131.598786 
L 260.276963 131.598786 
L 260.367836 119.855959 
L 260.40242 119.855959 
L 260.490009 112.586589 
L 260.529588 112.586589 
L 260.529588 112.027407 
L 264.018079 112.027407 
L 264.121989 109.231496 
L 264.148448 109.231496 
L 264.248315 102.521309 
L 264.317248 102.521309 
L 264.317248 101.962127 
L 267.141361 101.962127 
L 267.222739 97.488669 
L 267.254184 97.488669 
L 267.334551 90.778482 
L 269.783828 90.778482 
L 269.880633 84.068295 
L 269.900537 84.068295 
L 269.979097 79.035655 
L 272.050079 79.035655 
L 272.158728 73.443833 
L 272.176164 73.443833 
L 272.261878 68.970375 
L 274.093127 68.970375 
L 274.170147 63.937735 
L 274.223309 63.937735 
L 274.246931 60.023459 
L 275.902944 60.023459 
L 275.970833 56.109183 
L 276.01872 56.109183 
L 276.036328 53.313272 
L 277.539044 53.313272 
L 277.629017 49.398996 
L 277.660371 49.398996 
L 277.660371 48.839814 
L 279.017049 48.839814 
L 279.101252 42.129627 
L 280.407494 42.129627 
L 280.497416 39.333716 
L 281.680275 39.333716 
L 281.788045 35.978622 
L 282.887312 35.978622 
L 282.956915 33.182711 
L 284.046909 33.182711 
L 284.059895 32.064347 
L 285.0463 32.064347 
L 285.096404 29.268436 
L 285.997642 29.268436 
L 286.043217 26.472524 
L 286.943864 26.472524 
L 286.999024 23.117431 
L 287.816677 23.117431 
L 287.851408 21.439884 
L 288.654727 21.439884 
L 288.702311 19.203155 
L 290.223636 19.203155 
L 290.223636 18.643973 
L 290.941516 18.643973 
L 290.990161 16.966426 
L 291.642588 16.966426 
L 291.662798 15.848062 
L 292.309975 15.848062 
L 292.348911 14.170515 
L 292.978176 14.170515 
L 292.978176 13.611333 
L 293.615546 13.611333 
L 293.63329 12.492968 
L 294.235451 12.492968 
L 294.235451 11.933786 
L 295.362946 11.933786 
L 295.362946 11.374604 
L 295.908082 11.374604 
L 295.928665 10.256239 
L 297.455846 10.256239 
L 297.455846 9.697057 
L 333.429677 9.697057 
L 333.429677 9.697057 
" style="fill:none;stroke:#ffa500;stroke-linecap:square;stroke-width:1.5;"/>
   </g>
   <g id="line2d_35">
    <defs>
     <path d="M 0 -6 
L -1.347084 -1.854102 
L -5.706339 -1.854102 
L -2.179628 0.708204 
L -3.526712 4.854102 
L -0 2.291796 
L 3.526712 4.854102 
L 2.179628 0.708204 
L 5.706339 -1.854102 
L 1.347084 -1.854102 
z
" id="m9f49e29431" style="stroke:#ffa500;stroke-linejoin:bevel;stroke-width:1.5;"/>
    </defs>
    <g>
     <use style="fill-opacity:0;stroke:#ffa500;stroke-linejoin:bevel;stroke-width:1.5;" x="149.072341" xlink:href="#m9f49e29431" y="254.618879"/>
     <use style="fill-opacity:0;stroke:#ffa500;stroke-linejoin:bevel;stroke-width:1.5;" x="237.913182" xlink:href="#m9f49e29431" y="185.280281"/>
     <use style="fill-opacity:0;stroke:#ffa500;stroke-linejoin:bevel;stroke-width:1.5;" x="279.101252" xlink:href="#m9f49e29431" y="42.129627"/>
     <use style="fill-opacity:0;stroke:#ffa500;stroke-linejoin:bevel;stroke-width:1.5;" x="297.455846" xlink:href="#m9f49e29431" y="9.697057"/>
     <use style="fill-opacity:0;stroke:#ffa500;stroke-linejoin:bevel;stroke-width:1.5;" x="333.429677" xlink:href="#m9f49e29431" y="9.697057"/>
    </g>
   </g>
   <g id="line2d_36">
    <path style="fill:none;stroke:#ffa500;stroke-linecap:square;stroke-width:1.5;"/>
    <g/>
   </g>
   <g id="line2d_37">
    <path clip-path="url(#pb774a6577e)" d="M 236.246541 205.410841 
" style="fill:none;stroke:#ffa500;stroke-linecap:square;stroke-width:1.5;"/>
    <defs>
     <path d="M -12 12 
L 12 -12 
M -12 -12 
L 12 12 
" id="m68abade2b8" style="stroke:#ffa500;stroke-width:3;"/>
    </defs>
    <g clip-path="url(#pb774a6577e)">
     <use style="fill:#ffa500;stroke:#ffa500;stroke-width:3;" x="236.246541" xlink:href="#m68abade2b8" y="205.410841"/>
    </g>
   </g>
   <g id="line2d_38">
    <defs>
     <path d="M 0 1.5 
C 0.397805 1.5 0.77937 1.341951 1.06066 1.06066 
C 1.341951 0.77937 1.5 0.397805 1.5 0 
C 1.5 -0.397805 1.341951 -0.77937 1.06066 -1.06066 
C 0.77937 -1.341951 0.397805 -1.5 0 -1.5 
C -0.397805 -1.5 -0.77937 -1.341951 -1.06066 -1.06066 
C -1.341951 -0.77937 -1.5 -0.397805 -1.5 0 
C -1.5 0.397805 -1.341951 0.77937 -1.06066 1.06066 
C -0.77937 1.341951 -0.397805 1.5 0 1.5 
z
" id="mdf8fd2768b" style="stroke:#6495ed;"/>
    </defs>
    <g>
     <use style="fill:#6495ed;stroke:#6495ed;" x="310.53843" xlink:href="#mdf8fd2768b" y="127.125328"/>
     <use style="fill:#6495ed;stroke:#6495ed;" x="310.53843" xlink:href="#mdf8fd2768b" y="127.125328"/>
    </g>
   </g>
   <g id="line2d_39">
    <path d="M 56.12 294.88 
L 56.12 293.202453 
L 68.045504 293.202453 
L 68.045504 289.288178 
L 75.021477 289.288178 
L 75.021477 287.610631 
L 79.971009 287.610631 
L 79.971009 284.81472 
L 83.810164 284.81472 
L 83.810164 283.696355 
L 86.946982 283.696355 
L 86.946982 283.137173 
L 91.896513 283.137173 
L 91.896513 282.577991 
L 93.922955 282.577991 
L 93.922955 280.341262 
L 95.735668 280.341262 
L 95.735668 278.104533 
L 103.822018 278.104533 
L 103.822018 275.867804 
L 104.865056 275.867804 
L 104.865056 275.308622 
L 105.848459 275.308622 
L 105.848459 274.749439 
L 106.778678 274.749439 
L 106.778678 273.631075 
L 114.053874 273.631075 
L 114.053874 273.071893 
L 119.151088 273.071893 
L 119.151088 272.51271 
L 122.361274 272.51271 
L 122.361274 271.953528 
L 124.428341 271.953528 
L 124.428341 270.835164 
L 125.680156 270.835164 
L 125.680156 269.716799 
L 126.56265 269.716799 
L 126.56265 267.48007 
L 127.402078 267.48007 
L 127.402078 266.920888 
L 128.716065 266.920888 
L 128.716065 265.243341 
L 129.458837 265.243341 
L 129.458837 264.684159 
L 133.346388 264.684159 
L 133.346388 263.006612 
L 134.82729 263.006612 
L 134.82729 261.888248 
L 137.454074 261.888248 
L 137.454074 261.329066 
L 140.386678 261.329066 
L 140.386678 260.769883 
L 141.979724 260.769883 
L 141.979724 259.651519 
L 147.951628 259.651519 
L 147.951628 256.296425 
L 159.752609 256.296425 
L 159.752609 254.618879 
L 160.406555 254.618879 
L 160.486577 251.822967 
L 160.645515 251.822967 
L 160.645515 251.263785 
L 161.343105 251.263785 
L 161.343105 250.145421 
L 161.866772 250.145421 
L 161.866772 249.027056 
L 162.588256 249.027056 
L 162.588256 248.467874 
L 170.222703 248.467874 
L 170.222703 247.34951 
L 170.581618 247.34951 
L 170.581618 246.231145 
L 171.019982 246.231145 
L 171.019982 245.112781 
L 171.740488 245.112781 
L 171.740488 244.553598 
L 176.746998 244.553598 
L 176.746998 243.994416 
L 177.20623 243.994416 
L 177.20623 242.316869 
L 181.466165 242.316869 
L 181.466165 241.757687 
L 181.607093 241.757687 
L 181.630469 240.08014 
L 185.203606 240.08014 
L 185.203606 239.520958 
L 185.448587 239.520958 
L 185.448587 238.961776 
L 185.818797 238.961776 
L 185.818797 238.402594 
L 190.930092 238.402594 
L 190.930092 237.843411 
L 193.608454 237.843411 
L 193.608454 237.284229 
L 198.483591 237.284229 
L 198.483591 236.725047 
L 201.338156 236.725047 
L 201.338156 236.165865 
L 236.254354 236.165865 
L 236.279722 235.0475 
L 236.447088 235.0475 
L 236.455776 232.810771 
L 236.612364 232.810771 
L 236.630524 231.133225 
L 236.779855 231.133225 
L 236.794055 228.896496 
L 236.958858 228.896496 
L 236.958858 228.337313 
L 237.122098 228.337313 
L 237.140656 227.218949 
L 237.274604 227.218949 
L 237.302187 224.423038 
L 237.439446 224.423038 
L 237.439446 222.745491 
L 237.632492 222.745491 
L 237.632492 222.186309 
L 237.907861 222.186309 
L 237.907861 221.067944 
L 238.559675 221.067944 
L 238.559675 219.390397 
L 248.276981 219.390397 
L 248.355929 218.272033 
L 248.440769 218.272033 
L 248.53189 213.798575 
L 248.62491 213.798575 
L 248.693754 212.680211 
L 248.778835 212.680211 
L 248.778835 212.121028 
L 249.187451 212.121028 
L 249.187451 211.561846 
L 249.367457 211.561846 
L 249.367457 209.884299 
L 255.150623 209.884299 
L 255.215127 208.206753 
L 255.327633 208.206753 
L 255.388749 205.970024 
L 255.440688 205.970024 
L 255.455087 203.733295 
L 255.554913 203.733295 
L 255.622516 201.496566 
L 255.83157 201.496566 
L 255.83157 200.937384 
L 255.954116 200.937384 
L 255.954116 200.378201 
L 260.150097 200.378201 
L 260.232436 198.141472 
L 260.276238 198.141472 
L 260.367595 194.786379 
L 260.445073 194.786379 
L 260.528159 193.668014 
L 263.978755 193.668014 
L 264.079803 191.990468 
L 264.112903 191.990468 
L 264.215283 190.312921 
L 264.315719 190.312921 
L 264.383241 188.635374 
L 267.163564 188.635374 
L 267.227742 184.161916 
L 267.278173 184.161916 
L 267.278173 183.602734 
L 267.389945 183.602734 
L 267.481292 182.48437 
L 269.755711 182.48437 
L 269.833408 179.688458 
L 269.880495 179.688458 
L 269.973045 178.570094 
L 269.997238 178.570094 
L 269.997238 178.010912 
L 272.049348 178.010912 
L 272.138848 175.774183 
L 272.176769 175.774183 
L 272.197693 174.096636 
L 274.07287 174.096636 
L 274.133354 171.859907 
L 274.185445 171.859907 
L 274.280377 169.063996 
L 275.954906 169.063996 
L 276.005937 167.386449 
L 276.070141 167.386449 
L 276.086926 166.268085 
L 277.567289 166.268085 
L 277.675323 164.590538 
L 279.044107 164.590538 
L 279.044107 164.031356 
L 279.157966 164.031356 
L 279.157966 163.472173 
L 280.392337 163.472173 
L 280.470907 159.557898 
L 280.509798 159.557898 
L 280.509798 158.998715 
L 281.703038 158.998715 
L 281.717432 157.321169 
L 282.85221 157.321169 
L 282.954069 153.966075 
L 284.004606 153.966075 
L 284.102607 151.729346 
L 285.033464 151.729346 
L 285.114214 150.0518 
L 286.024125 150.0518 
L 286.033755 148.933435 
L 286.96975 148.933435 
L 287.005772 147.255888 
L 287.8255 147.255888 
L 287.857782 145.578342 
L 288.652916 145.578342 
L 288.734516 143.341613 
L 289.461868 143.341613 
L 289.522338 139.986519 
L 291.657105 139.986519 
L 291.696494 138.868155 
L 292.348837 138.868155 
L 292.375194 137.190608 
L 292.996409 137.190608 
L 292.996409 136.631426 
L 295.361971 136.631426 
L 295.361971 136.072244 
L 296.478347 136.072244 
L 296.478347 135.513061 
L 297.436595 135.513061 
L 297.436595 134.953879 
L 298.40981 134.953879 
L 298.40981 134.394697 
L 298.885687 134.394697 
L 298.885687 133.835515 
L 299.309097 133.835515 
L 299.309097 133.276332 
L 300.990111 133.276332 
L 300.990111 132.71715 
L 301.392611 132.71715 
L 301.392611 132.157968 
L 302.503115 132.157968 
L 302.503115 131.598786 
L 302.865018 131.598786 
L 302.865018 131.039603 
L 303.907175 131.039603 
L 303.907175 130.480421 
L 304.587759 130.480421 
L 304.587759 129.921239 
L 304.893103 129.921239 
L 304.893103 129.362057 
L 306.138924 129.362057 
L 306.138924 128.802874 
L 309.351719 128.802874 
L 309.366231 127.68451 
L 310.53843 127.68451 
L 310.53843 127.125328 
L 333.429677 127.125328 
L 333.429677 127.125328 
" style="fill:none;stroke:#6495ed;stroke-linecap:square;stroke-width:1.5;"/>
   </g>
   <g id="line2d_40">
    <defs>
     <path d="M -0 6 
L 6 -6 
L -6 -6 
z
" id="mf183082018" style="stroke:#6495ed;stroke-linejoin:miter;stroke-width:1.5;"/>
    </defs>
    <g>
     <use style="fill-opacity:0;stroke:#6495ed;stroke-linejoin:miter;stroke-width:1.5;" x="114.053874" xlink:href="#mf183082018" y="273.631075"/>
     <use style="fill-opacity:0;stroke:#6495ed;stroke-linejoin:miter;stroke-width:1.5;" x="181.630469" xlink:href="#mf183082018" y="240.08014"/>
     <use style="fill-opacity:0;stroke:#6495ed;stroke-linejoin:miter;stroke-width:1.5;" x="255.954116" xlink:href="#mf183082018" y="200.937384"/>
     <use style="fill-opacity:0;stroke:#6495ed;stroke-linejoin:miter;stroke-width:1.5;" x="310.53843" xlink:href="#mf183082018" y="127.125328"/>
     <use style="fill-opacity:0;stroke:#6495ed;stroke-linejoin:miter;stroke-width:1.5;" x="333.429677" xlink:href="#mf183082018" y="127.125328"/>
    </g>
   </g>
   <g id="line2d_41">
    <path style="fill:none;stroke:#6495ed;stroke-linecap:square;stroke-width:1.5;"/>
    <g/>
   </g>
   <g id="line2d_42">
    <path clip-path="url(#pb774a6577e)" d="M 236.246541 236.165865 
" style="fill:none;stroke:#6495ed;stroke-linecap:square;stroke-width:1.5;"/>
    <defs>
     <path d="M -12 12 
L 12 -12 
M -12 -12 
L 12 12 
" id="mb3b082f36d" style="stroke:#6495ed;stroke-width:3;"/>
    </defs>
    <g clip-path="url(#pb774a6577e)">
     <use style="fill:#6495ed;stroke:#6495ed;stroke-width:3;" x="236.246541" xlink:href="#mb3b082f36d" y="236.165865"/>
    </g>
   </g>
   <g id="line2d_43">
    <defs>
     <path d="M 0 1.5 
C 0.397805 1.5 0.77937 1.341951 1.06066 1.06066 
C 1.341951 0.77937 1.5 0.397805 1.5 0 
C 1.5 -0.397805 1.341951 -0.77937 1.06066 -1.06066 
C 0.77937 -1.341951 0.397805 -1.5 0 -1.5 
C -0.397805 -1.5 -0.77937 -1.341951 -1.06066 -1.06066 
C -1.341951 -0.77937 -1.5 -0.397805 -1.5 0 
C -1.5 0.397805 -1.341951 0.77937 -1.06066 1.06066 
C -0.77937 1.341951 -0.397805 1.5 0 1.5 
z
" id="mb00b731a53" style="stroke:#ff0000;"/>
    </defs>
    <g>
     <use style="fill:#ff0000;stroke:#ff0000;" x="195.091397" xlink:href="#mb00b731a53" y="9.697057"/>
     <use style="fill:#ff0000;stroke:#ff0000;" x="195.091397" xlink:href="#mb00b731a53" y="9.697057"/>
    </g>
   </g>
   <g id="line2d_44">
    <path d="M 56.12 294.88 
L 56.12 285.373902 
L 68.045504 285.373902 
L 68.045504 281.459626 
L 75.021477 281.459626 
L 75.021477 277.545351 
L 79.971009 277.545351 
L 79.971009 274.190257 
L 83.810164 274.190257 
L 83.810164 271.394346 
L 86.946982 271.394346 
L 86.946982 269.716799 
L 91.896513 269.716799 
L 91.896513 268.039252 
L 93.922955 268.039252 
L 93.922955 266.361706 
L 95.735668 266.361706 
L 95.735668 264.684159 
L 97.375467 264.684159 
L 97.375467 262.44743 
L 100.24961 262.44743 
L 100.24961 261.888248 
L 106.778678 261.888248 
L 106.778678 260.769883 
L 107.661173 260.769883 
L 107.661173 260.210701 
L 109.300972 260.210701 
L 109.300972 259.651519 
L 116.790561 259.651519 
L 116.790561 259.092337 
L 117.289287 259.092337 
L 117.289287 258.533154 
L 118.245359 258.533154 
L 118.245359 257.41479 
L 122.361274 257.41479 
L 122.361274 256.855608 
L 123.766534 256.855608 
L 123.766534 255.178061 
L 124.100619 255.178061 
L 124.100619 253.500514 
L 124.428341 253.500514 
L 124.428341 237.843411 
L 125.680156 237.843411 
L 125.680156 236.165865 
L 126.273486 236.165865 
L 126.273486 235.0475 
L 127.939774 235.0475 
L 127.939774 232.810771 
L 128.202449 232.810771 
L 128.202449 231.692407 
L 128.967235 231.692407 
L 128.967235 211.002664 
L 129.458837 211.002664 
L 129.458837 210.443482 
L 129.93678 210.443482 
L 129.93678 197.023108 
L 132.145561 197.023108 
L 132.145561 179.129276 
L 132.955351 179.129276 
L 132.955351 165.14972 
L 134.82729 165.14972 
L 134.82729 162.912991 
L 135.178422 162.912991 
L 135.178422 161.794627 
L 139.732422 161.794627 
L 139.732422 147.255888 
L 140.257802 147.255888 
L 140.257802 146.696706 
L 142.212226 146.696706 
L 142.212226 144.459977 
L 142.668011 144.459977 
L 142.668011 142.78243 
L 159.3309 142.78243 
L 159.3309 127.125328 
L 159.500826 127.125328 
L 159.500826 110.909043 
L 159.585164 110.909043 
L 159.585164 109.231496 
L 159.918441 109.231496 
L 159.918441 98.047851 
L 160.000761 98.047851 
L 160.000761 97.488669 
L 160.082689 97.488669 
L 160.082689 85.18666 
L 160.164229 85.18666 
L 160.164229 84.627477 
L 160.245384 84.627477 
L 160.245384 70.088739 
L 160.802998 70.088739 
L 160.802998 57.78673 
L 160.959052 57.78673 
L 160.959052 57.227548 
L 170.131792 57.227548 
L 170.131792 43.807174 
L 170.313136 43.807174 
L 170.313136 27.031707 
L 178.031986 27.031707 
L 178.031986 26.472524 
L 181.839437 26.472524 
L 181.839437 24.794978 
L 191.092595 24.794978 
L 191.092595 23.676613 
L 193.124277 23.676613 
L 193.124277 23.117431 
L 193.243631 23.117431 
L 193.243631 21.439884 
L 195.091397 21.439884 
L 195.091397 9.697057 
L 333.429677 9.697057 
" style="fill:none;stroke:#ff0000;stroke-linecap:square;stroke-width:1.5;"/>
   </g>
   <g id="line2d_45">
    <defs>
     <path d="M 0 -6 
L -5.196152 -3 
L -5.196152 3 
L -0 6 
L 5.196152 3 
L 5.196152 -3 
z
" id="m7e2570b2ed" style="stroke:#ff0000;stroke-linejoin:miter;stroke-width:1.5;"/>
    </defs>
    <g>
     <use style="fill-opacity:0;stroke:#ff0000;stroke-linejoin:miter;stroke-width:1.5;" x="140.257802" xlink:href="#m7e2570b2ed" y="146.696706"/>
     <use style="fill-opacity:0;stroke:#ff0000;stroke-linejoin:miter;stroke-width:1.5;" x="195.091397" xlink:href="#m7e2570b2ed" y="21.439884"/>
     <use style="fill-opacity:0;stroke:#ff0000;stroke-linejoin:miter;stroke-width:1.5;" x="195.091397" xlink:href="#m7e2570b2ed" y="9.697057"/>
     <use style="fill-opacity:0;stroke:#ff0000;stroke-linejoin:miter;stroke-width:1.5;" x="195.091397" xlink:href="#m7e2570b2ed" y="9.697057"/>
     <use style="fill-opacity:0;stroke:#ff0000;stroke-linejoin:miter;stroke-width:1.5;" x="333.429677" xlink:href="#m7e2570b2ed" y="9.697057"/>
    </g>
   </g>
   <g id="line2d_46">
    <path style="fill:none;stroke:#ff0000;stroke-linecap:square;stroke-width:1.5;"/>
    <g/>
   </g>
   <g id="line2d_47">
    <path d="M 333.429677 127.125328 
L 363.933742 289.176341 
" style="fill:none;stroke:#6495ed;stroke-linecap:square;stroke-width:1.5;"/>
    <g>
     <use style="fill-opacity:0;stroke:#6495ed;stroke-linejoin:miter;stroke-width:1.5;" x="333.429677" xlink:href="#mf183082018" y="127.125328"/>
     <use style="fill-opacity:0;stroke:#6495ed;stroke-linejoin:miter;stroke-width:1.5;" x="363.933742" xlink:href="#mf183082018" y="289.176341"/>
    </g>
   </g>
   <g id="line2d_48">
    <path d="M 333.429677 9.697057 
L 363.933742 220.732435 
" style="fill:none;stroke:#ffa500;stroke-linecap:square;stroke-width:1.5;"/>
    <g>
     <use style="fill-opacity:0;stroke:#ffa500;stroke-linejoin:bevel;stroke-width:1.5;" x="333.429677" xlink:href="#m9f49e29431" y="9.697057"/>
     <use style="fill-opacity:0;stroke:#ffa500;stroke-linejoin:bevel;stroke-width:1.5;" x="363.933742" xlink:href="#m9f49e29431" y="220.732435"/>
    </g>
   </g>
   <g id="line2d_49">
    <path d="M 333.429677 9.697057 
L 363.933742 152.288529 
" style="fill:none;stroke:#ff00ff;stroke-linecap:square;stroke-width:1.5;"/>
    <g>
     <use style="fill-opacity:0;stroke:#ff00ff;stroke-linejoin:miter;stroke-width:1.5;" x="333.429677" xlink:href="#me9a8d63bdd" y="9.697057"/>
     <use style="fill-opacity:0;stroke:#ff00ff;stroke-linejoin:miter;stroke-width:1.5;" x="363.933742" xlink:href="#me9a8d63bdd" y="152.288529"/>
    </g>
   </g>
   <g id="line2d_50">
    <path d="M 333.429677 9.697057 
L 363.933742 83.844622 
" style="fill:none;stroke:#000080;stroke-linecap:square;stroke-width:1.5;"/>
    <g>
     <use style="fill-opacity:0;stroke:#000080;stroke-width:1.5;" x="333.429677" xlink:href="#mb469449562" y="9.697057"/>
     <use style="fill-opacity:0;stroke:#000080;stroke-width:1.5;" x="363.933742" xlink:href="#mb469449562" y="83.844622"/>
    </g>
   </g>
   <g id="line2d_51">
    <path d="M 333.429677 9.697057 
L 363.933742 15.400716 
" style="fill:none;stroke:#ff0000;stroke-linecap:square;stroke-width:1.5;"/>
    <g>
     <use style="fill-opacity:0;stroke:#ff0000;stroke-linejoin:miter;stroke-width:1.5;" x="333.429677" xlink:href="#m7e2570b2ed" y="9.697057"/>
     <use style="fill-opacity:0;stroke:#ff0000;stroke-linejoin:miter;stroke-width:1.5;" x="363.933742" xlink:href="#m7e2570b2ed" y="15.400716"/>
    </g>
   </g>
   <g id="line2d_52">
    <path d="M 333.429677 294.88 
L 333.429677 9.697057 
" style="fill:none;stroke:#000000;stroke-linecap:square;stroke-width:1.5;"/>
   </g>
   <g id="patch_3">
    <path d="M 56.12 294.88 
L 56.12 6.845228 
" style="fill:none;stroke:#000000;stroke-linecap:square;stroke-linejoin:miter;stroke-width:0.8;"/>
   </g>
   <g id="patch_4">
    <path d="M 399.984 294.88 
L 399.984 6.845228 
" style="fill:none;stroke:#000000;stroke-linecap:square;stroke-linejoin:miter;stroke-width:0.8;"/>
   </g>
   <g id="patch_5">
    <path d="M 56.12 294.88 
L 399.984 294.88 
" style="fill:none;stroke:#000000;stroke-linecap:square;stroke-linejoin:miter;stroke-width:0.8;"/>
   </g>
   <g id="patch_6">
    <path d="M 56.12 6.845228 
L 399.984 6.845228 
" style="fill:none;stroke:#000000;stroke-linecap:square;stroke-linejoin:miter;stroke-width:0.8;"/>
   </g>
   <g id="text_14">
    <!-- f4 -->
    <g transform="translate(369.479935 293.867279)scale(0.17 -0.17)">
     <use xlink:href="#DejaVuSans-66"/>
     <use x="35.205078" xlink:href="#DejaVuSans-34"/>
    </g>
   </g>
   <g id="text_15">
    <!-- f3 -->
    <defs>
     <path d="M 40.578125 39.3125 
Q 47.65625 37.796875 51.625 33 
Q 55.609375 28.21875 55.609375 21.1875 
Q 55.609375 10.40625 48.1875 4.484375 
Q 40.765625 -1.421875 27.09375 -1.421875 
Q 22.515625 -1.421875 17.65625 -0.515625 
Q 12.796875 0.390625 7.625 2.203125 
L 7.625 11.71875 
Q 11.71875 9.328125 16.59375 8.109375 
Q 21.484375 6.890625 26.8125 6.890625 
Q 36.078125 6.890625 40.9375 10.546875 
Q 45.796875 14.203125 45.796875 21.1875 
Q 45.796875 27.640625 41.28125 31.265625 
Q 36.765625 34.90625 28.71875 34.90625 
L 20.21875 34.90625 
L 20.21875 43.015625 
L 29.109375 43.015625 
Q 36.375 43.015625 40.234375 45.921875 
Q 44.09375 48.828125 44.09375 54.296875 
Q 44.09375 59.90625 40.109375 62.90625 
Q 36.140625 65.921875 28.71875 65.921875 
Q 24.65625 65.921875 20.015625 65.03125 
Q 15.375 64.15625 9.8125 62.3125 
L 9.8125 71.09375 
Q 15.4375 72.65625 20.34375 73.4375 
Q 25.25 74.21875 29.59375 74.21875 
Q 40.828125 74.21875 47.359375 69.109375 
Q 53.90625 64.015625 53.90625 55.328125 
Q 53.90625 49.265625 50.4375 45.09375 
Q 46.96875 40.921875 40.578125 39.3125 
z
" id="DejaVuSans-33"/>
    </defs>
    <g transform="translate(369.479935 225.423372)scale(0.17 -0.17)">
     <use xlink:href="#DejaVuSans-66"/>
     <use x="35.205078" xlink:href="#DejaVuSans-33"/>
    </g>
   </g>
   <g id="text_16">
    <!-- f2 -->
    <g transform="translate(369.479935 156.979466)scale(0.17 -0.17)">
     <use xlink:href="#DejaVuSans-66"/>
     <use x="35.205078" xlink:href="#DejaVuSans-32"/>
    </g>
   </g>
   <g id="text_17">
    <!-- f1 -->
    <g transform="translate(369.479935 88.53556)scale(0.17 -0.17)">
     <use xlink:href="#DejaVuSans-66"/>
     <use x="35.205078" xlink:href="#DejaVuSans-31"/>
    </g>
   </g>
   <g id="text_18">
    <!-- f5 -->
    <defs>
     <path d="M 10.796875 72.90625 
L 49.515625 72.90625 
L 49.515625 64.59375 
L 19.828125 64.59375 
L 19.828125 46.734375 
Q 21.96875 47.46875 24.109375 47.828125 
Q 26.265625 48.1875 28.421875 48.1875 
Q 40.625 48.1875 47.75 41.5 
Q 54.890625 34.8125 54.890625 23.390625 
Q 54.890625 11.625 47.5625 5.09375 
Q 40.234375 -1.421875 26.90625 -1.421875 
Q 22.3125 -1.421875 17.546875 -0.640625 
Q 12.796875 0.140625 7.71875 1.703125 
L 7.71875 11.625 
Q 12.109375 9.234375 16.796875 8.0625 
Q 21.484375 6.890625 26.703125 6.890625 
Q 35.15625 6.890625 40.078125 11.328125 
Q 45.015625 15.765625 45.015625 23.390625 
Q 45.015625 31 40.078125 35.4375 
Q 35.15625 39.890625 26.703125 39.890625 
Q 22.75 39.890625 18.8125 39.015625 
Q 14.890625 38.140625 10.796875 36.28125 
z
" id="DejaVuSans-35"/>
    </defs>
    <g transform="translate(369.479935 20.091654)scale(0.17 -0.17)">
     <use xlink:href="#DejaVuSans-66"/>
     <use x="35.205078" xlink:href="#DejaVuSans-35"/>
    </g>
   </g>
   <g id="text_19">
    <!-- bbob -->
    <defs>
     <path d="M 48.6875 27.296875 
Q 48.6875 37.203125 44.609375 42.84375 
Q 40.53125 48.484375 33.40625 48.484375 
Q 26.265625 48.484375 22.1875 42.84375 
Q 18.109375 37.203125 18.109375 27.296875 
Q 18.109375 17.390625 22.1875 11.75 
Q 26.265625 6.109375 33.40625 6.109375 
Q 40.53125 6.109375 44.609375 11.75 
Q 48.6875 17.390625 48.6875 27.296875 
z
M 18.109375 46.390625 
Q 20.953125 51.265625 25.265625 53.625 
Q 29.59375 56 35.59375 56 
Q 45.5625 56 51.78125 48.09375 
Q 58.015625 40.1875 58.015625 27.296875 
Q 58.015625 14.40625 51.78125 6.484375 
Q 45.5625 -1.421875 35.59375 -1.421875 
Q 29.59375 -1.421875 25.265625 0.953125 
Q 20.953125 3.328125 18.109375 8.203125 
L 18.109375 0 
L 9.078125 0 
L 9.078125 75.984375 
L 18.109375 75.984375 
z
" id="DejaVuSans-62"/>
    </defs>
    <g transform="translate(59.55864 17.475982)scale(0.102 -0.102)">
     <use xlink:href="#DejaVuSans-62"/>
     <use x="63.476562" xlink:href="#DejaVuSans-62"/>
     <use x="126.953125" xlink:href="#DejaVuSans-6f"/>
     <use x="188.134766" xlink:href="#DejaVuSans-62"/>
    </g>
    <!-- Separable functions, 2-D -->
    <defs>
     <path d="M 53.515625 70.515625 
L 53.515625 60.890625 
Q 47.90625 63.578125 42.921875 64.890625 
Q 37.9375 66.21875 33.296875 66.21875 
Q 25.25 66.21875 20.875 63.09375 
Q 16.5 59.96875 16.5 54.203125 
Q 16.5 49.359375 19.40625 46.890625 
Q 22.3125 44.4375 30.421875 42.921875 
L 36.375 41.703125 
Q 47.40625 39.59375 52.65625 34.296875 
Q 57.90625 29 57.90625 20.125 
Q 57.90625 9.515625 50.796875 4.046875 
Q 43.703125 -1.421875 29.984375 -1.421875 
Q 24.8125 -1.421875 18.96875 -0.25 
Q 13.140625 0.921875 6.890625 3.21875 
L 6.890625 13.375 
Q 12.890625 10.015625 18.65625 8.296875 
Q 24.421875 6.59375 29.984375 6.59375 
Q 38.421875 6.59375 43.015625 9.90625 
Q 47.609375 13.234375 47.609375 19.390625 
Q 47.609375 24.75 44.3125 27.78125 
Q 41.015625 30.8125 33.5 32.328125 
L 27.484375 33.5 
Q 16.453125 35.6875 11.515625 40.375 
Q 6.59375 45.0625 6.59375 53.421875 
Q 6.59375 63.09375 13.40625 68.65625 
Q 20.21875 74.21875 32.171875 74.21875 
Q 37.3125 74.21875 42.625 73.28125 
Q 47.953125 72.359375 53.515625 70.515625 
z
" id="DejaVuSans-53"/>
     <path d="M 19.671875 64.796875 
L 19.671875 8.109375 
L 31.59375 8.109375 
Q 46.6875 8.109375 53.6875 14.9375 
Q 60.6875 21.78125 60.6875 36.53125 
Q 60.6875 51.171875 53.6875 57.984375 
Q 46.6875 64.796875 31.59375 64.796875 
z
M 9.8125 72.90625 
L 30.078125 72.90625 
Q 51.265625 72.90625 61.171875 64.09375 
Q 71.09375 55.28125 71.09375 36.53125 
Q 71.09375 17.671875 61.125 8.828125 
Q 51.171875 0 30.078125 0 
L 9.8125 0 
z
" id="DejaVuSans-44"/>
    </defs>
    <g transform="translate(59.55864 28.89775)scale(0.102 -0.102)">
     <use xlink:href="#DejaVuSans-53"/>
     <use x="63.476562" xlink:href="#DejaVuSans-65"/>
     <use x="125" xlink:href="#DejaVuSans-70"/>
     <use x="188.476562" xlink:href="#DejaVuSans-61"/>
     <use x="249.755859" xlink:href="#DejaVuSans-72"/>
     <use x="290.869141" xlink:href="#DejaVuSans-61"/>
     <use x="352.148438" xlink:href="#DejaVuSans-62"/>
     <use x="415.625" xlink:href="#DejaVuSans-6c"/>
     <use x="443.408203" xlink:href="#DejaVuSans-65"/>
     <use x="504.931641" xlink:href="#DejaVuSans-20"/>
     <use x="536.71875" xlink:href="#DejaVuSans-66"/>
     <use x="571.923828" xlink:href="#DejaVuSans-75"/>
     <use x="635.302734" xlink:href="#DejaVuSans-6e"/>
     <use x="698.681641" xlink:href="#DejaVuSans-63"/>
     <use x="753.662109" xlink:href="#DejaVuSans-74"/>
     <use x="792.871094" xlink:href="#DejaVuSans-69"/>
     <use x="820.654297" xlink:href="#DejaVuSans-6f"/>
     <use x="881.835938" xlink:href="#DejaVuSans-6e"/>
     <use x="945.214844" xlink:href="#DejaVuSans-73"/>
     <use x="997.314453" xlink:href="#DejaVuSans-2c"/>
     <use x="1029.101562" xlink:href="#DejaVuSans-20"/>
     <use x="1060.888672" xlink:href="#DejaVuSans-32"/>
     <use x="1124.511719" xlink:href="#DejaVuSans-2d"/>
     <use x="1160.595703" xlink:href="#DejaVuSans-44"/>
    </g>
    <!-- 51 targets: 100..1e-08 -->
    <defs>
     <path d="M 11.71875 12.40625 
L 22.015625 12.40625 
L 22.015625 0 
L 11.71875 0 
z
M 11.71875 51.703125 
L 22.015625 51.703125 
L 22.015625 39.3125 
L 11.71875 39.3125 
z
" id="DejaVuSans-3a"/>
    </defs>
    <g transform="translate(59.55864 40.319519)scale(0.102 -0.102)">
     <use xlink:href="#DejaVuSans-35"/>
     <use x="63.623047" xlink:href="#DejaVuSans-31"/>
     <use x="127.246094" xlink:href="#DejaVuSans-20"/>
     <use x="159.033203" xlink:href="#DejaVuSans-74"/>
     <use x="198.242188" xlink:href="#DejaVuSans-61"/>
     <use x="259.521484" xlink:href="#DejaVuSans-72"/>
     <use x="300.619141" xlink:href="#DejaVuSans-67"/>
     <use x="364.095703" xlink:href="#DejaVuSans-65"/>
     <use x="425.619141" xlink:href="#DejaVuSans-74"/>
     <use x="464.828125" xlink:href="#DejaVuSans-73"/>
     <use x="516.927734" xlink:href="#DejaVuSans-3a"/>
     <use x="550.619141" xlink:href="#DejaVuSans-20"/>
     <use x="582.40625" xlink:href="#DejaVuSans-31"/>
     <use x="646.029297" xlink:href="#DejaVuSans-30"/>
     <use x="709.652344" xlink:href="#DejaVuSans-30"/>
     <use x="773.275391" xlink:href="#DejaVuSans-2e"/>
     <use x="805.0625" xlink:href="#DejaVuSans-2e"/>
     <use x="836.849609" xlink:href="#DejaVuSans-31"/>
     <use x="900.472656" xlink:href="#DejaVuSans-65"/>
     <use x="961.996094" xlink:href="#DejaVuSans-2d"/>
     <use x="998.080078" xlink:href="#DejaVuSans-30"/>
     <use x="1061.703125" xlink:href="#DejaVuSans-38"/>
    </g>
    <!-- 15 instances -->
    <g transform="translate(59.55864 51.741288)scale(0.102 -0.102)">
     <use xlink:href="#DejaVuSans-31"/>
     <use x="63.623047" xlink:href="#DejaVuSans-35"/>
     <use x="127.246094" xlink:href="#DejaVuSans-20"/>
     <use x="159.033203" xlink:href="#DejaVuSans-69"/>
     <use x="186.816406" xlink:href="#DejaVuSans-6e"/>
     <use x="250.195312" xlink:href="#DejaVuSans-73"/>
     <use x="302.294922" xlink:href="#DejaVuSans-74"/>
     <use x="341.503906" xlink:href="#DejaVuSans-61"/>
     <use x="402.783203" xlink:href="#DejaVuSans-6e"/>
     <use x="466.162109" xlink:href="#DejaVuSans-63"/>
     <use x="521.142578" xlink:href="#DejaVuSans-65"/>
     <use x="582.666016" xlink:href="#DejaVuSans-73"/>
    </g>
   </g>
   <g id="text_20">
    <!-- v2.2.1.10 -->
    <g style="fill:#808080;" transform="translate(204.419188 289.919965)scale(0.1 -0.1)">
     <use xlink:href="#DejaVuSans-76"/>
     <use x="59.179688" xlink:href="#DejaVuSans-32"/>
     <use x="122.802734" xlink:href="#DejaVuSans-2e"/>
     <use x="154.589844" xlink:href="#DejaVuSans-32"/>
     <use x="218.212891" xlink:href="#DejaVuSans-2e"/>
     <use x="250" xlink:href="#DejaVuSans-31"/>
     <use x="313.623047" xlink:href="#DejaVuSans-2e"/>
     <use x="345.410156" xlink:href="#DejaVuSans-31"/>
     <use x="409.033203" xlink:href="#DejaVuSans-30"/>
    </g>
   </g>
  </g>
 </g>
 <defs>
  <clipPath id="pb774a6577e">
   <rect height="288.034772" width="343.864" x="56.12" y="6.845228"/>
  </clipPath>
 </defs>
</svg>
