<?xml version="1.0" encoding="utf-8" standalone="no"?>
<!DOCTYPE svg PUBLIC "-//W3C//DTD SVG 1.1//EN"
  "http://www.w3.org/Graphics/SVG/1.1/DTD/svg11.dtd">
<!-- Created with matplotlib (http://matplotlib.org/) -->
<svg height="345.6pt" version="1.1" viewBox="0 0 460.8 345.6" width="460.8pt" xmlns="http://www.w3.org/2000/svg" xmlns:xlink="http://www.w3.org/1999/xlink">
 <defs>
  <style type="text/css">
*{stroke-linecap:butt;stroke-linejoin:round;}
  </style>
 </defs>
 <g id="figure_1">
  <g id="patch_1">
   <path d="M 0 345.6 
L 460.8 345.6 
L 460.8 0 
L 0 0 
z
" style="fill:#ffffff;"/>
  </g>
  <g id="axes_1">
   <g id="patch_2">
    <path d="M 5.52 291.28 
L 450.672 291.28 
L 450.672 5.52 
L 5.52 5.52 
z
" style="fill:#ffffff;"/>
   </g>
   <g id="matplotlib.axis_1">
    <g id="xtick_1">
     <g id="line2d_1">
      <path clip-path="url(#p77986b205d)" d="M 5.408872 291.28 
L 5.408872 5.52 
" style="fill:none;stroke:#b0b0b0;stroke-linecap:square;stroke-width:0.8;"/>
     </g>
     <g id="line2d_2">
      <defs>
       <path d="M 0 0 
L 0 3.5 
" id="mbe48d791a4" style="stroke:#000000;stroke-width:0.8;"/>
      </defs>
      <g>
       <use style="stroke:#000000;stroke-width:0.8;" x="5.408872" xlink:href="#mbe48d791a4" y="291.28"/>
      </g>
     </g>
    </g>
    <g id="xtick_2">
     <g id="line2d_3">
      <path clip-path="url(#p77986b205d)" d="M 108.272817 291.28 
L 108.272817 5.52 
" style="fill:none;stroke:#b0b0b0;stroke-linecap:square;stroke-width:0.8;"/>
     </g>
     <g id="line2d_4">
      <g>
       <use style="stroke:#000000;stroke-width:0.8;" x="108.272817" xlink:href="#mbe48d791a4" y="291.28"/>
      </g>
     </g>
     <g id="text_1">
      <!-- -4 -->
      <defs>
       <path d="M 4.890625 31.390625 
L 31.203125 31.390625 
L 31.203125 23.390625 
L 4.890625 23.390625 
z
" id="DejaVuSans-2d"/>
       <path d="M 37.796875 64.3125 
L 12.890625 25.390625 
L 37.796875 25.390625 
z
M 35.203125 72.90625 
L 47.609375 72.90625 
L 47.609375 25.390625 
L 58.015625 25.390625 
L 58.015625 17.1875 
L 47.609375 17.1875 
L 47.609375 0 
L 37.796875 0 
L 37.796875 17.1875 
L 4.890625 17.1875 
L 4.890625 26.703125 
z
" id="DejaVuSans-34"/>
      </defs>
      <g transform="translate(98.302504 313.476875)scale(0.2 -0.2)">
       <use xlink:href="#DejaVuSans-2d"/>
       <use x="36.083984" xlink:href="#DejaVuSans-34"/>
      </g>
     </g>
    </g>
    <g id="xtick_3">
     <g id="line2d_5">
      <path clip-path="url(#p77986b205d)" d="M 211.136761 291.28 
L 211.136761 5.52 
" style="fill:none;stroke:#b0b0b0;stroke-linecap:square;stroke-width:0.8;"/>
     </g>
     <g id="line2d_6">
      <g>
       <use style="stroke:#000000;stroke-width:0.8;" x="211.136761" xlink:href="#mbe48d791a4" y="291.28"/>
      </g>
     </g>
     <g id="text_2">
      <!-- 0 -->
      <defs>
       <path d="M 31.78125 66.40625 
Q 24.171875 66.40625 20.328125 58.90625 
Q 16.5 51.421875 16.5 36.375 
Q 16.5 21.390625 20.328125 13.890625 
Q 24.171875 6.390625 31.78125 6.390625 
Q 39.453125 6.390625 43.28125 13.890625 
Q 47.125 21.390625 47.125 36.375 
Q 47.125 51.421875 43.28125 58.90625 
Q 39.453125 66.40625 31.78125 66.40625 
z
M 31.78125 74.21875 
Q 44.046875 74.21875 50.515625 64.515625 
Q 56.984375 54.828125 56.984375 36.375 
Q 56.984375 17.96875 50.515625 8.265625 
Q 44.046875 -1.421875 31.78125 -1.421875 
Q 19.53125 -1.421875 13.0625 8.265625 
Q 6.59375 17.96875 6.59375 36.375 
Q 6.59375 54.828125 13.0625 64.515625 
Q 19.53125 74.21875 31.78125 74.21875 
z
" id="DejaVuSans-30"/>
      </defs>
      <g transform="translate(204.774261 313.476875)scale(0.2 -0.2)">
       <use xlink:href="#DejaVuSans-30"/>
      </g>
     </g>
    </g>
    <g id="xtick_4">
     <g id="line2d_7">
      <path clip-path="url(#p77986b205d)" d="M 314.000706 291.28 
L 314.000706 5.52 
" style="fill:none;stroke:#b0b0b0;stroke-linecap:square;stroke-width:0.8;"/>
     </g>
     <g id="line2d_8">
      <g>
       <use style="stroke:#000000;stroke-width:0.8;" x="314.000706" xlink:href="#mbe48d791a4" y="291.28"/>
      </g>
     </g>
     <g id="text_3">
      <!-- 4 -->
      <g transform="translate(307.638206 313.476875)scale(0.2 -0.2)">
       <use xlink:href="#DejaVuSans-34"/>
      </g>
     </g>
    </g>
    <g id="xtick_5">
     <g id="line2d_9">
      <path clip-path="url(#p77986b205d)" d="M 416.864651 291.28 
L 416.864651 5.52 
" style="fill:none;stroke:#b0b0b0;stroke-linecap:square;stroke-width:0.8;"/>
     </g>
     <g id="line2d_10">
      <g>
       <use style="stroke:#000000;stroke-width:0.8;" x="416.864651" xlink:href="#mbe48d791a4" y="291.28"/>
      </g>
     </g>
     <g id="text_4">
      <!-- 8 -->
      <defs>
       <path d="M 31.78125 34.625 
Q 24.75 34.625 20.71875 30.859375 
Q 16.703125 27.09375 16.703125 20.515625 
Q 16.703125 13.921875 20.71875 10.15625 
Q 24.75 6.390625 31.78125 6.390625 
Q 38.8125 6.390625 42.859375 10.171875 
Q 46.921875 13.96875 46.921875 20.515625 
Q 46.921875 27.09375 42.890625 30.859375 
Q 38.875 34.625 31.78125 34.625 
z
M 21.921875 38.8125 
Q 15.578125 40.375 12.03125 44.71875 
Q 8.5 49.078125 8.5 55.328125 
Q 8.5 64.0625 14.71875 69.140625 
Q 20.953125 74.21875 31.78125 74.21875 
Q 42.671875 74.21875 48.875 69.140625 
Q 55.078125 64.0625 55.078125 55.328125 
Q 55.078125 49.078125 51.53125 44.71875 
Q 48 40.375 41.703125 38.8125 
Q 48.828125 37.15625 52.796875 32.3125 
Q 56.78125 27.484375 56.78125 20.515625 
Q 56.78125 9.90625 50.3125 4.234375 
Q 43.84375 -1.421875 31.78125 -1.421875 
Q 19.734375 -1.421875 13.25 4.234375 
Q 6.78125 9.90625 6.78125 20.515625 
Q 6.78125 27.484375 10.78125 32.3125 
Q 14.796875 37.15625 21.921875 38.8125 
z
M 18.3125 54.390625 
Q 18.3125 48.734375 21.84375 45.5625 
Q 25.390625 42.390625 31.78125 42.390625 
Q 38.140625 42.390625 41.71875 45.5625 
Q 45.3125 48.734375 45.3125 54.390625 
Q 45.3125 60.0625 41.71875 63.234375 
Q 38.140625 66.40625 31.78125 66.40625 
Q 25.390625 66.40625 21.84375 63.234375 
Q 18.3125 60.0625 18.3125 54.390625 
z
" id="DejaVuSans-38"/>
      </defs>
      <g transform="translate(410.502151 313.476875)scale(0.2 -0.2)">
       <use xlink:href="#DejaVuSans-38"/>
      </g>
     </g>
    </g>
    <g id="text_5">
     <!-- log10 of Df -->
     <defs>
      <path d="M 9.421875 75.984375 
L 18.40625 75.984375 
L 18.40625 0 
L 9.421875 0 
z
" id="DejaVuSans-6c"/>
      <path d="M 30.609375 48.390625 
Q 23.390625 48.390625 19.1875 42.75 
Q 14.984375 37.109375 14.984375 27.296875 
Q 14.984375 17.484375 19.15625 11.84375 
Q 23.34375 6.203125 30.609375 6.203125 
Q 37.796875 6.203125 41.984375 11.859375 
Q 46.1875 17.53125 46.1875 27.296875 
Q 46.1875 37.015625 41.984375 42.703125 
Q 37.796875 48.390625 30.609375 48.390625 
z
M 30.609375 56 
Q 42.328125 56 49.015625 48.375 
Q 55.71875 40.765625 55.71875 27.296875 
Q 55.71875 13.875 49.015625 6.21875 
Q 42.328125 -1.421875 30.609375 -1.421875 
Q 18.84375 -1.421875 12.171875 6.21875 
Q 5.515625 13.875 5.515625 27.296875 
Q 5.515625 40.765625 12.171875 48.375 
Q 18.84375 56 30.609375 56 
z
" id="DejaVuSans-6f"/>
      <path d="M 45.40625 27.984375 
Q 45.40625 37.75 41.375 43.109375 
Q 37.359375 48.484375 30.078125 48.484375 
Q 22.859375 48.484375 18.828125 43.109375 
Q 14.796875 37.75 14.796875 27.984375 
Q 14.796875 18.265625 18.828125 12.890625 
Q 22.859375 7.515625 30.078125 7.515625 
Q 37.359375 7.515625 41.375 12.890625 
Q 45.40625 18.265625 45.40625 27.984375 
z
M 54.390625 6.78125 
Q 54.390625 -7.171875 48.1875 -13.984375 
Q 42 -20.796875 29.203125 -20.796875 
Q 24.46875 -20.796875 20.265625 -20.09375 
Q 16.0625 -19.390625 12.109375 -17.921875 
L 12.109375 -9.1875 
Q 16.0625 -11.328125 19.921875 -12.34375 
Q 23.78125 -13.375 27.78125 -13.375 
Q 36.625 -13.375 41.015625 -8.765625 
Q 45.40625 -4.15625 45.40625 5.171875 
L 45.40625 9.625 
Q 42.625 4.78125 38.28125 2.390625 
Q 33.9375 0 27.875 0 
Q 17.828125 0 11.671875 7.65625 
Q 5.515625 15.328125 5.515625 27.984375 
Q 5.515625 40.671875 11.671875 48.328125 
Q 17.828125 56 27.875 56 
Q 33.9375 56 38.28125 53.609375 
Q 42.625 51.21875 45.40625 46.390625 
L 45.40625 54.6875 
L 54.390625 54.6875 
z
" id="DejaVuSans-67"/>
      <path d="M 12.40625 8.296875 
L 28.515625 8.296875 
L 28.515625 63.921875 
L 10.984375 60.40625 
L 10.984375 69.390625 
L 28.421875 72.90625 
L 38.28125 72.90625 
L 38.28125 8.296875 
L 54.390625 8.296875 
L 54.390625 0 
L 12.40625 0 
z
" id="DejaVuSans-31"/>
      <path id="DejaVuSans-20"/>
      <path d="M 37.109375 75.984375 
L 37.109375 68.5 
L 28.515625 68.5 
Q 23.6875 68.5 21.796875 66.546875 
Q 19.921875 64.59375 19.921875 59.515625 
L 19.921875 54.6875 
L 34.71875 54.6875 
L 34.71875 47.703125 
L 19.921875 47.703125 
L 19.921875 0 
L 10.890625 0 
L 10.890625 47.703125 
L 2.296875 47.703125 
L 2.296875 54.6875 
L 10.890625 54.6875 
L 10.890625 58.5 
Q 10.890625 67.625 15.140625 71.796875 
Q 19.390625 75.984375 28.609375 75.984375 
z
" id="DejaVuSans-66"/>
      <path d="M 19.671875 64.796875 
L 19.671875 8.109375 
L 31.59375 8.109375 
Q 46.6875 8.109375 53.6875 14.9375 
Q 60.6875 21.78125 60.6875 36.53125 
Q 60.6875 51.171875 53.6875 57.984375 
Q 46.6875 64.796875 31.59375 64.796875 
z
M 9.8125 72.90625 
L 30.078125 72.90625 
Q 51.265625 72.90625 61.171875 64.09375 
Q 71.09375 55.28125 71.09375 36.53125 
Q 71.09375 17.671875 61.125 8.828125 
Q 51.171875 0 30.078125 0 
L 9.8125 0 
z
" id="DejaVuSans-44"/>
     </defs>
     <g transform="translate(172.910063 336.833125)scale(0.2 -0.2)">
      <use xlink:href="#DejaVuSans-6c"/>
      <use x="27.783203" xlink:href="#DejaVuSans-6f"/>
      <use x="88.964844" xlink:href="#DejaVuSans-67"/>
      <use x="152.441406" xlink:href="#DejaVuSans-31"/>
      <use x="216.064453" xlink:href="#DejaVuSans-30"/>
      <use x="279.6875" xlink:href="#DejaVuSans-20"/>
      <use x="311.474609" xlink:href="#DejaVuSans-6f"/>
      <use x="372.65625" xlink:href="#DejaVuSans-66"/>
      <use x="407.861328" xlink:href="#DejaVuSans-20"/>
      <use x="439.648438" xlink:href="#DejaVuSans-44"/>
      <use x="516.650391" xlink:href="#DejaVuSans-66"/>
     </g>
    </g>
   </g>
   <g id="matplotlib.axis_2">
    <g id="ytick_1">
     <g id="line2d_11">
      <path clip-path="url(#p77986b205d)" d="M 5.52 291.28 
L 450.672 291.28 
" style="fill:none;stroke:#b0b0b0;stroke-linecap:square;stroke-width:0.8;"/>
     </g>
     <g id="line2d_12">
      <defs>
       <path d="M 0 0 
L -3.5 0 
" id="mf4baf304bf" style="stroke:#000000;stroke-width:0.8;"/>
      </defs>
      <g>
       <use style="stroke:#000000;stroke-width:0.8;" x="5.52" xlink:href="#mf4baf304bf" y="291.28"/>
      </g>
     </g>
    </g>
    <g id="ytick_2">
     <g id="line2d_13">
      <path clip-path="url(#p77986b205d)" d="M 5.52 234.693861 
L 450.672 234.693861 
" style="fill:none;stroke:#b0b0b0;stroke-linecap:square;stroke-width:0.8;"/>
     </g>
     <g id="line2d_14">
      <g>
       <use style="stroke:#000000;stroke-width:0.8;" x="5.52" xlink:href="#mf4baf304bf" y="234.693861"/>
      </g>
     </g>
    </g>
    <g id="ytick_3">
     <g id="line2d_15">
      <path clip-path="url(#p77986b205d)" d="M 5.52 178.107723 
L 450.672 178.107723 
" style="fill:none;stroke:#b0b0b0;stroke-linecap:square;stroke-width:0.8;"/>
     </g>
     <g id="line2d_16">
      <g>
       <use style="stroke:#000000;stroke-width:0.8;" x="5.52" xlink:href="#mf4baf304bf" y="178.107723"/>
      </g>
     </g>
    </g>
    <g id="ytick_4">
     <g id="line2d_17">
      <path clip-path="url(#p77986b205d)" d="M 5.52 121.521584 
L 450.672 121.521584 
" style="fill:none;stroke:#b0b0b0;stroke-linecap:square;stroke-width:0.8;"/>
     </g>
     <g id="line2d_18">
      <g>
       <use style="stroke:#000000;stroke-width:0.8;" x="5.52" xlink:href="#mf4baf304bf" y="121.521584"/>
      </g>
     </g>
    </g>
    <g id="ytick_5">
     <g id="line2d_19">
      <path clip-path="url(#p77986b205d)" d="M 5.52 64.935446 
L 450.672 64.935446 
" style="fill:none;stroke:#b0b0b0;stroke-linecap:square;stroke-width:0.8;"/>
     </g>
     <g id="line2d_20">
      <g>
       <use style="stroke:#000000;stroke-width:0.8;" x="5.52" xlink:href="#mf4baf304bf" y="64.935446"/>
      </g>
     </g>
    </g>
    <g id="ytick_6">
     <g id="line2d_21">
      <path clip-path="url(#p77986b205d)" d="M 5.52 8.349307 
L 450.672 8.349307 
" style="fill:none;stroke:#b0b0b0;stroke-linecap:square;stroke-width:0.8;"/>
     </g>
     <g id="line2d_22">
      <g>
       <use style="stroke:#000000;stroke-width:0.8;" x="5.52" xlink:href="#mf4baf304bf" y="8.349307"/>
      </g>
     </g>
    </g>
   </g>
   <g id="line2d_23">
    <path clip-path="url(#p77986b205d)" d="M 164.75632 291.28 
L 164.797018 283.735182 
L 164.933021 283.735182 
L 164.977465 268.645545 
L 165.196746 268.645545 
L 165.265104 261.100726 
L 165.530868 261.100726 
L 165.530868 257.328317 
L 166.128104 257.328317 
L 166.128104 253.555908 
L 166.262395 253.555908 
L 166.262395 249.783498 
L 166.507582 249.783498 
L 166.507582 246.011089 
L 167.793246 246.011089 
L 167.793246 242.23868 
L 168.655849 242.23868 
L 168.655849 238.466271 
L 175.948701 238.466271 
L 175.948701 234.693861 
L 232.993832 234.693861 
L 233.075007 227.149043 
L 233.233806 227.149043 
L 233.233806 223.376634 
L 233.654677 223.376634 
L 233.654677 219.604224 
L 234.096397 219.604224 
L 234.096397 215.831815 
L 234.31201 215.831815 
L 234.31201 212.059406 
L 234.570709 212.059406 
L 234.570709 208.286997 
L 236.633333 208.286997 
L 236.699966 196.969769 
L 237.996264 196.969769 
L 237.996264 193.19736 
L 241.873816 193.19736 
L 241.873816 189.42495 
L 246.044214 189.42495 
L 246.044214 185.652541 
L 246.664449 185.652541 
L 246.664449 181.880132 
L 247.675385 181.880132 
L 247.775679 174.335314 
L 247.909964 174.335314 
L 247.909964 170.562904 
L 248.265737 170.562904 
L 248.287534 163.018086 
L 249.179375 163.018086 
L 249.179375 159.245677 
L 249.871366 159.245677 
L 249.871366 155.473267 
L 250.138351 155.473267 
L 250.138351 151.700858 
L 250.571316 151.700858 
L 250.571316 147.928449 
L 251.183536 147.928449 
L 251.183536 144.15604 
L 252.016918 144.15604 
L 252.016918 140.38363 
L 252.15054 140.38363 
L 252.15054 136.611221 
L 253.396803 136.611221 
L 253.396803 132.838812 
L 254.183181 132.838812 
L 254.183181 129.066403 
L 255.549411 129.066403 
L 255.549411 125.293993 
L 255.898219 125.293993 
L 255.898219 121.521584 
L 256.925887 121.521584 
L 256.925887 117.749175 
L 257.204501 117.749175 
L 257.204501 113.976766 
L 257.474642 113.976766 
L 257.511565 106.431947 
L 258.441597 106.431947 
L 258.441597 102.659538 
L 258.859741 102.659538 
L 258.929535 95.114719 
L 260.0049 95.114719 
L 260.0049 91.34231 
L 260.474487 91.34231 
L 260.474487 87.569901 
L 261.652801 87.569901 
L 261.652801 83.797492 
L 263.007677 83.797492 
L 263.007677 80.025083 
L 263.5171 80.025083 
L 263.585936 72.480264 
L 264.166446 72.480264 
L 264.166446 68.707855 
L 264.64314 68.707855 
L 264.64314 64.935446 
L 277.393808 64.935446 
L 277.393808 61.163036 
L 279.090114 61.163036 
L 279.090114 57.390627 
L 279.745733 57.390627 
L 279.745733 53.618218 
L 279.96421 53.618218 
L 279.96421 49.845809 
L 280.571645 49.845809 
L 280.571645 46.073399 
L 281.061652 46.073399 
L 281.115952 38.528581 
L 281.196463 38.528581 
L 281.21956 30.983762 
L 281.996317 30.983762 
L 281.996317 27.211353 
L 282.389248 27.211353 
L 282.389248 23.438944 
L 285.428289 23.438944 
L 285.428289 19.666535 
L 285.789911 19.666535 
L 285.789911 15.894125 
L 288.59417 15.894125 
L 288.59417 12.121716 
L 290.725685 12.121716 
L 290.725685 8.349307 
L 290.725685 8.349307 
L 450.672 8.349307 
L 450.672 8.349307 
" style="fill:none;stroke:#ff0000;stroke-linecap:square;stroke-width:3;"/>
   </g>
   <g id="line2d_24">
    <path clip-path="url(#p77986b205d)" d="M 195.625845 291.28 
L 195.669613 234.693861 
L 239.226791 234.693861 
L 239.302814 227.149043 
L 240.927204 227.149043 
L 240.970321 215.831815 
L 241.400334 215.831815 
L 241.400334 212.059406 
L 241.708649 212.059406 
L 241.708649 208.286997 
L 241.923754 208.286997 
L 241.923754 204.514587 
L 242.076061 204.514587 
L 242.117727 196.969769 
L 242.472052 196.969769 
L 242.472052 193.19736 
L 244.497114 193.19736 
L 244.497114 189.42495 
L 251.066087 189.42495 
L 251.066087 185.652541 
L 251.485432 185.652541 
L 251.485432 181.880132 
L 252.197809 181.880132 
L 252.197809 178.107723 
L 252.754349 178.107723 
L 252.754349 174.335314 
L 253.617136 174.335314 
L 253.633516 166.790495 
L 254.42646 166.790495 
L 254.42646 163.018086 
L 254.621803 163.018086 
L 254.621803 159.245677 
L 255.888881 159.245677 
L 255.981784 151.700858 
L 256.016363 151.700858 
L 256.016363 147.928449 
L 256.276472 147.928449 
L 256.276472 144.15604 
L 256.746888 144.15604 
L 256.746888 140.38363 
L 256.998325 140.38363 
L 256.998325 136.611221 
L 257.274148 136.611221 
L 257.274148 132.838812 
L 257.692023 132.838812 
L 257.747938 125.293993 
L 258.216834 125.293993 
L 258.216834 121.521584 
L 258.534947 121.521584 
L 258.538558 113.976766 
L 258.923733 113.976766 
L 258.964516 106.431947 
L 259.119021 106.431947 
L 259.119021 102.659538 
L 260.181562 102.659538 
L 260.276028 95.114719 
L 260.623468 95.114719 
L 260.623468 91.34231 
L 261.755835 91.34231 
L 261.755835 87.569901 
L 263.608534 87.569901 
L 263.608534 83.797492 
L 263.761907 83.797492 
L 263.761907 80.025083 
L 264.708982 80.025083 
L 264.708982 76.252673 
L 267.637463 76.252673 
L 267.688273 68.707855 
L 271.257489 68.707855 
L 271.257489 64.935446 
L 281.491232 64.935446 
L 281.491232 61.163036 
L 282.273921 61.163036 
L 282.273921 57.390627 
L 282.781424 57.390627 
L 282.781424 53.618218 
L 282.98015 53.618218 
L 282.98015 49.845809 
L 283.341104 49.845809 
L 283.341104 46.073399 
L 283.470654 46.073399 
L 283.470654 42.30099 
L 283.870138 42.30099 
L 283.870138 38.528581 
L 284.365383 38.528581 
L 284.365383 34.756172 
L 284.778539 34.756172 
L 284.778539 30.983762 
L 284.95342 30.983762 
L 284.95342 27.211353 
L 285.30183 27.211353 
L 285.30183 23.438944 
L 287.278819 23.438944 
L 287.278819 19.666535 
L 287.909493 19.666535 
L 287.909493 15.894125 
L 290.577958 15.894125 
L 290.577958 12.121716 
L 297.02878 12.121716 
L 297.02878 8.349307 
L 297.02878 8.349307 
L 450.672 8.349307 
L 450.672 8.349307 
" style="fill:none;stroke:#00bfbf;stroke-linecap:square;stroke-width:1.5;"/>
   </g>
   <g id="line2d_25">
    <path clip-path="url(#p77986b205d)" d="M 195.612896 291.28 
L 195.647345 234.693861 
L 239.225938 234.693861 
L 239.301957 227.149043 
L 240.925118 227.149043 
L 240.969432 215.831815 
L 241.399822 215.831815 
L 241.399822 212.059406 
L 241.707901 212.059406 
L 241.707901 208.286997 
L 241.923033 208.286997 
L 241.923033 204.514587 
L 242.074098 204.514587 
L 242.116641 196.969769 
L 242.471587 196.969769 
L 242.471587 193.19736 
L 244.496081 193.19736 
L 244.496081 189.42495 
L 251.063286 189.42495 
L 251.063286 185.652541 
L 251.485373 185.652541 
L 251.485373 181.880132 
L 252.197809 181.880132 
L 252.197809 178.107723 
L 252.75126 178.107723 
L 252.75126 174.335314 
L 253.585626 174.335314 
L 253.632425 166.790495 
L 254.426248 166.790495 
L 254.426248 163.018086 
L 254.621154 163.018086 
L 254.621154 159.245677 
L 255.886261 159.245677 
L 255.981761 151.700858 
L 256.014831 151.700858 
L 256.014831 147.928449 
L 256.257335 147.928449 
L 256.257335 144.15604 
L 256.745231 144.15604 
L 256.745231 140.38363 
L 256.990151 140.38363 
L 256.990151 136.611221 
L 257.262709 136.611221 
L 257.262709 132.838812 
L 257.679089 132.838812 
L 257.740253 125.293993 
L 258.213638 125.293993 
L 258.213638 121.521584 
L 258.529906 121.521584 
L 258.534423 113.976766 
L 258.923733 113.976766 
L 258.964516 106.431947 
L 259.096972 106.431947 
L 259.096972 102.659538 
L 260.157718 102.659538 
L 260.157718 98.887129 
L 260.272382 98.887129 
L 260.272382 95.114719 
L 260.612878 95.114719 
L 260.612878 91.34231 
L 261.755835 91.34231 
L 261.755835 87.569901 
L 263.591677 87.569901 
L 263.591677 83.797492 
L 263.761326 83.797492 
L 263.761326 80.025083 
L 264.697408 80.025083 
L 264.697408 76.252673 
L 267.637009 76.252673 
L 267.686855 68.707855 
L 271.256152 68.707855 
L 271.256152 64.935446 
L 281.49082 64.935446 
L 281.49082 61.163036 
L 282.273358 61.163036 
L 282.273358 57.390627 
L 282.781397 57.390627 
L 282.781397 53.618218 
L 282.979611 53.618218 
L 282.979611 49.845809 
L 283.340978 49.845809 
L 283.340978 46.073399 
L 283.470497 46.073399 
L 283.470497 42.30099 
L 283.869678 42.30099 
L 283.869678 38.528581 
L 284.365072 38.528581 
L 284.365072 34.756172 
L 284.778517 34.756172 
L 284.778517 30.983762 
L 284.952719 30.983762 
L 284.952719 27.211353 
L 285.301503 27.211353 
L 285.301503 23.438944 
L 287.278224 23.438944 
L 287.278224 19.666535 
L 287.908779 19.666535 
L 287.908779 15.894125 
L 290.577591 15.894125 
L 290.577591 12.121716 
L 297.028411 12.121716 
L 297.028411 8.349307 
L 297.028411 8.349307 
L 450.672 8.349307 
L 450.672 8.349307 
" style="fill:none;stroke:#bf00bf;stroke-linecap:square;stroke-width:1.5;"/>
   </g>
   <g id="line2d_26">
    <path clip-path="url(#p77986b205d)" d="M 195.404716 291.28 
L 195.508242 242.23868 
L 195.519874 242.23868 
L 195.525809 234.693861 
L 239.216127 234.693861 
L 239.294587 227.149043 
L 240.899938 227.149043 
L 240.961639 215.831815 
L 241.389667 215.831815 
L 241.389667 212.059406 
L 241.703371 212.059406 
L 241.703371 208.286997 
L 241.917232 208.286997 
L 241.917232 204.514587 
L 242.066465 204.514587 
L 242.108801 196.969769 
L 242.464999 196.969769 
L 242.464999 193.19736 
L 244.48722 193.19736 
L 244.48722 189.42495 
L 251.031513 189.42495 
L 251.031513 185.652541 
L 251.481175 185.652541 
L 251.481175 181.880132 
L 252.130208 181.880132 
L 252.130208 178.107723 
L 252.726629 178.107723 
L 252.726629 174.335314 
L 253.558323 174.335314 
L 253.6216 166.790495 
L 254.412454 166.790495 
L 254.412454 163.018086 
L 254.610045 163.018086 
L 254.610045 159.245677 
L 255.871604 159.245677 
L 255.973854 151.700858 
L 256.006509 151.700858 
L 256.006509 147.928449 
L 256.216873 147.928449 
L 256.216873 144.15604 
L 256.730958 144.15604 
L 256.730958 140.38363 
L 256.969042 140.38363 
L 256.969042 136.611221 
L 257.248751 136.611221 
L 257.248751 132.838812 
L 257.648703 132.838812 
L 257.705713 125.293993 
L 258.19458 125.293993 
L 258.19458 121.521584 
L 258.474785 121.521584 
L 258.53168 113.976766 
L 258.917816 113.976766 
L 259.008238 102.659538 
L 260.111326 102.659538 
L 260.111326 98.887129 
L 260.238596 98.887129 
L 260.238596 95.114719 
L 260.53761 95.114719 
L 260.53761 91.34231 
L 261.728675 91.34231 
L 261.728675 87.569901 
L 263.567279 87.569901 
L 263.567279 83.797492 
L 263.749074 83.797492 
L 263.749074 80.025083 
L 264.67834 80.025083 
L 264.67834 76.252673 
L 267.630994 76.252673 
L 267.678538 68.707855 
L 271.22243 68.707855 
L 271.22243 64.935446 
L 281.486278 64.935446 
L 281.486278 61.163036 
L 282.269695 61.163036 
L 282.269695 57.390627 
L 282.77759 57.390627 
L 282.77759 53.618218 
L 282.974298 53.618218 
L 282.974298 49.845809 
L 283.336292 49.845809 
L 283.336292 46.073399 
L 283.467556 46.073399 
L 283.467556 42.30099 
L 283.865639 42.30099 
L 283.865639 38.528581 
L 284.360731 38.528581 
L 284.360731 34.756172 
L 284.774549 34.756172 
L 284.774549 30.983762 
L 284.948293 30.983762 
L 284.948293 27.211353 
L 285.297838 27.211353 
L 285.297838 23.438944 
L 287.275041 23.438944 
L 287.275041 19.666535 
L 287.904056 19.666535 
L 287.904056 15.894125 
L 290.572696 15.894125 
L 290.572696 12.121716 
L 297.026814 12.121716 
L 297.026814 8.349307 
L 297.026814 8.349307 
L 450.672 8.349307 
L 450.672 8.349307 
" style="fill:none;stroke:#000000;stroke-linecap:square;stroke-width:1.5;"/>
   </g>
   <g id="line2d_27">
    <path clip-path="url(#p77986b205d)" d="M 193.65798 291.28 
L 193.65798 287.507591 
L 194.066178 287.507591 
L 194.157028 279.962772 
L 194.191774 279.962772 
L 194.264856 268.645545 
L 194.336914 268.645545 
L 194.399017 246.011089 
L 194.452202 246.011089 
L 194.452202 242.23868 
L 194.700633 242.23868 
L 194.772765 234.693861 
L 239.030513 234.693861 
L 239.137061 227.149043 
L 240.512754 227.149043 
L 240.512754 223.376634 
L 240.788206 223.376634 
L 240.820966 215.831815 
L 241.159366 215.831815 
L 241.159366 212.059406 
L 241.567589 212.059406 
L 241.567589 208.286997 
L 241.756481 208.286997 
L 241.756481 204.514587 
L 241.888533 204.514587 
L 241.912517 196.969769 
L 242.321568 196.969769 
L 242.321568 193.19736 
L 244.330595 193.19736 
L 244.330595 189.42495 
L 250.426987 189.42495 
L 250.426987 185.652541 
L 251.378074 185.652541 
L 251.378074 181.880132 
L 252.044592 181.880132 
L 252.044592 178.107723 
L 252.230281 178.107723 
L 252.230281 174.335314 
L 253.361178 174.335314 
L 253.428494 166.790495 
L 254.136446 166.790495 
L 254.136446 163.018086 
L 254.363434 163.018086 
L 254.363434 159.245677 
L 255.437397 159.245677 
L 255.437397 155.473267 
L 255.747036 155.473267 
L 255.811183 147.928449 
L 255.987075 147.928449 
L 255.987075 144.15604 
L 256.390903 144.15604 
L 256.390903 140.38363 
L 256.94174 140.38363 
L 256.94174 136.611221 
L 257.223075 136.611221 
L 257.223075 132.838812 
L 257.508148 132.838812 
L 257.538389 125.293993 
L 257.642393 125.293993 
L 257.642393 121.521584 
L 258.455748 121.521584 
L 258.467977 113.976766 
L 258.593892 113.976766 
L 258.593892 110.204356 
L 258.882348 110.204356 
L 258.950061 102.659538 
L 259.233588 102.659538 
L 259.233588 98.887129 
L 260.056908 98.887129 
L 260.056908 95.114719 
L 260.487758 95.114719 
L 260.487758 91.34231 
L 261.6769 91.34231 
L 261.6769 87.569901 
L 263.52952 87.569901 
L 263.53114 80.025083 
L 264.657234 80.025083 
L 264.657234 76.252673 
L 267.533666 76.252673 
L 267.540973 68.707855 
L 270.550342 68.707855 
L 270.550342 64.935446 
L 281.390984 64.935446 
L 281.390984 61.163036 
L 282.194716 61.163036 
L 282.194716 57.390627 
L 282.702054 57.390627 
L 282.702054 53.618218 
L 282.863606 53.618218 
L 282.863606 49.845809 
L 283.245442 49.845809 
L 283.245442 46.073399 
L 283.406962 46.073399 
L 283.406962 42.30099 
L 283.790561 42.30099 
L 283.790561 38.528581 
L 284.256195 38.528581 
L 284.256195 34.756172 
L 284.681649 34.756172 
L 284.681649 30.983762 
L 284.858592 30.983762 
L 284.858592 27.211353 
L 285.215713 27.211353 
L 285.215713 23.438944 
L 287.196067 23.438944 
L 287.196067 19.666535 
L 287.801558 19.666535 
L 287.801558 15.894125 
L 290.473964 15.894125 
L 290.473964 12.121716 
L 296.975784 12.121716 
L 296.975784 8.349307 
L 296.975784 8.349307 
L 450.672 8.349307 
L 450.672 8.349307 
" style="fill:none;stroke:#00bfbf;stroke-linecap:square;stroke-width:1.5;"/>
   </g>
   <g id="line2d_28">
    <path clip-path="url(#p77986b205d)" d="M 168.880665 291.28 
L 168.880665 287.507591 
L 169.202179 287.507591 
L 169.202179 283.735182 
L 169.956463 283.735182 
L 169.956463 279.962772 
L 171.226565 279.962772 
L 171.226565 276.190363 
L 171.482562 276.190363 
L 171.482562 272.417954 
L 173.643691 272.417954 
L 173.643691 268.645545 
L 174.338749 268.645545 
L 174.338749 264.873135 
L 174.782941 264.873135 
L 174.782941 261.100726 
L 174.917186 261.100726 
L 174.917186 257.328317 
L 175.143772 257.328317 
L 175.143772 253.555908 
L 175.502645 253.555908 
L 175.502645 249.783498 
L 179.635349 249.783498 
L 179.717371 242.23868 
L 181.96474 242.23868 
L 181.96474 238.466271 
L 184.105802 238.466271 
L 184.105802 234.693861 
L 233.517083 234.693861 
L 233.517083 230.921452 
L 233.77225 230.921452 
L 233.77225 227.149043 
L 234.250468 227.149043 
L 234.250468 223.376634 
L 234.466203 223.376634 
L 234.466203 219.604224 
L 235.031836 219.604224 
L 235.12025 208.286997 
L 236.832119 208.286997 
L 236.832119 204.514587 
L 237.099618 204.514587 
L 237.099618 200.742178 
L 237.561421 200.742178 
L 237.561421 196.969769 
L 239.27188 196.969769 
L 239.27188 193.19736 
L 242.342206 193.19736 
L 242.342206 189.42495 
L 247.079338 189.42495 
L 247.079338 185.652541 
L 248.258805 185.652541 
L 248.258805 181.880132 
L 248.650585 181.880132 
L 248.650585 178.107723 
L 249.396354 178.107723 
L 249.415763 170.562904 
L 249.55624 170.562904 
L 249.55624 166.790495 
L 250.015943 166.790495 
L 250.015943 163.018086 
L 250.830727 163.018086 
L 250.830727 159.245677 
L 251.097816 159.245677 
L 251.097816 155.473267 
L 251.305706 155.473267 
L 251.402129 147.928449 
L 251.566261 147.928449 
L 251.566261 144.15604 
L 252.016918 144.15604 
L 252.016918 140.38363 
L 252.880757 140.38363 
L 252.880757 136.611221 
L 253.396803 136.611221 
L 253.396803 132.838812 
L 255.323578 132.838812 
L 255.323578 129.066403 
L 255.898349 129.066403 
L 255.898349 125.293993 
L 256.725197 125.293993 
L 256.725197 121.521584 
L 256.925887 121.521584 
L 256.925887 117.749175 
L 257.204501 117.749175 
L 257.204501 113.976766 
L 257.474642 113.976766 
L 257.511565 106.431947 
L 258.441597 106.431947 
L 258.441597 102.659538 
L 258.859741 102.659538 
L 258.929535 95.114719 
L 260.005077 95.114719 
L 260.005077 91.34231 
L 260.474487 91.34231 
L 260.474487 87.569901 
L 261.652801 87.569901 
L 261.652801 83.797492 
L 263.5171 83.797492 
L 263.5171 80.025083 
L 264.488436 80.025083 
L 264.525057 72.480264 
L 264.64314 72.480264 
L 264.64314 68.707855 
L 264.985731 68.707855 
L 264.985731 64.935446 
L 277.623472 64.935446 
L 277.623472 61.163036 
L 279.858411 61.163036 
L 279.858411 57.390627 
L 280.108537 57.390627 
L 280.108537 53.618218 
L 280.394264 53.618218 
L 280.394264 49.845809 
L 280.730324 49.845809 
L 280.730324 46.073399 
L 281.327806 46.073399 
L 281.327806 42.30099 
L 281.483839 42.30099 
L 281.483839 38.528581 
L 281.664062 38.528581 
L 281.664062 34.756172 
L 282.263324 34.756172 
L 282.340655 27.211353 
L 282.586341 27.211353 
L 282.586341 23.438944 
L 285.736395 23.438944 
L 285.736395 19.666535 
L 285.900678 19.666535 
L 285.900678 15.894125 
L 288.771957 15.894125 
L 288.771957 12.121716 
L 291.505577 12.121716 
L 291.505577 8.349307 
L 291.505577 8.349307 
L 450.672 8.349307 
L 450.672 8.349307 
" style="fill:none;stroke:#bf00bf;stroke-linecap:square;stroke-width:1.5;"/>
   </g>
   <g id="patch_3">
    <path d="M 5.52 291.28 
L 5.52 5.52 
" style="fill:none;stroke:#000000;stroke-linecap:square;stroke-linejoin:miter;stroke-width:0.8;"/>
   </g>
   <g id="patch_4">
    <path d="M 450.672 291.28 
L 450.672 5.52 
" style="fill:none;stroke:#000000;stroke-linecap:square;stroke-linejoin:miter;stroke-width:0.8;"/>
   </g>
   <g id="patch_5">
    <path d="M 5.52 291.28 
L 450.672 291.28 
" style="fill:none;stroke:#000000;stroke-linecap:square;stroke-linejoin:miter;stroke-width:0.8;"/>
   </g>
   <g id="patch_6">
    <path d="M 5.52 5.52 
L 450.672 5.52 
" style="fill:none;stroke:#000000;stroke-linecap:square;stroke-linejoin:miter;stroke-width:0.8;"/>
   </g>
   <g id="text_6">
    <!-- {f15-f19}, 20-D -->
    <defs>
     <path d="M 51.125 -9.28125 
L 51.125 -16.3125 
L 48.09375 -16.3125 
Q 35.9375 -16.3125 31.8125 -12.6875 
Q 27.6875 -9.078125 27.6875 1.703125 
L 27.6875 13.375 
Q 27.6875 20.75 25.046875 23.578125 
Q 22.40625 26.421875 15.484375 26.421875 
L 12.5 26.421875 
L 12.5 33.40625 
L 15.484375 33.40625 
Q 22.46875 33.40625 25.078125 36.203125 
Q 27.6875 39.015625 27.6875 46.296875 
L 27.6875 58.015625 
Q 27.6875 68.796875 31.8125 72.390625 
Q 35.9375 75.984375 48.09375 75.984375 
L 51.125 75.984375 
L 51.125 69 
L 47.796875 69 
Q 40.921875 69 38.8125 66.84375 
Q 36.71875 64.703125 36.71875 57.8125 
L 36.71875 45.703125 
Q 36.71875 38.03125 34.5 34.5625 
Q 32.28125 31.109375 26.90625 29.890625 
Q 32.328125 28.5625 34.515625 25.09375 
Q 36.71875 21.625 36.71875 14.015625 
L 36.71875 1.90625 
Q 36.71875 -4.984375 38.8125 -7.125 
Q 40.921875 -9.28125 47.796875 -9.28125 
z
" id="DejaVuSans-7b"/>
     <path d="M 10.796875 72.90625 
L 49.515625 72.90625 
L 49.515625 64.59375 
L 19.828125 64.59375 
L 19.828125 46.734375 
Q 21.96875 47.46875 24.109375 47.828125 
Q 26.265625 48.1875 28.421875 48.1875 
Q 40.625 48.1875 47.75 41.5 
Q 54.890625 34.8125 54.890625 23.390625 
Q 54.890625 11.625 47.5625 5.09375 
Q 40.234375 -1.421875 26.90625 -1.421875 
Q 22.3125 -1.421875 17.546875 -0.640625 
Q 12.796875 0.140625 7.71875 1.703125 
L 7.71875 11.625 
Q 12.109375 9.234375 16.796875 8.0625 
Q 21.484375 6.890625 26.703125 6.890625 
Q 35.15625 6.890625 40.078125 11.328125 
Q 45.015625 15.765625 45.015625 23.390625 
Q 45.015625 31 40.078125 35.4375 
Q 35.15625 39.890625 26.703125 39.890625 
Q 22.75 39.890625 18.8125 39.015625 
Q 14.890625 38.140625 10.796875 36.28125 
z
" id="DejaVuSans-35"/>
     <path d="M 10.984375 1.515625 
L 10.984375 10.5 
Q 14.703125 8.734375 18.5 7.8125 
Q 22.3125 6.890625 25.984375 6.890625 
Q 35.75 6.890625 40.890625 13.453125 
Q 46.046875 20.015625 46.78125 33.40625 
Q 43.953125 29.203125 39.59375 26.953125 
Q 35.25 24.703125 29.984375 24.703125 
Q 19.046875 24.703125 12.671875 31.3125 
Q 6.296875 37.9375 6.296875 49.421875 
Q 6.296875 60.640625 12.9375 67.421875 
Q 19.578125 74.21875 30.609375 74.21875 
Q 43.265625 74.21875 49.921875 64.515625 
Q 56.59375 54.828125 56.59375 36.375 
Q 56.59375 19.140625 48.40625 8.859375 
Q 40.234375 -1.421875 26.421875 -1.421875 
Q 22.703125 -1.421875 18.890625 -0.6875 
Q 15.09375 0.046875 10.984375 1.515625 
z
M 30.609375 32.421875 
Q 37.25 32.421875 41.125 36.953125 
Q 45.015625 41.5 45.015625 49.421875 
Q 45.015625 57.28125 41.125 61.84375 
Q 37.25 66.40625 30.609375 66.40625 
Q 23.96875 66.40625 20.09375 61.84375 
Q 16.21875 57.28125 16.21875 49.421875 
Q 16.21875 41.5 20.09375 36.953125 
Q 23.96875 32.421875 30.609375 32.421875 
z
" id="DejaVuSans-39"/>
     <path d="M 12.5 -9.28125 
L 15.921875 -9.28125 
Q 22.75 -9.28125 24.828125 -7.171875 
Q 26.90625 -5.078125 26.90625 1.90625 
L 26.90625 14.015625 
Q 26.90625 21.625 29.09375 25.09375 
Q 31.296875 28.5625 36.71875 29.890625 
Q 31.296875 31.109375 29.09375 34.5625 
Q 26.90625 38.03125 26.90625 45.703125 
L 26.90625 57.8125 
Q 26.90625 64.75 24.828125 66.875 
Q 22.75 69 15.921875 69 
L 12.5 69 
L 12.5 75.984375 
L 15.578125 75.984375 
Q 27.734375 75.984375 31.8125 72.390625 
Q 35.890625 68.796875 35.890625 58.015625 
L 35.890625 46.296875 
Q 35.890625 39.015625 38.515625 36.203125 
Q 41.15625 33.40625 48.09375 33.40625 
L 51.125 33.40625 
L 51.125 26.421875 
L 48.09375 26.421875 
Q 41.15625 26.421875 38.515625 23.578125 
Q 35.890625 20.75 35.890625 13.375 
L 35.890625 1.703125 
Q 35.890625 -9.078125 31.8125 -12.6875 
Q 27.734375 -16.3125 15.578125 -16.3125 
L 12.5 -16.3125 
z
" id="DejaVuSans-7d"/>
     <path d="M 11.71875 12.40625 
L 22.015625 12.40625 
L 22.015625 4 
L 14.015625 -11.625 
L 7.71875 -11.625 
L 11.71875 4 
z
" id="DejaVuSans-2c"/>
     <path d="M 19.1875 8.296875 
L 53.609375 8.296875 
L 53.609375 0 
L 7.328125 0 
L 7.328125 8.296875 
Q 12.9375 14.109375 22.625 23.890625 
Q 32.328125 33.6875 34.8125 36.53125 
Q 39.546875 41.84375 41.421875 45.53125 
Q 43.3125 49.21875 43.3125 52.78125 
Q 43.3125 58.59375 39.234375 62.25 
Q 35.15625 65.921875 28.609375 65.921875 
Q 23.96875 65.921875 18.8125 64.3125 
Q 13.671875 62.703125 7.8125 59.421875 
L 7.8125 69.390625 
Q 13.765625 71.78125 18.9375 73 
Q 24.125 74.21875 28.421875 74.21875 
Q 39.75 74.21875 46.484375 68.546875 
Q 53.21875 62.890625 53.21875 53.421875 
Q 53.21875 48.921875 51.53125 44.890625 
Q 49.859375 40.875 45.40625 35.40625 
Q 44.1875 33.984375 37.640625 27.21875 
Q 31.109375 20.453125 19.1875 8.296875 
z
" id="DejaVuSans-32"/>
    </defs>
    <g transform="translate(283.34396 285.5648)scale(0.2 -0.2)">
     <use xlink:href="#DejaVuSans-7b"/>
     <use x="63.623047" xlink:href="#DejaVuSans-66"/>
     <use x="98.828125" xlink:href="#DejaVuSans-31"/>
     <use x="162.451172" xlink:href="#DejaVuSans-35"/>
     <use x="226.074219" xlink:href="#DejaVuSans-2d"/>
     <use x="262.158203" xlink:href="#DejaVuSans-66"/>
     <use x="297.363281" xlink:href="#DejaVuSans-31"/>
     <use x="360.986328" xlink:href="#DejaVuSans-39"/>
     <use x="424.609375" xlink:href="#DejaVuSans-7d"/>
     <use x="488.232422" xlink:href="#DejaVuSans-2c"/>
     <use x="520.019531" xlink:href="#DejaVuSans-20"/>
     <use x="551.806641" xlink:href="#DejaVuSans-32"/>
     <use x="615.429688" xlink:href="#DejaVuSans-30"/>
     <use x="679.052734" xlink:href="#DejaVuSans-2d"/>
     <use x="715.136719" xlink:href="#DejaVuSans-44"/>
    </g>
   </g>
   <g id="text_7">
    <!-- v2.2.1.10 -->
    <defs>
     <path d="M 2.984375 54.6875 
L 12.5 54.6875 
L 29.59375 8.796875 
L 46.6875 54.6875 
L 56.203125 54.6875 
L 35.6875 0 
L 23.484375 0 
z
" id="DejaVuSans-76"/>
     <path d="M 10.6875 12.40625 
L 21 12.40625 
L 21 0 
L 10.6875 0 
z
" id="DejaVuSans-2e"/>
    </defs>
    <g style="fill:#808080;" transform="translate(204.463188 286.342713)scale(0.1 -0.1)">
     <use xlink:href="#DejaVuSans-76"/>
     <use x="59.179688" xlink:href="#DejaVuSans-32"/>
     <use x="122.802734" xlink:href="#DejaVuSans-2e"/>
     <use x="154.589844" xlink:href="#DejaVuSans-32"/>
     <use x="218.212891" xlink:href="#DejaVuSans-2e"/>
     <use x="250" xlink:href="#DejaVuSans-31"/>
     <use x="313.623047" xlink:href="#DejaVuSans-2e"/>
     <use x="345.410156" xlink:href="#DejaVuSans-31"/>
     <use x="409.033203" xlink:href="#DejaVuSans-30"/>
    </g>
   </g>
  </g>
 </g>
 <defs>
  <clipPath id="p77986b205d">
   <rect height="285.76" width="445.152" x="5.52" y="5.52"/>
  </clipPath>
 </defs>
</svg>
