<?xml version="1.0" encoding="utf-8" standalone="no"?>
<!DOCTYPE svg PUBLIC "-//W3C//DTD SVG 1.1//EN"
  "http://www.w3.org/Graphics/SVG/1.1/DTD/svg11.dtd">
<!-- Created with matplotlib (http://matplotlib.org/) -->
<svg height="345.6pt" version="1.1" viewBox="0 0 460.8 345.6" width="460.8pt" xmlns="http://www.w3.org/2000/svg" xmlns:xlink="http://www.w3.org/1999/xlink">
 <defs>
  <style type="text/css">
*{stroke-linecap:butt;stroke-linejoin:round;}
  </style>
 </defs>
 <g id="figure_1">
  <g id="patch_1">
   <path d="M 0 345.6 
L 460.8 345.6 
L 460.8 0 
L 0 0 
z
" style="fill:#ffffff;"/>
  </g>
  <g id="axes_1">
   <g id="patch_2">
    <path d="M 5.52 291.28 
L 450.672 291.28 
L 450.672 5.52 
L 5.52 5.52 
z
" style="fill:#ffffff;"/>
   </g>
   <g id="matplotlib.axis_1">
    <g id="xtick_1">
     <g id="line2d_1">
      <path clip-path="url(#p15dbe27508)" d="M 5.409114 291.28 
L 5.409114 5.52 
" style="fill:none;stroke:#b0b0b0;stroke-linecap:square;stroke-width:0.8;"/>
     </g>
     <g id="line2d_2">
      <defs>
       <path d="M 0 0 
L 0 3.5 
" id="m24267101c5" style="stroke:#000000;stroke-width:0.8;"/>
      </defs>
      <g>
       <use style="stroke:#000000;stroke-width:0.8;" x="5.409114" xlink:href="#m24267101c5" y="291.28"/>
      </g>
     </g>
    </g>
    <g id="xtick_2">
     <g id="line2d_3">
      <path clip-path="url(#p15dbe27508)" d="M 108.048937 291.28 
L 108.048937 5.52 
" style="fill:none;stroke:#b0b0b0;stroke-linecap:square;stroke-width:0.8;"/>
     </g>
     <g id="line2d_4">
      <g>
       <use style="stroke:#000000;stroke-width:0.8;" x="108.048937" xlink:href="#m24267101c5" y="291.28"/>
      </g>
     </g>
     <g id="text_1">
      <!-- -4 -->
      <defs>
       <path d="M 4.890625 31.390625 
L 31.203125 31.390625 
L 31.203125 23.390625 
L 4.890625 23.390625 
z
" id="DejaVuSans-2d"/>
       <path d="M 37.796875 64.3125 
L 12.890625 25.390625 
L 37.796875 25.390625 
z
M 35.203125 72.90625 
L 47.609375 72.90625 
L 47.609375 25.390625 
L 58.015625 25.390625 
L 58.015625 17.1875 
L 47.609375 17.1875 
L 47.609375 0 
L 37.796875 0 
L 37.796875 17.1875 
L 4.890625 17.1875 
L 4.890625 26.703125 
z
" id="DejaVuSans-34"/>
      </defs>
      <g transform="translate(98.078625 313.476875)scale(0.2 -0.2)">
       <use xlink:href="#DejaVuSans-2d"/>
       <use x="36.083984" xlink:href="#DejaVuSans-34"/>
      </g>
     </g>
    </g>
    <g id="xtick_3">
     <g id="line2d_5">
      <path clip-path="url(#p15dbe27508)" d="M 210.688761 291.28 
L 210.688761 5.52 
" style="fill:none;stroke:#b0b0b0;stroke-linecap:square;stroke-width:0.8;"/>
     </g>
     <g id="line2d_6">
      <g>
       <use style="stroke:#000000;stroke-width:0.8;" x="210.688761" xlink:href="#m24267101c5" y="291.28"/>
      </g>
     </g>
     <g id="text_2">
      <!-- 0 -->
      <defs>
       <path d="M 31.78125 66.40625 
Q 24.171875 66.40625 20.328125 58.90625 
Q 16.5 51.421875 16.5 36.375 
Q 16.5 21.390625 20.328125 13.890625 
Q 24.171875 6.390625 31.78125 6.390625 
Q 39.453125 6.390625 43.28125 13.890625 
Q 47.125 21.390625 47.125 36.375 
Q 47.125 51.421875 43.28125 58.90625 
Q 39.453125 66.40625 31.78125 66.40625 
z
M 31.78125 74.21875 
Q 44.046875 74.21875 50.515625 64.515625 
Q 56.984375 54.828125 56.984375 36.375 
Q 56.984375 17.96875 50.515625 8.265625 
Q 44.046875 -1.421875 31.78125 -1.421875 
Q 19.53125 -1.421875 13.0625 8.265625 
Q 6.59375 17.96875 6.59375 36.375 
Q 6.59375 54.828125 13.0625 64.515625 
Q 19.53125 74.21875 31.78125 74.21875 
z
" id="DejaVuSans-30"/>
      </defs>
      <g transform="translate(204.326261 313.476875)scale(0.2 -0.2)">
       <use xlink:href="#DejaVuSans-30"/>
      </g>
     </g>
    </g>
    <g id="xtick_4">
     <g id="line2d_7">
      <path clip-path="url(#p15dbe27508)" d="M 313.328584 291.28 
L 313.328584 5.52 
" style="fill:none;stroke:#b0b0b0;stroke-linecap:square;stroke-width:0.8;"/>
     </g>
     <g id="line2d_8">
      <g>
       <use style="stroke:#000000;stroke-width:0.8;" x="313.328584" xlink:href="#m24267101c5" y="291.28"/>
      </g>
     </g>
     <g id="text_3">
      <!-- 4 -->
      <g transform="translate(306.966084 313.476875)scale(0.2 -0.2)">
       <use xlink:href="#DejaVuSans-34"/>
      </g>
     </g>
    </g>
    <g id="xtick_5">
     <g id="line2d_9">
      <path clip-path="url(#p15dbe27508)" d="M 415.968408 291.28 
L 415.968408 5.52 
" style="fill:none;stroke:#b0b0b0;stroke-linecap:square;stroke-width:0.8;"/>
     </g>
     <g id="line2d_10">
      <g>
       <use style="stroke:#000000;stroke-width:0.8;" x="415.968408" xlink:href="#m24267101c5" y="291.28"/>
      </g>
     </g>
     <g id="text_4">
      <!-- 8 -->
      <defs>
       <path d="M 31.78125 34.625 
Q 24.75 34.625 20.71875 30.859375 
Q 16.703125 27.09375 16.703125 20.515625 
Q 16.703125 13.921875 20.71875 10.15625 
Q 24.75 6.390625 31.78125 6.390625 
Q 38.8125 6.390625 42.859375 10.171875 
Q 46.921875 13.96875 46.921875 20.515625 
Q 46.921875 27.09375 42.890625 30.859375 
Q 38.875 34.625 31.78125 34.625 
z
M 21.921875 38.8125 
Q 15.578125 40.375 12.03125 44.71875 
Q 8.5 49.078125 8.5 55.328125 
Q 8.5 64.0625 14.71875 69.140625 
Q 20.953125 74.21875 31.78125 74.21875 
Q 42.671875 74.21875 48.875 69.140625 
Q 55.078125 64.0625 55.078125 55.328125 
Q 55.078125 49.078125 51.53125 44.71875 
Q 48 40.375 41.703125 38.8125 
Q 48.828125 37.15625 52.796875 32.3125 
Q 56.78125 27.484375 56.78125 20.515625 
Q 56.78125 9.90625 50.3125 4.234375 
Q 43.84375 -1.421875 31.78125 -1.421875 
Q 19.734375 -1.421875 13.25 4.234375 
Q 6.78125 9.90625 6.78125 20.515625 
Q 6.78125 27.484375 10.78125 32.3125 
Q 14.796875 37.15625 21.921875 38.8125 
z
M 18.3125 54.390625 
Q 18.3125 48.734375 21.84375 45.5625 
Q 25.390625 42.390625 31.78125 42.390625 
Q 38.140625 42.390625 41.71875 45.5625 
Q 45.3125 48.734375 45.3125 54.390625 
Q 45.3125 60.0625 41.71875 63.234375 
Q 38.140625 66.40625 31.78125 66.40625 
Q 25.390625 66.40625 21.84375 63.234375 
Q 18.3125 60.0625 18.3125 54.390625 
z
" id="DejaVuSans-38"/>
      </defs>
      <g transform="translate(409.605908 313.476875)scale(0.2 -0.2)">
       <use xlink:href="#DejaVuSans-38"/>
      </g>
     </g>
    </g>
    <g id="text_5">
     <!-- log10 of Df -->
     <defs>
      <path d="M 9.421875 75.984375 
L 18.40625 75.984375 
L 18.40625 0 
L 9.421875 0 
z
" id="DejaVuSans-6c"/>
      <path d="M 30.609375 48.390625 
Q 23.390625 48.390625 19.1875 42.75 
Q 14.984375 37.109375 14.984375 27.296875 
Q 14.984375 17.484375 19.15625 11.84375 
Q 23.34375 6.203125 30.609375 6.203125 
Q 37.796875 6.203125 41.984375 11.859375 
Q 46.1875 17.53125 46.1875 27.296875 
Q 46.1875 37.015625 41.984375 42.703125 
Q 37.796875 48.390625 30.609375 48.390625 
z
M 30.609375 56 
Q 42.328125 56 49.015625 48.375 
Q 55.71875 40.765625 55.71875 27.296875 
Q 55.71875 13.875 49.015625 6.21875 
Q 42.328125 -1.421875 30.609375 -1.421875 
Q 18.84375 -1.421875 12.171875 6.21875 
Q 5.515625 13.875 5.515625 27.296875 
Q 5.515625 40.765625 12.171875 48.375 
Q 18.84375 56 30.609375 56 
z
" id="DejaVuSans-6f"/>
      <path d="M 45.40625 27.984375 
Q 45.40625 37.75 41.375 43.109375 
Q 37.359375 48.484375 30.078125 48.484375 
Q 22.859375 48.484375 18.828125 43.109375 
Q 14.796875 37.75 14.796875 27.984375 
Q 14.796875 18.265625 18.828125 12.890625 
Q 22.859375 7.515625 30.078125 7.515625 
Q 37.359375 7.515625 41.375 12.890625 
Q 45.40625 18.265625 45.40625 27.984375 
z
M 54.390625 6.78125 
Q 54.390625 -7.171875 48.1875 -13.984375 
Q 42 -20.796875 29.203125 -20.796875 
Q 24.46875 -20.796875 20.265625 -20.09375 
Q 16.0625 -19.390625 12.109375 -17.921875 
L 12.109375 -9.1875 
Q 16.0625 -11.328125 19.921875 -12.34375 
Q 23.78125 -13.375 27.78125 -13.375 
Q 36.625 -13.375 41.015625 -8.765625 
Q 45.40625 -4.15625 45.40625 5.171875 
L 45.40625 9.625 
Q 42.625 4.78125 38.28125 2.390625 
Q 33.9375 0 27.875 0 
Q 17.828125 0 11.671875 7.65625 
Q 5.515625 15.328125 5.515625 27.984375 
Q 5.515625 40.671875 11.671875 48.328125 
Q 17.828125 56 27.875 56 
Q 33.9375 56 38.28125 53.609375 
Q 42.625 51.21875 45.40625 46.390625 
L 45.40625 54.6875 
L 54.390625 54.6875 
z
" id="DejaVuSans-67"/>
      <path d="M 12.40625 8.296875 
L 28.515625 8.296875 
L 28.515625 63.921875 
L 10.984375 60.40625 
L 10.984375 69.390625 
L 28.421875 72.90625 
L 38.28125 72.90625 
L 38.28125 8.296875 
L 54.390625 8.296875 
L 54.390625 0 
L 12.40625 0 
z
" id="DejaVuSans-31"/>
      <path id="DejaVuSans-20"/>
      <path d="M 37.109375 75.984375 
L 37.109375 68.5 
L 28.515625 68.5 
Q 23.6875 68.5 21.796875 66.546875 
Q 19.921875 64.59375 19.921875 59.515625 
L 19.921875 54.6875 
L 34.71875 54.6875 
L 34.71875 47.703125 
L 19.921875 47.703125 
L 19.921875 0 
L 10.890625 0 
L 10.890625 47.703125 
L 2.296875 47.703125 
L 2.296875 54.6875 
L 10.890625 54.6875 
L 10.890625 58.5 
Q 10.890625 67.625 15.140625 71.796875 
Q 19.390625 75.984375 28.609375 75.984375 
z
" id="DejaVuSans-66"/>
      <path d="M 19.671875 64.796875 
L 19.671875 8.109375 
L 31.59375 8.109375 
Q 46.6875 8.109375 53.6875 14.9375 
Q 60.6875 21.78125 60.6875 36.53125 
Q 60.6875 51.171875 53.6875 57.984375 
Q 46.6875 64.796875 31.59375 64.796875 
z
M 9.8125 72.90625 
L 30.078125 72.90625 
Q 51.265625 72.90625 61.171875 64.09375 
Q 71.09375 55.28125 71.09375 36.53125 
Q 71.09375 17.671875 61.125 8.828125 
Q 51.171875 0 30.078125 0 
L 9.8125 0 
z
" id="DejaVuSans-44"/>
     </defs>
     <g transform="translate(172.910063 336.833125)scale(0.2 -0.2)">
      <use xlink:href="#DejaVuSans-6c"/>
      <use x="27.783203" xlink:href="#DejaVuSans-6f"/>
      <use x="88.964844" xlink:href="#DejaVuSans-67"/>
      <use x="152.441406" xlink:href="#DejaVuSans-31"/>
      <use x="216.064453" xlink:href="#DejaVuSans-30"/>
      <use x="279.6875" xlink:href="#DejaVuSans-20"/>
      <use x="311.474609" xlink:href="#DejaVuSans-6f"/>
      <use x="372.65625" xlink:href="#DejaVuSans-66"/>
      <use x="407.861328" xlink:href="#DejaVuSans-20"/>
      <use x="439.648438" xlink:href="#DejaVuSans-44"/>
      <use x="516.650391" xlink:href="#DejaVuSans-66"/>
     </g>
    </g>
   </g>
   <g id="matplotlib.axis_2">
    <g id="ytick_1">
     <g id="line2d_11">
      <path clip-path="url(#p15dbe27508)" d="M 5.52 291.28 
L 450.672 291.28 
" style="fill:none;stroke:#b0b0b0;stroke-linecap:square;stroke-width:0.8;"/>
     </g>
     <g id="line2d_12">
      <defs>
       <path d="M 0 0 
L -3.5 0 
" id="mdaa465f9f2" style="stroke:#000000;stroke-width:0.8;"/>
      </defs>
      <g>
       <use style="stroke:#000000;stroke-width:0.8;" x="5.52" xlink:href="#mdaa465f9f2" y="291.28"/>
      </g>
     </g>
    </g>
    <g id="ytick_2">
     <g id="line2d_13">
      <path clip-path="url(#p15dbe27508)" d="M 5.52 234.693861 
L 450.672 234.693861 
" style="fill:none;stroke:#b0b0b0;stroke-linecap:square;stroke-width:0.8;"/>
     </g>
     <g id="line2d_14">
      <g>
       <use style="stroke:#000000;stroke-width:0.8;" x="5.52" xlink:href="#mdaa465f9f2" y="234.693861"/>
      </g>
     </g>
    </g>
    <g id="ytick_3">
     <g id="line2d_15">
      <path clip-path="url(#p15dbe27508)" d="M 5.52 178.107723 
L 450.672 178.107723 
" style="fill:none;stroke:#b0b0b0;stroke-linecap:square;stroke-width:0.8;"/>
     </g>
     <g id="line2d_16">
      <g>
       <use style="stroke:#000000;stroke-width:0.8;" x="5.52" xlink:href="#mdaa465f9f2" y="178.107723"/>
      </g>
     </g>
    </g>
    <g id="ytick_4">
     <g id="line2d_17">
      <path clip-path="url(#p15dbe27508)" d="M 5.52 121.521584 
L 450.672 121.521584 
" style="fill:none;stroke:#b0b0b0;stroke-linecap:square;stroke-width:0.8;"/>
     </g>
     <g id="line2d_18">
      <g>
       <use style="stroke:#000000;stroke-width:0.8;" x="5.52" xlink:href="#mdaa465f9f2" y="121.521584"/>
      </g>
     </g>
    </g>
    <g id="ytick_5">
     <g id="line2d_19">
      <path clip-path="url(#p15dbe27508)" d="M 5.52 64.935446 
L 450.672 64.935446 
" style="fill:none;stroke:#b0b0b0;stroke-linecap:square;stroke-width:0.8;"/>
     </g>
     <g id="line2d_20">
      <g>
       <use style="stroke:#000000;stroke-width:0.8;" x="5.52" xlink:href="#mdaa465f9f2" y="64.935446"/>
      </g>
     </g>
    </g>
    <g id="ytick_6">
     <g id="line2d_21">
      <path clip-path="url(#p15dbe27508)" d="M 5.52 8.349307 
L 450.672 8.349307 
" style="fill:none;stroke:#b0b0b0;stroke-linecap:square;stroke-width:0.8;"/>
     </g>
     <g id="line2d_22">
      <g>
       <use style="stroke:#000000;stroke-width:0.8;" x="5.52" xlink:href="#mdaa465f9f2" y="8.349307"/>
      </g>
     </g>
    </g>
   </g>
   <g id="line2d_23">
    <path clip-path="url(#p15dbe27508)" d="M -1 287.507591 
L 5.409114 287.507591 
L 5.409114 253.555908 
L 11.631929 253.555908 
L 11.631929 249.783498 
L 33.965363 249.783498 
L 33.965363 246.011089 
L 95.374005 246.011089 
L 95.374005 242.23868 
L 112.784957 242.23868 
L 112.784957 238.466271 
L 125.022988 238.466271 
L 125.022988 234.693861 
L 159.888463 234.693861 
L 159.888463 230.921452 
L 200.444702 230.921452 
L 200.444702 227.149043 
L 203.24002 227.149043 
L 203.24002 223.376634 
L 205.685248 223.376634 
L 205.685248 219.604224 
L 211.658326 219.604224 
L 211.658326 215.831815 
L 212.230352 215.831815 
L 212.230352 212.059406 
L 216.931646 212.059406 
L 216.931646 208.286997 
L 221.940234 208.286997 
L 221.940234 204.514587 
L 225.929924 204.514587 
L 225.929924 200.742178 
L 232.826469 200.742178 
L 232.826469 196.969769 
L 235.461718 196.969769 
L 235.461718 193.19736 
L 237.587004 193.19736 
L 237.587004 189.42495 
L 239.463405 189.42495 
L 239.463405 185.652541 
L 240.147149 185.652541 
L 240.147149 181.880132 
L 241.313587 181.880132 
L 241.313587 178.107723 
L 244.818449 178.107723 
L 244.818449 174.335314 
L 248.618448 174.335314 
L 248.618448 170.562904 
L 252.803276 170.562904 
L 252.803277 163.018086 
L 255.688 163.018086 
L 255.688 159.245677 
L 256.886923 159.245677 
L 256.886923 155.473267 
L 257.8171 155.473267 
L 257.838118 147.928449 
L 259.328305 147.928449 
L 259.387228 140.38363 
L 259.740666 140.38363 
L 259.740666 136.611221 
L 260.02236 136.611221 
L 260.02236 132.838812 
L 260.400271 132.838812 
L 260.400271 129.066403 
L 261.482988 129.066403 
L 261.482988 125.293993 
L 262.172827 125.293993 
L 262.172827 117.749175 
L 265.593866 117.749175 
L 265.593866 113.976766 
L 265.780927 113.976766 
L 265.780927 110.204356 
L 266.24936 110.204356 
L 266.251464 102.659538 
L 266.837117 102.659538 
L 266.837117 98.887129 
L 267.328273 98.887129 
L 267.328273 95.114719 
L 267.718706 95.114719 
L 267.73338 87.569901 
L 268.188105 87.569901 
L 268.188105 83.797492 
L 268.673065 83.797492 
L 268.673065 80.025083 
L 269.494507 80.025083 
L 269.494507 76.252673 
L 269.787257 76.252673 
L 269.787257 72.480264 
L 270.11346 72.480264 
L 270.115963 64.935446 
L 272.984994 64.935446 
L 272.984994 61.163036 
L 275.356606 61.163036 
L 275.356606 57.390627 
L 276.569773 57.390627 
L 276.662303 49.845809 
L 276.776844 49.845809 
L 276.776844 46.073399 
L 276.969462 46.073399 
L 276.969462 42.30099 
L 277.793764 42.30099 
L 277.847381 34.756172 
L 278.472602 34.756172 
L 278.472602 30.983762 
L 278.834391 30.983762 
L 278.834391 27.211353 
L 281.854135 27.211353 
L 281.854135 23.438944 
L 284.21603 23.438944 
L 284.21603 19.666535 
L 298.464029 19.666535 
L 298.464029 15.894125 
L 299.015187 15.894125 
L 299.015187 12.121716 
L 313.022832 12.121716 
L 313.022832 8.349307 
L 313.022832 8.349307 
L 450.672 8.349307 
L 450.672 8.349307 
" style="fill:none;stroke:#ff0000;stroke-linecap:square;stroke-width:3;"/>
   </g>
   <g id="line2d_24">
    <path clip-path="url(#p15dbe27508)" d="M 239.120464 291.28 
L 239.120464 287.507591 
L 239.575435 287.507591 
L 239.575435 283.735182 
L 241.990077 283.735182 
L 241.990077 279.962772 
L 243.866308 279.962772 
L 243.866308 276.190363 
L 245.081686 276.190363 
L 245.081686 272.417954 
L 246.821178 272.417954 
L 246.821178 268.645545 
L 247.458632 268.645545 
L 247.458632 264.873135 
L 248.95342 264.873135 
L 248.95342 261.100726 
L 250.059831 261.100726 
L 250.059831 257.328317 
L 250.634909 257.328317 
L 250.634909 253.555908 
L 251.277693 253.555908 
L 251.277693 249.783498 
L 252.097336 249.783498 
L 252.097336 246.011089 
L 253.061932 246.011089 
L 253.061932 242.23868 
L 255.142345 242.23868 
L 255.142345 238.466271 
L 255.445941 238.466271 
L 255.445941 234.693861 
L 261.27016 234.693861 
L 261.340629 223.376634 
L 261.460367 223.376634 
L 261.460367 219.604224 
L 262.847695 219.604224 
L 262.847721 163.018086 
L 263.869879 163.018086 
L 263.869879 159.245677 
L 264.168216 159.245677 
L 264.168216 155.473267 
L 264.565213 155.473267 
L 264.58654 144.15604 
L 264.679893 144.15604 
L 264.724909 136.611221 
L 265.144101 136.611221 
L 265.144101 132.838812 
L 268.08275 132.838812 
L 268.08275 129.066403 
L 268.967866 129.066403 
L 268.967866 125.293993 
L 269.270691 125.293993 
L 269.270691 121.521584 
L 269.563213 121.521584 
L 269.563213 117.749175 
L 269.825168 117.749175 
L 269.825168 113.976766 
L 270.552118 113.976766 
L 270.647455 106.431947 
L 271.667534 106.431947 
L 271.667534 102.659538 
L 272.026819 102.659538 
L 272.026819 98.887129 
L 272.230056 98.887129 
L 272.230056 95.114719 
L 272.487275 95.114719 
L 272.574338 87.569901 
L 272.61217 87.569901 
L 272.61217 83.797492 
L 273.077906 83.797492 
L 273.077906 80.025083 
L 278.116577 80.025083 
L 278.152177 72.480264 
L 278.268314 72.480264 
L 278.268314 68.707855 
L 278.809012 68.707855 
L 278.809012 64.935446 
L 316.916479 64.935446 
L 316.916479 61.163036 
L 339.847419 61.163036 
L 339.847419 57.390627 
L 353.23803 57.390627 
L 353.23803 53.618218 
L 372.3219 53.618218 
L 372.3219 49.845809 
L 373.761417 49.845809 
L 373.761417 46.073399 
L 377.399265 46.073399 
L 377.399265 42.30099 
L 379.151888 42.30099 
L 379.151888 38.528581 
L 382.77006 38.528581 
L 382.77006 34.756172 
L 384.642917 34.756172 
L 384.642917 30.983762 
L 388.254725 30.983762 
L 388.254725 27.211353 
L 388.704035 27.211353 
L 388.704035 23.438944 
L 389.420377 23.438944 
L 389.420377 19.666535 
L 391.831137 19.666535 
L 391.831137 15.894125 
L 392.613227 15.894125 
L 392.613227 12.121716 
L 393.271526 12.121716 
L 393.271526 8.349307 
L 393.271526 8.349307 
L 450.672 8.349307 
L 450.672 8.349307 
" style="fill:none;stroke:#00bfbf;stroke-linecap:square;stroke-width:1.5;"/>
   </g>
   <g id="line2d_25">
    <path clip-path="url(#p15dbe27508)" d="M 239.119737 291.28 
L 239.119737 287.507591 
L 239.574545 287.507591 
L 239.574545 283.735182 
L 241.990077 283.735182 
L 241.990077 279.962772 
L 243.865668 279.962772 
L 243.865668 276.190363 
L 245.081492 276.190363 
L 245.081492 272.417954 
L 246.821178 272.417954 
L 246.821178 268.645545 
L 247.457853 268.645545 
L 247.457853 264.873135 
L 248.95342 264.873135 
L 248.95342 261.100726 
L 250.059294 261.100726 
L 250.059294 257.328317 
L 250.634429 257.328317 
L 250.634429 253.555908 
L 251.277663 253.555908 
L 251.277663 249.783498 
L 252.097327 249.783498 
L 252.097327 246.011089 
L 253.061468 246.011089 
L 253.061468 242.23868 
L 255.141942 242.23868 
L 255.141942 238.466271 
L 255.445554 238.466271 
L 255.445554 234.693861 
L 261.264089 234.693861 
L 261.337661 223.376634 
L 261.456588 223.376634 
L 261.456588 219.604224 
L 262.847462 219.604224 
L 262.847695 163.018086 
L 263.867904 163.018086 
L 263.867904 159.245677 
L 264.165994 159.245677 
L 264.165994 155.473267 
L 264.565128 155.473267 
L 264.5844 144.15604 
L 264.676844 144.15604 
L 264.719472 136.611221 
L 265.138577 136.611221 
L 265.138577 132.838812 
L 268.082379 132.838812 
L 268.082379 129.066403 
L 268.966274 129.066403 
L 268.966274 125.293993 
L 269.270659 125.293993 
L 269.270659 121.521584 
L 269.562968 121.521584 
L 269.562968 117.749175 
L 269.824851 117.749175 
L 269.824851 113.976766 
L 270.551893 113.976766 
L 270.647455 106.431947 
L 271.666566 106.431947 
L 271.666566 102.659538 
L 272.024668 102.659538 
L 272.024668 98.887129 
L 272.230056 98.887129 
L 272.230056 95.114719 
L 272.484293 95.114719 
L 272.572618 87.569901 
L 272.611709 87.569901 
L 272.611709 83.797492 
L 273.076261 83.797492 
L 273.076261 80.025083 
L 278.116577 80.025083 
L 278.150898 72.480264 
L 278.26713 72.480264 
L 278.26713 68.707855 
L 278.807765 68.707855 
L 278.807765 64.935446 
L 316.915775 64.935446 
L 316.915775 61.163036 
L 339.847414 61.163036 
L 339.847414 57.390627 
L 353.232699 57.390627 
L 353.232699 53.618218 
L 372.32189 53.618218 
L 372.32189 49.845809 
L 373.761165 49.845809 
L 373.761165 46.073399 
L 377.396548 46.073399 
L 377.396548 42.30099 
L 379.149822 42.30099 
L 379.149822 38.528581 
L 382.768275 38.528581 
L 382.768275 34.756172 
L 384.640815 34.756172 
L 384.640815 30.983762 
L 388.254725 30.983762 
L 388.254725 27.211353 
L 388.704028 27.211353 
L 388.704028 23.438944 
L 389.420376 23.438944 
L 389.420376 19.666535 
L 391.831136 19.666535 
L 391.831136 15.894125 
L 392.613227 15.894125 
L 392.613227 12.121716 
L 393.269855 12.121716 
L 393.269855 8.349307 
L 393.269855 8.349307 
L 450.672 8.349307 
L 450.672 8.349307 
" style="fill:none;stroke:#bf00bf;stroke-linecap:square;stroke-width:1.5;"/>
   </g>
   <g id="line2d_26">
    <path clip-path="url(#p15dbe27508)" d="M 239.113739 291.28 
L 239.113739 287.507591 
L 239.566444 287.507591 
L 239.566444 283.735182 
L 241.98535 283.735182 
L 241.98535 279.962772 
L 243.86057 279.962772 
L 243.86057 276.190363 
L 245.076401 276.190363 
L 245.076401 272.417954 
L 246.817858 272.417954 
L 246.817858 268.645545 
L 247.4544 268.645545 
L 247.4544 264.873135 
L 248.94981 264.873135 
L 248.94981 261.100726 
L 250.054215 261.100726 
L 250.054215 257.328317 
L 250.63123 257.328317 
L 250.63123 253.555908 
L 251.275311 253.555908 
L 251.275311 249.783498 
L 252.095496 249.783498 
L 252.095496 246.011089 
L 253.058406 246.011089 
L 253.058406 242.23868 
L 255.139319 242.23868 
L 255.139319 238.466271 
L 255.44276 238.466271 
L 255.44276 234.693861 
L 261.245542 234.693861 
L 261.317883 223.376634 
L 261.435549 223.376634 
L 261.435549 219.604224 
L 262.845909 219.604224 
L 262.846586 163.018086 
L 263.853686 163.018086 
L 263.853686 159.245677 
L 264.142269 159.245677 
L 264.142269 155.473267 
L 264.555714 155.473267 
L 264.665994 140.38363 
L 264.704126 140.38363 
L 264.704126 136.611221 
L 265.123665 136.611221 
L 265.123665 132.838812 
L 268.073395 132.838812 
L 268.073395 129.066403 
L 268.955165 129.066403 
L 268.955165 125.293993 
L 269.259139 125.293993 
L 269.259139 121.521584 
L 269.554765 121.521584 
L 269.554765 117.749175 
L 269.817578 117.749175 
L 269.817578 113.976766 
L 270.540508 113.976766 
L 270.640953 106.431947 
L 271.657972 106.431947 
L 271.657972 102.659538 
L 272.006913 102.659538 
L 272.006913 98.887129 
L 272.202234 98.887129 
L 272.202234 95.114719 
L 272.474627 95.114719 
L 272.561407 87.569901 
L 272.589897 87.569901 
L 272.589897 83.797492 
L 273.064331 83.797492 
L 273.064331 80.025083 
L 278.113989 80.025083 
L 278.143927 72.480264 
L 278.258447 72.480264 
L 278.258447 68.707855 
L 278.802859 68.707855 
L 278.802859 64.935446 
L 316.859922 64.935446 
L 316.859922 61.163036 
L 339.830984 61.163036 
L 339.830984 57.390627 
L 353.223061 57.390627 
L 353.223061 53.618218 
L 372.313808 53.618218 
L 372.313808 49.845809 
L 373.757942 49.845809 
L 373.757942 46.073399 
L 377.391476 46.073399 
L 377.391476 42.30099 
L 379.146103 42.30099 
L 379.146103 38.528581 
L 382.76502 38.528581 
L 382.76502 34.756172 
L 384.637095 34.756172 
L 384.637095 30.983762 
L 388.248583 30.983762 
L 388.248583 27.211353 
L 388.697198 27.211353 
L 388.697198 23.438944 
L 389.412931 23.438944 
L 389.412931 19.666535 
L 391.82159 19.666535 
L 391.82159 15.894125 
L 392.603669 15.894125 
L 392.603669 12.121716 
L 393.266882 12.121716 
L 393.266882 8.349307 
L 393.266882 8.349307 
L 450.672 8.349307 
L 450.672 8.349307 
" style="fill:none;stroke:#000000;stroke-linecap:square;stroke-width:1.5;"/>
   </g>
   <g id="line2d_27">
    <path clip-path="url(#p15dbe27508)" d="M 238.218727 291.28 
L 238.218727 287.507591 
L 238.778698 287.507591 
L 238.778698 283.735182 
L 241.304122 283.735182 
L 241.304122 279.962772 
L 243.091092 279.962772 
L 243.091092 276.190363 
L 244.360054 276.190363 
L 244.360054 272.417954 
L 246.337094 272.417954 
L 246.337094 268.645545 
L 246.945297 268.645545 
L 246.945297 264.873135 
L 248.42963 264.873135 
L 248.42963 261.100726 
L 249.572704 261.100726 
L 249.572704 257.328317 
L 250.153826 257.328317 
L 250.153826 253.555908 
L 250.957972 253.555908 
L 250.957972 249.783498 
L 251.848408 249.783498 
L 251.848408 246.011089 
L 252.627739 246.011089 
L 252.627739 242.23868 
L 254.840682 242.23868 
L 254.840682 238.466271 
L 255.124837 238.466271 
L 255.124837 234.693861 
L 258.917133 234.693861 
L 258.917133 230.921452 
L 259.05134 230.921452 
L 259.05134 227.149043 
L 259.544442 227.149043 
L 259.544442 223.376634 
L 260.422029 223.376634 
L 260.422029 219.604224 
L 262.031009 219.604224 
L 262.031009 215.831815 
L 262.468465 215.831815 
L 262.468465 212.059406 
L 262.648646 212.059406 
L 262.725961 151.700858 
L 262.967276 151.700858 
L 262.967276 144.15604 
L 263.365937 144.15604 
L 263.365937 140.38363 
L 264.087548 140.38363 
L 264.087548 136.611221 
L 264.477736 136.611221 
L 264.477736 132.838812 
L 267.25669 132.838812 
L 267.25669 129.066403 
L 267.641453 129.066403 
L 267.641453 125.293993 
L 268.731651 125.293993 
L 268.731651 121.521584 
L 268.977385 121.521584 
L 268.977385 117.749175 
L 269.385832 117.749175 
L 269.385832 113.976766 
L 269.526984 113.976766 
L 269.526984 110.204356 
L 270.312747 110.204356 
L 270.372232 102.659538 
L 270.653732 102.659538 
L 270.653732 98.887129 
L 271.080481 98.887129 
L 271.080481 95.114719 
L 271.542331 95.114719 
L 271.542331 91.34231 
L 271.88957 91.34231 
L 271.965381 83.797492 
L 272.622411 83.797492 
L 272.622411 80.025083 
L 277.949377 80.025083 
L 278.000977 72.480264 
L 278.172324 72.480264 
L 278.172324 68.707855 
L 278.629553 68.707855 
L 278.629553 64.935446 
L 313.19072 64.935446 
L 313.19072 61.163036 
L 337.951538 61.163036 
L 337.951538 57.390627 
L 351.009488 57.390627 
L 351.009488 53.618218 
L 370.805662 53.618218 
L 370.805662 49.845809 
L 373.002958 49.845809 
L 373.002958 46.073399 
L 376.351709 46.073399 
L 376.351709 42.30099 
L 378.451539 42.30099 
L 378.451539 38.528581 
L 382.148518 38.528581 
L 382.148518 34.756172 
L 383.931817 34.756172 
L 383.931817 30.983762 
L 387.677713 30.983762 
L 387.677713 27.211353 
L 388.083059 27.211353 
L 388.083059 23.438944 
L 388.749807 23.438944 
L 388.749807 19.666535 
L 390.931332 19.666535 
L 390.931332 15.894125 
L 391.700906 15.894125 
L 391.700906 12.121716 
L 392.691243 12.121716 
L 392.691243 8.349307 
L 392.691243 8.349307 
L 450.672 8.349307 
L 450.672 8.349307 
" style="fill:none;stroke:#00bfbf;stroke-linecap:square;stroke-width:1.5;"/>
   </g>
   <g id="line2d_28">
    <path clip-path="url(#p15dbe27508)" d="M 5.409114 291.28 
L 5.409114 257.328317 
L 169.407842 257.328317 
L 169.407842 253.555908 
L 203.448086 253.555908 
L 203.448086 249.783498 
L 206.201087 249.783498 
L 206.201087 246.011089 
L 212.454098 246.011089 
L 212.454098 242.23868 
L 213.359523 242.23868 
L 213.359523 238.466271 
L 214.013855 238.466271 
L 214.013855 234.693861 
L 214.413279 234.693861 
L 214.413279 230.921452 
L 216.820697 230.921452 
L 216.820697 227.149043 
L 219.45029 227.149043 
L 219.45029 223.376634 
L 221.553254 223.376634 
L 221.553254 219.604224 
L 222.202938 219.604224 
L 222.202938 215.831815 
L 224.922847 215.831815 
L 224.922847 212.059406 
L 226.537816 212.059406 
L 226.537816 208.286997 
L 235.461718 208.286997 
L 235.461718 204.514587 
L 236.716924 204.514587 
L 236.716924 200.742178 
L 237.615589 200.742178 
L 237.615589 196.969769 
L 238.924002 196.969769 
L 238.924002 193.19736 
L 239.463405 193.19736 
L 239.463405 189.42495 
L 243.478033 189.42495 
L 243.478033 185.652541 
L 244.818449 185.652541 
L 244.900689 178.107723 
L 248.621336 178.107723 
L 248.621336 174.335314 
L 253.23338 174.335314 
L 253.334549 166.790495 
L 256.685389 166.790495 
L 256.685389 163.018086 
L 256.886923 163.018086 
L 256.886923 159.245677 
L 257.817105 159.245677 
L 257.838118 151.700858 
L 259.340965 151.700858 
L 259.387261 144.15604 
L 259.740671 144.15604 
L 259.740671 140.38363 
L 261.963399 140.38363 
L 261.963399 136.611221 
L 262.200966 136.611221 
L 262.200966 132.838812 
L 262.484916 132.838812 
L 262.484916 129.066403 
L 265.593915 129.066403 
L 265.593915 125.293993 
L 266.062189 125.293993 
L 266.062189 121.521584 
L 266.24936 121.521584 
L 266.251464 113.976766 
L 266.970263 113.976766 
L 266.970263 110.204356 
L 267.329043 110.204356 
L 267.329043 106.431947 
L 267.718706 106.431947 
L 267.718706 102.659538 
L 268.084356 102.659538 
L 268.084356 98.887129 
L 268.39797 98.887129 
L 268.39797 95.114719 
L 268.743413 95.114719 
L 268.756985 87.569901 
L 269.494525 87.569901 
L 269.494525 83.797492 
L 269.794965 83.797492 
L 269.794965 80.025083 
L 270.113476 80.025083 
L 270.115963 72.480264 
L 273.020223 72.480264 
L 273.020223 68.707855 
L 275.62415 68.707855 
L 275.62415 64.935446 
L 276.662308 64.935446 
L 276.662308 61.163036 
L 276.776844 61.163036 
L 276.776844 57.390627 
L 277.793764 57.390627 
L 277.793764 53.618218 
L 278.472602 53.618218 
L 278.472602 49.845809 
L 278.834391 49.845809 
L 278.834391 46.073399 
L 281.854135 46.073399 
L 281.854135 42.30099 
L 283.696716 42.30099 
L 283.696716 38.528581 
L 299.015928 38.528581 
L 299.015928 34.756172 
L 308.518141 34.756172 
L 308.518141 30.983762 
L 309.357772 30.983762 
L 309.357772 27.211353 
L 313.022832 27.211353 
L 313.022832 23.438944 
L 319.628219 23.438944 
L 319.628219 19.666535 
L 319.776472 19.666535 
L 319.776472 15.894125 
L 320.80206 15.894125 
L 320.80206 12.121716 
L 330.465773 12.121716 
L 330.465773 8.349307 
L 330.465773 8.349307 
L 450.672 8.349307 
L 450.672 8.349307 
" style="fill:none;stroke:#bf00bf;stroke-linecap:square;stroke-width:1.5;"/>
   </g>
   <g id="patch_3">
    <path d="M 5.52 291.28 
L 5.52 5.52 
" style="fill:none;stroke:#000000;stroke-linecap:square;stroke-linejoin:miter;stroke-width:0.8;"/>
   </g>
   <g id="patch_4">
    <path d="M 450.672 291.28 
L 450.672 5.52 
" style="fill:none;stroke:#000000;stroke-linecap:square;stroke-linejoin:miter;stroke-width:0.8;"/>
   </g>
   <g id="patch_5">
    <path d="M 5.52 291.28 
L 450.672 291.28 
" style="fill:none;stroke:#000000;stroke-linecap:square;stroke-linejoin:miter;stroke-width:0.8;"/>
   </g>
   <g id="patch_6">
    <path d="M 5.52 5.52 
L 450.672 5.52 
" style="fill:none;stroke:#000000;stroke-linecap:square;stroke-linejoin:miter;stroke-width:0.8;"/>
   </g>
   <g id="text_6">
    <!-- {f1-f5}, 5-D -->
    <defs>
     <path d="M 51.125 -9.28125 
L 51.125 -16.3125 
L 48.09375 -16.3125 
Q 35.9375 -16.3125 31.8125 -12.6875 
Q 27.6875 -9.078125 27.6875 1.703125 
L 27.6875 13.375 
Q 27.6875 20.75 25.046875 23.578125 
Q 22.40625 26.421875 15.484375 26.421875 
L 12.5 26.421875 
L 12.5 33.40625 
L 15.484375 33.40625 
Q 22.46875 33.40625 25.078125 36.203125 
Q 27.6875 39.015625 27.6875 46.296875 
L 27.6875 58.015625 
Q 27.6875 68.796875 31.8125 72.390625 
Q 35.9375 75.984375 48.09375 75.984375 
L 51.125 75.984375 
L 51.125 69 
L 47.796875 69 
Q 40.921875 69 38.8125 66.84375 
Q 36.71875 64.703125 36.71875 57.8125 
L 36.71875 45.703125 
Q 36.71875 38.03125 34.5 34.5625 
Q 32.28125 31.109375 26.90625 29.890625 
Q 32.328125 28.5625 34.515625 25.09375 
Q 36.71875 21.625 36.71875 14.015625 
L 36.71875 1.90625 
Q 36.71875 -4.984375 38.8125 -7.125 
Q 40.921875 -9.28125 47.796875 -9.28125 
z
" id="DejaVuSans-7b"/>
     <path d="M 10.796875 72.90625 
L 49.515625 72.90625 
L 49.515625 64.59375 
L 19.828125 64.59375 
L 19.828125 46.734375 
Q 21.96875 47.46875 24.109375 47.828125 
Q 26.265625 48.1875 28.421875 48.1875 
Q 40.625 48.1875 47.75 41.5 
Q 54.890625 34.8125 54.890625 23.390625 
Q 54.890625 11.625 47.5625 5.09375 
Q 40.234375 -1.421875 26.90625 -1.421875 
Q 22.3125 -1.421875 17.546875 -0.640625 
Q 12.796875 0.140625 7.71875 1.703125 
L 7.71875 11.625 
Q 12.109375 9.234375 16.796875 8.0625 
Q 21.484375 6.890625 26.703125 6.890625 
Q 35.15625 6.890625 40.078125 11.328125 
Q 45.015625 15.765625 45.015625 23.390625 
Q 45.015625 31 40.078125 35.4375 
Q 35.15625 39.890625 26.703125 39.890625 
Q 22.75 39.890625 18.8125 39.015625 
Q 14.890625 38.140625 10.796875 36.28125 
z
" id="DejaVuSans-35"/>
     <path d="M 12.5 -9.28125 
L 15.921875 -9.28125 
Q 22.75 -9.28125 24.828125 -7.171875 
Q 26.90625 -5.078125 26.90625 1.90625 
L 26.90625 14.015625 
Q 26.90625 21.625 29.09375 25.09375 
Q 31.296875 28.5625 36.71875 29.890625 
Q 31.296875 31.109375 29.09375 34.5625 
Q 26.90625 38.03125 26.90625 45.703125 
L 26.90625 57.8125 
Q 26.90625 64.75 24.828125 66.875 
Q 22.75 69 15.921875 69 
L 12.5 69 
L 12.5 75.984375 
L 15.578125 75.984375 
Q 27.734375 75.984375 31.8125 72.390625 
Q 35.890625 68.796875 35.890625 58.015625 
L 35.890625 46.296875 
Q 35.890625 39.015625 38.515625 36.203125 
Q 41.15625 33.40625 48.09375 33.40625 
L 51.125 33.40625 
L 51.125 26.421875 
L 48.09375 26.421875 
Q 41.15625 26.421875 38.515625 23.578125 
Q 35.890625 20.75 35.890625 13.375 
L 35.890625 1.703125 
Q 35.890625 -9.078125 31.8125 -12.6875 
Q 27.734375 -16.3125 15.578125 -16.3125 
L 12.5 -16.3125 
z
" id="DejaVuSans-7d"/>
     <path d="M 11.71875 12.40625 
L 22.015625 12.40625 
L 22.015625 4 
L 14.015625 -11.625 
L 7.71875 -11.625 
L 11.71875 4 
z
" id="DejaVuSans-2c"/>
    </defs>
    <g transform="translate(321.51896 285.5648)scale(0.2 -0.2)">
     <use xlink:href="#DejaVuSans-7b"/>
     <use x="63.623047" xlink:href="#DejaVuSans-66"/>
     <use x="98.828125" xlink:href="#DejaVuSans-31"/>
     <use x="162.451172" xlink:href="#DejaVuSans-2d"/>
     <use x="198.535156" xlink:href="#DejaVuSans-66"/>
     <use x="233.740234" xlink:href="#DejaVuSans-35"/>
     <use x="297.363281" xlink:href="#DejaVuSans-7d"/>
     <use x="360.986328" xlink:href="#DejaVuSans-2c"/>
     <use x="392.773438" xlink:href="#DejaVuSans-20"/>
     <use x="424.560547" xlink:href="#DejaVuSans-35"/>
     <use x="488.183594" xlink:href="#DejaVuSans-2d"/>
     <use x="524.267578" xlink:href="#DejaVuSans-44"/>
    </g>
   </g>
   <g id="text_7">
    <!-- v2.2.1.10 -->
    <defs>
     <path d="M 2.984375 54.6875 
L 12.5 54.6875 
L 29.59375 8.796875 
L 46.6875 54.6875 
L 56.203125 54.6875 
L 35.6875 0 
L 23.484375 0 
z
" id="DejaVuSans-76"/>
     <path d="M 19.1875 8.296875 
L 53.609375 8.296875 
L 53.609375 0 
L 7.328125 0 
L 7.328125 8.296875 
Q 12.9375 14.109375 22.625 23.890625 
Q 32.328125 33.6875 34.8125 36.53125 
Q 39.546875 41.84375 41.421875 45.53125 
Q 43.3125 49.21875 43.3125 52.78125 
Q 43.3125 58.59375 39.234375 62.25 
Q 35.15625 65.921875 28.609375 65.921875 
Q 23.96875 65.921875 18.8125 64.3125 
Q 13.671875 62.703125 7.8125 59.421875 
L 7.8125 69.390625 
Q 13.765625 71.78125 18.9375 73 
Q 24.125 74.21875 28.421875 74.21875 
Q 39.75 74.21875 46.484375 68.546875 
Q 53.21875 62.890625 53.21875 53.421875 
Q 53.21875 48.921875 51.53125 44.890625 
Q 49.859375 40.875 45.40625 35.40625 
Q 44.1875 33.984375 37.640625 27.21875 
Q 31.109375 20.453125 19.1875 8.296875 
z
" id="DejaVuSans-32"/>
     <path d="M 10.6875 12.40625 
L 21 12.40625 
L 21 0 
L 10.6875 0 
z
" id="DejaVuSans-2e"/>
    </defs>
    <g style="fill:#808080;" transform="translate(204.463188 286.342713)scale(0.1 -0.1)">
     <use xlink:href="#DejaVuSans-76"/>
     <use x="59.179688" xlink:href="#DejaVuSans-32"/>
     <use x="122.802734" xlink:href="#DejaVuSans-2e"/>
     <use x="154.589844" xlink:href="#DejaVuSans-32"/>
     <use x="218.212891" xlink:href="#DejaVuSans-2e"/>
     <use x="250" xlink:href="#DejaVuSans-31"/>
     <use x="313.623047" xlink:href="#DejaVuSans-2e"/>
     <use x="345.410156" xlink:href="#DejaVuSans-31"/>
     <use x="409.033203" xlink:href="#DejaVuSans-30"/>
    </g>
   </g>
  </g>
 </g>
 <defs>
  <clipPath id="p15dbe27508">
   <rect height="285.76" width="445.152" x="5.52" y="5.52"/>
  </clipPath>
 </defs>
</svg>
